  0
SECTION
  2
HEADER
  9
$ACADVER
  1
AC1024
  9
$ACADMAINTVER
 70
6
  9
$DWGCODEPAGE
  3
ANSI_1252
  9
$LASTSAVEDBY
  1
ezdxf
  9
$INSBASE
 10
0.0
 20
0.0
 30
0.0
  9
$EXTMIN
 10
1e+20
 20
1e+20
 30
1e+20
  9
$EXTMAX
 10
-1e+20
 20
-1e+20
 30
-1e+20
  9
$LIMMIN
 10
0.0
 20
0.0
  9
$LIMMAX
 10
420.0
 20
297.0
  9
$ORTHOMODE
 70
0
  9
$REGENMODE
 70
1
  9
$FILLMODE
 70
1
  9
$QTEXTMODE
 70
0
  9
$MIRRTEXT
 70
1
  9
$LTSCALE
 40
1.0
  9
$ATTMODE
 70
1
  9
$TEXTSIZE
 40
2.5
  9
$TRACEWID
 40
1.0
  9
$TEXTSTYLE
  7
Standard
  9
$CLAYER
  8
0
  9
$CELTYPE
  6
ByLayer
  9
$CECOLOR
 62
256
  9
$CELTSCALE
 40
1.0
  9
$DISPSILH
 70
0
  9
$DIMSCALE
 40
1.0
  9
$DIMASZ
 40
2.5
  9
$DIMEXO
 40
0.625
  9
$DIMDLI
 40
3.75
  9
$DIMRND
 40
0.0
  9
$DIMDLE
 40
0.0
  9
$DIMEXE
 40
1.25
  9
$DIMTP
 40
0.0
  9
$DIMTM
 40
0.0
  9
$DIMTXT
 40
2.5
  9
$DIMCEN
 40
2.5
  9
$DIMTSZ
 40
0.0
  9
$DIMTOL
 70
0
  9
$DIMLIM
 70
0
  9
$DIMTIH
 70
0
  9
$DIMTOH
 70
0
  9
$DIMSE1
 70
0
  9
$DIMSE2
 70
0
  9
$DIMTAD
 70
1
  9
$DIMZIN
 70
8
  9
$DIMBLK
  1

  9
$DIMASO
 70
1
  9
$DIMSHO
 70
1
  9
$DIMPOST
  1

  9
$DIMAPOST
  1

  9
$DIMALT
 70
0
  9
$DIMALTD
 70
3
  9
$DIMALTF
 40
0.03937007874
  9
$DIMLFAC
 40
1.0
  9
$DIMTOFL
 70
1
  9
$DIMTVP
 40
0.0
  9
$DIMTIX
 70
0
  9
$DIMSOXD
 70
0
  9
$DIMSAH
 70
0
  9
$DIMBLK1
  1

  9
$DIMBLK2
  1

  9
$DIMSTYLE
  2
ISO-25
  9
$DIMCLRD
 70
0
  9
$DIMCLRE
 70
0
  9
$DIMCLRT
 70
0
  9
$DIMTFAC
 40
1.0
  9
$DIMGAP
 40
0.625
  9
$DIMJUST
 70
0
  9
$DIMSD1
 70
0
  9
$DIMSD2
 70
0
  9
$DIMTOLJ
 70
0
  9
$DIMTZIN
 70
8
  9
$DIMALTZ
 70
0
  9
$DIMALTTZ
 70
0
  9
$DIMUPT
 70
0
  9
$DIMDEC
 70
2
  9
$DIMTDEC
 70
2
  9
$DIMALTU
 70
2
  9
$DIMALTTD
 70
3
  9
$DIMTXSTY
  7
Standard
  9
$DIMAUNIT
 70
0
  9
$DIMADEC
 70
0
  9
$DIMALTRND
 40
0.0
  9
$DIMAZIN
 70
0
  9
$DIMDSEP
 70
44
  9
$DIMATFIT
 70
3
  9
$DIMFRAC
 70
0
  9
$DIMLDRBLK
  1

  9
$DIMLUNIT
 70
2
  9
$DIMLWD
 70
-2
  9
$DIMLWE
 70
-2
  9
$DIMTMOVE
 70
0
  9
$DIMFXL
 40
1.0
  9
$DIMFXLON
 70
0
  9
$DIMJOGANG
 40
0.785398163397
  9
$DIMTFILL
 70
0
  9
$DIMTFILLCLR
 70
0
  9
$DIMARCSYM
 70
0
  9
$DIMLTYPE
  6

  9
$DIMLTEX1
  6

  9
$DIMLTEX2
  6

  9
$DIMTXTDIRECTION
 70
0
  9
$LUNITS
 70
2
  9
$LUPREC
 70
4
  9
$SKETCHINC
 40
1.0
  9
$FILLETRAD
 40
10.0
  9
$AUNITS
 70
0
  9
$AUPREC
 70
2
  9
$MENU
  1
.
  9
$ELEVATION
 40
0.0
  9
$PELEVATION
 40
0.0
  9
$THICKNESS
 40
0.0
  9
$LIMCHECK
 70
0
  9
$CHAMFERA
 40
0.0
  9
$CHAMFERB
 40
0.0
  9
$CHAMFERC
 40
0.0
  9
$CHAMFERD
 40
0.0
  9
$SKPOLY
 70
0
  9
$TDCREATE
 40
2460887.6258680555
  9
$TDUCREATE
 40
2458532.153996898
  9
$TDUPDATE
 40
2460887.6258680555
  9
$TDUUPDATE
 40
2458532.1544311
  9
$TDINDWG
 40
0.0
  9
$TDUSRTIMER
 40
0.0
  9
$USRTIMER
 70
1
  9
$ANGBASE
 50
0.0
  9
$ANGDIR
 70
0
  9
$PDMODE
 70
0
  9
$PDSIZE
 40
0.0
  9
$PLINEWID
 40
0.0
  9
$SPLFRAME
 70
0
  9
$SPLINETYPE
 70
6
  9
$SPLINESEGS
 70
8
  9
$HANDSEED
  5
153
  9
$SURFTAB1
 70
6
  9
$SURFTAB2
 70
6
  9
$SURFTYPE
 70
6
  9
$SURFU
 70
6
  9
$SURFV
 70
6
  9
$UCSBASE
  2

  9
$UCSNAME
  2

  9
$UCSORG
 10
0.0
 20
0.0
 30
0.0
  9
$UCSXDIR
 10
1.0
 20
0.0
 30
0.0
  9
$UCSYDIR
 10
0.0
 20
1.0
 30
0.0
  9
$UCSORTHOREF
  2

  9
$UCSORTHOVIEW
 70
0
  9
$UCSORGTOP
 10
0.0
 20
0.0
 30
0.0
  9
$UCSORGBOTTOM
 10
0.0
 20
0.0
 30
0.0
  9
$UCSORGLEFT
 10
0.0
 20
0.0
 30
0.0
  9
$UCSORGRIGHT
 10
0.0
 20
0.0
 30
0.0
  9
$UCSORGFRONT
 10
0.0
 20
0.0
 30
0.0
  9
$UCSORGBACK
 10
0.0
 20
0.0
 30
0.0
  9
$PUCSBASE
  2

  9
$PUCSNAME
  2

  9
$PUCSORG
 10
0.0
 20
0.0
 30
0.0
  9
$PUCSXDIR
 10
1.0
 20
0.0
 30
0.0
  9
$PUCSYDIR
 10
0.0
 20
1.0
 30
0.0
  9
$PUCSORTHOREF
  2

  9
$PUCSORTHOVIEW
 70
0
  9
$PUCSORGTOP
 10
0.0
 20
0.0
 30
0.0
  9
$PUCSORGBOTTOM
 10
0.0
 20
0.0
 30
0.0
  9
$PUCSORGLEFT
 10
0.0
 20
0.0
 30
0.0
  9
$PUCSORGRIGHT
 10
0.0
 20
0.0
 30
0.0
  9
$PUCSORGFRONT
 10
0.0
 20
0.0
 30
0.0
  9
$PUCSORGBACK
 10
0.0
 20
0.0
 30
0.0
  9
$USERI1
 70
0
  9
$USERI2
 70
0
  9
$USERI3
 70
0
  9
$USERI4
 70
0
  9
$USERI5
 70
0
  9
$USERR1
 40
0.0
  9
$USERR2
 40
0.0
  9
$USERR3
 40
0.0
  9
$USERR4
 40
0.0
  9
$USERR5
 40
0.0
  9
$WORLDVIEW
 70
1
  9
$SHADEDGE
 70
3
  9
$SHADEDIF
 70
70
  9
$TILEMODE
 70
1
  9
$MAXACTVP
 70
64
  9
$PINSBASE
 10
0.0
 20
0.0
 30
0.0
  9
$PLIMCHECK
 70
0
  9
$PEXTMIN
 10
1e+20
 20
1e+20
 30
1e+20
  9
$PEXTMAX
 10
-1e+20
 20
-1e+20
 30
-1e+20
  9
$PLIMMIN
 10
0.0
 20
0.0
  9
$PLIMMAX
 10
420.0
 20
297.0
  9
$UNITMODE
 70
0
  9
$VISRETAIN
 70
1
  9
$PLINEGEN
 70
0
  9
$PSLTSCALE
 70
1
  9
$TREEDEPTH
 70
3020
  9
$CMLSTYLE
  2
Standard
  9
$CMLJUST
 70
0
  9
$CMLSCALE
 40
20.0
  9
$PROXYGRAPHICS
 70
1
  9
$MEASUREMENT
 70
1
  9
$CELWEIGHT
370
-1
  9
$ENDCAPS
280
0
  9
$JOINSTYLE
280
0
  9
$LWDISPLAY
290
0
  9
$INSUNITS
 70
6
  9
$HYPERLINKBASE
  1

  9
$STYLESHEET
  1

  9
$XEDIT
290
1
  9
$CEPSNTYPE
380
0
  9
$PSTYLEMODE
290
1
  9
$FINGERPRINTGUID
  2
{C96C2435-E266-4380-B499-7B06DD0CECAC}
  9
$VERSIONGUID
  2
{73B94EC0-1B8C-4A26-A629-7F495845AF29}
  9
$EXTNAMES
290
1
  9
$PSVPSCALE
 40
0.0
  9
$OLESTARTUP
290
0
  9
$SORTENTS
280
127
  9
$INDEXCTL
280
0
  9
$HIDETEXT
280
1
  9
$XCLIPFRAME
280
1
  9
$HALOGAP
280
0
  9
$OBSCOLOR
 70
257
  9
$OBSLTYPE
280
0
  9
$INTERSECTIONDISPLAY
280
0
  9
$INTERSECTIONCOLOR
 70
257
  9
$DIMASSOC
280
2
  9
$PROJECTNAME
  1

  9
$CAMERADISPLAY
290
0
  9
$LENSLENGTH
 40
50.0
  9
$CAMERAHEIGHT
 40
0.0
  9
$STEPSPERSEC
 40
24.0
  9
$STEPSIZE
 40
100.0
  9
$3DDWFPREC
 40
2.0
  9
$PSOLWIDTH
 40
0.005
  9
$PSOLHEIGHT
 40
0.08
  9
$LOFTANG1
 40
1.570796326795
  9
$LOFTANG2
 40
1.570796326795
  9
$LOFTMAG1
 40
0.0
  9
$LOFTMAG2
 40
0.0
  9
$LOFTPARAM
 70
7
  9
$LOFTNORMALS
280
1
  9
$LATITUDE
 40
37.795
  9
$LONGITUDE
 40
-122.394
  9
$NORTHDIRECTION
 40
0.0
  9
$TIMEZONE
 70
-8000
  9
$LIGHTGLYPHDISPLAY
280
1
  9
$TILEMODELIGHTSYNCH
280
1
  9
$CMATERIAL
347
20
  9
$SOLIDHIST
280
0
  9
$SHOWHIST
280
1
  9
$DWFFRAME
280
2
  9
$DGNFRAME
280
2
  9
$REALWORLDSCALE
290
1
  9
$INTERFERECOLOR
 62
256
  9
$CSHADOW
280
0
  9
$SHADOWPLANELOCATION
 40
0.0
  0
ENDSEC
  0
SECTION
  2
CLASSES
  0
CLASS
  1
ACDBDICTIONARYWDFLT
  2
AcDbDictionaryWithDefault
  3
ObjectDBX Classes
 90
0
 91
0
280
0
281
0
  0
CLASS
  1
SUN
  2
AcDbSun
  3
SCENEOE
 90
1153
 91
0
280
0
281
0
  0
CLASS
  1
VISUALSTYLE
  2
AcDbVisualStyle
  3
ObjectDBX Classes
 90
4095
 91
0
280
0
281
0
  0
CLASS
  1
MATERIAL
  2
AcDbMaterial
  3
ObjectDBX Classes
 90
1153
 91
0
280
0
281
0
  0
CLASS
  1
SCALE
  2
AcDbScale
  3
ObjectDBX Classes
 90
1153
 91
0
280
0
281
0
  0
CLASS
  1
TABLESTYLE
  2
AcDbTableStyle
  3
ObjectDBX Classes
 90
4095
 91
0
280
0
281
0
  0
CLASS
  1
MLEADERSTYLE
  2
AcDbMLeaderStyle
  3
ACDB_MLEADERSTYLE_CLASS
 90
4095
 91
0
280
0
281
0
  0
CLASS
  1
DICTIONARYVAR
  2
AcDbDictionaryVar
  3
ObjectDBX Classes
 90
0
 91
0
280
0
281
0
  0
CLASS
  1
CELLSTYLEMAP
  2
AcDbCellStyleMap
  3
ObjectDBX Classes
 90
1152
 91
0
280
0
281
0
  0
CLASS
  1
MENTALRAYRENDERSETTINGS
  2
AcDbMentalRayRenderSettings
  3
SCENEOE
 90
1024
 91
0
280
0
281
0
  0
CLASS
  1
ACDBDETAILVIEWSTYLE
  2
AcDbDetailViewStyle
  3
ObjectDBX Classes
 90
1025
 91
0
280
0
281
0
  0
CLASS
  1
ACDBSECTIONVIEWSTYLE
  2
AcDbSectionViewStyle
  3
ObjectDBX Classes
 90
1025
 91
0
280
0
281
0
  0
CLASS
  1
RASTERVARIABLES
  2
AcDbRasterVariables
  3
ISM
 90
0
 91
0
280
0
281
0
  0
CLASS
  1
LAYOUT
  2
AcDbLayout
  3
ObjectDBX Classes
 90
0
 91
0
280
0
281
0
  0
CLASS
  1
ACDBPLACEHOLDER
  2
AcDbPlaceHolder
  3
ObjectDBX Classes
 90
0
 91
0
280
0
281
0
  0
ENDSEC
  0
SECTION
  2
TABLES
  0
TABLE
  2
VPORT
  5
8
330
0
100
AcDbSymbolTable
 70
1
  0
VPORT
  5
23
330
8
100
AcDbSymbolTableRecord
100
AcDbViewportTableRecord
  2
*Active
 70
0
 10
0.0
 20
0.0
 11
1.0
 21
1.0
 12
0.0
 22
0.0
 13
0.0
 23
0.0
 14
0.5
 24
0.5
 15
0.5
 25
0.5
 16
0.0
 26
0.0
 36
1.0
 17
0.0
 27
0.0
 37
0.0
 40
1000.0
 41
1.34
 42
50.0
 43
0.0
 44
0.0
 50
0.0
 51
0.0
 71
0
 72
1000
 73
1
 74
3
 75
0
 76
0
 77
0
 78
0
281
0
 65
0
146
0.0
  0
ENDTAB
  0
TABLE
  2
LTYPE
  5
2
330
0
100
AcDbSymbolTable
 70
3
  0
LTYPE
  5
24
330
2
100
AcDbSymbolTableRecord
100
AcDbLinetypeTableRecord
  2
ByBlock
 70
0
  3

 72
65
 73
0
 40
0.0
  0
LTYPE
  5
25
330
2
100
AcDbSymbolTableRecord
100
AcDbLinetypeTableRecord
  2
ByLayer
 70
0
  3

 72
65
 73
0
 40
0.0
  0
LTYPE
  5
26
330
2
100
AcDbSymbolTableRecord
100
AcDbLinetypeTableRecord
  2
Continuous
 70
0
  3

 72
65
 73
0
 40
0.0
  0
ENDTAB
  0
TABLE
  2
LAYER
  5
1
330
0
100
AcDbSymbolTable
 70
2
  0
LAYER
  5
27
330
1
100
AcDbSymbolTableRecord
100
AcDbLayerTableRecord
  2
0
 70
0
 62
7
  6
Continuous
370
-3
390
13
347
21
  0
LAYER
  5
28
330
1
100
AcDbSymbolTableRecord
100
AcDbLayerTableRecord
  2
Defpoints
 70
0
 62
7
  6
Continuous
290
0
370
-3
390
13
347
21
  0
ENDTAB
  0
TABLE
  2
STYLE
  5
5
330
0
100
AcDbSymbolTable
 70
1
  0
STYLE
  5
29
330
5
100
AcDbSymbolTableRecord
100
AcDbTextStyleTableRecord
  2
Standard
 70
0
 40
0.0
 41
1.0
 50
0.0
 71
0
 42
2.5
  3
txt
  4

  0
ENDTAB
  0
TABLE
  2
VIEW
  5
7
330
0
100
AcDbSymbolTable
 70
0
  0
ENDTAB
  0
TABLE
  2
UCS
  5
6
330
0
100
AcDbSymbolTable
 70
0
  0
ENDTAB
  0
TABLE
  2
APPID
  5
3
330
0
100
AcDbSymbolTable
 70
3
  0
APPID
  5
2A
330
3
100
AcDbSymbolTableRecord
100
AcDbRegAppTableRecord
  2
ACAD
 70
0
  0
APPID
  5
150
330
3
100
AcDbSymbolTableRecord
100
AcDbRegAppTableRecord
  2
HATCHBACKGROUNDCOLOR
 70
0
  0
APPID
  5
151
330
3
100
AcDbSymbolTableRecord
100
AcDbRegAppTableRecord
  2
EZDXF
 70
0
  0
ENDTAB
  0
TABLE
  2
DIMSTYLE
  5
4
330
0
100
AcDbSymbolTable
 70
1
100
AcDbDimStyleTable
  0
DIMSTYLE
105
2B
330
4
100
AcDbSymbolTableRecord
100
AcDbDimStyleTableRecord
  2
Standard
 70
0
 40
1.0
 41
2.5
 42
0.625
 43
3.75
 44
1.25
 45
0.0
 46
0.0
 47
0.0
 48
0.0
 49
2.5
140
2.5
141
2.5
142
0.0
143
0.03937007874
144
1.0
145
0.0
146
1.0
147
0.625
148
0.0
 69
0
 70
0
 71
0
 72
0
 73
0
 74
0
 75
0
 76
0
 77
1
 78
8
 79
3
170
0
171
3
172
1
173
0
174
0
175
0
176
0
177
0
178
0
179
2
271
2
272
2
273
2
274
3
275
0
276
0
277
2
278
44
279
0
280
0
281
0
282
0
283
0
284
8
285
0
286
0
288
0
289
3
290
0
371
-2
372
-2
  0
ENDTAB
  0
TABLE
  2
BLOCK_RECORD
  5
9
330
0
100
AcDbSymbolTable
 70
2
  0
BLOCK_RECORD
  5
17
330
9
100
AcDbSymbolTableRecord
100
AcDbBlockTableRecord
  2
*Model_Space
340
1A
 70
0
280
1
281
0
  0
BLOCK_RECORD
  5
1B
330
9
100
AcDbSymbolTableRecord
100
AcDbBlockTableRecord
  2
*Paper_Space
340
1E
 70
0
280
1
281
0
  0
ENDTAB
  0
ENDSEC
  0
SECTION
  2
BLOCKS
  0
BLOCK
  5
18
330
17
100
AcDbEntity
  8
0
100
AcDbBlockBegin
  2
*Model_Space
 70
0
 10
0.0
 20
0.0
 30
0.0
  3
*Model_Space
  1

  0
ENDBLK
  5
19
330
17
100
AcDbEntity
  8
0
100
AcDbBlockEnd
  0
BLOCK
  5
1C
330
1B
100
AcDbEntity
  8
0
100
AcDbBlockBegin
  2
*Paper_Space
 70
0
 10
0.0
 20
0.0
 30
0.0
  3
*Paper_Space
  1

  0
ENDBLK
  5
1D
330
1B
100
AcDbEntity
  8
0
100
AcDbBlockEnd
  0
ENDSEC
  0
SECTION
  2
ENTITIES
  0
LWPOLYLINE
  5
2F
330
17
100
AcDbEntity
  8
0
100
AcDbPolyline
 90
2
 70
1
 10
2.407130411677043
 20
0.43146904288698956
 10
4.508797545462626
 20
0.4975990177197842
  0
LWPOLYLINE
  5
30
330
17
100
AcDbEntity
  8
0
100
AcDbPolyline
 90
2
 70
1
 10
2.407130411677043
 20
0.43146904288698956
 10
4.508797545462626
 20
0.4975990177197842
  0
LWPOLYLINE
  5
31
330
17
100
AcDbEntity
  8
0
100
AcDbPolyline
 90
2
 70
1
 10
4.574764517205036
 20
0.49968675312811484
 10
7.0075464750996215
 20
0.5766799043989828
  0
LWPOLYLINE
  5
32
330
17
100
AcDbEntity
  8
0
100
AcDbPolyline
 90
2
 70
1
 10
7.073513446842032
 20
0.5787676398073134
 10
9.506788642614557
 20
0.5287009253954056
  0
LWPOLYLINE
  5
33
330
17
100
AcDbEntity
  8
0
100
AcDbPolyline
 90
2
 70
1
 10
9.572769674608592
 20
0.5271187063836262
 10
12.006070157540382
 20
0.46876838707042423
  0
LWPOLYLINE
  5
34
330
17
100
AcDbEntity
  8
0
100
AcDbPolyline
 90
2
 70
1
 10
12.072051189534417
 20
0.4671861680586449
 10
12.97851172243178
 20
0.44544932876962756
  0
LWPOLYLINE
  5
35
330
17
100
AcDbEntity
  8
0
100
AcDbPolyline
 90
2
 70
1
 10
12.97851172243178
 20
0.44544932876962756
 10
13.091017345328284
 20
0.45607656890015624
  0
LWPOLYLINE
  5
36
330
17
100
AcDbEntity
  8
0
100
AcDbPolyline
 90
3
 70
1
 10
13.091017345328284
 20
0.45607656890015624
 10
13.960762335176637
 20
0.6035947170165625
 10
14.396808035311684
 20
0.8864049204538469
  0
LWPOLYLINE
  5
37
330
17
100
AcDbEntity
  8
0
100
AcDbPolyline
 90
3
 70
1
 10
14.438282569463084
 20
0.9374042147753262
 10
14.750514665427131
 20
2.2748842475989317
 10
14.713874988654466
 20
3.3144887861548216
  0
LWPOLYLINE
  5
38
330
17
100
AcDbEntity
  8
0
100
AcDbPolyline
 90
2
 70
1
 10
14.711550337208182
 20
3.380447834022816
 10
14.626929024343005
 20
5.812958342097103
  0
LWPOLYLINE
  5
39
330
17
100
AcDbEntity
  8
0
100
AcDbPolyline
 90
2
 70
1
 10
14.626123245716576
 20
5.8789445376698675
 10
14.626150328645364
 20
8.312944537519199
  0
LWPOLYLINE
  5
3A
330
17
100
AcDbEntity
  8
0
100
AcDbPolyline
 90
2
 70
1
 10
14.626151063022233
 20
8.378944537515105
 10
14.626178145951021
 20
10.812944537364439
  0
LWPOLYLINE
  5
3B
330
17
100
AcDbEntity
  8
0
100
AcDbPolyline
 90
2
 70
1
 10
14.62617888032789
 20
10.878944537360345
 10
14.626205963256679
 20
13.312944537209676
  0
LWPOLYLINE
  5
3C
330
17
100
AcDbEntity
  8
0
100
AcDbPolyline
 90
4
 70
1
 10
14.626206697633547
 20
13.378944537205582
 10
14.626218497734607
 20
14.439444537139932
 10
14.506646001551493
 20
14.63269704054201
 10
13.450925020924691
 20
14.635949935324412
  0
LWPOLYLINE
  5
3D
330
17
100
AcDbEntity
  8
0
100
AcDbPolyline
 90
2
 70
1
 10
13.384925089780024
 20
14.63585459961175
 10
10.950927629080926
 20
14.632338734087268
  0
LWPOLYLINE
  5
3E
330
17
100
AcDbEntity
  8
0
100
AcDbPolyline
 90
2
 70
1
 10
10.88492769793626
 20
14.632243398374607
 10
8.450930237237166
 20
14.628727532850125
  0
LWPOLYLINE
  5
3F
330
17
100
AcDbEntity
  8
0
100
AcDbPolyline
 90
2
 70
1
 10
8.384930306092496
 20
14.628632197137463
 10
6.074162996730094
 20
14.62529433534867
  0
LWPOLYLINE
  5
40
330
17
100
AcDbEntity
  8
0
100
AcDbPolyline
 90
2
 70
1
 10
6.074162996730094
 20
14.62529433534867
 10
5.9509425830748475
 20
14.625781774166601
  0
LWPOLYLINE
  5
41
330
17
100
AcDbEntity
  8
0
100
AcDbPolyline
 90
2
 70
1
 10
5.884965673487215
 20
14.627094510495715
 10
3.452435555330575
 20
14.711671246427452
  0
LWPOLYLINE
  5
42
330
17
100
AcDbEntity
  8
0
100
AcDbPolyline
 90
3
 70
1
 10
3.386475412438905
 20
14.713964617245649
 10
1.7032341273132987
 20
14.71344528326765
 10
0.9996627547157952
 20
14.480813346754081
  0
LWPOLYLINE
  5
43
330
17
100
AcDbEntity
  8
0
100
AcDbPolyline
 90
3
 70
1
 10
0.9459263150987697
 20
14.44321656254068
 10
0.5487264753061678
 20
13.804711890847717
 10
0.45127770460855493
 20
12.148011149571495
  0
LWPOLYLINE
  5
44
330
17
100
AcDbEntity
  8
0
100
AcDbPolyline
 90
2
 70
1
 10
0.45329765475396894
 20
12.082042067408644
 10
0.5277909676924238
 20
9.649182279766231
  0
LWPOLYLINE
  5
45
330
17
100
AcDbEntity
  8
0
100
AcDbPolyline
 90
2
 70
1
 10
0.5298109178378378
 20
9.583213197603378
 10
0.5654110764150619
 20
7.150241689659768
  0
LWPOLYLINE
  5
46
330
17
100
AcDbEntity
  8
0
100
AcDbPolyline
 90
2
 70
1
 10
0.5637480346642935
 20
7.084262645318899
 10
0.5024170707041296
 20
4.651035464626608
  0
LWPOLYLINE
  5
47
330
17
100
AcDbEntity
  8
0
100
AcDbPolyline
 90
2
 70
1
 10
0.500754028953361
 20
4.5850564202857385
 10
0.4501507458081234
 20
2.152363222602462
  0
LWPOLYLINE
  5
48
330
17
100
AcDbEntity
  8
0
100
AcDbPolyline
 90
5
 70
1
 10
0.456868090074481
 20
2.086801321893969
 10
0.5773127805205122
 20
1.29703291993849
 10
0.80679851770401
 20
0.8573096394538879
 10
1.2544647048253381
 20
0.5856210555807942
 10
2.0104368583057477
 20
0.4511341874612185
  0
LWPOLYLINE
  5
49
330
17
100
AcDbEntity
  8
0
100
AcDbPolyline
 90
2
 70
1
 10
2.0763354434799375
 20
0.44747680150411545
 10
2.381761799220278
 20
0.4326966752989111
  0
LWPOLYLINE
  5
4A
330
17
100
AcDbEntity
  8
0
100
AcDbPolyline
 90
2
 70
1
 10
2.381761799220278
 20
0.4326966752989111
 10
2.407130411677043
 20
0.43146904288698956
  0
LINE
  5
4B
330
17
100
AcDbEntity
  8
0
100
AcDbLine
 10
2.5928489565849304
 20
0.437
 30
0.0
 11
2.5928489565849304
 21
1.1827457457457442
 31
0.0
  0
LINE
  5
4C
330
17
100
AcDbEntity
  8
0
100
AcDbLine
 10
2.5928489565849304
 20
0.437
 30
0.0
 11
2.5928489565849304
 21
1.1827457457457442
 31
0.0
  0
LINE
  5
4D
330
17
100
AcDbEntity
  8
0
100
AcDbLine
 10
2.5928489565849304
 20
1.1827457457457442
 30
0.0
 11
2.5928489565849304
 21
1.437
 31
0.0
  0
LINE
  5
4E
330
17
100
AcDbEntity
  8
0
100
AcDbLine
 10
2.5928489565849304
 20
1.8249999999999968
 30
0.0
 11
2.5928489565849304
 21
1.8949096774193555
 31
0.0
  0
LINE
  5
4F
330
17
100
AcDbEntity
  8
0
100
AcDbLine
 10
2.5928489565849304
 20
1.8949096774193555
 30
0.0
 11
2.5928489565849304
 21
3.2541741935483848
 31
0.0
  0
LINE
  5
50
330
17
100
AcDbEntity
  8
0
100
AcDbLine
 10
2.5928489565849304
 20
3.2541741935483848
 30
0.0
 11
2.5928489565849304
 21
3.312277419354839
 31
0.0
  0
LINE
  5
51
330
17
100
AcDbEntity
  8
0
100
AcDbLine
 10
2.5928489565849304
 20
3.312277419354839
 30
0.0
 11
2.5928489565849304
 21
3.359000000000003
 31
0.0
  0
LINE
  5
52
330
17
100
AcDbEntity
  8
0
100
AcDbLine
 10
2.5928489565849304
 20
4.324999999999997
 30
0.0
 11
2.5928489565849304
 21
4.4259161290322595
 31
0.0
  0
LINE
  5
53
330
17
100
AcDbEntity
  8
0
100
AcDbLine
 10
2.5928489565849304
 20
4.4259161290322595
 30
0.0
 11
2.5928489565849304
 21
5.78518064516129
 31
0.0
  0
LINE
  5
54
330
17
100
AcDbEntity
  8
0
100
AcDbLine
 10
2.5928489565849304
 20
5.78518064516129
 30
0.0
 11
2.5928489565849304
 21
5.8590000000000035
 31
0.0
  0
LINE
  5
55
330
17
100
AcDbEntity
  8
0
100
AcDbLine
 10
2.5928489565849304
 20
6.824999999999997
 30
0.0
 11
2.5928489565849304
 21
6.89881935483871
 31
0.0
  0
LINE
  5
56
330
17
100
AcDbEntity
  8
0
100
AcDbLine
 10
2.5928489565849304
 20
6.89881935483871
 30
0.0
 11
2.5928489565849304
 21
6.9103935483870975
 31
0.0
  0
LINE
  5
57
330
17
100
AcDbEntity
  8
0
100
AcDbLine
 10
2.5928489565849304
 20
6.9103935483870975
 30
0.0
 11
2.5928489565849304
 21
8.269658064516127
 31
0.0
  0
LINE
  5
58
330
17
100
AcDbEntity
  8
0
100
AcDbLine
 10
2.5928489565849304
 20
8.269658064516127
 30
0.0
 11
2.5928489565849304
 21
8.359000000000004
 31
0.0
  0
LINE
  5
59
330
17
100
AcDbEntity
  8
0
100
AcDbLine
 10
2.5928489565849304
 20
9.324999999999998
 30
0.0
 11
2.5928489565849304
 21
9.431298619824343
 31
0.0
  0
LINE
  5
5A
330
17
100
AcDbEntity
  8
0
100
AcDbLine
 10
2.5928489565849304
 20
9.431298619824343
 30
0.0
 11
2.5928489565849304
 21
9.445000000000004
 31
0.0
  0
LINE
  5
5B
330
17
100
AcDbEntity
  8
0
100
AcDbLine
 10
2.5928489565849304
 20
9.445000000000004
 30
0.0
 11
2.5928489565849304
 21
10.738999999999997
 31
0.0
  0
LINE
  5
5C
330
17
100
AcDbEntity
  8
0
100
AcDbLine
 10
2.5928489565849304
 20
10.738999999999997
 30
0.0
 11
2.5928489565849304
 21
10.75255081555834
 31
0.0
  0
LINE
  5
5D
330
17
100
AcDbEntity
  8
0
100
AcDbLine
 10
2.5928489565849304
 20
10.75255081555834
 30
0.0
 11
2.5928489565849304
 21
10.859000000000004
 31
0.0
  0
LINE
  5
5E
330
17
100
AcDbEntity
  8
0
100
AcDbLine
 10
2.5928489565849304
 20
11.824999999999998
 30
0.0
 11
2.5928489565849304
 21
11.914303225806453
 31
0.0
  0
LINE
  5
5F
330
17
100
AcDbEntity
  8
0
100
AcDbLine
 10
2.5928489565849304
 20
11.914303225806453
 30
0.0
 11
2.5928489565849304
 21
13.273567741935482
 31
0.0
  0
LINE
  5
60
330
17
100
AcDbEntity
  8
0
100
AcDbLine
 10
2.5928489565849304
 20
13.273567741935482
 30
0.0
 11
2.5928489565849304
 21
13.28514193548387
 31
0.0
  0
LINE
  5
61
330
17
100
AcDbEntity
  8
0
100
AcDbLine
 10
2.5928489565849304
 20
13.28514193548387
 30
0.0
 11
2.5928489565849304
 21
13.359000000000004
 31
0.0
  0
LINE
  5
62
330
17
100
AcDbEntity
  8
0
100
AcDbLine
 10
2.5928489565849304
 20
13.742
 30
0.0
 11
2.5928489565849304
 21
13.994383341695938
 31
0.0
  0
LINE
  5
63
330
17
100
AcDbEntity
  8
0
100
AcDbLine
 10
2.5928489565849304
 20
13.994383341695938
 30
0.0
 11
2.5928489565849304
 21
14.742
 31
0.0
  0
LINE
  5
64
330
17
100
AcDbEntity
  8
0
100
AcDbLine
 10
5.09284895658493
 20
0.516
 30
0.0
 11
5.09284895658493
 21
1.229999999999998
 31
0.0
  0
LINE
  5
65
330
17
100
AcDbEntity
  8
0
100
AcDbLine
 10
5.09284895658493
 20
0.516
 30
0.0
 11
5.09284895658493
 21
1.229999999999998
 31
0.0
  0
LINE
  5
66
330
17
100
AcDbEntity
  8
0
100
AcDbLine
 10
5.09284895658493
 20
1.229999999999998
 30
0.0
 11
5.09284895658493
 21
1.516
 31
0.0
  0
LINE
  5
67
330
17
100
AcDbEntity
  8
0
100
AcDbLine
 10
5.09284895658493
 20
1.8249999999999968
 30
0.0
 11
5.09284895658493
 21
1.8915806451612907
 31
0.0
  0
LINE
  5
68
330
17
100
AcDbEntity
  8
0
100
AcDbLine
 10
5.09284895658493
 20
1.8915806451612907
 30
0.0
 11
5.09284895658493
 21
3.2508451612903198
 31
0.0
  0
LINE
  5
69
330
17
100
AcDbEntity
  8
0
100
AcDbLine
 10
5.09284895658493
 20
3.2508451612903198
 30
0.0
 11
5.09284895658493
 21
3.308909677419355
 31
0.0
  0
LINE
  5
6A
330
17
100
AcDbEntity
  8
0
100
AcDbLine
 10
5.09284895658493
 20
3.308909677419355
 30
0.0
 11
5.09284895658493
 21
3.359000000000003
 31
0.0
  0
LINE
  5
6B
330
17
100
AcDbEntity
  8
0
100
AcDbLine
 10
5.09284895658493
 20
4.324999999999997
 30
0.0
 11
5.09284895658493
 21
4.422548387096776
 31
0.0
  0
LINE
  5
6C
330
17
100
AcDbEntity
  8
0
100
AcDbLine
 10
5.09284895658493
 20
4.422548387096776
 30
0.0
 11
5.09284895658493
 21
5.781812903225806
 31
0.0
  0
LINE
  5
6D
330
17
100
AcDbEntity
  8
0
100
AcDbLine
 10
5.09284895658493
 20
5.781812903225806
 30
0.0
 11
5.09284895658493
 21
5.793425806451613
 31
0.0
  0
LINE
  5
6E
330
17
100
AcDbEntity
  8
0
100
AcDbLine
 10
5.09284895658493
 20
5.793425806451613
 30
0.0
 11
5.09284895658493
 21
5.8590000000000035
 31
0.0
  0
LINE
  5
6F
330
17
100
AcDbEntity
  8
0
100
AcDbLine
 10
5.09284895658493
 20
6.824999999999997
 30
0.0
 11
5.09284895658493
 21
6.895451612903226
 31
0.0
  0
LINE
  5
70
330
17
100
AcDbEntity
  8
0
100
AcDbLine
 10
5.09284895658493
 20
6.895451612903226
 30
0.0
 11
5.09284895658493
 21
6.907064516129033
 31
0.0
  0
LINE
  5
71
330
17
100
AcDbEntity
  8
0
100
AcDbLine
 10
5.09284895658493
 20
6.907064516129033
 30
0.0
 11
5.09284895658493
 21
8.266329032258062
 31
0.0
  0
LINE
  5
72
330
17
100
AcDbEntity
  8
0
100
AcDbLine
 10
5.09284895658493
 20
8.266329032258062
 30
0.0
 11
5.09284895658493
 21
8.359000000000004
 31
0.0
  0
LINE
  5
73
330
17
100
AcDbEntity
  8
0
100
AcDbLine
 10
5.09284895658493
 20
9.324999999999998
 30
0.0
 11
5.09284895658493
 21
9.42597735399285
 31
0.0
  0
LINE
  5
74
330
17
100
AcDbEntity
  8
0
100
AcDbLine
 10
5.09284895658493
 20
9.42597735399285
 30
0.0
 11
5.09284895658493
 21
9.445000000000004
 31
0.0
  0
LINE
  5
75
330
17
100
AcDbEntity
  8
0
100
AcDbLine
 10
5.09284895658493
 20
9.445000000000004
 30
0.0
 11
5.09284895658493
 21
10.738999999999997
 31
0.0
  0
LINE
  5
76
330
17
100
AcDbEntity
  8
0
100
AcDbLine
 10
5.09284895658493
 20
10.738999999999997
 30
0.0
 11
5.09284895658493
 21
10.747073878627965
 31
0.0
  0
LINE
  5
77
330
17
100
AcDbEntity
  8
0
100
AcDbLine
 10
5.09284895658493
 20
10.747073878627965
 30
0.0
 11
5.09284895658493
 21
10.859000000000004
 31
0.0
  0
LINE
  5
78
330
17
100
AcDbEntity
  8
0
100
AcDbLine
 10
5.09284895658493
 20
11.824999999999998
 30
0.0
 11
5.09284895658493
 21
11.910935483870968
 31
0.0
  0
LINE
  5
79
330
17
100
AcDbEntity
  8
0
100
AcDbLine
 10
5.09284895658493
 20
11.910935483870968
 30
0.0
 11
5.09284895658493
 21
13.270199999999997
 31
0.0
  0
LINE
  5
7A
330
17
100
AcDbEntity
  8
0
100
AcDbLine
 10
5.09284895658493
 20
13.270199999999997
 30
0.0
 11
5.09284895658493
 21
13.281812903225806
 31
0.0
  0
LINE
  5
7B
330
17
100
AcDbEntity
  8
0
100
AcDbLine
 10
5.09284895658493
 20
13.281812903225806
 30
0.0
 11
5.09284895658493
 21
13.359000000000004
 31
0.0
  0
LINE
  5
7C
330
17
100
AcDbEntity
  8
0
100
AcDbLine
 10
5.09284895658493
 20
13.655000000000001
 30
0.0
 11
5.09284895658493
 21
13.873258132214064
 31
0.0
  0
LINE
  5
7D
330
17
100
AcDbEntity
  8
0
100
AcDbLine
 10
5.09284895658493
 20
13.873258132214064
 30
0.0
 11
5.09284895658493
 21
14.655000000000001
 31
0.0
  0
LINE
  5
7E
330
17
100
AcDbEntity
  8
0
100
AcDbLine
 10
7.59284895658493
 20
0.5740000000000001
 30
0.0
 11
7.59284895658493
 21
1.3758763440860198
 31
0.0
  0
LINE
  5
7F
330
17
100
AcDbEntity
  8
0
100
AcDbLine
 10
7.59284895658493
 20
0.5740000000000001
 30
0.0
 11
7.59284895658493
 21
1.3758763440860198
 31
0.0
  0
LINE
  5
80
330
17
100
AcDbEntity
  8
0
100
AcDbLine
 10
7.59284895658493
 20
1.3758763440860198
 30
0.0
 11
7.59284895658493
 21
1.575
 31
0.0
  0
LINE
  5
81
330
17
100
AcDbEntity
  8
0
100
AcDbLine
 10
7.59284895658493
 20
1.8249999999999968
 30
0.0
 11
7.59284895658493
 21
1.9432426778242708
 31
0.0
  0
LINE
  5
82
330
17
100
AcDbEntity
  8
0
100
AcDbLine
 10
7.59284895658493
 20
1.9432426778242708
 30
0.0
 11
7.59284895658493
 21
1.9450000000000032
 31
0.0
  0
LINE
  5
83
330
17
100
AcDbEntity
  8
0
100
AcDbLine
 10
7.59284895658493
 20
1.9450000000000032
 30
0.0
 11
7.59284895658493
 21
3.2389999999999968
 31
0.0
  0
LINE
  5
84
330
17
100
AcDbEntity
  8
0
100
AcDbLine
 10
7.59284895658493
 20
3.2389999999999968
 30
0.0
 11
7.59284895658493
 21
3.2500911424903696
 31
0.0
  0
LINE
  5
85
330
17
100
AcDbEntity
  8
0
100
AcDbLine
 10
7.59284895658493
 20
3.2500911424903696
 30
0.0
 11
7.59284895658493
 21
3.359000000000003
 31
0.0
  0
LINE
  5
86
330
17
100
AcDbEntity
  8
0
100
AcDbLine
 10
7.59284895658493
 20
4.324999999999997
 30
0.0
 11
7.59284895658493
 21
4.421503225806453
 31
0.0
  0
LINE
  5
87
330
17
100
AcDbEntity
  8
0
100
AcDbLine
 10
7.59284895658493
 20
4.421503225806453
 30
0.0
 11
7.59284895658493
 21
5.780767741935483
 31
0.0
  0
LINE
  5
88
330
17
100
AcDbEntity
  8
0
100
AcDbLine
 10
7.59284895658493
 20
5.780767741935483
 30
0.0
 11
7.59284895658493
 21
5.792341935483871
 31
0.0
  0
LINE
  5
89
330
17
100
AcDbEntity
  8
0
100
AcDbLine
 10
7.59284895658493
 20
5.792341935483871
 30
0.0
 11
7.59284895658493
 21
5.8590000000000035
 31
0.0
  0
LINE
  5
8A
330
17
100
AcDbEntity
  8
0
100
AcDbLine
 10
7.59284895658493
 20
6.824999999999997
 30
0.0
 11
7.59284895658493
 21
6.8944064516129036
 31
0.0
  0
LINE
  5
8B
330
17
100
AcDbEntity
  8
0
100
AcDbLine
 10
7.59284895658493
 20
6.8944064516129036
 30
0.0
 11
7.59284895658493
 21
6.905980645161291
 31
0.0
  0
LINE
  5
8C
330
17
100
AcDbEntity
  8
0
100
AcDbLine
 10
7.59284895658493
 20
6.905980645161291
 30
0.0
 11
7.59284895658493
 21
8.26524516129032
 31
0.0
  0
LINE
  5
8D
330
17
100
AcDbEntity
  8
0
100
AcDbLine
 10
7.59284895658493
 20
8.26524516129032
 30
0.0
 11
7.59284895658493
 21
8.359000000000004
 31
0.0
  0
LINE
  5
8E
330
17
100
AcDbEntity
  8
0
100
AcDbLine
 10
7.59284895658493
 20
9.324999999999998
 30
0.0
 11
7.59284895658493
 21
9.424390386869874
 31
0.0
  0
LINE
  5
8F
330
17
100
AcDbEntity
  8
0
100
AcDbLine
 10
7.59284895658493
 20
9.424390386869874
 30
0.0
 11
7.59284895658493
 21
9.445000000000004
 31
0.0
  0
LINE
  5
90
330
17
100
AcDbEntity
  8
0
100
AcDbLine
 10
7.59284895658493
 20
9.445000000000004
 30
0.0
 11
7.59284895658493
 21
10.738999999999997
 31
0.0
  0
LINE
  5
91
330
17
100
AcDbEntity
  8
0
100
AcDbLine
 10
7.59284895658493
 20
10.738999999999997
 30
0.0
 11
7.59284895658493
 21
10.745273458445038
 31
0.0
  0
LINE
  5
92
330
17
100
AcDbEntity
  8
0
100
AcDbLine
 10
7.59284895658493
 20
10.745273458445038
 30
0.0
 11
7.59284895658493
 21
10.859000000000004
 31
0.0
  0
LINE
  5
93
330
17
100
AcDbEntity
  8
0
100
AcDbLine
 10
7.59284895658493
 20
11.824999999999998
 30
0.0
 11
7.59284895658493
 21
11.909890322580646
 31
0.0
  0
LINE
  5
94
330
17
100
AcDbEntity
  8
0
100
AcDbLine
 10
7.59284895658493
 20
11.909890322580646
 30
0.0
 11
7.59284895658493
 21
13.269154838709674
 31
0.0
  0
LINE
  5
95
330
17
100
AcDbEntity
  8
0
100
AcDbLine
 10
7.59284895658493
 20
13.269154838709674
 30
0.0
 11
7.59284895658493
 21
13.280729032258064
 31
0.0
  0
LINE
  5
96
330
17
100
AcDbEntity
  8
0
100
AcDbLine
 10
7.59284895658493
 20
13.280729032258064
 30
0.0
 11
7.59284895658493
 21
13.359000000000004
 31
0.0
  0
LINE
  5
97
330
17
100
AcDbEntity
  8
0
100
AcDbLine
 10
7.59284895658493
 20
13.628
 30
0.0
 11
7.59284895658493
 21
13.887333333333336
 31
0.0
  0
LINE
  5
98
330
17
100
AcDbEntity
  8
0
100
AcDbLine
 10
7.59284895658493
 20
13.887333333333336
 30
0.0
 11
7.59284895658493
 21
14.628
 31
0.0
  0
LINE
  5
99
330
17
100
AcDbEntity
  8
0
100
AcDbLine
 10
10.09284895658493
 20
0.515
 30
0.0
 11
10.09284895658493
 21
1.2910416666666649
 31
0.0
  0
LINE
  5
9A
330
17
100
AcDbEntity
  8
0
100
AcDbLine
 10
10.09284895658493
 20
0.515
 30
0.0
 11
10.09284895658493
 21
1.2910416666666649
 31
0.0
  0
LINE
  5
9B
330
17
100
AcDbEntity
  8
0
100
AcDbLine
 10
10.09284895658493
 20
1.2910416666666649
 30
0.0
 11
10.09284895658493
 21
1.5150000000000001
 31
0.0
  0
LINE
  5
9C
330
17
100
AcDbEntity
  8
0
100
AcDbLine
 10
10.09284895658493
 20
1.8249999999999968
 30
0.0
 11
10.09284895658493
 21
1.9434078212290533
 31
0.0
  0
LINE
  5
9D
330
17
100
AcDbEntity
  8
0
100
AcDbLine
 10
10.09284895658493
 20
1.9434078212290533
 30
0.0
 11
10.09284895658493
 21
1.9450000000000032
 31
0.0
  0
LINE
  5
9E
330
17
100
AcDbEntity
  8
0
100
AcDbLine
 10
10.09284895658493
 20
1.9450000000000032
 30
0.0
 11
10.09284895658493
 21
3.2389999999999968
 31
0.0
  0
LINE
  5
9F
330
17
100
AcDbEntity
  8
0
100
AcDbLine
 10
10.09284895658493
 20
3.2389999999999968
 30
0.0
 11
10.09284895658493
 21
3.2478073394495386
 31
0.0
  0
LINE
  5
A0
330
17
100
AcDbEntity
  8
0
100
AcDbLine
 10
10.09284895658493
 20
3.2478073394495386
 30
0.0
 11
10.09284895658493
 21
3.359000000000003
 31
0.0
  0
LINE
  5
A1
330
17
100
AcDbEntity
  8
0
100
AcDbLine
 10
10.09284895658493
 20
4.324999999999997
 30
0.0
 11
10.09284895658493
 21
4.421619354838711
 31
0.0
  0
LINE
  5
A2
330
17
100
AcDbEntity
  8
0
100
AcDbLine
 10
10.09284895658493
 20
4.421619354838711
 30
0.0
 11
10.09284895658493
 21
5.780883870967742
 31
0.0
  0
LINE
  5
A3
330
17
100
AcDbEntity
  8
0
100
AcDbLine
 10
10.09284895658493
 20
5.780883870967742
 30
0.0
 11
10.09284895658493
 21
5.792496774193548
 31
0.0
  0
LINE
  5
A4
330
17
100
AcDbEntity
  8
0
100
AcDbLine
 10
10.09284895658493
 20
5.792496774193548
 30
0.0
 11
10.09284895658493
 21
5.8590000000000035
 31
0.0
  0
LINE
  5
A5
330
17
100
AcDbEntity
  8
0
100
AcDbLine
 10
10.09284895658493
 20
6.824999999999997
 30
0.0
 11
10.09284895658493
 21
6.8945225806451615
 31
0.0
  0
LINE
  5
A6
330
17
100
AcDbEntity
  8
0
100
AcDbLine
 10
10.09284895658493
 20
6.8945225806451615
 30
0.0
 11
10.09284895658493
 21
6.906135483870969
 31
0.0
  0
LINE
  5
A7
330
17
100
AcDbEntity
  8
0
100
AcDbLine
 10
10.09284895658493
 20
6.906135483870969
 30
0.0
 11
10.09284895658493
 21
8.265399999999998
 31
0.0
  0
LINE
  5
A8
330
17
100
AcDbEntity
  8
0
100
AcDbLine
 10
10.09284895658493
 20
8.265399999999998
 30
0.0
 11
10.09284895658493
 21
8.359000000000004
 31
0.0
  0
LINE
  5
A9
330
17
100
AcDbEntity
  8
0
100
AcDbLine
 10
10.09284895658493
 20
9.324999999999998
 30
0.0
 11
10.09284895658493
 21
9.42455346650999
 31
0.0
  0
LINE
  5
AA
330
17
100
AcDbEntity
  8
0
100
AcDbLine
 10
10.09284895658493
 20
9.42455346650999
 30
0.0
 11
10.09284895658493
 21
9.445000000000004
 31
0.0
  0
LINE
  5
AB
330
17
100
AcDbEntity
  8
0
100
AcDbLine
 10
10.09284895658493
 20
9.445000000000004
 30
0.0
 11
10.09284895658493
 21
10.738999999999997
 31
0.0
  0
LINE
  5
AC
330
17
100
AcDbEntity
  8
0
100
AcDbLine
 10
10.09284895658493
 20
10.738999999999997
 30
0.0
 11
10.09284895658493
 21
10.745577540106948
 31
0.0
  0
LINE
  5
AD
330
17
100
AcDbEntity
  8
0
100
AcDbLine
 10
10.09284895658493
 20
10.745577540106948
 30
0.0
 11
10.09284895658493
 21
10.859000000000004
 31
0.0
  0
LINE
  5
AE
330
17
100
AcDbEntity
  8
0
100
AcDbLine
 10
10.09284895658493
 20
11.824999999999998
 30
0.0
 11
10.09284895658493
 21
11.910006451612904
 31
0.0
  0
LINE
  5
AF
330
17
100
AcDbEntity
  8
0
100
AcDbLine
 10
10.09284895658493
 20
11.910006451612904
 30
0.0
 11
10.09284895658493
 21
13.269270967741933
 31
0.0
  0
LINE
  5
B0
330
17
100
AcDbEntity
  8
0
100
AcDbLine
 10
10.09284895658493
 20
13.269270967741933
 30
0.0
 11
10.09284895658493
 21
13.28088387096774
 31
0.0
  0
LINE
  5
B1
330
17
100
AcDbEntity
  8
0
100
AcDbLine
 10
10.09284895658493
 20
13.28088387096774
 30
0.0
 11
10.09284895658493
 21
13.359000000000004
 31
0.0
  0
LINE
  5
B2
330
17
100
AcDbEntity
  8
0
100
AcDbLine
 10
10.09284895658493
 20
13.631
 30
0.0
 11
10.09284895658493
 21
13.839289054197664
 31
0.0
  0
LINE
  5
B3
330
17
100
AcDbEntity
  8
0
100
AcDbLine
 10
10.09284895658493
 20
13.839289054197664
 30
0.0
 11
10.09284895658493
 21
14.631
 31
0.0
  0
LINE
  5
B4
330
17
100
AcDbEntity
  8
0
100
AcDbLine
 10
12.59284895658493
 20
0.455
 30
0.0
 11
12.59284895658493
 21
1.207525252525251
 31
0.0
  0
LINE
  5
B5
330
17
100
AcDbEntity
  8
0
100
AcDbLine
 10
12.59284895658493
 20
0.455
 30
0.0
 11
12.59284895658493
 21
1.207525252525251
 31
0.0
  0
LINE
  5
B6
330
17
100
AcDbEntity
  8
0
100
AcDbLine
 10
12.59284895658493
 20
1.207525252525251
 30
0.0
 11
12.59284895658493
 21
1.455
 31
0.0
  0
LINE
  5
B7
330
17
100
AcDbEntity
  8
0
100
AcDbLine
 10
12.59284895658493
 20
1.8249999999999968
 30
0.0
 11
12.59284895658493
 21
1.9437394957983225
 31
0.0
  0
LINE
  5
B8
330
17
100
AcDbEntity
  8
0
100
AcDbLine
 10
12.59284895658493
 20
1.9437394957983225
 30
0.0
 11
12.59284895658493
 21
1.9450000000000032
 31
0.0
  0
LINE
  5
B9
330
17
100
AcDbEntity
  8
0
100
AcDbLine
 10
12.59284895658493
 20
1.9450000000000032
 30
0.0
 11
12.59284895658493
 21
3.2389999999999968
 31
0.0
  0
LINE
  5
BA
330
17
100
AcDbEntity
  8
0
100
AcDbLine
 10
12.59284895658493
 20
3.2389999999999968
 30
0.0
 11
12.59284895658493
 21
3.246030625832221
 31
0.0
  0
LINE
  5
BB
330
17
100
AcDbEntity
  8
0
100
AcDbLine
 10
12.59284895658493
 20
3.246030625832221
 30
0.0
 11
12.59284895658493
 21
3.359000000000003
 31
0.0
  0
LINE
  5
BC
330
17
100
AcDbEntity
  8
0
100
AcDbLine
 10
12.59284895658493
 20
4.324999999999997
 30
0.0
 11
12.59284895658493
 21
4.421774193548389
 31
0.0
  0
LINE
  5
BD
330
17
100
AcDbEntity
  8
0
100
AcDbLine
 10
12.59284895658493
 20
4.421774193548389
 30
0.0
 11
12.59284895658493
 21
5.781038709677419
 31
0.0
  0
LINE
  5
BE
330
17
100
AcDbEntity
  8
0
100
AcDbLine
 10
12.59284895658493
 20
5.781038709677419
 30
0.0
 11
12.59284895658493
 21
5.792651612903226
 31
0.0
  0
LINE
  5
BF
330
17
100
AcDbEntity
  8
0
100
AcDbLine
 10
12.59284895658493
 20
5.792651612903226
 30
0.0
 11
12.59284895658493
 21
5.8590000000000035
 31
0.0
  0
LINE
  5
C0
330
17
100
AcDbEntity
  8
0
100
AcDbLine
 10
12.59284895658493
 20
6.824999999999997
 30
0.0
 11
12.59284895658493
 21
6.894677419354839
 31
0.0
  0
LINE
  5
C1
330
17
100
AcDbEntity
  8
0
100
AcDbLine
 10
12.59284895658493
 20
6.894677419354839
 30
0.0
 11
12.59284895658493
 21
6.906290322580646
 31
0.0
  0
LINE
  5
C2
330
17
100
AcDbEntity
  8
0
100
AcDbLine
 10
12.59284895658493
 20
6.906290322580646
 30
0.0
 11
12.59284895658493
 21
8.265554838709676
 31
0.0
  0
LINE
  5
C3
330
17
100
AcDbEntity
  8
0
100
AcDbLine
 10
12.59284895658493
 20
8.265554838709676
 30
0.0
 11
12.59284895658493
 21
8.359000000000004
 31
0.0
  0
LINE
  5
C4
330
17
100
AcDbEntity
  8
0
100
AcDbLine
 10
12.59284895658493
 20
9.324999999999998
 30
0.0
 11
12.59284895658493
 21
9.424787985865727
 31
0.0
  0
LINE
  5
C5
330
17
100
AcDbEntity
  8
0
100
AcDbLine
 10
12.59284895658493
 20
9.424787985865727
 30
0.0
 11
12.59284895658493
 21
9.445000000000004
 31
0.0
  0
LINE
  5
C6
330
17
100
AcDbEntity
  8
0
100
AcDbLine
 10
12.59284895658493
 20
9.445000000000004
 30
0.0
 11
12.59284895658493
 21
10.738999999999997
 31
0.0
  0
LINE
  5
C7
330
17
100
AcDbEntity
  8
0
100
AcDbLine
 10
12.59284895658493
 20
10.738999999999997
 30
0.0
 11
12.59284895658493
 21
10.745728971962613
 31
0.0
  0
LINE
  5
C8
330
17
100
AcDbEntity
  8
0
100
AcDbLine
 10
12.59284895658493
 20
10.745728971962613
 30
0.0
 11
12.59284895658493
 21
10.859000000000004
 31
0.0
  0
LINE
  5
C9
330
17
100
AcDbEntity
  8
0
100
AcDbLine
 10
12.59284895658493
 20
11.824999999999998
 30
0.0
 11
12.59284895658493
 21
11.910161290322582
 31
0.0
  0
LINE
  5
CA
330
17
100
AcDbEntity
  8
0
100
AcDbLine
 10
12.59284895658493
 20
11.910161290322582
 30
0.0
 11
12.59284895658493
 21
13.269425806451611
 31
0.0
  0
LINE
  5
CB
330
17
100
AcDbEntity
  8
0
100
AcDbLine
 10
12.59284895658493
 20
13.269425806451611
 30
0.0
 11
12.59284895658493
 21
13.281038709677418
 31
0.0
  0
LINE
  5
CC
330
17
100
AcDbEntity
  8
0
100
AcDbLine
 10
12.59284895658493
 20
13.281038709677418
 30
0.0
 11
12.59284895658493
 21
13.359000000000004
 31
0.0
  0
LINE
  5
CD
330
17
100
AcDbEntity
  8
0
100
AcDbLine
 10
12.59284895658493
 20
13.635
 30
0.0
 11
12.59284895658493
 21
13.84496818663839
 31
0.0
  0
LINE
  5
CE
330
17
100
AcDbEntity
  8
0
100
AcDbLine
 10
12.59284895658493
 20
13.84496818663839
 30
0.0
 11
12.59284895658493
 21
14.635
 31
0.0
  0
LINE
  5
CF
330
17
100
AcDbEntity
  8
0
100
AcDbLine
 10
0.45
 20
2.5922380685806274
 30
0.0
 11
1.1204496330887237
 21
2.5922380685806274
 31
0.0
  0
LINE
  5
D0
330
17
100
AcDbEntity
  8
0
100
AcDbLine
 10
0.45
 20
2.5922380685806274
 30
0.0
 11
1.1204496330887237
 21
2.5922380685806274
 31
0.0
  0
LINE
  5
D1
330
17
100
AcDbEntity
  8
0
100
AcDbLine
 10
1.1204496330887237
 20
2.5922380685806274
 30
0.0
 11
1.451
 21
2.5922380685806274
 31
0.0
  0
LINE
  5
D2
330
17
100
AcDbEntity
  8
0
100
AcDbLine
 10
1.825999999999997
 20
2.5922380685806274
 30
0.0
 11
1.9001290322580653
 21
2.5922380685806274
 31
0.0
  0
LINE
  5
D3
330
17
100
AcDbEntity
  8
0
100
AcDbLine
 10
1.9001290322580653
 20
2.5922380685806274
 30
0.0
 11
1.911703225806453
 21
2.5922380685806274
 31
0.0
  0
LINE
  5
D4
330
17
100
AcDbEntity
  8
0
100
AcDbLine
 10
1.911703225806453
 20
2.5922380685806274
 30
0.0
 11
3.2709677419354826
 21
2.5922380685806274
 31
0.0
  0
LINE
  5
D5
330
17
100
AcDbEntity
  8
0
100
AcDbLine
 10
3.2709677419354826
 20
2.5922380685806274
 30
0.0
 11
3.3600000000000034
 21
2.5922380685806274
 31
0.0
  0
LINE
  5
D6
330
17
100
AcDbEntity
  8
0
100
AcDbLine
 10
4.325999999999997
 20
2.5922380685806274
 30
0.0
 11
4.432775818639801
 21
2.5922380685806274
 31
0.0
  0
LINE
  5
D7
330
17
100
AcDbEntity
  8
0
100
AcDbLine
 10
4.432775818639801
 20
2.5922380685806274
 30
0.0
 11
4.446000000000003
 21
2.5922380685806274
 31
0.0
  0
LINE
  5
D8
330
17
100
AcDbEntity
  8
0
100
AcDbLine
 10
4.446000000000003
 20
2.5922380685806274
 30
0.0
 11
5.739999999999997
 21
2.5922380685806274
 31
0.0
  0
LINE
  5
D9
330
17
100
AcDbEntity
  8
0
100
AcDbLine
 10
5.739999999999997
 20
2.5922380685806274
 30
0.0
 11
5.754082397003743
 21
2.5922380685806274
 31
0.0
  0
LINE
  5
DA
330
17
100
AcDbEntity
  8
0
100
AcDbLine
 10
5.754082397003743
 20
2.5922380685806274
 30
0.0
 11
5.860000000000003
 21
2.5922380685806274
 31
0.0
  0
LINE
  5
DB
330
17
100
AcDbEntity
  8
0
100
AcDbLine
 10
6.825999999999997
 20
2.5922380685806274
 30
0.0
 11
6.915612903225808
 21
2.5922380685806274
 31
0.0
  0
LINE
  5
DC
330
17
100
AcDbEntity
  8
0
100
AcDbLine
 10
6.915612903225808
 20
2.5922380685806274
 30
0.0
 11
8.274877419354839
 21
2.5922380685806274
 31
0.0
  0
LINE
  5
DD
330
17
100
AcDbEntity
  8
0
100
AcDbLine
 10
8.274877419354839
 20
2.5922380685806274
 30
0.0
 11
8.286451612903226
 21
2.5922380685806274
 31
0.0
  0
LINE
  5
DE
330
17
100
AcDbEntity
  8
0
100
AcDbLine
 10
8.286451612903226
 20
2.5922380685806274
 30
0.0
 11
8.360000000000003
 21
2.5922380685806274
 31
0.0
  0
LINE
  5
DF
330
17
100
AcDbEntity
  8
0
100
AcDbLine
 10
9.325999999999997
 20
2.5922380685806274
 30
0.0
 11
9.400090322580647
 21
2.5922380685806274
 31
0.0
  0
LINE
  5
E0
330
17
100
AcDbEntity
  8
0
100
AcDbLine
 10
9.400090322580647
 20
2.5922380685806274
 30
0.0
 11
10.759354838709676
 21
2.5922380685806274
 31
0.0
  0
LINE
  5
E1
330
17
100
AcDbEntity
  8
0
100
AcDbLine
 10
10.759354838709676
 20
2.5922380685806274
 30
0.0
 11
10.860000000000003
 21
2.5922380685806274
 31
0.0
  0
LINE
  5
E2
330
17
100
AcDbEntity
  8
0
100
AcDbLine
 10
11.825999999999997
 20
2.5922380685806274
 30
0.0
 11
11.872993548387097
 21
2.5922380685806274
 31
0.0
  0
LINE
  5
E3
330
17
100
AcDbEntity
  8
0
100
AcDbLine
 10
11.872993548387097
 20
2.5922380685806274
 30
0.0
 11
11.931096774193552
 21
2.5922380685806274
 31
0.0
  0
LINE
  5
E4
330
17
100
AcDbEntity
  8
0
100
AcDbLine
 10
11.931096774193552
 20
2.5922380685806274
 30
0.0
 11
13.290361290322581
 21
2.5922380685806274
 31
0.0
  0
LINE
  5
E5
330
17
100
AcDbEntity
  8
0
100
AcDbLine
 10
13.290361290322581
 20
2.5922380685806274
 30
0.0
 11
13.360000000000003
 21
2.5922380685806274
 31
0.0
  0
LINE
  5
E6
330
17
100
AcDbEntity
  8
0
100
AcDbLine
 10
13.739
 20
2.5922380685806274
 30
0.0
 11
13.989879839115135
 21
2.5922380685806274
 31
0.0
  0
LINE
  5
E7
330
17
100
AcDbEntity
  8
0
100
AcDbLine
 10
13.989879839115135
 20
2.5922380685806274
 30
0.0
 11
14.739
 21
2.5922380685806274
 31
0.0
  0
LINE
  5
E8
330
17
100
AcDbEntity
  8
0
100
AcDbLine
 10
0.513
 20
5.092238068580627
 30
0.0
 11
1.3056531020680475
 21
5.092238068580627
 31
0.0
  0
LINE
  5
E9
330
17
100
AcDbEntity
  8
0
100
AcDbLine
 10
0.513
 20
5.092238068580627
 30
0.0
 11
1.3056531020680475
 21
5.092238068580627
 31
0.0
  0
LINE
  5
EA
330
17
100
AcDbEntity
  8
0
100
AcDbLine
 10
1.3056531020680475
 20
5.092238068580627
 30
0.0
 11
1.514
 21
5.092238068580627
 31
0.0
  0
LINE
  5
EB
330
17
100
AcDbEntity
  8
0
100
AcDbLine
 10
1.825999999999997
 20
5.092238068580627
 30
0.0
 11
1.902567741935485
 21
5.092238068580627
 31
0.0
  0
LINE
  5
EC
330
17
100
AcDbEntity
  8
0
100
AcDbLine
 10
1.902567741935485
 20
5.092238068580627
 30
0.0
 11
1.9141419354838725
 21
5.092238068580627
 31
0.0
  0
LINE
  5
ED
330
17
100
AcDbEntity
  8
0
100
AcDbLine
 10
1.9141419354838725
 20
5.092238068580627
 30
0.0
 11
3.2734064516129022
 21
5.092238068580627
 31
0.0
  0
LINE
  5
EE
330
17
100
AcDbEntity
  8
0
100
AcDbLine
 10
3.2734064516129022
 20
5.092238068580627
 30
0.0
 11
3.3600000000000034
 21
5.092238068580627
 31
0.0
  0
LINE
  5
EF
330
17
100
AcDbEntity
  8
0
100
AcDbLine
 10
4.325999999999997
 20
5.092238068580627
 30
0.0
 11
4.436745098039219
 21
5.092238068580627
 31
0.0
  0
LINE
  5
F0
330
17
100
AcDbEntity
  8
0
100
AcDbLine
 10
4.436745098039219
 20
5.092238068580627
 30
0.0
 11
4.446000000000003
 21
5.092238068580627
 31
0.0
  0
LINE
  5
F1
330
17
100
AcDbEntity
  8
0
100
AcDbLine
 10
4.446000000000003
 20
5.092238068580627
 30
0.0
 11
5.739999999999997
 21
5.092238068580627
 31
0.0
  0
LINE
  5
F2
330
17
100
AcDbEntity
  8
0
100
AcDbLine
 10
5.739999999999997
 20
5.092238068580627
 30
0.0
 11
5.757906137184113
 21
5.092238068580627
 31
0.0
  0
LINE
  5
F3
330
17
100
AcDbEntity
  8
0
100
AcDbLine
 10
5.757906137184113
 20
5.092238068580627
 30
0.0
 11
5.860000000000003
 21
5.092238068580627
 31
0.0
  0
LINE
  5
F4
330
17
100
AcDbEntity
  8
0
100
AcDbLine
 10
6.825999999999997
 20
5.092238068580627
 30
0.0
 11
6.918051612903228
 21
5.092238068580627
 31
0.0
  0
LINE
  5
F5
330
17
100
AcDbEntity
  8
0
100
AcDbLine
 10
6.918051612903228
 20
5.092238068580627
 30
0.0
 11
8.277316129032258
 21
5.092238068580627
 31
0.0
  0
LINE
  5
F6
330
17
100
AcDbEntity
  8
0
100
AcDbLine
 10
8.277316129032258
 20
5.092238068580627
 30
0.0
 11
8.288890322580645
 21
5.092238068580627
 31
0.0
  0
LINE
  5
F7
330
17
100
AcDbEntity
  8
0
100
AcDbLine
 10
8.288890322580645
 20
5.092238068580627
 30
0.0
 11
8.360000000000003
 21
5.092238068580627
 31
0.0
  0
LINE
  5
F8
330
17
100
AcDbEntity
  8
0
100
AcDbLine
 10
9.325999999999997
 20
5.092238068580627
 30
0.0
 11
9.390954838709678
 21
5.092238068580627
 31
0.0
  0
LINE
  5
F9
330
17
100
AcDbEntity
  8
0
100
AcDbLine
 10
9.390954838709678
 20
5.092238068580627
 30
0.0
 11
9.402529032258066
 21
5.092238068580627
 31
0.0
  0
LINE
  5
FA
330
17
100
AcDbEntity
  8
0
100
AcDbLine
 10
9.402529032258066
 20
5.092238068580627
 30
0.0
 11
10.761793548387095
 21
5.092238068580627
 31
0.0
  0
LINE
  5
FB
330
17
100
AcDbEntity
  8
0
100
AcDbLine
 10
10.761793548387095
 20
5.092238068580627
 30
0.0
 11
10.860000000000003
 21
5.092238068580627
 31
0.0
  0
LINE
  5
FC
330
17
100
AcDbEntity
  8
0
100
AcDbLine
 10
11.825999999999997
 20
5.092238068580627
 30
0.0
 11
11.875432258064517
 21
5.092238068580627
 31
0.0
  0
LINE
  5
FD
330
17
100
AcDbEntity
  8
0
100
AcDbLine
 10
11.875432258064517
 20
5.092238068580627
 30
0.0
 11
11.93353548387097
 21
5.092238068580627
 31
0.0
  0
LINE
  5
FE
330
17
100
AcDbEntity
  8
0
100
AcDbLine
 10
11.93353548387097
 20
5.092238068580627
 30
0.0
 11
13.2928
 21
5.092238068580627
 31
0.0
  0
LINE
  5
FF
330
17
100
AcDbEntity
  8
0
100
AcDbLine
 10
13.2928
 20
5.092238068580627
 30
0.0
 11
13.360000000000003
 21
5.092238068580627
 31
0.0
  0
LINE
  5
100
330
17
100
AcDbEntity
  8
0
100
AcDbLine
 10
13.651
 20
5.092238068580627
 30
0.0
 11
13.867201998947923
 21
5.092238068580627
 31
0.0
  0
LINE
  5
101
330
17
100
AcDbEntity
  8
0
100
AcDbLine
 10
13.867201998947923
 20
5.092238068580627
 30
0.0
 11
14.651
 21
5.092238068580627
 31
0.0
  0
LINE
  5
102
330
17
100
AcDbEntity
  8
0
100
AcDbLine
 10
0.5760000000000001
 20
7.592238068580627
 30
0.0
 11
1.4107231487658458
 21
7.592238068580627
 31
0.0
  0
LINE
  5
103
330
17
100
AcDbEntity
  8
0
100
AcDbLine
 10
0.5760000000000001
 20
7.592238068580627
 30
0.0
 11
1.4107231487658458
 21
7.592238068580627
 31
0.0
  0
LINE
  5
104
330
17
100
AcDbEntity
  8
0
100
AcDbLine
 10
1.4107231487658458
 20
7.592238068580627
 30
0.0
 11
1.577
 21
7.592238068580627
 31
0.0
  0
LINE
  5
105
330
17
100
AcDbEntity
  8
0
100
AcDbLine
 10
1.825999999999997
 20
7.592238068580627
 30
0.0
 11
1.9050064516129044
 21
7.592238068580627
 31
0.0
  0
LINE
  5
106
330
17
100
AcDbEntity
  8
0
100
AcDbLine
 10
1.9050064516129044
 20
7.592238068580627
 30
0.0
 11
1.9165806451612921
 21
7.592238068580627
 31
0.0
  0
LINE
  5
107
330
17
100
AcDbEntity
  8
0
100
AcDbLine
 10
1.9165806451612921
 20
7.592238068580627
 30
0.0
 11
3.2758451612903214
 21
7.592238068580627
 31
0.0
  0
LINE
  5
108
330
17
100
AcDbEntity
  8
0
100
AcDbLine
 10
3.2758451612903214
 20
7.592238068580627
 30
0.0
 11
3.3600000000000034
 21
7.592238068580627
 31
0.0
  0
LINE
  5
109
330
17
100
AcDbEntity
  8
0
100
AcDbLine
 10
4.325999999999997
 20
7.592238068580627
 30
0.0
 11
4.440803788903927
 21
7.592238068580627
 31
0.0
  0
LINE
  5
10A
330
17
100
AcDbEntity
  8
0
100
AcDbLine
 10
4.440803788903927
 20
7.592238068580627
 30
0.0
 11
4.446000000000003
 21
7.592238068580627
 31
0.0
  0
LINE
  5
10B
330
17
100
AcDbEntity
  8
0
100
AcDbLine
 10
4.446000000000003
 20
7.592238068580627
 30
0.0
 11
5.739999999999997
 21
7.592238068580627
 31
0.0
  0
LINE
  5
10C
330
17
100
AcDbEntity
  8
0
100
AcDbLine
 10
5.739999999999997
 20
7.592238068580627
 30
0.0
 11
5.761691772885282
 21
7.592238068580627
 31
0.0
  0
LINE
  5
10D
330
17
100
AcDbEntity
  8
0
100
AcDbLine
 10
5.761691772885282
 20
7.592238068580627
 30
0.0
 11
5.860000000000003
 21
7.592238068580627
 31
0.0
  0
LINE
  5
10E
330
17
100
AcDbEntity
  8
0
100
AcDbLine
 10
6.825999999999997
 20
7.592238068580627
 30
0.0
 11
6.920490322580647
 21
7.592238068580627
 31
0.0
  0
LINE
  5
10F
330
17
100
AcDbEntity
  8
0
100
AcDbLine
 10
6.920490322580647
 20
7.592238068580627
 30
0.0
 11
8.279754838709676
 21
7.592238068580627
 31
0.0
  0
LINE
  5
110
330
17
100
AcDbEntity
  8
0
100
AcDbLine
 10
8.279754838709676
 20
7.592238068580627
 30
0.0
 11
8.291329032258064
 21
7.592238068580627
 31
0.0
  0
LINE
  5
111
330
17
100
AcDbEntity
  8
0
100
AcDbLine
 10
8.291329032258064
 20
7.592238068580627
 30
0.0
 11
8.360000000000003
 21
7.592238068580627
 31
0.0
  0
LINE
  5
112
330
17
100
AcDbEntity
  8
0
100
AcDbLine
 10
9.325999999999997
 20
7.592238068580627
 30
0.0
 11
9.393393548387099
 21
7.592238068580627
 31
0.0
  0
LINE
  5
113
330
17
100
AcDbEntity
  8
0
100
AcDbLine
 10
9.393393548387099
 20
7.592238068580627
 30
0.0
 11
9.404967741935486
 21
7.592238068580627
 31
0.0
  0
LINE
  5
114
330
17
100
AcDbEntity
  8
0
100
AcDbLine
 10
9.404967741935486
 20
7.592238068580627
 30
0.0
 11
10.764232258064515
 21
7.592238068580627
 31
0.0
  0
LINE
  5
115
330
17
100
AcDbEntity
  8
0
100
AcDbLine
 10
10.764232258064515
 20
7.592238068580627
 30
0.0
 11
10.860000000000003
 21
7.592238068580627
 31
0.0
  0
LINE
  5
116
330
17
100
AcDbEntity
  8
0
100
AcDbLine
 10
11.825999999999997
 20
7.592238068580627
 30
0.0
 11
11.922340909090911
 21
7.592238068580627
 31
0.0
  0
LINE
  5
117
330
17
100
AcDbEntity
  8
0
100
AcDbLine
 10
11.922340909090911
 20
7.592238068580627
 30
0.0
 11
11.946000000000003
 21
7.592238068580627
 31
0.0
  0
LINE
  5
118
330
17
100
AcDbEntity
  8
0
100
AcDbLine
 10
11.946000000000003
 20
7.592238068580627
 30
0.0
 11
13.239999999999997
 21
7.592238068580627
 31
0.0
  0
LINE
  5
119
330
17
100
AcDbEntity
  8
0
100
AcDbLine
 10
13.239999999999997
 20
7.592238068580627
 30
0.0
 11
13.242979310344825
 21
7.592238068580627
 31
0.0
  0
LINE
  5
11A
330
17
100
AcDbEntity
  8
0
100
AcDbLine
 10
13.242979310344825
 20
7.592238068580627
 30
0.0
 11
13.360000000000003
 21
7.592238068580627
 31
0.0
  0
LINE
  5
11B
330
17
100
AcDbEntity
  8
0
100
AcDbLine
 10
13.626
 20
7.592238068580627
 30
0.0
 11
13.831756929637528
 21
7.592238068580627
 31
0.0
  0
LINE
  5
11C
330
17
100
AcDbEntity
  8
0
100
AcDbLine
 10
13.831756929637528
 20
7.592238068580627
 30
0.0
 11
14.626
 21
7.592238068580627
 31
0.0
  0
LINE
  5
11D
330
17
100
AcDbEntity
  8
0
100
AcDbLine
 10
0.514
 20
10.092238068580627
 30
0.0
 11
1.2892341311134219
 21
10.092238068580627
 31
0.0
  0
LINE
  5
11E
330
17
100
AcDbEntity
  8
0
100
AcDbLine
 10
0.514
 20
10.092238068580627
 30
0.0
 11
1.2892341311134219
 21
10.092238068580627
 31
0.0
  0
LINE
  5
11F
330
17
100
AcDbEntity
  8
0
100
AcDbLine
 10
1.2892341311134219
 20
10.092238068580627
 30
0.0
 11
1.514
 21
10.092238068580627
 31
0.0
  0
LINE
  5
120
330
17
100
AcDbEntity
  8
0
100
AcDbLine
 10
1.825999999999997
 20
10.092238068580627
 30
0.0
 11
1.902567741935485
 21
10.092238068580627
 31
0.0
  0
LINE
  5
121
330
17
100
AcDbEntity
  8
0
100
AcDbLine
 10
1.902567741935485
 20
10.092238068580627
 30
0.0
 11
1.914180645161292
 21
10.092238068580627
 31
0.0
  0
LINE
  5
122
330
17
100
AcDbEntity
  8
0
100
AcDbLine
 10
1.914180645161292
 20
10.092238068580627
 30
0.0
 11
3.2734451612903213
 21
10.092238068580627
 31
0.0
  0
LINE
  5
123
330
17
100
AcDbEntity
  8
0
100
AcDbLine
 10
3.2734451612903213
 20
10.092238068580627
 30
0.0
 11
3.3600000000000034
 21
10.092238068580627
 31
0.0
  0
LINE
  5
124
330
17
100
AcDbEntity
  8
0
100
AcDbLine
 10
4.325999999999997
 20
10.092238068580627
 30
0.0
 11
4.436823529411767
 21
10.092238068580627
 31
0.0
  0
LINE
  5
125
330
17
100
AcDbEntity
  8
0
100
AcDbLine
 10
4.436823529411767
 20
10.092238068580627
 30
0.0
 11
4.446000000000003
 21
10.092238068580627
 31
0.0
  0
LINE
  5
126
330
17
100
AcDbEntity
  8
0
100
AcDbLine
 10
4.446000000000003
 20
10.092238068580627
 30
0.0
 11
5.739999999999997
 21
10.092238068580627
 31
0.0
  0
LINE
  5
127
330
17
100
AcDbEntity
  8
0
100
AcDbLine
 10
5.739999999999997
 20
10.092238068580627
 30
0.0
 11
5.758028846153843
 21
10.092238068580627
 31
0.0
  0
LINE
  5
128
330
17
100
AcDbEntity
  8
0
100
AcDbLine
 10
5.758028846153843
 20
10.092238068580627
 30
0.0
 11
5.860000000000003
 21
10.092238068580627
 31
0.0
  0
LINE
  5
129
330
17
100
AcDbEntity
  8
0
100
AcDbLine
 10
6.825999999999997
 20
10.092238068580627
 30
0.0
 11
6.918051612903228
 21
10.092238068580627
 31
0.0
  0
LINE
  5
12A
330
17
100
AcDbEntity
  8
0
100
AcDbLine
 10
6.918051612903228
 20
10.092238068580627
 30
0.0
 11
8.277316129032258
 21
10.092238068580627
 31
0.0
  0
LINE
  5
12B
330
17
100
AcDbEntity
  8
0
100
AcDbLine
 10
8.277316129032258
 20
10.092238068580627
 30
0.0
 11
8.288929032258064
 21
10.092238068580627
 31
0.0
  0
LINE
  5
12C
330
17
100
AcDbEntity
  8
0
100
AcDbLine
 10
8.288929032258064
 20
10.092238068580627
 30
0.0
 11
8.360000000000003
 21
10.092238068580627
 31
0.0
  0
LINE
  5
12D
330
17
100
AcDbEntity
  8
0
100
AcDbLine
 10
9.325999999999997
 20
10.092238068580627
 30
0.0
 11
9.390954838709678
 21
10.092238068580627
 31
0.0
  0
LINE
  5
12E
330
17
100
AcDbEntity
  8
0
100
AcDbLine
 10
9.390954838709678
 20
10.092238068580627
 30
0.0
 11
9.402567741935485
 21
10.092238068580627
 31
0.0
  0
LINE
  5
12F
330
17
100
AcDbEntity
  8
0
100
AcDbLine
 10
9.402567741935485
 20
10.092238068580627
 30
0.0
 11
10.761832258064516
 21
10.092238068580627
 31
0.0
  0
LINE
  5
130
330
17
100
AcDbEntity
  8
0
100
AcDbLine
 10
10.761832258064516
 20
10.092238068580627
 30
0.0
 11
10.860000000000003
 21
10.092238068580627
 31
0.0
  0
LINE
  5
131
330
17
100
AcDbEntity
  8
0
100
AcDbLine
 10
11.825999999999997
 20
10.092238068580627
 30
0.0
 11
11.875470967741936
 21
10.092238068580627
 31
0.0
  0
LINE
  5
132
330
17
100
AcDbEntity
  8
0
100
AcDbLine
 10
11.875470967741936
 20
10.092238068580627
 30
0.0
 11
11.93353548387097
 21
10.092238068580627
 31
0.0
  0
LINE
  5
133
330
17
100
AcDbEntity
  8
0
100
AcDbLine
 10
11.93353548387097
 20
10.092238068580627
 30
0.0
 11
13.2928
 21
10.092238068580627
 31
0.0
  0
LINE
  5
134
330
17
100
AcDbEntity
  8
0
100
AcDbLine
 10
13.2928
 20
10.092238068580627
 30
0.0
 11
13.360000000000003
 21
10.092238068580627
 31
0.0
  0
LINE
  5
135
330
17
100
AcDbEntity
  8
0
100
AcDbLine
 10
13.626
 20
10.092238068580627
 30
0.0
 11
13.883333333333335
 21
10.092238068580627
 31
0.0
  0
LINE
  5
136
330
17
100
AcDbEntity
  8
0
100
AcDbLine
 10
13.883333333333335
 20
10.092238068580627
 30
0.0
 11
14.626
 21
10.092238068580627
 31
0.0
  0
LINE
  5
137
330
17
100
AcDbEntity
  8
0
100
AcDbLine
 10
0.438
 20
12.592238068580627
 30
0.0
 11
1.183745745745744
 21
12.592238068580627
 31
0.0
  0
LINE
  5
138
330
17
100
AcDbEntity
  8
0
100
AcDbLine
 10
0.438
 20
12.592238068580627
 30
0.0
 11
1.183745745745744
 21
12.592238068580627
 31
0.0
  0
LINE
  5
139
330
17
100
AcDbEntity
  8
0
100
AcDbLine
 10
1.183745745745744
 20
12.592238068580627
 30
0.0
 11
1.438
 21
12.592238068580627
 31
0.0
  0
LINE
  5
13A
330
17
100
AcDbEntity
  8
0
100
AcDbLine
 10
1.825999999999997
 20
12.592238068580627
 30
0.0
 11
1.8996258064516138
 21
12.592238068580627
 31
0.0
  0
LINE
  5
13B
330
17
100
AcDbEntity
  8
0
100
AcDbLine
 10
1.8996258064516138
 20
12.592238068580627
 30
0.0
 11
1.9112387096774208
 21
12.592238068580627
 31
0.0
  0
LINE
  5
13C
330
17
100
AcDbEntity
  8
0
100
AcDbLine
 10
1.9112387096774208
 20
12.592238068580627
 30
0.0
 11
3.27050322580645
 21
12.592238068580627
 31
0.0
  0
LINE
  5
13D
330
17
100
AcDbEntity
  8
0
100
AcDbLine
 10
3.27050322580645
 20
12.592238068580627
 30
0.0
 11
3.3600000000000034
 21
12.592238068580627
 31
0.0
  0
LINE
  5
13E
330
17
100
AcDbEntity
  8
0
100
AcDbLine
 10
4.325999999999997
 20
12.592238068580627
 30
0.0
 11
4.431975000000002
 21
12.592238068580627
 31
0.0
  0
LINE
  5
13F
330
17
100
AcDbEntity
  8
0
100
AcDbLine
 10
4.431975000000002
 20
12.592238068580627
 30
0.0
 11
4.446000000000003
 21
12.592238068580627
 31
0.0
  0
LINE
  5
140
330
17
100
AcDbEntity
  8
0
100
AcDbLine
 10
4.446000000000003
 20
12.592238068580627
 30
0.0
 11
5.739999999999997
 21
12.592238068580627
 31
0.0
  0
LINE
  5
141
330
17
100
AcDbEntity
  8
0
100
AcDbLine
 10
5.739999999999997
 20
12.592238068580627
 30
0.0
 11
5.753283018867922
 21
12.592238068580627
 31
0.0
  0
LINE
  5
142
330
17
100
AcDbEntity
  8
0
100
AcDbLine
 10
5.753283018867922
 20
12.592238068580627
 30
0.0
 11
5.860000000000003
 21
12.592238068580627
 31
0.0
  0
LINE
  5
143
330
17
100
AcDbEntity
  8
0
100
AcDbLine
 10
6.825999999999997
 20
12.592238068580627
 30
0.0
 11
6.915109677419356
 21
12.592238068580627
 31
0.0
  0
LINE
  5
144
330
17
100
AcDbEntity
  8
0
100
AcDbLine
 10
6.915109677419356
 20
12.592238068580627
 30
0.0
 11
8.274374193548386
 21
12.592238068580627
 31
0.0
  0
LINE
  5
145
330
17
100
AcDbEntity
  8
0
100
AcDbLine
 10
8.274374193548386
 20
12.592238068580627
 30
0.0
 11
8.285987096774193
 21
12.592238068580627
 31
0.0
  0
LINE
  5
146
330
17
100
AcDbEntity
  8
0
100
AcDbLine
 10
8.285987096774193
 20
12.592238068580627
 30
0.0
 11
8.360000000000003
 21
12.592238068580627
 31
0.0
  0
LINE
  5
147
330
17
100
AcDbEntity
  8
0
100
AcDbLine
 10
9.325999999999997
 20
12.592238068580627
 30
0.0
 11
9.399625806451615
 21
12.592238068580627
 31
0.0
  0
LINE
  5
148
330
17
100
AcDbEntity
  8
0
100
AcDbLine
 10
9.399625806451615
 20
12.592238068580627
 30
0.0
 11
10.758890322580644
 21
12.592238068580627
 31
0.0
  0
LINE
  5
149
330
17
100
AcDbEntity
  8
0
100
AcDbLine
 10
10.758890322580644
 20
12.592238068580627
 30
0.0
 11
10.860000000000003
 21
12.592238068580627
 31
0.0
  0
LINE
  5
14A
330
17
100
AcDbEntity
  8
0
100
AcDbLine
 10
11.825999999999997
 20
12.592238068580627
 30
0.0
 11
11.872529032258065
 21
12.592238068580627
 31
0.0
  0
LINE
  5
14B
330
17
100
AcDbEntity
  8
0
100
AcDbLine
 10
11.872529032258065
 20
12.592238068580627
 30
0.0
 11
11.9305935483871
 21
12.592238068580627
 31
0.0
  0
LINE
  5
14C
330
17
100
AcDbEntity
  8
0
100
AcDbLine
 10
11.9305935483871
 20
12.592238068580627
 30
0.0
 11
13.28985806451613
 21
12.592238068580627
 31
0.0
  0
LINE
  5
14D
330
17
100
AcDbEntity
  8
0
100
AcDbLine
 10
13.28985806451613
 20
12.592238068580627
 30
0.0
 11
13.360000000000003
 21
12.592238068580627
 31
0.0
  0
LINE
  5
14E
330
17
100
AcDbEntity
  8
0
100
AcDbLine
 10
13.626
 20
12.592238068580627
 30
0.0
 11
13.831756929637528
 21
12.592238068580627
 31
0.0
  0
LINE
  5
14F
330
17
100
AcDbEntity
  8
0
100
AcDbLine
 10
13.831756929637528
 20
12.592238068580627
 30
0.0
 11
14.626
 21
12.592238068580627
 31
0.0
  0
ENDSEC
  0
SECTION
  2
OBJECTS
  0
DICTIONARY
  5
A
330
0
100
AcDbDictionary
281
1
  3
ACAD_COLOR
350
B
  3
ACAD_GROUP
350
C
  3
ACAD_LAYOUT
350
D
  3
ACAD_MATERIAL
350
E
  3
ACAD_MLEADERSTYLE
350
F
  3
ACAD_MLINESTYLE
350
10
  3
ACAD_PLOTSETTINGS
350
11
  3
ACAD_PLOTSTYLENAME
350
12
  3
ACAD_SCALELIST
350
14
  3
ACAD_TABLESTYLE
350
15
  3
ACAD_VISUALSTYLE
350
16
  3
EZDXF_META
350
2D
  0
DICTIONARY
  5
B
330
A
100
AcDbDictionary
281
1
  0
DICTIONARY
  5
C
330
A
100
AcDbDictionary
281
1
  0
DICTIONARY
  5
D
330
A
100
AcDbDictionary
281
1
  3
Model
350
1A
  3
Layout1
350
1E
  0
DICTIONARY
  5
E
330
A
100
AcDbDictionary
281
1
  3
ByBlock
350
1F
  3
ByLayer
350
20
  3
Global
350
21
  0
DICTIONARY
  5
F
330
A
100
AcDbDictionary
281
1
  3
Standard
350
2C
  0
DICTIONARY
  5
10
330
A
100
AcDbDictionary
281
1
  3
Standard
350
22
  0
DICTIONARY
  5
11
330
A
100
AcDbDictionary
281
1
  0
ACDBDICTIONARYWDFLT
  5
12
330
A
100
AcDbDictionary
281
1
  3
Normal
350
13
100
AcDbDictionaryWithDefault
340
13
  0
ACDBPLACEHOLDER
  5
13
330
12
  0
DICTIONARY
  5
14
330
A
100
AcDbDictionary
281
1
  0
DICTIONARY
  5
15
330
A
100
AcDbDictionary
281
1
  0
DICTIONARY
  5
16
330
A
100
AcDbDictionary
281
1
  0
LAYOUT
  5
1A
330
D
100
AcDbPlotSettings
  1

  4
A3
  6

 40
7.5
 41
20.0
 42
7.5
 43
20.0
 44
420.0
 45
297.0
 46
0.0
 47
0.0
 48
0.0
 49
0.0
140
0.0
141
0.0
142
1.0
143
1.0
 70
1024
 72
1
 73
0
 74
5
  7

 75
16
 76
0
 77
2
 78
300
147
1.0
148
0.0
149
0.0
100
AcDbLayout
  1
Model
 70
1
 71
0
 10
0.0
 20
0.0
 11
420.0
 21
297.0
 12
0.0
 22
0.0
 32
0.0
 14
1e+20
 24
1e+20
 34
1e+20
 15
-1e+20
 25
-1e+20
 35
-1e+20
146
0.0
 13
0.0
 23
0.0
 33
0.0
 16
1.0
 26
0.0
 36
0.0
 17
0.0
 27
1.0
 37
0.0
 76
1
330
17
  0
LAYOUT
  5
1E
330
D
100
AcDbPlotSettings
  1

  4
A3
  6

 40
7.5
 41
20.0
 42
7.5
 43
20.0
 44
420.0
 45
297.0
 46
0.0
 47
0.0
 48
0.0
 49
0.0
140
0.0
141
0.0
142
1.0
143
1.0
 70
0
 72
1
 73
0
 74
5
  7

 75
16
 76
0
 77
2
 78
300
147
1.0
148
0.0
149
0.0
100
AcDbLayout
  1
Layout1
 70
1
 71
1
 10
0.0
 20
0.0
 11
420.0
 21
297.0
 12
0.0
 22
0.0
 32
0.0
 14
1e+20
 24
1e+20
 34
1e+20
 15
-1e+20
 25
-1e+20
 35
-1e+20
146
0.0
 13
0.0
 23
0.0
 33
0.0
 16
1.0
 26
0.0
 36
0.0
 17
0.0
 27
1.0
 37
0.0
 76
1
330
1B
  0
MATERIAL
  5
1F
102
{ACAD_REACTORS
330
E
102
}
330
E
100
AcDbMaterial
  1
ByBlock
  2

 70
0
 40
1.0
 71
1
 41
1.0
 91
-1023410177
 42
1.0
 72
1
  3

 73
1
 74
1
 75
1
 44
0.5
 73
0
 45
1.0
 46
1.0
 77
1
  4

 78
1
 79
1
170
1
 48
1.0
171
1
  6

172
1
173
1
174
1
140
1.0
141
1.0
175
1
  7

176
1
177
1
178
1
143
1.0
179
1
  8

270
1
271
1
272
1
145
1.0
146
1.0
273
1
  9

274
1
275
1
276
1
 42
1.0
 72
1
  3

 73
1
 74
1
 75
1
 94
63
  0
MATERIAL
  5
20
102
{ACAD_REACTORS
330
E
102
}
330
E
100
AcDbMaterial
  1
ByLayer
  2

 70
0
 40
1.0
 71
1
 41
1.0
 91
-1023410177
 42
1.0
 72
1
  3

 73
1
 74
1
 75
1
 44
0.5
 73
0
 45
1.0
 46
1.0
 77
1
  4

 78
1
 79
1
170
1
 48
1.0
171
1
  6

172
1
173
1
174
1
140
1.0
141
1.0
175
1
  7

176
1
177
1
178
1
143
1.0
179
1
  8

270
1
271
1
272
1
145
1.0
146
1.0
273
1
  9

274
1
275
1
276
1
 42
1.0
 72
1
  3

 73
1
 74
1
 75
1
 94
63
  0
MATERIAL
  5
21
102
{ACAD_REACTORS
330
E
102
}
330
E
100
AcDbMaterial
  1
Global
  2

 70
0
 40
1.0
 71
1
 41
1.0
 91
-1023410177
 42
1.0
 72
1
  3

 73
1
 74
1
 75
1
 44
0.5
 73
0
 45
1.0
 46
1.0
 77
1
  4

 78
1
 79
1
170
1
 48
1.0
171
1
  6

172
1
173
1
174
1
140
1.0
141
1.0
175
1
  7

176
1
177
1
178
1
143
1.0
179
1
  8

270
1
271
1
272
1
145
1.0
146
1.0
273
1
  9

274
1
275
1
276
1
 42
1.0
 72
1
  3

 73
1
 74
1
 75
1
 94
63
  0
MLINESTYLE
  5
22
102
{ACAD_REACTORS
330
10
102
}
330
10
100
AcDbMlineStyle
  2
Standard
 70
0
  3

 62
256
 51
90.0
 52
90.0
 71
2
 49
0.5
 62
256
  6
BYLAYER
 49
-0.5
 62
256
  6
BYLAYER
  0
MLEADERSTYLE
  5
2C
102
{ACAD_REACTORS
330
F
102
}
330
F
100
AcDbMLeaderStyle
179
2
170
2
171
1
172
0
 90
2
 40
0.0
 41
0.0
173
1
 91
-1056964608
 92
-2
290
1
 42
2.0
291
1
 43
8.0
  3
Standard
 44
4.0
300

342
29
174
1
175
1
176
0
178
1
 93
-1056964608
 45
4.0
292
0
297
0
 46
4.0
 94
-1056964608
 47
1.0
 49
1.0
140
1.0
294
1
141
0.0
177
0
142
1.0
295
0
296
0
143
3.75
271
0
272
9
273
9
  0
DICTIONARY
  5
2D
330
A
100
AcDbDictionary
280
1
281
1
  3
CREATED_BY_EZDXF
350
2E
  3
WRITTEN_BY_EZDXF
350
152
  0
DICTIONARYVAR
  5
2E
330
2D
100
DictionaryVariables
280
0
  1
1.4.2 @ 2025-07-30T18:01:15.823832+00:00
  0
DICTIONARYVAR
  5
152
330
2D
100
DictionaryVariables
280
0
  1
1.4.2 @ 2025-07-30T18:01:15.839457+00:00
  0
ENDSEC
  0
EOF
