  0
SECTION
  2
HEADER
  9
$ACADVER
  1
AC1024
  9
$ACADMAINTVER
 70
6
  9
$DWGCODEPAGE
  3
ANSI_1252
  9
$LASTSAVEDBY
  1
ezdxf
  9
$INSBASE
 10
0.0
 20
0.0
 30
0.0
  9
$EXTMIN
 10
1e+20
 20
1e+20
 30
1e+20
  9
$EXTMAX
 10
-1e+20
 20
-1e+20
 30
-1e+20
  9
$LIMMIN
 10
0.0
 20
0.0
  9
$LIMMAX
 10
420.0
 20
297.0
  9
$ORTHOMODE
 70
0
  9
$REGENMODE
 70
1
  9
$FILLMODE
 70
1
  9
$QTEXTMODE
 70
0
  9
$MIRRTEXT
 70
1
  9
$LTSCALE
 40
1.0
  9
$ATTMODE
 70
1
  9
$TEXTSIZE
 40
2.5
  9
$TRACEWID
 40
1.0
  9
$TEXTSTYLE
  7
Standard
  9
$CLAYER
  8
0
  9
$CELTYPE
  6
ByLayer
  9
$CECOLOR
 62
256
  9
$CELTSCALE
 40
1.0
  9
$DISPSILH
 70
0
  9
$DIMSCALE
 40
1.0
  9
$DIMASZ
 40
2.5
  9
$DIMEXO
 40
0.625
  9
$DIMDLI
 40
3.75
  9
$DIMRND
 40
0.0
  9
$DIMDLE
 40
0.0
  9
$DIMEXE
 40
1.25
  9
$DIMTP
 40
0.0
  9
$DIMTM
 40
0.0
  9
$DIMTXT
 40
2.5
  9
$DIMCEN
 40
2.5
  9
$DIMTSZ
 40
0.0
  9
$DIMTOL
 70
0
  9
$DIMLIM
 70
0
  9
$DIMTIH
 70
0
  9
$DIMTOH
 70
0
  9
$DIMSE1
 70
0
  9
$DIMSE2
 70
0
  9
$DIMTAD
 70
1
  9
$DIMZIN
 70
8
  9
$DIMBLK
  1

  9
$DIMASO
 70
1
  9
$DIMSHO
 70
1
  9
$DIMPOST
  1

  9
$DIMAPOST
  1

  9
$DIMALT
 70
0
  9
$DIMALTD
 70
3
  9
$DIMALTF
 40
0.03937007874
  9
$DIMLFAC
 40
1.0
  9
$DIMTOFL
 70
1
  9
$DIMTVP
 40
0.0
  9
$DIMTIX
 70
0
  9
$DIMSOXD
 70
0
  9
$DIMSAH
 70
0
  9
$DIMBLK1
  1

  9
$DIMBLK2
  1

  9
$DIMSTYLE
  2
ISO-25
  9
$DIMCLRD
 70
0
  9
$DIMCLRE
 70
0
  9
$DIMCLRT
 70
0
  9
$DIMTFAC
 40
1.0
  9
$DIMGAP
 40
0.625
  9
$DIMJUST
 70
0
  9
$DIMSD1
 70
0
  9
$DIMSD2
 70
0
  9
$DIMTOLJ
 70
0
  9
$DIMTZIN
 70
8
  9
$DIMALTZ
 70
0
  9
$DIMALTTZ
 70
0
  9
$DIMUPT
 70
0
  9
$DIMDEC
 70
2
  9
$DIMTDEC
 70
2
  9
$DIMALTU
 70
2
  9
$DIMALTTD
 70
3
  9
$DIMTXSTY
  7
Standard
  9
$DIMAUNIT
 70
0
  9
$DIMADEC
 70
0
  9
$DIMALTRND
 40
0.0
  9
$DIMAZIN
 70
0
  9
$DIMDSEP
 70
44
  9
$DIMATFIT
 70
3
  9
$DIMFRAC
 70
0
  9
$DIMLDRBLK
  1

  9
$DIMLUNIT
 70
2
  9
$DIMLWD
 70
-2
  9
$DIMLWE
 70
-2
  9
$DIMTMOVE
 70
0
  9
$DIMFXL
 40
1.0
  9
$DIMFXLON
 70
0
  9
$DIMJOGANG
 40
0.785398163397
  9
$DIMTFILL
 70
0
  9
$DIMTFILLCLR
 70
0
  9
$DIMARCSYM
 70
0
  9
$DIMLTYPE
  6

  9
$DIMLTEX1
  6

  9
$DIMLTEX2
  6

  9
$DIMTXTDIRECTION
 70
0
  9
$LUNITS
 70
2
  9
$LUPREC
 70
4
  9
$SKETCHINC
 40
1.0
  9
$FILLETRAD
 40
10.0
  9
$AUNITS
 70
0
  9
$AUPREC
 70
2
  9
$MENU
  1
.
  9
$ELEVATION
 40
0.0
  9
$PELEVATION
 40
0.0
  9
$THICKNESS
 40
0.0
  9
$LIMCHECK
 70
0
  9
$CHAMFERA
 40
0.0
  9
$CHAMFERB
 40
0.0
  9
$CHAMFERC
 40
0.0
  9
$CHAMFERD
 40
0.0
  9
$SKPOLY
 70
0
  9
$TDCREATE
 40
2460887.626365741
  9
$TDUCREATE
 40
2458532.153996898
  9
$TDUPDATE
 40
2460887.626365741
  9
$TDUUPDATE
 40
2458532.1544311
  9
$TDINDWG
 40
0.0
  9
$TDUSRTIMER
 40
0.0
  9
$USRTIMER
 70
1
  9
$ANGBASE
 50
0.0
  9
$ANGDIR
 70
0
  9
$PDMODE
 70
0
  9
$PDSIZE
 40
0.0
  9
$PLINEWID
 40
0.0
  9
$SPLFRAME
 70
0
  9
$SPLINETYPE
 70
6
  9
$SPLINESEGS
 70
8
  9
$HANDSEED
  5
10A
  9
$SURFTAB1
 70
6
  9
$SURFTAB2
 70
6
  9
$SURFTYPE
 70
6
  9
$SURFU
 70
6
  9
$SURFV
 70
6
  9
$UCSBASE
  2

  9
$UCSNAME
  2

  9
$UCSORG
 10
0.0
 20
0.0
 30
0.0
  9
$UCSXDIR
 10
1.0
 20
0.0
 30
0.0
  9
$UCSYDIR
 10
0.0
 20
1.0
 30
0.0
  9
$UCSORTHOREF
  2

  9
$UCSORTHOVIEW
 70
0
  9
$UCSORGTOP
 10
0.0
 20
0.0
 30
0.0
  9
$UCSORGBOTTOM
 10
0.0
 20
0.0
 30
0.0
  9
$UCSORGLEFT
 10
0.0
 20
0.0
 30
0.0
  9
$UCSORGRIGHT
 10
0.0
 20
0.0
 30
0.0
  9
$UCSORGFRONT
 10
0.0
 20
0.0
 30
0.0
  9
$UCSORGBACK
 10
0.0
 20
0.0
 30
0.0
  9
$PUCSBASE
  2

  9
$PUCSNAME
  2

  9
$PUCSORG
 10
0.0
 20
0.0
 30
0.0
  9
$PUCSXDIR
 10
1.0
 20
0.0
 30
0.0
  9
$PUCSYDIR
 10
0.0
 20
1.0
 30
0.0
  9
$PUCSORTHOREF
  2

  9
$PUCSORTHOVIEW
 70
0
  9
$PUCSORGTOP
 10
0.0
 20
0.0
 30
0.0
  9
$PUCSORGBOTTOM
 10
0.0
 20
0.0
 30
0.0
  9
$PUCSORGLEFT
 10
0.0
 20
0.0
 30
0.0
  9
$PUCSORGRIGHT
 10
0.0
 20
0.0
 30
0.0
  9
$PUCSORGFRONT
 10
0.0
 20
0.0
 30
0.0
  9
$PUCSORGBACK
 10
0.0
 20
0.0
 30
0.0
  9
$USERI1
 70
0
  9
$USERI2
 70
0
  9
$USERI3
 70
0
  9
$USERI4
 70
0
  9
$USERI5
 70
0
  9
$USERR1
 40
0.0
  9
$USERR2
 40
0.0
  9
$USERR3
 40
0.0
  9
$USERR4
 40
0.0
  9
$USERR5
 40
0.0
  9
$WORLDVIEW
 70
1
  9
$SHADEDGE
 70
3
  9
$SHADEDIF
 70
70
  9
$TILEMODE
 70
1
  9
$MAXACTVP
 70
64
  9
$PINSBASE
 10
0.0
 20
0.0
 30
0.0
  9
$PLIMCHECK
 70
0
  9
$PEXTMIN
 10
1e+20
 20
1e+20
 30
1e+20
  9
$PEXTMAX
 10
-1e+20
 20
-1e+20
 30
-1e+20
  9
$PLIMMIN
 10
0.0
 20
0.0
  9
$PLIMMAX
 10
420.0
 20
297.0
  9
$UNITMODE
 70
0
  9
$VISRETAIN
 70
1
  9
$PLINEGEN
 70
0
  9
$PSLTSCALE
 70
1
  9
$TREEDEPTH
 70
3020
  9
$CMLSTYLE
  2
Standard
  9
$CMLJUST
 70
0
  9
$CMLSCALE
 40
20.0
  9
$PROXYGRAPHICS
 70
1
  9
$MEASUREMENT
 70
1
  9
$CELWEIGHT
370
-1
  9
$ENDCAPS
280
0
  9
$JOINSTYLE
280
0
  9
$LWDISPLAY
290
0
  9
$INSUNITS
 70
6
  9
$HYPERLINKBASE
  1

  9
$STYLESHEET
  1

  9
$XEDIT
290
1
  9
$CEPSNTYPE
380
0
  9
$PSTYLEMODE
290
1
  9
$FINGERPRINTGUID
  2
{8B1786E3-FF33-4F96-967E-F87BB7EC31F0}
  9
$VERSIONGUID
  2
{D5FD3F22-A9A5-4063-9A1F-60FE7B8F2F18}
  9
$EXTNAMES
290
1
  9
$PSVPSCALE
 40
0.0
  9
$OLESTARTUP
290
0
  9
$SORTENTS
280
127
  9
$INDEXCTL
280
0
  9
$HIDETEXT
280
1
  9
$XCLIPFRAME
280
1
  9
$HALOGAP
280
0
  9
$OBSCOLOR
 70
257
  9
$OBSLTYPE
280
0
  9
$INTERSECTIONDISPLAY
280
0
  9
$INTERSECTIONCOLOR
 70
257
  9
$DIMASSOC
280
2
  9
$PROJECTNAME
  1

  9
$CAMERADISPLAY
290
0
  9
$LENSLENGTH
 40
50.0
  9
$CAMERAHEIGHT
 40
0.0
  9
$STEPSPERSEC
 40
24.0
  9
$STEPSIZE
 40
100.0
  9
$3DDWFPREC
 40
2.0
  9
$PSOLWIDTH
 40
0.005
  9
$PSOLHEIGHT
 40
0.08
  9
$LOFTANG1
 40
1.570796326795
  9
$LOFTANG2
 40
1.570796326795
  9
$LOFTMAG1
 40
0.0
  9
$LOFTMAG2
 40
0.0
  9
$LOFTPARAM
 70
7
  9
$LOFTNORMALS
280
1
  9
$LATITUDE
 40
37.795
  9
$LONGITUDE
 40
-122.394
  9
$NORTHDIRECTION
 40
0.0
  9
$TIMEZONE
 70
-8000
  9
$LIGHTGLYPHDISPLAY
280
1
  9
$TILEMODELIGHTSYNCH
280
1
  9
$CMATERIAL
347
20
  9
$SOLIDHIST
280
0
  9
$SHOWHIST
280
1
  9
$DWFFRAME
280
2
  9
$DGNFRAME
280
2
  9
$REALWORLDSCALE
290
1
  9
$INTERFERECOLOR
 62
256
  9
$CSHADOW
280
0
  9
$SHADOWPLANELOCATION
 40
0.0
  0
ENDSEC
  0
SECTION
  2
CLASSES
  0
CLASS
  1
ACDBDICTIONARYWDFLT
  2
AcDbDictionaryWithDefault
  3
ObjectDBX Classes
 90
0
 91
0
280
0
281
0
  0
CLASS
  1
SUN
  2
AcDbSun
  3
SCENEOE
 90
1153
 91
0
280
0
281
0
  0
CLASS
  1
VISUALSTYLE
  2
AcDbVisualStyle
  3
ObjectDBX Classes
 90
4095
 91
0
280
0
281
0
  0
CLASS
  1
MATERIAL
  2
AcDbMaterial
  3
ObjectDBX Classes
 90
1153
 91
0
280
0
281
0
  0
CLASS
  1
SCALE
  2
AcDbScale
  3
ObjectDBX Classes
 90
1153
 91
0
280
0
281
0
  0
CLASS
  1
TABLESTYLE
  2
AcDbTableStyle
  3
ObjectDBX Classes
 90
4095
 91
0
280
0
281
0
  0
CLASS
  1
MLEADERSTYLE
  2
AcDbMLeaderStyle
  3
ACDB_MLEADERSTYLE_CLASS
 90
4095
 91
0
280
0
281
0
  0
CLASS
  1
DICTIONARYVAR
  2
AcDbDictionaryVar
  3
ObjectDBX Classes
 90
0
 91
0
280
0
281
0
  0
CLASS
  1
CELLSTYLEMAP
  2
AcDbCellStyleMap
  3
ObjectDBX Classes
 90
1152
 91
0
280
0
281
0
  0
CLASS
  1
MENTALRAYRENDERSETTINGS
  2
AcDbMentalRayRenderSettings
  3
SCENEOE
 90
1024
 91
0
280
0
281
0
  0
CLASS
  1
ACDBDETAILVIEWSTYLE
  2
AcDbDetailViewStyle
  3
ObjectDBX Classes
 90
1025
 91
0
280
0
281
0
  0
CLASS
  1
ACDBSECTIONVIEWSTYLE
  2
AcDbSectionViewStyle
  3
ObjectDBX Classes
 90
1025
 91
0
280
0
281
0
  0
CLASS
  1
RASTERVARIABLES
  2
AcDbRasterVariables
  3
ISM
 90
0
 91
0
280
0
281
0
  0
CLASS
  1
LAYOUT
  2
AcDbLayout
  3
ObjectDBX Classes
 90
0
 91
0
280
0
281
0
  0
CLASS
  1
ACDBPLACEHOLDER
  2
AcDbPlaceHolder
  3
ObjectDBX Classes
 90
0
 91
0
280
0
281
0
  0
ENDSEC
  0
SECTION
  2
TABLES
  0
TABLE
  2
VPORT
  5
8
330
0
100
AcDbSymbolTable
 70
1
  0
VPORT
  5
23
330
8
100
AcDbSymbolTableRecord
100
AcDbViewportTableRecord
  2
*Active
 70
0
 10
0.0
 20
0.0
 11
1.0
 21
1.0
 12
0.0
 22
0.0
 13
0.0
 23
0.0
 14
0.5
 24
0.5
 15
0.5
 25
0.5
 16
0.0
 26
0.0
 36
1.0
 17
0.0
 27
0.0
 37
0.0
 40
1000.0
 41
1.34
 42
50.0
 43
0.0
 44
0.0
 50
0.0
 51
0.0
 71
0
 72
1000
 73
1
 74
3
 75
0
 76
0
 77
0
 78
0
281
0
 65
0
146
0.0
  0
ENDTAB
  0
TABLE
  2
LTYPE
  5
2
330
0
100
AcDbSymbolTable
 70
3
  0
LTYPE
  5
24
330
2
100
AcDbSymbolTableRecord
100
AcDbLinetypeTableRecord
  2
ByBlock
 70
0
  3

 72
65
 73
0
 40
0.0
  0
LTYPE
  5
25
330
2
100
AcDbSymbolTableRecord
100
AcDbLinetypeTableRecord
  2
ByLayer
 70
0
  3

 72
65
 73
0
 40
0.0
  0
LTYPE
  5
26
330
2
100
AcDbSymbolTableRecord
100
AcDbLinetypeTableRecord
  2
Continuous
 70
0
  3

 72
65
 73
0
 40
0.0
  0
ENDTAB
  0
TABLE
  2
LAYER
  5
1
330
0
100
AcDbSymbolTable
 70
2
  0
LAYER
  5
27
330
1
100
AcDbSymbolTableRecord
100
AcDbLayerTableRecord
  2
0
 70
0
 62
7
  6
Continuous
370
-3
390
13
347
21
  0
LAYER
  5
28
330
1
100
AcDbSymbolTableRecord
100
AcDbLayerTableRecord
  2
Defpoints
 70
0
 62
7
  6
Continuous
290
0
370
-3
390
13
347
21
  0
ENDTAB
  0
TABLE
  2
STYLE
  5
5
330
0
100
AcDbSymbolTable
 70
1
  0
STYLE
  5
29
330
5
100
AcDbSymbolTableRecord
100
AcDbTextStyleTableRecord
  2
Standard
 70
0
 40
0.0
 41
1.0
 50
0.0
 71
0
 42
2.5
  3
txt
  4

  0
ENDTAB
  0
TABLE
  2
VIEW
  5
7
330
0
100
AcDbSymbolTable
 70
0
  0
ENDTAB
  0
TABLE
  2
UCS
  5
6
330
0
100
AcDbSymbolTable
 70
0
  0
ENDTAB
  0
TABLE
  2
APPID
  5
3
330
0
100
AcDbSymbolTable
 70
3
  0
APPID
  5
2A
330
3
100
AcDbSymbolTableRecord
100
AcDbRegAppTableRecord
  2
ACAD
 70
0
  0
APPID
  5
107
330
3
100
AcDbSymbolTableRecord
100
AcDbRegAppTableRecord
  2
HATCHBACKGROUNDCOLOR
 70
0
  0
APPID
  5
108
330
3
100
AcDbSymbolTableRecord
100
AcDbRegAppTableRecord
  2
EZDXF
 70
0
  0
ENDTAB
  0
TABLE
  2
DIMSTYLE
  5
4
330
0
100
AcDbSymbolTable
 70
1
100
AcDbDimStyleTable
  0
DIMSTYLE
105
2B
330
4
100
AcDbSymbolTableRecord
100
AcDbDimStyleTableRecord
  2
Standard
 70
0
 40
1.0
 41
2.5
 42
0.625
 43
3.75
 44
1.25
 45
0.0
 46
0.0
 47
0.0
 48
0.0
 49
2.5
140
2.5
141
2.5
142
0.0
143
0.03937007874
144
1.0
145
0.0
146
1.0
147
0.625
148
0.0
 69
0
 70
0
 71
0
 72
0
 73
0
 74
0
 75
0
 76
0
 77
1
 78
8
 79
3
170
0
171
3
172
1
173
0
174
0
175
0
176
0
177
0
178
0
179
2
271
2
272
2
273
2
274
3
275
0
276
0
277
2
278
44
279
0
280
0
281
0
282
0
283
0
284
8
285
0
286
0
288
0
289
3
290
0
371
-2
372
-2
  0
ENDTAB
  0
TABLE
  2
BLOCK_RECORD
  5
9
330
0
100
AcDbSymbolTable
 70
2
  0
BLOCK_RECORD
  5
17
330
9
100
AcDbSymbolTableRecord
100
AcDbBlockTableRecord
  2
*Model_Space
340
1A
 70
0
280
1
281
0
  0
BLOCK_RECORD
  5
1B
330
9
100
AcDbSymbolTableRecord
100
AcDbBlockTableRecord
  2
*Paper_Space
340
1E
 70
0
280
1
281
0
  0
ENDTAB
  0
ENDSEC
  0
SECTION
  2
BLOCKS
  0
BLOCK
  5
18
330
17
100
AcDbEntity
  8
0
100
AcDbBlockBegin
  2
*Model_Space
 70
0
 10
0.0
 20
0.0
 30
0.0
  3
*Model_Space
  1

  0
ENDBLK
  5
19
330
17
100
AcDbEntity
  8
0
100
AcDbBlockEnd
  0
BLOCK
  5
1C
330
1B
100
AcDbEntity
  8
0
100
AcDbBlockBegin
  2
*Paper_Space
 70
0
 10
0.0
 20
0.0
 30
0.0
  3
*Paper_Space
  1

  0
ENDBLK
  5
1D
330
1B
100
AcDbEntity
  8
0
100
AcDbBlockEnd
  0
ENDSEC
  0
SECTION
  2
ENTITIES
  0
LWPOLYLINE
  5
2F
330
17
100
AcDbEntity
  8
0
100
AcDbPolyline
 90
2
 70
1
 10
2.2438869116780444
 20
0.4381776582029362
 10
1.287670583464473
 20
0.5686848073897978
  0
LWPOLYLINE
  5
30
330
17
100
AcDbEntity
  8
0
100
AcDbPolyline
 90
2
 70
1
 10
2.2438869116780444
 20
0.4381776582029362
 10
1.287670583464473
 20
0.5686848073897978
  0
LWPOLYLINE
  5
31
330
17
100
AcDbEntity
  8
0
100
AcDbPolyline
 90
2
 70
1
 10
0.6138751672869969
 20
1.1961093333321986
 10
0.5439063066089529
 20
1.392276283739057
  0
LWPOLYLINE
  5
32
330
17
100
AcDbEntity
  8
0
100
AcDbPolyline
 90
2
 70
1
 10
0.4415630917889509
 20
2.217992790300152
 10
0.4654842190033158
 20
3.185772034603438
  0
LWPOLYLINE
  5
33
330
17
100
AcDbEntity
  8
0
100
AcDbPolyline
 90
2
 70
1
 10
0.48642676070710605
 20
4.0166404641220534
 10
0.5108510298602275
 20
4.98564195593817
  0
LWPOLYLINE
  5
34
330
17
100
AcDbEntity
  8
0
100
AcDbPolyline
 90
2
 70
1
 10
0.5317878657126001
 20
5.816284013134191
 10
0.5561849102769381
 20
6.784205404375757
  0
LWPOLYLINE
  5
35
330
17
100
AcDbEntity
  8
0
100
AcDbPolyline
 90
2
 70
1
 10
0.5771463879177324
 20
7.615825092861057
 10
0.5604175199063531
 20
8.583639296649574
  0
LWPOLYLINE
  5
36
330
17
100
AcDbEntity
  8
0
100
AcDbPolyline
 90
2
 70
1
 10
0.5349618166453433
 20
9.414991191027452
 10
0.5053253768160325
 20
10.382880788972745
  0
LWPOLYLINE
  5
37
330
17
100
AcDbEntity
  8
0
100
AcDbPolyline
 90
2
 70
1
 10
0.4798638345145423
 20
11.214423379216102
 10
0.45023284467522157
 20
12.182134987205426
  0
LWPOLYLINE
  5
38
330
17
100
AcDbEntity
  8
0
100
AcDbPolyline
 90
2
 70
1
 10
0.44821989363585024
 20
13.01361311854053
 10
0.6058577864371376
 20
13.963549330945307
  0
LWPOLYLINE
  5
39
330
17
100
AcDbEntity
  8
0
100
AcDbPolyline
 90
2
 70
1
 10
1.1447642832544407
 20
14.559103996645662
 10
2.087472549179092
 20
14.74299342782284
  0
LWPOLYLINE
  5
3A
330
17
100
AcDbEntity
  8
0
100
AcDbPolyline
 90
2
 70
1
 10
2.9190968139111404
 20
14.73021492223171
 10
3.886275098150702
 20
14.696587062196404
  0
LWPOLYLINE
  5
3B
330
17
100
AcDbEntity
  8
0
100
AcDbPolyline
 90
2
 70
1
 10
4.717187444765237
 20
14.667697037938332
 10
5.684896693849343
 20
14.634050716765337
  0
LWPOLYLINE
  5
3C
330
17
100
AcDbEntity
  8
0
100
AcDbPolyline
 90
2
 70
1
 10
6.51672886528851
 20
14.625933613780427
 10
7.484910058610161
 20
14.627332134088693
  0
LWPOLYLINE
  5
3D
330
17
100
AcDbEntity
  8
0
100
AcDbPolyline
 90
2
 70
1
 10
8.316526868683372
 20
14.628533389603264
 10
9.285005638263117
 20
14.629932339755078
  0
LWPOLYLINE
  5
3E
330
17
100
AcDbEntity
  8
0
100
AcDbPolyline
 90
2
 70
1
 10
10.11675900781325
 20
14.631133792527354
 10
11.085101217916069
 20
14.632532545421462
  0
LWPOLYLINE
  5
3F
330
17
100
AcDbEntity
  8
0
100
AcDbPolyline
 90
2
 70
1
 10
11.916854587466208
 20
14.63373399819374
 10
12.885196797569025
 20
14.635132751087847
  0
LWPOLYLINE
  5
40
330
17
100
AcDbEntity
  8
0
100
AcDbPolyline
 90
2
 70
1
 10
13.716950167119164
 20
14.636334203860125
 10
14.626220045838389
 20
14.57857589306353
  0
LWPOLYLINE
  5
41
330
17
100
AcDbEntity
  8
0
100
AcDbPolyline
 90
2
 70
1
 10
14.626210793001011
 20
13.7470038592167
 10
14.626200020914414
 20
12.778893689785106
  0
LWPOLYLINE
  5
42
330
17
100
AcDbEntity
  8
0
100
AcDbPolyline
 90
2
 70
1
 10
14.626190761994948
 20
11.946775045768815
 10
14.62617998990835
 20
10.978664876337225
  0
LWPOLYLINE
  5
43
330
17
100
AcDbEntity
  8
0
100
AcDbPolyline
 90
2
 70
1
 10
14.626170737988545
 20
10.147175306636415
 10
14.626159968331882
 20
9.179283520516414
  0
LWPOLYLINE
  5
44
330
17
100
AcDbEntity
  8
0
100
AcDbPolyline
 90
2
 70
1
 10
14.626150707243609
 20
8.346969961245899
 10
14.626139938787404
 20
7.379186063000731
  0
LWPOLYLINE
  5
45
330
17
100
AcDbEntity
  8
0
100
AcDbPolyline
 90
2
 70
1
 10
14.626130680009382
 20
6.547080130848845
 10
14.634067591184074
 20
5.5789228622340925
  0
LWPOLYLINE
  5
46
330
17
100
AcDbEntity
  8
0
100
AcDbPolyline
 90
2
 70
1
 10
14.663365309473681
 20
4.747637119944703
 10
14.697462878108027
 20
3.7801616881626825
  0
LWPOLYLINE
  5
47
330
17
100
AcDbEntity
  8
0
100
AcDbPolyline
 90
2
 70
1
 10
14.726768327024034
 20
2.948656599115995
 10
14.714332302626232
 20
1.9830578818124704
  0
LWPOLYLINE
  5
48
330
17
100
AcDbEntity
  8
0
100
AcDbPolyline
 90
3
 70
1
 10
14.569014897438626
 20
1.1688671309325205
 10
14.375061314900211
 20
0.8555081805499843
 10
13.861874259887285
 20
0.5658710303899257
  0
LWPOLYLINE
  5
49
330
17
100
AcDbEntity
  8
0
100
AcDbPolyline
 90
2
 70
1
 10
13.03945440144171
 20
0.4475855494753747
 10
13.014504914619856
 20
0.4474222971224316
  0
LWPOLYLINE
  5
4A
330
17
100
AcDbEntity
  8
0
100
AcDbPolyline
 90
2
 70
1
 10
13.014504914619856
 20
0.4474222971224316
 10
12.985101602679547
 20
0.4481273858086079
  0
LWPOLYLINE
  5
4B
330
17
100
AcDbEntity
  8
0
100
AcDbPolyline
 90
2
 70
1
 10
12.985101602679547
 20
0.4481273858086079
 10
12.071822441734751
 20
0.46719165340961005
  0
LWPOLYLINE
  5
4C
330
17
100
AcDbEntity
  8
0
100
AcDbPolyline
 90
2
 70
1
 10
11.240938895399271
 20
0.4871161635886187
 10
10.272111003188487
 20
0.5103485663545619
  0
LWPOLYLINE
  5
4D
330
17
100
AcDbEntity
  8
0
100
AcDbPolyline
 90
2
 70
1
 10
9.441231217656938
 20
0.530272986349842
 10
8.473293375489087
 20
0.5534840457985198
  0
LWPOLYLINE
  5
4E
330
17
100
AcDbEntity
  8
0
100
AcDbPolyline
 90
2
 70
1
 10
7.641519779110674
 20
0.573429899294794
 10
6.673798321453665
 20
0.5661173786466648
  0
LWPOLYLINE
  5
4F
330
17
100
AcDbEntity
  8
0
100
AcDbPolyline
 90
2
 70
1
 10
5.842646956854089
 20
0.5398129404145655
 10
4.874627094264513
 20
0.5091768616358223
  0
LWPOLYLINE
  5
50
330
17
100
AcDbEntity
  8
0
100
AcDbPolyline
 90
2
 70
1
 10
4.043106656338172
 20
0.4828607429000983
 10
3.0754304560692964
 20
0.4522355404125729
  0
LINE
  5
51
330
17
100
AcDbEntity
  8
0
100
AcDbLine
 10
2.5928489565849304
 20
1.2388000000000055
 30
0.0
 11
2.5928489565849304
 21
1.5759999999999983
 31
0.0
  0
LINE
  5
52
330
17
100
AcDbEntity
  8
0
100
AcDbLine
 10
2.5928489565849304
 20
1.2388000000000055
 30
0.0
 11
2.5928489565849304
 21
1.5759999999999983
 31
0.0
  0
LINE
  5
53
330
17
100
AcDbEntity
  8
0
100
AcDbLine
 10
2.5928489565849304
 20
2.407000000000002
 30
0.0
 11
2.5928489565849304
 21
2.407760000000002
 31
0.0
  0
LINE
  5
54
330
17
100
AcDbEntity
  8
0
100
AcDbLine
 10
2.5928489565849304
 20
2.407760000000002
 30
0.0
 11
2.5928489565849304
 21
2.7826350914962266
 31
0.0
  0
LINE
  5
55
330
17
100
AcDbEntity
  8
0
100
AcDbLine
 10
2.5928489565849304
 20
2.7826350914962266
 30
0.0
 11
2.5928489565849304
 21
3.3759612486544657
 31
0.0
  0
LINE
  5
56
330
17
100
AcDbEntity
  8
0
100
AcDbLine
 10
2.5928489565849304
 20
4.206706940874038
 30
0.0
 11
2.5928489565849304
 21
4.2414344473007635
 31
0.0
  0
LINE
  5
57
330
17
100
AcDbEntity
  8
0
100
AcDbLine
 10
2.5928489565849304
 20
4.2414344473007635
 30
0.0
 11
2.5928489565849304
 21
5.175999999999998
 31
0.0
  0
LINE
  5
58
330
17
100
AcDbEntity
  8
0
100
AcDbLine
 10
2.5928489565849304
 20
6.007069364161851
 30
0.0
 11
2.5928489565849304
 21
6.252462427745678
 31
0.0
  0
LINE
  5
59
330
17
100
AcDbEntity
  8
0
100
AcDbLine
 10
2.5928489565849304
 20
6.252462427745678
 30
0.0
 11
2.5928489565849304
 21
6.975999999999998
 31
0.0
  0
LINE
  5
5A
330
17
100
AcDbEntity
  8
0
100
AcDbLine
 10
2.5928489565849304
 20
7.8070297766749395
 30
0.0
 11
2.5928489565849304
 21
8.131007444168747
 31
0.0
  0
LINE
  5
5B
330
17
100
AcDbEntity
  8
0
100
AcDbLine
 10
2.5928489565849304
 20
8.131007444168747
 30
0.0
 11
2.5928489565849304
 21
8.775999999999998
 31
0.0
  0
LINE
  5
5C
330
17
100
AcDbEntity
  8
0
100
AcDbLine
 10
2.5928489565849304
 20
9.607000000000003
 30
0.0
 11
2.5928489565849304
 21
9.607760000000003
 31
0.0
  0
LINE
  5
5D
330
17
100
AcDbEntity
  8
0
100
AcDbLine
 10
2.5928489565849304
 20
9.607760000000003
 30
0.0
 11
2.5928489565849304
 21
9.967999999999995
 31
0.0
  0
LINE
  5
5E
330
17
100
AcDbEntity
  8
0
100
AcDbLine
 10
2.5928489565849304
 20
9.967999999999995
 30
0.0
 11
2.5928489565849304
 21
10.575999999999999
 31
0.0
  0
LINE
  5
5F
330
17
100
AcDbEntity
  8
0
100
AcDbLine
 10
2.5928489565849304
 20
11.406934664246826
 30
0.0
 11
2.5928489565849304
 21
11.859041742286761
 31
0.0
  0
LINE
  5
60
330
17
100
AcDbEntity
  8
0
100
AcDbLine
 10
2.5928489565849304
 20
11.859041742286761
 30
0.0
 11
2.5928489565849304
 21
12.375999999999998
 31
0.0
  0
LINE
  5
61
330
17
100
AcDbEntity
  8
0
100
AcDbLine
 10
2.5928489565849304
 20
13.207000000000003
 30
0.0
 11
2.5928489565849304
 21
13.207760000000002
 31
0.0
  0
LINE
  5
62
330
17
100
AcDbEntity
  8
0
100
AcDbLine
 10
2.5928489565849304
 20
13.207760000000002
 30
0.0
 11
2.5928489565849304
 21
13.567999999999994
 31
0.0
  0
LINE
  5
63
330
17
100
AcDbEntity
  8
0
100
AcDbLine
 10
2.5928489565849304
 20
13.567999999999994
 30
0.0
 11
2.5928489565849304
 21
14.175999999999998
 31
0.0
  0
LINE
  5
64
330
17
100
AcDbEntity
  8
0
100
AcDbLine
 10
5.09284895658493
 20
1.1916400000000045
 30
0.0
 11
5.09284895658493
 21
1.4889999999999983
 31
0.0
  0
LINE
  5
65
330
17
100
AcDbEntity
  8
0
100
AcDbLine
 10
5.09284895658493
 20
1.1916400000000045
 30
0.0
 11
5.09284895658493
 21
1.4889999999999983
 31
0.0
  0
LINE
  5
66
330
17
100
AcDbEntity
  8
0
100
AcDbLine
 10
5.09284895658493
 20
2.321000000000002
 30
0.0
 11
5.09284895658493
 21
2.929000000000006
 31
0.0
  0
LINE
  5
67
330
17
100
AcDbEntity
  8
0
100
AcDbLine
 10
5.09284895658493
 20
2.929000000000006
 30
0.0
 11
5.09284895658493
 21
3.2889999999999984
 31
0.0
  0
LINE
  5
68
330
17
100
AcDbEntity
  8
0
100
AcDbLine
 10
5.09284895658493
 20
4.121000000000002
 30
0.0
 11
5.09284895658493
 21
4.295800000000003
 31
0.0
  0
LINE
  5
69
330
17
100
AcDbEntity
  8
0
100
AcDbLine
 10
5.09284895658493
 20
4.295800000000003
 30
0.0
 11
5.09284895658493
 21
4.655799999999996
 31
0.0
  0
LINE
  5
6A
330
17
100
AcDbEntity
  8
0
100
AcDbLine
 10
5.09284895658493
 20
4.655799999999996
 30
0.0
 11
5.09284895658493
 21
5.088999999999999
 31
0.0
  0
LINE
  5
6B
330
17
100
AcDbEntity
  8
0
100
AcDbLine
 10
5.09284895658493
 20
5.9205308641975325
 30
0.0
 11
5.09284895658493
 21
6.011711990111241
 31
0.0
  0
LINE
  5
6C
330
17
100
AcDbEntity
  8
0
100
AcDbLine
 10
5.09284895658493
 20
6.011711990111241
 30
0.0
 11
5.09284895658493
 21
6.888999999999998
 31
0.0
  0
LINE
  5
6D
330
17
100
AcDbEntity
  8
0
100
AcDbLine
 10
5.09284895658493
 20
7.721000000000002
 30
0.0
 11
5.09284895658493
 21
7.956294117647072
 31
0.0
  0
LINE
  5
6E
330
17
100
AcDbEntity
  8
0
100
AcDbLine
 10
5.09284895658493
 20
7.956294117647072
 30
0.0
 11
5.09284895658493
 21
8.688987274655354
 31
0.0
  0
LINE
  5
6F
330
17
100
AcDbEntity
  8
0
100
AcDbLine
 10
5.09284895658493
 20
9.521000000000003
 30
0.0
 11
5.09284895658493
 21
10.129000000000005
 31
0.0
  0
LINE
  5
70
330
17
100
AcDbEntity
  8
0
100
AcDbLine
 10
5.09284895658493
 20
10.129000000000005
 30
0.0
 11
5.09284895658493
 21
10.488999999999997
 31
0.0
  0
LINE
  5
71
330
17
100
AcDbEntity
  8
0
100
AcDbLine
 10
5.09284895658493
 20
11.320740899357602
 30
0.0
 11
5.09284895658493
 21
11.726478439425062
 31
0.0
  0
LINE
  5
72
330
17
100
AcDbEntity
  8
0
100
AcDbLine
 10
5.09284895658493
 20
11.726478439425062
 30
0.0
 11
5.09284895658493
 21
12.288999999999998
 31
0.0
  0
LINE
  5
73
330
17
100
AcDbEntity
  8
0
100
AcDbLine
 10
5.09284895658493
 20
13.121000000000002
 30
0.0
 11
5.09284895658493
 21
13.729000000000006
 31
0.0
  0
LINE
  5
74
330
17
100
AcDbEntity
  8
0
100
AcDbLine
 10
5.09284895658493
 20
13.729000000000006
 30
0.0
 11
5.09284895658493
 21
14.088999999999999
 31
0.0
  0
LINE
  5
75
330
17
100
AcDbEntity
  8
0
100
AcDbLine
 10
7.59284895658493
 20
1.184520000000004
 30
0.0
 11
7.59284895658493
 21
1.4612399999999983
 31
0.0
  0
LINE
  5
76
330
17
100
AcDbEntity
  8
0
100
AcDbLine
 10
7.59284895658493
 20
1.184520000000004
 30
0.0
 11
7.59284895658493
 21
1.4612399999999983
 31
0.0
  0
LINE
  5
77
330
17
100
AcDbEntity
  8
0
100
AcDbLine
 10
7.59284895658493
 20
1.4612399999999983
 30
0.0
 11
7.59284895658493
 21
1.4619999999999984
 31
0.0
  0
LINE
  5
78
330
17
100
AcDbEntity
  8
0
100
AcDbLine
 10
7.59284895658493
 20
2.293000000000002
 30
0.0
 11
7.59284895658493
 21
2.9017600000000057
 31
0.0
  0
LINE
  5
79
330
17
100
AcDbEntity
  8
0
100
AcDbLine
 10
7.59284895658493
 20
2.9017600000000057
 30
0.0
 11
7.59284895658493
 21
3.2619999999999982
 31
0.0
  0
LINE
  5
7A
330
17
100
AcDbEntity
  8
0
100
AcDbLine
 10
7.59284895658493
 20
4.093000000000002
 30
0.0
 11
7.59284895658493
 21
4.453239999999995
 31
0.0
  0
LINE
  5
7B
330
17
100
AcDbEntity
  8
0
100
AcDbLine
 10
7.59284895658493
 20
4.453239999999995
 30
0.0
 11
7.59284895658493
 21
5.061999999999998
 31
0.0
  0
LINE
  5
7C
330
17
100
AcDbEntity
  8
0
100
AcDbLine
 10
7.59284895658493
 20
5.8922226233453685
 30
0.0
 11
7.59284895658493
 21
5.892542168674701
 31
0.0
  0
LINE
  5
7D
330
17
100
AcDbEntity
  8
0
100
AcDbLine
 10
7.59284895658493
 20
5.892542168674701
 30
0.0
 11
7.59284895658493
 21
6.0191325301204746
 31
0.0
  0
LINE
  5
7E
330
17
100
AcDbEntity
  8
0
100
AcDbLine
 10
7.59284895658493
 20
6.0191325301204746
 30
0.0
 11
7.59284895658493
 21
6.861999999999998
 31
0.0
  0
LINE
  5
7F
330
17
100
AcDbEntity
  8
0
100
AcDbLine
 10
7.59284895658493
 20
7.693000000000002
 30
0.0
 11
7.59284895658493
 21
8.301760000000005
 31
0.0
  0
LINE
  5
80
330
17
100
AcDbEntity
  8
0
100
AcDbLine
 10
7.59284895658493
 20
8.301760000000005
 30
0.0
 11
7.59284895658493
 21
8.661999999999997
 31
0.0
  0
LINE
  5
81
330
17
100
AcDbEntity
  8
0
100
AcDbLine
 10
7.59284895658493
 20
9.493000000000002
 30
0.0
 11
7.59284895658493
 21
9.853239999999994
 31
0.0
  0
LINE
  5
82
330
17
100
AcDbEntity
  8
0
100
AcDbLine
 10
7.59284895658493
 20
9.853239999999994
 30
0.0
 11
7.59284895658493
 21
10.461999999999998
 31
0.0
  0
LINE
  5
83
330
17
100
AcDbEntity
  8
0
100
AcDbLine
 10
7.59284895658493
 20
11.293000000000003
 30
0.0
 11
7.59284895658493
 21
11.901760000000007
 31
0.0
  0
LINE
  5
84
330
17
100
AcDbEntity
  8
0
100
AcDbLine
 10
7.59284895658493
 20
11.901760000000007
 30
0.0
 11
7.59284895658493
 21
12.261999999999999
 31
0.0
  0
LINE
  5
85
330
17
100
AcDbEntity
  8
0
100
AcDbLine
 10
7.59284895658493
 20
13.093000000000002
 30
0.0
 11
7.59284895658493
 21
13.701760000000005
 31
0.0
  0
LINE
  5
86
330
17
100
AcDbEntity
  8
0
100
AcDbLine
 10
7.59284895658493
 20
13.701760000000005
 30
0.0
 11
7.59284895658493
 21
14.061999999999998
 31
0.0
  0
LINE
  5
87
330
17
100
AcDbEntity
  8
0
100
AcDbLine
 10
10.09284895658493
 20
1.1731600000000044
 30
0.0
 11
10.09284895658493
 21
1.4649999999999983
 31
0.0
  0
LINE
  5
88
330
17
100
AcDbEntity
  8
0
100
AcDbLine
 10
10.09284895658493
 20
1.1731600000000044
 30
0.0
 11
10.09284895658493
 21
1.4649999999999983
 31
0.0
  0
LINE
  5
89
330
17
100
AcDbEntity
  8
0
100
AcDbLine
 10
10.09284895658493
 20
2.297000000000002
 30
0.0
 11
10.09284895658493
 21
2.905000000000006
 31
0.0
  0
LINE
  5
8A
330
17
100
AcDbEntity
  8
0
100
AcDbLine
 10
10.09284895658493
 20
2.905000000000006
 30
0.0
 11
10.09284895658493
 21
3.2649999999999983
 31
0.0
  0
LINE
  5
8B
330
17
100
AcDbEntity
  8
0
100
AcDbLine
 10
10.09284895658493
 20
4.097140567200989
 30
0.0
 11
10.09284895658493
 21
4.191468557336614
 31
0.0
  0
LINE
  5
8C
330
17
100
AcDbEntity
  8
0
100
AcDbLine
 10
10.09284895658493
 20
4.191468557336614
 30
0.0
 11
10.09284895658493
 21
5.064999999999998
 31
0.0
  0
LINE
  5
8D
330
17
100
AcDbEntity
  8
0
100
AcDbLine
 10
10.09284895658493
 20
5.897000000000002
 30
0.0
 11
10.09284895658493
 21
6.505000000000006
 31
0.0
  0
LINE
  5
8E
330
17
100
AcDbEntity
  8
0
100
AcDbLine
 10
10.09284895658493
 20
6.505000000000006
 30
0.0
 11
10.09284895658493
 21
6.864999999999998
 31
0.0
  0
LINE
  5
8F
330
17
100
AcDbEntity
  8
0
100
AcDbLine
 10
10.09284895658493
 20
7.696983263598328
 30
0.0
 11
10.09284895658493
 21
8.229200836820091
 31
0.0
  0
LINE
  5
90
330
17
100
AcDbEntity
  8
0
100
AcDbLine
 10
10.09284895658493
 20
8.229200836820091
 30
0.0
 11
10.09284895658493
 21
8.664999999999997
 31
0.0
  0
LINE
  5
91
330
17
100
AcDbEntity
  8
0
100
AcDbLine
 10
10.09284895658493
 20
9.497000000000002
 30
0.0
 11
10.09284895658493
 21
9.856999999999994
 31
0.0
  0
LINE
  5
92
330
17
100
AcDbEntity
  8
0
100
AcDbLine
 10
10.09284895658493
 20
9.856999999999994
 30
0.0
 11
10.09284895658493
 21
10.464999999999998
 31
0.0
  0
LINE
  5
93
330
17
100
AcDbEntity
  8
0
100
AcDbLine
 10
10.09284895658493
 20
11.297000000000002
 30
0.0
 11
10.09284895658493
 21
11.905000000000006
 31
0.0
  0
LINE
  5
94
330
17
100
AcDbEntity
  8
0
100
AcDbLine
 10
10.09284895658493
 20
11.905000000000006
 30
0.0
 11
10.09284895658493
 21
12.264999999999999
 31
0.0
  0
LINE
  5
95
330
17
100
AcDbEntity
  8
0
100
AcDbLine
 10
10.09284895658493
 20
13.097000000000003
 30
0.0
 11
10.09284895658493
 21
13.456999999999995
 31
0.0
  0
LINE
  5
96
330
17
100
AcDbEntity
  8
0
100
AcDbLine
 10
10.09284895658493
 20
13.456999999999995
 30
0.0
 11
10.09284895658493
 21
14.064999999999998
 31
0.0
  0
LINE
  5
97
330
17
100
AcDbEntity
  8
0
100
AcDbLine
 10
12.59284895658493
 20
1.1618000000000048
 30
0.0
 11
12.59284895658493
 21
1.4689872746553536
 31
0.0
  0
LINE
  5
98
330
17
100
AcDbEntity
  8
0
100
AcDbLine
 10
12.59284895658493
 20
1.1618000000000048
 30
0.0
 11
12.59284895658493
 21
1.4689872746553536
 31
0.0
  0
LINE
  5
99
330
17
100
AcDbEntity
  8
0
100
AcDbLine
 10
12.59284895658493
 20
2.301000000000002
 30
0.0
 11
12.59284895658493
 21
2.909000000000006
 31
0.0
  0
LINE
  5
9A
330
17
100
AcDbEntity
  8
0
100
AcDbLine
 10
12.59284895658493
 20
2.909000000000006
 30
0.0
 11
12.59284895658493
 21
3.2689999999999984
 31
0.0
  0
LINE
  5
9B
330
17
100
AcDbEntity
  8
0
100
AcDbLine
 10
12.59284895658493
 20
4.1008441558441575
 30
0.0
 11
12.59284895658493
 21
4.195000000000005
 31
0.0
  0
LINE
  5
9C
330
17
100
AcDbEntity
  8
0
100
AcDbLine
 10
12.59284895658493
 20
4.195000000000005
 30
0.0
 11
12.59284895658493
 21
4.650999999999995
 31
0.0
  0
LINE
  5
9D
330
17
100
AcDbEntity
  8
0
100
AcDbLine
 10
12.59284895658493
 20
4.650999999999995
 30
0.0
 11
12.59284895658493
 21
5.068999999999998
 31
0.0
  0
LINE
  5
9E
330
17
100
AcDbEntity
  8
0
100
AcDbLine
 10
12.59284895658493
 20
5.900309090909093
 30
0.0
 11
12.59284895658493
 21
5.900631067961167
 31
0.0
  0
LINE
  5
9F
330
17
100
AcDbEntity
  8
0
100
AcDbLine
 10
12.59284895658493
 20
5.900631067961167
 30
0.0
 11
12.59284895658493
 21
6.017135922330089
 31
0.0
  0
LINE
  5
A0
330
17
100
AcDbEntity
  8
0
100
AcDbLine
 10
12.59284895658493
 20
6.017135922330089
 30
0.0
 11
12.59284895658493
 21
6.868999999999998
 31
0.0
  0
LINE
  5
A1
330
17
100
AcDbEntity
  8
0
100
AcDbLine
 10
12.59284895658493
 20
7.70084505021521
 30
0.0
 11
12.59284895658493
 21
7.825711700844384
 31
0.0
  0
LINE
  5
A2
330
17
100
AcDbEntity
  8
0
100
AcDbLine
 10
12.59284895658493
 20
7.825711700844384
 30
0.0
 11
12.59284895658493
 21
8.668999999999999
 31
0.0
  0
LINE
  5
A3
330
17
100
AcDbEntity
  8
0
100
AcDbLine
 10
12.59284895658493
 20
9.501000000000003
 30
0.0
 11
12.59284895658493
 21
9.860999999999995
 31
0.0
  0
LINE
  5
A4
330
17
100
AcDbEntity
  8
0
100
AcDbLine
 10
12.59284895658493
 20
9.860999999999995
 30
0.0
 11
12.59284895658493
 21
10.468999999999998
 31
0.0
  0
LINE
  5
A5
330
17
100
AcDbEntity
  8
0
100
AcDbLine
 10
12.59284895658493
 20
11.301000000000002
 30
0.0
 11
12.59284895658493
 21
11.909000000000006
 31
0.0
  0
LINE
  5
A6
330
17
100
AcDbEntity
  8
0
100
AcDbLine
 10
12.59284895658493
 20
11.909000000000006
 30
0.0
 11
12.59284895658493
 21
12.268999999999998
 31
0.0
  0
LINE
  5
A7
330
17
100
AcDbEntity
  8
0
100
AcDbLine
 10
12.59284895658493
 20
13.101000000000003
 30
0.0
 11
12.59284895658493
 21
13.709000000000005
 31
0.0
  0
LINE
  5
A8
330
17
100
AcDbEntity
  8
0
100
AcDbLine
 10
12.59284895658493
 20
13.709000000000005
 30
0.0
 11
12.59284895658493
 21
14.068999999999997
 31
0.0
  0
LINE
  5
A9
330
17
100
AcDbEntity
  8
0
100
AcDbLine
 10
1.0160000000000018
 20
2.5922380685806274
 30
0.0
 11
1.0167600000000019
 21
2.5922380685806274
 31
0.0
  0
LINE
  5
AA
330
17
100
AcDbEntity
  8
0
100
AcDbLine
 10
1.0160000000000018
 20
2.5922380685806274
 30
0.0
 11
1.0167600000000019
 21
2.5922380685806274
 31
0.0
  0
LINE
  5
AB
330
17
100
AcDbEntity
  8
0
100
AcDbLine
 10
1.0167600000000019
 20
2.5922380685806274
 30
0.0
 11
1.376999999999994
 21
2.5922380685806274
 31
0.0
  0
LINE
  5
AC
330
17
100
AcDbEntity
  8
0
100
AcDbLine
 10
1.376999999999994
 20
2.5922380685806274
 30
0.0
 11
1.984999999999998
 21
2.5922380685806274
 31
0.0
  0
LINE
  5
AD
330
17
100
AcDbEntity
  8
0
100
AcDbLine
 10
2.8160000000000016
 20
2.5922380685806274
 30
0.0
 11
2.816760000000002
 21
2.5922380685806274
 31
0.0
  0
LINE
  5
AE
330
17
100
AcDbEntity
  8
0
100
AcDbLine
 10
2.816760000000002
 20
2.5922380685806274
 30
0.0
 11
3.1769999999999943
 21
2.5922380685806274
 31
0.0
  0
LINE
  5
AF
330
17
100
AcDbEntity
  8
0
100
AcDbLine
 10
3.1769999999999943
 20
2.5922380685806274
 30
0.0
 11
3.7849999999999984
 21
2.5922380685806274
 31
0.0
  0
LINE
  5
B0
330
17
100
AcDbEntity
  8
0
100
AcDbLine
 10
4.616000000000002
 20
2.5922380685806274
 30
0.0
 11
4.616760000000002
 21
2.5922380685806274
 31
0.0
  0
LINE
  5
B1
330
17
100
AcDbEntity
  8
0
100
AcDbLine
 10
4.616760000000002
 20
2.5922380685806274
 30
0.0
 11
4.976999999999994
 21
2.5922380685806274
 31
0.0
  0
LINE
  5
B2
330
17
100
AcDbEntity
  8
0
100
AcDbLine
 10
4.976999999999994
 20
2.5922380685806274
 30
0.0
 11
5.584999999999998
 21
2.5922380685806274
 31
0.0
  0
LINE
  5
B3
330
17
100
AcDbEntity
  8
0
100
AcDbLine
 10
6.415978456014364
 20
2.5922380685806274
 30
0.0
 11
6.4165475763016175
 21
2.5922380685806274
 31
0.0
  0
LINE
  5
B4
330
17
100
AcDbEntity
  8
0
100
AcDbLine
 10
6.4165475763016175
 20
2.5922380685806274
 30
0.0
 11
6.871843806104138
 21
2.5922380685806274
 31
0.0
  0
LINE
  5
B5
330
17
100
AcDbEntity
  8
0
100
AcDbLine
 10
6.871843806104138
 20
2.5922380685806274
 30
0.0
 11
7.384999999999998
 21
2.5922380685806274
 31
0.0
  0
LINE
  5
B6
330
17
100
AcDbEntity
  8
0
100
AcDbLine
 10
8.216000000000003
 20
2.5922380685806274
 30
0.0
 11
8.216760000000003
 21
2.5922380685806274
 31
0.0
  0
LINE
  5
B7
330
17
100
AcDbEntity
  8
0
100
AcDbLine
 10
8.216760000000003
 20
2.5922380685806274
 30
0.0
 11
8.576999999999995
 21
2.5922380685806274
 31
0.0
  0
LINE
  5
B8
330
17
100
AcDbEntity
  8
0
100
AcDbLine
 10
8.576999999999995
 20
2.5922380685806274
 30
0.0
 11
9.184999999999999
 21
2.5922380685806274
 31
0.0
  0
LINE
  5
B9
330
17
100
AcDbEntity
  8
0
100
AcDbLine
 10
10.016000000000002
 20
2.5922380685806274
 30
0.0
 11
10.016760000000003
 21
2.5922380685806274
 31
0.0
  0
LINE
  5
BA
330
17
100
AcDbEntity
  8
0
100
AcDbLine
 10
10.016760000000003
 20
2.5922380685806274
 30
0.0
 11
10.376999999999995
 21
2.5922380685806274
 31
0.0
  0
LINE
  5
BB
330
17
100
AcDbEntity
  8
0
100
AcDbLine
 10
10.376999999999995
 20
2.5922380685806274
 30
0.0
 11
10.984999999999998
 21
2.5922380685806274
 31
0.0
  0
LINE
  5
BC
330
17
100
AcDbEntity
  8
0
100
AcDbLine
 10
11.815652571428574
 20
2.5922380685806274
 30
0.0
 11
12.108245762711858
 21
2.5922380685806274
 31
0.0
  0
LINE
  5
BD
330
17
100
AcDbEntity
  8
0
100
AcDbLine
 10
12.108245762711858
 20
2.5922380685806274
 30
0.0
 11
12.784999999999998
 21
2.5922380685806274
 31
0.0
  0
LINE
  5
BE
330
17
100
AcDbEntity
  8
0
100
AcDbLine
 10
13.615928143712576
 20
2.5922380685806274
 30
0.0
 11
13.950119999999995
 21
2.5922380685806274
 31
0.0
  0
LINE
  5
BF
330
17
100
AcDbEntity
  8
0
100
AcDbLine
 10
1.0788441558441575
 20
5.092238068580627
 30
0.0
 11
1.2556883116883264
 21
5.092238068580627
 31
0.0
  0
LINE
  5
C0
330
17
100
AcDbEntity
  8
0
100
AcDbLine
 10
1.0788441558441575
 20
5.092238068580627
 30
0.0
 11
1.2556883116883264
 21
5.092238068580627
 31
0.0
  0
LINE
  5
C1
330
17
100
AcDbEntity
  8
0
100
AcDbLine
 10
1.2556883116883264
 20
5.092238068580627
 30
0.0
 11
2.0479999999999983
 21
5.092238068580627
 31
0.0
  0
LINE
  5
C2
330
17
100
AcDbEntity
  8
0
100
AcDbLine
 10
2.8787844311377264
 20
5.092238068580627
 30
0.0
 11
3.083293413173656
 21
5.092238068580627
 31
0.0
  0
LINE
  5
C3
330
17
100
AcDbEntity
  8
0
100
AcDbLine
 10
3.083293413173656
 20
5.092238068580627
 30
0.0
 11
3.4573599999999955
 21
5.092238068580627
 31
0.0
  0
LINE
  5
C4
330
17
100
AcDbEntity
  8
0
100
AcDbLine
 10
3.4573599999999955
 20
5.092238068580627
 30
0.0
 11
3.8479999999999985
 21
5.092238068580627
 31
0.0
  0
LINE
  5
C5
330
17
100
AcDbEntity
  8
0
100
AcDbLine
 10
4.679000000000002
 20
5.092238068580627
 30
0.0
 11
5.287760000000006
 21
5.092238068580627
 31
0.0
  0
LINE
  5
C6
330
17
100
AcDbEntity
  8
0
100
AcDbLine
 10
5.287760000000006
 20
5.092238068580627
 30
0.0
 11
5.647999999999998
 21
5.092238068580627
 31
0.0
  0
LINE
  5
C7
330
17
100
AcDbEntity
  8
0
100
AcDbLine
 10
6.478958188153312
 20
5.092238068580627
 30
0.0
 11
6.945045296167256
 21
5.092238068580627
 31
0.0
  0
LINE
  5
C8
330
17
100
AcDbEntity
  8
0
100
AcDbLine
 10
6.945045296167256
 20
5.092238068580627
 30
0.0
 11
7.447999999999999
 21
5.092238068580627
 31
0.0
  0
LINE
  5
C9
330
17
100
AcDbEntity
  8
0
100
AcDbLine
 10
8.278526682134572
 20
5.092238068580627
 30
0.0
 11
8.533060109289611
 21
5.092238068580627
 31
0.0
  0
LINE
  5
CA
330
17
100
AcDbEntity
  8
0
100
AcDbLine
 10
8.533060109289611
 20
5.092238068580627
 30
0.0
 11
9.247999999999998
 21
5.092238068580627
 31
0.0
  0
LINE
  5
CB
330
17
100
AcDbEntity
  8
0
100
AcDbLine
 10
10.079000000000002
 20
5.092238068580627
 30
0.0
 11
10.687760000000006
 21
5.092238068580627
 31
0.0
  0
LINE
  5
CC
330
17
100
AcDbEntity
  8
0
100
AcDbLine
 10
10.687760000000006
 20
5.092238068580627
 30
0.0
 11
11.047999999999998
 21
5.092238068580627
 31
0.0
  0
LINE
  5
CD
330
17
100
AcDbEntity
  8
0
100
AcDbLine
 10
11.879000000000003
 20
5.092238068580627
 30
0.0
 11
12.239239999999995
 21
5.092238068580627
 31
0.0
  0
LINE
  5
CE
330
17
100
AcDbEntity
  8
0
100
AcDbLine
 10
12.239239999999995
 20
5.092238068580627
 30
0.0
 11
12.847999999999999
 21
5.092238068580627
 31
0.0
  0
LINE
  5
CF
330
17
100
AcDbEntity
  8
0
100
AcDbLine
 10
13.679000000000002
 20
5.092238068580627
 30
0.0
 11
13.679760000000003
 21
5.092238068580627
 31
0.0
  0
LINE
  5
D0
330
17
100
AcDbEntity
  8
0
100
AcDbLine
 10
13.679760000000003
 20
5.092238068580627
 30
0.0
 11
13.976879999999996
 21
5.092238068580627
 31
0.0
  0
LINE
  5
D1
330
17
100
AcDbEntity
  8
0
100
AcDbLine
 10
1.1419322033898325
 20
7.592238068580627
 30
0.0
 11
1.399881355932217
 21
7.592238068580627
 31
0.0
  0
LINE
  5
D2
330
17
100
AcDbEntity
  8
0
100
AcDbLine
 10
1.1419322033898325
 20
7.592238068580627
 30
0.0
 11
1.399881355932217
 21
7.592238068580627
 31
0.0
  0
LINE
  5
D3
330
17
100
AcDbEntity
  8
0
100
AcDbLine
 10
1.399881355932217
 20
7.592238068580627
 30
0.0
 11
2.1109999999999984
 21
7.592238068580627
 31
0.0
  0
LINE
  5
D4
330
17
100
AcDbEntity
  8
0
100
AcDbLine
 10
2.9419183673469407
 20
7.592238068580627
 30
0.0
 11
2.9426462585034034
 21
7.592238068580627
 31
0.0
  0
LINE
  5
D5
330
17
100
AcDbEntity
  8
0
100
AcDbLine
 10
2.9426462585034034
 20
7.592238068580627
 30
0.0
 11
3.1049659863945607
 21
7.592238068580627
 31
0.0
  0
LINE
  5
D6
330
17
100
AcDbEntity
  8
0
100
AcDbLine
 10
3.1049659863945607
 20
7.592238068580627
 30
0.0
 11
3.4724799999999956
 21
7.592238068580627
 31
0.0
  0
LINE
  5
D7
330
17
100
AcDbEntity
  8
0
100
AcDbLine
 10
3.4724799999999956
 20
7.592238068580627
 30
0.0
 11
3.9109999999999983
 21
7.592238068580627
 31
0.0
  0
LINE
  5
D8
330
17
100
AcDbEntity
  8
0
100
AcDbLine
 10
4.742000000000003
 20
7.592238068580627
 30
0.0
 11
4.742760000000001
 21
7.592238068580627
 31
0.0
  0
LINE
  5
D9
330
17
100
AcDbEntity
  8
0
100
AcDbLine
 10
4.742760000000001
 20
7.592238068580627
 30
0.0
 11
5.102999999999994
 21
7.592238068580627
 31
0.0
  0
LINE
  5
DA
330
17
100
AcDbEntity
  8
0
100
AcDbLine
 10
5.102999999999994
 20
7.592238068580627
 30
0.0
 11
5.7109999999999985
 21
7.592238068580627
 31
0.0
  0
LINE
  5
DB
330
17
100
AcDbEntity
  8
0
100
AcDbLine
 10
6.5419748427672975
 20
7.592238068580627
 30
0.0
 11
6.9399559748427775
 21
7.592238068580627
 31
0.0
  0
LINE
  5
DC
330
17
100
AcDbEntity
  8
0
100
AcDbLine
 10
6.9399559748427775
 20
7.592238068580627
 30
0.0
 11
7.510999999999998
 21
7.592238068580627
 31
0.0
  0
LINE
  5
DD
330
17
100
AcDbEntity
  8
0
100
AcDbLine
 10
8.341894308943091
 20
7.592238068580627
 30
0.0
 11
8.530141542002296
 21
7.592238068580627
 31
0.0
  0
LINE
  5
DE
330
17
100
AcDbEntity
  8
0
100
AcDbLine
 10
8.530141542002296
 20
7.592238068580627
 30
0.0
 11
9.310999999999998
 21
7.592238068580627
 31
0.0
  0
LINE
  5
DF
330
17
100
AcDbEntity
  8
0
100
AcDbLine
 10
10.142000000000003
 20
7.592238068580627
 30
0.0
 11
10.142760000000003
 21
7.592238068580627
 31
0.0
  0
LINE
  5
E0
330
17
100
AcDbEntity
  8
0
100
AcDbLine
 10
10.142760000000003
 20
7.592238068580627
 30
0.0
 11
10.502999999999995
 21
7.592238068580627
 31
0.0
  0
LINE
  5
E1
330
17
100
AcDbEntity
  8
0
100
AcDbLine
 10
10.502999999999995
 20
7.592238068580627
 30
0.0
 11
11.110999999999999
 21
7.592238068580627
 31
0.0
  0
LINE
  5
E2
330
17
100
AcDbEntity
  8
0
100
AcDbLine
 10
11.942000000000002
 20
7.592238068580627
 30
0.0
 11
11.942760000000003
 21
7.592238068580627
 31
0.0
  0
LINE
  5
E3
330
17
100
AcDbEntity
  8
0
100
AcDbLine
 10
11.942760000000003
 20
7.592238068580627
 30
0.0
 11
12.302999999999995
 21
7.592238068580627
 31
0.0
  0
LINE
  5
E4
330
17
100
AcDbEntity
  8
0
100
AcDbLine
 10
12.302999999999995
 20
7.592238068580627
 30
0.0
 11
12.910999999999998
 21
7.592238068580627
 31
0.0
  0
LINE
  5
E5
330
17
100
AcDbEntity
  8
0
100
AcDbLine
 10
13.741887850467291
 20
7.592238068580627
 30
0.0
 11
14.018759999999995
 21
7.592238068580627
 31
0.0
  0
LINE
  5
E6
330
17
100
AcDbEntity
  8
0
100
AcDbLine
 10
1.0798441558441576
 20
10.092238068580627
 30
0.0
 11
1.2564675324675472
 21
10.092238068580627
 31
0.0
  0
LINE
  5
E7
330
17
100
AcDbEntity
  8
0
100
AcDbLine
 10
1.0798441558441576
 20
10.092238068580627
 30
0.0
 11
1.2564675324675472
 21
10.092238068580627
 31
0.0
  0
LINE
  5
E8
330
17
100
AcDbEntity
  8
0
100
AcDbLine
 10
1.2564675324675472
 20
10.092238068580627
 30
0.0
 11
2.0479999999999983
 21
10.092238068580627
 31
0.0
  0
LINE
  5
E9
330
17
100
AcDbEntity
  8
0
100
AcDbLine
 10
2.8798851674641166
 20
10.092238068580627
 30
0.0
 11
3.0837799043062235
 21
10.092238068580627
 31
0.0
  0
LINE
  5
EA
330
17
100
AcDbEntity
  8
0
100
AcDbLine
 10
3.0837799043062235
 20
10.092238068580627
 30
0.0
 11
3.4573599999999955
 21
10.092238068580627
 31
0.0
  0
LINE
  5
EB
330
17
100
AcDbEntity
  8
0
100
AcDbLine
 10
3.4573599999999955
 20
10.092238068580627
 30
0.0
 11
3.8479999999999985
 21
10.092238068580627
 31
0.0
  0
LINE
  5
EC
330
17
100
AcDbEntity
  8
0
100
AcDbLine
 10
4.6800000000000015
 20
10.092238068580627
 30
0.0
 11
5.039999999999994
 21
10.092238068580627
 31
0.0
  0
LINE
  5
ED
330
17
100
AcDbEntity
  8
0
100
AcDbLine
 10
5.039999999999994
 20
10.092238068580627
 30
0.0
 11
5.647999999999998
 21
10.092238068580627
 31
0.0
  0
LINE
  5
EE
330
17
100
AcDbEntity
  8
0
100
AcDbLine
 10
6.47981151832461
 20
10.092238068580627
 30
0.0
 11
6.944732984293203
 21
10.092238068580627
 31
0.0
  0
LINE
  5
EF
330
17
100
AcDbEntity
  8
0
100
AcDbLine
 10
6.944732984293203
 20
10.092238068580627
 30
0.0
 11
7.447999999999999
 21
10.092238068580627
 31
0.0
  0
LINE
  5
F0
330
17
100
AcDbEntity
  8
0
100
AcDbLine
 10
8.279818584070798
 20
10.092238068580627
 30
0.0
 11
8.722435754189954
 21
10.092238068580627
 31
0.0
  0
LINE
  5
F1
330
17
100
AcDbEntity
  8
0
100
AcDbLine
 10
8.722435754189954
 20
10.092238068580627
 30
0.0
 11
9.247999999999998
 21
10.092238068580627
 31
0.0
  0
LINE
  5
F2
330
17
100
AcDbEntity
  8
0
100
AcDbLine
 10
10.080000000000002
 20
10.092238068580627
 30
0.0
 11
10.688000000000006
 21
10.092238068580627
 31
0.0
  0
LINE
  5
F3
330
17
100
AcDbEntity
  8
0
100
AcDbLine
 10
10.688000000000006
 20
10.092238068580627
 30
0.0
 11
11.047999999999998
 21
10.092238068580627
 31
0.0
  0
LINE
  5
F4
330
17
100
AcDbEntity
  8
0
100
AcDbLine
 10
11.880000000000003
 20
10.092238068580627
 30
0.0
 11
12.239999999999995
 21
10.092238068580627
 31
0.0
  0
LINE
  5
F5
330
17
100
AcDbEntity
  8
0
100
AcDbLine
 10
12.239999999999995
 20
10.092238068580627
 30
0.0
 11
12.847999999999999
 21
10.092238068580627
 31
0.0
  0
LINE
  5
F6
330
17
100
AcDbEntity
  8
0
100
AcDbLine
 10
13.67981151832461
 20
10.092238068580627
 30
0.0
 11
13.970879999999996
 21
10.092238068580627
 31
0.0
  0
LINE
  5
F7
330
17
100
AcDbEntity
  8
0
100
AcDbLine
 10
1.0040000000000018
 20
12.592238068580627
 30
0.0
 11
1.363999999999994
 21
12.592238068580627
 31
0.0
  0
LINE
  5
F8
330
17
100
AcDbEntity
  8
0
100
AcDbLine
 10
1.0040000000000018
 20
12.592238068580627
 30
0.0
 11
1.363999999999994
 21
12.592238068580627
 31
0.0
  0
LINE
  5
F9
330
17
100
AcDbEntity
  8
0
100
AcDbLine
 10
1.363999999999994
 20
12.592238068580627
 30
0.0
 11
1.9719999999999982
 21
12.592238068580627
 31
0.0
  0
LINE
  5
FA
330
17
100
AcDbEntity
  8
0
100
AcDbLine
 10
2.8040000000000016
 20
12.592238068580627
 30
0.0
 11
3.412000000000006
 21
12.592238068580627
 31
0.0
  0
LINE
  5
FB
330
17
100
AcDbEntity
  8
0
100
AcDbLine
 10
3.412000000000006
 20
12.592238068580627
 30
0.0
 11
3.7719999999999985
 21
12.592238068580627
 31
0.0
  0
LINE
  5
FC
330
17
100
AcDbEntity
  8
0
100
AcDbLine
 10
4.604000000000002
 20
12.592238068580627
 30
0.0
 11
5.212000000000006
 21
12.592238068580627
 31
0.0
  0
LINE
  5
FD
330
17
100
AcDbEntity
  8
0
100
AcDbLine
 10
5.212000000000006
 20
12.592238068580627
 30
0.0
 11
5.571999999999998
 21
12.592238068580627
 31
0.0
  0
LINE
  5
FE
330
17
100
AcDbEntity
  8
0
100
AcDbLine
 10
6.403912408759126
 20
12.592238068580627
 30
0.0
 11
6.853547445255484
 21
12.592238068580627
 31
0.0
  0
LINE
  5
FF
330
17
100
AcDbEntity
  8
0
100
AcDbLine
 10
6.853547445255484
 20
12.592238068580627
 30
0.0
 11
7.371999999999998
 21
12.592238068580627
 31
0.0
  0
LINE
  5
100
330
17
100
AcDbEntity
  8
0
100
AcDbLine
 10
8.204000000000002
 20
12.592238068580627
 30
0.0
 11
8.563999999999995
 21
12.592238068580627
 31
0.0
  0
LINE
  5
101
330
17
100
AcDbEntity
  8
0
100
AcDbLine
 10
8.563999999999995
 20
12.592238068580627
 30
0.0
 11
9.171999999999999
 21
12.592238068580627
 31
0.0
  0
LINE
  5
102
330
17
100
AcDbEntity
  8
0
100
AcDbLine
 10
10.004000000000003
 20
12.592238068580627
 30
0.0
 11
10.363999999999995
 21
12.592238068580627
 31
0.0
  0
LINE
  5
103
330
17
100
AcDbEntity
  8
0
100
AcDbLine
 10
10.363999999999995
 20
12.592238068580627
 30
0.0
 11
10.971999999999998
 21
12.592238068580627
 31
0.0
  0
LINE
  5
104
330
17
100
AcDbEntity
  8
0
100
AcDbLine
 10
11.803912908242614
 20
12.592238068580627
 30
0.0
 11
12.336200836820092
 21
12.592238068580627
 31
0.0
  0
LINE
  5
105
330
17
100
AcDbEntity
  8
0
100
AcDbLine
 10
12.336200836820092
 20
12.592238068580627
 30
0.0
 11
12.771999999999998
 21
12.592238068580627
 31
0.0
  0
LINE
  5
106
330
17
100
AcDbEntity
  8
0
100
AcDbLine
 10
13.603884244372992
 20
12.592238068580627
 30
0.0
 11
13.913119999999996
 21
12.592238068580627
 31
0.0
  0
ENDSEC
  0
SECTION
  2
OBJECTS
  0
DICTIONARY
  5
A
330
0
100
AcDbDictionary
281
1
  3
ACAD_COLOR
350
B
  3
ACAD_GROUP
350
C
  3
ACAD_LAYOUT
350
D
  3
ACAD_MATERIAL
350
E
  3
ACAD_MLEADERSTYLE
350
F
  3
ACAD_MLINESTYLE
350
10
  3
ACAD_PLOTSETTINGS
350
11
  3
ACAD_PLOTSTYLENAME
350
12
  3
ACAD_SCALELIST
350
14
  3
ACAD_TABLESTYLE
350
15
  3
ACAD_VISUALSTYLE
350
16
  3
EZDXF_META
350
2D
  0
DICTIONARY
  5
B
330
A
100
AcDbDictionary
281
1
  0
DICTIONARY
  5
C
330
A
100
AcDbDictionary
281
1
  0
DICTIONARY
  5
D
330
A
100
AcDbDictionary
281
1
  3
Model
350
1A
  3
Layout1
350
1E
  0
DICTIONARY
  5
E
330
A
100
AcDbDictionary
281
1
  3
ByBlock
350
1F
  3
ByLayer
350
20
  3
Global
350
21
  0
DICTIONARY
  5
F
330
A
100
AcDbDictionary
281
1
  3
Standard
350
2C
  0
DICTIONARY
  5
10
330
A
100
AcDbDictionary
281
1
  3
Standard
350
22
  0
DICTIONARY
  5
11
330
A
100
AcDbDictionary
281
1
  0
ACDBDICTIONARYWDFLT
  5
12
330
A
100
AcDbDictionary
281
1
  3
Normal
350
13
100
AcDbDictionaryWithDefault
340
13
  0
ACDBPLACEHOLDER
  5
13
330
12
  0
DICTIONARY
  5
14
330
A
100
AcDbDictionary
281
1
  0
DICTIONARY
  5
15
330
A
100
AcDbDictionary
281
1
  0
DICTIONARY
  5
16
330
A
100
AcDbDictionary
281
1
  0
LAYOUT
  5
1A
330
D
100
AcDbPlotSettings
  1

  4
A3
  6

 40
7.5
 41
20.0
 42
7.5
 43
20.0
 44
420.0
 45
297.0
 46
0.0
 47
0.0
 48
0.0
 49
0.0
140
0.0
141
0.0
142
1.0
143
1.0
 70
1024
 72
1
 73
0
 74
5
  7

 75
16
 76
0
 77
2
 78
300
147
1.0
148
0.0
149
0.0
100
AcDbLayout
  1
Model
 70
1
 71
0
 10
0.0
 20
0.0
 11
420.0
 21
297.0
 12
0.0
 22
0.0
 32
0.0
 14
1e+20
 24
1e+20
 34
1e+20
 15
-1e+20
 25
-1e+20
 35
-1e+20
146
0.0
 13
0.0
 23
0.0
 33
0.0
 16
1.0
 26
0.0
 36
0.0
 17
0.0
 27
1.0
 37
0.0
 76
1
330
17
  0
LAYOUT
  5
1E
330
D
100
AcDbPlotSettings
  1

  4
A3
  6

 40
7.5
 41
20.0
 42
7.5
 43
20.0
 44
420.0
 45
297.0
 46
0.0
 47
0.0
 48
0.0
 49
0.0
140
0.0
141
0.0
142
1.0
143
1.0
 70
0
 72
1
 73
0
 74
5
  7

 75
16
 76
0
 77
2
 78
300
147
1.0
148
0.0
149
0.0
100
AcDbLayout
  1
Layout1
 70
1
 71
1
 10
0.0
 20
0.0
 11
420.0
 21
297.0
 12
0.0
 22
0.0
 32
0.0
 14
1e+20
 24
1e+20
 34
1e+20
 15
-1e+20
 25
-1e+20
 35
-1e+20
146
0.0
 13
0.0
 23
0.0
 33
0.0
 16
1.0
 26
0.0
 36
0.0
 17
0.0
 27
1.0
 37
0.0
 76
1
330
1B
  0
MATERIAL
  5
1F
102
{ACAD_REACTORS
330
E
102
}
330
E
100
AcDbMaterial
  1
ByBlock
  2

 70
0
 40
1.0
 71
1
 41
1.0
 91
-1023410177
 42
1.0
 72
1
  3

 73
1
 74
1
 75
1
 44
0.5
 73
0
 45
1.0
 46
1.0
 77
1
  4

 78
1
 79
1
170
1
 48
1.0
171
1
  6

172
1
173
1
174
1
140
1.0
141
1.0
175
1
  7

176
1
177
1
178
1
143
1.0
179
1
  8

270
1
271
1
272
1
145
1.0
146
1.0
273
1
  9

274
1
275
1
276
1
 42
1.0
 72
1
  3

 73
1
 74
1
 75
1
 94
63
  0
MATERIAL
  5
20
102
{ACAD_REACTORS
330
E
102
}
330
E
100
AcDbMaterial
  1
ByLayer
  2

 70
0
 40
1.0
 71
1
 41
1.0
 91
-1023410177
 42
1.0
 72
1
  3

 73
1
 74
1
 75
1
 44
0.5
 73
0
 45
1.0
 46
1.0
 77
1
  4

 78
1
 79
1
170
1
 48
1.0
171
1
  6

172
1
173
1
174
1
140
1.0
141
1.0
175
1
  7

176
1
177
1
178
1
143
1.0
179
1
  8

270
1
271
1
272
1
145
1.0
146
1.0
273
1
  9

274
1
275
1
276
1
 42
1.0
 72
1
  3

 73
1
 74
1
 75
1
 94
63
  0
MATERIAL
  5
21
102
{ACAD_REACTORS
330
E
102
}
330
E
100
AcDbMaterial
  1
Global
  2

 70
0
 40
1.0
 71
1
 41
1.0
 91
-1023410177
 42
1.0
 72
1
  3

 73
1
 74
1
 75
1
 44
0.5
 73
0
 45
1.0
 46
1.0
 77
1
  4

 78
1
 79
1
170
1
 48
1.0
171
1
  6

172
1
173
1
174
1
140
1.0
141
1.0
175
1
  7

176
1
177
1
178
1
143
1.0
179
1
  8

270
1
271
1
272
1
145
1.0
146
1.0
273
1
  9

274
1
275
1
276
1
 42
1.0
 72
1
  3

 73
1
 74
1
 75
1
 94
63
  0
MLINESTYLE
  5
22
102
{ACAD_REACTORS
330
10
102
}
330
10
100
AcDbMlineStyle
  2
Standard
 70
0
  3

 62
256
 51
90.0
 52
90.0
 71
2
 49
0.5
 62
256
  6
BYLAYER
 49
-0.5
 62
256
  6
BYLAYER
  0
MLEADERSTYLE
  5
2C
102
{ACAD_REACTORS
330
F
102
}
330
F
100
AcDbMLeaderStyle
179
2
170
2
171
1
172
0
 90
2
 40
0.0
 41
0.0
173
1
 91
-1056964608
 92
-2
290
1
 42
2.0
291
1
 43
8.0
  3
Standard
 44
4.0
300

342
29
174
1
175
1
176
0
178
1
 93
-1056964608
 45
4.0
292
0
297
0
 46
4.0
 94
-1056964608
 47
1.0
 49
1.0
140
1.0
294
1
141
0.0
177
0
142
1.0
295
0
296
0
143
3.75
271
0
272
9
273
9
  0
DICTIONARY
  5
2D
330
A
100
AcDbDictionary
280
1
281
1
  3
CREATED_BY_EZDXF
350
2E
  3
WRITTEN_BY_EZDXF
350
109
  0
DICTIONARYVAR
  5
2E
330
2D
100
DictionaryVariables
280
0
  1
1.4.2 @ 2025-07-30T18:01:58.701713+00:00
  0
DICTIONARYVAR
  5
109
330
2D
100
DictionaryVariables
280
0
  1
1.4.2 @ 2025-07-30T18:01:58.717338+00:00
  0
ENDSEC
  0
EOF
