  0
SECTION
  2
HEADER
  9
$ACADVER
  1
AC1024
  9
$ACADMAINTVER
 70
6
  9
$DWGCODEPAGE
  3
ANSI_1252
  9
$LASTSAVEDBY
  1
ezdxf
  9
$INSBASE
 10
0.0
 20
0.0
 30
0.0
  9
$EXTMIN
 10
1e+20
 20
1e+20
 30
1e+20
  9
$EXTMAX
 10
-1e+20
 20
-1e+20
 30
-1e+20
  9
$LIMMIN
 10
0.0
 20
0.0
  9
$LIMMAX
 10
420.0
 20
297.0
  9
$ORTHOMODE
 70
0
  9
$REGENMODE
 70
1
  9
$FILLMODE
 70
1
  9
$QTEXTMODE
 70
0
  9
$MIRRTEXT
 70
1
  9
$LTSCALE
 40
1.0
  9
$ATTMODE
 70
1
  9
$TEXTSIZE
 40
2.5
  9
$TRACEWID
 40
1.0
  9
$TEXTSTYLE
  7
Standard
  9
$CLAYER
  8
0
  9
$CELTYPE
  6
ByLayer
  9
$CECOLOR
 62
256
  9
$CELTSCALE
 40
1.0
  9
$DISPSILH
 70
0
  9
$DIMSCALE
 40
1.0
  9
$DIMASZ
 40
2.5
  9
$DIMEXO
 40
0.625
  9
$DIMDLI
 40
3.75
  9
$DIMRND
 40
0.0
  9
$DIMDLE
 40
0.0
  9
$DIMEXE
 40
1.25
  9
$DIMTP
 40
0.0
  9
$DIMTM
 40
0.0
  9
$DIMTXT
 40
2.5
  9
$DIMCEN
 40
2.5
  9
$DIMTSZ
 40
0.0
  9
$DIMTOL
 70
0
  9
$DIMLIM
 70
0
  9
$DIMTIH
 70
0
  9
$DIMTOH
 70
0
  9
$DIMSE1
 70
0
  9
$DIMSE2
 70
0
  9
$DIMTAD
 70
1
  9
$DIMZIN
 70
8
  9
$DIMBLK
  1

  9
$DIMASO
 70
1
  9
$DIMSHO
 70
1
  9
$DIMPOST
  1

  9
$DIMAPOST
  1

  9
$DIMALT
 70
0
  9
$DIMALTD
 70
3
  9
$DIMALTF
 40
0.03937007874
  9
$DIMLFAC
 40
1.0
  9
$DIMTOFL
 70
1
  9
$DIMTVP
 40
0.0
  9
$DIMTIX
 70
0
  9
$DIMSOXD
 70
0
  9
$DIMSAH
 70
0
  9
$DIMBLK1
  1

  9
$DIMBLK2
  1

  9
$DIMSTYLE
  2
ISO-25
  9
$DIMCLRD
 70
0
  9
$DIMCLRE
 70
0
  9
$DIMCLRT
 70
0
  9
$DIMTFAC
 40
1.0
  9
$DIMGAP
 40
0.625
  9
$DIMJUST
 70
0
  9
$DIMSD1
 70
0
  9
$DIMSD2
 70
0
  9
$DIMTOLJ
 70
0
  9
$DIMTZIN
 70
8
  9
$DIMALTZ
 70
0
  9
$DIMALTTZ
 70
0
  9
$DIMUPT
 70
0
  9
$DIMDEC
 70
2
  9
$DIMTDEC
 70
2
  9
$DIMALTU
 70
2
  9
$DIMALTTD
 70
3
  9
$DIMTXSTY
  7
Standard
  9
$DIMAUNIT
 70
0
  9
$DIMADEC
 70
0
  9
$DIMALTRND
 40
0.0
  9
$DIMAZIN
 70
0
  9
$DIMDSEP
 70
44
  9
$DIMATFIT
 70
3
  9
$DIMFRAC
 70
0
  9
$DIMLDRBLK
  1

  9
$DIMLUNIT
 70
2
  9
$DIMLWD
 70
-2
  9
$DIMLWE
 70
-2
  9
$DIMTMOVE
 70
0
  9
$DIMFXL
 40
1.0
  9
$DIMFXLON
 70
0
  9
$DIMJOGANG
 40
0.785398163397
  9
$DIMTFILL
 70
0
  9
$DIMTFILLCLR
 70
0
  9
$DIMARCSYM
 70
0
  9
$DIMLTYPE
  6

  9
$DIMLTEX1
  6

  9
$DIMLTEX2
  6

  9
$DIMTXTDIRECTION
 70
0
  9
$LUNITS
 70
2
  9
$LUPREC
 70
4
  9
$SKETCHINC
 40
1.0
  9
$FILLETRAD
 40
10.0
  9
$AUNITS
 70
0
  9
$AUPREC
 70
2
  9
$MENU
  1
.
  9
$ELEVATION
 40
0.0
  9
$PELEVATION
 40
0.0
  9
$THICKNESS
 40
0.0
  9
$LIMCHECK
 70
0
  9
$CHAMFERA
 40
0.0
  9
$CHAMFERB
 40
0.0
  9
$CHAMFERC
 40
0.0
  9
$CHAMFERD
 40
0.0
  9
$SKPOLY
 70
0
  9
$TDCREATE
 40
2460887.6254166667
  9
$TDUCREATE
 40
2458532.153996898
  9
$TDUPDATE
 40
2460887.6254166667
  9
$TDUUPDATE
 40
2458532.1544311
  9
$TDINDWG
 40
0.0
  9
$TDUSRTIMER
 40
0.0
  9
$USRTIMER
 70
1
  9
$ANGBASE
 50
0.0
  9
$ANGDIR
 70
0
  9
$PDMODE
 70
0
  9
$PDSIZE
 40
0.0
  9
$PLINEWID
 40
0.0
  9
$SPLFRAME
 70
0
  9
$SPLINETYPE
 70
6
  9
$SPLINESEGS
 70
8
  9
$HANDSEED
  5
F6
  9
$SURFTAB1
 70
6
  9
$SURFTAB2
 70
6
  9
$SURFTYPE
 70
6
  9
$SURFU
 70
6
  9
$SURFV
 70
6
  9
$UCSBASE
  2

  9
$UCSNAME
  2

  9
$UCSORG
 10
0.0
 20
0.0
 30
0.0
  9
$UCSXDIR
 10
1.0
 20
0.0
 30
0.0
  9
$UCSYDIR
 10
0.0
 20
1.0
 30
0.0
  9
$UCSORTHOREF
  2

  9
$UCSORTHOVIEW
 70
0
  9
$UCSORGTOP
 10
0.0
 20
0.0
 30
0.0
  9
$UCSORGBOTTOM
 10
0.0
 20
0.0
 30
0.0
  9
$UCSORGLEFT
 10
0.0
 20
0.0
 30
0.0
  9
$UCSORGRIGHT
 10
0.0
 20
0.0
 30
0.0
  9
$UCSORGFRONT
 10
0.0
 20
0.0
 30
0.0
  9
$UCSORGBACK
 10
0.0
 20
0.0
 30
0.0
  9
$PUCSBASE
  2

  9
$PUCSNAME
  2

  9
$PUCSORG
 10
0.0
 20
0.0
 30
0.0
  9
$PUCSXDIR
 10
1.0
 20
0.0
 30
0.0
  9
$PUCSYDIR
 10
0.0
 20
1.0
 30
0.0
  9
$PUCSORTHOREF
  2

  9
$PUCSORTHOVIEW
 70
0
  9
$PUCSORGTOP
 10
0.0
 20
0.0
 30
0.0
  9
$PUCSORGBOTTOM
 10
0.0
 20
0.0
 30
0.0
  9
$PUCSORGLEFT
 10
0.0
 20
0.0
 30
0.0
  9
$PUCSORGRIGHT
 10
0.0
 20
0.0
 30
0.0
  9
$PUCSORGFRONT
 10
0.0
 20
0.0
 30
0.0
  9
$PUCSORGBACK
 10
0.0
 20
0.0
 30
0.0
  9
$USERI1
 70
0
  9
$USERI2
 70
0
  9
$USERI3
 70
0
  9
$USERI4
 70
0
  9
$USERI5
 70
0
  9
$USERR1
 40
0.0
  9
$USERR2
 40
0.0
  9
$USERR3
 40
0.0
  9
$USERR4
 40
0.0
  9
$USERR5
 40
0.0
  9
$WORLDVIEW
 70
1
  9
$SHADEDGE
 70
3
  9
$SHADEDIF
 70
70
  9
$TILEMODE
 70
1
  9
$MAXACTVP
 70
64
  9
$PINSBASE
 10
0.0
 20
0.0
 30
0.0
  9
$PLIMCHECK
 70
0
  9
$PEXTMIN
 10
1e+20
 20
1e+20
 30
1e+20
  9
$PEXTMAX
 10
-1e+20
 20
-1e+20
 30
-1e+20
  9
$PLIMMIN
 10
0.0
 20
0.0
  9
$PLIMMAX
 10
420.0
 20
297.0
  9
$UNITMODE
 70
0
  9
$VISRETAIN
 70
1
  9
$PLINEGEN
 70
0
  9
$PSLTSCALE
 70
1
  9
$TREEDEPTH
 70
3020
  9
$CMLSTYLE
  2
Standard
  9
$CMLJUST
 70
0
  9
$CMLSCALE
 40
20.0
  9
$PROXYGRAPHICS
 70
1
  9
$MEASUREMENT
 70
1
  9
$CELWEIGHT
370
-1
  9
$ENDCAPS
280
0
  9
$JOINSTYLE
280
0
  9
$LWDISPLAY
290
0
  9
$INSUNITS
 70
6
  9
$HYPERLINKBASE
  1

  9
$STYLESHEET
  1

  9
$XEDIT
290
1
  9
$CEPSNTYPE
380
0
  9
$PSTYLEMODE
290
1
  9
$FINGERPRINTGUID
  2
{0D0AFA23-DBB0-44A1-A239-95DB3EDAB1A0}
  9
$VERSIONGUID
  2
{4C0B10E3-E51B-4FD7-88A3-41960481F581}
  9
$EXTNAMES
290
1
  9
$PSVPSCALE
 40
0.0
  9
$OLESTARTUP
290
0
  9
$SORTENTS
280
127
  9
$INDEXCTL
280
0
  9
$HIDETEXT
280
1
  9
$XCLIPFRAME
280
1
  9
$HALOGAP
280
0
  9
$OBSCOLOR
 70
257
  9
$OBSLTYPE
280
0
  9
$INTERSECTIONDISPLAY
280
0
  9
$INTERSECTIONCOLOR
 70
257
  9
$DIMASSOC
280
2
  9
$PROJECTNAME
  1

  9
$CAMERADISPLAY
290
0
  9
$LENSLENGTH
 40
50.0
  9
$CAMERAHEIGHT
 40
0.0
  9
$STEPSPERSEC
 40
24.0
  9
$STEPSIZE
 40
100.0
  9
$3DDWFPREC
 40
2.0
  9
$PSOLWIDTH
 40
0.005
  9
$PSOLHEIGHT
 40
0.08
  9
$LOFTANG1
 40
1.570796326795
  9
$LOFTANG2
 40
1.570796326795
  9
$LOFTMAG1
 40
0.0
  9
$LOFTMAG2
 40
0.0
  9
$LOFTPARAM
 70
7
  9
$LOFTNORMALS
280
1
  9
$LATITUDE
 40
37.795
  9
$LONGITUDE
 40
-122.394
  9
$NORTHDIRECTION
 40
0.0
  9
$TIMEZONE
 70
-8000
  9
$LIGHTGLYPHDISPLAY
280
1
  9
$TILEMODELIGHTSYNCH
280
1
  9
$CMATERIAL
347
20
  9
$SOLIDHIST
280
0
  9
$SHOWHIST
280
1
  9
$DWFFRAME
280
2
  9
$DGNFRAME
280
2
  9
$REALWORLDSCALE
290
1
  9
$INTERFERECOLOR
 62
256
  9
$CSHADOW
280
0
  9
$SHADOWPLANELOCATION
 40
0.0
  0
ENDSEC
  0
SECTION
  2
CLASSES
  0
CLASS
  1
ACDBDICTIONARYWDFLT
  2
AcDbDictionaryWithDefault
  3
ObjectDBX Classes
 90
0
 91
0
280
0
281
0
  0
CLASS
  1
SUN
  2
AcDbSun
  3
SCENEOE
 90
1153
 91
0
280
0
281
0
  0
CLASS
  1
VISUALSTYLE
  2
AcDbVisualStyle
  3
ObjectDBX Classes
 90
4095
 91
0
280
0
281
0
  0
CLASS
  1
MATERIAL
  2
AcDbMaterial
  3
ObjectDBX Classes
 90
1153
 91
0
280
0
281
0
  0
CLASS
  1
SCALE
  2
AcDbScale
  3
ObjectDBX Classes
 90
1153
 91
0
280
0
281
0
  0
CLASS
  1
TABLESTYLE
  2
AcDbTableStyle
  3
ObjectDBX Classes
 90
4095
 91
0
280
0
281
0
  0
CLASS
  1
MLEADERSTYLE
  2
AcDbMLeaderStyle
  3
ACDB_MLEADERSTYLE_CLASS
 90
4095
 91
0
280
0
281
0
  0
CLASS
  1
DICTIONARYVAR
  2
AcDbDictionaryVar
  3
ObjectDBX Classes
 90
0
 91
0
280
0
281
0
  0
CLASS
  1
CELLSTYLEMAP
  2
AcDbCellStyleMap
  3
ObjectDBX Classes
 90
1152
 91
0
280
0
281
0
  0
CLASS
  1
MENTALRAYRENDERSETTINGS
  2
AcDbMentalRayRenderSettings
  3
SCENEOE
 90
1024
 91
0
280
0
281
0
  0
CLASS
  1
ACDBDETAILVIEWSTYLE
  2
AcDbDetailViewStyle
  3
ObjectDBX Classes
 90
1025
 91
0
280
0
281
0
  0
CLASS
  1
ACDBSECTIONVIEWSTYLE
  2
AcDbSectionViewStyle
  3
ObjectDBX Classes
 90
1025
 91
0
280
0
281
0
  0
CLASS
  1
RASTERVARIABLES
  2
AcDbRasterVariables
  3
ISM
 90
0
 91
0
280
0
281
0
  0
CLASS
  1
LAYOUT
  2
AcDbLayout
  3
ObjectDBX Classes
 90
0
 91
0
280
0
281
0
  0
CLASS
  1
ACDBPLACEHOLDER
  2
AcDbPlaceHolder
  3
ObjectDBX Classes
 90
0
 91
0
280
0
281
0
  0
ENDSEC
  0
SECTION
  2
TABLES
  0
TABLE
  2
VPORT
  5
8
330
0
100
AcDbSymbolTable
 70
1
  0
VPORT
  5
23
330
8
100
AcDbSymbolTableRecord
100
AcDbViewportTableRecord
  2
*Active
 70
0
 10
0.0
 20
0.0
 11
1.0
 21
1.0
 12
0.0
 22
0.0
 13
0.0
 23
0.0
 14
0.5
 24
0.5
 15
0.5
 25
0.5
 16
0.0
 26
0.0
 36
1.0
 17
0.0
 27
0.0
 37
0.0
 40
1000.0
 41
1.34
 42
50.0
 43
0.0
 44
0.0
 50
0.0
 51
0.0
 71
0
 72
1000
 73
1
 74
3
 75
0
 76
0
 77
0
 78
0
281
0
 65
0
146
0.0
  0
ENDTAB
  0
TABLE
  2
LTYPE
  5
2
330
0
100
AcDbSymbolTable
 70
3
  0
LTYPE
  5
24
330
2
100
AcDbSymbolTableRecord
100
AcDbLinetypeTableRecord
  2
ByBlock
 70
0
  3

 72
65
 73
0
 40
0.0
  0
LTYPE
  5
25
330
2
100
AcDbSymbolTableRecord
100
AcDbLinetypeTableRecord
  2
ByLayer
 70
0
  3

 72
65
 73
0
 40
0.0
  0
LTYPE
  5
26
330
2
100
AcDbSymbolTableRecord
100
AcDbLinetypeTableRecord
  2
Continuous
 70
0
  3

 72
65
 73
0
 40
0.0
  0
ENDTAB
  0
TABLE
  2
LAYER
  5
1
330
0
100
AcDbSymbolTable
 70
2
  0
LAYER
  5
27
330
1
100
AcDbSymbolTableRecord
100
AcDbLayerTableRecord
  2
0
 70
0
 62
7
  6
Continuous
370
-3
390
13
347
21
  0
LAYER
  5
28
330
1
100
AcDbSymbolTableRecord
100
AcDbLayerTableRecord
  2
Defpoints
 70
0
 62
7
  6
Continuous
290
0
370
-3
390
13
347
21
  0
ENDTAB
  0
TABLE
  2
STYLE
  5
5
330
0
100
AcDbSymbolTable
 70
1
  0
STYLE
  5
29
330
5
100
AcDbSymbolTableRecord
100
AcDbTextStyleTableRecord
  2
Standard
 70
0
 40
0.0
 41
1.0
 50
0.0
 71
0
 42
2.5
  3
txt
  4

  0
ENDTAB
  0
TABLE
  2
VIEW
  5
7
330
0
100
AcDbSymbolTable
 70
0
  0
ENDTAB
  0
TABLE
  2
UCS
  5
6
330
0
100
AcDbSymbolTable
 70
0
  0
ENDTAB
  0
TABLE
  2
APPID
  5
3
330
0
100
AcDbSymbolTable
 70
3
  0
APPID
  5
2A
330
3
100
AcDbSymbolTableRecord
100
AcDbRegAppTableRecord
  2
ACAD
 70
0
  0
APPID
  5
F3
330
3
100
AcDbSymbolTableRecord
100
AcDbRegAppTableRecord
  2
HATCHBACKGROUNDCOLOR
 70
0
  0
APPID
  5
F4
330
3
100
AcDbSymbolTableRecord
100
AcDbRegAppTableRecord
  2
EZDXF
 70
0
  0
ENDTAB
  0
TABLE
  2
DIMSTYLE
  5
4
330
0
100
AcDbSymbolTable
 70
1
100
AcDbDimStyleTable
  0
DIMSTYLE
105
2B
330
4
100
AcDbSymbolTableRecord
100
AcDbDimStyleTableRecord
  2
Standard
 70
0
 40
1.0
 41
2.5
 42
0.625
 43
3.75
 44
1.25
 45
0.0
 46
0.0
 47
0.0
 48
0.0
 49
2.5
140
2.5
141
2.5
142
0.0
143
0.03937007874
144
1.0
145
0.0
146
1.0
147
0.625
148
0.0
 69
0
 70
0
 71
0
 72
0
 73
0
 74
0
 75
0
 76
0
 77
1
 78
8
 79
3
170
0
171
3
172
1
173
0
174
0
175
0
176
0
177
0
178
0
179
2
271
2
272
2
273
2
274
3
275
0
276
0
277
2
278
44
279
0
280
0
281
0
282
0
283
0
284
8
285
0
286
0
288
0
289
3
290
0
371
-2
372
-2
  0
ENDTAB
  0
TABLE
  2
BLOCK_RECORD
  5
9
330
0
100
AcDbSymbolTable
 70
2
  0
BLOCK_RECORD
  5
17
330
9
100
AcDbSymbolTableRecord
100
AcDbBlockTableRecord
  2
*Model_Space
340
1A
 70
0
280
1
281
0
  0
BLOCK_RECORD
  5
1B
330
9
100
AcDbSymbolTableRecord
100
AcDbBlockTableRecord
  2
*Paper_Space
340
1E
 70
0
280
1
281
0
  0
ENDTAB
  0
ENDSEC
  0
SECTION
  2
BLOCKS
  0
BLOCK
  5
18
330
17
100
AcDbEntity
  8
0
100
AcDbBlockBegin
  2
*Model_Space
 70
0
 10
0.0
 20
0.0
 30
0.0
  3
*Model_Space
  1

  0
ENDBLK
  5
19
330
17
100
AcDbEntity
  8
0
100
AcDbBlockEnd
  0
BLOCK
  5
1C
330
1B
100
AcDbEntity
  8
0
100
AcDbBlockBegin
  2
*Paper_Space
 70
0
 10
0.0
 20
0.0
 30
0.0
  3
*Paper_Space
  1

  0
ENDBLK
  5
1D
330
1B
100
AcDbEntity
  8
0
100
AcDbBlockEnd
  0
ENDSEC
  0
SECTION
  2
ENTITIES
  0
LWPOLYLINE
  5
2F
330
17
100
AcDbEntity
  8
0
100
AcDbPolyline
 90
19
 70
1
 10
2.4509326640501445
 20
0.432596801230865
 10
7.354282523652757
 20
0.5803178219710856
 10
13.0255630017429
 20
0.44570032783436847
 10
13.88220112185218
 20
0.57362529366811
 10
14.334959831570915
 20
0.8130247370856666
 10
14.620123623933166
 20
1.3011846518892543
 10
14.747380616831583
 20
2.305584464869576
 10
14.62186923478819
 20
14.637641343166486
 10
2.225526529054377
 20
14.753468639062433
 10
1.3336632801685537
 20
14.63620693371162
 10
0.7560640314206193
 20
14.250959430076023
 10
0.5439399158395432
 20
13.78432746211577
 10
0.43588734544849894
 20
12.65281577188427
 10
0.5822161433984305
 20
7.816961126579864
 10
0.4553784763906868
 20
2.098687755713112
 10
0.5647440596586204
 20
1.334337708229763
 10
0.80679851770401
 20
0.8573096394538879
 10
1.4113569327302404
 20
0.5414632460856051
 10
2.4509326640501445
 20
0.432596801230865
  0
LWPOLYLINE
  5
30
330
17
100
AcDbEntity
  8
0
100
AcDbPolyline
 90
19
 70
1
 10
2.4509326640501445
 20
0.432596801230865
 10
7.354282523652757
 20
0.5803178219710856
 10
13.0255630017429
 20
0.44570032783436847
 10
13.88220112185218
 20
0.57362529366811
 10
14.334959831570915
 20
0.8130247370856666
 10
14.620123623933166
 20
1.3011846518892543
 10
14.747380616831583
 20
2.305584464869576
 10
14.62186923478819
 20
14.637641343166486
 10
2.225526529054377
 20
14.753468639062433
 10
1.3336632801685537
 20
14.63620693371162
 10
0.7560640314206193
 20
14.250959430076023
 10
0.5439399158395432
 20
13.78432746211577
 10
0.43588734544849894
 20
12.65281577188427
 10
0.5822161433984305
 20
7.816961126579864
 10
0.4553784763906868
 20
2.098687755713112
 10
0.5647440596586204
 20
1.334337708229763
 10
0.80679851770401
 20
0.8573096394538879
 10
1.4113569327302404
 20
0.5414632460856051
 10
2.4509326640501445
 20
0.432596801230865
  0
LWPOLYLINE
  5
31
330
17
100
AcDbEntity
  8
0
100
AcDbPolyline
 90
2
 70
1
 10
0.4650384254110035
 20
3.1680857467032935
 10
0.4650384254110035
 20
3.1680857467032935
  0
LWPOLYLINE
  5
32
330
17
100
AcDbEntity
  8
0
100
AcDbPolyline
 90
2
 70
1
 10
0.46510150603264766
 20
3.170588389304173
 10
0.46510150603264766
 20
3.170588389304173
  0
LINE
  5
33
330
17
100
AcDbEntity
  8
0
100
AcDbLine
 10
2.5928489565849304
 20
0.8033733333333328
 30
0.0
 11
2.5928489565849304
 21
1.9233733333333356
 31
0.0
  0
LINE
  5
34
330
17
100
AcDbEntity
  8
0
100
AcDbLine
 10
2.5928489565849304
 20
0.8033733333333328
 30
0.0
 11
2.5928489565849304
 21
1.9233733333333356
 31
0.0
  0
LINE
  5
35
330
17
100
AcDbEntity
  8
0
100
AcDbLine
 10
2.5928489565849304
 20
1.9233733333333356
 30
0.0
 11
2.5928489565849304
 21
2.1705000000000005
 31
0.0
  0
LINE
  5
36
330
17
100
AcDbEntity
  8
0
100
AcDbLine
 10
2.5928489565849304
 20
2.6031990950226236
 30
0.0
 11
2.5928489565849304
 21
2.829328431372559
 31
0.0
  0
LINE
  5
37
330
17
100
AcDbEntity
  8
0
100
AcDbLine
 10
2.5928489565849304
 20
2.829328431372559
 30
0.0
 11
2.5928489565849304
 21
3.728433004231314
 31
0.0
  0
LINE
  5
38
330
17
100
AcDbEntity
  8
0
100
AcDbLine
 10
2.5928489565849304
 20
3.728433004231314
 30
0.0
 11
2.5928489565849304
 21
3.9704587995930827
 31
0.0
  0
LINE
  5
39
330
17
100
AcDbEntity
  8
0
100
AcDbLine
 10
2.5928489565849304
 20
4.403499999999999
 30
0.0
 11
2.5928489565849304
 21
5.618500000000002
 31
0.0
  0
LINE
  5
3A
330
17
100
AcDbEntity
  8
0
100
AcDbLine
 10
2.5928489565849304
 20
5.618500000000002
 30
0.0
 11
2.5928489565849304
 21
5.7705
 31
0.0
  0
LINE
  5
3B
330
17
100
AcDbEntity
  8
0
100
AcDbLine
 10
2.5928489565849304
 20
6.203123348017621
 30
0.0
 11
2.5928489565849304
 21
7.0753700440528675
 31
0.0
  0
LINE
  5
3C
330
17
100
AcDbEntity
  8
0
100
AcDbLine
 10
2.5928489565849304
 20
7.0753700440528675
 30
0.0
 11
2.5928489565849304
 21
7.570500000000001
 31
0.0
  0
LINE
  5
3D
330
17
100
AcDbEntity
  8
0
100
AcDbLine
 10
2.5928489565849304
 20
8.003460905349794
 30
0.0
 11
2.5928489565849304
 21
8.003529351184346
 31
0.0
  0
LINE
  5
3E
330
17
100
AcDbEntity
  8
0
100
AcDbLine
 10
2.5928489565849304
 20
8.003529351184346
 30
0.0
 11
2.5928489565849304
 21
8.253837146702555
 31
0.0
  0
LINE
  5
3F
330
17
100
AcDbEntity
  8
0
100
AcDbLine
 10
2.5928489565849304
 20
8.253837146702555
 30
0.0
 11
2.5928489565849304
 21
8.877600706713775
 31
0.0
  0
LINE
  5
40
330
17
100
AcDbEntity
  8
0
100
AcDbLine
 10
2.5928489565849304
 20
8.877600706713775
 30
0.0
 11
2.5928489565849304
 21
9.370476190476191
 31
0.0
  0
LINE
  5
41
330
17
100
AcDbEntity
  8
0
100
AcDbLine
 10
2.5928489565849304
 20
9.8035
 30
0.0
 11
2.5928489565849304
 21
11.101785553047407
 31
0.0
  0
LINE
  5
42
330
17
100
AcDbEntity
  8
0
100
AcDbLine
 10
2.5928489565849304
 20
11.101785553047407
 30
0.0
 11
2.5928489565849304
 21
11.170408577878105
 31
0.0
  0
LINE
  5
43
330
17
100
AcDbEntity
  8
0
100
AcDbLine
 10
2.5928489565849304
 20
11.603407766990292
 30
0.0
 11
2.5928489565849304
 21
12.795964401294501
 31
0.0
  0
LINE
  5
44
330
17
100
AcDbEntity
  8
0
100
AcDbLine
 10
2.5928489565849304
 20
12.795964401294501
 30
0.0
 11
2.5928489565849304
 21
12.970500000000001
 31
0.0
  0
LINE
  5
45
330
17
100
AcDbEntity
  8
0
100
AcDbLine
 10
2.5928489565849304
 20
13.403331360946744
 30
0.0
 11
2.5928489565849304
 21
13.555634222919936
 31
0.0
  0
LINE
  5
46
330
17
100
AcDbEntity
  8
0
100
AcDbLine
 10
2.5928489565849304
 20
13.555634222919936
 30
0.0
 11
2.5928489565849304
 21
14.541560439560442
 31
0.0
  0
LINE
  5
47
330
17
100
AcDbEntity
  8
0
100
AcDbLine
 10
5.09284895658493
 20
0.8824450867052018
 30
0.0
 11
5.09284895658493
 21
1.9705953757225458
 31
0.0
  0
LINE
  5
48
330
17
100
AcDbEntity
  8
0
100
AcDbLine
 10
5.09284895658493
 20
0.8824450867052018
 30
0.0
 11
5.09284895658493
 21
1.9705953757225458
 31
0.0
  0
LINE
  5
49
330
17
100
AcDbEntity
  8
0
100
AcDbLine
 10
5.09284895658493
 20
1.9705953757225458
 30
0.0
 11
5.09284895658493
 21
2.2495000000000003
 31
0.0
  0
LINE
  5
4A
330
17
100
AcDbEntity
  8
0
100
AcDbLine
 10
5.09284895658493
 20
2.6814864864864862
 30
0.0
 11
5.09284895658493
 21
3.674648648648595
 31
0.0
  0
LINE
  5
4B
330
17
100
AcDbEntity
  8
0
100
AcDbLine
 10
5.09284895658493
 20
3.674648648648595
 30
0.0
 11
5.09284895658493
 21
4.049500000000001
 31
0.0
  0
LINE
  5
4C
330
17
100
AcDbEntity
  8
0
100
AcDbLine
 10
5.09284895658493
 20
4.4825
 30
0.0
 11
5.09284895658493
 21
4.634499999999998
 31
0.0
  0
LINE
  5
4D
330
17
100
AcDbEntity
  8
0
100
AcDbLine
 10
5.09284895658493
 20
4.634499999999998
 30
0.0
 11
5.09284895658493
 21
5.849500000000001
 31
0.0
  0
LINE
  5
4E
330
17
100
AcDbEntity
  8
0
100
AcDbLine
 10
5.09284895658493
 20
6.282258660508083
 30
0.0
 11
5.09284895658493
 21
7.124060046189381
 31
0.0
  0
LINE
  5
4F
330
17
100
AcDbEntity
  8
0
100
AcDbLine
 10
5.09284895658493
 20
7.124060046189381
 30
0.0
 11
5.09284895658493
 21
7.649500000000001
 31
0.0
  0
LINE
  5
50
330
17
100
AcDbEntity
  8
0
100
AcDbLine
 10
5.09284895658493
 20
8.082312910284463
 30
0.0
 11
5.09284895658493
 21
9.27049671772429
 31
0.0
  0
LINE
  5
51
330
17
100
AcDbEntity
  8
0
100
AcDbLine
 10
5.09284895658493
 20
9.27049671772429
 30
0.0
 11
5.09284895658493
 21
9.4495
 31
0.0
  0
LINE
  5
52
330
17
100
AcDbEntity
  8
0
100
AcDbLine
 10
5.09284895658493
 20
9.8825
 30
0.0
 11
5.09284895658493
 21
11.136625662778368
 31
0.0
  0
LINE
  5
53
330
17
100
AcDbEntity
  8
0
100
AcDbLine
 10
5.09284895658493
 20
11.136625662778368
 30
0.0
 11
5.09284895658493
 21
11.249457051961825
 31
0.0
  0
LINE
  5
54
330
17
100
AcDbEntity
  8
0
100
AcDbLine
 10
5.09284895658493
 20
11.6825
 30
0.0
 11
5.09284895658493
 21
12.8975
 31
0.0
  0
LINE
  5
55
330
17
100
AcDbEntity
  8
0
100
AcDbLine
 10
5.09284895658493
 20
12.8975
 30
0.0
 11
5.09284895658493
 21
13.0495
 31
0.0
  0
LINE
  5
56
330
17
100
AcDbEntity
  8
0
100
AcDbLine
 10
5.09284895658493
 20
13.482100323624595
 30
0.0
 11
5.09284895658493
 21
14.340177993527512
 31
0.0
  0
LINE
  5
57
330
17
100
AcDbEntity
  8
0
100
AcDbLine
 10
5.09284895658493
 20
14.340177993527512
 30
0.0
 11
5.09284895658493
 21
14.486090000000003
 31
0.0
  0
LINE
  5
58
330
17
100
AcDbEntity
  8
0
100
AcDbLine
 10
7.59284895658493
 20
0.9413099999999995
 30
0.0
 11
7.59284895658493
 21
2.1565000000000016
 31
0.0
  0
LINE
  5
59
330
17
100
AcDbEntity
  8
0
100
AcDbLine
 10
7.59284895658493
 20
0.9413099999999995
 30
0.0
 11
7.59284895658493
 21
2.1565000000000016
 31
0.0
  0
LINE
  5
5A
330
17
100
AcDbEntity
  8
0
100
AcDbLine
 10
7.59284895658493
 20
2.1565000000000016
 30
0.0
 11
7.59284895658493
 21
2.3085000000000004
 31
0.0
  0
LINE
  5
5B
330
17
100
AcDbEntity
  8
0
100
AcDbLine
 10
7.59284895658493
 20
2.740822622107969
 30
0.0
 11
7.59284895658493
 21
2.925037209302322
 31
0.0
  0
LINE
  5
5C
330
17
100
AcDbEntity
  8
0
100
AcDbLine
 10
7.59284895658493
 20
2.925037209302322
 30
0.0
 11
7.59284895658493
 21
4.1082058287795995
 31
0.0
  0
LINE
  5
5D
330
17
100
AcDbEntity
  8
0
100
AcDbLine
 10
7.59284895658493
 20
4.1082058287795995
 30
0.0
 11
7.59284895658493
 21
4.1085519125683065
 31
0.0
  0
LINE
  5
5E
330
17
100
AcDbEntity
  8
0
100
AcDbLine
 10
7.59284895658493
 20
4.54131
 30
0.0
 11
7.59284895658493
 21
4.6934999999999985
 31
0.0
  0
LINE
  5
5F
330
17
100
AcDbEntity
  8
0
100
AcDbLine
 10
7.59284895658493
 20
4.6934999999999985
 30
0.0
 11
7.59284895658493
 21
5.908500000000001
 31
0.0
  0
LINE
  5
60
330
17
100
AcDbEntity
  8
0
100
AcDbLine
 10
7.59284895658493
 20
6.341118546845124
 30
0.0
 11
7.59284895658493
 21
7.296185468451246
 31
0.0
  0
LINE
  5
61
330
17
100
AcDbEntity
  8
0
100
AcDbLine
 10
7.59284895658493
 20
7.296185468451246
 30
0.0
 11
7.59284895658493
 21
7.298371428571432
 31
0.0
  0
LINE
  5
62
330
17
100
AcDbEntity
  8
0
100
AcDbLine
 10
7.59284895658493
 20
7.298371428571432
 30
0.0
 11
7.59284895658493
 21
7.371836902800662
 31
0.0
  0
LINE
  5
63
330
17
100
AcDbEntity
  8
0
100
AcDbLine
 10
7.59284895658493
 20
7.371836902800662
 30
0.0
 11
7.59284895658493
 21
7.708500000000001
 31
0.0
  0
LINE
  5
64
330
17
100
AcDbEntity
  8
0
100
AcDbLine
 10
7.59284895658493
 20
8.141096440872559
 30
0.0
 11
7.59284895658493
 21
9.313886337543057
 31
0.0
  0
LINE
  5
65
330
17
100
AcDbEntity
  8
0
100
AcDbLine
 10
7.59284895658493
 20
9.313886337543057
 30
0.0
 11
7.59284895658493
 21
9.508500000000002
 31
0.0
  0
LINE
  5
66
330
17
100
AcDbEntity
  8
0
100
AcDbLine
 10
7.59284895658493
 20
9.9405
 30
0.0
 11
7.59284895658493
 21
9.940753653444675
 31
0.0
  0
LINE
  5
67
330
17
100
AcDbEntity
  8
0
100
AcDbLine
 10
7.59284895658493
 20
9.940753653444675
 30
0.0
 11
7.59284895658493
 21
11.282741935483873
 31
0.0
  0
LINE
  5
68
330
17
100
AcDbEntity
  8
0
100
AcDbLine
 10
7.59284895658493
 20
11.282741935483873
 30
0.0
 11
7.59284895658493
 21
11.308548387096774
 31
0.0
  0
LINE
  5
69
330
17
100
AcDbEntity
  8
0
100
AcDbLine
 10
7.59284895658493
 20
11.74131
 30
0.0
 11
7.59284895658493
 21
12.956500000000002
 31
0.0
  0
LINE
  5
6A
330
17
100
AcDbEntity
  8
0
100
AcDbLine
 10
7.59284895658493
 20
12.956500000000002
 30
0.0
 11
7.59284895658493
 21
13.108500000000001
 31
0.0
  0
LINE
  5
6B
330
17
100
AcDbEntity
  8
0
100
AcDbLine
 10
7.59284895658493
 20
13.541202090592334
 30
0.0
 11
7.59284895658493
 21
14.312547038327528
 31
0.0
  0
LINE
  5
6C
330
17
100
AcDbEntity
  8
0
100
AcDbLine
 10
7.59284895658493
 20
14.312547038327528
 30
0.0
 11
7.59284895658493
 21
14.475530864197532
 31
0.0
  0
LINE
  5
6D
330
17
100
AcDbEntity
  8
0
100
AcDbLine
 10
10.09284895658493
 20
0.8813492063492059
 30
0.0
 11
10.09284895658493
 21
1.9700937950937976
 31
0.0
  0
LINE
  5
6E
330
17
100
AcDbEntity
  8
0
100
AcDbLine
 10
10.09284895658493
 20
0.8813492063492059
 30
0.0
 11
10.09284895658493
 21
1.9700937950937976
 31
0.0
  0
LINE
  5
6F
330
17
100
AcDbEntity
  8
0
100
AcDbLine
 10
10.09284895658493
 20
1.9700937950937976
 30
0.0
 11
10.09284895658493
 21
2.2485000000000004
 31
0.0
  0
LINE
  5
70
330
17
100
AcDbEntity
  8
0
100
AcDbLine
 10
10.09284895658493
 20
2.6814999999999998
 30
0.0
 11
10.09284895658493
 21
3.9159783728115363
 31
0.0
  0
LINE
  5
71
330
17
100
AcDbEntity
  8
0
100
AcDbLine
 10
10.09284895658493
 20
3.9159783728115363
 30
0.0
 11
10.09284895658493
 21
4.048625128733265
 31
0.0
  0
LINE
  5
72
330
17
100
AcDbEntity
  8
0
100
AcDbLine
 10
10.09284895658493
 20
4.4815
 30
0.0
 11
10.09284895658493
 21
4.633499999999998
 31
0.0
  0
LINE
  5
73
330
17
100
AcDbEntity
  8
0
100
AcDbLine
 10
10.09284895658493
 20
4.633499999999998
 30
0.0
 11
10.09284895658493
 21
5.8485000000000005
 31
0.0
  0
LINE
  5
74
330
17
100
AcDbEntity
  8
0
100
AcDbLine
 10
10.09284895658493
 20
6.281125290023201
 30
0.0
 11
10.09284895658493
 21
7.119872389791188
 31
0.0
  0
LINE
  5
75
330
17
100
AcDbEntity
  8
0
100
AcDbLine
 10
10.09284895658493
 20
7.119872389791188
 30
0.0
 11
10.09284895658493
 21
7.123060046189381
 31
0.0
  0
LINE
  5
76
330
17
100
AcDbEntity
  8
0
100
AcDbLine
 10
10.09284895658493
 20
7.123060046189381
 30
0.0
 11
10.09284895658493
 21
7.6485
 31
0.0
  0
LINE
  5
77
330
17
100
AcDbEntity
  8
0
100
AcDbLine
 10
10.09284895658493
 20
8.08124043715847
 30
0.0
 11
10.09284895658493
 21
9.269765027322407
 31
0.0
  0
LINE
  5
78
330
17
100
AcDbEntity
  8
0
100
AcDbLine
 10
10.09284895658493
 20
9.269765027322407
 30
0.0
 11
10.09284895658493
 21
9.448500000000001
 31
0.0
  0
LINE
  5
79
330
17
100
AcDbEntity
  8
0
100
AcDbLine
 10
10.09284895658493
 20
9.881499999999999
 30
0.0
 11
10.09284895658493
 21
10.17373134328358
 31
0.0
  0
LINE
  5
7A
330
17
100
AcDbEntity
  8
0
100
AcDbLine
 10
10.09284895658493
 20
10.17373134328358
 30
0.0
 11
10.09284895658493
 21
10.174551569506724
 31
0.0
  0
LINE
  5
7B
330
17
100
AcDbEntity
  8
0
100
AcDbLine
 10
10.09284895658493
 20
10.174551569506724
 30
0.0
 11
10.09284895658493
 21
11.248542600896862
 31
0.0
  0
LINE
  5
7C
330
17
100
AcDbEntity
  8
0
100
AcDbLine
 10
10.09284895658493
 20
11.6815
 30
0.0
 11
10.09284895658493
 21
12.896500000000001
 31
0.0
  0
LINE
  5
7D
330
17
100
AcDbEntity
  8
0
100
AcDbLine
 10
10.09284895658493
 20
12.896500000000001
 30
0.0
 11
10.09284895658493
 21
13.0485
 31
0.0
  0
LINE
  5
7E
330
17
100
AcDbEntity
  8
0
100
AcDbLine
 10
10.09284895658493
 20
13.481300484652666
 30
0.0
 11
10.09284895658493
 21
14.324053311793218
 31
0.0
  0
LINE
  5
7F
330
17
100
AcDbEntity
  8
0
100
AcDbLine
 10
10.09284895658493
 20
14.324053311793218
 30
0.0
 11
10.09284895658493
 21
14.466460000000001
 31
0.0
  0
LINE
  5
80
330
17
100
AcDbEntity
  8
0
100
AcDbLine
 10
12.59284895658493
 20
0.8212550881953862
 30
0.0
 11
12.59284895658493
 21
1.9345522388059724
 31
0.0
  0
LINE
  5
81
330
17
100
AcDbEntity
  8
0
100
AcDbLine
 10
12.59284895658493
 20
0.8212550881953862
 30
0.0
 11
12.59284895658493
 21
1.9345522388059724
 31
0.0
  0
LINE
  5
82
330
17
100
AcDbEntity
  8
0
100
AcDbLine
 10
12.59284895658493
 20
1.9345522388059724
 30
0.0
 11
12.59284895658493
 21
2.1885000000000003
 31
0.0
  0
LINE
  5
83
330
17
100
AcDbEntity
  8
0
100
AcDbLine
 10
12.59284895658493
 20
2.6207692307692305
 30
0.0
 11
12.59284895658493
 21
2.7505769230769332
 31
0.0
  0
LINE
  5
84
330
17
100
AcDbEntity
  8
0
100
AcDbLine
 10
12.59284895658493
 20
2.7505769230769332
 30
0.0
 11
12.59284895658493
 21
3.9885
 31
0.0
  0
LINE
  5
85
330
17
100
AcDbEntity
  8
0
100
AcDbLine
 10
12.59284895658493
 20
4.4215
 30
0.0
 11
12.59284895658493
 21
4.573499999999998
 31
0.0
  0
LINE
  5
86
330
17
100
AcDbEntity
  8
0
100
AcDbLine
 10
12.59284895658493
 20
4.573499999999998
 30
0.0
 11
12.59284895658493
 21
5.788500000000001
 31
0.0
  0
LINE
  5
87
330
17
100
AcDbEntity
  8
0
100
AcDbLine
 10
12.59284895658493
 20
6.2215
 30
0.0
 11
12.59284895658493
 21
6.373499999999998
 31
0.0
  0
LINE
  5
88
330
17
100
AcDbEntity
  8
0
100
AcDbLine
 10
12.59284895658493
 20
6.373499999999998
 30
0.0
 11
12.59284895658493
 21
7.588500000000001
 31
0.0
  0
LINE
  5
89
330
17
100
AcDbEntity
  8
0
100
AcDbLine
 10
12.59284895658493
 20
8.021440501043841
 30
0.0
 11
12.59284895658493
 21
8.021509926854755
 31
0.0
  0
LINE
  5
8A
330
17
100
AcDbEntity
  8
0
100
AcDbLine
 10
12.59284895658493
 20
8.021509926854755
 30
0.0
 11
12.59284895658493
 21
9.313499999999989
 31
0.0
  0
LINE
  5
8B
330
17
100
AcDbEntity
  8
0
100
AcDbLine
 10
12.59284895658493
 20
9.313499999999989
 30
0.0
 11
12.59284895658493
 21
9.3885
 31
0.0
  0
LINE
  5
8C
330
17
100
AcDbEntity
  8
0
100
AcDbLine
 10
12.59284895658493
 20
9.82108695652174
 30
0.0
 11
12.59284895658493
 21
10.632681159420295
 31
0.0
  0
LINE
  5
8D
330
17
100
AcDbEntity
  8
0
100
AcDbLine
 10
12.59284895658493
 20
10.632681159420295
 30
0.0
 11
12.59284895658493
 21
10.639545454545459
 31
0.0
  0
LINE
  5
8E
330
17
100
AcDbEntity
  8
0
100
AcDbLine
 10
12.59284895658493
 20
10.639545454545459
 30
0.0
 11
12.59284895658493
 21
11.188500000000001
 31
0.0
  0
LINE
  5
8F
330
17
100
AcDbEntity
  8
0
100
AcDbLine
 10
12.59284895658493
 20
11.6215
 30
0.0
 11
12.59284895658493
 21
12.836500000000001
 31
0.0
  0
LINE
  5
90
330
17
100
AcDbEntity
  8
0
100
AcDbLine
 10
12.59284895658493
 20
12.836500000000001
 30
0.0
 11
12.59284895658493
 21
12.9885
 31
0.0
  0
LINE
  5
91
330
17
100
AcDbEntity
  8
0
100
AcDbLine
 10
12.59284895658493
 20
13.421199095022624
 30
0.0
 11
12.59284895658493
 21
14.334381598793366
 31
0.0
  0
LINE
  5
92
330
17
100
AcDbEntity
  8
0
100
AcDbLine
 10
12.59284895658493
 20
14.334381598793366
 30
0.0
 11
12.59284895658493
 21
14.458300000000001
 31
0.0
  0
LINE
  5
93
330
17
100
AcDbEntity
  8
0
100
AcDbLine
 10
0.647147335423196
 20
2.5922380685806274
 30
0.0
 11
0.7176170212765944
 21
2.5922380685806274
 31
0.0
  0
LINE
  5
94
330
17
100
AcDbEntity
  8
0
100
AcDbLine
 10
0.647147335423196
 20
2.5922380685806274
 30
0.0
 11
0.7176170212765944
 21
2.5922380685806274
 31
0.0
  0
LINE
  5
95
330
17
100
AcDbEntity
  8
0
100
AcDbLine
 10
0.7176170212765944
 20
2.5922380685806274
 30
0.0
 11
1.6224952978056442
 21
2.5922380685806274
 31
0.0
  0
LINE
  5
96
330
17
100
AcDbEntity
  8
0
100
AcDbLine
 10
1.6224952978056442
 20
2.5922380685806274
 30
0.0
 11
1.7725000000000004
 21
2.5922380685806274
 31
0.0
  0
LINE
  5
97
330
17
100
AcDbEntity
  8
0
100
AcDbLine
 10
2.2055
 20
2.5922380685806274
 30
0.0
 11
2.3574999999999986
 21
2.5922380685806274
 31
0.0
  0
LINE
  5
98
330
17
100
AcDbEntity
  8
0
100
AcDbLine
 10
2.3574999999999986
 20
2.5922380685806274
 30
0.0
 11
3.5725000000000007
 21
2.5922380685806274
 31
0.0
  0
LINE
  5
99
330
17
100
AcDbEntity
  8
0
100
AcDbLine
 10
4.0054194977843425
 20
2.5922380685806274
 30
0.0
 11
5.137062015503878
 21
2.5922380685806274
 31
0.0
  0
LINE
  5
9A
330
17
100
AcDbEntity
  8
0
100
AcDbLine
 10
5.137062015503878
 20
2.5922380685806274
 30
0.0
 11
5.3725000000000005
 21
2.5922380685806274
 31
0.0
  0
LINE
  5
9B
330
17
100
AcDbEntity
  8
0
100
AcDbLine
 10
5.805499999999999
 20
2.5922380685806274
 30
0.0
 11
6.414875000000006
 21
2.5922380685806274
 31
0.0
  0
LINE
  5
9C
330
17
100
AcDbEntity
  8
0
100
AcDbLine
 10
6.414875000000006
 20
2.5922380685806274
 30
0.0
 11
6.924954606141524
 21
2.5922380685806274
 31
0.0
  0
LINE
  5
9D
330
17
100
AcDbEntity
  8
0
100
AcDbLine
 10
6.924954606141524
 20
2.5922380685806274
 30
0.0
 11
7.1725
 21
2.5922380685806274
 31
0.0
  0
LINE
  5
9E
330
17
100
AcDbEntity
  8
0
100
AcDbLine
 10
7.6055
 20
2.5922380685806274
 30
0.0
 11
7.7574999999999985
 21
2.5922380685806274
 31
0.0
  0
LINE
  5
9F
330
17
100
AcDbEntity
  8
0
100
AcDbLine
 10
7.7574999999999985
 20
2.5922380685806274
 30
0.0
 11
8.9725
 21
2.5922380685806274
 31
0.0
  0
LINE
  5
A0
330
17
100
AcDbEntity
  8
0
100
AcDbLine
 10
9.4055
 20
2.5922380685806274
 30
0.0
 11
10.620500000000002
 21
2.5922380685806274
 31
0.0
  0
LINE
  5
A1
330
17
100
AcDbEntity
  8
0
100
AcDbLine
 10
10.620500000000002
 20
2.5922380685806274
 30
0.0
 11
10.7725
 21
2.5922380685806274
 31
0.0
  0
LINE
  5
A2
330
17
100
AcDbEntity
  8
0
100
AcDbLine
 10
11.205393258426966
 20
2.5922380685806274
 30
0.0
 11
12.268508474576254
 21
2.5922380685806274
 31
0.0
  0
LINE
  5
A3
330
17
100
AcDbEntity
  8
0
100
AcDbLine
 10
12.268508474576254
 20
2.5922380685806274
 30
0.0
 11
12.571837209302327
 21
2.5922380685806274
 31
0.0
  0
LINE
  5
A4
330
17
100
AcDbEntity
  8
0
100
AcDbLine
 10
13.0054
 20
2.5922380685806274
 30
0.0
 11
13.508930069930077
 21
2.5922380685806274
 31
0.0
  0
LINE
  5
A5
330
17
100
AcDbEntity
  8
0
100
AcDbLine
 10
13.508930069930077
 20
2.5922380685806274
 30
0.0
 11
14.3725
 21
2.5922380685806274
 31
0.0
  0
LINE
  5
A6
330
17
100
AcDbEntity
  8
0
100
AcDbLine
 10
0.681277439024389
 20
5.092238068580627
 30
0.0
 11
1.56071036585366
 21
5.092238068580627
 31
0.0
  0
LINE
  5
A7
330
17
100
AcDbEntity
  8
0
100
AcDbLine
 10
0.681277439024389
 20
5.092238068580627
 30
0.0
 11
1.56071036585366
 21
5.092238068580627
 31
0.0
  0
LINE
  5
A8
330
17
100
AcDbEntity
  8
0
100
AcDbLine
 10
1.56071036585366
 20
5.092238068580627
 30
0.0
 11
1.6845000000000006
 21
5.092238068580627
 31
0.0
  0
LINE
  5
A9
330
17
100
AcDbEntity
  8
0
100
AcDbLine
 10
2.1174999999999997
 20
5.092238068580627
 30
0.0
 11
2.2694999999999985
 21
5.092238068580627
 31
0.0
  0
LINE
  5
AA
330
17
100
AcDbEntity
  8
0
100
AcDbLine
 10
2.2694999999999985
 20
5.092238068580627
 30
0.0
 11
3.4845000000000006
 21
5.092238068580627
 31
0.0
  0
LINE
  5
AB
330
17
100
AcDbEntity
  8
0
100
AcDbLine
 10
3.917306729264475
 20
5.092238068580627
 30
0.0
 11
4.971297339593117
 21
5.092238068580627
 31
0.0
  0
LINE
  5
AC
330
17
100
AcDbEntity
  8
0
100
AcDbLine
 10
4.971297339593117
 20
5.092238068580627
 30
0.0
 11
5.2845
 21
5.092238068580627
 31
0.0
  0
LINE
  5
AD
330
17
100
AcDbEntity
  8
0
100
AcDbLine
 10
5.717208588957055
 20
5.092238068580627
 30
0.0
 11
6.867515337423315
 21
5.092238068580627
 31
0.0
  0
LINE
  5
AE
330
17
100
AcDbEntity
  8
0
100
AcDbLine
 10
6.867515337423315
 20
5.092238068580627
 30
0.0
 11
7.0845
 21
5.092238068580627
 31
0.0
  0
LINE
  5
AF
330
17
100
AcDbEntity
  8
0
100
AcDbLine
 10
7.516924170616113
 20
5.092238068580627
 30
0.0
 11
7.535011848341231
 21
5.092238068580627
 31
0.0
  0
LINE
  5
B0
330
17
100
AcDbEntity
  8
0
100
AcDbLine
 10
7.535011848341231
 20
5.092238068580627
 30
0.0
 11
8.817810000000001
 21
5.092238068580627
 31
0.0
  0
LINE
  5
B1
330
17
100
AcDbEntity
  8
0
100
AcDbLine
 10
8.817810000000001
 20
5.092238068580627
 30
0.0
 11
8.884500000000001
 21
5.092238068580627
 31
0.0
  0
LINE
  5
B2
330
17
100
AcDbEntity
  8
0
100
AcDbLine
 10
9.317499999999999
 20
5.092238068580627
 30
0.0
 11
10.5325
 21
5.092238068580627
 31
0.0
  0
LINE
  5
B3
330
17
100
AcDbEntity
  8
0
100
AcDbLine
 10
10.5325
 20
5.092238068580627
 30
0.0
 11
10.6845
 21
5.092238068580627
 31
0.0
  0
LINE
  5
B4
330
17
100
AcDbEntity
  8
0
100
AcDbLine
 10
11.11745922746781
 20
5.092238068580627
 30
0.0
 11
12.005871244635198
 21
5.092238068580627
 31
0.0
  0
LINE
  5
B5
330
17
100
AcDbEntity
  8
0
100
AcDbLine
 10
12.005871244635198
 20
5.092238068580627
 30
0.0
 11
12.067196911196914
 21
5.092238068580627
 31
0.0
  0
LINE
  5
B6
330
17
100
AcDbEntity
  8
0
100
AcDbLine
 10
12.067196911196914
 20
5.092238068580627
 30
0.0
 11
12.4845
 21
5.092238068580627
 31
0.0
  0
LINE
  5
B7
330
17
100
AcDbEntity
  8
0
100
AcDbLine
 10
12.9175
 20
5.092238068580627
 30
0.0
 11
13.0695
 21
5.092238068580627
 31
0.0
  0
LINE
  5
B8
330
17
100
AcDbEntity
  8
0
100
AcDbLine
 10
13.0695
 20
5.092238068580627
 30
0.0
 11
14.284500000000001
 21
5.092238068580627
 31
0.0
  0
LINE
  5
B9
330
17
100
AcDbEntity
  8
0
100
AcDbLine
 10
0.7275926493108718
 20
7.592238068580627
 30
0.0
 11
1.5429831546707518
 21
7.592238068580627
 31
0.0
  0
LINE
  5
BA
330
17
100
AcDbEntity
  8
0
100
AcDbLine
 10
0.7275926493108718
 20
7.592238068580627
 30
0.0
 11
1.5429831546707518
 21
7.592238068580627
 31
0.0
  0
LINE
  5
BB
330
17
100
AcDbEntity
  8
0
100
AcDbLine
 10
1.5429831546707518
 20
7.592238068580627
 30
0.0
 11
1.6595000000000004
 21
7.592238068580627
 31
0.0
  0
LINE
  5
BC
330
17
100
AcDbEntity
  8
0
100
AcDbLine
 10
2.0925
 20
7.592238068580627
 30
0.0
 11
2.2444999999999986
 21
7.592238068580627
 31
0.0
  0
LINE
  5
BD
330
17
100
AcDbEntity
  8
0
100
AcDbLine
 10
2.2444999999999986
 20
7.592238068580627
 30
0.0
 11
3.4595000000000007
 21
7.592238068580627
 31
0.0
  0
LINE
  5
BE
330
17
100
AcDbEntity
  8
0
100
AcDbLine
 10
3.89241825095057
 20
7.592238068580627
 30
0.0
 11
4.395930069930077
 21
7.592238068580627
 31
0.0
  0
LINE
  5
BF
330
17
100
AcDbEntity
  8
0
100
AcDbLine
 10
4.395930069930077
 20
7.592238068580627
 30
0.0
 11
4.918179700499172
 21
7.592238068580627
 31
0.0
  0
LINE
  5
C0
330
17
100
AcDbEntity
  8
0
100
AcDbLine
 10
4.918179700499172
 20
7.592238068580627
 30
0.0
 11
5.259500000000001
 21
7.592238068580627
 31
0.0
  0
LINE
  5
C1
330
17
100
AcDbEntity
  8
0
100
AcDbLine
 10
5.69241825095057
 20
7.592238068580627
 30
0.0
 11
6.1959300699300766
 21
7.592238068580627
 31
0.0
  0
LINE
  5
C2
330
17
100
AcDbEntity
  8
0
100
AcDbLine
 10
6.1959300699300766
 20
7.592238068580627
 30
0.0
 11
7.059500000000001
 21
7.592238068580627
 31
0.0
  0
LINE
  5
C3
330
17
100
AcDbEntity
  8
0
100
AcDbLine
 10
7.491628539071347
 20
7.592238068580627
 30
0.0
 11
7.530102156640181
 21
7.592238068580627
 31
0.0
  0
LINE
  5
C4
330
17
100
AcDbEntity
  8
0
100
AcDbLine
 10
7.530102156640181
 20
7.592238068580627
 30
0.0
 11
8.79756
 21
7.592238068580627
 31
0.0
  0
LINE
  5
C5
330
17
100
AcDbEntity
  8
0
100
AcDbLine
 10
8.79756
 20
7.592238068580627
 30
0.0
 11
8.8595
 21
7.592238068580627
 31
0.0
  0
LINE
  5
C6
330
17
100
AcDbEntity
  8
0
100
AcDbLine
 10
9.2925
 20
7.592238068580627
 30
0.0
 11
9.4445
 21
7.592238068580627
 31
0.0
  0
LINE
  5
C7
330
17
100
AcDbEntity
  8
0
100
AcDbLine
 10
9.4445
 20
7.592238068580627
 30
0.0
 11
10.659500000000001
 21
7.592238068580627
 31
0.0
  0
LINE
  5
C8
330
17
100
AcDbEntity
  8
0
100
AcDbLine
 10
11.092134831460674
 20
7.592238068580627
 30
0.0
 11
12.061437616387341
 21
7.592238068580627
 31
0.0
  0
LINE
  5
C9
330
17
100
AcDbEntity
  8
0
100
AcDbLine
 10
12.061437616387341
 20
7.592238068580627
 30
0.0
 11
12.4595
 21
7.592238068580627
 31
0.0
  0
LINE
  5
CA
330
17
100
AcDbEntity
  8
0
100
AcDbLine
 10
12.891846774193548
 20
7.592238068580627
 30
0.0
 11
12.905423387096773
 21
7.592238068580627
 31
0.0
  0
LINE
  5
CB
330
17
100
AcDbEntity
  8
0
100
AcDbLine
 10
12.905423387096773
 20
7.592238068580627
 30
0.0
 11
14.121560000000002
 21
7.592238068580627
 31
0.0
  0
LINE
  5
CC
330
17
100
AcDbEntity
  8
0
100
AcDbLine
 10
14.121560000000002
 20
7.592238068580627
 30
0.0
 11
14.259500000000001
 21
7.592238068580627
 31
0.0
  0
LINE
  5
CD
330
17
100
AcDbEntity
  8
0
100
AcDbLine
 10
0.6777799999999988
 20
10.092238068580627
 30
0.0
 11
1.6595000000000004
 21
10.092238068580627
 31
0.0
  0
LINE
  5
CE
330
17
100
AcDbEntity
  8
0
100
AcDbLine
 10
0.6777799999999988
 20
10.092238068580627
 30
0.0
 11
1.6595000000000004
 21
10.092238068580627
 31
0.0
  0
LINE
  5
CF
330
17
100
AcDbEntity
  8
0
100
AcDbLine
 10
2.0925
 20
10.092238068580627
 30
0.0
 11
2.2444999999999986
 21
10.092238068580627
 31
0.0
  0
LINE
  5
D0
330
17
100
AcDbEntity
  8
0
100
AcDbLine
 10
2.2444999999999986
 20
10.092238068580627
 30
0.0
 11
3.4595000000000007
 21
10.092238068580627
 31
0.0
  0
LINE
  5
D1
330
17
100
AcDbEntity
  8
0
100
AcDbLine
 10
3.892433566433566
 20
10.092238068580627
 30
0.0
 11
4.395930069930077
 21
10.092238068580627
 31
0.0
  0
LINE
  5
D2
330
17
100
AcDbEntity
  8
0
100
AcDbLine
 10
4.395930069930077
 20
10.092238068580627
 30
0.0
 11
4.918179700499172
 21
10.092238068580627
 31
0.0
  0
LINE
  5
D3
330
17
100
AcDbEntity
  8
0
100
AcDbLine
 10
4.918179700499172
 20
10.092238068580627
 30
0.0
 11
5.259500000000001
 21
10.092238068580627
 31
0.0
  0
LINE
  5
D4
330
17
100
AcDbEntity
  8
0
100
AcDbLine
 10
5.692399999999999
 20
10.092238068580627
 30
0.0
 11
6.1959300699300766
 21
10.092238068580627
 31
0.0
  0
LINE
  5
D5
330
17
100
AcDbEntity
  8
0
100
AcDbLine
 10
6.1959300699300766
 20
10.092238068580627
 30
0.0
 11
7.059500000000001
 21
10.092238068580627
 31
0.0
  0
LINE
  5
D6
330
17
100
AcDbEntity
  8
0
100
AcDbLine
 10
7.491628539071347
 20
10.092238068580627
 30
0.0
 11
7.530102156640181
 21
10.092238068580627
 31
0.0
  0
LINE
  5
D7
330
17
100
AcDbEntity
  8
0
100
AcDbLine
 10
7.530102156640181
 20
10.092238068580627
 30
0.0
 11
8.79756
 21
10.092238068580627
 31
0.0
  0
LINE
  5
D8
330
17
100
AcDbEntity
  8
0
100
AcDbLine
 10
8.79756
 20
10.092238068580627
 30
0.0
 11
8.8595
 21
10.092238068580627
 31
0.0
  0
LINE
  5
D9
330
17
100
AcDbEntity
  8
0
100
AcDbLine
 10
9.2925
 20
10.092238068580627
 30
0.0
 11
9.4445
 21
10.092238068580627
 31
0.0
  0
LINE
  5
DA
330
17
100
AcDbEntity
  8
0
100
AcDbLine
 10
9.4445
 20
10.092238068580627
 30
0.0
 11
10.659500000000001
 21
10.092238068580627
 31
0.0
  0
LINE
  5
DB
330
17
100
AcDbEntity
  8
0
100
AcDbLine
 10
11.092163873370577
 20
10.092238068580627
 30
0.0
 11
12.061437616387341
 21
10.092238068580627
 31
0.0
  0
LINE
  5
DC
330
17
100
AcDbEntity
  8
0
100
AcDbLine
 10
12.061437616387341
 20
10.092238068580627
 30
0.0
 11
12.4595
 21
10.092238068580627
 31
0.0
  0
LINE
  5
DD
330
17
100
AcDbEntity
  8
0
100
AcDbLine
 10
12.891846774193548
 20
10.092238068580627
 30
0.0
 11
12.905423387096773
 21
10.092238068580627
 31
0.0
  0
LINE
  5
DE
330
17
100
AcDbEntity
  8
0
100
AcDbLine
 10
12.905423387096773
 20
10.092238068580627
 30
0.0
 11
14.121560000000002
 21
10.092238068580627
 31
0.0
  0
LINE
  5
DF
330
17
100
AcDbEntity
  8
0
100
AcDbLine
 10
14.121560000000002
 20
10.092238068580627
 30
0.0
 11
14.259500000000001
 21
10.092238068580627
 31
0.0
  0
LINE
  5
E0
330
17
100
AcDbEntity
  8
0
100
AcDbLine
 10
0.6162199999999987
 20
12.592238068580627
 30
0.0
 11
1.6595000000000004
 21
12.592238068580627
 31
0.0
  0
LINE
  5
E1
330
17
100
AcDbEntity
  8
0
100
AcDbLine
 10
0.6162199999999987
 20
12.592238068580627
 30
0.0
 11
1.6595000000000004
 21
12.592238068580627
 31
0.0
  0
LINE
  5
E2
330
17
100
AcDbEntity
  8
0
100
AcDbLine
 10
2.0925
 20
12.592238068580627
 30
0.0
 11
2.2444999999999986
 21
12.592238068580627
 31
0.0
  0
LINE
  5
E3
330
17
100
AcDbEntity
  8
0
100
AcDbLine
 10
2.2444999999999986
 20
12.592238068580627
 30
0.0
 11
3.4595000000000007
 21
12.592238068580627
 31
0.0
  0
LINE
  5
E4
330
17
100
AcDbEntity
  8
0
100
AcDbLine
 10
3.892433566433566
 20
12.592238068580627
 30
0.0
 11
4.395930069930077
 21
12.592238068580627
 31
0.0
  0
LINE
  5
E5
330
17
100
AcDbEntity
  8
0
100
AcDbLine
 10
4.395930069930077
 20
12.592238068580627
 30
0.0
 11
4.918179700499172
 21
12.592238068580627
 31
0.0
  0
LINE
  5
E6
330
17
100
AcDbEntity
  8
0
100
AcDbLine
 10
4.918179700499172
 20
12.592238068580627
 30
0.0
 11
5.259500000000001
 21
12.592238068580627
 31
0.0
  0
LINE
  5
E7
330
17
100
AcDbEntity
  8
0
100
AcDbLine
 10
5.692382671480144
 20
12.592238068580627
 30
0.0
 11
6.1959300699300766
 21
12.592238068580627
 31
0.0
  0
LINE
  5
E8
330
17
100
AcDbEntity
  8
0
100
AcDbLine
 10
6.1959300699300766
 20
12.592238068580627
 30
0.0
 11
7.059500000000001
 21
12.592238068580627
 31
0.0
  0
LINE
  5
E9
330
17
100
AcDbEntity
  8
0
100
AcDbLine
 10
7.491628539071347
 20
12.592238068580627
 30
0.0
 11
7.530102156640181
 21
12.592238068580627
 31
0.0
  0
LINE
  5
EA
330
17
100
AcDbEntity
  8
0
100
AcDbLine
 10
7.530102156640181
 20
12.592238068580627
 30
0.0
 11
8.79756
 21
12.592238068580627
 31
0.0
  0
LINE
  5
EB
330
17
100
AcDbEntity
  8
0
100
AcDbLine
 10
8.79756
 20
12.592238068580627
 30
0.0
 11
8.8595
 21
12.592238068580627
 31
0.0
  0
LINE
  5
EC
330
17
100
AcDbEntity
  8
0
100
AcDbLine
 10
9.2925
 20
12.592238068580627
 30
0.0
 11
9.4445
 21
12.592238068580627
 31
0.0
  0
LINE
  5
ED
330
17
100
AcDbEntity
  8
0
100
AcDbLine
 10
9.4445
 20
12.592238068580627
 30
0.0
 11
10.659500000000001
 21
12.592238068580627
 31
0.0
  0
LINE
  5
EE
330
17
100
AcDbEntity
  8
0
100
AcDbLine
 10
11.092163873370577
 20
12.592238068580627
 30
0.0
 11
12.061437616387341
 21
12.592238068580627
 31
0.0
  0
LINE
  5
EF
330
17
100
AcDbEntity
  8
0
100
AcDbLine
 10
12.061437616387341
 20
12.592238068580627
 30
0.0
 11
12.4595
 21
12.592238068580627
 31
0.0
  0
LINE
  5
F0
330
17
100
AcDbEntity
  8
0
100
AcDbLine
 10
12.891846774193548
 20
12.592238068580627
 30
0.0
 11
12.905423387096773
 21
12.592238068580627
 31
0.0
  0
LINE
  5
F1
330
17
100
AcDbEntity
  8
0
100
AcDbLine
 10
12.905423387096773
 20
12.592238068580627
 30
0.0
 11
14.121560000000002
 21
12.592238068580627
 31
0.0
  0
LINE
  5
F2
330
17
100
AcDbEntity
  8
0
100
AcDbLine
 10
14.121560000000002
 20
12.592238068580627
 30
0.0
 11
14.259500000000001
 21
12.592238068580627
 31
0.0
  0
ENDSEC
  0
SECTION
  2
OBJECTS
  0
DICTIONARY
  5
A
330
0
100
AcDbDictionary
281
1
  3
ACAD_COLOR
350
B
  3
ACAD_GROUP
350
C
  3
ACAD_LAYOUT
350
D
  3
ACAD_MATERIAL
350
E
  3
ACAD_MLEADERSTYLE
350
F
  3
ACAD_MLINESTYLE
350
10
  3
ACAD_PLOTSETTINGS
350
11
  3
ACAD_PLOTSTYLENAME
350
12
  3
ACAD_SCALELIST
350
14
  3
ACAD_TABLESTYLE
350
15
  3
ACAD_VISUALSTYLE
350
16
  3
EZDXF_META
350
2D
  0
DICTIONARY
  5
B
330
A
100
AcDbDictionary
281
1
  0
DICTIONARY
  5
C
330
A
100
AcDbDictionary
281
1
  0
DICTIONARY
  5
D
330
A
100
AcDbDictionary
281
1
  3
Model
350
1A
  3
Layout1
350
1E
  0
DICTIONARY
  5
E
330
A
100
AcDbDictionary
281
1
  3
ByBlock
350
1F
  3
ByLayer
350
20
  3
Global
350
21
  0
DICTIONARY
  5
F
330
A
100
AcDbDictionary
281
1
  3
Standard
350
2C
  0
DICTIONARY
  5
10
330
A
100
AcDbDictionary
281
1
  3
Standard
350
22
  0
DICTIONARY
  5
11
330
A
100
AcDbDictionary
281
1
  0
ACDBDICTIONARYWDFLT
  5
12
330
A
100
AcDbDictionary
281
1
  3
Normal
350
13
100
AcDbDictionaryWithDefault
340
13
  0
ACDBPLACEHOLDER
  5
13
330
12
  0
DICTIONARY
  5
14
330
A
100
AcDbDictionary
281
1
  0
DICTIONARY
  5
15
330
A
100
AcDbDictionary
281
1
  0
DICTIONARY
  5
16
330
A
100
AcDbDictionary
281
1
  0
LAYOUT
  5
1A
330
D
100
AcDbPlotSettings
  1

  4
A3
  6

 40
7.5
 41
20.0
 42
7.5
 43
20.0
 44
420.0
 45
297.0
 46
0.0
 47
0.0
 48
0.0
 49
0.0
140
0.0
141
0.0
142
1.0
143
1.0
 70
1024
 72
1
 73
0
 74
5
  7

 75
16
 76
0
 77
2
 78
300
147
1.0
148
0.0
149
0.0
100
AcDbLayout
  1
Model
 70
1
 71
0
 10
0.0
 20
0.0
 11
420.0
 21
297.0
 12
0.0
 22
0.0
 32
0.0
 14
1e+20
 24
1e+20
 34
1e+20
 15
-1e+20
 25
-1e+20
 35
-1e+20
146
0.0
 13
0.0
 23
0.0
 33
0.0
 16
1.0
 26
0.0
 36
0.0
 17
0.0
 27
1.0
 37
0.0
 76
1
330
17
  0
LAYOUT
  5
1E
330
D
100
AcDbPlotSettings
  1

  4
A3
  6

 40
7.5
 41
20.0
 42
7.5
 43
20.0
 44
420.0
 45
297.0
 46
0.0
 47
0.0
 48
0.0
 49
0.0
140
0.0
141
0.0
142
1.0
143
1.0
 70
0
 72
1
 73
0
 74
5
  7

 75
16
 76
0
 77
2
 78
300
147
1.0
148
0.0
149
0.0
100
AcDbLayout
  1
Layout1
 70
1
 71
1
 10
0.0
 20
0.0
 11
420.0
 21
297.0
 12
0.0
 22
0.0
 32
0.0
 14
1e+20
 24
1e+20
 34
1e+20
 15
-1e+20
 25
-1e+20
 35
-1e+20
146
0.0
 13
0.0
 23
0.0
 33
0.0
 16
1.0
 26
0.0
 36
0.0
 17
0.0
 27
1.0
 37
0.0
 76
1
330
1B
  0
MATERIAL
  5
1F
102
{ACAD_REACTORS
330
E
102
}
330
E
100
AcDbMaterial
  1
ByBlock
  2

 70
0
 40
1.0
 71
1
 41
1.0
 91
-1023410177
 42
1.0
 72
1
  3

 73
1
 74
1
 75
1
 44
0.5
 73
0
 45
1.0
 46
1.0
 77
1
  4

 78
1
 79
1
170
1
 48
1.0
171
1
  6

172
1
173
1
174
1
140
1.0
141
1.0
175
1
  7

176
1
177
1
178
1
143
1.0
179
1
  8

270
1
271
1
272
1
145
1.0
146
1.0
273
1
  9

274
1
275
1
276
1
 42
1.0
 72
1
  3

 73
1
 74
1
 75
1
 94
63
  0
MATERIAL
  5
20
102
{ACAD_REACTORS
330
E
102
}
330
E
100
AcDbMaterial
  1
ByLayer
  2

 70
0
 40
1.0
 71
1
 41
1.0
 91
-1023410177
 42
1.0
 72
1
  3

 73
1
 74
1
 75
1
 44
0.5
 73
0
 45
1.0
 46
1.0
 77
1
  4

 78
1
 79
1
170
1
 48
1.0
171
1
  6

172
1
173
1
174
1
140
1.0
141
1.0
175
1
  7

176
1
177
1
178
1
143
1.0
179
1
  8

270
1
271
1
272
1
145
1.0
146
1.0
273
1
  9

274
1
275
1
276
1
 42
1.0
 72
1
  3

 73
1
 74
1
 75
1
 94
63
  0
MATERIAL
  5
21
102
{ACAD_REACTORS
330
E
102
}
330
E
100
AcDbMaterial
  1
Global
  2

 70
0
 40
1.0
 71
1
 41
1.0
 91
-1023410177
 42
1.0
 72
1
  3

 73
1
 74
1
 75
1
 44
0.5
 73
0
 45
1.0
 46
1.0
 77
1
  4

 78
1
 79
1
170
1
 48
1.0
171
1
  6

172
1
173
1
174
1
140
1.0
141
1.0
175
1
  7

176
1
177
1
178
1
143
1.0
179
1
  8

270
1
271
1
272
1
145
1.0
146
1.0
273
1
  9

274
1
275
1
276
1
 42
1.0
 72
1
  3

 73
1
 74
1
 75
1
 94
63
  0
MLINESTYLE
  5
22
102
{ACAD_REACTORS
330
10
102
}
330
10
100
AcDbMlineStyle
  2
Standard
 70
0
  3

 62
256
 51
90.0
 52
90.0
 71
2
 49
0.5
 62
256
  6
BYLAYER
 49
-0.5
 62
256
  6
BYLAYER
  0
MLEADERSTYLE
  5
2C
102
{ACAD_REACTORS
330
F
102
}
330
F
100
AcDbMLeaderStyle
179
2
170
2
171
1
172
0
 90
2
 40
0.0
 41
0.0
173
1
 91
-1056964608
 92
-2
290
1
 42
2.0
291
1
 43
8.0
  3
Standard
 44
4.0
300

342
29
174
1
175
1
176
0
178
1
 93
-1056964608
 45
4.0
292
0
297
0
 46
4.0
 94
-1056964608
 47
1.0
 49
1.0
140
1.0
294
1
141
0.0
177
0
142
1.0
295
0
296
0
143
3.75
271
0
272
9
273
9
  0
DICTIONARY
  5
2D
330
A
100
AcDbDictionary
280
1
281
1
  3
CREATED_BY_EZDXF
350
2E
  3
WRITTEN_BY_EZDXF
350
F5
  0
DICTIONARYVAR
  5
2E
330
2D
100
DictionaryVariables
280
0
  1
1.4.2 @ 2025-07-30T18:00:36.012141+00:00
  0
DICTIONARYVAR
  5
F5
330
2D
100
DictionaryVariables
280
0
  1
1.4.2 @ 2025-07-30T18:00:36.024873+00:00
  0
ENDSEC
  0
EOF
