  0
SECTION
  2
HEADER
  9
$ACADVER
  1
AC1024
  9
$ACADMAINTVER
 70
6
  9
$DWGCODEPAGE
  3
ANSI_1252
  9
$LASTSAVEDBY
  1
ezdxf
  9
$INSBASE
 10
0.0
 20
0.0
 30
0.0
  9
$EXTMIN
 10
1e+20
 20
1e+20
 30
1e+20
  9
$EXTMAX
 10
-1e+20
 20
-1e+20
 30
-1e+20
  9
$LIMMIN
 10
0.0
 20
0.0
  9
$LIMMAX
 10
420.0
 20
297.0
  9
$ORTHOMODE
 70
0
  9
$REGENMODE
 70
1
  9
$FILLMODE
 70
1
  9
$QTEXTMODE
 70
0
  9
$MIRRTEXT
 70
1
  9
$LTSCALE
 40
1.0
  9
$ATTMODE
 70
1
  9
$TEXTSIZE
 40
2.5
  9
$TRACEWID
 40
1.0
  9
$TEXTSTYLE
  7
Standard
  9
$CLAYER
  8
0
  9
$CELTYPE
  6
ByLayer
  9
$CECOLOR
 62
256
  9
$CELTSCALE
 40
1.0
  9
$DISPSILH
 70
0
  9
$DIMSCALE
 40
1.0
  9
$DIMASZ
 40
2.5
  9
$DIMEXO
 40
0.625
  9
$DIMDLI
 40
3.75
  9
$DIMRND
 40
0.0
  9
$DIMDLE
 40
0.0
  9
$DIMEXE
 40
1.25
  9
$DIMTP
 40
0.0
  9
$DIMTM
 40
0.0
  9
$DIMTXT
 40
2.5
  9
$DIMCEN
 40
2.5
  9
$DIMTSZ
 40
0.0
  9
$DIMTOL
 70
0
  9
$DIMLIM
 70
0
  9
$DIMTIH
 70
0
  9
$DIMTOH
 70
0
  9
$DIMSE1
 70
0
  9
$DIMSE2
 70
0
  9
$DIMTAD
 70
1
  9
$DIMZIN
 70
8
  9
$DIMBLK
  1

  9
$DIMASO
 70
1
  9
$DIMSHO
 70
1
  9
$DIMPOST
  1

  9
$DIMAPOST
  1

  9
$DIMALT
 70
0
  9
$DIMALTD
 70
3
  9
$DIMALTF
 40
0.03937007874
  9
$DIMLFAC
 40
1.0
  9
$DIMTOFL
 70
1
  9
$DIMTVP
 40
0.0
  9
$DIMTIX
 70
0
  9
$DIMSOXD
 70
0
  9
$DIMSAH
 70
0
  9
$DIMBLK1
  1

  9
$DIMBLK2
  1

  9
$DIMSTYLE
  2
ISO-25
  9
$DIMCLRD
 70
0
  9
$DIMCLRE
 70
0
  9
$DIMCLRT
 70
0
  9
$DIMTFAC
 40
1.0
  9
$DIMGAP
 40
0.625
  9
$DIMJUST
 70
0
  9
$DIMSD1
 70
0
  9
$DIMSD2
 70
0
  9
$DIMTOLJ
 70
0
  9
$DIMTZIN
 70
8
  9
$DIMALTZ
 70
0
  9
$DIMALTTZ
 70
0
  9
$DIMUPT
 70
0
  9
$DIMDEC
 70
2
  9
$DIMTDEC
 70
2
  9
$DIMALTU
 70
2
  9
$DIMALTTD
 70
3
  9
$DIMTXSTY
  7
Standard
  9
$DIMAUNIT
 70
0
  9
$DIMADEC
 70
0
  9
$DIMALTRND
 40
0.0
  9
$DIMAZIN
 70
0
  9
$DIMDSEP
 70
44
  9
$DIMATFIT
 70
3
  9
$DIMFRAC
 70
0
  9
$DIMLDRBLK
  1

  9
$DIMLUNIT
 70
2
  9
$DIMLWD
 70
-2
  9
$DIMLWE
 70
-2
  9
$DIMTMOVE
 70
0
  9
$DIMFXL
 40
1.0
  9
$DIMFXLON
 70
0
  9
$DIMJOGANG
 40
0.785398163397
  9
$DIMTFILL
 70
0
  9
$DIMTFILLCLR
 70
0
  9
$DIMARCSYM
 70
0
  9
$DIMLTYPE
  6

  9
$DIMLTEX1
  6

  9
$DIMLTEX2
  6

  9
$DIMTXTDIRECTION
 70
0
  9
$LUNITS
 70
2
  9
$LUPREC
 70
4
  9
$SKETCHINC
 40
1.0
  9
$FILLETRAD
 40
10.0
  9
$AUNITS
 70
0
  9
$AUPREC
 70
2
  9
$MENU
  1
.
  9
$ELEVATION
 40
0.0
  9
$PELEVATION
 40
0.0
  9
$THICKNESS
 40
0.0
  9
$LIMCHECK
 70
0
  9
$CHAMFERA
 40
0.0
  9
$CHAMFERB
 40
0.0
  9
$CHAMFERC
 40
0.0
  9
$CHAMFERD
 40
0.0
  9
$SKPOLY
 70
0
  9
$TDCREATE
 40
2460888.4225578704
  9
$TDUCREATE
 40
2458532.153996898
  9
$TDUPDATE
 40
2460888.4225578704
  9
$TDUUPDATE
 40
2458532.1544311
  9
$TDINDWG
 40
0.0
  9
$TDUSRTIMER
 40
0.0
  9
$USRTIMER
 70
1
  9
$ANGBASE
 50
0.0
  9
$ANGDIR
 70
0
  9
$PDMODE
 70
0
  9
$PDSIZE
 40
0.0
  9
$PLINEWID
 40
0.0
  9
$SPLFRAME
 70
0
  9
$SPLINETYPE
 70
6
  9
$SPLINESEGS
 70
8
  9
$HANDSEED
  5
3EC
  9
$SURFTAB1
 70
6
  9
$SURFTAB2
 70
6
  9
$SURFTYPE
 70
6
  9
$SURFU
 70
6
  9
$SURFV
 70
6
  9
$UCSBASE
  2

  9
$UCSNAME
  2

  9
$UCSORG
 10
0.0
 20
0.0
 30
0.0
  9
$UCSXDIR
 10
1.0
 20
0.0
 30
0.0
  9
$UCSYDIR
 10
0.0
 20
1.0
 30
0.0
  9
$UCSORTHOREF
  2

  9
$UCSORTHOVIEW
 70
0
  9
$UCSORGTOP
 10
0.0
 20
0.0
 30
0.0
  9
$UCSORGBOTTOM
 10
0.0
 20
0.0
 30
0.0
  9
$UCSORGLEFT
 10
0.0
 20
0.0
 30
0.0
  9
$UCSORGRIGHT
 10
0.0
 20
0.0
 30
0.0
  9
$UCSORGFRONT
 10
0.0
 20
0.0
 30
0.0
  9
$UCSORGBACK
 10
0.0
 20
0.0
 30
0.0
  9
$PUCSBASE
  2

  9
$PUCSNAME
  2

  9
$PUCSORG
 10
0.0
 20
0.0
 30
0.0
  9
$PUCSXDIR
 10
1.0
 20
0.0
 30
0.0
  9
$PUCSYDIR
 10
0.0
 20
1.0
 30
0.0
  9
$PUCSORTHOREF
  2

  9
$PUCSORTHOVIEW
 70
0
  9
$PUCSORGTOP
 10
0.0
 20
0.0
 30
0.0
  9
$PUCSORGBOTTOM
 10
0.0
 20
0.0
 30
0.0
  9
$PUCSORGLEFT
 10
0.0
 20
0.0
 30
0.0
  9
$PUCSORGRIGHT
 10
0.0
 20
0.0
 30
0.0
  9
$PUCSORGFRONT
 10
0.0
 20
0.0
 30
0.0
  9
$PUCSORGBACK
 10
0.0
 20
0.0
 30
0.0
  9
$USERI1
 70
0
  9
$USERI2
 70
0
  9
$USERI3
 70
0
  9
$USERI4
 70
0
  9
$USERI5
 70
0
  9
$USERR1
 40
0.0
  9
$USERR2
 40
0.0
  9
$USERR3
 40
0.0
  9
$USERR4
 40
0.0
  9
$USERR5
 40
0.0
  9
$WORLDVIEW
 70
1
  9
$SHADEDGE
 70
3
  9
$SHADEDIF
 70
70
  9
$TILEMODE
 70
1
  9
$MAXACTVP
 70
64
  9
$PINSBASE
 10
0.0
 20
0.0
 30
0.0
  9
$PLIMCHECK
 70
0
  9
$PEXTMIN
 10
1e+20
 20
1e+20
 30
1e+20
  9
$PEXTMAX
 10
-1e+20
 20
-1e+20
 30
-1e+20
  9
$PLIMMIN
 10
0.0
 20
0.0
  9
$PLIMMAX
 10
420.0
 20
297.0
  9
$UNITMODE
 70
0
  9
$VISRETAIN
 70
1
  9
$PLINEGEN
 70
0
  9
$PSLTSCALE
 70
1
  9
$TREEDEPTH
 70
3020
  9
$CMLSTYLE
  2
Standard
  9
$CMLJUST
 70
0
  9
$CMLSCALE
 40
20.0
  9
$PROXYGRAPHICS
 70
1
  9
$MEASUREMENT
 70
1
  9
$CELWEIGHT
370
-1
  9
$ENDCAPS
280
0
  9
$JOINSTYLE
280
0
  9
$LWDISPLAY
290
0
  9
$INSUNITS
 70
6
  9
$HYPERLINKBASE
  1

  9
$STYLESHEET
  1

  9
$XEDIT
290
1
  9
$CEPSNTYPE
380
0
  9
$PSTYLEMODE
290
1
  9
$FINGERPRINTGUID
  2
{AE0D07D3-6E1C-4906-AC33-564E39B9B0A5}
  9
$VERSIONGUID
  2
{0765D119-5ECC-4065-965E-BA52AA149D35}
  9
$EXTNAMES
290
1
  9
$PSVPSCALE
 40
0.0
  9
$OLESTARTUP
290
0
  9
$SORTENTS
280
127
  9
$INDEXCTL
280
0
  9
$HIDETEXT
280
1
  9
$XCLIPFRAME
280
1
  9
$HALOGAP
280
0
  9
$OBSCOLOR
 70
257
  9
$OBSLTYPE
280
0
  9
$INTERSECTIONDISPLAY
280
0
  9
$INTERSECTIONCOLOR
 70
257
  9
$DIMASSOC
280
2
  9
$PROJECTNAME
  1

  9
$CAMERADISPLAY
290
0
  9
$LENSLENGTH
 40
50.0
  9
$CAMERAHEIGHT
 40
0.0
  9
$STEPSPERSEC
 40
24.0
  9
$STEPSIZE
 40
100.0
  9
$3DDWFPREC
 40
2.0
  9
$PSOLWIDTH
 40
0.005
  9
$PSOLHEIGHT
 40
0.08
  9
$LOFTANG1
 40
1.570796326795
  9
$LOFTANG2
 40
1.570796326795
  9
$LOFTMAG1
 40
0.0
  9
$LOFTMAG2
 40
0.0
  9
$LOFTPARAM
 70
7
  9
$LOFTNORMALS
280
1
  9
$LATITUDE
 40
37.795
  9
$LONGITUDE
 40
-122.394
  9
$NORTHDIRECTION
 40
0.0
  9
$TIMEZONE
 70
-8000
  9
$LIGHTGLYPHDISPLAY
280
1
  9
$TILEMODELIGHTSYNCH
280
1
  9
$CMATERIAL
347
20
  9
$SOLIDHIST
280
0
  9
$SHOWHIST
280
1
  9
$DWFFRAME
280
2
  9
$DGNFRAME
280
2
  9
$REALWORLDSCALE
290
1
  9
$INTERFERECOLOR
 62
256
  9
$CSHADOW
280
0
  9
$SHADOWPLANELOCATION
 40
0.0
  0
ENDSEC
  0
SECTION
  2
CLASSES
  0
CLASS
  1
ACDBDICTIONARYWDFLT
  2
AcDbDictionaryWithDefault
  3
ObjectDBX Classes
 90
0
 91
0
280
0
281
0
  0
CLASS
  1
SUN
  2
AcDbSun
  3
SCENEOE
 90
1153
 91
0
280
0
281
0
  0
CLASS
  1
VISUALSTYLE
  2
AcDbVisualStyle
  3
ObjectDBX Classes
 90
4095
 91
0
280
0
281
0
  0
CLASS
  1
MATERIAL
  2
AcDbMaterial
  3
ObjectDBX Classes
 90
1153
 91
0
280
0
281
0
  0
CLASS
  1
SCALE
  2
AcDbScale
  3
ObjectDBX Classes
 90
1153
 91
0
280
0
281
0
  0
CLASS
  1
TABLESTYLE
  2
AcDbTableStyle
  3
ObjectDBX Classes
 90
4095
 91
0
280
0
281
0
  0
CLASS
  1
MLEADERSTYLE
  2
AcDbMLeaderStyle
  3
ACDB_MLEADERSTYLE_CLASS
 90
4095
 91
0
280
0
281
0
  0
CLASS
  1
DICTIONARYVAR
  2
AcDbDictionaryVar
  3
ObjectDBX Classes
 90
0
 91
0
280
0
281
0
  0
CLASS
  1
CELLSTYLEMAP
  2
AcDbCellStyleMap
  3
ObjectDBX Classes
 90
1152
 91
0
280
0
281
0
  0
CLASS
  1
MENTALRAYRENDERSETTINGS
  2
AcDbMentalRayRenderSettings
  3
SCENEOE
 90
1024
 91
0
280
0
281
0
  0
CLASS
  1
ACDBDETAILVIEWSTYLE
  2
AcDbDetailViewStyle
  3
ObjectDBX Classes
 90
1025
 91
0
280
0
281
0
  0
CLASS
  1
ACDBSECTIONVIEWSTYLE
  2
AcDbSectionViewStyle
  3
ObjectDBX Classes
 90
1025
 91
0
280
0
281
0
  0
CLASS
  1
RASTERVARIABLES
  2
AcDbRasterVariables
  3
ISM
 90
0
 91
0
280
0
281
0
  0
CLASS
  1
LAYOUT
  2
AcDbLayout
  3
ObjectDBX Classes
 90
0
 91
0
280
0
281
0
  0
CLASS
  1
ACDBPLACEHOLDER
  2
AcDbPlaceHolder
  3
ObjectDBX Classes
 90
0
 91
0
280
0
281
0
  0
ENDSEC
  0
SECTION
  2
TABLES
  0
TABLE
  2
VPORT
  5
8
330
0
100
AcDbSymbolTable
 70
1
  0
VPORT
  5
23
330
8
100
AcDbSymbolTableRecord
100
AcDbViewportTableRecord
  2
*Active
 70
0
 10
0.0
 20
0.0
 11
1.0
 21
1.0
 12
0.0
 22
0.0
 13
0.0
 23
0.0
 14
0.5
 24
0.5
 15
0.5
 25
0.5
 16
0.0
 26
0.0
 36
1.0
 17
0.0
 27
0.0
 37
0.0
 40
1000.0
 41
1.34
 42
50.0
 43
0.0
 44
0.0
 50
0.0
 51
0.0
 71
0
 72
1000
 73
1
 74
3
 75
0
 76
0
 77
0
 78
0
281
0
 65
0
146
0.0
  0
ENDTAB
  0
TABLE
  2
LTYPE
  5
2
330
0
100
AcDbSymbolTable
 70
3
  0
LTYPE
  5
24
330
2
100
AcDbSymbolTableRecord
100
AcDbLinetypeTableRecord
  2
ByBlock
 70
0
  3

 72
65
 73
0
 40
0.0
  0
LTYPE
  5
25
330
2
100
AcDbSymbolTableRecord
100
AcDbLinetypeTableRecord
  2
ByLayer
 70
0
  3

 72
65
 73
0
 40
0.0
  0
LTYPE
  5
26
330
2
100
AcDbSymbolTableRecord
100
AcDbLinetypeTableRecord
  2
Continuous
 70
0
  3

 72
65
 73
0
 40
0.0
  0
ENDTAB
  0
TABLE
  2
LAYER
  5
1
330
0
100
AcDbSymbolTable
 70
2
  0
LAYER
  5
27
330
1
100
AcDbSymbolTableRecord
100
AcDbLayerTableRecord
  2
0
 70
0
 62
7
  6
Continuous
370
-3
390
13
347
21
  0
LAYER
  5
28
330
1
100
AcDbSymbolTableRecord
100
AcDbLayerTableRecord
  2
Defpoints
 70
0
 62
7
  6
Continuous
290
0
370
-3
390
13
347
21
  0
ENDTAB
  0
TABLE
  2
STYLE
  5
5
330
0
100
AcDbSymbolTable
 70
1
  0
STYLE
  5
29
330
5
100
AcDbSymbolTableRecord
100
AcDbTextStyleTableRecord
  2
Standard
 70
0
 40
0.0
 41
1.0
 50
0.0
 71
0
 42
2.5
  3
txt
  4

  0
ENDTAB
  0
TABLE
  2
VIEW
  5
7
330
0
100
AcDbSymbolTable
 70
0
  0
ENDTAB
  0
TABLE
  2
UCS
  5
6
330
0
100
AcDbSymbolTable
 70
0
  0
ENDTAB
  0
TABLE
  2
APPID
  5
3
330
0
100
AcDbSymbolTable
 70
3
  0
APPID
  5
2A
330
3
100
AcDbSymbolTableRecord
100
AcDbRegAppTableRecord
  2
ACAD
 70
0
  0
APPID
  5
3E9
330
3
100
AcDbSymbolTableRecord
100
AcDbRegAppTableRecord
  2
HATCHBACKGROUNDCOLOR
 70
0
  0
APPID
  5
3EA
330
3
100
AcDbSymbolTableRecord
100
AcDbRegAppTableRecord
  2
EZDXF
 70
0
  0
ENDTAB
  0
TABLE
  2
DIMSTYLE
  5
4
330
0
100
AcDbSymbolTable
 70
1
100
AcDbDimStyleTable
  0
DIMSTYLE
105
2B
330
4
100
AcDbSymbolTableRecord
100
AcDbDimStyleTableRecord
  2
Standard
 70
0
 40
1.0
 41
2.5
 42
0.625
 43
3.75
 44
1.25
 45
0.0
 46
0.0
 47
0.0
 48
0.0
 49
2.5
140
2.5
141
2.5
142
0.0
143
0.03937007874
144
1.0
145
0.0
146
1.0
147
0.625
148
0.0
 69
0
 70
0
 71
0
 72
0
 73
0
 74
0
 75
0
 76
0
 77
1
 78
8
 79
3
170
0
171
3
172
1
173
0
174
0
175
0
176
0
177
0
178
0
179
2
271
2
272
2
273
2
274
3
275
0
276
0
277
2
278
44
279
0
280
0
281
0
282
0
283
0
284
8
285
0
286
0
288
0
289
3
290
0
371
-2
372
-2
  0
ENDTAB
  0
TABLE
  2
BLOCK_RECORD
  5
9
330
0
100
AcDbSymbolTable
 70
2
  0
BLOCK_RECORD
  5
17
330
9
100
AcDbSymbolTableRecord
100
AcDbBlockTableRecord
  2
*Model_Space
340
1A
 70
0
280
1
281
0
  0
BLOCK_RECORD
  5
1B
330
9
100
AcDbSymbolTableRecord
100
AcDbBlockTableRecord
  2
*Paper_Space
340
1E
 70
0
280
1
281
0
  0
ENDTAB
  0
ENDSEC
  0
SECTION
  2
BLOCKS
  0
BLOCK
  5
18
330
17
100
AcDbEntity
  8
0
100
AcDbBlockBegin
  2
*Model_Space
 70
0
 10
0.0
 20
0.0
 30
0.0
  3
*Model_Space
  1

  0
ENDBLK
  5
19
330
17
100
AcDbEntity
  8
0
100
AcDbBlockEnd
  0
BLOCK
  5
1C
330
1B
100
AcDbEntity
  8
0
100
AcDbBlockBegin
  2
*Paper_Space
 70
0
 10
0.0
 20
0.0
 30
0.0
  3
*Paper_Space
  1

  0
ENDBLK
  5
1D
330
1B
100
AcDbEntity
  8
0
100
AcDbBlockEnd
  0
ENDSEC
  0
SECTION
  2
ENTITIES
  0
LWPOLYLINE
  5
2F
330
17
100
AcDbEntity
  8
0
100
AcDbPolyline
 90
18
 70
1
 10
2.38842311514486
 20
0.4308239900882035
 10
7.123436548294367
 20
0.5803476157231808
 10
12.831245438915863
 20
0.4489807605543568
 10
14.000189259076423
 20
0.6186352455888476
 10
14.506844573975641
 20
1.027810791796263
 10
14.747629935884005
 20
2.356734803872874
 10
14.60153369553657
 20
14.63761196884604
 10
2.3035547785927277
 20
14.751616727614271
 10
1.2944590017905162
 20
14.62449111406915
 10
0.8176923395579824
 20
14.337476895737833
 10
0.5730831651392784
 20
13.875732073697696
 10
0.435983015131866
 20
12.708077423867644
 10
0.5823729306191616
 20
7.860731114082969
 10
0.45916299951002804
 20
2.0684889974145935
 10
0.56236503254168
 20
1.3382933646503088
 10
0.80679851770401
 20
0.8573096394538879
 10
1.2484748967073926
 20
0.5859287336773712
 10
2.38842311514486
 20
0.4308239900882035
  0
LWPOLYLINE
  5
30
330
17
100
AcDbEntity
  8
0
100
AcDbPolyline
 90
18
 70
1
 10
2.38842311514486
 20
0.4308239900882035
 10
7.123436548294367
 20
0.5803476157231808
 10
12.831245438915863
 20
0.4489807605543568
 10
14.000189259076423
 20
0.6186352455888476
 10
14.506844573975641
 20
1.027810791796263
 10
14.747629935884005
 20
2.356734803872874
 10
14.60153369553657
 20
14.63761196884604
 10
2.3035547785927277
 20
14.751616727614271
 10
1.2944590017905162
 20
14.62449111406915
 10
0.8176923395579824
 20
14.337476895737833
 10
0.5730831651392784
 20
13.875732073697696
 10
0.435983015131866
 20
12.708077423867644
 10
0.5823729306191616
 20
7.860731114082969
 10
0.45916299951002804
 20
2.0684889974145935
 10
0.56236503254168
 20
1.3382933646503088
 10
0.80679851770401
 20
0.8573096394538879
 10
1.2484748967073926
 20
0.5859287336773712
 10
2.38842311514486
 20
0.4308239900882035
  0
LINE
  5
31
330
17
100
AcDbEntity
  8
0
100
AcDbLine
 10
0.5928489565849304
 20
1.7464999999999997
 30
0.0
 11
0.5928489565849304
 21
2.4215000000000013
 31
0.0
  0
LINE
  5
32
330
17
100
AcDbEntity
  8
0
100
AcDbLine
 10
0.5928489565849304
 20
1.7464999999999997
 30
0.0
 11
0.5928489565849304
 21
2.4215000000000013
 31
0.0
  0
LINE
  5
33
330
17
100
AcDbEntity
  8
0
100
AcDbLine
 10
0.5928489565849304
 20
2.4215000000000013
 30
0.0
 11
0.5928489565849304
 21
2.8615000000000004
 31
0.0
  0
LINE
  5
34
330
17
100
AcDbEntity
  8
0
100
AcDbLine
 10
0.5928489565849304
 20
3.5464999999999995
 30
0.0
 11
0.5928489565849304
 21
4.221500000000002
 31
0.0
  0
LINE
  5
35
330
17
100
AcDbEntity
  8
0
100
AcDbLine
 10
0.5928489565849304
 20
4.221500000000002
 30
0.0
 11
0.5928489565849304
 21
4.6615
 31
0.0
  0
LINE
  5
36
330
17
100
AcDbEntity
  8
0
100
AcDbLine
 10
0.5928489565849304
 20
5.3465
 30
0.0
 11
0.5928489565849304
 21
6.021500000000001
 31
0.0
  0
LINE
  5
37
330
17
100
AcDbEntity
  8
0
100
AcDbLine
 10
0.5928489565849304
 20
6.021500000000001
 30
0.0
 11
0.5928489565849304
 21
6.461500000000001
 31
0.0
  0
LINE
  5
38
330
17
100
AcDbEntity
  8
0
100
AcDbLine
 10
0.5928489565849304
 20
7.1465
 30
0.0
 11
0.5928489565849304
 21
7.821500000000002
 31
0.0
  0
LINE
  5
39
330
17
100
AcDbEntity
  8
0
100
AcDbLine
 10
0.5928489565849304
 20
7.821500000000002
 30
0.0
 11
0.5928489565849304
 21
8.261500000000002
 31
0.0
  0
LINE
  5
3A
330
17
100
AcDbEntity
  8
0
100
AcDbLine
 10
0.5928489565849304
 20
8.9465
 30
0.0
 11
0.5928489565849304
 21
9.621500000000001
 31
0.0
  0
LINE
  5
3B
330
17
100
AcDbEntity
  8
0
100
AcDbLine
 10
0.5928489565849304
 20
9.621500000000001
 30
0.0
 11
0.5928489565849304
 21
10.0615
 31
0.0
  0
LINE
  5
3C
330
17
100
AcDbEntity
  8
0
100
AcDbLine
 10
0.5928489565849304
 20
10.7465
 30
0.0
 11
0.5928489565849304
 21
11.421500000000002
 31
0.0
  0
LINE
  5
3D
330
17
100
AcDbEntity
  8
0
100
AcDbLine
 10
0.5928489565849304
 20
11.421500000000002
 30
0.0
 11
0.5928489565849304
 21
11.861500000000001
 31
0.0
  0
LINE
  5
3E
330
17
100
AcDbEntity
  8
0
100
AcDbLine
 10
0.5928489565849304
 20
12.5465
 30
0.0
 11
0.5928489565849304
 21
13.22201801801802
 31
0.0
  0
LINE
  5
3F
330
17
100
AcDbEntity
  8
0
100
AcDbLine
 10
0.5928489565849304
 20
13.22201801801802
 30
0.0
 11
0.5928489565849304
 21
13.661657657657658
 31
0.0
  0
LINE
  5
40
330
17
100
AcDbEntity
  8
0
100
AcDbLine
 10
0.5928489565849304
 20
13.895216216216216
 30
0.0
 11
0.5928489565849304
 21
13.929
 31
0.0
  0
LINE
  5
41
330
17
100
AcDbEntity
  8
0
100
AcDbLine
 10
1.0928489565849304
 20
1.1464999999999996
 30
0.0
 11
1.0928489565849304
 21
1.5864999999999987
 31
0.0
  0
LINE
  5
42
330
17
100
AcDbEntity
  8
0
100
AcDbLine
 10
1.0928489565849304
 20
1.1464999999999996
 30
0.0
 11
1.0928489565849304
 21
1.5864999999999987
 31
0.0
  0
LINE
  5
43
330
17
100
AcDbEntity
  8
0
100
AcDbLine
 10
1.0928489565849304
 20
1.5864999999999987
 30
0.0
 11
1.0928489565849304
 21
2.2615000000000003
 31
0.0
  0
LINE
  5
44
330
17
100
AcDbEntity
  8
0
100
AcDbLine
 10
1.0928489565849304
 20
2.2615000000000003
 30
0.0
 11
1.0928489565849304
 21
2.2620500000000003
 31
0.0
  0
LINE
  5
45
330
17
100
AcDbEntity
  8
0
100
AcDbLine
 10
1.0928489565849304
 20
2.9465
 30
0.0
 11
1.0928489565849304
 21
3.386499999999999
 31
0.0
  0
LINE
  5
46
330
17
100
AcDbEntity
  8
0
100
AcDbLine
 10
1.0928489565849304
 20
3.386499999999999
 30
0.0
 11
1.0928489565849304
 21
4.0615000000000006
 31
0.0
  0
LINE
  5
47
330
17
100
AcDbEntity
  8
0
100
AcDbLine
 10
1.0928489565849304
 20
4.0615000000000006
 30
0.0
 11
1.0928489565849304
 21
4.062050000000001
 31
0.0
  0
LINE
  5
48
330
17
100
AcDbEntity
  8
0
100
AcDbLine
 10
1.0928489565849304
 20
4.746499999999999
 30
0.0
 11
1.0928489565849304
 21
5.186499999999999
 31
0.0
  0
LINE
  5
49
330
17
100
AcDbEntity
  8
0
100
AcDbLine
 10
1.0928489565849304
 20
5.186499999999999
 30
0.0
 11
1.0928489565849304
 21
5.8615
 31
0.0
  0
LINE
  5
4A
330
17
100
AcDbEntity
  8
0
100
AcDbLine
 10
1.0928489565849304
 20
5.8615
 30
0.0
 11
1.0928489565849304
 21
5.862050000000001
 31
0.0
  0
LINE
  5
4B
330
17
100
AcDbEntity
  8
0
100
AcDbLine
 10
1.0928489565849304
 20
6.5465
 30
0.0
 11
1.0928489565849304
 21
6.9864999999999995
 31
0.0
  0
LINE
  5
4C
330
17
100
AcDbEntity
  8
0
100
AcDbLine
 10
1.0928489565849304
 20
6.9864999999999995
 30
0.0
 11
1.0928489565849304
 21
7.6615
 31
0.0
  0
LINE
  5
4D
330
17
100
AcDbEntity
  8
0
100
AcDbLine
 10
1.0928489565849304
 20
7.6615
 30
0.0
 11
1.0928489565849304
 21
7.662050000000001
 31
0.0
  0
LINE
  5
4E
330
17
100
AcDbEntity
  8
0
100
AcDbLine
 10
1.0928489565849304
 20
8.346499999999999
 30
0.0
 11
1.0928489565849304
 21
9.021500000000001
 31
0.0
  0
LINE
  5
4F
330
17
100
AcDbEntity
  8
0
100
AcDbLine
 10
1.0928489565849304
 20
9.021500000000001
 30
0.0
 11
1.0928489565849304
 21
9.461500000000001
 31
0.0
  0
LINE
  5
50
330
17
100
AcDbEntity
  8
0
100
AcDbLine
 10
1.0928489565849304
 20
9.461500000000001
 30
0.0
 11
1.0928489565849304
 21
9.46205
 31
0.0
  0
LINE
  5
51
330
17
100
AcDbEntity
  8
0
100
AcDbLine
 10
1.0928489565849304
 20
10.1465
 30
0.0
 11
1.0928489565849304
 21
10.821500000000002
 31
0.0
  0
LINE
  5
52
330
17
100
AcDbEntity
  8
0
100
AcDbLine
 10
1.0928489565849304
 20
10.821500000000002
 30
0.0
 11
1.0928489565849304
 21
11.261500000000002
 31
0.0
  0
LINE
  5
53
330
17
100
AcDbEntity
  8
0
100
AcDbLine
 10
1.0928489565849304
 20
11.261500000000002
 30
0.0
 11
1.0928489565849304
 21
11.26205
 31
0.0
  0
LINE
  5
54
330
17
100
AcDbEntity
  8
0
100
AcDbLine
 10
1.0928489565849304
 20
11.9465
 30
0.0
 11
1.0928489565849304
 21
12.621500000000001
 31
0.0
  0
LINE
  5
55
330
17
100
AcDbEntity
  8
0
100
AcDbLine
 10
1.0928489565849304
 20
12.621500000000001
 30
0.0
 11
1.0928489565849304
 21
13.0615
 31
0.0
  0
LINE
  5
56
330
17
100
AcDbEntity
  8
0
100
AcDbLine
 10
1.0928489565849304
 20
13.0615
 30
0.0
 11
1.0928489565849304
 21
13.062050000000001
 31
0.0
  0
LINE
  5
57
330
17
100
AcDbEntity
  8
0
100
AcDbLine
 10
1.0928489565849304
 20
13.7465
 30
0.0
 11
1.0928489565849304
 21
14.18885
 31
0.0
  0
LINE
  5
58
330
17
100
AcDbEntity
  8
0
100
AcDbLine
 10
1.5928489565849304
 20
0.9964999999999996
 30
0.0
 11
1.5928489565849304
 21
1.4364999999999988
 31
0.0
  0
LINE
  5
59
330
17
100
AcDbEntity
  8
0
100
AcDbLine
 10
1.5928489565849304
 20
0.9964999999999996
 30
0.0
 11
1.5928489565849304
 21
1.4364999999999988
 31
0.0
  0
LINE
  5
5A
330
17
100
AcDbEntity
  8
0
100
AcDbLine
 10
1.5928489565849304
 20
1.4364999999999988
 30
0.0
 11
1.5928489565849304
 21
2.1115000000000004
 31
0.0
  0
LINE
  5
5B
330
17
100
AcDbEntity
  8
0
100
AcDbLine
 10
1.5928489565849304
 20
2.7964999999999995
 30
0.0
 11
1.5928489565849304
 21
3.4715000000000016
 31
0.0
  0
LINE
  5
5C
330
17
100
AcDbEntity
  8
0
100
AcDbLine
 10
1.5928489565849304
 20
3.4715000000000016
 30
0.0
 11
1.5928489565849304
 21
3.9115
 31
0.0
  0
LINE
  5
5D
330
17
100
AcDbEntity
  8
0
100
AcDbLine
 10
1.5928489565849304
 20
4.5965
 30
0.0
 11
1.5928489565849304
 21
5.271500000000001
 31
0.0
  0
LINE
  5
5E
330
17
100
AcDbEntity
  8
0
100
AcDbLine
 10
1.5928489565849304
 20
5.271500000000001
 30
0.0
 11
1.5928489565849304
 21
5.711500000000001
 31
0.0
  0
LINE
  5
5F
330
17
100
AcDbEntity
  8
0
100
AcDbLine
 10
1.5928489565849304
 20
6.3965
 30
0.0
 11
1.5928489565849304
 21
7.071500000000001
 31
0.0
  0
LINE
  5
60
330
17
100
AcDbEntity
  8
0
100
AcDbLine
 10
1.5928489565849304
 20
7.071500000000001
 30
0.0
 11
1.5928489565849304
 21
7.5115
 31
0.0
  0
LINE
  5
61
330
17
100
AcDbEntity
  8
0
100
AcDbLine
 10
1.5928489565849304
 20
8.1965
 30
0.0
 11
1.5928489565849304
 21
8.871500000000001
 31
0.0
  0
LINE
  5
62
330
17
100
AcDbEntity
  8
0
100
AcDbLine
 10
1.5928489565849304
 20
8.871500000000001
 30
0.0
 11
1.5928489565849304
 21
9.3115
 31
0.0
  0
LINE
  5
63
330
17
100
AcDbEntity
  8
0
100
AcDbLine
 10
1.5928489565849304
 20
9.9965
 30
0.0
 11
1.5928489565849304
 21
10.671500000000002
 31
0.0
  0
LINE
  5
64
330
17
100
AcDbEntity
  8
0
100
AcDbLine
 10
1.5928489565849304
 20
10.671500000000002
 30
0.0
 11
1.5928489565849304
 21
11.111500000000001
 31
0.0
  0
LINE
  5
65
330
17
100
AcDbEntity
  8
0
100
AcDbLine
 10
1.5928489565849304
 20
11.7965
 30
0.0
 11
1.5928489565849304
 21
12.2365
 31
0.0
  0
LINE
  5
66
330
17
100
AcDbEntity
  8
0
100
AcDbLine
 10
1.5928489565849304
 20
12.2365
 30
0.0
 11
1.5928489565849304
 21
12.9115
 31
0.0
  0
LINE
  5
67
330
17
100
AcDbEntity
  8
0
100
AcDbLine
 10
1.5928489565849304
 20
13.596499999999999
 30
0.0
 11
1.5928489565849304
 21
14.17745
 31
0.0
  0
LINE
  5
68
330
17
100
AcDbEntity
  8
0
100
AcDbLine
 10
2.0928489565849304
 20
0.9384999999999997
 30
0.0
 11
2.0928489565849304
 21
0.9390499999999996
 31
0.0
  0
LINE
  5
69
330
17
100
AcDbEntity
  8
0
100
AcDbLine
 10
2.0928489565849304
 20
0.9384999999999997
 30
0.0
 11
2.0928489565849304
 21
0.9390499999999996
 31
0.0
  0
LINE
  5
6A
330
17
100
AcDbEntity
  8
0
100
AcDbLine
 10
2.0928489565849304
 20
0.9390499999999996
 30
0.0
 11
2.0928489565849304
 21
1.6145000000000012
 31
0.0
  0
LINE
  5
6B
330
17
100
AcDbEntity
  8
0
100
AcDbLine
 10
2.0928489565849304
 20
1.6145000000000012
 30
0.0
 11
2.0928489565849304
 21
2.0545000000000004
 31
0.0
  0
LINE
  5
6C
330
17
100
AcDbEntity
  8
0
100
AcDbLine
 10
2.0928489565849304
 20
2.7384999999999997
 30
0.0
 11
2.0928489565849304
 21
2.7390499999999998
 31
0.0
  0
LINE
  5
6D
330
17
100
AcDbEntity
  8
0
100
AcDbLine
 10
2.0928489565849304
 20
2.7390499999999998
 30
0.0
 11
2.0928489565849304
 21
3.414500000000001
 31
0.0
  0
LINE
  5
6E
330
17
100
AcDbEntity
  8
0
100
AcDbLine
 10
2.0928489565849304
 20
3.414500000000001
 30
0.0
 11
2.0928489565849304
 21
3.8545000000000003
 31
0.0
  0
LINE
  5
6F
330
17
100
AcDbEntity
  8
0
100
AcDbLine
 10
2.0928489565849304
 20
4.538499999999999
 30
0.0
 11
2.0928489565849304
 21
4.53905
 31
0.0
  0
LINE
  5
70
330
17
100
AcDbEntity
  8
0
100
AcDbLine
 10
2.0928489565849304
 20
4.53905
 30
0.0
 11
2.0928489565849304
 21
5.214500000000001
 31
0.0
  0
LINE
  5
71
330
17
100
AcDbEntity
  8
0
100
AcDbLine
 10
2.0928489565849304
 20
5.214500000000001
 30
0.0
 11
2.0928489565849304
 21
5.6545000000000005
 31
0.0
  0
LINE
  5
72
330
17
100
AcDbEntity
  8
0
100
AcDbLine
 10
2.0928489565849304
 20
6.3385
 30
0.0
 11
2.0928489565849304
 21
6.339049999999999
 31
0.0
  0
LINE
  5
73
330
17
100
AcDbEntity
  8
0
100
AcDbLine
 10
2.0928489565849304
 20
6.339049999999999
 30
0.0
 11
2.0928489565849304
 21
7.014500000000002
 31
0.0
  0
LINE
  5
74
330
17
100
AcDbEntity
  8
0
100
AcDbLine
 10
2.0928489565849304
 20
7.014500000000002
 30
0.0
 11
2.0928489565849304
 21
7.4545
 31
0.0
  0
LINE
  5
75
330
17
100
AcDbEntity
  8
0
100
AcDbLine
 10
2.0928489565849304
 20
8.138499999999999
 30
0.0
 11
2.0928489565849304
 21
8.13905
 31
0.0
  0
LINE
  5
76
330
17
100
AcDbEntity
  8
0
100
AcDbLine
 10
2.0928489565849304
 20
8.13905
 30
0.0
 11
2.0928489565849304
 21
8.814500000000002
 31
0.0
  0
LINE
  5
77
330
17
100
AcDbEntity
  8
0
100
AcDbLine
 10
2.0928489565849304
 20
8.814500000000002
 30
0.0
 11
2.0928489565849304
 21
9.2545
 31
0.0
  0
LINE
  5
78
330
17
100
AcDbEntity
  8
0
100
AcDbLine
 10
2.0928489565849304
 20
9.9385
 30
0.0
 11
2.0928489565849304
 21
9.93905
 31
0.0
  0
LINE
  5
79
330
17
100
AcDbEntity
  8
0
100
AcDbLine
 10
2.0928489565849304
 20
9.93905
 30
0.0
 11
2.0928489565849304
 21
10.614500000000001
 31
0.0
  0
LINE
  5
7A
330
17
100
AcDbEntity
  8
0
100
AcDbLine
 10
2.0928489565849304
 20
10.614500000000001
 30
0.0
 11
2.0928489565849304
 21
11.0545
 31
0.0
  0
LINE
  5
7B
330
17
100
AcDbEntity
  8
0
100
AcDbLine
 10
2.0928489565849304
 20
11.7385
 30
0.0
 11
2.0928489565849304
 21
11.739049999999999
 31
0.0
  0
LINE
  5
7C
330
17
100
AcDbEntity
  8
0
100
AcDbLine
 10
2.0928489565849304
 20
11.739049999999999
 30
0.0
 11
2.0928489565849304
 21
12.414500000000002
 31
0.0
  0
LINE
  5
7D
330
17
100
AcDbEntity
  8
0
100
AcDbLine
 10
2.0928489565849304
 20
12.414500000000002
 30
0.0
 11
2.0928489565849304
 21
12.854500000000002
 31
0.0
  0
LINE
  5
7E
330
17
100
AcDbEntity
  8
0
100
AcDbLine
 10
2.0928489565849304
 20
13.538499999999999
 30
0.0
 11
2.0928489565849304
 21
13.53905
 31
0.0
  0
LINE
  5
7F
330
17
100
AcDbEntity
  8
0
100
AcDbLine
 10
2.0928489565849304
 20
13.53905
 30
0.0
 11
2.0928489565849304
 21
14.167700000000002
 31
0.0
  0
LINE
  5
80
330
17
100
AcDbEntity
  8
0
100
AcDbLine
 10
2.5928489565849304
 20
0.9294999999999997
 30
0.0
 11
2.5928489565849304
 21
1.3694999999999986
 31
0.0
  0
LINE
  5
81
330
17
100
AcDbEntity
  8
0
100
AcDbLine
 10
2.5928489565849304
 20
0.9294999999999997
 30
0.0
 11
2.5928489565849304
 21
1.3694999999999986
 31
0.0
  0
LINE
  5
82
330
17
100
AcDbEntity
  8
0
100
AcDbLine
 10
2.5928489565849304
 20
1.3694999999999986
 30
0.0
 11
2.5928489565849304
 21
2.0445000000000007
 31
0.0
  0
LINE
  5
83
330
17
100
AcDbEntity
  8
0
100
AcDbLine
 10
2.5928489565849304
 20
2.7294999999999994
 30
0.0
 11
2.5928489565849304
 21
3.4045000000000014
 31
0.0
  0
LINE
  5
84
330
17
100
AcDbEntity
  8
0
100
AcDbLine
 10
2.5928489565849304
 20
3.4045000000000014
 30
0.0
 11
2.5928489565849304
 21
3.8445000000000005
 31
0.0
  0
LINE
  5
85
330
17
100
AcDbEntity
  8
0
100
AcDbLine
 10
2.5928489565849304
 20
4.5295
 30
0.0
 11
2.5928489565849304
 21
5.204500000000001
 31
0.0
  0
LINE
  5
86
330
17
100
AcDbEntity
  8
0
100
AcDbLine
 10
2.5928489565849304
 20
5.204500000000001
 30
0.0
 11
2.5928489565849304
 21
5.644500000000001
 31
0.0
  0
LINE
  5
87
330
17
100
AcDbEntity
  8
0
100
AcDbLine
 10
2.5928489565849304
 20
6.3294999999999995
 30
0.0
 11
2.5928489565849304
 21
6.769499999999999
 31
0.0
  0
LINE
  5
88
330
17
100
AcDbEntity
  8
0
100
AcDbLine
 10
2.5928489565849304
 20
6.769499999999999
 30
0.0
 11
2.5928489565849304
 21
7.444500000000001
 31
0.0
  0
LINE
  5
89
330
17
100
AcDbEntity
  8
0
100
AcDbLine
 10
2.5928489565849304
 20
8.1295
 30
0.0
 11
2.5928489565849304
 21
8.8045
 31
0.0
  0
LINE
  5
8A
330
17
100
AcDbEntity
  8
0
100
AcDbLine
 10
2.5928489565849304
 20
8.8045
 30
0.0
 11
2.5928489565849304
 21
9.2445
 31
0.0
  0
LINE
  5
8B
330
17
100
AcDbEntity
  8
0
100
AcDbLine
 10
2.5928489565849304
 20
9.929499999999999
 30
0.0
 11
2.5928489565849304
 21
10.604500000000002
 31
0.0
  0
LINE
  5
8C
330
17
100
AcDbEntity
  8
0
100
AcDbLine
 10
2.5928489565849304
 20
10.604500000000002
 30
0.0
 11
2.5928489565849304
 21
11.044500000000001
 31
0.0
  0
LINE
  5
8D
330
17
100
AcDbEntity
  8
0
100
AcDbLine
 10
2.5928489565849304
 20
11.7295
 30
0.0
 11
2.5928489565849304
 21
12.1695
 31
0.0
  0
LINE
  5
8E
330
17
100
AcDbEntity
  8
0
100
AcDbLine
 10
2.5928489565849304
 20
12.1695
 30
0.0
 11
2.5928489565849304
 21
12.8445
 31
0.0
  0
LINE
  5
8F
330
17
100
AcDbEntity
  8
0
100
AcDbLine
 10
2.5928489565849304
 20
13.5295
 30
0.0
 11
2.5928489565849304
 21
14.161750000000001
 31
0.0
  0
LINE
  5
90
330
17
100
AcDbEntity
  8
0
100
AcDbLine
 10
3.0928489565849304
 20
0.9454999999999997
 30
0.0
 11
3.0928489565849304
 21
1.3854999999999986
 31
0.0
  0
LINE
  5
91
330
17
100
AcDbEntity
  8
0
100
AcDbLine
 10
3.0928489565849304
 20
0.9454999999999997
 30
0.0
 11
3.0928489565849304
 21
1.3854999999999986
 31
0.0
  0
LINE
  5
92
330
17
100
AcDbEntity
  8
0
100
AcDbLine
 10
3.0928489565849304
 20
1.3854999999999986
 30
0.0
 11
3.0928489565849304
 21
2.0605000000000007
 31
0.0
  0
LINE
  5
93
330
17
100
AcDbEntity
  8
0
100
AcDbLine
 10
3.0928489565849304
 20
2.7454999999999994
 30
0.0
 11
3.0928489565849304
 21
3.4205000000000014
 31
0.0
  0
LINE
  5
94
330
17
100
AcDbEntity
  8
0
100
AcDbLine
 10
3.0928489565849304
 20
3.4205000000000014
 30
0.0
 11
3.0928489565849304
 21
3.8605000000000005
 31
0.0
  0
LINE
  5
95
330
17
100
AcDbEntity
  8
0
100
AcDbLine
 10
3.0928489565849304
 20
4.5455
 30
0.0
 11
3.0928489565849304
 21
5.220500000000001
 31
0.0
  0
LINE
  5
96
330
17
100
AcDbEntity
  8
0
100
AcDbLine
 10
3.0928489565849304
 20
5.220500000000001
 30
0.0
 11
3.0928489565849304
 21
5.660500000000001
 31
0.0
  0
LINE
  5
97
330
17
100
AcDbEntity
  8
0
100
AcDbLine
 10
3.0928489565849304
 20
6.3454999999999995
 30
0.0
 11
3.0928489565849304
 21
6.785499999999999
 31
0.0
  0
LINE
  5
98
330
17
100
AcDbEntity
  8
0
100
AcDbLine
 10
3.0928489565849304
 20
6.785499999999999
 30
0.0
 11
3.0928489565849304
 21
7.460500000000001
 31
0.0
  0
LINE
  5
99
330
17
100
AcDbEntity
  8
0
100
AcDbLine
 10
3.0928489565849304
 20
8.1455
 30
0.0
 11
3.0928489565849304
 21
8.820500000000001
 31
0.0
  0
LINE
  5
9A
330
17
100
AcDbEntity
  8
0
100
AcDbLine
 10
3.0928489565849304
 20
8.820500000000001
 30
0.0
 11
3.0928489565849304
 21
9.2605
 31
0.0
  0
LINE
  5
9B
330
17
100
AcDbEntity
  8
0
100
AcDbLine
 10
3.0928489565849304
 20
9.9455
 30
0.0
 11
3.0928489565849304
 21
10.620500000000002
 31
0.0
  0
LINE
  5
9C
330
17
100
AcDbEntity
  8
0
100
AcDbLine
 10
3.0928489565849304
 20
10.620500000000002
 30
0.0
 11
3.0928489565849304
 21
11.060500000000001
 31
0.0
  0
LINE
  5
9D
330
17
100
AcDbEntity
  8
0
100
AcDbLine
 10
3.0928489565849304
 20
11.7455
 30
0.0
 11
3.0928489565849304
 21
12.1855
 31
0.0
  0
LINE
  5
9E
330
17
100
AcDbEntity
  8
0
100
AcDbLine
 10
3.0928489565849304
 20
12.1855
 30
0.0
 11
3.0928489565849304
 21
12.8605
 31
0.0
  0
LINE
  5
9F
330
17
100
AcDbEntity
  8
0
100
AcDbLine
 10
3.0928489565849304
 20
13.545499999999999
 30
0.0
 11
3.0928489565849304
 21
14.162450000000002
 31
0.0
  0
LINE
  5
A0
330
17
100
AcDbEntity
  8
0
100
AcDbLine
 10
3.5928489565849304
 20
0.9614999999999997
 30
0.0
 11
3.5928489565849304
 21
1.4014999999999986
 31
0.0
  0
LINE
  5
A1
330
17
100
AcDbEntity
  8
0
100
AcDbLine
 10
3.5928489565849304
 20
0.9614999999999997
 30
0.0
 11
3.5928489565849304
 21
1.4014999999999986
 31
0.0
  0
LINE
  5
A2
330
17
100
AcDbEntity
  8
0
100
AcDbLine
 10
3.5928489565849304
 20
1.4014999999999986
 30
0.0
 11
3.5928489565849304
 21
2.0765000000000007
 31
0.0
  0
LINE
  5
A3
330
17
100
AcDbEntity
  8
0
100
AcDbLine
 10
3.5928489565849304
 20
2.7614999999999994
 30
0.0
 11
3.5928489565849304
 21
3.4365000000000014
 31
0.0
  0
LINE
  5
A4
330
17
100
AcDbEntity
  8
0
100
AcDbLine
 10
3.5928489565849304
 20
3.4365000000000014
 30
0.0
 11
3.5928489565849304
 21
3.8765
 31
0.0
  0
LINE
  5
A5
330
17
100
AcDbEntity
  8
0
100
AcDbLine
 10
3.5928489565849304
 20
4.5615
 30
0.0
 11
3.5928489565849304
 21
5.236500000000001
 31
0.0
  0
LINE
  5
A6
330
17
100
AcDbEntity
  8
0
100
AcDbLine
 10
3.5928489565849304
 20
5.236500000000001
 30
0.0
 11
3.5928489565849304
 21
5.676500000000001
 31
0.0
  0
LINE
  5
A7
330
17
100
AcDbEntity
  8
0
100
AcDbLine
 10
3.5928489565849304
 20
6.3614999999999995
 30
0.0
 11
3.5928489565849304
 21
6.801499999999999
 31
0.0
  0
LINE
  5
A8
330
17
100
AcDbEntity
  8
0
100
AcDbLine
 10
3.5928489565849304
 20
6.801499999999999
 30
0.0
 11
3.5928489565849304
 21
7.476500000000001
 31
0.0
  0
LINE
  5
A9
330
17
100
AcDbEntity
  8
0
100
AcDbLine
 10
3.5928489565849304
 20
8.1615
 30
0.0
 11
3.5928489565849304
 21
8.836500000000001
 31
0.0
  0
LINE
  5
AA
330
17
100
AcDbEntity
  8
0
100
AcDbLine
 10
3.5928489565849304
 20
8.836500000000001
 30
0.0
 11
3.5928489565849304
 21
9.2765
 31
0.0
  0
LINE
  5
AB
330
17
100
AcDbEntity
  8
0
100
AcDbLine
 10
3.5928489565849304
 20
9.9615
 30
0.0
 11
3.5928489565849304
 21
10.636500000000002
 31
0.0
  0
LINE
  5
AC
330
17
100
AcDbEntity
  8
0
100
AcDbLine
 10
3.5928489565849304
 20
10.636500000000002
 30
0.0
 11
3.5928489565849304
 21
11.076500000000001
 31
0.0
  0
LINE
  5
AD
330
17
100
AcDbEntity
  8
0
100
AcDbLine
 10
3.5928489565849304
 20
11.7615
 30
0.0
 11
3.5928489565849304
 21
12.2015
 31
0.0
  0
LINE
  5
AE
330
17
100
AcDbEntity
  8
0
100
AcDbLine
 10
3.5928489565849304
 20
12.2015
 30
0.0
 11
3.5928489565849304
 21
12.8765
 31
0.0
  0
LINE
  5
AF
330
17
100
AcDbEntity
  8
0
100
AcDbLine
 10
3.5928489565849304
 20
13.561499999999999
 30
0.0
 11
3.5928489565849304
 21
14.1636
 31
0.0
  0
LINE
  5
B0
330
17
100
AcDbEntity
  8
0
100
AcDbLine
 10
4.09284895658493
 20
0.9764999999999997
 30
0.0
 11
4.09284895658493
 21
1.4164999999999988
 31
0.0
  0
LINE
  5
B1
330
17
100
AcDbEntity
  8
0
100
AcDbLine
 10
4.09284895658493
 20
0.9764999999999997
 30
0.0
 11
4.09284895658493
 21
1.4164999999999988
 31
0.0
  0
LINE
  5
B2
330
17
100
AcDbEntity
  8
0
100
AcDbLine
 10
4.09284895658493
 20
1.4164999999999988
 30
0.0
 11
4.09284895658493
 21
2.0919500000000006
 31
0.0
  0
LINE
  5
B3
330
17
100
AcDbEntity
  8
0
100
AcDbLine
 10
4.09284895658493
 20
2.7765
 30
0.0
 11
4.09284895658493
 21
3.216499999999999
 31
0.0
  0
LINE
  5
B4
330
17
100
AcDbEntity
  8
0
100
AcDbLine
 10
4.09284895658493
 20
3.216499999999999
 30
0.0
 11
4.09284895658493
 21
3.8919500000000005
 31
0.0
  0
LINE
  5
B5
330
17
100
AcDbEntity
  8
0
100
AcDbLine
 10
4.09284895658493
 20
4.576499999999999
 30
0.0
 11
4.09284895658493
 21
5.016499999999999
 31
0.0
  0
LINE
  5
B6
330
17
100
AcDbEntity
  8
0
100
AcDbLine
 10
4.09284895658493
 20
5.016499999999999
 30
0.0
 11
4.09284895658493
 21
5.69195
 31
0.0
  0
LINE
  5
B7
330
17
100
AcDbEntity
  8
0
100
AcDbLine
 10
4.09284895658493
 20
6.3765
 30
0.0
 11
4.09284895658493
 21
6.8165
 31
0.0
  0
LINE
  5
B8
330
17
100
AcDbEntity
  8
0
100
AcDbLine
 10
4.09284895658493
 20
6.8165
 30
0.0
 11
4.09284895658493
 21
7.491950000000001
 31
0.0
  0
LINE
  5
B9
330
17
100
AcDbEntity
  8
0
100
AcDbLine
 10
4.09284895658493
 20
8.176499999999999
 30
0.0
 11
4.09284895658493
 21
8.616499999999998
 31
0.0
  0
LINE
  5
BA
330
17
100
AcDbEntity
  8
0
100
AcDbLine
 10
4.09284895658493
 20
8.616499999999998
 30
0.0
 11
4.09284895658493
 21
9.29195
 31
0.0
  0
LINE
  5
BB
330
17
100
AcDbEntity
  8
0
100
AcDbLine
 10
4.09284895658493
 20
9.9765
 30
0.0
 11
4.09284895658493
 21
10.4165
 31
0.0
  0
LINE
  5
BC
330
17
100
AcDbEntity
  8
0
100
AcDbLine
 10
4.09284895658493
 20
10.4165
 30
0.0
 11
4.09284895658493
 21
11.09195
 31
0.0
  0
LINE
  5
BD
330
17
100
AcDbEntity
  8
0
100
AcDbLine
 10
4.09284895658493
 20
11.7765
 30
0.0
 11
4.09284895658493
 21
12.216499999999998
 31
0.0
  0
LINE
  5
BE
330
17
100
AcDbEntity
  8
0
100
AcDbLine
 10
4.09284895658493
 20
12.216499999999998
 30
0.0
 11
4.09284895658493
 21
12.891950000000001
 31
0.0
  0
LINE
  5
BF
330
17
100
AcDbEntity
  8
0
100
AcDbLine
 10
4.09284895658493
 20
13.5765
 30
0.0
 11
4.09284895658493
 21
13.57705
 31
0.0
  0
LINE
  5
C0
330
17
100
AcDbEntity
  8
0
100
AcDbLine
 10
4.09284895658493
 20
13.57705
 30
0.0
 11
4.09284895658493
 21
14.16475
 31
0.0
  0
LINE
  5
C1
330
17
100
AcDbEntity
  8
0
100
AcDbLine
 10
4.59284895658493
 20
0.9924999999999997
 30
0.0
 11
4.59284895658493
 21
1.4324999999999988
 31
0.0
  0
LINE
  5
C2
330
17
100
AcDbEntity
  8
0
100
AcDbLine
 10
4.59284895658493
 20
0.9924999999999997
 30
0.0
 11
4.59284895658493
 21
1.4324999999999988
 31
0.0
  0
LINE
  5
C3
330
17
100
AcDbEntity
  8
0
100
AcDbLine
 10
4.59284895658493
 20
1.4324999999999988
 30
0.0
 11
4.59284895658493
 21
2.1075000000000004
 31
0.0
  0
LINE
  5
C4
330
17
100
AcDbEntity
  8
0
100
AcDbLine
 10
4.59284895658493
 20
2.7924999999999995
 30
0.0
 11
4.59284895658493
 21
3.467500000000001
 31
0.0
  0
LINE
  5
C5
330
17
100
AcDbEntity
  8
0
100
AcDbLine
 10
4.59284895658493
 20
3.467500000000001
 30
0.0
 11
4.59284895658493
 21
3.9075
 31
0.0
  0
LINE
  5
C6
330
17
100
AcDbEntity
  8
0
100
AcDbLine
 10
4.59284895658493
 20
4.592499999999999
 30
0.0
 11
4.59284895658493
 21
5.032499999999999
 31
0.0
  0
LINE
  5
C7
330
17
100
AcDbEntity
  8
0
100
AcDbLine
 10
4.59284895658493
 20
5.032499999999999
 30
0.0
 11
4.59284895658493
 21
5.7075000000000005
 31
0.0
  0
LINE
  5
C8
330
17
100
AcDbEntity
  8
0
100
AcDbLine
 10
4.59284895658493
 20
6.3925
 30
0.0
 11
4.59284895658493
 21
6.8325
 31
0.0
  0
LINE
  5
C9
330
17
100
AcDbEntity
  8
0
100
AcDbLine
 10
4.59284895658493
 20
6.8325
 30
0.0
 11
4.59284895658493
 21
7.507500000000001
 31
0.0
  0
LINE
  5
CA
330
17
100
AcDbEntity
  8
0
100
AcDbLine
 10
4.59284895658493
 20
8.192499999999999
 30
0.0
 11
4.59284895658493
 21
8.867500000000001
 31
0.0
  0
LINE
  5
CB
330
17
100
AcDbEntity
  8
0
100
AcDbLine
 10
4.59284895658493
 20
8.867500000000001
 30
0.0
 11
4.59284895658493
 21
9.307500000000001
 31
0.0
  0
LINE
  5
CC
330
17
100
AcDbEntity
  8
0
100
AcDbLine
 10
4.59284895658493
 20
9.9925
 30
0.0
 11
4.59284895658493
 21
10.667500000000002
 31
0.0
  0
LINE
  5
CD
330
17
100
AcDbEntity
  8
0
100
AcDbLine
 10
4.59284895658493
 20
10.667500000000002
 30
0.0
 11
4.59284895658493
 21
11.107500000000002
 31
0.0
  0
LINE
  5
CE
330
17
100
AcDbEntity
  8
0
100
AcDbLine
 10
4.59284895658493
 20
11.7925
 30
0.0
 11
4.59284895658493
 21
12.467500000000001
 31
0.0
  0
LINE
  5
CF
330
17
100
AcDbEntity
  8
0
100
AcDbLine
 10
4.59284895658493
 20
12.467500000000001
 30
0.0
 11
4.59284895658493
 21
12.9075
 31
0.0
  0
LINE
  5
D0
330
17
100
AcDbEntity
  8
0
100
AcDbLine
 10
4.59284895658493
 20
13.5925
 30
0.0
 11
4.59284895658493
 21
14.164900000000001
 31
0.0
  0
LINE
  5
D1
330
17
100
AcDbEntity
  8
0
100
AcDbLine
 10
5.09284895658493
 20
1.0084999999999995
 30
0.0
 11
5.09284895658493
 21
1.683500000000001
 31
0.0
  0
LINE
  5
D2
330
17
100
AcDbEntity
  8
0
100
AcDbLine
 10
5.09284895658493
 20
1.0084999999999995
 30
0.0
 11
5.09284895658493
 21
1.683500000000001
 31
0.0
  0
LINE
  5
D3
330
17
100
AcDbEntity
  8
0
100
AcDbLine
 10
5.09284895658493
 20
1.683500000000001
 30
0.0
 11
5.09284895658493
 21
2.1235000000000004
 31
0.0
  0
LINE
  5
D4
330
17
100
AcDbEntity
  8
0
100
AcDbLine
 10
5.09284895658493
 20
2.8084999999999996
 30
0.0
 11
5.09284895658493
 21
3.483500000000001
 31
0.0
  0
LINE
  5
D5
330
17
100
AcDbEntity
  8
0
100
AcDbLine
 10
5.09284895658493
 20
3.483500000000001
 30
0.0
 11
5.09284895658493
 21
3.9235
 31
0.0
  0
LINE
  5
D6
330
17
100
AcDbEntity
  8
0
100
AcDbLine
 10
5.09284895658493
 20
4.608499999999999
 30
0.0
 11
5.09284895658493
 21
5.048499999999999
 31
0.0
  0
LINE
  5
D7
330
17
100
AcDbEntity
  8
0
100
AcDbLine
 10
5.09284895658493
 20
5.048499999999999
 30
0.0
 11
5.09284895658493
 21
5.7235000000000005
 31
0.0
  0
LINE
  5
D8
330
17
100
AcDbEntity
  8
0
100
AcDbLine
 10
5.09284895658493
 20
6.4085
 30
0.0
 11
5.09284895658493
 21
6.8485
 31
0.0
  0
LINE
  5
D9
330
17
100
AcDbEntity
  8
0
100
AcDbLine
 10
5.09284895658493
 20
6.8485
 30
0.0
 11
5.09284895658493
 21
7.523500000000001
 31
0.0
  0
LINE
  5
DA
330
17
100
AcDbEntity
  8
0
100
AcDbLine
 10
5.09284895658493
 20
8.208499999999999
 30
0.0
 11
5.09284895658493
 21
8.883500000000002
 31
0.0
  0
LINE
  5
DB
330
17
100
AcDbEntity
  8
0
100
AcDbLine
 10
5.09284895658493
 20
8.883500000000002
 30
0.0
 11
5.09284895658493
 21
9.323500000000001
 31
0.0
  0
LINE
  5
DC
330
17
100
AcDbEntity
  8
0
100
AcDbLine
 10
5.09284895658493
 20
10.0085
 30
0.0
 11
5.09284895658493
 21
10.683500000000002
 31
0.0
  0
LINE
  5
DD
330
17
100
AcDbEntity
  8
0
100
AcDbLine
 10
5.09284895658493
 20
10.683500000000002
 30
0.0
 11
5.09284895658493
 21
11.123500000000002
 31
0.0
  0
LINE
  5
DE
330
17
100
AcDbEntity
  8
0
100
AcDbLine
 10
5.09284895658493
 20
11.8085
 30
0.0
 11
5.09284895658493
 21
12.483500000000001
 31
0.0
  0
LINE
  5
DF
330
17
100
AcDbEntity
  8
0
100
AcDbLine
 10
5.09284895658493
 20
12.483500000000001
 30
0.0
 11
5.09284895658493
 21
12.9235
 31
0.0
  0
LINE
  5
E0
330
17
100
AcDbEntity
  8
0
100
AcDbLine
 10
5.09284895658493
 20
13.6085
 30
0.0
 11
5.09284895658493
 21
14.166050000000002
 31
0.0
  0
LINE
  5
E1
330
17
100
AcDbEntity
  8
0
100
AcDbLine
 10
5.59284895658493
 20
1.0244999999999995
 30
0.0
 11
5.59284895658493
 21
1.6995000000000011
 31
0.0
  0
LINE
  5
E2
330
17
100
AcDbEntity
  8
0
100
AcDbLine
 10
5.59284895658493
 20
1.0244999999999995
 30
0.0
 11
5.59284895658493
 21
1.6995000000000011
 31
0.0
  0
LINE
  5
E3
330
17
100
AcDbEntity
  8
0
100
AcDbLine
 10
5.59284895658493
 20
1.6995000000000011
 30
0.0
 11
5.59284895658493
 21
2.1395000000000004
 31
0.0
  0
LINE
  5
E4
330
17
100
AcDbEntity
  8
0
100
AcDbLine
 10
5.59284895658493
 20
2.8244999999999996
 30
0.0
 11
5.59284895658493
 21
3.499500000000001
 31
0.0
  0
LINE
  5
E5
330
17
100
AcDbEntity
  8
0
100
AcDbLine
 10
5.59284895658493
 20
3.499500000000001
 30
0.0
 11
5.59284895658493
 21
3.9395000000000002
 31
0.0
  0
LINE
  5
E6
330
17
100
AcDbEntity
  8
0
100
AcDbLine
 10
5.59284895658493
 20
4.624499999999999
 30
0.0
 11
5.59284895658493
 21
5.064499999999999
 31
0.0
  0
LINE
  5
E7
330
17
100
AcDbEntity
  8
0
100
AcDbLine
 10
5.59284895658493
 20
5.064499999999999
 30
0.0
 11
5.59284895658493
 21
5.7395000000000005
 31
0.0
  0
LINE
  5
E8
330
17
100
AcDbEntity
  8
0
100
AcDbLine
 10
5.59284895658493
 20
6.4245
 30
0.0
 11
5.59284895658493
 21
6.8645
 31
0.0
  0
LINE
  5
E9
330
17
100
AcDbEntity
  8
0
100
AcDbLine
 10
5.59284895658493
 20
6.8645
 30
0.0
 11
5.59284895658493
 21
7.539500000000001
 31
0.0
  0
LINE
  5
EA
330
17
100
AcDbEntity
  8
0
100
AcDbLine
 10
5.59284895658493
 20
8.224499999999999
 30
0.0
 11
5.59284895658493
 21
8.899500000000002
 31
0.0
  0
LINE
  5
EB
330
17
100
AcDbEntity
  8
0
100
AcDbLine
 10
5.59284895658493
 20
8.899500000000002
 30
0.0
 11
5.59284895658493
 21
9.339500000000001
 31
0.0
  0
LINE
  5
EC
330
17
100
AcDbEntity
  8
0
100
AcDbLine
 10
5.59284895658493
 20
10.0245
 30
0.0
 11
5.59284895658493
 21
10.699500000000002
 31
0.0
  0
LINE
  5
ED
330
17
100
AcDbEntity
  8
0
100
AcDbLine
 10
5.59284895658493
 20
10.699500000000002
 30
0.0
 11
5.59284895658493
 21
11.139500000000002
 31
0.0
  0
LINE
  5
EE
330
17
100
AcDbEntity
  8
0
100
AcDbLine
 10
5.59284895658493
 20
11.8245
 30
0.0
 11
5.59284895658493
 21
12.499500000000001
 31
0.0
  0
LINE
  5
EF
330
17
100
AcDbEntity
  8
0
100
AcDbLine
 10
5.59284895658493
 20
12.499500000000001
 30
0.0
 11
5.59284895658493
 21
12.9395
 31
0.0
  0
LINE
  5
F0
330
17
100
AcDbEntity
  8
0
100
AcDbLine
 10
5.59284895658493
 20
13.6245
 30
0.0
 11
5.59284895658493
 21
14.16675
 31
0.0
  0
LINE
  5
F1
330
17
100
AcDbEntity
  8
0
100
AcDbLine
 10
6.09284895658493
 20
1.0404999999999995
 30
0.0
 11
6.09284895658493
 21
1.7155000000000011
 31
0.0
  0
LINE
  5
F2
330
17
100
AcDbEntity
  8
0
100
AcDbLine
 10
6.09284895658493
 20
1.0404999999999995
 30
0.0
 11
6.09284895658493
 21
1.7155000000000011
 31
0.0
  0
LINE
  5
F3
330
17
100
AcDbEntity
  8
0
100
AcDbLine
 10
6.09284895658493
 20
1.7155000000000011
 30
0.0
 11
6.09284895658493
 21
2.1555000000000004
 31
0.0
  0
LINE
  5
F4
330
17
100
AcDbEntity
  8
0
100
AcDbLine
 10
6.09284895658493
 20
2.8404999999999996
 30
0.0
 11
6.09284895658493
 21
3.515500000000001
 31
0.0
  0
LINE
  5
F5
330
17
100
AcDbEntity
  8
0
100
AcDbLine
 10
6.09284895658493
 20
3.515500000000001
 30
0.0
 11
6.09284895658493
 21
3.9555000000000002
 31
0.0
  0
LINE
  5
F6
330
17
100
AcDbEntity
  8
0
100
AcDbLine
 10
6.09284895658493
 20
4.640499999999999
 30
0.0
 11
6.09284895658493
 21
5.080499999999999
 31
0.0
  0
LINE
  5
F7
330
17
100
AcDbEntity
  8
0
100
AcDbLine
 10
6.09284895658493
 20
5.080499999999999
 30
0.0
 11
6.09284895658493
 21
5.7555000000000005
 31
0.0
  0
LINE
  5
F8
330
17
100
AcDbEntity
  8
0
100
AcDbLine
 10
6.09284895658493
 20
6.4405
 30
0.0
 11
6.09284895658493
 21
6.8805
 31
0.0
  0
LINE
  5
F9
330
17
100
AcDbEntity
  8
0
100
AcDbLine
 10
6.09284895658493
 20
6.8805
 30
0.0
 11
6.09284895658493
 21
7.555500000000001
 31
0.0
  0
LINE
  5
FA
330
17
100
AcDbEntity
  8
0
100
AcDbLine
 10
6.09284895658493
 20
8.240499999999999
 30
0.0
 11
6.09284895658493
 21
8.915500000000002
 31
0.0
  0
LINE
  5
FB
330
17
100
AcDbEntity
  8
0
100
AcDbLine
 10
6.09284895658493
 20
8.915500000000002
 30
0.0
 11
6.09284895658493
 21
9.355500000000001
 31
0.0
  0
LINE
  5
FC
330
17
100
AcDbEntity
  8
0
100
AcDbLine
 10
6.09284895658493
 20
10.0405
 30
0.0
 11
6.09284895658493
 21
10.715500000000002
 31
0.0
  0
LINE
  5
FD
330
17
100
AcDbEntity
  8
0
100
AcDbLine
 10
6.09284895658493
 20
10.715500000000002
 30
0.0
 11
6.09284895658493
 21
11.155500000000002
 31
0.0
  0
LINE
  5
FE
330
17
100
AcDbEntity
  8
0
100
AcDbLine
 10
6.09284895658493
 20
11.8405
 30
0.0
 11
6.09284895658493
 21
12.515500000000001
 31
0.0
  0
LINE
  5
FF
330
17
100
AcDbEntity
  8
0
100
AcDbLine
 10
6.09284895658493
 20
12.515500000000001
 30
0.0
 11
6.09284895658493
 21
12.9555
 31
0.0
  0
LINE
  5
100
330
17
100
AcDbEntity
  8
0
100
AcDbLine
 10
6.09284895658493
 20
13.6405
 30
0.0
 11
6.09284895658493
 21
14.170150000000001
 31
0.0
  0
LINE
  5
101
330
17
100
AcDbEntity
  8
0
100
AcDbLine
 10
6.59284895658493
 20
1.0554999999999997
 30
0.0
 11
6.59284895658493
 21
1.0560499999999995
 31
0.0
  0
LINE
  5
102
330
17
100
AcDbEntity
  8
0
100
AcDbLine
 10
6.59284895658493
 20
1.0554999999999997
 30
0.0
 11
6.59284895658493
 21
1.0560499999999995
 31
0.0
  0
LINE
  5
103
330
17
100
AcDbEntity
  8
0
100
AcDbLine
 10
6.59284895658493
 20
1.0560499999999995
 30
0.0
 11
6.59284895658493
 21
1.7315000000000011
 31
0.0
  0
LINE
  5
104
330
17
100
AcDbEntity
  8
0
100
AcDbLine
 10
6.59284895658493
 20
1.7315000000000011
 30
0.0
 11
6.59284895658493
 21
2.1715000000000004
 31
0.0
  0
LINE
  5
105
330
17
100
AcDbEntity
  8
0
100
AcDbLine
 10
6.59284895658493
 20
2.8554999999999997
 30
0.0
 11
6.59284895658493
 21
2.8560499999999998
 31
0.0
  0
LINE
  5
106
330
17
100
AcDbEntity
  8
0
100
AcDbLine
 10
6.59284895658493
 20
2.8560499999999998
 30
0.0
 11
6.59284895658493
 21
3.531500000000001
 31
0.0
  0
LINE
  5
107
330
17
100
AcDbEntity
  8
0
100
AcDbLine
 10
6.59284895658493
 20
3.531500000000001
 30
0.0
 11
6.59284895658493
 21
3.9715000000000003
 31
0.0
  0
LINE
  5
108
330
17
100
AcDbEntity
  8
0
100
AcDbLine
 10
6.59284895658493
 20
4.6555
 30
0.0
 11
6.59284895658493
 21
4.65605
 31
0.0
  0
LINE
  5
109
330
17
100
AcDbEntity
  8
0
100
AcDbLine
 10
6.59284895658493
 20
4.65605
 30
0.0
 11
6.59284895658493
 21
5.331500000000002
 31
0.0
  0
LINE
  5
10A
330
17
100
AcDbEntity
  8
0
100
AcDbLine
 10
6.59284895658493
 20
5.331500000000002
 30
0.0
 11
6.59284895658493
 21
5.7715000000000005
 31
0.0
  0
LINE
  5
10B
330
17
100
AcDbEntity
  8
0
100
AcDbLine
 10
6.59284895658493
 20
6.4555
 30
0.0
 11
6.59284895658493
 21
6.456049999999999
 31
0.0
  0
LINE
  5
10C
330
17
100
AcDbEntity
  8
0
100
AcDbLine
 10
6.59284895658493
 20
6.456049999999999
 30
0.0
 11
6.59284895658493
 21
7.131500000000001
 31
0.0
  0
LINE
  5
10D
330
17
100
AcDbEntity
  8
0
100
AcDbLine
 10
6.59284895658493
 20
7.131500000000001
 30
0.0
 11
6.59284895658493
 21
7.5715
 31
0.0
  0
LINE
  5
10E
330
17
100
AcDbEntity
  8
0
100
AcDbLine
 10
6.59284895658493
 20
8.2555
 30
0.0
 11
6.59284895658493
 21
8.25605
 31
0.0
  0
LINE
  5
10F
330
17
100
AcDbEntity
  8
0
100
AcDbLine
 10
6.59284895658493
 20
8.25605
 30
0.0
 11
6.59284895658493
 21
8.931500000000002
 31
0.0
  0
LINE
  5
110
330
17
100
AcDbEntity
  8
0
100
AcDbLine
 10
6.59284895658493
 20
8.931500000000002
 30
0.0
 11
6.59284895658493
 21
9.371500000000001
 31
0.0
  0
LINE
  5
111
330
17
100
AcDbEntity
  8
0
100
AcDbLine
 10
6.59284895658493
 20
10.0555
 30
0.0
 11
6.59284895658493
 21
10.056049999999999
 31
0.0
  0
LINE
  5
112
330
17
100
AcDbEntity
  8
0
100
AcDbLine
 10
6.59284895658493
 20
10.056049999999999
 30
0.0
 11
6.59284895658493
 21
10.731500000000002
 31
0.0
  0
LINE
  5
113
330
17
100
AcDbEntity
  8
0
100
AcDbLine
 10
6.59284895658493
 20
10.731500000000002
 30
0.0
 11
6.59284895658493
 21
11.1715
 31
0.0
  0
LINE
  5
114
330
17
100
AcDbEntity
  8
0
100
AcDbLine
 10
6.59284895658493
 20
11.8555
 30
0.0
 11
6.59284895658493
 21
11.85605
 31
0.0
  0
LINE
  5
115
330
17
100
AcDbEntity
  8
0
100
AcDbLine
 10
6.59284895658493
 20
11.85605
 30
0.0
 11
6.59284895658493
 21
12.531500000000001
 31
0.0
  0
LINE
  5
116
330
17
100
AcDbEntity
  8
0
100
AcDbLine
 10
6.59284895658493
 20
12.531500000000001
 30
0.0
 11
6.59284895658493
 21
12.9715
 31
0.0
  0
LINE
  5
117
330
17
100
AcDbEntity
  8
0
100
AcDbLine
 10
6.59284895658493
 20
13.6555
 30
0.0
 11
6.59284895658493
 21
13.65605
 31
0.0
  0
LINE
  5
118
330
17
100
AcDbEntity
  8
0
100
AcDbLine
 10
6.59284895658493
 20
13.65605
 30
0.0
 11
6.59284895658493
 21
14.179400000000001
 31
0.0
  0
LINE
  5
119
330
17
100
AcDbEntity
  8
0
100
AcDbLine
 10
7.09284895658493
 20
1.0714999999999997
 30
0.0
 11
7.09284895658493
 21
1.7465000000000013
 31
0.0
  0
LINE
  5
11A
330
17
100
AcDbEntity
  8
0
100
AcDbLine
 10
7.09284895658493
 20
1.0714999999999997
 30
0.0
 11
7.09284895658493
 21
1.7465000000000013
 31
0.0
  0
LINE
  5
11B
330
17
100
AcDbEntity
  8
0
100
AcDbLine
 10
7.09284895658493
 20
1.7465000000000013
 30
0.0
 11
7.09284895658493
 21
2.1865
 31
0.0
  0
LINE
  5
11C
330
17
100
AcDbEntity
  8
0
100
AcDbLine
 10
7.09284895658493
 20
2.8714999999999997
 30
0.0
 11
7.09284895658493
 21
3.3114999999999988
 31
0.0
  0
LINE
  5
11D
330
17
100
AcDbEntity
  8
0
100
AcDbLine
 10
7.09284895658493
 20
3.3114999999999988
 30
0.0
 11
7.09284895658493
 21
3.986500000000001
 31
0.0
  0
LINE
  5
11E
330
17
100
AcDbEntity
  8
0
100
AcDbLine
 10
7.09284895658493
 20
4.671499999999999
 30
0.0
 11
7.09284895658493
 21
5.346500000000001
 31
0.0
  0
LINE
  5
11F
330
17
100
AcDbEntity
  8
0
100
AcDbLine
 10
7.09284895658493
 20
5.346500000000001
 30
0.0
 11
7.09284895658493
 21
5.7865
 31
0.0
  0
LINE
  5
120
330
17
100
AcDbEntity
  8
0
100
AcDbLine
 10
7.09284895658493
 20
6.4715
 30
0.0
 11
7.09284895658493
 21
7.146500000000001
 31
0.0
  0
LINE
  5
121
330
17
100
AcDbEntity
  8
0
100
AcDbLine
 10
7.09284895658493
 20
7.146500000000001
 30
0.0
 11
7.09284895658493
 21
7.586500000000001
 31
0.0
  0
LINE
  5
122
330
17
100
AcDbEntity
  8
0
100
AcDbLine
 10
7.09284895658493
 20
8.2715
 30
0.0
 11
7.09284895658493
 21
8.946500000000002
 31
0.0
  0
LINE
  5
123
330
17
100
AcDbEntity
  8
0
100
AcDbLine
 10
7.09284895658493
 20
8.946500000000002
 30
0.0
 11
7.09284895658493
 21
9.386500000000002
 31
0.0
  0
LINE
  5
124
330
17
100
AcDbEntity
  8
0
100
AcDbLine
 10
7.09284895658493
 20
10.0715
 30
0.0
 11
7.09284895658493
 21
10.746500000000001
 31
0.0
  0
LINE
  5
125
330
17
100
AcDbEntity
  8
0
100
AcDbLine
 10
7.09284895658493
 20
10.746500000000001
 30
0.0
 11
7.09284895658493
 21
11.1865
 31
0.0
  0
LINE
  5
126
330
17
100
AcDbEntity
  8
0
100
AcDbLine
 10
7.09284895658493
 20
11.8715
 30
0.0
 11
7.09284895658493
 21
12.546500000000002
 31
0.0
  0
LINE
  5
127
330
17
100
AcDbEntity
  8
0
100
AcDbLine
 10
7.09284895658493
 20
12.546500000000002
 30
0.0
 11
7.09284895658493
 21
12.986500000000001
 31
0.0
  0
LINE
  5
128
330
17
100
AcDbEntity
  8
0
100
AcDbLine
 10
7.09284895658493
 20
13.6715
 30
0.0
 11
7.09284895658493
 21
14.188100000000002
 31
0.0
  0
LINE
  5
129
330
17
100
AcDbEntity
  8
0
100
AcDbLine
 10
7.59284895658493
 20
1.0669499999999996
 30
0.0
 11
7.59284895658493
 21
1.7425000000000013
 31
0.0
  0
LINE
  5
12A
330
17
100
AcDbEntity
  8
0
100
AcDbLine
 10
7.59284895658493
 20
1.0669499999999996
 30
0.0
 11
7.59284895658493
 21
1.7425000000000013
 31
0.0
  0
LINE
  5
12B
330
17
100
AcDbEntity
  8
0
100
AcDbLine
 10
7.59284895658493
 20
1.7425000000000013
 30
0.0
 11
7.59284895658493
 21
2.1825
 31
0.0
  0
LINE
  5
12C
330
17
100
AcDbEntity
  8
0
100
AcDbLine
 10
7.59284895658493
 20
2.8669499999999997
 30
0.0
 11
7.59284895658493
 21
3.5425000000000013
 31
0.0
  0
LINE
  5
12D
330
17
100
AcDbEntity
  8
0
100
AcDbLine
 10
7.59284895658493
 20
3.5425000000000013
 30
0.0
 11
7.59284895658493
 21
3.9825000000000004
 31
0.0
  0
LINE
  5
12E
330
17
100
AcDbEntity
  8
0
100
AcDbLine
 10
7.59284895658493
 20
4.66695
 30
0.0
 11
7.59284895658493
 21
5.107499999999999
 31
0.0
  0
LINE
  5
12F
330
17
100
AcDbEntity
  8
0
100
AcDbLine
 10
7.59284895658493
 20
5.107499999999999
 30
0.0
 11
7.59284895658493
 21
5.782500000000001
 31
0.0
  0
LINE
  5
130
330
17
100
AcDbEntity
  8
0
100
AcDbLine
 10
7.59284895658493
 20
6.46695
 30
0.0
 11
7.59284895658493
 21
6.907499999999999
 31
0.0
  0
LINE
  5
131
330
17
100
AcDbEntity
  8
0
100
AcDbLine
 10
7.59284895658493
 20
6.907499999999999
 30
0.0
 11
7.59284895658493
 21
7.5825000000000005
 31
0.0
  0
LINE
  5
132
330
17
100
AcDbEntity
  8
0
100
AcDbLine
 10
7.59284895658493
 20
8.26695
 30
0.0
 11
7.59284895658493
 21
8.942500000000003
 31
0.0
  0
LINE
  5
133
330
17
100
AcDbEntity
  8
0
100
AcDbLine
 10
7.59284895658493
 20
8.942500000000003
 30
0.0
 11
7.59284895658493
 21
9.3825
 31
0.0
  0
LINE
  5
134
330
17
100
AcDbEntity
  8
0
100
AcDbLine
 10
7.59284895658493
 20
10.06695
 30
0.0
 11
7.59284895658493
 21
10.742500000000001
 31
0.0
  0
LINE
  5
135
330
17
100
AcDbEntity
  8
0
100
AcDbLine
 10
7.59284895658493
 20
10.742500000000001
 30
0.0
 11
7.59284895658493
 21
11.182500000000001
 31
0.0
  0
LINE
  5
136
330
17
100
AcDbEntity
  8
0
100
AcDbLine
 10
7.59284895658493
 20
11.866950000000001
 30
0.0
 11
7.59284895658493
 21
12.542500000000002
 31
0.0
  0
LINE
  5
137
330
17
100
AcDbEntity
  8
0
100
AcDbLine
 10
7.59284895658493
 20
12.542500000000002
 30
0.0
 11
7.59284895658493
 21
12.982500000000002
 31
0.0
  0
LINE
  5
138
330
17
100
AcDbEntity
  8
0
100
AcDbLine
 10
7.59284895658493
 20
13.66695
 30
0.0
 11
7.59284895658493
 21
14.186350000000001
 31
0.0
  0
LINE
  5
139
330
17
100
AcDbEntity
  8
0
100
AcDbLine
 10
8.09284895658493
 20
1.0554999999999997
 30
0.0
 11
8.09284895658493
 21
1.7305000000000013
 31
0.0
  0
LINE
  5
13A
330
17
100
AcDbEntity
  8
0
100
AcDbLine
 10
8.09284895658493
 20
1.0554999999999997
 30
0.0
 11
8.09284895658493
 21
1.7305000000000013
 31
0.0
  0
LINE
  5
13B
330
17
100
AcDbEntity
  8
0
100
AcDbLine
 10
8.09284895658493
 20
1.7305000000000013
 30
0.0
 11
8.09284895658493
 21
2.1705
 31
0.0
  0
LINE
  5
13C
330
17
100
AcDbEntity
  8
0
100
AcDbLine
 10
8.09284895658493
 20
2.8554999999999997
 30
0.0
 11
8.09284895658493
 21
3.2954999999999988
 31
0.0
  0
LINE
  5
13D
330
17
100
AcDbEntity
  8
0
100
AcDbLine
 10
8.09284895658493
 20
3.2954999999999988
 30
0.0
 11
8.09284895658493
 21
3.970500000000001
 31
0.0
  0
LINE
  5
13E
330
17
100
AcDbEntity
  8
0
100
AcDbLine
 10
8.09284895658493
 20
4.655499999999999
 30
0.0
 11
8.09284895658493
 21
5.330500000000001
 31
0.0
  0
LINE
  5
13F
330
17
100
AcDbEntity
  8
0
100
AcDbLine
 10
8.09284895658493
 20
5.330500000000001
 30
0.0
 11
8.09284895658493
 21
5.7705
 31
0.0
  0
LINE
  5
140
330
17
100
AcDbEntity
  8
0
100
AcDbLine
 10
8.09284895658493
 20
6.4555
 30
0.0
 11
8.09284895658493
 21
7.130500000000001
 31
0.0
  0
LINE
  5
141
330
17
100
AcDbEntity
  8
0
100
AcDbLine
 10
8.09284895658493
 20
7.130500000000001
 30
0.0
 11
8.09284895658493
 21
7.570500000000001
 31
0.0
  0
LINE
  5
142
330
17
100
AcDbEntity
  8
0
100
AcDbLine
 10
8.09284895658493
 20
8.2555
 30
0.0
 11
8.09284895658493
 21
8.930500000000002
 31
0.0
  0
LINE
  5
143
330
17
100
AcDbEntity
  8
0
100
AcDbLine
 10
8.09284895658493
 20
8.930500000000002
 30
0.0
 11
8.09284895658493
 21
9.370500000000002
 31
0.0
  0
LINE
  5
144
330
17
100
AcDbEntity
  8
0
100
AcDbLine
 10
8.09284895658493
 20
10.0555
 30
0.0
 11
8.09284895658493
 21
10.730500000000001
 31
0.0
  0
LINE
  5
145
330
17
100
AcDbEntity
  8
0
100
AcDbLine
 10
8.09284895658493
 20
10.730500000000001
 30
0.0
 11
8.09284895658493
 21
11.1705
 31
0.0
  0
LINE
  5
146
330
17
100
AcDbEntity
  8
0
100
AcDbLine
 10
8.09284895658493
 20
11.8555
 30
0.0
 11
8.09284895658493
 21
12.530500000000002
 31
0.0
  0
LINE
  5
147
330
17
100
AcDbEntity
  8
0
100
AcDbLine
 10
8.09284895658493
 20
12.530500000000002
 30
0.0
 11
8.09284895658493
 21
12.970500000000001
 31
0.0
  0
LINE
  5
148
330
17
100
AcDbEntity
  8
0
100
AcDbLine
 10
8.09284895658493
 20
13.6555
 30
0.0
 11
8.09284895658493
 21
14.179750000000002
 31
0.0
  0
LINE
  5
149
330
17
100
AcDbEntity
  8
0
100
AcDbLine
 10
8.59284895658493
 20
1.0434999999999997
 30
0.0
 11
8.59284895658493
 21
1.7185000000000012
 31
0.0
  0
LINE
  5
14A
330
17
100
AcDbEntity
  8
0
100
AcDbLine
 10
8.59284895658493
 20
1.0434999999999997
 30
0.0
 11
8.59284895658493
 21
1.7185000000000012
 31
0.0
  0
LINE
  5
14B
330
17
100
AcDbEntity
  8
0
100
AcDbLine
 10
8.59284895658493
 20
1.7185000000000012
 30
0.0
 11
8.59284895658493
 21
2.1585
 31
0.0
  0
LINE
  5
14C
330
17
100
AcDbEntity
  8
0
100
AcDbLine
 10
8.59284895658493
 20
2.8434999999999997
 30
0.0
 11
8.59284895658493
 21
3.5185000000000013
 31
0.0
  0
LINE
  5
14D
330
17
100
AcDbEntity
  8
0
100
AcDbLine
 10
8.59284895658493
 20
3.5185000000000013
 30
0.0
 11
8.59284895658493
 21
3.9585000000000004
 31
0.0
  0
LINE
  5
14E
330
17
100
AcDbEntity
  8
0
100
AcDbLine
 10
8.59284895658493
 20
4.6434999999999995
 30
0.0
 11
8.59284895658493
 21
5.083499999999999
 31
0.0
  0
LINE
  5
14F
330
17
100
AcDbEntity
  8
0
100
AcDbLine
 10
8.59284895658493
 20
5.083499999999999
 30
0.0
 11
8.59284895658493
 21
5.758500000000001
 31
0.0
  0
LINE
  5
150
330
17
100
AcDbEntity
  8
0
100
AcDbLine
 10
8.59284895658493
 20
6.4435
 30
0.0
 11
8.59284895658493
 21
6.883499999999999
 31
0.0
  0
LINE
  5
151
330
17
100
AcDbEntity
  8
0
100
AcDbLine
 10
8.59284895658493
 20
6.883499999999999
 30
0.0
 11
8.59284895658493
 21
7.5585
 31
0.0
  0
LINE
  5
152
330
17
100
AcDbEntity
  8
0
100
AcDbLine
 10
8.59284895658493
 20
8.2435
 30
0.0
 11
8.59284895658493
 21
8.918500000000002
 31
0.0
  0
LINE
  5
153
330
17
100
AcDbEntity
  8
0
100
AcDbLine
 10
8.59284895658493
 20
8.918500000000002
 30
0.0
 11
8.59284895658493
 21
9.358500000000001
 31
0.0
  0
LINE
  5
154
330
17
100
AcDbEntity
  8
0
100
AcDbLine
 10
8.59284895658493
 20
10.0435
 30
0.0
 11
8.59284895658493
 21
10.4835
 31
0.0
  0
LINE
  5
155
330
17
100
AcDbEntity
  8
0
100
AcDbLine
 10
8.59284895658493
 20
10.4835
 30
0.0
 11
8.59284895658493
 21
11.1585
 31
0.0
  0
LINE
  5
156
330
17
100
AcDbEntity
  8
0
100
AcDbLine
 10
8.59284895658493
 20
11.843499999999999
 30
0.0
 11
8.59284895658493
 21
12.518500000000001
 31
0.0
  0
LINE
  5
157
330
17
100
AcDbEntity
  8
0
100
AcDbLine
 10
8.59284895658493
 20
12.518500000000001
 30
0.0
 11
8.59284895658493
 21
12.9585
 31
0.0
  0
LINE
  5
158
330
17
100
AcDbEntity
  8
0
100
AcDbLine
 10
8.59284895658493
 20
13.6435
 30
0.0
 11
8.59284895658493
 21
14.1736
 31
0.0
  0
LINE
  5
159
330
17
100
AcDbEntity
  8
0
100
AcDbLine
 10
9.09284895658493
 20
1.0314999999999996
 30
0.0
 11
9.09284895658493
 21
1.7065000000000012
 31
0.0
  0
LINE
  5
15A
330
17
100
AcDbEntity
  8
0
100
AcDbLine
 10
9.09284895658493
 20
1.0314999999999996
 30
0.0
 11
9.09284895658493
 21
1.7065000000000012
 31
0.0
  0
LINE
  5
15B
330
17
100
AcDbEntity
  8
0
100
AcDbLine
 10
9.09284895658493
 20
1.7065000000000012
 30
0.0
 11
9.09284895658493
 21
2.1465000000000005
 31
0.0
  0
LINE
  5
15C
330
17
100
AcDbEntity
  8
0
100
AcDbLine
 10
9.09284895658493
 20
2.8314999999999997
 30
0.0
 11
9.09284895658493
 21
3.2714999999999987
 31
0.0
  0
LINE
  5
15D
330
17
100
AcDbEntity
  8
0
100
AcDbLine
 10
9.09284895658493
 20
3.2714999999999987
 30
0.0
 11
9.09284895658493
 21
3.946500000000001
 31
0.0
  0
LINE
  5
15E
330
17
100
AcDbEntity
  8
0
100
AcDbLine
 10
9.09284895658493
 20
4.631499999999999
 30
0.0
 11
9.09284895658493
 21
5.3065000000000015
 31
0.0
  0
LINE
  5
15F
330
17
100
AcDbEntity
  8
0
100
AcDbLine
 10
9.09284895658493
 20
5.3065000000000015
 30
0.0
 11
9.09284895658493
 21
5.746500000000001
 31
0.0
  0
LINE
  5
160
330
17
100
AcDbEntity
  8
0
100
AcDbLine
 10
9.09284895658493
 20
6.4315
 30
0.0
 11
9.09284895658493
 21
7.106500000000001
 31
0.0
  0
LINE
  5
161
330
17
100
AcDbEntity
  8
0
100
AcDbLine
 10
9.09284895658493
 20
7.106500000000001
 30
0.0
 11
9.09284895658493
 21
7.5465
 31
0.0
  0
LINE
  5
162
330
17
100
AcDbEntity
  8
0
100
AcDbLine
 10
9.09284895658493
 20
8.231499999999999
 30
0.0
 11
9.09284895658493
 21
8.906500000000001
 31
0.0
  0
LINE
  5
163
330
17
100
AcDbEntity
  8
0
100
AcDbLine
 10
9.09284895658493
 20
8.906500000000001
 30
0.0
 11
9.09284895658493
 21
9.3465
 31
0.0
  0
LINE
  5
164
330
17
100
AcDbEntity
  8
0
100
AcDbLine
 10
9.09284895658493
 20
10.0315
 30
0.0
 11
9.09284895658493
 21
10.706500000000002
 31
0.0
  0
LINE
  5
165
330
17
100
AcDbEntity
  8
0
100
AcDbLine
 10
9.09284895658493
 20
10.706500000000002
 30
0.0
 11
9.09284895658493
 21
11.146500000000001
 31
0.0
  0
LINE
  5
166
330
17
100
AcDbEntity
  8
0
100
AcDbLine
 10
9.09284895658493
 20
11.8315
 30
0.0
 11
9.09284895658493
 21
12.2715
 31
0.0
  0
LINE
  5
167
330
17
100
AcDbEntity
  8
0
100
AcDbLine
 10
9.09284895658493
 20
12.2715
 30
0.0
 11
9.09284895658493
 21
12.9465
 31
0.0
  0
LINE
  5
168
330
17
100
AcDbEntity
  8
0
100
AcDbLine
 10
9.09284895658493
 20
13.631499999999999
 30
0.0
 11
9.09284895658493
 21
14.16745
 31
0.0
  0
LINE
  5
169
330
17
100
AcDbEntity
  8
0
100
AcDbLine
 10
9.59284895658493
 20
1.0194999999999996
 30
0.0
 11
9.59284895658493
 21
1.6945000000000012
 31
0.0
  0
LINE
  5
16A
330
17
100
AcDbEntity
  8
0
100
AcDbLine
 10
9.59284895658493
 20
1.0194999999999996
 30
0.0
 11
9.59284895658493
 21
1.6945000000000012
 31
0.0
  0
LINE
  5
16B
330
17
100
AcDbEntity
  8
0
100
AcDbLine
 10
9.59284895658493
 20
1.6945000000000012
 30
0.0
 11
9.59284895658493
 21
2.1345000000000005
 31
0.0
  0
LINE
  5
16C
330
17
100
AcDbEntity
  8
0
100
AcDbLine
 10
9.59284895658493
 20
2.8194999999999997
 30
0.0
 11
9.59284895658493
 21
3.4945000000000013
 31
0.0
  0
LINE
  5
16D
330
17
100
AcDbEntity
  8
0
100
AcDbLine
 10
9.59284895658493
 20
3.4945000000000013
 30
0.0
 11
9.59284895658493
 21
3.9345000000000003
 31
0.0
  0
LINE
  5
16E
330
17
100
AcDbEntity
  8
0
100
AcDbLine
 10
9.59284895658493
 20
4.6195
 30
0.0
 11
9.59284895658493
 21
5.059499999999999
 31
0.0
  0
LINE
  5
16F
330
17
100
AcDbEntity
  8
0
100
AcDbLine
 10
9.59284895658493
 20
5.059499999999999
 30
0.0
 11
9.59284895658493
 21
5.734500000000001
 31
0.0
  0
LINE
  5
170
330
17
100
AcDbEntity
  8
0
100
AcDbLine
 10
9.59284895658493
 20
6.419499999999999
 30
0.0
 11
9.59284895658493
 21
6.859499999999999
 31
0.0
  0
LINE
  5
171
330
17
100
AcDbEntity
  8
0
100
AcDbLine
 10
9.59284895658493
 20
6.859499999999999
 30
0.0
 11
9.59284895658493
 21
7.5345
 31
0.0
  0
LINE
  5
172
330
17
100
AcDbEntity
  8
0
100
AcDbLine
 10
9.59284895658493
 20
8.2195
 30
0.0
 11
9.59284895658493
 21
8.6595
 31
0.0
  0
LINE
  5
173
330
17
100
AcDbEntity
  8
0
100
AcDbLine
 10
9.59284895658493
 20
8.6595
 30
0.0
 11
9.59284895658493
 21
9.3345
 31
0.0
  0
LINE
  5
174
330
17
100
AcDbEntity
  8
0
100
AcDbLine
 10
9.59284895658493
 20
10.019499999999999
 30
0.0
 11
9.59284895658493
 21
10.694500000000001
 31
0.0
  0
LINE
  5
175
330
17
100
AcDbEntity
  8
0
100
AcDbLine
 10
9.59284895658493
 20
10.694500000000001
 30
0.0
 11
9.59284895658493
 21
11.134500000000001
 31
0.0
  0
LINE
  5
176
330
17
100
AcDbEntity
  8
0
100
AcDbLine
 10
9.59284895658493
 20
11.8195
 30
0.0
 11
9.59284895658493
 21
12.494500000000002
 31
0.0
  0
LINE
  5
177
330
17
100
AcDbEntity
  8
0
100
AcDbLine
 10
9.59284895658493
 20
12.494500000000002
 30
0.0
 11
9.59284895658493
 21
12.934500000000002
 31
0.0
  0
LINE
  5
178
330
17
100
AcDbEntity
  8
0
100
AcDbLine
 10
9.59284895658493
 20
13.6195
 30
0.0
 11
9.59284895658493
 21
14.160850000000002
 31
0.0
  0
LINE
  5
179
330
17
100
AcDbEntity
  8
0
100
AcDbLine
 10
10.09284895658493
 20
1.0074999999999996
 30
0.0
 11
10.09284895658493
 21
1.6825000000000012
 31
0.0
  0
LINE
  5
17A
330
17
100
AcDbEntity
  8
0
100
AcDbLine
 10
10.09284895658493
 20
1.0074999999999996
 30
0.0
 11
10.09284895658493
 21
1.6825000000000012
 31
0.0
  0
LINE
  5
17B
330
17
100
AcDbEntity
  8
0
100
AcDbLine
 10
10.09284895658493
 20
1.6825000000000012
 30
0.0
 11
10.09284895658493
 21
2.1225000000000005
 31
0.0
  0
LINE
  5
17C
330
17
100
AcDbEntity
  8
0
100
AcDbLine
 10
10.09284895658493
 20
2.8074999999999997
 30
0.0
 11
10.09284895658493
 21
3.2474999999999987
 31
0.0
  0
LINE
  5
17D
330
17
100
AcDbEntity
  8
0
100
AcDbLine
 10
10.09284895658493
 20
3.2474999999999987
 30
0.0
 11
10.09284895658493
 21
3.9225000000000008
 31
0.0
  0
LINE
  5
17E
330
17
100
AcDbEntity
  8
0
100
AcDbLine
 10
10.09284895658493
 20
4.607499999999999
 30
0.0
 11
10.09284895658493
 21
5.282500000000001
 31
0.0
  0
LINE
  5
17F
330
17
100
AcDbEntity
  8
0
100
AcDbLine
 10
10.09284895658493
 20
5.282500000000001
 30
0.0
 11
10.09284895658493
 21
5.7225
 31
0.0
  0
LINE
  5
180
330
17
100
AcDbEntity
  8
0
100
AcDbLine
 10
10.09284895658493
 20
6.4075
 30
0.0
 11
10.09284895658493
 21
7.082500000000001
 31
0.0
  0
LINE
  5
181
330
17
100
AcDbEntity
  8
0
100
AcDbLine
 10
10.09284895658493
 20
7.082500000000001
 30
0.0
 11
10.09284895658493
 21
7.522500000000001
 31
0.0
  0
LINE
  5
182
330
17
100
AcDbEntity
  8
0
100
AcDbLine
 10
10.09284895658493
 20
8.2075
 30
0.0
 11
10.09284895658493
 21
8.882500000000002
 31
0.0
  0
LINE
  5
183
330
17
100
AcDbEntity
  8
0
100
AcDbLine
 10
10.09284895658493
 20
8.882500000000002
 30
0.0
 11
10.09284895658493
 21
9.322500000000002
 31
0.0
  0
LINE
  5
184
330
17
100
AcDbEntity
  8
0
100
AcDbLine
 10
10.09284895658493
 20
10.0075
 30
0.0
 11
10.09284895658493
 21
10.682500000000001
 31
0.0
  0
LINE
  5
185
330
17
100
AcDbEntity
  8
0
100
AcDbLine
 10
10.09284895658493
 20
10.682500000000001
 30
0.0
 11
10.09284895658493
 21
11.1225
 31
0.0
  0
LINE
  5
186
330
17
100
AcDbEntity
  8
0
100
AcDbLine
 10
10.09284895658493
 20
11.8075
 30
0.0
 11
10.09284895658493
 21
12.482500000000002
 31
0.0
  0
LINE
  5
187
330
17
100
AcDbEntity
  8
0
100
AcDbLine
 10
10.09284895658493
 20
12.482500000000002
 30
0.0
 11
10.09284895658493
 21
12.922500000000001
 31
0.0
  0
LINE
  5
188
330
17
100
AcDbEntity
  8
0
100
AcDbLine
 10
10.09284895658493
 20
13.6075
 30
0.0
 11
10.09284895658493
 21
14.154700000000002
 31
0.0
  0
LINE
  5
189
330
17
100
AcDbEntity
  8
0
100
AcDbLine
 10
10.59284895658493
 20
0.9954999999999996
 30
0.0
 11
10.59284895658493
 21
1.6705000000000012
 31
0.0
  0
LINE
  5
18A
330
17
100
AcDbEntity
  8
0
100
AcDbLine
 10
10.59284895658493
 20
0.9954999999999996
 30
0.0
 11
10.59284895658493
 21
1.6705000000000012
 31
0.0
  0
LINE
  5
18B
330
17
100
AcDbEntity
  8
0
100
AcDbLine
 10
10.59284895658493
 20
1.6705000000000012
 30
0.0
 11
10.59284895658493
 21
2.1105000000000005
 31
0.0
  0
LINE
  5
18C
330
17
100
AcDbEntity
  8
0
100
AcDbLine
 10
10.59284895658493
 20
2.7954999999999997
 30
0.0
 11
10.59284895658493
 21
3.4705000000000013
 31
0.0
  0
LINE
  5
18D
330
17
100
AcDbEntity
  8
0
100
AcDbLine
 10
10.59284895658493
 20
3.4705000000000013
 30
0.0
 11
10.59284895658493
 21
3.9105000000000003
 31
0.0
  0
LINE
  5
18E
330
17
100
AcDbEntity
  8
0
100
AcDbLine
 10
10.59284895658493
 20
4.5954999999999995
 30
0.0
 11
10.59284895658493
 21
5.035499999999999
 31
0.0
  0
LINE
  5
18F
330
17
100
AcDbEntity
  8
0
100
AcDbLine
 10
10.59284895658493
 20
5.035499999999999
 30
0.0
 11
10.59284895658493
 21
5.710500000000001
 31
0.0
  0
LINE
  5
190
330
17
100
AcDbEntity
  8
0
100
AcDbLine
 10
10.59284895658493
 20
6.3955
 30
0.0
 11
10.59284895658493
 21
6.835499999999999
 31
0.0
  0
LINE
  5
191
330
17
100
AcDbEntity
  8
0
100
AcDbLine
 10
10.59284895658493
 20
6.835499999999999
 30
0.0
 11
10.59284895658493
 21
7.5105
 31
0.0
  0
LINE
  5
192
330
17
100
AcDbEntity
  8
0
100
AcDbLine
 10
10.59284895658493
 20
8.1955
 30
0.0
 11
10.59284895658493
 21
8.870500000000002
 31
0.0
  0
LINE
  5
193
330
17
100
AcDbEntity
  8
0
100
AcDbLine
 10
10.59284895658493
 20
8.870500000000002
 30
0.0
 11
10.59284895658493
 21
9.310500000000001
 31
0.0
  0
LINE
  5
194
330
17
100
AcDbEntity
  8
0
100
AcDbLine
 10
10.59284895658493
 20
9.9955
 30
0.0
 11
10.59284895658493
 21
10.4355
 31
0.0
  0
LINE
  5
195
330
17
100
AcDbEntity
  8
0
100
AcDbLine
 10
10.59284895658493
 20
10.4355
 30
0.0
 11
10.59284895658493
 21
11.1105
 31
0.0
  0
LINE
  5
196
330
17
100
AcDbEntity
  8
0
100
AcDbLine
 10
10.59284895658493
 20
11.795499999999999
 30
0.0
 11
10.59284895658493
 21
12.470500000000001
 31
0.0
  0
LINE
  5
197
330
17
100
AcDbEntity
  8
0
100
AcDbLine
 10
10.59284895658493
 20
12.470500000000001
 30
0.0
 11
10.59284895658493
 21
12.9105
 31
0.0
  0
LINE
  5
198
330
17
100
AcDbEntity
  8
0
100
AcDbLine
 10
10.59284895658493
 20
13.5955
 30
0.0
 11
10.59284895658493
 21
14.14855
 31
0.0
  0
LINE
  5
199
330
17
100
AcDbEntity
  8
0
100
AcDbLine
 10
11.09284895658493
 20
0.9834999999999996
 30
0.0
 11
11.09284895658493
 21
1.6585000000000012
 31
0.0
  0
LINE
  5
19A
330
17
100
AcDbEntity
  8
0
100
AcDbLine
 10
11.09284895658493
 20
0.9834999999999996
 30
0.0
 11
11.09284895658493
 21
1.6585000000000012
 31
0.0
  0
LINE
  5
19B
330
17
100
AcDbEntity
  8
0
100
AcDbLine
 10
11.09284895658493
 20
1.6585000000000012
 30
0.0
 11
11.09284895658493
 21
2.0985000000000005
 31
0.0
  0
LINE
  5
19C
330
17
100
AcDbEntity
  8
0
100
AcDbLine
 10
11.09284895658493
 20
2.7834999999999996
 30
0.0
 11
11.09284895658493
 21
3.4585000000000017
 31
0.0
  0
LINE
  5
19D
330
17
100
AcDbEntity
  8
0
100
AcDbLine
 10
11.09284895658493
 20
3.4585000000000017
 30
0.0
 11
11.09284895658493
 21
3.8985000000000003
 31
0.0
  0
LINE
  5
19E
330
17
100
AcDbEntity
  8
0
100
AcDbLine
 10
11.09284895658493
 20
4.583499999999999
 30
0.0
 11
11.09284895658493
 21
5.2585000000000015
 31
0.0
  0
LINE
  5
19F
330
17
100
AcDbEntity
  8
0
100
AcDbLine
 10
11.09284895658493
 20
5.2585000000000015
 30
0.0
 11
11.09284895658493
 21
5.698500000000001
 31
0.0
  0
LINE
  5
1A0
330
17
100
AcDbEntity
  8
0
100
AcDbLine
 10
11.09284895658493
 20
6.3835
 30
0.0
 11
11.09284895658493
 21
7.058500000000001
 31
0.0
  0
LINE
  5
1A1
330
17
100
AcDbEntity
  8
0
100
AcDbLine
 10
11.09284895658493
 20
7.058500000000001
 30
0.0
 11
11.09284895658493
 21
7.4985
 31
0.0
  0
LINE
  5
1A2
330
17
100
AcDbEntity
  8
0
100
AcDbLine
 10
11.09284895658493
 20
8.183499999999999
 30
0.0
 11
11.09284895658493
 21
8.623499999999998
 31
0.0
  0
LINE
  5
1A3
330
17
100
AcDbEntity
  8
0
100
AcDbLine
 10
11.09284895658493
 20
8.623499999999998
 30
0.0
 11
11.09284895658493
 21
9.2985
 31
0.0
  0
LINE
  5
1A4
330
17
100
AcDbEntity
  8
0
100
AcDbLine
 10
11.09284895658493
 20
9.9835
 30
0.0
 11
11.09284895658493
 21
10.658500000000002
 31
0.0
  0
LINE
  5
1A5
330
17
100
AcDbEntity
  8
0
100
AcDbLine
 10
11.09284895658493
 20
10.658500000000002
 30
0.0
 11
11.09284895658493
 21
11.098500000000001
 31
0.0
  0
LINE
  5
1A6
330
17
100
AcDbEntity
  8
0
100
AcDbLine
 10
11.09284895658493
 20
11.7835
 30
0.0
 11
11.09284895658493
 21
12.2235
 31
0.0
  0
LINE
  5
1A7
330
17
100
AcDbEntity
  8
0
100
AcDbLine
 10
11.09284895658493
 20
12.2235
 30
0.0
 11
11.09284895658493
 21
12.8985
 31
0.0
  0
LINE
  5
1A8
330
17
100
AcDbEntity
  8
0
100
AcDbLine
 10
11.09284895658493
 20
13.583499999999999
 30
0.0
 11
11.09284895658493
 21
14.142400000000002
 31
0.0
  0
LINE
  5
1A9
330
17
100
AcDbEntity
  8
0
100
AcDbLine
 10
11.59284895658493
 20
0.9714999999999996
 30
0.0
 11
11.59284895658493
 21
1.6465000000000012
 31
0.0
  0
LINE
  5
1AA
330
17
100
AcDbEntity
  8
0
100
AcDbLine
 10
11.59284895658493
 20
0.9714999999999996
 30
0.0
 11
11.59284895658493
 21
1.6465000000000012
 31
0.0
  0
LINE
  5
1AB
330
17
100
AcDbEntity
  8
0
100
AcDbLine
 10
11.59284895658493
 20
1.6465000000000012
 30
0.0
 11
11.59284895658493
 21
2.0865000000000005
 31
0.0
  0
LINE
  5
1AC
330
17
100
AcDbEntity
  8
0
100
AcDbLine
 10
11.59284895658493
 20
2.7714999999999996
 30
0.0
 11
11.59284895658493
 21
3.4465000000000012
 31
0.0
  0
LINE
  5
1AD
330
17
100
AcDbEntity
  8
0
100
AcDbLine
 10
11.59284895658493
 20
3.4465000000000012
 30
0.0
 11
11.59284895658493
 21
3.8865000000000003
 31
0.0
  0
LINE
  5
1AE
330
17
100
AcDbEntity
  8
0
100
AcDbLine
 10
11.59284895658493
 20
4.5715
 30
0.0
 11
11.59284895658493
 21
5.011499999999999
 31
0.0
  0
LINE
  5
1AF
330
17
100
AcDbEntity
  8
0
100
AcDbLine
 10
11.59284895658493
 20
5.011499999999999
 30
0.0
 11
11.59284895658493
 21
5.6865000000000006
 31
0.0
  0
LINE
  5
1B0
330
17
100
AcDbEntity
  8
0
100
AcDbLine
 10
11.59284895658493
 20
6.371499999999999
 30
0.0
 11
11.59284895658493
 21
6.811499999999999
 31
0.0
  0
LINE
  5
1B1
330
17
100
AcDbEntity
  8
0
100
AcDbLine
 10
11.59284895658493
 20
6.811499999999999
 30
0.0
 11
11.59284895658493
 21
7.4865
 31
0.0
  0
LINE
  5
1B2
330
17
100
AcDbEntity
  8
0
100
AcDbLine
 10
11.59284895658493
 20
8.1715
 30
0.0
 11
11.59284895658493
 21
8.611499999999998
 31
0.0
  0
LINE
  5
1B3
330
17
100
AcDbEntity
  8
0
100
AcDbLine
 10
11.59284895658493
 20
8.611499999999998
 30
0.0
 11
11.59284895658493
 21
9.2865
 31
0.0
  0
LINE
  5
1B4
330
17
100
AcDbEntity
  8
0
100
AcDbLine
 10
11.59284895658493
 20
9.971499999999999
 30
0.0
 11
11.59284895658493
 21
10.646500000000001
 31
0.0
  0
LINE
  5
1B5
330
17
100
AcDbEntity
  8
0
100
AcDbLine
 10
11.59284895658493
 20
10.646500000000001
 30
0.0
 11
11.59284895658493
 21
11.086500000000001
 31
0.0
  0
LINE
  5
1B6
330
17
100
AcDbEntity
  8
0
100
AcDbLine
 10
11.59284895658493
 20
11.7715
 30
0.0
 11
11.59284895658493
 21
12.446500000000002
 31
0.0
  0
LINE
  5
1B7
330
17
100
AcDbEntity
  8
0
100
AcDbLine
 10
11.59284895658493
 20
12.446500000000002
 30
0.0
 11
11.59284895658493
 21
12.886500000000002
 31
0.0
  0
LINE
  5
1B8
330
17
100
AcDbEntity
  8
0
100
AcDbLine
 10
11.59284895658493
 20
13.5715
 30
0.0
 11
11.59284895658493
 21
14.135800000000001
 31
0.0
  0
LINE
  5
1B9
330
17
100
AcDbEntity
  8
0
100
AcDbLine
 10
12.09284895658493
 20
0.9594999999999996
 30
0.0
 11
12.09284895658493
 21
1.6345000000000012
 31
0.0
  0
LINE
  5
1BA
330
17
100
AcDbEntity
  8
0
100
AcDbLine
 10
12.09284895658493
 20
0.9594999999999996
 30
0.0
 11
12.09284895658493
 21
1.6345000000000012
 31
0.0
  0
LINE
  5
1BB
330
17
100
AcDbEntity
  8
0
100
AcDbLine
 10
12.09284895658493
 20
1.6345000000000012
 30
0.0
 11
12.09284895658493
 21
2.0745000000000005
 31
0.0
  0
LINE
  5
1BC
330
17
100
AcDbEntity
  8
0
100
AcDbLine
 10
12.09284895658493
 20
2.7594999999999996
 30
0.0
 11
12.09284895658493
 21
3.4345000000000017
 31
0.0
  0
LINE
  5
1BD
330
17
100
AcDbEntity
  8
0
100
AcDbLine
 10
12.09284895658493
 20
3.4345000000000017
 30
0.0
 11
12.09284895658493
 21
3.8745000000000003
 31
0.0
  0
LINE
  5
1BE
330
17
100
AcDbEntity
  8
0
100
AcDbLine
 10
12.09284895658493
 20
4.5595
 30
0.0
 11
12.09284895658493
 21
5.2345000000000015
 31
0.0
  0
LINE
  5
1BF
330
17
100
AcDbEntity
  8
0
100
AcDbLine
 10
12.09284895658493
 20
5.2345000000000015
 30
0.0
 11
12.09284895658493
 21
5.6745
 31
0.0
  0
LINE
  5
1C0
330
17
100
AcDbEntity
  8
0
100
AcDbLine
 10
12.09284895658493
 20
6.3595
 30
0.0
 11
12.09284895658493
 21
7.034500000000001
 31
0.0
  0
LINE
  5
1C1
330
17
100
AcDbEntity
  8
0
100
AcDbLine
 10
12.09284895658493
 20
7.034500000000001
 30
0.0
 11
12.09284895658493
 21
7.474500000000001
 31
0.0
  0
LINE
  5
1C2
330
17
100
AcDbEntity
  8
0
100
AcDbLine
 10
12.09284895658493
 20
8.1595
 30
0.0
 11
12.09284895658493
 21
8.834500000000002
 31
0.0
  0
LINE
  5
1C3
330
17
100
AcDbEntity
  8
0
100
AcDbLine
 10
12.09284895658493
 20
8.834500000000002
 30
0.0
 11
12.09284895658493
 21
9.274500000000002
 31
0.0
  0
LINE
  5
1C4
330
17
100
AcDbEntity
  8
0
100
AcDbLine
 10
12.09284895658493
 20
9.9595
 30
0.0
 11
12.09284895658493
 21
10.634500000000001
 31
0.0
  0
LINE
  5
1C5
330
17
100
AcDbEntity
  8
0
100
AcDbLine
 10
12.09284895658493
 20
10.634500000000001
 30
0.0
 11
12.09284895658493
 21
11.0745
 31
0.0
  0
LINE
  5
1C6
330
17
100
AcDbEntity
  8
0
100
AcDbLine
 10
12.09284895658493
 20
11.7595
 30
0.0
 11
12.09284895658493
 21
12.434500000000002
 31
0.0
  0
LINE
  5
1C7
330
17
100
AcDbEntity
  8
0
100
AcDbLine
 10
12.09284895658493
 20
12.434500000000002
 30
0.0
 11
12.09284895658493
 21
12.874500000000001
 31
0.0
  0
LINE
  5
1C8
330
17
100
AcDbEntity
  8
0
100
AcDbLine
 10
12.09284895658493
 20
13.5595
 30
0.0
 11
12.09284895658493
 21
14.129650000000002
 31
0.0
  0
LINE
  5
1C9
330
17
100
AcDbEntity
  8
0
100
AcDbLine
 10
12.59284895658493
 20
0.9474999999999996
 30
0.0
 11
12.59284895658493
 21
1.6225000000000012
 31
0.0
  0
LINE
  5
1CA
330
17
100
AcDbEntity
  8
0
100
AcDbLine
 10
12.59284895658493
 20
0.9474999999999996
 30
0.0
 11
12.59284895658493
 21
1.6225000000000012
 31
0.0
  0
LINE
  5
1CB
330
17
100
AcDbEntity
  8
0
100
AcDbLine
 10
12.59284895658493
 20
1.6225000000000012
 30
0.0
 11
12.59284895658493
 21
2.0625000000000004
 31
0.0
  0
LINE
  5
1CC
330
17
100
AcDbEntity
  8
0
100
AcDbLine
 10
12.59284895658493
 20
2.7474999999999996
 30
0.0
 11
12.59284895658493
 21
3.422500000000001
 31
0.0
  0
LINE
  5
1CD
330
17
100
AcDbEntity
  8
0
100
AcDbLine
 10
12.59284895658493
 20
3.422500000000001
 30
0.0
 11
12.59284895658493
 21
3.8625000000000003
 31
0.0
  0
LINE
  5
1CE
330
17
100
AcDbEntity
  8
0
100
AcDbLine
 10
12.59284895658493
 20
4.547499999999999
 30
0.0
 11
12.59284895658493
 21
4.987499999999999
 31
0.0
  0
LINE
  5
1CF
330
17
100
AcDbEntity
  8
0
100
AcDbLine
 10
12.59284895658493
 20
4.987499999999999
 30
0.0
 11
12.59284895658493
 21
5.6625000000000005
 31
0.0
  0
LINE
  5
1D0
330
17
100
AcDbEntity
  8
0
100
AcDbLine
 10
12.59284895658493
 20
6.3475
 30
0.0
 11
12.59284895658493
 21
6.787499999999999
 31
0.0
  0
LINE
  5
1D1
330
17
100
AcDbEntity
  8
0
100
AcDbLine
 10
12.59284895658493
 20
6.787499999999999
 30
0.0
 11
12.59284895658493
 21
7.4625
 31
0.0
  0
LINE
  5
1D2
330
17
100
AcDbEntity
  8
0
100
AcDbLine
 10
12.59284895658493
 20
8.147499999999999
 30
0.0
 11
12.59284895658493
 21
8.822500000000002
 31
0.0
  0
LINE
  5
1D3
330
17
100
AcDbEntity
  8
0
100
AcDbLine
 10
12.59284895658493
 20
8.822500000000002
 30
0.0
 11
12.59284895658493
 21
9.262500000000001
 31
0.0
  0
LINE
  5
1D4
330
17
100
AcDbEntity
  8
0
100
AcDbLine
 10
12.59284895658493
 20
9.9475
 30
0.0
 11
12.59284895658493
 21
10.3875
 31
0.0
  0
LINE
  5
1D5
330
17
100
AcDbEntity
  8
0
100
AcDbLine
 10
12.59284895658493
 20
10.3875
 30
0.0
 11
12.59284895658493
 21
11.0625
 31
0.0
  0
LINE
  5
1D6
330
17
100
AcDbEntity
  8
0
100
AcDbLine
 10
12.59284895658493
 20
11.747499999999999
 30
0.0
 11
12.59284895658493
 21
12.422500000000001
 31
0.0
  0
LINE
  5
1D7
330
17
100
AcDbEntity
  8
0
100
AcDbLine
 10
12.59284895658493
 20
12.422500000000001
 30
0.0
 11
12.59284895658493
 21
12.8625
 31
0.0
  0
LINE
  5
1D8
330
17
100
AcDbEntity
  8
0
100
AcDbLine
 10
12.59284895658493
 20
13.5475
 30
0.0
 11
12.59284895658493
 21
14.123500000000002
 31
0.0
  0
LINE
  5
1D9
330
17
100
AcDbEntity
  8
0
100
AcDbLine
 10
13.09284895658493
 20
0.9474999999999996
 30
0.0
 11
13.09284895658493
 21
1.6225000000000012
 31
0.0
  0
LINE
  5
1DA
330
17
100
AcDbEntity
  8
0
100
AcDbLine
 10
13.09284895658493
 20
0.9474999999999996
 30
0.0
 11
13.09284895658493
 21
1.6225000000000012
 31
0.0
  0
LINE
  5
1DB
330
17
100
AcDbEntity
  8
0
100
AcDbLine
 10
13.09284895658493
 20
1.6225000000000012
 30
0.0
 11
13.09284895658493
 21
2.0625000000000004
 31
0.0
  0
LINE
  5
1DC
330
17
100
AcDbEntity
  8
0
100
AcDbLine
 10
13.09284895658493
 20
2.7474999999999996
 30
0.0
 11
13.09284895658493
 21
3.422500000000001
 31
0.0
  0
LINE
  5
1DD
330
17
100
AcDbEntity
  8
0
100
AcDbLine
 10
13.09284895658493
 20
3.422500000000001
 30
0.0
 11
13.09284895658493
 21
3.8625000000000003
 31
0.0
  0
LINE
  5
1DE
330
17
100
AcDbEntity
  8
0
100
AcDbLine
 10
13.09284895658493
 20
4.547499999999999
 30
0.0
 11
13.09284895658493
 21
4.987499999999999
 31
0.0
  0
LINE
  5
1DF
330
17
100
AcDbEntity
  8
0
100
AcDbLine
 10
13.09284895658493
 20
4.987499999999999
 30
0.0
 11
13.09284895658493
 21
5.6625000000000005
 31
0.0
  0
LINE
  5
1E0
330
17
100
AcDbEntity
  8
0
100
AcDbLine
 10
13.09284895658493
 20
6.3475
 30
0.0
 11
13.09284895658493
 21
6.787499999999999
 31
0.0
  0
LINE
  5
1E1
330
17
100
AcDbEntity
  8
0
100
AcDbLine
 10
13.09284895658493
 20
6.787499999999999
 30
0.0
 11
13.09284895658493
 21
7.4625
 31
0.0
  0
LINE
  5
1E2
330
17
100
AcDbEntity
  8
0
100
AcDbLine
 10
13.09284895658493
 20
8.147499999999999
 30
0.0
 11
13.09284895658493
 21
8.822500000000002
 31
0.0
  0
LINE
  5
1E3
330
17
100
AcDbEntity
  8
0
100
AcDbLine
 10
13.09284895658493
 20
8.822500000000002
 30
0.0
 11
13.09284895658493
 21
9.262500000000001
 31
0.0
  0
LINE
  5
1E4
330
17
100
AcDbEntity
  8
0
100
AcDbLine
 10
13.09284895658493
 20
9.9475
 30
0.0
 11
13.09284895658493
 21
10.3875
 31
0.0
  0
LINE
  5
1E5
330
17
100
AcDbEntity
  8
0
100
AcDbLine
 10
13.09284895658493
 20
10.3875
 30
0.0
 11
13.09284895658493
 21
11.0625
 31
0.0
  0
LINE
  5
1E6
330
17
100
AcDbEntity
  8
0
100
AcDbLine
 10
13.09284895658493
 20
11.747499999999999
 30
0.0
 11
13.09284895658493
 21
12.422500000000001
 31
0.0
  0
LINE
  5
1E7
330
17
100
AcDbEntity
  8
0
100
AcDbLine
 10
13.09284895658493
 20
12.422500000000001
 30
0.0
 11
13.09284895658493
 21
12.8625
 31
0.0
  0
LINE
  5
1E8
330
17
100
AcDbEntity
  8
0
100
AcDbLine
 10
13.09284895658493
 20
13.5475
 30
0.0
 11
13.09284895658493
 21
14.123950000000002
 31
0.0
  0
LINE
  5
1E9
330
17
100
AcDbEntity
  8
0
100
AcDbLine
 10
13.59284895658493
 20
1.0154999999999996
 30
0.0
 11
13.59284895658493
 21
1.6905000000000012
 31
0.0
  0
LINE
  5
1EA
330
17
100
AcDbEntity
  8
0
100
AcDbLine
 10
13.59284895658493
 20
1.0154999999999996
 30
0.0
 11
13.59284895658493
 21
1.6905000000000012
 31
0.0
  0
LINE
  5
1EB
330
17
100
AcDbEntity
  8
0
100
AcDbLine
 10
13.59284895658493
 20
1.6905000000000012
 30
0.0
 11
13.59284895658493
 21
2.1305000000000005
 31
0.0
  0
LINE
  5
1EC
330
17
100
AcDbEntity
  8
0
100
AcDbLine
 10
13.59284895658493
 20
2.8154999999999997
 30
0.0
 11
13.59284895658493
 21
3.2554999999999987
 31
0.0
  0
LINE
  5
1ED
330
17
100
AcDbEntity
  8
0
100
AcDbLine
 10
13.59284895658493
 20
3.2554999999999987
 30
0.0
 11
13.59284895658493
 21
3.9305000000000008
 31
0.0
  0
LINE
  5
1EE
330
17
100
AcDbEntity
  8
0
100
AcDbLine
 10
13.59284895658493
 20
4.615499999999999
 30
0.0
 11
13.59284895658493
 21
5.2905000000000015
 31
0.0
  0
LINE
  5
1EF
330
17
100
AcDbEntity
  8
0
100
AcDbLine
 10
13.59284895658493
 20
5.2905000000000015
 30
0.0
 11
13.59284895658493
 21
5.730500000000001
 31
0.0
  0
LINE
  5
1F0
330
17
100
AcDbEntity
  8
0
100
AcDbLine
 10
13.59284895658493
 20
6.4155
 30
0.0
 11
13.59284895658493
 21
7.090500000000001
 31
0.0
  0
LINE
  5
1F1
330
17
100
AcDbEntity
  8
0
100
AcDbLine
 10
13.59284895658493
 20
7.090500000000001
 30
0.0
 11
13.59284895658493
 21
7.5305
 31
0.0
  0
LINE
  5
1F2
330
17
100
AcDbEntity
  8
0
100
AcDbLine
 10
13.59284895658493
 20
8.215499999999999
 30
0.0
 11
13.59284895658493
 21
8.890500000000001
 31
0.0
  0
LINE
  5
1F3
330
17
100
AcDbEntity
  8
0
100
AcDbLine
 10
13.59284895658493
 20
8.890500000000001
 30
0.0
 11
13.59284895658493
 21
9.3305
 31
0.0
  0
LINE
  5
1F4
330
17
100
AcDbEntity
  8
0
100
AcDbLine
 10
13.59284895658493
 20
10.0155
 30
0.0
 11
13.59284895658493
 21
10.690500000000002
 31
0.0
  0
LINE
  5
1F5
330
17
100
AcDbEntity
  8
0
100
AcDbLine
 10
13.59284895658493
 20
10.690500000000002
 30
0.0
 11
13.59284895658493
 21
11.130500000000001
 31
0.0
  0
LINE
  5
1F6
330
17
100
AcDbEntity
  8
0
100
AcDbLine
 10
13.59284895658493
 20
11.8155
 30
0.0
 11
13.59284895658493
 21
12.2555
 31
0.0
  0
LINE
  5
1F7
330
17
100
AcDbEntity
  8
0
100
AcDbLine
 10
13.59284895658493
 20
12.2555
 30
0.0
 11
13.59284895658493
 21
12.9305
 31
0.0
  0
LINE
  5
1F8
330
17
100
AcDbEntity
  8
0
100
AcDbLine
 10
13.59284895658493
 20
13.615499999999999
 30
0.0
 11
13.59284895658493
 21
14.16135
 31
0.0
  0
LINE
  5
1F9
330
17
100
AcDbEntity
  8
0
100
AcDbLine
 10
14.09284895658493
 20
1.1464999999999996
 30
0.0
 11
14.09284895658493
 21
1.5864999999999987
 31
0.0
  0
LINE
  5
1FA
330
17
100
AcDbEntity
  8
0
100
AcDbLine
 10
14.09284895658493
 20
1.1464999999999996
 30
0.0
 11
14.09284895658493
 21
1.5864999999999987
 31
0.0
  0
LINE
  5
1FB
330
17
100
AcDbEntity
  8
0
100
AcDbLine
 10
14.09284895658493
 20
1.5864999999999987
 30
0.0
 11
14.09284895658493
 21
2.2615000000000007
 31
0.0
  0
LINE
  5
1FC
330
17
100
AcDbEntity
  8
0
100
AcDbLine
 10
14.09284895658493
 20
2.9465
 30
0.0
 11
14.09284895658493
 21
3.386499999999999
 31
0.0
  0
LINE
  5
1FD
330
17
100
AcDbEntity
  8
0
100
AcDbLine
 10
14.09284895658493
 20
3.386499999999999
 30
0.0
 11
14.09284895658493
 21
4.0615000000000006
 31
0.0
  0
LINE
  5
1FE
330
17
100
AcDbEntity
  8
0
100
AcDbLine
 10
14.09284895658493
 20
4.746499999999999
 30
0.0
 11
14.09284895658493
 21
5.186499999999999
 31
0.0
  0
LINE
  5
1FF
330
17
100
AcDbEntity
  8
0
100
AcDbLine
 10
14.09284895658493
 20
5.186499999999999
 30
0.0
 11
14.09284895658493
 21
5.8615
 31
0.0
  0
LINE
  5
200
330
17
100
AcDbEntity
  8
0
100
AcDbLine
 10
14.09284895658493
 20
6.5465
 30
0.0
 11
14.09284895658493
 21
6.9864999999999995
 31
0.0
  0
LINE
  5
201
330
17
100
AcDbEntity
  8
0
100
AcDbLine
 10
14.09284895658493
 20
6.9864999999999995
 30
0.0
 11
14.09284895658493
 21
7.661500000000001
 31
0.0
  0
LINE
  5
202
330
17
100
AcDbEntity
  8
0
100
AcDbLine
 10
14.09284895658493
 20
8.346499999999999
 30
0.0
 11
14.09284895658493
 21
9.021500000000001
 31
0.0
  0
LINE
  5
203
330
17
100
AcDbEntity
  8
0
100
AcDbLine
 10
14.09284895658493
 20
9.021500000000001
 30
0.0
 11
14.09284895658493
 21
9.461500000000001
 31
0.0
  0
LINE
  5
204
330
17
100
AcDbEntity
  8
0
100
AcDbLine
 10
14.09284895658493
 20
10.1465
 30
0.0
 11
14.09284895658493
 21
10.821500000000002
 31
0.0
  0
LINE
  5
205
330
17
100
AcDbEntity
  8
0
100
AcDbLine
 10
14.09284895658493
 20
10.821500000000002
 30
0.0
 11
14.09284895658493
 21
11.261500000000002
 31
0.0
  0
LINE
  5
206
330
17
100
AcDbEntity
  8
0
100
AcDbLine
 10
14.09284895658493
 20
11.9465
 30
0.0
 11
14.09284895658493
 21
12.621500000000001
 31
0.0
  0
LINE
  5
207
330
17
100
AcDbEntity
  8
0
100
AcDbLine
 10
14.09284895658493
 20
12.621500000000001
 30
0.0
 11
14.09284895658493
 21
13.0615
 31
0.0
  0
LINE
  5
208
330
17
100
AcDbEntity
  8
0
100
AcDbLine
 10
14.09284895658493
 20
13.7465
 30
0.0
 11
14.09284895658493
 21
14.23385
 31
0.0
  0
LINE
  5
209
330
17
100
AcDbEntity
  8
0
100
AcDbLine
 10
14.59284895658493
 20
1.7184999999999997
 30
0.0
 11
14.59284895658493
 21
2.393950000000001
 31
0.0
  0
LINE
  5
20A
330
17
100
AcDbEntity
  8
0
100
AcDbLine
 10
14.59284895658493
 20
1.7184999999999997
 30
0.0
 11
14.59284895658493
 21
2.393950000000001
 31
0.0
  0
LINE
  5
20B
330
17
100
AcDbEntity
  8
0
100
AcDbLine
 10
14.59284895658493
 20
2.393950000000001
 30
0.0
 11
14.59284895658493
 21
2.8345000000000002
 31
0.0
  0
LINE
  5
20C
330
17
100
AcDbEntity
  8
0
100
AcDbLine
 10
14.59284895658493
 20
3.5184999999999995
 30
0.0
 11
14.59284895658493
 21
4.193950000000001
 31
0.0
  0
LINE
  5
20D
330
17
100
AcDbEntity
  8
0
100
AcDbLine
 10
14.59284895658493
 20
4.193950000000001
 30
0.0
 11
14.59284895658493
 21
4.634500000000001
 31
0.0
  0
LINE
  5
20E
330
17
100
AcDbEntity
  8
0
100
AcDbLine
 10
14.59284895658493
 20
5.318499999999999
 30
0.0
 11
14.59284895658493
 21
5.993950000000001
 31
0.0
  0
LINE
  5
20F
330
17
100
AcDbEntity
  8
0
100
AcDbLine
 10
14.59284895658493
 20
5.993950000000001
 30
0.0
 11
14.59284895658493
 21
6.4345
 31
0.0
  0
LINE
  5
210
330
17
100
AcDbEntity
  8
0
100
AcDbLine
 10
14.59284895658493
 20
7.118499999999999
 30
0.0
 11
14.59284895658493
 21
7.793950000000001
 31
0.0
  0
LINE
  5
211
330
17
100
AcDbEntity
  8
0
100
AcDbLine
 10
14.59284895658493
 20
7.793950000000001
 30
0.0
 11
14.59284895658493
 21
8.2345
 31
0.0
  0
LINE
  5
212
330
17
100
AcDbEntity
  8
0
100
AcDbLine
 10
14.59284895658493
 20
8.9185
 30
0.0
 11
14.59284895658493
 21
9.593950000000001
 31
0.0
  0
LINE
  5
213
330
17
100
AcDbEntity
  8
0
100
AcDbLine
 10
14.59284895658493
 20
9.593950000000001
 30
0.0
 11
14.59284895658493
 21
10.034500000000001
 31
0.0
  0
LINE
  5
214
330
17
100
AcDbEntity
  8
0
100
AcDbLine
 10
14.59284895658493
 20
10.718499999999999
 30
0.0
 11
14.59284895658493
 21
11.159049999999999
 31
0.0
  0
LINE
  5
215
330
17
100
AcDbEntity
  8
0
100
AcDbLine
 10
14.59284895658493
 20
11.159049999999999
 30
0.0
 11
14.59284895658493
 21
11.8345
 31
0.0
  0
LINE
  5
216
330
17
100
AcDbEntity
  8
0
100
AcDbLine
 10
14.59284895658493
 20
12.5185
 30
0.0
 11
14.59284895658493
 21
13.193950000000001
 31
0.0
  0
LINE
  5
217
330
17
100
AcDbEntity
  8
0
100
AcDbLine
 10
14.59284895658493
 20
13.193950000000001
 30
0.0
 11
14.59284895658493
 21
13.634500000000001
 31
0.0
  0
LINE
  5
218
330
17
100
AcDbEntity
  8
0
100
AcDbLine
 10
14.59284895658493
 20
14.3185
 30
0.0
 11
14.59284895658493
 21
14.5489
 31
0.0
  0
LINE
  5
219
330
17
100
AcDbEntity
  8
0
100
AcDbLine
 10
1.234
 20
0.5922380685806274
 30
0.0
 11
1.2776936936936938
 21
0.5922380685806274
 31
0.0
  0
LINE
  5
21A
330
17
100
AcDbEntity
  8
0
100
AcDbLine
 10
1.234
 20
0.5922380685806274
 30
0.0
 11
1.2776936936936938
 21
0.5922380685806274
 31
0.0
  0
LINE
  5
21B
330
17
100
AcDbEntity
  8
0
100
AcDbLine
 10
1.523342342342342
 20
0.5922380685806274
 30
0.0
 11
1.9629819819819807
 21
0.5922380685806274
 31
0.0
  0
LINE
  5
21C
330
17
100
AcDbEntity
  8
0
100
AcDbLine
 10
1.9629819819819807
 20
0.5922380685806274
 30
0.0
 11
2.6385000000000005
 21
0.5922380685806274
 31
0.0
  0
LINE
  5
21D
330
17
100
AcDbEntity
  8
0
100
AcDbLine
 10
3.3234999999999997
 20
0.5922380685806274
 30
0.0
 11
3.7634999999999987
 21
0.5922380685806274
 31
0.0
  0
LINE
  5
21E
330
17
100
AcDbEntity
  8
0
100
AcDbLine
 10
3.7634999999999987
 20
0.5922380685806274
 30
0.0
 11
4.4385
 21
0.5922380685806274
 31
0.0
  0
LINE
  5
21F
330
17
100
AcDbEntity
  8
0
100
AcDbLine
 10
5.1235
 20
0.5922380685806274
 30
0.0
 11
5.5634999999999994
 21
0.5922380685806274
 31
0.0
  0
LINE
  5
220
330
17
100
AcDbEntity
  8
0
100
AcDbLine
 10
5.5634999999999994
 20
0.5922380685806274
 30
0.0
 11
6.238500000000001
 21
0.5922380685806274
 31
0.0
  0
LINE
  5
221
330
17
100
AcDbEntity
  8
0
100
AcDbLine
 10
6.9235
 20
0.5922380685806274
 30
0.0
 11
7.598500000000001
 21
0.5922380685806274
 31
0.0
  0
LINE
  5
222
330
17
100
AcDbEntity
  8
0
100
AcDbLine
 10
7.598500000000001
 20
0.5922380685806274
 30
0.0
 11
8.0385
 21
0.5922380685806274
 31
0.0
  0
LINE
  5
223
330
17
100
AcDbEntity
  8
0
100
AcDbLine
 10
8.7235
 20
0.5922380685806274
 30
0.0
 11
9.163499999999999
 21
0.5922380685806274
 31
0.0
  0
LINE
  5
224
330
17
100
AcDbEntity
  8
0
100
AcDbLine
 10
9.163499999999999
 20
0.5922380685806274
 30
0.0
 11
9.838500000000002
 21
0.5922380685806274
 31
0.0
  0
LINE
  5
225
330
17
100
AcDbEntity
  8
0
100
AcDbLine
 10
10.5235
 20
0.5922380685806274
 30
0.0
 11
11.198500000000001
 21
0.5922380685806274
 31
0.0
  0
LINE
  5
226
330
17
100
AcDbEntity
  8
0
100
AcDbLine
 10
11.198500000000001
 20
0.5922380685806274
 30
0.0
 11
11.6385
 21
0.5922380685806274
 31
0.0
  0
LINE
  5
227
330
17
100
AcDbEntity
  8
0
100
AcDbLine
 10
12.3235
 20
0.5922380685806274
 30
0.0
 11
12.763499999999999
 21
0.5922380685806274
 31
0.0
  0
LINE
  5
228
330
17
100
AcDbEntity
  8
0
100
AcDbLine
 10
12.763499999999999
 20
0.5922380685806274
 30
0.0
 11
13.438500000000001
 21
0.5922380685806274
 31
0.0
  0
LINE
  5
229
330
17
100
AcDbEntity
  8
0
100
AcDbLine
 10
1.0007999999999992
 20
1.0922380685806274
 30
0.0
 11
1.4445000000000003
 21
1.0922380685806274
 31
0.0
  0
LINE
  5
22A
330
17
100
AcDbEntity
  8
0
100
AcDbLine
 10
1.0007999999999992
 20
1.0922380685806274
 30
0.0
 11
1.4445000000000003
 21
1.0922380685806274
 31
0.0
  0
LINE
  5
22B
330
17
100
AcDbEntity
  8
0
100
AcDbLine
 10
2.1294999999999997
 20
1.0922380685806274
 30
0.0
 11
2.569499999999999
 21
1.0922380685806274
 31
0.0
  0
LINE
  5
22C
330
17
100
AcDbEntity
  8
0
100
AcDbLine
 10
2.569499999999999
 20
1.0922380685806274
 30
0.0
 11
3.244500000000001
 21
1.0922380685806274
 31
0.0
  0
LINE
  5
22D
330
17
100
AcDbEntity
  8
0
100
AcDbLine
 10
3.9294999999999995
 20
1.0922380685806274
 30
0.0
 11
4.369499999999999
 21
1.0922380685806274
 31
0.0
  0
LINE
  5
22E
330
17
100
AcDbEntity
  8
0
100
AcDbLine
 10
4.369499999999999
 20
1.0922380685806274
 30
0.0
 11
5.044500000000001
 21
1.0922380685806274
 31
0.0
  0
LINE
  5
22F
330
17
100
AcDbEntity
  8
0
100
AcDbLine
 10
5.7295
 20
1.0922380685806274
 30
0.0
 11
6.404500000000001
 21
1.0922380685806274
 31
0.0
  0
LINE
  5
230
330
17
100
AcDbEntity
  8
0
100
AcDbLine
 10
6.404500000000001
 20
1.0922380685806274
 30
0.0
 11
6.8445
 21
1.0922380685806274
 31
0.0
  0
LINE
  5
231
330
17
100
AcDbEntity
  8
0
100
AcDbLine
 10
7.5295
 20
1.0922380685806274
 30
0.0
 11
8.204500000000001
 21
1.0922380685806274
 31
0.0
  0
LINE
  5
232
330
17
100
AcDbEntity
  8
0
100
AcDbLine
 10
8.204500000000001
 20
1.0922380685806274
 30
0.0
 11
8.6445
 21
1.0922380685806274
 31
0.0
  0
LINE
  5
233
330
17
100
AcDbEntity
  8
0
100
AcDbLine
 10
9.3295
 20
1.0922380685806274
 30
0.0
 11
9.769499999999999
 21
1.0922380685806274
 31
0.0
  0
LINE
  5
234
330
17
100
AcDbEntity
  8
0
100
AcDbLine
 10
9.769499999999999
 20
1.0922380685806274
 30
0.0
 11
10.444500000000001
 21
1.0922380685806274
 31
0.0
  0
LINE
  5
235
330
17
100
AcDbEntity
  8
0
100
AcDbLine
 10
11.1295
 20
1.0922380685806274
 30
0.0
 11
11.8045
 21
1.0922380685806274
 31
0.0
  0
LINE
  5
236
330
17
100
AcDbEntity
  8
0
100
AcDbLine
 10
11.8045
 20
1.0922380685806274
 30
0.0
 11
12.2445
 21
1.0922380685806274
 31
0.0
  0
LINE
  5
237
330
17
100
AcDbEntity
  8
0
100
AcDbLine
 10
12.929499999999999
 20
1.0922380685806274
 30
0.0
 11
13.369499999999999
 21
1.0922380685806274
 31
0.0
  0
LINE
  5
238
330
17
100
AcDbEntity
  8
0
100
AcDbLine
 10
13.369499999999999
 20
1.0922380685806274
 30
0.0
 11
14.044500000000001
 21
1.0922380685806274
 31
0.0
  0
LINE
  5
239
330
17
100
AcDbEntity
  8
0
100
AcDbLine
 10
1.0112499999999989
 20
1.5922380685806274
 30
0.0
 11
1.5715000000000003
 21
1.5922380685806274
 31
0.0
  0
LINE
  5
23A
330
17
100
AcDbEntity
  8
0
100
AcDbLine
 10
1.0112499999999989
 20
1.5922380685806274
 30
0.0
 11
1.5715000000000003
 21
1.5922380685806274
 31
0.0
  0
LINE
  5
23B
330
17
100
AcDbEntity
  8
0
100
AcDbLine
 10
2.2565
 20
1.5922380685806274
 30
0.0
 11
2.6964999999999986
 21
1.5922380685806274
 31
0.0
  0
LINE
  5
23C
330
17
100
AcDbEntity
  8
0
100
AcDbLine
 10
2.6964999999999986
 20
1.5922380685806274
 30
0.0
 11
3.3715000000000006
 21
1.5922380685806274
 31
0.0
  0
LINE
  5
23D
330
17
100
AcDbEntity
  8
0
100
AcDbLine
 10
4.0565
 20
1.5922380685806274
 30
0.0
 11
4.731500000000001
 21
1.5922380685806274
 31
0.0
  0
LINE
  5
23E
330
17
100
AcDbEntity
  8
0
100
AcDbLine
 10
4.731500000000001
 20
1.5922380685806274
 30
0.0
 11
5.1715
 21
1.5922380685806274
 31
0.0
  0
LINE
  5
23F
330
17
100
AcDbEntity
  8
0
100
AcDbLine
 10
5.8565
 20
1.5922380685806274
 30
0.0
 11
6.296499999999998
 21
1.5922380685806274
 31
0.0
  0
LINE
  5
240
330
17
100
AcDbEntity
  8
0
100
AcDbLine
 10
6.296499999999998
 20
1.5922380685806274
 30
0.0
 11
6.971500000000001
 21
1.5922380685806274
 31
0.0
  0
LINE
  5
241
330
17
100
AcDbEntity
  8
0
100
AcDbLine
 10
7.656499999999999
 20
1.5922380685806274
 30
0.0
 11
8.331500000000002
 21
1.5922380685806274
 31
0.0
  0
LINE
  5
242
330
17
100
AcDbEntity
  8
0
100
AcDbLine
 10
8.331500000000002
 20
1.5922380685806274
 30
0.0
 11
8.771500000000001
 21
1.5922380685806274
 31
0.0
  0
LINE
  5
243
330
17
100
AcDbEntity
  8
0
100
AcDbLine
 10
9.4565
 20
1.5922380685806274
 30
0.0
 11
10.1315
 21
1.5922380685806274
 31
0.0
  0
LINE
  5
244
330
17
100
AcDbEntity
  8
0
100
AcDbLine
 10
10.1315
 20
1.5922380685806274
 30
0.0
 11
10.5715
 21
1.5922380685806274
 31
0.0
  0
LINE
  5
245
330
17
100
AcDbEntity
  8
0
100
AcDbLine
 10
11.256499999999999
 20
1.5922380685806274
 30
0.0
 11
11.696499999999999
 21
1.5922380685806274
 31
0.0
  0
LINE
  5
246
330
17
100
AcDbEntity
  8
0
100
AcDbLine
 10
11.696499999999999
 20
1.5922380685806274
 30
0.0
 11
12.371500000000001
 21
1.5922380685806274
 31
0.0
  0
LINE
  5
247
330
17
100
AcDbEntity
  8
0
100
AcDbLine
 10
13.0565
 20
1.5922380685806274
 30
0.0
 11
13.4965
 21
1.5922380685806274
 31
0.0
  0
LINE
  5
248
330
17
100
AcDbEntity
  8
0
100
AcDbLine
 10
13.4965
 20
1.5922380685806274
 30
0.0
 11
14.171500000000002
 21
1.5922380685806274
 31
0.0
  0
LINE
  5
249
330
17
100
AcDbEntity
  8
0
100
AcDbLine
 10
1.018099999999999
 20
2.0922380685806274
 30
0.0
 11
1.6355000000000004
 21
2.0922380685806274
 31
0.0
  0
LINE
  5
24A
330
17
100
AcDbEntity
  8
0
100
AcDbLine
 10
1.018099999999999
 20
2.0922380685806274
 30
0.0
 11
1.6355000000000004
 21
2.0922380685806274
 31
0.0
  0
LINE
  5
24B
330
17
100
AcDbEntity
  8
0
100
AcDbLine
 10
2.3205
 20
2.0922380685806274
 30
0.0
 11
2.7604999999999986
 21
2.0922380685806274
 31
0.0
  0
LINE
  5
24C
330
17
100
AcDbEntity
  8
0
100
AcDbLine
 10
2.7604999999999986
 20
2.0922380685806274
 30
0.0
 11
3.4355000000000007
 21
2.0922380685806274
 31
0.0
  0
LINE
  5
24D
330
17
100
AcDbEntity
  8
0
100
AcDbLine
 10
4.1205
 20
2.0922380685806274
 30
0.0
 11
4.795500000000001
 21
2.0922380685806274
 31
0.0
  0
LINE
  5
24E
330
17
100
AcDbEntity
  8
0
100
AcDbLine
 10
4.795500000000001
 20
2.0922380685806274
 30
0.0
 11
5.2355
 21
2.0922380685806274
 31
0.0
  0
LINE
  5
24F
330
17
100
AcDbEntity
  8
0
100
AcDbLine
 10
5.9205
 20
2.0922380685806274
 30
0.0
 11
6.595500000000001
 21
2.0922380685806274
 31
0.0
  0
LINE
  5
250
330
17
100
AcDbEntity
  8
0
100
AcDbLine
 10
6.595500000000001
 20
2.0922380685806274
 30
0.0
 11
7.035500000000001
 21
2.0922380685806274
 31
0.0
  0
LINE
  5
251
330
17
100
AcDbEntity
  8
0
100
AcDbLine
 10
7.7204999999999995
 20
2.0922380685806274
 30
0.0
 11
8.395500000000002
 21
2.0922380685806274
 31
0.0
  0
LINE
  5
252
330
17
100
AcDbEntity
  8
0
100
AcDbLine
 10
8.395500000000002
 20
2.0922380685806274
 30
0.0
 11
8.835500000000001
 21
2.0922380685806274
 31
0.0
  0
LINE
  5
253
330
17
100
AcDbEntity
  8
0
100
AcDbLine
 10
9.5205
 20
2.0922380685806274
 30
0.0
 11
10.195500000000001
 21
2.0922380685806274
 31
0.0
  0
LINE
  5
254
330
17
100
AcDbEntity
  8
0
100
AcDbLine
 10
10.195500000000001
 20
2.0922380685806274
 30
0.0
 11
10.6355
 21
2.0922380685806274
 31
0.0
  0
LINE
  5
255
330
17
100
AcDbEntity
  8
0
100
AcDbLine
 10
11.3205
 20
2.0922380685806274
 30
0.0
 11
11.760499999999999
 21
2.0922380685806274
 31
0.0
  0
LINE
  5
256
330
17
100
AcDbEntity
  8
0
100
AcDbLine
 10
11.760499999999999
 20
2.0922380685806274
 30
0.0
 11
12.435500000000001
 21
2.0922380685806274
 31
0.0
  0
LINE
  5
257
330
17
100
AcDbEntity
  8
0
100
AcDbLine
 10
13.1205
 20
2.0922380685806274
 30
0.0
 11
13.5605
 21
2.0922380685806274
 31
0.0
  0
LINE
  5
258
330
17
100
AcDbEntity
  8
0
100
AcDbLine
 10
13.5605
 20
2.0922380685806274
 30
0.0
 11
14.235500000000002
 21
2.0922380685806274
 31
0.0
  0
LINE
  5
259
330
17
100
AcDbEntity
  8
0
100
AcDbLine
 10
1.0214499999999989
 20
2.5922380685806274
 30
0.0
 11
1.6465000000000005
 21
2.5922380685806274
 31
0.0
  0
LINE
  5
25A
330
17
100
AcDbEntity
  8
0
100
AcDbLine
 10
1.0214499999999989
 20
2.5922380685806274
 30
0.0
 11
1.6465000000000005
 21
2.5922380685806274
 31
0.0
  0
LINE
  5
25B
330
17
100
AcDbEntity
  8
0
100
AcDbLine
 10
2.3314999999999997
 20
2.5922380685806274
 30
0.0
 11
2.7714999999999987
 21
2.5922380685806274
 31
0.0
  0
LINE
  5
25C
330
17
100
AcDbEntity
  8
0
100
AcDbLine
 10
2.7714999999999987
 20
2.5922380685806274
 30
0.0
 11
3.446500000000001
 21
2.5922380685806274
 31
0.0
  0
LINE
  5
25D
330
17
100
AcDbEntity
  8
0
100
AcDbLine
 10
4.131499999999999
 20
2.5922380685806274
 30
0.0
 11
4.571499999999999
 21
2.5922380685806274
 31
0.0
  0
LINE
  5
25E
330
17
100
AcDbEntity
  8
0
100
AcDbLine
 10
4.571499999999999
 20
2.5922380685806274
 30
0.0
 11
5.246500000000001
 21
2.5922380685806274
 31
0.0
  0
LINE
  5
25F
330
17
100
AcDbEntity
  8
0
100
AcDbLine
 10
5.9315
 20
2.5922380685806274
 30
0.0
 11
6.606500000000001
 21
2.5922380685806274
 31
0.0
  0
LINE
  5
260
330
17
100
AcDbEntity
  8
0
100
AcDbLine
 10
6.606500000000001
 20
2.5922380685806274
 30
0.0
 11
7.0465
 21
2.5922380685806274
 31
0.0
  0
LINE
  5
261
330
17
100
AcDbEntity
  8
0
100
AcDbLine
 10
7.7315000000000005
 20
2.5922380685806274
 30
0.0
 11
8.171499999999998
 21
2.5922380685806274
 31
0.0
  0
LINE
  5
262
330
17
100
AcDbEntity
  8
0
100
AcDbLine
 10
8.171499999999998
 20
2.5922380685806274
 30
0.0
 11
8.8465
 21
2.5922380685806274
 31
0.0
  0
LINE
  5
263
330
17
100
AcDbEntity
  8
0
100
AcDbLine
 10
9.5315
 20
2.5922380685806274
 30
0.0
 11
9.971499999999999
 21
2.5922380685806274
 31
0.0
  0
LINE
  5
264
330
17
100
AcDbEntity
  8
0
100
AcDbLine
 10
9.971499999999999
 20
2.5922380685806274
 30
0.0
 11
10.646500000000001
 21
2.5922380685806274
 31
0.0
  0
LINE
  5
265
330
17
100
AcDbEntity
  8
0
100
AcDbLine
 10
11.3315
 20
2.5922380685806274
 30
0.0
 11
11.771499999999998
 21
2.5922380685806274
 31
0.0
  0
LINE
  5
266
330
17
100
AcDbEntity
  8
0
100
AcDbLine
 10
11.771499999999998
 20
2.5922380685806274
 30
0.0
 11
12.4465
 21
2.5922380685806274
 31
0.0
  0
LINE
  5
267
330
17
100
AcDbEntity
  8
0
100
AcDbLine
 10
13.131499999999999
 20
2.5922380685806274
 30
0.0
 11
13.571499999999999
 21
2.5922380685806274
 31
0.0
  0
LINE
  5
268
330
17
100
AcDbEntity
  8
0
100
AcDbLine
 10
13.571499999999999
 20
2.5922380685806274
 30
0.0
 11
14.246500000000001
 21
2.5922380685806274
 31
0.0
  0
LINE
  5
269
330
17
100
AcDbEntity
  8
0
100
AcDbLine
 10
1.017949999999999
 20
3.0922380685806274
 30
0.0
 11
1.6295000000000004
 21
3.0922380685806274
 31
0.0
  0
LINE
  5
26A
330
17
100
AcDbEntity
  8
0
100
AcDbLine
 10
1.017949999999999
 20
3.0922380685806274
 30
0.0
 11
1.6295000000000004
 21
3.0922380685806274
 31
0.0
  0
LINE
  5
26B
330
17
100
AcDbEntity
  8
0
100
AcDbLine
 10
2.3144999999999993
 20
3.0922380685806274
 30
0.0
 11
2.9895000000000014
 21
3.0922380685806274
 31
0.0
  0
LINE
  5
26C
330
17
100
AcDbEntity
  8
0
100
AcDbLine
 10
2.9895000000000014
 20
3.0922380685806274
 30
0.0
 11
3.4295000000000004
 21
3.0922380685806274
 31
0.0
  0
LINE
  5
26D
330
17
100
AcDbEntity
  8
0
100
AcDbLine
 10
4.1145
 20
3.0922380685806274
 30
0.0
 11
4.789500000000001
 21
3.0922380685806274
 31
0.0
  0
LINE
  5
26E
330
17
100
AcDbEntity
  8
0
100
AcDbLine
 10
4.789500000000001
 20
3.0922380685806274
 30
0.0
 11
5.2295
 21
3.0922380685806274
 31
0.0
  0
LINE
  5
26F
330
17
100
AcDbEntity
  8
0
100
AcDbLine
 10
5.9145
 20
3.0922380685806274
 30
0.0
 11
6.354499999999999
 21
3.0922380685806274
 31
0.0
  0
LINE
  5
270
330
17
100
AcDbEntity
  8
0
100
AcDbLine
 10
6.354499999999999
 20
3.0922380685806274
 30
0.0
 11
7.0295000000000005
 21
3.0922380685806274
 31
0.0
  0
LINE
  5
271
330
17
100
AcDbEntity
  8
0
100
AcDbLine
 10
7.714499999999999
 20
3.0922380685806274
 30
0.0
 11
8.389500000000002
 21
3.0922380685806274
 31
0.0
  0
LINE
  5
272
330
17
100
AcDbEntity
  8
0
100
AcDbLine
 10
8.389500000000002
 20
3.0922380685806274
 30
0.0
 11
8.829500000000001
 21
3.0922380685806274
 31
0.0
  0
LINE
  5
273
330
17
100
AcDbEntity
  8
0
100
AcDbLine
 10
9.5145
 20
3.0922380685806274
 30
0.0
 11
9.9545
 21
3.0922380685806274
 31
0.0
  0
LINE
  5
274
330
17
100
AcDbEntity
  8
0
100
AcDbLine
 10
9.9545
 20
3.0922380685806274
 30
0.0
 11
10.6295
 21
3.0922380685806274
 31
0.0
  0
LINE
  5
275
330
17
100
AcDbEntity
  8
0
100
AcDbLine
 10
11.314499999999999
 20
3.0922380685806274
 30
0.0
 11
11.754499999999998
 21
3.0922380685806274
 31
0.0
  0
LINE
  5
276
330
17
100
AcDbEntity
  8
0
100
AcDbLine
 10
11.754499999999998
 20
3.0922380685806274
 30
0.0
 11
12.4295
 21
3.0922380685806274
 31
0.0
  0
LINE
  5
277
330
17
100
AcDbEntity
  8
0
100
AcDbLine
 10
13.1145
 20
3.0922380685806274
 30
0.0
 11
13.554499999999999
 21
3.0922380685806274
 31
0.0
  0
LINE
  5
278
330
17
100
AcDbEntity
  8
0
100
AcDbLine
 10
13.554499999999999
 20
3.0922380685806274
 30
0.0
 11
14.229500000000002
 21
3.0922380685806274
 31
0.0
  0
LINE
  5
279
330
17
100
AcDbEntity
  8
0
100
AcDbLine
 10
1.013899999999999
 20
3.5922380685806274
 30
0.0
 11
1.6115000000000004
 21
3.5922380685806274
 31
0.0
  0
LINE
  5
27A
330
17
100
AcDbEntity
  8
0
100
AcDbLine
 10
1.013899999999999
 20
3.5922380685806274
 30
0.0
 11
1.6115000000000004
 21
3.5922380685806274
 31
0.0
  0
LINE
  5
27B
330
17
100
AcDbEntity
  8
0
100
AcDbLine
 10
2.2965
 20
3.5922380685806274
 30
0.0
 11
2.7364999999999986
 21
3.5922380685806274
 31
0.0
  0
LINE
  5
27C
330
17
100
AcDbEntity
  8
0
100
AcDbLine
 10
2.7364999999999986
 20
3.5922380685806274
 30
0.0
 11
3.4115000000000006
 21
3.5922380685806274
 31
0.0
  0
LINE
  5
27D
330
17
100
AcDbEntity
  8
0
100
AcDbLine
 10
4.0965
 20
3.5922380685806274
 30
0.0
 11
4.771500000000001
 21
3.5922380685806274
 31
0.0
  0
LINE
  5
27E
330
17
100
AcDbEntity
  8
0
100
AcDbLine
 10
4.771500000000001
 20
3.5922380685806274
 30
0.0
 11
5.211500000000001
 21
3.5922380685806274
 31
0.0
  0
LINE
  5
27F
330
17
100
AcDbEntity
  8
0
100
AcDbLine
 10
5.8965
 20
3.5922380685806274
 30
0.0
 11
6.571500000000001
 21
3.5922380685806274
 31
0.0
  0
LINE
  5
280
330
17
100
AcDbEntity
  8
0
100
AcDbLine
 10
6.571500000000001
 20
3.5922380685806274
 30
0.0
 11
7.0115
 21
3.5922380685806274
 31
0.0
  0
LINE
  5
281
330
17
100
AcDbEntity
  8
0
100
AcDbLine
 10
7.6964999999999995
 20
3.5922380685806274
 30
0.0
 11
8.371500000000001
 21
3.5922380685806274
 31
0.0
  0
LINE
  5
282
330
17
100
AcDbEntity
  8
0
100
AcDbLine
 10
8.371500000000001
 20
3.5922380685806274
 30
0.0
 11
8.8115
 21
3.5922380685806274
 31
0.0
  0
LINE
  5
283
330
17
100
AcDbEntity
  8
0
100
AcDbLine
 10
9.4965
 20
3.5922380685806274
 30
0.0
 11
9.936499999999999
 21
3.5922380685806274
 31
0.0
  0
LINE
  5
284
330
17
100
AcDbEntity
  8
0
100
AcDbLine
 10
9.936499999999999
 20
3.5922380685806274
 30
0.0
 11
10.611500000000001
 21
3.5922380685806274
 31
0.0
  0
LINE
  5
285
330
17
100
AcDbEntity
  8
0
100
AcDbLine
 10
11.2965
 20
3.5922380685806274
 30
0.0
 11
11.7365
 21
3.5922380685806274
 31
0.0
  0
LINE
  5
286
330
17
100
AcDbEntity
  8
0
100
AcDbLine
 10
11.7365
 20
3.5922380685806274
 30
0.0
 11
12.4115
 21
3.5922380685806274
 31
0.0
  0
LINE
  5
287
330
17
100
AcDbEntity
  8
0
100
AcDbLine
 10
13.096499999999999
 20
3.5922380685806274
 30
0.0
 11
13.536499999999998
 21
3.5922380685806274
 31
0.0
  0
LINE
  5
288
330
17
100
AcDbEntity
  8
0
100
AcDbLine
 10
13.536499999999998
 20
3.5922380685806274
 30
0.0
 11
14.211500000000001
 21
3.5922380685806274
 31
0.0
  0
LINE
  5
289
330
17
100
AcDbEntity
  8
0
100
AcDbLine
 10
1.009399999999999
 20
4.092238068580627
 30
0.0
 11
1.5939500000000004
 21
4.092238068580627
 31
0.0
  0
LINE
  5
28A
330
17
100
AcDbEntity
  8
0
100
AcDbLine
 10
1.009399999999999
 20
4.092238068580627
 30
0.0
 11
1.5939500000000004
 21
4.092238068580627
 31
0.0
  0
LINE
  5
28B
330
17
100
AcDbEntity
  8
0
100
AcDbLine
 10
2.2784999999999997
 20
4.092238068580627
 30
0.0
 11
2.719049999999999
 21
4.092238068580627
 31
0.0
  0
LINE
  5
28C
330
17
100
AcDbEntity
  8
0
100
AcDbLine
 10
2.719049999999999
 20
4.092238068580627
 30
0.0
 11
3.3945000000000007
 21
4.092238068580627
 31
0.0
  0
LINE
  5
28D
330
17
100
AcDbEntity
  8
0
100
AcDbLine
 10
4.0785
 20
4.092238068580627
 30
0.0
 11
4.519049999999998
 21
4.092238068580627
 31
0.0
  0
LINE
  5
28E
330
17
100
AcDbEntity
  8
0
100
AcDbLine
 10
4.519049999999998
 20
4.092238068580627
 30
0.0
 11
5.194500000000001
 21
4.092238068580627
 31
0.0
  0
LINE
  5
28F
330
17
100
AcDbEntity
  8
0
100
AcDbLine
 10
5.8785
 20
4.092238068580627
 30
0.0
 11
6.319049999999999
 21
4.092238068580627
 31
0.0
  0
LINE
  5
290
330
17
100
AcDbEntity
  8
0
100
AcDbLine
 10
6.319049999999999
 20
4.092238068580627
 30
0.0
 11
6.9945
 21
4.092238068580627
 31
0.0
  0
LINE
  5
291
330
17
100
AcDbEntity
  8
0
100
AcDbLine
 10
7.6785
 20
4.092238068580627
 30
0.0
 11
8.353950000000001
 21
4.092238068580627
 31
0.0
  0
LINE
  5
292
330
17
100
AcDbEntity
  8
0
100
AcDbLine
 10
8.353950000000001
 20
4.092238068580627
 30
0.0
 11
8.794500000000001
 21
4.092238068580627
 31
0.0
  0
LINE
  5
293
330
17
100
AcDbEntity
  8
0
100
AcDbLine
 10
9.4785
 20
4.092238068580627
 30
0.0
 11
9.919049999999999
 21
4.092238068580627
 31
0.0
  0
LINE
  5
294
330
17
100
AcDbEntity
  8
0
100
AcDbLine
 10
9.919049999999999
 20
4.092238068580627
 30
0.0
 11
10.5945
 21
4.092238068580627
 31
0.0
  0
LINE
  5
295
330
17
100
AcDbEntity
  8
0
100
AcDbLine
 10
11.2785
 20
4.092238068580627
 30
0.0
 11
11.71905
 21
4.092238068580627
 31
0.0
  0
LINE
  5
296
330
17
100
AcDbEntity
  8
0
100
AcDbLine
 10
11.71905
 20
4.092238068580627
 30
0.0
 11
12.3945
 21
4.092238068580627
 31
0.0
  0
LINE
  5
297
330
17
100
AcDbEntity
  8
0
100
AcDbLine
 10
13.0785
 20
4.092238068580627
 30
0.0
 11
13.51905
 21
4.092238068580627
 31
0.0
  0
LINE
  5
298
330
17
100
AcDbEntity
  8
0
100
AcDbLine
 10
13.51905
 20
4.092238068580627
 30
0.0
 11
14.194500000000001
 21
4.092238068580627
 31
0.0
  0
LINE
  5
299
330
17
100
AcDbEntity
  8
0
100
AcDbLine
 10
1.0058999999999991
 20
4.592238068580627
 30
0.0
 11
1.5765000000000005
 21
4.592238068580627
 31
0.0
  0
LINE
  5
29A
330
17
100
AcDbEntity
  8
0
100
AcDbLine
 10
1.0058999999999991
 20
4.592238068580627
 30
0.0
 11
1.5765000000000005
 21
4.592238068580627
 31
0.0
  0
LINE
  5
29B
330
17
100
AcDbEntity
  8
0
100
AcDbLine
 10
2.2615
 20
4.592238068580627
 30
0.0
 11
2.7014999999999985
 21
4.592238068580627
 31
0.0
  0
LINE
  5
29C
330
17
100
AcDbEntity
  8
0
100
AcDbLine
 10
2.7014999999999985
 20
4.592238068580627
 30
0.0
 11
3.3765000000000005
 21
4.592238068580627
 31
0.0
  0
LINE
  5
29D
330
17
100
AcDbEntity
  8
0
100
AcDbLine
 10
4.0615
 20
4.592238068580627
 30
0.0
 11
4.736500000000001
 21
4.592238068580627
 31
0.0
  0
LINE
  5
29E
330
17
100
AcDbEntity
  8
0
100
AcDbLine
 10
4.736500000000001
 20
4.592238068580627
 30
0.0
 11
5.176500000000001
 21
4.592238068580627
 31
0.0
  0
LINE
  5
29F
330
17
100
AcDbEntity
  8
0
100
AcDbLine
 10
5.8614999999999995
 20
4.592238068580627
 30
0.0
 11
6.301499999999999
 21
4.592238068580627
 31
0.0
  0
LINE
  5
2A0
330
17
100
AcDbEntity
  8
0
100
AcDbLine
 10
6.301499999999999
 20
4.592238068580627
 30
0.0
 11
6.976500000000001
 21
4.592238068580627
 31
0.0
  0
LINE
  5
2A1
330
17
100
AcDbEntity
  8
0
100
AcDbLine
 10
7.661499999999999
 20
4.592238068580627
 30
0.0
 11
8.336500000000001
 21
4.592238068580627
 31
0.0
  0
LINE
  5
2A2
330
17
100
AcDbEntity
  8
0
100
AcDbLine
 10
8.336500000000001
 20
4.592238068580627
 30
0.0
 11
8.7765
 21
4.592238068580627
 31
0.0
  0
LINE
  5
2A3
330
17
100
AcDbEntity
  8
0
100
AcDbLine
 10
9.4615
 20
4.592238068580627
 30
0.0
 11
9.901499999999999
 21
4.592238068580627
 31
0.0
  0
LINE
  5
2A4
330
17
100
AcDbEntity
  8
0
100
AcDbLine
 10
9.901499999999999
 20
4.592238068580627
 30
0.0
 11
10.576500000000001
 21
4.592238068580627
 31
0.0
  0
LINE
  5
2A5
330
17
100
AcDbEntity
  8
0
100
AcDbLine
 10
11.2615
 20
4.592238068580627
 30
0.0
 11
11.7015
 21
4.592238068580627
 31
0.0
  0
LINE
  5
2A6
330
17
100
AcDbEntity
  8
0
100
AcDbLine
 10
11.7015
 20
4.592238068580627
 30
0.0
 11
12.3765
 21
4.592238068580627
 31
0.0
  0
LINE
  5
2A7
330
17
100
AcDbEntity
  8
0
100
AcDbLine
 10
13.061499999999999
 20
4.592238068580627
 30
0.0
 11
13.501499999999998
 21
4.592238068580627
 31
0.0
  0
LINE
  5
2A8
330
17
100
AcDbEntity
  8
0
100
AcDbLine
 10
13.501499999999998
 20
4.592238068580627
 30
0.0
 11
14.1765
 21
4.592238068580627
 31
0.0
  0
LINE
  5
2A9
330
17
100
AcDbEntity
  8
0
100
AcDbLine
 10
1.001399999999999
 20
5.092238068580627
 30
0.0
 11
1.5585000000000004
 21
5.092238068580627
 31
0.0
  0
LINE
  5
2AA
330
17
100
AcDbEntity
  8
0
100
AcDbLine
 10
1.001399999999999
 20
5.092238068580627
 30
0.0
 11
1.5585000000000004
 21
5.092238068580627
 31
0.0
  0
LINE
  5
2AB
330
17
100
AcDbEntity
  8
0
100
AcDbLine
 10
2.2435
 20
5.092238068580627
 30
0.0
 11
2.6834999999999987
 21
5.092238068580627
 31
0.0
  0
LINE
  5
2AC
330
17
100
AcDbEntity
  8
0
100
AcDbLine
 10
2.6834999999999987
 20
5.092238068580627
 30
0.0
 11
3.3585000000000007
 21
5.092238068580627
 31
0.0
  0
LINE
  5
2AD
330
17
100
AcDbEntity
  8
0
100
AcDbLine
 10
4.0435
 20
5.092238068580627
 30
0.0
 11
4.7185000000000015
 21
5.092238068580627
 31
0.0
  0
LINE
  5
2AE
330
17
100
AcDbEntity
  8
0
100
AcDbLine
 10
4.7185000000000015
 20
5.092238068580627
 30
0.0
 11
5.1585
 21
5.092238068580627
 31
0.0
  0
LINE
  5
2AF
330
17
100
AcDbEntity
  8
0
100
AcDbLine
 10
5.8435
 20
5.092238068580627
 30
0.0
 11
6.518500000000001
 21
5.092238068580627
 31
0.0
  0
LINE
  5
2B0
330
17
100
AcDbEntity
  8
0
100
AcDbLine
 10
6.518500000000001
 20
5.092238068580627
 30
0.0
 11
6.958500000000001
 21
5.092238068580627
 31
0.0
  0
LINE
  5
2B1
330
17
100
AcDbEntity
  8
0
100
AcDbLine
 10
7.6434999999999995
 20
5.092238068580627
 30
0.0
 11
8.318500000000002
 21
5.092238068580627
 31
0.0
  0
LINE
  5
2B2
330
17
100
AcDbEntity
  8
0
100
AcDbLine
 10
8.318500000000002
 20
5.092238068580627
 30
0.0
 11
8.758500000000002
 21
5.092238068580627
 31
0.0
  0
LINE
  5
2B3
330
17
100
AcDbEntity
  8
0
100
AcDbLine
 10
9.4435
 20
5.092238068580627
 30
0.0
 11
10.118500000000001
 21
5.092238068580627
 31
0.0
  0
LINE
  5
2B4
330
17
100
AcDbEntity
  8
0
100
AcDbLine
 10
10.118500000000001
 20
5.092238068580627
 30
0.0
 11
10.5585
 21
5.092238068580627
 31
0.0
  0
LINE
  5
2B5
330
17
100
AcDbEntity
  8
0
100
AcDbLine
 10
11.2435
 20
5.092238068580627
 30
0.0
 11
11.683499999999999
 21
5.092238068580627
 31
0.0
  0
LINE
  5
2B6
330
17
100
AcDbEntity
  8
0
100
AcDbLine
 10
11.683499999999999
 20
5.092238068580627
 30
0.0
 11
12.358500000000001
 21
5.092238068580627
 31
0.0
  0
LINE
  5
2B7
330
17
100
AcDbEntity
  8
0
100
AcDbLine
 10
13.0435
 20
5.092238068580627
 30
0.0
 11
13.4835
 21
5.092238068580627
 31
0.0
  0
LINE
  5
2B8
330
17
100
AcDbEntity
  8
0
100
AcDbLine
 10
13.4835
 20
5.092238068580627
 30
0.0
 11
14.1585
 21
5.092238068580627
 31
0.0
  0
LINE
  5
2B9
330
17
100
AcDbEntity
  8
0
100
AcDbLine
 10
0.9978999999999991
 20
5.592238068580627
 30
0.0
 11
1.5415000000000005
 21
5.592238068580627
 31
0.0
  0
LINE
  5
2BA
330
17
100
AcDbEntity
  8
0
100
AcDbLine
 10
0.9978999999999991
 20
5.592238068580627
 30
0.0
 11
1.5415000000000005
 21
5.592238068580627
 31
0.0
  0
LINE
  5
2BB
330
17
100
AcDbEntity
  8
0
100
AcDbLine
 10
2.2258343949044583
 20
5.592238068580627
 30
0.0
 11
2.6441910828025463
 21
5.592238068580627
 31
0.0
  0
LINE
  5
2BC
330
17
100
AcDbEntity
  8
0
100
AcDbLine
 10
2.6441910828025463
 20
5.592238068580627
 30
0.0
 11
3.341500000000001
 21
5.592238068580627
 31
0.0
  0
LINE
  5
2BD
330
17
100
AcDbEntity
  8
0
100
AcDbLine
 10
4.02595
 20
5.592238068580627
 30
0.0
 11
4.466499999999999
 21
5.592238068580627
 31
0.0
  0
LINE
  5
2BE
330
17
100
AcDbEntity
  8
0
100
AcDbLine
 10
4.466499999999999
 20
5.592238068580627
 30
0.0
 11
5.141500000000001
 21
5.592238068580627
 31
0.0
  0
LINE
  5
2BF
330
17
100
AcDbEntity
  8
0
100
AcDbLine
 10
5.82595
 20
5.592238068580627
 30
0.0
 11
6.266499999999999
 21
5.592238068580627
 31
0.0
  0
LINE
  5
2C0
330
17
100
AcDbEntity
  8
0
100
AcDbLine
 10
6.266499999999999
 20
5.592238068580627
 30
0.0
 11
6.9415000000000004
 21
5.592238068580627
 31
0.0
  0
LINE
  5
2C1
330
17
100
AcDbEntity
  8
0
100
AcDbLine
 10
7.62595
 20
5.592238068580627
 30
0.0
 11
8.066499999999998
 21
5.592238068580627
 31
0.0
  0
LINE
  5
2C2
330
17
100
AcDbEntity
  8
0
100
AcDbLine
 10
8.066499999999998
 20
5.592238068580627
 30
0.0
 11
8.7415
 21
5.592238068580627
 31
0.0
  0
LINE
  5
2C3
330
17
100
AcDbEntity
  8
0
100
AcDbLine
 10
9.42595
 20
5.592238068580627
 30
0.0
 11
9.866499999999998
 21
5.592238068580627
 31
0.0
  0
LINE
  5
2C4
330
17
100
AcDbEntity
  8
0
100
AcDbLine
 10
9.866499999999998
 20
5.592238068580627
 30
0.0
 11
10.541500000000001
 21
5.592238068580627
 31
0.0
  0
LINE
  5
2C5
330
17
100
AcDbEntity
  8
0
100
AcDbLine
 10
11.225950000000001
 20
5.592238068580627
 30
0.0
 11
11.6665
 21
5.592238068580627
 31
0.0
  0
LINE
  5
2C6
330
17
100
AcDbEntity
  8
0
100
AcDbLine
 10
11.6665
 20
5.592238068580627
 30
0.0
 11
12.341500000000002
 21
5.592238068580627
 31
0.0
  0
LINE
  5
2C7
330
17
100
AcDbEntity
  8
0
100
AcDbLine
 10
13.02595
 20
5.592238068580627
 30
0.0
 11
13.701500000000001
 21
5.592238068580627
 31
0.0
  0
LINE
  5
2C8
330
17
100
AcDbEntity
  8
0
100
AcDbLine
 10
13.701500000000001
 20
5.592238068580627
 30
0.0
 11
14.1415
 21
5.592238068580627
 31
0.0
  0
LINE
  5
2C9
330
17
100
AcDbEntity
  8
0
100
AcDbLine
 10
0.9993499999999991
 20
6.092238068580627
 30
0.0
 11
1.5335000000000005
 21
6.092238068580627
 31
0.0
  0
LINE
  5
2CA
330
17
100
AcDbEntity
  8
0
100
AcDbLine
 10
0.9993499999999991
 20
6.092238068580627
 30
0.0
 11
1.5335000000000005
 21
6.092238068580627
 31
0.0
  0
LINE
  5
2CB
330
17
100
AcDbEntity
  8
0
100
AcDbLine
 10
2.2184999999999997
 20
6.092238068580627
 30
0.0
 11
2.658499999999999
 21
6.092238068580627
 31
0.0
  0
LINE
  5
2CC
330
17
100
AcDbEntity
  8
0
100
AcDbLine
 10
2.658499999999999
 20
6.092238068580627
 30
0.0
 11
3.333500000000001
 21
6.092238068580627
 31
0.0
  0
LINE
  5
2CD
330
17
100
AcDbEntity
  8
0
100
AcDbLine
 10
4.0184999999999995
 20
6.092238068580627
 30
0.0
 11
4.458499999999999
 21
6.092238068580627
 31
0.0
  0
LINE
  5
2CE
330
17
100
AcDbEntity
  8
0
100
AcDbLine
 10
4.458499999999999
 20
6.092238068580627
 30
0.0
 11
5.133500000000001
 21
6.092238068580627
 31
0.0
  0
LINE
  5
2CF
330
17
100
AcDbEntity
  8
0
100
AcDbLine
 10
5.8185
 20
6.092238068580627
 30
0.0
 11
6.258499999999999
 21
6.092238068580627
 31
0.0
  0
LINE
  5
2D0
330
17
100
AcDbEntity
  8
0
100
AcDbLine
 10
6.258499999999999
 20
6.092238068580627
 30
0.0
 11
6.9335
 21
6.092238068580627
 31
0.0
  0
LINE
  5
2D1
330
17
100
AcDbEntity
  8
0
100
AcDbLine
 10
7.618499999999999
 20
6.092238068580627
 30
0.0
 11
8.293500000000002
 21
6.092238068580627
 31
0.0
  0
LINE
  5
2D2
330
17
100
AcDbEntity
  8
0
100
AcDbLine
 10
8.293500000000002
 20
6.092238068580627
 30
0.0
 11
8.733500000000001
 21
6.092238068580627
 31
0.0
  0
LINE
  5
2D3
330
17
100
AcDbEntity
  8
0
100
AcDbLine
 10
9.4185
 20
6.092238068580627
 30
0.0
 11
9.8585
 21
6.092238068580627
 31
0.0
  0
LINE
  5
2D4
330
17
100
AcDbEntity
  8
0
100
AcDbLine
 10
9.8585
 20
6.092238068580627
 30
0.0
 11
10.5335
 21
6.092238068580627
 31
0.0
  0
LINE
  5
2D5
330
17
100
AcDbEntity
  8
0
100
AcDbLine
 10
11.218499999999999
 20
6.092238068580627
 30
0.0
 11
11.658499999999998
 21
6.092238068580627
 31
0.0
  0
LINE
  5
2D6
330
17
100
AcDbEntity
  8
0
100
AcDbLine
 10
11.658499999999998
 20
6.092238068580627
 30
0.0
 11
12.3335
 21
6.092238068580627
 31
0.0
  0
LINE
  5
2D7
330
17
100
AcDbEntity
  8
0
100
AcDbLine
 10
13.0185
 20
6.092238068580627
 30
0.0
 11
13.458499999999999
 21
6.092238068580627
 31
0.0
  0
LINE
  5
2D8
330
17
100
AcDbEntity
  8
0
100
AcDbLine
 10
13.458499999999999
 20
6.092238068580627
 30
0.0
 11
14.133500000000002
 21
6.092238068580627
 31
0.0
  0
LINE
  5
2D9
330
17
100
AcDbEntity
  8
0
100
AcDbLine
 10
1.0047499999999991
 20
6.592238068580627
 30
0.0
 11
1.5335000000000005
 21
6.592238068580627
 31
0.0
  0
LINE
  5
2DA
330
17
100
AcDbEntity
  8
0
100
AcDbLine
 10
1.0047499999999991
 20
6.592238068580627
 30
0.0
 11
1.5335000000000005
 21
6.592238068580627
 31
0.0
  0
LINE
  5
2DB
330
17
100
AcDbEntity
  8
0
100
AcDbLine
 10
2.2184999999999997
 20
6.592238068580627
 30
0.0
 11
2.658499999999999
 21
6.592238068580627
 31
0.0
  0
LINE
  5
2DC
330
17
100
AcDbEntity
  8
0
100
AcDbLine
 10
2.658499999999999
 20
6.592238068580627
 30
0.0
 11
3.333500000000001
 21
6.592238068580627
 31
0.0
  0
LINE
  5
2DD
330
17
100
AcDbEntity
  8
0
100
AcDbLine
 10
4.0184999999999995
 20
6.592238068580627
 30
0.0
 11
4.458499999999999
 21
6.592238068580627
 31
0.0
  0
LINE
  5
2DE
330
17
100
AcDbEntity
  8
0
100
AcDbLine
 10
4.458499999999999
 20
6.592238068580627
 30
0.0
 11
5.133500000000001
 21
6.592238068580627
 31
0.0
  0
LINE
  5
2DF
330
17
100
AcDbEntity
  8
0
100
AcDbLine
 10
5.8185
 20
6.592238068580627
 30
0.0
 11
6.258499999999999
 21
6.592238068580627
 31
0.0
  0
LINE
  5
2E0
330
17
100
AcDbEntity
  8
0
100
AcDbLine
 10
6.258499999999999
 20
6.592238068580627
 30
0.0
 11
6.9335
 21
6.592238068580627
 31
0.0
  0
LINE
  5
2E1
330
17
100
AcDbEntity
  8
0
100
AcDbLine
 10
7.618499999999999
 20
6.592238068580627
 30
0.0
 11
8.293500000000002
 21
6.592238068580627
 31
0.0
  0
LINE
  5
2E2
330
17
100
AcDbEntity
  8
0
100
AcDbLine
 10
8.293500000000002
 20
6.592238068580627
 30
0.0
 11
8.733500000000001
 21
6.592238068580627
 31
0.0
  0
LINE
  5
2E3
330
17
100
AcDbEntity
  8
0
100
AcDbLine
 10
9.4185
 20
6.592238068580627
 30
0.0
 11
9.8585
 21
6.592238068580627
 31
0.0
  0
LINE
  5
2E4
330
17
100
AcDbEntity
  8
0
100
AcDbLine
 10
9.8585
 20
6.592238068580627
 30
0.0
 11
10.5335
 21
6.592238068580627
 31
0.0
  0
LINE
  5
2E5
330
17
100
AcDbEntity
  8
0
100
AcDbLine
 10
11.218499999999999
 20
6.592238068580627
 30
0.0
 11
11.658499999999998
 21
6.592238068580627
 31
0.0
  0
LINE
  5
2E6
330
17
100
AcDbEntity
  8
0
100
AcDbLine
 10
11.658499999999998
 20
6.592238068580627
 30
0.0
 11
12.3335
 21
6.592238068580627
 31
0.0
  0
LINE
  5
2E7
330
17
100
AcDbEntity
  8
0
100
AcDbLine
 10
13.0185
 20
6.592238068580627
 30
0.0
 11
13.458499999999999
 21
6.592238068580627
 31
0.0
  0
LINE
  5
2E8
330
17
100
AcDbEntity
  8
0
100
AcDbLine
 10
13.458499999999999
 20
6.592238068580627
 30
0.0
 11
14.133500000000002
 21
6.592238068580627
 31
0.0
  0
LINE
  5
2E9
330
17
100
AcDbEntity
  8
0
100
AcDbLine
 10
1.0105999999999993
 20
7.092238068580627
 30
0.0
 11
1.5335000000000005
 21
7.092238068580627
 31
0.0
  0
LINE
  5
2EA
330
17
100
AcDbEntity
  8
0
100
AcDbLine
 10
1.0105999999999993
 20
7.092238068580627
 30
0.0
 11
1.5335000000000005
 21
7.092238068580627
 31
0.0
  0
LINE
  5
2EB
330
17
100
AcDbEntity
  8
0
100
AcDbLine
 10
2.2184999999999997
 20
7.092238068580627
 30
0.0
 11
2.658499999999999
 21
7.092238068580627
 31
0.0
  0
LINE
  5
2EC
330
17
100
AcDbEntity
  8
0
100
AcDbLine
 10
2.658499999999999
 20
7.092238068580627
 30
0.0
 11
3.333500000000001
 21
7.092238068580627
 31
0.0
  0
LINE
  5
2ED
330
17
100
AcDbEntity
  8
0
100
AcDbLine
 10
4.0184999999999995
 20
7.092238068580627
 30
0.0
 11
4.458499999999999
 21
7.092238068580627
 31
0.0
  0
LINE
  5
2EE
330
17
100
AcDbEntity
  8
0
100
AcDbLine
 10
4.458499999999999
 20
7.092238068580627
 30
0.0
 11
5.133500000000001
 21
7.092238068580627
 31
0.0
  0
LINE
  5
2EF
330
17
100
AcDbEntity
  8
0
100
AcDbLine
 10
5.8185
 20
7.092238068580627
 30
0.0
 11
6.258499999999999
 21
7.092238068580627
 31
0.0
  0
LINE
  5
2F0
330
17
100
AcDbEntity
  8
0
100
AcDbLine
 10
6.258499999999999
 20
7.092238068580627
 30
0.0
 11
6.9335
 21
7.092238068580627
 31
0.0
  0
LINE
  5
2F1
330
17
100
AcDbEntity
  8
0
100
AcDbLine
 10
7.618499999999999
 20
7.092238068580627
 30
0.0
 11
8.293500000000002
 21
7.092238068580627
 31
0.0
  0
LINE
  5
2F2
330
17
100
AcDbEntity
  8
0
100
AcDbLine
 10
8.293500000000002
 20
7.092238068580627
 30
0.0
 11
8.733500000000001
 21
7.092238068580627
 31
0.0
  0
LINE
  5
2F3
330
17
100
AcDbEntity
  8
0
100
AcDbLine
 10
9.4185
 20
7.092238068580627
 30
0.0
 11
9.8585
 21
7.092238068580627
 31
0.0
  0
LINE
  5
2F4
330
17
100
AcDbEntity
  8
0
100
AcDbLine
 10
9.8585
 20
7.092238068580627
 30
0.0
 11
10.5335
 21
7.092238068580627
 31
0.0
  0
LINE
  5
2F5
330
17
100
AcDbEntity
  8
0
100
AcDbLine
 10
11.218499999999999
 20
7.092238068580627
 30
0.0
 11
11.658499999999998
 21
7.092238068580627
 31
0.0
  0
LINE
  5
2F6
330
17
100
AcDbEntity
  8
0
100
AcDbLine
 10
11.658499999999998
 20
7.092238068580627
 30
0.0
 11
12.3335
 21
7.092238068580627
 31
0.0
  0
LINE
  5
2F7
330
17
100
AcDbEntity
  8
0
100
AcDbLine
 10
13.0185
 20
7.092238068580627
 30
0.0
 11
13.458499999999999
 21
7.092238068580627
 31
0.0
  0
LINE
  5
2F8
330
17
100
AcDbEntity
  8
0
100
AcDbLine
 10
13.458499999999999
 20
7.092238068580627
 30
0.0
 11
14.133500000000002
 21
7.092238068580627
 31
0.0
  0
LINE
  5
2F9
330
17
100
AcDbEntity
  8
0
100
AcDbLine
 10
1.0159999999999991
 20
7.592238068580627
 30
0.0
 11
1.5335000000000005
 21
7.592238068580627
 31
0.0
  0
LINE
  5
2FA
330
17
100
AcDbEntity
  8
0
100
AcDbLine
 10
1.0159999999999991
 20
7.592238068580627
 30
0.0
 11
1.5335000000000005
 21
7.592238068580627
 31
0.0
  0
LINE
  5
2FB
330
17
100
AcDbEntity
  8
0
100
AcDbLine
 10
2.2184999999999997
 20
7.592238068580627
 30
0.0
 11
2.658499999999999
 21
7.592238068580627
 31
0.0
  0
LINE
  5
2FC
330
17
100
AcDbEntity
  8
0
100
AcDbLine
 10
2.658499999999999
 20
7.592238068580627
 30
0.0
 11
3.333500000000001
 21
7.592238068580627
 31
0.0
  0
LINE
  5
2FD
330
17
100
AcDbEntity
  8
0
100
AcDbLine
 10
4.0184999999999995
 20
7.592238068580627
 30
0.0
 11
4.458499999999999
 21
7.592238068580627
 31
0.0
  0
LINE
  5
2FE
330
17
100
AcDbEntity
  8
0
100
AcDbLine
 10
4.458499999999999
 20
7.592238068580627
 30
0.0
 11
5.133500000000001
 21
7.592238068580627
 31
0.0
  0
LINE
  5
2FF
330
17
100
AcDbEntity
  8
0
100
AcDbLine
 10
5.8185
 20
7.592238068580627
 30
0.0
 11
6.258499999999999
 21
7.592238068580627
 31
0.0
  0
LINE
  5
300
330
17
100
AcDbEntity
  8
0
100
AcDbLine
 10
6.258499999999999
 20
7.592238068580627
 30
0.0
 11
6.9335
 21
7.592238068580627
 31
0.0
  0
LINE
  5
301
330
17
100
AcDbEntity
  8
0
100
AcDbLine
 10
7.618499999999999
 20
7.592238068580627
 30
0.0
 11
8.058499999999999
 21
7.592238068580627
 31
0.0
  0
LINE
  5
302
330
17
100
AcDbEntity
  8
0
100
AcDbLine
 10
8.058499999999999
 20
7.592238068580627
 30
0.0
 11
8.733500000000001
 21
7.592238068580627
 31
0.0
  0
LINE
  5
303
330
17
100
AcDbEntity
  8
0
100
AcDbLine
 10
9.4185
 20
7.592238068580627
 30
0.0
 11
9.8585
 21
7.592238068580627
 31
0.0
  0
LINE
  5
304
330
17
100
AcDbEntity
  8
0
100
AcDbLine
 10
9.8585
 20
7.592238068580627
 30
0.0
 11
10.5335
 21
7.592238068580627
 31
0.0
  0
LINE
  5
305
330
17
100
AcDbEntity
  8
0
100
AcDbLine
 10
11.218499999999999
 20
7.592238068580627
 30
0.0
 11
11.658499999999998
 21
7.592238068580627
 31
0.0
  0
LINE
  5
306
330
17
100
AcDbEntity
  8
0
100
AcDbLine
 10
11.658499999999998
 20
7.592238068580627
 30
0.0
 11
12.3335
 21
7.592238068580627
 31
0.0
  0
LINE
  5
307
330
17
100
AcDbEntity
  8
0
100
AcDbLine
 10
13.0185
 20
7.592238068580627
 30
0.0
 11
13.458499999999999
 21
7.592238068580627
 31
0.0
  0
LINE
  5
308
330
17
100
AcDbEntity
  8
0
100
AcDbLine
 10
13.458499999999999
 20
7.592238068580627
 30
0.0
 11
14.133500000000002
 21
7.592238068580627
 31
0.0
  0
LINE
  5
309
330
17
100
AcDbEntity
  8
0
100
AcDbLine
 10
1.0155499999999993
 20
8.092238068580627
 30
0.0
 11
1.5335000000000005
 21
8.092238068580627
 31
0.0
  0
LINE
  5
30A
330
17
100
AcDbEntity
  8
0
100
AcDbLine
 10
1.0155499999999993
 20
8.092238068580627
 30
0.0
 11
1.5335000000000005
 21
8.092238068580627
 31
0.0
  0
LINE
  5
30B
330
17
100
AcDbEntity
  8
0
100
AcDbLine
 10
2.2184999999999997
 20
8.092238068580627
 30
0.0
 11
2.658499999999999
 21
8.092238068580627
 31
0.0
  0
LINE
  5
30C
330
17
100
AcDbEntity
  8
0
100
AcDbLine
 10
2.658499999999999
 20
8.092238068580627
 30
0.0
 11
3.333500000000001
 21
8.092238068580627
 31
0.0
  0
LINE
  5
30D
330
17
100
AcDbEntity
  8
0
100
AcDbLine
 10
4.0184999999999995
 20
8.092238068580627
 30
0.0
 11
4.458499999999999
 21
8.092238068580627
 31
0.0
  0
LINE
  5
30E
330
17
100
AcDbEntity
  8
0
100
AcDbLine
 10
4.458499999999999
 20
8.092238068580627
 30
0.0
 11
5.133500000000001
 21
8.092238068580627
 31
0.0
  0
LINE
  5
30F
330
17
100
AcDbEntity
  8
0
100
AcDbLine
 10
5.8185
 20
8.092238068580627
 30
0.0
 11
6.258499999999999
 21
8.092238068580627
 31
0.0
  0
LINE
  5
310
330
17
100
AcDbEntity
  8
0
100
AcDbLine
 10
6.258499999999999
 20
8.092238068580627
 30
0.0
 11
6.9335
 21
8.092238068580627
 31
0.0
  0
LINE
  5
311
330
17
100
AcDbEntity
  8
0
100
AcDbLine
 10
7.618499999999999
 20
8.092238068580627
 30
0.0
 11
8.293500000000002
 21
8.092238068580627
 31
0.0
  0
LINE
  5
312
330
17
100
AcDbEntity
  8
0
100
AcDbLine
 10
8.293500000000002
 20
8.092238068580627
 30
0.0
 11
8.733500000000001
 21
8.092238068580627
 31
0.0
  0
LINE
  5
313
330
17
100
AcDbEntity
  8
0
100
AcDbLine
 10
9.4185
 20
8.092238068580627
 30
0.0
 11
9.8585
 21
8.092238068580627
 31
0.0
  0
LINE
  5
314
330
17
100
AcDbEntity
  8
0
100
AcDbLine
 10
9.8585
 20
8.092238068580627
 30
0.0
 11
10.5335
 21
8.092238068580627
 31
0.0
  0
LINE
  5
315
330
17
100
AcDbEntity
  8
0
100
AcDbLine
 10
11.218499999999999
 20
8.092238068580627
 30
0.0
 11
11.658499999999998
 21
8.092238068580627
 31
0.0
  0
LINE
  5
316
330
17
100
AcDbEntity
  8
0
100
AcDbLine
 10
11.658499999999998
 20
8.092238068580627
 30
0.0
 11
12.3335
 21
8.092238068580627
 31
0.0
  0
LINE
  5
317
330
17
100
AcDbEntity
  8
0
100
AcDbLine
 10
13.0185
 20
8.092238068580627
 30
0.0
 11
13.458499999999999
 21
8.092238068580627
 31
0.0
  0
LINE
  5
318
330
17
100
AcDbEntity
  8
0
100
AcDbLine
 10
13.458499999999999
 20
8.092238068580627
 30
0.0
 11
14.133500000000002
 21
8.092238068580627
 31
0.0
  0
LINE
  5
319
330
17
100
AcDbEntity
  8
0
100
AcDbLine
 10
1.0087999999999993
 20
8.592238068580627
 30
0.0
 11
1.5335000000000005
 21
8.592238068580627
 31
0.0
  0
LINE
  5
31A
330
17
100
AcDbEntity
  8
0
100
AcDbLine
 10
1.0087999999999993
 20
8.592238068580627
 30
0.0
 11
1.5335000000000005
 21
8.592238068580627
 31
0.0
  0
LINE
  5
31B
330
17
100
AcDbEntity
  8
0
100
AcDbLine
 10
2.2184999999999997
 20
8.592238068580627
 30
0.0
 11
2.658499999999999
 21
8.592238068580627
 31
0.0
  0
LINE
  5
31C
330
17
100
AcDbEntity
  8
0
100
AcDbLine
 10
2.658499999999999
 20
8.592238068580627
 30
0.0
 11
3.333500000000001
 21
8.592238068580627
 31
0.0
  0
LINE
  5
31D
330
17
100
AcDbEntity
  8
0
100
AcDbLine
 10
4.0184999999999995
 20
8.592238068580627
 30
0.0
 11
4.458499999999999
 21
8.592238068580627
 31
0.0
  0
LINE
  5
31E
330
17
100
AcDbEntity
  8
0
100
AcDbLine
 10
4.458499999999999
 20
8.592238068580627
 30
0.0
 11
5.133500000000001
 21
8.592238068580627
 31
0.0
  0
LINE
  5
31F
330
17
100
AcDbEntity
  8
0
100
AcDbLine
 10
5.8185
 20
8.592238068580627
 30
0.0
 11
6.258499999999999
 21
8.592238068580627
 31
0.0
  0
LINE
  5
320
330
17
100
AcDbEntity
  8
0
100
AcDbLine
 10
6.258499999999999
 20
8.592238068580627
 30
0.0
 11
6.9335
 21
8.592238068580627
 31
0.0
  0
LINE
  5
321
330
17
100
AcDbEntity
  8
0
100
AcDbLine
 10
7.618499999999999
 20
8.592238068580627
 30
0.0
 11
8.293500000000002
 21
8.592238068580627
 31
0.0
  0
LINE
  5
322
330
17
100
AcDbEntity
  8
0
100
AcDbLine
 10
8.293500000000002
 20
8.592238068580627
 30
0.0
 11
8.733500000000001
 21
8.592238068580627
 31
0.0
  0
LINE
  5
323
330
17
100
AcDbEntity
  8
0
100
AcDbLine
 10
9.4185
 20
8.592238068580627
 30
0.0
 11
9.8585
 21
8.592238068580627
 31
0.0
  0
LINE
  5
324
330
17
100
AcDbEntity
  8
0
100
AcDbLine
 10
9.8585
 20
8.592238068580627
 30
0.0
 11
10.5335
 21
8.592238068580627
 31
0.0
  0
LINE
  5
325
330
17
100
AcDbEntity
  8
0
100
AcDbLine
 10
11.218499999999999
 20
8.592238068580627
 30
0.0
 11
11.658499999999998
 21
8.592238068580627
 31
0.0
  0
LINE
  5
326
330
17
100
AcDbEntity
  8
0
100
AcDbLine
 10
11.658499999999998
 20
8.592238068580627
 30
0.0
 11
12.3335
 21
8.592238068580627
 31
0.0
  0
LINE
  5
327
330
17
100
AcDbEntity
  8
0
100
AcDbLine
 10
13.0185
 20
8.592238068580627
 30
0.0
 11
13.458499999999999
 21
8.592238068580627
 31
0.0
  0
LINE
  5
328
330
17
100
AcDbEntity
  8
0
100
AcDbLine
 10
13.458499999999999
 20
8.592238068580627
 30
0.0
 11
14.133500000000002
 21
8.592238068580627
 31
0.0
  0
LINE
  5
329
330
17
100
AcDbEntity
  8
0
100
AcDbLine
 10
1.0020499999999992
 20
9.092238068580627
 30
0.0
 11
1.5335000000000005
 21
9.092238068580627
 31
0.0
  0
LINE
  5
32A
330
17
100
AcDbEntity
  8
0
100
AcDbLine
 10
1.0020499999999992
 20
9.092238068580627
 30
0.0
 11
1.5335000000000005
 21
9.092238068580627
 31
0.0
  0
LINE
  5
32B
330
17
100
AcDbEntity
  8
0
100
AcDbLine
 10
2.2184999999999997
 20
9.092238068580627
 30
0.0
 11
2.658499999999999
 21
9.092238068580627
 31
0.0
  0
LINE
  5
32C
330
17
100
AcDbEntity
  8
0
100
AcDbLine
 10
2.658499999999999
 20
9.092238068580627
 30
0.0
 11
3.333500000000001
 21
9.092238068580627
 31
0.0
  0
LINE
  5
32D
330
17
100
AcDbEntity
  8
0
100
AcDbLine
 10
4.0184999999999995
 20
9.092238068580627
 30
0.0
 11
4.458499999999999
 21
9.092238068580627
 31
0.0
  0
LINE
  5
32E
330
17
100
AcDbEntity
  8
0
100
AcDbLine
 10
4.458499999999999
 20
9.092238068580627
 30
0.0
 11
5.133500000000001
 21
9.092238068580627
 31
0.0
  0
LINE
  5
32F
330
17
100
AcDbEntity
  8
0
100
AcDbLine
 10
5.8185
 20
9.092238068580627
 30
0.0
 11
6.258499999999999
 21
9.092238068580627
 31
0.0
  0
LINE
  5
330
330
17
100
AcDbEntity
  8
0
100
AcDbLine
 10
6.258499999999999
 20
9.092238068580627
 30
0.0
 11
6.9335
 21
9.092238068580627
 31
0.0
  0
LINE
  5
331
330
17
100
AcDbEntity
  8
0
100
AcDbLine
 10
7.618499999999999
 20
9.092238068580627
 30
0.0
 11
8.293500000000002
 21
9.092238068580627
 31
0.0
  0
LINE
  5
332
330
17
100
AcDbEntity
  8
0
100
AcDbLine
 10
8.293500000000002
 20
9.092238068580627
 30
0.0
 11
8.733500000000001
 21
9.092238068580627
 31
0.0
  0
LINE
  5
333
330
17
100
AcDbEntity
  8
0
100
AcDbLine
 10
9.4185
 20
9.092238068580627
 30
0.0
 11
9.8585
 21
9.092238068580627
 31
0.0
  0
LINE
  5
334
330
17
100
AcDbEntity
  8
0
100
AcDbLine
 10
9.8585
 20
9.092238068580627
 30
0.0
 11
10.5335
 21
9.092238068580627
 31
0.0
  0
LINE
  5
335
330
17
100
AcDbEntity
  8
0
100
AcDbLine
 10
11.218499999999999
 20
9.092238068580627
 30
0.0
 11
11.658499999999998
 21
9.092238068580627
 31
0.0
  0
LINE
  5
336
330
17
100
AcDbEntity
  8
0
100
AcDbLine
 10
11.658499999999998
 20
9.092238068580627
 30
0.0
 11
12.3335
 21
9.092238068580627
 31
0.0
  0
LINE
  5
337
330
17
100
AcDbEntity
  8
0
100
AcDbLine
 10
13.0185
 20
9.092238068580627
 30
0.0
 11
13.458499999999999
 21
9.092238068580627
 31
0.0
  0
LINE
  5
338
330
17
100
AcDbEntity
  8
0
100
AcDbLine
 10
13.458499999999999
 20
9.092238068580627
 30
0.0
 11
14.133500000000002
 21
9.092238068580627
 31
0.0
  0
LINE
  5
339
330
17
100
AcDbEntity
  8
0
100
AcDbLine
 10
0.9948499999999991
 20
9.592238068580627
 30
0.0
 11
1.5335000000000005
 21
9.592238068580627
 31
0.0
  0
LINE
  5
33A
330
17
100
AcDbEntity
  8
0
100
AcDbLine
 10
0.9948499999999991
 20
9.592238068580627
 30
0.0
 11
1.5335000000000005
 21
9.592238068580627
 31
0.0
  0
LINE
  5
33B
330
17
100
AcDbEntity
  8
0
100
AcDbLine
 10
2.2184999999999997
 20
9.592238068580627
 30
0.0
 11
2.658499999999999
 21
9.592238068580627
 31
0.0
  0
LINE
  5
33C
330
17
100
AcDbEntity
  8
0
100
AcDbLine
 10
2.658499999999999
 20
9.592238068580627
 30
0.0
 11
3.333500000000001
 21
9.592238068580627
 31
0.0
  0
LINE
  5
33D
330
17
100
AcDbEntity
  8
0
100
AcDbLine
 10
4.0184999999999995
 20
9.592238068580627
 30
0.0
 11
4.458499999999999
 21
9.592238068580627
 31
0.0
  0
LINE
  5
33E
330
17
100
AcDbEntity
  8
0
100
AcDbLine
 10
4.458499999999999
 20
9.592238068580627
 30
0.0
 11
5.133500000000001
 21
9.592238068580627
 31
0.0
  0
LINE
  5
33F
330
17
100
AcDbEntity
  8
0
100
AcDbLine
 10
5.8185
 20
9.592238068580627
 30
0.0
 11
6.258499999999999
 21
9.592238068580627
 31
0.0
  0
LINE
  5
340
330
17
100
AcDbEntity
  8
0
100
AcDbLine
 10
6.258499999999999
 20
9.592238068580627
 30
0.0
 11
6.9335
 21
9.592238068580627
 31
0.0
  0
LINE
  5
341
330
17
100
AcDbEntity
  8
0
100
AcDbLine
 10
7.618499999999999
 20
9.592238068580627
 30
0.0
 11
8.293500000000002
 21
9.592238068580627
 31
0.0
  0
LINE
  5
342
330
17
100
AcDbEntity
  8
0
100
AcDbLine
 10
8.293500000000002
 20
9.592238068580627
 30
0.0
 11
8.733500000000001
 21
9.592238068580627
 31
0.0
  0
LINE
  5
343
330
17
100
AcDbEntity
  8
0
100
AcDbLine
 10
9.4185
 20
9.592238068580627
 30
0.0
 11
9.8585
 21
9.592238068580627
 31
0.0
  0
LINE
  5
344
330
17
100
AcDbEntity
  8
0
100
AcDbLine
 10
9.8585
 20
9.592238068580627
 30
0.0
 11
10.5335
 21
9.592238068580627
 31
0.0
  0
LINE
  5
345
330
17
100
AcDbEntity
  8
0
100
AcDbLine
 10
11.218499999999999
 20
9.592238068580627
 30
0.0
 11
11.658499999999998
 21
9.592238068580627
 31
0.0
  0
LINE
  5
346
330
17
100
AcDbEntity
  8
0
100
AcDbLine
 10
11.658499999999998
 20
9.592238068580627
 30
0.0
 11
12.3335
 21
9.592238068580627
 31
0.0
  0
LINE
  5
347
330
17
100
AcDbEntity
  8
0
100
AcDbLine
 10
13.0185
 20
9.592238068580627
 30
0.0
 11
13.458499999999999
 21
9.592238068580627
 31
0.0
  0
LINE
  5
348
330
17
100
AcDbEntity
  8
0
100
AcDbLine
 10
13.458499999999999
 20
9.592238068580627
 30
0.0
 11
14.133500000000002
 21
9.592238068580627
 31
0.0
  0
LINE
  5
349
330
17
100
AcDbEntity
  8
0
100
AcDbLine
 10
0.9880999999999991
 20
10.092238068580627
 30
0.0
 11
1.5335000000000005
 21
10.092238068580627
 31
0.0
  0
LINE
  5
34A
330
17
100
AcDbEntity
  8
0
100
AcDbLine
 10
0.9880999999999991
 20
10.092238068580627
 30
0.0
 11
1.5335000000000005
 21
10.092238068580627
 31
0.0
  0
LINE
  5
34B
330
17
100
AcDbEntity
  8
0
100
AcDbLine
 10
2.2184999999999997
 20
10.092238068580627
 30
0.0
 11
2.658499999999999
 21
10.092238068580627
 31
0.0
  0
LINE
  5
34C
330
17
100
AcDbEntity
  8
0
100
AcDbLine
 10
2.658499999999999
 20
10.092238068580627
 30
0.0
 11
3.333500000000001
 21
10.092238068580627
 31
0.0
  0
LINE
  5
34D
330
17
100
AcDbEntity
  8
0
100
AcDbLine
 10
4.0184999999999995
 20
10.092238068580627
 30
0.0
 11
4.458499999999999
 21
10.092238068580627
 31
0.0
  0
LINE
  5
34E
330
17
100
AcDbEntity
  8
0
100
AcDbLine
 10
4.458499999999999
 20
10.092238068580627
 30
0.0
 11
5.133500000000001
 21
10.092238068580627
 31
0.0
  0
LINE
  5
34F
330
17
100
AcDbEntity
  8
0
100
AcDbLine
 10
5.8185
 20
10.092238068580627
 30
0.0
 11
6.258499999999999
 21
10.092238068580627
 31
0.0
  0
LINE
  5
350
330
17
100
AcDbEntity
  8
0
100
AcDbLine
 10
6.258499999999999
 20
10.092238068580627
 30
0.0
 11
6.9335
 21
10.092238068580627
 31
0.0
  0
LINE
  5
351
330
17
100
AcDbEntity
  8
0
100
AcDbLine
 10
7.618499999999999
 20
10.092238068580627
 30
0.0
 11
8.293500000000002
 21
10.092238068580627
 31
0.0
  0
LINE
  5
352
330
17
100
AcDbEntity
  8
0
100
AcDbLine
 10
8.293500000000002
 20
10.092238068580627
 30
0.0
 11
8.733500000000001
 21
10.092238068580627
 31
0.0
  0
LINE
  5
353
330
17
100
AcDbEntity
  8
0
100
AcDbLine
 10
9.4185
 20
10.092238068580627
 30
0.0
 11
9.8585
 21
10.092238068580627
 31
0.0
  0
LINE
  5
354
330
17
100
AcDbEntity
  8
0
100
AcDbLine
 10
9.8585
 20
10.092238068580627
 30
0.0
 11
10.5335
 21
10.092238068580627
 31
0.0
  0
LINE
  5
355
330
17
100
AcDbEntity
  8
0
100
AcDbLine
 10
11.218499999999999
 20
10.092238068580627
 30
0.0
 11
11.658499999999998
 21
10.092238068580627
 31
0.0
  0
LINE
  5
356
330
17
100
AcDbEntity
  8
0
100
AcDbLine
 10
11.658499999999998
 20
10.092238068580627
 30
0.0
 11
12.3335
 21
10.092238068580627
 31
0.0
  0
LINE
  5
357
330
17
100
AcDbEntity
  8
0
100
AcDbLine
 10
13.0185
 20
10.092238068580627
 30
0.0
 11
13.458499999999999
 21
10.092238068580627
 31
0.0
  0
LINE
  5
358
330
17
100
AcDbEntity
  8
0
100
AcDbLine
 10
13.458499999999999
 20
10.092238068580627
 30
0.0
 11
14.133500000000002
 21
10.092238068580627
 31
0.0
  0
LINE
  5
359
330
17
100
AcDbEntity
  8
0
100
AcDbLine
 10
0.9813499999999991
 20
10.592238068580627
 30
0.0
 11
1.5335000000000005
 21
10.592238068580627
 31
0.0
  0
LINE
  5
35A
330
17
100
AcDbEntity
  8
0
100
AcDbLine
 10
0.9813499999999991
 20
10.592238068580627
 30
0.0
 11
1.5335000000000005
 21
10.592238068580627
 31
0.0
  0
LINE
  5
35B
330
17
100
AcDbEntity
  8
0
100
AcDbLine
 10
2.2184999999999997
 20
10.592238068580627
 30
0.0
 11
2.658499999999999
 21
10.592238068580627
 31
0.0
  0
LINE
  5
35C
330
17
100
AcDbEntity
  8
0
100
AcDbLine
 10
2.658499999999999
 20
10.592238068580627
 30
0.0
 11
3.333500000000001
 21
10.592238068580627
 31
0.0
  0
LINE
  5
35D
330
17
100
AcDbEntity
  8
0
100
AcDbLine
 10
4.0184999999999995
 20
10.592238068580627
 30
0.0
 11
4.458499999999999
 21
10.592238068580627
 31
0.0
  0
LINE
  5
35E
330
17
100
AcDbEntity
  8
0
100
AcDbLine
 10
4.458499999999999
 20
10.592238068580627
 30
0.0
 11
5.133500000000001
 21
10.592238068580627
 31
0.0
  0
LINE
  5
35F
330
17
100
AcDbEntity
  8
0
100
AcDbLine
 10
5.8185
 20
10.592238068580627
 30
0.0
 11
6.258499999999999
 21
10.592238068580627
 31
0.0
  0
LINE
  5
360
330
17
100
AcDbEntity
  8
0
100
AcDbLine
 10
6.258499999999999
 20
10.592238068580627
 30
0.0
 11
6.9335
 21
10.592238068580627
 31
0.0
  0
LINE
  5
361
330
17
100
AcDbEntity
  8
0
100
AcDbLine
 10
7.618499999999999
 20
10.592238068580627
 30
0.0
 11
8.293500000000002
 21
10.592238068580627
 31
0.0
  0
LINE
  5
362
330
17
100
AcDbEntity
  8
0
100
AcDbLine
 10
8.293500000000002
 20
10.592238068580627
 30
0.0
 11
8.733500000000001
 21
10.592238068580627
 31
0.0
  0
LINE
  5
363
330
17
100
AcDbEntity
  8
0
100
AcDbLine
 10
9.4185
 20
10.592238068580627
 30
0.0
 11
9.8585
 21
10.592238068580627
 31
0.0
  0
LINE
  5
364
330
17
100
AcDbEntity
  8
0
100
AcDbLine
 10
9.8585
 20
10.592238068580627
 30
0.0
 11
10.5335
 21
10.592238068580627
 31
0.0
  0
LINE
  5
365
330
17
100
AcDbEntity
  8
0
100
AcDbLine
 10
11.218499999999999
 20
10.592238068580627
 30
0.0
 11
11.658499999999998
 21
10.592238068580627
 31
0.0
  0
LINE
  5
366
330
17
100
AcDbEntity
  8
0
100
AcDbLine
 10
11.658499999999998
 20
10.592238068580627
 30
0.0
 11
12.3335
 21
10.592238068580627
 31
0.0
  0
LINE
  5
367
330
17
100
AcDbEntity
  8
0
100
AcDbLine
 10
13.0185
 20
10.592238068580627
 30
0.0
 11
13.458499999999999
 21
10.592238068580627
 31
0.0
  0
LINE
  5
368
330
17
100
AcDbEntity
  8
0
100
AcDbLine
 10
13.458499999999999
 20
10.592238068580627
 30
0.0
 11
14.133500000000002
 21
10.592238068580627
 31
0.0
  0
LINE
  5
369
330
17
100
AcDbEntity
  8
0
100
AcDbLine
 10
0.974599999999999
 20
11.092238068580627
 30
0.0
 11
1.5335000000000005
 21
11.092238068580627
 31
0.0
  0
LINE
  5
36A
330
17
100
AcDbEntity
  8
0
100
AcDbLine
 10
0.974599999999999
 20
11.092238068580627
 30
0.0
 11
1.5335000000000005
 21
11.092238068580627
 31
0.0
  0
LINE
  5
36B
330
17
100
AcDbEntity
  8
0
100
AcDbLine
 10
2.2184999999999997
 20
11.092238068580627
 30
0.0
 11
2.658499999999999
 21
11.092238068580627
 31
0.0
  0
LINE
  5
36C
330
17
100
AcDbEntity
  8
0
100
AcDbLine
 10
2.658499999999999
 20
11.092238068580627
 30
0.0
 11
3.333500000000001
 21
11.092238068580627
 31
0.0
  0
LINE
  5
36D
330
17
100
AcDbEntity
  8
0
100
AcDbLine
 10
4.0184999999999995
 20
11.092238068580627
 30
0.0
 11
4.458499999999999
 21
11.092238068580627
 31
0.0
  0
LINE
  5
36E
330
17
100
AcDbEntity
  8
0
100
AcDbLine
 10
4.458499999999999
 20
11.092238068580627
 30
0.0
 11
5.133500000000001
 21
11.092238068580627
 31
0.0
  0
LINE
  5
36F
330
17
100
AcDbEntity
  8
0
100
AcDbLine
 10
5.8185
 20
11.092238068580627
 30
0.0
 11
6.258499999999999
 21
11.092238068580627
 31
0.0
  0
LINE
  5
370
330
17
100
AcDbEntity
  8
0
100
AcDbLine
 10
6.258499999999999
 20
11.092238068580627
 30
0.0
 11
6.9335
 21
11.092238068580627
 31
0.0
  0
LINE
  5
371
330
17
100
AcDbEntity
  8
0
100
AcDbLine
 10
7.618499999999999
 20
11.092238068580627
 30
0.0
 11
8.293500000000002
 21
11.092238068580627
 31
0.0
  0
LINE
  5
372
330
17
100
AcDbEntity
  8
0
100
AcDbLine
 10
8.293500000000002
 20
11.092238068580627
 30
0.0
 11
8.733500000000001
 21
11.092238068580627
 31
0.0
  0
LINE
  5
373
330
17
100
AcDbEntity
  8
0
100
AcDbLine
 10
9.4185
 20
11.092238068580627
 30
0.0
 11
9.8585
 21
11.092238068580627
 31
0.0
  0
LINE
  5
374
330
17
100
AcDbEntity
  8
0
100
AcDbLine
 10
9.8585
 20
11.092238068580627
 30
0.0
 11
10.5335
 21
11.092238068580627
 31
0.0
  0
LINE
  5
375
330
17
100
AcDbEntity
  8
0
100
AcDbLine
 10
11.218499999999999
 20
11.092238068580627
 30
0.0
 11
11.658499999999998
 21
11.092238068580627
 31
0.0
  0
LINE
  5
376
330
17
100
AcDbEntity
  8
0
100
AcDbLine
 10
11.658499999999998
 20
11.092238068580627
 30
0.0
 11
12.3335
 21
11.092238068580627
 31
0.0
  0
LINE
  5
377
330
17
100
AcDbEntity
  8
0
100
AcDbLine
 10
13.0185
 20
11.092238068580627
 30
0.0
 11
13.458499999999999
 21
11.092238068580627
 31
0.0
  0
LINE
  5
378
330
17
100
AcDbEntity
  8
0
100
AcDbLine
 10
13.458499999999999
 20
11.092238068580627
 30
0.0
 11
14.133500000000002
 21
11.092238068580627
 31
0.0
  0
LINE
  5
379
330
17
100
AcDbEntity
  8
0
100
AcDbLine
 10
0.9673999999999989
 20
11.592238068580627
 30
0.0
 11
1.5335000000000005
 21
11.592238068580627
 31
0.0
  0
LINE
  5
37A
330
17
100
AcDbEntity
  8
0
100
AcDbLine
 10
0.9673999999999989
 20
11.592238068580627
 30
0.0
 11
1.5335000000000005
 21
11.592238068580627
 31
0.0
  0
LINE
  5
37B
330
17
100
AcDbEntity
  8
0
100
AcDbLine
 10
2.2184999999999997
 20
11.592238068580627
 30
0.0
 11
2.658499999999999
 21
11.592238068580627
 31
0.0
  0
LINE
  5
37C
330
17
100
AcDbEntity
  8
0
100
AcDbLine
 10
2.658499999999999
 20
11.592238068580627
 30
0.0
 11
3.333500000000001
 21
11.592238068580627
 31
0.0
  0
LINE
  5
37D
330
17
100
AcDbEntity
  8
0
100
AcDbLine
 10
4.0184999999999995
 20
11.592238068580627
 30
0.0
 11
4.458499999999999
 21
11.592238068580627
 31
0.0
  0
LINE
  5
37E
330
17
100
AcDbEntity
  8
0
100
AcDbLine
 10
4.458499999999999
 20
11.592238068580627
 30
0.0
 11
5.133500000000001
 21
11.592238068580627
 31
0.0
  0
LINE
  5
37F
330
17
100
AcDbEntity
  8
0
100
AcDbLine
 10
5.8185
 20
11.592238068580627
 30
0.0
 11
6.258499999999999
 21
11.592238068580627
 31
0.0
  0
LINE
  5
380
330
17
100
AcDbEntity
  8
0
100
AcDbLine
 10
6.258499999999999
 20
11.592238068580627
 30
0.0
 11
6.9335
 21
11.592238068580627
 31
0.0
  0
LINE
  5
381
330
17
100
AcDbEntity
  8
0
100
AcDbLine
 10
7.618499999999999
 20
11.592238068580627
 30
0.0
 11
8.293500000000002
 21
11.592238068580627
 31
0.0
  0
LINE
  5
382
330
17
100
AcDbEntity
  8
0
100
AcDbLine
 10
8.293500000000002
 20
11.592238068580627
 30
0.0
 11
8.733500000000001
 21
11.592238068580627
 31
0.0
  0
LINE
  5
383
330
17
100
AcDbEntity
  8
0
100
AcDbLine
 10
9.4185
 20
11.592238068580627
 30
0.0
 11
9.8585
 21
11.592238068580627
 31
0.0
  0
LINE
  5
384
330
17
100
AcDbEntity
  8
0
100
AcDbLine
 10
9.8585
 20
11.592238068580627
 30
0.0
 11
10.5335
 21
11.592238068580627
 31
0.0
  0
LINE
  5
385
330
17
100
AcDbEntity
  8
0
100
AcDbLine
 10
11.218499999999999
 20
11.592238068580627
 30
0.0
 11
11.658499999999998
 21
11.592238068580627
 31
0.0
  0
LINE
  5
386
330
17
100
AcDbEntity
  8
0
100
AcDbLine
 10
11.658499999999998
 20
11.592238068580627
 30
0.0
 11
12.3335
 21
11.592238068580627
 31
0.0
  0
LINE
  5
387
330
17
100
AcDbEntity
  8
0
100
AcDbLine
 10
13.0185
 20
11.592238068580627
 30
0.0
 11
13.458499999999999
 21
11.592238068580627
 31
0.0
  0
LINE
  5
388
330
17
100
AcDbEntity
  8
0
100
AcDbLine
 10
13.458499999999999
 20
11.592238068580627
 30
0.0
 11
14.133500000000002
 21
11.592238068580627
 31
0.0
  0
LINE
  5
389
330
17
100
AcDbEntity
  8
0
100
AcDbLine
 10
0.9606499999999991
 20
12.092238068580627
 30
0.0
 11
1.5335000000000005
 21
12.092238068580627
 31
0.0
  0
LINE
  5
38A
330
17
100
AcDbEntity
  8
0
100
AcDbLine
 10
0.9606499999999991
 20
12.092238068580627
 30
0.0
 11
1.5335000000000005
 21
12.092238068580627
 31
0.0
  0
LINE
  5
38B
330
17
100
AcDbEntity
  8
0
100
AcDbLine
 10
2.2184999999999997
 20
12.092238068580627
 30
0.0
 11
2.658499999999999
 21
12.092238068580627
 31
0.0
  0
LINE
  5
38C
330
17
100
AcDbEntity
  8
0
100
AcDbLine
 10
2.658499999999999
 20
12.092238068580627
 30
0.0
 11
3.333500000000001
 21
12.092238068580627
 31
0.0
  0
LINE
  5
38D
330
17
100
AcDbEntity
  8
0
100
AcDbLine
 10
4.0184999999999995
 20
12.092238068580627
 30
0.0
 11
4.458499999999999
 21
12.092238068580627
 31
0.0
  0
LINE
  5
38E
330
17
100
AcDbEntity
  8
0
100
AcDbLine
 10
4.458499999999999
 20
12.092238068580627
 30
0.0
 11
5.133500000000001
 21
12.092238068580627
 31
0.0
  0
LINE
  5
38F
330
17
100
AcDbEntity
  8
0
100
AcDbLine
 10
5.8185
 20
12.092238068580627
 30
0.0
 11
6.258499999999999
 21
12.092238068580627
 31
0.0
  0
LINE
  5
390
330
17
100
AcDbEntity
  8
0
100
AcDbLine
 10
6.258499999999999
 20
12.092238068580627
 30
0.0
 11
6.9335
 21
12.092238068580627
 31
0.0
  0
LINE
  5
391
330
17
100
AcDbEntity
  8
0
100
AcDbLine
 10
7.618499999999999
 20
12.092238068580627
 30
0.0
 11
8.293500000000002
 21
12.092238068580627
 31
0.0
  0
LINE
  5
392
330
17
100
AcDbEntity
  8
0
100
AcDbLine
 10
8.293500000000002
 20
12.092238068580627
 30
0.0
 11
8.733500000000001
 21
12.092238068580627
 31
0.0
  0
LINE
  5
393
330
17
100
AcDbEntity
  8
0
100
AcDbLine
 10
9.4185
 20
12.092238068580627
 30
0.0
 11
9.8585
 21
12.092238068580627
 31
0.0
  0
LINE
  5
394
330
17
100
AcDbEntity
  8
0
100
AcDbLine
 10
9.8585
 20
12.092238068580627
 30
0.0
 11
10.5335
 21
12.092238068580627
 31
0.0
  0
LINE
  5
395
330
17
100
AcDbEntity
  8
0
100
AcDbLine
 10
11.218499999999999
 20
12.092238068580627
 30
0.0
 11
11.658499999999998
 21
12.092238068580627
 31
0.0
  0
LINE
  5
396
330
17
100
AcDbEntity
  8
0
100
AcDbLine
 10
11.658499999999998
 20
12.092238068580627
 30
0.0
 11
12.3335
 21
12.092238068580627
 31
0.0
  0
LINE
  5
397
330
17
100
AcDbEntity
  8
0
100
AcDbLine
 10
13.0185
 20
12.092238068580627
 30
0.0
 11
13.458499999999999
 21
12.092238068580627
 31
0.0
  0
LINE
  5
398
330
17
100
AcDbEntity
  8
0
100
AcDbLine
 10
13.458499999999999
 20
12.092238068580627
 30
0.0
 11
14.133500000000002
 21
12.092238068580627
 31
0.0
  0
LINE
  5
399
330
17
100
AcDbEntity
  8
0
100
AcDbLine
 10
0.9538999999999991
 20
12.592238068580627
 30
0.0
 11
1.5335000000000005
 21
12.592238068580627
 31
0.0
  0
LINE
  5
39A
330
17
100
AcDbEntity
  8
0
100
AcDbLine
 10
0.9538999999999991
 20
12.592238068580627
 30
0.0
 11
1.5335000000000005
 21
12.592238068580627
 31
0.0
  0
LINE
  5
39B
330
17
100
AcDbEntity
  8
0
100
AcDbLine
 10
2.2184999999999997
 20
12.592238068580627
 30
0.0
 11
2.658499999999999
 21
12.592238068580627
 31
0.0
  0
LINE
  5
39C
330
17
100
AcDbEntity
  8
0
100
AcDbLine
 10
2.658499999999999
 20
12.592238068580627
 30
0.0
 11
3.333500000000001
 21
12.592238068580627
 31
0.0
  0
LINE
  5
39D
330
17
100
AcDbEntity
  8
0
100
AcDbLine
 10
4.0184999999999995
 20
12.592238068580627
 30
0.0
 11
4.458499999999999
 21
12.592238068580627
 31
0.0
  0
LINE
  5
39E
330
17
100
AcDbEntity
  8
0
100
AcDbLine
 10
4.458499999999999
 20
12.592238068580627
 30
0.0
 11
5.133500000000001
 21
12.592238068580627
 31
0.0
  0
LINE
  5
39F
330
17
100
AcDbEntity
  8
0
100
AcDbLine
 10
5.8185
 20
12.592238068580627
 30
0.0
 11
6.258499999999999
 21
12.592238068580627
 31
0.0
  0
LINE
  5
3A0
330
17
100
AcDbEntity
  8
0
100
AcDbLine
 10
6.258499999999999
 20
12.592238068580627
 30
0.0
 11
6.9335
 21
12.592238068580627
 31
0.0
  0
LINE
  5
3A1
330
17
100
AcDbEntity
  8
0
100
AcDbLine
 10
7.618499999999999
 20
12.592238068580627
 30
0.0
 11
8.293500000000002
 21
12.592238068580627
 31
0.0
  0
LINE
  5
3A2
330
17
100
AcDbEntity
  8
0
100
AcDbLine
 10
8.293500000000002
 20
12.592238068580627
 30
0.0
 11
8.733500000000001
 21
12.592238068580627
 31
0.0
  0
LINE
  5
3A3
330
17
100
AcDbEntity
  8
0
100
AcDbLine
 10
9.4185
 20
12.592238068580627
 30
0.0
 11
9.8585
 21
12.592238068580627
 31
0.0
  0
LINE
  5
3A4
330
17
100
AcDbEntity
  8
0
100
AcDbLine
 10
9.8585
 20
12.592238068580627
 30
0.0
 11
10.5335
 21
12.592238068580627
 31
0.0
  0
LINE
  5
3A5
330
17
100
AcDbEntity
  8
0
100
AcDbLine
 10
11.218499999999999
 20
12.592238068580627
 30
0.0
 11
11.658499999999998
 21
12.592238068580627
 31
0.0
  0
LINE
  5
3A6
330
17
100
AcDbEntity
  8
0
100
AcDbLine
 10
11.658499999999998
 20
12.592238068580627
 30
0.0
 11
12.3335
 21
12.592238068580627
 31
0.0
  0
LINE
  5
3A7
330
17
100
AcDbEntity
  8
0
100
AcDbLine
 10
13.0185
 20
12.592238068580627
 30
0.0
 11
13.458499999999999
 21
12.592238068580627
 31
0.0
  0
LINE
  5
3A8
330
17
100
AcDbEntity
  8
0
100
AcDbLine
 10
13.458499999999999
 20
12.592238068580627
 30
0.0
 11
14.133500000000002
 21
12.592238068580627
 31
0.0
  0
LINE
  5
3A9
330
17
100
AcDbEntity
  8
0
100
AcDbLine
 10
0.959749999999999
 20
13.092238068580627
 30
0.0
 11
1.5335000000000005
 21
13.092238068580627
 31
0.0
  0
LINE
  5
3AA
330
17
100
AcDbEntity
  8
0
100
AcDbLine
 10
0.959749999999999
 20
13.092238068580627
 30
0.0
 11
1.5335000000000005
 21
13.092238068580627
 31
0.0
  0
LINE
  5
3AB
330
17
100
AcDbEntity
  8
0
100
AcDbLine
 10
2.2184999999999997
 20
13.092238068580627
 30
0.0
 11
2.658499999999999
 21
13.092238068580627
 31
0.0
  0
LINE
  5
3AC
330
17
100
AcDbEntity
  8
0
100
AcDbLine
 10
2.658499999999999
 20
13.092238068580627
 30
0.0
 11
3.333500000000001
 21
13.092238068580627
 31
0.0
  0
LINE
  5
3AD
330
17
100
AcDbEntity
  8
0
100
AcDbLine
 10
4.0184999999999995
 20
13.092238068580627
 30
0.0
 11
4.458499999999999
 21
13.092238068580627
 31
0.0
  0
LINE
  5
3AE
330
17
100
AcDbEntity
  8
0
100
AcDbLine
 10
4.458499999999999
 20
13.092238068580627
 30
0.0
 11
5.133500000000001
 21
13.092238068580627
 31
0.0
  0
LINE
  5
3AF
330
17
100
AcDbEntity
  8
0
100
AcDbLine
 10
5.8185
 20
13.092238068580627
 30
0.0
 11
6.258499999999999
 21
13.092238068580627
 31
0.0
  0
LINE
  5
3B0
330
17
100
AcDbEntity
  8
0
100
AcDbLine
 10
6.258499999999999
 20
13.092238068580627
 30
0.0
 11
6.9335
 21
13.092238068580627
 31
0.0
  0
LINE
  5
3B1
330
17
100
AcDbEntity
  8
0
100
AcDbLine
 10
7.618499999999999
 20
13.092238068580627
 30
0.0
 11
8.293500000000002
 21
13.092238068580627
 31
0.0
  0
LINE
  5
3B2
330
17
100
AcDbEntity
  8
0
100
AcDbLine
 10
8.293500000000002
 20
13.092238068580627
 30
0.0
 11
8.733500000000001
 21
13.092238068580627
 31
0.0
  0
LINE
  5
3B3
330
17
100
AcDbEntity
  8
0
100
AcDbLine
 10
9.4185
 20
13.092238068580627
 30
0.0
 11
9.8585
 21
13.092238068580627
 31
0.0
  0
LINE
  5
3B4
330
17
100
AcDbEntity
  8
0
100
AcDbLine
 10
9.8585
 20
13.092238068580627
 30
0.0
 11
10.5335
 21
13.092238068580627
 31
0.0
  0
LINE
  5
3B5
330
17
100
AcDbEntity
  8
0
100
AcDbLine
 10
11.218499999999999
 20
13.092238068580627
 30
0.0
 11
11.658499999999998
 21
13.092238068580627
 31
0.0
  0
LINE
  5
3B6
330
17
100
AcDbEntity
  8
0
100
AcDbLine
 10
11.658499999999998
 20
13.092238068580627
 30
0.0
 11
12.3335
 21
13.092238068580627
 31
0.0
  0
LINE
  5
3B7
330
17
100
AcDbEntity
  8
0
100
AcDbLine
 10
13.0185
 20
13.092238068580627
 30
0.0
 11
13.458499999999999
 21
13.092238068580627
 31
0.0
  0
LINE
  5
3B8
330
17
100
AcDbEntity
  8
0
100
AcDbLine
 10
13.458499999999999
 20
13.092238068580627
 30
0.0
 11
14.133500000000002
 21
13.092238068580627
 31
0.0
  0
LINE
  5
3B9
330
17
100
AcDbEntity
  8
0
100
AcDbLine
 10
0.9867499999999991
 20
13.592238068580627
 30
0.0
 11
1.5335000000000005
 21
13.592238068580627
 31
0.0
  0
LINE
  5
3BA
330
17
100
AcDbEntity
  8
0
100
AcDbLine
 10
0.9867499999999991
 20
13.592238068580627
 30
0.0
 11
1.5335000000000005
 21
13.592238068580627
 31
0.0
  0
LINE
  5
3BB
330
17
100
AcDbEntity
  8
0
100
AcDbLine
 10
2.2184999999999997
 20
13.592238068580627
 30
0.0
 11
2.658499999999999
 21
13.592238068580627
 31
0.0
  0
LINE
  5
3BC
330
17
100
AcDbEntity
  8
0
100
AcDbLine
 10
2.658499999999999
 20
13.592238068580627
 30
0.0
 11
3.333500000000001
 21
13.592238068580627
 31
0.0
  0
LINE
  5
3BD
330
17
100
AcDbEntity
  8
0
100
AcDbLine
 10
4.0184999999999995
 20
13.592238068580627
 30
0.0
 11
4.458499999999999
 21
13.592238068580627
 31
0.0
  0
LINE
  5
3BE
330
17
100
AcDbEntity
  8
0
100
AcDbLine
 10
4.458499999999999
 20
13.592238068580627
 30
0.0
 11
5.133500000000001
 21
13.592238068580627
 31
0.0
  0
LINE
  5
3BF
330
17
100
AcDbEntity
  8
0
100
AcDbLine
 10
5.8185
 20
13.592238068580627
 30
0.0
 11
6.258499999999999
 21
13.592238068580627
 31
0.0
  0
LINE
  5
3C0
330
17
100
AcDbEntity
  8
0
100
AcDbLine
 10
6.258499999999999
 20
13.592238068580627
 30
0.0
 11
6.9335
 21
13.592238068580627
 31
0.0
  0
LINE
  5
3C1
330
17
100
AcDbEntity
  8
0
100
AcDbLine
 10
7.618499999999999
 20
13.592238068580627
 30
0.0
 11
8.293500000000002
 21
13.592238068580627
 31
0.0
  0
LINE
  5
3C2
330
17
100
AcDbEntity
  8
0
100
AcDbLine
 10
8.293500000000002
 20
13.592238068580627
 30
0.0
 11
8.733500000000001
 21
13.592238068580627
 31
0.0
  0
LINE
  5
3C3
330
17
100
AcDbEntity
  8
0
100
AcDbLine
 10
9.4185
 20
13.592238068580627
 30
0.0
 11
9.8585
 21
13.592238068580627
 31
0.0
  0
LINE
  5
3C4
330
17
100
AcDbEntity
  8
0
100
AcDbLine
 10
9.8585
 20
13.592238068580627
 30
0.0
 11
10.5335
 21
13.592238068580627
 31
0.0
  0
LINE
  5
3C5
330
17
100
AcDbEntity
  8
0
100
AcDbLine
 10
11.218499999999999
 20
13.592238068580627
 30
0.0
 11
11.658499999999998
 21
13.592238068580627
 31
0.0
  0
LINE
  5
3C6
330
17
100
AcDbEntity
  8
0
100
AcDbLine
 10
11.658499999999998
 20
13.592238068580627
 30
0.0
 11
12.3335
 21
13.592238068580627
 31
0.0
  0
LINE
  5
3C7
330
17
100
AcDbEntity
  8
0
100
AcDbLine
 10
13.0185
 20
13.592238068580627
 30
0.0
 11
13.458499999999999
 21
13.592238068580627
 31
0.0
  0
LINE
  5
3C8
330
17
100
AcDbEntity
  8
0
100
AcDbLine
 10
13.458499999999999
 20
13.592238068580627
 30
0.0
 11
14.133500000000002
 21
13.592238068580627
 31
0.0
  0
LINE
  5
3C9
330
17
100
AcDbEntity
  8
0
100
AcDbLine
 10
1.0510999999999993
 20
14.092238068580627
 30
0.0
 11
1.5335000000000005
 21
14.092238068580627
 31
0.0
  0
LINE
  5
3CA
330
17
100
AcDbEntity
  8
0
100
AcDbLine
 10
1.0510999999999993
 20
14.092238068580627
 30
0.0
 11
1.5335000000000005
 21
14.092238068580627
 31
0.0
  0
LINE
  5
3CB
330
17
100
AcDbEntity
  8
0
100
AcDbLine
 10
2.2184999999999997
 20
14.092238068580627
 30
0.0
 11
2.658499999999999
 21
14.092238068580627
 31
0.0
  0
LINE
  5
3CC
330
17
100
AcDbEntity
  8
0
100
AcDbLine
 10
2.658499999999999
 20
14.092238068580627
 30
0.0
 11
3.333500000000001
 21
14.092238068580627
 31
0.0
  0
LINE
  5
3CD
330
17
100
AcDbEntity
  8
0
100
AcDbLine
 10
4.0184999999999995
 20
14.092238068580627
 30
0.0
 11
4.458499999999999
 21
14.092238068580627
 31
0.0
  0
LINE
  5
3CE
330
17
100
AcDbEntity
  8
0
100
AcDbLine
 10
4.458499999999999
 20
14.092238068580627
 30
0.0
 11
5.133500000000001
 21
14.092238068580627
 31
0.0
  0
LINE
  5
3CF
330
17
100
AcDbEntity
  8
0
100
AcDbLine
 10
5.8185
 20
14.092238068580627
 30
0.0
 11
6.258499999999999
 21
14.092238068580627
 31
0.0
  0
LINE
  5
3D0
330
17
100
AcDbEntity
  8
0
100
AcDbLine
 10
6.258499999999999
 20
14.092238068580627
 30
0.0
 11
6.9335
 21
14.092238068580627
 31
0.0
  0
LINE
  5
3D1
330
17
100
AcDbEntity
  8
0
100
AcDbLine
 10
7.618499999999999
 20
14.092238068580627
 30
0.0
 11
8.293500000000002
 21
14.092238068580627
 31
0.0
  0
LINE
  5
3D2
330
17
100
AcDbEntity
  8
0
100
AcDbLine
 10
8.293500000000002
 20
14.092238068580627
 30
0.0
 11
8.733500000000001
 21
14.092238068580627
 31
0.0
  0
LINE
  5
3D3
330
17
100
AcDbEntity
  8
0
100
AcDbLine
 10
9.4185
 20
14.092238068580627
 30
0.0
 11
9.8585
 21
14.092238068580627
 31
0.0
  0
LINE
  5
3D4
330
17
100
AcDbEntity
  8
0
100
AcDbLine
 10
9.8585
 20
14.092238068580627
 30
0.0
 11
10.5335
 21
14.092238068580627
 31
0.0
  0
LINE
  5
3D5
330
17
100
AcDbEntity
  8
0
100
AcDbLine
 10
11.218499999999999
 20
14.092238068580627
 30
0.0
 11
11.658499999999998
 21
14.092238068580627
 31
0.0
  0
LINE
  5
3D6
330
17
100
AcDbEntity
  8
0
100
AcDbLine
 10
11.658499999999998
 20
14.092238068580627
 30
0.0
 11
12.3335
 21
14.092238068580627
 31
0.0
  0
LINE
  5
3D7
330
17
100
AcDbEntity
  8
0
100
AcDbLine
 10
13.0185
 20
14.092238068580627
 30
0.0
 11
13.458499999999999
 21
14.092238068580627
 31
0.0
  0
LINE
  5
3D8
330
17
100
AcDbEntity
  8
0
100
AcDbLine
 10
13.458499999999999
 20
14.092238068580627
 30
0.0
 11
14.133500000000002
 21
14.092238068580627
 31
0.0
  0
LINE
  5
3D9
330
17
100
AcDbEntity
  8
0
100
AcDbLine
 10
1.30625
 20
14.592238068580627
 30
0.0
 11
1.5335000000000005
 21
14.592238068580627
 31
0.0
  0
LINE
  5
3DA
330
17
100
AcDbEntity
  8
0
100
AcDbLine
 10
1.30625
 20
14.592238068580627
 30
0.0
 11
1.5335000000000005
 21
14.592238068580627
 31
0.0
  0
LINE
  5
3DB
330
17
100
AcDbEntity
  8
0
100
AcDbLine
 10
2.2184999999999997
 20
14.592238068580627
 30
0.0
 11
2.658499999999999
 21
14.592238068580627
 31
0.0
  0
LINE
  5
3DC
330
17
100
AcDbEntity
  8
0
100
AcDbLine
 10
2.658499999999999
 20
14.592238068580627
 30
0.0
 11
3.333500000000001
 21
14.592238068580627
 31
0.0
  0
LINE
  5
3DD
330
17
100
AcDbEntity
  8
0
100
AcDbLine
 10
4.0184999999999995
 20
14.592238068580627
 30
0.0
 11
4.458499999999999
 21
14.592238068580627
 31
0.0
  0
LINE
  5
3DE
330
17
100
AcDbEntity
  8
0
100
AcDbLine
 10
4.458499999999999
 20
14.592238068580627
 30
0.0
 11
5.133500000000001
 21
14.592238068580627
 31
0.0
  0
LINE
  5
3DF
330
17
100
AcDbEntity
  8
0
100
AcDbLine
 10
5.8185
 20
14.592238068580627
 30
0.0
 11
6.258499999999999
 21
14.592238068580627
 31
0.0
  0
LINE
  5
3E0
330
17
100
AcDbEntity
  8
0
100
AcDbLine
 10
6.258499999999999
 20
14.592238068580627
 30
0.0
 11
6.9335
 21
14.592238068580627
 31
0.0
  0
LINE
  5
3E1
330
17
100
AcDbEntity
  8
0
100
AcDbLine
 10
7.618499999999999
 20
14.592238068580627
 30
0.0
 11
8.293500000000002
 21
14.592238068580627
 31
0.0
  0
LINE
  5
3E2
330
17
100
AcDbEntity
  8
0
100
AcDbLine
 10
8.293500000000002
 20
14.592238068580627
 30
0.0
 11
8.733500000000001
 21
14.592238068580627
 31
0.0
  0
LINE
  5
3E3
330
17
100
AcDbEntity
  8
0
100
AcDbLine
 10
9.4185
 20
14.592238068580627
 30
0.0
 11
9.8585
 21
14.592238068580627
 31
0.0
  0
LINE
  5
3E4
330
17
100
AcDbEntity
  8
0
100
AcDbLine
 10
9.8585
 20
14.592238068580627
 30
0.0
 11
10.5335
 21
14.592238068580627
 31
0.0
  0
LINE
  5
3E5
330
17
100
AcDbEntity
  8
0
100
AcDbLine
 10
11.218499999999999
 20
14.592238068580627
 30
0.0
 11
11.658499999999998
 21
14.592238068580627
 31
0.0
  0
LINE
  5
3E6
330
17
100
AcDbEntity
  8
0
100
AcDbLine
 10
11.658499999999998
 20
14.592238068580627
 30
0.0
 11
12.3335
 21
14.592238068580627
 31
0.0
  0
LINE
  5
3E7
330
17
100
AcDbEntity
  8
0
100
AcDbLine
 10
13.0185
 20
14.592238068580627
 30
0.0
 11
13.458499999999999
 21
14.592238068580627
 31
0.0
  0
LINE
  5
3E8
330
17
100
AcDbEntity
  8
0
100
AcDbLine
 10
13.458499999999999
 20
14.592238068580627
 30
0.0
 11
14.133500000000002
 21
14.592238068580627
 31
0.0
  0
ENDSEC
  0
SECTION
  2
OBJECTS
  0
DICTIONARY
  5
A
330
0
100
AcDbDictionary
281
1
  3
ACAD_COLOR
350
B
  3
ACAD_GROUP
350
C
  3
ACAD_LAYOUT
350
D
  3
ACAD_MATERIAL
350
E
  3
ACAD_MLEADERSTYLE
350
F
  3
ACAD_MLINESTYLE
350
10
  3
ACAD_PLOTSETTINGS
350
11
  3
ACAD_PLOTSTYLENAME
350
12
  3
ACAD_SCALELIST
350
14
  3
ACAD_TABLESTYLE
350
15
  3
ACAD_VISUALSTYLE
350
16
  3
EZDXF_META
350
2D
  0
DICTIONARY
  5
B
330
A
100
AcDbDictionary
281
1
  0
DICTIONARY
  5
C
330
A
100
AcDbDictionary
281
1
  0
DICTIONARY
  5
D
330
A
100
AcDbDictionary
281
1
  3
Model
350
1A
  3
Layout1
350
1E
  0
DICTIONARY
  5
E
330
A
100
AcDbDictionary
281
1
  3
ByBlock
350
1F
  3
ByLayer
350
20
  3
Global
350
21
  0
DICTIONARY
  5
F
330
A
100
AcDbDictionary
281
1
  3
Standard
350
2C
  0
DICTIONARY
  5
10
330
A
100
AcDbDictionary
281
1
  3
Standard
350
22
  0
DICTIONARY
  5
11
330
A
100
AcDbDictionary
281
1
  0
ACDBDICTIONARYWDFLT
  5
12
330
A
100
AcDbDictionary
281
1
  3
Normal
350
13
100
AcDbDictionaryWithDefault
340
13
  0
ACDBPLACEHOLDER
  5
13
330
12
  0
DICTIONARY
  5
14
330
A
100
AcDbDictionary
281
1
  0
DICTIONARY
  5
15
330
A
100
AcDbDictionary
281
1
  0
DICTIONARY
  5
16
330
A
100
AcDbDictionary
281
1
  0
LAYOUT
  5
1A
330
D
100
AcDbPlotSettings
  1

  4
A3
  6

 40
7.5
 41
20.0
 42
7.5
 43
20.0
 44
420.0
 45
297.0
 46
0.0
 47
0.0
 48
0.0
 49
0.0
140
0.0
141
0.0
142
1.0
143
1.0
 70
1024
 72
1
 73
0
 74
5
  7

 75
16
 76
0
 77
2
 78
300
147
1.0
148
0.0
149
0.0
100
AcDbLayout
  1
Model
 70
1
 71
0
 10
0.0
 20
0.0
 11
420.0
 21
297.0
 12
0.0
 22
0.0
 32
0.0
 14
1e+20
 24
1e+20
 34
1e+20
 15
-1e+20
 25
-1e+20
 35
-1e+20
146
0.0
 13
0.0
 23
0.0
 33
0.0
 16
1.0
 26
0.0
 36
0.0
 17
0.0
 27
1.0
 37
0.0
 76
1
330
17
  0
LAYOUT
  5
1E
330
D
100
AcDbPlotSettings
  1

  4
A3
  6

 40
7.5
 41
20.0
 42
7.5
 43
20.0
 44
420.0
 45
297.0
 46
0.0
 47
0.0
 48
0.0
 49
0.0
140
0.0
141
0.0
142
1.0
143
1.0
 70
0
 72
1
 73
0
 74
5
  7

 75
16
 76
0
 77
2
 78
300
147
1.0
148
0.0
149
0.0
100
AcDbLayout
  1
Layout1
 70
1
 71
1
 10
0.0
 20
0.0
 11
420.0
 21
297.0
 12
0.0
 22
0.0
 32
0.0
 14
1e+20
 24
1e+20
 34
1e+20
 15
-1e+20
 25
-1e+20
 35
-1e+20
146
0.0
 13
0.0
 23
0.0
 33
0.0
 16
1.0
 26
0.0
 36
0.0
 17
0.0
 27
1.0
 37
0.0
 76
1
330
1B
  0
MATERIAL
  5
1F
102
{ACAD_REACTORS
330
E
102
}
330
E
100
AcDbMaterial
  1
ByBlock
  2

 70
0
 40
1.0
 71
1
 41
1.0
 91
-1023410177
 42
1.0
 72
1
  3

 73
1
 74
1
 75
1
 44
0.5
 73
0
 45
1.0
 46
1.0
 77
1
  4

 78
1
 79
1
170
1
 48
1.0
171
1
  6

172
1
173
1
174
1
140
1.0
141
1.0
175
1
  7

176
1
177
1
178
1
143
1.0
179
1
  8

270
1
271
1
272
1
145
1.0
146
1.0
273
1
  9

274
1
275
1
276
1
 42
1.0
 72
1
  3

 73
1
 74
1
 75
1
 94
63
  0
MATERIAL
  5
20
102
{ACAD_REACTORS
330
E
102
}
330
E
100
AcDbMaterial
  1
ByLayer
  2

 70
0
 40
1.0
 71
1
 41
1.0
 91
-1023410177
 42
1.0
 72
1
  3

 73
1
 74
1
 75
1
 44
0.5
 73
0
 45
1.0
 46
1.0
 77
1
  4

 78
1
 79
1
170
1
 48
1.0
171
1
  6

172
1
173
1
174
1
140
1.0
141
1.0
175
1
  7

176
1
177
1
178
1
143
1.0
179
1
  8

270
1
271
1
272
1
145
1.0
146
1.0
273
1
  9

274
1
275
1
276
1
 42
1.0
 72
1
  3

 73
1
 74
1
 75
1
 94
63
  0
MATERIAL
  5
21
102
{ACAD_REACTORS
330
E
102
}
330
E
100
AcDbMaterial
  1
Global
  2

 70
0
 40
1.0
 71
1
 41
1.0
 91
-1023410177
 42
1.0
 72
1
  3

 73
1
 74
1
 75
1
 44
0.5
 73
0
 45
1.0
 46
1.0
 77
1
  4

 78
1
 79
1
170
1
 48
1.0
171
1
  6

172
1
173
1
174
1
140
1.0
141
1.0
175
1
  7

176
1
177
1
178
1
143
1.0
179
1
  8

270
1
271
1
272
1
145
1.0
146
1.0
273
1
  9

274
1
275
1
276
1
 42
1.0
 72
1
  3

 73
1
 74
1
 75
1
 94
63
  0
MLINESTYLE
  5
22
102
{ACAD_REACTORS
330
10
102
}
330
10
100
AcDbMlineStyle
  2
Standard
 70
0
  3

 62
256
 51
90.0
 52
90.0
 71
2
 49
0.5
 62
256
  6
BYLAYER
 49
-0.5
 62
256
  6
BYLAYER
  0
MLEADERSTYLE
  5
2C
102
{ACAD_REACTORS
330
F
102
}
330
F
100
AcDbMLeaderStyle
179
2
170
2
171
1
172
0
 90
2
 40
0.0
 41
0.0
173
1
 91
-1056964608
 92
-2
290
1
 42
2.0
291
1
 43
8.0
  3
Standard
 44
4.0
300

342
29
174
1
175
1
176
0
178
1
 93
-1056964608
 45
4.0
292
0
297
0
 46
4.0
 94
-1056964608
 47
1.0
 49
1.0
140
1.0
294
1
141
0.0
177
0
142
1.0
295
0
296
0
143
3.75
271
0
272
9
273
9
  0
DICTIONARY
  5
2D
330
A
100
AcDbDictionary
280
1
281
1
  3
CREATED_BY_EZDXF
350
2E
  3
WRITTEN_BY_EZDXF
350
3EB
  0
DICTIONARYVAR
  5
2E
330
2D
100
DictionaryVariables
280
0
  1
1.4.2 @ 2025-07-31T13:08:29.074197+00:00
  0
DICTIONARYVAR
  5
3EB
330
2D
100
DictionaryVariables
280
0
  1
1.4.2 @ 2025-07-31T13:08:29.136694+00:00
  0
ENDSEC
  0
EOF
