  0
SECTION
  2
HEADER
  9
$ACADVER
  1
AC1024
  9
$ACADMAINTVER
 70
6
  9
$DWGCODEPAGE
  3
ANSI_1252
  9
$LASTSAVEDBY
  1
ezdxf
  9
$INSBASE
 10
0.0
 20
0.0
 30
0.0
  9
$EXTMIN
 10
1e+20
 20
1e+20
 30
1e+20
  9
$EXTMAX
 10
-1e+20
 20
-1e+20
 30
-1e+20
  9
$LIMMIN
 10
0.0
 20
0.0
  9
$LIMMAX
 10
420.0
 20
297.0
  9
$ORTHOMODE
 70
0
  9
$REGENMODE
 70
1
  9
$FILLMODE
 70
1
  9
$QTEXTMODE
 70
0
  9
$MIRRTEXT
 70
1
  9
$LTSCALE
 40
1.0
  9
$ATTMODE
 70
1
  9
$TEXTSIZE
 40
2.5
  9
$TRACEWID
 40
1.0
  9
$TEXTSTYLE
  7
Standard
  9
$CLAYER
  8
0
  9
$CELTYPE
  6
ByLayer
  9
$CECOLOR
 62
256
  9
$CELTSCALE
 40
1.0
  9
$DISPSILH
 70
0
  9
$DIMSCALE
 40
1.0
  9
$DIMASZ
 40
2.5
  9
$DIMEXO
 40
0.625
  9
$DIMDLI
 40
3.75
  9
$DIMRND
 40
0.0
  9
$DIMDLE
 40
0.0
  9
$DIMEXE
 40
1.25
  9
$DIMTP
 40
0.0
  9
$DIMTM
 40
0.0
  9
$DIMTXT
 40
2.5
  9
$DIMCEN
 40
2.5
  9
$DIMTSZ
 40
0.0
  9
$DIMTOL
 70
0
  9
$DIMLIM
 70
0
  9
$DIMTIH
 70
0
  9
$DIMTOH
 70
0
  9
$DIMSE1
 70
0
  9
$DIMSE2
 70
0
  9
$DIMTAD
 70
1
  9
$DIMZIN
 70
8
  9
$DIMBLK
  1

  9
$DIMASO
 70
1
  9
$DIMSHO
 70
1
  9
$DIMPOST
  1

  9
$DIMAPOST
  1

  9
$DIMALT
 70
0
  9
$DIMALTD
 70
3
  9
$DIMALTF
 40
0.03937007874
  9
$DIMLFAC
 40
1.0
  9
$DIMTOFL
 70
1
  9
$DIMTVP
 40
0.0
  9
$DIMTIX
 70
0
  9
$DIMSOXD
 70
0
  9
$DIMSAH
 70
0
  9
$DIMBLK1
  1

  9
$DIMBLK2
  1

  9
$DIMSTYLE
  2
ISO-25
  9
$DIMCLRD
 70
0
  9
$DIMCLRE
 70
0
  9
$DIMCLRT
 70
0
  9
$DIMTFAC
 40
1.0
  9
$DIMGAP
 40
0.625
  9
$DIMJUST
 70
0
  9
$DIMSD1
 70
0
  9
$DIMSD2
 70
0
  9
$DIMTOLJ
 70
0
  9
$DIMTZIN
 70
8
  9
$DIMALTZ
 70
0
  9
$DIMALTTZ
 70
0
  9
$DIMUPT
 70
0
  9
$DIMDEC
 70
2
  9
$DIMTDEC
 70
2
  9
$DIMALTU
 70
2
  9
$DIMALTTD
 70
3
  9
$DIMTXSTY
  7
Standard
  9
$DIMAUNIT
 70
0
  9
$DIMADEC
 70
0
  9
$DIMALTRND
 40
0.0
  9
$DIMAZIN
 70
0
  9
$DIMDSEP
 70
44
  9
$DIMATFIT
 70
3
  9
$DIMFRAC
 70
0
  9
$DIMLDRBLK
  1

  9
$DIMLUNIT
 70
2
  9
$DIMLWD
 70
-2
  9
$DIMLWE
 70
-2
  9
$DIMTMOVE
 70
0
  9
$DIMFXL
 40
1.0
  9
$DIMFXLON
 70
0
  9
$DIMJOGANG
 40
0.785398163397
  9
$DIMTFILL
 70
0
  9
$DIMTFILLCLR
 70
0
  9
$DIMARCSYM
 70
0
  9
$DIMLTYPE
  6

  9
$DIMLTEX1
  6

  9
$DIMLTEX2
  6

  9
$DIMTXTDIRECTION
 70
0
  9
$LUNITS
 70
2
  9
$LUPREC
 70
4
  9
$SKETCHINC
 40
1.0
  9
$FILLETRAD
 40
10.0
  9
$AUNITS
 70
0
  9
$AUPREC
 70
2
  9
$MENU
  1
.
  9
$ELEVATION
 40
0.0
  9
$PELEVATION
 40
0.0
  9
$THICKNESS
 40
0.0
  9
$LIMCHECK
 70
0
  9
$CHAMFERA
 40
0.0
  9
$CHAMFERB
 40
0.0
  9
$CHAMFERC
 40
0.0
  9
$CHAMFERD
 40
0.0
  9
$SKPOLY
 70
0
  9
$TDCREATE
 40
2460888.4266203702
  9
$TDUCREATE
 40
2458532.153996898
  9
$TDUPDATE
 40
2460888.4266203702
  9
$TDUUPDATE
 40
2458532.1544311
  9
$TDINDWG
 40
0.0
  9
$TDUSRTIMER
 40
0.0
  9
$USRTIMER
 70
1
  9
$ANGBASE
 50
0.0
  9
$ANGDIR
 70
0
  9
$PDMODE
 70
0
  9
$PDSIZE
 40
0.0
  9
$PLINEWID
 40
0.0
  9
$SPLFRAME
 70
0
  9
$SPLINETYPE
 70
6
  9
$SPLINESEGS
 70
8
  9
$HANDSEED
  5
443
  9
$SURFTAB1
 70
6
  9
$SURFTAB2
 70
6
  9
$SURFTYPE
 70
6
  9
$SURFU
 70
6
  9
$SURFV
 70
6
  9
$UCSBASE
  2

  9
$UCSNAME
  2

  9
$UCSORG
 10
0.0
 20
0.0
 30
0.0
  9
$UCSXDIR
 10
1.0
 20
0.0
 30
0.0
  9
$UCSYDIR
 10
0.0
 20
1.0
 30
0.0
  9
$UCSORTHOREF
  2

  9
$UCSORTHOVIEW
 70
0
  9
$UCSORGTOP
 10
0.0
 20
0.0
 30
0.0
  9
$UCSORGBOTTOM
 10
0.0
 20
0.0
 30
0.0
  9
$UCSORGLEFT
 10
0.0
 20
0.0
 30
0.0
  9
$UCSORGRIGHT
 10
0.0
 20
0.0
 30
0.0
  9
$UCSORGFRONT
 10
0.0
 20
0.0
 30
0.0
  9
$UCSORGBACK
 10
0.0
 20
0.0
 30
0.0
  9
$PUCSBASE
  2

  9
$PUCSNAME
  2

  9
$PUCSORG
 10
0.0
 20
0.0
 30
0.0
  9
$PUCSXDIR
 10
1.0
 20
0.0
 30
0.0
  9
$PUCSYDIR
 10
0.0
 20
1.0
 30
0.0
  9
$PUCSORTHOREF
  2

  9
$PUCSORTHOVIEW
 70
0
  9
$PUCSORGTOP
 10
0.0
 20
0.0
 30
0.0
  9
$PUCSORGBOTTOM
 10
0.0
 20
0.0
 30
0.0
  9
$PUCSORGLEFT
 10
0.0
 20
0.0
 30
0.0
  9
$PUCSORGRIGHT
 10
0.0
 20
0.0
 30
0.0
  9
$PUCSORGFRONT
 10
0.0
 20
0.0
 30
0.0
  9
$PUCSORGBACK
 10
0.0
 20
0.0
 30
0.0
  9
$USERI1
 70
0
  9
$USERI2
 70
0
  9
$USERI3
 70
0
  9
$USERI4
 70
0
  9
$USERI5
 70
0
  9
$USERR1
 40
0.0
  9
$USERR2
 40
0.0
  9
$USERR3
 40
0.0
  9
$USERR4
 40
0.0
  9
$USERR5
 40
0.0
  9
$WORLDVIEW
 70
1
  9
$SHADEDGE
 70
3
  9
$SHADEDIF
 70
70
  9
$TILEMODE
 70
1
  9
$MAXACTVP
 70
64
  9
$PINSBASE
 10
0.0
 20
0.0
 30
0.0
  9
$PLIMCHECK
 70
0
  9
$PEXTMIN
 10
1e+20
 20
1e+20
 30
1e+20
  9
$PEXTMAX
 10
-1e+20
 20
-1e+20
 30
-1e+20
  9
$PLIMMIN
 10
0.0
 20
0.0
  9
$PLIMMAX
 10
420.0
 20
297.0
  9
$UNITMODE
 70
0
  9
$VISRETAIN
 70
1
  9
$PLINEGEN
 70
0
  9
$PSLTSCALE
 70
1
  9
$TREEDEPTH
 70
3020
  9
$CMLSTYLE
  2
Standard
  9
$CMLJUST
 70
0
  9
$CMLSCALE
 40
20.0
  9
$PROXYGRAPHICS
 70
1
  9
$MEASUREMENT
 70
1
  9
$CELWEIGHT
370
-1
  9
$ENDCAPS
280
0
  9
$JOINSTYLE
280
0
  9
$LWDISPLAY
290
0
  9
$INSUNITS
 70
6
  9
$HYPERLINKBASE
  1

  9
$STYLESHEET
  1

  9
$XEDIT
290
1
  9
$CEPSNTYPE
380
0
  9
$PSTYLEMODE
290
1
  9
$FINGERPRINTGUID
  2
{838AC4C4-2CB6-4369-A811-82923FF9D4E1}
  9
$VERSIONGUID
  2
{CA28494F-B1E9-4537-BC4C-361DB86A3DB8}
  9
$EXTNAMES
290
1
  9
$PSVPSCALE
 40
0.0
  9
$OLESTARTUP
290
0
  9
$SORTENTS
280
127
  9
$INDEXCTL
280
0
  9
$HIDETEXT
280
1
  9
$XCLIPFRAME
280
1
  9
$HALOGAP
280
0
  9
$OBSCOLOR
 70
257
  9
$OBSLTYPE
280
0
  9
$INTERSECTIONDISPLAY
280
0
  9
$INTERSECTIONCOLOR
 70
257
  9
$DIMASSOC
280
2
  9
$PROJECTNAME
  1

  9
$CAMERADISPLAY
290
0
  9
$LENSLENGTH
 40
50.0
  9
$CAMERAHEIGHT
 40
0.0
  9
$STEPSPERSEC
 40
24.0
  9
$STEPSIZE
 40
100.0
  9
$3DDWFPREC
 40
2.0
  9
$PSOLWIDTH
 40
0.005
  9
$PSOLHEIGHT
 40
0.08
  9
$LOFTANG1
 40
1.570796326795
  9
$LOFTANG2
 40
1.570796326795
  9
$LOFTMAG1
 40
0.0
  9
$LOFTMAG2
 40
0.0
  9
$LOFTPARAM
 70
7
  9
$LOFTNORMALS
280
1
  9
$LATITUDE
 40
37.795
  9
$LONGITUDE
 40
-122.394
  9
$NORTHDIRECTION
 40
0.0
  9
$TIMEZONE
 70
-8000
  9
$LIGHTGLYPHDISPLAY
280
1
  9
$TILEMODELIGHTSYNCH
280
1
  9
$CMATERIAL
347
20
  9
$SOLIDHIST
280
0
  9
$SHOWHIST
280
1
  9
$DWFFRAME
280
2
  9
$DGNFRAME
280
2
  9
$REALWORLDSCALE
290
1
  9
$INTERFERECOLOR
 62
256
  9
$CSHADOW
280
0
  9
$SHADOWPLANELOCATION
 40
0.0
  0
ENDSEC
  0
SECTION
  2
CLASSES
  0
CLASS
  1
ACDBDICTIONARYWDFLT
  2
AcDbDictionaryWithDefault
  3
ObjectDBX Classes
 90
0
 91
0
280
0
281
0
  0
CLASS
  1
SUN
  2
AcDbSun
  3
SCENEOE
 90
1153
 91
0
280
0
281
0
  0
CLASS
  1
VISUALSTYLE
  2
AcDbVisualStyle
  3
ObjectDBX Classes
 90
4095
 91
0
280
0
281
0
  0
CLASS
  1
MATERIAL
  2
AcDbMaterial
  3
ObjectDBX Classes
 90
1153
 91
0
280
0
281
0
  0
CLASS
  1
SCALE
  2
AcDbScale
  3
ObjectDBX Classes
 90
1153
 91
0
280
0
281
0
  0
CLASS
  1
TABLESTYLE
  2
AcDbTableStyle
  3
ObjectDBX Classes
 90
4095
 91
0
280
0
281
0
  0
CLASS
  1
MLEADERSTYLE
  2
AcDbMLeaderStyle
  3
ACDB_MLEADERSTYLE_CLASS
 90
4095
 91
0
280
0
281
0
  0
CLASS
  1
DICTIONARYVAR
  2
AcDbDictionaryVar
  3
ObjectDBX Classes
 90
0
 91
0
280
0
281
0
  0
CLASS
  1
CELLSTYLEMAP
  2
AcDbCellStyleMap
  3
ObjectDBX Classes
 90
1152
 91
0
280
0
281
0
  0
CLASS
  1
MENTALRAYRENDERSETTINGS
  2
AcDbMentalRayRenderSettings
  3
SCENEOE
 90
1024
 91
0
280
0
281
0
  0
CLASS
  1
ACDBDETAILVIEWSTYLE
  2
AcDbDetailViewStyle
  3
ObjectDBX Classes
 90
1025
 91
0
280
0
281
0
  0
CLASS
  1
ACDBSECTIONVIEWSTYLE
  2
AcDbSectionViewStyle
  3
ObjectDBX Classes
 90
1025
 91
0
280
0
281
0
  0
CLASS
  1
RASTERVARIABLES
  2
AcDbRasterVariables
  3
ISM
 90
0
 91
0
280
0
281
0
  0
CLASS
  1
LAYOUT
  2
AcDbLayout
  3
ObjectDBX Classes
 90
0
 91
0
280
0
281
0
  0
CLASS
  1
ACDBPLACEHOLDER
  2
AcDbPlaceHolder
  3
ObjectDBX Classes
 90
0
 91
0
280
0
281
0
  0
ENDSEC
  0
SECTION
  2
TABLES
  0
TABLE
  2
VPORT
  5
8
330
0
100
AcDbSymbolTable
 70
1
  0
VPORT
  5
23
330
8
100
AcDbSymbolTableRecord
100
AcDbViewportTableRecord
  2
*Active
 70
0
 10
0.0
 20
0.0
 11
1.0
 21
1.0
 12
0.0
 22
0.0
 13
0.0
 23
0.0
 14
0.5
 24
0.5
 15
0.5
 25
0.5
 16
0.0
 26
0.0
 36
1.0
 17
0.0
 27
0.0
 37
0.0
 40
1000.0
 41
1.34
 42
50.0
 43
0.0
 44
0.0
 50
0.0
 51
0.0
 71
0
 72
1000
 73
1
 74
3
 75
0
 76
0
 77
0
 78
0
281
0
 65
0
146
0.0
  0
ENDTAB
  0
TABLE
  2
LTYPE
  5
2
330
0
100
AcDbSymbolTable
 70
3
  0
LTYPE
  5
24
330
2
100
AcDbSymbolTableRecord
100
AcDbLinetypeTableRecord
  2
ByBlock
 70
0
  3

 72
65
 73
0
 40
0.0
  0
LTYPE
  5
25
330
2
100
AcDbSymbolTableRecord
100
AcDbLinetypeTableRecord
  2
ByLayer
 70
0
  3

 72
65
 73
0
 40
0.0
  0
LTYPE
  5
26
330
2
100
AcDbSymbolTableRecord
100
AcDbLinetypeTableRecord
  2
Continuous
 70
0
  3

 72
65
 73
0
 40
0.0
  0
ENDTAB
  0
TABLE
  2
LAYER
  5
1
330
0
100
AcDbSymbolTable
 70
2
  0
LAYER
  5
27
330
1
100
AcDbSymbolTableRecord
100
AcDbLayerTableRecord
  2
0
 70
0
 62
7
  6
Continuous
370
-3
390
13
347
21
  0
LAYER
  5
28
330
1
100
AcDbSymbolTableRecord
100
AcDbLayerTableRecord
  2
Defpoints
 70
0
 62
7
  6
Continuous
290
0
370
-3
390
13
347
21
  0
ENDTAB
  0
TABLE
  2
STYLE
  5
5
330
0
100
AcDbSymbolTable
 70
1
  0
STYLE
  5
29
330
5
100
AcDbSymbolTableRecord
100
AcDbTextStyleTableRecord
  2
Standard
 70
0
 40
0.0
 41
1.0
 50
0.0
 71
0
 42
2.5
  3
txt
  4

  0
ENDTAB
  0
TABLE
  2
VIEW
  5
7
330
0
100
AcDbSymbolTable
 70
0
  0
ENDTAB
  0
TABLE
  2
UCS
  5
6
330
0
100
AcDbSymbolTable
 70
0
  0
ENDTAB
  0
TABLE
  2
APPID
  5
3
330
0
100
AcDbSymbolTable
 70
3
  0
APPID
  5
2A
330
3
100
AcDbSymbolTableRecord
100
AcDbRegAppTableRecord
  2
ACAD
 70
0
  0
APPID
  5
440
330
3
100
AcDbSymbolTableRecord
100
AcDbRegAppTableRecord
  2
HATCHBACKGROUNDCOLOR
 70
0
  0
APPID
  5
441
330
3
100
AcDbSymbolTableRecord
100
AcDbRegAppTableRecord
  2
EZDXF
 70
0
  0
ENDTAB
  0
TABLE
  2
DIMSTYLE
  5
4
330
0
100
AcDbSymbolTable
 70
1
100
AcDbDimStyleTable
  0
DIMSTYLE
105
2B
330
4
100
AcDbSymbolTableRecord
100
AcDbDimStyleTableRecord
  2
Standard
 70
0
 40
1.0
 41
2.5
 42
0.625
 43
3.75
 44
1.25
 45
0.0
 46
0.0
 47
0.0
 48
0.0
 49
2.5
140
2.5
141
2.5
142
0.0
143
0.03937007874
144
1.0
145
0.0
146
1.0
147
0.625
148
0.0
 69
0
 70
0
 71
0
 72
0
 73
0
 74
0
 75
0
 76
0
 77
1
 78
8
 79
3
170
0
171
3
172
1
173
0
174
0
175
0
176
0
177
0
178
0
179
2
271
2
272
2
273
2
274
3
275
0
276
0
277
2
278
44
279
0
280
0
281
0
282
0
283
0
284
8
285
0
286
0
288
0
289
3
290
0
371
-2
372
-2
  0
ENDTAB
  0
TABLE
  2
BLOCK_RECORD
  5
9
330
0
100
AcDbSymbolTable
 70
2
  0
BLOCK_RECORD
  5
17
330
9
100
AcDbSymbolTableRecord
100
AcDbBlockTableRecord
  2
*Model_Space
340
1A
 70
0
280
1
281
0
  0
BLOCK_RECORD
  5
1B
330
9
100
AcDbSymbolTableRecord
100
AcDbBlockTableRecord
  2
*Paper_Space
340
1E
 70
0
280
1
281
0
  0
ENDTAB
  0
ENDSEC
  0
SECTION
  2
BLOCKS
  0
BLOCK
  5
18
330
17
100
AcDbEntity
  8
0
100
AcDbBlockBegin
  2
*Model_Space
 70
0
 10
0.0
 20
0.0
 30
0.0
  3
*Model_Space
  1

  0
ENDBLK
  5
19
330
17
100
AcDbEntity
  8
0
100
AcDbBlockEnd
  0
BLOCK
  5
1C
330
1B
100
AcDbEntity
  8
0
100
AcDbBlockBegin
  2
*Paper_Space
 70
0
 10
0.0
 20
0.0
 30
0.0
  3
*Paper_Space
  1

  0
ENDBLK
  5
1D
330
1B
100
AcDbEntity
  8
0
100
AcDbBlockEnd
  0
ENDSEC
  0
SECTION
  2
ENTITIES
  0
LWPOLYLINE
  5
2F
330
17
100
AcDbEntity
  8
0
100
AcDbPolyline
 90
2
 70
1
 10
2.2438869116780444
 20
0.4381776582029362
 10
1.287670583464473
 20
0.5686848073897978
  0
LWPOLYLINE
  5
30
330
17
100
AcDbEntity
  8
0
100
AcDbPolyline
 90
2
 70
1
 10
2.2438869116780444
 20
0.4381776582029362
 10
1.287670583464473
 20
0.5686848073897978
  0
LWPOLYLINE
  5
31
330
17
100
AcDbEntity
  8
0
100
AcDbPolyline
 90
2
 70
1
 10
0.6138751672869969
 20
1.1961093333321986
 10
0.5439063066089529
 20
1.392276283739057
  0
LWPOLYLINE
  5
32
330
17
100
AcDbEntity
  8
0
100
AcDbPolyline
 90
2
 70
1
 10
0.4415630917889509
 20
2.217992790300152
 10
0.4654842190033158
 20
3.185772034603438
  0
LWPOLYLINE
  5
33
330
17
100
AcDbEntity
  8
0
100
AcDbPolyline
 90
2
 70
1
 10
0.48642676070710605
 20
4.0166404641220534
 10
0.5108456686682521
 20
4.98542925753604
  0
LWPOLYLINE
  5
34
330
17
100
AcDbEntity
  8
0
100
AcDbPolyline
 90
2
 70
1
 10
0.5317878657126001
 20
5.816284013134191
 10
0.5561849102769381
 20
6.784205404375757
  0
LWPOLYLINE
  5
35
330
17
100
AcDbEntity
  8
0
100
AcDbPolyline
 90
2
 70
1
 10
0.5771463879177324
 20
7.615825092861057
 10
0.5604175199063531
 20
8.583639296649574
  0
LWPOLYLINE
  5
36
330
17
100
AcDbEntity
  8
0
100
AcDbPolyline
 90
2
 70
1
 10
0.5349618166453433
 20
9.414991191027452
 10
0.5053253768160325
 20
10.382880788972745
  0
LWPOLYLINE
  5
37
330
17
100
AcDbEntity
  8
0
100
AcDbPolyline
 90
2
 70
1
 10
0.4798638345145423
 20
11.214423379216102
 10
0.45023284467522157
 20
12.182134987205426
  0
LWPOLYLINE
  5
38
330
17
100
AcDbEntity
  8
0
100
AcDbPolyline
 90
2
 70
1
 10
0.44821989363585024
 20
13.01361311854053
 10
0.6058577864371376
 20
13.963549330945307
  0
LWPOLYLINE
  5
39
330
17
100
AcDbEntity
  8
0
100
AcDbPolyline
 90
2
 70
1
 10
1.1447642832544407
 20
14.559103996645662
 10
2.087472549179092
 20
14.74299342782284
  0
LWPOLYLINE
  5
3A
330
17
100
AcDbEntity
  8
0
100
AcDbPolyline
 90
2
 70
1
 10
2.9190968139111404
 20
14.73021492223171
 10
3.886275098150702
 20
14.696587062196404
  0
LWPOLYLINE
  5
3B
330
17
100
AcDbEntity
  8
0
100
AcDbPolyline
 90
2
 70
1
 10
4.717187444765237
 20
14.667697037938332
 10
5.684896693849343
 20
14.634050716765337
  0
LWPOLYLINE
  5
3C
330
17
100
AcDbEntity
  8
0
100
AcDbPolyline
 90
2
 70
1
 10
6.51672886528851
 20
14.625933613780427
 10
7.484910058610161
 20
14.627332134088693
  0
LWPOLYLINE
  5
3D
330
17
100
AcDbEntity
  8
0
100
AcDbPolyline
 90
2
 70
1
 10
8.316526868683372
 20
14.628533389603264
 10
9.285005638263117
 20
14.629932339755078
  0
LWPOLYLINE
  5
3E
330
17
100
AcDbEntity
  8
0
100
AcDbPolyline
 90
2
 70
1
 10
10.11675900781325
 20
14.631133792527354
 10
11.085101217916069
 20
14.632532545421462
  0
LWPOLYLINE
  5
3F
330
17
100
AcDbEntity
  8
0
100
AcDbPolyline
 90
2
 70
1
 10
11.916854587466208
 20
14.63373399819374
 10
12.885196797569025
 20
14.635132751087847
  0
LWPOLYLINE
  5
40
330
17
100
AcDbEntity
  8
0
100
AcDbPolyline
 90
2
 70
1
 10
13.716950167119164
 20
14.636334203860125
 10
14.626220045838389
 20
14.57857589306353
  0
LWPOLYLINE
  5
41
330
17
100
AcDbEntity
  8
0
100
AcDbPolyline
 90
2
 70
1
 10
14.626210793001011
 20
13.7470038592167
 10
14.626200020914414
 20
12.778893689785106
  0
LWPOLYLINE
  5
42
330
17
100
AcDbEntity
  8
0
100
AcDbPolyline
 90
2
 70
1
 10
14.626190761994948
 20
11.946775045768815
 10
14.62617998990835
 20
10.978664876337225
  0
LWPOLYLINE
  5
43
330
17
100
AcDbEntity
  8
0
100
AcDbPolyline
 90
2
 70
1
 10
14.626170737988545
 20
10.147175306636415
 10
14.626159968331882
 20
9.179283520516414
  0
LWPOLYLINE
  5
44
330
17
100
AcDbEntity
  8
0
100
AcDbPolyline
 90
2
 70
1
 10
14.626150707243609
 20
8.346969961245899
 10
14.626139938787404
 20
7.379186063000731
  0
LWPOLYLINE
  5
45
330
17
100
AcDbEntity
  8
0
100
AcDbPolyline
 90
2
 70
1
 10
14.626130680009382
 20
6.547080130848845
 10
14.634058240265455
 20
5.579188182736067
  0
LWPOLYLINE
  5
46
330
17
100
AcDbEntity
  8
0
100
AcDbPolyline
 90
2
 70
1
 10
14.663365309473681
 20
4.747637119944703
 10
14.697462878108027
 20
3.7801616881626825
  0
LWPOLYLINE
  5
47
330
17
100
AcDbEntity
  8
0
100
AcDbPolyline
 90
2
 70
1
 10
14.726768327024034
 20
2.948656599115995
 10
14.714332302626232
 20
1.9830578818124704
  0
LWPOLYLINE
  5
48
330
17
100
AcDbEntity
  8
0
100
AcDbPolyline
 90
3
 70
1
 10
14.569014897438626
 20
1.1688671309325205
 10
14.375061314900211
 20
0.8555081805499843
 10
13.861874259887285
 20
0.5658710303899257
  0
LWPOLYLINE
  5
49
330
17
100
AcDbEntity
  8
0
100
AcDbPolyline
 90
2
 70
1
 10
13.03945440144171
 20
0.4475855494753747
 10
13.014504914619856
 20
0.4474222971224316
  0
LWPOLYLINE
  5
4A
330
17
100
AcDbEntity
  8
0
100
AcDbPolyline
 90
2
 70
1
 10
13.014504914619856
 20
0.4474222971224316
 10
12.985101602679547
 20
0.4481273858086079
  0
LWPOLYLINE
  5
4B
330
17
100
AcDbEntity
  8
0
100
AcDbPolyline
 90
2
 70
1
 10
12.985101602679547
 20
0.4481273858086079
 10
12.071822441734751
 20
0.46719165340961005
  0
LWPOLYLINE
  5
4C
330
17
100
AcDbEntity
  8
0
100
AcDbPolyline
 90
2
 70
1
 10
11.240938895399271
 20
0.4871161635886187
 10
10.272111003188487
 20
0.5103485663545619
  0
LWPOLYLINE
  5
4D
330
17
100
AcDbEntity
  8
0
100
AcDbPolyline
 90
2
 70
1
 10
9.441231217656938
 20
0.530272986349842
 10
8.473293375489087
 20
0.5534840457985198
  0
LWPOLYLINE
  5
4E
330
17
100
AcDbEntity
  8
0
100
AcDbPolyline
 90
2
 70
1
 10
7.641519779110674
 20
0.573429899294794
 10
6.673798321453665
 20
0.5661173786466648
  0
LWPOLYLINE
  5
4F
330
17
100
AcDbEntity
  8
0
100
AcDbPolyline
 90
2
 70
1
 10
5.842646956854089
 20
0.5398129404145655
 10
4.874627094264513
 20
0.5091768616358223
  0
LWPOLYLINE
  5
50
330
17
100
AcDbEntity
  8
0
100
AcDbPolyline
 90
2
 70
1
 10
4.043106656338172
 20
0.4828607429000983
 10
3.0754304560692964
 20
0.4522355404125729
  0
LINE
  5
51
330
17
100
AcDbEntity
  8
0
100
AcDbLine
 10
0.5928489565849304
 20
1.254
 30
0.0
 11
0.5928489565849304
 21
1.2720180180180176
 31
0.0
  0
LINE
  5
52
330
17
100
AcDbEntity
  8
0
100
AcDbLine
 10
0.5928489565849304
 20
1.254
 30
0.0
 11
0.5928489565849304
 21
1.2720180180180176
 31
0.0
  0
LINE
  5
53
330
17
100
AcDbEntity
  8
0
100
AcDbLine
 10
0.5928489565849304
 20
1.5949159159159176
 30
0.0
 11
0.5928489565849304
 21
2.2027237237237296
 31
0.0
  0
LINE
  5
54
330
17
100
AcDbEntity
  8
0
100
AcDbLine
 10
0.5928489565849304
 20
2.2027237237237296
 30
0.0
 11
0.5928489565849304
 21
2.5629999999999984
 31
0.0
  0
LINE
  5
55
330
17
100
AcDbEntity
  8
0
100
AcDbLine
 10
0.5928489565849304
 20
3.395000000000002
 30
0.0
 11
0.5928489565849304
 21
4.003000000000005
 31
0.0
  0
LINE
  5
56
330
17
100
AcDbEntity
  8
0
100
AcDbLine
 10
0.5928489565849304
 20
4.003000000000005
 30
0.0
 11
0.5928489565849304
 21
4.362999999999999
 31
0.0
  0
LINE
  5
57
330
17
100
AcDbEntity
  8
0
100
AcDbLine
 10
0.5928489565849304
 20
5.195000000000002
 30
0.0
 11
0.5928489565849304
 21
5.803000000000006
 31
0.0
  0
LINE
  5
58
330
17
100
AcDbEntity
  8
0
100
AcDbLine
 10
0.5928489565849304
 20
5.803000000000006
 30
0.0
 11
0.5928489565849304
 21
6.1629999999999985
 31
0.0
  0
LINE
  5
59
330
17
100
AcDbEntity
  8
0
100
AcDbLine
 10
0.5928489565849304
 20
6.995000000000002
 30
0.0
 11
0.5928489565849304
 21
7.603000000000006
 31
0.0
  0
LINE
  5
5A
330
17
100
AcDbEntity
  8
0
100
AcDbLine
 10
0.5928489565849304
 20
7.603000000000006
 30
0.0
 11
0.5928489565849304
 21
7.962999999999999
 31
0.0
  0
LINE
  5
5B
330
17
100
AcDbEntity
  8
0
100
AcDbLine
 10
0.5928489565849304
 20
8.795000000000002
 30
0.0
 11
0.5928489565849304
 21
9.403000000000006
 31
0.0
  0
LINE
  5
5C
330
17
100
AcDbEntity
  8
0
100
AcDbLine
 10
0.5928489565849304
 20
9.403000000000006
 30
0.0
 11
0.5928489565849304
 21
9.762999999999998
 31
0.0
  0
LINE
  5
5D
330
17
100
AcDbEntity
  8
0
100
AcDbLine
 10
0.5928489565849304
 20
10.595000000000002
 30
0.0
 11
0.5928489565849304
 21
11.203000000000007
 31
0.0
  0
LINE
  5
5E
330
17
100
AcDbEntity
  8
0
100
AcDbLine
 10
0.5928489565849304
 20
11.203000000000007
 30
0.0
 11
0.5928489565849304
 21
11.562999999999999
 31
0.0
  0
LINE
  5
5F
330
17
100
AcDbEntity
  8
0
100
AcDbLine
 10
0.5928489565849304
 20
12.395000000000003
 30
0.0
 11
0.5928489565849304
 21
12.754999999999995
 31
0.0
  0
LINE
  5
60
330
17
100
AcDbEntity
  8
0
100
AcDbLine
 10
0.5928489565849304
 20
12.754999999999995
 30
0.0
 11
0.5928489565849304
 21
13.362999999999998
 31
0.0
  0
LINE
  5
61
330
17
100
AcDbEntity
  8
0
100
AcDbLine
 10
1.0928489565849304
 20
1.1343200000000033
 30
0.0
 11
1.0928489565849304
 21
1.3699999999999983
 31
0.0
  0
LINE
  5
62
330
17
100
AcDbEntity
  8
0
100
AcDbLine
 10
1.0928489565849304
 20
1.1343200000000033
 30
0.0
 11
1.0928489565849304
 21
1.3699999999999983
 31
0.0
  0
LINE
  5
63
330
17
100
AcDbEntity
  8
0
100
AcDbLine
 10
1.0928489565849304
 20
1.3699999999999983
 30
0.0
 11
1.0928489565849304
 21
1.3707599999999982
 31
0.0
  0
LINE
  5
64
330
17
100
AcDbEntity
  8
0
100
AcDbLine
 10
1.0928489565849304
 20
2.2020000000000017
 30
0.0
 11
1.0928489565849304
 21
2.810000000000006
 31
0.0
  0
LINE
  5
65
330
17
100
AcDbEntity
  8
0
100
AcDbLine
 10
1.0928489565849304
 20
2.810000000000006
 30
0.0
 11
1.0928489565849304
 21
3.169999999999998
 31
0.0
  0
LINE
  5
66
330
17
100
AcDbEntity
  8
0
100
AcDbLine
 10
1.0928489565849304
 20
3.169999999999998
 30
0.0
 11
1.0928489565849304
 21
3.1707599999999982
 31
0.0
  0
LINE
  5
67
330
17
100
AcDbEntity
  8
0
100
AcDbLine
 10
1.0928489565849304
 20
4.0020000000000024
 30
0.0
 11
1.0928489565849304
 21
4.361999999999994
 31
0.0
  0
LINE
  5
68
330
17
100
AcDbEntity
  8
0
100
AcDbLine
 10
1.0928489565849304
 20
4.361999999999994
 30
0.0
 11
1.0928489565849304
 21
4.969999999999998
 31
0.0
  0
LINE
  5
69
330
17
100
AcDbEntity
  8
0
100
AcDbLine
 10
1.0928489565849304
 20
4.969999999999998
 30
0.0
 11
1.0928489565849304
 21
4.9707599999999985
 31
0.0
  0
LINE
  5
6A
330
17
100
AcDbEntity
  8
0
100
AcDbLine
 10
1.0928489565849304
 20
5.802000000000002
 30
0.0
 11
1.0928489565849304
 21
6.4100000000000055
 31
0.0
  0
LINE
  5
6B
330
17
100
AcDbEntity
  8
0
100
AcDbLine
 10
1.0928489565849304
 20
6.4100000000000055
 30
0.0
 11
1.0928489565849304
 21
6.769999999999998
 31
0.0
  0
LINE
  5
6C
330
17
100
AcDbEntity
  8
0
100
AcDbLine
 10
1.0928489565849304
 20
6.769999999999998
 30
0.0
 11
1.0928489565849304
 21
6.770759999999998
 31
0.0
  0
LINE
  5
6D
330
17
100
AcDbEntity
  8
0
100
AcDbLine
 10
1.0928489565849304
 20
7.602000000000002
 30
0.0
 11
1.0928489565849304
 21
7.961999999999994
 31
0.0
  0
LINE
  5
6E
330
17
100
AcDbEntity
  8
0
100
AcDbLine
 10
1.0928489565849304
 20
7.961999999999994
 30
0.0
 11
1.0928489565849304
 21
8.569999999999999
 31
0.0
  0
LINE
  5
6F
330
17
100
AcDbEntity
  8
0
100
AcDbLine
 10
1.0928489565849304
 20
8.569999999999999
 30
0.0
 11
1.0928489565849304
 21
8.570759999999998
 31
0.0
  0
LINE
  5
70
330
17
100
AcDbEntity
  8
0
100
AcDbLine
 10
1.0928489565849304
 20
9.402000000000003
 30
0.0
 11
1.0928489565849304
 21
10.010000000000005
 31
0.0
  0
LINE
  5
71
330
17
100
AcDbEntity
  8
0
100
AcDbLine
 10
1.0928489565849304
 20
10.010000000000005
 30
0.0
 11
1.0928489565849304
 21
10.369999999999997
 31
0.0
  0
LINE
  5
72
330
17
100
AcDbEntity
  8
0
100
AcDbLine
 10
1.0928489565849304
 20
10.369999999999997
 30
0.0
 11
1.0928489565849304
 21
10.370759999999999
 31
0.0
  0
LINE
  5
73
330
17
100
AcDbEntity
  8
0
100
AcDbLine
 10
1.0928489565849304
 20
11.202000000000002
 30
0.0
 11
1.0928489565849304
 21
11.810000000000006
 31
0.0
  0
LINE
  5
74
330
17
100
AcDbEntity
  8
0
100
AcDbLine
 10
1.0928489565849304
 20
11.810000000000006
 30
0.0
 11
1.0928489565849304
 21
12.169999999999998
 31
0.0
  0
LINE
  5
75
330
17
100
AcDbEntity
  8
0
100
AcDbLine
 10
1.0928489565849304
 20
12.169999999999998
 30
0.0
 11
1.0928489565849304
 21
12.170759999999998
 31
0.0
  0
LINE
  5
76
330
17
100
AcDbEntity
  8
0
100
AcDbLine
 10
1.0928489565849304
 20
13.002000000000002
 30
0.0
 11
1.0928489565849304
 21
13.610000000000007
 31
0.0
  0
LINE
  5
77
330
17
100
AcDbEntity
  8
0
100
AcDbLine
 10
1.0928489565849304
 20
13.610000000000007
 30
0.0
 11
1.0928489565849304
 21
13.969999999999999
 31
0.0
  0
LINE
  5
78
330
17
100
AcDbEntity
  8
0
100
AcDbLine
 10
1.0928489565849304
 20
13.969999999999999
 30
0.0
 11
1.0928489565849304
 21
13.970759999999999
 31
0.0
  0
LINE
  5
79
330
17
100
AcDbEntity
  8
0
100
AcDbLine
 10
1.5928489565849304
 20
1.219160000000005
 30
0.0
 11
1.5928489565849304
 21
1.5289999999999981
 31
0.0
  0
LINE
  5
7A
330
17
100
AcDbEntity
  8
0
100
AcDbLine
 10
1.5928489565849304
 20
1.219160000000005
 30
0.0
 11
1.5928489565849304
 21
1.5289999999999981
 31
0.0
  0
LINE
  5
7B
330
17
100
AcDbEntity
  8
0
100
AcDbLine
 10
1.5928489565849304
 20
2.3610000000000015
 30
0.0
 11
1.5928489565849304
 21
2.969000000000006
 31
0.0
  0
LINE
  5
7C
330
17
100
AcDbEntity
  8
0
100
AcDbLine
 10
1.5928489565849304
 20
2.969000000000006
 30
0.0
 11
1.5928489565849304
 21
3.3289999999999984
 31
0.0
  0
LINE
  5
7D
330
17
100
AcDbEntity
  8
0
100
AcDbLine
 10
1.5928489565849304
 20
4.161000000000002
 30
0.0
 11
1.5928489565849304
 21
4.7690000000000055
 31
0.0
  0
LINE
  5
7E
330
17
100
AcDbEntity
  8
0
100
AcDbLine
 10
1.5928489565849304
 20
4.7690000000000055
 30
0.0
 11
1.5928489565849304
 21
5.128999999999999
 31
0.0
  0
LINE
  5
7F
330
17
100
AcDbEntity
  8
0
100
AcDbLine
 10
1.5928489565849304
 20
5.961000000000002
 30
0.0
 11
1.5928489565849304
 21
6.569000000000006
 31
0.0
  0
LINE
  5
80
330
17
100
AcDbEntity
  8
0
100
AcDbLine
 10
1.5928489565849304
 20
6.569000000000006
 30
0.0
 11
1.5928489565849304
 21
6.9289999999999985
 31
0.0
  0
LINE
  5
81
330
17
100
AcDbEntity
  8
0
100
AcDbLine
 10
1.5928489565849304
 20
7.761000000000002
 30
0.0
 11
1.5928489565849304
 21
8.369000000000005
 31
0.0
  0
LINE
  5
82
330
17
100
AcDbEntity
  8
0
100
AcDbLine
 10
1.5928489565849304
 20
8.369000000000005
 30
0.0
 11
1.5928489565849304
 21
8.728999999999997
 31
0.0
  0
LINE
  5
83
330
17
100
AcDbEntity
  8
0
100
AcDbLine
 10
1.5928489565849304
 20
9.561000000000002
 30
0.0
 11
1.5928489565849304
 21
10.169000000000006
 31
0.0
  0
LINE
  5
84
330
17
100
AcDbEntity
  8
0
100
AcDbLine
 10
1.5928489565849304
 20
10.169000000000006
 30
0.0
 11
1.5928489565849304
 21
10.528999999999998
 31
0.0
  0
LINE
  5
85
330
17
100
AcDbEntity
  8
0
100
AcDbLine
 10
1.5928489565849304
 20
11.361000000000002
 30
0.0
 11
1.5928489565849304
 21
11.969000000000007
 31
0.0
  0
LINE
  5
86
330
17
100
AcDbEntity
  8
0
100
AcDbLine
 10
1.5928489565849304
 20
11.969000000000007
 30
0.0
 11
1.5928489565849304
 21
12.328999999999999
 31
0.0
  0
LINE
  5
87
330
17
100
AcDbEntity
  8
0
100
AcDbLine
 10
1.5928489565849304
 20
13.161000000000003
 30
0.0
 11
1.5928489565849304
 21
13.520999999999995
 31
0.0
  0
LINE
  5
88
330
17
100
AcDbEntity
  8
0
100
AcDbLine
 10
1.5928489565849304
 20
13.520999999999995
 30
0.0
 11
1.5928489565849304
 21
14.128999999999998
 31
0.0
  0
LINE
  5
89
330
17
100
AcDbEntity
  8
0
100
AcDbLine
 10
2.0928489565849304
 20
1.2417200000000055
 30
0.0
 11
2.0928489565849304
 21
1.5769999999999982
 31
0.0
  0
LINE
  5
8A
330
17
100
AcDbEntity
  8
0
100
AcDbLine
 10
2.0928489565849304
 20
1.2417200000000055
 30
0.0
 11
2.0928489565849304
 21
1.5769999999999982
 31
0.0
  0
LINE
  5
8B
330
17
100
AcDbEntity
  8
0
100
AcDbLine
 10
2.0928489565849304
 20
1.5769999999999982
 30
0.0
 11
2.0928489565849304
 21
1.5777599999999983
 31
0.0
  0
LINE
  5
8C
330
17
100
AcDbEntity
  8
0
100
AcDbLine
 10
2.0928489565849304
 20
2.4090000000000016
 30
0.0
 11
2.0928489565849304
 21
3.017000000000006
 31
0.0
  0
LINE
  5
8D
330
17
100
AcDbEntity
  8
0
100
AcDbLine
 10
2.0928489565849304
 20
3.017000000000006
 30
0.0
 11
2.0928489565849304
 21
3.3769999999999984
 31
0.0
  0
LINE
  5
8E
330
17
100
AcDbEntity
  8
0
100
AcDbLine
 10
2.0928489565849304
 20
3.3769999999999984
 30
0.0
 11
2.0928489565849304
 21
3.377759999999998
 31
0.0
  0
LINE
  5
8F
330
17
100
AcDbEntity
  8
0
100
AcDbLine
 10
2.0928489565849304
 20
4.209000000000002
 30
0.0
 11
2.0928489565849304
 21
4.8170000000000055
 31
0.0
  0
LINE
  5
90
330
17
100
AcDbEntity
  8
0
100
AcDbLine
 10
2.0928489565849304
 20
4.8170000000000055
 30
0.0
 11
2.0928489565849304
 21
5.176999999999998
 31
0.0
  0
LINE
  5
91
330
17
100
AcDbEntity
  8
0
100
AcDbLine
 10
2.0928489565849304
 20
5.176999999999998
 30
0.0
 11
2.0928489565849304
 21
5.177759999999998
 31
0.0
  0
LINE
  5
92
330
17
100
AcDbEntity
  8
0
100
AcDbLine
 10
2.0928489565849304
 20
6.009000000000002
 30
0.0
 11
2.0928489565849304
 21
6.617000000000006
 31
0.0
  0
LINE
  5
93
330
17
100
AcDbEntity
  8
0
100
AcDbLine
 10
2.0928489565849304
 20
6.617000000000006
 30
0.0
 11
2.0928489565849304
 21
6.9769999999999985
 31
0.0
  0
LINE
  5
94
330
17
100
AcDbEntity
  8
0
100
AcDbLine
 10
2.0928489565849304
 20
6.9769999999999985
 30
0.0
 11
2.0928489565849304
 21
6.977759999999998
 31
0.0
  0
LINE
  5
95
330
17
100
AcDbEntity
  8
0
100
AcDbLine
 10
2.0928489565849304
 20
7.809000000000002
 30
0.0
 11
2.0928489565849304
 21
8.417000000000005
 31
0.0
  0
LINE
  5
96
330
17
100
AcDbEntity
  8
0
100
AcDbLine
 10
2.0928489565849304
 20
8.417000000000005
 30
0.0
 11
2.0928489565849304
 21
8.776999999999997
 31
0.0
  0
LINE
  5
97
330
17
100
AcDbEntity
  8
0
100
AcDbLine
 10
2.0928489565849304
 20
8.776999999999997
 30
0.0
 11
2.0928489565849304
 21
8.777759999999999
 31
0.0
  0
LINE
  5
98
330
17
100
AcDbEntity
  8
0
100
AcDbLine
 10
2.0928489565849304
 20
9.609000000000002
 30
0.0
 11
2.0928489565849304
 21
10.217000000000006
 31
0.0
  0
LINE
  5
99
330
17
100
AcDbEntity
  8
0
100
AcDbLine
 10
2.0928489565849304
 20
10.217000000000006
 30
0.0
 11
2.0928489565849304
 21
10.576999999999998
 31
0.0
  0
LINE
  5
9A
330
17
100
AcDbEntity
  8
0
100
AcDbLine
 10
2.0928489565849304
 20
10.576999999999998
 30
0.0
 11
2.0928489565849304
 21
10.577759999999998
 31
0.0
  0
LINE
  5
9B
330
17
100
AcDbEntity
  8
0
100
AcDbLine
 10
2.0928489565849304
 20
11.409000000000002
 30
0.0
 11
2.0928489565849304
 21
12.017000000000007
 31
0.0
  0
LINE
  5
9C
330
17
100
AcDbEntity
  8
0
100
AcDbLine
 10
2.0928489565849304
 20
12.017000000000007
 30
0.0
 11
2.0928489565849304
 21
12.376999999999999
 31
0.0
  0
LINE
  5
9D
330
17
100
AcDbEntity
  8
0
100
AcDbLine
 10
2.0928489565849304
 20
12.376999999999999
 30
0.0
 11
2.0928489565849304
 21
12.377759999999999
 31
0.0
  0
LINE
  5
9E
330
17
100
AcDbEntity
  8
0
100
AcDbLine
 10
2.0928489565849304
 20
13.209000000000003
 30
0.0
 11
2.0928489565849304
 21
13.568999999999996
 31
0.0
  0
LINE
  5
9F
330
17
100
AcDbEntity
  8
0
100
AcDbLine
 10
2.0928489565849304
 20
13.568999999999996
 30
0.0
 11
2.0928489565849304
 21
14.176999999999998
 31
0.0
  0
LINE
  5
A0
330
17
100
AcDbEntity
  8
0
100
AcDbLine
 10
2.0928489565849304
 20
14.176999999999998
 30
0.0
 11
2.0928489565849304
 21
14.177759999999997
 31
0.0
  0
LINE
  5
A1
330
17
100
AcDbEntity
  8
0
100
AcDbLine
 10
2.5928489565849304
 20
1.2388000000000055
 30
0.0
 11
2.5928489565849304
 21
1.5759999999999983
 31
0.0
  0
LINE
  5
A2
330
17
100
AcDbEntity
  8
0
100
AcDbLine
 10
2.5928489565849304
 20
1.2388000000000055
 30
0.0
 11
2.5928489565849304
 21
1.5759999999999983
 31
0.0
  0
LINE
  5
A3
330
17
100
AcDbEntity
  8
0
100
AcDbLine
 10
2.5928489565849304
 20
2.407000000000002
 30
0.0
 11
2.5928489565849304
 21
2.407760000000002
 31
0.0
  0
LINE
  5
A4
330
17
100
AcDbEntity
  8
0
100
AcDbLine
 10
2.5928489565849304
 20
2.407760000000002
 30
0.0
 11
2.5928489565849304
 21
2.767999999999994
 31
0.0
  0
LINE
  5
A5
330
17
100
AcDbEntity
  8
0
100
AcDbLine
 10
2.5928489565849304
 20
2.767999999999994
 30
0.0
 11
2.5928489565849304
 21
3.3759999999999986
 31
0.0
  0
LINE
  5
A6
330
17
100
AcDbEntity
  8
0
100
AcDbLine
 10
2.5928489565849304
 20
4.2070000000000025
 30
0.0
 11
2.5928489565849304
 21
4.207760000000002
 31
0.0
  0
LINE
  5
A7
330
17
100
AcDbEntity
  8
0
100
AcDbLine
 10
2.5928489565849304
 20
4.207760000000002
 30
0.0
 11
2.5928489565849304
 21
4.567999999999994
 31
0.0
  0
LINE
  5
A8
330
17
100
AcDbEntity
  8
0
100
AcDbLine
 10
2.5928489565849304
 20
4.567999999999994
 30
0.0
 11
2.5928489565849304
 21
5.175999999999998
 31
0.0
  0
LINE
  5
A9
330
17
100
AcDbEntity
  8
0
100
AcDbLine
 10
2.5928489565849304
 20
6.007000000000002
 30
0.0
 11
2.5928489565849304
 21
6.007760000000002
 31
0.0
  0
LINE
  5
AA
330
17
100
AcDbEntity
  8
0
100
AcDbLine
 10
2.5928489565849304
 20
6.007760000000002
 30
0.0
 11
2.5928489565849304
 21
6.367999999999994
 31
0.0
  0
LINE
  5
AB
330
17
100
AcDbEntity
  8
0
100
AcDbLine
 10
2.5928489565849304
 20
6.367999999999994
 30
0.0
 11
2.5928489565849304
 21
6.975999999999998
 31
0.0
  0
LINE
  5
AC
330
17
100
AcDbEntity
  8
0
100
AcDbLine
 10
2.5928489565849304
 20
7.807000000000002
 30
0.0
 11
2.5928489565849304
 21
7.807760000000002
 31
0.0
  0
LINE
  5
AD
330
17
100
AcDbEntity
  8
0
100
AcDbLine
 10
2.5928489565849304
 20
7.807760000000002
 30
0.0
 11
2.5928489565849304
 21
8.167999999999994
 31
0.0
  0
LINE
  5
AE
330
17
100
AcDbEntity
  8
0
100
AcDbLine
 10
2.5928489565849304
 20
8.167999999999994
 30
0.0
 11
2.5928489565849304
 21
8.775999999999998
 31
0.0
  0
LINE
  5
AF
330
17
100
AcDbEntity
  8
0
100
AcDbLine
 10
2.5928489565849304
 20
9.607000000000003
 30
0.0
 11
2.5928489565849304
 21
9.607760000000003
 31
0.0
  0
LINE
  5
B0
330
17
100
AcDbEntity
  8
0
100
AcDbLine
 10
2.5928489565849304
 20
9.607760000000003
 30
0.0
 11
2.5928489565849304
 21
9.967999999999995
 31
0.0
  0
LINE
  5
B1
330
17
100
AcDbEntity
  8
0
100
AcDbLine
 10
2.5928489565849304
 20
9.967999999999995
 30
0.0
 11
2.5928489565849304
 21
10.575999999999999
 31
0.0
  0
LINE
  5
B2
330
17
100
AcDbEntity
  8
0
100
AcDbLine
 10
2.5928489565849304
 20
11.407000000000002
 30
0.0
 11
2.5928489565849304
 21
11.407760000000003
 31
0.0
  0
LINE
  5
B3
330
17
100
AcDbEntity
  8
0
100
AcDbLine
 10
2.5928489565849304
 20
11.407760000000003
 30
0.0
 11
2.5928489565849304
 21
11.767999999999995
 31
0.0
  0
LINE
  5
B4
330
17
100
AcDbEntity
  8
0
100
AcDbLine
 10
2.5928489565849304
 20
11.767999999999995
 30
0.0
 11
2.5928489565849304
 21
12.375999999999998
 31
0.0
  0
LINE
  5
B5
330
17
100
AcDbEntity
  8
0
100
AcDbLine
 10
2.5928489565849304
 20
13.207000000000003
 30
0.0
 11
2.5928489565849304
 21
13.207760000000002
 31
0.0
  0
LINE
  5
B6
330
17
100
AcDbEntity
  8
0
100
AcDbLine
 10
2.5928489565849304
 20
13.207760000000002
 30
0.0
 11
2.5928489565849304
 21
13.567999999999994
 31
0.0
  0
LINE
  5
B7
330
17
100
AcDbEntity
  8
0
100
AcDbLine
 10
2.5928489565849304
 20
13.567999999999994
 30
0.0
 11
2.5928489565849304
 21
14.175999999999998
 31
0.0
  0
LINE
  5
B8
330
17
100
AcDbEntity
  8
0
100
AcDbLine
 10
3.0928489565849304
 20
1.2289600000000052
 30
0.0
 11
3.0928489565849304
 21
1.5579999999999983
 31
0.0
  0
LINE
  5
B9
330
17
100
AcDbEntity
  8
0
100
AcDbLine
 10
3.0928489565849304
 20
1.2289600000000052
 30
0.0
 11
3.0928489565849304
 21
1.5579999999999983
 31
0.0
  0
LINE
  5
BA
330
17
100
AcDbEntity
  8
0
100
AcDbLine
 10
3.0928489565849304
 20
2.390000000000002
 30
0.0
 11
3.0928489565849304
 21
2.998000000000006
 31
0.0
  0
LINE
  5
BB
330
17
100
AcDbEntity
  8
0
100
AcDbLine
 10
3.0928489565849304
 20
2.998000000000006
 30
0.0
 11
3.0928489565849304
 21
3.3579999999999983
 31
0.0
  0
LINE
  5
BC
330
17
100
AcDbEntity
  8
0
100
AcDbLine
 10
3.0928489565849304
 20
4.190000000000002
 30
0.0
 11
3.0928489565849304
 21
4.798000000000005
 31
0.0
  0
LINE
  5
BD
330
17
100
AcDbEntity
  8
0
100
AcDbLine
 10
3.0928489565849304
 20
4.798000000000005
 30
0.0
 11
3.0928489565849304
 21
5.157999999999999
 31
0.0
  0
LINE
  5
BE
330
17
100
AcDbEntity
  8
0
100
AcDbLine
 10
3.0928489565849304
 20
5.990000000000002
 30
0.0
 11
3.0928489565849304
 21
6.598000000000006
 31
0.0
  0
LINE
  5
BF
330
17
100
AcDbEntity
  8
0
100
AcDbLine
 10
3.0928489565849304
 20
6.598000000000006
 30
0.0
 11
3.0928489565849304
 21
6.957999999999998
 31
0.0
  0
LINE
  5
C0
330
17
100
AcDbEntity
  8
0
100
AcDbLine
 10
3.0928489565849304
 20
7.790000000000003
 30
0.0
 11
3.0928489565849304
 21
8.398000000000005
 31
0.0
  0
LINE
  5
C1
330
17
100
AcDbEntity
  8
0
100
AcDbLine
 10
3.0928489565849304
 20
8.398000000000005
 30
0.0
 11
3.0928489565849304
 21
8.757999999999997
 31
0.0
  0
LINE
  5
C2
330
17
100
AcDbEntity
  8
0
100
AcDbLine
 10
3.0928489565849304
 20
9.590000000000002
 30
0.0
 11
3.0928489565849304
 21
10.198000000000006
 31
0.0
  0
LINE
  5
C3
330
17
100
AcDbEntity
  8
0
100
AcDbLine
 10
3.0928489565849304
 20
10.198000000000006
 30
0.0
 11
3.0928489565849304
 21
10.557999999999998
 31
0.0
  0
LINE
  5
C4
330
17
100
AcDbEntity
  8
0
100
AcDbLine
 10
3.0928489565849304
 20
11.390000000000002
 30
0.0
 11
3.0928489565849304
 21
11.998000000000006
 31
0.0
  0
LINE
  5
C5
330
17
100
AcDbEntity
  8
0
100
AcDbLine
 10
3.0928489565849304
 20
11.998000000000006
 30
0.0
 11
3.0928489565849304
 21
12.357999999999999
 31
0.0
  0
LINE
  5
C6
330
17
100
AcDbEntity
  8
0
100
AcDbLine
 10
3.0928489565849304
 20
13.190000000000003
 30
0.0
 11
3.0928489565849304
 21
13.549999999999995
 31
0.0
  0
LINE
  5
C7
330
17
100
AcDbEntity
  8
0
100
AcDbLine
 10
3.0928489565849304
 20
13.549999999999995
 30
0.0
 11
3.0928489565849304
 21
14.157999999999998
 31
0.0
  0
LINE
  5
C8
330
17
100
AcDbEntity
  8
0
100
AcDbLine
 10
3.5928489565849304
 20
1.2198800000000052
 30
0.0
 11
3.5928489565849304
 21
1.5409999999999981
 31
0.0
  0
LINE
  5
C9
330
17
100
AcDbEntity
  8
0
100
AcDbLine
 10
3.5928489565849304
 20
1.2198800000000052
 30
0.0
 11
3.5928489565849304
 21
1.5409999999999981
 31
0.0
  0
LINE
  5
CA
330
17
100
AcDbEntity
  8
0
100
AcDbLine
 10
3.5928489565849304
 20
2.3730000000000016
 30
0.0
 11
3.5928489565849304
 21
2.981000000000006
 31
0.0
  0
LINE
  5
CB
330
17
100
AcDbEntity
  8
0
100
AcDbLine
 10
3.5928489565849304
 20
2.981000000000006
 30
0.0
 11
3.5928489565849304
 21
3.3409999999999984
 31
0.0
  0
LINE
  5
CC
330
17
100
AcDbEntity
  8
0
100
AcDbLine
 10
3.5928489565849304
 20
4.173000000000002
 30
0.0
 11
3.5928489565849304
 21
4.781000000000006
 31
0.0
  0
LINE
  5
CD
330
17
100
AcDbEntity
  8
0
100
AcDbLine
 10
3.5928489565849304
 20
4.781000000000006
 30
0.0
 11
3.5928489565849304
 21
5.140999999999998
 31
0.0
  0
LINE
  5
CE
330
17
100
AcDbEntity
  8
0
100
AcDbLine
 10
3.5928489565849304
 20
5.973000000000002
 30
0.0
 11
3.5928489565849304
 21
6.332999999999994
 31
0.0
  0
LINE
  5
CF
330
17
100
AcDbEntity
  8
0
100
AcDbLine
 10
3.5928489565849304
 20
6.332999999999994
 30
0.0
 11
3.5928489565849304
 21
6.940999999999998
 31
0.0
  0
LINE
  5
D0
330
17
100
AcDbEntity
  8
0
100
AcDbLine
 10
3.5928489565849304
 20
7.773000000000002
 30
0.0
 11
3.5928489565849304
 21
8.132999999999994
 31
0.0
  0
LINE
  5
D1
330
17
100
AcDbEntity
  8
0
100
AcDbLine
 10
3.5928489565849304
 20
8.132999999999994
 30
0.0
 11
3.5928489565849304
 21
8.740999999999998
 31
0.0
  0
LINE
  5
D2
330
17
100
AcDbEntity
  8
0
100
AcDbLine
 10
3.5928489565849304
 20
9.573000000000002
 30
0.0
 11
3.5928489565849304
 21
10.181000000000006
 31
0.0
  0
LINE
  5
D3
330
17
100
AcDbEntity
  8
0
100
AcDbLine
 10
3.5928489565849304
 20
10.181000000000006
 30
0.0
 11
3.5928489565849304
 21
10.540999999999999
 31
0.0
  0
LINE
  5
D4
330
17
100
AcDbEntity
  8
0
100
AcDbLine
 10
3.5928489565849304
 20
11.373000000000003
 30
0.0
 11
3.5928489565849304
 21
11.981000000000005
 31
0.0
  0
LINE
  5
D5
330
17
100
AcDbEntity
  8
0
100
AcDbLine
 10
3.5928489565849304
 20
11.981000000000005
 30
0.0
 11
3.5928489565849304
 21
12.340999999999998
 31
0.0
  0
LINE
  5
D6
330
17
100
AcDbEntity
  8
0
100
AcDbLine
 10
3.5928489565849304
 20
13.173000000000002
 30
0.0
 11
3.5928489565849304
 21
13.781000000000006
 31
0.0
  0
LINE
  5
D7
330
17
100
AcDbEntity
  8
0
100
AcDbLine
 10
3.5928489565849304
 20
13.781000000000006
 30
0.0
 11
3.5928489565849304
 21
14.140999999999998
 31
0.0
  0
LINE
  5
D8
330
17
100
AcDbEntity
  8
0
100
AcDbLine
 10
4.09284895658493
 20
1.2098000000000049
 30
0.0
 11
4.09284895658493
 21
1.5229999999999984
 31
0.0
  0
LINE
  5
D9
330
17
100
AcDbEntity
  8
0
100
AcDbLine
 10
4.09284895658493
 20
1.2098000000000049
 30
0.0
 11
4.09284895658493
 21
1.5229999999999984
 31
0.0
  0
LINE
  5
DA
330
17
100
AcDbEntity
  8
0
100
AcDbLine
 10
4.09284895658493
 20
1.5229999999999984
 30
0.0
 11
4.09284895658493
 21
1.5237599999999982
 31
0.0
  0
LINE
  5
DB
330
17
100
AcDbEntity
  8
0
100
AcDbLine
 10
4.09284895658493
 20
2.3550000000000018
 30
0.0
 11
4.09284895658493
 21
2.963000000000006
 31
0.0
  0
LINE
  5
DC
330
17
100
AcDbEntity
  8
0
100
AcDbLine
 10
4.09284895658493
 20
2.963000000000006
 30
0.0
 11
4.09284895658493
 21
3.322999999999998
 31
0.0
  0
LINE
  5
DD
330
17
100
AcDbEntity
  8
0
100
AcDbLine
 10
4.09284895658493
 20
3.322999999999998
 30
0.0
 11
4.09284895658493
 21
3.3237599999999983
 31
0.0
  0
LINE
  5
DE
330
17
100
AcDbEntity
  8
0
100
AcDbLine
 10
4.09284895658493
 20
4.155000000000002
 30
0.0
 11
4.09284895658493
 21
4.763000000000005
 31
0.0
  0
LINE
  5
DF
330
17
100
AcDbEntity
  8
0
100
AcDbLine
 10
4.09284895658493
 20
4.763000000000005
 30
0.0
 11
4.09284895658493
 21
5.1229999999999976
 31
0.0
  0
LINE
  5
E0
330
17
100
AcDbEntity
  8
0
100
AcDbLine
 10
4.09284895658493
 20
5.1229999999999976
 30
0.0
 11
4.09284895658493
 21
5.123759999999998
 31
0.0
  0
LINE
  5
E1
330
17
100
AcDbEntity
  8
0
100
AcDbLine
 10
4.09284895658493
 20
5.955000000000002
 30
0.0
 11
4.09284895658493
 21
6.563000000000006
 31
0.0
  0
LINE
  5
E2
330
17
100
AcDbEntity
  8
0
100
AcDbLine
 10
4.09284895658493
 20
6.563000000000006
 30
0.0
 11
4.09284895658493
 21
6.922999999999998
 31
0.0
  0
LINE
  5
E3
330
17
100
AcDbEntity
  8
0
100
AcDbLine
 10
4.09284895658493
 20
6.922999999999998
 30
0.0
 11
4.09284895658493
 21
6.923759999999998
 31
0.0
  0
LINE
  5
E4
330
17
100
AcDbEntity
  8
0
100
AcDbLine
 10
4.09284895658493
 20
7.755000000000003
 30
0.0
 11
4.09284895658493
 21
8.363000000000005
 31
0.0
  0
LINE
  5
E5
330
17
100
AcDbEntity
  8
0
100
AcDbLine
 10
4.09284895658493
 20
8.363000000000005
 30
0.0
 11
4.09284895658493
 21
8.722999999999997
 31
0.0
  0
LINE
  5
E6
330
17
100
AcDbEntity
  8
0
100
AcDbLine
 10
4.09284895658493
 20
8.722999999999997
 30
0.0
 11
4.09284895658493
 21
8.723759999999999
 31
0.0
  0
LINE
  5
E7
330
17
100
AcDbEntity
  8
0
100
AcDbLine
 10
4.09284895658493
 20
9.555000000000001
 30
0.0
 11
4.09284895658493
 21
10.163000000000006
 31
0.0
  0
LINE
  5
E8
330
17
100
AcDbEntity
  8
0
100
AcDbLine
 10
4.09284895658493
 20
10.163000000000006
 30
0.0
 11
4.09284895658493
 21
10.522999999999998
 31
0.0
  0
LINE
  5
E9
330
17
100
AcDbEntity
  8
0
100
AcDbLine
 10
4.09284895658493
 20
10.522999999999998
 30
0.0
 11
4.09284895658493
 21
10.523759999999998
 31
0.0
  0
LINE
  5
EA
330
17
100
AcDbEntity
  8
0
100
AcDbLine
 10
4.09284895658493
 20
11.355000000000002
 30
0.0
 11
4.09284895658493
 21
11.963000000000006
 31
0.0
  0
LINE
  5
EB
330
17
100
AcDbEntity
  8
0
100
AcDbLine
 10
4.09284895658493
 20
11.963000000000006
 30
0.0
 11
4.09284895658493
 21
12.322999999999999
 31
0.0
  0
LINE
  5
EC
330
17
100
AcDbEntity
  8
0
100
AcDbLine
 10
4.09284895658493
 20
12.322999999999999
 30
0.0
 11
4.09284895658493
 21
12.323759999999998
 31
0.0
  0
LINE
  5
ED
330
17
100
AcDbEntity
  8
0
100
AcDbLine
 10
4.09284895658493
 20
13.155000000000003
 30
0.0
 11
4.09284895658493
 21
13.763000000000005
 31
0.0
  0
LINE
  5
EE
330
17
100
AcDbEntity
  8
0
100
AcDbLine
 10
4.09284895658493
 20
13.763000000000005
 30
0.0
 11
4.09284895658493
 21
14.122999999999998
 31
0.0
  0
LINE
  5
EF
330
17
100
AcDbEntity
  8
0
100
AcDbLine
 10
4.09284895658493
 20
14.122999999999998
 30
0.0
 11
4.09284895658493
 21
14.123759999999999
 31
0.0
  0
LINE
  5
F0
330
17
100
AcDbEntity
  8
0
100
AcDbLine
 10
4.59284895658493
 20
1.2007200000000047
 30
0.0
 11
4.59284895658493
 21
1.5059999999999982
 31
0.0
  0
LINE
  5
F1
330
17
100
AcDbEntity
  8
0
100
AcDbLine
 10
4.59284895658493
 20
1.2007200000000047
 30
0.0
 11
4.59284895658493
 21
1.5059999999999982
 31
0.0
  0
LINE
  5
F2
330
17
100
AcDbEntity
  8
0
100
AcDbLine
 10
4.59284895658493
 20
2.338000000000002
 30
0.0
 11
4.59284895658493
 21
2.946000000000006
 31
0.0
  0
LINE
  5
F3
330
17
100
AcDbEntity
  8
0
100
AcDbLine
 10
4.59284895658493
 20
2.946000000000006
 30
0.0
 11
4.59284895658493
 21
3.3059999999999983
 31
0.0
  0
LINE
  5
F4
330
17
100
AcDbEntity
  8
0
100
AcDbLine
 10
4.59284895658493
 20
4.138000000000002
 30
0.0
 11
4.59284895658493
 21
4.497999999999994
 31
0.0
  0
LINE
  5
F5
330
17
100
AcDbEntity
  8
0
100
AcDbLine
 10
4.59284895658493
 20
4.497999999999994
 30
0.0
 11
4.59284895658493
 21
5.105999999999998
 31
0.0
  0
LINE
  5
F6
330
17
100
AcDbEntity
  8
0
100
AcDbLine
 10
4.59284895658493
 20
5.9380000000000015
 30
0.0
 11
4.59284895658493
 21
6.297999999999994
 31
0.0
  0
LINE
  5
F7
330
17
100
AcDbEntity
  8
0
100
AcDbLine
 10
4.59284895658493
 20
6.297999999999994
 30
0.0
 11
4.59284895658493
 21
6.905999999999998
 31
0.0
  0
LINE
  5
F8
330
17
100
AcDbEntity
  8
0
100
AcDbLine
 10
4.59284895658493
 20
7.738000000000002
 30
0.0
 11
4.59284895658493
 21
8.097999999999994
 31
0.0
  0
LINE
  5
F9
330
17
100
AcDbEntity
  8
0
100
AcDbLine
 10
4.59284895658493
 20
8.097999999999994
 30
0.0
 11
4.59284895658493
 21
8.705999999999998
 31
0.0
  0
LINE
  5
FA
330
17
100
AcDbEntity
  8
0
100
AcDbLine
 10
4.59284895658493
 20
9.538000000000002
 30
0.0
 11
4.59284895658493
 21
10.146000000000006
 31
0.0
  0
LINE
  5
FB
330
17
100
AcDbEntity
  8
0
100
AcDbLine
 10
4.59284895658493
 20
10.146000000000006
 30
0.0
 11
4.59284895658493
 21
10.505999999999998
 31
0.0
  0
LINE
  5
FC
330
17
100
AcDbEntity
  8
0
100
AcDbLine
 10
4.59284895658493
 20
11.338000000000003
 30
0.0
 11
4.59284895658493
 21
11.946000000000005
 31
0.0
  0
LINE
  5
FD
330
17
100
AcDbEntity
  8
0
100
AcDbLine
 10
4.59284895658493
 20
11.946000000000005
 30
0.0
 11
4.59284895658493
 21
12.305999999999997
 31
0.0
  0
LINE
  5
FE
330
17
100
AcDbEntity
  8
0
100
AcDbLine
 10
4.59284895658493
 20
13.138000000000002
 30
0.0
 11
4.59284895658493
 21
13.746000000000006
 31
0.0
  0
LINE
  5
FF
330
17
100
AcDbEntity
  8
0
100
AcDbLine
 10
4.59284895658493
 20
13.746000000000006
 30
0.0
 11
4.59284895658493
 21
14.105999999999998
 31
0.0
  0
LINE
  5
100
330
17
100
AcDbEntity
  8
0
100
AcDbLine
 10
5.09284895658493
 20
1.1916400000000045
 30
0.0
 11
5.09284895658493
 21
1.4889999999999983
 31
0.0
  0
LINE
  5
101
330
17
100
AcDbEntity
  8
0
100
AcDbLine
 10
5.09284895658493
 20
1.1916400000000045
 30
0.0
 11
5.09284895658493
 21
1.4889999999999983
 31
0.0
  0
LINE
  5
102
330
17
100
AcDbEntity
  8
0
100
AcDbLine
 10
5.09284895658493
 20
2.321000000000002
 30
0.0
 11
5.09284895658493
 21
2.929000000000006
 31
0.0
  0
LINE
  5
103
330
17
100
AcDbEntity
  8
0
100
AcDbLine
 10
5.09284895658493
 20
2.929000000000006
 30
0.0
 11
5.09284895658493
 21
3.2889999999999984
 31
0.0
  0
LINE
  5
104
330
17
100
AcDbEntity
  8
0
100
AcDbLine
 10
5.09284895658493
 20
4.121000000000002
 30
0.0
 11
5.09284895658493
 21
4.729000000000005
 31
0.0
  0
LINE
  5
105
330
17
100
AcDbEntity
  8
0
100
AcDbLine
 10
5.09284895658493
 20
4.729000000000005
 30
0.0
 11
5.09284895658493
 21
5.088999999999999
 31
0.0
  0
LINE
  5
106
330
17
100
AcDbEntity
  8
0
100
AcDbLine
 10
5.09284895658493
 20
5.921000000000002
 30
0.0
 11
5.09284895658493
 21
6.529000000000005
 31
0.0
  0
LINE
  5
107
330
17
100
AcDbEntity
  8
0
100
AcDbLine
 10
5.09284895658493
 20
6.529000000000005
 30
0.0
 11
5.09284895658493
 21
6.8889999999999985
 31
0.0
  0
LINE
  5
108
330
17
100
AcDbEntity
  8
0
100
AcDbLine
 10
5.09284895658493
 20
7.721000000000002
 30
0.0
 11
5.09284895658493
 21
8.080999999999994
 31
0.0
  0
LINE
  5
109
330
17
100
AcDbEntity
  8
0
100
AcDbLine
 10
5.09284895658493
 20
8.080999999999994
 30
0.0
 11
5.09284895658493
 21
8.688999999999998
 31
0.0
  0
LINE
  5
10A
330
17
100
AcDbEntity
  8
0
100
AcDbLine
 10
5.09284895658493
 20
9.521000000000003
 30
0.0
 11
5.09284895658493
 21
10.129000000000005
 31
0.0
  0
LINE
  5
10B
330
17
100
AcDbEntity
  8
0
100
AcDbLine
 10
5.09284895658493
 20
10.129000000000005
 30
0.0
 11
5.09284895658493
 21
10.488999999999997
 31
0.0
  0
LINE
  5
10C
330
17
100
AcDbEntity
  8
0
100
AcDbLine
 10
5.09284895658493
 20
11.321000000000002
 30
0.0
 11
5.09284895658493
 21
11.929000000000006
 31
0.0
  0
LINE
  5
10D
330
17
100
AcDbEntity
  8
0
100
AcDbLine
 10
5.09284895658493
 20
11.929000000000006
 30
0.0
 11
5.09284895658493
 21
12.288999999999998
 31
0.0
  0
LINE
  5
10E
330
17
100
AcDbEntity
  8
0
100
AcDbLine
 10
5.09284895658493
 20
13.121000000000002
 30
0.0
 11
5.09284895658493
 21
13.729000000000006
 31
0.0
  0
LINE
  5
10F
330
17
100
AcDbEntity
  8
0
100
AcDbLine
 10
5.09284895658493
 20
13.729000000000006
 30
0.0
 11
5.09284895658493
 21
14.088999999999999
 31
0.0
  0
LINE
  5
110
330
17
100
AcDbEntity
  8
0
100
AcDbLine
 10
5.59284895658493
 20
1.1818000000000044
 30
0.0
 11
5.59284895658493
 21
1.4709999999999983
 31
0.0
  0
LINE
  5
111
330
17
100
AcDbEntity
  8
0
100
AcDbLine
 10
5.59284895658493
 20
1.1818000000000044
 30
0.0
 11
5.59284895658493
 21
1.4709999999999983
 31
0.0
  0
LINE
  5
112
330
17
100
AcDbEntity
  8
0
100
AcDbLine
 10
5.59284895658493
 20
2.3030000000000017
 30
0.0
 11
5.59284895658493
 21
2.662999999999994
 31
0.0
  0
LINE
  5
113
330
17
100
AcDbEntity
  8
0
100
AcDbLine
 10
5.59284895658493
 20
2.662999999999994
 30
0.0
 11
5.59284895658493
 21
3.2709999999999986
 31
0.0
  0
LINE
  5
114
330
17
100
AcDbEntity
  8
0
100
AcDbLine
 10
5.59284895658493
 20
4.103000000000002
 30
0.0
 11
5.59284895658493
 21
4.462999999999994
 31
0.0
  0
LINE
  5
115
330
17
100
AcDbEntity
  8
0
100
AcDbLine
 10
5.59284895658493
 20
4.462999999999994
 30
0.0
 11
5.59284895658493
 21
5.070999999999998
 31
0.0
  0
LINE
  5
116
330
17
100
AcDbEntity
  8
0
100
AcDbLine
 10
5.59284895658493
 20
5.903000000000002
 30
0.0
 11
5.59284895658493
 21
6.511000000000006
 31
0.0
  0
LINE
  5
117
330
17
100
AcDbEntity
  8
0
100
AcDbLine
 10
5.59284895658493
 20
6.511000000000006
 30
0.0
 11
5.59284895658493
 21
6.870999999999999
 31
0.0
  0
LINE
  5
118
330
17
100
AcDbEntity
  8
0
100
AcDbLine
 10
5.59284895658493
 20
7.703000000000002
 30
0.0
 11
5.59284895658493
 21
8.062999999999994
 31
0.0
  0
LINE
  5
119
330
17
100
AcDbEntity
  8
0
100
AcDbLine
 10
5.59284895658493
 20
8.062999999999994
 30
0.0
 11
5.59284895658493
 21
8.670999999999998
 31
0.0
  0
LINE
  5
11A
330
17
100
AcDbEntity
  8
0
100
AcDbLine
 10
5.59284895658493
 20
9.503000000000002
 30
0.0
 11
5.59284895658493
 21
10.111000000000006
 31
0.0
  0
LINE
  5
11B
330
17
100
AcDbEntity
  8
0
100
AcDbLine
 10
5.59284895658493
 20
10.111000000000006
 30
0.0
 11
5.59284895658493
 21
10.470999999999998
 31
0.0
  0
LINE
  5
11C
330
17
100
AcDbEntity
  8
0
100
AcDbLine
 10
5.59284895658493
 20
11.303000000000003
 30
0.0
 11
5.59284895658493
 21
11.911000000000005
 31
0.0
  0
LINE
  5
11D
330
17
100
AcDbEntity
  8
0
100
AcDbLine
 10
5.59284895658493
 20
11.911000000000005
 30
0.0
 11
5.59284895658493
 21
12.270999999999997
 31
0.0
  0
LINE
  5
11E
330
17
100
AcDbEntity
  8
0
100
AcDbLine
 10
5.59284895658493
 20
13.103000000000002
 30
0.0
 11
5.59284895658493
 21
13.711000000000006
 31
0.0
  0
LINE
  5
11F
330
17
100
AcDbEntity
  8
0
100
AcDbLine
 10
5.59284895658493
 20
13.711000000000006
 30
0.0
 11
5.59284895658493
 21
14.070999999999998
 31
0.0
  0
LINE
  5
120
330
17
100
AcDbEntity
  8
0
100
AcDbLine
 10
6.09284895658493
 20
1.1765200000000042
 30
0.0
 11
6.09284895658493
 21
1.4589999999999983
 31
0.0
  0
LINE
  5
121
330
17
100
AcDbEntity
  8
0
100
AcDbLine
 10
6.09284895658493
 20
1.1765200000000042
 30
0.0
 11
6.09284895658493
 21
1.4589999999999983
 31
0.0
  0
LINE
  5
122
330
17
100
AcDbEntity
  8
0
100
AcDbLine
 10
6.09284895658493
 20
2.2910000000000017
 30
0.0
 11
6.09284895658493
 21
2.650999999999994
 31
0.0
  0
LINE
  5
123
330
17
100
AcDbEntity
  8
0
100
AcDbLine
 10
6.09284895658493
 20
2.650999999999994
 30
0.0
 11
6.09284895658493
 21
3.2589999999999986
 31
0.0
  0
LINE
  5
124
330
17
100
AcDbEntity
  8
0
100
AcDbLine
 10
6.09284895658493
 20
4.091000000000002
 30
0.0
 11
6.09284895658493
 21
4.699000000000006
 31
0.0
  0
LINE
  5
125
330
17
100
AcDbEntity
  8
0
100
AcDbLine
 10
6.09284895658493
 20
4.699000000000006
 30
0.0
 11
6.09284895658493
 21
5.058999999999998
 31
0.0
  0
LINE
  5
126
330
17
100
AcDbEntity
  8
0
100
AcDbLine
 10
6.09284895658493
 20
5.891000000000002
 30
0.0
 11
6.09284895658493
 21
6.250999999999994
 31
0.0
  0
LINE
  5
127
330
17
100
AcDbEntity
  8
0
100
AcDbLine
 10
6.09284895658493
 20
6.250999999999994
 30
0.0
 11
6.09284895658493
 21
6.858999999999998
 31
0.0
  0
LINE
  5
128
330
17
100
AcDbEntity
  8
0
100
AcDbLine
 10
6.09284895658493
 20
7.691000000000002
 30
0.0
 11
6.09284895658493
 21
8.050999999999995
 31
0.0
  0
LINE
  5
129
330
17
100
AcDbEntity
  8
0
100
AcDbLine
 10
6.09284895658493
 20
8.050999999999995
 30
0.0
 11
6.09284895658493
 21
8.658999999999999
 31
0.0
  0
LINE
  5
12A
330
17
100
AcDbEntity
  8
0
100
AcDbLine
 10
6.09284895658493
 20
9.491000000000003
 30
0.0
 11
6.09284895658493
 21
9.850999999999996
 31
0.0
  0
LINE
  5
12B
330
17
100
AcDbEntity
  8
0
100
AcDbLine
 10
6.09284895658493
 20
9.850999999999996
 30
0.0
 11
6.09284895658493
 21
10.458999999999998
 31
0.0
  0
LINE
  5
12C
330
17
100
AcDbEntity
  8
0
100
AcDbLine
 10
6.09284895658493
 20
11.291000000000002
 30
0.0
 11
6.09284895658493
 21
11.899000000000006
 31
0.0
  0
LINE
  5
12D
330
17
100
AcDbEntity
  8
0
100
AcDbLine
 10
6.09284895658493
 20
11.899000000000006
 30
0.0
 11
6.09284895658493
 21
12.258999999999999
 31
0.0
  0
LINE
  5
12E
330
17
100
AcDbEntity
  8
0
100
AcDbLine
 10
6.09284895658493
 20
13.091000000000003
 30
0.0
 11
6.09284895658493
 21
13.699000000000005
 31
0.0
  0
LINE
  5
12F
330
17
100
AcDbEntity
  8
0
100
AcDbLine
 10
6.09284895658493
 20
13.699000000000005
 30
0.0
 11
6.09284895658493
 21
14.058999999999997
 31
0.0
  0
LINE
  5
130
330
17
100
AcDbEntity
  8
0
100
AcDbLine
 10
6.59284895658493
 20
1.1808800000000041
 30
0.0
 11
6.59284895658493
 21
1.4599999999999982
 31
0.0
  0
LINE
  5
131
330
17
100
AcDbEntity
  8
0
100
AcDbLine
 10
6.59284895658493
 20
1.1808800000000041
 30
0.0
 11
6.59284895658493
 21
1.4599999999999982
 31
0.0
  0
LINE
  5
132
330
17
100
AcDbEntity
  8
0
100
AcDbLine
 10
6.59284895658493
 20
2.2920000000000016
 30
0.0
 11
6.59284895658493
 21
2.900000000000006
 31
0.0
  0
LINE
  5
133
330
17
100
AcDbEntity
  8
0
100
AcDbLine
 10
6.59284895658493
 20
2.900000000000006
 30
0.0
 11
6.59284895658493
 21
3.2599999999999985
 31
0.0
  0
LINE
  5
134
330
17
100
AcDbEntity
  8
0
100
AcDbLine
 10
6.59284895658493
 20
4.092000000000002
 30
0.0
 11
6.59284895658493
 21
4.7000000000000055
 31
0.0
  0
LINE
  5
135
330
17
100
AcDbEntity
  8
0
100
AcDbLine
 10
6.59284895658493
 20
4.7000000000000055
 30
0.0
 11
6.59284895658493
 21
5.059999999999999
 31
0.0
  0
LINE
  5
136
330
17
100
AcDbEntity
  8
0
100
AcDbLine
 10
6.59284895658493
 20
5.892000000000002
 30
0.0
 11
6.59284895658493
 21
6.500000000000005
 31
0.0
  0
LINE
  5
137
330
17
100
AcDbEntity
  8
0
100
AcDbLine
 10
6.59284895658493
 20
6.500000000000005
 30
0.0
 11
6.59284895658493
 21
6.8599999999999985
 31
0.0
  0
LINE
  5
138
330
17
100
AcDbEntity
  8
0
100
AcDbLine
 10
6.59284895658493
 20
7.692000000000002
 30
0.0
 11
6.59284895658493
 21
8.300000000000006
 31
0.0
  0
LINE
  5
139
330
17
100
AcDbEntity
  8
0
100
AcDbLine
 10
6.59284895658493
 20
8.300000000000006
 30
0.0
 11
6.59284895658493
 21
8.659999999999998
 31
0.0
  0
LINE
  5
13A
330
17
100
AcDbEntity
  8
0
100
AcDbLine
 10
6.59284895658493
 20
9.492000000000003
 30
0.0
 11
6.59284895658493
 21
10.100000000000005
 31
0.0
  0
LINE
  5
13B
330
17
100
AcDbEntity
  8
0
100
AcDbLine
 10
6.59284895658493
 20
10.100000000000005
 30
0.0
 11
6.59284895658493
 21
10.459999999999997
 31
0.0
  0
LINE
  5
13C
330
17
100
AcDbEntity
  8
0
100
AcDbLine
 10
6.59284895658493
 20
11.292000000000002
 30
0.0
 11
6.59284895658493
 21
11.900000000000006
 31
0.0
  0
LINE
  5
13D
330
17
100
AcDbEntity
  8
0
100
AcDbLine
 10
6.59284895658493
 20
11.900000000000006
 30
0.0
 11
6.59284895658493
 21
12.259999999999998
 31
0.0
  0
LINE
  5
13E
330
17
100
AcDbEntity
  8
0
100
AcDbLine
 10
6.59284895658493
 20
13.092000000000002
 30
0.0
 11
6.59284895658493
 21
13.700000000000006
 31
0.0
  0
LINE
  5
13F
330
17
100
AcDbEntity
  8
0
100
AcDbLine
 10
6.59284895658493
 20
13.700000000000006
 30
0.0
 11
6.59284895658493
 21
14.059999999999999
 31
0.0
  0
LINE
  5
140
330
17
100
AcDbEntity
  8
0
100
AcDbLine
 10
7.09284895658493
 20
1.185480000000004
 30
0.0
 11
7.09284895658493
 21
1.4609999999999983
 31
0.0
  0
LINE
  5
141
330
17
100
AcDbEntity
  8
0
100
AcDbLine
 10
7.09284895658493
 20
1.185480000000004
 30
0.0
 11
7.09284895658493
 21
1.4609999999999983
 31
0.0
  0
LINE
  5
142
330
17
100
AcDbEntity
  8
0
100
AcDbLine
 10
7.09284895658493
 20
2.293000000000002
 30
0.0
 11
7.09284895658493
 21
2.901000000000006
 31
0.0
  0
LINE
  5
143
330
17
100
AcDbEntity
  8
0
100
AcDbLine
 10
7.09284895658493
 20
2.901000000000006
 30
0.0
 11
7.09284895658493
 21
3.2609999999999983
 31
0.0
  0
LINE
  5
144
330
17
100
AcDbEntity
  8
0
100
AcDbLine
 10
7.09284895658493
 20
4.093000000000002
 30
0.0
 11
7.09284895658493
 21
4.452999999999994
 31
0.0
  0
LINE
  5
145
330
17
100
AcDbEntity
  8
0
100
AcDbLine
 10
7.09284895658493
 20
4.452999999999994
 30
0.0
 11
7.09284895658493
 21
5.060999999999998
 31
0.0
  0
LINE
  5
146
330
17
100
AcDbEntity
  8
0
100
AcDbLine
 10
7.09284895658493
 20
5.893000000000002
 30
0.0
 11
7.09284895658493
 21
6.252999999999994
 31
0.0
  0
LINE
  5
147
330
17
100
AcDbEntity
  8
0
100
AcDbLine
 10
7.09284895658493
 20
6.252999999999994
 30
0.0
 11
7.09284895658493
 21
6.860999999999998
 31
0.0
  0
LINE
  5
148
330
17
100
AcDbEntity
  8
0
100
AcDbLine
 10
7.09284895658493
 20
7.693000000000002
 30
0.0
 11
7.09284895658493
 21
8.052999999999994
 31
0.0
  0
LINE
  5
149
330
17
100
AcDbEntity
  8
0
100
AcDbLine
 10
7.09284895658493
 20
8.052999999999994
 30
0.0
 11
7.09284895658493
 21
8.660999999999998
 31
0.0
  0
LINE
  5
14A
330
17
100
AcDbEntity
  8
0
100
AcDbLine
 10
7.09284895658493
 20
9.493000000000002
 30
0.0
 11
7.09284895658493
 21
10.101000000000006
 31
0.0
  0
LINE
  5
14B
330
17
100
AcDbEntity
  8
0
100
AcDbLine
 10
7.09284895658493
 20
10.101000000000006
 30
0.0
 11
7.09284895658493
 21
10.460999999999999
 31
0.0
  0
LINE
  5
14C
330
17
100
AcDbEntity
  8
0
100
AcDbLine
 10
7.09284895658493
 20
11.293000000000003
 30
0.0
 11
7.09284895658493
 21
11.901000000000005
 31
0.0
  0
LINE
  5
14D
330
17
100
AcDbEntity
  8
0
100
AcDbLine
 10
7.09284895658493
 20
11.901000000000005
 30
0.0
 11
7.09284895658493
 21
12.260999999999997
 31
0.0
  0
LINE
  5
14E
330
17
100
AcDbEntity
  8
0
100
AcDbLine
 10
7.09284895658493
 20
13.093000000000002
 30
0.0
 11
7.09284895658493
 21
13.701000000000006
 31
0.0
  0
LINE
  5
14F
330
17
100
AcDbEntity
  8
0
100
AcDbLine
 10
7.09284895658493
 20
13.701000000000006
 30
0.0
 11
7.09284895658493
 21
14.060999999999998
 31
0.0
  0
LINE
  5
150
330
17
100
AcDbEntity
  8
0
100
AcDbLine
 10
7.59284895658493
 20
1.184520000000004
 30
0.0
 11
7.59284895658493
 21
1.4612399999999983
 31
0.0
  0
LINE
  5
151
330
17
100
AcDbEntity
  8
0
100
AcDbLine
 10
7.59284895658493
 20
1.184520000000004
 30
0.0
 11
7.59284895658493
 21
1.4612399999999983
 31
0.0
  0
LINE
  5
152
330
17
100
AcDbEntity
  8
0
100
AcDbLine
 10
7.59284895658493
 20
1.4612399999999983
 30
0.0
 11
7.59284895658493
 21
1.4619999999999984
 31
0.0
  0
LINE
  5
153
330
17
100
AcDbEntity
  8
0
100
AcDbLine
 10
7.59284895658493
 20
2.293000000000002
 30
0.0
 11
7.59284895658493
 21
2.9017600000000057
 31
0.0
  0
LINE
  5
154
330
17
100
AcDbEntity
  8
0
100
AcDbLine
 10
7.59284895658493
 20
2.9017600000000057
 30
0.0
 11
7.59284895658493
 21
3.2619999999999982
 31
0.0
  0
LINE
  5
155
330
17
100
AcDbEntity
  8
0
100
AcDbLine
 10
7.59284895658493
 20
4.093000000000002
 30
0.0
 11
7.59284895658493
 21
4.7017600000000055
 31
0.0
  0
LINE
  5
156
330
17
100
AcDbEntity
  8
0
100
AcDbLine
 10
7.59284895658493
 20
4.7017600000000055
 30
0.0
 11
7.59284895658493
 21
5.0619999999999985
 31
0.0
  0
LINE
  5
157
330
17
100
AcDbEntity
  8
0
100
AcDbLine
 10
7.59284895658493
 20
5.893000000000002
 30
0.0
 11
7.59284895658493
 21
6.253239999999995
 31
0.0
  0
LINE
  5
158
330
17
100
AcDbEntity
  8
0
100
AcDbLine
 10
7.59284895658493
 20
6.253239999999995
 30
0.0
 11
7.59284895658493
 21
6.861999999999998
 31
0.0
  0
LINE
  5
159
330
17
100
AcDbEntity
  8
0
100
AcDbLine
 10
7.59284895658493
 20
7.693000000000002
 30
0.0
 11
7.59284895658493
 21
8.301760000000005
 31
0.0
  0
LINE
  5
15A
330
17
100
AcDbEntity
  8
0
100
AcDbLine
 10
7.59284895658493
 20
8.301760000000005
 30
0.0
 11
7.59284895658493
 21
8.661999999999997
 31
0.0
  0
LINE
  5
15B
330
17
100
AcDbEntity
  8
0
100
AcDbLine
 10
7.59284895658493
 20
9.493000000000002
 30
0.0
 11
7.59284895658493
 21
10.101760000000006
 31
0.0
  0
LINE
  5
15C
330
17
100
AcDbEntity
  8
0
100
AcDbLine
 10
7.59284895658493
 20
10.101760000000006
 30
0.0
 11
7.59284895658493
 21
10.461999999999998
 31
0.0
  0
LINE
  5
15D
330
17
100
AcDbEntity
  8
0
100
AcDbLine
 10
7.59284895658493
 20
11.293000000000003
 30
0.0
 11
7.59284895658493
 21
11.901760000000007
 31
0.0
  0
LINE
  5
15E
330
17
100
AcDbEntity
  8
0
100
AcDbLine
 10
7.59284895658493
 20
11.901760000000007
 30
0.0
 11
7.59284895658493
 21
12.261999999999999
 31
0.0
  0
LINE
  5
15F
330
17
100
AcDbEntity
  8
0
100
AcDbLine
 10
7.59284895658493
 20
13.093000000000002
 30
0.0
 11
7.59284895658493
 21
13.701760000000005
 31
0.0
  0
LINE
  5
160
330
17
100
AcDbEntity
  8
0
100
AcDbLine
 10
7.59284895658493
 20
13.701760000000005
 30
0.0
 11
7.59284895658493
 21
14.061999999999998
 31
0.0
  0
LINE
  5
161
330
17
100
AcDbEntity
  8
0
100
AcDbLine
 10
8.09284895658493
 20
1.1824000000000043
 30
0.0
 11
8.09284895658493
 21
1.4619999999999984
 31
0.0
  0
LINE
  5
162
330
17
100
AcDbEntity
  8
0
100
AcDbLine
 10
8.09284895658493
 20
1.1824000000000043
 30
0.0
 11
8.09284895658493
 21
1.4619999999999984
 31
0.0
  0
LINE
  5
163
330
17
100
AcDbEntity
  8
0
100
AcDbLine
 10
8.09284895658493
 20
2.294000000000002
 30
0.0
 11
8.09284895658493
 21
2.902000000000006
 31
0.0
  0
LINE
  5
164
330
17
100
AcDbEntity
  8
0
100
AcDbLine
 10
8.09284895658493
 20
2.902000000000006
 30
0.0
 11
8.09284895658493
 21
3.2619999999999982
 31
0.0
  0
LINE
  5
165
330
17
100
AcDbEntity
  8
0
100
AcDbLine
 10
8.09284895658493
 20
4.094000000000002
 30
0.0
 11
8.09284895658493
 21
4.702000000000005
 31
0.0
  0
LINE
  5
166
330
17
100
AcDbEntity
  8
0
100
AcDbLine
 10
8.09284895658493
 20
4.702000000000005
 30
0.0
 11
8.09284895658493
 21
5.0619999999999985
 31
0.0
  0
LINE
  5
167
330
17
100
AcDbEntity
  8
0
100
AcDbLine
 10
8.09284895658493
 20
5.894000000000002
 30
0.0
 11
8.09284895658493
 21
6.502000000000006
 31
0.0
  0
LINE
  5
168
330
17
100
AcDbEntity
  8
0
100
AcDbLine
 10
8.09284895658493
 20
6.502000000000006
 30
0.0
 11
8.09284895658493
 21
6.861999999999998
 31
0.0
  0
LINE
  5
169
330
17
100
AcDbEntity
  8
0
100
AcDbLine
 10
8.09284895658493
 20
7.694000000000003
 30
0.0
 11
8.09284895658493
 21
8.302000000000005
 31
0.0
  0
LINE
  5
16A
330
17
100
AcDbEntity
  8
0
100
AcDbLine
 10
8.09284895658493
 20
8.302000000000005
 30
0.0
 11
8.09284895658493
 21
8.661999999999997
 31
0.0
  0
LINE
  5
16B
330
17
100
AcDbEntity
  8
0
100
AcDbLine
 10
8.09284895658493
 20
9.494000000000002
 30
0.0
 11
8.09284895658493
 21
10.102000000000006
 31
0.0
  0
LINE
  5
16C
330
17
100
AcDbEntity
  8
0
100
AcDbLine
 10
8.09284895658493
 20
10.102000000000006
 30
0.0
 11
8.09284895658493
 21
10.461999999999998
 31
0.0
  0
LINE
  5
16D
330
17
100
AcDbEntity
  8
0
100
AcDbLine
 10
8.09284895658493
 20
11.294000000000002
 30
0.0
 11
8.09284895658493
 21
11.902000000000006
 31
0.0
  0
LINE
  5
16E
330
17
100
AcDbEntity
  8
0
100
AcDbLine
 10
8.09284895658493
 20
11.902000000000006
 30
0.0
 11
8.09284895658493
 21
12.261999999999999
 31
0.0
  0
LINE
  5
16F
330
17
100
AcDbEntity
  8
0
100
AcDbLine
 10
8.09284895658493
 20
13.094000000000003
 30
0.0
 11
8.09284895658493
 21
13.702000000000005
 31
0.0
  0
LINE
  5
170
330
17
100
AcDbEntity
  8
0
100
AcDbLine
 10
8.09284895658493
 20
13.702000000000005
 30
0.0
 11
8.09284895658493
 21
14.061999999999998
 31
0.0
  0
LINE
  5
171
330
17
100
AcDbEntity
  8
0
100
AcDbLine
 10
8.59284895658493
 20
1.1802800000000042
 30
0.0
 11
8.59284895658493
 21
1.4629999999999983
 31
0.0
  0
LINE
  5
172
330
17
100
AcDbEntity
  8
0
100
AcDbLine
 10
8.59284895658493
 20
1.1802800000000042
 30
0.0
 11
8.59284895658493
 21
1.4629999999999983
 31
0.0
  0
LINE
  5
173
330
17
100
AcDbEntity
  8
0
100
AcDbLine
 10
8.59284895658493
 20
2.2950000000000017
 30
0.0
 11
8.59284895658493
 21
2.654999999999994
 31
0.0
  0
LINE
  5
174
330
17
100
AcDbEntity
  8
0
100
AcDbLine
 10
8.59284895658493
 20
2.654999999999994
 30
0.0
 11
8.59284895658493
 21
3.2629999999999986
 31
0.0
  0
LINE
  5
175
330
17
100
AcDbEntity
  8
0
100
AcDbLine
 10
8.59284895658493
 20
4.095000000000002
 30
0.0
 11
8.59284895658493
 21
4.454999999999994
 31
0.0
  0
LINE
  5
176
330
17
100
AcDbEntity
  8
0
100
AcDbLine
 10
8.59284895658493
 20
4.454999999999994
 30
0.0
 11
8.59284895658493
 21
5.062999999999998
 31
0.0
  0
LINE
  5
177
330
17
100
AcDbEntity
  8
0
100
AcDbLine
 10
8.59284895658493
 20
5.895000000000002
 30
0.0
 11
8.59284895658493
 21
6.503000000000005
 31
0.0
  0
LINE
  5
178
330
17
100
AcDbEntity
  8
0
100
AcDbLine
 10
8.59284895658493
 20
6.503000000000005
 30
0.0
 11
8.59284895658493
 21
6.862999999999999
 31
0.0
  0
LINE
  5
179
330
17
100
AcDbEntity
  8
0
100
AcDbLine
 10
8.59284895658493
 20
7.695000000000002
 30
0.0
 11
8.59284895658493
 21
8.054999999999994
 31
0.0
  0
LINE
  5
17A
330
17
100
AcDbEntity
  8
0
100
AcDbLine
 10
8.59284895658493
 20
8.054999999999994
 30
0.0
 11
8.59284895658493
 21
8.662999999999998
 31
0.0
  0
LINE
  5
17B
330
17
100
AcDbEntity
  8
0
100
AcDbLine
 10
8.59284895658493
 20
9.495000000000003
 30
0.0
 11
8.59284895658493
 21
10.103000000000005
 31
0.0
  0
LINE
  5
17C
330
17
100
AcDbEntity
  8
0
100
AcDbLine
 10
8.59284895658493
 20
10.103000000000005
 30
0.0
 11
8.59284895658493
 21
10.462999999999997
 31
0.0
  0
LINE
  5
17D
330
17
100
AcDbEntity
  8
0
100
AcDbLine
 10
8.59284895658493
 20
11.295000000000002
 30
0.0
 11
8.59284895658493
 21
11.903000000000006
 31
0.0
  0
LINE
  5
17E
330
17
100
AcDbEntity
  8
0
100
AcDbLine
 10
8.59284895658493
 20
11.903000000000006
 30
0.0
 11
8.59284895658493
 21
12.262999999999998
 31
0.0
  0
LINE
  5
17F
330
17
100
AcDbEntity
  8
0
100
AcDbLine
 10
8.59284895658493
 20
13.095000000000002
 30
0.0
 11
8.59284895658493
 21
13.703000000000007
 31
0.0
  0
LINE
  5
180
330
17
100
AcDbEntity
  8
0
100
AcDbLine
 10
8.59284895658493
 20
13.703000000000007
 30
0.0
 11
8.59284895658493
 21
14.062999999999999
 31
0.0
  0
LINE
  5
181
330
17
100
AcDbEntity
  8
0
100
AcDbLine
 10
9.09284895658493
 20
1.1781600000000043
 30
0.0
 11
9.09284895658493
 21
1.4639999999999982
 31
0.0
  0
LINE
  5
182
330
17
100
AcDbEntity
  8
0
100
AcDbLine
 10
9.09284895658493
 20
1.1781600000000043
 30
0.0
 11
9.09284895658493
 21
1.4639999999999982
 31
0.0
  0
LINE
  5
183
330
17
100
AcDbEntity
  8
0
100
AcDbLine
 10
9.09284895658493
 20
2.2960000000000016
 30
0.0
 11
9.09284895658493
 21
2.904000000000006
 31
0.0
  0
LINE
  5
184
330
17
100
AcDbEntity
  8
0
100
AcDbLine
 10
9.09284895658493
 20
2.904000000000006
 30
0.0
 11
9.09284895658493
 21
3.2639999999999985
 31
0.0
  0
LINE
  5
185
330
17
100
AcDbEntity
  8
0
100
AcDbLine
 10
9.09284895658493
 20
4.096000000000002
 30
0.0
 11
9.09284895658493
 21
4.704000000000006
 31
0.0
  0
LINE
  5
186
330
17
100
AcDbEntity
  8
0
100
AcDbLine
 10
9.09284895658493
 20
4.704000000000006
 30
0.0
 11
9.09284895658493
 21
5.063999999999998
 31
0.0
  0
LINE
  5
187
330
17
100
AcDbEntity
  8
0
100
AcDbLine
 10
9.09284895658493
 20
5.896000000000002
 30
0.0
 11
9.09284895658493
 21
6.255999999999994
 31
0.0
  0
LINE
  5
188
330
17
100
AcDbEntity
  8
0
100
AcDbLine
 10
9.09284895658493
 20
6.255999999999994
 30
0.0
 11
9.09284895658493
 21
6.863999999999998
 31
0.0
  0
LINE
  5
189
330
17
100
AcDbEntity
  8
0
100
AcDbLine
 10
9.09284895658493
 20
7.6960000000000015
 30
0.0
 11
9.09284895658493
 21
8.055999999999994
 31
0.0
  0
LINE
  5
18A
330
17
100
AcDbEntity
  8
0
100
AcDbLine
 10
9.09284895658493
 20
8.055999999999994
 30
0.0
 11
9.09284895658493
 21
8.663999999999998
 31
0.0
  0
LINE
  5
18B
330
17
100
AcDbEntity
  8
0
100
AcDbLine
 10
9.09284895658493
 20
9.496000000000002
 30
0.0
 11
9.09284895658493
 21
10.104000000000006
 31
0.0
  0
LINE
  5
18C
330
17
100
AcDbEntity
  8
0
100
AcDbLine
 10
9.09284895658493
 20
10.104000000000006
 30
0.0
 11
9.09284895658493
 21
10.463999999999999
 31
0.0
  0
LINE
  5
18D
330
17
100
AcDbEntity
  8
0
100
AcDbLine
 10
9.09284895658493
 20
11.296000000000003
 30
0.0
 11
9.09284895658493
 21
11.904000000000005
 31
0.0
  0
LINE
  5
18E
330
17
100
AcDbEntity
  8
0
100
AcDbLine
 10
9.09284895658493
 20
11.904000000000005
 30
0.0
 11
9.09284895658493
 21
12.263999999999998
 31
0.0
  0
LINE
  5
18F
330
17
100
AcDbEntity
  8
0
100
AcDbLine
 10
9.09284895658493
 20
13.096000000000002
 30
0.0
 11
9.09284895658493
 21
13.704000000000006
 31
0.0
  0
LINE
  5
190
330
17
100
AcDbEntity
  8
0
100
AcDbLine
 10
9.09284895658493
 20
13.704000000000006
 30
0.0
 11
9.09284895658493
 21
14.063999999999998
 31
0.0
  0
LINE
  5
191
330
17
100
AcDbEntity
  8
0
100
AcDbLine
 10
9.59284895658493
 20
1.1752800000000045
 30
0.0
 11
9.59284895658493
 21
1.4639999999999982
 31
0.0
  0
LINE
  5
192
330
17
100
AcDbEntity
  8
0
100
AcDbLine
 10
9.59284895658493
 20
1.1752800000000045
 30
0.0
 11
9.59284895658493
 21
1.4639999999999982
 31
0.0
  0
LINE
  5
193
330
17
100
AcDbEntity
  8
0
100
AcDbLine
 10
9.59284895658493
 20
2.2960000000000016
 30
0.0
 11
9.59284895658493
 21
2.904000000000006
 31
0.0
  0
LINE
  5
194
330
17
100
AcDbEntity
  8
0
100
AcDbLine
 10
9.59284895658493
 20
2.904000000000006
 30
0.0
 11
9.59284895658493
 21
3.2639999999999985
 31
0.0
  0
LINE
  5
195
330
17
100
AcDbEntity
  8
0
100
AcDbLine
 10
9.59284895658493
 20
4.096000000000002
 30
0.0
 11
9.59284895658493
 21
4.704000000000006
 31
0.0
  0
LINE
  5
196
330
17
100
AcDbEntity
  8
0
100
AcDbLine
 10
9.59284895658493
 20
4.704000000000006
 30
0.0
 11
9.59284895658493
 21
5.063999999999998
 31
0.0
  0
LINE
  5
197
330
17
100
AcDbEntity
  8
0
100
AcDbLine
 10
9.59284895658493
 20
5.896000000000002
 30
0.0
 11
9.59284895658493
 21
6.255999999999994
 31
0.0
  0
LINE
  5
198
330
17
100
AcDbEntity
  8
0
100
AcDbLine
 10
9.59284895658493
 20
6.255999999999994
 30
0.0
 11
9.59284895658493
 21
6.863999999999998
 31
0.0
  0
LINE
  5
199
330
17
100
AcDbEntity
  8
0
100
AcDbLine
 10
9.59284895658493
 20
7.6960000000000015
 30
0.0
 11
9.59284895658493
 21
8.055999999999994
 31
0.0
  0
LINE
  5
19A
330
17
100
AcDbEntity
  8
0
100
AcDbLine
 10
9.59284895658493
 20
8.055999999999994
 30
0.0
 11
9.59284895658493
 21
8.663999999999998
 31
0.0
  0
LINE
  5
19B
330
17
100
AcDbEntity
  8
0
100
AcDbLine
 10
9.59284895658493
 20
9.496000000000002
 30
0.0
 11
9.59284895658493
 21
10.104000000000006
 31
0.0
  0
LINE
  5
19C
330
17
100
AcDbEntity
  8
0
100
AcDbLine
 10
9.59284895658493
 20
10.104000000000006
 30
0.0
 11
9.59284895658493
 21
10.463999999999999
 31
0.0
  0
LINE
  5
19D
330
17
100
AcDbEntity
  8
0
100
AcDbLine
 10
9.59284895658493
 20
11.296000000000003
 30
0.0
 11
9.59284895658493
 21
11.904000000000005
 31
0.0
  0
LINE
  5
19E
330
17
100
AcDbEntity
  8
0
100
AcDbLine
 10
9.59284895658493
 20
11.904000000000005
 30
0.0
 11
9.59284895658493
 21
12.263999999999998
 31
0.0
  0
LINE
  5
19F
330
17
100
AcDbEntity
  8
0
100
AcDbLine
 10
9.59284895658493
 20
13.096000000000002
 30
0.0
 11
9.59284895658493
 21
13.704000000000006
 31
0.0
  0
LINE
  5
1A0
330
17
100
AcDbEntity
  8
0
100
AcDbLine
 10
9.59284895658493
 20
13.704000000000006
 30
0.0
 11
9.59284895658493
 21
14.063999999999998
 31
0.0
  0
LINE
  5
1A1
330
17
100
AcDbEntity
  8
0
100
AcDbLine
 10
10.09284895658493
 20
1.1731600000000044
 30
0.0
 11
10.09284895658493
 21
1.4649999999999983
 31
0.0
  0
LINE
  5
1A2
330
17
100
AcDbEntity
  8
0
100
AcDbLine
 10
10.09284895658493
 20
1.1731600000000044
 30
0.0
 11
10.09284895658493
 21
1.4649999999999983
 31
0.0
  0
LINE
  5
1A3
330
17
100
AcDbEntity
  8
0
100
AcDbLine
 10
10.09284895658493
 20
2.297000000000002
 30
0.0
 11
10.09284895658493
 21
2.905000000000006
 31
0.0
  0
LINE
  5
1A4
330
17
100
AcDbEntity
  8
0
100
AcDbLine
 10
10.09284895658493
 20
2.905000000000006
 30
0.0
 11
10.09284895658493
 21
3.2649999999999983
 31
0.0
  0
LINE
  5
1A5
330
17
100
AcDbEntity
  8
0
100
AcDbLine
 10
10.09284895658493
 20
4.097000000000002
 30
0.0
 11
10.09284895658493
 21
4.705000000000005
 31
0.0
  0
LINE
  5
1A6
330
17
100
AcDbEntity
  8
0
100
AcDbLine
 10
10.09284895658493
 20
4.705000000000005
 30
0.0
 11
10.09284895658493
 21
5.064999999999999
 31
0.0
  0
LINE
  5
1A7
330
17
100
AcDbEntity
  8
0
100
AcDbLine
 10
10.09284895658493
 20
5.897000000000002
 30
0.0
 11
10.09284895658493
 21
6.505000000000006
 31
0.0
  0
LINE
  5
1A8
330
17
100
AcDbEntity
  8
0
100
AcDbLine
 10
10.09284895658493
 20
6.505000000000006
 30
0.0
 11
10.09284895658493
 21
6.864999999999998
 31
0.0
  0
LINE
  5
1A9
330
17
100
AcDbEntity
  8
0
100
AcDbLine
 10
10.09284895658493
 20
7.697000000000003
 30
0.0
 11
10.09284895658493
 21
8.305000000000005
 31
0.0
  0
LINE
  5
1AA
330
17
100
AcDbEntity
  8
0
100
AcDbLine
 10
10.09284895658493
 20
8.305000000000005
 30
0.0
 11
10.09284895658493
 21
8.664999999999997
 31
0.0
  0
LINE
  5
1AB
330
17
100
AcDbEntity
  8
0
100
AcDbLine
 10
10.09284895658493
 20
9.497000000000002
 30
0.0
 11
10.09284895658493
 21
10.105000000000006
 31
0.0
  0
LINE
  5
1AC
330
17
100
AcDbEntity
  8
0
100
AcDbLine
 10
10.09284895658493
 20
10.105000000000006
 30
0.0
 11
10.09284895658493
 21
10.464999999999998
 31
0.0
  0
LINE
  5
1AD
330
17
100
AcDbEntity
  8
0
100
AcDbLine
 10
10.09284895658493
 20
11.297000000000002
 30
0.0
 11
10.09284895658493
 21
11.905000000000006
 31
0.0
  0
LINE
  5
1AE
330
17
100
AcDbEntity
  8
0
100
AcDbLine
 10
10.09284895658493
 20
11.905000000000006
 30
0.0
 11
10.09284895658493
 21
12.264999999999999
 31
0.0
  0
LINE
  5
1AF
330
17
100
AcDbEntity
  8
0
100
AcDbLine
 10
10.09284895658493
 20
13.097000000000003
 30
0.0
 11
10.09284895658493
 21
13.456999999999995
 31
0.0
  0
LINE
  5
1B0
330
17
100
AcDbEntity
  8
0
100
AcDbLine
 10
10.09284895658493
 20
13.456999999999995
 30
0.0
 11
10.09284895658493
 21
14.064999999999998
 31
0.0
  0
LINE
  5
1B1
330
17
100
AcDbEntity
  8
0
100
AcDbLine
 10
10.59284895658493
 20
1.1710400000000045
 30
0.0
 11
10.59284895658493
 21
1.4659999999999984
 31
0.0
  0
LINE
  5
1B2
330
17
100
AcDbEntity
  8
0
100
AcDbLine
 10
10.59284895658493
 20
1.1710400000000045
 30
0.0
 11
10.59284895658493
 21
1.4659999999999984
 31
0.0
  0
LINE
  5
1B3
330
17
100
AcDbEntity
  8
0
100
AcDbLine
 10
10.59284895658493
 20
2.298000000000002
 30
0.0
 11
10.59284895658493
 21
2.906000000000006
 31
0.0
  0
LINE
  5
1B4
330
17
100
AcDbEntity
  8
0
100
AcDbLine
 10
10.59284895658493
 20
2.906000000000006
 30
0.0
 11
10.59284895658493
 21
3.2659999999999982
 31
0.0
  0
LINE
  5
1B5
330
17
100
AcDbEntity
  8
0
100
AcDbLine
 10
10.59284895658493
 20
4.0980000000000025
 30
0.0
 11
10.59284895658493
 21
4.457999999999994
 31
0.0
  0
LINE
  5
1B6
330
17
100
AcDbEntity
  8
0
100
AcDbLine
 10
10.59284895658493
 20
4.457999999999994
 30
0.0
 11
10.59284895658493
 21
5.065999999999998
 31
0.0
  0
LINE
  5
1B7
330
17
100
AcDbEntity
  8
0
100
AcDbLine
 10
10.59284895658493
 20
5.8980000000000015
 30
0.0
 11
10.59284895658493
 21
6.506000000000006
 31
0.0
  0
LINE
  5
1B8
330
17
100
AcDbEntity
  8
0
100
AcDbLine
 10
10.59284895658493
 20
6.506000000000006
 30
0.0
 11
10.59284895658493
 21
6.865999999999999
 31
0.0
  0
LINE
  5
1B9
330
17
100
AcDbEntity
  8
0
100
AcDbLine
 10
10.59284895658493
 20
7.698000000000002
 30
0.0
 11
10.59284895658493
 21
8.057999999999995
 31
0.0
  0
LINE
  5
1BA
330
17
100
AcDbEntity
  8
0
100
AcDbLine
 10
10.59284895658493
 20
8.057999999999995
 30
0.0
 11
10.59284895658493
 21
8.665999999999999
 31
0.0
  0
LINE
  5
1BB
330
17
100
AcDbEntity
  8
0
100
AcDbLine
 10
10.59284895658493
 20
9.498000000000003
 30
0.0
 11
10.59284895658493
 21
10.106000000000005
 31
0.0
  0
LINE
  5
1BC
330
17
100
AcDbEntity
  8
0
100
AcDbLine
 10
10.59284895658493
 20
10.106000000000005
 30
0.0
 11
10.59284895658493
 21
10.465999999999998
 31
0.0
  0
LINE
  5
1BD
330
17
100
AcDbEntity
  8
0
100
AcDbLine
 10
10.59284895658493
 20
11.298000000000002
 30
0.0
 11
10.59284895658493
 21
11.906000000000006
 31
0.0
  0
LINE
  5
1BE
330
17
100
AcDbEntity
  8
0
100
AcDbLine
 10
10.59284895658493
 20
11.906000000000006
 30
0.0
 11
10.59284895658493
 21
12.265999999999998
 31
0.0
  0
LINE
  5
1BF
330
17
100
AcDbEntity
  8
0
100
AcDbLine
 10
10.59284895658493
 20
13.098000000000003
 30
0.0
 11
10.59284895658493
 21
13.706000000000007
 31
0.0
  0
LINE
  5
1C0
330
17
100
AcDbEntity
  8
0
100
AcDbLine
 10
10.59284895658493
 20
13.706000000000007
 30
0.0
 11
10.59284895658493
 21
14.065999999999999
 31
0.0
  0
LINE
  5
1C1
330
17
100
AcDbEntity
  8
0
100
AcDbLine
 10
11.09284895658493
 20
1.1681600000000045
 30
0.0
 11
11.09284895658493
 21
1.4662399999999982
 31
0.0
  0
LINE
  5
1C2
330
17
100
AcDbEntity
  8
0
100
AcDbLine
 10
11.09284895658493
 20
1.1681600000000045
 30
0.0
 11
11.09284895658493
 21
1.4662399999999982
 31
0.0
  0
LINE
  5
1C3
330
17
100
AcDbEntity
  8
0
100
AcDbLine
 10
11.09284895658493
 20
1.4662399999999982
 30
0.0
 11
11.09284895658493
 21
1.4669999999999983
 31
0.0
  0
LINE
  5
1C4
330
17
100
AcDbEntity
  8
0
100
AcDbLine
 10
11.09284895658493
 20
2.298000000000002
 30
0.0
 11
11.09284895658493
 21
2.298760000000002
 31
0.0
  0
LINE
  5
1C5
330
17
100
AcDbEntity
  8
0
100
AcDbLine
 10
11.09284895658493
 20
2.298760000000002
 30
0.0
 11
11.09284895658493
 21
2.658999999999994
 31
0.0
  0
LINE
  5
1C6
330
17
100
AcDbEntity
  8
0
100
AcDbLine
 10
11.09284895658493
 20
2.658999999999994
 30
0.0
 11
11.09284895658493
 21
3.2669999999999986
 31
0.0
  0
LINE
  5
1C7
330
17
100
AcDbEntity
  8
0
100
AcDbLine
 10
11.09284895658493
 20
4.0980000000000025
 30
0.0
 11
11.09284895658493
 21
4.098760000000002
 31
0.0
  0
LINE
  5
1C8
330
17
100
AcDbEntity
  8
0
100
AcDbLine
 10
11.09284895658493
 20
4.098760000000002
 30
0.0
 11
11.09284895658493
 21
4.458999999999994
 31
0.0
  0
LINE
  5
1C9
330
17
100
AcDbEntity
  8
0
100
AcDbLine
 10
11.09284895658493
 20
4.458999999999994
 30
0.0
 11
11.09284895658493
 21
5.066999999999998
 31
0.0
  0
LINE
  5
1CA
330
17
100
AcDbEntity
  8
0
100
AcDbLine
 10
11.09284895658493
 20
5.8980000000000015
 30
0.0
 11
11.09284895658493
 21
5.898760000000002
 31
0.0
  0
LINE
  5
1CB
330
17
100
AcDbEntity
  8
0
100
AcDbLine
 10
11.09284895658493
 20
5.898760000000002
 30
0.0
 11
11.09284895658493
 21
6.258999999999994
 31
0.0
  0
LINE
  5
1CC
330
17
100
AcDbEntity
  8
0
100
AcDbLine
 10
11.09284895658493
 20
6.258999999999994
 30
0.0
 11
11.09284895658493
 21
6.866999999999998
 31
0.0
  0
LINE
  5
1CD
330
17
100
AcDbEntity
  8
0
100
AcDbLine
 10
11.09284895658493
 20
7.698000000000002
 30
0.0
 11
11.09284895658493
 21
7.698760000000002
 31
0.0
  0
LINE
  5
1CE
330
17
100
AcDbEntity
  8
0
100
AcDbLine
 10
11.09284895658493
 20
7.698760000000002
 30
0.0
 11
11.09284895658493
 21
8.058999999999994
 31
0.0
  0
LINE
  5
1CF
330
17
100
AcDbEntity
  8
0
100
AcDbLine
 10
11.09284895658493
 20
8.058999999999994
 30
0.0
 11
11.09284895658493
 21
8.666999999999998
 31
0.0
  0
LINE
  5
1D0
330
17
100
AcDbEntity
  8
0
100
AcDbLine
 10
11.09284895658493
 20
9.498000000000003
 30
0.0
 11
11.09284895658493
 21
9.498760000000003
 31
0.0
  0
LINE
  5
1D1
330
17
100
AcDbEntity
  8
0
100
AcDbLine
 10
11.09284895658493
 20
9.498760000000003
 30
0.0
 11
11.09284895658493
 21
9.858999999999995
 31
0.0
  0
LINE
  5
1D2
330
17
100
AcDbEntity
  8
0
100
AcDbLine
 10
11.09284895658493
 20
9.858999999999995
 30
0.0
 11
11.09284895658493
 21
10.466999999999999
 31
0.0
  0
LINE
  5
1D3
330
17
100
AcDbEntity
  8
0
100
AcDbLine
 10
11.09284895658493
 20
11.298000000000002
 30
0.0
 11
11.09284895658493
 21
11.298760000000003
 31
0.0
  0
LINE
  5
1D4
330
17
100
AcDbEntity
  8
0
100
AcDbLine
 10
11.09284895658493
 20
11.298760000000003
 30
0.0
 11
11.09284895658493
 21
11.658999999999995
 31
0.0
  0
LINE
  5
1D5
330
17
100
AcDbEntity
  8
0
100
AcDbLine
 10
11.09284895658493
 20
11.658999999999995
 30
0.0
 11
11.09284895658493
 21
12.266999999999998
 31
0.0
  0
LINE
  5
1D6
330
17
100
AcDbEntity
  8
0
100
AcDbLine
 10
11.09284895658493
 20
13.098000000000003
 30
0.0
 11
11.09284895658493
 21
13.098760000000002
 31
0.0
  0
LINE
  5
1D7
330
17
100
AcDbEntity
  8
0
100
AcDbLine
 10
11.09284895658493
 20
13.098760000000002
 30
0.0
 11
11.09284895658493
 21
13.458999999999994
 31
0.0
  0
LINE
  5
1D8
330
17
100
AcDbEntity
  8
0
100
AcDbLine
 10
11.09284895658493
 20
13.458999999999994
 30
0.0
 11
11.09284895658493
 21
14.066999999999998
 31
0.0
  0
LINE
  5
1D9
330
17
100
AcDbEntity
  8
0
100
AcDbLine
 10
11.59284895658493
 20
1.1660400000000046
 30
0.0
 11
11.59284895658493
 21
1.4669999999999983
 31
0.0
  0
LINE
  5
1DA
330
17
100
AcDbEntity
  8
0
100
AcDbLine
 10
11.59284895658493
 20
1.1660400000000046
 30
0.0
 11
11.59284895658493
 21
1.4669999999999983
 31
0.0
  0
LINE
  5
1DB
330
17
100
AcDbEntity
  8
0
100
AcDbLine
 10
11.59284895658493
 20
2.2990000000000017
 30
0.0
 11
11.59284895658493
 21
2.658999999999994
 31
0.0
  0
LINE
  5
1DC
330
17
100
AcDbEntity
  8
0
100
AcDbLine
 10
11.59284895658493
 20
2.658999999999994
 30
0.0
 11
11.59284895658493
 21
3.2669999999999986
 31
0.0
  0
LINE
  5
1DD
330
17
100
AcDbEntity
  8
0
100
AcDbLine
 10
11.59284895658493
 20
4.099000000000002
 30
0.0
 11
11.59284895658493
 21
4.707000000000006
 31
0.0
  0
LINE
  5
1DE
330
17
100
AcDbEntity
  8
0
100
AcDbLine
 10
11.59284895658493
 20
4.707000000000006
 30
0.0
 11
11.59284895658493
 21
5.066999999999998
 31
0.0
  0
LINE
  5
1DF
330
17
100
AcDbEntity
  8
0
100
AcDbLine
 10
11.59284895658493
 20
5.899000000000002
 30
0.0
 11
11.59284895658493
 21
6.258999999999994
 31
0.0
  0
LINE
  5
1E0
330
17
100
AcDbEntity
  8
0
100
AcDbLine
 10
11.59284895658493
 20
6.258999999999994
 30
0.0
 11
11.59284895658493
 21
6.866999999999998
 31
0.0
  0
LINE
  5
1E1
330
17
100
AcDbEntity
  8
0
100
AcDbLine
 10
11.59284895658493
 20
7.699000000000002
 30
0.0
 11
11.59284895658493
 21
8.058999999999994
 31
0.0
  0
LINE
  5
1E2
330
17
100
AcDbEntity
  8
0
100
AcDbLine
 10
11.59284895658493
 20
8.058999999999994
 30
0.0
 11
11.59284895658493
 21
8.666999999999998
 31
0.0
  0
LINE
  5
1E3
330
17
100
AcDbEntity
  8
0
100
AcDbLine
 10
11.59284895658493
 20
9.499000000000002
 30
0.0
 11
11.59284895658493
 21
10.107000000000006
 31
0.0
  0
LINE
  5
1E4
330
17
100
AcDbEntity
  8
0
100
AcDbLine
 10
11.59284895658493
 20
10.107000000000006
 30
0.0
 11
11.59284895658493
 21
10.466999999999999
 31
0.0
  0
LINE
  5
1E5
330
17
100
AcDbEntity
  8
0
100
AcDbLine
 10
11.59284895658493
 20
11.299000000000003
 30
0.0
 11
11.59284895658493
 21
11.658999999999995
 31
0.0
  0
LINE
  5
1E6
330
17
100
AcDbEntity
  8
0
100
AcDbLine
 10
11.59284895658493
 20
11.658999999999995
 30
0.0
 11
11.59284895658493
 21
12.266999999999998
 31
0.0
  0
LINE
  5
1E7
330
17
100
AcDbEntity
  8
0
100
AcDbLine
 10
11.59284895658493
 20
13.099000000000002
 30
0.0
 11
11.59284895658493
 21
13.707000000000006
 31
0.0
  0
LINE
  5
1E8
330
17
100
AcDbEntity
  8
0
100
AcDbLine
 10
11.59284895658493
 20
13.707000000000006
 30
0.0
 11
11.59284895658493
 21
14.066999999999998
 31
0.0
  0
LINE
  5
1E9
330
17
100
AcDbEntity
  8
0
100
AcDbLine
 10
12.09284895658493
 20
1.1639200000000047
 30
0.0
 11
12.09284895658493
 21
1.4679999999999982
 31
0.0
  0
LINE
  5
1EA
330
17
100
AcDbEntity
  8
0
100
AcDbLine
 10
12.09284895658493
 20
1.1639200000000047
 30
0.0
 11
12.09284895658493
 21
1.4679999999999982
 31
0.0
  0
LINE
  5
1EB
330
17
100
AcDbEntity
  8
0
100
AcDbLine
 10
12.09284895658493
 20
2.3000000000000016
 30
0.0
 11
12.09284895658493
 21
2.908000000000006
 31
0.0
  0
LINE
  5
1EC
330
17
100
AcDbEntity
  8
0
100
AcDbLine
 10
12.09284895658493
 20
2.908000000000006
 30
0.0
 11
12.09284895658493
 21
3.2679999999999985
 31
0.0
  0
LINE
  5
1ED
330
17
100
AcDbEntity
  8
0
100
AcDbLine
 10
12.09284895658493
 20
4.100000000000002
 30
0.0
 11
12.09284895658493
 21
4.7080000000000055
 31
0.0
  0
LINE
  5
1EE
330
17
100
AcDbEntity
  8
0
100
AcDbLine
 10
12.09284895658493
 20
4.7080000000000055
 30
0.0
 11
12.09284895658493
 21
5.067999999999999
 31
0.0
  0
LINE
  5
1EF
330
17
100
AcDbEntity
  8
0
100
AcDbLine
 10
12.09284895658493
 20
5.900000000000002
 30
0.0
 11
12.09284895658493
 21
6.508000000000006
 31
0.0
  0
LINE
  5
1F0
330
17
100
AcDbEntity
  8
0
100
AcDbLine
 10
12.09284895658493
 20
6.508000000000006
 30
0.0
 11
12.09284895658493
 21
6.8679999999999986
 31
0.0
  0
LINE
  5
1F1
330
17
100
AcDbEntity
  8
0
100
AcDbLine
 10
12.09284895658493
 20
7.700000000000002
 30
0.0
 11
12.09284895658493
 21
8.308000000000005
 31
0.0
  0
LINE
  5
1F2
330
17
100
AcDbEntity
  8
0
100
AcDbLine
 10
12.09284895658493
 20
8.308000000000005
 30
0.0
 11
12.09284895658493
 21
8.667999999999997
 31
0.0
  0
LINE
  5
1F3
330
17
100
AcDbEntity
  8
0
100
AcDbLine
 10
12.09284895658493
 20
9.500000000000002
 30
0.0
 11
12.09284895658493
 21
10.108000000000006
 31
0.0
  0
LINE
  5
1F4
330
17
100
AcDbEntity
  8
0
100
AcDbLine
 10
12.09284895658493
 20
10.108000000000006
 30
0.0
 11
12.09284895658493
 21
10.467999999999998
 31
0.0
  0
LINE
  5
1F5
330
17
100
AcDbEntity
  8
0
100
AcDbLine
 10
12.09284895658493
 20
11.300000000000002
 30
0.0
 11
12.09284895658493
 21
11.908000000000007
 31
0.0
  0
LINE
  5
1F6
330
17
100
AcDbEntity
  8
0
100
AcDbLine
 10
12.09284895658493
 20
11.908000000000007
 30
0.0
 11
12.09284895658493
 21
12.267999999999999
 31
0.0
  0
LINE
  5
1F7
330
17
100
AcDbEntity
  8
0
100
AcDbLine
 10
12.09284895658493
 20
13.100000000000003
 30
0.0
 11
12.09284895658493
 21
13.459999999999996
 31
0.0
  0
LINE
  5
1F8
330
17
100
AcDbEntity
  8
0
100
AcDbLine
 10
12.09284895658493
 20
13.459999999999996
 30
0.0
 11
12.09284895658493
 21
14.067999999999998
 31
0.0
  0
LINE
  5
1F9
330
17
100
AcDbEntity
  8
0
100
AcDbLine
 10
12.59284895658493
 20
1.1618000000000048
 30
0.0
 11
12.59284895658493
 21
1.4689999999999983
 31
0.0
  0
LINE
  5
1FA
330
17
100
AcDbEntity
  8
0
100
AcDbLine
 10
12.59284895658493
 20
1.1618000000000048
 30
0.0
 11
12.59284895658493
 21
1.4689999999999983
 31
0.0
  0
LINE
  5
1FB
330
17
100
AcDbEntity
  8
0
100
AcDbLine
 10
12.59284895658493
 20
2.301000000000002
 30
0.0
 11
12.59284895658493
 21
2.909000000000006
 31
0.0
  0
LINE
  5
1FC
330
17
100
AcDbEntity
  8
0
100
AcDbLine
 10
12.59284895658493
 20
2.909000000000006
 30
0.0
 11
12.59284895658493
 21
3.2689999999999984
 31
0.0
  0
LINE
  5
1FD
330
17
100
AcDbEntity
  8
0
100
AcDbLine
 10
12.59284895658493
 20
4.101000000000002
 30
0.0
 11
12.59284895658493
 21
4.460999999999994
 31
0.0
  0
LINE
  5
1FE
330
17
100
AcDbEntity
  8
0
100
AcDbLine
 10
12.59284895658493
 20
4.460999999999994
 30
0.0
 11
12.59284895658493
 21
5.068999999999998
 31
0.0
  0
LINE
  5
1FF
330
17
100
AcDbEntity
  8
0
100
AcDbLine
 10
12.59284895658493
 20
5.901000000000002
 30
0.0
 11
12.59284895658493
 21
6.260999999999994
 31
0.0
  0
LINE
  5
200
330
17
100
AcDbEntity
  8
0
100
AcDbLine
 10
12.59284895658493
 20
6.260999999999994
 30
0.0
 11
12.59284895658493
 21
6.868999999999998
 31
0.0
  0
LINE
  5
201
330
17
100
AcDbEntity
  8
0
100
AcDbLine
 10
12.59284895658493
 20
7.701000000000002
 30
0.0
 11
12.59284895658493
 21
8.060999999999995
 31
0.0
  0
LINE
  5
202
330
17
100
AcDbEntity
  8
0
100
AcDbLine
 10
12.59284895658493
 20
8.060999999999995
 30
0.0
 11
12.59284895658493
 21
8.668999999999999
 31
0.0
  0
LINE
  5
203
330
17
100
AcDbEntity
  8
0
100
AcDbLine
 10
12.59284895658493
 20
9.501000000000003
 30
0.0
 11
12.59284895658493
 21
9.860999999999995
 31
0.0
  0
LINE
  5
204
330
17
100
AcDbEntity
  8
0
100
AcDbLine
 10
12.59284895658493
 20
9.860999999999995
 30
0.0
 11
12.59284895658493
 21
10.468999999999998
 31
0.0
  0
LINE
  5
205
330
17
100
AcDbEntity
  8
0
100
AcDbLine
 10
12.59284895658493
 20
11.301000000000002
 30
0.0
 11
12.59284895658493
 21
11.909000000000006
 31
0.0
  0
LINE
  5
206
330
17
100
AcDbEntity
  8
0
100
AcDbLine
 10
12.59284895658493
 20
11.909000000000006
 30
0.0
 11
12.59284895658493
 21
12.268999999999998
 31
0.0
  0
LINE
  5
207
330
17
100
AcDbEntity
  8
0
100
AcDbLine
 10
12.59284895658493
 20
13.101000000000003
 30
0.0
 11
12.59284895658493
 21
13.709000000000005
 31
0.0
  0
LINE
  5
208
330
17
100
AcDbEntity
  8
0
100
AcDbLine
 10
12.59284895658493
 20
13.709000000000005
 30
0.0
 11
12.59284895658493
 21
14.068999999999997
 31
0.0
  0
LINE
  5
209
330
17
100
AcDbEntity
  8
0
100
AcDbLine
 10
13.09284895658493
 20
1.1618000000000048
 30
0.0
 11
13.09284895658493
 21
1.4692399999999983
 31
0.0
  0
LINE
  5
20A
330
17
100
AcDbEntity
  8
0
100
AcDbLine
 10
13.09284895658493
 20
1.1618000000000048
 30
0.0
 11
13.09284895658493
 21
1.4692399999999983
 31
0.0
  0
LINE
  5
20B
330
17
100
AcDbEntity
  8
0
100
AcDbLine
 10
13.09284895658493
 20
1.4692399999999983
 30
0.0
 11
13.09284895658493
 21
1.4699999999999984
 31
0.0
  0
LINE
  5
20C
330
17
100
AcDbEntity
  8
0
100
AcDbLine
 10
13.09284895658493
 20
2.301000000000002
 30
0.0
 11
13.09284895658493
 21
2.909000000000006
 31
0.0
  0
LINE
  5
20D
330
17
100
AcDbEntity
  8
0
100
AcDbLine
 10
13.09284895658493
 20
2.909000000000006
 30
0.0
 11
13.09284895658493
 21
3.269239999999998
 31
0.0
  0
LINE
  5
20E
330
17
100
AcDbEntity
  8
0
100
AcDbLine
 10
13.09284895658493
 20
3.269239999999998
 30
0.0
 11
13.09284895658493
 21
3.2699999999999982
 31
0.0
  0
LINE
  5
20F
330
17
100
AcDbEntity
  8
0
100
AcDbLine
 10
13.09284895658493
 20
4.101000000000003
 30
0.0
 11
13.09284895658493
 21
4.709000000000006
 31
0.0
  0
LINE
  5
210
330
17
100
AcDbEntity
  8
0
100
AcDbLine
 10
13.09284895658493
 20
4.709000000000006
 30
0.0
 11
13.09284895658493
 21
5.069239999999999
 31
0.0
  0
LINE
  5
211
330
17
100
AcDbEntity
  8
0
100
AcDbLine
 10
13.09284895658493
 20
5.069239999999999
 30
0.0
 11
13.09284895658493
 21
5.0699999999999985
 31
0.0
  0
LINE
  5
212
330
17
100
AcDbEntity
  8
0
100
AcDbLine
 10
13.09284895658493
 20
5.901000000000002
 30
0.0
 11
13.09284895658493
 21
6.509000000000006
 31
0.0
  0
LINE
  5
213
330
17
100
AcDbEntity
  8
0
100
AcDbLine
 10
13.09284895658493
 20
6.509000000000006
 30
0.0
 11
13.09284895658493
 21
6.869239999999999
 31
0.0
  0
LINE
  5
214
330
17
100
AcDbEntity
  8
0
100
AcDbLine
 10
13.09284895658493
 20
6.869239999999999
 30
0.0
 11
13.09284895658493
 21
6.869999999999998
 31
0.0
  0
LINE
  5
215
330
17
100
AcDbEntity
  8
0
100
AcDbLine
 10
13.09284895658493
 20
7.701000000000002
 30
0.0
 11
13.09284895658493
 21
8.309000000000006
 31
0.0
  0
LINE
  5
216
330
17
100
AcDbEntity
  8
0
100
AcDbLine
 10
13.09284895658493
 20
8.309000000000006
 30
0.0
 11
13.09284895658493
 21
8.669239999999999
 31
0.0
  0
LINE
  5
217
330
17
100
AcDbEntity
  8
0
100
AcDbLine
 10
13.09284895658493
 20
8.669239999999999
 30
0.0
 11
13.09284895658493
 21
8.669999999999998
 31
0.0
  0
LINE
  5
218
330
17
100
AcDbEntity
  8
0
100
AcDbLine
 10
13.09284895658493
 20
9.501000000000003
 30
0.0
 11
13.09284895658493
 21
10.109000000000005
 31
0.0
  0
LINE
  5
219
330
17
100
AcDbEntity
  8
0
100
AcDbLine
 10
13.09284895658493
 20
10.109000000000005
 30
0.0
 11
13.09284895658493
 21
10.469239999999997
 31
0.0
  0
LINE
  5
21A
330
17
100
AcDbEntity
  8
0
100
AcDbLine
 10
13.09284895658493
 20
10.469239999999997
 30
0.0
 11
13.09284895658493
 21
10.469999999999999
 31
0.0
  0
LINE
  5
21B
330
17
100
AcDbEntity
  8
0
100
AcDbLine
 10
13.09284895658493
 20
11.301000000000002
 30
0.0
 11
13.09284895658493
 21
11.909000000000006
 31
0.0
  0
LINE
  5
21C
330
17
100
AcDbEntity
  8
0
100
AcDbLine
 10
13.09284895658493
 20
11.909000000000006
 30
0.0
 11
13.09284895658493
 21
12.269239999999998
 31
0.0
  0
LINE
  5
21D
330
17
100
AcDbEntity
  8
0
100
AcDbLine
 10
13.09284895658493
 20
12.269239999999998
 30
0.0
 11
13.09284895658493
 21
12.269999999999998
 31
0.0
  0
LINE
  5
21E
330
17
100
AcDbEntity
  8
0
100
AcDbLine
 10
13.09284895658493
 20
13.101000000000003
 30
0.0
 11
13.09284895658493
 21
13.709000000000005
 31
0.0
  0
LINE
  5
21F
330
17
100
AcDbEntity
  8
0
100
AcDbLine
 10
13.09284895658493
 20
13.709000000000005
 30
0.0
 11
13.09284895658493
 21
14.069239999999997
 31
0.0
  0
LINE
  5
220
330
17
100
AcDbEntity
  8
0
100
AcDbLine
 10
13.09284895658493
 20
14.069239999999997
 30
0.0
 11
13.09284895658493
 21
14.069999999999999
 31
0.0
  0
LINE
  5
221
330
17
100
AcDbEntity
  8
0
100
AcDbLine
 10
13.59284895658493
 20
1.1788800000000044
 30
0.0
 11
13.59284895658493
 21
1.4699999999999984
 31
0.0
  0
LINE
  5
222
330
17
100
AcDbEntity
  8
0
100
AcDbLine
 10
13.59284895658493
 20
1.1788800000000044
 30
0.0
 11
13.59284895658493
 21
1.4699999999999984
 31
0.0
  0
LINE
  5
223
330
17
100
AcDbEntity
  8
0
100
AcDbLine
 10
13.59284895658493
 20
2.302000000000002
 30
0.0
 11
13.59284895658493
 21
2.910000000000006
 31
0.0
  0
LINE
  5
224
330
17
100
AcDbEntity
  8
0
100
AcDbLine
 10
13.59284895658493
 20
2.910000000000006
 30
0.0
 11
13.59284895658493
 21
3.2699999999999982
 31
0.0
  0
LINE
  5
225
330
17
100
AcDbEntity
  8
0
100
AcDbLine
 10
13.59284895658493
 20
4.102000000000002
 30
0.0
 11
13.59284895658493
 21
4.710000000000006
 31
0.0
  0
LINE
  5
226
330
17
100
AcDbEntity
  8
0
100
AcDbLine
 10
13.59284895658493
 20
4.710000000000006
 30
0.0
 11
13.59284895658493
 21
5.0699999999999985
 31
0.0
  0
LINE
  5
227
330
17
100
AcDbEntity
  8
0
100
AcDbLine
 10
13.59284895658493
 20
5.902000000000002
 30
0.0
 11
13.59284895658493
 21
6.510000000000006
 31
0.0
  0
LINE
  5
228
330
17
100
AcDbEntity
  8
0
100
AcDbLine
 10
13.59284895658493
 20
6.510000000000006
 30
0.0
 11
13.59284895658493
 21
6.869999999999998
 31
0.0
  0
LINE
  5
229
330
17
100
AcDbEntity
  8
0
100
AcDbLine
 10
13.59284895658493
 20
7.702000000000002
 30
0.0
 11
13.59284895658493
 21
8.061999999999994
 31
0.0
  0
LINE
  5
22A
330
17
100
AcDbEntity
  8
0
100
AcDbLine
 10
13.59284895658493
 20
8.061999999999994
 30
0.0
 11
13.59284895658493
 21
8.669999999999998
 31
0.0
  0
LINE
  5
22B
330
17
100
AcDbEntity
  8
0
100
AcDbLine
 10
13.59284895658493
 20
9.502000000000002
 30
0.0
 11
13.59284895658493
 21
10.110000000000007
 31
0.0
  0
LINE
  5
22C
330
17
100
AcDbEntity
  8
0
100
AcDbLine
 10
13.59284895658493
 20
10.110000000000007
 30
0.0
 11
13.59284895658493
 21
10.469999999999999
 31
0.0
  0
LINE
  5
22D
330
17
100
AcDbEntity
  8
0
100
AcDbLine
 10
13.59284895658493
 20
11.302000000000003
 30
0.0
 11
13.59284895658493
 21
11.661999999999995
 31
0.0
  0
LINE
  5
22E
330
17
100
AcDbEntity
  8
0
100
AcDbLine
 10
13.59284895658493
 20
11.661999999999995
 30
0.0
 11
13.59284895658493
 21
12.269999999999998
 31
0.0
  0
LINE
  5
22F
330
17
100
AcDbEntity
  8
0
100
AcDbLine
 10
13.59284895658493
 20
13.102000000000002
 30
0.0
 11
13.59284895658493
 21
13.710000000000006
 31
0.0
  0
LINE
  5
230
330
17
100
AcDbEntity
  8
0
100
AcDbLine
 10
13.59284895658493
 20
13.710000000000006
 30
0.0
 11
13.59284895658493
 21
14.069999999999999
 31
0.0
  0
LINE
  5
231
330
17
100
AcDbEntity
  8
0
100
AcDbLine
 10
14.09284895658493
 20
1.2110800000000037
 30
0.0
 11
14.09284895658493
 21
1.4709999999999983
 31
0.0
  0
LINE
  5
232
330
17
100
AcDbEntity
  8
0
100
AcDbLine
 10
14.09284895658493
 20
1.2110800000000037
 30
0.0
 11
14.09284895658493
 21
1.4709999999999983
 31
0.0
  0
LINE
  5
233
330
17
100
AcDbEntity
  8
0
100
AcDbLine
 10
14.09284895658493
 20
2.3030000000000017
 30
0.0
 11
14.09284895658493
 21
2.662999999999994
 31
0.0
  0
LINE
  5
234
330
17
100
AcDbEntity
  8
0
100
AcDbLine
 10
14.09284895658493
 20
2.662999999999994
 30
0.0
 11
14.09284895658493
 21
3.2709999999999986
 31
0.0
  0
LINE
  5
235
330
17
100
AcDbEntity
  8
0
100
AcDbLine
 10
14.09284895658493
 20
4.103000000000002
 30
0.0
 11
14.09284895658493
 21
4.462999999999994
 31
0.0
  0
LINE
  5
236
330
17
100
AcDbEntity
  8
0
100
AcDbLine
 10
14.09284895658493
 20
4.462999999999994
 30
0.0
 11
14.09284895658493
 21
5.070999999999998
 31
0.0
  0
LINE
  5
237
330
17
100
AcDbEntity
  8
0
100
AcDbLine
 10
14.09284895658493
 20
5.903000000000002
 30
0.0
 11
14.09284895658493
 21
6.511000000000006
 31
0.0
  0
LINE
  5
238
330
17
100
AcDbEntity
  8
0
100
AcDbLine
 10
14.09284895658493
 20
6.511000000000006
 30
0.0
 11
14.09284895658493
 21
6.870999999999999
 31
0.0
  0
LINE
  5
239
330
17
100
AcDbEntity
  8
0
100
AcDbLine
 10
14.09284895658493
 20
7.703000000000002
 30
0.0
 11
14.09284895658493
 21
8.062999999999994
 31
0.0
  0
LINE
  5
23A
330
17
100
AcDbEntity
  8
0
100
AcDbLine
 10
14.09284895658493
 20
8.062999999999994
 30
0.0
 11
14.09284895658493
 21
8.670999999999998
 31
0.0
  0
LINE
  5
23B
330
17
100
AcDbEntity
  8
0
100
AcDbLine
 10
14.09284895658493
 20
9.503000000000002
 30
0.0
 11
14.09284895658493
 21
10.111000000000006
 31
0.0
  0
LINE
  5
23C
330
17
100
AcDbEntity
  8
0
100
AcDbLine
 10
14.09284895658493
 20
10.111000000000006
 30
0.0
 11
14.09284895658493
 21
10.470999999999998
 31
0.0
  0
LINE
  5
23D
330
17
100
AcDbEntity
  8
0
100
AcDbLine
 10
14.09284895658493
 20
11.303000000000003
 30
0.0
 11
14.09284895658493
 21
11.911000000000005
 31
0.0
  0
LINE
  5
23E
330
17
100
AcDbEntity
  8
0
100
AcDbLine
 10
14.09284895658493
 20
11.911000000000005
 30
0.0
 11
14.09284895658493
 21
12.270999999999997
 31
0.0
  0
LINE
  5
23F
330
17
100
AcDbEntity
  8
0
100
AcDbLine
 10
14.09284895658493
 20
13.103000000000002
 30
0.0
 11
14.09284895658493
 21
13.711000000000006
 31
0.0
  0
LINE
  5
240
330
17
100
AcDbEntity
  8
0
100
AcDbLine
 10
14.09284895658493
 20
13.711000000000006
 30
0.0
 11
14.09284895658493
 21
14.070999999999998
 31
0.0
  0
LINE
  5
241
330
17
100
AcDbEntity
  8
0
100
AcDbLine
 10
14.59284895658493
 20
1.348360000000001
 30
0.0
 11
14.59284895658493
 21
1.349120000000001
 31
0.0
  0
LINE
  5
242
330
17
100
AcDbEntity
  8
0
100
AcDbLine
 10
14.59284895658493
 20
1.348360000000001
 30
0.0
 11
14.59284895658493
 21
1.349120000000001
 31
0.0
  0
LINE
  5
243
330
17
100
AcDbEntity
  8
0
100
AcDbLine
 10
14.59284895658493
 20
1.349120000000001
 30
0.0
 11
14.59284895658493
 21
1.4719999999999982
 31
0.0
  0
LINE
  5
244
330
17
100
AcDbEntity
  8
0
100
AcDbLine
 10
14.59284895658493
 20
2.303240000000002
 30
0.0
 11
14.59284895658493
 21
2.3040000000000016
 31
0.0
  0
LINE
  5
245
330
17
100
AcDbEntity
  8
0
100
AcDbLine
 10
14.59284895658493
 20
2.3040000000000016
 30
0.0
 11
14.59284895658493
 21
2.912000000000006
 31
0.0
  0
LINE
  5
246
330
17
100
AcDbEntity
  8
0
100
AcDbLine
 10
14.59284895658493
 20
2.912000000000006
 30
0.0
 11
14.59284895658493
 21
3.2719999999999985
 31
0.0
  0
LINE
  5
247
330
17
100
AcDbEntity
  8
0
100
AcDbLine
 10
14.59284895658493
 20
4.103240000000002
 30
0.0
 11
14.59284895658493
 21
4.104000000000002
 31
0.0
  0
LINE
  5
248
330
17
100
AcDbEntity
  8
0
100
AcDbLine
 10
14.59284895658493
 20
4.104000000000002
 30
0.0
 11
14.59284895658493
 21
4.712000000000006
 31
0.0
  0
LINE
  5
249
330
17
100
AcDbEntity
  8
0
100
AcDbLine
 10
14.59284895658493
 20
4.712000000000006
 30
0.0
 11
14.59284895658493
 21
5.071999999999998
 31
0.0
  0
LINE
  5
24A
330
17
100
AcDbEntity
  8
0
100
AcDbLine
 10
14.59284895658493
 20
5.903240000000002
 30
0.0
 11
14.59284895658493
 21
5.904000000000002
 31
0.0
  0
LINE
  5
24B
330
17
100
AcDbEntity
  8
0
100
AcDbLine
 10
14.59284895658493
 20
5.904000000000002
 30
0.0
 11
14.59284895658493
 21
6.263999999999994
 31
0.0
  0
LINE
  5
24C
330
17
100
AcDbEntity
  8
0
100
AcDbLine
 10
14.59284895658493
 20
6.263999999999994
 30
0.0
 11
14.59284895658493
 21
6.871999999999998
 31
0.0
  0
LINE
  5
24D
330
17
100
AcDbEntity
  8
0
100
AcDbLine
 10
14.59284895658493
 20
7.703240000000002
 30
0.0
 11
14.59284895658493
 21
7.7040000000000015
 31
0.0
  0
LINE
  5
24E
330
17
100
AcDbEntity
  8
0
100
AcDbLine
 10
14.59284895658493
 20
7.7040000000000015
 30
0.0
 11
14.59284895658493
 21
8.063999999999995
 31
0.0
  0
LINE
  5
24F
330
17
100
AcDbEntity
  8
0
100
AcDbLine
 10
14.59284895658493
 20
8.063999999999995
 30
0.0
 11
14.59284895658493
 21
8.671999999999999
 31
0.0
  0
LINE
  5
250
330
17
100
AcDbEntity
  8
0
100
AcDbLine
 10
14.59284895658493
 20
9.503240000000002
 30
0.0
 11
14.59284895658493
 21
9.504000000000003
 31
0.0
  0
LINE
  5
251
330
17
100
AcDbEntity
  8
0
100
AcDbLine
 10
14.59284895658493
 20
9.504000000000003
 30
0.0
 11
14.59284895658493
 21
9.863999999999995
 31
0.0
  0
LINE
  5
252
330
17
100
AcDbEntity
  8
0
100
AcDbLine
 10
14.59284895658493
 20
9.863999999999995
 30
0.0
 11
14.59284895658493
 21
10.471999999999998
 31
0.0
  0
LINE
  5
253
330
17
100
AcDbEntity
  8
0
100
AcDbLine
 10
14.59284895658493
 20
11.303240000000002
 30
0.0
 11
14.59284895658493
 21
11.304000000000002
 31
0.0
  0
LINE
  5
254
330
17
100
AcDbEntity
  8
0
100
AcDbLine
 10
14.59284895658493
 20
11.304000000000002
 30
0.0
 11
14.59284895658493
 21
11.912000000000006
 31
0.0
  0
LINE
  5
255
330
17
100
AcDbEntity
  8
0
100
AcDbLine
 10
14.59284895658493
 20
11.912000000000006
 30
0.0
 11
14.59284895658493
 21
12.271999999999998
 31
0.0
  0
LINE
  5
256
330
17
100
AcDbEntity
  8
0
100
AcDbLine
 10
14.59284895658493
 20
13.103240000000001
 30
0.0
 11
14.59284895658493
 21
13.104000000000003
 31
0.0
  0
LINE
  5
257
330
17
100
AcDbEntity
  8
0
100
AcDbLine
 10
14.59284895658493
 20
13.104000000000003
 30
0.0
 11
14.59284895658493
 21
13.712000000000005
 31
0.0
  0
LINE
  5
258
330
17
100
AcDbEntity
  8
0
100
AcDbLine
 10
14.59284895658493
 20
13.712000000000005
 30
0.0
 11
14.59284895658493
 21
14.071999999999997
 31
0.0
  0
LINE
  5
259
330
17
100
AcDbEntity
  8
0
100
AcDbLine
 10
1.8000000000000018
 20
0.5922380685806274
 30
0.0
 11
2.1599999999999944
 21
0.5922380685806274
 31
0.0
  0
LINE
  5
25A
330
17
100
AcDbEntity
  8
0
100
AcDbLine
 10
1.8000000000000018
 20
0.5922380685806274
 30
0.0
 11
2.1599999999999944
 21
0.5922380685806274
 31
0.0
  0
LINE
  5
25B
330
17
100
AcDbEntity
  8
0
100
AcDbLine
 10
2.1599999999999944
 20
0.5922380685806274
 30
0.0
 11
2.7679999999999985
 21
0.5922380685806274
 31
0.0
  0
LINE
  5
25C
330
17
100
AcDbEntity
  8
0
100
AcDbLine
 10
3.600000000000002
 20
0.5922380685806274
 30
0.0
 11
4.2080000000000055
 21
0.5922380685806274
 31
0.0
  0
LINE
  5
25D
330
17
100
AcDbEntity
  8
0
100
AcDbLine
 10
4.2080000000000055
 20
0.5922380685806274
 30
0.0
 11
4.567999999999999
 21
0.5922380685806274
 31
0.0
  0
LINE
  5
25E
330
17
100
AcDbEntity
  8
0
100
AcDbLine
 10
5.400000000000002
 20
0.5922380685806274
 30
0.0
 11
6.008000000000006
 21
0.5922380685806274
 31
0.0
  0
LINE
  5
25F
330
17
100
AcDbEntity
  8
0
100
AcDbLine
 10
6.008000000000006
 20
0.5922380685806274
 30
0.0
 11
6.3679999999999986
 21
0.5922380685806274
 31
0.0
  0
LINE
  5
260
330
17
100
AcDbEntity
  8
0
100
AcDbLine
 10
7.1528800000000015
 20
0.5922380685806274
 30
0.0
 11
7.22224
 21
0.5922380685806274
 31
0.0
  0
LINE
  5
261
330
17
100
AcDbEntity
  8
0
100
AcDbLine
 10
7.22224
 20
0.5922380685806274
 30
0.0
 11
7.223
 21
0.5922380685806274
 31
0.0
  0
LINE
  5
262
330
17
100
AcDbEntity
  8
0
100
AcDbLine
 10
7.788000000000002
 20
0.5922380685806274
 30
0.0
 11
7.788760000000002
 21
0.5922380685806274
 31
0.0
  0
LINE
  5
263
330
17
100
AcDbEntity
  8
0
100
AcDbLine
 10
7.788760000000002
 20
0.5922380685806274
 30
0.0
 11
8.148999999999994
 21
0.5922380685806274
 31
0.0
  0
LINE
  5
264
330
17
100
AcDbEntity
  8
0
100
AcDbLine
 10
8.148999999999994
 20
0.5922380685806274
 30
0.0
 11
8.756999999999998
 21
0.5922380685806274
 31
0.0
  0
LINE
  5
265
330
17
100
AcDbEntity
  8
0
100
AcDbLine
 10
9.588000000000003
 20
0.5922380685806274
 30
0.0
 11
9.588760000000002
 21
0.5922380685806274
 31
0.0
  0
LINE
  5
266
330
17
100
AcDbEntity
  8
0
100
AcDbLine
 10
9.588760000000002
 20
0.5922380685806274
 30
0.0
 11
9.948999999999995
 21
0.5922380685806274
 31
0.0
  0
LINE
  5
267
330
17
100
AcDbEntity
  8
0
100
AcDbLine
 10
9.948999999999995
 20
0.5922380685806274
 30
0.0
 11
10.556999999999999
 21
0.5922380685806274
 31
0.0
  0
LINE
  5
268
330
17
100
AcDbEntity
  8
0
100
AcDbLine
 10
11.388000000000002
 20
0.5922380685806274
 30
0.0
 11
11.388760000000003
 21
0.5922380685806274
 31
0.0
  0
LINE
  5
269
330
17
100
AcDbEntity
  8
0
100
AcDbLine
 10
11.388760000000003
 20
0.5922380685806274
 30
0.0
 11
11.748999999999995
 21
0.5922380685806274
 31
0.0
  0
LINE
  5
26A
330
17
100
AcDbEntity
  8
0
100
AcDbLine
 10
11.748999999999995
 20
0.5922380685806274
 30
0.0
 11
12.356999999999998
 21
0.5922380685806274
 31
0.0
  0
LINE
  5
26B
330
17
100
AcDbEntity
  8
0
100
AcDbLine
 10
13.188000000000002
 20
0.5922380685806274
 30
0.0
 11
13.188760000000002
 21
0.5922380685806274
 31
0.0
  0
LINE
  5
26C
330
17
100
AcDbEntity
  8
0
100
AcDbLine
 10
13.188760000000002
 20
0.5922380685806274
 30
0.0
 11
13.430919999999997
 21
0.5922380685806274
 31
0.0
  0
LINE
  5
26D
330
17
100
AcDbEntity
  8
0
100
AcDbLine
 10
1.2170000000000019
 20
1.0922380685806274
 30
0.0
 11
1.8257600000000058
 21
1.0922380685806274
 31
0.0
  0
LINE
  5
26E
330
17
100
AcDbEntity
  8
0
100
AcDbLine
 10
1.2170000000000019
 20
1.0922380685806274
 30
0.0
 11
1.8257600000000058
 21
1.0922380685806274
 31
0.0
  0
LINE
  5
26F
330
17
100
AcDbEntity
  8
0
100
AcDbLine
 10
1.8257600000000058
 20
1.0922380685806274
 30
0.0
 11
2.185999999999998
 21
1.0922380685806274
 31
0.0
  0
LINE
  5
270
330
17
100
AcDbEntity
  8
0
100
AcDbLine
 10
3.0170000000000017
 20
1.0922380685806274
 30
0.0
 11
3.3772399999999942
 21
1.0922380685806274
 31
0.0
  0
LINE
  5
271
330
17
100
AcDbEntity
  8
0
100
AcDbLine
 10
3.3772399999999942
 20
1.0922380685806274
 30
0.0
 11
3.9859999999999984
 21
1.0922380685806274
 31
0.0
  0
LINE
  5
272
330
17
100
AcDbEntity
  8
0
100
AcDbLine
 10
4.817000000000002
 20
1.0922380685806274
 30
0.0
 11
5.425760000000006
 21
1.0922380685806274
 31
0.0
  0
LINE
  5
273
330
17
100
AcDbEntity
  8
0
100
AcDbLine
 10
5.425760000000006
 20
1.0922380685806274
 30
0.0
 11
5.785999999999999
 21
1.0922380685806274
 31
0.0
  0
LINE
  5
274
330
17
100
AcDbEntity
  8
0
100
AcDbLine
 10
6.617000000000002
 20
1.0922380685806274
 30
0.0
 11
6.977239999999995
 21
1.0922380685806274
 31
0.0
  0
LINE
  5
275
330
17
100
AcDbEntity
  8
0
100
AcDbLine
 10
6.977239999999995
 20
1.0922380685806274
 30
0.0
 11
7.5859999999999985
 21
1.0922380685806274
 31
0.0
  0
LINE
  5
276
330
17
100
AcDbEntity
  8
0
100
AcDbLine
 10
8.417000000000002
 20
1.0922380685806274
 30
0.0
 11
9.025760000000005
 21
1.0922380685806274
 31
0.0
  0
LINE
  5
277
330
17
100
AcDbEntity
  8
0
100
AcDbLine
 10
9.025760000000005
 20
1.0922380685806274
 30
0.0
 11
9.385999999999997
 21
1.0922380685806274
 31
0.0
  0
LINE
  5
278
330
17
100
AcDbEntity
  8
0
100
AcDbLine
 10
10.217000000000002
 20
1.0922380685806274
 30
0.0
 11
10.577239999999994
 21
1.0922380685806274
 31
0.0
  0
LINE
  5
279
330
17
100
AcDbEntity
  8
0
100
AcDbLine
 10
10.577239999999994
 20
1.0922380685806274
 30
0.0
 11
11.185999999999998
 21
1.0922380685806274
 31
0.0
  0
LINE
  5
27A
330
17
100
AcDbEntity
  8
0
100
AcDbLine
 10
12.017000000000003
 20
1.0922380685806274
 30
0.0
 11
12.377239999999995
 21
1.0922380685806274
 31
0.0
  0
LINE
  5
27B
330
17
100
AcDbEntity
  8
0
100
AcDbLine
 10
12.377239999999995
 20
1.0922380685806274
 30
0.0
 11
12.985999999999999
 21
1.0922380685806274
 31
0.0
  0
LINE
  5
27C
330
17
100
AcDbEntity
  8
0
100
AcDbLine
 10
13.817000000000002
 20
1.0922380685806274
 30
0.0
 11
13.817760000000003
 21
1.0922380685806274
 31
0.0
  0
LINE
  5
27D
330
17
100
AcDbEntity
  8
0
100
AcDbLine
 10
13.817760000000003
 20
1.0922380685806274
 30
0.0
 11
14.054399999999998
 21
1.0922380685806274
 31
0.0
  0
LINE
  5
27E
330
17
100
AcDbEntity
  8
0
100
AcDbLine
 10
1.0850000000000017
 20
1.5922380685806274
 30
0.0
 11
1.444999999999994
 21
1.5922380685806274
 31
0.0
  0
LINE
  5
27F
330
17
100
AcDbEntity
  8
0
100
AcDbLine
 10
1.0850000000000017
 20
1.5922380685806274
 30
0.0
 11
1.444999999999994
 21
1.5922380685806274
 31
0.0
  0
LINE
  5
280
330
17
100
AcDbEntity
  8
0
100
AcDbLine
 10
1.444999999999994
 20
1.5922380685806274
 30
0.0
 11
2.052999999999998
 21
1.5922380685806274
 31
0.0
  0
LINE
  5
281
330
17
100
AcDbEntity
  8
0
100
AcDbLine
 10
2.8850000000000016
 20
1.5922380685806274
 30
0.0
 11
3.244999999999994
 21
1.5922380685806274
 31
0.0
  0
LINE
  5
282
330
17
100
AcDbEntity
  8
0
100
AcDbLine
 10
3.244999999999994
 20
1.5922380685806274
 30
0.0
 11
3.8529999999999984
 21
1.5922380685806274
 31
0.0
  0
LINE
  5
283
330
17
100
AcDbEntity
  8
0
100
AcDbLine
 10
4.685000000000002
 20
1.5922380685806274
 30
0.0
 11
5.293000000000006
 21
1.5922380685806274
 31
0.0
  0
LINE
  5
284
330
17
100
AcDbEntity
  8
0
100
AcDbLine
 10
5.293000000000006
 20
1.5922380685806274
 30
0.0
 11
5.652999999999999
 21
1.5922380685806274
 31
0.0
  0
LINE
  5
285
330
17
100
AcDbEntity
  8
0
100
AcDbLine
 10
6.485000000000002
 20
1.5922380685806274
 30
0.0
 11
7.093000000000005
 21
1.5922380685806274
 31
0.0
  0
LINE
  5
286
330
17
100
AcDbEntity
  8
0
100
AcDbLine
 10
7.093000000000005
 20
1.5922380685806274
 30
0.0
 11
7.4529999999999985
 21
1.5922380685806274
 31
0.0
  0
LINE
  5
287
330
17
100
AcDbEntity
  8
0
100
AcDbLine
 10
8.285000000000002
 20
1.5922380685806274
 30
0.0
 11
8.644999999999994
 21
1.5922380685806274
 31
0.0
  0
LINE
  5
288
330
17
100
AcDbEntity
  8
0
100
AcDbLine
 10
8.644999999999994
 20
1.5922380685806274
 30
0.0
 11
9.252999999999998
 21
1.5922380685806274
 31
0.0
  0
LINE
  5
289
330
17
100
AcDbEntity
  8
0
100
AcDbLine
 10
10.085000000000003
 20
1.5922380685806274
 30
0.0
 11
10.693000000000005
 21
1.5922380685806274
 31
0.0
  0
LINE
  5
28A
330
17
100
AcDbEntity
  8
0
100
AcDbLine
 10
10.693000000000005
 20
1.5922380685806274
 30
0.0
 11
11.052999999999997
 21
1.5922380685806274
 31
0.0
  0
LINE
  5
28B
330
17
100
AcDbEntity
  8
0
100
AcDbLine
 10
11.885000000000002
 20
1.5922380685806274
 30
0.0
 11
12.244999999999994
 21
1.5922380685806274
 31
0.0
  0
LINE
  5
28C
330
17
100
AcDbEntity
  8
0
100
AcDbLine
 10
12.244999999999994
 20
1.5922380685806274
 30
0.0
 11
12.852999999999998
 21
1.5922380685806274
 31
0.0
  0
LINE
  5
28D
330
17
100
AcDbEntity
  8
0
100
AcDbLine
 10
13.685000000000002
 20
1.5922380685806274
 30
0.0
 11
13.983799999999995
 21
1.5922380685806274
 31
0.0
  0
LINE
  5
28E
330
17
100
AcDbEntity
  8
0
100
AcDbLine
 10
1.0220000000000018
 20
2.0922380685806274
 30
0.0
 11
1.3819999999999943
 21
2.0922380685806274
 31
0.0
  0
LINE
  5
28F
330
17
100
AcDbEntity
  8
0
100
AcDbLine
 10
1.0220000000000018
 20
2.0922380685806274
 30
0.0
 11
1.3819999999999943
 21
2.0922380685806274
 31
0.0
  0
LINE
  5
290
330
17
100
AcDbEntity
  8
0
100
AcDbLine
 10
1.3819999999999943
 20
2.0922380685806274
 30
0.0
 11
1.9899999999999984
 21
2.0922380685806274
 31
0.0
  0
LINE
  5
291
330
17
100
AcDbEntity
  8
0
100
AcDbLine
 10
2.822000000000002
 20
2.0922380685806274
 30
0.0
 11
3.181999999999994
 21
2.0922380685806274
 31
0.0
  0
LINE
  5
292
330
17
100
AcDbEntity
  8
0
100
AcDbLine
 10
3.181999999999994
 20
2.0922380685806274
 30
0.0
 11
3.7899999999999983
 21
2.0922380685806274
 31
0.0
  0
LINE
  5
293
330
17
100
AcDbEntity
  8
0
100
AcDbLine
 10
4.622000000000002
 20
2.0922380685806274
 30
0.0
 11
4.981999999999994
 21
2.0922380685806274
 31
0.0
  0
LINE
  5
294
330
17
100
AcDbEntity
  8
0
100
AcDbLine
 10
4.981999999999994
 20
2.0922380685806274
 30
0.0
 11
5.589999999999998
 21
2.0922380685806274
 31
0.0
  0
LINE
  5
295
330
17
100
AcDbEntity
  8
0
100
AcDbLine
 10
6.422000000000002
 20
2.0922380685806274
 30
0.0
 11
7.030000000000006
 21
2.0922380685806274
 31
0.0
  0
LINE
  5
296
330
17
100
AcDbEntity
  8
0
100
AcDbLine
 10
7.030000000000006
 20
2.0922380685806274
 30
0.0
 11
7.389999999999999
 21
2.0922380685806274
 31
0.0
  0
LINE
  5
297
330
17
100
AcDbEntity
  8
0
100
AcDbLine
 10
8.222000000000003
 20
2.0922380685806274
 30
0.0
 11
8.581999999999995
 21
2.0922380685806274
 31
0.0
  0
LINE
  5
298
330
17
100
AcDbEntity
  8
0
100
AcDbLine
 10
8.581999999999995
 20
2.0922380685806274
 30
0.0
 11
9.189999999999998
 21
2.0922380685806274
 31
0.0
  0
LINE
  5
299
330
17
100
AcDbEntity
  8
0
100
AcDbLine
 10
10.022000000000002
 20
2.0922380685806274
 30
0.0
 11
10.381999999999994
 21
2.0922380685806274
 31
0.0
  0
LINE
  5
29A
330
17
100
AcDbEntity
  8
0
100
AcDbLine
 10
10.381999999999994
 20
2.0922380685806274
 30
0.0
 11
10.989999999999998
 21
2.0922380685806274
 31
0.0
  0
LINE
  5
29B
330
17
100
AcDbEntity
  8
0
100
AcDbLine
 10
11.822000000000003
 20
2.0922380685806274
 30
0.0
 11
12.430000000000005
 21
2.0922380685806274
 31
0.0
  0
LINE
  5
29C
330
17
100
AcDbEntity
  8
0
100
AcDbLine
 10
12.430000000000005
 20
2.0922380685806274
 30
0.0
 11
12.789999999999997
 21
2.0922380685806274
 31
0.0
  0
LINE
  5
29D
330
17
100
AcDbEntity
  8
0
100
AcDbLine
 10
13.622000000000002
 20
2.0922380685806274
 30
0.0
 11
13.951279999999993
 21
2.0922380685806274
 31
0.0
  0
LINE
  5
29E
330
17
100
AcDbEntity
  8
0
100
AcDbLine
 10
1.0160000000000018
 20
2.5922380685806274
 30
0.0
 11
1.0167600000000019
 21
2.5922380685806274
 31
0.0
  0
LINE
  5
29F
330
17
100
AcDbEntity
  8
0
100
AcDbLine
 10
1.0160000000000018
 20
2.5922380685806274
 30
0.0
 11
1.0167600000000019
 21
2.5922380685806274
 31
0.0
  0
LINE
  5
2A0
330
17
100
AcDbEntity
  8
0
100
AcDbLine
 10
1.0167600000000019
 20
2.5922380685806274
 30
0.0
 11
1.376999999999994
 21
2.5922380685806274
 31
0.0
  0
LINE
  5
2A1
330
17
100
AcDbEntity
  8
0
100
AcDbLine
 10
1.376999999999994
 20
2.5922380685806274
 30
0.0
 11
1.984999999999998
 21
2.5922380685806274
 31
0.0
  0
LINE
  5
2A2
330
17
100
AcDbEntity
  8
0
100
AcDbLine
 10
2.8160000000000016
 20
2.5922380685806274
 30
0.0
 11
2.816760000000002
 21
2.5922380685806274
 31
0.0
  0
LINE
  5
2A3
330
17
100
AcDbEntity
  8
0
100
AcDbLine
 10
2.816760000000002
 20
2.5922380685806274
 30
0.0
 11
3.1769999999999943
 21
2.5922380685806274
 31
0.0
  0
LINE
  5
2A4
330
17
100
AcDbEntity
  8
0
100
AcDbLine
 10
3.1769999999999943
 20
2.5922380685806274
 30
0.0
 11
3.7849999999999984
 21
2.5922380685806274
 31
0.0
  0
LINE
  5
2A5
330
17
100
AcDbEntity
  8
0
100
AcDbLine
 10
4.616000000000002
 20
2.5922380685806274
 30
0.0
 11
4.616760000000002
 21
2.5922380685806274
 31
0.0
  0
LINE
  5
2A6
330
17
100
AcDbEntity
  8
0
100
AcDbLine
 10
4.616760000000002
 20
2.5922380685806274
 30
0.0
 11
4.976999999999994
 21
2.5922380685806274
 31
0.0
  0
LINE
  5
2A7
330
17
100
AcDbEntity
  8
0
100
AcDbLine
 10
4.976999999999994
 20
2.5922380685806274
 30
0.0
 11
5.584999999999998
 21
2.5922380685806274
 31
0.0
  0
LINE
  5
2A8
330
17
100
AcDbEntity
  8
0
100
AcDbLine
 10
6.416000000000002
 20
2.5922380685806274
 30
0.0
 11
6.416760000000002
 21
2.5922380685806274
 31
0.0
  0
LINE
  5
2A9
330
17
100
AcDbEntity
  8
0
100
AcDbLine
 10
6.416760000000002
 20
2.5922380685806274
 30
0.0
 11
6.776999999999994
 21
2.5922380685806274
 31
0.0
  0
LINE
  5
2AA
330
17
100
AcDbEntity
  8
0
100
AcDbLine
 10
6.776999999999994
 20
2.5922380685806274
 30
0.0
 11
7.384999999999998
 21
2.5922380685806274
 31
0.0
  0
LINE
  5
2AB
330
17
100
AcDbEntity
  8
0
100
AcDbLine
 10
8.216000000000003
 20
2.5922380685806274
 30
0.0
 11
8.216760000000003
 21
2.5922380685806274
 31
0.0
  0
LINE
  5
2AC
330
17
100
AcDbEntity
  8
0
100
AcDbLine
 10
8.216760000000003
 20
2.5922380685806274
 30
0.0
 11
8.576999999999995
 21
2.5922380685806274
 31
0.0
  0
LINE
  5
2AD
330
17
100
AcDbEntity
  8
0
100
AcDbLine
 10
8.576999999999995
 20
2.5922380685806274
 30
0.0
 11
9.184999999999999
 21
2.5922380685806274
 31
0.0
  0
LINE
  5
2AE
330
17
100
AcDbEntity
  8
0
100
AcDbLine
 10
10.016000000000002
 20
2.5922380685806274
 30
0.0
 11
10.016760000000003
 21
2.5922380685806274
 31
0.0
  0
LINE
  5
2AF
330
17
100
AcDbEntity
  8
0
100
AcDbLine
 10
10.016760000000003
 20
2.5922380685806274
 30
0.0
 11
10.376999999999995
 21
2.5922380685806274
 31
0.0
  0
LINE
  5
2B0
330
17
100
AcDbEntity
  8
0
100
AcDbLine
 10
10.376999999999995
 20
2.5922380685806274
 30
0.0
 11
10.984999999999998
 21
2.5922380685806274
 31
0.0
  0
LINE
  5
2B1
330
17
100
AcDbEntity
  8
0
100
AcDbLine
 10
11.816000000000003
 20
2.5922380685806274
 30
0.0
 11
11.816760000000002
 21
2.5922380685806274
 31
0.0
  0
LINE
  5
2B2
330
17
100
AcDbEntity
  8
0
100
AcDbLine
 10
11.816760000000002
 20
2.5922380685806274
 30
0.0
 11
12.176999999999994
 21
2.5922380685806274
 31
0.0
  0
LINE
  5
2B3
330
17
100
AcDbEntity
  8
0
100
AcDbLine
 10
12.176999999999994
 20
2.5922380685806274
 30
0.0
 11
12.784999999999998
 21
2.5922380685806274
 31
0.0
  0
LINE
  5
2B4
330
17
100
AcDbEntity
  8
0
100
AcDbLine
 10
13.616000000000003
 20
2.5922380685806274
 30
0.0
 11
13.616760000000003
 21
2.5922380685806274
 31
0.0
  0
LINE
  5
2B5
330
17
100
AcDbEntity
  8
0
100
AcDbLine
 10
13.616760000000003
 20
2.5922380685806274
 30
0.0
 11
13.950119999999995
 21
2.5922380685806274
 31
0.0
  0
LINE
  5
2B6
330
17
100
AcDbEntity
  8
0
100
AcDbLine
 10
1.0290000000000017
 20
3.0922380685806274
 30
0.0
 11
1.388999999999994
 21
3.0922380685806274
 31
0.0
  0
LINE
  5
2B7
330
17
100
AcDbEntity
  8
0
100
AcDbLine
 10
1.0290000000000017
 20
3.0922380685806274
 30
0.0
 11
1.388999999999994
 21
3.0922380685806274
 31
0.0
  0
LINE
  5
2B8
330
17
100
AcDbEntity
  8
0
100
AcDbLine
 10
1.388999999999994
 20
3.0922380685806274
 30
0.0
 11
1.996999999999998
 21
3.0922380685806274
 31
0.0
  0
LINE
  5
2B9
330
17
100
AcDbEntity
  8
0
100
AcDbLine
 10
2.829000000000002
 20
3.0922380685806274
 30
0.0
 11
3.1889999999999943
 21
3.0922380685806274
 31
0.0
  0
LINE
  5
2BA
330
17
100
AcDbEntity
  8
0
100
AcDbLine
 10
3.1889999999999943
 20
3.0922380685806274
 30
0.0
 11
3.7969999999999984
 21
3.0922380685806274
 31
0.0
  0
LINE
  5
2BB
330
17
100
AcDbEntity
  8
0
100
AcDbLine
 10
4.629000000000002
 20
3.0922380685806274
 30
0.0
 11
5.237000000000005
 21
3.0922380685806274
 31
0.0
  0
LINE
  5
2BC
330
17
100
AcDbEntity
  8
0
100
AcDbLine
 10
5.237000000000005
 20
3.0922380685806274
 30
0.0
 11
5.596999999999999
 21
3.0922380685806274
 31
0.0
  0
LINE
  5
2BD
330
17
100
AcDbEntity
  8
0
100
AcDbLine
 10
6.429000000000002
 20
3.0922380685806274
 30
0.0
 11
7.037000000000006
 21
3.0922380685806274
 31
0.0
  0
LINE
  5
2BE
330
17
100
AcDbEntity
  8
0
100
AcDbLine
 10
7.037000000000006
 20
3.0922380685806274
 30
0.0
 11
7.3969999999999985
 21
3.0922380685806274
 31
0.0
  0
LINE
  5
2BF
330
17
100
AcDbEntity
  8
0
100
AcDbLine
 10
8.229000000000003
 20
3.0922380685806274
 30
0.0
 11
8.837000000000005
 21
3.0922380685806274
 31
0.0
  0
LINE
  5
2C0
330
17
100
AcDbEntity
  8
0
100
AcDbLine
 10
8.837000000000005
 20
3.0922380685806274
 30
0.0
 11
9.196999999999997
 21
3.0922380685806274
 31
0.0
  0
LINE
  5
2C1
330
17
100
AcDbEntity
  8
0
100
AcDbLine
 10
10.029000000000002
 20
3.0922380685806274
 30
0.0
 11
10.388999999999994
 21
3.0922380685806274
 31
0.0
  0
LINE
  5
2C2
330
17
100
AcDbEntity
  8
0
100
AcDbLine
 10
10.388999999999994
 20
3.0922380685806274
 30
0.0
 11
10.996999999999998
 21
3.0922380685806274
 31
0.0
  0
LINE
  5
2C3
330
17
100
AcDbEntity
  8
0
100
AcDbLine
 10
11.829000000000002
 20
3.0922380685806274
 30
0.0
 11
12.188999999999995
 21
3.0922380685806274
 31
0.0
  0
LINE
  5
2C4
330
17
100
AcDbEntity
  8
0
100
AcDbLine
 10
12.188999999999995
 20
3.0922380685806274
 30
0.0
 11
12.796999999999999
 21
3.0922380685806274
 31
0.0
  0
LINE
  5
2C5
330
17
100
AcDbEntity
  8
0
100
AcDbLine
 10
13.629000000000003
 20
3.0922380685806274
 30
0.0
 11
13.955159999999996
 21
3.0922380685806274
 31
0.0
  0
LINE
  5
2C6
330
17
100
AcDbEntity
  8
0
100
AcDbLine
 10
1.042000000000002
 20
3.5922380685806274
 30
0.0
 11
1.6500000000000057
 21
3.5922380685806274
 31
0.0
  0
LINE
  5
2C7
330
17
100
AcDbEntity
  8
0
100
AcDbLine
 10
1.042000000000002
 20
3.5922380685806274
 30
0.0
 11
1.6500000000000057
 21
3.5922380685806274
 31
0.0
  0
LINE
  5
2C8
330
17
100
AcDbEntity
  8
0
100
AcDbLine
 10
1.6500000000000057
 20
3.5922380685806274
 30
0.0
 11
2.009999999999998
 21
3.5922380685806274
 31
0.0
  0
LINE
  5
2C9
330
17
100
AcDbEntity
  8
0
100
AcDbLine
 10
2.842000000000002
 20
3.5922380685806274
 30
0.0
 11
3.450000000000006
 21
3.5922380685806274
 31
0.0
  0
LINE
  5
2CA
330
17
100
AcDbEntity
  8
0
100
AcDbLine
 10
3.450000000000006
 20
3.5922380685806274
 30
0.0
 11
3.8099999999999983
 21
3.5922380685806274
 31
0.0
  0
LINE
  5
2CB
330
17
100
AcDbEntity
  8
0
100
AcDbLine
 10
4.642000000000002
 20
3.5922380685806274
 30
0.0
 11
5.250000000000005
 21
3.5922380685806274
 31
0.0
  0
LINE
  5
2CC
330
17
100
AcDbEntity
  8
0
100
AcDbLine
 10
5.250000000000005
 20
3.5922380685806274
 30
0.0
 11
5.6099999999999985
 21
3.5922380685806274
 31
0.0
  0
LINE
  5
2CD
330
17
100
AcDbEntity
  8
0
100
AcDbLine
 10
6.442000000000002
 20
3.5922380685806274
 30
0.0
 11
7.050000000000006
 21
3.5922380685806274
 31
0.0
  0
LINE
  5
2CE
330
17
100
AcDbEntity
  8
0
100
AcDbLine
 10
7.050000000000006
 20
3.5922380685806274
 30
0.0
 11
7.409999999999998
 21
3.5922380685806274
 31
0.0
  0
LINE
  5
2CF
330
17
100
AcDbEntity
  8
0
100
AcDbLine
 10
8.242000000000003
 20
3.5922380685806274
 30
0.0
 11
8.850000000000005
 21
3.5922380685806274
 31
0.0
  0
LINE
  5
2D0
330
17
100
AcDbEntity
  8
0
100
AcDbLine
 10
8.850000000000005
 20
3.5922380685806274
 30
0.0
 11
9.209999999999997
 21
3.5922380685806274
 31
0.0
  0
LINE
  5
2D1
330
17
100
AcDbEntity
  8
0
100
AcDbLine
 10
10.042000000000002
 20
3.5922380685806274
 30
0.0
 11
10.401999999999994
 21
3.5922380685806274
 31
0.0
  0
LINE
  5
2D2
330
17
100
AcDbEntity
  8
0
100
AcDbLine
 10
10.401999999999994
 20
3.5922380685806274
 30
0.0
 11
11.009999999999998
 21
3.5922380685806274
 31
0.0
  0
LINE
  5
2D3
330
17
100
AcDbEntity
  8
0
100
AcDbLine
 10
11.842000000000002
 20
3.5922380685806274
 30
0.0
 11
12.201999999999995
 21
3.5922380685806274
 31
0.0
  0
LINE
  5
2D4
330
17
100
AcDbEntity
  8
0
100
AcDbLine
 10
12.201999999999995
 20
3.5922380685806274
 30
0.0
 11
12.809999999999999
 21
3.5922380685806274
 31
0.0
  0
LINE
  5
2D5
330
17
100
AcDbEntity
  8
0
100
AcDbLine
 10
13.642000000000003
 20
3.5922380685806274
 30
0.0
 11
13.960719999999997
 21
3.5922380685806274
 31
0.0
  0
LINE
  5
2D6
330
17
100
AcDbEntity
  8
0
100
AcDbLine
 10
1.054000000000002
 20
4.092238068580627
 30
0.0
 11
1.6620000000000057
 21
4.092238068580627
 31
0.0
  0
LINE
  5
2D7
330
17
100
AcDbEntity
  8
0
100
AcDbLine
 10
1.054000000000002
 20
4.092238068580627
 30
0.0
 11
1.6620000000000057
 21
4.092238068580627
 31
0.0
  0
LINE
  5
2D8
330
17
100
AcDbEntity
  8
0
100
AcDbLine
 10
1.6620000000000057
 20
4.092238068580627
 30
0.0
 11
2.021999999999998
 21
4.092238068580627
 31
0.0
  0
LINE
  5
2D9
330
17
100
AcDbEntity
  8
0
100
AcDbLine
 10
2.854000000000002
 20
4.092238068580627
 30
0.0
 11
3.213999999999994
 21
4.092238068580627
 31
0.0
  0
LINE
  5
2DA
330
17
100
AcDbEntity
  8
0
100
AcDbLine
 10
3.213999999999994
 20
4.092238068580627
 30
0.0
 11
3.8219999999999983
 21
4.092238068580627
 31
0.0
  0
LINE
  5
2DB
330
17
100
AcDbEntity
  8
0
100
AcDbLine
 10
4.654000000000002
 20
4.092238068580627
 30
0.0
 11
5.013999999999994
 21
4.092238068580627
 31
0.0
  0
LINE
  5
2DC
330
17
100
AcDbEntity
  8
0
100
AcDbLine
 10
5.013999999999994
 20
4.092238068580627
 30
0.0
 11
5.621999999999998
 21
4.092238068580627
 31
0.0
  0
LINE
  5
2DD
330
17
100
AcDbEntity
  8
0
100
AcDbLine
 10
6.4540000000000015
 20
4.092238068580627
 30
0.0
 11
6.813999999999994
 21
4.092238068580627
 31
0.0
  0
LINE
  5
2DE
330
17
100
AcDbEntity
  8
0
100
AcDbLine
 10
6.813999999999994
 20
4.092238068580627
 30
0.0
 11
7.421999999999998
 21
4.092238068580627
 31
0.0
  0
LINE
  5
2DF
330
17
100
AcDbEntity
  8
0
100
AcDbLine
 10
8.254000000000003
 20
4.092238068580627
 30
0.0
 11
8.613999999999995
 21
4.092238068580627
 31
0.0
  0
LINE
  5
2E0
330
17
100
AcDbEntity
  8
0
100
AcDbLine
 10
8.613999999999995
 20
4.092238068580627
 30
0.0
 11
9.221999999999998
 21
4.092238068580627
 31
0.0
  0
LINE
  5
2E1
330
17
100
AcDbEntity
  8
0
100
AcDbLine
 10
10.054000000000002
 20
4.092238068580627
 30
0.0
 11
10.413999999999994
 21
4.092238068580627
 31
0.0
  0
LINE
  5
2E2
330
17
100
AcDbEntity
  8
0
100
AcDbLine
 10
10.413999999999994
 20
4.092238068580627
 30
0.0
 11
11.021999999999998
 21
4.092238068580627
 31
0.0
  0
LINE
  5
2E3
330
17
100
AcDbEntity
  8
0
100
AcDbLine
 10
11.854000000000003
 20
4.092238068580627
 30
0.0
 11
12.462000000000005
 21
4.092238068580627
 31
0.0
  0
LINE
  5
2E4
330
17
100
AcDbEntity
  8
0
100
AcDbLine
 10
12.462000000000005
 20
4.092238068580627
 30
0.0
 11
12.821999999999997
 21
4.092238068580627
 31
0.0
  0
LINE
  5
2E5
330
17
100
AcDbEntity
  8
0
100
AcDbLine
 10
13.654000000000002
 20
4.092238068580627
 30
0.0
 11
13.965759999999996
 21
4.092238068580627
 31
0.0
  0
LINE
  5
2E6
330
17
100
AcDbEntity
  8
0
100
AcDbLine
 10
1.067000000000002
 20
4.592238068580627
 30
0.0
 11
1.6750000000000058
 21
4.592238068580627
 31
0.0
  0
LINE
  5
2E7
330
17
100
AcDbEntity
  8
0
100
AcDbLine
 10
1.067000000000002
 20
4.592238068580627
 30
0.0
 11
1.6750000000000058
 21
4.592238068580627
 31
0.0
  0
LINE
  5
2E8
330
17
100
AcDbEntity
  8
0
100
AcDbLine
 10
1.6750000000000058
 20
4.592238068580627
 30
0.0
 11
2.0349999999999984
 21
4.592238068580627
 31
0.0
  0
LINE
  5
2E9
330
17
100
AcDbEntity
  8
0
100
AcDbLine
 10
2.8670000000000018
 20
4.592238068580627
 30
0.0
 11
3.226999999999994
 21
4.592238068580627
 31
0.0
  0
LINE
  5
2EA
330
17
100
AcDbEntity
  8
0
100
AcDbLine
 10
3.226999999999994
 20
4.592238068580627
 30
0.0
 11
3.834999999999998
 21
4.592238068580627
 31
0.0
  0
LINE
  5
2EB
330
17
100
AcDbEntity
  8
0
100
AcDbLine
 10
4.667000000000002
 20
4.592238068580627
 30
0.0
 11
5.026999999999994
 21
4.592238068580627
 31
0.0
  0
LINE
  5
2EC
330
17
100
AcDbEntity
  8
0
100
AcDbLine
 10
5.026999999999994
 20
4.592238068580627
 30
0.0
 11
5.634999999999998
 21
4.592238068580627
 31
0.0
  0
LINE
  5
2ED
330
17
100
AcDbEntity
  8
0
100
AcDbLine
 10
6.467000000000002
 20
4.592238068580627
 30
0.0
 11
7.075000000000006
 21
4.592238068580627
 31
0.0
  0
LINE
  5
2EE
330
17
100
AcDbEntity
  8
0
100
AcDbLine
 10
7.075000000000006
 20
4.592238068580627
 30
0.0
 11
7.434999999999999
 21
4.592238068580627
 31
0.0
  0
LINE
  5
2EF
330
17
100
AcDbEntity
  8
0
100
AcDbLine
 10
8.267000000000003
 20
4.592238068580627
 30
0.0
 11
8.626999999999995
 21
4.592238068580627
 31
0.0
  0
LINE
  5
2F0
330
17
100
AcDbEntity
  8
0
100
AcDbLine
 10
8.626999999999995
 20
4.592238068580627
 30
0.0
 11
9.234999999999998
 21
4.592238068580627
 31
0.0
  0
LINE
  5
2F1
330
17
100
AcDbEntity
  8
0
100
AcDbLine
 10
10.067000000000002
 20
4.592238068580627
 30
0.0
 11
10.426999999999994
 21
4.592238068580627
 31
0.0
  0
LINE
  5
2F2
330
17
100
AcDbEntity
  8
0
100
AcDbLine
 10
10.426999999999994
 20
4.592238068580627
 30
0.0
 11
11.034999999999998
 21
4.592238068580627
 31
0.0
  0
LINE
  5
2F3
330
17
100
AcDbEntity
  8
0
100
AcDbLine
 10
11.867000000000003
 20
4.592238068580627
 30
0.0
 11
12.475000000000005
 21
4.592238068580627
 31
0.0
  0
LINE
  5
2F4
330
17
100
AcDbEntity
  8
0
100
AcDbLine
 10
12.475000000000005
 20
4.592238068580627
 30
0.0
 11
12.834999999999997
 21
4.592238068580627
 31
0.0
  0
LINE
  5
2F5
330
17
100
AcDbEntity
  8
0
100
AcDbLine
 10
13.667000000000002
 20
4.592238068580627
 30
0.0
 11
13.971319999999995
 21
4.592238068580627
 31
0.0
  0
LINE
  5
2F6
330
17
100
AcDbEntity
  8
0
100
AcDbLine
 10
1.079000000000002
 20
5.092238068580627
 30
0.0
 11
1.6877600000000057
 21
5.092238068580627
 31
0.0
  0
LINE
  5
2F7
330
17
100
AcDbEntity
  8
0
100
AcDbLine
 10
1.079000000000002
 20
5.092238068580627
 30
0.0
 11
1.6877600000000057
 21
5.092238068580627
 31
0.0
  0
LINE
  5
2F8
330
17
100
AcDbEntity
  8
0
100
AcDbLine
 10
1.6877600000000057
 20
5.092238068580627
 30
0.0
 11
2.0479999999999983
 21
5.092238068580627
 31
0.0
  0
LINE
  5
2F9
330
17
100
AcDbEntity
  8
0
100
AcDbLine
 10
2.879000000000002
 20
5.092238068580627
 30
0.0
 11
3.2392399999999943
 21
5.092238068580627
 31
0.0
  0
LINE
  5
2FA
330
17
100
AcDbEntity
  8
0
100
AcDbLine
 10
3.2392399999999943
 20
5.092238068580627
 30
0.0
 11
3.8479999999999985
 21
5.092238068580627
 31
0.0
  0
LINE
  5
2FB
330
17
100
AcDbEntity
  8
0
100
AcDbLine
 10
4.679000000000002
 20
5.092238068580627
 30
0.0
 11
5.039239999999994
 21
5.092238068580627
 31
0.0
  0
LINE
  5
2FC
330
17
100
AcDbEntity
  8
0
100
AcDbLine
 10
5.039239999999994
 20
5.092238068580627
 30
0.0
 11
5.647999999999998
 21
5.092238068580627
 31
0.0
  0
LINE
  5
2FD
330
17
100
AcDbEntity
  8
0
100
AcDbLine
 10
6.479000000000002
 20
5.092238068580627
 30
0.0
 11
7.087760000000006
 21
5.092238068580627
 31
0.0
  0
LINE
  5
2FE
330
17
100
AcDbEntity
  8
0
100
AcDbLine
 10
7.087760000000006
 20
5.092238068580627
 30
0.0
 11
7.447999999999999
 21
5.092238068580627
 31
0.0
  0
LINE
  5
2FF
330
17
100
AcDbEntity
  8
0
100
AcDbLine
 10
8.279000000000002
 20
5.092238068580627
 30
0.0
 11
8.639239999999994
 21
5.092238068580627
 31
0.0
  0
LINE
  5
300
330
17
100
AcDbEntity
  8
0
100
AcDbLine
 10
8.639239999999994
 20
5.092238068580627
 30
0.0
 11
9.247999999999998
 21
5.092238068580627
 31
0.0
  0
LINE
  5
301
330
17
100
AcDbEntity
  8
0
100
AcDbLine
 10
10.079000000000002
 20
5.092238068580627
 30
0.0
 11
10.439239999999995
 21
5.092238068580627
 31
0.0
  0
LINE
  5
302
330
17
100
AcDbEntity
  8
0
100
AcDbLine
 10
10.439239999999995
 20
5.092238068580627
 30
0.0
 11
11.047999999999998
 21
5.092238068580627
 31
0.0
  0
LINE
  5
303
330
17
100
AcDbEntity
  8
0
100
AcDbLine
 10
11.879000000000003
 20
5.092238068580627
 30
0.0
 11
12.239239999999995
 21
5.092238068580627
 31
0.0
  0
LINE
  5
304
330
17
100
AcDbEntity
  8
0
100
AcDbLine
 10
12.239239999999995
 20
5.092238068580627
 30
0.0
 11
12.847999999999999
 21
5.092238068580627
 31
0.0
  0
LINE
  5
305
330
17
100
AcDbEntity
  8
0
100
AcDbLine
 10
13.679000000000002
 20
5.092238068580627
 30
0.0
 11
13.679760000000003
 21
5.092238068580627
 31
0.0
  0
LINE
  5
306
330
17
100
AcDbEntity
  8
0
100
AcDbLine
 10
13.679760000000003
 20
5.092238068580627
 30
0.0
 11
13.976879999999996
 21
5.092238068580627
 31
0.0
  0
LINE
  5
307
330
17
100
AcDbEntity
  8
0
100
AcDbLine
 10
1.0920000000000019
 20
5.592238068580627
 30
0.0
 11
1.700000000000006
 21
5.592238068580627
 31
0.0
  0
LINE
  5
308
330
17
100
AcDbEntity
  8
0
100
AcDbLine
 10
1.0920000000000019
 20
5.592238068580627
 30
0.0
 11
1.700000000000006
 21
5.592238068580627
 31
0.0
  0
LINE
  5
309
330
17
100
AcDbEntity
  8
0
100
AcDbLine
 10
1.700000000000006
 20
5.592238068580627
 30
0.0
 11
2.0599999999999983
 21
5.592238068580627
 31
0.0
  0
LINE
  5
30A
330
17
100
AcDbEntity
  8
0
100
AcDbLine
 10
2.8920000000000017
 20
5.592238068580627
 30
0.0
 11
3.251999999999994
 21
5.592238068580627
 31
0.0
  0
LINE
  5
30B
330
17
100
AcDbEntity
  8
0
100
AcDbLine
 10
3.251999999999994
 20
5.592238068580627
 30
0.0
 11
3.8599999999999985
 21
5.592238068580627
 31
0.0
  0
LINE
  5
30C
330
17
100
AcDbEntity
  8
0
100
AcDbLine
 10
4.692000000000002
 20
5.592238068580627
 30
0.0
 11
5.051999999999994
 21
5.592238068580627
 31
0.0
  0
LINE
  5
30D
330
17
100
AcDbEntity
  8
0
100
AcDbLine
 10
5.051999999999994
 20
5.592238068580627
 30
0.0
 11
5.659999999999998
 21
5.592238068580627
 31
0.0
  0
LINE
  5
30E
330
17
100
AcDbEntity
  8
0
100
AcDbLine
 10
6.492000000000002
 20
5.592238068580627
 30
0.0
 11
6.851999999999994
 21
5.592238068580627
 31
0.0
  0
LINE
  5
30F
330
17
100
AcDbEntity
  8
0
100
AcDbLine
 10
6.851999999999994
 20
5.592238068580627
 30
0.0
 11
7.459999999999998
 21
5.592238068580627
 31
0.0
  0
LINE
  5
310
330
17
100
AcDbEntity
  8
0
100
AcDbLine
 10
8.292000000000002
 20
5.592238068580627
 30
0.0
 11
8.651999999999994
 21
5.592238068580627
 31
0.0
  0
LINE
  5
311
330
17
100
AcDbEntity
  8
0
100
AcDbLine
 10
8.651999999999994
 20
5.592238068580627
 30
0.0
 11
9.259999999999998
 21
5.592238068580627
 31
0.0
  0
LINE
  5
312
330
17
100
AcDbEntity
  8
0
100
AcDbLine
 10
10.092000000000002
 20
5.592238068580627
 30
0.0
 11
10.451999999999995
 21
5.592238068580627
 31
0.0
  0
LINE
  5
313
330
17
100
AcDbEntity
  8
0
100
AcDbLine
 10
10.451999999999995
 20
5.592238068580627
 30
0.0
 11
11.059999999999999
 21
5.592238068580627
 31
0.0
  0
LINE
  5
314
330
17
100
AcDbEntity
  8
0
100
AcDbLine
 10
11.892000000000003
 20
5.592238068580627
 30
0.0
 11
12.251999999999995
 21
5.592238068580627
 31
0.0
  0
LINE
  5
315
330
17
100
AcDbEntity
  8
0
100
AcDbLine
 10
12.251999999999995
 20
5.592238068580627
 30
0.0
 11
12.859999999999998
 21
5.592238068580627
 31
0.0
  0
LINE
  5
316
330
17
100
AcDbEntity
  8
0
100
AcDbLine
 10
13.692000000000002
 20
5.592238068580627
 30
0.0
 11
13.981919999999995
 21
5.592238068580627
 31
0.0
  0
LINE
  5
317
330
17
100
AcDbEntity
  8
0
100
AcDbLine
 10
1.1050000000000018
 20
6.092238068580627
 30
0.0
 11
1.464999999999994
 21
6.092238068580627
 31
0.0
  0
LINE
  5
318
330
17
100
AcDbEntity
  8
0
100
AcDbLine
 10
1.1050000000000018
 20
6.092238068580627
 30
0.0
 11
1.464999999999994
 21
6.092238068580627
 31
0.0
  0
LINE
  5
319
330
17
100
AcDbEntity
  8
0
100
AcDbLine
 10
1.464999999999994
 20
6.092238068580627
 30
0.0
 11
2.072999999999998
 21
6.092238068580627
 31
0.0
  0
LINE
  5
31A
330
17
100
AcDbEntity
  8
0
100
AcDbLine
 10
2.9050000000000016
 20
6.092238068580627
 30
0.0
 11
3.513000000000006
 21
6.092238068580627
 31
0.0
  0
LINE
  5
31B
330
17
100
AcDbEntity
  8
0
100
AcDbLine
 10
3.513000000000006
 20
6.092238068580627
 30
0.0
 11
3.8729999999999984
 21
6.092238068580627
 31
0.0
  0
LINE
  5
31C
330
17
100
AcDbEntity
  8
0
100
AcDbLine
 10
4.705000000000002
 20
6.092238068580627
 30
0.0
 11
5.064999999999994
 21
6.092238068580627
 31
0.0
  0
LINE
  5
31D
330
17
100
AcDbEntity
  8
0
100
AcDbLine
 10
5.064999999999994
 20
6.092238068580627
 30
0.0
 11
5.672999999999998
 21
6.092238068580627
 31
0.0
  0
LINE
  5
31E
330
17
100
AcDbEntity
  8
0
100
AcDbLine
 10
6.505000000000002
 20
6.092238068580627
 30
0.0
 11
6.864999999999994
 21
6.092238068580627
 31
0.0
  0
LINE
  5
31F
330
17
100
AcDbEntity
  8
0
100
AcDbLine
 10
6.864999999999994
 20
6.092238068580627
 30
0.0
 11
7.472999999999998
 21
6.092238068580627
 31
0.0
  0
LINE
  5
320
330
17
100
AcDbEntity
  8
0
100
AcDbLine
 10
8.305000000000001
 20
6.092238068580627
 30
0.0
 11
8.664999999999994
 21
6.092238068580627
 31
0.0
  0
LINE
  5
321
330
17
100
AcDbEntity
  8
0
100
AcDbLine
 10
8.664999999999994
 20
6.092238068580627
 30
0.0
 11
9.272999999999998
 21
6.092238068580627
 31
0.0
  0
LINE
  5
322
330
17
100
AcDbEntity
  8
0
100
AcDbLine
 10
10.105000000000002
 20
6.092238068580627
 30
0.0
 11
10.464999999999995
 21
6.092238068580627
 31
0.0
  0
LINE
  5
323
330
17
100
AcDbEntity
  8
0
100
AcDbLine
 10
10.464999999999995
 20
6.092238068580627
 30
0.0
 11
11.072999999999999
 21
6.092238068580627
 31
0.0
  0
LINE
  5
324
330
17
100
AcDbEntity
  8
0
100
AcDbLine
 10
11.905000000000003
 20
6.092238068580627
 30
0.0
 11
12.513000000000005
 21
6.092238068580627
 31
0.0
  0
LINE
  5
325
330
17
100
AcDbEntity
  8
0
100
AcDbLine
 10
12.513000000000005
 20
6.092238068580627
 30
0.0
 11
12.872999999999998
 21
6.092238068580627
 31
0.0
  0
LINE
  5
326
330
17
100
AcDbEntity
  8
0
100
AcDbLine
 10
13.705000000000002
 20
6.092238068580627
 30
0.0
 11
13.989879999999996
 21
6.092238068580627
 31
0.0
  0
LINE
  5
327
330
17
100
AcDbEntity
  8
0
100
AcDbLine
 10
1.1170000000000018
 20
6.592238068580627
 30
0.0
 11
1.476999999999994
 21
6.592238068580627
 31
0.0
  0
LINE
  5
328
330
17
100
AcDbEntity
  8
0
100
AcDbLine
 10
1.1170000000000018
 20
6.592238068580627
 30
0.0
 11
1.476999999999994
 21
6.592238068580627
 31
0.0
  0
LINE
  5
329
330
17
100
AcDbEntity
  8
0
100
AcDbLine
 10
1.476999999999994
 20
6.592238068580627
 30
0.0
 11
2.084999999999998
 21
6.592238068580627
 31
0.0
  0
LINE
  5
32A
330
17
100
AcDbEntity
  8
0
100
AcDbLine
 10
2.9170000000000016
 20
6.592238068580627
 30
0.0
 11
3.276999999999994
 21
6.592238068580627
 31
0.0
  0
LINE
  5
32B
330
17
100
AcDbEntity
  8
0
100
AcDbLine
 10
3.276999999999994
 20
6.592238068580627
 30
0.0
 11
3.8849999999999985
 21
6.592238068580627
 31
0.0
  0
LINE
  5
32C
330
17
100
AcDbEntity
  8
0
100
AcDbLine
 10
4.717000000000002
 20
6.592238068580627
 30
0.0
 11
5.325000000000006
 21
6.592238068580627
 31
0.0
  0
LINE
  5
32D
330
17
100
AcDbEntity
  8
0
100
AcDbLine
 10
5.325000000000006
 20
6.592238068580627
 30
0.0
 11
5.684999999999999
 21
6.592238068580627
 31
0.0
  0
LINE
  5
32E
330
17
100
AcDbEntity
  8
0
100
AcDbLine
 10
6.517000000000002
 20
6.592238068580627
 30
0.0
 11
7.125000000000005
 21
6.592238068580627
 31
0.0
  0
LINE
  5
32F
330
17
100
AcDbEntity
  8
0
100
AcDbLine
 10
7.125000000000005
 20
6.592238068580627
 30
0.0
 11
7.4849999999999985
 21
6.592238068580627
 31
0.0
  0
LINE
  5
330
330
17
100
AcDbEntity
  8
0
100
AcDbLine
 10
8.317000000000002
 20
6.592238068580627
 30
0.0
 11
8.676999999999994
 21
6.592238068580627
 31
0.0
  0
LINE
  5
331
330
17
100
AcDbEntity
  8
0
100
AcDbLine
 10
8.676999999999994
 20
6.592238068580627
 30
0.0
 11
9.284999999999998
 21
6.592238068580627
 31
0.0
  0
LINE
  5
332
330
17
100
AcDbEntity
  8
0
100
AcDbLine
 10
10.117000000000003
 20
6.592238068580627
 30
0.0
 11
10.725000000000005
 21
6.592238068580627
 31
0.0
  0
LINE
  5
333
330
17
100
AcDbEntity
  8
0
100
AcDbLine
 10
10.725000000000005
 20
6.592238068580627
 30
0.0
 11
11.084999999999997
 21
6.592238068580627
 31
0.0
  0
LINE
  5
334
330
17
100
AcDbEntity
  8
0
100
AcDbLine
 10
11.917000000000002
 20
6.592238068580627
 30
0.0
 11
12.276999999999994
 21
6.592238068580627
 31
0.0
  0
LINE
  5
335
330
17
100
AcDbEntity
  8
0
100
AcDbLine
 10
12.276999999999994
 20
6.592238068580627
 30
0.0
 11
12.884999999999998
 21
6.592238068580627
 31
0.0
  0
LINE
  5
336
330
17
100
AcDbEntity
  8
0
100
AcDbLine
 10
13.717000000000002
 20
6.592238068580627
 30
0.0
 11
13.998999999999995
 21
6.592238068580627
 31
0.0
  0
LINE
  5
337
330
17
100
AcDbEntity
  8
0
100
AcDbLine
 10
1.1300000000000017
 20
7.092238068580627
 30
0.0
 11
1.489999999999994
 21
7.092238068580627
 31
0.0
  0
LINE
  5
338
330
17
100
AcDbEntity
  8
0
100
AcDbLine
 10
1.1300000000000017
 20
7.092238068580627
 30
0.0
 11
1.489999999999994
 21
7.092238068580627
 31
0.0
  0
LINE
  5
339
330
17
100
AcDbEntity
  8
0
100
AcDbLine
 10
1.489999999999994
 20
7.092238068580627
 30
0.0
 11
2.0979999999999985
 21
7.092238068580627
 31
0.0
  0
LINE
  5
33A
330
17
100
AcDbEntity
  8
0
100
AcDbLine
 10
2.930000000000002
 20
7.092238068580627
 30
0.0
 11
3.2899999999999943
 21
7.092238068580627
 31
0.0
  0
LINE
  5
33B
330
17
100
AcDbEntity
  8
0
100
AcDbLine
 10
3.2899999999999943
 20
7.092238068580627
 30
0.0
 11
3.8979999999999984
 21
7.092238068580627
 31
0.0
  0
LINE
  5
33C
330
17
100
AcDbEntity
  8
0
100
AcDbLine
 10
4.730000000000002
 20
7.092238068580627
 30
0.0
 11
5.338000000000006
 21
7.092238068580627
 31
0.0
  0
LINE
  5
33D
330
17
100
AcDbEntity
  8
0
100
AcDbLine
 10
5.338000000000006
 20
7.092238068580627
 30
0.0
 11
5.697999999999999
 21
7.092238068580627
 31
0.0
  0
LINE
  5
33E
330
17
100
AcDbEntity
  8
0
100
AcDbLine
 10
6.530000000000002
 20
7.092238068580627
 30
0.0
 11
7.138000000000006
 21
7.092238068580627
 31
0.0
  0
LINE
  5
33F
330
17
100
AcDbEntity
  8
0
100
AcDbLine
 10
7.138000000000006
 20
7.092238068580627
 30
0.0
 11
7.497999999999998
 21
7.092238068580627
 31
0.0
  0
LINE
  5
340
330
17
100
AcDbEntity
  8
0
100
AcDbLine
 10
8.330000000000002
 20
7.092238068580627
 30
0.0
 11
8.689999999999994
 21
7.092238068580627
 31
0.0
  0
LINE
  5
341
330
17
100
AcDbEntity
  8
0
100
AcDbLine
 10
8.689999999999994
 20
7.092238068580627
 30
0.0
 11
9.297999999999998
 21
7.092238068580627
 31
0.0
  0
LINE
  5
342
330
17
100
AcDbEntity
  8
0
100
AcDbLine
 10
10.130000000000003
 20
7.092238068580627
 30
0.0
 11
10.738000000000005
 21
7.092238068580627
 31
0.0
  0
LINE
  5
343
330
17
100
AcDbEntity
  8
0
100
AcDbLine
 10
10.738000000000005
 20
7.092238068580627
 30
0.0
 11
11.097999999999997
 21
7.092238068580627
 31
0.0
  0
LINE
  5
344
330
17
100
AcDbEntity
  8
0
100
AcDbLine
 10
11.930000000000003
 20
7.092238068580627
 30
0.0
 11
12.289999999999996
 21
7.092238068580627
 31
0.0
  0
LINE
  5
345
330
17
100
AcDbEntity
  8
0
100
AcDbLine
 10
12.289999999999996
 20
7.092238068580627
 30
0.0
 11
12.897999999999998
 21
7.092238068580627
 31
0.0
  0
LINE
  5
346
330
17
100
AcDbEntity
  8
0
100
AcDbLine
 10
13.730000000000002
 20
7.092238068580627
 30
0.0
 11
14.008879999999996
 21
7.092238068580627
 31
0.0
  0
LINE
  5
347
330
17
100
AcDbEntity
  8
0
100
AcDbLine
 10
1.1420000000000017
 20
7.592238068580627
 30
0.0
 11
1.1427600000000018
 21
7.592238068580627
 31
0.0
  0
LINE
  5
348
330
17
100
AcDbEntity
  8
0
100
AcDbLine
 10
1.1420000000000017
 20
7.592238068580627
 30
0.0
 11
1.1427600000000018
 21
7.592238068580627
 31
0.0
  0
LINE
  5
349
330
17
100
AcDbEntity
  8
0
100
AcDbLine
 10
1.1427600000000018
 20
7.592238068580627
 30
0.0
 11
1.5029999999999943
 21
7.592238068580627
 31
0.0
  0
LINE
  5
34A
330
17
100
AcDbEntity
  8
0
100
AcDbLine
 10
1.5029999999999943
 20
7.592238068580627
 30
0.0
 11
2.1109999999999984
 21
7.592238068580627
 31
0.0
  0
LINE
  5
34B
330
17
100
AcDbEntity
  8
0
100
AcDbLine
 10
2.942000000000002
 20
7.592238068580627
 30
0.0
 11
2.942760000000002
 21
7.592238068580627
 31
0.0
  0
LINE
  5
34C
330
17
100
AcDbEntity
  8
0
100
AcDbLine
 10
2.942760000000002
 20
7.592238068580627
 30
0.0
 11
3.302999999999994
 21
7.592238068580627
 31
0.0
  0
LINE
  5
34D
330
17
100
AcDbEntity
  8
0
100
AcDbLine
 10
3.302999999999994
 20
7.592238068580627
 30
0.0
 11
3.9109999999999983
 21
7.592238068580627
 31
0.0
  0
LINE
  5
34E
330
17
100
AcDbEntity
  8
0
100
AcDbLine
 10
4.742000000000003
 20
7.592238068580627
 30
0.0
 11
4.742760000000001
 21
7.592238068580627
 31
0.0
  0
LINE
  5
34F
330
17
100
AcDbEntity
  8
0
100
AcDbLine
 10
4.742760000000001
 20
7.592238068580627
 30
0.0
 11
5.102999999999994
 21
7.592238068580627
 31
0.0
  0
LINE
  5
350
330
17
100
AcDbEntity
  8
0
100
AcDbLine
 10
5.102999999999994
 20
7.592238068580627
 30
0.0
 11
5.7109999999999985
 21
7.592238068580627
 31
0.0
  0
LINE
  5
351
330
17
100
AcDbEntity
  8
0
100
AcDbLine
 10
6.542000000000002
 20
7.592238068580627
 30
0.0
 11
6.542760000000001
 21
7.592238068580627
 31
0.0
  0
LINE
  5
352
330
17
100
AcDbEntity
  8
0
100
AcDbLine
 10
6.542760000000001
 20
7.592238068580627
 30
0.0
 11
6.902999999999994
 21
7.592238068580627
 31
0.0
  0
LINE
  5
353
330
17
100
AcDbEntity
  8
0
100
AcDbLine
 10
6.902999999999994
 20
7.592238068580627
 30
0.0
 11
7.510999999999998
 21
7.592238068580627
 31
0.0
  0
LINE
  5
354
330
17
100
AcDbEntity
  8
0
100
AcDbLine
 10
8.342000000000002
 20
7.592238068580627
 30
0.0
 11
8.342760000000002
 21
7.592238068580627
 31
0.0
  0
LINE
  5
355
330
17
100
AcDbEntity
  8
0
100
AcDbLine
 10
8.342760000000002
 20
7.592238068580627
 30
0.0
 11
8.702999999999994
 21
7.592238068580627
 31
0.0
  0
LINE
  5
356
330
17
100
AcDbEntity
  8
0
100
AcDbLine
 10
8.702999999999994
 20
7.592238068580627
 30
0.0
 11
9.310999999999998
 21
7.592238068580627
 31
0.0
  0
LINE
  5
357
330
17
100
AcDbEntity
  8
0
100
AcDbLine
 10
10.142000000000003
 20
7.592238068580627
 30
0.0
 11
10.142760000000003
 21
7.592238068580627
 31
0.0
  0
LINE
  5
358
330
17
100
AcDbEntity
  8
0
100
AcDbLine
 10
10.142760000000003
 20
7.592238068580627
 30
0.0
 11
10.502999999999995
 21
7.592238068580627
 31
0.0
  0
LINE
  5
359
330
17
100
AcDbEntity
  8
0
100
AcDbLine
 10
10.502999999999995
 20
7.592238068580627
 30
0.0
 11
11.110999999999999
 21
7.592238068580627
 31
0.0
  0
LINE
  5
35A
330
17
100
AcDbEntity
  8
0
100
AcDbLine
 10
11.942000000000002
 20
7.592238068580627
 30
0.0
 11
11.942760000000003
 21
7.592238068580627
 31
0.0
  0
LINE
  5
35B
330
17
100
AcDbEntity
  8
0
100
AcDbLine
 10
11.942760000000003
 20
7.592238068580627
 30
0.0
 11
12.302999999999995
 21
7.592238068580627
 31
0.0
  0
LINE
  5
35C
330
17
100
AcDbEntity
  8
0
100
AcDbLine
 10
12.302999999999995
 20
7.592238068580627
 30
0.0
 11
12.910999999999998
 21
7.592238068580627
 31
0.0
  0
LINE
  5
35D
330
17
100
AcDbEntity
  8
0
100
AcDbLine
 10
13.742000000000003
 20
7.592238068580627
 30
0.0
 11
13.742760000000002
 21
7.592238068580627
 31
0.0
  0
LINE
  5
35E
330
17
100
AcDbEntity
  8
0
100
AcDbLine
 10
13.742760000000002
 20
7.592238068580627
 30
0.0
 11
14.018759999999995
 21
7.592238068580627
 31
0.0
  0
LINE
  5
35F
330
17
100
AcDbEntity
  8
0
100
AcDbLine
 10
1.1410000000000018
 20
8.092238068580627
 30
0.0
 11
1.5012399999999941
 21
8.092238068580627
 31
0.0
  0
LINE
  5
360
330
17
100
AcDbEntity
  8
0
100
AcDbLine
 10
1.1410000000000018
 20
8.092238068580627
 30
0.0
 11
1.5012399999999941
 21
8.092238068580627
 31
0.0
  0
LINE
  5
361
330
17
100
AcDbEntity
  8
0
100
AcDbLine
 10
1.5012399999999941
 20
8.092238068580627
 30
0.0
 11
2.1099999999999985
 21
8.092238068580627
 31
0.0
  0
LINE
  5
362
330
17
100
AcDbEntity
  8
0
100
AcDbLine
 10
2.9410000000000016
 20
8.092238068580627
 30
0.0
 11
3.5497600000000062
 21
8.092238068580627
 31
0.0
  0
LINE
  5
363
330
17
100
AcDbEntity
  8
0
100
AcDbLine
 10
3.5497600000000062
 20
8.092238068580627
 30
0.0
 11
3.9099999999999984
 21
8.092238068580627
 31
0.0
  0
LINE
  5
364
330
17
100
AcDbEntity
  8
0
100
AcDbLine
 10
4.741000000000002
 20
8.092238068580627
 30
0.0
 11
5.1012399999999944
 21
8.092238068580627
 31
0.0
  0
LINE
  5
365
330
17
100
AcDbEntity
  8
0
100
AcDbLine
 10
5.1012399999999944
 20
8.092238068580627
 30
0.0
 11
5.709999999999998
 21
8.092238068580627
 31
0.0
  0
LINE
  5
366
330
17
100
AcDbEntity
  8
0
100
AcDbLine
 10
6.541000000000002
 20
8.092238068580627
 30
0.0
 11
6.901239999999994
 21
8.092238068580627
 31
0.0
  0
LINE
  5
367
330
17
100
AcDbEntity
  8
0
100
AcDbLine
 10
6.901239999999994
 20
8.092238068580627
 30
0.0
 11
7.509999999999998
 21
8.092238068580627
 31
0.0
  0
LINE
  5
368
330
17
100
AcDbEntity
  8
0
100
AcDbLine
 10
8.341000000000003
 20
8.092238068580627
 30
0.0
 11
8.701239999999995
 21
8.092238068580627
 31
0.0
  0
LINE
  5
369
330
17
100
AcDbEntity
  8
0
100
AcDbLine
 10
8.701239999999995
 20
8.092238068580627
 30
0.0
 11
9.309999999999999
 21
8.092238068580627
 31
0.0
  0
LINE
  5
36A
330
17
100
AcDbEntity
  8
0
100
AcDbLine
 10
10.141000000000002
 20
8.092238068580627
 30
0.0
 11
10.501239999999994
 21
8.092238068580627
 31
0.0
  0
LINE
  5
36B
330
17
100
AcDbEntity
  8
0
100
AcDbLine
 10
10.501239999999994
 20
8.092238068580627
 30
0.0
 11
11.109999999999998
 21
8.092238068580627
 31
0.0
  0
LINE
  5
36C
330
17
100
AcDbEntity
  8
0
100
AcDbLine
 10
11.941000000000003
 20
8.092238068580627
 30
0.0
 11
12.301239999999995
 21
8.092238068580627
 31
0.0
  0
LINE
  5
36D
330
17
100
AcDbEntity
  8
0
100
AcDbLine
 10
12.301239999999995
 20
8.092238068580627
 30
0.0
 11
12.909999999999998
 21
8.092238068580627
 31
0.0
  0
LINE
  5
36E
330
17
100
AcDbEntity
  8
0
100
AcDbLine
 10
13.741000000000003
 20
8.092238068580627
 30
0.0
 11
13.741760000000003
 21
8.092238068580627
 31
0.0
  0
LINE
  5
36F
330
17
100
AcDbEntity
  8
0
100
AcDbLine
 10
13.741760000000003
 20
8.092238068580627
 30
0.0
 11
14.017999999999995
 21
8.092238068580627
 31
0.0
  0
LINE
  5
370
330
17
100
AcDbEntity
  8
0
100
AcDbLine
 10
1.1260000000000017
 20
8.592238068580627
 30
0.0
 11
1.485999999999994
 21
8.592238068580627
 31
0.0
  0
LINE
  5
371
330
17
100
AcDbEntity
  8
0
100
AcDbLine
 10
1.1260000000000017
 20
8.592238068580627
 30
0.0
 11
1.485999999999994
 21
8.592238068580627
 31
0.0
  0
LINE
  5
372
330
17
100
AcDbEntity
  8
0
100
AcDbLine
 10
1.485999999999994
 20
8.592238068580627
 30
0.0
 11
2.0939999999999985
 21
8.592238068580627
 31
0.0
  0
LINE
  5
373
330
17
100
AcDbEntity
  8
0
100
AcDbLine
 10
2.926000000000002
 20
8.592238068580627
 30
0.0
 11
3.2859999999999943
 21
8.592238068580627
 31
0.0
  0
LINE
  5
374
330
17
100
AcDbEntity
  8
0
100
AcDbLine
 10
3.2859999999999943
 20
8.592238068580627
 30
0.0
 11
3.8939999999999984
 21
8.592238068580627
 31
0.0
  0
LINE
  5
375
330
17
100
AcDbEntity
  8
0
100
AcDbLine
 10
4.726000000000002
 20
8.592238068580627
 30
0.0
 11
5.085999999999994
 21
8.592238068580627
 31
0.0
  0
LINE
  5
376
330
17
100
AcDbEntity
  8
0
100
AcDbLine
 10
5.085999999999994
 20
8.592238068580627
 30
0.0
 11
5.693999999999998
 21
8.592238068580627
 31
0.0
  0
LINE
  5
377
330
17
100
AcDbEntity
  8
0
100
AcDbLine
 10
6.526000000000002
 20
8.592238068580627
 30
0.0
 11
6.885999999999994
 21
8.592238068580627
 31
0.0
  0
LINE
  5
378
330
17
100
AcDbEntity
  8
0
100
AcDbLine
 10
6.885999999999994
 20
8.592238068580627
 30
0.0
 11
7.493999999999998
 21
8.592238068580627
 31
0.0
  0
LINE
  5
379
330
17
100
AcDbEntity
  8
0
100
AcDbLine
 10
8.326000000000002
 20
8.592238068580627
 30
0.0
 11
8.685999999999995
 21
8.592238068580627
 31
0.0
  0
LINE
  5
37A
330
17
100
AcDbEntity
  8
0
100
AcDbLine
 10
8.685999999999995
 20
8.592238068580627
 30
0.0
 11
9.293999999999999
 21
8.592238068580627
 31
0.0
  0
LINE
  5
37B
330
17
100
AcDbEntity
  8
0
100
AcDbLine
 10
10.126000000000003
 20
8.592238068580627
 30
0.0
 11
10.485999999999995
 21
8.592238068580627
 31
0.0
  0
LINE
  5
37C
330
17
100
AcDbEntity
  8
0
100
AcDbLine
 10
10.485999999999995
 20
8.592238068580627
 30
0.0
 11
11.093999999999998
 21
8.592238068580627
 31
0.0
  0
LINE
  5
37D
330
17
100
AcDbEntity
  8
0
100
AcDbLine
 10
11.926000000000002
 20
8.592238068580627
 30
0.0
 11
12.285999999999994
 21
8.592238068580627
 31
0.0
  0
LINE
  5
37E
330
17
100
AcDbEntity
  8
0
100
AcDbLine
 10
12.285999999999994
 20
8.592238068580627
 30
0.0
 11
12.893999999999998
 21
8.592238068580627
 31
0.0
  0
LINE
  5
37F
330
17
100
AcDbEntity
  8
0
100
AcDbLine
 10
13.726000000000003
 20
8.592238068580627
 30
0.0
 11
14.005839999999996
 21
8.592238068580627
 31
0.0
  0
LINE
  5
380
330
17
100
AcDbEntity
  8
0
100
AcDbLine
 10
1.1110000000000018
 20
9.092238068580627
 30
0.0
 11
1.4709999999999943
 21
9.092238068580627
 31
0.0
  0
LINE
  5
381
330
17
100
AcDbEntity
  8
0
100
AcDbLine
 10
1.1110000000000018
 20
9.092238068580627
 30
0.0
 11
1.4709999999999943
 21
9.092238068580627
 31
0.0
  0
LINE
  5
382
330
17
100
AcDbEntity
  8
0
100
AcDbLine
 10
1.4709999999999943
 20
9.092238068580627
 30
0.0
 11
2.0789999999999984
 21
9.092238068580627
 31
0.0
  0
LINE
  5
383
330
17
100
AcDbEntity
  8
0
100
AcDbLine
 10
2.911000000000002
 20
9.092238068580627
 30
0.0
 11
3.519000000000006
 21
9.092238068580627
 31
0.0
  0
LINE
  5
384
330
17
100
AcDbEntity
  8
0
100
AcDbLine
 10
3.519000000000006
 20
9.092238068580627
 30
0.0
 11
3.8789999999999982
 21
9.092238068580627
 31
0.0
  0
LINE
  5
385
330
17
100
AcDbEntity
  8
0
100
AcDbLine
 10
4.711000000000002
 20
9.092238068580627
 30
0.0
 11
5.319000000000006
 21
9.092238068580627
 31
0.0
  0
LINE
  5
386
330
17
100
AcDbEntity
  8
0
100
AcDbLine
 10
5.319000000000006
 20
9.092238068580627
 30
0.0
 11
5.6789999999999985
 21
9.092238068580627
 31
0.0
  0
LINE
  5
387
330
17
100
AcDbEntity
  8
0
100
AcDbLine
 10
6.511000000000002
 20
9.092238068580627
 30
0.0
 11
7.119000000000006
 21
9.092238068580627
 31
0.0
  0
LINE
  5
388
330
17
100
AcDbEntity
  8
0
100
AcDbLine
 10
7.119000000000006
 20
9.092238068580627
 30
0.0
 11
7.478999999999998
 21
9.092238068580627
 31
0.0
  0
LINE
  5
389
330
17
100
AcDbEntity
  8
0
100
AcDbLine
 10
8.311000000000002
 20
9.092238068580627
 30
0.0
 11
8.670999999999994
 21
9.092238068580627
 31
0.0
  0
LINE
  5
38A
330
17
100
AcDbEntity
  8
0
100
AcDbLine
 10
8.670999999999994
 20
9.092238068580627
 30
0.0
 11
9.278999999999998
 21
9.092238068580627
 31
0.0
  0
LINE
  5
38B
330
17
100
AcDbEntity
  8
0
100
AcDbLine
 10
10.111000000000002
 20
9.092238068580627
 30
0.0
 11
10.470999999999995
 21
9.092238068580627
 31
0.0
  0
LINE
  5
38C
330
17
100
AcDbEntity
  8
0
100
AcDbLine
 10
10.470999999999995
 20
9.092238068580627
 30
0.0
 11
11.078999999999999
 21
9.092238068580627
 31
0.0
  0
LINE
  5
38D
330
17
100
AcDbEntity
  8
0
100
AcDbLine
 10
11.911000000000003
 20
9.092238068580627
 30
0.0
 11
12.270999999999995
 21
9.092238068580627
 31
0.0
  0
LINE
  5
38E
330
17
100
AcDbEntity
  8
0
100
AcDbLine
 10
12.270999999999995
 20
9.092238068580627
 30
0.0
 11
12.878999999999998
 21
9.092238068580627
 31
0.0
  0
LINE
  5
38F
330
17
100
AcDbEntity
  8
0
100
AcDbLine
 10
13.711000000000002
 20
9.092238068580627
 30
0.0
 11
13.994439999999996
 21
9.092238068580627
 31
0.0
  0
LINE
  5
390
330
17
100
AcDbEntity
  8
0
100
AcDbLine
 10
1.095000000000002
 20
9.592238068580627
 30
0.0
 11
1.7037600000000057
 21
9.592238068580627
 31
0.0
  0
LINE
  5
391
330
17
100
AcDbEntity
  8
0
100
AcDbLine
 10
1.095000000000002
 20
9.592238068580627
 30
0.0
 11
1.7037600000000057
 21
9.592238068580627
 31
0.0
  0
LINE
  5
392
330
17
100
AcDbEntity
  8
0
100
AcDbLine
 10
1.7037600000000057
 20
9.592238068580627
 30
0.0
 11
2.0639999999999983
 21
9.592238068580627
 31
0.0
  0
LINE
  5
393
330
17
100
AcDbEntity
  8
0
100
AcDbLine
 10
2.895000000000002
 20
9.592238068580627
 30
0.0
 11
3.2552399999999944
 21
9.592238068580627
 31
0.0
  0
LINE
  5
394
330
17
100
AcDbEntity
  8
0
100
AcDbLine
 10
3.2552399999999944
 20
9.592238068580627
 30
0.0
 11
3.8639999999999985
 21
9.592238068580627
 31
0.0
  0
LINE
  5
395
330
17
100
AcDbEntity
  8
0
100
AcDbLine
 10
4.695000000000002
 20
9.592238068580627
 30
0.0
 11
5.055239999999994
 21
9.592238068580627
 31
0.0
  0
LINE
  5
396
330
17
100
AcDbEntity
  8
0
100
AcDbLine
 10
5.055239999999994
 20
9.592238068580627
 30
0.0
 11
5.663999999999998
 21
9.592238068580627
 31
0.0
  0
LINE
  5
397
330
17
100
AcDbEntity
  8
0
100
AcDbLine
 10
6.495000000000002
 20
9.592238068580627
 30
0.0
 11
7.103760000000006
 21
9.592238068580627
 31
0.0
  0
LINE
  5
398
330
17
100
AcDbEntity
  8
0
100
AcDbLine
 10
7.103760000000006
 20
9.592238068580627
 30
0.0
 11
7.463999999999999
 21
9.592238068580627
 31
0.0
  0
LINE
  5
399
330
17
100
AcDbEntity
  8
0
100
AcDbLine
 10
8.295000000000002
 20
9.592238068580627
 30
0.0
 11
8.655239999999994
 21
9.592238068580627
 31
0.0
  0
LINE
  5
39A
330
17
100
AcDbEntity
  8
0
100
AcDbLine
 10
8.655239999999994
 20
9.592238068580627
 30
0.0
 11
9.263999999999998
 21
9.592238068580627
 31
0.0
  0
LINE
  5
39B
330
17
100
AcDbEntity
  8
0
100
AcDbLine
 10
10.095000000000002
 20
9.592238068580627
 30
0.0
 11
10.455239999999995
 21
9.592238068580627
 31
0.0
  0
LINE
  5
39C
330
17
100
AcDbEntity
  8
0
100
AcDbLine
 10
10.455239999999995
 20
9.592238068580627
 30
0.0
 11
11.063999999999998
 21
9.592238068580627
 31
0.0
  0
LINE
  5
39D
330
17
100
AcDbEntity
  8
0
100
AcDbLine
 10
11.895000000000003
 20
9.592238068580627
 30
0.0
 11
12.255239999999995
 21
9.592238068580627
 31
0.0
  0
LINE
  5
39E
330
17
100
AcDbEntity
  8
0
100
AcDbLine
 10
12.255239999999995
 20
9.592238068580627
 30
0.0
 11
12.863999999999999
 21
9.592238068580627
 31
0.0
  0
LINE
  5
39F
330
17
100
AcDbEntity
  8
0
100
AcDbLine
 10
13.695000000000002
 20
9.592238068580627
 30
0.0
 11
13.695760000000003
 21
9.592238068580627
 31
0.0
  0
LINE
  5
3A0
330
17
100
AcDbEntity
  8
0
100
AcDbLine
 10
13.695760000000003
 20
9.592238068580627
 30
0.0
 11
13.983039999999997
 21
9.592238068580627
 31
0.0
  0
LINE
  5
3A1
330
17
100
AcDbEntity
  8
0
100
AcDbLine
 10
1.0800000000000018
 20
10.092238068580627
 30
0.0
 11
1.688000000000006
 21
10.092238068580627
 31
0.0
  0
LINE
  5
3A2
330
17
100
AcDbEntity
  8
0
100
AcDbLine
 10
1.0800000000000018
 20
10.092238068580627
 30
0.0
 11
1.688000000000006
 21
10.092238068580627
 31
0.0
  0
LINE
  5
3A3
330
17
100
AcDbEntity
  8
0
100
AcDbLine
 10
1.688000000000006
 20
10.092238068580627
 30
0.0
 11
2.0479999999999983
 21
10.092238068580627
 31
0.0
  0
LINE
  5
3A4
330
17
100
AcDbEntity
  8
0
100
AcDbLine
 10
2.8800000000000017
 20
10.092238068580627
 30
0.0
 11
3.239999999999994
 21
10.092238068580627
 31
0.0
  0
LINE
  5
3A5
330
17
100
AcDbEntity
  8
0
100
AcDbLine
 10
3.239999999999994
 20
10.092238068580627
 30
0.0
 11
3.8479999999999985
 21
10.092238068580627
 31
0.0
  0
LINE
  5
3A6
330
17
100
AcDbEntity
  8
0
100
AcDbLine
 10
4.6800000000000015
 20
10.092238068580627
 30
0.0
 11
5.039999999999994
 21
10.092238068580627
 31
0.0
  0
LINE
  5
3A7
330
17
100
AcDbEntity
  8
0
100
AcDbLine
 10
5.039999999999994
 20
10.092238068580627
 30
0.0
 11
5.647999999999998
 21
10.092238068580627
 31
0.0
  0
LINE
  5
3A8
330
17
100
AcDbEntity
  8
0
100
AcDbLine
 10
6.480000000000002
 20
10.092238068580627
 30
0.0
 11
7.088000000000006
 21
10.092238068580627
 31
0.0
  0
LINE
  5
3A9
330
17
100
AcDbEntity
  8
0
100
AcDbLine
 10
7.088000000000006
 20
10.092238068580627
 30
0.0
 11
7.447999999999999
 21
10.092238068580627
 31
0.0
  0
LINE
  5
3AA
330
17
100
AcDbEntity
  8
0
100
AcDbLine
 10
8.280000000000003
 20
10.092238068580627
 30
0.0
 11
8.639999999999995
 21
10.092238068580627
 31
0.0
  0
LINE
  5
3AB
330
17
100
AcDbEntity
  8
0
100
AcDbLine
 10
8.639999999999995
 20
10.092238068580627
 30
0.0
 11
9.247999999999998
 21
10.092238068580627
 31
0.0
  0
LINE
  5
3AC
330
17
100
AcDbEntity
  8
0
100
AcDbLine
 10
10.080000000000002
 20
10.092238068580627
 30
0.0
 11
10.439999999999994
 21
10.092238068580627
 31
0.0
  0
LINE
  5
3AD
330
17
100
AcDbEntity
  8
0
100
AcDbLine
 10
10.439999999999994
 20
10.092238068580627
 30
0.0
 11
11.047999999999998
 21
10.092238068580627
 31
0.0
  0
LINE
  5
3AE
330
17
100
AcDbEntity
  8
0
100
AcDbLine
 10
11.880000000000003
 20
10.092238068580627
 30
0.0
 11
12.239999999999995
 21
10.092238068580627
 31
0.0
  0
LINE
  5
3AF
330
17
100
AcDbEntity
  8
0
100
AcDbLine
 10
12.239999999999995
 20
10.092238068580627
 30
0.0
 11
12.847999999999999
 21
10.092238068580627
 31
0.0
  0
LINE
  5
3B0
330
17
100
AcDbEntity
  8
0
100
AcDbLine
 10
13.680000000000003
 20
10.092238068580627
 30
0.0
 11
13.970879999999996
 21
10.092238068580627
 31
0.0
  0
LINE
  5
3B1
330
17
100
AcDbEntity
  8
0
100
AcDbLine
 10
1.0650000000000017
 20
10.592238068580627
 30
0.0
 11
1.424999999999994
 21
10.592238068580627
 31
0.0
  0
LINE
  5
3B2
330
17
100
AcDbEntity
  8
0
100
AcDbLine
 10
1.0650000000000017
 20
10.592238068580627
 30
0.0
 11
1.424999999999994
 21
10.592238068580627
 31
0.0
  0
LINE
  5
3B3
330
17
100
AcDbEntity
  8
0
100
AcDbLine
 10
1.424999999999994
 20
10.592238068580627
 30
0.0
 11
2.032999999999998
 21
10.592238068580627
 31
0.0
  0
LINE
  5
3B4
330
17
100
AcDbEntity
  8
0
100
AcDbLine
 10
2.8650000000000015
 20
10.592238068580627
 30
0.0
 11
3.473000000000006
 21
10.592238068580627
 31
0.0
  0
LINE
  5
3B5
330
17
100
AcDbEntity
  8
0
100
AcDbLine
 10
3.473000000000006
 20
10.592238068580627
 30
0.0
 11
3.8329999999999984
 21
10.592238068580627
 31
0.0
  0
LINE
  5
3B6
330
17
100
AcDbEntity
  8
0
100
AcDbLine
 10
4.665000000000002
 20
10.592238068580627
 30
0.0
 11
5.024999999999994
 21
10.592238068580627
 31
0.0
  0
LINE
  5
3B7
330
17
100
AcDbEntity
  8
0
100
AcDbLine
 10
5.024999999999994
 20
10.592238068580627
 30
0.0
 11
5.632999999999998
 21
10.592238068580627
 31
0.0
  0
LINE
  5
3B8
330
17
100
AcDbEntity
  8
0
100
AcDbLine
 10
6.465000000000002
 20
10.592238068580627
 30
0.0
 11
6.824999999999994
 21
10.592238068580627
 31
0.0
  0
LINE
  5
3B9
330
17
100
AcDbEntity
  8
0
100
AcDbLine
 10
6.824999999999994
 20
10.592238068580627
 30
0.0
 11
7.432999999999998
 21
10.592238068580627
 31
0.0
  0
LINE
  5
3BA
330
17
100
AcDbEntity
  8
0
100
AcDbLine
 10
8.265000000000002
 20
10.592238068580627
 30
0.0
 11
8.624999999999995
 21
10.592238068580627
 31
0.0
  0
LINE
  5
3BB
330
17
100
AcDbEntity
  8
0
100
AcDbLine
 10
8.624999999999995
 20
10.592238068580627
 30
0.0
 11
9.232999999999999
 21
10.592238068580627
 31
0.0
  0
LINE
  5
3BC
330
17
100
AcDbEntity
  8
0
100
AcDbLine
 10
10.065000000000003
 20
10.592238068580627
 30
0.0
 11
10.424999999999995
 21
10.592238068580627
 31
0.0
  0
LINE
  5
3BD
330
17
100
AcDbEntity
  8
0
100
AcDbLine
 10
10.424999999999995
 20
10.592238068580627
 30
0.0
 11
11.032999999999998
 21
10.592238068580627
 31
0.0
  0
LINE
  5
3BE
330
17
100
AcDbEntity
  8
0
100
AcDbLine
 10
11.865000000000002
 20
10.592238068580627
 30
0.0
 11
12.224999999999994
 21
10.592238068580627
 31
0.0
  0
LINE
  5
3BF
330
17
100
AcDbEntity
  8
0
100
AcDbLine
 10
12.224999999999994
 20
10.592238068580627
 30
0.0
 11
12.832999999999998
 21
10.592238068580627
 31
0.0
  0
LINE
  5
3C0
330
17
100
AcDbEntity
  8
0
100
AcDbLine
 10
13.665000000000003
 20
10.592238068580627
 30
0.0
 11
13.959479999999996
 21
10.592238068580627
 31
0.0
  0
LINE
  5
3C1
330
17
100
AcDbEntity
  8
0
100
AcDbLine
 10
1.050000000000002
 20
11.092238068580627
 30
0.0
 11
1.6580000000000057
 21
11.092238068580627
 31
0.0
  0
LINE
  5
3C2
330
17
100
AcDbEntity
  8
0
100
AcDbLine
 10
1.050000000000002
 20
11.092238068580627
 30
0.0
 11
1.6580000000000057
 21
11.092238068580627
 31
0.0
  0
LINE
  5
3C3
330
17
100
AcDbEntity
  8
0
100
AcDbLine
 10
1.6580000000000057
 20
11.092238068580627
 30
0.0
 11
2.017999999999998
 21
11.092238068580627
 31
0.0
  0
LINE
  5
3C4
330
17
100
AcDbEntity
  8
0
100
AcDbLine
 10
2.850000000000002
 20
11.092238068580627
 30
0.0
 11
3.458000000000006
 21
11.092238068580627
 31
0.0
  0
LINE
  5
3C5
330
17
100
AcDbEntity
  8
0
100
AcDbLine
 10
3.458000000000006
 20
11.092238068580627
 30
0.0
 11
3.8179999999999983
 21
11.092238068580627
 31
0.0
  0
LINE
  5
3C6
330
17
100
AcDbEntity
  8
0
100
AcDbLine
 10
4.650000000000002
 20
11.092238068580627
 30
0.0
 11
5.258000000000006
 21
11.092238068580627
 31
0.0
  0
LINE
  5
3C7
330
17
100
AcDbEntity
  8
0
100
AcDbLine
 10
5.258000000000006
 20
11.092238068580627
 30
0.0
 11
5.6179999999999986
 21
11.092238068580627
 31
0.0
  0
LINE
  5
3C8
330
17
100
AcDbEntity
  8
0
100
AcDbLine
 10
6.450000000000002
 20
11.092238068580627
 30
0.0
 11
7.058000000000006
 21
11.092238068580627
 31
0.0
  0
LINE
  5
3C9
330
17
100
AcDbEntity
  8
0
100
AcDbLine
 10
7.058000000000006
 20
11.092238068580627
 30
0.0
 11
7.417999999999998
 21
11.092238068580627
 31
0.0
  0
LINE
  5
3CA
330
17
100
AcDbEntity
  8
0
100
AcDbLine
 10
8.250000000000002
 20
11.092238068580627
 30
0.0
 11
8.609999999999994
 21
11.092238068580627
 31
0.0
  0
LINE
  5
3CB
330
17
100
AcDbEntity
  8
0
100
AcDbLine
 10
8.609999999999994
 20
11.092238068580627
 30
0.0
 11
9.217999999999998
 21
11.092238068580627
 31
0.0
  0
LINE
  5
3CC
330
17
100
AcDbEntity
  8
0
100
AcDbLine
 10
10.050000000000002
 20
11.092238068580627
 30
0.0
 11
10.409999999999995
 21
11.092238068580627
 31
0.0
  0
LINE
  5
3CD
330
17
100
AcDbEntity
  8
0
100
AcDbLine
 10
10.409999999999995
 20
11.092238068580627
 30
0.0
 11
11.017999999999999
 21
11.092238068580627
 31
0.0
  0
LINE
  5
3CE
330
17
100
AcDbEntity
  8
0
100
AcDbLine
 10
11.850000000000003
 20
11.092238068580627
 30
0.0
 11
12.209999999999996
 21
11.092238068580627
 31
0.0
  0
LINE
  5
3CF
330
17
100
AcDbEntity
  8
0
100
AcDbLine
 10
12.209999999999996
 20
11.092238068580627
 30
0.0
 11
12.817999999999998
 21
11.092238068580627
 31
0.0
  0
LINE
  5
3D0
330
17
100
AcDbEntity
  8
0
100
AcDbLine
 10
13.650000000000002
 20
11.092238068580627
 30
0.0
 11
13.948079999999996
 21
11.092238068580627
 31
0.0
  0
LINE
  5
3D1
330
17
100
AcDbEntity
  8
0
100
AcDbLine
 10
1.0340000000000018
 20
11.592238068580627
 30
0.0
 11
1.3939999999999944
 21
11.592238068580627
 31
0.0
  0
LINE
  5
3D2
330
17
100
AcDbEntity
  8
0
100
AcDbLine
 10
1.0340000000000018
 20
11.592238068580627
 30
0.0
 11
1.3939999999999944
 21
11.592238068580627
 31
0.0
  0
LINE
  5
3D3
330
17
100
AcDbEntity
  8
0
100
AcDbLine
 10
1.3939999999999944
 20
11.592238068580627
 30
0.0
 11
2.0019999999999984
 21
11.592238068580627
 31
0.0
  0
LINE
  5
3D4
330
17
100
AcDbEntity
  8
0
100
AcDbLine
 10
2.834000000000002
 20
11.592238068580627
 30
0.0
 11
3.442000000000006
 21
11.592238068580627
 31
0.0
  0
LINE
  5
3D5
330
17
100
AcDbEntity
  8
0
100
AcDbLine
 10
3.442000000000006
 20
11.592238068580627
 30
0.0
 11
3.8019999999999983
 21
11.592238068580627
 31
0.0
  0
LINE
  5
3D6
330
17
100
AcDbEntity
  8
0
100
AcDbLine
 10
4.634000000000002
 20
11.592238068580627
 30
0.0
 11
5.242000000000006
 21
11.592238068580627
 31
0.0
  0
LINE
  5
3D7
330
17
100
AcDbEntity
  8
0
100
AcDbLine
 10
5.242000000000006
 20
11.592238068580627
 30
0.0
 11
5.6019999999999985
 21
11.592238068580627
 31
0.0
  0
LINE
  5
3D8
330
17
100
AcDbEntity
  8
0
100
AcDbLine
 10
6.434000000000002
 20
11.592238068580627
 30
0.0
 11
7.042000000000006
 21
11.592238068580627
 31
0.0
  0
LINE
  5
3D9
330
17
100
AcDbEntity
  8
0
100
AcDbLine
 10
7.042000000000006
 20
11.592238068580627
 30
0.0
 11
7.401999999999998
 21
11.592238068580627
 31
0.0
  0
LINE
  5
3DA
330
17
100
AcDbEntity
  8
0
100
AcDbLine
 10
8.234000000000002
 20
11.592238068580627
 30
0.0
 11
8.593999999999994
 21
11.592238068580627
 31
0.0
  0
LINE
  5
3DB
330
17
100
AcDbEntity
  8
0
100
AcDbLine
 10
8.593999999999994
 20
11.592238068580627
 30
0.0
 11
9.201999999999998
 21
11.592238068580627
 31
0.0
  0
LINE
  5
3DC
330
17
100
AcDbEntity
  8
0
100
AcDbLine
 10
10.034000000000002
 20
11.592238068580627
 30
0.0
 11
10.393999999999995
 21
11.592238068580627
 31
0.0
  0
LINE
  5
3DD
330
17
100
AcDbEntity
  8
0
100
AcDbLine
 10
10.393999999999995
 20
11.592238068580627
 30
0.0
 11
11.001999999999999
 21
11.592238068580627
 31
0.0
  0
LINE
  5
3DE
330
17
100
AcDbEntity
  8
0
100
AcDbLine
 10
11.834000000000003
 20
11.592238068580627
 30
0.0
 11
12.193999999999996
 21
11.592238068580627
 31
0.0
  0
LINE
  5
3DF
330
17
100
AcDbEntity
  8
0
100
AcDbLine
 10
12.193999999999996
 20
11.592238068580627
 30
0.0
 11
12.801999999999998
 21
11.592238068580627
 31
0.0
  0
LINE
  5
3E0
330
17
100
AcDbEntity
  8
0
100
AcDbLine
 10
13.634000000000002
 20
11.592238068580627
 30
0.0
 11
13.935919999999996
 21
11.592238068580627
 31
0.0
  0
LINE
  5
3E1
330
17
100
AcDbEntity
  8
0
100
AcDbLine
 10
1.019000000000002
 20
12.092238068580627
 30
0.0
 11
1.6270000000000058
 21
12.092238068580627
 31
0.0
  0
LINE
  5
3E2
330
17
100
AcDbEntity
  8
0
100
AcDbLine
 10
1.019000000000002
 20
12.092238068580627
 30
0.0
 11
1.6270000000000058
 21
12.092238068580627
 31
0.0
  0
LINE
  5
3E3
330
17
100
AcDbEntity
  8
0
100
AcDbLine
 10
1.6270000000000058
 20
12.092238068580627
 30
0.0
 11
1.9869999999999983
 21
12.092238068580627
 31
0.0
  0
LINE
  5
3E4
330
17
100
AcDbEntity
  8
0
100
AcDbLine
 10
2.8190000000000017
 20
12.092238068580627
 30
0.0
 11
3.178999999999994
 21
12.092238068580627
 31
0.0
  0
LINE
  5
3E5
330
17
100
AcDbEntity
  8
0
100
AcDbLine
 10
3.178999999999994
 20
12.092238068580627
 30
0.0
 11
3.7869999999999986
 21
12.092238068580627
 31
0.0
  0
LINE
  5
3E6
330
17
100
AcDbEntity
  8
0
100
AcDbLine
 10
4.6190000000000015
 20
12.092238068580627
 30
0.0
 11
4.978999999999994
 21
12.092238068580627
 31
0.0
  0
LINE
  5
3E7
330
17
100
AcDbEntity
  8
0
100
AcDbLine
 10
4.978999999999994
 20
12.092238068580627
 30
0.0
 11
5.586999999999998
 21
12.092238068580627
 31
0.0
  0
LINE
  5
3E8
330
17
100
AcDbEntity
  8
0
100
AcDbLine
 10
6.419000000000002
 20
12.092238068580627
 30
0.0
 11
7.027000000000006
 21
12.092238068580627
 31
0.0
  0
LINE
  5
3E9
330
17
100
AcDbEntity
  8
0
100
AcDbLine
 10
7.027000000000006
 20
12.092238068580627
 30
0.0
 11
7.386999999999999
 21
12.092238068580627
 31
0.0
  0
LINE
  5
3EA
330
17
100
AcDbEntity
  8
0
100
AcDbLine
 10
8.219000000000003
 20
12.092238068580627
 30
0.0
 11
8.578999999999995
 21
12.092238068580627
 31
0.0
  0
LINE
  5
3EB
330
17
100
AcDbEntity
  8
0
100
AcDbLine
 10
8.578999999999995
 20
12.092238068580627
 30
0.0
 11
9.186999999999998
 21
12.092238068580627
 31
0.0
  0
LINE
  5
3EC
330
17
100
AcDbEntity
  8
0
100
AcDbLine
 10
10.019000000000002
 20
12.092238068580627
 30
0.0
 11
10.378999999999994
 21
12.092238068580627
 31
0.0
  0
LINE
  5
3ED
330
17
100
AcDbEntity
  8
0
100
AcDbLine
 10
10.378999999999994
 20
12.092238068580627
 30
0.0
 11
10.986999999999998
 21
12.092238068580627
 31
0.0
  0
LINE
  5
3EE
330
17
100
AcDbEntity
  8
0
100
AcDbLine
 10
11.819000000000003
 20
12.092238068580627
 30
0.0
 11
12.427000000000005
 21
12.092238068580627
 31
0.0
  0
LINE
  5
3EF
330
17
100
AcDbEntity
  8
0
100
AcDbLine
 10
12.427000000000005
 20
12.092238068580627
 30
0.0
 11
12.786999999999997
 21
12.092238068580627
 31
0.0
  0
LINE
  5
3F0
330
17
100
AcDbEntity
  8
0
100
AcDbLine
 10
13.619000000000002
 20
12.092238068580627
 30
0.0
 11
13.924519999999994
 21
12.092238068580627
 31
0.0
  0
LINE
  5
3F1
330
17
100
AcDbEntity
  8
0
100
AcDbLine
 10
1.0040000000000018
 20
12.592238068580627
 30
0.0
 11
1.363999999999994
 21
12.592238068580627
 31
0.0
  0
LINE
  5
3F2
330
17
100
AcDbEntity
  8
0
100
AcDbLine
 10
1.0040000000000018
 20
12.592238068580627
 30
0.0
 11
1.363999999999994
 21
12.592238068580627
 31
0.0
  0
LINE
  5
3F3
330
17
100
AcDbEntity
  8
0
100
AcDbLine
 10
1.363999999999994
 20
12.592238068580627
 30
0.0
 11
1.9719999999999982
 21
12.592238068580627
 31
0.0
  0
LINE
  5
3F4
330
17
100
AcDbEntity
  8
0
100
AcDbLine
 10
2.8040000000000016
 20
12.592238068580627
 30
0.0
 11
3.412000000000006
 21
12.592238068580627
 31
0.0
  0
LINE
  5
3F5
330
17
100
AcDbEntity
  8
0
100
AcDbLine
 10
3.412000000000006
 20
12.592238068580627
 30
0.0
 11
3.7719999999999985
 21
12.592238068580627
 31
0.0
  0
LINE
  5
3F6
330
17
100
AcDbEntity
  8
0
100
AcDbLine
 10
4.604000000000002
 20
12.592238068580627
 30
0.0
 11
4.963999999999994
 21
12.592238068580627
 31
0.0
  0
LINE
  5
3F7
330
17
100
AcDbEntity
  8
0
100
AcDbLine
 10
4.963999999999994
 20
12.592238068580627
 30
0.0
 11
5.571999999999998
 21
12.592238068580627
 31
0.0
  0
LINE
  5
3F8
330
17
100
AcDbEntity
  8
0
100
AcDbLine
 10
6.404000000000002
 20
12.592238068580627
 30
0.0
 11
6.763999999999994
 21
12.592238068580627
 31
0.0
  0
LINE
  5
3F9
330
17
100
AcDbEntity
  8
0
100
AcDbLine
 10
6.763999999999994
 20
12.592238068580627
 30
0.0
 11
7.371999999999998
 21
12.592238068580627
 31
0.0
  0
LINE
  5
3FA
330
17
100
AcDbEntity
  8
0
100
AcDbLine
 10
8.204000000000002
 20
12.592238068580627
 30
0.0
 11
8.563999999999995
 21
12.592238068580627
 31
0.0
  0
LINE
  5
3FB
330
17
100
AcDbEntity
  8
0
100
AcDbLine
 10
8.563999999999995
 20
12.592238068580627
 30
0.0
 11
9.171999999999999
 21
12.592238068580627
 31
0.0
  0
LINE
  5
3FC
330
17
100
AcDbEntity
  8
0
100
AcDbLine
 10
10.004000000000003
 20
12.592238068580627
 30
0.0
 11
10.363999999999995
 21
12.592238068580627
 31
0.0
  0
LINE
  5
3FD
330
17
100
AcDbEntity
  8
0
100
AcDbLine
 10
10.363999999999995
 20
12.592238068580627
 30
0.0
 11
10.971999999999998
 21
12.592238068580627
 31
0.0
  0
LINE
  5
3FE
330
17
100
AcDbEntity
  8
0
100
AcDbLine
 10
11.804000000000002
 20
12.592238068580627
 30
0.0
 11
12.163999999999994
 21
12.592238068580627
 31
0.0
  0
LINE
  5
3FF
330
17
100
AcDbEntity
  8
0
100
AcDbLine
 10
12.163999999999994
 20
12.592238068580627
 30
0.0
 11
12.771999999999998
 21
12.592238068580627
 31
0.0
  0
LINE
  5
400
330
17
100
AcDbEntity
  8
0
100
AcDbLine
 10
13.604000000000003
 20
12.592238068580627
 30
0.0
 11
13.913119999999996
 21
12.592238068580627
 31
0.0
  0
LINE
  5
401
330
17
100
AcDbEntity
  8
0
100
AcDbLine
 10
1.0170000000000017
 20
13.092238068580627
 30
0.0
 11
1.376999999999994
 21
13.092238068580627
 31
0.0
  0
LINE
  5
402
330
17
100
AcDbEntity
  8
0
100
AcDbLine
 10
1.0170000000000017
 20
13.092238068580627
 30
0.0
 11
1.376999999999994
 21
13.092238068580627
 31
0.0
  0
LINE
  5
403
330
17
100
AcDbEntity
  8
0
100
AcDbLine
 10
1.376999999999994
 20
13.092238068580627
 30
0.0
 11
1.984999999999998
 21
13.092238068580627
 31
0.0
  0
LINE
  5
404
330
17
100
AcDbEntity
  8
0
100
AcDbLine
 10
2.817000000000002
 20
13.092238068580627
 30
0.0
 11
3.1769999999999943
 21
13.092238068580627
 31
0.0
  0
LINE
  5
405
330
17
100
AcDbEntity
  8
0
100
AcDbLine
 10
3.1769999999999943
 20
13.092238068580627
 30
0.0
 11
3.7849999999999984
 21
13.092238068580627
 31
0.0
  0
LINE
  5
406
330
17
100
AcDbEntity
  8
0
100
AcDbLine
 10
4.617000000000002
 20
13.092238068580627
 30
0.0
 11
4.976999999999994
 21
13.092238068580627
 31
0.0
  0
LINE
  5
407
330
17
100
AcDbEntity
  8
0
100
AcDbLine
 10
4.976999999999994
 20
13.092238068580627
 30
0.0
 11
5.584999999999998
 21
13.092238068580627
 31
0.0
  0
LINE
  5
408
330
17
100
AcDbEntity
  8
0
100
AcDbLine
 10
6.417000000000002
 20
13.092238068580627
 30
0.0
 11
6.776999999999994
 21
13.092238068580627
 31
0.0
  0
LINE
  5
409
330
17
100
AcDbEntity
  8
0
100
AcDbLine
 10
6.776999999999994
 20
13.092238068580627
 30
0.0
 11
7.384999999999998
 21
13.092238068580627
 31
0.0
  0
LINE
  5
40A
330
17
100
AcDbEntity
  8
0
100
AcDbLine
 10
8.217000000000002
 20
13.092238068580627
 30
0.0
 11
8.576999999999995
 21
13.092238068580627
 31
0.0
  0
LINE
  5
40B
330
17
100
AcDbEntity
  8
0
100
AcDbLine
 10
8.576999999999995
 20
13.092238068580627
 30
0.0
 11
9.184999999999999
 21
13.092238068580627
 31
0.0
  0
LINE
  5
40C
330
17
100
AcDbEntity
  8
0
100
AcDbLine
 10
10.017000000000003
 20
13.092238068580627
 30
0.0
 11
10.376999999999995
 21
13.092238068580627
 31
0.0
  0
LINE
  5
40D
330
17
100
AcDbEntity
  8
0
100
AcDbLine
 10
10.376999999999995
 20
13.092238068580627
 30
0.0
 11
10.984999999999998
 21
13.092238068580627
 31
0.0
  0
LINE
  5
40E
330
17
100
AcDbEntity
  8
0
100
AcDbLine
 10
11.817000000000002
 20
13.092238068580627
 30
0.0
 11
12.176999999999994
 21
13.092238068580627
 31
0.0
  0
LINE
  5
40F
330
17
100
AcDbEntity
  8
0
100
AcDbLine
 10
12.176999999999994
 20
13.092238068580627
 30
0.0
 11
12.784999999999998
 21
13.092238068580627
 31
0.0
  0
LINE
  5
410
330
17
100
AcDbEntity
  8
0
100
AcDbLine
 10
13.617000000000003
 20
13.092238068580627
 30
0.0
 11
13.922999999999995
 21
13.092238068580627
 31
0.0
  0
LINE
  5
411
330
17
100
AcDbEntity
  8
0
100
AcDbLine
 10
1.0770000000000017
 20
13.592238068580627
 30
0.0
 11
1.436999999999994
 21
13.592238068580627
 31
0.0
  0
LINE
  5
412
330
17
100
AcDbEntity
  8
0
100
AcDbLine
 10
1.0770000000000017
 20
13.592238068580627
 30
0.0
 11
1.436999999999994
 21
13.592238068580627
 31
0.0
  0
LINE
  5
413
330
17
100
AcDbEntity
  8
0
100
AcDbLine
 10
1.436999999999994
 20
13.592238068580627
 30
0.0
 11
2.044999999999998
 21
13.592238068580627
 31
0.0
  0
LINE
  5
414
330
17
100
AcDbEntity
  8
0
100
AcDbLine
 10
2.8770000000000016
 20
13.592238068580627
 30
0.0
 11
3.236999999999994
 21
13.592238068580627
 31
0.0
  0
LINE
  5
415
330
17
100
AcDbEntity
  8
0
100
AcDbLine
 10
3.236999999999994
 20
13.592238068580627
 30
0.0
 11
3.8449999999999984
 21
13.592238068580627
 31
0.0
  0
LINE
  5
416
330
17
100
AcDbEntity
  8
0
100
AcDbLine
 10
4.677000000000002
 20
13.592238068580627
 30
0.0
 11
5.2850000000000055
 21
13.592238068580627
 31
0.0
  0
LINE
  5
417
330
17
100
AcDbEntity
  8
0
100
AcDbLine
 10
5.2850000000000055
 20
13.592238068580627
 30
0.0
 11
5.644999999999999
 21
13.592238068580627
 31
0.0
  0
LINE
  5
418
330
17
100
AcDbEntity
  8
0
100
AcDbLine
 10
6.477000000000002
 20
13.592238068580627
 30
0.0
 11
7.085000000000006
 21
13.592238068580627
 31
0.0
  0
LINE
  5
419
330
17
100
AcDbEntity
  8
0
100
AcDbLine
 10
7.085000000000006
 20
13.592238068580627
 30
0.0
 11
7.4449999999999985
 21
13.592238068580627
 31
0.0
  0
LINE
  5
41A
330
17
100
AcDbEntity
  8
0
100
AcDbLine
 10
8.277000000000003
 20
13.592238068580627
 30
0.0
 11
8.885000000000005
 21
13.592238068580627
 31
0.0
  0
LINE
  5
41B
330
17
100
AcDbEntity
  8
0
100
AcDbLine
 10
8.885000000000005
 20
13.592238068580627
 30
0.0
 11
9.244999999999997
 21
13.592238068580627
 31
0.0
  0
LINE
  5
41C
330
17
100
AcDbEntity
  8
0
100
AcDbLine
 10
10.077000000000002
 20
13.592238068580627
 30
0.0
 11
10.436999999999994
 21
13.592238068580627
 31
0.0
  0
LINE
  5
41D
330
17
100
AcDbEntity
  8
0
100
AcDbLine
 10
10.436999999999994
 20
13.592238068580627
 30
0.0
 11
11.044999999999998
 21
13.592238068580627
 31
0.0
  0
LINE
  5
41E
330
17
100
AcDbEntity
  8
0
100
AcDbLine
 10
11.877000000000002
 20
13.592238068580627
 30
0.0
 11
12.236999999999995
 21
13.592238068580627
 31
0.0
  0
LINE
  5
41F
330
17
100
AcDbEntity
  8
0
100
AcDbLine
 10
12.236999999999995
 20
13.592238068580627
 30
0.0
 11
12.844999999999999
 21
13.592238068580627
 31
0.0
  0
LINE
  5
420
330
17
100
AcDbEntity
  8
0
100
AcDbLine
 10
13.677000000000003
 20
13.592238068580627
 30
0.0
 11
13.968599999999997
 21
13.592238068580627
 31
0.0
  0
LINE
  5
421
330
17
100
AcDbEntity
  8
0
100
AcDbLine
 10
1.220000000000002
 20
14.092238068580627
 30
0.0
 11
1.8280000000000058
 21
14.092238068580627
 31
0.0
  0
LINE
  5
422
330
17
100
AcDbEntity
  8
0
100
AcDbLine
 10
1.220000000000002
 20
14.092238068580627
 30
0.0
 11
1.8280000000000058
 21
14.092238068580627
 31
0.0
  0
LINE
  5
423
330
17
100
AcDbEntity
  8
0
100
AcDbLine
 10
1.8280000000000058
 20
14.092238068580627
 30
0.0
 11
2.1879999999999984
 21
14.092238068580627
 31
0.0
  0
LINE
  5
424
330
17
100
AcDbEntity
  8
0
100
AcDbLine
 10
3.020000000000002
 20
14.092238068580627
 30
0.0
 11
3.628000000000006
 21
14.092238068580627
 31
0.0
  0
LINE
  5
425
330
17
100
AcDbEntity
  8
0
100
AcDbLine
 10
3.628000000000006
 20
14.092238068580627
 30
0.0
 11
3.987999999999998
 21
14.092238068580627
 31
0.0
  0
LINE
  5
426
330
17
100
AcDbEntity
  8
0
100
AcDbLine
 10
4.820000000000002
 20
14.092238068580627
 30
0.0
 11
5.428000000000006
 21
14.092238068580627
 31
0.0
  0
LINE
  5
427
330
17
100
AcDbEntity
  8
0
100
AcDbLine
 10
5.428000000000006
 20
14.092238068580627
 30
0.0
 11
5.7879999999999985
 21
14.092238068580627
 31
0.0
  0
LINE
  5
428
330
17
100
AcDbEntity
  8
0
100
AcDbLine
 10
6.620000000000002
 20
14.092238068580627
 30
0.0
 11
7.228000000000006
 21
14.092238068580627
 31
0.0
  0
LINE
  5
429
330
17
100
AcDbEntity
  8
0
100
AcDbLine
 10
7.228000000000006
 20
14.092238068580627
 30
0.0
 11
7.587999999999998
 21
14.092238068580627
 31
0.0
  0
LINE
  5
42A
330
17
100
AcDbEntity
  8
0
100
AcDbLine
 10
8.420000000000002
 20
14.092238068580627
 30
0.0
 11
8.779999999999994
 21
14.092238068580627
 31
0.0
  0
LINE
  5
42B
330
17
100
AcDbEntity
  8
0
100
AcDbLine
 10
8.779999999999994
 20
14.092238068580627
 30
0.0
 11
9.387999999999998
 21
14.092238068580627
 31
0.0
  0
LINE
  5
42C
330
17
100
AcDbEntity
  8
0
100
AcDbLine
 10
10.220000000000002
 20
14.092238068580627
 30
0.0
 11
10.579999999999995
 21
14.092238068580627
 31
0.0
  0
LINE
  5
42D
330
17
100
AcDbEntity
  8
0
100
AcDbLine
 10
10.579999999999995
 20
14.092238068580627
 30
0.0
 11
11.187999999999999
 21
14.092238068580627
 31
0.0
  0
LINE
  5
42E
330
17
100
AcDbEntity
  8
0
100
AcDbLine
 10
12.020000000000003
 20
14.092238068580627
 30
0.0
 11
12.379999999999995
 21
14.092238068580627
 31
0.0
  0
LINE
  5
42F
330
17
100
AcDbEntity
  8
0
100
AcDbLine
 10
12.379999999999995
 20
14.092238068580627
 30
0.0
 11
12.987999999999998
 21
14.092238068580627
 31
0.0
  0
LINE
  5
430
330
17
100
AcDbEntity
  8
0
100
AcDbLine
 10
13.820000000000002
 20
14.092238068580627
 30
0.0
 11
14.077279999999996
 21
14.092238068580627
 31
0.0
  0
LINE
  5
431
330
17
100
AcDbEntity
  8
0
100
AcDbLine
 10
1.7870000000000017
 20
14.592238068580627
 30
0.0
 11
2.146999999999994
 21
14.592238068580627
 31
0.0
  0
LINE
  5
432
330
17
100
AcDbEntity
  8
0
100
AcDbLine
 10
1.7870000000000017
 20
14.592238068580627
 30
0.0
 11
2.146999999999994
 21
14.592238068580627
 31
0.0
  0
LINE
  5
433
330
17
100
AcDbEntity
  8
0
100
AcDbLine
 10
2.146999999999994
 20
14.592238068580627
 30
0.0
 11
2.7549999999999986
 21
14.592238068580627
 31
0.0
  0
LINE
  5
434
330
17
100
AcDbEntity
  8
0
100
AcDbLine
 10
3.587000000000002
 20
14.592238068580627
 30
0.0
 11
3.9469999999999943
 21
14.592238068580627
 31
0.0
  0
LINE
  5
435
330
17
100
AcDbEntity
  8
0
100
AcDbLine
 10
3.9469999999999943
 20
14.592238068580627
 30
0.0
 11
4.554999999999998
 21
14.592238068580627
 31
0.0
  0
LINE
  5
436
330
17
100
AcDbEntity
  8
0
100
AcDbLine
 10
5.387000000000002
 20
14.592238068580627
 30
0.0
 11
5.590519999999998
 21
14.592238068580627
 31
0.0
  0
LINE
  5
437
330
17
100
AcDbEntity
  8
0
100
AcDbLine
 10
6.535000000000002
 20
14.592238068580627
 30
0.0
 11
6.894999999999994
 21
14.592238068580627
 31
0.0
  0
LINE
  5
438
330
17
100
AcDbEntity
  8
0
100
AcDbLine
 10
6.894999999999994
 20
14.592238068580627
 30
0.0
 11
7.502999999999998
 21
14.592238068580627
 31
0.0
  0
LINE
  5
439
330
17
100
AcDbEntity
  8
0
100
AcDbLine
 10
8.335000000000003
 20
14.592238068580627
 30
0.0
 11
8.943000000000005
 21
14.592238068580627
 31
0.0
  0
LINE
  5
43A
330
17
100
AcDbEntity
  8
0
100
AcDbLine
 10
8.943000000000005
 20
14.592238068580627
 30
0.0
 11
9.302999999999997
 21
14.592238068580627
 31
0.0
  0
LINE
  5
43B
330
17
100
AcDbEntity
  8
0
100
AcDbLine
 10
10.135000000000002
 20
14.592238068580627
 30
0.0
 11
10.494999999999994
 21
14.592238068580627
 31
0.0
  0
LINE
  5
43C
330
17
100
AcDbEntity
  8
0
100
AcDbLine
 10
10.494999999999994
 20
14.592238068580627
 30
0.0
 11
11.102999999999998
 21
14.592238068580627
 31
0.0
  0
LINE
  5
43D
330
17
100
AcDbEntity
  8
0
100
AcDbLine
 10
11.935000000000002
 20
14.592238068580627
 30
0.0
 11
12.294999999999995
 21
14.592238068580627
 31
0.0
  0
LINE
  5
43E
330
17
100
AcDbEntity
  8
0
100
AcDbLine
 10
12.294999999999995
 20
14.592238068580627
 30
0.0
 11
12.902999999999999
 21
14.592238068580627
 31
0.0
  0
LINE
  5
43F
330
17
100
AcDbEntity
  8
0
100
AcDbLine
 10
13.735000000000003
 20
14.592238068580627
 30
0.0
 11
14.012679999999996
 21
14.592238068580627
 31
0.0
  0
ENDSEC
  0
SECTION
  2
OBJECTS
  0
DICTIONARY
  5
A
330
0
100
AcDbDictionary
281
1
  3
ACAD_COLOR
350
B
  3
ACAD_GROUP
350
C
  3
ACAD_LAYOUT
350
D
  3
ACAD_MATERIAL
350
E
  3
ACAD_MLEADERSTYLE
350
F
  3
ACAD_MLINESTYLE
350
10
  3
ACAD_PLOTSETTINGS
350
11
  3
ACAD_PLOTSTYLENAME
350
12
  3
ACAD_SCALELIST
350
14
  3
ACAD_TABLESTYLE
350
15
  3
ACAD_VISUALSTYLE
350
16
  3
EZDXF_META
350
2D
  0
DICTIONARY
  5
B
330
A
100
AcDbDictionary
281
1
  0
DICTIONARY
  5
C
330
A
100
AcDbDictionary
281
1
  0
DICTIONARY
  5
D
330
A
100
AcDbDictionary
281
1
  3
Model
350
1A
  3
Layout1
350
1E
  0
DICTIONARY
  5
E
330
A
100
AcDbDictionary
281
1
  3
ByBlock
350
1F
  3
ByLayer
350
20
  3
Global
350
21
  0
DICTIONARY
  5
F
330
A
100
AcDbDictionary
281
1
  3
Standard
350
2C
  0
DICTIONARY
  5
10
330
A
100
AcDbDictionary
281
1
  3
Standard
350
22
  0
DICTIONARY
  5
11
330
A
100
AcDbDictionary
281
1
  0
ACDBDICTIONARYWDFLT
  5
12
330
A
100
AcDbDictionary
281
1
  3
Normal
350
13
100
AcDbDictionaryWithDefault
340
13
  0
ACDBPLACEHOLDER
  5
13
330
12
  0
DICTIONARY
  5
14
330
A
100
AcDbDictionary
281
1
  0
DICTIONARY
  5
15
330
A
100
AcDbDictionary
281
1
  0
DICTIONARY
  5
16
330
A
100
AcDbDictionary
281
1
  0
LAYOUT
  5
1A
330
D
100
AcDbPlotSettings
  1

  4
A3
  6

 40
7.5
 41
20.0
 42
7.5
 43
20.0
 44
420.0
 45
297.0
 46
0.0
 47
0.0
 48
0.0
 49
0.0
140
0.0
141
0.0
142
1.0
143
1.0
 70
1024
 72
1
 73
0
 74
5
  7

 75
16
 76
0
 77
2
 78
300
147
1.0
148
0.0
149
0.0
100
AcDbLayout
  1
Model
 70
1
 71
0
 10
0.0
 20
0.0
 11
420.0
 21
297.0
 12
0.0
 22
0.0
 32
0.0
 14
1e+20
 24
1e+20
 34
1e+20
 15
-1e+20
 25
-1e+20
 35
-1e+20
146
0.0
 13
0.0
 23
0.0
 33
0.0
 16
1.0
 26
0.0
 36
0.0
 17
0.0
 27
1.0
 37
0.0
 76
1
330
17
  0
LAYOUT
  5
1E
330
D
100
AcDbPlotSettings
  1

  4
A3
  6

 40
7.5
 41
20.0
 42
7.5
 43
20.0
 44
420.0
 45
297.0
 46
0.0
 47
0.0
 48
0.0
 49
0.0
140
0.0
141
0.0
142
1.0
143
1.0
 70
0
 72
1
 73
0
 74
5
  7

 75
16
 76
0
 77
2
 78
300
147
1.0
148
0.0
149
0.0
100
AcDbLayout
  1
Layout1
 70
1
 71
1
 10
0.0
 20
0.0
 11
420.0
 21
297.0
 12
0.0
 22
0.0
 32
0.0
 14
1e+20
 24
1e+20
 34
1e+20
 15
-1e+20
 25
-1e+20
 35
-1e+20
146
0.0
 13
0.0
 23
0.0
 33
0.0
 16
1.0
 26
0.0
 36
0.0
 17
0.0
 27
1.0
 37
0.0
 76
1
330
1B
  0
MATERIAL
  5
1F
102
{ACAD_REACTORS
330
E
102
}
330
E
100
AcDbMaterial
  1
ByBlock
  2

 70
0
 40
1.0
 71
1
 41
1.0
 91
-1023410177
 42
1.0
 72
1
  3

 73
1
 74
1
 75
1
 44
0.5
 73
0
 45
1.0
 46
1.0
 77
1
  4

 78
1
 79
1
170
1
 48
1.0
171
1
  6

172
1
173
1
174
1
140
1.0
141
1.0
175
1
  7

176
1
177
1
178
1
143
1.0
179
1
  8

270
1
271
1
272
1
145
1.0
146
1.0
273
1
  9

274
1
275
1
276
1
 42
1.0
 72
1
  3

 73
1
 74
1
 75
1
 94
63
  0
MATERIAL
  5
20
102
{ACAD_REACTORS
330
E
102
}
330
E
100
AcDbMaterial
  1
ByLayer
  2

 70
0
 40
1.0
 71
1
 41
1.0
 91
-1023410177
 42
1.0
 72
1
  3

 73
1
 74
1
 75
1
 44
0.5
 73
0
 45
1.0
 46
1.0
 77
1
  4

 78
1
 79
1
170
1
 48
1.0
171
1
  6

172
1
173
1
174
1
140
1.0
141
1.0
175
1
  7

176
1
177
1
178
1
143
1.0
179
1
  8

270
1
271
1
272
1
145
1.0
146
1.0
273
1
  9

274
1
275
1
276
1
 42
1.0
 72
1
  3

 73
1
 74
1
 75
1
 94
63
  0
MATERIAL
  5
21
102
{ACAD_REACTORS
330
E
102
}
330
E
100
AcDbMaterial
  1
Global
  2

 70
0
 40
1.0
 71
1
 41
1.0
 91
-1023410177
 42
1.0
 72
1
  3

 73
1
 74
1
 75
1
 44
0.5
 73
0
 45
1.0
 46
1.0
 77
1
  4

 78
1
 79
1
170
1
 48
1.0
171
1
  6

172
1
173
1
174
1
140
1.0
141
1.0
175
1
  7

176
1
177
1
178
1
143
1.0
179
1
  8

270
1
271
1
272
1
145
1.0
146
1.0
273
1
  9

274
1
275
1
276
1
 42
1.0
 72
1
  3

 73
1
 74
1
 75
1
 94
63
  0
MLINESTYLE
  5
22
102
{ACAD_REACTORS
330
10
102
}
330
10
100
AcDbMlineStyle
  2
Standard
 70
0
  3

 62
256
 51
90.0
 52
90.0
 71
2
 49
0.5
 62
256
  6
BYLAYER
 49
-0.5
 62
256
  6
BYLAYER
  0
MLEADERSTYLE
  5
2C
102
{ACAD_REACTORS
330
F
102
}
330
F
100
AcDbMLeaderStyle
179
2
170
2
171
1
172
0
 90
2
 40
0.0
 41
0.0
173
1
 91
-1056964608
 92
-2
290
1
 42
2.0
291
1
 43
8.0
  3
Standard
 44
4.0
300

342
29
174
1
175
1
176
0
178
1
 93
-1056964608
 45
4.0
292
0
297
0
 46
4.0
 94
-1056964608
 47
1.0
 49
1.0
140
1.0
294
1
141
0.0
177
0
142
1.0
295
0
296
0
143
3.75
271
0
272
9
273
9
  0
DICTIONARY
  5
2D
330
A
100
AcDbDictionary
280
1
281
1
  3
CREATED_BY_EZDXF
350
2E
  3
WRITTEN_BY_EZDXF
350
442
  0
DICTIONARYVAR
  5
2E
330
2D
100
DictionaryVariables
280
0
  1
1.4.2 @ 2025-07-31T13:14:20.489854+00:00
  0
DICTIONARYVAR
  5
442
330
2D
100
DictionaryVariables
280
0
  1
1.4.2 @ 2025-07-31T13:14:20.545384+00:00
  0
ENDSEC
  0
EOF
