  0
SECTION
  2
HEADER
  9
$ACADVER
  1
AC1024
  9
$ACADMAINTVER
 70
6
  9
$DWGCODEPAGE
  3
ANSI_1252
  9
$LASTSAVEDBY
  1
ezdxf
  9
$INSBASE
 10
0.0
 20
0.0
 30
0.0
  9
$EXTMIN
 10
1e+20
 20
1e+20
 30
1e+20
  9
$EXTMAX
 10
-1e+20
 20
-1e+20
 30
-1e+20
  9
$LIMMIN
 10
0.0
 20
0.0
  9
$LIMMAX
 10
420.0
 20
297.0
  9
$ORTHOMODE
 70
0
  9
$REGENMODE
 70
1
  9
$FILLMODE
 70
1
  9
$QTEXTMODE
 70
0
  9
$MIRRTEXT
 70
1
  9
$LTSCALE
 40
1.0
  9
$ATTMODE
 70
1
  9
$TEXTSIZE
 40
2.5
  9
$TRACEWID
 40
1.0
  9
$TEXTSTYLE
  7
Standard
  9
$CLAYER
  8
0
  9
$CELTYPE
  6
ByLayer
  9
$CECOLOR
 62
256
  9
$CELTSCALE
 40
1.0
  9
$DISPSILH
 70
0
  9
$DIMSCALE
 40
1.0
  9
$DIMASZ
 40
2.5
  9
$DIMEXO
 40
0.625
  9
$DIMDLI
 40
3.75
  9
$DIMRND
 40
0.0
  9
$DIMDLE
 40
0.0
  9
$DIMEXE
 40
1.25
  9
$DIMTP
 40
0.0
  9
$DIMTM
 40
0.0
  9
$DIMTXT
 40
2.5
  9
$DIMCEN
 40
2.5
  9
$DIMTSZ
 40
0.0
  9
$DIMTOL
 70
0
  9
$DIMLIM
 70
0
  9
$DIMTIH
 70
0
  9
$DIMTOH
 70
0
  9
$DIMSE1
 70
0
  9
$DIMSE2
 70
0
  9
$DIMTAD
 70
1
  9
$DIMZIN
 70
8
  9
$DIMBLK
  1

  9
$DIMASO
 70
1
  9
$DIMSHO
 70
1
  9
$DIMPOST
  1

  9
$DIMAPOST
  1

  9
$DIMALT
 70
0
  9
$DIMALTD
 70
3
  9
$DIMALTF
 40
0.03937007874
  9
$DIMLFAC
 40
1.0
  9
$DIMTOFL
 70
1
  9
$DIMTVP
 40
0.0
  9
$DIMTIX
 70
0
  9
$DIMSOXD
 70
0
  9
$DIMSAH
 70
0
  9
$DIMBLK1
  1

  9
$DIMBLK2
  1

  9
$DIMSTYLE
  2
ISO-25
  9
$DIMCLRD
 70
0
  9
$DIMCLRE
 70
0
  9
$DIMCLRT
 70
0
  9
$DIMTFAC
 40
1.0
  9
$DIMGAP
 40
0.625
  9
$DIMJUST
 70
0
  9
$DIMSD1
 70
0
  9
$DIMSD2
 70
0
  9
$DIMTOLJ
 70
0
  9
$DIMTZIN
 70
8
  9
$DIMALTZ
 70
0
  9
$DIMALTTZ
 70
0
  9
$DIMUPT
 70
0
  9
$DIMDEC
 70
2
  9
$DIMTDEC
 70
2
  9
$DIMALTU
 70
2
  9
$DIMALTTD
 70
3
  9
$DIMTXSTY
  7
Standard
  9
$DIMAUNIT
 70
0
  9
$DIMADEC
 70
0
  9
$DIMALTRND
 40
0.0
  9
$DIMAZIN
 70
0
  9
$DIMDSEP
 70
44
  9
$DIMATFIT
 70
3
  9
$DIMFRAC
 70
0
  9
$DIMLDRBLK
  1

  9
$DIMLUNIT
 70
2
  9
$DIMLWD
 70
-2
  9
$DIMLWE
 70
-2
  9
$DIMTMOVE
 70
0
  9
$DIMFXL
 40
1.0
  9
$DIMFXLON
 70
0
  9
$DIMJOGANG
 40
0.785398163397
  9
$DIMTFILL
 70
0
  9
$DIMTFILLCLR
 70
0
  9
$DIMARCSYM
 70
0
  9
$DIMLTYPE
  6

  9
$DIMLTEX1
  6

  9
$DIMLTEX2
  6

  9
$DIMTXTDIRECTION
 70
0
  9
$LUNITS
 70
2
  9
$LUPREC
 70
4
  9
$SKETCHINC
 40
1.0
  9
$FILLETRAD
 40
10.0
  9
$AUNITS
 70
0
  9
$AUPREC
 70
2
  9
$MENU
  1
.
  9
$ELEVATION
 40
0.0
  9
$PELEVATION
 40
0.0
  9
$THICKNESS
 40
0.0
  9
$LIMCHECK
 70
0
  9
$CHAMFERA
 40
0.0
  9
$CHAMFERB
 40
0.0
  9
$CHAMFERC
 40
0.0
  9
$CHAMFERD
 40
0.0
  9
$SKPOLY
 70
0
  9
$TDCREATE
 40
2460888.4224074073
  9
$TDUCREATE
 40
2458532.153996898
  9
$TDUPDATE
 40
2460888.4224074073
  9
$TDUUPDATE
 40
2458532.1544311
  9
$TDINDWG
 40
0.0
  9
$TDUSRTIMER
 40
0.0
  9
$USRTIMER
 70
1
  9
$ANGBASE
 50
0.0
  9
$ANGDIR
 70
0
  9
$PDMODE
 70
0
  9
$PDSIZE
 40
0.0
  9
$PLINEWID
 40
0.0
  9
$SPLFRAME
 70
0
  9
$SPLINETYPE
 70
6
  9
$SPLINESEGS
 70
8
  9
$HANDSEED
  5
404
  9
$SURFTAB1
 70
6
  9
$SURFTAB2
 70
6
  9
$SURFTYPE
 70
6
  9
$SURFU
 70
6
  9
$SURFV
 70
6
  9
$UCSBASE
  2

  9
$UCSNAME
  2

  9
$UCSORG
 10
0.0
 20
0.0
 30
0.0
  9
$UCSXDIR
 10
1.0
 20
0.0
 30
0.0
  9
$UCSYDIR
 10
0.0
 20
1.0
 30
0.0
  9
$UCSORTHOREF
  2

  9
$UCSORTHOVIEW
 70
0
  9
$UCSORGTOP
 10
0.0
 20
0.0
 30
0.0
  9
$UCSORGBOTTOM
 10
0.0
 20
0.0
 30
0.0
  9
$UCSORGLEFT
 10
0.0
 20
0.0
 30
0.0
  9
$UCSORGRIGHT
 10
0.0
 20
0.0
 30
0.0
  9
$UCSORGFRONT
 10
0.0
 20
0.0
 30
0.0
  9
$UCSORGBACK
 10
0.0
 20
0.0
 30
0.0
  9
$PUCSBASE
  2

  9
$PUCSNAME
  2

  9
$PUCSORG
 10
0.0
 20
0.0
 30
0.0
  9
$PUCSXDIR
 10
1.0
 20
0.0
 30
0.0
  9
$PUCSYDIR
 10
0.0
 20
1.0
 30
0.0
  9
$PUCSORTHOREF
  2

  9
$PUCSORTHOVIEW
 70
0
  9
$PUCSORGTOP
 10
0.0
 20
0.0
 30
0.0
  9
$PUCSORGBOTTOM
 10
0.0
 20
0.0
 30
0.0
  9
$PUCSORGLEFT
 10
0.0
 20
0.0
 30
0.0
  9
$PUCSORGRIGHT
 10
0.0
 20
0.0
 30
0.0
  9
$PUCSORGFRONT
 10
0.0
 20
0.0
 30
0.0
  9
$PUCSORGBACK
 10
0.0
 20
0.0
 30
0.0
  9
$USERI1
 70
0
  9
$USERI2
 70
0
  9
$USERI3
 70
0
  9
$USERI4
 70
0
  9
$USERI5
 70
0
  9
$USERR1
 40
0.0
  9
$USERR2
 40
0.0
  9
$USERR3
 40
0.0
  9
$USERR4
 40
0.0
  9
$USERR5
 40
0.0
  9
$WORLDVIEW
 70
1
  9
$SHADEDGE
 70
3
  9
$SHADEDIF
 70
70
  9
$TILEMODE
 70
1
  9
$MAXACTVP
 70
64
  9
$PINSBASE
 10
0.0
 20
0.0
 30
0.0
  9
$PLIMCHECK
 70
0
  9
$PEXTMIN
 10
1e+20
 20
1e+20
 30
1e+20
  9
$PEXTMAX
 10
-1e+20
 20
-1e+20
 30
-1e+20
  9
$PLIMMIN
 10
0.0
 20
0.0
  9
$PLIMMAX
 10
420.0
 20
297.0
  9
$UNITMODE
 70
0
  9
$VISRETAIN
 70
1
  9
$PLINEGEN
 70
0
  9
$PSLTSCALE
 70
1
  9
$TREEDEPTH
 70
3020
  9
$CMLSTYLE
  2
Standard
  9
$CMLJUST
 70
0
  9
$CMLSCALE
 40
20.0
  9
$PROXYGRAPHICS
 70
1
  9
$MEASUREMENT
 70
1
  9
$CELWEIGHT
370
-1
  9
$ENDCAPS
280
0
  9
$JOINSTYLE
280
0
  9
$LWDISPLAY
290
0
  9
$INSUNITS
 70
6
  9
$HYPERLINKBASE
  1

  9
$STYLESHEET
  1

  9
$XEDIT
290
1
  9
$CEPSNTYPE
380
0
  9
$PSTYLEMODE
290
1
  9
$FINGERPRINTGUID
  2
{6CA0686D-4C6B-43D2-85BD-0FB61F7375EE}
  9
$VERSIONGUID
  2
{41239246-F5C3-4784-8FE5-82DBBBC92D79}
  9
$EXTNAMES
290
1
  9
$PSVPSCALE
 40
0.0
  9
$OLESTARTUP
290
0
  9
$SORTENTS
280
127
  9
$INDEXCTL
280
0
  9
$HIDETEXT
280
1
  9
$XCLIPFRAME
280
1
  9
$HALOGAP
280
0
  9
$OBSCOLOR
 70
257
  9
$OBSLTYPE
280
0
  9
$INTERSECTIONDISPLAY
280
0
  9
$INTERSECTIONCOLOR
 70
257
  9
$DIMASSOC
280
2
  9
$PROJECTNAME
  1

  9
$CAMERADISPLAY
290
0
  9
$LENSLENGTH
 40
50.0
  9
$CAMERAHEIGHT
 40
0.0
  9
$STEPSPERSEC
 40
24.0
  9
$STEPSIZE
 40
100.0
  9
$3DDWFPREC
 40
2.0
  9
$PSOLWIDTH
 40
0.005
  9
$PSOLHEIGHT
 40
0.08
  9
$LOFTANG1
 40
1.570796326795
  9
$LOFTANG2
 40
1.570796326795
  9
$LOFTMAG1
 40
0.0
  9
$LOFTMAG2
 40
0.0
  9
$LOFTPARAM
 70
7
  9
$LOFTNORMALS
280
1
  9
$LATITUDE
 40
37.795
  9
$LONGITUDE
 40
-122.394
  9
$NORTHDIRECTION
 40
0.0
  9
$TIMEZONE
 70
-8000
  9
$LIGHTGLYPHDISPLAY
280
1
  9
$TILEMODELIGHTSYNCH
280
1
  9
$CMATERIAL
347
20
  9
$SOLIDHIST
280
0
  9
$SHOWHIST
280
1
  9
$DWFFRAME
280
2
  9
$DGNFRAME
280
2
  9
$REALWORLDSCALE
290
1
  9
$INTERFERECOLOR
 62
256
  9
$CSHADOW
280
0
  9
$SHADOWPLANELOCATION
 40
0.0
  0
ENDSEC
  0
SECTION
  2
CLASSES
  0
CLASS
  1
ACDBDICTIONARYWDFLT
  2
AcDbDictionaryWithDefault
  3
ObjectDBX Classes
 90
0
 91
0
280
0
281
0
  0
CLASS
  1
SUN
  2
AcDbSun
  3
SCENEOE
 90
1153
 91
0
280
0
281
0
  0
CLASS
  1
VISUALSTYLE
  2
AcDbVisualStyle
  3
ObjectDBX Classes
 90
4095
 91
0
280
0
281
0
  0
CLASS
  1
MATERIAL
  2
AcDbMaterial
  3
ObjectDBX Classes
 90
1153
 91
0
280
0
281
0
  0
CLASS
  1
SCALE
  2
AcDbScale
  3
ObjectDBX Classes
 90
1153
 91
0
280
0
281
0
  0
CLASS
  1
TABLESTYLE
  2
AcDbTableStyle
  3
ObjectDBX Classes
 90
4095
 91
0
280
0
281
0
  0
CLASS
  1
MLEADERSTYLE
  2
AcDbMLeaderStyle
  3
ACDB_MLEADERSTYLE_CLASS
 90
4095
 91
0
280
0
281
0
  0
CLASS
  1
DICTIONARYVAR
  2
AcDbDictionaryVar
  3
ObjectDBX Classes
 90
0
 91
0
280
0
281
0
  0
CLASS
  1
CELLSTYLEMAP
  2
AcDbCellStyleMap
  3
ObjectDBX Classes
 90
1152
 91
0
280
0
281
0
  0
CLASS
  1
MENTALRAYRENDERSETTINGS
  2
AcDbMentalRayRenderSettings
  3
SCENEOE
 90
1024
 91
0
280
0
281
0
  0
CLASS
  1
ACDBDETAILVIEWSTYLE
  2
AcDbDetailViewStyle
  3
ObjectDBX Classes
 90
1025
 91
0
280
0
281
0
  0
CLASS
  1
ACDBSECTIONVIEWSTYLE
  2
AcDbSectionViewStyle
  3
ObjectDBX Classes
 90
1025
 91
0
280
0
281
0
  0
CLASS
  1
RASTERVARIABLES
  2
AcDbRasterVariables
  3
ISM
 90
0
 91
0
280
0
281
0
  0
CLASS
  1
LAYOUT
  2
AcDbLayout
  3
ObjectDBX Classes
 90
0
 91
0
280
0
281
0
  0
CLASS
  1
ACDBPLACEHOLDER
  2
AcDbPlaceHolder
  3
ObjectDBX Classes
 90
0
 91
0
280
0
281
0
  0
ENDSEC
  0
SECTION
  2
TABLES
  0
TABLE
  2
VPORT
  5
8
330
0
100
AcDbSymbolTable
 70
1
  0
VPORT
  5
23
330
8
100
AcDbSymbolTableRecord
100
AcDbViewportTableRecord
  2
*Active
 70
0
 10
0.0
 20
0.0
 11
1.0
 21
1.0
 12
0.0
 22
0.0
 13
0.0
 23
0.0
 14
0.5
 24
0.5
 15
0.5
 25
0.5
 16
0.0
 26
0.0
 36
1.0
 17
0.0
 27
0.0
 37
0.0
 40
1000.0
 41
1.34
 42
50.0
 43
0.0
 44
0.0
 50
0.0
 51
0.0
 71
0
 72
1000
 73
1
 74
3
 75
0
 76
0
 77
0
 78
0
281
0
 65
0
146
0.0
  0
ENDTAB
  0
TABLE
  2
LTYPE
  5
2
330
0
100
AcDbSymbolTable
 70
3
  0
LTYPE
  5
24
330
2
100
AcDbSymbolTableRecord
100
AcDbLinetypeTableRecord
  2
ByBlock
 70
0
  3

 72
65
 73
0
 40
0.0
  0
LTYPE
  5
25
330
2
100
AcDbSymbolTableRecord
100
AcDbLinetypeTableRecord
  2
ByLayer
 70
0
  3

 72
65
 73
0
 40
0.0
  0
LTYPE
  5
26
330
2
100
AcDbSymbolTableRecord
100
AcDbLinetypeTableRecord
  2
Continuous
 70
0
  3

 72
65
 73
0
 40
0.0
  0
ENDTAB
  0
TABLE
  2
LAYER
  5
1
330
0
100
AcDbSymbolTable
 70
2
  0
LAYER
  5
27
330
1
100
AcDbSymbolTableRecord
100
AcDbLayerTableRecord
  2
0
 70
0
 62
7
  6
Continuous
370
-3
390
13
347
21
  0
LAYER
  5
28
330
1
100
AcDbSymbolTableRecord
100
AcDbLayerTableRecord
  2
Defpoints
 70
0
 62
7
  6
Continuous
290
0
370
-3
390
13
347
21
  0
ENDTAB
  0
TABLE
  2
STYLE
  5
5
330
0
100
AcDbSymbolTable
 70
1
  0
STYLE
  5
29
330
5
100
AcDbSymbolTableRecord
100
AcDbTextStyleTableRecord
  2
Standard
 70
0
 40
0.0
 41
1.0
 50
0.0
 71
0
 42
2.5
  3
txt
  4

  0
ENDTAB
  0
TABLE
  2
VIEW
  5
7
330
0
100
AcDbSymbolTable
 70
0
  0
ENDTAB
  0
TABLE
  2
UCS
  5
6
330
0
100
AcDbSymbolTable
 70
0
  0
ENDTAB
  0
TABLE
  2
APPID
  5
3
330
0
100
AcDbSymbolTable
 70
3
  0
APPID
  5
2A
330
3
100
AcDbSymbolTableRecord
100
AcDbRegAppTableRecord
  2
ACAD
 70
0
  0
APPID
  5
401
330
3
100
AcDbSymbolTableRecord
100
AcDbRegAppTableRecord
  2
HATCHBACKGROUNDCOLOR
 70
0
  0
APPID
  5
402
330
3
100
AcDbSymbolTableRecord
100
AcDbRegAppTableRecord
  2
EZDXF
 70
0
  0
ENDTAB
  0
TABLE
  2
DIMSTYLE
  5
4
330
0
100
AcDbSymbolTable
 70
1
100
AcDbDimStyleTable
  0
DIMSTYLE
105
2B
330
4
100
AcDbSymbolTableRecord
100
AcDbDimStyleTableRecord
  2
Standard
 70
0
 40
1.0
 41
2.5
 42
0.625
 43
3.75
 44
1.25
 45
0.0
 46
0.0
 47
0.0
 48
0.0
 49
2.5
140
2.5
141
2.5
142
0.0
143
0.03937007874
144
1.0
145
0.0
146
1.0
147
0.625
148
0.0
 69
0
 70
0
 71
0
 72
0
 73
0
 74
0
 75
0
 76
0
 77
1
 78
8
 79
3
170
0
171
3
172
1
173
0
174
0
175
0
176
0
177
0
178
0
179
2
271
2
272
2
273
2
274
3
275
0
276
0
277
2
278
44
279
0
280
0
281
0
282
0
283
0
284
8
285
0
286
0
288
0
289
3
290
0
371
-2
372
-2
  0
ENDTAB
  0
TABLE
  2
BLOCK_RECORD
  5
9
330
0
100
AcDbSymbolTable
 70
2
  0
BLOCK_RECORD
  5
17
330
9
100
AcDbSymbolTableRecord
100
AcDbBlockTableRecord
  2
*Model_Space
340
1A
 70
0
280
1
281
0
  0
BLOCK_RECORD
  5
1B
330
9
100
AcDbSymbolTableRecord
100
AcDbBlockTableRecord
  2
*Paper_Space
340
1E
 70
0
280
1
281
0
  0
ENDTAB
  0
ENDSEC
  0
SECTION
  2
BLOCKS
  0
BLOCK
  5
18
330
17
100
AcDbEntity
  8
0
100
AcDbBlockBegin
  2
*Model_Space
 70
0
 10
0.0
 20
0.0
 30
0.0
  3
*Model_Space
  1

  0
ENDBLK
  5
19
330
17
100
AcDbEntity
  8
0
100
AcDbBlockEnd
  0
BLOCK
  5
1C
330
1B
100
AcDbEntity
  8
0
100
AcDbBlockBegin
  2
*Paper_Space
 70
0
 10
0.0
 20
0.0
 30
0.0
  3
*Paper_Space
  1

  0
ENDBLK
  5
1D
330
1B
100
AcDbEntity
  8
0
100
AcDbBlockEnd
  0
ENDSEC
  0
SECTION
  2
ENTITIES
  0
LWPOLYLINE
  5
2F
330
17
100
AcDbEntity
  8
0
100
AcDbPolyline
 90
18
 70
1
 10
2.3794371475282383
 20
0.43071026724010786
 10
7.137621240685841
 20
0.5807965355959559
 10
12.842874595804814
 20
0.44870189445353065
 10
13.9917873498966
 20
0.6154300968584495
 10
14.501843634827452
 20
1.0204027377252471
 10
14.747220216066598
 20
2.3683600860596097
 10
14.58981870775839
 20
14.637595046757042
 10
2.291846853229456
 20
14.752023800934502
 10
1.3026996540802367
 20
14.628090656552569
 10
0.8095084850610789
 20
14.329267275934578
 10
0.5689869455783925
 20
13.864756545905875
 10
0.43551750008949136
 20
12.696454242203604
 10
0.5827224007751683
 20
7.8463920594406
 10
0.4579371657228312
 20
2.078270588670973
 10
0.5701531917238573
 20
1.3167956171770352
 10
0.80679851770401
 20
0.8573096394538879
 10
1.271067058839052
 20
0.5759894365070042
 10
2.3794371475282383
 20
0.43071026724010786
  0
LWPOLYLINE
  5
30
330
17
100
AcDbEntity
  8
0
100
AcDbPolyline
 90
18
 70
1
 10
2.3794371475282383
 20
0.43071026724010786
 10
7.137621240685841
 20
0.5807965355959559
 10
12.842874595804814
 20
0.44870189445353065
 10
13.9917873498966
 20
0.6154300968584495
 10
14.501843634827452
 20
1.0204027377252471
 10
14.747220216066598
 20
2.3683600860596097
 10
14.58981870775839
 20
14.637595046757042
 10
2.291846853229456
 20
14.752023800934502
 10
1.3026996540802367
 20
14.628090656552569
 10
0.8095084850610789
 20
14.329267275934578
 10
0.5689869455783925
 20
13.864756545905875
 10
0.43551750008949136
 20
12.696454242203604
 10
0.5827224007751683
 20
7.8463920594406
 10
0.4579371657228312
 20
2.078270588670973
 10
0.5701531917238573
 20
1.3167956171770352
 10
0.80679851770401
 20
0.8573096394538879
 10
1.271067058839052
 20
0.5759894365070042
 10
2.3794371475282383
 20
0.43071026724010786
  0
LINE
  5
31
330
17
100
AcDbEntity
  8
0
100
AcDbLine
 10
0.5928489565849304
 20
1.8619999999999999
 30
0.0
 11
0.5928489565849304
 21
2.042000000000001
 31
0.0
  0
LINE
  5
32
330
17
100
AcDbEntity
  8
0
100
AcDbLine
 10
0.5928489565849304
 20
1.8619999999999999
 30
0.0
 11
0.5928489565849304
 21
2.042000000000001
 31
0.0
  0
LINE
  5
33
330
17
100
AcDbEntity
  8
0
100
AcDbLine
 10
0.5928489565849304
 20
2.042000000000001
 30
0.0
 11
0.5928489565849304
 21
2.7460000000000004
 31
0.0
  0
LINE
  5
34
330
17
100
AcDbEntity
  8
0
100
AcDbLine
 10
0.5928489565849304
 20
3.662
 30
0.0
 11
0.5928489565849304
 21
3.842000000000001
 31
0.0
  0
LINE
  5
35
330
17
100
AcDbEntity
  8
0
100
AcDbLine
 10
0.5928489565849304
 20
3.842000000000001
 30
0.0
 11
0.5928489565849304
 21
4.546
 31
0.0
  0
LINE
  5
36
330
17
100
AcDbEntity
  8
0
100
AcDbLine
 10
0.5928489565849304
 20
5.462
 30
0.0
 11
0.5928489565849304
 21
5.642000000000001
 31
0.0
  0
LINE
  5
37
330
17
100
AcDbEntity
  8
0
100
AcDbLine
 10
0.5928489565849304
 20
5.642000000000001
 30
0.0
 11
0.5928489565849304
 21
6.346
 31
0.0
  0
LINE
  5
38
330
17
100
AcDbEntity
  8
0
100
AcDbLine
 10
0.5928489565849304
 20
7.262
 30
0.0
 11
0.5928489565849304
 21
7.442000000000001
 31
0.0
  0
LINE
  5
39
330
17
100
AcDbEntity
  8
0
100
AcDbLine
 10
0.5928489565849304
 20
7.442000000000001
 30
0.0
 11
0.5928489565849304
 21
8.146
 31
0.0
  0
LINE
  5
3A
330
17
100
AcDbEntity
  8
0
100
AcDbLine
 10
0.5928489565849304
 20
9.062000000000001
 30
0.0
 11
0.5928489565849304
 21
9.242
 31
0.0
  0
LINE
  5
3B
330
17
100
AcDbEntity
  8
0
100
AcDbLine
 10
0.5928489565849304
 20
9.242
 30
0.0
 11
0.5928489565849304
 21
9.946
 31
0.0
  0
LINE
  5
3C
330
17
100
AcDbEntity
  8
0
100
AcDbLine
 10
0.5928489565849304
 20
10.862
 30
0.0
 11
0.5928489565849304
 21
11.042000000000002
 31
0.0
  0
LINE
  5
3D
330
17
100
AcDbEntity
  8
0
100
AcDbLine
 10
0.5928489565849304
 20
11.042000000000002
 30
0.0
 11
0.5928489565849304
 21
11.746
 31
0.0
  0
LINE
  5
3E
330
17
100
AcDbEntity
  8
0
100
AcDbLine
 10
0.5928489565849304
 20
12.662
 30
0.0
 11
0.5928489565849304
 21
12.84213813813814
 31
0.0
  0
LINE
  5
3F
330
17
100
AcDbEntity
  8
0
100
AcDbLine
 10
0.5928489565849304
 20
12.84213813813814
 30
0.0
 11
0.5928489565849304
 21
13.546042042042043
 31
0.0
  0
LINE
  5
40
330
17
100
AcDbEntity
  8
0
100
AcDbLine
 10
0.5928489565849304
 20
13.919990990990991
 30
0.0
 11
0.5928489565849304
 21
13.929
 31
0.0
  0
LINE
  5
41
330
17
100
AcDbEntity
  8
0
100
AcDbLine
 10
1.0928489565849304
 20
1.2619999999999998
 30
0.0
 11
1.0928489565849304
 21
1.9659999999999989
 31
0.0
  0
LINE
  5
42
330
17
100
AcDbEntity
  8
0
100
AcDbLine
 10
1.0928489565849304
 20
1.2619999999999998
 30
0.0
 11
1.0928489565849304
 21
1.9659999999999989
 31
0.0
  0
LINE
  5
43
330
17
100
AcDbEntity
  8
0
100
AcDbLine
 10
1.0928489565849304
 20
1.9659999999999989
 30
0.0
 11
1.0928489565849304
 21
2.1460000000000004
 31
0.0
  0
LINE
  5
44
330
17
100
AcDbEntity
  8
0
100
AcDbLine
 10
1.0928489565849304
 20
2.1460000000000004
 30
0.0
 11
1.0928489565849304
 21
2.1468800000000003
 31
0.0
  0
LINE
  5
45
330
17
100
AcDbEntity
  8
0
100
AcDbLine
 10
1.0928489565849304
 20
3.062
 30
0.0
 11
1.0928489565849304
 21
3.765999999999999
 31
0.0
  0
LINE
  5
46
330
17
100
AcDbEntity
  8
0
100
AcDbLine
 10
1.0928489565849304
 20
3.765999999999999
 30
0.0
 11
1.0928489565849304
 21
3.946
 31
0.0
  0
LINE
  5
47
330
17
100
AcDbEntity
  8
0
100
AcDbLine
 10
1.0928489565849304
 20
3.946
 30
0.0
 11
1.0928489565849304
 21
3.9468800000000006
 31
0.0
  0
LINE
  5
48
330
17
100
AcDbEntity
  8
0
100
AcDbLine
 10
1.0928489565849304
 20
4.862
 30
0.0
 11
1.0928489565849304
 21
5.565999999999999
 31
0.0
  0
LINE
  5
49
330
17
100
AcDbEntity
  8
0
100
AcDbLine
 10
1.0928489565849304
 20
5.565999999999999
 30
0.0
 11
1.0928489565849304
 21
5.746
 31
0.0
  0
LINE
  5
4A
330
17
100
AcDbEntity
  8
0
100
AcDbLine
 10
1.0928489565849304
 20
5.746
 30
0.0
 11
1.0928489565849304
 21
5.74688
 31
0.0
  0
LINE
  5
4B
330
17
100
AcDbEntity
  8
0
100
AcDbLine
 10
1.0928489565849304
 20
6.662
 30
0.0
 11
1.0928489565849304
 21
7.366
 31
0.0
  0
LINE
  5
4C
330
17
100
AcDbEntity
  8
0
100
AcDbLine
 10
1.0928489565849304
 20
7.366
 30
0.0
 11
1.0928489565849304
 21
7.546
 31
0.0
  0
LINE
  5
4D
330
17
100
AcDbEntity
  8
0
100
AcDbLine
 10
1.0928489565849304
 20
7.546
 30
0.0
 11
1.0928489565849304
 21
7.54688
 31
0.0
  0
LINE
  5
4E
330
17
100
AcDbEntity
  8
0
100
AcDbLine
 10
1.0928489565849304
 20
8.462
 30
0.0
 11
1.0928489565849304
 21
8.642000000000001
 31
0.0
  0
LINE
  5
4F
330
17
100
AcDbEntity
  8
0
100
AcDbLine
 10
1.0928489565849304
 20
8.642000000000001
 30
0.0
 11
1.0928489565849304
 21
9.346
 31
0.0
  0
LINE
  5
50
330
17
100
AcDbEntity
  8
0
100
AcDbLine
 10
1.0928489565849304
 20
9.346
 30
0.0
 11
1.0928489565849304
 21
9.34688
 31
0.0
  0
LINE
  5
51
330
17
100
AcDbEntity
  8
0
100
AcDbLine
 10
1.0928489565849304
 20
10.262
 30
0.0
 11
1.0928489565849304
 21
10.442000000000002
 31
0.0
  0
LINE
  5
52
330
17
100
AcDbEntity
  8
0
100
AcDbLine
 10
1.0928489565849304
 20
10.442000000000002
 30
0.0
 11
1.0928489565849304
 21
11.146
 31
0.0
  0
LINE
  5
53
330
17
100
AcDbEntity
  8
0
100
AcDbLine
 10
1.0928489565849304
 20
11.146
 30
0.0
 11
1.0928489565849304
 21
11.146880000000001
 31
0.0
  0
LINE
  5
54
330
17
100
AcDbEntity
  8
0
100
AcDbLine
 10
1.0928489565849304
 20
12.062000000000001
 30
0.0
 11
1.0928489565849304
 21
12.242
 31
0.0
  0
LINE
  5
55
330
17
100
AcDbEntity
  8
0
100
AcDbLine
 10
1.0928489565849304
 20
12.242
 30
0.0
 11
1.0928489565849304
 21
12.946
 31
0.0
  0
LINE
  5
56
330
17
100
AcDbEntity
  8
0
100
AcDbLine
 10
1.0928489565849304
 20
12.946
 30
0.0
 11
1.0928489565849304
 21
12.946880000000002
 31
0.0
  0
LINE
  5
57
330
17
100
AcDbEntity
  8
0
100
AcDbLine
 10
1.0928489565849304
 20
13.862
 30
0.0
 11
1.0928489565849304
 21
13.97996
 31
0.0
  0
LINE
  5
58
330
17
100
AcDbEntity
  8
0
100
AcDbLine
 10
1.5928489565849304
 20
1.1119999999999997
 30
0.0
 11
1.5928489565849304
 21
1.815999999999999
 31
0.0
  0
LINE
  5
59
330
17
100
AcDbEntity
  8
0
100
AcDbLine
 10
1.5928489565849304
 20
1.1119999999999997
 30
0.0
 11
1.5928489565849304
 21
1.815999999999999
 31
0.0
  0
LINE
  5
5A
330
17
100
AcDbEntity
  8
0
100
AcDbLine
 10
1.5928489565849304
 20
1.815999999999999
 30
0.0
 11
1.5928489565849304
 21
1.9960000000000002
 31
0.0
  0
LINE
  5
5B
330
17
100
AcDbEntity
  8
0
100
AcDbLine
 10
1.5928489565849304
 20
2.912
 30
0.0
 11
1.5928489565849304
 21
3.092000000000001
 31
0.0
  0
LINE
  5
5C
330
17
100
AcDbEntity
  8
0
100
AcDbLine
 10
1.5928489565849304
 20
3.092000000000001
 30
0.0
 11
1.5928489565849304
 21
3.7960000000000003
 31
0.0
  0
LINE
  5
5D
330
17
100
AcDbEntity
  8
0
100
AcDbLine
 10
1.5928489565849304
 20
4.712
 30
0.0
 11
1.5928489565849304
 21
4.892000000000001
 31
0.0
  0
LINE
  5
5E
330
17
100
AcDbEntity
  8
0
100
AcDbLine
 10
1.5928489565849304
 20
4.892000000000001
 30
0.0
 11
1.5928489565849304
 21
5.596
 31
0.0
  0
LINE
  5
5F
330
17
100
AcDbEntity
  8
0
100
AcDbLine
 10
1.5928489565849304
 20
6.512
 30
0.0
 11
1.5928489565849304
 21
6.692000000000001
 31
0.0
  0
LINE
  5
60
330
17
100
AcDbEntity
  8
0
100
AcDbLine
 10
1.5928489565849304
 20
6.692000000000001
 30
0.0
 11
1.5928489565849304
 21
7.396
 31
0.0
  0
LINE
  5
61
330
17
100
AcDbEntity
  8
0
100
AcDbLine
 10
1.5928489565849304
 20
8.312000000000001
 30
0.0
 11
1.5928489565849304
 21
8.492
 31
0.0
  0
LINE
  5
62
330
17
100
AcDbEntity
  8
0
100
AcDbLine
 10
1.5928489565849304
 20
8.492
 30
0.0
 11
1.5928489565849304
 21
9.196
 31
0.0
  0
LINE
  5
63
330
17
100
AcDbEntity
  8
0
100
AcDbLine
 10
1.5928489565849304
 20
10.112
 30
0.0
 11
1.5928489565849304
 21
10.292000000000002
 31
0.0
  0
LINE
  5
64
330
17
100
AcDbEntity
  8
0
100
AcDbLine
 10
1.5928489565849304
 20
10.292000000000002
 30
0.0
 11
1.5928489565849304
 21
10.996
 31
0.0
  0
LINE
  5
65
330
17
100
AcDbEntity
  8
0
100
AcDbLine
 10
1.5928489565849304
 20
11.912
 30
0.0
 11
1.5928489565849304
 21
12.616
 31
0.0
  0
LINE
  5
66
330
17
100
AcDbEntity
  8
0
100
AcDbLine
 10
1.5928489565849304
 20
12.616
 30
0.0
 11
1.5928489565849304
 21
12.796
 31
0.0
  0
LINE
  5
67
330
17
100
AcDbEntity
  8
0
100
AcDbLine
 10
1.5928489565849304
 20
13.712
 30
0.0
 11
1.5928489565849304
 21
13.86692
 31
0.0
  0
LINE
  5
68
330
17
100
AcDbEntity
  8
0
100
AcDbLine
 10
2.0928489565849304
 20
1.0539999999999998
 30
0.0
 11
2.0928489565849304
 21
1.0548799999999996
 31
0.0
  0
LINE
  5
69
330
17
100
AcDbEntity
  8
0
100
AcDbLine
 10
2.0928489565849304
 20
1.0539999999999998
 30
0.0
 11
2.0928489565849304
 21
1.0548799999999996
 31
0.0
  0
LINE
  5
6A
330
17
100
AcDbEntity
  8
0
100
AcDbLine
 10
2.0928489565849304
 20
1.0548799999999996
 30
0.0
 11
2.0928489565849304
 21
1.235000000000001
 31
0.0
  0
LINE
  5
6B
330
17
100
AcDbEntity
  8
0
100
AcDbLine
 10
2.0928489565849304
 20
1.235000000000001
 30
0.0
 11
2.0928489565849304
 21
1.9390000000000003
 31
0.0
  0
LINE
  5
6C
330
17
100
AcDbEntity
  8
0
100
AcDbLine
 10
2.0928489565849304
 20
2.8539999999999996
 30
0.0
 11
2.0928489565849304
 21
2.85488
 31
0.0
  0
LINE
  5
6D
330
17
100
AcDbEntity
  8
0
100
AcDbLine
 10
2.0928489565849304
 20
2.85488
 30
0.0
 11
2.0928489565849304
 21
3.035000000000001
 31
0.0
  0
LINE
  5
6E
330
17
100
AcDbEntity
  8
0
100
AcDbLine
 10
2.0928489565849304
 20
3.035000000000001
 30
0.0
 11
2.0928489565849304
 21
3.7390000000000003
 31
0.0
  0
LINE
  5
6F
330
17
100
AcDbEntity
  8
0
100
AcDbLine
 10
2.0928489565849304
 20
4.654
 30
0.0
 11
2.0928489565849304
 21
4.6548799999999995
 31
0.0
  0
LINE
  5
70
330
17
100
AcDbEntity
  8
0
100
AcDbLine
 10
2.0928489565849304
 20
4.6548799999999995
 30
0.0
 11
2.0928489565849304
 21
4.835000000000001
 31
0.0
  0
LINE
  5
71
330
17
100
AcDbEntity
  8
0
100
AcDbLine
 10
2.0928489565849304
 20
4.835000000000001
 30
0.0
 11
2.0928489565849304
 21
5.539000000000001
 31
0.0
  0
LINE
  5
72
330
17
100
AcDbEntity
  8
0
100
AcDbLine
 10
2.0928489565849304
 20
6.454
 30
0.0
 11
2.0928489565849304
 21
6.454879999999999
 31
0.0
  0
LINE
  5
73
330
17
100
AcDbEntity
  8
0
100
AcDbLine
 10
2.0928489565849304
 20
6.454879999999999
 30
0.0
 11
2.0928489565849304
 21
6.635000000000001
 31
0.0
  0
LINE
  5
74
330
17
100
AcDbEntity
  8
0
100
AcDbLine
 10
2.0928489565849304
 20
6.635000000000001
 30
0.0
 11
2.0928489565849304
 21
7.339
 31
0.0
  0
LINE
  5
75
330
17
100
AcDbEntity
  8
0
100
AcDbLine
 10
2.0928489565849304
 20
8.254
 30
0.0
 11
2.0928489565849304
 21
8.25488
 31
0.0
  0
LINE
  5
76
330
17
100
AcDbEntity
  8
0
100
AcDbLine
 10
2.0928489565849304
 20
8.25488
 30
0.0
 11
2.0928489565849304
 21
8.435000000000002
 31
0.0
  0
LINE
  5
77
330
17
100
AcDbEntity
  8
0
100
AcDbLine
 10
2.0928489565849304
 20
8.435000000000002
 30
0.0
 11
2.0928489565849304
 21
9.139
 31
0.0
  0
LINE
  5
78
330
17
100
AcDbEntity
  8
0
100
AcDbLine
 10
2.0928489565849304
 20
10.054
 30
0.0
 11
2.0928489565849304
 21
10.054879999999999
 31
0.0
  0
LINE
  5
79
330
17
100
AcDbEntity
  8
0
100
AcDbLine
 10
2.0928489565849304
 20
10.054879999999999
 30
0.0
 11
2.0928489565849304
 21
10.235000000000001
 31
0.0
  0
LINE
  5
7A
330
17
100
AcDbEntity
  8
0
100
AcDbLine
 10
2.0928489565849304
 20
10.235000000000001
 30
0.0
 11
2.0928489565849304
 21
10.939
 31
0.0
  0
LINE
  5
7B
330
17
100
AcDbEntity
  8
0
100
AcDbLine
 10
2.0928489565849304
 20
11.854000000000001
 30
0.0
 11
2.0928489565849304
 21
11.85488
 31
0.0
  0
LINE
  5
7C
330
17
100
AcDbEntity
  8
0
100
AcDbLine
 10
2.0928489565849304
 20
11.85488
 30
0.0
 11
2.0928489565849304
 21
12.035000000000002
 31
0.0
  0
LINE
  5
7D
330
17
100
AcDbEntity
  8
0
100
AcDbLine
 10
2.0928489565849304
 20
12.035000000000002
 30
0.0
 11
2.0928489565849304
 21
12.739
 31
0.0
  0
LINE
  5
7E
330
17
100
AcDbEntity
  8
0
100
AcDbLine
 10
2.0928489565849304
 20
13.654
 30
0.0
 11
2.0928489565849304
 21
13.65488
 31
0.0
  0
LINE
  5
7F
330
17
100
AcDbEntity
  8
0
100
AcDbLine
 10
2.0928489565849304
 20
13.65488
 30
0.0
 11
2.0928489565849304
 21
13.822520000000003
 31
0.0
  0
LINE
  5
80
330
17
100
AcDbEntity
  8
0
100
AcDbLine
 10
2.5928489565849304
 20
1.0449999999999997
 30
0.0
 11
2.5928489565849304
 21
1.7489999999999988
 31
0.0
  0
LINE
  5
81
330
17
100
AcDbEntity
  8
0
100
AcDbLine
 10
2.5928489565849304
 20
1.0449999999999997
 30
0.0
 11
2.5928489565849304
 21
1.7489999999999988
 31
0.0
  0
LINE
  5
82
330
17
100
AcDbEntity
  8
0
100
AcDbLine
 10
2.5928489565849304
 20
1.7489999999999988
 30
0.0
 11
2.5928489565849304
 21
1.9290000000000003
 31
0.0
  0
LINE
  5
83
330
17
100
AcDbEntity
  8
0
100
AcDbLine
 10
2.5928489565849304
 20
2.8449999999999998
 30
0.0
 11
2.5928489565849304
 21
3.025000000000001
 31
0.0
  0
LINE
  5
84
330
17
100
AcDbEntity
  8
0
100
AcDbLine
 10
2.5928489565849304
 20
3.025000000000001
 30
0.0
 11
2.5928489565849304
 21
3.7290000000000005
 31
0.0
  0
LINE
  5
85
330
17
100
AcDbEntity
  8
0
100
AcDbLine
 10
2.5928489565849304
 20
4.645
 30
0.0
 11
2.5928489565849304
 21
4.825000000000001
 31
0.0
  0
LINE
  5
86
330
17
100
AcDbEntity
  8
0
100
AcDbLine
 10
2.5928489565849304
 20
4.825000000000001
 30
0.0
 11
2.5928489565849304
 21
5.529
 31
0.0
  0
LINE
  5
87
330
17
100
AcDbEntity
  8
0
100
AcDbLine
 10
2.5928489565849304
 20
6.445
 30
0.0
 11
2.5928489565849304
 21
7.148999999999999
 31
0.0
  0
LINE
  5
88
330
17
100
AcDbEntity
  8
0
100
AcDbLine
 10
2.5928489565849304
 20
7.148999999999999
 30
0.0
 11
2.5928489565849304
 21
7.329000000000001
 31
0.0
  0
LINE
  5
89
330
17
100
AcDbEntity
  8
0
100
AcDbLine
 10
2.5928489565849304
 20
8.245000000000001
 30
0.0
 11
2.5928489565849304
 21
8.425
 31
0.0
  0
LINE
  5
8A
330
17
100
AcDbEntity
  8
0
100
AcDbLine
 10
2.5928489565849304
 20
8.425
 30
0.0
 11
2.5928489565849304
 21
9.129
 31
0.0
  0
LINE
  5
8B
330
17
100
AcDbEntity
  8
0
100
AcDbLine
 10
2.5928489565849304
 20
10.045
 30
0.0
 11
2.5928489565849304
 21
10.225000000000001
 31
0.0
  0
LINE
  5
8C
330
17
100
AcDbEntity
  8
0
100
AcDbLine
 10
2.5928489565849304
 20
10.225000000000001
 30
0.0
 11
2.5928489565849304
 21
10.929
 31
0.0
  0
LINE
  5
8D
330
17
100
AcDbEntity
  8
0
100
AcDbLine
 10
2.5928489565849304
 20
11.845
 30
0.0
 11
2.5928489565849304
 21
12.549
 31
0.0
  0
LINE
  5
8E
330
17
100
AcDbEntity
  8
0
100
AcDbLine
 10
2.5928489565849304
 20
12.549
 30
0.0
 11
2.5928489565849304
 21
12.729
 31
0.0
  0
LINE
  5
8F
330
17
100
AcDbEntity
  8
0
100
AcDbLine
 10
2.5928489565849304
 20
13.645000000000001
 30
0.0
 11
2.5928489565849304
 21
13.813600000000003
 31
0.0
  0
LINE
  5
90
330
17
100
AcDbEntity
  8
0
100
AcDbLine
 10
3.0928489565849304
 20
1.0609999999999997
 30
0.0
 11
3.0928489565849304
 21
1.7649999999999988
 31
0.0
  0
LINE
  5
91
330
17
100
AcDbEntity
  8
0
100
AcDbLine
 10
3.0928489565849304
 20
1.0609999999999997
 30
0.0
 11
3.0928489565849304
 21
1.7649999999999988
 31
0.0
  0
LINE
  5
92
330
17
100
AcDbEntity
  8
0
100
AcDbLine
 10
3.0928489565849304
 20
1.7649999999999988
 30
0.0
 11
3.0928489565849304
 21
1.9450000000000003
 31
0.0
  0
LINE
  5
93
330
17
100
AcDbEntity
  8
0
100
AcDbLine
 10
3.0928489565849304
 20
2.8609999999999998
 30
0.0
 11
3.0928489565849304
 21
3.041000000000001
 31
0.0
  0
LINE
  5
94
330
17
100
AcDbEntity
  8
0
100
AcDbLine
 10
3.0928489565849304
 20
3.041000000000001
 30
0.0
 11
3.0928489565849304
 21
3.7450000000000006
 31
0.0
  0
LINE
  5
95
330
17
100
AcDbEntity
  8
0
100
AcDbLine
 10
3.0928489565849304
 20
4.661
 30
0.0
 11
3.0928489565849304
 21
4.841000000000001
 31
0.0
  0
LINE
  5
96
330
17
100
AcDbEntity
  8
0
100
AcDbLine
 10
3.0928489565849304
 20
4.841000000000001
 30
0.0
 11
3.0928489565849304
 21
5.545
 31
0.0
  0
LINE
  5
97
330
17
100
AcDbEntity
  8
0
100
AcDbLine
 10
3.0928489565849304
 20
6.461
 30
0.0
 11
3.0928489565849304
 21
7.164999999999999
 31
0.0
  0
LINE
  5
98
330
17
100
AcDbEntity
  8
0
100
AcDbLine
 10
3.0928489565849304
 20
7.164999999999999
 30
0.0
 11
3.0928489565849304
 21
7.345000000000001
 31
0.0
  0
LINE
  5
99
330
17
100
AcDbEntity
  8
0
100
AcDbLine
 10
3.0928489565849304
 20
8.261000000000001
 30
0.0
 11
3.0928489565849304
 21
8.441000000000003
 31
0.0
  0
LINE
  5
9A
330
17
100
AcDbEntity
  8
0
100
AcDbLine
 10
3.0928489565849304
 20
8.441000000000003
 30
0.0
 11
3.0928489565849304
 21
9.145
 31
0.0
  0
LINE
  5
9B
330
17
100
AcDbEntity
  8
0
100
AcDbLine
 10
3.0928489565849304
 20
10.061
 30
0.0
 11
3.0928489565849304
 21
10.241000000000001
 31
0.0
  0
LINE
  5
9C
330
17
100
AcDbEntity
  8
0
100
AcDbLine
 10
3.0928489565849304
 20
10.241000000000001
 30
0.0
 11
3.0928489565849304
 21
10.945
 31
0.0
  0
LINE
  5
9D
330
17
100
AcDbEntity
  8
0
100
AcDbLine
 10
3.0928489565849304
 20
11.861
 30
0.0
 11
3.0928489565849304
 21
12.564999999999998
 31
0.0
  0
LINE
  5
9E
330
17
100
AcDbEntity
  8
0
100
AcDbLine
 10
3.0928489565849304
 20
12.564999999999998
 30
0.0
 11
3.0928489565849304
 21
12.745
 31
0.0
  0
LINE
  5
9F
330
17
100
AcDbEntity
  8
0
100
AcDbLine
 10
3.0928489565849304
 20
13.661
 30
0.0
 11
3.0928489565849304
 21
13.825520000000001
 31
0.0
  0
LINE
  5
A0
330
17
100
AcDbEntity
  8
0
100
AcDbLine
 10
3.5928489565849304
 20
1.0769999999999997
 30
0.0
 11
3.5928489565849304
 21
1.7809999999999988
 31
0.0
  0
LINE
  5
A1
330
17
100
AcDbEntity
  8
0
100
AcDbLine
 10
3.5928489565849304
 20
1.0769999999999997
 30
0.0
 11
3.5928489565849304
 21
1.7809999999999988
 31
0.0
  0
LINE
  5
A2
330
17
100
AcDbEntity
  8
0
100
AcDbLine
 10
3.5928489565849304
 20
1.7809999999999988
 30
0.0
 11
3.5928489565849304
 21
1.9610000000000003
 31
0.0
  0
LINE
  5
A3
330
17
100
AcDbEntity
  8
0
100
AcDbLine
 10
3.5928489565849304
 20
2.877
 30
0.0
 11
3.5928489565849304
 21
3.057000000000001
 31
0.0
  0
LINE
  5
A4
330
17
100
AcDbEntity
  8
0
100
AcDbLine
 10
3.5928489565849304
 20
3.057000000000001
 30
0.0
 11
3.5928489565849304
 21
3.761
 31
0.0
  0
LINE
  5
A5
330
17
100
AcDbEntity
  8
0
100
AcDbLine
 10
3.5928489565849304
 20
4.677
 30
0.0
 11
3.5928489565849304
 21
4.857000000000001
 31
0.0
  0
LINE
  5
A6
330
17
100
AcDbEntity
  8
0
100
AcDbLine
 10
3.5928489565849304
 20
4.857000000000001
 30
0.0
 11
3.5928489565849304
 21
5.561
 31
0.0
  0
LINE
  5
A7
330
17
100
AcDbEntity
  8
0
100
AcDbLine
 10
3.5928489565849304
 20
6.477
 30
0.0
 11
3.5928489565849304
 21
7.180999999999999
 31
0.0
  0
LINE
  5
A8
330
17
100
AcDbEntity
  8
0
100
AcDbLine
 10
3.5928489565849304
 20
7.180999999999999
 30
0.0
 11
3.5928489565849304
 21
7.361000000000001
 31
0.0
  0
LINE
  5
A9
330
17
100
AcDbEntity
  8
0
100
AcDbLine
 10
3.5928489565849304
 20
8.277000000000001
 30
0.0
 11
3.5928489565849304
 21
8.457
 31
0.0
  0
LINE
  5
AA
330
17
100
AcDbEntity
  8
0
100
AcDbLine
 10
3.5928489565849304
 20
8.457
 30
0.0
 11
3.5928489565849304
 21
9.161
 31
0.0
  0
LINE
  5
AB
330
17
100
AcDbEntity
  8
0
100
AcDbLine
 10
3.5928489565849304
 20
10.077
 30
0.0
 11
3.5928489565849304
 21
10.257000000000001
 31
0.0
  0
LINE
  5
AC
330
17
100
AcDbEntity
  8
0
100
AcDbLine
 10
3.5928489565849304
 20
10.257000000000001
 30
0.0
 11
3.5928489565849304
 21
10.961
 31
0.0
  0
LINE
  5
AD
330
17
100
AcDbEntity
  8
0
100
AcDbLine
 10
3.5928489565849304
 20
11.877
 30
0.0
 11
3.5928489565849304
 21
12.581
 31
0.0
  0
LINE
  5
AE
330
17
100
AcDbEntity
  8
0
100
AcDbLine
 10
3.5928489565849304
 20
12.581
 30
0.0
 11
3.5928489565849304
 21
12.761
 31
0.0
  0
LINE
  5
AF
330
17
100
AcDbEntity
  8
0
100
AcDbLine
 10
3.5928489565849304
 20
13.677
 30
0.0
 11
3.5928489565849304
 21
13.83756
 31
0.0
  0
LINE
  5
B0
330
17
100
AcDbEntity
  8
0
100
AcDbLine
 10
4.09284895658493
 20
1.0919999999999999
 30
0.0
 11
4.09284895658493
 21
1.795999999999999
 31
0.0
  0
LINE
  5
B1
330
17
100
AcDbEntity
  8
0
100
AcDbLine
 10
4.09284895658493
 20
1.0919999999999999
 30
0.0
 11
4.09284895658493
 21
1.795999999999999
 31
0.0
  0
LINE
  5
B2
330
17
100
AcDbEntity
  8
0
100
AcDbLine
 10
4.09284895658493
 20
1.795999999999999
 30
0.0
 11
4.09284895658493
 21
1.9761200000000003
 31
0.0
  0
LINE
  5
B3
330
17
100
AcDbEntity
  8
0
100
AcDbLine
 10
4.09284895658493
 20
1.9761200000000003
 30
0.0
 11
4.09284895658493
 21
1.9770000000000003
 31
0.0
  0
LINE
  5
B4
330
17
100
AcDbEntity
  8
0
100
AcDbLine
 10
4.09284895658493
 20
2.892
 30
0.0
 11
4.09284895658493
 21
3.595999999999999
 31
0.0
  0
LINE
  5
B5
330
17
100
AcDbEntity
  8
0
100
AcDbLine
 10
4.09284895658493
 20
3.595999999999999
 30
0.0
 11
4.09284895658493
 21
3.77612
 31
0.0
  0
LINE
  5
B6
330
17
100
AcDbEntity
  8
0
100
AcDbLine
 10
4.09284895658493
 20
3.77612
 30
0.0
 11
4.09284895658493
 21
3.777
 31
0.0
  0
LINE
  5
B7
330
17
100
AcDbEntity
  8
0
100
AcDbLine
 10
4.09284895658493
 20
4.692
 30
0.0
 11
4.09284895658493
 21
5.395999999999999
 31
0.0
  0
LINE
  5
B8
330
17
100
AcDbEntity
  8
0
100
AcDbLine
 10
4.09284895658493
 20
5.395999999999999
 30
0.0
 11
4.09284895658493
 21
5.57612
 31
0.0
  0
LINE
  5
B9
330
17
100
AcDbEntity
  8
0
100
AcDbLine
 10
4.09284895658493
 20
5.57612
 30
0.0
 11
4.09284895658493
 21
5.577
 31
0.0
  0
LINE
  5
BA
330
17
100
AcDbEntity
  8
0
100
AcDbLine
 10
4.09284895658493
 20
6.492
 30
0.0
 11
4.09284895658493
 21
7.196
 31
0.0
  0
LINE
  5
BB
330
17
100
AcDbEntity
  8
0
100
AcDbLine
 10
4.09284895658493
 20
7.196
 30
0.0
 11
4.09284895658493
 21
7.376120000000001
 31
0.0
  0
LINE
  5
BC
330
17
100
AcDbEntity
  8
0
100
AcDbLine
 10
4.09284895658493
 20
7.376120000000001
 30
0.0
 11
4.09284895658493
 21
7.377000000000001
 31
0.0
  0
LINE
  5
BD
330
17
100
AcDbEntity
  8
0
100
AcDbLine
 10
4.09284895658493
 20
8.292
 30
0.0
 11
4.09284895658493
 21
8.995999999999999
 31
0.0
  0
LINE
  5
BE
330
17
100
AcDbEntity
  8
0
100
AcDbLine
 10
4.09284895658493
 20
8.995999999999999
 30
0.0
 11
4.09284895658493
 21
9.176120000000001
 31
0.0
  0
LINE
  5
BF
330
17
100
AcDbEntity
  8
0
100
AcDbLine
 10
4.09284895658493
 20
9.176120000000001
 30
0.0
 11
4.09284895658493
 21
9.177
 31
0.0
  0
LINE
  5
C0
330
17
100
AcDbEntity
  8
0
100
AcDbLine
 10
4.09284895658493
 20
10.092
 30
0.0
 11
4.09284895658493
 21
10.796
 31
0.0
  0
LINE
  5
C1
330
17
100
AcDbEntity
  8
0
100
AcDbLine
 10
4.09284895658493
 20
10.796
 30
0.0
 11
4.09284895658493
 21
10.976120000000002
 31
0.0
  0
LINE
  5
C2
330
17
100
AcDbEntity
  8
0
100
AcDbLine
 10
4.09284895658493
 20
10.976120000000002
 30
0.0
 11
4.09284895658493
 21
10.977
 31
0.0
  0
LINE
  5
C3
330
17
100
AcDbEntity
  8
0
100
AcDbLine
 10
4.09284895658493
 20
11.892000000000001
 30
0.0
 11
4.09284895658493
 21
12.595999999999998
 31
0.0
  0
LINE
  5
C4
330
17
100
AcDbEntity
  8
0
100
AcDbLine
 10
4.09284895658493
 20
12.595999999999998
 30
0.0
 11
4.09284895658493
 21
12.77612
 31
0.0
  0
LINE
  5
C5
330
17
100
AcDbEntity
  8
0
100
AcDbLine
 10
4.09284895658493
 20
12.77612
 30
0.0
 11
4.09284895658493
 21
12.777
 31
0.0
  0
LINE
  5
C6
330
17
100
AcDbEntity
  8
0
100
AcDbLine
 10
4.09284895658493
 20
13.692
 30
0.0
 11
4.09284895658493
 21
13.692879999999999
 31
0.0
  0
LINE
  5
C7
330
17
100
AcDbEntity
  8
0
100
AcDbLine
 10
4.09284895658493
 20
13.692879999999999
 30
0.0
 11
4.09284895658493
 21
13.8496
 31
0.0
  0
LINE
  5
C8
330
17
100
AcDbEntity
  8
0
100
AcDbLine
 10
4.59284895658493
 20
1.1079999999999999
 30
0.0
 11
4.59284895658493
 21
1.811999999999999
 31
0.0
  0
LINE
  5
C9
330
17
100
AcDbEntity
  8
0
100
AcDbLine
 10
4.59284895658493
 20
1.1079999999999999
 30
0.0
 11
4.59284895658493
 21
1.811999999999999
 31
0.0
  0
LINE
  5
CA
330
17
100
AcDbEntity
  8
0
100
AcDbLine
 10
4.59284895658493
 20
1.811999999999999
 30
0.0
 11
4.59284895658493
 21
1.9920000000000002
 31
0.0
  0
LINE
  5
CB
330
17
100
AcDbEntity
  8
0
100
AcDbLine
 10
4.59284895658493
 20
2.908
 30
0.0
 11
4.59284895658493
 21
3.088000000000001
 31
0.0
  0
LINE
  5
CC
330
17
100
AcDbEntity
  8
0
100
AcDbLine
 10
4.59284895658493
 20
3.088000000000001
 30
0.0
 11
4.59284895658493
 21
3.7920000000000003
 31
0.0
  0
LINE
  5
CD
330
17
100
AcDbEntity
  8
0
100
AcDbLine
 10
4.59284895658493
 20
4.708
 30
0.0
 11
4.59284895658493
 21
5.411999999999999
 31
0.0
  0
LINE
  5
CE
330
17
100
AcDbEntity
  8
0
100
AcDbLine
 10
4.59284895658493
 20
5.411999999999999
 30
0.0
 11
4.59284895658493
 21
5.5920000000000005
 31
0.0
  0
LINE
  5
CF
330
17
100
AcDbEntity
  8
0
100
AcDbLine
 10
4.59284895658493
 20
6.508
 30
0.0
 11
4.59284895658493
 21
7.212
 31
0.0
  0
LINE
  5
D0
330
17
100
AcDbEntity
  8
0
100
AcDbLine
 10
4.59284895658493
 20
7.212
 30
0.0
 11
4.59284895658493
 21
7.392
 31
0.0
  0
LINE
  5
D1
330
17
100
AcDbEntity
  8
0
100
AcDbLine
 10
4.59284895658493
 20
8.308
 30
0.0
 11
4.59284895658493
 21
8.488000000000001
 31
0.0
  0
LINE
  5
D2
330
17
100
AcDbEntity
  8
0
100
AcDbLine
 10
4.59284895658493
 20
8.488000000000001
 30
0.0
 11
4.59284895658493
 21
9.192
 31
0.0
  0
LINE
  5
D3
330
17
100
AcDbEntity
  8
0
100
AcDbLine
 10
4.59284895658493
 20
10.108
 30
0.0
 11
4.59284895658493
 21
10.288000000000002
 31
0.0
  0
LINE
  5
D4
330
17
100
AcDbEntity
  8
0
100
AcDbLine
 10
4.59284895658493
 20
10.288000000000002
 30
0.0
 11
4.59284895658493
 21
10.992
 31
0.0
  0
LINE
  5
D5
330
17
100
AcDbEntity
  8
0
100
AcDbLine
 10
4.59284895658493
 20
11.908000000000001
 30
0.0
 11
4.59284895658493
 21
12.088000000000001
 31
0.0
  0
LINE
  5
D6
330
17
100
AcDbEntity
  8
0
100
AcDbLine
 10
4.59284895658493
 20
12.088000000000001
 30
0.0
 11
4.59284895658493
 21
12.792
 31
0.0
  0
LINE
  5
D7
330
17
100
AcDbEntity
  8
0
100
AcDbLine
 10
4.59284895658493
 20
13.708
 30
0.0
 11
4.59284895658493
 21
13.86064
 31
0.0
  0
LINE
  5
D8
330
17
100
AcDbEntity
  8
0
100
AcDbLine
 10
5.09284895658493
 20
1.1239999999999997
 30
0.0
 11
5.09284895658493
 21
1.304000000000001
 31
0.0
  0
LINE
  5
D9
330
17
100
AcDbEntity
  8
0
100
AcDbLine
 10
5.09284895658493
 20
1.1239999999999997
 30
0.0
 11
5.09284895658493
 21
1.304000000000001
 31
0.0
  0
LINE
  5
DA
330
17
100
AcDbEntity
  8
0
100
AcDbLine
 10
5.09284895658493
 20
1.304000000000001
 30
0.0
 11
5.09284895658493
 21
2.008
 31
0.0
  0
LINE
  5
DB
330
17
100
AcDbEntity
  8
0
100
AcDbLine
 10
5.09284895658493
 20
2.924
 30
0.0
 11
5.09284895658493
 21
3.104000000000001
 31
0.0
  0
LINE
  5
DC
330
17
100
AcDbEntity
  8
0
100
AcDbLine
 10
5.09284895658493
 20
3.104000000000001
 30
0.0
 11
5.09284895658493
 21
3.8080000000000003
 31
0.0
  0
LINE
  5
DD
330
17
100
AcDbEntity
  8
0
100
AcDbLine
 10
5.09284895658493
 20
4.724
 30
0.0
 11
5.09284895658493
 21
5.427999999999999
 31
0.0
  0
LINE
  5
DE
330
17
100
AcDbEntity
  8
0
100
AcDbLine
 10
5.09284895658493
 20
5.427999999999999
 30
0.0
 11
5.09284895658493
 21
5.6080000000000005
 31
0.0
  0
LINE
  5
DF
330
17
100
AcDbEntity
  8
0
100
AcDbLine
 10
5.09284895658493
 20
6.524
 30
0.0
 11
5.09284895658493
 21
7.228
 31
0.0
  0
LINE
  5
E0
330
17
100
AcDbEntity
  8
0
100
AcDbLine
 10
5.09284895658493
 20
7.228
 30
0.0
 11
5.09284895658493
 21
7.408
 31
0.0
  0
LINE
  5
E1
330
17
100
AcDbEntity
  8
0
100
AcDbLine
 10
5.09284895658493
 20
8.324
 30
0.0
 11
5.09284895658493
 21
8.504000000000001
 31
0.0
  0
LINE
  5
E2
330
17
100
AcDbEntity
  8
0
100
AcDbLine
 10
5.09284895658493
 20
8.504000000000001
 30
0.0
 11
5.09284895658493
 21
9.208
 31
0.0
  0
LINE
  5
E3
330
17
100
AcDbEntity
  8
0
100
AcDbLine
 10
5.09284895658493
 20
10.124
 30
0.0
 11
5.09284895658493
 21
10.304000000000002
 31
0.0
  0
LINE
  5
E4
330
17
100
AcDbEntity
  8
0
100
AcDbLine
 10
5.09284895658493
 20
10.304000000000002
 30
0.0
 11
5.09284895658493
 21
11.008000000000001
 31
0.0
  0
LINE
  5
E5
330
17
100
AcDbEntity
  8
0
100
AcDbLine
 10
5.09284895658493
 20
11.924000000000001
 30
0.0
 11
5.09284895658493
 21
12.104000000000003
 31
0.0
  0
LINE
  5
E6
330
17
100
AcDbEntity
  8
0
100
AcDbLine
 10
5.09284895658493
 20
12.104000000000003
 30
0.0
 11
5.09284895658493
 21
12.808
 31
0.0
  0
LINE
  5
E7
330
17
100
AcDbEntity
  8
0
100
AcDbLine
 10
5.09284895658493
 20
13.724
 30
0.0
 11
5.09284895658493
 21
13.87268
 31
0.0
  0
LINE
  5
E8
330
17
100
AcDbEntity
  8
0
100
AcDbLine
 10
5.59284895658493
 20
1.1399999999999997
 30
0.0
 11
5.59284895658493
 21
1.320000000000001
 31
0.0
  0
LINE
  5
E9
330
17
100
AcDbEntity
  8
0
100
AcDbLine
 10
5.59284895658493
 20
1.1399999999999997
 30
0.0
 11
5.59284895658493
 21
1.320000000000001
 31
0.0
  0
LINE
  5
EA
330
17
100
AcDbEntity
  8
0
100
AcDbLine
 10
5.59284895658493
 20
1.320000000000001
 30
0.0
 11
5.59284895658493
 21
2.024
 31
0.0
  0
LINE
  5
EB
330
17
100
AcDbEntity
  8
0
100
AcDbLine
 10
5.59284895658493
 20
2.94
 30
0.0
 11
5.59284895658493
 21
3.120000000000001
 31
0.0
  0
LINE
  5
EC
330
17
100
AcDbEntity
  8
0
100
AcDbLine
 10
5.59284895658493
 20
3.120000000000001
 30
0.0
 11
5.59284895658493
 21
3.8240000000000003
 31
0.0
  0
LINE
  5
ED
330
17
100
AcDbEntity
  8
0
100
AcDbLine
 10
5.59284895658493
 20
4.74
 30
0.0
 11
5.59284895658493
 21
5.443999999999999
 31
0.0
  0
LINE
  5
EE
330
17
100
AcDbEntity
  8
0
100
AcDbLine
 10
5.59284895658493
 20
5.443999999999999
 30
0.0
 11
5.59284895658493
 21
5.6240000000000006
 31
0.0
  0
LINE
  5
EF
330
17
100
AcDbEntity
  8
0
100
AcDbLine
 10
5.59284895658493
 20
6.54
 30
0.0
 11
5.59284895658493
 21
7.244
 31
0.0
  0
LINE
  5
F0
330
17
100
AcDbEntity
  8
0
100
AcDbLine
 10
5.59284895658493
 20
7.244
 30
0.0
 11
5.59284895658493
 21
7.424
 31
0.0
  0
LINE
  5
F1
330
17
100
AcDbEntity
  8
0
100
AcDbLine
 10
5.59284895658493
 20
8.34
 30
0.0
 11
5.59284895658493
 21
8.520000000000001
 31
0.0
  0
LINE
  5
F2
330
17
100
AcDbEntity
  8
0
100
AcDbLine
 10
5.59284895658493
 20
8.520000000000001
 30
0.0
 11
5.59284895658493
 21
9.224
 31
0.0
  0
LINE
  5
F3
330
17
100
AcDbEntity
  8
0
100
AcDbLine
 10
5.59284895658493
 20
10.14
 30
0.0
 11
5.59284895658493
 21
10.320000000000002
 31
0.0
  0
LINE
  5
F4
330
17
100
AcDbEntity
  8
0
100
AcDbLine
 10
5.59284895658493
 20
10.320000000000002
 30
0.0
 11
5.59284895658493
 21
11.024000000000001
 31
0.0
  0
LINE
  5
F5
330
17
100
AcDbEntity
  8
0
100
AcDbLine
 10
5.59284895658493
 20
11.940000000000001
 30
0.0
 11
5.59284895658493
 21
12.120000000000001
 31
0.0
  0
LINE
  5
F6
330
17
100
AcDbEntity
  8
0
100
AcDbLine
 10
5.59284895658493
 20
12.120000000000001
 30
0.0
 11
5.59284895658493
 21
12.824
 31
0.0
  0
LINE
  5
F7
330
17
100
AcDbEntity
  8
0
100
AcDbLine
 10
5.59284895658493
 20
13.74
 30
0.0
 11
5.59284895658493
 21
13.8846
 31
0.0
  0
LINE
  5
F8
330
17
100
AcDbEntity
  8
0
100
AcDbLine
 10
6.09284895658493
 20
1.1559999999999997
 30
0.0
 11
6.09284895658493
 21
1.336000000000001
 31
0.0
  0
LINE
  5
F9
330
17
100
AcDbEntity
  8
0
100
AcDbLine
 10
6.09284895658493
 20
1.1559999999999997
 30
0.0
 11
6.09284895658493
 21
1.336000000000001
 31
0.0
  0
LINE
  5
FA
330
17
100
AcDbEntity
  8
0
100
AcDbLine
 10
6.09284895658493
 20
1.336000000000001
 30
0.0
 11
6.09284895658493
 21
2.04
 31
0.0
  0
LINE
  5
FB
330
17
100
AcDbEntity
  8
0
100
AcDbLine
 10
6.09284895658493
 20
2.956
 30
0.0
 11
6.09284895658493
 21
3.136000000000001
 31
0.0
  0
LINE
  5
FC
330
17
100
AcDbEntity
  8
0
100
AcDbLine
 10
6.09284895658493
 20
3.136000000000001
 30
0.0
 11
6.09284895658493
 21
3.8400000000000003
 31
0.0
  0
LINE
  5
FD
330
17
100
AcDbEntity
  8
0
100
AcDbLine
 10
6.09284895658493
 20
4.756
 30
0.0
 11
6.09284895658493
 21
5.459999999999999
 31
0.0
  0
LINE
  5
FE
330
17
100
AcDbEntity
  8
0
100
AcDbLine
 10
6.09284895658493
 20
5.459999999999999
 30
0.0
 11
6.09284895658493
 21
5.640000000000001
 31
0.0
  0
LINE
  5
FF
330
17
100
AcDbEntity
  8
0
100
AcDbLine
 10
6.09284895658493
 20
6.556
 30
0.0
 11
6.09284895658493
 21
7.26
 31
0.0
  0
LINE
  5
100
330
17
100
AcDbEntity
  8
0
100
AcDbLine
 10
6.09284895658493
 20
7.26
 30
0.0
 11
6.09284895658493
 21
7.44
 31
0.0
  0
LINE
  5
101
330
17
100
AcDbEntity
  8
0
100
AcDbLine
 10
6.09284895658493
 20
8.356
 30
0.0
 11
6.09284895658493
 21
8.536000000000001
 31
0.0
  0
LINE
  5
102
330
17
100
AcDbEntity
  8
0
100
AcDbLine
 10
6.09284895658493
 20
8.536000000000001
 30
0.0
 11
6.09284895658493
 21
9.24
 31
0.0
  0
LINE
  5
103
330
17
100
AcDbEntity
  8
0
100
AcDbLine
 10
6.09284895658493
 20
10.156
 30
0.0
 11
6.09284895658493
 21
10.336000000000002
 31
0.0
  0
LINE
  5
104
330
17
100
AcDbEntity
  8
0
100
AcDbLine
 10
6.09284895658493
 20
10.336000000000002
 30
0.0
 11
6.09284895658493
 21
11.040000000000001
 31
0.0
  0
LINE
  5
105
330
17
100
AcDbEntity
  8
0
100
AcDbLine
 10
6.09284895658493
 20
11.956000000000001
 30
0.0
 11
6.09284895658493
 21
12.136000000000003
 31
0.0
  0
LINE
  5
106
330
17
100
AcDbEntity
  8
0
100
AcDbLine
 10
6.09284895658493
 20
12.136000000000003
 30
0.0
 11
6.09284895658493
 21
12.84
 31
0.0
  0
LINE
  5
107
330
17
100
AcDbEntity
  8
0
100
AcDbLine
 10
6.09284895658493
 20
13.756
 30
0.0
 11
6.09284895658493
 21
13.89724
 31
0.0
  0
LINE
  5
108
330
17
100
AcDbEntity
  8
0
100
AcDbLine
 10
6.59284895658493
 20
1.1709999999999998
 30
0.0
 11
6.59284895658493
 21
1.1718799999999996
 31
0.0
  0
LINE
  5
109
330
17
100
AcDbEntity
  8
0
100
AcDbLine
 10
6.59284895658493
 20
1.1709999999999998
 30
0.0
 11
6.59284895658493
 21
1.1718799999999996
 31
0.0
  0
LINE
  5
10A
330
17
100
AcDbEntity
  8
0
100
AcDbLine
 10
6.59284895658493
 20
1.1718799999999996
 30
0.0
 11
6.59284895658493
 21
1.352000000000001
 31
0.0
  0
LINE
  5
10B
330
17
100
AcDbEntity
  8
0
100
AcDbLine
 10
6.59284895658493
 20
1.352000000000001
 30
0.0
 11
6.59284895658493
 21
2.0560000000000005
 31
0.0
  0
LINE
  5
10C
330
17
100
AcDbEntity
  8
0
100
AcDbLine
 10
6.59284895658493
 20
2.9709999999999996
 30
0.0
 11
6.59284895658493
 21
2.97188
 31
0.0
  0
LINE
  5
10D
330
17
100
AcDbEntity
  8
0
100
AcDbLine
 10
6.59284895658493
 20
2.97188
 30
0.0
 11
6.59284895658493
 21
3.152000000000001
 31
0.0
  0
LINE
  5
10E
330
17
100
AcDbEntity
  8
0
100
AcDbLine
 10
6.59284895658493
 20
3.152000000000001
 30
0.0
 11
6.59284895658493
 21
3.8560000000000003
 31
0.0
  0
LINE
  5
10F
330
17
100
AcDbEntity
  8
0
100
AcDbLine
 10
6.59284895658493
 20
4.771
 30
0.0
 11
6.59284895658493
 21
4.7718799999999995
 31
0.0
  0
LINE
  5
110
330
17
100
AcDbEntity
  8
0
100
AcDbLine
 10
6.59284895658493
 20
4.7718799999999995
 30
0.0
 11
6.59284895658493
 21
4.952000000000001
 31
0.0
  0
LINE
  5
111
330
17
100
AcDbEntity
  8
0
100
AcDbLine
 10
6.59284895658493
 20
4.952000000000001
 30
0.0
 11
6.59284895658493
 21
5.656000000000001
 31
0.0
  0
LINE
  5
112
330
17
100
AcDbEntity
  8
0
100
AcDbLine
 10
6.59284895658493
 20
6.571
 30
0.0
 11
6.59284895658493
 21
6.571879999999999
 31
0.0
  0
LINE
  5
113
330
17
100
AcDbEntity
  8
0
100
AcDbLine
 10
6.59284895658493
 20
6.571879999999999
 30
0.0
 11
6.59284895658493
 21
6.752000000000001
 31
0.0
  0
LINE
  5
114
330
17
100
AcDbEntity
  8
0
100
AcDbLine
 10
6.59284895658493
 20
6.752000000000001
 30
0.0
 11
6.59284895658493
 21
7.456
 31
0.0
  0
LINE
  5
115
330
17
100
AcDbEntity
  8
0
100
AcDbLine
 10
6.59284895658493
 20
8.371
 30
0.0
 11
6.59284895658493
 21
8.371879999999999
 31
0.0
  0
LINE
  5
116
330
17
100
AcDbEntity
  8
0
100
AcDbLine
 10
6.59284895658493
 20
8.371879999999999
 30
0.0
 11
6.59284895658493
 21
8.552000000000001
 31
0.0
  0
LINE
  5
117
330
17
100
AcDbEntity
  8
0
100
AcDbLine
 10
6.59284895658493
 20
8.552000000000001
 30
0.0
 11
6.59284895658493
 21
9.256
 31
0.0
  0
LINE
  5
118
330
17
100
AcDbEntity
  8
0
100
AcDbLine
 10
6.59284895658493
 20
10.171000000000001
 30
0.0
 11
6.59284895658493
 21
10.17188
 31
0.0
  0
LINE
  5
119
330
17
100
AcDbEntity
  8
0
100
AcDbLine
 10
6.59284895658493
 20
10.17188
 30
0.0
 11
6.59284895658493
 21
10.352000000000002
 31
0.0
  0
LINE
  5
11A
330
17
100
AcDbEntity
  8
0
100
AcDbLine
 10
6.59284895658493
 20
10.352000000000002
 30
0.0
 11
6.59284895658493
 21
11.056
 31
0.0
  0
LINE
  5
11B
330
17
100
AcDbEntity
  8
0
100
AcDbLine
 10
6.59284895658493
 20
11.971
 30
0.0
 11
6.59284895658493
 21
11.97188
 31
0.0
  0
LINE
  5
11C
330
17
100
AcDbEntity
  8
0
100
AcDbLine
 10
6.59284895658493
 20
11.97188
 30
0.0
 11
6.59284895658493
 21
12.152000000000001
 31
0.0
  0
LINE
  5
11D
330
17
100
AcDbEntity
  8
0
100
AcDbLine
 10
6.59284895658493
 20
12.152000000000001
 30
0.0
 11
6.59284895658493
 21
12.856
 31
0.0
  0
LINE
  5
11E
330
17
100
AcDbEntity
  8
0
100
AcDbLine
 10
6.59284895658493
 20
13.771
 30
0.0
 11
6.59284895658493
 21
13.77188
 31
0.0
  0
LINE
  5
11F
330
17
100
AcDbEntity
  8
0
100
AcDbLine
 10
6.59284895658493
 20
13.77188
 30
0.0
 11
6.59284895658493
 21
13.91144
 31
0.0
  0
LINE
  5
120
330
17
100
AcDbEntity
  8
0
100
AcDbLine
 10
7.09284895658493
 20
1.1869999999999998
 30
0.0
 11
7.09284895658493
 21
1.367000000000001
 31
0.0
  0
LINE
  5
121
330
17
100
AcDbEntity
  8
0
100
AcDbLine
 10
7.09284895658493
 20
1.1869999999999998
 30
0.0
 11
7.09284895658493
 21
1.367000000000001
 31
0.0
  0
LINE
  5
122
330
17
100
AcDbEntity
  8
0
100
AcDbLine
 10
7.09284895658493
 20
1.367000000000001
 30
0.0
 11
7.09284895658493
 21
2.071
 31
0.0
  0
LINE
  5
123
330
17
100
AcDbEntity
  8
0
100
AcDbLine
 10
7.09284895658493
 20
2.9869999999999997
 30
0.0
 11
7.09284895658493
 21
3.690999999999999
 31
0.0
  0
LINE
  5
124
330
17
100
AcDbEntity
  8
0
100
AcDbLine
 10
7.09284895658493
 20
3.690999999999999
 30
0.0
 11
7.09284895658493
 21
3.8710000000000004
 31
0.0
  0
LINE
  5
125
330
17
100
AcDbEntity
  8
0
100
AcDbLine
 10
7.09284895658493
 20
4.787
 30
0.0
 11
7.09284895658493
 21
4.9670000000000005
 31
0.0
  0
LINE
  5
126
330
17
100
AcDbEntity
  8
0
100
AcDbLine
 10
7.09284895658493
 20
4.9670000000000005
 30
0.0
 11
7.09284895658493
 21
5.671
 31
0.0
  0
LINE
  5
127
330
17
100
AcDbEntity
  8
0
100
AcDbLine
 10
7.09284895658493
 20
6.587
 30
0.0
 11
7.09284895658493
 21
6.767000000000001
 31
0.0
  0
LINE
  5
128
330
17
100
AcDbEntity
  8
0
100
AcDbLine
 10
7.09284895658493
 20
6.767000000000001
 30
0.0
 11
7.09284895658493
 21
7.471
 31
0.0
  0
LINE
  5
129
330
17
100
AcDbEntity
  8
0
100
AcDbLine
 10
7.09284895658493
 20
8.387
 30
0.0
 11
7.09284895658493
 21
8.567000000000002
 31
0.0
  0
LINE
  5
12A
330
17
100
AcDbEntity
  8
0
100
AcDbLine
 10
7.09284895658493
 20
8.567000000000002
 30
0.0
 11
7.09284895658493
 21
9.271
 31
0.0
  0
LINE
  5
12B
330
17
100
AcDbEntity
  8
0
100
AcDbLine
 10
7.09284895658493
 20
10.187000000000001
 30
0.0
 11
7.09284895658493
 21
10.367
 31
0.0
  0
LINE
  5
12C
330
17
100
AcDbEntity
  8
0
100
AcDbLine
 10
7.09284895658493
 20
10.367
 30
0.0
 11
7.09284895658493
 21
11.071
 31
0.0
  0
LINE
  5
12D
330
17
100
AcDbEntity
  8
0
100
AcDbLine
 10
7.09284895658493
 20
11.987
 30
0.0
 11
7.09284895658493
 21
12.167000000000002
 31
0.0
  0
LINE
  5
12E
330
17
100
AcDbEntity
  8
0
100
AcDbLine
 10
7.09284895658493
 20
12.167000000000002
 30
0.0
 11
7.09284895658493
 21
12.871
 31
0.0
  0
LINE
  5
12F
330
17
100
AcDbEntity
  8
0
100
AcDbLine
 10
7.09284895658493
 20
13.787
 30
0.0
 11
7.09284895658493
 21
13.924760000000001
 31
0.0
  0
LINE
  5
130
330
17
100
AcDbEntity
  8
0
100
AcDbLine
 10
7.59284895658493
 20
1.1821199999999998
 30
0.0
 11
7.59284895658493
 21
1.1829999999999998
 31
0.0
  0
LINE
  5
131
330
17
100
AcDbEntity
  8
0
100
AcDbLine
 10
7.59284895658493
 20
1.1821199999999998
 30
0.0
 11
7.59284895658493
 21
1.1829999999999998
 31
0.0
  0
LINE
  5
132
330
17
100
AcDbEntity
  8
0
100
AcDbLine
 10
7.59284895658493
 20
1.1829999999999998
 30
0.0
 11
7.59284895658493
 21
1.363000000000001
 31
0.0
  0
LINE
  5
133
330
17
100
AcDbEntity
  8
0
100
AcDbLine
 10
7.59284895658493
 20
1.363000000000001
 30
0.0
 11
7.59284895658493
 21
2.067
 31
0.0
  0
LINE
  5
134
330
17
100
AcDbEntity
  8
0
100
AcDbLine
 10
7.59284895658493
 20
2.9821199999999997
 30
0.0
 11
7.59284895658493
 21
2.9829999999999997
 31
0.0
  0
LINE
  5
135
330
17
100
AcDbEntity
  8
0
100
AcDbLine
 10
7.59284895658493
 20
2.9829999999999997
 30
0.0
 11
7.59284895658493
 21
3.1630000000000007
 31
0.0
  0
LINE
  5
136
330
17
100
AcDbEntity
  8
0
100
AcDbLine
 10
7.59284895658493
 20
3.1630000000000007
 30
0.0
 11
7.59284895658493
 21
3.8670000000000004
 31
0.0
  0
LINE
  5
137
330
17
100
AcDbEntity
  8
0
100
AcDbLine
 10
7.59284895658493
 20
4.78212
 30
0.0
 11
7.59284895658493
 21
4.783
 31
0.0
  0
LINE
  5
138
330
17
100
AcDbEntity
  8
0
100
AcDbLine
 10
7.59284895658493
 20
4.783
 30
0.0
 11
7.59284895658493
 21
5.486999999999999
 31
0.0
  0
LINE
  5
139
330
17
100
AcDbEntity
  8
0
100
AcDbLine
 10
7.59284895658493
 20
5.486999999999999
 30
0.0
 11
7.59284895658493
 21
5.667000000000001
 31
0.0
  0
LINE
  5
13A
330
17
100
AcDbEntity
  8
0
100
AcDbLine
 10
7.59284895658493
 20
6.582120000000001
 30
0.0
 11
7.59284895658493
 21
6.583
 31
0.0
  0
LINE
  5
13B
330
17
100
AcDbEntity
  8
0
100
AcDbLine
 10
7.59284895658493
 20
6.583
 30
0.0
 11
7.59284895658493
 21
7.286999999999999
 31
0.0
  0
LINE
  5
13C
330
17
100
AcDbEntity
  8
0
100
AcDbLine
 10
7.59284895658493
 20
7.286999999999999
 30
0.0
 11
7.59284895658493
 21
7.4670000000000005
 31
0.0
  0
LINE
  5
13D
330
17
100
AcDbEntity
  8
0
100
AcDbLine
 10
7.59284895658493
 20
8.382119999999999
 30
0.0
 11
7.59284895658493
 21
8.383000000000001
 31
0.0
  0
LINE
  5
13E
330
17
100
AcDbEntity
  8
0
100
AcDbLine
 10
7.59284895658493
 20
8.383000000000001
 30
0.0
 11
7.59284895658493
 21
8.563000000000002
 31
0.0
  0
LINE
  5
13F
330
17
100
AcDbEntity
  8
0
100
AcDbLine
 10
7.59284895658493
 20
8.563000000000002
 30
0.0
 11
7.59284895658493
 21
9.267
 31
0.0
  0
LINE
  5
140
330
17
100
AcDbEntity
  8
0
100
AcDbLine
 10
7.59284895658493
 20
10.18212
 30
0.0
 11
7.59284895658493
 21
10.183
 31
0.0
  0
LINE
  5
141
330
17
100
AcDbEntity
  8
0
100
AcDbLine
 10
7.59284895658493
 20
10.183
 30
0.0
 11
7.59284895658493
 21
10.363000000000001
 31
0.0
  0
LINE
  5
142
330
17
100
AcDbEntity
  8
0
100
AcDbLine
 10
7.59284895658493
 20
10.363000000000001
 30
0.0
 11
7.59284895658493
 21
11.067
 31
0.0
  0
LINE
  5
143
330
17
100
AcDbEntity
  8
0
100
AcDbLine
 10
7.59284895658493
 20
11.98212
 30
0.0
 11
7.59284895658493
 21
11.983
 31
0.0
  0
LINE
  5
144
330
17
100
AcDbEntity
  8
0
100
AcDbLine
 10
7.59284895658493
 20
11.983
 30
0.0
 11
7.59284895658493
 21
12.163000000000002
 31
0.0
  0
LINE
  5
145
330
17
100
AcDbEntity
  8
0
100
AcDbLine
 10
7.59284895658493
 20
12.163000000000002
 30
0.0
 11
7.59284895658493
 21
12.867
 31
0.0
  0
LINE
  5
146
330
17
100
AcDbEntity
  8
0
100
AcDbLine
 10
7.59284895658493
 20
13.782119999999999
 30
0.0
 11
7.59284895658493
 21
13.783000000000001
 31
0.0
  0
LINE
  5
147
330
17
100
AcDbEntity
  8
0
100
AcDbLine
 10
7.59284895658493
 20
13.783000000000001
 30
0.0
 11
7.59284895658493
 21
13.921360000000002
 31
0.0
  0
LINE
  5
148
330
17
100
AcDbEntity
  8
0
100
AcDbLine
 10
8.09284895658493
 20
1.1709999999999998
 30
0.0
 11
8.09284895658493
 21
1.351000000000001
 31
0.0
  0
LINE
  5
149
330
17
100
AcDbEntity
  8
0
100
AcDbLine
 10
8.09284895658493
 20
1.1709999999999998
 30
0.0
 11
8.09284895658493
 21
1.351000000000001
 31
0.0
  0
LINE
  5
14A
330
17
100
AcDbEntity
  8
0
100
AcDbLine
 10
8.09284895658493
 20
1.351000000000001
 30
0.0
 11
8.09284895658493
 21
2.055
 31
0.0
  0
LINE
  5
14B
330
17
100
AcDbEntity
  8
0
100
AcDbLine
 10
8.09284895658493
 20
2.9709999999999996
 30
0.0
 11
8.09284895658493
 21
3.674999999999999
 31
0.0
  0
LINE
  5
14C
330
17
100
AcDbEntity
  8
0
100
AcDbLine
 10
8.09284895658493
 20
3.674999999999999
 30
0.0
 11
8.09284895658493
 21
3.8550000000000004
 31
0.0
  0
LINE
  5
14D
330
17
100
AcDbEntity
  8
0
100
AcDbLine
 10
8.09284895658493
 20
4.771
 30
0.0
 11
8.09284895658493
 21
4.9510000000000005
 31
0.0
  0
LINE
  5
14E
330
17
100
AcDbEntity
  8
0
100
AcDbLine
 10
8.09284895658493
 20
4.9510000000000005
 30
0.0
 11
8.09284895658493
 21
5.655
 31
0.0
  0
LINE
  5
14F
330
17
100
AcDbEntity
  8
0
100
AcDbLine
 10
8.09284895658493
 20
6.571
 30
0.0
 11
8.09284895658493
 21
6.751000000000001
 31
0.0
  0
LINE
  5
150
330
17
100
AcDbEntity
  8
0
100
AcDbLine
 10
8.09284895658493
 20
6.751000000000001
 30
0.0
 11
8.09284895658493
 21
7.455
 31
0.0
  0
LINE
  5
151
330
17
100
AcDbEntity
  8
0
100
AcDbLine
 10
8.09284895658493
 20
8.371
 30
0.0
 11
8.09284895658493
 21
8.551000000000002
 31
0.0
  0
LINE
  5
152
330
17
100
AcDbEntity
  8
0
100
AcDbLine
 10
8.09284895658493
 20
8.551000000000002
 30
0.0
 11
8.09284895658493
 21
9.255
 31
0.0
  0
LINE
  5
153
330
17
100
AcDbEntity
  8
0
100
AcDbLine
 10
8.09284895658493
 20
10.171000000000001
 30
0.0
 11
8.09284895658493
 21
10.351000000000003
 31
0.0
  0
LINE
  5
154
330
17
100
AcDbEntity
  8
0
100
AcDbLine
 10
8.09284895658493
 20
10.351000000000003
 30
0.0
 11
8.09284895658493
 21
11.055
 31
0.0
  0
LINE
  5
155
330
17
100
AcDbEntity
  8
0
100
AcDbLine
 10
8.09284895658493
 20
11.971
 30
0.0
 11
8.09284895658493
 21
12.151000000000002
 31
0.0
  0
LINE
  5
156
330
17
100
AcDbEntity
  8
0
100
AcDbLine
 10
8.09284895658493
 20
12.151000000000002
 30
0.0
 11
8.09284895658493
 21
12.855
 31
0.0
  0
LINE
  5
157
330
17
100
AcDbEntity
  8
0
100
AcDbLine
 10
8.09284895658493
 20
13.771
 30
0.0
 11
8.09284895658493
 21
13.910800000000002
 31
0.0
  0
LINE
  5
158
330
17
100
AcDbEntity
  8
0
100
AcDbLine
 10
8.59284895658493
 20
1.1589999999999998
 30
0.0
 11
8.59284895658493
 21
1.339000000000001
 31
0.0
  0
LINE
  5
159
330
17
100
AcDbEntity
  8
0
100
AcDbLine
 10
8.59284895658493
 20
1.1589999999999998
 30
0.0
 11
8.59284895658493
 21
1.339000000000001
 31
0.0
  0
LINE
  5
15A
330
17
100
AcDbEntity
  8
0
100
AcDbLine
 10
8.59284895658493
 20
1.339000000000001
 30
0.0
 11
8.59284895658493
 21
2.043
 31
0.0
  0
LINE
  5
15B
330
17
100
AcDbEntity
  8
0
100
AcDbLine
 10
8.59284895658493
 20
2.9589999999999996
 30
0.0
 11
8.59284895658493
 21
3.1390000000000007
 31
0.0
  0
LINE
  5
15C
330
17
100
AcDbEntity
  8
0
100
AcDbLine
 10
8.59284895658493
 20
3.1390000000000007
 30
0.0
 11
8.59284895658493
 21
3.8430000000000004
 31
0.0
  0
LINE
  5
15D
330
17
100
AcDbEntity
  8
0
100
AcDbLine
 10
8.59284895658493
 20
4.759
 30
0.0
 11
8.59284895658493
 21
5.462999999999999
 31
0.0
  0
LINE
  5
15E
330
17
100
AcDbEntity
  8
0
100
AcDbLine
 10
8.59284895658493
 20
5.462999999999999
 30
0.0
 11
8.59284895658493
 21
5.643000000000001
 31
0.0
  0
LINE
  5
15F
330
17
100
AcDbEntity
  8
0
100
AcDbLine
 10
8.59284895658493
 20
6.559
 30
0.0
 11
8.59284895658493
 21
7.262999999999999
 31
0.0
  0
LINE
  5
160
330
17
100
AcDbEntity
  8
0
100
AcDbLine
 10
8.59284895658493
 20
7.262999999999999
 30
0.0
 11
8.59284895658493
 21
7.4430000000000005
 31
0.0
  0
LINE
  5
161
330
17
100
AcDbEntity
  8
0
100
AcDbLine
 10
8.59284895658493
 20
8.359
 30
0.0
 11
8.59284895658493
 21
8.539000000000001
 31
0.0
  0
LINE
  5
162
330
17
100
AcDbEntity
  8
0
100
AcDbLine
 10
8.59284895658493
 20
8.539000000000001
 30
0.0
 11
8.59284895658493
 21
9.243
 31
0.0
  0
LINE
  5
163
330
17
100
AcDbEntity
  8
0
100
AcDbLine
 10
8.59284895658493
 20
10.159
 30
0.0
 11
8.59284895658493
 21
10.863
 31
0.0
  0
LINE
  5
164
330
17
100
AcDbEntity
  8
0
100
AcDbLine
 10
8.59284895658493
 20
10.863
 30
0.0
 11
8.59284895658493
 21
11.043
 31
0.0
  0
LINE
  5
165
330
17
100
AcDbEntity
  8
0
100
AcDbLine
 10
8.59284895658493
 20
11.959
 30
0.0
 11
8.59284895658493
 21
12.139000000000001
 31
0.0
  0
LINE
  5
166
330
17
100
AcDbEntity
  8
0
100
AcDbLine
 10
8.59284895658493
 20
12.139000000000001
 30
0.0
 11
8.59284895658493
 21
12.843
 31
0.0
  0
LINE
  5
167
330
17
100
AcDbEntity
  8
0
100
AcDbLine
 10
8.59284895658493
 20
13.759
 30
0.0
 11
8.59284895658493
 21
13.900360000000001
 31
0.0
  0
LINE
  5
168
330
17
100
AcDbEntity
  8
0
100
AcDbLine
 10
9.09284895658493
 20
1.1469999999999998
 30
0.0
 11
9.09284895658493
 21
1.327000000000001
 31
0.0
  0
LINE
  5
169
330
17
100
AcDbEntity
  8
0
100
AcDbLine
 10
9.09284895658493
 20
1.1469999999999998
 30
0.0
 11
9.09284895658493
 21
1.327000000000001
 31
0.0
  0
LINE
  5
16A
330
17
100
AcDbEntity
  8
0
100
AcDbLine
 10
9.09284895658493
 20
1.327000000000001
 30
0.0
 11
9.09284895658493
 21
2.0310000000000006
 31
0.0
  0
LINE
  5
16B
330
17
100
AcDbEntity
  8
0
100
AcDbLine
 10
9.09284895658493
 20
2.9469999999999996
 30
0.0
 11
9.09284895658493
 21
3.650999999999999
 31
0.0
  0
LINE
  5
16C
330
17
100
AcDbEntity
  8
0
100
AcDbLine
 10
9.09284895658493
 20
3.650999999999999
 30
0.0
 11
9.09284895658493
 21
3.8310000000000004
 31
0.0
  0
LINE
  5
16D
330
17
100
AcDbEntity
  8
0
100
AcDbLine
 10
9.09284895658493
 20
4.747
 30
0.0
 11
9.09284895658493
 21
4.9270000000000005
 31
0.0
  0
LINE
  5
16E
330
17
100
AcDbEntity
  8
0
100
AcDbLine
 10
9.09284895658493
 20
4.9270000000000005
 30
0.0
 11
9.09284895658493
 21
5.631
 31
0.0
  0
LINE
  5
16F
330
17
100
AcDbEntity
  8
0
100
AcDbLine
 10
9.09284895658493
 20
6.547
 30
0.0
 11
9.09284895658493
 21
6.727000000000001
 31
0.0
  0
LINE
  5
170
330
17
100
AcDbEntity
  8
0
100
AcDbLine
 10
9.09284895658493
 20
6.727000000000001
 30
0.0
 11
9.09284895658493
 21
7.431
 31
0.0
  0
LINE
  5
171
330
17
100
AcDbEntity
  8
0
100
AcDbLine
 10
9.09284895658493
 20
8.347
 30
0.0
 11
9.09284895658493
 21
8.527000000000001
 31
0.0
  0
LINE
  5
172
330
17
100
AcDbEntity
  8
0
100
AcDbLine
 10
9.09284895658493
 20
8.527000000000001
 30
0.0
 11
9.09284895658493
 21
9.231
 31
0.0
  0
LINE
  5
173
330
17
100
AcDbEntity
  8
0
100
AcDbLine
 10
9.09284895658493
 20
10.147
 30
0.0
 11
9.09284895658493
 21
10.327000000000002
 31
0.0
  0
LINE
  5
174
330
17
100
AcDbEntity
  8
0
100
AcDbLine
 10
9.09284895658493
 20
10.327000000000002
 30
0.0
 11
9.09284895658493
 21
11.031
 31
0.0
  0
LINE
  5
175
330
17
100
AcDbEntity
  8
0
100
AcDbLine
 10
9.09284895658493
 20
11.947000000000001
 30
0.0
 11
9.09284895658493
 21
12.651
 31
0.0
  0
LINE
  5
176
330
17
100
AcDbEntity
  8
0
100
AcDbLine
 10
9.09284895658493
 20
12.651
 30
0.0
 11
9.09284895658493
 21
12.831
 31
0.0
  0
LINE
  5
177
330
17
100
AcDbEntity
  8
0
100
AcDbLine
 10
9.09284895658493
 20
13.747
 30
0.0
 11
9.09284895658493
 21
13.88992
 31
0.0
  0
LINE
  5
178
330
17
100
AcDbEntity
  8
0
100
AcDbLine
 10
9.59284895658493
 20
1.1349999999999998
 30
0.0
 11
9.59284895658493
 21
1.315000000000001
 31
0.0
  0
LINE
  5
179
330
17
100
AcDbEntity
  8
0
100
AcDbLine
 10
9.59284895658493
 20
1.1349999999999998
 30
0.0
 11
9.59284895658493
 21
1.315000000000001
 31
0.0
  0
LINE
  5
17A
330
17
100
AcDbEntity
  8
0
100
AcDbLine
 10
9.59284895658493
 20
1.315000000000001
 30
0.0
 11
9.59284895658493
 21
2.019
 31
0.0
  0
LINE
  5
17B
330
17
100
AcDbEntity
  8
0
100
AcDbLine
 10
9.59284895658493
 20
2.9349999999999996
 30
0.0
 11
9.59284895658493
 21
3.1150000000000007
 31
0.0
  0
LINE
  5
17C
330
17
100
AcDbEntity
  8
0
100
AcDbLine
 10
9.59284895658493
 20
3.1150000000000007
 30
0.0
 11
9.59284895658493
 21
3.8190000000000004
 31
0.0
  0
LINE
  5
17D
330
17
100
AcDbEntity
  8
0
100
AcDbLine
 10
9.59284895658493
 20
4.735
 30
0.0
 11
9.59284895658493
 21
5.438999999999999
 31
0.0
  0
LINE
  5
17E
330
17
100
AcDbEntity
  8
0
100
AcDbLine
 10
9.59284895658493
 20
5.438999999999999
 30
0.0
 11
9.59284895658493
 21
5.619000000000001
 31
0.0
  0
LINE
  5
17F
330
17
100
AcDbEntity
  8
0
100
AcDbLine
 10
9.59284895658493
 20
6.535
 30
0.0
 11
9.59284895658493
 21
7.238999999999999
 31
0.0
  0
LINE
  5
180
330
17
100
AcDbEntity
  8
0
100
AcDbLine
 10
9.59284895658493
 20
7.238999999999999
 30
0.0
 11
9.59284895658493
 21
7.4190000000000005
 31
0.0
  0
LINE
  5
181
330
17
100
AcDbEntity
  8
0
100
AcDbLine
 10
9.59284895658493
 20
8.335
 30
0.0
 11
9.59284895658493
 21
9.038999999999998
 31
0.0
  0
LINE
  5
182
330
17
100
AcDbEntity
  8
0
100
AcDbLine
 10
9.59284895658493
 20
9.038999999999998
 30
0.0
 11
9.59284895658493
 21
9.219
 31
0.0
  0
LINE
  5
183
330
17
100
AcDbEntity
  8
0
100
AcDbLine
 10
9.59284895658493
 20
10.135
 30
0.0
 11
9.59284895658493
 21
10.315000000000001
 31
0.0
  0
LINE
  5
184
330
17
100
AcDbEntity
  8
0
100
AcDbLine
 10
9.59284895658493
 20
10.315000000000001
 30
0.0
 11
9.59284895658493
 21
11.019
 31
0.0
  0
LINE
  5
185
330
17
100
AcDbEntity
  8
0
100
AcDbLine
 10
9.59284895658493
 20
11.935
 30
0.0
 11
9.59284895658493
 21
12.115000000000002
 31
0.0
  0
LINE
  5
186
330
17
100
AcDbEntity
  8
0
100
AcDbLine
 10
9.59284895658493
 20
12.115000000000002
 30
0.0
 11
9.59284895658493
 21
12.819
 31
0.0
  0
LINE
  5
187
330
17
100
AcDbEntity
  8
0
100
AcDbLine
 10
9.59284895658493
 20
13.735000000000001
 30
0.0
 11
9.59284895658493
 21
13.879360000000002
 31
0.0
  0
LINE
  5
188
330
17
100
AcDbEntity
  8
0
100
AcDbLine
 10
10.09284895658493
 20
1.1229999999999998
 30
0.0
 11
10.09284895658493
 21
1.303000000000001
 31
0.0
  0
LINE
  5
189
330
17
100
AcDbEntity
  8
0
100
AcDbLine
 10
10.09284895658493
 20
1.1229999999999998
 30
0.0
 11
10.09284895658493
 21
1.303000000000001
 31
0.0
  0
LINE
  5
18A
330
17
100
AcDbEntity
  8
0
100
AcDbLine
 10
10.09284895658493
 20
1.303000000000001
 30
0.0
 11
10.09284895658493
 21
2.0070000000000006
 31
0.0
  0
LINE
  5
18B
330
17
100
AcDbEntity
  8
0
100
AcDbLine
 10
10.09284895658493
 20
2.9229999999999996
 30
0.0
 11
10.09284895658493
 21
3.626999999999999
 31
0.0
  0
LINE
  5
18C
330
17
100
AcDbEntity
  8
0
100
AcDbLine
 10
10.09284895658493
 20
3.626999999999999
 30
0.0
 11
10.09284895658493
 21
3.8070000000000004
 31
0.0
  0
LINE
  5
18D
330
17
100
AcDbEntity
  8
0
100
AcDbLine
 10
10.09284895658493
 20
4.723
 30
0.0
 11
10.09284895658493
 21
4.9030000000000005
 31
0.0
  0
LINE
  5
18E
330
17
100
AcDbEntity
  8
0
100
AcDbLine
 10
10.09284895658493
 20
4.9030000000000005
 30
0.0
 11
10.09284895658493
 21
5.607
 31
0.0
  0
LINE
  5
18F
330
17
100
AcDbEntity
  8
0
100
AcDbLine
 10
10.09284895658493
 20
6.523
 30
0.0
 11
10.09284895658493
 21
6.703000000000001
 31
0.0
  0
LINE
  5
190
330
17
100
AcDbEntity
  8
0
100
AcDbLine
 10
10.09284895658493
 20
6.703000000000001
 30
0.0
 11
10.09284895658493
 21
7.407
 31
0.0
  0
LINE
  5
191
330
17
100
AcDbEntity
  8
0
100
AcDbLine
 10
10.09284895658493
 20
8.323
 30
0.0
 11
10.09284895658493
 21
8.503000000000002
 31
0.0
  0
LINE
  5
192
330
17
100
AcDbEntity
  8
0
100
AcDbLine
 10
10.09284895658493
 20
8.503000000000002
 30
0.0
 11
10.09284895658493
 21
9.207
 31
0.0
  0
LINE
  5
193
330
17
100
AcDbEntity
  8
0
100
AcDbLine
 10
10.09284895658493
 20
10.123000000000001
 30
0.0
 11
10.09284895658493
 21
10.303
 31
0.0
  0
LINE
  5
194
330
17
100
AcDbEntity
  8
0
100
AcDbLine
 10
10.09284895658493
 20
10.303
 30
0.0
 11
10.09284895658493
 21
11.007
 31
0.0
  0
LINE
  5
195
330
17
100
AcDbEntity
  8
0
100
AcDbLine
 10
10.09284895658493
 20
11.923
 30
0.0
 11
10.09284895658493
 21
12.103000000000002
 31
0.0
  0
LINE
  5
196
330
17
100
AcDbEntity
  8
0
100
AcDbLine
 10
10.09284895658493
 20
12.103000000000002
 30
0.0
 11
10.09284895658493
 21
12.807
 31
0.0
  0
LINE
  5
197
330
17
100
AcDbEntity
  8
0
100
AcDbLine
 10
10.09284895658493
 20
13.723
 30
0.0
 11
10.09284895658493
 21
13.868920000000001
 31
0.0
  0
LINE
  5
198
330
17
100
AcDbEntity
  8
0
100
AcDbLine
 10
10.59284895658493
 20
1.1109999999999998
 30
0.0
 11
10.59284895658493
 21
1.291000000000001
 31
0.0
  0
LINE
  5
199
330
17
100
AcDbEntity
  8
0
100
AcDbLine
 10
10.59284895658493
 20
1.1109999999999998
 30
0.0
 11
10.59284895658493
 21
1.291000000000001
 31
0.0
  0
LINE
  5
19A
330
17
100
AcDbEntity
  8
0
100
AcDbLine
 10
10.59284895658493
 20
1.291000000000001
 30
0.0
 11
10.59284895658493
 21
1.9950000000000003
 31
0.0
  0
LINE
  5
19B
330
17
100
AcDbEntity
  8
0
100
AcDbLine
 10
10.59284895658493
 20
2.9109999999999996
 30
0.0
 11
10.59284895658493
 21
3.0910000000000006
 31
0.0
  0
LINE
  5
19C
330
17
100
AcDbEntity
  8
0
100
AcDbLine
 10
10.59284895658493
 20
3.0910000000000006
 30
0.0
 11
10.59284895658493
 21
3.7950000000000004
 31
0.0
  0
LINE
  5
19D
330
17
100
AcDbEntity
  8
0
100
AcDbLine
 10
10.59284895658493
 20
4.711
 30
0.0
 11
10.59284895658493
 21
5.414999999999999
 31
0.0
  0
LINE
  5
19E
330
17
100
AcDbEntity
  8
0
100
AcDbLine
 10
10.59284895658493
 20
5.414999999999999
 30
0.0
 11
10.59284895658493
 21
5.595000000000001
 31
0.0
  0
LINE
  5
19F
330
17
100
AcDbEntity
  8
0
100
AcDbLine
 10
10.59284895658493
 20
6.511
 30
0.0
 11
10.59284895658493
 21
7.214999999999999
 31
0.0
  0
LINE
  5
1A0
330
17
100
AcDbEntity
  8
0
100
AcDbLine
 10
10.59284895658493
 20
7.214999999999999
 30
0.0
 11
10.59284895658493
 21
7.3950000000000005
 31
0.0
  0
LINE
  5
1A1
330
17
100
AcDbEntity
  8
0
100
AcDbLine
 10
10.59284895658493
 20
8.311
 30
0.0
 11
10.59284895658493
 21
8.491000000000001
 31
0.0
  0
LINE
  5
1A2
330
17
100
AcDbEntity
  8
0
100
AcDbLine
 10
10.59284895658493
 20
8.491000000000001
 30
0.0
 11
10.59284895658493
 21
9.195
 31
0.0
  0
LINE
  5
1A3
330
17
100
AcDbEntity
  8
0
100
AcDbLine
 10
10.59284895658493
 20
10.111
 30
0.0
 11
10.59284895658493
 21
10.814999999999998
 31
0.0
  0
LINE
  5
1A4
330
17
100
AcDbEntity
  8
0
100
AcDbLine
 10
10.59284895658493
 20
10.814999999999998
 30
0.0
 11
10.59284895658493
 21
10.995
 31
0.0
  0
LINE
  5
1A5
330
17
100
AcDbEntity
  8
0
100
AcDbLine
 10
10.59284895658493
 20
11.911
 30
0.0
 11
10.59284895658493
 21
12.091000000000001
 31
0.0
  0
LINE
  5
1A6
330
17
100
AcDbEntity
  8
0
100
AcDbLine
 10
10.59284895658493
 20
12.091000000000001
 30
0.0
 11
10.59284895658493
 21
12.795
 31
0.0
  0
LINE
  5
1A7
330
17
100
AcDbEntity
  8
0
100
AcDbLine
 10
10.59284895658493
 20
13.711
 30
0.0
 11
10.59284895658493
 21
13.85848
 31
0.0
  0
LINE
  5
1A8
330
17
100
AcDbEntity
  8
0
100
AcDbLine
 10
11.09284895658493
 20
1.0989999999999998
 30
0.0
 11
11.09284895658493
 21
1.279000000000001
 31
0.0
  0
LINE
  5
1A9
330
17
100
AcDbEntity
  8
0
100
AcDbLine
 10
11.09284895658493
 20
1.0989999999999998
 30
0.0
 11
11.09284895658493
 21
1.279000000000001
 31
0.0
  0
LINE
  5
1AA
330
17
100
AcDbEntity
  8
0
100
AcDbLine
 10
11.09284895658493
 20
1.279000000000001
 30
0.0
 11
11.09284895658493
 21
1.9830000000000003
 31
0.0
  0
LINE
  5
1AB
330
17
100
AcDbEntity
  8
0
100
AcDbLine
 10
11.09284895658493
 20
2.899
 30
0.0
 11
11.09284895658493
 21
3.079000000000001
 31
0.0
  0
LINE
  5
1AC
330
17
100
AcDbEntity
  8
0
100
AcDbLine
 10
11.09284895658493
 20
3.079000000000001
 30
0.0
 11
11.09284895658493
 21
3.7830000000000004
 31
0.0
  0
LINE
  5
1AD
330
17
100
AcDbEntity
  8
0
100
AcDbLine
 10
11.09284895658493
 20
4.699
 30
0.0
 11
11.09284895658493
 21
4.8790000000000004
 31
0.0
  0
LINE
  5
1AE
330
17
100
AcDbEntity
  8
0
100
AcDbLine
 10
11.09284895658493
 20
4.8790000000000004
 30
0.0
 11
11.09284895658493
 21
5.583
 31
0.0
  0
LINE
  5
1AF
330
17
100
AcDbEntity
  8
0
100
AcDbLine
 10
11.09284895658493
 20
6.499
 30
0.0
 11
11.09284895658493
 21
6.679000000000001
 31
0.0
  0
LINE
  5
1B0
330
17
100
AcDbEntity
  8
0
100
AcDbLine
 10
11.09284895658493
 20
6.679000000000001
 30
0.0
 11
11.09284895658493
 21
7.383
 31
0.0
  0
LINE
  5
1B1
330
17
100
AcDbEntity
  8
0
100
AcDbLine
 10
11.09284895658493
 20
8.299
 30
0.0
 11
11.09284895658493
 21
9.002999999999998
 31
0.0
  0
LINE
  5
1B2
330
17
100
AcDbEntity
  8
0
100
AcDbLine
 10
11.09284895658493
 20
9.002999999999998
 30
0.0
 11
11.09284895658493
 21
9.183
 31
0.0
  0
LINE
  5
1B3
330
17
100
AcDbEntity
  8
0
100
AcDbLine
 10
11.09284895658493
 20
10.099
 30
0.0
 11
11.09284895658493
 21
10.279000000000002
 31
0.0
  0
LINE
  5
1B4
330
17
100
AcDbEntity
  8
0
100
AcDbLine
 10
11.09284895658493
 20
10.279000000000002
 30
0.0
 11
11.09284895658493
 21
10.983
 31
0.0
  0
LINE
  5
1B5
330
17
100
AcDbEntity
  8
0
100
AcDbLine
 10
11.09284895658493
 20
11.899000000000001
 30
0.0
 11
11.09284895658493
 21
12.602999999999998
 31
0.0
  0
LINE
  5
1B6
330
17
100
AcDbEntity
  8
0
100
AcDbLine
 10
11.09284895658493
 20
12.602999999999998
 30
0.0
 11
11.09284895658493
 21
12.783
 31
0.0
  0
LINE
  5
1B7
330
17
100
AcDbEntity
  8
0
100
AcDbLine
 10
11.09284895658493
 20
13.699
 30
0.0
 11
11.09284895658493
 21
13.848040000000001
 31
0.0
  0
LINE
  5
1B8
330
17
100
AcDbEntity
  8
0
100
AcDbLine
 10
11.59284895658493
 20
1.0869999999999997
 30
0.0
 11
11.59284895658493
 21
1.267000000000001
 31
0.0
  0
LINE
  5
1B9
330
17
100
AcDbEntity
  8
0
100
AcDbLine
 10
11.59284895658493
 20
1.0869999999999997
 30
0.0
 11
11.59284895658493
 21
1.267000000000001
 31
0.0
  0
LINE
  5
1BA
330
17
100
AcDbEntity
  8
0
100
AcDbLine
 10
11.59284895658493
 20
1.267000000000001
 30
0.0
 11
11.59284895658493
 21
1.9710000000000003
 31
0.0
  0
LINE
  5
1BB
330
17
100
AcDbEntity
  8
0
100
AcDbLine
 10
11.59284895658493
 20
2.887
 30
0.0
 11
11.59284895658493
 21
3.067000000000001
 31
0.0
  0
LINE
  5
1BC
330
17
100
AcDbEntity
  8
0
100
AcDbLine
 10
11.59284895658493
 20
3.067000000000001
 30
0.0
 11
11.59284895658493
 21
3.7710000000000004
 31
0.0
  0
LINE
  5
1BD
330
17
100
AcDbEntity
  8
0
100
AcDbLine
 10
11.59284895658493
 20
4.687
 30
0.0
 11
11.59284895658493
 21
5.390999999999999
 31
0.0
  0
LINE
  5
1BE
330
17
100
AcDbEntity
  8
0
100
AcDbLine
 10
11.59284895658493
 20
5.390999999999999
 30
0.0
 11
11.59284895658493
 21
5.571000000000001
 31
0.0
  0
LINE
  5
1BF
330
17
100
AcDbEntity
  8
0
100
AcDbLine
 10
11.59284895658493
 20
6.487
 30
0.0
 11
11.59284895658493
 21
7.190999999999999
 31
0.0
  0
LINE
  5
1C0
330
17
100
AcDbEntity
  8
0
100
AcDbLine
 10
11.59284895658493
 20
7.190999999999999
 30
0.0
 11
11.59284895658493
 21
7.371
 31
0.0
  0
LINE
  5
1C1
330
17
100
AcDbEntity
  8
0
100
AcDbLine
 10
11.59284895658493
 20
8.287
 30
0.0
 11
11.59284895658493
 21
8.990999999999998
 31
0.0
  0
LINE
  5
1C2
330
17
100
AcDbEntity
  8
0
100
AcDbLine
 10
11.59284895658493
 20
8.990999999999998
 30
0.0
 11
11.59284895658493
 21
9.171
 31
0.0
  0
LINE
  5
1C3
330
17
100
AcDbEntity
  8
0
100
AcDbLine
 10
11.59284895658493
 20
10.087
 30
0.0
 11
11.59284895658493
 21
10.267000000000001
 31
0.0
  0
LINE
  5
1C4
330
17
100
AcDbEntity
  8
0
100
AcDbLine
 10
11.59284895658493
 20
10.267000000000001
 30
0.0
 11
11.59284895658493
 21
10.971
 31
0.0
  0
LINE
  5
1C5
330
17
100
AcDbEntity
  8
0
100
AcDbLine
 10
11.59284895658493
 20
11.887
 30
0.0
 11
11.59284895658493
 21
12.067000000000002
 31
0.0
  0
LINE
  5
1C6
330
17
100
AcDbEntity
  8
0
100
AcDbLine
 10
11.59284895658493
 20
12.067000000000002
 30
0.0
 11
11.59284895658493
 21
12.771
 31
0.0
  0
LINE
  5
1C7
330
17
100
AcDbEntity
  8
0
100
AcDbLine
 10
11.59284895658493
 20
13.687000000000001
 30
0.0
 11
11.59284895658493
 21
13.837480000000001
 31
0.0
  0
LINE
  5
1C8
330
17
100
AcDbEntity
  8
0
100
AcDbLine
 10
12.09284895658493
 20
1.0749999999999997
 30
0.0
 11
12.09284895658493
 21
1.255000000000001
 31
0.0
  0
LINE
  5
1C9
330
17
100
AcDbEntity
  8
0
100
AcDbLine
 10
12.09284895658493
 20
1.0749999999999997
 30
0.0
 11
12.09284895658493
 21
1.255000000000001
 31
0.0
  0
LINE
  5
1CA
330
17
100
AcDbEntity
  8
0
100
AcDbLine
 10
12.09284895658493
 20
1.255000000000001
 30
0.0
 11
12.09284895658493
 21
1.9590000000000003
 31
0.0
  0
LINE
  5
1CB
330
17
100
AcDbEntity
  8
0
100
AcDbLine
 10
12.09284895658493
 20
2.875
 30
0.0
 11
12.09284895658493
 21
3.055000000000001
 31
0.0
  0
LINE
  5
1CC
330
17
100
AcDbEntity
  8
0
100
AcDbLine
 10
12.09284895658493
 20
3.055000000000001
 30
0.0
 11
12.09284895658493
 21
3.7590000000000003
 31
0.0
  0
LINE
  5
1CD
330
17
100
AcDbEntity
  8
0
100
AcDbLine
 10
12.09284895658493
 20
4.675
 30
0.0
 11
12.09284895658493
 21
4.855000000000001
 31
0.0
  0
LINE
  5
1CE
330
17
100
AcDbEntity
  8
0
100
AcDbLine
 10
12.09284895658493
 20
4.855000000000001
 30
0.0
 11
12.09284895658493
 21
5.559
 31
0.0
  0
LINE
  5
1CF
330
17
100
AcDbEntity
  8
0
100
AcDbLine
 10
12.09284895658493
 20
6.475
 30
0.0
 11
12.09284895658493
 21
6.655000000000001
 31
0.0
  0
LINE
  5
1D0
330
17
100
AcDbEntity
  8
0
100
AcDbLine
 10
12.09284895658493
 20
6.655000000000001
 30
0.0
 11
12.09284895658493
 21
7.359
 31
0.0
  0
LINE
  5
1D1
330
17
100
AcDbEntity
  8
0
100
AcDbLine
 10
12.09284895658493
 20
8.275
 30
0.0
 11
12.09284895658493
 21
8.455000000000002
 31
0.0
  0
LINE
  5
1D2
330
17
100
AcDbEntity
  8
0
100
AcDbLine
 10
12.09284895658493
 20
8.455000000000002
 30
0.0
 11
12.09284895658493
 21
9.159
 31
0.0
  0
LINE
  5
1D3
330
17
100
AcDbEntity
  8
0
100
AcDbLine
 10
12.09284895658493
 20
10.075000000000001
 30
0.0
 11
12.09284895658493
 21
10.255000000000003
 31
0.0
  0
LINE
  5
1D4
330
17
100
AcDbEntity
  8
0
100
AcDbLine
 10
12.09284895658493
 20
10.255000000000003
 30
0.0
 11
12.09284895658493
 21
10.959
 31
0.0
  0
LINE
  5
1D5
330
17
100
AcDbEntity
  8
0
100
AcDbLine
 10
12.09284895658493
 20
11.875
 30
0.0
 11
12.09284895658493
 21
12.055000000000001
 31
0.0
  0
LINE
  5
1D6
330
17
100
AcDbEntity
  8
0
100
AcDbLine
 10
12.09284895658493
 20
12.055000000000001
 30
0.0
 11
12.09284895658493
 21
12.759
 31
0.0
  0
LINE
  5
1D7
330
17
100
AcDbEntity
  8
0
100
AcDbLine
 10
12.09284895658493
 20
13.675
 30
0.0
 11
12.09284895658493
 21
13.827040000000002
 31
0.0
  0
LINE
  5
1D8
330
17
100
AcDbEntity
  8
0
100
AcDbLine
 10
12.59284895658493
 20
1.0629999999999997
 30
0.0
 11
12.59284895658493
 21
1.243000000000001
 31
0.0
  0
LINE
  5
1D9
330
17
100
AcDbEntity
  8
0
100
AcDbLine
 10
12.59284895658493
 20
1.0629999999999997
 30
0.0
 11
12.59284895658493
 21
1.243000000000001
 31
0.0
  0
LINE
  5
1DA
330
17
100
AcDbEntity
  8
0
100
AcDbLine
 10
12.59284895658493
 20
1.243000000000001
 30
0.0
 11
12.59284895658493
 21
1.9470000000000003
 31
0.0
  0
LINE
  5
1DB
330
17
100
AcDbEntity
  8
0
100
AcDbLine
 10
12.59284895658493
 20
2.863
 30
0.0
 11
12.59284895658493
 21
3.043000000000001
 31
0.0
  0
LINE
  5
1DC
330
17
100
AcDbEntity
  8
0
100
AcDbLine
 10
12.59284895658493
 20
3.043000000000001
 30
0.0
 11
12.59284895658493
 21
3.7470000000000003
 31
0.0
  0
LINE
  5
1DD
330
17
100
AcDbEntity
  8
0
100
AcDbLine
 10
12.59284895658493
 20
4.663
 30
0.0
 11
12.59284895658493
 21
5.366999999999999
 31
0.0
  0
LINE
  5
1DE
330
17
100
AcDbEntity
  8
0
100
AcDbLine
 10
12.59284895658493
 20
5.366999999999999
 30
0.0
 11
12.59284895658493
 21
5.547000000000001
 31
0.0
  0
LINE
  5
1DF
330
17
100
AcDbEntity
  8
0
100
AcDbLine
 10
12.59284895658493
 20
6.463
 30
0.0
 11
12.59284895658493
 21
7.166999999999999
 31
0.0
  0
LINE
  5
1E0
330
17
100
AcDbEntity
  8
0
100
AcDbLine
 10
12.59284895658493
 20
7.166999999999999
 30
0.0
 11
12.59284895658493
 21
7.347
 31
0.0
  0
LINE
  5
1E1
330
17
100
AcDbEntity
  8
0
100
AcDbLine
 10
12.59284895658493
 20
8.263
 30
0.0
 11
12.59284895658493
 21
8.443000000000001
 31
0.0
  0
LINE
  5
1E2
330
17
100
AcDbEntity
  8
0
100
AcDbLine
 10
12.59284895658493
 20
8.443000000000001
 30
0.0
 11
12.59284895658493
 21
9.147
 31
0.0
  0
LINE
  5
1E3
330
17
100
AcDbEntity
  8
0
100
AcDbLine
 10
12.59284895658493
 20
10.063
 30
0.0
 11
12.59284895658493
 21
10.767
 31
0.0
  0
LINE
  5
1E4
330
17
100
AcDbEntity
  8
0
100
AcDbLine
 10
12.59284895658493
 20
10.767
 30
0.0
 11
12.59284895658493
 21
10.947
 31
0.0
  0
LINE
  5
1E5
330
17
100
AcDbEntity
  8
0
100
AcDbLine
 10
12.59284895658493
 20
11.863
 30
0.0
 11
12.59284895658493
 21
12.043000000000001
 31
0.0
  0
LINE
  5
1E6
330
17
100
AcDbEntity
  8
0
100
AcDbLine
 10
12.59284895658493
 20
12.043000000000001
 30
0.0
 11
12.59284895658493
 21
12.747
 31
0.0
  0
LINE
  5
1E7
330
17
100
AcDbEntity
  8
0
100
AcDbLine
 10
12.59284895658493
 20
13.663
 30
0.0
 11
12.59284895658493
 21
13.816600000000001
 31
0.0
  0
LINE
  5
1E8
330
17
100
AcDbEntity
  8
0
100
AcDbLine
 10
13.09284895658493
 20
1.0629999999999997
 30
0.0
 11
13.09284895658493
 21
1.243000000000001
 31
0.0
  0
LINE
  5
1E9
330
17
100
AcDbEntity
  8
0
100
AcDbLine
 10
13.09284895658493
 20
1.0629999999999997
 30
0.0
 11
13.09284895658493
 21
1.243000000000001
 31
0.0
  0
LINE
  5
1EA
330
17
100
AcDbEntity
  8
0
100
AcDbLine
 10
13.09284895658493
 20
1.243000000000001
 30
0.0
 11
13.09284895658493
 21
1.9470000000000003
 31
0.0
  0
LINE
  5
1EB
330
17
100
AcDbEntity
  8
0
100
AcDbLine
 10
13.09284895658493
 20
2.863
 30
0.0
 11
13.09284895658493
 21
3.043000000000001
 31
0.0
  0
LINE
  5
1EC
330
17
100
AcDbEntity
  8
0
100
AcDbLine
 10
13.09284895658493
 20
3.043000000000001
 30
0.0
 11
13.09284895658493
 21
3.7470000000000003
 31
0.0
  0
LINE
  5
1ED
330
17
100
AcDbEntity
  8
0
100
AcDbLine
 10
13.09284895658493
 20
4.663
 30
0.0
 11
13.09284895658493
 21
5.366999999999999
 31
0.0
  0
LINE
  5
1EE
330
17
100
AcDbEntity
  8
0
100
AcDbLine
 10
13.09284895658493
 20
5.366999999999999
 30
0.0
 11
13.09284895658493
 21
5.547000000000001
 31
0.0
  0
LINE
  5
1EF
330
17
100
AcDbEntity
  8
0
100
AcDbLine
 10
13.09284895658493
 20
6.463
 30
0.0
 11
13.09284895658493
 21
7.166999999999999
 31
0.0
  0
LINE
  5
1F0
330
17
100
AcDbEntity
  8
0
100
AcDbLine
 10
13.09284895658493
 20
7.166999999999999
 30
0.0
 11
13.09284895658493
 21
7.347
 31
0.0
  0
LINE
  5
1F1
330
17
100
AcDbEntity
  8
0
100
AcDbLine
 10
13.09284895658493
 20
8.263
 30
0.0
 11
13.09284895658493
 21
8.443000000000001
 31
0.0
  0
LINE
  5
1F2
330
17
100
AcDbEntity
  8
0
100
AcDbLine
 10
13.09284895658493
 20
8.443000000000001
 30
0.0
 11
13.09284895658493
 21
9.147
 31
0.0
  0
LINE
  5
1F3
330
17
100
AcDbEntity
  8
0
100
AcDbLine
 10
13.09284895658493
 20
10.063
 30
0.0
 11
13.09284895658493
 21
10.767
 31
0.0
  0
LINE
  5
1F4
330
17
100
AcDbEntity
  8
0
100
AcDbLine
 10
13.09284895658493
 20
10.767
 30
0.0
 11
13.09284895658493
 21
10.947
 31
0.0
  0
LINE
  5
1F5
330
17
100
AcDbEntity
  8
0
100
AcDbLine
 10
13.09284895658493
 20
11.863
 30
0.0
 11
13.09284895658493
 21
12.043000000000001
 31
0.0
  0
LINE
  5
1F6
330
17
100
AcDbEntity
  8
0
100
AcDbLine
 10
13.09284895658493
 20
12.043000000000001
 30
0.0
 11
13.09284895658493
 21
12.747
 31
0.0
  0
LINE
  5
1F7
330
17
100
AcDbEntity
  8
0
100
AcDbLine
 10
13.09284895658493
 20
13.663
 30
0.0
 11
13.09284895658493
 21
13.81672
 31
0.0
  0
LINE
  5
1F8
330
17
100
AcDbEntity
  8
0
100
AcDbLine
 10
13.59284895658493
 20
1.1309999999999998
 30
0.0
 11
13.59284895658493
 21
1.311000000000001
 31
0.0
  0
LINE
  5
1F9
330
17
100
AcDbEntity
  8
0
100
AcDbLine
 10
13.59284895658493
 20
1.1309999999999998
 30
0.0
 11
13.59284895658493
 21
1.311000000000001
 31
0.0
  0
LINE
  5
1FA
330
17
100
AcDbEntity
  8
0
100
AcDbLine
 10
13.59284895658493
 20
1.311000000000001
 30
0.0
 11
13.59284895658493
 21
2.0150000000000006
 31
0.0
  0
LINE
  5
1FB
330
17
100
AcDbEntity
  8
0
100
AcDbLine
 10
13.59284895658493
 20
2.9309999999999996
 30
0.0
 11
13.59284895658493
 21
3.634999999999999
 31
0.0
  0
LINE
  5
1FC
330
17
100
AcDbEntity
  8
0
100
AcDbLine
 10
13.59284895658493
 20
3.634999999999999
 30
0.0
 11
13.59284895658493
 21
3.8150000000000004
 31
0.0
  0
LINE
  5
1FD
330
17
100
AcDbEntity
  8
0
100
AcDbLine
 10
13.59284895658493
 20
4.731
 30
0.0
 11
13.59284895658493
 21
4.9110000000000005
 31
0.0
  0
LINE
  5
1FE
330
17
100
AcDbEntity
  8
0
100
AcDbLine
 10
13.59284895658493
 20
4.9110000000000005
 30
0.0
 11
13.59284895658493
 21
5.615
 31
0.0
  0
LINE
  5
1FF
330
17
100
AcDbEntity
  8
0
100
AcDbLine
 10
13.59284895658493
 20
6.531
 30
0.0
 11
13.59284895658493
 21
6.711000000000001
 31
0.0
  0
LINE
  5
200
330
17
100
AcDbEntity
  8
0
100
AcDbLine
 10
13.59284895658493
 20
6.711000000000001
 30
0.0
 11
13.59284895658493
 21
7.415
 31
0.0
  0
LINE
  5
201
330
17
100
AcDbEntity
  8
0
100
AcDbLine
 10
13.59284895658493
 20
8.331
 30
0.0
 11
13.59284895658493
 21
8.511000000000001
 31
0.0
  0
LINE
  5
202
330
17
100
AcDbEntity
  8
0
100
AcDbLine
 10
13.59284895658493
 20
8.511000000000001
 30
0.0
 11
13.59284895658493
 21
9.215
 31
0.0
  0
LINE
  5
203
330
17
100
AcDbEntity
  8
0
100
AcDbLine
 10
13.59284895658493
 20
10.131
 30
0.0
 11
13.59284895658493
 21
10.311000000000002
 31
0.0
  0
LINE
  5
204
330
17
100
AcDbEntity
  8
0
100
AcDbLine
 10
13.59284895658493
 20
10.311000000000002
 30
0.0
 11
13.59284895658493
 21
11.015
 31
0.0
  0
LINE
  5
205
330
17
100
AcDbEntity
  8
0
100
AcDbLine
 10
13.59284895658493
 20
11.931000000000001
 30
0.0
 11
13.59284895658493
 21
12.634999999999998
 31
0.0
  0
LINE
  5
206
330
17
100
AcDbEntity
  8
0
100
AcDbLine
 10
13.59284895658493
 20
12.634999999999998
 30
0.0
 11
13.59284895658493
 21
12.815
 31
0.0
  0
LINE
  5
207
330
17
100
AcDbEntity
  8
0
100
AcDbLine
 10
13.59284895658493
 20
13.731
 30
0.0
 11
13.59284895658493
 21
13.876560000000001
 31
0.0
  0
LINE
  5
208
330
17
100
AcDbEntity
  8
0
100
AcDbLine
 10
14.09284895658493
 20
1.2619999999999998
 30
0.0
 11
14.09284895658493
 21
1.9659999999999989
 31
0.0
  0
LINE
  5
209
330
17
100
AcDbEntity
  8
0
100
AcDbLine
 10
14.09284895658493
 20
1.2619999999999998
 30
0.0
 11
14.09284895658493
 21
1.9659999999999989
 31
0.0
  0
LINE
  5
20A
330
17
100
AcDbEntity
  8
0
100
AcDbLine
 10
14.09284895658493
 20
1.9659999999999989
 30
0.0
 11
14.09284895658493
 21
2.1460000000000004
 31
0.0
  0
LINE
  5
20B
330
17
100
AcDbEntity
  8
0
100
AcDbLine
 10
14.09284895658493
 20
3.062
 30
0.0
 11
14.09284895658493
 21
3.765999999999999
 31
0.0
  0
LINE
  5
20C
330
17
100
AcDbEntity
  8
0
100
AcDbLine
 10
14.09284895658493
 20
3.765999999999999
 30
0.0
 11
14.09284895658493
 21
3.946
 31
0.0
  0
LINE
  5
20D
330
17
100
AcDbEntity
  8
0
100
AcDbLine
 10
14.09284895658493
 20
4.862
 30
0.0
 11
14.09284895658493
 21
5.565999999999999
 31
0.0
  0
LINE
  5
20E
330
17
100
AcDbEntity
  8
0
100
AcDbLine
 10
14.09284895658493
 20
5.565999999999999
 30
0.0
 11
14.09284895658493
 21
5.746
 31
0.0
  0
LINE
  5
20F
330
17
100
AcDbEntity
  8
0
100
AcDbLine
 10
14.09284895658493
 20
6.662
 30
0.0
 11
14.09284895658493
 21
7.366
 31
0.0
  0
LINE
  5
210
330
17
100
AcDbEntity
  8
0
100
AcDbLine
 10
14.09284895658493
 20
7.366
 30
0.0
 11
14.09284895658493
 21
7.546
 31
0.0
  0
LINE
  5
211
330
17
100
AcDbEntity
  8
0
100
AcDbLine
 10
14.09284895658493
 20
8.462
 30
0.0
 11
14.09284895658493
 21
8.642000000000001
 31
0.0
  0
LINE
  5
212
330
17
100
AcDbEntity
  8
0
100
AcDbLine
 10
14.09284895658493
 20
8.642000000000001
 30
0.0
 11
14.09284895658493
 21
9.346
 31
0.0
  0
LINE
  5
213
330
17
100
AcDbEntity
  8
0
100
AcDbLine
 10
14.09284895658493
 20
10.262
 30
0.0
 11
14.09284895658493
 21
10.442000000000002
 31
0.0
  0
LINE
  5
214
330
17
100
AcDbEntity
  8
0
100
AcDbLine
 10
14.09284895658493
 20
10.442000000000002
 30
0.0
 11
14.09284895658493
 21
11.146
 31
0.0
  0
LINE
  5
215
330
17
100
AcDbEntity
  8
0
100
AcDbLine
 10
14.09284895658493
 20
12.062000000000001
 30
0.0
 11
14.09284895658493
 21
12.242
 31
0.0
  0
LINE
  5
216
330
17
100
AcDbEntity
  8
0
100
AcDbLine
 10
14.09284895658493
 20
12.242
 30
0.0
 11
14.09284895658493
 21
12.946
 31
0.0
  0
LINE
  5
217
330
17
100
AcDbEntity
  8
0
100
AcDbLine
 10
14.09284895658493
 20
13.862
 30
0.0
 11
14.09284895658493
 21
13.99196
 31
0.0
  0
LINE
  5
218
330
17
100
AcDbEntity
  8
0
100
AcDbLine
 10
14.59284895658493
 20
1.8339999999999999
 30
0.0
 11
14.59284895658493
 21
2.014120000000001
 31
0.0
  0
LINE
  5
219
330
17
100
AcDbEntity
  8
0
100
AcDbLine
 10
14.59284895658493
 20
1.8339999999999999
 30
0.0
 11
14.59284895658493
 21
2.014120000000001
 31
0.0
  0
LINE
  5
21A
330
17
100
AcDbEntity
  8
0
100
AcDbLine
 10
14.59284895658493
 20
2.014120000000001
 30
0.0
 11
14.59284895658493
 21
2.7190000000000003
 31
0.0
  0
LINE
  5
21B
330
17
100
AcDbEntity
  8
0
100
AcDbLine
 10
14.59284895658493
 20
3.634
 30
0.0
 11
14.59284895658493
 21
3.814120000000001
 31
0.0
  0
LINE
  5
21C
330
17
100
AcDbEntity
  8
0
100
AcDbLine
 10
14.59284895658493
 20
3.814120000000001
 30
0.0
 11
14.59284895658493
 21
4.519
 31
0.0
  0
LINE
  5
21D
330
17
100
AcDbEntity
  8
0
100
AcDbLine
 10
14.59284895658493
 20
5.434
 30
0.0
 11
14.59284895658493
 21
5.614120000000001
 31
0.0
  0
LINE
  5
21E
330
17
100
AcDbEntity
  8
0
100
AcDbLine
 10
14.59284895658493
 20
5.614120000000001
 30
0.0
 11
14.59284895658493
 21
6.319
 31
0.0
  0
LINE
  5
21F
330
17
100
AcDbEntity
  8
0
100
AcDbLine
 10
14.59284895658493
 20
7.234
 30
0.0
 11
14.59284895658493
 21
7.4141200000000005
 31
0.0
  0
LINE
  5
220
330
17
100
AcDbEntity
  8
0
100
AcDbLine
 10
14.59284895658493
 20
7.4141200000000005
 30
0.0
 11
14.59284895658493
 21
8.119
 31
0.0
  0
LINE
  5
221
330
17
100
AcDbEntity
  8
0
100
AcDbLine
 10
14.59284895658493
 20
9.034
 30
0.0
 11
14.59284895658493
 21
9.214120000000001
 31
0.0
  0
LINE
  5
222
330
17
100
AcDbEntity
  8
0
100
AcDbLine
 10
14.59284895658493
 20
9.214120000000001
 30
0.0
 11
14.59284895658493
 21
9.919
 31
0.0
  0
LINE
  5
223
330
17
100
AcDbEntity
  8
0
100
AcDbLine
 10
14.59284895658493
 20
10.834
 30
0.0
 11
14.59284895658493
 21
11.538879999999999
 31
0.0
  0
LINE
  5
224
330
17
100
AcDbEntity
  8
0
100
AcDbLine
 10
14.59284895658493
 20
11.538879999999999
 30
0.0
 11
14.59284895658493
 21
11.719
 31
0.0
  0
LINE
  5
225
330
17
100
AcDbEntity
  8
0
100
AcDbLine
 10
14.59284895658493
 20
12.634
 30
0.0
 11
14.59284895658493
 21
12.81412
 31
0.0
  0
LINE
  5
226
330
17
100
AcDbEntity
  8
0
100
AcDbLine
 10
14.59284895658493
 20
12.81412
 30
0.0
 11
14.59284895658493
 21
13.519
 31
0.0
  0
LINE
  5
227
330
17
100
AcDbEntity
  8
0
100
AcDbLine
 10
14.59284895658493
 20
14.434000000000001
 30
0.0
 11
14.59284895658493
 21
14.49544
 31
0.0
  0
LINE
  5
228
330
17
100
AcDbEntity
  8
0
100
AcDbLine
 10
14.59284895658493
 20
14.49544
 30
0.0
 11
14.59284895658493
 21
14.49632
 31
0.0
  0
LINE
  5
229
330
17
100
AcDbEntity
  8
0
100
AcDbLine
 10
1.234
 20
0.5922380685806274
 30
0.0
 11
1.2456516516516518
 21
0.5922380685806274
 31
0.0
  0
LINE
  5
22A
330
17
100
AcDbEntity
  8
0
100
AcDbLine
 10
1.234
 20
0.5922380685806274
 30
0.0
 11
1.2456516516516518
 21
0.5922380685806274
 31
0.0
  0
LINE
  5
22B
330
17
100
AcDbEntity
  8
0
100
AcDbLine
 10
1.6389579579579576
 20
0.5922380685806274
 30
0.0
 11
2.3428618618618606
 21
0.5922380685806274
 31
0.0
  0
LINE
  5
22C
330
17
100
AcDbEntity
  8
0
100
AcDbLine
 10
2.3428618618618606
 20
0.5922380685806274
 30
0.0
 11
2.523
 21
0.5922380685806274
 31
0.0
  0
LINE
  5
22D
330
17
100
AcDbEntity
  8
0
100
AcDbLine
 10
3.4389999999999996
 20
0.5922380685806274
 30
0.0
 11
4.142999999999999
 21
0.5922380685806274
 31
0.0
  0
LINE
  5
22E
330
17
100
AcDbEntity
  8
0
100
AcDbLine
 10
4.142999999999999
 20
0.5922380685806274
 30
0.0
 11
4.323
 21
0.5922380685806274
 31
0.0
  0
LINE
  5
22F
330
17
100
AcDbEntity
  8
0
100
AcDbLine
 10
5.239
 20
0.5922380685806274
 30
0.0
 11
5.943
 21
0.5922380685806274
 31
0.0
  0
LINE
  5
230
330
17
100
AcDbEntity
  8
0
100
AcDbLine
 10
5.943
 20
0.5922380685806274
 30
0.0
 11
6.123
 21
0.5922380685806274
 31
0.0
  0
LINE
  5
231
330
17
100
AcDbEntity
  8
0
100
AcDbLine
 10
7.039
 20
0.5922380685806274
 30
0.0
 11
7.219000000000001
 21
0.5922380685806274
 31
0.0
  0
LINE
  5
232
330
17
100
AcDbEntity
  8
0
100
AcDbLine
 10
7.219000000000001
 20
0.5922380685806274
 30
0.0
 11
7.923
 21
0.5922380685806274
 31
0.0
  0
LINE
  5
233
330
17
100
AcDbEntity
  8
0
100
AcDbLine
 10
8.839
 20
0.5922380685806274
 30
0.0
 11
9.543
 21
0.5922380685806274
 31
0.0
  0
LINE
  5
234
330
17
100
AcDbEntity
  8
0
100
AcDbLine
 10
9.543
 20
0.5922380685806274
 30
0.0
 11
9.723
 21
0.5922380685806274
 31
0.0
  0
LINE
  5
235
330
17
100
AcDbEntity
  8
0
100
AcDbLine
 10
10.639000000000001
 20
0.5922380685806274
 30
0.0
 11
10.819000000000003
 21
0.5922380685806274
 31
0.0
  0
LINE
  5
236
330
17
100
AcDbEntity
  8
0
100
AcDbLine
 10
10.819000000000003
 20
0.5922380685806274
 30
0.0
 11
11.523
 21
0.5922380685806274
 31
0.0
  0
LINE
  5
237
330
17
100
AcDbEntity
  8
0
100
AcDbLine
 10
12.439
 20
0.5922380685806274
 30
0.0
 11
13.142999999999999
 21
0.5922380685806274
 31
0.0
  0
LINE
  5
238
330
17
100
AcDbEntity
  8
0
100
AcDbLine
 10
13.142999999999999
 20
0.5922380685806274
 30
0.0
 11
13.323
 21
0.5922380685806274
 31
0.0
  0
LINE
  5
239
330
17
100
AcDbEntity
  8
0
100
AcDbLine
 10
1.2106799999999993
 20
1.0922380685806274
 30
0.0
 11
1.3290000000000002
 21
1.0922380685806274
 31
0.0
  0
LINE
  5
23A
330
17
100
AcDbEntity
  8
0
100
AcDbLine
 10
1.2106799999999993
 20
1.0922380685806274
 30
0.0
 11
1.3290000000000002
 21
1.0922380685806274
 31
0.0
  0
LINE
  5
23B
330
17
100
AcDbEntity
  8
0
100
AcDbLine
 10
2.2449999999999997
 20
1.0922380685806274
 30
0.0
 11
2.948999999999999
 21
1.0922380685806274
 31
0.0
  0
LINE
  5
23C
330
17
100
AcDbEntity
  8
0
100
AcDbLine
 10
2.948999999999999
 20
1.0922380685806274
 30
0.0
 11
3.1290000000000004
 21
1.0922380685806274
 31
0.0
  0
LINE
  5
23D
330
17
100
AcDbEntity
  8
0
100
AcDbLine
 10
4.045
 20
1.0922380685806274
 30
0.0
 11
4.749
 21
1.0922380685806274
 31
0.0
  0
LINE
  5
23E
330
17
100
AcDbEntity
  8
0
100
AcDbLine
 10
4.749
 20
1.0922380685806274
 30
0.0
 11
4.929
 21
1.0922380685806274
 31
0.0
  0
LINE
  5
23F
330
17
100
AcDbEntity
  8
0
100
AcDbLine
 10
5.845
 20
1.0922380685806274
 30
0.0
 11
6.025000000000001
 21
1.0922380685806274
 31
0.0
  0
LINE
  5
240
330
17
100
AcDbEntity
  8
0
100
AcDbLine
 10
6.025000000000001
 20
1.0922380685806274
 30
0.0
 11
6.729
 21
1.0922380685806274
 31
0.0
  0
LINE
  5
241
330
17
100
AcDbEntity
  8
0
100
AcDbLine
 10
7.645
 20
1.0922380685806274
 30
0.0
 11
7.825000000000001
 21
1.0922380685806274
 31
0.0
  0
LINE
  5
242
330
17
100
AcDbEntity
  8
0
100
AcDbLine
 10
7.825000000000001
 20
1.0922380685806274
 30
0.0
 11
8.529
 21
1.0922380685806274
 31
0.0
  0
LINE
  5
243
330
17
100
AcDbEntity
  8
0
100
AcDbLine
 10
9.445
 20
1.0922380685806274
 30
0.0
 11
10.149
 21
1.0922380685806274
 31
0.0
  0
LINE
  5
244
330
17
100
AcDbEntity
  8
0
100
AcDbLine
 10
10.149
 20
1.0922380685806274
 30
0.0
 11
10.329
 21
1.0922380685806274
 31
0.0
  0
LINE
  5
245
330
17
100
AcDbEntity
  8
0
100
AcDbLine
 10
11.245000000000001
 20
1.0922380685806274
 30
0.0
 11
11.425
 21
1.0922380685806274
 31
0.0
  0
LINE
  5
246
330
17
100
AcDbEntity
  8
0
100
AcDbLine
 10
11.425
 20
1.0922380685806274
 30
0.0
 11
12.129
 21
1.0922380685806274
 31
0.0
  0
LINE
  5
247
330
17
100
AcDbEntity
  8
0
100
AcDbLine
 10
13.045
 20
1.0922380685806274
 30
0.0
 11
13.748999999999999
 21
1.0922380685806274
 31
0.0
  0
LINE
  5
248
330
17
100
AcDbEntity
  8
0
100
AcDbLine
 10
13.748999999999999
 20
1.0922380685806274
 30
0.0
 11
13.929
 21
1.0922380685806274
 31
0.0
  0
LINE
  5
249
330
17
100
AcDbEntity
  8
0
100
AcDbLine
 10
1.306599999999999
 20
1.5922380685806274
 30
0.0
 11
1.4560000000000002
 21
1.5922380685806274
 31
0.0
  0
LINE
  5
24A
330
17
100
AcDbEntity
  8
0
100
AcDbLine
 10
1.306599999999999
 20
1.5922380685806274
 30
0.0
 11
1.4560000000000002
 21
1.5922380685806274
 31
0.0
  0
LINE
  5
24B
330
17
100
AcDbEntity
  8
0
100
AcDbLine
 10
2.372
 20
1.5922380685806274
 30
0.0
 11
3.0759999999999987
 21
1.5922380685806274
 31
0.0
  0
LINE
  5
24C
330
17
100
AcDbEntity
  8
0
100
AcDbLine
 10
3.0759999999999987
 20
1.5922380685806274
 30
0.0
 11
3.2560000000000002
 21
1.5922380685806274
 31
0.0
  0
LINE
  5
24D
330
17
100
AcDbEntity
  8
0
100
AcDbLine
 10
4.172
 20
1.5922380685806274
 30
0.0
 11
4.352000000000001
 21
1.5922380685806274
 31
0.0
  0
LINE
  5
24E
330
17
100
AcDbEntity
  8
0
100
AcDbLine
 10
4.352000000000001
 20
1.5922380685806274
 30
0.0
 11
5.056
 21
1.5922380685806274
 31
0.0
  0
LINE
  5
24F
330
17
100
AcDbEntity
  8
0
100
AcDbLine
 10
5.9719999999999995
 20
1.5922380685806274
 30
0.0
 11
6.675999999999999
 21
1.5922380685806274
 31
0.0
  0
LINE
  5
250
330
17
100
AcDbEntity
  8
0
100
AcDbLine
 10
6.675999999999999
 20
1.5922380685806274
 30
0.0
 11
6.856000000000001
 21
1.5922380685806274
 31
0.0
  0
LINE
  5
251
330
17
100
AcDbEntity
  8
0
100
AcDbLine
 10
7.772
 20
1.5922380685806274
 30
0.0
 11
7.952000000000001
 21
1.5922380685806274
 31
0.0
  0
LINE
  5
252
330
17
100
AcDbEntity
  8
0
100
AcDbLine
 10
7.952000000000001
 20
1.5922380685806274
 30
0.0
 11
8.656
 21
1.5922380685806274
 31
0.0
  0
LINE
  5
253
330
17
100
AcDbEntity
  8
0
100
AcDbLine
 10
9.572000000000001
 20
1.5922380685806274
 30
0.0
 11
9.752000000000002
 21
1.5922380685806274
 31
0.0
  0
LINE
  5
254
330
17
100
AcDbEntity
  8
0
100
AcDbLine
 10
9.752000000000002
 20
1.5922380685806274
 30
0.0
 11
10.456
 21
1.5922380685806274
 31
0.0
  0
LINE
  5
255
330
17
100
AcDbEntity
  8
0
100
AcDbLine
 10
11.372
 20
1.5922380685806274
 30
0.0
 11
12.075999999999999
 21
1.5922380685806274
 31
0.0
  0
LINE
  5
256
330
17
100
AcDbEntity
  8
0
100
AcDbLine
 10
12.075999999999999
 20
1.5922380685806274
 30
0.0
 11
12.256
 21
1.5922380685806274
 31
0.0
  0
LINE
  5
257
330
17
100
AcDbEntity
  8
0
100
AcDbLine
 10
13.172
 20
1.5922380685806274
 30
0.0
 11
13.876
 21
1.5922380685806274
 31
0.0
  0
LINE
  5
258
330
17
100
AcDbEntity
  8
0
100
AcDbLine
 10
13.876
 20
1.5922380685806274
 30
0.0
 11
14.056000000000001
 21
1.5922380685806274
 31
0.0
  0
LINE
  5
259
330
17
100
AcDbEntity
  8
0
100
AcDbLine
 10
1.3553599999999992
 20
2.0922380685806274
 30
0.0
 11
1.5200000000000002
 21
2.0922380685806274
 31
0.0
  0
LINE
  5
25A
330
17
100
AcDbEntity
  8
0
100
AcDbLine
 10
1.3553599999999992
 20
2.0922380685806274
 30
0.0
 11
1.5200000000000002
 21
2.0922380685806274
 31
0.0
  0
LINE
  5
25B
330
17
100
AcDbEntity
  8
0
100
AcDbLine
 10
2.436
 20
2.0922380685806274
 30
0.0
 11
3.139999999999999
 21
2.0922380685806274
 31
0.0
  0
LINE
  5
25C
330
17
100
AcDbEntity
  8
0
100
AcDbLine
 10
3.139999999999999
 20
2.0922380685806274
 30
0.0
 11
3.3200000000000003
 21
2.0922380685806274
 31
0.0
  0
LINE
  5
25D
330
17
100
AcDbEntity
  8
0
100
AcDbLine
 10
4.236
 20
2.0922380685806274
 30
0.0
 11
4.416000000000001
 21
2.0922380685806274
 31
0.0
  0
LINE
  5
25E
330
17
100
AcDbEntity
  8
0
100
AcDbLine
 10
4.416000000000001
 20
2.0922380685806274
 30
0.0
 11
5.12
 21
2.0922380685806274
 31
0.0
  0
LINE
  5
25F
330
17
100
AcDbEntity
  8
0
100
AcDbLine
 10
6.036
 20
2.0922380685806274
 30
0.0
 11
6.216000000000001
 21
2.0922380685806274
 31
0.0
  0
LINE
  5
260
330
17
100
AcDbEntity
  8
0
100
AcDbLine
 10
6.216000000000001
 20
2.0922380685806274
 30
0.0
 11
6.92
 21
2.0922380685806274
 31
0.0
  0
LINE
  5
261
330
17
100
AcDbEntity
  8
0
100
AcDbLine
 10
7.836
 20
2.0922380685806274
 30
0.0
 11
8.016000000000002
 21
2.0922380685806274
 31
0.0
  0
LINE
  5
262
330
17
100
AcDbEntity
  8
0
100
AcDbLine
 10
8.016000000000002
 20
2.0922380685806274
 30
0.0
 11
8.72
 21
2.0922380685806274
 31
0.0
  0
LINE
  5
263
330
17
100
AcDbEntity
  8
0
100
AcDbLine
 10
9.636000000000001
 20
2.0922380685806274
 30
0.0
 11
9.816000000000003
 21
2.0922380685806274
 31
0.0
  0
LINE
  5
264
330
17
100
AcDbEntity
  8
0
100
AcDbLine
 10
9.816000000000003
 20
2.0922380685806274
 30
0.0
 11
10.52
 21
2.0922380685806274
 31
0.0
  0
LINE
  5
265
330
17
100
AcDbEntity
  8
0
100
AcDbLine
 10
11.436
 20
2.0922380685806274
 30
0.0
 11
12.139999999999999
 21
2.0922380685806274
 31
0.0
  0
LINE
  5
266
330
17
100
AcDbEntity
  8
0
100
AcDbLine
 10
12.139999999999999
 20
2.0922380685806274
 30
0.0
 11
12.32
 21
2.0922380685806274
 31
0.0
  0
LINE
  5
267
330
17
100
AcDbEntity
  8
0
100
AcDbLine
 10
13.236
 20
2.0922380685806274
 30
0.0
 11
13.94
 21
2.0922380685806274
 31
0.0
  0
LINE
  5
268
330
17
100
AcDbEntity
  8
0
100
AcDbLine
 10
13.94
 20
2.0922380685806274
 30
0.0
 11
14.120000000000001
 21
2.0922380685806274
 31
0.0
  0
LINE
  5
269
330
17
100
AcDbEntity
  8
0
100
AcDbLine
 10
1.3643199999999993
 20
2.5922380685806274
 30
0.0
 11
1.5310000000000004
 21
2.5922380685806274
 31
0.0
  0
LINE
  5
26A
330
17
100
AcDbEntity
  8
0
100
AcDbLine
 10
1.3643199999999993
 20
2.5922380685806274
 30
0.0
 11
1.5310000000000004
 21
2.5922380685806274
 31
0.0
  0
LINE
  5
26B
330
17
100
AcDbEntity
  8
0
100
AcDbLine
 10
2.4469999999999996
 20
2.5922380685806274
 30
0.0
 11
3.150999999999999
 21
2.5922380685806274
 31
0.0
  0
LINE
  5
26C
330
17
100
AcDbEntity
  8
0
100
AcDbLine
 10
3.150999999999999
 20
2.5922380685806274
 30
0.0
 11
3.3310000000000004
 21
2.5922380685806274
 31
0.0
  0
LINE
  5
26D
330
17
100
AcDbEntity
  8
0
100
AcDbLine
 10
4.247
 20
2.5922380685806274
 30
0.0
 11
4.951
 21
2.5922380685806274
 31
0.0
  0
LINE
  5
26E
330
17
100
AcDbEntity
  8
0
100
AcDbLine
 10
4.951
 20
2.5922380685806274
 30
0.0
 11
5.131
 21
2.5922380685806274
 31
0.0
  0
LINE
  5
26F
330
17
100
AcDbEntity
  8
0
100
AcDbLine
 10
6.047
 20
2.5922380685806274
 30
0.0
 11
6.227000000000001
 21
2.5922380685806274
 31
0.0
  0
LINE
  5
270
330
17
100
AcDbEntity
  8
0
100
AcDbLine
 10
6.227000000000001
 20
2.5922380685806274
 30
0.0
 11
6.931
 21
2.5922380685806274
 31
0.0
  0
LINE
  5
271
330
17
100
AcDbEntity
  8
0
100
AcDbLine
 10
7.847
 20
2.5922380685806274
 30
0.0
 11
8.550999999999998
 21
2.5922380685806274
 31
0.0
  0
LINE
  5
272
330
17
100
AcDbEntity
  8
0
100
AcDbLine
 10
8.550999999999998
 20
2.5922380685806274
 30
0.0
 11
8.731
 21
2.5922380685806274
 31
0.0
  0
LINE
  5
273
330
17
100
AcDbEntity
  8
0
100
AcDbLine
 10
9.647
 20
2.5922380685806274
 30
0.0
 11
10.350999999999999
 21
2.5922380685806274
 31
0.0
  0
LINE
  5
274
330
17
100
AcDbEntity
  8
0
100
AcDbLine
 10
10.350999999999999
 20
2.5922380685806274
 30
0.0
 11
10.531
 21
2.5922380685806274
 31
0.0
  0
LINE
  5
275
330
17
100
AcDbEntity
  8
0
100
AcDbLine
 10
11.447000000000001
 20
2.5922380685806274
 30
0.0
 11
12.150999999999998
 21
2.5922380685806274
 31
0.0
  0
LINE
  5
276
330
17
100
AcDbEntity
  8
0
100
AcDbLine
 10
12.150999999999998
 20
2.5922380685806274
 30
0.0
 11
12.331
 21
2.5922380685806274
 31
0.0
  0
LINE
  5
277
330
17
100
AcDbEntity
  8
0
100
AcDbLine
 10
13.247
 20
2.5922380685806274
 30
0.0
 11
13.950999999999999
 21
2.5922380685806274
 31
0.0
  0
LINE
  5
278
330
17
100
AcDbEntity
  8
0
100
AcDbLine
 10
13.950999999999999
 20
2.5922380685806274
 30
0.0
 11
14.131
 21
2.5922380685806274
 31
0.0
  0
LINE
  5
279
330
17
100
AcDbEntity
  8
0
100
AcDbLine
 10
1.3509199999999992
 20
3.0922380685806274
 30
0.0
 11
1.5140000000000002
 21
3.0922380685806274
 31
0.0
  0
LINE
  5
27A
330
17
100
AcDbEntity
  8
0
100
AcDbLine
 10
1.3509199999999992
 20
3.0922380685806274
 30
0.0
 11
1.5140000000000002
 21
3.0922380685806274
 31
0.0
  0
LINE
  5
27B
330
17
100
AcDbEntity
  8
0
100
AcDbLine
 10
2.4299999999999997
 20
3.0922380685806274
 30
0.0
 11
2.6100000000000008
 21
3.0922380685806274
 31
0.0
  0
LINE
  5
27C
330
17
100
AcDbEntity
  8
0
100
AcDbLine
 10
2.6100000000000008
 20
3.0922380685806274
 30
0.0
 11
3.3140000000000005
 21
3.0922380685806274
 31
0.0
  0
LINE
  5
27D
330
17
100
AcDbEntity
  8
0
100
AcDbLine
 10
4.2299999999999995
 20
3.0922380685806274
 30
0.0
 11
4.410000000000001
 21
3.0922380685806274
 31
0.0
  0
LINE
  5
27E
330
17
100
AcDbEntity
  8
0
100
AcDbLine
 10
4.410000000000001
 20
3.0922380685806274
 30
0.0
 11
5.114
 21
3.0922380685806274
 31
0.0
  0
LINE
  5
27F
330
17
100
AcDbEntity
  8
0
100
AcDbLine
 10
6.03
 20
3.0922380685806274
 30
0.0
 11
6.733999999999999
 21
3.0922380685806274
 31
0.0
  0
LINE
  5
280
330
17
100
AcDbEntity
  8
0
100
AcDbLine
 10
6.733999999999999
 20
3.0922380685806274
 30
0.0
 11
6.914000000000001
 21
3.0922380685806274
 31
0.0
  0
LINE
  5
281
330
17
100
AcDbEntity
  8
0
100
AcDbLine
 10
7.83
 20
3.0922380685806274
 30
0.0
 11
8.010000000000002
 21
3.0922380685806274
 31
0.0
  0
LINE
  5
282
330
17
100
AcDbEntity
  8
0
100
AcDbLine
 10
8.010000000000002
 20
3.0922380685806274
 30
0.0
 11
8.714
 21
3.0922380685806274
 31
0.0
  0
LINE
  5
283
330
17
100
AcDbEntity
  8
0
100
AcDbLine
 10
9.63
 20
3.0922380685806274
 30
0.0
 11
10.334
 21
3.0922380685806274
 31
0.0
  0
LINE
  5
284
330
17
100
AcDbEntity
  8
0
100
AcDbLine
 10
10.334
 20
3.0922380685806274
 30
0.0
 11
10.514
 21
3.0922380685806274
 31
0.0
  0
LINE
  5
285
330
17
100
AcDbEntity
  8
0
100
AcDbLine
 10
11.43
 20
3.0922380685806274
 30
0.0
 11
12.133999999999999
 21
3.0922380685806274
 31
0.0
  0
LINE
  5
286
330
17
100
AcDbEntity
  8
0
100
AcDbLine
 10
12.133999999999999
 20
3.0922380685806274
 30
0.0
 11
12.314
 21
3.0922380685806274
 31
0.0
  0
LINE
  5
287
330
17
100
AcDbEntity
  8
0
100
AcDbLine
 10
13.23
 20
3.0922380685806274
 30
0.0
 11
13.934
 21
3.0922380685806274
 31
0.0
  0
LINE
  5
288
330
17
100
AcDbEntity
  8
0
100
AcDbLine
 10
13.934
 20
3.0922380685806274
 30
0.0
 11
14.114
 21
3.0922380685806274
 31
0.0
  0
LINE
  5
289
330
17
100
AcDbEntity
  8
0
100
AcDbLine
 10
1.3366399999999992
 20
3.5922380685806274
 30
0.0
 11
1.4960000000000002
 21
3.5922380685806274
 31
0.0
  0
LINE
  5
28A
330
17
100
AcDbEntity
  8
0
100
AcDbLine
 10
1.3366399999999992
 20
3.5922380685806274
 30
0.0
 11
1.4960000000000002
 21
3.5922380685806274
 31
0.0
  0
LINE
  5
28B
330
17
100
AcDbEntity
  8
0
100
AcDbLine
 10
2.412
 20
3.5922380685806274
 30
0.0
 11
3.1159999999999988
 21
3.5922380685806274
 31
0.0
  0
LINE
  5
28C
330
17
100
AcDbEntity
  8
0
100
AcDbLine
 10
3.1159999999999988
 20
3.5922380685806274
 30
0.0
 11
3.2960000000000003
 21
3.5922380685806274
 31
0.0
  0
LINE
  5
28D
330
17
100
AcDbEntity
  8
0
100
AcDbLine
 10
4.212
 20
3.5922380685806274
 30
0.0
 11
4.392000000000001
 21
3.5922380685806274
 31
0.0
  0
LINE
  5
28E
330
17
100
AcDbEntity
  8
0
100
AcDbLine
 10
4.392000000000001
 20
3.5922380685806274
 30
0.0
 11
5.096
 21
3.5922380685806274
 31
0.0
  0
LINE
  5
28F
330
17
100
AcDbEntity
  8
0
100
AcDbLine
 10
6.012
 20
3.5922380685806274
 30
0.0
 11
6.192000000000001
 21
3.5922380685806274
 31
0.0
  0
LINE
  5
290
330
17
100
AcDbEntity
  8
0
100
AcDbLine
 10
6.192000000000001
 20
3.5922380685806274
 30
0.0
 11
6.896
 21
3.5922380685806274
 31
0.0
  0
LINE
  5
291
330
17
100
AcDbEntity
  8
0
100
AcDbLine
 10
7.812
 20
3.5922380685806274
 30
0.0
 11
7.992000000000001
 21
3.5922380685806274
 31
0.0
  0
LINE
  5
292
330
17
100
AcDbEntity
  8
0
100
AcDbLine
 10
7.992000000000001
 20
3.5922380685806274
 30
0.0
 11
8.696
 21
3.5922380685806274
 31
0.0
  0
LINE
  5
293
330
17
100
AcDbEntity
  8
0
100
AcDbLine
 10
9.612
 20
3.5922380685806274
 30
0.0
 11
10.315999999999999
 21
3.5922380685806274
 31
0.0
  0
LINE
  5
294
330
17
100
AcDbEntity
  8
0
100
AcDbLine
 10
10.315999999999999
 20
3.5922380685806274
 30
0.0
 11
10.496
 21
3.5922380685806274
 31
0.0
  0
LINE
  5
295
330
17
100
AcDbEntity
  8
0
100
AcDbLine
 10
11.412
 20
3.5922380685806274
 30
0.0
 11
12.116
 21
3.5922380685806274
 31
0.0
  0
LINE
  5
296
330
17
100
AcDbEntity
  8
0
100
AcDbLine
 10
12.116
 20
3.5922380685806274
 30
0.0
 11
12.296
 21
3.5922380685806274
 31
0.0
  0
LINE
  5
297
330
17
100
AcDbEntity
  8
0
100
AcDbLine
 10
13.212
 20
3.5922380685806274
 30
0.0
 11
13.915999999999999
 21
3.5922380685806274
 31
0.0
  0
LINE
  5
298
330
17
100
AcDbEntity
  8
0
100
AcDbLine
 10
13.915999999999999
 20
3.5922380685806274
 30
0.0
 11
14.096
 21
3.5922380685806274
 31
0.0
  0
LINE
  5
299
330
17
100
AcDbEntity
  8
0
100
AcDbLine
 10
1.3222399999999992
 20
4.092238068580627
 30
0.0
 11
1.47812
 21
4.092238068580627
 31
0.0
  0
LINE
  5
29A
330
17
100
AcDbEntity
  8
0
100
AcDbLine
 10
1.3222399999999992
 20
4.092238068580627
 30
0.0
 11
1.47812
 21
4.092238068580627
 31
0.0
  0
LINE
  5
29B
330
17
100
AcDbEntity
  8
0
100
AcDbLine
 10
1.47812
 20
4.092238068580627
 30
0.0
 11
1.4790000000000003
 21
4.092238068580627
 31
0.0
  0
LINE
  5
29C
330
17
100
AcDbEntity
  8
0
100
AcDbLine
 10
2.3939999999999997
 20
4.092238068580627
 30
0.0
 11
3.098879999999999
 21
4.092238068580627
 31
0.0
  0
LINE
  5
29D
330
17
100
AcDbEntity
  8
0
100
AcDbLine
 10
3.098879999999999
 20
4.092238068580627
 30
0.0
 11
3.2790000000000004
 21
4.092238068580627
 31
0.0
  0
LINE
  5
29E
330
17
100
AcDbEntity
  8
0
100
AcDbLine
 10
4.194
 20
4.092238068580627
 30
0.0
 11
4.898879999999999
 21
4.092238068580627
 31
0.0
  0
LINE
  5
29F
330
17
100
AcDbEntity
  8
0
100
AcDbLine
 10
4.898879999999999
 20
4.092238068580627
 30
0.0
 11
5.079000000000001
 21
4.092238068580627
 31
0.0
  0
LINE
  5
2A0
330
17
100
AcDbEntity
  8
0
100
AcDbLine
 10
5.994
 20
4.092238068580627
 30
0.0
 11
6.698879999999999
 21
4.092238068580627
 31
0.0
  0
LINE
  5
2A1
330
17
100
AcDbEntity
  8
0
100
AcDbLine
 10
6.698879999999999
 20
4.092238068580627
 30
0.0
 11
6.8790000000000004
 21
4.092238068580627
 31
0.0
  0
LINE
  5
2A2
330
17
100
AcDbEntity
  8
0
100
AcDbLine
 10
7.794
 20
4.092238068580627
 30
0.0
 11
7.974120000000001
 21
4.092238068580627
 31
0.0
  0
LINE
  5
2A3
330
17
100
AcDbEntity
  8
0
100
AcDbLine
 10
7.974120000000001
 20
4.092238068580627
 30
0.0
 11
8.679
 21
4.092238068580627
 31
0.0
  0
LINE
  5
2A4
330
17
100
AcDbEntity
  8
0
100
AcDbLine
 10
9.594000000000001
 20
4.092238068580627
 30
0.0
 11
10.298879999999999
 21
4.092238068580627
 31
0.0
  0
LINE
  5
2A5
330
17
100
AcDbEntity
  8
0
100
AcDbLine
 10
10.298879999999999
 20
4.092238068580627
 30
0.0
 11
10.479
 21
4.092238068580627
 31
0.0
  0
LINE
  5
2A6
330
17
100
AcDbEntity
  8
0
100
AcDbLine
 10
11.394
 20
4.092238068580627
 30
0.0
 11
12.09888
 21
4.092238068580627
 31
0.0
  0
LINE
  5
2A7
330
17
100
AcDbEntity
  8
0
100
AcDbLine
 10
12.09888
 20
4.092238068580627
 30
0.0
 11
12.279
 21
4.092238068580627
 31
0.0
  0
LINE
  5
2A8
330
17
100
AcDbEntity
  8
0
100
AcDbLine
 10
13.194
 20
4.092238068580627
 30
0.0
 11
13.89888
 21
4.092238068580627
 31
0.0
  0
LINE
  5
2A9
330
17
100
AcDbEntity
  8
0
100
AcDbLine
 10
13.89888
 20
4.092238068580627
 30
0.0
 11
14.079
 21
4.092238068580627
 31
0.0
  0
LINE
  5
2AA
330
17
100
AcDbEntity
  8
0
100
AcDbLine
 10
1.3088399999999993
 20
4.592238068580627
 30
0.0
 11
1.4610000000000003
 21
4.592238068580627
 31
0.0
  0
LINE
  5
2AB
330
17
100
AcDbEntity
  8
0
100
AcDbLine
 10
1.3088399999999993
 20
4.592238068580627
 30
0.0
 11
1.4610000000000003
 21
4.592238068580627
 31
0.0
  0
LINE
  5
2AC
330
17
100
AcDbEntity
  8
0
100
AcDbLine
 10
2.377
 20
4.592238068580627
 30
0.0
 11
3.0809999999999986
 21
4.592238068580627
 31
0.0
  0
LINE
  5
2AD
330
17
100
AcDbEntity
  8
0
100
AcDbLine
 10
3.0809999999999986
 20
4.592238068580627
 30
0.0
 11
3.261
 21
4.592238068580627
 31
0.0
  0
LINE
  5
2AE
330
17
100
AcDbEntity
  8
0
100
AcDbLine
 10
4.177
 20
4.592238068580627
 30
0.0
 11
4.357000000000001
 21
4.592238068580627
 31
0.0
  0
LINE
  5
2AF
330
17
100
AcDbEntity
  8
0
100
AcDbLine
 10
4.357000000000001
 20
4.592238068580627
 30
0.0
 11
5.061
 21
4.592238068580627
 31
0.0
  0
LINE
  5
2B0
330
17
100
AcDbEntity
  8
0
100
AcDbLine
 10
5.977
 20
4.592238068580627
 30
0.0
 11
6.680999999999999
 21
4.592238068580627
 31
0.0
  0
LINE
  5
2B1
330
17
100
AcDbEntity
  8
0
100
AcDbLine
 10
6.680999999999999
 20
4.592238068580627
 30
0.0
 11
6.861000000000001
 21
4.592238068580627
 31
0.0
  0
LINE
  5
2B2
330
17
100
AcDbEntity
  8
0
100
AcDbLine
 10
7.777
 20
4.592238068580627
 30
0.0
 11
7.957000000000001
 21
4.592238068580627
 31
0.0
  0
LINE
  5
2B3
330
17
100
AcDbEntity
  8
0
100
AcDbLine
 10
7.957000000000001
 20
4.592238068580627
 30
0.0
 11
8.661
 21
4.592238068580627
 31
0.0
  0
LINE
  5
2B4
330
17
100
AcDbEntity
  8
0
100
AcDbLine
 10
9.577
 20
4.592238068580627
 30
0.0
 11
10.280999999999999
 21
4.592238068580627
 31
0.0
  0
LINE
  5
2B5
330
17
100
AcDbEntity
  8
0
100
AcDbLine
 10
10.280999999999999
 20
4.592238068580627
 30
0.0
 11
10.461
 21
4.592238068580627
 31
0.0
  0
LINE
  5
2B6
330
17
100
AcDbEntity
  8
0
100
AcDbLine
 10
11.377
 20
4.592238068580627
 30
0.0
 11
12.081
 21
4.592238068580627
 31
0.0
  0
LINE
  5
2B7
330
17
100
AcDbEntity
  8
0
100
AcDbLine
 10
12.081
 20
4.592238068580627
 30
0.0
 11
12.261
 21
4.592238068580627
 31
0.0
  0
LINE
  5
2B8
330
17
100
AcDbEntity
  8
0
100
AcDbLine
 10
13.177
 20
4.592238068580627
 30
0.0
 11
13.880999999999998
 21
4.592238068580627
 31
0.0
  0
LINE
  5
2B9
330
17
100
AcDbEntity
  8
0
100
AcDbLine
 10
13.880999999999998
 20
4.592238068580627
 30
0.0
 11
14.061
 21
4.592238068580627
 31
0.0
  0
LINE
  5
2BA
330
17
100
AcDbEntity
  8
0
100
AcDbLine
 10
1.2944399999999994
 20
5.092238068580627
 30
0.0
 11
1.4430000000000003
 21
5.092238068580627
 31
0.0
  0
LINE
  5
2BB
330
17
100
AcDbEntity
  8
0
100
AcDbLine
 10
1.2944399999999994
 20
5.092238068580627
 30
0.0
 11
1.4430000000000003
 21
5.092238068580627
 31
0.0
  0
LINE
  5
2BC
330
17
100
AcDbEntity
  8
0
100
AcDbLine
 10
2.359
 20
5.092238068580627
 30
0.0
 11
3.062999999999999
 21
5.092238068580627
 31
0.0
  0
LINE
  5
2BD
330
17
100
AcDbEntity
  8
0
100
AcDbLine
 10
3.062999999999999
 20
5.092238068580627
 30
0.0
 11
3.2430000000000003
 21
5.092238068580627
 31
0.0
  0
LINE
  5
2BE
330
17
100
AcDbEntity
  8
0
100
AcDbLine
 10
4.159
 20
5.092238068580627
 30
0.0
 11
4.339000000000001
 21
5.092238068580627
 31
0.0
  0
LINE
  5
2BF
330
17
100
AcDbEntity
  8
0
100
AcDbLine
 10
4.339000000000001
 20
5.092238068580627
 30
0.0
 11
5.043
 21
5.092238068580627
 31
0.0
  0
LINE
  5
2C0
330
17
100
AcDbEntity
  8
0
100
AcDbLine
 10
5.959
 20
5.092238068580627
 30
0.0
 11
6.139000000000001
 21
5.092238068580627
 31
0.0
  0
LINE
  5
2C1
330
17
100
AcDbEntity
  8
0
100
AcDbLine
 10
6.139000000000001
 20
5.092238068580627
 30
0.0
 11
6.843
 21
5.092238068580627
 31
0.0
  0
LINE
  5
2C2
330
17
100
AcDbEntity
  8
0
100
AcDbLine
 10
7.759
 20
5.092238068580627
 30
0.0
 11
7.939000000000001
 21
5.092238068580627
 31
0.0
  0
LINE
  5
2C3
330
17
100
AcDbEntity
  8
0
100
AcDbLine
 10
7.939000000000001
 20
5.092238068580627
 30
0.0
 11
8.643
 21
5.092238068580627
 31
0.0
  0
LINE
  5
2C4
330
17
100
AcDbEntity
  8
0
100
AcDbLine
 10
9.559000000000001
 20
5.092238068580627
 30
0.0
 11
9.739
 21
5.092238068580627
 31
0.0
  0
LINE
  5
2C5
330
17
100
AcDbEntity
  8
0
100
AcDbLine
 10
9.739
 20
5.092238068580627
 30
0.0
 11
10.443
 21
5.092238068580627
 31
0.0
  0
LINE
  5
2C6
330
17
100
AcDbEntity
  8
0
100
AcDbLine
 10
11.359
 20
5.092238068580627
 30
0.0
 11
12.062999999999999
 21
5.092238068580627
 31
0.0
  0
LINE
  5
2C7
330
17
100
AcDbEntity
  8
0
100
AcDbLine
 10
12.062999999999999
 20
5.092238068580627
 30
0.0
 11
12.243
 21
5.092238068580627
 31
0.0
  0
LINE
  5
2C8
330
17
100
AcDbEntity
  8
0
100
AcDbLine
 10
13.159
 20
5.092238068580627
 30
0.0
 11
13.863
 21
5.092238068580627
 31
0.0
  0
LINE
  5
2C9
330
17
100
AcDbEntity
  8
0
100
AcDbLine
 10
13.863
 20
5.092238068580627
 30
0.0
 11
14.043
 21
5.092238068580627
 31
0.0
  0
LINE
  5
2CA
330
17
100
AcDbEntity
  8
0
100
AcDbLine
 10
1.2810399999999993
 20
5.592238068580627
 30
0.0
 11
1.4260000000000004
 21
5.592238068580627
 31
0.0
  0
LINE
  5
2CB
330
17
100
AcDbEntity
  8
0
100
AcDbLine
 10
1.2810399999999993
 20
5.592238068580627
 30
0.0
 11
1.4260000000000004
 21
5.592238068580627
 31
0.0
  0
LINE
  5
2CC
330
17
100
AcDbEntity
  8
0
100
AcDbLine
 10
2.341089171974522
 20
5.592238068580627
 30
0.0
 11
2.34196178343949
 21
5.592238068580627
 31
0.0
  0
LINE
  5
2CD
330
17
100
AcDbEntity
  8
0
100
AcDbLine
 10
2.34196178343949
 20
5.592238068580627
 30
0.0
 11
3.040050955414012
 21
5.592238068580627
 31
0.0
  0
LINE
  5
2CE
330
17
100
AcDbEntity
  8
0
100
AcDbLine
 10
3.040050955414012
 20
5.592238068580627
 30
0.0
 11
3.2260000000000004
 21
5.592238068580627
 31
0.0
  0
LINE
  5
2CF
330
17
100
AcDbEntity
  8
0
100
AcDbLine
 10
4.14112
 20
5.592238068580627
 30
0.0
 11
4.1419999999999995
 21
5.592238068580627
 31
0.0
  0
LINE
  5
2D0
330
17
100
AcDbEntity
  8
0
100
AcDbLine
 10
4.1419999999999995
 20
5.592238068580627
 30
0.0
 11
4.845999999999999
 21
5.592238068580627
 31
0.0
  0
LINE
  5
2D1
330
17
100
AcDbEntity
  8
0
100
AcDbLine
 10
4.845999999999999
 20
5.592238068580627
 30
0.0
 11
5.026000000000001
 21
5.592238068580627
 31
0.0
  0
LINE
  5
2D2
330
17
100
AcDbEntity
  8
0
100
AcDbLine
 10
5.941120000000001
 20
5.592238068580627
 30
0.0
 11
5.942
 21
5.592238068580627
 31
0.0
  0
LINE
  5
2D3
330
17
100
AcDbEntity
  8
0
100
AcDbLine
 10
5.942
 20
5.592238068580627
 30
0.0
 11
6.645999999999999
 21
5.592238068580627
 31
0.0
  0
LINE
  5
2D4
330
17
100
AcDbEntity
  8
0
100
AcDbLine
 10
6.645999999999999
 20
5.592238068580627
 30
0.0
 11
6.8260000000000005
 21
5.592238068580627
 31
0.0
  0
LINE
  5
2D5
330
17
100
AcDbEntity
  8
0
100
AcDbLine
 10
7.7411200000000004
 20
5.592238068580627
 30
0.0
 11
7.742
 21
5.592238068580627
 31
0.0
  0
LINE
  5
2D6
330
17
100
AcDbEntity
  8
0
100
AcDbLine
 10
7.742
 20
5.592238068580627
 30
0.0
 11
8.445999999999998
 21
5.592238068580627
 31
0.0
  0
LINE
  5
2D7
330
17
100
AcDbEntity
  8
0
100
AcDbLine
 10
8.445999999999998
 20
5.592238068580627
 30
0.0
 11
8.626
 21
5.592238068580627
 31
0.0
  0
LINE
  5
2D8
330
17
100
AcDbEntity
  8
0
100
AcDbLine
 10
9.54112
 20
5.592238068580627
 30
0.0
 11
9.542
 21
5.592238068580627
 31
0.0
  0
LINE
  5
2D9
330
17
100
AcDbEntity
  8
0
100
AcDbLine
 10
9.542
 20
5.592238068580627
 30
0.0
 11
10.245999999999999
 21
5.592238068580627
 31
0.0
  0
LINE
  5
2DA
330
17
100
AcDbEntity
  8
0
100
AcDbLine
 10
10.245999999999999
 20
5.592238068580627
 30
0.0
 11
10.426
 21
5.592238068580627
 31
0.0
  0
LINE
  5
2DB
330
17
100
AcDbEntity
  8
0
100
AcDbLine
 10
11.34112
 20
5.592238068580627
 30
0.0
 11
11.342
 21
5.592238068580627
 31
0.0
  0
LINE
  5
2DC
330
17
100
AcDbEntity
  8
0
100
AcDbLine
 10
11.342
 20
5.592238068580627
 30
0.0
 11
12.046
 21
5.592238068580627
 31
0.0
  0
LINE
  5
2DD
330
17
100
AcDbEntity
  8
0
100
AcDbLine
 10
12.046
 20
5.592238068580627
 30
0.0
 11
12.226
 21
5.592238068580627
 31
0.0
  0
LINE
  5
2DE
330
17
100
AcDbEntity
  8
0
100
AcDbLine
 10
13.141119999999999
 20
5.592238068580627
 30
0.0
 11
13.142000000000001
 21
5.592238068580627
 31
0.0
  0
LINE
  5
2DF
330
17
100
AcDbEntity
  8
0
100
AcDbLine
 10
13.142000000000001
 20
5.592238068580627
 30
0.0
 11
13.322000000000003
 21
5.592238068580627
 31
0.0
  0
LINE
  5
2E0
330
17
100
AcDbEntity
  8
0
100
AcDbLine
 10
13.322000000000003
 20
5.592238068580627
 30
0.0
 11
14.026
 21
5.592238068580627
 31
0.0
  0
LINE
  5
2E1
330
17
100
AcDbEntity
  8
0
100
AcDbLine
 10
1.2755599999999994
 20
6.092238068580627
 30
0.0
 11
1.4180000000000004
 21
6.092238068580627
 31
0.0
  0
LINE
  5
2E2
330
17
100
AcDbEntity
  8
0
100
AcDbLine
 10
1.2755599999999994
 20
6.092238068580627
 30
0.0
 11
1.4180000000000004
 21
6.092238068580627
 31
0.0
  0
LINE
  5
2E3
330
17
100
AcDbEntity
  8
0
100
AcDbLine
 10
2.3339999999999996
 20
6.092238068580627
 30
0.0
 11
3.0379999999999994
 21
6.092238068580627
 31
0.0
  0
LINE
  5
2E4
330
17
100
AcDbEntity
  8
0
100
AcDbLine
 10
3.0379999999999994
 20
6.092238068580627
 30
0.0
 11
3.2180000000000004
 21
6.092238068580627
 31
0.0
  0
LINE
  5
2E5
330
17
100
AcDbEntity
  8
0
100
AcDbLine
 10
4.134
 20
6.092238068580627
 30
0.0
 11
4.837999999999999
 21
6.092238068580627
 31
0.0
  0
LINE
  5
2E6
330
17
100
AcDbEntity
  8
0
100
AcDbLine
 10
4.837999999999999
 20
6.092238068580627
 30
0.0
 11
5.018000000000001
 21
6.092238068580627
 31
0.0
  0
LINE
  5
2E7
330
17
100
AcDbEntity
  8
0
100
AcDbLine
 10
5.934
 20
6.092238068580627
 30
0.0
 11
6.637999999999999
 21
6.092238068580627
 31
0.0
  0
LINE
  5
2E8
330
17
100
AcDbEntity
  8
0
100
AcDbLine
 10
6.637999999999999
 20
6.092238068580627
 30
0.0
 11
6.8180000000000005
 21
6.092238068580627
 31
0.0
  0
LINE
  5
2E9
330
17
100
AcDbEntity
  8
0
100
AcDbLine
 10
7.734
 20
6.092238068580627
 30
0.0
 11
7.914000000000001
 21
6.092238068580627
 31
0.0
  0
LINE
  5
2EA
330
17
100
AcDbEntity
  8
0
100
AcDbLine
 10
7.914000000000001
 20
6.092238068580627
 30
0.0
 11
8.618
 21
6.092238068580627
 31
0.0
  0
LINE
  5
2EB
330
17
100
AcDbEntity
  8
0
100
AcDbLine
 10
9.534
 20
6.092238068580627
 30
0.0
 11
10.238
 21
6.092238068580627
 31
0.0
  0
LINE
  5
2EC
330
17
100
AcDbEntity
  8
0
100
AcDbLine
 10
10.238
 20
6.092238068580627
 30
0.0
 11
10.418
 21
6.092238068580627
 31
0.0
  0
LINE
  5
2ED
330
17
100
AcDbEntity
  8
0
100
AcDbLine
 10
11.334
 20
6.092238068580627
 30
0.0
 11
12.037999999999998
 21
6.092238068580627
 31
0.0
  0
LINE
  5
2EE
330
17
100
AcDbEntity
  8
0
100
AcDbLine
 10
12.037999999999998
 20
6.092238068580627
 30
0.0
 11
12.218
 21
6.092238068580627
 31
0.0
  0
LINE
  5
2EF
330
17
100
AcDbEntity
  8
0
100
AcDbLine
 10
13.134
 20
6.092238068580627
 30
0.0
 11
13.838
 21
6.092238068580627
 31
0.0
  0
LINE
  5
2F0
330
17
100
AcDbEntity
  8
0
100
AcDbLine
 10
13.838
 20
6.092238068580627
 30
0.0
 11
14.018
 21
6.092238068580627
 31
0.0
  0
LINE
  5
2F1
330
17
100
AcDbEntity
  8
0
100
AcDbLine
 10
1.2769999999999995
 20
6.592238068580627
 30
0.0
 11
1.4180000000000004
 21
6.592238068580627
 31
0.0
  0
LINE
  5
2F2
330
17
100
AcDbEntity
  8
0
100
AcDbLine
 10
1.2769999999999995
 20
6.592238068580627
 30
0.0
 11
1.4180000000000004
 21
6.592238068580627
 31
0.0
  0
LINE
  5
2F3
330
17
100
AcDbEntity
  8
0
100
AcDbLine
 10
2.3339999999999996
 20
6.592238068580627
 30
0.0
 11
3.0379999999999994
 21
6.592238068580627
 31
0.0
  0
LINE
  5
2F4
330
17
100
AcDbEntity
  8
0
100
AcDbLine
 10
3.0379999999999994
 20
6.592238068580627
 30
0.0
 11
3.2180000000000004
 21
6.592238068580627
 31
0.0
  0
LINE
  5
2F5
330
17
100
AcDbEntity
  8
0
100
AcDbLine
 10
4.134
 20
6.592238068580627
 30
0.0
 11
4.837999999999999
 21
6.592238068580627
 31
0.0
  0
LINE
  5
2F6
330
17
100
AcDbEntity
  8
0
100
AcDbLine
 10
4.837999999999999
 20
6.592238068580627
 30
0.0
 11
5.018000000000001
 21
6.592238068580627
 31
0.0
  0
LINE
  5
2F7
330
17
100
AcDbEntity
  8
0
100
AcDbLine
 10
5.934
 20
6.592238068580627
 30
0.0
 11
6.637999999999999
 21
6.592238068580627
 31
0.0
  0
LINE
  5
2F8
330
17
100
AcDbEntity
  8
0
100
AcDbLine
 10
6.637999999999999
 20
6.592238068580627
 30
0.0
 11
6.8180000000000005
 21
6.592238068580627
 31
0.0
  0
LINE
  5
2F9
330
17
100
AcDbEntity
  8
0
100
AcDbLine
 10
7.734
 20
6.592238068580627
 30
0.0
 11
7.914000000000001
 21
6.592238068580627
 31
0.0
  0
LINE
  5
2FA
330
17
100
AcDbEntity
  8
0
100
AcDbLine
 10
7.914000000000001
 20
6.592238068580627
 30
0.0
 11
8.618
 21
6.592238068580627
 31
0.0
  0
LINE
  5
2FB
330
17
100
AcDbEntity
  8
0
100
AcDbLine
 10
9.534
 20
6.592238068580627
 30
0.0
 11
10.238
 21
6.592238068580627
 31
0.0
  0
LINE
  5
2FC
330
17
100
AcDbEntity
  8
0
100
AcDbLine
 10
10.238
 20
6.592238068580627
 30
0.0
 11
10.418
 21
6.592238068580627
 31
0.0
  0
LINE
  5
2FD
330
17
100
AcDbEntity
  8
0
100
AcDbLine
 10
11.334
 20
6.592238068580627
 30
0.0
 11
12.037999999999998
 21
6.592238068580627
 31
0.0
  0
LINE
  5
2FE
330
17
100
AcDbEntity
  8
0
100
AcDbLine
 10
12.037999999999998
 20
6.592238068580627
 30
0.0
 11
12.218
 21
6.592238068580627
 31
0.0
  0
LINE
  5
2FF
330
17
100
AcDbEntity
  8
0
100
AcDbLine
 10
13.134
 20
6.592238068580627
 30
0.0
 11
13.838
 21
6.592238068580627
 31
0.0
  0
LINE
  5
300
330
17
100
AcDbEntity
  8
0
100
AcDbLine
 10
13.838
 20
6.592238068580627
 30
0.0
 11
14.018
 21
6.592238068580627
 31
0.0
  0
LINE
  5
301
330
17
100
AcDbEntity
  8
0
100
AcDbLine
 10
1.2785599999999995
 20
7.092238068580627
 30
0.0
 11
1.4180000000000004
 21
7.092238068580627
 31
0.0
  0
LINE
  5
302
330
17
100
AcDbEntity
  8
0
100
AcDbLine
 10
1.2785599999999995
 20
7.092238068580627
 30
0.0
 11
1.4180000000000004
 21
7.092238068580627
 31
0.0
  0
LINE
  5
303
330
17
100
AcDbEntity
  8
0
100
AcDbLine
 10
2.3339999999999996
 20
7.092238068580627
 30
0.0
 11
3.0379999999999994
 21
7.092238068580627
 31
0.0
  0
LINE
  5
304
330
17
100
AcDbEntity
  8
0
100
AcDbLine
 10
3.0379999999999994
 20
7.092238068580627
 30
0.0
 11
3.2180000000000004
 21
7.092238068580627
 31
0.0
  0
LINE
  5
305
330
17
100
AcDbEntity
  8
0
100
AcDbLine
 10
4.134
 20
7.092238068580627
 30
0.0
 11
4.837999999999999
 21
7.092238068580627
 31
0.0
  0
LINE
  5
306
330
17
100
AcDbEntity
  8
0
100
AcDbLine
 10
4.837999999999999
 20
7.092238068580627
 30
0.0
 11
5.018000000000001
 21
7.092238068580627
 31
0.0
  0
LINE
  5
307
330
17
100
AcDbEntity
  8
0
100
AcDbLine
 10
5.934
 20
7.092238068580627
 30
0.0
 11
6.637999999999999
 21
7.092238068580627
 31
0.0
  0
LINE
  5
308
330
17
100
AcDbEntity
  8
0
100
AcDbLine
 10
6.637999999999999
 20
7.092238068580627
 30
0.0
 11
6.8180000000000005
 21
7.092238068580627
 31
0.0
  0
LINE
  5
309
330
17
100
AcDbEntity
  8
0
100
AcDbLine
 10
7.734
 20
7.092238068580627
 30
0.0
 11
7.914000000000001
 21
7.092238068580627
 31
0.0
  0
LINE
  5
30A
330
17
100
AcDbEntity
  8
0
100
AcDbLine
 10
7.914000000000001
 20
7.092238068580627
 30
0.0
 11
8.618
 21
7.092238068580627
 31
0.0
  0
LINE
  5
30B
330
17
100
AcDbEntity
  8
0
100
AcDbLine
 10
9.534
 20
7.092238068580627
 30
0.0
 11
10.238
 21
7.092238068580627
 31
0.0
  0
LINE
  5
30C
330
17
100
AcDbEntity
  8
0
100
AcDbLine
 10
10.238
 20
7.092238068580627
 30
0.0
 11
10.418
 21
7.092238068580627
 31
0.0
  0
LINE
  5
30D
330
17
100
AcDbEntity
  8
0
100
AcDbLine
 10
11.334
 20
7.092238068580627
 30
0.0
 11
12.037999999999998
 21
7.092238068580627
 31
0.0
  0
LINE
  5
30E
330
17
100
AcDbEntity
  8
0
100
AcDbLine
 10
12.037999999999998
 20
7.092238068580627
 30
0.0
 11
12.218
 21
7.092238068580627
 31
0.0
  0
LINE
  5
30F
330
17
100
AcDbEntity
  8
0
100
AcDbLine
 10
13.134
 20
7.092238068580627
 30
0.0
 11
13.838
 21
7.092238068580627
 31
0.0
  0
LINE
  5
310
330
17
100
AcDbEntity
  8
0
100
AcDbLine
 10
13.838
 20
7.092238068580627
 30
0.0
 11
14.018
 21
7.092238068580627
 31
0.0
  0
LINE
  5
311
330
17
100
AcDbEntity
  8
0
100
AcDbLine
 10
1.2799999999999994
 20
7.592238068580627
 30
0.0
 11
1.4180000000000004
 21
7.592238068580627
 31
0.0
  0
LINE
  5
312
330
17
100
AcDbEntity
  8
0
100
AcDbLine
 10
1.2799999999999994
 20
7.592238068580627
 30
0.0
 11
1.4180000000000004
 21
7.592238068580627
 31
0.0
  0
LINE
  5
313
330
17
100
AcDbEntity
  8
0
100
AcDbLine
 10
2.3339999999999996
 20
7.592238068580627
 30
0.0
 11
3.0379999999999994
 21
7.592238068580627
 31
0.0
  0
LINE
  5
314
330
17
100
AcDbEntity
  8
0
100
AcDbLine
 10
3.0379999999999994
 20
7.592238068580627
 30
0.0
 11
3.2180000000000004
 21
7.592238068580627
 31
0.0
  0
LINE
  5
315
330
17
100
AcDbEntity
  8
0
100
AcDbLine
 10
4.134
 20
7.592238068580627
 30
0.0
 11
4.837999999999999
 21
7.592238068580627
 31
0.0
  0
LINE
  5
316
330
17
100
AcDbEntity
  8
0
100
AcDbLine
 10
4.837999999999999
 20
7.592238068580627
 30
0.0
 11
5.018000000000001
 21
7.592238068580627
 31
0.0
  0
LINE
  5
317
330
17
100
AcDbEntity
  8
0
100
AcDbLine
 10
5.934
 20
7.592238068580627
 30
0.0
 11
6.637999999999999
 21
7.592238068580627
 31
0.0
  0
LINE
  5
318
330
17
100
AcDbEntity
  8
0
100
AcDbLine
 10
6.637999999999999
 20
7.592238068580627
 30
0.0
 11
6.8180000000000005
 21
7.592238068580627
 31
0.0
  0
LINE
  5
319
330
17
100
AcDbEntity
  8
0
100
AcDbLine
 10
7.734
 20
7.592238068580627
 30
0.0
 11
8.437999999999999
 21
7.592238068580627
 31
0.0
  0
LINE
  5
31A
330
17
100
AcDbEntity
  8
0
100
AcDbLine
 10
8.437999999999999
 20
7.592238068580627
 30
0.0
 11
8.618
 21
7.592238068580627
 31
0.0
  0
LINE
  5
31B
330
17
100
AcDbEntity
  8
0
100
AcDbLine
 10
9.534
 20
7.592238068580627
 30
0.0
 11
10.238
 21
7.592238068580627
 31
0.0
  0
LINE
  5
31C
330
17
100
AcDbEntity
  8
0
100
AcDbLine
 10
10.238
 20
7.592238068580627
 30
0.0
 11
10.418
 21
7.592238068580627
 31
0.0
  0
LINE
  5
31D
330
17
100
AcDbEntity
  8
0
100
AcDbLine
 10
11.334
 20
7.592238068580627
 30
0.0
 11
12.037999999999998
 21
7.592238068580627
 31
0.0
  0
LINE
  5
31E
330
17
100
AcDbEntity
  8
0
100
AcDbLine
 10
12.037999999999998
 20
7.592238068580627
 30
0.0
 11
12.218
 21
7.592238068580627
 31
0.0
  0
LINE
  5
31F
330
17
100
AcDbEntity
  8
0
100
AcDbLine
 10
13.134
 20
7.592238068580627
 30
0.0
 11
13.838
 21
7.592238068580627
 31
0.0
  0
LINE
  5
320
330
17
100
AcDbEntity
  8
0
100
AcDbLine
 10
13.838
 20
7.592238068580627
 30
0.0
 11
14.018
 21
7.592238068580627
 31
0.0
  0
LINE
  5
321
330
17
100
AcDbEntity
  8
0
100
AcDbLine
 10
1.2798799999999995
 20
8.092238068580627
 30
0.0
 11
1.4180000000000004
 21
8.092238068580627
 31
0.0
  0
LINE
  5
322
330
17
100
AcDbEntity
  8
0
100
AcDbLine
 10
1.2798799999999995
 20
8.092238068580627
 30
0.0
 11
1.4180000000000004
 21
8.092238068580627
 31
0.0
  0
LINE
  5
323
330
17
100
AcDbEntity
  8
0
100
AcDbLine
 10
2.3339999999999996
 20
8.092238068580627
 30
0.0
 11
3.0379999999999994
 21
8.092238068580627
 31
0.0
  0
LINE
  5
324
330
17
100
AcDbEntity
  8
0
100
AcDbLine
 10
3.0379999999999994
 20
8.092238068580627
 30
0.0
 11
3.2180000000000004
 21
8.092238068580627
 31
0.0
  0
LINE
  5
325
330
17
100
AcDbEntity
  8
0
100
AcDbLine
 10
4.134
 20
8.092238068580627
 30
0.0
 11
4.837999999999999
 21
8.092238068580627
 31
0.0
  0
LINE
  5
326
330
17
100
AcDbEntity
  8
0
100
AcDbLine
 10
4.837999999999999
 20
8.092238068580627
 30
0.0
 11
5.018000000000001
 21
8.092238068580627
 31
0.0
  0
LINE
  5
327
330
17
100
AcDbEntity
  8
0
100
AcDbLine
 10
5.934
 20
8.092238068580627
 30
0.0
 11
6.637999999999999
 21
8.092238068580627
 31
0.0
  0
LINE
  5
328
330
17
100
AcDbEntity
  8
0
100
AcDbLine
 10
6.637999999999999
 20
8.092238068580627
 30
0.0
 11
6.8180000000000005
 21
8.092238068580627
 31
0.0
  0
LINE
  5
329
330
17
100
AcDbEntity
  8
0
100
AcDbLine
 10
7.734
 20
8.092238068580627
 30
0.0
 11
7.914000000000001
 21
8.092238068580627
 31
0.0
  0
LINE
  5
32A
330
17
100
AcDbEntity
  8
0
100
AcDbLine
 10
7.914000000000001
 20
8.092238068580627
 30
0.0
 11
8.618
 21
8.092238068580627
 31
0.0
  0
LINE
  5
32B
330
17
100
AcDbEntity
  8
0
100
AcDbLine
 10
9.534
 20
8.092238068580627
 30
0.0
 11
10.238
 21
8.092238068580627
 31
0.0
  0
LINE
  5
32C
330
17
100
AcDbEntity
  8
0
100
AcDbLine
 10
10.238
 20
8.092238068580627
 30
0.0
 11
10.418
 21
8.092238068580627
 31
0.0
  0
LINE
  5
32D
330
17
100
AcDbEntity
  8
0
100
AcDbLine
 10
11.334
 20
8.092238068580627
 30
0.0
 11
12.037999999999998
 21
8.092238068580627
 31
0.0
  0
LINE
  5
32E
330
17
100
AcDbEntity
  8
0
100
AcDbLine
 10
12.037999999999998
 20
8.092238068580627
 30
0.0
 11
12.218
 21
8.092238068580627
 31
0.0
  0
LINE
  5
32F
330
17
100
AcDbEntity
  8
0
100
AcDbLine
 10
13.134
 20
8.092238068580627
 30
0.0
 11
13.838
 21
8.092238068580627
 31
0.0
  0
LINE
  5
330
330
17
100
AcDbEntity
  8
0
100
AcDbLine
 10
13.838
 20
8.092238068580627
 30
0.0
 11
14.018
 21
8.092238068580627
 31
0.0
  0
LINE
  5
331
330
17
100
AcDbEntity
  8
0
100
AcDbLine
 10
1.2780799999999994
 20
8.592238068580627
 30
0.0
 11
1.4180000000000004
 21
8.592238068580627
 31
0.0
  0
LINE
  5
332
330
17
100
AcDbEntity
  8
0
100
AcDbLine
 10
1.2780799999999994
 20
8.592238068580627
 30
0.0
 11
1.4180000000000004
 21
8.592238068580627
 31
0.0
  0
LINE
  5
333
330
17
100
AcDbEntity
  8
0
100
AcDbLine
 10
2.3339999999999996
 20
8.592238068580627
 30
0.0
 11
3.0379999999999994
 21
8.592238068580627
 31
0.0
  0
LINE
  5
334
330
17
100
AcDbEntity
  8
0
100
AcDbLine
 10
3.0379999999999994
 20
8.592238068580627
 30
0.0
 11
3.2180000000000004
 21
8.592238068580627
 31
0.0
  0
LINE
  5
335
330
17
100
AcDbEntity
  8
0
100
AcDbLine
 10
4.134
 20
8.592238068580627
 30
0.0
 11
4.837999999999999
 21
8.592238068580627
 31
0.0
  0
LINE
  5
336
330
17
100
AcDbEntity
  8
0
100
AcDbLine
 10
4.837999999999999
 20
8.592238068580627
 30
0.0
 11
5.018000000000001
 21
8.592238068580627
 31
0.0
  0
LINE
  5
337
330
17
100
AcDbEntity
  8
0
100
AcDbLine
 10
5.934
 20
8.592238068580627
 30
0.0
 11
6.637999999999999
 21
8.592238068580627
 31
0.0
  0
LINE
  5
338
330
17
100
AcDbEntity
  8
0
100
AcDbLine
 10
6.637999999999999
 20
8.592238068580627
 30
0.0
 11
6.8180000000000005
 21
8.592238068580627
 31
0.0
  0
LINE
  5
339
330
17
100
AcDbEntity
  8
0
100
AcDbLine
 10
7.734
 20
8.592238068580627
 30
0.0
 11
7.914000000000001
 21
8.592238068580627
 31
0.0
  0
LINE
  5
33A
330
17
100
AcDbEntity
  8
0
100
AcDbLine
 10
7.914000000000001
 20
8.592238068580627
 30
0.0
 11
8.618
 21
8.592238068580627
 31
0.0
  0
LINE
  5
33B
330
17
100
AcDbEntity
  8
0
100
AcDbLine
 10
9.534
 20
8.592238068580627
 30
0.0
 11
10.238
 21
8.592238068580627
 31
0.0
  0
LINE
  5
33C
330
17
100
AcDbEntity
  8
0
100
AcDbLine
 10
10.238
 20
8.592238068580627
 30
0.0
 11
10.418
 21
8.592238068580627
 31
0.0
  0
LINE
  5
33D
330
17
100
AcDbEntity
  8
0
100
AcDbLine
 10
11.334
 20
8.592238068580627
 30
0.0
 11
12.037999999999998
 21
8.592238068580627
 31
0.0
  0
LINE
  5
33E
330
17
100
AcDbEntity
  8
0
100
AcDbLine
 10
12.037999999999998
 20
8.592238068580627
 30
0.0
 11
12.218
 21
8.592238068580627
 31
0.0
  0
LINE
  5
33F
330
17
100
AcDbEntity
  8
0
100
AcDbLine
 10
13.134
 20
8.592238068580627
 30
0.0
 11
13.838
 21
8.592238068580627
 31
0.0
  0
LINE
  5
340
330
17
100
AcDbEntity
  8
0
100
AcDbLine
 10
13.838
 20
8.592238068580627
 30
0.0
 11
14.018
 21
8.592238068580627
 31
0.0
  0
LINE
  5
341
330
17
100
AcDbEntity
  8
0
100
AcDbLine
 10
1.2762799999999994
 20
9.092238068580627
 30
0.0
 11
1.4180000000000004
 21
9.092238068580627
 31
0.0
  0
LINE
  5
342
330
17
100
AcDbEntity
  8
0
100
AcDbLine
 10
1.2762799999999994
 20
9.092238068580627
 30
0.0
 11
1.4180000000000004
 21
9.092238068580627
 31
0.0
  0
LINE
  5
343
330
17
100
AcDbEntity
  8
0
100
AcDbLine
 10
2.3339999999999996
 20
9.092238068580627
 30
0.0
 11
3.0379999999999994
 21
9.092238068580627
 31
0.0
  0
LINE
  5
344
330
17
100
AcDbEntity
  8
0
100
AcDbLine
 10
3.0379999999999994
 20
9.092238068580627
 30
0.0
 11
3.2180000000000004
 21
9.092238068580627
 31
0.0
  0
LINE
  5
345
330
17
100
AcDbEntity
  8
0
100
AcDbLine
 10
4.134
 20
9.092238068580627
 30
0.0
 11
4.837999999999999
 21
9.092238068580627
 31
0.0
  0
LINE
  5
346
330
17
100
AcDbEntity
  8
0
100
AcDbLine
 10
4.837999999999999
 20
9.092238068580627
 30
0.0
 11
5.018000000000001
 21
9.092238068580627
 31
0.0
  0
LINE
  5
347
330
17
100
AcDbEntity
  8
0
100
AcDbLine
 10
5.934
 20
9.092238068580627
 30
0.0
 11
6.637999999999999
 21
9.092238068580627
 31
0.0
  0
LINE
  5
348
330
17
100
AcDbEntity
  8
0
100
AcDbLine
 10
6.637999999999999
 20
9.092238068580627
 30
0.0
 11
6.8180000000000005
 21
9.092238068580627
 31
0.0
  0
LINE
  5
349
330
17
100
AcDbEntity
  8
0
100
AcDbLine
 10
7.734
 20
9.092238068580627
 30
0.0
 11
7.914000000000001
 21
9.092238068580627
 31
0.0
  0
LINE
  5
34A
330
17
100
AcDbEntity
  8
0
100
AcDbLine
 10
7.914000000000001
 20
9.092238068580627
 30
0.0
 11
8.618
 21
9.092238068580627
 31
0.0
  0
LINE
  5
34B
330
17
100
AcDbEntity
  8
0
100
AcDbLine
 10
9.534
 20
9.092238068580627
 30
0.0
 11
10.238
 21
9.092238068580627
 31
0.0
  0
LINE
  5
34C
330
17
100
AcDbEntity
  8
0
100
AcDbLine
 10
10.238
 20
9.092238068580627
 30
0.0
 11
10.418
 21
9.092238068580627
 31
0.0
  0
LINE
  5
34D
330
17
100
AcDbEntity
  8
0
100
AcDbLine
 10
11.334
 20
9.092238068580627
 30
0.0
 11
12.037999999999998
 21
9.092238068580627
 31
0.0
  0
LINE
  5
34E
330
17
100
AcDbEntity
  8
0
100
AcDbLine
 10
12.037999999999998
 20
9.092238068580627
 30
0.0
 11
12.218
 21
9.092238068580627
 31
0.0
  0
LINE
  5
34F
330
17
100
AcDbEntity
  8
0
100
AcDbLine
 10
13.134
 20
9.092238068580627
 30
0.0
 11
13.838
 21
9.092238068580627
 31
0.0
  0
LINE
  5
350
330
17
100
AcDbEntity
  8
0
100
AcDbLine
 10
13.838
 20
9.092238068580627
 30
0.0
 11
14.018
 21
9.092238068580627
 31
0.0
  0
LINE
  5
351
330
17
100
AcDbEntity
  8
0
100
AcDbLine
 10
1.2743599999999993
 20
9.592238068580627
 30
0.0
 11
1.4180000000000004
 21
9.592238068580627
 31
0.0
  0
LINE
  5
352
330
17
100
AcDbEntity
  8
0
100
AcDbLine
 10
1.2743599999999993
 20
9.592238068580627
 30
0.0
 11
1.4180000000000004
 21
9.592238068580627
 31
0.0
  0
LINE
  5
353
330
17
100
AcDbEntity
  8
0
100
AcDbLine
 10
2.3339999999999996
 20
9.592238068580627
 30
0.0
 11
3.0379999999999994
 21
9.592238068580627
 31
0.0
  0
LINE
  5
354
330
17
100
AcDbEntity
  8
0
100
AcDbLine
 10
3.0379999999999994
 20
9.592238068580627
 30
0.0
 11
3.2180000000000004
 21
9.592238068580627
 31
0.0
  0
LINE
  5
355
330
17
100
AcDbEntity
  8
0
100
AcDbLine
 10
4.134
 20
9.592238068580627
 30
0.0
 11
4.837999999999999
 21
9.592238068580627
 31
0.0
  0
LINE
  5
356
330
17
100
AcDbEntity
  8
0
100
AcDbLine
 10
4.837999999999999
 20
9.592238068580627
 30
0.0
 11
5.018000000000001
 21
9.592238068580627
 31
0.0
  0
LINE
  5
357
330
17
100
AcDbEntity
  8
0
100
AcDbLine
 10
5.934
 20
9.592238068580627
 30
0.0
 11
6.637999999999999
 21
9.592238068580627
 31
0.0
  0
LINE
  5
358
330
17
100
AcDbEntity
  8
0
100
AcDbLine
 10
6.637999999999999
 20
9.592238068580627
 30
0.0
 11
6.8180000000000005
 21
9.592238068580627
 31
0.0
  0
LINE
  5
359
330
17
100
AcDbEntity
  8
0
100
AcDbLine
 10
7.734
 20
9.592238068580627
 30
0.0
 11
7.914000000000001
 21
9.592238068580627
 31
0.0
  0
LINE
  5
35A
330
17
100
AcDbEntity
  8
0
100
AcDbLine
 10
7.914000000000001
 20
9.592238068580627
 30
0.0
 11
8.618
 21
9.592238068580627
 31
0.0
  0
LINE
  5
35B
330
17
100
AcDbEntity
  8
0
100
AcDbLine
 10
9.534
 20
9.592238068580627
 30
0.0
 11
10.238
 21
9.592238068580627
 31
0.0
  0
LINE
  5
35C
330
17
100
AcDbEntity
  8
0
100
AcDbLine
 10
10.238
 20
9.592238068580627
 30
0.0
 11
10.418
 21
9.592238068580627
 31
0.0
  0
LINE
  5
35D
330
17
100
AcDbEntity
  8
0
100
AcDbLine
 10
11.334
 20
9.592238068580627
 30
0.0
 11
12.037999999999998
 21
9.592238068580627
 31
0.0
  0
LINE
  5
35E
330
17
100
AcDbEntity
  8
0
100
AcDbLine
 10
12.037999999999998
 20
9.592238068580627
 30
0.0
 11
12.218
 21
9.592238068580627
 31
0.0
  0
LINE
  5
35F
330
17
100
AcDbEntity
  8
0
100
AcDbLine
 10
13.134
 20
9.592238068580627
 30
0.0
 11
13.838
 21
9.592238068580627
 31
0.0
  0
LINE
  5
360
330
17
100
AcDbEntity
  8
0
100
AcDbLine
 10
13.838
 20
9.592238068580627
 30
0.0
 11
14.018
 21
9.592238068580627
 31
0.0
  0
LINE
  5
361
330
17
100
AcDbEntity
  8
0
100
AcDbLine
 10
1.2725599999999995
 20
10.092238068580627
 30
0.0
 11
1.4180000000000004
 21
10.092238068580627
 31
0.0
  0
LINE
  5
362
330
17
100
AcDbEntity
  8
0
100
AcDbLine
 10
1.2725599999999995
 20
10.092238068580627
 30
0.0
 11
1.4180000000000004
 21
10.092238068580627
 31
0.0
  0
LINE
  5
363
330
17
100
AcDbEntity
  8
0
100
AcDbLine
 10
2.3339999999999996
 20
10.092238068580627
 30
0.0
 11
3.0379999999999994
 21
10.092238068580627
 31
0.0
  0
LINE
  5
364
330
17
100
AcDbEntity
  8
0
100
AcDbLine
 10
3.0379999999999994
 20
10.092238068580627
 30
0.0
 11
3.2180000000000004
 21
10.092238068580627
 31
0.0
  0
LINE
  5
365
330
17
100
AcDbEntity
  8
0
100
AcDbLine
 10
4.134
 20
10.092238068580627
 30
0.0
 11
4.837999999999999
 21
10.092238068580627
 31
0.0
  0
LINE
  5
366
330
17
100
AcDbEntity
  8
0
100
AcDbLine
 10
4.837999999999999
 20
10.092238068580627
 30
0.0
 11
5.018000000000001
 21
10.092238068580627
 31
0.0
  0
LINE
  5
367
330
17
100
AcDbEntity
  8
0
100
AcDbLine
 10
5.934
 20
10.092238068580627
 30
0.0
 11
6.637999999999999
 21
10.092238068580627
 31
0.0
  0
LINE
  5
368
330
17
100
AcDbEntity
  8
0
100
AcDbLine
 10
6.637999999999999
 20
10.092238068580627
 30
0.0
 11
6.8180000000000005
 21
10.092238068580627
 31
0.0
  0
LINE
  5
369
330
17
100
AcDbEntity
  8
0
100
AcDbLine
 10
7.734
 20
10.092238068580627
 30
0.0
 11
7.914000000000001
 21
10.092238068580627
 31
0.0
  0
LINE
  5
36A
330
17
100
AcDbEntity
  8
0
100
AcDbLine
 10
7.914000000000001
 20
10.092238068580627
 30
0.0
 11
8.618
 21
10.092238068580627
 31
0.0
  0
LINE
  5
36B
330
17
100
AcDbEntity
  8
0
100
AcDbLine
 10
9.534
 20
10.092238068580627
 30
0.0
 11
10.238
 21
10.092238068580627
 31
0.0
  0
LINE
  5
36C
330
17
100
AcDbEntity
  8
0
100
AcDbLine
 10
10.238
 20
10.092238068580627
 30
0.0
 11
10.418
 21
10.092238068580627
 31
0.0
  0
LINE
  5
36D
330
17
100
AcDbEntity
  8
0
100
AcDbLine
 10
11.334
 20
10.092238068580627
 30
0.0
 11
12.037999999999998
 21
10.092238068580627
 31
0.0
  0
LINE
  5
36E
330
17
100
AcDbEntity
  8
0
100
AcDbLine
 10
12.037999999999998
 20
10.092238068580627
 30
0.0
 11
12.218
 21
10.092238068580627
 31
0.0
  0
LINE
  5
36F
330
17
100
AcDbEntity
  8
0
100
AcDbLine
 10
13.134
 20
10.092238068580627
 30
0.0
 11
13.838
 21
10.092238068580627
 31
0.0
  0
LINE
  5
370
330
17
100
AcDbEntity
  8
0
100
AcDbLine
 10
13.838
 20
10.092238068580627
 30
0.0
 11
14.018
 21
10.092238068580627
 31
0.0
  0
LINE
  5
371
330
17
100
AcDbEntity
  8
0
100
AcDbLine
 10
1.2707599999999994
 20
10.592238068580627
 30
0.0
 11
1.4180000000000004
 21
10.592238068580627
 31
0.0
  0
LINE
  5
372
330
17
100
AcDbEntity
  8
0
100
AcDbLine
 10
1.2707599999999994
 20
10.592238068580627
 30
0.0
 11
1.4180000000000004
 21
10.592238068580627
 31
0.0
  0
LINE
  5
373
330
17
100
AcDbEntity
  8
0
100
AcDbLine
 10
2.3339999999999996
 20
10.592238068580627
 30
0.0
 11
3.0379999999999994
 21
10.592238068580627
 31
0.0
  0
LINE
  5
374
330
17
100
AcDbEntity
  8
0
100
AcDbLine
 10
3.0379999999999994
 20
10.592238068580627
 30
0.0
 11
3.2180000000000004
 21
10.592238068580627
 31
0.0
  0
LINE
  5
375
330
17
100
AcDbEntity
  8
0
100
AcDbLine
 10
4.134
 20
10.592238068580627
 30
0.0
 11
4.837999999999999
 21
10.592238068580627
 31
0.0
  0
LINE
  5
376
330
17
100
AcDbEntity
  8
0
100
AcDbLine
 10
4.837999999999999
 20
10.592238068580627
 30
0.0
 11
5.018000000000001
 21
10.592238068580627
 31
0.0
  0
LINE
  5
377
330
17
100
AcDbEntity
  8
0
100
AcDbLine
 10
5.934
 20
10.592238068580627
 30
0.0
 11
6.637999999999999
 21
10.592238068580627
 31
0.0
  0
LINE
  5
378
330
17
100
AcDbEntity
  8
0
100
AcDbLine
 10
6.637999999999999
 20
10.592238068580627
 30
0.0
 11
6.8180000000000005
 21
10.592238068580627
 31
0.0
  0
LINE
  5
379
330
17
100
AcDbEntity
  8
0
100
AcDbLine
 10
7.734
 20
10.592238068580627
 30
0.0
 11
7.914000000000001
 21
10.592238068580627
 31
0.0
  0
LINE
  5
37A
330
17
100
AcDbEntity
  8
0
100
AcDbLine
 10
7.914000000000001
 20
10.592238068580627
 30
0.0
 11
8.618
 21
10.592238068580627
 31
0.0
  0
LINE
  5
37B
330
17
100
AcDbEntity
  8
0
100
AcDbLine
 10
9.534
 20
10.592238068580627
 30
0.0
 11
10.238
 21
10.592238068580627
 31
0.0
  0
LINE
  5
37C
330
17
100
AcDbEntity
  8
0
100
AcDbLine
 10
10.238
 20
10.592238068580627
 30
0.0
 11
10.418
 21
10.592238068580627
 31
0.0
  0
LINE
  5
37D
330
17
100
AcDbEntity
  8
0
100
AcDbLine
 10
11.334
 20
10.592238068580627
 30
0.0
 11
12.037999999999998
 21
10.592238068580627
 31
0.0
  0
LINE
  5
37E
330
17
100
AcDbEntity
  8
0
100
AcDbLine
 10
12.037999999999998
 20
10.592238068580627
 30
0.0
 11
12.218
 21
10.592238068580627
 31
0.0
  0
LINE
  5
37F
330
17
100
AcDbEntity
  8
0
100
AcDbLine
 10
13.134
 20
10.592238068580627
 30
0.0
 11
13.838
 21
10.592238068580627
 31
0.0
  0
LINE
  5
380
330
17
100
AcDbEntity
  8
0
100
AcDbLine
 10
13.838
 20
10.592238068580627
 30
0.0
 11
14.018
 21
10.592238068580627
 31
0.0
  0
LINE
  5
381
330
17
100
AcDbEntity
  8
0
100
AcDbLine
 10
1.2689599999999994
 20
11.092238068580627
 30
0.0
 11
1.4180000000000004
 21
11.092238068580627
 31
0.0
  0
LINE
  5
382
330
17
100
AcDbEntity
  8
0
100
AcDbLine
 10
1.2689599999999994
 20
11.092238068580627
 30
0.0
 11
1.4180000000000004
 21
11.092238068580627
 31
0.0
  0
LINE
  5
383
330
17
100
AcDbEntity
  8
0
100
AcDbLine
 10
2.3339999999999996
 20
11.092238068580627
 30
0.0
 11
3.0379999999999994
 21
11.092238068580627
 31
0.0
  0
LINE
  5
384
330
17
100
AcDbEntity
  8
0
100
AcDbLine
 10
3.0379999999999994
 20
11.092238068580627
 30
0.0
 11
3.2180000000000004
 21
11.092238068580627
 31
0.0
  0
LINE
  5
385
330
17
100
AcDbEntity
  8
0
100
AcDbLine
 10
4.134
 20
11.092238068580627
 30
0.0
 11
4.837999999999999
 21
11.092238068580627
 31
0.0
  0
LINE
  5
386
330
17
100
AcDbEntity
  8
0
100
AcDbLine
 10
4.837999999999999
 20
11.092238068580627
 30
0.0
 11
5.018000000000001
 21
11.092238068580627
 31
0.0
  0
LINE
  5
387
330
17
100
AcDbEntity
  8
0
100
AcDbLine
 10
5.934
 20
11.092238068580627
 30
0.0
 11
6.637999999999999
 21
11.092238068580627
 31
0.0
  0
LINE
  5
388
330
17
100
AcDbEntity
  8
0
100
AcDbLine
 10
6.637999999999999
 20
11.092238068580627
 30
0.0
 11
6.8180000000000005
 21
11.092238068580627
 31
0.0
  0
LINE
  5
389
330
17
100
AcDbEntity
  8
0
100
AcDbLine
 10
7.734
 20
11.092238068580627
 30
0.0
 11
7.914000000000001
 21
11.092238068580627
 31
0.0
  0
LINE
  5
38A
330
17
100
AcDbEntity
  8
0
100
AcDbLine
 10
7.914000000000001
 20
11.092238068580627
 30
0.0
 11
8.618
 21
11.092238068580627
 31
0.0
  0
LINE
  5
38B
330
17
100
AcDbEntity
  8
0
100
AcDbLine
 10
9.534
 20
11.092238068580627
 30
0.0
 11
10.238
 21
11.092238068580627
 31
0.0
  0
LINE
  5
38C
330
17
100
AcDbEntity
  8
0
100
AcDbLine
 10
10.238
 20
11.092238068580627
 30
0.0
 11
10.418
 21
11.092238068580627
 31
0.0
  0
LINE
  5
38D
330
17
100
AcDbEntity
  8
0
100
AcDbLine
 10
11.334
 20
11.092238068580627
 30
0.0
 11
12.037999999999998
 21
11.092238068580627
 31
0.0
  0
LINE
  5
38E
330
17
100
AcDbEntity
  8
0
100
AcDbLine
 10
12.037999999999998
 20
11.092238068580627
 30
0.0
 11
12.218
 21
11.092238068580627
 31
0.0
  0
LINE
  5
38F
330
17
100
AcDbEntity
  8
0
100
AcDbLine
 10
13.134
 20
11.092238068580627
 30
0.0
 11
13.838
 21
11.092238068580627
 31
0.0
  0
LINE
  5
390
330
17
100
AcDbEntity
  8
0
100
AcDbLine
 10
13.838
 20
11.092238068580627
 30
0.0
 11
14.018
 21
11.092238068580627
 31
0.0
  0
LINE
  5
391
330
17
100
AcDbEntity
  8
0
100
AcDbLine
 10
1.2670399999999993
 20
11.592238068580627
 30
0.0
 11
1.4180000000000004
 21
11.592238068580627
 31
0.0
  0
LINE
  5
392
330
17
100
AcDbEntity
  8
0
100
AcDbLine
 10
1.2670399999999993
 20
11.592238068580627
 30
0.0
 11
1.4180000000000004
 21
11.592238068580627
 31
0.0
  0
LINE
  5
393
330
17
100
AcDbEntity
  8
0
100
AcDbLine
 10
2.3339999999999996
 20
11.592238068580627
 30
0.0
 11
3.0379999999999994
 21
11.592238068580627
 31
0.0
  0
LINE
  5
394
330
17
100
AcDbEntity
  8
0
100
AcDbLine
 10
3.0379999999999994
 20
11.592238068580627
 30
0.0
 11
3.2180000000000004
 21
11.592238068580627
 31
0.0
  0
LINE
  5
395
330
17
100
AcDbEntity
  8
0
100
AcDbLine
 10
4.134
 20
11.592238068580627
 30
0.0
 11
4.837999999999999
 21
11.592238068580627
 31
0.0
  0
LINE
  5
396
330
17
100
AcDbEntity
  8
0
100
AcDbLine
 10
4.837999999999999
 20
11.592238068580627
 30
0.0
 11
5.018000000000001
 21
11.592238068580627
 31
0.0
  0
LINE
  5
397
330
17
100
AcDbEntity
  8
0
100
AcDbLine
 10
5.934
 20
11.592238068580627
 30
0.0
 11
6.637999999999999
 21
11.592238068580627
 31
0.0
  0
LINE
  5
398
330
17
100
AcDbEntity
  8
0
100
AcDbLine
 10
6.637999999999999
 20
11.592238068580627
 30
0.0
 11
6.8180000000000005
 21
11.592238068580627
 31
0.0
  0
LINE
  5
399
330
17
100
AcDbEntity
  8
0
100
AcDbLine
 10
7.734
 20
11.592238068580627
 30
0.0
 11
7.914000000000001
 21
11.592238068580627
 31
0.0
  0
LINE
  5
39A
330
17
100
AcDbEntity
  8
0
100
AcDbLine
 10
7.914000000000001
 20
11.592238068580627
 30
0.0
 11
8.618
 21
11.592238068580627
 31
0.0
  0
LINE
  5
39B
330
17
100
AcDbEntity
  8
0
100
AcDbLine
 10
9.534
 20
11.592238068580627
 30
0.0
 11
10.238
 21
11.592238068580627
 31
0.0
  0
LINE
  5
39C
330
17
100
AcDbEntity
  8
0
100
AcDbLine
 10
10.238
 20
11.592238068580627
 30
0.0
 11
10.418
 21
11.592238068580627
 31
0.0
  0
LINE
  5
39D
330
17
100
AcDbEntity
  8
0
100
AcDbLine
 10
11.334
 20
11.592238068580627
 30
0.0
 11
12.037999999999998
 21
11.592238068580627
 31
0.0
  0
LINE
  5
39E
330
17
100
AcDbEntity
  8
0
100
AcDbLine
 10
12.037999999999998
 20
11.592238068580627
 30
0.0
 11
12.218
 21
11.592238068580627
 31
0.0
  0
LINE
  5
39F
330
17
100
AcDbEntity
  8
0
100
AcDbLine
 10
13.134
 20
11.592238068580627
 30
0.0
 11
13.838
 21
11.592238068580627
 31
0.0
  0
LINE
  5
3A0
330
17
100
AcDbEntity
  8
0
100
AcDbLine
 10
13.838
 20
11.592238068580627
 30
0.0
 11
14.018
 21
11.592238068580627
 31
0.0
  0
LINE
  5
3A1
330
17
100
AcDbEntity
  8
0
100
AcDbLine
 10
1.2652399999999993
 20
12.092238068580627
 30
0.0
 11
1.4180000000000004
 21
12.092238068580627
 31
0.0
  0
LINE
  5
3A2
330
17
100
AcDbEntity
  8
0
100
AcDbLine
 10
1.2652399999999993
 20
12.092238068580627
 30
0.0
 11
1.4180000000000004
 21
12.092238068580627
 31
0.0
  0
LINE
  5
3A3
330
17
100
AcDbEntity
  8
0
100
AcDbLine
 10
2.3339999999999996
 20
12.092238068580627
 30
0.0
 11
3.0379999999999994
 21
12.092238068580627
 31
0.0
  0
LINE
  5
3A4
330
17
100
AcDbEntity
  8
0
100
AcDbLine
 10
3.0379999999999994
 20
12.092238068580627
 30
0.0
 11
3.2180000000000004
 21
12.092238068580627
 31
0.0
  0
LINE
  5
3A5
330
17
100
AcDbEntity
  8
0
100
AcDbLine
 10
4.134
 20
12.092238068580627
 30
0.0
 11
4.837999999999999
 21
12.092238068580627
 31
0.0
  0
LINE
  5
3A6
330
17
100
AcDbEntity
  8
0
100
AcDbLine
 10
4.837999999999999
 20
12.092238068580627
 30
0.0
 11
5.018000000000001
 21
12.092238068580627
 31
0.0
  0
LINE
  5
3A7
330
17
100
AcDbEntity
  8
0
100
AcDbLine
 10
5.934
 20
12.092238068580627
 30
0.0
 11
6.637999999999999
 21
12.092238068580627
 31
0.0
  0
LINE
  5
3A8
330
17
100
AcDbEntity
  8
0
100
AcDbLine
 10
6.637999999999999
 20
12.092238068580627
 30
0.0
 11
6.8180000000000005
 21
12.092238068580627
 31
0.0
  0
LINE
  5
3A9
330
17
100
AcDbEntity
  8
0
100
AcDbLine
 10
7.734
 20
12.092238068580627
 30
0.0
 11
7.914000000000001
 21
12.092238068580627
 31
0.0
  0
LINE
  5
3AA
330
17
100
AcDbEntity
  8
0
100
AcDbLine
 10
7.914000000000001
 20
12.092238068580627
 30
0.0
 11
8.618
 21
12.092238068580627
 31
0.0
  0
LINE
  5
3AB
330
17
100
AcDbEntity
  8
0
100
AcDbLine
 10
9.534
 20
12.092238068580627
 30
0.0
 11
10.238
 21
12.092238068580627
 31
0.0
  0
LINE
  5
3AC
330
17
100
AcDbEntity
  8
0
100
AcDbLine
 10
10.238
 20
12.092238068580627
 30
0.0
 11
10.418
 21
12.092238068580627
 31
0.0
  0
LINE
  5
3AD
330
17
100
AcDbEntity
  8
0
100
AcDbLine
 10
11.334
 20
12.092238068580627
 30
0.0
 11
12.037999999999998
 21
12.092238068580627
 31
0.0
  0
LINE
  5
3AE
330
17
100
AcDbEntity
  8
0
100
AcDbLine
 10
12.037999999999998
 20
12.092238068580627
 30
0.0
 11
12.218
 21
12.092238068580627
 31
0.0
  0
LINE
  5
3AF
330
17
100
AcDbEntity
  8
0
100
AcDbLine
 10
13.134
 20
12.092238068580627
 30
0.0
 11
13.838
 21
12.092238068580627
 31
0.0
  0
LINE
  5
3B0
330
17
100
AcDbEntity
  8
0
100
AcDbLine
 10
13.838
 20
12.092238068580627
 30
0.0
 11
14.018
 21
12.092238068580627
 31
0.0
  0
LINE
  5
3B1
330
17
100
AcDbEntity
  8
0
100
AcDbLine
 10
1.2634399999999992
 20
12.592238068580627
 30
0.0
 11
1.4180000000000004
 21
12.592238068580627
 31
0.0
  0
LINE
  5
3B2
330
17
100
AcDbEntity
  8
0
100
AcDbLine
 10
1.2634399999999992
 20
12.592238068580627
 30
0.0
 11
1.4180000000000004
 21
12.592238068580627
 31
0.0
  0
LINE
  5
3B3
330
17
100
AcDbEntity
  8
0
100
AcDbLine
 10
2.3339999999999996
 20
12.592238068580627
 30
0.0
 11
3.0379999999999994
 21
12.592238068580627
 31
0.0
  0
LINE
  5
3B4
330
17
100
AcDbEntity
  8
0
100
AcDbLine
 10
3.0379999999999994
 20
12.592238068580627
 30
0.0
 11
3.2180000000000004
 21
12.592238068580627
 31
0.0
  0
LINE
  5
3B5
330
17
100
AcDbEntity
  8
0
100
AcDbLine
 10
4.134
 20
12.592238068580627
 30
0.0
 11
4.837999999999999
 21
12.592238068580627
 31
0.0
  0
LINE
  5
3B6
330
17
100
AcDbEntity
  8
0
100
AcDbLine
 10
4.837999999999999
 20
12.592238068580627
 30
0.0
 11
5.018000000000001
 21
12.592238068580627
 31
0.0
  0
LINE
  5
3B7
330
17
100
AcDbEntity
  8
0
100
AcDbLine
 10
5.934
 20
12.592238068580627
 30
0.0
 11
6.637999999999999
 21
12.592238068580627
 31
0.0
  0
LINE
  5
3B8
330
17
100
AcDbEntity
  8
0
100
AcDbLine
 10
6.637999999999999
 20
12.592238068580627
 30
0.0
 11
6.8180000000000005
 21
12.592238068580627
 31
0.0
  0
LINE
  5
3B9
330
17
100
AcDbEntity
  8
0
100
AcDbLine
 10
7.734
 20
12.592238068580627
 30
0.0
 11
7.914000000000001
 21
12.592238068580627
 31
0.0
  0
LINE
  5
3BA
330
17
100
AcDbEntity
  8
0
100
AcDbLine
 10
7.914000000000001
 20
12.592238068580627
 30
0.0
 11
8.618
 21
12.592238068580627
 31
0.0
  0
LINE
  5
3BB
330
17
100
AcDbEntity
  8
0
100
AcDbLine
 10
9.534
 20
12.592238068580627
 30
0.0
 11
10.238
 21
12.592238068580627
 31
0.0
  0
LINE
  5
3BC
330
17
100
AcDbEntity
  8
0
100
AcDbLine
 10
10.238
 20
12.592238068580627
 30
0.0
 11
10.418
 21
12.592238068580627
 31
0.0
  0
LINE
  5
3BD
330
17
100
AcDbEntity
  8
0
100
AcDbLine
 10
11.334
 20
12.592238068580627
 30
0.0
 11
12.037999999999998
 21
12.592238068580627
 31
0.0
  0
LINE
  5
3BE
330
17
100
AcDbEntity
  8
0
100
AcDbLine
 10
12.037999999999998
 20
12.592238068580627
 30
0.0
 11
12.218
 21
12.592238068580627
 31
0.0
  0
LINE
  5
3BF
330
17
100
AcDbEntity
  8
0
100
AcDbLine
 10
13.134
 20
12.592238068580627
 30
0.0
 11
13.838
 21
12.592238068580627
 31
0.0
  0
LINE
  5
3C0
330
17
100
AcDbEntity
  8
0
100
AcDbLine
 10
13.838
 20
12.592238068580627
 30
0.0
 11
14.018
 21
12.592238068580627
 31
0.0
  0
LINE
  5
3C1
330
17
100
AcDbEntity
  8
0
100
AcDbLine
 10
1.2649999999999992
 20
13.092238068580627
 30
0.0
 11
1.4180000000000004
 21
13.092238068580627
 31
0.0
  0
LINE
  5
3C2
330
17
100
AcDbEntity
  8
0
100
AcDbLine
 10
1.2649999999999992
 20
13.092238068580627
 30
0.0
 11
1.4180000000000004
 21
13.092238068580627
 31
0.0
  0
LINE
  5
3C3
330
17
100
AcDbEntity
  8
0
100
AcDbLine
 10
2.3339999999999996
 20
13.092238068580627
 30
0.0
 11
3.0379999999999994
 21
13.092238068580627
 31
0.0
  0
LINE
  5
3C4
330
17
100
AcDbEntity
  8
0
100
AcDbLine
 10
3.0379999999999994
 20
13.092238068580627
 30
0.0
 11
3.2180000000000004
 21
13.092238068580627
 31
0.0
  0
LINE
  5
3C5
330
17
100
AcDbEntity
  8
0
100
AcDbLine
 10
4.134
 20
13.092238068580627
 30
0.0
 11
4.837999999999999
 21
13.092238068580627
 31
0.0
  0
LINE
  5
3C6
330
17
100
AcDbEntity
  8
0
100
AcDbLine
 10
4.837999999999999
 20
13.092238068580627
 30
0.0
 11
5.018000000000001
 21
13.092238068580627
 31
0.0
  0
LINE
  5
3C7
330
17
100
AcDbEntity
  8
0
100
AcDbLine
 10
5.934
 20
13.092238068580627
 30
0.0
 11
6.637999999999999
 21
13.092238068580627
 31
0.0
  0
LINE
  5
3C8
330
17
100
AcDbEntity
  8
0
100
AcDbLine
 10
6.637999999999999
 20
13.092238068580627
 30
0.0
 11
6.8180000000000005
 21
13.092238068580627
 31
0.0
  0
LINE
  5
3C9
330
17
100
AcDbEntity
  8
0
100
AcDbLine
 10
7.734
 20
13.092238068580627
 30
0.0
 11
7.914000000000001
 21
13.092238068580627
 31
0.0
  0
LINE
  5
3CA
330
17
100
AcDbEntity
  8
0
100
AcDbLine
 10
7.914000000000001
 20
13.092238068580627
 30
0.0
 11
8.618
 21
13.092238068580627
 31
0.0
  0
LINE
  5
3CB
330
17
100
AcDbEntity
  8
0
100
AcDbLine
 10
9.534
 20
13.092238068580627
 30
0.0
 11
10.238
 21
13.092238068580627
 31
0.0
  0
LINE
  5
3CC
330
17
100
AcDbEntity
  8
0
100
AcDbLine
 10
10.238
 20
13.092238068580627
 30
0.0
 11
10.418
 21
13.092238068580627
 31
0.0
  0
LINE
  5
3CD
330
17
100
AcDbEntity
  8
0
100
AcDbLine
 10
11.334
 20
13.092238068580627
 30
0.0
 11
12.037999999999998
 21
13.092238068580627
 31
0.0
  0
LINE
  5
3CE
330
17
100
AcDbEntity
  8
0
100
AcDbLine
 10
12.037999999999998
 20
13.092238068580627
 30
0.0
 11
12.218
 21
13.092238068580627
 31
0.0
  0
LINE
  5
3CF
330
17
100
AcDbEntity
  8
0
100
AcDbLine
 10
13.134
 20
13.092238068580627
 30
0.0
 11
13.838
 21
13.092238068580627
 31
0.0
  0
LINE
  5
3D0
330
17
100
AcDbEntity
  8
0
100
AcDbLine
 10
13.838
 20
13.092238068580627
 30
0.0
 11
14.018
 21
13.092238068580627
 31
0.0
  0
LINE
  5
3D1
330
17
100
AcDbEntity
  8
0
100
AcDbLine
 10
1.2721999999999993
 20
13.592238068580627
 30
0.0
 11
1.4180000000000004
 21
13.592238068580627
 31
0.0
  0
LINE
  5
3D2
330
17
100
AcDbEntity
  8
0
100
AcDbLine
 10
1.2721999999999993
 20
13.592238068580627
 30
0.0
 11
1.4180000000000004
 21
13.592238068580627
 31
0.0
  0
LINE
  5
3D3
330
17
100
AcDbEntity
  8
0
100
AcDbLine
 10
2.3339999999999996
 20
13.592238068580627
 30
0.0
 11
3.0379999999999994
 21
13.592238068580627
 31
0.0
  0
LINE
  5
3D4
330
17
100
AcDbEntity
  8
0
100
AcDbLine
 10
3.0379999999999994
 20
13.592238068580627
 30
0.0
 11
3.2180000000000004
 21
13.592238068580627
 31
0.0
  0
LINE
  5
3D5
330
17
100
AcDbEntity
  8
0
100
AcDbLine
 10
4.134
 20
13.592238068580627
 30
0.0
 11
4.837999999999999
 21
13.592238068580627
 31
0.0
  0
LINE
  5
3D6
330
17
100
AcDbEntity
  8
0
100
AcDbLine
 10
4.837999999999999
 20
13.592238068580627
 30
0.0
 11
5.018000000000001
 21
13.592238068580627
 31
0.0
  0
LINE
  5
3D7
330
17
100
AcDbEntity
  8
0
100
AcDbLine
 10
5.934
 20
13.592238068580627
 30
0.0
 11
6.637999999999999
 21
13.592238068580627
 31
0.0
  0
LINE
  5
3D8
330
17
100
AcDbEntity
  8
0
100
AcDbLine
 10
6.637999999999999
 20
13.592238068580627
 30
0.0
 11
6.8180000000000005
 21
13.592238068580627
 31
0.0
  0
LINE
  5
3D9
330
17
100
AcDbEntity
  8
0
100
AcDbLine
 10
7.734
 20
13.592238068580627
 30
0.0
 11
7.914000000000001
 21
13.592238068580627
 31
0.0
  0
LINE
  5
3DA
330
17
100
AcDbEntity
  8
0
100
AcDbLine
 10
7.914000000000001
 20
13.592238068580627
 30
0.0
 11
8.618
 21
13.592238068580627
 31
0.0
  0
LINE
  5
3DB
330
17
100
AcDbEntity
  8
0
100
AcDbLine
 10
9.534
 20
13.592238068580627
 30
0.0
 11
10.238
 21
13.592238068580627
 31
0.0
  0
LINE
  5
3DC
330
17
100
AcDbEntity
  8
0
100
AcDbLine
 10
10.238
 20
13.592238068580627
 30
0.0
 11
10.418
 21
13.592238068580627
 31
0.0
  0
LINE
  5
3DD
330
17
100
AcDbEntity
  8
0
100
AcDbLine
 10
11.334
 20
13.592238068580627
 30
0.0
 11
12.037999999999998
 21
13.592238068580627
 31
0.0
  0
LINE
  5
3DE
330
17
100
AcDbEntity
  8
0
100
AcDbLine
 10
12.037999999999998
 20
13.592238068580627
 30
0.0
 11
12.218
 21
13.592238068580627
 31
0.0
  0
LINE
  5
3DF
330
17
100
AcDbEntity
  8
0
100
AcDbLine
 10
13.134
 20
13.592238068580627
 30
0.0
 11
13.838
 21
13.592238068580627
 31
0.0
  0
LINE
  5
3E0
330
17
100
AcDbEntity
  8
0
100
AcDbLine
 10
13.838
 20
13.592238068580627
 30
0.0
 11
14.018
 21
13.592238068580627
 31
0.0
  0
LINE
  5
3E1
330
17
100
AcDbEntity
  8
0
100
AcDbLine
 10
1.2893599999999994
 20
14.092238068580627
 30
0.0
 11
1.4180000000000004
 21
14.092238068580627
 31
0.0
  0
LINE
  5
3E2
330
17
100
AcDbEntity
  8
0
100
AcDbLine
 10
1.2893599999999994
 20
14.092238068580627
 30
0.0
 11
1.4180000000000004
 21
14.092238068580627
 31
0.0
  0
LINE
  5
3E3
330
17
100
AcDbEntity
  8
0
100
AcDbLine
 10
2.3339999999999996
 20
14.092238068580627
 30
0.0
 11
3.0379999999999994
 21
14.092238068580627
 31
0.0
  0
LINE
  5
3E4
330
17
100
AcDbEntity
  8
0
100
AcDbLine
 10
3.0379999999999994
 20
14.092238068580627
 30
0.0
 11
3.2180000000000004
 21
14.092238068580627
 31
0.0
  0
LINE
  5
3E5
330
17
100
AcDbEntity
  8
0
100
AcDbLine
 10
4.134
 20
14.092238068580627
 30
0.0
 11
4.837999999999999
 21
14.092238068580627
 31
0.0
  0
LINE
  5
3E6
330
17
100
AcDbEntity
  8
0
100
AcDbLine
 10
4.837999999999999
 20
14.092238068580627
 30
0.0
 11
5.018000000000001
 21
14.092238068580627
 31
0.0
  0
LINE
  5
3E7
330
17
100
AcDbEntity
  8
0
100
AcDbLine
 10
5.934
 20
14.092238068580627
 30
0.0
 11
6.637999999999999
 21
14.092238068580627
 31
0.0
  0
LINE
  5
3E8
330
17
100
AcDbEntity
  8
0
100
AcDbLine
 10
6.637999999999999
 20
14.092238068580627
 30
0.0
 11
6.8180000000000005
 21
14.092238068580627
 31
0.0
  0
LINE
  5
3E9
330
17
100
AcDbEntity
  8
0
100
AcDbLine
 10
7.734
 20
14.092238068580627
 30
0.0
 11
7.914000000000001
 21
14.092238068580627
 31
0.0
  0
LINE
  5
3EA
330
17
100
AcDbEntity
  8
0
100
AcDbLine
 10
7.914000000000001
 20
14.092238068580627
 30
0.0
 11
8.618
 21
14.092238068580627
 31
0.0
  0
LINE
  5
3EB
330
17
100
AcDbEntity
  8
0
100
AcDbLine
 10
9.534
 20
14.092238068580627
 30
0.0
 11
10.238
 21
14.092238068580627
 31
0.0
  0
LINE
  5
3EC
330
17
100
AcDbEntity
  8
0
100
AcDbLine
 10
10.238
 20
14.092238068580627
 30
0.0
 11
10.418
 21
14.092238068580627
 31
0.0
  0
LINE
  5
3ED
330
17
100
AcDbEntity
  8
0
100
AcDbLine
 10
11.334
 20
14.092238068580627
 30
0.0
 11
12.037999999999998
 21
14.092238068580627
 31
0.0
  0
LINE
  5
3EE
330
17
100
AcDbEntity
  8
0
100
AcDbLine
 10
12.037999999999998
 20
14.092238068580627
 30
0.0
 11
12.218
 21
14.092238068580627
 31
0.0
  0
LINE
  5
3EF
330
17
100
AcDbEntity
  8
0
100
AcDbLine
 10
13.134
 20
14.092238068580627
 30
0.0
 11
13.838
 21
14.092238068580627
 31
0.0
  0
LINE
  5
3F0
330
17
100
AcDbEntity
  8
0
100
AcDbLine
 10
13.838
 20
14.092238068580627
 30
0.0
 11
14.018
 21
14.092238068580627
 31
0.0
  0
LINE
  5
3F1
330
17
100
AcDbEntity
  8
0
100
AcDbLine
 10
1.3574
 20
14.592238068580627
 30
0.0
 11
1.4180000000000004
 21
14.592238068580627
 31
0.0
  0
LINE
  5
3F2
330
17
100
AcDbEntity
  8
0
100
AcDbLine
 10
1.3574
 20
14.592238068580627
 30
0.0
 11
1.4180000000000004
 21
14.592238068580627
 31
0.0
  0
LINE
  5
3F3
330
17
100
AcDbEntity
  8
0
100
AcDbLine
 10
2.3339999999999996
 20
14.592238068580627
 30
0.0
 11
3.0379999999999994
 21
14.592238068580627
 31
0.0
  0
LINE
  5
3F4
330
17
100
AcDbEntity
  8
0
100
AcDbLine
 10
3.0379999999999994
 20
14.592238068580627
 30
0.0
 11
3.2180000000000004
 21
14.592238068580627
 31
0.0
  0
LINE
  5
3F5
330
17
100
AcDbEntity
  8
0
100
AcDbLine
 10
4.134
 20
14.592238068580627
 30
0.0
 11
4.837999999999999
 21
14.592238068580627
 31
0.0
  0
LINE
  5
3F6
330
17
100
AcDbEntity
  8
0
100
AcDbLine
 10
4.837999999999999
 20
14.592238068580627
 30
0.0
 11
5.018000000000001
 21
14.592238068580627
 31
0.0
  0
LINE
  5
3F7
330
17
100
AcDbEntity
  8
0
100
AcDbLine
 10
5.934
 20
14.592238068580627
 30
0.0
 11
6.637999999999999
 21
14.592238068580627
 31
0.0
  0
LINE
  5
3F8
330
17
100
AcDbEntity
  8
0
100
AcDbLine
 10
6.637999999999999
 20
14.592238068580627
 30
0.0
 11
6.8180000000000005
 21
14.592238068580627
 31
0.0
  0
LINE
  5
3F9
330
17
100
AcDbEntity
  8
0
100
AcDbLine
 10
7.734
 20
14.592238068580627
 30
0.0
 11
7.914000000000001
 21
14.592238068580627
 31
0.0
  0
LINE
  5
3FA
330
17
100
AcDbEntity
  8
0
100
AcDbLine
 10
7.914000000000001
 20
14.592238068580627
 30
0.0
 11
8.618
 21
14.592238068580627
 31
0.0
  0
LINE
  5
3FB
330
17
100
AcDbEntity
  8
0
100
AcDbLine
 10
9.534
 20
14.592238068580627
 30
0.0
 11
10.238
 21
14.592238068580627
 31
0.0
  0
LINE
  5
3FC
330
17
100
AcDbEntity
  8
0
100
AcDbLine
 10
10.238
 20
14.592238068580627
 30
0.0
 11
10.418
 21
14.592238068580627
 31
0.0
  0
LINE
  5
3FD
330
17
100
AcDbEntity
  8
0
100
AcDbLine
 10
11.334
 20
14.592238068580627
 30
0.0
 11
12.037999999999998
 21
14.592238068580627
 31
0.0
  0
LINE
  5
3FE
330
17
100
AcDbEntity
  8
0
100
AcDbLine
 10
12.037999999999998
 20
14.592238068580627
 30
0.0
 11
12.218
 21
14.592238068580627
 31
0.0
  0
LINE
  5
3FF
330
17
100
AcDbEntity
  8
0
100
AcDbLine
 10
13.134
 20
14.592238068580627
 30
0.0
 11
13.838
 21
14.592238068580627
 31
0.0
  0
LINE
  5
400
330
17
100
AcDbEntity
  8
0
100
AcDbLine
 10
13.838
 20
14.592238068580627
 30
0.0
 11
14.018
 21
14.592238068580627
 31
0.0
  0
ENDSEC
  0
SECTION
  2
OBJECTS
  0
DICTIONARY
  5
A
330
0
100
AcDbDictionary
281
1
  3
ACAD_COLOR
350
B
  3
ACAD_GROUP
350
C
  3
ACAD_LAYOUT
350
D
  3
ACAD_MATERIAL
350
E
  3
ACAD_MLEADERSTYLE
350
F
  3
ACAD_MLINESTYLE
350
10
  3
ACAD_PLOTSETTINGS
350
11
  3
ACAD_PLOTSTYLENAME
350
12
  3
ACAD_SCALELIST
350
14
  3
ACAD_TABLESTYLE
350
15
  3
ACAD_VISUALSTYLE
350
16
  3
EZDXF_META
350
2D
  0
DICTIONARY
  5
B
330
A
100
AcDbDictionary
281
1
  0
DICTIONARY
  5
C
330
A
100
AcDbDictionary
281
1
  0
DICTIONARY
  5
D
330
A
100
AcDbDictionary
281
1
  3
Model
350
1A
  3
Layout1
350
1E
  0
DICTIONARY
  5
E
330
A
100
AcDbDictionary
281
1
  3
ByBlock
350
1F
  3
ByLayer
350
20
  3
Global
350
21
  0
DICTIONARY
  5
F
330
A
100
AcDbDictionary
281
1
  3
Standard
350
2C
  0
DICTIONARY
  5
10
330
A
100
AcDbDictionary
281
1
  3
Standard
350
22
  0
DICTIONARY
  5
11
330
A
100
AcDbDictionary
281
1
  0
ACDBDICTIONARYWDFLT
  5
12
330
A
100
AcDbDictionary
281
1
  3
Normal
350
13
100
AcDbDictionaryWithDefault
340
13
  0
ACDBPLACEHOLDER
  5
13
330
12
  0
DICTIONARY
  5
14
330
A
100
AcDbDictionary
281
1
  0
DICTIONARY
  5
15
330
A
100
AcDbDictionary
281
1
  0
DICTIONARY
  5
16
330
A
100
AcDbDictionary
281
1
  0
LAYOUT
  5
1A
330
D
100
AcDbPlotSettings
  1

  4
A3
  6

 40
7.5
 41
20.0
 42
7.5
 43
20.0
 44
420.0
 45
297.0
 46
0.0
 47
0.0
 48
0.0
 49
0.0
140
0.0
141
0.0
142
1.0
143
1.0
 70
1024
 72
1
 73
0
 74
5
  7

 75
16
 76
0
 77
2
 78
300
147
1.0
148
0.0
149
0.0
100
AcDbLayout
  1
Model
 70
1
 71
0
 10
0.0
 20
0.0
 11
420.0
 21
297.0
 12
0.0
 22
0.0
 32
0.0
 14
1e+20
 24
1e+20
 34
1e+20
 15
-1e+20
 25
-1e+20
 35
-1e+20
146
0.0
 13
0.0
 23
0.0
 33
0.0
 16
1.0
 26
0.0
 36
0.0
 17
0.0
 27
1.0
 37
0.0
 76
1
330
17
  0
LAYOUT
  5
1E
330
D
100
AcDbPlotSettings
  1

  4
A3
  6

 40
7.5
 41
20.0
 42
7.5
 43
20.0
 44
420.0
 45
297.0
 46
0.0
 47
0.0
 48
0.0
 49
0.0
140
0.0
141
0.0
142
1.0
143
1.0
 70
0
 72
1
 73
0
 74
5
  7

 75
16
 76
0
 77
2
 78
300
147
1.0
148
0.0
149
0.0
100
AcDbLayout
  1
Layout1
 70
1
 71
1
 10
0.0
 20
0.0
 11
420.0
 21
297.0
 12
0.0
 22
0.0
 32
0.0
 14
1e+20
 24
1e+20
 34
1e+20
 15
-1e+20
 25
-1e+20
 35
-1e+20
146
0.0
 13
0.0
 23
0.0
 33
0.0
 16
1.0
 26
0.0
 36
0.0
 17
0.0
 27
1.0
 37
0.0
 76
1
330
1B
  0
MATERIAL
  5
1F
102
{ACAD_REACTORS
330
E
102
}
330
E
100
AcDbMaterial
  1
ByBlock
  2

 70
0
 40
1.0
 71
1
 41
1.0
 91
-1023410177
 42
1.0
 72
1
  3

 73
1
 74
1
 75
1
 44
0.5
 73
0
 45
1.0
 46
1.0
 77
1
  4

 78
1
 79
1
170
1
 48
1.0
171
1
  6

172
1
173
1
174
1
140
1.0
141
1.0
175
1
  7

176
1
177
1
178
1
143
1.0
179
1
  8

270
1
271
1
272
1
145
1.0
146
1.0
273
1
  9

274
1
275
1
276
1
 42
1.0
 72
1
  3

 73
1
 74
1
 75
1
 94
63
  0
MATERIAL
  5
20
102
{ACAD_REACTORS
330
E
102
}
330
E
100
AcDbMaterial
  1
ByLayer
  2

 70
0
 40
1.0
 71
1
 41
1.0
 91
-1023410177
 42
1.0
 72
1
  3

 73
1
 74
1
 75
1
 44
0.5
 73
0
 45
1.0
 46
1.0
 77
1
  4

 78
1
 79
1
170
1
 48
1.0
171
1
  6

172
1
173
1
174
1
140
1.0
141
1.0
175
1
  7

176
1
177
1
178
1
143
1.0
179
1
  8

270
1
271
1
272
1
145
1.0
146
1.0
273
1
  9

274
1
275
1
276
1
 42
1.0
 72
1
  3

 73
1
 74
1
 75
1
 94
63
  0
MATERIAL
  5
21
102
{ACAD_REACTORS
330
E
102
}
330
E
100
AcDbMaterial
  1
Global
  2

 70
0
 40
1.0
 71
1
 41
1.0
 91
-1023410177
 42
1.0
 72
1
  3

 73
1
 74
1
 75
1
 44
0.5
 73
0
 45
1.0
 46
1.0
 77
1
  4

 78
1
 79
1
170
1
 48
1.0
171
1
  6

172
1
173
1
174
1
140
1.0
141
1.0
175
1
  7

176
1
177
1
178
1
143
1.0
179
1
  8

270
1
271
1
272
1
145
1.0
146
1.0
273
1
  9

274
1
275
1
276
1
 42
1.0
 72
1
  3

 73
1
 74
1
 75
1
 94
63
  0
MLINESTYLE
  5
22
102
{ACAD_REACTORS
330
10
102
}
330
10
100
AcDbMlineStyle
  2
Standard
 70
0
  3

 62
256
 51
90.0
 52
90.0
 71
2
 49
0.5
 62
256
  6
BYLAYER
 49
-0.5
 62
256
  6
BYLAYER
  0
MLEADERSTYLE
  5
2C
102
{ACAD_REACTORS
330
F
102
}
330
F
100
AcDbMLeaderStyle
179
2
170
2
171
1
172
0
 90
2
 40
0.0
 41
0.0
173
1
 91
-1056964608
 92
-2
290
1
 42
2.0
291
1
 43
8.0
  3
Standard
 44
4.0
300

342
29
174
1
175
1
176
0
178
1
 93
-1056964608
 45
4.0
292
0
297
0
 46
4.0
 94
-1056964608
 47
1.0
 49
1.0
140
1.0
294
1
141
0.0
177
0
142
1.0
295
0
296
0
143
3.75
271
0
272
9
273
9
  0
DICTIONARY
  5
2D
330
A
100
AcDbDictionary
280
1
281
1
  3
CREATED_BY_EZDXF
350
2E
  3
WRITTEN_BY_EZDXF
350
403
  0
DICTIONARYVAR
  5
2E
330
2D
100
DictionaryVariables
280
0
  1
1.4.2 @ 2025-07-31T13:08:16.012249+00:00
  0
DICTIONARYVAR
  5
403
330
2D
100
DictionaryVariables
280
0
  1
1.4.2 @ 2025-07-31T13:08:16.074748+00:00
  0
ENDSEC
  0
EOF
