  0
SECTION
  2
HEADER
  9
$ACADVER
  1
AC1009
  9
$DWGCODEPAGE
  3
ANSI_1252
  9
$INSBASE
 10
0.0
 20
0.0
 30
0.0
  9
$EXTMIN
 10
1e+20
 20
1e+20
 30
1e+20
  9
$EXTMAX
 10
-1e+20
 20
-1e+20
 30
-1e+20
  9
$LIMMIN
 10
0.0
 20
0.0
  9
$LIMMAX
 10
420.0
 20
297.0
  9
$ORTHOMODE
 70
0
  9
$REGENMODE
 70
1
  9
$FILLMODE
 70
1
  9
$DRAGMODE
 70
2
  9
$QTEXTMODE
 70
0
  9
$MIRRTEXT
 70
1
  9
$OSMODE
 70
20583
  9
$LTSCALE
 40
1.0
  9
$ATTMODE
 70
1
  9
$TEXTSIZE
 40
2.5
  9
$TRACEWID
 40
1.0
  9
$TEXTSTYLE
  7
Standard
  9
$CLAYER
  8
0
  9
$CELTYPE
  6
ByLayer
  9
$CECOLOR
 62
256
  9
$DIMSCALE
 40
1.0
  9
$DIMASZ
 40
2.5
  9
$DIMEXO
 40
0.625
  9
$DIMDLI
 40
3.75
  9
$DIMRND
 40
0.0
  9
$DIMDLE
 40
0.0
  9
$DIMEXE
 40
1.25
  9
$DIMTP
 40
0.0
  9
$DIMTM
 40
0.0
  9
$DIMTXT
 40
2.5
  9
$DIMCEN
 40
2.5
  9
$DIMTSZ
 40
0.0
  9
$DIMTOL
 70
0
  9
$DIMLIM
 70
0
  9
$DIMTIH
 70
0
  9
$DIMTOH
 70
0
  9
$DIMSE1
 70
0
  9
$DIMSE2
 70
0
  9
$DIMTAD
 70
1
  9
$DIMZIN
 70
8
  9
$DIMBLK
  1

  9
$DIMASO
 70
1
  9
$DIMSHO
 70
1
  9
$DIMPOST
  1

  9
$DIMAPOST
  1

  9
$DIMALT
 70
0
  9
$DIMALTD
 70
3
  9
$DIMALTF
 40
0.03937007874
  9
$DIMLFAC
 40
1.0
  9
$DIMTOFL
 70
1
  9
$DIMTVP
 40
0.0
  9
$DIMTIX
 70
0
  9
$DIMSOXD
 70
0
  9
$DIMSAH
 70
0
  9
$DIMBLK1
  1

  9
$DIMBLK2
  1

  9
$DIMSTYLE
  2
ISO-25
  9
$DIMCLRD
 70
0
  9
$DIMCLRE
 70
0
  9
$DIMCLRT
 70
0
  9
$DIMTFAC
 40
1.0
  9
$DIMGAP
 40
0.625
  9
$COORDS
 70
1
  9
$ATTDIA
 70
0
  9
$ATTREQ
 70
1
  9
$HANDLING
 70
1
  9
$LUNITS
 70
2
  9
$LUPREC
 70
4
  9
$SKETCHINC
 40
1.0
  9
$FILLETRAD
 40
10.0
  9
$AUNITS
 70
0
  9
$AUPREC
 70
2
  9
$MENU
  1
.
  9
$ELEVATION
 40
0.0
  9
$PELEVATION
 40
0.0
  9
$THICKNESS
 40
0.0
  9
$LIMCHECK
 70
0
  9
$CHAMFERA
 40
0.0
  9
$CHAMFERB
 40
0.0
  9
$SKPOLY
 70
0
  9
$TDCREATE
 40
2460887.5097916666
  9
$TDUPDATE
 40
2460887.5097916666
  9
$TDINDWG
 40
0.0
  9
$TDUSRTIMER
 40
0.0
  9
$USRTIMER
 70
1
  9
$ANGBASE
 50
0.0
  9
$ANGDIR
 70
0
  9
$PDMODE
 70
0
  9
$PDSIZE
 40
0.0
  9
$PLINEWID
 40
0.0
  9
$SPLFRAME
 70
0
  9
$SPLINETYPE
 70
6
  9
$SPLINESEGS
 70
8
  9
$HANDSEED
  5
164
  9
$SURFTAB1
 70
6
  9
$SURFTAB2
 70
6
  9
$SURFTYPE
 70
6
  9
$SURFU
 70
6
  9
$SURFV
 70
6
  9
$UCSNAME
  2

  9
$UCSORG
 10
0.0
 20
0.0
 30
0.0
  9
$UCSXDIR
 10
1.0
 20
0.0
 30
0.0
  9
$UCSYDIR
 10
0.0
 20
1.0
 30
0.0
  9
$PUCSNAME
  2

  9
$PUCSORG
 10
0.0
 20
0.0
 30
0.0
  9
$PUCSXDIR
 10
1.0
 20
0.0
 30
0.0
  9
$PUCSYDIR
 10
0.0
 20
1.0
 30
0.0
  9
$USERI1
 70
0
  9
$USERI2
 70
0
  9
$USERI3
 70
0
  9
$USERI4
 70
0
  9
$USERI5
 70
0
  9
$USERR1
 40
0.0
  9
$USERR2
 40
0.0
  9
$USERR3
 40
0.0
  9
$USERR4
 40
0.0
  9
$USERR5
 40
0.0
  9
$WORLDVIEW
 70
1
  9
$SHADEDGE
 70
3
  9
$SHADEDIF
 70
70
  9
$TILEMODE
 70
1
  9
$MAXACTVP
 70
64
  9
$PLIMCHECK
 70
0
  9
$PEXTMIN
 10
1e+20
 20
1e+20
 30
1e+20
  9
$PEXTMAX
 10
-1e+20
 20
-1e+20
 30
-1e+20
  9
$PLIMMIN
 10
0.0
 20
0.0
  9
$PLIMMAX
 10
420.0
 20
297.0
  9
$UNITMODE
 70
0
  9
$VISRETAIN
 70
1
  9
$PLINEGEN
 70
0
  9
$PSLTSCALE
 70
1
  0
ENDSEC
  0
SECTION
  2
TABLES
  0
TABLE
  2
VPORT
 70
1
  0
VPORT
  5
23
  2
*Active
 70
0
 10
0.0
 20
0.0
 11
1.0
 21
1.0
 12
0.0
 22
0.0
 13
0.0
 23
0.0
 14
0.5
 24
0.5
 15
0.5
 25
0.5
 16
0.0
 26
0.0
 36
1.0
 17
0.0
 27
0.0
 37
0.0
 40
1000.0
 41
1.34
 42
50.0
 43
0.0
 44
0.0
 50
0.0
 51
0.0
 71
0
 72
1000
 73
1
 74
3
 75
0
 76
0
 77
0
 78
0
  0
ENDTAB
  0
TABLE
  2
LTYPE
 70
3
  0
LTYPE
  5
24
  2
ByBlock
 70
0
  3

 72
65
 73
0
 40
0.0
  0
LTYPE
  5
25
  2
ByLayer
 70
0
  3

 72
65
 73
0
 40
0.0
  0
LTYPE
  5
26
  2
Continuous
 70
0
  3

 72
65
 73
0
 40
0.0
  0
ENDTAB
  0
TABLE
  2
LAYER
 70
2
  0
LAYER
  5
27
  2
0
 70
0
 62
7
  6
Continuous
  0
LAYER
  5
28
  2
Defpoints
 70
0
 62
7
  6
Continuous
  0
ENDTAB
  0
TABLE
  2
STYLE
 70
1
  0
STYLE
  5
29
  2
Standard
 70
0
 40
0.0
 41
1.0
 50
0.0
 71
0
 42
2.5
  3
txt
  4

  0
ENDTAB
  0
TABLE
  2
VIEW
 70
0
  0
ENDTAB
  0
TABLE
  2
UCS
 70
0
  0
ENDTAB
  0
TABLE
  2
APPID
 70
3
  0
APPID
  5
2A
  2
ACAD
 70
0
  0
APPID
  5
162
  2
HATCHBACKGROUNDCOLOR
 70
0
  0
APPID
  5
163
  2
EZDXF
 70
0
  0
ENDTAB
  0
TABLE
  2
DIMSTYLE
 70
1
  0
DIMSTYLE
105
2B
  2
Standard
 70
0
  3

  4

  5

  6

  7

 40
1.0
 41
2.5
 42
0.625
 43
3.75
 44
1.25
 45
0.0
 46
0.0
 47
0.0
 48
0.0
140
2.5
141
2.5
142
0.0
143
0.03937007874
144
1.0
145
0.0
146
1.0
147
0.625
 71
0
 72
0
 73
0
 74
0
 75
0
 76
0
 77
1
 78
8
170
0
171
3
172
1
173
0
174
0
175
0
176
0
177
0
178
0
  0
ENDTAB
  0
ENDSEC
  0
SECTION
  2
BLOCKS
  0
BLOCK
  5
18
  8
0
  2
$Model_Space
 70
0
 10
0.0
 20
0.0
 30
0.0
  3
$Model_Space
  1

1001
EZDXF
1000
CREATED_BY_EZDXF
1000
1.4.2 @ 2025-07-30T15:14:06.391331+00:00
1000
WRITTEN_BY_EZDXF
1000
1.4.2 @ 2025-07-30T15:14:06.406955+00:00
  0
ENDBLK
  5
19
  8
0
  0
BLOCK
  5
1C
  8
0
  2
$Paper_Space
 70
0
 10
0.0
 20
0.0
 30
0.0
  3
$Paper_Space
  1

  0
ENDBLK
  5
1D
  8
0
  0
ENDSEC
  0
SECTION
  2
ENTITIES
  0
LINE
  5
2D
  8
0
 10
2.495805
 20
0.433891
 30
0.0
 11
4.089008
 21
0.484313
 31
0.0
  0
LINE
  5
2E
  8
0
 10
2.495805
 20
0.433891
 30
0.0
 11
4.089008
 21
0.484313
 31
0.0
  0
LINE
  5
2F
  8
0
 10
4.994554
 20
0.512972
 30
0.0
 11
6.587757
 21
0.563394
 31
0.0
  0
LINE
  5
30
  8
0
 10
7.493367
 20
0.576983
 30
0.0
 11
9.086909
 21
0.53877
 31
0.0
  0
LINE
  5
31
  8
0
 10
9.992649
 20
0.51705
 30
0.0
 11
11.586191
 21
0.478837
 31
0.0
  0
LINE
  5
32
  8
0
 10
12.49193
 20
0.457118
 30
0.0
 11
12.935303
 21
0.446485
 31
0.0
  0
LINE
  5
33
  8
0
 10
12.935303
 20
0.446485
 30
0.0
 11
13.024851
 21
0.452001
 31
0.0
  0
LINE
  5
34
  8
0
 10
13.024851
 20
0.452001
 30
0.0
 11
14.062287
 21
0.642324
 31
0.0
  0
LINE
  5
35
  8
0
 10
14.619668
 20
1.31119
 30
0.0
 11
14.728668
 21
2.894749
 31
0.0
  0
LINE
  5
36
  8
0
 10
14.696757
 20
3.800187
 30
0.0
 11
14.640613
 21
5.393198
 31
0.0
  0
LINE
  5
37
  8
0
 10
14.626128
 20
6.298945
 30
0.0
 11
14.626146
 21
7.892945
 31
0.0
  0
LINE
  5
38
  8
0
 10
14.626156
 20
8.798945
 30
0.0
 11
14.626173
 21
10.392945
 31
0.0
  0
LINE
  5
39
  8
0
 10
14.626184
 20
11.298945
 30
0.0
 11
14.626201
 21
12.892945
 31
0.0
  0
LINE
  5
3A
  8
0
 10
14.626211
 20
13.798945
 30
0.0
 11
14.557456
 21
14.61708
 31
0.0
  0
LINE
  5
3B
  8
0
 10
14.557456
 20
14.61708
 30
0.0
 11
13.870925
 21
14.636557
 31
0.0
  0
LINE
  5
3C
  8
0
 10
13.870925
 20
14.636557
 30
0.0
 11
14.626211
 21
13.798945
 31
0.0
  0
LINE
  5
3D
  8
0
 10
12.964926
 20
14.635248
 30
0.0
 11
11.370927
 21
14.632945
 31
0.0
  0
LINE
  5
3E
  8
0
 10
10.464928
 20
14.631637
 30
0.0
 11
8.87093
 21
14.629334
 31
0.0
  0
LINE
  5
3F
  8
0
 10
7.964931
 20
14.628026
 30
0.0
 11
6.370932
 21
14.625723
 31
0.0
  0
LINE
  5
40
  8
0
 10
5.465219
 20
14.641689
 30
0.0
 11
3.872182
 21
14.697077
 31
0.0
  0
LINE
  5
41
  8
0
 10
2.966729
 20
14.728559
 30
0.0
 11
1.381898
 21
14.647102
 31
0.0
  0
LINE
  5
42
  8
0
 10
0.678299
 20
14.127007
 30
0.0
 11
0.438423
 21
12.567814
 31
0.0
  0
LINE
  5
43
  8
0
 10
0.466152
 20
11.662239
 30
0.0
 11
0.514937
 21
10.068986
 31
0.0
  0
LINE
  5
44
  8
0
 10
0.542665
 20
9.16341
 30
0.0
 11
0.575994
 21
7.570108
 31
0.0
  0
LINE
  5
45
  8
0
 10
0.553165
 20
6.664396
 30
0.0
 11
0.513
 21
5.070902
 31
0.0
  0
LINE
  5
46
  8
0
 10
0.490171
 20
4.16519
 30
0.0
 11
0.450006
 21
2.571696
 31
0.0
  0
LINE
  5
47
  8
0
 10
0.494297
 20
1.788137
 30
0.0
 11
0.806799
 21
0.85731
 31
0.0
  0
LINE
  5
48
  8
0
 10
0.806799
 20
0.85731
 30
0.0
 11
1.71245
 21
0.479744
 31
0.0
  0
LINE
  5
49
  8
0
 10
1.71245
 20
0.479744
 30
0.0
 11
0.494297
 21
1.788137
 31
0.0
  0
LINE
  5
4A
  8
0
 10
2.592849
 20
0.437
 30
0.0
 11
2.592849
 21
1.392956
 31
0.0
  0
LINE
  5
4B
  8
0
 10
2.592849
 20
0.437
 30
0.0
 11
2.592849
 21
1.392956
 31
0.0
  0
LINE
  5
4C
  8
0
 10
2.592849
 20
1.392956
 30
0.0
 11
2.592849
 21
1.437
 31
0.0
  0
LINE
  5
4D
  8
0
 10
2.592849
 20
1.525
 30
0.0
 11
2.592849
 21
1.966755
 31
0.0
  0
LINE
  5
4E
  8
0
 10
2.592849
 20
1.966755
 30
0.0
 11
2.592849
 21
2.036432
 31
0.0
  0
LINE
  5
4F
  8
0
 10
2.592849
 20
2.036432
 30
0.0
 11
2.592849
 21
3.122019
 31
0.0
  0
LINE
  5
50
  8
0
 10
2.592849
 20
3.122019
 30
0.0
 11
2.592849
 21
3.659
 31
0.0
  0
LINE
  5
51
  8
0
 10
2.592849
 20
4.025
 30
0.0
 11
2.592849
 21
4.660506
 31
0.0
  0
LINE
  5
52
  8
0
 10
2.592849
 20
4.660506
 30
0.0
 11
2.592849
 21
4.745
 31
0.0
  0
LINE
  5
53
  8
0
 10
2.592849
 20
4.745
 30
0.0
 11
2.592849
 21
5.439
 31
0.0
  0
LINE
  5
54
  8
0
 10
2.592849
 20
5.439
 30
0.0
 11
2.592849
 21
5.51905
 31
0.0
  0
LINE
  5
55
  8
0
 10
2.592849
 20
5.51905
 30
0.0
 11
2.592849
 21
6.159
 31
0.0
  0
LINE
  5
56
  8
0
 10
2.592849
 20
6.525
 30
0.0
 11
2.592849
 21
7.059658
 31
0.0
  0
LINE
  5
57
  8
0
 10
2.592849
 20
7.059658
 30
0.0
 11
2.592849
 21
8.145245
 31
0.0
  0
LINE
  5
58
  8
0
 10
2.592849
 20
8.145245
 30
0.0
 11
2.592849
 21
8.191232
 31
0.0
  0
LINE
  5
59
  8
0
 10
2.592849
 20
8.191232
 30
0.0
 11
2.592849
 21
8.214923
 31
0.0
  0
LINE
  5
5A
  8
0
 10
2.592849
 20
8.214923
 30
0.0
 11
2.592849
 21
8.659
 31
0.0
  0
LINE
  5
5B
  8
0
 10
2.592849
 20
9.025
 30
0.0
 11
2.592849
 21
9.466755
 31
0.0
  0
LINE
  5
5C
  8
0
 10
2.592849
 20
9.466755
 30
0.0
 11
2.592849
 21
10.552342
 31
0.0
  0
LINE
  5
5D
  8
0
 10
2.592849
 20
10.552342
 30
0.0
 11
2.592849
 21
11.159
 31
0.0
  0
LINE
  5
5E
  8
0
 10
2.592849
 20
11.525
 30
0.0
 11
2.592849
 21
11.804174
 31
0.0
  0
LINE
  5
5F
  8
0
 10
2.592849
 20
11.804174
 30
0.0
 11
2.592849
 21
12.152561
 31
0.0
  0
LINE
  5
60
  8
0
 10
2.592849
 20
12.152561
 30
0.0
 11
2.592849
 21
13.238148
 31
0.0
  0
LINE
  5
61
  8
0
 10
2.592849
 20
13.238148
 30
0.0
 11
2.592849
 21
13.659
 31
0.0
  0
LINE
  5
62
  8
0
 10
2.592849
 20
13.742
 30
0.0
 11
2.592849
 21
13.783646
 31
0.0
  0
LINE
  5
63
  8
0
 10
2.592849
 20
13.783646
 30
0.0
 11
2.592849
 21
14.742
 31
0.0
  0
LINE
  5
64
  8
0
 10
5.092849
 20
0.516
 30
0.0
 11
5.092849
 21
1.51
 31
0.0
  0
LINE
  5
65
  8
0
 10
5.092849
 20
0.516
 30
0.0
 11
5.092849
 21
1.51
 31
0.0
  0
LINE
  5
66
  8
0
 10
5.092849
 20
1.51
 30
0.0
 11
5.092849
 21
1.516
 31
0.0
  0
LINE
  5
67
  8
0
 10
5.092849
 20
1.525
 30
0.0
 11
5.092849
 21
1.985103
 31
0.0
  0
LINE
  5
68
  8
0
 10
5.092849
 20
1.985103
 30
0.0
 11
5.092849
 21
2.054781
 31
0.0
  0
LINE
  5
69
  8
0
 10
5.092849
 20
2.054781
 30
0.0
 11
5.092849
 21
3.140368
 31
0.0
  0
LINE
  5
6A
  8
0
 10
5.092849
 20
3.140368
 30
0.0
 11
5.092849
 21
3.659
 31
0.0
  0
LINE
  5
6B
  8
0
 10
5.092849
 20
4.025
 30
0.0
 11
5.092849
 21
4.690412
 31
0.0
  0
LINE
  5
6C
  8
0
 10
5.092849
 20
4.690412
 30
0.0
 11
5.092849
 21
4.745
 31
0.0
  0
LINE
  5
6D
  8
0
 10
5.092849
 20
4.745
 30
0.0
 11
5.092849
 21
5.439
 31
0.0
  0
LINE
  5
6E
  8
0
 10
5.092849
 20
5.439
 30
0.0
 11
5.092849
 21
5.548209
 31
0.0
  0
LINE
  5
6F
  8
0
 10
5.092849
 20
5.548209
 30
0.0
 11
5.092849
 21
6.159
 31
0.0
  0
LINE
  5
70
  8
0
 10
5.092849
 20
6.525
 30
0.0
 11
5.092849
 21
7.078006
 31
0.0
  0
LINE
  5
71
  8
0
 10
5.092849
 20
7.078006
 30
0.0
 11
5.092849
 21
8.163594
 31
0.0
  0
LINE
  5
72
  8
0
 10
5.092849
 20
8.163594
 30
0.0
 11
5.092849
 21
8.191232
 31
0.0
  0
LINE
  5
73
  8
0
 10
5.092849
 20
8.191232
 30
0.0
 11
5.092849
 21
8.233271
 31
0.0
  0
LINE
  5
74
  8
0
 10
5.092849
 20
8.233271
 30
0.0
 11
5.092849
 21
8.659
 31
0.0
  0
LINE
  5
75
  8
0
 10
5.092849
 20
9.025
 30
0.0
 11
5.092849
 21
9.415426
 31
0.0
  0
LINE
  5
76
  8
0
 10
5.092849
 20
9.415426
 30
0.0
 11
5.092849
 21
9.485103
 31
0.0
  0
LINE
  5
77
  8
0
 10
5.092849
 20
9.485103
 30
0.0
 11
5.092849
 21
10.57069
 31
0.0
  0
LINE
  5
78
  8
0
 10
5.092849
 20
10.57069
 30
0.0
 11
5.092849
 21
11.159
 31
0.0
  0
LINE
  5
79
  8
0
 10
5.092849
 20
11.525
 30
0.0
 11
5.092849
 21
11.822523
 31
0.0
  0
LINE
  5
7A
  8
0
 10
5.092849
 20
11.822523
 30
0.0
 11
5.092849
 21
12.17091
 31
0.0
  0
LINE
  5
7B
  8
0
 10
5.092849
 20
12.17091
 30
0.0
 11
5.092849
 21
13.256497
 31
0.0
  0
LINE
  5
7C
  8
0
 10
5.092849
 20
13.256497
 30
0.0
 11
5.092849
 21
13.653194
 31
0.0
  0
LINE
  5
7D
  8
0
 10
5.092849
 20
13.653194
 30
0.0
 11
5.092849
 21
13.654199
 31
0.0
  0
LINE
  5
7E
  8
0
 10
5.092849
 20
13.654199
 30
0.0
 11
5.092849
 21
13.65835
 31
0.0
  0
LINE
  5
7F
  8
0
 10
5.092849
 20
13.65835
 30
0.0
 11
5.092849
 21
14.655
 31
0.0
  0
LINE
  5
80
  8
0
 10
7.592849
 20
0.574
 30
0.0
 11
7.592849
 21
1.534637
 31
0.0
  0
LINE
  5
81
  8
0
 10
7.592849
 20
0.574
 30
0.0
 11
7.592849
 21
1.534637
 31
0.0
  0
LINE
  5
82
  8
0
 10
7.592849
 20
1.534637
 30
0.0
 11
7.592849
 21
1.546774
 31
0.0
  0
LINE
  5
83
  8
0
 10
7.592849
 20
1.546774
 30
0.0
 11
7.592849
 21
1.607258
 31
0.0
  0
LINE
  5
84
  8
0
 10
7.592849
 20
1.607258
 30
0.0
 11
7.592849
 21
1.998806
 31
0.0
  0
LINE
  5
85
  8
0
 10
7.592849
 20
1.998806
 30
0.0
 11
7.592849
 21
2.068484
 31
0.0
  0
LINE
  5
86
  8
0
 10
7.592849
 20
2.068484
 30
0.0
 11
7.592849
 21
3.154071
 31
0.0
  0
LINE
  5
87
  8
0
 10
7.592849
 20
3.154071
 30
0.0
 11
7.592849
 21
3.659
 31
0.0
  0
LINE
  5
88
  8
0
 10
7.592849
 20
4.025
 30
0.0
 11
7.592849
 21
4.712892
 31
0.0
  0
LINE
  5
89
  8
0
 10
7.592849
 20
4.712892
 30
0.0
 11
7.592849
 21
4.745
 31
0.0
  0
LINE
  5
8A
  8
0
 10
7.592849
 20
4.745
 30
0.0
 11
7.592849
 21
5.439
 31
0.0
  0
LINE
  5
8B
  8
0
 10
7.592849
 20
5.439
 30
0.0
 11
7.592849
 21
5.569
 31
0.0
  0
LINE
  5
8C
  8
0
 10
7.592849
 20
5.569
 30
0.0
 11
7.592849
 21
6.159
 31
0.0
  0
LINE
  5
8D
  8
0
 10
7.592849
 20
6.525
 30
0.0
 11
7.592849
 21
7.09171
 31
0.0
  0
LINE
  5
8E
  8
0
 10
7.592849
 20
7.09171
 30
0.0
 11
7.592849
 21
8.177297
 31
0.0
  0
LINE
  5
8F
  8
0
 10
7.592849
 20
8.177297
 30
0.0
 11
7.592849
 21
8.191232
 31
0.0
  0
LINE
  5
90
  8
0
 10
7.592849
 20
8.191232
 30
0.0
 11
7.592849
 21
8.246974
 31
0.0
  0
LINE
  5
91
  8
0
 10
7.592849
 20
8.246974
 30
0.0
 11
7.592849
 21
8.659
 31
0.0
  0
LINE
  5
92
  8
0
 10
7.592849
 20
9.025
 30
0.0
 11
7.592849
 21
9.429129
 31
0.0
  0
LINE
  5
93
  8
0
 10
7.592849
 20
9.429129
 30
0.0
 11
7.592849
 21
9.498806
 31
0.0
  0
LINE
  5
94
  8
0
 10
7.592849
 20
9.498806
 30
0.0
 11
7.592849
 21
10.584394
 31
0.0
  0
LINE
  5
95
  8
0
 10
7.592849
 20
10.584394
 30
0.0
 11
7.592849
 21
11.159
 31
0.0
  0
LINE
  5
96
  8
0
 10
7.592849
 20
11.525
 30
0.0
 11
7.592849
 21
12.102143
 31
0.0
  0
LINE
  5
97
  8
0
 10
7.592849
 20
12.102143
 30
0.0
 11
7.592849
 21
12.245
 31
0.0
  0
LINE
  5
98
  8
0
 10
7.592849
 20
12.245
 30
0.0
 11
7.592849
 21
12.939
 31
0.0
  0
LINE
  5
99
  8
0
 10
7.592849
 20
12.939
 30
0.0
 11
7.592849
 21
12.956876
 31
0.0
  0
LINE
  5
9A
  8
0
 10
7.592849
 20
12.956876
 30
0.0
 11
7.592849
 21
13.548308
 31
0.0
  0
LINE
  5
9B
  8
0
 10
7.592849
 20
13.548308
 30
0.0
 11
7.592849
 21
13.616499
 31
0.0
  0
LINE
  5
9C
  8
0
 10
7.592849
 20
13.616499
 30
0.0
 11
7.592849
 21
13.624115
 31
0.0
  0
LINE
  5
9D
  8
0
 10
7.592849
 20
13.624115
 30
0.0
 11
7.592849
 21
13.664817
 31
0.0
  0
LINE
  5
9E
  8
0
 10
7.592849
 20
13.664817
 30
0.0
 11
7.592849
 21
14.628
 31
0.0
  0
LINE
  5
9F
  8
0
 10
10.092849
 20
0.515
 30
0.0
 11
10.092849
 21
1.509792
 31
0.0
  0
LINE
  5
A0
  8
0
 10
10.092849
 20
0.515
 30
0.0
 11
10.092849
 21
1.509792
 31
0.0
  0
LINE
  5
A1
  8
0
 10
10.092849
 20
1.509792
 30
0.0
 11
10.092849
 21
1.515
 31
0.0
  0
LINE
  5
A2
  8
0
 10
10.092849
 20
1.525
 30
0.0
 11
10.092849
 21
1.984871
 31
0.0
  0
LINE
  5
A3
  8
0
 10
10.092849
 20
1.984871
 30
0.0
 11
10.092849
 21
2.054548
 31
0.0
  0
LINE
  5
A4
  8
0
 10
10.092849
 20
2.054548
 30
0.0
 11
10.092849
 21
3.140135
 31
0.0
  0
LINE
  5
A5
  8
0
 10
10.092849
 20
3.140135
 30
0.0
 11
10.092849
 21
3.659
 31
0.0
  0
LINE
  5
A6
  8
0
 10
10.092849
 20
4.025
 30
0.0
 11
10.092849
 21
4.689543
 31
0.0
  0
LINE
  5
A7
  8
0
 10
10.092849
 20
4.689543
 30
0.0
 11
10.092849
 21
4.745
 31
0.0
  0
LINE
  5
A8
  8
0
 10
10.092849
 20
4.745
 30
0.0
 11
10.092849
 21
5.439
 31
0.0
  0
LINE
  5
A9
  8
0
 10
10.092849
 20
5.439
 30
0.0
 11
10.092849
 21
5.547777
 31
0.0
  0
LINE
  5
AA
  8
0
 10
10.092849
 20
5.547777
 30
0.0
 11
10.092849
 21
6.159
 31
0.0
  0
LINE
  5
AB
  8
0
 10
10.092849
 20
6.525
 30
0.0
 11
10.092849
 21
7.077774
 31
0.0
  0
LINE
  5
AC
  8
0
 10
10.092849
 20
7.077774
 30
0.0
 11
10.092849
 21
8.163361
 31
0.0
  0
LINE
  5
AD
  8
0
 10
10.092849
 20
8.163361
 30
0.0
 11
10.092849
 21
8.191232
 31
0.0
  0
LINE
  5
AE
  8
0
 10
10.092849
 20
8.191232
 30
0.0
 11
10.092849
 21
8.233039
 31
0.0
  0
LINE
  5
AF
  8
0
 10
10.092849
 20
8.233039
 30
0.0
 11
10.092849
 21
8.659
 31
0.0
  0
LINE
  5
B0
  8
0
 10
10.092849
 20
9.025
 30
0.0
 11
10.092849
 21
9.415194
 31
0.0
  0
LINE
  5
B1
  8
0
 10
10.092849
 20
9.415194
 30
0.0
 11
10.092849
 21
9.484871
 31
0.0
  0
LINE
  5
B2
  8
0
 10
10.092849
 20
9.484871
 30
0.0
 11
10.092849
 21
10.570458
 31
0.0
  0
LINE
  5
B3
  8
0
 10
10.092849
 20
10.570458
 30
0.0
 11
10.092849
 21
11.159
 31
0.0
  0
LINE
  5
B4
  8
0
 10
10.092849
 20
11.525
 30
0.0
 11
10.092849
 21
11.82229
 31
0.0
  0
LINE
  5
B5
  8
0
 10
10.092849
 20
11.82229
 30
0.0
 11
10.092849
 21
12.170677
 31
0.0
  0
LINE
  5
B6
  8
0
 10
10.092849
 20
12.170677
 30
0.0
 11
10.092849
 21
13.256265
 31
0.0
  0
LINE
  5
B7
  8
0
 10
10.092849
 20
13.256265
 30
0.0
 11
10.092849
 21
13.619138
 31
0.0
  0
LINE
  5
B8
  8
0
 10
10.092849
 20
13.619138
 30
0.0
 11
10.092849
 21
13.626034
 31
0.0
  0
LINE
  5
B9
  8
0
 10
10.092849
 20
13.626034
 30
0.0
 11
10.092849
 21
13.653989
 31
0.0
  0
LINE
  5
BA
  8
0
 10
10.092849
 20
13.653989
 30
0.0
 11
10.092849
 21
14.631
 31
0.0
  0
LINE
  5
BB
  8
0
 10
12.592849
 20
0.455
 30
0.0
 11
12.592849
 21
1.419646
 31
0.0
  0
LINE
  5
BC
  8
0
 10
12.592849
 20
0.455
 30
0.0
 11
12.592849
 21
1.419646
 31
0.0
  0
LINE
  5
BD
  8
0
 10
12.592849
 20
1.419646
 30
0.0
 11
12.592849
 21
1.455
 31
0.0
  0
LINE
  5
BE
  8
0
 10
12.592849
 20
1.525
 30
0.0
 11
12.592849
 21
1.970935
 31
0.0
  0
LINE
  5
BF
  8
0
 10
12.592849
 20
1.970935
 30
0.0
 11
12.592849
 21
2.040613
 31
0.0
  0
LINE
  5
C0
  8
0
 10
12.592849
 20
2.040613
 30
0.0
 11
12.592849
 21
3.1262
 31
0.0
  0
LINE
  5
C1
  8
0
 10
12.592849
 20
3.1262
 30
0.0
 11
12.592849
 21
3.659
 31
0.0
  0
LINE
  5
C2
  8
0
 10
12.592849
 20
4.025
 30
0.0
 11
12.592849
 21
4.667727
 31
0.0
  0
LINE
  5
C3
  8
0
 10
12.592849
 20
4.667727
 30
0.0
 11
12.592849
 21
4.745
 31
0.0
  0
LINE
  5
C4
  8
0
 10
12.592849
 20
4.745
 30
0.0
 11
12.592849
 21
5.439
 31
0.0
  0
LINE
  5
C5
  8
0
 10
12.592849
 20
5.439
 30
0.0
 11
12.592849
 21
5.525758
 31
0.0
  0
LINE
  5
C6
  8
0
 10
12.592849
 20
5.525758
 30
0.0
 11
12.592849
 21
6.159
 31
0.0
  0
LINE
  5
C7
  8
0
 10
12.592849
 20
6.525
 30
0.0
 11
12.592849
 21
7.063839
 31
0.0
  0
LINE
  5
C8
  8
0
 10
12.592849
 20
7.063839
 30
0.0
 11
12.592849
 21
8.149426
 31
0.0
  0
LINE
  5
C9
  8
0
 10
12.592849
 20
8.149426
 30
0.0
 11
12.592849
 21
8.191232
 31
0.0
  0
LINE
  5
CA
  8
0
 10
12.592849
 20
8.191232
 30
0.0
 11
12.592849
 21
8.219103
 31
0.0
  0
LINE
  5
CB
  8
0
 10
12.592849
 20
8.219103
 30
0.0
 11
12.592849
 21
8.659
 31
0.0
  0
LINE
  5
CC
  8
0
 10
12.592849
 20
9.025
 30
0.0
 11
12.592849
 21
9.470935
 31
0.0
  0
LINE
  5
CD
  8
0
 10
12.592849
 20
9.470935
 30
0.0
 11
12.592849
 21
10.556523
 31
0.0
  0
LINE
  5
CE
  8
0
 10
12.592849
 20
10.556523
 30
0.0
 11
12.592849
 21
11.159
 31
0.0
  0
LINE
  5
CF
  8
0
 10
12.592849
 20
11.525
 30
0.0
 11
12.592849
 21
11.808355
 31
0.0
  0
LINE
  5
D0
  8
0
 10
12.592849
 20
11.808355
 30
0.0
 11
12.592849
 21
12.156742
 31
0.0
  0
LINE
  5
D1
  8
0
 10
12.592849
 20
12.156742
 30
0.0
 11
12.592849
 21
13.242329
 31
0.0
  0
LINE
  5
D2
  8
0
 10
12.592849
 20
13.242329
 30
0.0
 11
12.592849
 21
13.623534
 31
0.0
  0
LINE
  5
D3
  8
0
 10
12.592849
 20
13.623534
 30
0.0
 11
12.592849
 21
13.629465
 31
0.0
  0
LINE
  5
D4
  8
0
 10
12.592849
 20
13.629465
 30
0.0
 11
12.592849
 21
13.654769
 31
0.0
  0
LINE
  5
D5
  8
0
 10
12.592849
 20
13.654769
 30
0.0
 11
12.592849
 21
14.635
 31
0.0
  0
LINE
  5
D6
  8
0
 10
0.45
 20
2.592238
 30
0.0
 11
1.400917
 21
2.592238
 31
0.0
  0
LINE
  5
D7
  8
0
 10
0.45
 20
2.592238
 30
0.0
 11
1.400917
 21
2.592238
 31
0.0
  0
LINE
  5
D8
  8
0
 10
1.400917
 20
2.592238
 30
0.0
 11
1.451
 21
2.592238
 31
0.0
  0
LINE
  5
D9
  8
0
 10
1.526
 20
2.592238
 30
0.0
 11
1.944761
 21
2.592238
 31
0.0
  0
LINE
  5
DA
  8
0
 10
1.944761
 20
2.592238
 30
0.0
 11
3.030348
 21
2.592238
 31
0.0
  0
LINE
  5
DB
  8
0
 10
3.030348
 20
2.592238
 30
0.0
 11
3.378735
 21
2.592238
 31
0.0
  0
LINE
  5
DC
  8
0
 10
3.378735
 20
2.592238
 30
0.0
 11
3.66
 21
2.592238
 31
0.0
  0
LINE
  5
DD
  8
0
 10
4.026
 20
2.592238
 30
0.0
 11
4.630568
 21
2.592238
 31
0.0
  0
LINE
  5
DE
  8
0
 10
4.630568
 20
2.592238
 30
0.0
 11
5.716155
 21
2.592238
 31
0.0
  0
LINE
  5
DF
  8
0
 10
5.716155
 20
2.592238
 30
0.0
 11
6.16
 21
2.592238
 31
0.0
  0
LINE
  5
E0
  8
0
 10
6.526
 20
2.592238
 30
0.0
 11
6.967987
 21
2.592238
 31
0.0
  0
LINE
  5
E1
  8
0
 10
6.967987
 20
2.592238
 30
0.0
 11
7.037665
 21
2.592238
 31
0.0
  0
LINE
  5
E2
  8
0
 10
7.037665
 20
2.592238
 30
0.0
 11
8.123252
 21
2.592238
 31
0.0
  0
LINE
  5
E3
  8
0
 10
8.123252
 20
2.592238
 30
0.0
 11
8.66
 21
2.592238
 31
0.0
  0
LINE
  5
E4
  8
0
 10
9.026
 20
2.592238
 30
0.0
 11
9.6623
 21
2.592238
 31
0.0
  0
LINE
  5
E5
  8
0
 10
9.6623
 20
2.592238
 30
0.0
 11
9.746
 21
2.592238
 31
0.0
  0
LINE
  5
E6
  8
0
 10
9.746
 20
2.592238
 30
0.0
 11
10.44
 21
2.592238
 31
0.0
  0
LINE
  5
E7
  8
0
 10
10.44
 20
2.592238
 30
0.0
 11
10.520402
 21
2.592238
 31
0.0
  0
LINE
  5
E8
  8
0
 10
10.520402
 20
2.592238
 30
0.0
 11
11.16
 21
2.592238
 31
0.0
  0
LINE
  5
E9
  8
0
 10
11.526
 20
2.592238
 30
0.0
 11
12.06089
 21
2.592238
 31
0.0
  0
LINE
  5
EA
  8
0
 10
12.06089
 20
2.592238
 30
0.0
 11
13.146477
 21
2.592238
 31
0.0
  0
LINE
  5
EB
  8
0
 10
13.146477
 20
2.592238
 30
0.0
 11
13.216155
 21
2.592238
 31
0.0
  0
LINE
  5
EC
  8
0
 10
13.216155
 20
2.592238
 30
0.0
 11
13.66
 21
2.592238
 31
0.0
  0
LINE
  5
ED
  8
0
 10
13.739
 20
2.592238
 30
0.0
 11
13.778718
 21
2.592238
 31
0.0
  0
LINE
  5
EE
  8
0
 10
13.778718
 20
2.592238
 30
0.0
 11
14.739
 21
2.592238
 31
0.0
  0
LINE
  5
EF
  8
0
 10
0.513
 20
5.092238
 30
0.0
 11
1.025186
 21
5.092238
 31
0.0
  0
LINE
  5
F0
  8
0
 10
0.513
 20
5.092238
 30
0.0
 11
1.025186
 21
5.092238
 31
0.0
  0
LINE
  5
F1
  8
0
 10
1.025186
 20
5.092238
 30
0.0
 11
1.514
 21
5.092238
 31
0.0
  0
LINE
  5
F2
  8
0
 10
1.526
 20
5.092238
 30
0.0
 11
2.243969
 21
5.092238
 31
0.0
  0
LINE
  5
F3
  8
0
 10
2.243969
 20
5.092238
 30
0.0
 11
2.246
 21
5.092238
 31
0.0
  0
LINE
  5
F4
  8
0
 10
2.246
 20
5.092238
 30
0.0
 11
2.94
 21
5.092238
 31
0.0
  0
LINE
  5
F5
  8
0
 10
2.94
 20
5.092238
 30
0.0
 11
2.948547
 21
5.092238
 31
0.0
  0
LINE
  5
F6
  8
0
 10
2.948547
 20
5.092238
 30
0.0
 11
3.66
 21
5.092238
 31
0.0
  0
LINE
  5
F7
  8
0
 10
4.026
 20
5.092238
 30
0.0
 11
4.610129
 21
5.092238
 31
0.0
  0
LINE
  5
F8
  8
0
 10
4.610129
 20
5.092238
 30
0.0
 11
5.695716
 21
5.092238
 31
0.0
  0
LINE
  5
F9
  8
0
 10
5.695716
 20
5.092238
 30
0.0
 11
5.765394
 21
5.092238
 31
0.0
  0
LINE
  5
FA
  8
0
 10
5.765394
 20
5.092238
 30
0.0
 11
6.16
 21
5.092238
 31
0.0
  0
LINE
  5
FB
  8
0
 10
6.526
 20
5.092238
 30
0.0
 11
6.947548
 21
5.092238
 31
0.0
  0
LINE
  5
FC
  8
0
 10
6.947548
 20
5.092238
 30
0.0
 11
7.017226
 21
5.092238
 31
0.0
  0
LINE
  5
FD
  8
0
 10
7.017226
 20
5.092238
 30
0.0
 11
8.102813
 21
5.092238
 31
0.0
  0
LINE
  5
FE
  8
0
 10
8.102813
 20
5.092238
 30
0.0
 11
8.66
 21
5.092238
 31
0.0
  0
LINE
  5
FF
  8
0
 10
9.026
 20
5.092238
 30
0.0
 11
9.629843
 21
5.092238
 31
0.0
  0
LINE
  5
100
  8
0
 10
9.629843
 20
5.092238
 30
0.0
 11
9.746
 21
5.092238
 31
0.0
  0
LINE
  5
101
  8
0
 10
9.746
 20
5.092238
 30
0.0
 11
10.44
 21
5.092238
 31
0.0
  0
LINE
  5
102
  8
0
 10
10.44
 20
5.092238
 30
0.0
 11
10.487081
 21
5.092238
 31
0.0
  0
LINE
  5
103
  8
0
 10
10.487081
 20
5.092238
 30
0.0
 11
11.16
 21
5.092238
 31
0.0
  0
LINE
  5
104
  8
0
 10
11.526
 20
5.092238
 30
0.0
 11
12.040452
 21
5.092238
 31
0.0
  0
LINE
  5
105
  8
0
 10
12.040452
 20
5.092238
 30
0.0
 11
13.126039
 21
5.092238
 31
0.0
  0
LINE
  5
106
  8
0
 10
13.126039
 20
5.092238
 30
0.0
 11
13.195716
 21
5.092238
 31
0.0
  0
LINE
  5
107
  8
0
 10
13.195716
 20
5.092238
 30
0.0
 11
13.644995
 21
5.092238
 31
0.0
  0
LINE
  5
108
  8
0
 10
13.644995
 20
5.092238
 30
0.0
 11
13.656254
 21
5.092238
 31
0.0
  0
LINE
  5
109
  8
0
 10
13.656254
 20
5.092238
 30
0.0
 11
13.658506
 21
5.092238
 31
0.0
  0
LINE
  5
10A
  8
0
 10
13.658506
 20
5.092238
 30
0.0
 11
14.651
 21
5.092238
 31
0.0
  0
LINE
  5
10B
  8
0
 10
0.576
 20
7.592238
 30
0.0
 11
1.130256
 21
7.592238
 31
0.0
  0
LINE
  5
10C
  8
0
 10
0.576
 20
7.592238
 30
0.0
 11
1.130256
 21
7.592238
 31
0.0
  0
LINE
  5
10D
  8
0
 10
1.130256
 20
7.592238
 30
0.0
 11
1.519053
 21
7.592238
 31
0.0
  0
LINE
  5
10E
  8
0
 10
1.519053
 20
7.592238
 30
0.0
 11
1.583123
 21
7.592238
 31
0.0
  0
LINE
  5
10F
  8
0
 10
1.583123
 20
7.592238
 30
0.0
 11
1.595452
 21
7.592238
 31
0.0
  0
LINE
  5
110
  8
0
 10
1.595452
 20
7.592238
 30
0.0
 11
1.701888
 21
7.592238
 31
0.0
  0
LINE
  5
111
  8
0
 10
1.701888
 20
7.592238
 30
0.0
 11
2.233983
 21
7.592238
 31
0.0
  0
LINE
  5
112
  8
0
 10
2.233983
 20
7.592238
 30
0.0
 11
2.246
 21
7.592238
 31
0.0
  0
LINE
  5
113
  8
0
 10
2.246
 20
7.592238
 30
0.0
 11
2.94
 21
7.592238
 31
0.0
  0
LINE
  5
114
  8
0
 10
2.94
 20
7.592238
 30
0.0
 11
3.017273
 21
7.592238
 31
0.0
  0
LINE
  5
115
  8
0
 10
3.017273
 20
7.592238
 30
0.0
 11
3.66
 21
7.592238
 31
0.0
  0
LINE
  5
116
  8
0
 10
4.026
 20
7.592238
 30
0.0
 11
4.604323
 21
7.592238
 31
0.0
  0
LINE
  5
117
  8
0
 10
4.604323
 20
7.592238
 30
0.0
 11
5.68991
 21
7.592238
 31
0.0
  0
LINE
  5
118
  8
0
 10
5.68991
 20
7.592238
 30
0.0
 11
5.759587
 21
7.592238
 31
0.0
  0
LINE
  5
119
  8
0
 10
5.759587
 20
7.592238
 30
0.0
 11
6.16
 21
7.592238
 31
0.0
  0
LINE
  5
11A
  8
0
 10
6.526
 20
7.592238
 30
0.0
 11
6.941742
 21
7.592238
 31
0.0
  0
LINE
  5
11B
  8
0
 10
6.941742
 20
7.592238
 30
0.0
 11
7.011419
 21
7.592238
 31
0.0
  0
LINE
  5
11C
  8
0
 10
7.011419
 20
7.592238
 30
0.0
 11
8.097006
 21
7.592238
 31
0.0
  0
LINE
  5
11D
  8
0
 10
8.097006
 20
7.592238
 30
0.0
 11
8.66
 21
7.592238
 31
0.0
  0
LINE
  5
11E
  8
0
 10
9.026
 20
7.592238
 30
0.0
 11
9.621368
 21
7.592238
 31
0.0
  0
LINE
  5
11F
  8
0
 10
9.621368
 20
7.592238
 30
0.0
 11
9.746
 21
7.592238
 31
0.0
  0
LINE
  5
120
  8
0
 10
9.746
 20
7.592238
 30
0.0
 11
10.44
 21
7.592238
 31
0.0
  0
LINE
  5
121
  8
0
 10
10.44
 20
7.592238
 30
0.0
 11
10.477158
 21
7.592238
 31
0.0
  0
LINE
  5
122
  8
0
 10
10.477158
 20
7.592238
 30
0.0
 11
11.16
 21
7.592238
 31
0.0
  0
LINE
  5
123
  8
0
 10
11.526
 20
7.592238
 30
0.0
 11
12.034645
 21
7.592238
 31
0.0
  0
LINE
  5
124
  8
0
 10
12.034645
 20
7.592238
 30
0.0
 11
13.120232
 21
7.592238
 31
0.0
  0
LINE
  5
125
  8
0
 10
13.120232
 20
7.592238
 30
0.0
 11
13.18991
 21
7.592238
 31
0.0
  0
LINE
  5
126
  8
0
 10
13.18991
 20
7.592238
 30
0.0
 11
13.603778
 21
7.592238
 31
0.0
  0
LINE
  5
127
  8
0
 10
13.603778
 20
7.592238
 30
0.0
 11
13.645444
 21
7.592238
 31
0.0
  0
LINE
  5
128
  8
0
 10
13.645444
 20
7.592238
 30
0.0
 11
13.653778
 21
7.592238
 31
0.0
  0
LINE
  5
129
  8
0
 10
13.653778
 20
7.592238
 30
0.0
 11
14.626
 21
7.592238
 31
0.0
  0
LINE
  5
12A
  8
0
 10
0.514
 20
10.092238
 30
0.0
 11
1.507757
 21
10.092238
 31
0.0
  0
LINE
  5
12B
  8
0
 10
0.514
 20
10.092238
 30
0.0
 11
1.507757
 21
10.092238
 31
0.0
  0
LINE
  5
12C
  8
0
 10
1.507757
 20
10.092238
 30
0.0
 11
1.514
 21
10.092238
 31
0.0
  0
LINE
  5
12D
  8
0
 10
1.526
 20
10.092238
 30
0.0
 11
2.233983
 21
10.092238
 31
0.0
  0
LINE
  5
12E
  8
0
 10
2.233983
 20
10.092238
 30
0.0
 11
2.246
 21
10.092238
 31
0.0
  0
LINE
  5
12F
  8
0
 10
2.246
 20
10.092238
 30
0.0
 11
2.94
 21
10.092238
 31
0.0
  0
LINE
  5
130
  8
0
 10
2.94
 20
10.092238
 30
0.0
 11
3.017273
 21
10.092238
 31
0.0
  0
LINE
  5
131
  8
0
 10
3.017273
 20
10.092238
 30
0.0
 11
3.66
 21
10.092238
 31
0.0
  0
LINE
  5
132
  8
0
 10
4.026
 20
10.092238
 30
0.0
 11
4.604323
 21
10.092238
 31
0.0
  0
LINE
  5
133
  8
0
 10
4.604323
 20
10.092238
 30
0.0
 11
5.68991
 21
10.092238
 31
0.0
  0
LINE
  5
134
  8
0
 10
5.68991
 20
10.092238
 30
0.0
 11
5.759587
 21
10.092238
 31
0.0
  0
LINE
  5
135
  8
0
 10
5.759587
 20
10.092238
 30
0.0
 11
6.16
 21
10.092238
 31
0.0
  0
LINE
  5
136
  8
0
 10
6.526
 20
10.092238
 30
0.0
 11
6.941742
 21
10.092238
 31
0.0
  0
LINE
  5
137
  8
0
 10
6.941742
 20
10.092238
 30
0.0
 11
7.011419
 21
10.092238
 31
0.0
  0
LINE
  5
138
  8
0
 10
7.011419
 20
10.092238
 30
0.0
 11
8.097006
 21
10.092238
 31
0.0
  0
LINE
  5
139
  8
0
 10
8.097006
 20
10.092238
 30
0.0
 11
8.66
 21
10.092238
 31
0.0
  0
LINE
  5
13A
  8
0
 10
9.026
 20
10.092238
 30
0.0
 11
9.621368
 21
10.092238
 31
0.0
  0
LINE
  5
13B
  8
0
 10
9.621368
 20
10.092238
 30
0.0
 11
9.746
 21
10.092238
 31
0.0
  0
LINE
  5
13C
  8
0
 10
9.746
 20
10.092238
 30
0.0
 11
10.44
 21
10.092238
 31
0.0
  0
LINE
  5
13D
  8
0
 10
10.44
 20
10.092238
 30
0.0
 11
10.477158
 21
10.092238
 31
0.0
  0
LINE
  5
13E
  8
0
 10
10.477158
 20
10.092238
 30
0.0
 11
11.16
 21
10.092238
 31
0.0
  0
LINE
  5
13F
  8
0
 10
11.526
 20
10.092238
 30
0.0
 11
12.034645
 21
10.092238
 31
0.0
  0
LINE
  5
140
  8
0
 10
12.034645
 20
10.092238
 30
0.0
 11
13.120232
 21
10.092238
 31
0.0
  0
LINE
  5
141
  8
0
 10
13.120232
 20
10.092238
 30
0.0
 11
13.18991
 21
10.092238
 31
0.0
  0
LINE
  5
142
  8
0
 10
13.18991
 20
10.092238
 30
0.0
 11
13.603778
 21
10.092238
 31
0.0
  0
LINE
  5
143
  8
0
 10
13.603778
 20
10.092238
 30
0.0
 11
13.645444
 21
10.092238
 31
0.0
  0
LINE
  5
144
  8
0
 10
13.645444
 20
10.092238
 30
0.0
 11
13.666094
 21
10.092238
 31
0.0
  0
LINE
  5
145
  8
0
 10
13.666094
 20
10.092238
 30
0.0
 11
14.626
 21
10.092238
 31
0.0
  0
LINE
  5
146
  8
0
 10
0.438
 20
12.592238
 30
0.0
 11
1.393956
 21
12.592238
 31
0.0
  0
LINE
  5
147
  8
0
 10
0.438
 20
12.592238
 30
0.0
 11
1.393956
 21
12.592238
 31
0.0
  0
LINE
  5
148
  8
0
 10
1.393956
 20
12.592238
 30
0.0
 11
1.438
 21
12.592238
 31
0.0
  0
LINE
  5
149
  8
0
 10
1.526
 20
12.592238
 30
0.0
 11
2.234969
 21
12.592238
 31
0.0
  0
LINE
  5
14A
  8
0
 10
2.234969
 20
12.592238
 30
0.0
 11
2.246
 21
12.592238
 31
0.0
  0
LINE
  5
14B
  8
0
 10
2.246
 20
12.592238
 30
0.0
 11
2.94
 21
12.592238
 31
0.0
  0
LINE
  5
14C
  8
0
 10
2.94
 20
12.592238
 30
0.0
 11
3.017273
 21
12.592238
 31
0.0
  0
LINE
  5
14D
  8
0
 10
3.017273
 20
12.592238
 30
0.0
 11
3.66
 21
12.592238
 31
0.0
  0
LINE
  5
14E
  8
0
 10
4.026
 20
12.592238
 30
0.0
 11
4.604323
 21
12.592238
 31
0.0
  0
LINE
  5
14F
  8
0
 10
4.604323
 20
12.592238
 30
0.0
 11
5.68991
 21
12.592238
 31
0.0
  0
LINE
  5
150
  8
0
 10
5.68991
 20
12.592238
 30
0.0
 11
5.759587
 21
12.592238
 31
0.0
  0
LINE
  5
151
  8
0
 10
5.759587
 20
12.592238
 30
0.0
 11
6.16
 21
12.592238
 31
0.0
  0
LINE
  5
152
  8
0
 10
6.526
 20
12.592238
 30
0.0
 11
6.941742
 21
12.592238
 31
0.0
  0
LINE
  5
153
  8
0
 10
6.941742
 20
12.592238
 30
0.0
 11
7.011419
 21
12.592238
 31
0.0
  0
LINE
  5
154
  8
0
 10
7.011419
 20
12.592238
 30
0.0
 11
8.097006
 21
12.592238
 31
0.0
  0
LINE
  5
155
  8
0
 10
8.097006
 20
12.592238
 30
0.0
 11
8.66
 21
12.592238
 31
0.0
  0
LINE
  5
156
  8
0
 10
9.026
 20
12.592238
 30
0.0
 11
9.621368
 21
12.592238
 31
0.0
  0
LINE
  5
157
  8
0
 10
9.621368
 20
12.592238
 30
0.0
 11
9.746
 21
12.592238
 31
0.0
  0
LINE
  5
158
  8
0
 10
9.746
 20
12.592238
 30
0.0
 11
10.44
 21
12.592238
 31
0.0
  0
LINE
  5
159
  8
0
 10
10.44
 20
12.592238
 30
0.0
 11
10.477158
 21
12.592238
 31
0.0
  0
LINE
  5
15A
  8
0
 10
10.477158
 20
12.592238
 30
0.0
 11
11.16
 21
12.592238
 31
0.0
  0
LINE
  5
15B
  8
0
 10
11.526
 20
12.592238
 30
0.0
 11
12.034645
 21
12.592238
 31
0.0
  0
LINE
  5
15C
  8
0
 10
12.034645
 20
12.592238
 30
0.0
 11
13.120232
 21
12.592238
 31
0.0
  0
LINE
  5
15D
  8
0
 10
13.120232
 20
12.592238
 30
0.0
 11
13.18991
 21
12.592238
 31
0.0
  0
LINE
  5
15E
  8
0
 10
13.18991
 20
12.592238
 30
0.0
 11
13.603778
 21
12.592238
 31
0.0
  0
LINE
  5
15F
  8
0
 10
13.603778
 20
12.592238
 30
0.0
 11
13.645444
 21
12.592238
 31
0.0
  0
LINE
  5
160
  8
0
 10
13.645444
 20
12.592238
 30
0.0
 11
13.653778
 21
12.592238
 31
0.0
  0
LINE
  5
161
  8
0
 10
13.653778
 20
12.592238
 30
0.0
 11
14.626
 21
12.592238
 31
0.0
  0
ENDSEC
  0
EOF
