  0
SECTION
  2
HEADER
  9
$ACADVER
  1
AC1009
  9
$DWGCODEPAGE
  3
ANSI_1252
  9
$INSBASE
 10
0.0
 20
0.0
 30
0.0
  9
$EXTMIN
 10
1e+20
 20
1e+20
 30
1e+20
  9
$EXTMAX
 10
-1e+20
 20
-1e+20
 30
-1e+20
  9
$LIMMIN
 10
0.0
 20
0.0
  9
$LIMMAX
 10
420.0
 20
297.0
  9
$ORTHOMODE
 70
0
  9
$REGENMODE
 70
1
  9
$FILLMODE
 70
1
  9
$DRAGMODE
 70
2
  9
$QTEXTMODE
 70
0
  9
$MIRRTEXT
 70
1
  9
$OSMODE
 70
20583
  9
$LTSCALE
 40
1.0
  9
$ATTMODE
 70
1
  9
$TEXTSIZE
 40
2.5
  9
$TRACEWID
 40
1.0
  9
$TEXTSTYLE
  7
Standard
  9
$CLAYER
  8
0
  9
$CELTYPE
  6
ByLayer
  9
$CECOLOR
 62
256
  9
$DIMSCALE
 40
1.0
  9
$DIMASZ
 40
2.5
  9
$DIMEXO
 40
0.625
  9
$DIMDLI
 40
3.75
  9
$DIMRND
 40
0.0
  9
$DIMDLE
 40
0.0
  9
$DIMEXE
 40
1.25
  9
$DIMTP
 40
0.0
  9
$DIMTM
 40
0.0
  9
$DIMTXT
 40
2.5
  9
$DIMCEN
 40
2.5
  9
$DIMTSZ
 40
0.0
  9
$DIMTOL
 70
0
  9
$DIMLIM
 70
0
  9
$DIMTIH
 70
0
  9
$DIMTOH
 70
0
  9
$DIMSE1
 70
0
  9
$DIMSE2
 70
0
  9
$DIMTAD
 70
1
  9
$DIMZIN
 70
8
  9
$DIMBLK
  1

  9
$DIMASO
 70
1
  9
$DIMSHO
 70
1
  9
$DIMPOST
  1

  9
$DIMAPOST
  1

  9
$DIMALT
 70
0
  9
$DIMALTD
 70
3
  9
$DIMALTF
 40
0.03937007874
  9
$DIMLFAC
 40
1.0
  9
$DIMTOFL
 70
1
  9
$DIMTVP
 40
0.0
  9
$DIMTIX
 70
0
  9
$DIMSOXD
 70
0
  9
$DIMSAH
 70
0
  9
$DIMBLK1
  1

  9
$DIMBLK2
  1

  9
$DIMSTYLE
  2
ISO-25
  9
$DIMCLRD
 70
0
  9
$DIMCLRE
 70
0
  9
$DIMCLRT
 70
0
  9
$DIMTFAC
 40
1.0
  9
$DIMGAP
 40
0.625
  9
$COORDS
 70
1
  9
$ATTDIA
 70
0
  9
$ATTREQ
 70
1
  9
$HANDLING
 70
1
  9
$LUNITS
 70
2
  9
$LUPREC
 70
4
  9
$SKETCHINC
 40
1.0
  9
$FILLETRAD
 40
10.0
  9
$AUNITS
 70
0
  9
$AUPREC
 70
2
  9
$MENU
  1
.
  9
$ELEVATION
 40
0.0
  9
$PELEVATION
 40
0.0
  9
$THICKNESS
 40
0.0
  9
$LIMCHECK
 70
0
  9
$CHAMFERA
 40
0.0
  9
$CHAMFERB
 40
0.0
  9
$SKPOLY
 70
0
  9
$TDCREATE
 40
2460887.5103472224
  9
$TDUPDATE
 40
2460887.5103472224
  9
$TDINDWG
 40
0.0
  9
$TDUSRTIMER
 40
0.0
  9
$USRTIMER
 70
1
  9
$ANGBASE
 50
0.0
  9
$ANGDIR
 70
0
  9
$PDMODE
 70
0
  9
$PDSIZE
 40
0.0
  9
$PLINEWID
 40
0.0
  9
$SPLFRAME
 70
0
  9
$SPLINETYPE
 70
6
  9
$SPLINESEGS
 70
8
  9
$HANDSEED
  5
109
  9
$SURFTAB1
 70
6
  9
$SURFTAB2
 70
6
  9
$SURFTYPE
 70
6
  9
$SURFU
 70
6
  9
$SURFV
 70
6
  9
$UCSNAME
  2

  9
$UCSORG
 10
0.0
 20
0.0
 30
0.0
  9
$UCSXDIR
 10
1.0
 20
0.0
 30
0.0
  9
$UCSYDIR
 10
0.0
 20
1.0
 30
0.0
  9
$PUCSNAME
  2

  9
$PUCSORG
 10
0.0
 20
0.0
 30
0.0
  9
$PUCSXDIR
 10
1.0
 20
0.0
 30
0.0
  9
$PUCSYDIR
 10
0.0
 20
1.0
 30
0.0
  9
$USERI1
 70
0
  9
$USERI2
 70
0
  9
$USERI3
 70
0
  9
$USERI4
 70
0
  9
$USERI5
 70
0
  9
$USERR1
 40
0.0
  9
$USERR2
 40
0.0
  9
$USERR3
 40
0.0
  9
$USERR4
 40
0.0
  9
$USERR5
 40
0.0
  9
$WORLDVIEW
 70
1
  9
$SHADEDGE
 70
3
  9
$SHADEDIF
 70
70
  9
$TILEMODE
 70
1
  9
$MAXACTVP
 70
64
  9
$PLIMCHECK
 70
0
  9
$PEXTMIN
 10
1e+20
 20
1e+20
 30
1e+20
  9
$PEXTMAX
 10
-1e+20
 20
-1e+20
 30
-1e+20
  9
$PLIMMIN
 10
0.0
 20
0.0
  9
$PLIMMAX
 10
420.0
 20
297.0
  9
$UNITMODE
 70
0
  9
$VISRETAIN
 70
1
  9
$PLINEGEN
 70
0
  9
$PSLTSCALE
 70
1
  0
ENDSEC
  0
SECTION
  2
TABLES
  0
TABLE
  2
VPORT
 70
1
  0
VPORT
  5
23
  2
*Active
 70
0
 10
0.0
 20
0.0
 11
1.0
 21
1.0
 12
0.0
 22
0.0
 13
0.0
 23
0.0
 14
0.5
 24
0.5
 15
0.5
 25
0.5
 16
0.0
 26
0.0
 36
1.0
 17
0.0
 27
0.0
 37
0.0
 40
1000.0
 41
1.34
 42
50.0
 43
0.0
 44
0.0
 50
0.0
 51
0.0
 71
0
 72
1000
 73
1
 74
3
 75
0
 76
0
 77
0
 78
0
  0
ENDTAB
  0
TABLE
  2
LTYPE
 70
3
  0
LTYPE
  5
24
  2
ByBlock
 70
0
  3

 72
65
 73
0
 40
0.0
  0
LTYPE
  5
25
  2
ByLayer
 70
0
  3

 72
65
 73
0
 40
0.0
  0
LTYPE
  5
26
  2
Continuous
 70
0
  3

 72
65
 73
0
 40
0.0
  0
ENDTAB
  0
TABLE
  2
LAYER
 70
2
  0
LAYER
  5
27
  2
0
 70
0
 62
7
  6
Continuous
  0
LAYER
  5
28
  2
Defpoints
 70
0
 62
7
  6
Continuous
  0
ENDTAB
  0
TABLE
  2
STYLE
 70
1
  0
STYLE
  5
29
  2
Standard
 70
0
 40
0.0
 41
1.0
 50
0.0
 71
0
 42
2.5
  3
txt
  4

  0
ENDTAB
  0
TABLE
  2
VIEW
 70
0
  0
ENDTAB
  0
TABLE
  2
UCS
 70
0
  0
ENDTAB
  0
TABLE
  2
APPID
 70
3
  0
APPID
  5
2A
  2
ACAD
 70
0
  0
APPID
  5
107
  2
HATCHBACKGROUNDCOLOR
 70
0
  0
APPID
  5
108
  2
EZDXF
 70
0
  0
ENDTAB
  0
TABLE
  2
DIMSTYLE
 70
1
  0
DIMSTYLE
105
2B
  2
Standard
 70
0
  3

  4

  5

  6

  7

 40
1.0
 41
2.5
 42
0.625
 43
3.75
 44
1.25
 45
0.0
 46
0.0
 47
0.0
 48
0.0
140
2.5
141
2.5
142
0.0
143
0.03937007874
144
1.0
145
0.0
146
1.0
147
0.625
 71
0
 72
0
 73
0
 74
0
 75
0
 76
0
 77
1
 78
8
170
0
171
3
172
1
173
0
174
0
175
0
176
0
177
0
178
0
  0
ENDTAB
  0
ENDSEC
  0
SECTION
  2
BLOCKS
  0
BLOCK
  5
18
  8
0
  2
$Model_Space
 70
0
 10
0.0
 20
0.0
 30
0.0
  3
$Model_Space
  1

1001
EZDXF
1000
CREATED_BY_EZDXF
1000
1.4.2 @ 2025-07-30T15:14:54.546859+00:00
1000
WRITTEN_BY_EZDXF
1000
1.4.2 @ 2025-07-30T15:14:54.546859+00:00
  0
ENDBLK
  5
19
  8
0
  0
BLOCK
  5
1C
  8
0
  2
$Paper_Space
 70
0
 10
0.0
 20
0.0
 30
0.0
  3
$Paper_Space
  1

  0
ENDBLK
  5
1D
  8
0
  0
ENDSEC
  0
SECTION
  2
ENTITIES
  0
LINE
  5
2D
  8
0
 10
2.371817
 20
0.431078
 30
0.0
 11
1.361045
 21
0.553811
 31
0.0
  0
LINE
  5
2E
  8
0
 10
1.361045
 20
0.553811
 30
0.0
 11
0.806799
 21
0.85731
 31
0.0
  0
LINE
  5
2F
  8
0
 10
0.806799
 20
0.85731
 30
0.0
 11
0.552321
 21
1.366018
 31
0.0
  0
LINE
  5
30
  8
0
 10
0.552321
 20
1.366018
 30
0.0
 11
0.457688
 21
2.080259
 31
0.0
  0
LINE
  5
31
  8
0
 10
0.457688
 20
2.080259
 30
0.0
 11
0.581979
 21
7.813369
 31
0.0
  0
LINE
  5
32
  8
0
 10
0.581979
 20
7.813369
 30
0.0
 11
0.435955
 21
12.707382
 31
0.0
  0
LINE
  5
33
  8
0
 10
0.435955
 20
12.707382
 30
0.0
 11
0.561567
 21
13.834752
 31
0.0
  0
LINE
  5
34
  8
0
 10
0.561567
 20
13.834752
 30
0.0
 11
0.814293
 21
14.333684
 31
0.0
  0
LINE
  5
35
  8
0
 10
0.814293
 20
14.333684
 30
0.0
 11
1.35188
 21
14.64019
 31
0.0
  0
LINE
  5
36
  8
0
 10
1.35188
 20
14.64019
 30
0.0
 11
2.213011
 21
14.751679
 31
0.0
  0
LINE
  5
37
  8
0
 10
2.213011
 20
14.751679
 30
0.0
 11
14.600832
 21
14.616662
 31
0.0
  0
LINE
  5
38
  8
0
 10
14.600832
 20
14.616662
 30
0.0
 11
14.747213
 21
2.280689
 31
0.0
  0
LINE
  5
39
  8
0
 10
14.747213
 20
2.280689
 30
0.0
 11
14.624519
 21
1.310794
 31
0.0
  0
LINE
  5
3A
  8
0
 10
14.624519
 20
1.310794
 30
0.0
 11
14.416255
 21
0.908659
 31
0.0
  0
LINE
  5
3B
  8
0
 10
14.416255
 20
0.908659
 30
0.0
 11
13.811828
 21
0.553936
 31
0.0
  0
LINE
  5
3C
  8
0
 10
13.811828
 20
0.553936
 30
0.0
 11
13.035343
 21
0.447028
 31
0.0
  0
LINE
  5
3D
  8
0
 10
13.035343
 20
0.447028
 30
0.0
 11
7.153677
 21
0.5811
 31
0.0
  0
LINE
  5
3E
  8
0
 10
7.153677
 20
0.5811
 30
0.0
 11
2.371817
 21
0.431078
 31
0.0
  0
LINE
  5
3F
  8
0
 10
2.371817
 20
0.431078
 30
0.0
 11
2.371817
 21
0.431078
 31
0.0
  0
LINE
  5
40
  8
0
 10
2.371817
 20
0.431078
 30
0.0
 11
1.361045
 21
0.553811
 31
0.0
  0
LINE
  5
41
  8
0
 10
1.361045
 20
0.553811
 30
0.0
 11
0.806799
 21
0.85731
 31
0.0
  0
LINE
  5
42
  8
0
 10
0.806799
 20
0.85731
 30
0.0
 11
0.552321
 21
1.366018
 31
0.0
  0
LINE
  5
43
  8
0
 10
0.552321
 20
1.366018
 30
0.0
 11
0.457688
 21
2.080259
 31
0.0
  0
LINE
  5
44
  8
0
 10
0.457688
 20
2.080259
 30
0.0
 11
0.581979
 21
7.813369
 31
0.0
  0
LINE
  5
45
  8
0
 10
0.581979
 20
7.813369
 30
0.0
 11
0.435955
 21
12.707382
 31
0.0
  0
LINE
  5
46
  8
0
 10
0.435955
 20
12.707382
 30
0.0
 11
0.561567
 21
13.834752
 31
0.0
  0
LINE
  5
47
  8
0
 10
0.561567
 20
13.834752
 30
0.0
 11
0.814293
 21
14.333684
 31
0.0
  0
LINE
  5
48
  8
0
 10
0.814293
 20
14.333684
 30
0.0
 11
1.35188
 21
14.64019
 31
0.0
  0
LINE
  5
49
  8
0
 10
1.35188
 20
14.64019
 30
0.0
 11
2.213011
 21
14.751679
 31
0.0
  0
LINE
  5
4A
  8
0
 10
2.213011
 20
14.751679
 30
0.0
 11
14.600832
 21
14.616662
 31
0.0
  0
LINE
  5
4B
  8
0
 10
14.600832
 20
14.616662
 30
0.0
 11
14.747213
 21
2.280689
 31
0.0
  0
LINE
  5
4C
  8
0
 10
14.747213
 20
2.280689
 30
0.0
 11
14.624519
 21
1.310794
 31
0.0
  0
LINE
  5
4D
  8
0
 10
14.624519
 20
1.310794
 30
0.0
 11
14.416255
 21
0.908659
 31
0.0
  0
LINE
  5
4E
  8
0
 10
14.416255
 20
0.908659
 30
0.0
 11
13.811828
 21
0.553936
 31
0.0
  0
LINE
  5
4F
  8
0
 10
13.811828
 20
0.553936
 30
0.0
 11
13.035343
 21
0.447028
 31
0.0
  0
LINE
  5
50
  8
0
 10
13.035343
 20
0.447028
 30
0.0
 11
7.153677
 21
0.5811
 31
0.0
  0
LINE
  5
51
  8
0
 10
7.153677
 20
0.5811
 30
0.0
 11
2.371817
 21
0.431078
 31
0.0
  0
LINE
  5
52
  8
0
 10
2.371817
 20
0.431078
 30
0.0
 11
2.371817
 21
0.431078
 31
0.0
  0
LINE
  5
53
  8
0
 10
2.592849
 20
1.0342
 30
0.0
 11
2.592849
 21
1.3542
 31
0.0
  0
LINE
  5
54
  8
0
 10
2.592849
 20
1.0342
 30
0.0
 11
2.592849
 21
1.3542
 31
0.0
  0
LINE
  5
55
  8
0
 10
2.592849
 20
1.3542
 30
0.0
 11
2.592849
 21
1.9395
 31
0.0
  0
LINE
  5
56
  8
0
 10
2.592849
 20
2.834537
 30
0.0
 11
2.592849
 21
3.043404
 31
0.0
  0
LINE
  5
57
  8
0
 10
2.592849
 20
3.043404
 30
0.0
 11
2.592849
 21
3.196489
 31
0.0
  0
LINE
  5
58
  8
0
 10
2.592849
 20
3.196489
 30
0.0
 11
2.592849
 21
3.739492
 31
0.0
  0
LINE
  5
59
  8
0
 10
2.592849
 20
4.6345
 30
0.0
 11
2.592849
 21
4.8595
 31
0.0
  0
LINE
  5
5A
  8
0
 10
2.592849
 20
4.8595
 30
0.0
 11
2.592849
 21
5.5395
 31
0.0
  0
LINE
  5
5B
  8
0
 10
2.592849
 20
6.434253
 30
0.0
 11
2.592849
 21
7.014473
 31
0.0
  0
LINE
  5
5C
  8
0
 10
2.592849
 20
7.014473
 30
0.0
 11
2.592849
 21
7.3395
 31
0.0
  0
LINE
  5
5D
  8
0
 10
2.592849
 20
8.234325
 30
0.0
 11
2.592849
 21
8.234631
 31
0.0
  0
LINE
  5
5E
  8
0
 10
2.592849
 20
8.234631
 30
0.0
 11
2.592849
 21
8.754101
 31
0.0
  0
LINE
  5
5F
  8
0
 10
2.592849
 20
8.754101
 30
0.0
 11
2.592849
 21
9.138946
 31
0.0
  0
LINE
  5
60
  8
0
 10
2.592849
 20
10.0345
 30
0.0
 11
2.592849
 21
10.274923
 31
0.0
  0
LINE
  5
61
  8
0
 10
2.592849
 20
10.274923
 30
0.0
 11
2.592849
 21
10.939483
 31
0.0
  0
LINE
  5
62
  8
0
 10
2.592849
 20
11.834087
 30
0.0
 11
2.592849
 21
11.958683
 31
0.0
  0
LINE
  5
63
  8
0
 10
2.592849
 20
11.958683
 30
0.0
 11
2.592849
 21
12.7395
 31
0.0
  0
LINE
  5
64
  8
0
 10
2.592849
 20
13.634222
 30
0.0
 11
2.592849
 21
13.845264
 31
0.0
  0
LINE
  5
65
  8
0
 10
5.092849
 20
1.113403
 30
0.0
 11
5.092849
 21
1.523792
 31
0.0
  0
LINE
  5
66
  8
0
 10
5.092849
 20
1.113403
 30
0.0
 11
5.092849
 21
1.523792
 31
0.0
  0
LINE
  5
67
  8
0
 10
5.092849
 20
1.523792
 30
0.0
 11
5.092849
 21
2.0185
 31
0.0
  0
LINE
  5
68
  8
0
 10
5.092849
 20
2.913385
 30
0.0
 11
5.092849
 21
3.011614
 31
0.0
  0
LINE
  5
69
  8
0
 10
5.092849
 20
3.011614
 30
0.0
 11
5.092849
 21
3.8185
 31
0.0
  0
LINE
  5
6A
  8
0
 10
5.092849
 20
4.7135
 30
0.0
 11
5.092849
 21
5.3935
 31
0.0
  0
LINE
  5
6B
  8
0
 10
5.092849
 20
5.3935
 30
0.0
 11
5.092849
 21
5.6185
 31
0.0
  0
LINE
  5
6C
  8
0
 10
5.092849
 20
6.513261
 30
0.0
 11
5.092849
 21
7.101247
 31
0.0
  0
LINE
  5
6D
  8
0
 10
5.092849
 20
7.101247
 30
0.0
 11
5.092849
 21
7.101714
 31
0.0
  0
LINE
  5
6E
  8
0
 10
5.092849
 20
7.101714
 30
0.0
 11
5.092849
 21
7.4185
 31
0.0
  0
LINE
  5
6F
  8
0
 10
5.092849
 20
8.312663
 30
0.0
 11
5.092849
 21
8.417696
 31
0.0
  0
LINE
  5
70
  8
0
 10
5.092849
 20
8.417696
 30
0.0
 11
5.092849
 21
9.2185
 31
0.0
  0
LINE
  5
71
  8
0
 10
5.092849
 20
10.1135
 30
0.0
 11
5.092849
 21
10.345745
 31
0.0
  0
LINE
  5
72
  8
0
 10
5.092849
 20
10.345745
 30
0.0
 11
5.092849
 21
11.018492
 31
0.0
  0
LINE
  5
73
  8
0
 10
5.092849
 20
11.9135
 30
0.0
 11
5.092849
 21
12.1385
 31
0.0
  0
LINE
  5
74
  8
0
 10
5.092849
 20
12.1385
 30
0.0
 11
5.092849
 21
12.8185
 31
0.0
  0
LINE
  5
75
  8
0
 10
5.092849
 20
13.71299
 30
0.0
 11
5.092849
 21
13.89935
 31
0.0
  0
LINE
  5
76
  8
0
 10
7.592849
 20
1.17165
 30
0.0
 11
7.592849
 21
1.3975
 31
0.0
  0
LINE
  5
77
  8
0
 10
7.592849
 20
1.17165
 30
0.0
 11
7.592849
 21
1.3975
 31
0.0
  0
LINE
  5
78
  8
0
 10
7.592849
 20
1.3975
 30
0.0
 11
7.592849
 21
2.0775
 31
0.0
  0
LINE
  5
79
  8
0
 10
7.592849
 20
2.971568
 30
0.0
 11
7.592849
 21
3.122247
 31
0.0
  0
LINE
  5
7A
  8
0
 10
7.592849
 20
3.122247
 30
0.0
 11
7.592849
 21
3.877217
 31
0.0
  0
LINE
  5
7B
  8
0
 10
7.592849
 20
4.77165
 30
0.0
 11
7.592849
 21
5.4525
 31
0.0
  0
LINE
  5
7C
  8
0
 10
7.592849
 20
5.4525
 30
0.0
 11
7.592849
 21
5.6775
 31
0.0
  0
LINE
  5
7D
  8
0
 10
7.592849
 20
6.57171
 30
0.0
 11
7.592849
 21
7.066985
 31
0.0
  0
LINE
  5
7E
  8
0
 10
7.592849
 20
7.066985
 30
0.0
 11
7.592849
 21
7.4775
 31
0.0
  0
LINE
  5
7F
  8
0
 10
7.592849
 20
8.370695
 30
0.0
 11
7.592849
 21
8.40686
 31
0.0
  0
LINE
  5
80
  8
0
 10
7.592849
 20
8.40686
 30
0.0
 11
7.592849
 21
9.2775
 31
0.0
  0
LINE
  5
81
  8
0
 10
7.592849
 20
10.1715
 30
0.0
 11
7.592849
 21
10.171547
 31
0.0
  0
LINE
  5
82
  8
0
 10
7.592849
 20
10.171547
 30
0.0
 11
7.592849
 21
10.420878
 31
0.0
  0
LINE
  5
83
  8
0
 10
7.592849
 20
10.420878
 30
0.0
 11
7.592849
 21
11.077509
 31
0.0
  0
LINE
  5
84
  8
0
 10
7.592849
 20
11.97165
 30
0.0
 11
7.592849
 21
12.1975
 31
0.0
  0
LINE
  5
85
  8
0
 10
7.592849
 20
12.1975
 30
0.0
 11
7.592849
 21
12.8775
 31
0.0
  0
LINE
  5
86
  8
0
 10
7.592849
 20
13.771196
 30
0.0
 11
7.592849
 21
13.945579
 31
0.0
  0
LINE
  5
87
  8
0
 10
10.092849
 20
1.112231
 30
0.0
 11
10.092849
 21
1.521352
 31
0.0
  0
LINE
  5
88
  8
0
 10
10.092849
 20
1.112231
 30
0.0
 11
10.092849
 21
1.521352
 31
0.0
  0
LINE
  5
89
  8
0
 10
10.092849
 20
1.521352
 30
0.0
 11
10.092849
 21
2.0175
 31
0.0
  0
LINE
  5
8A
  8
0
 10
10.092849
 20
2.9125
 30
0.0
 11
10.092849
 21
3.141107
 31
0.0
  0
LINE
  5
8B
  8
0
 10
10.092849
 20
3.141107
 30
0.0
 11
10.092849
 21
3.817523
 31
0.0
  0
LINE
  5
8C
  8
0
 10
10.092849
 20
4.7125
 30
0.0
 11
10.092849
 21
5.3925
 31
0.0
  0
LINE
  5
8D
  8
0
 10
10.092849
 20
5.3925
 30
0.0
 11
10.092849
 21
5.6175
 31
0.0
  0
LINE
  5
8E
  8
0
 10
10.092849
 20
6.512354
 30
0.0
 11
10.092849
 21
7.100714
 31
0.0
  0
LINE
  5
8F
  8
0
 10
10.092849
 20
7.100714
 30
0.0
 11
10.092849
 21
7.4175
 31
0.0
  0
LINE
  5
90
  8
0
 10
10.092849
 20
8.311339
 30
0.0
 11
10.092849
 21
8.417896
 31
0.0
  0
LINE
  5
91
  8
0
 10
10.092849
 20
8.417896
 30
0.0
 11
10.092849
 21
9.2175
 31
0.0
  0
LINE
  5
92
  8
0
 10
10.092849
 20
10.1125
 30
0.0
 11
10.092849
 21
10.580909
 31
0.0
  0
LINE
  5
93
  8
0
 10
10.092849
 20
10.580909
 30
0.0
 11
10.092849
 21
11.017273
 31
0.0
  0
LINE
  5
94
  8
0
 10
10.092849
 20
11.9125
 30
0.0
 11
10.092849
 21
12.1375
 31
0.0
  0
LINE
  5
95
  8
0
 10
10.092849
 20
12.1375
 30
0.0
 11
10.092849
 21
12.8175
 31
0.0
  0
LINE
  5
96
  8
0
 10
10.092849
 20
13.712244
 30
0.0
 11
10.092849
 21
13.8949
 31
0.0
  0
LINE
  5
97
  8
0
 10
12.592849
 20
1.051958
 30
0.0
 11
12.592849
 21
1.395684
 31
0.0
  0
LINE
  5
98
  8
0
 10
12.592849
 20
1.051958
 30
0.0
 11
12.592849
 21
1.395684
 31
0.0
  0
LINE
  5
99
  8
0
 10
12.592849
 20
1.395684
 30
0.0
 11
12.592849
 21
1.9575
 31
0.0
  0
LINE
  5
9A
  8
0
 10
12.592849
 20
2.852309
 30
0.0
 11
12.592849
 21
3.500833
 31
0.0
  0
LINE
  5
9B
  8
0
 10
12.592849
 20
3.500833
 30
0.0
 11
12.592849
 21
3.7575
 31
0.0
  0
LINE
  5
9C
  8
0
 10
12.592849
 20
4.6525
 30
0.0
 11
12.592849
 21
5.3325
 31
0.0
  0
LINE
  5
9D
  8
0
 10
12.592849
 20
5.3325
 30
0.0
 11
12.592849
 21
5.5575
 31
0.0
  0
LINE
  5
9E
  8
0
 10
12.592849
 20
6.4525
 30
0.0
 11
12.592849
 21
7.1325
 31
0.0
  0
LINE
  5
9F
  8
0
 10
12.592849
 20
7.1325
 30
0.0
 11
12.592849
 21
7.3575
 31
0.0
  0
LINE
  5
A0
  8
0
 10
12.592849
 20
8.252234
 30
0.0
 11
12.592849
 21
8.252544
 31
0.0
  0
LINE
  5
A1
  8
0
 10
12.592849
 20
8.252544
 30
0.0
 11
12.592849
 21
8.444775
 31
0.0
  0
LINE
  5
A2
  8
0
 10
12.592849
 20
8.444775
 30
0.0
 11
12.592849
 21
9.1575
 31
0.0
  0
LINE
  5
A3
  8
0
 10
12.592849
 20
10.052448
 30
0.0
 11
12.592849
 21
10.5365
 31
0.0
  0
LINE
  5
A4
  8
0
 10
12.592849
 20
10.5365
 30
0.0
 11
12.592849
 21
10.9575
 31
0.0
  0
LINE
  5
A5
  8
0
 10
12.592849
 20
11.8525
 30
0.0
 11
12.592849
 21
12.0775
 31
0.0
  0
LINE
  5
A6
  8
0
 10
12.592849
 20
12.0775
 30
0.0
 11
12.592849
 21
12.7575
 31
0.0
  0
LINE
  5
A7
  8
0
 10
12.592849
 20
13.652033
 30
0.0
 11
12.592849
 21
13.8445
 31
0.0
  0
LINE
  5
A8
  8
0
 10
1.332785
 20
2.592238
 30
0.0
 11
1.5415
 21
2.592238
 31
0.0
  0
LINE
  5
A9
  8
0
 10
1.332785
 20
2.592238
 30
0.0
 11
1.5415
 21
2.592238
 31
0.0
  0
LINE
  5
AA
  8
0
 10
2.4365
 20
2.592238
 30
0.0
 11
3.1165
 21
2.592238
 31
0.0
  0
LINE
  5
AB
  8
0
 10
3.1165
 20
2.592238
 30
0.0
 11
3.3415
 21
2.592238
 31
0.0
  0
LINE
  5
AC
  8
0
 10
4.236098
 20
2.592238
 30
0.0
 11
4.500384
 21
2.592238
 31
0.0
  0
LINE
  5
AD
  8
0
 10
4.500384
 20
2.592238
 30
0.0
 11
4.504929
 21
2.592238
 31
0.0
  0
LINE
  5
AE
  8
0
 10
4.504929
 20
2.592238
 30
0.0
 11
5.1415
 21
2.592238
 31
0.0
  0
LINE
  5
AF
  8
0
 10
6.03641
 20
2.592238
 30
0.0
 11
6.358323
 21
2.592238
 31
0.0
  0
LINE
  5
B0
  8
0
 10
6.358323
 20
2.592238
 30
0.0
 11
6.9415
 21
2.592238
 31
0.0
  0
LINE
  5
B1
  8
0
 10
7.8365
 20
2.592238
 30
0.0
 11
8.5165
 21
2.592238
 31
0.0
  0
LINE
  5
B2
  8
0
 10
8.5165
 20
2.592238
 30
0.0
 11
8.7415
 21
2.592238
 31
0.0
  0
LINE
  5
B3
  8
0
 10
9.6365
 20
2.592238
 30
0.0
 11
9.8615
 21
2.592238
 31
0.0
  0
LINE
  5
B4
  8
0
 10
9.8615
 20
2.592238
 30
0.0
 11
10.5415
 21
2.592238
 31
0.0
  0
LINE
  5
B5
  8
0
 10
11.436349
 20
2.592238
 30
0.0
 11
12.243386
 21
2.592238
 31
0.0
  0
LINE
  5
B6
  8
0
 10
12.243386
 20
2.592238
 30
0.0
 11
12.341632
 21
2.592238
 31
0.0
  0
LINE
  5
B7
  8
0
 10
13.235782
 20
2.592238
 30
0.0
 11
13.868412
 21
2.592238
 31
0.0
  0
LINE
  5
B8
  8
0
 10
13.868412
 20
2.592238
 30
0.0
 11
14.1415
 21
2.592238
 31
0.0
  0
LINE
  5
B9
  8
0
 10
1.267134
 20
5.092238
 30
0.0
 11
1.4535
 21
5.092238
 31
0.0
  0
LINE
  5
BA
  8
0
 10
1.267134
 20
5.092238
 30
0.0
 11
1.4535
 21
5.092238
 31
0.0
  0
LINE
  5
BB
  8
0
 10
2.3485
 20
5.092238
 30
0.0
 11
3.0285
 21
5.092238
 31
0.0
  0
LINE
  5
BC
  8
0
 10
3.0285
 20
5.092238
 30
0.0
 11
3.2535
 21
5.092238
 31
0.0
  0
LINE
  5
BD
  8
0
 10
4.148083
 20
5.092238
 30
0.0
 11
4.61475
 21
5.092238
 31
0.0
  0
LINE
  5
BE
  8
0
 10
4.61475
 20
5.092238
 30
0.0
 11
4.61582
 21
5.092238
 31
0.0
  0
LINE
  5
BF
  8
0
 10
4.61582
 20
5.092238
 30
0.0
 11
5.0535
 21
5.092238
 31
0.0
  0
LINE
  5
C0
  8
0
 10
5.947486
 20
5.092238
 30
0.0
 11
6.098838
 21
5.092238
 31
0.0
  0
LINE
  5
C1
  8
0
 10
6.098838
 20
5.092238
 30
0.0
 11
6.8535
 21
5.092238
 31
0.0
  0
LINE
  5
C2
  8
0
 10
7.748393
 20
5.092238
 30
0.0
 11
8.117595
 21
5.092238
 31
0.0
  0
LINE
  5
C3
  8
0
 10
8.117595
 20
5.092238
 30
0.0
 11
8.35515
 21
5.092238
 31
0.0
  0
LINE
  5
C4
  8
0
 10
8.35515
 20
5.092238
 30
0.0
 11
8.6535
 21
5.092238
 31
0.0
  0
LINE
  5
C5
  8
0
 10
9.5485
 20
5.092238
 30
0.0
 11
9.7735
 21
5.092238
 31
0.0
  0
LINE
  5
C6
  8
0
 10
9.7735
 20
5.092238
 30
0.0
 11
10.4535
 21
5.092238
 31
0.0
  0
LINE
  5
C7
  8
0
 10
11.348407
 20
5.092238
 30
0.0
 11
11.899444
 21
5.092238
 31
0.0
  0
LINE
  5
C8
  8
0
 10
11.899444
 20
5.092238
 30
0.0
 11
12.2535
 21
5.092238
 31
0.0
  0
LINE
  5
C9
  8
0
 10
13.1485
 20
5.092238
 30
0.0
 11
13.8285
 21
5.092238
 31
0.0
  0
LINE
  5
CA
  8
0
 10
13.8285
 20
5.092238
 30
0.0
 11
14.0535
 21
5.092238
 31
0.0
  0
LINE
  5
CB
  8
0
 10
1.255395
 20
7.592238
 30
0.0
 11
1.4285
 21
7.592238
 31
0.0
  0
LINE
  5
CC
  8
0
 10
1.255395
 20
7.592238
 30
0.0
 11
1.4285
 21
7.592238
 31
0.0
  0
LINE
  5
CD
  8
0
 10
2.3235
 20
7.592238
 30
0.0
 11
3.0035
 21
7.592238
 31
0.0
  0
LINE
  5
CE
  8
0
 10
3.0035
 20
7.592238
 30
0.0
 11
3.2285
 21
7.592238
 31
0.0
  0
LINE
  5
CF
  8
0
 10
4.123236
 20
7.592238
 30
0.0
 11
4.621729
 21
7.592238
 31
0.0
  0
LINE
  5
D0
  8
0
 10
4.621729
 20
7.592238
 30
0.0
 11
4.622617
 21
7.592238
 31
0.0
  0
LINE
  5
D1
  8
0
 10
4.622617
 20
7.592238
 30
0.0
 11
5.0285
 21
7.592238
 31
0.0
  0
LINE
  5
D2
  8
0
 10
5.923006
 20
7.592238
 30
0.0
 11
6.004443
 21
7.592238
 31
0.0
  0
LINE
  5
D3
  8
0
 10
6.004443
 20
7.592238
 30
0.0
 11
6.555412
 21
7.592238
 31
0.0
  0
LINE
  5
D4
  8
0
 10
6.555412
 20
7.592238
 30
0.0
 11
6.8285
 21
7.592238
 31
0.0
  0
LINE
  5
D5
  8
0
 10
7.723339
 20
7.592238
 30
0.0
 11
8.116686
 21
7.592238
 31
0.0
  0
LINE
  5
D6
  8
0
 10
8.116686
 20
7.592238
 30
0.0
 11
8.3514
 21
7.592238
 31
0.0
  0
LINE
  5
D7
  8
0
 10
8.3514
 20
7.592238
 30
0.0
 11
8.6285
 21
7.592238
 31
0.0
  0
LINE
  5
D8
  8
0
 10
9.5235
 20
7.592238
 30
0.0
 11
10.2035
 21
7.592238
 31
0.0
  0
LINE
  5
D9
  8
0
 10
10.2035
 20
7.592238
 30
0.0
 11
10.4285
 21
7.592238
 31
0.0
  0
LINE
  5
DA
  8
0
 10
11.323192
 20
7.592238
 30
0.0
 11
11.864013
 21
7.592238
 31
0.0
  0
LINE
  5
DB
  8
0
 10
11.864013
 20
7.592238
 30
0.0
 11
12.2285
 21
7.592238
 31
0.0
  0
LINE
  5
DC
  8
0
 10
13.123379
 20
7.592238
 30
0.0
 11
13.18619
 21
7.592238
 31
0.0
  0
LINE
  5
DD
  8
0
 10
13.18619
 20
7.592238
 30
0.0
 11
13.4114
 21
7.592238
 31
0.0
  0
LINE
  5
DE
  8
0
 10
13.4114
 20
7.592238
 30
0.0
 11
14.0285
 21
7.592238
 31
0.0
  0
LINE
  5
DF
  8
0
 10
1.2467
 20
10.092238
 30
0.0
 11
1.4285
 21
10.092238
 31
0.0
  0
LINE
  5
E0
  8
0
 10
1.2467
 20
10.092238
 30
0.0
 11
1.4285
 21
10.092238
 31
0.0
  0
LINE
  5
E1
  8
0
 10
2.3235
 20
10.092238
 30
0.0
 11
3.0035
 21
10.092238
 31
0.0
  0
LINE
  5
E2
  8
0
 10
3.0035
 20
10.092238
 30
0.0
 11
3.2285
 21
10.092238
 31
0.0
  0
LINE
  5
E3
  8
0
 10
4.123236
 20
10.092238
 30
0.0
 11
4.621729
 21
10.092238
 31
0.0
  0
LINE
  5
E4
  8
0
 10
4.621729
 20
10.092238
 30
0.0
 11
4.622617
 21
10.092238
 31
0.0
  0
LINE
  5
E5
  8
0
 10
4.622617
 20
10.092238
 30
0.0
 11
5.0285
 21
10.092238
 31
0.0
  0
LINE
  5
E6
  8
0
 10
5.923006
 20
10.092238
 30
0.0
 11
6.004443
 21
10.092238
 31
0.0
  0
LINE
  5
E7
  8
0
 10
6.004443
 20
10.092238
 30
0.0
 11
6.555412
 21
10.092238
 31
0.0
  0
LINE
  5
E8
  8
0
 10
6.555412
 20
10.092238
 30
0.0
 11
6.8285
 21
10.092238
 31
0.0
  0
LINE
  5
E9
  8
0
 10
7.723339
 20
10.092238
 30
0.0
 11
8.116686
 21
10.092238
 31
0.0
  0
LINE
  5
EA
  8
0
 10
8.116686
 20
10.092238
 30
0.0
 11
8.3514
 21
10.092238
 31
0.0
  0
LINE
  5
EB
  8
0
 10
8.3514
 20
10.092238
 30
0.0
 11
8.6285
 21
10.092238
 31
0.0
  0
LINE
  5
EC
  8
0
 10
9.5235
 20
10.092238
 30
0.0
 11
10.2035
 21
10.092238
 31
0.0
  0
LINE
  5
ED
  8
0
 10
10.2035
 20
10.092238
 30
0.0
 11
10.4285
 21
10.092238
 31
0.0
  0
LINE
  5
EE
  8
0
 10
11.323192
 20
10.092238
 30
0.0
 11
11.864013
 21
10.092238
 31
0.0
  0
LINE
  5
EF
  8
0
 10
11.864013
 20
10.092238
 30
0.0
 11
12.2285
 21
10.092238
 31
0.0
  0
LINE
  5
F0
  8
0
 10
13.123379
 20
10.092238
 30
0.0
 11
13.18619
 21
10.092238
 31
0.0
  0
LINE
  5
F1
  8
0
 10
13.18619
 20
10.092238
 30
0.0
 11
13.4114
 21
10.092238
 31
0.0
  0
LINE
  5
F2
  8
0
 10
13.4114
 20
10.092238
 30
0.0
 11
14.0285
 21
10.092238
 31
0.0
  0
LINE
  5
F3
  8
0
 10
1.2353
 20
12.592238
 30
0.0
 11
1.4285
 21
12.592238
 31
0.0
  0
LINE
  5
F4
  8
0
 10
1.2353
 20
12.592238
 30
0.0
 11
1.4285
 21
12.592238
 31
0.0
  0
LINE
  5
F5
  8
0
 10
2.3235
 20
12.592238
 30
0.0
 11
3.0035
 21
12.592238
 31
0.0
  0
LINE
  5
F6
  8
0
 10
3.0035
 20
12.592238
 30
0.0
 11
3.2285
 21
12.592238
 31
0.0
  0
LINE
  5
F7
  8
0
 10
4.123236
 20
12.592238
 30
0.0
 11
4.621729
 21
12.592238
 31
0.0
  0
LINE
  5
F8
  8
0
 10
4.621729
 20
12.592238
 30
0.0
 11
4.622617
 21
12.592238
 31
0.0
  0
LINE
  5
F9
  8
0
 10
4.622617
 20
12.592238
 30
0.0
 11
5.0285
 21
12.592238
 31
0.0
  0
LINE
  5
FA
  8
0
 10
5.923006
 20
12.592238
 30
0.0
 11
6.004443
 21
12.592238
 31
0.0
  0
LINE
  5
FB
  8
0
 10
6.004443
 20
12.592238
 30
0.0
 11
6.555412
 21
12.592238
 31
0.0
  0
LINE
  5
FC
  8
0
 10
6.555412
 20
12.592238
 30
0.0
 11
6.8285
 21
12.592238
 31
0.0
  0
LINE
  5
FD
  8
0
 10
7.723339
 20
12.592238
 30
0.0
 11
8.116686
 21
12.592238
 31
0.0
  0
LINE
  5
FE
  8
0
 10
8.116686
 20
12.592238
 30
0.0
 11
8.3514
 21
12.592238
 31
0.0
  0
LINE
  5
FF
  8
0
 10
8.3514
 20
12.592238
 30
0.0
 11
8.6285
 21
12.592238
 31
0.0
  0
LINE
  5
100
  8
0
 10
9.5235
 20
12.592238
 30
0.0
 11
10.2035
 21
12.592238
 31
0.0
  0
LINE
  5
101
  8
0
 10
10.2035
 20
12.592238
 30
0.0
 11
10.4285
 21
12.592238
 31
0.0
  0
LINE
  5
102
  8
0
 10
11.323192
 20
12.592238
 30
0.0
 11
11.864013
 21
12.592238
 31
0.0
  0
LINE
  5
103
  8
0
 10
11.864013
 20
12.592238
 30
0.0
 11
12.2285
 21
12.592238
 31
0.0
  0
LINE
  5
104
  8
0
 10
13.123379
 20
12.592238
 30
0.0
 11
13.18619
 21
12.592238
 31
0.0
  0
LINE
  5
105
  8
0
 10
13.18619
 20
12.592238
 30
0.0
 11
13.4114
 21
12.592238
 31
0.0
  0
LINE
  5
106
  8
0
 10
13.4114
 20
12.592238
 30
0.0
 11
14.0285
 21
12.592238
 31
0.0
  0
ENDSEC
  0
EOF
