  0
SECTION
  2
HEADER
  9
$ACADVER
  1
AC1009
  9
$DWGCODEPAGE
  3
ANSI_1252
  9
$INSBASE
 10
0.0
 20
0.0
 30
0.0
  9
$EXTMIN
 10
1e+20
 20
1e+20
 30
1e+20
  9
$EXTMAX
 10
-1e+20
 20
-1e+20
 30
-1e+20
  9
$LIMMIN
 10
0.0
 20
0.0
  9
$LIMMAX
 10
420.0
 20
297.0
  9
$ORTHOMODE
 70
0
  9
$REGENMODE
 70
1
  9
$FILLMODE
 70
1
  9
$DRAGMODE
 70
2
  9
$QTEXTMODE
 70
0
  9
$MIRRTEXT
 70
1
  9
$OSMODE
 70
20583
  9
$LTSCALE
 40
1.0
  9
$ATTMODE
 70
1
  9
$TEXTSIZE
 40
2.5
  9
$TRACEWID
 40
1.0
  9
$TEXTSTYLE
  7
Standard
  9
$CLAYER
  8
0
  9
$CELTYPE
  6
ByLayer
  9
$CECOLOR
 62
256
  9
$DIMSCALE
 40
1.0
  9
$DIMASZ
 40
2.5
  9
$DIMEXO
 40
0.625
  9
$DIMDLI
 40
3.75
  9
$DIMRND
 40
0.0
  9
$DIMDLE
 40
0.0
  9
$DIMEXE
 40
1.25
  9
$DIMTP
 40
0.0
  9
$DIMTM
 40
0.0
  9
$DIMTXT
 40
2.5
  9
$DIMCEN
 40
2.5
  9
$DIMTSZ
 40
0.0
  9
$DIMTOL
 70
0
  9
$DIMLIM
 70
0
  9
$DIMTIH
 70
0
  9
$DIMTOH
 70
0
  9
$DIMSE1
 70
0
  9
$DIMSE2
 70
0
  9
$DIMTAD
 70
1
  9
$DIMZIN
 70
8
  9
$DIMBLK
  1

  9
$DIMASO
 70
1
  9
$DIMSHO
 70
1
  9
$DIMPOST
  1

  9
$DIMAPOST
  1

  9
$DIMALT
 70
0
  9
$DIMALTD
 70
3
  9
$DIMALTF
 40
0.03937007874
  9
$DIMLFAC
 40
1.0
  9
$DIMTOFL
 70
1
  9
$DIMTVP
 40
0.0
  9
$DIMTIX
 70
0
  9
$DIMSOXD
 70
0
  9
$DIMSAH
 70
0
  9
$DIMBLK1
  1

  9
$DIMBLK2
  1

  9
$DIMSTYLE
  2
ISO-25
  9
$DIMCLRD
 70
0
  9
$DIMCLRE
 70
0
  9
$DIMCLRT
 70
0
  9
$DIMTFAC
 40
1.0
  9
$DIMGAP
 40
0.625
  9
$COORDS
 70
1
  9
$ATTDIA
 70
0
  9
$ATTREQ
 70
1
  9
$HANDLING
 70
1
  9
$LUNITS
 70
2
  9
$LUPREC
 70
4
  9
$SKETCHINC
 40
1.0
  9
$FILLETRAD
 40
10.0
  9
$AUNITS
 70
0
  9
$AUPREC
 70
2
  9
$MENU
  1
.
  9
$ELEVATION
 40
0.0
  9
$PELEVATION
 40
0.0
  9
$THICKNESS
 40
0.0
  9
$LIMCHECK
 70
0
  9
$CHAMFERA
 40
0.0
  9
$CHAMFERB
 40
0.0
  9
$SKPOLY
 70
0
  9
$TDCREATE
 40
2460887.5100694443
  9
$TDUPDATE
 40
2460887.5100694443
  9
$TDINDWG
 40
0.0
  9
$TDUSRTIMER
 40
0.0
  9
$USRTIMER
 70
1
  9
$ANGBASE
 50
0.0
  9
$ANGDIR
 70
0
  9
$PDMODE
 70
0
  9
$PDSIZE
 40
0.0
  9
$PLINEWID
 40
0.0
  9
$SPLFRAME
 70
0
  9
$SPLINETYPE
 70
6
  9
$SPLINESEGS
 70
8
  9
$HANDSEED
  5
110
  9
$SURFTAB1
 70
6
  9
$SURFTAB2
 70
6
  9
$SURFTYPE
 70
6
  9
$SURFU
 70
6
  9
$SURFV
 70
6
  9
$UCSNAME
  2

  9
$UCSORG
 10
0.0
 20
0.0
 30
0.0
  9
$UCSXDIR
 10
1.0
 20
0.0
 30
0.0
  9
$UCSYDIR
 10
0.0
 20
1.0
 30
0.0
  9
$PUCSNAME
  2

  9
$PUCSORG
 10
0.0
 20
0.0
 30
0.0
  9
$PUCSXDIR
 10
1.0
 20
0.0
 30
0.0
  9
$PUCSYDIR
 10
0.0
 20
1.0
 30
0.0
  9
$USERI1
 70
0
  9
$USERI2
 70
0
  9
$USERI3
 70
0
  9
$USERI4
 70
0
  9
$USERI5
 70
0
  9
$USERR1
 40
0.0
  9
$USERR2
 40
0.0
  9
$USERR3
 40
0.0
  9
$USERR4
 40
0.0
  9
$USERR5
 40
0.0
  9
$WORLDVIEW
 70
1
  9
$SHADEDGE
 70
3
  9
$SHADEDIF
 70
70
  9
$TILEMODE
 70
1
  9
$MAXACTVP
 70
64
  9
$PLIMCHECK
 70
0
  9
$PEXTMIN
 10
1e+20
 20
1e+20
 30
1e+20
  9
$PEXTMAX
 10
-1e+20
 20
-1e+20
 30
-1e+20
  9
$PLIMMIN
 10
0.0
 20
0.0
  9
$PLIMMAX
 10
420.0
 20
297.0
  9
$UNITMODE
 70
0
  9
$VISRETAIN
 70
1
  9
$PLINEGEN
 70
0
  9
$PSLTSCALE
 70
1
  0
ENDSEC
  0
SECTION
  2
TABLES
  0
TABLE
  2
VPORT
 70
1
  0
VPORT
  5
23
  2
*Active
 70
0
 10
0.0
 20
0.0
 11
1.0
 21
1.0
 12
0.0
 22
0.0
 13
0.0
 23
0.0
 14
0.5
 24
0.5
 15
0.5
 25
0.5
 16
0.0
 26
0.0
 36
1.0
 17
0.0
 27
0.0
 37
0.0
 40
1000.0
 41
1.34
 42
50.0
 43
0.0
 44
0.0
 50
0.0
 51
0.0
 71
0
 72
1000
 73
1
 74
3
 75
0
 76
0
 77
0
 78
0
  0
ENDTAB
  0
TABLE
  2
LTYPE
 70
3
  0
LTYPE
  5
24
  2
ByBlock
 70
0
  3

 72
65
 73
0
 40
0.0
  0
LTYPE
  5
25
  2
ByLayer
 70
0
  3

 72
65
 73
0
 40
0.0
  0
LTYPE
  5
26
  2
Continuous
 70
0
  3

 72
65
 73
0
 40
0.0
  0
ENDTAB
  0
TABLE
  2
LAYER
 70
2
  0
LAYER
  5
27
  2
0
 70
0
 62
7
  6
Continuous
  0
LAYER
  5
28
  2
Defpoints
 70
0
 62
7
  6
Continuous
  0
ENDTAB
  0
TABLE
  2
STYLE
 70
1
  0
STYLE
  5
29
  2
Standard
 70
0
 40
0.0
 41
1.0
 50
0.0
 71
0
 42
2.5
  3
txt
  4

  0
ENDTAB
  0
TABLE
  2
VIEW
 70
0
  0
ENDTAB
  0
TABLE
  2
UCS
 70
0
  0
ENDTAB
  0
TABLE
  2
APPID
 70
3
  0
APPID
  5
2A
  2
ACAD
 70
0
  0
APPID
  5
10E
  2
HATCHBACKGROUNDCOLOR
 70
0
  0
APPID
  5
10F
  2
EZDXF
 70
0
  0
ENDTAB
  0
TABLE
  2
DIMSTYLE
 70
1
  0
DIMSTYLE
105
2B
  2
Standard
 70
0
  3

  4

  5

  6

  7

 40
1.0
 41
2.5
 42
0.625
 43
3.75
 44
1.25
 45
0.0
 46
0.0
 47
0.0
 48
0.0
140
2.5
141
2.5
142
0.0
143
0.03937007874
144
1.0
145
0.0
146
1.0
147
0.625
 71
0
 72
0
 73
0
 74
0
 75
0
 76
0
 77
1
 78
8
170
0
171
3
172
1
173
0
174
0
175
0
176
0
177
0
178
0
  0
ENDTAB
  0
ENDSEC
  0
SECTION
  2
BLOCKS
  0
BLOCK
  5
18
  8
0
  2
$Model_Space
 70
0
 10
0.0
 20
0.0
 30
0.0
  3
$Model_Space
  1

1001
EZDXF
1000
CREATED_BY_EZDXF
1000
1.4.2 @ 2025-07-30T15:14:30.528480+00:00
1000
WRITTEN_BY_EZDXF
1000
1.4.2 @ 2025-07-30T15:14:30.544105+00:00
  0
ENDBLK
  5
19
  8
0
  0
BLOCK
  5
1C
  8
0
  2
$Paper_Space
 70
0
 10
0.0
 20
0.0
 30
0.0
  3
$Paper_Space
  1

  0
ENDBLK
  5
1D
  8
0
  0
ENDSEC
  0
SECTION
  2
ENTITIES
  0
LINE
  5
2D
  8
0
 10
2.317629
 20
0.434085
 30
0.0
 11
1.220498
 21
0.598237
 31
0.0
  0
LINE
  5
2E
  8
0
 10
2.317629
 20
0.434085
 30
0.0
 11
1.220498
 21
0.598237
 31
0.0
  0
LINE
  5
2F
  8
0
 10
0.651239
 20
1.094578
 30
0.0
 11
0.534783
 21
1.465075
 31
0.0
  0
LINE
  5
30
  8
0
 10
0.4496
 20
2.144801
 30
0.0
 11
0.46733
 21
3.258986
 31
0.0
  0
LINE
  5
31
  8
0
 10
0.484577
 20
3.943248
 30
0.0
 11
0.512689
 21
5.058579
 31
0.0
  0
LINE
  5
32
  8
0
 10
0.529949
 20
5.743337
 30
0.0
 11
0.558046
 21
6.858038
 31
0.0
  0
LINE
  5
33
  8
0
 10
0.575286
 20
7.541999
 30
0.0
 11
0.558159
 21
8.657412
 31
0.0
  0
LINE
  5
34
  8
0
 10
0.537211
 20
9.341529
 30
0.0
 11
0.503067
 21
10.456627
 31
0.0
  0
LINE
  5
35
  8
0
 10
0.482119
 20
11.140776
 30
0.0
 11
0.447991
 21
12.255342
 31
0.0
  0
LINE
  5
36
  8
0
 10
0.445269
 20
12.939944
 30
0.0
 11
0.631605
 21
14.032538
 31
0.0
  0
LINE
  5
37
  8
0
 10
1.077297
 20
14.529634
 30
0.0
 11
2.160575
 21
14.748615
 31
0.0
  0
LINE
  5
38
  8
0
 10
2.845387
 20
14.732778
 30
0.0
 11
3.959417
 21
14.694044
 31
0.0
  0
LINE
  5
39
  8
0
 10
4.643763
 20
14.67025
 30
0.0
 11
5.758428
 21
14.631494
 31
0.0
  0
LINE
  5
3A
  8
0
 10
6.443712
 20
14.625828
 30
0.0
 11
7.558766
 21
14.627439
 31
0.0
  0
LINE
  5
3B
  8
0
 10
8.24299
 20
14.628427
 30
0.0
 11
9.358861
 21
14.630039
 31
0.0
  0
LINE
  5
3C
  8
0
 10
10.043217
 20
14.631028
 30
0.0
 11
11.158607
 21
14.632639
 31
0.0
  0
LINE
  5
3D
  8
0
 10
11.843094
 20
14.633627
 30
0.0
 11
12.958485
 21
14.635239
 31
0.0
  0
LINE
  5
3E
  8
0
 10
13.643094
 20
14.636228
 30
0.0
 11
14.462329
 21
14.637411
 31
0.0
  0
LINE
  5
3F
  8
0
 10
14.462329
 20
14.637411
 30
0.0
 11
14.626219
 21
14.505156
 31
0.0
  0
LINE
  5
40
  8
0
 10
14.626219
 20
14.505156
 30
0.0
 11
13.643094
 21
14.636228
 31
0.0
  0
LINE
  5
41
  8
0
 10
14.626212
 20
13.820866
 30
0.0
 11
14.626199
 21
12.705623
 31
0.0
  0
LINE
  5
42
  8
0
 10
14.626192
 20
12.020094
 30
0.0
 11
14.626179
 21
10.905525
 31
0.0
  0
LINE
  5
43
  8
0
 10
14.626172
 20
10.220545
 30
0.0
 11
14.626159
 21
9.105428
 31
0.0
  0
LINE
  5
44
  8
0
 10
14.626152
 20
8.420034
 30
0.0
 11
14.626139
 21
7.30533
 31
0.0
  0
LINE
  5
45
  8
0
 10
14.626131
 20
6.620707
 30
0.0
 11
14.636659
 21
5.505384
 31
0.0
  0
LINE
  5
46
  8
0
 10
14.660777
 20
4.821087
 30
0.0
 11
14.70005
 21
3.70676
 31
0.0
  0
LINE
  5
47
  8
0
 10
14.724167
 20
3.022467
 30
0.0
 11
14.705046
 21
1.910495
 31
0.0
  0
LINE
  5
48
  8
0
 10
14.597147
 20
1.236867
 30
0.0
 11
14.316844
 21
0.799831
 31
0.0
  0
LINE
  5
49
  8
0
 10
14.316844
 20
0.799831
 30
0.0
 11
13.79072
 21
0.549541
 31
0.0
  0
LINE
  5
4A
  8
0
 10
13.79072
 20
0.549541
 30
0.0
 11
14.597147
 21
1.236867
 31
0.0
  0
LINE
  5
4B
  8
0
 10
13.112505
 20
0.457499
 30
0.0
 11
13.103376
 21
0.457143
 31
0.0
  0
LINE
  5
4C
  8
0
 10
13.103376
 20
0.457143
 30
0.0
 11
12.845393
 21
0.448641
 31
0.0
  0
LINE
  5
4D
  8
0
 10
12.845393
 20
0.448641
 30
0.0
 11
11.998619
 21
0.468947
 31
0.0
  0
LINE
  5
4E
  8
0
 10
11.313888
 20
0.485367
 30
0.0
 11
10.199039
 21
0.512101
 31
0.0
  0
LINE
  5
4F
  8
0
 10
9.514193
 20
0.528523
 30
0.0
 11
8.399459
 21
0.555255
 31
0.0
  0
LINE
  5
50
  8
0
 10
7.714723
 20
0.571674
 30
0.0
 11
6.599989
 21
0.563781
 31
0.0
  0
LINE
  5
51
  8
0
 10
5.915928
 20
0.542132
 30
0.0
 11
4.800808
 21
0.506841
 31
0.0
  0
LINE
  5
52
  8
0
 10
4.11635
 20
0.485179
 30
0.0
 11
3.002213
 21
0.449918
 31
0.0
  0
LINE
  5
53
  8
0
 10
2.592849
 20
1.01725
 30
0.0
 11
2.592849
 21
1.6495
 31
0.0
  0
LINE
  5
54
  8
0
 10
2.592849
 20
1.01725
 30
0.0
 11
2.592849
 21
1.6495
 31
0.0
  0
LINE
  5
55
  8
0
 10
2.592849
 20
2.3335
 30
0.0
 11
2.592849
 21
2.33405
 31
0.0
  0
LINE
  5
56
  8
0
 10
2.592849
 20
2.33405
 30
0.0
 11
2.592849
 21
3.036941
 31
0.0
  0
LINE
  5
57
  8
0
 10
2.592849
 20
3.036941
 30
0.0
 11
2.592849
 21
3.449427
 31
0.0
  0
LINE
  5
58
  8
0
 10
2.592849
 20
4.133288
 30
0.0
 11
2.592849
 21
4.57317
 31
0.0
  0
LINE
  5
59
  8
0
 10
2.592849
 20
4.57317
 30
0.0
 11
2.592849
 21
5.2495
 31
0.0
  0
LINE
  5
5A
  8
0
 10
2.592849
 20
5.933584
 30
0.0
 11
2.592849
 21
6.172275
 31
0.0
  0
LINE
  5
5B
  8
0
 10
2.592849
 20
6.172275
 30
0.0
 11
2.592849
 21
7.0495
 31
0.0
  0
LINE
  5
5C
  8
0
 10
2.592849
 20
7.733546
 30
0.0
 11
2.592849
 21
7.851715
 31
0.0
  0
LINE
  5
5D
  8
0
 10
2.592849
 20
7.851715
 30
0.0
 11
2.592849
 21
8.8495
 31
0.0
  0
LINE
  5
5E
  8
0
 10
2.592849
 20
9.5335
 30
0.0
 11
2.592849
 21
9.53405
 31
0.0
  0
LINE
  5
5F
  8
0
 10
2.592849
 20
9.53405
 30
0.0
 11
2.592849
 21
10.2095
 31
0.0
  0
LINE
  5
60
  8
0
 10
2.592849
 20
10.2095
 30
0.0
 11
2.592849
 21
10.6495
 31
0.0
  0
LINE
  5
61
  8
0
 10
2.592849
 20
11.333377
 30
0.0
 11
2.592849
 21
11.333561
 31
0.0
  0
LINE
  5
62
  8
0
 10
2.592849
 20
11.333561
 30
0.0
 11
2.592849
 21
11.480203
 31
0.0
  0
LINE
  5
63
  8
0
 10
2.592849
 20
11.480203
 30
0.0
 11
2.592849
 21
12.4495
 31
0.0
  0
LINE
  5
64
  8
0
 10
2.592849
 20
13.1335
 30
0.0
 11
2.592849
 21
13.13405
 31
0.0
  0
LINE
  5
65
  8
0
 10
2.592849
 20
13.13405
 30
0.0
 11
2.592849
 21
13.8095
 31
0.0
  0
LINE
  5
66
  8
0
 10
2.592849
 20
13.8095
 30
0.0
 11
2.592849
 21
14.2495
 31
0.0
  0
LINE
  5
67
  8
0
 10
5.092849
 20
1.00495
 30
0.0
 11
5.092849
 21
1.5625
 31
0.0
  0
LINE
  5
68
  8
0
 10
5.092849
 20
1.00495
 30
0.0
 11
5.092849
 21
1.5625
 31
0.0
  0
LINE
  5
69
  8
0
 10
5.092849
 20
2.2475
 30
0.0
 11
5.092849
 21
2.6875
 31
0.0
  0
LINE
  5
6A
  8
0
 10
5.092849
 20
2.6875
 30
0.0
 11
5.092849
 21
3.3625
 31
0.0
  0
LINE
  5
6B
  8
0
 10
5.092849
 20
4.0475
 30
0.0
 11
5.092849
 21
4.174
 31
0.0
  0
LINE
  5
6C
  8
0
 10
5.092849
 20
4.174
 30
0.0
 11
5.092849
 21
4.849
 31
0.0
  0
LINE
  5
6D
  8
0
 10
5.092849
 20
4.849
 30
0.0
 11
5.092849
 21
5.1625
 31
0.0
  0
LINE
  5
6E
  8
0
 10
5.092849
 20
5.84716
 30
0.0
 11
5.092849
 21
6.327621
 31
0.0
  0
LINE
  5
6F
  8
0
 10
5.092849
 20
6.327621
 30
0.0
 11
5.092849
 21
6.9625
 31
0.0
  0
LINE
  5
70
  8
0
 10
5.092849
 20
7.647472
 30
0.0
 11
5.092849
 21
7.913844
 31
0.0
  0
LINE
  5
71
  8
0
 10
5.092849
 20
7.913844
 30
0.0
 11
5.092849
 21
8.762476
 31
0.0
  0
LINE
  5
72
  8
0
 10
5.092849
 20
9.4475
 30
0.0
 11
5.092849
 21
9.8875
 31
0.0
  0
LINE
  5
73
  8
0
 10
5.092849
 20
9.8875
 30
0.0
 11
5.092849
 21
10.5625
 31
0.0
  0
LINE
  5
74
  8
0
 10
5.092849
 20
11.246994
 30
0.0
 11
5.092849
 21
11.307772
 31
0.0
  0
LINE
  5
75
  8
0
 10
5.092849
 20
11.307772
 30
0.0
 11
5.092849
 21
12.3625
 31
0.0
  0
LINE
  5
76
  8
0
 10
5.092849
 20
13.0475
 30
0.0
 11
5.092849
 21
13.4875
 31
0.0
  0
LINE
  5
77
  8
0
 10
5.092849
 20
13.4875
 30
0.0
 11
5.092849
 21
14.1625
 31
0.0
  0
LINE
  5
78
  8
0
 10
7.592849
 20
1.0161
 30
0.0
 11
7.592849
 21
1.53495
 31
0.0
  0
LINE
  5
79
  8
0
 10
7.592849
 20
1.0161
 30
0.0
 11
7.592849
 21
1.53495
 31
0.0
  0
LINE
  5
7A
  8
0
 10
7.592849
 20
2.2195
 30
0.0
 11
7.592849
 21
2.66005
 31
0.0
  0
LINE
  5
7B
  8
0
 10
7.592849
 20
2.66005
 30
0.0
 11
7.592849
 21
3.3355
 31
0.0
  0
LINE
  5
7C
  8
0
 10
7.592849
 20
4.0195
 30
0.0
 11
7.592849
 21
4.69495
 31
0.0
  0
LINE
  5
7D
  8
0
 10
7.592849
 20
4.69495
 30
0.0
 11
7.592849
 21
5.1355
 31
0.0
  0
LINE
  5
7E
  8
0
 10
7.592849
 20
5.818937
 30
0.0
 11
7.592849
 21
6.32553
 31
0.0
  0
LINE
  5
7F
  8
0
 10
7.592849
 20
6.32553
 30
0.0
 11
7.592849
 21
6.9355
 31
0.0
  0
LINE
  5
80
  8
0
 10
7.592849
 20
7.6195
 30
0.0
 11
7.592849
 21
8.06005
 31
0.0
  0
LINE
  5
81
  8
0
 10
7.592849
 20
8.06005
 30
0.0
 11
7.592849
 21
8.7355
 31
0.0
  0
LINE
  5
82
  8
0
 10
7.592849
 20
9.4195
 30
0.0
 11
7.592849
 21
10.09495
 31
0.0
  0
LINE
  5
83
  8
0
 10
7.592849
 20
10.09495
 30
0.0
 11
7.592849
 21
10.5355
 31
0.0
  0
LINE
  5
84
  8
0
 10
7.592849
 20
11.2195
 30
0.0
 11
7.592849
 21
11.66005
 31
0.0
  0
LINE
  5
85
  8
0
 10
7.592849
 20
11.66005
 30
0.0
 11
7.592849
 21
12.3355
 31
0.0
  0
LINE
  5
86
  8
0
 10
7.592849
 20
13.0195
 30
0.0
 11
7.592849
 21
13.46005
 31
0.0
  0
LINE
  5
87
  8
0
 10
7.592849
 20
13.46005
 30
0.0
 11
7.592849
 21
14.1355
 31
0.0
  0
LINE
  5
88
  8
0
 10
10.092849
 20
0.9913
 30
0.0
 11
10.092849
 21
1.5385
 31
0.0
  0
LINE
  5
89
  8
0
 10
10.092849
 20
0.9913
 30
0.0
 11
10.092849
 21
1.5385
 31
0.0
  0
LINE
  5
8A
  8
0
 10
10.092849
 20
2.2235
 30
0.0
 11
10.092849
 21
2.6635
 31
0.0
  0
LINE
  5
8B
  8
0
 10
10.092849
 20
2.6635
 30
0.0
 11
10.092849
 21
3.3385
 31
0.0
  0
LINE
  5
8C
  8
0
 10
10.092849
 20
4.023602
 30
0.0
 11
10.092849
 21
4.506339
 31
0.0
  0
LINE
  5
8D
  8
0
 10
10.092849
 20
4.506339
 30
0.0
 11
10.092849
 21
5.1385
 31
0.0
  0
LINE
  5
8E
  8
0
 10
10.092849
 20
5.8235
 30
0.0
 11
10.092849
 21
6.2635
 31
0.0
  0
LINE
  5
8F
  8
0
 10
10.092849
 20
6.2635
 30
0.0
 11
10.092849
 21
6.9385
 31
0.0
  0
LINE
  5
90
  8
0
 10
10.092849
 20
7.623469
 30
0.0
 11
10.092849
 21
7.921377
 31
0.0
  0
LINE
  5
91
  8
0
 10
10.092849
 20
7.921377
 30
0.0
 11
10.092849
 21
8.7385
 31
0.0
  0
LINE
  5
92
  8
0
 10
10.092849
 20
9.4235
 30
0.0
 11
10.092849
 21
10.0985
 31
0.0
  0
LINE
  5
93
  8
0
 10
10.092849
 20
10.0985
 30
0.0
 11
10.092849
 21
10.5385
 31
0.0
  0
LINE
  5
94
  8
0
 10
10.092849
 20
11.2235
 30
0.0
 11
10.092849
 21
11.6635
 31
0.0
  0
LINE
  5
95
  8
0
 10
10.092849
 20
11.6635
 30
0.0
 11
10.092849
 21
12.3385
 31
0.0
  0
LINE
  5
96
  8
0
 10
10.092849
 20
13.0235
 30
0.0
 11
10.092849
 21
13.6985
 31
0.0
  0
LINE
  5
97
  8
0
 10
10.092849
 20
13.6985
 30
0.0
 11
10.092849
 21
14.1385
 31
0.0
  0
LINE
  5
98
  8
0
 10
12.592849
 20
0.9665
 30
0.0
 11
12.592849
 21
1.542476
 31
0.0
  0
LINE
  5
99
  8
0
 10
12.592849
 20
0.9665
 30
0.0
 11
12.592849
 21
1.542476
 31
0.0
  0
LINE
  5
9A
  8
0
 10
12.592849
 20
2.2275
 30
0.0
 11
12.592849
 21
2.6675
 31
0.0
  0
LINE
  5
9B
  8
0
 10
12.592849
 20
2.6675
 30
0.0
 11
12.592849
 21
3.3425
 31
0.0
  0
LINE
  5
9C
  8
0
 10
12.592849
 20
4.027276
 30
0.0
 11
12.592849
 21
4.185813
 31
0.0
  0
LINE
  5
9D
  8
0
 10
12.592849
 20
4.185813
 30
0.0
 11
12.592849
 21
4.84
 31
0.0
  0
LINE
  5
9E
  8
0
 10
12.592849
 20
4.84
 30
0.0
 11
12.592849
 21
5.1425
 31
0.0
  0
LINE
  5
9F
  8
0
 10
12.592849
 20
5.827
 30
0.0
 11
12.592849
 21
6.326019
 31
0.0
  0
LINE
  5
A0
  8
0
 10
12.592849
 20
6.326019
 30
0.0
 11
12.592849
 21
6.9425
 31
0.0
  0
LINE
  5
A1
  8
0
 10
12.592849
 20
7.62733
 30
0.0
 11
12.592849
 21
8.132226
 31
0.0
  0
LINE
  5
A2
  8
0
 10
12.592849
 20
8.132226
 30
0.0
 11
12.592849
 21
8.7425
 31
0.0
  0
LINE
  5
A3
  8
0
 10
12.592849
 20
9.4275
 30
0.0
 11
12.592849
 21
10.1025
 31
0.0
  0
LINE
  5
A4
  8
0
 10
12.592849
 20
10.1025
 30
0.0
 11
12.592849
 21
10.5425
 31
0.0
  0
LINE
  5
A5
  8
0
 10
12.592849
 20
11.2275
 30
0.0
 11
12.592849
 21
11.6675
 31
0.0
  0
LINE
  5
A6
  8
0
 10
12.592849
 20
11.6675
 30
0.0
 11
12.592849
 21
12.3425
 31
0.0
  0
LINE
  5
A7
  8
0
 10
12.592849
 20
13.0275
 30
0.0
 11
12.592849
 21
13.4675
 31
0.0
  0
LINE
  5
A8
  8
0
 10
12.592849
 20
13.4675
 30
0.0
 11
12.592849
 21
14.1425
 31
0.0
  0
LINE
  5
A9
  8
0
 10
0.9425
 20
2.592238
 30
0.0
 11
0.94305
 21
2.592238
 31
0.0
  0
LINE
  5
AA
  8
0
 10
0.9425
 20
2.592238
 30
0.0
 11
0.94305
 21
2.592238
 31
0.0
  0
LINE
  5
AB
  8
0
 10
0.94305
 20
2.592238
 30
0.0
 11
1.6185
 21
2.592238
 31
0.0
  0
LINE
  5
AC
  8
0
 10
1.6185
 20
2.592238
 30
0.0
 11
2.0585
 21
2.592238
 31
0.0
  0
LINE
  5
AD
  8
0
 10
2.7425
 20
2.592238
 30
0.0
 11
2.74305
 21
2.592238
 31
0.0
  0
LINE
  5
AE
  8
0
 10
2.74305
 20
2.592238
 30
0.0
 11
3.4185
 21
2.592238
 31
0.0
  0
LINE
  5
AF
  8
0
 10
3.4185
 20
2.592238
 30
0.0
 11
3.8585
 21
2.592238
 31
0.0
  0
LINE
  5
B0
  8
0
 10
4.5425
 20
2.592238
 30
0.0
 11
4.54305
 21
2.592238
 31
0.0
  0
LINE
  5
B1
  8
0
 10
4.54305
 20
2.592238
 30
0.0
 11
5.2185
 21
2.592238
 31
0.0
  0
LINE
  5
B2
  8
0
 10
5.2185
 20
2.592238
 30
0.0
 11
5.6585
 21
2.592238
 31
0.0
  0
LINE
  5
B3
  8
0
 10
6.34246
 20
2.592238
 30
0.0
 11
6.342652
 21
2.592238
 31
0.0
  0
LINE
  5
B4
  8
0
 10
6.342652
 20
2.592238
 30
0.0
 11
6.496332
 21
2.592238
 31
0.0
  0
LINE
  5
B5
  8
0
 10
6.496332
 20
2.592238
 30
0.0
 11
7.4585
 21
2.592238
 31
0.0
  0
LINE
  5
B6
  8
0
 10
8.1425
 20
2.592238
 30
0.0
 11
8.14305
 21
2.592238
 31
0.0
  0
LINE
  5
B7
  8
0
 10
8.14305
 20
2.592238
 30
0.0
 11
8.8185
 21
2.592238
 31
0.0
  0
LINE
  5
B8
  8
0
 10
8.8185
 20
2.592238
 30
0.0
 11
9.2585
 21
2.592238
 31
0.0
  0
LINE
  5
B9
  8
0
 10
9.9425
 20
2.592238
 30
0.0
 11
9.94305
 21
2.592238
 31
0.0
  0
LINE
  5
BA
  8
0
 10
9.94305
 20
2.592238
 30
0.0
 11
10.6185
 21
2.592238
 31
0.0
  0
LINE
  5
BB
  8
0
 10
10.6185
 20
2.592238
 30
0.0
 11
11.0585
 21
2.592238
 31
0.0
  0
LINE
  5
BC
  8
0
 10
11.742213
 20
2.592238
 30
0.0
 11
12.368744
 21
2.592238
 31
0.0
  0
LINE
  5
BD
  8
0
 10
12.368744
 20
2.592238
 30
0.0
 11
12.8585
 21
2.592238
 31
0.0
  0
LINE
  5
BE
  8
0
 10
13.542417
 20
2.592238
 30
0.0
 11
13.784345
 21
2.592238
 31
0.0
  0
LINE
  5
BF
  8
0
 10
13.784345
 20
2.592238
 30
0.0
 11
14.1681
 21
2.592238
 31
0.0
  0
LINE
  5
C0
  8
0
 10
1.005063
 20
5.092238
 30
0.0
 11
1.31335
 21
5.092238
 31
0.0
  0
LINE
  5
C1
  8
0
 10
1.005063
 20
5.092238
 30
0.0
 11
1.31335
 21
5.092238
 31
0.0
  0
LINE
  5
C2
  8
0
 10
1.31335
 20
5.092238
 30
0.0
 11
2.1215
 21
5.092238
 31
0.0
  0
LINE
  5
C3
  8
0
 10
2.805096
 20
5.092238
 30
0.0
 11
2.937425
 21
5.092238
 31
0.0
  0
LINE
  5
C4
  8
0
 10
2.937425
 20
5.092238
 30
0.0
 11
3.6388
 21
5.092238
 31
0.0
  0
LINE
  5
C5
  8
0
 10
3.6388
 20
5.092238
 30
0.0
 11
3.9215
 21
5.092238
 31
0.0
  0
LINE
  5
C6
  8
0
 10
4.6055
 20
5.092238
 30
0.0
 11
5.04605
 21
5.092238
 31
0.0
  0
LINE
  5
C7
  8
0
 10
5.04605
 20
5.092238
 30
0.0
 11
5.7215
 21
5.092238
 31
0.0
  0
LINE
  5
C8
  8
0
 10
6.405422
 20
5.092238
 30
0.0
 11
6.57846
 21
5.092238
 31
0.0
  0
LINE
  5
C9
  8
0
 10
6.57846
 20
5.092238
 30
0.0
 11
7.5215
 21
5.092238
 31
0.0
  0
LINE
  5
CA
  8
0
 10
8.205197
 20
5.092238
 30
0.0
 11
8.804109
 21
5.092238
 31
0.0
  0
LINE
  5
CB
  8
0
 10
8.804109
 20
5.092238
 30
0.0
 11
9.3215
 21
5.092238
 31
0.0
  0
LINE
  5
CC
  8
0
 10
10.0055
 20
5.092238
 30
0.0
 11
10.44605
 21
5.092238
 31
0.0
  0
LINE
  5
CD
  8
0
 10
10.44605
 20
5.092238
 30
0.0
 11
11.1215
 21
5.092238
 31
0.0
  0
LINE
  5
CE
  8
0
 10
11.8055
 20
5.092238
 30
0.0
 11
12.48095
 21
5.092238
 31
0.0
  0
LINE
  5
CF
  8
0
 10
12.48095
 20
5.092238
 30
0.0
 11
12.9215
 21
5.092238
 31
0.0
  0
LINE
  5
D0
  8
0
 10
13.6055
 20
5.092238
 30
0.0
 11
13.60605
 21
5.092238
 31
0.0
  0
LINE
  5
D1
  8
0
 10
13.60605
 20
5.092238
 30
0.0
 11
14.16315
 21
5.092238
 31
0.0
  0
LINE
  5
D2
  8
0
 10
1.068117
 20
7.592238
 30
0.0
 11
1.291474
 21
7.592238
 31
0.0
  0
LINE
  5
D3
  8
0
 10
1.068117
 20
7.592238
 30
0.0
 11
1.291474
 21
7.592238
 31
0.0
  0
LINE
  5
D4
  8
0
 10
1.291474
 20
7.592238
 30
0.0
 11
2.1845
 21
7.592238
 31
0.0
  0
LINE
  5
D5
  8
0
 10
2.868347
 20
7.592238
 30
0.0
 11
2.868837
 21
7.592238
 31
0.0
  0
LINE
  5
D6
  8
0
 10
2.868837
 20
7.592238
 30
0.0
 11
2.978061
 21
7.592238
 31
0.0
  0
LINE
  5
D7
  8
0
 10
2.978061
 20
7.592238
 30
0.0
 11
3.66715
 21
7.592238
 31
0.0
  0
LINE
  5
D8
  8
0
 10
3.66715
 20
7.592238
 30
0.0
 11
3.9845
 21
7.592238
 31
0.0
  0
LINE
  5
D9
  8
0
 10
4.6685
 20
7.592238
 30
0.0
 11
4.66905
 21
7.592238
 31
0.0
  0
LINE
  5
DA
  8
0
 10
4.66905
 20
7.592238
 30
0.0
 11
5.3445
 21
7.592238
 31
0.0
  0
LINE
  5
DB
  8
0
 10
5.3445
 20
7.592238
 30
0.0
 11
5.7845
 21
7.592238
 31
0.0
  0
LINE
  5
DC
  8
0
 10
6.468453
 20
7.592238
 30
0.0
 11
6.468509
 21
7.592238
 31
0.0
  0
LINE
  5
DD
  8
0
 10
6.468509
 20
7.592238
 30
0.0
 11
6.513792
 21
7.592238
 31
0.0
  0
LINE
  5
DE
  8
0
 10
6.513792
 20
7.592238
 30
0.0
 11
7.5845
 21
7.592238
 31
0.0
  0
LINE
  5
DF
  8
0
 10
8.26848
 20
7.592238
 30
0.0
 11
8.819405
 21
7.592238
 31
0.0
  0
LINE
  5
E0
  8
0
 10
8.819405
 20
7.592238
 30
0.0
 11
9.3845
 21
7.592238
 31
0.0
  0
LINE
  5
E1
  8
0
 10
10.0685
 20
7.592238
 30
0.0
 11
10.06905
 21
7.592238
 31
0.0
  0
LINE
  5
E2
  8
0
 10
10.06905
 20
7.592238
 30
0.0
 11
10.7445
 21
7.592238
 31
0.0
  0
LINE
  5
E3
  8
0
 10
10.7445
 20
7.592238
 30
0.0
 11
11.1845
 21
7.592238
 31
0.0
  0
LINE
  5
E4
  8
0
 10
11.8685
 20
7.592238
 30
0.0
 11
11.86905
 21
7.592238
 31
0.0
  0
LINE
  5
E5
  8
0
 10
11.86905
 20
7.592238
 30
0.0
 11
12.5445
 21
7.592238
 31
0.0
  0
LINE
  5
E6
  8
0
 10
12.5445
 20
7.592238
 30
0.0
 11
12.9845
 21
7.592238
 31
0.0
  0
LINE
  5
E7
  8
0
 10
13.667968
 20
7.592238
 30
0.0
 11
13.712538
 21
7.592238
 31
0.0
  0
LINE
  5
E8
  8
0
 10
13.712538
 20
7.592238
 30
0.0
 11
14.18655
 21
7.592238
 31
0.0
  0
LINE
  5
E9
  8
0
 10
1.006063
 20
10.092238
 30
0.0
 11
1.314145
 21
10.092238
 31
0.0
  0
LINE
  5
EA
  8
0
 10
1.006063
 20
10.092238
 30
0.0
 11
1.314145
 21
10.092238
 31
0.0
  0
LINE
  5
EB
  8
0
 10
1.314145
 20
10.092238
 30
0.0
 11
2.1215
 21
10.092238
 31
0.0
  0
LINE
  5
EC
  8
0
 10
2.806285
 20
10.092238
 30
0.0
 11
2.938337
 21
10.092238
 31
0.0
  0
LINE
  5
ED
  8
0
 10
2.938337
 20
10.092238
 30
0.0
 11
3.6388
 21
10.092238
 31
0.0
  0
LINE
  5
EE
  8
0
 10
3.6388
 20
10.092238
 30
0.0
 11
3.9215
 21
10.092238
 31
0.0
  0
LINE
  5
EF
  8
0
 10
4.6065
 20
10.092238
 30
0.0
 11
5.2815
 21
10.092238
 31
0.0
  0
LINE
  5
F0
  8
0
 10
5.2815
 20
10.092238
 30
0.0
 11
5.7215
 21
10.092238
 31
0.0
  0
LINE
  5
F1
  8
0
 10
6.406147
 20
10.092238
 30
0.0
 11
6.577874
 21
10.092238
 31
0.0
  0
LINE
  5
F2
  8
0
 10
6.577874
 20
10.092238
 30
0.0
 11
7.5215
 21
10.092238
 31
0.0
  0
LINE
  5
F3
  8
0
 10
8.206479
 20
10.092238
 30
0.0
 11
8.336067
 21
10.092238
 31
0.0
  0
LINE
  5
F4
  8
0
 10
8.336067
 20
10.092238
 30
0.0
 11
9.3215
 21
10.092238
 31
0.0
  0
LINE
  5
F5
  8
0
 10
10.0065
 20
10.092238
 30
0.0
 11
10.4465
 21
10.092238
 31
0.0
  0
LINE
  5
F6
  8
0
 10
10.4465
 20
10.092238
 30
0.0
 11
11.1215
 21
10.092238
 31
0.0
  0
LINE
  5
F7
  8
0
 10
11.8065
 20
10.092238
 30
0.0
 11
12.4815
 21
10.092238
 31
0.0
  0
LINE
  5
F8
  8
0
 10
12.4815
 20
10.092238
 30
0.0
 11
12.9215
 21
10.092238
 31
0.0
  0
LINE
  5
F9
  8
0
 10
13.605922
 20
10.092238
 30
0.0
 11
13.739592
 21
10.092238
 31
0.0
  0
LINE
  5
FA
  8
0
 10
13.739592
 20
10.092238
 30
0.0
 11
14.1519
 21
10.092238
 31
0.0
  0
LINE
  5
FB
  8
0
 10
0.9305
 20
12.592238
 30
0.0
 11
1.6055
 21
12.592238
 31
0.0
  0
LINE
  5
FC
  8
0
 10
0.9305
 20
12.592238
 30
0.0
 11
1.6055
 21
12.592238
 31
0.0
  0
LINE
  5
FD
  8
0
 10
1.6055
 20
12.592238
 30
0.0
 11
2.0455
 21
12.592238
 31
0.0
  0
LINE
  5
FE
  8
0
 10
2.7305
 20
12.592238
 30
0.0
 11
3.1705
 21
12.592238
 31
0.0
  0
LINE
  5
FF
  8
0
 10
3.1705
 20
12.592238
 30
0.0
 11
3.8455
 21
12.592238
 31
0.0
  0
LINE
  5
100
  8
0
 10
4.5305
 20
12.592238
 30
0.0
 11
4.9705
 21
12.592238
 31
0.0
  0
LINE
  5
101
  8
0
 10
4.9705
 20
12.592238
 30
0.0
 11
5.6455
 21
12.592238
 31
0.0
  0
LINE
  5
102
  8
0
 10
6.330336
 20
12.592238
 30
0.0
 11
6.473401
 21
12.592238
 31
0.0
  0
LINE
  5
103
  8
0
 10
6.473401
 20
12.592238
 30
0.0
 11
7.4455
 21
12.592238
 31
0.0
  0
LINE
  5
104
  8
0
 10
8.1305
 20
12.592238
 30
0.0
 11
8.8055
 21
12.592238
 31
0.0
  0
LINE
  5
105
  8
0
 10
8.8055
 20
12.592238
 30
0.0
 11
9.2455
 21
12.592238
 31
0.0
  0
LINE
  5
106
  8
0
 10
9.9305
 20
12.592238
 30
0.0
 11
10.6055
 21
12.592238
 31
0.0
  0
LINE
  5
107
  8
0
 10
10.6055
 20
12.592238
 30
0.0
 11
11.0455
 21
12.592238
 31
0.0
  0
LINE
  5
108
  8
0
 10
11.730429
 20
12.592238
 30
0.0
 11
12.028377
 21
12.592238
 31
0.0
  0
LINE
  5
109
  8
0
 10
12.028377
 20
12.592238
 30
0.0
 11
12.8455
 21
12.592238
 31
0.0
  0
LINE
  5
10A
  8
0
 10
13.530296
 20
12.592238
 30
0.0
 11
13.530582
 21
12.592238
 31
0.0
  0
LINE
  5
10B
  8
0
 10
13.530582
 20
12.592238
 30
0.0
 11
13.767543
 21
12.592238
 31
0.0
  0
LINE
  5
10C
  8
0
 10
13.767543
 20
12.592238
 30
0.0
 11
13.790224
 21
12.592238
 31
0.0
  0
LINE
  5
10D
  8
0
 10
13.790224
 20
12.592238
 30
0.0
 11
14.1101
 21
12.592238
 31
0.0
  0
ENDSEC
  0
EOF
