  0
SECTION
  2
HEADER
  9
$ACADVER
  1
AC1009
  9
$DWGCODEPAGE
  3
ANSI_1252
  9
$INSBASE
 10
0.0
 20
0.0
 30
0.0
  9
$EXTMIN
 10
1e+20
 20
1e+20
 30
1e+20
  9
$EXTMAX
 10
-1e+20
 20
-1e+20
 30
-1e+20
  9
$LIMMIN
 10
0.0
 20
0.0
  9
$LIMMAX
 10
420.0
 20
297.0
  9
$ORTHOMODE
 70
0
  9
$REGENMODE
 70
1
  9
$FILLMODE
 70
1
  9
$DRAGMODE
 70
2
  9
$QTEXTMODE
 70
0
  9
$MIRRTEXT
 70
1
  9
$OSMODE
 70
20583
  9
$LTSCALE
 40
1.0
  9
$ATTMODE
 70
1
  9
$TEXTSIZE
 40
2.5
  9
$TRACEWID
 40
1.0
  9
$TEXTSTYLE
  7
Standard
  9
$CLAYER
  8
0
  9
$CELTYPE
  6
ByLayer
  9
$CECOLOR
 62
256
  9
$DIMSCALE
 40
1.0
  9
$DIMASZ
 40
2.5
  9
$DIMEXO
 40
0.625
  9
$DIMDLI
 40
3.75
  9
$DIMRND
 40
0.0
  9
$DIMDLE
 40
0.0
  9
$DIMEXE
 40
1.25
  9
$DIMTP
 40
0.0
  9
$DIMTM
 40
0.0
  9
$DIMTXT
 40
2.5
  9
$DIMCEN
 40
2.5
  9
$DIMTSZ
 40
0.0
  9
$DIMTOL
 70
0
  9
$DIMLIM
 70
0
  9
$DIMTIH
 70
0
  9
$DIMTOH
 70
0
  9
$DIMSE1
 70
0
  9
$DIMSE2
 70
0
  9
$DIMTAD
 70
1
  9
$DIMZIN
 70
8
  9
$DIMBLK
  1

  9
$DIMASO
 70
1
  9
$DIMSHO
 70
1
  9
$DIMPOST
  1

  9
$DIMAPOST
  1

  9
$DIMALT
 70
0
  9
$DIMALTD
 70
3
  9
$DIMALTF
 40
0.03937007874
  9
$DIMLFAC
 40
1.0
  9
$DIMTOFL
 70
1
  9
$DIMTVP
 40
0.0
  9
$DIMTIX
 70
0
  9
$DIMSOXD
 70
0
  9
$DIMSAH
 70
0
  9
$DIMBLK1
  1

  9
$DIMBLK2
  1

  9
$DIMSTYLE
  2
ISO-25
  9
$DIMCLRD
 70
0
  9
$DIMCLRE
 70
0
  9
$DIMCLRT
 70
0
  9
$DIMTFAC
 40
1.0
  9
$DIMGAP
 40
0.625
  9
$COORDS
 70
1
  9
$ATTDIA
 70
0
  9
$ATTREQ
 70
1
  9
$HANDLING
 70
1
  9
$LUNITS
 70
2
  9
$LUPREC
 70
4
  9
$SKETCHINC
 40
1.0
  9
$FILLETRAD
 40
10.0
  9
$AUNITS
 70
0
  9
$AUPREC
 70
2
  9
$MENU
  1
.
  9
$ELEVATION
 40
0.0
  9
$PELEVATION
 40
0.0
  9
$THICKNESS
 40
0.0
  9
$LIMCHECK
 70
0
  9
$CHAMFERA
 40
0.0
  9
$CHAMFERB
 40
0.0
  9
$SKPOLY
 70
0
  9
$TDCREATE
 40
2460887.510115741
  9
$TDUPDATE
 40
2460887.510115741
  9
$TDINDWG
 40
0.0
  9
$TDUSRTIMER
 40
0.0
  9
$USRTIMER
 70
1
  9
$ANGBASE
 50
0.0
  9
$ANGDIR
 70
0
  9
$PDMODE
 70
0
  9
$PDSIZE
 40
0.0
  9
$PLINEWID
 40
0.0
  9
$SPLFRAME
 70
0
  9
$SPLINETYPE
 70
6
  9
$SPLINESEGS
 70
8
  9
$HANDSEED
  5
130
  9
$SURFTAB1
 70
6
  9
$SURFTAB2
 70
6
  9
$SURFTYPE
 70
6
  9
$SURFU
 70
6
  9
$SURFV
 70
6
  9
$UCSNAME
  2

  9
$UCSORG
 10
0.0
 20
0.0
 30
0.0
  9
$UCSXDIR
 10
1.0
 20
0.0
 30
0.0
  9
$UCSYDIR
 10
0.0
 20
1.0
 30
0.0
  9
$PUCSNAME
  2

  9
$PUCSORG
 10
0.0
 20
0.0
 30
0.0
  9
$PUCSXDIR
 10
1.0
 20
0.0
 30
0.0
  9
$PUCSYDIR
 10
0.0
 20
1.0
 30
0.0
  9
$USERI1
 70
0
  9
$USERI2
 70
0
  9
$USERI3
 70
0
  9
$USERI4
 70
0
  9
$USERI5
 70
0
  9
$USERR1
 40
0.0
  9
$USERR2
 40
0.0
  9
$USERR3
 40
0.0
  9
$USERR4
 40
0.0
  9
$USERR5
 40
0.0
  9
$WORLDVIEW
 70
1
  9
$SHADEDGE
 70
3
  9
$SHADEDIF
 70
70
  9
$TILEMODE
 70
1
  9
$MAXACTVP
 70
64
  9
$PLIMCHECK
 70
0
  9
$PEXTMIN
 10
1e+20
 20
1e+20
 30
1e+20
  9
$PEXTMAX
 10
-1e+20
 20
-1e+20
 30
-1e+20
  9
$PLIMMIN
 10
0.0
 20
0.0
  9
$PLIMMAX
 10
420.0
 20
297.0
  9
$UNITMODE
 70
0
  9
$VISRETAIN
 70
1
  9
$PLINEGEN
 70
0
  9
$PSLTSCALE
 70
1
  0
ENDSEC
  0
SECTION
  2
TABLES
  0
TABLE
  2
VPORT
 70
1
  0
VPORT
  5
23
  2
*Active
 70
0
 10
0.0
 20
0.0
 11
1.0
 21
1.0
 12
0.0
 22
0.0
 13
0.0
 23
0.0
 14
0.5
 24
0.5
 15
0.5
 25
0.5
 16
0.0
 26
0.0
 36
1.0
 17
0.0
 27
0.0
 37
0.0
 40
1000.0
 41
1.34
 42
50.0
 43
0.0
 44
0.0
 50
0.0
 51
0.0
 71
0
 72
1000
 73
1
 74
3
 75
0
 76
0
 77
0
 78
0
  0
ENDTAB
  0
TABLE
  2
LTYPE
 70
3
  0
LTYPE
  5
24
  2
ByBlock
 70
0
  3

 72
65
 73
0
 40
0.0
  0
LTYPE
  5
25
  2
ByLayer
 70
0
  3

 72
65
 73
0
 40
0.0
  0
LTYPE
  5
26
  2
Continuous
 70
0
  3

 72
65
 73
0
 40
0.0
  0
ENDTAB
  0
TABLE
  2
LAYER
 70
2
  0
LAYER
  5
27
  2
0
 70
0
 62
7
  6
Continuous
  0
LAYER
  5
28
  2
Defpoints
 70
0
 62
7
  6
Continuous
  0
ENDTAB
  0
TABLE
  2
STYLE
 70
1
  0
STYLE
  5
29
  2
Standard
 70
0
 40
0.0
 41
1.0
 50
0.0
 71
0
 42
2.5
  3
txt
  4

  0
ENDTAB
  0
TABLE
  2
VIEW
 70
0
  0
ENDTAB
  0
TABLE
  2
UCS
 70
0
  0
ENDTAB
  0
TABLE
  2
APPID
 70
3
  0
APPID
  5
2A
  2
ACAD
 70
0
  0
APPID
  5
12E
  2
HATCHBACKGROUNDCOLOR
 70
0
  0
APPID
  5
12F
  2
EZDXF
 70
0
  0
ENDTAB
  0
TABLE
  2
DIMSTYLE
 70
1
  0
DIMSTYLE
105
2B
  2
Standard
 70
0
  3

  4

  5

  6

  7

 40
1.0
 41
2.5
 42
0.625
 43
3.75
 44
1.25
 45
0.0
 46
0.0
 47
0.0
 48
0.0
140
2.5
141
2.5
142
0.0
143
0.03937007874
144
1.0
145
0.0
146
1.0
147
0.625
 71
0
 72
0
 73
0
 74
0
 75
0
 76
0
 77
1
 78
8
170
0
171
3
172
1
173
0
174
0
175
0
176
0
177
0
178
0
  0
ENDTAB
  0
ENDSEC
  0
SECTION
  2
BLOCKS
  0
BLOCK
  5
18
  8
0
  2
$Model_Space
 70
0
 10
0.0
 20
0.0
 30
0.0
  3
$Model_Space
  1

1001
EZDXF
1000
CREATED_BY_EZDXF
1000
1.4.2 @ 2025-07-30T15:14:34.231455+00:00
1000
WRITTEN_BY_EZDXF
1000
1.4.2 @ 2025-07-30T15:14:34.247080+00:00
  0
ENDBLK
  5
19
  8
0
  0
BLOCK
  5
1C
  8
0
  2
$Paper_Space
 70
0
 10
0.0
 20
0.0
 30
0.0
  3
$Paper_Space
  1

  0
ENDBLK
  5
1D
  8
0
  0
ENDSEC
  0
SECTION
  2
ENTITIES
  0
LINE
  5
2D
  8
0
 10
14.941
 20
0.059
 30
0.0
 11
0.059
 21
0.059
 31
0.0
  0
LINE
  5
2E
  8
0
 10
0.059
 20
0.059
 30
0.0
 11
0.059
 21
14.941
 31
0.0
  0
LINE
  5
2F
  8
0
 10
0.059
 20
14.941
 30
0.0
 11
14.941
 21
14.941
 31
0.0
  0
LINE
  5
30
  8
0
 10
14.941
 20
14.941
 30
0.0
 11
14.941
 21
0.059
 31
0.0
  0
LINE
  5
31
  8
0
 10
14.941
 20
0.059
 30
0.0
 11
14.941
 21
0.059
 31
0.0
  0
LINE
  5
32
  8
0
 10
14.861
 20
0.139
 30
0.0
 11
0.139
 21
0.139
 31
0.0
  0
LINE
  5
33
  8
0
 10
0.139
 20
0.139
 30
0.0
 11
0.139
 21
14.861
 31
0.0
  0
LINE
  5
34
  8
0
 10
0.139
 20
14.861
 30
0.0
 11
14.861
 21
14.861
 31
0.0
  0
LINE
  5
35
  8
0
 10
14.861
 20
14.861
 30
0.0
 11
14.861
 21
0.139
 31
0.0
  0
LINE
  5
36
  8
0
 10
14.861
 20
0.139
 30
0.0
 11
14.861
 21
0.139
 31
0.0
  0
LINE
  5
37
  8
0
 10
14.781
 20
0.219
 30
0.0
 11
0.219
 21
0.219
 31
0.0
  0
LINE
  5
38
  8
0
 10
0.219
 20
0.219
 30
0.0
 11
0.219
 21
14.781
 31
0.0
  0
LINE
  5
39
  8
0
 10
0.219
 20
14.781
 30
0.0
 11
14.781
 21
14.781
 31
0.0
  0
LINE
  5
3A
  8
0
 10
14.781
 20
14.781
 30
0.0
 11
14.781
 21
0.219
 31
0.0
  0
LINE
  5
3B
  8
0
 10
14.781
 20
0.219
 30
0.0
 11
14.781
 21
0.219
 31
0.0
  0
LINE
  5
3C
  8
0
 10
0.299
 20
14.64439
 30
0.0
 11
0.41106
 21
14.701
 31
0.0
  0
LINE
  5
3D
  8
0
 10
0.5885
 20
14.701
 30
0.0
 11
0.299
 21
14.55476
 31
0.0
  0
LINE
  5
3E
  8
0
 10
0.299
 20
14.46514
 30
0.0
 11
0.76592
 21
14.701
 31
0.0
  0
LINE
  5
3F
  8
0
 10
0.94336
 20
14.701
 30
0.0
 11
0.299
 21
14.37551
 31
0.0
  0
LINE
  5
40
  8
0
 10
0.299
 20
14.28588
 30
0.0
 11
1.12079
 21
14.701
 31
0.0
  0
LINE
  5
41
  8
0
 10
1.29821
 20
14.701
 30
0.0
 11
0.299
 21
14.19626
 31
0.0
  0
LINE
  5
42
  8
0
 10
0.299
 20
14.10663
 30
0.0
 11
1.47565
 21
14.701
 31
0.0
  0
LINE
  5
43
  8
0
 10
1.65309
 20
14.701
 30
0.0
 11
0.299
 21
14.017
 31
0.0
  0
LINE
  5
44
  8
0
 10
0.299
 20
13.92738
 30
0.0
 11
1.83051
 21
14.701
 31
0.0
  0
LINE
  5
45
  8
0
 10
2.00795
 20
14.701
 30
0.0
 11
0.299
 21
13.83774
 31
0.0
  0
LINE
  5
46
  8
0
 10
0.299
 20
13.74811
 30
0.0
 11
2.18539
 21
14.701
 31
0.0
  0
LINE
  5
47
  8
0
 10
2.3628
 20
14.701
 30
0.0
 11
0.299
 21
13.65849
 31
0.0
  0
LINE
  5
48
  8
0
 10
0.299
 20
13.56886
 30
0.0
 11
2.54024
 21
14.701
 31
0.0
  0
LINE
  5
49
  8
0
 10
2.71768
 20
14.701
 30
0.0
 11
0.299
 21
13.47923
 31
0.0
  0
LINE
  5
4A
  8
0
 10
0.299
 20
13.3896
 30
0.0
 11
2.89512
 21
14.701
 31
0.0
  0
LINE
  5
4B
  8
0
 10
3.07254
 20
14.701
 30
0.0
 11
0.299
 21
13.29998
 31
0.0
  0
LINE
  5
4C
  8
0
 10
0.299
 20
13.21035
 30
0.0
 11
3.24997
 21
14.701
 31
0.0
  0
LINE
  5
4D
  8
0
 10
3.42741
 20
14.701
 30
0.0
 11
0.299
 21
13.12072
 31
0.0
  0
LINE
  5
4E
  8
0
 10
0.299
 20
13.0311
 30
0.0
 11
3.60483
 21
14.701
 31
0.0
  0
LINE
  5
4F
  8
0
 10
3.78227
 20
14.701
 30
0.0
 11
0.299
 21
12.94147
 31
0.0
  0
LINE
  5
50
  8
0
 10
0.299
 20
12.85184
 30
0.0
 11
3.9597
 21
14.701
 31
0.0
  0
LINE
  5
51
  8
0
 10
4.13712
 20
14.701
 30
0.0
 11
0.299
 21
12.76222
 31
0.0
  0
LINE
  5
52
  8
0
 10
0.299
 20
12.67259
 30
0.0
 11
4.31456
 21
14.701
 31
0.0
  0
LINE
  5
53
  8
0
 10
4.492
 20
14.701
 30
0.0
 11
0.299
 21
12.58296
 31
0.0
  0
LINE
  5
54
  8
0
 10
0.299
 20
12.49334
 30
0.0
 11
4.66942
 21
14.701
 31
0.0
  0
LINE
  5
55
  8
0
 10
4.84685
 20
14.701
 30
0.0
 11
0.299
 21
12.40371
 31
0.0
  0
LINE
  5
56
  8
0
 10
0.299
 20
12.31408
 30
0.0
 11
5.02429
 21
14.701
 31
0.0
  0
LINE
  5
57
  8
0
 10
5.20171
 20
14.701
 30
0.0
 11
0.299
 21
12.22446
 31
0.0
  0
LINE
  5
58
  8
0
 10
0.299
 20
12.13483
 30
0.0
 11
5.37915
 21
14.701
 31
0.0
  0
LINE
  5
59
  8
0
 10
5.55658
 20
14.701
 30
0.0
 11
0.299
 21
12.0452
 31
0.0
  0
LINE
  5
5A
  8
0
 10
0.299
 20
11.95558
 30
0.0
 11
5.734
 21
14.701
 31
0.0
  0
LINE
  5
5B
  8
0
 10
5.91144
 20
14.701
 30
0.0
 11
0.299
 21
11.86595
 31
0.0
  0
LINE
  5
5C
  8
0
 10
0.299
 20
11.77632
 30
0.0
 11
6.08888
 21
14.701
 31
0.0
  0
LINE
  5
5D
  8
0
 10
6.2663
 20
14.701
 30
0.0
 11
0.299
 21
11.6867
 31
0.0
  0
LINE
  5
5E
  8
0
 10
0.299
 20
11.59707
 30
0.0
 11
6.44373
 21
14.701
 31
0.0
  0
LINE
  5
5F
  8
0
 10
6.62117
 20
14.701
 30
0.0
 11
0.299
 21
11.50744
 31
0.0
  0
LINE
  5
60
  8
0
 10
0.299
 20
11.41782
 30
0.0
 11
6.79859
 21
14.701
 31
0.0
  0
LINE
  5
61
  8
0
 10
6.97603
 20
14.701
 30
0.0
 11
0.299
 21
11.32818
 31
0.0
  0
LINE
  5
62
  8
0
 10
0.299
 20
11.23855
 30
0.0
 11
7.15347
 21
14.701
 31
0.0
  0
LINE
  5
63
  8
0
 10
7.33091
 20
14.701
 30
0.0
 11
0.299
 21
11.14892
 31
0.0
  0
LINE
  5
64
  8
0
 10
0.299
 20
11.0593
 30
0.0
 11
7.50833
 21
14.701
 31
0.0
  0
LINE
  5
65
  8
0
 10
7.68577
 20
14.701
 30
0.0
 11
0.299
 21
10.96967
 31
0.0
  0
LINE
  5
66
  8
0
 10
0.299
 20
10.88004
 30
0.0
 11
7.8632
 21
14.701
 31
0.0
  0
LINE
  5
67
  8
0
 10
8.04062
 20
14.701
 30
0.0
 11
0.299
 21
10.79042
 31
0.0
  0
LINE
  5
68
  8
0
 10
0.299
 20
10.70079
 30
0.0
 11
8.21806
 21
14.701
 31
0.0
  0
LINE
  5
69
  8
0
 10
8.3955
 20
14.701
 30
0.0
 11
0.299
 21
10.61116
 31
0.0
  0
LINE
  5
6A
  8
0
 10
0.299
 20
10.52154
 30
0.0
 11
8.57291
 21
14.701
 31
0.0
  0
LINE
  5
6B
  8
0
 10
8.75035
 20
14.701
 30
0.0
 11
0.299
 21
10.43191
 31
0.0
  0
LINE
  5
6C
  8
0
 10
0.299
 20
10.34228
 30
0.0
 11
8.92779
 21
14.701
 31
0.0
  0
LINE
  5
6D
  8
0
 10
9.10521
 20
14.701
 30
0.0
 11
0.299
 21
10.25266
 31
0.0
  0
LINE
  5
6E
  8
0
 10
0.299
 20
10.16303
 30
0.0
 11
9.28265
 21
14.701
 31
0.0
  0
LINE
  5
6F
  8
0
 10
9.46008
 20
14.701
 30
0.0
 11
0.299
 21
10.0734
 31
0.0
  0
LINE
  5
70
  8
0
 10
0.299
 20
9.98378
 30
0.0
 11
9.6375
 21
14.701
 31
0.0
  0
LINE
  5
71
  8
0
 10
9.81494
 20
14.701
 30
0.0
 11
0.299
 21
9.89415
 31
0.0
  0
LINE
  5
72
  8
0
 10
0.299
 20
9.80452
 30
0.0
 11
9.99238
 21
14.701
 31
0.0
  0
LINE
  5
73
  8
0
 10
10.1698
 20
14.701
 30
0.0
 11
0.299
 21
9.7149
 31
0.0
  0
LINE
  5
74
  8
0
 10
0.299
 20
9.62527
 30
0.0
 11
10.34723
 21
14.701
 31
0.0
  0
LINE
  5
75
  8
0
 10
10.52467
 20
14.701
 30
0.0
 11
0.299
 21
9.53564
 31
0.0
  0
LINE
  5
76
  8
0
 10
0.299
 20
9.44602
 30
0.0
 11
10.70209
 21
14.701
 31
0.0
  0
LINE
  5
77
  8
0
 10
10.87953
 20
14.701
 30
0.0
 11
0.299
 21
9.35639
 31
0.0
  0
LINE
  5
78
  8
0
 10
0.299
 20
9.26676
 30
0.0
 11
11.05696
 21
14.701
 31
0.0
  0
LINE
  5
79
  8
0
 10
11.23438
 20
14.701
 30
0.0
 11
0.299
 21
9.17714
 31
0.0
  0
LINE
  5
7A
  8
0
 10
0.299
 20
9.08751
 30
0.0
 11
11.41182
 21
14.701
 31
0.0
  0
LINE
  5
7B
  8
0
 10
11.58926
 20
14.701
 30
0.0
 11
0.299
 21
8.99788
 31
0.0
  0
LINE
  5
7C
  8
0
 10
0.299
 20
8.90826
 30
0.0
 11
11.76668
 21
14.701
 31
0.0
  0
LINE
  5
7D
  8
0
 10
11.94411
 20
14.701
 30
0.0
 11
0.299
 21
8.81863
 31
0.0
  0
LINE
  5
7E
  8
0
 10
0.299
 20
8.729
 30
0.0
 11
12.12155
 21
14.701
 31
0.0
  0
LINE
  5
7F
  8
0
 10
12.29899
 20
14.701
 30
0.0
 11
0.299
 21
8.63937
 31
0.0
  0
LINE
  5
80
  8
0
 10
0.299
 20
8.54974
 30
0.0
 11
12.47641
 21
14.701
 31
0.0
  0
LINE
  5
81
  8
0
 10
12.65385
 20
14.701
 30
0.0
 11
0.299
 21
8.46011
 31
0.0
  0
LINE
  5
82
  8
0
 10
0.299
 20
8.37048
 30
0.0
 11
12.83128
 21
14.701
 31
0.0
  0
LINE
  5
83
  8
0
 10
13.0087
 20
14.701
 30
0.0
 11
0.299
 21
8.28086
 31
0.0
  0
LINE
  5
84
  8
0
 10
0.299
 20
8.19123
 30
0.0
 11
13.18614
 21
14.701
 31
0.0
  0
LINE
  5
85
  8
0
 10
13.36358
 20
14.701
 30
0.0
 11
0.299
 21
8.1016
 31
0.0
  0
LINE
  5
86
  8
0
 10
0.299
 20
8.01198
 30
0.0
 11
13.541
 21
14.701
 31
0.0
  0
LINE
  5
87
  8
0
 10
13.71843
 20
14.701
 30
0.0
 11
0.299
 21
7.92235
 31
0.0
  0
LINE
  5
88
  8
0
 10
0.299
 20
7.83272
 30
0.0
 11
13.89587
 21
14.701
 31
0.0
  0
LINE
  5
89
  8
0
 10
14.07329
 20
14.701
 30
0.0
 11
0.299
 21
7.7431
 31
0.0
  0
LINE
  5
8A
  8
0
 10
0.299
 20
7.65347
 30
0.0
 11
14.25073
 21
14.701
 31
0.0
  0
LINE
  5
8B
  8
0
 10
14.42816
 20
14.701
 30
0.0
 11
0.299
 21
7.56384
 31
0.0
  0
LINE
  5
8C
  8
0
 10
0.299
 20
7.47422
 30
0.0
 11
14.60558
 21
14.701
 31
0.0
  0
LINE
  5
8D
  8
0
 10
14.701
 20
14.65956
 30
0.0
 11
0.299
 21
7.38459
 31
0.0
  0
LINE
  5
8E
  8
0
 10
0.299
 20
7.29496
 30
0.0
 11
14.701
 21
14.56993
 31
0.0
  0
LINE
  5
8F
  8
0
 10
14.701
 20
14.48031
 30
0.0
 11
0.299
 21
7.20534
 31
0.0
  0
LINE
  5
90
  8
0
 10
0.299
 20
7.11571
 30
0.0
 11
14.701
 21
14.39068
 31
0.0
  0
LINE
  5
91
  8
0
 10
14.701
 20
14.30105
 30
0.0
 11
0.299
 21
7.02608
 31
0.0
  0
LINE
  5
92
  8
0
 10
0.299
 20
6.93646
 30
0.0
 11
14.701
 21
14.21143
 31
0.0
  0
LINE
  5
93
  8
0
 10
14.701
 20
14.1218
 30
0.0
 11
0.299
 21
6.84683
 31
0.0
  0
LINE
  5
94
  8
0
 10
0.299
 20
6.7572
 30
0.0
 11
14.701
 21
14.03217
 31
0.0
  0
LINE
  5
95
  8
0
 10
14.701
 20
13.94255
 30
0.0
 11
0.299
 21
6.66758
 31
0.0
  0
LINE
  5
96
  8
0
 10
0.299
 20
6.57795
 30
0.0
 11
14.701
 21
13.85292
 31
0.0
  0
LINE
  5
97
  8
0
 10
14.701
 20
13.76329
 30
0.0
 11
0.299
 21
6.48832
 31
0.0
  0
LINE
  5
98
  8
0
 10
0.299
 20
6.39868
 30
0.0
 11
14.701
 21
13.67366
 31
0.0
  0
LINE
  5
99
  8
0
 10
14.701
 20
13.58404
 30
0.0
 11
0.299
 21
6.30906
 31
0.0
  0
LINE
  5
9A
  8
0
 10
0.299
 20
6.21943
 30
0.0
 11
14.701
 21
13.49441
 31
0.0
  0
LINE
  5
9B
  8
0
 10
14.701
 20
13.40478
 30
0.0
 11
0.299
 21
6.1298
 31
0.0
  0
LINE
  5
9C
  8
0
 10
0.299
 20
6.04018
 30
0.0
 11
14.701
 21
13.31516
 31
0.0
  0
LINE
  5
9D
  8
0
 10
14.701
 20
13.22553
 30
0.0
 11
0.299
 21
5.95055
 31
0.0
  0
LINE
  5
9E
  8
0
 10
0.299
 20
5.86092
 30
0.0
 11
14.701
 21
13.13589
 31
0.0
  0
LINE
  5
9F
  8
0
 10
14.701
 20
13.04627
 30
0.0
 11
0.299
 21
5.7713
 31
0.0
  0
LINE
  5
A0
  8
0
 10
0.299
 20
5.68167
 30
0.0
 11
14.701
 21
12.95664
 31
0.0
  0
LINE
  5
A1
  8
0
 10
14.701
 20
12.86701
 30
0.0
 11
0.299
 21
5.59204
 31
0.0
  0
LINE
  5
A2
  8
0
 10
0.299
 20
5.50242
 30
0.0
 11
14.701
 21
12.77739
 31
0.0
  0
LINE
  5
A3
  8
0
 10
14.701
 20
12.68776
 30
0.0
 11
0.299
 21
5.41279
 31
0.0
  0
LINE
  5
A4
  8
0
 10
0.299
 20
5.32316
 30
0.0
 11
14.701
 21
12.59813
 31
0.0
  0
LINE
  5
A5
  8
0
 10
14.701
 20
12.50851
 30
0.0
 11
0.299
 21
5.23354
 31
0.0
  0
LINE
  5
A6
  8
0
 10
0.299
 20
5.14391
 30
0.0
 11
14.701
 21
12.41888
 31
0.0
  0
LINE
  5
A7
  8
0
 10
14.701
 20
12.32925
 30
0.0
 11
0.299
 21
5.05428
 31
0.0
  0
LINE
  5
A8
  8
0
 10
0.299
 20
4.96466
 30
0.0
 11
14.701
 21
12.23963
 31
0.0
  0
LINE
  5
A9
  8
0
 10
14.701
 20
12.15
 30
0.0
 11
0.299
 21
4.87503
 31
0.0
  0
LINE
  5
AA
  8
0
 10
0.299
 20
4.7854
 30
0.0
 11
14.701
 21
12.06037
 31
0.0
  0
LINE
  5
AB
  8
0
 10
14.701
 20
11.97075
 30
0.0
 11
0.299
 21
4.69578
 31
0.0
  0
LINE
  5
AC
  8
0
 10
0.299
 20
4.60615
 30
0.0
 11
14.701
 21
11.88112
 31
0.0
  0
LINE
  5
AD
  8
0
 10
14.701
 20
11.79149
 30
0.0
 11
0.299
 21
4.51652
 31
0.0
  0
LINE
  5
AE
  8
0
 10
0.299
 20
4.4269
 30
0.0
 11
14.701
 21
11.70187
 31
0.0
  0
LINE
  5
AF
  8
0
 10
14.701
 20
11.61224
 30
0.0
 11
0.299
 21
4.33727
 31
0.0
  0
LINE
  5
B0
  8
0
 10
0.299
 20
4.24764
 30
0.0
 11
14.701
 21
11.52261
 31
0.0
  0
LINE
  5
B1
  8
0
 10
14.701
 20
11.43298
 30
0.0
 11
0.299
 21
4.15801
 31
0.0
  0
LINE
  5
B2
  8
0
 10
0.299
 20
4.06839
 30
0.0
 11
14.701
 21
11.34336
 31
0.0
  0
LINE
  5
B3
  8
0
 10
14.701
 20
11.25373
 30
0.0
 11
0.299
 21
3.97876
 31
0.0
  0
LINE
  5
B4
  8
0
 10
0.299
 20
3.88913
 30
0.0
 11
14.701
 21
11.1641
 31
0.0
  0
LINE
  5
B5
  8
0
 10
14.701
 20
11.07448
 30
0.0
 11
0.299
 21
3.79951
 31
0.0
  0
LINE
  5
B6
  8
0
 10
0.299
 20
3.70988
 30
0.0
 11
14.701
 21
10.98485
 31
0.0
  0
LINE
  5
B7
  8
0
 10
14.701
 20
10.89522
 30
0.0
 11
0.299
 21
3.62025
 31
0.0
  0
LINE
  5
B8
  8
0
 10
0.299
 20
3.53063
 30
0.0
 11
14.701
 21
10.8056
 31
0.0
  0
LINE
  5
B9
  8
0
 10
14.701
 20
10.71597
 30
0.0
 11
0.299
 21
3.441
 31
0.0
  0
LINE
  5
BA
  8
0
 10
0.299
 20
3.35137
 30
0.0
 11
14.701
 21
10.62634
 31
0.0
  0
LINE
  5
BB
  8
0
 10
14.701
 20
10.53672
 30
0.0
 11
0.299
 21
3.26174
 31
0.0
  0
LINE
  5
BC
  8
0
 10
0.299
 20
3.17211
 30
0.0
 11
14.701
 21
10.44709
 31
0.0
  0
LINE
  5
BD
  8
0
 10
14.701
 20
10.35746
 30
0.0
 11
0.299
 21
3.08248
 31
0.0
  0
LINE
  5
BE
  8
0
 10
0.299
 20
2.99286
 30
0.0
 11
14.701
 21
10.26784
 31
0.0
  0
LINE
  5
BF
  8
0
 10
14.701
 20
10.1782
 30
0.0
 11
0.299
 21
2.90323
 31
0.0
  0
LINE
  5
C0
  8
0
 10
0.299
 20
2.8136
 30
0.0
 11
14.701
 21
10.08857
 31
0.0
  0
LINE
  5
C1
  8
0
 10
14.701
 20
9.99895
 30
0.0
 11
0.299
 21
2.72398
 31
0.0
  0
LINE
  5
C2
  8
0
 10
0.299
 20
2.63435
 30
0.0
 11
14.701
 21
9.90932
 31
0.0
  0
LINE
  5
C3
  8
0
 10
14.701
 20
9.81969
 30
0.0
 11
0.299
 21
2.54472
 31
0.0
  0
LINE
  5
C4
  8
0
 10
0.299
 20
2.4551
 30
0.0
 11
14.701
 21
9.73007
 31
0.0
  0
LINE
  5
C5
  8
0
 10
14.701
 20
9.64044
 30
0.0
 11
0.299
 21
2.36547
 31
0.0
  0
LINE
  5
C6
  8
0
 10
0.299
 20
2.27584
 30
0.0
 11
14.701
 21
9.55081
 31
0.0
  0
LINE
  5
C7
  8
0
 10
14.701
 20
9.46119
 30
0.0
 11
0.299
 21
2.18622
 31
0.0
  0
LINE
  5
C8
  8
0
 10
0.299
 20
2.09659
 30
0.0
 11
14.701
 21
9.37156
 31
0.0
  0
LINE
  5
C9
  8
0
 10
14.701
 20
9.28193
 30
0.0
 11
0.299
 21
2.00696
 31
0.0
  0
LINE
  5
CA
  8
0
 10
0.299
 20
1.91733
 30
0.0
 11
14.701
 21
9.1923
 31
0.0
  0
LINE
  5
CB
  8
0
 10
14.701
 20
9.10268
 30
0.0
 11
0.299
 21
1.82771
 31
0.0
  0
LINE
  5
CC
  8
0
 10
0.299
 20
1.73808
 30
0.0
 11
14.701
 21
9.01305
 31
0.0
  0
LINE
  5
CD
  8
0
 10
14.701
 20
8.92342
 30
0.0
 11
0.299
 21
1.64845
 31
0.0
  0
LINE
  5
CE
  8
0
 10
0.299
 20
1.55883
 30
0.0
 11
14.701
 21
8.8338
 31
0.0
  0
LINE
  5
CF
  8
0
 10
14.701
 20
8.74417
 30
0.0
 11
0.299
 21
1.46919
 31
0.0
  0
LINE
  5
D0
  8
0
 10
0.299
 20
1.37956
 30
0.0
 11
14.701
 21
8.65454
 31
0.0
  0
LINE
  5
D1
  8
0
 10
14.701
 20
8.56492
 30
0.0
 11
0.299
 21
1.28994
 31
0.0
  0
LINE
  5
D2
  8
0
 10
0.299
 20
1.20031
 30
0.0
 11
14.701
 21
8.47529
 31
0.0
  0
LINE
  5
D3
  8
0
 10
14.701
 20
8.38566
 30
0.0
 11
0.299
 21
1.11068
 31
0.0
  0
LINE
  5
D4
  8
0
 10
0.299
 20
1.02106
 30
0.0
 11
14.701
 21
8.29604
 31
0.0
  0
LINE
  5
D5
  8
0
 10
14.701
 20
8.20641
 30
0.0
 11
0.299
 21
0.93143
 31
0.0
  0
LINE
  5
D6
  8
0
 10
0.299
 20
0.8418
 30
0.0
 11
14.701
 21
8.11678
 31
0.0
  0
LINE
  5
D7
  8
0
 10
14.701
 20
8.02716
 30
0.0
 11
0.299
 21
0.75218
 31
0.0
  0
LINE
  5
D8
  8
0
 10
0.299
 20
0.66255
 30
0.0
 11
14.701
 21
7.93753
 31
0.0
  0
LINE
  5
D9
  8
0
 10
14.701
 20
7.84789
 30
0.0
 11
0.299
 21
0.57292
 31
0.0
  0
LINE
  5
DA
  8
0
 10
0.299
 20
0.4833
 30
0.0
 11
14.701
 21
7.75827
 31
0.0
  0
LINE
  5
DB
  8
0
 10
14.701
 20
7.66864
 30
0.0
 11
0.299
 21
0.39367
 31
0.0
  0
LINE
  5
DC
  8
0
 10
0.299
 20
0.30404
 30
0.0
 11
14.701
 21
7.57901
 31
0.0
  0
LINE
  5
DD
  8
0
 10
14.701
 20
7.48939
 30
0.0
 11
0.46643
 21
0.299
 31
0.0
  0
LINE
  5
DE
  8
0
 10
0.64387
 20
0.299
 30
0.0
 11
14.701
 21
7.39976
 31
0.0
  0
LINE
  5
DF
  8
0
 10
14.701
 20
7.31013
 30
0.0
 11
0.8213
 21
0.299
 31
0.0
  0
LINE
  5
E0
  8
0
 10
0.99872
 20
0.299
 30
0.0
 11
14.701
 21
7.22051
 31
0.0
  0
LINE
  5
E1
  8
0
 10
14.701
 20
7.13088
 30
0.0
 11
1.17616
 21
0.299
 31
0.0
  0
LINE
  5
E2
  8
0
 10
1.3536
 20
0.299
 30
0.0
 11
14.701
 21
7.04125
 31
0.0
  0
LINE
  5
E3
  8
0
 10
14.701
 20
6.95162
 30
0.0
 11
1.53104
 21
0.299
 31
0.0
  0
LINE
  5
E4
  8
0
 10
1.70845
 20
0.299
 30
0.0
 11
14.701
 21
6.862
 31
0.0
  0
LINE
  5
E5
  8
0
 10
14.701
 20
6.77237
 30
0.0
 11
1.88589
 21
0.299
 31
0.0
  0
LINE
  5
E6
  8
0
 10
2.06333
 20
0.299
 30
0.0
 11
14.701
 21
6.68274
 31
0.0
  0
LINE
  5
E7
  8
0
 10
14.701
 20
6.59312
 30
0.0
 11
2.24075
 21
0.299
 31
0.0
  0
LINE
  5
E8
  8
0
 10
2.41818
 20
0.299
 30
0.0
 11
14.701
 21
6.50349
 31
0.0
  0
LINE
  5
E9
  8
0
 10
14.701
 20
6.41386
 30
0.0
 11
2.59562
 21
0.299
 31
0.0
  0
LINE
  5
EA
  8
0
 10
2.77304
 20
0.299
 30
0.0
 11
14.701
 21
6.32424
 31
0.0
  0
LINE
  5
EB
  8
0
 10
14.701
 20
6.23461
 30
0.0
 11
2.95048
 21
0.299
 31
0.0
  0
LINE
  5
EC
  8
0
 10
3.12792
 20
0.299
 30
0.0
 11
14.701
 21
6.14498
 31
0.0
  0
LINE
  5
ED
  8
0
 10
14.701
 20
6.05536
 30
0.0
 11
3.30533
 21
0.299
 31
0.0
  0
LINE
  5
EE
  8
0
 10
3.48277
 20
0.299
 30
0.0
 11
14.701
 21
5.96573
 31
0.0
  0
LINE
  5
EF
  8
0
 10
14.701
 20
5.8761
 30
0.0
 11
3.66021
 21
0.299
 31
0.0
  0
LINE
  5
F0
  8
0
 10
3.83763
 20
0.299
 30
0.0
 11
14.701
 21
5.78648
 31
0.0
  0
LINE
  5
F1
  8
0
 10
14.701
 20
5.69685
 30
0.0
 11
4.01507
 21
0.299
 31
0.0
  0
LINE
  5
F2
  8
0
 10
4.1925
 20
0.299
 30
0.0
 11
14.701
 21
5.60722
 31
0.0
  0
LINE
  5
F3
  8
0
 10
14.701
 20
5.5176
 30
0.0
 11
4.36992
 21
0.299
 31
0.0
  0
LINE
  5
F4
  8
0
 10
4.54736
 20
0.299
 30
0.0
 11
14.701
 21
5.42797
 31
0.0
  0
LINE
  5
F5
  8
0
 10
14.701
 20
5.33834
 30
0.0
 11
4.7248
 21
0.299
 31
0.0
  0
LINE
  5
F6
  8
0
 10
4.90222
 20
0.299
 30
0.0
 11
14.701
 21
5.24871
 31
0.0
  0
LINE
  5
F7
  8
0
 10
14.701
 20
5.15908
 30
0.0
 11
5.07966
 21
0.299
 31
0.0
  0
LINE
  5
F8
  8
0
 10
5.2571
 20
0.299
 30
0.0
 11
14.701
 21
5.06945
 31
0.0
  0
LINE
  5
F9
  8
0
 10
14.701
 20
4.97983
 30
0.0
 11
5.43452
 21
0.299
 31
0.0
  0
LINE
  5
FA
  8
0
 10
5.61195
 20
0.299
 30
0.0
 11
14.701
 21
4.8902
 31
0.0
  0
LINE
  5
FB
  8
0
 10
14.701
 20
4.80057
 30
0.0
 11
5.78939
 21
0.299
 31
0.0
  0
LINE
  5
FC
  8
0
 10
5.96683
 20
0.299
 30
0.0
 11
14.701
 21
4.71094
 31
0.0
  0
LINE
  5
FD
  8
0
 10
14.701
 20
4.62132
 30
0.0
 11
6.14425
 21
0.299
 31
0.0
  0
LINE
  5
FE
  8
0
 10
6.32169
 20
0.299
 30
0.0
 11
14.701
 21
4.53169
 31
0.0
  0
LINE
  5
FF
  8
0
 10
14.701
 20
4.44206
 30
0.0
 11
6.49912
 21
0.299
 31
0.0
  0
LINE
  5
100
  8
0
 10
6.67654
 20
0.299
 30
0.0
 11
14.701
 21
4.35244
 31
0.0
  0
LINE
  5
101
  8
0
 10
14.701
 20
4.26281
 30
0.0
 11
6.85398
 21
0.299
 31
0.0
  0
LINE
  5
102
  8
0
 10
7.03142
 20
0.299
 30
0.0
 11
14.701
 21
4.17318
 31
0.0
  0
LINE
  5
103
  8
0
 10
14.701
 20
4.08356
 30
0.0
 11
7.20883
 21
0.299
 31
0.0
  0
LINE
  5
104
  8
0
 10
7.38627
 20
0.299
 30
0.0
 11
14.701
 21
3.99393
 31
0.0
  0
LINE
  5
105
  8
0
 10
14.701
 20
3.9043
 30
0.0
 11
7.56371
 21
0.299
 31
0.0
  0
LINE
  5
106
  8
0
 10
7.74113
 20
0.299
 30
0.0
 11
14.701
 21
3.81468
 31
0.0
  0
LINE
  5
107
  8
0
 10
14.701
 20
3.72505
 30
0.0
 11
7.91857
 21
0.299
 31
0.0
  0
LINE
  5
108
  8
0
 10
8.096
 20
0.299
 30
0.0
 11
14.701
 21
3.63542
 31
0.0
  0
LINE
  5
109
  8
0
 10
14.701
 20
3.5458
 30
0.0
 11
8.27342
 21
0.299
 31
0.0
  0
LINE
  5
10A
  8
0
 10
8.45086
 20
0.299
 30
0.0
 11
14.701
 21
3.45617
 31
0.0
  0
LINE
  5
10B
  8
0
 10
14.701
 20
3.36654
 30
0.0
 11
8.6283
 21
0.299
 31
0.0
  0
LINE
  5
10C
  8
0
 10
8.80571
 20
0.299
 30
0.0
 11
14.701
 21
3.27692
 31
0.0
  0
LINE
  5
10D
  8
0
 10
14.701
 20
3.18729
 30
0.0
 11
8.98315
 21
0.299
 31
0.0
  0
LINE
  5
10E
  8
0
 10
9.16059
 20
0.299
 30
0.0
 11
14.701
 21
3.09766
 31
0.0
  0
LINE
  5
10F
  8
0
 10
14.701
 20
3.00804
 30
0.0
 11
9.33801
 21
0.299
 31
0.0
  0
LINE
  5
110
  8
0
 10
9.51545
 20
0.299
 30
0.0
 11
14.701
 21
2.91841
 31
0.0
  0
LINE
  5
111
  8
0
 10
14.701
 20
2.82878
 30
0.0
 11
9.69288
 21
0.299
 31
0.0
  0
LINE
  5
112
  8
0
 10
9.8703
 20
0.299
 30
0.0
 11
14.701
 21
2.73916
 31
0.0
  0
LINE
  5
113
  8
0
 10
14.701
 20
2.64953
 30
0.0
 11
10.04774
 21
0.299
 31
0.0
  0
LINE
  5
114
  8
0
 10
10.22518
 20
0.299
 30
0.0
 11
14.701
 21
2.55989
 31
0.0
  0
LINE
  5
115
  8
0
 10
14.701
 20
2.47027
 30
0.0
 11
10.4026
 21
0.299
 31
0.0
  0
LINE
  5
116
  8
0
 10
10.58004
 20
0.299
 30
0.0
 11
14.701
 21
2.38064
 31
0.0
  0
LINE
  5
117
  8
0
 10
14.701
 20
2.29101
 30
0.0
 11
10.75748
 21
0.299
 31
0.0
  0
LINE
  5
118
  8
0
 10
10.93491
 20
0.299
 30
0.0
 11
14.701
 21
2.20138
 31
0.0
  0
LINE
  5
119
  8
0
 10
14.701
 20
2.11176
 30
0.0
 11
11.11233
 21
0.299
 31
0.0
  0
LINE
  5
11A
  8
0
 10
11.28977
 20
0.299
 30
0.0
 11
14.701
 21
2.02213
 31
0.0
  0
LINE
  5
11B
  8
0
 10
14.701
 20
1.9325
 30
0.0
 11
11.46721
 21
0.299
 31
0.0
  0
LINE
  5
11C
  8
0
 10
11.64462
 20
0.299
 30
0.0
 11
14.701
 21
1.84288
 31
0.0
  0
LINE
  5
11D
  8
0
 10
14.701
 20
1.75325
 30
0.0
 11
11.82206
 21
0.299
 31
0.0
  0
LINE
  5
11E
  8
0
 10
11.9995
 20
0.299
 30
0.0
 11
14.701
 21
1.66362
 31
0.0
  0
LINE
  5
11F
  8
0
 10
14.701
 20
1.574
 30
0.0
 11
12.17692
 21
0.299
 31
0.0
  0
LINE
  5
120
  8
0
 10
12.35436
 20
0.299
 30
0.0
 11
14.701
 21
1.48437
 31
0.0
  0
LINE
  5
121
  8
0
 10
14.701
 20
1.39474
 30
0.0
 11
12.53179
 21
0.299
 31
0.0
  0
LINE
  5
122
  8
0
 10
12.70921
 20
0.299
 30
0.0
 11
14.701
 21
1.30512
 31
0.0
  0
LINE
  5
123
  8
0
 10
14.701
 20
1.21549
 30
0.0
 11
12.88665
 21
0.299
 31
0.0
  0
LINE
  5
124
  8
0
 10
13.06409
 20
0.299
 30
0.0
 11
14.701
 21
1.12586
 31
0.0
  0
LINE
  5
125
  8
0
 10
14.701
 20
1.03624
 30
0.0
 11
13.24151
 21
0.299
 31
0.0
  0
LINE
  5
126
  8
0
 10
13.41894
 20
0.299
 30
0.0
 11
14.701
 21
0.94661
 31
0.0
  0
LINE
  5
127
  8
0
 10
14.701
 20
0.85698
 30
0.0
 11
13.59638
 21
0.299
 31
0.0
  0
LINE
  5
128
  8
0
 10
13.7738
 20
0.299
 30
0.0
 11
14.701
 21
0.76736
 31
0.0
  0
LINE
  5
129
  8
0
 10
14.701
 20
0.67773
 30
0.0
 11
13.95124
 21
0.299
 31
0.0
  0
LINE
  5
12A
  8
0
 10
14.12867
 20
0.299
 30
0.0
 11
14.701
 21
0.5881
 31
0.0
  0
LINE
  5
12B
  8
0
 10
14.701
 20
0.49848
 30
0.0
 11
14.30609
 21
0.299
 31
0.0
  0
LINE
  5
12C
  8
0
 10
14.48353
 20
0.299
 30
0.0
 11
14.701
 21
0.40885
 31
0.0
  0
LINE
  5
12D
  8
0
 10
14.701
 20
0.31922
 30
0.0
 11
14.66097
 21
0.299
 31
0.0
  0
ENDSEC
  0
EOF
