  0
SECTION
  2
HEADER
  9
$ACADVER
  1
AC1009
  9
$DWGCODEPAGE
  3
ANSI_1252
  9
$INSBASE
 10
0.0
 20
0.0
 30
0.0
  9
$EXTMIN
 10
1e+20
 20
1e+20
 30
1e+20
  9
$EXTMAX
 10
-1e+20
 20
-1e+20
 30
-1e+20
  9
$LIMMIN
 10
0.0
 20
0.0
  9
$LIMMAX
 10
420.0
 20
297.0
  9
$ORTHOMODE
 70
0
  9
$REGENMODE
 70
1
  9
$FILLMODE
 70
1
  9
$DRAGMODE
 70
2
  9
$QTEXTMODE
 70
0
  9
$MIRRTEXT
 70
1
  9
$OSMODE
 70
20583
  9
$LTSCALE
 40
1.0
  9
$ATTMODE
 70
1
  9
$TEXTSIZE
 40
2.5
  9
$TRACEWID
 40
1.0
  9
$TEXTSTYLE
  7
Standard
  9
$CLAYER
  8
0
  9
$CELTYPE
  6
ByLayer
  9
$CECOLOR
 62
256
  9
$DIMSCALE
 40
1.0
  9
$DIMASZ
 40
2.5
  9
$DIMEXO
 40
0.625
  9
$DIMDLI
 40
3.75
  9
$DIMRND
 40
0.0
  9
$DIMDLE
 40
0.0
  9
$DIMEXE
 40
1.25
  9
$DIMTP
 40
0.0
  9
$DIMTM
 40
0.0
  9
$DIMTXT
 40
2.5
  9
$DIMCEN
 40
2.5
  9
$DIMTSZ
 40
0.0
  9
$DIMTOL
 70
0
  9
$DIMLIM
 70
0
  9
$DIMTIH
 70
0
  9
$DIMTOH
 70
0
  9
$DIMSE1
 70
0
  9
$DIMSE2
 70
0
  9
$DIMTAD
 70
1
  9
$DIMZIN
 70
8
  9
$DIMBLK
  1

  9
$DIMASO
 70
1
  9
$DIMSHO
 70
1
  9
$DIMPOST
  1

  9
$DIMAPOST
  1

  9
$DIMALT
 70
0
  9
$DIMALTD
 70
3
  9
$DIMALTF
 40
0.03937007874
  9
$DIMLFAC
 40
1.0
  9
$DIMTOFL
 70
1
  9
$DIMTVP
 40
0.0
  9
$DIMTIX
 70
0
  9
$DIMSOXD
 70
0
  9
$DIMSAH
 70
0
  9
$DIMBLK1
  1

  9
$DIMBLK2
  1

  9
$DIMSTYLE
  2
ISO-25
  9
$DIMCLRD
 70
0
  9
$DIMCLRE
 70
0
  9
$DIMCLRT
 70
0
  9
$DIMTFAC
 40
1.0
  9
$DIMGAP
 40
0.625
  9
$COORDS
 70
1
  9
$ATTDIA
 70
0
  9
$ATTREQ
 70
1
  9
$HANDLING
 70
1
  9
$LUNITS
 70
2
  9
$LUPREC
 70
4
  9
$SKETCHINC
 40
1.0
  9
$FILLETRAD
 40
10.0
  9
$AUNITS
 70
0
  9
$AUPREC
 70
2
  9
$MENU
  1
.
  9
$ELEVATION
 40
0.0
  9
$PELEVATION
 40
0.0
  9
$THICKNESS
 40
0.0
  9
$LIMCHECK
 70
0
  9
$CHAMFERA
 40
0.0
  9
$CHAMFERB
 40
0.0
  9
$SKPOLY
 70
0
  9
$TDCREATE
 40
2460887.5099305557
  9
$TDUPDATE
 40
2460887.5099305557
  9
$TDINDWG
 40
0.0
  9
$TDUSRTIMER
 40
0.0
  9
$USRTIMER
 70
1
  9
$ANGBASE
 50
0.0
  9
$ANGDIR
 70
0
  9
$PDMODE
 70
0
  9
$PDSIZE
 40
0.0
  9
$PLINEWID
 40
0.0
  9
$SPLFRAME
 70
0
  9
$SPLINETYPE
 70
6
  9
$SPLINESEGS
 70
8
  9
$HANDSEED
  5
220
  9
$SURFTAB1
 70
6
  9
$SURFTAB2
 70
6
  9
$SURFTYPE
 70
6
  9
$SURFU
 70
6
  9
$SURFV
 70
6
  9
$UCSNAME
  2

  9
$UCSORG
 10
0.0
 20
0.0
 30
0.0
  9
$UCSXDIR
 10
1.0
 20
0.0
 30
0.0
  9
$UCSYDIR
 10
0.0
 20
1.0
 30
0.0
  9
$PUCSNAME
  2

  9
$PUCSORG
 10
0.0
 20
0.0
 30
0.0
  9
$PUCSXDIR
 10
1.0
 20
0.0
 30
0.0
  9
$PUCSYDIR
 10
0.0
 20
1.0
 30
0.0
  9
$USERI1
 70
0
  9
$USERI2
 70
0
  9
$USERI3
 70
0
  9
$USERI4
 70
0
  9
$USERI5
 70
0
  9
$USERR1
 40
0.0
  9
$USERR2
 40
0.0
  9
$USERR3
 40
0.0
  9
$USERR4
 40
0.0
  9
$USERR5
 40
0.0
  9
$WORLDVIEW
 70
1
  9
$SHADEDGE
 70
3
  9
$SHADEDIF
 70
70
  9
$TILEMODE
 70
1
  9
$MAXACTVP
 70
64
  9
$PLIMCHECK
 70
0
  9
$PEXTMIN
 10
1e+20
 20
1e+20
 30
1e+20
  9
$PEXTMAX
 10
-1e+20
 20
-1e+20
 30
-1e+20
  9
$PLIMMIN
 10
0.0
 20
0.0
  9
$PLIMMAX
 10
420.0
 20
297.0
  9
$UNITMODE
 70
0
  9
$VISRETAIN
 70
1
  9
$PLINEGEN
 70
0
  9
$PSLTSCALE
 70
1
  0
ENDSEC
  0
SECTION
  2
TABLES
  0
TABLE
  2
VPORT
 70
1
  0
VPORT
  5
23
  2
*Active
 70
0
 10
0.0
 20
0.0
 11
1.0
 21
1.0
 12
0.0
 22
0.0
 13
0.0
 23
0.0
 14
0.5
 24
0.5
 15
0.5
 25
0.5
 16
0.0
 26
0.0
 36
1.0
 17
0.0
 27
0.0
 37
0.0
 40
1000.0
 41
1.34
 42
50.0
 43
0.0
 44
0.0
 50
0.0
 51
0.0
 71
0
 72
1000
 73
1
 74
3
 75
0
 76
0
 77
0
 78
0
  0
ENDTAB
  0
TABLE
  2
LTYPE
 70
3
  0
LTYPE
  5
24
  2
ByBlock
 70
0
  3

 72
65
 73
0
 40
0.0
  0
LTYPE
  5
25
  2
ByLayer
 70
0
  3

 72
65
 73
0
 40
0.0
  0
LTYPE
  5
26
  2
Continuous
 70
0
  3

 72
65
 73
0
 40
0.0
  0
ENDTAB
  0
TABLE
  2
LAYER
 70
2
  0
LAYER
  5
27
  2
0
 70
0
 62
7
  6
Continuous
  0
LAYER
  5
28
  2
Defpoints
 70
0
 62
7
  6
Continuous
  0
ENDTAB
  0
TABLE
  2
STYLE
 70
1
  0
STYLE
  5
29
  2
Standard
 70
0
 40
0.0
 41
1.0
 50
0.0
 71
0
 42
2.5
  3
txt
  4

  0
ENDTAB
  0
TABLE
  2
VIEW
 70
0
  0
ENDTAB
  0
TABLE
  2
UCS
 70
0
  0
ENDTAB
  0
TABLE
  2
APPID
 70
3
  0
APPID
  5
2A
  2
ACAD
 70
0
  0
APPID
  5
21E
  2
HATCHBACKGROUNDCOLOR
 70
0
  0
APPID
  5
21F
  2
EZDXF
 70
0
  0
ENDTAB
  0
TABLE
  2
DIMSTYLE
 70
1
  0
DIMSTYLE
105
2B
  2
Standard
 70
0
  3

  4

  5

  6

  7

 40
1.0
 41
2.5
 42
0.625
 43
3.75
 44
1.25
 45
0.0
 46
0.0
 47
0.0
 48
0.0
140
2.5
141
2.5
142
0.0
143
0.03937007874
144
1.0
145
0.0
146
1.0
147
0.625
 71
0
 72
0
 73
0
 74
0
 75
0
 76
0
 77
1
 78
8
170
0
171
3
172
1
173
0
174
0
175
0
176
0
177
0
178
0
  0
ENDTAB
  0
ENDSEC
  0
SECTION
  2
BLOCKS
  0
BLOCK
  5
18
  8
0
  2
$Model_Space
 70
0
 10
0.0
 20
0.0
 30
0.0
  3
$Model_Space
  1

1001
EZDXF
1000
CREATED_BY_EZDXF
1000
1.4.2 @ 2025-07-30T15:14:18.031497+00:00
1000
WRITTEN_BY_EZDXF
1000
1.4.2 @ 2025-07-30T15:14:18.047121+00:00
  0
ENDBLK
  5
19
  8
0
  0
BLOCK
  5
1C
  8
0
  2
$Paper_Space
 70
0
 10
0.0
 20
0.0
 30
0.0
  3
$Paper_Space
  1

  0
ENDBLK
  5
1D
  8
0
  0
ENDSEC
  0
SECTION
  2
ENTITIES
  0
LINE
  5
2D
  8
0
 10
2.503444
 20
0.434133
 30
0.0
 11
1.134895
 21
0.636425
 31
0.0
  0
LINE
  5
2E
  8
0
 10
1.134895
 20
0.636425
 30
0.0
 11
0.60553
 21
1.219144
 31
0.0
  0
LINE
  5
2F
  8
0
 10
0.60553
 20
1.219144
 30
0.0
 11
0.441393
 21
2.229991
 31
0.0
  0
LINE
  5
30
  8
0
 10
0.441393
 20
2.229991
 30
0.0
 11
0.542204
 21
6.229534
 31
0.0
  0
LINE
  5
31
  8
0
 10
0.542204
 20
6.229534
 30
0.0
 11
2.503444
 21
0.434133
 31
0.0
  0
LINE
  5
32
  8
0
 10
2.503444
 20
0.434133
 30
0.0
 11
1.134895
 21
0.636425
 31
0.0
  0
LINE
  5
33
  8
0
 10
1.134895
 20
0.636425
 30
0.0
 11
0.60553
 21
1.219144
 31
0.0
  0
LINE
  5
34
  8
0
 10
0.60553
 20
1.219144
 30
0.0
 11
0.441393
 21
2.229991
 31
0.0
  0
LINE
  5
35
  8
0
 10
0.441393
 20
2.229991
 30
0.0
 11
0.542204
 21
6.229534
 31
0.0
  0
LINE
  5
36
  8
0
 10
0.542204
 20
6.229534
 30
0.0
 11
2.503444
 21
0.434133
 31
0.0
  0
LINE
  5
37
  8
0
 10
0.545001
 20
6.340499
 30
0.0
 11
0.578218
 21
8.002287
 31
0.0
  0
LINE
  5
38
  8
0
 10
0.57376
 20
8.147886
 30
0.0
 11
0.48548
 21
13.442298
 31
0.0
  0
LINE
  5
39
  8
0
 10
0.505149
 20
13.557379
 30
0.0
 11
0.795661
 21
14.30915
 31
0.0
  0
LINE
  5
3A
  8
0
 10
0.795661
 20
14.30915
 30
0.0
 11
1.69973
 21
14.713176
 31
0.0
  0
LINE
  5
3B
  8
0
 10
1.69973
 20
14.713176
 30
0.0
 11
0.505149
 21
13.557379
 31
0.0
  0
LINE
  5
3C
  8
0
 10
1.701489
 20
14.713311
 30
0.0
 11
5.958451
 21
14.62624
 31
0.0
  0
LINE
  5
3D
  8
0
 10
5.958451
 20
14.62624
 30
0.0
 11
6.012858
 21
14.625206
 31
0.0
  0
LINE
  5
3E
  8
0
 10
6.012858
 20
14.625206
 30
0.0
 11
6.920599
 21
14.626517
 31
0.0
  0
LINE
  5
3F
  8
0
 10
7.063932
 20
14.626724
 30
0.0
 11
12.326926
 21
14.634326
 31
0.0
  0
LINE
  5
40
  8
0
 10
12.443926
 20
14.634495
 30
0.0
 11
14.195544
 21
14.637026
 31
0.0
  0
LINE
  5
41
  8
0
 10
14.276638
 20
14.637143
 30
0.0
 11
14.62616
 21
14.571338
 31
0.0
  0
LINE
  5
42
  8
0
 10
14.62616
 20
14.571338
 30
0.0
 11
14.626166
 21
9.727278
 31
0.0
  0
LINE
  5
43
  8
0
 10
14.626166
 20
9.727278
 30
0.0
 11
14.276638
 21
14.637143
 31
0.0
  0
LINE
  5
44
  8
0
 10
14.626164
 20
9.583945
 30
0.0
 11
14.677094
 21
4.358091
 31
0.0
  0
LINE
  5
45
  8
0
 10
14.681189
 20
4.241913
 30
0.0
 11
14.741665
 21
2.525978
 31
0.0
  0
LINE
  5
46
  8
0
 10
14.745751
 20
2.41005
 30
0.0
 11
14.630481
 21
1.356446
 31
0.0
  0
LINE
  5
47
  8
0
 10
14.630481
 20
1.356446
 30
0.0
 11
14.432974
 21
0.930477
 31
0.0
  0
LINE
  5
48
  8
0
 10
14.432974
 20
0.930477
 30
0.0
 11
13.955411
 21
0.601553
 31
0.0
  0
LINE
  5
49
  8
0
 10
13.955411
 20
0.601553
 30
0.0
 11
13.015603
 21
0.444653
 31
0.0
  0
LINE
  5
4A
  8
0
 10
13.015603
 20
0.444653
 30
0.0
 11
14.745751
 21
2.41005
 31
0.0
  0
LINE
  5
4B
  8
0
 10
13.015603
 20
0.444653
 30
0.0
 11
13.01544
 21
0.444657
 31
0.0
  0
LINE
  5
4C
  8
0
 10
13.01544
 20
0.444657
 30
0.0
 11
10.806415
 21
0.497536
 31
0.0
  0
LINE
  5
4D
  8
0
 10
10.660457
 20
0.501036
 30
0.0
 11
10.660124
 21
0.501044
 31
0.0
  0
LINE
  5
4E
  8
0
 10
10.660124
 20
0.501044
 30
0.0
 11
10.660036
 21
0.501046
 31
0.0
  0
LINE
  5
4F
  8
0
 10
10.660036
 20
0.501046
 30
0.0
 11
5.471922
 21
0.52808
 31
0.0
  0
LINE
  5
50
  8
0
 10
5.333135
 20
0.523688
 30
0.0
 11
3.642231
 21
0.470174
 31
0.0
  0
LINE
  5
51
  8
0
 10
3.52529
 20
0.466473
 30
0.0
 11
2.558929
 21
0.435889
 31
0.0
  0
LINE
  5
52
  8
0
 10
2.558929
 20
0.435889
 30
0.0
 11
2.503444
 21
0.434133
 31
0.0
  0
LINE
  5
53
  8
0
 10
2.592849
 20
0.437
 30
0.0
 11
2.592849
 21
0.77734
 31
0.0
  0
LINE
  5
54
  8
0
 10
2.592849
 20
0.437
 30
0.0
 11
2.592849
 21
0.77734
 31
0.0
  0
LINE
  5
55
  8
0
 10
2.592849
 20
0.77734
 30
0.0
 11
2.592849
 21
1.05406
 31
0.0
  0
LINE
  5
56
  8
0
 10
2.592849
 20
1.05406
 30
0.0
 11
2.592849
 21
1.592091
 31
0.0
  0
LINE
  5
57
  8
0
 10
2.592849
 20
1.592091
 30
0.0
 11
2.592849
 21
1.70659
 31
0.0
  0
LINE
  5
58
  8
0
 10
2.592849
 20
1.70659
 30
0.0
 11
2.592849
 21
2.02869
 31
0.0
  0
LINE
  5
59
  8
0
 10
2.592849
 20
2.02869
 30
0.0
 11
2.592849
 21
2.649026
 31
0.0
  0
LINE
  5
5A
  8
0
 10
2.592849
 20
2.649026
 30
0.0
 11
2.592849
 21
3.491523
 31
0.0
  0
LINE
  5
5B
  8
0
 10
2.592849
 20
3.491523
 30
0.0
 11
2.592849
 21
3.777055
 31
0.0
  0
LINE
  5
5C
  8
0
 10
2.592849
 20
3.777055
 30
0.0
 11
2.592849
 21
3.874148
 31
0.0
  0
LINE
  5
5D
  8
0
 10
2.592849
 20
3.874148
 30
0.0
 11
2.592849
 21
4.361563
 31
0.0
  0
LINE
  5
5E
  8
0
 10
2.592849
 20
4.361563
 30
0.0
 11
2.592849
 21
4.978284
 31
0.0
  0
LINE
  5
5F
  8
0
 10
2.592849
 20
4.978284
 30
0.0
 11
2.592849
 21
5.598619
 31
0.0
  0
LINE
  5
60
  8
0
 10
2.592849
 20
5.598619
 30
0.0
 11
2.592849
 21
6.049746
 31
0.0
  0
LINE
  5
61
  8
0
 10
2.592849
 20
6.049746
 30
0.0
 11
2.592849
 21
6.146839
 31
0.0
  0
LINE
  5
62
  8
0
 10
2.592849
 20
6.146839
 30
0.0
 11
2.592849
 21
6.634254
 31
0.0
  0
LINE
  5
63
  8
0
 10
2.592849
 20
6.634254
 30
0.0
 11
2.592849
 21
7.085381
 31
0.0
  0
LINE
  5
64
  8
0
 10
2.592849
 20
7.085381
 30
0.0
 11
2.592849
 21
7.253206
 31
0.0
  0
LINE
  5
65
  8
0
 10
2.592849
 20
7.253206
 30
0.0
 11
2.592849
 21
7.873542
 31
0.0
  0
LINE
  5
66
  8
0
 10
2.592849
 20
7.873542
 30
0.0
 11
2.592849
 21
8.41953
 31
0.0
  0
LINE
  5
67
  8
0
 10
2.592849
 20
8.41953
 30
0.0
 11
2.592849
 21
8.906945
 31
0.0
  0
LINE
  5
68
  8
0
 10
2.592849
 20
8.906945
 30
0.0
 11
2.592849
 21
9.004039
 31
0.0
  0
LINE
  5
69
  8
0
 10
2.592849
 20
9.004039
 30
0.0
 11
2.592849
 21
9.936113
 31
0.0
  0
LINE
  5
6A
  8
0
 10
2.592849
 20
9.936113
 30
0.0
 11
2.592849
 21
9.937809
 31
0.0
  0
LINE
  5
6B
  8
0
 10
2.592849
 20
9.937809
 30
0.0
 11
2.592849
 21
9.949805
 31
0.0
  0
LINE
  5
6C
  8
0
 10
2.592849
 20
9.949805
 30
0.0
 11
2.592849
 21
9.962951
 31
0.0
  0
LINE
  5
6D
  8
0
 10
2.592849
 20
9.962951
 30
0.0
 11
2.592849
 21
9.987234
 31
0.0
  0
LINE
  5
6E
  8
0
 10
2.592849
 20
9.987234
 30
0.0
 11
2.592849
 21
10.05653
 31
0.0
  0
LINE
  5
6F
  8
0
 10
2.592849
 20
10.05653
 30
0.0
 11
2.592849
 21
10.074357
 31
0.0
  0
LINE
  5
70
  8
0
 10
2.592849
 20
10.074357
 30
0.0
 11
2.592849
 21
10.074714
 31
0.0
  0
LINE
  5
71
  8
0
 10
2.592849
 20
10.108909
 30
0.0
 11
2.592849
 21
10.190255
 31
0.0
  0
LINE
  5
72
  8
0
 10
2.592849
 20
10.190255
 30
0.0
 11
2.592849
 21
10.227984
 31
0.0
  0
LINE
  5
73
  8
0
 10
2.592849
 20
10.227984
 30
0.0
 11
2.592849
 21
10.240077
 31
0.0
  0
LINE
  5
74
  8
0
 10
2.592849
 20
10.240077
 30
0.0
 11
2.592849
 21
10.245984
 31
0.0
  0
LINE
  5
75
  8
0
 10
2.592849
 20
10.245984
 30
0.0
 11
2.592849
 21
11.179637
 31
0.0
  0
LINE
  5
76
  8
0
 10
2.592849
 20
11.179637
 30
0.0
 11
2.592849
 21
11.27673
 31
0.0
  0
LINE
  5
77
  8
0
 10
2.592849
 20
11.27673
 30
0.0
 11
2.592849
 21
11.764145
 31
0.0
  0
LINE
  5
78
  8
0
 10
2.592849
 20
11.764145
 30
0.0
 11
2.592849
 21
12.309897
 31
0.0
  0
LINE
  5
79
  8
0
 10
2.592849
 20
12.309897
 30
0.0
 11
2.592849
 21
12.930232
 31
0.0
  0
LINE
  5
7A
  8
0
 10
2.592849
 20
12.930232
 30
0.0
 11
2.592849
 21
13.098058
 31
0.0
  0
LINE
  5
7B
  8
0
 10
2.592849
 20
13.098058
 30
0.0
 11
2.592849
 21
13.433033
 31
0.0
  0
LINE
  5
7C
  8
0
 10
2.592849
 20
13.433033
 30
0.0
 11
2.592849
 21
14.012009
 31
0.0
  0
LINE
  5
7D
  8
0
 10
2.592849
 20
14.012009
 30
0.0
 11
2.592849
 21
14.127727
 31
0.0
  0
LINE
  5
7E
  8
0
 10
2.592849
 20
14.127727
 30
0.0
 11
2.592849
 21
14.400806
 31
0.0
  0
LINE
  5
7F
  8
0
 10
2.592849
 20
14.400806
 30
0.0
 11
2.592849
 21
14.742
 31
0.0
  0
LINE
  5
80
  8
0
 10
5.092849
 20
0.516
 30
0.0
 11
5.092849
 21
0.69
 31
0.0
  0
LINE
  5
81
  8
0
 10
5.092849
 20
0.516
 30
0.0
 11
5.092849
 21
0.69
 31
0.0
  0
LINE
  5
82
  8
0
 10
5.092849
 20
0.69
 30
0.0
 11
5.092849
 21
0.85852
 31
0.0
  0
LINE
  5
83
  8
0
 10
5.092849
 20
0.85852
 30
0.0
 11
5.092849
 21
1.617388
 31
0.0
  0
LINE
  5
84
  8
0
 10
5.092849
 20
1.617388
 30
0.0
 11
5.092849
 21
1.744653
 31
0.0
  0
LINE
  5
85
  8
0
 10
5.092849
 20
1.744653
 30
0.0
 11
5.092849
 21
1.980419
 31
0.0
  0
LINE
  5
86
  8
0
 10
5.092849
 20
1.980419
 30
0.0
 11
5.092849
 21
2.600755
 31
0.0
  0
LINE
  5
87
  8
0
 10
5.092849
 20
2.600755
 30
0.0
 11
5.092849
 21
3.44269
 31
0.0
  0
LINE
  5
88
  8
0
 10
5.092849
 20
3.44269
 30
0.0
 11
5.092849
 21
3.748803
 31
0.0
  0
LINE
  5
89
  8
0
 10
5.092849
 20
3.748803
 30
0.0
 11
5.092849
 21
3.846221
 31
0.0
  0
LINE
  5
8A
  8
0
 10
5.092849
 20
3.846221
 30
0.0
 11
5.092849
 21
4.333312
 31
0.0
  0
LINE
  5
8B
  8
0
 10
5.092849
 20
4.333312
 30
0.0
 11
5.092849
 21
4.929452
 31
0.0
  0
LINE
  5
8C
  8
0
 10
5.092849
 20
4.929452
 30
0.0
 11
5.092849
 21
5.549787
 31
0.0
  0
LINE
  5
8D
  8
0
 10
5.092849
 20
5.549787
 30
0.0
 11
5.092849
 21
5.718174
 31
0.0
  0
LINE
  5
8E
  8
0
 10
5.092849
 20
5.718174
 30
0.0
 11
5.092849
 21
6.118913
 31
0.0
  0
LINE
  5
8F
  8
0
 10
5.092849
 20
6.118913
 30
0.0
 11
5.092849
 21
6.606003
 31
0.0
  0
LINE
  5
90
  8
0
 10
5.092849
 20
6.606003
 30
0.0
 11
5.092849
 21
7.036548
 31
0.0
  0
LINE
  5
91
  8
0
 10
5.092849
 20
7.036548
 30
0.0
 11
5.092849
 21
7.204935
 31
0.0
  0
LINE
  5
92
  8
0
 10
5.092849
 20
7.204935
 30
0.0
 11
5.092849
 21
7.825271
 31
0.0
  0
LINE
  5
93
  8
0
 10
5.092849
 20
7.825271
 30
0.0
 11
5.092849
 21
8.391604
 31
0.0
  0
LINE
  5
94
  8
0
 10
5.092849
 20
8.391604
 30
0.0
 11
5.092849
 21
8.878694
 31
0.0
  0
LINE
  5
95
  8
0
 10
5.092849
 20
8.878694
 30
0.0
 11
5.092849
 21
8.976112
 31
0.0
  0
LINE
  5
96
  8
0
 10
5.092849
 20
8.976112
 30
0.0
 11
5.092849
 21
9.927349
 31
0.0
  0
LINE
  5
97
  8
0
 10
5.092849
 20
9.927349
 30
0.0
 11
5.092849
 21
9.969543
 31
0.0
  0
LINE
  5
98
  8
0
 10
5.092849
 20
9.969543
 30
0.0
 11
5.092849
 21
9.987182
 31
0.0
  0
LINE
  5
99
  8
0
 10
5.092849
 20
9.987182
 30
0.0
 11
5.092849
 21
9.987733
 31
0.0
  0
LINE
  5
9A
  8
0
 10
5.092849
 20
10.022
 30
0.0
 11
5.092849
 21
10.034359
 31
0.0
  0
LINE
  5
9B
  8
0
 10
5.092849
 20
10.034359
 30
0.0
 11
5.092849
 21
10.090217
 31
0.0
  0
LINE
  5
9C
  8
0
 10
5.092849
 20
10.090217
 30
0.0
 11
5.092849
 21
10.140984
 31
0.0
  0
LINE
  5
9D
  8
0
 10
5.092849
 20
10.140984
 30
0.0
 11
5.092849
 21
10.200471
 31
0.0
  0
LINE
  5
9E
  8
0
 10
5.092849
 20
10.200471
 30
0.0
 11
5.092849
 21
10.221887
 31
0.0
  0
LINE
  5
9F
  8
0
 10
5.092849
 20
10.221887
 30
0.0
 11
5.092849
 21
10.229545
 31
0.0
  0
LINE
  5
A0
  8
0
 10
5.092849
 20
10.229545
 30
0.0
 11
5.092849
 21
11.151385
 31
0.0
  0
LINE
  5
A1
  8
0
 10
5.092849
 20
11.151385
 30
0.0
 11
5.092849
 21
11.248803
 31
0.0
  0
LINE
  5
A2
  8
0
 10
5.092849
 20
11.248803
 30
0.0
 11
5.092849
 21
11.735894
 31
0.0
  0
LINE
  5
A3
  8
0
 10
5.092849
 20
11.735894
 30
0.0
 11
5.092849
 21
12.261065
 31
0.0
  0
LINE
  5
A4
  8
0
 10
5.092849
 20
12.261065
 30
0.0
 11
5.092849
 21
12.8814
 31
0.0
  0
LINE
  5
A5
  8
0
 10
5.092849
 20
12.8814
 30
0.0
 11
5.092849
 21
13.049787
 31
0.0
  0
LINE
  5
A6
  8
0
 10
5.092849
 20
13.049787
 30
0.0
 11
5.092849
 21
13.310611
 31
0.0
  0
LINE
  5
A7
  8
0
 10
5.092849
 20
13.310611
 30
0.0
 11
5.092849
 21
13.95634
 31
0.0
  0
LINE
  5
A8
  8
0
 10
5.092849
 20
13.95634
 30
0.0
 11
5.092849
 21
14.085486
 31
0.0
  0
LINE
  5
A9
  8
0
 10
5.092849
 20
14.085486
 30
0.0
 11
5.092849
 21
14.298232
 31
0.0
  0
LINE
  5
AA
  8
0
 10
5.092849
 20
14.298232
 30
0.0
 11
5.092849
 21
14.655
 31
0.0
  0
LINE
  5
AB
  8
0
 10
7.592849
 20
0.574
 30
0.0
 11
7.592849
 21
0.939957
 31
0.0
  0
LINE
  5
AC
  8
0
 10
7.592849
 20
0.574
 30
0.0
 11
7.592849
 21
0.939957
 31
0.0
  0
LINE
  5
AD
  8
0
 10
7.592849
 20
0.939957
 30
0.0
 11
7.592849
 21
1.122935
 31
0.0
  0
LINE
  5
AE
  8
0
 10
7.592849
 20
1.122935
 30
0.0
 11
7.592849
 21
1.644097
 31
0.0
  0
LINE
  5
AF
  8
0
 10
7.592849
 20
1.644097
 30
0.0
 11
7.592849
 21
1.779129
 31
0.0
  0
LINE
  5
B0
  8
0
 10
7.592849
 20
1.779129
 30
0.0
 11
7.592849
 21
2.479245
 31
0.0
  0
LINE
  5
B1
  8
0
 10
7.592849
 20
2.479245
 30
0.0
 11
7.592849
 21
2.492697
 31
0.0
  0
LINE
  5
B2
  8
0
 10
7.592849
 20
2.492697
 30
0.0
 11
7.592849
 21
2.534032
 31
0.0
  0
LINE
  5
B3
  8
0
 10
7.592849
 20
2.534032
 30
0.0
 11
7.592849
 21
2.565622
 31
0.0
  0
LINE
  5
B4
  8
0
 10
7.592849
 20
2.565622
 30
0.0
 11
7.592849
 21
2.588816
 31
0.0
  0
LINE
  5
B5
  8
0
 10
7.592849
 20
2.588816
 30
0.0
 11
7.592849
 21
2.765977
 31
0.0
  0
LINE
  5
B6
  8
0
 10
7.592849
 20
2.765977
 30
0.0
 11
7.592849
 21
3.740036
 31
0.0
  0
LINE
  5
B7
  8
0
 10
7.592849
 20
3.740036
 30
0.0
 11
7.592849
 21
3.837129
 31
0.0
  0
LINE
  5
B8
  8
0
 10
7.592849
 20
3.837129
 30
0.0
 11
7.592849
 21
4.324544
 31
0.0
  0
LINE
  5
B9
  8
0
 10
7.592849
 20
4.324544
 30
0.0
 11
7.592849
 21
4.914297
 31
0.0
  0
LINE
  5
BA
  8
0
 10
7.592849
 20
4.914297
 30
0.0
 11
7.592849
 21
5.534632
 31
0.0
  0
LINE
  5
BB
  8
0
 10
7.592849
 20
5.534632
 30
0.0
 11
7.592849
 21
5.538561
 31
0.0
  0
LINE
  5
BC
  8
0
 10
7.592849
 20
5.538561
 30
0.0
 11
7.592849
 21
5.702458
 31
0.0
  0
LINE
  5
BD
  8
0
 10
7.592849
 20
5.702458
 30
0.0
 11
7.592849
 21
6.10982
 31
0.0
  0
LINE
  5
BE
  8
0
 10
7.592849
 20
6.10982
 30
0.0
 11
7.592849
 21
6.597235
 31
0.0
  0
LINE
  5
BF
  8
0
 10
7.592849
 20
6.597235
 30
0.0
 11
7.592849
 21
7.021394
 31
0.0
  0
LINE
  5
C0
  8
0
 10
7.592849
 20
7.021394
 30
0.0
 11
7.592849
 21
7.189219
 31
0.0
  0
LINE
  5
C1
  8
0
 10
7.592849
 20
7.189219
 30
0.0
 11
7.592849
 21
7.809555
 31
0.0
  0
LINE
  5
C2
  8
0
 10
7.592849
 20
7.809555
 30
0.0
 11
7.592849
 21
8.382511
 31
0.0
  0
LINE
  5
C3
  8
0
 10
7.592849
 20
8.382511
 30
0.0
 11
7.592849
 21
8.869927
 31
0.0
  0
LINE
  5
C4
  8
0
 10
7.592849
 20
8.869927
 30
0.0
 11
7.592849
 21
8.96702
 31
0.0
  0
LINE
  5
C5
  8
0
 10
7.592849
 20
8.96702
 30
0.0
 11
7.592849
 21
9.927488
 31
0.0
  0
LINE
  5
C6
  8
0
 10
7.592849
 20
9.927488
 30
0.0
 11
7.592849
 21
9.94253
 31
0.0
  0
LINE
  5
C7
  8
0
 10
7.592849
 20
9.94253
 30
0.0
 11
7.592849
 21
9.960036
 31
0.0
  0
LINE
  5
C8
  8
0
 10
7.592849
 20
9.960036
 30
0.0
 11
7.592849
 21
9.960714
 31
0.0
  0
LINE
  5
C9
  8
0
 10
7.592849
 20
9.994909
 30
0.0
 11
7.592849
 21
10.076255
 31
0.0
  0
LINE
  5
CA
  8
0
 10
7.592849
 20
10.076255
 30
0.0
 11
7.592849
 21
10.113984
 31
0.0
  0
LINE
  5
CB
  8
0
 10
7.592849
 20
10.113984
 30
0.0
 11
7.592849
 21
10.173471
 31
0.0
  0
LINE
  5
CC
  8
0
 10
7.592849
 20
10.173471
 30
0.0
 11
7.592849
 21
10.194887
 31
0.0
  0
LINE
  5
CD
  8
0
 10
7.592849
 20
10.194887
 30
0.0
 11
7.592849
 21
10.21715
 31
0.0
  0
LINE
  5
CE
  8
0
 10
7.592849
 20
10.21715
 30
0.0
 11
7.592849
 21
10.223075
 31
0.0
  0
LINE
  5
CF
  8
0
 10
7.592849
 20
10.223075
 30
0.0
 11
7.592849
 21
11.142618
 31
0.0
  0
LINE
  5
D0
  8
0
 10
7.592849
 20
11.142618
 30
0.0
 11
7.592849
 21
11.239711
 31
0.0
  0
LINE
  5
D1
  8
0
 10
7.592849
 20
11.239711
 30
0.0
 11
7.592849
 21
11.727126
 31
0.0
  0
LINE
  5
D2
  8
0
 10
7.592849
 20
11.727126
 30
0.0
 11
7.592849
 21
12.24591
 31
0.0
  0
LINE
  5
D3
  8
0
 10
7.592849
 20
12.24591
 30
0.0
 11
7.592849
 21
12.866245
 31
0.0
  0
LINE
  5
D4
  8
0
 10
7.592849
 20
12.866245
 30
0.0
 11
7.592849
 21
13.034071
 31
0.0
  0
LINE
  5
D5
  8
0
 10
7.592849
 20
13.034071
 30
0.0
 11
7.592849
 21
13.273093
 31
0.0
  0
LINE
  5
D6
  8
0
 10
7.592849
 20
13.273093
 30
0.0
 11
7.592849
 21
13.938156
 31
0.0
  0
LINE
  5
D7
  8
0
 10
7.592849
 20
13.938156
 30
0.0
 11
7.592849
 21
14.270518
 31
0.0
  0
LINE
  5
D8
  8
0
 10
7.592849
 20
14.270518
 30
0.0
 11
7.592849
 21
14.427333
 31
0.0
  0
LINE
  5
D9
  8
0
 10
7.592849
 20
14.427333
 30
0.0
 11
7.592849
 21
14.628
 31
0.0
  0
LINE
  5
DA
  8
0
 10
10.092849
 20
0.515
 30
0.0
 11
10.092849
 21
0.869167
 31
0.0
  0
LINE
  5
DB
  8
0
 10
10.092849
 20
0.515
 30
0.0
 11
10.092849
 21
0.869167
 31
0.0
  0
LINE
  5
DC
  8
0
 10
10.092849
 20
0.869167
 30
0.0
 11
10.092849
 21
1.091271
 31
0.0
  0
LINE
  5
DD
  8
0
 10
10.092849
 20
1.091271
 30
0.0
 11
10.092849
 21
1.606525
 31
0.0
  0
LINE
  5
DE
  8
0
 10
10.092849
 20
1.606525
 30
0.0
 11
10.092849
 21
1.733644
 31
0.0
  0
LINE
  5
DF
  8
0
 10
10.092849
 20
1.733644
 30
0.0
 11
10.092849
 21
2.480257
 31
0.0
  0
LINE
  5
E0
  8
0
 10
10.092849
 20
2.480257
 30
0.0
 11
10.092849
 21
2.496697
 31
0.0
  0
LINE
  5
E1
  8
0
 10
10.092849
 20
2.496697
 30
0.0
 11
10.092849
 21
2.526693
 31
0.0
  0
LINE
  5
E2
  8
0
 10
10.092849
 20
2.526693
 30
0.0
 11
10.092849
 21
2.537185
 31
0.0
  0
LINE
  5
E3
  8
0
 10
10.092849
 20
2.537185
 30
0.0
 11
10.092849
 21
2.547834
 31
0.0
  0
LINE
  5
E4
  8
0
 10
10.092849
 20
2.547834
 30
0.0
 11
10.092849
 21
2.558646
 31
0.0
  0
LINE
  5
E5
  8
0
 10
10.092849
 20
2.558646
 30
0.0
 11
10.092849
 21
2.564113
 31
0.0
  0
LINE
  5
E6
  8
0
 10
10.092849
 20
2.564113
 30
0.0
 11
10.092849
 21
2.768052
 31
0.0
  0
LINE
  5
E7
  8
0
 10
10.092849
 20
2.768052
 30
0.0
 11
10.092849
 21
3.74101
 31
0.0
  0
LINE
  5
E8
  8
0
 10
10.092849
 20
3.74101
 30
0.0
 11
10.092849
 21
3.838428
 31
0.0
  0
LINE
  5
E9
  8
0
 10
10.092849
 20
3.838428
 30
0.0
 11
10.092849
 21
4.325518
 31
0.0
  0
LINE
  5
EA
  8
0
 10
10.092849
 20
4.325518
 30
0.0
 11
10.092849
 21
4.915981
 31
0.0
  0
LINE
  5
EB
  8
0
 10
10.092849
 20
4.915981
 30
0.0
 11
10.092849
 21
5.536316
 31
0.0
  0
LINE
  5
EC
  8
0
 10
10.092849
 20
5.536316
 30
0.0
 11
10.092849
 21
5.704703
 31
0.0
  0
LINE
  5
ED
  8
0
 10
10.092849
 20
5.704703
 30
0.0
 11
10.092849
 21
6.111119
 31
0.0
  0
LINE
  5
EE
  8
0
 10
10.092849
 20
6.111119
 30
0.0
 11
10.092849
 21
6.59821
 31
0.0
  0
LINE
  5
EF
  8
0
 10
10.092849
 20
6.59821
 30
0.0
 11
10.092849
 21
7.023077
 31
0.0
  0
LINE
  5
F0
  8
0
 10
10.092849
 20
7.023077
 30
0.0
 11
10.092849
 21
7.191465
 31
0.0
  0
LINE
  5
F1
  8
0
 10
10.092849
 20
7.191465
 30
0.0
 11
10.092849
 21
7.8118
 31
0.0
  0
LINE
  5
F2
  8
0
 10
10.092849
 20
7.8118
 30
0.0
 11
10.092849
 21
8.38381
 31
0.0
  0
LINE
  5
F3
  8
0
 10
10.092849
 20
8.38381
 30
0.0
 11
10.092849
 21
8.870901
 31
0.0
  0
LINE
  5
F4
  8
0
 10
10.092849
 20
8.870901
 30
0.0
 11
10.092849
 21
8.968319
 31
0.0
  0
LINE
  5
F5
  8
0
 10
10.092849
 20
8.968319
 30
0.0
 11
10.092849
 21
9.926565
 31
0.0
  0
LINE
  5
F6
  8
0
 10
10.092849
 20
9.926565
 30
0.0
 11
10.092849
 21
9.945543
 31
0.0
  0
LINE
  5
F7
  8
0
 10
10.092849
 20
9.945543
 30
0.0
 11
10.092849
 21
9.963357
 31
0.0
  0
LINE
  5
F8
  8
0
 10
10.092849
 20
9.963357
 30
0.0
 11
10.092849
 21
9.96381
 31
0.0
  0
LINE
  5
F9
  8
0
 10
10.092849
 20
9.998
 30
0.0
 11
10.092849
 21
9.998545
 31
0.0
  0
LINE
  5
FA
  8
0
 10
10.092849
 20
9.998545
 30
0.0
 11
10.092849
 21
10.010359
 31
0.0
  0
LINE
  5
FB
  8
0
 10
10.092849
 20
10.010359
 30
0.0
 11
10.092849
 21
10.052921
 31
0.0
  0
LINE
  5
FC
  8
0
 10
10.092849
 20
10.052921
 30
0.0
 11
10.092849
 21
10.066217
 31
0.0
  0
LINE
  5
FD
  8
0
 10
10.092849
 20
10.066217
 30
0.0
 11
10.092849
 21
10.116984
 31
0.0
  0
LINE
  5
FE
  8
0
 10
10.092849
 20
10.116984
 30
0.0
 11
10.092849
 21
10.129985
 31
0.0
  0
LINE
  5
FF
  8
0
 10
10.092849
 20
10.129985
 30
0.0
 11
10.092849
 21
10.153625
 31
0.0
  0
LINE
  5
100
  8
0
 10
10.092849
 20
10.153625
 30
0.0
 11
10.092849
 21
10.198751
 31
0.0
  0
LINE
  5
101
  8
0
 10
10.092849
 20
10.198751
 30
0.0
 11
10.092849
 21
10.221
 31
0.0
  0
LINE
  5
102
  8
0
 10
10.092849
 20
10.221
 30
0.0
 11
10.092849
 21
10.223968
 31
0.0
  0
LINE
  5
103
  8
0
 10
10.092849
 20
10.223968
 30
0.0
 11
10.092849
 21
11.143592
 31
0.0
  0
LINE
  5
104
  8
0
 10
10.092849
 20
11.143592
 30
0.0
 11
10.092849
 21
11.24101
 31
0.0
  0
LINE
  5
105
  8
0
 10
10.092849
 20
11.24101
 30
0.0
 11
10.092849
 21
11.7281
 31
0.0
  0
LINE
  5
106
  8
0
 10
10.092849
 20
11.7281
 30
0.0
 11
10.092849
 21
12.247594
 31
0.0
  0
LINE
  5
107
  8
0
 10
10.092849
 20
12.247594
 30
0.0
 11
10.092849
 21
12.867929
 31
0.0
  0
LINE
  5
108
  8
0
 10
10.092849
 20
12.867929
 30
0.0
 11
10.092849
 21
13.036316
 31
0.0
  0
LINE
  5
109
  8
0
 10
10.092849
 20
13.036316
 30
0.0
 11
10.092849
 21
13.277634
 31
0.0
  0
LINE
  5
10A
  8
0
 10
10.092849
 20
13.277634
 30
0.0
 11
10.092849
 21
13.940195
 31
0.0
  0
LINE
  5
10B
  8
0
 10
10.092849
 20
13.940195
 30
0.0
 11
10.092849
 21
14.072708
 31
0.0
  0
LINE
  5
10C
  8
0
 10
10.092849
 20
14.072708
 30
0.0
 11
10.092849
 21
14.269682
 31
0.0
  0
LINE
  5
10D
  8
0
 10
10.092849
 20
14.269682
 30
0.0
 11
10.092849
 21
14.631
 31
0.0
  0
LINE
  5
10E
  8
0
 10
12.592849
 20
0.455
 30
0.0
 11
12.592849
 21
0.798434
 31
0.0
  0
LINE
  5
10F
  8
0
 10
12.592849
 20
0.455
 30
0.0
 11
12.592849
 21
0.798434
 31
0.0
  0
LINE
  5
110
  8
0
 10
12.592849
 20
0.798434
 30
0.0
 11
12.592849
 21
1.062143
 31
0.0
  0
LINE
  5
111
  8
0
 10
12.592849
 20
1.062143
 30
0.0
 11
12.592849
 21
1.565
 31
0.0
  0
LINE
  5
112
  8
0
 10
12.592849
 20
1.565
 30
0.0
 11
12.592849
 21
1.682857
 31
0.0
  0
LINE
  5
113
  8
0
 10
12.592849
 20
1.682857
 30
0.0
 11
12.592849
 21
2.481555
 31
0.0
  0
LINE
  5
114
  8
0
 10
12.592849
 20
2.481555
 30
0.0
 11
12.592849
 21
2.499873
 31
0.0
  0
LINE
  5
115
  8
0
 10
12.592849
 20
2.499873
 30
0.0
 11
12.592849
 21
2.541185
 31
0.0
  0
LINE
  5
116
  8
0
 10
12.592849
 20
2.541185
 30
0.0
 11
12.592849
 21
2.546489
 31
0.0
  0
LINE
  5
117
  8
0
 10
12.592849
 20
2.546489
 30
0.0
 11
12.592849
 21
2.769894
 31
0.0
  0
LINE
  5
118
  8
0
 10
12.592849
 20
2.769894
 30
0.0
 11
12.592849
 21
3.742309
 31
0.0
  0
LINE
  5
119
  8
0
 10
12.592849
 20
3.742309
 30
0.0
 11
12.592849
 21
3.839727
 31
0.0
  0
LINE
  5
11A
  8
0
 10
12.592849
 20
3.839727
 30
0.0
 11
12.592849
 21
4.326817
 31
0.0
  0
LINE
  5
11B
  8
0
 10
12.592849
 20
4.326817
 30
0.0
 11
12.592849
 21
4.918226
 31
0.0
  0
LINE
  5
11C
  8
0
 10
12.592849
 20
4.918226
 30
0.0
 11
12.592849
 21
5.538561
 31
0.0
  0
LINE
  5
11D
  8
0
 10
12.592849
 20
5.538561
 30
0.0
 11
12.592849
 21
5.706948
 31
0.0
  0
LINE
  5
11E
  8
0
 10
12.592849
 20
5.706948
 30
0.0
 11
12.592849
 21
6.112418
 31
0.0
  0
LINE
  5
11F
  8
0
 10
12.592849
 20
6.112418
 30
0.0
 11
12.592849
 21
6.599508
 31
0.0
  0
LINE
  5
120
  8
0
 10
12.592849
 20
6.599508
 30
0.0
 11
12.592849
 21
7.025323
 31
0.0
  0
LINE
  5
121
  8
0
 10
12.592849
 20
7.025323
 30
0.0
 11
12.592849
 21
7.19371
 31
0.0
  0
LINE
  5
122
  8
0
 10
12.592849
 20
7.19371
 30
0.0
 11
12.592849
 21
7.814045
 31
0.0
  0
LINE
  5
123
  8
0
 10
12.592849
 20
7.814045
 30
0.0
 11
12.592849
 21
8.385109
 31
0.0
  0
LINE
  5
124
  8
0
 10
12.592849
 20
8.385109
 30
0.0
 11
12.592849
 21
8.8722
 31
0.0
  0
LINE
  5
125
  8
0
 10
12.592849
 20
8.8722
 30
0.0
 11
12.592849
 21
8.969618
 31
0.0
  0
LINE
  5
126
  8
0
 10
12.592849
 20
8.969618
 30
0.0
 11
12.592849
 21
9.926641
 31
0.0
  0
LINE
  5
127
  8
0
 10
12.592849
 20
9.926641
 30
0.0
 11
12.592849
 21
9.949543
 31
0.0
  0
LINE
  5
128
  8
0
 10
12.592849
 20
9.949543
 30
0.0
 11
12.592849
 21
9.967182
 31
0.0
  0
LINE
  5
129
  8
0
 10
12.592849
 20
9.967182
 30
0.0
 11
12.592849
 21
9.967733
 31
0.0
  0
LINE
  5
12A
  8
0
 10
12.592849
 20
10.002
 30
0.0
 11
12.592849
 21
10.014359
 31
0.0
  0
LINE
  5
12B
  8
0
 10
12.592849
 20
10.014359
 30
0.0
 11
12.592849
 21
10.056921
 31
0.0
  0
LINE
  5
12C
  8
0
 10
12.592849
 20
10.056921
 30
0.0
 11
12.592849
 21
10.070217
 31
0.0
  0
LINE
  5
12D
  8
0
 10
12.592849
 20
10.070217
 30
0.0
 11
12.592849
 21
10.120984
 31
0.0
  0
LINE
  5
12E
  8
0
 10
12.592849
 20
10.120984
 30
0.0
 11
12.592849
 21
10.191697
 31
0.0
  0
LINE
  5
12F
  8
0
 10
12.592849
 20
10.191697
 30
0.0
 11
12.592849
 21
10.201887
 31
0.0
  0
LINE
  5
130
  8
0
 10
12.592849
 20
10.201887
 30
0.0
 11
12.592849
 21
10.22415
 31
0.0
  0
LINE
  5
131
  8
0
 10
12.592849
 20
10.22415
 30
0.0
 11
12.592849
 21
11.144891
 31
0.0
  0
LINE
  5
132
  8
0
 10
12.592849
 20
11.144891
 30
0.0
 11
12.592849
 21
11.242309
 31
0.0
  0
LINE
  5
133
  8
0
 10
12.592849
 20
11.242309
 30
0.0
 11
12.592849
 21
11.729399
 31
0.0
  0
LINE
  5
134
  8
0
 10
12.592849
 20
11.729399
 30
0.0
 11
12.592849
 21
12.249839
 31
0.0
  0
LINE
  5
135
  8
0
 10
12.592849
 20
12.249839
 30
0.0
 11
12.592849
 21
12.870174
 31
0.0
  0
LINE
  5
136
  8
0
 10
12.592849
 20
12.870174
 30
0.0
 11
12.592849
 21
13.038561
 31
0.0
  0
LINE
  5
137
  8
0
 10
12.592849
 20
13.038561
 30
0.0
 11
12.592849
 21
13.283105
 31
0.0
  0
LINE
  5
138
  8
0
 10
12.592849
 20
13.283105
 30
0.0
 11
12.592849
 21
13.942908
 31
0.0
  0
LINE
  5
139
  8
0
 10
12.592849
 20
13.942908
 30
0.0
 11
12.592849
 21
14.074868
 31
0.0
  0
LINE
  5
13A
  8
0
 10
12.592849
 20
14.074868
 30
0.0
 11
12.592849
 21
14.274449
 31
0.0
  0
LINE
  5
13B
  8
0
 10
12.592849
 20
14.274449
 30
0.0
 11
12.592849
 21
14.635
 31
0.0
  0
LINE
  5
13C
  8
0
 10
0.45
 20
2.592238
 30
0.0
 11
0.579549
 21
2.592238
 31
0.0
  0
LINE
  5
13D
  8
0
 10
0.45
 20
2.592238
 30
0.0
 11
0.579549
 21
2.592238
 31
0.0
  0
LINE
  5
13E
  8
0
 10
0.579549
 20
2.592238
 30
0.0
 11
0.758734
 21
2.592238
 31
0.0
  0
LINE
  5
13F
  8
0
 10
0.758734
 20
2.592238
 30
0.0
 11
1.177516
 21
2.592238
 31
0.0
  0
LINE
  5
140
  8
0
 10
1.177516
 20
2.592238
 30
0.0
 11
1.763108
 21
2.592238
 31
0.0
  0
LINE
  5
141
  8
0
 10
1.763108
 20
2.592238
 30
0.0
 11
2.090871
 21
2.592238
 31
0.0
  0
LINE
  5
142
  8
0
 10
2.090871
 20
2.592238
 30
0.0
 11
2.258697
 21
2.592238
 31
0.0
  0
LINE
  5
143
  8
0
 10
2.258697
 20
2.592238
 30
0.0
 11
2.879032
 21
2.592238
 31
0.0
  0
LINE
  5
144
  8
0
 10
2.879032
 20
2.592238
 30
0.0
 11
3.423128
 21
2.592238
 31
0.0
  0
LINE
  5
145
  8
0
 10
3.423128
 20
2.592238
 30
0.0
 11
3.910543
 21
2.592238
 31
0.0
  0
LINE
  5
146
  8
0
 10
3.910543
 20
2.592238
 30
0.0
 11
4.007637
 21
2.592238
 31
0.0
  0
LINE
  5
147
  8
0
 10
4.007637
 20
2.592238
 30
0.0
 11
4.939153
 21
2.592238
 31
0.0
  0
LINE
  5
148
  8
0
 10
4.939153
 20
2.592238
 30
0.0
 11
4.964016
 21
2.592238
 31
0.0
  0
LINE
  5
149
  8
0
 10
4.964016
 20
2.592238
 30
0.0
 11
5.001745
 21
2.592238
 31
0.0
  0
LINE
  5
14A
  8
0
 10
5.001745
 20
2.592238
 30
0.0
 11
5.083023
 21
2.592238
 31
0.0
  0
LINE
  5
14B
  8
0
 10
5.117286
 20
2.592238
 30
0.0
 11
5.117643
 21
2.592238
 31
0.0
  0
LINE
  5
14C
  8
0
 10
5.117643
 20
2.592238
 30
0.0
 11
5.13547
 21
2.592238
 31
0.0
  0
LINE
  5
14D
  8
0
 10
5.13547
 20
2.592238
 30
0.0
 11
5.204766
 21
2.592238
 31
0.0
  0
LINE
  5
14E
  8
0
 10
5.204766
 20
2.592238
 30
0.0
 11
5.229049
 21
2.592238
 31
0.0
  0
LINE
  5
14F
  8
0
 10
5.229049
 20
2.592238
 30
0.0
 11
5.242195
 21
2.592238
 31
0.0
  0
LINE
  5
150
  8
0
 10
5.242195
 20
2.592238
 30
0.0
 11
5.24817
 21
2.592238
 31
0.0
  0
LINE
  5
151
  8
0
 10
5.24817
 20
2.592238
 30
0.0
 11
6.183234
 21
2.592238
 31
0.0
  0
LINE
  5
152
  8
0
 10
6.183234
 20
2.592238
 30
0.0
 11
6.280328
 21
2.592238
 31
0.0
  0
LINE
  5
153
  8
0
 10
6.280328
 20
2.592238
 30
0.0
 11
6.767743
 21
2.592238
 31
0.0
  0
LINE
  5
154
  8
0
 10
6.767743
 20
2.592238
 30
0.0
 11
7.315387
 21
2.592238
 31
0.0
  0
LINE
  5
155
  8
0
 10
7.315387
 20
2.592238
 30
0.0
 11
7.935723
 21
2.592238
 31
0.0
  0
LINE
  5
156
  8
0
 10
7.935723
 20
2.592238
 30
0.0
 11
8.103548
 21
2.592238
 31
0.0
  0
LINE
  5
157
  8
0
 10
8.103548
 20
2.592238
 30
0.0
 11
8.553019
 21
2.592238
 31
0.0
  0
LINE
  5
158
  8
0
 10
8.553019
 20
2.592238
 30
0.0
 11
9.040434
 21
2.592238
 31
0.0
  0
LINE
  5
159
  8
0
 10
9.040434
 20
2.592238
 30
0.0
 11
9.137527
 21
2.592238
 31
0.0
  0
LINE
  5
15A
  8
0
 10
9.137527
 20
2.592238
 30
0.0
 11
9.59031
 21
2.592238
 31
0.0
  0
LINE
  5
15B
  8
0
 10
9.59031
 20
2.592238
 30
0.0
 11
10.210645
 21
2.592238
 31
0.0
  0
LINE
  5
15C
  8
0
 10
10.210645
 20
2.592238
 30
0.0
 11
10.82571
 21
2.592238
 31
0.0
  0
LINE
  5
15D
  8
0
 10
10.82571
 20
2.592238
 30
0.0
 11
11.313125
 21
2.592238
 31
0.0
  0
LINE
  5
15E
  8
0
 10
11.313125
 20
2.592238
 30
0.0
 11
11.410218
 21
2.592238
 31
0.0
  0
LINE
  5
15F
  8
0
 10
11.410218
 20
2.592238
 30
0.0
 11
11.697406
 21
2.592238
 31
0.0
  0
LINE
  5
160
  8
0
 10
11.697406
 20
2.592238
 30
0.0
 11
12.539903
 21
2.592238
 31
0.0
  0
LINE
  5
161
  8
0
 10
12.539903
 20
2.592238
 30
0.0
 11
13.160239
 21
2.592238
 31
0.0
  0
LINE
  5
162
  8
0
 10
13.160239
 20
2.592238
 30
0.0
 11
13.472098
 21
2.592238
 31
0.0
  0
LINE
  5
163
  8
0
 10
13.472098
 20
2.592238
 30
0.0
 11
13.588092
 21
2.592238
 31
0.0
  0
LINE
  5
164
  8
0
 10
13.588092
 20
2.592238
 30
0.0
 11
14.126939
 21
2.592238
 31
0.0
  0
LINE
  5
165
  8
0
 10
14.126939
 20
2.592238
 30
0.0
 11
14.39712
 21
2.592238
 31
0.0
  0
LINE
  5
166
  8
0
 10
14.39712
 20
2.592238
 30
0.0
 11
14.739
 21
2.592238
 31
0.0
  0
LINE
  5
167
  8
0
 10
0.513
 20
5.092238
 30
0.0
 11
0.853738
 21
5.092238
 31
0.0
  0
LINE
  5
168
  8
0
 10
0.513
 20
5.092238
 30
0.0
 11
0.853738
 21
5.092238
 31
0.0
  0
LINE
  5
169
  8
0
 10
0.853738
 20
5.092238
 30
0.0
 11
1.217652
 21
5.092238
 31
0.0
  0
LINE
  5
16A
  8
0
 10
1.217652
 20
5.092238
 30
0.0
 11
1.8522
 21
5.092238
 31
0.0
  0
LINE
  5
16B
  8
0
 10
1.8522
 20
5.092238
 30
0.0
 11
2.126232
 21
5.092238
 31
0.0
  0
LINE
  5
16C
  8
0
 10
2.126232
 20
5.092238
 30
0.0
 11
2.294058
 21
5.092238
 31
0.0
  0
LINE
  5
16D
  8
0
 10
2.294058
 20
5.092238
 30
0.0
 11
2.914394
 21
5.092238
 31
0.0
  0
LINE
  5
16E
  8
0
 10
2.914394
 20
5.092238
 30
0.0
 11
3.443586
 21
5.092238
 31
0.0
  0
LINE
  5
16F
  8
0
 10
3.443586
 20
5.092238
 30
0.0
 11
3.931001
 21
5.092238
 31
0.0
  0
LINE
  5
170
  8
0
 10
3.931001
 20
5.092238
 30
0.0
 11
4.028094
 21
5.092238
 31
0.0
  0
LINE
  5
171
  8
0
 10
4.028094
 20
5.092238
 30
0.0
 11
4.95007
 21
5.092238
 31
0.0
  0
LINE
  5
172
  8
0
 10
4.95007
 20
5.092238
 30
0.0
 11
4.957174
 21
5.092238
 31
0.0
  0
LINE
  5
173
  8
0
 10
4.957174
 20
5.092238
 30
0.0
 11
4.991268
 21
5.092238
 31
0.0
  0
LINE
  5
174
  8
0
 10
4.991268
 20
5.092238
 30
0.0
 11
5.027016
 21
5.092238
 31
0.0
  0
LINE
  5
175
  8
0
 10
5.027016
 20
5.092238
 30
0.0
 11
5.064745
 21
5.092238
 31
0.0
  0
LINE
  5
176
  8
0
 10
5.064745
 20
5.092238
 30
0.0
 11
5.146023
 21
5.092238
 31
0.0
  0
LINE
  5
177
  8
0
 10
5.180286
 20
5.092238
 30
0.0
 11
5.180643
 21
5.092238
 31
0.0
  0
LINE
  5
178
  8
0
 10
5.180643
 20
5.092238
 30
0.0
 11
5.19847
 21
5.092238
 31
0.0
  0
LINE
  5
179
  8
0
 10
5.19847
 20
5.092238
 30
0.0
 11
5.240695
 21
5.092238
 31
0.0
  0
LINE
  5
17A
  8
0
 10
5.240695
 20
5.092238
 30
0.0
 11
5.253889
 21
5.092238
 31
0.0
  0
LINE
  5
17B
  8
0
 10
5.253889
 20
5.092238
 30
0.0
 11
6.203692
 21
5.092238
 31
0.0
  0
LINE
  5
17C
  8
0
 10
6.203692
 20
5.092238
 30
0.0
 11
6.300786
 21
5.092238
 31
0.0
  0
LINE
  5
17D
  8
0
 10
6.300786
 20
5.092238
 30
0.0
 11
6.788201
 21
5.092238
 31
0.0
  0
LINE
  5
17E
  8
0
 10
6.788201
 20
5.092238
 30
0.0
 11
7.350748
 21
5.092238
 31
0.0
  0
LINE
  5
17F
  8
0
 10
7.350748
 20
5.092238
 30
0.0
 11
7.971084
 21
5.092238
 31
0.0
  0
LINE
  5
180
  8
0
 10
7.971084
 20
5.092238
 30
0.0
 11
8.13891
 21
5.092238
 31
0.0
  0
LINE
  5
181
  8
0
 10
8.13891
 20
5.092238
 30
0.0
 11
8.573477
 21
5.092238
 31
0.0
  0
LINE
  5
182
  8
0
 10
8.573477
 20
5.092238
 30
0.0
 11
8.59305
 21
5.092238
 31
0.0
  0
LINE
  5
183
  8
0
 10
8.59305
 20
5.092238
 30
0.0
 11
9.060892
 21
5.092238
 31
0.0
  0
LINE
  5
184
  8
0
 10
9.060892
 20
5.092238
 30
0.0
 11
9.457845
 21
5.092238
 31
0.0
  0
LINE
  5
185
  8
0
 10
9.457845
 20
5.092238
 30
0.0
 11
9.625671
 21
5.092238
 31
0.0
  0
LINE
  5
186
  8
0
 10
9.625671
 20
5.092238
 30
0.0
 11
10.246006
 21
5.092238
 31
0.0
  0
LINE
  5
187
  8
0
 10
10.246006
 20
5.092238
 30
0.0
 11
10.846168
 21
5.092238
 31
0.0
  0
LINE
  5
188
  8
0
 10
10.846168
 20
5.092238
 30
0.0
 11
11.333583
 21
5.092238
 31
0.0
  0
LINE
  5
189
  8
0
 10
11.333583
 20
5.092238
 30
0.0
 11
11.430676
 21
5.092238
 31
0.0
  0
LINE
  5
18A
  8
0
 10
11.430676
 20
5.092238
 30
0.0
 11
11.732768
 21
5.092238
 31
0.0
  0
LINE
  5
18B
  8
0
 10
11.732768
 20
5.092238
 30
0.0
 11
12.575265
 21
5.092238
 31
0.0
  0
LINE
  5
18C
  8
0
 10
12.575265
 20
5.092238
 30
0.0
 11
13.1956
 21
5.092238
 31
0.0
  0
LINE
  5
18D
  8
0
 10
13.1956
 20
5.092238
 30
0.0
 11
13.418554
 21
5.092238
 31
0.0
  0
LINE
  5
18E
  8
0
 10
13.418554
 20
5.092238
 30
0.0
 11
13.547979
 21
5.092238
 31
0.0
  0
LINE
  5
18F
  8
0
 10
13.547979
 20
5.092238
 30
0.0
 11
14.083861
 21
5.092238
 31
0.0
  0
LINE
  5
190
  8
0
 10
14.083861
 20
5.092238
 30
0.0
 11
14.293294
 21
5.092238
 31
0.0
  0
LINE
  5
191
  8
0
 10
14.293294
 20
5.092238
 30
0.0
 11
14.651
 21
5.092238
 31
0.0
  0
LINE
  5
192
  8
0
 10
0.576
 20
7.592238
 30
0.0
 11
0.939587
 21
7.592238
 31
0.0
  0
LINE
  5
193
  8
0
 10
0.576
 20
7.592238
 30
0.0
 11
0.939587
 21
7.592238
 31
0.0
  0
LINE
  5
194
  8
0
 10
0.939587
 20
7.592238
 30
0.0
 11
1.26011
 21
7.592238
 31
0.0
  0
LINE
  5
195
  8
0
 10
1.26011
 20
7.592238
 30
0.0
 11
1.938644
 21
7.592238
 31
0.0
  0
LINE
  5
196
  8
0
 10
1.938644
 20
7.592238
 30
0.0
 11
2.161594
 21
7.592238
 31
0.0
  0
LINE
  5
197
  8
0
 10
2.161594
 20
7.592238
 30
0.0
 11
2.329419
 21
7.592238
 31
0.0
  0
LINE
  5
198
  8
0
 10
2.329419
 20
7.592238
 30
0.0
 11
2.949755
 21
7.592238
 31
0.0
  0
LINE
  5
199
  8
0
 10
2.949755
 20
7.592238
 30
0.0
 11
3.464044
 21
7.592238
 31
0.0
  0
LINE
  5
19A
  8
0
 10
3.464044
 20
7.592238
 30
0.0
 11
3.951459
 21
7.592238
 31
0.0
  0
LINE
  5
19B
  8
0
 10
3.951459
 20
7.592238
 30
0.0
 11
4.048552
 21
7.592238
 31
0.0
  0
LINE
  5
19C
  8
0
 10
4.048552
 20
7.592238
 30
0.0
 11
4.966506
 21
7.592238
 31
0.0
  0
LINE
  5
19D
  8
0
 10
4.966506
 20
7.592238
 30
0.0
 11
5.009113
 21
7.592238
 31
0.0
  0
LINE
  5
19E
  8
0
 10
5.009113
 20
7.592238
 30
0.0
 11
5.054268
 21
7.592238
 31
0.0
  0
LINE
  5
19F
  8
0
 10
5.054268
 20
7.592238
 30
0.0
 11
5.090016
 21
7.592238
 31
0.0
  0
LINE
  5
1A0
  8
0
 10
5.090016
 20
7.592238
 30
0.0
 11
5.127745
 21
7.592238
 31
0.0
  0
LINE
  5
1A1
  8
0
 10
5.127745
 20
7.592238
 30
0.0
 11
5.209023
 21
7.592238
 31
0.0
  0
LINE
  5
1A2
  8
0
 10
5.243286
 20
7.592238
 30
0.0
 11
5.247147
 21
7.592238
 31
0.0
  0
LINE
  5
1A3
  8
0
 10
5.247147
 20
7.592238
 30
0.0
 11
5.256418
 21
7.592238
 31
0.0
  0
LINE
  5
1A4
  8
0
 10
5.256418
 20
7.592238
 30
0.0
 11
6.22415
 21
7.592238
 31
0.0
  0
LINE
  5
1A5
  8
0
 10
6.22415
 20
7.592238
 30
0.0
 11
6.321243
 21
7.592238
 31
0.0
  0
LINE
  5
1A6
  8
0
 10
6.321243
 20
7.592238
 30
0.0
 11
6.808658
 21
7.592238
 31
0.0
  0
LINE
  5
1A7
  8
0
 10
6.808658
 20
7.592238
 30
0.0
 11
7.38611
 21
7.592238
 31
0.0
  0
LINE
  5
1A8
  8
0
 10
7.38611
 20
7.592238
 30
0.0
 11
8.006445
 21
7.592238
 31
0.0
  0
LINE
  5
1A9
  8
0
 10
8.006445
 20
7.592238
 30
0.0
 11
8.174271
 21
7.592238
 31
0.0
  0
LINE
  5
1AA
  8
0
 10
8.174271
 20
7.592238
 30
0.0
 11
8.593934
 21
7.592238
 31
0.0
  0
LINE
  5
1AB
  8
0
 10
8.593934
 20
7.592238
 30
0.0
 11
9.08135
 21
7.592238
 31
0.0
  0
LINE
  5
1AC
  8
0
 10
9.08135
 20
7.592238
 30
0.0
 11
9.493206
 21
7.592238
 31
0.0
  0
LINE
  5
1AD
  8
0
 10
9.493206
 20
7.592238
 30
0.0
 11
9.661032
 21
7.592238
 31
0.0
  0
LINE
  5
1AE
  8
0
 10
9.661032
 20
7.592238
 30
0.0
 11
10.281368
 21
7.592238
 31
0.0
  0
LINE
  5
1AF
  8
0
 10
10.281368
 20
7.592238
 30
0.0
 11
10.866626
 21
7.592238
 31
0.0
  0
LINE
  5
1B0
  8
0
 10
10.866626
 20
7.592238
 30
0.0
 11
11.354041
 21
7.592238
 31
0.0
  0
LINE
  5
1B1
  8
0
 10
11.354041
 20
7.592238
 30
0.0
 11
11.451134
 21
7.592238
 31
0.0
  0
LINE
  5
1B2
  8
0
 10
11.451134
 20
7.592238
 30
0.0
 11
12.387071
 21
7.592238
 31
0.0
  0
LINE
  5
1B3
  8
0
 10
12.387071
 20
7.592238
 30
0.0
 11
12.412943
 21
7.592238
 31
0.0
  0
LINE
  5
1B4
  8
0
 10
12.412943
 20
7.592238
 30
0.0
 11
12.429058
 21
7.592238
 31
0.0
  0
LINE
  5
1B5
  8
0
 10
12.443286
 20
7.592238
 30
0.0
 11
12.443643
 21
7.592238
 31
0.0
  0
LINE
  5
1B6
  8
0
 10
12.443643
 20
7.592238
 30
0.0
 11
12.46147
 21
7.592238
 31
0.0
  0
LINE
  5
1B7
  8
0
 10
12.46147
 20
7.592238
 30
0.0
 11
12.530766
 21
7.592238
 31
0.0
  0
LINE
  5
1B8
  8
0
 10
12.530766
 20
7.592238
 30
0.0
 11
12.555049
 21
7.592238
 31
0.0
  0
LINE
  5
1B9
  8
0
 10
12.555049
 20
7.592238
 30
0.0
 11
12.568195
 21
7.592238
 31
0.0
  0
LINE
  5
1BA
  8
0
 10
12.568195
 20
7.592238
 30
0.0
 11
12.592092
 21
7.592238
 31
0.0
  0
LINE
  5
1BB
  8
0
 10
12.592092
 20
7.592238
 30
0.0
 11
12.615184
 21
7.592238
 31
0.0
  0
LINE
  5
1BC
  8
0
 10
12.615184
 20
7.592238
 30
0.0
 11
12.638378
 21
7.592238
 31
0.0
  0
LINE
  5
1BD
  8
0
 10
12.638378
 20
7.592238
 30
0.0
 11
12.669968
 21
7.592238
 31
0.0
  0
LINE
  5
1BE
  8
0
 10
12.669968
 20
7.592238
 30
0.0
 11
12.691644
 21
7.592238
 31
0.0
  0
LINE
  5
1BF
  8
0
 10
12.691644
 20
7.592238
 30
0.0
 11
12.710479
 21
7.592238
 31
0.0
  0
LINE
  5
1C0
  8
0
 10
12.710479
 20
7.592238
 30
0.0
 11
13.426444
 21
7.592238
 31
0.0
  0
LINE
  5
1C1
  8
0
 10
13.426444
 20
7.592238
 30
0.0
 11
13.559333
 21
7.592238
 31
0.0
  0
LINE
  5
1C2
  8
0
 10
13.559333
 20
7.592238
 30
0.0
 11
14.070444
 21
7.592238
 31
0.0
  0
LINE
  5
1C3
  8
0
 10
14.070444
 20
7.592238
 30
0.0
 11
14.263527
 21
7.592238
 31
0.0
  0
LINE
  5
1C4
  8
0
 10
14.263527
 20
7.592238
 30
0.0
 11
14.626
 21
7.592238
 31
0.0
  0
LINE
  5
1C5
  8
0
 10
0.514
 20
10.092238
 30
0.0
 11
0.867798
 21
10.092238
 31
0.0
  0
LINE
  5
1C6
  8
0
 10
0.514
 20
10.092238
 30
0.0
 11
0.867798
 21
10.092238
 31
0.0
  0
LINE
  5
1C7
  8
0
 10
0.867798
 20
10.092238
 30
0.0
 11
1.09125
 21
10.092238
 31
0.0
  0
LINE
  5
1C8
  8
0
 10
1.09125
 20
10.092238
 30
0.0
 11
1.218075
 21
10.092238
 31
0.0
  0
LINE
  5
1C9
  8
0
 10
1.218075
 20
10.092238
 30
0.0
 11
1.8522
 21
10.092238
 31
0.0
  0
LINE
  5
1CA
  8
0
 10
1.8522
 20
10.092238
 30
0.0
 11
2.126232
 21
10.092238
 31
0.0
  0
LINE
  5
1CB
  8
0
 10
2.126232
 20
10.092238
 30
0.0
 11
2.294619
 21
10.092238
 31
0.0
  0
LINE
  5
1CC
  8
0
 10
2.294619
 20
10.092238
 30
0.0
 11
2.914955
 21
10.092238
 31
0.0
  0
LINE
  5
1CD
  8
0
 10
2.914955
 20
10.092238
 30
0.0
 11
3.443911
 21
10.092238
 31
0.0
  0
LINE
  5
1CE
  8
0
 10
3.443911
 20
10.092238
 30
0.0
 11
3.931001
 21
10.092238
 31
0.0
  0
LINE
  5
1CF
  8
0
 10
3.931001
 20
10.092238
 30
0.0
 11
4.028419
 21
10.092238
 31
0.0
  0
LINE
  5
1D0
  8
0
 10
4.028419
 20
10.092238
 30
0.0
 11
4.95107
 21
10.092238
 31
0.0
  0
LINE
  5
1D1
  8
0
 10
4.95107
 20
10.092238
 30
0.0
 11
4.957303
 21
10.092238
 31
0.0
  0
LINE
  5
1D2
  8
0
 10
4.957303
 20
10.092238
 30
0.0
 11
5.028016
 21
10.092238
 31
0.0
  0
LINE
  5
1D3
  8
0
 10
5.028016
 20
10.092238
 30
0.0
 11
5.078783
 21
10.092238
 31
0.0
  0
LINE
  5
1D4
  8
0
 10
5.078783
 20
10.092238
 30
0.0
 11
5.092079
 21
10.092238
 31
0.0
  0
LINE
  5
1D5
  8
0
 10
5.092079
 20
10.092238
 30
0.0
 11
5.134641
 21
10.092238
 31
0.0
  0
LINE
  5
1D6
  8
0
 10
5.134641
 20
10.092238
 30
0.0
 11
5.14652
 21
10.092238
 31
0.0
  0
LINE
  5
1D7
  8
0
 10
5.181
 20
10.092238
 30
0.0
 11
5.181818
 21
10.092238
 31
0.0
  0
LINE
  5
1D8
  8
0
 10
5.181818
 20
10.092238
 30
0.0
 11
5.199457
 21
10.092238
 31
0.0
  0
LINE
  5
1D9
  8
0
 10
5.199457
 20
10.092238
 30
0.0
 11
5.241651
 21
10.092238
 31
0.0
  0
LINE
  5
1DA
  8
0
 10
5.241651
 20
10.092238
 30
0.0
 11
5.254836
 21
10.092238
 31
0.0
  0
LINE
  5
1DB
  8
0
 10
5.254836
 20
10.092238
 30
0.0
 11
6.203692
 21
10.092238
 31
0.0
  0
LINE
  5
1DC
  8
0
 10
6.203692
 20
10.092238
 30
0.0
 11
6.30111
 21
10.092238
 31
0.0
  0
LINE
  5
1DD
  8
0
 10
6.30111
 20
10.092238
 30
0.0
 11
6.788201
 21
10.092238
 31
0.0
  0
LINE
  5
1DE
  8
0
 10
6.788201
 20
10.092238
 30
0.0
 11
7.350748
 21
10.092238
 31
0.0
  0
LINE
  5
1DF
  8
0
 10
7.350748
 20
10.092238
 30
0.0
 11
7.971084
 21
10.092238
 31
0.0
  0
LINE
  5
1E0
  8
0
 10
7.971084
 20
10.092238
 30
0.0
 11
8.139471
 21
10.092238
 31
0.0
  0
LINE
  5
1E1
  8
0
 10
8.139471
 20
10.092238
 30
0.0
 11
8.573801
 21
10.092238
 31
0.0
  0
LINE
  5
1E2
  8
0
 10
8.573801
 20
10.092238
 30
0.0
 11
9.060892
 21
10.092238
 31
0.0
  0
LINE
  5
1E3
  8
0
 10
9.060892
 20
10.092238
 30
0.0
 11
9.457845
 21
10.092238
 31
0.0
  0
LINE
  5
1E4
  8
0
 10
9.457845
 20
10.092238
 30
0.0
 11
9.626232
 21
10.092238
 31
0.0
  0
LINE
  5
1E5
  8
0
 10
9.626232
 20
10.092238
 30
0.0
 11
10.246568
 21
10.092238
 31
0.0
  0
LINE
  5
1E6
  8
0
 10
10.246568
 20
10.092238
 30
0.0
 11
10.846493
 21
10.092238
 31
0.0
  0
LINE
  5
1E7
  8
0
 10
10.846493
 20
10.092238
 30
0.0
 11
11.333583
 21
10.092238
 31
0.0
  0
LINE
  5
1E8
  8
0
 10
11.333583
 20
10.092238
 30
0.0
 11
11.431001
 21
10.092238
 31
0.0
  0
LINE
  5
1E9
  8
0
 10
11.431001
 20
10.092238
 30
0.0
 11
11.733329
 21
10.092238
 31
0.0
  0
LINE
  5
1EA
  8
0
 10
11.733329
 20
10.092238
 30
0.0
 11
12.575265
 21
10.092238
 31
0.0
  0
LINE
  5
1EB
  8
0
 10
12.575265
 20
10.092238
 30
0.0
 11
13.1956
 21
10.092238
 31
0.0
  0
LINE
  5
1EC
  8
0
 10
13.1956
 20
10.092238
 30
0.0
 11
13.398444
 21
10.092238
 31
0.0
  0
LINE
  5
1ED
  8
0
 10
13.398444
 20
10.092238
 30
0.0
 11
13.531778
 21
10.092238
 31
0.0
  0
LINE
  5
1EE
  8
0
 10
13.531778
 20
10.092238
 30
0.0
 11
14.267509
 21
10.092238
 31
0.0
  0
LINE
  5
1EF
  8
0
 10
14.267509
 20
10.092238
 30
0.0
 11
14.423333
 21
10.092238
 31
0.0
  0
LINE
  5
1F0
  8
0
 10
14.423333
 20
10.092238
 30
0.0
 11
14.626
 21
10.092238
 31
0.0
  0
LINE
  5
1F1
  8
0
 10
0.438
 20
12.592238
 30
0.0
 11
0.77834
 21
12.592238
 31
0.0
  0
LINE
  5
1F2
  8
0
 10
0.438
 20
12.592238
 30
0.0
 11
0.77834
 21
12.592238
 31
0.0
  0
LINE
  5
1F3
  8
0
 10
0.77834
 20
12.592238
 30
0.0
 11
1.05506
 21
12.592238
 31
0.0
  0
LINE
  5
1F4
  8
0
 10
1.05506
 20
12.592238
 30
0.0
 11
1.169942
 21
12.592238
 31
0.0
  0
LINE
  5
1F5
  8
0
 10
1.169942
 20
12.592238
 30
0.0
 11
1.744352
 21
12.592238
 31
0.0
  0
LINE
  5
1F6
  8
0
 10
1.744352
 20
12.592238
 30
0.0
 11
2.083574
 21
12.592238
 31
0.0
  0
LINE
  5
1F7
  8
0
 10
2.083574
 20
12.592238
 30
0.0
 11
2.251961
 21
12.592238
 31
0.0
  0
LINE
  5
1F8
  8
0
 10
2.251961
 20
12.592238
 30
0.0
 11
2.872297
 21
12.592238
 31
0.0
  0
LINE
  5
1F9
  8
0
 10
2.872297
 20
12.592238
 30
0.0
 11
3.419231
 21
12.592238
 31
0.0
  0
LINE
  5
1FA
  8
0
 10
3.419231
 20
12.592238
 30
0.0
 11
3.906322
 21
12.592238
 31
0.0
  0
LINE
  5
1FB
  8
0
 10
3.906322
 20
12.592238
 30
0.0
 11
4.00374
 21
12.592238
 31
0.0
  0
LINE
  5
1FC
  8
0
 10
4.00374
 20
12.592238
 30
0.0
 11
4.937307
 21
12.592238
 31
0.0
  0
LINE
  5
1FD
  8
0
 10
4.937307
 20
12.592238
 30
0.0
 11
4.939015
 21
12.592238
 31
0.0
  0
LINE
  5
1FE
  8
0
 10
4.939015
 20
12.592238
 30
0.0
 11
4.952016
 21
12.592238
 31
0.0
  0
LINE
  5
1FF
  8
0
 10
4.952016
 20
12.592238
 30
0.0
 11
4.976025
 21
12.592238
 31
0.0
  0
LINE
  5
200
  8
0
 10
4.976025
 20
12.592238
 30
0.0
 11
5.016079
 21
12.592238
 31
0.0
  0
LINE
  5
201
  8
0
 10
5.016079
 20
12.592238
 30
0.0
 11
5.058641
 21
12.592238
 31
0.0
  0
LINE
  5
202
  8
0
 10
5.058641
 20
12.592238
 30
0.0
 11
5.070571
 21
12.592238
 31
0.0
  0
LINE
  5
203
  8
0
 10
5.105
 20
12.592238
 30
0.0
 11
5.109144
 21
12.592238
 31
0.0
  0
LINE
  5
204
  8
0
 10
5.109144
 20
12.592238
 30
0.0
 11
5.178836
 21
12.592238
 31
0.0
  0
LINE
  5
205
  8
0
 10
5.178836
 20
12.592238
 30
0.0
 11
5.229195
 21
12.592238
 31
0.0
  0
LINE
  5
206
  8
0
 10
5.229195
 20
12.592238
 30
0.0
 11
5.241191
 21
12.592238
 31
0.0
  0
LINE
  5
207
  8
0
 10
5.241191
 20
12.592238
 30
0.0
 11
5.246265
 21
12.592238
 31
0.0
  0
LINE
  5
208
  8
0
 10
5.246265
 20
12.592238
 30
0.0
 11
6.179013
 21
12.592238
 31
0.0
  0
LINE
  5
209
  8
0
 10
6.179013
 20
12.592238
 30
0.0
 11
6.276431
 21
12.592238
 31
0.0
  0
LINE
  5
20A
  8
0
 10
6.276431
 20
12.592238
 30
0.0
 11
6.763521
 21
12.592238
 31
0.0
  0
LINE
  5
20B
  8
0
 10
6.763521
 20
12.592238
 30
0.0
 11
7.30809
 21
12.592238
 31
0.0
  0
LINE
  5
20C
  8
0
 10
7.30809
 20
12.592238
 30
0.0
 11
7.928426
 21
12.592238
 31
0.0
  0
LINE
  5
20D
  8
0
 10
7.928426
 20
12.592238
 30
0.0
 11
8.096813
 21
12.592238
 31
0.0
  0
LINE
  5
20E
  8
0
 10
8.096813
 20
12.592238
 30
0.0
 11
8.549122
 21
12.592238
 31
0.0
  0
LINE
  5
20F
  8
0
 10
8.549122
 20
12.592238
 30
0.0
 11
9.036213
 21
12.592238
 31
0.0
  0
LINE
  5
210
  8
0
 10
9.036213
 20
12.592238
 30
0.0
 11
9.133631
 21
12.592238
 31
0.0
  0
LINE
  5
211
  8
0
 10
9.133631
 20
12.592238
 30
0.0
 11
9.583574
 21
12.592238
 31
0.0
  0
LINE
  5
212
  8
0
 10
9.583574
 20
12.592238
 30
0.0
 11
10.20391
 21
12.592238
 31
0.0
  0
LINE
  5
213
  8
0
 10
10.20391
 20
12.592238
 30
0.0
 11
10.821813
 21
12.592238
 31
0.0
  0
LINE
  5
214
  8
0
 10
10.821813
 20
12.592238
 30
0.0
 11
11.308904
 21
12.592238
 31
0.0
  0
LINE
  5
215
  8
0
 10
11.308904
 20
12.592238
 30
0.0
 11
11.406322
 21
12.592238
 31
0.0
  0
LINE
  5
216
  8
0
 10
11.406322
 20
12.592238
 30
0.0
 11
11.690671
 21
12.592238
 31
0.0
  0
LINE
  5
217
  8
0
 10
11.690671
 20
12.592238
 30
0.0
 11
12.532606
 21
12.592238
 31
0.0
  0
LINE
  5
218
  8
0
 10
12.532606
 20
12.592238
 30
0.0
 11
13.152942
 21
12.592238
 31
0.0
  0
LINE
  5
219
  8
0
 10
13.152942
 20
12.592238
 30
0.0
 11
13.364667
 21
12.592238
 31
0.0
  0
LINE
  5
21A
  8
0
 10
13.364667
 20
12.592238
 30
0.0
 11
13.498
 21
12.592238
 31
0.0
  0
LINE
  5
21B
  8
0
 10
13.498
 20
12.592238
 30
0.0
 11
14.070444
 21
12.592238
 31
0.0
  0
LINE
  5
21C
  8
0
 10
14.070444
 20
12.592238
 30
0.0
 11
14.263527
 21
12.592238
 31
0.0
  0
LINE
  5
21D
  8
0
 10
14.263527
 20
12.592238
 30
0.0
 11
14.626
 21
12.592238
 31
0.0
  0
ENDSEC
  0
EOF
