  0
SECTION
  2
HEADER
  9
$ACADVER
  1
AC1009
  9
$DWGCODEPAGE
  3
ANSI_1252
  9
$INSBASE
 10
0.0
 20
0.0
 30
0.0
  9
$EXTMIN
 10
1e+20
 20
1e+20
 30
1e+20
  9
$EXTMAX
 10
-1e+20
 20
-1e+20
 30
-1e+20
  9
$LIMMIN
 10
0.0
 20
0.0
  9
$LIMMAX
 10
420.0
 20
297.0
  9
$ORTHOMODE
 70
0
  9
$REGENMODE
 70
1
  9
$FILLMODE
 70
1
  9
$DRAGMODE
 70
2
  9
$QTEXTMODE
 70
0
  9
$MIRRTEXT
 70
1
  9
$OSMODE
 70
20583
  9
$LTSCALE
 40
1.0
  9
$ATTMODE
 70
1
  9
$TEXTSIZE
 40
2.5
  9
$TRACEWID
 40
1.0
  9
$TEXTSTYLE
  7
Standard
  9
$CLAYER
  8
0
  9
$CELTYPE
  6
ByLayer
  9
$CECOLOR
 62
256
  9
$DIMSCALE
 40
1.0
  9
$DIMASZ
 40
2.5
  9
$DIMEXO
 40
0.625
  9
$DIMDLI
 40
3.75
  9
$DIMRND
 40
0.0
  9
$DIMDLE
 40
0.0
  9
$DIMEXE
 40
1.25
  9
$DIMTP
 40
0.0
  9
$DIMTM
 40
0.0
  9
$DIMTXT
 40
2.5
  9
$DIMCEN
 40
2.5
  9
$DIMTSZ
 40
0.0
  9
$DIMTOL
 70
0
  9
$DIMLIM
 70
0
  9
$DIMTIH
 70
0
  9
$DIMTOH
 70
0
  9
$DIMSE1
 70
0
  9
$DIMSE2
 70
0
  9
$DIMTAD
 70
1
  9
$DIMZIN
 70
8
  9
$DIMBLK
  1

  9
$DIMASO
 70
1
  9
$DIMSHO
 70
1
  9
$DIMPOST
  1

  9
$DIMAPOST
  1

  9
$DIMALT
 70
0
  9
$DIMALTD
 70
3
  9
$DIMALTF
 40
0.03937007874
  9
$DIMLFAC
 40
1.0
  9
$DIMTOFL
 70
1
  9
$DIMTVP
 40
0.0
  9
$DIMTIX
 70
0
  9
$DIMSOXD
 70
0
  9
$DIMSAH
 70
0
  9
$DIMBLK1
  1

  9
$DIMBLK2
  1

  9
$DIMSTYLE
  2
ISO-25
  9
$DIMCLRD
 70
0
  9
$DIMCLRE
 70
0
  9
$DIMCLRT
 70
0
  9
$DIMTFAC
 40
1.0
  9
$DIMGAP
 40
0.625
  9
$COORDS
 70
1
  9
$ATTDIA
 70
0
  9
$ATTREQ
 70
1
  9
$HANDLING
 70
1
  9
$LUNITS
 70
2
  9
$LUPREC
 70
4
  9
$SKETCHINC
 40
1.0
  9
$FILLETRAD
 40
10.0
  9
$AUNITS
 70
0
  9
$AUPREC
 70
2
  9
$MENU
  1
.
  9
$ELEVATION
 40
0.0
  9
$PELEVATION
 40
0.0
  9
$THICKNESS
 40
0.0
  9
$LIMCHECK
 70
0
  9
$CHAMFERA
 40
0.0
  9
$CHAMFERB
 40
0.0
  9
$SKPOLY
 70
0
  9
$TDCREATE
 40
2460887.510104167
  9
$TDUPDATE
 40
2460887.510104167
  9
$TDINDWG
 40
0.0
  9
$TDUSRTIMER
 40
0.0
  9
$USRTIMER
 70
1
  9
$ANGBASE
 50
0.0
  9
$ANGDIR
 70
0
  9
$PDMODE
 70
0
  9
$PDSIZE
 40
0.0
  9
$PLINEWID
 40
0.0
  9
$SPLFRAME
 70
0
  9
$SPLINETYPE
 70
6
  9
$SPLINESEGS
 70
8
  9
$HANDSEED
  5
10D
  9
$SURFTAB1
 70
6
  9
$SURFTAB2
 70
6
  9
$SURFTYPE
 70
6
  9
$SURFU
 70
6
  9
$SURFV
 70
6
  9
$UCSNAME
  2

  9
$UCSORG
 10
0.0
 20
0.0
 30
0.0
  9
$UCSXDIR
 10
1.0
 20
0.0
 30
0.0
  9
$UCSYDIR
 10
0.0
 20
1.0
 30
0.0
  9
$PUCSNAME
  2

  9
$PUCSORG
 10
0.0
 20
0.0
 30
0.0
  9
$PUCSXDIR
 10
1.0
 20
0.0
 30
0.0
  9
$PUCSYDIR
 10
0.0
 20
1.0
 30
0.0
  9
$USERI1
 70
0
  9
$USERI2
 70
0
  9
$USERI3
 70
0
  9
$USERI4
 70
0
  9
$USERI5
 70
0
  9
$USERR1
 40
0.0
  9
$USERR2
 40
0.0
  9
$USERR3
 40
0.0
  9
$USERR4
 40
0.0
  9
$USERR5
 40
0.0
  9
$WORLDVIEW
 70
1
  9
$SHADEDGE
 70
3
  9
$SHADEDIF
 70
70
  9
$TILEMODE
 70
1
  9
$MAXACTVP
 70
64
  9
$PLIMCHECK
 70
0
  9
$PEXTMIN
 10
1e+20
 20
1e+20
 30
1e+20
  9
$PEXTMAX
 10
-1e+20
 20
-1e+20
 30
-1e+20
  9
$PLIMMIN
 10
0.0
 20
0.0
  9
$PLIMMAX
 10
420.0
 20
297.0
  9
$UNITMODE
 70
0
  9
$VISRETAIN
 70
1
  9
$PLINEGEN
 70
0
  9
$PSLTSCALE
 70
1
  0
ENDSEC
  0
SECTION
  2
TABLES
  0
TABLE
  2
VPORT
 70
1
  0
VPORT
  5
23
  2
*Active
 70
0
 10
0.0
 20
0.0
 11
1.0
 21
1.0
 12
0.0
 22
0.0
 13
0.0
 23
0.0
 14
0.5
 24
0.5
 15
0.5
 25
0.5
 16
0.0
 26
0.0
 36
1.0
 17
0.0
 27
0.0
 37
0.0
 40
1000.0
 41
1.34
 42
50.0
 43
0.0
 44
0.0
 50
0.0
 51
0.0
 71
0
 72
1000
 73
1
 74
3
 75
0
 76
0
 77
0
 78
0
  0
ENDTAB
  0
TABLE
  2
LTYPE
 70
3
  0
LTYPE
  5
24
  2
ByBlock
 70
0
  3

 72
65
 73
0
 40
0.0
  0
LTYPE
  5
25
  2
ByLayer
 70
0
  3

 72
65
 73
0
 40
0.0
  0
LTYPE
  5
26
  2
Continuous
 70
0
  3

 72
65
 73
0
 40
0.0
  0
ENDTAB
  0
TABLE
  2
LAYER
 70
2
  0
LAYER
  5
27
  2
0
 70
0
 62
7
  6
Continuous
  0
LAYER
  5
28
  2
Defpoints
 70
0
 62
7
  6
Continuous
  0
ENDTAB
  0
TABLE
  2
STYLE
 70
1
  0
STYLE
  5
29
  2
Standard
 70
0
 40
0.0
 41
1.0
 50
0.0
 71
0
 42
2.5
  3
txt
  4

  0
ENDTAB
  0
TABLE
  2
VIEW
 70
0
  0
ENDTAB
  0
TABLE
  2
UCS
 70
0
  0
ENDTAB
  0
TABLE
  2
APPID
 70
3
  0
APPID
  5
2A
  2
ACAD
 70
0
  0
APPID
  5
10B
  2
HATCHBACKGROUNDCOLOR
 70
0
  0
APPID
  5
10C
  2
EZDXF
 70
0
  0
ENDTAB
  0
TABLE
  2
DIMSTYLE
 70
1
  0
DIMSTYLE
105
2B
  2
Standard
 70
0
  3

  4

  5

  6

  7

 40
1.0
 41
2.5
 42
0.625
 43
3.75
 44
1.25
 45
0.0
 46
0.0
 47
0.0
 48
0.0
140
2.5
141
2.5
142
0.0
143
0.03937007874
144
1.0
145
0.0
146
1.0
147
0.625
 71
0
 72
0
 73
0
 74
0
 75
0
 76
0
 77
1
 78
8
170
0
171
3
172
1
173
0
174
0
175
0
176
0
177
0
178
0
  0
ENDTAB
  0
ENDSEC
  0
SECTION
  2
BLOCKS
  0
BLOCK
  5
18
  8
0
  2
$Model_Space
 70
0
 10
0.0
 20
0.0
 30
0.0
  3
$Model_Space
  1

1001
EZDXF
1000
CREATED_BY_EZDXF
1000
1.4.2 @ 2025-07-30T15:14:33.044002+00:00
1000
WRITTEN_BY_EZDXF
1000
1.4.2 @ 2025-07-30T15:14:33.044002+00:00
  0
ENDBLK
  5
19
  8
0
  0
BLOCK
  5
1C
  8
0
  2
$Paper_Space
 70
0
 10
0.0
 20
0.0
 30
0.0
  3
$Paper_Space
  1

  0
ENDBLK
  5
1D
  8
0
  0
ENDSEC
  0
SECTION
  2
ENTITIES
  0
LINE
  5
2D
  8
0
 10
2.13341
 20
0.444309
 30
0.0
 11
1.406701
 21
0.542418
 31
0.0
  0
LINE
  5
2E
  8
0
 10
2.13341
 20
0.444309
 30
0.0
 11
1.406701
 21
0.542418
 31
0.0
  0
LINE
  5
2F
  8
0
 10
3.167636
 20
0.455154
 30
0.0
 11
3.918734
 21
0.478925
 31
0.0
  0
LINE
  5
30
  8
0
 10
4.9379
 20
0.511179
 30
0.0
 11
5.723973
 21
0.536057
 31
0.0
  0
LINE
  5
31
  8
0
 10
6.736309
 20
0.568096
 30
0.0
 11
7.538584
 21
0.575898
 31
0.0
  0
LINE
  5
32
  8
0
 10
8.551993
 20
0.551597
 30
0.0
 11
9.358688
 21
0.532252
 31
0.0
  0
LINE
  5
33
  8
0
 10
10.372409
 20
0.507943
 30
0.0
 11
11.177738
 21
0.488632
 31
0.0
  0
LINE
  5
34
  8
0
 10
12.188331
 20
0.464398
 30
0.0
 11
12.97713
 21
0.445482
 31
0.0
  0
LINE
  5
35
  8
0
 10
13.978044
 20
0.610187
 30
0.0
 11
14.537585
 21
1.092897
 31
0.0
  0
LINE
  5
36
  8
0
 10
14.728984
 20
2.097549
 30
0.0
 11
14.730986
 21
2.828994
 31
0.0
  0
LINE
  5
37
  8
0
 10
14.695243
 20
3.843161
 30
0.0
 11
14.667736
 21
4.623629
 31
0.0
  0
LINE
  5
38
  8
0
 10
14.631838
 20
5.642194
 30
0.0
 11
14.626129
 21
6.43332
 31
0.0
  0
LINE
  5
39
  8
0
 10
14.626141
 20
7.442753
 30
0.0
 11
14.62615
 21
8.25107
 31
0.0
  0
LINE
  5
3A
  8
0
 10
14.626161
 20
9.266062
 30
0.0
 11
14.62617
 21
10.07308
 31
0.0
  0
LINE
  5
3B
  8
0
 10
14.626181
 20
11.085484
 30
0.0
 11
14.62619
 21
11.884233
 31
0.0
  0
LINE
  5
3C
  8
0
 10
14.626201
 20
12.899564
 30
0.0
 11
14.62621
 21
13.684461
 31
0.0
  0
LINE
  5
3D
  8
0
 10
14.561356
 20
14.637554
 30
0.0
 11
13.818694
 21
14.636481
 31
0.0
  0
LINE
  5
3E
  8
0
 10
12.780676
 20
14.634982
 30
0.0
 11
12.040248
 21
14.633912
 31
0.0
  0
LINE
  5
3F
  8
0
 10
11.021796
 20
14.632441
 30
0.0
 11
10.238214
 21
14.631309
 31
0.0
  0
LINE
  5
40
  8
0
 10
9.221701
 20
14.629841
 30
0.0
 11
8.424667
 21
14.62869
 31
0.0
  0
LINE
  5
41
  8
0
 10
7.412416
 20
14.627227
 30
0.0
 11
6.60515
 21
14.626061
 31
0.0
  0
LINE
  5
42
  8
0
 10
5.590456
 20
14.637334
 30
0.0
 11
4.782743
 21
14.665418
 31
0.0
  0
LINE
  5
43
  8
0
 10
3.773612
 20
14.700504
 30
0.0
 11
2.981601
 21
14.728042
 31
0.0
  0
LINE
  5
44
  8
0
 10
1.96433
 20
14.733524
 30
0.0
 11
1.202078
 21
14.584139
 31
0.0
  0
LINE
  5
45
  8
0
 10
0.563606
 20
13.85034
 30
0.0
 11
0.452762
 21
13.127011
 31
0.0
  0
LINE
  5
46
  8
0
 10
0.452876
 20
12.095818
 30
0.0
 11
0.476068
 21
11.338391
 31
0.0
  0
LINE
  5
47
  8
0
 10
0.507263
 20
10.319605
 30
0.0
 11
0.531366
 21
9.532416
 31
0.0
  0
LINE
  5
48
  8
0
 10
0.562332
 20
8.521126
 30
0.0
 11
0.579701
 21
7.717172
 31
0.0
  0
LINE
  5
49
  8
0
 10
0.554148
 20
6.703402
 30
0.0
 11
0.533816
 21
5.896752
 31
0.0
  0
LINE
  5
4A
  8
0
 10
0.508274
 20
4.883404
 30
0.0
 11
0.488018
 21
4.079778
 31
0.0
  0
LINE
  5
4B
  8
0
 10
0.462519
 20
3.068138
 30
0.0
 11
0.442666
 21
2.280492
 31
0.0
  0
LINE
  5
4C
  8
0
 10
2.592849
 20
1.4287
 30
0.0
 11
2.592849
 21
1.513
 31
0.0
  0
LINE
  5
4D
  8
0
 10
2.592849
 20
1.4287
 30
0.0
 11
2.592849
 21
1.513
 31
0.0
  0
LINE
  5
4E
  8
0
 10
2.592849
 20
2.47
 30
0.0
 11
2.592849
 21
2.47094
 31
0.0
  0
LINE
  5
4F
  8
0
 10
2.592849
 20
2.47094
 30
0.0
 11
2.592849
 21
2.564659
 31
0.0
  0
LINE
  5
50
  8
0
 10
2.592849
 20
2.564659
 30
0.0
 11
2.592849
 21
3.31299
 31
0.0
  0
LINE
  5
51
  8
0
 10
2.592849
 20
4.269919
 30
0.0
 11
2.592849
 21
4.270649
 31
0.0
  0
LINE
  5
52
  8
0
 10
2.592849
 20
4.270649
 30
0.0
 11
2.592849
 21
4.302027
 31
0.0
  0
LINE
  5
53
  8
0
 10
2.592849
 20
4.302027
 30
0.0
 11
2.592849
 21
4.854432
 31
0.0
  0
LINE
  5
54
  8
0
 10
2.592849
 20
4.854432
 30
0.0
 11
2.592849
 21
5.113
 31
0.0
  0
LINE
  5
55
  8
0
 10
2.592849
 20
6.070017
 30
0.0
 11
2.592849
 21
6.070844
 31
0.0
  0
LINE
  5
56
  8
0
 10
2.592849
 20
6.070844
 30
0.0
 11
2.592849
 21
6.732116
 31
0.0
  0
LINE
  5
57
  8
0
 10
2.592849
 20
6.732116
 30
0.0
 11
2.592849
 21
6.913
 31
0.0
  0
LINE
  5
58
  8
0
 10
2.592849
 20
7.870007
 30
0.0
 11
2.592849
 21
7.870859
 31
0.0
  0
LINE
  5
59
  8
0
 10
2.592849
 20
7.870859
 30
0.0
 11
2.592849
 21
8.551752
 31
0.0
  0
LINE
  5
5A
  8
0
 10
2.592849
 20
8.551752
 30
0.0
 11
2.592849
 21
8.713
 31
0.0
  0
LINE
  5
5B
  8
0
 10
2.592849
 20
9.67
 30
0.0
 11
2.592849
 21
9.67094
 31
0.0
  0
LINE
  5
5C
  8
0
 10
2.592849
 20
9.67094
 30
0.0
 11
2.592849
 21
9.761
 31
0.0
  0
LINE
  5
5D
  8
0
 10
2.592849
 20
9.761
 30
0.0
 11
2.592849
 21
10.513
 31
0.0
  0
LINE
  5
5E
  8
0
 10
2.592849
 20
11.469984
 30
0.0
 11
2.592849
 21
11.470875
 31
0.0
  0
LINE
  5
5F
  8
0
 10
2.592849
 20
11.470875
 30
0.0
 11
2.592849
 21
12.18376
 31
0.0
  0
LINE
  5
60
  8
0
 10
2.592849
 20
12.18376
 30
0.0
 11
2.592849
 21
12.313
 31
0.0
  0
LINE
  5
61
  8
0
 10
2.592849
 20
13.27
 30
0.0
 11
2.592849
 21
13.27094
 31
0.0
  0
LINE
  5
62
  8
0
 10
2.592849
 20
13.27094
 30
0.0
 11
2.592849
 21
13.361
 31
0.0
  0
LINE
  5
63
  8
0
 10
2.592849
 20
13.361
 30
0.0
 11
2.592849
 21
14.113
 31
0.0
  0
LINE
  5
64
  8
0
 10
5.092849
 20
1.35166
 30
0.0
 11
5.092849
 21
1.426
 31
0.0
  0
LINE
  5
65
  8
0
 10
5.092849
 20
1.35166
 30
0.0
 11
5.092849
 21
1.426
 31
0.0
  0
LINE
  5
66
  8
0
 10
5.092849
 20
2.384
 30
0.0
 11
5.092849
 21
3.136
 31
0.0
  0
LINE
  5
67
  8
0
 10
5.092849
 20
3.136
 30
0.0
 11
5.092849
 21
3.226
 31
0.0
  0
LINE
  5
68
  8
0
 10
5.092849
 20
4.184
 30
0.0
 11
5.092849
 21
4.4002
 31
0.0
  0
LINE
  5
69
  8
0
 10
5.092849
 20
4.4002
 30
0.0
 11
5.092849
 21
4.4902
 31
0.0
  0
LINE
  5
6A
  8
0
 10
5.092849
 20
4.4902
 30
0.0
 11
5.092849
 21
5.026
 31
0.0
  0
LINE
  5
6B
  8
0
 10
5.092849
 20
5.983953
 30
0.0
 11
5.092849
 21
6.532644
 31
0.0
  0
LINE
  5
6C
  8
0
 10
5.092849
 20
6.532644
 30
0.0
 11
5.092849
 21
6.826
 31
0.0
  0
LINE
  5
6D
  8
0
 10
5.092849
 20
7.784
 30
0.0
 11
5.092849
 21
8.442824
 31
0.0
  0
LINE
  5
6E
  8
0
 10
5.092849
 20
8.442824
 30
0.0
 11
5.092849
 21
8.625997
 31
0.0
  0
LINE
  5
6F
  8
0
 10
5.092849
 20
9.584
 30
0.0
 11
5.092849
 21
10.336
 31
0.0
  0
LINE
  5
70
  8
0
 10
5.092849
 20
10.336
 30
0.0
 11
5.092849
 21
10.426
 31
0.0
  0
LINE
  5
71
  8
0
 10
5.092849
 20
11.383953
 30
0.0
 11
5.092849
 21
12.08537
 31
0.0
  0
LINE
  5
72
  8
0
 10
5.092849
 20
12.08537
 30
0.0
 11
5.092849
 21
12.226
 31
0.0
  0
LINE
  5
73
  8
0
 10
5.092849
 20
13.184
 30
0.0
 11
5.092849
 21
13.936
 31
0.0
  0
LINE
  5
74
  8
0
 10
5.092849
 20
13.936
 30
0.0
 11
5.092849
 21
14.026
 31
0.0
  0
LINE
  5
75
  8
0
 10
7.592849
 20
1.32888
 30
0.0
 11
7.592849
 21
1.39806
 31
0.0
  0
LINE
  5
76
  8
0
 10
7.592849
 20
1.32888
 30
0.0
 11
7.592849
 21
1.39806
 31
0.0
  0
LINE
  5
77
  8
0
 10
7.592849
 20
1.39806
 30
0.0
 11
7.592849
 21
1.399
 31
0.0
  0
LINE
  5
78
  8
0
 10
7.592849
 20
2.356
 30
0.0
 11
7.592849
 21
3.10894
 31
0.0
  0
LINE
  5
79
  8
0
 10
7.592849
 20
3.10894
 30
0.0
 11
7.592849
 21
3.199
 31
0.0
  0
LINE
  5
7A
  8
0
 10
7.592849
 20
4.156
 30
0.0
 11
7.592849
 21
4.24606
 31
0.0
  0
LINE
  5
7B
  8
0
 10
7.592849
 20
4.24606
 30
0.0
 11
7.592849
 21
4.999
 31
0.0
  0
LINE
  5
7C
  8
0
 10
7.592849
 20
5.955824
 30
0.0
 11
7.592849
 21
6.474118
 31
0.0
  0
LINE
  5
7D
  8
0
 10
7.592849
 20
6.474118
 30
0.0
 11
7.592849
 21
6.799
 31
0.0
  0
LINE
  5
7E
  8
0
 10
7.592849
 20
7.756
 30
0.0
 11
7.592849
 21
8.50894
 31
0.0
  0
LINE
  5
7F
  8
0
 10
7.592849
 20
8.50894
 30
0.0
 11
7.592849
 21
8.599
 31
0.0
  0
LINE
  5
80
  8
0
 10
7.592849
 20
9.556
 30
0.0
 11
7.592849
 21
9.64606
 31
0.0
  0
LINE
  5
81
  8
0
 10
7.592849
 20
9.64606
 30
0.0
 11
7.592849
 21
10.399
 31
0.0
  0
LINE
  5
82
  8
0
 10
7.592849
 20
11.356
 30
0.0
 11
7.592849
 21
12.10894
 31
0.0
  0
LINE
  5
83
  8
0
 10
7.592849
 20
12.10894
 30
0.0
 11
7.592849
 21
12.199
 31
0.0
  0
LINE
  5
84
  8
0
 10
7.592849
 20
13.156
 30
0.0
 11
7.592849
 21
13.90894
 31
0.0
  0
LINE
  5
85
  8
0
 10
7.592849
 20
13.90894
 30
0.0
 11
7.592849
 21
13.999
 31
0.0
  0
LINE
  5
86
  8
0
 10
10.092849
 20
1.32904
 30
0.0
 11
10.092849
 21
1.402
 31
0.0
  0
LINE
  5
87
  8
0
 10
10.092849
 20
1.32904
 30
0.0
 11
10.092849
 21
1.402
 31
0.0
  0
LINE
  5
88
  8
0
 10
10.092849
 20
2.36
 30
0.0
 11
10.092849
 21
3.112
 31
0.0
  0
LINE
  5
89
  8
0
 10
10.092849
 20
3.112
 30
0.0
 11
10.092849
 21
3.202
 31
0.0
  0
LINE
  5
8A
  8
0
 10
10.092849
 20
4.160048
 30
0.0
 11
10.092849
 21
4.706079
 31
0.0
  0
LINE
  5
8B
  8
0
 10
10.092849
 20
4.706079
 30
0.0
 11
10.092849
 21
5.002
 31
0.0
  0
LINE
  5
8C
  8
0
 10
10.092849
 20
5.96
 30
0.0
 11
10.092849
 21
6.712
 31
0.0
  0
LINE
  5
8D
  8
0
 10
10.092849
 20
6.712
 30
0.0
 11
10.092849
 21
6.802
 31
0.0
  0
LINE
  5
8E
  8
0
 10
10.092849
 20
7.759996
 30
0.0
 11
10.092849
 21
8.49305
 31
0.0
  0
LINE
  5
8F
  8
0
 10
10.092849
 20
8.49305
 30
0.0
 11
10.092849
 21
8.602
 31
0.0
  0
LINE
  5
90
  8
0
 10
10.092849
 20
9.56
 30
0.0
 11
10.092849
 21
9.65
 31
0.0
  0
LINE
  5
91
  8
0
 10
10.092849
 20
9.65
 30
0.0
 11
10.092849
 21
10.402
 31
0.0
  0
LINE
  5
92
  8
0
 10
10.092849
 20
11.36
 30
0.0
 11
10.092849
 21
12.112
 31
0.0
  0
LINE
  5
93
  8
0
 10
10.092849
 20
12.112
 30
0.0
 11
10.092849
 21
12.202
 31
0.0
  0
LINE
  5
94
  8
0
 10
10.092849
 20
13.16
 30
0.0
 11
10.092849
 21
13.25
 31
0.0
  0
LINE
  5
95
  8
0
 10
10.092849
 20
13.25
 30
0.0
 11
10.092849
 21
14.002
 31
0.0
  0
LINE
  5
96
  8
0
 10
12.592849
 20
1.3292
 30
0.0
 11
12.592849
 21
1.405997
 31
0.0
  0
LINE
  5
97
  8
0
 10
12.592849
 20
1.3292
 30
0.0
 11
12.592849
 21
1.405997
 31
0.0
  0
LINE
  5
98
  8
0
 10
12.592849
 20
2.364
 30
0.0
 11
12.592849
 21
3.116
 31
0.0
  0
LINE
  5
99
  8
0
 10
12.592849
 20
3.116
 30
0.0
 11
12.592849
 21
3.206
 31
0.0
  0
LINE
  5
9A
  8
0
 10
12.592849
 20
4.163961
 30
0.0
 11
12.592849
 21
4.375
 31
0.0
  0
LINE
  5
9B
  8
0
 10
12.592849
 20
4.375
 30
0.0
 11
12.592849
 21
4.489
 31
0.0
  0
LINE
  5
9C
  8
0
 10
12.592849
 20
4.489
 30
0.0
 11
12.592849
 21
5.006
 31
0.0
  0
LINE
  5
9D
  8
0
 10
12.592849
 20
5.963864
 30
0.0
 11
12.592849
 21
6.491136
 31
0.0
  0
LINE
  5
9E
  8
0
 10
12.592849
 20
6.491136
 30
0.0
 11
12.592849
 21
6.806
 31
0.0
  0
LINE
  5
9F
  8
0
 10
12.592849
 20
7.76396
 30
0.0
 11
12.592849
 21
8.283246
 31
0.0
  0
LINE
  5
A0
  8
0
 10
12.592849
 20
8.283246
 30
0.0
 11
12.592849
 21
8.606
 31
0.0
  0
LINE
  5
A1
  8
0
 10
12.592849
 20
9.564
 30
0.0
 11
12.592849
 21
9.654
 31
0.0
  0
LINE
  5
A2
  8
0
 10
12.592849
 20
9.654
 30
0.0
 11
12.592849
 21
10.406
 31
0.0
  0
LINE
  5
A3
  8
0
 10
12.592849
 20
11.364
 30
0.0
 11
12.592849
 21
12.116
 31
0.0
  0
LINE
  5
A4
  8
0
 10
12.592849
 20
12.116
 30
0.0
 11
12.592849
 21
12.206
 31
0.0
  0
LINE
  5
A5
  8
0
 10
12.592849
 20
13.164
 30
0.0
 11
12.592849
 21
13.916
 31
0.0
  0
LINE
  5
A6
  8
0
 10
12.592849
 20
13.916
 30
0.0
 11
12.592849
 21
14.006
 31
0.0
  0
LINE
  5
A7
  8
0
 10
1.079
 20
2.592238
 30
0.0
 11
1.07994
 21
2.592238
 31
0.0
  0
LINE
  5
A8
  8
0
 10
1.079
 20
2.592238
 30
0.0
 11
1.07994
 21
2.592238
 31
0.0
  0
LINE
  5
A9
  8
0
 10
1.07994
 20
2.592238
 30
0.0
 11
1.17
 21
2.592238
 31
0.0
  0
LINE
  5
AA
  8
0
 10
1.17
 20
2.592238
 30
0.0
 11
1.922
 21
2.592238
 31
0.0
  0
LINE
  5
AB
  8
0
 10
2.879
 20
2.592238
 30
0.0
 11
2.87994
 21
2.592238
 31
0.0
  0
LINE
  5
AC
  8
0
 10
2.87994
 20
2.592238
 30
0.0
 11
2.97
 21
2.592238
 31
0.0
  0
LINE
  5
AD
  8
0
 10
2.97
 20
2.592238
 30
0.0
 11
3.722
 21
2.592238
 31
0.0
  0
LINE
  5
AE
  8
0
 10
4.679
 20
2.592238
 30
0.0
 11
4.67994
 21
2.592238
 31
0.0
  0
LINE
  5
AF
  8
0
 10
4.67994
 20
2.592238
 30
0.0
 11
4.77
 21
2.592238
 31
0.0
  0
LINE
  5
B0
  8
0
 10
4.77
 20
2.592238
 30
0.0
 11
5.522
 21
2.592238
 31
0.0
  0
LINE
  5
B1
  8
0
 10
6.478995
 20
2.592238
 30
0.0
 11
6.479887
 21
2.592238
 31
0.0
  0
LINE
  5
B2
  8
0
 10
6.479887
 20
2.592238
 30
0.0
 11
7.193711
 21
2.592238
 31
0.0
  0
LINE
  5
B3
  8
0
 10
7.193711
 20
2.592238
 30
0.0
 11
7.322
 21
2.592238
 31
0.0
  0
LINE
  5
B4
  8
0
 10
8.279
 20
2.592238
 30
0.0
 11
8.27994
 21
2.592238
 31
0.0
  0
LINE
  5
B5
  8
0
 10
8.27994
 20
2.592238
 30
0.0
 11
8.37
 21
2.592238
 31
0.0
  0
LINE
  5
B6
  8
0
 10
8.37
 20
2.592238
 30
0.0
 11
9.122
 21
2.592238
 31
0.0
  0
LINE
  5
B7
  8
0
 10
10.079
 20
2.592238
 30
0.0
 11
10.07994
 21
2.592238
 31
0.0
  0
LINE
  5
B8
  8
0
 10
10.07994
 20
2.592238
 30
0.0
 11
10.17
 21
2.592238
 31
0.0
  0
LINE
  5
B9
  8
0
 10
10.17
 20
2.592238
 30
0.0
 11
10.922
 21
2.592238
 31
0.0
  0
LINE
  5
BA
  8
0
 10
11.878601
 20
2.592238
 30
0.0
 11
11.884962
 21
2.592238
 31
0.0
  0
LINE
  5
BB
  8
0
 10
11.884962
 20
2.592238
 30
0.0
 11
12.722
 21
2.592238
 31
0.0
  0
LINE
  5
BC
  8
0
 10
13.678982
 20
2.592238
 30
0.0
 11
13.679802
 21
2.592238
 31
0.0
  0
LINE
  5
BD
  8
0
 10
13.679802
 20
2.592238
 30
0.0
 11
13.76328
 21
2.592238
 31
0.0
  0
LINE
  5
BE
  8
0
 10
1.141961
 20
5.092238
 30
0.0
 11
1.786922
 21
5.092238
 31
0.0
  0
LINE
  5
BF
  8
0
 10
1.141961
 20
5.092238
 30
0.0
 11
1.786922
 21
5.092238
 31
0.0
  0
LINE
  5
C0
  8
0
 10
1.786922
 20
5.092238
 30
0.0
 11
1.985
 21
5.092238
 31
0.0
  0
LINE
  5
C1
  8
0
 10
2.941946
 20
5.092238
 30
0.0
 11
3.208323
 21
5.092238
 31
0.0
  0
LINE
  5
C2
  8
0
 10
3.208323
 20
5.092238
 30
0.0
 11
3.30184
 21
5.092238
 31
0.0
  0
LINE
  5
C3
  8
0
 10
3.30184
 20
5.092238
 30
0.0
 11
3.785
 21
5.092238
 31
0.0
  0
LINE
  5
C4
  8
0
 10
4.742
 20
5.092238
 30
0.0
 11
5.49494
 21
5.092238
 31
0.0
  0
LINE
  5
C5
  8
0
 10
5.49494
 20
5.092238
 30
0.0
 11
5.585
 21
5.092238
 31
0.0
  0
LINE
  5
C6
  8
0
 10
6.54199
 20
5.092238
 30
0.0
 11
7.259261
 21
5.092238
 31
0.0
  0
LINE
  5
C7
  8
0
 10
7.259261
 20
5.092238
 30
0.0
 11
7.385
 21
5.092238
 31
0.0
  0
LINE
  5
C8
  8
0
 10
8.341824
 20
5.092238
 30
0.0
 11
8.577412
 21
5.092238
 31
0.0
  0
LINE
  5
C9
  8
0
 10
8.577412
 20
5.092238
 30
0.0
 11
9.185
 21
5.092238
 31
0.0
  0
LINE
  5
CA
  8
0
 10
10.142
 20
5.092238
 30
0.0
 11
10.89494
 21
5.092238
 31
0.0
  0
LINE
  5
CB
  8
0
 10
10.89494
 20
5.092238
 30
0.0
 11
10.985
 21
5.092238
 31
0.0
  0
LINE
  5
CC
  8
0
 10
11.942
 20
5.092238
 30
0.0
 11
12.03206
 21
5.092238
 31
0.0
  0
LINE
  5
CD
  8
0
 10
12.03206
 20
5.092238
 30
0.0
 11
12.785
 21
5.092238
 31
0.0
  0
LINE
  5
CE
  8
0
 10
13.742
 20
5.092238
 30
0.0
 11
13.74294
 21
5.092238
 31
0.0
  0
LINE
  5
CF
  8
0
 10
13.74294
 20
5.092238
 30
0.0
 11
13.81722
 21
5.092238
 31
0.0
  0
LINE
  5
D0
  8
0
 10
1.204983
 20
7.592238
 30
0.0
 11
1.205814
 21
7.592238
 31
0.0
  0
LINE
  5
D1
  8
0
 10
1.204983
 20
7.592238
 30
0.0
 11
1.205814
 21
7.592238
 31
0.0
  0
LINE
  5
D2
  8
0
 10
1.205814
 20
7.592238
 30
0.0
 11
1.87022
 21
7.592238
 31
0.0
  0
LINE
  5
D3
  8
0
 10
1.87022
 20
7.592238
 30
0.0
 11
2.048
 21
7.592238
 31
0.0
  0
LINE
  5
D4
  8
0
 10
3.00498
 20
7.592238
 30
0.0
 11
3.005912
 21
7.592238
 31
0.0
  0
LINE
  5
D5
  8
0
 10
3.005912
 20
7.592238
 30
0.0
 11
3.213741
 21
7.592238
 31
0.0
  0
LINE
  5
D6
  8
0
 10
3.213741
 20
7.592238
 30
0.0
 11
3.30562
 21
7.592238
 31
0.0
  0
LINE
  5
D7
  8
0
 10
3.30562
 20
7.592238
 30
0.0
 11
3.848
 21
7.592238
 31
0.0
  0
LINE
  5
D8
  8
0
 10
4.805
 20
7.592238
 30
0.0
 11
4.80594
 21
7.592238
 31
0.0
  0
LINE
  5
D9
  8
0
 10
4.80594
 20
7.592238
 30
0.0
 11
4.896
 21
7.592238
 31
0.0
  0
LINE
  5
DA
  8
0
 10
4.896
 20
7.592238
 30
0.0
 11
5.648
 21
7.592238
 31
0.0
  0
LINE
  5
DB
  8
0
 10
6.604994
 20
7.592238
 30
0.0
 11
6.605868
 21
7.592238
 31
0.0
  0
LINE
  5
DC
  8
0
 10
6.605868
 20
7.592238
 30
0.0
 11
7.305239
 21
7.592238
 31
0.0
  0
LINE
  5
DD
  8
0
 10
7.305239
 20
7.592238
 30
0.0
 11
7.448
 21
7.592238
 31
0.0
  0
LINE
  5
DE
  8
0
 10
8.404931
 20
7.592238
 30
0.0
 11
8.839061
 21
7.592238
 31
0.0
  0
LINE
  5
DF
  8
0
 10
8.839061
 20
7.592238
 30
0.0
 11
9.248
 21
7.592238
 31
0.0
  0
LINE
  5
E0
  8
0
 10
10.205
 20
7.592238
 30
0.0
 11
10.20594
 21
7.592238
 31
0.0
  0
LINE
  5
E1
  8
0
 10
10.20594
 20
7.592238
 30
0.0
 11
10.296
 21
7.592238
 31
0.0
  0
LINE
  5
E2
  8
0
 10
10.296
 20
7.592238
 30
0.0
 11
11.048
 21
7.592238
 31
0.0
  0
LINE
  5
E3
  8
0
 10
12.005
 20
7.592238
 30
0.0
 11
12.00594
 21
7.592238
 31
0.0
  0
LINE
  5
E4
  8
0
 10
12.00594
 20
7.592238
 30
0.0
 11
12.096
 21
7.592238
 31
0.0
  0
LINE
  5
E5
  8
0
 10
12.096
 20
7.592238
 30
0.0
 11
12.848
 21
7.592238
 31
0.0
  0
LINE
  5
E6
  8
0
 10
13.804972
 20
7.592238
 30
0.0
 11
13.805832
 21
7.592238
 31
0.0
  0
LINE
  5
E7
  8
0
 10
13.805832
 20
7.592238
 30
0.0
 11
13.87494
 21
7.592238
 31
0.0
  0
LINE
  5
E8
  8
0
 10
1.142961
 20
10.092238
 30
0.0
 11
1.787117
 21
10.092238
 31
0.0
  0
LINE
  5
E9
  8
0
 10
1.142961
 20
10.092238
 30
0.0
 11
1.787117
 21
10.092238
 31
0.0
  0
LINE
  5
EA
  8
0
 10
1.787117
 20
10.092238
 30
0.0
 11
1.985
 21
10.092238
 31
0.0
  0
LINE
  5
EB
  8
0
 10
2.942971
 20
10.092238
 30
0.0
 11
3.208445
 21
10.092238
 31
0.0
  0
LINE
  5
EC
  8
0
 10
3.208445
 20
10.092238
 30
0.0
 11
3.30184
 21
10.092238
 31
0.0
  0
LINE
  5
ED
  8
0
 10
3.30184
 20
10.092238
 30
0.0
 11
3.785
 21
10.092238
 31
0.0
  0
LINE
  5
EE
  8
0
 10
4.743
 20
10.092238
 30
0.0
 11
4.833
 21
10.092238
 31
0.0
  0
LINE
  5
EF
  8
0
 10
4.833
 20
10.092238
 30
0.0
 11
5.585
 21
10.092238
 31
0.0
  0
LINE
  5
F0
  8
0
 10
6.542953
 20
10.092238
 30
0.0
 11
7.259183
 21
10.092238
 31
0.0
  0
LINE
  5
F1
  8
0
 10
7.259183
 20
10.092238
 30
0.0
 11
7.385
 21
10.092238
 31
0.0
  0
LINE
  5
F2
  8
0
 10
8.34307
 20
10.092238
 30
0.0
 11
8.58493
 21
10.092238
 31
0.0
  0
LINE
  5
F3
  8
0
 10
8.58493
 20
10.092238
 30
0.0
 11
9.053609
 21
10.092238
 31
0.0
  0
LINE
  5
F4
  8
0
 10
9.053609
 20
10.092238
 30
0.0
 11
9.185
 21
10.092238
 31
0.0
  0
LINE
  5
F5
  8
0
 10
10.143
 20
10.092238
 30
0.0
 11
10.895
 21
10.092238
 31
0.0
  0
LINE
  5
F6
  8
0
 10
10.895
 20
10.092238
 30
0.0
 11
10.985
 21
10.092238
 31
0.0
  0
LINE
  5
F7
  8
0
 10
11.943
 20
10.092238
 30
0.0
 11
12.033
 21
10.092238
 31
0.0
  0
LINE
  5
F8
  8
0
 10
12.033
 20
10.092238
 30
0.0
 11
12.785
 21
10.092238
 31
0.0
  0
LINE
  5
F9
  8
0
 10
13.742953
 20
10.092238
 30
0.0
 11
13.81572
 21
10.092238
 31
0.0
  0
LINE
  5
FA
  8
0
 10
1.067
 20
12.592238
 30
0.0
 11
1.157
 21
12.592238
 31
0.0
  0
LINE
  5
FB
  8
0
 10
1.067
 20
12.592238
 30
0.0
 11
1.157
 21
12.592238
 31
0.0
  0
LINE
  5
FC
  8
0
 10
1.157
 20
12.592238
 30
0.0
 11
1.909
 21
12.592238
 31
0.0
  0
LINE
  5
FD
  8
0
 10
2.867
 20
12.592238
 30
0.0
 11
3.619
 21
12.592238
 31
0.0
  0
LINE
  5
FE
  8
0
 10
3.619
 20
12.592238
 30
0.0
 11
3.709
 21
12.592238
 31
0.0
  0
LINE
  5
FF
  8
0
 10
4.667
 20
12.592238
 30
0.0
 11
5.419
 21
12.592238
 31
0.0
  0
LINE
  5
100
  8
0
 10
5.419
 20
12.592238
 30
0.0
 11
5.509
 21
12.592238
 31
0.0
  0
LINE
  5
101
  8
0
 10
6.466978
 20
12.592238
 30
0.0
 11
7.179387
 21
12.592238
 31
0.0
  0
LINE
  5
102
  8
0
 10
7.179387
 20
12.592238
 30
0.0
 11
7.309
 21
12.592238
 31
0.0
  0
LINE
  5
103
  8
0
 10
8.267
 20
12.592238
 30
0.0
 11
8.357
 21
12.592238
 31
0.0
  0
LINE
  5
104
  8
0
 10
8.357
 20
12.592238
 30
0.0
 11
9.109
 21
12.592238
 31
0.0
  0
LINE
  5
105
  8
0
 10
10.067
 20
12.592238
 30
0.0
 11
10.157
 21
12.592238
 31
0.0
  0
LINE
  5
106
  8
0
 10
10.157
 20
12.592238
 30
0.0
 11
10.909
 21
12.592238
 31
0.0
  0
LINE
  5
107
  8
0
 10
11.866941
 20
12.592238
 30
0.0
 11
12.01827
 21
12.592238
 31
0.0
  0
LINE
  5
108
  8
0
 10
12.01827
 20
12.592238
 30
0.0
 11
12.60005
 21
12.592238
 31
0.0
  0
LINE
  5
109
  8
0
 10
12.60005
 20
12.592238
 30
0.0
 11
12.709
 21
12.592238
 31
0.0
  0
LINE
  5
10A
  8
0
 10
13.666971
 20
12.592238
 30
0.0
 11
13.74428
 21
12.592238
 31
0.0
  0
ENDSEC
  0
EOF
