  0
SECTION
  2
HEADER
  9
$ACADVER
  1
AC1009
  9
$DWGCODEPAGE
  3
ANSI_1252
  9
$INSBASE
 10
0.0
 20
0.0
 30
0.0
  9
$EXTMIN
 10
1e+20
 20
1e+20
 30
1e+20
  9
$EXTMAX
 10
-1e+20
 20
-1e+20
 30
-1e+20
  9
$LIMMIN
 10
0.0
 20
0.0
  9
$LIMMAX
 10
420.0
 20
297.0
  9
$ORTHOMODE
 70
0
  9
$REGENMODE
 70
1
  9
$FILLMODE
 70
1
  9
$DRAGMODE
 70
2
  9
$QTEXTMODE
 70
0
  9
$MIRRTEXT
 70
1
  9
$OSMODE
 70
20583
  9
$LTSCALE
 40
1.0
  9
$ATTMODE
 70
1
  9
$TEXTSIZE
 40
2.5
  9
$TRACEWID
 40
1.0
  9
$TEXTSTYLE
  7
Standard
  9
$CLAYER
  8
0
  9
$CELTYPE
  6
ByLayer
  9
$CECOLOR
 62
256
  9
$DIMSCALE
 40
1.0
  9
$DIMASZ
 40
2.5
  9
$DIMEXO
 40
0.625
  9
$DIMDLI
 40
3.75
  9
$DIMRND
 40
0.0
  9
$DIMDLE
 40
0.0
  9
$DIMEXE
 40
1.25
  9
$DIMTP
 40
0.0
  9
$DIMTM
 40
0.0
  9
$DIMTXT
 40
2.5
  9
$DIMCEN
 40
2.5
  9
$DIMTSZ
 40
0.0
  9
$DIMTOL
 70
0
  9
$DIMLIM
 70
0
  9
$DIMTIH
 70
0
  9
$DIMTOH
 70
0
  9
$DIMSE1
 70
0
  9
$DIMSE2
 70
0
  9
$DIMTAD
 70
1
  9
$DIMZIN
 70
8
  9
$DIMBLK
  1

  9
$DIMASO
 70
1
  9
$DIMSHO
 70
1
  9
$DIMPOST
  1

  9
$DIMAPOST
  1

  9
$DIMALT
 70
0
  9
$DIMALTD
 70
3
  9
$DIMALTF
 40
0.03937007874
  9
$DIMLFAC
 40
1.0
  9
$DIMTOFL
 70
1
  9
$DIMTVP
 40
0.0
  9
$DIMTIX
 70
0
  9
$DIMSOXD
 70
0
  9
$DIMSAH
 70
0
  9
$DIMBLK1
  1

  9
$DIMBLK2
  1

  9
$DIMSTYLE
  2
ISO-25
  9
$DIMCLRD
 70
0
  9
$DIMCLRE
 70
0
  9
$DIMCLRT
 70
0
  9
$DIMTFAC
 40
1.0
  9
$DIMGAP
 40
0.625
  9
$COORDS
 70
1
  9
$ATTDIA
 70
0
  9
$ATTREQ
 70
1
  9
$HANDLING
 70
1
  9
$LUNITS
 70
2
  9
$LUPREC
 70
4
  9
$SKETCHINC
 40
1.0
  9
$FILLETRAD
 40
10.0
  9
$AUNITS
 70
0
  9
$AUPREC
 70
2
  9
$MENU
  1
.
  9
$ELEVATION
 40
0.0
  9
$PELEVATION
 40
0.0
  9
$THICKNESS
 40
0.0
  9
$LIMCHECK
 70
0
  9
$CHAMFERA
 40
0.0
  9
$CHAMFERB
 40
0.0
  9
$SKPOLY
 70
0
  9
$TDCREATE
 40
2460887.5097916666
  9
$TDUPDATE
 40
2460887.5097916666
  9
$TDINDWG
 40
0.0
  9
$TDUSRTIMER
 40
0.0
  9
$USRTIMER
 70
1
  9
$ANGBASE
 50
0.0
  9
$ANGDIR
 70
0
  9
$PDMODE
 70
0
  9
$PDSIZE
 40
0.0
  9
$PLINEWID
 40
0.0
  9
$SPLFRAME
 70
0
  9
$SPLINETYPE
 70
6
  9
$SPLINESEGS
 70
8
  9
$HANDSEED
  5
16B
  9
$SURFTAB1
 70
6
  9
$SURFTAB2
 70
6
  9
$SURFTYPE
 70
6
  9
$SURFU
 70
6
  9
$SURFV
 70
6
  9
$UCSNAME
  2

  9
$UCSORG
 10
0.0
 20
0.0
 30
0.0
  9
$UCSXDIR
 10
1.0
 20
0.0
 30
0.0
  9
$UCSYDIR
 10
0.0
 20
1.0
 30
0.0
  9
$PUCSNAME
  2

  9
$PUCSORG
 10
0.0
 20
0.0
 30
0.0
  9
$PUCSXDIR
 10
1.0
 20
0.0
 30
0.0
  9
$PUCSYDIR
 10
0.0
 20
1.0
 30
0.0
  9
$USERI1
 70
0
  9
$USERI2
 70
0
  9
$USERI3
 70
0
  9
$USERI4
 70
0
  9
$USERI5
 70
0
  9
$USERR1
 40
0.0
  9
$USERR2
 40
0.0
  9
$USERR3
 40
0.0
  9
$USERR4
 40
0.0
  9
$USERR5
 40
0.0
  9
$WORLDVIEW
 70
1
  9
$SHADEDGE
 70
3
  9
$SHADEDIF
 70
70
  9
$TILEMODE
 70
1
  9
$MAXACTVP
 70
64
  9
$PLIMCHECK
 70
0
  9
$PEXTMIN
 10
1e+20
 20
1e+20
 30
1e+20
  9
$PEXTMAX
 10
-1e+20
 20
-1e+20
 30
-1e+20
  9
$PLIMMIN
 10
0.0
 20
0.0
  9
$PLIMMAX
 10
420.0
 20
297.0
  9
$UNITMODE
 70
0
  9
$VISRETAIN
 70
1
  9
$PLINEGEN
 70
0
  9
$PSLTSCALE
 70
1
  0
ENDSEC
  0
SECTION
  2
TABLES
  0
TABLE
  2
VPORT
 70
1
  0
VPORT
  5
23
  2
*Active
 70
0
 10
0.0
 20
0.0
 11
1.0
 21
1.0
 12
0.0
 22
0.0
 13
0.0
 23
0.0
 14
0.5
 24
0.5
 15
0.5
 25
0.5
 16
0.0
 26
0.0
 36
1.0
 17
0.0
 27
0.0
 37
0.0
 40
1000.0
 41
1.34
 42
50.0
 43
0.0
 44
0.0
 50
0.0
 51
0.0
 71
0
 72
1000
 73
1
 74
3
 75
0
 76
0
 77
0
 78
0
  0
ENDTAB
  0
TABLE
  2
LTYPE
 70
3
  0
LTYPE
  5
24
  2
ByBlock
 70
0
  3

 72
65
 73
0
 40
0.0
  0
LTYPE
  5
25
  2
ByLayer
 70
0
  3

 72
65
 73
0
 40
0.0
  0
LTYPE
  5
26
  2
Continuous
 70
0
  3

 72
65
 73
0
 40
0.0
  0
ENDTAB
  0
TABLE
  2
LAYER
 70
2
  0
LAYER
  5
27
  2
0
 70
0
 62
7
  6
Continuous
  0
LAYER
  5
28
  2
Defpoints
 70
0
 62
7
  6
Continuous
  0
ENDTAB
  0
TABLE
  2
STYLE
 70
1
  0
STYLE
  5
29
  2
Standard
 70
0
 40
0.0
 41
1.0
 50
0.0
 71
0
 42
2.5
  3
txt
  4

  0
ENDTAB
  0
TABLE
  2
VIEW
 70
0
  0
ENDTAB
  0
TABLE
  2
UCS
 70
0
  0
ENDTAB
  0
TABLE
  2
APPID
 70
3
  0
APPID
  5
2A
  2
ACAD
 70
0
  0
APPID
  5
169
  2
HATCHBACKGROUNDCOLOR
 70
0
  0
APPID
  5
16A
  2
EZDXF
 70
0
  0
ENDTAB
  0
TABLE
  2
DIMSTYLE
 70
1
  0
DIMSTYLE
105
2B
  2
Standard
 70
0
  3

  4

  5

  6

  7

 40
1.0
 41
2.5
 42
0.625
 43
3.75
 44
1.25
 45
0.0
 46
0.0
 47
0.0
 48
0.0
140
2.5
141
2.5
142
0.0
143
0.03937007874
144
1.0
145
0.0
146
1.0
147
0.625
 71
0
 72
0
 73
0
 74
0
 75
0
 76
0
 77
1
 78
8
170
0
171
3
172
1
173
0
174
0
175
0
176
0
177
0
178
0
  0
ENDTAB
  0
ENDSEC
  0
SECTION
  2
BLOCKS
  0
BLOCK
  5
18
  8
0
  2
$Model_Space
 70
0
 10
0.0
 20
0.0
 30
0.0
  3
$Model_Space
  1

1001
EZDXF
1000
CREATED_BY_EZDXF
1000
1.4.2 @ 2025-07-30T15:14:06.141342+00:00
1000
WRITTEN_BY_EZDXF
1000
1.4.2 @ 2025-07-30T15:14:06.156967+00:00
  0
ENDBLK
  5
19
  8
0
  0
BLOCK
  5
1C
  8
0
  2
$Paper_Space
 70
0
 10
0.0
 20
0.0
 30
0.0
  3
$Paper_Space
  1

  0
ENDBLK
  5
1D
  8
0
  0
ENDSEC
  0
SECTION
  2
ENTITIES
  0
LINE
  5
2D
  8
0
 10
2.52579
 20
0.43484
 30
0.0
 11
4.059023
 21
0.483364
 31
0.0
  0
LINE
  5
2E
  8
0
 10
2.52579
 20
0.43484
 30
0.0
 11
4.059023
 21
0.483364
 31
0.0
  0
LINE
  5
2F
  8
0
 10
5.024539
 20
0.513921
 30
0.0
 11
6.557772
 21
0.562445
 31
0.0
  0
LINE
  5
30
  8
0
 10
7.523359
 20
0.576263
 30
0.0
 11
9.056918
 21
0.539489
 31
0.0
  0
LINE
  5
31
  8
0
 10
10.02264
 20
0.516331
 30
0.0
 11
11.556199
 21
0.479556
 31
0.0
  0
LINE
  5
32
  8
0
 10
12.521922
 20
0.456398
 30
0.0
 11
12.935303
 21
0.446485
 31
0.0
  0
LINE
  5
33
  8
0
 10
12.935303
 20
0.446485
 30
0.0
 11
12.995002
 21
0.450163
 31
0.0
  0
LINE
  5
34
  8
0
 10
12.995002
 20
0.450163
 30
0.0
 11
14.034257
 21
0.631631
 31
0.0
  0
LINE
  5
35
  8
0
 10
14.626276
 20
1.340203
 30
0.0
 11
14.729725
 21
2.864768
 31
0.0
  0
LINE
  5
36
  8
0
 10
14.6957
 20
3.830169
 30
0.0
 11
14.64167
 21
5.363217
 31
0.0
  0
LINE
  5
37
  8
0
 10
14.626128
 20
6.328945
 30
0.0
 11
14.626145
 21
7.862945
 31
0.0
  0
LINE
  5
38
  8
0
 10
14.626156
 20
8.828945
 30
0.0
 11
14.626173
 21
10.362945
 31
0.0
  0
LINE
  5
39
  8
0
 10
14.626184
 20
11.328945
 30
0.0
 11
14.626201
 21
12.862945
 31
0.0
  0
LINE
  5
3A
  8
0
 10
14.626212
 20
13.828945
 30
0.0
 11
14.580377
 21
14.610035
 31
0.0
  0
LINE
  5
3B
  8
0
 10
14.580377
 20
14.610035
 30
0.0
 11
13.900925
 21
14.6366
 31
0.0
  0
LINE
  5
3C
  8
0
 10
13.900925
 20
14.6366
 30
0.0
 11
14.626212
 21
13.828945
 31
0.0
  0
LINE
  5
3D
  8
0
 10
12.934926
 20
14.635205
 30
0.0
 11
11.400927
 21
14.632989
 31
0.0
  0
LINE
  5
3E
  8
0
 10
10.434928
 20
14.631593
 30
0.0
 11
8.90093
 21
14.629378
 31
0.0
  0
LINE
  5
3F
  8
0
 10
7.934931
 20
14.627982
 30
0.0
 11
6.400932
 21
14.625766
 31
0.0
  0
LINE
  5
40
  8
0
 10
5.435237
 20
14.642731
 30
0.0
 11
3.902164
 21
14.696035
 31
0.0
  0
LINE
  5
41
  8
0
 10
2.936747
 20
14.729601
 30
0.0
 11
1.411161
 21
14.653712
 31
0.0
  0
LINE
  5
42
  8
0
 10
0.664614
 20
14.100553
 30
0.0
 11
0.437505
 21
12.5978
 31
0.0
  0
LINE
  5
43
  8
0
 10
0.46707
 20
11.632253
 30
0.0
 11
0.514019
 21
10.098971
 31
0.0
  0
LINE
  5
44
  8
0
 10
0.543583
 20
9.133424
 30
0.0
 11
0.57675
 21
7.600099
 31
0.0
  0
LINE
  5
45
  8
0
 10
0.552409
 20
6.634406
 30
0.0
 11
0.513756
 21
5.100893
 31
0.0
  0
LINE
  5
46
  8
0
 10
0.489415
 20
4.135199
 30
0.0
 11
0.450762
 21
2.601686
 31
0.0
  0
LINE
  5
47
  8
0
 10
0.494297
 20
1.788137
 30
0.0
 11
0.806799
 21
0.85731
 31
0.0
  0
LINE
  5
48
  8
0
 10
0.806799
 20
0.85731
 30
0.0
 11
1.71245
 21
0.479744
 31
0.0
  0
LINE
  5
49
  8
0
 10
1.71245
 20
0.479744
 30
0.0
 11
0.494297
 21
1.788137
 31
0.0
  0
LINE
  5
4A
  8
0
 10
2.592849
 20
0.437
 30
0.0
 11
2.592849
 21
1.407971
 31
0.0
  0
LINE
  5
4B
  8
0
 10
2.592849
 20
0.437
 30
0.0
 11
2.592849
 21
1.407971
 31
0.0
  0
LINE
  5
4C
  8
0
 10
2.592849
 20
1.407971
 30
0.0
 11
2.592849
 21
1.437
 31
0.0
  0
LINE
  5
4D
  8
0
 10
2.592849
 20
1.495
 30
0.0
 11
2.592849
 21
1.973568
 31
0.0
  0
LINE
  5
4E
  8
0
 10
2.592849
 20
1.973568
 30
0.0
 11
2.592849
 21
2.049052
 31
0.0
  0
LINE
  5
4F
  8
0
 10
2.592849
 20
2.049052
 30
0.0
 11
2.592849
 21
3.107271
 31
0.0
  0
LINE
  5
50
  8
0
 10
2.592849
 20
3.107271
 30
0.0
 11
2.592849
 21
3.689
 31
0.0
  0
LINE
  5
51
  8
0
 10
2.592849
 20
3.995
 30
0.0
 11
2.592849
 21
4.683464
 31
0.0
  0
LINE
  5
52
  8
0
 10
2.592849
 20
4.683464
 30
0.0
 11
2.592849
 21
4.775
 31
0.0
  0
LINE
  5
53
  8
0
 10
2.592849
 20
4.775
 30
0.0
 11
2.592849
 21
5.409
 31
0.0
  0
LINE
  5
54
  8
0
 10
2.592849
 20
5.409
 30
0.0
 11
2.592849
 21
5.495721
 31
0.0
  0
LINE
  5
55
  8
0
 10
2.592849
 20
5.495721
 30
0.0
 11
2.592849
 21
6.189
 31
0.0
  0
LINE
  5
56
  8
0
 10
2.592849
 20
6.495
 30
0.0
 11
2.592849
 21
7.074213
 31
0.0
  0
LINE
  5
57
  8
0
 10
2.592849
 20
7.074213
 30
0.0
 11
2.592849
 21
8.132432
 31
0.0
  0
LINE
  5
58
  8
0
 10
2.592849
 20
8.132432
 30
0.0
 11
2.592849
 21
8.182252
 31
0.0
  0
LINE
  5
59
  8
0
 10
2.592849
 20
8.182252
 30
0.0
 11
2.592849
 21
8.207916
 31
0.0
  0
LINE
  5
5A
  8
0
 10
2.592849
 20
8.207916
 30
0.0
 11
2.592849
 21
8.689
 31
0.0
  0
LINE
  5
5B
  8
0
 10
2.592849
 20
8.995
 30
0.0
 11
2.592849
 21
9.473568
 31
0.0
  0
LINE
  5
5C
  8
0
 10
2.592849
 20
9.473568
 30
0.0
 11
2.592849
 21
10.531787
 31
0.0
  0
LINE
  5
5D
  8
0
 10
2.592849
 20
10.531787
 30
0.0
 11
2.592849
 21
11.189
 31
0.0
  0
LINE
  5
5E
  8
0
 10
2.592849
 20
11.495
 30
0.0
 11
2.592849
 21
11.797439
 31
0.0
  0
LINE
  5
5F
  8
0
 10
2.592849
 20
11.797439
 30
0.0
 11
2.592849
 21
12.174858
 31
0.0
  0
LINE
  5
60
  8
0
 10
2.592849
 20
12.174858
 30
0.0
 11
2.592849
 21
13.233077
 31
0.0
  0
LINE
  5
61
  8
0
 10
2.592849
 20
13.233077
 30
0.0
 11
2.592849
 21
13.689
 31
0.0
  0
LINE
  5
62
  8
0
 10
2.592849
 20
13.742
 30
0.0
 11
2.592849
 21
13.768593
 31
0.0
  0
LINE
  5
63
  8
0
 10
2.592849
 20
13.768593
 30
0.0
 11
2.592849
 21
14.742
 31
0.0
  0
LINE
  5
64
  8
0
 10
5.092849
 20
0.516
 30
0.0
 11
5.092849
 21
1.488441
 31
0.0
  0
LINE
  5
65
  8
0
 10
5.092849
 20
0.516
 30
0.0
 11
5.092849
 21
1.488441
 31
0.0
  0
LINE
  5
66
  8
0
 10
5.092849
 20
1.488441
 30
0.0
 11
5.092849
 21
1.503553
 31
0.0
  0
LINE
  5
67
  8
0
 10
5.092849
 20
1.503553
 30
0.0
 11
5.092849
 21
1.530225
 31
0.0
  0
LINE
  5
68
  8
0
 10
5.092849
 20
1.530225
 30
0.0
 11
5.092849
 21
1.993445
 31
0.0
  0
LINE
  5
69
  8
0
 10
5.092849
 20
1.993445
 30
0.0
 11
5.092849
 21
2.068929
 31
0.0
  0
LINE
  5
6A
  8
0
 10
5.092849
 20
2.068929
 30
0.0
 11
5.092849
 21
3.127148
 31
0.0
  0
LINE
  5
6B
  8
0
 10
5.092849
 20
3.127148
 30
0.0
 11
5.092849
 21
3.689
 31
0.0
  0
LINE
  5
6C
  8
0
 10
5.092849
 20
3.995
 30
0.0
 11
5.092849
 21
4.715863
 31
0.0
  0
LINE
  5
6D
  8
0
 10
5.092849
 20
4.715863
 30
0.0
 11
5.092849
 21
4.775
 31
0.0
  0
LINE
  5
6E
  8
0
 10
5.092849
 20
4.775
 30
0.0
 11
5.092849
 21
5.409
 31
0.0
  0
LINE
  5
6F
  8
0
 10
5.092849
 20
5.409
 30
0.0
 11
5.092849
 21
5.527309
 31
0.0
  0
LINE
  5
70
  8
0
 10
5.092849
 20
5.527309
 30
0.0
 11
5.092849
 21
6.189
 31
0.0
  0
LINE
  5
71
  8
0
 10
5.092849
 20
6.495
 30
0.0
 11
5.092849
 21
7.09409
 31
0.0
  0
LINE
  5
72
  8
0
 10
5.092849
 20
7.09409
 30
0.0
 11
5.092849
 21
8.15231
 31
0.0
  0
LINE
  5
73
  8
0
 10
5.092849
 20
8.15231
 30
0.0
 11
5.092849
 21
8.182252
 31
0.0
  0
LINE
  5
74
  8
0
 10
5.092849
 20
8.182252
 30
0.0
 11
5.092849
 21
8.227794
 31
0.0
  0
LINE
  5
75
  8
0
 10
5.092849
 20
8.227794
 30
0.0
 11
5.092849
 21
8.689
 31
0.0
  0
LINE
  5
76
  8
0
 10
5.092849
 20
8.995
 30
0.0
 11
5.092849
 21
9.417961
 31
0.0
  0
LINE
  5
77
  8
0
 10
5.092849
 20
9.417961
 30
0.0
 11
5.092849
 21
9.493445
 31
0.0
  0
LINE
  5
78
  8
0
 10
5.092849
 20
9.493445
 30
0.0
 11
5.092849
 21
10.551665
 31
0.0
  0
LINE
  5
79
  8
0
 10
5.092849
 20
10.551665
 30
0.0
 11
5.092849
 21
11.189
 31
0.0
  0
LINE
  5
7A
  8
0
 10
5.092849
 20
11.495
 30
0.0
 11
5.092849
 21
11.817316
 31
0.0
  0
LINE
  5
7B
  8
0
 10
5.092849
 20
11.817316
 30
0.0
 11
5.092849
 21
12.194735
 31
0.0
  0
LINE
  5
7C
  8
0
 10
5.092849
 20
12.194735
 30
0.0
 11
5.092849
 21
13.252955
 31
0.0
  0
LINE
  5
7D
  8
0
 10
5.092849
 20
13.252955
 30
0.0
 11
5.092849
 21
13.639652
 31
0.0
  0
LINE
  5
7E
  8
0
 10
5.092849
 20
13.639652
 30
0.0
 11
5.092849
 21
13.648194
 31
0.0
  0
LINE
  5
7F
  8
0
 10
5.092849
 20
13.648194
 30
0.0
 11
5.092849
 21
13.683476
 31
0.0
  0
LINE
  5
80
  8
0
 10
5.092849
 20
13.683476
 30
0.0
 11
5.092849
 21
14.655
 31
0.0
  0
LINE
  5
81
  8
0
 10
7.592849
 20
0.574
 30
0.0
 11
7.592849
 21
1.510419
 31
0.0
  0
LINE
  5
82
  8
0
 10
7.592849
 20
0.574
 30
0.0
 11
7.592849
 21
1.510419
 31
0.0
  0
LINE
  5
83
  8
0
 10
7.592849
 20
1.510419
 30
0.0
 11
7.592849
 21
1.529839
 31
0.0
  0
LINE
  5
84
  8
0
 10
7.592849
 20
1.529839
 30
0.0
 11
7.592849
 21
1.626613
 31
0.0
  0
LINE
  5
85
  8
0
 10
7.592849
 20
1.626613
 30
0.0
 11
7.592849
 21
2.00829
 31
0.0
  0
LINE
  5
86
  8
0
 10
7.592849
 20
2.00829
 30
0.0
 11
7.592849
 21
2.083774
 31
0.0
  0
LINE
  5
87
  8
0
 10
7.592849
 20
2.083774
 30
0.0
 11
7.592849
 21
3.141994
 31
0.0
  0
LINE
  5
88
  8
0
 10
7.592849
 20
3.141994
 30
0.0
 11
7.592849
 21
3.689
 31
0.0
  0
LINE
  5
89
  8
0
 10
7.592849
 20
3.995
 30
0.0
 11
7.592849
 21
4.740216
 31
0.0
  0
LINE
  5
8A
  8
0
 10
7.592849
 20
4.740216
 30
0.0
 11
7.592849
 21
4.775
 31
0.0
  0
LINE
  5
8B
  8
0
 10
7.592849
 20
4.775
 30
0.0
 11
7.592849
 21
5.409
 31
0.0
  0
LINE
  5
8C
  8
0
 10
7.592849
 20
5.409
 30
0.0
 11
7.592849
 21
5.549833
 31
0.0
  0
LINE
  5
8D
  8
0
 10
7.592849
 20
5.549833
 30
0.0
 11
7.592849
 21
6.189
 31
0.0
  0
LINE
  5
8E
  8
0
 10
7.592849
 20
6.495
 30
0.0
 11
7.592849
 21
7.108935
 31
0.0
  0
LINE
  5
8F
  8
0
 10
7.592849
 20
7.108935
 30
0.0
 11
7.592849
 21
8.167155
 31
0.0
  0
LINE
  5
90
  8
0
 10
7.592849
 20
8.167155
 30
0.0
 11
7.592849
 21
8.182252
 31
0.0
  0
LINE
  5
91
  8
0
 10
7.592849
 20
8.182252
 30
0.0
 11
7.592849
 21
8.242639
 31
0.0
  0
LINE
  5
92
  8
0
 10
7.592849
 20
8.242639
 30
0.0
 11
7.592849
 21
8.689
 31
0.0
  0
LINE
  5
93
  8
0
 10
7.592849
 20
8.995
 30
0.0
 11
7.592849
 21
9.432806
 31
0.0
  0
LINE
  5
94
  8
0
 10
7.592849
 20
9.432806
 30
0.0
 11
7.592849
 21
9.50829
 31
0.0
  0
LINE
  5
95
  8
0
 10
7.592849
 20
9.50829
 30
0.0
 11
7.592849
 21
10.56651
 31
0.0
  0
LINE
  5
96
  8
0
 10
7.592849
 20
10.56651
 30
0.0
 11
7.592849
 21
11.189
 31
0.0
  0
LINE
  5
97
  8
0
 10
7.592849
 20
11.495
 30
0.0
 11
7.592849
 21
12.120238
 31
0.0
  0
LINE
  5
98
  8
0
 10
7.592849
 20
12.120238
 30
0.0
 11
7.592849
 21
12.275
 31
0.0
  0
LINE
  5
99
  8
0
 10
7.592849
 20
12.275
 30
0.0
 11
7.592849
 21
12.909
 31
0.0
  0
LINE
  5
9A
  8
0
 10
7.592849
 20
12.909
 30
0.0
 11
7.592849
 21
12.928366
 31
0.0
  0
LINE
  5
9B
  8
0
 10
7.592849
 20
12.928366
 30
0.0
 11
7.592849
 21
13.471187
 31
0.0
  0
LINE
  5
9C
  8
0
 10
7.592849
 20
13.471187
 30
0.0
 11
7.592849
 21
13.605369
 31
0.0
  0
LINE
  5
9D
  8
0
 10
7.592849
 20
13.605369
 30
0.0
 11
7.592849
 21
13.620356
 31
0.0
  0
LINE
  5
9E
  8
0
 10
7.592849
 20
13.620356
 30
0.0
 11
7.592849
 21
13.700447
 31
0.0
  0
LINE
  5
9F
  8
0
 10
7.592849
 20
13.700447
 30
0.0
 11
7.592849
 21
14.628
 31
0.0
  0
LINE
  5
A0
  8
0
 10
10.092849
 20
0.515
 30
0.0
 11
10.092849
 21
1.498051
 31
0.0
  0
LINE
  5
A1
  8
0
 10
10.092849
 20
0.515
 30
0.0
 11
10.092849
 21
1.498051
 31
0.0
  0
LINE
  5
A2
  8
0
 10
10.092849
 20
1.498051
 30
0.0
 11
10.092849
 21
1.503136
 31
0.0
  0
LINE
  5
A3
  8
0
 10
10.092849
 20
1.503136
 30
0.0
 11
10.092849
 21
1.528559
 31
0.0
  0
LINE
  5
A4
  8
0
 10
10.092849
 20
1.528559
 30
0.0
 11
10.092849
 21
1.993194
 31
0.0
  0
LINE
  5
A5
  8
0
 10
10.092849
 20
1.993194
 30
0.0
 11
10.092849
 21
2.068677
 31
0.0
  0
LINE
  5
A6
  8
0
 10
10.092849
 20
2.068677
 30
0.0
 11
10.092849
 21
3.126897
 31
0.0
  0
LINE
  5
A7
  8
0
 10
10.092849
 20
3.126897
 30
0.0
 11
10.092849
 21
3.689
 31
0.0
  0
LINE
  5
A8
  8
0
 10
10.092849
 20
3.995
 30
0.0
 11
10.092849
 21
4.714922
 31
0.0
  0
LINE
  5
A9
  8
0
 10
10.092849
 20
4.714922
 30
0.0
 11
10.092849
 21
4.775
 31
0.0
  0
LINE
  5
AA
  8
0
 10
10.092849
 20
4.775
 30
0.0
 11
10.092849
 21
5.409
 31
0.0
  0
LINE
  5
AB
  8
0
 10
10.092849
 20
5.409
 30
0.0
 11
10.092849
 21
5.526842
 31
0.0
  0
LINE
  5
AC
  8
0
 10
10.092849
 20
5.526842
 30
0.0
 11
10.092849
 21
6.189
 31
0.0
  0
LINE
  5
AD
  8
0
 10
10.092849
 20
6.495
 30
0.0
 11
10.092849
 21
7.093839
 31
0.0
  0
LINE
  5
AE
  8
0
 10
10.092849
 20
7.093839
 30
0.0
 11
10.092849
 21
8.152058
 31
0.0
  0
LINE
  5
AF
  8
0
 10
10.092849
 20
8.152058
 30
0.0
 11
10.092849
 21
8.182252
 31
0.0
  0
LINE
  5
B0
  8
0
 10
10.092849
 20
8.182252
 30
0.0
 11
10.092849
 21
8.227542
 31
0.0
  0
LINE
  5
B1
  8
0
 10
10.092849
 20
8.227542
 30
0.0
 11
10.092849
 21
8.689
 31
0.0
  0
LINE
  5
B2
  8
0
 10
10.092849
 20
8.995
 30
0.0
 11
10.092849
 21
9.41771
 31
0.0
  0
LINE
  5
B3
  8
0
 10
10.092849
 20
9.41771
 30
0.0
 11
10.092849
 21
9.493194
 31
0.0
  0
LINE
  5
B4
  8
0
 10
10.092849
 20
9.493194
 30
0.0
 11
10.092849
 21
10.551413
 31
0.0
  0
LINE
  5
B5
  8
0
 10
10.092849
 20
10.551413
 30
0.0
 11
10.092849
 21
11.189
 31
0.0
  0
LINE
  5
B6
  8
0
 10
10.092849
 20
11.495
 30
0.0
 11
10.092849
 21
11.817065
 31
0.0
  0
LINE
  5
B7
  8
0
 10
10.092849
 20
11.817065
 30
0.0
 11
10.092849
 21
12.194484
 31
0.0
  0
LINE
  5
B8
  8
0
 10
10.092849
 20
12.194484
 30
0.0
 11
10.092849
 21
13.252703
 31
0.0
  0
LINE
  5
B9
  8
0
 10
10.092849
 20
13.252703
 30
0.0
 11
10.092849
 21
13.606429
 31
0.0
  0
LINE
  5
BA
  8
0
 10
10.092849
 20
13.606429
 30
0.0
 11
10.092849
 21
13.620714
 31
0.0
  0
LINE
  5
BB
  8
0
 10
10.092849
 20
13.620714
 30
0.0
 11
10.092849
 21
13.678619
 31
0.0
  0
LINE
  5
BC
  8
0
 10
10.092849
 20
13.678619
 30
0.0
 11
10.092849
 21
14.631
 31
0.0
  0
LINE
  5
BD
  8
0
 10
12.592849
 20
0.455
 30
0.0
 11
12.592849
 21
1.434798
 31
0.0
  0
LINE
  5
BE
  8
0
 10
12.592849
 20
0.455
 30
0.0
 11
12.592849
 21
1.434798
 31
0.0
  0
LINE
  5
BF
  8
0
 10
12.592849
 20
1.434798
 30
0.0
 11
12.592849
 21
1.455
 31
0.0
  0
LINE
  5
C0
  8
0
 10
12.592849
 20
1.495
 30
0.0
 11
12.592849
 21
1.978097
 31
0.0
  0
LINE
  5
C1
  8
0
 10
12.592849
 20
1.978097
 30
0.0
 11
12.592849
 21
2.053581
 31
0.0
  0
LINE
  5
C2
  8
0
 10
12.592849
 20
2.053581
 30
0.0
 11
12.592849
 21
3.1118
 31
0.0
  0
LINE
  5
C3
  8
0
 10
12.592849
 20
3.1118
 30
0.0
 11
12.592849
 21
3.689
 31
0.0
  0
LINE
  5
C4
  8
0
 10
12.592849
 20
3.995
 30
0.0
 11
12.592849
 21
4.691288
 31
0.0
  0
LINE
  5
C5
  8
0
 10
12.592849
 20
4.691288
 30
0.0
 11
12.592849
 21
4.775
 31
0.0
  0
LINE
  5
C6
  8
0
 10
12.592849
 20
4.775
 30
0.0
 11
12.592849
 21
5.409
 31
0.0
  0
LINE
  5
C7
  8
0
 10
12.592849
 20
5.409
 30
0.0
 11
12.592849
 21
5.502988
 31
0.0
  0
LINE
  5
C8
  8
0
 10
12.592849
 20
5.502988
 30
0.0
 11
12.592849
 21
6.189
 31
0.0
  0
LINE
  5
C9
  8
0
 10
12.592849
 20
6.495
 30
0.0
 11
12.592849
 21
7.078742
 31
0.0
  0
LINE
  5
CA
  8
0
 10
12.592849
 20
7.078742
 30
0.0
 11
12.592849
 21
8.136961
 31
0.0
  0
LINE
  5
CB
  8
0
 10
12.592849
 20
8.136961
 30
0.0
 11
12.592849
 21
8.182252
 31
0.0
  0
LINE
  5
CC
  8
0
 10
12.592849
 20
8.182252
 30
0.0
 11
12.592849
 21
8.212445
 31
0.0
  0
LINE
  5
CD
  8
0
 10
12.592849
 20
8.212445
 30
0.0
 11
12.592849
 21
8.689
 31
0.0
  0
LINE
  5
CE
  8
0
 10
12.592849
 20
8.995
 30
0.0
 11
12.592849
 21
9.478097
 31
0.0
  0
LINE
  5
CF
  8
0
 10
12.592849
 20
9.478097
 30
0.0
 11
12.592849
 21
10.536316
 31
0.0
  0
LINE
  5
D0
  8
0
 10
12.592849
 20
10.536316
 30
0.0
 11
12.592849
 21
11.189
 31
0.0
  0
LINE
  5
D1
  8
0
 10
12.592849
 20
11.495
 30
0.0
 11
12.592849
 21
11.801968
 31
0.0
  0
LINE
  5
D2
  8
0
 10
12.592849
 20
11.801968
 30
0.0
 11
12.592849
 21
12.179387
 31
0.0
  0
LINE
  5
D3
  8
0
 10
12.592849
 20
12.179387
 30
0.0
 11
12.592849
 21
13.237606
 31
0.0
  0
LINE
  5
D4
  8
0
 10
12.592849
 20
13.237606
 30
0.0
 11
12.592849
 21
13.609201
 31
0.0
  0
LINE
  5
D5
  8
0
 10
12.592849
 20
13.609201
 30
0.0
 11
12.592849
 21
13.622545
 31
0.0
  0
LINE
  5
D6
  8
0
 10
12.592849
 20
13.622545
 30
0.0
 11
12.592849
 21
13.679481
 31
0.0
  0
LINE
  5
D7
  8
0
 10
12.592849
 20
13.679481
 30
0.0
 11
12.592849
 21
14.635
 31
0.0
  0
LINE
  5
D8
  8
0
 10
0.45
 20
2.592238
 30
0.0
 11
1.42095
 21
2.592238
 31
0.0
  0
LINE
  5
D9
  8
0
 10
0.45
 20
2.592238
 30
0.0
 11
1.42095
 21
2.592238
 31
0.0
  0
LINE
  5
DA
  8
0
 10
1.42095
 20
2.592238
 30
0.0
 11
1.451
 21
2.592238
 31
0.0
  0
LINE
  5
DB
  8
0
 10
1.496
 20
2.592238
 30
0.0
 11
1.949658
 21
2.592238
 31
0.0
  0
LINE
  5
DC
  8
0
 10
1.949658
 20
2.592238
 30
0.0
 11
3.007877
 21
2.592238
 31
0.0
  0
LINE
  5
DD
  8
0
 10
3.007877
 20
2.592238
 30
0.0
 11
3.385297
 21
2.592238
 31
0.0
  0
LINE
  5
DE
  8
0
 10
3.385297
 20
2.592238
 30
0.0
 11
3.69
 21
2.592238
 31
0.0
  0
LINE
  5
DF
  8
0
 10
3.996
 20
2.592238
 30
0.0
 11
4.650948
 21
2.592238
 31
0.0
  0
LINE
  5
E0
  8
0
 10
4.650948
 20
2.592238
 30
0.0
 11
5.709168
 21
2.592238
 31
0.0
  0
LINE
  5
E1
  8
0
 10
5.709168
 20
2.592238
 30
0.0
 11
6.19
 21
2.592238
 31
0.0
  0
LINE
  5
E2
  8
0
 10
6.496
 20
2.592238
 30
0.0
 11
6.974819
 21
2.592238
 31
0.0
  0
LINE
  5
E3
  8
0
 10
6.974819
 20
2.592238
 30
0.0
 11
7.050303
 21
2.592238
 31
0.0
  0
LINE
  5
E4
  8
0
 10
7.050303
 20
2.592238
 30
0.0
 11
8.108523
 21
2.592238
 31
0.0
  0
LINE
  5
E5
  8
0
 10
8.108523
 20
2.592238
 30
0.0
 11
8.69
 21
2.592238
 31
0.0
  0
LINE
  5
E6
  8
0
 10
8.996
 20
2.592238
 30
0.0
 11
9.685325
 21
2.592238
 31
0.0
  0
LINE
  5
E7
  8
0
 10
9.685325
 20
2.592238
 30
0.0
 11
9.776
 21
2.592238
 31
0.0
  0
LINE
  5
E8
  8
0
 10
9.776
 20
2.592238
 30
0.0
 11
10.41
 21
2.592238
 31
0.0
  0
LINE
  5
E9
  8
0
 10
10.41
 20
2.592238
 30
0.0
 11
10.497102
 21
2.592238
 31
0.0
  0
LINE
  5
EA
  8
0
 10
10.497102
 20
2.592238
 30
0.0
 11
11.19
 21
2.592238
 31
0.0
  0
LINE
  5
EB
  8
0
 10
11.496
 20
2.592238
 30
0.0
 11
12.075465
 21
2.592238
 31
0.0
  0
LINE
  5
EC
  8
0
 10
12.075465
 20
2.592238
 30
0.0
 11
13.133684
 21
2.592238
 31
0.0
  0
LINE
  5
ED
  8
0
 10
13.133684
 20
2.592238
 30
0.0
 11
13.209168
 21
2.592238
 31
0.0
  0
LINE
  5
EE
  8
0
 10
13.209168
 20
2.592238
 30
0.0
 11
13.69
 21
2.592238
 31
0.0
  0
LINE
  5
EF
  8
0
 10
13.739
 20
2.592238
 30
0.0
 11
13.763635
 21
2.592238
 31
0.0
  0
LINE
  5
F0
  8
0
 10
13.763635
 20
2.592238
 30
0.0
 11
14.739
 21
2.592238
 31
0.0
  0
LINE
  5
F1
  8
0
 10
0.513
 20
5.092238
 30
0.0
 11
1.005153
 21
5.092238
 31
0.0
  0
LINE
  5
F2
  8
0
 10
0.513
 20
5.092238
 30
0.0
 11
1.005153
 21
5.092238
 31
0.0
  0
LINE
  5
F3
  8
0
 10
1.005153
 20
5.092238
 30
0.0
 11
1.490135
 21
5.092238
 31
0.0
  0
LINE
  5
F4
  8
0
 10
1.490135
 20
5.092238
 30
0.0
 11
1.517621
 21
5.092238
 31
0.0
  0
LINE
  5
F5
  8
0
 10
1.517621
 20
5.092238
 30
0.0
 11
1.522205
 21
5.092238
 31
0.0
  0
LINE
  5
F6
  8
0
 10
1.522205
 20
5.092238
 30
0.0
 11
1.571525
 21
5.092238
 31
0.0
  0
LINE
  5
F7
  8
0
 10
1.571525
 20
5.092238
 30
0.0
 11
2.2738
 21
5.092238
 31
0.0
  0
LINE
  5
F8
  8
0
 10
2.2738
 20
5.092238
 30
0.0
 11
2.276
 21
5.092238
 31
0.0
  0
LINE
  5
F9
  8
0
 10
2.276
 20
5.092238
 30
0.0
 11
2.91
 21
5.092238
 31
0.0
  0
LINE
  5
FA
  8
0
 10
2.91
 20
5.092238
 30
0.0
 11
2.91926
 21
5.092238
 31
0.0
  0
LINE
  5
FB
  8
0
 10
2.91926
 20
5.092238
 30
0.0
 11
3.69
 21
5.092238
 31
0.0
  0
LINE
  5
FC
  8
0
 10
3.996
 20
5.092238
 30
0.0
 11
4.628806
 21
5.092238
 31
0.0
  0
LINE
  5
FD
  8
0
 10
4.628806
 20
5.092238
 30
0.0
 11
5.687026
 21
5.092238
 31
0.0
  0
LINE
  5
FE
  8
0
 10
5.687026
 20
5.092238
 30
0.0
 11
5.76251
 21
5.092238
 31
0.0
  0
LINE
  5
FF
  8
0
 10
5.76251
 20
5.092238
 30
0.0
 11
6.19
 21
5.092238
 31
0.0
  0
LINE
  5
100
  8
0
 10
6.496
 20
5.092238
 30
0.0
 11
6.952677
 21
5.092238
 31
0.0
  0
LINE
  5
101
  8
0
 10
6.952677
 20
5.092238
 30
0.0
 11
7.028161
 21
5.092238
 31
0.0
  0
LINE
  5
102
  8
0
 10
7.028161
 20
5.092238
 30
0.0
 11
8.086381
 21
5.092238
 31
0.0
  0
LINE
  5
103
  8
0
 10
8.086381
 20
5.092238
 30
0.0
 11
8.69
 21
5.092238
 31
0.0
  0
LINE
  5
104
  8
0
 10
8.996
 20
5.092238
 30
0.0
 11
9.650164
 21
5.092238
 31
0.0
  0
LINE
  5
105
  8
0
 10
9.650164
 20
5.092238
 30
0.0
 11
9.776
 21
5.092238
 31
0.0
  0
LINE
  5
106
  8
0
 10
9.776
 20
5.092238
 30
0.0
 11
10.41
 21
5.092238
 31
0.0
  0
LINE
  5
107
  8
0
 10
10.41
 20
5.092238
 30
0.0
 11
10.461004
 21
5.092238
 31
0.0
  0
LINE
  5
108
  8
0
 10
10.461004
 20
5.092238
 30
0.0
 11
11.19
 21
5.092238
 31
0.0
  0
LINE
  5
109
  8
0
 10
11.496
 20
5.092238
 30
0.0
 11
12.053323
 21
5.092238
 31
0.0
  0
LINE
  5
10A
  8
0
 10
12.053323
 20
5.092238
 30
0.0
 11
13.111542
 21
5.092238
 31
0.0
  0
LINE
  5
10B
  8
0
 10
13.111542
 20
5.092238
 30
0.0
 11
13.187026
 21
5.092238
 31
0.0
  0
LINE
  5
10C
  8
0
 10
13.187026
 20
5.092238
 30
0.0
 11
13.624978
 21
5.092238
 31
0.0
  0
LINE
  5
10D
  8
0
 10
13.624978
 20
5.092238
 30
0.0
 11
13.673769
 21
5.092238
 31
0.0
  0
LINE
  5
10E
  8
0
 10
13.673769
 20
5.092238
 30
0.0
 11
13.683527
 21
5.092238
 31
0.0
  0
LINE
  5
10F
  8
0
 10
13.683527
 20
5.092238
 30
0.0
 11
14.651
 21
5.092238
 31
0.0
  0
LINE
  5
110
  8
0
 10
0.576
 20
7.592238
 30
0.0
 11
1.110223
 21
7.592238
 31
0.0
  0
LINE
  5
111
  8
0
 10
0.576
 20
7.592238
 30
0.0
 11
1.110223
 21
7.592238
 31
0.0
  0
LINE
  5
112
  8
0
 10
1.110223
 20
7.592238
 30
0.0
 11
1.484967
 21
7.592238
 31
0.0
  0
LINE
  5
113
  8
0
 10
1.484967
 20
7.592238
 30
0.0
 11
1.586725
 21
7.592238
 31
0.0
  0
LINE
  5
114
  8
0
 10
1.586725
 20
7.592238
 30
0.0
 11
1.606306
 21
7.592238
 31
0.0
  0
LINE
  5
115
  8
0
 10
1.606306
 20
7.592238
 30
0.0
 11
1.775351
 21
7.592238
 31
0.0
  0
LINE
  5
116
  8
0
 10
1.775351
 20
7.592238
 30
0.0
 11
2.262982
 21
7.592238
 31
0.0
  0
LINE
  5
117
  8
0
 10
2.262982
 20
7.592238
 30
0.0
 11
2.276
 21
7.592238
 31
0.0
  0
LINE
  5
118
  8
0
 10
2.276
 20
7.592238
 30
0.0
 11
2.91
 21
7.592238
 31
0.0
  0
LINE
  5
119
  8
0
 10
2.91
 20
7.592238
 30
0.0
 11
2.993712
 21
7.592238
 31
0.0
  0
LINE
  5
11A
  8
0
 10
2.993712
 20
7.592238
 30
0.0
 11
3.69
 21
7.592238
 31
0.0
  0
LINE
  5
11B
  8
0
 10
3.996
 20
7.592238
 30
0.0
 11
4.622516
 21
7.592238
 31
0.0
  0
LINE
  5
11C
  8
0
 10
4.622516
 20
7.592238
 30
0.0
 11
5.680735
 21
7.592238
 31
0.0
  0
LINE
  5
11D
  8
0
 10
5.680735
 20
7.592238
 30
0.0
 11
5.756219
 21
7.592238
 31
0.0
  0
LINE
  5
11E
  8
0
 10
5.756219
 20
7.592238
 30
0.0
 11
6.19
 21
7.592238
 31
0.0
  0
LINE
  5
11F
  8
0
 10
6.496
 20
7.592238
 30
0.0
 11
6.946387
 21
7.592238
 31
0.0
  0
LINE
  5
120
  8
0
 10
6.946387
 20
7.592238
 30
0.0
 11
7.021871
 21
7.592238
 31
0.0
  0
LINE
  5
121
  8
0
 10
7.021871
 20
7.592238
 30
0.0
 11
8.08009
 21
7.592238
 31
0.0
  0
LINE
  5
122
  8
0
 10
8.08009
 20
7.592238
 30
0.0
 11
8.69
 21
7.592238
 31
0.0
  0
LINE
  5
123
  8
0
 10
8.996
 20
7.592238
 30
0.0
 11
9.640982
 21
7.592238
 31
0.0
  0
LINE
  5
124
  8
0
 10
9.640982
 20
7.592238
 30
0.0
 11
9.776
 21
7.592238
 31
0.0
  0
LINE
  5
125
  8
0
 10
9.776
 20
7.592238
 30
0.0
 11
10.41
 21
7.592238
 31
0.0
  0
LINE
  5
126
  8
0
 10
10.41
 20
7.592238
 30
0.0
 11
10.450255
 21
7.592238
 31
0.0
  0
LINE
  5
127
  8
0
 10
10.450255
 20
7.592238
 30
0.0
 11
11.19
 21
7.592238
 31
0.0
  0
LINE
  5
128
  8
0
 10
11.496
 20
7.592238
 30
0.0
 11
12.047032
 21
7.592238
 31
0.0
  0
LINE
  5
129
  8
0
 10
12.047032
 20
7.592238
 30
0.0
 11
13.105252
 21
7.592238
 31
0.0
  0
LINE
  5
12A
  8
0
 10
13.105252
 20
7.592238
 30
0.0
 11
13.180735
 21
7.592238
 31
0.0
  0
LINE
  5
12B
  8
0
 10
13.180735
 20
7.592238
 30
0.0
 11
13.58417
 21
7.592238
 31
0.0
  0
LINE
  5
12C
  8
0
 10
13.58417
 20
7.592238
 30
0.0
 11
13.662601
 21
7.592238
 31
0.0
  0
LINE
  5
12D
  8
0
 10
13.662601
 20
7.592238
 30
0.0
 11
13.678288
 21
7.592238
 31
0.0
  0
LINE
  5
12E
  8
0
 10
13.678288
 20
7.592238
 30
0.0
 11
14.626
 21
7.592238
 31
0.0
  0
LINE
  5
12F
  8
0
 10
0.514
 20
10.092238
 30
0.0
 11
1.49872
 21
10.092238
 31
0.0
  0
LINE
  5
130
  8
0
 10
0.514
 20
10.092238
 30
0.0
 11
1.49872
 21
10.092238
 31
0.0
  0
LINE
  5
131
  8
0
 10
1.49872
 20
10.092238
 30
0.0
 11
1.517239
 21
10.092238
 31
0.0
  0
LINE
  5
132
  8
0
 10
1.517239
 20
10.092238
 30
0.0
 11
1.521823
 21
10.092238
 31
0.0
  0
LINE
  5
133
  8
0
 10
1.521823
 20
10.092238
 30
0.0
 11
1.569349
 21
10.092238
 31
0.0
  0
LINE
  5
134
  8
0
 10
1.569349
 20
10.092238
 30
0.0
 11
2.262982
 21
10.092238
 31
0.0
  0
LINE
  5
135
  8
0
 10
2.262982
 20
10.092238
 30
0.0
 11
2.276
 21
10.092238
 31
0.0
  0
LINE
  5
136
  8
0
 10
2.276
 20
10.092238
 30
0.0
 11
2.91
 21
10.092238
 31
0.0
  0
LINE
  5
137
  8
0
 10
2.91
 20
10.092238
 30
0.0
 11
2.993712
 21
10.092238
 31
0.0
  0
LINE
  5
138
  8
0
 10
2.993712
 20
10.092238
 30
0.0
 11
3.69
 21
10.092238
 31
0.0
  0
LINE
  5
139
  8
0
 10
3.996
 20
10.092238
 30
0.0
 11
4.622516
 21
10.092238
 31
0.0
  0
LINE
  5
13A
  8
0
 10
4.622516
 20
10.092238
 30
0.0
 11
5.680735
 21
10.092238
 31
0.0
  0
LINE
  5
13B
  8
0
 10
5.680735
 20
10.092238
 30
0.0
 11
5.756219
 21
10.092238
 31
0.0
  0
LINE
  5
13C
  8
0
 10
5.756219
 20
10.092238
 30
0.0
 11
6.19
 21
10.092238
 31
0.0
  0
LINE
  5
13D
  8
0
 10
6.496
 20
10.092238
 30
0.0
 11
6.946387
 21
10.092238
 31
0.0
  0
LINE
  5
13E
  8
0
 10
6.946387
 20
10.092238
 30
0.0
 11
7.021871
 21
10.092238
 31
0.0
  0
LINE
  5
13F
  8
0
 10
7.021871
 20
10.092238
 30
0.0
 11
8.08009
 21
10.092238
 31
0.0
  0
LINE
  5
140
  8
0
 10
8.08009
 20
10.092238
 30
0.0
 11
8.69
 21
10.092238
 31
0.0
  0
LINE
  5
141
  8
0
 10
8.996
 20
10.092238
 30
0.0
 11
9.640982
 21
10.092238
 31
0.0
  0
LINE
  5
142
  8
0
 10
9.640982
 20
10.092238
 30
0.0
 11
9.776
 21
10.092238
 31
0.0
  0
LINE
  5
143
  8
0
 10
9.776
 20
10.092238
 30
0.0
 11
10.41
 21
10.092238
 31
0.0
  0
LINE
  5
144
  8
0
 10
10.41
 20
10.092238
 30
0.0
 11
10.450255
 21
10.092238
 31
0.0
  0
LINE
  5
145
  8
0
 10
10.450255
 20
10.092238
 30
0.0
 11
11.19
 21
10.092238
 31
0.0
  0
LINE
  5
146
  8
0
 10
11.496
 20
10.092238
 30
0.0
 11
12.047032
 21
10.092238
 31
0.0
  0
LINE
  5
147
  8
0
 10
12.047032
 20
10.092238
 30
0.0
 11
13.105252
 21
10.092238
 31
0.0
  0
LINE
  5
148
  8
0
 10
13.105252
 20
10.092238
 30
0.0
 11
13.180735
 21
10.092238
 31
0.0
  0
LINE
  5
149
  8
0
 10
13.180735
 20
10.092238
 30
0.0
 11
13.58417
 21
10.092238
 31
0.0
  0
LINE
  5
14A
  8
0
 10
13.58417
 20
10.092238
 30
0.0
 11
13.662601
 21
10.092238
 31
0.0
  0
LINE
  5
14B
  8
0
 10
13.662601
 20
10.092238
 30
0.0
 11
13.701472
 21
10.092238
 31
0.0
  0
LINE
  5
14C
  8
0
 10
13.701472
 20
10.092238
 30
0.0
 11
14.626
 21
10.092238
 31
0.0
  0
LINE
  5
14D
  8
0
 10
0.438
 20
12.592238
 30
0.0
 11
1.408971
 21
12.592238
 31
0.0
  0
LINE
  5
14E
  8
0
 10
0.438
 20
12.592238
 30
0.0
 11
1.408971
 21
12.592238
 31
0.0
  0
LINE
  5
14F
  8
0
 10
1.408971
 20
12.592238
 30
0.0
 11
1.438
 21
12.592238
 31
0.0
  0
LINE
  5
150
  8
0
 10
1.496
 20
12.592238
 30
0.0
 11
2.26405
 21
12.592238
 31
0.0
  0
LINE
  5
151
  8
0
 10
2.26405
 20
12.592238
 30
0.0
 11
2.276
 21
12.592238
 31
0.0
  0
LINE
  5
152
  8
0
 10
2.276
 20
12.592238
 30
0.0
 11
2.91
 21
12.592238
 31
0.0
  0
LINE
  5
153
  8
0
 10
2.91
 20
12.592238
 30
0.0
 11
2.993712
 21
12.592238
 31
0.0
  0
LINE
  5
154
  8
0
 10
2.993712
 20
12.592238
 30
0.0
 11
3.69
 21
12.592238
 31
0.0
  0
LINE
  5
155
  8
0
 10
3.996
 20
12.592238
 30
0.0
 11
4.622516
 21
12.592238
 31
0.0
  0
LINE
  5
156
  8
0
 10
4.622516
 20
12.592238
 30
0.0
 11
5.680735
 21
12.592238
 31
0.0
  0
LINE
  5
157
  8
0
 10
5.680735
 20
12.592238
 30
0.0
 11
5.756219
 21
12.592238
 31
0.0
  0
LINE
  5
158
  8
0
 10
5.756219
 20
12.592238
 30
0.0
 11
6.19
 21
12.592238
 31
0.0
  0
LINE
  5
159
  8
0
 10
6.496
 20
12.592238
 30
0.0
 11
6.946387
 21
12.592238
 31
0.0
  0
LINE
  5
15A
  8
0
 10
6.946387
 20
12.592238
 30
0.0
 11
7.021871
 21
12.592238
 31
0.0
  0
LINE
  5
15B
  8
0
 10
7.021871
 20
12.592238
 30
0.0
 11
8.08009
 21
12.592238
 31
0.0
  0
LINE
  5
15C
  8
0
 10
8.08009
 20
12.592238
 30
0.0
 11
8.69
 21
12.592238
 31
0.0
  0
LINE
  5
15D
  8
0
 10
8.996
 20
12.592238
 30
0.0
 11
9.640982
 21
12.592238
 31
0.0
  0
LINE
  5
15E
  8
0
 10
9.640982
 20
12.592238
 30
0.0
 11
9.776
 21
12.592238
 31
0.0
  0
LINE
  5
15F
  8
0
 10
9.776
 20
12.592238
 30
0.0
 11
10.41
 21
12.592238
 31
0.0
  0
LINE
  5
160
  8
0
 10
10.41
 20
12.592238
 30
0.0
 11
10.450255
 21
12.592238
 31
0.0
  0
LINE
  5
161
  8
0
 10
10.450255
 20
12.592238
 30
0.0
 11
11.19
 21
12.592238
 31
0.0
  0
LINE
  5
162
  8
0
 10
11.496
 20
12.592238
 30
0.0
 11
12.047032
 21
12.592238
 31
0.0
  0
LINE
  5
163
  8
0
 10
12.047032
 20
12.592238
 30
0.0
 11
13.105252
 21
12.592238
 31
0.0
  0
LINE
  5
164
  8
0
 10
13.105252
 20
12.592238
 30
0.0
 11
13.180735
 21
12.592238
 31
0.0
  0
LINE
  5
165
  8
0
 10
13.180735
 20
12.592238
 30
0.0
 11
13.58417
 21
12.592238
 31
0.0
  0
LINE
  5
166
  8
0
 10
13.58417
 20
12.592238
 30
0.0
 11
13.662601
 21
12.592238
 31
0.0
  0
LINE
  5
167
  8
0
 10
13.662601
 20
12.592238
 30
0.0
 11
13.678288
 21
12.592238
 31
0.0
  0
LINE
  5
168
  8
0
 10
13.678288
 20
12.592238
 30
0.0
 11
14.626
 21
12.592238
 31
0.0
  0
ENDSEC
  0
EOF
