  0
SECTION
  2
HEADER
  9
$ACADVER
  1
AC1009
  9
$DWGCODEPAGE
  3
ANSI_1252
  9
$INSBASE
 10
0.0
 20
0.0
 30
0.0
  9
$EXTMIN
 10
1e+20
 20
1e+20
 30
1e+20
  9
$EXTMAX
 10
-1e+20
 20
-1e+20
 30
-1e+20
  9
$LIMMIN
 10
0.0
 20
0.0
  9
$LIMMAX
 10
420.0
 20
297.0
  9
$ORTHOMODE
 70
0
  9
$REGENMODE
 70
1
  9
$FILLMODE
 70
1
  9
$DRAGMODE
 70
2
  9
$QTEXTMODE
 70
0
  9
$MIRRTEXT
 70
1
  9
$OSMODE
 70
20583
  9
$LTSCALE
 40
1.0
  9
$ATTMODE
 70
1
  9
$TEXTSIZE
 40
2.5
  9
$TRACEWID
 40
1.0
  9
$TEXTSTYLE
  7
Standard
  9
$CLAYER
  8
0
  9
$CELTYPE
  6
ByLayer
  9
$CECOLOR
 62
256
  9
$DIMSCALE
 40
1.0
  9
$DIMASZ
 40
2.5
  9
$DIMEXO
 40
0.625
  9
$DIMDLI
 40
3.75
  9
$DIMRND
 40
0.0
  9
$DIMDLE
 40
0.0
  9
$DIMEXE
 40
1.25
  9
$DIMTP
 40
0.0
  9
$DIMTM
 40
0.0
  9
$DIMTXT
 40
2.5
  9
$DIMCEN
 40
2.5
  9
$DIMTSZ
 40
0.0
  9
$DIMTOL
 70
0
  9
$DIMLIM
 70
0
  9
$DIMTIH
 70
0
  9
$DIMTOH
 70
0
  9
$DIMSE1
 70
0
  9
$DIMSE2
 70
0
  9
$DIMTAD
 70
1
  9
$DIMZIN
 70
8
  9
$DIMBLK
  1

  9
$DIMASO
 70
1
  9
$DIMSHO
 70
1
  9
$DIMPOST
  1

  9
$DIMAPOST
  1

  9
$DIMALT
 70
0
  9
$DIMALTD
 70
3
  9
$DIMALTF
 40
0.03937007874
  9
$DIMLFAC
 40
1.0
  9
$DIMTOFL
 70
1
  9
$DIMTVP
 40
0.0
  9
$DIMTIX
 70
0
  9
$DIMSOXD
 70
0
  9
$DIMSAH
 70
0
  9
$DIMBLK1
  1

  9
$DIMBLK2
  1

  9
$DIMSTYLE
  2
ISO-25
  9
$DIMCLRD
 70
0
  9
$DIMCLRE
 70
0
  9
$DIMCLRT
 70
0
  9
$DIMTFAC
 40
1.0
  9
$DIMGAP
 40
0.625
  9
$COORDS
 70
1
  9
$ATTDIA
 70
0
  9
$ATTREQ
 70
1
  9
$HANDLING
 70
1
  9
$LUNITS
 70
2
  9
$LUPREC
 70
4
  9
$SKETCHINC
 40
1.0
  9
$FILLETRAD
 40
10.0
  9
$AUNITS
 70
0
  9
$AUPREC
 70
2
  9
$MENU
  1
.
  9
$ELEVATION
 40
0.0
  9
$PELEVATION
 40
0.0
  9
$THICKNESS
 40
0.0
  9
$LIMCHECK
 70
0
  9
$CHAMFERA
 40
0.0
  9
$CHAMFERB
 40
0.0
  9
$SKPOLY
 70
0
  9
$TDCREATE
 40
2460887.627071759
  9
$TDUPDATE
 40
2460887.627071759
  9
$TDINDWG
 40
0.0
  9
$TDUSRTIMER
 40
0.0
  9
$USRTIMER
 70
1
  9
$ANGBASE
 50
0.0
  9
$ANGDIR
 70
0
  9
$PDMODE
 70
0
  9
$PDSIZE
 40
0.0
  9
$PLINEWID
 40
0.0
  9
$SPLFRAME
 70
0
  9
$SPLINETYPE
 70
6
  9
$SPLINESEGS
 70
8
  9
$HANDSEED
  5
51
  9
$SURFTAB1
 70
6
  9
$SURFTAB2
 70
6
  9
$SURFTYPE
 70
6
  9
$SURFU
 70
6
  9
$SURFV
 70
6
  9
$UCSNAME
  2

  9
$UCSORG
 10
0.0
 20
0.0
 30
0.0
  9
$UCSXDIR
 10
1.0
 20
0.0
 30
0.0
  9
$UCSYDIR
 10
0.0
 20
1.0
 30
0.0
  9
$PUCSNAME
  2

  9
$PUCSORG
 10
0.0
 20
0.0
 30
0.0
  9
$PUCSXDIR
 10
1.0
 20
0.0
 30
0.0
  9
$PUCSYDIR
 10
0.0
 20
1.0
 30
0.0
  9
$USERI1
 70
0
  9
$USERI2
 70
0
  9
$USERI3
 70
0
  9
$USERI4
 70
0
  9
$USERI5
 70
0
  9
$USERR1
 40
0.0
  9
$USERR2
 40
0.0
  9
$USERR3
 40
0.0
  9
$USERR4
 40
0.0
  9
$USERR5
 40
0.0
  9
$WORLDVIEW
 70
1
  9
$SHADEDGE
 70
3
  9
$SHADEDIF
 70
70
  9
$TILEMODE
 70
1
  9
$MAXACTVP
 70
64
  9
$PLIMCHECK
 70
0
  9
$PEXTMIN
 10
1e+20
 20
1e+20
 30
1e+20
  9
$PEXTMAX
 10
-1e+20
 20
-1e+20
 30
-1e+20
  9
$PLIMMIN
 10
0.0
 20
0.0
  9
$PLIMMAX
 10
420.0
 20
297.0
  9
$UNITMODE
 70
0
  9
$VISRETAIN
 70
1
  9
$PLINEGEN
 70
0
  9
$PSLTSCALE
 70
1
  0
ENDSEC
  0
SECTION
  2
TABLES
  0
TABLE
  2
VPORT
 70
1
  0
VPORT
  5
23
  2
*Active
 70
0
 10
0.0
 20
0.0
 11
1.0
 21
1.0
 12
0.0
 22
0.0
 13
0.0
 23
0.0
 14
0.5
 24
0.5
 15
0.5
 25
0.5
 16
0.0
 26
0.0
 36
1.0
 17
0.0
 27
0.0
 37
0.0
 40
1000.0
 41
1.34
 42
50.0
 43
0.0
 44
0.0
 50
0.0
 51
0.0
 71
0
 72
1000
 73
1
 74
3
 75
0
 76
0
 77
0
 78
0
  0
ENDTAB
  0
TABLE
  2
LTYPE
 70
3
  0
LTYPE
  5
24
  2
ByBlock
 70
0
  3

 72
65
 73
0
 40
0.0
  0
LTYPE
  5
25
  2
ByLayer
 70
0
  3

 72
65
 73
0
 40
0.0
  0
LTYPE
  5
26
  2
Continuous
 70
0
  3

 72
65
 73
0
 40
0.0
  0
ENDTAB
  0
TABLE
  2
LAYER
 70
2
  0
LAYER
  5
27
  2
0
 70
0
 62
7
  6
Continuous
  0
LAYER
  5
28
  2
Defpoints
 70
0
 62
7
  6
Continuous
  0
ENDTAB
  0
TABLE
  2
STYLE
 70
1
  0
STYLE
  5
29
  2
Standard
 70
0
 40
0.0
 41
1.0
 50
0.0
 71
0
 42
2.5
  3
txt
  4

  0
ENDTAB
  0
TABLE
  2
VIEW
 70
0
  0
ENDTAB
  0
TABLE
  2
UCS
 70
0
  0
ENDTAB
  0
TABLE
  2
APPID
 70
3
  0
APPID
  5
2A
  2
ACAD
 70
0
  0
APPID
  5
4F
  2
HATCHBACKGROUNDCOLOR
 70
0
  0
APPID
  5
50
  2
EZDXF
 70
0
  0
ENDTAB
  0
TABLE
  2
DIMSTYLE
 70
1
  0
DIMSTYLE
105
2B
  2
Standard
 70
0
  3

  4

  5

  6

  7

 40
1.0
 41
2.5
 42
0.625
 43
3.75
 44
1.25
 45
0.0
 46
0.0
 47
0.0
 48
0.0
140
2.5
141
2.5
142
0.0
143
0.03937007874
144
1.0
145
0.0
146
1.0
147
0.625
 71
0
 72
0
 73
0
 74
0
 75
0
 76
0
 77
1
 78
8
170
0
171
3
172
1
173
0
174
0
175
0
176
0
177
0
178
0
  0
ENDTAB
  0
ENDSEC
  0
SECTION
  2
BLOCKS
  0
BLOCK
  5
18
  8
0
  2
$Model_Space
 70
0
 10
0.0
 20
0.0
 30
0.0
  3
$Model_Space
  1

1001
EZDXF
1000
CREATED_BY_EZDXF
1000
1.4.2 @ 2025-07-30T18:02:59.556253+00:00
1000
WRITTEN_BY_EZDXF
1000
1.4.2 @ 2025-07-30T18:02:59.559355+00:00
  0
ENDBLK
  5
19
  8
0
  0
BLOCK
  5
1C
  8
0
  2
$Paper_Space
 70
0
 10
0.0
 20
0.0
 30
0.0
  3
$Paper_Space
  1

  0
ENDBLK
  5
1D
  8
0
  0
ENDSEC
  0
SECTION
  2
ENTITIES
  0
LINE
  5
2D
  8
0
 10
2.139387
 20
0.443977
 30
0.0
 11
1.324424
 21
0.559283
 31
0.0
  0
LINE
  5
2E
  8
0
 10
2.139387
 20
0.443977
 30
0.0
 11
1.324424
 21
0.559283
 31
0.0
  0
LINE
  5
2F
  8
0
 10
1.123988
 20
0.640696
 30
0.0
 11
0.806799
 21
0.85731
 31
0.0
  0
LINE
  5
30
  8
0
 10
0.806799
 20
0.85731
 30
0.0
 11
0.555871
 21
1.356218
 31
0.0
  0
LINE
  5
31
  8
0
 10
0.555871
 20
1.356218
 30
0.0
 11
1.123988
 21
0.640696
 31
0.0
  0
LINE
  5
32
  8
0
 10
0.443731
 20
2.32275
 30
0.0
 11
0.464521
 21
3.14756
 31
0.0
  0
LINE
  5
33
  8
0
 10
0.489089
 20
4.122275
 30
0.0
 11
0.509879
 21
4.947086
 31
0.0
  0
LINE
  5
34
  8
0
 10
0.534437
 20
5.921378
 30
0.0
 11
0.555238
 21
6.74662
 31
0.0
  0
LINE
  5
35
  8
0
 10
0.579798
 20
7.721035
 30
0.0
 11
0.561569
 21
8.546038
 31
0.0
  0
LINE
  5
36
  8
0
 10
0.531759
 20
9.519607
 30
0.0
 11
0.506498
 21
10.344577
 31
0.0
  0
LINE
  5
37
  8
0
 10
0.476656
 20
11.31919
 30
0.0
 11
0.451402
 21
12.143962
 31
0.0
  0
LINE
  5
38
  8
0
 10
0.452414
 20
13.118322
 30
0.0
 11
0.592509
 21
13.927783
 31
0.0
  0
LINE
  5
39
  8
0
 10
1.240861
 20
14.601079
 30
0.0
 11
2.049441
 21
14.740069
 31
0.0
  0
LINE
  5
3A
  8
0
 10
3.023804
 20
14.726574
 30
0.0
 11
3.848023
 21
14.697917
 31
0.0
  0
LINE
  5
3B
  8
0
 10
4.822303
 20
14.664042
 30
0.0
 11
5.647068
 21
14.635366
 31
0.0
  0
LINE
  5
3C
  8
0
 10
6.621856
 20
14.626085
 30
0.0
 11
7.447338
 21
14.627278
 31
0.0
  0
LINE
  5
3D
  8
0
 10
8.422083
 20
14.628686
 30
0.0
 11
9.2474
 21
14.629878
 31
0.0
  0
LINE
  5
3E
  8
0
 10
10.221424
 20
14.631285
 30
0.0
 11
11.046826
 21
14.632477
 31
0.0
  0
LINE
  5
3F
  8
0
 10
12.021537
 20
14.633885
 30
0.0
 11
12.847053
 21
14.635078
 31
0.0
  0
LINE
  5
40
  8
0
 10
13.821615
 20
14.636485
 30
0.0
 11
14.62622
 21
14.617182
 31
0.0
  0
LINE
  5
41
  8
0
 10
14.62621
 20
13.642075
 30
0.0
 11
14.6262
 21
12.817084
 31
0.0
  0
LINE
  5
42
  8
0
 10
14.62619
 20
11.841915
 30
0.0
 11
14.62618
 21
11.0169
 31
0.0
  0
LINE
  5
43
  8
0
 10
14.62617
 20
10.042072
 30
0.0
 11
14.62616
 21
9.216889
 31
0.0
  0
LINE
  5
44
  8
0
 10
14.62615
 20
8.241843
 30
0.0
 11
14.62614
 21
7.416792
 31
0.0
  0
LINE
  5
45
  8
0
 10
14.62613
 20
6.442415
 30
0.0
 11
14.632724
 21
5.61705
 31
0.0
  0
LINE
  5
46
  8
0
 10
14.667052
 20
4.643037
 30
0.0
 11
14.696114
 21
3.818447
 31
0.0
  0
LINE
  5
47
  8
0
 10
14.730457
 20
2.843993
 30
0.0
 11
14.71919
 21
2.021016
 31
0.0
  0
LINE
  5
48
  8
0
 10
14.528892
 20
1.071885
 30
0.0
 11
13.897945
 21
0.579631
 31
0.0
  0
LINE
  5
49
  8
0
 10
12.934884
 20
0.446496
 30
0.0
 11
12.110049
 21
0.466275
 31
0.0
  0
LINE
  5
4A
  8
0
 10
11.135304
 20
0.489649
 30
0.0
 11
10.310469
 21
0.509429
 31
0.0
  0
LINE
  5
4B
  8
0
 10
9.336134
 20
0.532793
 30
0.0
 11
8.510872
 21
0.552583
 31
0.0
  0
LINE
  5
4C
  8
0
 10
7.536423
 20
0.57595
 30
0.0
 11
6.711411
 21
0.567308
 31
0.0
  0
LINE
  5
4D
  8
0
 10
5.737873
 20
0.536497
 30
0.0
 11
4.911901
 21
0.510357
 31
0.0
  0
LINE
  5
4E
  8
0
 10
3.938332
 20
0.479545
 30
0.0
 11
3.113589
 21
0.453443
 31
0.0
  0
ENDSEC
  0
EOF
