  0
SECTION
  2
HEADER
  9
$ACADVER
  1
AC1009
  9
$DWGCODEPAGE
  3
ANSI_1252
  9
$INSBASE
 10
0.0
 20
0.0
 30
0.0
  9
$EXTMIN
 10
1e+20
 20
1e+20
 30
1e+20
  9
$EXTMAX
 10
-1e+20
 20
-1e+20
 30
-1e+20
  9
$LIMMIN
 10
0.0
 20
0.0
  9
$LIMMAX
 10
420.0
 20
297.0
  9
$ORTHOMODE
 70
0
  9
$REGENMODE
 70
1
  9
$FILLMODE
 70
1
  9
$DRAGMODE
 70
2
  9
$QTEXTMODE
 70
0
  9
$MIRRTEXT
 70
1
  9
$OSMODE
 70
20583
  9
$LTSCALE
 40
1.0
  9
$ATTMODE
 70
1
  9
$TEXTSIZE
 40
2.5
  9
$TRACEWID
 40
1.0
  9
$TEXTSTYLE
  7
Standard
  9
$CLAYER
  8
0
  9
$CELTYPE
  6
ByLayer
  9
$CECOLOR
 62
256
  9
$DIMSCALE
 40
1.0
  9
$DIMASZ
 40
2.5
  9
$DIMEXO
 40
0.625
  9
$DIMDLI
 40
3.75
  9
$DIMRND
 40
0.0
  9
$DIMDLE
 40
0.0
  9
$DIMEXE
 40
1.25
  9
$DIMTP
 40
0.0
  9
$DIMTM
 40
0.0
  9
$DIMTXT
 40
2.5
  9
$DIMCEN
 40
2.5
  9
$DIMTSZ
 40
0.0
  9
$DIMTOL
 70
0
  9
$DIMLIM
 70
0
  9
$DIMTIH
 70
0
  9
$DIMTOH
 70
0
  9
$DIMSE1
 70
0
  9
$DIMSE2
 70
0
  9
$DIMTAD
 70
1
  9
$DIMZIN
 70
8
  9
$DIMBLK
  1

  9
$DIMASO
 70
1
  9
$DIMSHO
 70
1
  9
$DIMPOST
  1

  9
$DIMAPOST
  1

  9
$DIMALT
 70
0
  9
$DIMALTD
 70
3
  9
$DIMALTF
 40
0.03937007874
  9
$DIMLFAC
 40
1.0
  9
$DIMTOFL
 70
1
  9
$DIMTVP
 40
0.0
  9
$DIMTIX
 70
0
  9
$DIMSOXD
 70
0
  9
$DIMSAH
 70
0
  9
$DIMBLK1
  1

  9
$DIMBLK2
  1

  9
$DIMSTYLE
  2
ISO-25
  9
$DIMCLRD
 70
0
  9
$DIMCLRE
 70
0
  9
$DIMCLRT
 70
0
  9
$DIMTFAC
 40
1.0
  9
$DIMGAP
 40
0.625
  9
$COORDS
 70
1
  9
$ATTDIA
 70
0
  9
$ATTREQ
 70
1
  9
$HANDLING
 70
1
  9
$LUNITS
 70
2
  9
$LUPREC
 70
4
  9
$SKETCHINC
 40
1.0
  9
$FILLETRAD
 40
10.0
  9
$AUNITS
 70
0
  9
$AUPREC
 70
2
  9
$MENU
  1
.
  9
$ELEVATION
 40
0.0
  9
$PELEVATION
 40
0.0
  9
$THICKNESS
 40
0.0
  9
$LIMCHECK
 70
0
  9
$CHAMFERA
 40
0.0
  9
$CHAMFERB
 40
0.0
  9
$SKPOLY
 70
0
  9
$TDCREATE
 40
2460887.627280093
  9
$TDUPDATE
 40
2460887.627280093
  9
$TDINDWG
 40
0.0
  9
$TDUSRTIMER
 40
0.0
  9
$USRTIMER
 70
1
  9
$ANGBASE
 50
0.0
  9
$ANGDIR
 70
0
  9
$PDMODE
 70
0
  9
$PDSIZE
 40
0.0
  9
$PLINEWID
 40
0.0
  9
$SPLFRAME
 70
0
  9
$SPLINETYPE
 70
6
  9
$SPLINESEGS
 70
8
  9
$HANDSEED
  5
23C
  9
$SURFTAB1
 70
6
  9
$SURFTAB2
 70
6
  9
$SURFTYPE
 70
6
  9
$SURFU
 70
6
  9
$SURFV
 70
6
  9
$UCSNAME
  2

  9
$UCSORG
 10
0.0
 20
0.0
 30
0.0
  9
$UCSXDIR
 10
1.0
 20
0.0
 30
0.0
  9
$UCSYDIR
 10
0.0
 20
1.0
 30
0.0
  9
$PUCSNAME
  2

  9
$PUCSORG
 10
0.0
 20
0.0
 30
0.0
  9
$PUCSXDIR
 10
1.0
 20
0.0
 30
0.0
  9
$PUCSYDIR
 10
0.0
 20
1.0
 30
0.0
  9
$USERI1
 70
0
  9
$USERI2
 70
0
  9
$USERI3
 70
0
  9
$USERI4
 70
0
  9
$USERI5
 70
0
  9
$USERR1
 40
0.0
  9
$USERR2
 40
0.0
  9
$USERR3
 40
0.0
  9
$USERR4
 40
0.0
  9
$USERR5
 40
0.0
  9
$WORLDVIEW
 70
1
  9
$SHADEDGE
 70
3
  9
$SHADEDIF
 70
70
  9
$TILEMODE
 70
1
  9
$MAXACTVP
 70
64
  9
$PLIMCHECK
 70
0
  9
$PEXTMIN
 10
1e+20
 20
1e+20
 30
1e+20
  9
$PEXTMAX
 10
-1e+20
 20
-1e+20
 30
-1e+20
  9
$PLIMMIN
 10
0.0
 20
0.0
  9
$PLIMMAX
 10
420.0
 20
297.0
  9
$UNITMODE
 70
0
  9
$VISRETAIN
 70
1
  9
$PLINEGEN
 70
0
  9
$PSLTSCALE
 70
1
  0
ENDSEC
  0
SECTION
  2
TABLES
  0
TABLE
  2
VPORT
 70
1
  0
VPORT
  5
23
  2
*Active
 70
0
 10
0.0
 20
0.0
 11
1.0
 21
1.0
 12
0.0
 22
0.0
 13
0.0
 23
0.0
 14
0.5
 24
0.5
 15
0.5
 25
0.5
 16
0.0
 26
0.0
 36
1.0
 17
0.0
 27
0.0
 37
0.0
 40
1000.0
 41
1.34
 42
50.0
 43
0.0
 44
0.0
 50
0.0
 51
0.0
 71
0
 72
1000
 73
1
 74
3
 75
0
 76
0
 77
0
 78
0
  0
ENDTAB
  0
TABLE
  2
LTYPE
 70
3
  0
LTYPE
  5
24
  2
ByBlock
 70
0
  3

 72
65
 73
0
 40
0.0
  0
LTYPE
  5
25
  2
ByLayer
 70
0
  3

 72
65
 73
0
 40
0.0
  0
LTYPE
  5
26
  2
Continuous
 70
0
  3

 72
65
 73
0
 40
0.0
  0
ENDTAB
  0
TABLE
  2
LAYER
 70
2
  0
LAYER
  5
27
  2
0
 70
0
 62
7
  6
Continuous
  0
LAYER
  5
28
  2
Defpoints
 70
0
 62
7
  6
Continuous
  0
ENDTAB
  0
TABLE
  2
STYLE
 70
1
  0
STYLE
  5
29
  2
Standard
 70
0
 40
0.0
 41
1.0
 50
0.0
 71
0
 42
2.5
  3
txt
  4

  0
ENDTAB
  0
TABLE
  2
VIEW
 70
0
  0
ENDTAB
  0
TABLE
  2
UCS
 70
0
  0
ENDTAB
  0
TABLE
  2
APPID
 70
3
  0
APPID
  5
2A
  2
ACAD
 70
0
  0
APPID
  5
23A
  2
HATCHBACKGROUNDCOLOR
 70
0
  0
APPID
  5
23B
  2
EZDXF
 70
0
  0
ENDTAB
  0
TABLE
  2
DIMSTYLE
 70
1
  0
DIMSTYLE
105
2B
  2
Standard
 70
0
  3

  4

  5

  6

  7

 40
1.0
 41
2.5
 42
0.625
 43
3.75
 44
1.25
 45
0.0
 46
0.0
 47
0.0
 48
0.0
140
2.5
141
2.5
142
0.0
143
0.03937007874
144
1.0
145
0.0
146
1.0
147
0.625
 71
0
 72
0
 73
0
 74
0
 75
0
 76
0
 77
1
 78
8
170
0
171
3
172
1
173
0
174
0
175
0
176
0
177
0
178
0
  0
ENDTAB
  0
ENDSEC
  0
SECTION
  2
BLOCKS
  0
BLOCK
  5
18
  8
0
  2
$Model_Space
 70
0
 10
0.0
 20
0.0
 30
0.0
  3
$Model_Space
  1

1001
EZDXF
1000
CREATED_BY_EZDXF
1000
1.4.2 @ 2025-07-30T18:03:17.662512+00:00
1000
WRITTEN_BY_EZDXF
1000
1.4.2 @ 2025-07-30T18:03:17.678138+00:00
  0
ENDBLK
  5
19
  8
0
  0
BLOCK
  5
1C
  8
0
  2
$Paper_Space
 70
0
 10
0.0
 20
0.0
 30
0.0
  3
$Paper_Space
  1

  0
ENDBLK
  5
1D
  8
0
  0
ENDSEC
  0
SECTION
  2
ENTITIES
  0
LINE
  5
2D
  8
0
 10
2.378517
 20
0.430706
 30
0.0
 11
3.133486
 21
0.454073
 31
0.0
  0
LINE
  5
2E
  8
0
 10
2.378517
 20
0.430706
 30
0.0
 11
3.133486
 21
0.454073
 31
0.0
  0
LINE
  5
2F
  8
0
 10
3.604404
 20
0.468977
 30
0.0
 11
5.478312
 21
0.528282
 31
0.0
  0
LINE
  5
30
  8
0
 10
5.649227
 20
0.533692
 30
0.0
 11
8.594051
 21
0.550588
 31
0.0
  0
LINE
  5
31
  8
0
 10
8.602058
 20
0.550396
 30
0.0
 11
10.47651
 21
0.505447
 31
0.0
  0
LINE
  5
32
  8
0
 10
11.101355
 20
0.490463
 30
0.0
 11
12.974407
 21
0.445548
 31
0.0
  0
LINE
  5
33
  8
0
 10
12.974407
 20
0.445548
 30
0.0
 11
12.975787
 21
0.445588
 31
0.0
  0
LINE
  5
34
  8
0
 10
12.977791
 20
0.445467
 30
0.0
 11
13.007639
 21
0.444855
 31
0.0
  0
LINE
  5
35
  8
0
 10
13.007639
 20
0.444855
 30
0.0
 11
13.017625
 21
0.444646
 31
0.0
  0
LINE
  5
36
  8
0
 10
13.017625
 20
0.444646
 30
0.0
 11
13.835896
 21
0.559294
 31
0.0
  0
LINE
  5
37
  8
0
 10
13.835896
 20
0.559294
 30
0.0
 11
14.296912
 21
0.785862
 31
0.0
  0
LINE
  5
38
  8
0
 10
14.296912
 20
0.785862
 30
0.0
 11
14.590531
 21
1.220965
 31
0.0
  0
LINE
  5
39
  8
0
 10
14.590531
 20
1.220965
 30
0.0
 11
14.718953
 21
2.019166
 31
0.0
  0
LINE
  5
3A
  8
0
 10
14.718953
 20
2.019166
 30
0.0
 11
13.017625
 21
0.444646
 31
0.0
  0
LINE
  5
3B
  8
0
 10
14.745716
 20
2.41105
 30
0.0
 11
14.67971
 21
4.283887
 31
0.0
  0
LINE
  5
3C
  8
0
 10
14.670904
 20
4.533732
 30
0.0
 11
14.626161
 21
9.282945
 31
0.0
  0
LINE
  5
3D
  8
0
 10
14.626168
 20
9.908945
 30
0.0
 11
14.626189
 21
11.782945
 31
0.0
  0
LINE
  5
3E
  8
0
 10
14.62619
 20
11.863945
 30
0.0
 11
14.62622
 21
14.591945
 31
0.0
  0
LINE
  5
3F
  8
0
 10
14.355612
 20
14.637257
 30
0.0
 11
12.480926
 21
14.634549
 31
0.0
  0
LINE
  5
40
  8
0
 10
12.014927
 20
14.633876
 30
0.0
 11
7.339931
 21
14.627123
 31
0.0
  0
LINE
  5
41
  8
0
 10
7.342535
 20
14.627126
 30
0.0
 11
7.342535
 21
14.627126
 31
0.0
  0
LINE
  5
42
  8
0
 10
6.855804
 20
14.626423
 30
0.0
 11
5.992546
 21
14.625176
 31
0.0
  0
LINE
  5
43
  8
0
 10
5.992546
 20
14.625176
 30
0.0
 11
5.949397
 21
14.62549
 31
0.0
  0
LINE
  5
44
  8
0
 10
5.949397
 20
14.62549
 30
0.0
 11
4.981512
 21
14.658507
 31
0.0
  0
LINE
  5
45
  8
0
 10
4.821608
 20
14.664066
 30
0.0
 11
2.091588
 21
14.74331
 31
0.0
  0
LINE
  5
46
  8
0
 10
1.858945
 20
14.72542
 30
0.0
 11
0.981684
 21
14.471784
 31
0.0
  0
LINE
  5
47
  8
0
 10
0.981684
 20
14.471784
 30
0.0
 11
0.524693
 21
13.671721
 31
0.0
  0
LINE
  5
48
  8
0
 10
0.524693
 20
13.671721
 30
0.0
 11
1.858945
 21
14.72542
 31
0.0
  0
LINE
  5
49
  8
0
 10
0.449775
 20
13.052448
 30
0.0
 11
0.564242
 21
8.45874
 31
0.0
  0
LINE
  5
4A
  8
0
 10
0.576612
 20
8.054749
 30
0.0
 11
0.540969
 21
6.18055
 31
0.0
  0
LINE
  5
4B
  8
0
 10
0.534922
 20
5.940626
 30
0.0
 11
0.466158
 21
3.212492
 31
0.0
  0
LINE
  5
4C
  8
0
 10
0.466223
 20
3.215093
 30
0.0
 11
0.466223
 21
3.215093
 31
0.0
  0
LINE
  5
4D
  8
0
 10
0.462222
 20
3.056361
 30
0.0
 11
0.541918
 21
1.431321
 31
0.0
  0
LINE
  5
4E
  8
0
 10
0.541918
 20
1.431321
 30
0.0
 11
0.806799
 21
0.85731
 31
0.0
  0
LINE
  5
4F
  8
0
 10
0.806799
 20
0.85731
 30
0.0
 11
1.430926
 21
0.537452
 31
0.0
  0
LINE
  5
50
  8
0
 10
1.430926
 20
0.537452
 30
0.0
 11
2.37446
 21
0.430931
 31
0.0
  0
LINE
  5
51
  8
0
 10
2.37446
 20
0.430931
 30
0.0
 11
0.462222
 21
3.056361
 31
0.0
  0
LINE
  5
52
  8
0
 10
2.37446
 20
0.430931
 30
0.0
 11
2.378517
 21
0.430706
 31
0.0
  0
LINE
  5
53
  8
0
 10
2.592849
 20
0.437
 30
0.0
 11
2.592849
 21
0.509595
 31
0.0
  0
LINE
  5
54
  8
0
 10
2.592849
 20
0.437
 30
0.0
 11
2.592849
 21
0.509595
 31
0.0
  0
LINE
  5
55
  8
0
 10
2.592849
 20
0.509595
 30
0.0
 11
2.592849
 21
0.787817
 31
0.0
  0
LINE
  5
56
  8
0
 10
2.592849
 20
0.787817
 30
0.0
 11
2.592849
 21
2.178924
 31
0.0
  0
LINE
  5
57
  8
0
 10
2.592849
 20
2.178924
 30
0.0
 11
2.592849
 21
2.218832
 31
0.0
  0
LINE
  5
58
  8
0
 10
2.592849
 20
2.218832
 30
0.0
 11
2.592849
 21
2.503348
 31
0.0
  0
LINE
  5
59
  8
0
 10
2.592849
 20
2.503348
 30
0.0
 11
2.592849
 21
2.576329
 31
0.0
  0
LINE
  5
5A
  8
0
 10
2.592849
 20
2.576329
 30
0.0
 11
2.592849
 21
2.640674
 31
0.0
  0
LINE
  5
5B
  8
0
 10
2.592849
 20
2.640674
 30
0.0
 11
2.592849
 21
4.021508
 31
0.0
  0
LINE
  5
5C
  8
0
 10
2.592849
 20
4.021508
 30
0.0
 11
2.592849
 21
4.297675
 31
0.0
  0
LINE
  5
5D
  8
0
 10
2.592849
 20
4.297675
 30
0.0
 11
2.592849
 21
4.407601
 31
0.0
  0
LINE
  5
5E
  8
0
 10
2.592849
 20
4.407601
 30
0.0
 11
2.592849
 21
4.41521
 31
0.0
  0
LINE
  5
5F
  8
0
 10
2.592849
 20
4.41521
 30
0.0
 11
2.592849
 21
4.416774
 31
0.0
  0
LINE
  5
60
  8
0
 10
2.592849
 20
4.416774
 30
0.0
 11
2.592849
 21
4.421781
 31
0.0
  0
LINE
  5
61
  8
0
 10
2.592849
 20
4.421781
 30
0.0
 11
2.592849
 21
4.427
 31
0.0
  0
LINE
  5
62
  8
0
 10
2.592849
 20
4.427
 30
0.0
 11
2.592849
 21
4.427772
 31
0.0
  0
LINE
  5
63
  8
0
 10
2.592849
 20
4.427772
 30
0.0
 11
2.592849
 21
5.746228
 31
0.0
  0
LINE
  5
64
  8
0
 10
2.592849
 20
5.746228
 30
0.0
 11
2.592849
 21
5.752936
 31
0.0
  0
LINE
  5
65
  8
0
 10
2.592849
 20
5.752936
 30
0.0
 11
2.592849
 21
5.7579
 31
0.0
  0
LINE
  5
66
  8
0
 10
2.592849
 20
5.7579
 30
0.0
 11
2.592849
 21
5.763938
 31
0.0
  0
LINE
  5
67
  8
0
 10
2.592849
 20
5.763938
 30
0.0
 11
2.592849
 21
5.766894
 31
0.0
  0
LINE
  5
68
  8
0
 10
2.592849
 20
5.766894
 30
0.0
 11
2.592849
 21
5.877119
 31
0.0
  0
LINE
  5
69
  8
0
 10
2.592849
 20
5.877119
 30
0.0
 11
2.592849
 21
6.153286
 31
0.0
  0
LINE
  5
6A
  8
0
 10
2.592849
 20
6.153286
 30
0.0
 11
2.592849
 21
7.53412
 31
0.0
  0
LINE
  5
6B
  8
0
 10
2.592849
 20
7.53412
 30
0.0
 11
2.592849
 21
7.598187
 31
0.0
  0
LINE
  5
6C
  8
0
 10
2.592849
 20
7.598187
 30
0.0
 11
2.592849
 21
7.671168
 31
0.0
  0
LINE
  5
6D
  8
0
 10
2.592849
 20
7.671168
 30
0.0
 11
2.592849
 21
7.858948
 31
0.0
  0
LINE
  5
6E
  8
0
 10
2.592849
 20
7.858948
 30
0.0
 11
2.592849
 21
7.955684
 31
0.0
  0
LINE
  5
6F
  8
0
 10
2.592849
 20
7.955684
 30
0.0
 11
2.592849
 21
8.008897
 31
0.0
  0
LINE
  5
70
  8
0
 10
2.592849
 20
8.008897
 30
0.0
 11
2.592849
 21
9.389731
 31
0.0
  0
LINE
  5
71
  8
0
 10
2.592849
 20
9.389731
 30
0.0
 11
2.592849
 21
9.665898
 31
0.0
  0
LINE
  5
72
  8
0
 10
2.592849
 20
9.665898
 30
0.0
 11
2.592849
 21
9.718832
 31
0.0
  0
LINE
  5
73
  8
0
 10
2.592849
 20
9.718832
 30
0.0
 11
2.592849
 21
9.791813
 31
0.0
  0
LINE
  5
74
  8
0
 10
2.592849
 20
9.791813
 30
0.0
 11
2.592849
 21
9.864507
 31
0.0
  0
LINE
  5
75
  8
0
 10
2.592849
 20
9.864507
 30
0.0
 11
2.592849
 21
11.245342
 31
0.0
  0
LINE
  5
76
  8
0
 10
2.592849
 20
11.245342
 30
0.0
 11
2.592849
 21
11.521508
 31
0.0
  0
LINE
  5
77
  8
0
 10
2.592849
 20
11.521508
 30
0.0
 11
2.592849
 21
11.554961
 31
0.0
  0
LINE
  5
78
  8
0
 10
2.592849
 20
11.554961
 30
0.0
 11
2.592849
 21
12.977542
 31
0.0
  0
LINE
  5
79
  8
0
 10
2.592849
 20
12.977542
 30
0.0
 11
2.592849
 21
13.050523
 31
0.0
  0
LINE
  5
7A
  8
0
 10
2.592849
 20
13.050523
 30
0.0
 11
2.592849
 21
13.087949
 31
0.0
  0
LINE
  5
7B
  8
0
 10
2.592849
 20
13.087949
 30
0.0
 11
2.592849
 21
13.366268
 31
0.0
  0
LINE
  5
7C
  8
0
 10
2.592849
 20
13.366268
 30
0.0
 11
2.592849
 21
14.669733
 31
0.0
  0
LINE
  5
7D
  8
0
 10
2.592849
 20
14.669733
 30
0.0
 11
2.592849
 21
14.742
 31
0.0
  0
LINE
  5
7E
  8
0
 10
5.092849
 20
0.516
 30
0.0
 11
5.092849
 21
0.683403
 31
0.0
  0
LINE
  5
7F
  8
0
 10
5.092849
 20
0.516
 30
0.0
 11
5.092849
 21
0.683403
 31
0.0
  0
LINE
  5
80
  8
0
 10
5.092849
 20
0.683403
 30
0.0
 11
5.092849
 21
0.758721
 31
0.0
  0
LINE
  5
81
  8
0
 10
5.092849
 20
0.758721
 30
0.0
 11
5.092849
 21
0.863417
 31
0.0
  0
LINE
  5
82
  8
0
 10
5.092849
 20
0.863417
 30
0.0
 11
5.092849
 21
2.261809
 31
0.0
  0
LINE
  5
83
  8
0
 10
5.092849
 20
2.261809
 30
0.0
 11
5.092849
 21
2.293755
 31
0.0
  0
LINE
  5
84
  8
0
 10
5.092849
 20
2.293755
 30
0.0
 11
5.092849
 21
2.578271
 31
0.0
  0
LINE
  5
85
  8
0
 10
5.092849
 20
2.578271
 30
0.0
 11
5.092849
 21
2.651252
 31
0.0
  0
LINE
  5
86
  8
0
 10
5.092849
 20
2.651252
 30
0.0
 11
5.092849
 21
2.713398
 31
0.0
  0
LINE
  5
87
  8
0
 10
5.092849
 20
2.713398
 30
0.0
 11
5.092849
 21
4.094232
 31
0.0
  0
LINE
  5
88
  8
0
 10
5.092849
 20
4.094232
 30
0.0
 11
5.092849
 21
4.370399
 31
0.0
  0
LINE
  5
89
  8
0
 10
5.092849
 20
4.370399
 30
0.0
 11
5.092849
 21
4.478981
 31
0.0
  0
LINE
  5
8A
  8
0
 10
5.092849
 20
4.478981
 30
0.0
 11
5.092849
 21
4.483927
 31
0.0
  0
LINE
  5
8B
  8
0
 10
5.092849
 20
4.483927
 30
0.0
 11
5.092849
 21
4.488237
 31
0.0
  0
LINE
  5
8C
  8
0
 10
5.092849
 20
4.488237
 30
0.0
 11
5.092849
 21
4.49421
 31
0.0
  0
LINE
  5
8D
  8
0
 10
5.092849
 20
4.49421
 30
0.0
 11
5.092849
 21
4.495774
 31
0.0
  0
LINE
  5
8E
  8
0
 10
5.092849
 20
4.495774
 30
0.0
 11
5.092849
 21
4.500781
 31
0.0
  0
LINE
  5
8F
  8
0
 10
5.092849
 20
4.500781
 30
0.0
 11
5.092849
 21
4.506
 31
0.0
  0
LINE
  5
90
  8
0
 10
5.092849
 20
4.506
 30
0.0
 11
5.092849
 21
4.506772
 31
0.0
  0
LINE
  5
91
  8
0
 10
5.092849
 20
4.506772
 30
0.0
 11
5.092849
 21
5.825228
 31
0.0
  0
LINE
  5
92
  8
0
 10
5.092849
 20
5.825228
 30
0.0
 11
5.092849
 21
5.831936
 31
0.0
  0
LINE
  5
93
  8
0
 10
5.092849
 20
5.831936
 30
0.0
 11
5.092849
 21
5.8369
 31
0.0
  0
LINE
  5
94
  8
0
 10
5.092849
 20
5.8369
 30
0.0
 11
5.092849
 21
5.838011
 31
0.0
  0
LINE
  5
95
  8
0
 10
5.092849
 20
5.838011
 30
0.0
 11
5.092849
 21
5.949843
 31
0.0
  0
LINE
  5
96
  8
0
 10
5.092849
 20
5.949843
 30
0.0
 11
5.092849
 21
6.22601
 31
0.0
  0
LINE
  5
97
  8
0
 10
5.092849
 20
6.22601
 30
0.0
 11
5.092849
 21
7.606844
 31
0.0
  0
LINE
  5
98
  8
0
 10
5.092849
 20
7.606844
 30
0.0
 11
5.092849
 21
7.67311
 31
0.0
  0
LINE
  5
99
  8
0
 10
5.092849
 20
7.67311
 30
0.0
 11
5.092849
 21
7.74609
 31
0.0
  0
LINE
  5
9A
  8
0
 10
5.092849
 20
7.74609
 30
0.0
 11
5.092849
 21
7.858948
 31
0.0
  0
LINE
  5
9B
  8
0
 10
5.092849
 20
7.858948
 30
0.0
 11
5.092849
 21
8.030606
 31
0.0
  0
LINE
  5
9C
  8
0
 10
5.092849
 20
8.030606
 30
0.0
 11
5.092849
 21
8.081621
 31
0.0
  0
LINE
  5
9D
  8
0
 10
5.092849
 20
8.081621
 30
0.0
 11
5.092849
 21
9.462455
 31
0.0
  0
LINE
  5
9E
  8
0
 10
5.092849
 20
9.462455
 30
0.0
 11
5.092849
 21
9.509239
 31
0.0
  0
LINE
  5
9F
  8
0
 10
5.092849
 20
9.509239
 30
0.0
 11
5.092849
 21
9.793755
 31
0.0
  0
LINE
  5
A0
  8
0
 10
5.092849
 20
9.793755
 30
0.0
 11
5.092849
 21
9.866735
 31
0.0
  0
LINE
  5
A1
  8
0
 10
5.092849
 20
9.866735
 30
0.0
 11
5.092849
 21
9.937231
 31
0.0
  0
LINE
  5
A2
  8
0
 10
5.092849
 20
9.937231
 30
0.0
 11
5.092849
 21
11.318066
 31
0.0
  0
LINE
  5
A3
  8
0
 10
5.092849
 20
11.318066
 30
0.0
 11
5.092849
 21
11.594232
 31
0.0
  0
LINE
  5
A4
  8
0
 10
5.092849
 20
11.594232
 30
0.0
 11
5.092849
 21
11.629884
 31
0.0
  0
LINE
  5
A5
  8
0
 10
5.092849
 20
11.629884
 30
0.0
 11
5.092849
 21
13.052465
 31
0.0
  0
LINE
  5
A6
  8
0
 10
5.092849
 20
13.052465
 30
0.0
 11
5.092849
 21
13.125445
 31
0.0
  0
LINE
  5
A7
  8
0
 10
5.092849
 20
13.125445
 30
0.0
 11
5.092849
 21
13.152114
 31
0.0
  0
LINE
  5
A8
  8
0
 10
5.092849
 20
13.152114
 30
0.0
 11
5.092849
 21
13.432013
 31
0.0
  0
LINE
  5
A9
  8
0
 10
5.092849
 20
13.432013
 30
0.0
 11
5.092849
 21
14.587998
 31
0.0
  0
LINE
  5
AA
  8
0
 10
5.092849
 20
14.587998
 30
0.0
 11
5.092849
 21
14.655
 31
0.0
  0
LINE
  5
AB
  8
0
 10
7.592849
 20
0.574
 30
0.0
 11
7.592849
 21
0.638581
 31
0.0
  0
LINE
  5
AC
  8
0
 10
7.592849
 20
0.574
 30
0.0
 11
7.592849
 21
0.638581
 31
0.0
  0
LINE
  5
AD
  8
0
 10
7.592849
 20
0.638581
 30
0.0
 11
7.592849
 21
0.639516
 31
0.0
  0
LINE
  5
AE
  8
0
 10
7.592849
 20
0.639516
 30
0.0
 11
7.592849
 21
0.920161
 31
0.0
  0
LINE
  5
AF
  8
0
 10
7.592849
 20
0.920161
 30
0.0
 11
7.592849
 21
2.323387
 31
0.0
  0
LINE
  5
B0
  8
0
 10
7.592849
 20
2.323387
 30
0.0
 11
7.592849
 21
2.34971
 31
0.0
  0
LINE
  5
B1
  8
0
 10
7.592849
 20
2.34971
 30
0.0
 11
7.592849
 21
2.634226
 31
0.0
  0
LINE
  5
B2
  8
0
 10
7.592849
 20
2.634226
 30
0.0
 11
7.592849
 21
2.707206
 31
0.0
  0
LINE
  5
B3
  8
0
 10
7.592849
 20
2.707206
 30
0.0
 11
7.592849
 21
2.767711
 31
0.0
  0
LINE
  5
B4
  8
0
 10
7.592849
 20
2.767711
 30
0.0
 11
7.592849
 21
4.148545
 31
0.0
  0
LINE
  5
B5
  8
0
 10
7.592849
 20
4.148545
 30
0.0
 11
7.592849
 21
4.424712
 31
0.0
  0
LINE
  5
B6
  8
0
 10
7.592849
 20
4.424712
 30
0.0
 11
7.592849
 21
4.532679
 31
0.0
  0
LINE
  5
B7
  8
0
 10
7.592849
 20
4.532679
 30
0.0
 11
7.592849
 21
4.537618
 31
0.0
  0
LINE
  5
B8
  8
0
 10
7.592849
 20
4.537618
 30
0.0
 11
7.592849
 21
4.542927
 31
0.0
  0
LINE
  5
B9
  8
0
 10
7.592849
 20
4.542927
 30
0.0
 11
7.592849
 21
4.545708
 31
0.0
  0
LINE
  5
BA
  8
0
 10
7.592849
 20
4.545708
 30
0.0
 11
7.592849
 21
4.551565
 31
0.0
  0
LINE
  5
BB
  8
0
 10
7.592849
 20
4.551565
 30
0.0
 11
7.592849
 21
4.556369
 31
0.0
  0
LINE
  5
BC
  8
0
 10
7.592849
 20
4.556369
 30
0.0
 11
7.592849
 21
4.563095
 31
0.0
  0
LINE
  5
BD
  8
0
 10
7.592849
 20
4.563095
 30
0.0
 11
7.592849
 21
4.565
 31
0.0
  0
LINE
  5
BE
  8
0
 10
7.592849
 20
4.565
 30
0.0
 11
7.592849
 21
4.565772
 31
0.0
  0
LINE
  5
BF
  8
0
 10
7.592849
 20
4.565772
 30
0.0
 11
7.592849
 21
5.884228
 31
0.0
  0
LINE
  5
C0
  8
0
 10
7.592849
 20
5.884228
 30
0.0
 11
7.592849
 21
5.887533
 31
0.0
  0
LINE
  5
C1
  8
0
 10
7.592849
 20
5.887533
 30
0.0
 11
7.592849
 21
5.890102
 31
0.0
  0
LINE
  5
C2
  8
0
 10
7.592849
 20
5.890102
 30
0.0
 11
7.592849
 21
6.004156
 31
0.0
  0
LINE
  5
C3
  8
0
 10
7.592849
 20
6.004156
 30
0.0
 11
7.592849
 21
6.280323
 31
0.0
  0
LINE
  5
C4
  8
0
 10
7.592849
 20
6.280323
 30
0.0
 11
7.592849
 21
7.661157
 31
0.0
  0
LINE
  5
C5
  8
0
 10
7.592849
 20
7.661157
 30
0.0
 11
7.592849
 21
7.729065
 31
0.0
  0
LINE
  5
C6
  8
0
 10
7.592849
 20
7.729065
 30
0.0
 11
7.592849
 21
7.802045
 31
0.0
  0
LINE
  5
C7
  8
0
 10
7.592849
 20
7.802045
 30
0.0
 11
7.592849
 21
7.858948
 31
0.0
  0
LINE
  5
C8
  8
0
 10
7.592849
 20
7.858948
 30
0.0
 11
7.592849
 21
8.086561
 31
0.0
  0
LINE
  5
C9
  8
0
 10
7.592849
 20
8.086561
 30
0.0
 11
7.592849
 21
8.135933
 31
0.0
  0
LINE
  5
CA
  8
0
 10
7.592849
 20
8.135933
 30
0.0
 11
7.592849
 21
9.516768
 31
0.0
  0
LINE
  5
CB
  8
0
 10
7.592849
 20
9.516768
 30
0.0
 11
7.592849
 21
9.565194
 31
0.0
  0
LINE
  5
CC
  8
0
 10
7.592849
 20
9.565194
 30
0.0
 11
7.592849
 21
9.84971
 31
0.0
  0
LINE
  5
CD
  8
0
 10
7.592849
 20
9.84971
 30
0.0
 11
7.592849
 21
9.92269
 31
0.0
  0
LINE
  5
CE
  8
0
 10
7.592849
 20
9.92269
 30
0.0
 11
7.592849
 21
9.991544
 31
0.0
  0
LINE
  5
CF
  8
0
 10
7.592849
 20
9.991544
 30
0.0
 11
7.592849
 21
11.372378
 31
0.0
  0
LINE
  5
D0
  8
0
 10
7.592849
 20
11.372378
 30
0.0
 11
7.592849
 21
11.648545
 31
0.0
  0
LINE
  5
D1
  8
0
 10
7.592849
 20
11.648545
 30
0.0
 11
7.592849
 21
11.763862
 31
0.0
  0
LINE
  5
D2
  8
0
 10
7.592849
 20
11.763862
 30
0.0
 11
7.592849
 21
11.765772
 31
0.0
  0
LINE
  5
D3
  8
0
 10
7.592849
 20
11.765772
 30
0.0
 11
7.592849
 21
13.084228
 31
0.0
  0
LINE
  5
D4
  8
0
 10
7.592849
 20
13.084228
 30
0.0
 11
7.592849
 21
13.09082
 31
0.0
  0
LINE
  5
D5
  8
0
 10
7.592849
 20
13.09082
 30
0.0
 11
7.592849
 21
13.098972
 31
0.0
  0
LINE
  5
D6
  8
0
 10
7.592849
 20
13.098972
 30
0.0
 11
7.592849
 21
13.101829
 31
0.0
  0
LINE
  5
D7
  8
0
 10
7.592849
 20
13.101829
 30
0.0
 11
7.592849
 21
13.103376
 31
0.0
  0
LINE
  5
D8
  8
0
 10
7.592849
 20
13.103376
 30
0.0
 11
7.592849
 21
13.106187
 31
0.0
  0
LINE
  5
D9
  8
0
 10
7.592849
 20
13.106187
 30
0.0
 11
7.592849
 21
13.108904
 31
0.0
  0
LINE
  5
DA
  8
0
 10
7.592849
 20
13.108904
 30
0.0
 11
7.592849
 21
13.111633
 31
0.0
  0
LINE
  5
DB
  8
0
 10
7.592849
 20
13.111633
 30
0.0
 11
7.592849
 21
13.115349
 31
0.0
  0
LINE
  5
DC
  8
0
 10
7.592849
 20
13.115349
 30
0.0
 11
7.592849
 21
13.117899
 31
0.0
  0
LINE
  5
DD
  8
0
 10
7.592849
 20
13.117899
 30
0.0
 11
7.592849
 21
13.120212
 31
0.0
  0
LINE
  5
DE
  8
0
 10
7.592849
 20
13.120212
 30
0.0
 11
7.592849
 21
13.204681
 31
0.0
  0
LINE
  5
DF
  8
0
 10
7.592849
 20
13.204681
 30
0.0
 11
7.592849
 21
13.485025
 31
0.0
  0
LINE
  5
E0
  8
0
 10
7.592849
 20
13.485025
 30
0.0
 11
7.592849
 21
13.718377
 31
0.0
  0
LINE
  5
E1
  8
0
 10
7.592849
 20
13.718377
 30
0.0
 11
7.592849
 21
13.892376
 31
0.0
  0
LINE
  5
E2
  8
0
 10
7.592849
 20
13.892376
 30
0.0
 11
7.592849
 21
14.628
 31
0.0
  0
LINE
  5
E3
  8
0
 10
10.092849
 20
0.515
 30
0.0
 11
10.092849
 21
0.582797
 31
0.0
  0
LINE
  5
E4
  8
0
 10
10.092849
 20
0.515
 30
0.0
 11
10.092849
 21
0.582797
 31
0.0
  0
LINE
  5
E5
  8
0
 10
10.092849
 20
0.582797
 30
0.0
 11
10.092849
 21
0.862458
 31
0.0
  0
LINE
  5
E6
  8
0
 10
10.092849
 20
0.862458
 30
0.0
 11
10.092849
 21
2.260763
 31
0.0
  0
LINE
  5
E7
  8
0
 10
10.092849
 20
2.260763
 30
0.0
 11
10.092849
 21
2.292806
 31
0.0
  0
LINE
  5
E8
  8
0
 10
10.092849
 20
2.292806
 30
0.0
 11
10.092849
 21
2.577323
 31
0.0
  0
LINE
  5
E9
  8
0
 10
10.092849
 20
2.577323
 30
0.0
 11
10.092849
 21
2.650303
 31
0.0
  0
LINE
  5
EA
  8
0
 10
10.092849
 20
2.650303
 30
0.0
 11
10.092849
 21
2.712478
 31
0.0
  0
LINE
  5
EB
  8
0
 10
10.092849
 20
2.712478
 30
0.0
 11
10.092849
 21
4.093312
 31
0.0
  0
LINE
  5
EC
  8
0
 10
10.092849
 20
4.093312
 30
0.0
 11
10.092849
 21
4.369479
 31
0.0
  0
LINE
  5
ED
  8
0
 10
10.092849
 20
4.369479
 30
0.0
 11
10.092849
 21
4.478061
 31
0.0
  0
LINE
  5
EE
  8
0
 10
10.092849
 20
4.478061
 30
0.0
 11
10.092849
 21
4.485708
 31
0.0
  0
LINE
  5
EF
  8
0
 10
10.092849
 20
4.485708
 30
0.0
 11
10.092849
 21
4.487237
 31
0.0
  0
LINE
  5
F0
  8
0
 10
10.092849
 20
4.487237
 30
0.0
 11
10.092849
 21
4.490062
 31
0.0
  0
LINE
  5
F1
  8
0
 10
10.092849
 20
4.490062
 30
0.0
 11
10.092849
 21
4.494774
 31
0.0
  0
LINE
  5
F2
  8
0
 10
10.092849
 20
4.494774
 30
0.0
 11
10.092849
 21
4.496369
 31
0.0
  0
LINE
  5
F3
  8
0
 10
10.092849
 20
4.496369
 30
0.0
 11
10.092849
 21
4.503095
 31
0.0
  0
LINE
  5
F4
  8
0
 10
10.092849
 20
4.503095
 30
0.0
 11
10.092849
 21
4.505
 31
0.0
  0
LINE
  5
F5
  8
0
 10
10.092849
 20
4.505
 30
0.0
 11
10.092849
 21
4.505772
 31
0.0
  0
LINE
  5
F6
  8
0
 10
10.092849
 20
4.505772
 30
0.0
 11
10.092849
 21
5.824228
 31
0.0
  0
LINE
  5
F7
  8
0
 10
10.092849
 20
5.824228
 30
0.0
 11
10.092849
 21
5.829252
 31
0.0
  0
LINE
  5
F8
  8
0
 10
10.092849
 20
5.829252
 30
0.0
 11
10.092849
 21
5.837011
 31
0.0
  0
LINE
  5
F9
  8
0
 10
10.092849
 20
5.837011
 30
0.0
 11
10.092849
 21
5.948923
 31
0.0
  0
LINE
  5
FA
  8
0
 10
10.092849
 20
5.948923
 30
0.0
 11
10.092849
 21
6.225089
 31
0.0
  0
LINE
  5
FB
  8
0
 10
10.092849
 20
6.225089
 30
0.0
 11
10.092849
 21
7.605924
 31
0.0
  0
LINE
  5
FC
  8
0
 10
10.092849
 20
7.605924
 30
0.0
 11
10.092849
 21
7.672161
 31
0.0
  0
LINE
  5
FD
  8
0
 10
10.092849
 20
7.672161
 30
0.0
 11
10.092849
 21
7.745142
 31
0.0
  0
LINE
  5
FE
  8
0
 10
10.092849
 20
7.745142
 30
0.0
 11
10.092849
 21
7.858948
 31
0.0
  0
LINE
  5
FF
  8
0
 10
10.092849
 20
7.858948
 30
0.0
 11
10.092849
 21
8.029658
 31
0.0
  0
LINE
  5
100
  8
0
 10
10.092849
 20
8.029658
 30
0.0
 11
10.092849
 21
8.0807
 31
0.0
  0
LINE
  5
101
  8
0
 10
10.092849
 20
8.0807
 30
0.0
 11
10.092849
 21
9.461534
 31
0.0
  0
LINE
  5
102
  8
0
 10
10.092849
 20
9.461534
 30
0.0
 11
10.092849
 21
9.50829
 31
0.0
  0
LINE
  5
103
  8
0
 10
10.092849
 20
9.50829
 30
0.0
 11
10.092849
 21
9.792806
 31
0.0
  0
LINE
  5
104
  8
0
 10
10.092849
 20
9.792806
 30
0.0
 11
10.092849
 21
9.865787
 31
0.0
  0
LINE
  5
105
  8
0
 10
10.092849
 20
9.865787
 30
0.0
 11
10.092849
 21
9.936311
 31
0.0
  0
LINE
  5
106
  8
0
 10
10.092849
 20
9.936311
 30
0.0
 11
10.092849
 21
11.317145
 31
0.0
  0
LINE
  5
107
  8
0
 10
10.092849
 20
11.317145
 30
0.0
 11
10.092849
 21
11.593312
 31
0.0
  0
LINE
  5
108
  8
0
 10
10.092849
 20
11.593312
 30
0.0
 11
10.092849
 21
11.628935
 31
0.0
  0
LINE
  5
109
  8
0
 10
10.092849
 20
11.628935
 30
0.0
 11
10.092849
 21
13.051516
 31
0.0
  0
LINE
  5
10A
  8
0
 10
10.092849
 20
13.051516
 30
0.0
 11
10.092849
 21
13.124497
 31
0.0
  0
LINE
  5
10B
  8
0
 10
10.092849
 20
13.124497
 30
0.0
 11
10.092849
 21
13.148892
 31
0.0
  0
LINE
  5
10C
  8
0
 10
10.092849
 20
13.148892
 30
0.0
 11
10.092849
 21
13.429187
 31
0.0
  0
LINE
  5
10D
  8
0
 10
10.092849
 20
13.429187
 30
0.0
 11
10.092849
 21
14.565319
 31
0.0
  0
LINE
  5
10E
  8
0
 10
10.092849
 20
14.565319
 30
0.0
 11
10.092849
 21
14.631
 31
0.0
  0
LINE
  5
10F
  8
0
 10
12.592849
 20
0.455
 30
0.0
 11
12.592849
 21
0.526429
 31
0.0
  0
LINE
  5
110
  8
0
 10
12.592849
 20
0.455
 30
0.0
 11
12.592849
 21
0.526429
 31
0.0
  0
LINE
  5
111
  8
0
 10
12.592849
 20
0.526429
 30
0.0
 11
12.592849
 21
0.805
 31
0.0
  0
LINE
  5
112
  8
0
 10
12.592849
 20
0.805
 30
0.0
 11
12.592849
 21
2.197857
 31
0.0
  0
LINE
  5
113
  8
0
 10
12.592849
 20
2.197857
 30
0.0
 11
12.592849
 21
2.235903
 31
0.0
  0
LINE
  5
114
  8
0
 10
12.592849
 20
2.235903
 30
0.0
 11
12.592849
 21
2.520419
 31
0.0
  0
LINE
  5
115
  8
0
 10
12.592849
 20
2.520419
 30
0.0
 11
12.592849
 21
2.5934
 31
0.0
  0
LINE
  5
116
  8
0
 10
12.592849
 20
2.5934
 30
0.0
 11
12.592849
 21
2.657244
 31
0.0
  0
LINE
  5
117
  8
0
 10
12.592849
 20
2.657244
 30
0.0
 11
12.592849
 21
4.038078
 31
0.0
  0
LINE
  5
118
  8
0
 10
12.592849
 20
4.038078
 30
0.0
 11
12.592849
 21
4.314245
 31
0.0
  0
LINE
  5
119
  8
0
 10
12.592849
 20
4.314245
 30
0.0
 11
12.592849
 21
4.423813
 31
0.0
  0
LINE
  5
11A
  8
0
 10
12.592849
 20
4.423813
 30
0.0
 11
12.592849
 21
4.425708
 31
0.0
  0
LINE
  5
11B
  8
0
 10
12.592849
 20
4.425708
 30
0.0
 11
12.592849
 21
4.427237
 31
0.0
  0
LINE
  5
11C
  8
0
 10
12.592849
 20
4.427237
 30
0.0
 11
12.592849
 21
4.430062
 31
0.0
  0
LINE
  5
11D
  8
0
 10
12.592849
 20
4.430062
 30
0.0
 11
12.592849
 21
4.434774
 31
0.0
  0
LINE
  5
11E
  8
0
 10
12.592849
 20
4.434774
 30
0.0
 11
12.592849
 21
4.436369
 31
0.0
  0
LINE
  5
11F
  8
0
 10
12.592849
 20
4.436369
 30
0.0
 11
12.592849
 21
4.443095
 31
0.0
  0
LINE
  5
120
  8
0
 10
12.592849
 20
4.443095
 30
0.0
 11
12.592849
 21
4.445
 31
0.0
  0
LINE
  5
121
  8
0
 10
12.592849
 20
4.445
 30
0.0
 11
12.592849
 21
4.445772
 31
0.0
  0
LINE
  5
122
  8
0
 10
12.592849
 20
4.445772
 30
0.0
 11
12.592849
 21
5.764228
 31
0.0
  0
LINE
  5
123
  8
0
 10
12.592849
 20
5.764228
 30
0.0
 11
12.592849
 21
5.769252
 31
0.0
  0
LINE
  5
124
  8
0
 10
12.592849
 20
5.769252
 30
0.0
 11
12.592849
 21
5.777451
 31
0.0
  0
LINE
  5
125
  8
0
 10
12.592849
 20
5.777451
 30
0.0
 11
12.592849
 21
5.783376
 31
0.0
  0
LINE
  5
126
  8
0
 10
12.592849
 20
5.783376
 30
0.0
 11
12.592849
 21
5.893689
 31
0.0
  0
LINE
  5
127
  8
0
 10
12.592849
 20
5.893689
 30
0.0
 11
12.592849
 21
6.169856
 31
0.0
  0
LINE
  5
128
  8
0
 10
12.592849
 20
6.169856
 30
0.0
 11
12.592849
 21
7.55069
 31
0.0
  0
LINE
  5
129
  8
0
 10
12.592849
 20
7.55069
 30
0.0
 11
12.592849
 21
7.615258
 31
0.0
  0
LINE
  5
12A
  8
0
 10
12.592849
 20
7.615258
 30
0.0
 11
12.592849
 21
7.688239
 31
0.0
  0
LINE
  5
12B
  8
0
 10
12.592849
 20
7.688239
 30
0.0
 11
12.592849
 21
7.858948
 31
0.0
  0
LINE
  5
12C
  8
0
 10
12.592849
 20
7.858948
 30
0.0
 11
12.592849
 21
7.972755
 31
0.0
  0
LINE
  5
12D
  8
0
 10
12.592849
 20
7.972755
 30
0.0
 11
12.592849
 21
8.025467
 31
0.0
  0
LINE
  5
12E
  8
0
 10
12.592849
 20
8.025467
 30
0.0
 11
12.592849
 21
9.406301
 31
0.0
  0
LINE
  5
12F
  8
0
 10
12.592849
 20
9.406301
 30
0.0
 11
12.592849
 21
9.682468
 31
0.0
  0
LINE
  5
130
  8
0
 10
12.592849
 20
9.682468
 30
0.0
 11
12.592849
 21
9.735903
 31
0.0
  0
LINE
  5
131
  8
0
 10
12.592849
 20
9.735903
 30
0.0
 11
12.592849
 21
9.808884
 31
0.0
  0
LINE
  5
132
  8
0
 10
12.592849
 20
9.808884
 30
0.0
 11
12.592849
 21
9.881077
 31
0.0
  0
LINE
  5
133
  8
0
 10
12.592849
 20
9.881077
 30
0.0
 11
12.592849
 21
11.261912
 31
0.0
  0
LINE
  5
134
  8
0
 10
12.592849
 20
11.261912
 30
0.0
 11
12.592849
 21
11.538078
 31
0.0
  0
LINE
  5
135
  8
0
 10
12.592849
 20
11.538078
 30
0.0
 11
12.592849
 21
11.572032
 31
0.0
  0
LINE
  5
136
  8
0
 10
12.592849
 20
11.572032
 30
0.0
 11
12.592849
 21
12.994613
 31
0.0
  0
LINE
  5
137
  8
0
 10
12.592849
 20
12.994613
 30
0.0
 11
12.592849
 21
13.067594
 31
0.0
  0
LINE
  5
138
  8
0
 10
12.592849
 20
13.067594
 30
0.0
 11
12.592849
 21
13.093221
 31
0.0
  0
LINE
  5
139
  8
0
 10
12.592849
 20
13.093221
 30
0.0
 11
12.592849
 21
13.373451
 31
0.0
  0
LINE
  5
13A
  8
0
 10
12.592849
 20
13.373451
 30
0.0
 11
12.592849
 21
14.569102
 31
0.0
  0
LINE
  5
13B
  8
0
 10
12.592849
 20
14.569102
 30
0.0
 11
12.592849
 21
14.635
 31
0.0
  0
LINE
  5
13C
  8
0
 10
0.45
 20
2.592238
 30
0.0
 11
0.479931
 21
2.592238
 31
0.0
  0
LINE
  5
13D
  8
0
 10
0.45
 20
2.592238
 30
0.0
 11
0.479931
 21
2.592238
 31
0.0
  0
LINE
  5
13E
  8
0
 10
0.479931
 20
2.592238
 30
0.0
 11
0.864263
 21
2.592238
 31
0.0
  0
LINE
  5
13F
  8
0
 10
0.864263
 20
2.592238
 30
0.0
 11
1.610358
 21
2.592238
 31
0.0
  0
LINE
  5
140
  8
0
 10
1.610358
 20
2.592238
 30
0.0
 11
1.811161
 21
2.592238
 31
0.0
  0
LINE
  5
141
  8
0
 10
1.811161
 20
2.592238
 30
0.0
 11
2.089637
 21
2.592238
 31
0.0
  0
LINE
  5
142
  8
0
 10
2.089637
 20
2.592238
 30
0.0
 11
2.125942
 21
2.592238
 31
0.0
  0
LINE
  5
143
  8
0
 10
2.125942
 20
2.592238
 30
0.0
 11
2.198923
 21
2.592238
 31
0.0
  0
LINE
  5
144
  8
0
 10
2.198923
 20
2.592238
 30
0.0
 11
3.621503
 21
2.592238
 31
0.0
  0
LINE
  5
145
  8
0
 10
3.621503
 20
2.592238
 30
0.0
 11
3.655207
 21
2.592238
 31
0.0
  0
LINE
  5
146
  8
0
 10
3.655207
 20
2.592238
 30
0.0
 11
3.931373
 21
2.592238
 31
0.0
  0
LINE
  5
147
  8
0
 10
3.931373
 20
2.592238
 30
0.0
 11
5.312208
 21
2.592238
 31
0.0
  0
LINE
  5
148
  8
0
 10
5.312208
 20
2.592238
 30
0.0
 11
5.384652
 21
2.592238
 31
0.0
  0
LINE
  5
149
  8
0
 10
5.384652
 20
2.592238
 30
0.0
 11
5.457632
 21
2.592238
 31
0.0
  0
LINE
  5
14A
  8
0
 10
5.457632
 20
2.592238
 30
0.0
 11
5.510817
 21
2.592238
 31
0.0
  0
LINE
  5
14B
  8
0
 10
5.510817
 20
2.592238
 30
0.0
 11
5.786984
 21
2.592238
 31
0.0
  0
LINE
  5
14C
  8
0
 10
5.786984
 20
2.592238
 30
0.0
 11
7.167818
 21
2.592238
 31
0.0
  0
LINE
  5
14D
  8
0
 10
7.167818
 20
2.592238
 30
0.0
 11
7.220781
 21
2.592238
 31
0.0
  0
LINE
  5
14E
  8
0
 10
7.220781
 20
2.592238
 30
0.0
 11
7.505297
 21
2.592238
 31
0.0
  0
LINE
  5
14F
  8
0
 10
7.505297
 20
2.592238
 30
0.0
 11
7.578277
 21
2.592238
 31
0.0
  0
LINE
  5
150
  8
0
 10
7.578277
 20
2.592238
 30
0.0
 11
7.642595
 21
2.592238
 31
0.0
  0
LINE
  5
151
  8
0
 10
7.642595
 20
2.592238
 30
0.0
 11
9.023429
 21
2.592238
 31
0.0
  0
LINE
  5
152
  8
0
 10
9.023429
 20
2.592238
 30
0.0
 11
9.299596
 21
2.592238
 31
0.0
  0
LINE
  5
153
  8
0
 10
9.299596
 20
2.592238
 30
0.0
 11
9.409507
 21
2.592238
 31
0.0
  0
LINE
  5
154
  8
0
 10
9.409507
 20
2.592238
 30
0.0
 11
9.416549
 21
2.592238
 31
0.0
  0
LINE
  5
155
  8
0
 10
9.416549
 20
2.592238
 30
0.0
 11
9.424748
 21
2.592238
 31
0.0
  0
LINE
  5
156
  8
0
 10
9.424748
 20
2.592238
 30
0.0
 11
9.429772
 21
2.592238
 31
0.0
  0
LINE
  5
157
  8
0
 10
9.429772
 20
2.592238
 30
0.0
 11
10.748228
 21
2.592238
 31
0.0
  0
LINE
  5
158
  8
0
 10
10.748228
 20
2.592238
 30
0.0
 11
10.749
 21
2.592238
 31
0.0
  0
LINE
  5
159
  8
0
 10
10.749
 20
2.592238
 30
0.0
 11
10.750905
 21
2.592238
 31
0.0
  0
LINE
  5
15A
  8
0
 10
10.750905
 20
2.592238
 30
0.0
 11
10.757631
 21
2.592238
 31
0.0
  0
LINE
  5
15B
  8
0
 10
10.757631
 20
2.592238
 30
0.0
 11
10.759226
 21
2.592238
 31
0.0
  0
LINE
  5
15C
  8
0
 10
10.759226
 20
2.592238
 30
0.0
 11
10.763938
 21
2.592238
 31
0.0
  0
LINE
  5
15D
  8
0
 10
10.763938
 20
2.592238
 30
0.0
 11
10.766763
 21
2.592238
 31
0.0
  0
LINE
  5
15E
  8
0
 10
10.766763
 20
2.592238
 30
0.0
 11
10.768292
 21
2.592238
 31
0.0
  0
LINE
  5
15F
  8
0
 10
10.768292
 20
2.592238
 30
0.0
 11
10.769093
 21
2.592238
 31
0.0
  0
LINE
  5
160
  8
0
 10
10.769093
 20
2.592238
 30
0.0
 11
10.87904
 21
2.592238
 31
0.0
  0
LINE
  5
161
  8
0
 10
10.87904
 20
2.592238
 30
0.0
 11
11.155207
 21
2.592238
 31
0.0
  0
LINE
  5
162
  8
0
 10
11.155207
 20
2.592238
 30
0.0
 11
12.536041
 21
2.592238
 31
0.0
  0
LINE
  5
163
  8
0
 10
12.536041
 20
2.592238
 30
0.0
 11
12.600135
 21
2.592238
 31
0.0
  0
LINE
  5
164
  8
0
 10
12.600135
 20
2.592238
 30
0.0
 11
12.673116
 21
2.592238
 31
0.0
  0
LINE
  5
165
  8
0
 10
12.673116
 20
2.592238
 30
0.0
 11
12.957632
 21
2.592238
 31
0.0
  0
LINE
  5
166
  8
0
 10
12.957632
 20
2.592238
 30
0.0
 11
12.996606
 21
2.592238
 31
0.0
  0
LINE
  5
167
  8
0
 10
12.996606
 20
2.592238
 30
0.0
 11
14.388595
 21
2.592238
 31
0.0
  0
LINE
  5
168
  8
0
 10
14.388595
 20
2.592238
 30
0.0
 11
14.666993
 21
2.592238
 31
0.0
  0
LINE
  5
169
  8
0
 10
14.666993
 20
2.592238
 30
0.0
 11
14.739
 21
2.592238
 31
0.0
  0
LINE
  5
16A
  8
0
 10
0.513
 20
5.092238
 30
0.0
 11
1.191452
 21
5.092238
 31
0.0
  0
LINE
  5
16B
  8
0
 10
0.513
 20
5.092238
 30
0.0
 11
1.191452
 21
5.092238
 31
0.0
  0
LINE
  5
16C
  8
0
 10
1.191452
 20
5.092238
 30
0.0
 11
1.516863
 21
5.092238
 31
0.0
  0
LINE
  5
16D
  8
0
 10
1.516863
 20
5.092238
 30
0.0
 11
1.734905
 21
5.092238
 31
0.0
  0
LINE
  5
16E
  8
0
 10
1.734905
 20
5.092238
 30
0.0
 11
2.014531
 21
5.092238
 31
0.0
  0
LINE
  5
16F
  8
0
 10
2.014531
 20
5.092238
 30
0.0
 11
2.102367
 21
5.092238
 31
0.0
  0
LINE
  5
170
  8
0
 10
2.102367
 20
5.092238
 30
0.0
 11
2.103758
 21
5.092238
 31
0.0
  0
LINE
  5
171
  8
0
 10
2.103758
 20
5.092238
 30
0.0
 11
3.459873
 21
5.092238
 31
0.0
  0
LINE
  5
172
  8
0
 10
3.459873
 20
5.092238
 30
0.0
 11
3.574198
 21
5.092238
 31
0.0
  0
LINE
  5
173
  8
0
 10
3.574198
 20
5.092238
 30
0.0
 11
3.850364
 21
5.092238
 31
0.0
  0
LINE
  5
174
  8
0
 10
3.850364
 20
5.092238
 30
0.0
 11
5.231199
 21
5.092238
 31
0.0
  0
LINE
  5
175
  8
0
 10
5.231199
 20
5.092238
 30
0.0
 11
5.301194
 21
5.092238
 31
0.0
  0
LINE
  5
176
  8
0
 10
5.301194
 20
5.092238
 30
0.0
 11
5.374174
 21
5.092238
 31
0.0
  0
LINE
  5
177
  8
0
 10
5.374174
 20
5.092238
 30
0.0
 11
5.65869
 21
5.092238
 31
0.0
  0
LINE
  5
178
  8
0
 10
5.65869
 20
5.092238
 30
0.0
 11
5.705975
 21
5.092238
 31
0.0
  0
LINE
  5
179
  8
0
 10
5.705975
 20
5.092238
 30
0.0
 11
7.086809
 21
5.092238
 31
0.0
  0
LINE
  5
17A
  8
0
 10
7.086809
 20
5.092238
 30
0.0
 11
7.137323
 21
5.092238
 31
0.0
  0
LINE
  5
17B
  8
0
 10
7.137323
 20
5.092238
 30
0.0
 11
7.421839
 21
5.092238
 31
0.0
  0
LINE
  5
17C
  8
0
 10
7.421839
 20
5.092238
 30
0.0
 11
7.494819
 21
5.092238
 31
0.0
  0
LINE
  5
17D
  8
0
 10
7.494819
 20
5.092238
 30
0.0
 11
7.561586
 21
5.092238
 31
0.0
  0
LINE
  5
17E
  8
0
 10
7.561586
 20
5.092238
 30
0.0
 11
8.94242
 21
5.092238
 31
0.0
  0
LINE
  5
17F
  8
0
 10
8.94242
 20
5.092238
 30
0.0
 11
9.218587
 21
5.092238
 31
0.0
  0
LINE
  5
180
  8
0
 10
9.218587
 20
5.092238
 30
0.0
 11
9.330887
 21
5.092238
 31
0.0
  0
LINE
  5
181
  8
0
 10
9.330887
 20
5.092238
 30
0.0
 11
9.336748
 21
5.092238
 31
0.0
  0
LINE
  5
182
  8
0
 10
9.336748
 20
5.092238
 30
0.0
 11
9.341772
 21
5.092238
 31
0.0
  0
LINE
  5
183
  8
0
 10
9.341772
 20
5.092238
 30
0.0
 11
10.660228
 21
5.092238
 31
0.0
  0
LINE
  5
184
  8
0
 10
10.660228
 20
5.092238
 30
0.0
 11
10.661
 21
5.092238
 31
0.0
  0
LINE
  5
185
  8
0
 10
10.661
 20
5.092238
 30
0.0
 11
10.662905
 21
5.092238
 31
0.0
  0
LINE
  5
186
  8
0
 10
10.662905
 20
5.092238
 30
0.0
 11
10.669631
 21
5.092238
 31
0.0
  0
LINE
  5
187
  8
0
 10
10.669631
 20
5.092238
 30
0.0
 11
10.671226
 21
5.092238
 31
0.0
  0
LINE
  5
188
  8
0
 10
10.671226
 20
5.092238
 30
0.0
 11
10.675938
 21
5.092238
 31
0.0
  0
LINE
  5
189
  8
0
 10
10.675938
 20
5.092238
 30
0.0
 11
10.678763
 21
5.092238
 31
0.0
  0
LINE
  5
18A
  8
0
 10
10.678763
 20
5.092238
 30
0.0
 11
10.680292
 21
5.092238
 31
0.0
  0
LINE
  5
18B
  8
0
 10
10.680292
 20
5.092238
 30
0.0
 11
10.683073
 21
5.092238
 31
0.0
  0
LINE
  5
18C
  8
0
 10
10.683073
 20
5.092238
 30
0.0
 11
10.688382
 21
5.092238
 31
0.0
  0
LINE
  5
18D
  8
0
 10
10.688382
 20
5.092238
 30
0.0
 11
10.689562
 21
5.092238
 31
0.0
  0
LINE
  5
18E
  8
0
 10
10.689562
 20
5.092238
 30
0.0
 11
10.798031
 21
5.092238
 31
0.0
  0
LINE
  5
18F
  8
0
 10
10.798031
 20
5.092238
 30
0.0
 11
11.074198
 21
5.092238
 31
0.0
  0
LINE
  5
190
  8
0
 10
11.074198
 20
5.092238
 30
0.0
 11
12.455032
 21
5.092238
 31
0.0
  0
LINE
  5
191
  8
0
 10
12.455032
 20
5.092238
 30
0.0
 11
12.516677
 21
5.092238
 31
0.0
  0
LINE
  5
192
  8
0
 10
12.516677
 20
5.092238
 30
0.0
 11
12.589658
 21
5.092238
 31
0.0
  0
LINE
  5
193
  8
0
 10
12.589658
 20
5.092238
 30
0.0
 11
12.874174
 21
5.092238
 31
0.0
  0
LINE
  5
194
  8
0
 10
12.874174
 20
5.092238
 30
0.0
 11
12.904378
 21
5.092238
 31
0.0
  0
LINE
  5
195
  8
0
 10
12.904378
 20
5.092238
 30
0.0
 11
14.304294
 21
5.092238
 31
0.0
  0
LINE
  5
196
  8
0
 10
14.304294
 20
5.092238
 30
0.0
 11
14.584278
 21
5.092238
 31
0.0
  0
LINE
  5
197
  8
0
 10
14.584278
 20
5.092238
 30
0.0
 11
14.651
 21
5.092238
 31
0.0
  0
LINE
  5
198
  8
0
 10
0.576
 20
7.592238
 30
0.0
 11
1.342667
 21
7.592238
 31
0.0
  0
LINE
  5
199
  8
0
 10
0.576
 20
7.592238
 30
0.0
 11
1.342667
 21
7.592238
 31
0.0
  0
LINE
  5
19A
  8
0
 10
1.342667
 20
7.592238
 30
0.0
 11
1.470444
 21
7.592238
 31
0.0
  0
LINE
  5
19B
  8
0
 10
1.470444
 20
7.592238
 30
0.0
 11
1.716395
 21
7.592238
 31
0.0
  0
LINE
  5
19C
  8
0
 10
1.716395
 20
7.592238
 30
0.0
 11
1.997056
 21
7.592238
 31
0.0
  0
LINE
  5
19D
  8
0
 10
1.997056
 20
7.592238
 30
0.0
 11
2.07943
 21
7.592238
 31
0.0
  0
LINE
  5
19E
  8
0
 10
2.07943
 20
7.592238
 30
0.0
 11
2.084317
 21
7.592238
 31
0.0
  0
LINE
  5
19F
  8
0
 10
2.084317
 20
7.592238
 30
0.0
 11
2.085551
 21
7.592238
 31
0.0
  0
LINE
  5
1A0
  8
0
 10
2.085551
 20
7.592238
 30
0.0
 11
2.086804
 21
7.592238
 31
0.0
  0
LINE
  5
1A1
  8
0
 10
2.086804
 20
7.592238
 30
0.0
 11
2.088076
 21
7.592238
 31
0.0
  0
LINE
  5
1A2
  8
0
 10
2.088076
 20
7.592238
 30
0.0
 11
2.092096
 21
7.592238
 31
0.0
  0
LINE
  5
1A3
  8
0
 10
2.092096
 20
7.592238
 30
0.0
 11
2.093346
 21
7.592238
 31
0.0
  0
LINE
  5
1A4
  8
0
 10
2.093346
 20
7.592238
 30
0.0
 11
2.094813
 21
7.592238
 31
0.0
  0
LINE
  5
1A5
  8
0
 10
2.094813
 20
7.592238
 30
0.0
 11
3.436501
 21
7.592238
 31
0.0
  0
LINE
  5
1A6
  8
0
 10
3.436501
 20
7.592238
 30
0.0
 11
3.551184
 21
7.592238
 31
0.0
  0
LINE
  5
1A7
  8
0
 10
3.551184
 20
7.592238
 30
0.0
 11
3.827351
 21
7.592238
 31
0.0
  0
LINE
  5
1A8
  8
0
 10
3.827351
 20
7.592238
 30
0.0
 11
5.208185
 21
7.592238
 31
0.0
  0
LINE
  5
1A9
  8
0
 10
5.208185
 20
7.592238
 30
0.0
 11
5.277484
 21
7.592238
 31
0.0
  0
LINE
  5
1AA
  8
0
 10
5.277484
 20
7.592238
 30
0.0
 11
5.350465
 21
7.592238
 31
0.0
  0
LINE
  5
1AB
  8
0
 10
5.350465
 20
7.592238
 30
0.0
 11
5.634981
 21
7.592238
 31
0.0
  0
LINE
  5
1AC
  8
0
 10
5.634981
 20
7.592238
 30
0.0
 11
5.682961
 21
7.592238
 31
0.0
  0
LINE
  5
1AD
  8
0
 10
5.682961
 20
7.592238
 30
0.0
 11
5.7049
 21
7.592238
 31
0.0
  0
LINE
  5
1AE
  8
0
 10
5.7049
 20
7.592238
 30
0.0
 11
7.063795
 21
7.592238
 31
0.0
  0
LINE
  5
1AF
  8
0
 10
7.063795
 20
7.592238
 30
0.0
 11
7.113613
 21
7.592238
 31
0.0
  0
LINE
  5
1B0
  8
0
 10
7.113613
 20
7.592238
 30
0.0
 11
7.398129
 21
7.592238
 31
0.0
  0
LINE
  5
1B1
  8
0
 10
7.398129
 20
7.592238
 30
0.0
 11
7.47111
 21
7.592238
 31
0.0
  0
LINE
  5
1B2
  8
0
 10
7.47111
 20
7.592238
 30
0.0
 11
7.538572
 21
7.592238
 31
0.0
  0
LINE
  5
1B3
  8
0
 10
7.538572
 20
7.592238
 30
0.0
 11
8.919406
 21
7.592238
 31
0.0
  0
LINE
  5
1B4
  8
0
 10
8.919406
 20
7.592238
 30
0.0
 11
9.195573
 21
7.592238
 31
0.0
  0
LINE
  5
1B5
  8
0
 10
9.195573
 20
7.592238
 30
0.0
 11
9.308763
 21
7.592238
 31
0.0
  0
LINE
  5
1B6
  8
0
 10
9.308763
 20
7.592238
 30
0.0
 11
9.310064
 21
7.592238
 31
0.0
  0
LINE
  5
1B7
  8
0
 10
9.310064
 20
7.592238
 30
0.0
 11
9.316772
 21
7.592238
 31
0.0
  0
LINE
  5
1B8
  8
0
 10
9.316772
 20
7.592238
 30
0.0
 11
10.635228
 21
7.592238
 31
0.0
  0
LINE
  5
1B9
  8
0
 10
10.635228
 20
7.592238
 30
0.0
 11
10.636
 21
7.592238
 31
0.0
  0
LINE
  5
1BA
  8
0
 10
10.636
 20
7.592238
 30
0.0
 11
10.63952
 21
7.592238
 31
0.0
  0
LINE
  5
1BB
  8
0
 10
10.63952
 20
7.592238
 30
0.0
 11
10.644631
 21
7.592238
 31
0.0
  0
LINE
  5
1BC
  8
0
 10
10.644631
 20
7.592238
 30
0.0
 11
10.646226
 21
7.592238
 31
0.0
  0
LINE
  5
1BD
  8
0
 10
10.646226
 20
7.592238
 30
0.0
 11
10.650938
 21
7.592238
 31
0.0
  0
LINE
  5
1BE
  8
0
 10
10.650938
 20
7.592238
 30
0.0
 11
10.653763
 21
7.592238
 31
0.0
  0
LINE
  5
1BF
  8
0
 10
10.653763
 20
7.592238
 30
0.0
 11
10.655292
 21
7.592238
 31
0.0
  0
LINE
  5
1C0
  8
0
 10
10.655292
 20
7.592238
 30
0.0
 11
10.658073
 21
7.592238
 31
0.0
  0
LINE
  5
1C1
  8
0
 10
10.658073
 20
7.592238
 30
0.0
 11
10.663382
 21
7.592238
 31
0.0
  0
LINE
  5
1C2
  8
0
 10
10.663382
 20
7.592238
 30
0.0
 11
10.666
 21
7.592238
 31
0.0
  0
LINE
  5
1C3
  8
0
 10
10.666
 20
7.592238
 30
0.0
 11
10.666796
 21
7.592238
 31
0.0
  0
LINE
  5
1C4
  8
0
 10
10.666796
 20
7.592238
 30
0.0
 11
10.775017
 21
7.592238
 31
0.0
  0
LINE
  5
1C5
  8
0
 10
10.775017
 20
7.592238
 30
0.0
 11
11.051184
 21
7.592238
 31
0.0
  0
LINE
  5
1C6
  8
0
 10
11.051184
 20
7.592238
 30
0.0
 11
12.432018
 21
7.592238
 31
0.0
  0
LINE
  5
1C7
  8
0
 10
12.432018
 20
7.592238
 30
0.0
 11
12.492968
 21
7.592238
 31
0.0
  0
LINE
  5
1C8
  8
0
 10
12.492968
 20
7.592238
 30
0.0
 11
12.565948
 21
7.592238
 31
0.0
  0
LINE
  5
1C9
  8
0
 10
12.565948
 20
7.592238
 30
0.0
 11
12.850465
 21
7.592238
 31
0.0
  0
LINE
  5
1CA
  8
0
 10
12.850465
 20
7.592238
 30
0.0
 11
12.878288
 21
7.592238
 31
0.0
  0
LINE
  5
1CB
  8
0
 10
12.878288
 20
7.592238
 30
0.0
 11
14.280248
 21
7.592238
 31
0.0
  0
LINE
  5
1CC
  8
0
 10
14.280248
 20
7.592238
 30
0.0
 11
14.560641
 21
7.592238
 31
0.0
  0
LINE
  5
1CD
  8
0
 10
14.560641
 20
7.592238
 30
0.0
 11
14.626
 21
7.592238
 31
0.0
  0
LINE
  5
1CE
  8
0
 10
0.514
 20
10.092238
 30
0.0
 11
0.581912
 21
10.092238
 31
0.0
  0
LINE
  5
1CF
  8
0
 10
0.514
 20
10.092238
 30
0.0
 11
0.581912
 21
10.092238
 31
0.0
  0
LINE
  5
1D0
  8
0
 10
0.581912
 20
10.092238
 30
0.0
 11
1.711603
 21
10.092238
 31
0.0
  0
LINE
  5
1D1
  8
0
 10
1.711603
 20
10.092238
 30
0.0
 11
1.991229
 21
10.092238
 31
0.0
  0
LINE
  5
1D2
  8
0
 10
1.991229
 20
10.092238
 30
0.0
 11
2.07943
 21
10.092238
 31
0.0
  0
LINE
  5
1D3
  8
0
 10
2.07943
 20
10.092238
 30
0.0
 11
2.084317
 21
10.092238
 31
0.0
  0
LINE
  5
1D4
  8
0
 10
2.084317
 20
10.092238
 30
0.0
 11
2.085551
 21
10.092238
 31
0.0
  0
LINE
  5
1D5
  8
0
 10
2.085551
 20
10.092238
 30
0.0
 11
2.086804
 21
10.092238
 31
0.0
  0
LINE
  5
1D6
  8
0
 10
2.086804
 20
10.092238
 30
0.0
 11
2.088076
 21
10.092238
 31
0.0
  0
LINE
  5
1D7
  8
0
 10
2.088076
 20
10.092238
 30
0.0
 11
2.092096
 21
10.092238
 31
0.0
  0
LINE
  5
1D8
  8
0
 10
2.092096
 20
10.092238
 30
0.0
 11
2.093346
 21
10.092238
 31
0.0
  0
LINE
  5
1D9
  8
0
 10
2.093346
 20
10.092238
 30
0.0
 11
2.094813
 21
10.092238
 31
0.0
  0
LINE
  5
1DA
  8
0
 10
2.094813
 20
10.092238
 30
0.0
 11
3.436501
 21
10.092238
 31
0.0
  0
LINE
  5
1DB
  8
0
 10
3.436501
 20
10.092238
 30
0.0
 11
3.551184
 21
10.092238
 31
0.0
  0
LINE
  5
1DC
  8
0
 10
3.551184
 20
10.092238
 30
0.0
 11
3.827351
 21
10.092238
 31
0.0
  0
LINE
  5
1DD
  8
0
 10
3.827351
 20
10.092238
 30
0.0
 11
5.208185
 21
10.092238
 31
0.0
  0
LINE
  5
1DE
  8
0
 10
5.208185
 20
10.092238
 30
0.0
 11
5.277484
 21
10.092238
 31
0.0
  0
LINE
  5
1DF
  8
0
 10
5.277484
 20
10.092238
 30
0.0
 11
5.350465
 21
10.092238
 31
0.0
  0
LINE
  5
1E0
  8
0
 10
5.350465
 20
10.092238
 30
0.0
 11
5.634981
 21
10.092238
 31
0.0
  0
LINE
  5
1E1
  8
0
 10
5.634981
 20
10.092238
 30
0.0
 11
5.682961
 21
10.092238
 31
0.0
  0
LINE
  5
1E2
  8
0
 10
5.682961
 20
10.092238
 30
0.0
 11
5.688701
 21
10.092238
 31
0.0
  0
LINE
  5
1E3
  8
0
 10
5.688701
 20
10.092238
 30
0.0
 11
7.063795
 21
10.092238
 31
0.0
  0
LINE
  5
1E4
  8
0
 10
7.063795
 20
10.092238
 30
0.0
 11
7.113613
 21
10.092238
 31
0.0
  0
LINE
  5
1E5
  8
0
 10
7.113613
 20
10.092238
 30
0.0
 11
7.398129
 21
10.092238
 31
0.0
  0
LINE
  5
1E6
  8
0
 10
7.398129
 20
10.092238
 30
0.0
 11
7.47111
 21
10.092238
 31
0.0
  0
LINE
  5
1E7
  8
0
 10
7.47111
 20
10.092238
 30
0.0
 11
7.538572
 21
10.092238
 31
0.0
  0
LINE
  5
1E8
  8
0
 10
7.538572
 20
10.092238
 30
0.0
 11
8.919406
 21
10.092238
 31
0.0
  0
LINE
  5
1E9
  8
0
 10
8.919406
 20
10.092238
 30
0.0
 11
9.195573
 21
10.092238
 31
0.0
  0
LINE
  5
1EA
  8
0
 10
9.195573
 20
10.092238
 30
0.0
 11
9.308763
 21
10.092238
 31
0.0
  0
LINE
  5
1EB
  8
0
 10
9.308763
 20
10.092238
 30
0.0
 11
9.310064
 21
10.092238
 31
0.0
  0
LINE
  5
1EC
  8
0
 10
9.310064
 20
10.092238
 30
0.0
 11
9.316772
 21
10.092238
 31
0.0
  0
LINE
  5
1ED
  8
0
 10
9.316772
 20
10.092238
 30
0.0
 11
10.635228
 21
10.092238
 31
0.0
  0
LINE
  5
1EE
  8
0
 10
10.635228
 20
10.092238
 30
0.0
 11
10.636
 21
10.092238
 31
0.0
  0
LINE
  5
1EF
  8
0
 10
10.636
 20
10.092238
 30
0.0
 11
10.63952
 21
10.092238
 31
0.0
  0
LINE
  5
1F0
  8
0
 10
10.63952
 20
10.092238
 30
0.0
 11
10.644631
 21
10.092238
 31
0.0
  0
LINE
  5
1F1
  8
0
 10
10.644631
 20
10.092238
 30
0.0
 11
10.646226
 21
10.092238
 31
0.0
  0
LINE
  5
1F2
  8
0
 10
10.646226
 20
10.092238
 30
0.0
 11
10.650938
 21
10.092238
 31
0.0
  0
LINE
  5
1F3
  8
0
 10
10.650938
 20
10.092238
 30
0.0
 11
10.653763
 21
10.092238
 31
0.0
  0
LINE
  5
1F4
  8
0
 10
10.653763
 20
10.092238
 30
0.0
 11
10.655292
 21
10.092238
 31
0.0
  0
LINE
  5
1F5
  8
0
 10
10.655292
 20
10.092238
 30
0.0
 11
10.658073
 21
10.092238
 31
0.0
  0
LINE
  5
1F6
  8
0
 10
10.658073
 20
10.092238
 30
0.0
 11
10.663382
 21
10.092238
 31
0.0
  0
LINE
  5
1F7
  8
0
 10
10.663382
 20
10.092238
 30
0.0
 11
10.666
 21
10.092238
 31
0.0
  0
LINE
  5
1F8
  8
0
 10
10.666
 20
10.092238
 30
0.0
 11
10.666796
 21
10.092238
 31
0.0
  0
LINE
  5
1F9
  8
0
 10
10.666796
 20
10.092238
 30
0.0
 11
10.775017
 21
10.092238
 31
0.0
  0
LINE
  5
1FA
  8
0
 10
10.775017
 20
10.092238
 30
0.0
 11
11.051184
 21
10.092238
 31
0.0
  0
LINE
  5
1FB
  8
0
 10
11.051184
 20
10.092238
 30
0.0
 11
12.432018
 21
10.092238
 31
0.0
  0
LINE
  5
1FC
  8
0
 10
12.432018
 20
10.092238
 30
0.0
 11
12.492968
 21
10.092238
 31
0.0
  0
LINE
  5
1FD
  8
0
 10
12.492968
 20
10.092238
 30
0.0
 11
12.565948
 21
10.092238
 31
0.0
  0
LINE
  5
1FE
  8
0
 10
12.565948
 20
10.092238
 30
0.0
 11
12.850465
 21
10.092238
 31
0.0
  0
LINE
  5
1FF
  8
0
 10
12.850465
 20
10.092238
 30
0.0
 11
12.878288
 21
10.092238
 31
0.0
  0
LINE
  5
200
  8
0
 10
12.878288
 20
10.092238
 30
0.0
 11
14.280248
 21
10.092238
 31
0.0
  0
LINE
  5
201
  8
0
 10
14.280248
 20
10.092238
 30
0.0
 11
14.38983
 21
10.092238
 31
0.0
  0
LINE
  5
202
  8
0
 10
14.38983
 20
10.092238
 30
0.0
 11
14.433143
 21
10.092238
 31
0.0
  0
LINE
  5
203
  8
0
 10
14.433143
 20
10.092238
 30
0.0
 11
14.626
 21
10.092238
 31
0.0
  0
LINE
  5
204
  8
0
 10
0.438
 20
12.592238
 30
0.0
 11
0.510595
 21
12.592238
 31
0.0
  0
LINE
  5
205
  8
0
 10
0.438
 20
12.592238
 30
0.0
 11
0.510595
 21
12.592238
 31
0.0
  0
LINE
  5
206
  8
0
 10
0.510595
 20
12.592238
 30
0.0
 11
1.705093
 21
12.592238
 31
0.0
  0
LINE
  5
207
  8
0
 10
1.705093
 20
12.592238
 30
0.0
 11
1.983314
 21
12.592238
 31
0.0
  0
LINE
  5
208
  8
0
 10
1.983314
 20
12.592238
 30
0.0
 11
2.079462
 21
12.592238
 31
0.0
  0
LINE
  5
209
  8
0
 10
2.079462
 20
12.592238
 30
0.0
 11
2.079622
 21
12.592238
 31
0.0
  0
LINE
  5
20A
  8
0
 10
2.079622
 20
12.592238
 30
0.0
 11
2.080788
 21
12.592238
 31
0.0
  0
LINE
  5
20B
  8
0
 10
2.080788
 20
12.592238
 30
0.0
 11
2.084317
 21
12.592238
 31
0.0
  0
LINE
  5
20C
  8
0
 10
2.084317
 20
12.592238
 30
0.0
 11
2.085551
 21
12.592238
 31
0.0
  0
LINE
  5
20D
  8
0
 10
2.085551
 20
12.592238
 30
0.0
 11
2.086804
 21
12.592238
 31
0.0
  0
LINE
  5
20E
  8
0
 10
2.086804
 20
12.592238
 30
0.0
 11
2.088076
 21
12.592238
 31
0.0
  0
LINE
  5
20F
  8
0
 10
2.088076
 20
12.592238
 30
0.0
 11
2.092096
 21
12.592238
 31
0.0
  0
LINE
  5
210
  8
0
 10
2.092096
 20
12.592238
 30
0.0
 11
2.093346
 21
12.592238
 31
0.0
  0
LINE
  5
211
  8
0
 10
2.093346
 20
12.592238
 30
0.0
 11
2.094813
 21
12.592238
 31
0.0
  0
LINE
  5
212
  8
0
 10
2.094813
 20
12.592238
 30
0.0
 11
3.436501
 21
12.592238
 31
0.0
  0
LINE
  5
213
  8
0
 10
3.436501
 20
12.592238
 30
0.0
 11
3.551184
 21
12.592238
 31
0.0
  0
LINE
  5
214
  8
0
 10
3.551184
 20
12.592238
 30
0.0
 11
3.827351
 21
12.592238
 31
0.0
  0
LINE
  5
215
  8
0
 10
3.827351
 20
12.592238
 30
0.0
 11
5.208185
 21
12.592238
 31
0.0
  0
LINE
  5
216
  8
0
 10
5.208185
 20
12.592238
 30
0.0
 11
5.277484
 21
12.592238
 31
0.0
  0
LINE
  5
217
  8
0
 10
5.277484
 20
12.592238
 30
0.0
 11
5.350465
 21
12.592238
 31
0.0
  0
LINE
  5
218
  8
0
 10
5.350465
 20
12.592238
 30
0.0
 11
5.634981
 21
12.592238
 31
0.0
  0
LINE
  5
219
  8
0
 10
5.634981
 20
12.592238
 30
0.0
 11
5.682961
 21
12.592238
 31
0.0
  0
LINE
  5
21A
  8
0
 10
5.682961
 20
12.592238
 30
0.0
 11
5.691545
 21
12.592238
 31
0.0
  0
LINE
  5
21B
  8
0
 10
5.691545
 20
12.592238
 30
0.0
 11
7.063795
 21
12.592238
 31
0.0
  0
LINE
  5
21C
  8
0
 10
7.063795
 20
12.592238
 30
0.0
 11
7.113613
 21
12.592238
 31
0.0
  0
LINE
  5
21D
  8
0
 10
7.113613
 20
12.592238
 30
0.0
 11
7.398129
 21
12.592238
 31
0.0
  0
LINE
  5
21E
  8
0
 10
7.398129
 20
12.592238
 30
0.0
 11
7.47111
 21
12.592238
 31
0.0
  0
LINE
  5
21F
  8
0
 10
7.47111
 20
12.592238
 30
0.0
 11
7.538572
 21
12.592238
 31
0.0
  0
LINE
  5
220
  8
0
 10
7.538572
 20
12.592238
 30
0.0
 11
8.919406
 21
12.592238
 31
0.0
  0
LINE
  5
221
  8
0
 10
8.919406
 20
12.592238
 30
0.0
 11
9.195573
 21
12.592238
 31
0.0
  0
LINE
  5
222
  8
0
 10
9.195573
 20
12.592238
 30
0.0
 11
9.308763
 21
12.592238
 31
0.0
  0
LINE
  5
223
  8
0
 10
9.308763
 20
12.592238
 30
0.0
 11
9.310064
 21
12.592238
 31
0.0
  0
LINE
  5
224
  8
0
 10
9.310064
 20
12.592238
 30
0.0
 11
9.316772
 21
12.592238
 31
0.0
  0
LINE
  5
225
  8
0
 10
9.316772
 20
12.592238
 30
0.0
 11
10.635228
 21
12.592238
 31
0.0
  0
LINE
  5
226
  8
0
 10
10.635228
 20
12.592238
 30
0.0
 11
10.636
 21
12.592238
 31
0.0
  0
LINE
  5
227
  8
0
 10
10.636
 20
12.592238
 30
0.0
 11
10.641219
 21
12.592238
 31
0.0
  0
LINE
  5
228
  8
0
 10
10.641219
 20
12.592238
 30
0.0
 11
10.646226
 21
12.592238
 31
0.0
  0
LINE
  5
229
  8
0
 10
10.646226
 20
12.592238
 30
0.0
 11
10.650938
 21
12.592238
 31
0.0
  0
LINE
  5
22A
  8
0
 10
10.650938
 20
12.592238
 30
0.0
 11
10.653763
 21
12.592238
 31
0.0
  0
LINE
  5
22B
  8
0
 10
10.653763
 20
12.592238
 30
0.0
 11
10.655292
 21
12.592238
 31
0.0
  0
LINE
  5
22C
  8
0
 10
10.655292
 20
12.592238
 30
0.0
 11
10.658073
 21
12.592238
 31
0.0
  0
LINE
  5
22D
  8
0
 10
10.658073
 20
12.592238
 30
0.0
 11
10.663382
 21
12.592238
 31
0.0
  0
LINE
  5
22E
  8
0
 10
10.663382
 20
12.592238
 30
0.0
 11
10.666
 21
12.592238
 31
0.0
  0
LINE
  5
22F
  8
0
 10
10.666
 20
12.592238
 30
0.0
 11
10.666796
 21
12.592238
 31
0.0
  0
LINE
  5
230
  8
0
 10
10.666796
 20
12.592238
 30
0.0
 11
10.775017
 21
12.592238
 31
0.0
  0
LINE
  5
231
  8
0
 10
10.775017
 20
12.592238
 30
0.0
 11
11.051184
 21
12.592238
 31
0.0
  0
LINE
  5
232
  8
0
 10
11.051184
 20
12.592238
 30
0.0
 11
12.432018
 21
12.592238
 31
0.0
  0
LINE
  5
233
  8
0
 10
12.432018
 20
12.592238
 30
0.0
 11
12.492968
 21
12.592238
 31
0.0
  0
LINE
  5
234
  8
0
 10
12.492968
 20
12.592238
 30
0.0
 11
12.565948
 21
12.592238
 31
0.0
  0
LINE
  5
235
  8
0
 10
12.565948
 20
12.592238
 30
0.0
 11
12.850465
 21
12.592238
 31
0.0
  0
LINE
  5
236
  8
0
 10
12.850465
 20
12.592238
 30
0.0
 11
12.878288
 21
12.592238
 31
0.0
  0
LINE
  5
237
  8
0
 10
12.878288
 20
12.592238
 30
0.0
 11
14.280248
 21
12.592238
 31
0.0
  0
LINE
  5
238
  8
0
 10
14.280248
 20
12.592238
 30
0.0
 11
14.560641
 21
12.592238
 31
0.0
  0
LINE
  5
239
  8
0
 10
14.560641
 20
12.592238
 30
0.0
 11
14.626
 21
12.592238
 31
0.0
  0
ENDSEC
  0
EOF
