  0
SECTION
  2
HEADER
  9
$ACADVER
  1
AC1009
  9
$DWGCODEPAGE
  3
ANSI_1252
  9
$INSBASE
 10
0.0
 20
0.0
 30
0.0
  9
$EXTMIN
 10
1e+20
 20
1e+20
 30
1e+20
  9
$EXTMAX
 10
-1e+20
 20
-1e+20
 30
-1e+20
  9
$LIMMIN
 10
0.0
 20
0.0
  9
$LIMMAX
 10
420.0
 20
297.0
  9
$ORTHOMODE
 70
0
  9
$REGENMODE
 70
1
  9
$FILLMODE
 70
1
  9
$DRAGMODE
 70
2
  9
$QTEXTMODE
 70
0
  9
$MIRRTEXT
 70
1
  9
$OSMODE
 70
20583
  9
$LTSCALE
 40
1.0
  9
$ATTMODE
 70
1
  9
$TEXTSIZE
 40
2.5
  9
$TRACEWID
 40
1.0
  9
$TEXTSTYLE
  7
Standard
  9
$CLAYER
  8
0
  9
$CELTYPE
  6
ByLayer
  9
$CECOLOR
 62
256
  9
$DIMSCALE
 40
1.0
  9
$DIMASZ
 40
2.5
  9
$DIMEXO
 40
0.625
  9
$DIMDLI
 40
3.75
  9
$DIMRND
 40
0.0
  9
$DIMDLE
 40
0.0
  9
$DIMEXE
 40
1.25
  9
$DIMTP
 40
0.0
  9
$DIMTM
 40
0.0
  9
$DIMTXT
 40
2.5
  9
$DIMCEN
 40
2.5
  9
$DIMTSZ
 40
0.0
  9
$DIMTOL
 70
0
  9
$DIMLIM
 70
0
  9
$DIMTIH
 70
0
  9
$DIMTOH
 70
0
  9
$DIMSE1
 70
0
  9
$DIMSE2
 70
0
  9
$DIMTAD
 70
1
  9
$DIMZIN
 70
8
  9
$DIMBLK
  1

  9
$DIMASO
 70
1
  9
$DIMSHO
 70
1
  9
$DIMPOST
  1

  9
$DIMAPOST
  1

  9
$DIMALT
 70
0
  9
$DIMALTD
 70
3
  9
$DIMALTF
 40
0.03937007874
  9
$DIMLFAC
 40
1.0
  9
$DIMTOFL
 70
1
  9
$DIMTVP
 40
0.0
  9
$DIMTIX
 70
0
  9
$DIMSOXD
 70
0
  9
$DIMSAH
 70
0
  9
$DIMBLK1
  1

  9
$DIMBLK2
  1

  9
$DIMSTYLE
  2
ISO-25
  9
$DIMCLRD
 70
0
  9
$DIMCLRE
 70
0
  9
$DIMCLRT
 70
0
  9
$DIMTFAC
 40
1.0
  9
$DIMGAP
 40
0.625
  9
$COORDS
 70
1
  9
$ATTDIA
 70
0
  9
$ATTREQ
 70
1
  9
$HANDLING
 70
1
  9
$LUNITS
 70
2
  9
$LUPREC
 70
4
  9
$SKETCHINC
 40
1.0
  9
$FILLETRAD
 40
10.0
  9
$AUNITS
 70
0
  9
$AUPREC
 70
2
  9
$MENU
  1
.
  9
$ELEVATION
 40
0.0
  9
$PELEVATION
 40
0.0
  9
$THICKNESS
 40
0.0
  9
$LIMCHECK
 70
0
  9
$CHAMFERA
 40
0.0
  9
$CHAMFERB
 40
0.0
  9
$SKPOLY
 70
0
  9
$TDCREATE
 40
2460887.6269328706
  9
$TDUPDATE
 40
2460887.6269328706
  9
$TDINDWG
 40
0.0
  9
$TDUSRTIMER
 40
0.0
  9
$USRTIMER
 70
1
  9
$ANGBASE
 50
0.0
  9
$ANGDIR
 70
0
  9
$PDMODE
 70
0
  9
$PDSIZE
 40
0.0
  9
$PLINEWID
 40
0.0
  9
$SPLFRAME
 70
0
  9
$SPLINETYPE
 70
6
  9
$SPLINESEGS
 70
8
  9
$HANDSEED
  5
109
  9
$SURFTAB1
 70
6
  9
$SURFTAB2
 70
6
  9
$SURFTYPE
 70
6
  9
$SURFU
 70
6
  9
$SURFV
 70
6
  9
$UCSNAME
  2

  9
$UCSORG
 10
0.0
 20
0.0
 30
0.0
  9
$UCSXDIR
 10
1.0
 20
0.0
 30
0.0
  9
$UCSYDIR
 10
0.0
 20
1.0
 30
0.0
  9
$PUCSNAME
  2

  9
$PUCSORG
 10
0.0
 20
0.0
 30
0.0
  9
$PUCSXDIR
 10
1.0
 20
0.0
 30
0.0
  9
$PUCSYDIR
 10
0.0
 20
1.0
 30
0.0
  9
$USERI1
 70
0
  9
$USERI2
 70
0
  9
$USERI3
 70
0
  9
$USERI4
 70
0
  9
$USERI5
 70
0
  9
$USERR1
 40
0.0
  9
$USERR2
 40
0.0
  9
$USERR3
 40
0.0
  9
$USERR4
 40
0.0
  9
$USERR5
 40
0.0
  9
$WORLDVIEW
 70
1
  9
$SHADEDGE
 70
3
  9
$SHADEDIF
 70
70
  9
$TILEMODE
 70
1
  9
$MAXACTVP
 70
64
  9
$PLIMCHECK
 70
0
  9
$PEXTMIN
 10
1e+20
 20
1e+20
 30
1e+20
  9
$PEXTMAX
 10
-1e+20
 20
-1e+20
 30
-1e+20
  9
$PLIMMIN
 10
0.0
 20
0.0
  9
$PLIMMAX
 10
420.0
 20
297.0
  9
$UNITMODE
 70
0
  9
$VISRETAIN
 70
1
  9
$PLINEGEN
 70
0
  9
$PSLTSCALE
 70
1
  0
ENDSEC
  0
SECTION
  2
TABLES
  0
TABLE
  2
VPORT
 70
1
  0
VPORT
  5
23
  2
*Active
 70
0
 10
0.0
 20
0.0
 11
1.0
 21
1.0
 12
0.0
 22
0.0
 13
0.0
 23
0.0
 14
0.5
 24
0.5
 15
0.5
 25
0.5
 16
0.0
 26
0.0
 36
1.0
 17
0.0
 27
0.0
 37
0.0
 40
1000.0
 41
1.34
 42
50.0
 43
0.0
 44
0.0
 50
0.0
 51
0.0
 71
0
 72
1000
 73
1
 74
3
 75
0
 76
0
 77
0
 78
0
  0
ENDTAB
  0
TABLE
  2
LTYPE
 70
3
  0
LTYPE
  5
24
  2
ByBlock
 70
0
  3

 72
65
 73
0
 40
0.0
  0
LTYPE
  5
25
  2
ByLayer
 70
0
  3

 72
65
 73
0
 40
0.0
  0
LTYPE
  5
26
  2
Continuous
 70
0
  3

 72
65
 73
0
 40
0.0
  0
ENDTAB
  0
TABLE
  2
LAYER
 70
2
  0
LAYER
  5
27
  2
0
 70
0
 62
7
  6
Continuous
  0
LAYER
  5
28
  2
Defpoints
 70
0
 62
7
  6
Continuous
  0
ENDTAB
  0
TABLE
  2
STYLE
 70
1
  0
STYLE
  5
29
  2
Standard
 70
0
 40
0.0
 41
1.0
 50
0.0
 71
0
 42
2.5
  3
txt
  4

  0
ENDTAB
  0
TABLE
  2
VIEW
 70
0
  0
ENDTAB
  0
TABLE
  2
UCS
 70
0
  0
ENDTAB
  0
TABLE
  2
APPID
 70
3
  0
APPID
  5
2A
  2
ACAD
 70
0
  0
APPID
  5
107
  2
HATCHBACKGROUNDCOLOR
 70
0
  0
APPID
  5
108
  2
EZDXF
 70
0
  0
ENDTAB
  0
TABLE
  2
DIMSTYLE
 70
1
  0
DIMSTYLE
105
2B
  2
Standard
 70
0
  3

  4

  5

  6

  7

 40
1.0
 41
2.5
 42
0.625
 43
3.75
 44
1.25
 45
0.0
 46
0.0
 47
0.0
 48
0.0
140
2.5
141
2.5
142
0.0
143
0.03937007874
144
1.0
145
0.0
146
1.0
147
0.625
 71
0
 72
0
 73
0
 74
0
 75
0
 76
0
 77
1
 78
8
170
0
171
3
172
1
173
0
174
0
175
0
176
0
177
0
178
0
  0
ENDTAB
  0
ENDSEC
  0
SECTION
  2
BLOCKS
  0
BLOCK
  5
18
  8
0
  2
$Model_Space
 70
0
 10
0.0
 20
0.0
 30
0.0
  3
$Model_Space
  1

1001
EZDXF
1000
CREATED_BY_EZDXF
1000
1.4.2 @ 2025-07-30T18:02:47.462080+00:00
1000
WRITTEN_BY_EZDXF
1000
1.4.2 @ 2025-07-30T18:02:47.482035+00:00
  0
ENDBLK
  5
19
  8
0
  0
BLOCK
  5
1C
  8
0
  2
$Paper_Space
 70
0
 10
0.0
 20
0.0
 30
0.0
  3
$Paper_Space
  1

  0
ENDBLK
  5
1D
  8
0
  0
ENDSEC
  0
SECTION
  2
ENTITIES
  0
LINE
  5
2D
  8
0
 10
2.243887
 20
0.438178
 30
0.0
 11
1.287671
 21
0.568685
 31
0.0
  0
LINE
  5
2E
  8
0
 10
2.243887
 20
0.438178
 30
0.0
 11
1.287671
 21
0.568685
 31
0.0
  0
LINE
  5
2F
  8
0
 10
0.613875
 20
1.196109
 30
0.0
 11
0.543906
 21
1.392276
 31
0.0
  0
LINE
  5
30
  8
0
 10
0.441563
 20
2.217993
 30
0.0
 11
0.465484
 21
3.185772
 31
0.0
  0
LINE
  5
31
  8
0
 10
0.486427
 20
4.01664
 30
0.0
 11
0.510851
 21
4.985642
 31
0.0
  0
LINE
  5
32
  8
0
 10
0.531788
 20
5.816284
 30
0.0
 11
0.556185
 21
6.784205
 31
0.0
  0
LINE
  5
33
  8
0
 10
0.577146
 20
7.615825
 30
0.0
 11
0.560418
 21
8.583639
 31
0.0
  0
LINE
  5
34
  8
0
 10
0.534962
 20
9.414991
 30
0.0
 11
0.505325
 21
10.382881
 31
0.0
  0
LINE
  5
35
  8
0
 10
0.479864
 20
11.214423
 30
0.0
 11
0.450233
 21
12.182135
 31
0.0
  0
LINE
  5
36
  8
0
 10
0.44822
 20
13.013613
 30
0.0
 11
0.605858
 21
13.963549
 31
0.0
  0
LINE
  5
37
  8
0
 10
1.144764
 20
14.559104
 30
0.0
 11
2.087473
 21
14.742993
 31
0.0
  0
LINE
  5
38
  8
0
 10
2.919097
 20
14.730215
 30
0.0
 11
3.886275
 21
14.696587
 31
0.0
  0
LINE
  5
39
  8
0
 10
4.717187
 20
14.667697
 30
0.0
 11
5.684897
 21
14.634051
 31
0.0
  0
LINE
  5
3A
  8
0
 10
6.516729
 20
14.625934
 30
0.0
 11
7.48491
 21
14.627332
 31
0.0
  0
LINE
  5
3B
  8
0
 10
8.316527
 20
14.628533
 30
0.0
 11
9.285006
 21
14.629932
 31
0.0
  0
LINE
  5
3C
  8
0
 10
10.116759
 20
14.631134
 30
0.0
 11
11.085101
 21
14.632533
 31
0.0
  0
LINE
  5
3D
  8
0
 10
11.916855
 20
14.633734
 30
0.0
 11
12.885197
 21
14.635133
 31
0.0
  0
LINE
  5
3E
  8
0
 10
13.71695
 20
14.636334
 30
0.0
 11
14.62622
 21
14.578576
 31
0.0
  0
LINE
  5
3F
  8
0
 10
14.626211
 20
13.747004
 30
0.0
 11
14.6262
 21
12.778894
 31
0.0
  0
LINE
  5
40
  8
0
 10
14.626191
 20
11.946775
 30
0.0
 11
14.62618
 21
10.978665
 31
0.0
  0
LINE
  5
41
  8
0
 10
14.626171
 20
10.147175
 30
0.0
 11
14.62616
 21
9.179284
 31
0.0
  0
LINE
  5
42
  8
0
 10
14.626151
 20
8.34697
 30
0.0
 11
14.62614
 21
7.379186
 31
0.0
  0
LINE
  5
43
  8
0
 10
14.626131
 20
6.54708
 30
0.0
 11
14.634068
 21
5.578923
 31
0.0
  0
LINE
  5
44
  8
0
 10
14.663365
 20
4.747637
 30
0.0
 11
14.697463
 21
3.780162
 31
0.0
  0
LINE
  5
45
  8
0
 10
14.726768
 20
2.948657
 30
0.0
 11
14.714332
 21
1.983058
 31
0.0
  0
LINE
  5
46
  8
0
 10
14.569015
 20
1.168867
 30
0.0
 11
14.375061
 21
0.855508
 31
0.0
  0
LINE
  5
47
  8
0
 10
14.375061
 20
0.855508
 30
0.0
 11
13.861874
 21
0.565871
 31
0.0
  0
LINE
  5
48
  8
0
 10
13.861874
 20
0.565871
 30
0.0
 11
14.569015
 21
1.168867
 31
0.0
  0
LINE
  5
49
  8
0
 10
13.039454
 20
0.447586
 30
0.0
 11
13.014505
 21
0.447422
 31
0.0
  0
LINE
  5
4A
  8
0
 10
13.014505
 20
0.447422
 30
0.0
 11
12.985102
 21
0.448127
 31
0.0
  0
LINE
  5
4B
  8
0
 10
12.985102
 20
0.448127
 30
0.0
 11
12.071822
 21
0.467192
 31
0.0
  0
LINE
  5
4C
  8
0
 10
11.240939
 20
0.487116
 30
0.0
 11
10.272111
 21
0.510349
 31
0.0
  0
LINE
  5
4D
  8
0
 10
9.441231
 20
0.530273
 30
0.0
 11
8.473293
 21
0.553484
 31
0.0
  0
LINE
  5
4E
  8
0
 10
7.64152
 20
0.57343
 30
0.0
 11
6.673798
 21
0.566117
 31
0.0
  0
LINE
  5
4F
  8
0
 10
5.842647
 20
0.539813
 30
0.0
 11
4.874627
 21
0.509177
 31
0.0
  0
LINE
  5
50
  8
0
 10
4.043107
 20
0.482861
 30
0.0
 11
3.07543
 21
0.452236
 31
0.0
  0
LINE
  5
51
  8
0
 10
2.592849
 20
1.2388
 30
0.0
 11
2.592849
 21
1.576
 31
0.0
  0
LINE
  5
52
  8
0
 10
2.592849
 20
1.2388
 30
0.0
 11
2.592849
 21
1.576
 31
0.0
  0
LINE
  5
53
  8
0
 10
2.592849
 20
2.407
 30
0.0
 11
2.592849
 21
2.40776
 31
0.0
  0
LINE
  5
54
  8
0
 10
2.592849
 20
2.40776
 30
0.0
 11
2.592849
 21
2.782635
 31
0.0
  0
LINE
  5
55
  8
0
 10
2.592849
 20
2.782635
 30
0.0
 11
2.592849
 21
3.375961
 31
0.0
  0
LINE
  5
56
  8
0
 10
2.592849
 20
4.206707
 30
0.0
 11
2.592849
 21
4.241434
 31
0.0
  0
LINE
  5
57
  8
0
 10
2.592849
 20
4.241434
 30
0.0
 11
2.592849
 21
5.176
 31
0.0
  0
LINE
  5
58
  8
0
 10
2.592849
 20
6.007069
 30
0.0
 11
2.592849
 21
6.252462
 31
0.0
  0
LINE
  5
59
  8
0
 10
2.592849
 20
6.252462
 30
0.0
 11
2.592849
 21
6.976
 31
0.0
  0
LINE
  5
5A
  8
0
 10
2.592849
 20
7.80703
 30
0.0
 11
2.592849
 21
8.131007
 31
0.0
  0
LINE
  5
5B
  8
0
 10
2.592849
 20
8.131007
 30
0.0
 11
2.592849
 21
8.776
 31
0.0
  0
LINE
  5
5C
  8
0
 10
2.592849
 20
9.607
 30
0.0
 11
2.592849
 21
9.60776
 31
0.0
  0
LINE
  5
5D
  8
0
 10
2.592849
 20
9.60776
 30
0.0
 11
2.592849
 21
9.968
 31
0.0
  0
LINE
  5
5E
  8
0
 10
2.592849
 20
9.968
 30
0.0
 11
2.592849
 21
10.576
 31
0.0
  0
LINE
  5
5F
  8
0
 10
2.592849
 20
11.406935
 30
0.0
 11
2.592849
 21
11.859042
 31
0.0
  0
LINE
  5
60
  8
0
 10
2.592849
 20
11.859042
 30
0.0
 11
2.592849
 21
12.376
 31
0.0
  0
LINE
  5
61
  8
0
 10
2.592849
 20
13.207
 30
0.0
 11
2.592849
 21
13.20776
 31
0.0
  0
LINE
  5
62
  8
0
 10
2.592849
 20
13.20776
 30
0.0
 11
2.592849
 21
13.568
 31
0.0
  0
LINE
  5
63
  8
0
 10
2.592849
 20
13.568
 30
0.0
 11
2.592849
 21
14.176
 31
0.0
  0
LINE
  5
64
  8
0
 10
5.092849
 20
1.19164
 30
0.0
 11
5.092849
 21
1.489
 31
0.0
  0
LINE
  5
65
  8
0
 10
5.092849
 20
1.19164
 30
0.0
 11
5.092849
 21
1.489
 31
0.0
  0
LINE
  5
66
  8
0
 10
5.092849
 20
2.321
 30
0.0
 11
5.092849
 21
2.929
 31
0.0
  0
LINE
  5
67
  8
0
 10
5.092849
 20
2.929
 30
0.0
 11
5.092849
 21
3.289
 31
0.0
  0
LINE
  5
68
  8
0
 10
5.092849
 20
4.121
 30
0.0
 11
5.092849
 21
4.2958
 31
0.0
  0
LINE
  5
69
  8
0
 10
5.092849
 20
4.2958
 30
0.0
 11
5.092849
 21
4.6558
 31
0.0
  0
LINE
  5
6A
  8
0
 10
5.092849
 20
4.6558
 30
0.0
 11
5.092849
 21
5.089
 31
0.0
  0
LINE
  5
6B
  8
0
 10
5.092849
 20
5.920531
 30
0.0
 11
5.092849
 21
6.011712
 31
0.0
  0
LINE
  5
6C
  8
0
 10
5.092849
 20
6.011712
 30
0.0
 11
5.092849
 21
6.889
 31
0.0
  0
LINE
  5
6D
  8
0
 10
5.092849
 20
7.721
 30
0.0
 11
5.092849
 21
7.956294
 31
0.0
  0
LINE
  5
6E
  8
0
 10
5.092849
 20
7.956294
 30
0.0
 11
5.092849
 21
8.688987
 31
0.0
  0
LINE
  5
6F
  8
0
 10
5.092849
 20
9.521
 30
0.0
 11
5.092849
 21
10.129
 31
0.0
  0
LINE
  5
70
  8
0
 10
5.092849
 20
10.129
 30
0.0
 11
5.092849
 21
10.489
 31
0.0
  0
LINE
  5
71
  8
0
 10
5.092849
 20
11.320741
 30
0.0
 11
5.092849
 21
11.726478
 31
0.0
  0
LINE
  5
72
  8
0
 10
5.092849
 20
11.726478
 30
0.0
 11
5.092849
 21
12.289
 31
0.0
  0
LINE
  5
73
  8
0
 10
5.092849
 20
13.121
 30
0.0
 11
5.092849
 21
13.729
 31
0.0
  0
LINE
  5
74
  8
0
 10
5.092849
 20
13.729
 30
0.0
 11
5.092849
 21
14.089
 31
0.0
  0
LINE
  5
75
  8
0
 10
7.592849
 20
1.18452
 30
0.0
 11
7.592849
 21
1.46124
 31
0.0
  0
LINE
  5
76
  8
0
 10
7.592849
 20
1.18452
 30
0.0
 11
7.592849
 21
1.46124
 31
0.0
  0
LINE
  5
77
  8
0
 10
7.592849
 20
1.46124
 30
0.0
 11
7.592849
 21
1.462
 31
0.0
  0
LINE
  5
78
  8
0
 10
7.592849
 20
2.293
 30
0.0
 11
7.592849
 21
2.90176
 31
0.0
  0
LINE
  5
79
  8
0
 10
7.592849
 20
2.90176
 30
0.0
 11
7.592849
 21
3.262
 31
0.0
  0
LINE
  5
7A
  8
0
 10
7.592849
 20
4.093
 30
0.0
 11
7.592849
 21
4.45324
 31
0.0
  0
LINE
  5
7B
  8
0
 10
7.592849
 20
4.45324
 30
0.0
 11
7.592849
 21
5.062
 31
0.0
  0
LINE
  5
7C
  8
0
 10
7.592849
 20
5.892223
 30
0.0
 11
7.592849
 21
5.892542
 31
0.0
  0
LINE
  5
7D
  8
0
 10
7.592849
 20
5.892542
 30
0.0
 11
7.592849
 21
6.019133
 31
0.0
  0
LINE
  5
7E
  8
0
 10
7.592849
 20
6.019133
 30
0.0
 11
7.592849
 21
6.862
 31
0.0
  0
LINE
  5
7F
  8
0
 10
7.592849
 20
7.693
 30
0.0
 11
7.592849
 21
8.30176
 31
0.0
  0
LINE
  5
80
  8
0
 10
7.592849
 20
8.30176
 30
0.0
 11
7.592849
 21
8.662
 31
0.0
  0
LINE
  5
81
  8
0
 10
7.592849
 20
9.493
 30
0.0
 11
7.592849
 21
9.85324
 31
0.0
  0
LINE
  5
82
  8
0
 10
7.592849
 20
9.85324
 30
0.0
 11
7.592849
 21
10.462
 31
0.0
  0
LINE
  5
83
  8
0
 10
7.592849
 20
11.293
 30
0.0
 11
7.592849
 21
11.90176
 31
0.0
  0
LINE
  5
84
  8
0
 10
7.592849
 20
11.90176
 30
0.0
 11
7.592849
 21
12.262
 31
0.0
  0
LINE
  5
85
  8
0
 10
7.592849
 20
13.093
 30
0.0
 11
7.592849
 21
13.70176
 31
0.0
  0
LINE
  5
86
  8
0
 10
7.592849
 20
13.70176
 30
0.0
 11
7.592849
 21
14.062
 31
0.0
  0
LINE
  5
87
  8
0
 10
10.092849
 20
1.17316
 30
0.0
 11
10.092849
 21
1.465
 31
0.0
  0
LINE
  5
88
  8
0
 10
10.092849
 20
1.17316
 30
0.0
 11
10.092849
 21
1.465
 31
0.0
  0
LINE
  5
89
  8
0
 10
10.092849
 20
2.297
 30
0.0
 11
10.092849
 21
2.905
 31
0.0
  0
LINE
  5
8A
  8
0
 10
10.092849
 20
2.905
 30
0.0
 11
10.092849
 21
3.265
 31
0.0
  0
LINE
  5
8B
  8
0
 10
10.092849
 20
4.097141
 30
0.0
 11
10.092849
 21
4.191469
 31
0.0
  0
LINE
  5
8C
  8
0
 10
10.092849
 20
4.191469
 30
0.0
 11
10.092849
 21
5.065
 31
0.0
  0
LINE
  5
8D
  8
0
 10
10.092849
 20
5.897
 30
0.0
 11
10.092849
 21
6.505
 31
0.0
  0
LINE
  5
8E
  8
0
 10
10.092849
 20
6.505
 30
0.0
 11
10.092849
 21
6.865
 31
0.0
  0
LINE
  5
8F
  8
0
 10
10.092849
 20
7.696983
 30
0.0
 11
10.092849
 21
8.229201
 31
0.0
  0
LINE
  5
90
  8
0
 10
10.092849
 20
8.229201
 30
0.0
 11
10.092849
 21
8.665
 31
0.0
  0
LINE
  5
91
  8
0
 10
10.092849
 20
9.497
 30
0.0
 11
10.092849
 21
9.857
 31
0.0
  0
LINE
  5
92
  8
0
 10
10.092849
 20
9.857
 30
0.0
 11
10.092849
 21
10.465
 31
0.0
  0
LINE
  5
93
  8
0
 10
10.092849
 20
11.297
 30
0.0
 11
10.092849
 21
11.905
 31
0.0
  0
LINE
  5
94
  8
0
 10
10.092849
 20
11.905
 30
0.0
 11
10.092849
 21
12.265
 31
0.0
  0
LINE
  5
95
  8
0
 10
10.092849
 20
13.097
 30
0.0
 11
10.092849
 21
13.457
 31
0.0
  0
LINE
  5
96
  8
0
 10
10.092849
 20
13.457
 30
0.0
 11
10.092849
 21
14.065
 31
0.0
  0
LINE
  5
97
  8
0
 10
12.592849
 20
1.1618
 30
0.0
 11
12.592849
 21
1.468987
 31
0.0
  0
LINE
  5
98
  8
0
 10
12.592849
 20
1.1618
 30
0.0
 11
12.592849
 21
1.468987
 31
0.0
  0
LINE
  5
99
  8
0
 10
12.592849
 20
2.301
 30
0.0
 11
12.592849
 21
2.909
 31
0.0
  0
LINE
  5
9A
  8
0
 10
12.592849
 20
2.909
 30
0.0
 11
12.592849
 21
3.269
 31
0.0
  0
LINE
  5
9B
  8
0
 10
12.592849
 20
4.100844
 30
0.0
 11
12.592849
 21
4.195
 31
0.0
  0
LINE
  5
9C
  8
0
 10
12.592849
 20
4.195
 30
0.0
 11
12.592849
 21
4.651
 31
0.0
  0
LINE
  5
9D
  8
0
 10
12.592849
 20
4.651
 30
0.0
 11
12.592849
 21
5.069
 31
0.0
  0
LINE
  5
9E
  8
0
 10
12.592849
 20
5.900309
 30
0.0
 11
12.592849
 21
5.900631
 31
0.0
  0
LINE
  5
9F
  8
0
 10
12.592849
 20
5.900631
 30
0.0
 11
12.592849
 21
6.017136
 31
0.0
  0
LINE
  5
A0
  8
0
 10
12.592849
 20
6.017136
 30
0.0
 11
12.592849
 21
6.869
 31
0.0
  0
LINE
  5
A1
  8
0
 10
12.592849
 20
7.700845
 30
0.0
 11
12.592849
 21
7.825712
 31
0.0
  0
LINE
  5
A2
  8
0
 10
12.592849
 20
7.825712
 30
0.0
 11
12.592849
 21
8.669
 31
0.0
  0
LINE
  5
A3
  8
0
 10
12.592849
 20
9.501
 30
0.0
 11
12.592849
 21
9.861
 31
0.0
  0
LINE
  5
A4
  8
0
 10
12.592849
 20
9.861
 30
0.0
 11
12.592849
 21
10.469
 31
0.0
  0
LINE
  5
A5
  8
0
 10
12.592849
 20
11.301
 30
0.0
 11
12.592849
 21
11.909
 31
0.0
  0
LINE
  5
A6
  8
0
 10
12.592849
 20
11.909
 30
0.0
 11
12.592849
 21
12.269
 31
0.0
  0
LINE
  5
A7
  8
0
 10
12.592849
 20
13.101
 30
0.0
 11
12.592849
 21
13.709
 31
0.0
  0
LINE
  5
A8
  8
0
 10
12.592849
 20
13.709
 30
0.0
 11
12.592849
 21
14.069
 31
0.0
  0
LINE
  5
A9
  8
0
 10
1.016
 20
2.592238
 30
0.0
 11
1.01676
 21
2.592238
 31
0.0
  0
LINE
  5
AA
  8
0
 10
1.016
 20
2.592238
 30
0.0
 11
1.01676
 21
2.592238
 31
0.0
  0
LINE
  5
AB
  8
0
 10
1.01676
 20
2.592238
 30
0.0
 11
1.377
 21
2.592238
 31
0.0
  0
LINE
  5
AC
  8
0
 10
1.377
 20
2.592238
 30
0.0
 11
1.985
 21
2.592238
 31
0.0
  0
LINE
  5
AD
  8
0
 10
2.816
 20
2.592238
 30
0.0
 11
2.81676
 21
2.592238
 31
0.0
  0
LINE
  5
AE
  8
0
 10
2.81676
 20
2.592238
 30
0.0
 11
3.177
 21
2.592238
 31
0.0
  0
LINE
  5
AF
  8
0
 10
3.177
 20
2.592238
 30
0.0
 11
3.785
 21
2.592238
 31
0.0
  0
LINE
  5
B0
  8
0
 10
4.616
 20
2.592238
 30
0.0
 11
4.61676
 21
2.592238
 31
0.0
  0
LINE
  5
B1
  8
0
 10
4.61676
 20
2.592238
 30
0.0
 11
4.977
 21
2.592238
 31
0.0
  0
LINE
  5
B2
  8
0
 10
4.977
 20
2.592238
 30
0.0
 11
5.585
 21
2.592238
 31
0.0
  0
LINE
  5
B3
  8
0
 10
6.415978
 20
2.592238
 30
0.0
 11
6.416548
 21
2.592238
 31
0.0
  0
LINE
  5
B4
  8
0
 10
6.416548
 20
2.592238
 30
0.0
 11
6.871844
 21
2.592238
 31
0.0
  0
LINE
  5
B5
  8
0
 10
6.871844
 20
2.592238
 30
0.0
 11
7.385
 21
2.592238
 31
0.0
  0
LINE
  5
B6
  8
0
 10
8.216
 20
2.592238
 30
0.0
 11
8.21676
 21
2.592238
 31
0.0
  0
LINE
  5
B7
  8
0
 10
8.21676
 20
2.592238
 30
0.0
 11
8.577
 21
2.592238
 31
0.0
  0
LINE
  5
B8
  8
0
 10
8.577
 20
2.592238
 30
0.0
 11
9.185
 21
2.592238
 31
0.0
  0
LINE
  5
B9
  8
0
 10
10.016
 20
2.592238
 30
0.0
 11
10.01676
 21
2.592238
 31
0.0
  0
LINE
  5
BA
  8
0
 10
10.01676
 20
2.592238
 30
0.0
 11
10.377
 21
2.592238
 31
0.0
  0
LINE
  5
BB
  8
0
 10
10.377
 20
2.592238
 30
0.0
 11
10.985
 21
2.592238
 31
0.0
  0
LINE
  5
BC
  8
0
 10
11.815653
 20
2.592238
 30
0.0
 11
12.108246
 21
2.592238
 31
0.0
  0
LINE
  5
BD
  8
0
 10
12.108246
 20
2.592238
 30
0.0
 11
12.785
 21
2.592238
 31
0.0
  0
LINE
  5
BE
  8
0
 10
13.615928
 20
2.592238
 30
0.0
 11
13.95012
 21
2.592238
 31
0.0
  0
LINE
  5
BF
  8
0
 10
1.078844
 20
5.092238
 30
0.0
 11
1.255688
 21
5.092238
 31
0.0
  0
LINE
  5
C0
  8
0
 10
1.078844
 20
5.092238
 30
0.0
 11
1.255688
 21
5.092238
 31
0.0
  0
LINE
  5
C1
  8
0
 10
1.255688
 20
5.092238
 30
0.0
 11
2.048
 21
5.092238
 31
0.0
  0
LINE
  5
C2
  8
0
 10
2.878784
 20
5.092238
 30
0.0
 11
3.083293
 21
5.092238
 31
0.0
  0
LINE
  5
C3
  8
0
 10
3.083293
 20
5.092238
 30
0.0
 11
3.45736
 21
5.092238
 31
0.0
  0
LINE
  5
C4
  8
0
 10
3.45736
 20
5.092238
 30
0.0
 11
3.848
 21
5.092238
 31
0.0
  0
LINE
  5
C5
  8
0
 10
4.679
 20
5.092238
 30
0.0
 11
5.28776
 21
5.092238
 31
0.0
  0
LINE
  5
C6
  8
0
 10
5.28776
 20
5.092238
 30
0.0
 11
5.648
 21
5.092238
 31
0.0
  0
LINE
  5
C7
  8
0
 10
6.478958
 20
5.092238
 30
0.0
 11
6.945045
 21
5.092238
 31
0.0
  0
LINE
  5
C8
  8
0
 10
6.945045
 20
5.092238
 30
0.0
 11
7.448
 21
5.092238
 31
0.0
  0
LINE
  5
C9
  8
0
 10
8.278527
 20
5.092238
 30
0.0
 11
8.53306
 21
5.092238
 31
0.0
  0
LINE
  5
CA
  8
0
 10
8.53306
 20
5.092238
 30
0.0
 11
9.248
 21
5.092238
 31
0.0
  0
LINE
  5
CB
  8
0
 10
10.079
 20
5.092238
 30
0.0
 11
10.68776
 21
5.092238
 31
0.0
  0
LINE
  5
CC
  8
0
 10
10.68776
 20
5.092238
 30
0.0
 11
11.048
 21
5.092238
 31
0.0
  0
LINE
  5
CD
  8
0
 10
11.879
 20
5.092238
 30
0.0
 11
12.23924
 21
5.092238
 31
0.0
  0
LINE
  5
CE
  8
0
 10
12.23924
 20
5.092238
 30
0.0
 11
12.848
 21
5.092238
 31
0.0
  0
LINE
  5
CF
  8
0
 10
13.679
 20
5.092238
 30
0.0
 11
13.67976
 21
5.092238
 31
0.0
  0
LINE
  5
D0
  8
0
 10
13.67976
 20
5.092238
 30
0.0
 11
13.97688
 21
5.092238
 31
0.0
  0
LINE
  5
D1
  8
0
 10
1.141932
 20
7.592238
 30
0.0
 11
1.399881
 21
7.592238
 31
0.0
  0
LINE
  5
D2
  8
0
 10
1.141932
 20
7.592238
 30
0.0
 11
1.399881
 21
7.592238
 31
0.0
  0
LINE
  5
D3
  8
0
 10
1.399881
 20
7.592238
 30
0.0
 11
2.111
 21
7.592238
 31
0.0
  0
LINE
  5
D4
  8
0
 10
2.941918
 20
7.592238
 30
0.0
 11
2.942646
 21
7.592238
 31
0.0
  0
LINE
  5
D5
  8
0
 10
2.942646
 20
7.592238
 30
0.0
 11
3.104966
 21
7.592238
 31
0.0
  0
LINE
  5
D6
  8
0
 10
3.104966
 20
7.592238
 30
0.0
 11
3.47248
 21
7.592238
 31
0.0
  0
LINE
  5
D7
  8
0
 10
3.47248
 20
7.592238
 30
0.0
 11
3.911
 21
7.592238
 31
0.0
  0
LINE
  5
D8
  8
0
 10
4.742
 20
7.592238
 30
0.0
 11
4.74276
 21
7.592238
 31
0.0
  0
LINE
  5
D9
  8
0
 10
4.74276
 20
7.592238
 30
0.0
 11
5.103
 21
7.592238
 31
0.0
  0
LINE
  5
DA
  8
0
 10
5.103
 20
7.592238
 30
0.0
 11
5.711
 21
7.592238
 31
0.0
  0
LINE
  5
DB
  8
0
 10
6.541975
 20
7.592238
 30
0.0
 11
6.939956
 21
7.592238
 31
0.0
  0
LINE
  5
DC
  8
0
 10
6.939956
 20
7.592238
 30
0.0
 11
7.511
 21
7.592238
 31
0.0
  0
LINE
  5
DD
  8
0
 10
8.341894
 20
7.592238
 30
0.0
 11
8.530142
 21
7.592238
 31
0.0
  0
LINE
  5
DE
  8
0
 10
8.530142
 20
7.592238
 30
0.0
 11
9.311
 21
7.592238
 31
0.0
  0
LINE
  5
DF
  8
0
 10
10.142
 20
7.592238
 30
0.0
 11
10.14276
 21
7.592238
 31
0.0
  0
LINE
  5
E0
  8
0
 10
10.14276
 20
7.592238
 30
0.0
 11
10.503
 21
7.592238
 31
0.0
  0
LINE
  5
E1
  8
0
 10
10.503
 20
7.592238
 30
0.0
 11
11.111
 21
7.592238
 31
0.0
  0
LINE
  5
E2
  8
0
 10
11.942
 20
7.592238
 30
0.0
 11
11.94276
 21
7.592238
 31
0.0
  0
LINE
  5
E3
  8
0
 10
11.94276
 20
7.592238
 30
0.0
 11
12.303
 21
7.592238
 31
0.0
  0
LINE
  5
E4
  8
0
 10
12.303
 20
7.592238
 30
0.0
 11
12.911
 21
7.592238
 31
0.0
  0
LINE
  5
E5
  8
0
 10
13.741888
 20
7.592238
 30
0.0
 11
14.01876
 21
7.592238
 31
0.0
  0
LINE
  5
E6
  8
0
 10
1.079844
 20
10.092238
 30
0.0
 11
1.256468
 21
10.092238
 31
0.0
  0
LINE
  5
E7
  8
0
 10
1.079844
 20
10.092238
 30
0.0
 11
1.256468
 21
10.092238
 31
0.0
  0
LINE
  5
E8
  8
0
 10
1.256468
 20
10.092238
 30
0.0
 11
2.048
 21
10.092238
 31
0.0
  0
LINE
  5
E9
  8
0
 10
2.879885
 20
10.092238
 30
0.0
 11
3.08378
 21
10.092238
 31
0.0
  0
LINE
  5
EA
  8
0
 10
3.08378
 20
10.092238
 30
0.0
 11
3.45736
 21
10.092238
 31
0.0
  0
LINE
  5
EB
  8
0
 10
3.45736
 20
10.092238
 30
0.0
 11
3.848
 21
10.092238
 31
0.0
  0
LINE
  5
EC
  8
0
 10
4.68
 20
10.092238
 30
0.0
 11
5.04
 21
10.092238
 31
0.0
  0
LINE
  5
ED
  8
0
 10
5.04
 20
10.092238
 30
0.0
 11
5.648
 21
10.092238
 31
0.0
  0
LINE
  5
EE
  8
0
 10
6.479812
 20
10.092238
 30
0.0
 11
6.944733
 21
10.092238
 31
0.0
  0
LINE
  5
EF
  8
0
 10
6.944733
 20
10.092238
 30
0.0
 11
7.448
 21
10.092238
 31
0.0
  0
LINE
  5
F0
  8
0
 10
8.279819
 20
10.092238
 30
0.0
 11
8.722436
 21
10.092238
 31
0.0
  0
LINE
  5
F1
  8
0
 10
8.722436
 20
10.092238
 30
0.0
 11
9.248
 21
10.092238
 31
0.0
  0
LINE
  5
F2
  8
0
 10
10.08
 20
10.092238
 30
0.0
 11
10.688
 21
10.092238
 31
0.0
  0
LINE
  5
F3
  8
0
 10
10.688
 20
10.092238
 30
0.0
 11
11.048
 21
10.092238
 31
0.0
  0
LINE
  5
F4
  8
0
 10
11.88
 20
10.092238
 30
0.0
 11
12.24
 21
10.092238
 31
0.0
  0
LINE
  5
F5
  8
0
 10
12.24
 20
10.092238
 30
0.0
 11
12.848
 21
10.092238
 31
0.0
  0
LINE
  5
F6
  8
0
 10
13.679812
 20
10.092238
 30
0.0
 11
13.97088
 21
10.092238
 31
0.0
  0
LINE
  5
F7
  8
0
 10
1.004
 20
12.592238
 30
0.0
 11
1.364
 21
12.592238
 31
0.0
  0
LINE
  5
F8
  8
0
 10
1.004
 20
12.592238
 30
0.0
 11
1.364
 21
12.592238
 31
0.0
  0
LINE
  5
F9
  8
0
 10
1.364
 20
12.592238
 30
0.0
 11
1.972
 21
12.592238
 31
0.0
  0
LINE
  5
FA
  8
0
 10
2.804
 20
12.592238
 30
0.0
 11
3.412
 21
12.592238
 31
0.0
  0
LINE
  5
FB
  8
0
 10
3.412
 20
12.592238
 30
0.0
 11
3.772
 21
12.592238
 31
0.0
  0
LINE
  5
FC
  8
0
 10
4.604
 20
12.592238
 30
0.0
 11
5.212
 21
12.592238
 31
0.0
  0
LINE
  5
FD
  8
0
 10
5.212
 20
12.592238
 30
0.0
 11
5.572
 21
12.592238
 31
0.0
  0
LINE
  5
FE
  8
0
 10
6.403912
 20
12.592238
 30
0.0
 11
6.853547
 21
12.592238
 31
0.0
  0
LINE
  5
FF
  8
0
 10
6.853547
 20
12.592238
 30
0.0
 11
7.372
 21
12.592238
 31
0.0
  0
LINE
  5
100
  8
0
 10
8.204
 20
12.592238
 30
0.0
 11
8.564
 21
12.592238
 31
0.0
  0
LINE
  5
101
  8
0
 10
8.564
 20
12.592238
 30
0.0
 11
9.172
 21
12.592238
 31
0.0
  0
LINE
  5
102
  8
0
 10
10.004
 20
12.592238
 30
0.0
 11
10.364
 21
12.592238
 31
0.0
  0
LINE
  5
103
  8
0
 10
10.364
 20
12.592238
 30
0.0
 11
10.972
 21
12.592238
 31
0.0
  0
LINE
  5
104
  8
0
 10
11.803913
 20
12.592238
 30
0.0
 11
12.336201
 21
12.592238
 31
0.0
  0
LINE
  5
105
  8
0
 10
12.336201
 20
12.592238
 30
0.0
 11
12.772
 21
12.592238
 31
0.0
  0
LINE
  5
106
  8
0
 10
13.603884
 20
12.592238
 30
0.0
 11
13.91312
 21
12.592238
 31
0.0
  0
ENDSEC
  0
EOF
