  0
SECTION
  2
HEADER
  9
$ACADVER
  1
AC1009
  9
$DWGCODEPAGE
  3
ANSI_1252
  9
$INSBASE
 10
0.0
 20
0.0
 30
0.0
  9
$EXTMIN
 10
1e+20
 20
1e+20
 30
1e+20
  9
$EXTMAX
 10
-1e+20
 20
-1e+20
 30
-1e+20
  9
$LIMMIN
 10
0.0
 20
0.0
  9
$LIMMAX
 10
420.0
 20
297.0
  9
$ORTHOMODE
 70
0
  9
$REGENMODE
 70
1
  9
$FILLMODE
 70
1
  9
$DRAGMODE
 70
2
  9
$QTEXTMODE
 70
0
  9
$MIRRTEXT
 70
1
  9
$OSMODE
 70
20583
  9
$LTSCALE
 40
1.0
  9
$ATTMODE
 70
1
  9
$TEXTSIZE
 40
2.5
  9
$TRACEWID
 40
1.0
  9
$TEXTSTYLE
  7
Standard
  9
$CLAYER
  8
0
  9
$CELTYPE
  6
ByLayer
  9
$CECOLOR
 62
256
  9
$DIMSCALE
 40
1.0
  9
$DIMASZ
 40
2.5
  9
$DIMEXO
 40
0.625
  9
$DIMDLI
 40
3.75
  9
$DIMRND
 40
0.0
  9
$DIMDLE
 40
0.0
  9
$DIMEXE
 40
1.25
  9
$DIMTP
 40
0.0
  9
$DIMTM
 40
0.0
  9
$DIMTXT
 40
2.5
  9
$DIMCEN
 40
2.5
  9
$DIMTSZ
 40
0.0
  9
$DIMTOL
 70
0
  9
$DIMLIM
 70
0
  9
$DIMTIH
 70
0
  9
$DIMTOH
 70
0
  9
$DIMSE1
 70
0
  9
$DIMSE2
 70
0
  9
$DIMTAD
 70
1
  9
$DIMZIN
 70
8
  9
$DIMBLK
  1

  9
$DIMASO
 70
1
  9
$DIMSHO
 70
1
  9
$DIMPOST
  1

  9
$DIMAPOST
  1

  9
$DIMALT
 70
0
  9
$DIMALTD
 70
3
  9
$DIMALTF
 40
0.03937007874
  9
$DIMLFAC
 40
1.0
  9
$DIMTOFL
 70
1
  9
$DIMTVP
 40
0.0
  9
$DIMTIX
 70
0
  9
$DIMSOXD
 70
0
  9
$DIMSAH
 70
0
  9
$DIMBLK1
  1

  9
$DIMBLK2
  1

  9
$DIMSTYLE
  2
ISO-25
  9
$DIMCLRD
 70
0
  9
$DIMCLRE
 70
0
  9
$DIMCLRT
 70
0
  9
$DIMTFAC
 40
1.0
  9
$DIMGAP
 40
0.625
  9
$COORDS
 70
1
  9
$ATTDIA
 70
0
  9
$ATTREQ
 70
1
  9
$HANDLING
 70
1
  9
$LUNITS
 70
2
  9
$LUPREC
 70
4
  9
$SKETCHINC
 40
1.0
  9
$FILLETRAD
 40
10.0
  9
$AUNITS
 70
0
  9
$AUPREC
 70
2
  9
$MENU
  1
.
  9
$ELEVATION
 40
0.0
  9
$PELEVATION
 40
0.0
  9
$THICKNESS
 40
0.0
  9
$LIMCHECK
 70
0
  9
$CHAMFERA
 40
0.0
  9
$CHAMFERB
 40
0.0
  9
$SKPOLY
 70
0
  9
$TDCREATE
 40
2460887.6266203704
  9
$TDUPDATE
 40
2460887.6266203704
  9
$TDINDWG
 40
0.0
  9
$TDUSRTIMER
 40
0.0
  9
$USRTIMER
 70
1
  9
$ANGBASE
 50
0.0
  9
$ANGDIR
 70
0
  9
$PDMODE
 70
0
  9
$PDSIZE
 40
0.0
  9
$PLINEWID
 40
0.0
  9
$SPLFRAME
 70
0
  9
$SPLINETYPE
 70
6
  9
$SPLINESEGS
 70
8
  9
$HANDSEED
  5
16B
  9
$SURFTAB1
 70
6
  9
$SURFTAB2
 70
6
  9
$SURFTYPE
 70
6
  9
$SURFU
 70
6
  9
$SURFV
 70
6
  9
$UCSNAME
  2

  9
$UCSORG
 10
0.0
 20
0.0
 30
0.0
  9
$UCSXDIR
 10
1.0
 20
0.0
 30
0.0
  9
$UCSYDIR
 10
0.0
 20
1.0
 30
0.0
  9
$PUCSNAME
  2

  9
$PUCSORG
 10
0.0
 20
0.0
 30
0.0
  9
$PUCSXDIR
 10
1.0
 20
0.0
 30
0.0
  9
$PUCSYDIR
 10
0.0
 20
1.0
 30
0.0
  9
$USERI1
 70
0
  9
$USERI2
 70
0
  9
$USERI3
 70
0
  9
$USERI4
 70
0
  9
$USERI5
 70
0
  9
$USERR1
 40
0.0
  9
$USERR2
 40
0.0
  9
$USERR3
 40
0.0
  9
$USERR4
 40
0.0
  9
$USERR5
 40
0.0
  9
$WORLDVIEW
 70
1
  9
$SHADEDGE
 70
3
  9
$SHADEDIF
 70
70
  9
$TILEMODE
 70
1
  9
$MAXACTVP
 70
64
  9
$PLIMCHECK
 70
0
  9
$PEXTMIN
 10
1e+20
 20
1e+20
 30
1e+20
  9
$PEXTMAX
 10
-1e+20
 20
-1e+20
 30
-1e+20
  9
$PLIMMIN
 10
0.0
 20
0.0
  9
$PLIMMAX
 10
420.0
 20
297.0
  9
$UNITMODE
 70
0
  9
$VISRETAIN
 70
1
  9
$PLINEGEN
 70
0
  9
$PSLTSCALE
 70
1
  0
ENDSEC
  0
SECTION
  2
TABLES
  0
TABLE
  2
VPORT
 70
1
  0
VPORT
  5
23
  2
*Active
 70
0
 10
0.0
 20
0.0
 11
1.0
 21
1.0
 12
0.0
 22
0.0
 13
0.0
 23
0.0
 14
0.5
 24
0.5
 15
0.5
 25
0.5
 16
0.0
 26
0.0
 36
1.0
 17
0.0
 27
0.0
 37
0.0
 40
1000.0
 41
1.34
 42
50.0
 43
0.0
 44
0.0
 50
0.0
 51
0.0
 71
0
 72
1000
 73
1
 74
3
 75
0
 76
0
 77
0
 78
0
  0
ENDTAB
  0
TABLE
  2
LTYPE
 70
3
  0
LTYPE
  5
24
  2
ByBlock
 70
0
  3

 72
65
 73
0
 40
0.0
  0
LTYPE
  5
25
  2
ByLayer
 70
0
  3

 72
65
 73
0
 40
0.0
  0
LTYPE
  5
26
  2
Continuous
 70
0
  3

 72
65
 73
0
 40
0.0
  0
ENDTAB
  0
TABLE
  2
LAYER
 70
2
  0
LAYER
  5
27
  2
0
 70
0
 62
7
  6
Continuous
  0
LAYER
  5
28
  2
Defpoints
 70
0
 62
7
  6
Continuous
  0
ENDTAB
  0
TABLE
  2
STYLE
 70
1
  0
STYLE
  5
29
  2
Standard
 70
0
 40
0.0
 41
1.0
 50
0.0
 71
0
 42
2.5
  3
txt
  4

  0
ENDTAB
  0
TABLE
  2
VIEW
 70
0
  0
ENDTAB
  0
TABLE
  2
UCS
 70
0
  0
ENDTAB
  0
TABLE
  2
APPID
 70
3
  0
APPID
  5
2A
  2
ACAD
 70
0
  0
APPID
  5
169
  2
HATCHBACKGROUNDCOLOR
 70
0
  0
APPID
  5
16A
  2
EZDXF
 70
0
  0
ENDTAB
  0
TABLE
  2
DIMSTYLE
 70
1
  0
DIMSTYLE
105
2B
  2
Standard
 70
0
  3

  4

  5

  6

  7

 40
1.0
 41
2.5
 42
0.625
 43
3.75
 44
1.25
 45
0.0
 46
0.0
 47
0.0
 48
0.0
140
2.5
141
2.5
142
0.0
143
0.03937007874
144
1.0
145
0.0
146
1.0
147
0.625
 71
0
 72
0
 73
0
 74
0
 75
0
 76
0
 77
1
 78
8
170
0
171
3
172
1
173
0
174
0
175
0
176
0
177
0
178
0
  0
ENDTAB
  0
ENDSEC
  0
SECTION
  2
BLOCKS
  0
BLOCK
  5
18
  8
0
  2
$Model_Space
 70
0
 10
0.0
 20
0.0
 30
0.0
  3
$Model_Space
  1

1001
EZDXF
1000
CREATED_BY_EZDXF
1000
1.4.2 @ 2025-07-30T18:02:20.184879+00:00
1000
WRITTEN_BY_EZDXF
1000
1.4.2 @ 2025-07-30T18:02:20.199819+00:00
  0
ENDBLK
  5
19
  8
0
  0
BLOCK
  5
1C
  8
0
  2
$Paper_Space
 70
0
 10
0.0
 20
0.0
 30
0.0
  3
$Paper_Space
  1

  0
ENDBLK
  5
1D
  8
0
  0
ENDSEC
  0
SECTION
  2
ENTITIES
  0
LINE
  5
2D
  8
0
 10
2.555775
 20
0.435789
 30
0.0
 11
4.029038
 21
0.482415
 31
0.0
  0
LINE
  5
2E
  8
0
 10
2.555775
 20
0.435789
 30
0.0
 11
4.029038
 21
0.482415
 31
0.0
  0
LINE
  5
2F
  8
0
 10
5.054524
 20
0.51487
 30
0.0
 11
6.527787
 21
0.561496
 31
0.0
  0
LINE
  5
30
  8
0
 10
7.55335
 20
0.575544
 30
0.0
 11
9.026927
 21
0.540208
 31
0.0
  0
LINE
  5
31
  8
0
 10
10.052632
 20
0.515612
 30
0.0
 11
11.526208
 21
0.480275
 31
0.0
  0
LINE
  5
32
  8
0
 10
12.551913
 20
0.455679
 30
0.0
 11
12.935303
 21
0.446485
 31
0.0
  0
LINE
  5
33
  8
0
 10
12.935303
 20
0.446485
 30
0.0
 11
12.965152
 21
0.448324
 31
0.0
  0
LINE
  5
34
  8
0
 10
12.965152
 20
0.448324
 30
0.0
 11
14.006227
 21
0.620939
 31
0.0
  0
LINE
  5
35
  8
0
 10
14.632883
 20
1.369217
 30
0.0
 11
14.730782
 21
2.834787
 31
0.0
  0
LINE
  5
36
  8
0
 10
14.694644
 20
3.86015
 30
0.0
 11
14.642727
 21
5.333235
 31
0.0
  0
LINE
  5
37
  8
0
 10
14.626129
 20
6.358945
 30
0.0
 11
14.626145
 21
7.832945
 31
0.0
  0
LINE
  5
38
  8
0
 10
14.626156
 20
8.858945
 30
0.0
 11
14.626173
 21
10.332945
 31
0.0
  0
LINE
  5
39
  8
0
 10
14.626184
 20
11.358945
 30
0.0
 11
14.626201
 21
12.832945
 31
0.0
  0
LINE
  5
3A
  8
0
 10
14.626212
 20
13.858945
 30
0.0
 11
14.603299
 21
14.60299
 31
0.0
  0
LINE
  5
3B
  8
0
 10
14.603299
 20
14.60299
 30
0.0
 11
13.930925
 21
14.636643
 31
0.0
  0
LINE
  5
3C
  8
0
 10
13.930925
 20
14.636643
 30
0.0
 11
14.626212
 21
13.858945
 31
0.0
  0
LINE
  5
3D
  8
0
 10
12.904926
 20
14.635161
 30
0.0
 11
11.430927
 21
14.633032
 31
0.0
  0
LINE
  5
3E
  8
0
 10
10.404928
 20
14.63155
 30
0.0
 11
8.93093
 21
14.629421
 31
0.0
  0
LINE
  5
3F
  8
0
 10
7.904931
 20
14.627939
 30
0.0
 11
6.430932
 21
14.62581
 31
0.0
  0
LINE
  5
40
  8
0
 10
5.405256
 20
14.643774
 30
0.0
 11
3.932146
 21
14.694992
 31
0.0
  0
LINE
  5
41
  8
0
 10
2.906765
 20
14.730644
 30
0.0
 11
1.440424
 21
14.660321
 31
0.0
  0
LINE
  5
42
  8
0
 10
0.650929
 20
14.0741
 30
0.0
 11
0.436587
 21
12.627786
 31
0.0
  0
LINE
  5
43
  8
0
 10
0.467988
 20
11.602267
 30
0.0
 11
0.5131
 21
10.128957
 31
0.0
  0
LINE
  5
44
  8
0
 10
0.544501
 20
9.103438
 30
0.0
 11
0.577506
 21
7.630089
 31
0.0
  0
LINE
  5
45
  8
0
 10
0.551653
 20
6.604415
 30
0.0
 11
0.514512
 21
5.130883
 31
0.0
  0
LINE
  5
46
  8
0
 10
0.488659
 20
4.105209
 30
0.0
 11
0.451518
 21
2.631677
 31
0.0
  0
LINE
  5
47
  8
0
 10
0.494297
 20
1.788137
 30
0.0
 11
0.806799
 21
0.85731
 31
0.0
  0
LINE
  5
48
  8
0
 10
0.806799
 20
0.85731
 30
0.0
 11
1.71245
 21
0.479744
 31
0.0
  0
LINE
  5
49
  8
0
 10
1.71245
 20
0.479744
 30
0.0
 11
0.494297
 21
1.788137
 31
0.0
  0
LINE
  5
4A
  8
0
 10
2.592849
 20
0.437
 30
0.0
 11
2.592849
 21
1.422986
 31
0.0
  0
LINE
  5
4B
  8
0
 10
2.592849
 20
0.437
 30
0.0
 11
2.592849
 21
1.422986
 31
0.0
  0
LINE
  5
4C
  8
0
 10
2.592849
 20
1.422986
 30
0.0
 11
2.592849
 21
1.437
 31
0.0
  0
LINE
  5
4D
  8
0
 10
2.592849
 20
1.465
 30
0.0
 11
2.592849
 21
1.980381
 31
0.0
  0
LINE
  5
4E
  8
0
 10
2.592849
 20
1.980381
 30
0.0
 11
2.592849
 21
2.061671
 31
0.0
  0
LINE
  5
4F
  8
0
 10
2.592849
 20
2.061671
 30
0.0
 11
2.592849
 21
3.092523
 31
0.0
  0
LINE
  5
50
  8
0
 10
2.592849
 20
3.092523
 30
0.0
 11
2.592849
 21
3.719
 31
0.0
  0
LINE
  5
51
  8
0
 10
2.592849
 20
3.965
 30
0.0
 11
2.592849
 21
4.706423
 31
0.0
  0
LINE
  5
52
  8
0
 10
2.592849
 20
4.706423
 30
0.0
 11
2.592849
 21
4.805
 31
0.0
  0
LINE
  5
53
  8
0
 10
2.592849
 20
4.805
 30
0.0
 11
2.592849
 21
5.379
 31
0.0
  0
LINE
  5
54
  8
0
 10
2.592849
 20
5.379
 30
0.0
 11
2.592849
 21
5.472392
 31
0.0
  0
LINE
  5
55
  8
0
 10
2.592849
 20
5.472392
 30
0.0
 11
2.592849
 21
6.219
 31
0.0
  0
LINE
  5
56
  8
0
 10
2.592849
 20
6.465
 30
0.0
 11
2.592849
 21
7.088768
 31
0.0
  0
LINE
  5
57
  8
0
 10
2.592849
 20
7.088768
 30
0.0
 11
2.592849
 21
8.119619
 31
0.0
  0
LINE
  5
58
  8
0
 10
2.592849
 20
8.119619
 30
0.0
 11
2.592849
 21
8.173271
 31
0.0
  0
LINE
  5
59
  8
0
 10
2.592849
 20
8.173271
 30
0.0
 11
2.592849
 21
8.20091
 31
0.0
  0
LINE
  5
5A
  8
0
 10
2.592849
 20
8.20091
 30
0.0
 11
2.592849
 21
8.719
 31
0.0
  0
LINE
  5
5B
  8
0
 10
2.592849
 20
8.965
 30
0.0
 11
2.592849
 21
9.480381
 31
0.0
  0
LINE
  5
5C
  8
0
 10
2.592849
 20
9.480381
 30
0.0
 11
2.592849
 21
10.511232
 31
0.0
  0
LINE
  5
5D
  8
0
 10
2.592849
 20
10.511232
 30
0.0
 11
2.592849
 21
11.219
 31
0.0
  0
LINE
  5
5E
  8
0
 10
2.592849
 20
11.465
 30
0.0
 11
2.592849
 21
11.790703
 31
0.0
  0
LINE
  5
5F
  8
0
 10
2.592849
 20
11.790703
 30
0.0
 11
2.592849
 21
12.197155
 31
0.0
  0
LINE
  5
60
  8
0
 10
2.592849
 20
12.197155
 30
0.0
 11
2.592849
 21
13.228006
 31
0.0
  0
LINE
  5
61
  8
0
 10
2.592849
 20
13.228006
 30
0.0
 11
2.592849
 21
13.719
 31
0.0
  0
LINE
  5
62
  8
0
 10
2.592849
 20
13.742
 30
0.0
 11
2.592849
 21
13.75354
 31
0.0
  0
LINE
  5
63
  8
0
 10
2.592849
 20
13.75354
 30
0.0
 11
2.592849
 21
14.742
 31
0.0
  0
LINE
  5
64
  8
0
 10
5.092849
 20
0.516
 30
0.0
 11
5.092849
 21
1.449071
 31
0.0
  0
LINE
  5
65
  8
0
 10
5.092849
 20
0.516
 30
0.0
 11
5.092849
 21
1.449071
 31
0.0
  0
LINE
  5
66
  8
0
 10
5.092849
 20
1.449071
 30
0.0
 11
5.092849
 21
1.485771
 31
0.0
  0
LINE
  5
67
  8
0
 10
5.092849
 20
1.485771
 30
0.0
 11
5.092849
 21
1.550547
 31
0.0
  0
LINE
  5
68
  8
0
 10
5.092849
 20
1.550547
 30
0.0
 11
5.092849
 21
2.001787
 31
0.0
  0
LINE
  5
69
  8
0
 10
5.092849
 20
2.001787
 30
0.0
 11
5.092849
 21
2.083077
 31
0.0
  0
LINE
  5
6A
  8
0
 10
5.092849
 20
2.083077
 30
0.0
 11
5.092849
 21
3.113929
 31
0.0
  0
LINE
  5
6B
  8
0
 10
5.092849
 20
3.113929
 30
0.0
 11
5.092849
 21
3.719
 31
0.0
  0
LINE
  5
6C
  8
0
 10
5.092849
 20
3.965
 30
0.0
 11
5.092849
 21
4.741314
 31
0.0
  0
LINE
  5
6D
  8
0
 10
5.092849
 20
4.741314
 30
0.0
 11
5.092849
 21
4.805
 31
0.0
  0
LINE
  5
6E
  8
0
 10
5.092849
 20
4.805
 30
0.0
 11
5.092849
 21
5.379
 31
0.0
  0
LINE
  5
6F
  8
0
 10
5.092849
 20
5.379
 30
0.0
 11
5.092849
 21
5.50641
 31
0.0
  0
LINE
  5
70
  8
0
 10
5.092849
 20
5.50641
 30
0.0
 11
5.092849
 21
6.219
 31
0.0
  0
LINE
  5
71
  8
0
 10
5.092849
 20
6.465
 30
0.0
 11
5.092849
 21
7.110174
 31
0.0
  0
LINE
  5
72
  8
0
 10
5.092849
 20
7.110174
 30
0.0
 11
5.092849
 21
8.141026
 31
0.0
  0
LINE
  5
73
  8
0
 10
5.092849
 20
8.141026
 30
0.0
 11
5.092849
 21
8.173271
 31
0.0
  0
LINE
  5
74
  8
0
 10
5.092849
 20
8.173271
 30
0.0
 11
5.092849
 21
8.222316
 31
0.0
  0
LINE
  5
75
  8
0
 10
5.092849
 20
8.222316
 30
0.0
 11
5.092849
 21
8.719
 31
0.0
  0
LINE
  5
76
  8
0
 10
5.092849
 20
8.965
 30
0.0
 11
5.092849
 21
9.420497
 31
0.0
  0
LINE
  5
77
  8
0
 10
5.092849
 20
9.420497
 30
0.0
 11
5.092849
 21
9.501787
 31
0.0
  0
LINE
  5
78
  8
0
 10
5.092849
 20
9.501787
 30
0.0
 11
5.092849
 21
10.532639
 31
0.0
  0
LINE
  5
79
  8
0
 10
5.092849
 20
10.532639
 30
0.0
 11
5.092849
 21
11.219
 31
0.0
  0
LINE
  5
7A
  8
0
 10
5.092849
 20
11.465
 30
0.0
 11
5.092849
 21
11.81211
 31
0.0
  0
LINE
  5
7B
  8
0
 10
5.092849
 20
11.81211
 30
0.0
 11
5.092849
 21
12.218561
 31
0.0
  0
LINE
  5
7C
  8
0
 10
5.092849
 20
12.218561
 30
0.0
 11
5.092849
 21
13.249413
 31
0.0
  0
LINE
  5
7D
  8
0
 10
5.092849
 20
13.249413
 30
0.0
 11
5.092849
 21
13.626109
 31
0.0
  0
LINE
  5
7E
  8
0
 10
5.092849
 20
13.626109
 30
0.0
 11
5.092849
 21
13.642189
 31
0.0
  0
LINE
  5
7F
  8
0
 10
5.092849
 20
13.642189
 30
0.0
 11
5.092849
 21
13.708601
 31
0.0
  0
LINE
  5
80
  8
0
 10
5.092849
 20
13.708601
 30
0.0
 11
5.092849
 21
14.655
 31
0.0
  0
LINE
  5
81
  8
0
 10
7.592849
 20
0.574
 30
0.0
 11
7.592849
 21
1.486202
 31
0.0
  0
LINE
  5
82
  8
0
 10
7.592849
 20
0.574
 30
0.0
 11
7.592849
 21
1.486202
 31
0.0
  0
LINE
  5
83
  8
0
 10
7.592849
 20
1.486202
 30
0.0
 11
7.592849
 21
1.512903
 31
0.0
  0
LINE
  5
84
  8
0
 10
7.592849
 20
1.512903
 30
0.0
 11
7.592849
 21
1.645968
 31
0.0
  0
LINE
  5
85
  8
0
 10
7.592849
 20
1.645968
 30
0.0
 11
7.592849
 21
2.017774
 31
0.0
  0
LINE
  5
86
  8
0
 10
7.592849
 20
2.017774
 30
0.0
 11
7.592849
 21
2.099065
 31
0.0
  0
LINE
  5
87
  8
0
 10
7.592849
 20
2.099065
 30
0.0
 11
7.592849
 21
3.129916
 31
0.0
  0
LINE
  5
88
  8
0
 10
7.592849
 20
3.129916
 30
0.0
 11
7.592849
 21
3.719
 31
0.0
  0
LINE
  5
89
  8
0
 10
7.592849
 20
3.965
 30
0.0
 11
7.592849
 21
4.767541
 31
0.0
  0
LINE
  5
8A
  8
0
 10
7.592849
 20
4.767541
 30
0.0
 11
7.592849
 21
4.805
 31
0.0
  0
LINE
  5
8B
  8
0
 10
7.592849
 20
4.805
 30
0.0
 11
7.592849
 21
5.379
 31
0.0
  0
LINE
  5
8C
  8
0
 10
7.592849
 20
5.379
 30
0.0
 11
7.592849
 21
5.530667
 31
0.0
  0
LINE
  5
8D
  8
0
 10
7.592849
 20
5.530667
 30
0.0
 11
7.592849
 21
6.219
 31
0.0
  0
LINE
  5
8E
  8
0
 10
7.592849
 20
6.465
 30
0.0
 11
7.592849
 21
7.126161
 31
0.0
  0
LINE
  5
8F
  8
0
 10
7.592849
 20
7.126161
 30
0.0
 11
7.592849
 21
8.157013
 31
0.0
  0
LINE
  5
90
  8
0
 10
7.592849
 20
8.157013
 30
0.0
 11
7.592849
 21
8.173271
 31
0.0
  0
LINE
  5
91
  8
0
 10
7.592849
 20
8.173271
 30
0.0
 11
7.592849
 21
8.238303
 31
0.0
  0
LINE
  5
92
  8
0
 10
7.592849
 20
8.238303
 30
0.0
 11
7.592849
 21
8.719
 31
0.0
  0
LINE
  5
93
  8
0
 10
7.592849
 20
8.965
 30
0.0
 11
7.592849
 21
9.436484
 31
0.0
  0
LINE
  5
94
  8
0
 10
7.592849
 20
9.436484
 30
0.0
 11
7.592849
 21
9.517774
 31
0.0
  0
LINE
  5
95
  8
0
 10
7.592849
 20
9.517774
 30
0.0
 11
7.592849
 21
10.548626
 31
0.0
  0
LINE
  5
96
  8
0
 10
7.592849
 20
10.548626
 30
0.0
 11
7.592849
 21
11.219
 31
0.0
  0
LINE
  5
97
  8
0
 10
7.592849
 20
11.465
 30
0.0
 11
7.592849
 21
12.138333
 31
0.0
  0
LINE
  5
98
  8
0
 10
7.592849
 20
12.138333
 30
0.0
 11
7.592849
 21
12.305
 31
0.0
  0
LINE
  5
99
  8
0
 10
7.592849
 20
12.305
 30
0.0
 11
7.592849
 21
12.879
 31
0.0
  0
LINE
  5
9A
  8
0
 10
7.592849
 20
12.879
 30
0.0
 11
7.592849
 21
12.899855
 31
0.0
  0
LINE
  5
9B
  8
0
 10
7.592849
 20
12.899855
 30
0.0
 11
7.592849
 21
13.394066
 31
0.0
  0
LINE
  5
9C
  8
0
 10
7.592849
 20
13.394066
 30
0.0
 11
7.592849
 21
13.594238
 31
0.0
  0
LINE
  5
9D
  8
0
 10
7.592849
 20
13.594238
 30
0.0
 11
7.592849
 21
13.616597
 31
0.0
  0
LINE
  5
9E
  8
0
 10
7.592849
 20
13.616597
 30
0.0
 11
7.592849
 21
13.736076
 31
0.0
  0
LINE
  5
9F
  8
0
 10
7.592849
 20
13.736076
 30
0.0
 11
7.592849
 21
14.628
 31
0.0
  0
LINE
  5
A0
  8
0
 10
10.092849
 20
0.515
 30
0.0
 11
10.092849
 21
1.472627
 31
0.0
  0
LINE
  5
A1
  8
0
 10
10.092849
 20
0.515
 30
0.0
 11
10.092849
 21
1.472627
 31
0.0
  0
LINE
  5
A2
  8
0
 10
10.092849
 20
1.472627
 30
0.0
 11
10.092849
 21
1.485339
 31
0.0
  0
LINE
  5
A3
  8
0
 10
10.092849
 20
1.485339
 30
0.0
 11
10.092849
 21
1.548898
 31
0.0
  0
LINE
  5
A4
  8
0
 10
10.092849
 20
1.548898
 30
0.0
 11
10.092849
 21
2.001516
 31
0.0
  0
LINE
  5
A5
  8
0
 10
10.092849
 20
2.001516
 30
0.0
 11
10.092849
 21
2.082806
 31
0.0
  0
LINE
  5
A6
  8
0
 10
10.092849
 20
2.082806
 30
0.0
 11
10.092849
 21
3.113658
 31
0.0
  0
LINE
  5
A7
  8
0
 10
10.092849
 20
3.113658
 30
0.0
 11
10.092849
 21
3.719
 31
0.0
  0
LINE
  5
A8
  8
0
 10
10.092849
 20
3.965
 30
0.0
 11
10.092849
 21
4.7403
 31
0.0
  0
LINE
  5
A9
  8
0
 10
10.092849
 20
4.7403
 30
0.0
 11
10.092849
 21
4.805
 31
0.0
  0
LINE
  5
AA
  8
0
 10
10.092849
 20
4.805
 30
0.0
 11
10.092849
 21
5.379
 31
0.0
  0
LINE
  5
AB
  8
0
 10
10.092849
 20
5.379
 30
0.0
 11
10.092849
 21
5.505906
 31
0.0
  0
LINE
  5
AC
  8
0
 10
10.092849
 20
5.505906
 30
0.0
 11
10.092849
 21
6.219
 31
0.0
  0
LINE
  5
AD
  8
0
 10
10.092849
 20
6.465
 30
0.0
 11
10.092849
 21
7.109903
 31
0.0
  0
LINE
  5
AE
  8
0
 10
10.092849
 20
7.109903
 30
0.0
 11
10.092849
 21
8.140755
 31
0.0
  0
LINE
  5
AF
  8
0
 10
10.092849
 20
8.140755
 30
0.0
 11
10.092849
 21
8.173271
 31
0.0
  0
LINE
  5
B0
  8
0
 10
10.092849
 20
8.173271
 30
0.0
 11
10.092849
 21
8.222045
 31
0.0
  0
LINE
  5
B1
  8
0
 10
10.092849
 20
8.222045
 30
0.0
 11
10.092849
 21
8.719
 31
0.0
  0
LINE
  5
B2
  8
0
 10
10.092849
 20
8.965
 30
0.0
 11
10.092849
 21
9.420226
 31
0.0
  0
LINE
  5
B3
  8
0
 10
10.092849
 20
9.420226
 30
0.0
 11
10.092849
 21
9.501516
 31
0.0
  0
LINE
  5
B4
  8
0
 10
10.092849
 20
9.501516
 30
0.0
 11
10.092849
 21
10.532368
 31
0.0
  0
LINE
  5
B5
  8
0
 10
10.092849
 20
10.532368
 30
0.0
 11
10.092849
 21
11.219
 31
0.0
  0
LINE
  5
B6
  8
0
 10
10.092849
 20
11.465
 30
0.0
 11
10.092849
 21
11.811839
 31
0.0
  0
LINE
  5
B7
  8
0
 10
10.092849
 20
11.811839
 30
0.0
 11
10.092849
 21
12.21829
 31
0.0
  0
LINE
  5
B8
  8
0
 10
10.092849
 20
12.21829
 30
0.0
 11
10.092849
 21
13.249142
 31
0.0
  0
LINE
  5
B9
  8
0
 10
10.092849
 20
13.249142
 30
0.0
 11
10.092849
 21
13.593719
 31
0.0
  0
LINE
  5
BA
  8
0
 10
10.092849
 20
13.593719
 30
0.0
 11
10.092849
 21
13.615394
 31
0.0
  0
LINE
  5
BB
  8
0
 10
10.092849
 20
13.615394
 30
0.0
 11
10.092849
 21
13.70325
 31
0.0
  0
LINE
  5
BC
  8
0
 10
10.092849
 20
13.70325
 30
0.0
 11
10.092849
 21
14.631
 31
0.0
  0
LINE
  5
BD
  8
0
 10
12.592849
 20
0.455
 30
0.0
 11
12.592849
 21
1.449949
 31
0.0
  0
LINE
  5
BE
  8
0
 10
12.592849
 20
0.455
 30
0.0
 11
12.592849
 21
1.449949
 31
0.0
  0
LINE
  5
BF
  8
0
 10
12.592849
 20
1.449949
 30
0.0
 11
12.592849
 21
1.455
 31
0.0
  0
LINE
  5
C0
  8
0
 10
12.592849
 20
1.465
 30
0.0
 11
12.592849
 21
1.985258
 31
0.0
  0
LINE
  5
C1
  8
0
 10
12.592849
 20
1.985258
 30
0.0
 11
12.592849
 21
2.066548
 31
0.0
  0
LINE
  5
C2
  8
0
 10
12.592849
 20
2.066548
 30
0.0
 11
12.592849
 21
3.0974
 31
0.0
  0
LINE
  5
C3
  8
0
 10
12.592849
 20
3.0974
 30
0.0
 11
12.592849
 21
3.719
 31
0.0
  0
LINE
  5
C4
  8
0
 10
12.592849
 20
3.965
 30
0.0
 11
12.592849
 21
4.714848
 31
0.0
  0
LINE
  5
C5
  8
0
 10
12.592849
 20
4.714848
 30
0.0
 11
12.592849
 21
4.805
 31
0.0
  0
LINE
  5
C6
  8
0
 10
12.592849
 20
4.805
 30
0.0
 11
12.592849
 21
5.379
 31
0.0
  0
LINE
  5
C7
  8
0
 10
12.592849
 20
5.379
 30
0.0
 11
12.592849
 21
5.480217
 31
0.0
  0
LINE
  5
C8
  8
0
 10
12.592849
 20
5.480217
 30
0.0
 11
12.592849
 21
6.219
 31
0.0
  0
LINE
  5
C9
  8
0
 10
12.592849
 20
6.465
 30
0.0
 11
12.592849
 21
7.093645
 31
0.0
  0
LINE
  5
CA
  8
0
 10
12.592849
 20
7.093645
 30
0.0
 11
12.592849
 21
8.124497
 31
0.0
  0
LINE
  5
CB
  8
0
 10
12.592849
 20
8.124497
 30
0.0
 11
12.592849
 21
8.173271
 31
0.0
  0
LINE
  5
CC
  8
0
 10
12.592849
 20
8.173271
 30
0.0
 11
12.592849
 21
8.205787
 31
0.0
  0
LINE
  5
CD
  8
0
 10
12.592849
 20
8.205787
 30
0.0
 11
12.592849
 21
8.719
 31
0.0
  0
LINE
  5
CE
  8
0
 10
12.592849
 20
8.965
 30
0.0
 11
12.592849
 21
9.485258
 31
0.0
  0
LINE
  5
CF
  8
0
 10
12.592849
 20
9.485258
 30
0.0
 11
12.592849
 21
10.51611
 31
0.0
  0
LINE
  5
D0
  8
0
 10
12.592849
 20
10.51611
 30
0.0
 11
12.592849
 21
11.219
 31
0.0
  0
LINE
  5
D1
  8
0
 10
12.592849
 20
11.465
 30
0.0
 11
12.592849
 21
11.795581
 31
0.0
  0
LINE
  5
D2
  8
0
 10
12.592849
 20
11.795581
 30
0.0
 11
12.592849
 21
12.202032
 31
0.0
  0
LINE
  5
D3
  8
0
 10
12.592849
 20
12.202032
 30
0.0
 11
12.592849
 21
13.232884
 31
0.0
  0
LINE
  5
D4
  8
0
 10
12.592849
 20
13.232884
 30
0.0
 11
12.592849
 21
13.594868
 31
0.0
  0
LINE
  5
D5
  8
0
 10
12.592849
 20
13.594868
 30
0.0
 11
12.592849
 21
13.615626
 31
0.0
  0
LINE
  5
D6
  8
0
 10
12.592849
 20
13.615626
 30
0.0
 11
12.592849
 21
13.704193
 31
0.0
  0
LINE
  5
D7
  8
0
 10
12.592849
 20
13.704193
 30
0.0
 11
12.592849
 21
14.635
 31
0.0
  0
LINE
  5
D8
  8
0
 10
0.45
 20
2.592238
 30
0.0
 11
1.440983
 21
2.592238
 31
0.0
  0
LINE
  5
D9
  8
0
 10
0.45
 20
2.592238
 30
0.0
 11
1.440983
 21
2.592238
 31
0.0
  0
LINE
  5
DA
  8
0
 10
1.440983
 20
2.592238
 30
0.0
 11
1.451
 21
2.592238
 31
0.0
  0
LINE
  5
DB
  8
0
 10
1.466
 20
2.592238
 30
0.0
 11
1.954555
 21
2.592238
 31
0.0
  0
LINE
  5
DC
  8
0
 10
1.954555
 20
2.592238
 30
0.0
 11
2.985406
 21
2.592238
 31
0.0
  0
LINE
  5
DD
  8
0
 10
2.985406
 20
2.592238
 30
0.0
 11
3.391858
 21
2.592238
 31
0.0
  0
LINE
  5
DE
  8
0
 10
3.391858
 20
2.592238
 30
0.0
 11
3.72
 21
2.592238
 31
0.0
  0
LINE
  5
DF
  8
0
 10
3.966
 20
2.592238
 30
0.0
 11
4.671329
 21
2.592238
 31
0.0
  0
LINE
  5
E0
  8
0
 10
4.671329
 20
2.592238
 30
0.0
 11
5.702181
 21
2.592238
 31
0.0
  0
LINE
  5
E1
  8
0
 10
5.702181
 20
2.592238
 30
0.0
 11
6.22
 21
2.592238
 31
0.0
  0
LINE
  5
E2
  8
0
 10
6.466
 20
2.592238
 30
0.0
 11
6.981652
 21
2.592238
 31
0.0
  0
LINE
  5
E3
  8
0
 10
6.981652
 20
2.592238
 30
0.0
 11
7.062942
 21
2.592238
 31
0.0
  0
LINE
  5
E4
  8
0
 10
7.062942
 20
2.592238
 30
0.0
 11
8.093794
 21
2.592238
 31
0.0
  0
LINE
  5
E5
  8
0
 10
8.093794
 20
2.592238
 30
0.0
 11
8.72
 21
2.592238
 31
0.0
  0
LINE
  5
E6
  8
0
 10
8.966
 20
2.592238
 30
0.0
 11
9.70835
 21
2.592238
 31
0.0
  0
LINE
  5
E7
  8
0
 10
9.70835
 20
2.592238
 30
0.0
 11
9.806
 21
2.592238
 31
0.0
  0
LINE
  5
E8
  8
0
 10
9.806
 20
2.592238
 30
0.0
 11
10.38
 21
2.592238
 31
0.0
  0
LINE
  5
E9
  8
0
 10
10.38
 20
2.592238
 30
0.0
 11
10.473802
 21
2.592238
 31
0.0
  0
LINE
  5
EA
  8
0
 10
10.473802
 20
2.592238
 30
0.0
 11
11.22
 21
2.592238
 31
0.0
  0
LINE
  5
EB
  8
0
 10
11.466
 20
2.592238
 30
0.0
 11
12.090039
 21
2.592238
 31
0.0
  0
LINE
  5
EC
  8
0
 10
12.090039
 20
2.592238
 30
0.0
 11
13.12089
 21
2.592238
 31
0.0
  0
LINE
  5
ED
  8
0
 10
13.12089
 20
2.592238
 30
0.0
 11
13.202181
 21
2.592238
 31
0.0
  0
LINE
  5
EE
  8
0
 10
13.202181
 20
2.592238
 30
0.0
 11
13.72
 21
2.592238
 31
0.0
  0
LINE
  5
EF
  8
0
 10
13.739
 20
2.592238
 30
0.0
 11
13.748553
 21
2.592238
 31
0.0
  0
LINE
  5
F0
  8
0
 10
13.748553
 20
2.592238
 30
0.0
 11
14.739
 21
2.592238
 31
0.0
  0
LINE
  5
F1
  8
0
 10
0.513
 20
5.092238
 30
0.0
 11
0.985119
 21
5.092238
 31
0.0
  0
LINE
  5
F2
  8
0
 10
0.513
 20
5.092238
 30
0.0
 11
0.985119
 21
5.092238
 31
0.0
  0
LINE
  5
F3
  8
0
 10
0.985119
 20
5.092238
 30
0.0
 11
1.45036
 21
5.092238
 31
0.0
  0
LINE
  5
F4
  8
0
 10
1.45036
 20
5.092238
 30
0.0
 11
1.523657
 21
5.092238
 31
0.0
  0
LINE
  5
F5
  8
0
 10
1.523657
 20
5.092238
 30
0.0
 11
1.535881
 21
5.092238
 31
0.0
  0
LINE
  5
F6
  8
0
 10
1.535881
 20
5.092238
 30
0.0
 11
1.667401
 21
5.092238
 31
0.0
  0
LINE
  5
F7
  8
0
 10
1.667401
 20
5.092238
 30
0.0
 11
2.30363
 21
5.092238
 31
0.0
  0
LINE
  5
F8
  8
0
 10
2.30363
 20
5.092238
 30
0.0
 11
2.306
 21
5.092238
 31
0.0
  0
LINE
  5
F9
  8
0
 10
2.306
 20
5.092238
 30
0.0
 11
2.88
 21
5.092238
 31
0.0
  0
LINE
  5
FA
  8
0
 10
2.88
 20
5.092238
 30
0.0
 11
2.889972
 21
5.092238
 31
0.0
  0
LINE
  5
FB
  8
0
 10
2.889972
 20
5.092238
 30
0.0
 11
3.72
 21
5.092238
 31
0.0
  0
LINE
  5
FC
  8
0
 10
3.966
 20
5.092238
 30
0.0
 11
4.647484
 21
5.092238
 31
0.0
  0
LINE
  5
FD
  8
0
 10
4.647484
 20
5.092238
 30
0.0
 11
5.678335
 21
5.092238
 31
0.0
  0
LINE
  5
FE
  8
0
 10
5.678335
 20
5.092238
 30
0.0
 11
5.759626
 21
5.092238
 31
0.0
  0
LINE
  5
FF
  8
0
 10
5.759626
 20
5.092238
 30
0.0
 11
6.22
 21
5.092238
 31
0.0
  0
LINE
  5
100
  8
0
 10
6.466
 20
5.092238
 30
0.0
 11
6.957806
 21
5.092238
 31
0.0
  0
LINE
  5
101
  8
0
 10
6.957806
 20
5.092238
 30
0.0
 11
7.039097
 21
5.092238
 31
0.0
  0
LINE
  5
102
  8
0
 10
7.039097
 20
5.092238
 30
0.0
 11
8.069948
 21
5.092238
 31
0.0
  0
LINE
  5
103
  8
0
 10
8.069948
 20
5.092238
 30
0.0
 11
8.72
 21
5.092238
 31
0.0
  0
LINE
  5
104
  8
0
 10
8.966
 20
5.092238
 30
0.0
 11
9.670484
 21
5.092238
 31
0.0
  0
LINE
  5
105
  8
0
 10
9.670484
 20
5.092238
 30
0.0
 11
9.806
 21
5.092238
 31
0.0
  0
LINE
  5
106
  8
0
 10
9.806
 20
5.092238
 30
0.0
 11
10.38
 21
5.092238
 31
0.0
  0
LINE
  5
107
  8
0
 10
10.38
 20
5.092238
 30
0.0
 11
10.434927
 21
5.092238
 31
0.0
  0
LINE
  5
108
  8
0
 10
10.434927
 20
5.092238
 30
0.0
 11
11.22
 21
5.092238
 31
0.0
  0
LINE
  5
109
  8
0
 10
11.466
 20
5.092238
 30
0.0
 11
12.066194
 21
5.092238
 31
0.0
  0
LINE
  5
10A
  8
0
 10
12.066194
 20
5.092238
 30
0.0
 11
13.097045
 21
5.092238
 31
0.0
  0
LINE
  5
10B
  8
0
 10
13.097045
 20
5.092238
 30
0.0
 11
13.178335
 21
5.092238
 31
0.0
  0
LINE
  5
10C
  8
0
 10
13.178335
 20
5.092238
 30
0.0
 11
13.604962
 21
5.092238
 31
0.0
  0
LINE
  5
10D
  8
0
 10
13.604962
 20
5.092238
 30
0.0
 11
13.691284
 21
5.092238
 31
0.0
  0
LINE
  5
10E
  8
0
 10
13.691284
 20
5.092238
 30
0.0
 11
13.708548
 21
5.092238
 31
0.0
  0
LINE
  5
10F
  8
0
 10
13.708548
 20
5.092238
 30
0.0
 11
14.651
 21
5.092238
 31
0.0
  0
LINE
  5
110
  8
0
 10
0.576
 20
7.592238
 30
0.0
 11
1.090189
 21
7.592238
 31
0.0
  0
LINE
  5
111
  8
0
 10
0.576
 20
7.592238
 30
0.0
 11
1.090189
 21
7.592238
 31
0.0
  0
LINE
  5
112
  8
0
 10
1.090189
 20
7.592238
 30
0.0
 11
1.450881
 21
7.592238
 31
0.0
  0
LINE
  5
113
  8
0
 10
1.450881
 20
7.592238
 30
0.0
 11
1.590327
 21
7.592238
 31
0.0
  0
LINE
  5
114
  8
0
 10
1.590327
 20
7.592238
 30
0.0
 11
1.61716
 21
7.592238
 31
0.0
  0
LINE
  5
115
  8
0
 10
1.61716
 20
7.592238
 30
0.0
 11
1.848815
 21
7.592238
 31
0.0
  0
LINE
  5
116
  8
0
 10
1.848815
 20
7.592238
 30
0.0
 11
2.291981
 21
7.592238
 31
0.0
  0
LINE
  5
117
  8
0
 10
2.291981
 20
7.592238
 30
0.0
 11
2.306
 21
7.592238
 31
0.0
  0
LINE
  5
118
  8
0
 10
2.306
 20
7.592238
 30
0.0
 11
2.88
 21
7.592238
 31
0.0
  0
LINE
  5
119
  8
0
 10
2.88
 20
7.592238
 30
0.0
 11
2.970152
 21
7.592238
 31
0.0
  0
LINE
  5
11A
  8
0
 10
2.970152
 20
7.592238
 30
0.0
 11
3.72
 21
7.592238
 31
0.0
  0
LINE
  5
11B
  8
0
 10
3.966
 20
7.592238
 30
0.0
 11
4.64071
 21
7.592238
 31
0.0
  0
LINE
  5
11C
  8
0
 10
4.64071
 20
7.592238
 30
0.0
 11
5.671561
 21
7.592238
 31
0.0
  0
LINE
  5
11D
  8
0
 10
5.671561
 20
7.592238
 30
0.0
 11
5.752852
 21
7.592238
 31
0.0
  0
LINE
  5
11E
  8
0
 10
5.752852
 20
7.592238
 30
0.0
 11
6.22
 21
7.592238
 31
0.0
  0
LINE
  5
11F
  8
0
 10
6.466
 20
7.592238
 30
0.0
 11
6.951032
 21
7.592238
 31
0.0
  0
LINE
  5
120
  8
0
 10
6.951032
 20
7.592238
 30
0.0
 11
7.032323
 21
7.592238
 31
0.0
  0
LINE
  5
121
  8
0
 10
7.032323
 20
7.592238
 30
0.0
 11
8.063174
 21
7.592238
 31
0.0
  0
LINE
  5
122
  8
0
 10
8.063174
 20
7.592238
 30
0.0
 11
8.72
 21
7.592238
 31
0.0
  0
LINE
  5
123
  8
0
 10
8.966
 20
7.592238
 30
0.0
 11
9.660596
 21
7.592238
 31
0.0
  0
LINE
  5
124
  8
0
 10
9.660596
 20
7.592238
 30
0.0
 11
9.806
 21
7.592238
 31
0.0
  0
LINE
  5
125
  8
0
 10
9.806
 20
7.592238
 30
0.0
 11
10.38
 21
7.592238
 31
0.0
  0
LINE
  5
126
  8
0
 10
10.38
 20
7.592238
 30
0.0
 11
10.423351
 21
7.592238
 31
0.0
  0
LINE
  5
127
  8
0
 10
10.423351
 20
7.592238
 30
0.0
 11
11.22
 21
7.592238
 31
0.0
  0
LINE
  5
128
  8
0
 10
11.466
 20
7.592238
 30
0.0
 11
12.059419
 21
7.592238
 31
0.0
  0
LINE
  5
129
  8
0
 10
12.059419
 20
7.592238
 30
0.0
 11
13.090271
 21
7.592238
 31
0.0
  0
LINE
  5
12A
  8
0
 10
13.090271
 20
7.592238
 30
0.0
 11
13.171561
 21
7.592238
 31
0.0
  0
LINE
  5
12B
  8
0
 10
13.171561
 20
7.592238
 30
0.0
 11
13.564562
 21
7.592238
 31
0.0
  0
LINE
  5
12C
  8
0
 10
13.564562
 20
7.592238
 30
0.0
 11
13.679758
 21
7.592238
 31
0.0
  0
LINE
  5
12D
  8
0
 10
13.679758
 20
7.592238
 30
0.0
 11
13.702797
 21
7.592238
 31
0.0
  0
LINE
  5
12E
  8
0
 10
13.702797
 20
7.592238
 30
0.0
 11
14.626
 21
7.592238
 31
0.0
  0
LINE
  5
12F
  8
0
 10
0.514
 20
10.092238
 30
0.0
 11
1.473253
 21
10.092238
 31
0.0
  0
LINE
  5
130
  8
0
 10
0.514
 20
10.092238
 30
0.0
 11
1.473253
 21
10.092238
 31
0.0
  0
LINE
  5
131
  8
0
 10
1.473253
 20
10.092238
 30
0.0
 11
1.522638
 21
10.092238
 31
0.0
  0
LINE
  5
132
  8
0
 10
1.522638
 20
10.092238
 30
0.0
 11
1.534862
 21
10.092238
 31
0.0
  0
LINE
  5
133
  8
0
 10
1.534862
 20
10.092238
 30
0.0
 11
1.661597
 21
10.092238
 31
0.0
  0
LINE
  5
134
  8
0
 10
1.661597
 20
10.092238
 30
0.0
 11
2.291981
 21
10.092238
 31
0.0
  0
LINE
  5
135
  8
0
 10
2.291981
 20
10.092238
 30
0.0
 11
2.306
 21
10.092238
 31
0.0
  0
LINE
  5
136
  8
0
 10
2.306
 20
10.092238
 30
0.0
 11
2.88
 21
10.092238
 31
0.0
  0
LINE
  5
137
  8
0
 10
2.88
 20
10.092238
 30
0.0
 11
2.970152
 21
10.092238
 31
0.0
  0
LINE
  5
138
  8
0
 10
2.970152
 20
10.092238
 30
0.0
 11
3.72
 21
10.092238
 31
0.0
  0
LINE
  5
139
  8
0
 10
3.966
 20
10.092238
 30
0.0
 11
4.64071
 21
10.092238
 31
0.0
  0
LINE
  5
13A
  8
0
 10
4.64071
 20
10.092238
 30
0.0
 11
5.671561
 21
10.092238
 31
0.0
  0
LINE
  5
13B
  8
0
 10
5.671561
 20
10.092238
 30
0.0
 11
5.752852
 21
10.092238
 31
0.0
  0
LINE
  5
13C
  8
0
 10
5.752852
 20
10.092238
 30
0.0
 11
6.22
 21
10.092238
 31
0.0
  0
LINE
  5
13D
  8
0
 10
6.466
 20
10.092238
 30
0.0
 11
6.951032
 21
10.092238
 31
0.0
  0
LINE
  5
13E
  8
0
 10
6.951032
 20
10.092238
 30
0.0
 11
7.032323
 21
10.092238
 31
0.0
  0
LINE
  5
13F
  8
0
 10
7.032323
 20
10.092238
 30
0.0
 11
8.063174
 21
10.092238
 31
0.0
  0
LINE
  5
140
  8
0
 10
8.063174
 20
10.092238
 30
0.0
 11
8.72
 21
10.092238
 31
0.0
  0
LINE
  5
141
  8
0
 10
8.966
 20
10.092238
 30
0.0
 11
9.660596
 21
10.092238
 31
0.0
  0
LINE
  5
142
  8
0
 10
9.660596
 20
10.092238
 30
0.0
 11
9.806
 21
10.092238
 31
0.0
  0
LINE
  5
143
  8
0
 10
9.806
 20
10.092238
 30
0.0
 11
10.38
 21
10.092238
 31
0.0
  0
LINE
  5
144
  8
0
 10
10.38
 20
10.092238
 30
0.0
 11
10.423351
 21
10.092238
 31
0.0
  0
LINE
  5
145
  8
0
 10
10.423351
 20
10.092238
 30
0.0
 11
11.22
 21
10.092238
 31
0.0
  0
LINE
  5
146
  8
0
 10
11.466
 20
10.092238
 30
0.0
 11
12.059419
 21
10.092238
 31
0.0
  0
LINE
  5
147
  8
0
 10
12.059419
 20
10.092238
 30
0.0
 11
13.090271
 21
10.092238
 31
0.0
  0
LINE
  5
148
  8
0
 10
13.090271
 20
10.092238
 30
0.0
 11
13.171561
 21
10.092238
 31
0.0
  0
LINE
  5
149
  8
0
 10
13.171561
 20
10.092238
 30
0.0
 11
13.564562
 21
10.092238
 31
0.0
  0
LINE
  5
14A
  8
0
 10
13.564562
 20
10.092238
 30
0.0
 11
13.679758
 21
10.092238
 31
0.0
  0
LINE
  5
14B
  8
0
 10
13.679758
 20
10.092238
 30
0.0
 11
13.736849
 21
10.092238
 31
0.0
  0
LINE
  5
14C
  8
0
 10
13.736849
 20
10.092238
 30
0.0
 11
14.626
 21
10.092238
 31
0.0
  0
LINE
  5
14D
  8
0
 10
0.438
 20
12.592238
 30
0.0
 11
1.423986
 21
12.592238
 31
0.0
  0
LINE
  5
14E
  8
0
 10
0.438
 20
12.592238
 30
0.0
 11
1.423986
 21
12.592238
 31
0.0
  0
LINE
  5
14F
  8
0
 10
1.423986
 20
12.592238
 30
0.0
 11
1.438
 21
12.592238
 31
0.0
  0
LINE
  5
150
  8
0
 10
1.466
 20
12.592238
 30
0.0
 11
2.293131
 21
12.592238
 31
0.0
  0
LINE
  5
151
  8
0
 10
2.293131
 20
12.592238
 30
0.0
 11
2.306
 21
12.592238
 31
0.0
  0
LINE
  5
152
  8
0
 10
2.306
 20
12.592238
 30
0.0
 11
2.88
 21
12.592238
 31
0.0
  0
LINE
  5
153
  8
0
 10
2.88
 20
12.592238
 30
0.0
 11
2.970152
 21
12.592238
 31
0.0
  0
LINE
  5
154
  8
0
 10
2.970152
 20
12.592238
 30
0.0
 11
3.72
 21
12.592238
 31
0.0
  0
LINE
  5
155
  8
0
 10
3.966
 20
12.592238
 30
0.0
 11
4.64071
 21
12.592238
 31
0.0
  0
LINE
  5
156
  8
0
 10
4.64071
 20
12.592238
 30
0.0
 11
5.671561
 21
12.592238
 31
0.0
  0
LINE
  5
157
  8
0
 10
5.671561
 20
12.592238
 30
0.0
 11
5.752852
 21
12.592238
 31
0.0
  0
LINE
  5
158
  8
0
 10
5.752852
 20
12.592238
 30
0.0
 11
6.22
 21
12.592238
 31
0.0
  0
LINE
  5
159
  8
0
 10
6.466
 20
12.592238
 30
0.0
 11
6.951032
 21
12.592238
 31
0.0
  0
LINE
  5
15A
  8
0
 10
6.951032
 20
12.592238
 30
0.0
 11
7.032323
 21
12.592238
 31
0.0
  0
LINE
  5
15B
  8
0
 10
7.032323
 20
12.592238
 30
0.0
 11
8.063174
 21
12.592238
 31
0.0
  0
LINE
  5
15C
  8
0
 10
8.063174
 20
12.592238
 30
0.0
 11
8.72
 21
12.592238
 31
0.0
  0
LINE
  5
15D
  8
0
 10
8.966
 20
12.592238
 30
0.0
 11
9.660596
 21
12.592238
 31
0.0
  0
LINE
  5
15E
  8
0
 10
9.660596
 20
12.592238
 30
0.0
 11
9.806
 21
12.592238
 31
0.0
  0
LINE
  5
15F
  8
0
 10
9.806
 20
12.592238
 30
0.0
 11
10.38
 21
12.592238
 31
0.0
  0
LINE
  5
160
  8
0
 10
10.38
 20
12.592238
 30
0.0
 11
10.423351
 21
12.592238
 31
0.0
  0
LINE
  5
161
  8
0
 10
10.423351
 20
12.592238
 30
0.0
 11
11.22
 21
12.592238
 31
0.0
  0
LINE
  5
162
  8
0
 10
11.466
 20
12.592238
 30
0.0
 11
12.059419
 21
12.592238
 31
0.0
  0
LINE
  5
163
  8
0
 10
12.059419
 20
12.592238
 30
0.0
 11
13.090271
 21
12.592238
 31
0.0
  0
LINE
  5
164
  8
0
 10
13.090271
 20
12.592238
 30
0.0
 11
13.171561
 21
12.592238
 31
0.0
  0
LINE
  5
165
  8
0
 10
13.171561
 20
12.592238
 30
0.0
 11
13.564562
 21
12.592238
 31
0.0
  0
LINE
  5
166
  8
0
 10
13.564562
 20
12.592238
 30
0.0
 11
13.679758
 21
12.592238
 31
0.0
  0
LINE
  5
167
  8
0
 10
13.679758
 20
12.592238
 30
0.0
 11
13.702797
 21
12.592238
 31
0.0
  0
LINE
  5
168
  8
0
 10
13.702797
 20
12.592238
 30
0.0
 11
14.626
 21
12.592238
 31
0.0
  0
ENDSEC
  0
EOF
