  0
SECTION
  2
HEADER
  9
$ACADVER
  1
AC1009
  9
$DWGCODEPAGE
  3
ANSI_1252
  9
$INSBASE
 10
0.0
 20
0.0
 30
0.0
  9
$EXTMIN
 10
1e+20
 20
1e+20
 30
1e+20
  9
$EXTMAX
 10
-1e+20
 20
-1e+20
 30
-1e+20
  9
$LIMMIN
 10
0.0
 20
0.0
  9
$LIMMAX
 10
420.0
 20
297.0
  9
$ORTHOMODE
 70
0
  9
$REGENMODE
 70
1
  9
$FILLMODE
 70
1
  9
$DRAGMODE
 70
2
  9
$QTEXTMODE
 70
0
  9
$MIRRTEXT
 70
1
  9
$OSMODE
 70
20583
  9
$LTSCALE
 40
1.0
  9
$ATTMODE
 70
1
  9
$TEXTSIZE
 40
2.5
  9
$TRACEWID
 40
1.0
  9
$TEXTSTYLE
  7
Standard
  9
$CLAYER
  8
0
  9
$CELTYPE
  6
ByLayer
  9
$CECOLOR
 62
256
  9
$DIMSCALE
 40
1.0
  9
$DIMASZ
 40
2.5
  9
$DIMEXO
 40
0.625
  9
$DIMDLI
 40
3.75
  9
$DIMRND
 40
0.0
  9
$DIMDLE
 40
0.0
  9
$DIMEXE
 40
1.25
  9
$DIMTP
 40
0.0
  9
$DIMTM
 40
0.0
  9
$DIMTXT
 40
2.5
  9
$DIMCEN
 40
2.5
  9
$DIMTSZ
 40
0.0
  9
$DIMTOL
 70
0
  9
$DIMLIM
 70
0
  9
$DIMTIH
 70
0
  9
$DIMTOH
 70
0
  9
$DIMSE1
 70
0
  9
$DIMSE2
 70
0
  9
$DIMTAD
 70
1
  9
$DIMZIN
 70
8
  9
$DIMBLK
  1

  9
$DIMASO
 70
1
  9
$DIMSHO
 70
1
  9
$DIMPOST
  1

  9
$DIMAPOST
  1

  9
$DIMALT
 70
0
  9
$DIMALTD
 70
3
  9
$DIMALTF
 40
0.03937007874
  9
$DIMLFAC
 40
1.0
  9
$DIMTOFL
 70
1
  9
$DIMTVP
 40
0.0
  9
$DIMTIX
 70
0
  9
$DIMSOXD
 70
0
  9
$DIMSAH
 70
0
  9
$DIMBLK1
  1

  9
$DIMBLK2
  1

  9
$DIMSTYLE
  2
ISO-25
  9
$DIMCLRD
 70
0
  9
$DIMCLRE
 70
0
  9
$DIMCLRT
 70
0
  9
$DIMTFAC
 40
1.0
  9
$DIMGAP
 40
0.625
  9
$COORDS
 70
1
  9
$ATTDIA
 70
0
  9
$ATTREQ
 70
1
  9
$HANDLING
 70
1
  9
$LUNITS
 70
2
  9
$LUPREC
 70
4
  9
$SKETCHINC
 40
1.0
  9
$FILLETRAD
 40
10.0
  9
$AUNITS
 70
0
  9
$AUPREC
 70
2
  9
$MENU
  1
.
  9
$ELEVATION
 40
0.0
  9
$PELEVATION
 40
0.0
  9
$THICKNESS
 40
0.0
  9
$LIMCHECK
 70
0
  9
$CHAMFERA
 40
0.0
  9
$CHAMFERB
 40
0.0
  9
$SKPOLY
 70
0
  9
$TDCREATE
 40
2460887.626701389
  9
$TDUPDATE
 40
2460887.626701389
  9
$TDINDWG
 40
0.0
  9
$TDUSRTIMER
 40
0.0
  9
$USRTIMER
 70
1
  9
$ANGBASE
 50
0.0
  9
$ANGDIR
 70
0
  9
$PDMODE
 70
0
  9
$PDSIZE
 40
0.0
  9
$PLINEWID
 40
0.0
  9
$SPLFRAME
 70
0
  9
$SPLINETYPE
 70
6
  9
$SPLINESEGS
 70
8
  9
$HANDSEED
  5
174
  9
$SURFTAB1
 70
6
  9
$SURFTAB2
 70
6
  9
$SURFTYPE
 70
6
  9
$SURFU
 70
6
  9
$SURFV
 70
6
  9
$UCSNAME
  2

  9
$UCSORG
 10
0.0
 20
0.0
 30
0.0
  9
$UCSXDIR
 10
1.0
 20
0.0
 30
0.0
  9
$UCSYDIR
 10
0.0
 20
1.0
 30
0.0
  9
$PUCSNAME
  2

  9
$PUCSORG
 10
0.0
 20
0.0
 30
0.0
  9
$PUCSXDIR
 10
1.0
 20
0.0
 30
0.0
  9
$PUCSYDIR
 10
0.0
 20
1.0
 30
0.0
  9
$USERI1
 70
0
  9
$USERI2
 70
0
  9
$USERI3
 70
0
  9
$USERI4
 70
0
  9
$USERI5
 70
0
  9
$USERR1
 40
0.0
  9
$USERR2
 40
0.0
  9
$USERR3
 40
0.0
  9
$USERR4
 40
0.0
  9
$USERR5
 40
0.0
  9
$WORLDVIEW
 70
1
  9
$SHADEDGE
 70
3
  9
$SHADEDIF
 70
70
  9
$TILEMODE
 70
1
  9
$MAXACTVP
 70
64
  9
$PLIMCHECK
 70
0
  9
$PEXTMIN
 10
1e+20
 20
1e+20
 30
1e+20
  9
$PEXTMAX
 10
-1e+20
 20
-1e+20
 30
-1e+20
  9
$PLIMMIN
 10
0.0
 20
0.0
  9
$PLIMMAX
 10
420.0
 20
297.0
  9
$UNITMODE
 70
0
  9
$VISRETAIN
 70
1
  9
$PLINEGEN
 70
0
  9
$PSLTSCALE
 70
1
  0
ENDSEC
  0
SECTION
  2
TABLES
  0
TABLE
  2
VPORT
 70
1
  0
VPORT
  5
23
  2
*Active
 70
0
 10
0.0
 20
0.0
 11
1.0
 21
1.0
 12
0.0
 22
0.0
 13
0.0
 23
0.0
 14
0.5
 24
0.5
 15
0.5
 25
0.5
 16
0.0
 26
0.0
 36
1.0
 17
0.0
 27
0.0
 37
0.0
 40
1000.0
 41
1.34
 42
50.0
 43
0.0
 44
0.0
 50
0.0
 51
0.0
 71
0
 72
1000
 73
1
 74
3
 75
0
 76
0
 77
0
 78
0
  0
ENDTAB
  0
TABLE
  2
LTYPE
 70
3
  0
LTYPE
  5
24
  2
ByBlock
 70
0
  3

 72
65
 73
0
 40
0.0
  0
LTYPE
  5
25
  2
ByLayer
 70
0
  3

 72
65
 73
0
 40
0.0
  0
LTYPE
  5
26
  2
Continuous
 70
0
  3

 72
65
 73
0
 40
0.0
  0
ENDTAB
  0
TABLE
  2
LAYER
 70
2
  0
LAYER
  5
27
  2
0
 70
0
 62
7
  6
Continuous
  0
LAYER
  5
28
  2
Defpoints
 70
0
 62
7
  6
Continuous
  0
ENDTAB
  0
TABLE
  2
STYLE
 70
1
  0
STYLE
  5
29
  2
Standard
 70
0
 40
0.0
 41
1.0
 50
0.0
 71
0
 42
2.5
  3
txt
  4

  0
ENDTAB
  0
TABLE
  2
VIEW
 70
0
  0
ENDTAB
  0
TABLE
  2
UCS
 70
0
  0
ENDTAB
  0
TABLE
  2
APPID
 70
3
  0
APPID
  5
2A
  2
ACAD
 70
0
  0
APPID
  5
172
  2
HATCHBACKGROUNDCOLOR
 70
0
  0
APPID
  5
173
  2
EZDXF
 70
0
  0
ENDTAB
  0
TABLE
  2
DIMSTYLE
 70
1
  0
DIMSTYLE
105
2B
  2
Standard
 70
0
  3

  4

  5

  6

  7

 40
1.0
 41
2.5
 42
0.625
 43
3.75
 44
1.25
 45
0.0
 46
0.0
 47
0.0
 48
0.0
140
2.5
141
2.5
142
0.0
143
0.03937007874
144
1.0
145
0.0
146
1.0
147
0.625
 71
0
 72
0
 73
0
 74
0
 75
0
 76
0
 77
1
 78
8
170
0
171
3
172
1
173
0
174
0
175
0
176
0
177
0
178
0
  0
ENDTAB
  0
ENDSEC
  0
SECTION
  2
BLOCKS
  0
BLOCK
  5
18
  8
0
  2
$Model_Space
 70
0
 10
0.0
 20
0.0
 30
0.0
  3
$Model_Space
  1

1001
EZDXF
1000
CREATED_BY_EZDXF
1000
1.4.2 @ 2025-07-30T18:02:27.443124+00:00
1000
WRITTEN_BY_EZDXF
1000
1.4.2 @ 2025-07-30T18:02:27.460908+00:00
  0
ENDBLK
  5
19
  8
0
  0
BLOCK
  5
1C
  8
0
  2
$Paper_Space
 70
0
 10
0.0
 20
0.0
 30
0.0
  3
$Paper_Space
  1

  0
ENDBLK
  5
1D
  8
0
  0
ENDSEC
  0
SECTION
  2
ENTITIES
  0
LINE
  5
2D
  8
0
 10
2.499116
 20
0.433996
 30
0.0
 11
1.456522
 21
0.532205
 31
0.0
  0
LINE
  5
2E
  8
0
 10
1.456522
 20
0.532205
 30
0.0
 11
0.806799
 21
0.85731
 31
0.0
  0
LINE
  5
2F
  8
0
 10
0.806799
 20
0.85731
 30
0.0
 11
0.526598
 21
1.53822
 31
0.0
  0
LINE
  5
30
  8
0
 10
0.526598
 20
1.53822
 30
0.0
 11
0.467493
 21
3.265476
 31
0.0
  0
LINE
  5
31
  8
0
 10
0.467493
 20
3.265476
 30
0.0
 11
2.499116
 21
0.433996
 31
0.0
  0
LINE
  5
32
  8
0
 10
2.499116
 20
0.433996
 30
0.0
 11
1.456522
 21
0.532205
 31
0.0
  0
LINE
  5
33
  8
0
 10
1.456522
 20
0.532205
 30
0.0
 11
0.806799
 21
0.85731
 31
0.0
  0
LINE
  5
34
  8
0
 10
0.806799
 20
0.85731
 30
0.0
 11
0.526598
 21
1.53822
 31
0.0
  0
LINE
  5
35
  8
0
 10
0.526598
 20
1.53822
 30
0.0
 11
0.467493
 21
3.265476
 31
0.0
  0
LINE
  5
36
  8
0
 10
0.467493
 20
3.265476
 30
0.0
 11
2.499116
 21
0.433996
 31
0.0
  0
LINE
  5
37
  8
0
 10
0.472693
 20
3.471753
 30
0.0
 11
0.530487
 21
5.764682
 31
0.0
  0
LINE
  5
38
  8
0
 10
0.535678
 20
5.970616
 30
0.0
 11
0.57021
 21
8.263832
 31
0.0
  0
LINE
  5
39
  8
0
 10
0.563896
 20
8.470034
 30
0.0
 11
0.493697
 21
10.76266
 31
0.0
  0
LINE
  5
3A
  8
0
 10
0.487383
 20
10.968856
 30
0.0
 11
0.45814
 21
13.261296
 31
0.0
  0
LINE
  5
3B
  8
0
 10
0.489353
 20
13.464961
 30
0.0
 11
0.626706
 21
14.019411
 31
0.0
  0
LINE
  5
3C
  8
0
 10
0.626706
 20
14.019411
 30
0.0
 11
0.961687
 21
14.455808
 31
0.0
  0
LINE
  5
3D
  8
0
 10
0.961687
 20
14.455808
 30
0.0
 11
2.067658
 21
14.74147
 31
0.0
  0
LINE
  5
3E
  8
0
 10
2.067658
 20
14.74147
 30
0.0
 11
0.489353
 21
13.464961
 31
0.0
  0
LINE
  5
3F
  8
0
 10
2.273148
 20
14.752674
 30
0.0
 11
4.565763
 21
14.672962
 31
0.0
  0
LINE
  5
40
  8
0
 10
4.771638
 20
14.665804
 30
0.0
 11
6.033505
 21
14.625236
 31
0.0
  0
LINE
  5
41
  8
0
 10
6.033505
 20
14.625236
 30
0.0
 11
6.125627
 21
14.625369
 31
0.0
  0
LINE
  5
42
  8
0
 10
6.125627
 20
14.625369
 30
0.0
 11
7.064932
 21
14.626725
 31
0.0
  0
LINE
  5
43
  8
0
 10
7.271211
 20
14.627023
 30
0.0
 11
9.564929
 21
14.630337
 31
0.0
  0
LINE
  5
44
  8
0
 10
9.771252
 20
14.630635
 30
0.0
 11
12.064926
 21
14.633948
 31
0.0
  0
LINE
  5
45
  8
0
 10
12.271151
 20
14.634246
 30
0.0
 11
14.554863
 21
14.627484
 31
0.0
  0
LINE
  5
46
  8
0
 10
14.626219
 20
14.492594
 30
0.0
 11
14.626194
 21
12.198945
 31
0.0
  0
LINE
  5
47
  8
0
 10
14.626191
 20
11.992945
 30
0.0
 11
14.626166
 21
9.698945
 31
0.0
  0
LINE
  5
48
  8
0
 10
14.626163
 20
9.492684
 30
0.0
 11
14.626138
 21
7.198945
 31
0.0
  0
LINE
  5
49
  8
0
 10
14.626136
 20
6.992602
 30
0.0
 11
14.665057
 21
4.699629
 31
0.0
  0
LINE
  5
4A
  8
0
 10
14.672313
 20
4.493757
 30
0.0
 11
14.742309
 21
2.201678
 31
0.0
  0
LINE
  5
4B
  8
0
 10
14.716117
 20
1.997003
 30
0.0
 11
14.482748
 21
0.99543
 31
0.0
  0
LINE
  5
4C
  8
0
 10
14.482748
 20
0.99543
 30
0.0
 11
14.052439
 21
0.639924
 31
0.0
  0
LINE
  5
4D
  8
0
 10
14.052439
 20
0.639924
 30
0.0
 11
13.388375
 21
0.494938
 31
0.0
  0
LINE
  5
4E
  8
0
 10
13.388375
 20
0.494938
 30
0.0
 11
14.716117
 21
1.997003
 31
0.0
  0
LINE
  5
4F
  8
0
 10
13.184246
 20
0.467235
 30
0.0
 11
12.990506
 21
0.450224
 31
0.0
  0
LINE
  5
50
  8
0
 10
12.990506
 20
0.450224
 30
0.0
 11
12.93344
 21
0.44653
 31
0.0
  0
LINE
  5
51
  8
0
 10
12.93344
 20
0.44653
 30
0.0
 11
10.89239
 21
0.495474
 31
0.0
  0
LINE
  5
52
  8
0
 10
10.686207
 20
0.500419
 30
0.0
 11
8.393109
 21
0.555407
 31
0.0
  0
LINE
  5
53
  8
0
 10
8.187168
 20
0.560345
 30
0.0
 11
5.894104
 21
0.541441
 31
0.0
  0
LINE
  5
54
  8
0
 10
5.688016
 20
0.534919
 30
0.0
 11
3.395355
 21
0.462361
 31
0.0
  0
LINE
  5
55
  8
0
 10
3.189458
 20
0.455844
 30
0.0
 11
2.522416
 21
0.434734
 31
0.0
  0
LINE
  5
56
  8
0
 10
2.522416
 20
0.434734
 30
0.0
 11
2.499116
 21
0.433996
 31
0.0
  0
LINE
  5
57
  8
0
 10
2.592849
 20
0.437
 30
0.0
 11
2.592849
 21
1.032596
 31
0.0
  0
LINE
  5
58
  8
0
 10
2.592849
 20
0.437
 30
0.0
 11
2.592849
 21
1.032596
 31
0.0
  0
LINE
  5
59
  8
0
 10
2.592849
 20
1.032596
 30
0.0
 11
2.592849
 21
1.437
 31
0.0
  0
LINE
  5
5A
  8
0
 10
2.592849
 20
1.525
 30
0.0
 11
2.592849
 21
1.944458
 31
0.0
  0
LINE
  5
5B
  8
0
 10
2.592849
 20
1.944458
 30
0.0
 11
2.592849
 21
3.030045
 31
0.0
  0
LINE
  5
5C
  8
0
 10
2.592849
 20
3.030045
 30
0.0
 11
2.592849
 21
3.378665
 31
0.0
  0
LINE
  5
5D
  8
0
 10
2.592849
 20
3.378665
 30
0.0
 11
2.592849
 21
3.659
 31
0.0
  0
LINE
  5
5E
  8
0
 10
2.592849
 20
4.025
 30
0.0
 11
2.592849
 21
4.630497
 31
0.0
  0
LINE
  5
5F
  8
0
 10
2.592849
 20
4.630497
 30
0.0
 11
2.592849
 21
5.716084
 31
0.0
  0
LINE
  5
60
  8
0
 10
2.592849
 20
5.716084
 30
0.0
 11
2.592849
 21
6.159
 31
0.0
  0
LINE
  5
61
  8
0
 10
2.592849
 20
6.525
 30
0.0
 11
2.592849
 21
6.967916
 31
0.0
  0
LINE
  5
62
  8
0
 10
2.592849
 20
6.967916
 30
0.0
 11
2.592849
 21
7.037361
 31
0.0
  0
LINE
  5
63
  8
0
 10
2.592849
 20
7.037361
 30
0.0
 11
2.592849
 21
8.122948
 31
0.0
  0
LINE
  5
64
  8
0
 10
2.592849
 20
8.122948
 30
0.0
 11
2.592849
 21
8.659
 31
0.0
  0
LINE
  5
65
  8
0
 10
2.592849
 20
9.025
 30
0.0
 11
2.592849
 21
9.662792
 31
0.0
  0
LINE
  5
66
  8
0
 10
2.592849
 20
9.662792
 30
0.0
 11
2.592849
 21
9.745
 31
0.0
  0
LINE
  5
67
  8
0
 10
2.592849
 20
9.745
 30
0.0
 11
2.592849
 21
10.439
 31
0.0
  0
LINE
  5
68
  8
0
 10
2.592849
 20
10.439
 30
0.0
 11
2.592849
 21
10.520305
 31
0.0
  0
LINE
  5
69
  8
0
 10
2.592849
 20
10.520305
 30
0.0
 11
2.592849
 21
11.159
 31
0.0
  0
LINE
  5
6A
  8
0
 10
2.592849
 20
11.525
 30
0.0
 11
2.592849
 21
12.060819
 31
0.0
  0
LINE
  5
6B
  8
0
 10
2.592849
 20
12.060819
 30
0.0
 11
2.592849
 21
13.146406
 31
0.0
  0
LINE
  5
6C
  8
0
 10
2.592849
 20
13.146406
 30
0.0
 11
2.592849
 21
13.215852
 31
0.0
  0
LINE
  5
6D
  8
0
 10
2.592849
 20
13.215852
 30
0.0
 11
2.592849
 21
13.659
 31
0.0
  0
LINE
  5
6E
  8
0
 10
2.592849
 20
13.742
 30
0.0
 11
2.592849
 21
14.14491
 31
0.0
  0
LINE
  5
6F
  8
0
 10
2.592849
 20
14.14491
 30
0.0
 11
2.592849
 21
14.742
 31
0.0
  0
LINE
  5
70
  8
0
 10
5.092849
 20
0.516
 30
0.0
 11
5.092849
 21
1.03
 31
0.0
  0
LINE
  5
71
  8
0
 10
5.092849
 20
0.516
 30
0.0
 11
5.092849
 21
1.03
 31
0.0
  0
LINE
  5
72
  8
0
 10
5.092849
 20
1.03
 30
0.0
 11
5.092849
 21
1.516
 31
0.0
  0
LINE
  5
73
  8
0
 10
5.092849
 20
1.525
 30
0.0
 11
5.092849
 21
1.924484
 31
0.0
  0
LINE
  5
74
  8
0
 10
5.092849
 20
1.924484
 30
0.0
 11
5.092849
 21
3.010071
 31
0.0
  0
LINE
  5
75
  8
0
 10
5.092849
 20
3.010071
 30
0.0
 11
5.092849
 21
3.358458
 31
0.0
  0
LINE
  5
76
  8
0
 10
5.092849
 20
3.358458
 30
0.0
 11
5.092849
 21
3.659
 31
0.0
  0
LINE
  5
77
  8
0
 10
5.092849
 20
4.025
 30
0.0
 11
5.092849
 21
4.61029
 31
0.0
  0
LINE
  5
78
  8
0
 10
5.092849
 20
4.61029
 30
0.0
 11
5.092849
 21
5.695877
 31
0.0
  0
LINE
  5
79
  8
0
 10
5.092849
 20
5.695877
 30
0.0
 11
5.092849
 21
5.765555
 31
0.0
  0
LINE
  5
7A
  8
0
 10
5.092849
 20
5.765555
 30
0.0
 11
5.092849
 21
6.159
 31
0.0
  0
LINE
  5
7B
  8
0
 10
5.092849
 20
6.525
 30
0.0
 11
5.092849
 21
6.94771
 31
0.0
  0
LINE
  5
7C
  8
0
 10
5.092849
 20
6.94771
 30
0.0
 11
5.092849
 21
7.017387
 31
0.0
  0
LINE
  5
7D
  8
0
 10
5.092849
 20
7.017387
 30
0.0
 11
5.092849
 21
8.102974
 31
0.0
  0
LINE
  5
7E
  8
0
 10
5.092849
 20
8.102974
 30
0.0
 11
5.092849
 21
8.659
 31
0.0
  0
LINE
  5
7F
  8
0
 10
5.092849
 20
9.025
 30
0.0
 11
5.092849
 21
9.630864
 31
0.0
  0
LINE
  5
80
  8
0
 10
5.092849
 20
9.630864
 30
0.0
 11
5.092849
 21
9.745
 31
0.0
  0
LINE
  5
81
  8
0
 10
5.092849
 20
9.745
 30
0.0
 11
5.092849
 21
10.439
 31
0.0
  0
LINE
  5
82
  8
0
 10
5.092849
 20
10.439
 30
0.0
 11
5.092849
 21
10.487443
 31
0.0
  0
LINE
  5
83
  8
0
 10
5.092849
 20
10.487443
 30
0.0
 11
5.092849
 21
11.159
 31
0.0
  0
LINE
  5
84
  8
0
 10
5.092849
 20
11.525
 30
0.0
 11
5.092849
 21
12.040613
 31
0.0
  0
LINE
  5
85
  8
0
 10
5.092849
 20
12.040613
 30
0.0
 11
5.092849
 21
13.1262
 31
0.0
  0
LINE
  5
86
  8
0
 10
5.092849
 20
13.1262
 30
0.0
 11
5.092849
 21
13.195877
 31
0.0
  0
LINE
  5
87
  8
0
 10
5.092849
 20
13.195877
 30
0.0
 11
5.092849
 21
13.65232
 31
0.0
  0
LINE
  5
88
  8
0
 10
5.092849
 20
13.65232
 30
0.0
 11
5.092849
 21
13.657345
 31
0.0
  0
LINE
  5
89
  8
0
 10
5.092849
 20
13.657345
 30
0.0
 11
5.092849
 21
13.65835
 31
0.0
  0
LINE
  5
8A
  8
0
 10
5.092849
 20
13.65835
 30
0.0
 11
5.092849
 21
14.030656
 31
0.0
  0
LINE
  5
8B
  8
0
 10
5.092849
 20
14.030656
 30
0.0
 11
5.092849
 21
14.655
 31
0.0
  0
LINE
  5
8C
  8
0
 10
7.592849
 20
0.574
 30
0.0
 11
7.592849
 21
1.214425
 31
0.0
  0
LINE
  5
8D
  8
0
 10
7.592849
 20
0.574
 30
0.0
 11
7.592849
 21
1.214425
 31
0.0
  0
LINE
  5
8E
  8
0
 10
7.592849
 20
1.214425
 30
0.0
 11
7.592849
 21
1.534637
 31
0.0
  0
LINE
  5
8F
  8
0
 10
7.592849
 20
1.534637
 30
0.0
 11
7.592849
 21
1.581169
 31
0.0
  0
LINE
  5
90
  8
0
 10
7.592849
 20
1.581169
 30
0.0
 11
7.592849
 21
1.593226
 31
0.0
  0
LINE
  5
91
  8
0
 10
7.592849
 20
1.593226
 30
0.0
 11
7.592849
 21
1.698587
 31
0.0
  0
LINE
  5
92
  8
0
 10
7.592849
 20
1.698587
 30
0.0
 11
7.592849
 21
2.234456
 31
0.0
  0
LINE
  5
93
  8
0
 10
7.592849
 20
2.234456
 30
0.0
 11
7.592849
 21
2.245
 31
0.0
  0
LINE
  5
94
  8
0
 10
7.592849
 20
2.245
 30
0.0
 11
7.592849
 21
2.939
 31
0.0
  0
LINE
  5
95
  8
0
 10
7.592849
 20
2.939
 30
0.0
 11
7.592849
 21
3.005547
 31
0.0
  0
LINE
  5
96
  8
0
 10
7.592849
 20
3.005547
 30
0.0
 11
7.592849
 21
3.659
 31
0.0
  0
LINE
  5
97
  8
0
 10
7.592849
 20
4.025
 30
0.0
 11
7.592849
 21
4.604019
 31
0.0
  0
LINE
  5
98
  8
0
 10
7.592849
 20
4.604019
 30
0.0
 11
7.592849
 21
5.689606
 31
0.0
  0
LINE
  5
99
  8
0
 10
7.592849
 20
5.689606
 30
0.0
 11
7.592849
 21
5.691232
 31
0.0
  0
LINE
  5
9A
  8
0
 10
7.592849
 20
5.691232
 30
0.0
 11
7.592849
 21
5.759052
 31
0.0
  0
LINE
  5
9B
  8
0
 10
7.592849
 20
5.759052
 30
0.0
 11
7.592849
 21
6.159
 31
0.0
  0
LINE
  5
9C
  8
0
 10
7.592849
 20
6.525
 30
0.0
 11
7.592849
 21
6.941439
 31
0.0
  0
LINE
  5
9D
  8
0
 10
7.592849
 20
6.941439
 30
0.0
 11
7.592849
 21
7.010884
 31
0.0
  0
LINE
  5
9E
  8
0
 10
7.592849
 20
7.010884
 30
0.0
 11
7.592849
 21
8.096471
 31
0.0
  0
LINE
  5
9F
  8
0
 10
7.592849
 20
8.096471
 30
0.0
 11
7.592849
 21
8.659
 31
0.0
  0
LINE
  5
A0
  8
0
 10
7.592849
 20
9.025
 30
0.0
 11
7.592849
 21
9.621342
 31
0.0
  0
LINE
  5
A1
  8
0
 10
7.592849
 20
9.621342
 30
0.0
 11
7.592849
 21
9.745
 31
0.0
  0
LINE
  5
A2
  8
0
 10
7.592849
 20
9.745
 30
0.0
 11
7.592849
 21
10.439
 31
0.0
  0
LINE
  5
A3
  8
0
 10
7.592849
 20
10.439
 30
0.0
 11
7.592849
 21
10.476641
 31
0.0
  0
LINE
  5
A4
  8
0
 10
7.592849
 20
10.476641
 30
0.0
 11
7.592849
 21
11.159
 31
0.0
  0
LINE
  5
A5
  8
0
 10
7.592849
 20
11.525
 30
0.0
 11
7.592849
 21
12.034342
 31
0.0
  0
LINE
  5
A6
  8
0
 10
7.592849
 20
12.034342
 30
0.0
 11
7.592849
 21
13.119929
 31
0.0
  0
LINE
  5
A7
  8
0
 10
7.592849
 20
13.119929
 30
0.0
 11
7.592849
 21
13.189374
 31
0.0
  0
LINE
  5
A8
  8
0
 10
7.592849
 20
13.189374
 30
0.0
 11
7.592849
 21
13.607663
 31
0.0
  0
LINE
  5
A9
  8
0
 10
7.592849
 20
13.607663
 30
0.0
 11
7.592849
 21
13.645772
 31
0.0
  0
LINE
  5
AA
  8
0
 10
7.592849
 20
13.645772
 30
0.0
 11
7.592849
 21
13.664817
 31
0.0
  0
LINE
  5
AB
  8
0
 10
7.592849
 20
13.664817
 30
0.0
 11
7.592849
 21
14.087333
 31
0.0
  0
LINE
  5
AC
  8
0
 10
7.592849
 20
14.087333
 30
0.0
 11
7.592849
 21
14.628
 31
0.0
  0
LINE
  5
AD
  8
0
 10
10.092849
 20
0.515
 30
0.0
 11
10.092849
 21
1.134792
 31
0.0
  0
LINE
  5
AE
  8
0
 10
10.092849
 20
0.515
 30
0.0
 11
10.092849
 21
1.134792
 31
0.0
  0
LINE
  5
AF
  8
0
 10
10.092849
 20
1.134792
 30
0.0
 11
10.092849
 21
1.515
 31
0.0
  0
LINE
  5
B0
  8
0
 10
10.092849
 20
1.525
 30
0.0
 11
10.092849
 21
2.235447
 31
0.0
  0
LINE
  5
B1
  8
0
 10
10.092849
 20
2.235447
 30
0.0
 11
10.092849
 21
2.245
 31
0.0
  0
LINE
  5
B2
  8
0
 10
10.092849
 20
2.245
 30
0.0
 11
10.092849
 21
2.939
 31
0.0
  0
LINE
  5
B3
  8
0
 10
10.092849
 20
2.939
 30
0.0
 11
10.092849
 21
2.991844
 31
0.0
  0
LINE
  5
B4
  8
0
 10
10.092849
 20
2.991844
 30
0.0
 11
10.092849
 21
3.659
 31
0.0
  0
LINE
  5
B5
  8
0
 10
10.092849
 20
4.025
 30
0.0
 11
10.092849
 21
4.604716
 31
0.0
  0
LINE
  5
B6
  8
0
 10
10.092849
 20
4.604716
 30
0.0
 11
10.092849
 21
5.690303
 31
0.0
  0
LINE
  5
B7
  8
0
 10
10.092849
 20
5.690303
 30
0.0
 11
10.092849
 21
5.759981
 31
0.0
  0
LINE
  5
B8
  8
0
 10
10.092849
 20
5.759981
 30
0.0
 11
10.092849
 21
6.159
 31
0.0
  0
LINE
  5
B9
  8
0
 10
10.092849
 20
6.525
 30
0.0
 11
10.092849
 21
6.942135
 31
0.0
  0
LINE
  5
BA
  8
0
 10
10.092849
 20
6.942135
 30
0.0
 11
10.092849
 21
7.011813
 31
0.0
  0
LINE
  5
BB
  8
0
 10
10.092849
 20
7.011813
 30
0.0
 11
10.092849
 21
8.0974
 31
0.0
  0
LINE
  5
BC
  8
0
 10
10.092849
 20
8.0974
 30
0.0
 11
10.092849
 21
8.659
 31
0.0
  0
LINE
  5
BD
  8
0
 10
10.092849
 20
9.025
 30
0.0
 11
10.092849
 21
9.622321
 31
0.0
  0
LINE
  5
BE
  8
0
 10
10.092849
 20
9.622321
 30
0.0
 11
10.092849
 21
9.745
 31
0.0
  0
LINE
  5
BF
  8
0
 10
10.092849
 20
9.745
 30
0.0
 11
10.092849
 21
10.439
 31
0.0
  0
LINE
  5
C0
  8
0
 10
10.092849
 20
10.439
 30
0.0
 11
10.092849
 21
10.478465
 31
0.0
  0
LINE
  5
C1
  8
0
 10
10.092849
 20
10.478465
 30
0.0
 11
10.092849
 21
11.159
 31
0.0
  0
LINE
  5
C2
  8
0
 10
10.092849
 20
11.525
 30
0.0
 11
10.092849
 21
12.035039
 31
0.0
  0
LINE
  5
C3
  8
0
 10
10.092849
 20
12.035039
 30
0.0
 11
10.092849
 21
13.120626
 31
0.0
  0
LINE
  5
C4
  8
0
 10
10.092849
 20
13.120626
 30
0.0
 11
10.092849
 21
13.190303
 31
0.0
  0
LINE
  5
C5
  8
0
 10
10.092849
 20
13.190303
 30
0.0
 11
10.092849
 21
13.612609
 31
0.0
  0
LINE
  5
C6
  8
0
 10
10.092849
 20
13.612609
 30
0.0
 11
10.092849
 21
13.647092
 31
0.0
  0
LINE
  5
C7
  8
0
 10
10.092849
 20
13.647092
 30
0.0
 11
10.092849
 21
13.653989
 31
0.0
  0
LINE
  5
C8
  8
0
 10
10.092849
 20
13.653989
 30
0.0
 11
10.092849
 21
13.998694
 31
0.0
  0
LINE
  5
C9
  8
0
 10
10.092849
 20
13.998694
 30
0.0
 11
10.092849
 21
14.631
 31
0.0
  0
LINE
  5
CA
  8
0
 10
12.592849
 20
0.455
 30
0.0
 11
12.592849
 21
1.05601
 31
0.0
  0
LINE
  5
CB
  8
0
 10
12.592849
 20
0.455
 30
0.0
 11
12.592849
 21
1.05601
 31
0.0
  0
LINE
  5
CC
  8
0
 10
12.592849
 20
1.05601
 30
0.0
 11
12.592849
 21
1.455
 31
0.0
  0
LINE
  5
CD
  8
0
 10
12.592849
 20
1.525
 30
0.0
 11
12.592849
 21
2.237437
 31
0.0
  0
LINE
  5
CE
  8
0
 10
12.592849
 20
2.237437
 30
0.0
 11
12.592849
 21
2.245
 31
0.0
  0
LINE
  5
CF
  8
0
 10
12.592849
 20
2.245
 30
0.0
 11
12.592849
 21
2.939
 31
0.0
  0
LINE
  5
D0
  8
0
 10
12.592849
 20
2.939
 30
0.0
 11
12.592849
 21
2.981184
 31
0.0
  0
LINE
  5
D1
  8
0
 10
12.592849
 20
2.981184
 30
0.0
 11
12.592849
 21
3.659
 31
0.0
  0
LINE
  5
D2
  8
0
 10
12.592849
 20
4.025
 30
0.0
 11
12.592849
 21
4.605645
 31
0.0
  0
LINE
  5
D3
  8
0
 10
12.592849
 20
4.605645
 30
0.0
 11
12.592849
 21
5.691232
 31
0.0
  0
LINE
  5
D4
  8
0
 10
12.592849
 20
5.691232
 30
0.0
 11
12.592849
 21
5.76091
 31
0.0
  0
LINE
  5
D5
  8
0
 10
12.592849
 20
5.76091
 30
0.0
 11
12.592849
 21
6.159
 31
0.0
  0
LINE
  5
D6
  8
0
 10
12.592849
 20
6.525
 30
0.0
 11
12.592849
 21
6.943065
 31
0.0
  0
LINE
  5
D7
  8
0
 10
12.592849
 20
6.943065
 30
0.0
 11
12.592849
 21
7.012742
 31
0.0
  0
LINE
  5
D8
  8
0
 10
12.592849
 20
7.012742
 30
0.0
 11
12.592849
 21
8.098329
 31
0.0
  0
LINE
  5
D9
  8
0
 10
12.592849
 20
8.098329
 30
0.0
 11
12.592849
 21
8.659
 31
0.0
  0
LINE
  5
DA
  8
0
 10
12.592849
 20
9.025
 30
0.0
 11
12.592849
 21
9.623728
 31
0.0
  0
LINE
  5
DB
  8
0
 10
12.592849
 20
9.623728
 30
0.0
 11
12.592849
 21
9.745
 31
0.0
  0
LINE
  5
DC
  8
0
 10
12.592849
 20
9.745
 30
0.0
 11
12.592849
 21
10.439
 31
0.0
  0
LINE
  5
DD
  8
0
 10
12.592849
 20
10.439
 30
0.0
 11
12.592849
 21
10.479374
 31
0.0
  0
LINE
  5
DE
  8
0
 10
12.592849
 20
10.479374
 30
0.0
 11
12.592849
 21
11.159
 31
0.0
  0
LINE
  5
DF
  8
0
 10
12.592849
 20
11.525
 30
0.0
 11
12.592849
 21
12.035968
 31
0.0
  0
LINE
  5
E0
  8
0
 10
12.592849
 20
12.035968
 30
0.0
 11
12.592849
 21
13.121555
 31
0.0
  0
LINE
  5
E1
  8
0
 10
12.592849
 20
13.121555
 30
0.0
 11
12.592849
 21
13.191232
 31
0.0
  0
LINE
  5
E2
  8
0
 10
12.592849
 20
13.191232
 30
0.0
 11
12.592849
 21
13.619185
 31
0.0
  0
LINE
  5
E3
  8
0
 10
12.592849
 20
13.619185
 30
0.0
 11
12.592849
 21
13.648839
 31
0.0
  0
LINE
  5
E4
  8
0
 10
12.592849
 20
13.648839
 30
0.0
 11
12.592849
 21
13.654769
 31
0.0
  0
LINE
  5
E5
  8
0
 10
12.592849
 20
13.654769
 30
0.0
 11
12.592849
 21
14.004035
 31
0.0
  0
LINE
  5
E6
  8
0
 10
12.592849
 20
14.004035
 30
0.0
 11
12.592849
 21
14.635
 31
0.0
  0
LINE
  5
E7
  8
0
 10
0.45
 20
2.592238
 30
0.0
 11
0.920116
 21
2.592238
 31
0.0
  0
LINE
  5
E8
  8
0
 10
0.45
 20
2.592238
 30
0.0
 11
0.920116
 21
2.592238
 31
0.0
  0
LINE
  5
E9
  8
0
 10
0.920116
 20
2.592238
 30
0.0
 11
1.451
 21
2.592238
 31
0.0
  0
LINE
  5
EA
  8
0
 10
1.526
 20
2.592238
 30
0.0
 11
1.970774
 21
2.592238
 31
0.0
  0
LINE
  5
EB
  8
0
 10
1.970774
 20
2.592238
 30
0.0
 11
2.040219
 21
2.592238
 31
0.0
  0
LINE
  5
EC
  8
0
 10
2.040219
 20
2.592238
 30
0.0
 11
3.125806
 21
2.592238
 31
0.0
  0
LINE
  5
ED
  8
0
 10
3.125806
 20
2.592238
 30
0.0
 11
3.66
 21
2.592238
 31
0.0
  0
LINE
  5
EE
  8
0
 10
4.026
 20
2.592238
 30
0.0
 11
4.666655
 21
2.592238
 31
0.0
  0
LINE
  5
EF
  8
0
 10
4.666655
 20
2.592238
 30
0.0
 11
4.746
 21
2.592238
 31
0.0
  0
LINE
  5
F0
  8
0
 10
4.746
 20
2.592238
 30
0.0
 11
5.44
 21
2.592238
 31
0.0
  0
LINE
  5
F1
  8
0
 10
5.44
 20
2.592238
 30
0.0
 11
5.524494
 21
2.592238
 31
0.0
  0
LINE
  5
F2
  8
0
 10
5.524494
 20
2.592238
 30
0.0
 11
6.16
 21
2.592238
 31
0.0
  0
LINE
  5
F3
  8
0
 10
6.526
 20
2.592238
 30
0.0
 11
7.063677
 21
2.592238
 31
0.0
  0
LINE
  5
F4
  8
0
 10
7.063677
 20
2.592238
 30
0.0
 11
8.149265
 21
2.592238
 31
0.0
  0
LINE
  5
F5
  8
0
 10
8.149265
 20
2.592238
 30
0.0
 11
8.21871
 21
2.592238
 31
0.0
  0
LINE
  5
F6
  8
0
 10
8.21871
 20
2.592238
 30
0.0
 11
8.66
 21
2.592238
 31
0.0
  0
LINE
  5
F7
  8
0
 10
9.026
 20
2.592238
 30
0.0
 11
9.470542
 21
2.592238
 31
0.0
  0
LINE
  5
F8
  8
0
 10
9.470542
 20
2.592238
 30
0.0
 11
10.556129
 21
2.592238
 31
0.0
  0
LINE
  5
F9
  8
0
 10
10.556129
 20
2.592238
 30
0.0
 11
11.16
 21
2.592238
 31
0.0
  0
LINE
  5
FA
  8
0
 10
11.526
 20
2.592238
 30
0.0
 11
11.807961
 21
2.592238
 31
0.0
  0
LINE
  5
FB
  8
0
 10
11.807961
 20
2.592238
 30
0.0
 11
12.156581
 21
2.592238
 31
0.0
  0
LINE
  5
FC
  8
0
 10
12.156581
 20
2.592238
 30
0.0
 11
13.242168
 21
2.592238
 31
0.0
  0
LINE
  5
FD
  8
0
 10
13.242168
 20
2.592238
 30
0.0
 11
13.66
 21
2.592238
 31
0.0
  0
LINE
  5
FE
  8
0
 10
13.739
 20
2.592238
 30
0.0
 11
14.140709
 21
2.592238
 31
0.0
  0
LINE
  5
FF
  8
0
 10
14.140709
 20
2.592238
 30
0.0
 11
14.739
 21
2.592238
 31
0.0
  0
LINE
  5
100
  8
0
 10
0.513
 20
5.092238
 30
0.0
 11
1.505987
 21
5.092238
 31
0.0
  0
LINE
  5
101
  8
0
 10
0.513
 20
5.092238
 30
0.0
 11
1.505987
 21
5.092238
 31
0.0
  0
LINE
  5
102
  8
0
 10
1.505987
 20
5.092238
 30
0.0
 11
1.514
 21
5.092238
 31
0.0
  0
LINE
  5
103
  8
0
 10
1.526
 20
5.092238
 30
0.0
 11
1.985406
 21
5.092238
 31
0.0
  0
LINE
  5
104
  8
0
 10
1.985406
 20
5.092238
 30
0.0
 11
2.054852
 21
5.092238
 31
0.0
  0
LINE
  5
105
  8
0
 10
2.054852
 20
5.092238
 30
0.0
 11
3.140439
 21
5.092238
 31
0.0
  0
LINE
  5
106
  8
0
 10
3.140439
 20
5.092238
 30
0.0
 11
3.66
 21
5.092238
 31
0.0
  0
LINE
  5
107
  8
0
 10
4.026
 20
5.092238
 30
0.0
 11
4.690471
 21
5.092238
 31
0.0
  0
LINE
  5
108
  8
0
 10
4.690471
 20
5.092238
 30
0.0
 11
4.746
 21
5.092238
 31
0.0
  0
LINE
  5
109
  8
0
 10
4.746
 20
5.092238
 30
0.0
 11
5.44
 21
5.092238
 31
0.0
  0
LINE
  5
10A
  8
0
 10
5.44
 20
5.092238
 30
0.0
 11
5.547437
 21
5.092238
 31
0.0
  0
LINE
  5
10B
  8
0
 10
5.547437
 20
5.092238
 30
0.0
 11
6.16
 21
5.092238
 31
0.0
  0
LINE
  5
10C
  8
0
 10
6.526
 20
5.092238
 30
0.0
 11
7.07831
 21
5.092238
 31
0.0
  0
LINE
  5
10D
  8
0
 10
7.07831
 20
5.092238
 30
0.0
 11
8.163897
 21
5.092238
 31
0.0
  0
LINE
  5
10E
  8
0
 10
8.163897
 20
5.092238
 30
0.0
 11
8.233342
 21
5.092238
 31
0.0
  0
LINE
  5
10F
  8
0
 10
8.233342
 20
5.092238
 30
0.0
 11
8.66
 21
5.092238
 31
0.0
  0
LINE
  5
110
  8
0
 10
9.026
 20
5.092238
 30
0.0
 11
9.415729
 21
5.092238
 31
0.0
  0
LINE
  5
111
  8
0
 10
9.415729
 20
5.092238
 30
0.0
 11
9.485174
 21
5.092238
 31
0.0
  0
LINE
  5
112
  8
0
 10
9.485174
 20
5.092238
 30
0.0
 11
10.570761
 21
5.092238
 31
0.0
  0
LINE
  5
113
  8
0
 10
10.570761
 20
5.092238
 30
0.0
 11
11.16
 21
5.092238
 31
0.0
  0
LINE
  5
114
  8
0
 10
11.526
 20
5.092238
 30
0.0
 11
11.822594
 21
5.092238
 31
0.0
  0
LINE
  5
115
  8
0
 10
11.822594
 20
5.092238
 30
0.0
 11
12.171213
 21
5.092238
 31
0.0
  0
LINE
  5
116
  8
0
 10
12.171213
 20
5.092238
 30
0.0
 11
13.2568
 21
5.092238
 31
0.0
  0
LINE
  5
117
  8
0
 10
13.2568
 20
5.092238
 30
0.0
 11
13.646969
 21
5.092238
 31
0.0
  0
LINE
  5
118
  8
0
 10
13.646969
 20
5.092238
 30
0.0
 11
13.649214
 21
5.092238
 31
0.0
  0
LINE
  5
119
  8
0
 10
13.649214
 20
5.092238
 30
0.0
 11
13.658506
 21
5.092238
 31
0.0
  0
LINE
  5
11A
  8
0
 10
13.658506
 20
5.092238
 30
0.0
 11
14.025014
 21
5.092238
 31
0.0
  0
LINE
  5
11B
  8
0
 10
14.025014
 20
5.092238
 30
0.0
 11
14.651
 21
5.092238
 31
0.0
  0
LINE
  5
11C
  8
0
 10
0.576
 20
7.592238
 30
0.0
 11
1.519053
 21
7.592238
 31
0.0
  0
LINE
  5
11D
  8
0
 10
0.576
 20
7.592238
 30
0.0
 11
1.519053
 21
7.592238
 31
0.0
  0
LINE
  5
11E
  8
0
 10
1.519053
 20
7.592238
 30
0.0
 11
1.548192
 21
7.592238
 31
0.0
  0
LINE
  5
11F
  8
0
 10
1.548192
 20
7.592238
 30
0.0
 11
1.609877
 21
7.592238
 31
0.0
  0
LINE
  5
120
  8
0
 10
1.609877
 20
7.592238
 30
0.0
 11
2.000039
 21
7.592238
 31
0.0
  0
LINE
  5
121
  8
0
 10
2.000039
 20
7.592238
 30
0.0
 11
2.069484
 21
7.592238
 31
0.0
  0
LINE
  5
122
  8
0
 10
2.069484
 20
7.592238
 30
0.0
 11
3.155071
 21
7.592238
 31
0.0
  0
LINE
  5
123
  8
0
 10
3.155071
 20
7.592238
 30
0.0
 11
3.66
 21
7.592238
 31
0.0
  0
LINE
  5
124
  8
0
 10
4.026
 20
7.592238
 30
0.0
 11
4.714823
 21
7.592238
 31
0.0
  0
LINE
  5
125
  8
0
 10
4.714823
 20
7.592238
 30
0.0
 11
4.746
 21
7.592238
 31
0.0
  0
LINE
  5
126
  8
0
 10
4.746
 20
7.592238
 30
0.0
 11
5.44
 21
7.592238
 31
0.0
  0
LINE
  5
127
  8
0
 10
5.44
 20
7.592238
 30
0.0
 11
5.570151
 21
7.592238
 31
0.0
  0
LINE
  5
128
  8
0
 10
5.570151
 20
7.592238
 30
0.0
 11
6.16
 21
7.592238
 31
0.0
  0
LINE
  5
129
  8
0
 10
6.526
 20
7.592238
 30
0.0
 11
7.092942
 21
7.592238
 31
0.0
  0
LINE
  5
12A
  8
0
 10
7.092942
 20
7.592238
 30
0.0
 11
8.178529
 21
7.592238
 31
0.0
  0
LINE
  5
12B
  8
0
 10
8.178529
 20
7.592238
 30
0.0
 11
8.247974
 21
7.592238
 31
0.0
  0
LINE
  5
12C
  8
0
 10
8.247974
 20
7.592238
 30
0.0
 11
8.66
 21
7.592238
 31
0.0
  0
LINE
  5
12D
  8
0
 10
9.026
 20
7.592238
 30
0.0
 11
9.430361
 21
7.592238
 31
0.0
  0
LINE
  5
12E
  8
0
 10
9.430361
 20
7.592238
 30
0.0
 11
9.499806
 21
7.592238
 31
0.0
  0
LINE
  5
12F
  8
0
 10
9.499806
 20
7.592238
 30
0.0
 11
10.585394
 21
7.592238
 31
0.0
  0
LINE
  5
130
  8
0
 10
10.585394
 20
7.592238
 30
0.0
 11
11.16
 21
7.592238
 31
0.0
  0
LINE
  5
131
  8
0
 10
11.526
 20
7.592238
 30
0.0
 11
12.104045
 21
7.592238
 31
0.0
  0
LINE
  5
132
  8
0
 10
12.104045
 20
7.592238
 30
0.0
 11
12.246
 21
7.592238
 31
0.0
  0
LINE
  5
133
  8
0
 10
12.246
 20
7.592238
 30
0.0
 11
12.94
 21
7.592238
 31
0.0
  0
LINE
  5
134
  8
0
 10
12.94
 20
7.592238
 30
0.0
 11
12.957876
 21
7.592238
 31
0.0
  0
LINE
  5
135
  8
0
 10
12.957876
 20
7.592238
 30
0.0
 11
13.539509
 21
7.592238
 31
0.0
  0
LINE
  5
136
  8
0
 10
13.539509
 20
7.592238
 30
0.0
 11
13.613528
 21
7.592238
 31
0.0
  0
LINE
  5
137
  8
0
 10
13.613528
 20
7.592238
 30
0.0
 11
13.621833
 21
7.592238
 31
0.0
  0
LINE
  5
138
  8
0
 10
13.621833
 20
7.592238
 30
0.0
 11
13.653778
 21
7.592238
 31
0.0
  0
LINE
  5
139
  8
0
 10
13.653778
 20
7.592238
 30
0.0
 11
13.991672
 21
7.592238
 31
0.0
  0
LINE
  5
13A
  8
0
 10
13.991672
 20
7.592238
 30
0.0
 11
14.626
 21
7.592238
 31
0.0
  0
LINE
  5
13B
  8
0
 10
0.514
 20
10.092238
 30
0.0
 11
1.133147
 21
10.092238
 31
0.0
  0
LINE
  5
13C
  8
0
 10
0.514
 20
10.092238
 30
0.0
 11
1.133147
 21
10.092238
 31
0.0
  0
LINE
  5
13D
  8
0
 10
1.133147
 20
10.092238
 30
0.0
 11
1.514
 21
10.092238
 31
0.0
  0
LINE
  5
13E
  8
0
 10
1.526
 20
10.092238
 30
0.0
 11
1.985406
 21
10.092238
 31
0.0
  0
LINE
  5
13F
  8
0
 10
1.985406
 20
10.092238
 30
0.0
 11
2.055084
 21
10.092238
 31
0.0
  0
LINE
  5
140
  8
0
 10
2.055084
 20
10.092238
 30
0.0
 11
3.140671
 21
10.092238
 31
0.0
  0
LINE
  5
141
  8
0
 10
3.140671
 20
10.092238
 30
0.0
 11
3.66
 21
10.092238
 31
0.0
  0
LINE
  5
142
  8
0
 10
4.026
 20
10.092238
 30
0.0
 11
4.690941
 21
10.092238
 31
0.0
  0
LINE
  5
143
  8
0
 10
4.690941
 20
10.092238
 30
0.0
 11
4.746
 21
10.092238
 31
0.0
  0
LINE
  5
144
  8
0
 10
4.746
 20
10.092238
 30
0.0
 11
5.44
 21
10.092238
 31
0.0
  0
LINE
  5
145
  8
0
 10
5.44
 20
10.092238
 30
0.0
 11
5.548173
 21
10.092238
 31
0.0
  0
LINE
  5
146
  8
0
 10
5.548173
 20
10.092238
 30
0.0
 11
6.16
 21
10.092238
 31
0.0
  0
LINE
  5
147
  8
0
 10
6.526
 20
10.092238
 30
0.0
 11
7.07831
 21
10.092238
 31
0.0
  0
LINE
  5
148
  8
0
 10
7.07831
 20
10.092238
 30
0.0
 11
8.163897
 21
10.092238
 31
0.0
  0
LINE
  5
149
  8
0
 10
8.163897
 20
10.092238
 30
0.0
 11
8.233574
 21
10.092238
 31
0.0
  0
LINE
  5
14A
  8
0
 10
8.233574
 20
10.092238
 30
0.0
 11
8.66
 21
10.092238
 31
0.0
  0
LINE
  5
14B
  8
0
 10
9.026
 20
10.092238
 30
0.0
 11
9.415729
 21
10.092238
 31
0.0
  0
LINE
  5
14C
  8
0
 10
9.415729
 20
10.092238
 30
0.0
 11
9.485406
 21
10.092238
 31
0.0
  0
LINE
  5
14D
  8
0
 10
9.485406
 20
10.092238
 30
0.0
 11
10.570994
 21
10.092238
 31
0.0
  0
LINE
  5
14E
  8
0
 10
10.570994
 20
10.092238
 30
0.0
 11
11.16
 21
10.092238
 31
0.0
  0
LINE
  5
14F
  8
0
 10
11.526
 20
10.092238
 30
0.0
 11
11.822826
 21
10.092238
 31
0.0
  0
LINE
  5
150
  8
0
 10
11.822826
 20
10.092238
 30
0.0
 11
12.171213
 21
10.092238
 31
0.0
  0
LINE
  5
151
  8
0
 10
12.171213
 20
10.092238
 30
0.0
 11
13.2568
 21
10.092238
 31
0.0
  0
LINE
  5
152
  8
0
 10
13.2568
 20
10.092238
 30
0.0
 11
13.611778
 21
10.092238
 31
0.0
  0
LINE
  5
153
  8
0
 10
13.611778
 20
10.092238
 30
0.0
 11
13.620111
 21
10.092238
 31
0.0
  0
LINE
  5
154
  8
0
 10
13.620111
 20
10.092238
 30
0.0
 11
13.666094
 21
10.092238
 31
0.0
  0
LINE
  5
155
  8
0
 10
13.666094
 20
10.092238
 30
0.0
 11
14.083333
 21
10.092238
 31
0.0
  0
LINE
  5
156
  8
0
 10
14.083333
 20
10.092238
 30
0.0
 11
14.626
 21
10.092238
 31
0.0
  0
LINE
  5
157
  8
0
 10
0.438
 20
12.592238
 30
0.0
 11
1.033596
 21
12.592238
 31
0.0
  0
LINE
  5
158
  8
0
 10
0.438
 20
12.592238
 30
0.0
 11
1.033596
 21
12.592238
 31
0.0
  0
LINE
  5
159
  8
0
 10
1.033596
 20
12.592238
 30
0.0
 11
1.438
 21
12.592238
 31
0.0
  0
LINE
  5
15A
  8
0
 10
1.526
 20
12.592238
 30
0.0
 11
1.967755
 21
12.592238
 31
0.0
  0
LINE
  5
15B
  8
0
 10
1.967755
 20
12.592238
 30
0.0
 11
2.037432
 21
12.592238
 31
0.0
  0
LINE
  5
15C
  8
0
 10
2.037432
 20
12.592238
 30
0.0
 11
3.123019
 21
12.592238
 31
0.0
  0
LINE
  5
15D
  8
0
 10
3.123019
 20
12.592238
 30
0.0
 11
3.66
 21
12.592238
 31
0.0
  0
LINE
  5
15E
  8
0
 10
4.026
 20
12.592238
 30
0.0
 11
4.66185
 21
12.592238
 31
0.0
  0
LINE
  5
15F
  8
0
 10
4.66185
 20
12.592238
 30
0.0
 11
4.746
 21
12.592238
 31
0.0
  0
LINE
  5
160
  8
0
 10
4.746
 20
12.592238
 30
0.0
 11
5.44
 21
12.592238
 31
0.0
  0
LINE
  5
161
  8
0
 10
5.44
 20
12.592238
 30
0.0
 11
5.519698
 21
12.592238
 31
0.0
  0
LINE
  5
162
  8
0
 10
5.519698
 20
12.592238
 30
0.0
 11
6.16
 21
12.592238
 31
0.0
  0
LINE
  5
163
  8
0
 10
6.526
 20
12.592238
 30
0.0
 11
7.060658
 21
12.592238
 31
0.0
  0
LINE
  5
164
  8
0
 10
7.060658
 20
12.592238
 30
0.0
 11
8.146245
 21
12.592238
 31
0.0
  0
LINE
  5
165
  8
0
 10
8.146245
 20
12.592238
 30
0.0
 11
8.215923
 21
12.592238
 31
0.0
  0
LINE
  5
166
  8
0
 10
8.215923
 20
12.592238
 30
0.0
 11
8.66
 21
12.592238
 31
0.0
  0
LINE
  5
167
  8
0
 10
9.026
 20
12.592238
 30
0.0
 11
9.467755
 21
12.592238
 31
0.0
  0
LINE
  5
168
  8
0
 10
9.467755
 20
12.592238
 30
0.0
 11
10.553342
 21
12.592238
 31
0.0
  0
LINE
  5
169
  8
0
 10
10.553342
 20
12.592238
 30
0.0
 11
11.16
 21
12.592238
 31
0.0
  0
LINE
  5
16A
  8
0
 10
11.526
 20
12.592238
 30
0.0
 11
11.805174
 21
12.592238
 31
0.0
  0
LINE
  5
16B
  8
0
 10
11.805174
 20
12.592238
 30
0.0
 11
12.153561
 21
12.592238
 31
0.0
  0
LINE
  5
16C
  8
0
 10
12.153561
 20
12.592238
 30
0.0
 11
13.239148
 21
12.592238
 31
0.0
  0
LINE
  5
16D
  8
0
 10
13.239148
 20
12.592238
 30
0.0
 11
13.609667
 21
12.592238
 31
0.0
  0
LINE
  5
16E
  8
0
 10
13.609667
 20
12.592238
 30
0.0
 11
13.618
 21
12.592238
 31
0.0
  0
LINE
  5
16F
  8
0
 10
13.618
 20
12.592238
 30
0.0
 11
13.653778
 21
12.592238
 31
0.0
  0
LINE
  5
170
  8
0
 10
13.653778
 20
12.592238
 30
0.0
 11
13.991672
 21
12.592238
 31
0.0
  0
LINE
  5
171
  8
0
 10
13.991672
 20
12.592238
 30
0.0
 11
14.626
 21
12.592238
 31
0.0
  0
ENDSEC
  0
EOF
