  0
SECTION
  2
HEADER
  9
$ACADVER
  1
AC1009
  9
$DWGCODEPAGE
  3
ANSI_1252
  9
$INSBASE
 10
0.0
 20
0.0
 30
0.0
  9
$EXTMIN
 10
1e+20
 20
1e+20
 30
1e+20
  9
$EXTMAX
 10
-1e+20
 20
-1e+20
 30
-1e+20
  9
$LIMMIN
 10
0.0
 20
0.0
  9
$LIMMAX
 10
420.0
 20
297.0
  9
$ORTHOMODE
 70
0
  9
$REGENMODE
 70
1
  9
$FILLMODE
 70
1
  9
$DRAGMODE
 70
2
  9
$QTEXTMODE
 70
0
  9
$MIRRTEXT
 70
1
  9
$OSMODE
 70
20583
  9
$LTSCALE
 40
1.0
  9
$ATTMODE
 70
1
  9
$TEXTSIZE
 40
2.5
  9
$TRACEWID
 40
1.0
  9
$TEXTSTYLE
  7
Standard
  9
$CLAYER
  8
0
  9
$CELTYPE
  6
ByLayer
  9
$CECOLOR
 62
256
  9
$DIMSCALE
 40
1.0
  9
$DIMASZ
 40
2.5
  9
$DIMEXO
 40
0.625
  9
$DIMDLI
 40
3.75
  9
$DIMRND
 40
0.0
  9
$DIMDLE
 40
0.0
  9
$DIMEXE
 40
1.25
  9
$DIMTP
 40
0.0
  9
$DIMTM
 40
0.0
  9
$DIMTXT
 40
2.5
  9
$DIMCEN
 40
2.5
  9
$DIMTSZ
 40
0.0
  9
$DIMTOL
 70
0
  9
$DIMLIM
 70
0
  9
$DIMTIH
 70
0
  9
$DIMTOH
 70
0
  9
$DIMSE1
 70
0
  9
$DIMSE2
 70
0
  9
$DIMTAD
 70
1
  9
$DIMZIN
 70
8
  9
$DIMBLK
  1

  9
$DIMASO
 70
1
  9
$DIMSHO
 70
1
  9
$DIMPOST
  1

  9
$DIMAPOST
  1

  9
$DIMALT
 70
0
  9
$DIMALTD
 70
3
  9
$DIMALTF
 40
0.03937007874
  9
$DIMLFAC
 40
1.0
  9
$DIMTOFL
 70
1
  9
$DIMTVP
 40
0.0
  9
$DIMTIX
 70
0
  9
$DIMSOXD
 70
0
  9
$DIMSAH
 70
0
  9
$DIMBLK1
  1

  9
$DIMBLK2
  1

  9
$DIMSTYLE
  2
ISO-25
  9
$DIMCLRD
 70
0
  9
$DIMCLRE
 70
0
  9
$DIMCLRT
 70
0
  9
$DIMTFAC
 40
1.0
  9
$DIMGAP
 40
0.625
  9
$COORDS
 70
1
  9
$ATTDIA
 70
0
  9
$ATTREQ
 70
1
  9
$HANDLING
 70
1
  9
$LUNITS
 70
2
  9
$LUPREC
 70
4
  9
$SKETCHINC
 40
1.0
  9
$FILLETRAD
 40
10.0
  9
$AUNITS
 70
0
  9
$AUPREC
 70
2
  9
$MENU
  1
.
  9
$ELEVATION
 40
0.0
  9
$PELEVATION
 40
0.0
  9
$THICKNESS
 40
0.0
  9
$LIMCHECK
 70
0
  9
$CHAMFERA
 40
0.0
  9
$CHAMFERB
 40
0.0
  9
$SKPOLY
 70
0
  9
$TDCREATE
 40
2460887.627337963
  9
$TDUPDATE
 40
2460887.627337963
  9
$TDINDWG
 40
0.0
  9
$TDUSRTIMER
 40
0.0
  9
$USRTIMER
 70
1
  9
$ANGBASE
 50
0.0
  9
$ANGDIR
 70
0
  9
$PDMODE
 70
0
  9
$PDSIZE
 40
0.0
  9
$PLINEWID
 40
0.0
  9
$SPLFRAME
 70
0
  9
$SPLINETYPE
 70
6
  9
$SPLINESEGS
 70
8
  9
$HANDSEED
  5
236
  9
$SURFTAB1
 70
6
  9
$SURFTAB2
 70
6
  9
$SURFTYPE
 70
6
  9
$SURFU
 70
6
  9
$SURFV
 70
6
  9
$UCSNAME
  2

  9
$UCSORG
 10
0.0
 20
0.0
 30
0.0
  9
$UCSXDIR
 10
1.0
 20
0.0
 30
0.0
  9
$UCSYDIR
 10
0.0
 20
1.0
 30
0.0
  9
$PUCSNAME
  2

  9
$PUCSORG
 10
0.0
 20
0.0
 30
0.0
  9
$PUCSXDIR
 10
1.0
 20
0.0
 30
0.0
  9
$PUCSYDIR
 10
0.0
 20
1.0
 30
0.0
  9
$USERI1
 70
0
  9
$USERI2
 70
0
  9
$USERI3
 70
0
  9
$USERI4
 70
0
  9
$USERI5
 70
0
  9
$USERR1
 40
0.0
  9
$USERR2
 40
0.0
  9
$USERR3
 40
0.0
  9
$USERR4
 40
0.0
  9
$USERR5
 40
0.0
  9
$WORLDVIEW
 70
1
  9
$SHADEDGE
 70
3
  9
$SHADEDIF
 70
70
  9
$TILEMODE
 70
1
  9
$MAXACTVP
 70
64
  9
$PLIMCHECK
 70
0
  9
$PEXTMIN
 10
1e+20
 20
1e+20
 30
1e+20
  9
$PEXTMAX
 10
-1e+20
 20
-1e+20
 30
-1e+20
  9
$PLIMMIN
 10
0.0
 20
0.0
  9
$PLIMMAX
 10
420.0
 20
297.0
  9
$UNITMODE
 70
0
  9
$VISRETAIN
 70
1
  9
$PLINEGEN
 70
0
  9
$PSLTSCALE
 70
1
  0
ENDSEC
  0
SECTION
  2
TABLES
  0
TABLE
  2
VPORT
 70
1
  0
VPORT
  5
23
  2
*Active
 70
0
 10
0.0
 20
0.0
 11
1.0
 21
1.0
 12
0.0
 22
0.0
 13
0.0
 23
0.0
 14
0.5
 24
0.5
 15
0.5
 25
0.5
 16
0.0
 26
0.0
 36
1.0
 17
0.0
 27
0.0
 37
0.0
 40
1000.0
 41
1.34
 42
50.0
 43
0.0
 44
0.0
 50
0.0
 51
0.0
 71
0
 72
1000
 73
1
 74
3
 75
0
 76
0
 77
0
 78
0
  0
ENDTAB
  0
TABLE
  2
LTYPE
 70
3
  0
LTYPE
  5
24
  2
ByBlock
 70
0
  3

 72
65
 73
0
 40
0.0
  0
LTYPE
  5
25
  2
ByLayer
 70
0
  3

 72
65
 73
0
 40
0.0
  0
LTYPE
  5
26
  2
Continuous
 70
0
  3

 72
65
 73
0
 40
0.0
  0
ENDTAB
  0
TABLE
  2
LAYER
 70
2
  0
LAYER
  5
27
  2
0
 70
0
 62
7
  6
Continuous
  0
LAYER
  5
28
  2
Defpoints
 70
0
 62
7
  6
Continuous
  0
ENDTAB
  0
TABLE
  2
STYLE
 70
1
  0
STYLE
  5
29
  2
Standard
 70
0
 40
0.0
 41
1.0
 50
0.0
 71
0
 42
2.5
  3
txt
  4

  0
ENDTAB
  0
TABLE
  2
VIEW
 70
0
  0
ENDTAB
  0
TABLE
  2
UCS
 70
0
  0
ENDTAB
  0
TABLE
  2
APPID
 70
3
  0
APPID
  5
2A
  2
ACAD
 70
0
  0
APPID
  5
234
  2
HATCHBACKGROUNDCOLOR
 70
0
  0
APPID
  5
235
  2
EZDXF
 70
0
  0
ENDTAB
  0
TABLE
  2
DIMSTYLE
 70
1
  0
DIMSTYLE
105
2B
  2
Standard
 70
0
  3

  4

  5

  6

  7

 40
1.0
 41
2.5
 42
0.625
 43
3.75
 44
1.25
 45
0.0
 46
0.0
 47
0.0
 48
0.0
140
2.5
141
2.5
142
0.0
143
0.03937007874
144
1.0
145
0.0
146
1.0
147
0.625
 71
0
 72
0
 73
0
 74
0
 75
0
 76
0
 77
1
 78
8
170
0
171
3
172
1
173
0
174
0
175
0
176
0
177
0
178
0
  0
ENDTAB
  0
ENDSEC
  0
SECTION
  2
BLOCKS
  0
BLOCK
  5
18
  8
0
  2
$Model_Space
 70
0
 10
0.0
 20
0.0
 30
0.0
  3
$Model_Space
  1

1001
EZDXF
1000
CREATED_BY_EZDXF
1000
1.4.2 @ 2025-07-30T18:03:22.959009+00:00
1000
WRITTEN_BY_EZDXF
1000
1.4.2 @ 2025-07-30T18:03:22.990260+00:00
  0
ENDBLK
  5
19
  8
0
  0
BLOCK
  5
1C
  8
0
  2
$Paper_Space
 70
0
 10
0.0
 20
0.0
 30
0.0
  3
$Paper_Space
  1

  0
ENDBLK
  5
1D
  8
0
  0
ENDSEC
  0
SECTION
  2
ENTITIES
  0
LINE
  5
2D
  8
0
 10
2.461226
 20
0.432797
 30
0.0
 11
1.385032
 21
0.54686
 31
0.0
  0
LINE
  5
2E
  8
0
 10
1.385032
 20
0.54686
 30
0.0
 11
0.806799
 21
0.85731
 31
0.0
  0
LINE
  5
2F
  8
0
 10
0.806799
 20
0.85731
 30
0.0
 11
0.577313
 21
1.297033
 31
0.0
  0
LINE
  5
30
  8
0
 10
0.577313
 20
1.297033
 30
0.0
 11
0.453069
 21
2.117116
 31
0.0
  0
LINE
  5
31
  8
0
 10
0.453069
 20
2.117116
 30
0.0
 11
0.582006
 21
7.848614
 31
0.0
  0
LINE
  5
32
  8
0
 10
0.582006
 20
7.848614
 30
0.0
 11
0.43707
 21
12.735218
 31
0.0
  0
LINE
  5
33
  8
0
 10
0.43707
 20
12.735218
 30
0.0
 11
0.538414
 21
13.751998
 31
0.0
  0
LINE
  5
34
  8
0
 10
0.538414
 20
13.751998
 30
0.0
 11
0.816849
 21
14.334325
 31
0.0
  0
LINE
  5
35
  8
0
 10
0.816849
 20
14.334325
 30
0.0
 11
1.278735
 21
14.616951
 31
0.0
  0
LINE
  5
36
  8
0
 10
1.278735
 20
14.616951
 30
0.0
 11
2.170355
 21
14.749367
 31
0.0
  0
LINE
  5
37
  8
0
 10
2.170355
 20
14.749367
 30
0.0
 11
14.567388
 21
14.614027
 31
0.0
  0
LINE
  5
38
  8
0
 10
14.567388
 20
14.614027
 30
0.0
 11
14.747575
 21
2.248669
 31
0.0
  0
LINE
  5
39
  8
0
 10
14.747575
 20
2.248669
 30
0.0
 11
14.427385
 21
0.923183
 31
0.0
  0
LINE
  5
3A
  8
0
 10
14.427385
 20
0.923183
 30
0.0
 11
13.913851
 21
0.585699
 31
0.0
  0
LINE
  5
3B
  8
0
 10
13.913851
 20
0.585699
 30
0.0
 11
13.012174
 21
0.446558
 31
0.0
  0
LINE
  5
3C
  8
0
 10
13.012174
 20
0.446558
 30
0.0
 11
7.268401
 21
0.582097
 31
0.0
  0
LINE
  5
3D
  8
0
 10
7.268401
 20
0.582097
 30
0.0
 11
2.461226
 21
0.432797
 31
0.0
  0
LINE
  5
3E
  8
0
 10
2.461226
 20
0.432797
 30
0.0
 11
2.461226
 21
0.432797
 31
0.0
  0
LINE
  5
3F
  8
0
 10
2.461226
 20
0.432797
 30
0.0
 11
1.385032
 21
0.54686
 31
0.0
  0
LINE
  5
40
  8
0
 10
1.385032
 20
0.54686
 30
0.0
 11
0.806799
 21
0.85731
 31
0.0
  0
LINE
  5
41
  8
0
 10
0.806799
 20
0.85731
 30
0.0
 11
0.577313
 21
1.297033
 31
0.0
  0
LINE
  5
42
  8
0
 10
0.577313
 20
1.297033
 30
0.0
 11
0.453069
 21
2.117116
 31
0.0
  0
LINE
  5
43
  8
0
 10
0.453069
 20
2.117116
 30
0.0
 11
0.582006
 21
7.848614
 31
0.0
  0
LINE
  5
44
  8
0
 10
0.582006
 20
7.848614
 30
0.0
 11
0.43707
 21
12.735218
 31
0.0
  0
LINE
  5
45
  8
0
 10
0.43707
 20
12.735218
 30
0.0
 11
0.538414
 21
13.751998
 31
0.0
  0
LINE
  5
46
  8
0
 10
0.538414
 20
13.751998
 30
0.0
 11
0.816849
 21
14.334325
 31
0.0
  0
LINE
  5
47
  8
0
 10
0.816849
 20
14.334325
 30
0.0
 11
1.278735
 21
14.616951
 31
0.0
  0
LINE
  5
48
  8
0
 10
1.278735
 20
14.616951
 30
0.0
 11
2.170355
 21
14.749367
 31
0.0
  0
LINE
  5
49
  8
0
 10
2.170355
 20
14.749367
 30
0.0
 11
14.567388
 21
14.614027
 31
0.0
  0
LINE
  5
4A
  8
0
 10
14.567388
 20
14.614027
 30
0.0
 11
14.747575
 21
2.248669
 31
0.0
  0
LINE
  5
4B
  8
0
 10
14.747575
 20
2.248669
 30
0.0
 11
14.427385
 21
0.923183
 31
0.0
  0
LINE
  5
4C
  8
0
 10
14.427385
 20
0.923183
 30
0.0
 11
13.913851
 21
0.585699
 31
0.0
  0
LINE
  5
4D
  8
0
 10
13.913851
 20
0.585699
 30
0.0
 11
13.012174
 21
0.446558
 31
0.0
  0
LINE
  5
4E
  8
0
 10
13.012174
 20
0.446558
 30
0.0
 11
7.268401
 21
0.582097
 31
0.0
  0
LINE
  5
4F
  8
0
 10
7.268401
 20
0.582097
 30
0.0
 11
2.461226
 21
0.432797
 31
0.0
  0
LINE
  5
50
  8
0
 10
2.461226
 20
0.432797
 30
0.0
 11
2.461226
 21
0.432797
 31
0.0
  0
LINE
  5
51
  8
0
 10
2.592849
 20
0.437
 30
0.0
 11
2.592849
 21
0.863497
 31
0.0
  0
LINE
  5
52
  8
0
 10
2.592849
 20
0.437
 30
0.0
 11
2.592849
 21
0.863497
 31
0.0
  0
LINE
  5
53
  8
0
 10
2.592849
 20
0.863497
 30
0.0
 11
2.592849
 21
1.035548
 31
0.0
  0
LINE
  5
54
  8
0
 10
2.592849
 20
1.035548
 30
0.0
 11
2.592849
 21
1.895802
 31
0.0
  0
LINE
  5
55
  8
0
 10
2.592849
 20
1.895802
 30
0.0
 11
2.592849
 21
2.130265
 31
0.0
  0
LINE
  5
56
  8
0
 10
2.592849
 20
2.130265
 30
0.0
 11
2.592849
 21
2.339297
 31
0.0
  0
LINE
  5
57
  8
0
 10
2.592849
 20
2.339297
 30
0.0
 11
2.592849
 21
2.768058
 31
0.0
  0
LINE
  5
58
  8
0
 10
2.592849
 20
2.768058
 30
0.0
 11
2.592849
 21
3.146086
 31
0.0
  0
LINE
  5
59
  8
0
 10
2.592849
 20
3.146086
 30
0.0
 11
2.592849
 21
3.945987
 31
0.0
  0
LINE
  5
5A
  8
0
 10
2.592849
 20
3.945987
 30
0.0
 11
2.592849
 21
4.105967
 31
0.0
  0
LINE
  5
5B
  8
0
 10
2.592849
 20
4.105967
 30
0.0
 11
2.592849
 21
4.75178
 31
0.0
  0
LINE
  5
5C
  8
0
 10
2.592849
 20
4.75178
 30
0.0
 11
2.592849
 21
4.796483
 31
0.0
  0
LINE
  5
5D
  8
0
 10
2.592849
 20
4.796483
 30
0.0
 11
2.592849
 21
4.805672
 31
0.0
  0
LINE
  5
5E
  8
0
 10
2.592849
 20
4.805672
 30
0.0
 11
2.592849
 21
4.83509
 31
0.0
  0
LINE
  5
5F
  8
0
 10
2.592849
 20
4.83509
 30
0.0
 11
2.592849
 21
4.86575
 31
0.0
  0
LINE
  5
60
  8
0
 10
2.592849
 20
4.86575
 30
0.0
 11
2.592849
 21
4.870283
 31
0.0
  0
LINE
  5
61
  8
0
 10
2.592849
 20
4.870283
 30
0.0
 11
2.592849
 21
5.303717
 31
0.0
  0
LINE
  5
62
  8
0
 10
2.592849
 20
5.303717
 30
0.0
 11
2.592849
 21
5.343125
 31
0.0
  0
LINE
  5
63
  8
0
 10
2.592849
 20
5.343125
 30
0.0
 11
2.592849
 21
5.372288
 31
0.0
  0
LINE
  5
64
  8
0
 10
2.592849
 20
5.372288
 30
0.0
 11
2.592849
 21
5.407759
 31
0.0
  0
LINE
  5
65
  8
0
 10
2.592849
 20
5.407759
 30
0.0
 11
2.592849
 21
5.425125
 31
0.0
  0
LINE
  5
66
  8
0
 10
2.592849
 20
5.425125
 30
0.0
 11
2.592849
 21
5.427464
 31
0.0
  0
LINE
  5
67
  8
0
 10
2.592849
 20
5.427464
 30
0.0
 11
2.592849
 21
6.0727
 31
0.0
  0
LINE
  5
68
  8
0
 10
2.592849
 20
6.0727
 30
0.0
 11
2.592849
 21
6.23268
 31
0.0
  0
LINE
  5
69
  8
0
 10
2.592849
 20
6.23268
 30
0.0
 11
2.592849
 21
7.032581
 31
0.0
  0
LINE
  5
6A
  8
0
 10
2.592849
 20
7.032581
 30
0.0
 11
2.592849
 21
7.408974
 31
0.0
  0
LINE
  5
6B
  8
0
 10
2.592849
 20
7.408974
 30
0.0
 11
2.592849
 21
7.837735
 31
0.0
  0
LINE
  5
6C
  8
0
 10
2.592849
 20
7.837735
 30
0.0
 11
2.592849
 21
7.975697
 31
0.0
  0
LINE
  5
6D
  8
0
 10
2.592849
 20
7.975697
 30
0.0
 11
2.592849
 21
8.046768
 31
0.0
  0
LINE
  5
6E
  8
0
 10
2.592849
 20
8.046768
 30
0.0
 11
2.592849
 21
8.359393
 31
0.0
  0
LINE
  5
6F
  8
0
 10
2.592849
 20
8.359393
 30
0.0
 11
2.592849
 21
9.159294
 31
0.0
  0
LINE
  5
70
  8
0
 10
2.592849
 20
9.159294
 30
0.0
 11
2.592849
 21
9.319274
 31
0.0
  0
LINE
  5
71
  8
0
 10
2.592849
 20
9.319274
 30
0.0
 11
2.592849
 21
9.630265
 31
0.0
  0
LINE
  5
72
  8
0
 10
2.592849
 20
9.630265
 30
0.0
 11
2.592849
 21
10.059026
 31
0.0
  0
LINE
  5
73
  8
0
 10
2.592849
 20
10.059026
 30
0.0
 11
2.592849
 21
10.486106
 31
0.0
  0
LINE
  5
74
  8
0
 10
2.592849
 20
10.486106
 30
0.0
 11
2.592849
 21
11.286007
 31
0.0
  0
LINE
  5
75
  8
0
 10
2.592849
 20
11.286007
 30
0.0
 11
2.592849
 21
11.445987
 31
0.0
  0
LINE
  5
76
  8
0
 10
2.592849
 20
11.445987
 30
0.0
 11
2.592849
 21
11.642523
 31
0.0
  0
LINE
  5
77
  8
0
 10
2.592849
 20
11.642523
 30
0.0
 11
2.592849
 21
12.687684
 31
0.0
  0
LINE
  5
78
  8
0
 10
2.592849
 20
12.687684
 30
0.0
 11
2.592849
 21
13.116445
 31
0.0
  0
LINE
  5
79
  8
0
 10
2.592849
 20
13.116445
 30
0.0
 11
2.592849
 21
13.336322
 31
0.0
  0
LINE
  5
7A
  8
0
 10
2.592849
 20
13.336322
 30
0.0
 11
2.592849
 21
13.508951
 31
0.0
  0
LINE
  5
7B
  8
0
 10
2.592849
 20
13.508951
 30
0.0
 11
2.592849
 21
14.317429
 31
0.0
  0
LINE
  5
7C
  8
0
 10
2.592849
 20
14.317429
 30
0.0
 11
2.592849
 21
14.742
 31
0.0
  0
LINE
  5
7D
  8
0
 10
5.092849
 20
0.516
 30
0.0
 11
5.092849
 21
0.582929
 31
0.0
  0
LINE
  5
7E
  8
0
 10
5.092849
 20
0.516
 30
0.0
 11
5.092849
 21
0.582929
 31
0.0
  0
LINE
  5
7F
  8
0
 10
5.092849
 20
0.582929
 30
0.0
 11
5.092849
 21
1.094577
 31
0.0
  0
LINE
  5
80
  8
0
 10
5.092849
 20
1.094577
 30
0.0
 11
5.092849
 21
1.997626
 31
0.0
  0
LINE
  5
81
  8
0
 10
5.092849
 20
1.997626
 30
0.0
 11
5.092849
 21
2.18531
 31
0.0
  0
LINE
  5
82
  8
0
 10
5.092849
 20
2.18531
 30
0.0
 11
5.092849
 21
2.394342
 31
0.0
  0
LINE
  5
83
  8
0
 10
5.092849
 20
2.394342
 30
0.0
 11
5.092849
 21
2.823103
 31
0.0
  0
LINE
  5
84
  8
0
 10
5.092849
 20
2.823103
 30
0.0
 11
5.092849
 21
3.188214
 31
0.0
  0
LINE
  5
85
  8
0
 10
5.092849
 20
3.188214
 30
0.0
 11
5.092849
 21
3.988115
 31
0.0
  0
LINE
  5
86
  8
0
 10
5.092849
 20
3.988115
 30
0.0
 11
5.092849
 21
4.148095
 31
0.0
  0
LINE
  5
87
  8
0
 10
5.092849
 20
4.148095
 30
0.0
 11
5.092849
 21
4.786013
 31
0.0
  0
LINE
  5
88
  8
0
 10
5.092849
 20
4.786013
 30
0.0
 11
5.092849
 21
4.815068
 31
0.0
  0
LINE
  5
89
  8
0
 10
5.092849
 20
4.815068
 30
0.0
 11
5.092849
 21
4.840394
 31
0.0
  0
LINE
  5
8A
  8
0
 10
5.092849
 20
4.840394
 30
0.0
 11
5.092849
 21
4.875483
 31
0.0
  0
LINE
  5
8B
  8
0
 10
5.092849
 20
4.875483
 30
0.0
 11
5.092849
 21
4.884672
 31
0.0
  0
LINE
  5
8C
  8
0
 10
5.092849
 20
4.884672
 30
0.0
 11
5.092849
 21
4.91409
 31
0.0
  0
LINE
  5
8D
  8
0
 10
5.092849
 20
4.91409
 30
0.0
 11
5.092849
 21
4.94475
 31
0.0
  0
LINE
  5
8E
  8
0
 10
5.092849
 20
4.94475
 30
0.0
 11
5.092849
 21
4.949283
 31
0.0
  0
LINE
  5
8F
  8
0
 10
5.092849
 20
4.949283
 30
0.0
 11
5.092849
 21
5.382717
 31
0.0
  0
LINE
  5
90
  8
0
 10
5.092849
 20
5.382717
 30
0.0
 11
5.092849
 21
5.422125
 31
0.0
  0
LINE
  5
91
  8
0
 10
5.092849
 20
5.422125
 30
0.0
 11
5.092849
 21
5.451288
 31
0.0
  0
LINE
  5
92
  8
0
 10
5.092849
 20
5.451288
 30
0.0
 11
5.092849
 21
5.457816
 31
0.0
  0
LINE
  5
93
  8
0
 10
5.092849
 20
5.457816
 30
0.0
 11
5.092849
 21
6.114828
 31
0.0
  0
LINE
  5
94
  8
0
 10
5.092849
 20
6.114828
 30
0.0
 11
5.092849
 21
6.274808
 31
0.0
  0
LINE
  5
95
  8
0
 10
5.092849
 20
6.274808
 30
0.0
 11
5.092849
 21
7.074709
 31
0.0
  0
LINE
  5
96
  8
0
 10
5.092849
 20
7.074709
 30
0.0
 11
5.092849
 21
7.464019
 31
0.0
  0
LINE
  5
97
  8
0
 10
5.092849
 20
7.464019
 30
0.0
 11
5.092849
 21
7.892781
 31
0.0
  0
LINE
  5
98
  8
0
 10
5.092849
 20
7.892781
 30
0.0
 11
5.092849
 21
7.975697
 31
0.0
  0
LINE
  5
99
  8
0
 10
5.092849
 20
7.975697
 30
0.0
 11
5.092849
 21
8.101813
 31
0.0
  0
LINE
  5
9A
  8
0
 10
5.092849
 20
8.101813
 30
0.0
 11
5.092849
 21
8.401521
 31
0.0
  0
LINE
  5
9B
  8
0
 10
5.092849
 20
8.401521
 30
0.0
 11
5.092849
 21
9.201422
 31
0.0
  0
LINE
  5
9C
  8
0
 10
5.092849
 20
9.201422
 30
0.0
 11
5.092849
 21
9.476277
 31
0.0
  0
LINE
  5
9D
  8
0
 10
5.092849
 20
9.476277
 30
0.0
 11
5.092849
 21
9.68531
 31
0.0
  0
LINE
  5
9E
  8
0
 10
5.092849
 20
9.68531
 30
0.0
 11
5.092849
 21
10.114071
 31
0.0
  0
LINE
  5
9F
  8
0
 10
5.092849
 20
10.114071
 30
0.0
 11
5.092849
 21
10.528234
 31
0.0
  0
LINE
  5
A0
  8
0
 10
5.092849
 20
10.528234
 30
0.0
 11
5.092849
 21
11.328135
 31
0.0
  0
LINE
  5
A1
  8
0
 10
5.092849
 20
11.328135
 30
0.0
 11
5.092849
 21
11.488115
 31
0.0
  0
LINE
  5
A2
  8
0
 10
5.092849
 20
11.488115
 30
0.0
 11
5.092849
 21
11.697568
 31
0.0
  0
LINE
  5
A3
  8
0
 10
5.092849
 20
11.697568
 30
0.0
 11
5.092849
 21
12.742729
 31
0.0
  0
LINE
  5
A4
  8
0
 10
5.092849
 20
12.742729
 30
0.0
 11
5.092849
 21
13.17149
 31
0.0
  0
LINE
  5
A5
  8
0
 10
5.092849
 20
13.17149
 30
0.0
 11
5.092849
 21
13.328169
 31
0.0
  0
LINE
  5
A6
  8
0
 10
5.092849
 20
13.328169
 30
0.0
 11
5.092849
 21
13.510079
 31
0.0
  0
LINE
  5
A7
  8
0
 10
5.092849
 20
13.510079
 30
0.0
 11
5.092849
 21
14.261365
 31
0.0
  0
LINE
  5
A8
  8
0
 10
5.092849
 20
14.261365
 30
0.0
 11
5.092849
 21
14.655
 31
0.0
  0
LINE
  5
A9
  8
0
 10
7.592849
 20
0.574
 30
0.0
 11
7.592849
 21
0.953411
 31
0.0
  0
LINE
  5
AA
  8
0
 10
7.592849
 20
0.574
 30
0.0
 11
7.592849
 21
0.953411
 31
0.0
  0
LINE
  5
AB
  8
0
 10
7.592849
 20
0.953411
 30
0.0
 11
7.592849
 21
0.954032
 31
0.0
  0
LINE
  5
AC
  8
0
 10
7.592849
 20
0.954032
 30
0.0
 11
7.592849
 21
1.140323
 31
0.0
  0
LINE
  5
AD
  8
0
 10
7.592849
 20
1.140323
 30
0.0
 11
7.592849
 21
2.071774
 31
0.0
  0
LINE
  5
AE
  8
0
 10
7.592849
 20
2.071774
 30
0.0
 11
7.592849
 21
2.226419
 31
0.0
  0
LINE
  5
AF
  8
0
 10
7.592849
 20
2.226419
 30
0.0
 11
7.592849
 21
2.435452
 31
0.0
  0
LINE
  5
B0
  8
0
 10
7.592849
 20
2.435452
 30
0.0
 11
7.592849
 21
2.864213
 31
0.0
  0
LINE
  5
B1
  8
0
 10
7.592849
 20
2.864213
 30
0.0
 11
7.592849
 21
3.219677
 31
0.0
  0
LINE
  5
B2
  8
0
 10
7.592849
 20
3.219677
 30
0.0
 11
7.592849
 21
4.019578
 31
0.0
  0
LINE
  5
B3
  8
0
 10
7.592849
 20
4.019578
 30
0.0
 11
7.592849
 21
4.179558
 31
0.0
  0
LINE
  5
B4
  8
0
 10
7.592849
 20
4.179558
 30
0.0
 11
7.592849
 21
4.813864
 31
0.0
  0
LINE
  5
B5
  8
0
 10
7.592849
 20
4.813864
 30
0.0
 11
7.592849
 21
4.842878
 31
0.0
  0
LINE
  5
B6
  8
0
 10
7.592849
 20
4.842878
 30
0.0
 11
7.592849
 21
4.874068
 31
0.0
  0
LINE
  5
B7
  8
0
 10
7.592849
 20
4.874068
 30
0.0
 11
7.592849
 21
4.890407
 31
0.0
  0
LINE
  5
B8
  8
0
 10
7.592849
 20
4.890407
 30
0.0
 11
7.592849
 21
4.92482
 31
0.0
  0
LINE
  5
B9
  8
0
 10
7.592849
 20
4.92482
 30
0.0
 11
7.592849
 21
4.953046
 31
0.0
  0
LINE
  5
BA
  8
0
 10
7.592849
 20
4.953046
 30
0.0
 11
7.592849
 21
4.99256
 31
0.0
  0
LINE
  5
BB
  8
0
 10
7.592849
 20
4.99256
 30
0.0
 11
7.592849
 21
5.00375
 31
0.0
  0
LINE
  5
BC
  8
0
 10
7.592849
 20
5.00375
 30
0.0
 11
7.592849
 21
5.008283
 31
0.0
  0
LINE
  5
BD
  8
0
 10
7.592849
 20
5.008283
 30
0.0
 11
7.592849
 21
5.441717
 31
0.0
  0
LINE
  5
BE
  8
0
 10
7.592849
 20
5.441717
 30
0.0
 11
7.592849
 21
5.461133
 31
0.0
  0
LINE
  5
BF
  8
0
 10
7.592849
 20
5.461133
 30
0.0
 11
7.592849
 21
5.476224
 31
0.0
  0
LINE
  5
C0
  8
0
 10
7.592849
 20
5.476224
 30
0.0
 11
7.592849
 21
6.146291
 31
0.0
  0
LINE
  5
C1
  8
0
 10
7.592849
 20
6.146291
 30
0.0
 11
7.592849
 21
6.306271
 31
0.0
  0
LINE
  5
C2
  8
0
 10
7.592849
 20
6.306271
 30
0.0
 11
7.592849
 21
7.106172
 31
0.0
  0
LINE
  5
C3
  8
0
 10
7.592849
 20
7.106172
 30
0.0
 11
7.592849
 21
7.505129
 31
0.0
  0
LINE
  5
C4
  8
0
 10
7.592849
 20
7.505129
 30
0.0
 11
7.592849
 21
7.93389
 31
0.0
  0
LINE
  5
C5
  8
0
 10
7.592849
 20
7.93389
 30
0.0
 11
7.592849
 21
7.975697
 31
0.0
  0
LINE
  5
C6
  8
0
 10
7.592849
 20
7.975697
 30
0.0
 11
7.592849
 21
8.142923
 31
0.0
  0
LINE
  5
C7
  8
0
 10
7.592849
 20
8.142923
 30
0.0
 11
7.592849
 21
8.432984
 31
0.0
  0
LINE
  5
C8
  8
0
 10
7.592849
 20
8.432984
 30
0.0
 11
7.592849
 21
9.232885
 31
0.0
  0
LINE
  5
C9
  8
0
 10
7.592849
 20
9.232885
 30
0.0
 11
7.592849
 21
9.517387
 31
0.0
  0
LINE
  5
CA
  8
0
 10
7.592849
 20
9.517387
 30
0.0
 11
7.592849
 21
9.726419
 31
0.0
  0
LINE
  5
CB
  8
0
 10
7.592849
 20
9.726419
 30
0.0
 11
7.592849
 21
10.155181
 31
0.0
  0
LINE
  5
CC
  8
0
 10
7.592849
 20
10.155181
 30
0.0
 11
7.592849
 21
10.559697
 31
0.0
  0
LINE
  5
CD
  8
0
 10
7.592849
 20
10.559697
 30
0.0
 11
7.592849
 21
11.359598
 31
0.0
  0
LINE
  5
CE
  8
0
 10
7.592849
 20
11.359598
 30
0.0
 11
7.592849
 21
11.519578
 31
0.0
  0
LINE
  5
CF
  8
0
 10
7.592849
 20
11.519578
 30
0.0
 11
7.592849
 21
12.197066
 31
0.0
  0
LINE
  5
D0
  8
0
 10
7.592849
 20
12.197066
 30
0.0
 11
7.592849
 21
12.208283
 31
0.0
  0
LINE
  5
D1
  8
0
 10
7.592849
 20
12.208283
 30
0.0
 11
7.592849
 21
12.641717
 31
0.0
  0
LINE
  5
D2
  8
0
 10
7.592849
 20
12.641717
 30
0.0
 11
7.592849
 21
12.680443
 31
0.0
  0
LINE
  5
D3
  8
0
 10
7.592849
 20
12.680443
 30
0.0
 11
7.592849
 21
12.728338
 31
0.0
  0
LINE
  5
D4
  8
0
 10
7.592849
 20
12.728338
 30
0.0
 11
7.592849
 21
12.745122
 31
0.0
  0
LINE
  5
D5
  8
0
 10
7.592849
 20
12.745122
 30
0.0
 11
7.592849
 21
12.754208
 31
0.0
  0
LINE
  5
D6
  8
0
 10
7.592849
 20
12.754208
 30
0.0
 11
7.592849
 21
12.770726
 31
0.0
  0
LINE
  5
D7
  8
0
 10
7.592849
 20
12.770726
 30
0.0
 11
7.592849
 21
12.786686
 31
0.0
  0
LINE
  5
D8
  8
0
 10
7.592849
 20
12.786686
 30
0.0
 11
7.592849
 21
12.802717
 31
0.0
  0
LINE
  5
D9
  8
0
 10
7.592849
 20
12.802717
 30
0.0
 11
7.592849
 21
12.824551
 31
0.0
  0
LINE
  5
DA
  8
0
 10
7.592849
 20
12.824551
 30
0.0
 11
7.592849
 21
12.839533
 31
0.0
  0
LINE
  5
DB
  8
0
 10
7.592849
 20
12.839533
 30
0.0
 11
7.592849
 21
12.853121
 31
0.0
  0
LINE
  5
DC
  8
0
 10
7.592849
 20
12.853121
 30
0.0
 11
7.592849
 21
13.349373
 31
0.0
  0
LINE
  5
DD
  8
0
 10
7.592849
 20
13.349373
 30
0.0
 11
7.592849
 21
13.533894
 31
0.0
  0
LINE
  5
DE
  8
0
 10
7.592849
 20
13.533894
 30
0.0
 11
7.592849
 21
14.519924
 31
0.0
  0
LINE
  5
DF
  8
0
 10
7.592849
 20
14.519924
 30
0.0
 11
7.592849
 21
14.628
 31
0.0
  0
LINE
  5
E0
  8
0
 10
10.092849
 20
0.515
 30
0.0
 11
10.092849
 21
0.913305
 31
0.0
  0
LINE
  5
E1
  8
0
 10
10.092849
 20
0.515
 30
0.0
 11
10.092849
 21
0.913305
 31
0.0
  0
LINE
  5
E2
  8
0
 10
10.092849
 20
0.913305
 30
0.0
 11
10.092849
 21
1.093814
 31
0.0
  0
LINE
  5
E3
  8
0
 10
10.092849
 20
1.093814
 30
0.0
 11
10.092849
 21
1.996356
 31
0.0
  0
LINE
  5
E4
  8
0
 10
10.092849
 20
1.996356
 30
0.0
 11
10.092849
 21
2.184613
 31
0.0
  0
LINE
  5
E5
  8
0
 10
10.092849
 20
2.184613
 30
0.0
 11
10.092849
 21
2.393645
 31
0.0
  0
LINE
  5
E6
  8
0
 10
10.092849
 20
2.393645
 30
0.0
 11
10.092849
 21
2.822406
 31
0.0
  0
LINE
  5
E7
  8
0
 10
10.092849
 20
2.822406
 30
0.0
 11
10.092849
 21
3.187681
 31
0.0
  0
LINE
  5
E8
  8
0
 10
10.092849
 20
3.187681
 30
0.0
 11
10.092849
 21
3.987582
 31
0.0
  0
LINE
  5
E9
  8
0
 10
10.092849
 20
3.987582
 30
0.0
 11
10.092849
 21
4.147562
 31
0.0
  0
LINE
  5
EA
  8
0
 10
10.092849
 20
4.147562
 30
0.0
 11
10.092849
 21
4.785485
 31
0.0
  0
LINE
  5
EB
  8
0
 10
10.092849
 20
4.785485
 30
0.0
 11
10.092849
 21
4.830407
 31
0.0
  0
LINE
  5
EC
  8
0
 10
10.092849
 20
4.830407
 30
0.0
 11
10.092849
 21
4.839394
 31
0.0
  0
LINE
  5
ED
  8
0
 10
10.092849
 20
4.839394
 30
0.0
 11
10.092849
 21
4.855988
 31
0.0
  0
LINE
  5
EE
  8
0
 10
10.092849
 20
4.855988
 30
0.0
 11
10.092849
 21
4.883672
 31
0.0
  0
LINE
  5
EF
  8
0
 10
10.092849
 20
4.883672
 30
0.0
 11
10.092849
 21
4.893046
 31
0.0
  0
LINE
  5
F0
  8
0
 10
10.092849
 20
4.893046
 30
0.0
 11
10.092849
 21
4.93256
 31
0.0
  0
LINE
  5
F1
  8
0
 10
10.092849
 20
4.93256
 30
0.0
 11
10.092849
 21
4.94375
 31
0.0
  0
LINE
  5
F2
  8
0
 10
10.092849
 20
4.94375
 30
0.0
 11
10.092849
 21
4.948283
 31
0.0
  0
LINE
  5
F3
  8
0
 10
10.092849
 20
4.948283
 30
0.0
 11
10.092849
 21
5.381717
 31
0.0
  0
LINE
  5
F4
  8
0
 10
10.092849
 20
5.381717
 30
0.0
 11
10.092849
 21
5.411232
 31
0.0
  0
LINE
  5
F5
  8
0
 10
10.092849
 20
5.411232
 30
0.0
 11
10.092849
 21
5.456816
 31
0.0
  0
LINE
  5
F6
  8
0
 10
10.092849
 20
5.456816
 30
0.0
 11
10.092849
 21
6.114295
 31
0.0
  0
LINE
  5
F7
  8
0
 10
10.092849
 20
6.114295
 30
0.0
 11
10.092849
 21
6.274275
 31
0.0
  0
LINE
  5
F8
  8
0
 10
10.092849
 20
6.274275
 30
0.0
 11
10.092849
 21
7.074176
 31
0.0
  0
LINE
  5
F9
  8
0
 10
10.092849
 20
7.074176
 30
0.0
 11
10.092849
 21
7.463323
 31
0.0
  0
LINE
  5
FA
  8
0
 10
10.092849
 20
7.463323
 30
0.0
 11
10.092849
 21
7.892084
 31
0.0
  0
LINE
  5
FB
  8
0
 10
10.092849
 20
7.892084
 30
0.0
 11
10.092849
 21
7.975697
 31
0.0
  0
LINE
  5
FC
  8
0
 10
10.092849
 20
7.975697
 30
0.0
 11
10.092849
 21
8.101116
 31
0.0
  0
LINE
  5
FD
  8
0
 10
10.092849
 20
8.101116
 30
0.0
 11
10.092849
 21
8.400988
 31
0.0
  0
LINE
  5
FE
  8
0
 10
10.092849
 20
8.400988
 30
0.0
 11
10.092849
 21
9.200889
 31
0.0
  0
LINE
  5
FF
  8
0
 10
10.092849
 20
9.200889
 30
0.0
 11
10.092849
 21
9.475581
 31
0.0
  0
LINE
  5
100
  8
0
 10
10.092849
 20
9.475581
 30
0.0
 11
10.092849
 21
9.684613
 31
0.0
  0
LINE
  5
101
  8
0
 10
10.092849
 20
9.684613
 30
0.0
 11
10.092849
 21
10.113374
 31
0.0
  0
LINE
  5
102
  8
0
 10
10.092849
 20
10.113374
 30
0.0
 11
10.092849
 21
10.527701
 31
0.0
  0
LINE
  5
103
  8
0
 10
10.092849
 20
10.527701
 30
0.0
 11
10.092849
 21
11.327602
 31
0.0
  0
LINE
  5
104
  8
0
 10
10.092849
 20
11.327602
 30
0.0
 11
10.092849
 21
11.487582
 31
0.0
  0
LINE
  5
105
  8
0
 10
10.092849
 20
11.487582
 30
0.0
 11
10.092849
 21
11.696871
 31
0.0
  0
LINE
  5
106
  8
0
 10
10.092849
 20
11.696871
 30
0.0
 11
10.092849
 21
12.742032
 31
0.0
  0
LINE
  5
107
  8
0
 10
10.092849
 20
12.742032
 30
0.0
 11
10.092849
 21
13.170794
 31
0.0
  0
LINE
  5
108
  8
0
 10
10.092849
 20
13.170794
 30
0.0
 11
10.092849
 21
13.314113
 31
0.0
  0
LINE
  5
109
  8
0
 10
10.092849
 20
13.314113
 30
0.0
 11
10.092849
 21
13.49835
 31
0.0
  0
LINE
  5
10A
  8
0
 10
10.092849
 20
13.49835
 30
0.0
 11
10.092849
 21
14.245122
 31
0.0
  0
LINE
  5
10B
  8
0
 10
10.092849
 20
14.245122
 30
0.0
 11
10.092849
 21
14.631
 31
0.0
  0
LINE
  5
10C
  8
0
 10
12.592849
 20
0.455
 30
0.0
 11
12.592849
 21
0.874643
 31
0.0
  0
LINE
  5
10D
  8
0
 10
12.592849
 20
0.455
 30
0.0
 11
12.592849
 21
0.874643
 31
0.0
  0
LINE
  5
10E
  8
0
 10
12.592849
 20
0.874643
 30
0.0
 11
12.592849
 21
1.04875
 31
0.0
  0
LINE
  5
10F
  8
0
 10
12.592849
 20
1.04875
 30
0.0
 11
12.592849
 21
1.919286
 31
0.0
  0
LINE
  5
110
  8
0
 10
12.592849
 20
1.919286
 30
0.0
 11
12.592849
 21
2.142806
 31
0.0
  0
LINE
  5
111
  8
0
 10
12.592849
 20
2.142806
 30
0.0
 11
12.592849
 21
2.351839
 31
0.0
  0
LINE
  5
112
  8
0
 10
12.592849
 20
2.351839
 30
0.0
 11
12.592849
 21
2.7806
 31
0.0
  0
LINE
  5
113
  8
0
 10
12.592849
 20
2.7806
 30
0.0
 11
12.592849
 21
3.155685
 31
0.0
  0
LINE
  5
114
  8
0
 10
12.592849
 20
3.155685
 30
0.0
 11
12.592849
 21
3.955586
 31
0.0
  0
LINE
  5
115
  8
0
 10
12.592849
 20
3.955586
 30
0.0
 11
12.592849
 21
4.115566
 31
0.0
  0
LINE
  5
116
  8
0
 10
12.592849
 20
4.115566
 30
0.0
 11
12.592849
 21
4.759274
 31
0.0
  0
LINE
  5
117
  8
0
 10
12.592849
 20
4.759274
 30
0.0
 11
12.592849
 21
4.770407
 31
0.0
  0
LINE
  5
118
  8
0
 10
12.592849
 20
4.770407
 30
0.0
 11
12.592849
 21
4.779394
 31
0.0
  0
LINE
  5
119
  8
0
 10
12.592849
 20
4.779394
 30
0.0
 11
12.592849
 21
4.795988
 31
0.0
  0
LINE
  5
11A
  8
0
 10
12.592849
 20
4.795988
 30
0.0
 11
12.592849
 21
4.823672
 31
0.0
  0
LINE
  5
11B
  8
0
 10
12.592849
 20
4.823672
 30
0.0
 11
12.592849
 21
4.833046
 31
0.0
  0
LINE
  5
11C
  8
0
 10
12.592849
 20
4.833046
 30
0.0
 11
12.592849
 21
4.87256
 31
0.0
  0
LINE
  5
11D
  8
0
 10
12.592849
 20
4.87256
 30
0.0
 11
12.592849
 21
4.88375
 31
0.0
  0
LINE
  5
11E
  8
0
 10
12.592849
 20
4.88375
 30
0.0
 11
12.592849
 21
4.888283
 31
0.0
  0
LINE
  5
11F
  8
0
 10
12.592849
 20
4.888283
 30
0.0
 11
12.592849
 21
5.321717
 31
0.0
  0
LINE
  5
120
  8
0
 10
12.592849
 20
5.321717
 30
0.0
 11
12.592849
 21
5.351232
 31
0.0
  0
LINE
  5
121
  8
0
 10
12.592849
 20
5.351232
 30
0.0
 11
12.592849
 21
5.399401
 31
0.0
  0
LINE
  5
122
  8
0
 10
12.592849
 20
5.399401
 30
0.0
 11
12.592849
 21
5.434208
 31
0.0
  0
LINE
  5
123
  8
0
 10
12.592849
 20
5.434208
 30
0.0
 11
12.592849
 21
6.082299
 31
0.0
  0
LINE
  5
124
  8
0
 10
12.592849
 20
6.082299
 30
0.0
 11
12.592849
 21
6.242279
 31
0.0
  0
LINE
  5
125
  8
0
 10
12.592849
 20
6.242279
 30
0.0
 11
12.592849
 21
7.04218
 31
0.0
  0
LINE
  5
126
  8
0
 10
12.592849
 20
7.04218
 30
0.0
 11
12.592849
 21
7.421516
 31
0.0
  0
LINE
  5
127
  8
0
 10
12.592849
 20
7.421516
 30
0.0
 11
12.592849
 21
7.850277
 31
0.0
  0
LINE
  5
128
  8
0
 10
12.592849
 20
7.850277
 30
0.0
 11
12.592849
 21
7.975697
 31
0.0
  0
LINE
  5
129
  8
0
 10
12.592849
 20
7.975697
 30
0.0
 11
12.592849
 21
8.05931
 31
0.0
  0
LINE
  5
12A
  8
0
 10
12.592849
 20
8.05931
 30
0.0
 11
12.592849
 21
8.368992
 31
0.0
  0
LINE
  5
12B
  8
0
 10
12.592849
 20
8.368992
 30
0.0
 11
12.592849
 21
9.168893
 31
0.0
  0
LINE
  5
12C
  8
0
 10
12.592849
 20
9.168893
 30
0.0
 11
12.592849
 21
9.328873
 31
0.0
  0
LINE
  5
12D
  8
0
 10
12.592849
 20
9.328873
 30
0.0
 11
12.592849
 21
9.642806
 31
0.0
  0
LINE
  5
12E
  8
0
 10
12.592849
 20
9.642806
 30
0.0
 11
12.592849
 21
10.071568
 31
0.0
  0
LINE
  5
12F
  8
0
 10
12.592849
 20
10.071568
 30
0.0
 11
12.592849
 21
10.495705
 31
0.0
  0
LINE
  5
130
  8
0
 10
12.592849
 20
10.495705
 30
0.0
 11
12.592849
 21
11.295606
 31
0.0
  0
LINE
  5
131
  8
0
 10
12.592849
 20
11.295606
 30
0.0
 11
12.592849
 21
11.455586
 31
0.0
  0
LINE
  5
132
  8
0
 10
12.592849
 20
11.455586
 30
0.0
 11
12.592849
 21
11.655065
 31
0.0
  0
LINE
  5
133
  8
0
 10
12.592849
 20
11.655065
 30
0.0
 11
12.592849
 21
12.700226
 31
0.0
  0
LINE
  5
134
  8
0
 10
12.592849
 20
12.700226
 30
0.0
 11
12.592849
 21
13.128987
 31
0.0
  0
LINE
  5
135
  8
0
 10
12.592849
 20
13.128987
 30
0.0
 11
12.592849
 21
13.279547
 31
0.0
  0
LINE
  5
136
  8
0
 10
12.592849
 20
13.279547
 30
0.0
 11
12.592849
 21
13.463402
 31
0.0
  0
LINE
  5
137
  8
0
 10
12.592849
 20
13.463402
 30
0.0
 11
12.592849
 21
14.24785
 31
0.0
  0
LINE
  5
138
  8
0
 10
12.592849
 20
14.24785
 30
0.0
 11
12.592849
 21
14.635
 31
0.0
  0
LINE
  5
139
  8
0
 10
0.45
 20
2.592238
 30
0.0
 11
0.495728
 21
2.592238
 31
0.0
  0
LINE
  5
13A
  8
0
 10
0.45
 20
2.592238
 30
0.0
 11
0.495728
 21
2.592238
 31
0.0
  0
LINE
  5
13B
  8
0
 10
0.495728
 20
2.592238
 30
0.0
 11
1.675448
 21
2.592238
 31
0.0
  0
LINE
  5
13C
  8
0
 10
1.675448
 20
2.592238
 30
0.0
 11
1.848991
 21
2.592238
 31
0.0
  0
LINE
  5
13D
  8
0
 10
1.848991
 20
2.592238
 30
0.0
 11
2.062284
 21
2.592238
 31
0.0
  0
LINE
  5
13E
  8
0
 10
2.062284
 20
2.592238
 30
0.0
 11
2.491045
 21
2.592238
 31
0.0
  0
LINE
  5
13F
  8
0
 10
2.491045
 20
2.592238
 30
0.0
 11
3.536206
 21
2.592238
 31
0.0
  0
LINE
  5
140
  8
0
 10
3.536206
 20
2.592238
 30
0.0
 11
3.734214
 21
2.592238
 31
0.0
  0
LINE
  5
141
  8
0
 10
3.734214
 20
2.592238
 30
0.0
 11
3.894194
 21
2.592238
 31
0.0
  0
LINE
  5
142
  8
0
 10
3.894194
 20
2.592238
 30
0.0
 11
4.694094
 21
2.592238
 31
0.0
  0
LINE
  5
143
  8
0
 10
4.694094
 20
2.592238
 30
0.0
 11
5.119703
 21
2.592238
 31
0.0
  0
LINE
  5
144
  8
0
 10
5.119703
 20
2.592238
 30
0.0
 11
5.548465
 21
2.592238
 31
0.0
  0
LINE
  5
145
  8
0
 10
5.548465
 20
2.592238
 30
0.0
 11
5.860927
 21
2.592238
 31
0.0
  0
LINE
  5
146
  8
0
 10
5.860927
 20
2.592238
 30
0.0
 11
6.020907
 21
2.592238
 31
0.0
  0
LINE
  5
147
  8
0
 10
6.020907
 20
2.592238
 30
0.0
 11
6.820807
 21
2.592238
 31
0.0
  0
LINE
  5
148
  8
0
 10
6.820807
 20
2.592238
 30
0.0
 11
7.131961
 21
2.592238
 31
0.0
  0
LINE
  5
149
  8
0
 10
7.131961
 20
2.592238
 30
0.0
 11
7.340994
 21
2.592238
 31
0.0
  0
LINE
  5
14A
  8
0
 10
7.340994
 20
2.592238
 30
0.0
 11
7.769755
 21
2.592238
 31
0.0
  0
LINE
  5
14B
  8
0
 10
7.769755
 20
2.592238
 30
0.0
 11
8.14762
 21
2.592238
 31
0.0
  0
LINE
  5
14C
  8
0
 10
8.14762
 20
2.592238
 30
0.0
 11
8.94752
 21
2.592238
 31
0.0
  0
LINE
  5
14D
  8
0
 10
8.94752
 20
2.592238
 30
0.0
 11
9.1075
 21
2.592238
 31
0.0
  0
LINE
  5
14E
  8
0
 10
9.1075
 20
2.592238
 30
0.0
 11
9.753227
 21
2.592238
 31
0.0
  0
LINE
  5
14F
  8
0
 10
9.753227
 20
2.592238
 30
0.0
 11
9.794599
 21
2.592238
 31
0.0
  0
LINE
  5
150
  8
0
 10
9.794599
 20
2.592238
 30
0.0
 11
9.842768
 21
2.592238
 31
0.0
  0
LINE
  5
151
  8
0
 10
9.842768
 20
2.592238
 30
0.0
 11
9.872283
 21
2.592238
 31
0.0
  0
LINE
  5
152
  8
0
 10
9.872283
 20
2.592238
 30
0.0
 11
10.305717
 21
2.592238
 31
0.0
  0
LINE
  5
153
  8
0
 10
10.305717
 20
2.592238
 30
0.0
 11
10.31025
 21
2.592238
 31
0.0
  0
LINE
  5
154
  8
0
 10
10.31025
 20
2.592238
 30
0.0
 11
10.32144
 21
2.592238
 31
0.0
  0
LINE
  5
155
  8
0
 10
10.32144
 20
2.592238
 30
0.0
 11
10.360954
 21
2.592238
 31
0.0
  0
LINE
  5
156
  8
0
 10
10.360954
 20
2.592238
 30
0.0
 11
10.370328
 21
2.592238
 31
0.0
  0
LINE
  5
157
  8
0
 10
10.370328
 20
2.592238
 30
0.0
 11
10.398012
 21
2.592238
 31
0.0
  0
LINE
  5
158
  8
0
 10
10.398012
 20
2.592238
 30
0.0
 11
10.414606
 21
2.592238
 31
0.0
  0
LINE
  5
159
  8
0
 10
10.414606
 20
2.592238
 30
0.0
 11
10.423593
 21
2.592238
 31
0.0
  0
LINE
  5
15A
  8
0
 10
10.423593
 20
2.592238
 30
0.0
 11
10.428296
 21
2.592238
 31
0.0
  0
LINE
  5
15B
  8
0
 10
10.428296
 20
2.592238
 30
0.0
 11
11.074233
 21
2.592238
 31
0.0
  0
LINE
  5
15C
  8
0
 10
11.074233
 20
2.592238
 30
0.0
 11
11.234214
 21
2.592238
 31
0.0
  0
LINE
  5
15D
  8
0
 10
11.234214
 20
2.592238
 30
0.0
 11
12.034114
 21
2.592238
 31
0.0
  0
LINE
  5
15E
  8
0
 10
12.034114
 20
2.592238
 30
0.0
 11
12.410671
 21
2.592238
 31
0.0
  0
LINE
  5
15F
  8
0
 10
12.410671
 20
2.592238
 30
0.0
 11
12.839432
 21
2.592238
 31
0.0
  0
LINE
  5
160
  8
0
 10
12.839432
 20
2.592238
 30
0.0
 11
13.048465
 21
2.592238
 31
0.0
  0
LINE
  5
161
  8
0
 10
13.048465
 20
2.592238
 30
0.0
 11
13.277434
 21
2.592238
 31
0.0
  0
LINE
  5
162
  8
0
 10
13.277434
 20
2.592238
 30
0.0
 11
14.14287
 21
2.592238
 31
0.0
  0
LINE
  5
163
  8
0
 10
14.14287
 20
2.592238
 30
0.0
 11
14.315958
 21
2.592238
 31
0.0
  0
LINE
  5
164
  8
0
 10
14.315958
 20
2.592238
 30
0.0
 11
14.739
 21
2.592238
 31
0.0
  0
LINE
  5
165
  8
0
 10
0.513
 20
5.092238
 30
0.0
 11
0.544386
 21
5.092238
 31
0.0
  0
LINE
  5
166
  8
0
 10
0.513
 20
5.092238
 30
0.0
 11
0.544386
 21
5.092238
 31
0.0
  0
LINE
  5
167
  8
0
 10
0.544386
 20
5.092238
 30
0.0
 11
0.575314
 21
5.092238
 31
0.0
  0
LINE
  5
168
  8
0
 10
0.575314
 20
5.092238
 30
0.0
 11
1.656441
 21
5.092238
 31
0.0
  0
LINE
  5
169
  8
0
 10
1.656441
 20
5.092238
 30
0.0
 11
1.836747
 21
5.092238
 31
0.0
  0
LINE
  5
16A
  8
0
 10
1.836747
 20
5.092238
 30
0.0
 11
2.352784
 21
5.092238
 31
0.0
  0
LINE
  5
16B
  8
0
 10
2.352784
 20
5.092238
 30
0.0
 11
2.360952
 21
5.092238
 31
0.0
  0
LINE
  5
16C
  8
0
 10
2.360952
 20
5.092238
 30
0.0
 11
3.015628
 21
5.092238
 31
0.0
  0
LINE
  5
16D
  8
0
 10
3.015628
 20
5.092238
 30
0.0
 11
3.687286
 21
5.092238
 31
0.0
  0
LINE
  5
16E
  8
0
 10
3.687286
 20
5.092238
 30
0.0
 11
3.847266
 21
5.092238
 31
0.0
  0
LINE
  5
16F
  8
0
 10
3.847266
 20
5.092238
 30
0.0
 11
4.647167
 21
5.092238
 31
0.0
  0
LINE
  5
170
  8
0
 10
4.647167
 20
5.092238
 30
0.0
 11
5.058387
 21
5.092238
 31
0.0
  0
LINE
  5
171
  8
0
 10
5.058387
 20
5.092238
 30
0.0
 11
5.487148
 21
5.092238
 31
0.0
  0
LINE
  5
172
  8
0
 10
5.487148
 20
5.092238
 30
0.0
 11
5.696181
 21
5.092238
 31
0.0
  0
LINE
  5
173
  8
0
 10
5.696181
 20
5.092238
 30
0.0
 11
5.973979
 21
5.092238
 31
0.0
  0
LINE
  5
174
  8
0
 10
5.973979
 20
5.092238
 30
0.0
 11
6.77388
 21
5.092238
 31
0.0
  0
LINE
  5
175
  8
0
 10
6.77388
 20
5.092238
 30
0.0
 11
7.070645
 21
5.092238
 31
0.0
  0
LINE
  5
176
  8
0
 10
7.070645
 20
5.092238
 30
0.0
 11
7.279677
 21
5.092238
 31
0.0
  0
LINE
  5
177
  8
0
 10
7.279677
 20
5.092238
 30
0.0
 11
7.708439
 21
5.092238
 31
0.0
  0
LINE
  5
178
  8
0
 10
7.708439
 20
5.092238
 30
0.0
 11
8.100692
 21
5.092238
 31
0.0
  0
LINE
  5
179
  8
0
 10
8.100692
 20
5.092238
 30
0.0
 11
8.900593
 21
5.092238
 31
0.0
  0
LINE
  5
17A
  8
0
 10
8.900593
 20
5.092238
 30
0.0
 11
9.060573
 21
5.092238
 31
0.0
  0
LINE
  5
17B
  8
0
 10
9.060573
 20
5.092238
 30
0.0
 11
9.720335
 21
5.092238
 31
0.0
  0
LINE
  5
17C
  8
0
 10
9.720335
 20
5.092238
 30
0.0
 11
9.754768
 21
5.092238
 31
0.0
  0
LINE
  5
17D
  8
0
 10
9.754768
 20
5.092238
 30
0.0
 11
9.784283
 21
5.092238
 31
0.0
  0
LINE
  5
17E
  8
0
 10
9.784283
 20
5.092238
 30
0.0
 11
10.217717
 21
5.092238
 31
0.0
  0
LINE
  5
17F
  8
0
 10
10.217717
 20
5.092238
 30
0.0
 11
10.22225
 21
5.092238
 31
0.0
  0
LINE
  5
180
  8
0
 10
10.22225
 20
5.092238
 30
0.0
 11
10.23344
 21
5.092238
 31
0.0
  0
LINE
  5
181
  8
0
 10
10.23344
 20
5.092238
 30
0.0
 11
10.272954
 21
5.092238
 31
0.0
  0
LINE
  5
182
  8
0
 10
10.272954
 20
5.092238
 30
0.0
 11
10.282328
 21
5.092238
 31
0.0
  0
LINE
  5
183
  8
0
 10
10.282328
 20
5.092238
 30
0.0
 11
10.310012
 21
5.092238
 31
0.0
  0
LINE
  5
184
  8
0
 10
10.310012
 20
5.092238
 30
0.0
 11
10.326606
 21
5.092238
 31
0.0
  0
LINE
  5
185
  8
0
 10
10.326606
 20
5.092238
 30
0.0
 11
10.335593
 21
5.092238
 31
0.0
  0
LINE
  5
186
  8
0
 10
10.335593
 20
5.092238
 30
0.0
 11
10.351932
 21
5.092238
 31
0.0
  0
LINE
  5
187
  8
0
 10
10.351932
 20
5.092238
 30
0.0
 11
10.383122
 21
5.092238
 31
0.0
  0
LINE
  5
188
  8
0
 10
10.383122
 20
5.092238
 30
0.0
 11
10.390054
 21
5.092238
 31
0.0
  0
LINE
  5
189
  8
0
 10
10.390054
 20
5.092238
 30
0.0
 11
11.027306
 21
5.092238
 31
0.0
  0
LINE
  5
18A
  8
0
 10
11.027306
 20
5.092238
 30
0.0
 11
11.187286
 21
5.092238
 31
0.0
  0
LINE
  5
18B
  8
0
 10
11.187286
 20
5.092238
 30
0.0
 11
11.987187
 21
5.092238
 31
0.0
  0
LINE
  5
18C
  8
0
 10
11.987187
 20
5.092238
 30
0.0
 11
12.349355
 21
5.092238
 31
0.0
  0
LINE
  5
18D
  8
0
 10
12.349355
 20
5.092238
 30
0.0
 11
12.778116
 21
5.092238
 31
0.0
  0
LINE
  5
18E
  8
0
 10
12.778116
 20
5.092238
 30
0.0
 11
12.987148
 21
5.092238
 31
0.0
  0
LINE
  5
18F
  8
0
 10
12.987148
 20
5.092238
 30
0.0
 11
13.164595
 21
5.092238
 31
0.0
  0
LINE
  5
190
  8
0
 10
13.164595
 20
5.092238
 30
0.0
 11
14.076605
 21
5.092238
 31
0.0
  0
LINE
  5
191
  8
0
 10
14.076605
 20
5.092238
 30
0.0
 11
14.259007
 21
5.092238
 31
0.0
  0
LINE
  5
192
  8
0
 10
14.259007
 20
5.092238
 30
0.0
 11
14.651
 21
5.092238
 31
0.0
  0
LINE
  5
193
  8
0
 10
0.576
 20
7.592238
 30
0.0
 11
0.649456
 21
7.592238
 31
0.0
  0
LINE
  5
194
  8
0
 10
0.576
 20
7.592238
 30
0.0
 11
0.649456
 21
7.592238
 31
0.0
  0
LINE
  5
195
  8
0
 10
0.649456
 20
7.592238
 30
0.0
 11
0.700983
 21
7.592238
 31
0.0
  0
LINE
  5
196
  8
0
 10
0.700983
 20
7.592238
 30
0.0
 11
1.66957
 21
7.592238
 31
0.0
  0
LINE
  5
197
  8
0
 10
1.66957
 20
7.592238
 30
0.0
 11
1.855952
 21
7.592238
 31
0.0
  0
LINE
  5
198
  8
0
 10
1.855952
 20
7.592238
 30
0.0
 11
2.339899
 21
7.592238
 31
0.0
  0
LINE
  5
199
  8
0
 10
2.339899
 20
7.592238
 30
0.0
 11
2.368611
 21
7.592238
 31
0.0
  0
LINE
  5
19A
  8
0
 10
2.368611
 20
7.592238
 30
0.0
 11
2.375863
 21
7.592238
 31
0.0
  0
LINE
  5
19B
  8
0
 10
2.375863
 20
7.592238
 30
0.0
 11
2.383224
 21
7.592238
 31
0.0
  0
LINE
  5
19C
  8
0
 10
2.383224
 20
7.592238
 30
0.0
 11
2.390696
 21
7.592238
 31
0.0
  0
LINE
  5
19D
  8
0
 10
2.390696
 20
7.592238
 30
0.0
 11
2.414314
 21
7.592238
 31
0.0
  0
LINE
  5
19E
  8
0
 10
2.414314
 20
7.592238
 30
0.0
 11
2.42166
 21
7.592238
 31
0.0
  0
LINE
  5
19F
  8
0
 10
2.42166
 20
7.592238
 30
0.0
 11
2.430274
 21
7.592238
 31
0.0
  0
LINE
  5
1A0
  8
0
 10
2.430274
 20
7.592238
 30
0.0
 11
3.000195
 21
7.592238
 31
0.0
  0
LINE
  5
1A1
  8
0
 10
3.000195
 20
7.592238
 30
0.0
 11
3.673954
 21
7.592238
 31
0.0
  0
LINE
  5
1A2
  8
0
 10
3.673954
 20
7.592238
 30
0.0
 11
3.833934
 21
7.592238
 31
0.0
  0
LINE
  5
1A3
  8
0
 10
3.833934
 20
7.592238
 30
0.0
 11
4.633835
 21
7.592238
 31
0.0
  0
LINE
  5
1A4
  8
0
 10
4.633835
 20
7.592238
 30
0.0
 11
5.040968
 21
7.592238
 31
0.0
  0
LINE
  5
1A5
  8
0
 10
5.040968
 20
7.592238
 30
0.0
 11
5.469729
 21
7.592238
 31
0.0
  0
LINE
  5
1A6
  8
0
 10
5.469729
 20
7.592238
 30
0.0
 11
5.678761
 21
7.592238
 31
0.0
  0
LINE
  5
1A7
  8
0
 10
5.678761
 20
7.592238
 30
0.0
 11
5.960647
 21
7.592238
 31
0.0
  0
LINE
  5
1A8
  8
0
 10
5.960647
 20
7.592238
 30
0.0
 11
5.973356
 21
7.592238
 31
0.0
  0
LINE
  5
1A9
  8
0
 10
5.973356
 20
7.592238
 30
0.0
 11
6.760548
 21
7.592238
 31
0.0
  0
LINE
  5
1AA
  8
0
 10
6.760548
 20
7.592238
 30
0.0
 11
7.053226
 21
7.592238
 31
0.0
  0
LINE
  5
1AB
  8
0
 10
7.053226
 20
7.592238
 30
0.0
 11
7.262258
 21
7.592238
 31
0.0
  0
LINE
  5
1AC
  8
0
 10
7.262258
 20
7.592238
 30
0.0
 11
7.691019
 21
7.592238
 31
0.0
  0
LINE
  5
1AD
  8
0
 10
7.691019
 20
7.592238
 30
0.0
 11
8.08736
 21
7.592238
 31
0.0
  0
LINE
  5
1AE
  8
0
 10
8.08736
 20
7.592238
 30
0.0
 11
8.887261
 21
7.592238
 31
0.0
  0
LINE
  5
1AF
  8
0
 10
8.887261
 20
7.592238
 30
0.0
 11
9.047241
 21
7.592238
 31
0.0
  0
LINE
  5
1B0
  8
0
 10
9.047241
 20
7.592238
 30
0.0
 11
9.71223
 21
7.592238
 31
0.0
  0
LINE
  5
1B1
  8
0
 10
9.71223
 20
7.592238
 30
0.0
 11
9.719875
 21
7.592238
 31
0.0
  0
LINE
  5
1B2
  8
0
 10
9.719875
 20
7.592238
 30
0.0
 11
9.759283
 21
7.592238
 31
0.0
  0
LINE
  5
1B3
  8
0
 10
9.759283
 20
7.592238
 30
0.0
 11
10.192717
 21
7.592238
 31
0.0
  0
LINE
  5
1B4
  8
0
 10
10.192717
 20
7.592238
 30
0.0
 11
10.19725
 21
7.592238
 31
0.0
  0
LINE
  5
1B5
  8
0
 10
10.19725
 20
7.592238
 30
0.0
 11
10.217929
 21
7.592238
 31
0.0
  0
LINE
  5
1B6
  8
0
 10
10.217929
 20
7.592238
 30
0.0
 11
10.247954
 21
7.592238
 31
0.0
  0
LINE
  5
1B7
  8
0
 10
10.247954
 20
7.592238
 30
0.0
 11
10.257328
 21
7.592238
 31
0.0
  0
LINE
  5
1B8
  8
0
 10
10.257328
 20
7.592238
 30
0.0
 11
10.285012
 21
7.592238
 31
0.0
  0
LINE
  5
1B9
  8
0
 10
10.285012
 20
7.592238
 30
0.0
 11
10.301606
 21
7.592238
 31
0.0
  0
LINE
  5
1BA
  8
0
 10
10.301606
 20
7.592238
 30
0.0
 11
10.310593
 21
7.592238
 31
0.0
  0
LINE
  5
1BB
  8
0
 10
10.310593
 20
7.592238
 30
0.0
 11
10.326932
 21
7.592238
 31
0.0
  0
LINE
  5
1BC
  8
0
 10
10.326932
 20
7.592238
 30
0.0
 11
10.358122
 21
7.592238
 31
0.0
  0
LINE
  5
1BD
  8
0
 10
10.358122
 20
7.592238
 30
0.0
 11
10.3735
 21
7.592238
 31
0.0
  0
LINE
  5
1BE
  8
0
 10
10.3735
 20
7.592238
 30
0.0
 11
10.378177
 21
7.592238
 31
0.0
  0
LINE
  5
1BF
  8
0
 10
10.378177
 20
7.592238
 30
0.0
 11
11.013974
 21
7.592238
 31
0.0
  0
LINE
  5
1C0
  8
0
 10
11.013974
 20
7.592238
 30
0.0
 11
11.173954
 21
7.592238
 31
0.0
  0
LINE
  5
1C1
  8
0
 10
11.173954
 20
7.592238
 30
0.0
 11
11.973855
 21
7.592238
 31
0.0
  0
LINE
  5
1C2
  8
0
 10
11.973855
 20
7.592238
 30
0.0
 11
12.331935
 21
7.592238
 31
0.0
  0
LINE
  5
1C3
  8
0
 10
12.331935
 20
7.592238
 30
0.0
 11
12.760697
 21
7.592238
 31
0.0
  0
LINE
  5
1C4
  8
0
 10
12.760697
 20
7.592238
 30
0.0
 11
12.969729
 21
7.592238
 31
0.0
  0
LINE
  5
1C5
  8
0
 10
12.969729
 20
7.592238
 30
0.0
 11
13.13319
 21
7.592238
 31
0.0
  0
LINE
  5
1C6
  8
0
 10
13.13319
 20
7.592238
 30
0.0
 11
14.057209
 21
7.592238
 31
0.0
  0
LINE
  5
1C7
  8
0
 10
14.057209
 20
7.592238
 30
0.0
 11
14.242013
 21
7.592238
 31
0.0
  0
LINE
  5
1C8
  8
0
 10
14.242013
 20
7.592238
 30
0.0
 11
14.626
 21
7.592238
 31
0.0
  0
LINE
  5
1C9
  8
0
 10
0.514
 20
10.092238
 30
0.0
 11
0.912981
 21
10.092238
 31
0.0
  0
LINE
  5
1CA
  8
0
 10
0.514
 20
10.092238
 30
0.0
 11
0.912981
 21
10.092238
 31
0.0
  0
LINE
  5
1CB
  8
0
 10
0.912981
 20
10.092238
 30
0.0
 11
1.641416
 21
10.092238
 31
0.0
  0
LINE
  5
1CC
  8
0
 10
1.641416
 20
10.092238
 30
0.0
 11
1.821722
 21
10.092238
 31
0.0
  0
LINE
  5
1CD
  8
0
 10
1.821722
 20
10.092238
 30
0.0
 11
2.339899
 21
10.092238
 31
0.0
  0
LINE
  5
1CE
  8
0
 10
2.339899
 20
10.092238
 30
0.0
 11
2.368611
 21
10.092238
 31
0.0
  0
LINE
  5
1CF
  8
0
 10
2.368611
 20
10.092238
 30
0.0
 11
2.375863
 21
10.092238
 31
0.0
  0
LINE
  5
1D0
  8
0
 10
2.375863
 20
10.092238
 30
0.0
 11
2.383224
 21
10.092238
 31
0.0
  0
LINE
  5
1D1
  8
0
 10
2.383224
 20
10.092238
 30
0.0
 11
2.390696
 21
10.092238
 31
0.0
  0
LINE
  5
1D2
  8
0
 10
2.390696
 20
10.092238
 30
0.0
 11
2.414314
 21
10.092238
 31
0.0
  0
LINE
  5
1D3
  8
0
 10
2.414314
 20
10.092238
 30
0.0
 11
2.42166
 21
10.092238
 31
0.0
  0
LINE
  5
1D4
  8
0
 10
2.42166
 20
10.092238
 30
0.0
 11
2.430274
 21
10.092238
 31
0.0
  0
LINE
  5
1D5
  8
0
 10
2.430274
 20
10.092238
 30
0.0
 11
3.000195
 21
10.092238
 31
0.0
  0
LINE
  5
1D6
  8
0
 10
3.000195
 20
10.092238
 30
0.0
 11
3.673954
 21
10.092238
 31
0.0
  0
LINE
  5
1D7
  8
0
 10
3.673954
 20
10.092238
 30
0.0
 11
3.833934
 21
10.092238
 31
0.0
  0
LINE
  5
1D8
  8
0
 10
3.833934
 20
10.092238
 30
0.0
 11
4.633835
 21
10.092238
 31
0.0
  0
LINE
  5
1D9
  8
0
 10
4.633835
 20
10.092238
 30
0.0
 11
5.040968
 21
10.092238
 31
0.0
  0
LINE
  5
1DA
  8
0
 10
5.040968
 20
10.092238
 30
0.0
 11
5.469729
 21
10.092238
 31
0.0
  0
LINE
  5
1DB
  8
0
 10
5.469729
 20
10.092238
 30
0.0
 11
5.678761
 21
10.092238
 31
0.0
  0
LINE
  5
1DC
  8
0
 10
5.678761
 20
10.092238
 30
0.0
 11
5.960647
 21
10.092238
 31
0.0
  0
LINE
  5
1DD
  8
0
 10
5.960647
 20
10.092238
 30
0.0
 11
5.963972
 21
10.092238
 31
0.0
  0
LINE
  5
1DE
  8
0
 10
5.963972
 20
10.092238
 30
0.0
 11
6.760548
 21
10.092238
 31
0.0
  0
LINE
  5
1DF
  8
0
 10
6.760548
 20
10.092238
 30
0.0
 11
7.053226
 21
10.092238
 31
0.0
  0
LINE
  5
1E0
  8
0
 10
7.053226
 20
10.092238
 30
0.0
 11
7.262258
 21
10.092238
 31
0.0
  0
LINE
  5
1E1
  8
0
 10
7.262258
 20
10.092238
 30
0.0
 11
7.691019
 21
10.092238
 31
0.0
  0
LINE
  5
1E2
  8
0
 10
7.691019
 20
10.092238
 30
0.0
 11
8.08736
 21
10.092238
 31
0.0
  0
LINE
  5
1E3
  8
0
 10
8.08736
 20
10.092238
 30
0.0
 11
8.887261
 21
10.092238
 31
0.0
  0
LINE
  5
1E4
  8
0
 10
8.887261
 20
10.092238
 30
0.0
 11
9.047241
 21
10.092238
 31
0.0
  0
LINE
  5
1E5
  8
0
 10
9.047241
 20
10.092238
 30
0.0
 11
9.71223
 21
10.092238
 31
0.0
  0
LINE
  5
1E6
  8
0
 10
9.71223
 20
10.092238
 30
0.0
 11
9.719875
 21
10.092238
 31
0.0
  0
LINE
  5
1E7
  8
0
 10
9.719875
 20
10.092238
 30
0.0
 11
9.759283
 21
10.092238
 31
0.0
  0
LINE
  5
1E8
  8
0
 10
9.759283
 20
10.092238
 30
0.0
 11
10.192717
 21
10.092238
 31
0.0
  0
LINE
  5
1E9
  8
0
 10
10.192717
 20
10.092238
 30
0.0
 11
10.19725
 21
10.092238
 31
0.0
  0
LINE
  5
1EA
  8
0
 10
10.19725
 20
10.092238
 30
0.0
 11
10.217929
 21
10.092238
 31
0.0
  0
LINE
  5
1EB
  8
0
 10
10.217929
 20
10.092238
 30
0.0
 11
10.247954
 21
10.092238
 31
0.0
  0
LINE
  5
1EC
  8
0
 10
10.247954
 20
10.092238
 30
0.0
 11
10.257328
 21
10.092238
 31
0.0
  0
LINE
  5
1ED
  8
0
 10
10.257328
 20
10.092238
 30
0.0
 11
10.285012
 21
10.092238
 31
0.0
  0
LINE
  5
1EE
  8
0
 10
10.285012
 20
10.092238
 30
0.0
 11
10.301606
 21
10.092238
 31
0.0
  0
LINE
  5
1EF
  8
0
 10
10.301606
 20
10.092238
 30
0.0
 11
10.310593
 21
10.092238
 31
0.0
  0
LINE
  5
1F0
  8
0
 10
10.310593
 20
10.092238
 30
0.0
 11
10.326932
 21
10.092238
 31
0.0
  0
LINE
  5
1F1
  8
0
 10
10.326932
 20
10.092238
 30
0.0
 11
10.358122
 21
10.092238
 31
0.0
  0
LINE
  5
1F2
  8
0
 10
10.358122
 20
10.092238
 30
0.0
 11
10.3735
 21
10.092238
 31
0.0
  0
LINE
  5
1F3
  8
0
 10
10.3735
 20
10.092238
 30
0.0
 11
10.378177
 21
10.092238
 31
0.0
  0
LINE
  5
1F4
  8
0
 10
10.378177
 20
10.092238
 30
0.0
 11
11.013974
 21
10.092238
 31
0.0
  0
LINE
  5
1F5
  8
0
 10
11.013974
 20
10.092238
 30
0.0
 11
11.173954
 21
10.092238
 31
0.0
  0
LINE
  5
1F6
  8
0
 10
11.173954
 20
10.092238
 30
0.0
 11
11.973855
 21
10.092238
 31
0.0
  0
LINE
  5
1F7
  8
0
 10
11.973855
 20
10.092238
 30
0.0
 11
12.331935
 21
10.092238
 31
0.0
  0
LINE
  5
1F8
  8
0
 10
12.331935
 20
10.092238
 30
0.0
 11
12.760697
 21
10.092238
 31
0.0
  0
LINE
  5
1F9
  8
0
 10
12.760697
 20
10.092238
 30
0.0
 11
12.969729
 21
10.092238
 31
0.0
  0
LINE
  5
1FA
  8
0
 10
12.969729
 20
10.092238
 30
0.0
 11
13.13319
 21
10.092238
 31
0.0
  0
LINE
  5
1FB
  8
0
 10
13.13319
 20
10.092238
 30
0.0
 11
14.057209
 21
10.092238
 31
0.0
  0
LINE
  5
1FC
  8
0
 10
14.057209
 20
10.092238
 30
0.0
 11
14.515151
 21
10.092238
 31
0.0
  0
LINE
  5
1FD
  8
0
 10
14.515151
 20
10.092238
 30
0.0
 11
14.626
 21
10.092238
 31
0.0
  0
LINE
  5
1FE
  8
0
 10
0.438
 20
12.592238
 30
0.0
 11
0.864497
 21
12.592238
 31
0.0
  0
LINE
  5
1FF
  8
0
 10
0.438
 20
12.592238
 30
0.0
 11
0.864497
 21
12.592238
 31
0.0
  0
LINE
  5
200
  8
0
 10
0.864497
 20
12.592238
 30
0.0
 11
1.603169
 21
12.592238
 31
0.0
  0
LINE
  5
201
  8
0
 10
1.603169
 20
12.592238
 30
0.0
 11
1.77522
 21
12.592238
 31
0.0
  0
LINE
  5
202
  8
0
 10
1.77522
 20
12.592238
 30
0.0
 11
2.340087
 21
12.592238
 31
0.0
  0
LINE
  5
203
  8
0
 10
2.340087
 20
12.592238
 30
0.0
 11
2.34103
 21
12.592238
 31
0.0
  0
LINE
  5
204
  8
0
 10
2.34103
 20
12.592238
 30
0.0
 11
2.347879
 21
12.592238
 31
0.0
  0
LINE
  5
205
  8
0
 10
2.347879
 20
12.592238
 30
0.0
 11
2.368611
 21
12.592238
 31
0.0
  0
LINE
  5
206
  8
0
 10
2.368611
 20
12.592238
 30
0.0
 11
2.375863
 21
12.592238
 31
0.0
  0
LINE
  5
207
  8
0
 10
2.375863
 20
12.592238
 30
0.0
 11
2.383224
 21
12.592238
 31
0.0
  0
LINE
  5
208
  8
0
 10
2.383224
 20
12.592238
 30
0.0
 11
2.390696
 21
12.592238
 31
0.0
  0
LINE
  5
209
  8
0
 10
2.390696
 20
12.592238
 30
0.0
 11
2.414314
 21
12.592238
 31
0.0
  0
LINE
  5
20A
  8
0
 10
2.414314
 20
12.592238
 30
0.0
 11
2.42166
 21
12.592238
 31
0.0
  0
LINE
  5
20B
  8
0
 10
2.42166
 20
12.592238
 30
0.0
 11
2.430274
 21
12.592238
 31
0.0
  0
LINE
  5
20C
  8
0
 10
2.430274
 20
12.592238
 30
0.0
 11
3.000195
 21
12.592238
 31
0.0
  0
LINE
  5
20D
  8
0
 10
3.000195
 20
12.592238
 30
0.0
 11
3.673954
 21
12.592238
 31
0.0
  0
LINE
  5
20E
  8
0
 10
3.673954
 20
12.592238
 30
0.0
 11
3.833934
 21
12.592238
 31
0.0
  0
LINE
  5
20F
  8
0
 10
3.833934
 20
12.592238
 30
0.0
 11
4.633835
 21
12.592238
 31
0.0
  0
LINE
  5
210
  8
0
 10
4.633835
 20
12.592238
 30
0.0
 11
5.040968
 21
12.592238
 31
0.0
  0
LINE
  5
211
  8
0
 10
5.040968
 20
12.592238
 30
0.0
 11
5.469729
 21
12.592238
 31
0.0
  0
LINE
  5
212
  8
0
 10
5.469729
 20
12.592238
 30
0.0
 11
5.678761
 21
12.592238
 31
0.0
  0
LINE
  5
213
  8
0
 10
5.678761
 20
12.592238
 30
0.0
 11
5.960647
 21
12.592238
 31
0.0
  0
LINE
  5
214
  8
0
 10
5.960647
 20
12.592238
 30
0.0
 11
5.96562
 21
12.592238
 31
0.0
  0
LINE
  5
215
  8
0
 10
5.96562
 20
12.592238
 30
0.0
 11
6.760548
 21
12.592238
 31
0.0
  0
LINE
  5
216
  8
0
 10
6.760548
 20
12.592238
 30
0.0
 11
7.053226
 21
12.592238
 31
0.0
  0
LINE
  5
217
  8
0
 10
7.053226
 20
12.592238
 30
0.0
 11
7.262258
 21
12.592238
 31
0.0
  0
LINE
  5
218
  8
0
 10
7.262258
 20
12.592238
 30
0.0
 11
7.691019
 21
12.592238
 31
0.0
  0
LINE
  5
219
  8
0
 10
7.691019
 20
12.592238
 30
0.0
 11
8.08736
 21
12.592238
 31
0.0
  0
LINE
  5
21A
  8
0
 10
8.08736
 20
12.592238
 30
0.0
 11
8.887261
 21
12.592238
 31
0.0
  0
LINE
  5
21B
  8
0
 10
8.887261
 20
12.592238
 30
0.0
 11
9.047241
 21
12.592238
 31
0.0
  0
LINE
  5
21C
  8
0
 10
9.047241
 20
12.592238
 30
0.0
 11
9.71223
 21
12.592238
 31
0.0
  0
LINE
  5
21D
  8
0
 10
9.71223
 20
12.592238
 30
0.0
 11
9.719875
 21
12.592238
 31
0.0
  0
LINE
  5
21E
  8
0
 10
9.719875
 20
12.592238
 30
0.0
 11
9.759283
 21
12.592238
 31
0.0
  0
LINE
  5
21F
  8
0
 10
9.759283
 20
12.592238
 30
0.0
 11
10.192717
 21
12.592238
 31
0.0
  0
LINE
  5
220
  8
0
 10
10.192717
 20
12.592238
 30
0.0
 11
10.19725
 21
12.592238
 31
0.0
  0
LINE
  5
221
  8
0
 10
10.19725
 20
12.592238
 30
0.0
 11
10.22791
 21
12.592238
 31
0.0
  0
LINE
  5
222
  8
0
 10
10.22791
 20
12.592238
 30
0.0
 11
10.257328
 21
12.592238
 31
0.0
  0
LINE
  5
223
  8
0
 10
10.257328
 20
12.592238
 30
0.0
 11
10.285012
 21
12.592238
 31
0.0
  0
LINE
  5
224
  8
0
 10
10.285012
 20
12.592238
 30
0.0
 11
10.301606
 21
12.592238
 31
0.0
  0
LINE
  5
225
  8
0
 10
10.301606
 20
12.592238
 30
0.0
 11
10.310593
 21
12.592238
 31
0.0
  0
LINE
  5
226
  8
0
 10
10.310593
 20
12.592238
 30
0.0
 11
10.326932
 21
12.592238
 31
0.0
  0
LINE
  5
227
  8
0
 10
10.326932
 20
12.592238
 30
0.0
 11
10.358122
 21
12.592238
 31
0.0
  0
LINE
  5
228
  8
0
 10
10.358122
 20
12.592238
 30
0.0
 11
10.3735
 21
12.592238
 31
0.0
  0
LINE
  5
229
  8
0
 10
10.3735
 20
12.592238
 30
0.0
 11
10.378177
 21
12.592238
 31
0.0
  0
LINE
  5
22A
  8
0
 10
10.378177
 20
12.592238
 30
0.0
 11
11.013974
 21
12.592238
 31
0.0
  0
LINE
  5
22B
  8
0
 10
11.013974
 20
12.592238
 30
0.0
 11
11.173954
 21
12.592238
 31
0.0
  0
LINE
  5
22C
  8
0
 10
11.173954
 20
12.592238
 30
0.0
 11
11.973855
 21
12.592238
 31
0.0
  0
LINE
  5
22D
  8
0
 10
11.973855
 20
12.592238
 30
0.0
 11
12.331935
 21
12.592238
 31
0.0
  0
LINE
  5
22E
  8
0
 10
12.331935
 20
12.592238
 30
0.0
 11
12.760697
 21
12.592238
 31
0.0
  0
LINE
  5
22F
  8
0
 10
12.760697
 20
12.592238
 30
0.0
 11
12.969729
 21
12.592238
 31
0.0
  0
LINE
  5
230
  8
0
 10
12.969729
 20
12.592238
 30
0.0
 11
13.13319
 21
12.592238
 31
0.0
  0
LINE
  5
231
  8
0
 10
13.13319
 20
12.592238
 30
0.0
 11
14.057209
 21
12.592238
 31
0.0
  0
LINE
  5
232
  8
0
 10
14.057209
 20
12.592238
 30
0.0
 11
14.242013
 21
12.592238
 31
0.0
  0
LINE
  5
233
  8
0
 10
14.242013
 20
12.592238
 30
0.0
 11
14.626
 21
12.592238
 31
0.0
  0
ENDSEC
  0
EOF
