  0
SECTION
  2
HEADER
  9
$ACADVER
  1
AC1009
  9
$DWGCODEPAGE
  3
ANSI_1252
  9
$INSBASE
 10
0.0
 20
0.0
 30
0.0
  9
$EXTMIN
 10
1e+20
 20
1e+20
 30
1e+20
  9
$EXTMAX
 10
-1e+20
 20
-1e+20
 30
-1e+20
  9
$LIMMIN
 10
0.0
 20
0.0
  9
$LIMMAX
 10
420.0
 20
297.0
  9
$ORTHOMODE
 70
0
  9
$REGENMODE
 70
1
  9
$FILLMODE
 70
1
  9
$DRAGMODE
 70
2
  9
$QTEXTMODE
 70
0
  9
$MIRRTEXT
 70
1
  9
$OSMODE
 70
20583
  9
$LTSCALE
 40
1.0
  9
$ATTMODE
 70
1
  9
$TEXTSIZE
 40
2.5
  9
$TRACEWID
 40
1.0
  9
$TEXTSTYLE
  7
Standard
  9
$CLAYER
  8
0
  9
$CELTYPE
  6
ByLayer
  9
$CECOLOR
 62
256
  9
$DIMSCALE
 40
1.0
  9
$DIMASZ
 40
2.5
  9
$DIMEXO
 40
0.625
  9
$DIMDLI
 40
3.75
  9
$DIMRND
 40
0.0
  9
$DIMDLE
 40
0.0
  9
$DIMEXE
 40
1.25
  9
$DIMTP
 40
0.0
  9
$DIMTM
 40
0.0
  9
$DIMTXT
 40
2.5
  9
$DIMCEN
 40
2.5
  9
$DIMTSZ
 40
0.0
  9
$DIMTOL
 70
0
  9
$DIMLIM
 70
0
  9
$DIMTIH
 70
0
  9
$DIMTOH
 70
0
  9
$DIMSE1
 70
0
  9
$DIMSE2
 70
0
  9
$DIMTAD
 70
1
  9
$DIMZIN
 70
8
  9
$DIMBLK
  1

  9
$DIMASO
 70
1
  9
$DIMSHO
 70
1
  9
$DIMPOST
  1

  9
$DIMAPOST
  1

  9
$DIMALT
 70
0
  9
$DIMALTD
 70
3
  9
$DIMALTF
 40
0.03937007874
  9
$DIMLFAC
 40
1.0
  9
$DIMTOFL
 70
1
  9
$DIMTVP
 40
0.0
  9
$DIMTIX
 70
0
  9
$DIMSOXD
 70
0
  9
$DIMSAH
 70
0
  9
$DIMBLK1
  1

  9
$DIMBLK2
  1

  9
$DIMSTYLE
  2
ISO-25
  9
$DIMCLRD
 70
0
  9
$DIMCLRE
 70
0
  9
$DIMCLRT
 70
0
  9
$DIMTFAC
 40
1.0
  9
$DIMGAP
 40
0.625
  9
$COORDS
 70
1
  9
$ATTDIA
 70
0
  9
$ATTREQ
 70
1
  9
$HANDLING
 70
1
  9
$LUNITS
 70
2
  9
$LUPREC
 70
4
  9
$SKETCHINC
 40
1.0
  9
$FILLETRAD
 40
10.0
  9
$AUNITS
 70
0
  9
$AUPREC
 70
2
  9
$MENU
  1
.
  9
$ELEVATION
 40
0.0
  9
$PELEVATION
 40
0.0
  9
$THICKNESS
 40
0.0
  9
$LIMCHECK
 70
0
  9
$CHAMFERA
 40
0.0
  9
$CHAMFERB
 40
0.0
  9
$SKPOLY
 70
0
  9
$TDCREATE
 40
2460887.626898148
  9
$TDUPDATE
 40
2460887.626898148
  9
$TDINDWG
 40
0.0
  9
$TDUSRTIMER
 40
0.0
  9
$USRTIMER
 70
1
  9
$ANGBASE
 50
0.0
  9
$ANGDIR
 70
0
  9
$PDMODE
 70
0
  9
$PDSIZE
 40
0.0
  9
$PLINEWID
 40
0.0
  9
$SPLFRAME
 70
0
  9
$SPLINETYPE
 70
6
  9
$SPLINESEGS
 70
8
  9
$HANDSEED
  5
102
  9
$SURFTAB1
 70
6
  9
$SURFTAB2
 70
6
  9
$SURFTYPE
 70
6
  9
$SURFU
 70
6
  9
$SURFV
 70
6
  9
$UCSNAME
  2

  9
$UCSORG
 10
0.0
 20
0.0
 30
0.0
  9
$UCSXDIR
 10
1.0
 20
0.0
 30
0.0
  9
$UCSYDIR
 10
0.0
 20
1.0
 30
0.0
  9
$PUCSNAME
  2

  9
$PUCSORG
 10
0.0
 20
0.0
 30
0.0
  9
$PUCSXDIR
 10
1.0
 20
0.0
 30
0.0
  9
$PUCSYDIR
 10
0.0
 20
1.0
 30
0.0
  9
$USERI1
 70
0
  9
$USERI2
 70
0
  9
$USERI3
 70
0
  9
$USERI4
 70
0
  9
$USERI5
 70
0
  9
$USERR1
 40
0.0
  9
$USERR2
 40
0.0
  9
$USERR3
 40
0.0
  9
$USERR4
 40
0.0
  9
$USERR5
 40
0.0
  9
$WORLDVIEW
 70
1
  9
$SHADEDGE
 70
3
  9
$SHADEDIF
 70
70
  9
$TILEMODE
 70
1
  9
$MAXACTVP
 70
64
  9
$PLIMCHECK
 70
0
  9
$PEXTMIN
 10
1e+20
 20
1e+20
 30
1e+20
  9
$PEXTMAX
 10
-1e+20
 20
-1e+20
 30
-1e+20
  9
$PLIMMIN
 10
0.0
 20
0.0
  9
$PLIMMAX
 10
420.0
 20
297.0
  9
$UNITMODE
 70
0
  9
$VISRETAIN
 70
1
  9
$PLINEGEN
 70
0
  9
$PSLTSCALE
 70
1
  0
ENDSEC
  0
SECTION
  2
TABLES
  0
TABLE
  2
VPORT
 70
1
  0
VPORT
  5
23
  2
*Active
 70
0
 10
0.0
 20
0.0
 11
1.0
 21
1.0
 12
0.0
 22
0.0
 13
0.0
 23
0.0
 14
0.5
 24
0.5
 15
0.5
 25
0.5
 16
0.0
 26
0.0
 36
1.0
 17
0.0
 27
0.0
 37
0.0
 40
1000.0
 41
1.34
 42
50.0
 43
0.0
 44
0.0
 50
0.0
 51
0.0
 71
0
 72
1000
 73
1
 74
3
 75
0
 76
0
 77
0
 78
0
  0
ENDTAB
  0
TABLE
  2
LTYPE
 70
3
  0
LTYPE
  5
24
  2
ByBlock
 70
0
  3

 72
65
 73
0
 40
0.0
  0
LTYPE
  5
25
  2
ByLayer
 70
0
  3

 72
65
 73
0
 40
0.0
  0
LTYPE
  5
26
  2
Continuous
 70
0
  3

 72
65
 73
0
 40
0.0
  0
ENDTAB
  0
TABLE
  2
LAYER
 70
2
  0
LAYER
  5
27
  2
0
 70
0
 62
7
  6
Continuous
  0
LAYER
  5
28
  2
Defpoints
 70
0
 62
7
  6
Continuous
  0
ENDTAB
  0
TABLE
  2
STYLE
 70
1
  0
STYLE
  5
29
  2
Standard
 70
0
 40
0.0
 41
1.0
 50
0.0
 71
0
 42
2.5
  3
txt
  4

  0
ENDTAB
  0
TABLE
  2
VIEW
 70
0
  0
ENDTAB
  0
TABLE
  2
UCS
 70
0
  0
ENDTAB
  0
TABLE
  2
APPID
 70
3
  0
APPID
  5
2A
  2
ACAD
 70
0
  0
APPID
  5
100
  2
HATCHBACKGROUNDCOLOR
 70
0
  0
APPID
  5
101
  2
EZDXF
 70
0
  0
ENDTAB
  0
TABLE
  2
DIMSTYLE
 70
1
  0
DIMSTYLE
105
2B
  2
Standard
 70
0
  3

  4

  5

  6

  7

 40
1.0
 41
2.5
 42
0.625
 43
3.75
 44
1.25
 45
0.0
 46
0.0
 47
0.0
 48
0.0
140
2.5
141
2.5
142
0.0
143
0.03937007874
144
1.0
145
0.0
146
1.0
147
0.625
 71
0
 72
0
 73
0
 74
0
 75
0
 76
0
 77
1
 78
8
170
0
171
3
172
1
173
0
174
0
175
0
176
0
177
0
178
0
  0
ENDTAB
  0
ENDSEC
  0
SECTION
  2
BLOCKS
  0
BLOCK
  5
18
  8
0
  2
$Model_Space
 70
0
 10
0.0
 20
0.0
 30
0.0
  3
$Model_Space
  1

1001
EZDXF
1000
CREATED_BY_EZDXF
1000
1.4.2 @ 2025-07-30T18:02:44.361919+00:00
1000
WRITTEN_BY_EZDXF
1000
1.4.2 @ 2025-07-30T18:02:44.387406+00:00
  0
ENDBLK
  5
19
  8
0
  0
BLOCK
  5
1C
  8
0
  2
$Paper_Space
 70
0
 10
0.0
 20
0.0
 30
0.0
  3
$Paper_Space
  1

  0
ENDBLK
  5
1D
  8
0
  0
ENDSEC
  0
SECTION
  2
ENTITIES
  0
LINE
  5
2D
  8
0
 10
2.41147
 20
0.431222
 30
0.0
 11
2.412281
 21
0.431248
 31
0.0
  0
LINE
  5
2E
  8
0
 10
2.41147
 20
0.431222
 30
0.0
 11
2.412281
 21
0.431248
 31
0.0
  0
LINE
  5
2F
  8
0
 10
2.41147
 20
0.431222
 30
0.0
 11
2.210989
 21
0.440743
 31
0.0
  0
LINE
  5
30
  8
0
 10
2.210989
 20
0.440743
 30
0.0
 11
1.1338
 21
0.636379
 31
0.0
  0
LINE
  5
31
  8
0
 10
0.726407
 20
0.977931
 30
0.0
 11
0.522964
 21
1.559386
 31
0.0
  0
LINE
  5
32
  8
0
 10
0.461407
 20
2.05058
 30
0.0
 11
0.469722
 21
3.353914
 31
0.0
  0
LINE
  5
33
  8
0
 10
0.4822
 20
3.848957
 30
0.0
 11
0.515078
 21
5.153344
 31
0.0
  0
LINE
  5
34
  8
0
 10
0.527555
 20
5.648334
 30
0.0
 11
0.560435
 21
6.952813
 31
0.0
  0
LINE
  5
35
  8
0
 10
0.572908
 20
7.447688
 30
0.0
 11
0.555284
 21
8.751307
 31
0.0
  0
LINE
  5
36
  8
0
 10
0.540103
 20
9.247085
 30
0.0
 11
0.500186
 21
10.550726
 31
0.0
  0
LINE
  5
37
  8
0
 10
0.485019
 20
11.046068
 30
0.0
 11
0.445097
 21
12.34987
 31
0.0
  0
LINE
  5
38
  8
0
 10
0.441472
 20
12.84513
 30
0.0
 11
0.66684
 21
14.11984
 31
0.0
  0
LINE
  5
39
  8
0
 10
0.995575
 20
14.482882
 30
0.0
 11
2.255307
 21
14.753294
 31
0.0
  0
LINE
  5
3A
  8
0
 10
2.750487
 20
14.736077
 30
0.0
 11
4.054318
 21
14.690744
 31
0.0
  0
LINE
  5
3B
  8
0
 10
4.549313
 20
14.673534
 30
0.0
 11
5.853444
 21
14.62819
 31
0.0
  0
LINE
  5
3C
  8
0
 10
6.34859
 20
14.625691
 30
0.0
 11
7.65327
 21
14.627575
 31
0.0
  0
LINE
  5
3D
  8
0
 10
8.148519
 20
14.628291
 30
0.0
 11
9.452844
 21
14.630175
 31
0.0
  0
LINE
  5
3E
  8
0
 10
9.948581
 20
14.630891
 30
0.0
 11
11.252993
 21
14.632775
 31
0.0
  0
LINE
  5
3F
  8
0
 10
11.748319
 20
14.633491
 30
0.0
 11
13.053387
 21
14.635376
 31
0.0
  0
LINE
  5
40
  8
0
 10
13.548425
 20
14.636091
 30
0.0
 11
14.521923
 21
14.637497
 31
0.0
  0
LINE
  5
41
  8
0
 10
14.521923
 20
14.637497
 30
0.0
 11
14.626218
 21
14.410762
 31
0.0
  0
LINE
  5
42
  8
0
 10
14.626218
 20
14.410762
 30
0.0
 11
13.548425
 21
14.636091
 31
0.0
  0
LINE
  5
43
  8
0
 10
14.626213
 20
13.915197
 30
0.0
 11
14.626198
 21
12.610665
 31
0.0
  0
LINE
  5
44
  8
0
 10
14.626193
 20
12.115184
 30
0.0
 11
14.626178
 21
10.810769
 31
0.0
  0
LINE
  5
45
  8
0
 10
14.626173
 20
10.315404
 30
0.0
 11
14.626158
 21
9.010656
 31
0.0
  0
LINE
  5
46
  8
0
 10
14.626153
 20
8.515255
 30
0.0
 11
14.626138
 21
7.210428
 31
0.0
  0
LINE
  5
47
  8
0
 10
14.626133
 20
6.715267
 30
0.0
 11
14.63997
 21
5.411441
 31
0.0
  0
LINE
  5
48
  8
0
 10
14.657465
 20
4.915058
 30
0.0
 11
14.703374
 21
3.612433
 31
0.0
  0
LINE
  5
49
  8
0
 10
14.720831
 20
3.117111
 30
0.0
 11
14.693075
 21
1.816951
 31
0.0
  0
LINE
  5
4A
  8
0
 10
14.630161
 20
1.325324
 30
0.0
 11
14.29982
 21
0.7879
 31
0.0
  0
LINE
  5
4B
  8
0
 10
14.29982
 20
0.7879
 30
0.0
 11
13.697415
 21
0.536878
 31
0.0
  0
LINE
  5
4C
  8
0
 10
13.697415
 20
0.536878
 30
0.0
 11
14.630161
 21
1.325324
 31
0.0
  0
LINE
  5
4D
  8
0
 10
13.2066
 20
0.470269
 30
0.0
 11
12.911059
 21
0.448344
 31
0.0
  0
LINE
  5
4E
  8
0
 10
12.911059
 20
0.448344
 30
0.0
 11
12.897874
 21
0.447383
 31
0.0
  0
LINE
  5
4F
  8
0
 10
12.897874
 20
0.447383
 30
0.0
 11
11.903546
 21
0.471227
 31
0.0
  0
LINE
  5
50
  8
0
 10
11.408726
 20
0.483093
 30
0.0
 11
10.10438
 21
0.514371
 31
0.0
  0
LINE
  5
51
  8
0
 10
9.609171
 20
0.526246
 30
0.0
 11
8.304555
 21
0.55753
 31
0.0
  0
LINE
  5
52
  8
0
 10
7.809688
 20
0.569397
 30
0.0
 11
6.50611
 21
0.56081
 31
0.0
  0
LINE
  5
53
  8
0
 10
6.010392
 20
0.545122
 30
0.0
 11
4.706775
 21
0.503865
 31
0.0
  0
LINE
  5
54
  8
0
 10
4.211259
 20
0.488182
 30
0.0
 11
2.907701
 21
0.446927
 31
0.0
  0
LINE
  5
55
  8
0
 10
2.592849
 20
0.7324
 30
0.0
 11
2.592849
 21
1.744
 31
0.0
  0
LINE
  5
56
  8
0
 10
2.592849
 20
0.7324
 30
0.0
 11
2.592849
 21
1.744
 31
0.0
  0
LINE
  5
57
  8
0
 10
2.592849
 20
2.239
 30
0.0
 11
2.592849
 21
3.363905
 31
0.0
  0
LINE
  5
58
  8
0
 10
2.592849
 20
3.363905
 30
0.0
 11
2.592849
 21
3.543884
 31
0.0
  0
LINE
  5
59
  8
0
 10
2.592849
 20
4.038892
 30
0.0
 11
2.592849
 21
4.999686
 31
0.0
  0
LINE
  5
5A
  8
0
 10
2.592849
 20
4.999686
 30
0.0
 11
2.592849
 21
5.344
 31
0.0
  0
LINE
  5
5B
  8
0
 10
2.592849
 20
5.839043
 30
0.0
 11
2.592849
 21
6.697413
 31
0.0
  0
LINE
  5
5C
  8
0
 10
2.592849
 20
6.697413
 30
0.0
 11
2.592849
 21
7.144
 31
0.0
  0
LINE
  5
5D
  8
0
 10
2.592849
 20
7.639023
 30
0.0
 11
2.592849
 21
8.436037
 31
0.0
  0
LINE
  5
5E
  8
0
 10
2.592849
 20
8.436037
 30
0.0
 11
2.592849
 21
8.944
 31
0.0
  0
LINE
  5
5F
  8
0
 10
2.592849
 20
9.439
 30
0.0
 11
2.592849
 21
10.52
 31
0.0
  0
LINE
  5
60
  8
0
 10
2.592849
 20
10.52
 30
0.0
 11
2.592849
 21
10.744
 31
0.0
  0
LINE
  5
61
  8
0
 10
2.592849
 20
11.238689
 30
0.0
 11
2.592849
 21
11.803871
 31
0.0
  0
LINE
  5
62
  8
0
 10
2.592849
 20
11.803871
 30
0.0
 11
2.592849
 21
12.544
 31
0.0
  0
LINE
  5
63
  8
0
 10
2.592849
 20
13.039
 30
0.0
 11
2.592849
 21
14.12
 31
0.0
  0
LINE
  5
64
  8
0
 10
2.592849
 20
14.12
 30
0.0
 11
2.592849
 21
14.344
 31
0.0
  0
LINE
  5
65
  8
0
 10
5.092849
 20
0.76492
 30
0.0
 11
5.092849
 21
1.657
 31
0.0
  0
LINE
  5
66
  8
0
 10
5.092849
 20
0.76492
 30
0.0
 11
5.092849
 21
1.657
 31
0.0
  0
LINE
  5
67
  8
0
 10
5.092849
 20
2.153
 30
0.0
 11
5.092849
 21
2.377
 31
0.0
  0
LINE
  5
68
  8
0
 10
5.092849
 20
2.377
 30
0.0
 11
5.092849
 21
3.457
 31
0.0
  0
LINE
  5
69
  8
0
 10
5.092849
 20
3.953
 30
0.0
 11
5.092849
 21
4.0174
 31
0.0
  0
LINE
  5
6A
  8
0
 10
5.092849
 20
4.0174
 30
0.0
 11
5.092849
 21
5.0974
 31
0.0
  0
LINE
  5
6B
  8
0
 10
5.092849
 20
5.0974
 30
0.0
 11
5.092849
 21
5.257
 31
0.0
  0
LINE
  5
6C
  8
0
 10
5.092849
 20
5.752827
 30
0.0
 11
5.092849
 21
6.733789
 31
0.0
  0
LINE
  5
6D
  8
0
 10
5.092849
 20
6.733789
 30
0.0
 11
5.092849
 21
7.057
 31
0.0
  0
LINE
  5
6E
  8
0
 10
5.092849
 20
7.55295
 30
0.0
 11
5.092849
 21
8.211074
 31
0.0
  0
LINE
  5
6F
  8
0
 10
5.092849
 20
8.211074
 30
0.0
 11
5.092849
 21
8.473098
 31
0.0
  0
LINE
  5
70
  8
0
 10
5.092849
 20
8.473098
 30
0.0
 11
5.092849
 21
8.856962
 31
0.0
  0
LINE
  5
71
  8
0
 10
5.092849
 20
9.353
 30
0.0
 11
5.092849
 21
9.577
 31
0.0
  0
LINE
  5
72
  8
0
 10
5.092849
 20
9.577
 30
0.0
 11
5.092849
 21
10.657
 31
0.0
  0
LINE
  5
73
  8
0
 10
5.092849
 20
11.15251
 30
0.0
 11
5.092849
 21
11.833986
 31
0.0
  0
LINE
  5
74
  8
0
 10
5.092849
 20
11.833986
 30
0.0
 11
5.092849
 21
12.457
 31
0.0
  0
LINE
  5
75
  8
0
 10
5.092849
 20
12.953
 30
0.0
 11
5.092849
 21
13.177
 31
0.0
  0
LINE
  5
76
  8
0
 10
5.092849
 20
13.177
 30
0.0
 11
5.092849
 21
14.257
 31
0.0
  0
LINE
  5
77
  8
0
 10
7.592849
 20
0.79956
 30
0.0
 11
7.592849
 21
1.62972
 31
0.0
  0
LINE
  5
78
  8
0
 10
7.592849
 20
0.79956
 30
0.0
 11
7.592849
 21
1.62972
 31
0.0
  0
LINE
  5
79
  8
0
 10
7.592849
 20
2.125
 30
0.0
 11
7.592849
 21
2.34928
 31
0.0
  0
LINE
  5
7A
  8
0
 10
7.592849
 20
2.34928
 30
0.0
 11
7.592849
 21
3.43
 31
0.0
  0
LINE
  5
7B
  8
0
 10
7.592849
 20
3.925
 30
0.0
 11
7.592849
 21
5.00572
 31
0.0
  0
LINE
  5
7C
  8
0
 10
7.592849
 20
5.00572
 30
0.0
 11
7.592849
 21
5.23
 31
0.0
  0
LINE
  5
7D
  8
0
 10
7.592849
 20
5.724714
 30
0.0
 11
7.592849
 21
6.71947
 31
0.0
  0
LINE
  5
7E
  8
0
 10
7.592849
 20
6.71947
 30
0.0
 11
7.592849
 21
7.03
 31
0.0
  0
LINE
  5
7F
  8
0
 10
7.592849
 20
7.525
 30
0.0
 11
7.592849
 21
7.74928
 31
0.0
  0
LINE
  5
80
  8
0
 10
7.592849
 20
7.74928
 30
0.0
 11
7.592849
 21
8.83
 31
0.0
  0
LINE
  5
81
  8
0
 10
7.592849
 20
9.325
 30
0.0
 11
7.592849
 21
10.40572
 31
0.0
  0
LINE
  5
82
  8
0
 10
7.592849
 20
10.40572
 30
0.0
 11
7.592849
 21
10.63
 31
0.0
  0
LINE
  5
83
  8
0
 10
7.592849
 20
11.125
 30
0.0
 11
7.592849
 21
11.34928
 31
0.0
  0
LINE
  5
84
  8
0
 10
7.592849
 20
11.34928
 30
0.0
 11
7.592849
 21
12.43
 31
0.0
  0
LINE
  5
85
  8
0
 10
7.592849
 20
12.925
 30
0.0
 11
7.592849
 21
13.14928
 31
0.0
  0
LINE
  5
86
  8
0
 10
7.592849
 20
13.14928
 30
0.0
 11
7.592849
 21
14.23
 31
0.0
  0
LINE
  5
87
  8
0
 10
10.092849
 20
0.75748
 30
0.0
 11
10.092849
 21
1.633
 31
0.0
  0
LINE
  5
88
  8
0
 10
10.092849
 20
0.75748
 30
0.0
 11
10.092849
 21
1.633
 31
0.0
  0
LINE
  5
89
  8
0
 10
10.092849
 20
2.129
 30
0.0
 11
10.092849
 21
2.353
 31
0.0
  0
LINE
  5
8A
  8
0
 10
10.092849
 20
2.353
 30
0.0
 11
10.092849
 21
3.433
 31
0.0
  0
LINE
  5
8B
  8
0
 10
10.092849
 20
3.929052
 30
0.0
 11
10.092849
 21
4.911173
 31
0.0
  0
LINE
  5
8C
  8
0
 10
10.092849
 20
4.911173
 30
0.0
 11
10.092849
 21
5.233
 31
0.0
  0
LINE
  5
8D
  8
0
 10
10.092849
 20
5.729
 30
0.0
 11
10.092849
 21
5.953
 31
0.0
  0
LINE
  5
8E
  8
0
 10
10.092849
 20
5.953
 30
0.0
 11
10.092849
 21
7.033
 31
0.0
  0
LINE
  5
8F
  8
0
 10
10.092849
 20
7.528949
 30
0.0
 11
10.092849
 21
7.544852
 31
0.0
  0
LINE
  5
90
  8
0
 10
10.092849
 20
7.544852
 30
0.0
 11
10.092849
 21
8.833
 31
0.0
  0
LINE
  5
91
  8
0
 10
10.092849
 20
9.329
 30
0.0
 11
10.092849
 21
10.409
 31
0.0
  0
LINE
  5
92
  8
0
 10
10.092849
 20
10.409
 30
0.0
 11
10.092849
 21
10.633
 31
0.0
  0
LINE
  5
93
  8
0
 10
10.092849
 20
11.129
 30
0.0
 11
10.092849
 21
11.353
 31
0.0
  0
LINE
  5
94
  8
0
 10
10.092849
 20
11.353
 30
0.0
 11
10.092849
 21
12.433
 31
0.0
  0
LINE
  5
95
  8
0
 10
10.092849
 20
12.929
 30
0.0
 11
10.092849
 21
14.009
 31
0.0
  0
LINE
  5
96
  8
0
 10
10.092849
 20
14.009
 30
0.0
 11
10.092849
 21
14.233
 31
0.0
  0
LINE
  5
97
  8
0
 10
12.592849
 20
0.7154
 30
0.0
 11
12.592849
 21
1.636962
 31
0.0
  0
LINE
  5
98
  8
0
 10
12.592849
 20
0.7154
 30
0.0
 11
12.592849
 21
1.636962
 31
0.0
  0
LINE
  5
99
  8
0
 10
12.592849
 20
2.133
 30
0.0
 11
12.592849
 21
2.357
 31
0.0
  0
LINE
  5
9A
  8
0
 10
12.592849
 20
2.357
 30
0.0
 11
12.592849
 21
3.437
 31
0.0
  0
LINE
  5
9B
  8
0
 10
12.592849
 20
3.932886
 30
0.0
 11
12.592849
 21
4.749959
 31
0.0
  0
LINE
  5
9C
  8
0
 10
12.592849
 20
4.749959
 30
0.0
 11
12.592849
 21
5.083
 31
0.0
  0
LINE
  5
9D
  8
0
 10
12.592849
 20
5.083
 30
0.0
 11
12.592849
 21
5.237
 31
0.0
  0
LINE
  5
9E
  8
0
 10
12.592849
 20
5.732745
 30
0.0
 11
12.592849
 21
6.723155
 31
0.0
  0
LINE
  5
9F
  8
0
 10
12.592849
 20
6.723155
 30
0.0
 11
12.592849
 21
7.037
 31
0.0
  0
LINE
  5
A0
  8
0
 10
12.592849
 20
7.532811
 30
0.0
 11
12.592849
 21
8.526315
 31
0.0
  0
LINE
  5
A1
  8
0
 10
12.592849
 20
8.526315
 30
0.0
 11
12.592849
 21
8.837
 31
0.0
  0
LINE
  5
A2
  8
0
 10
12.592849
 20
9.333
 30
0.0
 11
12.592849
 21
10.413
 31
0.0
  0
LINE
  5
A3
  8
0
 10
12.592849
 20
10.413
 30
0.0
 11
12.592849
 21
10.637
 31
0.0
  0
LINE
  5
A4
  8
0
 10
12.592849
 20
11.133
 30
0.0
 11
12.592849
 21
11.357
 31
0.0
  0
LINE
  5
A5
  8
0
 10
12.592849
 20
11.357
 30
0.0
 11
12.592849
 21
12.437
 31
0.0
  0
LINE
  5
A6
  8
0
 10
12.592849
 20
12.933
 30
0.0
 11
12.592849
 21
13.157
 31
0.0
  0
LINE
  5
A7
  8
0
 10
12.592849
 20
13.157
 30
0.0
 11
12.592849
 21
14.237
 31
0.0
  0
LINE
  5
A8
  8
0
 10
0.848
 20
2.592238
 30
0.0
 11
1.929
 21
2.592238
 31
0.0
  0
LINE
  5
A9
  8
0
 10
0.848
 20
2.592238
 30
0.0
 11
1.929
 21
2.592238
 31
0.0
  0
LINE
  5
AA
  8
0
 10
1.929
 20
2.592238
 30
0.0
 11
2.153
 21
2.592238
 31
0.0
  0
LINE
  5
AB
  8
0
 10
2.648
 20
2.592238
 30
0.0
 11
3.729
 21
2.592238
 31
0.0
  0
LINE
  5
AC
  8
0
 10
3.729
 20
2.592238
 30
0.0
 11
3.953
 21
2.592238
 31
0.0
  0
LINE
  5
AD
  8
0
 10
4.448
 20
2.592238
 30
0.0
 11
5.529
 21
2.592238
 31
0.0
  0
LINE
  5
AE
  8
0
 10
5.529
 20
2.592238
 30
0.0
 11
5.753
 21
2.592238
 31
0.0
  0
LINE
  5
AF
  8
0
 10
6.247709
 20
2.592238
 30
0.0
 11
6.800255
 21
2.592238
 31
0.0
  0
LINE
  5
B0
  8
0
 10
6.800255
 20
2.592238
 30
0.0
 11
7.553
 21
2.592238
 31
0.0
  0
LINE
  5
B1
  8
0
 10
8.048
 20
2.592238
 30
0.0
 11
9.129
 21
2.592238
 31
0.0
  0
LINE
  5
B2
  8
0
 10
9.129
 20
2.592238
 30
0.0
 11
9.353
 21
2.592238
 31
0.0
  0
LINE
  5
B3
  8
0
 10
9.848
 20
2.592238
 30
0.0
 11
10.929
 21
2.592238
 31
0.0
  0
LINE
  5
B4
  8
0
 10
10.929
 20
2.592238
 30
0.0
 11
11.153
 21
2.592238
 31
0.0
  0
LINE
  5
B5
  8
0
 10
11.64779
 20
2.592238
 30
0.0
 11
12.703669
 21
2.592238
 31
0.0
  0
LINE
  5
B6
  8
0
 10
12.703669
 20
2.592238
 30
0.0
 11
12.953
 21
2.592238
 31
0.0
  0
LINE
  5
B7
  8
0
 10
13.447958
 20
2.592238
 30
0.0
 11
14.252994
 21
2.592238
 31
0.0
  0
LINE
  5
B8
  8
0
 10
14.252994
 20
2.592238
 30
0.0
 11
14.44836
 21
2.592238
 31
0.0
  0
LINE
  5
B9
  8
0
 10
0.910778
 20
5.092238
 30
0.0
 11
1.804578
 21
5.092238
 31
0.0
  0
LINE
  5
BA
  8
0
 10
0.910778
 20
5.092238
 30
0.0
 11
1.804578
 21
5.092238
 31
0.0
  0
LINE
  5
BB
  8
0
 10
1.804578
 20
5.092238
 30
0.0
 11
2.216
 21
5.092238
 31
0.0
  0
LINE
  5
BC
  8
0
 10
2.710353
 20
5.092238
 30
0.0
 11
2.74988
 21
5.092238
 31
0.0
  0
LINE
  5
BD
  8
0
 10
2.74988
 20
5.092238
 30
0.0
 11
3.87208
 21
5.092238
 31
0.0
  0
LINE
  5
BE
  8
0
 10
3.87208
 20
5.092238
 30
0.0
 11
4.016
 21
5.092238
 31
0.0
  0
LINE
  5
BF
  8
0
 10
4.511
 20
5.092238
 30
0.0
 11
4.73528
 21
5.092238
 31
0.0
  0
LINE
  5
C0
  8
0
 10
4.73528
 20
5.092238
 30
0.0
 11
5.816
 21
5.092238
 31
0.0
  0
LINE
  5
C1
  8
0
 10
6.310934
 20
5.092238
 30
0.0
 11
6.825362
 21
5.092238
 31
0.0
  0
LINE
  5
C2
  8
0
 10
6.825362
 20
5.092238
 30
0.0
 11
7.616
 21
5.092238
 31
0.0
  0
LINE
  5
C3
  8
0
 10
8.110916
 20
5.092238
 30
0.0
 11
9.152601
 21
5.092238
 31
0.0
  0
LINE
  5
C4
  8
0
 10
9.152601
 20
5.092238
 30
0.0
 11
9.416
 21
5.092238
 31
0.0
  0
LINE
  5
C5
  8
0
 10
9.911
 20
5.092238
 30
0.0
 11
10.13528
 21
5.092238
 31
0.0
  0
LINE
  5
C6
  8
0
 10
10.13528
 20
5.092238
 30
0.0
 11
11.216
 21
5.092238
 31
0.0
  0
LINE
  5
C7
  8
0
 10
11.711
 20
5.092238
 30
0.0
 11
12.79172
 21
5.092238
 31
0.0
  0
LINE
  5
C8
  8
0
 10
12.79172
 20
5.092238
 30
0.0
 11
13.016
 21
5.092238
 31
0.0
  0
LINE
  5
C9
  8
0
 10
13.511
 20
5.092238
 30
0.0
 11
14.40264
 21
5.092238
 31
0.0
  0
LINE
  5
CA
  8
0
 10
0.973805
 20
7.592238
 30
0.0
 11
1.824368
 21
7.592238
 31
0.0
  0
LINE
  5
CB
  8
0
 10
0.973805
 20
7.592238
 30
0.0
 11
1.824368
 21
7.592238
 31
0.0
  0
LINE
  5
CC
  8
0
 10
1.824368
 20
7.592238
 30
0.0
 11
2.279
 21
7.592238
 31
0.0
  0
LINE
  5
CD
  8
0
 10
2.773755
 20
7.592238
 30
0.0
 11
2.814898
 21
7.592238
 31
0.0
  0
LINE
  5
CE
  8
0
 10
2.814898
 20
7.592238
 30
0.0
 11
3.91744
 21
7.592238
 31
0.0
  0
LINE
  5
CF
  8
0
 10
3.91744
 20
7.592238
 30
0.0
 11
4.079
 21
7.592238
 31
0.0
  0
LINE
  5
D0
  8
0
 10
4.574
 20
7.592238
 30
0.0
 11
5.655
 21
7.592238
 31
0.0
  0
LINE
  5
D1
  8
0
 10
5.655
 20
7.592238
 30
0.0
 11
5.879
 21
7.592238
 31
0.0
  0
LINE
  5
D2
  8
0
 10
6.373973
 20
7.592238
 30
0.0
 11
7.071379
 21
7.592238
 31
0.0
  0
LINE
  5
D3
  8
0
 10
7.071379
 20
7.592238
 30
0.0
 11
7.679
 21
7.592238
 31
0.0
  0
LINE
  5
D4
  8
0
 10
8.174089
 20
7.592238
 30
0.0
 11
9.191315
 21
7.592238
 31
0.0
  0
LINE
  5
D5
  8
0
 10
9.191315
 20
7.592238
 30
0.0
 11
9.479
 21
7.592238
 31
0.0
  0
LINE
  5
D6
  8
0
 10
9.974
 20
7.592238
 30
0.0
 11
11.055
 21
7.592238
 31
0.0
  0
LINE
  5
D7
  8
0
 10
11.055
 20
7.592238
 30
0.0
 11
11.279
 21
7.592238
 31
0.0
  0
LINE
  5
D8
  8
0
 10
11.774
 20
7.592238
 30
0.0
 11
12.855
 21
7.592238
 31
0.0
  0
LINE
  5
D9
  8
0
 10
12.855
 20
7.592238
 30
0.0
 11
13.079
 21
7.592238
 31
0.0
  0
LINE
  5
DA
  8
0
 10
13.573683
 20
7.592238
 30
0.0
 11
14.160965
 21
7.592238
 31
0.0
  0
LINE
  5
DB
  8
0
 10
14.160965
 20
7.592238
 30
0.0
 11
14.40228
 21
7.592238
 31
0.0
  0
LINE
  5
DC
  8
0
 10
0.911778
 20
10.092238
 30
0.0
 11
1.804983
 21
10.092238
 31
0.0
  0
LINE
  5
DD
  8
0
 10
0.911778
 20
10.092238
 30
0.0
 11
1.804983
 21
10.092238
 31
0.0
  0
LINE
  5
DE
  8
0
 10
1.804983
 20
10.092238
 30
0.0
 11
2.216
 21
10.092238
 31
0.0
  0
LINE
  5
DF
  8
0
 10
2.711656
 20
10.092238
 30
0.0
 11
2.75134
 21
10.092238
 31
0.0
  0
LINE
  5
E0
  8
0
 10
2.75134
 20
10.092238
 30
0.0
 11
3.87208
 21
10.092238
 31
0.0
  0
LINE
  5
E1
  8
0
 10
3.87208
 20
10.092238
 30
0.0
 11
4.016
 21
10.092238
 31
0.0
  0
LINE
  5
E2
  8
0
 10
4.512
 20
10.092238
 30
0.0
 11
5.592
 21
10.092238
 31
0.0
  0
LINE
  5
E3
  8
0
 10
5.592
 20
10.092238
 30
0.0
 11
5.816
 21
10.092238
 31
0.0
  0
LINE
  5
E4
  8
0
 10
6.311705
 20
10.092238
 30
0.0
 11
6.828098
 21
10.092238
 31
0.0
  0
LINE
  5
E5
  8
0
 10
6.828098
 20
10.092238
 30
0.0
 11
7.616
 21
10.092238
 31
0.0
  0
LINE
  5
E6
  8
0
 10
8.11197
 20
10.092238
 30
0.0
 11
8.704842
 21
10.092238
 31
0.0
  0
LINE
  5
E7
  8
0
 10
8.704842
 20
10.092238
 30
0.0
 11
9.416
 21
10.092238
 31
0.0
  0
LINE
  5
E8
  8
0
 10
9.912
 20
10.092238
 30
0.0
 11
10.136
 21
10.092238
 31
0.0
  0
LINE
  5
E9
  8
0
 10
10.136
 20
10.092238
 30
0.0
 11
11.216
 21
10.092238
 31
0.0
  0
LINE
  5
EA
  8
0
 10
11.712
 20
10.092238
 30
0.0
 11
12.792
 21
10.092238
 31
0.0
  0
LINE
  5
EB
  8
0
 10
12.792
 20
10.092238
 30
0.0
 11
13.016
 21
10.092238
 31
0.0
  0
LINE
  5
EC
  8
0
 10
13.511706
 20
10.092238
 30
0.0
 11
14.174738
 21
10.092238
 31
0.0
  0
LINE
  5
ED
  8
0
 10
14.174738
 20
10.092238
 30
0.0
 11
14.38464
 21
10.092238
 31
0.0
  0
LINE
  5
EE
  8
0
 10
0.836
 20
12.592238
 30
0.0
 11
1.916
 21
12.592238
 31
0.0
  0
LINE
  5
EF
  8
0
 10
0.836
 20
12.592238
 30
0.0
 11
1.916
 21
12.592238
 31
0.0
  0
LINE
  5
F0
  8
0
 10
1.916
 20
12.592238
 30
0.0
 11
2.14
 21
12.592238
 31
0.0
  0
LINE
  5
F1
  8
0
 10
2.636
 20
12.592238
 30
0.0
 11
2.86
 21
12.592238
 31
0.0
  0
LINE
  5
F2
  8
0
 10
2.86
 20
12.592238
 30
0.0
 11
3.94
 21
12.592238
 31
0.0
  0
LINE
  5
F3
  8
0
 10
4.436
 20
12.592238
 30
0.0
 11
4.66
 21
12.592238
 31
0.0
  0
LINE
  5
F4
  8
0
 10
4.66
 20
12.592238
 30
0.0
 11
5.74
 21
12.592238
 31
0.0
  0
LINE
  5
F5
  8
0
 10
6.235724
 20
12.592238
 30
0.0
 11
6.806673
 21
12.592238
 31
0.0
  0
LINE
  5
F6
  8
0
 10
6.806673
 20
12.592238
 30
0.0
 11
7.54
 21
12.592238
 31
0.0
  0
LINE
  5
F7
  8
0
 10
8.036
 20
12.592238
 30
0.0
 11
9.116
 21
12.592238
 31
0.0
  0
LINE
  5
F8
  8
0
 10
9.116
 20
12.592238
 30
0.0
 11
9.34
 21
12.592238
 31
0.0
  0
LINE
  5
F9
  8
0
 10
9.836
 20
12.592238
 30
0.0
 11
10.916
 21
12.592238
 31
0.0
  0
LINE
  5
FA
  8
0
 10
10.916
 20
12.592238
 30
0.0
 11
11.14
 21
12.592238
 31
0.0
  0
LINE
  5
FB
  8
0
 10
11.635951
 20
12.592238
 30
0.0
 11
11.651852
 21
12.592238
 31
0.0
  0
LINE
  5
FC
  8
0
 10
11.651852
 20
12.592238
 30
0.0
 11
12.94
 21
12.592238
 31
0.0
  0
LINE
  5
FD
  8
0
 10
13.435896
 20
12.592238
 30
0.0
 11
14.188967
 21
12.592238
 31
0.0
  0
LINE
  5
FE
  8
0
 10
14.188967
 20
12.592238
 30
0.0
 11
14.200514
 21
12.592238
 31
0.0
  0
LINE
  5
FF
  8
0
 10
14.200514
 20
12.592238
 30
0.0
 11
14.36336
 21
12.592238
 31
0.0
  0
ENDSEC
  0
EOF
