  0
SECTION
  2
HEADER
  9
$ACADVER
  1
AC1009
  9
$DWGCODEPAGE
  3
ANSI_1252
  9
$INSBASE
 10
0.0
 20
0.0
 30
0.0
  9
$EXTMIN
 10
1e+20
 20
1e+20
 30
1e+20
  9
$EXTMAX
 10
-1e+20
 20
-1e+20
 30
-1e+20
  9
$LIMMIN
 10
0.0
 20
0.0
  9
$LIMMAX
 10
420.0
 20
297.0
  9
$ORTHOMODE
 70
0
  9
$REGENMODE
 70
1
  9
$FILLMODE
 70
1
  9
$DRAGMODE
 70
2
  9
$QTEXTMODE
 70
0
  9
$MIRRTEXT
 70
1
  9
$OSMODE
 70
20583
  9
$LTSCALE
 40
1.0
  9
$ATTMODE
 70
1
  9
$TEXTSIZE
 40
2.5
  9
$TRACEWID
 40
1.0
  9
$TEXTSTYLE
  7
Standard
  9
$CLAYER
  8
0
  9
$CELTYPE
  6
ByLayer
  9
$CECOLOR
 62
256
  9
$DIMSCALE
 40
1.0
  9
$DIMASZ
 40
2.5
  9
$DIMEXO
 40
0.625
  9
$DIMDLI
 40
3.75
  9
$DIMRND
 40
0.0
  9
$DIMDLE
 40
0.0
  9
$DIMEXE
 40
1.25
  9
$DIMTP
 40
0.0
  9
$DIMTM
 40
0.0
  9
$DIMTXT
 40
2.5
  9
$DIMCEN
 40
2.5
  9
$DIMTSZ
 40
0.0
  9
$DIMTOL
 70
0
  9
$DIMLIM
 70
0
  9
$DIMTIH
 70
0
  9
$DIMTOH
 70
0
  9
$DIMSE1
 70
0
  9
$DIMSE2
 70
0
  9
$DIMTAD
 70
1
  9
$DIMZIN
 70
8
  9
$DIMBLK
  1

  9
$DIMASO
 70
1
  9
$DIMSHO
 70
1
  9
$DIMPOST
  1

  9
$DIMAPOST
  1

  9
$DIMALT
 70
0
  9
$DIMALTD
 70
3
  9
$DIMALTF
 40
0.03937007874
  9
$DIMLFAC
 40
1.0
  9
$DIMTOFL
 70
1
  9
$DIMTVP
 40
0.0
  9
$DIMTIX
 70
0
  9
$DIMSOXD
 70
0
  9
$DIMSAH
 70
0
  9
$DIMBLK1
  1

  9
$DIMBLK2
  1

  9
$DIMSTYLE
  2
ISO-25
  9
$DIMCLRD
 70
0
  9
$DIMCLRE
 70
0
  9
$DIMCLRT
 70
0
  9
$DIMTFAC
 40
1.0
  9
$DIMGAP
 40
0.625
  9
$COORDS
 70
1
  9
$ATTDIA
 70
0
  9
$ATTREQ
 70
1
  9
$HANDLING
 70
1
  9
$LUNITS
 70
2
  9
$LUPREC
 70
4
  9
$SKETCHINC
 40
1.0
  9
$FILLETRAD
 40
10.0
  9
$AUNITS
 70
0
  9
$AUPREC
 70
2
  9
$MENU
  1
.
  9
$ELEVATION
 40
0.0
  9
$PELEVATION
 40
0.0
  9
$THICKNESS
 40
0.0
  9
$LIMCHECK
 70
0
  9
$CHAMFERA
 40
0.0
  9
$CHAMFERB
 40
0.0
  9
$SKPOLY
 70
0
  9
$TDCREATE
 40
2460887.626898148
  9
$TDUPDATE
 40
2460887.626898148
  9
$TDINDWG
 40
0.0
  9
$TDUSRTIMER
 40
0.0
  9
$USRTIMER
 70
1
  9
$ANGBASE
 50
0.0
  9
$ANGDIR
 70
0
  9
$PDMODE
 70
0
  9
$PDSIZE
 40
0.0
  9
$PLINEWID
 40
0.0
  9
$SPLFRAME
 70
0
  9
$SPLINETYPE
 70
6
  9
$SPLINESEGS
 70
8
  9
$HANDSEED
  5
100
  9
$SURFTAB1
 70
6
  9
$SURFTAB2
 70
6
  9
$SURFTYPE
 70
6
  9
$SURFU
 70
6
  9
$SURFV
 70
6
  9
$UCSNAME
  2

  9
$UCSORG
 10
0.0
 20
0.0
 30
0.0
  9
$UCSXDIR
 10
1.0
 20
0.0
 30
0.0
  9
$UCSYDIR
 10
0.0
 20
1.0
 30
0.0
  9
$PUCSNAME
  2

  9
$PUCSORG
 10
0.0
 20
0.0
 30
0.0
  9
$PUCSXDIR
 10
1.0
 20
0.0
 30
0.0
  9
$PUCSYDIR
 10
0.0
 20
1.0
 30
0.0
  9
$USERI1
 70
0
  9
$USERI2
 70
0
  9
$USERI3
 70
0
  9
$USERI4
 70
0
  9
$USERI5
 70
0
  9
$USERR1
 40
0.0
  9
$USERR2
 40
0.0
  9
$USERR3
 40
0.0
  9
$USERR4
 40
0.0
  9
$USERR5
 40
0.0
  9
$WORLDVIEW
 70
1
  9
$SHADEDGE
 70
3
  9
$SHADEDIF
 70
70
  9
$TILEMODE
 70
1
  9
$MAXACTVP
 70
64
  9
$PLIMCHECK
 70
0
  9
$PEXTMIN
 10
1e+20
 20
1e+20
 30
1e+20
  9
$PEXTMAX
 10
-1e+20
 20
-1e+20
 30
-1e+20
  9
$PLIMMIN
 10
0.0
 20
0.0
  9
$PLIMMAX
 10
420.0
 20
297.0
  9
$UNITMODE
 70
0
  9
$VISRETAIN
 70
1
  9
$PLINEGEN
 70
0
  9
$PSLTSCALE
 70
1
  0
ENDSEC
  0
SECTION
  2
TABLES
  0
TABLE
  2
VPORT
 70
1
  0
VPORT
  5
23
  2
*Active
 70
0
 10
0.0
 20
0.0
 11
1.0
 21
1.0
 12
0.0
 22
0.0
 13
0.0
 23
0.0
 14
0.5
 24
0.5
 15
0.5
 25
0.5
 16
0.0
 26
0.0
 36
1.0
 17
0.0
 27
0.0
 37
0.0
 40
1000.0
 41
1.34
 42
50.0
 43
0.0
 44
0.0
 50
0.0
 51
0.0
 71
0
 72
1000
 73
1
 74
3
 75
0
 76
0
 77
0
 78
0
  0
ENDTAB
  0
TABLE
  2
LTYPE
 70
3
  0
LTYPE
  5
24
  2
ByBlock
 70
0
  3

 72
65
 73
0
 40
0.0
  0
LTYPE
  5
25
  2
ByLayer
 70
0
  3

 72
65
 73
0
 40
0.0
  0
LTYPE
  5
26
  2
Continuous
 70
0
  3

 72
65
 73
0
 40
0.0
  0
ENDTAB
  0
TABLE
  2
LAYER
 70
2
  0
LAYER
  5
27
  2
0
 70
0
 62
7
  6
Continuous
  0
LAYER
  5
28
  2
Defpoints
 70
0
 62
7
  6
Continuous
  0
ENDTAB
  0
TABLE
  2
STYLE
 70
1
  0
STYLE
  5
29
  2
Standard
 70
0
 40
0.0
 41
1.0
 50
0.0
 71
0
 42
2.5
  3
txt
  4

  0
ENDTAB
  0
TABLE
  2
VIEW
 70
0
  0
ENDTAB
  0
TABLE
  2
UCS
 70
0
  0
ENDTAB
  0
TABLE
  2
APPID
 70
3
  0
APPID
  5
2A
  2
ACAD
 70
0
  0
APPID
  5
FE
  2
HATCHBACKGROUNDCOLOR
 70
0
  0
APPID
  5
FF
  2
EZDXF
 70
0
  0
ENDTAB
  0
TABLE
  2
DIMSTYLE
 70
1
  0
DIMSTYLE
105
2B
  2
Standard
 70
0
  3

  4

  5

  6

  7

 40
1.0
 41
2.5
 42
0.625
 43
3.75
 44
1.25
 45
0.0
 46
0.0
 47
0.0
 48
0.0
140
2.5
141
2.5
142
0.0
143
0.03937007874
144
1.0
145
0.0
146
1.0
147
0.625
 71
0
 72
0
 73
0
 74
0
 75
0
 76
0
 77
1
 78
8
170
0
171
3
172
1
173
0
174
0
175
0
176
0
177
0
178
0
  0
ENDTAB
  0
ENDSEC
  0
SECTION
  2
BLOCKS
  0
BLOCK
  5
18
  8
0
  2
$Model_Space
 70
0
 10
0.0
 20
0.0
 30
0.0
  3
$Model_Space
  1

1001
EZDXF
1000
CREATED_BY_EZDXF
1000
1.4.2 @ 2025-07-30T18:02:44.009733+00:00
1000
WRITTEN_BY_EZDXF
1000
1.4.2 @ 2025-07-30T18:02:44.025358+00:00
  0
ENDBLK
  5
19
  8
0
  0
BLOCK
  5
1C
  8
0
  2
$Paper_Space
 70
0
 10
0.0
 20
0.0
 30
0.0
  3
$Paper_Space
  1

  0
ENDBLK
  5
1D
  8
0
  0
ENDSEC
  0
SECTION
  2
ENTITIES
  0
LINE
  5
2D
  8
0
 10
2.432504
 20
0.431888
 30
0.0
 11
1.114539
 21
0.644853
 31
0.0
  0
LINE
  5
2E
  8
0
 10
2.432504
 20
0.431888
 30
0.0
 11
1.114539
 21
0.644853
 31
0.0
  0
LINE
  5
2F
  8
0
 10
0.743571
 20
0.952178
 30
0.0
 11
0.520362
 21
1.580149
 31
0.0
  0
LINE
  5
30
  8
0
 10
0.464009
 20
2.029818
 30
0.0
 11
0.470254
 21
3.375009
 31
0.0
  0
LINE
  5
31
  8
0
 10
0.481669
 20
3.827901
 30
0.0
 11
0.515604
 21
5.174229
 31
0.0
  0
LINE
  5
32
  8
0
 10
0.527022
 20
5.627199
 30
0.0
 11
0.56096
 21
6.973654
 31
0.0
  0
LINE
  5
33
  8
0
 10
0.57238
 20
7.426728
 30
0.0
 11
0.554637
 21
8.772413
 31
0.0
  0
LINE
  5
34
  8
0
 10
0.540726
 20
9.226744
 30
0.0
 11
0.499554
 21
10.571354
 31
0.0
  0
LINE
  5
35
  8
0
 10
0.485655
 20
11.025284
 30
0.0
 11
0.444443
 21
12.37124
 31
0.0
  0
LINE
  5
36
  8
0
 10
0.440667
 20
12.825021
 30
0.0
 11
0.678687
 21
14.137251
 31
0.0
  0
LINE
  5
37
  8
0
 10
0.978985
 20
14.469627
 30
0.0
 11
2.276396
 21
14.752561
 31
0.0
  0
LINE
  5
38
  8
0
 10
2.729467
 20
14.736808
 30
0.0
 11
4.075407
 21
14.690011
 31
0.0
  0
LINE
  5
39
  8
0
 10
4.528419
 20
14.67426
 30
0.0
 11
5.874303
 21
14.627465
 31
0.0
  0
LINE
  5
3A
  8
0
 10
6.327432
 20
14.62566
 30
0.0
 11
7.674117
 21
14.627605
 31
0.0
  0
LINE
  5
3B
  8
0
 10
8.127465
 20
14.62826
 30
0.0
 11
9.473493
 21
14.630205
 31
0.0
  0
LINE
  5
3C
  8
0
 10
9.927521
 20
14.63086
 30
0.0
 11
11.274016
 21
14.632805
 31
0.0
  0
LINE
  5
3D
  8
0
 10
11.727628
 20
14.633461
 30
0.0
 11
13.074156
 21
14.635406
 31
0.0
  0
LINE
  5
3E
  8
0
 10
13.528092
 20
14.636061
 30
0.0
 11
14.543025
 21
14.637527
 31
0.0
  0
LINE
  5
3F
  8
0
 10
14.543025
 20
14.637527
 30
0.0
 11
14.626218
 21
14.389661
 31
0.0
  0
LINE
  5
40
  8
0
 10
14.626218
 20
14.389661
 30
0.0
 11
13.528092
 21
14.636061
 31
0.0
  0
LINE
  5
41
  8
0
 10
14.626213
 20
13.936284
 30
0.0
 11
14.626198
 21
12.589563
 31
0.0
  0
LINE
  5
42
  8
0
 10
14.626193
 20
12.136055
 30
0.0
 11
14.626178
 21
10.789965
 31
0.0
  0
LINE
  5
43
  8
0
 10
14.626173
 20
10.336445
 30
0.0
 11
14.626158
 21
8.989809
 31
0.0
  0
LINE
  5
44
  8
0
 10
14.626153
 20
8.536414
 30
0.0
 11
14.626138
 21
7.18958
 31
0.0
  0
LINE
  5
45
  8
0
 10
14.626133
 20
6.736368
 30
0.0
 11
14.640704
 21
5.390619
 31
0.0
  0
LINE
  5
46
  8
0
 10
14.656716
 20
4.936294
 30
0.0
 11
14.704127
 21
3.591071
 31
0.0
  0
LINE
  5
47
  8
0
 10
14.720103
 20
3.137777
 30
0.0
 11
14.690397
 21
1.79602
 31
0.0
  0
LINE
  5
48
  8
0
 10
14.632766
 20
1.34568
 30
0.0
 11
14.282612
 21
0.77584
 31
0.0
  0
LINE
  5
49
  8
0
 10
14.282612
 20
0.77584
 30
0.0
 11
13.676593
 21
0.534053
 31
0.0
  0
LINE
  5
4A
  8
0
 10
13.676593
 20
0.534053
 30
0.0
 11
14.632766
 21
1.34568
 31
0.0
  0
LINE
  5
4B
  8
0
 10
13.227286
 20
0.473076
 30
0.0
 11
12.904736
 21
0.449874
 31
0.0
  0
LINE
  5
4C
  8
0
 10
12.904736
 20
0.449874
 30
0.0
 11
12.878352
 21
0.447851
 31
0.0
  0
LINE
  5
4D
  8
0
 10
12.878352
 20
0.447851
 30
0.0
 11
11.882361
 21
0.471735
 31
0.0
  0
LINE
  5
4E
  8
0
 10
11.429638
 20
0.482591
 30
0.0
 11
10.083538
 21
0.514871
 31
0.0
  0
LINE
  5
4F
  8
0
 10
9.630289
 20
0.525739
 30
0.0
 11
8.283736
 21
0.55803
 31
0.0
  0
LINE
  5
50
  8
0
 10
7.830705
 20
0.568893
 30
0.0
 11
6.48522
 21
0.560149
 31
0.0
  0
LINE
  5
51
  8
0
 10
6.03069
 20
0.545764
 30
0.0
 11
4.685727
 21
0.503199
 31
0.0
  0
LINE
  5
52
  8
0
 10
4.231594
 20
0.488826
 30
0.0
 11
2.88661
 21
0.44626
 31
0.0
  0
LINE
  5
53
  8
0
 10
2.592849
 20
0.6691
 30
0.0
 11
2.592849
 21
1.765
 31
0.0
  0
LINE
  5
54
  8
0
 10
2.592849
 20
0.6691
 30
0.0
 11
2.592849
 21
1.765
 31
0.0
  0
LINE
  5
55
  8
0
 10
2.592849
 20
2.218
 30
0.0
 11
2.592849
 21
3.436564
 31
0.0
  0
LINE
  5
56
  8
0
 10
2.592849
 20
3.436564
 30
0.0
 11
2.592849
 21
3.564874
 31
0.0
  0
LINE
  5
57
  8
0
 10
2.592849
 20
4.017915
 30
0.0
 11
2.592849
 21
5.094468
 31
0.0
  0
LINE
  5
58
  8
0
 10
2.592849
 20
5.094468
 30
0.0
 11
2.592849
 21
5.365
 31
0.0
  0
LINE
  5
59
  8
0
 10
2.592849
 20
5.818034
 30
0.0
 11
2.592849
 21
6.81411
 31
0.0
  0
LINE
  5
5A
  8
0
 10
2.592849
 20
6.81411
 30
0.0
 11
2.592849
 21
7.165
 31
0.0
  0
LINE
  5
5B
  8
0
 10
2.592849
 20
7.618018
 30
0.0
 11
2.592849
 21
8.565886
 31
0.0
  0
LINE
  5
5C
  8
0
 10
2.592849
 20
8.565886
 30
0.0
 11
2.592849
 21
8.965
 31
0.0
  0
LINE
  5
5D
  8
0
 10
2.592849
 20
9.418
 30
0.0
 11
2.592849
 21
10.589
 31
0.0
  0
LINE
  5
5E
  8
0
 10
2.592849
 20
10.589
 30
0.0
 11
2.592849
 21
10.765
 31
0.0
  0
LINE
  5
5F
  8
0
 10
2.592849
 20
11.217756
 30
0.0
 11
2.592849
 21
11.98347
 31
0.0
  0
LINE
  5
60
  8
0
 10
2.592849
 20
11.98347
 30
0.0
 11
2.592849
 21
12.565
 31
0.0
  0
LINE
  5
61
  8
0
 10
2.592849
 20
13.018
 30
0.0
 11
2.592849
 21
14.189
 31
0.0
  0
LINE
  5
62
  8
0
 10
2.592849
 20
14.189
 30
0.0
 11
2.592849
 21
14.365
 31
0.0
  0
LINE
  5
63
  8
0
 10
5.092849
 20
0.71158
 30
0.0
 11
5.092849
 21
1.678
 31
0.0
  0
LINE
  5
64
  8
0
 10
5.092849
 20
0.71158
 30
0.0
 11
5.092849
 21
1.678
 31
0.0
  0
LINE
  5
65
  8
0
 10
5.092849
 20
2.132
 30
0.0
 11
5.092849
 21
2.308
 31
0.0
  0
LINE
  5
66
  8
0
 10
5.092849
 20
2.308
 30
0.0
 11
5.092849
 21
3.478
 31
0.0
  0
LINE
  5
67
  8
0
 10
5.092849
 20
3.932
 30
0.0
 11
5.092849
 21
3.9826
 31
0.0
  0
LINE
  5
68
  8
0
 10
5.092849
 20
3.9826
 30
0.0
 11
5.092849
 21
5.1526
 31
0.0
  0
LINE
  5
69
  8
0
 10
5.092849
 20
5.1526
 30
0.0
 11
5.092849
 21
5.278
 31
0.0
  0
LINE
  5
6A
  8
0
 10
5.092849
 20
5.731864
 30
0.0
 11
5.092849
 21
6.824048
 31
0.0
  0
LINE
  5
6B
  8
0
 10
5.092849
 20
6.824048
 30
0.0
 11
5.092849
 21
7.078
 31
0.0
  0
LINE
  5
6C
  8
0
 10
5.092849
 20
7.53195
 30
0.0
 11
5.092849
 21
8.405852
 31
0.0
  0
LINE
  5
6D
  8
0
 10
5.092849
 20
8.405852
 30
0.0
 11
5.092849
 21
8.597376
 31
0.0
  0
LINE
  5
6E
  8
0
 10
5.092849
 20
8.597376
 30
0.0
 11
5.092849
 21
8.877959
 31
0.0
  0
LINE
  5
6F
  8
0
 10
5.092849
 20
9.332
 30
0.0
 11
5.092849
 21
9.508
 31
0.0
  0
LINE
  5
70
  8
0
 10
5.092849
 20
9.508
 30
0.0
 11
5.092849
 21
10.678
 31
0.0
  0
LINE
  5
71
  8
0
 10
5.092849
 20
11.131615
 30
0.0
 11
5.092849
 21
11.988489
 31
0.0
  0
LINE
  5
72
  8
0
 10
5.092849
 20
11.988489
 30
0.0
 11
5.092849
 21
12.478
 31
0.0
  0
LINE
  5
73
  8
0
 10
5.092849
 20
12.932
 30
0.0
 11
5.092849
 21
13.108
 31
0.0
  0
LINE
  5
74
  8
0
 10
5.092849
 20
13.108
 30
0.0
 11
5.092849
 21
14.278
 31
0.0
  0
LINE
  5
75
  8
0
 10
7.592849
 20
0.75144
 30
0.0
 11
7.592849
 21
1.65078
 31
0.0
  0
LINE
  5
76
  8
0
 10
7.592849
 20
0.75144
 30
0.0
 11
7.592849
 21
1.65078
 31
0.0
  0
LINE
  5
77
  8
0
 10
7.592849
 20
2.104
 30
0.0
 11
7.592849
 21
2.28022
 31
0.0
  0
LINE
  5
78
  8
0
 10
7.592849
 20
2.28022
 30
0.0
 11
7.592849
 21
3.451
 31
0.0
  0
LINE
  5
79
  8
0
 10
7.592849
 20
3.904
 30
0.0
 11
7.592849
 21
5.07478
 31
0.0
  0
LINE
  5
7A
  8
0
 10
7.592849
 20
5.07478
 30
0.0
 11
7.592849
 21
5.251
 31
0.0
  0
LINE
  5
7B
  8
0
 10
7.592849
 20
5.703867
 30
0.0
 11
7.592849
 21
6.807012
 31
0.0
  0
LINE
  5
7C
  8
0
 10
7.592849
 20
6.807012
 30
0.0
 11
7.592849
 21
7.051
 31
0.0
  0
LINE
  5
7D
  8
0
 10
7.592849
 20
7.504
 30
0.0
 11
7.592849
 21
7.68022
 31
0.0
  0
LINE
  5
7E
  8
0
 10
7.592849
 20
7.68022
 30
0.0
 11
7.592849
 21
8.851
 31
0.0
  0
LINE
  5
7F
  8
0
 10
7.592849
 20
9.304
 30
0.0
 11
7.592849
 21
10.47478
 31
0.0
  0
LINE
  5
80
  8
0
 10
7.592849
 20
10.47478
 30
0.0
 11
7.592849
 21
10.651
 31
0.0
  0
LINE
  5
81
  8
0
 10
7.592849
 20
11.104
 30
0.0
 11
7.592849
 21
11.28022
 31
0.0
  0
LINE
  5
82
  8
0
 10
7.592849
 20
11.28022
 30
0.0
 11
7.592849
 21
12.451
 31
0.0
  0
LINE
  5
83
  8
0
 10
7.592849
 20
12.904
 30
0.0
 11
7.592849
 21
13.08022
 31
0.0
  0
LINE
  5
84
  8
0
 10
7.592849
 20
13.08022
 30
0.0
 11
7.592849
 21
14.251
 31
0.0
  0
LINE
  5
85
  8
0
 10
10.092849
 20
0.70552
 30
0.0
 11
10.092849
 21
1.654
 31
0.0
  0
LINE
  5
86
  8
0
 10
10.092849
 20
0.70552
 30
0.0
 11
10.092849
 21
1.654
 31
0.0
  0
LINE
  5
87
  8
0
 10
10.092849
 20
2.108
 30
0.0
 11
10.092849
 21
2.284
 31
0.0
  0
LINE
  5
88
  8
0
 10
10.092849
 20
2.284
 30
0.0
 11
10.092849
 21
3.454
 31
0.0
  0
LINE
  5
89
  8
0
 10
10.092849
 20
3.908041
 30
0.0
 11
10.092849
 21
5.001136
 31
0.0
  0
LINE
  5
8A
  8
0
 10
10.092849
 20
5.001136
 30
0.0
 11
10.092849
 21
5.254
 31
0.0
  0
LINE
  5
8B
  8
0
 10
10.092849
 20
5.708
 30
0.0
 11
10.092849
 21
5.884
 31
0.0
  0
LINE
  5
8C
  8
0
 10
10.092849
 20
5.884
 30
0.0
 11
10.092849
 21
7.054
 31
0.0
  0
LINE
  5
8D
  8
0
 10
10.092849
 20
7.50793
 30
0.0
 11
10.092849
 21
7.841883
 31
0.0
  0
LINE
  5
8E
  8
0
 10
10.092849
 20
7.841883
 30
0.0
 11
10.092849
 21
8.854
 31
0.0
  0
LINE
  5
8F
  8
0
 10
10.092849
 20
9.308
 30
0.0
 11
10.092849
 21
10.478
 31
0.0
  0
LINE
  5
90
  8
0
 10
10.092849
 20
10.478
 30
0.0
 11
10.092849
 21
10.654
 31
0.0
  0
LINE
  5
91
  8
0
 10
10.092849
 20
11.108
 30
0.0
 11
10.092849
 21
11.284
 31
0.0
  0
LINE
  5
92
  8
0
 10
10.092849
 20
11.284
 30
0.0
 11
10.092849
 21
12.454
 31
0.0
  0
LINE
  5
93
  8
0
 10
10.092849
 20
12.908
 30
0.0
 11
10.092849
 21
14.078
 31
0.0
  0
LINE
  5
94
  8
0
 10
10.092849
 20
14.078
 30
0.0
 11
10.092849
 21
14.254
 31
0.0
  0
LINE
  5
95
  8
0
 10
12.592849
 20
0.6596
 30
0.0
 11
12.592849
 21
1.657959
 31
0.0
  0
LINE
  5
96
  8
0
 10
12.592849
 20
0.6596
 30
0.0
 11
12.592849
 21
1.657959
 31
0.0
  0
LINE
  5
97
  8
0
 10
12.592849
 20
2.112
 30
0.0
 11
12.592849
 21
2.288
 31
0.0
  0
LINE
  5
98
  8
0
 10
12.592849
 20
2.288
 30
0.0
 11
12.592849
 21
3.458
 31
0.0
  0
LINE
  5
99
  8
0
 10
12.592849
 20
3.911911
 30
0.0
 11
12.592849
 21
4.875325
 31
0.0
  0
LINE
  5
9A
  8
0
 10
12.592849
 20
4.875325
 30
0.0
 11
12.592849
 21
5.137
 31
0.0
  0
LINE
  5
9B
  8
0
 10
12.592849
 20
5.137
 30
0.0
 11
12.592849
 21
5.258
 31
0.0
  0
LINE
  5
9C
  8
0
 10
12.592849
 20
5.7118
 30
0.0
 11
12.592849
 21
6.811408
 31
0.0
  0
LINE
  5
9D
  8
0
 10
12.592849
 20
6.811408
 30
0.0
 11
12.592849
 21
7.058
 31
0.0
  0
LINE
  5
9E
  8
0
 10
12.592849
 20
7.511806
 30
0.0
 11
12.592849
 21
8.61389
 31
0.0
  0
LINE
  5
9F
  8
0
 10
12.592849
 20
8.61389
 30
0.0
 11
12.592849
 21
8.858
 31
0.0
  0
LINE
  5
A0
  8
0
 10
12.592849
 20
9.312
 30
0.0
 11
12.592849
 21
10.482
 31
0.0
  0
LINE
  5
A1
  8
0
 10
12.592849
 20
10.482
 30
0.0
 11
12.592849
 21
10.658
 31
0.0
  0
LINE
  5
A2
  8
0
 10
12.592849
 20
11.112
 30
0.0
 11
12.592849
 21
11.288
 31
0.0
  0
LINE
  5
A3
  8
0
 10
12.592849
 20
11.288
 30
0.0
 11
12.592849
 21
12.458
 31
0.0
  0
LINE
  5
A4
  8
0
 10
12.592849
 20
12.912
 30
0.0
 11
12.592849
 21
13.088
 31
0.0
  0
LINE
  5
A5
  8
0
 10
12.592849
 20
13.088
 30
0.0
 11
12.592849
 21
14.258
 31
0.0
  0
LINE
  5
A6
  8
0
 10
0.827
 20
2.592238
 30
0.0
 11
1.998
 21
2.592238
 31
0.0
  0
LINE
  5
A7
  8
0
 10
0.827
 20
2.592238
 30
0.0
 11
1.998
 21
2.592238
 31
0.0
  0
LINE
  5
A8
  8
0
 10
1.998
 20
2.592238
 30
0.0
 11
2.174
 21
2.592238
 31
0.0
  0
LINE
  5
A9
  8
0
 10
2.627
 20
2.592238
 30
0.0
 11
3.798
 21
2.592238
 31
0.0
  0
LINE
  5
AA
  8
0
 10
3.798
 20
2.592238
 30
0.0
 11
3.974
 21
2.592238
 31
0.0
  0
LINE
  5
AB
  8
0
 10
4.427
 20
2.592238
 30
0.0
 11
5.598
 21
2.592238
 31
0.0
  0
LINE
  5
AC
  8
0
 10
5.598
 20
2.592238
 30
0.0
 11
5.774
 21
2.592238
 31
0.0
  0
LINE
  5
AD
  8
0
 10
6.226749
 20
2.592238
 30
0.0
 11
6.982558
 21
2.592238
 31
0.0
  0
LINE
  5
AE
  8
0
 10
6.982558
 20
2.592238
 30
0.0
 11
7.574
 21
2.592238
 31
0.0
  0
LINE
  5
AF
  8
0
 10
8.027
 20
2.592238
 30
0.0
 11
9.198
 21
2.592238
 31
0.0
  0
LINE
  5
B0
  8
0
 10
9.198
 20
2.592238
 30
0.0
 11
9.374
 21
2.592238
 31
0.0
  0
LINE
  5
B1
  8
0
 10
9.827
 20
2.592238
 30
0.0
 11
10.998
 21
2.592238
 31
0.0
  0
LINE
  5
B2
  8
0
 10
10.998
 20
2.592238
 30
0.0
 11
11.174
 21
2.592238
 31
0.0
  0
LINE
  5
B3
  8
0
 10
11.626807
 20
2.592238
 30
0.0
 11
12.778097
 21
2.592238
 31
0.0
  0
LINE
  5
B4
  8
0
 10
12.778097
 20
2.592238
 30
0.0
 11
12.974
 21
2.592238
 31
0.0
  0
LINE
  5
B5
  8
0
 10
13.426967
 20
2.592238
 30
0.0
 11
14.357138
 21
2.592238
 31
0.0
  0
LINE
  5
B6
  8
0
 10
14.357138
 20
2.592238
 30
0.0
 11
14.51064
 21
2.592238
 31
0.0
  0
LINE
  5
B7
  8
0
 10
0.889825
 20
5.092238
 30
0.0
 11
1.91374
 21
5.092238
 31
0.0
  0
LINE
  5
B8
  8
0
 10
0.889825
 20
5.092238
 30
0.0
 11
1.91374
 21
5.092238
 31
0.0
  0
LINE
  5
B9
  8
0
 10
1.91374
 20
5.092238
 30
0.0
 11
2.237
 21
5.092238
 31
0.0
  0
LINE
  5
BA
  8
0
 10
2.689299
 20
5.092238
 30
0.0
 11
2.708204
 21
5.092238
 31
0.0
  0
LINE
  5
BB
  8
0
 10
2.708204
 20
5.092238
 30
0.0
 11
3.92392
 21
5.092238
 31
0.0
  0
LINE
  5
BC
  8
0
 10
3.92392
 20
5.092238
 30
0.0
 11
4.037
 21
5.092238
 31
0.0
  0
LINE
  5
BD
  8
0
 10
4.49
 20
5.092238
 30
0.0
 11
4.66622
 21
5.092238
 31
0.0
  0
LINE
  5
BE
  8
0
 10
4.66622
 20
5.092238
 30
0.0
 11
5.837
 21
5.092238
 31
0.0
  0
LINE
  5
BF
  8
0
 10
6.289948
 20
5.092238
 30
0.0
 11
7.015784
 21
5.092238
 31
0.0
  0
LINE
  5
C0
  8
0
 10
7.015784
 20
5.092238
 30
0.0
 11
7.637
 21
5.092238
 31
0.0
  0
LINE
  5
C1
  8
0
 10
8.090033
 20
5.092238
 30
0.0
 11
9.230044
 21
5.092238
 31
0.0
  0
LINE
  5
C2
  8
0
 10
9.230044
 20
5.092238
 30
0.0
 11
9.437
 21
5.092238
 31
0.0
  0
LINE
  5
C3
  8
0
 10
9.89
 20
5.092238
 30
0.0
 11
10.06622
 21
5.092238
 31
0.0
  0
LINE
  5
C4
  8
0
 10
10.06622
 20
5.092238
 30
0.0
 11
11.237
 21
5.092238
 31
0.0
  0
LINE
  5
C5
  8
0
 10
11.69
 20
5.092238
 30
0.0
 11
12.86078
 21
5.092238
 31
0.0
  0
LINE
  5
C6
  8
0
 10
12.86078
 20
5.092238
 30
0.0
 11
13.037
 21
5.092238
 31
0.0
  0
LINE
  5
C7
  8
0
 10
13.49
 20
5.092238
 30
0.0
 11
14.45586
 21
5.092238
 31
0.0
  0
LINE
  5
C8
  8
0
 10
0.952847
 20
7.592238
 30
0.0
 11
1.942789
 21
7.592238
 31
0.0
  0
LINE
  5
C9
  8
0
 10
0.952847
 20
7.592238
 30
0.0
 11
1.942789
 21
7.592238
 31
0.0
  0
LINE
  5
CA
  8
0
 10
1.942789
 20
7.592238
 30
0.0
 11
2.3
 21
7.592238
 31
0.0
  0
LINE
  5
CB
  8
0
 10
2.752735
 20
7.592238
 30
0.0
 11
2.778639
 21
7.592238
 31
0.0
  0
LINE
  5
CC
  8
0
 10
2.778639
 20
7.592238
 30
0.0
 11
3.97306
 21
7.592238
 31
0.0
  0
LINE
  5
CD
  8
0
 10
3.97306
 20
7.592238
 30
0.0
 11
4.1
 21
7.592238
 31
0.0
  0
LINE
  5
CE
  8
0
 10
4.553
 20
7.592238
 30
0.0
 11
5.724
 21
7.592238
 31
0.0
  0
LINE
  5
CF
  8
0
 10
5.724
 20
7.592238
 30
0.0
 11
5.9
 21
7.592238
 31
0.0
  0
LINE
  5
D0
  8
0
 10
6.352979
 20
7.592238
 30
0.0
 11
7.222583
 21
7.592238
 31
0.0
  0
LINE
  5
D1
  8
0
 10
7.222583
 20
7.592238
 30
0.0
 11
7.7
 21
7.592238
 31
0.0
  0
LINE
  5
D2
  8
0
 10
8.153114
 20
7.592238
 30
0.0
 11
9.273962
 21
7.592238
 31
0.0
  0
LINE
  5
D3
  8
0
 10
9.273962
 20
7.592238
 30
0.0
 11
9.5
 21
7.592238
 31
0.0
  0
LINE
  5
D4
  8
0
 10
9.953
 20
7.592238
 30
0.0
 11
11.124
 21
7.592238
 31
0.0
  0
LINE
  5
D5
  8
0
 10
11.124
 20
7.592238
 30
0.0
 11
11.3
 21
7.592238
 31
0.0
  0
LINE
  5
D6
  8
0
 10
11.753
 20
7.592238
 30
0.0
 11
12.924
 21
7.592238
 31
0.0
  0
LINE
  5
D7
  8
0
 10
12.924
 20
7.592238
 30
0.0
 11
13.1
 21
7.592238
 31
0.0
  0
LINE
  5
D8
  8
0
 10
13.55273
 20
7.592238
 30
0.0
 11
14.260615
 21
7.592238
 31
0.0
  0
LINE
  5
D9
  8
0
 10
14.260615
 20
7.592238
 30
0.0
 11
14.45022
 21
7.592238
 31
0.0
  0
LINE
  5
DA
  8
0
 10
0.890825
 20
10.092238
 30
0.0
 11
1.914058
 21
10.092238
 31
0.0
  0
LINE
  5
DB
  8
0
 10
0.890825
 20
10.092238
 30
0.0
 11
1.914058
 21
10.092238
 31
0.0
  0
LINE
  5
DC
  8
0
 10
1.914058
 20
10.092238
 30
0.0
 11
2.237
 21
10.092238
 31
0.0
  0
LINE
  5
DD
  8
0
 10
2.690627
 20
10.092238
 30
0.0
 11
2.709785
 21
10.092238
 31
0.0
  0
LINE
  5
DE
  8
0
 10
2.709785
 20
10.092238
 30
0.0
 11
3.92392
 21
10.092238
 31
0.0
  0
LINE
  5
DF
  8
0
 10
3.92392
 20
10.092238
 30
0.0
 11
4.037
 21
10.092238
 31
0.0
  0
LINE
  5
E0
  8
0
 10
4.491
 20
10.092238
 30
0.0
 11
5.661
 21
10.092238
 31
0.0
  0
LINE
  5
E1
  8
0
 10
5.661
 20
10.092238
 30
0.0
 11
5.837
 21
10.092238
 31
0.0
  0
LINE
  5
E2
  8
0
 10
6.290768
 20
10.092238
 30
0.0
 11
7.017934
 21
10.092238
 31
0.0
  0
LINE
  5
E3
  8
0
 10
7.017934
 20
10.092238
 30
0.0
 11
7.637
 21
10.092238
 31
0.0
  0
LINE
  5
E4
  8
0
 10
8.090976
 20
10.092238
 30
0.0
 11
8.878233
 21
10.092238
 31
0.0
  0
LINE
  5
E5
  8
0
 10
8.878233
 20
10.092238
 30
0.0
 11
9.437
 21
10.092238
 31
0.0
  0
LINE
  5
E6
  8
0
 10
9.891
 20
10.092238
 30
0.0
 11
10.067
 21
10.092238
 31
0.0
  0
LINE
  5
E7
  8
0
 10
10.067
 20
10.092238
 30
0.0
 11
11.237
 21
10.092238
 31
0.0
  0
LINE
  5
E8
  8
0
 10
11.691
 20
10.092238
 30
0.0
 11
12.861
 21
10.092238
 31
0.0
  0
LINE
  5
E9
  8
0
 10
12.861
 20
10.092238
 30
0.0
 11
13.037
 21
10.092238
 31
0.0
  0
LINE
  5
EA
  8
0
 10
13.490769
 20
10.092238
 30
0.0
 11
14.271437
 21
10.092238
 31
0.0
  0
LINE
  5
EB
  8
0
 10
14.271437
 20
10.092238
 30
0.0
 11
14.43636
 21
10.092238
 31
0.0
  0
LINE
  5
EC
  8
0
 10
0.815
 20
12.592238
 30
0.0
 11
1.985
 21
12.592238
 31
0.0
  0
LINE
  5
ED
  8
0
 10
0.815
 20
12.592238
 30
0.0
 11
1.985
 21
12.592238
 31
0.0
  0
LINE
  5
EE
  8
0
 10
1.985
 20
12.592238
 30
0.0
 11
2.161
 21
12.592238
 31
0.0
  0
LINE
  5
EF
  8
0
 10
2.615
 20
12.592238
 30
0.0
 11
2.791
 21
12.592238
 31
0.0
  0
LINE
  5
F0
  8
0
 10
2.791
 20
12.592238
 30
0.0
 11
3.961
 21
12.592238
 31
0.0
  0
LINE
  5
F1
  8
0
 10
4.415
 20
12.592238
 30
0.0
 11
4.591
 21
12.592238
 31
0.0
  0
LINE
  5
F2
  8
0
 10
4.591
 20
12.592238
 30
0.0
 11
5.761
 21
12.592238
 31
0.0
  0
LINE
  5
F3
  8
0
 10
6.214819
 20
12.592238
 30
0.0
 11
6.984814
 21
12.592238
 31
0.0
  0
LINE
  5
F4
  8
0
 10
6.984814
 20
12.592238
 30
0.0
 11
7.561
 21
12.592238
 31
0.0
  0
LINE
  5
F5
  8
0
 10
8.015
 20
12.592238
 30
0.0
 11
9.185
 21
12.592238
 31
0.0
  0
LINE
  5
F6
  8
0
 10
9.185
 20
12.592238
 30
0.0
 11
9.361
 21
12.592238
 31
0.0
  0
LINE
  5
F7
  8
0
 10
9.815
 20
12.592238
 30
0.0
 11
10.985
 21
12.592238
 31
0.0
  0
LINE
  5
F8
  8
0
 10
10.985
 20
12.592238
 30
0.0
 11
11.161
 21
12.592238
 31
0.0
  0
LINE
  5
F9
  8
0
 10
11.614961
 20
12.592238
 30
0.0
 11
11.948883
 21
12.592238
 31
0.0
  0
LINE
  5
FA
  8
0
 10
11.948883
 20
12.592238
 30
0.0
 11
12.961
 21
12.592238
 31
0.0
  0
LINE
  5
FB
  8
0
 10
13.414919
 20
12.592238
 30
0.0
 11
14.282617
 21
12.592238
 31
0.0
  0
LINE
  5
FC
  8
0
 10
14.282617
 20
12.592238
 30
0.0
 11
14.291689
 21
12.592238
 31
0.0
  0
LINE
  5
FD
  8
0
 10
14.291689
 20
12.592238
 30
0.0
 11
14.41964
 21
12.592238
 31
0.0
  0
ENDSEC
  0
EOF
