  0
SECTION
  2
HEADER
  9
$ACADVER
  1
AC1009
  9
$DWGCODEPAGE
  3
ANSI_1252
  9
$INSBASE
 10
0.0
 20
0.0
 30
0.0
  9
$EXTMIN
 10
1e+20
 20
1e+20
 30
1e+20
  9
$EXTMAX
 10
-1e+20
 20
-1e+20
 30
-1e+20
  9
$LIMMIN
 10
0.0
 20
0.0
  9
$LIMMAX
 10
420.0
 20
297.0
  9
$ORTHOMODE
 70
0
  9
$REGENMODE
 70
1
  9
$FILLMODE
 70
1
  9
$DRAGMODE
 70
2
  9
$QTEXTMODE
 70
0
  9
$MIRRTEXT
 70
1
  9
$OSMODE
 70
20583
  9
$LTSCALE
 40
1.0
  9
$ATTMODE
 70
1
  9
$TEXTSIZE
 40
2.5
  9
$TRACEWID
 40
1.0
  9
$TEXTSTYLE
  7
Standard
  9
$CLAYER
  8
0
  9
$CELTYPE
  6
ByLayer
  9
$CECOLOR
 62
256
  9
$DIMSCALE
 40
1.0
  9
$DIMASZ
 40
2.5
  9
$DIMEXO
 40
0.625
  9
$DIMDLI
 40
3.75
  9
$DIMRND
 40
0.0
  9
$DIMDLE
 40
0.0
  9
$DIMEXE
 40
1.25
  9
$DIMTP
 40
0.0
  9
$DIMTM
 40
0.0
  9
$DIMTXT
 40
2.5
  9
$DIMCEN
 40
2.5
  9
$DIMTSZ
 40
0.0
  9
$DIMTOL
 70
0
  9
$DIMLIM
 70
0
  9
$DIMTIH
 70
0
  9
$DIMTOH
 70
0
  9
$DIMSE1
 70
0
  9
$DIMSE2
 70
0
  9
$DIMTAD
 70
1
  9
$DIMZIN
 70
8
  9
$DIMBLK
  1

  9
$DIMASO
 70
1
  9
$DIMSHO
 70
1
  9
$DIMPOST
  1

  9
$DIMAPOST
  1

  9
$DIMALT
 70
0
  9
$DIMALTD
 70
3
  9
$DIMALTF
 40
0.03937007874
  9
$DIMLFAC
 40
1.0
  9
$DIMTOFL
 70
1
  9
$DIMTVP
 40
0.0
  9
$DIMTIX
 70
0
  9
$DIMSOXD
 70
0
  9
$DIMSAH
 70
0
  9
$DIMBLK1
  1

  9
$DIMBLK2
  1

  9
$DIMSTYLE
  2
ISO-25
  9
$DIMCLRD
 70
0
  9
$DIMCLRE
 70
0
  9
$DIMCLRT
 70
0
  9
$DIMTFAC
 40
1.0
  9
$DIMGAP
 40
0.625
  9
$COORDS
 70
1
  9
$ATTDIA
 70
0
  9
$ATTREQ
 70
1
  9
$HANDLING
 70
1
  9
$LUNITS
 70
2
  9
$LUPREC
 70
4
  9
$SKETCHINC
 40
1.0
  9
$FILLETRAD
 40
10.0
  9
$AUNITS
 70
0
  9
$AUPREC
 70
2
  9
$MENU
  1
.
  9
$ELEVATION
 40
0.0
  9
$PELEVATION
 40
0.0
  9
$THICKNESS
 40
0.0
  9
$LIMCHECK
 70
0
  9
$CHAMFERA
 40
0.0
  9
$CHAMFERB
 40
0.0
  9
$SKPOLY
 70
0
  9
$TDCREATE
 40
2460887.6269791666
  9
$TDUPDATE
 40
2460887.6269791666
  9
$TDINDWG
 40
0.0
  9
$TDUSRTIMER
 40
0.0
  9
$USRTIMER
 70
1
  9
$ANGBASE
 50
0.0
  9
$ANGDIR
 70
0
  9
$PDMODE
 70
0
  9
$PDSIZE
 40
0.0
  9
$PLINEWID
 40
0.0
  9
$SPLFRAME
 70
0
  9
$SPLINETYPE
 70
6
  9
$SPLINESEGS
 70
8
  9
$HANDSEED
  5
126
  9
$SURFTAB1
 70
6
  9
$SURFTAB2
 70
6
  9
$SURFTYPE
 70
6
  9
$SURFU
 70
6
  9
$SURFV
 70
6
  9
$UCSNAME
  2

  9
$UCSORG
 10
0.0
 20
0.0
 30
0.0
  9
$UCSXDIR
 10
1.0
 20
0.0
 30
0.0
  9
$UCSYDIR
 10
0.0
 20
1.0
 30
0.0
  9
$PUCSNAME
  2

  9
$PUCSORG
 10
0.0
 20
0.0
 30
0.0
  9
$PUCSXDIR
 10
1.0
 20
0.0
 30
0.0
  9
$PUCSYDIR
 10
0.0
 20
1.0
 30
0.0
  9
$USERI1
 70
0
  9
$USERI2
 70
0
  9
$USERI3
 70
0
  9
$USERI4
 70
0
  9
$USERI5
 70
0
  9
$USERR1
 40
0.0
  9
$USERR2
 40
0.0
  9
$USERR3
 40
0.0
  9
$USERR4
 40
0.0
  9
$USERR5
 40
0.0
  9
$WORLDVIEW
 70
1
  9
$SHADEDGE
 70
3
  9
$SHADEDIF
 70
70
  9
$TILEMODE
 70
1
  9
$MAXACTVP
 70
64
  9
$PLIMCHECK
 70
0
  9
$PEXTMIN
 10
1e+20
 20
1e+20
 30
1e+20
  9
$PEXTMAX
 10
-1e+20
 20
-1e+20
 30
-1e+20
  9
$PLIMMIN
 10
0.0
 20
0.0
  9
$PLIMMAX
 10
420.0
 20
297.0
  9
$UNITMODE
 70
0
  9
$VISRETAIN
 70
1
  9
$PLINEGEN
 70
0
  9
$PSLTSCALE
 70
1
  0
ENDSEC
  0
SECTION
  2
TABLES
  0
TABLE
  2
VPORT
 70
1
  0
VPORT
  5
23
  2
*Active
 70
0
 10
0.0
 20
0.0
 11
1.0
 21
1.0
 12
0.0
 22
0.0
 13
0.0
 23
0.0
 14
0.5
 24
0.5
 15
0.5
 25
0.5
 16
0.0
 26
0.0
 36
1.0
 17
0.0
 27
0.0
 37
0.0
 40
1000.0
 41
1.34
 42
50.0
 43
0.0
 44
0.0
 50
0.0
 51
0.0
 71
0
 72
1000
 73
1
 74
3
 75
0
 76
0
 77
0
 78
0
  0
ENDTAB
  0
TABLE
  2
LTYPE
 70
3
  0
LTYPE
  5
24
  2
ByBlock
 70
0
  3

 72
65
 73
0
 40
0.0
  0
LTYPE
  5
25
  2
ByLayer
 70
0
  3

 72
65
 73
0
 40
0.0
  0
LTYPE
  5
26
  2
Continuous
 70
0
  3

 72
65
 73
0
 40
0.0
  0
ENDTAB
  0
TABLE
  2
LAYER
 70
2
  0
LAYER
  5
27
  2
0
 70
0
 62
7
  6
Continuous
  0
LAYER
  5
28
  2
Defpoints
 70
0
 62
7
  6
Continuous
  0
ENDTAB
  0
TABLE
  2
STYLE
 70
1
  0
STYLE
  5
29
  2
Standard
 70
0
 40
0.0
 41
1.0
 50
0.0
 71
0
 42
2.5
  3
txt
  4

  0
ENDTAB
  0
TABLE
  2
VIEW
 70
0
  0
ENDTAB
  0
TABLE
  2
UCS
 70
0
  0
ENDTAB
  0
TABLE
  2
APPID
 70
3
  0
APPID
  5
2A
  2
ACAD
 70
0
  0
APPID
  5
124
  2
HATCHBACKGROUNDCOLOR
 70
0
  0
APPID
  5
125
  2
EZDXF
 70
0
  0
ENDTAB
  0
TABLE
  2
DIMSTYLE
 70
1
  0
DIMSTYLE
105
2B
  2
Standard
 70
0
  3

  4

  5

  6

  7

 40
1.0
 41
2.5
 42
0.625
 43
3.75
 44
1.25
 45
0.0
 46
0.0
 47
0.0
 48
0.0
140
2.5
141
2.5
142
0.0
143
0.03937007874
144
1.0
145
0.0
146
1.0
147
0.625
 71
0
 72
0
 73
0
 74
0
 75
0
 76
0
 77
1
 78
8
170
0
171
3
172
1
173
0
174
0
175
0
176
0
177
0
178
0
  0
ENDTAB
  0
ENDSEC
  0
SECTION
  2
BLOCKS
  0
BLOCK
  5
18
  8
0
  2
$Model_Space
 70
0
 10
0.0
 20
0.0
 30
0.0
  3
$Model_Space
  1

1001
EZDXF
1000
CREATED_BY_EZDXF
1000
1.4.2 @ 2025-07-30T18:02:51.427088+00:00
1000
WRITTEN_BY_EZDXF
1000
1.4.2 @ 2025-07-30T18:02:51.442715+00:00
  0
ENDBLK
  5
19
  8
0
  0
BLOCK
  5
1C
  8
0
  2
$Paper_Space
 70
0
 10
0.0
 20
0.0
 30
0.0
  3
$Paper_Space
  1

  0
ENDBLK
  5
1D
  8
0
  0
ENDSEC
  0
SECTION
  2
ENTITIES
  0
LINE
  5
2D
  8
0
 10
14.941
 20
0.059
 30
0.0
 11
0.059
 21
0.059
 31
0.0
  0
LINE
  5
2E
  8
0
 10
0.059
 20
0.059
 30
0.0
 11
0.059
 21
14.941
 31
0.0
  0
LINE
  5
2F
  8
0
 10
0.059
 20
14.941
 30
0.0
 11
14.941
 21
14.941
 31
0.0
  0
LINE
  5
30
  8
0
 10
14.941
 20
14.941
 30
0.0
 11
14.941
 21
0.059
 31
0.0
  0
LINE
  5
31
  8
0
 10
14.941
 20
0.059
 30
0.0
 11
14.941
 21
0.059
 31
0.0
  0
LINE
  5
32
  8
0
 10
14.861
 20
0.139
 30
0.0
 11
0.139
 21
0.139
 31
0.0
  0
LINE
  5
33
  8
0
 10
0.139
 20
0.139
 30
0.0
 11
0.139
 21
14.861
 31
0.0
  0
LINE
  5
34
  8
0
 10
0.139
 20
14.861
 30
0.0
 11
14.861
 21
14.861
 31
0.0
  0
LINE
  5
35
  8
0
 10
14.861
 20
14.861
 30
0.0
 11
14.861
 21
0.139
 31
0.0
  0
LINE
  5
36
  8
0
 10
14.861
 20
0.139
 30
0.0
 11
14.861
 21
0.139
 31
0.0
  0
LINE
  5
37
  8
0
 10
14.781
 20
0.219
 30
0.0
 11
0.219
 21
0.219
 31
0.0
  0
LINE
  5
38
  8
0
 10
0.219
 20
0.219
 30
0.0
 11
0.219
 21
14.781
 31
0.0
  0
LINE
  5
39
  8
0
 10
0.219
 20
14.781
 30
0.0
 11
14.781
 21
14.781
 31
0.0
  0
LINE
  5
3A
  8
0
 10
14.781
 20
14.781
 30
0.0
 11
14.781
 21
0.219
 31
0.0
  0
LINE
  5
3B
  8
0
 10
14.781
 20
0.219
 30
0.0
 11
14.781
 21
0.219
 31
0.0
  0
LINE
  5
3C
  8
0
 10
0.299
 20
14.66293
 30
0.0
 11
0.40136
 21
14.701
 31
0.0
  0
LINE
  5
3D
  8
0
 10
0.63088
 20
14.701
 30
0.0
 11
0.299
 21
14.57757
 31
0.0
  0
LINE
  5
3E
  8
0
 10
0.299
 20
14.49222
 30
0.0
 11
0.86039
 21
14.701
 31
0.0
  0
LINE
  5
3F
  8
0
 10
1.08989
 20
14.701
 30
0.0
 11
0.299
 21
14.40687
 31
0.0
  0
LINE
  5
40
  8
0
 10
0.299
 20
14.32152
 30
0.0
 11
1.31939
 21
14.701
 31
0.0
  0
LINE
  5
41
  8
0
 10
1.54891
 20
14.701
 30
0.0
 11
0.299
 21
14.23616
 31
0.0
  0
LINE
  5
42
  8
0
 10
0.299
 20
14.15081
 30
0.0
 11
1.77841
 21
14.701
 31
0.0
  0
LINE
  5
43
  8
0
 10
2.00792
 20
14.701
 30
0.0
 11
0.299
 21
14.06545
 31
0.0
  0
LINE
  5
44
  8
0
 10
0.299
 20
13.9801
 30
0.0
 11
2.23742
 21
14.701
 31
0.0
  0
LINE
  5
45
  8
0
 10
2.46694
 20
14.701
 30
0.0
 11
0.299
 21
13.89475
 31
0.0
  0
LINE
  5
46
  8
0
 10
0.299
 20
13.80939
 30
0.0
 11
2.69645
 21
14.701
 31
0.0
  0
LINE
  5
47
  8
0
 10
2.92595
 20
14.701
 30
0.0
 11
0.299
 21
13.72404
 31
0.0
  0
LINE
  5
48
  8
0
 10
0.299
 20
13.63869
 30
0.0
 11
3.15545
 21
14.701
 31
0.0
  0
LINE
  5
49
  8
0
 10
3.38496
 20
14.701
 30
0.0
 11
0.299
 21
13.55333
 31
0.0
  0
LINE
  5
4A
  8
0
 10
0.299
 20
13.46798
 30
0.0
 11
3.61448
 21
14.701
 31
0.0
  0
LINE
  5
4B
  8
0
 10
3.84398
 20
14.701
 30
0.0
 11
0.299
 21
13.38263
 31
0.0
  0
LINE
  5
4C
  8
0
 10
0.299
 20
13.29728
 30
0.0
 11
4.07348
 21
14.701
 31
0.0
  0
LINE
  5
4D
  8
0
 10
4.303
 20
14.701
 30
0.0
 11
0.299
 21
13.21192
 31
0.0
  0
LINE
  5
4E
  8
0
 10
0.299
 20
13.12657
 30
0.0
 11
4.53251
 21
14.701
 31
0.0
  0
LINE
  5
4F
  8
0
 10
4.76201
 20
14.701
 30
0.0
 11
0.299
 21
13.04122
 31
0.0
  0
LINE
  5
50
  8
0
 10
0.299
 20
12.95586
 30
0.0
 11
4.99151
 21
14.701
 31
0.0
  0
LINE
  5
51
  8
0
 10
5.22103
 20
14.701
 30
0.0
 11
0.299
 21
12.87051
 31
0.0
  0
LINE
  5
52
  8
0
 10
0.299
 20
12.78515
 30
0.0
 11
5.45054
 21
14.701
 31
0.0
  0
LINE
  5
53
  8
0
 10
5.68004
 20
14.701
 30
0.0
 11
0.299
 21
12.6998
 31
0.0
  0
LINE
  5
54
  8
0
 10
0.299
 20
12.61445
 30
0.0
 11
5.90954
 21
14.701
 31
0.0
  0
LINE
  5
55
  8
0
 10
6.13905
 20
14.701
 30
0.0
 11
0.299
 21
12.5291
 31
0.0
  0
LINE
  5
56
  8
0
 10
0.299
 20
12.44374
 30
0.0
 11
6.36857
 21
14.701
 31
0.0
  0
LINE
  5
57
  8
0
 10
6.59807
 20
14.701
 30
0.0
 11
0.299
 21
12.35839
 31
0.0
  0
LINE
  5
58
  8
0
 10
0.299
 20
12.27304
 30
0.0
 11
6.82758
 21
14.701
 31
0.0
  0
LINE
  5
59
  8
0
 10
7.05709
 20
14.701
 30
0.0
 11
0.299
 21
12.18768
 31
0.0
  0
LINE
  5
5A
  8
0
 10
0.299
 20
12.10233
 30
0.0
 11
7.2866
 21
14.701
 31
0.0
  0
LINE
  5
5B
  8
0
 10
7.5161
 20
14.701
 30
0.0
 11
0.299
 21
12.01698
 31
0.0
  0
LINE
  5
5C
  8
0
 10
0.299
 20
11.93163
 30
0.0
 11
7.7456
 21
14.701
 31
0.0
  0
LINE
  5
5D
  8
0
 10
7.97511
 20
14.701
 30
0.0
 11
0.299
 21
11.84627
 31
0.0
  0
LINE
  5
5E
  8
0
 10
0.299
 20
11.76092
 30
0.0
 11
8.20463
 21
14.701
 31
0.0
  0
LINE
  5
5F
  8
0
 10
8.43414
 20
14.701
 30
0.0
 11
0.299
 21
11.67557
 31
0.0
  0
LINE
  5
60
  8
0
 10
0.299
 20
11.59022
 30
0.0
 11
8.66363
 21
14.701
 31
0.0
  0
LINE
  5
61
  8
0
 10
8.89314
 20
14.701
 30
0.0
 11
0.299
 21
11.50486
 31
0.0
  0
LINE
  5
62
  8
0
 10
0.299
 20
11.41951
 30
0.0
 11
9.12266
 21
14.701
 31
0.0
  0
LINE
  5
63
  8
0
 10
9.35216
 20
14.701
 30
0.0
 11
0.299
 21
11.33416
 31
0.0
  0
LINE
  5
64
  8
0
 10
0.299
 20
11.2488
 30
0.0
 11
9.58166
 21
14.701
 31
0.0
  0
LINE
  5
65
  8
0
 10
9.81117
 20
14.701
 30
0.0
 11
0.299
 21
11.16344
 31
0.0
  0
LINE
  5
66
  8
0
 10
0.299
 20
11.07809
 30
0.0
 11
10.0407
 21
14.701
 31
0.0
  0
LINE
  5
67
  8
0
 10
10.27019
 20
14.701
 30
0.0
 11
0.299
 21
10.99274
 31
0.0
  0
LINE
  5
68
  8
0
 10
0.299
 20
10.90739
 30
0.0
 11
10.4997
 21
14.701
 31
0.0
  0
LINE
  5
69
  8
0
 10
10.7292
 20
14.701
 30
0.0
 11
0.299
 21
10.82203
 31
0.0
  0
LINE
  5
6A
  8
0
 10
0.299
 20
10.73668
 30
0.0
 11
10.95872
 21
14.701
 31
0.0
  0
LINE
  5
6B
  8
0
 10
11.18822
 20
14.701
 30
0.0
 11
0.299
 21
10.65133
 31
0.0
  0
LINE
  5
6C
  8
0
 10
0.299
 20
10.56598
 30
0.0
 11
11.41773
 21
14.701
 31
0.0
  0
LINE
  5
6D
  8
0
 10
11.64724
 20
14.701
 30
0.0
 11
0.299
 21
10.48062
 31
0.0
  0
LINE
  5
6E
  8
0
 10
0.299
 20
10.39527
 30
0.0
 11
11.87675
 21
14.701
 31
0.0
  0
LINE
  5
6F
  8
0
 10
12.10626
 20
14.701
 30
0.0
 11
0.299
 21
10.30992
 31
0.0
  0
LINE
  5
70
  8
0
 10
0.299
 20
10.22457
 30
0.0
 11
12.33575
 21
14.701
 31
0.0
  0
LINE
  5
71
  8
0
 10
12.56526
 20
14.701
 30
0.0
 11
0.299
 21
10.13921
 31
0.0
  0
LINE
  5
72
  8
0
 10
0.299
 20
10.05386
 30
0.0
 11
12.79478
 21
14.701
 31
0.0
  0
LINE
  5
73
  8
0
 10
13.02429
 20
14.701
 30
0.0
 11
0.299
 21
9.9685
 31
0.0
  0
LINE
  5
74
  8
0
 10
0.299
 20
9.88315
 30
0.0
 11
13.25379
 21
14.701
 31
0.0
  0
LINE
  5
75
  8
0
 10
13.48329
 20
14.701
 30
0.0
 11
0.299
 21
9.7978
 31
0.0
  0
LINE
  5
76
  8
0
 10
0.299
 20
9.71244
 30
0.0
 11
13.71282
 21
14.701
 31
0.0
  0
LINE
  5
77
  8
0
 10
13.94231
 20
14.701
 30
0.0
 11
0.299
 21
9.62709
 31
0.0
  0
LINE
  5
78
  8
0
 10
0.299
 20
9.54174
 30
0.0
 11
14.17182
 21
14.701
 31
0.0
  0
LINE
  5
79
  8
0
 10
14.40132
 20
14.701
 30
0.0
 11
0.299
 21
9.45638
 31
0.0
  0
LINE
  5
7A
  8
0
 10
0.299
 20
9.37103
 30
0.0
 11
14.63085
 21
14.701
 31
0.0
  0
LINE
  5
7B
  8
0
 10
14.701
 20
14.64173
 30
0.0
 11
0.299
 21
9.28568
 31
0.0
  0
LINE
  5
7C
  8
0
 10
0.299
 20
9.20033
 30
0.0
 11
14.701
 21
14.55638
 31
0.0
  0
LINE
  5
7D
  8
0
 10
14.701
 20
14.47103
 30
0.0
 11
0.299
 21
9.11497
 31
0.0
  0
LINE
  5
7E
  8
0
 10
0.299
 20
9.02962
 30
0.0
 11
14.701
 21
14.38567
 31
0.0
  0
LINE
  5
7F
  8
0
 10
14.701
 20
14.30032
 30
0.0
 11
0.299
 21
8.94427
 31
0.0
  0
LINE
  5
80
  8
0
 10
0.299
 20
8.85892
 30
0.0
 11
14.701
 21
14.21497
 31
0.0
  0
LINE
  5
81
  8
0
 10
14.701
 20
14.12962
 30
0.0
 11
0.299
 21
8.77356
 31
0.0
  0
LINE
  5
82
  8
0
 10
0.299
 20
8.68821
 30
0.0
 11
14.701
 21
14.04426
 31
0.0
  0
LINE
  5
83
  8
0
 10
14.701
 20
13.95891
 30
0.0
 11
0.299
 21
8.60285
 31
0.0
  0
LINE
  5
84
  8
0
 10
0.299
 20
8.51751
 30
0.0
 11
14.701
 21
13.87356
 31
0.0
  0
LINE
  5
85
  8
0
 10
14.701
 20
13.78821
 30
0.0
 11
0.299
 21
8.43215
 31
0.0
  0
LINE
  5
86
  8
0
 10
0.299
 20
8.34679
 30
0.0
 11
14.701
 21
13.70285
 31
0.0
  0
LINE
  5
87
  8
0
 10
14.701
 20
13.61749
 30
0.0
 11
0.299
 21
8.26144
 31
0.0
  0
LINE
  5
88
  8
0
 10
0.299
 20
8.17609
 30
0.0
 11
14.701
 21
13.53215
 31
0.0
  0
LINE
  5
89
  8
0
 10
14.701
 20
13.44679
 30
0.0
 11
0.299
 21
8.09073
 31
0.0
  0
LINE
  5
8A
  8
0
 10
0.299
 20
8.00538
 30
0.0
 11
14.701
 21
13.36144
 31
0.0
  0
LINE
  5
8B
  8
0
 10
14.701
 20
13.27608
 30
0.0
 11
0.299
 21
7.92003
 31
0.0
  0
LINE
  5
8C
  8
0
 10
0.299
 20
7.83468
 30
0.0
 11
14.701
 21
13.19073
 31
0.0
  0
LINE
  5
8D
  8
0
 10
14.701
 20
13.10538
 30
0.0
 11
0.299
 21
7.74932
 31
0.0
  0
LINE
  5
8E
  8
0
 10
0.299
 20
7.66397
 30
0.0
 11
14.701
 21
13.02002
 31
0.0
  0
LINE
  5
8F
  8
0
 10
14.701
 20
12.93467
 30
0.0
 11
0.299
 21
7.57862
 31
0.0
  0
LINE
  5
90
  8
0
 10
0.299
 20
7.49327
 30
0.0
 11
14.701
 21
12.84932
 31
0.0
  0
LINE
  5
91
  8
0
 10
14.701
 20
12.76397
 30
0.0
 11
0.299
 21
7.40791
 31
0.0
  0
LINE
  5
92
  8
0
 10
0.299
 20
7.32256
 30
0.0
 11
14.701
 21
12.67861
 31
0.0
  0
LINE
  5
93
  8
0
 10
14.701
 20
12.59326
 30
0.0
 11
0.299
 21
7.23721
 31
0.0
  0
LINE
  5
94
  8
0
 10
0.299
 20
7.15185
 30
0.0
 11
14.701
 21
12.50791
 31
0.0
  0
LINE
  5
95
  8
0
 10
14.701
 20
12.42256
 30
0.0
 11
0.299
 21
7.0665
 31
0.0
  0
LINE
  5
96
  8
0
 10
0.299
 20
6.98114
 30
0.0
 11
14.701
 21
12.3372
 31
0.0
  0
LINE
  5
97
  8
0
 10
14.701
 20
12.25185
 30
0.0
 11
0.299
 21
6.89579
 31
0.0
  0
LINE
  5
98
  8
0
 10
0.299
 20
6.81044
 30
0.0
 11
14.701
 21
12.1665
 31
0.0
  0
LINE
  5
99
  8
0
 10
14.701
 20
12.08114
 30
0.0
 11
0.299
 21
6.72508
 31
0.0
  0
LINE
  5
9A
  8
0
 10
0.299
 20
6.63973
 30
0.0
 11
14.701
 21
11.99579
 31
0.0
  0
LINE
  5
9B
  8
0
 10
14.701
 20
11.91043
 30
0.0
 11
0.299
 21
6.55438
 31
0.0
  0
LINE
  5
9C
  8
0
 10
0.299
 20
6.46903
 30
0.0
 11
14.701
 21
11.82508
 31
0.0
  0
LINE
  5
9D
  8
0
 10
14.701
 20
11.73973
 30
0.0
 11
0.299
 21
6.38368
 31
0.0
  0
LINE
  5
9E
  8
0
 10
0.299
 20
6.29832
 30
0.0
 11
14.701
 21
11.65437
 31
0.0
  0
LINE
  5
9F
  8
0
 10
14.701
 20
11.56902
 30
0.0
 11
0.299
 21
6.21297
 31
0.0
  0
LINE
  5
A0
  8
0
 10
0.299
 20
6.12762
 30
0.0
 11
14.701
 21
11.48367
 31
0.0
  0
LINE
  5
A1
  8
0
 10
14.701
 20
11.39832
 30
0.0
 11
0.299
 21
6.04227
 31
0.0
  0
LINE
  5
A2
  8
0
 10
0.299
 20
5.95691
 30
0.0
 11
14.701
 21
11.31297
 31
0.0
  0
LINE
  5
A3
  8
0
 10
14.701
 20
11.22761
 30
0.0
 11
0.299
 21
5.87156
 31
0.0
  0
LINE
  5
A4
  8
0
 10
0.299
 20
5.7862
 30
0.0
 11
14.701
 21
11.14226
 31
0.0
  0
LINE
  5
A5
  8
0
 10
14.701
 20
11.05691
 30
0.0
 11
0.299
 21
5.70086
 31
0.0
  0
LINE
  5
A6
  8
0
 10
0.299
 20
5.61549
 30
0.0
 11
14.701
 21
10.97156
 31
0.0
  0
LINE
  5
A7
  8
0
 10
14.701
 20
10.8862
 30
0.0
 11
0.299
 21
5.53014
 31
0.0
  0
LINE
  5
A8
  8
0
 10
0.299
 20
5.44479
 30
0.0
 11
14.701
 21
10.80085
 31
0.0
  0
LINE
  5
A9
  8
0
 10
14.701
 20
10.7155
 30
0.0
 11
0.299
 21
5.35944
 31
0.0
  0
LINE
  5
AA
  8
0
 10
0.299
 20
5.27408
 30
0.0
 11
14.701
 21
10.63014
 31
0.0
  0
LINE
  5
AB
  8
0
 10
14.701
 20
10.54479
 30
0.0
 11
0.299
 21
5.18873
 31
0.0
  0
LINE
  5
AC
  8
0
 10
0.299
 20
5.10338
 30
0.0
 11
14.701
 21
10.45943
 31
0.0
  0
LINE
  5
AD
  8
0
 10
14.701
 20
10.37408
 30
0.0
 11
0.299
 21
5.01803
 31
0.0
  0
LINE
  5
AE
  8
0
 10
0.299
 20
4.93267
 30
0.0
 11
14.701
 21
10.28873
 31
0.0
  0
LINE
  5
AF
  8
0
 10
14.701
 20
10.20337
 30
0.0
 11
0.299
 21
4.84732
 31
0.0
  0
LINE
  5
B0
  8
0
 10
0.299
 20
4.76197
 30
0.0
 11
14.701
 21
10.11802
 31
0.0
  0
LINE
  5
B1
  8
0
 10
14.701
 20
10.03267
 30
0.0
 11
0.299
 21
4.67662
 31
0.0
  0
LINE
  5
B2
  8
0
 10
0.299
 20
4.59126
 30
0.0
 11
14.701
 21
9.94732
 31
0.0
  0
LINE
  5
B3
  8
0
 10
14.701
 20
9.86196
 30
0.0
 11
0.299
 21
4.50591
 31
0.0
  0
LINE
  5
B4
  8
0
 10
0.299
 20
4.42056
 30
0.0
 11
14.701
 21
9.77661
 31
0.0
  0
LINE
  5
B5
  8
0
 10
14.701
 20
9.69126
 30
0.0
 11
0.299
 21
4.33521
 31
0.0
  0
LINE
  5
B6
  8
0
 10
0.299
 20
4.24985
 30
0.0
 11
14.701
 21
9.60591
 31
0.0
  0
LINE
  5
B7
  8
0
 10
14.701
 20
9.52055
 30
0.0
 11
0.299
 21
4.16449
 31
0.0
  0
LINE
  5
B8
  8
0
 10
0.299
 20
4.07914
 30
0.0
 11
14.701
 21
9.4352
 31
0.0
  0
LINE
  5
B9
  8
0
 10
14.701
 20
9.34985
 30
0.0
 11
0.299
 21
3.99379
 31
0.0
  0
LINE
  5
BA
  8
0
 10
0.299
 20
3.90843
 30
0.0
 11
14.701
 21
9.26449
 31
0.0
  0
LINE
  5
BB
  8
0
 10
14.701
 20
9.17914
 30
0.0
 11
0.299
 21
3.82308
 31
0.0
  0
LINE
  5
BC
  8
0
 10
0.299
 20
3.73773
 30
0.0
 11
14.701
 21
9.09378
 31
0.0
  0
LINE
  5
BD
  8
0
 10
14.701
 20
9.00844
 30
0.0
 11
0.299
 21
3.65238
 31
0.0
  0
LINE
  5
BE
  8
0
 10
0.299
 20
3.56702
 30
0.0
 11
14.701
 21
8.92308
 31
0.0
  0
LINE
  5
BF
  8
0
 10
14.701
 20
8.83772
 30
0.0
 11
0.299
 21
3.48167
 31
0.0
  0
LINE
  5
C0
  8
0
 10
0.299
 20
3.39632
 30
0.0
 11
14.701
 21
8.75237
 31
0.0
  0
LINE
  5
C1
  8
0
 10
14.701
 20
8.66702
 30
0.0
 11
0.299
 21
3.31097
 31
0.0
  0
LINE
  5
C2
  8
0
 10
0.299
 20
3.22561
 30
0.0
 11
14.701
 21
8.58167
 31
0.0
  0
LINE
  5
C3
  8
0
 10
14.701
 20
8.49631
 30
0.0
 11
0.299
 21
3.14026
 31
0.0
  0
LINE
  5
C4
  8
0
 10
0.299
 20
3.05491
 30
0.0
 11
14.701
 21
8.41096
 31
0.0
  0
LINE
  5
C5
  8
0
 10
14.701
 20
8.32561
 30
0.0
 11
0.299
 21
2.96955
 31
0.0
  0
LINE
  5
C6
  8
0
 10
0.299
 20
2.8842
 30
0.0
 11
14.701
 21
8.24026
 31
0.0
  0
LINE
  5
C7
  8
0
 10
14.701
 20
8.1549
 30
0.0
 11
0.299
 21
2.79884
 31
0.0
  0
LINE
  5
C8
  8
0
 10
0.299
 20
2.71349
 30
0.0
 11
14.701
 21
8.06955
 31
0.0
  0
LINE
  5
C9
  8
0
 10
14.701
 20
7.9842
 30
0.0
 11
0.299
 21
2.62814
 31
0.0
  0
LINE
  5
CA
  8
0
 10
0.299
 20
2.54278
 30
0.0
 11
14.701
 21
7.89884
 31
0.0
  0
LINE
  5
CB
  8
0
 10
14.701
 20
7.81348
 30
0.0
 11
0.299
 21
2.45743
 31
0.0
  0
LINE
  5
CC
  8
0
 10
0.299
 20
2.37208
 30
0.0
 11
14.701
 21
7.72813
 31
0.0
  0
LINE
  5
CD
  8
0
 10
14.701
 20
7.64278
 30
0.0
 11
0.299
 21
2.28673
 31
0.0
  0
LINE
  5
CE
  8
0
 10
0.299
 20
2.20137
 30
0.0
 11
14.701
 21
7.55743
 31
0.0
  0
LINE
  5
CF
  8
0
 10
14.701
 20
7.47207
 30
0.0
 11
0.299
 21
2.11602
 31
0.0
  0
LINE
  5
D0
  8
0
 10
0.299
 20
2.03067
 30
0.0
 11
14.701
 21
7.38672
 31
0.0
  0
LINE
  5
D1
  8
0
 10
14.701
 20
7.30137
 30
0.0
 11
0.299
 21
1.94532
 31
0.0
  0
LINE
  5
D2
  8
0
 10
0.299
 20
1.85996
 30
0.0
 11
14.701
 21
7.21602
 31
0.0
  0
LINE
  5
D3
  8
0
 10
14.701
 20
7.13066
 30
0.0
 11
0.299
 21
1.77461
 31
0.0
  0
LINE
  5
D4
  8
0
 10
0.299
 20
1.68926
 30
0.0
 11
14.701
 21
7.04531
 31
0.0
  0
LINE
  5
D5
  8
0
 10
14.701
 20
6.95996
 30
0.0
 11
0.299
 21
1.6039
 31
0.0
  0
LINE
  5
D6
  8
0
 10
0.299
 20
1.51855
 30
0.0
 11
14.701
 21
6.87461
 31
0.0
  0
LINE
  5
D7
  8
0
 10
14.701
 20
6.78925
 30
0.0
 11
0.299
 21
1.43319
 31
0.0
  0
LINE
  5
D8
  8
0
 10
0.299
 20
1.34784
 30
0.0
 11
14.701
 21
6.7039
 31
0.0
  0
LINE
  5
D9
  8
0
 10
14.701
 20
6.61855
 30
0.0
 11
0.299
 21
1.26249
 31
0.0
  0
LINE
  5
DA
  8
0
 10
0.299
 20
1.17713
 30
0.0
 11
14.701
 21
6.53319
 31
0.0
  0
LINE
  5
DB
  8
0
 10
14.701
 20
6.44783
 30
0.0
 11
0.299
 21
1.09178
 31
0.0
  0
LINE
  5
DC
  8
0
 10
0.299
 20
1.00643
 30
0.0
 11
14.701
 21
6.36249
 31
0.0
  0
LINE
  5
DD
  8
0
 10
14.701
 20
6.27713
 30
0.0
 11
0.299
 21
0.92108
 31
0.0
  0
LINE
  5
DE
  8
0
 10
0.299
 20
0.83572
 30
0.0
 11
14.701
 21
6.19178
 31
0.0
  0
LINE
  5
DF
  8
0
 10
14.701
 20
6.10642
 30
0.0
 11
0.299
 21
0.75037
 31
0.0
  0
LINE
  5
E0
  8
0
 10
0.299
 20
0.66502
 30
0.0
 11
14.701
 21
6.02107
 31
0.0
  0
LINE
  5
E1
  8
0
 10
14.701
 20
5.93572
 30
0.0
 11
0.299
 21
0.57967
 31
0.0
  0
LINE
  5
E2
  8
0
 10
0.299
 20
0.49431
 30
0.0
 11
14.701
 21
5.85037
 31
0.0
  0
LINE
  5
E3
  8
0
 10
14.701
 20
5.76501
 30
0.0
 11
0.299
 21
0.40896
 31
0.0
  0
LINE
  5
E4
  8
0
 10
0.299
 20
0.32361
 30
0.0
 11
14.701
 21
5.67966
 31
0.0
  0
LINE
  5
E5
  8
0
 10
14.701
 20
5.59431
 30
0.0
 11
0.46232
 21
0.299
 31
0.0
  0
LINE
  5
E6
  8
0
 10
0.69185
 20
0.299
 30
0.0
 11
14.701
 21
5.50896
 31
0.0
  0
LINE
  5
E7
  8
0
 10
14.701
 20
5.4236
 30
0.0
 11
0.92135
 21
0.299
 31
0.0
  0
LINE
  5
E8
  8
0
 10
1.15086
 20
0.299
 30
0.0
 11
14.701
 21
5.33825
 31
0.0
  0
LINE
  5
E9
  8
0
 10
14.701
 20
5.2529
 30
0.0
 11
1.38035
 21
0.299
 31
0.0
  0
LINE
  5
EA
  8
0
 10
1.60988
 20
0.299
 30
0.0
 11
14.701
 21
5.16755
 31
0.0
  0
LINE
  5
EB
  8
0
 10
14.701
 20
5.08219
 30
0.0
 11
1.83938
 21
0.299
 31
0.0
  0
LINE
  5
EC
  8
0
 10
2.06888
 20
0.299
 30
0.0
 11
14.701
 21
4.99684
 31
0.0
  0
LINE
  5
ED
  8
0
 10
14.701
 20
4.91148
 30
0.0
 11
2.29839
 21
0.299
 31
0.0
  0
LINE
  5
EE
  8
0
 10
2.52791
 20
0.299
 30
0.0
 11
14.701
 21
4.82613
 31
0.0
  0
LINE
  5
EF
  8
0
 10
14.701
 20
4.74077
 30
0.0
 11
2.75742
 21
0.299
 31
0.0
  0
LINE
  5
F0
  8
0
 10
2.98691
 20
0.299
 30
0.0
 11
14.701
 21
4.65542
 31
0.0
  0
LINE
  5
F1
  8
0
 10
14.701
 20
4.57007
 30
0.0
 11
3.21642
 21
0.299
 31
0.0
  0
LINE
  5
F2
  8
0
 10
3.44594
 20
0.299
 30
0.0
 11
14.701
 21
4.48472
 31
0.0
  0
LINE
  5
F3
  8
0
 10
14.701
 20
4.39936
 30
0.0
 11
3.67544
 21
0.299
 31
0.0
  0
LINE
  5
F4
  8
0
 10
3.90495
 20
0.299
 30
0.0
 11
14.701
 21
4.31401
 31
0.0
  0
LINE
  5
F5
  8
0
 10
14.701
 20
4.22866
 30
0.0
 11
4.13445
 21
0.299
 31
0.0
  0
LINE
  5
F6
  8
0
 10
4.36397
 20
0.299
 30
0.0
 11
14.701
 21
4.14331
 31
0.0
  0
LINE
  5
F7
  8
0
 10
14.701
 20
4.05795
 30
0.0
 11
4.59347
 21
0.299
 31
0.0
  0
LINE
  5
F8
  8
0
 10
4.82298
 20
0.299
 30
0.0
 11
14.701
 21
3.9726
 31
0.0
  0
LINE
  5
F9
  8
0
 10
14.701
 20
3.88725
 30
0.0
 11
5.05247
 21
0.299
 31
0.0
  0
LINE
  5
FA
  8
0
 10
5.282
 20
0.299
 30
0.0
 11
14.701
 21
3.8019
 31
0.0
  0
LINE
  5
FB
  8
0
 10
14.701
 20
3.71654
 30
0.0
 11
5.51151
 21
0.299
 31
0.0
  0
LINE
  5
FC
  8
0
 10
5.74101
 20
0.299
 30
0.0
 11
14.701
 21
3.63118
 31
0.0
  0
LINE
  5
FD
  8
0
 10
14.701
 20
3.54584
 30
0.0
 11
5.97051
 21
0.299
 31
0.0
  0
LINE
  5
FE
  8
0
 10
6.20003
 20
0.299
 30
0.0
 11
14.701
 21
3.46048
 31
0.0
  0
LINE
  5
FF
  8
0
 10
14.701
 20
3.37512
 30
0.0
 11
6.42954
 21
0.299
 31
0.0
  0
LINE
  5
100
  8
0
 10
6.65903
 20
0.299
 30
0.0
 11
14.701
 21
3.28977
 31
0.0
  0
LINE
  5
101
  8
0
 10
14.701
 20
3.20442
 30
0.0
 11
6.88854
 21
0.299
 31
0.0
  0
LINE
  5
102
  8
0
 10
7.11806
 20
0.299
 30
0.0
 11
14.701
 21
3.11907
 31
0.0
  0
LINE
  5
103
  8
0
 10
14.701
 20
3.03371
 30
0.0
 11
7.34757
 21
0.299
 31
0.0
  0
LINE
  5
104
  8
0
 10
7.57707
 20
0.299
 30
0.0
 11
14.701
 21
2.94836
 31
0.0
  0
LINE
  5
105
  8
0
 10
14.701
 20
2.86301
 30
0.0
 11
7.80657
 21
0.299
 31
0.0
  0
LINE
  5
106
  8
0
 10
8.03609
 20
0.299
 30
0.0
 11
14.701
 21
2.77766
 31
0.0
  0
LINE
  5
107
  8
0
 10
14.701
 20
2.6923
 30
0.0
 11
8.2656
 21
0.299
 31
0.0
  0
LINE
  5
108
  8
0
 10
8.4951
 20
0.299
 30
0.0
 11
14.701
 21
2.60695
 31
0.0
  0
LINE
  5
109
  8
0
 10
14.701
 20
2.5216
 30
0.0
 11
8.7246
 21
0.299
 31
0.0
  0
LINE
  5
10A
  8
0
 10
8.95412
 20
0.299
 30
0.0
 11
14.701
 21
2.43624
 31
0.0
  0
LINE
  5
10B
  8
0
 10
14.701
 20
2.35089
 30
0.0
 11
9.18363
 21
0.299
 31
0.0
  0
LINE
  5
10C
  8
0
 10
9.41313
 20
0.299
 30
0.0
 11
14.701
 21
2.26554
 31
0.0
  0
LINE
  5
10D
  8
0
 10
14.701
 20
2.18019
 30
0.0
 11
9.64263
 21
0.299
 31
0.0
  0
LINE
  5
10E
  8
0
 10
9.87215
 20
0.299
 30
0.0
 11
14.701
 21
2.09483
 31
0.0
  0
LINE
  5
10F
  8
0
 10
14.701
 20
2.00947
 30
0.0
 11
10.10166
 21
0.299
 31
0.0
  0
LINE
  5
110
  8
0
 10
10.33116
 20
0.299
 30
0.0
 11
14.701
 21
1.92412
 31
0.0
  0
LINE
  5
111
  8
0
 10
14.701
 20
1.83877
 30
0.0
 11
10.56066
 21
0.299
 31
0.0
  0
LINE
  5
112
  8
0
 10
10.79017
 20
0.299
 30
0.0
 11
14.701
 21
1.75342
 31
0.0
  0
LINE
  5
113
  8
0
 10
14.701
 20
1.66806
 30
0.0
 11
11.01969
 21
0.299
 31
0.0
  0
LINE
  5
114
  8
0
 10
11.24919
 20
0.299
 30
0.0
 11
14.701
 21
1.58271
 31
0.0
  0
LINE
  5
115
  8
0
 10
14.701
 20
1.49736
 30
0.0
 11
11.47869
 21
0.299
 31
0.0
  0
LINE
  5
116
  8
0
 10
11.70821
 20
0.299
 30
0.0
 11
14.701
 21
1.41201
 31
0.0
  0
LINE
  5
117
  8
0
 10
14.701
 20
1.32665
 30
0.0
 11
11.93772
 21
0.299
 31
0.0
  0
LINE
  5
118
  8
0
 10
12.16722
 20
0.299
 30
0.0
 11
14.701
 21
1.2413
 31
0.0
  0
LINE
  5
119
  8
0
 10
14.701
 20
1.15595
 30
0.0
 11
12.39672
 21
0.299
 31
0.0
  0
LINE
  5
11A
  8
0
 10
12.62623
 20
0.299
 30
0.0
 11
14.701
 21
1.07059
 31
0.0
  0
LINE
  5
11B
  8
0
 10
14.701
 20
0.98524
 30
0.0
 11
12.85575
 21
0.299
 31
0.0
  0
LINE
  5
11C
  8
0
 10
13.08525
 20
0.299
 30
0.0
 11
14.701
 21
0.89989
 31
0.0
  0
LINE
  5
11D
  8
0
 10
14.701
 20
0.81453
 30
0.0
 11
13.31476
 21
0.299
 31
0.0
  0
LINE
  5
11E
  8
0
 10
13.54426
 20
0.299
 30
0.0
 11
14.701
 21
0.72918
 31
0.0
  0
LINE
  5
11F
  8
0
 10
14.701
 20
0.64382
 30
0.0
 11
13.77378
 21
0.299
 31
0.0
  0
LINE
  5
120
  8
0
 10
14.00328
 20
0.299
 30
0.0
 11
14.701
 21
0.55847
 31
0.0
  0
LINE
  5
121
  8
0
 10
14.701
 20
0.47312
 30
0.0
 11
14.23278
 21
0.299
 31
0.0
  0
LINE
  5
122
  8
0
 10
14.46229
 20
0.299
 30
0.0
 11
14.701
 21
0.38777
 31
0.0
  0
LINE
  5
123
  8
0
 10
14.701
 20
0.30241
 30
0.0
 11
14.69181
 21
0.299
 31
0.0
  0
ENDSEC
  0
EOF
