  0
SECTION
  2
HEADER
  9
$ACADVER
  1
AC1009
  9
$DWGCODEPAGE
  3
ANSI_1252
  9
$INSBASE
 10
0.0
 20
0.0
 30
0.0
  9
$EXTMIN
 10
1e+20
 20
1e+20
 30
1e+20
  9
$EXTMAX
 10
-1e+20
 20
-1e+20
 30
-1e+20
  9
$LIMMIN
 10
0.0
 20
0.0
  9
$LIMMAX
 10
420.0
 20
297.0
  9
$ORTHOMODE
 70
0
  9
$REGENMODE
 70
1
  9
$FILLMODE
 70
1
  9
$DRAGMODE
 70
2
  9
$QTEXTMODE
 70
0
  9
$MIRRTEXT
 70
1
  9
$OSMODE
 70
20583
  9
$LTSCALE
 40
1.0
  9
$ATTMODE
 70
1
  9
$TEXTSIZE
 40
2.5
  9
$TRACEWID
 40
1.0
  9
$TEXTSTYLE
  7
Standard
  9
$CLAYER
  8
0
  9
$CELTYPE
  6
ByLayer
  9
$CECOLOR
 62
256
  9
$DIMSCALE
 40
1.0
  9
$DIMASZ
 40
2.5
  9
$DIMEXO
 40
0.625
  9
$DIMDLI
 40
3.75
  9
$DIMRND
 40
0.0
  9
$DIMDLE
 40
0.0
  9
$DIMEXE
 40
1.25
  9
$DIMTP
 40
0.0
  9
$DIMTM
 40
0.0
  9
$DIMTXT
 40
2.5
  9
$DIMCEN
 40
2.5
  9
$DIMTSZ
 40
0.0
  9
$DIMTOL
 70
0
  9
$DIMLIM
 70
0
  9
$DIMTIH
 70
0
  9
$DIMTOH
 70
0
  9
$DIMSE1
 70
0
  9
$DIMSE2
 70
0
  9
$DIMTAD
 70
1
  9
$DIMZIN
 70
8
  9
$DIMBLK
  1

  9
$DIMASO
 70
1
  9
$DIMSHO
 70
1
  9
$DIMPOST
  1

  9
$DIMAPOST
  1

  9
$DIMALT
 70
0
  9
$DIMALTD
 70
3
  9
$DIMALTF
 40
0.03937007874
  9
$DIMLFAC
 40
1.0
  9
$DIMTOFL
 70
1
  9
$DIMTVP
 40
0.0
  9
$DIMTIX
 70
0
  9
$DIMSOXD
 70
0
  9
$DIMSAH
 70
0
  9
$DIMBLK1
  1

  9
$DIMBLK2
  1

  9
$DIMSTYLE
  2
ISO-25
  9
$DIMCLRD
 70
0
  9
$DIMCLRE
 70
0
  9
$DIMCLRT
 70
0
  9
$DIMTFAC
 40
1.0
  9
$DIMGAP
 40
0.625
  9
$COORDS
 70
1
  9
$ATTDIA
 70
0
  9
$ATTREQ
 70
1
  9
$HANDLING
 70
1
  9
$LUNITS
 70
2
  9
$LUPREC
 70
4
  9
$SKETCHINC
 40
1.0
  9
$FILLETRAD
 40
10.0
  9
$AUNITS
 70
0
  9
$AUPREC
 70
2
  9
$MENU
  1
.
  9
$ELEVATION
 40
0.0
  9
$PELEVATION
 40
0.0
  9
$THICKNESS
 40
0.0
  9
$LIMCHECK
 70
0
  9
$CHAMFERA
 40
0.0
  9
$CHAMFERB
 40
0.0
  9
$SKPOLY
 70
0
  9
$TDCREATE
 40
2460887.6268055555
  9
$TDUPDATE
 40
2460887.6268055555
  9
$TDINDWG
 40
0.0
  9
$TDUSRTIMER
 40
0.0
  9
$USRTIMER
 70
1
  9
$ANGBASE
 50
0.0
  9
$ANGDIR
 70
0
  9
$PDMODE
 70
0
  9
$PDSIZE
 40
0.0
  9
$PLINEWID
 40
0.0
  9
$SPLFRAME
 70
0
  9
$SPLINETYPE
 70
6
  9
$SPLINESEGS
 70
8
  9
$HANDSEED
  5
231
  9
$SURFTAB1
 70
6
  9
$SURFTAB2
 70
6
  9
$SURFTYPE
 70
6
  9
$SURFU
 70
6
  9
$SURFV
 70
6
  9
$UCSNAME
  2

  9
$UCSORG
 10
0.0
 20
0.0
 30
0.0
  9
$UCSXDIR
 10
1.0
 20
0.0
 30
0.0
  9
$UCSYDIR
 10
0.0
 20
1.0
 30
0.0
  9
$PUCSNAME
  2

  9
$PUCSORG
 10
0.0
 20
0.0
 30
0.0
  9
$PUCSXDIR
 10
1.0
 20
0.0
 30
0.0
  9
$PUCSYDIR
 10
0.0
 20
1.0
 30
0.0
  9
$USERI1
 70
0
  9
$USERI2
 70
0
  9
$USERI3
 70
0
  9
$USERI4
 70
0
  9
$USERI5
 70
0
  9
$USERR1
 40
0.0
  9
$USERR2
 40
0.0
  9
$USERR3
 40
0.0
  9
$USERR4
 40
0.0
  9
$USERR5
 40
0.0
  9
$WORLDVIEW
 70
1
  9
$SHADEDGE
 70
3
  9
$SHADEDIF
 70
70
  9
$TILEMODE
 70
1
  9
$MAXACTVP
 70
64
  9
$PLIMCHECK
 70
0
  9
$PEXTMIN
 10
1e+20
 20
1e+20
 30
1e+20
  9
$PEXTMAX
 10
-1e+20
 20
-1e+20
 30
-1e+20
  9
$PLIMMIN
 10
0.0
 20
0.0
  9
$PLIMMAX
 10
420.0
 20
297.0
  9
$UNITMODE
 70
0
  9
$VISRETAIN
 70
1
  9
$PLINEGEN
 70
0
  9
$PSLTSCALE
 70
1
  0
ENDSEC
  0
SECTION
  2
TABLES
  0
TABLE
  2
VPORT
 70
1
  0
VPORT
  5
23
  2
*Active
 70
0
 10
0.0
 20
0.0
 11
1.0
 21
1.0
 12
0.0
 22
0.0
 13
0.0
 23
0.0
 14
0.5
 24
0.5
 15
0.5
 25
0.5
 16
0.0
 26
0.0
 36
1.0
 17
0.0
 27
0.0
 37
0.0
 40
1000.0
 41
1.34
 42
50.0
 43
0.0
 44
0.0
 50
0.0
 51
0.0
 71
0
 72
1000
 73
1
 74
3
 75
0
 76
0
 77
0
 78
0
  0
ENDTAB
  0
TABLE
  2
LTYPE
 70
3
  0
LTYPE
  5
24
  2
ByBlock
 70
0
  3

 72
65
 73
0
 40
0.0
  0
LTYPE
  5
25
  2
ByLayer
 70
0
  3

 72
65
 73
0
 40
0.0
  0
LTYPE
  5
26
  2
Continuous
 70
0
  3

 72
65
 73
0
 40
0.0
  0
ENDTAB
  0
TABLE
  2
LAYER
 70
2
  0
LAYER
  5
27
  2
0
 70
0
 62
7
  6
Continuous
  0
LAYER
  5
28
  2
Defpoints
 70
0
 62
7
  6
Continuous
  0
ENDTAB
  0
TABLE
  2
STYLE
 70
1
  0
STYLE
  5
29
  2
Standard
 70
0
 40
0.0
 41
1.0
 50
0.0
 71
0
 42
2.5
  3
txt
  4

  0
ENDTAB
  0
TABLE
  2
VIEW
 70
0
  0
ENDTAB
  0
TABLE
  2
UCS
 70
0
  0
ENDTAB
  0
TABLE
  2
APPID
 70
3
  0
APPID
  5
2A
  2
ACAD
 70
0
  0
APPID
  5
22F
  2
HATCHBACKGROUNDCOLOR
 70
0
  0
APPID
  5
230
  2
EZDXF
 70
0
  0
ENDTAB
  0
TABLE
  2
DIMSTYLE
 70
1
  0
DIMSTYLE
105
2B
  2
Standard
 70
0
  3

  4

  5

  6

  7

 40
1.0
 41
2.5
 42
0.625
 43
3.75
 44
1.25
 45
0.0
 46
0.0
 47
0.0
 48
0.0
140
2.5
141
2.5
142
0.0
143
0.03937007874
144
1.0
145
0.0
146
1.0
147
0.625
 71
0
 72
0
 73
0
 74
0
 75
0
 76
0
 77
1
 78
8
170
0
171
3
172
1
173
0
174
0
175
0
176
0
177
0
178
0
  0
ENDTAB
  0
ENDSEC
  0
SECTION
  2
BLOCKS
  0
BLOCK
  5
18
  8
0
  2
$Model_Space
 70
0
 10
0.0
 20
0.0
 30
0.0
  3
$Model_Space
  1

1001
EZDXF
1000
CREATED_BY_EZDXF
1000
1.4.2 @ 2025-07-30T18:02:36.797819+00:00
1000
WRITTEN_BY_EZDXF
1000
1.4.2 @ 2025-07-30T18:02:36.827704+00:00
  0
ENDBLK
  5
19
  8
0
  0
BLOCK
  5
1C
  8
0
  2
$Paper_Space
 70
0
 10
0.0
 20
0.0
 30
0.0
  3
$Paper_Space
  1

  0
ENDBLK
  5
1D
  8
0
  0
ENDSEC
  0
SECTION
  2
ENTITIES
  0
LINE
  5
2D
  8
0
 10
2.402164
 20
0.43193
 30
0.0
 11
7.240431
 21
0.580974
 31
0.0
  0
LINE
  5
2E
  8
0
 10
7.240431
 20
0.580974
 30
0.0
 11
13.066586
 21
0.454201
 31
0.0
  0
LINE
  5
2F
  8
0
 10
13.066586
 20
0.454201
 30
0.0
 11
14.292117
 21
0.782501
 31
0.0
  0
LINE
  5
30
  8
0
 10
14.292117
 20
0.782501
 30
0.0
 11
14.623141
 21
1.30852
 31
0.0
  0
LINE
  5
31
  8
0
 10
14.623141
 20
1.30852
 30
0.0
 11
14.749755
 21
2.296426
 31
0.0
  0
LINE
  5
32
  8
0
 10
14.749755
 20
2.296426
 30
0.0
 11
14.59723
 21
14.606773
 31
0.0
  0
LINE
  5
33
  8
0
 10
14.59723
 20
14.606773
 30
0.0
 11
2.249599
 21
14.753266
 31
0.0
  0
LINE
  5
34
  8
0
 10
2.249599
 20
14.753266
 30
0.0
 11
1.255713
 21
14.607567
 31
0.0
  0
LINE
  5
35
  8
0
 10
1.255713
 20
14.607567
 30
0.0
 11
0.788364
 21
14.298425
 31
0.0
  0
LINE
  5
36
  8
0
 10
0.788364
 20
14.298425
 30
0.0
 11
0.537754
 21
13.733923
 31
0.0
  0
LINE
  5
37
  8
0
 10
0.537754
 20
13.733923
 30
0.0
 11
0.43683
 21
12.720808
 31
0.0
  0
LINE
  5
38
  8
0
 10
0.43683
 20
12.720808
 30
0.0
 11
0.581584
 21
7.803327
 31
0.0
  0
LINE
  5
39
  8
0
 10
0.581584
 20
7.803327
 30
0.0
 11
0.442747
 21
2.200614
 31
0.0
  0
LINE
  5
3A
  8
0
 10
0.442747
 20
2.200614
 30
0.0
 11
0.561752
 21
1.339985
 31
0.0
  0
LINE
  5
3B
  8
0
 10
0.561752
 20
1.339985
 30
0.0
 11
0.806799
 21
0.85731
 31
0.0
  0
LINE
  5
3C
  8
0
 10
0.806799
 20
0.85731
 30
0.0
 11
1.279298
 21
0.578642
 31
0.0
  0
LINE
  5
3D
  8
0
 10
1.279298
 20
0.578642
 30
0.0
 11
2.402164
 21
0.43193
 31
0.0
  0
LINE
  5
3E
  8
0
 10
2.402164
 20
0.43193
 30
0.0
 11
2.402164
 21
0.43193
 31
0.0
  0
LINE
  5
3F
  8
0
 10
2.402164
 20
0.43193
 30
0.0
 11
7.240431
 21
0.580974
 31
0.0
  0
LINE
  5
40
  8
0
 10
7.240431
 20
0.580974
 30
0.0
 11
13.066586
 21
0.454201
 31
0.0
  0
LINE
  5
41
  8
0
 10
13.066586
 20
0.454201
 30
0.0
 11
14.292117
 21
0.782501
 31
0.0
  0
LINE
  5
42
  8
0
 10
14.292117
 20
0.782501
 30
0.0
 11
14.623141
 21
1.30852
 31
0.0
  0
LINE
  5
43
  8
0
 10
14.623141
 20
1.30852
 30
0.0
 11
14.749755
 21
2.296426
 31
0.0
  0
LINE
  5
44
  8
0
 10
14.749755
 20
2.296426
 30
0.0
 11
14.59723
 21
14.606773
 31
0.0
  0
LINE
  5
45
  8
0
 10
14.59723
 20
14.606773
 30
0.0
 11
2.249599
 21
14.753266
 31
0.0
  0
LINE
  5
46
  8
0
 10
2.249599
 20
14.753266
 30
0.0
 11
1.255713
 21
14.607567
 31
0.0
  0
LINE
  5
47
  8
0
 10
1.255713
 20
14.607567
 30
0.0
 11
0.788364
 21
14.298425
 31
0.0
  0
LINE
  5
48
  8
0
 10
0.788364
 20
14.298425
 30
0.0
 11
0.537754
 21
13.733923
 31
0.0
  0
LINE
  5
49
  8
0
 10
0.537754
 20
13.733923
 30
0.0
 11
0.43683
 21
12.720808
 31
0.0
  0
LINE
  5
4A
  8
0
 10
0.43683
 20
12.720808
 30
0.0
 11
0.581584
 21
7.803327
 31
0.0
  0
LINE
  5
4B
  8
0
 10
0.581584
 20
7.803327
 30
0.0
 11
0.442747
 21
2.200614
 31
0.0
  0
LINE
  5
4C
  8
0
 10
0.442747
 20
2.200614
 30
0.0
 11
0.561752
 21
1.339985
 31
0.0
  0
LINE
  5
4D
  8
0
 10
0.561752
 20
1.339985
 30
0.0
 11
0.806799
 21
0.85731
 31
0.0
  0
LINE
  5
4E
  8
0
 10
0.806799
 20
0.85731
 30
0.0
 11
1.279298
 21
0.578642
 31
0.0
  0
LINE
  5
4F
  8
0
 10
1.279298
 20
0.578642
 30
0.0
 11
2.402164
 21
0.43193
 31
0.0
  0
LINE
  5
50
  8
0
 10
2.402164
 20
0.43193
 30
0.0
 11
2.402164
 21
0.43193
 31
0.0
  0
LINE
  5
51
  8
0
 10
14.626139
 20
7.311793
 30
0.0
 11
14.626139
 21
7.311793
 31
0.0
  0
LINE
  5
52
  8
0
 10
2.592849
 20
0.437
 30
0.0
 11
2.592849
 21
0.642205
 31
0.0
  0
LINE
  5
53
  8
0
 10
2.592849
 20
0.437
 30
0.0
 11
2.592849
 21
0.642205
 31
0.0
  0
LINE
  5
54
  8
0
 10
2.592849
 20
0.642205
 30
0.0
 11
2.592849
 21
0.809051
 31
0.0
  0
LINE
  5
55
  8
0
 10
2.592849
 20
0.809051
 30
0.0
 11
2.592849
 21
1.691319
 31
0.0
  0
LINE
  5
56
  8
0
 10
2.592849
 20
1.691319
 30
0.0
 11
2.592849
 21
1.879076
 31
0.0
  0
LINE
  5
57
  8
0
 10
2.592849
 20
1.879076
 30
0.0
 11
2.592849
 21
2.073284
 31
0.0
  0
LINE
  5
58
  8
0
 10
2.592849
 20
2.073284
 30
0.0
 11
2.592849
 21
2.44731
 31
0.0
  0
LINE
  5
59
  8
0
 10
2.592849
 20
2.44731
 30
0.0
 11
2.592849
 21
3.551271
 31
0.0
  0
LINE
  5
5A
  8
0
 10
2.592849
 20
3.551271
 30
0.0
 11
2.592849
 21
3.72343
 31
0.0
  0
LINE
  5
5B
  8
0
 10
2.592849
 20
3.72343
 30
0.0
 11
2.592849
 21
3.900692
 31
0.0
  0
LINE
  5
5C
  8
0
 10
2.592849
 20
3.900692
 30
0.0
 11
2.592849
 21
4.79056
 31
0.0
  0
LINE
  5
5D
  8
0
 10
2.592849
 20
4.79056
 30
0.0
 11
2.592849
 21
5.162406
 31
0.0
  0
LINE
  5
5E
  8
0
 10
2.592849
 20
5.162406
 30
0.0
 11
2.592849
 21
5.536432
 31
0.0
  0
LINE
  5
5F
  8
0
 10
2.592849
 20
5.536432
 30
0.0
 11
2.592849
 21
5.808435
 31
0.0
  0
LINE
  5
60
  8
0
 10
2.592849
 20
5.808435
 30
0.0
 11
2.592849
 21
5.985697
 31
0.0
  0
LINE
  5
61
  8
0
 10
2.592849
 20
5.985697
 30
0.0
 11
2.592849
 21
6.875565
 31
0.0
  0
LINE
  5
62
  8
0
 10
2.592849
 20
6.875565
 30
0.0
 11
2.592849
 21
7.147568
 31
0.0
  0
LINE
  5
63
  8
0
 10
2.592849
 20
7.147568
 30
0.0
 11
2.592849
 21
7.367477
 31
0.0
  0
LINE
  5
64
  8
0
 10
2.592849
 20
7.367477
 30
0.0
 11
2.592849
 21
7.741503
 31
0.0
  0
LINE
  5
65
  8
0
 10
2.592849
 20
7.741503
 30
0.0
 11
2.592849
 21
8.070702
 31
0.0
  0
LINE
  5
66
  8
0
 10
2.592849
 20
8.070702
 30
0.0
 11
2.592849
 21
8.96057
 31
0.0
  0
LINE
  5
67
  8
0
 10
2.592849
 20
8.96057
 30
0.0
 11
2.592849
 21
9.137832
 31
0.0
  0
LINE
  5
68
  8
0
 10
2.592849
 20
9.137832
 30
0.0
 11
2.592849
 21
9.699818
 31
0.0
  0
LINE
  5
69
  8
0
 10
2.592849
 20
9.699818
 30
0.0
 11
2.592849
 21
9.70084
 31
0.0
  0
LINE
  5
6A
  8
0
 10
2.592849
 20
9.70084
 30
0.0
 11
2.592849
 21
9.708074
 31
0.0
  0
LINE
  5
6B
  8
0
 10
2.592849
 20
9.708074
 30
0.0
 11
2.592849
 21
9.716
 31
0.0
  0
LINE
  5
6C
  8
0
 10
2.592849
 20
9.716
 30
0.0
 11
2.592849
 21
9.730641
 31
0.0
  0
LINE
  5
6D
  8
0
 10
2.592849
 20
9.730641
 30
0.0
 11
2.592849
 21
9.772422
 31
0.0
  0
LINE
  5
6E
  8
0
 10
2.592849
 20
9.772422
 30
0.0
 11
2.592849
 21
9.789267
 31
0.0
  0
LINE
  5
6F
  8
0
 10
2.592849
 20
9.789267
 30
0.0
 11
2.592849
 21
9.798946
 31
0.0
  0
LINE
  5
70
  8
0
 10
2.592849
 20
9.798946
 30
0.0
 11
2.592849
 21
9.806825
 31
0.0
  0
LINE
  5
71
  8
0
 10
2.592849
 20
9.806825
 30
0.0
 11
2.592849
 21
10.376796
 31
0.0
  0
LINE
  5
72
  8
0
 10
2.592849
 20
10.376796
 30
0.0
 11
2.592849
 21
10.398789
 31
0.0
  0
LINE
  5
73
  8
0
 10
2.592849
 20
10.398789
 30
0.0
 11
2.592849
 21
10.449036
 31
0.0
  0
LINE
  5
74
  8
0
 10
2.592849
 20
10.449036
 30
0.0
 11
2.592849
 21
10.471784
 31
0.0
  0
LINE
  5
75
  8
0
 10
2.592849
 20
10.471784
 30
0.0
 11
2.592849
 21
10.479076
 31
0.0
  0
LINE
  5
76
  8
0
 10
2.592849
 20
10.479076
 30
0.0
 11
2.592849
 21
10.482637
 31
0.0
  0
LINE
  5
77
  8
0
 10
2.592849
 20
10.482637
 30
0.0
 11
2.592849
 21
11.045575
 31
0.0
  0
LINE
  5
78
  8
0
 10
2.592849
 20
11.045575
 30
0.0
 11
2.592849
 21
11.222837
 31
0.0
  0
LINE
  5
79
  8
0
 10
2.592849
 20
11.222837
 30
0.0
 11
2.592849
 21
12.112705
 31
0.0
  0
LINE
  5
7A
  8
0
 10
2.592849
 20
12.112705
 30
0.0
 11
2.592849
 21
12.441761
 31
0.0
  0
LINE
  5
7B
  8
0
 10
2.592849
 20
12.441761
 30
0.0
 11
2.592849
 21
12.815787
 31
0.0
  0
LINE
  5
7C
  8
0
 10
2.592849
 20
12.815787
 30
0.0
 11
2.592849
 21
13.035697
 31
0.0
  0
LINE
  5
7D
  8
0
 10
2.592849
 20
13.035697
 30
0.0
 11
2.592849
 21
13.237667
 31
0.0
  0
LINE
  5
7E
  8
0
 10
2.592849
 20
13.237667
 30
0.0
 11
2.592849
 21
14.182741
 31
0.0
  0
LINE
  5
7F
  8
0
 10
2.592849
 20
14.182741
 30
0.0
 11
2.592849
 21
14.37163
 31
0.0
  0
LINE
  5
80
  8
0
 10
2.592849
 20
14.37163
 30
0.0
 11
2.592849
 21
14.53628
 31
0.0
  0
LINE
  5
81
  8
0
 10
2.592849
 20
14.53628
 30
0.0
 11
2.592849
 21
14.742
 31
0.0
  0
LINE
  5
82
  8
0
 10
5.092849
 20
0.516
 30
0.0
 11
5.092849
 21
0.542613
 31
0.0
  0
LINE
  5
83
  8
0
 10
5.092849
 20
0.516
 30
0.0
 11
5.092849
 21
0.542613
 31
0.0
  0
LINE
  5
84
  8
0
 10
5.092849
 20
0.542613
 30
0.0
 11
5.092849
 21
1.672028
 31
0.0
  0
LINE
  5
85
  8
0
 10
5.092849
 20
1.672028
 30
0.0
 11
5.092849
 21
1.867879
 31
0.0
  0
LINE
  5
86
  8
0
 10
5.092849
 20
1.867879
 30
0.0
 11
5.092849
 21
2.010032
 31
0.0
  0
LINE
  5
87
  8
0
 10
5.092849
 20
2.010032
 30
0.0
 11
5.092849
 21
2.384058
 31
0.0
  0
LINE
  5
88
  8
0
 10
5.092849
 20
2.384058
 30
0.0
 11
5.092849
 21
3.487284
 31
0.0
  0
LINE
  5
89
  8
0
 10
5.092849
 20
3.487284
 30
0.0
 11
5.092849
 21
3.671852
 31
0.0
  0
LINE
  5
8A
  8
0
 10
5.092849
 20
3.671852
 30
0.0
 11
5.092849
 21
3.849707
 31
0.0
  0
LINE
  5
8B
  8
0
 10
5.092849
 20
3.849707
 30
0.0
 11
5.092849
 21
4.738982
 31
0.0
  0
LINE
  5
8C
  8
0
 10
5.092849
 20
4.738982
 30
0.0
 11
5.092849
 21
5.098419
 31
0.0
  0
LINE
  5
8D
  8
0
 10
5.092849
 20
5.098419
 30
0.0
 11
5.092849
 21
5.472445
 31
0.0
  0
LINE
  5
8E
  8
0
 10
5.092849
 20
5.472445
 30
0.0
 11
5.092849
 21
5.69309
 31
0.0
  0
LINE
  5
8F
  8
0
 10
5.092849
 20
5.69309
 30
0.0
 11
5.092849
 21
5.934712
 31
0.0
  0
LINE
  5
90
  8
0
 10
5.092849
 20
5.934712
 30
0.0
 11
5.092849
 21
6.823987
 31
0.0
  0
LINE
  5
91
  8
0
 10
5.092849
 20
6.823987
 30
0.0
 11
5.092849
 21
7.083581
 31
0.0
  0
LINE
  5
92
  8
0
 10
5.092849
 20
7.083581
 30
0.0
 11
5.092849
 21
7.304226
 31
0.0
  0
LINE
  5
93
  8
0
 10
5.092849
 20
7.304226
 30
0.0
 11
5.092849
 21
7.678252
 31
0.0
  0
LINE
  5
94
  8
0
 10
5.092849
 20
7.678252
 30
0.0
 11
5.092849
 21
8.019717
 31
0.0
  0
LINE
  5
95
  8
0
 10
5.092849
 20
8.019717
 30
0.0
 11
5.092849
 21
8.908992
 31
0.0
  0
LINE
  5
96
  8
0
 10
5.092849
 20
8.908992
 30
0.0
 11
5.092849
 21
9.086847
 31
0.0
  0
LINE
  5
97
  8
0
 10
5.092849
 20
9.086847
 30
0.0
 11
5.092849
 21
9.660387
 31
0.0
  0
LINE
  5
98
  8
0
 10
5.092849
 20
9.660387
 30
0.0
 11
5.092849
 21
9.685827
 31
0.0
  0
LINE
  5
99
  8
0
 10
5.092849
 20
9.685827
 30
0.0
 11
5.092849
 21
9.712331
 31
0.0
  0
LINE
  5
9A
  8
0
 10
5.092849
 20
9.712331
 30
0.0
 11
5.092849
 21
9.720204
 31
0.0
  0
LINE
  5
9B
  8
0
 10
5.092849
 20
9.720204
 30
0.0
 11
5.092849
 21
10.289796
 31
0.0
  0
LINE
  5
9C
  8
0
 10
5.092849
 20
10.289796
 30
0.0
 11
5.092849
 21
10.320496
 31
0.0
  0
LINE
  5
9D
  8
0
 10
5.092849
 20
10.320496
 30
0.0
 11
5.092849
 21
10.354175
 31
0.0
  0
LINE
  5
9E
  8
0
 10
5.092849
 20
10.354175
 30
0.0
 11
5.092849
 21
10.384784
 31
0.0
  0
LINE
  5
9F
  8
0
 10
5.092849
 20
10.384784
 30
0.0
 11
5.092849
 21
10.420652
 31
0.0
  0
LINE
  5
A0
  8
0
 10
5.092849
 20
10.420652
 30
0.0
 11
5.092849
 21
10.433564
 31
0.0
  0
LINE
  5
A1
  8
0
 10
5.092849
 20
10.433564
 30
0.0
 11
5.092849
 21
10.438182
 31
0.0
  0
LINE
  5
A2
  8
0
 10
5.092849
 20
10.438182
 30
0.0
 11
5.092849
 21
10.993997
 31
0.0
  0
LINE
  5
A3
  8
0
 10
5.092849
 20
10.993997
 30
0.0
 11
5.092849
 21
11.171852
 31
0.0
  0
LINE
  5
A4
  8
0
 10
5.092849
 20
11.171852
 30
0.0
 11
5.092849
 21
12.061127
 31
0.0
  0
LINE
  5
A5
  8
0
 10
5.092849
 20
12.061127
 30
0.0
 11
5.092849
 21
12.377774
 31
0.0
  0
LINE
  5
A6
  8
0
 10
5.092849
 20
12.377774
 30
0.0
 11
5.092849
 21
12.7518
 31
0.0
  0
LINE
  5
A7
  8
0
 10
5.092849
 20
12.7518
 30
0.0
 11
5.092849
 21
12.972445
 31
0.0
  0
LINE
  5
A8
  8
0
 10
5.092849
 20
12.972445
 30
0.0
 11
5.092849
 21
13.129707
 31
0.0
  0
LINE
  5
A9
  8
0
 10
5.092849
 20
13.129707
 30
0.0
 11
5.092849
 21
14.114631
 31
0.0
  0
LINE
  5
AA
  8
0
 10
5.092849
 20
14.114631
 30
0.0
 11
5.092849
 21
14.311616
 31
0.0
  0
LINE
  5
AB
  8
0
 10
5.092849
 20
14.311616
 30
0.0
 11
5.092849
 21
14.43989
 31
0.0
  0
LINE
  5
AC
  8
0
 10
5.092849
 20
14.43989
 30
0.0
 11
5.092849
 21
14.655
 31
0.0
  0
LINE
  5
AD
  8
0
 10
7.592849
 20
0.574
 30
0.0
 11
7.592849
 21
0.794651
 31
0.0
  0
LINE
  5
AE
  8
0
 10
7.592849
 20
0.574
 30
0.0
 11
7.592849
 21
0.794651
 31
0.0
  0
LINE
  5
AF
  8
0
 10
7.592849
 20
0.794651
 30
0.0
 11
7.592849
 21
0.904976
 31
0.0
  0
LINE
  5
B0
  8
0
 10
7.592849
 20
0.904976
 30
0.0
 11
7.592849
 21
0.905645
 31
0.0
  0
LINE
  5
B1
  8
0
 10
7.592849
 20
0.905645
 30
0.0
 11
7.592849
 21
1.677411
 31
0.0
  0
LINE
  5
B2
  8
0
 10
7.592849
 20
1.677411
 30
0.0
 11
7.592849
 21
1.877548
 31
0.0
  0
LINE
  5
B3
  8
0
 10
7.592849
 20
1.877548
 30
0.0
 11
7.592849
 21
2.299677
 31
0.0
  0
LINE
  5
B4
  8
0
 10
7.592849
 20
2.299677
 30
0.0
 11
7.592849
 21
2.307788
 31
0.0
  0
LINE
  5
B5
  8
0
 10
7.592849
 20
2.307788
 30
0.0
 11
7.592849
 21
2.332711
 31
0.0
  0
LINE
  5
B6
  8
0
 10
7.592849
 20
2.332711
 30
0.0
 11
7.592849
 21
2.351758
 31
0.0
  0
LINE
  5
B7
  8
0
 10
7.592849
 20
2.351758
 30
0.0
 11
7.592849
 21
2.365742
 31
0.0
  0
LINE
  5
B8
  8
0
 10
7.592849
 20
2.365742
 30
0.0
 11
7.592849
 21
3.068545
 31
0.0
  0
LINE
  5
B9
  8
0
 10
7.592849
 20
3.068545
 30
0.0
 11
7.592849
 21
3.655845
 31
0.0
  0
LINE
  5
BA
  8
0
 10
7.592849
 20
3.655845
 30
0.0
 11
7.592849
 21
3.833107
 31
0.0
  0
LINE
  5
BB
  8
0
 10
7.592849
 20
3.833107
 30
0.0
 11
7.592849
 21
4.722975
 31
0.0
  0
LINE
  5
BC
  8
0
 10
7.592849
 20
4.722975
 30
0.0
 11
7.592849
 21
5.078561
 31
0.0
  0
LINE
  5
BD
  8
0
 10
7.592849
 20
5.078561
 30
0.0
 11
7.592849
 21
5.452587
 31
0.0
  0
LINE
  5
BE
  8
0
 10
7.592849
 20
5.452587
 30
0.0
 11
7.592849
 21
5.457735
 31
0.0
  0
LINE
  5
BF
  8
0
 10
7.592849
 20
5.457735
 30
0.0
 11
7.592849
 21
5.672497
 31
0.0
  0
LINE
  5
C0
  8
0
 10
7.592849
 20
5.672497
 30
0.0
 11
7.592849
 21
5.918112
 31
0.0
  0
LINE
  5
C1
  8
0
 10
7.592849
 20
5.918112
 30
0.0
 11
7.592849
 21
6.80798
 31
0.0
  0
LINE
  5
C2
  8
0
 10
7.592849
 20
6.80798
 30
0.0
 11
7.592849
 21
7.063723
 31
0.0
  0
LINE
  5
C3
  8
0
 10
7.592849
 20
7.063723
 30
0.0
 11
7.592849
 21
7.283632
 31
0.0
  0
LINE
  5
C4
  8
0
 10
7.592849
 20
7.283632
 30
0.0
 11
7.592849
 21
7.657658
 31
0.0
  0
LINE
  5
C5
  8
0
 10
7.592849
 20
7.657658
 30
0.0
 11
7.592849
 21
8.003117
 31
0.0
  0
LINE
  5
C6
  8
0
 10
7.592849
 20
8.003117
 30
0.0
 11
7.592849
 21
8.892985
 31
0.0
  0
LINE
  5
C7
  8
0
 10
7.592849
 20
8.892985
 30
0.0
 11
7.592849
 21
9.070247
 31
0.0
  0
LINE
  5
C8
  8
0
 10
7.592849
 20
9.070247
 30
0.0
 11
7.592849
 21
9.649353
 31
0.0
  0
LINE
  5
C9
  8
0
 10
7.592849
 20
9.649353
 30
0.0
 11
7.592849
 21
9.658422
 31
0.0
  0
LINE
  5
CA
  8
0
 10
7.592849
 20
9.658422
 30
0.0
 11
7.592849
 21
9.692204
 31
0.0
  0
LINE
  5
CB
  8
0
 10
7.592849
 20
9.692204
 30
0.0
 11
7.592849
 21
10.262175
 31
0.0
  0
LINE
  5
CC
  8
0
 10
7.592849
 20
10.262175
 30
0.0
 11
7.592849
 21
10.266133
 31
0.0
  0
LINE
  5
CD
  8
0
 10
7.592849
 20
10.266133
 30
0.0
 11
7.592849
 21
10.284789
 31
0.0
  0
LINE
  5
CE
  8
0
 10
7.592849
 20
10.284789
 30
0.0
 11
7.592849
 21
10.335036
 31
0.0
  0
LINE
  5
CF
  8
0
 10
7.592849
 20
10.335036
 30
0.0
 11
7.592849
 21
10.357784
 31
0.0
  0
LINE
  5
D0
  8
0
 10
7.592849
 20
10.357784
 30
0.0
 11
7.592849
 21
10.393652
 31
0.0
  0
LINE
  5
D1
  8
0
 10
7.592849
 20
10.393652
 30
0.0
 11
7.592849
 21
10.406564
 31
0.0
  0
LINE
  5
D2
  8
0
 10
7.592849
 20
10.406564
 30
0.0
 11
7.592849
 21
10.419988
 31
0.0
  0
LINE
  5
D3
  8
0
 10
7.592849
 20
10.419988
 30
0.0
 11
7.592849
 21
10.42356
 31
0.0
  0
LINE
  5
D4
  8
0
 10
7.592849
 20
10.42356
 30
0.0
 11
7.592849
 21
10.97799
 31
0.0
  0
LINE
  5
D5
  8
0
 10
7.592849
 20
10.97799
 30
0.0
 11
7.592849
 21
11.155252
 31
0.0
  0
LINE
  5
D6
  8
0
 10
7.592849
 20
11.155252
 30
0.0
 11
7.592849
 21
12.04512
 31
0.0
  0
LINE
  5
D7
  8
0
 10
7.592849
 20
12.04512
 30
0.0
 11
7.592849
 21
12.357916
 31
0.0
  0
LINE
  5
D8
  8
0
 10
7.592849
 20
12.357916
 30
0.0
 11
7.592849
 21
12.731942
 31
0.0
  0
LINE
  5
D9
  8
0
 10
7.592849
 20
12.731942
 30
0.0
 11
7.592849
 21
12.951852
 31
0.0
  0
LINE
  5
DA
  8
0
 10
7.592849
 20
12.951852
 30
0.0
 11
7.592849
 21
13.095968
 31
0.0
  0
LINE
  5
DB
  8
0
 10
7.592849
 20
13.095968
 30
0.0
 11
7.592849
 21
14.092947
 31
0.0
  0
LINE
  5
DC
  8
0
 10
7.592849
 20
14.092947
 30
0.0
 11
7.592849
 21
14.591183
 31
0.0
  0
LINE
  5
DD
  8
0
 10
7.592849
 20
14.591183
 30
0.0
 11
7.592849
 21
14.607333
 31
0.0
  0
LINE
  5
DE
  8
0
 10
7.592849
 20
14.607333
 30
0.0
 11
7.592849
 21
14.628
 31
0.0
  0
LINE
  5
DF
  8
0
 10
10.092849
 20
0.515
 30
0.0
 11
10.092849
 21
0.728542
 31
0.0
  0
LINE
  5
E0
  8
0
 10
10.092849
 20
0.515
 30
0.0
 11
10.092849
 21
0.728542
 31
0.0
  0
LINE
  5
E1
  8
0
 10
10.092849
 20
0.728542
 30
0.0
 11
10.092849
 21
0.862458
 31
0.0
  0
LINE
  5
E2
  8
0
 10
10.092849
 20
0.862458
 30
0.0
 11
10.092849
 21
1.655949
 31
0.0
  0
LINE
  5
E3
  8
0
 10
10.092849
 20
1.655949
 30
0.0
 11
10.092849
 21
1.851712
 31
0.0
  0
LINE
  5
E4
  8
0
 10
10.092849
 20
1.851712
 30
0.0
 11
10.092849
 21
2.301875
 31
0.0
  0
LINE
  5
E5
  8
0
 10
10.092849
 20
2.301875
 30
0.0
 11
10.092849
 21
2.311788
 31
0.0
  0
LINE
  5
E6
  8
0
 10
10.092849
 20
2.311788
 30
0.0
 11
10.092849
 21
2.329874
 31
0.0
  0
LINE
  5
E7
  8
0
 10
10.092849
 20
2.329874
 30
0.0
 11
10.092849
 21
2.3362
 31
0.0
  0
LINE
  5
E8
  8
0
 10
10.092849
 20
2.3362
 30
0.0
 11
10.092849
 21
2.342621
 31
0.0
  0
LINE
  5
E9
  8
0
 10
10.092849
 20
2.342621
 30
0.0
 11
10.092849
 21
2.349139
 31
0.0
  0
LINE
  5
EA
  8
0
 10
10.092849
 20
2.349139
 30
0.0
 11
10.092849
 21
2.352436
 31
0.0
  0
LINE
  5
EB
  8
0
 10
10.092849
 20
2.352436
 30
0.0
 11
10.092849
 21
3.070987
 31
0.0
  0
LINE
  5
EC
  8
0
 10
10.092849
 20
3.070987
 30
0.0
 11
10.092849
 21
3.657624
 31
0.0
  0
LINE
  5
ED
  8
0
 10
10.092849
 20
3.657624
 30
0.0
 11
10.092849
 21
3.835479
 31
0.0
  0
LINE
  5
EE
  8
0
 10
10.092849
 20
3.835479
 30
0.0
 11
10.092849
 21
4.724754
 31
0.0
  0
LINE
  5
EF
  8
0
 10
10.092849
 20
4.724754
 30
0.0
 11
10.092849
 21
5.080768
 31
0.0
  0
LINE
  5
F0
  8
0
 10
10.092849
 20
5.080768
 30
0.0
 11
10.092849
 21
5.454794
 31
0.0
  0
LINE
  5
F1
  8
0
 10
10.092849
 20
5.454794
 30
0.0
 11
10.092849
 21
5.675439
 31
0.0
  0
LINE
  5
F2
  8
0
 10
10.092849
 20
5.675439
 30
0.0
 11
10.092849
 21
5.920484
 31
0.0
  0
LINE
  5
F3
  8
0
 10
10.092849
 20
5.920484
 30
0.0
 11
10.092849
 21
6.809759
 31
0.0
  0
LINE
  5
F4
  8
0
 10
10.092849
 20
6.809759
 30
0.0
 11
10.092849
 21
7.065929
 31
0.0
  0
LINE
  5
F5
  8
0
 10
10.092849
 20
7.065929
 30
0.0
 11
10.092849
 21
7.286574
 31
0.0
  0
LINE
  5
F6
  8
0
 10
10.092849
 20
7.286574
 30
0.0
 11
10.092849
 21
7.6606
 31
0.0
  0
LINE
  5
F7
  8
0
 10
10.092849
 20
7.6606
 30
0.0
 11
10.092849
 21
8.005489
 31
0.0
  0
LINE
  5
F8
  8
0
 10
10.092849
 20
8.005489
 30
0.0
 11
10.092849
 21
8.894764
 31
0.0
  0
LINE
  5
F9
  8
0
 10
10.092849
 20
8.894764
 30
0.0
 11
10.092849
 21
9.072619
 31
0.0
  0
LINE
  5
FA
  8
0
 10
10.092849
 20
9.072619
 30
0.0
 11
10.092849
 21
9.650385
 31
0.0
  0
LINE
  5
FB
  8
0
 10
10.092849
 20
9.650385
 30
0.0
 11
10.092849
 21
9.661827
 31
0.0
  0
LINE
  5
FC
  8
0
 10
10.092849
 20
9.661827
 30
0.0
 11
10.092849
 21
9.696204
 31
0.0
  0
LINE
  5
FD
  8
0
 10
10.092849
 20
9.696204
 30
0.0
 11
10.092849
 21
10.265796
 31
0.0
  0
LINE
  5
FE
  8
0
 10
10.092849
 20
10.265796
 30
0.0
 11
10.092849
 21
10.26975
 31
0.0
  0
LINE
  5
FF
  8
0
 10
10.092849
 20
10.26975
 30
0.0
 11
10.092849
 21
10.296496
 31
0.0
  0
LINE
  5
100
  8
0
 10
10.092849
 20
10.296496
 30
0.0
 11
10.092849
 21
10.322158
 31
0.0
  0
LINE
  5
101
  8
0
 10
10.092849
 20
10.322158
 30
0.0
 11
10.092849
 21
10.330175
 31
0.0
  0
LINE
  5
102
  8
0
 10
10.092849
 20
10.330175
 30
0.0
 11
10.092849
 21
10.360784
 31
0.0
  0
LINE
  5
103
  8
0
 10
10.092849
 20
10.360784
 30
0.0
 11
10.092849
 21
10.368623
 31
0.0
  0
LINE
  5
104
  8
0
 10
10.092849
 20
10.368623
 30
0.0
 11
10.092849
 21
10.382877
 31
0.0
  0
LINE
  5
105
  8
0
 10
10.092849
 20
10.382877
 30
0.0
 11
10.092849
 21
10.410085
 31
0.0
  0
LINE
  5
106
  8
0
 10
10.092849
 20
10.410085
 30
0.0
 11
10.092849
 21
10.4235
 31
0.0
  0
LINE
  5
107
  8
0
 10
10.092849
 20
10.4235
 30
0.0
 11
10.092849
 21
10.425289
 31
0.0
  0
LINE
  5
108
  8
0
 10
10.092849
 20
10.425289
 30
0.0
 11
10.092849
 21
10.979769
 31
0.0
  0
LINE
  5
109
  8
0
 10
10.092849
 20
10.979769
 30
0.0
 11
10.092849
 21
11.157624
 31
0.0
  0
LINE
  5
10A
  8
0
 10
10.092849
 20
11.157624
 30
0.0
 11
10.092849
 21
12.046899
 31
0.0
  0
LINE
  5
10B
  8
0
 10
10.092849
 20
12.046899
 30
0.0
 11
10.092849
 21
12.360123
 31
0.0
  0
LINE
  5
10C
  8
0
 10
10.092849
 20
12.360123
 30
0.0
 11
10.092849
 21
12.734148
 31
0.0
  0
LINE
  5
10D
  8
0
 10
10.092849
 20
12.734148
 30
0.0
 11
10.092849
 21
12.954794
 31
0.0
  0
LINE
  5
10E
  8
0
 10
10.092849
 20
12.954794
 30
0.0
 11
10.092849
 21
13.100294
 31
0.0
  0
LINE
  5
10F
  8
0
 10
10.092849
 20
13.100294
 30
0.0
 11
10.092849
 21
14.095368
 31
0.0
  0
LINE
  5
110
  8
0
 10
10.092849
 20
14.095368
 30
0.0
 11
10.092849
 21
14.294383
 31
0.0
  0
LINE
  5
111
  8
0
 10
10.092849
 20
14.294383
 30
0.0
 11
10.092849
 21
14.413147
 31
0.0
  0
LINE
  5
112
  8
0
 10
10.092849
 20
14.413147
 30
0.0
 11
10.092849
 21
14.631
 31
0.0
  0
LINE
  5
113
  8
0
 10
12.592849
 20
0.455
 30
0.0
 11
12.592849
 21
0.662071
 31
0.0
  0
LINE
  5
114
  8
0
 10
12.592849
 20
0.455
 30
0.0
 11
12.592849
 21
0.662071
 31
0.0
  0
LINE
  5
115
  8
0
 10
12.592849
 20
0.662071
 30
0.0
 11
12.592849
 21
0.821071
 31
0.0
  0
LINE
  5
116
  8
0
 10
12.592849
 20
0.821071
 30
0.0
 11
12.592849
 21
1.6325
 31
0.0
  0
LINE
  5
117
  8
0
 10
12.592849
 20
1.6325
 30
0.0
 11
12.592849
 21
1.822679
 31
0.0
  0
LINE
  5
118
  8
0
 10
12.592849
 20
1.822679
 30
0.0
 11
12.592849
 21
2.304246
 31
0.0
  0
LINE
  5
119
  8
0
 10
12.592849
 20
2.304246
 30
0.0
 11
12.592849
 21
2.315291
 31
0.0
  0
LINE
  5
11A
  8
0
 10
12.592849
 20
2.315291
 30
0.0
 11
12.592849
 21
2.3402
 31
0.0
  0
LINE
  5
11B
  8
0
 10
12.592849
 20
2.3402
 30
0.0
 11
12.592849
 21
2.343398
 31
0.0
  0
LINE
  5
11C
  8
0
 10
12.592849
 20
2.343398
 30
0.0
 11
12.592849
 21
3.073686
 31
0.0
  0
LINE
  5
11D
  8
0
 10
12.592849
 20
3.073686
 30
0.0
 11
12.592849
 21
3.659995
 31
0.0
  0
LINE
  5
11E
  8
0
 10
12.592849
 20
3.659995
 30
0.0
 11
12.592849
 21
3.83785
 31
0.0
  0
LINE
  5
11F
  8
0
 10
12.592849
 20
3.83785
 30
0.0
 11
12.592849
 21
4.727125
 31
0.0
  0
LINE
  5
120
  8
0
 10
12.592849
 20
4.727125
 30
0.0
 11
12.592849
 21
5.08371
 31
0.0
  0
LINE
  5
121
  8
0
 10
12.592849
 20
5.08371
 30
0.0
 11
12.592849
 21
5.457735
 31
0.0
  0
LINE
  5
122
  8
0
 10
12.592849
 20
5.457735
 30
0.0
 11
12.592849
 21
5.678381
 31
0.0
  0
LINE
  5
123
  8
0
 10
12.592849
 20
5.678381
 30
0.0
 11
12.592849
 21
5.922855
 31
0.0
  0
LINE
  5
124
  8
0
 10
12.592849
 20
5.922855
 30
0.0
 11
12.592849
 21
6.81213
 31
0.0
  0
LINE
  5
125
  8
0
 10
12.592849
 20
6.81213
 30
0.0
 11
12.592849
 21
7.068871
 31
0.0
  0
LINE
  5
126
  8
0
 10
12.592849
 20
7.068871
 30
0.0
 11
12.592849
 21
7.289516
 31
0.0
  0
LINE
  5
127
  8
0
 10
12.592849
 20
7.289516
 30
0.0
 11
12.592849
 21
7.663542
 31
0.0
  0
LINE
  5
128
  8
0
 10
12.592849
 20
7.663542
 30
0.0
 11
12.592849
 21
8.00786
 31
0.0
  0
LINE
  5
129
  8
0
 10
12.592849
 20
8.00786
 30
0.0
 11
12.592849
 21
8.897135
 31
0.0
  0
LINE
  5
12A
  8
0
 10
12.592849
 20
8.897135
 30
0.0
 11
12.592849
 21
9.07499
 31
0.0
  0
LINE
  5
12B
  8
0
 10
12.592849
 20
9.07499
 30
0.0
 11
12.592849
 21
9.652019
 31
0.0
  0
LINE
  5
12C
  8
0
 10
12.592849
 20
9.652019
 30
0.0
 11
12.592849
 21
9.665827
 31
0.0
  0
LINE
  5
12D
  8
0
 10
12.592849
 20
9.665827
 30
0.0
 11
12.592849
 21
9.692331
 31
0.0
  0
LINE
  5
12E
  8
0
 10
12.592849
 20
9.692331
 30
0.0
 11
12.592849
 21
9.700204
 31
0.0
  0
LINE
  5
12F
  8
0
 10
12.592849
 20
9.700204
 30
0.0
 11
12.592849
 21
10.269796
 31
0.0
  0
LINE
  5
130
  8
0
 10
12.592849
 20
10.269796
 30
0.0
 11
12.592849
 21
10.300496
 31
0.0
  0
LINE
  5
131
  8
0
 10
12.592849
 20
10.300496
 30
0.0
 11
12.592849
 21
10.326158
 31
0.0
  0
LINE
  5
132
  8
0
 10
12.592849
 20
10.326158
 30
0.0
 11
12.592849
 21
10.334175
 31
0.0
  0
LINE
  5
133
  8
0
 10
12.592849
 20
10.334175
 30
0.0
 11
12.592849
 21
10.364784
 31
0.0
  0
LINE
  5
134
  8
0
 10
12.592849
 20
10.364784
 30
0.0
 11
12.592849
 21
10.40742
 31
0.0
  0
LINE
  5
135
  8
0
 10
12.592849
 20
10.40742
 30
0.0
 11
12.592849
 21
10.413564
 31
0.0
  0
LINE
  5
136
  8
0
 10
12.592849
 20
10.413564
 30
0.0
 11
12.592849
 21
10.426988
 31
0.0
  0
LINE
  5
137
  8
0
 10
12.592849
 20
10.426988
 30
0.0
 11
12.592849
 21
10.98214
 31
0.0
  0
LINE
  5
138
  8
0
 10
12.592849
 20
10.98214
 30
0.0
 11
12.592849
 21
11.159995
 31
0.0
  0
LINE
  5
139
  8
0
 10
12.592849
 20
11.159995
 30
0.0
 11
12.592849
 21
12.04927
 31
0.0
  0
LINE
  5
13A
  8
0
 10
12.592849
 20
12.04927
 30
0.0
 11
12.592849
 21
12.363065
 31
0.0
  0
LINE
  5
13B
  8
0
 10
12.592849
 20
12.363065
 30
0.0
 11
12.592849
 21
12.73709
 31
0.0
  0
LINE
  5
13C
  8
0
 10
12.592849
 20
12.73709
 30
0.0
 11
12.592849
 21
12.957735
 31
0.0
  0
LINE
  5
13D
  8
0
 10
12.592849
 20
12.957735
 30
0.0
 11
12.592849
 21
13.105181
 31
0.0
  0
LINE
  5
13E
  8
0
 10
12.592849
 20
13.105181
 30
0.0
 11
12.592849
 21
14.098591
 31
0.0
  0
LINE
  5
13F
  8
0
 10
12.592849
 20
14.098591
 30
0.0
 11
12.592849
 21
14.297273
 31
0.0
  0
LINE
  5
140
  8
0
 10
12.592849
 20
14.297273
 30
0.0
 11
12.592849
 21
14.417609
 31
0.0
  0
LINE
  5
141
  8
0
 10
12.592849
 20
14.417609
 30
0.0
 11
12.592849
 21
14.635
 31
0.0
  0
LINE
  5
142
  8
0
 10
0.45
 20
2.592238
 30
0.0
 11
0.496914
 21
2.592238
 31
0.0
  0
LINE
  5
143
  8
0
 10
0.45
 20
2.592238
 30
0.0
 11
0.496914
 21
2.592238
 31
0.0
  0
LINE
  5
144
  8
0
 10
0.496914
 20
2.592238
 30
0.0
 11
1.007767
 21
2.592238
 31
0.0
  0
LINE
  5
145
  8
0
 10
1.007767
 20
2.592238
 30
0.0
 11
1.95683
 21
2.592238
 31
0.0
  0
LINE
  5
146
  8
0
 10
1.95683
 20
2.592238
 30
0.0
 11
2.154452
 21
2.592238
 31
0.0
  0
LINE
  5
147
  8
0
 10
2.154452
 20
2.592238
 30
0.0
 11
2.374361
 21
2.592238
 31
0.0
  0
LINE
  5
148
  8
0
 10
2.374361
 20
2.592238
 30
0.0
 11
2.748387
 21
2.592238
 31
0.0
  0
LINE
  5
149
  8
0
 10
2.748387
 20
2.592238
 30
0.0
 11
3.076445
 21
2.592238
 31
0.0
  0
LINE
  5
14A
  8
0
 10
3.076445
 20
2.592238
 30
0.0
 11
3.966313
 21
2.592238
 31
0.0
  0
LINE
  5
14B
  8
0
 10
3.966313
 20
2.592238
 30
0.0
 11
4.143575
 21
2.592238
 31
0.0
  0
LINE
  5
14C
  8
0
 10
4.143575
 20
2.592238
 30
0.0
 11
4.705225
 21
2.592238
 31
0.0
  0
LINE
  5
14D
  8
0
 10
4.705225
 20
2.592238
 30
0.0
 11
4.720216
 21
2.592238
 31
0.0
  0
LINE
  5
14E
  8
0
 10
4.720216
 20
2.592238
 30
0.0
 11
4.742964
 21
2.592238
 31
0.0
  0
LINE
  5
14F
  8
0
 10
4.742964
 20
2.592238
 30
0.0
 11
4.793211
 21
2.592238
 31
0.0
  0
LINE
  5
150
  8
0
 10
4.793211
 20
2.592238
 30
0.0
 11
4.811867
 21
2.592238
 31
0.0
  0
LINE
  5
151
  8
0
 10
4.811867
 20
2.592238
 30
0.0
 11
4.815825
 21
2.592238
 31
0.0
  0
LINE
  5
152
  8
0
 10
4.815825
 20
2.592238
 30
0.0
 11
5.385796
 21
2.592238
 31
0.0
  0
LINE
  5
153
  8
0
 10
5.385796
 20
2.592238
 30
0.0
 11
5.419578
 21
2.592238
 31
0.0
  0
LINE
  5
154
  8
0
 10
5.419578
 20
2.592238
 30
0.0
 11
5.461359
 21
2.592238
 31
0.0
  0
LINE
  5
155
  8
0
 10
5.461359
 20
2.592238
 30
0.0
 11
5.476
 21
2.592238
 31
0.0
  0
LINE
  5
156
  8
0
 10
5.476
 20
2.592238
 30
0.0
 11
5.483926
 21
2.592238
 31
0.0
  0
LINE
  5
157
  8
0
 10
5.483926
 20
2.592238
 30
0.0
 11
5.487529
 21
2.592238
 31
0.0
  0
LINE
  5
158
  8
0
 10
5.487529
 20
2.592238
 30
0.0
 11
6.051318
 21
2.592238
 31
0.0
  0
LINE
  5
159
  8
0
 10
6.051318
 20
2.592238
 30
0.0
 11
6.22858
 21
2.592238
 31
0.0
  0
LINE
  5
15A
  8
0
 10
6.22858
 20
2.592238
 30
0.0
 11
7.118448
 21
2.592238
 31
0.0
  0
LINE
  5
15B
  8
0
 10
7.118448
 20
2.592238
 30
0.0
 11
7.448645
 21
2.592238
 31
0.0
  0
LINE
  5
15C
  8
0
 10
7.448645
 20
2.592238
 30
0.0
 11
7.822671
 21
2.592238
 31
0.0
  0
LINE
  5
15D
  8
0
 10
7.822671
 20
2.592238
 30
0.0
 11
8.042581
 21
2.592238
 31
0.0
  0
LINE
  5
15E
  8
0
 10
8.042581
 20
2.592238
 30
0.0
 11
8.313585
 21
2.592238
 31
0.0
  0
LINE
  5
15F
  8
0
 10
8.313585
 20
2.592238
 30
0.0
 11
9.203453
 21
2.592238
 31
0.0
  0
LINE
  5
160
  8
0
 10
9.203453
 20
2.592238
 30
0.0
 11
9.380715
 21
2.592238
 31
0.0
  0
LINE
  5
161
  8
0
 10
9.380715
 20
2.592238
 30
0.0
 11
9.653716
 21
2.592238
 31
0.0
  0
LINE
  5
162
  8
0
 10
9.653716
 20
2.592238
 30
0.0
 11
10.027742
 21
2.592238
 31
0.0
  0
LINE
  5
163
  8
0
 10
10.027742
 20
2.592238
 30
0.0
 11
10.39859
 21
2.592238
 31
0.0
  0
LINE
  5
164
  8
0
 10
10.39859
 20
2.592238
 30
0.0
 11
11.288458
 21
2.592238
 31
0.0
  0
LINE
  5
165
  8
0
 10
11.288458
 20
2.592238
 30
0.0
 11
11.46572
 21
2.592238
 31
0.0
  0
LINE
  5
166
  8
0
 10
11.46572
 20
2.592238
 30
0.0
 11
11.638877
 21
2.592238
 31
0.0
  0
LINE
  5
167
  8
0
 10
11.638877
 20
2.592238
 30
0.0
 11
12.742839
 21
2.592238
 31
0.0
  0
LINE
  5
168
  8
0
 10
12.742839
 20
2.592238
 30
0.0
 11
13.116865
 21
2.592238
 31
0.0
  0
LINE
  5
169
  8
0
 10
13.116865
 20
2.592238
 30
0.0
 11
13.304897
 21
2.592238
 31
0.0
  0
LINE
  5
16A
  8
0
 10
13.304897
 20
2.592238
 30
0.0
 11
13.493555
 21
2.592238
 31
0.0
  0
LINE
  5
16B
  8
0
 10
13.493555
 20
2.592238
 30
0.0
 11
14.369963
 21
2.592238
 31
0.0
  0
LINE
  5
16C
  8
0
 10
14.369963
 20
2.592238
 30
0.0
 11
14.532866
 21
2.592238
 31
0.0
  0
LINE
  5
16D
  8
0
 10
14.532866
 20
2.592238
 30
0.0
 11
14.739
 21
2.592238
 31
0.0
  0
LINE
  5
16E
  8
0
 10
0.513
 20
5.092238
 30
0.0
 11
0.52222
 21
5.092238
 31
0.0
  0
LINE
  5
16F
  8
0
 10
0.513
 20
5.092238
 30
0.0
 11
0.52222
 21
5.092238
 31
0.0
  0
LINE
  5
170
  8
0
 10
0.52222
 20
5.092238
 30
0.0
 11
1.056981
 21
5.092238
 31
0.0
  0
LINE
  5
171
  8
0
 10
1.056981
 20
5.092238
 30
0.0
 11
2.035562
 21
5.092238
 31
0.0
  0
LINE
  5
172
  8
0
 10
2.035562
 20
5.092238
 30
0.0
 11
2.200787
 21
5.092238
 31
0.0
  0
LINE
  5
173
  8
0
 10
2.200787
 20
5.092238
 30
0.0
 11
2.420697
 21
5.092238
 31
0.0
  0
LINE
  5
174
  8
0
 10
2.420697
 20
5.092238
 30
0.0
 11
2.794723
 21
5.092238
 31
0.0
  0
LINE
  5
175
  8
0
 10
2.794723
 20
5.092238
 30
0.0
 11
3.113794
 21
5.092238
 31
0.0
  0
LINE
  5
176
  8
0
 10
3.113794
 20
5.092238
 30
0.0
 11
4.003662
 21
5.092238
 31
0.0
  0
LINE
  5
177
  8
0
 10
4.003662
 20
5.092238
 30
0.0
 11
4.180925
 21
5.092238
 31
0.0
  0
LINE
  5
178
  8
0
 10
4.180925
 20
5.092238
 30
0.0
 11
4.736822
 21
5.092238
 31
0.0
  0
LINE
  5
179
  8
0
 10
4.736822
 20
5.092238
 30
0.0
 11
4.741105
 21
5.092238
 31
0.0
  0
LINE
  5
17A
  8
0
 10
4.741105
 20
5.092238
 30
0.0
 11
4.761661
 21
5.092238
 31
0.0
  0
LINE
  5
17B
  8
0
 10
4.761661
 20
5.092238
 30
0.0
 11
4.783216
 21
5.092238
 31
0.0
  0
LINE
  5
17C
  8
0
 10
4.783216
 20
5.092238
 30
0.0
 11
4.805964
 21
5.092238
 31
0.0
  0
LINE
  5
17D
  8
0
 10
4.805964
 20
5.092238
 30
0.0
 11
4.856211
 21
5.092238
 31
0.0
  0
LINE
  5
17E
  8
0
 10
4.856211
 20
5.092238
 30
0.0
 11
4.874867
 21
5.092238
 31
0.0
  0
LINE
  5
17F
  8
0
 10
4.874867
 20
5.092238
 30
0.0
 11
4.878825
 21
5.092238
 31
0.0
  0
LINE
  5
180
  8
0
 10
4.878825
 20
5.092238
 30
0.0
 11
5.448796
 21
5.092238
 31
0.0
  0
LINE
  5
181
  8
0
 10
5.448796
 20
5.092238
 30
0.0
 11
5.482578
 21
5.092238
 31
0.0
  0
LINE
  5
182
  8
0
 10
5.482578
 20
5.092238
 30
0.0
 11
5.508037
 21
5.092238
 31
0.0
  0
LINE
  5
183
  8
0
 10
5.508037
 20
5.092238
 30
0.0
 11
5.515992
 21
5.092238
 31
0.0
  0
LINE
  5
184
  8
0
 10
5.515992
 20
5.092238
 30
0.0
 11
6.088667
 21
5.092238
 31
0.0
  0
LINE
  5
185
  8
0
 10
6.088667
 20
5.092238
 30
0.0
 11
6.265929
 21
5.092238
 31
0.0
  0
LINE
  5
186
  8
0
 10
6.265929
 20
5.092238
 30
0.0
 11
7.155797
 21
5.092238
 31
0.0
  0
LINE
  5
187
  8
0
 10
7.155797
 20
5.092238
 30
0.0
 11
7.494981
 21
5.092238
 31
0.0
  0
LINE
  5
188
  8
0
 10
7.494981
 20
5.092238
 30
0.0
 11
7.869006
 21
5.092238
 31
0.0
  0
LINE
  5
189
  8
0
 10
7.869006
 20
5.092238
 30
0.0
 11
8.088916
 21
5.092238
 31
0.0
  0
LINE
  5
18A
  8
0
 10
8.088916
 20
5.092238
 30
0.0
 11
8.350934
 21
5.092238
 31
0.0
  0
LINE
  5
18B
  8
0
 10
8.350934
 20
5.092238
 30
0.0
 11
8.386669
 21
5.092238
 31
0.0
  0
LINE
  5
18C
  8
0
 10
8.386669
 20
5.092238
 30
0.0
 11
9.240802
 21
5.092238
 31
0.0
  0
LINE
  5
18D
  8
0
 10
9.240802
 20
5.092238
 30
0.0
 11
9.480142
 21
5.092238
 31
0.0
  0
LINE
  5
18E
  8
0
 10
9.480142
 20
5.092238
 30
0.0
 11
9.700052
 21
5.092238
 31
0.0
  0
LINE
  5
18F
  8
0
 10
9.700052
 20
5.092238
 30
0.0
 11
10.074077
 21
5.092238
 31
0.0
  0
LINE
  5
190
  8
0
 10
10.074077
 20
5.092238
 30
0.0
 11
10.435939
 21
5.092238
 31
0.0
  0
LINE
  5
191
  8
0
 10
10.435939
 20
5.092238
 30
0.0
 11
11.325807
 21
5.092238
 31
0.0
  0
LINE
  5
192
  8
0
 10
11.325807
 20
5.092238
 30
0.0
 11
11.50307
 21
5.092238
 31
0.0
  0
LINE
  5
193
  8
0
 10
11.50307
 20
5.092238
 30
0.0
 11
11.685213
 21
5.092238
 31
0.0
  0
LINE
  5
194
  8
0
 10
11.685213
 20
5.092238
 30
0.0
 11
12.789174
 21
5.092238
 31
0.0
  0
LINE
  5
195
  8
0
 10
12.789174
 20
5.092238
 30
0.0
 11
13.1632
 21
5.092238
 31
0.0
  0
LINE
  5
196
  8
0
 10
13.1632
 20
5.092238
 30
0.0
 11
13.297628
 21
5.092238
 31
0.0
  0
LINE
  5
197
  8
0
 10
13.297628
 20
5.092238
 30
0.0
 11
13.494384
 21
5.092238
 31
0.0
  0
LINE
  5
198
  8
0
 10
13.494384
 20
5.092238
 30
0.0
 11
14.309048
 21
5.092238
 31
0.0
  0
LINE
  5
199
  8
0
 10
14.309048
 20
5.092238
 30
0.0
 11
14.435324
 21
5.092238
 31
0.0
  0
LINE
  5
19A
  8
0
 10
14.435324
 20
5.092238
 30
0.0
 11
14.651
 21
5.092238
 31
0.0
  0
LINE
  5
19B
  8
0
 10
0.576
 20
7.592238
 30
0.0
 11
0.63281
 21
7.592238
 31
0.0
  0
LINE
  5
19C
  8
0
 10
0.576
 20
7.592238
 30
0.0
 11
0.63281
 21
7.592238
 31
0.0
  0
LINE
  5
19D
  8
0
 10
0.63281
 20
7.592238
 30
0.0
 11
1.107595
 21
7.592238
 31
0.0
  0
LINE
  5
19E
  8
0
 10
1.107595
 20
7.592238
 30
0.0
 11
2.112697
 21
7.592238
 31
0.0
  0
LINE
  5
19F
  8
0
 10
2.112697
 20
7.592238
 30
0.0
 11
2.247123
 21
7.592238
 31
0.0
  0
LINE
  5
1A0
  8
0
 10
2.247123
 20
7.592238
 30
0.0
 11
2.467032
 21
7.592238
 31
0.0
  0
LINE
  5
1A1
  8
0
 10
2.467032
 20
7.592238
 30
0.0
 11
2.841058
 21
7.592238
 31
0.0
  0
LINE
  5
1A2
  8
0
 10
2.841058
 20
7.592238
 30
0.0
 11
3.151144
 21
7.592238
 31
0.0
  0
LINE
  5
1A3
  8
0
 10
3.151144
 20
7.592238
 30
0.0
 11
4.041012
 21
7.592238
 31
0.0
  0
LINE
  5
1A4
  8
0
 10
4.041012
 20
7.592238
 30
0.0
 11
4.218274
 21
7.592238
 31
0.0
  0
LINE
  5
1A5
  8
0
 10
4.218274
 20
7.592238
 30
0.0
 11
4.771746
 21
7.592238
 31
0.0
  0
LINE
  5
1A6
  8
0
 10
4.771746
 20
7.592238
 30
0.0
 11
4.797436
 21
7.592238
 31
0.0
  0
LINE
  5
1A7
  8
0
 10
4.797436
 20
7.592238
 30
0.0
 11
4.824661
 21
7.592238
 31
0.0
  0
LINE
  5
1A8
  8
0
 10
4.824661
 20
7.592238
 30
0.0
 11
4.846216
 21
7.592238
 31
0.0
  0
LINE
  5
1A9
  8
0
 10
4.846216
 20
7.592238
 30
0.0
 11
4.868964
 21
7.592238
 31
0.0
  0
LINE
  5
1AA
  8
0
 10
4.868964
 20
7.592238
 30
0.0
 11
4.919211
 21
7.592238
 31
0.0
  0
LINE
  5
1AB
  8
0
 10
4.919211
 20
7.592238
 30
0.0
 11
4.937867
 21
7.592238
 31
0.0
  0
LINE
  5
1AC
  8
0
 10
4.937867
 20
7.592238
 30
0.0
 11
4.941825
 21
7.592238
 31
0.0
  0
LINE
  5
1AD
  8
0
 10
4.941825
 20
7.592238
 30
0.0
 11
5.511796
 21
7.592238
 31
0.0
  0
LINE
  5
1AE
  8
0
 10
5.511796
 20
7.592238
 30
0.0
 11
5.528733
 21
7.592238
 31
0.0
  0
LINE
  5
1AF
  8
0
 10
5.528733
 20
7.592238
 30
0.0
 11
5.536941
 21
7.592238
 31
0.0
  0
LINE
  5
1B0
  8
0
 10
5.536941
 20
7.592238
 30
0.0
 11
5.542531
 21
7.592238
 31
0.0
  0
LINE
  5
1B1
  8
0
 10
5.542531
 20
7.592238
 30
0.0
 11
6.126017
 21
7.592238
 31
0.0
  0
LINE
  5
1B2
  8
0
 10
6.126017
 20
7.592238
 30
0.0
 11
6.303279
 21
7.592238
 31
0.0
  0
LINE
  5
1B3
  8
0
 10
6.303279
 20
7.592238
 30
0.0
 11
7.193147
 21
7.592238
 31
0.0
  0
LINE
  5
1B4
  8
0
 10
7.193147
 20
7.592238
 30
0.0
 11
7.541316
 21
7.592238
 31
0.0
  0
LINE
  5
1B5
  8
0
 10
7.541316
 20
7.592238
 30
0.0
 11
7.915342
 21
7.592238
 31
0.0
  0
LINE
  5
1B6
  8
0
 10
7.915342
 20
7.592238
 30
0.0
 11
8.135252
 21
7.592238
 31
0.0
  0
LINE
  5
1B7
  8
0
 10
8.135252
 20
7.592238
 30
0.0
 11
8.388284
 21
7.592238
 31
0.0
  0
LINE
  5
1B8
  8
0
 10
8.388284
 20
7.592238
 30
0.0
 11
9.278152
 21
7.592238
 31
0.0
  0
LINE
  5
1B9
  8
0
 10
9.278152
 20
7.592238
 30
0.0
 11
9.526477
 21
7.592238
 31
0.0
  0
LINE
  5
1BA
  8
0
 10
9.526477
 20
7.592238
 30
0.0
 11
9.746387
 21
7.592238
 31
0.0
  0
LINE
  5
1BB
  8
0
 10
9.746387
 20
7.592238
 30
0.0
 11
10.120413
 21
7.592238
 31
0.0
  0
LINE
  5
1BC
  8
0
 10
10.120413
 20
7.592238
 30
0.0
 11
10.473289
 21
7.592238
 31
0.0
  0
LINE
  5
1BD
  8
0
 10
10.473289
 20
7.592238
 30
0.0
 11
11.363157
 21
7.592238
 31
0.0
  0
LINE
  5
1BE
  8
0
 10
11.363157
 20
7.592238
 30
0.0
 11
11.540419
 21
7.592238
 31
0.0
  0
LINE
  5
1BF
  8
0
 10
11.540419
 20
7.592238
 30
0.0
 11
12.130672
 21
7.592238
 31
0.0
  0
LINE
  5
1C0
  8
0
 10
12.130672
 20
7.592238
 30
0.0
 11
12.137867
 21
7.592238
 31
0.0
  0
LINE
  5
1C1
  8
0
 10
12.137867
 20
7.592238
 30
0.0
 11
12.141825
 21
7.592238
 31
0.0
  0
LINE
  5
1C2
  8
0
 10
12.141825
 20
7.592238
 30
0.0
 11
12.711796
 21
7.592238
 31
0.0
  0
LINE
  5
1C3
  8
0
 10
12.711796
 20
7.592238
 30
0.0
 11
12.745578
 21
7.592238
 31
0.0
  0
LINE
  5
1C4
  8
0
 10
12.745578
 20
7.592238
 30
0.0
 11
12.787359
 21
7.592238
 31
0.0
  0
LINE
  5
1C5
  8
0
 10
12.787359
 20
7.592238
 30
0.0
 11
12.802
 21
7.592238
 31
0.0
  0
LINE
  5
1C6
  8
0
 10
12.802
 20
7.592238
 30
0.0
 11
12.809926
 21
7.592238
 31
0.0
  0
LINE
  5
1C7
  8
0
 10
12.809926
 20
7.592238
 30
0.0
 11
12.824335
 21
7.592238
 31
0.0
  0
LINE
  5
1C8
  8
0
 10
12.824335
 20
7.592238
 30
0.0
 11
12.838258
 21
7.592238
 31
0.0
  0
LINE
  5
1C9
  8
0
 10
12.838258
 20
7.592238
 30
0.0
 11
12.852242
 21
7.592238
 31
0.0
  0
LINE
  5
1CA
  8
0
 10
12.852242
 20
7.592238
 30
0.0
 11
12.871289
 21
7.592238
 31
0.0
  0
LINE
  5
1CB
  8
0
 10
12.871289
 20
7.592238
 30
0.0
 11
12.884359
 21
7.592238
 31
0.0
  0
LINE
  5
1CC
  8
0
 10
12.884359
 20
7.592238
 30
0.0
 11
12.895715
 21
7.592238
 31
0.0
  0
LINE
  5
1CD
  8
0
 10
12.895715
 20
7.592238
 30
0.0
 11
13.3274
 21
7.592238
 31
0.0
  0
LINE
  5
1CE
  8
0
 10
13.3274
 20
7.592238
 30
0.0
 11
13.526245
 21
7.592238
 31
0.0
  0
LINE
  5
1CF
  8
0
 10
13.526245
 20
7.592238
 30
0.0
 11
14.291033
 21
7.592238
 31
0.0
  0
LINE
  5
1D0
  8
0
 10
14.291033
 20
7.592238
 30
0.0
 11
14.40745
 21
7.592238
 31
0.0
  0
LINE
  5
1D1
  8
0
 10
14.40745
 20
7.592238
 30
0.0
 11
14.626
 21
7.592238
 31
0.0
  0
LINE
  5
1D2
  8
0
 10
0.514
 20
10.092238
 30
0.0
 11
0.727319
 21
10.092238
 31
0.0
  0
LINE
  5
1D3
  8
0
 10
0.514
 20
10.092238
 30
0.0
 11
0.727319
 21
10.092238
 31
0.0
  0
LINE
  5
1D4
  8
0
 10
0.727319
 20
10.092238
 30
0.0
 11
0.862048
 21
10.092238
 31
0.0
  0
LINE
  5
1D5
  8
0
 10
0.862048
 20
10.092238
 30
0.0
 11
1.057633
 21
10.092238
 31
0.0
  0
LINE
  5
1D6
  8
0
 10
1.057633
 20
10.092238
 30
0.0
 11
2.035562
 21
10.092238
 31
0.0
  0
LINE
  5
1D7
  8
0
 10
2.035562
 20
10.092238
 30
0.0
 11
2.200787
 21
10.092238
 31
0.0
  0
LINE
  5
1D8
  8
0
 10
2.200787
 20
10.092238
 30
0.0
 11
2.421432
 21
10.092238
 31
0.0
  0
LINE
  5
1D9
  8
0
 10
2.421432
 20
10.092238
 30
0.0
 11
2.795458
 21
10.092238
 31
0.0
  0
LINE
  5
1DA
  8
0
 10
2.795458
 20
10.092238
 30
0.0
 11
3.114387
 21
10.092238
 31
0.0
  0
LINE
  5
1DB
  8
0
 10
3.114387
 20
10.092238
 30
0.0
 11
4.003662
 21
10.092238
 31
0.0
  0
LINE
  5
1DC
  8
0
 10
4.003662
 20
10.092238
 30
0.0
 11
4.181517
 21
10.092238
 31
0.0
  0
LINE
  5
1DD
  8
0
 10
4.181517
 20
10.092238
 30
0.0
 11
4.737822
 21
10.092238
 31
0.0
  0
LINE
  5
1DE
  8
0
 10
4.737822
 20
10.092238
 30
0.0
 11
4.74158
 21
10.092238
 31
0.0
  0
LINE
  5
1DF
  8
0
 10
4.74158
 20
10.092238
 30
0.0
 11
4.784216
 21
10.092238
 31
0.0
  0
LINE
  5
1E0
  8
0
 10
4.784216
 20
10.092238
 30
0.0
 11
4.814825
 21
10.092238
 31
0.0
  0
LINE
  5
1E1
  8
0
 10
4.814825
 20
10.092238
 30
0.0
 11
4.822842
 21
10.092238
 31
0.0
  0
LINE
  5
1E2
  8
0
 10
4.822842
 20
10.092238
 30
0.0
 11
4.848504
 21
10.092238
 31
0.0
  0
LINE
  5
1E3
  8
0
 10
4.848504
 20
10.092238
 30
0.0
 11
4.879204
 21
10.092238
 31
0.0
  0
LINE
  5
1E4
  8
0
 10
4.879204
 20
10.092238
 30
0.0
 11
5.448796
 21
10.092238
 31
0.0
  0
LINE
  5
1E5
  8
0
 10
5.448796
 20
10.092238
 30
0.0
 11
5.456669
 21
10.092238
 31
0.0
  0
LINE
  5
1E6
  8
0
 10
5.456669
 20
10.092238
 30
0.0
 11
5.483173
 21
10.092238
 31
0.0
  0
LINE
  5
1E7
  8
0
 10
5.483173
 20
10.092238
 30
0.0
 11
5.508613
 21
10.092238
 31
0.0
  0
LINE
  5
1E8
  8
0
 10
5.508613
 20
10.092238
 30
0.0
 11
5.516563
 21
10.092238
 31
0.0
  0
LINE
  5
1E9
  8
0
 10
5.516563
 20
10.092238
 30
0.0
 11
6.088667
 21
10.092238
 31
0.0
  0
LINE
  5
1EA
  8
0
 10
6.088667
 20
10.092238
 30
0.0
 11
6.266522
 21
10.092238
 31
0.0
  0
LINE
  5
1EB
  8
0
 10
6.266522
 20
10.092238
 30
0.0
 11
7.155797
 21
10.092238
 31
0.0
  0
LINE
  5
1EC
  8
0
 10
7.155797
 20
10.092238
 30
0.0
 11
7.494981
 21
10.092238
 31
0.0
  0
LINE
  5
1ED
  8
0
 10
7.494981
 20
10.092238
 30
0.0
 11
7.869006
 21
10.092238
 31
0.0
  0
LINE
  5
1EE
  8
0
 10
7.869006
 20
10.092238
 30
0.0
 11
8.089652
 21
10.092238
 31
0.0
  0
LINE
  5
1EF
  8
0
 10
8.089652
 20
10.092238
 30
0.0
 11
8.351527
 21
10.092238
 31
0.0
  0
LINE
  5
1F0
  8
0
 10
8.351527
 20
10.092238
 30
0.0
 11
9.240802
 21
10.092238
 31
0.0
  0
LINE
  5
1F1
  8
0
 10
9.240802
 20
10.092238
 30
0.0
 11
9.480142
 21
10.092238
 31
0.0
  0
LINE
  5
1F2
  8
0
 10
9.480142
 20
10.092238
 30
0.0
 11
9.700787
 21
10.092238
 31
0.0
  0
LINE
  5
1F3
  8
0
 10
9.700787
 20
10.092238
 30
0.0
 11
10.074813
 21
10.092238
 31
0.0
  0
LINE
  5
1F4
  8
0
 10
10.074813
 20
10.092238
 30
0.0
 11
10.436532
 21
10.092238
 31
0.0
  0
LINE
  5
1F5
  8
0
 10
10.436532
 20
10.092238
 30
0.0
 11
11.325807
 21
10.092238
 31
0.0
  0
LINE
  5
1F6
  8
0
 10
11.325807
 20
10.092238
 30
0.0
 11
11.503662
 21
10.092238
 31
0.0
  0
LINE
  5
1F7
  8
0
 10
11.503662
 20
10.092238
 30
0.0
 11
11.685948
 21
10.092238
 31
0.0
  0
LINE
  5
1F8
  8
0
 10
11.685948
 20
10.092238
 30
0.0
 11
12.789174
 21
10.092238
 31
0.0
  0
LINE
  5
1F9
  8
0
 10
12.789174
 20
10.092238
 30
0.0
 11
13.1632
 21
10.092238
 31
0.0
  0
LINE
  5
1FA
  8
0
 10
13.1632
 20
10.092238
 30
0.0
 11
13.285503
 21
10.092238
 31
0.0
  0
LINE
  5
1FB
  8
0
 10
13.285503
 20
10.092238
 30
0.0
 11
13.485013
 21
10.092238
 31
0.0
  0
LINE
  5
1FC
  8
0
 10
13.485013
 20
10.092238
 30
0.0
 11
14.585906
 21
10.092238
 31
0.0
  0
LINE
  5
1FD
  8
0
 10
14.585906
 20
10.092238
 30
0.0
 11
14.603333
 21
10.092238
 31
0.0
  0
LINE
  5
1FE
  8
0
 10
14.603333
 20
10.092238
 30
0.0
 11
14.626
 21
10.092238
 31
0.0
  0
LINE
  5
1FF
  8
0
 10
0.438
 20
12.592238
 30
0.0
 11
0.643205
 21
12.592238
 31
0.0
  0
LINE
  5
200
  8
0
 10
0.438
 20
12.592238
 30
0.0
 11
0.643205
 21
12.592238
 31
0.0
  0
LINE
  5
201
  8
0
 10
0.643205
 20
12.592238
 30
0.0
 11
0.810051
 21
12.592238
 31
0.0
  0
LINE
  5
202
  8
0
 10
0.810051
 20
12.592238
 30
0.0
 11
0.998436
 21
12.592238
 31
0.0
  0
LINE
  5
203
  8
0
 10
0.998436
 20
12.592238
 30
0.0
 11
1.940359
 21
12.592238
 31
0.0
  0
LINE
  5
204
  8
0
 10
1.940359
 20
12.592238
 30
0.0
 11
2.14489
 21
12.592238
 31
0.0
  0
LINE
  5
205
  8
0
 10
2.14489
 20
12.592238
 30
0.0
 11
2.365535
 21
12.592238
 31
0.0
  0
LINE
  5
206
  8
0
 10
2.365535
 20
12.592238
 30
0.0
 11
2.739561
 21
12.592238
 31
0.0
  0
LINE
  5
207
  8
0
 10
2.739561
 20
12.592238
 30
0.0
 11
3.069331
 21
12.592238
 31
0.0
  0
LINE
  5
208
  8
0
 10
3.069331
 20
12.592238
 30
0.0
 11
3.958606
 21
12.592238
 31
0.0
  0
LINE
  5
209
  8
0
 10
3.958606
 20
12.592238
 30
0.0
 11
4.136461
 21
12.592238
 31
0.0
  0
LINE
  5
20A
  8
0
 10
4.136461
 20
12.592238
 30
0.0
 11
4.699347
 21
12.592238
 31
0.0
  0
LINE
  5
20B
  8
0
 10
4.699347
 20
12.592238
 30
0.0
 11
4.700377
 21
12.592238
 31
0.0
  0
LINE
  5
20C
  8
0
 10
4.700377
 20
12.592238
 30
0.0
 11
4.708216
 21
12.592238
 31
0.0
  0
LINE
  5
20D
  8
0
 10
4.708216
 20
12.592238
 30
0.0
 11
4.722691
 21
12.592238
 31
0.0
  0
LINE
  5
20E
  8
0
 10
4.722691
 20
12.592238
 30
0.0
 11
4.746842
 21
12.592238
 31
0.0
  0
LINE
  5
20F
  8
0
 10
4.746842
 20
12.592238
 30
0.0
 11
4.772504
 21
12.592238
 31
0.0
  0
LINE
  5
210
  8
0
 10
4.772504
 20
12.592238
 30
0.0
 11
4.789488
 21
12.592238
 31
0.0
  0
LINE
  5
211
  8
0
 10
4.789488
 20
12.592238
 30
0.0
 11
4.79925
 21
12.592238
 31
0.0
  0
LINE
  5
212
  8
0
 10
4.79925
 20
12.592238
 30
0.0
 11
4.803204
 21
12.592238
 31
0.0
  0
LINE
  5
213
  8
0
 10
4.803204
 20
12.592238
 30
0.0
 11
5.372796
 21
12.592238
 31
0.0
  0
LINE
  5
214
  8
0
 10
5.372796
 20
12.592238
 30
0.0
 11
5.398543
 21
12.592238
 31
0.0
  0
LINE
  5
215
  8
0
 10
5.398543
 20
12.592238
 30
0.0
 11
5.440563
 21
12.592238
 31
0.0
  0
LINE
  5
216
  8
0
 10
5.440563
 20
12.592238
 30
0.0
 11
5.470926
 21
12.592238
 31
0.0
  0
LINE
  5
217
  8
0
 10
5.470926
 20
12.592238
 30
0.0
 11
5.47816
 21
12.592238
 31
0.0
  0
LINE
  5
218
  8
0
 10
5.47816
 20
12.592238
 30
0.0
 11
5.481219
 21
12.592238
 31
0.0
  0
LINE
  5
219
  8
0
 10
5.481219
 20
12.592238
 30
0.0
 11
6.043611
 21
12.592238
 31
0.0
  0
LINE
  5
21A
  8
0
 10
6.043611
 20
12.592238
 30
0.0
 11
6.221466
 21
12.592238
 31
0.0
  0
LINE
  5
21B
  8
0
 10
6.221466
 20
12.592238
 30
0.0
 11
7.110741
 21
12.592238
 31
0.0
  0
LINE
  5
21C
  8
0
 10
7.110741
 20
12.592238
 30
0.0
 11
7.439084
 21
12.592238
 31
0.0
  0
LINE
  5
21D
  8
0
 10
7.439084
 20
12.592238
 30
0.0
 11
7.81311
 21
12.592238
 31
0.0
  0
LINE
  5
21E
  8
0
 10
7.81311
 20
12.592238
 30
0.0
 11
8.033755
 21
12.592238
 31
0.0
  0
LINE
  5
21F
  8
0
 10
8.033755
 20
12.592238
 30
0.0
 11
8.306471
 21
12.592238
 31
0.0
  0
LINE
  5
220
  8
0
 10
8.306471
 20
12.592238
 30
0.0
 11
9.195746
 21
12.592238
 31
0.0
  0
LINE
  5
221
  8
0
 10
9.195746
 20
12.592238
 30
0.0
 11
9.373601
 21
12.592238
 31
0.0
  0
LINE
  5
222
  8
0
 10
9.373601
 20
12.592238
 30
0.0
 11
9.64489
 21
12.592238
 31
0.0
  0
LINE
  5
223
  8
0
 10
9.64489
 20
12.592238
 30
0.0
 11
10.018916
 21
12.592238
 31
0.0
  0
LINE
  5
224
  8
0
 10
10.018916
 20
12.592238
 30
0.0
 11
10.391476
 21
12.592238
 31
0.0
  0
LINE
  5
225
  8
0
 10
10.391476
 20
12.592238
 30
0.0
 11
11.280751
 21
12.592238
 31
0.0
  0
LINE
  5
226
  8
0
 10
11.280751
 20
12.592238
 30
0.0
 11
11.458606
 21
12.592238
 31
0.0
  0
LINE
  5
227
  8
0
 10
11.458606
 20
12.592238
 30
0.0
 11
11.630052
 21
12.592238
 31
0.0
  0
LINE
  5
228
  8
0
 10
11.630052
 20
12.592238
 30
0.0
 11
12.733277
 21
12.592238
 31
0.0
  0
LINE
  5
229
  8
0
 10
12.733277
 20
12.592238
 30
0.0
 11
13.107303
 21
12.592238
 31
0.0
  0
LINE
  5
22A
  8
0
 10
13.107303
 20
12.592238
 30
0.0
 11
13.234961
 21
12.592238
 31
0.0
  0
LINE
  5
22B
  8
0
 10
13.234961
 20
12.592238
 30
0.0
 11
13.434471
 21
12.592238
 31
0.0
  0
LINE
  5
22C
  8
0
 10
13.434471
 20
12.592238
 30
0.0
 11
14.291033
 21
12.592238
 31
0.0
  0
LINE
  5
22D
  8
0
 10
14.291033
 20
12.592238
 30
0.0
 11
14.40745
 21
12.592238
 31
0.0
  0
LINE
  5
22E
  8
0
 10
14.40745
 20
12.592238
 30
0.0
 11
14.626
 21
12.592238
 31
0.0
  0
ENDSEC
  0
EOF
