  0
SECTION
  2
HEADER
  9
$ACADVER
  1
AC1009
  9
$DWGCODEPAGE
  3
ANSI_1252
  9
$INSBASE
 10
0.0
 20
0.0
 30
0.0
  9
$EXTMIN
 10
1e+20
 20
1e+20
 30
1e+20
  9
$EXTMAX
 10
-1e+20
 20
-1e+20
 30
-1e+20
  9
$LIMMIN
 10
0.0
 20
0.0
  9
$LIMMAX
 10
420.0
 20
297.0
  9
$ORTHOMODE
 70
0
  9
$REGENMODE
 70
1
  9
$FILLMODE
 70
1
  9
$DRAGMODE
 70
2
  9
$QTEXTMODE
 70
0
  9
$MIRRTEXT
 70
1
  9
$OSMODE
 70
20583
  9
$LTSCALE
 40
1.0
  9
$ATTMODE
 70
1
  9
$TEXTSIZE
 40
2.5
  9
$TRACEWID
 40
1.0
  9
$TEXTSTYLE
  7
Standard
  9
$CLAYER
  8
0
  9
$CELTYPE
  6
ByLayer
  9
$CECOLOR
 62
256
  9
$DIMSCALE
 40
1.0
  9
$DIMASZ
 40
2.5
  9
$DIMEXO
 40
0.625
  9
$DIMDLI
 40
3.75
  9
$DIMRND
 40
0.0
  9
$DIMDLE
 40
0.0
  9
$DIMEXE
 40
1.25
  9
$DIMTP
 40
0.0
  9
$DIMTM
 40
0.0
  9
$DIMTXT
 40
2.5
  9
$DIMCEN
 40
2.5
  9
$DIMTSZ
 40
0.0
  9
$DIMTOL
 70
0
  9
$DIMLIM
 70
0
  9
$DIMTIH
 70
0
  9
$DIMTOH
 70
0
  9
$DIMSE1
 70
0
  9
$DIMSE2
 70
0
  9
$DIMTAD
 70
1
  9
$DIMZIN
 70
8
  9
$DIMBLK
  1

  9
$DIMASO
 70
1
  9
$DIMSHO
 70
1
  9
$DIMPOST
  1

  9
$DIMAPOST
  1

  9
$DIMALT
 70
0
  9
$DIMALTD
 70
3
  9
$DIMALTF
 40
0.03937007874
  9
$DIMLFAC
 40
1.0
  9
$DIMTOFL
 70
1
  9
$DIMTVP
 40
0.0
  9
$DIMTIX
 70
0
  9
$DIMSOXD
 70
0
  9
$DIMSAH
 70
0
  9
$DIMBLK1
  1

  9
$DIMBLK2
  1

  9
$DIMSTYLE
  2
ISO-25
  9
$DIMCLRD
 70
0
  9
$DIMCLRE
 70
0
  9
$DIMCLRT
 70
0
  9
$DIMTFAC
 40
1.0
  9
$DIMGAP
 40
0.625
  9
$COORDS
 70
1
  9
$ATTDIA
 70
0
  9
$ATTREQ
 70
1
  9
$HANDLING
 70
1
  9
$LUNITS
 70
2
  9
$LUPREC
 70
4
  9
$SKETCHINC
 40
1.0
  9
$FILLETRAD
 40
10.0
  9
$AUNITS
 70
0
  9
$AUPREC
 70
2
  9
$MENU
  1
.
  9
$ELEVATION
 40
0.0
  9
$PELEVATION
 40
0.0
  9
$THICKNESS
 40
0.0
  9
$LIMCHECK
 70
0
  9
$CHAMFERA
 40
0.0
  9
$CHAMFERB
 40
0.0
  9
$SKPOLY
 70
0
  9
$TDCREATE
 40
2460887.6269675926
  9
$TDUPDATE
 40
2460887.6269675926
  9
$TDINDWG
 40
0.0
  9
$TDUSRTIMER
 40
0.0
  9
$USRTIMER
 70
1
  9
$ANGBASE
 50
0.0
  9
$ANGDIR
 70
0
  9
$PDMODE
 70
0
  9
$PDSIZE
 40
0.0
  9
$PLINEWID
 40
0.0
  9
$SPLFRAME
 70
0
  9
$SPLINETYPE
 70
6
  9
$SPLINESEGS
 70
8
  9
$HANDSEED
  5
12A
  9
$SURFTAB1
 70
6
  9
$SURFTAB2
 70
6
  9
$SURFTYPE
 70
6
  9
$SURFU
 70
6
  9
$SURFV
 70
6
  9
$UCSNAME
  2

  9
$UCSORG
 10
0.0
 20
0.0
 30
0.0
  9
$UCSXDIR
 10
1.0
 20
0.0
 30
0.0
  9
$UCSYDIR
 10
0.0
 20
1.0
 30
0.0
  9
$PUCSNAME
  2

  9
$PUCSORG
 10
0.0
 20
0.0
 30
0.0
  9
$PUCSXDIR
 10
1.0
 20
0.0
 30
0.0
  9
$PUCSYDIR
 10
0.0
 20
1.0
 30
0.0
  9
$USERI1
 70
0
  9
$USERI2
 70
0
  9
$USERI3
 70
0
  9
$USERI4
 70
0
  9
$USERI5
 70
0
  9
$USERR1
 40
0.0
  9
$USERR2
 40
0.0
  9
$USERR3
 40
0.0
  9
$USERR4
 40
0.0
  9
$USERR5
 40
0.0
  9
$WORLDVIEW
 70
1
  9
$SHADEDGE
 70
3
  9
$SHADEDIF
 70
70
  9
$TILEMODE
 70
1
  9
$MAXACTVP
 70
64
  9
$PLIMCHECK
 70
0
  9
$PEXTMIN
 10
1e+20
 20
1e+20
 30
1e+20
  9
$PEXTMAX
 10
-1e+20
 20
-1e+20
 30
-1e+20
  9
$PLIMMIN
 10
0.0
 20
0.0
  9
$PLIMMAX
 10
420.0
 20
297.0
  9
$UNITMODE
 70
0
  9
$VISRETAIN
 70
1
  9
$PLINEGEN
 70
0
  9
$PSLTSCALE
 70
1
  0
ENDSEC
  0
SECTION
  2
TABLES
  0
TABLE
  2
VPORT
 70
1
  0
VPORT
  5
23
  2
*Active
 70
0
 10
0.0
 20
0.0
 11
1.0
 21
1.0
 12
0.0
 22
0.0
 13
0.0
 23
0.0
 14
0.5
 24
0.5
 15
0.5
 25
0.5
 16
0.0
 26
0.0
 36
1.0
 17
0.0
 27
0.0
 37
0.0
 40
1000.0
 41
1.34
 42
50.0
 43
0.0
 44
0.0
 50
0.0
 51
0.0
 71
0
 72
1000
 73
1
 74
3
 75
0
 76
0
 77
0
 78
0
  0
ENDTAB
  0
TABLE
  2
LTYPE
 70
3
  0
LTYPE
  5
24
  2
ByBlock
 70
0
  3

 72
65
 73
0
 40
0.0
  0
LTYPE
  5
25
  2
ByLayer
 70
0
  3

 72
65
 73
0
 40
0.0
  0
LTYPE
  5
26
  2
Continuous
 70
0
  3

 72
65
 73
0
 40
0.0
  0
ENDTAB
  0
TABLE
  2
LAYER
 70
2
  0
LAYER
  5
27
  2
0
 70
0
 62
7
  6
Continuous
  0
LAYER
  5
28
  2
Defpoints
 70
0
 62
7
  6
Continuous
  0
ENDTAB
  0
TABLE
  2
STYLE
 70
1
  0
STYLE
  5
29
  2
Standard
 70
0
 40
0.0
 41
1.0
 50
0.0
 71
0
 42
2.5
  3
txt
  4

  0
ENDTAB
  0
TABLE
  2
VIEW
 70
0
  0
ENDTAB
  0
TABLE
  2
UCS
 70
0
  0
ENDTAB
  0
TABLE
  2
APPID
 70
3
  0
APPID
  5
2A
  2
ACAD
 70
0
  0
APPID
  5
128
  2
HATCHBACKGROUNDCOLOR
 70
0
  0
APPID
  5
129
  2
EZDXF
 70
0
  0
ENDTAB
  0
TABLE
  2
DIMSTYLE
 70
1
  0
DIMSTYLE
105
2B
  2
Standard
 70
0
  3

  4

  5

  6

  7

 40
1.0
 41
2.5
 42
0.625
 43
3.75
 44
1.25
 45
0.0
 46
0.0
 47
0.0
 48
0.0
140
2.5
141
2.5
142
0.0
143
0.03937007874
144
1.0
145
0.0
146
1.0
147
0.625
 71
0
 72
0
 73
0
 74
0
 75
0
 76
0
 77
1
 78
8
170
0
171
3
172
1
173
0
174
0
175
0
176
0
177
0
178
0
  0
ENDTAB
  0
ENDSEC
  0
SECTION
  2
BLOCKS
  0
BLOCK
  5
18
  8
0
  2
$Model_Space
 70
0
 10
0.0
 20
0.0
 30
0.0
  3
$Model_Space
  1

1001
EZDXF
1000
CREATED_BY_EZDXF
1000
1.4.2 @ 2025-07-30T18:02:50.961540+00:00
1000
WRITTEN_BY_EZDXF
1000
1.4.2 @ 2025-07-30T18:02:50.977165+00:00
  0
ENDBLK
  5
19
  8
0
  0
BLOCK
  5
1C
  8
0
  2
$Paper_Space
 70
0
 10
0.0
 20
0.0
 30
0.0
  3
$Paper_Space
  1

  0
ENDBLK
  5
1D
  8
0
  0
ENDSEC
  0
SECTION
  2
ENTITIES
  0
LINE
  5
2D
  8
0
 10
14.941
 20
0.059
 30
0.0
 11
0.059
 21
0.059
 31
0.0
  0
LINE
  5
2E
  8
0
 10
0.059
 20
0.059
 30
0.0
 11
0.059
 21
14.941
 31
0.0
  0
LINE
  5
2F
  8
0
 10
0.059
 20
14.941
 30
0.0
 11
14.941
 21
14.941
 31
0.0
  0
LINE
  5
30
  8
0
 10
14.941
 20
14.941
 30
0.0
 11
14.941
 21
0.059
 31
0.0
  0
LINE
  5
31
  8
0
 10
14.941
 20
0.059
 30
0.0
 11
14.941
 21
0.059
 31
0.0
  0
LINE
  5
32
  8
0
 10
14.861
 20
0.139
 30
0.0
 11
0.139
 21
0.139
 31
0.0
  0
LINE
  5
33
  8
0
 10
0.139
 20
0.139
 30
0.0
 11
0.139
 21
14.861
 31
0.0
  0
LINE
  5
34
  8
0
 10
0.139
 20
14.861
 30
0.0
 11
14.861
 21
14.861
 31
0.0
  0
LINE
  5
35
  8
0
 10
14.861
 20
14.861
 30
0.0
 11
14.861
 21
0.139
 31
0.0
  0
LINE
  5
36
  8
0
 10
14.861
 20
0.139
 30
0.0
 11
14.861
 21
0.139
 31
0.0
  0
LINE
  5
37
  8
0
 10
14.781
 20
0.219
 30
0.0
 11
0.219
 21
0.219
 31
0.0
  0
LINE
  5
38
  8
0
 10
0.219
 20
0.219
 30
0.0
 11
0.219
 21
14.781
 31
0.0
  0
LINE
  5
39
  8
0
 10
0.219
 20
14.781
 30
0.0
 11
14.781
 21
14.781
 31
0.0
  0
LINE
  5
3A
  8
0
 10
14.781
 20
14.781
 30
0.0
 11
14.781
 21
0.219
 31
0.0
  0
LINE
  5
3B
  8
0
 10
14.781
 20
0.219
 30
0.0
 11
14.781
 21
0.219
 31
0.0
  0
LINE
  5
3C
  8
0
 10
0.299
 20
14.55138
 30
0.0
 11
0.36251
 21
14.701
 31
0.0
  0
LINE
  5
3D
  8
0
 10
0.44941
 20
14.701
 30
0.0
 11
0.299
 21
14.34664
 31
0.0
  0
LINE
  5
3E
  8
0
 10
0.299
 20
14.14189
 30
0.0
 11
0.53632
 21
14.701
 31
0.0
  0
LINE
  5
3F
  8
0
 10
0.62323
 20
14.701
 30
0.0
 11
0.299
 21
13.93715
 31
0.0
  0
LINE
  5
40
  8
0
 10
0.299
 20
13.73241
 30
0.0
 11
0.71014
 21
14.701
 31
0.0
  0
LINE
  5
41
  8
0
 10
0.79705
 20
14.701
 30
0.0
 11
0.299
 21
13.52767
 31
0.0
  0
LINE
  5
42
  8
0
 10
0.299
 20
13.32293
 30
0.0
 11
0.88396
 21
14.701
 31
0.0
  0
LINE
  5
43
  8
0
 10
0.97087
 20
14.701
 30
0.0
 11
0.299
 21
13.11818
 31
0.0
  0
LINE
  5
44
  8
0
 10
0.299
 20
12.91344
 30
0.0
 11
1.05777
 21
14.701
 31
0.0
  0
LINE
  5
45
  8
0
 10
1.14468
 20
14.701
 30
0.0
 11
0.299
 21
12.70869
 31
0.0
  0
LINE
  5
46
  8
0
 10
0.299
 20
12.50395
 30
0.0
 11
1.23159
 21
14.701
 31
0.0
  0
LINE
  5
47
  8
0
 10
1.3185
 20
14.701
 30
0.0
 11
0.299
 21
12.2992
 31
0.0
  0
LINE
  5
48
  8
0
 10
0.299
 20
12.09447
 30
0.0
 11
1.40541
 21
14.701
 31
0.0
  0
LINE
  5
49
  8
0
 10
1.49232
 20
14.701
 30
0.0
 11
0.299
 21
11.88971
 31
0.0
  0
LINE
  5
4A
  8
0
 10
0.299
 20
11.68496
 30
0.0
 11
1.57923
 21
14.701
 31
0.0
  0
LINE
  5
4B
  8
0
 10
1.66614
 20
14.701
 30
0.0
 11
0.299
 21
11.48022
 31
0.0
  0
LINE
  5
4C
  8
0
 10
0.299
 20
11.27548
 30
0.0
 11
1.75304
 21
14.701
 31
0.0
  0
LINE
  5
4D
  8
0
 10
1.83995
 20
14.701
 30
0.0
 11
0.299
 21
11.07073
 31
0.0
  0
LINE
  5
4E
  8
0
 10
0.299
 20
10.86599
 30
0.0
 11
1.92686
 21
14.701
 31
0.0
  0
LINE
  5
4F
  8
0
 10
2.01377
 20
14.701
 30
0.0
 11
0.299
 21
10.66125
 31
0.0
  0
LINE
  5
50
  8
0
 10
0.299
 20
10.45649
 30
0.0
 11
2.10068
 21
14.701
 31
0.0
  0
LINE
  5
51
  8
0
 10
2.18759
 20
14.701
 30
0.0
 11
0.299
 21
10.25175
 31
0.0
  0
LINE
  5
52
  8
0
 10
0.299
 20
10.04701
 30
0.0
 11
2.2745
 21
14.701
 31
0.0
  0
LINE
  5
53
  8
0
 10
2.36141
 20
14.701
 30
0.0
 11
0.299
 21
9.84226
 31
0.0
  0
LINE
  5
54
  8
0
 10
0.299
 20
9.63752
 30
0.0
 11
2.44832
 21
14.701
 31
0.0
  0
LINE
  5
55
  8
0
 10
2.53523
 20
14.701
 30
0.0
 11
0.299
 21
9.43278
 31
0.0
  0
LINE
  5
56
  8
0
 10
0.299
 20
9.22803
 30
0.0
 11
2.62213
 21
14.701
 31
0.0
  0
LINE
  5
57
  8
0
 10
2.70904
 20
14.701
 30
0.0
 11
0.299
 21
9.02329
 31
0.0
  0
LINE
  5
58
  8
0
 10
0.299
 20
8.81854
 30
0.0
 11
2.79595
 21
14.701
 31
0.0
  0
LINE
  5
59
  8
0
 10
2.88286
 20
14.701
 30
0.0
 11
0.299
 21
8.6138
 31
0.0
  0
LINE
  5
5A
  8
0
 10
0.299
 20
8.40906
 30
0.0
 11
2.96977
 21
14.701
 31
0.0
  0
LINE
  5
5B
  8
0
 10
3.05668
 20
14.701
 30
0.0
 11
0.299
 21
8.20432
 31
0.0
  0
LINE
  5
5C
  8
0
 10
0.299
 20
7.99957
 30
0.0
 11
3.14359
 21
14.701
 31
0.0
  0
LINE
  5
5D
  8
0
 10
3.23049
 20
14.701
 30
0.0
 11
0.299
 21
7.79483
 31
0.0
  0
LINE
  5
5E
  8
0
 10
0.299
 20
7.59008
 30
0.0
 11
3.3174
 21
14.701
 31
0.0
  0
LINE
  5
5F
  8
0
 10
3.40431
 20
14.701
 30
0.0
 11
0.299
 21
7.38534
 31
0.0
  0
LINE
  5
60
  8
0
 10
0.299
 20
7.1806
 30
0.0
 11
3.49122
 21
14.701
 31
0.0
  0
LINE
  5
61
  8
0
 10
3.57813
 20
14.701
 30
0.0
 11
0.299
 21
6.97585
 31
0.0
  0
LINE
  5
62
  8
0
 10
0.299
 20
6.77111
 30
0.0
 11
3.66504
 21
14.701
 31
0.0
  0
LINE
  5
63
  8
0
 10
3.75194
 20
14.701
 30
0.0
 11
0.299
 21
6.56637
 31
0.0
  0
LINE
  5
64
  8
0
 10
0.299
 20
6.36162
 30
0.0
 11
3.83885
 21
14.701
 31
0.0
  0
LINE
  5
65
  8
0
 10
3.92576
 20
14.701
 30
0.0
 11
0.299
 21
6.15688
 31
0.0
  0
LINE
  5
66
  8
0
 10
0.299
 20
5.95214
 30
0.0
 11
4.01267
 21
14.701
 31
0.0
  0
LINE
  5
67
  8
0
 10
4.09958
 20
14.701
 30
0.0
 11
0.299
 21
5.7474
 31
0.0
  0
LINE
  5
68
  8
0
 10
0.299
 20
5.54264
 30
0.0
 11
4.18649
 21
14.701
 31
0.0
  0
LINE
  5
69
  8
0
 10
4.2734
 20
14.701
 30
0.0
 11
0.299
 21
5.33789
 31
0.0
  0
LINE
  5
6A
  8
0
 10
0.299
 20
5.13315
 30
0.0
 11
4.36031
 21
14.701
 31
0.0
  0
LINE
  5
6B
  8
0
 10
4.44722
 20
14.701
 30
0.0
 11
0.299
 21
4.9284
 31
0.0
  0
LINE
  5
6C
  8
0
 10
0.299
 20
4.72366
 30
0.0
 11
4.53412
 21
14.701
 31
0.0
  0
LINE
  5
6D
  8
0
 10
4.62103
 20
14.701
 30
0.0
 11
0.299
 21
4.51892
 31
0.0
  0
LINE
  5
6E
  8
0
 10
0.299
 20
4.31417
 30
0.0
 11
4.70794
 21
14.701
 31
0.0
  0
LINE
  5
6F
  8
0
 10
4.79486
 20
14.701
 30
0.0
 11
0.299
 21
4.10943
 31
0.0
  0
LINE
  5
70
  8
0
 10
0.299
 20
3.90468
 30
0.0
 11
4.88176
 21
14.701
 31
0.0
  0
LINE
  5
71
  8
0
 10
4.96867
 20
14.701
 30
0.0
 11
0.299
 21
3.69994
 31
0.0
  0
LINE
  5
72
  8
0
 10
0.299
 20
3.49519
 30
0.0
 11
5.05558
 21
14.701
 31
0.0
  0
LINE
  5
73
  8
0
 10
5.14249
 20
14.701
 30
0.0
 11
0.299
 21
3.29045
 31
0.0
  0
LINE
  5
74
  8
0
 10
0.299
 20
3.08571
 30
0.0
 11
5.2294
 21
14.701
 31
0.0
  0
LINE
  5
75
  8
0
 10
5.31631
 20
14.701
 30
0.0
 11
0.299
 21
2.88097
 31
0.0
  0
LINE
  5
76
  8
0
 10
0.299
 20
2.67622
 30
0.0
 11
5.40321
 21
14.701
 31
0.0
  0
LINE
  5
77
  8
0
 10
5.49012
 20
14.701
 30
0.0
 11
0.299
 21
2.47148
 31
0.0
  0
LINE
  5
78
  8
0
 10
0.299
 20
2.26673
 30
0.0
 11
5.57703
 21
14.701
 31
0.0
  0
LINE
  5
79
  8
0
 10
5.66394
 20
14.701
 30
0.0
 11
0.299
 21
2.06199
 31
0.0
  0
LINE
  5
7A
  8
0
 10
0.299
 20
1.85725
 30
0.0
 11
5.75085
 21
14.701
 31
0.0
  0
LINE
  5
7B
  8
0
 10
5.83776
 20
14.701
 30
0.0
 11
0.299
 21
1.6525
 31
0.0
  0
LINE
  5
7C
  8
0
 10
0.299
 20
1.44776
 30
0.0
 11
5.92466
 21
14.701
 31
0.0
  0
LINE
  5
7D
  8
0
 10
6.01157
 20
14.701
 30
0.0
 11
0.299
 21
1.24302
 31
0.0
  0
LINE
  5
7E
  8
0
 10
0.299
 20
1.03827
 30
0.0
 11
6.09848
 21
14.701
 31
0.0
  0
LINE
  5
7F
  8
0
 10
6.18539
 20
14.701
 30
0.0
 11
0.299
 21
0.83353
 31
0.0
  0
LINE
  5
80
  8
0
 10
0.299
 20
0.62879
 30
0.0
 11
6.2723
 21
14.701
 31
0.0
  0
LINE
  5
81
  8
0
 10
6.35921
 20
14.701
 30
0.0
 11
0.299
 21
0.42405
 31
0.0
  0
LINE
  5
82
  8
0
 10
0.33283
 20
0.299
 30
0.0
 11
6.44611
 21
14.701
 31
0.0
  0
LINE
  5
83
  8
0
 10
6.53302
 20
14.701
 30
0.0
 11
0.41974
 21
0.299
 31
0.0
  0
LINE
  5
84
  8
0
 10
0.50665
 20
0.299
 30
0.0
 11
6.61993
 21
14.701
 31
0.0
  0
LINE
  5
85
  8
0
 10
6.70684
 20
14.701
 30
0.0
 11
0.59356
 21
0.299
 31
0.0
  0
LINE
  5
86
  8
0
 10
0.68046
 20
0.299
 30
0.0
 11
6.79375
 21
14.701
 31
0.0
  0
LINE
  5
87
  8
0
 10
6.88066
 20
14.701
 30
0.0
 11
0.76737
 21
0.299
 31
0.0
  0
LINE
  5
88
  8
0
 10
0.85429
 20
0.299
 30
0.0
 11
6.96757
 21
14.701
 31
0.0
  0
LINE
  5
89
  8
0
 10
7.05448
 20
14.701
 30
0.0
 11
0.9412
 21
0.299
 31
0.0
  0
LINE
  5
8A
  8
0
 10
1.02811
 20
0.299
 30
0.0
 11
7.14139
 21
14.701
 31
0.0
  0
LINE
  5
8B
  8
0
 10
7.22829
 20
14.701
 30
0.0
 11
1.11502
 21
0.299
 31
0.0
  0
LINE
  5
8C
  8
0
 10
1.20192
 20
0.299
 30
0.0
 11
7.3152
 21
14.701
 31
0.0
  0
LINE
  5
8D
  8
0
 10
7.40211
 20
14.701
 30
0.0
 11
1.28883
 21
0.299
 31
0.0
  0
LINE
  5
8E
  8
0
 10
1.37574
 20
0.299
 30
0.0
 11
7.48902
 21
14.701
 31
0.0
  0
LINE
  5
8F
  8
0
 10
7.57593
 20
14.701
 30
0.0
 11
1.46265
 21
0.299
 31
0.0
  0
LINE
  5
90
  8
0
 10
1.54956
 20
0.299
 30
0.0
 11
7.66284
 21
14.701
 31
0.0
  0
LINE
  5
91
  8
0
 10
7.74975
 20
14.701
 30
0.0
 11
1.63647
 21
0.299
 31
0.0
  0
LINE
  5
92
  8
0
 10
1.72337
 20
0.299
 30
0.0
 11
7.83666
 21
14.701
 31
0.0
  0
LINE
  5
93
  8
0
 10
7.92357
 20
14.701
 30
0.0
 11
1.81028
 21
0.299
 31
0.0
  0
LINE
  5
94
  8
0
 10
1.89719
 20
0.299
 30
0.0
 11
8.01048
 21
14.701
 31
0.0
  0
LINE
  5
95
  8
0
 10
8.09739
 20
14.701
 30
0.0
 11
1.9841
 21
0.299
 31
0.0
  0
LINE
  5
96
  8
0
 10
2.07101
 20
0.299
 30
0.0
 11
8.18429
 21
14.701
 31
0.0
  0
LINE
  5
97
  8
0
 10
8.2712
 20
14.701
 30
0.0
 11
2.15792
 21
0.299
 31
0.0
  0
LINE
  5
98
  8
0
 10
2.24483
 20
0.299
 30
0.0
 11
8.35811
 21
14.701
 31
0.0
  0
LINE
  5
99
  8
0
 10
8.44502
 20
14.701
 30
0.0
 11
2.33173
 21
0.299
 31
0.0
  0
LINE
  5
9A
  8
0
 10
2.41864
 20
0.299
 30
0.0
 11
8.53193
 21
14.701
 31
0.0
  0
LINE
  5
9B
  8
0
 10
8.61884
 20
14.701
 30
0.0
 11
2.50555
 21
0.299
 31
0.0
  0
LINE
  5
9C
  8
0
 10
2.59246
 20
0.299
 30
0.0
 11
8.70574
 21
14.701
 31
0.0
  0
LINE
  5
9D
  8
0
 10
8.79265
 20
14.701
 30
0.0
 11
2.67937
 21
0.299
 31
0.0
  0
LINE
  5
9E
  8
0
 10
2.76628
 20
0.299
 30
0.0
 11
8.87956
 21
14.701
 31
0.0
  0
LINE
  5
9F
  8
0
 10
8.96647
 20
14.701
 30
0.0
 11
2.85318
 21
0.299
 31
0.0
  0
LINE
  5
A0
  8
0
 10
2.94009
 20
0.299
 30
0.0
 11
9.05338
 21
14.701
 31
0.0
  0
LINE
  5
A1
  8
0
 10
9.14029
 20
14.701
 30
0.0
 11
3.027
 21
0.299
 31
0.0
  0
LINE
  5
A2
  8
0
 10
3.11391
 20
0.299
 30
0.0
 11
9.2272
 21
14.701
 31
0.0
  0
LINE
  5
A3
  8
0
 10
9.3141
 20
14.701
 30
0.0
 11
3.20082
 21
0.299
 31
0.0
  0
LINE
  5
A4
  8
0
 10
3.28773
 20
0.299
 30
0.0
 11
9.40101
 21
14.701
 31
0.0
  0
LINE
  5
A5
  8
0
 10
9.48792
 20
14.701
 30
0.0
 11
3.37463
 21
0.299
 31
0.0
  0
LINE
  5
A6
  8
0
 10
3.46154
 20
0.299
 30
0.0
 11
9.57483
 21
14.701
 31
0.0
  0
LINE
  5
A7
  8
0
 10
9.66174
 20
14.701
 30
0.0
 11
3.54846
 21
0.299
 31
0.0
  0
LINE
  5
A8
  8
0
 10
3.63537
 20
0.299
 30
0.0
 11
9.74865
 21
14.701
 31
0.0
  0
LINE
  5
A9
  8
0
 10
9.83556
 20
14.701
 30
0.0
 11
3.72228
 21
0.299
 31
0.0
  0
LINE
  5
AA
  8
0
 10
3.80918
 20
0.299
 30
0.0
 11
9.92246
 21
14.701
 31
0.0
  0
LINE
  5
AB
  8
0
 10
10.00937
 20
14.701
 30
0.0
 11
3.89609
 21
0.299
 31
0.0
  0
LINE
  5
AC
  8
0
 10
3.983
 20
0.299
 30
0.0
 11
10.09628
 21
14.701
 31
0.0
  0
LINE
  5
AD
  8
0
 10
10.18319
 20
14.701
 30
0.0
 11
4.06991
 21
0.299
 31
0.0
  0
LINE
  5
AE
  8
0
 10
4.15682
 20
0.299
 30
0.0
 11
10.27011
 21
14.701
 31
0.0
  0
LINE
  5
AF
  8
0
 10
10.35702
 20
14.701
 30
0.0
 11
4.24373
 21
0.299
 31
0.0
  0
LINE
  5
B0
  8
0
 10
4.33064
 20
0.299
 30
0.0
 11
10.44392
 21
14.701
 31
0.0
  0
LINE
  5
B1
  8
0
 10
10.53083
 20
14.701
 30
0.0
 11
4.41755
 21
0.299
 31
0.0
  0
LINE
  5
B2
  8
0
 10
4.50445
 20
0.299
 30
0.0
 11
10.61774
 21
14.701
 31
0.0
  0
LINE
  5
B3
  8
0
 10
10.70465
 20
14.701
 30
0.0
 11
4.59136
 21
0.299
 31
0.0
  0
LINE
  5
B4
  8
0
 10
4.67827
 20
0.299
 30
0.0
 11
10.79156
 21
14.701
 31
0.0
  0
LINE
  5
B5
  8
0
 10
10.87847
 20
14.701
 30
0.0
 11
4.76518
 21
0.299
 31
0.0
  0
LINE
  5
B6
  8
0
 10
4.85209
 20
0.299
 30
0.0
 11
10.96537
 21
14.701
 31
0.0
  0
LINE
  5
B7
  8
0
 10
11.05228
 20
14.701
 30
0.0
 11
4.939
 21
0.299
 31
0.0
  0
LINE
  5
B8
  8
0
 10
5.0259
 20
0.299
 30
0.0
 11
11.13919
 21
14.701
 31
0.0
  0
LINE
  5
B9
  8
0
 10
11.2261
 20
14.701
 30
0.0
 11
5.11281
 21
0.299
 31
0.0
  0
LINE
  5
BA
  8
0
 10
5.19972
 20
0.299
 30
0.0
 11
11.31301
 21
14.701
 31
0.0
  0
LINE
  5
BB
  8
0
 10
11.39992
 20
14.701
 30
0.0
 11
5.28663
 21
0.299
 31
0.0
  0
LINE
  5
BC
  8
0
 10
5.37354
 20
0.299
 30
0.0
 11
11.48683
 21
14.701
 31
0.0
  0
LINE
  5
BD
  8
0
 10
11.57373
 20
14.701
 30
0.0
 11
5.46045
 21
0.299
 31
0.0
  0
LINE
  5
BE
  8
0
 10
5.54735
 20
0.299
 30
0.0
 11
11.66064
 21
14.701
 31
0.0
  0
LINE
  5
BF
  8
0
 10
11.74755
 20
14.701
 30
0.0
 11
5.63426
 21
0.299
 31
0.0
  0
LINE
  5
C0
  8
0
 10
5.72117
 20
0.299
 30
0.0
 11
11.83446
 21
14.701
 31
0.0
  0
LINE
  5
C1
  8
0
 10
11.92137
 20
14.701
 30
0.0
 11
5.80808
 21
0.299
 31
0.0
  0
LINE
  5
C2
  8
0
 10
5.89499
 20
0.299
 30
0.0
 11
12.00828
 21
14.701
 31
0.0
  0
LINE
  5
C3
  8
0
 10
12.09518
 20
14.701
 30
0.0
 11
5.9819
 21
0.299
 31
0.0
  0
LINE
  5
C4
  8
0
 10
6.06881
 20
0.299
 30
0.0
 11
12.18209
 21
14.701
 31
0.0
  0
LINE
  5
C5
  8
0
 10
12.269
 20
14.701
 30
0.0
 11
6.15571
 21
0.299
 31
0.0
  0
LINE
  5
C6
  8
0
 10
6.24263
 20
0.299
 30
0.0
 11
12.35591
 21
14.701
 31
0.0
  0
LINE
  5
C7
  8
0
 10
12.44282
 20
14.701
 30
0.0
 11
6.32954
 21
0.299
 31
0.0
  0
LINE
  5
C8
  8
0
 10
6.41645
 20
0.299
 30
0.0
 11
12.52973
 21
14.701
 31
0.0
  0
LINE
  5
C9
  8
0
 10
12.61664
 20
14.701
 30
0.0
 11
6.50336
 21
0.299
 31
0.0
  0
LINE
  5
CA
  8
0
 10
6.59026
 20
0.299
 30
0.0
 11
12.70354
 21
14.701
 31
0.0
  0
LINE
  5
CB
  8
0
 10
12.79045
 20
14.701
 30
0.0
 11
6.67717
 21
0.299
 31
0.0
  0
LINE
  5
CC
  8
0
 10
6.76408
 20
0.299
 30
0.0
 11
12.87736
 21
14.701
 31
0.0
  0
LINE
  5
CD
  8
0
 10
12.96427
 20
14.701
 30
0.0
 11
6.85099
 21
0.299
 31
0.0
  0
LINE
  5
CE
  8
0
 10
6.9379
 20
0.299
 30
0.0
 11
13.05119
 21
14.701
 31
0.0
  0
LINE
  5
CF
  8
0
 10
13.1381
 20
14.701
 30
0.0
 11
7.02481
 21
0.299
 31
0.0
  0
LINE
  5
D0
  8
0
 10
7.11172
 20
0.299
 30
0.0
 11
13.225
 21
14.701
 31
0.0
  0
LINE
  5
D1
  8
0
 10
13.31191
 20
14.701
 30
0.0
 11
7.19862
 21
0.299
 31
0.0
  0
LINE
  5
D2
  8
0
 10
7.28553
 20
0.299
 30
0.0
 11
13.39882
 21
14.701
 31
0.0
  0
LINE
  5
D3
  8
0
 10
13.48573
 20
14.701
 30
0.0
 11
7.37244
 21
0.299
 31
0.0
  0
LINE
  5
D4
  8
0
 10
7.45935
 20
0.299
 30
0.0
 11
13.57264
 21
14.701
 31
0.0
  0
LINE
  5
D5
  8
0
 10
13.65955
 20
14.701
 30
0.0
 11
7.54626
 21
0.299
 31
0.0
  0
LINE
  5
D6
  8
0
 10
7.63317
 20
0.299
 30
0.0
 11
13.74646
 21
14.701
 31
0.0
  0
LINE
  5
D7
  8
0
 10
13.83336
 20
14.701
 30
0.0
 11
7.72008
 21
0.299
 31
0.0
  0
LINE
  5
D8
  8
0
 10
7.80698
 20
0.299
 30
0.0
 11
13.92027
 21
14.701
 31
0.0
  0
LINE
  5
D9
  8
0
 10
14.00718
 20
14.701
 30
0.0
 11
7.89389
 21
0.299
 31
0.0
  0
LINE
  5
DA
  8
0
 10
7.9808
 20
0.299
 30
0.0
 11
14.09409
 21
14.701
 31
0.0
  0
LINE
  5
DB
  8
0
 10
14.181
 20
14.701
 30
0.0
 11
8.06771
 21
0.299
 31
0.0
  0
LINE
  5
DC
  8
0
 10
8.15462
 20
0.299
 30
0.0
 11
14.26791
 21
14.701
 31
0.0
  0
LINE
  5
DD
  8
0
 10
14.35481
 20
14.701
 30
0.0
 11
8.24153
 21
0.299
 31
0.0
  0
LINE
  5
DE
  8
0
 10
8.32843
 20
0.299
 30
0.0
 11
14.44172
 21
14.701
 31
0.0
  0
LINE
  5
DF
  8
0
 10
14.52863
 20
14.701
 30
0.0
 11
8.41534
 21
0.299
 31
0.0
  0
LINE
  5
E0
  8
0
 10
8.50225
 20
0.299
 30
0.0
 11
14.61554
 21
14.701
 31
0.0
  0
LINE
  5
E1
  8
0
 10
14.701
 20
14.69758
 30
0.0
 11
8.58916
 21
0.299
 31
0.0
  0
LINE
  5
E2
  8
0
 10
8.67607
 20
0.299
 30
0.0
 11
14.701
 21
14.49284
 31
0.0
  0
LINE
  5
E3
  8
0
 10
14.701
 20
14.28809
 30
0.0
 11
8.76298
 21
0.299
 31
0.0
  0
LINE
  5
E4
  8
0
 10
8.84988
 20
0.299
 30
0.0
 11
14.701
 21
14.08336
 31
0.0
  0
LINE
  5
E5
  8
0
 10
14.701
 20
13.87861
 30
0.0
 11
8.93679
 21
0.299
 31
0.0
  0
LINE
  5
E6
  8
0
 10
9.02371
 20
0.299
 30
0.0
 11
14.701
 21
13.67387
 31
0.0
  0
LINE
  5
E7
  8
0
 10
14.701
 20
13.46912
 30
0.0
 11
9.11062
 21
0.299
 31
0.0
  0
LINE
  5
E8
  8
0
 10
9.19753
 20
0.299
 30
0.0
 11
14.701
 21
13.26438
 31
0.0
  0
LINE
  5
E9
  8
0
 10
14.701
 20
13.05963
 30
0.0
 11
9.28443
 21
0.299
 31
0.0
  0
LINE
  5
EA
  8
0
 10
9.37134
 20
0.299
 30
0.0
 11
14.701
 21
12.8549
 31
0.0
  0
LINE
  5
EB
  8
0
 10
14.701
 20
12.65015
 30
0.0
 11
9.45825
 21
0.299
 31
0.0
  0
LINE
  5
EC
  8
0
 10
9.54516
 20
0.299
 30
0.0
 11
14.701
 21
12.4454
 31
0.0
  0
LINE
  5
ED
  8
0
 10
14.701
 20
12.24064
 30
0.0
 11
9.63207
 21
0.299
 31
0.0
  0
LINE
  5
EE
  8
0
 10
9.71898
 20
0.299
 30
0.0
 11
14.701
 21
12.0359
 31
0.0
  0
LINE
  5
EF
  8
0
 10
14.701
 20
11.83115
 30
0.0
 11
9.80589
 21
0.299
 31
0.0
  0
LINE
  5
F0
  8
0
 10
9.8928
 20
0.299
 30
0.0
 11
14.701
 21
11.62641
 31
0.0
  0
LINE
  5
F1
  8
0
 10
14.701
 20
11.42167
 30
0.0
 11
9.9797
 21
0.299
 31
0.0
  0
LINE
  5
F2
  8
0
 10
10.06661
 20
0.299
 30
0.0
 11
14.701
 21
11.21692
 31
0.0
  0
LINE
  5
F3
  8
0
 10
14.701
 20
11.01218
 30
0.0
 11
10.15352
 21
0.299
 31
0.0
  0
LINE
  5
F4
  8
0
 10
10.24043
 20
0.299
 30
0.0
 11
14.701
 21
10.80743
 31
0.0
  0
LINE
  5
F5
  8
0
 10
14.701
 20
10.60269
 30
0.0
 11
10.32734
 21
0.299
 31
0.0
  0
LINE
  5
F6
  8
0
 10
10.41425
 20
0.299
 30
0.0
 11
14.701
 21
10.39795
 31
0.0
  0
LINE
  5
F7
  8
0
 10
14.701
 20
10.19321
 30
0.0
 11
10.50115
 21
0.299
 31
0.0
  0
LINE
  5
F8
  8
0
 10
10.58806
 20
0.299
 30
0.0
 11
14.701
 21
9.98847
 31
0.0
  0
LINE
  5
F9
  8
0
 10
14.701
 20
9.78372
 30
0.0
 11
10.67497
 21
0.299
 31
0.0
  0
LINE
  5
FA
  8
0
 10
10.76188
 20
0.299
 30
0.0
 11
14.701
 21
9.57898
 31
0.0
  0
LINE
  5
FB
  8
0
 10
14.701
 20
9.37423
 30
0.0
 11
10.84879
 21
0.299
 31
0.0
  0
LINE
  5
FC
  8
0
 10
10.9357
 20
0.299
 30
0.0
 11
14.701
 21
9.16949
 31
0.0
  0
LINE
  5
FD
  8
0
 10
14.701
 20
8.96474
 30
0.0
 11
11.02261
 21
0.299
 31
0.0
  0
LINE
  5
FE
  8
0
 10
11.10951
 20
0.299
 30
0.0
 11
14.701
 21
8.76001
 31
0.0
  0
LINE
  5
FF
  8
0
 10
14.701
 20
8.55526
 30
0.0
 11
11.19642
 21
0.299
 31
0.0
  0
LINE
  5
100
  8
0
 10
11.28333
 20
0.299
 30
0.0
 11
14.701
 21
8.35052
 31
0.0
  0
LINE
  5
101
  8
0
 10
14.701
 20
8.14577
 30
0.0
 11
11.37024
 21
0.299
 31
0.0
  0
LINE
  5
102
  8
0
 10
11.45715
 20
0.299
 30
0.0
 11
14.701
 21
7.94103
 31
0.0
  0
LINE
  5
103
  8
0
 10
14.701
 20
7.73628
 30
0.0
 11
11.54406
 21
0.299
 31
0.0
  0
LINE
  5
104
  8
0
 10
11.63096
 20
0.299
 30
0.0
 11
14.701
 21
7.53155
 31
0.0
  0
LINE
  5
105
  8
0
 10
14.701
 20
7.32679
 30
0.0
 11
11.71788
 21
0.299
 31
0.0
  0
LINE
  5
106
  8
0
 10
11.80479
 20
0.299
 30
0.0
 11
14.701
 21
7.12205
 31
0.0
  0
LINE
  5
107
  8
0
 10
14.701
 20
6.9173
 30
0.0
 11
11.8917
 21
0.299
 31
0.0
  0
LINE
  5
108
  8
0
 10
11.9786
 20
0.299
 30
0.0
 11
14.701
 21
6.71256
 31
0.0
  0
LINE
  5
109
  8
0
 10
14.701
 20
6.50782
 30
0.0
 11
12.06551
 21
0.299
 31
0.0
  0
LINE
  5
10A
  8
0
 10
12.15242
 20
0.299
 30
0.0
 11
14.701
 21
6.30307
 31
0.0
  0
LINE
  5
10B
  8
0
 10
14.701
 20
6.09833
 30
0.0
 11
12.23933
 21
0.299
 31
0.0
  0
LINE
  5
10C
  8
0
 10
12.32624
 20
0.299
 30
0.0
 11
14.701
 21
5.89359
 31
0.0
  0
LINE
  5
10D
  8
0
 10
14.701
 20
5.68883
 30
0.0
 11
12.41315
 21
0.299
 31
0.0
  0
LINE
  5
10E
  8
0
 10
12.50006
 20
0.299
 30
0.0
 11
14.701
 21
5.48408
 31
0.0
  0
LINE
  5
10F
  8
0
 10
14.701
 20
5.27934
 30
0.0
 11
12.58697
 21
0.299
 31
0.0
  0
LINE
  5
110
  8
0
 10
12.67388
 20
0.299
 30
0.0
 11
14.701
 21
5.0746
 31
0.0
  0
LINE
  5
111
  8
0
 10
14.701
 20
4.86986
 30
0.0
 11
12.76078
 21
0.299
 31
0.0
  0
LINE
  5
112
  8
0
 10
12.84769
 20
0.299
 30
0.0
 11
14.701
 21
4.66511
 31
0.0
  0
LINE
  5
113
  8
0
 10
14.701
 20
4.46037
 30
0.0
 11
12.9346
 21
0.299
 31
0.0
  0
LINE
  5
114
  8
0
 10
13.02151
 20
0.299
 30
0.0
 11
14.701
 21
4.25562
 31
0.0
  0
LINE
  5
115
  8
0
 10
14.701
 20
4.05088
 30
0.0
 11
13.10842
 21
0.299
 31
0.0
  0
LINE
  5
116
  8
0
 10
13.19533
 20
0.299
 30
0.0
 11
14.701
 21
3.84614
 31
0.0
  0
LINE
  5
117
  8
0
 10
14.701
 20
3.64139
 30
0.0
 11
13.28224
 21
0.299
 31
0.0
  0
LINE
  5
118
  8
0
 10
13.36914
 20
0.299
 30
0.0
 11
14.701
 21
3.43665
 31
0.0
  0
LINE
  5
119
  8
0
 10
14.701
 20
3.23191
 30
0.0
 11
13.45605
 21
0.299
 31
0.0
  0
LINE
  5
11A
  8
0
 10
13.54296
 20
0.299
 30
0.0
 11
14.701
 21
3.02716
 31
0.0
  0
LINE
  5
11B
  8
0
 10
14.701
 20
2.82242
 30
0.0
 11
13.62987
 21
0.299
 31
0.0
  0
LINE
  5
11C
  8
0
 10
13.71678
 20
0.299
 30
0.0
 11
14.701
 21
2.61768
 31
0.0
  0
LINE
  5
11D
  8
0
 10
14.701
 20
2.41293
 30
0.0
 11
13.80369
 21
0.299
 31
0.0
  0
LINE
  5
11E
  8
0
 10
13.89059
 20
0.299
 30
0.0
 11
14.701
 21
2.20819
 31
0.0
  0
LINE
  5
11F
  8
0
 10
14.701
 20
2.00345
 30
0.0
 11
13.9775
 21
0.299
 31
0.0
  0
LINE
  5
120
  8
0
 10
14.06441
 20
0.299
 30
0.0
 11
14.701
 21
1.7987
 31
0.0
  0
LINE
  5
121
  8
0
 10
14.701
 20
1.59396
 30
0.0
 11
14.15132
 21
0.299
 31
0.0
  0
LINE
  5
122
  8
0
 10
14.23823
 20
0.299
 30
0.0
 11
14.701
 21
1.38922
 31
0.0
  0
LINE
  5
123
  8
0
 10
14.701
 20
1.18448
 30
0.0
 11
14.32514
 21
0.299
 31
0.0
  0
LINE
  5
124
  8
0
 10
14.41204
 20
0.299
 30
0.0
 11
14.701
 21
0.97973
 31
0.0
  0
LINE
  5
125
  8
0
 10
14.701
 20
0.77497
 30
0.0
 11
14.49896
 21
0.299
 31
0.0
  0
LINE
  5
126
  8
0
 10
14.58587
 20
0.299
 30
0.0
 11
14.701
 21
0.57023
 31
0.0
  0
LINE
  5
127
  8
0
 10
14.701
 20
0.36548
 30
0.0
 11
14.67278
 21
0.299
 31
0.0
  0
ENDSEC
  0
EOF
