  0
SECTION
  2
HEADER
  9
$ACADVER
  1
AC1009
  9
$DWGCODEPAGE
  3
ANSI_1252
  9
$INSBASE
 10
0.0
 20
0.0
 30
0.0
  9
$EXTMIN
 10
1e+20
 20
1e+20
 30
1e+20
  9
$EXTMAX
 10
-1e+20
 20
-1e+20
 30
-1e+20
  9
$LIMMIN
 10
0.0
 20
0.0
  9
$LIMMAX
 10
420.0
 20
297.0
  9
$ORTHOMODE
 70
0
  9
$REGENMODE
 70
1
  9
$FILLMODE
 70
1
  9
$DRAGMODE
 70
2
  9
$QTEXTMODE
 70
0
  9
$MIRRTEXT
 70
1
  9
$OSMODE
 70
20583
  9
$LTSCALE
 40
1.0
  9
$ATTMODE
 70
1
  9
$TEXTSIZE
 40
2.5
  9
$TRACEWID
 40
1.0
  9
$TEXTSTYLE
  7
Standard
  9
$CLAYER
  8
0
  9
$CELTYPE
  6
ByLayer
  9
$CECOLOR
 62
256
  9
$DIMSCALE
 40
1.0
  9
$DIMASZ
 40
2.5
  9
$DIMEXO
 40
0.625
  9
$DIMDLI
 40
3.75
  9
$DIMRND
 40
0.0
  9
$DIMDLE
 40
0.0
  9
$DIMEXE
 40
1.25
  9
$DIMTP
 40
0.0
  9
$DIMTM
 40
0.0
  9
$DIMTXT
 40
2.5
  9
$DIMCEN
 40
2.5
  9
$DIMTSZ
 40
0.0
  9
$DIMTOL
 70
0
  9
$DIMLIM
 70
0
  9
$DIMTIH
 70
0
  9
$DIMTOH
 70
0
  9
$DIMSE1
 70
0
  9
$DIMSE2
 70
0
  9
$DIMTAD
 70
1
  9
$DIMZIN
 70
8
  9
$DIMBLK
  1

  9
$DIMASO
 70
1
  9
$DIMSHO
 70
1
  9
$DIMPOST
  1

  9
$DIMAPOST
  1

  9
$DIMALT
 70
0
  9
$DIMALTD
 70
3
  9
$DIMALTF
 40
0.03937007874
  9
$DIMLFAC
 40
1.0
  9
$DIMTOFL
 70
1
  9
$DIMTVP
 40
0.0
  9
$DIMTIX
 70
0
  9
$DIMSOXD
 70
0
  9
$DIMSAH
 70
0
  9
$DIMBLK1
  1

  9
$DIMBLK2
  1

  9
$DIMSTYLE
  2
ISO-25
  9
$DIMCLRD
 70
0
  9
$DIMCLRE
 70
0
  9
$DIMCLRT
 70
0
  9
$DIMTFAC
 40
1.0
  9
$DIMGAP
 40
0.625
  9
$COORDS
 70
1
  9
$ATTDIA
 70
0
  9
$ATTREQ
 70
1
  9
$HANDLING
 70
1
  9
$LUNITS
 70
2
  9
$LUPREC
 70
4
  9
$SKETCHINC
 40
1.0
  9
$FILLETRAD
 40
10.0
  9
$AUNITS
 70
0
  9
$AUPREC
 70
2
  9
$MENU
  1
.
  9
$ELEVATION
 40
0.0
  9
$PELEVATION
 40
0.0
  9
$THICKNESS
 40
0.0
  9
$LIMCHECK
 70
0
  9
$CHAMFERA
 40
0.0
  9
$CHAMFERB
 40
0.0
  9
$SKPOLY
 70
0
  9
$TDCREATE
 40
2460887.6272453703
  9
$TDUPDATE
 40
2460887.6272453703
  9
$TDINDWG
 40
0.0
  9
$TDUSRTIMER
 40
0.0
  9
$USRTIMER
 70
1
  9
$ANGBASE
 50
0.0
  9
$ANGDIR
 70
0
  9
$PDMODE
 70
0
  9
$PDSIZE
 40
0.0
  9
$PLINEWID
 40
0.0
  9
$SPLFRAME
 70
0
  9
$SPLINETYPE
 70
6
  9
$SPLINESEGS
 70
8
  9
$HANDSEED
  5
10F
  9
$SURFTAB1
 70
6
  9
$SURFTAB2
 70
6
  9
$SURFTYPE
 70
6
  9
$SURFU
 70
6
  9
$SURFV
 70
6
  9
$UCSNAME
  2

  9
$UCSORG
 10
0.0
 20
0.0
 30
0.0
  9
$UCSXDIR
 10
1.0
 20
0.0
 30
0.0
  9
$UCSYDIR
 10
0.0
 20
1.0
 30
0.0
  9
$PUCSNAME
  2

  9
$PUCSORG
 10
0.0
 20
0.0
 30
0.0
  9
$PUCSXDIR
 10
1.0
 20
0.0
 30
0.0
  9
$PUCSYDIR
 10
0.0
 20
1.0
 30
0.0
  9
$USERI1
 70
0
  9
$USERI2
 70
0
  9
$USERI3
 70
0
  9
$USERI4
 70
0
  9
$USERI5
 70
0
  9
$USERR1
 40
0.0
  9
$USERR2
 40
0.0
  9
$USERR3
 40
0.0
  9
$USERR4
 40
0.0
  9
$USERR5
 40
0.0
  9
$WORLDVIEW
 70
1
  9
$SHADEDGE
 70
3
  9
$SHADEDIF
 70
70
  9
$TILEMODE
 70
1
  9
$MAXACTVP
 70
64
  9
$PLIMCHECK
 70
0
  9
$PEXTMIN
 10
1e+20
 20
1e+20
 30
1e+20
  9
$PEXTMAX
 10
-1e+20
 20
-1e+20
 30
-1e+20
  9
$PLIMMIN
 10
0.0
 20
0.0
  9
$PLIMMAX
 10
420.0
 20
297.0
  9
$UNITMODE
 70
0
  9
$VISRETAIN
 70
1
  9
$PLINEGEN
 70
0
  9
$PSLTSCALE
 70
1
  0
ENDSEC
  0
SECTION
  2
TABLES
  0
TABLE
  2
VPORT
 70
1
  0
VPORT
  5
23
  2
*Active
 70
0
 10
0.0
 20
0.0
 11
1.0
 21
1.0
 12
0.0
 22
0.0
 13
0.0
 23
0.0
 14
0.5
 24
0.5
 15
0.5
 25
0.5
 16
0.0
 26
0.0
 36
1.0
 17
0.0
 27
0.0
 37
0.0
 40
1000.0
 41
1.34
 42
50.0
 43
0.0
 44
0.0
 50
0.0
 51
0.0
 71
0
 72
1000
 73
1
 74
3
 75
0
 76
0
 77
0
 78
0
  0
ENDTAB
  0
TABLE
  2
LTYPE
 70
3
  0
LTYPE
  5
24
  2
ByBlock
 70
0
  3

 72
65
 73
0
 40
0.0
  0
LTYPE
  5
25
  2
ByLayer
 70
0
  3

 72
65
 73
0
 40
0.0
  0
LTYPE
  5
26
  2
Continuous
 70
0
  3

 72
65
 73
0
 40
0.0
  0
ENDTAB
  0
TABLE
  2
LAYER
 70
2
  0
LAYER
  5
27
  2
0
 70
0
 62
7
  6
Continuous
  0
LAYER
  5
28
  2
Defpoints
 70
0
 62
7
  6
Continuous
  0
ENDTAB
  0
TABLE
  2
STYLE
 70
1
  0
STYLE
  5
29
  2
Standard
 70
0
 40
0.0
 41
1.0
 50
0.0
 71
0
 42
2.5
  3
txt
  4

  0
ENDTAB
  0
TABLE
  2
VIEW
 70
0
  0
ENDTAB
  0
TABLE
  2
UCS
 70
0
  0
ENDTAB
  0
TABLE
  2
APPID
 70
3
  0
APPID
  5
2A
  2
ACAD
 70
0
  0
APPID
  5
10D
  2
HATCHBACKGROUNDCOLOR
 70
0
  0
APPID
  5
10E
  2
EZDXF
 70
0
  0
ENDTAB
  0
TABLE
  2
DIMSTYLE
 70
1
  0
DIMSTYLE
105
2B
  2
Standard
 70
0
  3

  4

  5

  6

  7

 40
1.0
 41
2.5
 42
0.625
 43
3.75
 44
1.25
 45
0.0
 46
0.0
 47
0.0
 48
0.0
140
2.5
141
2.5
142
0.0
143
0.03937007874
144
1.0
145
0.0
146
1.0
147
0.625
 71
0
 72
0
 73
0
 74
0
 75
0
 76
0
 77
1
 78
8
170
0
171
3
172
1
173
0
174
0
175
0
176
0
177
0
178
0
  0
ENDTAB
  0
ENDSEC
  0
SECTION
  2
BLOCKS
  0
BLOCK
  5
18
  8
0
  2
$Model_Space
 70
0
 10
0.0
 20
0.0
 30
0.0
  3
$Model_Space
  1

1001
EZDXF
1000
CREATED_BY_EZDXF
1000
1.4.2 @ 2025-07-30T18:03:14.178008+00:00
1000
WRITTEN_BY_EZDXF
1000
1.4.2 @ 2025-07-30T18:03:14.194534+00:00
  0
ENDBLK
  5
19
  8
0
  0
BLOCK
  5
1C
  8
0
  2
$Paper_Space
 70
0
 10
0.0
 20
0.0
 30
0.0
  3
$Paper_Space
  1

  0
ENDBLK
  5
1D
  8
0
  0
ENDSEC
  0
SECTION
  2
ENTITIES
  0
LINE
  5
2D
  8
0
 10
2.429703
 20
0.433212
 30
0.0
 11
7.299569
 21
0.58163
 31
0.0
  0
LINE
  5
2E
  8
0
 10
7.299569
 20
0.58163
 30
0.0
 11
13.02823
 21
0.446062
 31
0.0
  0
LINE
  5
2F
  8
0
 10
13.02823
 20
0.446062
 30
0.0
 11
13.924284
 21
0.589679
 31
0.0
  0
LINE
  5
30
  8
0
 10
13.924284
 20
0.589679
 30
0.0
 11
14.358392
 21
0.83315
 31
0.0
  0
LINE
  5
31
  8
0
 10
14.358392
 20
0.83315
 30
0.0
 11
14.634214
 21
1.356993
 31
0.0
  0
LINE
  5
32
  8
0
 10
14.634214
 20
1.356993
 30
0.0
 11
14.748897
 21
2.320794
 31
0.0
  0
LINE
  5
33
  8
0
 10
14.748897
 20
2.320794
 30
0.0
 11
14.586814
 21
14.632914
 31
0.0
  0
LINE
  5
34
  8
0
 10
14.586814
 20
14.632914
 30
0.0
 11
2.238322
 21
14.753751
 31
0.0
  0
LINE
  5
35
  8
0
 10
2.238322
 20
14.753751
 30
0.0
 11
1.338363
 21
14.637268
 31
0.0
  0
LINE
  5
36
  8
0
 10
1.338363
 20
14.637268
 30
0.0
 11
0.866327
 21
14.379624
 31
0.0
  0
LINE
  5
37
  8
0
 10
0.866327
 20
14.379624
 30
0.0
 11
0.53743
 21
13.744788
 31
0.0
  0
LINE
  5
38
  8
0
 10
0.53743
 20
13.744788
 30
0.0
 11
0.436297
 21
12.715923
 31
0.0
  0
LINE
  5
39
  8
0
 10
0.436297
 20
12.715923
 30
0.0
 11
0.5816
 21
7.839145
 31
0.0
  0
LINE
  5
3A
  8
0
 10
0.5816
 20
7.839145
 30
0.0
 11
0.456008
 21
2.093662
 31
0.0
  0
LINE
  5
3B
  8
0
 10
0.456008
 20
2.093662
 30
0.0
 11
0.806799
 21
0.85731
 31
0.0
  0
LINE
  5
3C
  8
0
 10
0.806799
 20
0.85731
 30
0.0
 11
1.29652
 21
0.568548
 31
0.0
  0
LINE
  5
3D
  8
0
 10
1.29652
 20
0.568548
 30
0.0
 11
2.429703
 21
0.433212
 31
0.0
  0
LINE
  5
3E
  8
0
 10
2.429703
 20
0.433212
 30
0.0
 11
2.429703
 21
0.433212
 31
0.0
  0
LINE
  5
3F
  8
0
 10
2.429703
 20
0.433212
 30
0.0
 11
7.299569
 21
0.58163
 31
0.0
  0
LINE
  5
40
  8
0
 10
7.299569
 20
0.58163
 30
0.0
 11
13.02823
 21
0.446062
 31
0.0
  0
LINE
  5
41
  8
0
 10
13.02823
 20
0.446062
 30
0.0
 11
13.924284
 21
0.589679
 31
0.0
  0
LINE
  5
42
  8
0
 10
13.924284
 20
0.589679
 30
0.0
 11
14.358392
 21
0.83315
 31
0.0
  0
LINE
  5
43
  8
0
 10
14.358392
 20
0.83315
 30
0.0
 11
14.634214
 21
1.356993
 31
0.0
  0
LINE
  5
44
  8
0
 10
14.634214
 20
1.356993
 30
0.0
 11
14.748897
 21
2.320794
 31
0.0
  0
LINE
  5
45
  8
0
 10
14.748897
 20
2.320794
 30
0.0
 11
14.586814
 21
14.632914
 31
0.0
  0
LINE
  5
46
  8
0
 10
14.586814
 20
14.632914
 30
0.0
 11
2.238322
 21
14.753751
 31
0.0
  0
LINE
  5
47
  8
0
 10
2.238322
 20
14.753751
 30
0.0
 11
1.338363
 21
14.637268
 31
0.0
  0
LINE
  5
48
  8
0
 10
1.338363
 20
14.637268
 30
0.0
 11
0.866327
 21
14.379624
 31
0.0
  0
LINE
  5
49
  8
0
 10
0.866327
 20
14.379624
 30
0.0
 11
0.53743
 21
13.744788
 31
0.0
  0
LINE
  5
4A
  8
0
 10
0.53743
 20
13.744788
 30
0.0
 11
0.436297
 21
12.715923
 31
0.0
  0
LINE
  5
4B
  8
0
 10
0.436297
 20
12.715923
 30
0.0
 11
0.5816
 21
7.839145
 31
0.0
  0
LINE
  5
4C
  8
0
 10
0.5816
 20
7.839145
 30
0.0
 11
0.456008
 21
2.093662
 31
0.0
  0
LINE
  5
4D
  8
0
 10
0.456008
 20
2.093662
 30
0.0
 11
0.806799
 21
0.85731
 31
0.0
  0
LINE
  5
4E
  8
0
 10
0.806799
 20
0.85731
 30
0.0
 11
1.29652
 21
0.568548
 31
0.0
  0
LINE
  5
4F
  8
0
 10
1.29652
 20
0.568548
 30
0.0
 11
2.429703
 21
0.433212
 31
0.0
  0
LINE
  5
50
  8
0
 10
2.429703
 20
0.433212
 30
0.0
 11
2.429703
 21
0.433212
 31
0.0
  0
LINE
  5
51
  8
0
 10
2.592849
 20
0.866253
 30
0.0
 11
2.592849
 21
1.626253
 31
0.0
  0
LINE
  5
52
  8
0
 10
2.592849
 20
0.866253
 30
0.0
 11
2.592849
 21
1.626253
 31
0.0
  0
LINE
  5
53
  8
0
 10
2.592849
 20
1.626253
 30
0.0
 11
2.592849
 21
2.1075
 31
0.0
  0
LINE
  5
54
  8
0
 10
2.592849
 20
2.666224
 30
0.0
 11
2.592849
 21
3.413623
 31
0.0
  0
LINE
  5
55
  8
0
 10
2.592849
 20
3.413623
 30
0.0
 11
2.592849
 21
3.907468
 31
0.0
  0
LINE
  5
56
  8
0
 10
2.592849
 20
4.4665
 30
0.0
 11
2.592849
 21
5.4115
 31
0.0
  0
LINE
  5
57
  8
0
 10
2.592849
 20
5.4115
 30
0.0
 11
2.592849
 21
5.7075
 31
0.0
  0
LINE
  5
58
  8
0
 10
2.592849
 20
6.265767
 30
0.0
 11
2.592849
 21
6.5433
 31
0.0
  0
LINE
  5
59
  8
0
 10
2.592849
 20
6.5433
 30
0.0
 11
2.592849
 21
7.5075
 31
0.0
  0
LINE
  5
5A
  8
0
 10
2.592849
 20
8.066424
 30
0.0
 11
2.592849
 21
8.066557
 31
0.0
  0
LINE
  5
5B
  8
0
 10
2.592849
 20
8.066557
 30
0.0
 11
2.592849
 21
8.553999
 31
0.0
  0
LINE
  5
5C
  8
0
 10
2.592849
 20
8.553999
 30
0.0
 11
2.592849
 21
9.307361
 31
0.0
  0
LINE
  5
5D
  8
0
 10
2.592849
 20
9.307361
 30
0.0
 11
2.592849
 21
9.30755
 31
0.0
  0
LINE
  5
5E
  8
0
 10
2.592849
 20
9.8665
 30
0.0
 11
2.592849
 21
10.876278
 31
0.0
  0
LINE
  5
5F
  8
0
 10
2.592849
 20
10.876278
 30
0.0
 11
2.592849
 21
11.107429
 31
0.0
  0
LINE
  5
60
  8
0
 10
2.592849
 20
11.66632
 30
0.0
 11
2.592849
 21
12.567615
 31
0.0
  0
LINE
  5
61
  8
0
 10
2.592849
 20
12.567615
 30
0.0
 11
2.592849
 21
12.9075
 31
0.0
  0
LINE
  5
62
  8
0
 10
2.592849
 20
13.466172
 30
0.0
 11
2.592849
 21
13.762761
 31
0.0
  0
LINE
  5
63
  8
0
 10
2.592849
 20
13.762761
 30
0.0
 11
2.592849
 21
14.35167
 31
0.0
  0
LINE
  5
64
  8
0
 10
5.092849
 20
0.945393
 30
0.0
 11
5.092849
 21
1.64337
 31
0.0
  0
LINE
  5
65
  8
0
 10
5.092849
 20
0.945393
 30
0.0
 11
5.092849
 21
1.64337
 31
0.0
  0
LINE
  5
66
  8
0
 10
5.092849
 20
1.64337
 30
0.0
 11
5.092849
 21
2.1865
 31
0.0
  0
LINE
  5
67
  8
0
 10
5.092849
 20
2.74473
 30
0.0
 11
5.092849
 21
3.737892
 31
0.0
  0
LINE
  5
68
  8
0
 10
5.092849
 20
3.737892
 30
0.0
 11
5.092849
 21
3.9865
 31
0.0
  0
LINE
  5
69
  8
0
 10
5.092849
 20
4.5455
 30
0.0
 11
5.092849
 21
4.8415
 31
0.0
  0
LINE
  5
6A
  8
0
 10
5.092849
 20
4.8415
 30
0.0
 11
5.092849
 21
5.7865
 31
0.0
  0
LINE
  5
6B
  8
0
 10
5.092849
 20
6.34503
 30
0.0
 11
5.092849
 21
6.563275
 31
0.0
  0
LINE
  5
6C
  8
0
 10
5.092849
 20
6.563275
 30
0.0
 11
5.092849
 21
7.5865
 31
0.0
  0
LINE
  5
6D
  8
0
 10
5.092849
 20
8.145136
 30
0.0
 11
5.092849
 21
9.037915
 31
0.0
  0
LINE
  5
6E
  8
0
 10
5.092849
 20
9.037915
 30
0.0
 11
5.092849
 21
9.3865
 31
0.0
  0
LINE
  5
6F
  8
0
 10
5.092849
 20
9.9455
 30
0.0
 11
5.092849
 21
10.920931
 31
0.0
  0
LINE
  5
70
  8
0
 10
5.092849
 20
10.920931
 30
0.0
 11
5.092849
 21
11.186467
 31
0.0
  0
LINE
  5
71
  8
0
 10
5.092849
 20
11.7455
 30
0.0
 11
5.092849
 21
12.6905
 31
0.0
  0
LINE
  5
72
  8
0
 10
5.092849
 20
12.6905
 30
0.0
 11
5.092849
 21
12.9865
 31
0.0
  0
LINE
  5
73
  8
0
 10
5.092849
 20
13.544722
 30
0.0
 11
5.092849
 21
14.041926
 31
0.0
  0
LINE
  5
74
  8
0
 10
5.092849
 20
14.041926
 30
0.0
 11
5.092849
 21
14.32607
 31
0.0
  0
LINE
  5
75
  8
0
 10
7.592849
 20
1.00413
 30
0.0
 11
7.592849
 21
1.9495
 31
0.0
  0
LINE
  5
76
  8
0
 10
7.592849
 20
1.00413
 30
0.0
 11
7.592849
 21
1.9495
 31
0.0
  0
LINE
  5
77
  8
0
 10
7.592849
 20
1.9495
 30
0.0
 11
7.592849
 21
2.2455
 31
0.0
  0
LINE
  5
78
  8
0
 10
7.592849
 20
2.803753
 30
0.0
 11
7.592849
 21
3.454991
 31
0.0
  0
LINE
  5
79
  8
0
 10
7.592849
 20
3.454991
 30
0.0
 11
7.592849
 21
4.044927
 31
0.0
  0
LINE
  5
7A
  8
0
 10
7.592849
 20
4.044927
 30
0.0
 11
7.592849
 21
4.045601
 31
0.0
  0
LINE
  5
7B
  8
0
 10
7.592849
 20
4.60413
 30
0.0
 11
7.592849
 21
4.9005
 31
0.0
  0
LINE
  5
7C
  8
0
 10
7.592849
 20
4.9005
 30
0.0
 11
7.592849
 21
5.8455
 31
0.0
  0
LINE
  5
7D
  8
0
 10
7.592849
 20
6.403757
 30
0.0
 11
7.592849
 21
6.842572
 31
0.0
  0
LINE
  5
7E
  8
0
 10
7.592849
 20
6.842572
 30
0.0
 11
7.592849
 21
6.846829
 31
0.0
  0
LINE
  5
7F
  8
0
 10
7.592849
 20
6.846829
 30
0.0
 11
7.592849
 21
6.989893
 31
0.0
  0
LINE
  5
80
  8
0
 10
7.592849
 20
6.989893
 30
0.0
 11
7.592849
 21
7.6455
 31
0.0
  0
LINE
  5
81
  8
0
 10
7.592849
 20
8.203714
 30
0.0
 11
7.592849
 21
9.066515
 31
0.0
  0
LINE
  5
82
  8
0
 10
7.592849
 20
9.066515
 30
0.0
 11
7.592849
 21
9.4455
 31
0.0
  0
LINE
  5
83
  8
0
 10
7.592849
 20
10.0035
 30
0.0
 11
7.592849
 21
10.003697
 31
0.0
  0
LINE
  5
84
  8
0
 10
7.592849
 20
10.003697
 30
0.0
 11
7.592849
 21
11.047688
 31
0.0
  0
LINE
  5
85
  8
0
 10
7.592849
 20
11.047688
 30
0.0
 11
7.592849
 21
11.245538
 31
0.0
  0
LINE
  5
86
  8
0
 10
7.592849
 20
11.80413
 30
0.0
 11
7.592849
 21
12.7495
 31
0.0
  0
LINE
  5
87
  8
0
 10
7.592849
 20
12.7495
 30
0.0
 11
7.592849
 21
13.0455
 31
0.0
  0
LINE
  5
88
  8
0
 10
7.592849
 20
13.60392
 30
0.0
 11
7.592849
 21
14.013697
 31
0.0
  0
LINE
  5
89
  8
0
 10
7.592849
 20
14.013697
 30
0.0
 11
7.592849
 21
14.331086
 31
0.0
  0
LINE
  5
8A
  8
0
 10
10.092849
 20
0.944206
 30
0.0
 11
10.092849
 21
1.643341
 31
0.0
  0
LINE
  5
8B
  8
0
 10
10.092849
 20
0.944206
 30
0.0
 11
10.092849
 21
1.643341
 31
0.0
  0
LINE
  5
8C
  8
0
 10
10.092849
 20
1.643341
 30
0.0
 11
10.092849
 21
2.1855
 31
0.0
  0
LINE
  5
8D
  8
0
 10
10.092849
 20
2.7445
 30
0.0
 11
10.092849
 21
3.70465
 31
0.0
  0
LINE
  5
8E
  8
0
 10
10.092849
 20
3.70465
 30
0.0
 11
10.092849
 21
3.985597
 31
0.0
  0
LINE
  5
8F
  8
0
 10
10.092849
 20
4.5445
 30
0.0
 11
10.092849
 21
4.8405
 31
0.0
  0
LINE
  5
90
  8
0
 10
10.092849
 20
4.8405
 30
0.0
 11
10.092849
 21
5.7855
 31
0.0
  0
LINE
  5
91
  8
0
 10
10.092849
 20
6.34377
 30
0.0
 11
10.092849
 21
6.556067
 31
0.0
  0
LINE
  5
92
  8
0
 10
10.092849
 20
6.556067
 30
0.0
 11
10.092849
 21
6.562275
 31
0.0
  0
LINE
  5
93
  8
0
 10
10.092849
 20
6.562275
 30
0.0
 11
10.092849
 21
7.5855
 31
0.0
  0
LINE
  5
94
  8
0
 10
10.092849
 20
8.143995
 30
0.0
 11
10.092849
 21
9.037437
 31
0.0
  0
LINE
  5
95
  8
0
 10
10.092849
 20
9.037437
 30
0.0
 11
10.092849
 21
9.3855
 31
0.0
  0
LINE
  5
96
  8
0
 10
10.092849
 20
9.9445
 30
0.0
 11
10.092849
 21
10.513582
 31
0.0
  0
LINE
  5
97
  8
0
 10
10.092849
 20
10.513582
 30
0.0
 11
10.092849
 21
10.515179
 31
0.0
  0
LINE
  5
98
  8
0
 10
10.092849
 20
10.515179
 30
0.0
 11
10.092849
 21
11.185583
 31
0.0
  0
LINE
  5
99
  8
0
 10
10.092849
 20
11.7445
 30
0.0
 11
10.092849
 21
12.6895
 31
0.0
  0
LINE
  5
9A
  8
0
 10
10.092849
 20
12.6895
 30
0.0
 11
10.092849
 21
12.9855
 31
0.0
  0
LINE
  5
9B
  8
0
 10
10.092849
 20
13.544111
 30
0.0
 11
10.092849
 21
14.033262
 31
0.0
  0
LINE
  5
9C
  8
0
 10
10.092849
 20
14.033262
 30
0.0
 11
10.092849
 21
14.31058
 31
0.0
  0
LINE
  5
9D
  8
0
 10
12.592849
 20
0.884023
 30
0.0
 11
12.592849
 21
1.63097
 31
0.0
  0
LINE
  5
9E
  8
0
 10
12.592849
 20
0.884023
 30
0.0
 11
12.592849
 21
1.63097
 31
0.0
  0
LINE
  5
9F
  8
0
 10
12.592849
 20
1.63097
 30
0.0
 11
12.592849
 21
2.1255
 31
0.0
  0
LINE
  5
A0
  8
0
 10
12.592849
 20
2.683854
 30
0.0
 11
12.592849
 21
2.8475
 31
0.0
  0
LINE
  5
A1
  8
0
 10
12.592849
 20
2.8475
 30
0.0
 11
12.592849
 21
3.9255
 31
0.0
  0
LINE
  5
A2
  8
0
 10
12.592849
 20
4.4845
 30
0.0
 11
12.592849
 21
4.7805
 31
0.0
  0
LINE
  5
A3
  8
0
 10
12.592849
 20
4.7805
 30
0.0
 11
12.592849
 21
5.7255
 31
0.0
  0
LINE
  5
A4
  8
0
 10
12.592849
 20
6.2845
 30
0.0
 11
12.592849
 21
6.5805
 31
0.0
  0
LINE
  5
A5
  8
0
 10
12.592849
 20
6.5805
 30
0.0
 11
12.592849
 21
7.5255
 31
0.0
  0
LINE
  5
A6
  8
0
 10
12.592849
 20
8.084384
 30
0.0
 11
12.592849
 21
8.084519
 31
0.0
  0
LINE
  5
A7
  8
0
 10
12.592849
 20
8.084519
 30
0.0
 11
12.592849
 21
9.139095
 31
0.0
  0
LINE
  5
A8
  8
0
 10
12.592849
 20
9.139095
 30
0.0
 11
12.592849
 21
9.3255
 31
0.0
  0
LINE
  5
A9
  8
0
 10
12.592849
 20
9.883696
 30
0.0
 11
12.592849
 21
10.043116
 31
0.0
  0
LINE
  5
AA
  8
0
 10
12.592849
 20
10.043116
 30
0.0
 11
12.592849
 21
10.056483
 31
0.0
  0
LINE
  5
AB
  8
0
 10
12.592849
 20
10.056483
 30
0.0
 11
12.592849
 21
11.1255
 31
0.0
  0
LINE
  5
AC
  8
0
 10
12.592849
 20
11.6845
 30
0.0
 11
12.592849
 21
12.6295
 31
0.0
  0
LINE
  5
AD
  8
0
 10
12.592849
 20
12.6295
 30
0.0
 11
12.592849
 21
12.9255
 31
0.0
  0
LINE
  5
AE
  8
0
 10
12.592849
 20
13.483914
 30
0.0
 11
12.592849
 21
14.049585
 31
0.0
  0
LINE
  5
AF
  8
0
 10
12.592849
 20
14.049585
 30
0.0
 11
12.592849
 21
14.2909
 31
0.0
  0
LINE
  5
B0
  8
0
 10
0.833918
 20
2.592238
 30
0.0
 11
0.876074
 21
2.592238
 31
0.0
  0
LINE
  5
B1
  8
0
 10
0.833918
 20
2.592238
 30
0.0
 11
0.876074
 21
2.592238
 31
0.0
  0
LINE
  5
B2
  8
0
 10
0.876074
 20
2.592238
 30
0.0
 11
1.417386
 21
2.592238
 31
0.0
  0
LINE
  5
B3
  8
0
 10
1.417386
 20
2.592238
 30
0.0
 11
1.7095
 21
2.592238
 31
0.0
  0
LINE
  5
B4
  8
0
 10
2.2685
 20
2.592238
 30
0.0
 11
2.5645
 21
2.592238
 31
0.0
  0
LINE
  5
B5
  8
0
 10
2.5645
 20
2.592238
 30
0.0
 11
3.5095
 21
2.592238
 31
0.0
  0
LINE
  5
B6
  8
0
 10
4.068167
 20
2.592238
 30
0.0
 11
4.851016
 21
2.592238
 31
0.0
  0
LINE
  5
B7
  8
0
 10
4.851016
 20
2.592238
 30
0.0
 11
5.3095
 21
2.592238
 31
0.0
  0
LINE
  5
B8
  8
0
 10
5.868483
 20
2.592238
 30
0.0
 11
6.627438
 21
2.592238
 31
0.0
  0
LINE
  5
B9
  8
0
 10
6.627438
 20
2.592238
 30
0.0
 11
7.1095
 21
2.592238
 31
0.0
  0
LINE
  5
BA
  8
0
 10
7.6685
 20
2.592238
 30
0.0
 11
7.9645
 21
2.592238
 31
0.0
  0
LINE
  5
BB
  8
0
 10
7.9645
 20
2.592238
 30
0.0
 11
8.9095
 21
2.592238
 31
0.0
  0
LINE
  5
BC
  8
0
 10
9.4685
 20
2.592238
 30
0.0
 11
10.4135
 21
2.592238
 31
0.0
  0
LINE
  5
BD
  8
0
 10
10.4135
 20
2.592238
 30
0.0
 11
10.7095
 21
2.592238
 31
0.0
  0
LINE
  5
BE
  8
0
 10
11.26809
 20
2.592238
 30
0.0
 11
11.738504
 21
2.592238
 31
0.0
  0
LINE
  5
BF
  8
0
 10
11.738504
 20
2.592238
 30
0.0
 11
12.508977
 21
2.592238
 31
0.0
  0
LINE
  5
C0
  8
0
 10
12.508977
 20
2.592238
 30
0.0
 11
12.509725
 21
2.592238
 31
0.0
  0
LINE
  5
C1
  8
0
 10
13.068308
 20
2.592238
 30
0.0
 11
13.162529
 21
2.592238
 31
0.0
  0
LINE
  5
C2
  8
0
 10
13.162529
 20
2.592238
 30
0.0
 11
14.3095
 21
2.592238
 31
0.0
  0
LINE
  5
C3
  8
0
 10
0.840698
 20
5.092238
 30
0.0
 11
1.380436
 21
5.092238
 31
0.0
  0
LINE
  5
C4
  8
0
 10
0.840698
 20
5.092238
 30
0.0
 11
1.380436
 21
5.092238
 31
0.0
  0
LINE
  5
C5
  8
0
 10
1.380436
 20
5.092238
 30
0.0
 11
1.6215
 21
5.092238
 31
0.0
  0
LINE
  5
C6
  8
0
 10
2.1805
 20
5.092238
 30
0.0
 11
2.4765
 21
5.092238
 31
0.0
  0
LINE
  5
C7
  8
0
 10
2.4765
 20
5.092238
 30
0.0
 11
3.4215
 21
5.092238
 31
0.0
  0
LINE
  5
C8
  8
0
 10
3.980124
 20
5.092238
 30
0.0
 11
4.611579
 21
5.092238
 31
0.0
  0
LINE
  5
C9
  8
0
 10
4.611579
 20
5.092238
 30
0.0
 11
5.2215
 21
5.092238
 31
0.0
  0
LINE
  5
CA
  8
0
 10
5.779933
 20
5.092238
 30
0.0
 11
6.598951
 21
5.092238
 31
0.0
  0
LINE
  5
CB
  8
0
 10
6.598951
 20
5.092238
 30
0.0
 11
7.0215
 21
5.092238
 31
0.0
  0
LINE
  5
CC
  8
0
 10
7.580052
 20
5.092238
 30
0.0
 11
7.693898
 21
5.092238
 31
0.0
  0
LINE
  5
CD
  8
0
 10
7.693898
 20
5.092238
 30
0.0
 11
8.69163
 21
5.092238
 31
0.0
  0
LINE
  5
CE
  8
0
 10
8.69163
 20
5.092238
 30
0.0
 11
8.8215
 21
5.092238
 31
0.0
  0
LINE
  5
CF
  8
0
 10
9.3805
 20
5.092238
 30
0.0
 11
10.3255
 21
5.092238
 31
0.0
  0
LINE
  5
D0
  8
0
 10
10.3255
 20
5.092238
 30
0.0
 11
10.6215
 21
5.092238
 31
0.0
  0
LINE
  5
D1
  8
0
 10
11.180421
 20
5.092238
 30
0.0
 11
11.489433
 21
5.092238
 31
0.0
  0
LINE
  5
D2
  8
0
 10
11.489433
 20
5.092238
 30
0.0
 11
11.608857
 21
5.092238
 31
0.0
  0
LINE
  5
D3
  8
0
 10
11.608857
 20
5.092238
 30
0.0
 11
12.4215
 21
5.092238
 31
0.0
  0
LINE
  5
D4
  8
0
 10
12.9805
 20
5.092238
 30
0.0
 11
13.2765
 21
5.092238
 31
0.0
  0
LINE
  5
D5
  8
0
 10
13.2765
 20
5.092238
 30
0.0
 11
14.2215
 21
5.092238
 31
0.0
  0
LINE
  5
D6
  8
0
 10
0.871207
 20
7.592238
 30
0.0
 11
1.369599
 21
7.592238
 31
0.0
  0
LINE
  5
D7
  8
0
 10
0.871207
 20
7.592238
 30
0.0
 11
1.369599
 21
7.592238
 31
0.0
  0
LINE
  5
D8
  8
0
 10
1.369599
 20
7.592238
 30
0.0
 11
1.5965
 21
7.592238
 31
0.0
  0
LINE
  5
D9
  8
0
 10
2.1555
 20
7.592238
 30
0.0
 11
2.4515
 21
7.592238
 31
0.0
  0
LINE
  5
DA
  8
0
 10
2.4515
 20
7.592238
 30
0.0
 11
3.3965
 21
7.592238
 31
0.0
  0
LINE
  5
DB
  8
0
 10
3.955333
 20
7.592238
 30
0.0
 11
4.531824
 21
7.592238
 31
0.0
  0
LINE
  5
DC
  8
0
 10
4.531824
 20
7.592238
 30
0.0
 11
5.1965
 21
7.592238
 31
0.0
  0
LINE
  5
DD
  8
0
 10
5.755331
 20
7.592238
 30
0.0
 11
5.849529
 21
7.592238
 31
0.0
  0
LINE
  5
DE
  8
0
 10
5.849529
 20
7.592238
 30
0.0
 11
6.9965
 21
7.592238
 31
0.0
  0
LINE
  5
DF
  8
0
 10
7.554822
 20
7.592238
 30
0.0
 11
7.690079
 21
7.592238
 31
0.0
  0
LINE
  5
E0
  8
0
 10
7.690079
 20
7.592238
 30
0.0
 11
8.67588
 21
7.592238
 31
0.0
  0
LINE
  5
E1
  8
0
 10
8.67588
 20
7.592238
 30
0.0
 11
8.7965
 21
7.592238
 31
0.0
  0
LINE
  5
E2
  8
0
 10
9.3555
 20
7.592238
 30
0.0
 11
9.6515
 21
7.592238
 31
0.0
  0
LINE
  5
E3
  8
0
 10
9.6515
 20
7.592238
 30
0.0
 11
10.5965
 21
7.592238
 31
0.0
  0
LINE
  5
E4
  8
0
 10
11.154831
 20
7.592238
 30
0.0
 11
11.621326
 21
7.592238
 31
0.0
  0
LINE
  5
E5
  8
0
 10
11.621326
 20
7.592238
 30
0.0
 11
12.3965
 21
7.592238
 31
0.0
  0
LINE
  5
E6
  8
0
 10
12.954992
 20
7.592238
 30
0.0
 11
12.981996
 21
7.592238
 31
0.0
  0
LINE
  5
E7
  8
0
 10
12.981996
 20
7.592238
 30
0.0
 11
13.92788
 21
7.592238
 31
0.0
  0
LINE
  5
E8
  8
0
 10
13.92788
 20
7.592238
 30
0.0
 11
14.1965
 21
7.592238
 31
0.0
  0
LINE
  5
E9
  8
0
 10
0.83294
 20
10.092238
 30
0.0
 11
1.5965
 21
10.092238
 31
0.0
  0
LINE
  5
EA
  8
0
 10
0.83294
 20
10.092238
 30
0.0
 11
1.5965
 21
10.092238
 31
0.0
  0
LINE
  5
EB
  8
0
 10
2.1555
 20
10.092238
 30
0.0
 11
2.4515
 21
10.092238
 31
0.0
  0
LINE
  5
EC
  8
0
 10
2.4515
 20
10.092238
 30
0.0
 11
3.3965
 21
10.092238
 31
0.0
  0
LINE
  5
ED
  8
0
 10
3.955333
 20
10.092238
 30
0.0
 11
4.531824
 21
10.092238
 31
0.0
  0
LINE
  5
EE
  8
0
 10
4.531824
 20
10.092238
 30
0.0
 11
5.1965
 21
10.092238
 31
0.0
  0
LINE
  5
EF
  8
0
 10
5.755331
 20
10.092238
 30
0.0
 11
5.849529
 21
10.092238
 31
0.0
  0
LINE
  5
F0
  8
0
 10
5.849529
 20
10.092238
 30
0.0
 11
6.9965
 21
10.092238
 31
0.0
  0
LINE
  5
F1
  8
0
 10
7.554822
 20
10.092238
 30
0.0
 11
7.690079
 21
10.092238
 31
0.0
  0
LINE
  5
F2
  8
0
 10
7.690079
 20
10.092238
 30
0.0
 11
8.67588
 21
10.092238
 31
0.0
  0
LINE
  5
F3
  8
0
 10
8.67588
 20
10.092238
 30
0.0
 11
8.7965
 21
10.092238
 31
0.0
  0
LINE
  5
F4
  8
0
 10
9.3555
 20
10.092238
 30
0.0
 11
9.6515
 21
10.092238
 31
0.0
  0
LINE
  5
F5
  8
0
 10
9.6515
 20
10.092238
 30
0.0
 11
10.5965
 21
10.092238
 31
0.0
  0
LINE
  5
F6
  8
0
 10
11.154845
 20
10.092238
 30
0.0
 11
11.621326
 21
10.092238
 31
0.0
  0
LINE
  5
F7
  8
0
 10
11.621326
 20
10.092238
 30
0.0
 11
12.3965
 21
10.092238
 31
0.0
  0
LINE
  5
F8
  8
0
 10
12.954992
 20
10.092238
 30
0.0
 11
12.981996
 21
10.092238
 31
0.0
  0
LINE
  5
F9
  8
0
 10
12.981996
 20
10.092238
 30
0.0
 11
13.92788
 21
10.092238
 31
0.0
  0
LINE
  5
FA
  8
0
 10
13.92788
 20
10.092238
 30
0.0
 11
14.1965
 21
10.092238
 31
0.0
  0
LINE
  5
FB
  8
0
 10
0.78506
 20
12.592238
 30
0.0
 11
1.5965
 21
12.592238
 31
0.0
  0
LINE
  5
FC
  8
0
 10
0.78506
 20
12.592238
 30
0.0
 11
1.5965
 21
12.592238
 31
0.0
  0
LINE
  5
FD
  8
0
 10
2.1555
 20
12.592238
 30
0.0
 11
2.4515
 21
12.592238
 31
0.0
  0
LINE
  5
FE
  8
0
 10
2.4515
 20
12.592238
 30
0.0
 11
3.3965
 21
12.592238
 31
0.0
  0
LINE
  5
FF
  8
0
 10
3.955333
 20
12.592238
 30
0.0
 11
4.531824
 21
12.592238
 31
0.0
  0
LINE
  5
100
  8
0
 10
4.531824
 20
12.592238
 30
0.0
 11
5.1965
 21
12.592238
 31
0.0
  0
LINE
  5
101
  8
0
 10
5.755331
 20
12.592238
 30
0.0
 11
5.849529
 21
12.592238
 31
0.0
  0
LINE
  5
102
  8
0
 10
5.849529
 20
12.592238
 30
0.0
 11
6.9965
 21
12.592238
 31
0.0
  0
LINE
  5
103
  8
0
 10
7.554822
 20
12.592238
 30
0.0
 11
7.690079
 21
12.592238
 31
0.0
  0
LINE
  5
104
  8
0
 10
7.690079
 20
12.592238
 30
0.0
 11
8.67588
 21
12.592238
 31
0.0
  0
LINE
  5
105
  8
0
 10
8.67588
 20
12.592238
 30
0.0
 11
8.7965
 21
12.592238
 31
0.0
  0
LINE
  5
106
  8
0
 10
9.3555
 20
12.592238
 30
0.0
 11
9.6515
 21
12.592238
 31
0.0
  0
LINE
  5
107
  8
0
 10
9.6515
 20
12.592238
 30
0.0
 11
10.5965
 21
12.592238
 31
0.0
  0
LINE
  5
108
  8
0
 10
11.154845
 20
12.592238
 30
0.0
 11
11.621326
 21
12.592238
 31
0.0
  0
LINE
  5
109
  8
0
 10
11.621326
 20
12.592238
 30
0.0
 11
12.3965
 21
12.592238
 31
0.0
  0
LINE
  5
10A
  8
0
 10
12.954992
 20
12.592238
 30
0.0
 11
12.981996
 21
12.592238
 31
0.0
  0
LINE
  5
10B
  8
0
 10
12.981996
 20
12.592238
 30
0.0
 11
13.92788
 21
12.592238
 31
0.0
  0
LINE
  5
10C
  8
0
 10
13.92788
 20
12.592238
 30
0.0
 11
14.1965
 21
12.592238
 31
0.0
  0
ENDSEC
  0
EOF
