0
SECTION
2
ENTITIES
0
LINE
8
0
10
14.941
20
0.059
11
0.059
21
0.059
0
0
LINE
8
0
10
0.059
20
0.059
11
0.059
21
14.941
0
0
LINE
8
0
10
0.059
20
14.941
11
14.941
21
14.941
0
0
LINE
8
0
10
14.941
20
14.941
11
14.941
21
0.059
0
0
LINE
8
0
10
14.941
20
0.059
11
14.941
21
0.059
0
0
LINE
8
0
10
14.861
20
0.139
11
0.139
21
0.139
0
0
LINE
8
0
10
0.139
20
0.139
11
0.139
21
14.861
0
0
LINE
8
0
10
0.139
20
14.861
11
14.861
21
14.861
0
0
LINE
8
0
10
14.861
20
14.861
11
14.861
21
0.139
0
0
LINE
8
0
10
14.861
20
0.139
11
14.861
21
0.139
0
0
LINE
8
0
10
14.781
20
0.219
11
0.219
21
0.219
0
0
LINE
8
0
10
0.219
20
0.219
11
0.219
21
14.781
0
0
LINE
8
0
10
0.219
20
14.781
11
14.781
21
14.781
0
0
LINE
8
0
10
14.781
20
14.781
11
14.781
21
0.219
0
0
LINE
8
0
10
14.781
20
0.219
11
14.781
21
0.219
0
0
LINE
8
0
10
0.307
20
0.299
11
0.299
21
0.338
0
0
LINE
8
0
10
0.299
20
0.732
11
0.389
21
0.299
0
0
LINE
8
0
10
0.470
20
0.299
11
0.299
21
1.127
0
0
LINE
8
0
10
0.299
20
1.521
11
0.552
21
0.299
0
0
LINE
8
0
10
0.634
20
0.299
11
0.299
21
1.916
0
0
LINE
8
0
10
0.299
20
2.310
11
0.716
21
0.299
0
0
LINE
8
0
10
0.797
20
0.299
11
0.299
21
2.705
0
0
LINE
8
0
10
0.299
20
3.099
11
0.879
21
0.299
0
0
LINE
8
0
10
0.961
20
0.299
11
0.299
21
3.494
0
0
LINE
8
0
10
0.299
20
3.888
11
1.042
21
0.299
0
0
LINE
8
0
10
1.124
20
0.299
11
0.299
21
4.283
0
0
LINE
8
0
10
0.299
20
4.677
11
1.206
21
0.299
0
0
LINE
8
0
10
1.287
20
0.299
11
0.299
21
5.072
0
0
LINE
8
0
10
0.299
20
5.466
11
1.369
21
0.299
0
0
LINE
8
0
10
1.451
20
0.299
11
0.299
21
5.861
0
0
LINE
8
0
10
0.299
20
6.255
11
1.533
21
0.299
0
0
LINE
8
0
10
1.614
20
0.299
11
0.299
21
6.650
0
0
LINE
8
0
10
0.299
20
7.045
11
1.696
21
0.299
0
0
LINE
8
0
10
1.778
20
0.299
11
0.299
21
7.439
0
0
LINE
8
0
10
0.299
20
7.833
11
1.859
21
0.299
0
0
LINE
8
0
10
1.941
20
0.299
11
0.299
21
8.228
0
0
LINE
8
0
10
0.299
20
8.623
11
2.023
21
0.299
0
0
LINE
8
0
10
2.104
20
0.299
11
0.299
21
9.017
0
0
LINE
8
0
10
0.299
20
9.411
11
2.186
21
0.299
0
0
LINE
8
0
10
2.268
20
0.299
11
0.299
21
9.806
0
0
LINE
8
0
10
0.299
20
10.200
11
2.349
21
0.299
0
0
LINE
8
0
10
2.431
20
0.299
11
0.299
21
10.595
0
0
LINE
8
0
10
0.299
20
10.989
11
2.513
21
0.299
0
0
LINE
8
0
10
2.595
20
0.299
11
0.299
21
11.384
0
0
LINE
8
0
10
0.299
20
11.778
11
2.676
21
0.299
0
0
LINE
8
0
10
2.758
20
0.299
11
0.299
21
12.173
0
0
LINE
8
0
10
0.299
20
12.568
11
2.840
21
0.299
0
0
LINE
8
0
10
2.921
20
0.299
11
0.299
21
12.962
0
0
LINE
8
0
10
0.299
20
13.357
11
3.003
21
0.299
0
0
LINE
8
0
10
3.085
20
0.299
11
0.299
21
13.751
0
0
LINE
8
0
10
0.299
20
14.146
11
3.166
21
0.299
0
0
LINE
8
0
10
3.248
20
0.299
11
0.299
21
14.540
0
0
LINE
8
0
10
0.347
20
14.701
11
3.330
21
0.299
0
0
LINE
8
0
10
3.412
20
0.299
11
0.429
21
14.701
0
0
LINE
8
0
10
0.511
20
14.701
11
3.493
21
0.299
0
0
LINE
8
0
10
3.575
20
0.299
11
0.592
21
14.701
0
0
LINE
8
0
10
0.674
20
14.701
11
3.657
21
0.299
0
0
LINE
8
0
10
3.738
20
0.299
11
0.756
21
14.701
0
0
LINE
8
0
10
0.838
20
14.701
11
3.820
21
0.299
0
0
LINE
8
0
10
3.902
20
0.299
11
0.919
21
14.701
0
0
LINE
8
0
10
1.001
20
14.701
11
3.983
21
0.299
0
0
LINE
8
0
10
4.065
20
0.299
11
1.083
21
14.701
0
0
LINE
8
0
10
1.164
20
14.701
11
4.147
21
0.299
0
0
LINE
8
0
10
4.229
20
0.299
11
1.246
21
14.701
0
0
LINE
8
0
10
1.328
20
14.701
11
4.310
21
0.299
0
0
LINE
8
0
10
4.392
20
0.299
11
1.409
21
14.701
0
0
LINE
8
0
10
1.491
20
14.701
11
4.474
21
0.299
0
0
LINE
8
0
10
4.555
20
0.299
11
1.573
21
14.701
0
0
LINE
8
0
10
1.655
20
14.701
11
4.637
21
0.299
0
0
LINE
8
0
10
4.719
20
0.299
11
1.736
21
14.701
0
0
LINE
8
0
10
1.818
20
14.701
11
4.800
21
0.299
0
0
LINE
8
0
10
4.882
20
0.299
11
1.900
21
14.701
0
0
LINE
8
0
10
1.981
20
14.701
11
4.964
21
0.299
0
0
LINE
8
0
10
5.046
20
0.299
11
2.063
21
14.701
0
0
LINE
8
0
10
2.145
20
14.701
11
5.127
21
0.299
0
0
LINE
8
0
10
5.209
20
0.299
11
2.226
21
14.701
0
0
LINE
8
0
10
2.308
20
14.701
11
5.291
21
0.299
0
0
LINE
8
0
10
5.372
20
0.299
11
2.390
21
14.701
0
0
LINE
8
0
10
2.471
20
14.701
11
5.454
21
0.299
0
0
LINE
8
0
10
5.536
20
0.299
11
2.553
21
14.701
0
0
LINE
8
0
10
2.635
20
14.701
11
5.617
21
0.299
0
0
LINE
8
0
10
5.699
20
0.299
11
2.717
21
14.701
0
0
LINE
8
0
10
2.798
20
14.701
11
5.781
21
0.299
0
0
LINE
8
0
10
5.862
20
0.299
11
2.880
21
14.701
0
0
LINE
8
0
10
2.962
20
14.701
11
5.944
21
0.299
0
0
LINE
8
0
10
6.026
20
0.299
11
3.043
21
14.701
0
0
LINE
8
0
10
3.125
20
14.701
11
6.108
21
0.299
0
0
LINE
8
0
10
6.189
20
0.299
11
3.207
21
14.701
0
0
LINE
8
0
10
3.288
20
14.701
11
6.271
21
0.299
0
0
LINE
8
0
10
6.353
20
0.299
11
3.370
21
14.701
0
0
LINE
8
0
10
3.452
20
14.701
11
6.434
21
0.299
0
0
LINE
8
0
10
6.516
20
0.299
11
3.534
21
14.701
0
0
LINE
8
0
10
3.615
20
14.701
11
6.598
21
0.299
0
0
LINE
8
0
10
6.679
20
0.299
11
3.697
21
14.701
0
0
LINE
8
0
10
3.779
20
14.701
11
6.761
21
0.299
0
0
LINE
8
0
10
6.843
20
0.299
11
3.860
21
14.701
0
0
LINE
8
0
10
3.942
20
14.701
11
6.925
21
0.299
0
0
LINE
8
0
10
7.006
20
0.299
11
4.024
21
14.701
0
0
LINE
8
0
10
4.105
20
14.701
11
7.088
21
0.299
0
0
LINE
8
0
10
7.170
20
0.299
11
4.187
21
14.701
0
0
LINE
8
0
10
4.269
20
14.701
11
7.251
21
0.299
0
0
LINE
8
0
10
7.333
20
0.299
11
4.351
21
14.701
0
0
LINE
8
0
10
4.432
20
14.701
11
7.415
21
0.299
0
0
LINE
8
0
10
7.496
20
0.299
11
4.514
21
14.701
0
0
LINE
8
0
10
4.596
20
14.701
11
7.578
21
0.299
0
0
LINE
8
0
10
7.660
20
0.299
11
4.677
21
14.701
0
0
LINE
8
0
10
4.759
20
14.701
11
7.742
21
0.299
0
0
LINE
8
0
10
7.823
20
0.299
11
4.841
21
14.701
0
0
LINE
8
0
10
4.922
20
14.701
11
7.905
21
0.299
0
0
LINE
8
0
10
7.987
20
0.299
11
5.004
21
14.701
0
0
LINE
8
0
10
5.086
20
14.701
11
8.068
21
0.299
0
0
LINE
8
0
10
8.150
20
0.299
11
5.168
21
14.701
0
0
LINE
8
0
10
5.249
20
14.701
11
8.232
21
0.299
0
0
LINE
8
0
10
8.313
20
0.299
11
5.331
21
14.701
0
0
LINE
8
0
10
5.413
20
14.701
11
8.395
21
0.299
0
0
LINE
8
0
10
8.477
20
0.299
11
5.494
21
14.701
0
0
LINE
8
0
10
5.576
20
14.701
11
8.559
21
0.299
0
0
LINE
8
0
10
8.640
20
0.299
11
5.658
21
14.701
0
0
LINE
8
0
10
5.739
20
14.701
11
8.722
21
0.299
0
0
LINE
8
0
10
8.804
20
0.299
11
5.821
21
14.701
0
0
LINE
8
0
10
5.903
20
14.701
11
8.885
21
0.299
0
0
LINE
8
0
10
8.967
20
0.299
11
5.984
21
14.701
0
0
LINE
8
0
10
6.066
20
14.701
11
9.049
21
0.299
0
0
LINE
8
0
10
9.130
20
0.299
11
6.148
21
14.701
0
0
LINE
8
0
10
6.230
20
14.701
11
9.212
21
0.299
0
0
LINE
8
0
10
9.294
20
0.299
11
6.311
21
14.701
0
0
LINE
8
0
10
6.393
20
14.701
11
9.375
21
0.299
0
0
LINE
8
0
10
9.457
20
0.299
11
6.475
21
14.701
0
0
LINE
8
0
10
6.556
20
14.701
11
9.539
21
0.299
0
0
LINE
8
0
10
9.621
20
0.299
11
6.638
21
14.701
0
0
LINE
8
0
10
6.720
20
14.701
11
9.702
21
0.299
0
0
LINE
8
0
10
9.784
20
0.299
11
6.801
21
14.701
0
0
LINE
8
0
10
6.883
20
14.701
11
9.866
21
0.299
0
0
LINE
8
0
10
9.947
20
0.299
11
6.965
21
14.701
0
0
LINE
8
0
10
7.047
20
14.701
11
10.029
21
0.299
0
0
LINE
8
0
10
10.111
20
0.299
11
7.128
21
14.701
0
0
LINE
8
0
10
7.210
20
14.701
11
10.192
21
0.299
0
0
LINE
8
0
10
10.274
20
0.299
11
7.292
21
14.701
0
0
LINE
8
0
10
7.373
20
14.701
11
10.356
21
0.299
0
0
LINE
8
0
10
10.438
20
0.299
11
7.455
21
14.701
0
0
LINE
8
0
10
7.537
20
14.701
11
10.519
21
0.299
0
0
LINE
8
0
10
10.601
20
0.299
11
7.618
21
14.701
0
0
LINE
8
0
10
7.700
20
14.701
11
10.683
21
0.299
0
0
LINE
8
0
10
10.764
20
0.299
11
7.782
21
14.701
0
0
LINE
8
0
10
7.864
20
14.701
11
10.846
21
0.299
0
0
LINE
8
0
10
10.928
20
0.299
11
7.945
21
14.701
0
0
LINE
8
0
10
8.027
20
14.701
11
11.009
21
0.299
0
0
LINE
8
0
10
11.091
20
0.299
11
8.109
21
14.701
0
0
LINE
8
0
10
8.190
20
14.701
11
11.173
21
0.299
0
0
LINE
8
0
10
11.255
20
0.299
11
8.272
21
14.701
0
0
LINE
8
0
10
8.354
20
14.701
11
11.336
21
0.299
0
0
LINE
8
0
10
11.418
20
0.299
11
8.435
21
14.701
0
0
LINE
8
0
10
8.517
20
14.701
11
11.500
21
0.299
0
0
LINE
8
0
10
11.581
20
0.299
11
8.599
21
14.701
0
0
LINE
8
0
10
8.680
20
14.701
11
11.663
21
0.299
0
0
LINE
8
0
10
11.745
20
0.299
11
8.762
21
14.701
0
0
LINE
8
0
10
8.844
20
14.701
11
11.826
21
0.299
0
0
LINE
8
0
10
11.908
20
0.299
11
8.926
21
14.701
0
0
LINE
8
0
10
9.007
20
14.701
11
11.990
21
0.299
0
0
LINE
8
0
10
12.071
20
0.299
11
9.089
21
14.701
0
0
LINE
8
0
10
9.171
20
14.701
11
12.153
21
0.299
0
0
LINE
8
0
10
12.235
20
0.299
11
9.252
21
14.701
0
0
LINE
8
0
10
9.334
20
14.701
11
12.317
21
0.299
0
0
LINE
8
0
10
12.398
20
0.299
11
9.416
21
14.701
0
0
LINE
8
0
10
9.497
20
14.701
11
12.480
21
0.299
0
0
LINE
8
0
10
12.562
20
0.299
11
9.579
21
14.701
0
0
LINE
8
0
10
9.661
20
14.701
11
12.643
21
0.299
0
0
LINE
8
0
10
12.725
20
0.299
11
9.743
21
14.701
0
0
LINE
8
0
10
9.824
20
14.701
11
12.807
21
0.299
0
0
LINE
8
0
10
12.888
20
0.299
11
9.906
21
14.701
0
0
LINE
8
0
10
9.988
20
14.701
11
12.970
21
0.299
0
0
LINE
8
0
10
13.052
20
0.299
11
10.069
21
14.701
0
0
LINE
8
0
10
10.151
20
14.701
11
13.134
21
0.299
0
0
LINE
8
0
10
13.215
20
0.299
11
10.233
21
14.701
0
0
LINE
8
0
10
10.314
20
14.701
11
13.297
21
0.299
0
0
LINE
8
0
10
13.379
20
0.299
11
10.396
21
14.701
0
0
LINE
8
0
10
10.478
20
14.701
11
13.460
21
0.299
0
0
LINE
8
0
10
13.542
20
0.299
11
10.560
21
14.701
0
0
LINE
8
0
10
10.641
20
14.701
11
13.624
21
0.299
0
0
LINE
8
0
10
13.705
20
0.299
11
10.723
21
14.701
0
0
LINE
8
0
10
10.805
20
14.701
11
13.787
21
0.299
0
0
LINE
8
0
10
13.869
20
0.299
11
10.886
21
14.701
0
0
LINE
8
0
10
10.968
20
14.701
11
13.951
21
0.299
0
0
LINE
8
0
10
14.032
20
0.299
11
11.050
21
14.701
0
0
LINE
8
0
10
11.131
20
14.701
11
14.114
21
0.299
0
0
LINE
8
0
10
14.196
20
0.299
11
11.213
21
14.701
0
0
LINE
8
0
10
11.295
20
14.701
11
14.277
21
0.299
0
0
LINE
8
0
10
14.359
20
0.299
11
11.377
21
14.701
0
0
LINE
8
0
10
11.458
20
14.701
11
14.441
21
0.299
0
0
LINE
8
0
10
14.522
20
0.299
11
11.540
21
14.701
0
0
LINE
8
0
10
11.622
20
14.701
11
14.604
21
0.299
0
0
LINE
8
0
10
14.686
20
0.299
11
11.703
21
14.701
0
0
LINE
8
0
10
11.785
20
14.701
11
14.701
21
0.620
0
0
LINE
8
0
10
14.701
20
1.015
11
11.867
21
14.701
0
0
LINE
8
0
10
11.948
20
14.701
11
14.701
21
1.409
0
0
LINE
8
0
10
14.701
20
1.804
11
12.030
21
14.701
0
0
LINE
8
0
10
12.112
20
14.701
11
14.701
21
2.198
0
0
LINE
8
0
10
14.701
20
2.593
11
12.193
21
14.701
0
0
LINE
8
0
10
12.275
20
14.701
11
14.701
21
2.987
0
0
LINE
8
0
10
14.701
20
3.382
11
12.357
21
14.701
0
0
LINE
8
0
10
12.439
20
14.701
11
14.701
21
3.776
0
0
LINE
8
0
10
14.701
20
4.171
11
12.520
21
14.701
0
0
LINE
8
0
10
12.602
20
14.701
11
14.701
21
4.565
0
0
LINE
8
0
10
14.701
20
4.960
11
12.684
21
14.701
0
0
LINE
8
0
10
12.765
20
14.701
11
14.701
21
5.354
0
0
LINE
8
0
10
14.701
20
5.749
11
12.847
21
14.701
0
0
LINE
8
0
10
12.929
20
14.701
11
14.701
21
6.143
0
0
LINE
8
0
10
14.701
20
6.538
11
13.010
21
14.701
0
0
LINE
8
0
10
13.092
20
14.701
11
14.701
21
6.932
0
0
LINE
8
0
10
14.701
20
7.327
11
13.174
21
14.701
0
0
LINE
8
0
10
13.256
20
14.701
11
14.701
21
7.721
0
0
LINE
8
0
10
14.701
20
8.116
11
13.337
21
14.701
0
0
LINE
8
0
10
13.419
20
14.701
11
14.701
21
8.510
0
0
LINE
8
0
10
14.701
20
8.905
11
13.501
21
14.701
0
0
LINE
8
0
10
13.582
20
14.701
11
14.701
21
9.299
0
0
LINE
8
0
10
14.701
20
9.694
11
13.664
21
14.701
0
0
LINE
8
0
10
13.746
20
14.701
11
14.701
21
10.088
0
0
LINE
8
0
10
14.701
20
10.483
11
13.827
21
14.701
0
0
LINE
8
0
10
13.909
20
14.701
11
14.701
21
10.877
0
0
LINE
8
0
10
14.701
20
11.272
11
13.991
21
14.701
0
0
LINE
8
0
10
14.073
20
14.701
11
14.701
21
11.666
0
0
LINE
8
0
10
14.701
20
12.061
11
14.154
21
14.701
0
0
LINE
8
0
10
14.236
20
14.701
11
14.701
21
12.455
0
0
LINE
8
0
10
14.701
20
12.850
11
14.318
21
14.701
0
0
LINE
8
0
10
14.399
20
14.701
11
14.701
21
13.244
0
0
LINE
8
0
10
14.701
20
13.639
11
14.481
21
14.701
0
0
LINE
8
0
10
14.563
20
14.701
11
14.701
21
14.033
0
0
LINE
8
0
10
14.701
20
14.428
11
14.644
21
14.701
0
0
ENDSEC
0
EOF
