0
SECTION
2
ENTITIES
0
LINE
8
0
10
2.379
20
0.431
11
3.133
21
0.454
0
0
LINE
8
0
10
2.379
20
0.431
11
3.133
21
0.454
0
0
LINE
8
0
10
3.604
20
0.469
11
5.478
21
0.528
0
0
LINE
8
0
10
5.649
20
0.534
11
8.594
21
0.551
0
0
LINE
8
0
10
8.602
20
0.550
11
10.477
21
0.505
0
0
LINE
8
0
10
11.101
20
0.490
11
12.974
21
0.446
0
0
LINE
8
0
10
12.974
20
0.446
11
12.976
21
0.446
0
0
LINE
8
0
10
12.978
20
0.445
11
13.008
21
0.445
0
0
LINE
8
0
10
13.008
20
0.445
11
13.018
21
0.445
0
0
LINE
8
0
10
13.018
20
0.445
11
13.836
21
0.559
0
0
LINE
8
0
10
13.836
20
0.559
11
14.297
21
0.786
0
0
LINE
8
0
10
14.297
20
0.786
11
14.591
21
1.221
0
0
LINE
8
0
10
14.591
20
1.221
11
14.719
21
2.019
0
0
LINE
8
0
10
14.719
20
2.019
11
13.018
21
0.445
0
0
LINE
8
0
10
14.746
20
2.411
11
14.680
21
4.284
0
0
LINE
8
0
10
14.671
20
4.534
11
14.626
21
9.283
0
0
LINE
8
0
10
14.626
20
9.909
11
14.626
21
11.783
0
0
LINE
8
0
10
14.626
20
11.864
11
14.626
21
14.592
0
0
LINE
8
0
10
14.356
20
14.637
11
12.481
21
14.635
0
0
LINE
8
0
10
12.015
20
14.634
11
7.340
21
14.627
0
0
LINE
8
0
10
7.343
20
14.627
11
7.343
21
14.627
0
0
LINE
8
0
10
6.856
20
14.626
11
5.993
21
14.625
0
0
LINE
8
0
10
5.993
20
14.625
11
5.949
21
14.625
0
0
LINE
8
0
10
5.949
20
14.625
11
4.982
21
14.659
0
0
LINE
8
0
10
4.822
20
14.664
11
2.092
21
14.743
0
0
LINE
8
0
10
1.859
20
14.725
11
0.982
21
14.472
0
0
LINE
8
0
10
0.982
20
14.472
11
0.525
21
13.672
0
0
LINE
8
0
10
0.525
20
13.672
11
1.859
21
14.725
0
0
LINE
8
0
10
0.450
20
13.052
11
0.564
21
8.459
0
0
LINE
8
0
10
0.577
20
8.055
11
0.541
21
6.181
0
0
LINE
8
0
10
0.535
20
5.941
11
0.466
21
3.212
0
0
LINE
8
0
10
0.466
20
3.215
11
0.466
21
3.215
0
0
LINE
8
0
10
0.462
20
3.056
11
0.542
21
1.431
0
0
LINE
8
0
10
0.542
20
1.431
11
0.807
21
0.857
0
0
LINE
8
0
10
0.807
20
0.857
11
1.431
21
0.537
0
0
LINE
8
0
10
1.431
20
0.537
11
2.374
21
0.431
0
0
LINE
8
0
10
2.374
20
0.431
11
0.462
21
3.056
0
0
LINE
8
0
10
2.374
20
0.431
11
2.379
21
0.431
0
0
LINE
8
0
10
2.593
20
0.437
11
2.593
21
0.510
0
0
LINE
8
0
10
2.593
20
0.437
11
2.593
21
0.510
0
0
LINE
8
0
10
2.593
20
0.510
11
2.593
21
0.788
0
0
LINE
8
0
10
2.593
20
0.788
11
2.593
21
2.179
0
0
LINE
8
0
10
2.593
20
2.179
11
2.593
21
2.219
0
0
LINE
8
0
10
2.593
20
2.219
11
2.593
21
2.503
0
0
LINE
8
0
10
2.593
20
2.503
11
2.593
21
2.576
0
0
LINE
8
0
10
2.593
20
2.576
11
2.593
21
2.641
0
0
LINE
8
0
10
2.593
20
2.641
11
2.593
21
4.022
0
0
LINE
8
0
10
2.593
20
4.022
11
2.593
21
4.298
0
0
LINE
8
0
10
2.593
20
4.298
11
2.593
21
4.408
0
0
LINE
8
0
10
2.593
20
4.408
11
2.593
21
4.415
0
0
LINE
8
0
10
2.593
20
4.415
11
2.593
21
4.417
0
0
LINE
8
0
10
2.593
20
4.417
11
2.593
21
4.422
0
0
LINE
8
0
10
2.593
20
4.422
11
2.593
21
4.427
0
0
LINE
8
0
10
2.593
20
4.427
11
2.593
21
4.428
0
0
LINE
8
0
10
2.593
20
4.428
11
2.593
21
5.746
0
0
LINE
8
0
10
2.593
20
5.746
11
2.593
21
5.753
0
0
LINE
8
0
10
2.593
20
5.753
11
2.593
21
5.758
0
0
LINE
8
0
10
2.593
20
5.758
11
2.593
21
5.764
0
0
LINE
8
0
10
2.593
20
5.764
11
2.593
21
5.767
0
0
LINE
8
0
10
2.593
20
5.767
11
2.593
21
5.877
0
0
LINE
8
0
10
2.593
20
5.877
11
2.593
21
6.153
0
0
LINE
8
0
10
2.593
20
6.153
11
2.593
21
7.534
0
0
LINE
8
0
10
2.593
20
7.534
11
2.593
21
7.598
0
0
LINE
8
0
10
2.593
20
7.598
11
2.593
21
7.671
0
0
LINE
8
0
10
2.593
20
7.671
11
2.593
21
7.859
0
0
LINE
8
0
10
2.593
20
7.859
11
2.593
21
7.956
0
0
LINE
8
0
10
2.593
20
7.956
11
2.593
21
8.009
0
0
LINE
8
0
10
2.593
20
8.009
11
2.593
21
9.390
0
0
LINE
8
0
10
2.593
20
9.390
11
2.593
21
9.666
0
0
LINE
8
0
10
2.593
20
9.666
11
2.593
21
9.719
0
0
LINE
8
0
10
2.593
20
9.719
11
2.593
21
9.792
0
0
LINE
8
0
10
2.593
20
9.792
11
2.593
21
9.865
0
0
LINE
8
0
10
2.593
20
9.865
11
2.593
21
11.245
0
0
LINE
8
0
10
2.593
20
11.245
11
2.593
21
11.522
0
0
LINE
8
0
10
2.593
20
11.522
11
2.593
21
11.555
0
0
LINE
8
0
10
2.593
20
11.555
11
2.593
21
12.978
0
0
LINE
8
0
10
2.593
20
12.978
11
2.593
21
13.051
0
0
LINE
8
0
10
2.593
20
13.051
11
2.593
21
13.088
0
0
LINE
8
0
10
2.593
20
13.088
11
2.593
21
13.366
0
0
LINE
8
0
10
2.593
20
13.366
11
2.593
21
14.670
0
0
LINE
8
0
10
2.593
20
14.670
11
2.593
21
14.742
0
0
LINE
8
0
10
5.093
20
0.516
11
5.093
21
0.683
0
0
LINE
8
0
10
5.093
20
0.516
11
5.093
21
0.683
0
0
LINE
8
0
10
5.093
20
0.683
11
5.093
21
0.759
0
0
LINE
8
0
10
5.093
20
0.759
11
5.093
21
0.863
0
0
LINE
8
0
10
5.093
20
0.863
11
5.093
21
2.262
0
0
LINE
8
0
10
5.093
20
2.262
11
5.093
21
2.294
0
0
LINE
8
0
10
5.093
20
2.294
11
5.093
21
2.578
0
0
LINE
8
0
10
5.093
20
2.578
11
5.093
21
2.651
0
0
LINE
8
0
10
5.093
20
2.651
11
5.093
21
2.713
0
0
LINE
8
0
10
5.093
20
2.713
11
5.093
21
4.094
0
0
LINE
8
0
10
5.093
20
4.094
11
5.093
21
4.370
0
0
LINE
8
0
10
5.093
20
4.370
11
5.093
21
4.479
0
0
LINE
8
0
10
5.093
20
4.479
11
5.093
21
4.484
0
0
LINE
8
0
10
5.093
20
4.484
11
5.093
21
4.488
0
0
LINE
8
0
10
5.093
20
4.488
11
5.093
21
4.494
0
0
LINE
8
0
10
5.093
20
4.494
11
5.093
21
4.496
0
0
LINE
8
0
10
5.093
20
4.496
11
5.093
21
4.501
0
0
LINE
8
0
10
5.093
20
4.501
11
5.093
21
4.506
0
0
LINE
8
0
10
5.093
20
4.506
11
5.093
21
4.507
0
0
LINE
8
0
10
5.093
20
4.507
11
5.093
21
5.825
0
0
LINE
8
0
10
5.093
20
5.825
11
5.093
21
5.832
0
0
LINE
8
0
10
5.093
20
5.832
11
5.093
21
5.837
0
0
LINE
8
0
10
5.093
20
5.837
11
5.093
21
5.838
0
0
LINE
8
0
10
5.093
20
5.838
11
5.093
21
5.950
0
0
LINE
8
0
10
5.093
20
5.950
11
5.093
21
6.226
0
0
LINE
8
0
10
5.093
20
6.226
11
5.093
21
7.607
0
0
LINE
8
0
10
5.093
20
7.607
11
5.093
21
7.673
0
0
LINE
8
0
10
5.093
20
7.673
11
5.093
21
7.746
0
0
LINE
8
0
10
5.093
20
7.746
11
5.093
21
7.859
0
0
LINE
8
0
10
5.093
20
7.859
11
5.093
21
8.031
0
0
LINE
8
0
10
5.093
20
8.031
11
5.093
21
8.082
0
0
LINE
8
0
10
5.093
20
8.082
11
5.093
21
9.462
0
0
LINE
8
0
10
5.093
20
9.462
11
5.093
21
9.509
0
0
LINE
8
0
10
5.093
20
9.509
11
5.093
21
9.794
0
0
LINE
8
0
10
5.093
20
9.794
11
5.093
21
9.867
0
0
LINE
8
0
10
5.093
20
9.867
11
5.093
21
9.937
0
0
LINE
8
0
10
5.093
20
9.937
11
5.093
21
11.318
0
0
LINE
8
0
10
5.093
20
11.318
11
5.093
21
11.594
0
0
LINE
8
0
10
5.093
20
11.594
11
5.093
21
11.630
0
0
LINE
8
0
10
5.093
20
11.630
11
5.093
21
13.052
0
0
LINE
8
0
10
5.093
20
13.052
11
5.093
21
13.125
0
0
LINE
8
0
10
5.093
20
13.125
11
5.093
21
13.152
0
0
LINE
8
0
10
5.093
20
13.152
11
5.093
21
13.432
0
0
LINE
8
0
10
5.093
20
13.432
11
5.093
21
14.588
0
0
LINE
8
0
10
5.093
20
14.588
11
5.093
21
14.655
0
0
LINE
8
0
10
7.593
20
0.574
11
7.593
21
0.639
0
0
LINE
8
0
10
7.593
20
0.574
11
7.593
21
0.639
0
0
LINE
8
0
10
7.593
20
0.639
11
7.593
21
0.640
0
0
LINE
8
0
10
7.593
20
0.640
11
7.593
21
0.920
0
0
LINE
8
0
10
7.593
20
0.920
11
7.593
21
2.323
0
0
LINE
8
0
10
7.593
20
2.323
11
7.593
21
2.350
0
0
LINE
8
0
10
7.593
20
2.350
11
7.593
21
2.634
0
0
LINE
8
0
10
7.593
20
2.634
11
7.593
21
2.707
0
0
LINE
8
0
10
7.593
20
2.707
11
7.593
21
2.768
0
0
LINE
8
0
10
7.593
20
2.768
11
7.593
21
4.149
0
0
LINE
8
0
10
7.593
20
4.149
11
7.593
21
4.425
0
0
LINE
8
0
10
7.593
20
4.425
11
7.593
21
4.533
0
0
LINE
8
0
10
7.593
20
4.533
11
7.593
21
4.538
0
0
LINE
8
0
10
7.593
20
4.538
11
7.593
21
4.543
0
0
LINE
8
0
10
7.593
20
4.543
11
7.593
21
4.546
0
0
LINE
8
0
10
7.593
20
4.546
11
7.593
21
4.552
0
0
LINE
8
0
10
7.593
20
4.552
11
7.593
21
4.556
0
0
LINE
8
0
10
7.593
20
4.556
11
7.593
21
4.563
0
0
LINE
8
0
10
7.593
20
4.563
11
7.593
21
4.565
0
0
LINE
8
0
10
7.593
20
4.565
11
7.593
21
4.566
0
0
LINE
8
0
10
7.593
20
4.566
11
7.593
21
5.884
0
0
LINE
8
0
10
7.593
20
5.884
11
7.593
21
5.888
0
0
LINE
8
0
10
7.593
20
5.888
11
7.593
21
5.890
0
0
LINE
8
0
10
7.593
20
5.890
11
7.593
21
6.004
0
0
LINE
8
0
10
7.593
20
6.004
11
7.593
21
6.280
0
0
LINE
8
0
10
7.593
20
6.280
11
7.593
21
7.661
0
0
LINE
8
0
10
7.593
20
7.661
11
7.593
21
7.729
0
0
LINE
8
0
10
7.593
20
7.729
11
7.593
21
7.802
0
0
LINE
8
0
10
7.593
20
7.802
11
7.593
21
7.859
0
0
LINE
8
0
10
7.593
20
7.859
11
7.593
21
8.087
0
0
LINE
8
0
10
7.593
20
8.087
11
7.593
21
8.136
0
0
LINE
8
0
10
7.593
20
8.136
11
7.593
21
9.517
0
0
LINE
8
0
10
7.593
20
9.517
11
7.593
21
9.565
0
0
LINE
8
0
10
7.593
20
9.565
11
7.593
21
9.850
0
0
LINE
8
0
10
7.593
20
9.850
11
7.593
21
9.923
0
0
LINE
8
0
10
7.593
20
9.923
11
7.593
21
9.992
0
0
LINE
8
0
10
7.593
20
9.992
11
7.593
21
11.372
0
0
LINE
8
0
10
7.593
20
11.372
11
7.593
21
11.649
0
0
LINE
8
0
10
7.593
20
11.649
11
7.593
21
11.764
0
0
LINE
8
0
10
7.593
20
11.764
11
7.593
21
11.766
0
0
LINE
8
0
10
7.593
20
11.766
11
7.593
21
13.084
0
0
LINE
8
0
10
7.593
20
13.084
11
7.593
21
13.091
0
0
LINE
8
0
10
7.593
20
13.091
11
7.593
21
13.099
0
0
LINE
8
0
10
7.593
20
13.099
11
7.593
21
13.102
0
0
LINE
8
0
10
7.593
20
13.102
11
7.593
21
13.103
0
0
LINE
8
0
10
7.593
20
13.103
11
7.593
21
13.106
0
0
LINE
8
0
10
7.593
20
13.106
11
7.593
21
13.109
0
0
LINE
8
0
10
7.593
20
13.109
11
7.593
21
13.112
0
0
LINE
8
0
10
7.593
20
13.112
11
7.593
21
13.115
0
0
LINE
8
0
10
7.593
20
13.115
11
7.593
21
13.118
0
0
LINE
8
0
10
7.593
20
13.118
11
7.593
21
13.120
0
0
LINE
8
0
10
7.593
20
13.120
11
7.593
21
13.205
0
0
LINE
8
0
10
7.593
20
13.205
11
7.593
21
13.485
0
0
LINE
8
0
10
7.593
20
13.485
11
7.593
21
13.718
0
0
LINE
8
0
10
7.593
20
13.718
11
7.593
21
13.892
0
0
LINE
8
0
10
7.593
20
13.892
11
7.593
21
14.628
0
0
LINE
8
0
10
10.093
20
0.515
11
10.093
21
0.583
0
0
LINE
8
0
10
10.093
20
0.515
11
10.093
21
0.583
0
0
LINE
8
0
10
10.093
20
0.583
11
10.093
21
0.862
0
0
LINE
8
0
10
10.093
20
0.862
11
10.093
21
2.261
0
0
LINE
8
0
10
10.093
20
2.261
11
10.093
21
2.293
0
0
LINE
8
0
10
10.093
20
2.293
11
10.093
21
2.577
0
0
LINE
8
0
10
10.093
20
2.577
11
10.093
21
2.650
0
0
LINE
8
0
10
10.093
20
2.650
11
10.093
21
2.712
0
0
LINE
8
0
10
10.093
20
2.712
11
10.093
21
4.093
0
0
LINE
8
0
10
10.093
20
4.093
11
10.093
21
4.369
0
0
LINE
8
0
10
10.093
20
4.369
11
10.093
21
4.478
0
0
LINE
8
0
10
10.093
20
4.478
11
10.093
21
4.486
0
0
LINE
8
0
10
10.093
20
4.486
11
10.093
21
4.487
0
0
LINE
8
0
10
10.093
20
4.487
11
10.093
21
4.490
0
0
LINE
8
0
10
10.093
20
4.490
11
10.093
21
4.495
0
0
LINE
8
0
10
10.093
20
4.495
11
10.093
21
4.496
0
0
LINE
8
0
10
10.093
20
4.496
11
10.093
21
4.503
0
0
LINE
8
0
10
10.093
20
4.503
11
10.093
21
4.505
0
0
LINE
8
0
10
10.093
20
4.505
11
10.093
21
4.506
0
0
LINE
8
0
10
10.093
20
4.506
11
10.093
21
5.824
0
0
LINE
8
0
10
10.093
20
5.824
11
10.093
21
5.829
0
0
LINE
8
0
10
10.093
20
5.829
11
10.093
21
5.837
0
0
LINE
8
0
10
10.093
20
5.837
11
10.093
21
5.949
0
0
LINE
8
0
10
10.093
20
5.949
11
10.093
21
6.225
0
0
LINE
8
0
10
10.093
20
6.225
11
10.093
21
7.606
0
0
LINE
8
0
10
10.093
20
7.606
11
10.093
21
7.672
0
0
LINE
8
0
10
10.093
20
7.672
11
10.093
21
7.745
0
0
LINE
8
0
10
10.093
20
7.745
11
10.093
21
7.859
0
0
LINE
8
0
10
10.093
20
7.859
11
10.093
21
8.030
0
0
LINE
8
0
10
10.093
20
8.030
11
10.093
21
8.081
0
0
LINE
8
0
10
10.093
20
8.081
11
10.093
21
9.462
0
0
LINE
8
0
10
10.093
20
9.462
11
10.093
21
9.508
0
0
LINE
8
0
10
10.093
20
9.508
11
10.093
21
9.793
0
0
LINE
8
0
10
10.093
20
9.793
11
10.093
21
9.866
0
0
LINE
8
0
10
10.093
20
9.866
11
10.093
21
9.936
0
0
LINE
8
0
10
10.093
20
9.936
11
10.093
21
11.317
0
0
LINE
8
0
10
10.093
20
11.317
11
10.093
21
11.593
0
0
LINE
8
0
10
10.093
20
11.593
11
10.093
21
11.629
0
0
LINE
8
0
10
10.093
20
11.629
11
10.093
21
13.052
0
0
LINE
8
0
10
10.093
20
13.052
11
10.093
21
13.124
0
0
LINE
8
0
10
10.093
20
13.124
11
10.093
21
13.149
0
0
LINE
8
0
10
10.093
20
13.149
11
10.093
21
13.429
0
0
LINE
8
0
10
10.093
20
13.429
11
10.093
21
14.565
0
0
LINE
8
0
10
10.093
20
14.565
11
10.093
21
14.631
0
0
LINE
8
0
10
12.593
20
0.455
11
12.593
21
0.526
0
0
LINE
8
0
10
12.593
20
0.455
11
12.593
21
0.526
0
0
LINE
8
0
10
12.593
20
0.526
11
12.593
21
0.805
0
0
LINE
8
0
10
12.593
20
0.805
11
12.593
21
2.198
0
0
LINE
8
0
10
12.593
20
2.198
11
12.593
21
2.236
0
0
LINE
8
0
10
12.593
20
2.236
11
12.593
21
2.520
0
0
LINE
8
0
10
12.593
20
2.520
11
12.593
21
2.593
0
0
LINE
8
0
10
12.593
20
2.593
11
12.593
21
2.657
0
0
LINE
8
0
10
12.593
20
2.657
11
12.593
21
4.038
0
0
LINE
8
0
10
12.593
20
4.038
11
12.593
21
4.314
0
0
LINE
8
0
10
12.593
20
4.314
11
12.593
21
4.424
0
0
LINE
8
0
10
12.593
20
4.424
11
12.593
21
4.426
0
0
LINE
8
0
10
12.593
20
4.426
11
12.593
21
4.427
0
0
LINE
8
0
10
12.593
20
4.427
11
12.593
21
4.430
0
0
LINE
8
0
10
12.593
20
4.430
11
12.593
21
4.435
0
0
LINE
8
0
10
12.593
20
4.435
11
12.593
21
4.436
0
0
LINE
8
0
10
12.593
20
4.436
11
12.593
21
4.443
0
0
LINE
8
0
10
12.593
20
4.443
11
12.593
21
4.445
0
0
LINE
8
0
10
12.593
20
4.445
11
12.593
21
4.446
0
0
LINE
8
0
10
12.593
20
4.446
11
12.593
21
5.764
0
0
LINE
8
0
10
12.593
20
5.764
11
12.593
21
5.769
0
0
LINE
8
0
10
12.593
20
5.769
11
12.593
21
5.777
0
0
LINE
8
0
10
12.593
20
5.777
11
12.593
21
5.783
0
0
LINE
8
0
10
12.593
20
5.783
11
12.593
21
5.894
0
0
LINE
8
0
10
12.593
20
5.894
11
12.593
21
6.170
0
0
LINE
8
0
10
12.593
20
6.170
11
12.593
21
7.551
0
0
LINE
8
0
10
12.593
20
7.551
11
12.593
21
7.615
0
0
LINE
8
0
10
12.593
20
7.615
11
12.593
21
7.688
0
0
LINE
8
0
10
12.593
20
7.688
11
12.593
21
7.859
0
0
LINE
8
0
10
12.593
20
7.859
11
12.593
21
7.973
0
0
LINE
8
0
10
12.593
20
7.973
11
12.593
21
8.025
0
0
LINE
8
0
10
12.593
20
8.025
11
12.593
21
9.406
0
0
LINE
8
0
10
12.593
20
9.406
11
12.593
21
9.682
0
0
LINE
8
0
10
12.593
20
9.682
11
12.593
21
9.736
0
0
LINE
8
0
10
12.593
20
9.736
11
12.593
21
9.809
0
0
LINE
8
0
10
12.593
20
9.809
11
12.593
21
9.881
0
0
LINE
8
0
10
12.593
20
9.881
11
12.593
21
11.262
0
0
LINE
8
0
10
12.593
20
11.262
11
12.593
21
11.538
0
0
LINE
8
0
10
12.593
20
11.538
11
12.593
21
11.572
0
0
LINE
8
0
10
12.593
20
11.572
11
12.593
21
12.995
0
0
LINE
8
0
10
12.593
20
12.995
11
12.593
21
13.068
0
0
LINE
8
0
10
12.593
20
13.068
11
12.593
21
13.093
0
0
LINE
8
0
10
12.593
20
13.093
11
12.593
21
13.373
0
0
LINE
8
0
10
12.593
20
13.373
11
12.593
21
14.569
0
0
LINE
8
0
10
12.593
20
14.569
11
12.593
21
14.635
0
0
LINE
8
0
10
0.450
20
2.592
11
0.480
21
2.592
0
0
LINE
8
0
10
0.450
20
2.592
11
0.480
21
2.592
0
0
LINE
8
0
10
0.480
20
2.592
11
0.864
21
2.592
0
0
LINE
8
0
10
0.864
20
2.592
11
1.610
21
2.592
0
0
LINE
8
0
10
1.610
20
2.592
11
1.811
21
2.592
0
0
LINE
8
0
10
1.811
20
2.592
11
2.090
21
2.592
0
0
LINE
8
0
10
2.090
20
2.592
11
2.126
21
2.592
0
0
LINE
8
0
10
2.126
20
2.592
11
2.199
21
2.592
0
0
LINE
8
0
10
2.199
20
2.592
11
3.622
21
2.592
0
0
LINE
8
0
10
3.622
20
2.592
11
3.655
21
2.592
0
0
LINE
8
0
10
3.655
20
2.592
11
3.931
21
2.592
0
0
LINE
8
0
10
3.931
20
2.592
11
5.312
21
2.592
0
0
LINE
8
0
10
5.312
20
2.592
11
5.385
21
2.592
0
0
LINE
8
0
10
5.385
20
2.592
11
5.458
21
2.592
0
0
LINE
8
0
10
5.458
20
2.592
11
5.511
21
2.592
0
0
LINE
8
0
10
5.511
20
2.592
11
5.787
21
2.592
0
0
LINE
8
0
10
5.787
20
2.592
11
7.168
21
2.592
0
0
LINE
8
0
10
7.168
20
2.592
11
7.221
21
2.592
0
0
LINE
8
0
10
7.221
20
2.592
11
7.505
21
2.592
0
0
LINE
8
0
10
7.505
20
2.592
11
7.578
21
2.592
0
0
LINE
8
0
10
7.578
20
2.592
11
7.643
21
2.592
0
0
LINE
8
0
10
7.643
20
2.592
11
9.023
21
2.592
0
0
LINE
8
0
10
9.023
20
2.592
11
9.300
21
2.592
0
0
LINE
8
0
10
9.300
20
2.592
11
9.410
21
2.592
0
0
LINE
8
0
10
9.410
20
2.592
11
9.417
21
2.592
0
0
LINE
8
0
10
9.417
20
2.592
11
9.425
21
2.592
0
0
LINE
8
0
10
9.425
20
2.592
11
9.430
21
2.592
0
0
LINE
8
0
10
9.430
20
2.592
11
10.748
21
2.592
0
0
LINE
8
0
10
10.748
20
2.592
11
10.749
21
2.592
0
0
LINE
8
0
10
10.749
20
2.592
11
10.751
21
2.592
0
0
LINE
8
0
10
10.751
20
2.592
11
10.758
21
2.592
0
0
LINE
8
0
10
10.758
20
2.592
11
10.759
21
2.592
0
0
LINE
8
0
10
10.759
20
2.592
11
10.764
21
2.592
0
0
LINE
8
0
10
10.764
20
2.592
11
10.767
21
2.592
0
0
LINE
8
0
10
10.767
20
2.592
11
10.768
21
2.592
0
0
LINE
8
0
10
10.768
20
2.592
11
10.769
21
2.592
0
0
LINE
8
0
10
10.769
20
2.592
11
10.879
21
2.592
0
0
LINE
8
0
10
10.879
20
2.592
11
11.155
21
2.592
0
0
LINE
8
0
10
11.155
20
2.592
11
12.536
21
2.592
0
0
LINE
8
0
10
12.536
20
2.592
11
12.600
21
2.592
0
0
LINE
8
0
10
12.600
20
2.592
11
12.673
21
2.592
0
0
LINE
8
0
10
12.673
20
2.592
11
12.958
21
2.592
0
0
LINE
8
0
10
12.958
20
2.592
11
12.997
21
2.592
0
0
LINE
8
0
10
12.997
20
2.592
11
14.389
21
2.592
0
0
LINE
8
0
10
14.389
20
2.592
11
14.667
21
2.592
0
0
LINE
8
0
10
14.667
20
2.592
11
14.739
21
2.592
0
0
LINE
8
0
10
0.513
20
5.092
11
1.191
21
5.092
0
0
LINE
8
0
10
0.513
20
5.092
11
1.191
21
5.092
0
0
LINE
8
0
10
1.191
20
5.092
11
1.517
21
5.092
0
0
LINE
8
0
10
1.517
20
5.092
11
1.735
21
5.092
0
0
LINE
8
0
10
1.735
20
5.092
11
2.015
21
5.092
0
0
LINE
8
0
10
2.015
20
5.092
11
2.102
21
5.092
0
0
LINE
8
0
10
2.102
20
5.092
11
2.104
21
5.092
0
0
LINE
8
0
10
2.104
20
5.092
11
3.460
21
5.092
0
0
LINE
8
0
10
3.460
20
5.092
11
3.574
21
5.092
0
0
LINE
8
0
10
3.574
20
5.092
11
3.850
21
5.092
0
0
LINE
8
0
10
3.850
20
5.092
11
5.231
21
5.092
0
0
LINE
8
0
10
5.231
20
5.092
11
5.301
21
5.092
0
0
LINE
8
0
10
5.301
20
5.092
11
5.374
21
5.092
0
0
LINE
8
0
10
5.374
20
5.092
11
5.659
21
5.092
0
0
LINE
8
0
10
5.659
20
5.092
11
5.706
21
5.092
0
0
LINE
8
0
10
5.706
20
5.092
11
7.087
21
5.092
0
0
LINE
8
0
10
7.087
20
5.092
11
7.137
21
5.092
0
0
LINE
8
0
10
7.137
20
5.092
11
7.422
21
5.092
0
0
LINE
8
0
10
7.422
20
5.092
11
7.495
21
5.092
0
0
LINE
8
0
10
7.495
20
5.092
11
7.562
21
5.092
0
0
LINE
8
0
10
7.562
20
5.092
11
8.942
21
5.092
0
0
LINE
8
0
10
8.942
20
5.092
11
9.219
21
5.092
0
0
LINE
8
0
10
9.219
20
5.092
11
9.331
21
5.092
0
0
LINE
8
0
10
9.331
20
5.092
11
9.337
21
5.092
0
0
LINE
8
0
10
9.337
20
5.092
11
9.342
21
5.092
0
0
LINE
8
0
10
9.342
20
5.092
11
10.660
21
5.092
0
0
LINE
8
0
10
10.660
20
5.092
11
10.661
21
5.092
0
0
LINE
8
0
10
10.661
20
5.092
11
10.663
21
5.092
0
0
LINE
8
0
10
10.663
20
5.092
11
10.670
21
5.092
0
0
LINE
8
0
10
10.670
20
5.092
11
10.671
21
5.092
0
0
LINE
8
0
10
10.671
20
5.092
11
10.676
21
5.092
0
0
LINE
8
0
10
10.676
20
5.092
11
10.679
21
5.092
0
0
LINE
8
0
10
10.679
20
5.092
11
10.680
21
5.092
0
0
LINE
8
0
10
10.680
20
5.092
11
10.683
21
5.092
0
0
LINE
8
0
10
10.683
20
5.092
11
10.688
21
5.092
0
0
LINE
8
0
10
10.688
20
5.092
11
10.690
21
5.092
0
0
LINE
8
0
10
10.690
20
5.092
11
10.798
21
5.092
0
0
LINE
8
0
10
10.798
20
5.092
11
11.074
21
5.092
0
0
LINE
8
0
10
11.074
20
5.092
11
12.455
21
5.092
0
0
LINE
8
0
10
12.455
20
5.092
11
12.517
21
5.092
0
0
LINE
8
0
10
12.517
20
5.092
11
12.590
21
5.092
0
0
LINE
8
0
10
12.590
20
5.092
11
12.874
21
5.092
0
0
LINE
8
0
10
12.874
20
5.092
11
12.904
21
5.092
0
0
LINE
8
0
10
12.904
20
5.092
11
14.304
21
5.092
0
0
LINE
8
0
10
14.304
20
5.092
11
14.584
21
5.092
0
0
LINE
8
0
10
14.584
20
5.092
11
14.651
21
5.092
0
0
LINE
8
0
10
0.576
20
7.592
11
1.343
21
7.592
0
0
LINE
8
0
10
0.576
20
7.592
11
1.343
21
7.592
0
0
LINE
8
0
10
1.343
20
7.592
11
1.470
21
7.592
0
0
LINE
8
0
10
1.470
20
7.592
11
1.716
21
7.592
0
0
LINE
8
0
10
1.716
20
7.592
11
1.997
21
7.592
0
0
LINE
8
0
10
1.997
20
7.592
11
2.079
21
7.592
0
0
LINE
8
0
10
2.079
20
7.592
11
2.084
21
7.592
0
0
LINE
8
0
10
2.084
20
7.592
11
2.086
21
7.592
0
0
LINE
8
0
10
2.086
20
7.592
11
2.087
21
7.592
0
0
LINE
8
0
10
2.087
20
7.592
11
2.088
21
7.592
0
0
LINE
8
0
10
2.088
20
7.592
11
2.092
21
7.592
0
0
LINE
8
0
10
2.092
20
7.592
11
2.093
21
7.592
0
0
LINE
8
0
10
2.093
20
7.592
11
2.095
21
7.592
0
0
LINE
8
0
10
2.095
20
7.592
11
3.437
21
7.592
0
0
LINE
8
0
10
3.437
20
7.592
11
3.551
21
7.592
0
0
LINE
8
0
10
3.551
20
7.592
11
3.827
21
7.592
0
0
LINE
8
0
10
3.827
20
7.592
11
5.208
21
7.592
0
0
LINE
8
0
10
5.208
20
7.592
11
5.277
21
7.592
0
0
LINE
8
0
10
5.277
20
7.592
11
5.350
21
7.592
0
0
LINE
8
0
10
5.350
20
7.592
11
5.635
21
7.592
0
0
LINE
8
0
10
5.635
20
7.592
11
5.683
21
7.592
0
0
LINE
8
0
10
5.683
20
7.592
11
5.705
21
7.592
0
0
LINE
8
0
10
5.705
20
7.592
11
7.064
21
7.592
0
0
LINE
8
0
10
7.064
20
7.592
11
7.114
21
7.592
0
0
LINE
8
0
10
7.114
20
7.592
11
7.398
21
7.592
0
0
LINE
8
0
10
7.398
20
7.592
11
7.471
21
7.592
0
0
LINE
8
0
10
7.471
20
7.592
11
7.539
21
7.592
0
0
LINE
8
0
10
7.539
20
7.592
11
8.919
21
7.592
0
0
LINE
8
0
10
8.919
20
7.592
11
9.196
21
7.592
0
0
LINE
8
0
10
9.196
20
7.592
11
9.309
21
7.592
0
0
LINE
8
0
10
9.309
20
7.592
11
9.310
21
7.592
0
0
LINE
8
0
10
9.310
20
7.592
11
9.317
21
7.592
0
0
LINE
8
0
10
9.317
20
7.592
11
10.635
21
7.592
0
0
LINE
8
0
10
10.635
20
7.592
11
10.636
21
7.592
0
0
LINE
8
0
10
10.636
20
7.592
11
10.640
21
7.592
0
0
LINE
8
0
10
10.640
20
7.592
11
10.645
21
7.592
0
0
LINE
8
0
10
10.645
20
7.592
11
10.646
21
7.592
0
0
LINE
8
0
10
10.646
20
7.592
11
10.651
21
7.592
0
0
LINE
8
0
10
10.651
20
7.592
11
10.654
21
7.592
0
0
LINE
8
0
10
10.654
20
7.592
11
10.655
21
7.592
0
0
LINE
8
0
10
10.655
20
7.592
11
10.658
21
7.592
0
0
LINE
8
0
10
10.658
20
7.592
11
10.663
21
7.592
0
0
LINE
8
0
10
10.663
20
7.592
11
10.666
21
7.592
0
0
LINE
8
0
10
10.666
20
7.592
11
10.667
21
7.592
0
0
LINE
8
0
10
10.667
20
7.592
11
10.775
21
7.592
0
0
LINE
8
0
10
10.775
20
7.592
11
11.051
21
7.592
0
0
LINE
8
0
10
11.051
20
7.592
11
12.432
21
7.592
0
0
LINE
8
0
10
12.432
20
7.592
11
12.493
21
7.592
0
0
LINE
8
0
10
12.493
20
7.592
11
12.566
21
7.592
0
0
LINE
8
0
10
12.566
20
7.592
11
12.850
21
7.592
0
0
LINE
8
0
10
12.850
20
7.592
11
12.878
21
7.592
0
0
LINE
8
0
10
12.878
20
7.592
11
14.280
21
7.592
0
0
LINE
8
0
10
14.280
20
7.592
11
14.561
21
7.592
0
0
LINE
8
0
10
14.561
20
7.592
11
14.626
21
7.592
0
0
LINE
8
0
10
0.514
20
10.092
11
0.582
21
10.092
0
0
LINE
8
0
10
0.514
20
10.092
11
0.582
21
10.092
0
0
LINE
8
0
10
0.582
20
10.092
11
1.712
21
10.092
0
0
LINE
8
0
10
1.712
20
10.092
11
1.991
21
10.092
0
0
LINE
8
0
10
1.991
20
10.092
11
2.079
21
10.092
0
0
LINE
8
0
10
2.079
20
10.092
11
2.084
21
10.092
0
0
LINE
8
0
10
2.084
20
10.092
11
2.086
21
10.092
0
0
LINE
8
0
10
2.086
20
10.092
11
2.087
21
10.092
0
0
LINE
8
0
10
2.087
20
10.092
11
2.088
21
10.092
0
0
LINE
8
0
10
2.088
20
10.092
11
2.092
21
10.092
0
0
LINE
8
0
10
2.092
20
10.092
11
2.093
21
10.092
0
0
LINE
8
0
10
2.093
20
10.092
11
2.095
21
10.092
0
0
LINE
8
0
10
2.095
20
10.092
11
3.437
21
10.092
0
0
LINE
8
0
10
3.437
20
10.092
11
3.551
21
10.092
0
0
LINE
8
0
10
3.551
20
10.092
11
3.827
21
10.092
0
0
LINE
8
0
10
3.827
20
10.092
11
5.208
21
10.092
0
0
LINE
8
0
10
5.208
20
10.092
11
5.277
21
10.092
0
0
LINE
8
0
10
5.277
20
10.092
11
5.350
21
10.092
0
0
LINE
8
0
10
5.350
20
10.092
11
5.635
21
10.092
0
0
LINE
8
0
10
5.635
20
10.092
11
5.683
21
10.092
0
0
LINE
8
0
10
5.683
20
10.092
11
5.689
21
10.092
0
0
LINE
8
0
10
5.689
20
10.092
11
7.064
21
10.092
0
0
LINE
8
0
10
7.064
20
10.092
11
7.114
21
10.092
0
0
LINE
8
0
10
7.114
20
10.092
11
7.398
21
10.092
0
0
LINE
8
0
10
7.398
20
10.092
11
7.471
21
10.092
0
0
LINE
8
0
10
7.471
20
10.092
11
7.539
21
10.092
0
0
LINE
8
0
10
7.539
20
10.092
11
8.919
21
10.092
0
0
LINE
8
0
10
8.919
20
10.092
11
9.196
21
10.092
0
0
LINE
8
0
10
9.196
20
10.092
11
9.309
21
10.092
0
0
LINE
8
0
10
9.309
20
10.092
11
9.310
21
10.092
0
0
LINE
8
0
10
9.310
20
10.092
11
9.317
21
10.092
0
0
LINE
8
0
10
9.317
20
10.092
11
10.635
21
10.092
0
0
LINE
8
0
10
10.635
20
10.092
11
10.636
21
10.092
0
0
LINE
8
0
10
10.636
20
10.092
11
10.640
21
10.092
0
0
LINE
8
0
10
10.640
20
10.092
11
10.645
21
10.092
0
0
LINE
8
0
10
10.645
20
10.092
11
10.646
21
10.092
0
0
LINE
8
0
10
10.646
20
10.092
11
10.651
21
10.092
0
0
LINE
8
0
10
10.651
20
10.092
11
10.654
21
10.092
0
0
LINE
8
0
10
10.654
20
10.092
11
10.655
21
10.092
0
0
LINE
8
0
10
10.655
20
10.092
11
10.658
21
10.092
0
0
LINE
8
0
10
10.658
20
10.092
11
10.663
21
10.092
0
0
LINE
8
0
10
10.663
20
10.092
11
10.666
21
10.092
0
0
LINE
8
0
10
10.666
20
10.092
11
10.667
21
10.092
0
0
LINE
8
0
10
10.667
20
10.092
11
10.775
21
10.092
0
0
LINE
8
0
10
10.775
20
10.092
11
11.051
21
10.092
0
0
LINE
8
0
10
11.051
20
10.092
11
12.432
21
10.092
0
0
LINE
8
0
10
12.432
20
10.092
11
12.493
21
10.092
0
0
LINE
8
0
10
12.493
20
10.092
11
12.566
21
10.092
0
0
LINE
8
0
10
12.566
20
10.092
11
12.850
21
10.092
0
0
LINE
8
0
10
12.850
20
10.092
11
12.878
21
10.092
0
0
LINE
8
0
10
12.878
20
10.092
11
14.280
21
10.092
0
0
LINE
8
0
10
14.280
20
10.092
11
14.390
21
10.092
0
0
LINE
8
0
10
14.390
20
10.092
11
14.433
21
10.092
0
0
LINE
8
0
10
14.433
20
10.092
11
14.626
21
10.092
0
0
LINE
8
0
10
0.438
20
12.592
11
0.511
21
12.592
0
0
LINE
8
0
10
0.438
20
12.592
11
0.511
21
12.592
0
0
LINE
8
0
10
0.511
20
12.592
11
1.705
21
12.592
0
0
LINE
8
0
10
1.705
20
12.592
11
1.983
21
12.592
0
0
LINE
8
0
10
1.983
20
12.592
11
2.079
21
12.592
0
0
LINE
8
0
10
2.079
20
12.592
11
2.080
21
12.592
0
0
LINE
8
0
10
2.080
20
12.592
11
2.081
21
12.592
0
0
LINE
8
0
10
2.081
20
12.592
11
2.084
21
12.592
0
0
LINE
8
0
10
2.084
20
12.592
11
2.086
21
12.592
0
0
LINE
8
0
10
2.086
20
12.592
11
2.087
21
12.592
0
0
LINE
8
0
10
2.087
20
12.592
11
2.088
21
12.592
0
0
LINE
8
0
10
2.088
20
12.592
11
2.092
21
12.592
0
0
LINE
8
0
10
2.092
20
12.592
11
2.093
21
12.592
0
0
LINE
8
0
10
2.093
20
12.592
11
2.095
21
12.592
0
0
LINE
8
0
10
2.095
20
12.592
11
3.437
21
12.592
0
0
LINE
8
0
10
3.437
20
12.592
11
3.551
21
12.592
0
0
LINE
8
0
10
3.551
20
12.592
11
3.827
21
12.592
0
0
LINE
8
0
10
3.827
20
12.592
11
5.208
21
12.592
0
0
LINE
8
0
10
5.208
20
12.592
11
5.277
21
12.592
0
0
LINE
8
0
10
5.277
20
12.592
11
5.350
21
12.592
0
0
LINE
8
0
10
5.350
20
12.592
11
5.635
21
12.592
0
0
LINE
8
0
10
5.635
20
12.592
11
5.683
21
12.592
0
0
LINE
8
0
10
5.683
20
12.592
11
5.692
21
12.592
0
0
LINE
8
0
10
5.692
20
12.592
11
7.064
21
12.592
0
0
LINE
8
0
10
7.064
20
12.592
11
7.114
21
12.592
0
0
LINE
8
0
10
7.114
20
12.592
11
7.398
21
12.592
0
0
LINE
8
0
10
7.398
20
12.592
11
7.471
21
12.592
0
0
LINE
8
0
10
7.471
20
12.592
11
7.539
21
12.592
0
0
LINE
8
0
10
7.539
20
12.592
11
8.919
21
12.592
0
0
LINE
8
0
10
8.919
20
12.592
11
9.196
21
12.592
0
0
LINE
8
0
10
9.196
20
12.592
11
9.309
21
12.592
0
0
LINE
8
0
10
9.309
20
12.592
11
9.310
21
12.592
0
0
LINE
8
0
10
9.310
20
12.592
11
9.317
21
12.592
0
0
LINE
8
0
10
9.317
20
12.592
11
10.635
21
12.592
0
0
LINE
8
0
10
10.635
20
12.592
11
10.636
21
12.592
0
0
LINE
8
0
10
10.636
20
12.592
11
10.641
21
12.592
0
0
LINE
8
0
10
10.641
20
12.592
11
10.646
21
12.592
0
0
LINE
8
0
10
10.646
20
12.592
11
10.651
21
12.592
0
0
LINE
8
0
10
10.651
20
12.592
11
10.654
21
12.592
0
0
LINE
8
0
10
10.654
20
12.592
11
10.655
21
12.592
0
0
LINE
8
0
10
10.655
20
12.592
11
10.658
21
12.592
0
0
LINE
8
0
10
10.658
20
12.592
11
10.663
21
12.592
0
0
LINE
8
0
10
10.663
20
12.592
11
10.666
21
12.592
0
0
LINE
8
0
10
10.666
20
12.592
11
10.667
21
12.592
0
0
LINE
8
0
10
10.667
20
12.592
11
10.775
21
12.592
0
0
LINE
8
0
10
10.775
20
12.592
11
11.051
21
12.592
0
0
LINE
8
0
10
11.051
20
12.592
11
12.432
21
12.592
0
0
LINE
8
0
10
12.432
20
12.592
11
12.493
21
12.592
0
0
LINE
8
0
10
12.493
20
12.592
11
12.566
21
12.592
0
0
LINE
8
0
10
12.566
20
12.592
11
12.850
21
12.592
0
0
LINE
8
0
10
12.850
20
12.592
11
12.878
21
12.592
0
0
LINE
8
0
10
12.878
20
12.592
11
14.280
21
12.592
0
0
LINE
8
0
10
14.280
20
12.592
11
14.561
21
12.592
0
0
LINE
8
0
10
14.561
20
12.592
11
14.626
21
12.592
0
0
ENDSEC
0
EOF
