0
SECTION
2
ENTITIES
0
LINE
8
0
10
14.941
20
0.059
11
0.059
21
0.059
0
0
LINE
8
0
10
0.059
20
0.059
11
0.059
21
14.941
0
0
LINE
8
0
10
0.059
20
14.941
11
14.941
21
14.941
0
0
LINE
8
0
10
14.941
20
14.941
11
14.941
21
0.059
0
0
LINE
8
0
10
14.941
20
0.059
11
14.941
21
0.059
0
0
LINE
8
0
10
14.861
20
0.139
11
0.139
21
0.139
0
0
LINE
8
0
10
0.139
20
0.139
11
0.139
21
14.861
0
0
LINE
8
0
10
0.139
20
14.861
11
14.861
21
14.861
0
0
LINE
8
0
10
14.861
20
14.861
11
14.861
21
0.139
0
0
LINE
8
0
10
14.861
20
0.139
11
14.861
21
0.139
0
0
LINE
8
0
10
14.781
20
0.219
11
0.219
21
0.219
0
0
LINE
8
0
10
0.219
20
0.219
11
0.219
21
14.781
0
0
LINE
8
0
10
0.219
20
14.781
11
14.781
21
14.781
0
0
LINE
8
0
10
14.781
20
14.781
11
14.781
21
0.219
0
0
LINE
8
0
10
14.781
20
0.219
11
14.781
21
0.219
0
0
LINE
8
0
10
0.309
20
0.299
11
0.299
21
0.307
0
0
LINE
8
0
10
0.299
20
0.409
11
0.439
21
0.299
0
0
LINE
8
0
10
0.568
20
0.299
11
0.299
21
0.510
0
0
LINE
8
0
10
0.299
20
0.612
11
0.698
21
0.299
0
0
LINE
8
0
10
0.828
20
0.299
11
0.299
21
0.714
0
0
LINE
8
0
10
0.299
20
0.815
11
0.957
21
0.299
0
0
LINE
8
0
10
1.087
20
0.299
11
0.299
21
0.917
0
0
LINE
8
0
10
0.299
20
1.019
11
1.217
21
0.299
0
0
LINE
8
0
10
1.346
20
0.299
11
0.299
21
1.120
0
0
LINE
8
0
10
0.299
20
1.222
11
1.476
21
0.299
0
0
LINE
8
0
10
1.606
20
0.299
11
0.299
21
1.324
0
0
LINE
8
0
10
0.299
20
1.425
11
1.735
21
0.299
0
0
LINE
8
0
10
1.865
20
0.299
11
0.299
21
1.527
0
0
LINE
8
0
10
0.299
20
1.629
11
1.995
21
0.299
0
0
LINE
8
0
10
2.124
20
0.299
11
0.299
21
1.730
0
0
LINE
8
0
10
0.299
20
1.832
11
2.254
21
0.299
0
0
LINE
8
0
10
2.384
20
0.299
11
0.299
21
1.933
0
0
LINE
8
0
10
0.299
20
2.035
11
2.513
21
0.299
0
0
LINE
8
0
10
2.643
20
0.299
11
0.299
21
2.137
0
0
LINE
8
0
10
0.299
20
2.238
11
2.772
21
0.299
0
0
LINE
8
0
10
2.902
20
0.299
11
0.299
21
2.340
0
0
LINE
8
0
10
0.299
20
2.442
11
3.032
21
0.299
0
0
LINE
8
0
10
3.161
20
0.299
11
0.299
21
2.543
0
0
LINE
8
0
10
0.299
20
2.645
11
3.291
21
0.299
0
0
LINE
8
0
10
3.421
20
0.299
11
0.299
21
2.747
0
0
LINE
8
0
10
0.299
20
2.848
11
3.550
21
0.299
0
0
LINE
8
0
10
3.680
20
0.299
11
0.299
21
2.950
0
0
LINE
8
0
10
0.299
20
3.052
11
3.810
21
0.299
0
0
LINE
8
0
10
3.939
20
0.299
11
0.299
21
3.153
0
0
LINE
8
0
10
0.299
20
3.255
11
4.069
21
0.299
0
0
LINE
8
0
10
4.199
20
0.299
11
0.299
21
3.357
0
0
LINE
8
0
10
0.299
20
3.458
11
4.328
21
0.299
0
0
LINE
8
0
10
4.458
20
0.299
11
0.299
21
3.560
0
0
LINE
8
0
10
0.299
20
3.662
11
4.588
21
0.299
0
0
LINE
8
0
10
4.717
20
0.299
11
0.299
21
3.763
0
0
LINE
8
0
10
0.299
20
3.865
11
4.847
21
0.299
0
0
LINE
8
0
10
4.977
20
0.299
11
0.299
21
3.967
0
0
LINE
8
0
10
0.299
20
4.068
11
5.106
21
0.299
0
0
LINE
8
0
10
5.236
20
0.299
11
0.299
21
4.170
0
0
LINE
8
0
10
0.299
20
4.272
11
5.366
21
0.299
0
0
LINE
8
0
10
5.495
20
0.299
11
0.299
21
4.373
0
0
LINE
8
0
10
0.299
20
4.475
11
5.625
21
0.299
0
0
LINE
8
0
10
5.755
20
0.299
11
0.299
21
4.577
0
0
LINE
8
0
10
0.299
20
4.678
11
5.884
21
0.299
0
0
LINE
8
0
10
6.014
20
0.299
11
0.299
21
4.780
0
0
LINE
8
0
10
0.299
20
4.882
11
6.143
21
0.299
0
0
LINE
8
0
10
6.273
20
0.299
11
0.299
21
4.983
0
0
LINE
8
0
10
0.299
20
5.085
11
6.403
21
0.299
0
0
LINE
8
0
10
6.532
20
0.299
11
0.299
21
5.187
0
0
LINE
8
0
10
0.299
20
5.288
11
6.662
21
0.299
0
0
LINE
8
0
10
6.792
20
0.299
11
0.299
21
5.390
0
0
LINE
8
0
10
0.299
20
5.492
11
6.921
21
0.299
0
0
LINE
8
0
10
7.051
20
0.299
11
0.299
21
5.593
0
0
LINE
8
0
10
0.299
20
5.695
11
7.181
21
0.299
0
0
LINE
8
0
10
7.310
20
0.299
11
0.299
21
5.797
0
0
LINE
8
0
10
0.299
20
5.898
11
7.440
21
0.299
0
0
LINE
8
0
10
7.570
20
0.299
11
0.299
21
6.000
0
0
LINE
8
0
10
0.299
20
6.102
11
7.699
21
0.299
0
0
LINE
8
0
10
7.829
20
0.299
11
0.299
21
6.203
0
0
LINE
8
0
10
0.299
20
6.305
11
7.959
21
0.299
0
0
LINE
8
0
10
8.088
20
0.299
11
0.299
21
6.407
0
0
LINE
8
0
10
0.299
20
6.508
11
8.218
21
0.299
0
0
LINE
8
0
10
8.348
20
0.299
11
0.299
21
6.610
0
0
LINE
8
0
10
0.299
20
6.712
11
8.477
21
0.299
0
0
LINE
8
0
10
8.607
20
0.299
11
0.299
21
6.813
0
0
LINE
8
0
10
0.299
20
6.915
11
8.736
21
0.299
0
0
LINE
8
0
10
8.866
20
0.299
11
0.299
21
7.016
0
0
LINE
8
0
10
0.299
20
7.118
11
8.996
21
0.299
0
0
LINE
8
0
10
9.125
20
0.299
11
0.299
21
7.220
0
0
LINE
8
0
10
0.299
20
7.321
11
9.255
21
0.299
0
0
LINE
8
0
10
9.385
20
0.299
11
0.299
21
7.423
0
0
LINE
8
0
10
0.299
20
7.525
11
9.514
21
0.299
0
0
LINE
8
0
10
9.644
20
0.299
11
0.299
21
7.626
0
0
LINE
8
0
10
0.299
20
7.728
11
9.774
21
0.299
0
0
LINE
8
0
10
9.903
20
0.299
11
0.299
21
7.830
0
0
LINE
8
0
10
0.299
20
7.931
11
10.033
21
0.299
0
0
LINE
8
0
10
10.163
20
0.299
11
0.299
21
8.033
0
0
LINE
8
0
10
0.299
20
8.135
11
10.292
21
0.299
0
0
LINE
8
0
10
10.422
20
0.299
11
0.299
21
8.236
0
0
LINE
8
0
10
0.299
20
8.338
11
10.552
21
0.299
0
0
LINE
8
0
10
10.681
20
0.299
11
0.299
21
8.440
0
0
LINE
8
0
10
0.299
20
8.541
11
10.811
21
0.299
0
0
LINE
8
0
10
10.941
20
0.299
11
0.299
21
8.643
0
0
LINE
8
0
10
0.299
20
8.745
11
11.070
21
0.299
0
0
LINE
8
0
10
11.200
20
0.299
11
0.299
21
8.846
0
0
LINE
8
0
10
0.299
20
8.948
11
11.330
21
0.299
0
0
LINE
8
0
10
11.459
20
0.299
11
0.299
21
9.050
0
0
LINE
8
0
10
0.299
20
9.151
11
11.589
21
0.299
0
0
LINE
8
0
10
11.718
20
0.299
11
0.299
21
9.253
0
0
LINE
8
0
10
0.299
20
9.355
11
11.848
21
0.299
0
0
LINE
8
0
10
11.978
20
0.299
11
0.299
21
9.456
0
0
LINE
8
0
10
0.299
20
9.558
11
12.107
21
0.299
0
0
LINE
8
0
10
12.237
20
0.299
11
0.299
21
9.660
0
0
LINE
8
0
10
0.299
20
9.761
11
12.367
21
0.299
0
0
LINE
8
0
10
12.496
20
0.299
11
0.299
21
9.863
0
0
LINE
8
0
10
0.299
20
9.965
11
12.626
21
0.299
0
0
LINE
8
0
10
12.756
20
0.299
11
0.299
21
10.066
0
0
LINE
8
0
10
0.299
20
10.168
11
12.885
21
0.299
0
0
LINE
8
0
10
13.015
20
0.299
11
0.299
21
10.270
0
0
LINE
8
0
10
0.299
20
10.371
11
13.145
21
0.299
0
0
LINE
8
0
10
13.274
20
0.299
11
0.299
21
10.473
0
0
LINE
8
0
10
0.299
20
10.575
11
13.404
21
0.299
0
0
LINE
8
0
10
13.534
20
0.299
11
0.299
21
10.676
0
0
LINE
8
0
10
0.299
20
10.778
11
13.663
21
0.299
0
0
LINE
8
0
10
13.793
20
0.299
11
0.299
21
10.880
0
0
LINE
8
0
10
0.299
20
10.981
11
13.923
21
0.299
0
0
LINE
8
0
10
14.052
20
0.299
11
0.299
21
11.083
0
0
LINE
8
0
10
0.299
20
11.185
11
14.182
21
0.299
0
0
LINE
8
0
10
14.312
20
0.299
11
0.299
21
11.286
0
0
LINE
8
0
10
0.299
20
11.388
11
14.441
21
0.299
0
0
LINE
8
0
10
14.571
20
0.299
11
0.299
21
11.490
0
0
LINE
8
0
10
0.299
20
11.591
11
14.700
21
0.299
0
0
LINE
8
0
10
14.701
20
0.400
11
0.299
21
11.693
0
0
LINE
8
0
10
0.299
20
11.795
11
14.701
21
0.502
0
0
LINE
8
0
10
14.701
20
0.604
11
0.299
21
11.896
0
0
LINE
8
0
10
0.299
20
11.998
11
14.701
21
0.705
0
0
LINE
8
0
10
14.701
20
0.807
11
0.299
21
12.100
0
0
LINE
8
0
10
0.299
20
12.201
11
14.701
21
0.909
0
0
LINE
8
0
10
14.701
20
1.010
11
0.299
21
12.303
0
0
LINE
8
0
10
0.299
20
12.404
11
14.701
21
1.112
0
0
LINE
8
0
10
14.701
20
1.214
11
0.299
21
12.506
0
0
LINE
8
0
10
0.299
20
12.608
11
14.701
21
1.315
0
0
LINE
8
0
10
14.701
20
1.417
11
0.299
21
12.709
0
0
LINE
8
0
10
0.299
20
12.811
11
14.701
21
1.519
0
0
LINE
8
0
10
14.701
20
1.620
11
0.299
21
12.913
0
0
LINE
8
0
10
0.299
20
13.014
11
14.701
21
1.722
0
0
LINE
8
0
10
14.701
20
1.823
11
0.299
21
13.116
0
0
LINE
8
0
10
0.299
20
13.218
11
14.701
21
1.925
0
0
LINE
8
0
10
14.701
20
2.027
11
0.299
21
13.319
0
0
LINE
8
0
10
0.299
20
13.421
11
14.701
21
2.128
0
0
LINE
8
0
10
14.701
20
2.230
11
0.299
21
13.523
0
0
LINE
8
0
10
0.299
20
13.624
11
14.701
21
2.332
0
0
LINE
8
0
10
14.701
20
2.433
11
0.299
21
13.726
0
0
LINE
8
0
10
0.299
20
13.828
11
14.701
21
2.535
0
0
LINE
8
0
10
14.701
20
2.637
11
0.299
21
13.929
0
0
LINE
8
0
10
0.299
20
14.031
11
14.701
21
2.738
0
0
LINE
8
0
10
14.701
20
2.840
11
0.299
21
14.133
0
0
LINE
8
0
10
0.299
20
14.234
11
14.701
21
2.942
0
0
LINE
8
0
10
14.701
20
3.043
11
0.299
21
14.336
0
0
LINE
8
0
10
0.299
20
14.438
11
14.701
21
3.145
0
0
LINE
8
0
10
14.701
20
3.247
11
0.299
21
14.539
0
0
LINE
8
0
10
0.299
20
14.641
11
14.701
21
3.348
0
0
LINE
8
0
10
14.701
20
3.450
11
0.352
21
14.701
0
0
LINE
8
0
10
0.482
20
14.701
11
14.701
21
3.552
0
0
LINE
8
0
10
14.701
20
3.653
11
0.611
21
14.701
0
0
LINE
8
0
10
0.741
20
14.701
11
14.701
21
3.755
0
0
LINE
8
0
10
14.701
20
3.857
11
0.871
21
14.701
0
0
LINE
8
0
10
1.000
20
14.701
11
14.701
21
3.958
0
0
LINE
8
0
10
14.701
20
4.060
11
1.130
21
14.701
0
0
LINE
8
0
10
1.260
20
14.701
11
14.701
21
4.162
0
0
LINE
8
0
10
14.701
20
4.263
11
1.389
21
14.701
0
0
LINE
8
0
10
1.519
20
14.701
11
14.701
21
4.365
0
0
LINE
8
0
10
14.701
20
4.467
11
1.649
21
14.701
0
0
LINE
8
0
10
1.778
20
14.701
11
14.701
21
4.568
0
0
LINE
8
0
10
14.701
20
4.670
11
1.908
21
14.701
0
0
LINE
8
0
10
2.038
20
14.701
11
14.701
21
4.772
0
0
LINE
8
0
10
14.701
20
4.873
11
2.167
21
14.701
0
0
LINE
8
0
10
2.297
20
14.701
11
14.701
21
4.975
0
0
LINE
8
0
10
14.701
20
5.077
11
2.427
21
14.701
0
0
LINE
8
0
10
2.556
20
14.701
11
14.701
21
5.178
0
0
LINE
8
0
10
14.701
20
5.280
11
2.686
21
14.701
0
0
LINE
8
0
10
2.816
20
14.701
11
14.701
21
5.382
0
0
LINE
8
0
10
14.701
20
5.483
11
2.945
21
14.701
0
0
LINE
8
0
10
3.075
20
14.701
11
14.701
21
5.585
0
0
LINE
8
0
10
14.701
20
5.687
11
3.204
21
14.701
0
0
LINE
8
0
10
3.334
20
14.701
11
14.701
21
5.788
0
0
LINE
8
0
10
14.701
20
5.890
11
3.464
21
14.701
0
0
LINE
8
0
10
3.593
20
14.701
11
14.701
21
5.992
0
0
LINE
8
0
10
14.701
20
6.093
11
3.723
21
14.701
0
0
LINE
8
0
10
3.853
20
14.701
11
14.701
21
6.195
0
0
LINE
8
0
10
14.701
20
6.297
11
3.982
21
14.701
0
0
LINE
8
0
10
4.112
20
14.701
11
14.701
21
6.398
0
0
LINE
8
0
10
14.701
20
6.500
11
4.242
21
14.701
0
0
LINE
8
0
10
4.371
20
14.701
11
14.701
21
6.602
0
0
LINE
8
0
10
14.701
20
6.703
11
4.501
21
14.701
0
0
LINE
8
0
10
4.631
20
14.701
11
14.701
21
6.805
0
0
LINE
8
0
10
14.701
20
6.907
11
4.760
21
14.701
0
0
LINE
8
0
10
4.890
20
14.701
11
14.701
21
7.008
0
0
LINE
8
0
10
14.701
20
7.110
11
5.020
21
14.701
0
0
LINE
8
0
10
5.149
20
14.701
11
14.701
21
7.211
0
0
LINE
8
0
10
14.701
20
7.313
11
5.279
21
14.701
0
0
LINE
8
0
10
5.409
20
14.701
11
14.701
21
7.415
0
0
LINE
8
0
10
14.701
20
7.516
11
5.538
21
14.701
0
0
LINE
8
0
10
5.668
20
14.701
11
14.701
21
7.618
0
0
LINE
8
0
10
14.701
20
7.720
11
5.798
21
14.701
0
0
LINE
8
0
10
5.927
20
14.701
11
14.701
21
7.821
0
0
LINE
8
0
10
14.701
20
7.923
11
6.057
21
14.701
0
0
LINE
8
0
10
6.186
20
14.701
11
14.701
21
8.025
0
0
LINE
8
0
10
14.701
20
8.126
11
6.316
21
14.701
0
0
LINE
8
0
10
6.446
20
14.701
11
14.701
21
8.228
0
0
LINE
8
0
10
14.701
20
8.330
11
6.575
21
14.701
0
0
LINE
8
0
10
6.705
20
14.701
11
14.701
21
8.431
0
0
LINE
8
0
10
14.701
20
8.533
11
6.835
21
14.701
0
0
LINE
8
0
10
6.964
20
14.701
11
14.701
21
8.635
0
0
LINE
8
0
10
14.701
20
8.736
11
7.094
21
14.701
0
0
LINE
8
0
10
7.224
20
14.701
11
14.701
21
8.838
0
0
LINE
8
0
10
14.701
20
8.940
11
7.353
21
14.701
0
0
LINE
8
0
10
7.483
20
14.701
11
14.701
21
9.041
0
0
LINE
8
0
10
14.701
20
9.143
11
7.613
21
14.701
0
0
LINE
8
0
10
7.742
20
14.701
11
14.701
21
9.245
0
0
LINE
8
0
10
14.701
20
9.346
11
7.872
21
14.701
0
0
LINE
8
0
10
8.002
20
14.701
11
14.701
21
9.448
0
0
LINE
8
0
10
14.701
20
9.550
11
8.131
21
14.701
0
0
LINE
8
0
10
8.261
20
14.701
11
14.701
21
9.651
0
0
LINE
8
0
10
14.701
20
9.753
11
8.391
21
14.701
0
0
LINE
8
0
10
8.520
20
14.701
11
14.701
21
9.855
0
0
LINE
8
0
10
14.701
20
9.956
11
8.650
21
14.701
0
0
LINE
8
0
10
8.780
20
14.701
11
14.701
21
10.058
0
0
LINE
8
0
10
14.701
20
10.160
11
8.909
21
14.701
0
0
LINE
8
0
10
9.039
20
14.701
11
14.701
21
10.261
0
0
LINE
8
0
10
14.701
20
10.363
11
9.168
21
14.701
0
0
LINE
8
0
10
9.298
20
14.701
11
14.701
21
10.465
0
0
LINE
8
0
10
14.701
20
10.566
11
9.428
21
14.701
0
0
LINE
8
0
10
9.557
20
14.701
11
14.701
21
10.668
0
0
LINE
8
0
10
14.701
20
10.770
11
9.687
21
14.701
0
0
LINE
8
0
10
9.817
20
14.701
11
14.701
21
10.871
0
0
LINE
8
0
10
14.701
20
10.973
11
9.946
21
14.701
0
0
LINE
8
0
10
10.076
20
14.701
11
14.701
21
11.075
0
0
LINE
8
0
10
14.701
20
11.176
11
10.206
21
14.701
0
0
LINE
8
0
10
10.335
20
14.701
11
14.701
21
11.278
0
0
LINE
8
0
10
14.701
20
11.380
11
10.465
21
14.701
0
0
LINE
8
0
10
10.595
20
14.701
11
14.701
21
11.481
0
0
LINE
8
0
10
14.701
20
11.583
11
10.724
21
14.701
0
0
LINE
8
0
10
10.854
20
14.701
11
14.701
21
11.685
0
0
LINE
8
0
10
14.701
20
11.786
11
10.984
21
14.701
0
0
LINE
8
0
10
11.113
20
14.701
11
14.701
21
11.888
0
0
LINE
8
0
10
14.701
20
11.990
11
11.243
21
14.701
0
0
LINE
8
0
10
11.373
20
14.701
11
14.701
21
12.091
0
0
LINE
8
0
10
14.701
20
12.193
11
11.502
21
14.701
0
0
LINE
8
0
10
11.632
20
14.701
11
14.701
21
12.294
0
0
LINE
8
0
10
14.701
20
12.396
11
11.762
21
14.701
0
0
LINE
8
0
10
11.891
20
14.701
11
14.701
21
12.498
0
0
LINE
8
0
10
14.701
20
12.599
11
12.021
21
14.701
0
0
LINE
8
0
10
12.150
20
14.701
11
14.701
21
12.701
0
0
LINE
8
0
10
14.701
20
12.803
11
12.280
21
14.701
0
0
LINE
8
0
10
12.410
20
14.701
11
14.701
21
12.904
0
0
LINE
8
0
10
14.701
20
13.006
11
12.539
21
14.701
0
0
LINE
8
0
10
12.669
20
14.701
11
14.701
21
13.108
0
0
LINE
8
0
10
14.701
20
13.209
11
12.799
21
14.701
0
0
LINE
8
0
10
12.928
20
14.701
11
14.701
21
13.311
0
0
LINE
8
0
10
14.701
20
13.413
11
13.058
21
14.701
0
0
LINE
8
0
10
13.188
20
14.701
11
14.701
21
13.514
0
0
LINE
8
0
10
14.701
20
13.616
11
13.317
21
14.701
0
0
LINE
8
0
10
13.447
20
14.701
11
14.701
21
13.718
0
0
LINE
8
0
10
14.701
20
13.819
11
13.577
21
14.701
0
0
LINE
8
0
10
13.706
20
14.701
11
14.701
21
13.921
0
0
LINE
8
0
10
14.701
20
14.023
11
13.836
21
14.701
0
0
LINE
8
0
10
13.966
20
14.701
11
14.701
21
14.124
0
0
LINE
8
0
10
14.701
20
14.226
11
14.095
21
14.701
0
0
LINE
8
0
10
14.225
20
14.701
11
14.701
21
14.328
0
0
LINE
8
0
10
14.701
20
14.429
11
14.355
21
14.701
0
0
LINE
8
0
10
14.484
20
14.701
11
14.701
21
14.531
0
0
LINE
8
0
10
14.701
20
14.633
11
14.614
21
14.701
0
0
ENDSEC
0
EOF
