0
SECTION
2
ENTITIES
0
LINE
8
0
10
14.941
20
0.059
11
0.059
21
0.059
0
0
LINE
8
0
10
0.059
20
0.059
11
0.059
21
14.941
0
0
LINE
8
0
10
0.059
20
14.941
11
14.941
21
14.941
0
0
LINE
8
0
10
14.941
20
14.941
11
14.941
21
0.059
0
0
LINE
8
0
10
14.941
20
0.059
11
14.941
21
0.059
0
0
LINE
8
0
10
14.861
20
0.139
11
0.139
21
0.139
0
0
LINE
8
0
10
0.139
20
0.139
11
0.139
21
14.861
0
0
LINE
8
0
10
0.139
20
14.861
11
14.861
21
14.861
0
0
LINE
8
0
10
14.861
20
14.861
11
14.861
21
0.139
0
0
LINE
8
0
10
14.861
20
0.139
11
14.861
21
0.139
0
0
LINE
8
0
10
14.781
20
0.219
11
0.219
21
0.219
0
0
LINE
8
0
10
0.219
20
0.219
11
0.219
21
14.781
0
0
LINE
8
0
10
0.219
20
14.781
11
14.781
21
14.781
0
0
LINE
8
0
10
14.781
20
14.781
11
14.781
21
0.219
0
0
LINE
8
0
10
14.781
20
0.219
11
14.781
21
0.219
0
0
LINE
8
0
10
0.388
20
0.299
11
0.299
21
0.354
0
0
LINE
8
0
10
0.299
20
0.448
11
0.540
21
0.299
0
0
LINE
8
0
10
0.693
20
0.299
11
0.299
21
0.542
0
0
LINE
8
0
10
0.299
20
0.636
11
0.845
21
0.299
0
0
LINE
8
0
10
0.997
20
0.299
11
0.299
21
0.730
0
0
LINE
8
0
10
0.299
20
0.824
11
1.149
21
0.299
0
0
LINE
8
0
10
1.302
20
0.299
11
0.299
21
0.918
0
0
LINE
8
0
10
0.299
20
1.012
11
1.454
21
0.299
0
0
LINE
8
0
10
1.606
20
0.299
11
0.299
21
1.106
0
0
LINE
8
0
10
0.299
20
1.200
11
1.758
21
0.299
0
0
LINE
8
0
10
1.911
20
0.299
11
0.299
21
1.294
0
0
LINE
8
0
10
0.299
20
1.388
11
2.063
21
0.299
0
0
LINE
8
0
10
2.215
20
0.299
11
0.299
21
1.482
0
0
LINE
8
0
10
0.299
20
1.576
11
2.367
21
0.299
0
0
LINE
8
0
10
2.520
20
0.299
11
0.299
21
1.670
0
0
LINE
8
0
10
0.299
20
1.764
11
2.672
21
0.299
0
0
LINE
8
0
10
2.824
20
0.299
11
0.299
21
1.859
0
0
LINE
8
0
10
0.299
20
1.953
11
2.976
21
0.299
0
0
LINE
8
0
10
3.129
20
0.299
11
0.299
21
2.047
0
0
LINE
8
0
10
0.299
20
2.141
11
3.281
21
0.299
0
0
LINE
8
0
10
3.433
20
0.299
11
0.299
21
2.235
0
0
LINE
8
0
10
0.299
20
2.329
11
3.585
21
0.299
0
0
LINE
8
0
10
3.738
20
0.299
11
0.299
21
2.423
0
0
LINE
8
0
10
0.299
20
2.517
11
3.890
21
0.299
0
0
LINE
8
0
10
4.042
20
0.299
11
0.299
21
2.611
0
0
LINE
8
0
10
0.299
20
2.705
11
4.194
21
0.299
0
0
LINE
8
0
10
4.347
20
0.299
11
0.299
21
2.799
0
0
LINE
8
0
10
0.299
20
2.893
11
4.499
21
0.299
0
0
LINE
8
0
10
4.651
20
0.299
11
0.299
21
2.987
0
0
LINE
8
0
10
0.299
20
3.081
11
4.803
21
0.299
0
0
LINE
8
0
10
4.955
20
0.299
11
0.299
21
3.175
0
0
LINE
8
0
10
0.299
20
3.269
11
5.108
21
0.299
0
0
LINE
8
0
10
5.260
20
0.299
11
0.299
21
3.363
0
0
LINE
8
0
10
0.299
20
3.457
11
5.412
21
0.299
0
0
LINE
8
0
10
5.564
20
0.299
11
0.299
21
3.551
0
0
LINE
8
0
10
0.299
20
3.645
11
5.717
21
0.299
0
0
LINE
8
0
10
5.869
20
0.299
11
0.299
21
3.739
0
0
LINE
8
0
10
0.299
20
3.833
11
6.021
21
0.299
0
0
LINE
8
0
10
6.173
20
0.299
11
0.299
21
3.927
0
0
LINE
8
0
10
0.299
20
4.021
11
6.326
21
0.299
0
0
LINE
8
0
10
6.478
20
0.299
11
0.299
21
4.115
0
0
LINE
8
0
10
0.299
20
4.209
11
6.630
21
0.299
0
0
LINE
8
0
10
6.782
20
0.299
11
0.299
21
4.303
0
0
LINE
8
0
10
0.299
20
4.397
11
6.935
21
0.299
0
0
LINE
8
0
10
7.087
20
0.299
11
0.299
21
4.491
0
0
LINE
8
0
10
0.299
20
4.585
11
7.239
21
0.299
0
0
LINE
8
0
10
7.391
20
0.299
11
0.299
21
4.679
0
0
LINE
8
0
10
0.299
20
4.773
11
7.544
21
0.299
0
0
LINE
8
0
10
7.696
20
0.299
11
0.299
21
4.867
0
0
LINE
8
0
10
0.299
20
4.961
11
7.848
21
0.299
0
0
LINE
8
0
10
8.000
20
0.299
11
0.299
21
5.055
0
0
LINE
8
0
10
0.299
20
5.149
11
8.153
21
0.299
0
0
LINE
8
0
10
8.305
20
0.299
11
0.299
21
5.244
0
0
LINE
8
0
10
0.299
20
5.338
11
8.457
21
0.299
0
0
LINE
8
0
10
8.609
20
0.299
11
0.299
21
5.432
0
0
LINE
8
0
10
0.299
20
5.526
11
8.762
21
0.299
0
0
LINE
8
0
10
8.914
20
0.299
11
0.299
21
5.620
0
0
LINE
8
0
10
0.299
20
5.714
11
9.066
21
0.299
0
0
LINE
8
0
10
9.218
20
0.299
11
0.299
21
5.808
0
0
LINE
8
0
10
0.299
20
5.902
11
9.371
21
0.299
0
0
LINE
8
0
10
9.523
20
0.299
11
0.299
21
5.996
0
0
LINE
8
0
10
0.299
20
6.090
11
9.675
21
0.299
0
0
LINE
8
0
10
9.827
20
0.299
11
0.299
21
6.184
0
0
LINE
8
0
10
0.299
20
6.278
11
9.980
21
0.299
0
0
LINE
8
0
10
10.132
20
0.299
11
0.299
21
6.372
0
0
LINE
8
0
10
0.299
20
6.466
11
10.284
21
0.299
0
0
LINE
8
0
10
10.436
20
0.299
11
0.299
21
6.560
0
0
LINE
8
0
10
0.299
20
6.654
11
10.589
21
0.299
0
0
LINE
8
0
10
10.741
20
0.299
11
0.299
21
6.748
0
0
LINE
8
0
10
0.299
20
6.842
11
10.893
21
0.299
0
0
LINE
8
0
10
11.045
20
0.299
11
0.299
21
6.936
0
0
LINE
8
0
10
0.299
20
7.030
11
11.197
21
0.299
0
0
LINE
8
0
10
11.350
20
0.299
11
0.299
21
7.124
0
0
LINE
8
0
10
0.299
20
7.218
11
11.502
21
0.299
0
0
LINE
8
0
10
11.654
20
0.299
11
0.299
21
7.312
0
0
LINE
8
0
10
0.299
20
7.406
11
11.806
21
0.299
0
0
LINE
8
0
10
11.959
20
0.299
11
0.299
21
7.500
0
0
LINE
8
0
10
0.299
20
7.594
11
12.111
21
0.299
0
0
LINE
8
0
10
12.263
20
0.299
11
0.299
21
7.688
0
0
LINE
8
0
10
0.299
20
7.782
11
12.415
21
0.299
0
0
LINE
8
0
10
12.568
20
0.299
11
0.299
21
7.876
0
0
LINE
8
0
10
0.299
20
7.970
11
12.720
21
0.299
0
0
LINE
8
0
10
12.872
20
0.299
11
0.299
21
8.064
0
0
LINE
8
0
10
0.299
20
8.158
11
13.024
21
0.299
0
0
LINE
8
0
10
13.177
20
0.299
11
0.299
21
8.252
0
0
LINE
8
0
10
0.299
20
8.346
11
13.329
21
0.299
0
0
LINE
8
0
10
13.481
20
0.299
11
0.299
21
8.440
0
0
LINE
8
0
10
0.299
20
8.534
11
13.633
21
0.299
0
0
LINE
8
0
10
13.786
20
0.299
11
0.299
21
8.629
0
0
LINE
8
0
10
0.299
20
8.723
11
13.938
21
0.299
0
0
LINE
8
0
10
14.090
20
0.299
11
0.299
21
8.817
0
0
LINE
8
0
10
0.299
20
8.911
11
14.242
21
0.299
0
0
LINE
8
0
10
14.395
20
0.299
11
0.299
21
9.005
0
0
LINE
8
0
10
0.299
20
9.099
11
14.547
21
0.299
0
0
LINE
8
0
10
14.699
20
0.299
11
0.299
21
9.193
0
0
LINE
8
0
10
0.299
20
9.287
11
14.701
21
0.392
0
0
LINE
8
0
10
14.701
20
0.486
11
0.299
21
9.381
0
0
LINE
8
0
10
0.299
20
9.475
11
14.701
21
0.580
0
0
LINE
8
0
10
14.701
20
0.674
11
0.299
21
9.569
0
0
LINE
8
0
10
0.299
20
9.663
11
14.701
21
0.768
0
0
LINE
8
0
10
14.701
20
0.862
11
0.299
21
9.757
0
0
LINE
8
0
10
0.299
20
9.851
11
14.701
21
0.956
0
0
LINE
8
0
10
14.701
20
1.050
11
0.299
21
9.945
0
0
LINE
8
0
10
0.299
20
10.039
11
14.701
21
1.144
0
0
LINE
8
0
10
14.701
20
1.238
11
0.299
21
10.133
0
0
LINE
8
0
10
0.299
20
10.227
11
14.701
21
1.332
0
0
LINE
8
0
10
14.701
20
1.426
11
0.299
21
10.321
0
0
LINE
8
0
10
0.299
20
10.415
11
14.701
21
1.520
0
0
LINE
8
0
10
14.701
20
1.614
11
0.299
21
10.509
0
0
LINE
8
0
10
0.299
20
10.603
11
14.701
21
1.708
0
0
LINE
8
0
10
14.701
20
1.802
11
0.299
21
10.697
0
0
LINE
8
0
10
0.299
20
10.791
11
14.701
21
1.896
0
0
LINE
8
0
10
14.701
20
1.990
11
0.299
21
10.885
0
0
LINE
8
0
10
0.299
20
10.979
11
14.701
21
2.084
0
0
LINE
8
0
10
14.701
20
2.178
11
0.299
21
11.073
0
0
LINE
8
0
10
0.299
20
11.167
11
14.701
21
2.272
0
0
LINE
8
0
10
14.701
20
2.366
11
0.299
21
11.261
0
0
LINE
8
0
10
0.299
20
11.355
11
14.701
21
2.460
0
0
LINE
8
0
10
14.701
20
2.554
11
0.299
21
11.449
0
0
LINE
8
0
10
0.299
20
11.543
11
14.701
21
2.649
0
0
LINE
8
0
10
14.701
20
2.743
11
0.299
21
11.637
0
0
LINE
8
0
10
0.299
20
11.731
11
14.701
21
2.837
0
0
LINE
8
0
10
14.701
20
2.931
11
0.299
21
11.825
0
0
LINE
8
0
10
0.299
20
11.919
11
14.701
21
3.025
0
0
LINE
8
0
10
14.701
20
3.119
11
0.299
21
12.014
0
0
LINE
8
0
10
0.299
20
12.108
11
14.701
21
3.213
0
0
LINE
8
0
10
14.701
20
3.307
11
0.299
21
12.202
0
0
LINE
8
0
10
0.299
20
12.296
11
14.701
21
3.401
0
0
LINE
8
0
10
14.701
20
3.495
11
0.299
21
12.390
0
0
LINE
8
0
10
0.299
20
12.484
11
14.701
21
3.589
0
0
LINE
8
0
10
14.701
20
3.683
11
0.299
21
12.578
0
0
LINE
8
0
10
0.299
20
12.672
11
14.701
21
3.777
0
0
LINE
8
0
10
14.701
20
3.871
11
0.299
21
12.766
0
0
LINE
8
0
10
0.299
20
12.860
11
14.701
21
3.965
0
0
LINE
8
0
10
14.701
20
4.059
11
0.299
21
12.954
0
0
LINE
8
0
10
0.299
20
13.048
11
14.701
21
4.153
0
0
LINE
8
0
10
14.701
20
4.247
11
0.299
21
13.142
0
0
LINE
8
0
10
0.299
20
13.236
11
14.701
21
4.341
0
0
LINE
8
0
10
14.701
20
4.435
11
0.299
21
13.330
0
0
LINE
8
0
10
0.299
20
13.424
11
14.701
21
4.529
0
0
LINE
8
0
10
14.701
20
4.623
11
0.299
21
13.518
0
0
LINE
8
0
10
0.299
20
13.612
11
14.701
21
4.717
0
0
LINE
8
0
10
14.701
20
4.811
11
0.299
21
13.706
0
0
LINE
8
0
10
0.299
20
13.800
11
14.701
21
4.905
0
0
LINE
8
0
10
14.701
20
4.999
11
0.299
21
13.894
0
0
LINE
8
0
10
0.299
20
13.988
11
14.701
21
5.093
0
0
LINE
8
0
10
14.701
20
5.187
11
0.299
21
14.082
0
0
LINE
8
0
10
0.299
20
14.176
11
14.701
21
5.281
0
0
LINE
8
0
10
14.701
20
5.375
11
0.299
21
14.270
0
0
LINE
8
0
10
0.299
20
14.364
11
14.701
21
5.469
0
0
LINE
8
0
10
14.701
20
5.563
11
0.299
21
14.458
0
0
LINE
8
0
10
0.299
20
14.552
11
14.701
21
5.657
0
0
LINE
8
0
10
14.701
20
5.751
11
0.299
21
14.646
0
0
LINE
8
0
10
0.363
20
14.701
11
14.701
21
5.845
0
0
LINE
8
0
10
14.701
20
5.939
11
0.515
21
14.701
0
0
LINE
8
0
10
0.667
20
14.701
11
14.701
21
6.034
0
0
LINE
8
0
10
14.701
20
6.128
11
0.819
21
14.701
0
0
LINE
8
0
10
0.972
20
14.701
11
14.701
21
6.222
0
0
LINE
8
0
10
14.701
20
6.316
11
1.124
21
14.701
0
0
LINE
8
0
10
1.276
20
14.701
11
14.701
21
6.410
0
0
LINE
8
0
10
14.701
20
6.504
11
1.428
21
14.701
0
0
LINE
8
0
10
1.581
20
14.701
11
14.701
21
6.598
0
0
LINE
8
0
10
14.701
20
6.692
11
1.733
21
14.701
0
0
LINE
8
0
10
1.885
20
14.701
11
14.701
21
6.786
0
0
LINE
8
0
10
14.701
20
6.880
11
2.037
21
14.701
0
0
LINE
8
0
10
2.190
20
14.701
11
14.701
21
6.974
0
0
LINE
8
0
10
14.701
20
7.068
11
2.342
21
14.701
0
0
LINE
8
0
10
2.494
20
14.701
11
14.701
21
7.162
0
0
LINE
8
0
10
14.701
20
7.256
11
2.646
21
14.701
0
0
LINE
8
0
10
2.799
20
14.701
11
14.701
21
7.350
0
0
LINE
8
0
10
14.701
20
7.444
11
2.951
21
14.701
0
0
LINE
8
0
10
3.103
20
14.701
11
14.701
21
7.538
0
0
LINE
8
0
10
14.701
20
7.632
11
3.255
21
14.701
0
0
LINE
8
0
10
3.408
20
14.701
11
14.701
21
7.726
0
0
LINE
8
0
10
14.701
20
7.820
11
3.560
21
14.701
0
0
LINE
8
0
10
3.712
20
14.701
11
14.701
21
7.914
0
0
LINE
8
0
10
14.701
20
8.008
11
3.864
21
14.701
0
0
LINE
8
0
10
4.017
20
14.701
11
14.701
21
8.102
0
0
LINE
8
0
10
14.701
20
8.196
11
4.169
21
14.701
0
0
LINE
8
0
10
4.321
20
14.701
11
14.701
21
8.290
0
0
LINE
8
0
10
14.701
20
8.384
11
4.473
21
14.701
0
0
LINE
8
0
10
4.626
20
14.701
11
14.701
21
8.478
0
0
LINE
8
0
10
14.701
20
8.572
11
4.778
21
14.701
0
0
LINE
8
0
10
4.930
20
14.701
11
14.701
21
8.666
0
0
LINE
8
0
10
14.701
20
8.760
11
5.082
21
14.701
0
0
LINE
8
0
10
5.234
20
14.701
11
14.701
21
8.854
0
0
LINE
8
0
10
14.701
20
8.948
11
5.387
21
14.701
0
0
LINE
8
0
10
5.539
20
14.701
11
14.701
21
9.042
0
0
LINE
8
0
10
14.701
20
9.136
11
5.691
21
14.701
0
0
LINE
8
0
10
5.843
20
14.701
11
14.701
21
9.230
0
0
LINE
8
0
10
14.701
20
9.325
11
5.996
21
14.701
0
0
LINE
8
0
10
6.148
20
14.701
11
14.701
21
9.419
0
0
LINE
8
0
10
14.701
20
9.513
11
6.300
21
14.701
0
0
LINE
8
0
10
6.452
20
14.701
11
14.701
21
9.607
0
0
LINE
8
0
10
14.701
20
9.701
11
6.605
21
14.701
0
0
LINE
8
0
10
6.757
20
14.701
11
14.701
21
9.795
0
0
LINE
8
0
10
14.701
20
9.889
11
6.909
21
14.701
0
0
LINE
8
0
10
7.061
20
14.701
11
14.701
21
9.983
0
0
LINE
8
0
10
14.701
20
10.077
11
7.214
21
14.701
0
0
LINE
8
0
10
7.366
20
14.701
11
14.701
21
10.171
0
0
LINE
8
0
10
14.701
20
10.265
11
7.518
21
14.701
0
0
LINE
8
0
10
7.670
20
14.701
11
14.701
21
10.359
0
0
LINE
8
0
10
14.701
20
10.453
11
7.823
21
14.701
0
0
LINE
8
0
10
7.975
20
14.701
11
14.701
21
10.547
0
0
LINE
8
0
10
14.701
20
10.641
11
8.127
21
14.701
0
0
LINE
8
0
10
8.279
20
14.701
11
14.701
21
10.735
0
0
LINE
8
0
10
14.701
20
10.829
11
8.432
21
14.701
0
0
LINE
8
0
10
8.584
20
14.701
11
14.701
21
10.923
0
0
LINE
8
0
10
14.701
20
11.017
11
8.736
21
14.701
0
0
LINE
8
0
10
8.888
20
14.701
11
14.701
21
11.111
0
0
LINE
8
0
10
14.701
20
11.205
11
9.041
21
14.701
0
0
LINE
8
0
10
9.193
20
14.701
11
14.701
21
11.299
0
0
LINE
8
0
10
14.701
20
11.393
11
9.345
21
14.701
0
0
LINE
8
0
10
9.497
20
14.701
11
14.701
21
11.487
0
0
LINE
8
0
10
14.701
20
11.581
11
9.650
21
14.701
0
0
LINE
8
0
10
9.802
20
14.701
11
14.701
21
11.675
0
0
LINE
8
0
10
14.701
20
11.769
11
9.954
21
14.701
0
0
LINE
8
0
10
10.106
20
14.701
11
14.701
21
11.863
0
0
LINE
8
0
10
14.701
20
11.957
11
10.259
21
14.701
0
0
LINE
8
0
10
10.411
20
14.701
11
14.701
21
12.051
0
0
LINE
8
0
10
14.701
20
12.145
11
10.563
21
14.701
0
0
LINE
8
0
10
10.715
20
14.701
11
14.701
21
12.239
0
0
LINE
8
0
10
14.701
20
12.333
11
10.868
21
14.701
0
0
LINE
8
0
10
11.020
20
14.701
11
14.701
21
12.427
0
0
LINE
8
0
10
14.701
20
12.521
11
11.172
21
14.701
0
0
LINE
8
0
10
11.324
20
14.701
11
14.701
21
12.615
0
0
LINE
8
0
10
14.701
20
12.710
11
11.477
21
14.701
0
0
LINE
8
0
10
11.629
20
14.701
11
14.701
21
12.804
0
0
LINE
8
0
10
14.701
20
12.898
11
11.781
21
14.701
0
0
LINE
8
0
10
11.933
20
14.701
11
14.701
21
12.992
0
0
LINE
8
0
10
14.701
20
13.086
11
12.085
21
14.701
0
0
LINE
8
0
10
12.238
20
14.701
11
14.701
21
13.180
0
0
LINE
8
0
10
14.701
20
13.274
11
12.390
21
14.701
0
0
LINE
8
0
10
12.542
20
14.701
11
14.701
21
13.368
0
0
LINE
8
0
10
14.701
20
13.462
11
12.694
21
14.701
0
0
LINE
8
0
10
12.847
20
14.701
11
14.701
21
13.556
0
0
LINE
8
0
10
14.701
20
13.650
11
12.999
21
14.701
0
0
LINE
8
0
10
13.151
20
14.701
11
14.701
21
13.744
0
0
LINE
8
0
10
14.701
20
13.838
11
13.303
21
14.701
0
0
LINE
8
0
10
13.456
20
14.701
11
14.701
21
13.932
0
0
LINE
8
0
10
14.701
20
14.026
11
13.608
21
14.701
0
0
LINE
8
0
10
13.760
20
14.701
11
14.701
21
14.120
0
0
LINE
8
0
10
14.701
20
14.214
11
13.912
21
14.701
0
0
LINE
8
0
10
14.065
20
14.701
11
14.701
21
14.308
0
0
LINE
8
0
10
14.701
20
14.402
11
14.217
21
14.701
0
0
LINE
8
0
10
14.369
20
14.701
11
14.701
21
14.496
0
0
LINE
8
0
10
14.701
20
14.590
11
14.521
21
14.701
0
0
LINE
8
0
10
14.674
20
14.701
11
14.701
21
14.684
0
0
ENDSEC
0
EOF
