0
SECTION
2
ENTITIES
0
LINE
8
0
10
2.372
20
0.433
11
4.419
21
0.495
0
0
LINE
8
0
10
2.372
20
0.433
11
4.419
21
0.495
0
0
LINE
8
0
10
4.665
20
0.503
11
6.918
21
0.574
0
0
LINE
8
0
10
7.163
20
0.582
11
9.417
21
0.531
0
0
LINE
8
0
10
9.663
20
0.525
11
11.916
21
0.471
0
0
LINE
8
0
10
12.162
20
0.465
11
12.954
21
0.446
0
0
LINE
8
0
10
12.954
20
0.446
11
13.001
21
0.451
0
0
LINE
8
0
10
13.001
20
0.451
11
13.814
21
0.556
0
0
LINE
8
0
10
13.814
20
0.556
11
14.338
21
0.819
0
0
LINE
8
0
10
14.338
20
0.819
11
13.001
21
0.451
0
0
LINE
8
0
10
14.493
20
1.009
11
14.751
21
2.275
0
0
LINE
8
0
10
14.751
20
2.275
11
14.717
21
3.225
0
0
LINE
8
0
10
14.717
20
3.225
11
14.493
21
1.009
0
0
LINE
8
0
10
14.708
20
3.470
11
14.629
21
5.723
0
0
LINE
8
0
10
14.626
20
5.969
11
14.626
21
8.223
0
0
LINE
8
0
10
14.626
20
8.469
11
14.626
21
10.723
0
0
LINE
8
0
10
14.626
20
10.969
11
14.626
21
13.223
0
0
LINE
8
0
10
14.626
20
13.469
11
14.575
21
14.612
0
0
LINE
8
0
10
14.575
20
14.612
11
13.541
21
14.636
0
0
LINE
8
0
10
13.541
20
14.636
11
14.626
21
13.469
0
0
LINE
8
0
10
13.295
20
14.636
11
11.041
21
14.632
0
0
LINE
8
0
10
10.795
20
14.632
11
8.541
21
14.629
0
0
LINE
8
0
10
8.295
20
14.629
11
6.056
21
14.625
0
0
LINE
8
0
10
6.056
20
14.625
11
6.041
21
14.625
0
0
LINE
8
0
10
5.795
20
14.630
11
3.542
21
14.709
0
0
LINE
8
0
10
3.297
20
14.717
11
1.752
21
14.717
0
0
LINE
8
0
10
1.752
20
14.717
11
1.076
21
14.527
0
0
LINE
8
0
10
1.076
20
14.527
11
3.297
21
14.717
0
0
LINE
8
0
10
0.876
20
14.387
11
0.544
21
13.777
0
0
LINE
8
0
10
0.544
20
13.777
11
0.449
21
12.238
0
0
LINE
8
0
10
0.449
20
12.238
11
0.876
21
14.387
0
0
LINE
8
0
10
0.456
20
11.992
11
0.525
21
9.739
0
0
LINE
8
0
10
0.533
20
9.493
11
0.568
21
7.240
0
0
LINE
8
0
10
0.561
20
6.994
11
0.505
21
4.741
0
0
LINE
8
0
10
0.498
20
4.495
11
0.443
21
2.242
0
0
LINE
8
0
10
0.468
20
1.998
11
0.807
21
0.857
0
0
LINE
8
0
10
0.807
20
0.857
11
1.265
21
0.582
0
0
LINE
8
0
10
1.265
20
0.582
11
1.921
21
0.456
0
0
LINE
8
0
10
1.921
20
0.456
11
0.468
21
1.998
0
0
LINE
8
0
10
2.166
20
0.442
11
2.204
21
0.441
0
0
LINE
8
0
10
2.204
20
0.441
11
2.372
21
0.433
0
0
LINE
8
0
10
2.593
20
0.437
11
2.593
21
1.228
0
0
LINE
8
0
10
2.593
20
0.437
11
2.593
21
1.228
0
0
LINE
8
0
10
2.593
20
1.228
11
2.593
21
1.437
0
0
LINE
8
0
10
2.593
20
1.855
11
2.593
21
1.892
0
0
LINE
8
0
10
2.593
20
1.892
11
2.593
21
1.898
0
0
LINE
8
0
10
2.593
20
1.898
11
2.593
21
3.284
0
0
LINE
8
0
10
2.593
20
3.284
11
2.593
21
3.329
0
0
LINE
8
0
10
2.593
20
4.355
11
2.593
21
4.408
0
0
LINE
8
0
10
2.593
20
4.408
11
2.593
21
4.415
0
0
LINE
8
0
10
2.593
20
4.415
11
2.593
21
5.769
0
0
LINE
8
0
10
2.593
20
5.769
11
2.593
21
5.776
0
0
LINE
8
0
10
2.593
20
5.776
11
2.593
21
5.829
0
0
LINE
8
0
10
2.593
20
6.855
11
2.593
21
6.900
0
0
LINE
8
0
10
2.593
20
6.900
11
2.593
21
8.286
0
0
LINE
8
0
10
2.593
20
8.286
11
2.593
21
8.290
0
0
LINE
8
0
10
2.593
20
8.290
11
2.593
21
8.292
0
0
LINE
8
0
10
2.593
20
8.292
11
2.593
21
8.329
0
0
LINE
8
0
10
2.593
20
9.355
11
2.593
21
9.392
0
0
LINE
8
0
10
2.593
20
9.392
11
2.593
21
10.778
0
0
LINE
8
0
10
2.593
20
10.778
11
2.593
21
10.829
0
0
LINE
8
0
10
2.593
20
11.855
11
2.593
21
11.878
0
0
LINE
8
0
10
2.593
20
11.878
11
2.593
21
11.907
0
0
LINE
8
0
10
2.593
20
11.907
11
2.593
21
13.294
0
0
LINE
8
0
10
2.593
20
13.294
11
2.593
21
13.329
0
0
LINE
8
0
10
2.593
20
13.742
11
2.593
21
13.949
0
0
LINE
8
0
10
2.593
20
13.949
11
2.593
21
14.742
0
0
LINE
8
0
10
5.093
20
0.516
11
5.093
21
1.290
0
0
LINE
8
0
10
5.093
20
0.516
11
5.093
21
1.290
0
0
LINE
8
0
10
5.093
20
1.290
11
5.093
21
1.516
0
0
LINE
8
0
10
5.093
20
1.855
11
5.093
21
1.893
0
0
LINE
8
0
10
5.093
20
1.893
11
5.093
21
1.899
0
0
LINE
8
0
10
5.093
20
1.899
11
5.093
21
3.286
0
0
LINE
8
0
10
5.093
20
3.286
11
5.093
21
3.329
0
0
LINE
8
0
10
5.093
20
4.355
11
5.093
21
4.410
0
0
LINE
8
0
10
5.093
20
4.410
11
5.093
21
4.415
0
0
LINE
8
0
10
5.093
20
4.415
11
5.093
21
5.769
0
0
LINE
8
0
10
5.093
20
5.769
11
5.093
21
5.778
0
0
LINE
8
0
10
5.093
20
5.778
11
5.093
21
5.829
0
0
LINE
8
0
10
5.093
20
6.855
11
5.093
21
6.901
0
0
LINE
8
0
10
5.093
20
6.901
11
5.093
21
8.288
0
0
LINE
8
0
10
5.093
20
8.288
11
5.093
21
8.290
0
0
LINE
8
0
10
5.093
20
8.290
11
5.093
21
8.294
0
0
LINE
8
0
10
5.093
20
8.294
11
5.093
21
8.329
0
0
LINE
8
0
10
5.093
20
9.355
11
5.093
21
9.388
0
0
LINE
8
0
10
5.093
20
9.388
11
5.093
21
9.393
0
0
LINE
8
0
10
5.093
20
9.393
11
5.093
21
10.780
0
0
LINE
8
0
10
5.093
20
10.780
11
5.093
21
10.829
0
0
LINE
8
0
10
5.093
20
11.855
11
5.093
21
11.880
0
0
LINE
8
0
10
5.093
20
11.880
11
5.093
21
11.909
0
0
LINE
8
0
10
5.093
20
11.909
11
5.093
21
13.295
0
0
LINE
8
0
10
5.093
20
13.295
11
5.093
21
13.329
0
0
LINE
8
0
10
5.093
20
13.655
11
5.093
21
13.826
0
0
LINE
8
0
10
5.093
20
13.826
11
5.093
21
14.655
0
0
LINE
8
0
10
7.593
20
0.574
11
7.593
21
1.424
0
0
LINE
8
0
10
7.593
20
0.574
11
7.593
21
1.424
0
0
LINE
8
0
10
7.593
20
1.424
11
7.593
21
1.575
0
0
LINE
8
0
10
7.593
20
1.855
11
7.593
21
1.894
0
0
LINE
8
0
10
7.593
20
1.894
11
7.593
21
1.900
0
0
LINE
8
0
10
7.593
20
1.900
11
7.593
21
3.287
0
0
LINE
8
0
10
7.593
20
3.287
11
7.593
21
3.329
0
0
LINE
8
0
10
7.593
20
4.355
11
7.593
21
4.412
0
0
LINE
8
0
10
7.593
20
4.412
11
7.593
21
4.415
0
0
LINE
8
0
10
7.593
20
4.415
11
7.593
21
5.769
0
0
LINE
8
0
10
7.593
20
5.769
11
7.593
21
5.780
0
0
LINE
8
0
10
7.593
20
5.780
11
7.593
21
5.829
0
0
LINE
8
0
10
7.593
20
6.855
11
7.593
21
6.902
0
0
LINE
8
0
10
7.593
20
6.902
11
7.593
21
8.289
0
0
LINE
8
0
10
7.593
20
8.289
11
7.593
21
8.290
0
0
LINE
8
0
10
7.593
20
8.290
11
7.593
21
8.295
0
0
LINE
8
0
10
7.593
20
8.295
11
7.593
21
8.329
0
0
LINE
8
0
10
7.593
20
9.355
11
7.593
21
9.389
0
0
LINE
8
0
10
7.593
20
9.389
11
7.593
21
9.394
0
0
LINE
8
0
10
7.593
20
9.394
11
7.593
21
10.781
0
0
LINE
8
0
10
7.593
20
10.781
11
7.593
21
10.829
0
0
LINE
8
0
10
7.593
20
11.855
11
7.593
21
11.903
0
0
LINE
8
0
10
7.593
20
11.903
11
7.593
21
11.915
0
0
LINE
8
0
10
7.593
20
11.915
11
7.593
21
13.269
0
0
LINE
8
0
10
7.593
20
13.269
11
7.593
21
13.270
0
0
LINE
8
0
10
7.593
20
13.270
11
7.593
21
13.329
0
0
LINE
8
0
10
7.593
20
13.628
11
7.593
21
13.827
0
0
LINE
8
0
10
7.593
20
13.827
11
7.593
21
14.628
0
0
LINE
8
0
10
10.093
20
0.515
11
10.093
21
1.338
0
0
LINE
8
0
10
10.093
20
0.515
11
10.093
21
1.338
0
0
LINE
8
0
10
10.093
20
1.338
11
10.093
21
1.515
0
0
LINE
8
0
10
10.093
20
1.855
11
10.093
21
1.893
0
0
LINE
8
0
10
10.093
20
1.893
11
10.093
21
1.899
0
0
LINE
8
0
10
10.093
20
1.899
11
10.093
21
3.286
0
0
LINE
8
0
10
10.093
20
3.286
11
10.093
21
3.329
0
0
LINE
8
0
10
10.093
20
4.355
11
10.093
21
4.410
0
0
LINE
8
0
10
10.093
20
4.410
11
10.093
21
4.415
0
0
LINE
8
0
10
10.093
20
4.415
11
10.093
21
5.769
0
0
LINE
8
0
10
10.093
20
5.769
11
10.093
21
5.778
0
0
LINE
8
0
10
10.093
20
5.778
11
10.093
21
5.829
0
0
LINE
8
0
10
10.093
20
6.855
11
10.093
21
6.901
0
0
LINE
8
0
10
10.093
20
6.901
11
10.093
21
8.288
0
0
LINE
8
0
10
10.093
20
8.288
11
10.093
21
8.290
0
0
LINE
8
0
10
10.093
20
8.290
11
10.093
21
8.294
0
0
LINE
8
0
10
10.093
20
8.294
11
10.093
21
8.329
0
0
LINE
8
0
10
10.093
20
9.355
11
10.093
21
9.388
0
0
LINE
8
0
10
10.093
20
9.388
11
10.093
21
9.393
0
0
LINE
8
0
10
10.093
20
9.393
11
10.093
21
10.780
0
0
LINE
8
0
10
10.093
20
10.780
11
10.093
21
10.829
0
0
LINE
8
0
10
10.093
20
11.855
11
10.093
21
11.880
0
0
LINE
8
0
10
10.093
20
11.880
11
10.093
21
11.909
0
0
LINE
8
0
10
10.093
20
11.909
11
10.093
21
13.295
0
0
LINE
8
0
10
10.093
20
13.295
11
10.093
21
13.329
0
0
LINE
8
0
10
10.093
20
13.631
11
10.093
21
13.791
0
0
LINE
8
0
10
10.093
20
13.791
11
10.093
21
14.631
0
0
LINE
8
0
10
12.593
20
0.455
11
12.593
21
1.253
0
0
LINE
8
0
10
12.593
20
0.455
11
12.593
21
1.253
0
0
LINE
8
0
10
12.593
20
1.253
11
12.593
21
1.455
0
0
LINE
8
0
10
12.593
20
1.855
11
12.593
21
1.892
0
0
LINE
8
0
10
12.593
20
1.892
11
12.593
21
1.898
0
0
LINE
8
0
10
12.593
20
1.898
11
12.593
21
3.285
0
0
LINE
8
0
10
12.593
20
3.285
11
12.593
21
3.329
0
0
LINE
8
0
10
12.593
20
4.355
11
12.593
21
4.409
0
0
LINE
8
0
10
12.593
20
4.409
11
12.593
21
4.415
0
0
LINE
8
0
10
12.593
20
4.415
11
12.593
21
5.769
0
0
LINE
8
0
10
12.593
20
5.769
11
12.593
21
5.776
0
0
LINE
8
0
10
12.593
20
5.776
11
12.593
21
5.829
0
0
LINE
8
0
10
12.593
20
6.855
11
12.593
21
6.900
0
0
LINE
8
0
10
12.593
20
6.900
11
12.593
21
8.287
0
0
LINE
8
0
10
12.593
20
8.287
11
12.593
21
8.290
0
0
LINE
8
0
10
12.593
20
8.290
11
12.593
21
8.292
0
0
LINE
8
0
10
12.593
20
8.292
11
12.593
21
8.329
0
0
LINE
8
0
10
12.593
20
9.355
11
12.593
21
9.392
0
0
LINE
8
0
10
12.593
20
9.392
11
12.593
21
10.779
0
0
LINE
8
0
10
12.593
20
10.779
11
12.593
21
10.829
0
0
LINE
8
0
10
12.593
20
11.855
11
12.593
21
11.879
0
0
LINE
8
0
10
12.593
20
11.879
11
12.593
21
11.908
0
0
LINE
8
0
10
12.593
20
11.908
11
12.593
21
13.294
0
0
LINE
8
0
10
12.593
20
13.294
11
12.593
21
13.329
0
0
LINE
8
0
10
12.593
20
13.635
11
12.593
21
13.797
0
0
LINE
8
0
10
12.593
20
13.797
11
12.593
21
14.635
0
0
LINE
8
0
10
0.450
20
2.592
11
1.181
21
2.592
0
0
LINE
8
0
10
0.450
20
2.592
11
1.181
21
2.592
0
0
LINE
8
0
10
1.181
20
2.592
11
1.451
21
2.592
0
0
LINE
8
0
10
1.856
20
2.592
11
1.891
21
2.592
0
0
LINE
8
0
10
1.891
20
2.592
11
3.278
21
2.592
0
0
LINE
8
0
10
3.278
20
2.592
11
3.307
21
2.592
0
0
LINE
8
0
10
3.307
20
2.592
11
3.330
21
2.592
0
0
LINE
8
0
10
4.356
20
2.592
11
4.406
21
2.592
0
0
LINE
8
0
10
4.406
20
2.592
11
5.793
21
2.592
0
0
LINE
8
0
10
5.793
20
2.592
11
5.830
21
2.592
0
0
LINE
8
0
10
6.856
20
2.592
11
6.893
21
2.592
0
0
LINE
8
0
10
6.893
20
2.592
11
6.899
21
2.592
0
0
LINE
8
0
10
6.899
20
2.592
11
8.285
21
2.592
0
0
LINE
8
0
10
8.285
20
2.592
11
8.330
21
2.592
0
0
LINE
8
0
10
9.356
20
2.592
11
9.409
21
2.592
0
0
LINE
8
0
10
9.409
20
2.592
11
9.416
21
2.592
0
0
LINE
8
0
10
9.416
20
2.592
11
10.770
21
2.592
0
0
LINE
8
0
10
10.770
20
2.592
11
10.777
21
2.592
0
0
LINE
8
0
10
10.777
20
2.592
11
10.830
21
2.592
0
0
LINE
8
0
10
11.856
20
2.592
11
11.901
21
2.592
0
0
LINE
8
0
10
11.901
20
2.592
11
13.287
21
2.592
0
0
LINE
8
0
10
13.287
20
2.592
11
13.293
21
2.592
0
0
LINE
8
0
10
13.293
20
2.592
11
13.330
21
2.592
0
0
LINE
8
0
10
13.739
20
2.592
11
13.945
21
2.592
0
0
LINE
8
0
10
13.945
20
2.592
11
14.739
21
2.592
0
0
LINE
8
0
10
0.513
20
5.092
11
1.246
21
5.092
0
0
LINE
8
0
10
0.513
20
5.092
11
1.246
21
5.092
0
0
LINE
8
0
10
1.246
20
5.092
11
1.514
21
5.092
0
0
LINE
8
0
10
1.856
20
5.092
11
1.916
21
5.092
0
0
LINE
8
0
10
1.916
20
5.092
11
3.270
21
5.092
0
0
LINE
8
0
10
3.270
20
5.092
11
3.271
21
5.092
0
0
LINE
8
0
10
3.271
20
5.092
11
3.330
21
5.092
0
0
LINE
8
0
10
4.356
20
5.092
11
4.405
21
5.092
0
0
LINE
8
0
10
4.405
20
5.092
11
5.791
21
5.092
0
0
LINE
8
0
10
5.791
20
5.092
11
5.797
21
5.092
0
0
LINE
8
0
10
5.797
20
5.092
11
5.830
21
5.092
0
0
LINE
8
0
10
6.856
20
5.092
11
6.891
21
5.092
0
0
LINE
8
0
10
6.891
20
5.092
11
6.897
21
5.092
0
0
LINE
8
0
10
6.897
20
5.092
11
8.284
21
5.092
0
0
LINE
8
0
10
8.284
20
5.092
11
8.330
21
5.092
0
0
LINE
8
0
10
9.356
20
5.092
11
9.406
21
5.092
0
0
LINE
8
0
10
9.406
20
5.092
11
9.416
21
5.092
0
0
LINE
8
0
10
9.416
20
5.092
11
10.770
21
5.092
0
0
LINE
8
0
10
10.770
20
5.092
11
10.774
21
5.092
0
0
LINE
8
0
10
10.774
20
5.092
11
10.830
21
5.092
0
0
LINE
8
0
10
11.856
20
5.092
11
11.899
21
5.092
0
0
LINE
8
0
10
11.899
20
5.092
11
13.286
21
5.092
0
0
LINE
8
0
10
13.286
20
5.092
11
13.291
21
5.092
0
0
LINE
8
0
10
13.291
20
5.092
11
13.330
21
5.092
0
0
LINE
8
0
10
13.651
20
5.092
11
13.820
21
5.092
0
0
LINE
8
0
10
13.820
20
5.092
11
14.651
21
5.092
0
0
LINE
8
0
10
0.576
20
7.592
11
1.351
21
7.592
0
0
LINE
8
0
10
0.576
20
7.592
11
1.351
21
7.592
0
0
LINE
8
0
10
1.351
20
7.592
11
1.577
21
7.592
0
0
LINE
8
0
10
1.856
20
7.592
11
1.915
21
7.592
0
0
LINE
8
0
10
1.915
20
7.592
11
1.916
21
7.592
0
0
LINE
8
0
10
1.916
20
7.592
11
3.270
21
7.592
0
0
LINE
8
0
10
3.270
20
7.592
11
3.276
21
7.592
0
0
LINE
8
0
10
3.276
20
7.592
11
3.330
21
7.592
0
0
LINE
8
0
10
4.356
20
7.592
11
4.404
21
7.592
0
0
LINE
8
0
10
4.404
20
7.592
11
5.791
21
7.592
0
0
LINE
8
0
10
5.791
20
7.592
11
5.797
21
7.592
0
0
LINE
8
0
10
5.797
20
7.592
11
5.830
21
7.592
0
0
LINE
8
0
10
6.856
20
7.592
11
6.891
21
7.592
0
0
LINE
8
0
10
6.891
20
7.592
11
6.896
21
7.592
0
0
LINE
8
0
10
6.896
20
7.592
11
8.283
21
7.592
0
0
LINE
8
0
10
8.283
20
7.592
11
8.330
21
7.592
0
0
LINE
8
0
10
9.356
20
7.592
11
9.406
21
7.592
0
0
LINE
8
0
10
9.406
20
7.592
11
9.416
21
7.592
0
0
LINE
8
0
10
9.416
20
7.592
11
10.770
21
7.592
0
0
LINE
8
0
10
10.770
20
7.592
11
10.773
21
7.592
0
0
LINE
8
0
10
10.773
20
7.592
11
10.830
21
7.592
0
0
LINE
8
0
10
11.856
20
7.592
11
11.898
21
7.592
0
0
LINE
8
0
10
11.898
20
7.592
11
13.285
21
7.592
0
0
LINE
8
0
10
13.285
20
7.592
11
13.291
21
7.592
0
0
LINE
8
0
10
13.291
20
7.592
11
13.330
21
7.592
0
0
LINE
8
0
10
13.626
20
7.592
11
13.784
21
7.592
0
0
LINE
8
0
10
13.784
20
7.592
11
14.626
21
7.592
0
0
LINE
8
0
10
0.514
20
10.092
11
1.336
21
10.092
0
0
LINE
8
0
10
0.514
20
10.092
11
1.336
21
10.092
0
0
LINE
8
0
10
1.336
20
10.092
11
1.514
21
10.092
0
0
LINE
8
0
10
1.856
20
10.092
11
1.915
21
10.092
0
0
LINE
8
0
10
1.915
20
10.092
11
1.916
21
10.092
0
0
LINE
8
0
10
1.916
20
10.092
11
3.270
21
10.092
0
0
LINE
8
0
10
3.270
20
10.092
11
3.276
21
10.092
0
0
LINE
8
0
10
3.276
20
10.092
11
3.330
21
10.092
0
0
LINE
8
0
10
4.356
20
10.092
11
4.404
21
10.092
0
0
LINE
8
0
10
4.404
20
10.092
11
5.791
21
10.092
0
0
LINE
8
0
10
5.791
20
10.092
11
5.797
21
10.092
0
0
LINE
8
0
10
5.797
20
10.092
11
5.830
21
10.092
0
0
LINE
8
0
10
6.856
20
10.092
11
6.891
21
10.092
0
0
LINE
8
0
10
6.891
20
10.092
11
6.896
21
10.092
0
0
LINE
8
0
10
6.896
20
10.092
11
8.283
21
10.092
0
0
LINE
8
0
10
8.283
20
10.092
11
8.330
21
10.092
0
0
LINE
8
0
10
9.356
20
10.092
11
9.406
21
10.092
0
0
LINE
8
0
10
9.406
20
10.092
11
9.416
21
10.092
0
0
LINE
8
0
10
9.416
20
10.092
11
10.770
21
10.092
0
0
LINE
8
0
10
10.770
20
10.092
11
10.773
21
10.092
0
0
LINE
8
0
10
10.773
20
10.092
11
10.830
21
10.092
0
0
LINE
8
0
10
11.856
20
10.092
11
11.898
21
10.092
0
0
LINE
8
0
10
11.898
20
10.092
11
13.285
21
10.092
0
0
LINE
8
0
10
13.285
20
10.092
11
13.291
21
10.092
0
0
LINE
8
0
10
13.291
20
10.092
11
13.330
21
10.092
0
0
LINE
8
0
10
13.626
20
10.092
11
13.823
21
10.092
0
0
LINE
8
0
10
13.823
20
10.092
11
14.626
21
10.092
0
0
LINE
8
0
10
0.438
20
12.592
11
1.229
21
12.592
0
0
LINE
8
0
10
0.438
20
12.592
11
1.229
21
12.592
0
0
LINE
8
0
10
1.229
20
12.592
11
1.438
21
12.592
0
0
LINE
8
0
10
1.856
20
12.592
11
1.915
21
12.592
0
0
LINE
8
0
10
1.915
20
12.592
11
1.916
21
12.592
0
0
LINE
8
0
10
1.916
20
12.592
11
3.270
21
12.592
0
0
LINE
8
0
10
3.270
20
12.592
11
3.276
21
12.592
0
0
LINE
8
0
10
3.276
20
12.592
11
3.330
21
12.592
0
0
LINE
8
0
10
4.356
20
12.592
11
4.404
21
12.592
0
0
LINE
8
0
10
4.404
20
12.592
11
5.791
21
12.592
0
0
LINE
8
0
10
5.791
20
12.592
11
5.797
21
12.592
0
0
LINE
8
0
10
5.797
20
12.592
11
5.830
21
12.592
0
0
LINE
8
0
10
6.856
20
12.592
11
6.891
21
12.592
0
0
LINE
8
0
10
6.891
20
12.592
11
6.896
21
12.592
0
0
LINE
8
0
10
6.896
20
12.592
11
8.283
21
12.592
0
0
LINE
8
0
10
8.283
20
12.592
11
8.330
21
12.592
0
0
LINE
8
0
10
9.356
20
12.592
11
9.406
21
12.592
0
0
LINE
8
0
10
9.406
20
12.592
11
9.416
21
12.592
0
0
LINE
8
0
10
9.416
20
12.592
11
10.770
21
12.592
0
0
LINE
8
0
10
10.770
20
12.592
11
10.773
21
12.592
0
0
LINE
8
0
10
10.773
20
12.592
11
10.830
21
12.592
0
0
LINE
8
0
10
11.856
20
12.592
11
11.898
21
12.592
0
0
LINE
8
0
10
11.898
20
12.592
11
13.285
21
12.592
0
0
LINE
8
0
10
13.285
20
12.592
11
13.291
21
12.592
0
0
LINE
8
0
10
13.291
20
12.592
11
13.330
21
12.592
0
0
LINE
8
0
10
13.626
20
12.592
11
13.784
21
12.592
0
0
LINE
8
0
10
13.784
20
12.592
11
14.626
21
12.592
0
0
ENDSEC
0
EOF
