0
SECTION
2
ENTITIES
0
LINE
8
0
10
2.400
20
0.432
11
4.479
21
0.497
0
0
LINE
8
0
10
2.400
20
0.432
11
4.479
21
0.497
0
0
LINE
8
0
10
4.605
20
0.501
11
6.978
21
0.576
0
0
LINE
8
0
10
7.103
20
0.580
11
9.477
21
0.529
0
0
LINE
8
0
10
9.603
20
0.526
11
11.976
21
0.469
0
0
LINE
8
0
10
12.102
20
0.466
11
12.984
21
0.447
0
0
LINE
8
0
10
12.984
20
0.447
11
13.061
21
0.454
0
0
LINE
8
0
10
13.061
20
0.454
11
13.790
21
0.550
0
0
LINE
8
0
10
13.790
20
0.550
11
14.377
21
0.864
0
0
LINE
8
0
10
14.377
20
0.864
11
13.061
21
0.454
0
0
LINE
8
0
10
14.457
20
0.961
11
14.751
21
2.275
0
0
LINE
8
0
10
14.751
20
2.275
11
14.715
21
3.285
0
0
LINE
8
0
10
14.715
20
3.285
11
14.457
21
0.961
0
0
LINE
8
0
10
14.710
20
3.410
11
14.628
21
5.783
0
0
LINE
8
0
10
14.626
20
5.909
11
14.626
21
8.283
0
0
LINE
8
0
10
14.626
20
8.409
11
14.626
21
10.783
0
0
LINE
8
0
10
14.626
20
10.909
11
14.626
21
13.283
0
0
LINE
8
0
10
14.626
20
13.409
11
14.530
21
14.626
0
0
LINE
8
0
10
14.530
20
14.626
11
13.481
21
14.636
0
0
LINE
8
0
10
13.481
20
14.636
11
14.626
21
13.409
0
0
LINE
8
0
10
13.355
20
14.636
11
10.981
21
14.632
0
0
LINE
8
0
10
10.855
20
14.632
11
8.481
21
14.629
0
0
LINE
8
0
10
8.355
20
14.629
11
6.077
21
14.625
0
0
LINE
8
0
10
6.077
20
14.625
11
5.981
21
14.626
0
0
LINE
8
0
10
5.855
20
14.628
11
3.482
21
14.711
0
0
LINE
8
0
10
3.356
20
14.715
11
1.704
21
14.713
0
0
LINE
8
0
10
1.704
20
14.713
11
1.025
21
14.496
0
0
LINE
8
0
10
1.025
20
14.496
11
3.356
21
14.715
0
0
LINE
8
0
10
0.922
20
14.424
11
0.546
21
13.796
0
0
LINE
8
0
10
0.546
20
13.796
11
0.450
21
12.178
0
0
LINE
8
0
10
0.450
20
12.178
11
0.922
21
14.424
0
0
LINE
8
0
10
0.454
20
12.052
11
0.527
21
9.679
0
0
LINE
8
0
10
0.531
20
9.553
11
0.566
21
7.180
0
0
LINE
8
0
10
0.563
20
7.054
11
0.503
21
4.681
0
0
LINE
8
0
10
0.500
20
4.555
11
0.448
21
2.182
0
0
LINE
8
0
10
0.461
20
2.057
11
0.807
21
0.857
0
0
LINE
8
0
10
0.807
20
0.857
11
1.262
21
0.584
0
0
LINE
8
0
10
1.262
20
0.584
11
1.980
21
0.453
0
0
LINE
8
0
10
1.980
20
0.453
11
0.461
21
2.057
0
0
LINE
8
0
10
2.106
20
0.446
11
2.330
21
0.435
0
0
LINE
8
0
10
2.330
20
0.435
11
2.400
21
0.432
0
0
LINE
8
0
10
2.593
20
0.437
11
2.593
21
1.000
0
0
LINE
8
0
10
2.593
20
0.437
11
2.593
21
1.000
0
0
LINE
8
0
10
2.593
20
1.000
11
2.593
21
1.131
0
0
LINE
8
0
10
2.593
20
1.131
11
2.593
21
1.787
0
0
LINE
8
0
10
2.593
20
1.787
11
2.593
21
2.096
0
0
LINE
8
0
10
2.593
20
2.096
11
2.593
21
2.276
0
0
LINE
8
0
10
2.593
20
2.276
11
2.593
21
2.842
0
0
LINE
8
0
10
2.593
20
2.842
11
2.593
21
3.340
0
0
LINE
8
0
10
2.593
20
3.340
11
2.593
21
3.917
0
0
LINE
8
0
10
2.593
20
3.917
11
2.593
21
4.032
0
0
LINE
8
0
10
2.593
20
4.032
11
2.593
21
4.884
0
0
LINE
8
0
10
2.593
20
4.884
11
2.593
21
4.943
0
0
LINE
8
0
10
2.593
20
4.943
11
2.593
21
4.955
0
0
LINE
8
0
10
2.593
20
4.955
11
2.593
21
4.994
0
0
LINE
8
0
10
2.593
20
4.994
11
2.593
21
5.035
0
0
LINE
8
0
10
2.593
20
5.035
11
2.593
21
5.040
0
0
LINE
8
0
10
2.593
20
5.040
11
2.593
21
5.134
0
0
LINE
8
0
10
2.593
20
5.134
11
2.593
21
5.186
0
0
LINE
8
0
10
2.593
20
5.186
11
2.593
21
5.224
0
0
LINE
8
0
10
2.593
20
5.224
11
2.593
21
5.271
0
0
LINE
8
0
10
2.593
20
5.271
11
2.593
21
5.294
0
0
LINE
8
0
10
2.593
20
5.294
11
2.593
21
5.297
0
0
LINE
8
0
10
2.593
20
5.297
11
2.593
21
6.148
0
0
LINE
8
0
10
2.593
20
6.148
11
2.593
21
6.263
0
0
LINE
8
0
10
2.593
20
6.263
11
2.593
21
6.840
0
0
LINE
8
0
10
2.593
20
6.840
11
2.593
21
7.336
0
0
LINE
8
0
10
2.593
20
7.336
11
2.593
21
7.902
0
0
LINE
8
0
10
2.593
20
7.902
11
2.593
21
8.021
0
0
LINE
8
0
10
2.593
20
8.021
11
2.593
21
8.082
0
0
LINE
8
0
10
2.593
20
8.082
11
2.593
21
8.494
0
0
LINE
8
0
10
2.593
20
8.494
11
2.593
21
9.071
0
0
LINE
8
0
10
2.593
20
9.071
11
2.593
21
9.186
0
0
LINE
8
0
10
2.593
20
9.186
11
2.593
21
9.596
0
0
LINE
8
0
10
2.593
20
9.596
11
2.593
21
10.162
0
0
LINE
8
0
10
2.593
20
10.162
11
2.593
21
10.725
0
0
LINE
8
0
10
2.593
20
10.725
11
2.593
21
11.302
0
0
LINE
8
0
10
2.593
20
11.302
11
2.593
21
11.417
0
0
LINE
8
0
10
2.593
20
11.417
11
2.593
21
11.676
0
0
LINE
8
0
10
2.593
20
11.676
11
2.593
21
12.576
0
0
LINE
8
0
10
2.593
20
12.576
11
2.593
21
13.142
0
0
LINE
8
0
10
2.593
20
13.142
11
2.593
21
13.432
0
0
LINE
8
0
10
2.593
20
13.432
11
2.593
21
13.564
0
0
LINE
8
0
10
2.593
20
13.564
11
2.593
21
14.182
0
0
LINE
8
0
10
2.593
20
14.182
11
2.593
21
14.742
0
0
LINE
8
0
10
5.093
20
0.516
11
5.093
21
0.780
0
0
LINE
8
0
10
5.093
20
0.516
11
5.093
21
0.780
0
0
LINE
8
0
10
5.093
20
0.780
11
5.093
21
1.183
0
0
LINE
8
0
10
5.093
20
1.183
11
5.093
21
1.896
0
0
LINE
8
0
10
5.093
20
1.896
11
5.093
21
2.144
0
0
LINE
8
0
10
5.093
20
2.144
11
5.093
21
2.324
0
0
LINE
8
0
10
5.093
20
2.324
11
5.093
21
2.889
0
0
LINE
8
0
10
5.093
20
2.889
11
5.093
21
3.371
0
0
LINE
8
0
10
5.093
20
3.371
11
5.093
21
3.947
0
0
LINE
8
0
10
5.093
20
3.947
11
5.093
21
4.063
0
0
LINE
8
0
10
5.093
20
4.063
11
5.093
21
4.904
0
0
LINE
8
0
10
5.093
20
4.904
11
5.093
21
4.942
0
0
LINE
8
0
10
5.093
20
4.942
11
5.093
21
4.976
0
0
LINE
8
0
10
5.093
20
4.976
11
5.093
21
5.022
0
0
LINE
8
0
10
5.093
20
5.022
11
5.093
21
5.034
0
0
LINE
8
0
10
5.093
20
5.034
11
5.093
21
5.073
0
0
LINE
8
0
10
5.093
20
5.073
11
5.093
21
5.114
0
0
LINE
8
0
10
5.093
20
5.114
11
5.093
21
5.119
0
0
LINE
8
0
10
5.093
20
5.119
11
5.093
21
5.213
0
0
LINE
8
0
10
5.093
20
5.213
11
5.093
21
5.265
0
0
LINE
8
0
10
5.093
20
5.265
11
5.093
21
5.303
0
0
LINE
8
0
10
5.093
20
5.303
11
5.093
21
5.312
0
0
LINE
8
0
10
5.093
20
5.312
11
5.093
21
6.178
0
0
LINE
8
0
10
5.093
20
6.178
11
5.093
21
6.294
0
0
LINE
8
0
10
5.093
20
6.294
11
5.093
21
6.870
0
0
LINE
8
0
10
5.093
20
6.870
11
5.093
21
7.384
0
0
LINE
8
0
10
5.093
20
7.384
11
5.093
21
7.949
0
0
LINE
8
0
10
5.093
20
7.949
11
5.093
21
8.021
0
0
LINE
8
0
10
5.093
20
8.021
11
5.093
21
8.129
0
0
LINE
8
0
10
5.093
20
8.129
11
5.093
21
8.525
0
0
LINE
8
0
10
5.093
20
8.525
11
5.093
21
9.101
0
0
LINE
8
0
10
5.093
20
9.101
11
5.093
21
9.464
0
0
LINE
8
0
10
5.093
20
9.464
11
5.093
21
9.644
0
0
LINE
8
0
10
5.093
20
9.644
11
5.093
21
10.209
0
0
LINE
8
0
10
5.093
20
10.209
11
5.093
21
10.756
0
0
LINE
8
0
10
5.093
20
10.756
11
5.093
21
11.332
0
0
LINE
8
0
10
5.093
20
11.332
11
5.093
21
11.447
0
0
LINE
8
0
10
5.093
20
11.447
11
5.093
21
11.724
0
0
LINE
8
0
10
5.093
20
11.724
11
5.093
21
12.624
0
0
LINE
8
0
10
5.093
20
12.624
11
5.093
21
13.189
0
0
LINE
8
0
10
5.093
20
13.189
11
5.093
21
13.396
0
0
LINE
8
0
10
5.093
20
13.396
11
5.093
21
13.540
0
0
LINE
8
0
10
5.093
20
13.540
11
5.093
21
14.136
0
0
LINE
8
0
10
5.093
20
14.136
11
5.093
21
14.655
0
0
LINE
8
0
10
7.593
20
0.574
11
7.593
21
1.075
0
0
LINE
8
0
10
7.593
20
0.574
11
7.593
21
1.075
0
0
LINE
8
0
10
7.593
20
1.075
11
7.593
21
1.075
0
0
LINE
8
0
10
7.593
20
1.075
11
7.593
21
1.225
0
0
LINE
8
0
10
7.593
20
1.225
11
7.593
21
1.975
0
0
LINE
8
0
10
7.593
20
1.975
11
7.593
21
2.179
0
0
LINE
8
0
10
7.593
20
2.179
11
7.593
21
2.359
0
0
LINE
8
0
10
7.593
20
2.359
11
7.593
21
2.925
0
0
LINE
8
0
10
7.593
20
2.925
11
7.593
21
3.394
0
0
LINE
8
0
10
7.593
20
3.394
11
7.593
21
3.970
0
0
LINE
8
0
10
7.593
20
3.970
11
7.593
21
4.085
0
0
LINE
8
0
10
7.593
20
4.085
11
7.593
21
4.922
0
0
LINE
8
0
10
7.593
20
4.922
11
7.593
21
4.960
0
0
LINE
8
0
10
7.593
20
4.960
11
7.593
21
5.001
0
0
LINE
8
0
10
7.593
20
5.001
11
7.593
21
5.023
0
0
LINE
8
0
10
7.593
20
5.023
11
7.593
21
5.068
0
0
LINE
8
0
10
7.593
20
5.068
11
7.593
21
5.106
0
0
LINE
8
0
10
7.593
20
5.106
11
7.593
21
5.158
0
0
LINE
8
0
10
7.593
20
5.158
11
7.593
21
5.173
0
0
LINE
8
0
10
7.593
20
5.173
11
7.593
21
5.178
0
0
LINE
8
0
10
7.593
20
5.178
11
7.593
21
5.272
0
0
LINE
8
0
10
7.593
20
5.272
11
7.593
21
5.297
0
0
LINE
8
0
10
7.593
20
5.297
11
7.593
21
5.317
0
0
LINE
8
0
10
7.593
20
5.317
11
7.593
21
6.201
0
0
LINE
8
0
10
7.593
20
6.201
11
7.593
21
6.316
0
0
LINE
8
0
10
7.593
20
6.316
11
7.593
21
6.893
0
0
LINE
8
0
10
7.593
20
6.893
11
7.593
21
7.419
0
0
LINE
8
0
10
7.593
20
7.419
11
7.593
21
7.985
0
0
LINE
8
0
10
7.593
20
7.985
11
7.593
21
8.021
0
0
LINE
8
0
10
7.593
20
8.021
11
7.593
21
8.165
0
0
LINE
8
0
10
7.593
20
8.165
11
7.593
21
8.547
0
0
LINE
8
0
10
7.593
20
8.547
11
7.593
21
9.124
0
0
LINE
8
0
10
7.593
20
9.124
11
7.593
21
9.499
0
0
LINE
8
0
10
7.593
20
9.499
11
7.593
21
9.679
0
0
LINE
8
0
10
7.593
20
9.679
11
7.593
21
10.245
0
0
LINE
8
0
10
7.593
20
10.245
11
7.593
21
10.778
0
0
LINE
8
0
10
7.593
20
10.778
11
7.593
21
11.355
0
0
LINE
8
0
10
7.593
20
11.355
11
7.593
21
11.470
0
0
LINE
8
0
10
7.593
20
11.470
11
7.593
21
12.364
0
0
LINE
8
0
10
7.593
20
12.364
11
7.593
21
12.378
0
0
LINE
8
0
10
7.593
20
12.378
11
7.593
21
12.472
0
0
LINE
8
0
10
7.593
20
12.472
11
7.593
21
12.523
0
0
LINE
8
0
10
7.593
20
12.523
11
7.593
21
12.586
0
0
LINE
8
0
10
7.593
20
12.586
11
7.593
21
12.608
0
0
LINE
8
0
10
7.593
20
12.608
11
7.593
21
12.620
0
0
LINE
8
0
10
7.593
20
12.620
11
7.593
21
12.642
0
0
LINE
8
0
10
7.593
20
12.642
11
7.593
21
12.663
0
0
LINE
8
0
10
7.593
20
12.663
11
7.593
21
12.684
0
0
LINE
8
0
10
7.593
20
12.684
11
7.593
21
12.713
0
0
LINE
8
0
10
7.593
20
12.713
11
7.593
21
12.732
0
0
LINE
8
0
10
7.593
20
12.732
11
7.593
21
12.750
0
0
LINE
8
0
10
7.593
20
12.750
11
7.593
21
13.405
0
0
LINE
8
0
10
7.593
20
13.405
11
7.593
21
13.553
0
0
LINE
8
0
10
7.593
20
13.553
11
7.593
21
14.342
0
0
LINE
8
0
10
7.593
20
14.342
11
7.593
21
14.628
0
0
LINE
8
0
10
10.093
20
0.515
11
10.093
21
1.040
0
0
LINE
8
0
10
10.093
20
0.515
11
10.093
21
1.040
0
0
LINE
8
0
10
10.093
20
1.040
11
10.093
21
1.183
0
0
LINE
8
0
10
10.093
20
1.183
11
10.093
21
1.895
0
0
LINE
8
0
10
10.093
20
1.895
11
10.093
21
2.143
0
0
LINE
8
0
10
10.093
20
2.143
11
10.093
21
2.323
0
0
LINE
8
0
10
10.093
20
2.323
11
10.093
21
2.889
0
0
LINE
8
0
10
10.093
20
2.889
11
10.093
21
3.370
0
0
LINE
8
0
10
10.093
20
3.370
11
10.093
21
3.947
0
0
LINE
8
0
10
10.093
20
3.947
11
10.093
21
4.062
0
0
LINE
8
0
10
10.093
20
4.062
11
10.093
21
4.904
0
0
LINE
8
0
10
10.093
20
4.904
11
10.093
21
4.963
0
0
LINE
8
0
10
10.093
20
4.963
11
10.093
21
4.975
0
0
LINE
8
0
10
10.093
20
4.975
11
10.093
21
4.997
0
0
LINE
8
0
10
10.093
20
4.997
11
10.093
21
5.033
0
0
LINE
8
0
10
10.093
20
5.033
11
10.093
21
5.046
0
0
LINE
8
0
10
10.093
20
5.046
11
10.093
21
5.098
0
0
LINE
8
0
10
10.093
20
5.098
11
10.093
21
5.112
0
0
LINE
8
0
10
10.093
20
5.112
11
10.093
21
5.118
0
0
LINE
8
0
10
10.093
20
5.118
11
10.093
21
5.212
0
0
LINE
8
0
10
10.093
20
5.212
11
10.093
21
5.250
0
0
LINE
8
0
10
10.093
20
5.250
11
10.093
21
5.311
0
0
LINE
8
0
10
10.093
20
5.311
11
10.093
21
6.178
0
0
LINE
8
0
10
10.093
20
6.178
11
10.093
21
6.293
0
0
LINE
8
0
10
10.093
20
6.293
11
10.093
21
6.870
0
0
LINE
8
0
10
10.093
20
6.870
11
10.093
21
7.383
0
0
LINE
8
0
10
10.093
20
7.383
11
10.093
21
7.949
0
0
LINE
8
0
10
10.093
20
7.949
11
10.093
21
8.021
0
0
LINE
8
0
10
10.093
20
8.021
11
10.093
21
8.129
0
0
LINE
8
0
10
10.093
20
8.129
11
10.093
21
8.524
0
0
LINE
8
0
10
10.093
20
8.524
11
10.093
21
9.101
0
0
LINE
8
0
10
10.093
20
9.101
11
10.093
21
9.463
0
0
LINE
8
0
10
10.093
20
9.463
11
10.093
21
9.643
0
0
LINE
8
0
10
10.093
20
9.643
11
10.093
21
10.209
0
0
LINE
8
0
10
10.093
20
10.209
11
10.093
21
10.755
0
0
LINE
8
0
10
10.093
20
10.755
11
10.093
21
11.332
0
0
LINE
8
0
10
10.093
20
11.332
11
10.093
21
11.447
0
0
LINE
8
0
10
10.093
20
11.447
11
10.093
21
11.723
0
0
LINE
8
0
10
10.093
20
11.723
11
10.093
21
12.623
0
0
LINE
8
0
10
10.093
20
12.623
11
10.093
21
13.189
0
0
LINE
8
0
10
10.093
20
13.189
11
10.093
21
13.378
0
0
LINE
8
0
10
10.093
20
13.378
11
10.093
21
13.525
0
0
LINE
8
0
10
10.093
20
13.525
11
10.093
21
14.122
0
0
LINE
8
0
10
10.093
20
14.122
11
10.093
21
14.631
0
0
LINE
8
0
10
12.593
20
0.455
11
12.593
21
1.009
0
0
LINE
8
0
10
12.593
20
0.455
11
12.593
21
1.009
0
0
LINE
8
0
10
12.593
20
1.009
11
12.593
21
1.143
0
0
LINE
8
0
10
12.593
20
1.143
11
12.593
21
1.812
0
0
LINE
8
0
10
12.593
20
1.812
11
12.593
21
2.107
0
0
LINE
8
0
10
12.593
20
2.107
11
12.593
21
2.287
0
0
LINE
8
0
10
12.593
20
2.287
11
12.593
21
2.853
0
0
LINE
8
0
10
12.593
20
2.853
11
12.593
21
3.347
0
0
LINE
8
0
10
12.593
20
3.347
11
12.593
21
3.924
0
0
LINE
8
0
10
12.593
20
3.924
11
12.593
21
4.039
0
0
LINE
8
0
10
12.593
20
4.039
11
12.593
21
4.888
0
0
LINE
8
0
10
12.593
20
4.888
11
12.593
21
4.903
0
0
LINE
8
0
10
12.593
20
4.903
11
12.593
21
4.915
0
0
LINE
8
0
10
12.593
20
4.915
11
12.593
21
4.937
0
0
LINE
8
0
10
12.593
20
4.937
11
12.593
21
4.973
0
0
LINE
8
0
10
12.593
20
4.973
11
12.593
21
4.986
0
0
LINE
8
0
10
12.593
20
4.986
11
12.593
21
5.038
0
0
LINE
8
0
10
12.593
20
5.038
11
12.593
21
5.053
0
0
LINE
8
0
10
12.593
20
5.053
11
12.593
21
5.058
0
0
LINE
8
0
10
12.593
20
5.058
11
12.593
21
5.152
0
0
LINE
8
0
10
12.593
20
5.152
11
12.593
21
5.190
0
0
LINE
8
0
10
12.593
20
5.190
11
12.593
21
5.254
0
0
LINE
8
0
10
12.593
20
5.254
11
12.593
21
5.300
0
0
LINE
8
0
10
12.593
20
5.300
11
12.593
21
6.155
0
0
LINE
8
0
10
12.593
20
6.155
11
12.593
21
6.270
0
0
LINE
8
0
10
12.593
20
6.270
11
12.593
21
6.847
0
0
LINE
8
0
10
12.593
20
6.847
11
12.593
21
7.347
0
0
LINE
8
0
10
12.593
20
7.347
11
12.593
21
7.913
0
0
LINE
8
0
10
12.593
20
7.913
11
12.593
21
8.021
0
0
LINE
8
0
10
12.593
20
8.021
11
12.593
21
8.093
0
0
LINE
8
0
10
12.593
20
8.093
11
12.593
21
8.501
0
0
LINE
8
0
10
12.593
20
8.501
11
12.593
21
9.078
0
0
LINE
8
0
10
12.593
20
9.078
11
12.593
21
9.193
0
0
LINE
8
0
10
12.593
20
9.193
11
12.593
21
9.607
0
0
LINE
8
0
10
12.593
20
9.607
11
12.593
21
10.173
0
0
LINE
8
0
10
12.593
20
10.173
11
12.593
21
10.732
0
0
LINE
8
0
10
12.593
20
10.732
11
12.593
21
11.309
0
0
LINE
8
0
10
12.593
20
11.309
11
12.593
21
11.424
0
0
LINE
8
0
10
12.593
20
11.424
11
12.593
21
11.687
0
0
LINE
8
0
10
12.593
20
11.687
11
12.593
21
12.587
0
0
LINE
8
0
10
12.593
20
12.587
11
12.593
21
13.153
0
0
LINE
8
0
10
12.593
20
13.153
11
12.593
21
13.351
0
0
LINE
8
0
10
12.593
20
13.351
11
12.593
21
13.498
0
0
LINE
8
0
10
12.593
20
13.498
11
12.593
21
14.124
0
0
LINE
8
0
10
12.593
20
14.124
11
12.593
21
14.635
0
0
LINE
8
0
10
0.450
20
2.592
11
0.663
21
2.592
0
0
LINE
8
0
10
0.450
20
2.592
11
0.663
21
2.592
0
0
LINE
8
0
10
0.663
20
2.592
11
1.623
21
2.592
0
0
LINE
8
0
10
1.623
20
2.592
11
1.756
21
2.592
0
0
LINE
8
0
10
1.756
20
2.592
11
2.038
21
2.592
0
0
LINE
8
0
10
2.038
20
2.592
11
2.603
21
2.592
0
0
LINE
8
0
10
2.603
20
2.592
11
3.503
21
2.592
0
0
LINE
8
0
10
3.503
20
2.592
11
3.765
21
2.592
0
0
LINE
8
0
10
3.765
20
2.592
11
3.880
21
2.592
0
0
LINE
8
0
10
3.880
20
2.592
11
4.456
21
2.592
0
0
LINE
8
0
10
4.456
20
2.592
11
5.018
21
2.592
0
0
LINE
8
0
10
5.018
20
2.592
11
5.583
21
2.592
0
0
LINE
8
0
10
5.583
20
2.592
11
5.996
21
2.592
0
0
LINE
8
0
10
5.996
20
2.592
11
6.111
21
2.592
0
0
LINE
8
0
10
6.111
20
2.592
11
6.687
21
2.592
0
0
LINE
8
0
10
6.687
20
2.592
11
7.098
21
2.592
0
0
LINE
8
0
10
7.098
20
2.592
11
7.278
21
2.592
0
0
LINE
8
0
10
7.278
20
2.592
11
7.843
21
2.592
0
0
LINE
8
0
10
7.843
20
2.592
11
8.342
21
2.592
0
0
LINE
8
0
10
8.342
20
2.592
11
8.918
21
2.592
0
0
LINE
8
0
10
8.918
20
2.592
11
9.034
21
2.592
0
0
LINE
8
0
10
9.034
20
2.592
11
9.885
21
2.592
0
0
LINE
8
0
10
9.885
20
2.592
11
9.940
21
2.592
0
0
LINE
8
0
10
9.940
20
2.592
11
10.004
21
2.592
0
0
LINE
8
0
10
10.004
20
2.592
11
10.042
21
2.592
0
0
LINE
8
0
10
10.042
20
2.592
11
10.136
21
2.592
0
0
LINE
8
0
10
10.136
20
2.592
11
10.142
21
2.592
0
0
LINE
8
0
10
10.142
20
2.592
11
10.156
21
2.592
0
0
LINE
8
0
10
10.156
20
2.592
11
10.208
21
2.592
0
0
LINE
8
0
10
10.208
20
2.592
11
10.221
21
2.592
0
0
LINE
8
0
10
10.221
20
2.592
11
10.257
21
2.592
0
0
LINE
8
0
10
10.257
20
2.592
11
10.279
21
2.592
0
0
LINE
8
0
10
10.279
20
2.592
11
10.291
21
2.592
0
0
LINE
8
0
10
10.291
20
2.592
11
10.297
21
2.592
0
0
LINE
8
0
10
10.297
20
2.592
11
11.149
21
2.592
0
0
LINE
8
0
10
11.149
20
2.592
11
11.265
21
2.592
0
0
LINE
8
0
10
11.265
20
2.592
11
11.841
21
2.592
0
0
LINE
8
0
10
11.841
20
2.592
11
12.338
21
2.592
0
0
LINE
8
0
10
12.338
20
2.592
11
12.903
21
2.592
0
0
LINE
8
0
10
12.903
20
2.592
11
13.083
21
2.592
0
0
LINE
8
0
10
13.083
20
2.592
11
13.385
21
2.592
0
0
LINE
8
0
10
13.385
20
2.592
11
14.048
21
2.592
0
0
LINE
8
0
10
14.048
20
2.592
11
14.181
21
2.592
0
0
LINE
8
0
10
14.181
20
2.592
11
14.739
21
2.592
0
0
LINE
8
0
10
0.513
20
5.092
11
0.645
21
5.092
0
0
LINE
8
0
10
0.513
20
5.092
11
0.645
21
5.092
0
0
LINE
8
0
10
0.645
20
5.092
11
0.774
21
5.092
0
0
LINE
8
0
10
0.774
20
5.092
11
1.626
21
5.092
0
0
LINE
8
0
10
1.626
20
5.092
11
1.768
21
5.092
0
0
LINE
8
0
10
1.768
20
5.092
11
2.449
21
5.092
0
0
LINE
8
0
10
2.449
20
5.092
11
2.460
21
5.092
0
0
LINE
8
0
10
2.460
20
5.092
11
2.845
21
5.092
0
0
LINE
8
0
10
2.845
20
5.092
11
3.731
21
5.092
0
0
LINE
8
0
10
3.731
20
5.092
11
3.846
21
5.092
0
0
LINE
8
0
10
3.846
20
5.092
11
4.423
21
5.092
0
0
LINE
8
0
10
4.423
20
5.092
11
4.965
21
5.092
0
0
LINE
8
0
10
4.965
20
5.092
11
5.531
21
5.092
0
0
LINE
8
0
10
5.531
20
5.092
11
5.711
21
5.092
0
0
LINE
8
0
10
5.711
20
5.092
11
6.077
21
5.092
0
0
LINE
8
0
10
6.077
20
5.092
11
6.654
21
5.092
0
0
LINE
8
0
10
6.654
20
5.092
11
7.045
21
5.092
0
0
LINE
8
0
10
7.045
20
5.092
11
7.225
21
5.092
0
0
LINE
8
0
10
7.225
20
5.092
11
7.791
21
5.092
0
0
LINE
8
0
10
7.791
20
5.092
11
8.308
21
5.092
0
0
LINE
8
0
10
8.308
20
5.092
11
8.885
21
5.092
0
0
LINE
8
0
10
8.885
20
5.092
11
9.000
21
5.092
0
0
LINE
8
0
10
9.000
20
5.092
11
9.870
21
5.092
0
0
LINE
8
0
10
9.870
20
5.092
11
9.916
21
5.092
0
0
LINE
8
0
10
9.916
20
5.092
11
9.954
21
5.092
0
0
LINE
8
0
10
9.954
20
5.092
11
10.048
21
5.092
0
0
LINE
8
0
10
10.048
20
5.092
11
10.053
21
5.092
0
0
LINE
8
0
10
10.053
20
5.092
11
10.068
21
5.092
0
0
LINE
8
0
10
10.068
20
5.092
11
10.120
21
5.092
0
0
LINE
8
0
10
10.120
20
5.092
11
10.133
21
5.092
0
0
LINE
8
0
10
10.133
20
5.092
11
10.169
21
5.092
0
0
LINE
8
0
10
10.169
20
5.092
11
10.191
21
5.092
0
0
LINE
8
0
10
10.191
20
5.092
11
10.203
21
5.092
0
0
LINE
8
0
10
10.203
20
5.092
11
10.225
21
5.092
0
0
LINE
8
0
10
10.225
20
5.092
11
10.266
21
5.092
0
0
LINE
8
0
10
10.266
20
5.092
11
10.275
21
5.092
0
0
LINE
8
0
10
10.275
20
5.092
11
11.115
21
5.092
0
0
LINE
8
0
10
11.115
20
5.092
11
11.231
21
5.092
0
0
LINE
8
0
10
11.231
20
5.092
11
11.807
21
5.092
0
0
LINE
8
0
10
11.807
20
5.092
11
12.285
21
5.092
0
0
LINE
8
0
10
12.285
20
5.092
11
12.851
21
5.092
0
0
LINE
8
0
10
12.851
20
5.092
11
13.031
21
5.092
0
0
LINE
8
0
10
13.031
20
5.092
11
13.265
21
5.092
0
0
LINE
8
0
10
13.265
20
5.092
11
13.989
21
5.092
0
0
LINE
8
0
10
13.989
20
5.092
11
14.134
21
5.092
0
0
LINE
8
0
10
14.134
20
5.092
11
14.651
21
5.092
0
0
LINE
8
0
10
0.576
20
7.592
11
0.750
21
7.592
0
0
LINE
8
0
10
0.576
20
7.592
11
0.750
21
7.592
0
0
LINE
8
0
10
0.750
20
7.592
11
0.871
21
7.592
0
0
LINE
8
0
10
0.871
20
7.592
11
1.652
21
7.592
0
0
LINE
8
0
10
1.652
20
7.592
11
1.802
21
7.592
0
0
LINE
8
0
10
1.802
20
7.592
11
2.440
21
7.592
0
0
LINE
8
0
10
2.440
20
7.592
11
2.478
21
7.592
0
0
LINE
8
0
10
2.478
20
7.592
11
2.488
21
7.592
0
0
LINE
8
0
10
2.488
20
7.592
11
2.497
21
7.592
0
0
LINE
8
0
10
2.497
20
7.592
11
2.507
21
7.592
0
0
LINE
8
0
10
2.507
20
7.592
11
2.538
21
7.592
0
0
LINE
8
0
10
2.538
20
7.592
11
2.548
21
7.592
0
0
LINE
8
0
10
2.548
20
7.592
11
2.559
21
7.592
0
0
LINE
8
0
10
2.559
20
7.592
11
2.832
21
7.592
0
0
LINE
8
0
10
2.832
20
7.592
11
3.721
21
7.592
0
0
LINE
8
0
10
3.721
20
7.592
11
3.836
21
7.592
0
0
LINE
8
0
10
3.836
20
7.592
11
4.413
21
7.592
0
0
LINE
8
0
10
4.413
20
7.592
11
4.950
21
7.592
0
0
LINE
8
0
10
4.950
20
7.592
11
5.516
21
7.592
0
0
LINE
8
0
10
5.516
20
7.592
11
5.696
21
7.592
0
0
LINE
8
0
10
5.696
20
7.592
11
6.067
21
7.592
0
0
LINE
8
0
10
6.067
20
7.592
11
6.077
21
7.592
0
0
LINE
8
0
10
6.077
20
7.592
11
6.644
21
7.592
0
0
LINE
8
0
10
6.644
20
7.592
11
7.030
21
7.592
0
0
LINE
8
0
10
7.030
20
7.592
11
7.210
21
7.592
0
0
LINE
8
0
10
7.210
20
7.592
11
7.776
21
7.592
0
0
LINE
8
0
10
7.776
20
7.592
11
8.298
21
7.592
0
0
LINE
8
0
10
8.298
20
7.592
11
8.875
21
7.592
0
0
LINE
8
0
10
8.875
20
7.592
11
8.990
21
7.592
0
0
LINE
8
0
10
8.990
20
7.592
11
9.867
21
7.592
0
0
LINE
8
0
10
9.867
20
7.592
11
9.877
21
7.592
0
0
LINE
8
0
10
9.877
20
7.592
11
9.929
21
7.592
0
0
LINE
8
0
10
9.929
20
7.592
11
10.023
21
7.592
0
0
LINE
8
0
10
10.023
20
7.592
11
10.028
21
7.592
0
0
LINE
8
0
10
10.028
20
7.592
11
10.056
21
7.592
0
0
LINE
8
0
10
10.056
20
7.592
11
10.095
21
7.592
0
0
LINE
8
0
10
10.095
20
7.592
11
10.108
21
7.592
0
0
LINE
8
0
10
10.108
20
7.592
11
10.144
21
7.592
0
0
LINE
8
0
10
10.144
20
7.592
11
10.166
21
7.592
0
0
LINE
8
0
10
10.166
20
7.592
11
10.178
21
7.592
0
0
LINE
8
0
10
10.178
20
7.592
11
10.200
21
7.592
0
0
LINE
8
0
10
10.200
20
7.592
11
10.241
21
7.592
0
0
LINE
8
0
10
10.241
20
7.592
11
10.261
21
7.592
0
0
LINE
8
0
10
10.261
20
7.592
11
10.267
21
7.592
0
0
LINE
8
0
10
10.267
20
7.592
11
11.106
21
7.592
0
0
LINE
8
0
10
11.106
20
7.592
11
11.221
21
7.592
0
0
LINE
8
0
10
11.221
20
7.592
11
11.798
21
7.592
0
0
LINE
8
0
10
11.798
20
7.592
11
12.270
21
7.592
0
0
LINE
8
0
10
12.270
20
7.592
11
12.836
21
7.592
0
0
LINE
8
0
10
12.836
20
7.592
11
13.016
21
7.592
0
0
LINE
8
0
10
13.016
20
7.592
11
13.231
21
7.592
0
0
LINE
8
0
10
13.231
20
7.592
11
13.971
21
7.592
0
0
LINE
8
0
10
13.971
20
7.592
11
14.119
21
7.592
0
0
LINE
8
0
10
14.119
20
7.592
11
14.626
21
7.592
0
0
LINE
8
0
10
0.514
20
10.092
11
1.040
21
10.092
0
0
LINE
8
0
10
0.514
20
10.092
11
1.040
21
10.092
0
0
LINE
8
0
10
1.040
20
10.092
11
1.614
21
10.092
0
0
LINE
8
0
10
1.614
20
10.092
11
1.757
21
10.092
0
0
LINE
8
0
10
1.757
20
10.092
11
2.440
21
10.092
0
0
LINE
8
0
10
2.440
20
10.092
11
2.478
21
10.092
0
0
LINE
8
0
10
2.478
20
10.092
11
2.488
21
10.092
0
0
LINE
8
0
10
2.488
20
10.092
11
2.497
21
10.092
0
0
LINE
8
0
10
2.497
20
10.092
11
2.507
21
10.092
0
0
LINE
8
0
10
2.507
20
10.092
11
2.538
21
10.092
0
0
LINE
8
0
10
2.538
20
10.092
11
2.548
21
10.092
0
0
LINE
8
0
10
2.548
20
10.092
11
2.559
21
10.092
0
0
LINE
8
0
10
2.559
20
10.092
11
2.832
21
10.092
0
0
LINE
8
0
10
2.832
20
10.092
11
3.721
21
10.092
0
0
LINE
8
0
10
3.721
20
10.092
11
3.836
21
10.092
0
0
LINE
8
0
10
3.836
20
10.092
11
4.413
21
10.092
0
0
LINE
8
0
10
4.413
20
10.092
11
4.950
21
10.092
0
0
LINE
8
0
10
4.950
20
10.092
11
5.516
21
10.092
0
0
LINE
8
0
10
5.516
20
10.092
11
5.696
21
10.092
0
0
LINE
8
0
10
5.696
20
10.092
11
6.067
21
10.092
0
0
LINE
8
0
10
6.067
20
10.092
11
6.070
21
10.092
0
0
LINE
8
0
10
6.070
20
10.092
11
6.644
21
10.092
0
0
LINE
8
0
10
6.644
20
10.092
11
7.030
21
10.092
0
0
LINE
8
0
10
7.030
20
10.092
11
7.210
21
10.092
0
0
LINE
8
0
10
7.210
20
10.092
11
7.776
21
10.092
0
0
LINE
8
0
10
7.776
20
10.092
11
8.298
21
10.092
0
0
LINE
8
0
10
8.298
20
10.092
11
8.875
21
10.092
0
0
LINE
8
0
10
8.875
20
10.092
11
8.990
21
10.092
0
0
LINE
8
0
10
8.990
20
10.092
11
9.867
21
10.092
0
0
LINE
8
0
10
9.867
20
10.092
11
9.877
21
10.092
0
0
LINE
8
0
10
9.877
20
10.092
11
9.929
21
10.092
0
0
LINE
8
0
10
9.929
20
10.092
11
10.023
21
10.092
0
0
LINE
8
0
10
10.023
20
10.092
11
10.028
21
10.092
0
0
LINE
8
0
10
10.028
20
10.092
11
10.056
21
10.092
0
0
LINE
8
0
10
10.056
20
10.092
11
10.095
21
10.092
0
0
LINE
8
0
10
10.095
20
10.092
11
10.108
21
10.092
0
0
LINE
8
0
10
10.108
20
10.092
11
10.144
21
10.092
0
0
LINE
8
0
10
10.144
20
10.092
11
10.166
21
10.092
0
0
LINE
8
0
10
10.166
20
10.092
11
10.178
21
10.092
0
0
LINE
8
0
10
10.178
20
10.092
11
10.200
21
10.092
0
0
LINE
8
0
10
10.200
20
10.092
11
10.241
21
10.092
0
0
LINE
8
0
10
10.241
20
10.092
11
10.261
21
10.092
0
0
LINE
8
0
10
10.261
20
10.092
11
10.267
21
10.092
0
0
LINE
8
0
10
10.267
20
10.092
11
11.106
21
10.092
0
0
LINE
8
0
10
11.106
20
10.092
11
11.221
21
10.092
0
0
LINE
8
0
10
11.221
20
10.092
11
11.798
21
10.092
0
0
LINE
8
0
10
11.798
20
10.092
11
12.270
21
10.092
0
0
LINE
8
0
10
12.270
20
10.092
11
12.836
21
10.092
0
0
LINE
8
0
10
12.836
20
10.092
11
13.016
21
10.092
0
0
LINE
8
0
10
13.016
20
10.092
11
13.231
21
10.092
0
0
LINE
8
0
10
13.231
20
10.092
11
13.971
21
10.092
0
0
LINE
8
0
10
13.971
20
10.092
11
14.338
21
10.092
0
0
LINE
8
0
10
14.338
20
10.092
11
14.626
21
10.092
0
0
LINE
8
0
10
0.438
20
12.592
11
1.001
21
12.592
0
0
LINE
8
0
10
0.438
20
12.592
11
1.001
21
12.592
0
0
LINE
8
0
10
1.001
20
12.592
11
1.564
21
12.592
0
0
LINE
8
0
10
1.564
20
12.592
11
1.695
21
12.592
0
0
LINE
8
0
10
1.695
20
12.592
11
2.440
21
12.592
0
0
LINE
8
0
10
2.440
20
12.592
11
2.442
21
12.592
0
0
LINE
8
0
10
2.442
20
12.592
11
2.451
21
12.592
0
0
LINE
8
0
10
2.451
20
12.592
11
2.478
21
12.592
0
0
LINE
8
0
10
2.478
20
12.592
11
2.488
21
12.592
0
0
LINE
8
0
10
2.488
20
12.592
11
2.497
21
12.592
0
0
LINE
8
0
10
2.497
20
12.592
11
2.507
21
12.592
0
0
LINE
8
0
10
2.507
20
12.592
11
2.538
21
12.592
0
0
LINE
8
0
10
2.538
20
12.592
11
2.548
21
12.592
0
0
LINE
8
0
10
2.548
20
12.592
11
2.559
21
12.592
0
0
LINE
8
0
10
2.559
20
12.592
11
2.832
21
12.592
0
0
LINE
8
0
10
2.832
20
12.592
11
3.721
21
12.592
0
0
LINE
8
0
10
3.721
20
12.592
11
3.836
21
12.592
0
0
LINE
8
0
10
3.836
20
12.592
11
4.413
21
12.592
0
0
LINE
8
0
10
4.413
20
12.592
11
4.950
21
12.592
0
0
LINE
8
0
10
4.950
20
12.592
11
5.516
21
12.592
0
0
LINE
8
0
10
5.516
20
12.592
11
5.696
21
12.592
0
0
LINE
8
0
10
5.696
20
12.592
11
6.067
21
12.592
0
0
LINE
8
0
10
6.067
20
12.592
11
6.071
21
12.592
0
0
LINE
8
0
10
6.071
20
12.592
11
6.644
21
12.592
0
0
LINE
8
0
10
6.644
20
12.592
11
7.030
21
12.592
0
0
LINE
8
0
10
7.030
20
12.592
11
7.210
21
12.592
0
0
LINE
8
0
10
7.210
20
12.592
11
7.776
21
12.592
0
0
LINE
8
0
10
7.776
20
12.592
11
8.298
21
12.592
0
0
LINE
8
0
10
8.298
20
12.592
11
8.875
21
12.592
0
0
LINE
8
0
10
8.875
20
12.592
11
8.990
21
12.592
0
0
LINE
8
0
10
8.990
20
12.592
11
9.867
21
12.592
0
0
LINE
8
0
10
9.867
20
12.592
11
9.877
21
12.592
0
0
LINE
8
0
10
9.877
20
12.592
11
9.929
21
12.592
0
0
LINE
8
0
10
9.929
20
12.592
11
10.023
21
12.592
0
0
LINE
8
0
10
10.023
20
12.592
11
10.028
21
12.592
0
0
LINE
8
0
10
10.028
20
12.592
11
10.069
21
12.592
0
0
LINE
8
0
10
10.069
20
12.592
11
10.108
21
12.592
0
0
LINE
8
0
10
10.108
20
12.592
11
10.144
21
12.592
0
0
LINE
8
0
10
10.144
20
12.592
11
10.166
21
12.592
0
0
LINE
8
0
10
10.166
20
12.592
11
10.178
21
12.592
0
0
LINE
8
0
10
10.178
20
12.592
11
10.200
21
12.592
0
0
LINE
8
0
10
10.200
20
12.592
11
10.241
21
12.592
0
0
LINE
8
0
10
10.241
20
12.592
11
10.261
21
12.592
0
0
LINE
8
0
10
10.261
20
12.592
11
10.267
21
12.592
0
0
LINE
8
0
10
10.267
20
12.592
11
11.106
21
12.592
0
0
LINE
8
0
10
11.106
20
12.592
11
11.221
21
12.592
0
0
LINE
8
0
10
11.221
20
12.592
11
11.798
21
12.592
0
0
LINE
8
0
10
11.798
20
12.592
11
12.270
21
12.592
0
0
LINE
8
0
10
12.270
20
12.592
11
12.836
21
12.592
0
0
LINE
8
0
10
12.836
20
12.592
11
13.016
21
12.592
0
0
LINE
8
0
10
13.016
20
12.592
11
13.231
21
12.592
0
0
LINE
8
0
10
13.231
20
12.592
11
13.971
21
12.592
0
0
LINE
8
0
10
13.971
20
12.592
11
14.119
21
12.592
0
0
LINE
8
0
10
14.119
20
12.592
11
14.626
21
12.592
0
0
ENDSEC
0
EOF
