0
SECTION
2
ENTITIES
0
LINE
8
0
10
2.401
20
0.431
11
2.992
21
0.450
0
0
LINE
8
0
10
2.401
20
0.431
11
2.992
21
0.450
0
0
LINE
8
0
10
2.401
20
0.431
11
2.391
21
0.432
0
0
LINE
8
0
10
2.391
20
0.432
11
1.319
21
0.560
0
0
LINE
8
0
10
1.319
20
0.560
11
0.807
21
0.857
0
0
LINE
8
0
10
0.807
20
0.857
11
0.545
21
1.403
0
0
LINE
8
0
10
0.545
20
1.403
11
0.462
21
3.056
0
0
LINE
8
0
10
0.462
20
3.056
11
2.391
21
0.432
0
0
LINE
8
0
10
0.470
20
3.354
11
0.526
21
5.581
0
0
LINE
8
0
10
0.541
20
6.181
11
0.577
21
8.054
0
0
LINE
8
0
10
0.557
20
8.681
11
0.500
21
10.553
0
0
LINE
8
0
10
0.499
20
10.581
11
0.484
21
11.080
0
0
LINE
8
0
10
0.481
20
11.179
11
0.450
21
13.051
0
0
LINE
8
0
10
0.525
20
13.672
11
0.954
21
14.450
0
0
LINE
8
0
10
0.954
20
14.450
11
1.858
21
14.725
0
0
LINE
8
0
10
1.858
20
14.725
11
0.525
21
13.672
0
0
LINE
8
0
10
2.235
20
14.754
11
4.463
21
14.677
0
0
LINE
8
0
10
4.982
20
14.659
11
5.850
21
14.629
0
0
LINE
8
0
10
5.850
20
14.629
11
5.976
21
14.625
0
0
LINE
8
0
10
5.976
20
14.625
11
6.855
21
14.626
0
0
LINE
8
0
10
7.482
20
14.627
11
9.355
21
14.630
0
0
LINE
8
0
10
9.561
20
14.630
11
9.961
21
14.631
0
0
LINE
8
0
10
9.982
20
14.631
11
11.855
21
14.634
0
0
LINE
8
0
10
12.482
20
14.635
11
14.355
21
14.637
0
0
LINE
8
0
10
14.626
20
14.454
11
14.626
21
12.220
0
0
LINE
8
0
10
14.626
20
11.783
11
14.626
21
9.909
0
0
LINE
8
0
10
14.626
20
9.282
11
14.626
21
7.409
0
0
LINE
8
0
10
14.626
20
7.121
11
14.658
21
4.892
0
0
LINE
8
0
10
14.680
20
4.284
11
14.746
21
2.411
0
0
LINE
8
0
10
14.701
20
1.879
11
14.600
21
1.245
0
0
LINE
8
0
10
14.600
20
1.245
11
14.360
21
0.836
0
0
LINE
8
0
10
14.360
20
0.836
11
13.864
21
0.570
0
0
LINE
8
0
10
13.864
20
0.570
11
13.251
21
0.476
0
0
LINE
8
0
10
13.251
20
0.476
11
14.701
21
1.879
0
0
LINE
8
0
10
12.976
20
0.446
11
11.102
21
0.490
0
0
LINE
8
0
10
10.476
20
0.505
11
8.603
21
0.550
0
0
LINE
8
0
10
8.239
20
0.559
11
6.010
21
0.545
0
0
LINE
8
0
10
6.013
20
0.545
11
6.013
21
0.545
0
0
LINE
8
0
10
5.478
20
0.528
11
3.605
21
0.469
0
0
LINE
8
0
10
2.593
20
0.437
11
2.593
21
0.927
0
0
LINE
8
0
10
2.593
20
0.437
11
2.593
21
0.927
0
0
LINE
8
0
10
2.593
20
0.927
11
2.593
21
1.326
0
0
LINE
8
0
10
2.593
20
1.326
11
2.593
21
1.482
0
0
LINE
8
0
10
2.593
20
1.482
11
2.593
21
1.515
0
0
LINE
8
0
10
2.593
20
1.515
11
2.593
21
1.979
0
0
LINE
8
0
10
2.593
20
1.979
11
2.593
21
2.873
0
0
LINE
8
0
10
2.593
20
2.873
11
2.593
21
3.425
0
0
LINE
8
0
10
2.593
20
3.425
11
2.593
21
3.837
0
0
LINE
8
0
10
2.593
20
3.837
11
2.593
21
3.845
0
0
LINE
8
0
10
2.593
20
3.845
11
2.593
21
3.885
0
0
LINE
8
0
10
2.593
20
3.885
11
2.593
21
4.774
0
0
LINE
8
0
10
2.593
20
4.774
11
2.593
21
5.668
0
0
LINE
8
0
10
2.593
20
5.668
11
2.593
21
6.318
0
0
LINE
8
0
10
2.593
20
6.318
11
2.593
21
6.326
0
0
LINE
8
0
10
2.593
20
6.326
11
2.593
21
6.366
0
0
LINE
8
0
10
2.593
20
6.366
11
2.593
21
7.016
0
0
LINE
8
0
10
2.593
20
7.016
11
2.593
21
7.126
0
0
LINE
8
0
10
2.593
20
7.126
11
2.593
21
8.020
0
0
LINE
8
0
10
2.593
20
8.020
11
2.593
21
8.807
0
0
LINE
8
0
10
2.593
20
8.807
11
2.593
21
8.847
0
0
LINE
8
0
10
2.593
20
8.847
11
2.593
21
8.855
0
0
LINE
8
0
10
2.593
20
8.855
11
2.593
21
8.965
0
0
LINE
8
0
10
2.593
20
8.965
11
2.593
21
9.825
0
0
LINE
8
0
10
2.593
20
9.825
11
2.593
21
9.955
0
0
LINE
8
0
10
2.593
20
9.955
11
2.593
21
10.229
0
0
LINE
8
0
10
2.593
20
10.229
11
2.593
21
10.358
0
0
LINE
8
0
10
2.593
20
10.358
11
2.593
21
11.219
0
0
LINE
8
0
10
2.593
20
11.219
11
2.593
21
11.329
0
0
LINE
8
0
10
2.593
20
11.329
11
2.593
21
11.337
0
0
LINE
8
0
10
2.593
20
11.337
11
2.593
21
11.377
0
0
LINE
8
0
10
2.593
20
11.377
11
2.593
21
12.163
0
0
LINE
8
0
10
2.593
20
12.163
11
2.593
21
13.057
0
0
LINE
8
0
10
2.593
20
13.057
11
2.593
21
13.167
0
0
LINE
8
0
10
2.593
20
13.167
11
2.593
21
13.650
0
0
LINE
8
0
10
2.593
20
13.650
11
2.593
21
13.822
0
0
LINE
8
0
10
2.593
20
13.822
11
2.593
21
13.857
0
0
LINE
8
0
10
2.593
20
13.857
11
2.593
21
14.250
0
0
LINE
8
0
10
2.593
20
14.250
11
2.593
21
14.742
0
0
LINE
8
0
10
5.093
20
0.516
11
5.093
21
0.890
0
0
LINE
8
0
10
5.093
20
0.516
11
5.093
21
0.890
0
0
LINE
8
0
10
5.093
20
0.890
11
5.093
21
1.252
0
0
LINE
8
0
10
5.093
20
1.252
11
5.093
21
1.557
0
0
LINE
8
0
10
5.093
20
1.557
11
5.093
21
1.608
0
0
LINE
8
0
10
5.093
20
1.608
11
5.093
21
1.948
0
0
LINE
8
0
10
5.093
20
1.948
11
5.093
21
2.842
0
0
LINE
8
0
10
5.093
20
2.842
11
5.093
21
3.393
0
0
LINE
8
0
10
5.093
20
3.393
11
5.093
21
3.834
0
0
LINE
8
0
10
5.093
20
3.834
11
5.093
21
3.842
0
0
LINE
8
0
10
5.093
20
3.842
11
5.093
21
3.883
0
0
LINE
8
0
10
5.093
20
3.883
11
5.093
21
4.742
0
0
LINE
8
0
10
5.093
20
4.742
11
5.093
21
5.636
0
0
LINE
8
0
10
5.093
20
5.636
11
5.093
21
5.746
0
0
LINE
8
0
10
5.093
20
5.746
11
5.093
21
6.324
0
0
LINE
8
0
10
5.093
20
6.324
11
5.093
21
6.364
0
0
LINE
8
0
10
5.093
20
6.364
11
5.093
21
6.984
0
0
LINE
8
0
10
5.093
20
6.984
11
5.093
21
7.095
0
0
LINE
8
0
10
5.093
20
7.095
11
5.093
21
7.989
0
0
LINE
8
0
10
5.093
20
7.989
11
5.093
21
8.805
0
0
LINE
8
0
10
5.093
20
8.805
11
5.093
21
8.845
0
0
LINE
8
0
10
5.093
20
8.845
11
5.093
21
8.853
0
0
LINE
8
0
10
5.093
20
8.853
11
5.093
21
8.944
0
0
LINE
8
0
10
5.093
20
8.944
11
5.093
21
9.774
0
0
LINE
8
0
10
5.093
20
9.774
11
5.093
21
9.955
0
0
LINE
8
0
10
5.093
20
9.955
11
5.093
21
10.229
0
0
LINE
8
0
10
5.093
20
10.229
11
5.093
21
10.306
0
0
LINE
8
0
10
5.093
20
10.306
11
5.093
21
11.191
0
0
LINE
8
0
10
5.093
20
11.191
11
5.093
21
11.326
0
0
LINE
8
0
10
5.093
20
11.326
11
5.093
21
11.334
0
0
LINE
8
0
10
5.093
20
11.334
11
5.093
21
11.375
0
0
LINE
8
0
10
5.093
20
11.375
11
5.093
21
12.131
0
0
LINE
8
0
10
5.093
20
12.131
11
5.093
21
13.025
0
0
LINE
8
0
10
5.093
20
13.025
11
5.093
21
13.136
0
0
LINE
8
0
10
5.093
20
13.136
11
5.093
21
13.512
0
0
LINE
8
0
10
5.093
20
13.512
11
5.093
21
13.780
0
0
LINE
8
0
10
5.093
20
13.780
11
5.093
21
13.834
0
0
LINE
8
0
10
5.093
20
13.834
11
5.093
21
14.141
0
0
LINE
8
0
10
5.093
20
14.141
11
5.093
21
14.655
0
0
LINE
8
0
10
7.593
20
0.574
11
7.593
21
1.101
0
0
LINE
8
0
10
7.593
20
0.574
11
7.593
21
1.101
0
0
LINE
8
0
10
7.593
20
1.101
11
7.593
21
1.365
0
0
LINE
8
0
10
7.593
20
1.365
11
7.593
21
1.607
0
0
LINE
8
0
10
7.593
20
1.607
11
7.593
21
1.670
0
0
LINE
8
0
10
7.593
20
1.670
11
7.593
21
2.218
0
0
LINE
8
0
10
7.593
20
2.218
11
7.593
21
2.438
0
0
LINE
8
0
10
7.593
20
2.438
11
7.593
21
2.455
0
0
LINE
8
0
10
7.593
20
2.455
11
7.593
21
2.729
0
0
LINE
8
0
10
7.593
20
2.729
11
7.593
21
2.834
0
0
LINE
8
0
10
7.593
20
2.834
11
7.593
21
3.707
0
0
LINE
8
0
10
7.593
20
3.707
11
7.593
21
3.834
0
0
LINE
8
0
10
7.593
20
3.834
11
7.593
21
3.842
0
0
LINE
8
0
10
7.593
20
3.842
11
7.593
21
3.882
0
0
LINE
8
0
10
7.593
20
3.882
11
7.593
21
4.732
0
0
LINE
8
0
10
7.593
20
4.732
11
7.593
21
5.626
0
0
LINE
8
0
10
7.593
20
5.626
11
7.593
21
5.628
0
0
LINE
8
0
10
7.593
20
5.628
11
7.593
21
5.736
0
0
LINE
8
0
10
7.593
20
5.736
11
7.593
21
6.323
0
0
LINE
8
0
10
7.593
20
6.323
11
7.593
21
6.363
0
0
LINE
8
0
10
7.593
20
6.363
11
7.593
21
6.974
0
0
LINE
8
0
10
7.593
20
6.974
11
7.593
21
7.084
0
0
LINE
8
0
10
7.593
20
7.084
11
7.593
21
7.978
0
0
LINE
8
0
10
7.593
20
7.978
11
7.593
21
8.804
0
0
LINE
8
0
10
7.593
20
8.804
11
7.593
21
8.844
0
0
LINE
8
0
10
7.593
20
8.844
11
7.593
21
8.852
0
0
LINE
8
0
10
7.593
20
8.852
11
7.593
21
8.938
0
0
LINE
8
0
10
7.593
20
8.938
11
7.593
21
9.759
0
0
LINE
8
0
10
7.593
20
9.759
11
7.593
21
9.955
0
0
LINE
8
0
10
7.593
20
9.955
11
7.593
21
10.229
0
0
LINE
8
0
10
7.593
20
10.229
11
7.593
21
10.289
0
0
LINE
8
0
10
7.593
20
10.289
11
7.593
21
11.181
0
0
LINE
8
0
10
7.593
20
11.181
11
7.593
21
11.326
0
0
LINE
8
0
10
7.593
20
11.326
11
7.593
21
11.334
0
0
LINE
8
0
10
7.593
20
11.334
11
7.593
21
11.374
0
0
LINE
8
0
10
7.593
20
11.374
11
7.593
21
12.121
0
0
LINE
8
0
10
7.593
20
12.121
11
7.593
21
13.015
0
0
LINE
8
0
10
7.593
20
13.015
11
7.593
21
13.125
0
0
LINE
8
0
10
7.593
20
13.125
11
7.593
21
13.470
0
0
LINE
8
0
10
7.593
20
13.470
11
7.593
21
13.766
0
0
LINE
8
0
10
7.593
20
13.766
11
7.593
21
13.914
0
0
LINE
8
0
10
7.593
20
13.914
11
7.593
21
14.227
0
0
LINE
8
0
10
7.593
20
14.227
11
7.593
21
14.628
0
0
LINE
8
0
10
10.093
20
0.515
11
10.093
21
1.025
0
0
LINE
8
0
10
10.093
20
0.515
11
10.093
21
1.025
0
0
LINE
8
0
10
10.093
20
1.025
11
10.093
21
1.346
0
0
LINE
8
0
10
10.093
20
1.346
11
10.093
21
1.552
0
0
LINE
8
0
10
10.093
20
1.552
11
10.093
21
1.602
0
0
LINE
8
0
10
10.093
20
1.602
11
10.093
21
2.132
0
0
LINE
8
0
10
10.093
20
2.132
11
10.093
21
2.440
0
0
LINE
8
0
10
10.093
20
2.440
11
10.093
21
2.455
0
0
LINE
8
0
10
10.093
20
2.455
11
10.093
21
2.729
0
0
LINE
8
0
10
10.093
20
2.729
11
10.093
21
2.813
0
0
LINE
8
0
10
10.093
20
2.813
11
10.093
21
3.695
0
0
LINE
8
0
10
10.093
20
3.695
11
10.093
21
3.834
0
0
LINE
8
0
10
10.093
20
3.834
11
10.093
21
3.842
0
0
LINE
8
0
10
10.093
20
3.842
11
10.093
21
3.882
0
0
LINE
8
0
10
10.093
20
3.882
11
10.093
21
4.733
0
0
LINE
8
0
10
10.093
20
4.733
11
10.093
21
5.627
0
0
LINE
8
0
10
10.093
20
5.627
11
10.093
21
5.737
0
0
LINE
8
0
10
10.093
20
5.737
11
10.093
21
6.323
0
0
LINE
8
0
10
10.093
20
6.323
11
10.093
21
6.363
0
0
LINE
8
0
10
10.093
20
6.363
11
10.093
21
6.975
0
0
LINE
8
0
10
10.093
20
6.975
11
10.093
21
7.086
0
0
LINE
8
0
10
10.093
20
7.086
11
10.093
21
7.980
0
0
LINE
8
0
10
10.093
20
7.980
11
10.093
21
8.804
0
0
LINE
8
0
10
10.093
20
8.804
11
10.093
21
8.844
0
0
LINE
8
0
10
10.093
20
8.844
11
10.093
21
8.852
0
0
LINE
8
0
10
10.093
20
8.852
11
10.093
21
8.939
0
0
LINE
8
0
10
10.093
20
8.939
11
10.093
21
9.761
0
0
LINE
8
0
10
10.093
20
9.761
11
10.093
21
9.955
0
0
LINE
8
0
10
10.093
20
9.955
11
10.093
21
10.229
0
0
LINE
8
0
10
10.093
20
10.229
11
10.093
21
10.291
0
0
LINE
8
0
10
10.093
20
10.291
11
10.093
21
11.183
0
0
LINE
8
0
10
10.093
20
11.183
11
10.093
21
11.326
0
0
LINE
8
0
10
10.093
20
11.326
11
10.093
21
11.334
0
0
LINE
8
0
10
10.093
20
11.334
11
10.093
21
11.374
0
0
LINE
8
0
10
10.093
20
11.374
11
10.093
21
12.123
0
0
LINE
8
0
10
10.093
20
12.123
11
10.093
21
13.017
0
0
LINE
8
0
10
10.093
20
13.017
11
10.093
21
13.127
0
0
LINE
8
0
10
10.093
20
13.127
11
10.093
21
13.475
0
0
LINE
8
0
10
10.093
20
13.475
11
10.093
21
13.768
0
0
LINE
8
0
10
10.093
20
13.768
11
10.093
21
13.826
0
0
LINE
8
0
10
10.093
20
13.826
11
10.093
21
14.110
0
0
LINE
8
0
10
10.093
20
14.110
11
10.093
21
14.631
0
0
LINE
8
0
10
12.593
20
0.455
11
12.593
21
0.950
0
0
LINE
8
0
10
12.593
20
0.455
11
12.593
21
0.950
0
0
LINE
8
0
10
12.593
20
0.950
11
12.593
21
1.330
0
0
LINE
8
0
10
12.593
20
1.330
11
12.593
21
1.490
0
0
LINE
8
0
10
12.593
20
1.490
11
12.593
21
1.528
0
0
LINE
8
0
10
12.593
20
1.528
11
12.593
21
2.012
0
0
LINE
8
0
10
12.593
20
2.012
11
12.593
21
2.443
0
0
LINE
8
0
10
12.593
20
2.443
11
12.593
21
2.455
0
0
LINE
8
0
10
12.593
20
2.455
11
12.593
21
2.729
0
0
LINE
8
0
10
12.593
20
2.729
11
12.593
21
2.796
0
0
LINE
8
0
10
12.593
20
2.796
11
12.593
21
3.685
0
0
LINE
8
0
10
12.593
20
3.685
11
12.593
21
3.834
0
0
LINE
8
0
10
12.593
20
3.834
11
12.593
21
3.842
0
0
LINE
8
0
10
12.593
20
3.842
11
12.593
21
3.882
0
0
LINE
8
0
10
12.593
20
3.882
11
12.593
21
4.734
0
0
LINE
8
0
10
12.593
20
4.734
11
12.593
21
5.628
0
0
LINE
8
0
10
12.593
20
5.628
11
12.593
21
5.739
0
0
LINE
8
0
10
12.593
20
5.739
11
12.593
21
6.323
0
0
LINE
8
0
10
12.593
20
6.323
11
12.593
21
6.363
0
0
LINE
8
0
10
12.593
20
6.363
11
12.593
21
6.977
0
0
LINE
8
0
10
12.593
20
6.977
11
12.593
21
7.087
0
0
LINE
8
0
10
12.593
20
7.087
11
12.593
21
7.981
0
0
LINE
8
0
10
12.593
20
7.981
11
12.593
21
8.804
0
0
LINE
8
0
10
12.593
20
8.804
11
12.593
21
8.844
0
0
LINE
8
0
10
12.593
20
8.844
11
12.593
21
8.853
0
0
LINE
8
0
10
12.593
20
8.853
11
12.593
21
8.940
0
0
LINE
8
0
10
12.593
20
8.940
11
12.593
21
9.763
0
0
LINE
8
0
10
12.593
20
9.763
11
12.593
21
9.955
0
0
LINE
8
0
10
12.593
20
9.955
11
12.593
21
10.229
0
0
LINE
8
0
10
12.593
20
10.229
11
12.593
21
10.293
0
0
LINE
8
0
10
12.593
20
10.293
11
12.593
21
11.184
0
0
LINE
8
0
10
12.593
20
11.184
11
12.593
21
11.326
0
0
LINE
8
0
10
12.593
20
11.326
11
12.593
21
11.334
0
0
LINE
8
0
10
12.593
20
11.334
11
12.593
21
11.374
0
0
LINE
8
0
10
12.593
20
11.374
11
12.593
21
12.124
0
0
LINE
8
0
10
12.593
20
12.124
11
12.593
21
13.018
0
0
LINE
8
0
10
12.593
20
13.018
11
12.593
21
13.128
0
0
LINE
8
0
10
12.593
20
13.128
11
12.593
21
13.481
0
0
LINE
8
0
10
12.593
20
13.481
11
12.593
21
13.770
0
0
LINE
8
0
10
12.593
20
13.770
11
12.593
21
13.828
0
0
LINE
8
0
10
12.593
20
13.828
11
12.593
21
14.115
0
0
LINE
8
0
10
12.593
20
14.115
11
12.593
21
14.635
0
0
LINE
8
0
10
0.450
20
2.592
11
0.780
21
2.592
0
0
LINE
8
0
10
0.450
20
2.592
11
0.780
21
2.592
0
0
LINE
8
0
10
0.780
20
2.592
11
1.236
21
2.592
0
0
LINE
8
0
10
1.236
20
2.592
11
1.366
21
2.592
0
0
LINE
8
0
10
1.366
20
2.592
11
1.548
21
2.592
0
0
LINE
8
0
10
1.548
20
2.592
11
2.020
21
2.592
0
0
LINE
8
0
10
2.020
20
2.592
11
2.130
21
2.592
0
0
LINE
8
0
10
2.130
20
2.592
11
3.024
21
2.592
0
0
LINE
8
0
10
3.024
20
2.592
11
3.808
21
2.592
0
0
LINE
8
0
10
3.808
20
2.592
11
3.849
21
2.592
0
0
LINE
8
0
10
3.849
20
2.592
11
3.857
21
2.592
0
0
LINE
8
0
10
3.857
20
2.592
11
3.968
21
2.592
0
0
LINE
8
0
10
3.968
20
2.592
11
4.830
21
2.592
0
0
LINE
8
0
10
4.830
20
2.592
11
4.956
21
2.592
0
0
LINE
8
0
10
4.956
20
2.592
11
5.230
21
2.592
0
0
LINE
8
0
10
5.230
20
2.592
11
5.364
21
2.592
0
0
LINE
8
0
10
5.364
20
2.592
11
6.222
21
2.592
0
0
LINE
8
0
10
6.222
20
2.592
11
6.330
21
2.592
0
0
LINE
8
0
10
6.330
20
2.592
11
6.338
21
2.592
0
0
LINE
8
0
10
6.338
20
2.592
11
6.378
21
2.592
0
0
LINE
8
0
10
6.378
20
2.592
11
7.167
21
2.592
0
0
LINE
8
0
10
7.167
20
2.592
11
8.061
21
2.592
0
0
LINE
8
0
10
8.061
20
2.592
11
8.171
21
2.592
0
0
LINE
8
0
10
8.171
20
2.592
11
8.819
21
2.592
0
0
LINE
8
0
10
8.819
20
2.592
11
8.859
21
2.592
0
0
LINE
8
0
10
8.859
20
2.592
11
8.867
21
2.592
0
0
LINE
8
0
10
8.867
20
2.592
11
9.520
21
2.592
0
0
LINE
8
0
10
9.520
20
2.592
11
10.414
21
2.592
0
0
LINE
8
0
10
10.414
20
2.592
11
11.300
21
2.592
0
0
LINE
8
0
10
11.300
20
2.592
11
11.341
21
2.592
0
0
LINE
8
0
10
11.341
20
2.592
11
11.349
21
2.592
0
0
LINE
8
0
10
11.349
20
2.592
11
11.762
21
2.592
0
0
LINE
8
0
10
11.762
20
2.592
11
12.314
21
2.592
0
0
LINE
8
0
10
12.314
20
2.592
11
13.208
21
2.592
0
0
LINE
8
0
10
13.208
20
2.592
11
13.658
21
2.592
0
0
LINE
8
0
10
13.658
20
2.592
11
13.693
21
2.592
0
0
LINE
8
0
10
13.693
20
2.592
11
13.857
21
2.592
0
0
LINE
8
0
10
13.857
20
2.592
11
14.246
21
2.592
0
0
LINE
8
0
10
14.246
20
2.592
11
14.739
21
2.592
0
0
LINE
8
0
10
0.513
20
5.092
11
1.251
21
5.092
0
0
LINE
8
0
10
0.513
20
5.092
11
1.251
21
5.092
0
0
LINE
8
0
10
1.251
20
5.092
11
1.396
21
5.092
0
0
LINE
8
0
10
1.396
20
5.092
11
1.648
21
5.092
0
0
LINE
8
0
10
1.648
20
5.092
11
2.043
21
5.092
0
0
LINE
8
0
10
2.043
20
5.092
11
2.153
21
5.092
0
0
LINE
8
0
10
2.153
20
5.092
11
3.047
21
5.092
0
0
LINE
8
0
10
3.047
20
5.092
11
3.810
21
5.092
0
0
LINE
8
0
10
3.810
20
5.092
11
3.850
21
5.092
0
0
LINE
8
0
10
3.850
20
5.092
11
3.858
21
5.092
0
0
LINE
8
0
10
3.858
20
5.092
11
3.988
21
5.092
0
0
LINE
8
0
10
3.988
20
5.092
11
4.868
21
5.092
0
0
LINE
8
0
10
4.868
20
5.092
11
4.956
21
5.092
0
0
LINE
8
0
10
4.956
20
5.092
11
5.230
21
5.092
0
0
LINE
8
0
10
5.230
20
5.092
11
5.400
21
5.092
0
0
LINE
8
0
10
5.400
20
5.092
11
6.237
21
5.092
0
0
LINE
8
0
10
6.237
20
5.092
11
6.238
21
5.092
0
0
LINE
8
0
10
6.238
20
5.092
11
6.331
21
5.092
0
0
LINE
8
0
10
6.331
20
5.092
11
6.340
21
5.092
0
0
LINE
8
0
10
6.340
20
5.092
11
6.380
21
5.092
0
0
LINE
8
0
10
6.380
20
5.092
11
7.190
21
5.092
0
0
LINE
8
0
10
7.190
20
5.092
11
8.085
21
5.092
0
0
LINE
8
0
10
8.085
20
5.092
11
8.194
21
5.092
0
0
LINE
8
0
10
8.194
20
5.092
11
8.821
21
5.092
0
0
LINE
8
0
10
8.821
20
5.092
11
8.822
21
5.092
0
0
LINE
8
0
10
8.822
20
5.092
11
8.861
21
5.092
0
0
LINE
8
0
10
8.861
20
5.092
11
9.433
21
5.092
0
0
LINE
8
0
10
9.433
20
5.092
11
9.543
21
5.092
0
0
LINE
8
0
10
9.543
20
5.092
11
10.437
21
5.092
0
0
LINE
8
0
10
10.437
20
5.092
11
11.302
21
5.092
0
0
LINE
8
0
10
11.302
20
5.092
11
11.342
21
5.092
0
0
LINE
8
0
10
11.342
20
5.092
11
11.350
21
5.092
0
0
LINE
8
0
10
11.350
20
5.092
11
11.786
21
5.092
0
0
LINE
8
0
10
11.786
20
5.092
11
12.338
21
5.092
0
0
LINE
8
0
10
12.338
20
5.092
11
13.232
21
5.092
0
0
LINE
8
0
10
13.232
20
5.092
11
13.553
21
5.092
0
0
LINE
8
0
10
13.553
20
5.092
11
13.608
21
5.092
0
0
LINE
8
0
10
13.608
20
5.092
11
13.834
21
5.092
0
0
LINE
8
0
10
13.834
20
5.092
11
14.135
21
5.092
0
0
LINE
8
0
10
14.135
20
5.092
11
14.651
21
5.092
0
0
LINE
8
0
10
0.576
20
7.592
11
1.280
21
7.592
0
0
LINE
8
0
10
0.576
20
7.592
11
1.280
21
7.592
0
0
LINE
8
0
10
1.280
20
7.592
11
1.430
21
7.592
0
0
LINE
8
0
10
1.430
20
7.592
11
1.745
21
7.592
0
0
LINE
8
0
10
1.745
20
7.592
11
2.067
21
7.592
0
0
LINE
8
0
10
2.067
20
7.592
11
2.177
21
7.592
0
0
LINE
8
0
10
2.177
20
7.592
11
3.071
21
7.592
0
0
LINE
8
0
10
3.071
20
7.592
11
3.812
21
7.592
0
0
LINE
8
0
10
3.812
20
7.592
11
3.852
21
7.592
0
0
LINE
8
0
10
3.852
20
7.592
11
3.860
21
7.592
0
0
LINE
8
0
10
3.860
20
7.592
11
4.011
21
7.592
0
0
LINE
8
0
10
4.011
20
7.592
11
4.907
21
7.592
0
0
LINE
8
0
10
4.907
20
7.592
11
4.956
21
7.592
0
0
LINE
8
0
10
4.956
20
7.592
11
5.230
21
7.592
0
0
LINE
8
0
10
5.230
20
7.592
11
5.436
21
7.592
0
0
LINE
8
0
10
5.436
20
7.592
11
6.251
21
7.592
0
0
LINE
8
0
10
6.251
20
7.592
11
6.333
21
7.592
0
0
LINE
8
0
10
6.333
20
7.592
11
6.341
21
7.592
0
0
LINE
8
0
10
6.341
20
7.592
11
6.381
21
7.592
0
0
LINE
8
0
10
6.381
20
7.592
11
7.214
21
7.592
0
0
LINE
8
0
10
7.214
20
7.592
11
8.108
21
7.592
0
0
LINE
8
0
10
8.108
20
7.592
11
8.218
21
7.592
0
0
LINE
8
0
10
8.218
20
7.592
11
8.822
21
7.592
0
0
LINE
8
0
10
8.822
20
7.592
11
8.863
21
7.592
0
0
LINE
8
0
10
8.863
20
7.592
11
9.456
21
7.592
0
0
LINE
8
0
10
9.456
20
7.592
11
9.566
21
7.592
0
0
LINE
8
0
10
9.566
20
7.592
11
10.460
21
7.592
0
0
LINE
8
0
10
10.460
20
7.592
11
11.304
21
7.592
0
0
LINE
8
0
10
11.304
20
7.592
11
11.344
21
7.592
0
0
LINE
8
0
10
11.344
20
7.592
11
11.352
21
7.592
0
0
LINE
8
0
10
11.352
20
7.592
11
11.429
21
7.592
0
0
LINE
8
0
10
11.429
20
7.592
11
12.231
21
7.592
0
0
LINE
8
0
10
12.231
20
7.592
11
12.456
21
7.592
0
0
LINE
8
0
10
12.456
20
7.592
11
12.730
21
7.592
0
0
LINE
8
0
10
12.730
20
7.592
11
12.758
21
7.592
0
0
LINE
8
0
10
12.758
20
7.592
11
13.005
21
7.592
0
0
LINE
8
0
10
13.005
20
7.592
11
13.536
21
7.592
0
0
LINE
8
0
10
13.536
20
7.592
11
13.596
21
7.592
0
0
LINE
8
0
10
13.596
20
7.592
11
13.825
21
7.592
0
0
LINE
8
0
10
13.825
20
7.592
11
14.104
21
7.592
0
0
LINE
8
0
10
14.104
20
7.592
11
14.626
21
7.592
0
0
LINE
8
0
10
0.514
20
10.092
11
1.024
21
10.092
0
0
LINE
8
0
10
0.514
20
10.092
11
1.024
21
10.092
0
0
LINE
8
0
10
1.024
20
10.092
11
1.346
21
10.092
0
0
LINE
8
0
10
1.346
20
10.092
11
1.396
21
10.092
0
0
LINE
8
0
10
1.396
20
10.092
11
1.648
21
10.092
0
0
LINE
8
0
10
1.648
20
10.092
11
2.043
21
10.092
0
0
LINE
8
0
10
2.043
20
10.092
11
2.154
21
10.092
0
0
LINE
8
0
10
2.154
20
10.092
11
3.048
21
10.092
0
0
LINE
8
0
10
3.048
20
10.092
11
3.810
21
10.092
0
0
LINE
8
0
10
3.810
20
10.092
11
3.850
21
10.092
0
0
LINE
8
0
10
3.850
20
10.092
11
3.858
21
10.092
0
0
LINE
8
0
10
3.858
20
10.092
11
3.988
21
10.092
0
0
LINE
8
0
10
3.988
20
10.092
11
4.869
21
10.092
0
0
LINE
8
0
10
4.869
20
10.092
11
4.956
21
10.092
0
0
LINE
8
0
10
4.956
20
10.092
11
5.230
21
10.092
0
0
LINE
8
0
10
5.230
20
10.092
11
5.401
21
10.092
0
0
LINE
8
0
10
5.401
20
10.092
11
6.238
21
10.092
0
0
LINE
8
0
10
6.238
20
10.092
11
6.331
21
10.092
0
0
LINE
8
0
10
6.331
20
10.092
11
6.340
21
10.092
0
0
LINE
8
0
10
6.340
20
10.092
11
6.380
21
10.092
0
0
LINE
8
0
10
6.380
20
10.092
11
7.190
21
10.092
0
0
LINE
8
0
10
7.190
20
10.092
11
8.085
21
10.092
0
0
LINE
8
0
10
8.085
20
10.092
11
8.195
21
10.092
0
0
LINE
8
0
10
8.195
20
10.092
11
8.821
21
10.092
0
0
LINE
8
0
10
8.821
20
10.092
11
8.861
21
10.092
0
0
LINE
8
0
10
8.861
20
10.092
11
9.433
21
10.092
0
0
LINE
8
0
10
9.433
20
10.092
11
9.543
21
10.092
0
0
LINE
8
0
10
9.543
20
10.092
11
10.437
21
10.092
0
0
LINE
8
0
10
10.437
20
10.092
11
11.302
21
10.092
0
0
LINE
8
0
10
11.302
20
10.092
11
11.342
21
10.092
0
0
LINE
8
0
10
11.342
20
10.092
11
11.350
21
10.092
0
0
LINE
8
0
10
11.350
20
10.092
11
11.786
21
10.092
0
0
LINE
8
0
10
11.786
20
10.092
11
12.338
21
10.092
0
0
LINE
8
0
10
12.338
20
10.092
11
13.232
21
10.092
0
0
LINE
8
0
10
13.232
20
10.092
11
13.524
21
10.092
0
0
LINE
8
0
10
13.524
20
10.092
11
13.584
21
10.092
0
0
LINE
8
0
10
13.584
20
10.092
11
13.914
21
10.092
0
0
LINE
8
0
10
13.914
20
10.092
11
14.223
21
10.092
0
0
LINE
8
0
10
14.223
20
10.092
11
14.626
21
10.092
0
0
LINE
8
0
10
0.438
20
12.592
11
0.928
21
12.592
0
0
LINE
8
0
10
0.438
20
12.592
11
0.928
21
12.592
0
0
LINE
8
0
10
0.928
20
12.592
11
1.327
21
12.592
0
0
LINE
8
0
10
1.327
20
12.592
11
1.361
21
12.592
0
0
LINE
8
0
10
1.361
20
12.592
11
1.527
21
12.592
0
0
LINE
8
0
10
1.527
20
12.592
11
2.015
21
12.592
0
0
LINE
8
0
10
2.015
20
12.592
11
2.126
21
12.592
0
0
LINE
8
0
10
2.126
20
12.592
11
3.020
21
12.592
0
0
LINE
8
0
10
3.020
20
12.592
11
3.808
21
12.592
0
0
LINE
8
0
10
3.808
20
12.592
11
3.848
21
12.592
0
0
LINE
8
0
10
3.848
20
12.592
11
3.856
21
12.592
0
0
LINE
8
0
10
3.856
20
12.592
11
3.964
21
12.592
0
0
LINE
8
0
10
3.964
20
12.592
11
4.823
21
12.592
0
0
LINE
8
0
10
4.823
20
12.592
11
4.956
21
12.592
0
0
LINE
8
0
10
4.956
20
12.592
11
5.230
21
12.592
0
0
LINE
8
0
10
5.230
20
12.592
11
5.356
21
12.592
0
0
LINE
8
0
10
5.356
20
12.592
11
6.218
21
12.592
0
0
LINE
8
0
10
6.218
20
12.592
11
6.329
21
12.592
0
0
LINE
8
0
10
6.329
20
12.592
11
6.338
21
12.592
0
0
LINE
8
0
10
6.338
20
12.592
11
6.378
21
12.592
0
0
LINE
8
0
10
6.378
20
12.592
11
7.163
21
12.592
0
0
LINE
8
0
10
7.163
20
12.592
11
8.057
21
12.592
0
0
LINE
8
0
10
8.057
20
12.592
11
8.167
21
12.592
0
0
LINE
8
0
10
8.167
20
12.592
11
8.819
21
12.592
0
0
LINE
8
0
10
8.819
20
12.592
11
8.859
21
12.592
0
0
LINE
8
0
10
8.859
20
12.592
11
8.867
21
12.592
0
0
LINE
8
0
10
8.867
20
12.592
11
9.515
21
12.592
0
0
LINE
8
0
10
9.515
20
12.592
11
10.409
21
12.592
0
0
LINE
8
0
10
10.409
20
12.592
11
11.300
21
12.592
0
0
LINE
8
0
10
11.300
20
12.592
11
11.340
21
12.592
0
0
LINE
8
0
10
11.340
20
12.592
11
11.348
21
12.592
0
0
LINE
8
0
10
11.348
20
12.592
11
11.758
21
12.592
0
0
LINE
8
0
10
11.758
20
12.592
11
12.310
21
12.592
0
0
LINE
8
0
10
12.310
20
12.592
11
13.204
21
12.592
0
0
LINE
8
0
10
13.204
20
12.592
11
13.509
21
12.592
0
0
LINE
8
0
10
13.509
20
12.592
11
13.569
21
12.592
0
0
LINE
8
0
10
13.569
20
12.592
11
13.825
21
12.592
0
0
LINE
8
0
10
13.825
20
12.592
11
14.104
21
12.592
0
0
LINE
8
0
10
14.104
20
12.592
11
14.626
21
12.592
0
0
ENDSEC
0
EOF
