0
SECTION
2
ENTITIES
0
LINE
8
0
10
2.322
20
0.434
11
3.189
21
0.456
0
0
LINE
8
0
10
2.322
20
0.434
11
3.189
21
0.456
0
0
LINE
8
0
10
3.395
20
0.462
11
5.688
21
0.535
0
0
LINE
8
0
10
5.894
20
0.541
11
8.187
21
0.560
0
0
LINE
8
0
10
8.393
20
0.555
11
10.686
21
0.500
0
0
LINE
8
0
10
10.892
20
0.495
11
12.832
21
0.449
0
0
LINE
8
0
10
12.832
20
0.449
11
12.894
21
0.447
0
0
LINE
8
0
10
12.894
20
0.447
11
13.184
21
0.467
0
0
LINE
8
0
10
13.388
20
0.495
11
14.045
21
0.636
0
0
LINE
8
0
10
14.045
20
0.636
11
14.446
21
0.948
0
0
LINE
8
0
10
14.446
20
0.948
11
14.716
21
1.997
0
0
LINE
8
0
10
14.716
20
1.997
11
13.388
21
0.495
0
0
LINE
8
0
10
14.742
20
2.202
11
14.672
21
4.494
0
0
LINE
8
0
10
14.665
20
4.700
11
14.626
21
6.993
0
0
LINE
8
0
10
14.626
20
7.199
11
14.626
21
9.493
0
0
LINE
8
0
10
14.626
20
9.699
11
14.626
21
11.993
0
0
LINE
8
0
10
14.626
20
12.199
11
14.626
21
14.493
0
0
LINE
8
0
10
14.561
20
14.634
11
12.271
21
14.634
0
0
LINE
8
0
10
12.065
20
14.634
11
9.771
21
14.631
0
0
LINE
8
0
10
9.565
20
14.630
11
7.271
21
14.627
0
0
LINE
8
0
10
7.065
20
14.627
11
6.168
21
14.625
0
0
LINE
8
0
10
6.168
20
14.625
11
6.053
21
14.625
0
0
LINE
8
0
10
6.053
20
14.625
11
4.772
21
14.666
0
0
LINE
8
0
10
4.566
20
14.673
11
2.273
21
14.753
0
0
LINE
8
0
10
2.068
20
14.741
11
0.941
21
14.440
0
0
LINE
8
0
10
0.941
20
14.440
11
0.682
21
14.140
0
0
LINE
8
0
10
0.682
20
14.140
11
0.489
21
13.465
0
0
LINE
8
0
10
0.489
20
13.465
11
2.068
21
14.741
0
0
LINE
8
0
10
0.458
20
13.262
11
0.487
21
10.969
0
0
LINE
8
0
10
0.494
20
10.763
11
0.564
21
8.470
0
0
LINE
8
0
10
0.570
20
8.264
11
0.536
21
5.971
0
0
LINE
8
0
10
0.530
20
5.765
11
0.473
21
3.471
0
0
LINE
8
0
10
0.468
20
3.266
11
0.454
21
2.112
0
0
LINE
8
0
10
0.454
20
2.112
11
0.668
21
1.065
0
0
LINE
8
0
10
0.668
20
1.065
11
1.223
21
0.598
0
0
LINE
8
0
10
1.223
20
0.598
11
2.196
21
0.441
0
0
LINE
8
0
10
2.196
20
0.441
11
0.468
21
3.266
0
0
LINE
8
0
10
2.196
20
0.441
11
2.322
21
0.434
0
0
LINE
8
0
10
2.593
20
0.437
11
2.593
21
0.700
0
0
LINE
8
0
10
2.593
20
0.437
11
2.593
21
0.700
0
0
LINE
8
0
10
2.593
20
0.700
11
2.593
21
0.921
0
0
LINE
8
0
10
2.593
20
0.921
11
2.593
21
2.026
0
0
LINE
8
0
10
2.593
20
2.026
11
2.593
21
2.171
0
0
LINE
8
0
10
2.593
20
2.171
11
2.593
21
2.415
0
0
LINE
8
0
10
2.593
20
2.415
11
2.593
21
2.680
0
0
LINE
8
0
10
2.593
20
2.680
11
2.593
21
2.913
0
0
LINE
8
0
10
2.593
20
2.913
11
2.593
21
3.981
0
0
LINE
8
0
10
2.593
20
3.981
11
2.593
21
4.194
0
0
LINE
8
0
10
2.593
20
4.194
11
2.593
21
4.593
0
0
LINE
8
0
10
2.593
20
4.593
11
2.593
21
4.621
0
0
LINE
8
0
10
2.593
20
4.621
11
2.593
21
4.626
0
0
LINE
8
0
10
2.593
20
4.626
11
2.593
21
4.644
0
0
LINE
8
0
10
2.593
20
4.644
11
2.593
21
4.663
0
0
LINE
8
0
10
2.593
20
4.663
11
2.593
21
4.666
0
0
LINE
8
0
10
2.593
20
4.666
11
2.593
21
5.508
0
0
LINE
8
0
10
2.593
20
5.508
11
2.593
21
5.532
0
0
LINE
8
0
10
2.593
20
5.532
11
2.593
21
5.550
0
0
LINE
8
0
10
2.593
20
5.550
11
2.593
21
5.572
0
0
LINE
8
0
10
2.593
20
5.572
11
2.593
21
5.583
0
0
LINE
8
0
10
2.593
20
5.583
11
2.593
21
5.584
0
0
LINE
8
0
10
2.593
20
5.584
11
2.593
21
5.982
0
0
LINE
8
0
10
2.593
20
5.982
11
2.593
21
6.196
0
0
LINE
8
0
10
2.593
20
6.196
11
2.593
21
7.264
0
0
LINE
8
0
10
2.593
20
7.264
11
2.593
21
7.496
0
0
LINE
8
0
10
2.593
20
7.496
11
2.593
21
7.761
0
0
LINE
8
0
10
2.593
20
7.761
11
2.593
21
7.922
0
0
LINE
8
0
10
2.593
20
7.922
11
2.593
21
8.005
0
0
LINE
8
0
10
2.593
20
8.005
11
2.593
21
8.198
0
0
LINE
8
0
10
2.593
20
8.198
11
2.593
21
9.266
0
0
LINE
8
0
10
2.593
20
9.266
11
2.593
21
9.479
0
0
LINE
8
0
10
2.593
20
9.479
11
2.593
21
9.671
0
0
LINE
8
0
10
2.593
20
9.671
11
2.593
21
9.936
0
0
LINE
8
0
10
2.593
20
9.936
11
2.593
21
10.199
0
0
LINE
8
0
10
2.593
20
10.199
11
2.593
21
11.267
0
0
LINE
8
0
10
2.593
20
11.267
11
2.593
21
11.481
0
0
LINE
8
0
10
2.593
20
11.481
11
2.593
21
11.602
0
0
LINE
8
0
10
2.593
20
11.602
11
2.593
21
12.821
0
0
LINE
8
0
10
2.593
20
12.821
11
2.593
21
13.086
0
0
LINE
8
0
10
2.593
20
13.086
11
2.593
21
13.222
0
0
LINE
8
0
10
2.593
20
13.222
11
2.593
21
13.443
0
0
LINE
8
0
10
2.593
20
13.443
11
2.593
21
14.480
0
0
LINE
8
0
10
2.593
20
14.480
11
2.593
21
14.742
0
0
LINE
8
0
10
5.093
20
0.516
11
5.093
21
0.608
0
0
LINE
8
0
10
5.093
20
0.516
11
5.093
21
0.608
0
0
LINE
8
0
10
5.093
20
0.608
11
5.093
21
0.988
0
0
LINE
8
0
10
5.093
20
0.988
11
5.093
21
2.120
0
0
LINE
8
0
10
5.093
20
2.120
11
5.093
21
2.235
0
0
LINE
8
0
10
5.093
20
2.235
11
5.093
21
2.479
0
0
LINE
8
0
10
5.093
20
2.479
11
5.093
21
2.744
0
0
LINE
8
0
10
5.093
20
2.744
11
5.093
21
2.969
0
0
LINE
8
0
10
5.093
20
2.969
11
5.093
21
4.037
0
0
LINE
8
0
10
5.093
20
4.037
11
5.093
21
4.251
0
0
LINE
8
0
10
5.093
20
4.251
11
5.093
21
4.644
0
0
LINE
8
0
10
5.093
20
4.644
11
5.093
21
4.662
0
0
LINE
8
0
10
5.093
20
4.662
11
5.093
21
4.678
0
0
LINE
8
0
10
5.093
20
4.678
11
5.093
21
4.700
0
0
LINE
8
0
10
5.093
20
4.700
11
5.093
21
4.705
0
0
LINE
8
0
10
5.093
20
4.705
11
5.093
21
4.723
0
0
LINE
8
0
10
5.093
20
4.723
11
5.093
21
4.742
0
0
LINE
8
0
10
5.093
20
4.742
11
5.093
21
4.745
0
0
LINE
8
0
10
5.093
20
4.745
11
5.093
21
5.587
0
0
LINE
8
0
10
5.093
20
5.587
11
5.093
21
5.611
0
0
LINE
8
0
10
5.093
20
5.611
11
5.093
21
5.629
0
0
LINE
8
0
10
5.093
20
5.629
11
5.093
21
5.633
0
0
LINE
8
0
10
5.093
20
5.633
11
5.093
21
6.039
0
0
LINE
8
0
10
5.093
20
6.039
11
5.093
21
6.252
0
0
LINE
8
0
10
5.093
20
6.252
11
5.093
21
7.320
0
0
LINE
8
0
10
5.093
20
7.320
11
5.093
21
7.561
0
0
LINE
8
0
10
5.093
20
7.561
11
5.093
21
7.825
0
0
LINE
8
0
10
5.093
20
7.825
11
5.093
21
7.922
0
0
LINE
8
0
10
5.093
20
7.922
11
5.093
21
8.069
0
0
LINE
8
0
10
5.093
20
8.069
11
5.093
21
8.254
0
0
LINE
8
0
10
5.093
20
8.254
11
5.093
21
9.322
0
0
LINE
8
0
10
5.093
20
9.322
11
5.093
21
9.491
0
0
LINE
8
0
10
5.093
20
9.491
11
5.093
21
9.735
0
0
LINE
8
0
10
5.093
20
9.735
11
5.093
21
10.000
0
0
LINE
8
0
10
5.093
20
10.000
11
5.093
21
10.255
0
0
LINE
8
0
10
5.093
20
10.255
11
5.093
21
11.323
0
0
LINE
8
0
10
5.093
20
11.323
11
5.093
21
11.537
0
0
LINE
8
0
10
5.093
20
11.537
11
5.093
21
11.666
0
0
LINE
8
0
10
5.093
20
11.666
11
5.093
21
12.886
0
0
LINE
8
0
10
5.093
20
12.886
11
5.093
21
13.150
0
0
LINE
8
0
10
5.093
20
13.150
11
5.093
21
13.247
0
0
LINE
8
0
10
5.093
20
13.247
11
5.093
21
13.474
0
0
LINE
8
0
10
5.093
20
13.474
11
5.093
21
14.412
0
0
LINE
8
0
10
5.093
20
14.412
11
5.093
21
14.655
0
0
LINE
8
0
10
7.593
20
0.574
11
7.593
21
0.808
0
0
LINE
8
0
10
7.593
20
0.574
11
7.593
21
0.808
0
0
LINE
8
0
10
7.593
20
0.808
11
7.593
21
0.809
0
0
LINE
8
0
10
7.593
20
0.809
11
7.593
21
1.039
0
0
LINE
8
0
10
7.593
20
1.039
11
7.593
21
2.188
0
0
LINE
8
0
10
7.593
20
2.188
11
7.593
21
2.283
0
0
LINE
8
0
10
7.593
20
2.283
11
7.593
21
2.527
0
0
LINE
8
0
10
7.593
20
2.527
11
7.593
21
2.792
0
0
LINE
8
0
10
7.593
20
2.792
11
7.593
21
3.011
0
0
LINE
8
0
10
7.593
20
3.011
11
7.593
21
4.079
0
0
LINE
8
0
10
7.593
20
4.079
11
7.593
21
4.293
0
0
LINE
8
0
10
7.593
20
4.293
11
7.593
21
4.684
0
0
LINE
8
0
10
7.593
20
4.684
11
7.593
21
4.702
0
0
LINE
8
0
10
7.593
20
4.702
11
7.593
21
4.721
0
0
LINE
8
0
10
7.593
20
4.721
11
7.593
21
4.731
0
0
LINE
8
0
10
7.593
20
4.731
11
7.593
21
4.753
0
0
LINE
8
0
10
7.593
20
4.753
11
7.593
21
4.770
0
0
LINE
8
0
10
7.593
20
4.770
11
7.593
21
4.794
0
0
LINE
8
0
10
7.593
20
4.794
11
7.593
21
4.801
0
0
LINE
8
0
10
7.593
20
4.801
11
7.593
21
4.804
0
0
LINE
8
0
10
7.593
20
4.804
11
7.593
21
5.646
0
0
LINE
8
0
10
7.593
20
5.646
11
7.593
21
5.658
0
0
LINE
8
0
10
7.593
20
5.658
11
7.593
21
5.667
0
0
LINE
8
0
10
7.593
20
5.667
11
7.593
21
6.081
0
0
LINE
8
0
10
7.593
20
6.081
11
7.593
21
6.294
0
0
LINE
8
0
10
7.593
20
6.294
11
7.593
21
7.362
0
0
LINE
8
0
10
7.593
20
7.362
11
7.593
21
7.608
0
0
LINE
8
0
10
7.593
20
7.608
11
7.593
21
7.873
0
0
LINE
8
0
10
7.593
20
7.873
11
7.593
21
7.922
0
0
LINE
8
0
10
7.593
20
7.922
11
7.593
21
8.117
0
0
LINE
8
0
10
7.593
20
8.117
11
7.593
21
8.296
0
0
LINE
8
0
10
7.593
20
8.296
11
7.593
21
9.364
0
0
LINE
8
0
10
7.593
20
9.364
11
7.593
21
9.539
0
0
LINE
8
0
10
7.593
20
9.539
11
7.593
21
9.783
0
0
LINE
8
0
10
7.593
20
9.783
11
7.593
21
10.048
0
0
LINE
8
0
10
7.593
20
10.048
11
7.593
21
10.297
0
0
LINE
8
0
10
7.593
20
10.297
11
7.593
21
11.365
0
0
LINE
8
0
10
7.593
20
11.365
11
7.593
21
11.579
0
0
LINE
8
0
10
7.593
20
11.579
11
7.593
21
11.997
0
0
LINE
8
0
10
7.593
20
11.997
11
7.593
21
12.004
0
0
LINE
8
0
10
7.593
20
12.004
11
7.593
21
12.846
0
0
LINE
8
0
10
7.593
20
12.846
11
7.593
21
12.870
0
0
LINE
8
0
10
7.593
20
12.870
11
7.593
21
12.899
0
0
LINE
8
0
10
7.593
20
12.899
11
7.593
21
12.910
0
0
LINE
8
0
10
7.593
20
12.910
11
7.593
21
12.915
0
0
LINE
8
0
10
7.593
20
12.915
11
7.593
21
12.926
0
0
LINE
8
0
10
7.593
20
12.926
11
7.593
21
12.935
0
0
LINE
8
0
10
7.593
20
12.935
11
7.593
21
12.945
0
0
LINE
8
0
10
7.593
20
12.945
11
7.593
21
12.959
0
0
LINE
8
0
10
7.593
20
12.959
11
7.593
21
12.968
0
0
LINE
8
0
10
7.593
20
12.968
11
7.593
21
12.976
0
0
LINE
8
0
10
7.593
20
12.976
11
7.593
21
13.283
0
0
LINE
8
0
10
7.593
20
13.283
11
7.593
21
13.511
0
0
LINE
8
0
10
7.593
20
13.511
11
7.593
21
14.357
0
0
LINE
8
0
10
7.593
20
14.357
11
7.593
21
14.628
0
0
LINE
8
0
10
10.093
20
0.515
11
10.093
21
0.761
0
0
LINE
8
0
10
10.093
20
0.515
11
10.093
21
0.761
0
0
LINE
8
0
10
10.093
20
0.761
11
10.093
21
0.987
0
0
LINE
8
0
10
10.093
20
0.987
11
10.093
21
2.118
0
0
LINE
8
0
10
10.093
20
2.118
11
10.093
21
2.235
0
0
LINE
8
0
10
10.093
20
2.235
11
10.093
21
2.478
0
0
LINE
8
0
10
10.093
20
2.478
11
10.093
21
2.743
0
0
LINE
8
0
10
10.093
20
2.743
11
10.093
21
2.968
0
0
LINE
8
0
10
10.093
20
2.968
11
10.093
21
4.036
0
0
LINE
8
0
10
10.093
20
4.036
11
10.093
21
4.250
0
0
LINE
8
0
10
10.093
20
4.250
11
10.093
21
4.644
0
0
LINE
8
0
10
10.093
20
4.644
11
10.093
21
4.671
0
0
LINE
8
0
10
10.093
20
4.671
11
10.093
21
4.677
0
0
LINE
8
0
10
10.093
20
4.677
11
10.093
21
4.687
0
0
LINE
8
0
10
10.093
20
4.687
11
10.093
21
4.704
0
0
LINE
8
0
10
10.093
20
4.704
11
10.093
21
4.710
0
0
LINE
8
0
10
10.093
20
4.710
11
10.093
21
4.734
0
0
LINE
8
0
10
10.093
20
4.734
11
10.093
21
4.741
0
0
LINE
8
0
10
10.093
20
4.741
11
10.093
21
4.744
0
0
LINE
8
0
10
10.093
20
4.744
11
10.093
21
5.586
0
0
LINE
8
0
10
10.093
20
5.586
11
10.093
21
5.604
0
0
LINE
8
0
10
10.093
20
5.604
11
10.093
21
5.632
0
0
LINE
8
0
10
10.093
20
5.632
11
10.093
21
6.038
0
0
LINE
8
0
10
10.093
20
6.038
11
10.093
21
6.252
0
0
LINE
8
0
10
10.093
20
6.252
11
10.093
21
7.320
0
0
LINE
8
0
10
10.093
20
7.320
11
10.093
21
7.560
0
0
LINE
8
0
10
10.093
20
7.560
11
10.093
21
7.824
0
0
LINE
8
0
10
10.093
20
7.824
11
10.093
21
7.922
0
0
LINE
8
0
10
10.093
20
7.922
11
10.093
21
8.068
0
0
LINE
8
0
10
10.093
20
8.068
11
10.093
21
8.253
0
0
LINE
8
0
10
10.093
20
8.253
11
10.093
21
9.321
0
0
LINE
8
0
10
10.093
20
9.321
11
10.093
21
9.491
0
0
LINE
8
0
10
10.093
20
9.491
11
10.093
21
9.735
0
0
LINE
8
0
10
10.093
20
9.735
11
10.093
21
9.999
0
0
LINE
8
0
10
10.093
20
9.999
11
10.093
21
10.255
0
0
LINE
8
0
10
10.093
20
10.255
11
10.093
21
11.323
0
0
LINE
8
0
10
10.093
20
11.323
11
10.093
21
11.536
0
0
LINE
8
0
10
10.093
20
11.536
11
10.093
21
11.666
0
0
LINE
8
0
10
10.093
20
11.666
11
10.093
21
12.885
0
0
LINE
8
0
10
10.093
20
12.885
11
10.093
21
13.149
0
0
LINE
8
0
10
10.093
20
13.149
11
10.093
21
13.238
0
0
LINE
8
0
10
10.093
20
13.238
11
10.093
21
13.466
0
0
LINE
8
0
10
10.093
20
13.466
11
10.093
21
14.393
0
0
LINE
8
0
10
10.093
20
14.393
11
10.093
21
14.631
0
0
LINE
8
0
10
12.593
20
0.455
11
12.593
21
0.714
0
0
LINE
8
0
10
12.593
20
0.455
11
12.593
21
0.714
0
0
LINE
8
0
10
12.593
20
0.714
11
12.593
21
0.936
0
0
LINE
8
0
10
12.593
20
0.936
11
12.593
21
2.048
0
0
LINE
8
0
10
12.593
20
2.048
11
12.593
21
2.186
0
0
LINE
8
0
10
12.593
20
2.186
11
12.593
21
2.430
0
0
LINE
8
0
10
12.593
20
2.430
11
12.593
21
2.694
0
0
LINE
8
0
10
12.593
20
2.694
11
12.593
21
2.926
0
0
LINE
8
0
10
12.593
20
2.926
11
12.593
21
3.994
0
0
LINE
8
0
10
12.593
20
3.994
11
12.593
21
4.207
0
0
LINE
8
0
10
12.593
20
4.207
11
12.593
21
4.604
0
0
LINE
8
0
10
12.593
20
4.604
11
12.593
21
4.611
0
0
LINE
8
0
10
12.593
20
4.611
11
12.593
21
4.617
0
0
LINE
8
0
10
12.593
20
4.617
11
12.593
21
4.627
0
0
LINE
8
0
10
12.593
20
4.627
11
12.593
21
4.644
0
0
LINE
8
0
10
12.593
20
4.644
11
12.593
21
4.650
0
0
LINE
8
0
10
12.593
20
4.650
11
12.593
21
4.674
0
0
LINE
8
0
10
12.593
20
4.674
11
12.593
21
4.681
0
0
LINE
8
0
10
12.593
20
4.681
11
12.593
21
4.684
0
0
LINE
8
0
10
12.593
20
4.684
11
12.593
21
5.526
0
0
LINE
8
0
10
12.593
20
5.526
11
12.593
21
5.544
0
0
LINE
8
0
10
12.593
20
5.544
11
12.593
21
5.574
0
0
LINE
8
0
10
12.593
20
5.574
11
12.593
21
5.595
0
0
LINE
8
0
10
12.593
20
5.595
11
12.593
21
5.995
0
0
LINE
8
0
10
12.593
20
5.995
11
12.593
21
6.209
0
0
LINE
8
0
10
12.593
20
6.209
11
12.593
21
7.277
0
0
LINE
8
0
10
12.593
20
7.277
11
12.593
21
7.511
0
0
LINE
8
0
10
12.593
20
7.511
11
12.593
21
7.775
0
0
LINE
8
0
10
12.593
20
7.775
11
12.593
21
7.922
0
0
LINE
8
0
10
12.593
20
7.922
11
12.593
21
8.019
0
0
LINE
8
0
10
12.593
20
8.019
11
12.593
21
8.210
0
0
LINE
8
0
10
12.593
20
8.210
11
12.593
21
9.278
0
0
LINE
8
0
10
12.593
20
9.278
11
12.593
21
9.492
0
0
LINE
8
0
10
12.593
20
9.492
11
12.593
21
9.686
0
0
LINE
8
0
10
12.593
20
9.686
11
12.593
21
9.950
0
0
LINE
8
0
10
12.593
20
9.950
11
12.593
21
10.212
0
0
LINE
8
0
10
12.593
20
10.212
11
12.593
21
11.280
0
0
LINE
8
0
10
12.593
20
11.280
11
12.593
21
11.494
0
0
LINE
8
0
10
12.593
20
11.494
11
12.593
21
11.617
0
0
LINE
8
0
10
12.593
20
11.617
11
12.593
21
12.836
0
0
LINE
8
0
10
12.593
20
12.836
11
12.593
21
13.101
0
0
LINE
8
0
10
12.593
20
13.101
11
12.593
21
13.194
0
0
LINE
8
0
10
12.593
20
13.194
11
12.593
21
13.422
0
0
LINE
8
0
10
12.593
20
13.422
11
12.593
21
14.396
0
0
LINE
8
0
10
12.593
20
14.396
11
12.593
21
14.635
0
0
LINE
8
0
10
0.450
20
2.592
11
1.010
21
2.592
0
0
LINE
8
0
10
0.450
20
2.592
11
1.010
21
2.592
0
0
LINE
8
0
10
1.010
20
2.592
11
1.738
21
2.592
0
0
LINE
8
0
10
1.738
20
2.592
11
1.960
21
2.592
0
0
LINE
8
0
10
1.960
20
2.592
11
2.092
21
2.592
0
0
LINE
8
0
10
2.092
20
2.592
11
2.356
21
2.592
0
0
LINE
8
0
10
2.356
20
2.592
11
3.576
21
2.592
0
0
LINE
8
0
10
3.576
20
2.592
11
3.698
21
2.592
0
0
LINE
8
0
10
3.698
20
2.592
11
3.911
21
2.592
0
0
LINE
8
0
10
3.911
20
2.592
11
4.979
21
2.592
0
0
LINE
8
0
10
4.979
20
2.592
11
5.242
21
2.592
0
0
LINE
8
0
10
5.242
20
2.592
11
5.507
21
2.592
0
0
LINE
8
0
10
5.507
20
2.592
11
5.699
21
2.592
0
0
LINE
8
0
10
5.699
20
2.592
11
5.913
21
2.592
0
0
LINE
8
0
10
5.913
20
2.592
11
6.981
21
2.592
0
0
LINE
8
0
10
6.981
20
2.592
11
7.173
21
2.592
0
0
LINE
8
0
10
7.173
20
2.592
11
7.417
21
2.592
0
0
LINE
8
0
10
7.417
20
2.592
11
7.681
21
2.592
0
0
LINE
8
0
10
7.681
20
2.592
11
7.915
21
2.592
0
0
LINE
8
0
10
7.915
20
2.592
11
8.983
21
2.592
0
0
LINE
8
0
10
8.983
20
2.592
11
9.196
21
2.592
0
0
LINE
8
0
10
9.196
20
2.592
11
9.595
21
2.592
0
0
LINE
8
0
10
9.595
20
2.592
11
9.620
21
2.592
0
0
LINE
8
0
10
9.620
20
2.592
11
9.650
21
2.592
0
0
LINE
8
0
10
9.650
20
2.592
11
9.668
21
2.592
0
0
LINE
8
0
10
9.668
20
2.592
11
10.510
21
2.592
0
0
LINE
8
0
10
10.510
20
2.592
11
10.513
21
2.592
0
0
LINE
8
0
10
10.513
20
2.592
11
10.520
21
2.592
0
0
LINE
8
0
10
10.520
20
2.592
11
10.544
21
2.592
0
0
LINE
8
0
10
10.544
20
2.592
11
10.550
21
2.592
0
0
LINE
8
0
10
10.550
20
2.592
11
10.567
21
2.592
0
0
LINE
8
0
10
10.567
20
2.592
11
10.577
21
2.592
0
0
LINE
8
0
10
10.577
20
2.592
11
10.583
21
2.592
0
0
LINE
8
0
10
10.583
20
2.592
11
10.586
21
2.592
0
0
LINE
8
0
10
10.586
20
2.592
11
10.984
21
2.592
0
0
LINE
8
0
10
10.984
20
2.592
11
11.198
21
2.592
0
0
LINE
8
0
10
11.198
20
2.592
11
12.266
21
2.592
0
0
LINE
8
0
10
12.266
20
2.592
11
12.498
21
2.592
0
0
LINE
8
0
10
12.498
20
2.592
11
12.763
21
2.592
0
0
LINE
8
0
10
12.763
20
2.592
11
13.007
21
2.592
0
0
LINE
8
0
10
13.007
20
2.592
11
13.148
21
2.592
0
0
LINE
8
0
10
13.148
20
2.592
11
14.256
21
2.592
0
0
LINE
8
0
10
14.256
20
2.592
11
14.478
21
2.592
0
0
LINE
8
0
10
14.478
20
2.592
11
14.739
21
2.592
0
0
LINE
8
0
10
0.513
20
5.092
11
0.902
21
5.092
0
0
LINE
8
0
10
0.513
20
5.092
11
0.902
21
5.092
0
0
LINE
8
0
10
0.902
20
5.092
11
1.693
21
5.092
0
0
LINE
8
0
10
1.693
20
5.092
11
1.919
21
5.092
0
0
LINE
8
0
10
1.919
20
5.092
11
2.237
21
5.092
0
0
LINE
8
0
10
2.237
20
5.092
11
2.242
21
5.092
0
0
LINE
8
0
10
2.242
20
5.092
11
3.221
21
5.092
0
0
LINE
8
0
10
3.221
20
5.092
11
3.635
21
5.092
0
0
LINE
8
0
10
3.635
20
5.092
11
3.849
21
5.092
0
0
LINE
8
0
10
3.849
20
5.092
11
4.917
21
5.092
0
0
LINE
8
0
10
4.917
20
5.092
11
5.170
21
5.092
0
0
LINE
8
0
10
5.170
20
5.092
11
5.435
21
5.092
0
0
LINE
8
0
10
5.435
20
5.092
11
5.679
21
5.092
0
0
LINE
8
0
10
5.679
20
5.092
11
5.850
21
5.092
0
0
LINE
8
0
10
5.850
20
5.092
11
6.918
21
5.092
0
0
LINE
8
0
10
6.918
20
5.092
11
7.101
21
5.092
0
0
LINE
8
0
10
7.101
20
5.092
11
7.345
21
5.092
0
0
LINE
8
0
10
7.345
20
5.092
11
7.610
21
5.092
0
0
LINE
8
0
10
7.610
20
5.092
11
7.852
21
5.092
0
0
LINE
8
0
10
7.852
20
5.092
11
8.920
21
5.092
0
0
LINE
8
0
10
8.920
20
5.092
11
9.134
21
5.092
0
0
LINE
8
0
10
9.134
20
5.092
11
9.541
21
5.092
0
0
LINE
8
0
10
9.541
20
5.092
11
9.562
21
5.092
0
0
LINE
8
0
10
9.562
20
5.092
11
9.580
21
5.092
0
0
LINE
8
0
10
9.580
20
5.092
11
10.422
21
5.092
0
0
LINE
8
0
10
10.422
20
5.092
11
10.425
21
5.092
0
0
LINE
8
0
10
10.425
20
5.092
11
10.432
21
5.092
0
0
LINE
8
0
10
10.432
20
5.092
11
10.456
21
5.092
0
0
LINE
8
0
10
10.456
20
5.092
11
10.462
21
5.092
0
0
LINE
8
0
10
10.462
20
5.092
11
10.479
21
5.092
0
0
LINE
8
0
10
10.479
20
5.092
11
10.489
21
5.092
0
0
LINE
8
0
10
10.489
20
5.092
11
10.495
21
5.092
0
0
LINE
8
0
10
10.495
20
5.092
11
10.505
21
5.092
0
0
LINE
8
0
10
10.505
20
5.092
11
10.524
21
5.092
0
0
LINE
8
0
10
10.524
20
5.092
11
10.528
21
5.092
0
0
LINE
8
0
10
10.528
20
5.092
11
10.921
21
5.092
0
0
LINE
8
0
10
10.921
20
5.092
11
11.135
21
5.092
0
0
LINE
8
0
10
11.135
20
5.092
11
12.203
21
5.092
0
0
LINE
8
0
10
12.203
20
5.092
11
12.427
21
5.092
0
0
LINE
8
0
10
12.427
20
5.092
11
12.691
21
5.092
0
0
LINE
8
0
10
12.691
20
5.092
11
12.935
21
5.092
0
0
LINE
8
0
10
12.935
20
5.092
11
13.044
21
5.092
0
0
LINE
8
0
10
13.044
20
5.092
11
14.182
21
5.092
0
0
LINE
8
0
10
14.182
20
5.092
11
14.409
21
5.092
0
0
LINE
8
0
10
14.409
20
5.092
11
14.651
21
5.092
0
0
LINE
8
0
10
0.576
20
7.592
11
0.800
21
7.592
0
0
LINE
8
0
10
0.576
20
7.592
11
0.800
21
7.592
0
0
LINE
8
0
10
0.800
20
7.592
11
1.691
21
7.592
0
0
LINE
8
0
10
1.691
20
7.592
11
1.921
21
7.592
0
0
LINE
8
0
10
1.921
20
7.592
11
2.220
21
7.592
0
0
LINE
8
0
10
2.220
20
7.592
11
2.237
21
7.592
0
0
LINE
8
0
10
2.237
20
7.592
11
2.242
21
7.592
0
0
LINE
8
0
10
2.242
20
7.592
11
2.246
21
7.592
0
0
LINE
8
0
10
2.246
20
7.592
11
2.251
21
7.592
0
0
LINE
8
0
10
2.251
20
7.592
11
2.266
21
7.592
0
0
LINE
8
0
10
2.266
20
7.592
11
2.270
21
7.592
0
0
LINE
8
0
10
2.270
20
7.592
11
2.275
21
7.592
0
0
LINE
8
0
10
2.275
20
7.592
11
3.202
21
7.592
0
0
LINE
8
0
10
3.202
20
7.592
11
3.617
21
7.592
0
0
LINE
8
0
10
3.617
20
7.592
11
3.831
21
7.592
0
0
LINE
8
0
10
3.831
20
7.592
11
4.899
21
7.592
0
0
LINE
8
0
10
4.899
20
7.592
11
5.150
21
7.592
0
0
LINE
8
0
10
5.150
20
7.592
11
5.415
21
7.592
0
0
LINE
8
0
10
5.415
20
7.592
11
5.659
21
7.592
0
0
LINE
8
0
10
5.659
20
7.592
11
5.832
21
7.592
0
0
LINE
8
0
10
5.832
20
7.592
11
5.849
21
7.592
0
0
LINE
8
0
10
5.849
20
7.592
11
6.901
21
7.592
0
0
LINE
8
0
10
6.901
20
7.592
11
7.081
21
7.592
0
0
LINE
8
0
10
7.081
20
7.592
11
7.325
21
7.592
0
0
LINE
8
0
10
7.325
20
7.592
11
7.590
21
7.592
0
0
LINE
8
0
10
7.590
20
7.592
11
7.834
21
7.592
0
0
LINE
8
0
10
7.834
20
7.592
11
8.902
21
7.592
0
0
LINE
8
0
10
8.902
20
7.592
11
9.116
21
7.592
0
0
LINE
8
0
10
9.116
20
7.592
11
9.526
21
7.592
0
0
LINE
8
0
10
9.526
20
7.592
11
9.531
21
7.592
0
0
LINE
8
0
10
9.531
20
7.592
11
9.555
21
7.592
0
0
LINE
8
0
10
9.555
20
7.592
11
10.397
21
7.592
0
0
LINE
8
0
10
10.397
20
7.592
11
10.400
21
7.592
0
0
LINE
8
0
10
10.400
20
7.592
11
10.413
21
7.592
0
0
LINE
8
0
10
10.413
20
7.592
11
10.431
21
7.592
0
0
LINE
8
0
10
10.431
20
7.592
11
10.437
21
7.592
0
0
LINE
8
0
10
10.437
20
7.592
11
10.454
21
7.592
0
0
LINE
8
0
10
10.454
20
7.592
11
10.464
21
7.592
0
0
LINE
8
0
10
10.464
20
7.592
11
10.470
21
7.592
0
0
LINE
8
0
10
10.470
20
7.592
11
10.480
21
7.592
0
0
LINE
8
0
10
10.480
20
7.592
11
10.499
21
7.592
0
0
LINE
8
0
10
10.499
20
7.592
11
10.508
21
7.592
0
0
LINE
8
0
10
10.508
20
7.592
11
10.511
21
7.592
0
0
LINE
8
0
10
10.511
20
7.592
11
10.904
21
7.592
0
0
LINE
8
0
10
10.904
20
7.592
11
11.117
21
7.592
0
0
LINE
8
0
10
11.117
20
7.592
11
12.185
21
7.592
0
0
LINE
8
0
10
12.185
20
7.592
11
12.406
21
7.592
0
0
LINE
8
0
10
12.406
20
7.592
11
12.671
21
7.592
0
0
LINE
8
0
10
12.671
20
7.592
11
12.915
21
7.592
0
0
LINE
8
0
10
12.915
20
7.592
11
13.016
21
7.592
0
0
LINE
8
0
10
13.016
20
7.592
11
14.160
21
7.592
0
0
LINE
8
0
10
14.160
20
7.592
11
14.389
21
7.592
0
0
LINE
8
0
10
14.389
20
7.592
11
14.626
21
7.592
0
0
LINE
8
0
10
0.514
20
10.092
11
0.760
21
10.092
0
0
LINE
8
0
10
0.514
20
10.092
11
0.760
21
10.092
0
0
LINE
8
0
10
0.760
20
10.092
11
1.674
21
10.092
0
0
LINE
8
0
10
1.674
20
10.092
11
1.900
21
10.092
0
0
LINE
8
0
10
1.900
20
10.092
11
2.220
21
10.092
0
0
LINE
8
0
10
2.220
20
10.092
11
2.237
21
10.092
0
0
LINE
8
0
10
2.237
20
10.092
11
2.242
21
10.092
0
0
LINE
8
0
10
2.242
20
10.092
11
2.246
21
10.092
0
0
LINE
8
0
10
2.246
20
10.092
11
2.251
21
10.092
0
0
LINE
8
0
10
2.251
20
10.092
11
2.266
21
10.092
0
0
LINE
8
0
10
2.266
20
10.092
11
2.270
21
10.092
0
0
LINE
8
0
10
2.270
20
10.092
11
2.275
21
10.092
0
0
LINE
8
0
10
2.275
20
10.092
11
3.202
21
10.092
0
0
LINE
8
0
10
3.202
20
10.092
11
3.617
21
10.092
0
0
LINE
8
0
10
3.617
20
10.092
11
3.831
21
10.092
0
0
LINE
8
0
10
3.831
20
10.092
11
4.899
21
10.092
0
0
LINE
8
0
10
4.899
20
10.092
11
5.150
21
10.092
0
0
LINE
8
0
10
5.150
20
10.092
11
5.415
21
10.092
0
0
LINE
8
0
10
5.415
20
10.092
11
5.659
21
10.092
0
0
LINE
8
0
10
5.659
20
10.092
11
5.832
21
10.092
0
0
LINE
8
0
10
5.832
20
10.092
11
5.837
21
10.092
0
0
LINE
8
0
10
5.837
20
10.092
11
6.901
21
10.092
0
0
LINE
8
0
10
6.901
20
10.092
11
7.081
21
10.092
0
0
LINE
8
0
10
7.081
20
10.092
11
7.325
21
10.092
0
0
LINE
8
0
10
7.325
20
10.092
11
7.590
21
10.092
0
0
LINE
8
0
10
7.590
20
10.092
11
7.834
21
10.092
0
0
LINE
8
0
10
7.834
20
10.092
11
8.902
21
10.092
0
0
LINE
8
0
10
8.902
20
10.092
11
9.116
21
10.092
0
0
LINE
8
0
10
9.116
20
10.092
11
9.526
21
10.092
0
0
LINE
8
0
10
9.526
20
10.092
11
9.531
21
10.092
0
0
LINE
8
0
10
9.531
20
10.092
11
9.555
21
10.092
0
0
LINE
8
0
10
9.555
20
10.092
11
10.397
21
10.092
0
0
LINE
8
0
10
10.397
20
10.092
11
10.400
21
10.092
0
0
LINE
8
0
10
10.400
20
10.092
11
10.413
21
10.092
0
0
LINE
8
0
10
10.413
20
10.092
11
10.431
21
10.092
0
0
LINE
8
0
10
10.431
20
10.092
11
10.437
21
10.092
0
0
LINE
8
0
10
10.437
20
10.092
11
10.454
21
10.092
0
0
LINE
8
0
10
10.454
20
10.092
11
10.464
21
10.092
0
0
LINE
8
0
10
10.464
20
10.092
11
10.470
21
10.092
0
0
LINE
8
0
10
10.470
20
10.092
11
10.480
21
10.092
0
0
LINE
8
0
10
10.480
20
10.092
11
10.499
21
10.092
0
0
LINE
8
0
10
10.499
20
10.092
11
10.508
21
10.092
0
0
LINE
8
0
10
10.508
20
10.092
11
10.511
21
10.092
0
0
LINE
8
0
10
10.511
20
10.092
11
10.904
21
10.092
0
0
LINE
8
0
10
10.904
20
10.092
11
11.117
21
10.092
0
0
LINE
8
0
10
11.117
20
10.092
11
12.185
21
10.092
0
0
LINE
8
0
10
12.185
20
10.092
11
12.406
21
10.092
0
0
LINE
8
0
10
12.406
20
10.092
11
12.671
21
10.092
0
0
LINE
8
0
10
12.671
20
10.092
11
12.915
21
10.092
0
0
LINE
8
0
10
12.915
20
10.092
11
13.016
21
10.092
0
0
LINE
8
0
10
13.016
20
10.092
11
14.160
21
10.092
0
0
LINE
8
0
10
14.160
20
10.092
11
14.557
21
10.092
0
0
LINE
8
0
10
14.557
20
10.092
11
14.626
21
10.092
0
0
LINE
8
0
10
0.438
20
12.592
11
0.701
21
12.592
0
0
LINE
8
0
10
0.438
20
12.592
11
0.701
21
12.592
0
0
LINE
8
0
10
0.701
20
12.592
11
1.650
21
12.592
0
0
LINE
8
0
10
1.650
20
12.592
11
1.871
21
12.592
0
0
LINE
8
0
10
1.871
20
12.592
11
2.220
21
12.592
0
0
LINE
8
0
10
2.220
20
12.592
11
2.225
21
12.592
0
0
LINE
8
0
10
2.225
20
12.592
11
2.237
21
12.592
0
0
LINE
8
0
10
2.237
20
12.592
11
2.242
21
12.592
0
0
LINE
8
0
10
2.242
20
12.592
11
2.246
21
12.592
0
0
LINE
8
0
10
2.246
20
12.592
11
2.251
21
12.592
0
0
LINE
8
0
10
2.251
20
12.592
11
2.266
21
12.592
0
0
LINE
8
0
10
2.266
20
12.592
11
2.270
21
12.592
0
0
LINE
8
0
10
2.270
20
12.592
11
2.275
21
12.592
0
0
LINE
8
0
10
2.275
20
12.592
11
3.202
21
12.592
0
0
LINE
8
0
10
3.202
20
12.592
11
3.617
21
12.592
0
0
LINE
8
0
10
3.617
20
12.592
11
3.831
21
12.592
0
0
LINE
8
0
10
3.831
20
12.592
11
4.899
21
12.592
0
0
LINE
8
0
10
4.899
20
12.592
11
5.150
21
12.592
0
0
LINE
8
0
10
5.150
20
12.592
11
5.415
21
12.592
0
0
LINE
8
0
10
5.415
20
12.592
11
5.659
21
12.592
0
0
LINE
8
0
10
5.659
20
12.592
11
5.832
21
12.592
0
0
LINE
8
0
10
5.832
20
12.592
11
5.839
21
12.592
0
0
LINE
8
0
10
5.839
20
12.592
11
6.901
21
12.592
0
0
LINE
8
0
10
6.901
20
12.592
11
7.081
21
12.592
0
0
LINE
8
0
10
7.081
20
12.592
11
7.325
21
12.592
0
0
LINE
8
0
10
7.325
20
12.592
11
7.590
21
12.592
0
0
LINE
8
0
10
7.590
20
12.592
11
7.834
21
12.592
0
0
LINE
8
0
10
7.834
20
12.592
11
8.902
21
12.592
0
0
LINE
8
0
10
8.902
20
12.592
11
9.116
21
12.592
0
0
LINE
8
0
10
9.116
20
12.592
11
9.526
21
12.592
0
0
LINE
8
0
10
9.526
20
12.592
11
9.531
21
12.592
0
0
LINE
8
0
10
9.531
20
12.592
11
9.555
21
12.592
0
0
LINE
8
0
10
9.555
20
12.592
11
10.397
21
12.592
0
0
LINE
8
0
10
10.397
20
12.592
11
10.400
21
12.592
0
0
LINE
8
0
10
10.400
20
12.592
11
10.419
21
12.592
0
0
LINE
8
0
10
10.419
20
12.592
11
10.437
21
12.592
0
0
LINE
8
0
10
10.437
20
12.592
11
10.454
21
12.592
0
0
LINE
8
0
10
10.454
20
12.592
11
10.464
21
12.592
0
0
LINE
8
0
10
10.464
20
12.592
11
10.470
21
12.592
0
0
LINE
8
0
10
10.470
20
12.592
11
10.480
21
12.592
0
0
LINE
8
0
10
10.480
20
12.592
11
10.499
21
12.592
0
0
LINE
8
0
10
10.499
20
12.592
11
10.508
21
12.592
0
0
LINE
8
0
10
10.508
20
12.592
11
10.511
21
12.592
0
0
LINE
8
0
10
10.511
20
12.592
11
10.904
21
12.592
0
0
LINE
8
0
10
10.904
20
12.592
11
11.117
21
12.592
0
0
LINE
8
0
10
11.117
20
12.592
11
12.185
21
12.592
0
0
LINE
8
0
10
12.185
20
12.592
11
12.406
21
12.592
0
0
LINE
8
0
10
12.406
20
12.592
11
12.671
21
12.592
0
0
LINE
8
0
10
12.671
20
12.592
11
12.915
21
12.592
0
0
LINE
8
0
10
12.915
20
12.592
11
13.016
21
12.592
0
0
LINE
8
0
10
13.016
20
12.592
11
14.160
21
12.592
0
0
LINE
8
0
10
14.160
20
12.592
11
14.389
21
12.592
0
0
LINE
8
0
10
14.389
20
12.592
11
14.626
21
12.592
0
0
ENDSEC
0
EOF
