  0
SECTION
  2
HEADER
  9
$ACADVER
  1
AC1009
  9
$DWGCODEPAGE
  3
ANSI_1252
  9
$INSBASE
 10
0.0
 20
0.0
 30
0.0
  9
$EXTMIN
 10
1e+20
 20
1e+20
 30
1e+20
  9
$EXTMAX
 10
-1e+20
 20
-1e+20
 30
-1e+20
  9
$LIMMIN
 10
0.0
 20
0.0
  9
$LIMMAX
 10
420.0
 20
297.0
  9
$ORTHOMODE
 70
0
  9
$REGENMODE
 70
1
  9
$FILLMODE
 70
1
  9
$DRAGMODE
 70
2
  9
$QTEXTMODE
 70
0
  9
$MIRRTEXT
 70
1
  9
$OSMODE
 70
20583
  9
$LTSCALE
 40
1.0
  9
$ATTMODE
 70
1
  9
$TEXTSIZE
 40
2.5
  9
$TRACEWID
 40
1.0
  9
$TEXTSTYLE
  7
Standard
  9
$CLAYER
  8
0
  9
$CELTYPE
  6
ByLayer
  9
$CECOLOR
 62
256
  9
$DIMSCALE
 40
1.0
  9
$DIMASZ
 40
2.5
  9
$DIMEXO
 40
0.625
  9
$DIMDLI
 40
3.75
  9
$DIMRND
 40
0.0
  9
$DIMDLE
 40
0.0
  9
$DIMEXE
 40
1.25
  9
$DIMTP
 40
0.0
  9
$DIMTM
 40
0.0
  9
$DIMTXT
 40
2.5
  9
$DIMCEN
 40
2.5
  9
$DIMTSZ
 40
0.0
  9
$DIMTOL
 70
0
  9
$DIMLIM
 70
0
  9
$DIMTIH
 70
0
  9
$DIMTOH
 70
0
  9
$DIMSE1
 70
0
  9
$DIMSE2
 70
0
  9
$DIMTAD
 70
1
  9
$DIMZIN
 70
8
  9
$DIMBLK
  1

  9
$DIMASO
 70
1
  9
$DIMSHO
 70
1
  9
$DIMPOST
  1

  9
$DIMAPOST
  1

  9
$DIMALT
 70
0
  9
$DIMALTD
 70
3
  9
$DIMALTF
 40
0.03937007874
  9
$DIMLFAC
 40
1.0
  9
$DIMTOFL
 70
1
  9
$DIMTVP
 40
0.0
  9
$DIMTIX
 70
0
  9
$DIMSOXD
 70
0
  9
$DIMSAH
 70
0
  9
$DIMBLK1
  1

  9
$DIMBLK2
  1

  9
$DIMSTYLE
  2
ISO-25
  9
$DIMCLRD
 70
0
  9
$DIMCLRE
 70
0
  9
$DIMCLRT
 70
0
  9
$DIMTFAC
 40
1.0
  9
$DIMGAP
 40
0.625
  9
$COORDS
 70
1
  9
$ATTDIA
 70
0
  9
$ATTREQ
 70
1
  9
$HANDLING
 70
1
  9
$LUNITS
 70
2
  9
$LUPREC
 70
4
  9
$SKETCHINC
 40
1.0
  9
$FILLETRAD
 40
10.0
  9
$AUNITS
 70
0
  9
$AUPREC
 70
2
  9
$MENU
  1
.
  9
$ELEVATION
 40
0.0
  9
$PELEVATION
 40
0.0
  9
$THICKNESS
 40
0.0
  9
$LIMCHECK
 70
0
  9
$CHAMFERA
 40
0.0
  9
$CHAMFERB
 40
0.0
  9
$SKPOLY
 70
0
  9
$TDCREATE
 40
2460888.3941550925
  9
$TDUPDATE
 40
2460888.3941550925
  9
$TDINDWG
 40
0.0
  9
$TDUSRTIMER
 40
0.0
  9
$USRTIMER
 70
1
  9
$ANGBASE
 50
0.0
  9
$ANGDIR
 70
0
  9
$PDMODE
 70
0
  9
$PDSIZE
 40
0.0
  9
$PLINEWID
 40
0.0
  9
$SPLFRAME
 70
0
  9
$SPLINETYPE
 70
6
  9
$SPLINESEGS
 70
8
  9
$HANDSEED
  5
7D0
  9
$SURFTAB1
 70
6
  9
$SURFTAB2
 70
6
  9
$SURFTYPE
 70
6
  9
$SURFU
 70
6
  9
$SURFV
 70
6
  9
$UCSNAME
  2

  9
$UCSORG
 10
0.0
 20
0.0
 30
0.0
  9
$UCSXDIR
 10
1.0
 20
0.0
 30
0.0
  9
$UCSYDIR
 10
0.0
 20
1.0
 30
0.0
  9
$PUCSNAME
  2

  9
$PUCSORG
 10
0.0
 20
0.0
 30
0.0
  9
$PUCSXDIR
 10
1.0
 20
0.0
 30
0.0
  9
$PUCSYDIR
 10
0.0
 20
1.0
 30
0.0
  9
$USERI1
 70
0
  9
$USERI2
 70
0
  9
$USERI3
 70
0
  9
$USERI4
 70
0
  9
$USERI5
 70
0
  9
$USERR1
 40
0.0
  9
$USERR2
 40
0.0
  9
$USERR3
 40
0.0
  9
$USERR4
 40
0.0
  9
$USERR5
 40
0.0
  9
$WORLDVIEW
 70
1
  9
$SHADEDGE
 70
3
  9
$SHADEDIF
 70
70
  9
$TILEMODE
 70
1
  9
$MAXACTVP
 70
64
  9
$PLIMCHECK
 70
0
  9
$PEXTMIN
 10
1e+20
 20
1e+20
 30
1e+20
  9
$PEXTMAX
 10
-1e+20
 20
-1e+20
 30
-1e+20
  9
$PLIMMIN
 10
0.0
 20
0.0
  9
$PLIMMAX
 10
420.0
 20
297.0
  9
$UNITMODE
 70
0
  9
$VISRETAIN
 70
1
  9
$PLINEGEN
 70
0
  9
$PSLTSCALE
 70
1
  0
ENDSEC
  0
SECTION
  2
TABLES
  0
TABLE
  2
VPORT
 70
1
  0
VPORT
  5
23
  2
*Active
 70
0
 10
0.0
 20
0.0
 11
1.0
 21
1.0
 12
0.0
 22
0.0
 13
0.0
 23
0.0
 14
0.5
 24
0.5
 15
0.5
 25
0.5
 16
0.0
 26
0.0
 36
1.0
 17
0.0
 27
0.0
 37
0.0
 40
1000.0
 41
1.34
 42
50.0
 43
0.0
 44
0.0
 50
0.0
 51
0.0
 71
0
 72
1000
 73
1
 74
3
 75
0
 76
0
 77
0
 78
0
  0
ENDTAB
  0
TABLE
  2
LTYPE
 70
3
  0
LTYPE
  5
24
  2
ByBlock
 70
0
  3

 72
65
 73
0
 40
0.0
  0
LTYPE
  5
25
  2
ByLayer
 70
0
  3

 72
65
 73
0
 40
0.0
  0
LTYPE
  5
26
  2
Continuous
 70
0
  3

 72
65
 73
0
 40
0.0
  0
ENDTAB
  0
TABLE
  2
LAYER
 70
2
  0
LAYER
  5
27
  2
0
 70
0
 62
7
  6
Continuous
  0
LAYER
  5
28
  2
Defpoints
 70
0
 62
7
  6
Continuous
  0
ENDTAB
  0
TABLE
  2
STYLE
 70
1
  0
STYLE
  5
29
  2
Standard
 70
0
 40
0.0
 41
1.0
 50
0.0
 71
0
 42
2.5
  3
txt
  4

  0
ENDTAB
  0
TABLE
  2
VIEW
 70
0
  0
ENDTAB
  0
TABLE
  2
UCS
 70
0
  0
ENDTAB
  0
TABLE
  2
APPID
 70
3
  0
APPID
  5
2A
  2
ACAD
 70
0
  0
APPID
  5
7CE
  2
HATCHBACKGROUNDCOLOR
 70
0
  0
APPID
  5
7CF
  2
EZDXF
 70
0
  0
ENDTAB
  0
TABLE
  2
DIMSTYLE
 70
1
  0
DIMSTYLE
105
2B
  2
Standard
 70
0
  3

  4

  5

  6

  7

 40
1.0
 41
2.5
 42
0.625
 43
3.75
 44
1.25
 45
0.0
 46
0.0
 47
0.0
 48
0.0
140
2.5
141
2.5
142
0.0
143
0.03937007874
144
1.0
145
0.0
146
1.0
147
0.625
 71
0
 72
0
 73
0
 74
0
 75
0
 76
0
 77
1
 78
8
170
0
171
3
172
1
173
0
174
0
175
0
176
0
177
0
178
0
  0
ENDTAB
  0
ENDSEC
  0
SECTION
  2
BLOCKS
  0
BLOCK
  5
18
  8
0
  2
$Model_Space
 70
0
 10
0.0
 20
0.0
 30
0.0
  3
$Model_Space
  1

1001
EZDXF
1000
CREATED_BY_EZDXF
1000
1.4.2 @ 2025-07-31T12:27:35.623642+00:00
1000
WRITTEN_BY_EZDXF
1000
1.4.2 @ 2025-07-31T12:27:35.717390+00:00
  0
ENDBLK
  5
19
  8
0
  0
BLOCK
  5
1C
  8
0
  2
$Paper_Space
 70
0
 10
0.0
 20
0.0
 30
0.0
  3
$Paper_Space
  1

  0
ENDBLK
  5
1D
  8
0
  0
ENDSEC
  0
SECTION
  2
ENTITIES
  0
LINE
  5
2D
  8
0
 10
2.430934
 20
0.432046
 30
0.0
 11
7.105975
 21
0.579795
 31
0.0
  0
LINE
  5
2E
  8
0
 10
7.105975
 20
0.579795
 30
0.0
 11
12.857793
 21
0.448344
 31
0.0
  0
LINE
  5
2F
  8
0
 10
12.857793
 20
0.448344
 30
0.0
 11
13.962674
 21
0.604324
 31
0.0
  0
LINE
  5
30
  8
0
 10
13.962674
 20
0.604324
 30
0.0
 11
14.307145
 21
0.793033
 31
0.0
  0
LINE
  5
31
  8
0
 10
14.307145
 20
0.793033
 30
0.0
 11
14.639322
 21
1.396908
 31
0.0
  0
LINE
  5
32
  8
0
 10
14.639322
 20
1.396908
 30
0.0
 11
14.747751
 21
2.353314
 31
0.0
  0
LINE
  5
33
  8
0
 10
14.747751
 20
2.353314
 30
0.0
 11
14.62622
 21
14.581395
 31
0.0
  0
LINE
  5
34
  8
0
 10
14.62622
 20
14.581395
 30
0.0
 11
2.384446
 21
14.748804
 31
0.0
  0
LINE
  5
35
  8
0
 10
2.384446
 20
14.748804
 30
0.0
 11
1.237524
 21
14.599622
 31
0.0
  0
LINE
  5
36
  8
0
 10
1.237524
 20
14.599622
 30
0.0
 11
0.804225
 21
14.321734
 31
0.0
  0
LINE
  5
37
  8
0
 10
0.804225
 20
14.321734
 30
0.0
 11
0.514276
 21
13.610773
 31
0.0
  0
LINE
  5
38
  8
0
 10
0.514276
 20
13.610773
 30
0.0
 11
0.435359
 21
12.686589
 31
0.0
  0
LINE
  5
39
  8
0
 10
0.435359
 20
12.686589
 30
0.0
 11
0.580386
 21
7.74436
 31
0.0
  0
LINE
  5
3A
  8
0
 10
0.580386
 20
7.74436
 30
0.0
 11
0.467632
 21
2.000907
 31
0.0
  0
LINE
  5
3B
  8
0
 10
0.467632
 20
2.000907
 30
0.0
 11
0.588383
 21
1.266476
 31
0.0
  0
LINE
  5
3C
  8
0
 10
0.588383
 20
1.266476
 30
0.0
 11
0.958119
 21
0.734873
 31
0.0
  0
LINE
  5
3D
  8
0
 10
0.958119
 20
0.734873
 30
0.0
 11
2.430934
 21
0.432046
 31
0.0
  0
LINE
  5
3E
  8
0
 10
2.430934
 20
0.432046
 30
0.0
 11
2.430934
 21
0.432046
 31
0.0
  0
LINE
  5
3F
  8
0
 10
2.430934
 20
0.432046
 30
0.0
 11
7.105975
 21
0.579795
 31
0.0
  0
LINE
  5
40
  8
0
 10
7.105975
 20
0.579795
 30
0.0
 11
12.857793
 21
0.448344
 31
0.0
  0
LINE
  5
41
  8
0
 10
12.857793
 20
0.448344
 30
0.0
 11
13.962674
 21
0.604324
 31
0.0
  0
LINE
  5
42
  8
0
 10
13.962674
 20
0.604324
 30
0.0
 11
14.307145
 21
0.793033
 31
0.0
  0
LINE
  5
43
  8
0
 10
14.307145
 20
0.793033
 30
0.0
 11
14.639322
 21
1.396908
 31
0.0
  0
LINE
  5
44
  8
0
 10
14.639322
 20
1.396908
 30
0.0
 11
14.747751
 21
2.353314
 31
0.0
  0
LINE
  5
45
  8
0
 10
14.747751
 20
2.353314
 30
0.0
 11
14.62622
 21
14.581395
 31
0.0
  0
LINE
  5
46
  8
0
 10
14.62622
 20
14.581395
 30
0.0
 11
2.384446
 21
14.748804
 31
0.0
  0
LINE
  5
47
  8
0
 10
2.384446
 20
14.748804
 30
0.0
 11
1.237524
 21
14.599622
 31
0.0
  0
LINE
  5
48
  8
0
 10
1.237524
 20
14.599622
 30
0.0
 11
0.804225
 21
14.321734
 31
0.0
  0
LINE
  5
49
  8
0
 10
0.804225
 20
14.321734
 30
0.0
 11
0.514276
 21
13.610773
 31
0.0
  0
LINE
  5
4A
  8
0
 10
0.514276
 20
13.610773
 30
0.0
 11
0.435359
 21
12.686589
 31
0.0
  0
LINE
  5
4B
  8
0
 10
0.435359
 20
12.686589
 30
0.0
 11
0.580386
 21
7.74436
 31
0.0
  0
LINE
  5
4C
  8
0
 10
0.580386
 20
7.74436
 30
0.0
 11
0.467632
 21
2.000907
 31
0.0
  0
LINE
  5
4D
  8
0
 10
0.467632
 20
2.000907
 30
0.0
 11
0.588383
 21
1.266476
 31
0.0
  0
LINE
  5
4E
  8
0
 10
0.588383
 20
1.266476
 30
0.0
 11
0.958119
 21
0.734873
 31
0.0
  0
LINE
  5
4F
  8
0
 10
0.958119
 20
0.734873
 30
0.0
 11
2.430934
 21
0.432046
 31
0.0
  0
LINE
  5
50
  8
0
 10
2.430934
 20
0.432046
 30
0.0
 11
2.430934
 21
0.432046
 31
0.0
  0
LINE
  5
51
  8
0
 10
0.592849
 20
1.254
 30
0.0
 11
0.592849
 21
1.295841
 31
0.0
  0
LINE
  5
52
  8
0
 10
0.592849
 20
1.254
 30
0.0
 11
0.592849
 21
1.295841
 31
0.0
  0
LINE
  5
53
  8
0
 10
0.592849
 20
1.295841
 30
0.0
 11
0.592849
 21
1.428476
 31
0.0
  0
LINE
  5
54
  8
0
 10
0.592849
 20
1.428476
 30
0.0
 11
0.592849
 21
2.265532
 31
0.0
  0
LINE
  5
55
  8
0
 10
0.592849
 20
2.265532
 30
0.0
 11
0.592849
 21
2.928435
 31
0.0
  0
LINE
  5
56
  8
0
 10
0.592849
 20
2.928435
 30
0.0
 11
0.592849
 21
3.095855
 31
0.0
  0
LINE
  5
57
  8
0
 10
0.592849
 20
3.095855
 30
0.0
 11
0.592849
 21
3.228435
 31
0.0
  0
LINE
  5
58
  8
0
 10
0.592849
 20
3.228435
 30
0.0
 11
0.592849
 21
4.065532
 31
0.0
  0
LINE
  5
59
  8
0
 10
0.592849
 20
4.065532
 30
0.0
 11
0.592849
 21
4.728435
 31
0.0
  0
LINE
  5
5A
  8
0
 10
0.592849
 20
4.728435
 30
0.0
 11
0.592849
 21
4.895855
 31
0.0
  0
LINE
  5
5B
  8
0
 10
0.592849
 20
4.895855
 30
0.0
 11
0.592849
 21
5.028435
 31
0.0
  0
LINE
  5
5C
  8
0
 10
0.592849
 20
5.028435
 30
0.0
 11
0.592849
 21
5.865532
 31
0.0
  0
LINE
  5
5D
  8
0
 10
0.592849
 20
5.865532
 30
0.0
 11
0.592849
 21
6.528435
 31
0.0
  0
LINE
  5
5E
  8
0
 10
0.592849
 20
6.528435
 30
0.0
 11
0.592849
 21
6.695855
 31
0.0
  0
LINE
  5
5F
  8
0
 10
0.592849
 20
6.695855
 30
0.0
 11
0.592849
 21
6.828435
 31
0.0
  0
LINE
  5
60
  8
0
 10
0.592849
 20
6.828435
 30
0.0
 11
0.592849
 21
7.665532
 31
0.0
  0
LINE
  5
61
  8
0
 10
0.592849
 20
7.665532
 30
0.0
 11
0.592849
 21
8.328435
 31
0.0
  0
LINE
  5
62
  8
0
 10
0.592849
 20
8.328435
 30
0.0
 11
0.592849
 21
8.495855
 31
0.0
  0
LINE
  5
63
  8
0
 10
0.592849
 20
8.495855
 30
0.0
 11
0.592849
 21
8.628435
 31
0.0
  0
LINE
  5
64
  8
0
 10
0.592849
 20
8.628435
 30
0.0
 11
0.592849
 21
9.465532
 31
0.0
  0
LINE
  5
65
  8
0
 10
0.592849
 20
9.465532
 30
0.0
 11
0.592849
 21
10.128435
 31
0.0
  0
LINE
  5
66
  8
0
 10
0.592849
 20
10.128435
 30
0.0
 11
0.592849
 21
10.295855
 31
0.0
  0
LINE
  5
67
  8
0
 10
0.592849
 20
10.295855
 30
0.0
 11
0.592849
 21
10.428435
 31
0.0
  0
LINE
  5
68
  8
0
 10
0.592849
 20
10.428435
 30
0.0
 11
0.592849
 21
11.265532
 31
0.0
  0
LINE
  5
69
  8
0
 10
0.592849
 20
11.265532
 30
0.0
 11
0.592849
 21
11.928435
 31
0.0
  0
LINE
  5
6A
  8
0
 10
0.592849
 20
11.928435
 30
0.0
 11
0.592849
 21
12.095855
 31
0.0
  0
LINE
  5
6B
  8
0
 10
0.592849
 20
12.095855
 30
0.0
 11
0.592849
 21
12.228435
 31
0.0
  0
LINE
  5
6C
  8
0
 10
0.592849
 20
12.228435
 30
0.0
 11
0.592849
 21
13.065532
 31
0.0
  0
LINE
  5
6D
  8
0
 10
0.592849
 20
13.065532
 30
0.0
 11
0.592849
 21
13.728403
 31
0.0
  0
LINE
  5
6E
  8
0
 10
0.592849
 20
13.728403
 30
0.0
 11
0.592849
 21
13.895866
 31
0.0
  0
LINE
  5
6F
  8
0
 10
0.592849
 20
13.895866
 30
0.0
 11
0.592849
 21
13.929
 31
0.0
  0
LINE
  5
70
  8
0
 10
1.092849
 20
0.654
 30
0.0
 11
1.092849
 21
0.786581
 31
0.0
  0
LINE
  5
71
  8
0
 10
1.092849
 20
0.654
 30
0.0
 11
1.092849
 21
0.786581
 31
0.0
  0
LINE
  5
72
  8
0
 10
1.092849
 20
0.786581
 30
0.0
 11
1.092849
 21
1.3346
 31
0.0
  0
LINE
  5
73
  8
0
 10
1.092849
 20
1.3346
 30
0.0
 11
1.092849
 21
1.997503
 31
0.0
  0
LINE
  5
74
  8
0
 10
1.092849
 20
1.997503
 30
0.0
 11
1.092849
 21
2.164923
 31
0.0
  0
LINE
  5
75
  8
0
 10
1.092849
 20
2.164923
 30
0.0
 11
1.092849
 21
2.297503
 31
0.0
  0
LINE
  5
76
  8
0
 10
1.092849
 20
2.297503
 30
0.0
 11
1.092849
 21
3.1346
 31
0.0
  0
LINE
  5
77
  8
0
 10
1.092849
 20
3.1346
 30
0.0
 11
1.092849
 21
3.797503
 31
0.0
  0
LINE
  5
78
  8
0
 10
1.092849
 20
3.797503
 30
0.0
 11
1.092849
 21
3.964923
 31
0.0
  0
LINE
  5
79
  8
0
 10
1.092849
 20
3.964923
 30
0.0
 11
1.092849
 21
4.097503
 31
0.0
  0
LINE
  5
7A
  8
0
 10
1.092849
 20
4.097503
 30
0.0
 11
1.092849
 21
4.9346
 31
0.0
  0
LINE
  5
7B
  8
0
 10
1.092849
 20
4.9346
 30
0.0
 11
1.092849
 21
5.597503
 31
0.0
  0
LINE
  5
7C
  8
0
 10
1.092849
 20
5.597503
 30
0.0
 11
1.092849
 21
5.764923
 31
0.0
  0
LINE
  5
7D
  8
0
 10
1.092849
 20
5.764923
 30
0.0
 11
1.092849
 21
5.897503
 31
0.0
  0
LINE
  5
7E
  8
0
 10
1.092849
 20
5.897503
 30
0.0
 11
1.092849
 21
6.7346
 31
0.0
  0
LINE
  5
7F
  8
0
 10
1.092849
 20
6.7346
 30
0.0
 11
1.092849
 21
7.397503
 31
0.0
  0
LINE
  5
80
  8
0
 10
1.092849
 20
7.397503
 30
0.0
 11
1.092849
 21
7.564923
 31
0.0
  0
LINE
  5
81
  8
0
 10
1.092849
 20
7.564923
 30
0.0
 11
1.092849
 21
7.697503
 31
0.0
  0
LINE
  5
82
  8
0
 10
1.092849
 20
7.697503
 30
0.0
 11
1.092849
 21
8.5346
 31
0.0
  0
LINE
  5
83
  8
0
 10
1.092849
 20
8.5346
 30
0.0
 11
1.092849
 21
9.197503
 31
0.0
  0
LINE
  5
84
  8
0
 10
1.092849
 20
9.197503
 30
0.0
 11
1.092849
 21
9.364923
 31
0.0
  0
LINE
  5
85
  8
0
 10
1.092849
 20
9.364923
 30
0.0
 11
1.092849
 21
9.497503
 31
0.0
  0
LINE
  5
86
  8
0
 10
1.092849
 20
9.497503
 30
0.0
 11
1.092849
 21
10.3346
 31
0.0
  0
LINE
  5
87
  8
0
 10
1.092849
 20
10.3346
 30
0.0
 11
1.092849
 21
10.997503
 31
0.0
  0
LINE
  5
88
  8
0
 10
1.092849
 20
10.997503
 30
0.0
 11
1.092849
 21
11.164923
 31
0.0
  0
LINE
  5
89
  8
0
 10
1.092849
 20
11.164923
 30
0.0
 11
1.092849
 21
11.297503
 31
0.0
  0
LINE
  5
8A
  8
0
 10
1.092849
 20
11.297503
 30
0.0
 11
1.092849
 21
12.1346
 31
0.0
  0
LINE
  5
8B
  8
0
 10
1.092849
 20
12.1346
 30
0.0
 11
1.092849
 21
12.797503
 31
0.0
  0
LINE
  5
8C
  8
0
 10
1.092849
 20
12.797503
 30
0.0
 11
1.092849
 21
12.964923
 31
0.0
  0
LINE
  5
8D
  8
0
 10
1.092849
 20
12.964923
 30
0.0
 11
1.092849
 21
13.097503
 31
0.0
  0
LINE
  5
8E
  8
0
 10
1.092849
 20
13.097503
 30
0.0
 11
1.092849
 21
13.9346
 31
0.0
  0
LINE
  5
8F
  8
0
 10
1.092849
 20
13.9346
 30
0.0
 11
1.092849
 21
14.369023
 31
0.0
  0
LINE
  5
90
  8
0
 10
1.092849
 20
14.369023
 30
0.0
 11
1.092849
 21
14.536442
 31
0.0
  0
LINE
  5
91
  8
0
 10
1.092849
 20
14.536442
 30
0.0
 11
1.092849
 21
14.537
 31
0.0
  0
LINE
  5
92
  8
0
 10
1.592849
 20
0.504
 30
0.0
 11
1.592849
 21
0.636581
 31
0.0
  0
LINE
  5
93
  8
0
 10
1.592849
 20
0.504
 30
0.0
 11
1.592849
 21
0.636581
 31
0.0
  0
LINE
  5
94
  8
0
 10
1.592849
 20
0.636581
 30
0.0
 11
1.592849
 21
1.357042
 31
0.0
  0
LINE
  5
95
  8
0
 10
1.592849
 20
1.357042
 30
0.0
 11
1.592849
 21
2.019945
 31
0.0
  0
LINE
  5
96
  8
0
 10
1.592849
 20
2.019945
 30
0.0
 11
1.592849
 21
2.187365
 31
0.0
  0
LINE
  5
97
  8
0
 10
1.592849
 20
2.187365
 30
0.0
 11
1.592849
 21
2.319945
 31
0.0
  0
LINE
  5
98
  8
0
 10
1.592849
 20
2.319945
 30
0.0
 11
1.592849
 21
3.157042
 31
0.0
  0
LINE
  5
99
  8
0
 10
1.592849
 20
3.157042
 30
0.0
 11
1.592849
 21
3.819945
 31
0.0
  0
LINE
  5
9A
  8
0
 10
1.592849
 20
3.819945
 30
0.0
 11
1.592849
 21
3.987365
 31
0.0
  0
LINE
  5
9B
  8
0
 10
1.592849
 20
3.987365
 30
0.0
 11
1.592849
 21
4.119945
 31
0.0
  0
LINE
  5
9C
  8
0
 10
1.592849
 20
4.119945
 30
0.0
 11
1.592849
 21
4.957042
 31
0.0
  0
LINE
  5
9D
  8
0
 10
1.592849
 20
4.957042
 30
0.0
 11
1.592849
 21
5.619945
 31
0.0
  0
LINE
  5
9E
  8
0
 10
1.592849
 20
5.619945
 30
0.0
 11
1.592849
 21
5.787365
 31
0.0
  0
LINE
  5
9F
  8
0
 10
1.592849
 20
5.787365
 30
0.0
 11
1.592849
 21
5.919945
 31
0.0
  0
LINE
  5
A0
  8
0
 10
1.592849
 20
5.919945
 30
0.0
 11
1.592849
 21
6.757042
 31
0.0
  0
LINE
  5
A1
  8
0
 10
1.592849
 20
6.757042
 30
0.0
 11
1.592849
 21
7.419945
 31
0.0
  0
LINE
  5
A2
  8
0
 10
1.592849
 20
7.419945
 30
0.0
 11
1.592849
 21
7.587365
 31
0.0
  0
LINE
  5
A3
  8
0
 10
1.592849
 20
7.587365
 30
0.0
 11
1.592849
 21
7.719945
 31
0.0
  0
LINE
  5
A4
  8
0
 10
1.592849
 20
7.719945
 30
0.0
 11
1.592849
 21
8.557042
 31
0.0
  0
LINE
  5
A5
  8
0
 10
1.592849
 20
8.557042
 30
0.0
 11
1.592849
 21
9.219945
 31
0.0
  0
LINE
  5
A6
  8
0
 10
1.592849
 20
9.219945
 30
0.0
 11
1.592849
 21
9.387365
 31
0.0
  0
LINE
  5
A7
  8
0
 10
1.592849
 20
9.387365
 30
0.0
 11
1.592849
 21
9.519945
 31
0.0
  0
LINE
  5
A8
  8
0
 10
1.592849
 20
9.519945
 30
0.0
 11
1.592849
 21
10.357042
 31
0.0
  0
LINE
  5
A9
  8
0
 10
1.592849
 20
10.357042
 30
0.0
 11
1.592849
 21
11.019945
 31
0.0
  0
LINE
  5
AA
  8
0
 10
1.592849
 20
11.019945
 30
0.0
 11
1.592849
 21
11.187365
 31
0.0
  0
LINE
  5
AB
  8
0
 10
1.592849
 20
11.187365
 30
0.0
 11
1.592849
 21
11.319945
 31
0.0
  0
LINE
  5
AC
  8
0
 10
1.592849
 20
11.319945
 30
0.0
 11
1.592849
 21
12.157042
 31
0.0
  0
LINE
  5
AD
  8
0
 10
1.592849
 20
12.157042
 30
0.0
 11
1.592849
 21
12.819945
 31
0.0
  0
LINE
  5
AE
  8
0
 10
1.592849
 20
12.819945
 30
0.0
 11
1.592849
 21
12.987365
 31
0.0
  0
LINE
  5
AF
  8
0
 10
1.592849
 20
12.987365
 30
0.0
 11
1.592849
 21
13.119945
 31
0.0
  0
LINE
  5
B0
  8
0
 10
1.592849
 20
13.119945
 30
0.0
 11
1.592849
 21
13.957042
 31
0.0
  0
LINE
  5
B1
  8
0
 10
1.592849
 20
13.957042
 30
0.0
 11
1.592849
 21
14.527581
 31
0.0
  0
LINE
  5
B2
  8
0
 10
1.592849
 20
14.527581
 30
0.0
 11
1.592849
 21
14.695
 31
0.0
  0
LINE
  5
B3
  8
0
 10
2.092849
 20
0.446
 30
0.0
 11
2.092849
 21
0.578581
 31
0.0
  0
LINE
  5
B4
  8
0
 10
2.092849
 20
0.446
 30
0.0
 11
2.092849
 21
0.578581
 31
0.0
  0
LINE
  5
B5
  8
0
 10
2.092849
 20
0.578581
 30
0.0
 11
2.092849
 21
1.358197
 31
0.0
  0
LINE
  5
B6
  8
0
 10
2.092849
 20
1.358197
 30
0.0
 11
2.092849
 21
2.021542
 31
0.0
  0
LINE
  5
B7
  8
0
 10
2.092849
 20
2.021542
 30
0.0
 11
2.092849
 21
2.188961
 31
0.0
  0
LINE
  5
B8
  8
0
 10
2.092849
 20
2.188961
 30
0.0
 11
2.092849
 21
2.3211
 31
0.0
  0
LINE
  5
B9
  8
0
 10
2.092849
 20
2.3211
 30
0.0
 11
2.092849
 21
3.158197
 31
0.0
  0
LINE
  5
BA
  8
0
 10
2.092849
 20
3.158197
 30
0.0
 11
2.092849
 21
3.821542
 31
0.0
  0
LINE
  5
BB
  8
0
 10
2.092849
 20
3.821542
 30
0.0
 11
2.092849
 21
3.988961
 31
0.0
  0
LINE
  5
BC
  8
0
 10
2.092849
 20
3.988961
 30
0.0
 11
2.092849
 21
4.1211
 31
0.0
  0
LINE
  5
BD
  8
0
 10
2.092849
 20
4.1211
 30
0.0
 11
2.092849
 21
4.958197
 31
0.0
  0
LINE
  5
BE
  8
0
 10
2.092849
 20
4.958197
 30
0.0
 11
2.092849
 21
5.621542
 31
0.0
  0
LINE
  5
BF
  8
0
 10
2.092849
 20
5.621542
 30
0.0
 11
2.092849
 21
5.788961
 31
0.0
  0
LINE
  5
C0
  8
0
 10
2.092849
 20
5.788961
 30
0.0
 11
2.092849
 21
5.9211
 31
0.0
  0
LINE
  5
C1
  8
0
 10
2.092849
 20
5.9211
 30
0.0
 11
2.092849
 21
6.758197
 31
0.0
  0
LINE
  5
C2
  8
0
 10
2.092849
 20
6.758197
 30
0.0
 11
2.092849
 21
7.421542
 31
0.0
  0
LINE
  5
C3
  8
0
 10
2.092849
 20
7.421542
 30
0.0
 11
2.092849
 21
7.588961
 31
0.0
  0
LINE
  5
C4
  8
0
 10
2.092849
 20
7.588961
 30
0.0
 11
2.092849
 21
7.7211
 31
0.0
  0
LINE
  5
C5
  8
0
 10
2.092849
 20
7.7211
 30
0.0
 11
2.092849
 21
8.558197
 31
0.0
  0
LINE
  5
C6
  8
0
 10
2.092849
 20
8.558197
 30
0.0
 11
2.092849
 21
9.221542
 31
0.0
  0
LINE
  5
C7
  8
0
 10
2.092849
 20
9.221542
 30
0.0
 11
2.092849
 21
9.388961
 31
0.0
  0
LINE
  5
C8
  8
0
 10
2.092849
 20
9.388961
 30
0.0
 11
2.092849
 21
9.5211
 31
0.0
  0
LINE
  5
C9
  8
0
 10
2.092849
 20
9.5211
 30
0.0
 11
2.092849
 21
10.358197
 31
0.0
  0
LINE
  5
CA
  8
0
 10
2.092849
 20
10.358197
 30
0.0
 11
2.092849
 21
11.021542
 31
0.0
  0
LINE
  5
CB
  8
0
 10
2.092849
 20
11.021542
 30
0.0
 11
2.092849
 21
11.188961
 31
0.0
  0
LINE
  5
CC
  8
0
 10
2.092849
 20
11.188961
 30
0.0
 11
2.092849
 21
11.3211
 31
0.0
  0
LINE
  5
CD
  8
0
 10
2.092849
 20
11.3211
 30
0.0
 11
2.092849
 21
12.158197
 31
0.0
  0
LINE
  5
CE
  8
0
 10
2.092849
 20
12.158197
 30
0.0
 11
2.092849
 21
12.821542
 31
0.0
  0
LINE
  5
CF
  8
0
 10
2.092849
 20
12.821542
 30
0.0
 11
2.092849
 21
12.988961
 31
0.0
  0
LINE
  5
D0
  8
0
 10
2.092849
 20
12.988961
 30
0.0
 11
2.092849
 21
13.1211
 31
0.0
  0
LINE
  5
D1
  8
0
 10
2.092849
 20
13.1211
 30
0.0
 11
2.092849
 21
13.958197
 31
0.0
  0
LINE
  5
D2
  8
0
 10
2.092849
 20
13.958197
 30
0.0
 11
2.092849
 21
14.575581
 31
0.0
  0
LINE
  5
D3
  8
0
 10
2.092849
 20
14.575581
 30
0.0
 11
2.092849
 21
14.743
 31
0.0
  0
LINE
  5
D4
  8
0
 10
2.092849
 20
14.743
 30
0.0
 11
2.092849
 21
14.743558
 31
0.0
  0
LINE
  5
D5
  8
0
 10
2.592849
 20
0.437
 30
0.0
 11
2.592849
 21
0.569581
 31
0.0
  0
LINE
  5
D6
  8
0
 10
2.592849
 20
0.437
 30
0.0
 11
2.592849
 21
0.569581
 31
0.0
  0
LINE
  5
D7
  8
0
 10
2.592849
 20
0.569581
 30
0.0
 11
2.592849
 21
1.353661
 31
0.0
  0
LINE
  5
D8
  8
0
 10
2.592849
 20
1.353661
 30
0.0
 11
2.592849
 21
2.016565
 31
0.0
  0
LINE
  5
D9
  8
0
 10
2.592849
 20
2.016565
 30
0.0
 11
2.592849
 21
2.183426
 31
0.0
  0
LINE
  5
DA
  8
0
 10
2.592849
 20
2.183426
 30
0.0
 11
2.592849
 21
2.316006
 31
0.0
  0
LINE
  5
DB
  8
0
 10
2.592849
 20
2.316006
 30
0.0
 11
2.592849
 21
3.153661
 31
0.0
  0
LINE
  5
DC
  8
0
 10
2.592849
 20
3.153661
 30
0.0
 11
2.592849
 21
3.816565
 31
0.0
  0
LINE
  5
DD
  8
0
 10
2.592849
 20
3.816565
 30
0.0
 11
2.592849
 21
3.983426
 31
0.0
  0
LINE
  5
DE
  8
0
 10
2.592849
 20
3.983426
 30
0.0
 11
2.592849
 21
4.116006
 31
0.0
  0
LINE
  5
DF
  8
0
 10
2.592849
 20
4.116006
 30
0.0
 11
2.592849
 21
4.953661
 31
0.0
  0
LINE
  5
E0
  8
0
 10
2.592849
 20
4.953661
 30
0.0
 11
2.592849
 21
5.616565
 31
0.0
  0
LINE
  5
E1
  8
0
 10
2.592849
 20
5.616565
 30
0.0
 11
2.592849
 21
5.783426
 31
0.0
  0
LINE
  5
E2
  8
0
 10
2.592849
 20
5.783426
 30
0.0
 11
2.592849
 21
5.916006
 31
0.0
  0
LINE
  5
E3
  8
0
 10
2.592849
 20
5.916006
 30
0.0
 11
2.592849
 21
6.753661
 31
0.0
  0
LINE
  5
E4
  8
0
 10
2.592849
 20
6.753661
 30
0.0
 11
2.592849
 21
7.416565
 31
0.0
  0
LINE
  5
E5
  8
0
 10
2.592849
 20
7.416565
 30
0.0
 11
2.592849
 21
7.583426
 31
0.0
  0
LINE
  5
E6
  8
0
 10
2.592849
 20
7.583426
 30
0.0
 11
2.592849
 21
7.716006
 31
0.0
  0
LINE
  5
E7
  8
0
 10
2.592849
 20
7.716006
 30
0.0
 11
2.592849
 21
8.553661
 31
0.0
  0
LINE
  5
E8
  8
0
 10
2.592849
 20
8.553661
 30
0.0
 11
2.592849
 21
9.216565
 31
0.0
  0
LINE
  5
E9
  8
0
 10
2.592849
 20
9.216565
 30
0.0
 11
2.592849
 21
9.383426
 31
0.0
  0
LINE
  5
EA
  8
0
 10
2.592849
 20
9.383426
 30
0.0
 11
2.592849
 21
9.516006
 31
0.0
  0
LINE
  5
EB
  8
0
 10
2.592849
 20
9.516006
 30
0.0
 11
2.592849
 21
10.353661
 31
0.0
  0
LINE
  5
EC
  8
0
 10
2.592849
 20
10.353661
 30
0.0
 11
2.592849
 21
11.016565
 31
0.0
  0
LINE
  5
ED
  8
0
 10
2.592849
 20
11.016565
 30
0.0
 11
2.592849
 21
11.183426
 31
0.0
  0
LINE
  5
EE
  8
0
 10
2.592849
 20
11.183426
 30
0.0
 11
2.592849
 21
11.316006
 31
0.0
  0
LINE
  5
EF
  8
0
 10
2.592849
 20
11.316006
 30
0.0
 11
2.592849
 21
12.153661
 31
0.0
  0
LINE
  5
F0
  8
0
 10
2.592849
 20
12.153661
 30
0.0
 11
2.592849
 21
12.816565
 31
0.0
  0
LINE
  5
F1
  8
0
 10
2.592849
 20
12.816565
 30
0.0
 11
2.592849
 21
12.983426
 31
0.0
  0
LINE
  5
F2
  8
0
 10
2.592849
 20
12.983426
 30
0.0
 11
2.592849
 21
13.116006
 31
0.0
  0
LINE
  5
F3
  8
0
 10
2.592849
 20
13.116006
 30
0.0
 11
2.592849
 21
13.953661
 31
0.0
  0
LINE
  5
F4
  8
0
 10
2.592849
 20
13.953661
 30
0.0
 11
2.592849
 21
14.574581
 31
0.0
  0
LINE
  5
F5
  8
0
 10
2.592849
 20
14.574581
 30
0.0
 11
2.592849
 21
14.742
 31
0.0
  0
LINE
  5
F6
  8
0
 10
3.092849
 20
0.453
 30
0.0
 11
3.092849
 21
0.585581
 31
0.0
  0
LINE
  5
F7
  8
0
 10
3.092849
 20
0.453
 30
0.0
 11
3.092849
 21
0.585581
 31
0.0
  0
LINE
  5
F8
  8
0
 10
3.092849
 20
0.585581
 30
0.0
 11
3.092849
 21
1.350687
 31
0.0
  0
LINE
  5
F9
  8
0
 10
3.092849
 20
1.350687
 30
0.0
 11
3.092849
 21
2.01359
 31
0.0
  0
LINE
  5
FA
  8
0
 10
3.092849
 20
2.01359
 30
0.0
 11
3.092849
 21
2.18101
 31
0.0
  0
LINE
  5
FB
  8
0
 10
3.092849
 20
2.18101
 30
0.0
 11
3.092849
 21
2.31359
 31
0.0
  0
LINE
  5
FC
  8
0
 10
3.092849
 20
2.31359
 30
0.0
 11
3.092849
 21
3.150687
 31
0.0
  0
LINE
  5
FD
  8
0
 10
3.092849
 20
3.150687
 30
0.0
 11
3.092849
 21
3.81359
 31
0.0
  0
LINE
  5
FE
  8
0
 10
3.092849
 20
3.81359
 30
0.0
 11
3.092849
 21
3.98101
 31
0.0
  0
LINE
  5
FF
  8
0
 10
3.092849
 20
3.98101
 30
0.0
 11
3.092849
 21
4.11359
 31
0.0
  0
LINE
  5
100
  8
0
 10
3.092849
 20
4.11359
 30
0.0
 11
3.092849
 21
4.950687
 31
0.0
  0
LINE
  5
101
  8
0
 10
3.092849
 20
4.950687
 30
0.0
 11
3.092849
 21
5.61359
 31
0.0
  0
LINE
  5
102
  8
0
 10
3.092849
 20
5.61359
 30
0.0
 11
3.092849
 21
5.78101
 31
0.0
  0
LINE
  5
103
  8
0
 10
3.092849
 20
5.78101
 30
0.0
 11
3.092849
 21
5.91359
 31
0.0
  0
LINE
  5
104
  8
0
 10
3.092849
 20
5.91359
 30
0.0
 11
3.092849
 21
6.750687
 31
0.0
  0
LINE
  5
105
  8
0
 10
3.092849
 20
6.750687
 30
0.0
 11
3.092849
 21
7.41359
 31
0.0
  0
LINE
  5
106
  8
0
 10
3.092849
 20
7.41359
 30
0.0
 11
3.092849
 21
7.58101
 31
0.0
  0
LINE
  5
107
  8
0
 10
3.092849
 20
7.58101
 30
0.0
 11
3.092849
 21
7.71359
 31
0.0
  0
LINE
  5
108
  8
0
 10
3.092849
 20
7.71359
 30
0.0
 11
3.092849
 21
8.550687
 31
0.0
  0
LINE
  5
109
  8
0
 10
3.092849
 20
8.550687
 30
0.0
 11
3.092849
 21
9.21359
 31
0.0
  0
LINE
  5
10A
  8
0
 10
3.092849
 20
9.21359
 30
0.0
 11
3.092849
 21
9.38101
 31
0.0
  0
LINE
  5
10B
  8
0
 10
3.092849
 20
9.38101
 30
0.0
 11
3.092849
 21
9.51359
 31
0.0
  0
LINE
  5
10C
  8
0
 10
3.092849
 20
9.51359
 30
0.0
 11
3.092849
 21
10.350687
 31
0.0
  0
LINE
  5
10D
  8
0
 10
3.092849
 20
10.350687
 30
0.0
 11
3.092849
 21
11.01359
 31
0.0
  0
LINE
  5
10E
  8
0
 10
3.092849
 20
11.01359
 30
0.0
 11
3.092849
 21
11.18101
 31
0.0
  0
LINE
  5
10F
  8
0
 10
3.092849
 20
11.18101
 30
0.0
 11
3.092849
 21
11.31359
 31
0.0
  0
LINE
  5
110
  8
0
 10
3.092849
 20
11.31359
 30
0.0
 11
3.092849
 21
12.150687
 31
0.0
  0
LINE
  5
111
  8
0
 10
3.092849
 20
12.150687
 30
0.0
 11
3.092849
 21
12.81359
 31
0.0
  0
LINE
  5
112
  8
0
 10
3.092849
 20
12.81359
 30
0.0
 11
3.092849
 21
12.98101
 31
0.0
  0
LINE
  5
113
  8
0
 10
3.092849
 20
12.98101
 30
0.0
 11
3.092849
 21
13.11359
 31
0.0
  0
LINE
  5
114
  8
0
 10
3.092849
 20
13.11359
 30
0.0
 11
3.092849
 21
13.950687
 31
0.0
  0
LINE
  5
115
  8
0
 10
3.092849
 20
13.950687
 30
0.0
 11
3.092849
 21
14.556581
 31
0.0
  0
LINE
  5
116
  8
0
 10
3.092849
 20
14.556581
 30
0.0
 11
3.092849
 21
14.724
 31
0.0
  0
LINE
  5
117
  8
0
 10
3.592849
 20
0.469
 30
0.0
 11
3.592849
 21
0.601581
 31
0.0
  0
LINE
  5
118
  8
0
 10
3.592849
 20
0.469
 30
0.0
 11
3.592849
 21
0.601581
 31
0.0
  0
LINE
  5
119
  8
0
 10
3.592849
 20
0.601581
 30
0.0
 11
3.592849
 21
1.348271
 31
0.0
  0
LINE
  5
11A
  8
0
 10
3.592849
 20
1.348271
 30
0.0
 11
3.592849
 21
2.011174
 31
0.0
  0
LINE
  5
11B
  8
0
 10
3.592849
 20
2.011174
 30
0.0
 11
3.592849
 21
2.178594
 31
0.0
  0
LINE
  5
11C
  8
0
 10
3.592849
 20
2.178594
 30
0.0
 11
3.592849
 21
2.311174
 31
0.0
  0
LINE
  5
11D
  8
0
 10
3.592849
 20
2.311174
 30
0.0
 11
3.592849
 21
3.148271
 31
0.0
  0
LINE
  5
11E
  8
0
 10
3.592849
 20
3.148271
 30
0.0
 11
3.592849
 21
3.811174
 31
0.0
  0
LINE
  5
11F
  8
0
 10
3.592849
 20
3.811174
 30
0.0
 11
3.592849
 21
3.978594
 31
0.0
  0
LINE
  5
120
  8
0
 10
3.592849
 20
3.978594
 30
0.0
 11
3.592849
 21
4.111174
 31
0.0
  0
LINE
  5
121
  8
0
 10
3.592849
 20
4.111174
 30
0.0
 11
3.592849
 21
4.948271
 31
0.0
  0
LINE
  5
122
  8
0
 10
3.592849
 20
4.948271
 30
0.0
 11
3.592849
 21
5.611174
 31
0.0
  0
LINE
  5
123
  8
0
 10
3.592849
 20
5.611174
 30
0.0
 11
3.592849
 21
5.778594
 31
0.0
  0
LINE
  5
124
  8
0
 10
3.592849
 20
5.778594
 30
0.0
 11
3.592849
 21
5.911174
 31
0.0
  0
LINE
  5
125
  8
0
 10
3.592849
 20
5.911174
 30
0.0
 11
3.592849
 21
6.748271
 31
0.0
  0
LINE
  5
126
  8
0
 10
3.592849
 20
6.748271
 30
0.0
 11
3.592849
 21
7.411174
 31
0.0
  0
LINE
  5
127
  8
0
 10
3.592849
 20
7.411174
 30
0.0
 11
3.592849
 21
7.578594
 31
0.0
  0
LINE
  5
128
  8
0
 10
3.592849
 20
7.578594
 30
0.0
 11
3.592849
 21
7.711174
 31
0.0
  0
LINE
  5
129
  8
0
 10
3.592849
 20
7.711174
 30
0.0
 11
3.592849
 21
8.548271
 31
0.0
  0
LINE
  5
12A
  8
0
 10
3.592849
 20
8.548271
 30
0.0
 11
3.592849
 21
9.211174
 31
0.0
  0
LINE
  5
12B
  8
0
 10
3.592849
 20
9.211174
 30
0.0
 11
3.592849
 21
9.378594
 31
0.0
  0
LINE
  5
12C
  8
0
 10
3.592849
 20
9.378594
 30
0.0
 11
3.592849
 21
9.511174
 31
0.0
  0
LINE
  5
12D
  8
0
 10
3.592849
 20
9.511174
 30
0.0
 11
3.592849
 21
10.348271
 31
0.0
  0
LINE
  5
12E
  8
0
 10
3.592849
 20
10.348271
 30
0.0
 11
3.592849
 21
11.011174
 31
0.0
  0
LINE
  5
12F
  8
0
 10
3.592849
 20
11.011174
 30
0.0
 11
3.592849
 21
11.178594
 31
0.0
  0
LINE
  5
130
  8
0
 10
3.592849
 20
11.178594
 30
0.0
 11
3.592849
 21
11.311174
 31
0.0
  0
LINE
  5
131
  8
0
 10
3.592849
 20
11.311174
 30
0.0
 11
3.592849
 21
12.148271
 31
0.0
  0
LINE
  5
132
  8
0
 10
3.592849
 20
12.148271
 30
0.0
 11
3.592849
 21
12.811174
 31
0.0
  0
LINE
  5
133
  8
0
 10
3.592849
 20
12.811174
 30
0.0
 11
3.592849
 21
12.978594
 31
0.0
  0
LINE
  5
134
  8
0
 10
3.592849
 20
12.978594
 30
0.0
 11
3.592849
 21
13.111174
 31
0.0
  0
LINE
  5
135
  8
0
 10
3.592849
 20
13.111174
 30
0.0
 11
3.592849
 21
13.948271
 31
0.0
  0
LINE
  5
136
  8
0
 10
3.592849
 20
13.948271
 30
0.0
 11
3.592849
 21
14.539581
 31
0.0
  0
LINE
  5
137
  8
0
 10
3.592849
 20
14.539581
 30
0.0
 11
3.592849
 21
14.707
 31
0.0
  0
LINE
  5
138
  8
0
 10
4.092849
 20
0.484
 30
0.0
 11
4.092849
 21
0.616581
 31
0.0
  0
LINE
  5
139
  8
0
 10
4.092849
 20
0.484
 30
0.0
 11
4.092849
 21
0.616581
 31
0.0
  0
LINE
  5
13A
  8
0
 10
4.092849
 20
0.616581
 30
0.0
 11
4.092849
 21
1.344855
 31
0.0
  0
LINE
  5
13B
  8
0
 10
4.092849
 20
1.344855
 30
0.0
 11
4.092849
 21
2.0082
 31
0.0
  0
LINE
  5
13C
  8
0
 10
4.092849
 20
2.0082
 30
0.0
 11
4.092849
 21
2.175619
 31
0.0
  0
LINE
  5
13D
  8
0
 10
4.092849
 20
2.175619
 30
0.0
 11
4.092849
 21
2.307758
 31
0.0
  0
LINE
  5
13E
  8
0
 10
4.092849
 20
2.307758
 30
0.0
 11
4.092849
 21
3.144855
 31
0.0
  0
LINE
  5
13F
  8
0
 10
4.092849
 20
3.144855
 30
0.0
 11
4.092849
 21
3.8082
 31
0.0
  0
LINE
  5
140
  8
0
 10
4.092849
 20
3.8082
 30
0.0
 11
4.092849
 21
3.975619
 31
0.0
  0
LINE
  5
141
  8
0
 10
4.092849
 20
3.975619
 30
0.0
 11
4.092849
 21
4.107758
 31
0.0
  0
LINE
  5
142
  8
0
 10
4.092849
 20
4.107758
 30
0.0
 11
4.092849
 21
4.944855
 31
0.0
  0
LINE
  5
143
  8
0
 10
4.092849
 20
4.944855
 30
0.0
 11
4.092849
 21
5.6082
 31
0.0
  0
LINE
  5
144
  8
0
 10
4.092849
 20
5.6082
 30
0.0
 11
4.092849
 21
5.775619
 31
0.0
  0
LINE
  5
145
  8
0
 10
4.092849
 20
5.775619
 30
0.0
 11
4.092849
 21
5.907758
 31
0.0
  0
LINE
  5
146
  8
0
 10
4.092849
 20
5.907758
 30
0.0
 11
4.092849
 21
6.744855
 31
0.0
  0
LINE
  5
147
  8
0
 10
4.092849
 20
6.744855
 30
0.0
 11
4.092849
 21
7.4082
 31
0.0
  0
LINE
  5
148
  8
0
 10
4.092849
 20
7.4082
 30
0.0
 11
4.092849
 21
7.575619
 31
0.0
  0
LINE
  5
149
  8
0
 10
4.092849
 20
7.575619
 30
0.0
 11
4.092849
 21
7.707758
 31
0.0
  0
LINE
  5
14A
  8
0
 10
4.092849
 20
7.707758
 30
0.0
 11
4.092849
 21
8.544855
 31
0.0
  0
LINE
  5
14B
  8
0
 10
4.092849
 20
8.544855
 30
0.0
 11
4.092849
 21
9.2082
 31
0.0
  0
LINE
  5
14C
  8
0
 10
4.092849
 20
9.2082
 30
0.0
 11
4.092849
 21
9.375619
 31
0.0
  0
LINE
  5
14D
  8
0
 10
4.092849
 20
9.375619
 30
0.0
 11
4.092849
 21
9.507758
 31
0.0
  0
LINE
  5
14E
  8
0
 10
4.092849
 20
9.507758
 30
0.0
 11
4.092849
 21
10.344855
 31
0.0
  0
LINE
  5
14F
  8
0
 10
4.092849
 20
10.344855
 30
0.0
 11
4.092849
 21
11.0082
 31
0.0
  0
LINE
  5
150
  8
0
 10
4.092849
 20
11.0082
 30
0.0
 11
4.092849
 21
11.175619
 31
0.0
  0
LINE
  5
151
  8
0
 10
4.092849
 20
11.175619
 30
0.0
 11
4.092849
 21
11.307758
 31
0.0
  0
LINE
  5
152
  8
0
 10
4.092849
 20
11.307758
 30
0.0
 11
4.092849
 21
12.144855
 31
0.0
  0
LINE
  5
153
  8
0
 10
4.092849
 20
12.144855
 30
0.0
 11
4.092849
 21
12.8082
 31
0.0
  0
LINE
  5
154
  8
0
 10
4.092849
 20
12.8082
 30
0.0
 11
4.092849
 21
12.975619
 31
0.0
  0
LINE
  5
155
  8
0
 10
4.092849
 20
12.975619
 30
0.0
 11
4.092849
 21
13.107758
 31
0.0
  0
LINE
  5
156
  8
0
 10
4.092849
 20
13.107758
 30
0.0
 11
4.092849
 21
13.944855
 31
0.0
  0
LINE
  5
157
  8
0
 10
4.092849
 20
13.944855
 30
0.0
 11
4.092849
 21
14.522023
 31
0.0
  0
LINE
  5
158
  8
0
 10
4.092849
 20
14.522023
 30
0.0
 11
4.092849
 21
14.689442
 31
0.0
  0
LINE
  5
159
  8
0
 10
4.092849
 20
14.689442
 30
0.0
 11
4.092849
 21
14.69
 31
0.0
  0
LINE
  5
15A
  8
0
 10
4.592849
 20
0.5
 30
0.0
 11
4.592849
 21
0.632581
 31
0.0
  0
LINE
  5
15B
  8
0
 10
4.592849
 20
0.5
 30
0.0
 11
4.592849
 21
0.632581
 31
0.0
  0
LINE
  5
15C
  8
0
 10
4.592849
 20
0.632581
 30
0.0
 11
4.592849
 21
1.342439
 31
0.0
  0
LINE
  5
15D
  8
0
 10
4.592849
 20
1.342439
 30
0.0
 11
4.592849
 21
2.005342
 31
0.0
  0
LINE
  5
15E
  8
0
 10
4.592849
 20
2.005342
 30
0.0
 11
4.592849
 21
2.172761
 31
0.0
  0
LINE
  5
15F
  8
0
 10
4.592849
 20
2.172761
 30
0.0
 11
4.592849
 21
2.305342
 31
0.0
  0
LINE
  5
160
  8
0
 10
4.592849
 20
2.305342
 30
0.0
 11
4.592849
 21
3.142439
 31
0.0
  0
LINE
  5
161
  8
0
 10
4.592849
 20
3.142439
 30
0.0
 11
4.592849
 21
3.805342
 31
0.0
  0
LINE
  5
162
  8
0
 10
4.592849
 20
3.805342
 30
0.0
 11
4.592849
 21
3.972761
 31
0.0
  0
LINE
  5
163
  8
0
 10
4.592849
 20
3.972761
 30
0.0
 11
4.592849
 21
4.105342
 31
0.0
  0
LINE
  5
164
  8
0
 10
4.592849
 20
4.105342
 30
0.0
 11
4.592849
 21
4.942439
 31
0.0
  0
LINE
  5
165
  8
0
 10
4.592849
 20
4.942439
 30
0.0
 11
4.592849
 21
5.605342
 31
0.0
  0
LINE
  5
166
  8
0
 10
4.592849
 20
5.605342
 30
0.0
 11
4.592849
 21
5.772761
 31
0.0
  0
LINE
  5
167
  8
0
 10
4.592849
 20
5.772761
 30
0.0
 11
4.592849
 21
5.905342
 31
0.0
  0
LINE
  5
168
  8
0
 10
4.592849
 20
5.905342
 30
0.0
 11
4.592849
 21
6.742439
 31
0.0
  0
LINE
  5
169
  8
0
 10
4.592849
 20
6.742439
 30
0.0
 11
4.592849
 21
7.405342
 31
0.0
  0
LINE
  5
16A
  8
0
 10
4.592849
 20
7.405342
 30
0.0
 11
4.592849
 21
7.572761
 31
0.0
  0
LINE
  5
16B
  8
0
 10
4.592849
 20
7.572761
 30
0.0
 11
4.592849
 21
7.705342
 31
0.0
  0
LINE
  5
16C
  8
0
 10
4.592849
 20
7.705342
 30
0.0
 11
4.592849
 21
8.542439
 31
0.0
  0
LINE
  5
16D
  8
0
 10
4.592849
 20
8.542439
 30
0.0
 11
4.592849
 21
9.205342
 31
0.0
  0
LINE
  5
16E
  8
0
 10
4.592849
 20
9.205342
 30
0.0
 11
4.592849
 21
9.372761
 31
0.0
  0
LINE
  5
16F
  8
0
 10
4.592849
 20
9.372761
 30
0.0
 11
4.592849
 21
9.505342
 31
0.0
  0
LINE
  5
170
  8
0
 10
4.592849
 20
9.505342
 30
0.0
 11
4.592849
 21
10.342439
 31
0.0
  0
LINE
  5
171
  8
0
 10
4.592849
 20
10.342439
 30
0.0
 11
4.592849
 21
11.005342
 31
0.0
  0
LINE
  5
172
  8
0
 10
4.592849
 20
11.005342
 30
0.0
 11
4.592849
 21
11.172761
 31
0.0
  0
LINE
  5
173
  8
0
 10
4.592849
 20
11.172761
 30
0.0
 11
4.592849
 21
11.305342
 31
0.0
  0
LINE
  5
174
  8
0
 10
4.592849
 20
11.305342
 30
0.0
 11
4.592849
 21
12.142439
 31
0.0
  0
LINE
  5
175
  8
0
 10
4.592849
 20
12.142439
 30
0.0
 11
4.592849
 21
12.805342
 31
0.0
  0
LINE
  5
176
  8
0
 10
4.592849
 20
12.805342
 30
0.0
 11
4.592849
 21
12.972761
 31
0.0
  0
LINE
  5
177
  8
0
 10
4.592849
 20
12.972761
 30
0.0
 11
4.592849
 21
13.105342
 31
0.0
  0
LINE
  5
178
  8
0
 10
4.592849
 20
13.105342
 30
0.0
 11
4.592849
 21
13.942439
 31
0.0
  0
LINE
  5
179
  8
0
 10
4.592849
 20
13.942439
 30
0.0
 11
4.592849
 21
14.504581
 31
0.0
  0
LINE
  5
17A
  8
0
 10
4.592849
 20
14.504581
 30
0.0
 11
4.592849
 21
14.672
 31
0.0
  0
LINE
  5
17B
  8
0
 10
5.092849
 20
0.516
 30
0.0
 11
5.092849
 21
0.648581
 31
0.0
  0
LINE
  5
17C
  8
0
 10
5.092849
 20
0.516
 30
0.0
 11
5.092849
 21
0.648581
 31
0.0
  0
LINE
  5
17D
  8
0
 10
5.092849
 20
0.648581
 30
0.0
 11
5.092849
 21
1.340023
 31
0.0
  0
LINE
  5
17E
  8
0
 10
5.092849
 20
1.340023
 30
0.0
 11
5.092849
 21
2.002926
 31
0.0
  0
LINE
  5
17F
  8
0
 10
5.092849
 20
2.002926
 30
0.0
 11
5.092849
 21
2.170345
 31
0.0
  0
LINE
  5
180
  8
0
 10
5.092849
 20
2.170345
 30
0.0
 11
5.092849
 21
2.302926
 31
0.0
  0
LINE
  5
181
  8
0
 10
5.092849
 20
2.302926
 30
0.0
 11
5.092849
 21
3.140023
 31
0.0
  0
LINE
  5
182
  8
0
 10
5.092849
 20
3.140023
 30
0.0
 11
5.092849
 21
3.802926
 31
0.0
  0
LINE
  5
183
  8
0
 10
5.092849
 20
3.802926
 30
0.0
 11
5.092849
 21
3.970345
 31
0.0
  0
LINE
  5
184
  8
0
 10
5.092849
 20
3.970345
 30
0.0
 11
5.092849
 21
4.102926
 31
0.0
  0
LINE
  5
185
  8
0
 10
5.092849
 20
4.102926
 30
0.0
 11
5.092849
 21
4.940023
 31
0.0
  0
LINE
  5
186
  8
0
 10
5.092849
 20
4.940023
 30
0.0
 11
5.092849
 21
5.602926
 31
0.0
  0
LINE
  5
187
  8
0
 10
5.092849
 20
5.602926
 30
0.0
 11
5.092849
 21
5.770345
 31
0.0
  0
LINE
  5
188
  8
0
 10
5.092849
 20
5.770345
 30
0.0
 11
5.092849
 21
5.902926
 31
0.0
  0
LINE
  5
189
  8
0
 10
5.092849
 20
5.902926
 30
0.0
 11
5.092849
 21
6.740023
 31
0.0
  0
LINE
  5
18A
  8
0
 10
5.092849
 20
6.740023
 30
0.0
 11
5.092849
 21
7.402926
 31
0.0
  0
LINE
  5
18B
  8
0
 10
5.092849
 20
7.402926
 30
0.0
 11
5.092849
 21
7.570345
 31
0.0
  0
LINE
  5
18C
  8
0
 10
5.092849
 20
7.570345
 30
0.0
 11
5.092849
 21
7.702926
 31
0.0
  0
LINE
  5
18D
  8
0
 10
5.092849
 20
7.702926
 30
0.0
 11
5.092849
 21
8.540023
 31
0.0
  0
LINE
  5
18E
  8
0
 10
5.092849
 20
8.540023
 30
0.0
 11
5.092849
 21
9.202926
 31
0.0
  0
LINE
  5
18F
  8
0
 10
5.092849
 20
9.202926
 30
0.0
 11
5.092849
 21
9.370345
 31
0.0
  0
LINE
  5
190
  8
0
 10
5.092849
 20
9.370345
 30
0.0
 11
5.092849
 21
9.502926
 31
0.0
  0
LINE
  5
191
  8
0
 10
5.092849
 20
9.502926
 30
0.0
 11
5.092849
 21
10.340023
 31
0.0
  0
LINE
  5
192
  8
0
 10
5.092849
 20
10.340023
 30
0.0
 11
5.092849
 21
11.002926
 31
0.0
  0
LINE
  5
193
  8
0
 10
5.092849
 20
11.002926
 30
0.0
 11
5.092849
 21
11.170345
 31
0.0
  0
LINE
  5
194
  8
0
 10
5.092849
 20
11.170345
 30
0.0
 11
5.092849
 21
11.302926
 31
0.0
  0
LINE
  5
195
  8
0
 10
5.092849
 20
11.302926
 30
0.0
 11
5.092849
 21
12.140023
 31
0.0
  0
LINE
  5
196
  8
0
 10
5.092849
 20
12.140023
 30
0.0
 11
5.092849
 21
12.802926
 31
0.0
  0
LINE
  5
197
  8
0
 10
5.092849
 20
12.802926
 30
0.0
 11
5.092849
 21
12.970345
 31
0.0
  0
LINE
  5
198
  8
0
 10
5.092849
 20
12.970345
 30
0.0
 11
5.092849
 21
13.102926
 31
0.0
  0
LINE
  5
199
  8
0
 10
5.092849
 20
13.102926
 30
0.0
 11
5.092849
 21
13.940023
 31
0.0
  0
LINE
  5
19A
  8
0
 10
5.092849
 20
13.940023
 30
0.0
 11
5.092849
 21
14.487581
 31
0.0
  0
LINE
  5
19B
  8
0
 10
5.092849
 20
14.487581
 30
0.0
 11
5.092849
 21
14.655
 31
0.0
  0
LINE
  5
19C
  8
0
 10
5.592849
 20
0.532
 30
0.0
 11
5.592849
 21
0.664581
 31
0.0
  0
LINE
  5
19D
  8
0
 10
5.592849
 20
0.532
 30
0.0
 11
5.592849
 21
0.664581
 31
0.0
  0
LINE
  5
19E
  8
0
 10
5.592849
 20
0.664581
 30
0.0
 11
5.592849
 21
1.337048
 31
0.0
  0
LINE
  5
19F
  8
0
 10
5.592849
 20
1.337048
 30
0.0
 11
5.592849
 21
1.999952
 31
0.0
  0
LINE
  5
1A0
  8
0
 10
5.592849
 20
1.999952
 30
0.0
 11
5.592849
 21
2.167371
 31
0.0
  0
LINE
  5
1A1
  8
0
 10
5.592849
 20
2.167371
 30
0.0
 11
5.592849
 21
2.299952
 31
0.0
  0
LINE
  5
1A2
  8
0
 10
5.592849
 20
2.299952
 30
0.0
 11
5.592849
 21
3.137048
 31
0.0
  0
LINE
  5
1A3
  8
0
 10
5.592849
 20
3.137048
 30
0.0
 11
5.592849
 21
3.799952
 31
0.0
  0
LINE
  5
1A4
  8
0
 10
5.592849
 20
3.799952
 30
0.0
 11
5.592849
 21
3.967371
 31
0.0
  0
LINE
  5
1A5
  8
0
 10
5.592849
 20
3.967371
 30
0.0
 11
5.592849
 21
4.099952
 31
0.0
  0
LINE
  5
1A6
  8
0
 10
5.592849
 20
4.099952
 30
0.0
 11
5.592849
 21
4.937048
 31
0.0
  0
LINE
  5
1A7
  8
0
 10
5.592849
 20
4.937048
 30
0.0
 11
5.592849
 21
5.599952
 31
0.0
  0
LINE
  5
1A8
  8
0
 10
5.592849
 20
5.599952
 30
0.0
 11
5.592849
 21
5.767371
 31
0.0
  0
LINE
  5
1A9
  8
0
 10
5.592849
 20
5.767371
 30
0.0
 11
5.592849
 21
5.899952
 31
0.0
  0
LINE
  5
1AA
  8
0
 10
5.592849
 20
5.899952
 30
0.0
 11
5.592849
 21
6.737048
 31
0.0
  0
LINE
  5
1AB
  8
0
 10
5.592849
 20
6.737048
 30
0.0
 11
5.592849
 21
7.399952
 31
0.0
  0
LINE
  5
1AC
  8
0
 10
5.592849
 20
7.399952
 30
0.0
 11
5.592849
 21
7.567371
 31
0.0
  0
LINE
  5
1AD
  8
0
 10
5.592849
 20
7.567371
 30
0.0
 11
5.592849
 21
7.699952
 31
0.0
  0
LINE
  5
1AE
  8
0
 10
5.592849
 20
7.699952
 30
0.0
 11
5.592849
 21
8.537048
 31
0.0
  0
LINE
  5
1AF
  8
0
 10
5.592849
 20
8.537048
 30
0.0
 11
5.592849
 21
9.199952
 31
0.0
  0
LINE
  5
1B0
  8
0
 10
5.592849
 20
9.199952
 30
0.0
 11
5.592849
 21
9.367371
 31
0.0
  0
LINE
  5
1B1
  8
0
 10
5.592849
 20
9.367371
 30
0.0
 11
5.592849
 21
9.499952
 31
0.0
  0
LINE
  5
1B2
  8
0
 10
5.592849
 20
9.499952
 30
0.0
 11
5.592849
 21
10.337048
 31
0.0
  0
LINE
  5
1B3
  8
0
 10
5.592849
 20
10.337048
 30
0.0
 11
5.592849
 21
10.999952
 31
0.0
  0
LINE
  5
1B4
  8
0
 10
5.592849
 20
10.999952
 30
0.0
 11
5.592849
 21
11.167371
 31
0.0
  0
LINE
  5
1B5
  8
0
 10
5.592849
 20
11.167371
 30
0.0
 11
5.592849
 21
11.299952
 31
0.0
  0
LINE
  5
1B6
  8
0
 10
5.592849
 20
11.299952
 30
0.0
 11
5.592849
 21
12.137048
 31
0.0
  0
LINE
  5
1B7
  8
0
 10
5.592849
 20
12.137048
 30
0.0
 11
5.592849
 21
12.799952
 31
0.0
  0
LINE
  5
1B8
  8
0
 10
5.592849
 20
12.799952
 30
0.0
 11
5.592849
 21
12.967371
 31
0.0
  0
LINE
  5
1B9
  8
0
 10
5.592849
 20
12.967371
 30
0.0
 11
5.592849
 21
13.099952
 31
0.0
  0
LINE
  5
1BA
  8
0
 10
5.592849
 20
13.099952
 30
0.0
 11
5.592849
 21
13.937048
 31
0.0
  0
LINE
  5
1BB
  8
0
 10
5.592849
 20
13.937048
 30
0.0
 11
5.592849
 21
14.469581
 31
0.0
  0
LINE
  5
1BC
  8
0
 10
5.592849
 20
14.469581
 30
0.0
 11
5.592849
 21
14.637
 31
0.0
  0
LINE
  5
1BD
  8
0
 10
6.092849
 20
0.548
 30
0.0
 11
6.092849
 21
0.680581
 31
0.0
  0
LINE
  5
1BE
  8
0
 10
6.092849
 20
0.548
 30
0.0
 11
6.092849
 21
0.680581
 31
0.0
  0
LINE
  5
1BF
  8
0
 10
6.092849
 20
0.680581
 30
0.0
 11
6.092849
 21
1.337423
 31
0.0
  0
LINE
  5
1C0
  8
0
 10
6.092849
 20
1.337423
 30
0.0
 11
6.092849
 21
2.000326
 31
0.0
  0
LINE
  5
1C1
  8
0
 10
6.092849
 20
2.000326
 30
0.0
 11
6.092849
 21
2.167745
 31
0.0
  0
LINE
  5
1C2
  8
0
 10
6.092849
 20
2.167745
 30
0.0
 11
6.092849
 21
2.300326
 31
0.0
  0
LINE
  5
1C3
  8
0
 10
6.092849
 20
2.300326
 30
0.0
 11
6.092849
 21
3.137423
 31
0.0
  0
LINE
  5
1C4
  8
0
 10
6.092849
 20
3.137423
 30
0.0
 11
6.092849
 21
3.800326
 31
0.0
  0
LINE
  5
1C5
  8
0
 10
6.092849
 20
3.800326
 30
0.0
 11
6.092849
 21
3.967745
 31
0.0
  0
LINE
  5
1C6
  8
0
 10
6.092849
 20
3.967745
 30
0.0
 11
6.092849
 21
4.100326
 31
0.0
  0
LINE
  5
1C7
  8
0
 10
6.092849
 20
4.100326
 30
0.0
 11
6.092849
 21
4.937423
 31
0.0
  0
LINE
  5
1C8
  8
0
 10
6.092849
 20
4.937423
 30
0.0
 11
6.092849
 21
5.600326
 31
0.0
  0
LINE
  5
1C9
  8
0
 10
6.092849
 20
5.600326
 30
0.0
 11
6.092849
 21
5.767745
 31
0.0
  0
LINE
  5
1CA
  8
0
 10
6.092849
 20
5.767745
 30
0.0
 11
6.092849
 21
5.900326
 31
0.0
  0
LINE
  5
1CB
  8
0
 10
6.092849
 20
5.900326
 30
0.0
 11
6.092849
 21
6.737423
 31
0.0
  0
LINE
  5
1CC
  8
0
 10
6.092849
 20
6.737423
 30
0.0
 11
6.092849
 21
7.400326
 31
0.0
  0
LINE
  5
1CD
  8
0
 10
6.092849
 20
7.400326
 30
0.0
 11
6.092849
 21
7.567745
 31
0.0
  0
LINE
  5
1CE
  8
0
 10
6.092849
 20
7.567745
 30
0.0
 11
6.092849
 21
7.700326
 31
0.0
  0
LINE
  5
1CF
  8
0
 10
6.092849
 20
7.700326
 30
0.0
 11
6.092849
 21
8.537423
 31
0.0
  0
LINE
  5
1D0
  8
0
 10
6.092849
 20
8.537423
 30
0.0
 11
6.092849
 21
9.200326
 31
0.0
  0
LINE
  5
1D1
  8
0
 10
6.092849
 20
9.200326
 30
0.0
 11
6.092849
 21
9.367745
 31
0.0
  0
LINE
  5
1D2
  8
0
 10
6.092849
 20
9.367745
 30
0.0
 11
6.092849
 21
9.500326
 31
0.0
  0
LINE
  5
1D3
  8
0
 10
6.092849
 20
9.500326
 30
0.0
 11
6.092849
 21
10.337423
 31
0.0
  0
LINE
  5
1D4
  8
0
 10
6.092849
 20
10.337423
 30
0.0
 11
6.092849
 21
11.000326
 31
0.0
  0
LINE
  5
1D5
  8
0
 10
6.092849
 20
11.000326
 30
0.0
 11
6.092849
 21
11.167745
 31
0.0
  0
LINE
  5
1D6
  8
0
 10
6.092849
 20
11.167745
 30
0.0
 11
6.092849
 21
11.300326
 31
0.0
  0
LINE
  5
1D7
  8
0
 10
6.092849
 20
11.300326
 30
0.0
 11
6.092849
 21
12.137423
 31
0.0
  0
LINE
  5
1D8
  8
0
 10
6.092849
 20
12.137423
 30
0.0
 11
6.092849
 21
12.800326
 31
0.0
  0
LINE
  5
1D9
  8
0
 10
6.092849
 20
12.800326
 30
0.0
 11
6.092849
 21
12.967745
 31
0.0
  0
LINE
  5
1DA
  8
0
 10
6.092849
 20
12.967745
 30
0.0
 11
6.092849
 21
13.100326
 31
0.0
  0
LINE
  5
1DB
  8
0
 10
6.092849
 20
13.100326
 30
0.0
 11
6.092849
 21
13.937423
 31
0.0
  0
LINE
  5
1DC
  8
0
 10
6.092849
 20
13.937423
 30
0.0
 11
6.092849
 21
14.457581
 31
0.0
  0
LINE
  5
1DD
  8
0
 10
6.092849
 20
14.457581
 30
0.0
 11
6.092849
 21
14.625
 31
0.0
  0
LINE
  5
1DE
  8
0
 10
6.592849
 20
0.563
 30
0.0
 11
6.592849
 21
0.695581
 31
0.0
  0
LINE
  5
1DF
  8
0
 10
6.592849
 20
0.563
 30
0.0
 11
6.592849
 21
0.695581
 31
0.0
  0
LINE
  5
1E0
  8
0
 10
6.592849
 20
0.695581
 30
0.0
 11
6.592849
 21
1.34461
 31
0.0
  0
LINE
  5
1E1
  8
0
 10
6.592849
 20
1.34461
 30
0.0
 11
6.592849
 21
2.007955
 31
0.0
  0
LINE
  5
1E2
  8
0
 10
6.592849
 20
2.007955
 30
0.0
 11
6.592849
 21
2.175374
 31
0.0
  0
LINE
  5
1E3
  8
0
 10
6.592849
 20
2.175374
 30
0.0
 11
6.592849
 21
2.307513
 31
0.0
  0
LINE
  5
1E4
  8
0
 10
6.592849
 20
2.307513
 30
0.0
 11
6.592849
 21
3.14461
 31
0.0
  0
LINE
  5
1E5
  8
0
 10
6.592849
 20
3.14461
 30
0.0
 11
6.592849
 21
3.807955
 31
0.0
  0
LINE
  5
1E6
  8
0
 10
6.592849
 20
3.807955
 30
0.0
 11
6.592849
 21
3.975374
 31
0.0
  0
LINE
  5
1E7
  8
0
 10
6.592849
 20
3.975374
 30
0.0
 11
6.592849
 21
4.107513
 31
0.0
  0
LINE
  5
1E8
  8
0
 10
6.592849
 20
4.107513
 30
0.0
 11
6.592849
 21
4.94461
 31
0.0
  0
LINE
  5
1E9
  8
0
 10
6.592849
 20
4.94461
 30
0.0
 11
6.592849
 21
5.607955
 31
0.0
  0
LINE
  5
1EA
  8
0
 10
6.592849
 20
5.607955
 30
0.0
 11
6.592849
 21
5.775374
 31
0.0
  0
LINE
  5
1EB
  8
0
 10
6.592849
 20
5.775374
 30
0.0
 11
6.592849
 21
5.907513
 31
0.0
  0
LINE
  5
1EC
  8
0
 10
6.592849
 20
5.907513
 30
0.0
 11
6.592849
 21
6.74461
 31
0.0
  0
LINE
  5
1ED
  8
0
 10
6.592849
 20
6.74461
 30
0.0
 11
6.592849
 21
7.407955
 31
0.0
  0
LINE
  5
1EE
  8
0
 10
6.592849
 20
7.407955
 30
0.0
 11
6.592849
 21
7.575374
 31
0.0
  0
LINE
  5
1EF
  8
0
 10
6.592849
 20
7.575374
 30
0.0
 11
6.592849
 21
7.707513
 31
0.0
  0
LINE
  5
1F0
  8
0
 10
6.592849
 20
7.707513
 30
0.0
 11
6.592849
 21
8.54461
 31
0.0
  0
LINE
  5
1F1
  8
0
 10
6.592849
 20
8.54461
 30
0.0
 11
6.592849
 21
9.207955
 31
0.0
  0
LINE
  5
1F2
  8
0
 10
6.592849
 20
9.207955
 30
0.0
 11
6.592849
 21
9.375374
 31
0.0
  0
LINE
  5
1F3
  8
0
 10
6.592849
 20
9.375374
 30
0.0
 11
6.592849
 21
9.507513
 31
0.0
  0
LINE
  5
1F4
  8
0
 10
6.592849
 20
9.507513
 30
0.0
 11
6.592849
 21
10.34461
 31
0.0
  0
LINE
  5
1F5
  8
0
 10
6.592849
 20
10.34461
 30
0.0
 11
6.592849
 21
11.007955
 31
0.0
  0
LINE
  5
1F6
  8
0
 10
6.592849
 20
11.007955
 30
0.0
 11
6.592849
 21
11.175374
 31
0.0
  0
LINE
  5
1F7
  8
0
 10
6.592849
 20
11.175374
 30
0.0
 11
6.592849
 21
11.307513
 31
0.0
  0
LINE
  5
1F8
  8
0
 10
6.592849
 20
11.307513
 30
0.0
 11
6.592849
 21
12.14461
 31
0.0
  0
LINE
  5
1F9
  8
0
 10
6.592849
 20
12.14461
 30
0.0
 11
6.592849
 21
12.807955
 31
0.0
  0
LINE
  5
1FA
  8
0
 10
6.592849
 20
12.807955
 30
0.0
 11
6.592849
 21
12.975374
 31
0.0
  0
LINE
  5
1FB
  8
0
 10
6.592849
 20
12.975374
 30
0.0
 11
6.592849
 21
13.107513
 31
0.0
  0
LINE
  5
1FC
  8
0
 10
6.592849
 20
13.107513
 30
0.0
 11
6.592849
 21
13.94461
 31
0.0
  0
LINE
  5
1FD
  8
0
 10
6.592849
 20
13.94461
 30
0.0
 11
6.592849
 21
14.458581
 31
0.0
  0
LINE
  5
1FE
  8
0
 10
6.592849
 20
14.458581
 30
0.0
 11
6.592849
 21
14.626
 31
0.0
  0
LINE
  5
1FF
  8
0
 10
7.092849
 20
0.579
 30
0.0
 11
7.092849
 21
0.711581
 31
0.0
  0
LINE
  5
200
  8
0
 10
7.092849
 20
0.579
 30
0.0
 11
7.092849
 21
0.711581
 31
0.0
  0
LINE
  5
201
  8
0
 10
7.092849
 20
0.711581
 30
0.0
 11
7.092849
 21
1.352239
 31
0.0
  0
LINE
  5
202
  8
0
 10
7.092849
 20
1.352239
 30
0.0
 11
7.092849
 21
2.015142
 31
0.0
  0
LINE
  5
203
  8
0
 10
7.092849
 20
2.015142
 30
0.0
 11
7.092849
 21
2.182561
 31
0.0
  0
LINE
  5
204
  8
0
 10
7.092849
 20
2.182561
 30
0.0
 11
7.092849
 21
2.315142
 31
0.0
  0
LINE
  5
205
  8
0
 10
7.092849
 20
2.315142
 30
0.0
 11
7.092849
 21
3.152239
 31
0.0
  0
LINE
  5
206
  8
0
 10
7.092849
 20
3.152239
 30
0.0
 11
7.092849
 21
3.815142
 31
0.0
  0
LINE
  5
207
  8
0
 10
7.092849
 20
3.815142
 30
0.0
 11
7.092849
 21
3.982561
 31
0.0
  0
LINE
  5
208
  8
0
 10
7.092849
 20
3.982561
 30
0.0
 11
7.092849
 21
4.115142
 31
0.0
  0
LINE
  5
209
  8
0
 10
7.092849
 20
4.115142
 30
0.0
 11
7.092849
 21
4.952239
 31
0.0
  0
LINE
  5
20A
  8
0
 10
7.092849
 20
4.952239
 30
0.0
 11
7.092849
 21
5.615142
 31
0.0
  0
LINE
  5
20B
  8
0
 10
7.092849
 20
5.615142
 30
0.0
 11
7.092849
 21
5.782561
 31
0.0
  0
LINE
  5
20C
  8
0
 10
7.092849
 20
5.782561
 30
0.0
 11
7.092849
 21
5.915142
 31
0.0
  0
LINE
  5
20D
  8
0
 10
7.092849
 20
5.915142
 30
0.0
 11
7.092849
 21
6.752239
 31
0.0
  0
LINE
  5
20E
  8
0
 10
7.092849
 20
6.752239
 30
0.0
 11
7.092849
 21
7.415142
 31
0.0
  0
LINE
  5
20F
  8
0
 10
7.092849
 20
7.415142
 30
0.0
 11
7.092849
 21
7.582561
 31
0.0
  0
LINE
  5
210
  8
0
 10
7.092849
 20
7.582561
 30
0.0
 11
7.092849
 21
7.715142
 31
0.0
  0
LINE
  5
211
  8
0
 10
7.092849
 20
7.715142
 30
0.0
 11
7.092849
 21
8.552239
 31
0.0
  0
LINE
  5
212
  8
0
 10
7.092849
 20
8.552239
 30
0.0
 11
7.092849
 21
9.215142
 31
0.0
  0
LINE
  5
213
  8
0
 10
7.092849
 20
9.215142
 30
0.0
 11
7.092849
 21
9.382561
 31
0.0
  0
LINE
  5
214
  8
0
 10
7.092849
 20
9.382561
 30
0.0
 11
7.092849
 21
9.515142
 31
0.0
  0
LINE
  5
215
  8
0
 10
7.092849
 20
9.515142
 30
0.0
 11
7.092849
 21
10.352239
 31
0.0
  0
LINE
  5
216
  8
0
 10
7.092849
 20
10.352239
 30
0.0
 11
7.092849
 21
11.015142
 31
0.0
  0
LINE
  5
217
  8
0
 10
7.092849
 20
11.015142
 30
0.0
 11
7.092849
 21
11.182561
 31
0.0
  0
LINE
  5
218
  8
0
 10
7.092849
 20
11.182561
 30
0.0
 11
7.092849
 21
11.315142
 31
0.0
  0
LINE
  5
219
  8
0
 10
7.092849
 20
11.315142
 30
0.0
 11
7.092849
 21
12.152239
 31
0.0
  0
LINE
  5
21A
  8
0
 10
7.092849
 20
12.152239
 30
0.0
 11
7.092849
 21
12.815142
 31
0.0
  0
LINE
  5
21B
  8
0
 10
7.092849
 20
12.815142
 30
0.0
 11
7.092849
 21
12.982561
 31
0.0
  0
LINE
  5
21C
  8
0
 10
7.092849
 20
12.982561
 30
0.0
 11
7.092849
 21
13.115142
 31
0.0
  0
LINE
  5
21D
  8
0
 10
7.092849
 20
13.115142
 30
0.0
 11
7.092849
 21
13.952239
 31
0.0
  0
LINE
  5
21E
  8
0
 10
7.092849
 20
13.952239
 30
0.0
 11
7.092849
 21
14.459581
 31
0.0
  0
LINE
  5
21F
  8
0
 10
7.092849
 20
14.459581
 30
0.0
 11
7.092849
 21
14.627
 31
0.0
  0
LINE
  5
220
  8
0
 10
7.592849
 20
0.574
 30
0.0
 11
7.592849
 21
0.574558
 31
0.0
  0
LINE
  5
221
  8
0
 10
7.592849
 20
0.574
 30
0.0
 11
7.592849
 21
0.574558
 31
0.0
  0
LINE
  5
222
  8
0
 10
7.592849
 20
0.574558
 30
0.0
 11
7.592849
 21
0.707581
 31
0.0
  0
LINE
  5
223
  8
0
 10
7.592849
 20
0.707581
 30
0.0
 11
7.592849
 21
1.351029
 31
0.0
  0
LINE
  5
224
  8
0
 10
7.592849
 20
1.351029
 30
0.0
 11
7.592849
 21
2.013932
 31
0.0
  0
LINE
  5
225
  8
0
 10
7.592849
 20
2.013932
 30
0.0
 11
7.592849
 21
2.180794
 31
0.0
  0
LINE
  5
226
  8
0
 10
7.592849
 20
2.180794
 30
0.0
 11
7.592849
 21
2.313374
 31
0.0
  0
LINE
  5
227
  8
0
 10
7.592849
 20
2.313374
 30
0.0
 11
7.592849
 21
3.151029
 31
0.0
  0
LINE
  5
228
  8
0
 10
7.592849
 20
3.151029
 30
0.0
 11
7.592849
 21
3.813932
 31
0.0
  0
LINE
  5
229
  8
0
 10
7.592849
 20
3.813932
 30
0.0
 11
7.592849
 21
3.980794
 31
0.0
  0
LINE
  5
22A
  8
0
 10
7.592849
 20
3.980794
 30
0.0
 11
7.592849
 21
4.113374
 31
0.0
  0
LINE
  5
22B
  8
0
 10
7.592849
 20
4.113374
 30
0.0
 11
7.592849
 21
4.951029
 31
0.0
  0
LINE
  5
22C
  8
0
 10
7.592849
 20
4.951029
 30
0.0
 11
7.592849
 21
5.613932
 31
0.0
  0
LINE
  5
22D
  8
0
 10
7.592849
 20
5.613932
 30
0.0
 11
7.592849
 21
5.780794
 31
0.0
  0
LINE
  5
22E
  8
0
 10
7.592849
 20
5.780794
 30
0.0
 11
7.592849
 21
5.913374
 31
0.0
  0
LINE
  5
22F
  8
0
 10
7.592849
 20
5.913374
 30
0.0
 11
7.592849
 21
6.751029
 31
0.0
  0
LINE
  5
230
  8
0
 10
7.592849
 20
6.751029
 30
0.0
 11
7.592849
 21
7.413932
 31
0.0
  0
LINE
  5
231
  8
0
 10
7.592849
 20
7.413932
 30
0.0
 11
7.592849
 21
7.580794
 31
0.0
  0
LINE
  5
232
  8
0
 10
7.592849
 20
7.580794
 30
0.0
 11
7.592849
 21
7.713374
 31
0.0
  0
LINE
  5
233
  8
0
 10
7.592849
 20
7.713374
 30
0.0
 11
7.592849
 21
8.551029
 31
0.0
  0
LINE
  5
234
  8
0
 10
7.592849
 20
8.551029
 30
0.0
 11
7.592849
 21
9.213932
 31
0.0
  0
LINE
  5
235
  8
0
 10
7.592849
 20
9.213932
 30
0.0
 11
7.592849
 21
9.380794
 31
0.0
  0
LINE
  5
236
  8
0
 10
7.592849
 20
9.380794
 30
0.0
 11
7.592849
 21
9.513374
 31
0.0
  0
LINE
  5
237
  8
0
 10
7.592849
 20
9.513374
 30
0.0
 11
7.592849
 21
10.351029
 31
0.0
  0
LINE
  5
238
  8
0
 10
7.592849
 20
10.351029
 30
0.0
 11
7.592849
 21
11.013932
 31
0.0
  0
LINE
  5
239
  8
0
 10
7.592849
 20
11.013932
 30
0.0
 11
7.592849
 21
11.180794
 31
0.0
  0
LINE
  5
23A
  8
0
 10
7.592849
 20
11.180794
 30
0.0
 11
7.592849
 21
11.313374
 31
0.0
  0
LINE
  5
23B
  8
0
 10
7.592849
 20
11.313374
 30
0.0
 11
7.592849
 21
12.151029
 31
0.0
  0
LINE
  5
23C
  8
0
 10
7.592849
 20
12.151029
 30
0.0
 11
7.592849
 21
12.813932
 31
0.0
  0
LINE
  5
23D
  8
0
 10
7.592849
 20
12.813932
 30
0.0
 11
7.592849
 21
12.980794
 31
0.0
  0
LINE
  5
23E
  8
0
 10
7.592849
 20
12.980794
 30
0.0
 11
7.592849
 21
13.113374
 31
0.0
  0
LINE
  5
23F
  8
0
 10
7.592849
 20
13.113374
 30
0.0
 11
7.592849
 21
13.951029
 31
0.0
  0
LINE
  5
240
  8
0
 10
7.592849
 20
13.951029
 30
0.0
 11
7.592849
 21
14.460581
 31
0.0
  0
LINE
  5
241
  8
0
 10
7.592849
 20
14.460581
 30
0.0
 11
7.592849
 21
14.628
 31
0.0
  0
LINE
  5
242
  8
0
 10
8.092849
 20
0.563
 30
0.0
 11
8.092849
 21
0.695581
 31
0.0
  0
LINE
  5
243
  8
0
 10
8.092849
 20
0.563
 30
0.0
 11
8.092849
 21
0.695581
 31
0.0
  0
LINE
  5
244
  8
0
 10
8.092849
 20
0.695581
 30
0.0
 11
8.092849
 21
1.345726
 31
0.0
  0
LINE
  5
245
  8
0
 10
8.092849
 20
1.345726
 30
0.0
 11
8.092849
 21
2.008629
 31
0.0
  0
LINE
  5
246
  8
0
 10
8.092849
 20
2.008629
 30
0.0
 11
8.092849
 21
2.176048
 31
0.0
  0
LINE
  5
247
  8
0
 10
8.092849
 20
2.176048
 30
0.0
 11
8.092849
 21
2.308629
 31
0.0
  0
LINE
  5
248
  8
0
 10
8.092849
 20
2.308629
 30
0.0
 11
8.092849
 21
3.145726
 31
0.0
  0
LINE
  5
249
  8
0
 10
8.092849
 20
3.145726
 30
0.0
 11
8.092849
 21
3.808629
 31
0.0
  0
LINE
  5
24A
  8
0
 10
8.092849
 20
3.808629
 30
0.0
 11
8.092849
 21
3.976048
 31
0.0
  0
LINE
  5
24B
  8
0
 10
8.092849
 20
3.976048
 30
0.0
 11
8.092849
 21
4.108629
 31
0.0
  0
LINE
  5
24C
  8
0
 10
8.092849
 20
4.108629
 30
0.0
 11
8.092849
 21
4.945726
 31
0.0
  0
LINE
  5
24D
  8
0
 10
8.092849
 20
4.945726
 30
0.0
 11
8.092849
 21
5.608629
 31
0.0
  0
LINE
  5
24E
  8
0
 10
8.092849
 20
5.608629
 30
0.0
 11
8.092849
 21
5.776048
 31
0.0
  0
LINE
  5
24F
  8
0
 10
8.092849
 20
5.776048
 30
0.0
 11
8.092849
 21
5.908629
 31
0.0
  0
LINE
  5
250
  8
0
 10
8.092849
 20
5.908629
 30
0.0
 11
8.092849
 21
6.745726
 31
0.0
  0
LINE
  5
251
  8
0
 10
8.092849
 20
6.745726
 30
0.0
 11
8.092849
 21
7.408629
 31
0.0
  0
LINE
  5
252
  8
0
 10
8.092849
 20
7.408629
 30
0.0
 11
8.092849
 21
7.576048
 31
0.0
  0
LINE
  5
253
  8
0
 10
8.092849
 20
7.576048
 30
0.0
 11
8.092849
 21
7.708629
 31
0.0
  0
LINE
  5
254
  8
0
 10
8.092849
 20
7.708629
 30
0.0
 11
8.092849
 21
8.545726
 31
0.0
  0
LINE
  5
255
  8
0
 10
8.092849
 20
8.545726
 30
0.0
 11
8.092849
 21
9.208629
 31
0.0
  0
LINE
  5
256
  8
0
 10
8.092849
 20
9.208629
 30
0.0
 11
8.092849
 21
9.376048
 31
0.0
  0
LINE
  5
257
  8
0
 10
8.092849
 20
9.376048
 30
0.0
 11
8.092849
 21
9.508629
 31
0.0
  0
LINE
  5
258
  8
0
 10
8.092849
 20
9.508629
 30
0.0
 11
8.092849
 21
10.345726
 31
0.0
  0
LINE
  5
259
  8
0
 10
8.092849
 20
10.345726
 30
0.0
 11
8.092849
 21
11.008629
 31
0.0
  0
LINE
  5
25A
  8
0
 10
8.092849
 20
11.008629
 30
0.0
 11
8.092849
 21
11.176048
 31
0.0
  0
LINE
  5
25B
  8
0
 10
8.092849
 20
11.176048
 30
0.0
 11
8.092849
 21
11.308629
 31
0.0
  0
LINE
  5
25C
  8
0
 10
8.092849
 20
11.308629
 30
0.0
 11
8.092849
 21
12.145726
 31
0.0
  0
LINE
  5
25D
  8
0
 10
8.092849
 20
12.145726
 30
0.0
 11
8.092849
 21
12.808629
 31
0.0
  0
LINE
  5
25E
  8
0
 10
8.092849
 20
12.808629
 30
0.0
 11
8.092849
 21
12.976048
 31
0.0
  0
LINE
  5
25F
  8
0
 10
8.092849
 20
12.976048
 30
0.0
 11
8.092849
 21
13.108629
 31
0.0
  0
LINE
  5
260
  8
0
 10
8.092849
 20
13.108629
 30
0.0
 11
8.092849
 21
13.945726
 31
0.0
  0
LINE
  5
261
  8
0
 10
8.092849
 20
13.945726
 30
0.0
 11
8.092849
 21
14.460581
 31
0.0
  0
LINE
  5
262
  8
0
 10
8.092849
 20
14.460581
 30
0.0
 11
8.092849
 21
14.628
 31
0.0
  0
LINE
  5
263
  8
0
 10
8.592849
 20
0.551
 30
0.0
 11
8.592849
 21
0.683581
 31
0.0
  0
LINE
  5
264
  8
0
 10
8.592849
 20
0.551
 30
0.0
 11
8.592849
 21
0.683581
 31
0.0
  0
LINE
  5
265
  8
0
 10
8.592849
 20
0.683581
 30
0.0
 11
8.592849
 21
1.340981
 31
0.0
  0
LINE
  5
266
  8
0
 10
8.592849
 20
1.340981
 30
0.0
 11
8.592849
 21
2.003884
 31
0.0
  0
LINE
  5
267
  8
0
 10
8.592849
 20
2.003884
 30
0.0
 11
8.592849
 21
2.171303
 31
0.0
  0
LINE
  5
268
  8
0
 10
8.592849
 20
2.171303
 30
0.0
 11
8.592849
 21
2.303884
 31
0.0
  0
LINE
  5
269
  8
0
 10
8.592849
 20
2.303884
 30
0.0
 11
8.592849
 21
3.140981
 31
0.0
  0
LINE
  5
26A
  8
0
 10
8.592849
 20
3.140981
 30
0.0
 11
8.592849
 21
3.803884
 31
0.0
  0
LINE
  5
26B
  8
0
 10
8.592849
 20
3.803884
 30
0.0
 11
8.592849
 21
3.971303
 31
0.0
  0
LINE
  5
26C
  8
0
 10
8.592849
 20
3.971303
 30
0.0
 11
8.592849
 21
4.103884
 31
0.0
  0
LINE
  5
26D
  8
0
 10
8.592849
 20
4.103884
 30
0.0
 11
8.592849
 21
4.940981
 31
0.0
  0
LINE
  5
26E
  8
0
 10
8.592849
 20
4.940981
 30
0.0
 11
8.592849
 21
5.603884
 31
0.0
  0
LINE
  5
26F
  8
0
 10
8.592849
 20
5.603884
 30
0.0
 11
8.592849
 21
5.771303
 31
0.0
  0
LINE
  5
270
  8
0
 10
8.592849
 20
5.771303
 30
0.0
 11
8.592849
 21
5.903884
 31
0.0
  0
LINE
  5
271
  8
0
 10
8.592849
 20
5.903884
 30
0.0
 11
8.592849
 21
6.740981
 31
0.0
  0
LINE
  5
272
  8
0
 10
8.592849
 20
6.740981
 30
0.0
 11
8.592849
 21
7.403884
 31
0.0
  0
LINE
  5
273
  8
0
 10
8.592849
 20
7.403884
 30
0.0
 11
8.592849
 21
7.571303
 31
0.0
  0
LINE
  5
274
  8
0
 10
8.592849
 20
7.571303
 30
0.0
 11
8.592849
 21
7.703884
 31
0.0
  0
LINE
  5
275
  8
0
 10
8.592849
 20
7.703884
 30
0.0
 11
8.592849
 21
8.540981
 31
0.0
  0
LINE
  5
276
  8
0
 10
8.592849
 20
8.540981
 30
0.0
 11
8.592849
 21
9.203884
 31
0.0
  0
LINE
  5
277
  8
0
 10
8.592849
 20
9.203884
 30
0.0
 11
8.592849
 21
9.371303
 31
0.0
  0
LINE
  5
278
  8
0
 10
8.592849
 20
9.371303
 30
0.0
 11
8.592849
 21
9.503884
 31
0.0
  0
LINE
  5
279
  8
0
 10
8.592849
 20
9.503884
 30
0.0
 11
8.592849
 21
10.340981
 31
0.0
  0
LINE
  5
27A
  8
0
 10
8.592849
 20
10.340981
 30
0.0
 11
8.592849
 21
11.003884
 31
0.0
  0
LINE
  5
27B
  8
0
 10
8.592849
 20
11.003884
 30
0.0
 11
8.592849
 21
11.171303
 31
0.0
  0
LINE
  5
27C
  8
0
 10
8.592849
 20
11.171303
 30
0.0
 11
8.592849
 21
11.303884
 31
0.0
  0
LINE
  5
27D
  8
0
 10
8.592849
 20
11.303884
 30
0.0
 11
8.592849
 21
12.140981
 31
0.0
  0
LINE
  5
27E
  8
0
 10
8.592849
 20
12.140981
 30
0.0
 11
8.592849
 21
12.803884
 31
0.0
  0
LINE
  5
27F
  8
0
 10
8.592849
 20
12.803884
 30
0.0
 11
8.592849
 21
12.971303
 31
0.0
  0
LINE
  5
280
  8
0
 10
8.592849
 20
12.971303
 30
0.0
 11
8.592849
 21
13.103884
 31
0.0
  0
LINE
  5
281
  8
0
 10
8.592849
 20
13.103884
 30
0.0
 11
8.592849
 21
13.940981
 31
0.0
  0
LINE
  5
282
  8
0
 10
8.592849
 20
13.940981
 30
0.0
 11
8.592849
 21
14.461581
 31
0.0
  0
LINE
  5
283
  8
0
 10
8.592849
 20
14.461581
 30
0.0
 11
8.592849
 21
14.629
 31
0.0
  0
LINE
  5
284
  8
0
 10
9.092849
 20
0.539
 30
0.0
 11
9.092849
 21
0.671581
 31
0.0
  0
LINE
  5
285
  8
0
 10
9.092849
 20
0.539
 30
0.0
 11
9.092849
 21
0.671581
 31
0.0
  0
LINE
  5
286
  8
0
 10
9.092849
 20
0.671581
 30
0.0
 11
9.092849
 21
1.336235
 31
0.0
  0
LINE
  5
287
  8
0
 10
9.092849
 20
1.336235
 30
0.0
 11
9.092849
 21
1.999139
 31
0.0
  0
LINE
  5
288
  8
0
 10
9.092849
 20
1.999139
 30
0.0
 11
9.092849
 21
2.166558
 31
0.0
  0
LINE
  5
289
  8
0
 10
9.092849
 20
2.166558
 30
0.0
 11
9.092849
 21
2.299139
 31
0.0
  0
LINE
  5
28A
  8
0
 10
9.092849
 20
2.299139
 30
0.0
 11
9.092849
 21
3.136235
 31
0.0
  0
LINE
  5
28B
  8
0
 10
9.092849
 20
3.136235
 30
0.0
 11
9.092849
 21
3.799139
 31
0.0
  0
LINE
  5
28C
  8
0
 10
9.092849
 20
3.799139
 30
0.0
 11
9.092849
 21
3.966558
 31
0.0
  0
LINE
  5
28D
  8
0
 10
9.092849
 20
3.966558
 30
0.0
 11
9.092849
 21
4.099139
 31
0.0
  0
LINE
  5
28E
  8
0
 10
9.092849
 20
4.099139
 30
0.0
 11
9.092849
 21
4.936235
 31
0.0
  0
LINE
  5
28F
  8
0
 10
9.092849
 20
4.936235
 30
0.0
 11
9.092849
 21
5.599139
 31
0.0
  0
LINE
  5
290
  8
0
 10
9.092849
 20
5.599139
 30
0.0
 11
9.092849
 21
5.766558
 31
0.0
  0
LINE
  5
291
  8
0
 10
9.092849
 20
5.766558
 30
0.0
 11
9.092849
 21
5.899139
 31
0.0
  0
LINE
  5
292
  8
0
 10
9.092849
 20
5.899139
 30
0.0
 11
9.092849
 21
6.736235
 31
0.0
  0
LINE
  5
293
  8
0
 10
9.092849
 20
6.736235
 30
0.0
 11
9.092849
 21
7.399139
 31
0.0
  0
LINE
  5
294
  8
0
 10
9.092849
 20
7.399139
 30
0.0
 11
9.092849
 21
7.566558
 31
0.0
  0
LINE
  5
295
  8
0
 10
9.092849
 20
7.566558
 30
0.0
 11
9.092849
 21
7.699139
 31
0.0
  0
LINE
  5
296
  8
0
 10
9.092849
 20
7.699139
 30
0.0
 11
9.092849
 21
8.536235
 31
0.0
  0
LINE
  5
297
  8
0
 10
9.092849
 20
8.536235
 30
0.0
 11
9.092849
 21
9.199139
 31
0.0
  0
LINE
  5
298
  8
0
 10
9.092849
 20
9.199139
 30
0.0
 11
9.092849
 21
9.366558
 31
0.0
  0
LINE
  5
299
  8
0
 10
9.092849
 20
9.366558
 30
0.0
 11
9.092849
 21
9.499139
 31
0.0
  0
LINE
  5
29A
  8
0
 10
9.092849
 20
9.499139
 30
0.0
 11
9.092849
 21
10.336235
 31
0.0
  0
LINE
  5
29B
  8
0
 10
9.092849
 20
10.336235
 30
0.0
 11
9.092849
 21
10.999139
 31
0.0
  0
LINE
  5
29C
  8
0
 10
9.092849
 20
10.999139
 30
0.0
 11
9.092849
 21
11.166558
 31
0.0
  0
LINE
  5
29D
  8
0
 10
9.092849
 20
11.166558
 30
0.0
 11
9.092849
 21
11.299139
 31
0.0
  0
LINE
  5
29E
  8
0
 10
9.092849
 20
11.299139
 30
0.0
 11
9.092849
 21
12.136235
 31
0.0
  0
LINE
  5
29F
  8
0
 10
9.092849
 20
12.136235
 30
0.0
 11
9.092849
 21
12.799139
 31
0.0
  0
LINE
  5
2A0
  8
0
 10
9.092849
 20
12.799139
 30
0.0
 11
9.092849
 21
12.966558
 31
0.0
  0
LINE
  5
2A1
  8
0
 10
9.092849
 20
12.966558
 30
0.0
 11
9.092849
 21
13.099139
 31
0.0
  0
LINE
  5
2A2
  8
0
 10
9.092849
 20
13.099139
 30
0.0
 11
9.092849
 21
13.936235
 31
0.0
  0
LINE
  5
2A3
  8
0
 10
9.092849
 20
13.936235
 30
0.0
 11
9.092849
 21
14.462581
 31
0.0
  0
LINE
  5
2A4
  8
0
 10
9.092849
 20
14.462581
 30
0.0
 11
9.092849
 21
14.63
 31
0.0
  0
LINE
  5
2A5
  8
0
 10
9.592849
 20
0.527
 30
0.0
 11
9.592849
 21
0.659581
 31
0.0
  0
LINE
  5
2A6
  8
0
 10
9.592849
 20
0.527
 30
0.0
 11
9.592849
 21
0.659581
 31
0.0
  0
LINE
  5
2A7
  8
0
 10
9.592849
 20
0.659581
 30
0.0
 11
9.592849
 21
1.330932
 31
0.0
  0
LINE
  5
2A8
  8
0
 10
9.592849
 20
1.330932
 30
0.0
 11
9.592849
 21
1.993835
 31
0.0
  0
LINE
  5
2A9
  8
0
 10
9.592849
 20
1.993835
 30
0.0
 11
9.592849
 21
2.161255
 31
0.0
  0
LINE
  5
2AA
  8
0
 10
9.592849
 20
2.161255
 30
0.0
 11
9.592849
 21
2.293835
 31
0.0
  0
LINE
  5
2AB
  8
0
 10
9.592849
 20
2.293835
 30
0.0
 11
9.592849
 21
3.130932
 31
0.0
  0
LINE
  5
2AC
  8
0
 10
9.592849
 20
3.130932
 30
0.0
 11
9.592849
 21
3.793835
 31
0.0
  0
LINE
  5
2AD
  8
0
 10
9.592849
 20
3.793835
 30
0.0
 11
9.592849
 21
3.961255
 31
0.0
  0
LINE
  5
2AE
  8
0
 10
9.592849
 20
3.961255
 30
0.0
 11
9.592849
 21
4.093835
 31
0.0
  0
LINE
  5
2AF
  8
0
 10
9.592849
 20
4.093835
 30
0.0
 11
9.592849
 21
4.930932
 31
0.0
  0
LINE
  5
2B0
  8
0
 10
9.592849
 20
4.930932
 30
0.0
 11
9.592849
 21
5.593835
 31
0.0
  0
LINE
  5
2B1
  8
0
 10
9.592849
 20
5.593835
 30
0.0
 11
9.592849
 21
5.761255
 31
0.0
  0
LINE
  5
2B2
  8
0
 10
9.592849
 20
5.761255
 30
0.0
 11
9.592849
 21
5.893835
 31
0.0
  0
LINE
  5
2B3
  8
0
 10
9.592849
 20
5.893835
 30
0.0
 11
9.592849
 21
6.730932
 31
0.0
  0
LINE
  5
2B4
  8
0
 10
9.592849
 20
6.730932
 30
0.0
 11
9.592849
 21
7.393835
 31
0.0
  0
LINE
  5
2B5
  8
0
 10
9.592849
 20
7.393835
 30
0.0
 11
9.592849
 21
7.561255
 31
0.0
  0
LINE
  5
2B6
  8
0
 10
9.592849
 20
7.561255
 30
0.0
 11
9.592849
 21
7.693835
 31
0.0
  0
LINE
  5
2B7
  8
0
 10
9.592849
 20
7.693835
 30
0.0
 11
9.592849
 21
8.530932
 31
0.0
  0
LINE
  5
2B8
  8
0
 10
9.592849
 20
8.530932
 30
0.0
 11
9.592849
 21
9.193835
 31
0.0
  0
LINE
  5
2B9
  8
0
 10
9.592849
 20
9.193835
 30
0.0
 11
9.592849
 21
9.361255
 31
0.0
  0
LINE
  5
2BA
  8
0
 10
9.592849
 20
9.361255
 30
0.0
 11
9.592849
 21
9.493835
 31
0.0
  0
LINE
  5
2BB
  8
0
 10
9.592849
 20
9.493835
 30
0.0
 11
9.592849
 21
10.330932
 31
0.0
  0
LINE
  5
2BC
  8
0
 10
9.592849
 20
10.330932
 30
0.0
 11
9.592849
 21
10.993835
 31
0.0
  0
LINE
  5
2BD
  8
0
 10
9.592849
 20
10.993835
 30
0.0
 11
9.592849
 21
11.161255
 31
0.0
  0
LINE
  5
2BE
  8
0
 10
9.592849
 20
11.161255
 30
0.0
 11
9.592849
 21
11.293835
 31
0.0
  0
LINE
  5
2BF
  8
0
 10
9.592849
 20
11.293835
 30
0.0
 11
9.592849
 21
12.130932
 31
0.0
  0
LINE
  5
2C0
  8
0
 10
9.592849
 20
12.130932
 30
0.0
 11
9.592849
 21
12.793835
 31
0.0
  0
LINE
  5
2C1
  8
0
 10
9.592849
 20
12.793835
 30
0.0
 11
9.592849
 21
12.961255
 31
0.0
  0
LINE
  5
2C2
  8
0
 10
9.592849
 20
12.961255
 30
0.0
 11
9.592849
 21
13.093835
 31
0.0
  0
LINE
  5
2C3
  8
0
 10
9.592849
 20
13.093835
 30
0.0
 11
9.592849
 21
13.930932
 31
0.0
  0
LINE
  5
2C4
  8
0
 10
9.592849
 20
13.930932
 30
0.0
 11
9.592849
 21
14.462581
 31
0.0
  0
LINE
  5
2C5
  8
0
 10
9.592849
 20
14.462581
 30
0.0
 11
9.592849
 21
14.63
 31
0.0
  0
LINE
  5
2C6
  8
0
 10
10.092849
 20
0.515
 30
0.0
 11
10.092849
 21
0.647581
 31
0.0
  0
LINE
  5
2C7
  8
0
 10
10.092849
 20
0.515
 30
0.0
 11
10.092849
 21
0.647581
 31
0.0
  0
LINE
  5
2C8
  8
0
 10
10.092849
 20
0.647581
 30
0.0
 11
10.092849
 21
1.326187
 31
0.0
  0
LINE
  5
2C9
  8
0
 10
10.092849
 20
1.326187
 30
0.0
 11
10.092849
 21
1.98909
 31
0.0
  0
LINE
  5
2CA
  8
0
 10
10.092849
 20
1.98909
 30
0.0
 11
10.092849
 21
2.15651
 31
0.0
  0
LINE
  5
2CB
  8
0
 10
10.092849
 20
2.15651
 30
0.0
 11
10.092849
 21
2.28909
 31
0.0
  0
LINE
  5
2CC
  8
0
 10
10.092849
 20
2.28909
 30
0.0
 11
10.092849
 21
3.126187
 31
0.0
  0
LINE
  5
2CD
  8
0
 10
10.092849
 20
3.126187
 30
0.0
 11
10.092849
 21
3.78909
 31
0.0
  0
LINE
  5
2CE
  8
0
 10
10.092849
 20
3.78909
 30
0.0
 11
10.092849
 21
3.95651
 31
0.0
  0
LINE
  5
2CF
  8
0
 10
10.092849
 20
3.95651
 30
0.0
 11
10.092849
 21
4.08909
 31
0.0
  0
LINE
  5
2D0
  8
0
 10
10.092849
 20
4.08909
 30
0.0
 11
10.092849
 21
4.926187
 31
0.0
  0
LINE
  5
2D1
  8
0
 10
10.092849
 20
4.926187
 30
0.0
 11
10.092849
 21
5.58909
 31
0.0
  0
LINE
  5
2D2
  8
0
 10
10.092849
 20
5.58909
 30
0.0
 11
10.092849
 21
5.75651
 31
0.0
  0
LINE
  5
2D3
  8
0
 10
10.092849
 20
5.75651
 30
0.0
 11
10.092849
 21
5.88909
 31
0.0
  0
LINE
  5
2D4
  8
0
 10
10.092849
 20
5.88909
 30
0.0
 11
10.092849
 21
6.726187
 31
0.0
  0
LINE
  5
2D5
  8
0
 10
10.092849
 20
6.726187
 30
0.0
 11
10.092849
 21
7.38909
 31
0.0
  0
LINE
  5
2D6
  8
0
 10
10.092849
 20
7.38909
 30
0.0
 11
10.092849
 21
7.55651
 31
0.0
  0
LINE
  5
2D7
  8
0
 10
10.092849
 20
7.55651
 30
0.0
 11
10.092849
 21
7.68909
 31
0.0
  0
LINE
  5
2D8
  8
0
 10
10.092849
 20
7.68909
 30
0.0
 11
10.092849
 21
8.526187
 31
0.0
  0
LINE
  5
2D9
  8
0
 10
10.092849
 20
8.526187
 30
0.0
 11
10.092849
 21
9.18909
 31
0.0
  0
LINE
  5
2DA
  8
0
 10
10.092849
 20
9.18909
 30
0.0
 11
10.092849
 21
9.35651
 31
0.0
  0
LINE
  5
2DB
  8
0
 10
10.092849
 20
9.35651
 30
0.0
 11
10.092849
 21
9.48909
 31
0.0
  0
LINE
  5
2DC
  8
0
 10
10.092849
 20
9.48909
 30
0.0
 11
10.092849
 21
10.326187
 31
0.0
  0
LINE
  5
2DD
  8
0
 10
10.092849
 20
10.326187
 30
0.0
 11
10.092849
 21
10.98909
 31
0.0
  0
LINE
  5
2DE
  8
0
 10
10.092849
 20
10.98909
 30
0.0
 11
10.092849
 21
11.15651
 31
0.0
  0
LINE
  5
2DF
  8
0
 10
10.092849
 20
11.15651
 30
0.0
 11
10.092849
 21
11.28909
 31
0.0
  0
LINE
  5
2E0
  8
0
 10
10.092849
 20
11.28909
 30
0.0
 11
10.092849
 21
12.126187
 31
0.0
  0
LINE
  5
2E1
  8
0
 10
10.092849
 20
12.126187
 30
0.0
 11
10.092849
 21
12.78909
 31
0.0
  0
LINE
  5
2E2
  8
0
 10
10.092849
 20
12.78909
 30
0.0
 11
10.092849
 21
12.95651
 31
0.0
  0
LINE
  5
2E3
  8
0
 10
10.092849
 20
12.95651
 30
0.0
 11
10.092849
 21
13.08909
 31
0.0
  0
LINE
  5
2E4
  8
0
 10
10.092849
 20
13.08909
 30
0.0
 11
10.092849
 21
13.926187
 31
0.0
  0
LINE
  5
2E5
  8
0
 10
10.092849
 20
13.926187
 30
0.0
 11
10.092849
 21
14.463581
 31
0.0
  0
LINE
  5
2E6
  8
0
 10
10.092849
 20
14.463581
 30
0.0
 11
10.092849
 21
14.631
 31
0.0
  0
LINE
  5
2E7
  8
0
 10
10.592849
 20
0.503
 30
0.0
 11
10.592849
 21
0.635581
 31
0.0
  0
LINE
  5
2E8
  8
0
 10
10.592849
 20
0.503
 30
0.0
 11
10.592849
 21
0.635581
 31
0.0
  0
LINE
  5
2E9
  8
0
 10
10.592849
 20
0.635581
 30
0.0
 11
10.592849
 21
1.321442
 31
0.0
  0
LINE
  5
2EA
  8
0
 10
10.592849
 20
1.321442
 30
0.0
 11
10.592849
 21
1.984345
 31
0.0
  0
LINE
  5
2EB
  8
0
 10
10.592849
 20
1.984345
 30
0.0
 11
10.592849
 21
2.151765
 31
0.0
  0
LINE
  5
2EC
  8
0
 10
10.592849
 20
2.151765
 30
0.0
 11
10.592849
 21
2.284345
 31
0.0
  0
LINE
  5
2ED
  8
0
 10
10.592849
 20
2.284345
 30
0.0
 11
10.592849
 21
3.121442
 31
0.0
  0
LINE
  5
2EE
  8
0
 10
10.592849
 20
3.121442
 30
0.0
 11
10.592849
 21
3.784345
 31
0.0
  0
LINE
  5
2EF
  8
0
 10
10.592849
 20
3.784345
 30
0.0
 11
10.592849
 21
3.951765
 31
0.0
  0
LINE
  5
2F0
  8
0
 10
10.592849
 20
3.951765
 30
0.0
 11
10.592849
 21
4.084345
 31
0.0
  0
LINE
  5
2F1
  8
0
 10
10.592849
 20
4.084345
 30
0.0
 11
10.592849
 21
4.921442
 31
0.0
  0
LINE
  5
2F2
  8
0
 10
10.592849
 20
4.921442
 30
0.0
 11
10.592849
 21
5.584345
 31
0.0
  0
LINE
  5
2F3
  8
0
 10
10.592849
 20
5.584345
 30
0.0
 11
10.592849
 21
5.751765
 31
0.0
  0
LINE
  5
2F4
  8
0
 10
10.592849
 20
5.751765
 30
0.0
 11
10.592849
 21
5.884345
 31
0.0
  0
LINE
  5
2F5
  8
0
 10
10.592849
 20
5.884345
 30
0.0
 11
10.592849
 21
6.721442
 31
0.0
  0
LINE
  5
2F6
  8
0
 10
10.592849
 20
6.721442
 30
0.0
 11
10.592849
 21
7.384345
 31
0.0
  0
LINE
  5
2F7
  8
0
 10
10.592849
 20
7.384345
 30
0.0
 11
10.592849
 21
7.551765
 31
0.0
  0
LINE
  5
2F8
  8
0
 10
10.592849
 20
7.551765
 30
0.0
 11
10.592849
 21
7.684345
 31
0.0
  0
LINE
  5
2F9
  8
0
 10
10.592849
 20
7.684345
 30
0.0
 11
10.592849
 21
8.521442
 31
0.0
  0
LINE
  5
2FA
  8
0
 10
10.592849
 20
8.521442
 30
0.0
 11
10.592849
 21
9.184345
 31
0.0
  0
LINE
  5
2FB
  8
0
 10
10.592849
 20
9.184345
 30
0.0
 11
10.592849
 21
9.351765
 31
0.0
  0
LINE
  5
2FC
  8
0
 10
10.592849
 20
9.351765
 30
0.0
 11
10.592849
 21
9.484345
 31
0.0
  0
LINE
  5
2FD
  8
0
 10
10.592849
 20
9.484345
 30
0.0
 11
10.592849
 21
10.321442
 31
0.0
  0
LINE
  5
2FE
  8
0
 10
10.592849
 20
10.321442
 30
0.0
 11
10.592849
 21
10.984345
 31
0.0
  0
LINE
  5
2FF
  8
0
 10
10.592849
 20
10.984345
 30
0.0
 11
10.592849
 21
11.151765
 31
0.0
  0
LINE
  5
300
  8
0
 10
10.592849
 20
11.151765
 30
0.0
 11
10.592849
 21
11.284345
 31
0.0
  0
LINE
  5
301
  8
0
 10
10.592849
 20
11.284345
 30
0.0
 11
10.592849
 21
12.121442
 31
0.0
  0
LINE
  5
302
  8
0
 10
10.592849
 20
12.121442
 30
0.0
 11
10.592849
 21
12.784345
 31
0.0
  0
LINE
  5
303
  8
0
 10
10.592849
 20
12.784345
 30
0.0
 11
10.592849
 21
12.951765
 31
0.0
  0
LINE
  5
304
  8
0
 10
10.592849
 20
12.951765
 30
0.0
 11
10.592849
 21
13.084345
 31
0.0
  0
LINE
  5
305
  8
0
 10
10.592849
 20
13.084345
 30
0.0
 11
10.592849
 21
13.921442
 31
0.0
  0
LINE
  5
306
  8
0
 10
10.592849
 20
13.921442
 30
0.0
 11
10.592849
 21
14.464581
 31
0.0
  0
LINE
  5
307
  8
0
 10
10.592849
 20
14.464581
 30
0.0
 11
10.592849
 21
14.632
 31
0.0
  0
LINE
  5
308
  8
0
 10
11.092849
 20
0.491
 30
0.0
 11
11.092849
 21
0.623581
 31
0.0
  0
LINE
  5
309
  8
0
 10
11.092849
 20
0.491
 30
0.0
 11
11.092849
 21
0.623581
 31
0.0
  0
LINE
  5
30A
  8
0
 10
11.092849
 20
0.623581
 30
0.0
 11
11.092849
 21
1.316697
 31
0.0
  0
LINE
  5
30B
  8
0
 10
11.092849
 20
1.316697
 30
0.0
 11
11.092849
 21
1.9796
 31
0.0
  0
LINE
  5
30C
  8
0
 10
11.092849
 20
1.9796
 30
0.0
 11
11.092849
 21
2.146461
 31
0.0
  0
LINE
  5
30D
  8
0
 10
11.092849
 20
2.146461
 30
0.0
 11
11.092849
 21
2.279042
 31
0.0
  0
LINE
  5
30E
  8
0
 10
11.092849
 20
2.279042
 30
0.0
 11
11.092849
 21
3.116697
 31
0.0
  0
LINE
  5
30F
  8
0
 10
11.092849
 20
3.116697
 30
0.0
 11
11.092849
 21
3.7796
 31
0.0
  0
LINE
  5
310
  8
0
 10
11.092849
 20
3.7796
 30
0.0
 11
11.092849
 21
3.946461
 31
0.0
  0
LINE
  5
311
  8
0
 10
11.092849
 20
3.946461
 30
0.0
 11
11.092849
 21
4.079042
 31
0.0
  0
LINE
  5
312
  8
0
 10
11.092849
 20
4.079042
 30
0.0
 11
11.092849
 21
4.916697
 31
0.0
  0
LINE
  5
313
  8
0
 10
11.092849
 20
4.916697
 30
0.0
 11
11.092849
 21
5.5796
 31
0.0
  0
LINE
  5
314
  8
0
 10
11.092849
 20
5.5796
 30
0.0
 11
11.092849
 21
5.746461
 31
0.0
  0
LINE
  5
315
  8
0
 10
11.092849
 20
5.746461
 30
0.0
 11
11.092849
 21
5.879042
 31
0.0
  0
LINE
  5
316
  8
0
 10
11.092849
 20
5.879042
 30
0.0
 11
11.092849
 21
6.716697
 31
0.0
  0
LINE
  5
317
  8
0
 10
11.092849
 20
6.716697
 30
0.0
 11
11.092849
 21
7.3796
 31
0.0
  0
LINE
  5
318
  8
0
 10
11.092849
 20
7.3796
 30
0.0
 11
11.092849
 21
7.546461
 31
0.0
  0
LINE
  5
319
  8
0
 10
11.092849
 20
7.546461
 30
0.0
 11
11.092849
 21
7.679042
 31
0.0
  0
LINE
  5
31A
  8
0
 10
11.092849
 20
7.679042
 30
0.0
 11
11.092849
 21
8.516697
 31
0.0
  0
LINE
  5
31B
  8
0
 10
11.092849
 20
8.516697
 30
0.0
 11
11.092849
 21
9.1796
 31
0.0
  0
LINE
  5
31C
  8
0
 10
11.092849
 20
9.1796
 30
0.0
 11
11.092849
 21
9.346461
 31
0.0
  0
LINE
  5
31D
  8
0
 10
11.092849
 20
9.346461
 30
0.0
 11
11.092849
 21
9.479042
 31
0.0
  0
LINE
  5
31E
  8
0
 10
11.092849
 20
9.479042
 30
0.0
 11
11.092849
 21
10.316697
 31
0.0
  0
LINE
  5
31F
  8
0
 10
11.092849
 20
10.316697
 30
0.0
 11
11.092849
 21
10.9796
 31
0.0
  0
LINE
  5
320
  8
0
 10
11.092849
 20
10.9796
 30
0.0
 11
11.092849
 21
11.146461
 31
0.0
  0
LINE
  5
321
  8
0
 10
11.092849
 20
11.146461
 30
0.0
 11
11.092849
 21
11.279042
 31
0.0
  0
LINE
  5
322
  8
0
 10
11.092849
 20
11.279042
 30
0.0
 11
11.092849
 21
12.116697
 31
0.0
  0
LINE
  5
323
  8
0
 10
11.092849
 20
12.116697
 30
0.0
 11
11.092849
 21
12.7796
 31
0.0
  0
LINE
  5
324
  8
0
 10
11.092849
 20
12.7796
 30
0.0
 11
11.092849
 21
12.946461
 31
0.0
  0
LINE
  5
325
  8
0
 10
11.092849
 20
12.946461
 30
0.0
 11
11.092849
 21
13.079042
 31
0.0
  0
LINE
  5
326
  8
0
 10
11.092849
 20
13.079042
 30
0.0
 11
11.092849
 21
13.916697
 31
0.0
  0
LINE
  5
327
  8
0
 10
11.092849
 20
13.916697
 30
0.0
 11
11.092849
 21
14.465581
 31
0.0
  0
LINE
  5
328
  8
0
 10
11.092849
 20
14.465581
 30
0.0
 11
11.092849
 21
14.633
 31
0.0
  0
LINE
  5
329
  8
0
 10
11.592849
 20
0.479
 30
0.0
 11
11.592849
 21
0.611581
 31
0.0
  0
LINE
  5
32A
  8
0
 10
11.592849
 20
0.479
 30
0.0
 11
11.592849
 21
0.611581
 31
0.0
  0
LINE
  5
32B
  8
0
 10
11.592849
 20
0.611581
 30
0.0
 11
11.592849
 21
1.311394
 31
0.0
  0
LINE
  5
32C
  8
0
 10
11.592849
 20
1.311394
 30
0.0
 11
11.592849
 21
1.974297
 31
0.0
  0
LINE
  5
32D
  8
0
 10
11.592849
 20
1.974297
 30
0.0
 11
11.592849
 21
2.141716
 31
0.0
  0
LINE
  5
32E
  8
0
 10
11.592849
 20
2.141716
 30
0.0
 11
11.592849
 21
2.274297
 31
0.0
  0
LINE
  5
32F
  8
0
 10
11.592849
 20
2.274297
 30
0.0
 11
11.592849
 21
3.111394
 31
0.0
  0
LINE
  5
330
  8
0
 10
11.592849
 20
3.111394
 30
0.0
 11
11.592849
 21
3.774297
 31
0.0
  0
LINE
  5
331
  8
0
 10
11.592849
 20
3.774297
 30
0.0
 11
11.592849
 21
3.941716
 31
0.0
  0
LINE
  5
332
  8
0
 10
11.592849
 20
3.941716
 30
0.0
 11
11.592849
 21
4.074297
 31
0.0
  0
LINE
  5
333
  8
0
 10
11.592849
 20
4.074297
 30
0.0
 11
11.592849
 21
4.911394
 31
0.0
  0
LINE
  5
334
  8
0
 10
11.592849
 20
4.911394
 30
0.0
 11
11.592849
 21
5.574297
 31
0.0
  0
LINE
  5
335
  8
0
 10
11.592849
 20
5.574297
 30
0.0
 11
11.592849
 21
5.741716
 31
0.0
  0
LINE
  5
336
  8
0
 10
11.592849
 20
5.741716
 30
0.0
 11
11.592849
 21
5.874297
 31
0.0
  0
LINE
  5
337
  8
0
 10
11.592849
 20
5.874297
 30
0.0
 11
11.592849
 21
6.711394
 31
0.0
  0
LINE
  5
338
  8
0
 10
11.592849
 20
6.711394
 30
0.0
 11
11.592849
 21
7.374297
 31
0.0
  0
LINE
  5
339
  8
0
 10
11.592849
 20
7.374297
 30
0.0
 11
11.592849
 21
7.541716
 31
0.0
  0
LINE
  5
33A
  8
0
 10
11.592849
 20
7.541716
 30
0.0
 11
11.592849
 21
7.674297
 31
0.0
  0
LINE
  5
33B
  8
0
 10
11.592849
 20
7.674297
 30
0.0
 11
11.592849
 21
8.511394
 31
0.0
  0
LINE
  5
33C
  8
0
 10
11.592849
 20
8.511394
 30
0.0
 11
11.592849
 21
9.174297
 31
0.0
  0
LINE
  5
33D
  8
0
 10
11.592849
 20
9.174297
 30
0.0
 11
11.592849
 21
9.341716
 31
0.0
  0
LINE
  5
33E
  8
0
 10
11.592849
 20
9.341716
 30
0.0
 11
11.592849
 21
9.474297
 31
0.0
  0
LINE
  5
33F
  8
0
 10
11.592849
 20
9.474297
 30
0.0
 11
11.592849
 21
10.311394
 31
0.0
  0
LINE
  5
340
  8
0
 10
11.592849
 20
10.311394
 30
0.0
 11
11.592849
 21
10.974297
 31
0.0
  0
LINE
  5
341
  8
0
 10
11.592849
 20
10.974297
 30
0.0
 11
11.592849
 21
11.141716
 31
0.0
  0
LINE
  5
342
  8
0
 10
11.592849
 20
11.141716
 30
0.0
 11
11.592849
 21
11.274297
 31
0.0
  0
LINE
  5
343
  8
0
 10
11.592849
 20
11.274297
 30
0.0
 11
11.592849
 21
12.111394
 31
0.0
  0
LINE
  5
344
  8
0
 10
11.592849
 20
12.111394
 30
0.0
 11
11.592849
 21
12.774297
 31
0.0
  0
LINE
  5
345
  8
0
 10
11.592849
 20
12.774297
 30
0.0
 11
11.592849
 21
12.941716
 31
0.0
  0
LINE
  5
346
  8
0
 10
11.592849
 20
12.941716
 30
0.0
 11
11.592849
 21
13.074297
 31
0.0
  0
LINE
  5
347
  8
0
 10
11.592849
 20
13.074297
 30
0.0
 11
11.592849
 21
13.911394
 31
0.0
  0
LINE
  5
348
  8
0
 10
11.592849
 20
13.911394
 30
0.0
 11
11.592849
 21
14.465581
 31
0.0
  0
LINE
  5
349
  8
0
 10
11.592849
 20
14.465581
 30
0.0
 11
11.592849
 21
14.633
 31
0.0
  0
LINE
  5
34A
  8
0
 10
12.092849
 20
0.467
 30
0.0
 11
12.092849
 21
0.599581
 31
0.0
  0
LINE
  5
34B
  8
0
 10
12.092849
 20
0.467
 30
0.0
 11
12.092849
 21
0.599581
 31
0.0
  0
LINE
  5
34C
  8
0
 10
12.092849
 20
0.599581
 30
0.0
 11
12.092849
 21
1.306648
 31
0.0
  0
LINE
  5
34D
  8
0
 10
12.092849
 20
1.306648
 30
0.0
 11
12.092849
 21
1.969552
 31
0.0
  0
LINE
  5
34E
  8
0
 10
12.092849
 20
1.969552
 30
0.0
 11
12.092849
 21
2.136971
 31
0.0
  0
LINE
  5
34F
  8
0
 10
12.092849
 20
2.136971
 30
0.0
 11
12.092849
 21
2.269552
 31
0.0
  0
LINE
  5
350
  8
0
 10
12.092849
 20
2.269552
 30
0.0
 11
12.092849
 21
3.106648
 31
0.0
  0
LINE
  5
351
  8
0
 10
12.092849
 20
3.106648
 30
0.0
 11
12.092849
 21
3.769552
 31
0.0
  0
LINE
  5
352
  8
0
 10
12.092849
 20
3.769552
 30
0.0
 11
12.092849
 21
3.936971
 31
0.0
  0
LINE
  5
353
  8
0
 10
12.092849
 20
3.936971
 30
0.0
 11
12.092849
 21
4.069552
 31
0.0
  0
LINE
  5
354
  8
0
 10
12.092849
 20
4.069552
 30
0.0
 11
12.092849
 21
4.906648
 31
0.0
  0
LINE
  5
355
  8
0
 10
12.092849
 20
4.906648
 30
0.0
 11
12.092849
 21
5.569552
 31
0.0
  0
LINE
  5
356
  8
0
 10
12.092849
 20
5.569552
 30
0.0
 11
12.092849
 21
5.736971
 31
0.0
  0
LINE
  5
357
  8
0
 10
12.092849
 20
5.736971
 30
0.0
 11
12.092849
 21
5.869552
 31
0.0
  0
LINE
  5
358
  8
0
 10
12.092849
 20
5.869552
 30
0.0
 11
12.092849
 21
6.706648
 31
0.0
  0
LINE
  5
359
  8
0
 10
12.092849
 20
6.706648
 30
0.0
 11
12.092849
 21
7.369552
 31
0.0
  0
LINE
  5
35A
  8
0
 10
12.092849
 20
7.369552
 30
0.0
 11
12.092849
 21
7.536971
 31
0.0
  0
LINE
  5
35B
  8
0
 10
12.092849
 20
7.536971
 30
0.0
 11
12.092849
 21
7.669552
 31
0.0
  0
LINE
  5
35C
  8
0
 10
12.092849
 20
7.669552
 30
0.0
 11
12.092849
 21
8.506648
 31
0.0
  0
LINE
  5
35D
  8
0
 10
12.092849
 20
8.506648
 30
0.0
 11
12.092849
 21
9.169552
 31
0.0
  0
LINE
  5
35E
  8
0
 10
12.092849
 20
9.169552
 30
0.0
 11
12.092849
 21
9.336971
 31
0.0
  0
LINE
  5
35F
  8
0
 10
12.092849
 20
9.336971
 30
0.0
 11
12.092849
 21
9.469552
 31
0.0
  0
LINE
  5
360
  8
0
 10
12.092849
 20
9.469552
 30
0.0
 11
12.092849
 21
10.306648
 31
0.0
  0
LINE
  5
361
  8
0
 10
12.092849
 20
10.306648
 30
0.0
 11
12.092849
 21
10.969552
 31
0.0
  0
LINE
  5
362
  8
0
 10
12.092849
 20
10.969552
 30
0.0
 11
12.092849
 21
11.136971
 31
0.0
  0
LINE
  5
363
  8
0
 10
12.092849
 20
11.136971
 30
0.0
 11
12.092849
 21
11.269552
 31
0.0
  0
LINE
  5
364
  8
0
 10
12.092849
 20
11.269552
 30
0.0
 11
12.092849
 21
12.106648
 31
0.0
  0
LINE
  5
365
  8
0
 10
12.092849
 20
12.106648
 30
0.0
 11
12.092849
 21
12.769552
 31
0.0
  0
LINE
  5
366
  8
0
 10
12.092849
 20
12.769552
 30
0.0
 11
12.092849
 21
12.936971
 31
0.0
  0
LINE
  5
367
  8
0
 10
12.092849
 20
12.936971
 30
0.0
 11
12.092849
 21
13.069552
 31
0.0
  0
LINE
  5
368
  8
0
 10
12.092849
 20
13.069552
 30
0.0
 11
12.092849
 21
13.906648
 31
0.0
  0
LINE
  5
369
  8
0
 10
12.092849
 20
13.906648
 30
0.0
 11
12.092849
 21
14.466581
 31
0.0
  0
LINE
  5
36A
  8
0
 10
12.092849
 20
14.466581
 30
0.0
 11
12.092849
 21
14.634
 31
0.0
  0
LINE
  5
36B
  8
0
 10
12.592849
 20
0.455
 30
0.0
 11
12.592849
 21
0.587581
 31
0.0
  0
LINE
  5
36C
  8
0
 10
12.592849
 20
0.455
 30
0.0
 11
12.592849
 21
0.587581
 31
0.0
  0
LINE
  5
36D
  8
0
 10
12.592849
 20
0.587581
 30
0.0
 11
12.592849
 21
1.301903
 31
0.0
  0
LINE
  5
36E
  8
0
 10
12.592849
 20
1.301903
 30
0.0
 11
12.592849
 21
1.964806
 31
0.0
  0
LINE
  5
36F
  8
0
 10
12.592849
 20
1.964806
 30
0.0
 11
12.592849
 21
2.132226
 31
0.0
  0
LINE
  5
370
  8
0
 10
12.592849
 20
2.132226
 30
0.0
 11
12.592849
 21
2.264806
 31
0.0
  0
LINE
  5
371
  8
0
 10
12.592849
 20
2.264806
 30
0.0
 11
12.592849
 21
3.101903
 31
0.0
  0
LINE
  5
372
  8
0
 10
12.592849
 20
3.101903
 30
0.0
 11
12.592849
 21
3.764806
 31
0.0
  0
LINE
  5
373
  8
0
 10
12.592849
 20
3.764806
 30
0.0
 11
12.592849
 21
3.932226
 31
0.0
  0
LINE
  5
374
  8
0
 10
12.592849
 20
3.932226
 30
0.0
 11
12.592849
 21
4.064806
 31
0.0
  0
LINE
  5
375
  8
0
 10
12.592849
 20
4.064806
 30
0.0
 11
12.592849
 21
4.901903
 31
0.0
  0
LINE
  5
376
  8
0
 10
12.592849
 20
4.901903
 30
0.0
 11
12.592849
 21
5.564806
 31
0.0
  0
LINE
  5
377
  8
0
 10
12.592849
 20
5.564806
 30
0.0
 11
12.592849
 21
5.732226
 31
0.0
  0
LINE
  5
378
  8
0
 10
12.592849
 20
5.732226
 30
0.0
 11
12.592849
 21
5.864806
 31
0.0
  0
LINE
  5
379
  8
0
 10
12.592849
 20
5.864806
 30
0.0
 11
12.592849
 21
6.701903
 31
0.0
  0
LINE
  5
37A
  8
0
 10
12.592849
 20
6.701903
 30
0.0
 11
12.592849
 21
7.364806
 31
0.0
  0
LINE
  5
37B
  8
0
 10
12.592849
 20
7.364806
 30
0.0
 11
12.592849
 21
7.532226
 31
0.0
  0
LINE
  5
37C
  8
0
 10
12.592849
 20
7.532226
 30
0.0
 11
12.592849
 21
7.664806
 31
0.0
  0
LINE
  5
37D
  8
0
 10
12.592849
 20
7.664806
 30
0.0
 11
12.592849
 21
8.501903
 31
0.0
  0
LINE
  5
37E
  8
0
 10
12.592849
 20
8.501903
 30
0.0
 11
12.592849
 21
9.164806
 31
0.0
  0
LINE
  5
37F
  8
0
 10
12.592849
 20
9.164806
 30
0.0
 11
12.592849
 21
9.332226
 31
0.0
  0
LINE
  5
380
  8
0
 10
12.592849
 20
9.332226
 30
0.0
 11
12.592849
 21
9.464806
 31
0.0
  0
LINE
  5
381
  8
0
 10
12.592849
 20
9.464806
 30
0.0
 11
12.592849
 21
10.301903
 31
0.0
  0
LINE
  5
382
  8
0
 10
12.592849
 20
10.301903
 30
0.0
 11
12.592849
 21
10.964806
 31
0.0
  0
LINE
  5
383
  8
0
 10
12.592849
 20
10.964806
 30
0.0
 11
12.592849
 21
11.132226
 31
0.0
  0
LINE
  5
384
  8
0
 10
12.592849
 20
11.132226
 30
0.0
 11
12.592849
 21
11.264806
 31
0.0
  0
LINE
  5
385
  8
0
 10
12.592849
 20
11.264806
 30
0.0
 11
12.592849
 21
12.101903
 31
0.0
  0
LINE
  5
386
  8
0
 10
12.592849
 20
12.101903
 30
0.0
 11
12.592849
 21
12.764806
 31
0.0
  0
LINE
  5
387
  8
0
 10
12.592849
 20
12.764806
 30
0.0
 11
12.592849
 21
12.932226
 31
0.0
  0
LINE
  5
388
  8
0
 10
12.592849
 20
12.932226
 30
0.0
 11
12.592849
 21
13.064806
 31
0.0
  0
LINE
  5
389
  8
0
 10
12.592849
 20
13.064806
 30
0.0
 11
12.592849
 21
13.901903
 31
0.0
  0
LINE
  5
38A
  8
0
 10
12.592849
 20
13.901903
 30
0.0
 11
12.592849
 21
14.467581
 31
0.0
  0
LINE
  5
38B
  8
0
 10
12.592849
 20
14.467581
 30
0.0
 11
12.592849
 21
14.635
 31
0.0
  0
LINE
  5
38C
  8
0
 10
13.092849
 20
0.455
 30
0.0
 11
13.092849
 21
0.587581
 31
0.0
  0
LINE
  5
38D
  8
0
 10
13.092849
 20
0.455
 30
0.0
 11
13.092849
 21
0.587581
 31
0.0
  0
LINE
  5
38E
  8
0
 10
13.092849
 20
0.587581
 30
0.0
 11
13.092849
 21
1.302461
 31
0.0
  0
LINE
  5
38F
  8
0
 10
13.092849
 20
1.302461
 30
0.0
 11
13.092849
 21
1.965365
 31
0.0
  0
LINE
  5
390
  8
0
 10
13.092849
 20
1.965365
 30
0.0
 11
13.092849
 21
2.132226
 31
0.0
  0
LINE
  5
391
  8
0
 10
13.092849
 20
2.132226
 30
0.0
 11
13.092849
 21
2.264806
 31
0.0
  0
LINE
  5
392
  8
0
 10
13.092849
 20
2.264806
 30
0.0
 11
13.092849
 21
3.102461
 31
0.0
  0
LINE
  5
393
  8
0
 10
13.092849
 20
3.102461
 30
0.0
 11
13.092849
 21
3.765365
 31
0.0
  0
LINE
  5
394
  8
0
 10
13.092849
 20
3.765365
 30
0.0
 11
13.092849
 21
3.932226
 31
0.0
  0
LINE
  5
395
  8
0
 10
13.092849
 20
3.932226
 30
0.0
 11
13.092849
 21
4.064806
 31
0.0
  0
LINE
  5
396
  8
0
 10
13.092849
 20
4.064806
 30
0.0
 11
13.092849
 21
4.902461
 31
0.0
  0
LINE
  5
397
  8
0
 10
13.092849
 20
4.902461
 30
0.0
 11
13.092849
 21
5.565365
 31
0.0
  0
LINE
  5
398
  8
0
 10
13.092849
 20
5.565365
 30
0.0
 11
13.092849
 21
5.732226
 31
0.0
  0
LINE
  5
399
  8
0
 10
13.092849
 20
5.732226
 30
0.0
 11
13.092849
 21
5.864806
 31
0.0
  0
LINE
  5
39A
  8
0
 10
13.092849
 20
5.864806
 30
0.0
 11
13.092849
 21
6.702461
 31
0.0
  0
LINE
  5
39B
  8
0
 10
13.092849
 20
6.702461
 30
0.0
 11
13.092849
 21
7.365365
 31
0.0
  0
LINE
  5
39C
  8
0
 10
13.092849
 20
7.365365
 30
0.0
 11
13.092849
 21
7.532226
 31
0.0
  0
LINE
  5
39D
  8
0
 10
13.092849
 20
7.532226
 30
0.0
 11
13.092849
 21
7.664806
 31
0.0
  0
LINE
  5
39E
  8
0
 10
13.092849
 20
7.664806
 30
0.0
 11
13.092849
 21
8.502461
 31
0.0
  0
LINE
  5
39F
  8
0
 10
13.092849
 20
8.502461
 30
0.0
 11
13.092849
 21
9.165365
 31
0.0
  0
LINE
  5
3A0
  8
0
 10
13.092849
 20
9.165365
 30
0.0
 11
13.092849
 21
9.332226
 31
0.0
  0
LINE
  5
3A1
  8
0
 10
13.092849
 20
9.332226
 30
0.0
 11
13.092849
 21
9.464806
 31
0.0
  0
LINE
  5
3A2
  8
0
 10
13.092849
 20
9.464806
 30
0.0
 11
13.092849
 21
10.302461
 31
0.0
  0
LINE
  5
3A3
  8
0
 10
13.092849
 20
10.302461
 30
0.0
 11
13.092849
 21
10.965365
 31
0.0
  0
LINE
  5
3A4
  8
0
 10
13.092849
 20
10.965365
 30
0.0
 11
13.092849
 21
11.132226
 31
0.0
  0
LINE
  5
3A5
  8
0
 10
13.092849
 20
11.132226
 30
0.0
 11
13.092849
 21
11.264806
 31
0.0
  0
LINE
  5
3A6
  8
0
 10
13.092849
 20
11.264806
 30
0.0
 11
13.092849
 21
12.102461
 31
0.0
  0
LINE
  5
3A7
  8
0
 10
13.092849
 20
12.102461
 30
0.0
 11
13.092849
 21
12.765365
 31
0.0
  0
LINE
  5
3A8
  8
0
 10
13.092849
 20
12.765365
 30
0.0
 11
13.092849
 21
12.932226
 31
0.0
  0
LINE
  5
3A9
  8
0
 10
13.092849
 20
12.932226
 30
0.0
 11
13.092849
 21
13.064806
 31
0.0
  0
LINE
  5
3AA
  8
0
 10
13.092849
 20
13.064806
 30
0.0
 11
13.092849
 21
13.902461
 31
0.0
  0
LINE
  5
3AB
  8
0
 10
13.092849
 20
13.902461
 30
0.0
 11
13.092849
 21
14.468581
 31
0.0
  0
LINE
  5
3AC
  8
0
 10
13.092849
 20
14.468581
 30
0.0
 11
13.092849
 21
14.635442
 31
0.0
  0
LINE
  5
3AD
  8
0
 10
13.092849
 20
14.635442
 30
0.0
 11
13.092849
 21
14.636
 31
0.0
  0
LINE
  5
3AE
  8
0
 10
13.592849
 20
0.523
 30
0.0
 11
13.592849
 21
0.655581
 31
0.0
  0
LINE
  5
3AF
  8
0
 10
13.592849
 20
0.523
 30
0.0
 11
13.592849
 21
0.655581
 31
0.0
  0
LINE
  5
3B0
  8
0
 10
13.592849
 20
0.655581
 30
0.0
 11
13.592849
 21
1.332513
 31
0.0
  0
LINE
  5
3B1
  8
0
 10
13.592849
 20
1.332513
 30
0.0
 11
13.592849
 21
1.995416
 31
0.0
  0
LINE
  5
3B2
  8
0
 10
13.592849
 20
1.995416
 30
0.0
 11
13.592849
 21
2.162835
 31
0.0
  0
LINE
  5
3B3
  8
0
 10
13.592849
 20
2.162835
 30
0.0
 11
13.592849
 21
2.295416
 31
0.0
  0
LINE
  5
3B4
  8
0
 10
13.592849
 20
2.295416
 30
0.0
 11
13.592849
 21
3.132513
 31
0.0
  0
LINE
  5
3B5
  8
0
 10
13.592849
 20
3.132513
 30
0.0
 11
13.592849
 21
3.795416
 31
0.0
  0
LINE
  5
3B6
  8
0
 10
13.592849
 20
3.795416
 30
0.0
 11
13.592849
 21
3.962835
 31
0.0
  0
LINE
  5
3B7
  8
0
 10
13.592849
 20
3.962835
 30
0.0
 11
13.592849
 21
4.095416
 31
0.0
  0
LINE
  5
3B8
  8
0
 10
13.592849
 20
4.095416
 30
0.0
 11
13.592849
 21
4.932513
 31
0.0
  0
LINE
  5
3B9
  8
0
 10
13.592849
 20
4.932513
 30
0.0
 11
13.592849
 21
5.595416
 31
0.0
  0
LINE
  5
3BA
  8
0
 10
13.592849
 20
5.595416
 30
0.0
 11
13.592849
 21
5.762835
 31
0.0
  0
LINE
  5
3BB
  8
0
 10
13.592849
 20
5.762835
 30
0.0
 11
13.592849
 21
5.895416
 31
0.0
  0
LINE
  5
3BC
  8
0
 10
13.592849
 20
5.895416
 30
0.0
 11
13.592849
 21
6.732513
 31
0.0
  0
LINE
  5
3BD
  8
0
 10
13.592849
 20
6.732513
 30
0.0
 11
13.592849
 21
7.395416
 31
0.0
  0
LINE
  5
3BE
  8
0
 10
13.592849
 20
7.395416
 30
0.0
 11
13.592849
 21
7.562835
 31
0.0
  0
LINE
  5
3BF
  8
0
 10
13.592849
 20
7.562835
 30
0.0
 11
13.592849
 21
7.695416
 31
0.0
  0
LINE
  5
3C0
  8
0
 10
13.592849
 20
7.695416
 30
0.0
 11
13.592849
 21
8.532513
 31
0.0
  0
LINE
  5
3C1
  8
0
 10
13.592849
 20
8.532513
 30
0.0
 11
13.592849
 21
9.195416
 31
0.0
  0
LINE
  5
3C2
  8
0
 10
13.592849
 20
9.195416
 30
0.0
 11
13.592849
 21
9.362835
 31
0.0
  0
LINE
  5
3C3
  8
0
 10
13.592849
 20
9.362835
 30
0.0
 11
13.592849
 21
9.495416
 31
0.0
  0
LINE
  5
3C4
  8
0
 10
13.592849
 20
9.495416
 30
0.0
 11
13.592849
 21
10.332513
 31
0.0
  0
LINE
  5
3C5
  8
0
 10
13.592849
 20
10.332513
 30
0.0
 11
13.592849
 21
10.995416
 31
0.0
  0
LINE
  5
3C6
  8
0
 10
13.592849
 20
10.995416
 30
0.0
 11
13.592849
 21
11.162835
 31
0.0
  0
LINE
  5
3C7
  8
0
 10
13.592849
 20
11.162835
 30
0.0
 11
13.592849
 21
11.295416
 31
0.0
  0
LINE
  5
3C8
  8
0
 10
13.592849
 20
11.295416
 30
0.0
 11
13.592849
 21
12.132513
 31
0.0
  0
LINE
  5
3C9
  8
0
 10
13.592849
 20
12.132513
 30
0.0
 11
13.592849
 21
12.795416
 31
0.0
  0
LINE
  5
3CA
  8
0
 10
13.592849
 20
12.795416
 30
0.0
 11
13.592849
 21
12.962835
 31
0.0
  0
LINE
  5
3CB
  8
0
 10
13.592849
 20
12.962835
 30
0.0
 11
13.592849
 21
13.095416
 31
0.0
  0
LINE
  5
3CC
  8
0
 10
13.592849
 20
13.095416
 30
0.0
 11
13.592849
 21
13.932513
 31
0.0
  0
LINE
  5
3CD
  8
0
 10
13.592849
 20
13.932513
 30
0.0
 11
13.592849
 21
14.468581
 31
0.0
  0
LINE
  5
3CE
  8
0
 10
13.592849
 20
14.468581
 30
0.0
 11
13.592849
 21
14.636
 31
0.0
  0
LINE
  5
3CF
  8
0
 10
14.092849
 20
0.654
 30
0.0
 11
14.092849
 21
0.786581
 31
0.0
  0
LINE
  5
3D0
  8
0
 10
14.092849
 20
0.654
 30
0.0
 11
14.092849
 21
0.786581
 31
0.0
  0
LINE
  5
3D1
  8
0
 10
14.092849
 20
0.786581
 30
0.0
 11
14.092849
 21
1.390965
 31
0.0
  0
LINE
  5
3D2
  8
0
 10
14.092849
 20
1.390965
 30
0.0
 11
14.092849
 21
2.053868
 31
0.0
  0
LINE
  5
3D3
  8
0
 10
14.092849
 20
2.053868
 30
0.0
 11
14.092849
 21
2.221287
 31
0.0
  0
LINE
  5
3D4
  8
0
 10
14.092849
 20
2.221287
 30
0.0
 11
14.092849
 21
2.353868
 31
0.0
  0
LINE
  5
3D5
  8
0
 10
14.092849
 20
2.353868
 30
0.0
 11
14.092849
 21
3.190965
 31
0.0
  0
LINE
  5
3D6
  8
0
 10
14.092849
 20
3.190965
 30
0.0
 11
14.092849
 21
3.853868
 31
0.0
  0
LINE
  5
3D7
  8
0
 10
14.092849
 20
3.853868
 30
0.0
 11
14.092849
 21
4.021287
 31
0.0
  0
LINE
  5
3D8
  8
0
 10
14.092849
 20
4.021287
 30
0.0
 11
14.092849
 21
4.153868
 31
0.0
  0
LINE
  5
3D9
  8
0
 10
14.092849
 20
4.153868
 30
0.0
 11
14.092849
 21
4.990965
 31
0.0
  0
LINE
  5
3DA
  8
0
 10
14.092849
 20
4.990965
 30
0.0
 11
14.092849
 21
5.653868
 31
0.0
  0
LINE
  5
3DB
  8
0
 10
14.092849
 20
5.653868
 30
0.0
 11
14.092849
 21
5.821287
 31
0.0
  0
LINE
  5
3DC
  8
0
 10
14.092849
 20
5.821287
 30
0.0
 11
14.092849
 21
5.953868
 31
0.0
  0
LINE
  5
3DD
  8
0
 10
14.092849
 20
5.953868
 30
0.0
 11
14.092849
 21
6.790965
 31
0.0
  0
LINE
  5
3DE
  8
0
 10
14.092849
 20
6.790965
 30
0.0
 11
14.092849
 21
7.453868
 31
0.0
  0
LINE
  5
3DF
  8
0
 10
14.092849
 20
7.453868
 30
0.0
 11
14.092849
 21
7.621287
 31
0.0
  0
LINE
  5
3E0
  8
0
 10
14.092849
 20
7.621287
 30
0.0
 11
14.092849
 21
7.753868
 31
0.0
  0
LINE
  5
3E1
  8
0
 10
14.092849
 20
7.753868
 30
0.0
 11
14.092849
 21
8.590965
 31
0.0
  0
LINE
  5
3E2
  8
0
 10
14.092849
 20
8.590965
 30
0.0
 11
14.092849
 21
9.253868
 31
0.0
  0
LINE
  5
3E3
  8
0
 10
14.092849
 20
9.253868
 30
0.0
 11
14.092849
 21
9.421287
 31
0.0
  0
LINE
  5
3E4
  8
0
 10
14.092849
 20
9.421287
 30
0.0
 11
14.092849
 21
9.553868
 31
0.0
  0
LINE
  5
3E5
  8
0
 10
14.092849
 20
9.553868
 30
0.0
 11
14.092849
 21
10.390965
 31
0.0
  0
LINE
  5
3E6
  8
0
 10
14.092849
 20
10.390965
 30
0.0
 11
14.092849
 21
11.053868
 31
0.0
  0
LINE
  5
3E7
  8
0
 10
14.092849
 20
11.053868
 30
0.0
 11
14.092849
 21
11.221287
 31
0.0
  0
LINE
  5
3E8
  8
0
 10
14.092849
 20
11.221287
 30
0.0
 11
14.092849
 21
11.353868
 31
0.0
  0
LINE
  5
3E9
  8
0
 10
14.092849
 20
11.353868
 30
0.0
 11
14.092849
 21
12.190965
 31
0.0
  0
LINE
  5
3EA
  8
0
 10
14.092849
 20
12.190965
 30
0.0
 11
14.092849
 21
12.853868
 31
0.0
  0
LINE
  5
3EB
  8
0
 10
14.092849
 20
12.853868
 30
0.0
 11
14.092849
 21
13.021287
 31
0.0
  0
LINE
  5
3EC
  8
0
 10
14.092849
 20
13.021287
 30
0.0
 11
14.092849
 21
13.153868
 31
0.0
  0
LINE
  5
3ED
  8
0
 10
14.092849
 20
13.153868
 30
0.0
 11
14.092849
 21
13.990965
 31
0.0
  0
LINE
  5
3EE
  8
0
 10
14.092849
 20
13.990965
 30
0.0
 11
14.092849
 21
14.469581
 31
0.0
  0
LINE
  5
3EF
  8
0
 10
14.092849
 20
14.469581
 30
0.0
 11
14.092849
 21
14.637
 31
0.0
  0
LINE
  5
3F0
  8
0
 10
14.592849
 20
1.226
 30
0.0
 11
14.592849
 21
1.358581
 31
0.0
  0
LINE
  5
3F1
  8
0
 10
14.592849
 20
1.226
 30
0.0
 11
14.592849
 21
1.358581
 31
0.0
  0
LINE
  5
3F2
  8
0
 10
14.592849
 20
1.358581
 30
0.0
 11
14.592849
 21
1.64431
 31
0.0
  0
LINE
  5
3F3
  8
0
 10
14.592849
 20
1.64431
 30
0.0
 11
14.592849
 21
1.811729
 31
0.0
  0
LINE
  5
3F4
  8
0
 10
14.592849
 20
1.811729
 30
0.0
 11
14.592849
 21
2.475074
 31
0.0
  0
LINE
  5
3F5
  8
0
 10
14.592849
 20
2.475074
 30
0.0
 11
14.592849
 21
3.312171
 31
0.0
  0
LINE
  5
3F6
  8
0
 10
14.592849
 20
3.312171
 30
0.0
 11
14.592849
 21
3.44431
 31
0.0
  0
LINE
  5
3F7
  8
0
 10
14.592849
 20
3.44431
 30
0.0
 11
14.592849
 21
3.611729
 31
0.0
  0
LINE
  5
3F8
  8
0
 10
14.592849
 20
3.611729
 30
0.0
 11
14.592849
 21
4.275074
 31
0.0
  0
LINE
  5
3F9
  8
0
 10
14.592849
 20
4.275074
 30
0.0
 11
14.592849
 21
5.112171
 31
0.0
  0
LINE
  5
3FA
  8
0
 10
14.592849
 20
5.112171
 30
0.0
 11
14.592849
 21
5.24431
 31
0.0
  0
LINE
  5
3FB
  8
0
 10
14.592849
 20
5.24431
 30
0.0
 11
14.592849
 21
5.411729
 31
0.0
  0
LINE
  5
3FC
  8
0
 10
14.592849
 20
5.411729
 30
0.0
 11
14.592849
 21
6.075074
 31
0.0
  0
LINE
  5
3FD
  8
0
 10
14.592849
 20
6.075074
 30
0.0
 11
14.592849
 21
6.912171
 31
0.0
  0
LINE
  5
3FE
  8
0
 10
14.592849
 20
6.912171
 30
0.0
 11
14.592849
 21
7.04431
 31
0.0
  0
LINE
  5
3FF
  8
0
 10
14.592849
 20
7.04431
 30
0.0
 11
14.592849
 21
7.211729
 31
0.0
  0
LINE
  5
400
  8
0
 10
14.592849
 20
7.211729
 30
0.0
 11
14.592849
 21
7.875074
 31
0.0
  0
LINE
  5
401
  8
0
 10
14.592849
 20
7.875074
 30
0.0
 11
14.592849
 21
8.712171
 31
0.0
  0
LINE
  5
402
  8
0
 10
14.592849
 20
8.712171
 30
0.0
 11
14.592849
 21
8.84431
 31
0.0
  0
LINE
  5
403
  8
0
 10
14.592849
 20
8.84431
 30
0.0
 11
14.592849
 21
9.011729
 31
0.0
  0
LINE
  5
404
  8
0
 10
14.592849
 20
9.011729
 30
0.0
 11
14.592849
 21
9.675074
 31
0.0
  0
LINE
  5
405
  8
0
 10
14.592849
 20
9.675074
 30
0.0
 11
14.592849
 21
10.512171
 31
0.0
  0
LINE
  5
406
  8
0
 10
14.592849
 20
10.512171
 30
0.0
 11
14.592849
 21
10.64431
 31
0.0
  0
LINE
  5
407
  8
0
 10
14.592849
 20
10.64431
 30
0.0
 11
14.592849
 21
10.811729
 31
0.0
  0
LINE
  5
408
  8
0
 10
14.592849
 20
10.811729
 30
0.0
 11
14.592849
 21
11.475074
 31
0.0
  0
LINE
  5
409
  8
0
 10
14.592849
 20
11.475074
 30
0.0
 11
14.592849
 21
12.312171
 31
0.0
  0
LINE
  5
40A
  8
0
 10
14.592849
 20
12.312171
 30
0.0
 11
14.592849
 21
12.44431
 31
0.0
  0
LINE
  5
40B
  8
0
 10
14.592849
 20
12.44431
 30
0.0
 11
14.592849
 21
12.611729
 31
0.0
  0
LINE
  5
40C
  8
0
 10
14.592849
 20
12.611729
 30
0.0
 11
14.592849
 21
13.275074
 31
0.0
  0
LINE
  5
40D
  8
0
 10
14.592849
 20
13.275074
 30
0.0
 11
14.592849
 21
14.112171
 31
0.0
  0
LINE
  5
40E
  8
0
 10
14.592849
 20
14.112171
 30
0.0
 11
14.592849
 21
14.24431
 31
0.0
  0
LINE
  5
40F
  8
0
 10
14.592849
 20
14.24431
 30
0.0
 11
14.592849
 21
14.470581
 31
0.0
  0
LINE
  5
410
  8
0
 10
14.592849
 20
14.470581
 30
0.0
 11
14.592849
 21
14.638
 31
0.0
  0
LINE
  5
411
  8
0
 10
1.234
 20
0.592238
 30
0.0
 11
1.276854
 21
0.592238
 31
0.0
  0
LINE
  5
412
  8
0
 10
1.234
 20
0.592238
 30
0.0
 11
1.276854
 21
0.592238
 31
0.0
  0
LINE
  5
413
  8
0
 10
1.276854
 20
0.592238
 30
0.0
 11
1.444316
 21
0.592238
 31
0.0
  0
LINE
  5
414
  8
0
 10
1.444316
 20
0.592238
 30
0.0
 11
2.10719
 21
0.592238
 31
0.0
  0
LINE
  5
415
  8
0
 10
2.10719
 20
0.592238
 30
0.0
 11
2.944287
 21
0.592238
 31
0.0
  0
LINE
  5
416
  8
0
 10
2.944287
 20
0.592238
 30
0.0
 11
3.076868
 21
0.592238
 31
0.0
  0
LINE
  5
417
  8
0
 10
3.076868
 20
0.592238
 30
0.0
 11
3.244287
 21
0.592238
 31
0.0
  0
LINE
  5
418
  8
0
 10
3.244287
 20
0.592238
 30
0.0
 11
3.90719
 21
0.592238
 31
0.0
  0
LINE
  5
419
  8
0
 10
3.90719
 20
0.592238
 30
0.0
 11
4.744287
 21
0.592238
 31
0.0
  0
LINE
  5
41A
  8
0
 10
4.744287
 20
0.592238
 30
0.0
 11
4.876868
 21
0.592238
 31
0.0
  0
LINE
  5
41B
  8
0
 10
4.876868
 20
0.592238
 30
0.0
 11
5.044287
 21
0.592238
 31
0.0
  0
LINE
  5
41C
  8
0
 10
5.044287
 20
0.592238
 30
0.0
 11
5.70719
 21
0.592238
 31
0.0
  0
LINE
  5
41D
  8
0
 10
5.70719
 20
0.592238
 30
0.0
 11
6.544287
 21
0.592238
 31
0.0
  0
LINE
  5
41E
  8
0
 10
6.544287
 20
0.592238
 30
0.0
 11
6.676868
 21
0.592238
 31
0.0
  0
LINE
  5
41F
  8
0
 10
6.676868
 20
0.592238
 30
0.0
 11
6.844287
 21
0.592238
 31
0.0
  0
LINE
  5
420
  8
0
 10
6.844287
 20
0.592238
 30
0.0
 11
7.005568
 21
0.592238
 31
0.0
  0
LINE
  5
421
  8
0
 10
7.005568
 20
0.592238
 30
0.0
 11
7.172429
 21
0.592238
 31
0.0
  0
LINE
  5
422
  8
0
 10
7.172429
 20
0.592238
 30
0.0
 11
7.835332
 21
0.592238
 31
0.0
  0
LINE
  5
423
  8
0
 10
7.835332
 20
0.592238
 30
0.0
 11
8.672987
 21
0.592238
 31
0.0
  0
LINE
  5
424
  8
0
 10
8.672987
 20
0.592238
 30
0.0
 11
8.805568
 21
0.592238
 31
0.0
  0
LINE
  5
425
  8
0
 10
8.805568
 20
0.592238
 30
0.0
 11
8.972429
 21
0.592238
 31
0.0
  0
LINE
  5
426
  8
0
 10
8.972429
 20
0.592238
 30
0.0
 11
9.635332
 21
0.592238
 31
0.0
  0
LINE
  5
427
  8
0
 10
9.635332
 20
0.592238
 30
0.0
 11
10.472987
 21
0.592238
 31
0.0
  0
LINE
  5
428
  8
0
 10
10.472987
 20
0.592238
 30
0.0
 11
10.605568
 21
0.592238
 31
0.0
  0
LINE
  5
429
  8
0
 10
10.605568
 20
0.592238
 30
0.0
 11
10.772429
 21
0.592238
 31
0.0
  0
LINE
  5
42A
  8
0
 10
10.772429
 20
0.592238
 30
0.0
 11
11.435332
 21
0.592238
 31
0.0
  0
LINE
  5
42B
  8
0
 10
11.435332
 20
0.592238
 30
0.0
 11
12.272987
 21
0.592238
 31
0.0
  0
LINE
  5
42C
  8
0
 10
12.272987
 20
0.592238
 30
0.0
 11
12.405568
 21
0.592238
 31
0.0
  0
LINE
  5
42D
  8
0
 10
12.405568
 20
0.592238
 30
0.0
 11
12.572429
 21
0.592238
 31
0.0
  0
LINE
  5
42E
  8
0
 10
12.572429
 20
0.592238
 30
0.0
 11
13.235332
 21
0.592238
 31
0.0
  0
LINE
  5
42F
  8
0
 10
13.235332
 20
0.592238
 30
0.0
 11
13.798419
 21
0.592238
 31
0.0
  0
LINE
  5
430
  8
0
 10
13.798419
 20
0.592238
 30
0.0
 11
13.931
 21
0.592238
 31
0.0
  0
LINE
  5
431
  8
0
 10
0.651
 20
1.092238
 30
0.0
 11
0.818419
 21
1.092238
 31
0.0
  0
LINE
  5
432
  8
0
 10
0.651
 20
1.092238
 30
0.0
 11
0.818419
 21
1.092238
 31
0.0
  0
LINE
  5
433
  8
0
 10
0.818419
 20
1.092238
 30
0.0
 11
1.254168
 21
1.092238
 31
0.0
  0
LINE
  5
434
  8
0
 10
1.254168
 20
1.092238
 30
0.0
 11
2.091823
 21
1.092238
 31
0.0
  0
LINE
  5
435
  8
0
 10
2.091823
 20
1.092238
 30
0.0
 11
2.224403
 21
1.092238
 31
0.0
  0
LINE
  5
436
  8
0
 10
2.224403
 20
1.092238
 30
0.0
 11
2.391265
 21
1.092238
 31
0.0
  0
LINE
  5
437
  8
0
 10
2.391265
 20
1.092238
 30
0.0
 11
3.054168
 21
1.092238
 31
0.0
  0
LINE
  5
438
  8
0
 10
3.054168
 20
1.092238
 30
0.0
 11
3.891823
 21
1.092238
 31
0.0
  0
LINE
  5
439
  8
0
 10
3.891823
 20
1.092238
 30
0.0
 11
4.024403
 21
1.092238
 31
0.0
  0
LINE
  5
43A
  8
0
 10
4.024403
 20
1.092238
 30
0.0
 11
4.191265
 21
1.092238
 31
0.0
  0
LINE
  5
43B
  8
0
 10
4.191265
 20
1.092238
 30
0.0
 11
4.854168
 21
1.092238
 31
0.0
  0
LINE
  5
43C
  8
0
 10
4.854168
 20
1.092238
 30
0.0
 11
5.691823
 21
1.092238
 31
0.0
  0
LINE
  5
43D
  8
0
 10
5.691823
 20
1.092238
 30
0.0
 11
5.824403
 21
1.092238
 31
0.0
  0
LINE
  5
43E
  8
0
 10
5.824403
 20
1.092238
 30
0.0
 11
5.991265
 21
1.092238
 31
0.0
  0
LINE
  5
43F
  8
0
 10
5.991265
 20
1.092238
 30
0.0
 11
6.654168
 21
1.092238
 31
0.0
  0
LINE
  5
440
  8
0
 10
6.654168
 20
1.092238
 30
0.0
 11
7.491823
 21
1.092238
 31
0.0
  0
LINE
  5
441
  8
0
 10
7.491823
 20
1.092238
 30
0.0
 11
7.624403
 21
1.092238
 31
0.0
  0
LINE
  5
442
  8
0
 10
7.624403
 20
1.092238
 30
0.0
 11
7.791265
 21
1.092238
 31
0.0
  0
LINE
  5
443
  8
0
 10
7.791265
 20
1.092238
 30
0.0
 11
8.454168
 21
1.092238
 31
0.0
  0
LINE
  5
444
  8
0
 10
8.454168
 20
1.092238
 30
0.0
 11
9.291823
 21
1.092238
 31
0.0
  0
LINE
  5
445
  8
0
 10
9.291823
 20
1.092238
 30
0.0
 11
9.424403
 21
1.092238
 31
0.0
  0
LINE
  5
446
  8
0
 10
9.424403
 20
1.092238
 30
0.0
 11
9.591265
 21
1.092238
 31
0.0
  0
LINE
  5
447
  8
0
 10
9.591265
 20
1.092238
 30
0.0
 11
10.254168
 21
1.092238
 31
0.0
  0
LINE
  5
448
  8
0
 10
10.254168
 20
1.092238
 30
0.0
 11
11.091823
 21
1.092238
 31
0.0
  0
LINE
  5
449
  8
0
 10
11.091823
 20
1.092238
 30
0.0
 11
11.224403
 21
1.092238
 31
0.0
  0
LINE
  5
44A
  8
0
 10
11.224403
 20
1.092238
 30
0.0
 11
11.391265
 21
1.092238
 31
0.0
  0
LINE
  5
44B
  8
0
 10
11.391265
 20
1.092238
 30
0.0
 11
12.054168
 21
1.092238
 31
0.0
  0
LINE
  5
44C
  8
0
 10
12.054168
 20
1.092238
 30
0.0
 11
12.891823
 21
1.092238
 31
0.0
  0
LINE
  5
44D
  8
0
 10
12.891823
 20
1.092238
 30
0.0
 11
13.024403
 21
1.092238
 31
0.0
  0
LINE
  5
44E
  8
0
 10
13.024403
 20
1.092238
 30
0.0
 11
13.191265
 21
1.092238
 31
0.0
  0
LINE
  5
44F
  8
0
 10
13.191265
 20
1.092238
 30
0.0
 11
13.854168
 21
1.092238
 31
0.0
  0
LINE
  5
450
  8
0
 10
13.854168
 20
1.092238
 30
0.0
 11
14.404419
 21
1.092238
 31
0.0
  0
LINE
  5
451
  8
0
 10
14.404419
 20
1.092238
 30
0.0
 11
14.537
 21
1.092238
 31
0.0
  0
LINE
  5
452
  8
0
 10
0.519
 20
1.592238
 30
0.0
 11
0.686419
 21
1.592238
 31
0.0
  0
LINE
  5
453
  8
0
 10
0.519
 20
1.592238
 30
0.0
 11
0.686419
 21
1.592238
 31
0.0
  0
LINE
  5
454
  8
0
 10
0.686419
 20
1.592238
 30
0.0
 11
1.236629
 21
1.592238
 31
0.0
  0
LINE
  5
455
  8
0
 10
1.236629
 20
1.592238
 30
0.0
 11
2.073726
 21
1.592238
 31
0.0
  0
LINE
  5
456
  8
0
 10
2.073726
 20
1.592238
 30
0.0
 11
2.206306
 21
1.592238
 31
0.0
  0
LINE
  5
457
  8
0
 10
2.206306
 20
1.592238
 30
0.0
 11
2.373726
 21
1.592238
 31
0.0
  0
LINE
  5
458
  8
0
 10
2.373726
 20
1.592238
 30
0.0
 11
3.036629
 21
1.592238
 31
0.0
  0
LINE
  5
459
  8
0
 10
3.036629
 20
1.592238
 30
0.0
 11
3.873726
 21
1.592238
 31
0.0
  0
LINE
  5
45A
  8
0
 10
3.873726
 20
1.592238
 30
0.0
 11
4.006306
 21
1.592238
 31
0.0
  0
LINE
  5
45B
  8
0
 10
4.006306
 20
1.592238
 30
0.0
 11
4.173726
 21
1.592238
 31
0.0
  0
LINE
  5
45C
  8
0
 10
4.173726
 20
1.592238
 30
0.0
 11
4.836629
 21
1.592238
 31
0.0
  0
LINE
  5
45D
  8
0
 10
4.836629
 20
1.592238
 30
0.0
 11
5.673726
 21
1.592238
 31
0.0
  0
LINE
  5
45E
  8
0
 10
5.673726
 20
1.592238
 30
0.0
 11
5.806306
 21
1.592238
 31
0.0
  0
LINE
  5
45F
  8
0
 10
5.806306
 20
1.592238
 30
0.0
 11
5.973726
 21
1.592238
 31
0.0
  0
LINE
  5
460
  8
0
 10
5.973726
 20
1.592238
 30
0.0
 11
6.636629
 21
1.592238
 31
0.0
  0
LINE
  5
461
  8
0
 10
6.636629
 20
1.592238
 30
0.0
 11
7.473726
 21
1.592238
 31
0.0
  0
LINE
  5
462
  8
0
 10
7.473726
 20
1.592238
 30
0.0
 11
7.606306
 21
1.592238
 31
0.0
  0
LINE
  5
463
  8
0
 10
7.606306
 20
1.592238
 30
0.0
 11
7.773726
 21
1.592238
 31
0.0
  0
LINE
  5
464
  8
0
 10
7.773726
 20
1.592238
 30
0.0
 11
8.436629
 21
1.592238
 31
0.0
  0
LINE
  5
465
  8
0
 10
8.436629
 20
1.592238
 30
0.0
 11
9.273726
 21
1.592238
 31
0.0
  0
LINE
  5
466
  8
0
 10
9.273726
 20
1.592238
 30
0.0
 11
9.406306
 21
1.592238
 31
0.0
  0
LINE
  5
467
  8
0
 10
9.406306
 20
1.592238
 30
0.0
 11
9.573726
 21
1.592238
 31
0.0
  0
LINE
  5
468
  8
0
 10
9.573726
 20
1.592238
 30
0.0
 11
10.236629
 21
1.592238
 31
0.0
  0
LINE
  5
469
  8
0
 10
10.236629
 20
1.592238
 30
0.0
 11
11.073726
 21
1.592238
 31
0.0
  0
LINE
  5
46A
  8
0
 10
11.073726
 20
1.592238
 30
0.0
 11
11.206306
 21
1.592238
 31
0.0
  0
LINE
  5
46B
  8
0
 10
11.206306
 20
1.592238
 30
0.0
 11
11.373726
 21
1.592238
 31
0.0
  0
LINE
  5
46C
  8
0
 10
11.373726
 20
1.592238
 30
0.0
 11
12.036629
 21
1.592238
 31
0.0
  0
LINE
  5
46D
  8
0
 10
12.036629
 20
1.592238
 30
0.0
 11
12.873726
 21
1.592238
 31
0.0
  0
LINE
  5
46E
  8
0
 10
12.873726
 20
1.592238
 30
0.0
 11
13.006306
 21
1.592238
 31
0.0
  0
LINE
  5
46F
  8
0
 10
13.006306
 20
1.592238
 30
0.0
 11
13.173726
 21
1.592238
 31
0.0
  0
LINE
  5
470
  8
0
 10
13.173726
 20
1.592238
 30
0.0
 11
13.836629
 21
1.592238
 31
0.0
  0
LINE
  5
471
  8
0
 10
13.836629
 20
1.592238
 30
0.0
 11
14.531419
 21
1.592238
 31
0.0
  0
LINE
  5
472
  8
0
 10
14.531419
 20
1.592238
 30
0.0
 11
14.664
 21
1.592238
 31
0.0
  0
LINE
  5
473
  8
0
 10
0.456
 20
2.092238
 30
0.0
 11
0.623419
 21
2.092238
 31
0.0
  0
LINE
  5
474
  8
0
 10
0.456
 20
2.092238
 30
0.0
 11
0.623419
 21
2.092238
 31
0.0
  0
LINE
  5
475
  8
0
 10
0.623419
 20
2.092238
 30
0.0
 11
1.229755
 21
2.092238
 31
0.0
  0
LINE
  5
476
  8
0
 10
1.229755
 20
2.092238
 30
0.0
 11
2.066852
 21
2.092238
 31
0.0
  0
LINE
  5
477
  8
0
 10
2.066852
 20
2.092238
 30
0.0
 11
2.199432
 21
2.092238
 31
0.0
  0
LINE
  5
478
  8
0
 10
2.199432
 20
2.092238
 30
0.0
 11
2.366852
 21
2.092238
 31
0.0
  0
LINE
  5
479
  8
0
 10
2.366852
 20
2.092238
 30
0.0
 11
3.029755
 21
2.092238
 31
0.0
  0
LINE
  5
47A
  8
0
 10
3.029755
 20
2.092238
 30
0.0
 11
3.866852
 21
2.092238
 31
0.0
  0
LINE
  5
47B
  8
0
 10
3.866852
 20
2.092238
 30
0.0
 11
3.999432
 21
2.092238
 31
0.0
  0
LINE
  5
47C
  8
0
 10
3.999432
 20
2.092238
 30
0.0
 11
4.166852
 21
2.092238
 31
0.0
  0
LINE
  5
47D
  8
0
 10
4.166852
 20
2.092238
 30
0.0
 11
4.829755
 21
2.092238
 31
0.0
  0
LINE
  5
47E
  8
0
 10
4.829755
 20
2.092238
 30
0.0
 11
5.666852
 21
2.092238
 31
0.0
  0
LINE
  5
47F
  8
0
 10
5.666852
 20
2.092238
 30
0.0
 11
5.799432
 21
2.092238
 31
0.0
  0
LINE
  5
480
  8
0
 10
5.799432
 20
2.092238
 30
0.0
 11
5.966852
 21
2.092238
 31
0.0
  0
LINE
  5
481
  8
0
 10
5.966852
 20
2.092238
 30
0.0
 11
6.629755
 21
2.092238
 31
0.0
  0
LINE
  5
482
  8
0
 10
6.629755
 20
2.092238
 30
0.0
 11
7.466852
 21
2.092238
 31
0.0
  0
LINE
  5
483
  8
0
 10
7.466852
 20
2.092238
 30
0.0
 11
7.599432
 21
2.092238
 31
0.0
  0
LINE
  5
484
  8
0
 10
7.599432
 20
2.092238
 30
0.0
 11
7.766852
 21
2.092238
 31
0.0
  0
LINE
  5
485
  8
0
 10
7.766852
 20
2.092238
 30
0.0
 11
8.429755
 21
2.092238
 31
0.0
  0
LINE
  5
486
  8
0
 10
8.429755
 20
2.092238
 30
0.0
 11
9.266852
 21
2.092238
 31
0.0
  0
LINE
  5
487
  8
0
 10
9.266852
 20
2.092238
 30
0.0
 11
9.399432
 21
2.092238
 31
0.0
  0
LINE
  5
488
  8
0
 10
9.399432
 20
2.092238
 30
0.0
 11
9.566852
 21
2.092238
 31
0.0
  0
LINE
  5
489
  8
0
 10
9.566852
 20
2.092238
 30
0.0
 11
10.229755
 21
2.092238
 31
0.0
  0
LINE
  5
48A
  8
0
 10
10.229755
 20
2.092238
 30
0.0
 11
11.066852
 21
2.092238
 31
0.0
  0
LINE
  5
48B
  8
0
 10
11.066852
 20
2.092238
 30
0.0
 11
11.199432
 21
2.092238
 31
0.0
  0
LINE
  5
48C
  8
0
 10
11.199432
 20
2.092238
 30
0.0
 11
11.366852
 21
2.092238
 31
0.0
  0
LINE
  5
48D
  8
0
 10
11.366852
 20
2.092238
 30
0.0
 11
12.029755
 21
2.092238
 31
0.0
  0
LINE
  5
48E
  8
0
 10
12.029755
 20
2.092238
 30
0.0
 11
12.866852
 21
2.092238
 31
0.0
  0
LINE
  5
48F
  8
0
 10
12.866852
 20
2.092238
 30
0.0
 11
12.999432
 21
2.092238
 31
0.0
  0
LINE
  5
490
  8
0
 10
12.999432
 20
2.092238
 30
0.0
 11
13.166852
 21
2.092238
 31
0.0
  0
LINE
  5
491
  8
0
 10
13.166852
 20
2.092238
 30
0.0
 11
13.829755
 21
2.092238
 31
0.0
  0
LINE
  5
492
  8
0
 10
13.829755
 20
2.092238
 30
0.0
 11
14.595419
 21
2.092238
 31
0.0
  0
LINE
  5
493
  8
0
 10
14.595419
 20
2.092238
 30
0.0
 11
14.728
 21
2.092238
 31
0.0
  0
LINE
  5
494
  8
0
 10
0.45
 20
2.592238
 30
0.0
 11
0.617419
 21
2.592238
 31
0.0
  0
LINE
  5
495
  8
0
 10
0.45
 20
2.592238
 30
0.0
 11
0.617419
 21
2.592238
 31
0.0
  0
LINE
  5
496
  8
0
 10
0.617419
 20
2.592238
 30
0.0
 11
1.231268
 21
2.592238
 31
0.0
  0
LINE
  5
497
  8
0
 10
1.231268
 20
2.592238
 30
0.0
 11
2.068923
 21
2.592238
 31
0.0
  0
LINE
  5
498
  8
0
 10
2.068923
 20
2.592238
 30
0.0
 11
2.201503
 21
2.592238
 31
0.0
  0
LINE
  5
499
  8
0
 10
2.201503
 20
2.592238
 30
0.0
 11
2.368365
 21
2.592238
 31
0.0
  0
LINE
  5
49A
  8
0
 10
2.368365
 20
2.592238
 30
0.0
 11
3.031268
 21
2.592238
 31
0.0
  0
LINE
  5
49B
  8
0
 10
3.031268
 20
2.592238
 30
0.0
 11
3.868923
 21
2.592238
 31
0.0
  0
LINE
  5
49C
  8
0
 10
3.868923
 20
2.592238
 30
0.0
 11
4.001503
 21
2.592238
 31
0.0
  0
LINE
  5
49D
  8
0
 10
4.001503
 20
2.592238
 30
0.0
 11
4.168365
 21
2.592238
 31
0.0
  0
LINE
  5
49E
  8
0
 10
4.168365
 20
2.592238
 30
0.0
 11
4.831268
 21
2.592238
 31
0.0
  0
LINE
  5
49F
  8
0
 10
4.831268
 20
2.592238
 30
0.0
 11
5.668923
 21
2.592238
 31
0.0
  0
LINE
  5
4A0
  8
0
 10
5.668923
 20
2.592238
 30
0.0
 11
5.801503
 21
2.592238
 31
0.0
  0
LINE
  5
4A1
  8
0
 10
5.801503
 20
2.592238
 30
0.0
 11
5.968365
 21
2.592238
 31
0.0
  0
LINE
  5
4A2
  8
0
 10
5.968365
 20
2.592238
 30
0.0
 11
6.631268
 21
2.592238
 31
0.0
  0
LINE
  5
4A3
  8
0
 10
6.631268
 20
2.592238
 30
0.0
 11
7.468923
 21
2.592238
 31
0.0
  0
LINE
  5
4A4
  8
0
 10
7.468923
 20
2.592238
 30
0.0
 11
7.601503
 21
2.592238
 31
0.0
  0
LINE
  5
4A5
  8
0
 10
7.601503
 20
2.592238
 30
0.0
 11
7.768365
 21
2.592238
 31
0.0
  0
LINE
  5
4A6
  8
0
 10
7.768365
 20
2.592238
 30
0.0
 11
8.431268
 21
2.592238
 31
0.0
  0
LINE
  5
4A7
  8
0
 10
8.431268
 20
2.592238
 30
0.0
 11
9.268923
 21
2.592238
 31
0.0
  0
LINE
  5
4A8
  8
0
 10
9.268923
 20
2.592238
 30
0.0
 11
9.401503
 21
2.592238
 31
0.0
  0
LINE
  5
4A9
  8
0
 10
9.401503
 20
2.592238
 30
0.0
 11
9.568365
 21
2.592238
 31
0.0
  0
LINE
  5
4AA
  8
0
 10
9.568365
 20
2.592238
 30
0.0
 11
10.231268
 21
2.592238
 31
0.0
  0
LINE
  5
4AB
  8
0
 10
10.231268
 20
2.592238
 30
0.0
 11
11.068923
 21
2.592238
 31
0.0
  0
LINE
  5
4AC
  8
0
 10
11.068923
 20
2.592238
 30
0.0
 11
11.201503
 21
2.592238
 31
0.0
  0
LINE
  5
4AD
  8
0
 10
11.201503
 20
2.592238
 30
0.0
 11
11.368365
 21
2.592238
 31
0.0
  0
LINE
  5
4AE
  8
0
 10
11.368365
 20
2.592238
 30
0.0
 11
12.031268
 21
2.592238
 31
0.0
  0
LINE
  5
4AF
  8
0
 10
12.031268
 20
2.592238
 30
0.0
 11
12.868923
 21
2.592238
 31
0.0
  0
LINE
  5
4B0
  8
0
 10
12.868923
 20
2.592238
 30
0.0
 11
13.001503
 21
2.592238
 31
0.0
  0
LINE
  5
4B1
  8
0
 10
13.001503
 20
2.592238
 30
0.0
 11
13.168365
 21
2.592238
 31
0.0
  0
LINE
  5
4B2
  8
0
 10
13.168365
 20
2.592238
 30
0.0
 11
13.831268
 21
2.592238
 31
0.0
  0
LINE
  5
4B3
  8
0
 10
13.831268
 20
2.592238
 30
0.0
 11
14.606419
 21
2.592238
 31
0.0
  0
LINE
  5
4B4
  8
0
 10
14.606419
 20
2.592238
 30
0.0
 11
14.739
 21
2.592238
 31
0.0
  0
LINE
  5
4B5
  8
0
 10
0.463
 20
3.092238
 30
0.0
 11
0.630419
 21
3.092238
 31
0.0
  0
LINE
  5
4B6
  8
0
 10
0.463
 20
3.092238
 30
0.0
 11
0.630419
 21
3.092238
 31
0.0
  0
LINE
  5
4B7
  8
0
 10
0.630419
 20
3.092238
 30
0.0
 11
1.23101
 21
3.092238
 31
0.0
  0
LINE
  5
4B8
  8
0
 10
1.23101
 20
3.092238
 30
0.0
 11
2.068106
 21
3.092238
 31
0.0
  0
LINE
  5
4B9
  8
0
 10
2.068106
 20
3.092238
 30
0.0
 11
2.200687
 21
3.092238
 31
0.0
  0
LINE
  5
4BA
  8
0
 10
2.200687
 20
3.092238
 30
0.0
 11
2.368106
 21
3.092238
 31
0.0
  0
LINE
  5
4BB
  8
0
 10
2.368106
 20
3.092238
 30
0.0
 11
3.03101
 21
3.092238
 31
0.0
  0
LINE
  5
4BC
  8
0
 10
3.03101
 20
3.092238
 30
0.0
 11
3.868106
 21
3.092238
 31
0.0
  0
LINE
  5
4BD
  8
0
 10
3.868106
 20
3.092238
 30
0.0
 11
4.000687
 21
3.092238
 31
0.0
  0
LINE
  5
4BE
  8
0
 10
4.000687
 20
3.092238
 30
0.0
 11
4.168106
 21
3.092238
 31
0.0
  0
LINE
  5
4BF
  8
0
 10
4.168106
 20
3.092238
 30
0.0
 11
4.83101
 21
3.092238
 31
0.0
  0
LINE
  5
4C0
  8
0
 10
4.83101
 20
3.092238
 30
0.0
 11
5.668106
 21
3.092238
 31
0.0
  0
LINE
  5
4C1
  8
0
 10
5.668106
 20
3.092238
 30
0.0
 11
5.800687
 21
3.092238
 31
0.0
  0
LINE
  5
4C2
  8
0
 10
5.800687
 20
3.092238
 30
0.0
 11
5.968106
 21
3.092238
 31
0.0
  0
LINE
  5
4C3
  8
0
 10
5.968106
 20
3.092238
 30
0.0
 11
6.63101
 21
3.092238
 31
0.0
  0
LINE
  5
4C4
  8
0
 10
6.63101
 20
3.092238
 30
0.0
 11
7.468106
 21
3.092238
 31
0.0
  0
LINE
  5
4C5
  8
0
 10
7.468106
 20
3.092238
 30
0.0
 11
7.600687
 21
3.092238
 31
0.0
  0
LINE
  5
4C6
  8
0
 10
7.600687
 20
3.092238
 30
0.0
 11
7.768106
 21
3.092238
 31
0.0
  0
LINE
  5
4C7
  8
0
 10
7.768106
 20
3.092238
 30
0.0
 11
8.43101
 21
3.092238
 31
0.0
  0
LINE
  5
4C8
  8
0
 10
8.43101
 20
3.092238
 30
0.0
 11
9.268106
 21
3.092238
 31
0.0
  0
LINE
  5
4C9
  8
0
 10
9.268106
 20
3.092238
 30
0.0
 11
9.400687
 21
3.092238
 31
0.0
  0
LINE
  5
4CA
  8
0
 10
9.400687
 20
3.092238
 30
0.0
 11
9.568106
 21
3.092238
 31
0.0
  0
LINE
  5
4CB
  8
0
 10
9.568106
 20
3.092238
 30
0.0
 11
10.23101
 21
3.092238
 31
0.0
  0
LINE
  5
4CC
  8
0
 10
10.23101
 20
3.092238
 30
0.0
 11
11.068106
 21
3.092238
 31
0.0
  0
LINE
  5
4CD
  8
0
 10
11.068106
 20
3.092238
 30
0.0
 11
11.200687
 21
3.092238
 31
0.0
  0
LINE
  5
4CE
  8
0
 10
11.200687
 20
3.092238
 30
0.0
 11
11.368106
 21
3.092238
 31
0.0
  0
LINE
  5
4CF
  8
0
 10
11.368106
 20
3.092238
 30
0.0
 11
12.03101
 21
3.092238
 31
0.0
  0
LINE
  5
4D0
  8
0
 10
12.03101
 20
3.092238
 30
0.0
 11
12.868106
 21
3.092238
 31
0.0
  0
LINE
  5
4D1
  8
0
 10
12.868106
 20
3.092238
 30
0.0
 11
13.000687
 21
3.092238
 31
0.0
  0
LINE
  5
4D2
  8
0
 10
13.000687
 20
3.092238
 30
0.0
 11
13.168106
 21
3.092238
 31
0.0
  0
LINE
  5
4D3
  8
0
 10
13.168106
 20
3.092238
 30
0.0
 11
13.83101
 21
3.092238
 31
0.0
  0
LINE
  5
4D4
  8
0
 10
13.83101
 20
3.092238
 30
0.0
 11
14.589419
 21
3.092238
 31
0.0
  0
LINE
  5
4D5
  8
0
 10
14.589419
 20
3.092238
 30
0.0
 11
14.722
 21
3.092238
 31
0.0
  0
LINE
  5
4D6
  8
0
 10
0.476
 20
3.592238
 30
0.0
 11
0.643419
 21
3.592238
 31
0.0
  0
LINE
  5
4D7
  8
0
 10
0.476
 20
3.592238
 30
0.0
 11
0.643419
 21
3.592238
 31
0.0
  0
LINE
  5
4D8
  8
0
 10
0.643419
 20
3.592238
 30
0.0
 11
1.23031
 21
3.592238
 31
0.0
  0
LINE
  5
4D9
  8
0
 10
1.23031
 20
3.592238
 30
0.0
 11
2.067406
 21
3.592238
 31
0.0
  0
LINE
  5
4DA
  8
0
 10
2.067406
 20
3.592238
 30
0.0
 11
2.199987
 21
3.592238
 31
0.0
  0
LINE
  5
4DB
  8
0
 10
2.199987
 20
3.592238
 30
0.0
 11
2.367406
 21
3.592238
 31
0.0
  0
LINE
  5
4DC
  8
0
 10
2.367406
 20
3.592238
 30
0.0
 11
3.03031
 21
3.592238
 31
0.0
  0
LINE
  5
4DD
  8
0
 10
3.03031
 20
3.592238
 30
0.0
 11
3.867406
 21
3.592238
 31
0.0
  0
LINE
  5
4DE
  8
0
 10
3.867406
 20
3.592238
 30
0.0
 11
3.999987
 21
3.592238
 31
0.0
  0
LINE
  5
4DF
  8
0
 10
3.999987
 20
3.592238
 30
0.0
 11
4.167406
 21
3.592238
 31
0.0
  0
LINE
  5
4E0
  8
0
 10
4.167406
 20
3.592238
 30
0.0
 11
4.83031
 21
3.592238
 31
0.0
  0
LINE
  5
4E1
  8
0
 10
4.83031
 20
3.592238
 30
0.0
 11
5.667406
 21
3.592238
 31
0.0
  0
LINE
  5
4E2
  8
0
 10
5.667406
 20
3.592238
 30
0.0
 11
5.799987
 21
3.592238
 31
0.0
  0
LINE
  5
4E3
  8
0
 10
5.799987
 20
3.592238
 30
0.0
 11
5.967406
 21
3.592238
 31
0.0
  0
LINE
  5
4E4
  8
0
 10
5.967406
 20
3.592238
 30
0.0
 11
6.63031
 21
3.592238
 31
0.0
  0
LINE
  5
4E5
  8
0
 10
6.63031
 20
3.592238
 30
0.0
 11
7.467406
 21
3.592238
 31
0.0
  0
LINE
  5
4E6
  8
0
 10
7.467406
 20
3.592238
 30
0.0
 11
7.599987
 21
3.592238
 31
0.0
  0
LINE
  5
4E7
  8
0
 10
7.599987
 20
3.592238
 30
0.0
 11
7.767406
 21
3.592238
 31
0.0
  0
LINE
  5
4E8
  8
0
 10
7.767406
 20
3.592238
 30
0.0
 11
8.43031
 21
3.592238
 31
0.0
  0
LINE
  5
4E9
  8
0
 10
8.43031
 20
3.592238
 30
0.0
 11
9.267406
 21
3.592238
 31
0.0
  0
LINE
  5
4EA
  8
0
 10
9.267406
 20
3.592238
 30
0.0
 11
9.399987
 21
3.592238
 31
0.0
  0
LINE
  5
4EB
  8
0
 10
9.399987
 20
3.592238
 30
0.0
 11
9.567406
 21
3.592238
 31
0.0
  0
LINE
  5
4EC
  8
0
 10
9.567406
 20
3.592238
 30
0.0
 11
10.23031
 21
3.592238
 31
0.0
  0
LINE
  5
4ED
  8
0
 10
10.23031
 20
3.592238
 30
0.0
 11
11.067406
 21
3.592238
 31
0.0
  0
LINE
  5
4EE
  8
0
 10
11.067406
 20
3.592238
 30
0.0
 11
11.199987
 21
3.592238
 31
0.0
  0
LINE
  5
4EF
  8
0
 10
11.199987
 20
3.592238
 30
0.0
 11
11.367406
 21
3.592238
 31
0.0
  0
LINE
  5
4F0
  8
0
 10
11.367406
 20
3.592238
 30
0.0
 11
12.03031
 21
3.592238
 31
0.0
  0
LINE
  5
4F1
  8
0
 10
12.03031
 20
3.592238
 30
0.0
 11
12.867406
 21
3.592238
 31
0.0
  0
LINE
  5
4F2
  8
0
 10
12.867406
 20
3.592238
 30
0.0
 11
12.999987
 21
3.592238
 31
0.0
  0
LINE
  5
4F3
  8
0
 10
12.999987
 20
3.592238
 30
0.0
 11
13.167406
 21
3.592238
 31
0.0
  0
LINE
  5
4F4
  8
0
 10
13.167406
 20
3.592238
 30
0.0
 11
13.83031
 21
3.592238
 31
0.0
  0
LINE
  5
4F5
  8
0
 10
13.83031
 20
3.592238
 30
0.0
 11
14.571419
 21
3.592238
 31
0.0
  0
LINE
  5
4F6
  8
0
 10
14.571419
 20
3.592238
 30
0.0
 11
14.704
 21
3.592238
 31
0.0
  0
LINE
  5
4F7
  8
0
 10
0.488
 20
4.092238
 30
0.0
 11
0.655419
 21
4.092238
 31
0.0
  0
LINE
  5
4F8
  8
0
 10
0.488
 20
4.092238
 30
0.0
 11
0.655419
 21
4.092238
 31
0.0
  0
LINE
  5
4F9
  8
0
 10
0.655419
 20
4.092238
 30
0.0
 11
1.229494
 21
4.092238
 31
0.0
  0
LINE
  5
4FA
  8
0
 10
1.229494
 20
4.092238
 30
0.0
 11
2.06659
 21
4.092238
 31
0.0
  0
LINE
  5
4FB
  8
0
 10
2.06659
 20
4.092238
 30
0.0
 11
2.198729
 21
4.092238
 31
0.0
  0
LINE
  5
4FC
  8
0
 10
2.198729
 20
4.092238
 30
0.0
 11
2.366148
 21
4.092238
 31
0.0
  0
LINE
  5
4FD
  8
0
 10
2.366148
 20
4.092238
 30
0.0
 11
3.029494
 21
4.092238
 31
0.0
  0
LINE
  5
4FE
  8
0
 10
3.029494
 20
4.092238
 30
0.0
 11
3.86659
 21
4.092238
 31
0.0
  0
LINE
  5
4FF
  8
0
 10
3.86659
 20
4.092238
 30
0.0
 11
3.998729
 21
4.092238
 31
0.0
  0
LINE
  5
500
  8
0
 10
3.998729
 20
4.092238
 30
0.0
 11
4.166148
 21
4.092238
 31
0.0
  0
LINE
  5
501
  8
0
 10
4.166148
 20
4.092238
 30
0.0
 11
4.829494
 21
4.092238
 31
0.0
  0
LINE
  5
502
  8
0
 10
4.829494
 20
4.092238
 30
0.0
 11
5.66659
 21
4.092238
 31
0.0
  0
LINE
  5
503
  8
0
 10
5.66659
 20
4.092238
 30
0.0
 11
5.798729
 21
4.092238
 31
0.0
  0
LINE
  5
504
  8
0
 10
5.798729
 20
4.092238
 30
0.0
 11
5.966148
 21
4.092238
 31
0.0
  0
LINE
  5
505
  8
0
 10
5.966148
 20
4.092238
 30
0.0
 11
6.629494
 21
4.092238
 31
0.0
  0
LINE
  5
506
  8
0
 10
6.629494
 20
4.092238
 30
0.0
 11
7.46659
 21
4.092238
 31
0.0
  0
LINE
  5
507
  8
0
 10
7.46659
 20
4.092238
 30
0.0
 11
7.598729
 21
4.092238
 31
0.0
  0
LINE
  5
508
  8
0
 10
7.598729
 20
4.092238
 30
0.0
 11
7.766148
 21
4.092238
 31
0.0
  0
LINE
  5
509
  8
0
 10
7.766148
 20
4.092238
 30
0.0
 11
8.429494
 21
4.092238
 31
0.0
  0
LINE
  5
50A
  8
0
 10
8.429494
 20
4.092238
 30
0.0
 11
9.26659
 21
4.092238
 31
0.0
  0
LINE
  5
50B
  8
0
 10
9.26659
 20
4.092238
 30
0.0
 11
9.398729
 21
4.092238
 31
0.0
  0
LINE
  5
50C
  8
0
 10
9.398729
 20
4.092238
 30
0.0
 11
9.566148
 21
4.092238
 31
0.0
  0
LINE
  5
50D
  8
0
 10
9.566148
 20
4.092238
 30
0.0
 11
10.229494
 21
4.092238
 31
0.0
  0
LINE
  5
50E
  8
0
 10
10.229494
 20
4.092238
 30
0.0
 11
11.06659
 21
4.092238
 31
0.0
  0
LINE
  5
50F
  8
0
 10
11.06659
 20
4.092238
 30
0.0
 11
11.198729
 21
4.092238
 31
0.0
  0
LINE
  5
510
  8
0
 10
11.198729
 20
4.092238
 30
0.0
 11
11.366148
 21
4.092238
 31
0.0
  0
LINE
  5
511
  8
0
 10
11.366148
 20
4.092238
 30
0.0
 11
12.029494
 21
4.092238
 31
0.0
  0
LINE
  5
512
  8
0
 10
12.029494
 20
4.092238
 30
0.0
 11
12.86659
 21
4.092238
 31
0.0
  0
LINE
  5
513
  8
0
 10
12.86659
 20
4.092238
 30
0.0
 11
12.998729
 21
4.092238
 31
0.0
  0
LINE
  5
514
  8
0
 10
12.998729
 20
4.092238
 30
0.0
 11
13.166148
 21
4.092238
 31
0.0
  0
LINE
  5
515
  8
0
 10
13.166148
 20
4.092238
 30
0.0
 11
13.829494
 21
4.092238
 31
0.0
  0
LINE
  5
516
  8
0
 10
13.829494
 20
4.092238
 30
0.0
 11
14.554419
 21
4.092238
 31
0.0
  0
LINE
  5
517
  8
0
 10
14.554419
 20
4.092238
 30
0.0
 11
14.687
 21
4.092238
 31
0.0
  0
LINE
  5
518
  8
0
 10
0.501
 20
4.592238
 30
0.0
 11
0.668419
 21
4.592238
 31
0.0
  0
LINE
  5
519
  8
0
 10
0.501
 20
4.592238
 30
0.0
 11
0.668419
 21
4.592238
 31
0.0
  0
LINE
  5
51A
  8
0
 10
0.668419
 20
4.592238
 30
0.0
 11
1.228794
 21
4.592238
 31
0.0
  0
LINE
  5
51B
  8
0
 10
1.228794
 20
4.592238
 30
0.0
 11
2.06589
 21
4.592238
 31
0.0
  0
LINE
  5
51C
  8
0
 10
2.06589
 20
4.592238
 30
0.0
 11
2.198471
 21
4.592238
 31
0.0
  0
LINE
  5
51D
  8
0
 10
2.198471
 20
4.592238
 30
0.0
 11
2.36589
 21
4.592238
 31
0.0
  0
LINE
  5
51E
  8
0
 10
2.36589
 20
4.592238
 30
0.0
 11
3.028794
 21
4.592238
 31
0.0
  0
LINE
  5
51F
  8
0
 10
3.028794
 20
4.592238
 30
0.0
 11
3.86589
 21
4.592238
 31
0.0
  0
LINE
  5
520
  8
0
 10
3.86589
 20
4.592238
 30
0.0
 11
3.998471
 21
4.592238
 31
0.0
  0
LINE
  5
521
  8
0
 10
3.998471
 20
4.592238
 30
0.0
 11
4.16589
 21
4.592238
 31
0.0
  0
LINE
  5
522
  8
0
 10
4.16589
 20
4.592238
 30
0.0
 11
4.828794
 21
4.592238
 31
0.0
  0
LINE
  5
523
  8
0
 10
4.828794
 20
4.592238
 30
0.0
 11
5.66589
 21
4.592238
 31
0.0
  0
LINE
  5
524
  8
0
 10
5.66589
 20
4.592238
 30
0.0
 11
5.798471
 21
4.592238
 31
0.0
  0
LINE
  5
525
  8
0
 10
5.798471
 20
4.592238
 30
0.0
 11
5.96589
 21
4.592238
 31
0.0
  0
LINE
  5
526
  8
0
 10
5.96589
 20
4.592238
 30
0.0
 11
6.628794
 21
4.592238
 31
0.0
  0
LINE
  5
527
  8
0
 10
6.628794
 20
4.592238
 30
0.0
 11
7.46589
 21
4.592238
 31
0.0
  0
LINE
  5
528
  8
0
 10
7.46589
 20
4.592238
 30
0.0
 11
7.598471
 21
4.592238
 31
0.0
  0
LINE
  5
529
  8
0
 10
7.598471
 20
4.592238
 30
0.0
 11
7.76589
 21
4.592238
 31
0.0
  0
LINE
  5
52A
  8
0
 10
7.76589
 20
4.592238
 30
0.0
 11
8.428794
 21
4.592238
 31
0.0
  0
LINE
  5
52B
  8
0
 10
8.428794
 20
4.592238
 30
0.0
 11
9.26589
 21
4.592238
 31
0.0
  0
LINE
  5
52C
  8
0
 10
9.26589
 20
4.592238
 30
0.0
 11
9.398471
 21
4.592238
 31
0.0
  0
LINE
  5
52D
  8
0
 10
9.398471
 20
4.592238
 30
0.0
 11
9.56589
 21
4.592238
 31
0.0
  0
LINE
  5
52E
  8
0
 10
9.56589
 20
4.592238
 30
0.0
 11
10.228794
 21
4.592238
 31
0.0
  0
LINE
  5
52F
  8
0
 10
10.228794
 20
4.592238
 30
0.0
 11
11.06589
 21
4.592238
 31
0.0
  0
LINE
  5
530
  8
0
 10
11.06589
 20
4.592238
 30
0.0
 11
11.198471
 21
4.592238
 31
0.0
  0
LINE
  5
531
  8
0
 10
11.198471
 20
4.592238
 30
0.0
 11
11.36589
 21
4.592238
 31
0.0
  0
LINE
  5
532
  8
0
 10
11.36589
 20
4.592238
 30
0.0
 11
12.028794
 21
4.592238
 31
0.0
  0
LINE
  5
533
  8
0
 10
12.028794
 20
4.592238
 30
0.0
 11
12.86589
 21
4.592238
 31
0.0
  0
LINE
  5
534
  8
0
 10
12.86589
 20
4.592238
 30
0.0
 11
12.998471
 21
4.592238
 31
0.0
  0
LINE
  5
535
  8
0
 10
12.998471
 20
4.592238
 30
0.0
 11
13.16589
 21
4.592238
 31
0.0
  0
LINE
  5
536
  8
0
 10
13.16589
 20
4.592238
 30
0.0
 11
13.828794
 21
4.592238
 31
0.0
  0
LINE
  5
537
  8
0
 10
13.828794
 20
4.592238
 30
0.0
 11
14.536419
 21
4.592238
 31
0.0
  0
LINE
  5
538
  8
0
 10
14.536419
 20
4.592238
 30
0.0
 11
14.669
 21
4.592238
 31
0.0
  0
LINE
  5
539
  8
0
 10
0.513
 20
5.092238
 30
0.0
 11
0.680419
 21
5.092238
 31
0.0
  0
LINE
  5
53A
  8
0
 10
0.513
 20
5.092238
 30
0.0
 11
0.680419
 21
5.092238
 31
0.0
  0
LINE
  5
53B
  8
0
 10
0.680419
 20
5.092238
 30
0.0
 11
1.227535
 21
5.092238
 31
0.0
  0
LINE
  5
53C
  8
0
 10
1.227535
 20
5.092238
 30
0.0
 11
2.06519
 21
5.092238
 31
0.0
  0
LINE
  5
53D
  8
0
 10
2.06519
 20
5.092238
 30
0.0
 11
2.197771
 21
5.092238
 31
0.0
  0
LINE
  5
53E
  8
0
 10
2.197771
 20
5.092238
 30
0.0
 11
2.364632
 21
5.092238
 31
0.0
  0
LINE
  5
53F
  8
0
 10
2.364632
 20
5.092238
 30
0.0
 11
3.027535
 21
5.092238
 31
0.0
  0
LINE
  5
540
  8
0
 10
3.027535
 20
5.092238
 30
0.0
 11
3.86519
 21
5.092238
 31
0.0
  0
LINE
  5
541
  8
0
 10
3.86519
 20
5.092238
 30
0.0
 11
3.997771
 21
5.092238
 31
0.0
  0
LINE
  5
542
  8
0
 10
3.997771
 20
5.092238
 30
0.0
 11
4.164632
 21
5.092238
 31
0.0
  0
LINE
  5
543
  8
0
 10
4.164632
 20
5.092238
 30
0.0
 11
4.827535
 21
5.092238
 31
0.0
  0
LINE
  5
544
  8
0
 10
4.827535
 20
5.092238
 30
0.0
 11
5.66519
 21
5.092238
 31
0.0
  0
LINE
  5
545
  8
0
 10
5.66519
 20
5.092238
 30
0.0
 11
5.797771
 21
5.092238
 31
0.0
  0
LINE
  5
546
  8
0
 10
5.797771
 20
5.092238
 30
0.0
 11
5.964632
 21
5.092238
 31
0.0
  0
LINE
  5
547
  8
0
 10
5.964632
 20
5.092238
 30
0.0
 11
6.627535
 21
5.092238
 31
0.0
  0
LINE
  5
548
  8
0
 10
6.627535
 20
5.092238
 30
0.0
 11
7.46519
 21
5.092238
 31
0.0
  0
LINE
  5
549
  8
0
 10
7.46519
 20
5.092238
 30
0.0
 11
7.597771
 21
5.092238
 31
0.0
  0
LINE
  5
54A
  8
0
 10
7.597771
 20
5.092238
 30
0.0
 11
7.764632
 21
5.092238
 31
0.0
  0
LINE
  5
54B
  8
0
 10
7.764632
 20
5.092238
 30
0.0
 11
8.427535
 21
5.092238
 31
0.0
  0
LINE
  5
54C
  8
0
 10
8.427535
 20
5.092238
 30
0.0
 11
9.26519
 21
5.092238
 31
0.0
  0
LINE
  5
54D
  8
0
 10
9.26519
 20
5.092238
 30
0.0
 11
9.397771
 21
5.092238
 31
0.0
  0
LINE
  5
54E
  8
0
 10
9.397771
 20
5.092238
 30
0.0
 11
9.564632
 21
5.092238
 31
0.0
  0
LINE
  5
54F
  8
0
 10
9.564632
 20
5.092238
 30
0.0
 11
10.227535
 21
5.092238
 31
0.0
  0
LINE
  5
550
  8
0
 10
10.227535
 20
5.092238
 30
0.0
 11
11.06519
 21
5.092238
 31
0.0
  0
LINE
  5
551
  8
0
 10
11.06519
 20
5.092238
 30
0.0
 11
11.197771
 21
5.092238
 31
0.0
  0
LINE
  5
552
  8
0
 10
11.197771
 20
5.092238
 30
0.0
 11
11.364632
 21
5.092238
 31
0.0
  0
LINE
  5
553
  8
0
 10
11.364632
 20
5.092238
 30
0.0
 11
12.027535
 21
5.092238
 31
0.0
  0
LINE
  5
554
  8
0
 10
12.027535
 20
5.092238
 30
0.0
 11
12.86519
 21
5.092238
 31
0.0
  0
LINE
  5
555
  8
0
 10
12.86519
 20
5.092238
 30
0.0
 11
12.997771
 21
5.092238
 31
0.0
  0
LINE
  5
556
  8
0
 10
12.997771
 20
5.092238
 30
0.0
 11
13.164632
 21
5.092238
 31
0.0
  0
LINE
  5
557
  8
0
 10
13.164632
 20
5.092238
 30
0.0
 11
13.827535
 21
5.092238
 31
0.0
  0
LINE
  5
558
  8
0
 10
13.827535
 20
5.092238
 30
0.0
 11
14.518419
 21
5.092238
 31
0.0
  0
LINE
  5
559
  8
0
 10
14.518419
 20
5.092238
 30
0.0
 11
14.651
 21
5.092238
 31
0.0
  0
LINE
  5
55A
  8
0
 10
0.526
 20
5.592238
 30
0.0
 11
0.693419
 21
5.592238
 31
0.0
  0
LINE
  5
55B
  8
0
 10
0.526
 20
5.592238
 30
0.0
 11
0.693419
 21
5.592238
 31
0.0
  0
LINE
  5
55C
  8
0
 10
0.693419
 20
5.592238
 30
0.0
 11
1.227277
 21
5.592238
 31
0.0
  0
LINE
  5
55D
  8
0
 10
1.227277
 20
5.592238
 30
0.0
 11
2.064374
 21
5.592238
 31
0.0
  0
LINE
  5
55E
  8
0
 10
2.064374
 20
5.592238
 30
0.0
 11
2.196955
 21
5.592238
 31
0.0
  0
LINE
  5
55F
  8
0
 10
2.196955
 20
5.592238
 30
0.0
 11
2.364374
 21
5.592238
 31
0.0
  0
LINE
  5
560
  8
0
 10
2.364374
 20
5.592238
 30
0.0
 11
3.027277
 21
5.592238
 31
0.0
  0
LINE
  5
561
  8
0
 10
3.027277
 20
5.592238
 30
0.0
 11
3.864374
 21
5.592238
 31
0.0
  0
LINE
  5
562
  8
0
 10
3.864374
 20
5.592238
 30
0.0
 11
3.996955
 21
5.592238
 31
0.0
  0
LINE
  5
563
  8
0
 10
3.996955
 20
5.592238
 30
0.0
 11
4.164374
 21
5.592238
 31
0.0
  0
LINE
  5
564
  8
0
 10
4.164374
 20
5.592238
 30
0.0
 11
4.827277
 21
5.592238
 31
0.0
  0
LINE
  5
565
  8
0
 10
4.827277
 20
5.592238
 30
0.0
 11
5.664374
 21
5.592238
 31
0.0
  0
LINE
  5
566
  8
0
 10
5.664374
 20
5.592238
 30
0.0
 11
5.796955
 21
5.592238
 31
0.0
  0
LINE
  5
567
  8
0
 10
5.796955
 20
5.592238
 30
0.0
 11
5.964374
 21
5.592238
 31
0.0
  0
LINE
  5
568
  8
0
 10
5.964374
 20
5.592238
 30
0.0
 11
6.627277
 21
5.592238
 31
0.0
  0
LINE
  5
569
  8
0
 10
6.627277
 20
5.592238
 30
0.0
 11
7.464374
 21
5.592238
 31
0.0
  0
LINE
  5
56A
  8
0
 10
7.464374
 20
5.592238
 30
0.0
 11
7.596955
 21
5.592238
 31
0.0
  0
LINE
  5
56B
  8
0
 10
7.596955
 20
5.592238
 30
0.0
 11
7.764374
 21
5.592238
 31
0.0
  0
LINE
  5
56C
  8
0
 10
7.764374
 20
5.592238
 30
0.0
 11
8.427277
 21
5.592238
 31
0.0
  0
LINE
  5
56D
  8
0
 10
8.427277
 20
5.592238
 30
0.0
 11
9.264374
 21
5.592238
 31
0.0
  0
LINE
  5
56E
  8
0
 10
9.264374
 20
5.592238
 30
0.0
 11
9.396955
 21
5.592238
 31
0.0
  0
LINE
  5
56F
  8
0
 10
9.396955
 20
5.592238
 30
0.0
 11
9.564374
 21
5.592238
 31
0.0
  0
LINE
  5
570
  8
0
 10
9.564374
 20
5.592238
 30
0.0
 11
10.227277
 21
5.592238
 31
0.0
  0
LINE
  5
571
  8
0
 10
10.227277
 20
5.592238
 30
0.0
 11
11.064374
 21
5.592238
 31
0.0
  0
LINE
  5
572
  8
0
 10
11.064374
 20
5.592238
 30
0.0
 11
11.196955
 21
5.592238
 31
0.0
  0
LINE
  5
573
  8
0
 10
11.196955
 20
5.592238
 30
0.0
 11
11.364374
 21
5.592238
 31
0.0
  0
LINE
  5
574
  8
0
 10
11.364374
 20
5.592238
 30
0.0
 11
12.027277
 21
5.592238
 31
0.0
  0
LINE
  5
575
  8
0
 10
12.027277
 20
5.592238
 30
0.0
 11
12.864374
 21
5.592238
 31
0.0
  0
LINE
  5
576
  8
0
 10
12.864374
 20
5.592238
 30
0.0
 11
12.996955
 21
5.592238
 31
0.0
  0
LINE
  5
577
  8
0
 10
12.996955
 20
5.592238
 30
0.0
 11
13.164374
 21
5.592238
 31
0.0
  0
LINE
  5
578
  8
0
 10
13.164374
 20
5.592238
 30
0.0
 11
13.827277
 21
5.592238
 31
0.0
  0
LINE
  5
579
  8
0
 10
13.827277
 20
5.592238
 30
0.0
 11
14.501419
 21
5.592238
 31
0.0
  0
LINE
  5
57A
  8
0
 10
14.501419
 20
5.592238
 30
0.0
 11
14.634
 21
5.592238
 31
0.0
  0
LINE
  5
57B
  8
0
 10
0.539
 20
6.092238
 30
0.0
 11
0.706419
 21
6.092238
 31
0.0
  0
LINE
  5
57C
  8
0
 10
0.539
 20
6.092238
 30
0.0
 11
0.706419
 21
6.092238
 31
0.0
  0
LINE
  5
57D
  8
0
 10
0.706419
 20
6.092238
 30
0.0
 11
1.230997
 21
6.092238
 31
0.0
  0
LINE
  5
57E
  8
0
 10
1.230997
 20
6.092238
 30
0.0
 11
2.068094
 21
6.092238
 31
0.0
  0
LINE
  5
57F
  8
0
 10
2.068094
 20
6.092238
 30
0.0
 11
2.200674
 21
6.092238
 31
0.0
  0
LINE
  5
580
  8
0
 10
2.200674
 20
6.092238
 30
0.0
 11
2.368094
 21
6.092238
 31
0.0
  0
LINE
  5
581
  8
0
 10
2.368094
 20
6.092238
 30
0.0
 11
3.030997
 21
6.092238
 31
0.0
  0
LINE
  5
582
  8
0
 10
3.030997
 20
6.092238
 30
0.0
 11
3.868094
 21
6.092238
 31
0.0
  0
LINE
  5
583
  8
0
 10
3.868094
 20
6.092238
 30
0.0
 11
4.000674
 21
6.092238
 31
0.0
  0
LINE
  5
584
  8
0
 10
4.000674
 20
6.092238
 30
0.0
 11
4.168094
 21
6.092238
 31
0.0
  0
LINE
  5
585
  8
0
 10
4.168094
 20
6.092238
 30
0.0
 11
4.830997
 21
6.092238
 31
0.0
  0
LINE
  5
586
  8
0
 10
4.830997
 20
6.092238
 30
0.0
 11
5.668094
 21
6.092238
 31
0.0
  0
LINE
  5
587
  8
0
 10
5.668094
 20
6.092238
 30
0.0
 11
5.800674
 21
6.092238
 31
0.0
  0
LINE
  5
588
  8
0
 10
5.800674
 20
6.092238
 30
0.0
 11
5.968094
 21
6.092238
 31
0.0
  0
LINE
  5
589
  8
0
 10
5.968094
 20
6.092238
 30
0.0
 11
6.630997
 21
6.092238
 31
0.0
  0
LINE
  5
58A
  8
0
 10
6.630997
 20
6.092238
 30
0.0
 11
7.468094
 21
6.092238
 31
0.0
  0
LINE
  5
58B
  8
0
 10
7.468094
 20
6.092238
 30
0.0
 11
7.600674
 21
6.092238
 31
0.0
  0
LINE
  5
58C
  8
0
 10
7.600674
 20
6.092238
 30
0.0
 11
7.768094
 21
6.092238
 31
0.0
  0
LINE
  5
58D
  8
0
 10
7.768094
 20
6.092238
 30
0.0
 11
8.430997
 21
6.092238
 31
0.0
  0
LINE
  5
58E
  8
0
 10
8.430997
 20
6.092238
 30
0.0
 11
9.268094
 21
6.092238
 31
0.0
  0
LINE
  5
58F
  8
0
 10
9.268094
 20
6.092238
 30
0.0
 11
9.400674
 21
6.092238
 31
0.0
  0
LINE
  5
590
  8
0
 10
9.400674
 20
6.092238
 30
0.0
 11
9.568094
 21
6.092238
 31
0.0
  0
LINE
  5
591
  8
0
 10
9.568094
 20
6.092238
 30
0.0
 11
10.230997
 21
6.092238
 31
0.0
  0
LINE
  5
592
  8
0
 10
10.230997
 20
6.092238
 30
0.0
 11
11.068094
 21
6.092238
 31
0.0
  0
LINE
  5
593
  8
0
 10
11.068094
 20
6.092238
 30
0.0
 11
11.200674
 21
6.092238
 31
0.0
  0
LINE
  5
594
  8
0
 10
11.200674
 20
6.092238
 30
0.0
 11
11.368094
 21
6.092238
 31
0.0
  0
LINE
  5
595
  8
0
 10
11.368094
 20
6.092238
 30
0.0
 11
12.030997
 21
6.092238
 31
0.0
  0
LINE
  5
596
  8
0
 10
12.030997
 20
6.092238
 30
0.0
 11
12.868094
 21
6.092238
 31
0.0
  0
LINE
  5
597
  8
0
 10
12.868094
 20
6.092238
 30
0.0
 11
13.000674
 21
6.092238
 31
0.0
  0
LINE
  5
598
  8
0
 10
13.000674
 20
6.092238
 30
0.0
 11
13.168094
 21
6.092238
 31
0.0
  0
LINE
  5
599
  8
0
 10
13.168094
 20
6.092238
 30
0.0
 11
13.830997
 21
6.092238
 31
0.0
  0
LINE
  5
59A
  8
0
 10
13.830997
 20
6.092238
 30
0.0
 11
14.493419
 21
6.092238
 31
0.0
  0
LINE
  5
59B
  8
0
 10
14.493419
 20
6.092238
 30
0.0
 11
14.626
 21
6.092238
 31
0.0
  0
LINE
  5
59C
  8
0
 10
0.551
 20
6.592238
 30
0.0
 11
0.718419
 21
6.592238
 31
0.0
  0
LINE
  5
59D
  8
0
 10
0.551
 20
6.592238
 30
0.0
 11
0.718419
 21
6.592238
 31
0.0
  0
LINE
  5
59E
  8
0
 10
0.718419
 20
6.592238
 30
0.0
 11
1.237694
 21
6.592238
 31
0.0
  0
LINE
  5
59F
  8
0
 10
1.237694
 20
6.592238
 30
0.0
 11
2.07479
 21
6.592238
 31
0.0
  0
LINE
  5
5A0
  8
0
 10
2.07479
 20
6.592238
 30
0.0
 11
2.207371
 21
6.592238
 31
0.0
  0
LINE
  5
5A1
  8
0
 10
2.207371
 20
6.592238
 30
0.0
 11
2.37479
 21
6.592238
 31
0.0
  0
LINE
  5
5A2
  8
0
 10
2.37479
 20
6.592238
 30
0.0
 11
3.037694
 21
6.592238
 31
0.0
  0
LINE
  5
5A3
  8
0
 10
3.037694
 20
6.592238
 30
0.0
 11
3.87479
 21
6.592238
 31
0.0
  0
LINE
  5
5A4
  8
0
 10
3.87479
 20
6.592238
 30
0.0
 11
4.007371
 21
6.592238
 31
0.0
  0
LINE
  5
5A5
  8
0
 10
4.007371
 20
6.592238
 30
0.0
 11
4.17479
 21
6.592238
 31
0.0
  0
LINE
  5
5A6
  8
0
 10
4.17479
 20
6.592238
 30
0.0
 11
4.837694
 21
6.592238
 31
0.0
  0
LINE
  5
5A7
  8
0
 10
4.837694
 20
6.592238
 30
0.0
 11
5.67479
 21
6.592238
 31
0.0
  0
LINE
  5
5A8
  8
0
 10
5.67479
 20
6.592238
 30
0.0
 11
5.807371
 21
6.592238
 31
0.0
  0
LINE
  5
5A9
  8
0
 10
5.807371
 20
6.592238
 30
0.0
 11
5.97479
 21
6.592238
 31
0.0
  0
LINE
  5
5AA
  8
0
 10
5.97479
 20
6.592238
 30
0.0
 11
6.637694
 21
6.592238
 31
0.0
  0
LINE
  5
5AB
  8
0
 10
6.637694
 20
6.592238
 30
0.0
 11
7.47479
 21
6.592238
 31
0.0
  0
LINE
  5
5AC
  8
0
 10
7.47479
 20
6.592238
 30
0.0
 11
7.607371
 21
6.592238
 31
0.0
  0
LINE
  5
5AD
  8
0
 10
7.607371
 20
6.592238
 30
0.0
 11
7.77479
 21
6.592238
 31
0.0
  0
LINE
  5
5AE
  8
0
 10
7.77479
 20
6.592238
 30
0.0
 11
8.437694
 21
6.592238
 31
0.0
  0
LINE
  5
5AF
  8
0
 10
8.437694
 20
6.592238
 30
0.0
 11
9.27479
 21
6.592238
 31
0.0
  0
LINE
  5
5B0
  8
0
 10
9.27479
 20
6.592238
 30
0.0
 11
9.407371
 21
6.592238
 31
0.0
  0
LINE
  5
5B1
  8
0
 10
9.407371
 20
6.592238
 30
0.0
 11
9.57479
 21
6.592238
 31
0.0
  0
LINE
  5
5B2
  8
0
 10
9.57479
 20
6.592238
 30
0.0
 11
10.237694
 21
6.592238
 31
0.0
  0
LINE
  5
5B3
  8
0
 10
10.237694
 20
6.592238
 30
0.0
 11
11.07479
 21
6.592238
 31
0.0
  0
LINE
  5
5B4
  8
0
 10
11.07479
 20
6.592238
 30
0.0
 11
11.207371
 21
6.592238
 31
0.0
  0
LINE
  5
5B5
  8
0
 10
11.207371
 20
6.592238
 30
0.0
 11
11.37479
 21
6.592238
 31
0.0
  0
LINE
  5
5B6
  8
0
 10
11.37479
 20
6.592238
 30
0.0
 11
12.037694
 21
6.592238
 31
0.0
  0
LINE
  5
5B7
  8
0
 10
12.037694
 20
6.592238
 30
0.0
 11
12.87479
 21
6.592238
 31
0.0
  0
LINE
  5
5B8
  8
0
 10
12.87479
 20
6.592238
 30
0.0
 11
13.007371
 21
6.592238
 31
0.0
  0
LINE
  5
5B9
  8
0
 10
13.007371
 20
6.592238
 30
0.0
 11
13.17479
 21
6.592238
 31
0.0
  0
LINE
  5
5BA
  8
0
 10
13.17479
 20
6.592238
 30
0.0
 11
13.837694
 21
6.592238
 31
0.0
  0
LINE
  5
5BB
  8
0
 10
13.837694
 20
6.592238
 30
0.0
 11
14.493419
 21
6.592238
 31
0.0
  0
LINE
  5
5BC
  8
0
 10
14.493419
 20
6.592238
 30
0.0
 11
14.626
 21
6.592238
 31
0.0
  0
LINE
  5
5BD
  8
0
 10
0.564
 20
7.092238
 30
0.0
 11
0.731419
 21
7.092238
 31
0.0
  0
LINE
  5
5BE
  8
0
 10
0.564
 20
7.092238
 30
0.0
 11
0.731419
 21
7.092238
 31
0.0
  0
LINE
  5
5BF
  8
0
 10
0.731419
 20
7.092238
 30
0.0
 11
1.244948
 21
7.092238
 31
0.0
  0
LINE
  5
5C0
  8
0
 10
1.244948
 20
7.092238
 30
0.0
 11
2.082045
 21
7.092238
 31
0.0
  0
LINE
  5
5C1
  8
0
 10
2.082045
 20
7.092238
 30
0.0
 11
2.214626
 21
7.092238
 31
0.0
  0
LINE
  5
5C2
  8
0
 10
2.214626
 20
7.092238
 30
0.0
 11
2.382045
 21
7.092238
 31
0.0
  0
LINE
  5
5C3
  8
0
 10
2.382045
 20
7.092238
 30
0.0
 11
3.044948
 21
7.092238
 31
0.0
  0
LINE
  5
5C4
  8
0
 10
3.044948
 20
7.092238
 30
0.0
 11
3.882045
 21
7.092238
 31
0.0
  0
LINE
  5
5C5
  8
0
 10
3.882045
 20
7.092238
 30
0.0
 11
4.014626
 21
7.092238
 31
0.0
  0
LINE
  5
5C6
  8
0
 10
4.014626
 20
7.092238
 30
0.0
 11
4.182045
 21
7.092238
 31
0.0
  0
LINE
  5
5C7
  8
0
 10
4.182045
 20
7.092238
 30
0.0
 11
4.844948
 21
7.092238
 31
0.0
  0
LINE
  5
5C8
  8
0
 10
4.844948
 20
7.092238
 30
0.0
 11
5.682045
 21
7.092238
 31
0.0
  0
LINE
  5
5C9
  8
0
 10
5.682045
 20
7.092238
 30
0.0
 11
5.814626
 21
7.092238
 31
0.0
  0
LINE
  5
5CA
  8
0
 10
5.814626
 20
7.092238
 30
0.0
 11
5.982045
 21
7.092238
 31
0.0
  0
LINE
  5
5CB
  8
0
 10
5.982045
 20
7.092238
 30
0.0
 11
6.644948
 21
7.092238
 31
0.0
  0
LINE
  5
5CC
  8
0
 10
6.644948
 20
7.092238
 30
0.0
 11
7.482045
 21
7.092238
 31
0.0
  0
LINE
  5
5CD
  8
0
 10
7.482045
 20
7.092238
 30
0.0
 11
7.614626
 21
7.092238
 31
0.0
  0
LINE
  5
5CE
  8
0
 10
7.614626
 20
7.092238
 30
0.0
 11
7.782045
 21
7.092238
 31
0.0
  0
LINE
  5
5CF
  8
0
 10
7.782045
 20
7.092238
 30
0.0
 11
8.444948
 21
7.092238
 31
0.0
  0
LINE
  5
5D0
  8
0
 10
8.444948
 20
7.092238
 30
0.0
 11
9.282045
 21
7.092238
 31
0.0
  0
LINE
  5
5D1
  8
0
 10
9.282045
 20
7.092238
 30
0.0
 11
9.414626
 21
7.092238
 31
0.0
  0
LINE
  5
5D2
  8
0
 10
9.414626
 20
7.092238
 30
0.0
 11
9.582045
 21
7.092238
 31
0.0
  0
LINE
  5
5D3
  8
0
 10
9.582045
 20
7.092238
 30
0.0
 11
10.244948
 21
7.092238
 31
0.0
  0
LINE
  5
5D4
  8
0
 10
10.244948
 20
7.092238
 30
0.0
 11
11.082045
 21
7.092238
 31
0.0
  0
LINE
  5
5D5
  8
0
 10
11.082045
 20
7.092238
 30
0.0
 11
11.214626
 21
7.092238
 31
0.0
  0
LINE
  5
5D6
  8
0
 10
11.214626
 20
7.092238
 30
0.0
 11
11.382045
 21
7.092238
 31
0.0
  0
LINE
  5
5D7
  8
0
 10
11.382045
 20
7.092238
 30
0.0
 11
12.044948
 21
7.092238
 31
0.0
  0
LINE
  5
5D8
  8
0
 10
12.044948
 20
7.092238
 30
0.0
 11
12.882045
 21
7.092238
 31
0.0
  0
LINE
  5
5D9
  8
0
 10
12.882045
 20
7.092238
 30
0.0
 11
13.014626
 21
7.092238
 31
0.0
  0
LINE
  5
5DA
  8
0
 10
13.014626
 20
7.092238
 30
0.0
 11
13.182045
 21
7.092238
 31
0.0
  0
LINE
  5
5DB
  8
0
 10
13.182045
 20
7.092238
 30
0.0
 11
13.844948
 21
7.092238
 31
0.0
  0
LINE
  5
5DC
  8
0
 10
13.844948
 20
7.092238
 30
0.0
 11
14.493419
 21
7.092238
 31
0.0
  0
LINE
  5
5DD
  8
0
 10
14.493419
 20
7.092238
 30
0.0
 11
14.626
 21
7.092238
 31
0.0
  0
LINE
  5
5DE
  8
0
 10
0.576
 20
7.592238
 30
0.0
 11
0.576558
 21
7.592238
 31
0.0
  0
LINE
  5
5DF
  8
0
 10
0.576
 20
7.592238
 30
0.0
 11
0.576558
 21
7.592238
 31
0.0
  0
LINE
  5
5E0
  8
0
 10
0.576558
 20
7.592238
 30
0.0
 11
0.743419
 21
7.592238
 31
0.0
  0
LINE
  5
5E1
  8
0
 10
0.743419
 20
7.592238
 30
0.0
 11
1.251645
 21
7.592238
 31
0.0
  0
LINE
  5
5E2
  8
0
 10
1.251645
 20
7.592238
 30
0.0
 11
2.0893
 21
7.592238
 31
0.0
  0
LINE
  5
5E3
  8
0
 10
2.0893
 20
7.592238
 30
0.0
 11
2.221881
 21
7.592238
 31
0.0
  0
LINE
  5
5E4
  8
0
 10
2.221881
 20
7.592238
 30
0.0
 11
2.388742
 21
7.592238
 31
0.0
  0
LINE
  5
5E5
  8
0
 10
2.388742
 20
7.592238
 30
0.0
 11
3.051645
 21
7.592238
 31
0.0
  0
LINE
  5
5E6
  8
0
 10
3.051645
 20
7.592238
 30
0.0
 11
3.8893
 21
7.592238
 31
0.0
  0
LINE
  5
5E7
  8
0
 10
3.8893
 20
7.592238
 30
0.0
 11
4.021881
 21
7.592238
 31
0.0
  0
LINE
  5
5E8
  8
0
 10
4.021881
 20
7.592238
 30
0.0
 11
4.188742
 21
7.592238
 31
0.0
  0
LINE
  5
5E9
  8
0
 10
4.188742
 20
7.592238
 30
0.0
 11
4.851645
 21
7.592238
 31
0.0
  0
LINE
  5
5EA
  8
0
 10
4.851645
 20
7.592238
 30
0.0
 11
5.6893
 21
7.592238
 31
0.0
  0
LINE
  5
5EB
  8
0
 10
5.6893
 20
7.592238
 30
0.0
 11
5.821881
 21
7.592238
 31
0.0
  0
LINE
  5
5EC
  8
0
 10
5.821881
 20
7.592238
 30
0.0
 11
5.988742
 21
7.592238
 31
0.0
  0
LINE
  5
5ED
  8
0
 10
5.988742
 20
7.592238
 30
0.0
 11
6.651645
 21
7.592238
 31
0.0
  0
LINE
  5
5EE
  8
0
 10
6.651645
 20
7.592238
 30
0.0
 11
7.4893
 21
7.592238
 31
0.0
  0
LINE
  5
5EF
  8
0
 10
7.4893
 20
7.592238
 30
0.0
 11
7.621881
 21
7.592238
 31
0.0
  0
LINE
  5
5F0
  8
0
 10
7.621881
 20
7.592238
 30
0.0
 11
7.788742
 21
7.592238
 31
0.0
  0
LINE
  5
5F1
  8
0
 10
7.788742
 20
7.592238
 30
0.0
 11
8.451645
 21
7.592238
 31
0.0
  0
LINE
  5
5F2
  8
0
 10
8.451645
 20
7.592238
 30
0.0
 11
9.2893
 21
7.592238
 31
0.0
  0
LINE
  5
5F3
  8
0
 10
9.2893
 20
7.592238
 30
0.0
 11
9.421881
 21
7.592238
 31
0.0
  0
LINE
  5
5F4
  8
0
 10
9.421881
 20
7.592238
 30
0.0
 11
9.588742
 21
7.592238
 31
0.0
  0
LINE
  5
5F5
  8
0
 10
9.588742
 20
7.592238
 30
0.0
 11
10.251645
 21
7.592238
 31
0.0
  0
LINE
  5
5F6
  8
0
 10
10.251645
 20
7.592238
 30
0.0
 11
11.0893
 21
7.592238
 31
0.0
  0
LINE
  5
5F7
  8
0
 10
11.0893
 20
7.592238
 30
0.0
 11
11.221881
 21
7.592238
 31
0.0
  0
LINE
  5
5F8
  8
0
 10
11.221881
 20
7.592238
 30
0.0
 11
11.388742
 21
7.592238
 31
0.0
  0
LINE
  5
5F9
  8
0
 10
11.388742
 20
7.592238
 30
0.0
 11
12.051645
 21
7.592238
 31
0.0
  0
LINE
  5
5FA
  8
0
 10
12.051645
 20
7.592238
 30
0.0
 11
12.8893
 21
7.592238
 31
0.0
  0
LINE
  5
5FB
  8
0
 10
12.8893
 20
7.592238
 30
0.0
 11
13.021881
 21
7.592238
 31
0.0
  0
LINE
  5
5FC
  8
0
 10
13.021881
 20
7.592238
 30
0.0
 11
13.188742
 21
7.592238
 31
0.0
  0
LINE
  5
5FD
  8
0
 10
13.188742
 20
7.592238
 30
0.0
 11
13.851645
 21
7.592238
 31
0.0
  0
LINE
  5
5FE
  8
0
 10
13.851645
 20
7.592238
 30
0.0
 11
14.493419
 21
7.592238
 31
0.0
  0
LINE
  5
5FF
  8
0
 10
14.493419
 20
7.592238
 30
0.0
 11
14.626
 21
7.592238
 31
0.0
  0
LINE
  5
600
  8
0
 10
0.575
 20
8.092238
 30
0.0
 11
0.742419
 21
8.092238
 31
0.0
  0
LINE
  5
601
  8
0
 10
0.575
 20
8.092238
 30
0.0
 11
0.742419
 21
8.092238
 31
0.0
  0
LINE
  5
602
  8
0
 10
0.742419
 20
8.092238
 30
0.0
 11
1.251087
 21
8.092238
 31
0.0
  0
LINE
  5
603
  8
0
 10
1.251087
 20
8.092238
 30
0.0
 11
2.088742
 21
8.092238
 31
0.0
  0
LINE
  5
604
  8
0
 10
2.088742
 20
8.092238
 30
0.0
 11
2.221323
 21
8.092238
 31
0.0
  0
LINE
  5
605
  8
0
 10
2.221323
 20
8.092238
 30
0.0
 11
2.388184
 21
8.092238
 31
0.0
  0
LINE
  5
606
  8
0
 10
2.388184
 20
8.092238
 30
0.0
 11
3.051087
 21
8.092238
 31
0.0
  0
LINE
  5
607
  8
0
 10
3.051087
 20
8.092238
 30
0.0
 11
3.888742
 21
8.092238
 31
0.0
  0
LINE
  5
608
  8
0
 10
3.888742
 20
8.092238
 30
0.0
 11
4.021323
 21
8.092238
 31
0.0
  0
LINE
  5
609
  8
0
 10
4.021323
 20
8.092238
 30
0.0
 11
4.188184
 21
8.092238
 31
0.0
  0
LINE
  5
60A
  8
0
 10
4.188184
 20
8.092238
 30
0.0
 11
4.851087
 21
8.092238
 31
0.0
  0
LINE
  5
60B
  8
0
 10
4.851087
 20
8.092238
 30
0.0
 11
5.688742
 21
8.092238
 31
0.0
  0
LINE
  5
60C
  8
0
 10
5.688742
 20
8.092238
 30
0.0
 11
5.821323
 21
8.092238
 31
0.0
  0
LINE
  5
60D
  8
0
 10
5.821323
 20
8.092238
 30
0.0
 11
5.988184
 21
8.092238
 31
0.0
  0
LINE
  5
60E
  8
0
 10
5.988184
 20
8.092238
 30
0.0
 11
6.651087
 21
8.092238
 31
0.0
  0
LINE
  5
60F
  8
0
 10
6.651087
 20
8.092238
 30
0.0
 11
7.488742
 21
8.092238
 31
0.0
  0
LINE
  5
610
  8
0
 10
7.488742
 20
8.092238
 30
0.0
 11
7.621323
 21
8.092238
 31
0.0
  0
LINE
  5
611
  8
0
 10
7.621323
 20
8.092238
 30
0.0
 11
7.788184
 21
8.092238
 31
0.0
  0
LINE
  5
612
  8
0
 10
7.788184
 20
8.092238
 30
0.0
 11
8.451087
 21
8.092238
 31
0.0
  0
LINE
  5
613
  8
0
 10
8.451087
 20
8.092238
 30
0.0
 11
9.288742
 21
8.092238
 31
0.0
  0
LINE
  5
614
  8
0
 10
9.288742
 20
8.092238
 30
0.0
 11
9.421323
 21
8.092238
 31
0.0
  0
LINE
  5
615
  8
0
 10
9.421323
 20
8.092238
 30
0.0
 11
9.588184
 21
8.092238
 31
0.0
  0
LINE
  5
616
  8
0
 10
9.588184
 20
8.092238
 30
0.0
 11
10.251087
 21
8.092238
 31
0.0
  0
LINE
  5
617
  8
0
 10
10.251087
 20
8.092238
 30
0.0
 11
11.088742
 21
8.092238
 31
0.0
  0
LINE
  5
618
  8
0
 10
11.088742
 20
8.092238
 30
0.0
 11
11.221323
 21
8.092238
 31
0.0
  0
LINE
  5
619
  8
0
 10
11.221323
 20
8.092238
 30
0.0
 11
11.388184
 21
8.092238
 31
0.0
  0
LINE
  5
61A
  8
0
 10
11.388184
 20
8.092238
 30
0.0
 11
12.051087
 21
8.092238
 31
0.0
  0
LINE
  5
61B
  8
0
 10
12.051087
 20
8.092238
 30
0.0
 11
12.888742
 21
8.092238
 31
0.0
  0
LINE
  5
61C
  8
0
 10
12.888742
 20
8.092238
 30
0.0
 11
13.021323
 21
8.092238
 31
0.0
  0
LINE
  5
61D
  8
0
 10
13.021323
 20
8.092238
 30
0.0
 11
13.188184
 21
8.092238
 31
0.0
  0
LINE
  5
61E
  8
0
 10
13.188184
 20
8.092238
 30
0.0
 11
13.851087
 21
8.092238
 31
0.0
  0
LINE
  5
61F
  8
0
 10
13.851087
 20
8.092238
 30
0.0
 11
14.493419
 21
8.092238
 31
0.0
  0
LINE
  5
620
  8
0
 10
14.493419
 20
8.092238
 30
0.0
 11
14.626
 21
8.092238
 31
0.0
  0
LINE
  5
621
  8
0
 10
0.56
 20
8.592238
 30
0.0
 11
0.727419
 21
8.592238
 31
0.0
  0
LINE
  5
622
  8
0
 10
0.56
 20
8.592238
 30
0.0
 11
0.727419
 21
8.592238
 31
0.0
  0
LINE
  5
623
  8
0
 10
0.727419
 20
8.592238
 30
0.0
 11
1.242716
 21
8.592238
 31
0.0
  0
LINE
  5
624
  8
0
 10
1.242716
 20
8.592238
 30
0.0
 11
2.079813
 21
8.592238
 31
0.0
  0
LINE
  5
625
  8
0
 10
2.079813
 20
8.592238
 30
0.0
 11
2.212394
 21
8.592238
 31
0.0
  0
LINE
  5
626
  8
0
 10
2.212394
 20
8.592238
 30
0.0
 11
2.379813
 21
8.592238
 31
0.0
  0
LINE
  5
627
  8
0
 10
2.379813
 20
8.592238
 30
0.0
 11
3.042716
 21
8.592238
 31
0.0
  0
LINE
  5
628
  8
0
 10
3.042716
 20
8.592238
 30
0.0
 11
3.879813
 21
8.592238
 31
0.0
  0
LINE
  5
629
  8
0
 10
3.879813
 20
8.592238
 30
0.0
 11
4.012394
 21
8.592238
 31
0.0
  0
LINE
  5
62A
  8
0
 10
4.012394
 20
8.592238
 30
0.0
 11
4.179813
 21
8.592238
 31
0.0
  0
LINE
  5
62B
  8
0
 10
4.179813
 20
8.592238
 30
0.0
 11
4.842716
 21
8.592238
 31
0.0
  0
LINE
  5
62C
  8
0
 10
4.842716
 20
8.592238
 30
0.0
 11
5.679813
 21
8.592238
 31
0.0
  0
LINE
  5
62D
  8
0
 10
5.679813
 20
8.592238
 30
0.0
 11
5.812394
 21
8.592238
 31
0.0
  0
LINE
  5
62E
  8
0
 10
5.812394
 20
8.592238
 30
0.0
 11
5.979813
 21
8.592238
 31
0.0
  0
LINE
  5
62F
  8
0
 10
5.979813
 20
8.592238
 30
0.0
 11
6.642716
 21
8.592238
 31
0.0
  0
LINE
  5
630
  8
0
 10
6.642716
 20
8.592238
 30
0.0
 11
7.479813
 21
8.592238
 31
0.0
  0
LINE
  5
631
  8
0
 10
7.479813
 20
8.592238
 30
0.0
 11
7.612394
 21
8.592238
 31
0.0
  0
LINE
  5
632
  8
0
 10
7.612394
 20
8.592238
 30
0.0
 11
7.779813
 21
8.592238
 31
0.0
  0
LINE
  5
633
  8
0
 10
7.779813
 20
8.592238
 30
0.0
 11
8.442716
 21
8.592238
 31
0.0
  0
LINE
  5
634
  8
0
 10
8.442716
 20
8.592238
 30
0.0
 11
9.279813
 21
8.592238
 31
0.0
  0
LINE
  5
635
  8
0
 10
9.279813
 20
8.592238
 30
0.0
 11
9.412394
 21
8.592238
 31
0.0
  0
LINE
  5
636
  8
0
 10
9.412394
 20
8.592238
 30
0.0
 11
9.579813
 21
8.592238
 31
0.0
  0
LINE
  5
637
  8
0
 10
9.579813
 20
8.592238
 30
0.0
 11
10.242716
 21
8.592238
 31
0.0
  0
LINE
  5
638
  8
0
 10
10.242716
 20
8.592238
 30
0.0
 11
11.079813
 21
8.592238
 31
0.0
  0
LINE
  5
639
  8
0
 10
11.079813
 20
8.592238
 30
0.0
 11
11.212394
 21
8.592238
 31
0.0
  0
LINE
  5
63A
  8
0
 10
11.212394
 20
8.592238
 30
0.0
 11
11.379813
 21
8.592238
 31
0.0
  0
LINE
  5
63B
  8
0
 10
11.379813
 20
8.592238
 30
0.0
 11
12.042716
 21
8.592238
 31
0.0
  0
LINE
  5
63C
  8
0
 10
12.042716
 20
8.592238
 30
0.0
 11
12.879813
 21
8.592238
 31
0.0
  0
LINE
  5
63D
  8
0
 10
12.879813
 20
8.592238
 30
0.0
 11
13.012394
 21
8.592238
 31
0.0
  0
LINE
  5
63E
  8
0
 10
13.012394
 20
8.592238
 30
0.0
 11
13.179813
 21
8.592238
 31
0.0
  0
LINE
  5
63F
  8
0
 10
13.179813
 20
8.592238
 30
0.0
 11
13.842716
 21
8.592238
 31
0.0
  0
LINE
  5
640
  8
0
 10
13.842716
 20
8.592238
 30
0.0
 11
14.493419
 21
8.592238
 31
0.0
  0
LINE
  5
641
  8
0
 10
14.493419
 20
8.592238
 30
0.0
 11
14.626
 21
8.592238
 31
0.0
  0
LINE
  5
642
  8
0
 10
0.545
 20
9.092238
 30
0.0
 11
0.712419
 21
9.092238
 31
0.0
  0
LINE
  5
643
  8
0
 10
0.545
 20
9.092238
 30
0.0
 11
0.712419
 21
9.092238
 31
0.0
  0
LINE
  5
644
  8
0
 10
0.712419
 20
9.092238
 30
0.0
 11
1.234345
 21
9.092238
 31
0.0
  0
LINE
  5
645
  8
0
 10
1.234345
 20
9.092238
 30
0.0
 11
2.071442
 21
9.092238
 31
0.0
  0
LINE
  5
646
  8
0
 10
2.071442
 20
9.092238
 30
0.0
 11
2.204023
 21
9.092238
 31
0.0
  0
LINE
  5
647
  8
0
 10
2.204023
 20
9.092238
 30
0.0
 11
2.371442
 21
9.092238
 31
0.0
  0
LINE
  5
648
  8
0
 10
2.371442
 20
9.092238
 30
0.0
 11
3.034345
 21
9.092238
 31
0.0
  0
LINE
  5
649
  8
0
 10
3.034345
 20
9.092238
 30
0.0
 11
3.871442
 21
9.092238
 31
0.0
  0
LINE
  5
64A
  8
0
 10
3.871442
 20
9.092238
 30
0.0
 11
4.004023
 21
9.092238
 31
0.0
  0
LINE
  5
64B
  8
0
 10
4.004023
 20
9.092238
 30
0.0
 11
4.171442
 21
9.092238
 31
0.0
  0
LINE
  5
64C
  8
0
 10
4.171442
 20
9.092238
 30
0.0
 11
4.834345
 21
9.092238
 31
0.0
  0
LINE
  5
64D
  8
0
 10
4.834345
 20
9.092238
 30
0.0
 11
5.671442
 21
9.092238
 31
0.0
  0
LINE
  5
64E
  8
0
 10
5.671442
 20
9.092238
 30
0.0
 11
5.804023
 21
9.092238
 31
0.0
  0
LINE
  5
64F
  8
0
 10
5.804023
 20
9.092238
 30
0.0
 11
5.971442
 21
9.092238
 31
0.0
  0
LINE
  5
650
  8
0
 10
5.971442
 20
9.092238
 30
0.0
 11
6.634345
 21
9.092238
 31
0.0
  0
LINE
  5
651
  8
0
 10
6.634345
 20
9.092238
 30
0.0
 11
7.471442
 21
9.092238
 31
0.0
  0
LINE
  5
652
  8
0
 10
7.471442
 20
9.092238
 30
0.0
 11
7.604023
 21
9.092238
 31
0.0
  0
LINE
  5
653
  8
0
 10
7.604023
 20
9.092238
 30
0.0
 11
7.771442
 21
9.092238
 31
0.0
  0
LINE
  5
654
  8
0
 10
7.771442
 20
9.092238
 30
0.0
 11
8.434345
 21
9.092238
 31
0.0
  0
LINE
  5
655
  8
0
 10
8.434345
 20
9.092238
 30
0.0
 11
9.271442
 21
9.092238
 31
0.0
  0
LINE
  5
656
  8
0
 10
9.271442
 20
9.092238
 30
0.0
 11
9.404023
 21
9.092238
 31
0.0
  0
LINE
  5
657
  8
0
 10
9.404023
 20
9.092238
 30
0.0
 11
9.571442
 21
9.092238
 31
0.0
  0
LINE
  5
658
  8
0
 10
9.571442
 20
9.092238
 30
0.0
 11
10.234345
 21
9.092238
 31
0.0
  0
LINE
  5
659
  8
0
 10
10.234345
 20
9.092238
 30
0.0
 11
11.071442
 21
9.092238
 31
0.0
  0
LINE
  5
65A
  8
0
 10
11.071442
 20
9.092238
 30
0.0
 11
11.204023
 21
9.092238
 31
0.0
  0
LINE
  5
65B
  8
0
 10
11.204023
 20
9.092238
 30
0.0
 11
11.371442
 21
9.092238
 31
0.0
  0
LINE
  5
65C
  8
0
 10
11.371442
 20
9.092238
 30
0.0
 11
12.034345
 21
9.092238
 31
0.0
  0
LINE
  5
65D
  8
0
 10
12.034345
 20
9.092238
 30
0.0
 11
12.871442
 21
9.092238
 31
0.0
  0
LINE
  5
65E
  8
0
 10
12.871442
 20
9.092238
 30
0.0
 11
13.004023
 21
9.092238
 31
0.0
  0
LINE
  5
65F
  8
0
 10
13.004023
 20
9.092238
 30
0.0
 11
13.171442
 21
9.092238
 31
0.0
  0
LINE
  5
660
  8
0
 10
13.171442
 20
9.092238
 30
0.0
 11
13.834345
 21
9.092238
 31
0.0
  0
LINE
  5
661
  8
0
 10
13.834345
 20
9.092238
 30
0.0
 11
14.493419
 21
9.092238
 31
0.0
  0
LINE
  5
662
  8
0
 10
14.493419
 20
9.092238
 30
0.0
 11
14.626
 21
9.092238
 31
0.0
  0
LINE
  5
663
  8
0
 10
0.529
 20
9.592238
 30
0.0
 11
0.696419
 21
9.592238
 31
0.0
  0
LINE
  5
664
  8
0
 10
0.529
 20
9.592238
 30
0.0
 11
0.696419
 21
9.592238
 31
0.0
  0
LINE
  5
665
  8
0
 10
0.696419
 20
9.592238
 30
0.0
 11
1.225416
 21
9.592238
 31
0.0
  0
LINE
  5
666
  8
0
 10
1.225416
 20
9.592238
 30
0.0
 11
2.063071
 21
9.592238
 31
0.0
  0
LINE
  5
667
  8
0
 10
2.063071
 20
9.592238
 30
0.0
 11
2.195652
 21
9.592238
 31
0.0
  0
LINE
  5
668
  8
0
 10
2.195652
 20
9.592238
 30
0.0
 11
2.362513
 21
9.592238
 31
0.0
  0
LINE
  5
669
  8
0
 10
2.362513
 20
9.592238
 30
0.0
 11
3.025416
 21
9.592238
 31
0.0
  0
LINE
  5
66A
  8
0
 10
3.025416
 20
9.592238
 30
0.0
 11
3.863071
 21
9.592238
 31
0.0
  0
LINE
  5
66B
  8
0
 10
3.863071
 20
9.592238
 30
0.0
 11
3.995652
 21
9.592238
 31
0.0
  0
LINE
  5
66C
  8
0
 10
3.995652
 20
9.592238
 30
0.0
 11
4.162513
 21
9.592238
 31
0.0
  0
LINE
  5
66D
  8
0
 10
4.162513
 20
9.592238
 30
0.0
 11
4.825416
 21
9.592238
 31
0.0
  0
LINE
  5
66E
  8
0
 10
4.825416
 20
9.592238
 30
0.0
 11
5.663071
 21
9.592238
 31
0.0
  0
LINE
  5
66F
  8
0
 10
5.663071
 20
9.592238
 30
0.0
 11
5.795652
 21
9.592238
 31
0.0
  0
LINE
  5
670
  8
0
 10
5.795652
 20
9.592238
 30
0.0
 11
5.962513
 21
9.592238
 31
0.0
  0
LINE
  5
671
  8
0
 10
5.962513
 20
9.592238
 30
0.0
 11
6.625416
 21
9.592238
 31
0.0
  0
LINE
  5
672
  8
0
 10
6.625416
 20
9.592238
 30
0.0
 11
7.463071
 21
9.592238
 31
0.0
  0
LINE
  5
673
  8
0
 10
7.463071
 20
9.592238
 30
0.0
 11
7.595652
 21
9.592238
 31
0.0
  0
LINE
  5
674
  8
0
 10
7.595652
 20
9.592238
 30
0.0
 11
7.762513
 21
9.592238
 31
0.0
  0
LINE
  5
675
  8
0
 10
7.762513
 20
9.592238
 30
0.0
 11
8.425416
 21
9.592238
 31
0.0
  0
LINE
  5
676
  8
0
 10
8.425416
 20
9.592238
 30
0.0
 11
9.263071
 21
9.592238
 31
0.0
  0
LINE
  5
677
  8
0
 10
9.263071
 20
9.592238
 30
0.0
 11
9.395652
 21
9.592238
 31
0.0
  0
LINE
  5
678
  8
0
 10
9.395652
 20
9.592238
 30
0.0
 11
9.562513
 21
9.592238
 31
0.0
  0
LINE
  5
679
  8
0
 10
9.562513
 20
9.592238
 30
0.0
 11
10.225416
 21
9.592238
 31
0.0
  0
LINE
  5
67A
  8
0
 10
10.225416
 20
9.592238
 30
0.0
 11
11.063071
 21
9.592238
 31
0.0
  0
LINE
  5
67B
  8
0
 10
11.063071
 20
9.592238
 30
0.0
 11
11.195652
 21
9.592238
 31
0.0
  0
LINE
  5
67C
  8
0
 10
11.195652
 20
9.592238
 30
0.0
 11
11.362513
 21
9.592238
 31
0.0
  0
LINE
  5
67D
  8
0
 10
11.362513
 20
9.592238
 30
0.0
 11
12.025416
 21
9.592238
 31
0.0
  0
LINE
  5
67E
  8
0
 10
12.025416
 20
9.592238
 30
0.0
 11
12.863071
 21
9.592238
 31
0.0
  0
LINE
  5
67F
  8
0
 10
12.863071
 20
9.592238
 30
0.0
 11
12.995652
 21
9.592238
 31
0.0
  0
LINE
  5
680
  8
0
 10
12.995652
 20
9.592238
 30
0.0
 11
13.162513
 21
9.592238
 31
0.0
  0
LINE
  5
681
  8
0
 10
13.162513
 20
9.592238
 30
0.0
 11
13.825416
 21
9.592238
 31
0.0
  0
LINE
  5
682
  8
0
 10
13.825416
 20
9.592238
 30
0.0
 11
14.493419
 21
9.592238
 31
0.0
  0
LINE
  5
683
  8
0
 10
14.493419
 20
9.592238
 30
0.0
 11
14.626
 21
9.592238
 31
0.0
  0
LINE
  5
684
  8
0
 10
0.514
 20
10.092238
 30
0.0
 11
0.681419
 21
10.092238
 31
0.0
  0
LINE
  5
685
  8
0
 10
0.514
 20
10.092238
 30
0.0
 11
0.681419
 21
10.092238
 31
0.0
  0
LINE
  5
686
  8
0
 10
0.681419
 20
10.092238
 30
0.0
 11
1.217045
 21
10.092238
 31
0.0
  0
LINE
  5
687
  8
0
 10
1.217045
 20
10.092238
 30
0.0
 11
2.054142
 21
10.092238
 31
0.0
  0
LINE
  5
688
  8
0
 10
2.054142
 20
10.092238
 30
0.0
 11
2.186723
 21
10.092238
 31
0.0
  0
LINE
  5
689
  8
0
 10
2.186723
 20
10.092238
 30
0.0
 11
2.354142
 21
10.092238
 31
0.0
  0
LINE
  5
68A
  8
0
 10
2.354142
 20
10.092238
 30
0.0
 11
3.017045
 21
10.092238
 31
0.0
  0
LINE
  5
68B
  8
0
 10
3.017045
 20
10.092238
 30
0.0
 11
3.854142
 21
10.092238
 31
0.0
  0
LINE
  5
68C
  8
0
 10
3.854142
 20
10.092238
 30
0.0
 11
3.986723
 21
10.092238
 31
0.0
  0
LINE
  5
68D
  8
0
 10
3.986723
 20
10.092238
 30
0.0
 11
4.154142
 21
10.092238
 31
0.0
  0
LINE
  5
68E
  8
0
 10
4.154142
 20
10.092238
 30
0.0
 11
4.817045
 21
10.092238
 31
0.0
  0
LINE
  5
68F
  8
0
 10
4.817045
 20
10.092238
 30
0.0
 11
5.654142
 21
10.092238
 31
0.0
  0
LINE
  5
690
  8
0
 10
5.654142
 20
10.092238
 30
0.0
 11
5.786723
 21
10.092238
 31
0.0
  0
LINE
  5
691
  8
0
 10
5.786723
 20
10.092238
 30
0.0
 11
5.954142
 21
10.092238
 31
0.0
  0
LINE
  5
692
  8
0
 10
5.954142
 20
10.092238
 30
0.0
 11
6.617045
 21
10.092238
 31
0.0
  0
LINE
  5
693
  8
0
 10
6.617045
 20
10.092238
 30
0.0
 11
7.454142
 21
10.092238
 31
0.0
  0
LINE
  5
694
  8
0
 10
7.454142
 20
10.092238
 30
0.0
 11
7.586723
 21
10.092238
 31
0.0
  0
LINE
  5
695
  8
0
 10
7.586723
 20
10.092238
 30
0.0
 11
7.754142
 21
10.092238
 31
0.0
  0
LINE
  5
696
  8
0
 10
7.754142
 20
10.092238
 30
0.0
 11
8.417045
 21
10.092238
 31
0.0
  0
LINE
  5
697
  8
0
 10
8.417045
 20
10.092238
 30
0.0
 11
9.254142
 21
10.092238
 31
0.0
  0
LINE
  5
698
  8
0
 10
9.254142
 20
10.092238
 30
0.0
 11
9.386723
 21
10.092238
 31
0.0
  0
LINE
  5
699
  8
0
 10
9.386723
 20
10.092238
 30
0.0
 11
9.554142
 21
10.092238
 31
0.0
  0
LINE
  5
69A
  8
0
 10
9.554142
 20
10.092238
 30
0.0
 11
10.217045
 21
10.092238
 31
0.0
  0
LINE
  5
69B
  8
0
 10
10.217045
 20
10.092238
 30
0.0
 11
11.054142
 21
10.092238
 31
0.0
  0
LINE
  5
69C
  8
0
 10
11.054142
 20
10.092238
 30
0.0
 11
11.186723
 21
10.092238
 31
0.0
  0
LINE
  5
69D
  8
0
 10
11.186723
 20
10.092238
 30
0.0
 11
11.354142
 21
10.092238
 31
0.0
  0
LINE
  5
69E
  8
0
 10
11.354142
 20
10.092238
 30
0.0
 11
12.017045
 21
10.092238
 31
0.0
  0
LINE
  5
69F
  8
0
 10
12.017045
 20
10.092238
 30
0.0
 11
12.854142
 21
10.092238
 31
0.0
  0
LINE
  5
6A0
  8
0
 10
12.854142
 20
10.092238
 30
0.0
 11
12.986723
 21
10.092238
 31
0.0
  0
LINE
  5
6A1
  8
0
 10
12.986723
 20
10.092238
 30
0.0
 11
13.154142
 21
10.092238
 31
0.0
  0
LINE
  5
6A2
  8
0
 10
13.154142
 20
10.092238
 30
0.0
 11
13.817045
 21
10.092238
 31
0.0
  0
LINE
  5
6A3
  8
0
 10
13.817045
 20
10.092238
 30
0.0
 11
14.493419
 21
10.092238
 31
0.0
  0
LINE
  5
6A4
  8
0
 10
14.493419
 20
10.092238
 30
0.0
 11
14.626
 21
10.092238
 31
0.0
  0
LINE
  5
6A5
  8
0
 10
0.499
 20
10.592238
 30
0.0
 11
0.666419
 21
10.592238
 31
0.0
  0
LINE
  5
6A6
  8
0
 10
0.499
 20
10.592238
 30
0.0
 11
0.666419
 21
10.592238
 31
0.0
  0
LINE
  5
6A7
  8
0
 10
0.666419
 20
10.592238
 30
0.0
 11
1.208674
 21
10.592238
 31
0.0
  0
LINE
  5
6A8
  8
0
 10
1.208674
 20
10.592238
 30
0.0
 11
2.045771
 21
10.592238
 31
0.0
  0
LINE
  5
6A9
  8
0
 10
2.045771
 20
10.592238
 30
0.0
 11
2.178352
 21
10.592238
 31
0.0
  0
LINE
  5
6AA
  8
0
 10
2.178352
 20
10.592238
 30
0.0
 11
2.345771
 21
10.592238
 31
0.0
  0
LINE
  5
6AB
  8
0
 10
2.345771
 20
10.592238
 30
0.0
 11
3.008674
 21
10.592238
 31
0.0
  0
LINE
  5
6AC
  8
0
 10
3.008674
 20
10.592238
 30
0.0
 11
3.845771
 21
10.592238
 31
0.0
  0
LINE
  5
6AD
  8
0
 10
3.845771
 20
10.592238
 30
0.0
 11
3.978352
 21
10.592238
 31
0.0
  0
LINE
  5
6AE
  8
0
 10
3.978352
 20
10.592238
 30
0.0
 11
4.145771
 21
10.592238
 31
0.0
  0
LINE
  5
6AF
  8
0
 10
4.145771
 20
10.592238
 30
0.0
 11
4.808674
 21
10.592238
 31
0.0
  0
LINE
  5
6B0
  8
0
 10
4.808674
 20
10.592238
 30
0.0
 11
5.645771
 21
10.592238
 31
0.0
  0
LINE
  5
6B1
  8
0
 10
5.645771
 20
10.592238
 30
0.0
 11
5.778352
 21
10.592238
 31
0.0
  0
LINE
  5
6B2
  8
0
 10
5.778352
 20
10.592238
 30
0.0
 11
5.945771
 21
10.592238
 31
0.0
  0
LINE
  5
6B3
  8
0
 10
5.945771
 20
10.592238
 30
0.0
 11
6.608674
 21
10.592238
 31
0.0
  0
LINE
  5
6B4
  8
0
 10
6.608674
 20
10.592238
 30
0.0
 11
7.445771
 21
10.592238
 31
0.0
  0
LINE
  5
6B5
  8
0
 10
7.445771
 20
10.592238
 30
0.0
 11
7.578352
 21
10.592238
 31
0.0
  0
LINE
  5
6B6
  8
0
 10
7.578352
 20
10.592238
 30
0.0
 11
7.745771
 21
10.592238
 31
0.0
  0
LINE
  5
6B7
  8
0
 10
7.745771
 20
10.592238
 30
0.0
 11
8.408674
 21
10.592238
 31
0.0
  0
LINE
  5
6B8
  8
0
 10
8.408674
 20
10.592238
 30
0.0
 11
9.245771
 21
10.592238
 31
0.0
  0
LINE
  5
6B9
  8
0
 10
9.245771
 20
10.592238
 30
0.0
 11
9.378352
 21
10.592238
 31
0.0
  0
LINE
  5
6BA
  8
0
 10
9.378352
 20
10.592238
 30
0.0
 11
9.545771
 21
10.592238
 31
0.0
  0
LINE
  5
6BB
  8
0
 10
9.545771
 20
10.592238
 30
0.0
 11
10.208674
 21
10.592238
 31
0.0
  0
LINE
  5
6BC
  8
0
 10
10.208674
 20
10.592238
 30
0.0
 11
11.045771
 21
10.592238
 31
0.0
  0
LINE
  5
6BD
  8
0
 10
11.045771
 20
10.592238
 30
0.0
 11
11.178352
 21
10.592238
 31
0.0
  0
LINE
  5
6BE
  8
0
 10
11.178352
 20
10.592238
 30
0.0
 11
11.345771
 21
10.592238
 31
0.0
  0
LINE
  5
6BF
  8
0
 10
11.345771
 20
10.592238
 30
0.0
 11
12.008674
 21
10.592238
 31
0.0
  0
LINE
  5
6C0
  8
0
 10
12.008674
 20
10.592238
 30
0.0
 11
12.845771
 21
10.592238
 31
0.0
  0
LINE
  5
6C1
  8
0
 10
12.845771
 20
10.592238
 30
0.0
 11
12.978352
 21
10.592238
 31
0.0
  0
LINE
  5
6C2
  8
0
 10
12.978352
 20
10.592238
 30
0.0
 11
13.145771
 21
10.592238
 31
0.0
  0
LINE
  5
6C3
  8
0
 10
13.145771
 20
10.592238
 30
0.0
 11
13.808674
 21
10.592238
 31
0.0
  0
LINE
  5
6C4
  8
0
 10
13.808674
 20
10.592238
 30
0.0
 11
14.493419
 21
10.592238
 31
0.0
  0
LINE
  5
6C5
  8
0
 10
14.493419
 20
10.592238
 30
0.0
 11
14.626
 21
10.592238
 31
0.0
  0
LINE
  5
6C6
  8
0
 10
0.484
 20
11.092238
 30
0.0
 11
0.651419
 21
11.092238
 31
0.0
  0
LINE
  5
6C7
  8
0
 10
0.484
 20
11.092238
 30
0.0
 11
0.651419
 21
11.092238
 31
0.0
  0
LINE
  5
6C8
  8
0
 10
0.651419
 20
11.092238
 30
0.0
 11
1.200303
 21
11.092238
 31
0.0
  0
LINE
  5
6C9
  8
0
 10
1.200303
 20
11.092238
 30
0.0
 11
2.0374
 21
11.092238
 31
0.0
  0
LINE
  5
6CA
  8
0
 10
2.0374
 20
11.092238
 30
0.0
 11
2.169981
 21
11.092238
 31
0.0
  0
LINE
  5
6CB
  8
0
 10
2.169981
 20
11.092238
 30
0.0
 11
2.3374
 21
11.092238
 31
0.0
  0
LINE
  5
6CC
  8
0
 10
2.3374
 20
11.092238
 30
0.0
 11
3.000303
 21
11.092238
 31
0.0
  0
LINE
  5
6CD
  8
0
 10
3.000303
 20
11.092238
 30
0.0
 11
3.8374
 21
11.092238
 31
0.0
  0
LINE
  5
6CE
  8
0
 10
3.8374
 20
11.092238
 30
0.0
 11
3.969981
 21
11.092238
 31
0.0
  0
LINE
  5
6CF
  8
0
 10
3.969981
 20
11.092238
 30
0.0
 11
4.1374
 21
11.092238
 31
0.0
  0
LINE
  5
6D0
  8
0
 10
4.1374
 20
11.092238
 30
0.0
 11
4.800303
 21
11.092238
 31
0.0
  0
LINE
  5
6D1
  8
0
 10
4.800303
 20
11.092238
 30
0.0
 11
5.6374
 21
11.092238
 31
0.0
  0
LINE
  5
6D2
  8
0
 10
5.6374
 20
11.092238
 30
0.0
 11
5.769981
 21
11.092238
 31
0.0
  0
LINE
  5
6D3
  8
0
 10
5.769981
 20
11.092238
 30
0.0
 11
5.9374
 21
11.092238
 31
0.0
  0
LINE
  5
6D4
  8
0
 10
5.9374
 20
11.092238
 30
0.0
 11
6.600303
 21
11.092238
 31
0.0
  0
LINE
  5
6D5
  8
0
 10
6.600303
 20
11.092238
 30
0.0
 11
7.4374
 21
11.092238
 31
0.0
  0
LINE
  5
6D6
  8
0
 10
7.4374
 20
11.092238
 30
0.0
 11
7.569981
 21
11.092238
 31
0.0
  0
LINE
  5
6D7
  8
0
 10
7.569981
 20
11.092238
 30
0.0
 11
7.7374
 21
11.092238
 31
0.0
  0
LINE
  5
6D8
  8
0
 10
7.7374
 20
11.092238
 30
0.0
 11
8.400303
 21
11.092238
 31
0.0
  0
LINE
  5
6D9
  8
0
 10
8.400303
 20
11.092238
 30
0.0
 11
9.2374
 21
11.092238
 31
0.0
  0
LINE
  5
6DA
  8
0
 10
9.2374
 20
11.092238
 30
0.0
 11
9.369981
 21
11.092238
 31
0.0
  0
LINE
  5
6DB
  8
0
 10
9.369981
 20
11.092238
 30
0.0
 11
9.5374
 21
11.092238
 31
0.0
  0
LINE
  5
6DC
  8
0
 10
9.5374
 20
11.092238
 30
0.0
 11
10.200303
 21
11.092238
 31
0.0
  0
LINE
  5
6DD
  8
0
 10
10.200303
 20
11.092238
 30
0.0
 11
11.0374
 21
11.092238
 31
0.0
  0
LINE
  5
6DE
  8
0
 10
11.0374
 20
11.092238
 30
0.0
 11
11.169981
 21
11.092238
 31
0.0
  0
LINE
  5
6DF
  8
0
 10
11.169981
 20
11.092238
 30
0.0
 11
11.3374
 21
11.092238
 31
0.0
  0
LINE
  5
6E0
  8
0
 10
11.3374
 20
11.092238
 30
0.0
 11
12.000303
 21
11.092238
 31
0.0
  0
LINE
  5
6E1
  8
0
 10
12.000303
 20
11.092238
 30
0.0
 11
12.8374
 21
11.092238
 31
0.0
  0
LINE
  5
6E2
  8
0
 10
12.8374
 20
11.092238
 30
0.0
 11
12.969981
 21
11.092238
 31
0.0
  0
LINE
  5
6E3
  8
0
 10
12.969981
 20
11.092238
 30
0.0
 11
13.1374
 21
11.092238
 31
0.0
  0
LINE
  5
6E4
  8
0
 10
13.1374
 20
11.092238
 30
0.0
 11
13.800303
 21
11.092238
 31
0.0
  0
LINE
  5
6E5
  8
0
 10
13.800303
 20
11.092238
 30
0.0
 11
14.493419
 21
11.092238
 31
0.0
  0
LINE
  5
6E6
  8
0
 10
14.493419
 20
11.092238
 30
0.0
 11
14.626
 21
11.092238
 31
0.0
  0
LINE
  5
6E7
  8
0
 10
0.468
 20
11.592238
 30
0.0
 11
0.635419
 21
11.592238
 31
0.0
  0
LINE
  5
6E8
  8
0
 10
0.468
 20
11.592238
 30
0.0
 11
0.635419
 21
11.592238
 31
0.0
  0
LINE
  5
6E9
  8
0
 10
0.635419
 20
11.592238
 30
0.0
 11
1.191374
 21
11.592238
 31
0.0
  0
LINE
  5
6EA
  8
0
 10
1.191374
 20
11.592238
 30
0.0
 11
2.028471
 21
11.592238
 31
0.0
  0
LINE
  5
6EB
  8
0
 10
2.028471
 20
11.592238
 30
0.0
 11
2.161052
 21
11.592238
 31
0.0
  0
LINE
  5
6EC
  8
0
 10
2.161052
 20
11.592238
 30
0.0
 11
2.328471
 21
11.592238
 31
0.0
  0
LINE
  5
6ED
  8
0
 10
2.328471
 20
11.592238
 30
0.0
 11
2.991374
 21
11.592238
 31
0.0
  0
LINE
  5
6EE
  8
0
 10
2.991374
 20
11.592238
 30
0.0
 11
3.828471
 21
11.592238
 31
0.0
  0
LINE
  5
6EF
  8
0
 10
3.828471
 20
11.592238
 30
0.0
 11
3.961052
 21
11.592238
 31
0.0
  0
LINE
  5
6F0
  8
0
 10
3.961052
 20
11.592238
 30
0.0
 11
4.128471
 21
11.592238
 31
0.0
  0
LINE
  5
6F1
  8
0
 10
4.128471
 20
11.592238
 30
0.0
 11
4.791374
 21
11.592238
 31
0.0
  0
LINE
  5
6F2
  8
0
 10
4.791374
 20
11.592238
 30
0.0
 11
5.628471
 21
11.592238
 31
0.0
  0
LINE
  5
6F3
  8
0
 10
5.628471
 20
11.592238
 30
0.0
 11
5.761052
 21
11.592238
 31
0.0
  0
LINE
  5
6F4
  8
0
 10
5.761052
 20
11.592238
 30
0.0
 11
5.928471
 21
11.592238
 31
0.0
  0
LINE
  5
6F5
  8
0
 10
5.928471
 20
11.592238
 30
0.0
 11
6.591374
 21
11.592238
 31
0.0
  0
LINE
  5
6F6
  8
0
 10
6.591374
 20
11.592238
 30
0.0
 11
7.428471
 21
11.592238
 31
0.0
  0
LINE
  5
6F7
  8
0
 10
7.428471
 20
11.592238
 30
0.0
 11
7.561052
 21
11.592238
 31
0.0
  0
LINE
  5
6F8
  8
0
 10
7.561052
 20
11.592238
 30
0.0
 11
7.728471
 21
11.592238
 31
0.0
  0
LINE
  5
6F9
  8
0
 10
7.728471
 20
11.592238
 30
0.0
 11
8.391374
 21
11.592238
 31
0.0
  0
LINE
  5
6FA
  8
0
 10
8.391374
 20
11.592238
 30
0.0
 11
9.228471
 21
11.592238
 31
0.0
  0
LINE
  5
6FB
  8
0
 10
9.228471
 20
11.592238
 30
0.0
 11
9.361052
 21
11.592238
 31
0.0
  0
LINE
  5
6FC
  8
0
 10
9.361052
 20
11.592238
 30
0.0
 11
9.528471
 21
11.592238
 31
0.0
  0
LINE
  5
6FD
  8
0
 10
9.528471
 20
11.592238
 30
0.0
 11
10.191374
 21
11.592238
 31
0.0
  0
LINE
  5
6FE
  8
0
 10
10.191374
 20
11.592238
 30
0.0
 11
11.028471
 21
11.592238
 31
0.0
  0
LINE
  5
6FF
  8
0
 10
11.028471
 20
11.592238
 30
0.0
 11
11.161052
 21
11.592238
 31
0.0
  0
LINE
  5
700
  8
0
 10
11.161052
 20
11.592238
 30
0.0
 11
11.328471
 21
11.592238
 31
0.0
  0
LINE
  5
701
  8
0
 10
11.328471
 20
11.592238
 30
0.0
 11
11.991374
 21
11.592238
 31
0.0
  0
LINE
  5
702
  8
0
 10
11.991374
 20
11.592238
 30
0.0
 11
12.828471
 21
11.592238
 31
0.0
  0
LINE
  5
703
  8
0
 10
12.828471
 20
11.592238
 30
0.0
 11
12.961052
 21
11.592238
 31
0.0
  0
LINE
  5
704
  8
0
 10
12.961052
 20
11.592238
 30
0.0
 11
13.128471
 21
11.592238
 31
0.0
  0
LINE
  5
705
  8
0
 10
13.128471
 20
11.592238
 30
0.0
 11
13.791374
 21
11.592238
 31
0.0
  0
LINE
  5
706
  8
0
 10
13.791374
 20
11.592238
 30
0.0
 11
14.493419
 21
11.592238
 31
0.0
  0
LINE
  5
707
  8
0
 10
14.493419
 20
11.592238
 30
0.0
 11
14.626
 21
11.592238
 31
0.0
  0
LINE
  5
708
  8
0
 10
0.453
 20
12.092238
 30
0.0
 11
0.620419
 21
12.092238
 31
0.0
  0
LINE
  5
709
  8
0
 10
0.453
 20
12.092238
 30
0.0
 11
0.620419
 21
12.092238
 31
0.0
  0
LINE
  5
70A
  8
0
 10
0.620419
 20
12.092238
 30
0.0
 11
1.183003
 21
12.092238
 31
0.0
  0
LINE
  5
70B
  8
0
 10
1.183003
 20
12.092238
 30
0.0
 11
2.0201
 21
12.092238
 31
0.0
  0
LINE
  5
70C
  8
0
 10
2.0201
 20
12.092238
 30
0.0
 11
2.152681
 21
12.092238
 31
0.0
  0
LINE
  5
70D
  8
0
 10
2.152681
 20
12.092238
 30
0.0
 11
2.3201
 21
12.092238
 31
0.0
  0
LINE
  5
70E
  8
0
 10
2.3201
 20
12.092238
 30
0.0
 11
2.983003
 21
12.092238
 31
0.0
  0
LINE
  5
70F
  8
0
 10
2.983003
 20
12.092238
 30
0.0
 11
3.8201
 21
12.092238
 31
0.0
  0
LINE
  5
710
  8
0
 10
3.8201
 20
12.092238
 30
0.0
 11
3.952681
 21
12.092238
 31
0.0
  0
LINE
  5
711
  8
0
 10
3.952681
 20
12.092238
 30
0.0
 11
4.1201
 21
12.092238
 31
0.0
  0
LINE
  5
712
  8
0
 10
4.1201
 20
12.092238
 30
0.0
 11
4.783003
 21
12.092238
 31
0.0
  0
LINE
  5
713
  8
0
 10
4.783003
 20
12.092238
 30
0.0
 11
5.6201
 21
12.092238
 31
0.0
  0
LINE
  5
714
  8
0
 10
5.6201
 20
12.092238
 30
0.0
 11
5.752681
 21
12.092238
 31
0.0
  0
LINE
  5
715
  8
0
 10
5.752681
 20
12.092238
 30
0.0
 11
5.9201
 21
12.092238
 31
0.0
  0
LINE
  5
716
  8
0
 10
5.9201
 20
12.092238
 30
0.0
 11
6.583003
 21
12.092238
 31
0.0
  0
LINE
  5
717
  8
0
 10
6.583003
 20
12.092238
 30
0.0
 11
7.4201
 21
12.092238
 31
0.0
  0
LINE
  5
718
  8
0
 10
7.4201
 20
12.092238
 30
0.0
 11
7.552681
 21
12.092238
 31
0.0
  0
LINE
  5
719
  8
0
 10
7.552681
 20
12.092238
 30
0.0
 11
7.7201
 21
12.092238
 31
0.0
  0
LINE
  5
71A
  8
0
 10
7.7201
 20
12.092238
 30
0.0
 11
8.383003
 21
12.092238
 31
0.0
  0
LINE
  5
71B
  8
0
 10
8.383003
 20
12.092238
 30
0.0
 11
9.2201
 21
12.092238
 31
0.0
  0
LINE
  5
71C
  8
0
 10
9.2201
 20
12.092238
 30
0.0
 11
9.352681
 21
12.092238
 31
0.0
  0
LINE
  5
71D
  8
0
 10
9.352681
 20
12.092238
 30
0.0
 11
9.5201
 21
12.092238
 31
0.0
  0
LINE
  5
71E
  8
0
 10
9.5201
 20
12.092238
 30
0.0
 11
10.183003
 21
12.092238
 31
0.0
  0
LINE
  5
71F
  8
0
 10
10.183003
 20
12.092238
 30
0.0
 11
11.0201
 21
12.092238
 31
0.0
  0
LINE
  5
720
  8
0
 10
11.0201
 20
12.092238
 30
0.0
 11
11.152681
 21
12.092238
 31
0.0
  0
LINE
  5
721
  8
0
 10
11.152681
 20
12.092238
 30
0.0
 11
11.3201
 21
12.092238
 31
0.0
  0
LINE
  5
722
  8
0
 10
11.3201
 20
12.092238
 30
0.0
 11
11.983003
 21
12.092238
 31
0.0
  0
LINE
  5
723
  8
0
 10
11.983003
 20
12.092238
 30
0.0
 11
12.8201
 21
12.092238
 31
0.0
  0
LINE
  5
724
  8
0
 10
12.8201
 20
12.092238
 30
0.0
 11
12.952681
 21
12.092238
 31
0.0
  0
LINE
  5
725
  8
0
 10
12.952681
 20
12.092238
 30
0.0
 11
13.1201
 21
12.092238
 31
0.0
  0
LINE
  5
726
  8
0
 10
13.1201
 20
12.092238
 30
0.0
 11
13.783003
 21
12.092238
 31
0.0
  0
LINE
  5
727
  8
0
 10
13.783003
 20
12.092238
 30
0.0
 11
14.493419
 21
12.092238
 31
0.0
  0
LINE
  5
728
  8
0
 10
14.493419
 20
12.092238
 30
0.0
 11
14.626
 21
12.092238
 31
0.0
  0
LINE
  5
729
  8
0
 10
0.438
 20
12.592238
 30
0.0
 11
0.605419
 21
12.592238
 31
0.0
  0
LINE
  5
72A
  8
0
 10
0.438
 20
12.592238
 30
0.0
 11
0.605419
 21
12.592238
 31
0.0
  0
LINE
  5
72B
  8
0
 10
0.605419
 20
12.592238
 30
0.0
 11
1.174632
 21
12.592238
 31
0.0
  0
LINE
  5
72C
  8
0
 10
1.174632
 20
12.592238
 30
0.0
 11
2.011729
 21
12.592238
 31
0.0
  0
LINE
  5
72D
  8
0
 10
2.011729
 20
12.592238
 30
0.0
 11
2.14431
 21
12.592238
 31
0.0
  0
LINE
  5
72E
  8
0
 10
2.14431
 20
12.592238
 30
0.0
 11
2.311729
 21
12.592238
 31
0.0
  0
LINE
  5
72F
  8
0
 10
2.311729
 20
12.592238
 30
0.0
 11
2.974632
 21
12.592238
 31
0.0
  0
LINE
  5
730
  8
0
 10
2.974632
 20
12.592238
 30
0.0
 11
3.811729
 21
12.592238
 31
0.0
  0
LINE
  5
731
  8
0
 10
3.811729
 20
12.592238
 30
0.0
 11
3.94431
 21
12.592238
 31
0.0
  0
LINE
  5
732
  8
0
 10
3.94431
 20
12.592238
 30
0.0
 11
4.111729
 21
12.592238
 31
0.0
  0
LINE
  5
733
  8
0
 10
4.111729
 20
12.592238
 30
0.0
 11
4.774632
 21
12.592238
 31
0.0
  0
LINE
  5
734
  8
0
 10
4.774632
 20
12.592238
 30
0.0
 11
5.611729
 21
12.592238
 31
0.0
  0
LINE
  5
735
  8
0
 10
5.611729
 20
12.592238
 30
0.0
 11
5.74431
 21
12.592238
 31
0.0
  0
LINE
  5
736
  8
0
 10
5.74431
 20
12.592238
 30
0.0
 11
5.911729
 21
12.592238
 31
0.0
  0
LINE
  5
737
  8
0
 10
5.911729
 20
12.592238
 30
0.0
 11
6.574632
 21
12.592238
 31
0.0
  0
LINE
  5
738
  8
0
 10
6.574632
 20
12.592238
 30
0.0
 11
7.411729
 21
12.592238
 31
0.0
  0
LINE
  5
739
  8
0
 10
7.411729
 20
12.592238
 30
0.0
 11
7.54431
 21
12.592238
 31
0.0
  0
LINE
  5
73A
  8
0
 10
7.54431
 20
12.592238
 30
0.0
 11
7.711729
 21
12.592238
 31
0.0
  0
LINE
  5
73B
  8
0
 10
7.711729
 20
12.592238
 30
0.0
 11
8.374632
 21
12.592238
 31
0.0
  0
LINE
  5
73C
  8
0
 10
8.374632
 20
12.592238
 30
0.0
 11
9.211729
 21
12.592238
 31
0.0
  0
LINE
  5
73D
  8
0
 10
9.211729
 20
12.592238
 30
0.0
 11
9.34431
 21
12.592238
 31
0.0
  0
LINE
  5
73E
  8
0
 10
9.34431
 20
12.592238
 30
0.0
 11
9.511729
 21
12.592238
 31
0.0
  0
LINE
  5
73F
  8
0
 10
9.511729
 20
12.592238
 30
0.0
 11
10.174632
 21
12.592238
 31
0.0
  0
LINE
  5
740
  8
0
 10
10.174632
 20
12.592238
 30
0.0
 11
11.011729
 21
12.592238
 31
0.0
  0
LINE
  5
741
  8
0
 10
11.011729
 20
12.592238
 30
0.0
 11
11.14431
 21
12.592238
 31
0.0
  0
LINE
  5
742
  8
0
 10
11.14431
 20
12.592238
 30
0.0
 11
11.311729
 21
12.592238
 31
0.0
  0
LINE
  5
743
  8
0
 10
11.311729
 20
12.592238
 30
0.0
 11
11.974632
 21
12.592238
 31
0.0
  0
LINE
  5
744
  8
0
 10
11.974632
 20
12.592238
 30
0.0
 11
12.811729
 21
12.592238
 31
0.0
  0
LINE
  5
745
  8
0
 10
12.811729
 20
12.592238
 30
0.0
 11
12.94431
 21
12.592238
 31
0.0
  0
LINE
  5
746
  8
0
 10
12.94431
 20
12.592238
 30
0.0
 11
13.111729
 21
12.592238
 31
0.0
  0
LINE
  5
747
  8
0
 10
13.111729
 20
12.592238
 30
0.0
 11
13.774632
 21
12.592238
 31
0.0
  0
LINE
  5
748
  8
0
 10
13.774632
 20
12.592238
 30
0.0
 11
14.493419
 21
12.592238
 31
0.0
  0
LINE
  5
749
  8
0
 10
14.493419
 20
12.592238
 30
0.0
 11
14.626
 21
12.592238
 31
0.0
  0
LINE
  5
74A
  8
0
 10
0.451
 20
13.092238
 30
0.0
 11
0.618419
 21
13.092238
 31
0.0
  0
LINE
  5
74B
  8
0
 10
0.451
 20
13.092238
 30
0.0
 11
0.618419
 21
13.092238
 31
0.0
  0
LINE
  5
74C
  8
0
 10
0.618419
 20
13.092238
 30
0.0
 11
1.181887
 21
13.092238
 31
0.0
  0
LINE
  5
74D
  8
0
 10
1.181887
 20
13.092238
 30
0.0
 11
2.018984
 21
13.092238
 31
0.0
  0
LINE
  5
74E
  8
0
 10
2.018984
 20
13.092238
 30
0.0
 11
2.151565
 21
13.092238
 31
0.0
  0
LINE
  5
74F
  8
0
 10
2.151565
 20
13.092238
 30
0.0
 11
2.318984
 21
13.092238
 31
0.0
  0
LINE
  5
750
  8
0
 10
2.318984
 20
13.092238
 30
0.0
 11
2.981887
 21
13.092238
 31
0.0
  0
LINE
  5
751
  8
0
 10
2.981887
 20
13.092238
 30
0.0
 11
3.818984
 21
13.092238
 31
0.0
  0
LINE
  5
752
  8
0
 10
3.818984
 20
13.092238
 30
0.0
 11
3.951565
 21
13.092238
 31
0.0
  0
LINE
  5
753
  8
0
 10
3.951565
 20
13.092238
 30
0.0
 11
4.118984
 21
13.092238
 31
0.0
  0
LINE
  5
754
  8
0
 10
4.118984
 20
13.092238
 30
0.0
 11
4.781887
 21
13.092238
 31
0.0
  0
LINE
  5
755
  8
0
 10
4.781887
 20
13.092238
 30
0.0
 11
5.618984
 21
13.092238
 31
0.0
  0
LINE
  5
756
  8
0
 10
5.618984
 20
13.092238
 30
0.0
 11
5.751565
 21
13.092238
 31
0.0
  0
LINE
  5
757
  8
0
 10
5.751565
 20
13.092238
 30
0.0
 11
5.918984
 21
13.092238
 31
0.0
  0
LINE
  5
758
  8
0
 10
5.918984
 20
13.092238
 30
0.0
 11
6.581887
 21
13.092238
 31
0.0
  0
LINE
  5
759
  8
0
 10
6.581887
 20
13.092238
 30
0.0
 11
7.418984
 21
13.092238
 31
0.0
  0
LINE
  5
75A
  8
0
 10
7.418984
 20
13.092238
 30
0.0
 11
7.551565
 21
13.092238
 31
0.0
  0
LINE
  5
75B
  8
0
 10
7.551565
 20
13.092238
 30
0.0
 11
7.718984
 21
13.092238
 31
0.0
  0
LINE
  5
75C
  8
0
 10
7.718984
 20
13.092238
 30
0.0
 11
8.381887
 21
13.092238
 31
0.0
  0
LINE
  5
75D
  8
0
 10
8.381887
 20
13.092238
 30
0.0
 11
9.218984
 21
13.092238
 31
0.0
  0
LINE
  5
75E
  8
0
 10
9.218984
 20
13.092238
 30
0.0
 11
9.351565
 21
13.092238
 31
0.0
  0
LINE
  5
75F
  8
0
 10
9.351565
 20
13.092238
 30
0.0
 11
9.518984
 21
13.092238
 31
0.0
  0
LINE
  5
760
  8
0
 10
9.518984
 20
13.092238
 30
0.0
 11
10.181887
 21
13.092238
 31
0.0
  0
LINE
  5
761
  8
0
 10
10.181887
 20
13.092238
 30
0.0
 11
11.018984
 21
13.092238
 31
0.0
  0
LINE
  5
762
  8
0
 10
11.018984
 20
13.092238
 30
0.0
 11
11.151565
 21
13.092238
 31
0.0
  0
LINE
  5
763
  8
0
 10
11.151565
 20
13.092238
 30
0.0
 11
11.318984
 21
13.092238
 31
0.0
  0
LINE
  5
764
  8
0
 10
11.318984
 20
13.092238
 30
0.0
 11
11.981887
 21
13.092238
 31
0.0
  0
LINE
  5
765
  8
0
 10
11.981887
 20
13.092238
 30
0.0
 11
12.818984
 21
13.092238
 31
0.0
  0
LINE
  5
766
  8
0
 10
12.818984
 20
13.092238
 30
0.0
 11
12.951565
 21
13.092238
 31
0.0
  0
LINE
  5
767
  8
0
 10
12.951565
 20
13.092238
 30
0.0
 11
13.118984
 21
13.092238
 31
0.0
  0
LINE
  5
768
  8
0
 10
13.118984
 20
13.092238
 30
0.0
 11
13.781887
 21
13.092238
 31
0.0
  0
LINE
  5
769
  8
0
 10
13.781887
 20
13.092238
 30
0.0
 11
14.493419
 21
13.092238
 31
0.0
  0
LINE
  5
76A
  8
0
 10
14.493419
 20
13.092238
 30
0.0
 11
14.626
 21
13.092238
 31
0.0
  0
LINE
  5
76B
  8
0
 10
0.511
 20
13.592238
 30
0.0
 11
0.678419
 21
13.592238
 31
0.0
  0
LINE
  5
76C
  8
0
 10
0.511
 20
13.592238
 30
0.0
 11
0.678419
 21
13.592238
 31
0.0
  0
LINE
  5
76D
  8
0
 10
0.678419
 20
13.592238
 30
0.0
 11
1.215371
 21
13.592238
 31
0.0
  0
LINE
  5
76E
  8
0
 10
1.215371
 20
13.592238
 30
0.0
 11
2.052468
 21
13.592238
 31
0.0
  0
LINE
  5
76F
  8
0
 10
2.052468
 20
13.592238
 30
0.0
 11
2.185048
 21
13.592238
 31
0.0
  0
LINE
  5
770
  8
0
 10
2.185048
 20
13.592238
 30
0.0
 11
2.352468
 21
13.592238
 31
0.0
  0
LINE
  5
771
  8
0
 10
2.352468
 20
13.592238
 30
0.0
 11
3.015371
 21
13.592238
 31
0.0
  0
LINE
  5
772
  8
0
 10
3.015371
 20
13.592238
 30
0.0
 11
3.852468
 21
13.592238
 31
0.0
  0
LINE
  5
773
  8
0
 10
3.852468
 20
13.592238
 30
0.0
 11
3.985048
 21
13.592238
 31
0.0
  0
LINE
  5
774
  8
0
 10
3.985048
 20
13.592238
 30
0.0
 11
4.152468
 21
13.592238
 31
0.0
  0
LINE
  5
775
  8
0
 10
4.152468
 20
13.592238
 30
0.0
 11
4.815371
 21
13.592238
 31
0.0
  0
LINE
  5
776
  8
0
 10
4.815371
 20
13.592238
 30
0.0
 11
5.652468
 21
13.592238
 31
0.0
  0
LINE
  5
777
  8
0
 10
5.652468
 20
13.592238
 30
0.0
 11
5.785048
 21
13.592238
 31
0.0
  0
LINE
  5
778
  8
0
 10
5.785048
 20
13.592238
 30
0.0
 11
5.952468
 21
13.592238
 31
0.0
  0
LINE
  5
779
  8
0
 10
5.952468
 20
13.592238
 30
0.0
 11
6.615371
 21
13.592238
 31
0.0
  0
LINE
  5
77A
  8
0
 10
6.615371
 20
13.592238
 30
0.0
 11
7.452468
 21
13.592238
 31
0.0
  0
LINE
  5
77B
  8
0
 10
7.452468
 20
13.592238
 30
0.0
 11
7.585048
 21
13.592238
 31
0.0
  0
LINE
  5
77C
  8
0
 10
7.585048
 20
13.592238
 30
0.0
 11
7.752468
 21
13.592238
 31
0.0
  0
LINE
  5
77D
  8
0
 10
7.752468
 20
13.592238
 30
0.0
 11
8.415371
 21
13.592238
 31
0.0
  0
LINE
  5
77E
  8
0
 10
8.415371
 20
13.592238
 30
0.0
 11
9.252468
 21
13.592238
 31
0.0
  0
LINE
  5
77F
  8
0
 10
9.252468
 20
13.592238
 30
0.0
 11
9.385048
 21
13.592238
 31
0.0
  0
LINE
  5
780
  8
0
 10
9.385048
 20
13.592238
 30
0.0
 11
9.552468
 21
13.592238
 31
0.0
  0
LINE
  5
781
  8
0
 10
9.552468
 20
13.592238
 30
0.0
 11
10.215371
 21
13.592238
 31
0.0
  0
LINE
  5
782
  8
0
 10
10.215371
 20
13.592238
 30
0.0
 11
11.052468
 21
13.592238
 31
0.0
  0
LINE
  5
783
  8
0
 10
11.052468
 20
13.592238
 30
0.0
 11
11.185048
 21
13.592238
 31
0.0
  0
LINE
  5
784
  8
0
 10
11.185048
 20
13.592238
 30
0.0
 11
11.352468
 21
13.592238
 31
0.0
  0
LINE
  5
785
  8
0
 10
11.352468
 20
13.592238
 30
0.0
 11
12.015371
 21
13.592238
 31
0.0
  0
LINE
  5
786
  8
0
 10
12.015371
 20
13.592238
 30
0.0
 11
12.852468
 21
13.592238
 31
0.0
  0
LINE
  5
787
  8
0
 10
12.852468
 20
13.592238
 30
0.0
 11
12.985048
 21
13.592238
 31
0.0
  0
LINE
  5
788
  8
0
 10
12.985048
 20
13.592238
 30
0.0
 11
13.152468
 21
13.592238
 31
0.0
  0
LINE
  5
789
  8
0
 10
13.152468
 20
13.592238
 30
0.0
 11
13.815371
 21
13.592238
 31
0.0
  0
LINE
  5
78A
  8
0
 10
13.815371
 20
13.592238
 30
0.0
 11
14.493419
 21
13.592238
 31
0.0
  0
LINE
  5
78B
  8
0
 10
14.493419
 20
13.592238
 30
0.0
 11
14.626
 21
13.592238
 31
0.0
  0
LINE
  5
78C
  8
0
 10
0.654
 20
14.092238
 30
0.0
 11
0.821419
 21
14.092238
 31
0.0
  0
LINE
  5
78D
  8
0
 10
0.654
 20
14.092238
 30
0.0
 11
0.821419
 21
14.092238
 31
0.0
  0
LINE
  5
78E
  8
0
 10
0.821419
 20
14.092238
 30
0.0
 11
1.295174
 21
14.092238
 31
0.0
  0
LINE
  5
78F
  8
0
 10
1.295174
 20
14.092238
 30
0.0
 11
2.132271
 21
14.092238
 31
0.0
  0
LINE
  5
790
  8
0
 10
2.132271
 20
14.092238
 30
0.0
 11
2.264852
 21
14.092238
 31
0.0
  0
LINE
  5
791
  8
0
 10
2.264852
 20
14.092238
 30
0.0
 11
2.432271
 21
14.092238
 31
0.0
  0
LINE
  5
792
  8
0
 10
2.432271
 20
14.092238
 30
0.0
 11
3.095174
 21
14.092238
 31
0.0
  0
LINE
  5
793
  8
0
 10
3.095174
 20
14.092238
 30
0.0
 11
3.932271
 21
14.092238
 31
0.0
  0
LINE
  5
794
  8
0
 10
3.932271
 20
14.092238
 30
0.0
 11
4.064852
 21
14.092238
 31
0.0
  0
LINE
  5
795
  8
0
 10
4.064852
 20
14.092238
 30
0.0
 11
4.232271
 21
14.092238
 31
0.0
  0
LINE
  5
796
  8
0
 10
4.232271
 20
14.092238
 30
0.0
 11
4.895174
 21
14.092238
 31
0.0
  0
LINE
  5
797
  8
0
 10
4.895174
 20
14.092238
 30
0.0
 11
5.732271
 21
14.092238
 31
0.0
  0
LINE
  5
798
  8
0
 10
5.732271
 20
14.092238
 30
0.0
 11
5.864852
 21
14.092238
 31
0.0
  0
LINE
  5
799
  8
0
 10
5.864852
 20
14.092238
 30
0.0
 11
6.032271
 21
14.092238
 31
0.0
  0
LINE
  5
79A
  8
0
 10
6.032271
 20
14.092238
 30
0.0
 11
6.695174
 21
14.092238
 31
0.0
  0
LINE
  5
79B
  8
0
 10
6.695174
 20
14.092238
 30
0.0
 11
7.532271
 21
14.092238
 31
0.0
  0
LINE
  5
79C
  8
0
 10
7.532271
 20
14.092238
 30
0.0
 11
7.664852
 21
14.092238
 31
0.0
  0
LINE
  5
79D
  8
0
 10
7.664852
 20
14.092238
 30
0.0
 11
7.832271
 21
14.092238
 31
0.0
  0
LINE
  5
79E
  8
0
 10
7.832271
 20
14.092238
 30
0.0
 11
8.495174
 21
14.092238
 31
0.0
  0
LINE
  5
79F
  8
0
 10
8.495174
 20
14.092238
 30
0.0
 11
9.332271
 21
14.092238
 31
0.0
  0
LINE
  5
7A0
  8
0
 10
9.332271
 20
14.092238
 30
0.0
 11
9.464852
 21
14.092238
 31
0.0
  0
LINE
  5
7A1
  8
0
 10
9.464852
 20
14.092238
 30
0.0
 11
9.632271
 21
14.092238
 31
0.0
  0
LINE
  5
7A2
  8
0
 10
9.632271
 20
14.092238
 30
0.0
 11
10.295174
 21
14.092238
 31
0.0
  0
LINE
  5
7A3
  8
0
 10
10.295174
 20
14.092238
 30
0.0
 11
11.132271
 21
14.092238
 31
0.0
  0
LINE
  5
7A4
  8
0
 10
11.132271
 20
14.092238
 30
0.0
 11
11.264852
 21
14.092238
 31
0.0
  0
LINE
  5
7A5
  8
0
 10
11.264852
 20
14.092238
 30
0.0
 11
11.432271
 21
14.092238
 31
0.0
  0
LINE
  5
7A6
  8
0
 10
11.432271
 20
14.092238
 30
0.0
 11
12.095174
 21
14.092238
 31
0.0
  0
LINE
  5
7A7
  8
0
 10
12.095174
 20
14.092238
 30
0.0
 11
12.932271
 21
14.092238
 31
0.0
  0
LINE
  5
7A8
  8
0
 10
12.932271
 20
14.092238
 30
0.0
 11
13.064852
 21
14.092238
 31
0.0
  0
LINE
  5
7A9
  8
0
 10
13.064852
 20
14.092238
 30
0.0
 11
13.232271
 21
14.092238
 31
0.0
  0
LINE
  5
7AA
  8
0
 10
13.232271
 20
14.092238
 30
0.0
 11
13.895174
 21
14.092238
 31
0.0
  0
LINE
  5
7AB
  8
0
 10
13.895174
 20
14.092238
 30
0.0
 11
14.493419
 21
14.092238
 31
0.0
  0
LINE
  5
7AC
  8
0
 10
14.493419
 20
14.092238
 30
0.0
 11
14.626
 21
14.092238
 31
0.0
  0
LINE
  5
7AD
  8
0
 10
1.221
 20
14.592238
 30
0.0
 11
1.388419
 21
14.592238
 31
0.0
  0
LINE
  5
7AE
  8
0
 10
1.221
 20
14.592238
 30
0.0
 11
1.388419
 21
14.592238
 31
0.0
  0
LINE
  5
7AF
  8
0
 10
1.388419
 20
14.592238
 30
0.0
 11
1.611597
 21
14.592238
 31
0.0
  0
LINE
  5
7B0
  8
0
 10
1.611597
 20
14.592238
 30
0.0
 11
1.744177
 21
14.592238
 31
0.0
  0
LINE
  5
7B1
  8
0
 10
1.744177
 20
14.592238
 30
0.0
 11
2.581274
 21
14.592238
 31
0.0
  0
LINE
  5
7B2
  8
0
 10
2.581274
 20
14.592238
 30
0.0
 11
3.244177
 21
14.592238
 31
0.0
  0
LINE
  5
7B3
  8
0
 10
3.244177
 20
14.592238
 30
0.0
 11
3.411597
 21
14.592238
 31
0.0
  0
LINE
  5
7B4
  8
0
 10
3.411597
 20
14.592238
 30
0.0
 11
3.544177
 21
14.592238
 31
0.0
  0
LINE
  5
7B5
  8
0
 10
3.544177
 20
14.592238
 30
0.0
 11
4.381274
 21
14.592238
 31
0.0
  0
LINE
  5
7B6
  8
0
 10
4.381274
 20
14.592238
 30
0.0
 11
5.044177
 21
14.592238
 31
0.0
  0
LINE
  5
7B7
  8
0
 10
5.044177
 20
14.592238
 30
0.0
 11
5.211597
 21
14.592238
 31
0.0
  0
LINE
  5
7B8
  8
0
 10
5.211597
 20
14.592238
 30
0.0
 11
5.344177
 21
14.592238
 31
0.0
  0
LINE
  5
7B9
  8
0
 10
5.344177
 20
14.592238
 30
0.0
 11
5.817416
 21
14.592238
 31
0.0
  0
LINE
  5
7BA
  8
0
 10
5.817416
 20
14.592238
 30
0.0
 11
5.984835
 21
14.592238
 31
0.0
  0
LINE
  5
7BB
  8
0
 10
5.984835
 20
14.592238
 30
0.0
 11
6.647739
 21
14.592238
 31
0.0
  0
LINE
  5
7BC
  8
0
 10
6.647739
 20
14.592238
 30
0.0
 11
7.484835
 21
14.592238
 31
0.0
  0
LINE
  5
7BD
  8
0
 10
7.484835
 20
14.592238
 30
0.0
 11
7.617416
 21
14.592238
 31
0.0
  0
LINE
  5
7BE
  8
0
 10
7.617416
 20
14.592238
 30
0.0
 11
7.784835
 21
14.592238
 31
0.0
  0
LINE
  5
7BF
  8
0
 10
7.784835
 20
14.592238
 30
0.0
 11
8.447739
 21
14.592238
 31
0.0
  0
LINE
  5
7C0
  8
0
 10
8.447739
 20
14.592238
 30
0.0
 11
9.284835
 21
14.592238
 31
0.0
  0
LINE
  5
7C1
  8
0
 10
9.284835
 20
14.592238
 30
0.0
 11
9.417416
 21
14.592238
 31
0.0
  0
LINE
  5
7C2
  8
0
 10
9.417416
 20
14.592238
 30
0.0
 11
9.584835
 21
14.592238
 31
0.0
  0
LINE
  5
7C3
  8
0
 10
9.584835
 20
14.592238
 30
0.0
 11
10.247739
 21
14.592238
 31
0.0
  0
LINE
  5
7C4
  8
0
 10
10.247739
 20
14.592238
 30
0.0
 11
11.084835
 21
14.592238
 31
0.0
  0
LINE
  5
7C5
  8
0
 10
11.084835
 20
14.592238
 30
0.0
 11
11.217416
 21
14.592238
 31
0.0
  0
LINE
  5
7C6
  8
0
 10
11.217416
 20
14.592238
 30
0.0
 11
11.384835
 21
14.592238
 31
0.0
  0
LINE
  5
7C7
  8
0
 10
11.384835
 20
14.592238
 30
0.0
 11
12.047739
 21
14.592238
 31
0.0
  0
LINE
  5
7C8
  8
0
 10
12.047739
 20
14.592238
 30
0.0
 11
12.884835
 21
14.592238
 31
0.0
  0
LINE
  5
7C9
  8
0
 10
12.884835
 20
14.592238
 30
0.0
 11
13.017416
 21
14.592238
 31
0.0
  0
LINE
  5
7CA
  8
0
 10
13.017416
 20
14.592238
 30
0.0
 11
13.184835
 21
14.592238
 31
0.0
  0
LINE
  5
7CB
  8
0
 10
13.184835
 20
14.592238
 30
0.0
 11
13.847739
 21
14.592238
 31
0.0
  0
LINE
  5
7CC
  8
0
 10
13.847739
 20
14.592238
 30
0.0
 11
14.493419
 21
14.592238
 31
0.0
  0
LINE
  5
7CD
  8
0
 10
14.493419
 20
14.592238
 30
0.0
 11
14.626
 21
14.592238
 31
0.0
  0
ENDSEC
  0
EOF
