  0
SECTION
  2
HEADER
  9
$ACADVER
  1
AC1009
  9
$DWGCODEPAGE
  3
ANSI_1252
  9
$INSBASE
 10
0.0
 20
0.0
 30
0.0
  9
$EXTMIN
 10
1e+20
 20
1e+20
 30
1e+20
  9
$EXTMAX
 10
-1e+20
 20
-1e+20
 30
-1e+20
  9
$LIMMIN
 10
0.0
 20
0.0
  9
$LIMMAX
 10
420.0
 20
297.0
  9
$ORTHOMODE
 70
0
  9
$REGENMODE
 70
1
  9
$FILLMODE
 70
1
  9
$DRAGMODE
 70
2
  9
$QTEXTMODE
 70
0
  9
$MIRRTEXT
 70
1
  9
$OSMODE
 70
20583
  9
$LTSCALE
 40
1.0
  9
$ATTMODE
 70
1
  9
$TEXTSIZE
 40
2.5
  9
$TRACEWID
 40
1.0
  9
$TEXTSTYLE
  7
Standard
  9
$CLAYER
  8
0
  9
$CELTYPE
  6
ByLayer
  9
$CECOLOR
 62
256
  9
$DIMSCALE
 40
1.0
  9
$DIMASZ
 40
2.5
  9
$DIMEXO
 40
0.625
  9
$DIMDLI
 40
3.75
  9
$DIMRND
 40
0.0
  9
$DIMDLE
 40
0.0
  9
$DIMEXE
 40
1.25
  9
$DIMTP
 40
0.0
  9
$DIMTM
 40
0.0
  9
$DIMTXT
 40
2.5
  9
$DIMCEN
 40
2.5
  9
$DIMTSZ
 40
0.0
  9
$DIMTOL
 70
0
  9
$DIMLIM
 70
0
  9
$DIMTIH
 70
0
  9
$DIMTOH
 70
0
  9
$DIMSE1
 70
0
  9
$DIMSE2
 70
0
  9
$DIMTAD
 70
1
  9
$DIMZIN
 70
8
  9
$DIMBLK
  1

  9
$DIMASO
 70
1
  9
$DIMSHO
 70
1
  9
$DIMPOST
  1

  9
$DIMAPOST
  1

  9
$DIMALT
 70
0
  9
$DIMALTD
 70
3
  9
$DIMALTF
 40
0.03937007874
  9
$DIMLFAC
 40
1.0
  9
$DIMTOFL
 70
1
  9
$DIMTVP
 40
0.0
  9
$DIMTIX
 70
0
  9
$DIMSOXD
 70
0
  9
$DIMSAH
 70
0
  9
$DIMBLK1
  1

  9
$DIMBLK2
  1

  9
$DIMSTYLE
  2
ISO-25
  9
$DIMCLRD
 70
0
  9
$DIMCLRE
 70
0
  9
$DIMCLRT
 70
0
  9
$DIMTFAC
 40
1.0
  9
$DIMGAP
 40
0.625
  9
$COORDS
 70
1
  9
$ATTDIA
 70
0
  9
$ATTREQ
 70
1
  9
$HANDLING
 70
1
  9
$LUNITS
 70
2
  9
$LUPREC
 70
4
  9
$SKETCHINC
 40
1.0
  9
$FILLETRAD
 40
10.0
  9
$AUNITS
 70
0
  9
$AUPREC
 70
2
  9
$MENU
  1
.
  9
$ELEVATION
 40
0.0
  9
$PELEVATION
 40
0.0
  9
$THICKNESS
 40
0.0
  9
$LIMCHECK
 70
0
  9
$CHAMFERA
 40
0.0
  9
$CHAMFERB
 40
0.0
  9
$SKPOLY
 70
0
  9
$TDCREATE
 40
2460888.395439815
  9
$TDUPDATE
 40
2460888.395439815
  9
$TDINDWG
 40
0.0
  9
$TDUSRTIMER
 40
0.0
  9
$USRTIMER
 70
1
  9
$ANGBASE
 50
0.0
  9
$ANGDIR
 70
0
  9
$PDMODE
 70
0
  9
$PDSIZE
 40
0.0
  9
$PLINEWID
 40
0.0
  9
$SPLFRAME
 70
0
  9
$SPLINETYPE
 70
6
  9
$SPLINESEGS
 70
8
  9
$HANDSEED
  5
13A
  9
$SURFTAB1
 70
6
  9
$SURFTAB2
 70
6
  9
$SURFTYPE
 70
6
  9
$SURFU
 70
6
  9
$SURFV
 70
6
  9
$UCSNAME
  2

  9
$UCSORG
 10
0.0
 20
0.0
 30
0.0
  9
$UCSXDIR
 10
1.0
 20
0.0
 30
0.0
  9
$UCSYDIR
 10
0.0
 20
1.0
 30
0.0
  9
$PUCSNAME
  2

  9
$PUCSORG
 10
0.0
 20
0.0
 30
0.0
  9
$PUCSXDIR
 10
1.0
 20
0.0
 30
0.0
  9
$PUCSYDIR
 10
0.0
 20
1.0
 30
0.0
  9
$USERI1
 70
0
  9
$USERI2
 70
0
  9
$USERI3
 70
0
  9
$USERI4
 70
0
  9
$USERI5
 70
0
  9
$USERR1
 40
0.0
  9
$USERR2
 40
0.0
  9
$USERR3
 40
0.0
  9
$USERR4
 40
0.0
  9
$USERR5
 40
0.0
  9
$WORLDVIEW
 70
1
  9
$SHADEDGE
 70
3
  9
$SHADEDIF
 70
70
  9
$TILEMODE
 70
1
  9
$MAXACTVP
 70
64
  9
$PLIMCHECK
 70
0
  9
$PEXTMIN
 10
1e+20
 20
1e+20
 30
1e+20
  9
$PEXTMAX
 10
-1e+20
 20
-1e+20
 30
-1e+20
  9
$PLIMMIN
 10
0.0
 20
0.0
  9
$PLIMMAX
 10
420.0
 20
297.0
  9
$UNITMODE
 70
0
  9
$VISRETAIN
 70
1
  9
$PLINEGEN
 70
0
  9
$PSLTSCALE
 70
1
  0
ENDSEC
  0
SECTION
  2
TABLES
  0
TABLE
  2
VPORT
 70
1
  0
VPORT
  5
23
  2
*Active
 70
0
 10
0.0
 20
0.0
 11
1.0
 21
1.0
 12
0.0
 22
0.0
 13
0.0
 23
0.0
 14
0.5
 24
0.5
 15
0.5
 25
0.5
 16
0.0
 26
0.0
 36
1.0
 17
0.0
 27
0.0
 37
0.0
 40
1000.0
 41
1.34
 42
50.0
 43
0.0
 44
0.0
 50
0.0
 51
0.0
 71
0
 72
1000
 73
1
 74
3
 75
0
 76
0
 77
0
 78
0
  0
ENDTAB
  0
TABLE
  2
LTYPE
 70
3
  0
LTYPE
  5
24
  2
ByBlock
 70
0
  3

 72
65
 73
0
 40
0.0
  0
LTYPE
  5
25
  2
ByLayer
 70
0
  3

 72
65
 73
0
 40
0.0
  0
LTYPE
  5
26
  2
Continuous
 70
0
  3

 72
65
 73
0
 40
0.0
  0
ENDTAB
  0
TABLE
  2
LAYER
 70
2
  0
LAYER
  5
27
  2
0
 70
0
 62
7
  6
Continuous
  0
LAYER
  5
28
  2
Defpoints
 70
0
 62
7
  6
Continuous
  0
ENDTAB
  0
TABLE
  2
STYLE
 70
1
  0
STYLE
  5
29
  2
Standard
 70
0
 40
0.0
 41
1.0
 50
0.0
 71
0
 42
2.5
  3
txt
  4

  0
ENDTAB
  0
TABLE
  2
VIEW
 70
0
  0
ENDTAB
  0
TABLE
  2
UCS
 70
0
  0
ENDTAB
  0
TABLE
  2
APPID
 70
3
  0
APPID
  5
2A
  2
ACAD
 70
0
  0
APPID
  5
138
  2
HATCHBACKGROUNDCOLOR
 70
0
  0
APPID
  5
139
  2
EZDXF
 70
0
  0
ENDTAB
  0
TABLE
  2
DIMSTYLE
 70
1
  0
DIMSTYLE
105
2B
  2
Standard
 70
0
  3

  4

  5

  6

  7

 40
1.0
 41
2.5
 42
0.625
 43
3.75
 44
1.25
 45
0.0
 46
0.0
 47
0.0
 48
0.0
140
2.5
141
2.5
142
0.0
143
0.03937007874
144
1.0
145
0.0
146
1.0
147
0.625
 71
0
 72
0
 73
0
 74
0
 75
0
 76
0
 77
1
 78
8
170
0
171
3
172
1
173
0
174
0
175
0
176
0
177
0
178
0
  0
ENDTAB
  0
ENDSEC
  0
SECTION
  2
BLOCKS
  0
BLOCK
  5
18
  8
0
  2
$Model_Space
 70
0
 10
0.0
 20
0.0
 30
0.0
  3
$Model_Space
  1

1001
EZDXF
1000
CREATED_BY_EZDXF
1000
1.4.2 @ 2025-07-31T12:29:26.384658+00:00
1000
WRITTEN_BY_EZDXF
1000
1.4.2 @ 2025-07-31T12:29:26.400282+00:00
  0
ENDBLK
  5
19
  8
0
  0
BLOCK
  5
1C
  8
0
  2
$Paper_Space
 70
0
 10
0.0
 20
0.0
 30
0.0
  3
$Paper_Space
  1

  0
ENDBLK
  5
1D
  8
0
  0
ENDSEC
  0
SECTION
  2
ENTITIES
  0
LINE
  5
2D
  8
0
 10
14.941
 20
0.059
 30
0.0
 11
0.059
 21
0.059
 31
0.0
  0
LINE
  5
2E
  8
0
 10
0.059
 20
0.059
 30
0.0
 11
0.059
 21
14.941
 31
0.0
  0
LINE
  5
2F
  8
0
 10
0.059
 20
14.941
 30
0.0
 11
14.941
 21
14.941
 31
0.0
  0
LINE
  5
30
  8
0
 10
14.941
 20
14.941
 30
0.0
 11
14.941
 21
0.059
 31
0.0
  0
LINE
  5
31
  8
0
 10
14.941
 20
0.059
 30
0.0
 11
14.941
 21
0.059
 31
0.0
  0
LINE
  5
32
  8
0
 10
14.861
 20
0.139
 30
0.0
 11
0.139
 21
0.139
 31
0.0
  0
LINE
  5
33
  8
0
 10
0.139
 20
0.139
 30
0.0
 11
0.139
 21
14.861
 31
0.0
  0
LINE
  5
34
  8
0
 10
0.139
 20
14.861
 30
0.0
 11
14.861
 21
14.861
 31
0.0
  0
LINE
  5
35
  8
0
 10
14.861
 20
14.861
 30
0.0
 11
14.861
 21
0.139
 31
0.0
  0
LINE
  5
36
  8
0
 10
14.861
 20
0.139
 30
0.0
 11
14.861
 21
0.139
 31
0.0
  0
LINE
  5
37
  8
0
 10
14.781
 20
0.219
 30
0.0
 11
0.219
 21
0.219
 31
0.0
  0
LINE
  5
38
  8
0
 10
0.219
 20
0.219
 30
0.0
 11
0.219
 21
14.781
 31
0.0
  0
LINE
  5
39
  8
0
 10
0.219
 20
14.781
 30
0.0
 11
14.781
 21
14.781
 31
0.0
  0
LINE
  5
3A
  8
0
 10
14.781
 20
14.781
 30
0.0
 11
14.781
 21
0.219
 31
0.0
  0
LINE
  5
3B
  8
0
 10
14.781
 20
0.219
 30
0.0
 11
14.781
 21
0.219
 31
0.0
  0
LINE
  5
3C
  8
0
 10
0.4078
 20
0.299
 30
0.0
 11
0.299
 21
0.38158
 31
0.0
  0
LINE
  5
3D
  8
0
 10
0.299
 20
0.48201
 30
0.0
 11
0.54011
 21
0.299
 31
0.0
  0
LINE
  5
3E
  8
0
 10
0.67243
 20
0.299
 30
0.0
 11
0.299
 21
0.58245
 31
0.0
  0
LINE
  5
3F
  8
0
 10
0.299
 20
0.68288
 30
0.0
 11
0.80475
 21
0.299
 31
0.0
  0
LINE
  5
40
  8
0
 10
0.93707
 20
0.299
 30
0.0
 11
0.299
 21
0.78332
 31
0.0
  0
LINE
  5
41
  8
0
 10
0.299
 20
0.88375
 30
0.0
 11
1.06939
 21
0.299
 31
0.0
  0
LINE
  5
42
  8
0
 10
1.20171
 20
0.299
 30
0.0
 11
0.299
 21
0.98419
 31
0.0
  0
LINE
  5
43
  8
0
 10
0.299
 20
1.08463
 30
0.0
 11
1.33403
 21
0.299
 31
0.0
  0
LINE
  5
44
  8
0
 10
1.46635
 20
0.299
 30
0.0
 11
0.299
 21
1.18506
 31
0.0
  0
LINE
  5
45
  8
0
 10
0.299
 20
1.2855
 30
0.0
 11
1.59867
 21
0.299
 31
0.0
  0
LINE
  5
46
  8
0
 10
1.73098
 20
0.299
 30
0.0
 11
0.299
 21
1.38593
 31
0.0
  0
LINE
  5
47
  8
0
 10
0.299
 20
1.48636
 30
0.0
 11
1.8633
 21
0.299
 31
0.0
  0
LINE
  5
48
  8
0
 10
1.99563
 20
0.299
 30
0.0
 11
0.299
 21
1.5868
 31
0.0
  0
LINE
  5
49
  8
0
 10
0.299
 20
1.68724
 30
0.0
 11
2.12794
 21
0.299
 31
0.0
  0
LINE
  5
4A
  8
0
 10
2.26026
 20
0.299
 30
0.0
 11
0.299
 21
1.78768
 31
0.0
  0
LINE
  5
4B
  8
0
 10
0.299
 20
1.88811
 30
0.0
 11
2.39258
 21
0.299
 31
0.0
  0
LINE
  5
4C
  8
0
 10
2.5249
 20
0.299
 30
0.0
 11
0.299
 21
1.98855
 31
0.0
  0
LINE
  5
4D
  8
0
 10
0.299
 20
2.08898
 30
0.0
 11
2.65722
 21
0.299
 31
0.0
  0
LINE
  5
4E
  8
0
 10
2.78954
 20
0.299
 30
0.0
 11
0.299
 21
2.18942
 31
0.0
  0
LINE
  5
4F
  8
0
 10
0.299
 20
2.28985
 30
0.0
 11
2.92186
 21
0.299
 31
0.0
  0
LINE
  5
50
  8
0
 10
3.05418
 20
0.299
 30
0.0
 11
0.299
 21
2.39029
 31
0.0
  0
LINE
  5
51
  8
0
 10
0.299
 20
2.49072
 30
0.0
 11
3.18649
 21
0.299
 31
0.0
  0
LINE
  5
52
  8
0
 10
3.31881
 20
0.299
 30
0.0
 11
0.299
 21
2.59116
 31
0.0
  0
LINE
  5
53
  8
0
 10
0.299
 20
2.69159
 30
0.0
 11
3.45113
 21
0.299
 31
0.0
  0
LINE
  5
54
  8
0
 10
3.58345
 20
0.299
 30
0.0
 11
0.299
 21
2.79202
 31
0.0
  0
LINE
  5
55
  8
0
 10
0.299
 20
2.89246
 30
0.0
 11
3.71577
 21
0.299
 31
0.0
  0
LINE
  5
56
  8
0
 10
3.84809
 20
0.299
 30
0.0
 11
0.299
 21
2.9929
 31
0.0
  0
LINE
  5
57
  8
0
 10
0.299
 20
3.09334
 30
0.0
 11
3.98041
 21
0.299
 31
0.0
  0
LINE
  5
58
  8
0
 10
4.11273
 20
0.299
 30
0.0
 11
0.299
 21
3.19377
 31
0.0
  0
LINE
  5
59
  8
0
 10
0.299
 20
3.29421
 30
0.0
 11
4.24504
 21
0.299
 31
0.0
  0
LINE
  5
5A
  8
0
 10
4.37736
 20
0.299
 30
0.0
 11
0.299
 21
3.39464
 31
0.0
  0
LINE
  5
5B
  8
0
 10
0.299
 20
3.49508
 30
0.0
 11
4.50969
 21
0.299
 31
0.0
  0
LINE
  5
5C
  8
0
 10
4.642
 20
0.299
 30
0.0
 11
0.299
 21
3.59551
 31
0.0
  0
LINE
  5
5D
  8
0
 10
0.299
 20
3.69595
 30
0.0
 11
4.77432
 21
0.299
 31
0.0
  0
LINE
  5
5E
  8
0
 10
4.90664
 20
0.299
 30
0.0
 11
0.299
 21
3.79638
 31
0.0
  0
LINE
  5
5F
  8
0
 10
0.299
 20
3.89682
 30
0.0
 11
5.03896
 21
0.299
 31
0.0
  0
LINE
  5
60
  8
0
 10
5.17128
 20
0.299
 30
0.0
 11
0.299
 21
3.99726
 31
0.0
  0
LINE
  5
61
  8
0
 10
0.299
 20
4.0977
 30
0.0
 11
5.3036
 21
0.299
 31
0.0
  0
LINE
  5
62
  8
0
 10
5.43591
 20
0.299
 30
0.0
 11
0.299
 21
4.19812
 31
0.0
  0
LINE
  5
63
  8
0
 10
0.299
 20
4.29856
 30
0.0
 11
5.56824
 21
0.299
 31
0.0
  0
LINE
  5
64
  8
0
 10
5.70056
 20
0.299
 30
0.0
 11
0.299
 21
4.399
 31
0.0
  0
LINE
  5
65
  8
0
 10
0.299
 20
4.49943
 30
0.0
 11
5.83287
 21
0.299
 31
0.0
  0
LINE
  5
66
  8
0
 10
5.96519
 20
0.299
 30
0.0
 11
0.299
 21
4.59987
 31
0.0
  0
LINE
  5
67
  8
0
 10
0.299
 20
4.7003
 30
0.0
 11
6.09751
 21
0.299
 31
0.0
  0
LINE
  5
68
  8
0
 10
6.22983
 20
0.299
 30
0.0
 11
0.299
 21
4.80074
 31
0.0
  0
LINE
  5
69
  8
0
 10
0.299
 20
4.90117
 30
0.0
 11
6.36215
 21
0.299
 31
0.0
  0
LINE
  5
6A
  8
0
 10
6.49447
 20
0.299
 30
0.0
 11
0.29899
 21
5.00161
 31
0.0
  0
LINE
  5
6B
  8
0
 10
0.29899
 20
5.10205
 30
0.0
 11
6.62678
 21
0.299
 31
0.0
  0
LINE
  5
6C
  8
0
 10
6.75911
 20
0.299
 30
0.0
 11
0.299
 21
5.20248
 31
0.0
  0
LINE
  5
6D
  8
0
 10
0.299
 20
5.30292
 30
0.0
 11
6.89143
 21
0.299
 31
0.0
  0
LINE
  5
6E
  8
0
 10
7.02375
 20
0.299
 30
0.0
 11
0.299
 21
5.40336
 31
0.0
  0
LINE
  5
6F
  8
0
 10
0.299
 20
5.50379
 30
0.0
 11
7.15606
 21
0.299
 31
0.0
  0
LINE
  5
70
  8
0
 10
7.28839
 20
0.299
 30
0.0
 11
0.299
 21
5.60423
 31
0.0
  0
LINE
  5
71
  8
0
 10
0.299
 20
5.70466
 30
0.0
 11
7.4207
 21
0.299
 31
0.0
  0
LINE
  5
72
  8
0
 10
7.55302
 20
0.299
 30
0.0
 11
0.299
 21
5.80509
 31
0.0
  0
LINE
  5
73
  8
0
 10
0.299
 20
5.90553
 30
0.0
 11
7.68533
 21
0.299
 31
0.0
  0
LINE
  5
74
  8
0
 10
7.81765
 20
0.299
 30
0.0
 11
0.299
 21
6.00597
 31
0.0
  0
LINE
  5
75
  8
0
 10
0.299
 20
6.1064
 30
0.0
 11
7.94998
 21
0.299
 31
0.0
  0
LINE
  5
76
  8
0
 10
8.0823
 20
0.299
 30
0.0
 11
0.299
 21
6.20683
 31
0.0
  0
LINE
  5
77
  8
0
 10
0.299
 20
6.30728
 30
0.0
 11
8.21462
 21
0.299
 31
0.0
  0
LINE
  5
78
  8
0
 10
8.34693
 20
0.299
 30
0.0
 11
0.299
 21
6.40771
 31
0.0
  0
LINE
  5
79
  8
0
 10
0.299
 20
6.50815
 30
0.0
 11
8.47925
 21
0.299
 31
0.0
  0
LINE
  5
7A
  8
0
 10
8.61157
 20
0.299
 30
0.0
 11
0.299
 21
6.60858
 31
0.0
  0
LINE
  5
7B
  8
0
 10
0.299
 20
6.70902
 30
0.0
 11
8.74389
 21
0.299
 31
0.0
  0
LINE
  5
7C
  8
0
 10
8.87621
 20
0.299
 30
0.0
 11
0.299
 21
6.80945
 31
0.0
  0
LINE
  5
7D
  8
0
 10
0.299
 20
6.90989
 30
0.0
 11
9.00853
 21
0.299
 31
0.0
  0
LINE
  5
7E
  8
0
 10
9.14085
 20
0.299
 30
0.0
 11
0.299
 21
7.01032
 31
0.0
  0
LINE
  5
7F
  8
0
 10
0.299
 20
7.11076
 30
0.0
 11
9.27317
 21
0.299
 31
0.0
  0
LINE
  5
80
  8
0
 10
9.40548
 20
0.299
 30
0.0
 11
0.299
 21
7.21119
 31
0.0
  0
LINE
  5
81
  8
0
 10
0.299
 20
7.31163
 30
0.0
 11
9.53781
 21
0.299
 31
0.0
  0
LINE
  5
82
  8
0
 10
9.67012
 20
0.299
 30
0.0
 11
0.299
 21
7.41206
 31
0.0
  0
LINE
  5
83
  8
0
 10
0.299
 20
7.51249
 30
0.0
 11
9.80244
 21
0.299
 31
0.0
  0
LINE
  5
84
  8
0
 10
9.93476
 20
0.299
 30
0.0
 11
0.299
 21
7.61294
 31
0.0
  0
LINE
  5
85
  8
0
 10
0.299
 20
7.71337
 30
0.0
 11
10.06708
 21
0.299
 31
0.0
  0
LINE
  5
86
  8
0
 10
10.1994
 20
0.299
 30
0.0
 11
0.299
 21
7.81381
 31
0.0
  0
LINE
  5
87
  8
0
 10
0.299
 20
7.91424
 30
0.0
 11
10.33172
 21
0.299
 31
0.0
  0
LINE
  5
88
  8
0
 10
10.46403
 20
0.299
 30
0.0
 11
0.299
 21
8.01468
 31
0.0
  0
LINE
  5
89
  8
0
 10
0.299
 20
8.11511
 30
0.0
 11
10.59635
 21
0.299
 31
0.0
  0
LINE
  5
8A
  8
0
 10
10.72868
 20
0.299
 30
0.0
 11
0.299
 21
8.21555
 31
0.0
  0
LINE
  5
8B
  8
0
 10
0.299
 20
8.31598
 30
0.0
 11
10.86099
 21
0.299
 31
0.0
  0
LINE
  5
8C
  8
0
 10
10.99331
 20
0.299
 30
0.0
 11
0.299
 21
8.41643
 31
0.0
  0
LINE
  5
8D
  8
0
 10
0.299
 20
8.51685
 30
0.0
 11
11.12563
 21
0.299
 31
0.0
  0
LINE
  5
8E
  8
0
 10
11.25796
 20
0.299
 30
0.0
 11
0.299
 21
8.61729
 31
0.0
  0
LINE
  5
8F
  8
0
 10
0.299
 20
8.71773
 30
0.0
 11
11.39028
 21
0.299
 31
0.0
  0
LINE
  5
90
  8
0
 10
11.52258
 20
0.299
 30
0.0
 11
0.299
 21
8.81816
 31
0.0
  0
LINE
  5
91
  8
0
 10
0.299
 20
8.9186
 30
0.0
 11
11.6549
 21
0.299
 31
0.0
  0
LINE
  5
92
  8
0
 10
11.78722
 20
0.299
 30
0.0
 11
0.299
 21
9.01903
 31
0.0
  0
LINE
  5
93
  8
0
 10
0.299
 20
9.11947
 30
0.0
 11
11.91955
 21
0.299
 31
0.0
  0
LINE
  5
94
  8
0
 10
12.05187
 20
0.299
 30
0.0
 11
0.299
 21
9.2199
 31
0.0
  0
LINE
  5
95
  8
0
 10
0.299
 20
9.32034
 30
0.0
 11
12.18418
 21
0.299
 31
0.0
  0
LINE
  5
96
  8
0
 10
12.3165
 20
0.299
 30
0.0
 11
0.29899
 21
9.42077
 31
0.0
  0
LINE
  5
97
  8
0
 10
0.299
 20
9.52121
 30
0.0
 11
12.44883
 21
0.299
 31
0.0
  0
LINE
  5
98
  8
0
 10
12.58114
 20
0.299
 30
0.0
 11
0.299
 21
9.62164
 31
0.0
  0
LINE
  5
99
  8
0
 10
0.29899
 20
9.72209
 30
0.0
 11
12.71345
 21
0.299
 31
0.0
  0
LINE
  5
9A
  8
0
 10
12.84577
 20
0.299
 30
0.0
 11
0.299
 21
9.82252
 31
0.0
  0
LINE
  5
9B
  8
0
 10
0.299
 20
9.92295
 30
0.0
 11
12.9781
 21
0.299
 31
0.0
  0
LINE
  5
9C
  8
0
 10
13.11042
 20
0.299
 30
0.0
 11
0.29899
 21
10.02339
 31
0.0
  0
LINE
  5
9D
  8
0
 10
0.299
 20
10.12383
 30
0.0
 11
13.24274
 21
0.299
 31
0.0
  0
LINE
  5
9E
  8
0
 10
13.37505
 20
0.299
 30
0.0
 11
0.29899
 21
10.22426
 31
0.0
  0
LINE
  5
9F
  8
0
 10
0.29899
 20
10.3247
 30
0.0
 11
13.50738
 21
0.299
 31
0.0
  0
LINE
  5
A0
  8
0
 10
13.63969
 20
0.299
 30
0.0
 11
0.299
 21
10.42513
 31
0.0
  0
LINE
  5
A1
  8
0
 10
0.29899
 20
10.52556
 30
0.0
 11
13.77201
 21
0.299
 31
0.0
  0
LINE
  5
A2
  8
0
 10
13.90433
 20
0.299
 30
0.0
 11
0.29899
 21
10.62601
 31
0.0
  0
LINE
  5
A3
  8
0
 10
0.299
 20
10.72644
 30
0.0
 11
14.03664
 21
0.299
 31
0.0
  0
LINE
  5
A4
  8
0
 10
14.16897
 20
0.299
 30
0.0
 11
0.299
 21
10.82688
 31
0.0
  0
LINE
  5
A5
  8
0
 10
0.299
 20
10.9273
 30
0.0
 11
14.30129
 21
0.299
 31
0.0
  0
LINE
  5
A6
  8
0
 10
14.43361
 20
0.299
 30
0.0
 11
0.299
 21
11.02775
 31
0.0
  0
LINE
  5
A7
  8
0
 10
0.299
 20
11.12818
 30
0.0
 11
14.56591
 21
0.299
 31
0.0
  0
LINE
  5
A8
  8
0
 10
14.69825
 20
0.299
 30
0.0
 11
0.299
 21
11.22862
 31
0.0
  0
LINE
  5
A9
  8
0
 10
0.299
 20
11.32905
 30
0.0
 11
14.701
 21
0.39734
 31
0.0
  0
LINE
  5
AA
  8
0
 10
14.701
 20
0.49777
 30
0.0
 11
0.299
 21
11.42949
 31
0.0
  0
LINE
  5
AB
  8
0
 10
0.299
 20
11.52992
 30
0.0
 11
14.701
 21
0.59821
 31
0.0
  0
LINE
  5
AC
  8
0
 10
14.701
 20
0.69865
 30
0.0
 11
0.299
 21
11.63036
 31
0.0
  0
LINE
  5
AD
  8
0
 10
0.299
 20
11.73079
 30
0.0
 11
14.701
 21
0.79908
 31
0.0
  0
LINE
  5
AE
  8
0
 10
14.701
 20
0.89952
 30
0.0
 11
0.299
 21
11.83122
 31
0.0
  0
LINE
  5
AF
  8
0
 10
0.299
 20
11.93167
 30
0.0
 11
14.701
 21
0.99995
 31
0.0
  0
LINE
  5
B0
  8
0
 10
14.701
 20
1.10039
 30
0.0
 11
0.299
 21
12.0321
 31
0.0
  0
LINE
  5
B1
  8
0
 10
0.299
 20
12.13254
 30
0.0
 11
14.701
 21
1.20082
 31
0.0
  0
LINE
  5
B2
  8
0
 10
14.701
 20
1.30126
 30
0.0
 11
0.299
 21
12.23297
 31
0.0
  0
LINE
  5
B3
  8
0
 10
0.29899
 20
12.33341
 30
0.0
 11
14.701
 21
1.40169
 31
0.0
  0
LINE
  5
B4
  8
0
 10
14.701
 20
1.50213
 30
0.0
 11
0.299
 21
12.43384
 31
0.0
  0
LINE
  5
B5
  8
0
 10
0.299
 20
12.53428
 30
0.0
 11
14.701
 21
1.60257
 31
0.0
  0
LINE
  5
B6
  8
0
 10
14.701
 20
1.703
 30
0.0
 11
0.29899
 21
12.63471
 31
0.0
  0
LINE
  5
B7
  8
0
 10
0.299
 20
12.73515
 30
0.0
 11
14.701
 21
1.80343
 31
0.0
  0
LINE
  5
B8
  8
0
 10
14.701
 20
1.90387
 30
0.0
 11
0.299
 21
12.83558
 31
0.0
  0
LINE
  5
B9
  8
0
 10
0.299
 20
12.93602
 30
0.0
 11
14.701
 21
2.00431
 31
0.0
  0
LINE
  5
BA
  8
0
 10
14.701
 20
2.10474
 30
0.0
 11
0.299
 21
13.03645
 31
0.0
  0
LINE
  5
BB
  8
0
 10
0.299
 20
13.1369
 30
0.0
 11
14.701
 21
2.20518
 31
0.0
  0
LINE
  5
BC
  8
0
 10
14.701
 20
2.30561
 30
0.0
 11
0.299
 21
13.23733
 31
0.0
  0
LINE
  5
BD
  8
0
 10
0.299
 20
13.33776
 30
0.0
 11
14.701
 21
2.40605
 31
0.0
  0
LINE
  5
BE
  8
0
 10
14.701
 20
2.50649
 30
0.0
 11
0.299
 21
13.4382
 31
0.0
  0
LINE
  5
BF
  8
0
 10
0.299
 20
13.53863
 30
0.0
 11
14.701
 21
2.60692
 31
0.0
  0
LINE
  5
C0
  8
0
 10
14.701
 20
2.70735
 30
0.0
 11
0.299
 21
13.63907
 31
0.0
  0
LINE
  5
C1
  8
0
 10
0.299
 20
13.7395
 30
0.0
 11
14.701
 21
2.80779
 31
0.0
  0
LINE
  5
C2
  8
0
 10
14.701
 20
2.90823
 30
0.0
 11
0.299
 21
13.83994
 31
0.0
  0
LINE
  5
C3
  8
0
 10
0.299
 20
13.94037
 30
0.0
 11
14.701
 21
3.00867
 31
0.0
  0
LINE
  5
C4
  8
0
 10
14.701
 20
3.10909
 30
0.0
 11
0.299
 21
14.04082
 31
0.0
  0
LINE
  5
C5
  8
0
 10
0.299
 20
14.14125
 30
0.0
 11
14.701
 21
3.20953
 31
0.0
  0
LINE
  5
C6
  8
0
 10
14.701
 20
3.30997
 30
0.0
 11
0.299
 21
14.24168
 31
0.0
  0
LINE
  5
C7
  8
0
 10
0.299
 20
14.34211
 30
0.0
 11
14.701
 21
3.41041
 31
0.0
  0
LINE
  5
C8
  8
0
 10
14.701
 20
3.51084
 30
0.0
 11
0.299
 21
14.44256
 31
0.0
  0
LINE
  5
C9
  8
0
 10
0.299
 20
14.54299
 30
0.0
 11
14.701
 21
3.61127
 31
0.0
  0
LINE
  5
CA
  8
0
 10
14.701
 20
3.71171
 30
0.0
 11
0.299
 21
14.64342
 31
0.0
  0
LINE
  5
CB
  8
0
 10
0.35547
 20
14.701
 30
0.0
 11
14.701
 21
3.81215
 31
0.0
  0
LINE
  5
CC
  8
0
 10
14.701
 20
3.91258
 30
0.0
 11
0.48778
 21
14.701
 31
0.0
  0
LINE
  5
CD
  8
0
 10
0.62012
 20
14.701
 30
0.0
 11
14.701
 21
4.01301
 31
0.0
  0
LINE
  5
CE
  8
0
 10
14.701
 20
4.11345
 30
0.0
 11
0.75243
 21
14.701
 31
0.0
  0
LINE
  5
CF
  8
0
 10
0.88474
 20
14.701
 30
0.0
 11
14.701
 21
4.21389
 31
0.0
  0
LINE
  5
D0
  8
0
 10
14.701
 20
4.31433
 30
0.0
 11
1.01706
 21
14.701
 31
0.0
  0
LINE
  5
D1
  8
0
 10
1.14939
 20
14.701
 30
0.0
 11
14.701
 21
4.41476
 31
0.0
  0
LINE
  5
D2
  8
0
 10
14.701
 20
4.51519
 30
0.0
 11
1.28171
 21
14.701
 31
0.0
  0
LINE
  5
D3
  8
0
 10
1.41403
 20
14.701
 30
0.0
 11
14.701
 21
4.61563
 31
0.0
  0
LINE
  5
D4
  8
0
 10
14.701
 20
4.71607
 30
0.0
 11
1.54634
 21
14.701
 31
0.0
  0
LINE
  5
D5
  8
0
 10
1.67867
 20
14.701
 30
0.0
 11
14.701
 21
4.8165
 31
0.0
  0
LINE
  5
D6
  8
0
 10
14.701
 20
4.91694
 30
0.0
 11
1.81098
 21
14.701
 31
0.0
  0
LINE
  5
D7
  8
0
 10
1.9433
 20
14.701
 30
0.0
 11
14.701
 21
5.01738
 31
0.0
  0
LINE
  5
D8
  8
0
 10
14.701
 20
5.11781
 30
0.0
 11
2.07562
 21
14.701
 31
0.0
  0
LINE
  5
D9
  8
0
 10
2.20794
 20
14.701
 30
0.0
 11
14.701
 21
5.21825
 31
0.0
  0
LINE
  5
DA
  8
0
 10
14.701
 20
5.31868
 30
0.0
 11
2.34026
 21
14.701
 31
0.0
  0
LINE
  5
DB
  8
0
 10
2.47258
 20
14.701
 30
0.0
 11
14.701
 21
5.41912
 31
0.0
  0
LINE
  5
DC
  8
0
 10
14.701
 20
5.51955
 30
0.0
 11
2.6049
 21
14.701
 31
0.0
  0
LINE
  5
DD
  8
0
 10
2.7372
 20
14.701
 30
0.0
 11
14.701
 21
5.61999
 31
0.0
  0
LINE
  5
DE
  8
0
 10
14.701
 20
5.72042
 30
0.0
 11
2.86953
 21
14.701
 31
0.0
  0
LINE
  5
DF
  8
0
 10
3.00185
 20
14.701
 30
0.0
 11
14.701
 21
5.82086
 31
0.0
  0
LINE
  5
E0
  8
0
 10
14.701
 20
5.92129
 30
0.0
 11
3.13417
 21
14.701
 31
0.0
  0
LINE
  5
E1
  8
0
 10
3.26649
 20
14.701
 30
0.0
 11
14.701
 21
6.02173
 31
0.0
  0
LINE
  5
E2
  8
0
 10
14.701
 20
6.12216
 30
0.0
 11
3.39881
 21
14.701
 31
0.0
  0
LINE
  5
E3
  8
0
 10
3.53113
 20
14.701
 30
0.0
 11
14.701
 21
6.2226
 31
0.0
  0
LINE
  5
E4
  8
0
 10
14.701
 20
6.32304
 30
0.0
 11
3.66345
 21
14.701
 31
0.0
  0
LINE
  5
E5
  8
0
 10
3.79576
 20
14.701
 30
0.0
 11
14.701
 21
6.42347
 31
0.0
  0
LINE
  5
E6
  8
0
 10
14.701
 20
6.52391
 30
0.0
 11
3.92809
 21
14.701
 31
0.0
  0
LINE
  5
E7
  8
0
 10
4.0604
 20
14.701
 30
0.0
 11
14.701
 21
6.62434
 31
0.0
  0
LINE
  5
E8
  8
0
 10
14.701
 20
6.72478
 30
0.0
 11
4.19272
 21
14.701
 31
0.0
  0
LINE
  5
E9
  8
0
 10
4.32504
 20
14.701
 30
0.0
 11
14.701
 21
6.82522
 31
0.0
  0
LINE
  5
EA
  8
0
 10
14.701
 20
6.92565
 30
0.0
 11
4.45736
 21
14.701
 31
0.0
  0
LINE
  5
EB
  8
0
 10
4.58968
 20
14.701
 30
0.0
 11
14.701
 21
7.02608
 31
0.0
  0
LINE
  5
EC
  8
0
 10
14.701
 20
7.12652
 30
0.0
 11
4.722
 21
14.701
 31
0.0
  0
LINE
  5
ED
  8
0
 10
4.85432
 20
14.701
 30
0.0
 11
14.701
 21
7.22696
 31
0.0
  0
LINE
  5
EE
  8
0
 10
14.701
 20
7.32739
 30
0.0
 11
4.98663
 21
14.701
 31
0.0
  0
LINE
  5
EF
  8
0
 10
5.11896
 20
14.701
 30
0.0
 11
14.701
 21
7.42783
 31
0.0
  0
LINE
  5
F0
  8
0
 10
14.701
 20
7.52826
 30
0.0
 11
5.25127
 21
14.701
 31
0.0
  0
LINE
  5
F1
  8
0
 10
5.38359
 20
14.701
 30
0.0
 11
14.701
 21
7.6287
 31
0.0
  0
LINE
  5
F2
  8
0
 10
14.701
 20
7.72914
 30
0.0
 11
5.51591
 21
14.701
 31
0.0
  0
LINE
  5
F3
  8
0
 10
5.64824
 20
14.701
 30
0.0
 11
14.701
 21
7.82957
 31
0.0
  0
LINE
  5
F4
  8
0
 10
14.701
 20
7.93
 30
0.0
 11
5.78055
 21
14.701
 31
0.0
  0
LINE
  5
F5
  8
0
 10
5.91287
 20
14.701
 30
0.0
 11
14.701
 21
8.03044
 31
0.0
  0
LINE
  5
F6
  8
0
 10
14.701
 20
8.13088
 30
0.0
 11
6.04518
 21
14.701
 31
0.0
  0
LINE
  5
F7
  8
0
 10
6.17751
 20
14.701
 30
0.0
 11
14.701
 21
8.23131
 31
0.0
  0
LINE
  5
F8
  8
0
 10
14.701
 20
8.33174
 30
0.0
 11
6.30983
 21
14.701
 31
0.0
  0
LINE
  5
F9
  8
0
 10
6.44215
 20
14.701
 30
0.0
 11
14.701
 21
8.43218
 31
0.0
  0
LINE
  5
FA
  8
0
 10
14.701
 20
8.53262
 30
0.0
 11
6.57446
 21
14.701
 31
0.0
  0
LINE
  5
FB
  8
0
 10
6.70678
 20
14.701
 30
0.0
 11
14.701
 21
8.63305
 31
0.0
  0
LINE
  5
FC
  8
0
 10
14.701
 20
8.73349
 30
0.0
 11
6.8391
 21
14.701
 31
0.0
  0
LINE
  5
FD
  8
0
 10
6.97142
 20
14.701
 30
0.0
 11
14.701
 21
8.83392
 31
0.0
  0
LINE
  5
FE
  8
0
 10
14.701
 20
8.93436
 30
0.0
 11
7.10374
 21
14.701
 31
0.0
  0
LINE
  5
FF
  8
0
 10
7.23605
 20
14.701
 30
0.0
 11
14.701
 21
9.0348
 31
0.0
  0
LINE
  5
100
  8
0
 10
14.701
 20
9.13523
 30
0.0
 11
7.36838
 21
14.701
 31
0.0
  0
LINE
  5
101
  8
0
 10
7.5007
 20
14.701
 30
0.0
 11
14.701
 21
9.23566
 31
0.0
  0
LINE
  5
102
  8
0
 10
14.701
 20
9.3361
 30
0.0
 11
7.63302
 21
14.701
 31
0.0
  0
LINE
  5
103
  8
0
 10
7.76533
 20
14.701
 30
0.0
 11
14.701
 21
9.43654
 31
0.0
  0
LINE
  5
104
  8
0
 10
14.701
 20
9.53698
 30
0.0
 11
7.89766
 21
14.701
 31
0.0
  0
LINE
  5
105
  8
0
 10
8.02997
 20
14.701
 30
0.0
 11
14.701
 21
9.63741
 31
0.0
  0
LINE
  5
106
  8
0
 10
14.701
 20
9.73785
 30
0.0
 11
8.16229
 21
14.701
 31
0.0
  0
LINE
  5
107
  8
0
 10
8.29461
 20
14.701
 30
0.0
 11
14.701
 21
9.83828
 31
0.0
  0
LINE
  5
108
  8
0
 10
14.701
 20
9.93871
 30
0.0
 11
8.42692
 21
14.701
 31
0.0
  0
LINE
  5
109
  8
0
 10
8.55925
 20
14.701
 30
0.0
 11
14.701
 21
10.03915
 31
0.0
  0
LINE
  5
10A
  8
0
 10
14.701
 20
10.13959
 30
0.0
 11
8.69157
 21
14.701
 31
0.0
  0
LINE
  5
10B
  8
0
 10
8.82389
 20
14.701
 30
0.0
 11
14.701
 21
10.24002
 31
0.0
  0
LINE
  5
10C
  8
0
 10
14.701
 20
10.34046
 30
0.0
 11
8.9562
 21
14.701
 31
0.0
  0
LINE
  5
10D
  8
0
 10
9.08852
 20
14.701
 30
0.0
 11
14.701
 21
10.44089
 31
0.0
  0
LINE
  5
10E
  8
0
 10
14.701
 20
10.54133
 30
0.0
 11
9.22084
 21
14.701
 31
0.0
  0
LINE
  5
10F
  8
0
 10
9.35316
 20
14.701
 30
0.0
 11
14.701
 21
10.64176
 31
0.0
  0
LINE
  5
110
  8
0
 10
14.701
 20
10.7422
 30
0.0
 11
9.48548
 21
14.701
 31
0.0
  0
LINE
  5
111
  8
0
 10
9.6178
 20
14.701
 30
0.0
 11
14.701
 21
10.84264
 31
0.0
  0
LINE
  5
112
  8
0
 10
14.701
 20
10.94307
 30
0.0
 11
9.75012
 21
14.701
 31
0.0
  0
LINE
  5
113
  8
0
 10
9.88244
 20
14.701
 30
0.0
 11
14.701
 21
11.04351
 31
0.0
  0
LINE
  5
114
  8
0
 10
14.701
 20
11.14394
 30
0.0
 11
10.01475
 21
14.701
 31
0.0
  0
LINE
  5
115
  8
0
 10
10.14708
 20
14.701
 30
0.0
 11
14.701
 21
11.24438
 31
0.0
  0
LINE
  5
116
  8
0
 10
14.701
 20
11.34481
 30
0.0
 11
10.27939
 21
14.701
 31
0.0
  0
LINE
  5
117
  8
0
 10
10.41171
 20
14.701
 30
0.0
 11
14.701
 21
11.44525
 31
0.0
  0
LINE
  5
118
  8
0
 10
14.701
 20
11.54569
 30
0.0
 11
10.54403
 21
14.701
 31
0.0
  0
LINE
  5
119
  8
0
 10
10.67635
 20
14.701
 30
0.0
 11
14.701
 21
11.64612
 31
0.0
  0
LINE
  5
11A
  8
0
 10
14.701
 20
11.74656
 30
0.0
 11
10.80867
 21
14.701
 31
0.0
  0
LINE
  5
11B
  8
0
 10
10.94099
 20
14.701
 30
0.0
 11
14.701
 21
11.84699
 31
0.0
  0
LINE
  5
11C
  8
0
 10
14.701
 20
11.94743
 30
0.0
 11
11.07331
 21
14.701
 31
0.0
  0
LINE
  5
11D
  8
0
 10
11.20563
 20
14.701
 30
0.0
 11
14.701
 21
12.04786
 31
0.0
  0
LINE
  5
11E
  8
0
 10
14.701
 20
12.1483
 30
0.0
 11
11.33795
 21
14.701
 31
0.0
  0
LINE
  5
11F
  8
0
 10
11.47026
 20
14.701
 30
0.0
 11
14.701
 21
12.24873
 31
0.0
  0
LINE
  5
120
  8
0
 10
14.701
 20
12.34917
 30
0.0
 11
11.60258
 21
14.701
 31
0.0
  0
LINE
  5
121
  8
0
 10
11.7349
 20
14.701
 30
0.0
 11
14.701
 21
12.44961
 31
0.0
  0
LINE
  5
122
  8
0
 10
14.701
 20
12.55004
 30
0.0
 11
11.86722
 21
14.701
 31
0.0
  0
LINE
  5
123
  8
0
 10
11.99954
 20
14.701
 30
0.0
 11
14.701
 21
12.65047
 31
0.0
  0
LINE
  5
124
  8
0
 10
14.701
 20
12.75091
 30
0.0
 11
12.13186
 21
14.701
 31
0.0
  0
LINE
  5
125
  8
0
 10
12.26418
 20
14.701
 30
0.0
 11
14.701
 21
12.85135
 31
0.0
  0
LINE
  5
126
  8
0
 10
14.701
 20
12.95178
 30
0.0
 11
12.3965
 21
14.701
 31
0.0
  0
LINE
  5
127
  8
0
 10
12.52882
 20
14.701
 30
0.0
 11
14.701
 21
13.05222
 31
0.0
  0
LINE
  5
128
  8
0
 10
14.701
 20
13.15265
 30
0.0
 11
12.66113
 21
14.701
 31
0.0
  0
LINE
  5
129
  8
0
 10
12.79345
 20
14.701
 30
0.0
 11
14.701
 21
13.25309
 31
0.0
  0
LINE
  5
12A
  8
0
 10
14.701
 20
13.35352
 30
0.0
 11
12.92577
 21
14.701
 31
0.0
  0
LINE
  5
12B
  8
0
 10
13.0581
 20
14.701
 30
0.0
 11
14.701
 21
13.45396
 31
0.0
  0
LINE
  5
12C
  8
0
 10
14.701
 20
13.55439
 30
0.0
 11
13.19041
 21
14.701
 31
0.0
  0
LINE
  5
12D
  8
0
 10
13.32273
 20
14.701
 30
0.0
 11
14.701
 21
13.65483
 31
0.0
  0
LINE
  5
12E
  8
0
 10
14.701
 20
13.75527
 30
0.0
 11
13.45505
 21
14.701
 31
0.0
  0
LINE
  5
12F
  8
0
 10
13.58737
 20
14.701
 30
0.0
 11
14.701
 21
13.8557
 31
0.0
  0
LINE
  5
130
  8
0
 10
14.701
 20
13.95614
 30
0.0
 11
13.71968
 21
14.701
 31
0.0
  0
LINE
  5
131
  8
0
 10
13.85201
 20
14.701
 30
0.0
 11
14.701
 21
14.05658
 31
0.0
  0
LINE
  5
132
  8
0
 10
14.701
 20
14.15701
 30
0.0
 11
13.98432
 21
14.701
 31
0.0
  0
LINE
  5
133
  8
0
 10
14.11665
 20
14.701
 30
0.0
 11
14.701
 21
14.25745
 31
0.0
  0
LINE
  5
134
  8
0
 10
14.701
 20
14.35788
 30
0.0
 11
14.24896
 21
14.701
 31
0.0
  0
LINE
  5
135
  8
0
 10
14.38128
 20
14.701
 30
0.0
 11
14.701
 21
14.45831
 31
0.0
  0
LINE
  5
136
  8
0
 10
14.701
 20
14.55875
 30
0.0
 11
14.5136
 21
14.701
 31
0.0
  0
LINE
  5
137
  8
0
 10
14.64592
 20
14.701
 30
0.0
 11
14.701
 21
14.65918
 31
0.0
  0
ENDSEC
  0
EOF
