  0
SECTION
  2
HEADER
  9
$ACADVER
  1
AC1009
  9
$DWGCODEPAGE
  3
ANSI_1252
  9
$INSBASE
 10
0.0
 20
0.0
 30
0.0
  9
$EXTMIN
 10
1e+20
 20
1e+20
 30
1e+20
  9
$EXTMAX
 10
-1e+20
 20
-1e+20
 30
-1e+20
  9
$LIMMIN
 10
0.0
 20
0.0
  9
$LIMMAX
 10
420.0
 20
297.0
  9
$ORTHOMODE
 70
0
  9
$REGENMODE
 70
1
  9
$FILLMODE
 70
1
  9
$DRAGMODE
 70
2
  9
$QTEXTMODE
 70
0
  9
$MIRRTEXT
 70
1
  9
$OSMODE
 70
20583
  9
$LTSCALE
 40
1.0
  9
$ATTMODE
 70
1
  9
$TEXTSIZE
 40
2.5
  9
$TRACEWID
 40
1.0
  9
$TEXTSTYLE
  7
Standard
  9
$CLAYER
  8
0
  9
$CELTYPE
  6
ByLayer
  9
$CECOLOR
 62
256
  9
$DIMSCALE
 40
1.0
  9
$DIMASZ
 40
2.5
  9
$DIMEXO
 40
0.625
  9
$DIMDLI
 40
3.75
  9
$DIMRND
 40
0.0
  9
$DIMDLE
 40
0.0
  9
$DIMEXE
 40
1.25
  9
$DIMTP
 40
0.0
  9
$DIMTM
 40
0.0
  9
$DIMTXT
 40
2.5
  9
$DIMCEN
 40
2.5
  9
$DIMTSZ
 40
0.0
  9
$DIMTOL
 70
0
  9
$DIMLIM
 70
0
  9
$DIMTIH
 70
0
  9
$DIMTOH
 70
0
  9
$DIMSE1
 70
0
  9
$DIMSE2
 70
0
  9
$DIMTAD
 70
1
  9
$DIMZIN
 70
8
  9
$DIMBLK
  1

  9
$DIMASO
 70
1
  9
$DIMSHO
 70
1
  9
$DIMPOST
  1

  9
$DIMAPOST
  1

  9
$DIMALT
 70
0
  9
$DIMALTD
 70
3
  9
$DIMALTF
 40
0.03937007874
  9
$DIMLFAC
 40
1.0
  9
$DIMTOFL
 70
1
  9
$DIMTVP
 40
0.0
  9
$DIMTIX
 70
0
  9
$DIMSOXD
 70
0
  9
$DIMSAH
 70
0
  9
$DIMBLK1
  1

  9
$DIMBLK2
  1

  9
$DIMSTYLE
  2
ISO-25
  9
$DIMCLRD
 70
0
  9
$DIMCLRE
 70
0
  9
$DIMCLRT
 70
0
  9
$DIMTFAC
 40
1.0
  9
$DIMGAP
 40
0.625
  9
$COORDS
 70
1
  9
$ATTDIA
 70
0
  9
$ATTREQ
 70
1
  9
$HANDLING
 70
1
  9
$LUNITS
 70
2
  9
$LUPREC
 70
4
  9
$SKETCHINC
 40
1.0
  9
$FILLETRAD
 40
10.0
  9
$AUNITS
 70
0
  9
$AUPREC
 70
2
  9
$MENU
  1
.
  9
$ELEVATION
 40
0.0
  9
$PELEVATION
 40
0.0
  9
$THICKNESS
 40
0.0
  9
$LIMCHECK
 70
0
  9
$CHAMFERA
 40
0.0
  9
$CHAMFERB
 40
0.0
  9
$SKPOLY
 70
0
  9
$TDCREATE
 40
2460888.394421296
  9
$TDUPDATE
 40
2460888.394421296
  9
$TDINDWG
 40
0.0
  9
$TDUSRTIMER
 40
0.0
  9
$USRTIMER
 70
1
  9
$ANGBASE
 50
0.0
  9
$ANGDIR
 70
0
  9
$PDMODE
 70
0
  9
$PDSIZE
 40
0.0
  9
$PLINEWID
 40
0.0
  9
$SPLFRAME
 70
0
  9
$SPLINETYPE
 70
6
  9
$SPLINESEGS
 70
8
  9
$HANDSEED
  5
7D0
  9
$SURFTAB1
 70
6
  9
$SURFTAB2
 70
6
  9
$SURFTYPE
 70
6
  9
$SURFU
 70
6
  9
$SURFV
 70
6
  9
$UCSNAME
  2

  9
$UCSORG
 10
0.0
 20
0.0
 30
0.0
  9
$UCSXDIR
 10
1.0
 20
0.0
 30
0.0
  9
$UCSYDIR
 10
0.0
 20
1.0
 30
0.0
  9
$PUCSNAME
  2

  9
$PUCSORG
 10
0.0
 20
0.0
 30
0.0
  9
$PUCSXDIR
 10
1.0
 20
0.0
 30
0.0
  9
$PUCSYDIR
 10
0.0
 20
1.0
 30
0.0
  9
$USERI1
 70
0
  9
$USERI2
 70
0
  9
$USERI3
 70
0
  9
$USERI4
 70
0
  9
$USERI5
 70
0
  9
$USERR1
 40
0.0
  9
$USERR2
 40
0.0
  9
$USERR3
 40
0.0
  9
$USERR4
 40
0.0
  9
$USERR5
 40
0.0
  9
$WORLDVIEW
 70
1
  9
$SHADEDGE
 70
3
  9
$SHADEDIF
 70
70
  9
$TILEMODE
 70
1
  9
$MAXACTVP
 70
64
  9
$PLIMCHECK
 70
0
  9
$PEXTMIN
 10
1e+20
 20
1e+20
 30
1e+20
  9
$PEXTMAX
 10
-1e+20
 20
-1e+20
 30
-1e+20
  9
$PLIMMIN
 10
0.0
 20
0.0
  9
$PLIMMAX
 10
420.0
 20
297.0
  9
$UNITMODE
 70
0
  9
$VISRETAIN
 70
1
  9
$PLINEGEN
 70
0
  9
$PSLTSCALE
 70
1
  0
ENDSEC
  0
SECTION
  2
TABLES
  0
TABLE
  2
VPORT
 70
1
  0
VPORT
  5
23
  2
*Active
 70
0
 10
0.0
 20
0.0
 11
1.0
 21
1.0
 12
0.0
 22
0.0
 13
0.0
 23
0.0
 14
0.5
 24
0.5
 15
0.5
 25
0.5
 16
0.0
 26
0.0
 36
1.0
 17
0.0
 27
0.0
 37
0.0
 40
1000.0
 41
1.34
 42
50.0
 43
0.0
 44
0.0
 50
0.0
 51
0.0
 71
0
 72
1000
 73
1
 74
3
 75
0
 76
0
 77
0
 78
0
  0
ENDTAB
  0
TABLE
  2
LTYPE
 70
3
  0
LTYPE
  5
24
  2
ByBlock
 70
0
  3

 72
65
 73
0
 40
0.0
  0
LTYPE
  5
25
  2
ByLayer
 70
0
  3

 72
65
 73
0
 40
0.0
  0
LTYPE
  5
26
  2
Continuous
 70
0
  3

 72
65
 73
0
 40
0.0
  0
ENDTAB
  0
TABLE
  2
LAYER
 70
2
  0
LAYER
  5
27
  2
0
 70
0
 62
7
  6
Continuous
  0
LAYER
  5
28
  2
Defpoints
 70
0
 62
7
  6
Continuous
  0
ENDTAB
  0
TABLE
  2
STYLE
 70
1
  0
STYLE
  5
29
  2
Standard
 70
0
 40
0.0
 41
1.0
 50
0.0
 71
0
 42
2.5
  3
txt
  4

  0
ENDTAB
  0
TABLE
  2
VIEW
 70
0
  0
ENDTAB
  0
TABLE
  2
UCS
 70
0
  0
ENDTAB
  0
TABLE
  2
APPID
 70
3
  0
APPID
  5
2A
  2
ACAD
 70
0
  0
APPID
  5
7CE
  2
HATCHBACKGROUNDCOLOR
 70
0
  0
APPID
  5
7CF
  2
EZDXF
 70
0
  0
ENDTAB
  0
TABLE
  2
DIMSTYLE
 70
1
  0
DIMSTYLE
105
2B
  2
Standard
 70
0
  3

  4

  5

  6

  7

 40
1.0
 41
2.5
 42
0.625
 43
3.75
 44
1.25
 45
0.0
 46
0.0
 47
0.0
 48
0.0
140
2.5
141
2.5
142
0.0
143
0.03937007874
144
1.0
145
0.0
146
1.0
147
0.625
 71
0
 72
0
 73
0
 74
0
 75
0
 76
0
 77
1
 78
8
170
0
171
3
172
1
173
0
174
0
175
0
176
0
177
0
178
0
  0
ENDTAB
  0
ENDSEC
  0
SECTION
  2
BLOCKS
  0
BLOCK
  5
18
  8
0
  2
$Model_Space
 70
0
 10
0.0
 20
0.0
 30
0.0
  3
$Model_Space
  1

1001
EZDXF
1000
CREATED_BY_EZDXF
1000
1.4.2 @ 2025-07-31T12:27:58.048518+00:00
1000
WRITTEN_BY_EZDXF
1000
1.4.2 @ 2025-07-31T12:27:58.134030+00:00
  0
ENDBLK
  5
19
  8
0
  0
BLOCK
  5
1C
  8
0
  2
$Paper_Space
 70
0
 10
0.0
 20
0.0
 30
0.0
  3
$Paper_Space
  1

  0
ENDBLK
  5
1D
  8
0
  0
ENDSEC
  0
SECTION
  2
ENTITIES
  0
LINE
  5
2D
  8
0
 10
2.467671
 20
0.433001
 30
0.0
 11
0.988921
 21
0.709951
 31
0.0
  0
LINE
  5
2E
  8
0
 10
0.988921
 20
0.709951
 30
0.0
 11
0.588383
 21
1.266476
 31
0.0
  0
LINE
  5
2F
  8
0
 10
0.588383
 20
1.266476
 30
0.0
 11
0.469304
 21
1.987569
 31
0.0
  0
LINE
  5
30
  8
0
 10
0.469304
 20
1.987569
 30
0.0
 11
0.579389
 21
7.731105
 31
0.0
  0
LINE
  5
31
  8
0
 10
0.579389
 20
7.731105
 30
0.0
 11
0.435178
 21
12.679331
 31
0.0
  0
LINE
  5
32
  8
0
 10
0.435178
 20
12.679331
 30
0.0
 11
0.515252
 21
13.608436
 31
0.0
  0
LINE
  5
33
  8
0
 10
0.515252
 20
13.608436
 30
0.0
 11
0.800265
 21
14.315765
 31
0.0
  0
LINE
  5
34
  8
0
 10
0.800265
 20
14.315765
 30
0.0
 11
1.230887
 21
14.596723
 31
0.0
  0
LINE
  5
35
  8
0
 10
1.230887
 20
14.596723
 30
0.0
 11
2.400411
 21
14.748249
 31
0.0
  0
LINE
  5
36
  8
0
 10
2.400411
 20
14.748249
 30
0.0
 11
14.625122
 21
14.574977
 31
0.0
  0
LINE
  5
37
  8
0
 10
14.625122
 20
14.574977
 30
0.0
 11
14.746417
 21
2.391153
 31
0.0
  0
LINE
  5
38
  8
0
 10
14.746417
 20
2.391153
 30
0.0
 11
14.640879
 21
1.409071
 31
0.0
  0
LINE
  5
39
  8
0
 10
14.640879
 20
1.409071
 30
0.0
 11
14.314594
 21
0.807452
 31
0.0
  0
LINE
  5
3A
  8
0
 10
14.314594
 20
0.807452
 30
0.0
 11
13.947748
 21
0.59863
 31
0.0
  0
LINE
  5
3B
  8
0
 10
13.947748
 20
0.59863
 30
0.0
 11
12.871446
 21
0.448017
 31
0.0
  0
LINE
  5
3C
  8
0
 10
12.871446
 20
0.448017
 30
0.0
 11
7.146343
 21
0.581046
 31
0.0
  0
LINE
  5
3D
  8
0
 10
7.146343
 20
0.581046
 30
0.0
 11
2.467671
 21
0.433001
 31
0.0
  0
LINE
  5
3E
  8
0
 10
2.467671
 20
0.433001
 30
0.0
 11
2.467671
 21
0.433001
 31
0.0
  0
LINE
  5
3F
  8
0
 10
2.467671
 20
0.433001
 30
0.0
 11
0.988921
 21
0.709951
 31
0.0
  0
LINE
  5
40
  8
0
 10
0.988921
 20
0.709951
 30
0.0
 11
0.588383
 21
1.266476
 31
0.0
  0
LINE
  5
41
  8
0
 10
0.588383
 20
1.266476
 30
0.0
 11
0.469304
 21
1.987569
 31
0.0
  0
LINE
  5
42
  8
0
 10
0.469304
 20
1.987569
 30
0.0
 11
0.579389
 21
7.731105
 31
0.0
  0
LINE
  5
43
  8
0
 10
0.579389
 20
7.731105
 30
0.0
 11
0.435178
 21
12.679331
 31
0.0
  0
LINE
  5
44
  8
0
 10
0.435178
 20
12.679331
 30
0.0
 11
0.515252
 21
13.608436
 31
0.0
  0
LINE
  5
45
  8
0
 10
0.515252
 20
13.608436
 30
0.0
 11
0.800265
 21
14.315765
 31
0.0
  0
LINE
  5
46
  8
0
 10
0.800265
 20
14.315765
 30
0.0
 11
1.230887
 21
14.596723
 31
0.0
  0
LINE
  5
47
  8
0
 10
1.230887
 20
14.596723
 30
0.0
 11
2.400411
 21
14.748249
 31
0.0
  0
LINE
  5
48
  8
0
 10
2.400411
 20
14.748249
 30
0.0
 11
14.625122
 21
14.574977
 31
0.0
  0
LINE
  5
49
  8
0
 10
14.625122
 20
14.574977
 30
0.0
 11
14.746417
 21
2.391153
 31
0.0
  0
LINE
  5
4A
  8
0
 10
14.746417
 20
2.391153
 30
0.0
 11
14.640879
 21
1.409071
 31
0.0
  0
LINE
  5
4B
  8
0
 10
14.640879
 20
1.409071
 30
0.0
 11
14.314594
 21
0.807452
 31
0.0
  0
LINE
  5
4C
  8
0
 10
14.314594
 20
0.807452
 30
0.0
 11
13.947748
 21
0.59863
 31
0.0
  0
LINE
  5
4D
  8
0
 10
13.947748
 20
0.59863
 30
0.0
 11
12.871446
 21
0.448017
 31
0.0
  0
LINE
  5
4E
  8
0
 10
12.871446
 20
0.448017
 30
0.0
 11
7.146343
 21
0.581046
 31
0.0
  0
LINE
  5
4F
  8
0
 10
7.146343
 20
0.581046
 30
0.0
 11
2.467671
 21
0.433001
 31
0.0
  0
LINE
  5
50
  8
0
 10
2.467671
 20
0.433001
 30
0.0
 11
2.467671
 21
0.433001
 31
0.0
  0
LINE
  5
51
  8
0
 10
0.592849
 20
1.254
 30
0.0
 11
0.592849
 21
1.306725
 31
0.0
  0
LINE
  5
52
  8
0
 10
0.592849
 20
1.254
 30
0.0
 11
0.592849
 21
1.306725
 31
0.0
  0
LINE
  5
53
  8
0
 10
0.592849
 20
1.306725
 30
0.0
 11
0.592849
 21
1.395825
 31
0.0
  0
LINE
  5
54
  8
0
 10
0.592849
 20
1.395825
 30
0.0
 11
0.592849
 21
2.450613
 31
0.0
  0
LINE
  5
55
  8
0
 10
0.592849
 20
2.450613
 30
0.0
 11
0.592849
 21
2.895774
 31
0.0
  0
LINE
  5
56
  8
0
 10
0.592849
 20
2.895774
 30
0.0
 11
0.592849
 21
3.106742
 31
0.0
  0
LINE
  5
57
  8
0
 10
0.592849
 20
3.106742
 30
0.0
 11
0.592849
 21
3.195774
 31
0.0
  0
LINE
  5
58
  8
0
 10
0.592849
 20
3.195774
 30
0.0
 11
0.592849
 21
4.250613
 31
0.0
  0
LINE
  5
59
  8
0
 10
0.592849
 20
4.250613
 30
0.0
 11
0.592849
 21
4.695774
 31
0.0
  0
LINE
  5
5A
  8
0
 10
0.592849
 20
4.695774
 30
0.0
 11
0.592849
 21
4.906742
 31
0.0
  0
LINE
  5
5B
  8
0
 10
0.592849
 20
4.906742
 30
0.0
 11
0.592849
 21
4.995774
 31
0.0
  0
LINE
  5
5C
  8
0
 10
0.592849
 20
4.995774
 30
0.0
 11
0.592849
 21
6.050613
 31
0.0
  0
LINE
  5
5D
  8
0
 10
0.592849
 20
6.050613
 30
0.0
 11
0.592849
 21
6.495774
 31
0.0
  0
LINE
  5
5E
  8
0
 10
0.592849
 20
6.495774
 30
0.0
 11
0.592849
 21
6.706742
 31
0.0
  0
LINE
  5
5F
  8
0
 10
0.592849
 20
6.706742
 30
0.0
 11
0.592849
 21
6.795774
 31
0.0
  0
LINE
  5
60
  8
0
 10
0.592849
 20
6.795774
 30
0.0
 11
0.592849
 21
7.850613
 31
0.0
  0
LINE
  5
61
  8
0
 10
0.592849
 20
7.850613
 30
0.0
 11
0.592849
 21
8.295774
 31
0.0
  0
LINE
  5
62
  8
0
 10
0.592849
 20
8.295774
 30
0.0
 11
0.592849
 21
8.506742
 31
0.0
  0
LINE
  5
63
  8
0
 10
0.592849
 20
8.506742
 30
0.0
 11
0.592849
 21
8.595774
 31
0.0
  0
LINE
  5
64
  8
0
 10
0.592849
 20
8.595774
 30
0.0
 11
0.592849
 21
9.650613
 31
0.0
  0
LINE
  5
65
  8
0
 10
0.592849
 20
9.650613
 30
0.0
 11
0.592849
 21
10.095774
 31
0.0
  0
LINE
  5
66
  8
0
 10
0.592849
 20
10.095774
 30
0.0
 11
0.592849
 21
10.306742
 31
0.0
  0
LINE
  5
67
  8
0
 10
0.592849
 20
10.306742
 30
0.0
 11
0.592849
 21
10.395774
 31
0.0
  0
LINE
  5
68
  8
0
 10
0.592849
 20
10.395774
 30
0.0
 11
0.592849
 21
11.450613
 31
0.0
  0
LINE
  5
69
  8
0
 10
0.592849
 20
11.450613
 30
0.0
 11
0.592849
 21
11.895774
 31
0.0
  0
LINE
  5
6A
  8
0
 10
0.592849
 20
11.895774
 30
0.0
 11
0.592849
 21
12.106742
 31
0.0
  0
LINE
  5
6B
  8
0
 10
0.592849
 20
12.106742
 30
0.0
 11
0.592849
 21
12.195774
 31
0.0
  0
LINE
  5
6C
  8
0
 10
0.592849
 20
12.195774
 30
0.0
 11
0.592849
 21
13.250613
 31
0.0
  0
LINE
  5
6D
  8
0
 10
0.592849
 20
13.250613
 30
0.0
 11
0.592849
 21
13.695753
 31
0.0
  0
LINE
  5
6E
  8
0
 10
0.592849
 20
13.695753
 30
0.0
 11
0.592849
 21
13.906749
 31
0.0
  0
LINE
  5
6F
  8
0
 10
0.592849
 20
13.906749
 30
0.0
 11
0.592849
 21
13.929
 31
0.0
  0
LINE
  5
70
  8
0
 10
1.092849
 20
0.654
 30
0.0
 11
1.092849
 21
0.743032
 31
0.0
  0
LINE
  5
71
  8
0
 10
1.092849
 20
0.654
 30
0.0
 11
1.092849
 21
0.743032
 31
0.0
  0
LINE
  5
72
  8
0
 10
1.092849
 20
0.743032
 30
0.0
 11
1.092849
 21
1.4336
 31
0.0
  0
LINE
  5
73
  8
0
 10
1.092849
 20
1.4336
 30
0.0
 11
1.092849
 21
1.878761
 31
0.0
  0
LINE
  5
74
  8
0
 10
1.092849
 20
1.878761
 30
0.0
 11
1.092849
 21
2.089729
 31
0.0
  0
LINE
  5
75
  8
0
 10
1.092849
 20
2.089729
 30
0.0
 11
1.092849
 21
2.178761
 31
0.0
  0
LINE
  5
76
  8
0
 10
1.092849
 20
2.178761
 30
0.0
 11
1.092849
 21
3.2336
 31
0.0
  0
LINE
  5
77
  8
0
 10
1.092849
 20
3.2336
 30
0.0
 11
1.092849
 21
3.678761
 31
0.0
  0
LINE
  5
78
  8
0
 10
1.092849
 20
3.678761
 30
0.0
 11
1.092849
 21
3.889729
 31
0.0
  0
LINE
  5
79
  8
0
 10
1.092849
 20
3.889729
 30
0.0
 11
1.092849
 21
3.978761
 31
0.0
  0
LINE
  5
7A
  8
0
 10
1.092849
 20
3.978761
 30
0.0
 11
1.092849
 21
5.0336
 31
0.0
  0
LINE
  5
7B
  8
0
 10
1.092849
 20
5.0336
 30
0.0
 11
1.092849
 21
5.478761
 31
0.0
  0
LINE
  5
7C
  8
0
 10
1.092849
 20
5.478761
 30
0.0
 11
1.092849
 21
5.689729
 31
0.0
  0
LINE
  5
7D
  8
0
 10
1.092849
 20
5.689729
 30
0.0
 11
1.092849
 21
5.778761
 31
0.0
  0
LINE
  5
7E
  8
0
 10
1.092849
 20
5.778761
 30
0.0
 11
1.092849
 21
6.8336
 31
0.0
  0
LINE
  5
7F
  8
0
 10
1.092849
 20
6.8336
 30
0.0
 11
1.092849
 21
7.278761
 31
0.0
  0
LINE
  5
80
  8
0
 10
1.092849
 20
7.278761
 30
0.0
 11
1.092849
 21
7.489729
 31
0.0
  0
LINE
  5
81
  8
0
 10
1.092849
 20
7.489729
 30
0.0
 11
1.092849
 21
7.578761
 31
0.0
  0
LINE
  5
82
  8
0
 10
1.092849
 20
7.578761
 30
0.0
 11
1.092849
 21
8.6336
 31
0.0
  0
LINE
  5
83
  8
0
 10
1.092849
 20
8.6336
 30
0.0
 11
1.092849
 21
9.078761
 31
0.0
  0
LINE
  5
84
  8
0
 10
1.092849
 20
9.078761
 30
0.0
 11
1.092849
 21
9.289729
 31
0.0
  0
LINE
  5
85
  8
0
 10
1.092849
 20
9.289729
 30
0.0
 11
1.092849
 21
9.378761
 31
0.0
  0
LINE
  5
86
  8
0
 10
1.092849
 20
9.378761
 30
0.0
 11
1.092849
 21
10.4336
 31
0.0
  0
LINE
  5
87
  8
0
 10
1.092849
 20
10.4336
 30
0.0
 11
1.092849
 21
10.878761
 31
0.0
  0
LINE
  5
88
  8
0
 10
1.092849
 20
10.878761
 30
0.0
 11
1.092849
 21
11.089729
 31
0.0
  0
LINE
  5
89
  8
0
 10
1.092849
 20
11.089729
 30
0.0
 11
1.092849
 21
11.178761
 31
0.0
  0
LINE
  5
8A
  8
0
 10
1.092849
 20
11.178761
 30
0.0
 11
1.092849
 21
12.2336
 31
0.0
  0
LINE
  5
8B
  8
0
 10
1.092849
 20
12.2336
 30
0.0
 11
1.092849
 21
12.678761
 31
0.0
  0
LINE
  5
8C
  8
0
 10
1.092849
 20
12.678761
 30
0.0
 11
1.092849
 21
12.889729
 31
0.0
  0
LINE
  5
8D
  8
0
 10
1.092849
 20
12.889729
 30
0.0
 11
1.092849
 21
12.978761
 31
0.0
  0
LINE
  5
8E
  8
0
 10
1.092849
 20
12.978761
 30
0.0
 11
1.092849
 21
14.0336
 31
0.0
  0
LINE
  5
8F
  8
0
 10
1.092849
 20
14.0336
 30
0.0
 11
1.092849
 21
14.325329
 31
0.0
  0
LINE
  5
90
  8
0
 10
1.092849
 20
14.325329
 30
0.0
 11
1.092849
 21
14.536297
 31
0.0
  0
LINE
  5
91
  8
0
 10
1.092849
 20
14.536297
 30
0.0
 11
1.092849
 21
14.537
 31
0.0
  0
LINE
  5
92
  8
0
 10
1.592849
 20
0.504
 30
0.0
 11
1.592849
 21
0.593032
 31
0.0
  0
LINE
  5
93
  8
0
 10
1.592849
 20
0.504
 30
0.0
 11
1.592849
 21
0.593032
 31
0.0
  0
LINE
  5
94
  8
0
 10
1.592849
 20
0.593032
 30
0.0
 11
1.592849
 21
1.500897
 31
0.0
  0
LINE
  5
95
  8
0
 10
1.592849
 20
1.500897
 30
0.0
 11
1.592849
 21
1.946058
 31
0.0
  0
LINE
  5
96
  8
0
 10
1.592849
 20
1.946058
 30
0.0
 11
1.592849
 21
2.157026
 31
0.0
  0
LINE
  5
97
  8
0
 10
1.592849
 20
2.157026
 30
0.0
 11
1.592849
 21
2.246058
 31
0.0
  0
LINE
  5
98
  8
0
 10
1.592849
 20
2.246058
 30
0.0
 11
1.592849
 21
3.300897
 31
0.0
  0
LINE
  5
99
  8
0
 10
1.592849
 20
3.300897
 30
0.0
 11
1.592849
 21
3.746058
 31
0.0
  0
LINE
  5
9A
  8
0
 10
1.592849
 20
3.746058
 30
0.0
 11
1.592849
 21
3.957026
 31
0.0
  0
LINE
  5
9B
  8
0
 10
1.592849
 20
3.957026
 30
0.0
 11
1.592849
 21
4.046058
 31
0.0
  0
LINE
  5
9C
  8
0
 10
1.592849
 20
4.046058
 30
0.0
 11
1.592849
 21
5.100897
 31
0.0
  0
LINE
  5
9D
  8
0
 10
1.592849
 20
5.100897
 30
0.0
 11
1.592849
 21
5.546058
 31
0.0
  0
LINE
  5
9E
  8
0
 10
1.592849
 20
5.546058
 30
0.0
 11
1.592849
 21
5.757026
 31
0.0
  0
LINE
  5
9F
  8
0
 10
1.592849
 20
5.757026
 30
0.0
 11
1.592849
 21
5.846058
 31
0.0
  0
LINE
  5
A0
  8
0
 10
1.592849
 20
5.846058
 30
0.0
 11
1.592849
 21
6.900897
 31
0.0
  0
LINE
  5
A1
  8
0
 10
1.592849
 20
6.900897
 30
0.0
 11
1.592849
 21
7.346058
 31
0.0
  0
LINE
  5
A2
  8
0
 10
1.592849
 20
7.346058
 30
0.0
 11
1.592849
 21
7.557026
 31
0.0
  0
LINE
  5
A3
  8
0
 10
1.592849
 20
7.557026
 30
0.0
 11
1.592849
 21
7.646058
 31
0.0
  0
LINE
  5
A4
  8
0
 10
1.592849
 20
7.646058
 30
0.0
 11
1.592849
 21
8.700897
 31
0.0
  0
LINE
  5
A5
  8
0
 10
1.592849
 20
8.700897
 30
0.0
 11
1.592849
 21
9.146058
 31
0.0
  0
LINE
  5
A6
  8
0
 10
1.592849
 20
9.146058
 30
0.0
 11
1.592849
 21
9.357026
 31
0.0
  0
LINE
  5
A7
  8
0
 10
1.592849
 20
9.357026
 30
0.0
 11
1.592849
 21
9.446058
 31
0.0
  0
LINE
  5
A8
  8
0
 10
1.592849
 20
9.446058
 30
0.0
 11
1.592849
 21
10.500897
 31
0.0
  0
LINE
  5
A9
  8
0
 10
1.592849
 20
10.500897
 30
0.0
 11
1.592849
 21
10.946058
 31
0.0
  0
LINE
  5
AA
  8
0
 10
1.592849
 20
10.946058
 30
0.0
 11
1.592849
 21
11.157026
 31
0.0
  0
LINE
  5
AB
  8
0
 10
1.592849
 20
11.157026
 30
0.0
 11
1.592849
 21
11.246058
 31
0.0
  0
LINE
  5
AC
  8
0
 10
1.592849
 20
11.246058
 30
0.0
 11
1.592849
 21
12.300897
 31
0.0
  0
LINE
  5
AD
  8
0
 10
1.592849
 20
12.300897
 30
0.0
 11
1.592849
 21
12.746058
 31
0.0
  0
LINE
  5
AE
  8
0
 10
1.592849
 20
12.746058
 30
0.0
 11
1.592849
 21
12.957026
 31
0.0
  0
LINE
  5
AF
  8
0
 10
1.592849
 20
12.957026
 30
0.0
 11
1.592849
 21
13.046058
 31
0.0
  0
LINE
  5
B0
  8
0
 10
1.592849
 20
13.046058
 30
0.0
 11
1.592849
 21
14.100897
 31
0.0
  0
LINE
  5
B1
  8
0
 10
1.592849
 20
14.100897
 30
0.0
 11
1.592849
 21
14.484032
 31
0.0
  0
LINE
  5
B2
  8
0
 10
1.592849
 20
14.484032
 30
0.0
 11
1.592849
 21
14.695
 31
0.0
  0
LINE
  5
B3
  8
0
 10
2.092849
 20
0.446
 30
0.0
 11
2.092849
 21
0.535032
 31
0.0
  0
LINE
  5
B4
  8
0
 10
2.092849
 20
0.446
 30
0.0
 11
2.092849
 21
0.535032
 31
0.0
  0
LINE
  5
B5
  8
0
 10
2.092849
 20
0.535032
 30
0.0
 11
2.092849
 21
1.517439
 31
0.0
  0
LINE
  5
B6
  8
0
 10
2.092849
 20
1.517439
 30
0.0
 11
2.092849
 21
1.962897
 31
0.0
  0
LINE
  5
B7
  8
0
 10
2.092849
 20
1.962897
 30
0.0
 11
2.092849
 21
2.173865
 31
0.0
  0
LINE
  5
B8
  8
0
 10
2.092849
 20
2.173865
 30
0.0
 11
2.092849
 21
2.2626
 31
0.0
  0
LINE
  5
B9
  8
0
 10
2.092849
 20
2.2626
 30
0.0
 11
2.092849
 21
3.317439
 31
0.0
  0
LINE
  5
BA
  8
0
 10
2.092849
 20
3.317439
 30
0.0
 11
2.092849
 21
3.762897
 31
0.0
  0
LINE
  5
BB
  8
0
 10
2.092849
 20
3.762897
 30
0.0
 11
2.092849
 21
3.973865
 31
0.0
  0
LINE
  5
BC
  8
0
 10
2.092849
 20
3.973865
 30
0.0
 11
2.092849
 21
4.0626
 31
0.0
  0
LINE
  5
BD
  8
0
 10
2.092849
 20
4.0626
 30
0.0
 11
2.092849
 21
5.117439
 31
0.0
  0
LINE
  5
BE
  8
0
 10
2.092849
 20
5.117439
 30
0.0
 11
2.092849
 21
5.562897
 31
0.0
  0
LINE
  5
BF
  8
0
 10
2.092849
 20
5.562897
 30
0.0
 11
2.092849
 21
5.773865
 31
0.0
  0
LINE
  5
C0
  8
0
 10
2.092849
 20
5.773865
 30
0.0
 11
2.092849
 21
5.8626
 31
0.0
  0
LINE
  5
C1
  8
0
 10
2.092849
 20
5.8626
 30
0.0
 11
2.092849
 21
6.917439
 31
0.0
  0
LINE
  5
C2
  8
0
 10
2.092849
 20
6.917439
 30
0.0
 11
2.092849
 21
7.362897
 31
0.0
  0
LINE
  5
C3
  8
0
 10
2.092849
 20
7.362897
 30
0.0
 11
2.092849
 21
7.573865
 31
0.0
  0
LINE
  5
C4
  8
0
 10
2.092849
 20
7.573865
 30
0.0
 11
2.092849
 21
7.6626
 31
0.0
  0
LINE
  5
C5
  8
0
 10
2.092849
 20
7.6626
 30
0.0
 11
2.092849
 21
8.717439
 31
0.0
  0
LINE
  5
C6
  8
0
 10
2.092849
 20
8.717439
 30
0.0
 11
2.092849
 21
9.162897
 31
0.0
  0
LINE
  5
C7
  8
0
 10
2.092849
 20
9.162897
 30
0.0
 11
2.092849
 21
9.373865
 31
0.0
  0
LINE
  5
C8
  8
0
 10
2.092849
 20
9.373865
 30
0.0
 11
2.092849
 21
9.4626
 31
0.0
  0
LINE
  5
C9
  8
0
 10
2.092849
 20
9.4626
 30
0.0
 11
2.092849
 21
10.517439
 31
0.0
  0
LINE
  5
CA
  8
0
 10
2.092849
 20
10.517439
 30
0.0
 11
2.092849
 21
10.962897
 31
0.0
  0
LINE
  5
CB
  8
0
 10
2.092849
 20
10.962897
 30
0.0
 11
2.092849
 21
11.173865
 31
0.0
  0
LINE
  5
CC
  8
0
 10
2.092849
 20
11.173865
 30
0.0
 11
2.092849
 21
11.2626
 31
0.0
  0
LINE
  5
CD
  8
0
 10
2.092849
 20
11.2626
 30
0.0
 11
2.092849
 21
12.317439
 31
0.0
  0
LINE
  5
CE
  8
0
 10
2.092849
 20
12.317439
 30
0.0
 11
2.092849
 21
12.762897
 31
0.0
  0
LINE
  5
CF
  8
0
 10
2.092849
 20
12.762897
 30
0.0
 11
2.092849
 21
12.973865
 31
0.0
  0
LINE
  5
D0
  8
0
 10
2.092849
 20
12.973865
 30
0.0
 11
2.092849
 21
13.0626
 31
0.0
  0
LINE
  5
D1
  8
0
 10
2.092849
 20
13.0626
 30
0.0
 11
2.092849
 21
14.117439
 31
0.0
  0
LINE
  5
D2
  8
0
 10
2.092849
 20
14.117439
 30
0.0
 11
2.092849
 21
14.532032
 31
0.0
  0
LINE
  5
D3
  8
0
 10
2.092849
 20
14.532032
 30
0.0
 11
2.092849
 21
14.743
 31
0.0
  0
LINE
  5
D4
  8
0
 10
2.092849
 20
14.743
 30
0.0
 11
2.092849
 21
14.743703
 31
0.0
  0
LINE
  5
D5
  8
0
 10
2.592849
 20
0.437
 30
0.0
 11
2.592849
 21
0.526032
 31
0.0
  0
LINE
  5
D6
  8
0
 10
2.592849
 20
0.437
 30
0.0
 11
2.592849
 21
0.526032
 31
0.0
  0
LINE
  5
D7
  8
0
 10
2.592849
 20
0.526032
 30
0.0
 11
2.592849
 21
1.514065
 31
0.0
  0
LINE
  5
D8
  8
0
 10
2.592849
 20
1.514065
 30
0.0
 11
2.592849
 21
1.959226
 31
0.0
  0
LINE
  5
D9
  8
0
 10
2.592849
 20
1.959226
 30
0.0
 11
2.592849
 21
2.16949
 31
0.0
  0
LINE
  5
DA
  8
0
 10
2.592849
 20
2.16949
 30
0.0
 11
2.592849
 21
2.258523
 31
0.0
  0
LINE
  5
DB
  8
0
 10
2.592849
 20
2.258523
 30
0.0
 11
2.592849
 21
3.314065
 31
0.0
  0
LINE
  5
DC
  8
0
 10
2.592849
 20
3.314065
 30
0.0
 11
2.592849
 21
3.759226
 31
0.0
  0
LINE
  5
DD
  8
0
 10
2.592849
 20
3.759226
 30
0.0
 11
2.592849
 21
3.96949
 31
0.0
  0
LINE
  5
DE
  8
0
 10
2.592849
 20
3.96949
 30
0.0
 11
2.592849
 21
4.058523
 31
0.0
  0
LINE
  5
DF
  8
0
 10
2.592849
 20
4.058523
 30
0.0
 11
2.592849
 21
5.114065
 31
0.0
  0
LINE
  5
E0
  8
0
 10
2.592849
 20
5.114065
 30
0.0
 11
2.592849
 21
5.559226
 31
0.0
  0
LINE
  5
E1
  8
0
 10
2.592849
 20
5.559226
 30
0.0
 11
2.592849
 21
5.76949
 31
0.0
  0
LINE
  5
E2
  8
0
 10
2.592849
 20
5.76949
 30
0.0
 11
2.592849
 21
5.858523
 31
0.0
  0
LINE
  5
E3
  8
0
 10
2.592849
 20
5.858523
 30
0.0
 11
2.592849
 21
6.914065
 31
0.0
  0
LINE
  5
E4
  8
0
 10
2.592849
 20
6.914065
 30
0.0
 11
2.592849
 21
7.359226
 31
0.0
  0
LINE
  5
E5
  8
0
 10
2.592849
 20
7.359226
 30
0.0
 11
2.592849
 21
7.56949
 31
0.0
  0
LINE
  5
E6
  8
0
 10
2.592849
 20
7.56949
 30
0.0
 11
2.592849
 21
7.658523
 31
0.0
  0
LINE
  5
E7
  8
0
 10
2.592849
 20
7.658523
 30
0.0
 11
2.592849
 21
8.714065
 31
0.0
  0
LINE
  5
E8
  8
0
 10
2.592849
 20
8.714065
 30
0.0
 11
2.592849
 21
9.159226
 31
0.0
  0
LINE
  5
E9
  8
0
 10
2.592849
 20
9.159226
 30
0.0
 11
2.592849
 21
9.36949
 31
0.0
  0
LINE
  5
EA
  8
0
 10
2.592849
 20
9.36949
 30
0.0
 11
2.592849
 21
9.458523
 31
0.0
  0
LINE
  5
EB
  8
0
 10
2.592849
 20
9.458523
 30
0.0
 11
2.592849
 21
10.514065
 31
0.0
  0
LINE
  5
EC
  8
0
 10
2.592849
 20
10.514065
 30
0.0
 11
2.592849
 21
10.959226
 31
0.0
  0
LINE
  5
ED
  8
0
 10
2.592849
 20
10.959226
 30
0.0
 11
2.592849
 21
11.16949
 31
0.0
  0
LINE
  5
EE
  8
0
 10
2.592849
 20
11.16949
 30
0.0
 11
2.592849
 21
11.258523
 31
0.0
  0
LINE
  5
EF
  8
0
 10
2.592849
 20
11.258523
 30
0.0
 11
2.592849
 21
12.314065
 31
0.0
  0
LINE
  5
F0
  8
0
 10
2.592849
 20
12.314065
 30
0.0
 11
2.592849
 21
12.759226
 31
0.0
  0
LINE
  5
F1
  8
0
 10
2.592849
 20
12.759226
 30
0.0
 11
2.592849
 21
12.96949
 31
0.0
  0
LINE
  5
F2
  8
0
 10
2.592849
 20
12.96949
 30
0.0
 11
2.592849
 21
13.058523
 31
0.0
  0
LINE
  5
F3
  8
0
 10
2.592849
 20
13.058523
 30
0.0
 11
2.592849
 21
14.114065
 31
0.0
  0
LINE
  5
F4
  8
0
 10
2.592849
 20
14.114065
 30
0.0
 11
2.592849
 21
14.531032
 31
0.0
  0
LINE
  5
F5
  8
0
 10
2.592849
 20
14.531032
 30
0.0
 11
2.592849
 21
14.742
 31
0.0
  0
LINE
  5
F6
  8
0
 10
3.092849
 20
0.453
 30
0.0
 11
3.092849
 21
0.542032
 31
0.0
  0
LINE
  5
F7
  8
0
 10
3.092849
 20
0.453
 30
0.0
 11
3.092849
 21
0.542032
 31
0.0
  0
LINE
  5
F8
  8
0
 10
3.092849
 20
0.542032
 30
0.0
 11
3.092849
 21
1.506155
 31
0.0
  0
LINE
  5
F9
  8
0
 10
3.092849
 20
1.506155
 30
0.0
 11
3.092849
 21
1.951316
 31
0.0
  0
LINE
  5
FA
  8
0
 10
3.092849
 20
1.951316
 30
0.0
 11
3.092849
 21
2.162284
 31
0.0
  0
LINE
  5
FB
  8
0
 10
3.092849
 20
2.162284
 30
0.0
 11
3.092849
 21
2.251316
 31
0.0
  0
LINE
  5
FC
  8
0
 10
3.092849
 20
2.251316
 30
0.0
 11
3.092849
 21
3.306155
 31
0.0
  0
LINE
  5
FD
  8
0
 10
3.092849
 20
3.306155
 30
0.0
 11
3.092849
 21
3.751316
 31
0.0
  0
LINE
  5
FE
  8
0
 10
3.092849
 20
3.751316
 30
0.0
 11
3.092849
 21
3.962284
 31
0.0
  0
LINE
  5
FF
  8
0
 10
3.092849
 20
3.962284
 30
0.0
 11
3.092849
 21
4.051316
 31
0.0
  0
LINE
  5
100
  8
0
 10
3.092849
 20
4.051316
 30
0.0
 11
3.092849
 21
5.106155
 31
0.0
  0
LINE
  5
101
  8
0
 10
3.092849
 20
5.106155
 30
0.0
 11
3.092849
 21
5.551316
 31
0.0
  0
LINE
  5
102
  8
0
 10
3.092849
 20
5.551316
 30
0.0
 11
3.092849
 21
5.762284
 31
0.0
  0
LINE
  5
103
  8
0
 10
3.092849
 20
5.762284
 30
0.0
 11
3.092849
 21
5.851316
 31
0.0
  0
LINE
  5
104
  8
0
 10
3.092849
 20
5.851316
 30
0.0
 11
3.092849
 21
6.906155
 31
0.0
  0
LINE
  5
105
  8
0
 10
3.092849
 20
6.906155
 30
0.0
 11
3.092849
 21
7.351316
 31
0.0
  0
LINE
  5
106
  8
0
 10
3.092849
 20
7.351316
 30
0.0
 11
3.092849
 21
7.562284
 31
0.0
  0
LINE
  5
107
  8
0
 10
3.092849
 20
7.562284
 30
0.0
 11
3.092849
 21
7.651316
 31
0.0
  0
LINE
  5
108
  8
0
 10
3.092849
 20
7.651316
 30
0.0
 11
3.092849
 21
8.706155
 31
0.0
  0
LINE
  5
109
  8
0
 10
3.092849
 20
8.706155
 30
0.0
 11
3.092849
 21
9.151316
 31
0.0
  0
LINE
  5
10A
  8
0
 10
3.092849
 20
9.151316
 30
0.0
 11
3.092849
 21
9.362284
 31
0.0
  0
LINE
  5
10B
  8
0
 10
3.092849
 20
9.362284
 30
0.0
 11
3.092849
 21
9.451316
 31
0.0
  0
LINE
  5
10C
  8
0
 10
3.092849
 20
9.451316
 30
0.0
 11
3.092849
 21
10.506155
 31
0.0
  0
LINE
  5
10D
  8
0
 10
3.092849
 20
10.506155
 30
0.0
 11
3.092849
 21
10.951316
 31
0.0
  0
LINE
  5
10E
  8
0
 10
3.092849
 20
10.951316
 30
0.0
 11
3.092849
 21
11.162284
 31
0.0
  0
LINE
  5
10F
  8
0
 10
3.092849
 20
11.162284
 30
0.0
 11
3.092849
 21
11.251316
 31
0.0
  0
LINE
  5
110
  8
0
 10
3.092849
 20
11.251316
 30
0.0
 11
3.092849
 21
12.306155
 31
0.0
  0
LINE
  5
111
  8
0
 10
3.092849
 20
12.306155
 30
0.0
 11
3.092849
 21
12.751316
 31
0.0
  0
LINE
  5
112
  8
0
 10
3.092849
 20
12.751316
 30
0.0
 11
3.092849
 21
12.962284
 31
0.0
  0
LINE
  5
113
  8
0
 10
3.092849
 20
12.962284
 30
0.0
 11
3.092849
 21
13.051316
 31
0.0
  0
LINE
  5
114
  8
0
 10
3.092849
 20
13.051316
 30
0.0
 11
3.092849
 21
14.106155
 31
0.0
  0
LINE
  5
115
  8
0
 10
3.092849
 20
14.106155
 30
0.0
 11
3.092849
 21
14.513032
 31
0.0
  0
LINE
  5
116
  8
0
 10
3.092849
 20
14.513032
 30
0.0
 11
3.092849
 21
14.724
 31
0.0
  0
LINE
  5
117
  8
0
 10
3.592849
 20
0.469
 30
0.0
 11
3.592849
 21
0.558032
 31
0.0
  0
LINE
  5
118
  8
0
 10
3.592849
 20
0.469
 30
0.0
 11
3.592849
 21
0.558032
 31
0.0
  0
LINE
  5
119
  8
0
 10
3.592849
 20
0.558032
 30
0.0
 11
3.592849
 21
1.498948
 31
0.0
  0
LINE
  5
11A
  8
0
 10
3.592849
 20
1.498948
 30
0.0
 11
3.592849
 21
1.94411
 31
0.0
  0
LINE
  5
11B
  8
0
 10
3.592849
 20
1.94411
 30
0.0
 11
3.592849
 21
2.155077
 31
0.0
  0
LINE
  5
11C
  8
0
 10
3.592849
 20
2.155077
 30
0.0
 11
3.592849
 21
2.24411
 31
0.0
  0
LINE
  5
11D
  8
0
 10
3.592849
 20
2.24411
 30
0.0
 11
3.592849
 21
3.298948
 31
0.0
  0
LINE
  5
11E
  8
0
 10
3.592849
 20
3.298948
 30
0.0
 11
3.592849
 21
3.74411
 31
0.0
  0
LINE
  5
11F
  8
0
 10
3.592849
 20
3.74411
 30
0.0
 11
3.592849
 21
3.955077
 31
0.0
  0
LINE
  5
120
  8
0
 10
3.592849
 20
3.955077
 30
0.0
 11
3.592849
 21
4.04411
 31
0.0
  0
LINE
  5
121
  8
0
 10
3.592849
 20
4.04411
 30
0.0
 11
3.592849
 21
5.098948
 31
0.0
  0
LINE
  5
122
  8
0
 10
3.592849
 20
5.098948
 30
0.0
 11
3.592849
 21
5.54411
 31
0.0
  0
LINE
  5
123
  8
0
 10
3.592849
 20
5.54411
 30
0.0
 11
3.592849
 21
5.755077
 31
0.0
  0
LINE
  5
124
  8
0
 10
3.592849
 20
5.755077
 30
0.0
 11
3.592849
 21
5.84411
 31
0.0
  0
LINE
  5
125
  8
0
 10
3.592849
 20
5.84411
 30
0.0
 11
3.592849
 21
6.898948
 31
0.0
  0
LINE
  5
126
  8
0
 10
3.592849
 20
6.898948
 30
0.0
 11
3.592849
 21
7.34411
 31
0.0
  0
LINE
  5
127
  8
0
 10
3.592849
 20
7.34411
 30
0.0
 11
3.592849
 21
7.555077
 31
0.0
  0
LINE
  5
128
  8
0
 10
3.592849
 20
7.555077
 30
0.0
 11
3.592849
 21
7.64411
 31
0.0
  0
LINE
  5
129
  8
0
 10
3.592849
 20
7.64411
 30
0.0
 11
3.592849
 21
8.698948
 31
0.0
  0
LINE
  5
12A
  8
0
 10
3.592849
 20
8.698948
 30
0.0
 11
3.592849
 21
9.14411
 31
0.0
  0
LINE
  5
12B
  8
0
 10
3.592849
 20
9.14411
 30
0.0
 11
3.592849
 21
9.355077
 31
0.0
  0
LINE
  5
12C
  8
0
 10
3.592849
 20
9.355077
 30
0.0
 11
3.592849
 21
9.44411
 31
0.0
  0
LINE
  5
12D
  8
0
 10
3.592849
 20
9.44411
 30
0.0
 11
3.592849
 21
10.498948
 31
0.0
  0
LINE
  5
12E
  8
0
 10
3.592849
 20
10.498948
 30
0.0
 11
3.592849
 21
10.94411
 31
0.0
  0
LINE
  5
12F
  8
0
 10
3.592849
 20
10.94411
 30
0.0
 11
3.592849
 21
11.155077
 31
0.0
  0
LINE
  5
130
  8
0
 10
3.592849
 20
11.155077
 30
0.0
 11
3.592849
 21
11.24411
 31
0.0
  0
LINE
  5
131
  8
0
 10
3.592849
 20
11.24411
 30
0.0
 11
3.592849
 21
12.298948
 31
0.0
  0
LINE
  5
132
  8
0
 10
3.592849
 20
12.298948
 30
0.0
 11
3.592849
 21
12.74411
 31
0.0
  0
LINE
  5
133
  8
0
 10
3.592849
 20
12.74411
 30
0.0
 11
3.592849
 21
12.955077
 31
0.0
  0
LINE
  5
134
  8
0
 10
3.592849
 20
12.955077
 30
0.0
 11
3.592849
 21
13.04411
 31
0.0
  0
LINE
  5
135
  8
0
 10
3.592849
 20
13.04411
 30
0.0
 11
3.592849
 21
14.098948
 31
0.0
  0
LINE
  5
136
  8
0
 10
3.592849
 20
14.098948
 30
0.0
 11
3.592849
 21
14.496032
 31
0.0
  0
LINE
  5
137
  8
0
 10
3.592849
 20
14.496032
 30
0.0
 11
3.592849
 21
14.707
 31
0.0
  0
LINE
  5
138
  8
0
 10
4.092849
 20
0.484
 30
0.0
 11
4.092849
 21
0.573032
 31
0.0
  0
LINE
  5
139
  8
0
 10
4.092849
 20
0.484
 30
0.0
 11
4.092849
 21
0.573032
 31
0.0
  0
LINE
  5
13A
  8
0
 10
4.092849
 20
0.573032
 30
0.0
 11
4.092849
 21
1.490742
 31
0.0
  0
LINE
  5
13B
  8
0
 10
4.092849
 20
1.490742
 30
0.0
 11
4.092849
 21
1.9362
 31
0.0
  0
LINE
  5
13C
  8
0
 10
4.092849
 20
1.9362
 30
0.0
 11
4.092849
 21
2.147168
 31
0.0
  0
LINE
  5
13D
  8
0
 10
4.092849
 20
2.147168
 30
0.0
 11
4.092849
 21
2.235903
 31
0.0
  0
LINE
  5
13E
  8
0
 10
4.092849
 20
2.235903
 30
0.0
 11
4.092849
 21
3.290742
 31
0.0
  0
LINE
  5
13F
  8
0
 10
4.092849
 20
3.290742
 30
0.0
 11
4.092849
 21
3.7362
 31
0.0
  0
LINE
  5
140
  8
0
 10
4.092849
 20
3.7362
 30
0.0
 11
4.092849
 21
3.947168
 31
0.0
  0
LINE
  5
141
  8
0
 10
4.092849
 20
3.947168
 30
0.0
 11
4.092849
 21
4.035903
 31
0.0
  0
LINE
  5
142
  8
0
 10
4.092849
 20
4.035903
 30
0.0
 11
4.092849
 21
5.090742
 31
0.0
  0
LINE
  5
143
  8
0
 10
4.092849
 20
5.090742
 30
0.0
 11
4.092849
 21
5.5362
 31
0.0
  0
LINE
  5
144
  8
0
 10
4.092849
 20
5.5362
 30
0.0
 11
4.092849
 21
5.747168
 31
0.0
  0
LINE
  5
145
  8
0
 10
4.092849
 20
5.747168
 30
0.0
 11
4.092849
 21
5.835903
 31
0.0
  0
LINE
  5
146
  8
0
 10
4.092849
 20
5.835903
 30
0.0
 11
4.092849
 21
6.890742
 31
0.0
  0
LINE
  5
147
  8
0
 10
4.092849
 20
6.890742
 30
0.0
 11
4.092849
 21
7.3362
 31
0.0
  0
LINE
  5
148
  8
0
 10
4.092849
 20
7.3362
 30
0.0
 11
4.092849
 21
7.547168
 31
0.0
  0
LINE
  5
149
  8
0
 10
4.092849
 20
7.547168
 30
0.0
 11
4.092849
 21
7.635903
 31
0.0
  0
LINE
  5
14A
  8
0
 10
4.092849
 20
7.635903
 30
0.0
 11
4.092849
 21
8.690742
 31
0.0
  0
LINE
  5
14B
  8
0
 10
4.092849
 20
8.690742
 30
0.0
 11
4.092849
 21
9.1362
 31
0.0
  0
LINE
  5
14C
  8
0
 10
4.092849
 20
9.1362
 30
0.0
 11
4.092849
 21
9.347168
 31
0.0
  0
LINE
  5
14D
  8
0
 10
4.092849
 20
9.347168
 30
0.0
 11
4.092849
 21
9.435903
 31
0.0
  0
LINE
  5
14E
  8
0
 10
4.092849
 20
9.435903
 30
0.0
 11
4.092849
 21
10.490742
 31
0.0
  0
LINE
  5
14F
  8
0
 10
4.092849
 20
10.490742
 30
0.0
 11
4.092849
 21
10.9362
 31
0.0
  0
LINE
  5
150
  8
0
 10
4.092849
 20
10.9362
 30
0.0
 11
4.092849
 21
11.147168
 31
0.0
  0
LINE
  5
151
  8
0
 10
4.092849
 20
11.147168
 30
0.0
 11
4.092849
 21
11.235903
 31
0.0
  0
LINE
  5
152
  8
0
 10
4.092849
 20
11.235903
 30
0.0
 11
4.092849
 21
12.290742
 31
0.0
  0
LINE
  5
153
  8
0
 10
4.092849
 20
12.290742
 30
0.0
 11
4.092849
 21
12.7362
 31
0.0
  0
LINE
  5
154
  8
0
 10
4.092849
 20
12.7362
 30
0.0
 11
4.092849
 21
12.947168
 31
0.0
  0
LINE
  5
155
  8
0
 10
4.092849
 20
12.947168
 30
0.0
 11
4.092849
 21
13.035903
 31
0.0
  0
LINE
  5
156
  8
0
 10
4.092849
 20
13.035903
 30
0.0
 11
4.092849
 21
14.090742
 31
0.0
  0
LINE
  5
157
  8
0
 10
4.092849
 20
14.090742
 30
0.0
 11
4.092849
 21
14.478329
 31
0.0
  0
LINE
  5
158
  8
0
 10
4.092849
 20
14.478329
 30
0.0
 11
4.092849
 21
14.689297
 31
0.0
  0
LINE
  5
159
  8
0
 10
4.092849
 20
14.689297
 30
0.0
 11
4.092849
 21
14.69
 31
0.0
  0
LINE
  5
15A
  8
0
 10
4.592849
 20
0.5
 30
0.0
 11
4.592849
 21
0.589032
 31
0.0
  0
LINE
  5
15B
  8
0
 10
4.592849
 20
0.5
 30
0.0
 11
4.592849
 21
0.589032
 31
0.0
  0
LINE
  5
15C
  8
0
 10
4.592849
 20
0.589032
 30
0.0
 11
4.592849
 21
1.483535
 31
0.0
  0
LINE
  5
15D
  8
0
 10
4.592849
 20
1.483535
 30
0.0
 11
4.592849
 21
1.928697
 31
0.0
  0
LINE
  5
15E
  8
0
 10
4.592849
 20
1.928697
 30
0.0
 11
4.592849
 21
2.139665
 31
0.0
  0
LINE
  5
15F
  8
0
 10
4.592849
 20
2.139665
 30
0.0
 11
4.592849
 21
2.228697
 31
0.0
  0
LINE
  5
160
  8
0
 10
4.592849
 20
2.228697
 30
0.0
 11
4.592849
 21
3.283535
 31
0.0
  0
LINE
  5
161
  8
0
 10
4.592849
 20
3.283535
 30
0.0
 11
4.592849
 21
3.728697
 31
0.0
  0
LINE
  5
162
  8
0
 10
4.592849
 20
3.728697
 30
0.0
 11
4.592849
 21
3.939665
 31
0.0
  0
LINE
  5
163
  8
0
 10
4.592849
 20
3.939665
 30
0.0
 11
4.592849
 21
4.028697
 31
0.0
  0
LINE
  5
164
  8
0
 10
4.592849
 20
4.028697
 30
0.0
 11
4.592849
 21
5.083535
 31
0.0
  0
LINE
  5
165
  8
0
 10
4.592849
 20
5.083535
 30
0.0
 11
4.592849
 21
5.528697
 31
0.0
  0
LINE
  5
166
  8
0
 10
4.592849
 20
5.528697
 30
0.0
 11
4.592849
 21
5.739665
 31
0.0
  0
LINE
  5
167
  8
0
 10
4.592849
 20
5.739665
 30
0.0
 11
4.592849
 21
5.828697
 31
0.0
  0
LINE
  5
168
  8
0
 10
4.592849
 20
5.828697
 30
0.0
 11
4.592849
 21
6.883535
 31
0.0
  0
LINE
  5
169
  8
0
 10
4.592849
 20
6.883535
 30
0.0
 11
4.592849
 21
7.328697
 31
0.0
  0
LINE
  5
16A
  8
0
 10
4.592849
 20
7.328697
 30
0.0
 11
4.592849
 21
7.539665
 31
0.0
  0
LINE
  5
16B
  8
0
 10
4.592849
 20
7.539665
 30
0.0
 11
4.592849
 21
7.628697
 31
0.0
  0
LINE
  5
16C
  8
0
 10
4.592849
 20
7.628697
 30
0.0
 11
4.592849
 21
8.683535
 31
0.0
  0
LINE
  5
16D
  8
0
 10
4.592849
 20
8.683535
 30
0.0
 11
4.592849
 21
9.128697
 31
0.0
  0
LINE
  5
16E
  8
0
 10
4.592849
 20
9.128697
 30
0.0
 11
4.592849
 21
9.339665
 31
0.0
  0
LINE
  5
16F
  8
0
 10
4.592849
 20
9.339665
 30
0.0
 11
4.592849
 21
9.428697
 31
0.0
  0
LINE
  5
170
  8
0
 10
4.592849
 20
9.428697
 30
0.0
 11
4.592849
 21
10.483535
 31
0.0
  0
LINE
  5
171
  8
0
 10
4.592849
 20
10.483535
 30
0.0
 11
4.592849
 21
10.928697
 31
0.0
  0
LINE
  5
172
  8
0
 10
4.592849
 20
10.928697
 30
0.0
 11
4.592849
 21
11.139665
 31
0.0
  0
LINE
  5
173
  8
0
 10
4.592849
 20
11.139665
 30
0.0
 11
4.592849
 21
11.228697
 31
0.0
  0
LINE
  5
174
  8
0
 10
4.592849
 20
11.228697
 30
0.0
 11
4.592849
 21
12.283535
 31
0.0
  0
LINE
  5
175
  8
0
 10
4.592849
 20
12.283535
 30
0.0
 11
4.592849
 21
12.728697
 31
0.0
  0
LINE
  5
176
  8
0
 10
4.592849
 20
12.728697
 30
0.0
 11
4.592849
 21
12.939665
 31
0.0
  0
LINE
  5
177
  8
0
 10
4.592849
 20
12.939665
 30
0.0
 11
4.592849
 21
13.028697
 31
0.0
  0
LINE
  5
178
  8
0
 10
4.592849
 20
13.028697
 30
0.0
 11
4.592849
 21
14.083535
 31
0.0
  0
LINE
  5
179
  8
0
 10
4.592849
 20
14.083535
 30
0.0
 11
4.592849
 21
14.461032
 31
0.0
  0
LINE
  5
17A
  8
0
 10
4.592849
 20
14.461032
 30
0.0
 11
4.592849
 21
14.672
 31
0.0
  0
LINE
  5
17B
  8
0
 10
5.092849
 20
0.516
 30
0.0
 11
5.092849
 21
0.605032
 31
0.0
  0
LINE
  5
17C
  8
0
 10
5.092849
 20
0.516
 30
0.0
 11
5.092849
 21
0.605032
 31
0.0
  0
LINE
  5
17D
  8
0
 10
5.092849
 20
0.605032
 30
0.0
 11
5.092849
 21
1.476329
 31
0.0
  0
LINE
  5
17E
  8
0
 10
5.092849
 20
1.476329
 30
0.0
 11
5.092849
 21
1.92149
 31
0.0
  0
LINE
  5
17F
  8
0
 10
5.092849
 20
1.92149
 30
0.0
 11
5.092849
 21
2.132458
 31
0.0
  0
LINE
  5
180
  8
0
 10
5.092849
 20
2.132458
 30
0.0
 11
5.092849
 21
2.22149
 31
0.0
  0
LINE
  5
181
  8
0
 10
5.092849
 20
2.22149
 30
0.0
 11
5.092849
 21
3.276329
 31
0.0
  0
LINE
  5
182
  8
0
 10
5.092849
 20
3.276329
 30
0.0
 11
5.092849
 21
3.72149
 31
0.0
  0
LINE
  5
183
  8
0
 10
5.092849
 20
3.72149
 30
0.0
 11
5.092849
 21
3.932458
 31
0.0
  0
LINE
  5
184
  8
0
 10
5.092849
 20
3.932458
 30
0.0
 11
5.092849
 21
4.02149
 31
0.0
  0
LINE
  5
185
  8
0
 10
5.092849
 20
4.02149
 30
0.0
 11
5.092849
 21
5.076329
 31
0.0
  0
LINE
  5
186
  8
0
 10
5.092849
 20
5.076329
 30
0.0
 11
5.092849
 21
5.52149
 31
0.0
  0
LINE
  5
187
  8
0
 10
5.092849
 20
5.52149
 30
0.0
 11
5.092849
 21
5.732458
 31
0.0
  0
LINE
  5
188
  8
0
 10
5.092849
 20
5.732458
 30
0.0
 11
5.092849
 21
5.82149
 31
0.0
  0
LINE
  5
189
  8
0
 10
5.092849
 20
5.82149
 30
0.0
 11
5.092849
 21
6.876329
 31
0.0
  0
LINE
  5
18A
  8
0
 10
5.092849
 20
6.876329
 30
0.0
 11
5.092849
 21
7.32149
 31
0.0
  0
LINE
  5
18B
  8
0
 10
5.092849
 20
7.32149
 30
0.0
 11
5.092849
 21
7.532458
 31
0.0
  0
LINE
  5
18C
  8
0
 10
5.092849
 20
7.532458
 30
0.0
 11
5.092849
 21
7.62149
 31
0.0
  0
LINE
  5
18D
  8
0
 10
5.092849
 20
7.62149
 30
0.0
 11
5.092849
 21
8.676329
 31
0.0
  0
LINE
  5
18E
  8
0
 10
5.092849
 20
8.676329
 30
0.0
 11
5.092849
 21
9.12149
 31
0.0
  0
LINE
  5
18F
  8
0
 10
5.092849
 20
9.12149
 30
0.0
 11
5.092849
 21
9.332458
 31
0.0
  0
LINE
  5
190
  8
0
 10
5.092849
 20
9.332458
 30
0.0
 11
5.092849
 21
9.42149
 31
0.0
  0
LINE
  5
191
  8
0
 10
5.092849
 20
9.42149
 30
0.0
 11
5.092849
 21
10.476329
 31
0.0
  0
LINE
  5
192
  8
0
 10
5.092849
 20
10.476329
 30
0.0
 11
5.092849
 21
10.92149
 31
0.0
  0
LINE
  5
193
  8
0
 10
5.092849
 20
10.92149
 30
0.0
 11
5.092849
 21
11.132458
 31
0.0
  0
LINE
  5
194
  8
0
 10
5.092849
 20
11.132458
 30
0.0
 11
5.092849
 21
11.22149
 31
0.0
  0
LINE
  5
195
  8
0
 10
5.092849
 20
11.22149
 30
0.0
 11
5.092849
 21
12.276329
 31
0.0
  0
LINE
  5
196
  8
0
 10
5.092849
 20
12.276329
 30
0.0
 11
5.092849
 21
12.72149
 31
0.0
  0
LINE
  5
197
  8
0
 10
5.092849
 20
12.72149
 30
0.0
 11
5.092849
 21
12.932458
 31
0.0
  0
LINE
  5
198
  8
0
 10
5.092849
 20
12.932458
 30
0.0
 11
5.092849
 21
13.02149
 31
0.0
  0
LINE
  5
199
  8
0
 10
5.092849
 20
13.02149
 30
0.0
 11
5.092849
 21
14.076329
 31
0.0
  0
LINE
  5
19A
  8
0
 10
5.092849
 20
14.076329
 30
0.0
 11
5.092849
 21
14.444032
 31
0.0
  0
LINE
  5
19B
  8
0
 10
5.092849
 20
14.444032
 30
0.0
 11
5.092849
 21
14.655
 31
0.0
  0
LINE
  5
19C
  8
0
 10
5.592849
 20
0.532
 30
0.0
 11
5.592849
 21
0.621032
 31
0.0
  0
LINE
  5
19D
  8
0
 10
5.592849
 20
0.532
 30
0.0
 11
5.592849
 21
0.621032
 31
0.0
  0
LINE
  5
19E
  8
0
 10
5.592849
 20
0.621032
 30
0.0
 11
5.592849
 21
1.468419
 31
0.0
  0
LINE
  5
19F
  8
0
 10
5.592849
 20
1.468419
 30
0.0
 11
5.592849
 21
1.913581
 31
0.0
  0
LINE
  5
1A0
  8
0
 10
5.592849
 20
1.913581
 30
0.0
 11
5.592849
 21
2.124548
 31
0.0
  0
LINE
  5
1A1
  8
0
 10
5.592849
 20
2.124548
 30
0.0
 11
5.592849
 21
2.213581
 31
0.0
  0
LINE
  5
1A2
  8
0
 10
5.592849
 20
2.213581
 30
0.0
 11
5.592849
 21
3.268419
 31
0.0
  0
LINE
  5
1A3
  8
0
 10
5.592849
 20
3.268419
 30
0.0
 11
5.592849
 21
3.713581
 31
0.0
  0
LINE
  5
1A4
  8
0
 10
5.592849
 20
3.713581
 30
0.0
 11
5.592849
 21
3.924548
 31
0.0
  0
LINE
  5
1A5
  8
0
 10
5.592849
 20
3.924548
 30
0.0
 11
5.592849
 21
4.013581
 31
0.0
  0
LINE
  5
1A6
  8
0
 10
5.592849
 20
4.013581
 30
0.0
 11
5.592849
 21
5.068419
 31
0.0
  0
LINE
  5
1A7
  8
0
 10
5.592849
 20
5.068419
 30
0.0
 11
5.592849
 21
5.513581
 31
0.0
  0
LINE
  5
1A8
  8
0
 10
5.592849
 20
5.513581
 30
0.0
 11
5.592849
 21
5.724548
 31
0.0
  0
LINE
  5
1A9
  8
0
 10
5.592849
 20
5.724548
 30
0.0
 11
5.592849
 21
5.813581
 31
0.0
  0
LINE
  5
1AA
  8
0
 10
5.592849
 20
5.813581
 30
0.0
 11
5.592849
 21
6.868419
 31
0.0
  0
LINE
  5
1AB
  8
0
 10
5.592849
 20
6.868419
 30
0.0
 11
5.592849
 21
7.313581
 31
0.0
  0
LINE
  5
1AC
  8
0
 10
5.592849
 20
7.313581
 30
0.0
 11
5.592849
 21
7.524548
 31
0.0
  0
LINE
  5
1AD
  8
0
 10
5.592849
 20
7.524548
 30
0.0
 11
5.592849
 21
7.613581
 31
0.0
  0
LINE
  5
1AE
  8
0
 10
5.592849
 20
7.613581
 30
0.0
 11
5.592849
 21
8.668419
 31
0.0
  0
LINE
  5
1AF
  8
0
 10
5.592849
 20
8.668419
 30
0.0
 11
5.592849
 21
9.113581
 31
0.0
  0
LINE
  5
1B0
  8
0
 10
5.592849
 20
9.113581
 30
0.0
 11
5.592849
 21
9.324548
 31
0.0
  0
LINE
  5
1B1
  8
0
 10
5.592849
 20
9.324548
 30
0.0
 11
5.592849
 21
9.413581
 31
0.0
  0
LINE
  5
1B2
  8
0
 10
5.592849
 20
9.413581
 30
0.0
 11
5.592849
 21
10.468419
 31
0.0
  0
LINE
  5
1B3
  8
0
 10
5.592849
 20
10.468419
 30
0.0
 11
5.592849
 21
10.913581
 31
0.0
  0
LINE
  5
1B4
  8
0
 10
5.592849
 20
10.913581
 30
0.0
 11
5.592849
 21
11.124548
 31
0.0
  0
LINE
  5
1B5
  8
0
 10
5.592849
 20
11.124548
 30
0.0
 11
5.592849
 21
11.213581
 31
0.0
  0
LINE
  5
1B6
  8
0
 10
5.592849
 20
11.213581
 30
0.0
 11
5.592849
 21
12.268419
 31
0.0
  0
LINE
  5
1B7
  8
0
 10
5.592849
 20
12.268419
 30
0.0
 11
5.592849
 21
12.713581
 31
0.0
  0
LINE
  5
1B8
  8
0
 10
5.592849
 20
12.713581
 30
0.0
 11
5.592849
 21
12.924548
 31
0.0
  0
LINE
  5
1B9
  8
0
 10
5.592849
 20
12.924548
 30
0.0
 11
5.592849
 21
13.013581
 31
0.0
  0
LINE
  5
1BA
  8
0
 10
5.592849
 20
13.013581
 30
0.0
 11
5.592849
 21
14.068419
 31
0.0
  0
LINE
  5
1BB
  8
0
 10
5.592849
 20
14.068419
 30
0.0
 11
5.592849
 21
14.426032
 31
0.0
  0
LINE
  5
1BC
  8
0
 10
5.592849
 20
14.426032
 30
0.0
 11
5.592849
 21
14.637
 31
0.0
  0
LINE
  5
1BD
  8
0
 10
6.092849
 20
0.548
 30
0.0
 11
6.092849
 21
0.637032
 31
0.0
  0
LINE
  5
1BE
  8
0
 10
6.092849
 20
0.548
 30
0.0
 11
6.092849
 21
0.637032
 31
0.0
  0
LINE
  5
1BF
  8
0
 10
6.092849
 20
0.637032
 30
0.0
 11
6.092849
 21
1.464729
 31
0.0
  0
LINE
  5
1C0
  8
0
 10
6.092849
 20
1.464729
 30
0.0
 11
6.092849
 21
1.90989
 31
0.0
  0
LINE
  5
1C1
  8
0
 10
6.092849
 20
1.90989
 30
0.0
 11
6.092849
 21
2.120858
 31
0.0
  0
LINE
  5
1C2
  8
0
 10
6.092849
 20
2.120858
 30
0.0
 11
6.092849
 21
2.20989
 31
0.0
  0
LINE
  5
1C3
  8
0
 10
6.092849
 20
2.20989
 30
0.0
 11
6.092849
 21
3.264729
 31
0.0
  0
LINE
  5
1C4
  8
0
 10
6.092849
 20
3.264729
 30
0.0
 11
6.092849
 21
3.70989
 31
0.0
  0
LINE
  5
1C5
  8
0
 10
6.092849
 20
3.70989
 30
0.0
 11
6.092849
 21
3.920858
 31
0.0
  0
LINE
  5
1C6
  8
0
 10
6.092849
 20
3.920858
 30
0.0
 11
6.092849
 21
4.00989
 31
0.0
  0
LINE
  5
1C7
  8
0
 10
6.092849
 20
4.00989
 30
0.0
 11
6.092849
 21
5.064729
 31
0.0
  0
LINE
  5
1C8
  8
0
 10
6.092849
 20
5.064729
 30
0.0
 11
6.092849
 21
5.50989
 31
0.0
  0
LINE
  5
1C9
  8
0
 10
6.092849
 20
5.50989
 30
0.0
 11
6.092849
 21
5.720858
 31
0.0
  0
LINE
  5
1CA
  8
0
 10
6.092849
 20
5.720858
 30
0.0
 11
6.092849
 21
5.80989
 31
0.0
  0
LINE
  5
1CB
  8
0
 10
6.092849
 20
5.80989
 30
0.0
 11
6.092849
 21
6.864729
 31
0.0
  0
LINE
  5
1CC
  8
0
 10
6.092849
 20
6.864729
 30
0.0
 11
6.092849
 21
7.30989
 31
0.0
  0
LINE
  5
1CD
  8
0
 10
6.092849
 20
7.30989
 30
0.0
 11
6.092849
 21
7.520858
 31
0.0
  0
LINE
  5
1CE
  8
0
 10
6.092849
 20
7.520858
 30
0.0
 11
6.092849
 21
7.60989
 31
0.0
  0
LINE
  5
1CF
  8
0
 10
6.092849
 20
7.60989
 30
0.0
 11
6.092849
 21
8.664729
 31
0.0
  0
LINE
  5
1D0
  8
0
 10
6.092849
 20
8.664729
 30
0.0
 11
6.092849
 21
9.10989
 31
0.0
  0
LINE
  5
1D1
  8
0
 10
6.092849
 20
9.10989
 30
0.0
 11
6.092849
 21
9.320858
 31
0.0
  0
LINE
  5
1D2
  8
0
 10
6.092849
 20
9.320858
 30
0.0
 11
6.092849
 21
9.40989
 31
0.0
  0
LINE
  5
1D3
  8
0
 10
6.092849
 20
9.40989
 30
0.0
 11
6.092849
 21
10.464729
 31
0.0
  0
LINE
  5
1D4
  8
0
 10
6.092849
 20
10.464729
 30
0.0
 11
6.092849
 21
10.90989
 31
0.0
  0
LINE
  5
1D5
  8
0
 10
6.092849
 20
10.90989
 30
0.0
 11
6.092849
 21
11.120858
 31
0.0
  0
LINE
  5
1D6
  8
0
 10
6.092849
 20
11.120858
 30
0.0
 11
6.092849
 21
11.20989
 31
0.0
  0
LINE
  5
1D7
  8
0
 10
6.092849
 20
11.20989
 30
0.0
 11
6.092849
 21
12.264729
 31
0.0
  0
LINE
  5
1D8
  8
0
 10
6.092849
 20
12.264729
 30
0.0
 11
6.092849
 21
12.70989
 31
0.0
  0
LINE
  5
1D9
  8
0
 10
6.092849
 20
12.70989
 30
0.0
 11
6.092849
 21
12.920858
 31
0.0
  0
LINE
  5
1DA
  8
0
 10
6.092849
 20
12.920858
 30
0.0
 11
6.092849
 21
13.00989
 31
0.0
  0
LINE
  5
1DB
  8
0
 10
6.092849
 20
13.00989
 30
0.0
 11
6.092849
 21
14.064729
 31
0.0
  0
LINE
  5
1DC
  8
0
 10
6.092849
 20
14.064729
 30
0.0
 11
6.092849
 21
14.414032
 31
0.0
  0
LINE
  5
1DD
  8
0
 10
6.092849
 20
14.414032
 30
0.0
 11
6.092849
 21
14.625
 31
0.0
  0
LINE
  5
1DE
  8
0
 10
6.592849
 20
0.563
 30
0.0
 11
6.592849
 21
0.652032
 31
0.0
  0
LINE
  5
1DF
  8
0
 10
6.592849
 20
0.563
 30
0.0
 11
6.592849
 21
0.652032
 31
0.0
  0
LINE
  5
1E0
  8
0
 10
6.592849
 20
0.652032
 30
0.0
 11
6.592849
 21
1.469884
 31
0.0
  0
LINE
  5
1E1
  8
0
 10
6.592849
 20
1.469884
 30
0.0
 11
6.592849
 21
1.915342
 31
0.0
  0
LINE
  5
1E2
  8
0
 10
6.592849
 20
1.915342
 30
0.0
 11
6.592849
 21
2.12631
 31
0.0
  0
LINE
  5
1E3
  8
0
 10
6.592849
 20
2.12631
 30
0.0
 11
6.592849
 21
2.215045
 31
0.0
  0
LINE
  5
1E4
  8
0
 10
6.592849
 20
2.215045
 30
0.0
 11
6.592849
 21
3.269884
 31
0.0
  0
LINE
  5
1E5
  8
0
 10
6.592849
 20
3.269884
 30
0.0
 11
6.592849
 21
3.715342
 31
0.0
  0
LINE
  5
1E6
  8
0
 10
6.592849
 20
3.715342
 30
0.0
 11
6.592849
 21
3.92631
 31
0.0
  0
LINE
  5
1E7
  8
0
 10
6.592849
 20
3.92631
 30
0.0
 11
6.592849
 21
4.015045
 31
0.0
  0
LINE
  5
1E8
  8
0
 10
6.592849
 20
4.015045
 30
0.0
 11
6.592849
 21
5.069884
 31
0.0
  0
LINE
  5
1E9
  8
0
 10
6.592849
 20
5.069884
 30
0.0
 11
6.592849
 21
5.515342
 31
0.0
  0
LINE
  5
1EA
  8
0
 10
6.592849
 20
5.515342
 30
0.0
 11
6.592849
 21
5.72631
 31
0.0
  0
LINE
  5
1EB
  8
0
 10
6.592849
 20
5.72631
 30
0.0
 11
6.592849
 21
5.815045
 31
0.0
  0
LINE
  5
1EC
  8
0
 10
6.592849
 20
5.815045
 30
0.0
 11
6.592849
 21
6.869884
 31
0.0
  0
LINE
  5
1ED
  8
0
 10
6.592849
 20
6.869884
 30
0.0
 11
6.592849
 21
7.315342
 31
0.0
  0
LINE
  5
1EE
  8
0
 10
6.592849
 20
7.315342
 30
0.0
 11
6.592849
 21
7.52631
 31
0.0
  0
LINE
  5
1EF
  8
0
 10
6.592849
 20
7.52631
 30
0.0
 11
6.592849
 21
7.615045
 31
0.0
  0
LINE
  5
1F0
  8
0
 10
6.592849
 20
7.615045
 30
0.0
 11
6.592849
 21
8.669884
 31
0.0
  0
LINE
  5
1F1
  8
0
 10
6.592849
 20
8.669884
 30
0.0
 11
6.592849
 21
9.115342
 31
0.0
  0
LINE
  5
1F2
  8
0
 10
6.592849
 20
9.115342
 30
0.0
 11
6.592849
 21
9.32631
 31
0.0
  0
LINE
  5
1F3
  8
0
 10
6.592849
 20
9.32631
 30
0.0
 11
6.592849
 21
9.415045
 31
0.0
  0
LINE
  5
1F4
  8
0
 10
6.592849
 20
9.415045
 30
0.0
 11
6.592849
 21
10.469884
 31
0.0
  0
LINE
  5
1F5
  8
0
 10
6.592849
 20
10.469884
 30
0.0
 11
6.592849
 21
10.915342
 31
0.0
  0
LINE
  5
1F6
  8
0
 10
6.592849
 20
10.915342
 30
0.0
 11
6.592849
 21
11.12631
 31
0.0
  0
LINE
  5
1F7
  8
0
 10
6.592849
 20
11.12631
 30
0.0
 11
6.592849
 21
11.215045
 31
0.0
  0
LINE
  5
1F8
  8
0
 10
6.592849
 20
11.215045
 30
0.0
 11
6.592849
 21
12.269884
 31
0.0
  0
LINE
  5
1F9
  8
0
 10
6.592849
 20
12.269884
 30
0.0
 11
6.592849
 21
12.715342
 31
0.0
  0
LINE
  5
1FA
  8
0
 10
6.592849
 20
12.715342
 30
0.0
 11
6.592849
 21
12.92631
 31
0.0
  0
LINE
  5
1FB
  8
0
 10
6.592849
 20
12.92631
 30
0.0
 11
6.592849
 21
13.015045
 31
0.0
  0
LINE
  5
1FC
  8
0
 10
6.592849
 20
13.015045
 30
0.0
 11
6.592849
 21
14.069884
 31
0.0
  0
LINE
  5
1FD
  8
0
 10
6.592849
 20
14.069884
 30
0.0
 11
6.592849
 21
14.415032
 31
0.0
  0
LINE
  5
1FE
  8
0
 10
6.592849
 20
14.415032
 30
0.0
 11
6.592849
 21
14.626
 31
0.0
  0
LINE
  5
1FF
  8
0
 10
7.092849
 20
0.579
 30
0.0
 11
7.092849
 21
0.668032
 31
0.0
  0
LINE
  5
200
  8
0
 10
7.092849
 20
0.579
 30
0.0
 11
7.092849
 21
0.668032
 31
0.0
  0
LINE
  5
201
  8
0
 10
7.092849
 20
0.668032
 30
0.0
 11
7.092849
 21
1.475335
 31
0.0
  0
LINE
  5
202
  8
0
 10
7.092849
 20
1.475335
 30
0.0
 11
7.092849
 21
1.920497
 31
0.0
  0
LINE
  5
203
  8
0
 10
7.092849
 20
1.920497
 30
0.0
 11
7.092849
 21
2.131465
 31
0.0
  0
LINE
  5
204
  8
0
 10
7.092849
 20
2.131465
 30
0.0
 11
7.092849
 21
2.220497
 31
0.0
  0
LINE
  5
205
  8
0
 10
7.092849
 20
2.220497
 30
0.0
 11
7.092849
 21
3.275335
 31
0.0
  0
LINE
  5
206
  8
0
 10
7.092849
 20
3.275335
 30
0.0
 11
7.092849
 21
3.720497
 31
0.0
  0
LINE
  5
207
  8
0
 10
7.092849
 20
3.720497
 30
0.0
 11
7.092849
 21
3.931465
 31
0.0
  0
LINE
  5
208
  8
0
 10
7.092849
 20
3.931465
 30
0.0
 11
7.092849
 21
4.020497
 31
0.0
  0
LINE
  5
209
  8
0
 10
7.092849
 20
4.020497
 30
0.0
 11
7.092849
 21
5.075335
 31
0.0
  0
LINE
  5
20A
  8
0
 10
7.092849
 20
5.075335
 30
0.0
 11
7.092849
 21
5.520497
 31
0.0
  0
LINE
  5
20B
  8
0
 10
7.092849
 20
5.520497
 30
0.0
 11
7.092849
 21
5.731465
 31
0.0
  0
LINE
  5
20C
  8
0
 10
7.092849
 20
5.731465
 30
0.0
 11
7.092849
 21
5.820497
 31
0.0
  0
LINE
  5
20D
  8
0
 10
7.092849
 20
5.820497
 30
0.0
 11
7.092849
 21
6.875335
 31
0.0
  0
LINE
  5
20E
  8
0
 10
7.092849
 20
6.875335
 30
0.0
 11
7.092849
 21
7.320497
 31
0.0
  0
LINE
  5
20F
  8
0
 10
7.092849
 20
7.320497
 30
0.0
 11
7.092849
 21
7.531465
 31
0.0
  0
LINE
  5
210
  8
0
 10
7.092849
 20
7.531465
 30
0.0
 11
7.092849
 21
7.620497
 31
0.0
  0
LINE
  5
211
  8
0
 10
7.092849
 20
7.620497
 30
0.0
 11
7.092849
 21
8.675335
 31
0.0
  0
LINE
  5
212
  8
0
 10
7.092849
 20
8.675335
 30
0.0
 11
7.092849
 21
9.120497
 31
0.0
  0
LINE
  5
213
  8
0
 10
7.092849
 20
9.120497
 30
0.0
 11
7.092849
 21
9.331465
 31
0.0
  0
LINE
  5
214
  8
0
 10
7.092849
 20
9.331465
 30
0.0
 11
7.092849
 21
9.420497
 31
0.0
  0
LINE
  5
215
  8
0
 10
7.092849
 20
9.420497
 30
0.0
 11
7.092849
 21
10.475335
 31
0.0
  0
LINE
  5
216
  8
0
 10
7.092849
 20
10.475335
 30
0.0
 11
7.092849
 21
10.920497
 31
0.0
  0
LINE
  5
217
  8
0
 10
7.092849
 20
10.920497
 30
0.0
 11
7.092849
 21
11.131465
 31
0.0
  0
LINE
  5
218
  8
0
 10
7.092849
 20
11.131465
 30
0.0
 11
7.092849
 21
11.220497
 31
0.0
  0
LINE
  5
219
  8
0
 10
7.092849
 20
11.220497
 30
0.0
 11
7.092849
 21
12.275335
 31
0.0
  0
LINE
  5
21A
  8
0
 10
7.092849
 20
12.275335
 30
0.0
 11
7.092849
 21
12.720497
 31
0.0
  0
LINE
  5
21B
  8
0
 10
7.092849
 20
12.720497
 30
0.0
 11
7.092849
 21
12.931465
 31
0.0
  0
LINE
  5
21C
  8
0
 10
7.092849
 20
12.931465
 30
0.0
 11
7.092849
 21
13.020497
 31
0.0
  0
LINE
  5
21D
  8
0
 10
7.092849
 20
13.020497
 30
0.0
 11
7.092849
 21
14.075335
 31
0.0
  0
LINE
  5
21E
  8
0
 10
7.092849
 20
14.075335
 30
0.0
 11
7.092849
 21
14.416032
 31
0.0
  0
LINE
  5
21F
  8
0
 10
7.092849
 20
14.416032
 30
0.0
 11
7.092849
 21
14.627
 31
0.0
  0
LINE
  5
220
  8
0
 10
7.592849
 20
0.574
 30
0.0
 11
7.592849
 21
0.574703
 31
0.0
  0
LINE
  5
221
  8
0
 10
7.592849
 20
0.574
 30
0.0
 11
7.592849
 21
0.574703
 31
0.0
  0
LINE
  5
222
  8
0
 10
7.592849
 20
0.574703
 30
0.0
 11
7.592849
 21
0.664032
 31
0.0
  0
LINE
  5
223
  8
0
 10
7.592849
 20
0.664032
 30
0.0
 11
7.592849
 21
1.474852
 31
0.0
  0
LINE
  5
224
  8
0
 10
7.592849
 20
1.474852
 30
0.0
 11
7.592849
 21
1.920013
 31
0.0
  0
LINE
  5
225
  8
0
 10
7.592849
 20
1.920013
 30
0.0
 11
7.592849
 21
2.130277
 31
0.0
  0
LINE
  5
226
  8
0
 10
7.592849
 20
2.130277
 30
0.0
 11
7.592849
 21
2.21931
 31
0.0
  0
LINE
  5
227
  8
0
 10
7.592849
 20
2.21931
 30
0.0
 11
7.592849
 21
3.274852
 31
0.0
  0
LINE
  5
228
  8
0
 10
7.592849
 20
3.274852
 30
0.0
 11
7.592849
 21
3.720013
 31
0.0
  0
LINE
  5
229
  8
0
 10
7.592849
 20
3.720013
 30
0.0
 11
7.592849
 21
3.930277
 31
0.0
  0
LINE
  5
22A
  8
0
 10
7.592849
 20
3.930277
 30
0.0
 11
7.592849
 21
4.01931
 31
0.0
  0
LINE
  5
22B
  8
0
 10
7.592849
 20
4.01931
 30
0.0
 11
7.592849
 21
5.074852
 31
0.0
  0
LINE
  5
22C
  8
0
 10
7.592849
 20
5.074852
 30
0.0
 11
7.592849
 21
5.520013
 31
0.0
  0
LINE
  5
22D
  8
0
 10
7.592849
 20
5.520013
 30
0.0
 11
7.592849
 21
5.730277
 31
0.0
  0
LINE
  5
22E
  8
0
 10
7.592849
 20
5.730277
 30
0.0
 11
7.592849
 21
5.81931
 31
0.0
  0
LINE
  5
22F
  8
0
 10
7.592849
 20
5.81931
 30
0.0
 11
7.592849
 21
6.874852
 31
0.0
  0
LINE
  5
230
  8
0
 10
7.592849
 20
6.874852
 30
0.0
 11
7.592849
 21
7.320013
 31
0.0
  0
LINE
  5
231
  8
0
 10
7.592849
 20
7.320013
 30
0.0
 11
7.592849
 21
7.530277
 31
0.0
  0
LINE
  5
232
  8
0
 10
7.592849
 20
7.530277
 30
0.0
 11
7.592849
 21
7.61931
 31
0.0
  0
LINE
  5
233
  8
0
 10
7.592849
 20
7.61931
 30
0.0
 11
7.592849
 21
8.674852
 31
0.0
  0
LINE
  5
234
  8
0
 10
7.592849
 20
8.674852
 30
0.0
 11
7.592849
 21
9.120013
 31
0.0
  0
LINE
  5
235
  8
0
 10
7.592849
 20
9.120013
 30
0.0
 11
7.592849
 21
9.330277
 31
0.0
  0
LINE
  5
236
  8
0
 10
7.592849
 20
9.330277
 30
0.0
 11
7.592849
 21
9.41931
 31
0.0
  0
LINE
  5
237
  8
0
 10
7.592849
 20
9.41931
 30
0.0
 11
7.592849
 21
10.474852
 31
0.0
  0
LINE
  5
238
  8
0
 10
7.592849
 20
10.474852
 30
0.0
 11
7.592849
 21
10.920013
 31
0.0
  0
LINE
  5
239
  8
0
 10
7.592849
 20
10.920013
 30
0.0
 11
7.592849
 21
11.130277
 31
0.0
  0
LINE
  5
23A
  8
0
 10
7.592849
 20
11.130277
 30
0.0
 11
7.592849
 21
11.21931
 31
0.0
  0
LINE
  5
23B
  8
0
 10
7.592849
 20
11.21931
 30
0.0
 11
7.592849
 21
12.274852
 31
0.0
  0
LINE
  5
23C
  8
0
 10
7.592849
 20
12.274852
 30
0.0
 11
7.592849
 21
12.720013
 31
0.0
  0
LINE
  5
23D
  8
0
 10
7.592849
 20
12.720013
 30
0.0
 11
7.592849
 21
12.930277
 31
0.0
  0
LINE
  5
23E
  8
0
 10
7.592849
 20
12.930277
 30
0.0
 11
7.592849
 21
13.01931
 31
0.0
  0
LINE
  5
23F
  8
0
 10
7.592849
 20
13.01931
 30
0.0
 11
7.592849
 21
14.074852
 31
0.0
  0
LINE
  5
240
  8
0
 10
7.592849
 20
14.074852
 30
0.0
 11
7.592849
 21
14.417032
 31
0.0
  0
LINE
  5
241
  8
0
 10
7.592849
 20
14.417032
 30
0.0
 11
7.592849
 21
14.628
 31
0.0
  0
LINE
  5
242
  8
0
 10
8.092849
 20
0.563
 30
0.0
 11
8.092849
 21
0.652032
 31
0.0
  0
LINE
  5
243
  8
0
 10
8.092849
 20
0.563
 30
0.0
 11
8.092849
 21
0.652032
 31
0.0
  0
LINE
  5
244
  8
0
 10
8.092849
 20
0.652032
 30
0.0
 11
8.092849
 21
1.47129
 31
0.0
  0
LINE
  5
245
  8
0
 10
8.092849
 20
1.47129
 30
0.0
 11
8.092849
 21
1.916452
 31
0.0
  0
LINE
  5
246
  8
0
 10
8.092849
 20
1.916452
 30
0.0
 11
8.092849
 21
2.127419
 31
0.0
  0
LINE
  5
247
  8
0
 10
8.092849
 20
2.127419
 30
0.0
 11
8.092849
 21
2.216452
 31
0.0
  0
LINE
  5
248
  8
0
 10
8.092849
 20
2.216452
 30
0.0
 11
8.092849
 21
3.27129
 31
0.0
  0
LINE
  5
249
  8
0
 10
8.092849
 20
3.27129
 30
0.0
 11
8.092849
 21
3.716452
 31
0.0
  0
LINE
  5
24A
  8
0
 10
8.092849
 20
3.716452
 30
0.0
 11
8.092849
 21
3.927419
 31
0.0
  0
LINE
  5
24B
  8
0
 10
8.092849
 20
3.927419
 30
0.0
 11
8.092849
 21
4.016452
 31
0.0
  0
LINE
  5
24C
  8
0
 10
8.092849
 20
4.016452
 30
0.0
 11
8.092849
 21
5.07129
 31
0.0
  0
LINE
  5
24D
  8
0
 10
8.092849
 20
5.07129
 30
0.0
 11
8.092849
 21
5.516452
 31
0.0
  0
LINE
  5
24E
  8
0
 10
8.092849
 20
5.516452
 30
0.0
 11
8.092849
 21
5.727419
 31
0.0
  0
LINE
  5
24F
  8
0
 10
8.092849
 20
5.727419
 30
0.0
 11
8.092849
 21
5.816452
 31
0.0
  0
LINE
  5
250
  8
0
 10
8.092849
 20
5.816452
 30
0.0
 11
8.092849
 21
6.87129
 31
0.0
  0
LINE
  5
251
  8
0
 10
8.092849
 20
6.87129
 30
0.0
 11
8.092849
 21
7.316452
 31
0.0
  0
LINE
  5
252
  8
0
 10
8.092849
 20
7.316452
 30
0.0
 11
8.092849
 21
7.527419
 31
0.0
  0
LINE
  5
253
  8
0
 10
8.092849
 20
7.527419
 30
0.0
 11
8.092849
 21
7.616452
 31
0.0
  0
LINE
  5
254
  8
0
 10
8.092849
 20
7.616452
 30
0.0
 11
8.092849
 21
8.67129
 31
0.0
  0
LINE
  5
255
  8
0
 10
8.092849
 20
8.67129
 30
0.0
 11
8.092849
 21
9.116452
 31
0.0
  0
LINE
  5
256
  8
0
 10
8.092849
 20
9.116452
 30
0.0
 11
8.092849
 21
9.327419
 31
0.0
  0
LINE
  5
257
  8
0
 10
8.092849
 20
9.327419
 30
0.0
 11
8.092849
 21
9.416452
 31
0.0
  0
LINE
  5
258
  8
0
 10
8.092849
 20
9.416452
 30
0.0
 11
8.092849
 21
10.47129
 31
0.0
  0
LINE
  5
259
  8
0
 10
8.092849
 20
10.47129
 30
0.0
 11
8.092849
 21
10.916452
 31
0.0
  0
LINE
  5
25A
  8
0
 10
8.092849
 20
10.916452
 30
0.0
 11
8.092849
 21
11.127419
 31
0.0
  0
LINE
  5
25B
  8
0
 10
8.092849
 20
11.127419
 30
0.0
 11
8.092849
 21
11.216452
 31
0.0
  0
LINE
  5
25C
  8
0
 10
8.092849
 20
11.216452
 30
0.0
 11
8.092849
 21
12.27129
 31
0.0
  0
LINE
  5
25D
  8
0
 10
8.092849
 20
12.27129
 30
0.0
 11
8.092849
 21
12.716452
 31
0.0
  0
LINE
  5
25E
  8
0
 10
8.092849
 20
12.716452
 30
0.0
 11
8.092849
 21
12.927419
 31
0.0
  0
LINE
  5
25F
  8
0
 10
8.092849
 20
12.927419
 30
0.0
 11
8.092849
 21
13.016452
 31
0.0
  0
LINE
  5
260
  8
0
 10
8.092849
 20
13.016452
 30
0.0
 11
8.092849
 21
14.07129
 31
0.0
  0
LINE
  5
261
  8
0
 10
8.092849
 20
14.07129
 30
0.0
 11
8.092849
 21
14.417032
 31
0.0
  0
LINE
  5
262
  8
0
 10
8.092849
 20
14.417032
 30
0.0
 11
8.092849
 21
14.628
 31
0.0
  0
LINE
  5
263
  8
0
 10
8.592849
 20
0.551
 30
0.0
 11
8.592849
 21
0.640032
 31
0.0
  0
LINE
  5
264
  8
0
 10
8.592849
 20
0.551
 30
0.0
 11
8.592849
 21
0.640032
 31
0.0
  0
LINE
  5
265
  8
0
 10
8.592849
 20
0.640032
 30
0.0
 11
8.592849
 21
1.468432
 31
0.0
  0
LINE
  5
266
  8
0
 10
8.592849
 20
1.468432
 30
0.0
 11
8.592849
 21
1.913594
 31
0.0
  0
LINE
  5
267
  8
0
 10
8.592849
 20
1.913594
 30
0.0
 11
8.592849
 21
2.124561
 31
0.0
  0
LINE
  5
268
  8
0
 10
8.592849
 20
2.124561
 30
0.0
 11
8.592849
 21
2.213594
 31
0.0
  0
LINE
  5
269
  8
0
 10
8.592849
 20
2.213594
 30
0.0
 11
8.592849
 21
3.268432
 31
0.0
  0
LINE
  5
26A
  8
0
 10
8.592849
 20
3.268432
 30
0.0
 11
8.592849
 21
3.713594
 31
0.0
  0
LINE
  5
26B
  8
0
 10
8.592849
 20
3.713594
 30
0.0
 11
8.592849
 21
3.924561
 31
0.0
  0
LINE
  5
26C
  8
0
 10
8.592849
 20
3.924561
 30
0.0
 11
8.592849
 21
4.013594
 31
0.0
  0
LINE
  5
26D
  8
0
 10
8.592849
 20
4.013594
 30
0.0
 11
8.592849
 21
5.068432
 31
0.0
  0
LINE
  5
26E
  8
0
 10
8.592849
 20
5.068432
 30
0.0
 11
8.592849
 21
5.513594
 31
0.0
  0
LINE
  5
26F
  8
0
 10
8.592849
 20
5.513594
 30
0.0
 11
8.592849
 21
5.724561
 31
0.0
  0
LINE
  5
270
  8
0
 10
8.592849
 20
5.724561
 30
0.0
 11
8.592849
 21
5.813594
 31
0.0
  0
LINE
  5
271
  8
0
 10
8.592849
 20
5.813594
 30
0.0
 11
8.592849
 21
6.868432
 31
0.0
  0
LINE
  5
272
  8
0
 10
8.592849
 20
6.868432
 30
0.0
 11
8.592849
 21
7.313594
 31
0.0
  0
LINE
  5
273
  8
0
 10
8.592849
 20
7.313594
 30
0.0
 11
8.592849
 21
7.524561
 31
0.0
  0
LINE
  5
274
  8
0
 10
8.592849
 20
7.524561
 30
0.0
 11
8.592849
 21
7.613594
 31
0.0
  0
LINE
  5
275
  8
0
 10
8.592849
 20
7.613594
 30
0.0
 11
8.592849
 21
8.668432
 31
0.0
  0
LINE
  5
276
  8
0
 10
8.592849
 20
8.668432
 30
0.0
 11
8.592849
 21
9.113594
 31
0.0
  0
LINE
  5
277
  8
0
 10
8.592849
 20
9.113594
 30
0.0
 11
8.592849
 21
9.324561
 31
0.0
  0
LINE
  5
278
  8
0
 10
8.592849
 20
9.324561
 30
0.0
 11
8.592849
 21
9.413594
 31
0.0
  0
LINE
  5
279
  8
0
 10
8.592849
 20
9.413594
 30
0.0
 11
8.592849
 21
10.468432
 31
0.0
  0
LINE
  5
27A
  8
0
 10
8.592849
 20
10.468432
 30
0.0
 11
8.592849
 21
10.913594
 31
0.0
  0
LINE
  5
27B
  8
0
 10
8.592849
 20
10.913594
 30
0.0
 11
8.592849
 21
11.124561
 31
0.0
  0
LINE
  5
27C
  8
0
 10
8.592849
 20
11.124561
 30
0.0
 11
8.592849
 21
11.213594
 31
0.0
  0
LINE
  5
27D
  8
0
 10
8.592849
 20
11.213594
 30
0.0
 11
8.592849
 21
12.268432
 31
0.0
  0
LINE
  5
27E
  8
0
 10
8.592849
 20
12.268432
 30
0.0
 11
8.592849
 21
12.713594
 31
0.0
  0
LINE
  5
27F
  8
0
 10
8.592849
 20
12.713594
 30
0.0
 11
8.592849
 21
12.924561
 31
0.0
  0
LINE
  5
280
  8
0
 10
8.592849
 20
12.924561
 30
0.0
 11
8.592849
 21
13.013594
 31
0.0
  0
LINE
  5
281
  8
0
 10
8.592849
 20
13.013594
 30
0.0
 11
8.592849
 21
14.068432
 31
0.0
  0
LINE
  5
282
  8
0
 10
8.592849
 20
14.068432
 30
0.0
 11
8.592849
 21
14.418032
 31
0.0
  0
LINE
  5
283
  8
0
 10
8.592849
 20
14.418032
 30
0.0
 11
8.592849
 21
14.629
 31
0.0
  0
LINE
  5
284
  8
0
 10
9.092849
 20
0.539
 30
0.0
 11
9.092849
 21
0.628032
 31
0.0
  0
LINE
  5
285
  8
0
 10
9.092849
 20
0.539
 30
0.0
 11
9.092849
 21
0.628032
 31
0.0
  0
LINE
  5
286
  8
0
 10
9.092849
 20
0.628032
 30
0.0
 11
9.092849
 21
1.465574
 31
0.0
  0
LINE
  5
287
  8
0
 10
9.092849
 20
1.465574
 30
0.0
 11
9.092849
 21
1.910735
 31
0.0
  0
LINE
  5
288
  8
0
 10
9.092849
 20
1.910735
 30
0.0
 11
9.092849
 21
2.121703
 31
0.0
  0
LINE
  5
289
  8
0
 10
9.092849
 20
2.121703
 30
0.0
 11
9.092849
 21
2.210735
 31
0.0
  0
LINE
  5
28A
  8
0
 10
9.092849
 20
2.210735
 30
0.0
 11
9.092849
 21
3.265574
 31
0.0
  0
LINE
  5
28B
  8
0
 10
9.092849
 20
3.265574
 30
0.0
 11
9.092849
 21
3.710735
 31
0.0
  0
LINE
  5
28C
  8
0
 10
9.092849
 20
3.710735
 30
0.0
 11
9.092849
 21
3.921703
 31
0.0
  0
LINE
  5
28D
  8
0
 10
9.092849
 20
3.921703
 30
0.0
 11
9.092849
 21
4.010735
 31
0.0
  0
LINE
  5
28E
  8
0
 10
9.092849
 20
4.010735
 30
0.0
 11
9.092849
 21
5.065574
 31
0.0
  0
LINE
  5
28F
  8
0
 10
9.092849
 20
5.065574
 30
0.0
 11
9.092849
 21
5.510735
 31
0.0
  0
LINE
  5
290
  8
0
 10
9.092849
 20
5.510735
 30
0.0
 11
9.092849
 21
5.721703
 31
0.0
  0
LINE
  5
291
  8
0
 10
9.092849
 20
5.721703
 30
0.0
 11
9.092849
 21
5.810735
 31
0.0
  0
LINE
  5
292
  8
0
 10
9.092849
 20
5.810735
 30
0.0
 11
9.092849
 21
6.865574
 31
0.0
  0
LINE
  5
293
  8
0
 10
9.092849
 20
6.865574
 30
0.0
 11
9.092849
 21
7.310735
 31
0.0
  0
LINE
  5
294
  8
0
 10
9.092849
 20
7.310735
 30
0.0
 11
9.092849
 21
7.521703
 31
0.0
  0
LINE
  5
295
  8
0
 10
9.092849
 20
7.521703
 30
0.0
 11
9.092849
 21
7.610735
 31
0.0
  0
LINE
  5
296
  8
0
 10
9.092849
 20
7.610735
 30
0.0
 11
9.092849
 21
8.665574
 31
0.0
  0
LINE
  5
297
  8
0
 10
9.092849
 20
8.665574
 30
0.0
 11
9.092849
 21
9.110735
 31
0.0
  0
LINE
  5
298
  8
0
 10
9.092849
 20
9.110735
 30
0.0
 11
9.092849
 21
9.321703
 31
0.0
  0
LINE
  5
299
  8
0
 10
9.092849
 20
9.321703
 30
0.0
 11
9.092849
 21
9.410735
 31
0.0
  0
LINE
  5
29A
  8
0
 10
9.092849
 20
9.410735
 30
0.0
 11
9.092849
 21
10.465574
 31
0.0
  0
LINE
  5
29B
  8
0
 10
9.092849
 20
10.465574
 30
0.0
 11
9.092849
 21
10.910735
 31
0.0
  0
LINE
  5
29C
  8
0
 10
9.092849
 20
10.910735
 30
0.0
 11
9.092849
 21
11.121703
 31
0.0
  0
LINE
  5
29D
  8
0
 10
9.092849
 20
11.121703
 30
0.0
 11
9.092849
 21
11.210735
 31
0.0
  0
LINE
  5
29E
  8
0
 10
9.092849
 20
11.210735
 30
0.0
 11
9.092849
 21
12.265574
 31
0.0
  0
LINE
  5
29F
  8
0
 10
9.092849
 20
12.265574
 30
0.0
 11
9.092849
 21
12.710735
 31
0.0
  0
LINE
  5
2A0
  8
0
 10
9.092849
 20
12.710735
 30
0.0
 11
9.092849
 21
12.921703
 31
0.0
  0
LINE
  5
2A1
  8
0
 10
9.092849
 20
12.921703
 30
0.0
 11
9.092849
 21
13.010735
 31
0.0
  0
LINE
  5
2A2
  8
0
 10
9.092849
 20
13.010735
 30
0.0
 11
9.092849
 21
14.065574
 31
0.0
  0
LINE
  5
2A3
  8
0
 10
9.092849
 20
14.065574
 30
0.0
 11
9.092849
 21
14.419032
 31
0.0
  0
LINE
  5
2A4
  8
0
 10
9.092849
 20
14.419032
 30
0.0
 11
9.092849
 21
14.63
 31
0.0
  0
LINE
  5
2A5
  8
0
 10
9.592849
 20
0.527
 30
0.0
 11
9.592849
 21
0.616032
 31
0.0
  0
LINE
  5
2A6
  8
0
 10
9.592849
 20
0.527
 30
0.0
 11
9.592849
 21
0.616032
 31
0.0
  0
LINE
  5
2A7
  8
0
 10
9.592849
 20
0.616032
 30
0.0
 11
9.592849
 21
1.462013
 31
0.0
  0
LINE
  5
2A8
  8
0
 10
9.592849
 20
1.462013
 30
0.0
 11
9.592849
 21
1.907174
 31
0.0
  0
LINE
  5
2A9
  8
0
 10
9.592849
 20
1.907174
 30
0.0
 11
9.592849
 21
2.118142
 31
0.0
  0
LINE
  5
2AA
  8
0
 10
9.592849
 20
2.118142
 30
0.0
 11
9.592849
 21
2.207174
 31
0.0
  0
LINE
  5
2AB
  8
0
 10
9.592849
 20
2.207174
 30
0.0
 11
9.592849
 21
3.262013
 31
0.0
  0
LINE
  5
2AC
  8
0
 10
9.592849
 20
3.262013
 30
0.0
 11
9.592849
 21
3.707174
 31
0.0
  0
LINE
  5
2AD
  8
0
 10
9.592849
 20
3.707174
 30
0.0
 11
9.592849
 21
3.918142
 31
0.0
  0
LINE
  5
2AE
  8
0
 10
9.592849
 20
3.918142
 30
0.0
 11
9.592849
 21
4.007174
 31
0.0
  0
LINE
  5
2AF
  8
0
 10
9.592849
 20
4.007174
 30
0.0
 11
9.592849
 21
5.062013
 31
0.0
  0
LINE
  5
2B0
  8
0
 10
9.592849
 20
5.062013
 30
0.0
 11
9.592849
 21
5.507174
 31
0.0
  0
LINE
  5
2B1
  8
0
 10
9.592849
 20
5.507174
 30
0.0
 11
9.592849
 21
5.718142
 31
0.0
  0
LINE
  5
2B2
  8
0
 10
9.592849
 20
5.718142
 30
0.0
 11
9.592849
 21
5.807174
 31
0.0
  0
LINE
  5
2B3
  8
0
 10
9.592849
 20
5.807174
 30
0.0
 11
9.592849
 21
6.862013
 31
0.0
  0
LINE
  5
2B4
  8
0
 10
9.592849
 20
6.862013
 30
0.0
 11
9.592849
 21
7.307174
 31
0.0
  0
LINE
  5
2B5
  8
0
 10
9.592849
 20
7.307174
 30
0.0
 11
9.592849
 21
7.518142
 31
0.0
  0
LINE
  5
2B6
  8
0
 10
9.592849
 20
7.518142
 30
0.0
 11
9.592849
 21
7.607174
 31
0.0
  0
LINE
  5
2B7
  8
0
 10
9.592849
 20
7.607174
 30
0.0
 11
9.592849
 21
8.662013
 31
0.0
  0
LINE
  5
2B8
  8
0
 10
9.592849
 20
8.662013
 30
0.0
 11
9.592849
 21
9.107174
 31
0.0
  0
LINE
  5
2B9
  8
0
 10
9.592849
 20
9.107174
 30
0.0
 11
9.592849
 21
9.318142
 31
0.0
  0
LINE
  5
2BA
  8
0
 10
9.592849
 20
9.318142
 30
0.0
 11
9.592849
 21
9.407174
 31
0.0
  0
LINE
  5
2BB
  8
0
 10
9.592849
 20
9.407174
 30
0.0
 11
9.592849
 21
10.462013
 31
0.0
  0
LINE
  5
2BC
  8
0
 10
9.592849
 20
10.462013
 30
0.0
 11
9.592849
 21
10.907174
 31
0.0
  0
LINE
  5
2BD
  8
0
 10
9.592849
 20
10.907174
 30
0.0
 11
9.592849
 21
11.118142
 31
0.0
  0
LINE
  5
2BE
  8
0
 10
9.592849
 20
11.118142
 30
0.0
 11
9.592849
 21
11.207174
 31
0.0
  0
LINE
  5
2BF
  8
0
 10
9.592849
 20
11.207174
 30
0.0
 11
9.592849
 21
12.262013
 31
0.0
  0
LINE
  5
2C0
  8
0
 10
9.592849
 20
12.262013
 30
0.0
 11
9.592849
 21
12.707174
 31
0.0
  0
LINE
  5
2C1
  8
0
 10
9.592849
 20
12.707174
 30
0.0
 11
9.592849
 21
12.918142
 31
0.0
  0
LINE
  5
2C2
  8
0
 10
9.592849
 20
12.918142
 30
0.0
 11
9.592849
 21
13.007174
 31
0.0
  0
LINE
  5
2C3
  8
0
 10
9.592849
 20
13.007174
 30
0.0
 11
9.592849
 21
14.062013
 31
0.0
  0
LINE
  5
2C4
  8
0
 10
9.592849
 20
14.062013
 30
0.0
 11
9.592849
 21
14.419032
 31
0.0
  0
LINE
  5
2C5
  8
0
 10
9.592849
 20
14.419032
 30
0.0
 11
9.592849
 21
14.63
 31
0.0
  0
LINE
  5
2C6
  8
0
 10
10.092849
 20
0.515
 30
0.0
 11
10.092849
 21
0.604032
 31
0.0
  0
LINE
  5
2C7
  8
0
 10
10.092849
 20
0.515
 30
0.0
 11
10.092849
 21
0.604032
 31
0.0
  0
LINE
  5
2C8
  8
0
 10
10.092849
 20
0.604032
 30
0.0
 11
10.092849
 21
1.459155
 31
0.0
  0
LINE
  5
2C9
  8
0
 10
10.092849
 20
1.459155
 30
0.0
 11
10.092849
 21
1.904316
 31
0.0
  0
LINE
  5
2CA
  8
0
 10
10.092849
 20
1.904316
 30
0.0
 11
10.092849
 21
2.115284
 31
0.0
  0
LINE
  5
2CB
  8
0
 10
10.092849
 20
2.115284
 30
0.0
 11
10.092849
 21
2.204316
 31
0.0
  0
LINE
  5
2CC
  8
0
 10
10.092849
 20
2.204316
 30
0.0
 11
10.092849
 21
3.259155
 31
0.0
  0
LINE
  5
2CD
  8
0
 10
10.092849
 20
3.259155
 30
0.0
 11
10.092849
 21
3.704316
 31
0.0
  0
LINE
  5
2CE
  8
0
 10
10.092849
 20
3.704316
 30
0.0
 11
10.092849
 21
3.915284
 31
0.0
  0
LINE
  5
2CF
  8
0
 10
10.092849
 20
3.915284
 30
0.0
 11
10.092849
 21
4.004316
 31
0.0
  0
LINE
  5
2D0
  8
0
 10
10.092849
 20
4.004316
 30
0.0
 11
10.092849
 21
5.059155
 31
0.0
  0
LINE
  5
2D1
  8
0
 10
10.092849
 20
5.059155
 30
0.0
 11
10.092849
 21
5.504316
 31
0.0
  0
LINE
  5
2D2
  8
0
 10
10.092849
 20
5.504316
 30
0.0
 11
10.092849
 21
5.715284
 31
0.0
  0
LINE
  5
2D3
  8
0
 10
10.092849
 20
5.715284
 30
0.0
 11
10.092849
 21
5.804316
 31
0.0
  0
LINE
  5
2D4
  8
0
 10
10.092849
 20
5.804316
 30
0.0
 11
10.092849
 21
6.859155
 31
0.0
  0
LINE
  5
2D5
  8
0
 10
10.092849
 20
6.859155
 30
0.0
 11
10.092849
 21
7.304316
 31
0.0
  0
LINE
  5
2D6
  8
0
 10
10.092849
 20
7.304316
 30
0.0
 11
10.092849
 21
7.515284
 31
0.0
  0
LINE
  5
2D7
  8
0
 10
10.092849
 20
7.515284
 30
0.0
 11
10.092849
 21
7.604316
 31
0.0
  0
LINE
  5
2D8
  8
0
 10
10.092849
 20
7.604316
 30
0.0
 11
10.092849
 21
8.659155
 31
0.0
  0
LINE
  5
2D9
  8
0
 10
10.092849
 20
8.659155
 30
0.0
 11
10.092849
 21
9.104316
 31
0.0
  0
LINE
  5
2DA
  8
0
 10
10.092849
 20
9.104316
 30
0.0
 11
10.092849
 21
9.315284
 31
0.0
  0
LINE
  5
2DB
  8
0
 10
10.092849
 20
9.315284
 30
0.0
 11
10.092849
 21
9.404316
 31
0.0
  0
LINE
  5
2DC
  8
0
 10
10.092849
 20
9.404316
 30
0.0
 11
10.092849
 21
10.459155
 31
0.0
  0
LINE
  5
2DD
  8
0
 10
10.092849
 20
10.459155
 30
0.0
 11
10.092849
 21
10.904316
 31
0.0
  0
LINE
  5
2DE
  8
0
 10
10.092849
 20
10.904316
 30
0.0
 11
10.092849
 21
11.115284
 31
0.0
  0
LINE
  5
2DF
  8
0
 10
10.092849
 20
11.115284
 30
0.0
 11
10.092849
 21
11.204316
 31
0.0
  0
LINE
  5
2E0
  8
0
 10
10.092849
 20
11.204316
 30
0.0
 11
10.092849
 21
12.259155
 31
0.0
  0
LINE
  5
2E1
  8
0
 10
10.092849
 20
12.259155
 30
0.0
 11
10.092849
 21
12.704316
 31
0.0
  0
LINE
  5
2E2
  8
0
 10
10.092849
 20
12.704316
 30
0.0
 11
10.092849
 21
12.915284
 31
0.0
  0
LINE
  5
2E3
  8
0
 10
10.092849
 20
12.915284
 30
0.0
 11
10.092849
 21
13.004316
 31
0.0
  0
LINE
  5
2E4
  8
0
 10
10.092849
 20
13.004316
 30
0.0
 11
10.092849
 21
14.059155
 31
0.0
  0
LINE
  5
2E5
  8
0
 10
10.092849
 20
14.059155
 30
0.0
 11
10.092849
 21
14.420032
 31
0.0
  0
LINE
  5
2E6
  8
0
 10
10.092849
 20
14.420032
 30
0.0
 11
10.092849
 21
14.631
 31
0.0
  0
LINE
  5
2E7
  8
0
 10
10.592849
 20
0.503
 30
0.0
 11
10.592849
 21
0.592032
 31
0.0
  0
LINE
  5
2E8
  8
0
 10
10.592849
 20
0.503
 30
0.0
 11
10.592849
 21
0.592032
 31
0.0
  0
LINE
  5
2E9
  8
0
 10
10.592849
 20
0.592032
 30
0.0
 11
10.592849
 21
1.456297
 31
0.0
  0
LINE
  5
2EA
  8
0
 10
10.592849
 20
1.456297
 30
0.0
 11
10.592849
 21
1.901458
 31
0.0
  0
LINE
  5
2EB
  8
0
 10
10.592849
 20
1.901458
 30
0.0
 11
10.592849
 21
2.112426
 31
0.0
  0
LINE
  5
2EC
  8
0
 10
10.592849
 20
2.112426
 30
0.0
 11
10.592849
 21
2.201458
 31
0.0
  0
LINE
  5
2ED
  8
0
 10
10.592849
 20
2.201458
 30
0.0
 11
10.592849
 21
3.256297
 31
0.0
  0
LINE
  5
2EE
  8
0
 10
10.592849
 20
3.256297
 30
0.0
 11
10.592849
 21
3.701458
 31
0.0
  0
LINE
  5
2EF
  8
0
 10
10.592849
 20
3.701458
 30
0.0
 11
10.592849
 21
3.912426
 31
0.0
  0
LINE
  5
2F0
  8
0
 10
10.592849
 20
3.912426
 30
0.0
 11
10.592849
 21
4.001458
 31
0.0
  0
LINE
  5
2F1
  8
0
 10
10.592849
 20
4.001458
 30
0.0
 11
10.592849
 21
5.056297
 31
0.0
  0
LINE
  5
2F2
  8
0
 10
10.592849
 20
5.056297
 30
0.0
 11
10.592849
 21
5.501458
 31
0.0
  0
LINE
  5
2F3
  8
0
 10
10.592849
 20
5.501458
 30
0.0
 11
10.592849
 21
5.712426
 31
0.0
  0
LINE
  5
2F4
  8
0
 10
10.592849
 20
5.712426
 30
0.0
 11
10.592849
 21
5.801458
 31
0.0
  0
LINE
  5
2F5
  8
0
 10
10.592849
 20
5.801458
 30
0.0
 11
10.592849
 21
6.856297
 31
0.0
  0
LINE
  5
2F6
  8
0
 10
10.592849
 20
6.856297
 30
0.0
 11
10.592849
 21
7.301458
 31
0.0
  0
LINE
  5
2F7
  8
0
 10
10.592849
 20
7.301458
 30
0.0
 11
10.592849
 21
7.512426
 31
0.0
  0
LINE
  5
2F8
  8
0
 10
10.592849
 20
7.512426
 30
0.0
 11
10.592849
 21
7.601458
 31
0.0
  0
LINE
  5
2F9
  8
0
 10
10.592849
 20
7.601458
 30
0.0
 11
10.592849
 21
8.656297
 31
0.0
  0
LINE
  5
2FA
  8
0
 10
10.592849
 20
8.656297
 30
0.0
 11
10.592849
 21
9.101458
 31
0.0
  0
LINE
  5
2FB
  8
0
 10
10.592849
 20
9.101458
 30
0.0
 11
10.592849
 21
9.312426
 31
0.0
  0
LINE
  5
2FC
  8
0
 10
10.592849
 20
9.312426
 30
0.0
 11
10.592849
 21
9.401458
 31
0.0
  0
LINE
  5
2FD
  8
0
 10
10.592849
 20
9.401458
 30
0.0
 11
10.592849
 21
10.456297
 31
0.0
  0
LINE
  5
2FE
  8
0
 10
10.592849
 20
10.456297
 30
0.0
 11
10.592849
 21
10.901458
 31
0.0
  0
LINE
  5
2FF
  8
0
 10
10.592849
 20
10.901458
 30
0.0
 11
10.592849
 21
11.112426
 31
0.0
  0
LINE
  5
300
  8
0
 10
10.592849
 20
11.112426
 30
0.0
 11
10.592849
 21
11.201458
 31
0.0
  0
LINE
  5
301
  8
0
 10
10.592849
 20
11.201458
 30
0.0
 11
10.592849
 21
12.256297
 31
0.0
  0
LINE
  5
302
  8
0
 10
10.592849
 20
12.256297
 30
0.0
 11
10.592849
 21
12.701458
 31
0.0
  0
LINE
  5
303
  8
0
 10
10.592849
 20
12.701458
 30
0.0
 11
10.592849
 21
12.912426
 31
0.0
  0
LINE
  5
304
  8
0
 10
10.592849
 20
12.912426
 30
0.0
 11
10.592849
 21
13.001458
 31
0.0
  0
LINE
  5
305
  8
0
 10
10.592849
 20
13.001458
 30
0.0
 11
10.592849
 21
14.056297
 31
0.0
  0
LINE
  5
306
  8
0
 10
10.592849
 20
14.056297
 30
0.0
 11
10.592849
 21
14.421032
 31
0.0
  0
LINE
  5
307
  8
0
 10
10.592849
 20
14.421032
 30
0.0
 11
10.592849
 21
14.632
 31
0.0
  0
LINE
  5
308
  8
0
 10
11.092849
 20
0.491
 30
0.0
 11
11.092849
 21
0.580032
 31
0.0
  0
LINE
  5
309
  8
0
 10
11.092849
 20
0.491
 30
0.0
 11
11.092849
 21
0.580032
 31
0.0
  0
LINE
  5
30A
  8
0
 10
11.092849
 20
0.580032
 30
0.0
 11
11.092849
 21
1.453439
 31
0.0
  0
LINE
  5
30B
  8
0
 10
11.092849
 20
1.453439
 30
0.0
 11
11.092849
 21
1.8986
 31
0.0
  0
LINE
  5
30C
  8
0
 10
11.092849
 20
1.8986
 30
0.0
 11
11.092849
 21
2.108865
 31
0.0
  0
LINE
  5
30D
  8
0
 10
11.092849
 20
2.108865
 30
0.0
 11
11.092849
 21
2.197897
 31
0.0
  0
LINE
  5
30E
  8
0
 10
11.092849
 20
2.197897
 30
0.0
 11
11.092849
 21
3.253439
 31
0.0
  0
LINE
  5
30F
  8
0
 10
11.092849
 20
3.253439
 30
0.0
 11
11.092849
 21
3.6986
 31
0.0
  0
LINE
  5
310
  8
0
 10
11.092849
 20
3.6986
 30
0.0
 11
11.092849
 21
3.908865
 31
0.0
  0
LINE
  5
311
  8
0
 10
11.092849
 20
3.908865
 30
0.0
 11
11.092849
 21
3.997897
 31
0.0
  0
LINE
  5
312
  8
0
 10
11.092849
 20
3.997897
 30
0.0
 11
11.092849
 21
5.053439
 31
0.0
  0
LINE
  5
313
  8
0
 10
11.092849
 20
5.053439
 30
0.0
 11
11.092849
 21
5.4986
 31
0.0
  0
LINE
  5
314
  8
0
 10
11.092849
 20
5.4986
 30
0.0
 11
11.092849
 21
5.708865
 31
0.0
  0
LINE
  5
315
  8
0
 10
11.092849
 20
5.708865
 30
0.0
 11
11.092849
 21
5.797897
 31
0.0
  0
LINE
  5
316
  8
0
 10
11.092849
 20
5.797897
 30
0.0
 11
11.092849
 21
6.853439
 31
0.0
  0
LINE
  5
317
  8
0
 10
11.092849
 20
6.853439
 30
0.0
 11
11.092849
 21
7.2986
 31
0.0
  0
LINE
  5
318
  8
0
 10
11.092849
 20
7.2986
 30
0.0
 11
11.092849
 21
7.508865
 31
0.0
  0
LINE
  5
319
  8
0
 10
11.092849
 20
7.508865
 30
0.0
 11
11.092849
 21
7.597897
 31
0.0
  0
LINE
  5
31A
  8
0
 10
11.092849
 20
7.597897
 30
0.0
 11
11.092849
 21
8.653439
 31
0.0
  0
LINE
  5
31B
  8
0
 10
11.092849
 20
8.653439
 30
0.0
 11
11.092849
 21
9.0986
 31
0.0
  0
LINE
  5
31C
  8
0
 10
11.092849
 20
9.0986
 30
0.0
 11
11.092849
 21
9.308865
 31
0.0
  0
LINE
  5
31D
  8
0
 10
11.092849
 20
9.308865
 30
0.0
 11
11.092849
 21
9.397897
 31
0.0
  0
LINE
  5
31E
  8
0
 10
11.092849
 20
9.397897
 30
0.0
 11
11.092849
 21
10.453439
 31
0.0
  0
LINE
  5
31F
  8
0
 10
11.092849
 20
10.453439
 30
0.0
 11
11.092849
 21
10.8986
 31
0.0
  0
LINE
  5
320
  8
0
 10
11.092849
 20
10.8986
 30
0.0
 11
11.092849
 21
11.108865
 31
0.0
  0
LINE
  5
321
  8
0
 10
11.092849
 20
11.108865
 30
0.0
 11
11.092849
 21
11.197897
 31
0.0
  0
LINE
  5
322
  8
0
 10
11.092849
 20
11.197897
 30
0.0
 11
11.092849
 21
12.253439
 31
0.0
  0
LINE
  5
323
  8
0
 10
11.092849
 20
12.253439
 30
0.0
 11
11.092849
 21
12.6986
 31
0.0
  0
LINE
  5
324
  8
0
 10
11.092849
 20
12.6986
 30
0.0
 11
11.092849
 21
12.908865
 31
0.0
  0
LINE
  5
325
  8
0
 10
11.092849
 20
12.908865
 30
0.0
 11
11.092849
 21
12.997897
 31
0.0
  0
LINE
  5
326
  8
0
 10
11.092849
 20
12.997897
 30
0.0
 11
11.092849
 21
14.053439
 31
0.0
  0
LINE
  5
327
  8
0
 10
11.092849
 20
14.053439
 30
0.0
 11
11.092849
 21
14.422032
 31
0.0
  0
LINE
  5
328
  8
0
 10
11.092849
 20
14.422032
 30
0.0
 11
11.092849
 21
14.633
 31
0.0
  0
LINE
  5
329
  8
0
 10
11.592849
 20
0.479
 30
0.0
 11
11.592849
 21
0.568032
 31
0.0
  0
LINE
  5
32A
  8
0
 10
11.592849
 20
0.479
 30
0.0
 11
11.592849
 21
0.568032
 31
0.0
  0
LINE
  5
32B
  8
0
 10
11.592849
 20
0.568032
 30
0.0
 11
11.592849
 21
1.449877
 31
0.0
  0
LINE
  5
32C
  8
0
 10
11.592849
 20
1.449877
 30
0.0
 11
11.592849
 21
1.895039
 31
0.0
  0
LINE
  5
32D
  8
0
 10
11.592849
 20
1.895039
 30
0.0
 11
11.592849
 21
2.106006
 31
0.0
  0
LINE
  5
32E
  8
0
 10
11.592849
 20
2.106006
 30
0.0
 11
11.592849
 21
2.195039
 31
0.0
  0
LINE
  5
32F
  8
0
 10
11.592849
 20
2.195039
 30
0.0
 11
11.592849
 21
3.249877
 31
0.0
  0
LINE
  5
330
  8
0
 10
11.592849
 20
3.249877
 30
0.0
 11
11.592849
 21
3.695039
 31
0.0
  0
LINE
  5
331
  8
0
 10
11.592849
 20
3.695039
 30
0.0
 11
11.592849
 21
3.906006
 31
0.0
  0
LINE
  5
332
  8
0
 10
11.592849
 20
3.906006
 30
0.0
 11
11.592849
 21
3.995039
 31
0.0
  0
LINE
  5
333
  8
0
 10
11.592849
 20
3.995039
 30
0.0
 11
11.592849
 21
5.049877
 31
0.0
  0
LINE
  5
334
  8
0
 10
11.592849
 20
5.049877
 30
0.0
 11
11.592849
 21
5.495039
 31
0.0
  0
LINE
  5
335
  8
0
 10
11.592849
 20
5.495039
 30
0.0
 11
11.592849
 21
5.706006
 31
0.0
  0
LINE
  5
336
  8
0
 10
11.592849
 20
5.706006
 30
0.0
 11
11.592849
 21
5.795039
 31
0.0
  0
LINE
  5
337
  8
0
 10
11.592849
 20
5.795039
 30
0.0
 11
11.592849
 21
6.849877
 31
0.0
  0
LINE
  5
338
  8
0
 10
11.592849
 20
6.849877
 30
0.0
 11
11.592849
 21
7.295039
 31
0.0
  0
LINE
  5
339
  8
0
 10
11.592849
 20
7.295039
 30
0.0
 11
11.592849
 21
7.506006
 31
0.0
  0
LINE
  5
33A
  8
0
 10
11.592849
 20
7.506006
 30
0.0
 11
11.592849
 21
7.595039
 31
0.0
  0
LINE
  5
33B
  8
0
 10
11.592849
 20
7.595039
 30
0.0
 11
11.592849
 21
8.649877
 31
0.0
  0
LINE
  5
33C
  8
0
 10
11.592849
 20
8.649877
 30
0.0
 11
11.592849
 21
9.095039
 31
0.0
  0
LINE
  5
33D
  8
0
 10
11.592849
 20
9.095039
 30
0.0
 11
11.592849
 21
9.306006
 31
0.0
  0
LINE
  5
33E
  8
0
 10
11.592849
 20
9.306006
 30
0.0
 11
11.592849
 21
9.395039
 31
0.0
  0
LINE
  5
33F
  8
0
 10
11.592849
 20
9.395039
 30
0.0
 11
11.592849
 21
10.449877
 31
0.0
  0
LINE
  5
340
  8
0
 10
11.592849
 20
10.449877
 30
0.0
 11
11.592849
 21
10.895039
 31
0.0
  0
LINE
  5
341
  8
0
 10
11.592849
 20
10.895039
 30
0.0
 11
11.592849
 21
11.106006
 31
0.0
  0
LINE
  5
342
  8
0
 10
11.592849
 20
11.106006
 30
0.0
 11
11.592849
 21
11.195039
 31
0.0
  0
LINE
  5
343
  8
0
 10
11.592849
 20
11.195039
 30
0.0
 11
11.592849
 21
12.249877
 31
0.0
  0
LINE
  5
344
  8
0
 10
11.592849
 20
12.249877
 30
0.0
 11
11.592849
 21
12.695039
 31
0.0
  0
LINE
  5
345
  8
0
 10
11.592849
 20
12.695039
 30
0.0
 11
11.592849
 21
12.906006
 31
0.0
  0
LINE
  5
346
  8
0
 10
11.592849
 20
12.906006
 30
0.0
 11
11.592849
 21
12.995039
 31
0.0
  0
LINE
  5
347
  8
0
 10
11.592849
 20
12.995039
 30
0.0
 11
11.592849
 21
14.049877
 31
0.0
  0
LINE
  5
348
  8
0
 10
11.592849
 20
14.049877
 30
0.0
 11
11.592849
 21
14.422032
 31
0.0
  0
LINE
  5
349
  8
0
 10
11.592849
 20
14.422032
 30
0.0
 11
11.592849
 21
14.633
 31
0.0
  0
LINE
  5
34A
  8
0
 10
12.092849
 20
0.467
 30
0.0
 11
12.092849
 21
0.556032
 31
0.0
  0
LINE
  5
34B
  8
0
 10
12.092849
 20
0.467
 30
0.0
 11
12.092849
 21
0.556032
 31
0.0
  0
LINE
  5
34C
  8
0
 10
12.092849
 20
0.556032
 30
0.0
 11
12.092849
 21
1.447019
 31
0.0
  0
LINE
  5
34D
  8
0
 10
12.092849
 20
1.447019
 30
0.0
 11
12.092849
 21
1.892181
 31
0.0
  0
LINE
  5
34E
  8
0
 10
12.092849
 20
1.892181
 30
0.0
 11
12.092849
 21
2.103148
 31
0.0
  0
LINE
  5
34F
  8
0
 10
12.092849
 20
2.103148
 30
0.0
 11
12.092849
 21
2.192181
 31
0.0
  0
LINE
  5
350
  8
0
 10
12.092849
 20
2.192181
 30
0.0
 11
12.092849
 21
3.247019
 31
0.0
  0
LINE
  5
351
  8
0
 10
12.092849
 20
3.247019
 30
0.0
 11
12.092849
 21
3.692181
 31
0.0
  0
LINE
  5
352
  8
0
 10
12.092849
 20
3.692181
 30
0.0
 11
12.092849
 21
3.903148
 31
0.0
  0
LINE
  5
353
  8
0
 10
12.092849
 20
3.903148
 30
0.0
 11
12.092849
 21
3.992181
 31
0.0
  0
LINE
  5
354
  8
0
 10
12.092849
 20
3.992181
 30
0.0
 11
12.092849
 21
5.047019
 31
0.0
  0
LINE
  5
355
  8
0
 10
12.092849
 20
5.047019
 30
0.0
 11
12.092849
 21
5.492181
 31
0.0
  0
LINE
  5
356
  8
0
 10
12.092849
 20
5.492181
 30
0.0
 11
12.092849
 21
5.703148
 31
0.0
  0
LINE
  5
357
  8
0
 10
12.092849
 20
5.703148
 30
0.0
 11
12.092849
 21
5.792181
 31
0.0
  0
LINE
  5
358
  8
0
 10
12.092849
 20
5.792181
 30
0.0
 11
12.092849
 21
6.847019
 31
0.0
  0
LINE
  5
359
  8
0
 10
12.092849
 20
6.847019
 30
0.0
 11
12.092849
 21
7.292181
 31
0.0
  0
LINE
  5
35A
  8
0
 10
12.092849
 20
7.292181
 30
0.0
 11
12.092849
 21
7.503148
 31
0.0
  0
LINE
  5
35B
  8
0
 10
12.092849
 20
7.503148
 30
0.0
 11
12.092849
 21
7.592181
 31
0.0
  0
LINE
  5
35C
  8
0
 10
12.092849
 20
7.592181
 30
0.0
 11
12.092849
 21
8.647019
 31
0.0
  0
LINE
  5
35D
  8
0
 10
12.092849
 20
8.647019
 30
0.0
 11
12.092849
 21
9.092181
 31
0.0
  0
LINE
  5
35E
  8
0
 10
12.092849
 20
9.092181
 30
0.0
 11
12.092849
 21
9.303148
 31
0.0
  0
LINE
  5
35F
  8
0
 10
12.092849
 20
9.303148
 30
0.0
 11
12.092849
 21
9.392181
 31
0.0
  0
LINE
  5
360
  8
0
 10
12.092849
 20
9.392181
 30
0.0
 11
12.092849
 21
10.447019
 31
0.0
  0
LINE
  5
361
  8
0
 10
12.092849
 20
10.447019
 30
0.0
 11
12.092849
 21
10.892181
 31
0.0
  0
LINE
  5
362
  8
0
 10
12.092849
 20
10.892181
 30
0.0
 11
12.092849
 21
11.103148
 31
0.0
  0
LINE
  5
363
  8
0
 10
12.092849
 20
11.103148
 30
0.0
 11
12.092849
 21
11.192181
 31
0.0
  0
LINE
  5
364
  8
0
 10
12.092849
 20
11.192181
 30
0.0
 11
12.092849
 21
12.247019
 31
0.0
  0
LINE
  5
365
  8
0
 10
12.092849
 20
12.247019
 30
0.0
 11
12.092849
 21
12.692181
 31
0.0
  0
LINE
  5
366
  8
0
 10
12.092849
 20
12.692181
 30
0.0
 11
12.092849
 21
12.903148
 31
0.0
  0
LINE
  5
367
  8
0
 10
12.092849
 20
12.903148
 30
0.0
 11
12.092849
 21
12.992181
 31
0.0
  0
LINE
  5
368
  8
0
 10
12.092849
 20
12.992181
 30
0.0
 11
12.092849
 21
14.047019
 31
0.0
  0
LINE
  5
369
  8
0
 10
12.092849
 20
14.047019
 30
0.0
 11
12.092849
 21
14.423032
 31
0.0
  0
LINE
  5
36A
  8
0
 10
12.092849
 20
14.423032
 30
0.0
 11
12.092849
 21
14.634
 31
0.0
  0
LINE
  5
36B
  8
0
 10
12.592849
 20
0.455
 30
0.0
 11
12.592849
 21
0.544032
 31
0.0
  0
LINE
  5
36C
  8
0
 10
12.592849
 20
0.455
 30
0.0
 11
12.592849
 21
0.544032
 31
0.0
  0
LINE
  5
36D
  8
0
 10
12.592849
 20
0.544032
 30
0.0
 11
12.592849
 21
1.444161
 31
0.0
  0
LINE
  5
36E
  8
0
 10
12.592849
 20
1.444161
 30
0.0
 11
12.592849
 21
1.889323
 31
0.0
  0
LINE
  5
36F
  8
0
 10
12.592849
 20
1.889323
 30
0.0
 11
12.592849
 21
2.10029
 31
0.0
  0
LINE
  5
370
  8
0
 10
12.592849
 20
2.10029
 30
0.0
 11
12.592849
 21
2.189323
 31
0.0
  0
LINE
  5
371
  8
0
 10
12.592849
 20
2.189323
 30
0.0
 11
12.592849
 21
3.244161
 31
0.0
  0
LINE
  5
372
  8
0
 10
12.592849
 20
3.244161
 30
0.0
 11
12.592849
 21
3.689323
 31
0.0
  0
LINE
  5
373
  8
0
 10
12.592849
 20
3.689323
 30
0.0
 11
12.592849
 21
3.90029
 31
0.0
  0
LINE
  5
374
  8
0
 10
12.592849
 20
3.90029
 30
0.0
 11
12.592849
 21
3.989323
 31
0.0
  0
LINE
  5
375
  8
0
 10
12.592849
 20
3.989323
 30
0.0
 11
12.592849
 21
5.044161
 31
0.0
  0
LINE
  5
376
  8
0
 10
12.592849
 20
5.044161
 30
0.0
 11
12.592849
 21
5.489323
 31
0.0
  0
LINE
  5
377
  8
0
 10
12.592849
 20
5.489323
 30
0.0
 11
12.592849
 21
5.70029
 31
0.0
  0
LINE
  5
378
  8
0
 10
12.592849
 20
5.70029
 30
0.0
 11
12.592849
 21
5.789323
 31
0.0
  0
LINE
  5
379
  8
0
 10
12.592849
 20
5.789323
 30
0.0
 11
12.592849
 21
6.844161
 31
0.0
  0
LINE
  5
37A
  8
0
 10
12.592849
 20
6.844161
 30
0.0
 11
12.592849
 21
7.289323
 31
0.0
  0
LINE
  5
37B
  8
0
 10
12.592849
 20
7.289323
 30
0.0
 11
12.592849
 21
7.50029
 31
0.0
  0
LINE
  5
37C
  8
0
 10
12.592849
 20
7.50029
 30
0.0
 11
12.592849
 21
7.589323
 31
0.0
  0
LINE
  5
37D
  8
0
 10
12.592849
 20
7.589323
 30
0.0
 11
12.592849
 21
8.644161
 31
0.0
  0
LINE
  5
37E
  8
0
 10
12.592849
 20
8.644161
 30
0.0
 11
12.592849
 21
9.089323
 31
0.0
  0
LINE
  5
37F
  8
0
 10
12.592849
 20
9.089323
 30
0.0
 11
12.592849
 21
9.30029
 31
0.0
  0
LINE
  5
380
  8
0
 10
12.592849
 20
9.30029
 30
0.0
 11
12.592849
 21
9.389323
 31
0.0
  0
LINE
  5
381
  8
0
 10
12.592849
 20
9.389323
 30
0.0
 11
12.592849
 21
10.444161
 31
0.0
  0
LINE
  5
382
  8
0
 10
12.592849
 20
10.444161
 30
0.0
 11
12.592849
 21
10.889323
 31
0.0
  0
LINE
  5
383
  8
0
 10
12.592849
 20
10.889323
 30
0.0
 11
12.592849
 21
11.10029
 31
0.0
  0
LINE
  5
384
  8
0
 10
12.592849
 20
11.10029
 30
0.0
 11
12.592849
 21
11.189323
 31
0.0
  0
LINE
  5
385
  8
0
 10
12.592849
 20
11.189323
 30
0.0
 11
12.592849
 21
12.244161
 31
0.0
  0
LINE
  5
386
  8
0
 10
12.592849
 20
12.244161
 30
0.0
 11
12.592849
 21
12.689323
 31
0.0
  0
LINE
  5
387
  8
0
 10
12.592849
 20
12.689323
 30
0.0
 11
12.592849
 21
12.90029
 31
0.0
  0
LINE
  5
388
  8
0
 10
12.592849
 20
12.90029
 30
0.0
 11
12.592849
 21
12.989323
 31
0.0
  0
LINE
  5
389
  8
0
 10
12.592849
 20
12.989323
 30
0.0
 11
12.592849
 21
14.044161
 31
0.0
  0
LINE
  5
38A
  8
0
 10
12.592849
 20
14.044161
 30
0.0
 11
12.592849
 21
14.424032
 31
0.0
  0
LINE
  5
38B
  8
0
 10
12.592849
 20
14.424032
 30
0.0
 11
12.592849
 21
14.635
 31
0.0
  0
LINE
  5
38C
  8
0
 10
13.092849
 20
0.455
 30
0.0
 11
13.092849
 21
0.544032
 31
0.0
  0
LINE
  5
38D
  8
0
 10
13.092849
 20
0.455
 30
0.0
 11
13.092849
 21
0.544032
 31
0.0
  0
LINE
  5
38E
  8
0
 10
13.092849
 20
0.544032
 30
0.0
 11
13.092849
 21
1.444865
 31
0.0
  0
LINE
  5
38F
  8
0
 10
13.092849
 20
1.444865
 30
0.0
 11
13.092849
 21
1.890026
 31
0.0
  0
LINE
  5
390
  8
0
 10
13.092849
 20
1.890026
 30
0.0
 11
13.092849
 21
2.10029
 31
0.0
  0
LINE
  5
391
  8
0
 10
13.092849
 20
2.10029
 30
0.0
 11
13.092849
 21
2.189323
 31
0.0
  0
LINE
  5
392
  8
0
 10
13.092849
 20
2.189323
 30
0.0
 11
13.092849
 21
3.244865
 31
0.0
  0
LINE
  5
393
  8
0
 10
13.092849
 20
3.244865
 30
0.0
 11
13.092849
 21
3.690026
 31
0.0
  0
LINE
  5
394
  8
0
 10
13.092849
 20
3.690026
 30
0.0
 11
13.092849
 21
3.90029
 31
0.0
  0
LINE
  5
395
  8
0
 10
13.092849
 20
3.90029
 30
0.0
 11
13.092849
 21
3.989323
 31
0.0
  0
LINE
  5
396
  8
0
 10
13.092849
 20
3.989323
 30
0.0
 11
13.092849
 21
5.044865
 31
0.0
  0
LINE
  5
397
  8
0
 10
13.092849
 20
5.044865
 30
0.0
 11
13.092849
 21
5.490026
 31
0.0
  0
LINE
  5
398
  8
0
 10
13.092849
 20
5.490026
 30
0.0
 11
13.092849
 21
5.70029
 31
0.0
  0
LINE
  5
399
  8
0
 10
13.092849
 20
5.70029
 30
0.0
 11
13.092849
 21
5.789323
 31
0.0
  0
LINE
  5
39A
  8
0
 10
13.092849
 20
5.789323
 30
0.0
 11
13.092849
 21
6.844865
 31
0.0
  0
LINE
  5
39B
  8
0
 10
13.092849
 20
6.844865
 30
0.0
 11
13.092849
 21
7.290026
 31
0.0
  0
LINE
  5
39C
  8
0
 10
13.092849
 20
7.290026
 30
0.0
 11
13.092849
 21
7.50029
 31
0.0
  0
LINE
  5
39D
  8
0
 10
13.092849
 20
7.50029
 30
0.0
 11
13.092849
 21
7.589323
 31
0.0
  0
LINE
  5
39E
  8
0
 10
13.092849
 20
7.589323
 30
0.0
 11
13.092849
 21
8.644865
 31
0.0
  0
LINE
  5
39F
  8
0
 10
13.092849
 20
8.644865
 30
0.0
 11
13.092849
 21
9.090026
 31
0.0
  0
LINE
  5
3A0
  8
0
 10
13.092849
 20
9.090026
 30
0.0
 11
13.092849
 21
9.30029
 31
0.0
  0
LINE
  5
3A1
  8
0
 10
13.092849
 20
9.30029
 30
0.0
 11
13.092849
 21
9.389323
 31
0.0
  0
LINE
  5
3A2
  8
0
 10
13.092849
 20
9.389323
 30
0.0
 11
13.092849
 21
10.444865
 31
0.0
  0
LINE
  5
3A3
  8
0
 10
13.092849
 20
10.444865
 30
0.0
 11
13.092849
 21
10.890026
 31
0.0
  0
LINE
  5
3A4
  8
0
 10
13.092849
 20
10.890026
 30
0.0
 11
13.092849
 21
11.10029
 31
0.0
  0
LINE
  5
3A5
  8
0
 10
13.092849
 20
11.10029
 30
0.0
 11
13.092849
 21
11.189323
 31
0.0
  0
LINE
  5
3A6
  8
0
 10
13.092849
 20
11.189323
 30
0.0
 11
13.092849
 21
12.244865
 31
0.0
  0
LINE
  5
3A7
  8
0
 10
13.092849
 20
12.244865
 30
0.0
 11
13.092849
 21
12.690026
 31
0.0
  0
LINE
  5
3A8
  8
0
 10
13.092849
 20
12.690026
 30
0.0
 11
13.092849
 21
12.90029
 31
0.0
  0
LINE
  5
3A9
  8
0
 10
13.092849
 20
12.90029
 30
0.0
 11
13.092849
 21
12.989323
 31
0.0
  0
LINE
  5
3AA
  8
0
 10
13.092849
 20
12.989323
 30
0.0
 11
13.092849
 21
14.044865
 31
0.0
  0
LINE
  5
3AB
  8
0
 10
13.092849
 20
14.044865
 30
0.0
 11
13.092849
 21
14.425032
 31
0.0
  0
LINE
  5
3AC
  8
0
 10
13.092849
 20
14.425032
 30
0.0
 11
13.092849
 21
14.635297
 31
0.0
  0
LINE
  5
3AD
  8
0
 10
13.092849
 20
14.635297
 30
0.0
 11
13.092849
 21
14.636
 31
0.0
  0
LINE
  5
3AE
  8
0
 10
13.592849
 20
0.523
 30
0.0
 11
13.592849
 21
0.612032
 31
0.0
  0
LINE
  5
3AF
  8
0
 10
13.592849
 20
0.523
 30
0.0
 11
13.592849
 21
0.612032
 31
0.0
  0
LINE
  5
3B0
  8
0
 10
13.592849
 20
0.612032
 30
0.0
 11
13.592849
 21
1.465045
 31
0.0
  0
LINE
  5
3B1
  8
0
 10
13.592849
 20
1.465045
 30
0.0
 11
13.592849
 21
1.910206
 31
0.0
  0
LINE
  5
3B2
  8
0
 10
13.592849
 20
1.910206
 30
0.0
 11
13.592849
 21
2.121174
 31
0.0
  0
LINE
  5
3B3
  8
0
 10
13.592849
 20
2.121174
 30
0.0
 11
13.592849
 21
2.210206
 31
0.0
  0
LINE
  5
3B4
  8
0
 10
13.592849
 20
2.210206
 30
0.0
 11
13.592849
 21
3.265045
 31
0.0
  0
LINE
  5
3B5
  8
0
 10
13.592849
 20
3.265045
 30
0.0
 11
13.592849
 21
3.710206
 31
0.0
  0
LINE
  5
3B6
  8
0
 10
13.592849
 20
3.710206
 30
0.0
 11
13.592849
 21
3.921174
 31
0.0
  0
LINE
  5
3B7
  8
0
 10
13.592849
 20
3.921174
 30
0.0
 11
13.592849
 21
4.010206
 31
0.0
  0
LINE
  5
3B8
  8
0
 10
13.592849
 20
4.010206
 30
0.0
 11
13.592849
 21
5.065045
 31
0.0
  0
LINE
  5
3B9
  8
0
 10
13.592849
 20
5.065045
 30
0.0
 11
13.592849
 21
5.510206
 31
0.0
  0
LINE
  5
3BA
  8
0
 10
13.592849
 20
5.510206
 30
0.0
 11
13.592849
 21
5.721174
 31
0.0
  0
LINE
  5
3BB
  8
0
 10
13.592849
 20
5.721174
 30
0.0
 11
13.592849
 21
5.810206
 31
0.0
  0
LINE
  5
3BC
  8
0
 10
13.592849
 20
5.810206
 30
0.0
 11
13.592849
 21
6.865045
 31
0.0
  0
LINE
  5
3BD
  8
0
 10
13.592849
 20
6.865045
 30
0.0
 11
13.592849
 21
7.310206
 31
0.0
  0
LINE
  5
3BE
  8
0
 10
13.592849
 20
7.310206
 30
0.0
 11
13.592849
 21
7.521174
 31
0.0
  0
LINE
  5
3BF
  8
0
 10
13.592849
 20
7.521174
 30
0.0
 11
13.592849
 21
7.610206
 31
0.0
  0
LINE
  5
3C0
  8
0
 10
13.592849
 20
7.610206
 30
0.0
 11
13.592849
 21
8.665045
 31
0.0
  0
LINE
  5
3C1
  8
0
 10
13.592849
 20
8.665045
 30
0.0
 11
13.592849
 21
9.110206
 31
0.0
  0
LINE
  5
3C2
  8
0
 10
13.592849
 20
9.110206
 30
0.0
 11
13.592849
 21
9.321174
 31
0.0
  0
LINE
  5
3C3
  8
0
 10
13.592849
 20
9.321174
 30
0.0
 11
13.592849
 21
9.410206
 31
0.0
  0
LINE
  5
3C4
  8
0
 10
13.592849
 20
9.410206
 30
0.0
 11
13.592849
 21
10.465045
 31
0.0
  0
LINE
  5
3C5
  8
0
 10
13.592849
 20
10.465045
 30
0.0
 11
13.592849
 21
10.910206
 31
0.0
  0
LINE
  5
3C6
  8
0
 10
13.592849
 20
10.910206
 30
0.0
 11
13.592849
 21
11.121174
 31
0.0
  0
LINE
  5
3C7
  8
0
 10
13.592849
 20
11.121174
 30
0.0
 11
13.592849
 21
11.210206
 31
0.0
  0
LINE
  5
3C8
  8
0
 10
13.592849
 20
11.210206
 30
0.0
 11
13.592849
 21
12.265045
 31
0.0
  0
LINE
  5
3C9
  8
0
 10
13.592849
 20
12.265045
 30
0.0
 11
13.592849
 21
12.710206
 31
0.0
  0
LINE
  5
3CA
  8
0
 10
13.592849
 20
12.710206
 30
0.0
 11
13.592849
 21
12.921174
 31
0.0
  0
LINE
  5
3CB
  8
0
 10
13.592849
 20
12.921174
 30
0.0
 11
13.592849
 21
13.010206
 31
0.0
  0
LINE
  5
3CC
  8
0
 10
13.592849
 20
13.010206
 30
0.0
 11
13.592849
 21
14.065045
 31
0.0
  0
LINE
  5
3CD
  8
0
 10
13.592849
 20
14.065045
 30
0.0
 11
13.592849
 21
14.425032
 31
0.0
  0
LINE
  5
3CE
  8
0
 10
13.592849
 20
14.425032
 30
0.0
 11
13.592849
 21
14.636
 31
0.0
  0
LINE
  5
3CF
  8
0
 10
14.092849
 20
0.654
 30
0.0
 11
14.092849
 21
0.743032
 31
0.0
  0
LINE
  5
3D0
  8
0
 10
14.092849
 20
0.654
 30
0.0
 11
14.092849
 21
0.743032
 31
0.0
  0
LINE
  5
3D1
  8
0
 10
14.092849
 20
0.743032
 30
0.0
 11
14.092849
 21
1.504626
 31
0.0
  0
LINE
  5
3D2
  8
0
 10
14.092849
 20
1.504626
 30
0.0
 11
14.092849
 21
1.949787
 31
0.0
  0
LINE
  5
3D3
  8
0
 10
14.092849
 20
1.949787
 30
0.0
 11
14.092849
 21
2.160755
 31
0.0
  0
LINE
  5
3D4
  8
0
 10
14.092849
 20
2.160755
 30
0.0
 11
14.092849
 21
2.249787
 31
0.0
  0
LINE
  5
3D5
  8
0
 10
14.092849
 20
2.249787
 30
0.0
 11
14.092849
 21
3.304626
 31
0.0
  0
LINE
  5
3D6
  8
0
 10
14.092849
 20
3.304626
 30
0.0
 11
14.092849
 21
3.749787
 31
0.0
  0
LINE
  5
3D7
  8
0
 10
14.092849
 20
3.749787
 30
0.0
 11
14.092849
 21
3.960755
 31
0.0
  0
LINE
  5
3D8
  8
0
 10
14.092849
 20
3.960755
 30
0.0
 11
14.092849
 21
4.049787
 31
0.0
  0
LINE
  5
3D9
  8
0
 10
14.092849
 20
4.049787
 30
0.0
 11
14.092849
 21
5.104626
 31
0.0
  0
LINE
  5
3DA
  8
0
 10
14.092849
 20
5.104626
 30
0.0
 11
14.092849
 21
5.549787
 31
0.0
  0
LINE
  5
3DB
  8
0
 10
14.092849
 20
5.549787
 30
0.0
 11
14.092849
 21
5.760755
 31
0.0
  0
LINE
  5
3DC
  8
0
 10
14.092849
 20
5.760755
 30
0.0
 11
14.092849
 21
5.849787
 31
0.0
  0
LINE
  5
3DD
  8
0
 10
14.092849
 20
5.849787
 30
0.0
 11
14.092849
 21
6.904626
 31
0.0
  0
LINE
  5
3DE
  8
0
 10
14.092849
 20
6.904626
 30
0.0
 11
14.092849
 21
7.349787
 31
0.0
  0
LINE
  5
3DF
  8
0
 10
14.092849
 20
7.349787
 30
0.0
 11
14.092849
 21
7.560755
 31
0.0
  0
LINE
  5
3E0
  8
0
 10
14.092849
 20
7.560755
 30
0.0
 11
14.092849
 21
7.649787
 31
0.0
  0
LINE
  5
3E1
  8
0
 10
14.092849
 20
7.649787
 30
0.0
 11
14.092849
 21
8.704626
 31
0.0
  0
LINE
  5
3E2
  8
0
 10
14.092849
 20
8.704626
 30
0.0
 11
14.092849
 21
9.149787
 31
0.0
  0
LINE
  5
3E3
  8
0
 10
14.092849
 20
9.149787
 30
0.0
 11
14.092849
 21
9.360755
 31
0.0
  0
LINE
  5
3E4
  8
0
 10
14.092849
 20
9.360755
 30
0.0
 11
14.092849
 21
9.449787
 31
0.0
  0
LINE
  5
3E5
  8
0
 10
14.092849
 20
9.449787
 30
0.0
 11
14.092849
 21
10.504626
 31
0.0
  0
LINE
  5
3E6
  8
0
 10
14.092849
 20
10.504626
 30
0.0
 11
14.092849
 21
10.949787
 31
0.0
  0
LINE
  5
3E7
  8
0
 10
14.092849
 20
10.949787
 30
0.0
 11
14.092849
 21
11.160755
 31
0.0
  0
LINE
  5
3E8
  8
0
 10
14.092849
 20
11.160755
 30
0.0
 11
14.092849
 21
11.249787
 31
0.0
  0
LINE
  5
3E9
  8
0
 10
14.092849
 20
11.249787
 30
0.0
 11
14.092849
 21
12.304626
 31
0.0
  0
LINE
  5
3EA
  8
0
 10
14.092849
 20
12.304626
 30
0.0
 11
14.092849
 21
12.749787
 31
0.0
  0
LINE
  5
3EB
  8
0
 10
14.092849
 20
12.749787
 30
0.0
 11
14.092849
 21
12.960755
 31
0.0
  0
LINE
  5
3EC
  8
0
 10
14.092849
 20
12.960755
 30
0.0
 11
14.092849
 21
13.049787
 31
0.0
  0
LINE
  5
3ED
  8
0
 10
14.092849
 20
13.049787
 30
0.0
 11
14.092849
 21
14.104626
 31
0.0
  0
LINE
  5
3EE
  8
0
 10
14.092849
 20
14.104626
 30
0.0
 11
14.092849
 21
14.426032
 31
0.0
  0
LINE
  5
3EF
  8
0
 10
14.092849
 20
14.426032
 30
0.0
 11
14.092849
 21
14.637
 31
0.0
  0
LINE
  5
3F0
  8
0
 10
14.592849
 20
1.226
 30
0.0
 11
14.592849
 21
1.315032
 31
0.0
  0
LINE
  5
3F1
  8
0
 10
14.592849
 20
1.226
 30
0.0
 11
14.592849
 21
1.315032
 31
0.0
  0
LINE
  5
3F2
  8
0
 10
14.592849
 20
1.315032
 30
0.0
 11
14.592849
 21
1.675084
 31
0.0
  0
LINE
  5
3F3
  8
0
 10
14.592849
 20
1.675084
 30
0.0
 11
14.592849
 21
1.886052
 31
0.0
  0
LINE
  5
3F4
  8
0
 10
14.592849
 20
1.886052
 30
0.0
 11
14.592849
 21
2.33151
 31
0.0
  0
LINE
  5
3F5
  8
0
 10
14.592849
 20
2.33151
 30
0.0
 11
14.592849
 21
3.386348
 31
0.0
  0
LINE
  5
3F6
  8
0
 10
14.592849
 20
3.386348
 30
0.0
 11
14.592849
 21
3.475084
 31
0.0
  0
LINE
  5
3F7
  8
0
 10
14.592849
 20
3.475084
 30
0.0
 11
14.592849
 21
3.686052
 31
0.0
  0
LINE
  5
3F8
  8
0
 10
14.592849
 20
3.686052
 30
0.0
 11
14.592849
 21
4.13151
 31
0.0
  0
LINE
  5
3F9
  8
0
 10
14.592849
 20
4.13151
 30
0.0
 11
14.592849
 21
5.186348
 31
0.0
  0
LINE
  5
3FA
  8
0
 10
14.592849
 20
5.186348
 30
0.0
 11
14.592849
 21
5.275084
 31
0.0
  0
LINE
  5
3FB
  8
0
 10
14.592849
 20
5.275084
 30
0.0
 11
14.592849
 21
5.486052
 31
0.0
  0
LINE
  5
3FC
  8
0
 10
14.592849
 20
5.486052
 30
0.0
 11
14.592849
 21
5.93151
 31
0.0
  0
LINE
  5
3FD
  8
0
 10
14.592849
 20
5.93151
 30
0.0
 11
14.592849
 21
6.986348
 31
0.0
  0
LINE
  5
3FE
  8
0
 10
14.592849
 20
6.986348
 30
0.0
 11
14.592849
 21
7.075084
 31
0.0
  0
LINE
  5
3FF
  8
0
 10
14.592849
 20
7.075084
 30
0.0
 11
14.592849
 21
7.286052
 31
0.0
  0
LINE
  5
400
  8
0
 10
14.592849
 20
7.286052
 30
0.0
 11
14.592849
 21
7.73151
 31
0.0
  0
LINE
  5
401
  8
0
 10
14.592849
 20
7.73151
 30
0.0
 11
14.592849
 21
8.786348
 31
0.0
  0
LINE
  5
402
  8
0
 10
14.592849
 20
8.786348
 30
0.0
 11
14.592849
 21
8.875084
 31
0.0
  0
LINE
  5
403
  8
0
 10
14.592849
 20
8.875084
 30
0.0
 11
14.592849
 21
9.086052
 31
0.0
  0
LINE
  5
404
  8
0
 10
14.592849
 20
9.086052
 30
0.0
 11
14.592849
 21
9.53151
 31
0.0
  0
LINE
  5
405
  8
0
 10
14.592849
 20
9.53151
 30
0.0
 11
14.592849
 21
10.586348
 31
0.0
  0
LINE
  5
406
  8
0
 10
14.592849
 20
10.586348
 30
0.0
 11
14.592849
 21
10.675084
 31
0.0
  0
LINE
  5
407
  8
0
 10
14.592849
 20
10.675084
 30
0.0
 11
14.592849
 21
10.886052
 31
0.0
  0
LINE
  5
408
  8
0
 10
14.592849
 20
10.886052
 30
0.0
 11
14.592849
 21
11.33151
 31
0.0
  0
LINE
  5
409
  8
0
 10
14.592849
 20
11.33151
 30
0.0
 11
14.592849
 21
12.386348
 31
0.0
  0
LINE
  5
40A
  8
0
 10
14.592849
 20
12.386348
 30
0.0
 11
14.592849
 21
12.475084
 31
0.0
  0
LINE
  5
40B
  8
0
 10
14.592849
 20
12.475084
 30
0.0
 11
14.592849
 21
12.686052
 31
0.0
  0
LINE
  5
40C
  8
0
 10
14.592849
 20
12.686052
 30
0.0
 11
14.592849
 21
13.13151
 31
0.0
  0
LINE
  5
40D
  8
0
 10
14.592849
 20
13.13151
 30
0.0
 11
14.592849
 21
14.186348
 31
0.0
  0
LINE
  5
40E
  8
0
 10
14.592849
 20
14.186348
 30
0.0
 11
14.592849
 21
14.275084
 31
0.0
  0
LINE
  5
40F
  8
0
 10
14.592849
 20
14.275084
 30
0.0
 11
14.592849
 21
14.427032
 31
0.0
  0
LINE
  5
410
  8
0
 10
14.592849
 20
14.427032
 30
0.0
 11
14.592849
 21
14.638
 31
0.0
  0
LINE
  5
411
  8
0
 10
1.234
 20
0.592238
 30
0.0
 11
1.262778
 21
0.592238
 31
0.0
  0
LINE
  5
412
  8
0
 10
1.234
 20
0.592238
 30
0.0
 11
1.262778
 21
0.592238
 31
0.0
  0
LINE
  5
413
  8
0
 10
1.262778
 20
0.592238
 30
0.0
 11
1.473774
 21
0.592238
 31
0.0
  0
LINE
  5
414
  8
0
 10
1.473774
 20
0.592238
 30
0.0
 11
1.918916
 21
0.592238
 31
0.0
  0
LINE
  5
415
  8
0
 10
1.918916
 20
0.592238
 30
0.0
 11
2.973755
 21
0.592238
 31
0.0
  0
LINE
  5
416
  8
0
 10
2.973755
 20
0.592238
 30
0.0
 11
3.062787
 21
0.592238
 31
0.0
  0
LINE
  5
417
  8
0
 10
3.062787
 20
0.592238
 30
0.0
 11
3.273755
 21
0.592238
 31
0.0
  0
LINE
  5
418
  8
0
 10
3.273755
 20
0.592238
 30
0.0
 11
3.718916
 21
0.592238
 31
0.0
  0
LINE
  5
419
  8
0
 10
3.718916
 20
0.592238
 30
0.0
 11
4.773755
 21
0.592238
 31
0.0
  0
LINE
  5
41A
  8
0
 10
4.773755
 20
0.592238
 30
0.0
 11
4.862787
 21
0.592238
 31
0.0
  0
LINE
  5
41B
  8
0
 10
4.862787
 20
0.592238
 30
0.0
 11
5.073755
 21
0.592238
 31
0.0
  0
LINE
  5
41C
  8
0
 10
5.073755
 20
0.592238
 30
0.0
 11
5.518916
 21
0.592238
 31
0.0
  0
LINE
  5
41D
  8
0
 10
5.518916
 20
0.592238
 30
0.0
 11
6.573755
 21
0.592238
 31
0.0
  0
LINE
  5
41E
  8
0
 10
6.573755
 20
0.592238
 30
0.0
 11
6.662787
 21
0.592238
 31
0.0
  0
LINE
  5
41F
  8
0
 10
6.662787
 20
0.592238
 30
0.0
 11
6.873755
 21
0.592238
 31
0.0
  0
LINE
  5
420
  8
0
 10
6.873755
 20
0.592238
 30
0.0
 11
7.076987
 21
0.592238
 31
0.0
  0
LINE
  5
421
  8
0
 10
7.076987
 20
0.592238
 30
0.0
 11
7.287252
 21
0.592238
 31
0.0
  0
LINE
  5
422
  8
0
 10
7.287252
 20
0.592238
 30
0.0
 11
7.732413
 21
0.592238
 31
0.0
  0
LINE
  5
423
  8
0
 10
7.732413
 20
0.592238
 30
0.0
 11
8.787955
 21
0.592238
 31
0.0
  0
LINE
  5
424
  8
0
 10
8.787955
 20
0.592238
 30
0.0
 11
8.876987
 21
0.592238
 31
0.0
  0
LINE
  5
425
  8
0
 10
8.876987
 20
0.592238
 30
0.0
 11
9.087252
 21
0.592238
 31
0.0
  0
LINE
  5
426
  8
0
 10
9.087252
 20
0.592238
 30
0.0
 11
9.532413
 21
0.592238
 31
0.0
  0
LINE
  5
427
  8
0
 10
9.532413
 20
0.592238
 30
0.0
 11
10.587955
 21
0.592238
 31
0.0
  0
LINE
  5
428
  8
0
 10
10.587955
 20
0.592238
 30
0.0
 11
10.676987
 21
0.592238
 31
0.0
  0
LINE
  5
429
  8
0
 10
10.676987
 20
0.592238
 30
0.0
 11
10.887252
 21
0.592238
 31
0.0
  0
LINE
  5
42A
  8
0
 10
10.887252
 20
0.592238
 30
0.0
 11
11.332413
 21
0.592238
 31
0.0
  0
LINE
  5
42B
  8
0
 10
11.332413
 20
0.592238
 30
0.0
 11
12.387955
 21
0.592238
 31
0.0
  0
LINE
  5
42C
  8
0
 10
12.387955
 20
0.592238
 30
0.0
 11
12.476987
 21
0.592238
 31
0.0
  0
LINE
  5
42D
  8
0
 10
12.476987
 20
0.592238
 30
0.0
 11
12.687252
 21
0.592238
 31
0.0
  0
LINE
  5
42E
  8
0
 10
12.687252
 20
0.592238
 30
0.0
 11
13.132413
 21
0.592238
 31
0.0
  0
LINE
  5
42F
  8
0
 10
13.132413
 20
0.592238
 30
0.0
 11
13.841968
 21
0.592238
 31
0.0
  0
LINE
  5
430
  8
0
 10
13.841968
 20
0.592238
 30
0.0
 11
13.931
 21
0.592238
 31
0.0
  0
LINE
  5
431
  8
0
 10
0.651
 20
1.092238
 30
0.0
 11
0.861968
 21
1.092238
 31
0.0
  0
LINE
  5
432
  8
0
 10
0.651
 20
1.092238
 30
0.0
 11
0.861968
 21
1.092238
 31
0.0
  0
LINE
  5
433
  8
0
 10
0.861968
 20
1.092238
 30
0.0
 11
1.154587
 21
1.092238
 31
0.0
  0
LINE
  5
434
  8
0
 10
1.154587
 20
1.092238
 30
0.0
 11
2.210129
 21
1.092238
 31
0.0
  0
LINE
  5
435
  8
0
 10
2.210129
 20
1.092238
 30
0.0
 11
2.299161
 21
1.092238
 31
0.0
  0
LINE
  5
436
  8
0
 10
2.299161
 20
1.092238
 30
0.0
 11
2.509426
 21
1.092238
 31
0.0
  0
LINE
  5
437
  8
0
 10
2.509426
 20
1.092238
 30
0.0
 11
2.954587
 21
1.092238
 31
0.0
  0
LINE
  5
438
  8
0
 10
2.954587
 20
1.092238
 30
0.0
 11
4.010129
 21
1.092238
 31
0.0
  0
LINE
  5
439
  8
0
 10
4.010129
 20
1.092238
 30
0.0
 11
4.099161
 21
1.092238
 31
0.0
  0
LINE
  5
43A
  8
0
 10
4.099161
 20
1.092238
 30
0.0
 11
4.309426
 21
1.092238
 31
0.0
  0
LINE
  5
43B
  8
0
 10
4.309426
 20
1.092238
 30
0.0
 11
4.754587
 21
1.092238
 31
0.0
  0
LINE
  5
43C
  8
0
 10
4.754587
 20
1.092238
 30
0.0
 11
5.810129
 21
1.092238
 31
0.0
  0
LINE
  5
43D
  8
0
 10
5.810129
 20
1.092238
 30
0.0
 11
5.899161
 21
1.092238
 31
0.0
  0
LINE
  5
43E
  8
0
 10
5.899161
 20
1.092238
 30
0.0
 11
6.109426
 21
1.092238
 31
0.0
  0
LINE
  5
43F
  8
0
 10
6.109426
 20
1.092238
 30
0.0
 11
6.554587
 21
1.092238
 31
0.0
  0
LINE
  5
440
  8
0
 10
6.554587
 20
1.092238
 30
0.0
 11
7.610129
 21
1.092238
 31
0.0
  0
LINE
  5
441
  8
0
 10
7.610129
 20
1.092238
 30
0.0
 11
7.699161
 21
1.092238
 31
0.0
  0
LINE
  5
442
  8
0
 10
7.699161
 20
1.092238
 30
0.0
 11
7.909426
 21
1.092238
 31
0.0
  0
LINE
  5
443
  8
0
 10
7.909426
 20
1.092238
 30
0.0
 11
8.354587
 21
1.092238
 31
0.0
  0
LINE
  5
444
  8
0
 10
8.354587
 20
1.092238
 30
0.0
 11
9.410129
 21
1.092238
 31
0.0
  0
LINE
  5
445
  8
0
 10
9.410129
 20
1.092238
 30
0.0
 11
9.499161
 21
1.092238
 31
0.0
  0
LINE
  5
446
  8
0
 10
9.499161
 20
1.092238
 30
0.0
 11
9.709426
 21
1.092238
 31
0.0
  0
LINE
  5
447
  8
0
 10
9.709426
 20
1.092238
 30
0.0
 11
10.154587
 21
1.092238
 31
0.0
  0
LINE
  5
448
  8
0
 10
10.154587
 20
1.092238
 30
0.0
 11
11.210129
 21
1.092238
 31
0.0
  0
LINE
  5
449
  8
0
 10
11.210129
 20
1.092238
 30
0.0
 11
11.299161
 21
1.092238
 31
0.0
  0
LINE
  5
44A
  8
0
 10
11.299161
 20
1.092238
 30
0.0
 11
11.509426
 21
1.092238
 31
0.0
  0
LINE
  5
44B
  8
0
 10
11.509426
 20
1.092238
 30
0.0
 11
11.954587
 21
1.092238
 31
0.0
  0
LINE
  5
44C
  8
0
 10
11.954587
 20
1.092238
 30
0.0
 11
13.010129
 21
1.092238
 31
0.0
  0
LINE
  5
44D
  8
0
 10
13.010129
 20
1.092238
 30
0.0
 11
13.099161
 21
1.092238
 31
0.0
  0
LINE
  5
44E
  8
0
 10
13.099161
 20
1.092238
 30
0.0
 11
13.309426
 21
1.092238
 31
0.0
  0
LINE
  5
44F
  8
0
 10
13.309426
 20
1.092238
 30
0.0
 11
13.754587
 21
1.092238
 31
0.0
  0
LINE
  5
450
  8
0
 10
13.754587
 20
1.092238
 30
0.0
 11
14.447968
 21
1.092238
 31
0.0
  0
LINE
  5
451
  8
0
 10
14.447968
 20
1.092238
 30
0.0
 11
14.537
 21
1.092238
 31
0.0
  0
LINE
  5
452
  8
0
 10
0.519
 20
1.592238
 30
0.0
 11
0.729968
 21
1.592238
 31
0.0
  0
LINE
  5
453
  8
0
 10
0.519
 20
1.592238
 30
0.0
 11
0.729968
 21
1.592238
 31
0.0
  0
LINE
  5
454
  8
0
 10
0.729968
 20
1.592238
 30
0.0
 11
1.099452
 21
1.592238
 31
0.0
  0
LINE
  5
455
  8
0
 10
1.099452
 20
1.592238
 30
0.0
 11
2.15429
 21
1.592238
 31
0.0
  0
LINE
  5
456
  8
0
 10
2.15429
 20
1.592238
 30
0.0
 11
2.243323
 21
1.592238
 31
0.0
  0
LINE
  5
457
  8
0
 10
2.243323
 20
1.592238
 30
0.0
 11
2.45429
 21
1.592238
 31
0.0
  0
LINE
  5
458
  8
0
 10
2.45429
 20
1.592238
 30
0.0
 11
2.899452
 21
1.592238
 31
0.0
  0
LINE
  5
459
  8
0
 10
2.899452
 20
1.592238
 30
0.0
 11
3.95429
 21
1.592238
 31
0.0
  0
LINE
  5
45A
  8
0
 10
3.95429
 20
1.592238
 30
0.0
 11
4.043323
 21
1.592238
 31
0.0
  0
LINE
  5
45B
  8
0
 10
4.043323
 20
1.592238
 30
0.0
 11
4.25429
 21
1.592238
 31
0.0
  0
LINE
  5
45C
  8
0
 10
4.25429
 20
1.592238
 30
0.0
 11
4.699452
 21
1.592238
 31
0.0
  0
LINE
  5
45D
  8
0
 10
4.699452
 20
1.592238
 30
0.0
 11
5.75429
 21
1.592238
 31
0.0
  0
LINE
  5
45E
  8
0
 10
5.75429
 20
1.592238
 30
0.0
 11
5.843323
 21
1.592238
 31
0.0
  0
LINE
  5
45F
  8
0
 10
5.843323
 20
1.592238
 30
0.0
 11
6.05429
 21
1.592238
 31
0.0
  0
LINE
  5
460
  8
0
 10
6.05429
 20
1.592238
 30
0.0
 11
6.499452
 21
1.592238
 31
0.0
  0
LINE
  5
461
  8
0
 10
6.499452
 20
1.592238
 30
0.0
 11
7.55429
 21
1.592238
 31
0.0
  0
LINE
  5
462
  8
0
 10
7.55429
 20
1.592238
 30
0.0
 11
7.643323
 21
1.592238
 31
0.0
  0
LINE
  5
463
  8
0
 10
7.643323
 20
1.592238
 30
0.0
 11
7.85429
 21
1.592238
 31
0.0
  0
LINE
  5
464
  8
0
 10
7.85429
 20
1.592238
 30
0.0
 11
8.299452
 21
1.592238
 31
0.0
  0
LINE
  5
465
  8
0
 10
8.299452
 20
1.592238
 30
0.0
 11
9.35429
 21
1.592238
 31
0.0
  0
LINE
  5
466
  8
0
 10
9.35429
 20
1.592238
 30
0.0
 11
9.443323
 21
1.592238
 31
0.0
  0
LINE
  5
467
  8
0
 10
9.443323
 20
1.592238
 30
0.0
 11
9.65429
 21
1.592238
 31
0.0
  0
LINE
  5
468
  8
0
 10
9.65429
 20
1.592238
 30
0.0
 11
10.099452
 21
1.592238
 31
0.0
  0
LINE
  5
469
  8
0
 10
10.099452
 20
1.592238
 30
0.0
 11
11.15429
 21
1.592238
 31
0.0
  0
LINE
  5
46A
  8
0
 10
11.15429
 20
1.592238
 30
0.0
 11
11.243323
 21
1.592238
 31
0.0
  0
LINE
  5
46B
  8
0
 10
11.243323
 20
1.592238
 30
0.0
 11
11.45429
 21
1.592238
 31
0.0
  0
LINE
  5
46C
  8
0
 10
11.45429
 20
1.592238
 30
0.0
 11
11.899452
 21
1.592238
 31
0.0
  0
LINE
  5
46D
  8
0
 10
11.899452
 20
1.592238
 30
0.0
 11
12.95429
 21
1.592238
 31
0.0
  0
LINE
  5
46E
  8
0
 10
12.95429
 20
1.592238
 30
0.0
 11
13.043323
 21
1.592238
 31
0.0
  0
LINE
  5
46F
  8
0
 10
13.043323
 20
1.592238
 30
0.0
 11
13.25429
 21
1.592238
 31
0.0
  0
LINE
  5
470
  8
0
 10
13.25429
 20
1.592238
 30
0.0
 11
13.699452
 21
1.592238
 31
0.0
  0
LINE
  5
471
  8
0
 10
13.699452
 20
1.592238
 30
0.0
 11
14.574968
 21
1.592238
 31
0.0
  0
LINE
  5
472
  8
0
 10
14.574968
 20
1.592238
 30
0.0
 11
14.664
 21
1.592238
 31
0.0
  0
LINE
  5
473
  8
0
 10
0.456
 20
2.092238
 30
0.0
 11
0.666968
 21
2.092238
 31
0.0
  0
LINE
  5
474
  8
0
 10
0.456
 20
2.092238
 30
0.0
 11
0.666968
 21
2.092238
 31
0.0
  0
LINE
  5
475
  8
0
 10
0.666968
 20
2.092238
 30
0.0
 11
1.074142
 21
2.092238
 31
0.0
  0
LINE
  5
476
  8
0
 10
1.074142
 20
2.092238
 30
0.0
 11
2.128981
 21
2.092238
 31
0.0
  0
LINE
  5
477
  8
0
 10
2.128981
 20
2.092238
 30
0.0
 11
2.218013
 21
2.092238
 31
0.0
  0
LINE
  5
478
  8
0
 10
2.218013
 20
2.092238
 30
0.0
 11
2.428981
 21
2.092238
 31
0.0
  0
LINE
  5
479
  8
0
 10
2.428981
 20
2.092238
 30
0.0
 11
2.874142
 21
2.092238
 31
0.0
  0
LINE
  5
47A
  8
0
 10
2.874142
 20
2.092238
 30
0.0
 11
3.928981
 21
2.092238
 31
0.0
  0
LINE
  5
47B
  8
0
 10
3.928981
 20
2.092238
 30
0.0
 11
4.018013
 21
2.092238
 31
0.0
  0
LINE
  5
47C
  8
0
 10
4.018013
 20
2.092238
 30
0.0
 11
4.228981
 21
2.092238
 31
0.0
  0
LINE
  5
47D
  8
0
 10
4.228981
 20
2.092238
 30
0.0
 11
4.674142
 21
2.092238
 31
0.0
  0
LINE
  5
47E
  8
0
 10
4.674142
 20
2.092238
 30
0.0
 11
5.728981
 21
2.092238
 31
0.0
  0
LINE
  5
47F
  8
0
 10
5.728981
 20
2.092238
 30
0.0
 11
5.818013
 21
2.092238
 31
0.0
  0
LINE
  5
480
  8
0
 10
5.818013
 20
2.092238
 30
0.0
 11
6.028981
 21
2.092238
 31
0.0
  0
LINE
  5
481
  8
0
 10
6.028981
 20
2.092238
 30
0.0
 11
6.474142
 21
2.092238
 31
0.0
  0
LINE
  5
482
  8
0
 10
6.474142
 20
2.092238
 30
0.0
 11
7.528981
 21
2.092238
 31
0.0
  0
LINE
  5
483
  8
0
 10
7.528981
 20
2.092238
 30
0.0
 11
7.618013
 21
2.092238
 31
0.0
  0
LINE
  5
484
  8
0
 10
7.618013
 20
2.092238
 30
0.0
 11
7.828981
 21
2.092238
 31
0.0
  0
LINE
  5
485
  8
0
 10
7.828981
 20
2.092238
 30
0.0
 11
8.274142
 21
2.092238
 31
0.0
  0
LINE
  5
486
  8
0
 10
8.274142
 20
2.092238
 30
0.0
 11
9.328981
 21
2.092238
 31
0.0
  0
LINE
  5
487
  8
0
 10
9.328981
 20
2.092238
 30
0.0
 11
9.418013
 21
2.092238
 31
0.0
  0
LINE
  5
488
  8
0
 10
9.418013
 20
2.092238
 30
0.0
 11
9.628981
 21
2.092238
 31
0.0
  0
LINE
  5
489
  8
0
 10
9.628981
 20
2.092238
 30
0.0
 11
10.074142
 21
2.092238
 31
0.0
  0
LINE
  5
48A
  8
0
 10
10.074142
 20
2.092238
 30
0.0
 11
11.128981
 21
2.092238
 31
0.0
  0
LINE
  5
48B
  8
0
 10
11.128981
 20
2.092238
 30
0.0
 11
11.218013
 21
2.092238
 31
0.0
  0
LINE
  5
48C
  8
0
 10
11.218013
 20
2.092238
 30
0.0
 11
11.428981
 21
2.092238
 31
0.0
  0
LINE
  5
48D
  8
0
 10
11.428981
 20
2.092238
 30
0.0
 11
11.874142
 21
2.092238
 31
0.0
  0
LINE
  5
48E
  8
0
 10
11.874142
 20
2.092238
 30
0.0
 11
12.928981
 21
2.092238
 31
0.0
  0
LINE
  5
48F
  8
0
 10
12.928981
 20
2.092238
 30
0.0
 11
13.018013
 21
2.092238
 31
0.0
  0
LINE
  5
490
  8
0
 10
13.018013
 20
2.092238
 30
0.0
 11
13.228981
 21
2.092238
 31
0.0
  0
LINE
  5
491
  8
0
 10
13.228981
 20
2.092238
 30
0.0
 11
13.674142
 21
2.092238
 31
0.0
  0
LINE
  5
492
  8
0
 10
13.674142
 20
2.092238
 30
0.0
 11
14.638968
 21
2.092238
 31
0.0
  0
LINE
  5
493
  8
0
 10
14.638968
 20
2.092238
 30
0.0
 11
14.728
 21
2.092238
 31
0.0
  0
LINE
  5
494
  8
0
 10
0.45
 20
2.592238
 30
0.0
 11
0.660968
 21
2.592238
 31
0.0
  0
LINE
  5
495
  8
0
 10
0.45
 20
2.592238
 30
0.0
 11
0.660968
 21
2.592238
 31
0.0
  0
LINE
  5
496
  8
0
 10
0.660968
 20
2.592238
 30
0.0
 11
1.073187
 21
2.592238
 31
0.0
  0
LINE
  5
497
  8
0
 10
1.073187
 20
2.592238
 30
0.0
 11
2.128729
 21
2.592238
 31
0.0
  0
LINE
  5
498
  8
0
 10
2.128729
 20
2.592238
 30
0.0
 11
2.217761
 21
2.592238
 31
0.0
  0
LINE
  5
499
  8
0
 10
2.217761
 20
2.592238
 30
0.0
 11
2.428026
 21
2.592238
 31
0.0
  0
LINE
  5
49A
  8
0
 10
2.428026
 20
2.592238
 30
0.0
 11
2.873187
 21
2.592238
 31
0.0
  0
LINE
  5
49B
  8
0
 10
2.873187
 20
2.592238
 30
0.0
 11
3.928729
 21
2.592238
 31
0.0
  0
LINE
  5
49C
  8
0
 10
3.928729
 20
2.592238
 30
0.0
 11
4.017761
 21
2.592238
 31
0.0
  0
LINE
  5
49D
  8
0
 10
4.017761
 20
2.592238
 30
0.0
 11
4.228026
 21
2.592238
 31
0.0
  0
LINE
  5
49E
  8
0
 10
4.228026
 20
2.592238
 30
0.0
 11
4.673187
 21
2.592238
 31
0.0
  0
LINE
  5
49F
  8
0
 10
4.673187
 20
2.592238
 30
0.0
 11
5.728729
 21
2.592238
 31
0.0
  0
LINE
  5
4A0
  8
0
 10
5.728729
 20
2.592238
 30
0.0
 11
5.817761
 21
2.592238
 31
0.0
  0
LINE
  5
4A1
  8
0
 10
5.817761
 20
2.592238
 30
0.0
 11
6.028026
 21
2.592238
 31
0.0
  0
LINE
  5
4A2
  8
0
 10
6.028026
 20
2.592238
 30
0.0
 11
6.473187
 21
2.592238
 31
0.0
  0
LINE
  5
4A3
  8
0
 10
6.473187
 20
2.592238
 30
0.0
 11
7.528729
 21
2.592238
 31
0.0
  0
LINE
  5
4A4
  8
0
 10
7.528729
 20
2.592238
 30
0.0
 11
7.617761
 21
2.592238
 31
0.0
  0
LINE
  5
4A5
  8
0
 10
7.617761
 20
2.592238
 30
0.0
 11
7.828026
 21
2.592238
 31
0.0
  0
LINE
  5
4A6
  8
0
 10
7.828026
 20
2.592238
 30
0.0
 11
8.273187
 21
2.592238
 31
0.0
  0
LINE
  5
4A7
  8
0
 10
8.273187
 20
2.592238
 30
0.0
 11
9.328729
 21
2.592238
 31
0.0
  0
LINE
  5
4A8
  8
0
 10
9.328729
 20
2.592238
 30
0.0
 11
9.417761
 21
2.592238
 31
0.0
  0
LINE
  5
4A9
  8
0
 10
9.417761
 20
2.592238
 30
0.0
 11
9.628026
 21
2.592238
 31
0.0
  0
LINE
  5
4AA
  8
0
 10
9.628026
 20
2.592238
 30
0.0
 11
10.073187
 21
2.592238
 31
0.0
  0
LINE
  5
4AB
  8
0
 10
10.073187
 20
2.592238
 30
0.0
 11
11.128729
 21
2.592238
 31
0.0
  0
LINE
  5
4AC
  8
0
 10
11.128729
 20
2.592238
 30
0.0
 11
11.217761
 21
2.592238
 31
0.0
  0
LINE
  5
4AD
  8
0
 10
11.217761
 20
2.592238
 30
0.0
 11
11.428026
 21
2.592238
 31
0.0
  0
LINE
  5
4AE
  8
0
 10
11.428026
 20
2.592238
 30
0.0
 11
11.873187
 21
2.592238
 31
0.0
  0
LINE
  5
4AF
  8
0
 10
11.873187
 20
2.592238
 30
0.0
 11
12.928729
 21
2.592238
 31
0.0
  0
LINE
  5
4B0
  8
0
 10
12.928729
 20
2.592238
 30
0.0
 11
13.017761
 21
2.592238
 31
0.0
  0
LINE
  5
4B1
  8
0
 10
13.017761
 20
2.592238
 30
0.0
 11
13.228026
 21
2.592238
 31
0.0
  0
LINE
  5
4B2
  8
0
 10
13.228026
 20
2.592238
 30
0.0
 11
13.673187
 21
2.592238
 31
0.0
  0
LINE
  5
4B3
  8
0
 10
13.673187
 20
2.592238
 30
0.0
 11
14.649968
 21
2.592238
 31
0.0
  0
LINE
  5
4B4
  8
0
 10
14.649968
 20
2.592238
 30
0.0
 11
14.739
 21
2.592238
 31
0.0
  0
LINE
  5
4B5
  8
0
 10
0.463
 20
3.092238
 30
0.0
 11
0.673968
 21
3.092238
 31
0.0
  0
LINE
  5
4B6
  8
0
 10
0.463
 20
3.092238
 30
0.0
 11
0.673968
 21
3.092238
 31
0.0
  0
LINE
  5
4B7
  8
0
 10
0.673968
 20
3.092238
 30
0.0
 11
1.077284
 21
3.092238
 31
0.0
  0
LINE
  5
4B8
  8
0
 10
1.077284
 20
3.092238
 30
0.0
 11
2.132123
 21
3.092238
 31
0.0
  0
LINE
  5
4B9
  8
0
 10
2.132123
 20
3.092238
 30
0.0
 11
2.221155
 21
3.092238
 31
0.0
  0
LINE
  5
4BA
  8
0
 10
2.221155
 20
3.092238
 30
0.0
 11
2.432123
 21
3.092238
 31
0.0
  0
LINE
  5
4BB
  8
0
 10
2.432123
 20
3.092238
 30
0.0
 11
2.877284
 21
3.092238
 31
0.0
  0
LINE
  5
4BC
  8
0
 10
2.877284
 20
3.092238
 30
0.0
 11
3.932123
 21
3.092238
 31
0.0
  0
LINE
  5
4BD
  8
0
 10
3.932123
 20
3.092238
 30
0.0
 11
4.021155
 21
3.092238
 31
0.0
  0
LINE
  5
4BE
  8
0
 10
4.021155
 20
3.092238
 30
0.0
 11
4.232123
 21
3.092238
 31
0.0
  0
LINE
  5
4BF
  8
0
 10
4.232123
 20
3.092238
 30
0.0
 11
4.677284
 21
3.092238
 31
0.0
  0
LINE
  5
4C0
  8
0
 10
4.677284
 20
3.092238
 30
0.0
 11
5.732123
 21
3.092238
 31
0.0
  0
LINE
  5
4C1
  8
0
 10
5.732123
 20
3.092238
 30
0.0
 11
5.821155
 21
3.092238
 31
0.0
  0
LINE
  5
4C2
  8
0
 10
5.821155
 20
3.092238
 30
0.0
 11
6.032123
 21
3.092238
 31
0.0
  0
LINE
  5
4C3
  8
0
 10
6.032123
 20
3.092238
 30
0.0
 11
6.477284
 21
3.092238
 31
0.0
  0
LINE
  5
4C4
  8
0
 10
6.477284
 20
3.092238
 30
0.0
 11
7.532123
 21
3.092238
 31
0.0
  0
LINE
  5
4C5
  8
0
 10
7.532123
 20
3.092238
 30
0.0
 11
7.621155
 21
3.092238
 31
0.0
  0
LINE
  5
4C6
  8
0
 10
7.621155
 20
3.092238
 30
0.0
 11
7.832123
 21
3.092238
 31
0.0
  0
LINE
  5
4C7
  8
0
 10
7.832123
 20
3.092238
 30
0.0
 11
8.277284
 21
3.092238
 31
0.0
  0
LINE
  5
4C8
  8
0
 10
8.277284
 20
3.092238
 30
0.0
 11
9.332123
 21
3.092238
 31
0.0
  0
LINE
  5
4C9
  8
0
 10
9.332123
 20
3.092238
 30
0.0
 11
9.421155
 21
3.092238
 31
0.0
  0
LINE
  5
4CA
  8
0
 10
9.421155
 20
3.092238
 30
0.0
 11
9.632123
 21
3.092238
 31
0.0
  0
LINE
  5
4CB
  8
0
 10
9.632123
 20
3.092238
 30
0.0
 11
10.077284
 21
3.092238
 31
0.0
  0
LINE
  5
4CC
  8
0
 10
10.077284
 20
3.092238
 30
0.0
 11
11.132123
 21
3.092238
 31
0.0
  0
LINE
  5
4CD
  8
0
 10
11.132123
 20
3.092238
 30
0.0
 11
11.221155
 21
3.092238
 31
0.0
  0
LINE
  5
4CE
  8
0
 10
11.221155
 20
3.092238
 30
0.0
 11
11.432123
 21
3.092238
 31
0.0
  0
LINE
  5
4CF
  8
0
 10
11.432123
 20
3.092238
 30
0.0
 11
11.877284
 21
3.092238
 31
0.0
  0
LINE
  5
4D0
  8
0
 10
11.877284
 20
3.092238
 30
0.0
 11
12.932123
 21
3.092238
 31
0.0
  0
LINE
  5
4D1
  8
0
 10
12.932123
 20
3.092238
 30
0.0
 11
13.021155
 21
3.092238
 31
0.0
  0
LINE
  5
4D2
  8
0
 10
13.021155
 20
3.092238
 30
0.0
 11
13.232123
 21
3.092238
 31
0.0
  0
LINE
  5
4D3
  8
0
 10
13.232123
 20
3.092238
 30
0.0
 11
13.677284
 21
3.092238
 31
0.0
  0
LINE
  5
4D4
  8
0
 10
13.677284
 20
3.092238
 30
0.0
 11
14.632968
 21
3.092238
 31
0.0
  0
LINE
  5
4D5
  8
0
 10
14.632968
 20
3.092238
 30
0.0
 11
14.722
 21
3.092238
 31
0.0
  0
LINE
  5
4D6
  8
0
 10
0.476
 20
3.592238
 30
0.0
 11
0.686968
 21
3.592238
 31
0.0
  0
LINE
  5
4D7
  8
0
 10
0.476
 20
3.592238
 30
0.0
 11
0.686968
 21
3.592238
 31
0.0
  0
LINE
  5
4D8
  8
0
 10
0.686968
 20
3.592238
 30
0.0
 11
1.081084
 21
3.592238
 31
0.0
  0
LINE
  5
4D9
  8
0
 10
1.081084
 20
3.592238
 30
0.0
 11
2.135923
 21
3.592238
 31
0.0
  0
LINE
  5
4DA
  8
0
 10
2.135923
 20
3.592238
 30
0.0
 11
2.224955
 21
3.592238
 31
0.0
  0
LINE
  5
4DB
  8
0
 10
2.224955
 20
3.592238
 30
0.0
 11
2.435923
 21
3.592238
 31
0.0
  0
LINE
  5
4DC
  8
0
 10
2.435923
 20
3.592238
 30
0.0
 11
2.881084
 21
3.592238
 31
0.0
  0
LINE
  5
4DD
  8
0
 10
2.881084
 20
3.592238
 30
0.0
 11
3.935923
 21
3.592238
 31
0.0
  0
LINE
  5
4DE
  8
0
 10
3.935923
 20
3.592238
 30
0.0
 11
4.024955
 21
3.592238
 31
0.0
  0
LINE
  5
4DF
  8
0
 10
4.024955
 20
3.592238
 30
0.0
 11
4.235923
 21
3.592238
 31
0.0
  0
LINE
  5
4E0
  8
0
 10
4.235923
 20
3.592238
 30
0.0
 11
4.681084
 21
3.592238
 31
0.0
  0
LINE
  5
4E1
  8
0
 10
4.681084
 20
3.592238
 30
0.0
 11
5.735923
 21
3.592238
 31
0.0
  0
LINE
  5
4E2
  8
0
 10
5.735923
 20
3.592238
 30
0.0
 11
5.824955
 21
3.592238
 31
0.0
  0
LINE
  5
4E3
  8
0
 10
5.824955
 20
3.592238
 30
0.0
 11
6.035923
 21
3.592238
 31
0.0
  0
LINE
  5
4E4
  8
0
 10
6.035923
 20
3.592238
 30
0.0
 11
6.481084
 21
3.592238
 31
0.0
  0
LINE
  5
4E5
  8
0
 10
6.481084
 20
3.592238
 30
0.0
 11
7.535923
 21
3.592238
 31
0.0
  0
LINE
  5
4E6
  8
0
 10
7.535923
 20
3.592238
 30
0.0
 11
7.624955
 21
3.592238
 31
0.0
  0
LINE
  5
4E7
  8
0
 10
7.624955
 20
3.592238
 30
0.0
 11
7.835923
 21
3.592238
 31
0.0
  0
LINE
  5
4E8
  8
0
 10
7.835923
 20
3.592238
 30
0.0
 11
8.281084
 21
3.592238
 31
0.0
  0
LINE
  5
4E9
  8
0
 10
8.281084
 20
3.592238
 30
0.0
 11
9.335923
 21
3.592238
 31
0.0
  0
LINE
  5
4EA
  8
0
 10
9.335923
 20
3.592238
 30
0.0
 11
9.424955
 21
3.592238
 31
0.0
  0
LINE
  5
4EB
  8
0
 10
9.424955
 20
3.592238
 30
0.0
 11
9.635923
 21
3.592238
 31
0.0
  0
LINE
  5
4EC
  8
0
 10
9.635923
 20
3.592238
 30
0.0
 11
10.081084
 21
3.592238
 31
0.0
  0
LINE
  5
4ED
  8
0
 10
10.081084
 20
3.592238
 30
0.0
 11
11.135923
 21
3.592238
 31
0.0
  0
LINE
  5
4EE
  8
0
 10
11.135923
 20
3.592238
 30
0.0
 11
11.224955
 21
3.592238
 31
0.0
  0
LINE
  5
4EF
  8
0
 10
11.224955
 20
3.592238
 30
0.0
 11
11.435923
 21
3.592238
 31
0.0
  0
LINE
  5
4F0
  8
0
 10
11.435923
 20
3.592238
 30
0.0
 11
11.881084
 21
3.592238
 31
0.0
  0
LINE
  5
4F1
  8
0
 10
11.881084
 20
3.592238
 30
0.0
 11
12.935923
 21
3.592238
 31
0.0
  0
LINE
  5
4F2
  8
0
 10
12.935923
 20
3.592238
 30
0.0
 11
13.024955
 21
3.592238
 31
0.0
  0
LINE
  5
4F3
  8
0
 10
13.024955
 20
3.592238
 30
0.0
 11
13.235923
 21
3.592238
 31
0.0
  0
LINE
  5
4F4
  8
0
 10
13.235923
 20
3.592238
 30
0.0
 11
13.681084
 21
3.592238
 31
0.0
  0
LINE
  5
4F5
  8
0
 10
13.681084
 20
3.592238
 30
0.0
 11
14.614968
 21
3.592238
 31
0.0
  0
LINE
  5
4F6
  8
0
 10
14.614968
 20
3.592238
 30
0.0
 11
14.704
 21
3.592238
 31
0.0
  0
LINE
  5
4F7
  8
0
 10
0.488
 20
4.092238
 30
0.0
 11
0.698968
 21
4.092238
 31
0.0
  0
LINE
  5
4F8
  8
0
 10
0.488
 20
4.092238
 30
0.0
 11
0.698968
 21
4.092238
 31
0.0
  0
LINE
  5
4F9
  8
0
 10
0.698968
 20
4.092238
 30
0.0
 11
1.084477
 21
4.092238
 31
0.0
  0
LINE
  5
4FA
  8
0
 10
1.084477
 20
4.092238
 30
0.0
 11
2.139316
 21
4.092238
 31
0.0
  0
LINE
  5
4FB
  8
0
 10
2.139316
 20
4.092238
 30
0.0
 11
2.228052
 21
4.092238
 31
0.0
  0
LINE
  5
4FC
  8
0
 10
2.228052
 20
4.092238
 30
0.0
 11
2.439019
 21
4.092238
 31
0.0
  0
LINE
  5
4FD
  8
0
 10
2.439019
 20
4.092238
 30
0.0
 11
2.884477
 21
4.092238
 31
0.0
  0
LINE
  5
4FE
  8
0
 10
2.884477
 20
4.092238
 30
0.0
 11
3.939316
 21
4.092238
 31
0.0
  0
LINE
  5
4FF
  8
0
 10
3.939316
 20
4.092238
 30
0.0
 11
4.028052
 21
4.092238
 31
0.0
  0
LINE
  5
500
  8
0
 10
4.028052
 20
4.092238
 30
0.0
 11
4.239019
 21
4.092238
 31
0.0
  0
LINE
  5
501
  8
0
 10
4.239019
 20
4.092238
 30
0.0
 11
4.684477
 21
4.092238
 31
0.0
  0
LINE
  5
502
  8
0
 10
4.684477
 20
4.092238
 30
0.0
 11
5.739316
 21
4.092238
 31
0.0
  0
LINE
  5
503
  8
0
 10
5.739316
 20
4.092238
 30
0.0
 11
5.828052
 21
4.092238
 31
0.0
  0
LINE
  5
504
  8
0
 10
5.828052
 20
4.092238
 30
0.0
 11
6.039019
 21
4.092238
 31
0.0
  0
LINE
  5
505
  8
0
 10
6.039019
 20
4.092238
 30
0.0
 11
6.484477
 21
4.092238
 31
0.0
  0
LINE
  5
506
  8
0
 10
6.484477
 20
4.092238
 30
0.0
 11
7.539316
 21
4.092238
 31
0.0
  0
LINE
  5
507
  8
0
 10
7.539316
 20
4.092238
 30
0.0
 11
7.628052
 21
4.092238
 31
0.0
  0
LINE
  5
508
  8
0
 10
7.628052
 20
4.092238
 30
0.0
 11
7.839019
 21
4.092238
 31
0.0
  0
LINE
  5
509
  8
0
 10
7.839019
 20
4.092238
 30
0.0
 11
8.284477
 21
4.092238
 31
0.0
  0
LINE
  5
50A
  8
0
 10
8.284477
 20
4.092238
 30
0.0
 11
9.339316
 21
4.092238
 31
0.0
  0
LINE
  5
50B
  8
0
 10
9.339316
 20
4.092238
 30
0.0
 11
9.428052
 21
4.092238
 31
0.0
  0
LINE
  5
50C
  8
0
 10
9.428052
 20
4.092238
 30
0.0
 11
9.639019
 21
4.092238
 31
0.0
  0
LINE
  5
50D
  8
0
 10
9.639019
 20
4.092238
 30
0.0
 11
10.084477
 21
4.092238
 31
0.0
  0
LINE
  5
50E
  8
0
 10
10.084477
 20
4.092238
 30
0.0
 11
11.139316
 21
4.092238
 31
0.0
  0
LINE
  5
50F
  8
0
 10
11.139316
 20
4.092238
 30
0.0
 11
11.228052
 21
4.092238
 31
0.0
  0
LINE
  5
510
  8
0
 10
11.228052
 20
4.092238
 30
0.0
 11
11.439019
 21
4.092238
 31
0.0
  0
LINE
  5
511
  8
0
 10
11.439019
 20
4.092238
 30
0.0
 11
11.884477
 21
4.092238
 31
0.0
  0
LINE
  5
512
  8
0
 10
11.884477
 20
4.092238
 30
0.0
 11
12.939316
 21
4.092238
 31
0.0
  0
LINE
  5
513
  8
0
 10
12.939316
 20
4.092238
 30
0.0
 11
13.028052
 21
4.092238
 31
0.0
  0
LINE
  5
514
  8
0
 10
13.028052
 20
4.092238
 30
0.0
 11
13.239019
 21
4.092238
 31
0.0
  0
LINE
  5
515
  8
0
 10
13.239019
 20
4.092238
 30
0.0
 11
13.684477
 21
4.092238
 31
0.0
  0
LINE
  5
516
  8
0
 10
13.684477
 20
4.092238
 30
0.0
 11
14.597968
 21
4.092238
 31
0.0
  0
LINE
  5
517
  8
0
 10
14.597968
 20
4.092238
 30
0.0
 11
14.687
 21
4.092238
 31
0.0
  0
LINE
  5
518
  8
0
 10
0.501
 20
4.592238
 30
0.0
 11
0.711968
 21
4.592238
 31
0.0
  0
LINE
  5
519
  8
0
 10
0.501
 20
4.592238
 30
0.0
 11
0.711968
 21
4.592238
 31
0.0
  0
LINE
  5
51A
  8
0
 10
0.711968
 20
4.592238
 30
0.0
 11
1.088277
 21
4.592238
 31
0.0
  0
LINE
  5
51B
  8
0
 10
1.088277
 20
4.592238
 30
0.0
 11
2.143116
 21
4.592238
 31
0.0
  0
LINE
  5
51C
  8
0
 10
2.143116
 20
4.592238
 30
0.0
 11
2.232148
 21
4.592238
 31
0.0
  0
LINE
  5
51D
  8
0
 10
2.232148
 20
4.592238
 30
0.0
 11
2.443116
 21
4.592238
 31
0.0
  0
LINE
  5
51E
  8
0
 10
2.443116
 20
4.592238
 30
0.0
 11
2.888277
 21
4.592238
 31
0.0
  0
LINE
  5
51F
  8
0
 10
2.888277
 20
4.592238
 30
0.0
 11
3.943116
 21
4.592238
 31
0.0
  0
LINE
  5
520
  8
0
 10
3.943116
 20
4.592238
 30
0.0
 11
4.032148
 21
4.592238
 31
0.0
  0
LINE
  5
521
  8
0
 10
4.032148
 20
4.592238
 30
0.0
 11
4.243116
 21
4.592238
 31
0.0
  0
LINE
  5
522
  8
0
 10
4.243116
 20
4.592238
 30
0.0
 11
4.688277
 21
4.592238
 31
0.0
  0
LINE
  5
523
  8
0
 10
4.688277
 20
4.592238
 30
0.0
 11
5.743116
 21
4.592238
 31
0.0
  0
LINE
  5
524
  8
0
 10
5.743116
 20
4.592238
 30
0.0
 11
5.832148
 21
4.592238
 31
0.0
  0
LINE
  5
525
  8
0
 10
5.832148
 20
4.592238
 30
0.0
 11
6.043116
 21
4.592238
 31
0.0
  0
LINE
  5
526
  8
0
 10
6.043116
 20
4.592238
 30
0.0
 11
6.488277
 21
4.592238
 31
0.0
  0
LINE
  5
527
  8
0
 10
6.488277
 20
4.592238
 30
0.0
 11
7.543116
 21
4.592238
 31
0.0
  0
LINE
  5
528
  8
0
 10
7.543116
 20
4.592238
 30
0.0
 11
7.632148
 21
4.592238
 31
0.0
  0
LINE
  5
529
  8
0
 10
7.632148
 20
4.592238
 30
0.0
 11
7.843116
 21
4.592238
 31
0.0
  0
LINE
  5
52A
  8
0
 10
7.843116
 20
4.592238
 30
0.0
 11
8.288277
 21
4.592238
 31
0.0
  0
LINE
  5
52B
  8
0
 10
8.288277
 20
4.592238
 30
0.0
 11
9.343116
 21
4.592238
 31
0.0
  0
LINE
  5
52C
  8
0
 10
9.343116
 20
4.592238
 30
0.0
 11
9.432148
 21
4.592238
 31
0.0
  0
LINE
  5
52D
  8
0
 10
9.432148
 20
4.592238
 30
0.0
 11
9.643116
 21
4.592238
 31
0.0
  0
LINE
  5
52E
  8
0
 10
9.643116
 20
4.592238
 30
0.0
 11
10.088277
 21
4.592238
 31
0.0
  0
LINE
  5
52F
  8
0
 10
10.088277
 20
4.592238
 30
0.0
 11
11.143116
 21
4.592238
 31
0.0
  0
LINE
  5
530
  8
0
 10
11.143116
 20
4.592238
 30
0.0
 11
11.232148
 21
4.592238
 31
0.0
  0
LINE
  5
531
  8
0
 10
11.232148
 20
4.592238
 30
0.0
 11
11.443116
 21
4.592238
 31
0.0
  0
LINE
  5
532
  8
0
 10
11.443116
 20
4.592238
 30
0.0
 11
11.888277
 21
4.592238
 31
0.0
  0
LINE
  5
533
  8
0
 10
11.888277
 20
4.592238
 30
0.0
 11
12.943116
 21
4.592238
 31
0.0
  0
LINE
  5
534
  8
0
 10
12.943116
 20
4.592238
 30
0.0
 11
13.032148
 21
4.592238
 31
0.0
  0
LINE
  5
535
  8
0
 10
13.032148
 20
4.592238
 30
0.0
 11
13.243116
 21
4.592238
 31
0.0
  0
LINE
  5
536
  8
0
 10
13.243116
 20
4.592238
 30
0.0
 11
13.688277
 21
4.592238
 31
0.0
  0
LINE
  5
537
  8
0
 10
13.688277
 20
4.592238
 30
0.0
 11
14.579968
 21
4.592238
 31
0.0
  0
LINE
  5
538
  8
0
 10
14.579968
 20
4.592238
 30
0.0
 11
14.669
 21
4.592238
 31
0.0
  0
LINE
  5
539
  8
0
 10
0.513
 20
5.092238
 30
0.0
 11
0.723968
 21
5.092238
 31
0.0
  0
LINE
  5
53A
  8
0
 10
0.513
 20
5.092238
 30
0.0
 11
0.723968
 21
5.092238
 31
0.0
  0
LINE
  5
53B
  8
0
 10
0.723968
 20
5.092238
 30
0.0
 11
1.091374
 21
5.092238
 31
0.0
  0
LINE
  5
53C
  8
0
 10
1.091374
 20
5.092238
 30
0.0
 11
2.146916
 21
5.092238
 31
0.0
  0
LINE
  5
53D
  8
0
 10
2.146916
 20
5.092238
 30
0.0
 11
2.235948
 21
5.092238
 31
0.0
  0
LINE
  5
53E
  8
0
 10
2.235948
 20
5.092238
 30
0.0
 11
2.446213
 21
5.092238
 31
0.0
  0
LINE
  5
53F
  8
0
 10
2.446213
 20
5.092238
 30
0.0
 11
2.891374
 21
5.092238
 31
0.0
  0
LINE
  5
540
  8
0
 10
2.891374
 20
5.092238
 30
0.0
 11
3.946916
 21
5.092238
 31
0.0
  0
LINE
  5
541
  8
0
 10
3.946916
 20
5.092238
 30
0.0
 11
4.035948
 21
5.092238
 31
0.0
  0
LINE
  5
542
  8
0
 10
4.035948
 20
5.092238
 30
0.0
 11
4.246213
 21
5.092238
 31
0.0
  0
LINE
  5
543
  8
0
 10
4.246213
 20
5.092238
 30
0.0
 11
4.691374
 21
5.092238
 31
0.0
  0
LINE
  5
544
  8
0
 10
4.691374
 20
5.092238
 30
0.0
 11
5.746916
 21
5.092238
 31
0.0
  0
LINE
  5
545
  8
0
 10
5.746916
 20
5.092238
 30
0.0
 11
5.835948
 21
5.092238
 31
0.0
  0
LINE
  5
546
  8
0
 10
5.835948
 20
5.092238
 30
0.0
 11
6.046213
 21
5.092238
 31
0.0
  0
LINE
  5
547
  8
0
 10
6.046213
 20
5.092238
 30
0.0
 11
6.491374
 21
5.092238
 31
0.0
  0
LINE
  5
548
  8
0
 10
6.491374
 20
5.092238
 30
0.0
 11
7.546916
 21
5.092238
 31
0.0
  0
LINE
  5
549
  8
0
 10
7.546916
 20
5.092238
 30
0.0
 11
7.635948
 21
5.092238
 31
0.0
  0
LINE
  5
54A
  8
0
 10
7.635948
 20
5.092238
 30
0.0
 11
7.846213
 21
5.092238
 31
0.0
  0
LINE
  5
54B
  8
0
 10
7.846213
 20
5.092238
 30
0.0
 11
8.291374
 21
5.092238
 31
0.0
  0
LINE
  5
54C
  8
0
 10
8.291374
 20
5.092238
 30
0.0
 11
9.346916
 21
5.092238
 31
0.0
  0
LINE
  5
54D
  8
0
 10
9.346916
 20
5.092238
 30
0.0
 11
9.435948
 21
5.092238
 31
0.0
  0
LINE
  5
54E
  8
0
 10
9.435948
 20
5.092238
 30
0.0
 11
9.646213
 21
5.092238
 31
0.0
  0
LINE
  5
54F
  8
0
 10
9.646213
 20
5.092238
 30
0.0
 11
10.091374
 21
5.092238
 31
0.0
  0
LINE
  5
550
  8
0
 10
10.091374
 20
5.092238
 30
0.0
 11
11.146916
 21
5.092238
 31
0.0
  0
LINE
  5
551
  8
0
 10
11.146916
 20
5.092238
 30
0.0
 11
11.235948
 21
5.092238
 31
0.0
  0
LINE
  5
552
  8
0
 10
11.235948
 20
5.092238
 30
0.0
 11
11.446213
 21
5.092238
 31
0.0
  0
LINE
  5
553
  8
0
 10
11.446213
 20
5.092238
 30
0.0
 11
11.891374
 21
5.092238
 31
0.0
  0
LINE
  5
554
  8
0
 10
11.891374
 20
5.092238
 30
0.0
 11
12.946916
 21
5.092238
 31
0.0
  0
LINE
  5
555
  8
0
 10
12.946916
 20
5.092238
 30
0.0
 11
13.035948
 21
5.092238
 31
0.0
  0
LINE
  5
556
  8
0
 10
13.035948
 20
5.092238
 30
0.0
 11
13.246213
 21
5.092238
 31
0.0
  0
LINE
  5
557
  8
0
 10
13.246213
 20
5.092238
 30
0.0
 11
13.691374
 21
5.092238
 31
0.0
  0
LINE
  5
558
  8
0
 10
13.691374
 20
5.092238
 30
0.0
 11
14.561968
 21
5.092238
 31
0.0
  0
LINE
  5
559
  8
0
 10
14.561968
 20
5.092238
 30
0.0
 11
14.651
 21
5.092238
 31
0.0
  0
LINE
  5
55A
  8
0
 10
0.526
 20
5.592238
 30
0.0
 11
0.736968
 21
5.592238
 31
0.0
  0
LINE
  5
55B
  8
0
 10
0.526
 20
5.592238
 30
0.0
 11
0.736968
 21
5.592238
 31
0.0
  0
LINE
  5
55C
  8
0
 10
0.736968
 20
5.592238
 30
0.0
 11
1.095471
 21
5.592238
 31
0.0
  0
LINE
  5
55D
  8
0
 10
1.095471
 20
5.592238
 30
0.0
 11
2.15031
 21
5.592238
 31
0.0
  0
LINE
  5
55E
  8
0
 10
2.15031
 20
5.592238
 30
0.0
 11
2.239342
 21
5.592238
 31
0.0
  0
LINE
  5
55F
  8
0
 10
2.239342
 20
5.592238
 30
0.0
 11
2.45031
 21
5.592238
 31
0.0
  0
LINE
  5
560
  8
0
 10
2.45031
 20
5.592238
 30
0.0
 11
2.895471
 21
5.592238
 31
0.0
  0
LINE
  5
561
  8
0
 10
2.895471
 20
5.592238
 30
0.0
 11
3.95031
 21
5.592238
 31
0.0
  0
LINE
  5
562
  8
0
 10
3.95031
 20
5.592238
 30
0.0
 11
4.039342
 21
5.592238
 31
0.0
  0
LINE
  5
563
  8
0
 10
4.039342
 20
5.592238
 30
0.0
 11
4.25031
 21
5.592238
 31
0.0
  0
LINE
  5
564
  8
0
 10
4.25031
 20
5.592238
 30
0.0
 11
4.695471
 21
5.592238
 31
0.0
  0
LINE
  5
565
  8
0
 10
4.695471
 20
5.592238
 30
0.0
 11
5.75031
 21
5.592238
 31
0.0
  0
LINE
  5
566
  8
0
 10
5.75031
 20
5.592238
 30
0.0
 11
5.839342
 21
5.592238
 31
0.0
  0
LINE
  5
567
  8
0
 10
5.839342
 20
5.592238
 30
0.0
 11
6.05031
 21
5.592238
 31
0.0
  0
LINE
  5
568
  8
0
 10
6.05031
 20
5.592238
 30
0.0
 11
6.495471
 21
5.592238
 31
0.0
  0
LINE
  5
569
  8
0
 10
6.495471
 20
5.592238
 30
0.0
 11
7.55031
 21
5.592238
 31
0.0
  0
LINE
  5
56A
  8
0
 10
7.55031
 20
5.592238
 30
0.0
 11
7.639342
 21
5.592238
 31
0.0
  0
LINE
  5
56B
  8
0
 10
7.639342
 20
5.592238
 30
0.0
 11
7.85031
 21
5.592238
 31
0.0
  0
LINE
  5
56C
  8
0
 10
7.85031
 20
5.592238
 30
0.0
 11
8.295471
 21
5.592238
 31
0.0
  0
LINE
  5
56D
  8
0
 10
8.295471
 20
5.592238
 30
0.0
 11
9.35031
 21
5.592238
 31
0.0
  0
LINE
  5
56E
  8
0
 10
9.35031
 20
5.592238
 30
0.0
 11
9.439342
 21
5.592238
 31
0.0
  0
LINE
  5
56F
  8
0
 10
9.439342
 20
5.592238
 30
0.0
 11
9.65031
 21
5.592238
 31
0.0
  0
LINE
  5
570
  8
0
 10
9.65031
 20
5.592238
 30
0.0
 11
10.095471
 21
5.592238
 31
0.0
  0
LINE
  5
571
  8
0
 10
10.095471
 20
5.592238
 30
0.0
 11
11.15031
 21
5.592238
 31
0.0
  0
LINE
  5
572
  8
0
 10
11.15031
 20
5.592238
 30
0.0
 11
11.239342
 21
5.592238
 31
0.0
  0
LINE
  5
573
  8
0
 10
11.239342
 20
5.592238
 30
0.0
 11
11.45031
 21
5.592238
 31
0.0
  0
LINE
  5
574
  8
0
 10
11.45031
 20
5.592238
 30
0.0
 11
11.895471
 21
5.592238
 31
0.0
  0
LINE
  5
575
  8
0
 10
11.895471
 20
5.592238
 30
0.0
 11
12.95031
 21
5.592238
 31
0.0
  0
LINE
  5
576
  8
0
 10
12.95031
 20
5.592238
 30
0.0
 11
13.039342
 21
5.592238
 31
0.0
  0
LINE
  5
577
  8
0
 10
13.039342
 20
5.592238
 30
0.0
 11
13.25031
 21
5.592238
 31
0.0
  0
LINE
  5
578
  8
0
 10
13.25031
 20
5.592238
 30
0.0
 11
13.695471
 21
5.592238
 31
0.0
  0
LINE
  5
579
  8
0
 10
13.695471
 20
5.592238
 30
0.0
 11
14.544968
 21
5.592238
 31
0.0
  0
LINE
  5
57A
  8
0
 10
14.544968
 20
5.592238
 30
0.0
 11
14.634
 21
5.592238
 31
0.0
  0
LINE
  5
57B
  8
0
 10
0.539
 20
6.092238
 30
0.0
 11
0.749968
 21
6.092238
 31
0.0
  0
LINE
  5
57C
  8
0
 10
0.539
 20
6.092238
 30
0.0
 11
0.749968
 21
6.092238
 31
0.0
  0
LINE
  5
57D
  8
0
 10
0.749968
 20
6.092238
 30
0.0
 11
1.102239
 21
6.092238
 31
0.0
  0
LINE
  5
57E
  8
0
 10
1.102239
 20
6.092238
 30
0.0
 11
2.157077
 21
6.092238
 31
0.0
  0
LINE
  5
57F
  8
0
 10
2.157077
 20
6.092238
 30
0.0
 11
2.24611
 21
6.092238
 31
0.0
  0
LINE
  5
580
  8
0
 10
2.24611
 20
6.092238
 30
0.0
 11
2.457077
 21
6.092238
 31
0.0
  0
LINE
  5
581
  8
0
 10
2.457077
 20
6.092238
 30
0.0
 11
2.902239
 21
6.092238
 31
0.0
  0
LINE
  5
582
  8
0
 10
2.902239
 20
6.092238
 30
0.0
 11
3.957077
 21
6.092238
 31
0.0
  0
LINE
  5
583
  8
0
 10
3.957077
 20
6.092238
 30
0.0
 11
4.04611
 21
6.092238
 31
0.0
  0
LINE
  5
584
  8
0
 10
4.04611
 20
6.092238
 30
0.0
 11
4.257077
 21
6.092238
 31
0.0
  0
LINE
  5
585
  8
0
 10
4.257077
 20
6.092238
 30
0.0
 11
4.702239
 21
6.092238
 31
0.0
  0
LINE
  5
586
  8
0
 10
4.702239
 20
6.092238
 30
0.0
 11
5.757077
 21
6.092238
 31
0.0
  0
LINE
  5
587
  8
0
 10
5.757077
 20
6.092238
 30
0.0
 11
5.84611
 21
6.092238
 31
0.0
  0
LINE
  5
588
  8
0
 10
5.84611
 20
6.092238
 30
0.0
 11
6.057077
 21
6.092238
 31
0.0
  0
LINE
  5
589
  8
0
 10
6.057077
 20
6.092238
 30
0.0
 11
6.502239
 21
6.092238
 31
0.0
  0
LINE
  5
58A
  8
0
 10
6.502239
 20
6.092238
 30
0.0
 11
7.557077
 21
6.092238
 31
0.0
  0
LINE
  5
58B
  8
0
 10
7.557077
 20
6.092238
 30
0.0
 11
7.64611
 21
6.092238
 31
0.0
  0
LINE
  5
58C
  8
0
 10
7.64611
 20
6.092238
 30
0.0
 11
7.857077
 21
6.092238
 31
0.0
  0
LINE
  5
58D
  8
0
 10
7.857077
 20
6.092238
 30
0.0
 11
8.302239
 21
6.092238
 31
0.0
  0
LINE
  5
58E
  8
0
 10
8.302239
 20
6.092238
 30
0.0
 11
9.357077
 21
6.092238
 31
0.0
  0
LINE
  5
58F
  8
0
 10
9.357077
 20
6.092238
 30
0.0
 11
9.44611
 21
6.092238
 31
0.0
  0
LINE
  5
590
  8
0
 10
9.44611
 20
6.092238
 30
0.0
 11
9.657077
 21
6.092238
 31
0.0
  0
LINE
  5
591
  8
0
 10
9.657077
 20
6.092238
 30
0.0
 11
10.102239
 21
6.092238
 31
0.0
  0
LINE
  5
592
  8
0
 10
10.102239
 20
6.092238
 30
0.0
 11
11.157077
 21
6.092238
 31
0.0
  0
LINE
  5
593
  8
0
 10
11.157077
 20
6.092238
 30
0.0
 11
11.24611
 21
6.092238
 31
0.0
  0
LINE
  5
594
  8
0
 10
11.24611
 20
6.092238
 30
0.0
 11
11.457077
 21
6.092238
 31
0.0
  0
LINE
  5
595
  8
0
 10
11.457077
 20
6.092238
 30
0.0
 11
11.902239
 21
6.092238
 31
0.0
  0
LINE
  5
596
  8
0
 10
11.902239
 20
6.092238
 30
0.0
 11
12.957077
 21
6.092238
 31
0.0
  0
LINE
  5
597
  8
0
 10
12.957077
 20
6.092238
 30
0.0
 11
13.04611
 21
6.092238
 31
0.0
  0
LINE
  5
598
  8
0
 10
13.04611
 20
6.092238
 30
0.0
 11
13.257077
 21
6.092238
 31
0.0
  0
LINE
  5
599
  8
0
 10
13.257077
 20
6.092238
 30
0.0
 11
13.702239
 21
6.092238
 31
0.0
  0
LINE
  5
59A
  8
0
 10
13.702239
 20
6.092238
 30
0.0
 11
14.536968
 21
6.092238
 31
0.0
  0
LINE
  5
59B
  8
0
 10
14.536968
 20
6.092238
 30
0.0
 11
14.626
 21
6.092238
 31
0.0
  0
LINE
  5
59C
  8
0
 10
0.551
 20
6.592238
 30
0.0
 11
0.761968
 21
6.592238
 31
0.0
  0
LINE
  5
59D
  8
0
 10
0.551
 20
6.592238
 30
0.0
 11
0.761968
 21
6.592238
 31
0.0
  0
LINE
  5
59E
  8
0
 10
0.761968
 20
6.592238
 30
0.0
 11
1.110677
 21
6.592238
 31
0.0
  0
LINE
  5
59F
  8
0
 10
1.110677
 20
6.592238
 30
0.0
 11
2.165516
 21
6.592238
 31
0.0
  0
LINE
  5
5A0
  8
0
 10
2.165516
 20
6.592238
 30
0.0
 11
2.254548
 21
6.592238
 31
0.0
  0
LINE
  5
5A1
  8
0
 10
2.254548
 20
6.592238
 30
0.0
 11
2.465516
 21
6.592238
 31
0.0
  0
LINE
  5
5A2
  8
0
 10
2.465516
 20
6.592238
 30
0.0
 11
2.910677
 21
6.592238
 31
0.0
  0
LINE
  5
5A3
  8
0
 10
2.910677
 20
6.592238
 30
0.0
 11
3.965516
 21
6.592238
 31
0.0
  0
LINE
  5
5A4
  8
0
 10
3.965516
 20
6.592238
 30
0.0
 11
4.054548
 21
6.592238
 31
0.0
  0
LINE
  5
5A5
  8
0
 10
4.054548
 20
6.592238
 30
0.0
 11
4.265516
 21
6.592238
 31
0.0
  0
LINE
  5
5A6
  8
0
 10
4.265516
 20
6.592238
 30
0.0
 11
4.710677
 21
6.592238
 31
0.0
  0
LINE
  5
5A7
  8
0
 10
4.710677
 20
6.592238
 30
0.0
 11
5.765516
 21
6.592238
 31
0.0
  0
LINE
  5
5A8
  8
0
 10
5.765516
 20
6.592238
 30
0.0
 11
5.854548
 21
6.592238
 31
0.0
  0
LINE
  5
5A9
  8
0
 10
5.854548
 20
6.592238
 30
0.0
 11
6.065516
 21
6.592238
 31
0.0
  0
LINE
  5
5AA
  8
0
 10
6.065516
 20
6.592238
 30
0.0
 11
6.510677
 21
6.592238
 31
0.0
  0
LINE
  5
5AB
  8
0
 10
6.510677
 20
6.592238
 30
0.0
 11
7.565516
 21
6.592238
 31
0.0
  0
LINE
  5
5AC
  8
0
 10
7.565516
 20
6.592238
 30
0.0
 11
7.654548
 21
6.592238
 31
0.0
  0
LINE
  5
5AD
  8
0
 10
7.654548
 20
6.592238
 30
0.0
 11
7.865516
 21
6.592238
 31
0.0
  0
LINE
  5
5AE
  8
0
 10
7.865516
 20
6.592238
 30
0.0
 11
8.310677
 21
6.592238
 31
0.0
  0
LINE
  5
5AF
  8
0
 10
8.310677
 20
6.592238
 30
0.0
 11
9.365516
 21
6.592238
 31
0.0
  0
LINE
  5
5B0
  8
0
 10
9.365516
 20
6.592238
 30
0.0
 11
9.454548
 21
6.592238
 31
0.0
  0
LINE
  5
5B1
  8
0
 10
9.454548
 20
6.592238
 30
0.0
 11
9.665516
 21
6.592238
 31
0.0
  0
LINE
  5
5B2
  8
0
 10
9.665516
 20
6.592238
 30
0.0
 11
10.110677
 21
6.592238
 31
0.0
  0
LINE
  5
5B3
  8
0
 10
10.110677
 20
6.592238
 30
0.0
 11
11.165516
 21
6.592238
 31
0.0
  0
LINE
  5
5B4
  8
0
 10
11.165516
 20
6.592238
 30
0.0
 11
11.254548
 21
6.592238
 31
0.0
  0
LINE
  5
5B5
  8
0
 10
11.254548
 20
6.592238
 30
0.0
 11
11.465516
 21
6.592238
 31
0.0
  0
LINE
  5
5B6
  8
0
 10
11.465516
 20
6.592238
 30
0.0
 11
11.910677
 21
6.592238
 31
0.0
  0
LINE
  5
5B7
  8
0
 10
11.910677
 20
6.592238
 30
0.0
 11
12.965516
 21
6.592238
 31
0.0
  0
LINE
  5
5B8
  8
0
 10
12.965516
 20
6.592238
 30
0.0
 11
13.054548
 21
6.592238
 31
0.0
  0
LINE
  5
5B9
  8
0
 10
13.054548
 20
6.592238
 30
0.0
 11
13.265516
 21
6.592238
 31
0.0
  0
LINE
  5
5BA
  8
0
 10
13.265516
 20
6.592238
 30
0.0
 11
13.710677
 21
6.592238
 31
0.0
  0
LINE
  5
5BB
  8
0
 10
13.710677
 20
6.592238
 30
0.0
 11
14.536968
 21
6.592238
 31
0.0
  0
LINE
  5
5BC
  8
0
 10
14.536968
 20
6.592238
 30
0.0
 11
14.626
 21
6.592238
 31
0.0
  0
LINE
  5
5BD
  8
0
 10
0.564
 20
7.092238
 30
0.0
 11
0.774968
 21
7.092238
 31
0.0
  0
LINE
  5
5BE
  8
0
 10
0.564
 20
7.092238
 30
0.0
 11
0.774968
 21
7.092238
 31
0.0
  0
LINE
  5
5BF
  8
0
 10
0.774968
 20
7.092238
 30
0.0
 11
1.119819
 21
7.092238
 31
0.0
  0
LINE
  5
5C0
  8
0
 10
1.119819
 20
7.092238
 30
0.0
 11
2.174658
 21
7.092238
 31
0.0
  0
LINE
  5
5C1
  8
0
 10
2.174658
 20
7.092238
 30
0.0
 11
2.26369
 21
7.092238
 31
0.0
  0
LINE
  5
5C2
  8
0
 10
2.26369
 20
7.092238
 30
0.0
 11
2.474658
 21
7.092238
 31
0.0
  0
LINE
  5
5C3
  8
0
 10
2.474658
 20
7.092238
 30
0.0
 11
2.919819
 21
7.092238
 31
0.0
  0
LINE
  5
5C4
  8
0
 10
2.919819
 20
7.092238
 30
0.0
 11
3.974658
 21
7.092238
 31
0.0
  0
LINE
  5
5C5
  8
0
 10
3.974658
 20
7.092238
 30
0.0
 11
4.06369
 21
7.092238
 31
0.0
  0
LINE
  5
5C6
  8
0
 10
4.06369
 20
7.092238
 30
0.0
 11
4.274658
 21
7.092238
 31
0.0
  0
LINE
  5
5C7
  8
0
 10
4.274658
 20
7.092238
 30
0.0
 11
4.719819
 21
7.092238
 31
0.0
  0
LINE
  5
5C8
  8
0
 10
4.719819
 20
7.092238
 30
0.0
 11
5.774658
 21
7.092238
 31
0.0
  0
LINE
  5
5C9
  8
0
 10
5.774658
 20
7.092238
 30
0.0
 11
5.86369
 21
7.092238
 31
0.0
  0
LINE
  5
5CA
  8
0
 10
5.86369
 20
7.092238
 30
0.0
 11
6.074658
 21
7.092238
 31
0.0
  0
LINE
  5
5CB
  8
0
 10
6.074658
 20
7.092238
 30
0.0
 11
6.519819
 21
7.092238
 31
0.0
  0
LINE
  5
5CC
  8
0
 10
6.519819
 20
7.092238
 30
0.0
 11
7.574658
 21
7.092238
 31
0.0
  0
LINE
  5
5CD
  8
0
 10
7.574658
 20
7.092238
 30
0.0
 11
7.66369
 21
7.092238
 31
0.0
  0
LINE
  5
5CE
  8
0
 10
7.66369
 20
7.092238
 30
0.0
 11
7.874658
 21
7.092238
 31
0.0
  0
LINE
  5
5CF
  8
0
 10
7.874658
 20
7.092238
 30
0.0
 11
8.319819
 21
7.092238
 31
0.0
  0
LINE
  5
5D0
  8
0
 10
8.319819
 20
7.092238
 30
0.0
 11
9.374658
 21
7.092238
 31
0.0
  0
LINE
  5
5D1
  8
0
 10
9.374658
 20
7.092238
 30
0.0
 11
9.46369
 21
7.092238
 31
0.0
  0
LINE
  5
5D2
  8
0
 10
9.46369
 20
7.092238
 30
0.0
 11
9.674658
 21
7.092238
 31
0.0
  0
LINE
  5
5D3
  8
0
 10
9.674658
 20
7.092238
 30
0.0
 11
10.119819
 21
7.092238
 31
0.0
  0
LINE
  5
5D4
  8
0
 10
10.119819
 20
7.092238
 30
0.0
 11
11.174658
 21
7.092238
 31
0.0
  0
LINE
  5
5D5
  8
0
 10
11.174658
 20
7.092238
 30
0.0
 11
11.26369
 21
7.092238
 31
0.0
  0
LINE
  5
5D6
  8
0
 10
11.26369
 20
7.092238
 30
0.0
 11
11.474658
 21
7.092238
 31
0.0
  0
LINE
  5
5D7
  8
0
 10
11.474658
 20
7.092238
 30
0.0
 11
11.919819
 21
7.092238
 31
0.0
  0
LINE
  5
5D8
  8
0
 10
11.919819
 20
7.092238
 30
0.0
 11
12.974658
 21
7.092238
 31
0.0
  0
LINE
  5
5D9
  8
0
 10
12.974658
 20
7.092238
 30
0.0
 11
13.06369
 21
7.092238
 31
0.0
  0
LINE
  5
5DA
  8
0
 10
13.06369
 20
7.092238
 30
0.0
 11
13.274658
 21
7.092238
 31
0.0
  0
LINE
  5
5DB
  8
0
 10
13.274658
 20
7.092238
 30
0.0
 11
13.719819
 21
7.092238
 31
0.0
  0
LINE
  5
5DC
  8
0
 10
13.719819
 20
7.092238
 30
0.0
 11
14.536968
 21
7.092238
 31
0.0
  0
LINE
  5
5DD
  8
0
 10
14.536968
 20
7.092238
 30
0.0
 11
14.626
 21
7.092238
 31
0.0
  0
LINE
  5
5DE
  8
0
 10
0.576
 20
7.592238
 30
0.0
 11
0.576703
 21
7.592238
 31
0.0
  0
LINE
  5
5DF
  8
0
 10
0.576
 20
7.592238
 30
0.0
 11
0.576703
 21
7.592238
 31
0.0
  0
LINE
  5
5E0
  8
0
 10
0.576703
 20
7.592238
 30
0.0
 11
0.786968
 21
7.592238
 31
0.0
  0
LINE
  5
5E1
  8
0
 10
0.786968
 20
7.592238
 30
0.0
 11
1.128258
 21
7.592238
 31
0.0
  0
LINE
  5
5E2
  8
0
 10
1.128258
 20
7.592238
 30
0.0
 11
2.1838
 21
7.592238
 31
0.0
  0
LINE
  5
5E3
  8
0
 10
2.1838
 20
7.592238
 30
0.0
 11
2.272832
 21
7.592238
 31
0.0
  0
LINE
  5
5E4
  8
0
 10
2.272832
 20
7.592238
 30
0.0
 11
2.483097
 21
7.592238
 31
0.0
  0
LINE
  5
5E5
  8
0
 10
2.483097
 20
7.592238
 30
0.0
 11
2.928258
 21
7.592238
 31
0.0
  0
LINE
  5
5E6
  8
0
 10
2.928258
 20
7.592238
 30
0.0
 11
3.9838
 21
7.592238
 31
0.0
  0
LINE
  5
5E7
  8
0
 10
3.9838
 20
7.592238
 30
0.0
 11
4.072832
 21
7.592238
 31
0.0
  0
LINE
  5
5E8
  8
0
 10
4.072832
 20
7.592238
 30
0.0
 11
4.283097
 21
7.592238
 31
0.0
  0
LINE
  5
5E9
  8
0
 10
4.283097
 20
7.592238
 30
0.0
 11
4.728258
 21
7.592238
 31
0.0
  0
LINE
  5
5EA
  8
0
 10
4.728258
 20
7.592238
 30
0.0
 11
5.7838
 21
7.592238
 31
0.0
  0
LINE
  5
5EB
  8
0
 10
5.7838
 20
7.592238
 30
0.0
 11
5.872832
 21
7.592238
 31
0.0
  0
LINE
  5
5EC
  8
0
 10
5.872832
 20
7.592238
 30
0.0
 11
6.083097
 21
7.592238
 31
0.0
  0
LINE
  5
5ED
  8
0
 10
6.083097
 20
7.592238
 30
0.0
 11
6.528258
 21
7.592238
 31
0.0
  0
LINE
  5
5EE
  8
0
 10
6.528258
 20
7.592238
 30
0.0
 11
7.5838
 21
7.592238
 31
0.0
  0
LINE
  5
5EF
  8
0
 10
7.5838
 20
7.592238
 30
0.0
 11
7.672832
 21
7.592238
 31
0.0
  0
LINE
  5
5F0
  8
0
 10
7.672832
 20
7.592238
 30
0.0
 11
7.883097
 21
7.592238
 31
0.0
  0
LINE
  5
5F1
  8
0
 10
7.883097
 20
7.592238
 30
0.0
 11
8.328258
 21
7.592238
 31
0.0
  0
LINE
  5
5F2
  8
0
 10
8.328258
 20
7.592238
 30
0.0
 11
9.3838
 21
7.592238
 31
0.0
  0
LINE
  5
5F3
  8
0
 10
9.3838
 20
7.592238
 30
0.0
 11
9.472832
 21
7.592238
 31
0.0
  0
LINE
  5
5F4
  8
0
 10
9.472832
 20
7.592238
 30
0.0
 11
9.683097
 21
7.592238
 31
0.0
  0
LINE
  5
5F5
  8
0
 10
9.683097
 20
7.592238
 30
0.0
 11
10.128258
 21
7.592238
 31
0.0
  0
LINE
  5
5F6
  8
0
 10
10.128258
 20
7.592238
 30
0.0
 11
11.1838
 21
7.592238
 31
0.0
  0
LINE
  5
5F7
  8
0
 10
11.1838
 20
7.592238
 30
0.0
 11
11.272832
 21
7.592238
 31
0.0
  0
LINE
  5
5F8
  8
0
 10
11.272832
 20
7.592238
 30
0.0
 11
11.483097
 21
7.592238
 31
0.0
  0
LINE
  5
5F9
  8
0
 10
11.483097
 20
7.592238
 30
0.0
 11
11.928258
 21
7.592238
 31
0.0
  0
LINE
  5
5FA
  8
0
 10
11.928258
 20
7.592238
 30
0.0
 11
12.9838
 21
7.592238
 31
0.0
  0
LINE
  5
5FB
  8
0
 10
12.9838
 20
7.592238
 30
0.0
 11
13.072832
 21
7.592238
 31
0.0
  0
LINE
  5
5FC
  8
0
 10
13.072832
 20
7.592238
 30
0.0
 11
13.283097
 21
7.592238
 31
0.0
  0
LINE
  5
5FD
  8
0
 10
13.283097
 20
7.592238
 30
0.0
 11
13.728258
 21
7.592238
 31
0.0
  0
LINE
  5
5FE
  8
0
 10
13.728258
 20
7.592238
 30
0.0
 11
14.536968
 21
7.592238
 31
0.0
  0
LINE
  5
5FF
  8
0
 10
14.536968
 20
7.592238
 30
0.0
 11
14.626
 21
7.592238
 31
0.0
  0
LINE
  5
600
  8
0
 10
0.575
 20
8.092238
 30
0.0
 11
0.785968
 21
8.092238
 31
0.0
  0
LINE
  5
601
  8
0
 10
0.575
 20
8.092238
 30
0.0
 11
0.785968
 21
8.092238
 31
0.0
  0
LINE
  5
602
  8
0
 10
0.785968
 20
8.092238
 30
0.0
 11
1.127555
 21
8.092238
 31
0.0
  0
LINE
  5
603
  8
0
 10
1.127555
 20
8.092238
 30
0.0
 11
2.183097
 21
8.092238
 31
0.0
  0
LINE
  5
604
  8
0
 10
2.183097
 20
8.092238
 30
0.0
 11
2.272129
 21
8.092238
 31
0.0
  0
LINE
  5
605
  8
0
 10
2.272129
 20
8.092238
 30
0.0
 11
2.482394
 21
8.092238
 31
0.0
  0
LINE
  5
606
  8
0
 10
2.482394
 20
8.092238
 30
0.0
 11
2.927555
 21
8.092238
 31
0.0
  0
LINE
  5
607
  8
0
 10
2.927555
 20
8.092238
 30
0.0
 11
3.983097
 21
8.092238
 31
0.0
  0
LINE
  5
608
  8
0
 10
3.983097
 20
8.092238
 30
0.0
 11
4.072129
 21
8.092238
 31
0.0
  0
LINE
  5
609
  8
0
 10
4.072129
 20
8.092238
 30
0.0
 11
4.282394
 21
8.092238
 31
0.0
  0
LINE
  5
60A
  8
0
 10
4.282394
 20
8.092238
 30
0.0
 11
4.727555
 21
8.092238
 31
0.0
  0
LINE
  5
60B
  8
0
 10
4.727555
 20
8.092238
 30
0.0
 11
5.783097
 21
8.092238
 31
0.0
  0
LINE
  5
60C
  8
0
 10
5.783097
 20
8.092238
 30
0.0
 11
5.872129
 21
8.092238
 31
0.0
  0
LINE
  5
60D
  8
0
 10
5.872129
 20
8.092238
 30
0.0
 11
6.082394
 21
8.092238
 31
0.0
  0
LINE
  5
60E
  8
0
 10
6.082394
 20
8.092238
 30
0.0
 11
6.527555
 21
8.092238
 31
0.0
  0
LINE
  5
60F
  8
0
 10
6.527555
 20
8.092238
 30
0.0
 11
7.583097
 21
8.092238
 31
0.0
  0
LINE
  5
610
  8
0
 10
7.583097
 20
8.092238
 30
0.0
 11
7.672129
 21
8.092238
 31
0.0
  0
LINE
  5
611
  8
0
 10
7.672129
 20
8.092238
 30
0.0
 11
7.882394
 21
8.092238
 31
0.0
  0
LINE
  5
612
  8
0
 10
7.882394
 20
8.092238
 30
0.0
 11
8.327555
 21
8.092238
 31
0.0
  0
LINE
  5
613
  8
0
 10
8.327555
 20
8.092238
 30
0.0
 11
9.383097
 21
8.092238
 31
0.0
  0
LINE
  5
614
  8
0
 10
9.383097
 20
8.092238
 30
0.0
 11
9.472129
 21
8.092238
 31
0.0
  0
LINE
  5
615
  8
0
 10
9.472129
 20
8.092238
 30
0.0
 11
9.682394
 21
8.092238
 31
0.0
  0
LINE
  5
616
  8
0
 10
9.682394
 20
8.092238
 30
0.0
 11
10.127555
 21
8.092238
 31
0.0
  0
LINE
  5
617
  8
0
 10
10.127555
 20
8.092238
 30
0.0
 11
11.183097
 21
8.092238
 31
0.0
  0
LINE
  5
618
  8
0
 10
11.183097
 20
8.092238
 30
0.0
 11
11.272129
 21
8.092238
 31
0.0
  0
LINE
  5
619
  8
0
 10
11.272129
 20
8.092238
 30
0.0
 11
11.482394
 21
8.092238
 31
0.0
  0
LINE
  5
61A
  8
0
 10
11.482394
 20
8.092238
 30
0.0
 11
11.927555
 21
8.092238
 31
0.0
  0
LINE
  5
61B
  8
0
 10
11.927555
 20
8.092238
 30
0.0
 11
12.983097
 21
8.092238
 31
0.0
  0
LINE
  5
61C
  8
0
 10
12.983097
 20
8.092238
 30
0.0
 11
13.072129
 21
8.092238
 31
0.0
  0
LINE
  5
61D
  8
0
 10
13.072129
 20
8.092238
 30
0.0
 11
13.282394
 21
8.092238
 31
0.0
  0
LINE
  5
61E
  8
0
 10
13.282394
 20
8.092238
 30
0.0
 11
13.727555
 21
8.092238
 31
0.0
  0
LINE
  5
61F
  8
0
 10
13.727555
 20
8.092238
 30
0.0
 11
14.536968
 21
8.092238
 31
0.0
  0
LINE
  5
620
  8
0
 10
14.536968
 20
8.092238
 30
0.0
 11
14.626
 21
8.092238
 31
0.0
  0
LINE
  5
621
  8
0
 10
0.56
 20
8.592238
 30
0.0
 11
0.770968
 21
8.592238
 31
0.0
  0
LINE
  5
622
  8
0
 10
0.56
 20
8.592238
 30
0.0
 11
0.770968
 21
8.592238
 31
0.0
  0
LINE
  5
623
  8
0
 10
0.770968
 20
8.592238
 30
0.0
 11
1.117006
 21
8.592238
 31
0.0
  0
LINE
  5
624
  8
0
 10
1.117006
 20
8.592238
 30
0.0
 11
2.171845
 21
8.592238
 31
0.0
  0
LINE
  5
625
  8
0
 10
2.171845
 20
8.592238
 30
0.0
 11
2.260877
 21
8.592238
 31
0.0
  0
LINE
  5
626
  8
0
 10
2.260877
 20
8.592238
 30
0.0
 11
2.471845
 21
8.592238
 31
0.0
  0
LINE
  5
627
  8
0
 10
2.471845
 20
8.592238
 30
0.0
 11
2.917006
 21
8.592238
 31
0.0
  0
LINE
  5
628
  8
0
 10
2.917006
 20
8.592238
 30
0.0
 11
3.971845
 21
8.592238
 31
0.0
  0
LINE
  5
629
  8
0
 10
3.971845
 20
8.592238
 30
0.0
 11
4.060877
 21
8.592238
 31
0.0
  0
LINE
  5
62A
  8
0
 10
4.060877
 20
8.592238
 30
0.0
 11
4.271845
 21
8.592238
 31
0.0
  0
LINE
  5
62B
  8
0
 10
4.271845
 20
8.592238
 30
0.0
 11
4.717006
 21
8.592238
 31
0.0
  0
LINE
  5
62C
  8
0
 10
4.717006
 20
8.592238
 30
0.0
 11
5.771845
 21
8.592238
 31
0.0
  0
LINE
  5
62D
  8
0
 10
5.771845
 20
8.592238
 30
0.0
 11
5.860877
 21
8.592238
 31
0.0
  0
LINE
  5
62E
  8
0
 10
5.860877
 20
8.592238
 30
0.0
 11
6.071845
 21
8.592238
 31
0.0
  0
LINE
  5
62F
  8
0
 10
6.071845
 20
8.592238
 30
0.0
 11
6.517006
 21
8.592238
 31
0.0
  0
LINE
  5
630
  8
0
 10
6.517006
 20
8.592238
 30
0.0
 11
7.571845
 21
8.592238
 31
0.0
  0
LINE
  5
631
  8
0
 10
7.571845
 20
8.592238
 30
0.0
 11
7.660877
 21
8.592238
 31
0.0
  0
LINE
  5
632
  8
0
 10
7.660877
 20
8.592238
 30
0.0
 11
7.871845
 21
8.592238
 31
0.0
  0
LINE
  5
633
  8
0
 10
7.871845
 20
8.592238
 30
0.0
 11
8.317006
 21
8.592238
 31
0.0
  0
LINE
  5
634
  8
0
 10
8.317006
 20
8.592238
 30
0.0
 11
9.371845
 21
8.592238
 31
0.0
  0
LINE
  5
635
  8
0
 10
9.371845
 20
8.592238
 30
0.0
 11
9.460877
 21
8.592238
 31
0.0
  0
LINE
  5
636
  8
0
 10
9.460877
 20
8.592238
 30
0.0
 11
9.671845
 21
8.592238
 31
0.0
  0
LINE
  5
637
  8
0
 10
9.671845
 20
8.592238
 30
0.0
 11
10.117006
 21
8.592238
 31
0.0
  0
LINE
  5
638
  8
0
 10
10.117006
 20
8.592238
 30
0.0
 11
11.171845
 21
8.592238
 31
0.0
  0
LINE
  5
639
  8
0
 10
11.171845
 20
8.592238
 30
0.0
 11
11.260877
 21
8.592238
 31
0.0
  0
LINE
  5
63A
  8
0
 10
11.260877
 20
8.592238
 30
0.0
 11
11.471845
 21
8.592238
 31
0.0
  0
LINE
  5
63B
  8
0
 10
11.471845
 20
8.592238
 30
0.0
 11
11.917006
 21
8.592238
 31
0.0
  0
LINE
  5
63C
  8
0
 10
11.917006
 20
8.592238
 30
0.0
 11
12.971845
 21
8.592238
 31
0.0
  0
LINE
  5
63D
  8
0
 10
12.971845
 20
8.592238
 30
0.0
 11
13.060877
 21
8.592238
 31
0.0
  0
LINE
  5
63E
  8
0
 10
13.060877
 20
8.592238
 30
0.0
 11
13.271845
 21
8.592238
 31
0.0
  0
LINE
  5
63F
  8
0
 10
13.271845
 20
8.592238
 30
0.0
 11
13.717006
 21
8.592238
 31
0.0
  0
LINE
  5
640
  8
0
 10
13.717006
 20
8.592238
 30
0.0
 11
14.536968
 21
8.592238
 31
0.0
  0
LINE
  5
641
  8
0
 10
14.536968
 20
8.592238
 30
0.0
 11
14.626
 21
8.592238
 31
0.0
  0
LINE
  5
642
  8
0
 10
0.545
 20
9.092238
 30
0.0
 11
0.755968
 21
9.092238
 31
0.0
  0
LINE
  5
643
  8
0
 10
0.545
 20
9.092238
 30
0.0
 11
0.755968
 21
9.092238
 31
0.0
  0
LINE
  5
644
  8
0
 10
0.755968
 20
9.092238
 30
0.0
 11
1.106458
 21
9.092238
 31
0.0
  0
LINE
  5
645
  8
0
 10
1.106458
 20
9.092238
 30
0.0
 11
2.161297
 21
9.092238
 31
0.0
  0
LINE
  5
646
  8
0
 10
2.161297
 20
9.092238
 30
0.0
 11
2.250329
 21
9.092238
 31
0.0
  0
LINE
  5
647
  8
0
 10
2.250329
 20
9.092238
 30
0.0
 11
2.461297
 21
9.092238
 31
0.0
  0
LINE
  5
648
  8
0
 10
2.461297
 20
9.092238
 30
0.0
 11
2.906458
 21
9.092238
 31
0.0
  0
LINE
  5
649
  8
0
 10
2.906458
 20
9.092238
 30
0.0
 11
3.961297
 21
9.092238
 31
0.0
  0
LINE
  5
64A
  8
0
 10
3.961297
 20
9.092238
 30
0.0
 11
4.050329
 21
9.092238
 31
0.0
  0
LINE
  5
64B
  8
0
 10
4.050329
 20
9.092238
 30
0.0
 11
4.261297
 21
9.092238
 31
0.0
  0
LINE
  5
64C
  8
0
 10
4.261297
 20
9.092238
 30
0.0
 11
4.706458
 21
9.092238
 31
0.0
  0
LINE
  5
64D
  8
0
 10
4.706458
 20
9.092238
 30
0.0
 11
5.761297
 21
9.092238
 31
0.0
  0
LINE
  5
64E
  8
0
 10
5.761297
 20
9.092238
 30
0.0
 11
5.850329
 21
9.092238
 31
0.0
  0
LINE
  5
64F
  8
0
 10
5.850329
 20
9.092238
 30
0.0
 11
6.061297
 21
9.092238
 31
0.0
  0
LINE
  5
650
  8
0
 10
6.061297
 20
9.092238
 30
0.0
 11
6.506458
 21
9.092238
 31
0.0
  0
LINE
  5
651
  8
0
 10
6.506458
 20
9.092238
 30
0.0
 11
7.561297
 21
9.092238
 31
0.0
  0
LINE
  5
652
  8
0
 10
7.561297
 20
9.092238
 30
0.0
 11
7.650329
 21
9.092238
 31
0.0
  0
LINE
  5
653
  8
0
 10
7.650329
 20
9.092238
 30
0.0
 11
7.861297
 21
9.092238
 31
0.0
  0
LINE
  5
654
  8
0
 10
7.861297
 20
9.092238
 30
0.0
 11
8.306458
 21
9.092238
 31
0.0
  0
LINE
  5
655
  8
0
 10
8.306458
 20
9.092238
 30
0.0
 11
9.361297
 21
9.092238
 31
0.0
  0
LINE
  5
656
  8
0
 10
9.361297
 20
9.092238
 30
0.0
 11
9.450329
 21
9.092238
 31
0.0
  0
LINE
  5
657
  8
0
 10
9.450329
 20
9.092238
 30
0.0
 11
9.661297
 21
9.092238
 31
0.0
  0
LINE
  5
658
  8
0
 10
9.661297
 20
9.092238
 30
0.0
 11
10.106458
 21
9.092238
 31
0.0
  0
LINE
  5
659
  8
0
 10
10.106458
 20
9.092238
 30
0.0
 11
11.161297
 21
9.092238
 31
0.0
  0
LINE
  5
65A
  8
0
 10
11.161297
 20
9.092238
 30
0.0
 11
11.250329
 21
9.092238
 31
0.0
  0
LINE
  5
65B
  8
0
 10
11.250329
 20
9.092238
 30
0.0
 11
11.461297
 21
9.092238
 31
0.0
  0
LINE
  5
65C
  8
0
 10
11.461297
 20
9.092238
 30
0.0
 11
11.906458
 21
9.092238
 31
0.0
  0
LINE
  5
65D
  8
0
 10
11.906458
 20
9.092238
 30
0.0
 11
12.961297
 21
9.092238
 31
0.0
  0
LINE
  5
65E
  8
0
 10
12.961297
 20
9.092238
 30
0.0
 11
13.050329
 21
9.092238
 31
0.0
  0
LINE
  5
65F
  8
0
 10
13.050329
 20
9.092238
 30
0.0
 11
13.261297
 21
9.092238
 31
0.0
  0
LINE
  5
660
  8
0
 10
13.261297
 20
9.092238
 30
0.0
 11
13.706458
 21
9.092238
 31
0.0
  0
LINE
  5
661
  8
0
 10
13.706458
 20
9.092238
 30
0.0
 11
14.536968
 21
9.092238
 31
0.0
  0
LINE
  5
662
  8
0
 10
14.536968
 20
9.092238
 30
0.0
 11
14.626
 21
9.092238
 31
0.0
  0
LINE
  5
663
  8
0
 10
0.529
 20
9.592238
 30
0.0
 11
0.739968
 21
9.592238
 31
0.0
  0
LINE
  5
664
  8
0
 10
0.529
 20
9.592238
 30
0.0
 11
0.739968
 21
9.592238
 31
0.0
  0
LINE
  5
665
  8
0
 10
0.739968
 20
9.592238
 30
0.0
 11
1.095206
 21
9.592238
 31
0.0
  0
LINE
  5
666
  8
0
 10
1.095206
 20
9.592238
 30
0.0
 11
2.150748
 21
9.592238
 31
0.0
  0
LINE
  5
667
  8
0
 10
2.150748
 20
9.592238
 30
0.0
 11
2.239781
 21
9.592238
 31
0.0
  0
LINE
  5
668
  8
0
 10
2.239781
 20
9.592238
 30
0.0
 11
2.450045
 21
9.592238
 31
0.0
  0
LINE
  5
669
  8
0
 10
2.450045
 20
9.592238
 30
0.0
 11
2.895206
 21
9.592238
 31
0.0
  0
LINE
  5
66A
  8
0
 10
2.895206
 20
9.592238
 30
0.0
 11
3.950748
 21
9.592238
 31
0.0
  0
LINE
  5
66B
  8
0
 10
3.950748
 20
9.592238
 30
0.0
 11
4.039781
 21
9.592238
 31
0.0
  0
LINE
  5
66C
  8
0
 10
4.039781
 20
9.592238
 30
0.0
 11
4.250045
 21
9.592238
 31
0.0
  0
LINE
  5
66D
  8
0
 10
4.250045
 20
9.592238
 30
0.0
 11
4.695206
 21
9.592238
 31
0.0
  0
LINE
  5
66E
  8
0
 10
4.695206
 20
9.592238
 30
0.0
 11
5.750748
 21
9.592238
 31
0.0
  0
LINE
  5
66F
  8
0
 10
5.750748
 20
9.592238
 30
0.0
 11
5.839781
 21
9.592238
 31
0.0
  0
LINE
  5
670
  8
0
 10
5.839781
 20
9.592238
 30
0.0
 11
6.050045
 21
9.592238
 31
0.0
  0
LINE
  5
671
  8
0
 10
6.050045
 20
9.592238
 30
0.0
 11
6.495206
 21
9.592238
 31
0.0
  0
LINE
  5
672
  8
0
 10
6.495206
 20
9.592238
 30
0.0
 11
7.550748
 21
9.592238
 31
0.0
  0
LINE
  5
673
  8
0
 10
7.550748
 20
9.592238
 30
0.0
 11
7.639781
 21
9.592238
 31
0.0
  0
LINE
  5
674
  8
0
 10
7.639781
 20
9.592238
 30
0.0
 11
7.850045
 21
9.592238
 31
0.0
  0
LINE
  5
675
  8
0
 10
7.850045
 20
9.592238
 30
0.0
 11
8.295206
 21
9.592238
 31
0.0
  0
LINE
  5
676
  8
0
 10
8.295206
 20
9.592238
 30
0.0
 11
9.350748
 21
9.592238
 31
0.0
  0
LINE
  5
677
  8
0
 10
9.350748
 20
9.592238
 30
0.0
 11
9.439781
 21
9.592238
 31
0.0
  0
LINE
  5
678
  8
0
 10
9.439781
 20
9.592238
 30
0.0
 11
9.650045
 21
9.592238
 31
0.0
  0
LINE
  5
679
  8
0
 10
9.650045
 20
9.592238
 30
0.0
 11
10.095206
 21
9.592238
 31
0.0
  0
LINE
  5
67A
  8
0
 10
10.095206
 20
9.592238
 30
0.0
 11
11.150748
 21
9.592238
 31
0.0
  0
LINE
  5
67B
  8
0
 10
11.150748
 20
9.592238
 30
0.0
 11
11.239781
 21
9.592238
 31
0.0
  0
LINE
  5
67C
  8
0
 10
11.239781
 20
9.592238
 30
0.0
 11
11.450045
 21
9.592238
 31
0.0
  0
LINE
  5
67D
  8
0
 10
11.450045
 20
9.592238
 30
0.0
 11
11.895206
 21
9.592238
 31
0.0
  0
LINE
  5
67E
  8
0
 10
11.895206
 20
9.592238
 30
0.0
 11
12.950748
 21
9.592238
 31
0.0
  0
LINE
  5
67F
  8
0
 10
12.950748
 20
9.592238
 30
0.0
 11
13.039781
 21
9.592238
 31
0.0
  0
LINE
  5
680
  8
0
 10
13.039781
 20
9.592238
 30
0.0
 11
13.250045
 21
9.592238
 31
0.0
  0
LINE
  5
681
  8
0
 10
13.250045
 20
9.592238
 30
0.0
 11
13.695206
 21
9.592238
 31
0.0
  0
LINE
  5
682
  8
0
 10
13.695206
 20
9.592238
 30
0.0
 11
14.536968
 21
9.592238
 31
0.0
  0
LINE
  5
683
  8
0
 10
14.536968
 20
9.592238
 30
0.0
 11
14.626
 21
9.592238
 31
0.0
  0
LINE
  5
684
  8
0
 10
0.514
 20
10.092238
 30
0.0
 11
0.724968
 21
10.092238
 31
0.0
  0
LINE
  5
685
  8
0
 10
0.514
 20
10.092238
 30
0.0
 11
0.724968
 21
10.092238
 31
0.0
  0
LINE
  5
686
  8
0
 10
0.724968
 20
10.092238
 30
0.0
 11
1.084658
 21
10.092238
 31
0.0
  0
LINE
  5
687
  8
0
 10
1.084658
 20
10.092238
 30
0.0
 11
2.139497
 21
10.092238
 31
0.0
  0
LINE
  5
688
  8
0
 10
2.139497
 20
10.092238
 30
0.0
 11
2.228529
 21
10.092238
 31
0.0
  0
LINE
  5
689
  8
0
 10
2.228529
 20
10.092238
 30
0.0
 11
2.439497
 21
10.092238
 31
0.0
  0
LINE
  5
68A
  8
0
 10
2.439497
 20
10.092238
 30
0.0
 11
2.884658
 21
10.092238
 31
0.0
  0
LINE
  5
68B
  8
0
 10
2.884658
 20
10.092238
 30
0.0
 11
3.939497
 21
10.092238
 31
0.0
  0
LINE
  5
68C
  8
0
 10
3.939497
 20
10.092238
 30
0.0
 11
4.028529
 21
10.092238
 31
0.0
  0
LINE
  5
68D
  8
0
 10
4.028529
 20
10.092238
 30
0.0
 11
4.239497
 21
10.092238
 31
0.0
  0
LINE
  5
68E
  8
0
 10
4.239497
 20
10.092238
 30
0.0
 11
4.684658
 21
10.092238
 31
0.0
  0
LINE
  5
68F
  8
0
 10
4.684658
 20
10.092238
 30
0.0
 11
5.739497
 21
10.092238
 31
0.0
  0
LINE
  5
690
  8
0
 10
5.739497
 20
10.092238
 30
0.0
 11
5.828529
 21
10.092238
 31
0.0
  0
LINE
  5
691
  8
0
 10
5.828529
 20
10.092238
 30
0.0
 11
6.039497
 21
10.092238
 31
0.0
  0
LINE
  5
692
  8
0
 10
6.039497
 20
10.092238
 30
0.0
 11
6.484658
 21
10.092238
 31
0.0
  0
LINE
  5
693
  8
0
 10
6.484658
 20
10.092238
 30
0.0
 11
7.539497
 21
10.092238
 31
0.0
  0
LINE
  5
694
  8
0
 10
7.539497
 20
10.092238
 30
0.0
 11
7.628529
 21
10.092238
 31
0.0
  0
LINE
  5
695
  8
0
 10
7.628529
 20
10.092238
 30
0.0
 11
7.839497
 21
10.092238
 31
0.0
  0
LINE
  5
696
  8
0
 10
7.839497
 20
10.092238
 30
0.0
 11
8.284658
 21
10.092238
 31
0.0
  0
LINE
  5
697
  8
0
 10
8.284658
 20
10.092238
 30
0.0
 11
9.339497
 21
10.092238
 31
0.0
  0
LINE
  5
698
  8
0
 10
9.339497
 20
10.092238
 30
0.0
 11
9.428529
 21
10.092238
 31
0.0
  0
LINE
  5
699
  8
0
 10
9.428529
 20
10.092238
 30
0.0
 11
9.639497
 21
10.092238
 31
0.0
  0
LINE
  5
69A
  8
0
 10
9.639497
 20
10.092238
 30
0.0
 11
10.084658
 21
10.092238
 31
0.0
  0
LINE
  5
69B
  8
0
 10
10.084658
 20
10.092238
 30
0.0
 11
11.139497
 21
10.092238
 31
0.0
  0
LINE
  5
69C
  8
0
 10
11.139497
 20
10.092238
 30
0.0
 11
11.228529
 21
10.092238
 31
0.0
  0
LINE
  5
69D
  8
0
 10
11.228529
 20
10.092238
 30
0.0
 11
11.439497
 21
10.092238
 31
0.0
  0
LINE
  5
69E
  8
0
 10
11.439497
 20
10.092238
 30
0.0
 11
11.884658
 21
10.092238
 31
0.0
  0
LINE
  5
69F
  8
0
 10
11.884658
 20
10.092238
 30
0.0
 11
12.939497
 21
10.092238
 31
0.0
  0
LINE
  5
6A0
  8
0
 10
12.939497
 20
10.092238
 30
0.0
 11
13.028529
 21
10.092238
 31
0.0
  0
LINE
  5
6A1
  8
0
 10
13.028529
 20
10.092238
 30
0.0
 11
13.239497
 21
10.092238
 31
0.0
  0
LINE
  5
6A2
  8
0
 10
13.239497
 20
10.092238
 30
0.0
 11
13.684658
 21
10.092238
 31
0.0
  0
LINE
  5
6A3
  8
0
 10
13.684658
 20
10.092238
 30
0.0
 11
14.536968
 21
10.092238
 31
0.0
  0
LINE
  5
6A4
  8
0
 10
14.536968
 20
10.092238
 30
0.0
 11
14.626
 21
10.092238
 31
0.0
  0
LINE
  5
6A5
  8
0
 10
0.499
 20
10.592238
 30
0.0
 11
0.709968
 21
10.592238
 31
0.0
  0
LINE
  5
6A6
  8
0
 10
0.499
 20
10.592238
 30
0.0
 11
0.709968
 21
10.592238
 31
0.0
  0
LINE
  5
6A7
  8
0
 10
0.709968
 20
10.592238
 30
0.0
 11
1.07411
 21
10.592238
 31
0.0
  0
LINE
  5
6A8
  8
0
 10
1.07411
 20
10.592238
 30
0.0
 11
2.128948
 21
10.592238
 31
0.0
  0
LINE
  5
6A9
  8
0
 10
2.128948
 20
10.592238
 30
0.0
 11
2.217981
 21
10.592238
 31
0.0
  0
LINE
  5
6AA
  8
0
 10
2.217981
 20
10.592238
 30
0.0
 11
2.428948
 21
10.592238
 31
0.0
  0
LINE
  5
6AB
  8
0
 10
2.428948
 20
10.592238
 30
0.0
 11
2.87411
 21
10.592238
 31
0.0
  0
LINE
  5
6AC
  8
0
 10
2.87411
 20
10.592238
 30
0.0
 11
3.928948
 21
10.592238
 31
0.0
  0
LINE
  5
6AD
  8
0
 10
3.928948
 20
10.592238
 30
0.0
 11
4.017981
 21
10.592238
 31
0.0
  0
LINE
  5
6AE
  8
0
 10
4.017981
 20
10.592238
 30
0.0
 11
4.228948
 21
10.592238
 31
0.0
  0
LINE
  5
6AF
  8
0
 10
4.228948
 20
10.592238
 30
0.0
 11
4.67411
 21
10.592238
 31
0.0
  0
LINE
  5
6B0
  8
0
 10
4.67411
 20
10.592238
 30
0.0
 11
5.728948
 21
10.592238
 31
0.0
  0
LINE
  5
6B1
  8
0
 10
5.728948
 20
10.592238
 30
0.0
 11
5.817981
 21
10.592238
 31
0.0
  0
LINE
  5
6B2
  8
0
 10
5.817981
 20
10.592238
 30
0.0
 11
6.028948
 21
10.592238
 31
0.0
  0
LINE
  5
6B3
  8
0
 10
6.028948
 20
10.592238
 30
0.0
 11
6.47411
 21
10.592238
 31
0.0
  0
LINE
  5
6B4
  8
0
 10
6.47411
 20
10.592238
 30
0.0
 11
7.528948
 21
10.592238
 31
0.0
  0
LINE
  5
6B5
  8
0
 10
7.528948
 20
10.592238
 30
0.0
 11
7.617981
 21
10.592238
 31
0.0
  0
LINE
  5
6B6
  8
0
 10
7.617981
 20
10.592238
 30
0.0
 11
7.828948
 21
10.592238
 31
0.0
  0
LINE
  5
6B7
  8
0
 10
7.828948
 20
10.592238
 30
0.0
 11
8.27411
 21
10.592238
 31
0.0
  0
LINE
  5
6B8
  8
0
 10
8.27411
 20
10.592238
 30
0.0
 11
9.328948
 21
10.592238
 31
0.0
  0
LINE
  5
6B9
  8
0
 10
9.328948
 20
10.592238
 30
0.0
 11
9.417981
 21
10.592238
 31
0.0
  0
LINE
  5
6BA
  8
0
 10
9.417981
 20
10.592238
 30
0.0
 11
9.628948
 21
10.592238
 31
0.0
  0
LINE
  5
6BB
  8
0
 10
9.628948
 20
10.592238
 30
0.0
 11
10.07411
 21
10.592238
 31
0.0
  0
LINE
  5
6BC
  8
0
 10
10.07411
 20
10.592238
 30
0.0
 11
11.128948
 21
10.592238
 31
0.0
  0
LINE
  5
6BD
  8
0
 10
11.128948
 20
10.592238
 30
0.0
 11
11.217981
 21
10.592238
 31
0.0
  0
LINE
  5
6BE
  8
0
 10
11.217981
 20
10.592238
 30
0.0
 11
11.428948
 21
10.592238
 31
0.0
  0
LINE
  5
6BF
  8
0
 10
11.428948
 20
10.592238
 30
0.0
 11
11.87411
 21
10.592238
 31
0.0
  0
LINE
  5
6C0
  8
0
 10
11.87411
 20
10.592238
 30
0.0
 11
12.928948
 21
10.592238
 31
0.0
  0
LINE
  5
6C1
  8
0
 10
12.928948
 20
10.592238
 30
0.0
 11
13.017981
 21
10.592238
 31
0.0
  0
LINE
  5
6C2
  8
0
 10
13.017981
 20
10.592238
 30
0.0
 11
13.228948
 21
10.592238
 31
0.0
  0
LINE
  5
6C3
  8
0
 10
13.228948
 20
10.592238
 30
0.0
 11
13.67411
 21
10.592238
 31
0.0
  0
LINE
  5
6C4
  8
0
 10
13.67411
 20
10.592238
 30
0.0
 11
14.536968
 21
10.592238
 31
0.0
  0
LINE
  5
6C5
  8
0
 10
14.536968
 20
10.592238
 30
0.0
 11
14.626
 21
10.592238
 31
0.0
  0
LINE
  5
6C6
  8
0
 10
0.484
 20
11.092238
 30
0.0
 11
0.694968
 21
11.092238
 31
0.0
  0
LINE
  5
6C7
  8
0
 10
0.484
 20
11.092238
 30
0.0
 11
0.694968
 21
11.092238
 31
0.0
  0
LINE
  5
6C8
  8
0
 10
0.694968
 20
11.092238
 30
0.0
 11
1.063561
 21
11.092238
 31
0.0
  0
LINE
  5
6C9
  8
0
 10
1.063561
 20
11.092238
 30
0.0
 11
2.1184
 21
11.092238
 31
0.0
  0
LINE
  5
6CA
  8
0
 10
2.1184
 20
11.092238
 30
0.0
 11
2.207432
 21
11.092238
 31
0.0
  0
LINE
  5
6CB
  8
0
 10
2.207432
 20
11.092238
 30
0.0
 11
2.4184
 21
11.092238
 31
0.0
  0
LINE
  5
6CC
  8
0
 10
2.4184
 20
11.092238
 30
0.0
 11
2.863561
 21
11.092238
 31
0.0
  0
LINE
  5
6CD
  8
0
 10
2.863561
 20
11.092238
 30
0.0
 11
3.9184
 21
11.092238
 31
0.0
  0
LINE
  5
6CE
  8
0
 10
3.9184
 20
11.092238
 30
0.0
 11
4.007432
 21
11.092238
 31
0.0
  0
LINE
  5
6CF
  8
0
 10
4.007432
 20
11.092238
 30
0.0
 11
4.2184
 21
11.092238
 31
0.0
  0
LINE
  5
6D0
  8
0
 10
4.2184
 20
11.092238
 30
0.0
 11
4.663561
 21
11.092238
 31
0.0
  0
LINE
  5
6D1
  8
0
 10
4.663561
 20
11.092238
 30
0.0
 11
5.7184
 21
11.092238
 31
0.0
  0
LINE
  5
6D2
  8
0
 10
5.7184
 20
11.092238
 30
0.0
 11
5.807432
 21
11.092238
 31
0.0
  0
LINE
  5
6D3
  8
0
 10
5.807432
 20
11.092238
 30
0.0
 11
6.0184
 21
11.092238
 31
0.0
  0
LINE
  5
6D4
  8
0
 10
6.0184
 20
11.092238
 30
0.0
 11
6.463561
 21
11.092238
 31
0.0
  0
LINE
  5
6D5
  8
0
 10
6.463561
 20
11.092238
 30
0.0
 11
7.5184
 21
11.092238
 31
0.0
  0
LINE
  5
6D6
  8
0
 10
7.5184
 20
11.092238
 30
0.0
 11
7.607432
 21
11.092238
 31
0.0
  0
LINE
  5
6D7
  8
0
 10
7.607432
 20
11.092238
 30
0.0
 11
7.8184
 21
11.092238
 31
0.0
  0
LINE
  5
6D8
  8
0
 10
7.8184
 20
11.092238
 30
0.0
 11
8.263561
 21
11.092238
 31
0.0
  0
LINE
  5
6D9
  8
0
 10
8.263561
 20
11.092238
 30
0.0
 11
9.3184
 21
11.092238
 31
0.0
  0
LINE
  5
6DA
  8
0
 10
9.3184
 20
11.092238
 30
0.0
 11
9.407432
 21
11.092238
 31
0.0
  0
LINE
  5
6DB
  8
0
 10
9.407432
 20
11.092238
 30
0.0
 11
9.6184
 21
11.092238
 31
0.0
  0
LINE
  5
6DC
  8
0
 10
9.6184
 20
11.092238
 30
0.0
 11
10.063561
 21
11.092238
 31
0.0
  0
LINE
  5
6DD
  8
0
 10
10.063561
 20
11.092238
 30
0.0
 11
11.1184
 21
11.092238
 31
0.0
  0
LINE
  5
6DE
  8
0
 10
11.1184
 20
11.092238
 30
0.0
 11
11.207432
 21
11.092238
 31
0.0
  0
LINE
  5
6DF
  8
0
 10
11.207432
 20
11.092238
 30
0.0
 11
11.4184
 21
11.092238
 31
0.0
  0
LINE
  5
6E0
  8
0
 10
11.4184
 20
11.092238
 30
0.0
 11
11.863561
 21
11.092238
 31
0.0
  0
LINE
  5
6E1
  8
0
 10
11.863561
 20
11.092238
 30
0.0
 11
12.9184
 21
11.092238
 31
0.0
  0
LINE
  5
6E2
  8
0
 10
12.9184
 20
11.092238
 30
0.0
 11
13.007432
 21
11.092238
 31
0.0
  0
LINE
  5
6E3
  8
0
 10
13.007432
 20
11.092238
 30
0.0
 11
13.2184
 21
11.092238
 31
0.0
  0
LINE
  5
6E4
  8
0
 10
13.2184
 20
11.092238
 30
0.0
 11
13.663561
 21
11.092238
 31
0.0
  0
LINE
  5
6E5
  8
0
 10
13.663561
 20
11.092238
 30
0.0
 11
14.536968
 21
11.092238
 31
0.0
  0
LINE
  5
6E6
  8
0
 10
14.536968
 20
11.092238
 30
0.0
 11
14.626
 21
11.092238
 31
0.0
  0
LINE
  5
6E7
  8
0
 10
0.468
 20
11.592238
 30
0.0
 11
0.678968
 21
11.592238
 31
0.0
  0
LINE
  5
6E8
  8
0
 10
0.468
 20
11.592238
 30
0.0
 11
0.678968
 21
11.592238
 31
0.0
  0
LINE
  5
6E9
  8
0
 10
0.678968
 20
11.592238
 30
0.0
 11
1.05231
 21
11.592238
 31
0.0
  0
LINE
  5
6EA
  8
0
 10
1.05231
 20
11.592238
 30
0.0
 11
2.107148
 21
11.592238
 31
0.0
  0
LINE
  5
6EB
  8
0
 10
2.107148
 20
11.592238
 30
0.0
 11
2.196181
 21
11.592238
 31
0.0
  0
LINE
  5
6EC
  8
0
 10
2.196181
 20
11.592238
 30
0.0
 11
2.407148
 21
11.592238
 31
0.0
  0
LINE
  5
6ED
  8
0
 10
2.407148
 20
11.592238
 30
0.0
 11
2.85231
 21
11.592238
 31
0.0
  0
LINE
  5
6EE
  8
0
 10
2.85231
 20
11.592238
 30
0.0
 11
3.907148
 21
11.592238
 31
0.0
  0
LINE
  5
6EF
  8
0
 10
3.907148
 20
11.592238
 30
0.0
 11
3.996181
 21
11.592238
 31
0.0
  0
LINE
  5
6F0
  8
0
 10
3.996181
 20
11.592238
 30
0.0
 11
4.207148
 21
11.592238
 31
0.0
  0
LINE
  5
6F1
  8
0
 10
4.207148
 20
11.592238
 30
0.0
 11
4.65231
 21
11.592238
 31
0.0
  0
LINE
  5
6F2
  8
0
 10
4.65231
 20
11.592238
 30
0.0
 11
5.707148
 21
11.592238
 31
0.0
  0
LINE
  5
6F3
  8
0
 10
5.707148
 20
11.592238
 30
0.0
 11
5.796181
 21
11.592238
 31
0.0
  0
LINE
  5
6F4
  8
0
 10
5.796181
 20
11.592238
 30
0.0
 11
6.007148
 21
11.592238
 31
0.0
  0
LINE
  5
6F5
  8
0
 10
6.007148
 20
11.592238
 30
0.0
 11
6.45231
 21
11.592238
 31
0.0
  0
LINE
  5
6F6
  8
0
 10
6.45231
 20
11.592238
 30
0.0
 11
7.507148
 21
11.592238
 31
0.0
  0
LINE
  5
6F7
  8
0
 10
7.507148
 20
11.592238
 30
0.0
 11
7.596181
 21
11.592238
 31
0.0
  0
LINE
  5
6F8
  8
0
 10
7.596181
 20
11.592238
 30
0.0
 11
7.807148
 21
11.592238
 31
0.0
  0
LINE
  5
6F9
  8
0
 10
7.807148
 20
11.592238
 30
0.0
 11
8.25231
 21
11.592238
 31
0.0
  0
LINE
  5
6FA
  8
0
 10
8.25231
 20
11.592238
 30
0.0
 11
9.307148
 21
11.592238
 31
0.0
  0
LINE
  5
6FB
  8
0
 10
9.307148
 20
11.592238
 30
0.0
 11
9.396181
 21
11.592238
 31
0.0
  0
LINE
  5
6FC
  8
0
 10
9.396181
 20
11.592238
 30
0.0
 11
9.607148
 21
11.592238
 31
0.0
  0
LINE
  5
6FD
  8
0
 10
9.607148
 20
11.592238
 30
0.0
 11
10.05231
 21
11.592238
 31
0.0
  0
LINE
  5
6FE
  8
0
 10
10.05231
 20
11.592238
 30
0.0
 11
11.107148
 21
11.592238
 31
0.0
  0
LINE
  5
6FF
  8
0
 10
11.107148
 20
11.592238
 30
0.0
 11
11.196181
 21
11.592238
 31
0.0
  0
LINE
  5
700
  8
0
 10
11.196181
 20
11.592238
 30
0.0
 11
11.407148
 21
11.592238
 31
0.0
  0
LINE
  5
701
  8
0
 10
11.407148
 20
11.592238
 30
0.0
 11
11.85231
 21
11.592238
 31
0.0
  0
LINE
  5
702
  8
0
 10
11.85231
 20
11.592238
 30
0.0
 11
12.907148
 21
11.592238
 31
0.0
  0
LINE
  5
703
  8
0
 10
12.907148
 20
11.592238
 30
0.0
 11
12.996181
 21
11.592238
 31
0.0
  0
LINE
  5
704
  8
0
 10
12.996181
 20
11.592238
 30
0.0
 11
13.207148
 21
11.592238
 31
0.0
  0
LINE
  5
705
  8
0
 10
13.207148
 20
11.592238
 30
0.0
 11
13.65231
 21
11.592238
 31
0.0
  0
LINE
  5
706
  8
0
 10
13.65231
 20
11.592238
 30
0.0
 11
14.536968
 21
11.592238
 31
0.0
  0
LINE
  5
707
  8
0
 10
14.536968
 20
11.592238
 30
0.0
 11
14.626
 21
11.592238
 31
0.0
  0
LINE
  5
708
  8
0
 10
0.453
 20
12.092238
 30
0.0
 11
0.663968
 21
12.092238
 31
0.0
  0
LINE
  5
709
  8
0
 10
0.453
 20
12.092238
 30
0.0
 11
0.663968
 21
12.092238
 31
0.0
  0
LINE
  5
70A
  8
0
 10
0.663968
 20
12.092238
 30
0.0
 11
1.041761
 21
12.092238
 31
0.0
  0
LINE
  5
70B
  8
0
 10
1.041761
 20
12.092238
 30
0.0
 11
2.0966
 21
12.092238
 31
0.0
  0
LINE
  5
70C
  8
0
 10
2.0966
 20
12.092238
 30
0.0
 11
2.185632
 21
12.092238
 31
0.0
  0
LINE
  5
70D
  8
0
 10
2.185632
 20
12.092238
 30
0.0
 11
2.3966
 21
12.092238
 31
0.0
  0
LINE
  5
70E
  8
0
 10
2.3966
 20
12.092238
 30
0.0
 11
2.841761
 21
12.092238
 31
0.0
  0
LINE
  5
70F
  8
0
 10
2.841761
 20
12.092238
 30
0.0
 11
3.8966
 21
12.092238
 31
0.0
  0
LINE
  5
710
  8
0
 10
3.8966
 20
12.092238
 30
0.0
 11
3.985632
 21
12.092238
 31
0.0
  0
LINE
  5
711
  8
0
 10
3.985632
 20
12.092238
 30
0.0
 11
4.1966
 21
12.092238
 31
0.0
  0
LINE
  5
712
  8
0
 10
4.1966
 20
12.092238
 30
0.0
 11
4.641761
 21
12.092238
 31
0.0
  0
LINE
  5
713
  8
0
 10
4.641761
 20
12.092238
 30
0.0
 11
5.6966
 21
12.092238
 31
0.0
  0
LINE
  5
714
  8
0
 10
5.6966
 20
12.092238
 30
0.0
 11
5.785632
 21
12.092238
 31
0.0
  0
LINE
  5
715
  8
0
 10
5.785632
 20
12.092238
 30
0.0
 11
5.9966
 21
12.092238
 31
0.0
  0
LINE
  5
716
  8
0
 10
5.9966
 20
12.092238
 30
0.0
 11
6.441761
 21
12.092238
 31
0.0
  0
LINE
  5
717
  8
0
 10
6.441761
 20
12.092238
 30
0.0
 11
7.4966
 21
12.092238
 31
0.0
  0
LINE
  5
718
  8
0
 10
7.4966
 20
12.092238
 30
0.0
 11
7.585632
 21
12.092238
 31
0.0
  0
LINE
  5
719
  8
0
 10
7.585632
 20
12.092238
 30
0.0
 11
7.7966
 21
12.092238
 31
0.0
  0
LINE
  5
71A
  8
0
 10
7.7966
 20
12.092238
 30
0.0
 11
8.241761
 21
12.092238
 31
0.0
  0
LINE
  5
71B
  8
0
 10
8.241761
 20
12.092238
 30
0.0
 11
9.2966
 21
12.092238
 31
0.0
  0
LINE
  5
71C
  8
0
 10
9.2966
 20
12.092238
 30
0.0
 11
9.385632
 21
12.092238
 31
0.0
  0
LINE
  5
71D
  8
0
 10
9.385632
 20
12.092238
 30
0.0
 11
9.5966
 21
12.092238
 31
0.0
  0
LINE
  5
71E
  8
0
 10
9.5966
 20
12.092238
 30
0.0
 11
10.041761
 21
12.092238
 31
0.0
  0
LINE
  5
71F
  8
0
 10
10.041761
 20
12.092238
 30
0.0
 11
11.0966
 21
12.092238
 31
0.0
  0
LINE
  5
720
  8
0
 10
11.0966
 20
12.092238
 30
0.0
 11
11.185632
 21
12.092238
 31
0.0
  0
LINE
  5
721
  8
0
 10
11.185632
 20
12.092238
 30
0.0
 11
11.3966
 21
12.092238
 31
0.0
  0
LINE
  5
722
  8
0
 10
11.3966
 20
12.092238
 30
0.0
 11
11.841761
 21
12.092238
 31
0.0
  0
LINE
  5
723
  8
0
 10
11.841761
 20
12.092238
 30
0.0
 11
12.8966
 21
12.092238
 31
0.0
  0
LINE
  5
724
  8
0
 10
12.8966
 20
12.092238
 30
0.0
 11
12.985632
 21
12.092238
 31
0.0
  0
LINE
  5
725
  8
0
 10
12.985632
 20
12.092238
 30
0.0
 11
13.1966
 21
12.092238
 31
0.0
  0
LINE
  5
726
  8
0
 10
13.1966
 20
12.092238
 30
0.0
 11
13.641761
 21
12.092238
 31
0.0
  0
LINE
  5
727
  8
0
 10
13.641761
 20
12.092238
 30
0.0
 11
14.536968
 21
12.092238
 31
0.0
  0
LINE
  5
728
  8
0
 10
14.536968
 20
12.092238
 30
0.0
 11
14.626
 21
12.092238
 31
0.0
  0
LINE
  5
729
  8
0
 10
0.438
 20
12.592238
 30
0.0
 11
0.648968
 21
12.592238
 31
0.0
  0
LINE
  5
72A
  8
0
 10
0.438
 20
12.592238
 30
0.0
 11
0.648968
 21
12.592238
 31
0.0
  0
LINE
  5
72B
  8
0
 10
0.648968
 20
12.592238
 30
0.0
 11
1.031213
 21
12.592238
 31
0.0
  0
LINE
  5
72C
  8
0
 10
1.031213
 20
12.592238
 30
0.0
 11
2.086052
 21
12.592238
 31
0.0
  0
LINE
  5
72D
  8
0
 10
2.086052
 20
12.592238
 30
0.0
 11
2.175084
 21
12.592238
 31
0.0
  0
LINE
  5
72E
  8
0
 10
2.175084
 20
12.592238
 30
0.0
 11
2.386052
 21
12.592238
 31
0.0
  0
LINE
  5
72F
  8
0
 10
2.386052
 20
12.592238
 30
0.0
 11
2.831213
 21
12.592238
 31
0.0
  0
LINE
  5
730
  8
0
 10
2.831213
 20
12.592238
 30
0.0
 11
3.886052
 21
12.592238
 31
0.0
  0
LINE
  5
731
  8
0
 10
3.886052
 20
12.592238
 30
0.0
 11
3.975084
 21
12.592238
 31
0.0
  0
LINE
  5
732
  8
0
 10
3.975084
 20
12.592238
 30
0.0
 11
4.186052
 21
12.592238
 31
0.0
  0
LINE
  5
733
  8
0
 10
4.186052
 20
12.592238
 30
0.0
 11
4.631213
 21
12.592238
 31
0.0
  0
LINE
  5
734
  8
0
 10
4.631213
 20
12.592238
 30
0.0
 11
5.686052
 21
12.592238
 31
0.0
  0
LINE
  5
735
  8
0
 10
5.686052
 20
12.592238
 30
0.0
 11
5.775084
 21
12.592238
 31
0.0
  0
LINE
  5
736
  8
0
 10
5.775084
 20
12.592238
 30
0.0
 11
5.986052
 21
12.592238
 31
0.0
  0
LINE
  5
737
  8
0
 10
5.986052
 20
12.592238
 30
0.0
 11
6.431213
 21
12.592238
 31
0.0
  0
LINE
  5
738
  8
0
 10
6.431213
 20
12.592238
 30
0.0
 11
7.486052
 21
12.592238
 31
0.0
  0
LINE
  5
739
  8
0
 10
7.486052
 20
12.592238
 30
0.0
 11
7.575084
 21
12.592238
 31
0.0
  0
LINE
  5
73A
  8
0
 10
7.575084
 20
12.592238
 30
0.0
 11
7.786052
 21
12.592238
 31
0.0
  0
LINE
  5
73B
  8
0
 10
7.786052
 20
12.592238
 30
0.0
 11
8.231213
 21
12.592238
 31
0.0
  0
LINE
  5
73C
  8
0
 10
8.231213
 20
12.592238
 30
0.0
 11
9.286052
 21
12.592238
 31
0.0
  0
LINE
  5
73D
  8
0
 10
9.286052
 20
12.592238
 30
0.0
 11
9.375084
 21
12.592238
 31
0.0
  0
LINE
  5
73E
  8
0
 10
9.375084
 20
12.592238
 30
0.0
 11
9.586052
 21
12.592238
 31
0.0
  0
LINE
  5
73F
  8
0
 10
9.586052
 20
12.592238
 30
0.0
 11
10.031213
 21
12.592238
 31
0.0
  0
LINE
  5
740
  8
0
 10
10.031213
 20
12.592238
 30
0.0
 11
11.086052
 21
12.592238
 31
0.0
  0
LINE
  5
741
  8
0
 10
11.086052
 20
12.592238
 30
0.0
 11
11.175084
 21
12.592238
 31
0.0
  0
LINE
  5
742
  8
0
 10
11.175084
 20
12.592238
 30
0.0
 11
11.386052
 21
12.592238
 31
0.0
  0
LINE
  5
743
  8
0
 10
11.386052
 20
12.592238
 30
0.0
 11
11.831213
 21
12.592238
 31
0.0
  0
LINE
  5
744
  8
0
 10
11.831213
 20
12.592238
 30
0.0
 11
12.886052
 21
12.592238
 31
0.0
  0
LINE
  5
745
  8
0
 10
12.886052
 20
12.592238
 30
0.0
 11
12.975084
 21
12.592238
 31
0.0
  0
LINE
  5
746
  8
0
 10
12.975084
 20
12.592238
 30
0.0
 11
13.186052
 21
12.592238
 31
0.0
  0
LINE
  5
747
  8
0
 10
13.186052
 20
12.592238
 30
0.0
 11
13.631213
 21
12.592238
 31
0.0
  0
LINE
  5
748
  8
0
 10
13.631213
 20
12.592238
 30
0.0
 11
14.536968
 21
12.592238
 31
0.0
  0
LINE
  5
749
  8
0
 10
14.536968
 20
12.592238
 30
0.0
 11
14.626
 21
12.592238
 31
0.0
  0
LINE
  5
74A
  8
0
 10
0.451
 20
13.092238
 30
0.0
 11
0.661968
 21
13.092238
 31
0.0
  0
LINE
  5
74B
  8
0
 10
0.451
 20
13.092238
 30
0.0
 11
0.661968
 21
13.092238
 31
0.0
  0
LINE
  5
74C
  8
0
 10
0.661968
 20
13.092238
 30
0.0
 11
1.040355
 21
13.092238
 31
0.0
  0
LINE
  5
74D
  8
0
 10
1.040355
 20
13.092238
 30
0.0
 11
2.095194
 21
13.092238
 31
0.0
  0
LINE
  5
74E
  8
0
 10
2.095194
 20
13.092238
 30
0.0
 11
2.184226
 21
13.092238
 31
0.0
  0
LINE
  5
74F
  8
0
 10
2.184226
 20
13.092238
 30
0.0
 11
2.395194
 21
13.092238
 31
0.0
  0
LINE
  5
750
  8
0
 10
2.395194
 20
13.092238
 30
0.0
 11
2.840355
 21
13.092238
 31
0.0
  0
LINE
  5
751
  8
0
 10
2.840355
 20
13.092238
 30
0.0
 11
3.895194
 21
13.092238
 31
0.0
  0
LINE
  5
752
  8
0
 10
3.895194
 20
13.092238
 30
0.0
 11
3.984226
 21
13.092238
 31
0.0
  0
LINE
  5
753
  8
0
 10
3.984226
 20
13.092238
 30
0.0
 11
4.195194
 21
13.092238
 31
0.0
  0
LINE
  5
754
  8
0
 10
4.195194
 20
13.092238
 30
0.0
 11
4.640355
 21
13.092238
 31
0.0
  0
LINE
  5
755
  8
0
 10
4.640355
 20
13.092238
 30
0.0
 11
5.695194
 21
13.092238
 31
0.0
  0
LINE
  5
756
  8
0
 10
5.695194
 20
13.092238
 30
0.0
 11
5.784226
 21
13.092238
 31
0.0
  0
LINE
  5
757
  8
0
 10
5.784226
 20
13.092238
 30
0.0
 11
5.995194
 21
13.092238
 31
0.0
  0
LINE
  5
758
  8
0
 10
5.995194
 20
13.092238
 30
0.0
 11
6.440355
 21
13.092238
 31
0.0
  0
LINE
  5
759
  8
0
 10
6.440355
 20
13.092238
 30
0.0
 11
7.495194
 21
13.092238
 31
0.0
  0
LINE
  5
75A
  8
0
 10
7.495194
 20
13.092238
 30
0.0
 11
7.584226
 21
13.092238
 31
0.0
  0
LINE
  5
75B
  8
0
 10
7.584226
 20
13.092238
 30
0.0
 11
7.795194
 21
13.092238
 31
0.0
  0
LINE
  5
75C
  8
0
 10
7.795194
 20
13.092238
 30
0.0
 11
8.240355
 21
13.092238
 31
0.0
  0
LINE
  5
75D
  8
0
 10
8.240355
 20
13.092238
 30
0.0
 11
9.295194
 21
13.092238
 31
0.0
  0
LINE
  5
75E
  8
0
 10
9.295194
 20
13.092238
 30
0.0
 11
9.384226
 21
13.092238
 31
0.0
  0
LINE
  5
75F
  8
0
 10
9.384226
 20
13.092238
 30
0.0
 11
9.595194
 21
13.092238
 31
0.0
  0
LINE
  5
760
  8
0
 10
9.595194
 20
13.092238
 30
0.0
 11
10.040355
 21
13.092238
 31
0.0
  0
LINE
  5
761
  8
0
 10
10.040355
 20
13.092238
 30
0.0
 11
11.095194
 21
13.092238
 31
0.0
  0
LINE
  5
762
  8
0
 10
11.095194
 20
13.092238
 30
0.0
 11
11.184226
 21
13.092238
 31
0.0
  0
LINE
  5
763
  8
0
 10
11.184226
 20
13.092238
 30
0.0
 11
11.395194
 21
13.092238
 31
0.0
  0
LINE
  5
764
  8
0
 10
11.395194
 20
13.092238
 30
0.0
 11
11.840355
 21
13.092238
 31
0.0
  0
LINE
  5
765
  8
0
 10
11.840355
 20
13.092238
 30
0.0
 11
12.895194
 21
13.092238
 31
0.0
  0
LINE
  5
766
  8
0
 10
12.895194
 20
13.092238
 30
0.0
 11
12.984226
 21
13.092238
 31
0.0
  0
LINE
  5
767
  8
0
 10
12.984226
 20
13.092238
 30
0.0
 11
13.195194
 21
13.092238
 31
0.0
  0
LINE
  5
768
  8
0
 10
13.195194
 20
13.092238
 30
0.0
 11
13.640355
 21
13.092238
 31
0.0
  0
LINE
  5
769
  8
0
 10
13.640355
 20
13.092238
 30
0.0
 11
14.536968
 21
13.092238
 31
0.0
  0
LINE
  5
76A
  8
0
 10
14.536968
 20
13.092238
 30
0.0
 11
14.626
 21
13.092238
 31
0.0
  0
LINE
  5
76B
  8
0
 10
0.511
 20
13.592238
 30
0.0
 11
0.721968
 21
13.592238
 31
0.0
  0
LINE
  5
76C
  8
0
 10
0.511
 20
13.592238
 30
0.0
 11
0.721968
 21
13.592238
 31
0.0
  0
LINE
  5
76D
  8
0
 10
0.721968
 20
13.592238
 30
0.0
 11
1.082548
 21
13.592238
 31
0.0
  0
LINE
  5
76E
  8
0
 10
1.082548
 20
13.592238
 30
0.0
 11
2.137387
 21
13.592238
 31
0.0
  0
LINE
  5
76F
  8
0
 10
2.137387
 20
13.592238
 30
0.0
 11
2.226419
 21
13.592238
 31
0.0
  0
LINE
  5
770
  8
0
 10
2.226419
 20
13.592238
 30
0.0
 11
2.437387
 21
13.592238
 31
0.0
  0
LINE
  5
771
  8
0
 10
2.437387
 20
13.592238
 30
0.0
 11
2.882548
 21
13.592238
 31
0.0
  0
LINE
  5
772
  8
0
 10
2.882548
 20
13.592238
 30
0.0
 11
3.937387
 21
13.592238
 31
0.0
  0
LINE
  5
773
  8
0
 10
3.937387
 20
13.592238
 30
0.0
 11
4.026419
 21
13.592238
 31
0.0
  0
LINE
  5
774
  8
0
 10
4.026419
 20
13.592238
 30
0.0
 11
4.237387
 21
13.592238
 31
0.0
  0
LINE
  5
775
  8
0
 10
4.237387
 20
13.592238
 30
0.0
 11
4.682548
 21
13.592238
 31
0.0
  0
LINE
  5
776
  8
0
 10
4.682548
 20
13.592238
 30
0.0
 11
5.737387
 21
13.592238
 31
0.0
  0
LINE
  5
777
  8
0
 10
5.737387
 20
13.592238
 30
0.0
 11
5.826419
 21
13.592238
 31
0.0
  0
LINE
  5
778
  8
0
 10
5.826419
 20
13.592238
 30
0.0
 11
6.037387
 21
13.592238
 31
0.0
  0
LINE
  5
779
  8
0
 10
6.037387
 20
13.592238
 30
0.0
 11
6.482548
 21
13.592238
 31
0.0
  0
LINE
  5
77A
  8
0
 10
6.482548
 20
13.592238
 30
0.0
 11
7.537387
 21
13.592238
 31
0.0
  0
LINE
  5
77B
  8
0
 10
7.537387
 20
13.592238
 30
0.0
 11
7.626419
 21
13.592238
 31
0.0
  0
LINE
  5
77C
  8
0
 10
7.626419
 20
13.592238
 30
0.0
 11
7.837387
 21
13.592238
 31
0.0
  0
LINE
  5
77D
  8
0
 10
7.837387
 20
13.592238
 30
0.0
 11
8.282548
 21
13.592238
 31
0.0
  0
LINE
  5
77E
  8
0
 10
8.282548
 20
13.592238
 30
0.0
 11
9.337387
 21
13.592238
 31
0.0
  0
LINE
  5
77F
  8
0
 10
9.337387
 20
13.592238
 30
0.0
 11
9.426419
 21
13.592238
 31
0.0
  0
LINE
  5
780
  8
0
 10
9.426419
 20
13.592238
 30
0.0
 11
9.637387
 21
13.592238
 31
0.0
  0
LINE
  5
781
  8
0
 10
9.637387
 20
13.592238
 30
0.0
 11
10.082548
 21
13.592238
 31
0.0
  0
LINE
  5
782
  8
0
 10
10.082548
 20
13.592238
 30
0.0
 11
11.137387
 21
13.592238
 31
0.0
  0
LINE
  5
783
  8
0
 10
11.137387
 20
13.592238
 30
0.0
 11
11.226419
 21
13.592238
 31
0.0
  0
LINE
  5
784
  8
0
 10
11.226419
 20
13.592238
 30
0.0
 11
11.437387
 21
13.592238
 31
0.0
  0
LINE
  5
785
  8
0
 10
11.437387
 20
13.592238
 30
0.0
 11
11.882548
 21
13.592238
 31
0.0
  0
LINE
  5
786
  8
0
 10
11.882548
 20
13.592238
 30
0.0
 11
12.937387
 21
13.592238
 31
0.0
  0
LINE
  5
787
  8
0
 10
12.937387
 20
13.592238
 30
0.0
 11
13.026419
 21
13.592238
 31
0.0
  0
LINE
  5
788
  8
0
 10
13.026419
 20
13.592238
 30
0.0
 11
13.237387
 21
13.592238
 31
0.0
  0
LINE
  5
789
  8
0
 10
13.237387
 20
13.592238
 30
0.0
 11
13.682548
 21
13.592238
 31
0.0
  0
LINE
  5
78A
  8
0
 10
13.682548
 20
13.592238
 30
0.0
 11
14.536968
 21
13.592238
 31
0.0
  0
LINE
  5
78B
  8
0
 10
14.536968
 20
13.592238
 30
0.0
 11
14.626
 21
13.592238
 31
0.0
  0
LINE
  5
78C
  8
0
 10
0.654
 20
14.092238
 30
0.0
 11
0.864968
 21
14.092238
 31
0.0
  0
LINE
  5
78D
  8
0
 10
0.654
 20
14.092238
 30
0.0
 11
0.864968
 21
14.092238
 31
0.0
  0
LINE
  5
78E
  8
0
 10
0.864968
 20
14.092238
 30
0.0
 11
1.18311
 21
14.092238
 31
0.0
  0
LINE
  5
78F
  8
0
 10
1.18311
 20
14.092238
 30
0.0
 11
2.237948
 21
14.092238
 31
0.0
  0
LINE
  5
790
  8
0
 10
2.237948
 20
14.092238
 30
0.0
 11
2.326981
 21
14.092238
 31
0.0
  0
LINE
  5
791
  8
0
 10
2.326981
 20
14.092238
 30
0.0
 11
2.537948
 21
14.092238
 31
0.0
  0
LINE
  5
792
  8
0
 10
2.537948
 20
14.092238
 30
0.0
 11
2.98311
 21
14.092238
 31
0.0
  0
LINE
  5
793
  8
0
 10
2.98311
 20
14.092238
 30
0.0
 11
4.037948
 21
14.092238
 31
0.0
  0
LINE
  5
794
  8
0
 10
4.037948
 20
14.092238
 30
0.0
 11
4.126981
 21
14.092238
 31
0.0
  0
LINE
  5
795
  8
0
 10
4.126981
 20
14.092238
 30
0.0
 11
4.337948
 21
14.092238
 31
0.0
  0
LINE
  5
796
  8
0
 10
4.337948
 20
14.092238
 30
0.0
 11
4.78311
 21
14.092238
 31
0.0
  0
LINE
  5
797
  8
0
 10
4.78311
 20
14.092238
 30
0.0
 11
5.837948
 21
14.092238
 31
0.0
  0
LINE
  5
798
  8
0
 10
5.837948
 20
14.092238
 30
0.0
 11
5.926981
 21
14.092238
 31
0.0
  0
LINE
  5
799
  8
0
 10
5.926981
 20
14.092238
 30
0.0
 11
6.137948
 21
14.092238
 31
0.0
  0
LINE
  5
79A
  8
0
 10
6.137948
 20
14.092238
 30
0.0
 11
6.58311
 21
14.092238
 31
0.0
  0
LINE
  5
79B
  8
0
 10
6.58311
 20
14.092238
 30
0.0
 11
7.637948
 21
14.092238
 31
0.0
  0
LINE
  5
79C
  8
0
 10
7.637948
 20
14.092238
 30
0.0
 11
7.726981
 21
14.092238
 31
0.0
  0
LINE
  5
79D
  8
0
 10
7.726981
 20
14.092238
 30
0.0
 11
7.937948
 21
14.092238
 31
0.0
  0
LINE
  5
79E
  8
0
 10
7.937948
 20
14.092238
 30
0.0
 11
8.38311
 21
14.092238
 31
0.0
  0
LINE
  5
79F
  8
0
 10
8.38311
 20
14.092238
 30
0.0
 11
9.437948
 21
14.092238
 31
0.0
  0
LINE
  5
7A0
  8
0
 10
9.437948
 20
14.092238
 30
0.0
 11
9.526981
 21
14.092238
 31
0.0
  0
LINE
  5
7A1
  8
0
 10
9.526981
 20
14.092238
 30
0.0
 11
9.737948
 21
14.092238
 31
0.0
  0
LINE
  5
7A2
  8
0
 10
9.737948
 20
14.092238
 30
0.0
 11
10.18311
 21
14.092238
 31
0.0
  0
LINE
  5
7A3
  8
0
 10
10.18311
 20
14.092238
 30
0.0
 11
11.237948
 21
14.092238
 31
0.0
  0
LINE
  5
7A4
  8
0
 10
11.237948
 20
14.092238
 30
0.0
 11
11.326981
 21
14.092238
 31
0.0
  0
LINE
  5
7A5
  8
0
 10
11.326981
 20
14.092238
 30
0.0
 11
11.537948
 21
14.092238
 31
0.0
  0
LINE
  5
7A6
  8
0
 10
11.537948
 20
14.092238
 30
0.0
 11
11.98311
 21
14.092238
 31
0.0
  0
LINE
  5
7A7
  8
0
 10
11.98311
 20
14.092238
 30
0.0
 11
13.037948
 21
14.092238
 31
0.0
  0
LINE
  5
7A8
  8
0
 10
13.037948
 20
14.092238
 30
0.0
 11
13.126981
 21
14.092238
 31
0.0
  0
LINE
  5
7A9
  8
0
 10
13.126981
 20
14.092238
 30
0.0
 11
13.337948
 21
14.092238
 31
0.0
  0
LINE
  5
7AA
  8
0
 10
13.337948
 20
14.092238
 30
0.0
 11
13.78311
 21
14.092238
 31
0.0
  0
LINE
  5
7AB
  8
0
 10
13.78311
 20
14.092238
 30
0.0
 11
14.536968
 21
14.092238
 31
0.0
  0
LINE
  5
7AC
  8
0
 10
14.536968
 20
14.092238
 30
0.0
 11
14.626
 21
14.092238
 31
0.0
  0
LINE
  5
7AD
  8
0
 10
1.221
 20
14.592238
 30
0.0
 11
1.431968
 21
14.592238
 31
0.0
  0
LINE
  5
7AE
  8
0
 10
1.221
 20
14.592238
 30
0.0
 11
1.431968
 21
14.592238
 31
0.0
  0
LINE
  5
7AF
  8
0
 10
1.431968
 20
14.592238
 30
0.0
 11
1.581839
 21
14.592238
 31
0.0
  0
LINE
  5
7B0
  8
0
 10
1.581839
 20
14.592238
 30
0.0
 11
1.670871
 21
14.592238
 31
0.0
  0
LINE
  5
7B1
  8
0
 10
1.670871
 20
14.592238
 30
0.0
 11
2.72571
 21
14.592238
 31
0.0
  0
LINE
  5
7B2
  8
0
 10
2.72571
 20
14.592238
 30
0.0
 11
3.170871
 21
14.592238
 31
0.0
  0
LINE
  5
7B3
  8
0
 10
3.170871
 20
14.592238
 30
0.0
 11
3.381839
 21
14.592238
 31
0.0
  0
LINE
  5
7B4
  8
0
 10
3.381839
 20
14.592238
 30
0.0
 11
3.470871
 21
14.592238
 31
0.0
  0
LINE
  5
7B5
  8
0
 10
3.470871
 20
14.592238
 30
0.0
 11
4.52571
 21
14.592238
 31
0.0
  0
LINE
  5
7B6
  8
0
 10
4.52571
 20
14.592238
 30
0.0
 11
4.970871
 21
14.592238
 31
0.0
  0
LINE
  5
7B7
  8
0
 10
4.970871
 20
14.592238
 30
0.0
 11
5.181839
 21
14.592238
 31
0.0
  0
LINE
  5
7B8
  8
0
 10
5.181839
 20
14.592238
 30
0.0
 11
5.270871
 21
14.592238
 31
0.0
  0
LINE
  5
7B9
  8
0
 10
5.270871
 20
14.592238
 30
0.0
 11
5.867206
 21
14.592238
 31
0.0
  0
LINE
  5
7BA
  8
0
 10
5.867206
 20
14.592238
 30
0.0
 11
6.078174
 21
14.592238
 31
0.0
  0
LINE
  5
7BB
  8
0
 10
6.078174
 20
14.592238
 30
0.0
 11
6.523335
 21
14.592238
 31
0.0
  0
LINE
  5
7BC
  8
0
 10
6.523335
 20
14.592238
 30
0.0
 11
7.578174
 21
14.592238
 31
0.0
  0
LINE
  5
7BD
  8
0
 10
7.578174
 20
14.592238
 30
0.0
 11
7.667206
 21
14.592238
 31
0.0
  0
LINE
  5
7BE
  8
0
 10
7.667206
 20
14.592238
 30
0.0
 11
7.878174
 21
14.592238
 31
0.0
  0
LINE
  5
7BF
  8
0
 10
7.878174
 20
14.592238
 30
0.0
 11
8.323335
 21
14.592238
 31
0.0
  0
LINE
  5
7C0
  8
0
 10
8.323335
 20
14.592238
 30
0.0
 11
9.378174
 21
14.592238
 31
0.0
  0
LINE
  5
7C1
  8
0
 10
9.378174
 20
14.592238
 30
0.0
 11
9.467206
 21
14.592238
 31
0.0
  0
LINE
  5
7C2
  8
0
 10
9.467206
 20
14.592238
 30
0.0
 11
9.678174
 21
14.592238
 31
0.0
  0
LINE
  5
7C3
  8
0
 10
9.678174
 20
14.592238
 30
0.0
 11
10.123335
 21
14.592238
 31
0.0
  0
LINE
  5
7C4
  8
0
 10
10.123335
 20
14.592238
 30
0.0
 11
11.178174
 21
14.592238
 31
0.0
  0
LINE
  5
7C5
  8
0
 10
11.178174
 20
14.592238
 30
0.0
 11
11.267206
 21
14.592238
 31
0.0
  0
LINE
  5
7C6
  8
0
 10
11.267206
 20
14.592238
 30
0.0
 11
11.478174
 21
14.592238
 31
0.0
  0
LINE
  5
7C7
  8
0
 10
11.478174
 20
14.592238
 30
0.0
 11
11.923335
 21
14.592238
 31
0.0
  0
LINE
  5
7C8
  8
0
 10
11.923335
 20
14.592238
 30
0.0
 11
12.978174
 21
14.592238
 31
0.0
  0
LINE
  5
7C9
  8
0
 10
12.978174
 20
14.592238
 30
0.0
 11
13.067206
 21
14.592238
 31
0.0
  0
LINE
  5
7CA
  8
0
 10
13.067206
 20
14.592238
 30
0.0
 11
13.278174
 21
14.592238
 31
0.0
  0
LINE
  5
7CB
  8
0
 10
13.278174
 20
14.592238
 30
0.0
 11
13.723335
 21
14.592238
 31
0.0
  0
LINE
  5
7CC
  8
0
 10
13.723335
 20
14.592238
 30
0.0
 11
14.536968
 21
14.592238
 31
0.0
  0
LINE
  5
7CD
  8
0
 10
14.536968
 20
14.592238
 30
0.0
 11
14.626
 21
14.592238
 31
0.0
  0
ENDSEC
  0
EOF
