  0
SECTION
  2
HEADER
  9
$ACADVER
  1
AC1009
  9
$DWGCODEPAGE
  3
ANSI_1252
  9
$INSBASE
 10
0.0
 20
0.0
 30
0.0
  9
$EXTMIN
 10
1e+20
 20
1e+20
 30
1e+20
  9
$EXTMAX
 10
-1e+20
 20
-1e+20
 30
-1e+20
  9
$LIMMIN
 10
0.0
 20
0.0
  9
$LIMMAX
 10
420.0
 20
297.0
  9
$ORTHOMODE
 70
0
  9
$REGENMODE
 70
1
  9
$FILLMODE
 70
1
  9
$DRAGMODE
 70
2
  9
$QTEXTMODE
 70
0
  9
$MIRRTEXT
 70
1
  9
$OSMODE
 70
20583
  9
$LTSCALE
 40
1.0
  9
$ATTMODE
 70
1
  9
$TEXTSIZE
 40
2.5
  9
$TRACEWID
 40
1.0
  9
$TEXTSTYLE
  7
Standard
  9
$CLAYER
  8
0
  9
$CELTYPE
  6
ByLayer
  9
$CECOLOR
 62
256
  9
$DIMSCALE
 40
1.0
  9
$DIMASZ
 40
2.5
  9
$DIMEXO
 40
0.625
  9
$DIMDLI
 40
3.75
  9
$DIMRND
 40
0.0
  9
$DIMDLE
 40
0.0
  9
$DIMEXE
 40
1.25
  9
$DIMTP
 40
0.0
  9
$DIMTM
 40
0.0
  9
$DIMTXT
 40
2.5
  9
$DIMCEN
 40
2.5
  9
$DIMTSZ
 40
0.0
  9
$DIMTOL
 70
0
  9
$DIMLIM
 70
0
  9
$DIMTIH
 70
0
  9
$DIMTOH
 70
0
  9
$DIMSE1
 70
0
  9
$DIMSE2
 70
0
  9
$DIMTAD
 70
1
  9
$DIMZIN
 70
8
  9
$DIMBLK
  1

  9
$DIMASO
 70
1
  9
$DIMSHO
 70
1
  9
$DIMPOST
  1

  9
$DIMAPOST
  1

  9
$DIMALT
 70
0
  9
$DIMALTD
 70
3
  9
$DIMALTF
 40
0.03937007874
  9
$DIMLFAC
 40
1.0
  9
$DIMTOFL
 70
1
  9
$DIMTVP
 40
0.0
  9
$DIMTIX
 70
0
  9
$DIMSOXD
 70
0
  9
$DIMSAH
 70
0
  9
$DIMBLK1
  1

  9
$DIMBLK2
  1

  9
$DIMSTYLE
  2
ISO-25
  9
$DIMCLRD
 70
0
  9
$DIMCLRE
 70
0
  9
$DIMCLRT
 70
0
  9
$DIMTFAC
 40
1.0
  9
$DIMGAP
 40
0.625
  9
$COORDS
 70
1
  9
$ATTDIA
 70
0
  9
$ATTREQ
 70
1
  9
$HANDLING
 70
1
  9
$LUNITS
 70
2
  9
$LUPREC
 70
4
  9
$SKETCHINC
 40
1.0
  9
$FILLETRAD
 40
10.0
  9
$AUNITS
 70
0
  9
$AUPREC
 70
2
  9
$MENU
  1
.
  9
$ELEVATION
 40
0.0
  9
$PELEVATION
 40
0.0
  9
$THICKNESS
 40
0.0
  9
$LIMCHECK
 70
0
  9
$CHAMFERA
 40
0.0
  9
$CHAMFERB
 40
0.0
  9
$SKPOLY
 70
0
  9
$TDCREATE
 40
2460888.395451389
  9
$TDUPDATE
 40
2460888.395451389
  9
$TDINDWG
 40
0.0
  9
$TDUSRTIMER
 40
0.0
  9
$USRTIMER
 70
1
  9
$ANGBASE
 50
0.0
  9
$ANGDIR
 70
0
  9
$PDMODE
 70
0
  9
$PDSIZE
 40
0.0
  9
$PLINEWID
 40
0.0
  9
$SPLFRAME
 70
0
  9
$SPLINETYPE
 70
6
  9
$SPLINESEGS
 70
8
  9
$HANDSEED
  5
51
  9
$SURFTAB1
 70
6
  9
$SURFTAB2
 70
6
  9
$SURFTYPE
 70
6
  9
$SURFU
 70
6
  9
$SURFV
 70
6
  9
$UCSNAME
  2

  9
$UCSORG
 10
0.0
 20
0.0
 30
0.0
  9
$UCSXDIR
 10
1.0
 20
0.0
 30
0.0
  9
$UCSYDIR
 10
0.0
 20
1.0
 30
0.0
  9
$PUCSNAME
  2

  9
$PUCSORG
 10
0.0
 20
0.0
 30
0.0
  9
$PUCSXDIR
 10
1.0
 20
0.0
 30
0.0
  9
$PUCSYDIR
 10
0.0
 20
1.0
 30
0.0
  9
$USERI1
 70
0
  9
$USERI2
 70
0
  9
$USERI3
 70
0
  9
$USERI4
 70
0
  9
$USERI5
 70
0
  9
$USERR1
 40
0.0
  9
$USERR2
 40
0.0
  9
$USERR3
 40
0.0
  9
$USERR4
 40
0.0
  9
$USERR5
 40
0.0
  9
$WORLDVIEW
 70
1
  9
$SHADEDGE
 70
3
  9
$SHADEDIF
 70
70
  9
$TILEMODE
 70
1
  9
$MAXACTVP
 70
64
  9
$PLIMCHECK
 70
0
  9
$PEXTMIN
 10
1e+20
 20
1e+20
 30
1e+20
  9
$PEXTMAX
 10
-1e+20
 20
-1e+20
 30
-1e+20
  9
$PLIMMIN
 10
0.0
 20
0.0
  9
$PLIMMAX
 10
420.0
 20
297.0
  9
$UNITMODE
 70
0
  9
$VISRETAIN
 70
1
  9
$PLINEGEN
 70
0
  9
$PSLTSCALE
 70
1
  0
ENDSEC
  0
SECTION
  2
TABLES
  0
TABLE
  2
VPORT
 70
1
  0
VPORT
  5
23
  2
*Active
 70
0
 10
0.0
 20
0.0
 11
1.0
 21
1.0
 12
0.0
 22
0.0
 13
0.0
 23
0.0
 14
0.5
 24
0.5
 15
0.5
 25
0.5
 16
0.0
 26
0.0
 36
1.0
 17
0.0
 27
0.0
 37
0.0
 40
1000.0
 41
1.34
 42
50.0
 43
0.0
 44
0.0
 50
0.0
 51
0.0
 71
0
 72
1000
 73
1
 74
3
 75
0
 76
0
 77
0
 78
0
  0
ENDTAB
  0
TABLE
  2
LTYPE
 70
3
  0
LTYPE
  5
24
  2
ByBlock
 70
0
  3

 72
65
 73
0
 40
0.0
  0
LTYPE
  5
25
  2
ByLayer
 70
0
  3

 72
65
 73
0
 40
0.0
  0
LTYPE
  5
26
  2
Continuous
 70
0
  3

 72
65
 73
0
 40
0.0
  0
ENDTAB
  0
TABLE
  2
LAYER
 70
2
  0
LAYER
  5
27
  2
0
 70
0
 62
7
  6
Continuous
  0
LAYER
  5
28
  2
Defpoints
 70
0
 62
7
  6
Continuous
  0
ENDTAB
  0
TABLE
  2
STYLE
 70
1
  0
STYLE
  5
29
  2
Standard
 70
0
 40
0.0
 41
1.0
 50
0.0
 71
0
 42
2.5
  3
txt
  4

  0
ENDTAB
  0
TABLE
  2
VIEW
 70
0
  0
ENDTAB
  0
TABLE
  2
UCS
 70
0
  0
ENDTAB
  0
TABLE
  2
APPID
 70
3
  0
APPID
  5
2A
  2
ACAD
 70
0
  0
APPID
  5
4F
  2
HATCHBACKGROUNDCOLOR
 70
0
  0
APPID
  5
50
  2
EZDXF
 70
0
  0
ENDTAB
  0
TABLE
  2
DIMSTYLE
 70
1
  0
DIMSTYLE
105
2B
  2
Standard
 70
0
  3

  4

  5

  6

  7

 40
1.0
 41
2.5
 42
0.625
 43
3.75
 44
1.25
 45
0.0
 46
0.0
 47
0.0
 48
0.0
140
2.5
141
2.5
142
0.0
143
0.03937007874
144
1.0
145
0.0
146
1.0
147
0.625
 71
0
 72
0
 73
0
 74
0
 75
0
 76
0
 77
1
 78
8
170
0
171
3
172
1
173
0
174
0
175
0
176
0
177
0
178
0
  0
ENDTAB
  0
ENDSEC
  0
SECTION
  2
BLOCKS
  0
BLOCK
  5
18
  8
0
  2
$Model_Space
 70
0
 10
0.0
 20
0.0
 30
0.0
  3
$Model_Space
  1

1001
EZDXF
1000
CREATED_BY_EZDXF
1000
1.4.2 @ 2025-07-31T12:29:27.743999+00:00
1000
WRITTEN_BY_EZDXF
1000
1.4.2 @ 2025-07-31T12:29:27.743999+00:00
  0
ENDBLK
  5
19
  8
0
  0
BLOCK
  5
1C
  8
0
  2
$Paper_Space
 70
0
 10
0.0
 20
0.0
 30
0.0
  3
$Paper_Space
  1

  0
ENDBLK
  5
1D
  8
0
  0
ENDSEC
  0
SECTION
  2
ENTITIES
  0
LINE
  5
2D
  8
0
 10
2.181521
 20
0.441639
 30
0.0
 11
1.284342
 21
0.570149
 31
0.0
  0
LINE
  5
2E
  8
0
 10
2.181521
 20
0.441639
 30
0.0
 11
1.284342
 21
0.570149
 31
0.0
  0
LINE
  5
2F
  8
0
 10
1.180888
 20
0.615663
 30
0.0
 11
0.806799
 21
0.85731
 31
0.0
  0
LINE
  5
30
  8
0
 10
0.806799
 20
0.85731
 30
0.0
 11
0.543613
 21
1.396407
 31
0.0
  0
LINE
  5
31
  8
0
 10
0.543613
 20
1.396407
 30
0.0
 11
1.180888
 21
0.615663
 31
0.0
  0
LINE
  5
32
  8
0
 10
0.442668
 20
2.28056
 30
0.0
 11
0.465584
 21
3.18975
 31
0.0
  0
LINE
  5
33
  8
0
 10
0.488026
 20
4.080085
 30
0.0
 11
0.510943
 21
4.989275
 31
0.0
  0
LINE
  5
34
  8
0
 10
0.533078
 20
5.867449
 30
0.0
 11
0.556288
 21
6.788314
 31
0.0
  0
LINE
  5
35
  8
0
 10
0.578328
 20
7.662703
 30
0.0
 11
0.560004
 21
8.597143
 31
0.0
  0
LINE
  5
36
  8
0
 10
0.533351
 20
9.467588
 30
0.0
 11
0.504713
 21
10.402873
 31
0.0
  0
LINE
  5
37
  8
0
 10
0.477932
 20
11.277504
 30
0.0
 11
0.449726
 21
12.198685
 31
0.0
  0
LINE
  5
38
  8
0
 10
0.450725
 20
13.076152
 30
0.0
 11
0.607112
 21
13.966909
 31
0.0
  0
LINE
  5
39
  8
0
 10
1.202217
 20
14.5842
 30
0.0
 11
2.09152
 21
14.743305
 31
0.0
  0
LINE
  5
3A
  8
0
 10
2.981623
 20
14.728041
 30
0.0
 11
3.890201
 21
14.696451
 31
0.0
  0
LINE
  5
3B
  8
0
 10
4.780633
 20
14.665491
 30
0.0
 11
5.689211
 21
14.633901
 31
0.0
  0
LINE
  5
3C
  8
0
 10
6.564746
 20
14.626003
 30
0.0
 11
7.489989
 21
14.627339
 31
0.0
  0
LINE
  5
3D
  8
0
 10
8.365118
 20
14.628604
 30
0.0
 11
9.302048
 21
14.629957
 31
0.0
  0
LINE
  5
3E
  8
0
 10
10.173561
 20
14.631216
 30
0.0
 11
11.105427
 21
14.632562
 31
0.0
  0
LINE
  5
3F
  8
0
 10
11.979842
 20
14.633825
 30
0.0
 11
12.896706
 21
14.635149
 31
0.0
  0
LINE
  5
40
  8
0
 10
13.779412
 20
14.636424
 30
0.0
 11
14.62622
 21
14.574978
 31
0.0
  0
LINE
  5
41
  8
0
 10
14.62621
 20
13.68436
 30
0.0
 11
14.6262
 21
12.774881
 31
0.0
  0
LINE
  5
42
  8
0
 10
14.62619
 20
11.88394
 30
0.0
 11
14.62618
 21
10.974784
 31
0.0
  0
LINE
  5
43
  8
0
 10
14.62617
 20
10.091647
 30
0.0
 11
14.62616
 21
9.174686
 31
0.0
  0
LINE
  5
44
  8
0
 10
14.62615
 20
8.3002
 30
0.0
 11
14.62614
 21
7.368818
 31
0.0
  0
LINE
  5
45
  8
0
 10
14.62613
 20
6.496703
 30
0.0
 11
14.634746
 21
5.559686
 31
0.0
  0
LINE
  5
46
  8
0
 10
14.665539
 20
4.685971
 30
0.0
 11
14.69812
 21
3.761524
 31
0.0
  0
LINE
  5
47
  8
0
 10
14.728989
 20
2.885662
 30
0.0
 11
14.71392
 21
1.979833
 31
0.0
  0
LINE
  5
48
  8
0
 10
14.545034
 20
1.110903
 30
0.0
 11
13.858513
 21
0.564589
 31
0.0
  0
LINE
  5
49
  8
0
 10
12.977075
 20
0.445484
 30
0.0
 11
12.067857
 21
0.467287
 31
0.0
  0
LINE
  5
4A
  8
0
 10
11.177495
 20
0.488638
 30
0.0
 11
10.268277
 21
0.51044
 31
0.0
  0
LINE
  5
4B
  8
0
 10
9.391168
 20
0.531473
 30
0.0
 11
8.468697
 21
0.553594
 31
0.0
  0
LINE
  5
4C
  8
0
 10
7.594556
 20
0.574556
 30
0.0
 11
6.659332
 21
0.56566
 31
0.0
  0
LINE
  5
4D
  8
0
 10
5.788901
 20
0.538112
 30
0.0
 11
4.853736
 21
0.508516
 31
0.0
  0
LINE
  5
4E
  8
0
 10
3.98002
 20
0.480864
 30
0.0
 11
3.060033
 21
0.451748
 31
0.0
  0
ENDSEC
  0
EOF
