  0
SECTION
  2
HEADER
  9
$ACADVER
  1
AC1009
  9
$DWGCODEPAGE
  3
ANSI_1252
  9
$INSBASE
 10
0.0
 20
0.0
 30
0.0
  9
$EXTMIN
 10
1e+20
 20
1e+20
 30
1e+20
  9
$EXTMAX
 10
-1e+20
 20
-1e+20
 30
-1e+20
  9
$LIMMIN
 10
0.0
 20
0.0
  9
$LIMMAX
 10
420.0
 20
297.0
  9
$ORTHOMODE
 70
0
  9
$REGENMODE
 70
1
  9
$FILLMODE
 70
1
  9
$DRAGMODE
 70
2
  9
$QTEXTMODE
 70
0
  9
$MIRRTEXT
 70
1
  9
$OSMODE
 70
20583
  9
$LTSCALE
 40
1.0
  9
$ATTMODE
 70
1
  9
$TEXTSIZE
 40
2.5
  9
$TRACEWID
 40
1.0
  9
$TEXTSTYLE
  7
Standard
  9
$CLAYER
  8
0
  9
$CELTYPE
  6
ByLayer
  9
$CECOLOR
 62
256
  9
$DIMSCALE
 40
1.0
  9
$DIMASZ
 40
2.5
  9
$DIMEXO
 40
0.625
  9
$DIMDLI
 40
3.75
  9
$DIMRND
 40
0.0
  9
$DIMDLE
 40
0.0
  9
$DIMEXE
 40
1.25
  9
$DIMTP
 40
0.0
  9
$DIMTM
 40
0.0
  9
$DIMTXT
 40
2.5
  9
$DIMCEN
 40
2.5
  9
$DIMTSZ
 40
0.0
  9
$DIMTOL
 70
0
  9
$DIMLIM
 70
0
  9
$DIMTIH
 70
0
  9
$DIMTOH
 70
0
  9
$DIMSE1
 70
0
  9
$DIMSE2
 70
0
  9
$DIMTAD
 70
1
  9
$DIMZIN
 70
8
  9
$DIMBLK
  1

  9
$DIMASO
 70
1
  9
$DIMSHO
 70
1
  9
$DIMPOST
  1

  9
$DIMAPOST
  1

  9
$DIMALT
 70
0
  9
$DIMALTD
 70
3
  9
$DIMALTF
 40
0.03937007874
  9
$DIMLFAC
 40
1.0
  9
$DIMTOFL
 70
1
  9
$DIMTVP
 40
0.0
  9
$DIMTIX
 70
0
  9
$DIMSOXD
 70
0
  9
$DIMSAH
 70
0
  9
$DIMBLK1
  1

  9
$DIMBLK2
  1

  9
$DIMSTYLE
  2
ISO-25
  9
$DIMCLRD
 70
0
  9
$DIMCLRE
 70
0
  9
$DIMCLRT
 70
0
  9
$DIMTFAC
 40
1.0
  9
$DIMGAP
 40
0.625
  9
$COORDS
 70
1
  9
$ATTDIA
 70
0
  9
$ATTREQ
 70
1
  9
$HANDLING
 70
1
  9
$LUNITS
 70
2
  9
$LUPREC
 70
4
  9
$SKETCHINC
 40
1.0
  9
$FILLETRAD
 40
10.0
  9
$AUNITS
 70
0
  9
$AUPREC
 70
2
  9
$MENU
  1
.
  9
$ELEVATION
 40
0.0
  9
$PELEVATION
 40
0.0
  9
$THICKNESS
 40
0.0
  9
$LIMCHECK
 70
0
  9
$CHAMFERA
 40
0.0
  9
$CHAMFERB
 40
0.0
  9
$SKPOLY
 70
0
  9
$TDCREATE
 40
2460888.3960763887
  9
$TDUPDATE
 40
2460888.3960763887
  9
$TDINDWG
 40
0.0
  9
$TDUSRTIMER
 40
0.0
  9
$USRTIMER
 70
1
  9
$ANGBASE
 50
0.0
  9
$ANGDIR
 70
0
  9
$PDMODE
 70
0
  9
$PDSIZE
 40
0.0
  9
$PLINEWID
 40
0.0
  9
$SPLFRAME
 70
0
  9
$SPLINETYPE
 70
6
  9
$SPLINESEGS
 70
8
  9
$HANDSEED
  5
7D0
  9
$SURFTAB1
 70
6
  9
$SURFTAB2
 70
6
  9
$SURFTYPE
 70
6
  9
$SURFU
 70
6
  9
$SURFV
 70
6
  9
$UCSNAME
  2

  9
$UCSORG
 10
0.0
 20
0.0
 30
0.0
  9
$UCSXDIR
 10
1.0
 20
0.0
 30
0.0
  9
$UCSYDIR
 10
0.0
 20
1.0
 30
0.0
  9
$PUCSNAME
  2

  9
$PUCSORG
 10
0.0
 20
0.0
 30
0.0
  9
$PUCSXDIR
 10
1.0
 20
0.0
 30
0.0
  9
$PUCSYDIR
 10
0.0
 20
1.0
 30
0.0
  9
$USERI1
 70
0
  9
$USERI2
 70
0
  9
$USERI3
 70
0
  9
$USERI4
 70
0
  9
$USERI5
 70
0
  9
$USERR1
 40
0.0
  9
$USERR2
 40
0.0
  9
$USERR3
 40
0.0
  9
$USERR4
 40
0.0
  9
$USERR5
 40
0.0
  9
$WORLDVIEW
 70
1
  9
$SHADEDGE
 70
3
  9
$SHADEDIF
 70
70
  9
$TILEMODE
 70
1
  9
$MAXACTVP
 70
64
  9
$PLIMCHECK
 70
0
  9
$PEXTMIN
 10
1e+20
 20
1e+20
 30
1e+20
  9
$PEXTMAX
 10
-1e+20
 20
-1e+20
 30
-1e+20
  9
$PLIMMIN
 10
0.0
 20
0.0
  9
$PLIMMAX
 10
420.0
 20
297.0
  9
$UNITMODE
 70
0
  9
$VISRETAIN
 70
1
  9
$PLINEGEN
 70
0
  9
$PSLTSCALE
 70
1
  0
ENDSEC
  0
SECTION
  2
TABLES
  0
TABLE
  2
VPORT
 70
1
  0
VPORT
  5
23
  2
*Active
 70
0
 10
0.0
 20
0.0
 11
1.0
 21
1.0
 12
0.0
 22
0.0
 13
0.0
 23
0.0
 14
0.5
 24
0.5
 15
0.5
 25
0.5
 16
0.0
 26
0.0
 36
1.0
 17
0.0
 27
0.0
 37
0.0
 40
1000.0
 41
1.34
 42
50.0
 43
0.0
 44
0.0
 50
0.0
 51
0.0
 71
0
 72
1000
 73
1
 74
3
 75
0
 76
0
 77
0
 78
0
  0
ENDTAB
  0
TABLE
  2
LTYPE
 70
3
  0
LTYPE
  5
24
  2
ByBlock
 70
0
  3

 72
65
 73
0
 40
0.0
  0
LTYPE
  5
25
  2
ByLayer
 70
0
  3

 72
65
 73
0
 40
0.0
  0
LTYPE
  5
26
  2
Continuous
 70
0
  3

 72
65
 73
0
 40
0.0
  0
ENDTAB
  0
TABLE
  2
LAYER
 70
2
  0
LAYER
  5
27
  2
0
 70
0
 62
7
  6
Continuous
  0
LAYER
  5
28
  2
Defpoints
 70
0
 62
7
  6
Continuous
  0
ENDTAB
  0
TABLE
  2
STYLE
 70
1
  0
STYLE
  5
29
  2
Standard
 70
0
 40
0.0
 41
1.0
 50
0.0
 71
0
 42
2.5
  3
txt
  4

  0
ENDTAB
  0
TABLE
  2
VIEW
 70
0
  0
ENDTAB
  0
TABLE
  2
UCS
 70
0
  0
ENDTAB
  0
TABLE
  2
APPID
 70
3
  0
APPID
  5
2A
  2
ACAD
 70
0
  0
APPID
  5
7CE
  2
HATCHBACKGROUNDCOLOR
 70
0
  0
APPID
  5
7CF
  2
EZDXF
 70
0
  0
ENDTAB
  0
TABLE
  2
DIMSTYLE
 70
1
  0
DIMSTYLE
105
2B
  2
Standard
 70
0
  3

  4

  5

  6

  7

 40
1.0
 41
2.5
 42
0.625
 43
3.75
 44
1.25
 45
0.0
 46
0.0
 47
0.0
 48
0.0
140
2.5
141
2.5
142
0.0
143
0.03937007874
144
1.0
145
0.0
146
1.0
147
0.625
 71
0
 72
0
 73
0
 74
0
 75
0
 76
0
 77
1
 78
8
170
0
171
3
172
1
173
0
174
0
175
0
176
0
177
0
178
0
  0
ENDTAB
  0
ENDSEC
  0
SECTION
  2
BLOCKS
  0
BLOCK
  5
18
  8
0
  2
$Model_Space
 70
0
 10
0.0
 20
0.0
 30
0.0
  3
$Model_Space
  1

1001
EZDXF
1000
CREATED_BY_EZDXF
1000
1.4.2 @ 2025-07-31T12:30:21.560780+00:00
1000
WRITTEN_BY_EZDXF
1000
1.4.2 @ 2025-07-31T12:30:21.654520+00:00
  0
ENDBLK
  5
19
  8
0
  0
BLOCK
  5
1C
  8
0
  2
$Paper_Space
 70
0
 10
0.0
 20
0.0
 30
0.0
  3
$Paper_Space
  1

  0
ENDBLK
  5
1D
  8
0
  0
ENDSEC
  0
SECTION
  2
ENTITIES
  0
LINE
  5
2D
  8
0
 10
2.418652
 20
0.43145
 30
0.0
 11
1.3967
 21
0.544468
 31
0.0
  0
LINE
  5
2E
  8
0
 10
1.3967
 20
0.544468
 30
0.0
 11
0.806799
 21
0.85731
 31
0.0
  0
LINE
  5
2F
  8
0
 10
0.806799
 20
0.85731
 30
0.0
 11
0.542748
 21
1.403805
 31
0.0
  0
LINE
  5
30
  8
0
 10
0.542748
 20
1.403805
 30
0.0
 11
0.463286
 21
2.035587
 31
0.0
  0
LINE
  5
31
  8
0
 10
0.463286
 20
2.035587
 30
0.0
 11
0.581722
 21
7.849334
 31
0.0
  0
LINE
  5
32
  8
0
 10
0.581722
 20
7.849334
 30
0.0
 11
0.436398
 21
12.718447
 31
0.0
  0
LINE
  5
33
  8
0
 10
0.436398
 20
12.718447
 30
0.0
 11
0.520142
 21
13.645094
 31
0.0
  0
LINE
  5
34
  8
0
 10
0.520142
 20
13.645094
 30
0.0
 11
0.824604
 21
14.345436
 31
0.0
  0
LINE
  5
35
  8
0
 10
0.824604
 20
14.345436
 30
0.0
 11
1.26674
 21
14.612384
 31
0.0
  0
LINE
  5
36
  8
0
 10
1.26674
 20
14.612384
 30
0.0
 11
2.342936
 21
14.750247
 31
0.0
  0
LINE
  5
37
  8
0
 10
2.342936
 20
14.750247
 30
0.0
 11
14.62514
 21
14.621848
 31
0.0
  0
LINE
  5
38
  8
0
 10
14.62514
 20
14.621848
 30
0.0
 11
14.749008
 21
2.317632
 31
0.0
  0
LINE
  5
39
  8
0
 10
14.749008
 20
2.317632
 30
0.0
 11
14.635275
 21
1.365283
 31
0.0
  0
LINE
  5
3A
  8
0
 10
14.635275
 20
1.365283
 30
0.0
 11
14.31341
 21
0.797424
 31
0.0
  0
LINE
  5
3B
  8
0
 10
14.31341
 20
0.797424
 30
0.0
 11
13.795671
 21
0.567041
 31
0.0
  0
LINE
  5
3C
  8
0
 10
13.795671
 20
0.567041
 30
0.0
 11
12.822296
 21
0.449195
 31
0.0
  0
LINE
  5
3D
  8
0
 10
12.822296
 20
0.449195
 30
0.0
 11
7.22623
 21
0.579173
 31
0.0
  0
LINE
  5
3E
  8
0
 10
7.22623
 20
0.579173
 30
0.0
 11
2.418652
 21
0.43145
 31
0.0
  0
LINE
  5
3F
  8
0
 10
2.418652
 20
0.43145
 30
0.0
 11
2.418652
 21
0.43145
 31
0.0
  0
LINE
  5
40
  8
0
 10
2.418652
 20
0.43145
 30
0.0
 11
1.3967
 21
0.544468
 31
0.0
  0
LINE
  5
41
  8
0
 10
1.3967
 20
0.544468
 30
0.0
 11
0.806799
 21
0.85731
 31
0.0
  0
LINE
  5
42
  8
0
 10
0.806799
 20
0.85731
 30
0.0
 11
0.542748
 21
1.403805
 31
0.0
  0
LINE
  5
43
  8
0
 10
0.542748
 20
1.403805
 30
0.0
 11
0.463286
 21
2.035587
 31
0.0
  0
LINE
  5
44
  8
0
 10
0.463286
 20
2.035587
 30
0.0
 11
0.581722
 21
7.849334
 31
0.0
  0
LINE
  5
45
  8
0
 10
0.581722
 20
7.849334
 30
0.0
 11
0.436398
 21
12.718447
 31
0.0
  0
LINE
  5
46
  8
0
 10
0.436398
 20
12.718447
 30
0.0
 11
0.520142
 21
13.645094
 31
0.0
  0
LINE
  5
47
  8
0
 10
0.520142
 20
13.645094
 30
0.0
 11
0.824604
 21
14.345436
 31
0.0
  0
LINE
  5
48
  8
0
 10
0.824604
 20
14.345436
 30
0.0
 11
1.26674
 21
14.612384
 31
0.0
  0
LINE
  5
49
  8
0
 10
1.26674
 20
14.612384
 30
0.0
 11
2.342936
 21
14.750247
 31
0.0
  0
LINE
  5
4A
  8
0
 10
2.342936
 20
14.750247
 30
0.0
 11
14.62514
 21
14.621848
 31
0.0
  0
LINE
  5
4B
  8
0
 10
14.62514
 20
14.621848
 30
0.0
 11
14.749008
 21
2.317632
 31
0.0
  0
LINE
  5
4C
  8
0
 10
14.749008
 20
2.317632
 30
0.0
 11
14.635275
 21
1.365283
 31
0.0
  0
LINE
  5
4D
  8
0
 10
14.635275
 20
1.365283
 30
0.0
 11
14.31341
 21
0.797424
 31
0.0
  0
LINE
  5
4E
  8
0
 10
14.31341
 20
0.797424
 30
0.0
 11
13.795671
 21
0.567041
 31
0.0
  0
LINE
  5
4F
  8
0
 10
13.795671
 20
0.567041
 30
0.0
 11
12.822296
 21
0.449195
 31
0.0
  0
LINE
  5
50
  8
0
 10
12.822296
 20
0.449195
 30
0.0
 11
7.22623
 21
0.579173
 31
0.0
  0
LINE
  5
51
  8
0
 10
7.22623
 20
0.579173
 30
0.0
 11
2.418652
 21
0.43145
 31
0.0
  0
LINE
  5
52
  8
0
 10
2.418652
 20
0.43145
 30
0.0
 11
2.418652
 21
0.43145
 31
0.0
  0
LINE
  5
53
  8
0
 10
0.592849
 20
1.254
 30
0.0
 11
0.592849
 21
1.267544
 31
0.0
  0
LINE
  5
54
  8
0
 10
0.592849
 20
1.254
 30
0.0
 11
0.592849
 21
1.267544
 31
0.0
  0
LINE
  5
55
  8
0
 10
0.592849
 20
1.267544
 30
0.0
 11
0.592849
 21
1.513368
 31
0.0
  0
LINE
  5
56
  8
0
 10
0.592849
 20
1.513368
 30
0.0
 11
0.592849
 21
1.784323
 31
0.0
  0
LINE
  5
57
  8
0
 10
0.592849
 20
1.784323
 30
0.0
 11
0.592849
 21
3.013355
 31
0.0
  0
LINE
  5
58
  8
0
 10
0.592849
 20
3.013355
 30
0.0
 11
0.592849
 21
3.067548
 31
0.0
  0
LINE
  5
59
  8
0
 10
0.592849
 20
3.067548
 30
0.0
 11
0.592849
 21
3.313355
 31
0.0
  0
LINE
  5
5A
  8
0
 10
0.592849
 20
3.313355
 30
0.0
 11
0.592849
 21
3.584323
 31
0.0
  0
LINE
  5
5B
  8
0
 10
0.592849
 20
3.584323
 30
0.0
 11
0.592849
 21
4.813355
 31
0.0
  0
LINE
  5
5C
  8
0
 10
0.592849
 20
4.813355
 30
0.0
 11
0.592849
 21
4.867548
 31
0.0
  0
LINE
  5
5D
  8
0
 10
0.592849
 20
4.867548
 30
0.0
 11
0.592849
 21
5.113355
 31
0.0
  0
LINE
  5
5E
  8
0
 10
0.592849
 20
5.113355
 30
0.0
 11
0.592849
 21
5.384323
 31
0.0
  0
LINE
  5
5F
  8
0
 10
0.592849
 20
5.384323
 30
0.0
 11
0.592849
 21
6.613355
 31
0.0
  0
LINE
  5
60
  8
0
 10
0.592849
 20
6.613355
 30
0.0
 11
0.592849
 21
6.667548
 31
0.0
  0
LINE
  5
61
  8
0
 10
0.592849
 20
6.667548
 30
0.0
 11
0.592849
 21
6.913355
 31
0.0
  0
LINE
  5
62
  8
0
 10
0.592849
 20
6.913355
 30
0.0
 11
0.592849
 21
7.184323
 31
0.0
  0
LINE
  5
63
  8
0
 10
0.592849
 20
7.184323
 30
0.0
 11
0.592849
 21
8.413355
 31
0.0
  0
LINE
  5
64
  8
0
 10
0.592849
 20
8.413355
 30
0.0
 11
0.592849
 21
8.467548
 31
0.0
  0
LINE
  5
65
  8
0
 10
0.592849
 20
8.467548
 30
0.0
 11
0.592849
 21
8.713355
 31
0.0
  0
LINE
  5
66
  8
0
 10
0.592849
 20
8.713355
 30
0.0
 11
0.592849
 21
8.984323
 31
0.0
  0
LINE
  5
67
  8
0
 10
0.592849
 20
8.984323
 30
0.0
 11
0.592849
 21
10.213355
 31
0.0
  0
LINE
  5
68
  8
0
 10
0.592849
 20
10.213355
 30
0.0
 11
0.592849
 21
10.267548
 31
0.0
  0
LINE
  5
69
  8
0
 10
0.592849
 20
10.267548
 30
0.0
 11
0.592849
 21
10.513355
 31
0.0
  0
LINE
  5
6A
  8
0
 10
0.592849
 20
10.513355
 30
0.0
 11
0.592849
 21
10.784323
 31
0.0
  0
LINE
  5
6B
  8
0
 10
0.592849
 20
10.784323
 30
0.0
 11
0.592849
 21
12.013355
 31
0.0
  0
LINE
  5
6C
  8
0
 10
0.592849
 20
12.013355
 30
0.0
 11
0.592849
 21
12.067548
 31
0.0
  0
LINE
  5
6D
  8
0
 10
0.592849
 20
12.067548
 30
0.0
 11
0.592849
 21
12.313355
 31
0.0
  0
LINE
  5
6E
  8
0
 10
0.592849
 20
12.313355
 30
0.0
 11
0.592849
 21
12.584323
 31
0.0
  0
LINE
  5
6F
  8
0
 10
0.592849
 20
12.584323
 30
0.0
 11
0.592849
 21
13.813295
 31
0.0
  0
LINE
  5
70
  8
0
 10
0.592849
 20
13.813295
 30
0.0
 11
0.592849
 21
13.867568
 31
0.0
  0
LINE
  5
71
  8
0
 10
0.592849
 20
13.867568
 30
0.0
 11
0.592849
 21
13.929
 31
0.0
  0
LINE
  5
72
  8
0
 10
1.092849
 20
0.654
 30
0.0
 11
1.092849
 21
0.899806
 31
0.0
  0
LINE
  5
73
  8
0
 10
1.092849
 20
0.654
 30
0.0
 11
1.092849
 21
0.899806
 31
0.0
  0
LINE
  5
74
  8
0
 10
1.092849
 20
0.899806
 30
0.0
 11
1.092849
 21
1.0772
 31
0.0
  0
LINE
  5
75
  8
0
 10
1.092849
 20
1.0772
 30
0.0
 11
1.092849
 21
2.306232
 31
0.0
  0
LINE
  5
76
  8
0
 10
1.092849
 20
2.306232
 30
0.0
 11
1.092849
 21
2.360426
 31
0.0
  0
LINE
  5
77
  8
0
 10
1.092849
 20
2.360426
 30
0.0
 11
1.092849
 21
2.606232
 31
0.0
  0
LINE
  5
78
  8
0
 10
1.092849
 20
2.606232
 30
0.0
 11
1.092849
 21
2.8772
 31
0.0
  0
LINE
  5
79
  8
0
 10
1.092849
 20
2.8772
 30
0.0
 11
1.092849
 21
4.106232
 31
0.0
  0
LINE
  5
7A
  8
0
 10
1.092849
 20
4.106232
 30
0.0
 11
1.092849
 21
4.160426
 31
0.0
  0
LINE
  5
7B
  8
0
 10
1.092849
 20
4.160426
 30
0.0
 11
1.092849
 21
4.406232
 31
0.0
  0
LINE
  5
7C
  8
0
 10
1.092849
 20
4.406232
 30
0.0
 11
1.092849
 21
4.6772
 31
0.0
  0
LINE
  5
7D
  8
0
 10
1.092849
 20
4.6772
 30
0.0
 11
1.092849
 21
5.906232
 31
0.0
  0
LINE
  5
7E
  8
0
 10
1.092849
 20
5.906232
 30
0.0
 11
1.092849
 21
5.960426
 31
0.0
  0
LINE
  5
7F
  8
0
 10
1.092849
 20
5.960426
 30
0.0
 11
1.092849
 21
6.206232
 31
0.0
  0
LINE
  5
80
  8
0
 10
1.092849
 20
6.206232
 30
0.0
 11
1.092849
 21
6.4772
 31
0.0
  0
LINE
  5
81
  8
0
 10
1.092849
 20
6.4772
 30
0.0
 11
1.092849
 21
7.706232
 31
0.0
  0
LINE
  5
82
  8
0
 10
1.092849
 20
7.706232
 30
0.0
 11
1.092849
 21
7.760426
 31
0.0
  0
LINE
  5
83
  8
0
 10
1.092849
 20
7.760426
 30
0.0
 11
1.092849
 21
8.006232
 31
0.0
  0
LINE
  5
84
  8
0
 10
1.092849
 20
8.006232
 30
0.0
 11
1.092849
 21
8.2772
 31
0.0
  0
LINE
  5
85
  8
0
 10
1.092849
 20
8.2772
 30
0.0
 11
1.092849
 21
9.506232
 31
0.0
  0
LINE
  5
86
  8
0
 10
1.092849
 20
9.506232
 30
0.0
 11
1.092849
 21
9.560426
 31
0.0
  0
LINE
  5
87
  8
0
 10
1.092849
 20
9.560426
 30
0.0
 11
1.092849
 21
9.806232
 31
0.0
  0
LINE
  5
88
  8
0
 10
1.092849
 20
9.806232
 30
0.0
 11
1.092849
 21
10.0772
 31
0.0
  0
LINE
  5
89
  8
0
 10
1.092849
 20
10.0772
 30
0.0
 11
1.092849
 21
11.306232
 31
0.0
  0
LINE
  5
8A
  8
0
 10
1.092849
 20
11.306232
 30
0.0
 11
1.092849
 21
11.360426
 31
0.0
  0
LINE
  5
8B
  8
0
 10
1.092849
 20
11.360426
 30
0.0
 11
1.092849
 21
11.606232
 31
0.0
  0
LINE
  5
8C
  8
0
 10
1.092849
 20
11.606232
 30
0.0
 11
1.092849
 21
11.8772
 31
0.0
  0
LINE
  5
8D
  8
0
 10
1.092849
 20
11.8772
 30
0.0
 11
1.092849
 21
13.106232
 31
0.0
  0
LINE
  5
8E
  8
0
 10
1.092849
 20
13.106232
 30
0.0
 11
1.092849
 21
13.160426
 31
0.0
  0
LINE
  5
8F
  8
0
 10
1.092849
 20
13.160426
 30
0.0
 11
1.092849
 21
13.406232
 31
0.0
  0
LINE
  5
90
  8
0
 10
1.092849
 20
13.406232
 30
0.0
 11
1.092849
 21
13.6772
 31
0.0
  0
LINE
  5
91
  8
0
 10
1.092849
 20
13.6772
 30
0.0
 11
1.092849
 21
14.482626
 31
0.0
  0
LINE
  5
92
  8
0
 10
1.092849
 20
14.482626
 30
0.0
 11
1.092849
 21
14.536819
 31
0.0
  0
LINE
  5
93
  8
0
 10
1.592849
 20
0.504
 30
0.0
 11
1.592849
 21
0.749806
 31
0.0
  0
LINE
  5
94
  8
0
 10
1.592849
 20
0.504
 30
0.0
 11
1.592849
 21
0.749806
 31
0.0
  0
LINE
  5
95
  8
0
 10
1.592849
 20
0.749806
 30
0.0
 11
1.592849
 21
0.983019
 31
0.0
  0
LINE
  5
96
  8
0
 10
1.592849
 20
0.983019
 30
0.0
 11
1.592849
 21
2.212052
 31
0.0
  0
LINE
  5
97
  8
0
 10
1.592849
 20
2.212052
 30
0.0
 11
1.592849
 21
2.266245
 31
0.0
  0
LINE
  5
98
  8
0
 10
1.592849
 20
2.266245
 30
0.0
 11
1.592849
 21
2.512052
 31
0.0
  0
LINE
  5
99
  8
0
 10
1.592849
 20
2.512052
 30
0.0
 11
1.592849
 21
2.783019
 31
0.0
  0
LINE
  5
9A
  8
0
 10
1.592849
 20
2.783019
 30
0.0
 11
1.592849
 21
4.012052
 31
0.0
  0
LINE
  5
9B
  8
0
 10
1.592849
 20
4.012052
 30
0.0
 11
1.592849
 21
4.066245
 31
0.0
  0
LINE
  5
9C
  8
0
 10
1.592849
 20
4.066245
 30
0.0
 11
1.592849
 21
4.312052
 31
0.0
  0
LINE
  5
9D
  8
0
 10
1.592849
 20
4.312052
 30
0.0
 11
1.592849
 21
4.583019
 31
0.0
  0
LINE
  5
9E
  8
0
 10
1.592849
 20
4.583019
 30
0.0
 11
1.592849
 21
5.812052
 31
0.0
  0
LINE
  5
9F
  8
0
 10
1.592849
 20
5.812052
 30
0.0
 11
1.592849
 21
5.866245
 31
0.0
  0
LINE
  5
A0
  8
0
 10
1.592849
 20
5.866245
 30
0.0
 11
1.592849
 21
6.112052
 31
0.0
  0
LINE
  5
A1
  8
0
 10
1.592849
 20
6.112052
 30
0.0
 11
1.592849
 21
6.383019
 31
0.0
  0
LINE
  5
A2
  8
0
 10
1.592849
 20
6.383019
 30
0.0
 11
1.592849
 21
7.612052
 31
0.0
  0
LINE
  5
A3
  8
0
 10
1.592849
 20
7.612052
 30
0.0
 11
1.592849
 21
7.666245
 31
0.0
  0
LINE
  5
A4
  8
0
 10
1.592849
 20
7.666245
 30
0.0
 11
1.592849
 21
7.912052
 31
0.0
  0
LINE
  5
A5
  8
0
 10
1.592849
 20
7.912052
 30
0.0
 11
1.592849
 21
8.183019
 31
0.0
  0
LINE
  5
A6
  8
0
 10
1.592849
 20
8.183019
 30
0.0
 11
1.592849
 21
9.412052
 31
0.0
  0
LINE
  5
A7
  8
0
 10
1.592849
 20
9.412052
 30
0.0
 11
1.592849
 21
9.466245
 31
0.0
  0
LINE
  5
A8
  8
0
 10
1.592849
 20
9.466245
 30
0.0
 11
1.592849
 21
9.712052
 31
0.0
  0
LINE
  5
A9
  8
0
 10
1.592849
 20
9.712052
 30
0.0
 11
1.592849
 21
9.983019
 31
0.0
  0
LINE
  5
AA
  8
0
 10
1.592849
 20
9.983019
 30
0.0
 11
1.592849
 21
11.212052
 31
0.0
  0
LINE
  5
AB
  8
0
 10
1.592849
 20
11.212052
 30
0.0
 11
1.592849
 21
11.266245
 31
0.0
  0
LINE
  5
AC
  8
0
 10
1.592849
 20
11.266245
 30
0.0
 11
1.592849
 21
11.512052
 31
0.0
  0
LINE
  5
AD
  8
0
 10
1.592849
 20
11.512052
 30
0.0
 11
1.592849
 21
11.783019
 31
0.0
  0
LINE
  5
AE
  8
0
 10
1.592849
 20
11.783019
 30
0.0
 11
1.592849
 21
13.012052
 31
0.0
  0
LINE
  5
AF
  8
0
 10
1.592849
 20
13.012052
 30
0.0
 11
1.592849
 21
13.066245
 31
0.0
  0
LINE
  5
B0
  8
0
 10
1.592849
 20
13.066245
 30
0.0
 11
1.592849
 21
13.312052
 31
0.0
  0
LINE
  5
B1
  8
0
 10
1.592849
 20
13.312052
 30
0.0
 11
1.592849
 21
13.583019
 31
0.0
  0
LINE
  5
B2
  8
0
 10
1.592849
 20
13.583019
 30
0.0
 11
1.592849
 21
14.640806
 31
0.0
  0
LINE
  5
B3
  8
0
 10
1.592849
 20
14.640806
 30
0.0
 11
1.592849
 21
14.695
 31
0.0
  0
LINE
  5
B4
  8
0
 10
2.092849
 20
0.446
 30
0.0
 11
2.092849
 21
0.446819
 31
0.0
  0
LINE
  5
B5
  8
0
 10
2.092849
 20
0.446
 30
0.0
 11
2.092849
 21
0.446819
 31
0.0
  0
LINE
  5
B6
  8
0
 10
2.092849
 20
0.446819
 30
0.0
 11
2.092849
 21
0.691806
 31
0.0
  0
LINE
  5
B7
  8
0
 10
2.092849
 20
0.691806
 30
0.0
 11
2.092849
 21
0.944168
 31
0.0
  0
LINE
  5
B8
  8
0
 10
2.092849
 20
0.944168
 30
0.0
 11
2.092849
 21
2.174019
 31
0.0
  0
LINE
  5
B9
  8
0
 10
2.092849
 20
2.174019
 30
0.0
 11
2.092849
 21
2.228213
 31
0.0
  0
LINE
  5
BA
  8
0
 10
2.092849
 20
2.228213
 30
0.0
 11
2.092849
 21
2.4732
 31
0.0
  0
LINE
  5
BB
  8
0
 10
2.092849
 20
2.4732
 30
0.0
 11
2.092849
 21
2.744168
 31
0.0
  0
LINE
  5
BC
  8
0
 10
2.092849
 20
2.744168
 30
0.0
 11
2.092849
 21
3.974019
 31
0.0
  0
LINE
  5
BD
  8
0
 10
2.092849
 20
3.974019
 30
0.0
 11
2.092849
 21
4.028213
 31
0.0
  0
LINE
  5
BE
  8
0
 10
2.092849
 20
4.028213
 30
0.0
 11
2.092849
 21
4.2732
 31
0.0
  0
LINE
  5
BF
  8
0
 10
2.092849
 20
4.2732
 30
0.0
 11
2.092849
 21
4.544168
 31
0.0
  0
LINE
  5
C0
  8
0
 10
2.092849
 20
4.544168
 30
0.0
 11
2.092849
 21
5.774019
 31
0.0
  0
LINE
  5
C1
  8
0
 10
2.092849
 20
5.774019
 30
0.0
 11
2.092849
 21
5.828213
 31
0.0
  0
LINE
  5
C2
  8
0
 10
2.092849
 20
5.828213
 30
0.0
 11
2.092849
 21
6.0732
 31
0.0
  0
LINE
  5
C3
  8
0
 10
2.092849
 20
6.0732
 30
0.0
 11
2.092849
 21
6.344168
 31
0.0
  0
LINE
  5
C4
  8
0
 10
2.092849
 20
6.344168
 30
0.0
 11
2.092849
 21
7.574019
 31
0.0
  0
LINE
  5
C5
  8
0
 10
2.092849
 20
7.574019
 30
0.0
 11
2.092849
 21
7.628213
 31
0.0
  0
LINE
  5
C6
  8
0
 10
2.092849
 20
7.628213
 30
0.0
 11
2.092849
 21
7.8732
 31
0.0
  0
LINE
  5
C7
  8
0
 10
2.092849
 20
7.8732
 30
0.0
 11
2.092849
 21
8.144168
 31
0.0
  0
LINE
  5
C8
  8
0
 10
2.092849
 20
8.144168
 30
0.0
 11
2.092849
 21
9.374019
 31
0.0
  0
LINE
  5
C9
  8
0
 10
2.092849
 20
9.374019
 30
0.0
 11
2.092849
 21
9.428213
 31
0.0
  0
LINE
  5
CA
  8
0
 10
2.092849
 20
9.428213
 30
0.0
 11
2.092849
 21
9.6732
 31
0.0
  0
LINE
  5
CB
  8
0
 10
2.092849
 20
9.6732
 30
0.0
 11
2.092849
 21
9.944168
 31
0.0
  0
LINE
  5
CC
  8
0
 10
2.092849
 20
9.944168
 30
0.0
 11
2.092849
 21
11.174019
 31
0.0
  0
LINE
  5
CD
  8
0
 10
2.092849
 20
11.174019
 30
0.0
 11
2.092849
 21
11.228213
 31
0.0
  0
LINE
  5
CE
  8
0
 10
2.092849
 20
11.228213
 30
0.0
 11
2.092849
 21
11.4732
 31
0.0
  0
LINE
  5
CF
  8
0
 10
2.092849
 20
11.4732
 30
0.0
 11
2.092849
 21
11.744168
 31
0.0
  0
LINE
  5
D0
  8
0
 10
2.092849
 20
11.744168
 30
0.0
 11
2.092849
 21
12.974019
 31
0.0
  0
LINE
  5
D1
  8
0
 10
2.092849
 20
12.974019
 30
0.0
 11
2.092849
 21
13.028213
 31
0.0
  0
LINE
  5
D2
  8
0
 10
2.092849
 20
13.028213
 30
0.0
 11
2.092849
 21
13.2732
 31
0.0
  0
LINE
  5
D3
  8
0
 10
2.092849
 20
13.2732
 30
0.0
 11
2.092849
 21
13.544168
 31
0.0
  0
LINE
  5
D4
  8
0
 10
2.092849
 20
13.544168
 30
0.0
 11
2.092849
 21
14.688806
 31
0.0
  0
LINE
  5
D5
  8
0
 10
2.092849
 20
14.688806
 30
0.0
 11
2.092849
 21
14.743
 31
0.0
  0
LINE
  5
D6
  8
0
 10
2.092849
 20
14.743
 30
0.0
 11
2.092849
 21
14.744
 31
0.0
  0
LINE
  5
D7
  8
0
 10
2.592849
 20
0.437
 30
0.0
 11
2.592849
 21
0.682806
 31
0.0
  0
LINE
  5
D8
  8
0
 10
2.592849
 20
0.437
 30
0.0
 11
2.592849
 21
0.682806
 31
0.0
  0
LINE
  5
D9
  8
0
 10
2.592849
 20
0.682806
 30
0.0
 11
2.592849
 21
0.936613
 31
0.0
  0
LINE
  5
DA
  8
0
 10
2.592849
 20
0.936613
 30
0.0
 11
2.592849
 21
2.165645
 31
0.0
  0
LINE
  5
DB
  8
0
 10
2.592849
 20
2.165645
 30
0.0
 11
2.592849
 21
2.219658
 31
0.0
  0
LINE
  5
DC
  8
0
 10
2.592849
 20
2.219658
 30
0.0
 11
2.592849
 21
2.465465
 31
0.0
  0
LINE
  5
DD
  8
0
 10
2.592849
 20
2.465465
 30
0.0
 11
2.592849
 21
2.736613
 31
0.0
  0
LINE
  5
DE
  8
0
 10
2.592849
 20
2.736613
 30
0.0
 11
2.592849
 21
3.965645
 31
0.0
  0
LINE
  5
DF
  8
0
 10
2.592849
 20
3.965645
 30
0.0
 11
2.592849
 21
4.019658
 31
0.0
  0
LINE
  5
E0
  8
0
 10
2.592849
 20
4.019658
 30
0.0
 11
2.592849
 21
4.265465
 31
0.0
  0
LINE
  5
E1
  8
0
 10
2.592849
 20
4.265465
 30
0.0
 11
2.592849
 21
4.536613
 31
0.0
  0
LINE
  5
E2
  8
0
 10
2.592849
 20
4.536613
 30
0.0
 11
2.592849
 21
5.765645
 31
0.0
  0
LINE
  5
E3
  8
0
 10
2.592849
 20
5.765645
 30
0.0
 11
2.592849
 21
5.819658
 31
0.0
  0
LINE
  5
E4
  8
0
 10
2.592849
 20
5.819658
 30
0.0
 11
2.592849
 21
6.065465
 31
0.0
  0
LINE
  5
E5
  8
0
 10
2.592849
 20
6.065465
 30
0.0
 11
2.592849
 21
6.336613
 31
0.0
  0
LINE
  5
E6
  8
0
 10
2.592849
 20
6.336613
 30
0.0
 11
2.592849
 21
7.565645
 31
0.0
  0
LINE
  5
E7
  8
0
 10
2.592849
 20
7.565645
 30
0.0
 11
2.592849
 21
7.619658
 31
0.0
  0
LINE
  5
E8
  8
0
 10
2.592849
 20
7.619658
 30
0.0
 11
2.592849
 21
7.865465
 31
0.0
  0
LINE
  5
E9
  8
0
 10
2.592849
 20
7.865465
 30
0.0
 11
2.592849
 21
8.136613
 31
0.0
  0
LINE
  5
EA
  8
0
 10
2.592849
 20
8.136613
 30
0.0
 11
2.592849
 21
9.365645
 31
0.0
  0
LINE
  5
EB
  8
0
 10
2.592849
 20
9.365645
 30
0.0
 11
2.592849
 21
9.419658
 31
0.0
  0
LINE
  5
EC
  8
0
 10
2.592849
 20
9.419658
 30
0.0
 11
2.592849
 21
9.665465
 31
0.0
  0
LINE
  5
ED
  8
0
 10
2.592849
 20
9.665465
 30
0.0
 11
2.592849
 21
9.936613
 31
0.0
  0
LINE
  5
EE
  8
0
 10
2.592849
 20
9.936613
 30
0.0
 11
2.592849
 21
11.165645
 31
0.0
  0
LINE
  5
EF
  8
0
 10
2.592849
 20
11.165645
 30
0.0
 11
2.592849
 21
11.219658
 31
0.0
  0
LINE
  5
F0
  8
0
 10
2.592849
 20
11.219658
 30
0.0
 11
2.592849
 21
11.465465
 31
0.0
  0
LINE
  5
F1
  8
0
 10
2.592849
 20
11.465465
 30
0.0
 11
2.592849
 21
11.736613
 31
0.0
  0
LINE
  5
F2
  8
0
 10
2.592849
 20
11.736613
 30
0.0
 11
2.592849
 21
12.965645
 31
0.0
  0
LINE
  5
F3
  8
0
 10
2.592849
 20
12.965645
 30
0.0
 11
2.592849
 21
13.019658
 31
0.0
  0
LINE
  5
F4
  8
0
 10
2.592849
 20
13.019658
 30
0.0
 11
2.592849
 21
13.265465
 31
0.0
  0
LINE
  5
F5
  8
0
 10
2.592849
 20
13.265465
 30
0.0
 11
2.592849
 21
13.536613
 31
0.0
  0
LINE
  5
F6
  8
0
 10
2.592849
 20
13.536613
 30
0.0
 11
2.592849
 21
14.687806
 31
0.0
  0
LINE
  5
F7
  8
0
 10
2.592849
 20
14.687806
 30
0.0
 11
2.592849
 21
14.742
 31
0.0
  0
LINE
  5
F8
  8
0
 10
3.092849
 20
0.453
 30
0.0
 11
3.092849
 21
0.698806
 31
0.0
  0
LINE
  5
F9
  8
0
 10
3.092849
 20
0.453
 30
0.0
 11
3.092849
 21
0.698806
 31
0.0
  0
LINE
  5
FA
  8
0
 10
3.092849
 20
0.698806
 30
0.0
 11
3.092849
 21
0.946471
 31
0.0
  0
LINE
  5
FB
  8
0
 10
3.092849
 20
0.946471
 30
0.0
 11
3.092849
 21
2.175503
 31
0.0
  0
LINE
  5
FC
  8
0
 10
3.092849
 20
2.175503
 30
0.0
 11
3.092849
 21
2.229697
 31
0.0
  0
LINE
  5
FD
  8
0
 10
3.092849
 20
2.229697
 30
0.0
 11
3.092849
 21
2.475503
 31
0.0
  0
LINE
  5
FE
  8
0
 10
3.092849
 20
2.475503
 30
0.0
 11
3.092849
 21
2.746471
 31
0.0
  0
LINE
  5
FF
  8
0
 10
3.092849
 20
2.746471
 30
0.0
 11
3.092849
 21
3.975503
 31
0.0
  0
LINE
  5
100
  8
0
 10
3.092849
 20
3.975503
 30
0.0
 11
3.092849
 21
4.029697
 31
0.0
  0
LINE
  5
101
  8
0
 10
3.092849
 20
4.029697
 30
0.0
 11
3.092849
 21
4.275503
 31
0.0
  0
LINE
  5
102
  8
0
 10
3.092849
 20
4.275503
 30
0.0
 11
3.092849
 21
4.546471
 31
0.0
  0
LINE
  5
103
  8
0
 10
3.092849
 20
4.546471
 30
0.0
 11
3.092849
 21
5.775503
 31
0.0
  0
LINE
  5
104
  8
0
 10
3.092849
 20
5.775503
 30
0.0
 11
3.092849
 21
5.829697
 31
0.0
  0
LINE
  5
105
  8
0
 10
3.092849
 20
5.829697
 30
0.0
 11
3.092849
 21
6.075503
 31
0.0
  0
LINE
  5
106
  8
0
 10
3.092849
 20
6.075503
 30
0.0
 11
3.092849
 21
6.346471
 31
0.0
  0
LINE
  5
107
  8
0
 10
3.092849
 20
6.346471
 30
0.0
 11
3.092849
 21
7.575503
 31
0.0
  0
LINE
  5
108
  8
0
 10
3.092849
 20
7.575503
 30
0.0
 11
3.092849
 21
7.629697
 31
0.0
  0
LINE
  5
109
  8
0
 10
3.092849
 20
7.629697
 30
0.0
 11
3.092849
 21
7.875503
 31
0.0
  0
LINE
  5
10A
  8
0
 10
3.092849
 20
7.875503
 30
0.0
 11
3.092849
 21
8.146471
 31
0.0
  0
LINE
  5
10B
  8
0
 10
3.092849
 20
8.146471
 30
0.0
 11
3.092849
 21
9.375503
 31
0.0
  0
LINE
  5
10C
  8
0
 10
3.092849
 20
9.375503
 30
0.0
 11
3.092849
 21
9.429697
 31
0.0
  0
LINE
  5
10D
  8
0
 10
3.092849
 20
9.429697
 30
0.0
 11
3.092849
 21
9.675503
 31
0.0
  0
LINE
  5
10E
  8
0
 10
3.092849
 20
9.675503
 30
0.0
 11
3.092849
 21
9.946471
 31
0.0
  0
LINE
  5
10F
  8
0
 10
3.092849
 20
9.946471
 30
0.0
 11
3.092849
 21
11.175503
 31
0.0
  0
LINE
  5
110
  8
0
 10
3.092849
 20
11.175503
 30
0.0
 11
3.092849
 21
11.229697
 31
0.0
  0
LINE
  5
111
  8
0
 10
3.092849
 20
11.229697
 30
0.0
 11
3.092849
 21
11.475503
 31
0.0
  0
LINE
  5
112
  8
0
 10
3.092849
 20
11.475503
 30
0.0
 11
3.092849
 21
11.746471
 31
0.0
  0
LINE
  5
113
  8
0
 10
3.092849
 20
11.746471
 30
0.0
 11
3.092849
 21
12.975503
 31
0.0
  0
LINE
  5
114
  8
0
 10
3.092849
 20
12.975503
 30
0.0
 11
3.092849
 21
13.029697
 31
0.0
  0
LINE
  5
115
  8
0
 10
3.092849
 20
13.029697
 30
0.0
 11
3.092849
 21
13.275503
 31
0.0
  0
LINE
  5
116
  8
0
 10
3.092849
 20
13.275503
 30
0.0
 11
3.092849
 21
13.546471
 31
0.0
  0
LINE
  5
117
  8
0
 10
3.092849
 20
13.546471
 30
0.0
 11
3.092849
 21
14.669806
 31
0.0
  0
LINE
  5
118
  8
0
 10
3.092849
 20
14.669806
 30
0.0
 11
3.092849
 21
14.724
 31
0.0
  0
LINE
  5
119
  8
0
 10
3.592849
 20
0.469
 30
0.0
 11
3.592849
 21
0.714806
 31
0.0
  0
LINE
  5
11A
  8
0
 10
3.592849
 20
0.469
 30
0.0
 11
3.592849
 21
0.714806
 31
0.0
  0
LINE
  5
11B
  8
0
 10
3.592849
 20
0.714806
 30
0.0
 11
3.592849
 21
0.95651
 31
0.0
  0
LINE
  5
11C
  8
0
 10
3.592849
 20
0.95651
 30
0.0
 11
3.592849
 21
2.185542
 31
0.0
  0
LINE
  5
11D
  8
0
 10
3.592849
 20
2.185542
 30
0.0
 11
3.592849
 21
2.239735
 31
0.0
  0
LINE
  5
11E
  8
0
 10
3.592849
 20
2.239735
 30
0.0
 11
3.592849
 21
2.485542
 31
0.0
  0
LINE
  5
11F
  8
0
 10
3.592849
 20
2.485542
 30
0.0
 11
3.592849
 21
2.75651
 31
0.0
  0
LINE
  5
120
  8
0
 10
3.592849
 20
2.75651
 30
0.0
 11
3.592849
 21
3.985542
 31
0.0
  0
LINE
  5
121
  8
0
 10
3.592849
 20
3.985542
 30
0.0
 11
3.592849
 21
4.039735
 31
0.0
  0
LINE
  5
122
  8
0
 10
3.592849
 20
4.039735
 30
0.0
 11
3.592849
 21
4.285542
 31
0.0
  0
LINE
  5
123
  8
0
 10
3.592849
 20
4.285542
 30
0.0
 11
3.592849
 21
4.55651
 31
0.0
  0
LINE
  5
124
  8
0
 10
3.592849
 20
4.55651
 30
0.0
 11
3.592849
 21
5.785542
 31
0.0
  0
LINE
  5
125
  8
0
 10
3.592849
 20
5.785542
 30
0.0
 11
3.592849
 21
5.839735
 31
0.0
  0
LINE
  5
126
  8
0
 10
3.592849
 20
5.839735
 30
0.0
 11
3.592849
 21
6.085542
 31
0.0
  0
LINE
  5
127
  8
0
 10
3.592849
 20
6.085542
 30
0.0
 11
3.592849
 21
6.35651
 31
0.0
  0
LINE
  5
128
  8
0
 10
3.592849
 20
6.35651
 30
0.0
 11
3.592849
 21
7.585542
 31
0.0
  0
LINE
  5
129
  8
0
 10
3.592849
 20
7.585542
 30
0.0
 11
3.592849
 21
7.639735
 31
0.0
  0
LINE
  5
12A
  8
0
 10
3.592849
 20
7.639735
 30
0.0
 11
3.592849
 21
7.885542
 31
0.0
  0
LINE
  5
12B
  8
0
 10
3.592849
 20
7.885542
 30
0.0
 11
3.592849
 21
8.15651
 31
0.0
  0
LINE
  5
12C
  8
0
 10
3.592849
 20
8.15651
 30
0.0
 11
3.592849
 21
9.385542
 31
0.0
  0
LINE
  5
12D
  8
0
 10
3.592849
 20
9.385542
 30
0.0
 11
3.592849
 21
9.439735
 31
0.0
  0
LINE
  5
12E
  8
0
 10
3.592849
 20
9.439735
 30
0.0
 11
3.592849
 21
9.685542
 31
0.0
  0
LINE
  5
12F
  8
0
 10
3.592849
 20
9.685542
 30
0.0
 11
3.592849
 21
9.95651
 31
0.0
  0
LINE
  5
130
  8
0
 10
3.592849
 20
9.95651
 30
0.0
 11
3.592849
 21
11.185542
 31
0.0
  0
LINE
  5
131
  8
0
 10
3.592849
 20
11.185542
 30
0.0
 11
3.592849
 21
11.239735
 31
0.0
  0
LINE
  5
132
  8
0
 10
3.592849
 20
11.239735
 30
0.0
 11
3.592849
 21
11.485542
 31
0.0
  0
LINE
  5
133
  8
0
 10
3.592849
 20
11.485542
 30
0.0
 11
3.592849
 21
11.75651
 31
0.0
  0
LINE
  5
134
  8
0
 10
3.592849
 20
11.75651
 30
0.0
 11
3.592849
 21
12.985542
 31
0.0
  0
LINE
  5
135
  8
0
 10
3.592849
 20
12.985542
 30
0.0
 11
3.592849
 21
13.039735
 31
0.0
  0
LINE
  5
136
  8
0
 10
3.592849
 20
13.039735
 30
0.0
 11
3.592849
 21
13.285542
 31
0.0
  0
LINE
  5
137
  8
0
 10
3.592849
 20
13.285542
 30
0.0
 11
3.592849
 21
13.55651
 31
0.0
  0
LINE
  5
138
  8
0
 10
3.592849
 20
13.55651
 30
0.0
 11
3.592849
 21
14.652806
 31
0.0
  0
LINE
  5
139
  8
0
 10
3.592849
 20
14.652806
 30
0.0
 11
3.592849
 21
14.707
 31
0.0
  0
LINE
  5
13A
  8
0
 10
4.092849
 20
0.484
 30
0.0
 11
4.092849
 21
0.729806
 31
0.0
  0
LINE
  5
13B
  8
0
 10
4.092849
 20
0.484
 30
0.0
 11
4.092849
 21
0.729806
 31
0.0
  0
LINE
  5
13C
  8
0
 10
4.092849
 20
0.729806
 30
0.0
 11
4.092849
 21
0.965548
 31
0.0
  0
LINE
  5
13D
  8
0
 10
4.092849
 20
0.965548
 30
0.0
 11
4.092849
 21
2.1954
 31
0.0
  0
LINE
  5
13E
  8
0
 10
4.092849
 20
2.1954
 30
0.0
 11
4.092849
 21
2.249594
 31
0.0
  0
LINE
  5
13F
  8
0
 10
4.092849
 20
2.249594
 30
0.0
 11
4.092849
 21
2.494581
 31
0.0
  0
LINE
  5
140
  8
0
 10
4.092849
 20
2.494581
 30
0.0
 11
4.092849
 21
2.765548
 31
0.0
  0
LINE
  5
141
  8
0
 10
4.092849
 20
2.765548
 30
0.0
 11
4.092849
 21
3.9954
 31
0.0
  0
LINE
  5
142
  8
0
 10
4.092849
 20
3.9954
 30
0.0
 11
4.092849
 21
4.049594
 31
0.0
  0
LINE
  5
143
  8
0
 10
4.092849
 20
4.049594
 30
0.0
 11
4.092849
 21
4.294581
 31
0.0
  0
LINE
  5
144
  8
0
 10
4.092849
 20
4.294581
 30
0.0
 11
4.092849
 21
4.565548
 31
0.0
  0
LINE
  5
145
  8
0
 10
4.092849
 20
4.565548
 30
0.0
 11
4.092849
 21
5.7954
 31
0.0
  0
LINE
  5
146
  8
0
 10
4.092849
 20
5.7954
 30
0.0
 11
4.092849
 21
5.849594
 31
0.0
  0
LINE
  5
147
  8
0
 10
4.092849
 20
5.849594
 30
0.0
 11
4.092849
 21
6.094581
 31
0.0
  0
LINE
  5
148
  8
0
 10
4.092849
 20
6.094581
 30
0.0
 11
4.092849
 21
6.365548
 31
0.0
  0
LINE
  5
149
  8
0
 10
4.092849
 20
6.365548
 30
0.0
 11
4.092849
 21
7.5954
 31
0.0
  0
LINE
  5
14A
  8
0
 10
4.092849
 20
7.5954
 30
0.0
 11
4.092849
 21
7.649594
 31
0.0
  0
LINE
  5
14B
  8
0
 10
4.092849
 20
7.649594
 30
0.0
 11
4.092849
 21
7.894581
 31
0.0
  0
LINE
  5
14C
  8
0
 10
4.092849
 20
7.894581
 30
0.0
 11
4.092849
 21
8.165548
 31
0.0
  0
LINE
  5
14D
  8
0
 10
4.092849
 20
8.165548
 30
0.0
 11
4.092849
 21
9.3954
 31
0.0
  0
LINE
  5
14E
  8
0
 10
4.092849
 20
9.3954
 30
0.0
 11
4.092849
 21
9.449594
 31
0.0
  0
LINE
  5
14F
  8
0
 10
4.092849
 20
9.449594
 30
0.0
 11
4.092849
 21
9.694581
 31
0.0
  0
LINE
  5
150
  8
0
 10
4.092849
 20
9.694581
 30
0.0
 11
4.092849
 21
9.965548
 31
0.0
  0
LINE
  5
151
  8
0
 10
4.092849
 20
9.965548
 30
0.0
 11
4.092849
 21
11.1954
 31
0.0
  0
LINE
  5
152
  8
0
 10
4.092849
 20
11.1954
 30
0.0
 11
4.092849
 21
11.249594
 31
0.0
  0
LINE
  5
153
  8
0
 10
4.092849
 20
11.249594
 30
0.0
 11
4.092849
 21
11.494581
 31
0.0
  0
LINE
  5
154
  8
0
 10
4.092849
 20
11.494581
 30
0.0
 11
4.092849
 21
11.765548
 31
0.0
  0
LINE
  5
155
  8
0
 10
4.092849
 20
11.765548
 30
0.0
 11
4.092849
 21
12.9954
 31
0.0
  0
LINE
  5
156
  8
0
 10
4.092849
 20
12.9954
 30
0.0
 11
4.092849
 21
13.049594
 31
0.0
  0
LINE
  5
157
  8
0
 10
4.092849
 20
13.049594
 30
0.0
 11
4.092849
 21
13.294581
 31
0.0
  0
LINE
  5
158
  8
0
 10
4.092849
 20
13.294581
 30
0.0
 11
4.092849
 21
13.565548
 31
0.0
  0
LINE
  5
159
  8
0
 10
4.092849
 20
13.565548
 30
0.0
 11
4.092849
 21
14.635626
 31
0.0
  0
LINE
  5
15A
  8
0
 10
4.092849
 20
14.635626
 30
0.0
 11
4.092849
 21
14.689819
 31
0.0
  0
LINE
  5
15B
  8
0
 10
4.592849
 20
0.5
 30
0.0
 11
4.592849
 21
0.745806
 31
0.0
  0
LINE
  5
15C
  8
0
 10
4.592849
 20
0.5
 30
0.0
 11
4.592849
 21
0.745806
 31
0.0
  0
LINE
  5
15D
  8
0
 10
4.592849
 20
0.745806
 30
0.0
 11
4.592849
 21
0.975587
 31
0.0
  0
LINE
  5
15E
  8
0
 10
4.592849
 20
0.975587
 30
0.0
 11
4.592849
 21
2.204619
 31
0.0
  0
LINE
  5
15F
  8
0
 10
4.592849
 20
2.204619
 30
0.0
 11
4.592849
 21
2.258813
 31
0.0
  0
LINE
  5
160
  8
0
 10
4.592849
 20
2.258813
 30
0.0
 11
4.592849
 21
2.504619
 31
0.0
  0
LINE
  5
161
  8
0
 10
4.592849
 20
2.504619
 30
0.0
 11
4.592849
 21
2.775587
 31
0.0
  0
LINE
  5
162
  8
0
 10
4.592849
 20
2.775587
 30
0.0
 11
4.592849
 21
4.004619
 31
0.0
  0
LINE
  5
163
  8
0
 10
4.592849
 20
4.004619
 30
0.0
 11
4.592849
 21
4.058813
 31
0.0
  0
LINE
  5
164
  8
0
 10
4.592849
 20
4.058813
 30
0.0
 11
4.592849
 21
4.304619
 31
0.0
  0
LINE
  5
165
  8
0
 10
4.592849
 20
4.304619
 30
0.0
 11
4.592849
 21
4.575587
 31
0.0
  0
LINE
  5
166
  8
0
 10
4.592849
 20
4.575587
 30
0.0
 11
4.592849
 21
5.804619
 31
0.0
  0
LINE
  5
167
  8
0
 10
4.592849
 20
5.804619
 30
0.0
 11
4.592849
 21
5.858813
 31
0.0
  0
LINE
  5
168
  8
0
 10
4.592849
 20
5.858813
 30
0.0
 11
4.592849
 21
6.104619
 31
0.0
  0
LINE
  5
169
  8
0
 10
4.592849
 20
6.104619
 30
0.0
 11
4.592849
 21
6.375587
 31
0.0
  0
LINE
  5
16A
  8
0
 10
4.592849
 20
6.375587
 30
0.0
 11
4.592849
 21
7.604619
 31
0.0
  0
LINE
  5
16B
  8
0
 10
4.592849
 20
7.604619
 30
0.0
 11
4.592849
 21
7.658813
 31
0.0
  0
LINE
  5
16C
  8
0
 10
4.592849
 20
7.658813
 30
0.0
 11
4.592849
 21
7.904619
 31
0.0
  0
LINE
  5
16D
  8
0
 10
4.592849
 20
7.904619
 30
0.0
 11
4.592849
 21
8.175587
 31
0.0
  0
LINE
  5
16E
  8
0
 10
4.592849
 20
8.175587
 30
0.0
 11
4.592849
 21
9.404619
 31
0.0
  0
LINE
  5
16F
  8
0
 10
4.592849
 20
9.404619
 30
0.0
 11
4.592849
 21
9.458813
 31
0.0
  0
LINE
  5
170
  8
0
 10
4.592849
 20
9.458813
 30
0.0
 11
4.592849
 21
9.704619
 31
0.0
  0
LINE
  5
171
  8
0
 10
4.592849
 20
9.704619
 30
0.0
 11
4.592849
 21
9.975587
 31
0.0
  0
LINE
  5
172
  8
0
 10
4.592849
 20
9.975587
 30
0.0
 11
4.592849
 21
11.204619
 31
0.0
  0
LINE
  5
173
  8
0
 10
4.592849
 20
11.204619
 30
0.0
 11
4.592849
 21
11.258813
 31
0.0
  0
LINE
  5
174
  8
0
 10
4.592849
 20
11.258813
 30
0.0
 11
4.592849
 21
11.504619
 31
0.0
  0
LINE
  5
175
  8
0
 10
4.592849
 20
11.504619
 30
0.0
 11
4.592849
 21
11.775587
 31
0.0
  0
LINE
  5
176
  8
0
 10
4.592849
 20
11.775587
 30
0.0
 11
4.592849
 21
13.004619
 31
0.0
  0
LINE
  5
177
  8
0
 10
4.592849
 20
13.004619
 30
0.0
 11
4.592849
 21
13.058813
 31
0.0
  0
LINE
  5
178
  8
0
 10
4.592849
 20
13.058813
 30
0.0
 11
4.592849
 21
13.304619
 31
0.0
  0
LINE
  5
179
  8
0
 10
4.592849
 20
13.304619
 30
0.0
 11
4.592849
 21
13.575587
 31
0.0
  0
LINE
  5
17A
  8
0
 10
4.592849
 20
13.575587
 30
0.0
 11
4.592849
 21
14.617806
 31
0.0
  0
LINE
  5
17B
  8
0
 10
4.592849
 20
14.617806
 30
0.0
 11
4.592849
 21
14.672
 31
0.0
  0
LINE
  5
17C
  8
0
 10
5.092849
 20
0.516
 30
0.0
 11
5.092849
 21
0.761806
 31
0.0
  0
LINE
  5
17D
  8
0
 10
5.092849
 20
0.516
 30
0.0
 11
5.092849
 21
0.761806
 31
0.0
  0
LINE
  5
17E
  8
0
 10
5.092849
 20
0.761806
 30
0.0
 11
5.092849
 21
0.985626
 31
0.0
  0
LINE
  5
17F
  8
0
 10
5.092849
 20
0.985626
 30
0.0
 11
5.092849
 21
2.214658
 31
0.0
  0
LINE
  5
180
  8
0
 10
5.092849
 20
2.214658
 30
0.0
 11
5.092849
 21
2.268852
 31
0.0
  0
LINE
  5
181
  8
0
 10
5.092849
 20
2.268852
 30
0.0
 11
5.092849
 21
2.514658
 31
0.0
  0
LINE
  5
182
  8
0
 10
5.092849
 20
2.514658
 30
0.0
 11
5.092849
 21
2.785626
 31
0.0
  0
LINE
  5
183
  8
0
 10
5.092849
 20
2.785626
 30
0.0
 11
5.092849
 21
4.014658
 31
0.0
  0
LINE
  5
184
  8
0
 10
5.092849
 20
4.014658
 30
0.0
 11
5.092849
 21
4.068852
 31
0.0
  0
LINE
  5
185
  8
0
 10
5.092849
 20
4.068852
 30
0.0
 11
5.092849
 21
4.314658
 31
0.0
  0
LINE
  5
186
  8
0
 10
5.092849
 20
4.314658
 30
0.0
 11
5.092849
 21
4.585626
 31
0.0
  0
LINE
  5
187
  8
0
 10
5.092849
 20
4.585626
 30
0.0
 11
5.092849
 21
5.814658
 31
0.0
  0
LINE
  5
188
  8
0
 10
5.092849
 20
5.814658
 30
0.0
 11
5.092849
 21
5.868852
 31
0.0
  0
LINE
  5
189
  8
0
 10
5.092849
 20
5.868852
 30
0.0
 11
5.092849
 21
6.114658
 31
0.0
  0
LINE
  5
18A
  8
0
 10
5.092849
 20
6.114658
 30
0.0
 11
5.092849
 21
6.385626
 31
0.0
  0
LINE
  5
18B
  8
0
 10
5.092849
 20
6.385626
 30
0.0
 11
5.092849
 21
7.614658
 31
0.0
  0
LINE
  5
18C
  8
0
 10
5.092849
 20
7.614658
 30
0.0
 11
5.092849
 21
7.668852
 31
0.0
  0
LINE
  5
18D
  8
0
 10
5.092849
 20
7.668852
 30
0.0
 11
5.092849
 21
7.914658
 31
0.0
  0
LINE
  5
18E
  8
0
 10
5.092849
 20
7.914658
 30
0.0
 11
5.092849
 21
8.185626
 31
0.0
  0
LINE
  5
18F
  8
0
 10
5.092849
 20
8.185626
 30
0.0
 11
5.092849
 21
9.414658
 31
0.0
  0
LINE
  5
190
  8
0
 10
5.092849
 20
9.414658
 30
0.0
 11
5.092849
 21
9.468852
 31
0.0
  0
LINE
  5
191
  8
0
 10
5.092849
 20
9.468852
 30
0.0
 11
5.092849
 21
9.714658
 31
0.0
  0
LINE
  5
192
  8
0
 10
5.092849
 20
9.714658
 30
0.0
 11
5.092849
 21
9.985626
 31
0.0
  0
LINE
  5
193
  8
0
 10
5.092849
 20
9.985626
 30
0.0
 11
5.092849
 21
11.214658
 31
0.0
  0
LINE
  5
194
  8
0
 10
5.092849
 20
11.214658
 30
0.0
 11
5.092849
 21
11.268852
 31
0.0
  0
LINE
  5
195
  8
0
 10
5.092849
 20
11.268852
 30
0.0
 11
5.092849
 21
11.514658
 31
0.0
  0
LINE
  5
196
  8
0
 10
5.092849
 20
11.514658
 30
0.0
 11
5.092849
 21
11.785626
 31
0.0
  0
LINE
  5
197
  8
0
 10
5.092849
 20
11.785626
 30
0.0
 11
5.092849
 21
13.014658
 31
0.0
  0
LINE
  5
198
  8
0
 10
5.092849
 20
13.014658
 30
0.0
 11
5.092849
 21
13.068852
 31
0.0
  0
LINE
  5
199
  8
0
 10
5.092849
 20
13.068852
 30
0.0
 11
5.092849
 21
13.314658
 31
0.0
  0
LINE
  5
19A
  8
0
 10
5.092849
 20
13.314658
 30
0.0
 11
5.092849
 21
13.585626
 31
0.0
  0
LINE
  5
19B
  8
0
 10
5.092849
 20
13.585626
 30
0.0
 11
5.092849
 21
14.600806
 31
0.0
  0
LINE
  5
19C
  8
0
 10
5.092849
 20
14.600806
 30
0.0
 11
5.092849
 21
14.655
 31
0.0
  0
LINE
  5
19D
  8
0
 10
5.592849
 20
0.532
 30
0.0
 11
5.592849
 21
0.777806
 31
0.0
  0
LINE
  5
19E
  8
0
 10
5.592849
 20
0.532
 30
0.0
 11
5.592849
 21
0.777806
 31
0.0
  0
LINE
  5
19F
  8
0
 10
5.592849
 20
0.777806
 30
0.0
 11
5.592849
 21
0.995484
 31
0.0
  0
LINE
  5
1A0
  8
0
 10
5.592849
 20
0.995484
 30
0.0
 11
5.592849
 21
2.224516
 31
0.0
  0
LINE
  5
1A1
  8
0
 10
5.592849
 20
2.224516
 30
0.0
 11
5.592849
 21
2.27871
 31
0.0
  0
LINE
  5
1A2
  8
0
 10
5.592849
 20
2.27871
 30
0.0
 11
5.592849
 21
2.524516
 31
0.0
  0
LINE
  5
1A3
  8
0
 10
5.592849
 20
2.524516
 30
0.0
 11
5.592849
 21
2.795484
 31
0.0
  0
LINE
  5
1A4
  8
0
 10
5.592849
 20
2.795484
 30
0.0
 11
5.592849
 21
4.024516
 31
0.0
  0
LINE
  5
1A5
  8
0
 10
5.592849
 20
4.024516
 30
0.0
 11
5.592849
 21
4.07871
 31
0.0
  0
LINE
  5
1A6
  8
0
 10
5.592849
 20
4.07871
 30
0.0
 11
5.592849
 21
4.324516
 31
0.0
  0
LINE
  5
1A7
  8
0
 10
5.592849
 20
4.324516
 30
0.0
 11
5.592849
 21
4.595484
 31
0.0
  0
LINE
  5
1A8
  8
0
 10
5.592849
 20
4.595484
 30
0.0
 11
5.592849
 21
5.824516
 31
0.0
  0
LINE
  5
1A9
  8
0
 10
5.592849
 20
5.824516
 30
0.0
 11
5.592849
 21
5.87871
 31
0.0
  0
LINE
  5
1AA
  8
0
 10
5.592849
 20
5.87871
 30
0.0
 11
5.592849
 21
6.124516
 31
0.0
  0
LINE
  5
1AB
  8
0
 10
5.592849
 20
6.124516
 30
0.0
 11
5.592849
 21
6.395484
 31
0.0
  0
LINE
  5
1AC
  8
0
 10
5.592849
 20
6.395484
 30
0.0
 11
5.592849
 21
7.624516
 31
0.0
  0
LINE
  5
1AD
  8
0
 10
5.592849
 20
7.624516
 30
0.0
 11
5.592849
 21
7.67871
 31
0.0
  0
LINE
  5
1AE
  8
0
 10
5.592849
 20
7.67871
 30
0.0
 11
5.592849
 21
7.924516
 31
0.0
  0
LINE
  5
1AF
  8
0
 10
5.592849
 20
7.924516
 30
0.0
 11
5.592849
 21
8.195484
 31
0.0
  0
LINE
  5
1B0
  8
0
 10
5.592849
 20
8.195484
 30
0.0
 11
5.592849
 21
9.424516
 31
0.0
  0
LINE
  5
1B1
  8
0
 10
5.592849
 20
9.424516
 30
0.0
 11
5.592849
 21
9.47871
 31
0.0
  0
LINE
  5
1B2
  8
0
 10
5.592849
 20
9.47871
 30
0.0
 11
5.592849
 21
9.724516
 31
0.0
  0
LINE
  5
1B3
  8
0
 10
5.592849
 20
9.724516
 30
0.0
 11
5.592849
 21
9.995484
 31
0.0
  0
LINE
  5
1B4
  8
0
 10
5.592849
 20
9.995484
 30
0.0
 11
5.592849
 21
11.224516
 31
0.0
  0
LINE
  5
1B5
  8
0
 10
5.592849
 20
11.224516
 30
0.0
 11
5.592849
 21
11.27871
 31
0.0
  0
LINE
  5
1B6
  8
0
 10
5.592849
 20
11.27871
 30
0.0
 11
5.592849
 21
11.524516
 31
0.0
  0
LINE
  5
1B7
  8
0
 10
5.592849
 20
11.524516
 30
0.0
 11
5.592849
 21
11.795484
 31
0.0
  0
LINE
  5
1B8
  8
0
 10
5.592849
 20
11.795484
 30
0.0
 11
5.592849
 21
13.024516
 31
0.0
  0
LINE
  5
1B9
  8
0
 10
5.592849
 20
13.024516
 30
0.0
 11
5.592849
 21
13.07871
 31
0.0
  0
LINE
  5
1BA
  8
0
 10
5.592849
 20
13.07871
 30
0.0
 11
5.592849
 21
13.324516
 31
0.0
  0
LINE
  5
1BB
  8
0
 10
5.592849
 20
13.324516
 30
0.0
 11
5.592849
 21
13.595484
 31
0.0
  0
LINE
  5
1BC
  8
0
 10
5.592849
 20
13.595484
 30
0.0
 11
5.592849
 21
14.582806
 31
0.0
  0
LINE
  5
1BD
  8
0
 10
5.592849
 20
14.582806
 30
0.0
 11
5.592849
 21
14.637
 31
0.0
  0
LINE
  5
1BE
  8
0
 10
6.092849
 20
0.548
 30
0.0
 11
6.092849
 21
0.793806
 31
0.0
  0
LINE
  5
1BF
  8
0
 10
6.092849
 20
0.548
 30
0.0
 11
6.092849
 21
0.793806
 31
0.0
  0
LINE
  5
1C0
  8
0
 10
6.092849
 20
0.793806
 30
0.0
 11
6.092849
 21
1.006426
 31
0.0
  0
LINE
  5
1C1
  8
0
 10
6.092849
 20
1.006426
 30
0.0
 11
6.092849
 21
2.235458
 31
0.0
  0
LINE
  5
1C2
  8
0
 10
6.092849
 20
2.235458
 30
0.0
 11
6.092849
 21
2.289652
 31
0.0
  0
LINE
  5
1C3
  8
0
 10
6.092849
 20
2.289652
 30
0.0
 11
6.092849
 21
2.535458
 31
0.0
  0
LINE
  5
1C4
  8
0
 10
6.092849
 20
2.535458
 30
0.0
 11
6.092849
 21
2.806426
 31
0.0
  0
LINE
  5
1C5
  8
0
 10
6.092849
 20
2.806426
 30
0.0
 11
6.092849
 21
4.035458
 31
0.0
  0
LINE
  5
1C6
  8
0
 10
6.092849
 20
4.035458
 30
0.0
 11
6.092849
 21
4.089652
 31
0.0
  0
LINE
  5
1C7
  8
0
 10
6.092849
 20
4.089652
 30
0.0
 11
6.092849
 21
4.335458
 31
0.0
  0
LINE
  5
1C8
  8
0
 10
6.092849
 20
4.335458
 30
0.0
 11
6.092849
 21
4.606426
 31
0.0
  0
LINE
  5
1C9
  8
0
 10
6.092849
 20
4.606426
 30
0.0
 11
6.092849
 21
5.835458
 31
0.0
  0
LINE
  5
1CA
  8
0
 10
6.092849
 20
5.835458
 30
0.0
 11
6.092849
 21
5.889652
 31
0.0
  0
LINE
  5
1CB
  8
0
 10
6.092849
 20
5.889652
 30
0.0
 11
6.092849
 21
6.135458
 31
0.0
  0
LINE
  5
1CC
  8
0
 10
6.092849
 20
6.135458
 30
0.0
 11
6.092849
 21
6.406426
 31
0.0
  0
LINE
  5
1CD
  8
0
 10
6.092849
 20
6.406426
 30
0.0
 11
6.092849
 21
7.635458
 31
0.0
  0
LINE
  5
1CE
  8
0
 10
6.092849
 20
7.635458
 30
0.0
 11
6.092849
 21
7.689652
 31
0.0
  0
LINE
  5
1CF
  8
0
 10
6.092849
 20
7.689652
 30
0.0
 11
6.092849
 21
7.935458
 31
0.0
  0
LINE
  5
1D0
  8
0
 10
6.092849
 20
7.935458
 30
0.0
 11
6.092849
 21
8.206426
 31
0.0
  0
LINE
  5
1D1
  8
0
 10
6.092849
 20
8.206426
 30
0.0
 11
6.092849
 21
9.435458
 31
0.0
  0
LINE
  5
1D2
  8
0
 10
6.092849
 20
9.435458
 30
0.0
 11
6.092849
 21
9.489652
 31
0.0
  0
LINE
  5
1D3
  8
0
 10
6.092849
 20
9.489652
 30
0.0
 11
6.092849
 21
9.735458
 31
0.0
  0
LINE
  5
1D4
  8
0
 10
6.092849
 20
9.735458
 30
0.0
 11
6.092849
 21
10.006426
 31
0.0
  0
LINE
  5
1D5
  8
0
 10
6.092849
 20
10.006426
 30
0.0
 11
6.092849
 21
11.235458
 31
0.0
  0
LINE
  5
1D6
  8
0
 10
6.092849
 20
11.235458
 30
0.0
 11
6.092849
 21
11.289652
 31
0.0
  0
LINE
  5
1D7
  8
0
 10
6.092849
 20
11.289652
 30
0.0
 11
6.092849
 21
11.535458
 31
0.0
  0
LINE
  5
1D8
  8
0
 10
6.092849
 20
11.535458
 30
0.0
 11
6.092849
 21
11.806426
 31
0.0
  0
LINE
  5
1D9
  8
0
 10
6.092849
 20
11.806426
 30
0.0
 11
6.092849
 21
13.035458
 31
0.0
  0
LINE
  5
1DA
  8
0
 10
6.092849
 20
13.035458
 30
0.0
 11
6.092849
 21
13.089652
 31
0.0
  0
LINE
  5
1DB
  8
0
 10
6.092849
 20
13.089652
 30
0.0
 11
6.092849
 21
13.335458
 31
0.0
  0
LINE
  5
1DC
  8
0
 10
6.092849
 20
13.335458
 30
0.0
 11
6.092849
 21
13.606426
 31
0.0
  0
LINE
  5
1DD
  8
0
 10
6.092849
 20
13.606426
 30
0.0
 11
6.092849
 21
14.570806
 31
0.0
  0
LINE
  5
1DE
  8
0
 10
6.092849
 20
14.570806
 30
0.0
 11
6.092849
 21
14.625
 31
0.0
  0
LINE
  5
1DF
  8
0
 10
6.592849
 20
0.563
 30
0.0
 11
6.592849
 21
0.563819
 31
0.0
  0
LINE
  5
1E0
  8
0
 10
6.592849
 20
0.563
 30
0.0
 11
6.592849
 21
0.563819
 31
0.0
  0
LINE
  5
1E1
  8
0
 10
6.592849
 20
0.563819
 30
0.0
 11
6.592849
 21
0.808806
 31
0.0
  0
LINE
  5
1E2
  8
0
 10
6.592849
 20
0.808806
 30
0.0
 11
6.592849
 21
1.018897
 31
0.0
  0
LINE
  5
1E3
  8
0
 10
6.592849
 20
1.018897
 30
0.0
 11
6.592849
 21
2.248748
 31
0.0
  0
LINE
  5
1E4
  8
0
 10
6.592849
 20
2.248748
 30
0.0
 11
6.592849
 21
2.302942
 31
0.0
  0
LINE
  5
1E5
  8
0
 10
6.592849
 20
2.302942
 30
0.0
 11
6.592849
 21
2.547929
 31
0.0
  0
LINE
  5
1E6
  8
0
 10
6.592849
 20
2.547929
 30
0.0
 11
6.592849
 21
2.818897
 31
0.0
  0
LINE
  5
1E7
  8
0
 10
6.592849
 20
2.818897
 30
0.0
 11
6.592849
 21
4.048748
 31
0.0
  0
LINE
  5
1E8
  8
0
 10
6.592849
 20
4.048748
 30
0.0
 11
6.592849
 21
4.102942
 31
0.0
  0
LINE
  5
1E9
  8
0
 10
6.592849
 20
4.102942
 30
0.0
 11
6.592849
 21
4.347929
 31
0.0
  0
LINE
  5
1EA
  8
0
 10
6.592849
 20
4.347929
 30
0.0
 11
6.592849
 21
4.618897
 31
0.0
  0
LINE
  5
1EB
  8
0
 10
6.592849
 20
4.618897
 30
0.0
 11
6.592849
 21
5.848748
 31
0.0
  0
LINE
  5
1EC
  8
0
 10
6.592849
 20
5.848748
 30
0.0
 11
6.592849
 21
5.902942
 31
0.0
  0
LINE
  5
1ED
  8
0
 10
6.592849
 20
5.902942
 30
0.0
 11
6.592849
 21
6.147929
 31
0.0
  0
LINE
  5
1EE
  8
0
 10
6.592849
 20
6.147929
 30
0.0
 11
6.592849
 21
6.418897
 31
0.0
  0
LINE
  5
1EF
  8
0
 10
6.592849
 20
6.418897
 30
0.0
 11
6.592849
 21
7.648748
 31
0.0
  0
LINE
  5
1F0
  8
0
 10
6.592849
 20
7.648748
 30
0.0
 11
6.592849
 21
7.702942
 31
0.0
  0
LINE
  5
1F1
  8
0
 10
6.592849
 20
7.702942
 30
0.0
 11
6.592849
 21
7.947929
 31
0.0
  0
LINE
  5
1F2
  8
0
 10
6.592849
 20
7.947929
 30
0.0
 11
6.592849
 21
8.218897
 31
0.0
  0
LINE
  5
1F3
  8
0
 10
6.592849
 20
8.218897
 30
0.0
 11
6.592849
 21
9.448748
 31
0.0
  0
LINE
  5
1F4
  8
0
 10
6.592849
 20
9.448748
 30
0.0
 11
6.592849
 21
9.502942
 31
0.0
  0
LINE
  5
1F5
  8
0
 10
6.592849
 20
9.502942
 30
0.0
 11
6.592849
 21
9.747929
 31
0.0
  0
LINE
  5
1F6
  8
0
 10
6.592849
 20
9.747929
 30
0.0
 11
6.592849
 21
10.018897
 31
0.0
  0
LINE
  5
1F7
  8
0
 10
6.592849
 20
10.018897
 30
0.0
 11
6.592849
 21
11.248748
 31
0.0
  0
LINE
  5
1F8
  8
0
 10
6.592849
 20
11.248748
 30
0.0
 11
6.592849
 21
11.302942
 31
0.0
  0
LINE
  5
1F9
  8
0
 10
6.592849
 20
11.302942
 30
0.0
 11
6.592849
 21
11.547929
 31
0.0
  0
LINE
  5
1FA
  8
0
 10
6.592849
 20
11.547929
 30
0.0
 11
6.592849
 21
11.818897
 31
0.0
  0
LINE
  5
1FB
  8
0
 10
6.592849
 20
11.818897
 30
0.0
 11
6.592849
 21
13.048748
 31
0.0
  0
LINE
  5
1FC
  8
0
 10
6.592849
 20
13.048748
 30
0.0
 11
6.592849
 21
13.102942
 31
0.0
  0
LINE
  5
1FD
  8
0
 10
6.592849
 20
13.102942
 30
0.0
 11
6.592849
 21
13.347929
 31
0.0
  0
LINE
  5
1FE
  8
0
 10
6.592849
 20
13.347929
 30
0.0
 11
6.592849
 21
13.618897
 31
0.0
  0
LINE
  5
1FF
  8
0
 10
6.592849
 20
13.618897
 30
0.0
 11
6.592849
 21
14.571806
 31
0.0
  0
LINE
  5
200
  8
0
 10
6.592849
 20
14.571806
 30
0.0
 11
6.592849
 21
14.626
 31
0.0
  0
LINE
  5
201
  8
0
 10
7.092849
 20
0.579
 30
0.0
 11
7.092849
 21
0.824806
 31
0.0
  0
LINE
  5
202
  8
0
 10
7.092849
 20
0.579
 30
0.0
 11
7.092849
 21
0.824806
 31
0.0
  0
LINE
  5
203
  8
0
 10
7.092849
 20
0.824806
 30
0.0
 11
7.092849
 21
1.032187
 31
0.0
  0
LINE
  5
204
  8
0
 10
7.092849
 20
1.032187
 30
0.0
 11
7.092849
 21
2.261219
 31
0.0
  0
LINE
  5
205
  8
0
 10
7.092849
 20
2.261219
 30
0.0
 11
7.092849
 21
2.315413
 31
0.0
  0
LINE
  5
206
  8
0
 10
7.092849
 20
2.315413
 30
0.0
 11
7.092849
 21
2.561219
 31
0.0
  0
LINE
  5
207
  8
0
 10
7.092849
 20
2.561219
 30
0.0
 11
7.092849
 21
2.832187
 31
0.0
  0
LINE
  5
208
  8
0
 10
7.092849
 20
2.832187
 30
0.0
 11
7.092849
 21
4.061219
 31
0.0
  0
LINE
  5
209
  8
0
 10
7.092849
 20
4.061219
 30
0.0
 11
7.092849
 21
4.115413
 31
0.0
  0
LINE
  5
20A
  8
0
 10
7.092849
 20
4.115413
 30
0.0
 11
7.092849
 21
4.361219
 31
0.0
  0
LINE
  5
20B
  8
0
 10
7.092849
 20
4.361219
 30
0.0
 11
7.092849
 21
4.632187
 31
0.0
  0
LINE
  5
20C
  8
0
 10
7.092849
 20
4.632187
 30
0.0
 11
7.092849
 21
5.861219
 31
0.0
  0
LINE
  5
20D
  8
0
 10
7.092849
 20
5.861219
 30
0.0
 11
7.092849
 21
5.915413
 31
0.0
  0
LINE
  5
20E
  8
0
 10
7.092849
 20
5.915413
 30
0.0
 11
7.092849
 21
6.161219
 31
0.0
  0
LINE
  5
20F
  8
0
 10
7.092849
 20
6.161219
 30
0.0
 11
7.092849
 21
6.432187
 31
0.0
  0
LINE
  5
210
  8
0
 10
7.092849
 20
6.432187
 30
0.0
 11
7.092849
 21
7.661219
 31
0.0
  0
LINE
  5
211
  8
0
 10
7.092849
 20
7.661219
 30
0.0
 11
7.092849
 21
7.715413
 31
0.0
  0
LINE
  5
212
  8
0
 10
7.092849
 20
7.715413
 30
0.0
 11
7.092849
 21
7.961219
 31
0.0
  0
LINE
  5
213
  8
0
 10
7.092849
 20
7.961219
 30
0.0
 11
7.092849
 21
8.232187
 31
0.0
  0
LINE
  5
214
  8
0
 10
7.092849
 20
8.232187
 30
0.0
 11
7.092849
 21
9.461219
 31
0.0
  0
LINE
  5
215
  8
0
 10
7.092849
 20
9.461219
 30
0.0
 11
7.092849
 21
9.515413
 31
0.0
  0
LINE
  5
216
  8
0
 10
7.092849
 20
9.515413
 30
0.0
 11
7.092849
 21
9.761219
 31
0.0
  0
LINE
  5
217
  8
0
 10
7.092849
 20
9.761219
 30
0.0
 11
7.092849
 21
10.032187
 31
0.0
  0
LINE
  5
218
  8
0
 10
7.092849
 20
10.032187
 30
0.0
 11
7.092849
 21
11.261219
 31
0.0
  0
LINE
  5
219
  8
0
 10
7.092849
 20
11.261219
 30
0.0
 11
7.092849
 21
11.315413
 31
0.0
  0
LINE
  5
21A
  8
0
 10
7.092849
 20
11.315413
 30
0.0
 11
7.092849
 21
11.561219
 31
0.0
  0
LINE
  5
21B
  8
0
 10
7.092849
 20
11.561219
 30
0.0
 11
7.092849
 21
11.832187
 31
0.0
  0
LINE
  5
21C
  8
0
 10
7.092849
 20
11.832187
 30
0.0
 11
7.092849
 21
13.061219
 31
0.0
  0
LINE
  5
21D
  8
0
 10
7.092849
 20
13.061219
 30
0.0
 11
7.092849
 21
13.115413
 31
0.0
  0
LINE
  5
21E
  8
0
 10
7.092849
 20
13.115413
 30
0.0
 11
7.092849
 21
13.361219
 31
0.0
  0
LINE
  5
21F
  8
0
 10
7.092849
 20
13.361219
 30
0.0
 11
7.092849
 21
13.632187
 31
0.0
  0
LINE
  5
220
  8
0
 10
7.092849
 20
13.632187
 30
0.0
 11
7.092849
 21
14.572806
 31
0.0
  0
LINE
  5
221
  8
0
 10
7.092849
 20
14.572806
 30
0.0
 11
7.092849
 21
14.627
 31
0.0
  0
LINE
  5
222
  8
0
 10
7.592849
 20
0.574
 30
0.0
 11
7.592849
 21
0.575
 31
0.0
  0
LINE
  5
223
  8
0
 10
7.592849
 20
0.574
 30
0.0
 11
7.592849
 21
0.575
 31
0.0
  0
LINE
  5
224
  8
0
 10
7.592849
 20
0.575
 30
0.0
 11
7.592849
 21
0.820806
 31
0.0
  0
LINE
  5
225
  8
0
 10
7.592849
 20
0.820806
 30
0.0
 11
7.592849
 21
1.02909
 31
0.0
  0
LINE
  5
226
  8
0
 10
7.592849
 20
1.02909
 30
0.0
 11
7.592849
 21
2.258123
 31
0.0
  0
LINE
  5
227
  8
0
 10
7.592849
 20
2.258123
 30
0.0
 11
7.592849
 21
2.312135
 31
0.0
  0
LINE
  5
228
  8
0
 10
7.592849
 20
2.312135
 30
0.0
 11
7.592849
 21
2.557942
 31
0.0
  0
LINE
  5
229
  8
0
 10
7.592849
 20
2.557942
 30
0.0
 11
7.592849
 21
2.82909
 31
0.0
  0
LINE
  5
22A
  8
0
 10
7.592849
 20
2.82909
 30
0.0
 11
7.592849
 21
4.058123
 31
0.0
  0
LINE
  5
22B
  8
0
 10
7.592849
 20
4.058123
 30
0.0
 11
7.592849
 21
4.112135
 31
0.0
  0
LINE
  5
22C
  8
0
 10
7.592849
 20
4.112135
 30
0.0
 11
7.592849
 21
4.357942
 31
0.0
  0
LINE
  5
22D
  8
0
 10
7.592849
 20
4.357942
 30
0.0
 11
7.592849
 21
4.62909
 31
0.0
  0
LINE
  5
22E
  8
0
 10
7.592849
 20
4.62909
 30
0.0
 11
7.592849
 21
5.858123
 31
0.0
  0
LINE
  5
22F
  8
0
 10
7.592849
 20
5.858123
 30
0.0
 11
7.592849
 21
5.912135
 31
0.0
  0
LINE
  5
230
  8
0
 10
7.592849
 20
5.912135
 30
0.0
 11
7.592849
 21
6.157942
 31
0.0
  0
LINE
  5
231
  8
0
 10
7.592849
 20
6.157942
 30
0.0
 11
7.592849
 21
6.42909
 31
0.0
  0
LINE
  5
232
  8
0
 10
7.592849
 20
6.42909
 30
0.0
 11
7.592849
 21
7.658123
 31
0.0
  0
LINE
  5
233
  8
0
 10
7.592849
 20
7.658123
 30
0.0
 11
7.592849
 21
7.712135
 31
0.0
  0
LINE
  5
234
  8
0
 10
7.592849
 20
7.712135
 30
0.0
 11
7.592849
 21
7.957942
 31
0.0
  0
LINE
  5
235
  8
0
 10
7.592849
 20
7.957942
 30
0.0
 11
7.592849
 21
8.22909
 31
0.0
  0
LINE
  5
236
  8
0
 10
7.592849
 20
8.22909
 30
0.0
 11
7.592849
 21
9.458123
 31
0.0
  0
LINE
  5
237
  8
0
 10
7.592849
 20
9.458123
 30
0.0
 11
7.592849
 21
9.512135
 31
0.0
  0
LINE
  5
238
  8
0
 10
7.592849
 20
9.512135
 30
0.0
 11
7.592849
 21
9.757942
 31
0.0
  0
LINE
  5
239
  8
0
 10
7.592849
 20
9.757942
 30
0.0
 11
7.592849
 21
10.02909
 31
0.0
  0
LINE
  5
23A
  8
0
 10
7.592849
 20
10.02909
 30
0.0
 11
7.592849
 21
11.258123
 31
0.0
  0
LINE
  5
23B
  8
0
 10
7.592849
 20
11.258123
 30
0.0
 11
7.592849
 21
11.312135
 31
0.0
  0
LINE
  5
23C
  8
0
 10
7.592849
 20
11.312135
 30
0.0
 11
7.592849
 21
11.557942
 31
0.0
  0
LINE
  5
23D
  8
0
 10
7.592849
 20
11.557942
 30
0.0
 11
7.592849
 21
11.82909
 31
0.0
  0
LINE
  5
23E
  8
0
 10
7.592849
 20
11.82909
 30
0.0
 11
7.592849
 21
13.058123
 31
0.0
  0
LINE
  5
23F
  8
0
 10
7.592849
 20
13.058123
 30
0.0
 11
7.592849
 21
13.112135
 31
0.0
  0
LINE
  5
240
  8
0
 10
7.592849
 20
13.112135
 30
0.0
 11
7.592849
 21
13.357942
 31
0.0
  0
LINE
  5
241
  8
0
 10
7.592849
 20
13.357942
 30
0.0
 11
7.592849
 21
13.62909
 31
0.0
  0
LINE
  5
242
  8
0
 10
7.592849
 20
13.62909
 30
0.0
 11
7.592849
 21
14.573806
 31
0.0
  0
LINE
  5
243
  8
0
 10
7.592849
 20
14.573806
 30
0.0
 11
7.592849
 21
14.628
 31
0.0
  0
LINE
  5
244
  8
0
 10
8.092849
 20
0.563
 30
0.0
 11
8.092849
 21
0.808806
 31
0.0
  0
LINE
  5
245
  8
0
 10
8.092849
 20
0.563
 30
0.0
 11
8.092849
 21
0.808806
 31
0.0
  0
LINE
  5
246
  8
0
 10
8.092849
 20
0.808806
 30
0.0
 11
8.092849
 21
1.019258
 31
0.0
  0
LINE
  5
247
  8
0
 10
8.092849
 20
1.019258
 30
0.0
 11
8.092849
 21
2.24829
 31
0.0
  0
LINE
  5
248
  8
0
 10
8.092849
 20
2.24829
 30
0.0
 11
8.092849
 21
2.302484
 31
0.0
  0
LINE
  5
249
  8
0
 10
8.092849
 20
2.302484
 30
0.0
 11
8.092849
 21
2.54829
 31
0.0
  0
LINE
  5
24A
  8
0
 10
8.092849
 20
2.54829
 30
0.0
 11
8.092849
 21
2.819258
 31
0.0
  0
LINE
  5
24B
  8
0
 10
8.092849
 20
2.819258
 30
0.0
 11
8.092849
 21
4.04829
 31
0.0
  0
LINE
  5
24C
  8
0
 10
8.092849
 20
4.04829
 30
0.0
 11
8.092849
 21
4.102484
 31
0.0
  0
LINE
  5
24D
  8
0
 10
8.092849
 20
4.102484
 30
0.0
 11
8.092849
 21
4.34829
 31
0.0
  0
LINE
  5
24E
  8
0
 10
8.092849
 20
4.34829
 30
0.0
 11
8.092849
 21
4.619258
 31
0.0
  0
LINE
  5
24F
  8
0
 10
8.092849
 20
4.619258
 30
0.0
 11
8.092849
 21
5.84829
 31
0.0
  0
LINE
  5
250
  8
0
 10
8.092849
 20
5.84829
 30
0.0
 11
8.092849
 21
5.902484
 31
0.0
  0
LINE
  5
251
  8
0
 10
8.092849
 20
5.902484
 30
0.0
 11
8.092849
 21
6.14829
 31
0.0
  0
LINE
  5
252
  8
0
 10
8.092849
 20
6.14829
 30
0.0
 11
8.092849
 21
6.419258
 31
0.0
  0
LINE
  5
253
  8
0
 10
8.092849
 20
6.419258
 30
0.0
 11
8.092849
 21
7.64829
 31
0.0
  0
LINE
  5
254
  8
0
 10
8.092849
 20
7.64829
 30
0.0
 11
8.092849
 21
7.702484
 31
0.0
  0
LINE
  5
255
  8
0
 10
8.092849
 20
7.702484
 30
0.0
 11
8.092849
 21
7.94829
 31
0.0
  0
LINE
  5
256
  8
0
 10
8.092849
 20
7.94829
 30
0.0
 11
8.092849
 21
8.219258
 31
0.0
  0
LINE
  5
257
  8
0
 10
8.092849
 20
8.219258
 30
0.0
 11
8.092849
 21
9.44829
 31
0.0
  0
LINE
  5
258
  8
0
 10
8.092849
 20
9.44829
 30
0.0
 11
8.092849
 21
9.502484
 31
0.0
  0
LINE
  5
259
  8
0
 10
8.092849
 20
9.502484
 30
0.0
 11
8.092849
 21
9.74829
 31
0.0
  0
LINE
  5
25A
  8
0
 10
8.092849
 20
9.74829
 30
0.0
 11
8.092849
 21
10.019258
 31
0.0
  0
LINE
  5
25B
  8
0
 10
8.092849
 20
10.019258
 30
0.0
 11
8.092849
 21
11.24829
 31
0.0
  0
LINE
  5
25C
  8
0
 10
8.092849
 20
11.24829
 30
0.0
 11
8.092849
 21
11.302484
 31
0.0
  0
LINE
  5
25D
  8
0
 10
8.092849
 20
11.302484
 30
0.0
 11
8.092849
 21
11.54829
 31
0.0
  0
LINE
  5
25E
  8
0
 10
8.092849
 20
11.54829
 30
0.0
 11
8.092849
 21
11.819258
 31
0.0
  0
LINE
  5
25F
  8
0
 10
8.092849
 20
11.819258
 30
0.0
 11
8.092849
 21
13.04829
 31
0.0
  0
LINE
  5
260
  8
0
 10
8.092849
 20
13.04829
 30
0.0
 11
8.092849
 21
13.102484
 31
0.0
  0
LINE
  5
261
  8
0
 10
8.092849
 20
13.102484
 30
0.0
 11
8.092849
 21
13.34829
 31
0.0
  0
LINE
  5
262
  8
0
 10
8.092849
 20
13.34829
 30
0.0
 11
8.092849
 21
13.619258
 31
0.0
  0
LINE
  5
263
  8
0
 10
8.092849
 20
13.619258
 30
0.0
 11
8.092849
 21
14.573806
 31
0.0
  0
LINE
  5
264
  8
0
 10
8.092849
 20
14.573806
 30
0.0
 11
8.092849
 21
14.628
 31
0.0
  0
LINE
  5
265
  8
0
 10
8.592849
 20
0.551
 30
0.0
 11
8.592849
 21
0.796806
 31
0.0
  0
LINE
  5
266
  8
0
 10
8.592849
 20
0.551
 30
0.0
 11
8.592849
 21
0.796806
 31
0.0
  0
LINE
  5
267
  8
0
 10
8.592849
 20
0.796806
 30
0.0
 11
8.592849
 21
1.009606
 31
0.0
  0
LINE
  5
268
  8
0
 10
8.592849
 20
1.009606
 30
0.0
 11
8.592849
 21
2.238639
 31
0.0
  0
LINE
  5
269
  8
0
 10
8.592849
 20
2.238639
 30
0.0
 11
8.592849
 21
2.292832
 31
0.0
  0
LINE
  5
26A
  8
0
 10
8.592849
 20
2.292832
 30
0.0
 11
8.592849
 21
2.538639
 31
0.0
  0
LINE
  5
26B
  8
0
 10
8.592849
 20
2.538639
 30
0.0
 11
8.592849
 21
2.809606
 31
0.0
  0
LINE
  5
26C
  8
0
 10
8.592849
 20
2.809606
 30
0.0
 11
8.592849
 21
4.038639
 31
0.0
  0
LINE
  5
26D
  8
0
 10
8.592849
 20
4.038639
 30
0.0
 11
8.592849
 21
4.092832
 31
0.0
  0
LINE
  5
26E
  8
0
 10
8.592849
 20
4.092832
 30
0.0
 11
8.592849
 21
4.338639
 31
0.0
  0
LINE
  5
26F
  8
0
 10
8.592849
 20
4.338639
 30
0.0
 11
8.592849
 21
4.609606
 31
0.0
  0
LINE
  5
270
  8
0
 10
8.592849
 20
4.609606
 30
0.0
 11
8.592849
 21
5.838639
 31
0.0
  0
LINE
  5
271
  8
0
 10
8.592849
 20
5.838639
 30
0.0
 11
8.592849
 21
5.892832
 31
0.0
  0
LINE
  5
272
  8
0
 10
8.592849
 20
5.892832
 30
0.0
 11
8.592849
 21
6.138639
 31
0.0
  0
LINE
  5
273
  8
0
 10
8.592849
 20
6.138639
 30
0.0
 11
8.592849
 21
6.409606
 31
0.0
  0
LINE
  5
274
  8
0
 10
8.592849
 20
6.409606
 30
0.0
 11
8.592849
 21
7.638639
 31
0.0
  0
LINE
  5
275
  8
0
 10
8.592849
 20
7.638639
 30
0.0
 11
8.592849
 21
7.692832
 31
0.0
  0
LINE
  5
276
  8
0
 10
8.592849
 20
7.692832
 30
0.0
 11
8.592849
 21
7.938639
 31
0.0
  0
LINE
  5
277
  8
0
 10
8.592849
 20
7.938639
 30
0.0
 11
8.592849
 21
8.209606
 31
0.0
  0
LINE
  5
278
  8
0
 10
8.592849
 20
8.209606
 30
0.0
 11
8.592849
 21
9.438639
 31
0.0
  0
LINE
  5
279
  8
0
 10
8.592849
 20
9.438639
 30
0.0
 11
8.592849
 21
9.492832
 31
0.0
  0
LINE
  5
27A
  8
0
 10
8.592849
 20
9.492832
 30
0.0
 11
8.592849
 21
9.738639
 31
0.0
  0
LINE
  5
27B
  8
0
 10
8.592849
 20
9.738639
 30
0.0
 11
8.592849
 21
10.009606
 31
0.0
  0
LINE
  5
27C
  8
0
 10
8.592849
 20
10.009606
 30
0.0
 11
8.592849
 21
11.238639
 31
0.0
  0
LINE
  5
27D
  8
0
 10
8.592849
 20
11.238639
 30
0.0
 11
8.592849
 21
11.292832
 31
0.0
  0
LINE
  5
27E
  8
0
 10
8.592849
 20
11.292832
 30
0.0
 11
8.592849
 21
11.538639
 31
0.0
  0
LINE
  5
27F
  8
0
 10
8.592849
 20
11.538639
 30
0.0
 11
8.592849
 21
11.809606
 31
0.0
  0
LINE
  5
280
  8
0
 10
8.592849
 20
11.809606
 30
0.0
 11
8.592849
 21
13.038639
 31
0.0
  0
LINE
  5
281
  8
0
 10
8.592849
 20
13.038639
 30
0.0
 11
8.592849
 21
13.092832
 31
0.0
  0
LINE
  5
282
  8
0
 10
8.592849
 20
13.092832
 30
0.0
 11
8.592849
 21
13.338639
 31
0.0
  0
LINE
  5
283
  8
0
 10
8.592849
 20
13.338639
 30
0.0
 11
8.592849
 21
13.609606
 31
0.0
  0
LINE
  5
284
  8
0
 10
8.592849
 20
13.609606
 30
0.0
 11
8.592849
 21
14.574806
 31
0.0
  0
LINE
  5
285
  8
0
 10
8.592849
 20
14.574806
 30
0.0
 11
8.592849
 21
14.629
 31
0.0
  0
LINE
  5
286
  8
0
 10
9.092849
 20
0.539
 30
0.0
 11
9.092849
 21
0.784806
 31
0.0
  0
LINE
  5
287
  8
0
 10
9.092849
 20
0.539
 30
0.0
 11
9.092849
 21
0.784806
 31
0.0
  0
LINE
  5
288
  8
0
 10
9.092849
 20
0.784806
 30
0.0
 11
9.092849
 21
0.999955
 31
0.0
  0
LINE
  5
289
  8
0
 10
9.092849
 20
0.999955
 30
0.0
 11
9.092849
 21
2.228987
 31
0.0
  0
LINE
  5
28A
  8
0
 10
9.092849
 20
2.228987
 30
0.0
 11
9.092849
 21
2.283181
 31
0.0
  0
LINE
  5
28B
  8
0
 10
9.092849
 20
2.283181
 30
0.0
 11
9.092849
 21
2.528987
 31
0.0
  0
LINE
  5
28C
  8
0
 10
9.092849
 20
2.528987
 30
0.0
 11
9.092849
 21
2.799955
 31
0.0
  0
LINE
  5
28D
  8
0
 10
9.092849
 20
2.799955
 30
0.0
 11
9.092849
 21
4.028987
 31
0.0
  0
LINE
  5
28E
  8
0
 10
9.092849
 20
4.028987
 30
0.0
 11
9.092849
 21
4.083181
 31
0.0
  0
LINE
  5
28F
  8
0
 10
9.092849
 20
4.083181
 30
0.0
 11
9.092849
 21
4.328987
 31
0.0
  0
LINE
  5
290
  8
0
 10
9.092849
 20
4.328987
 30
0.0
 11
9.092849
 21
4.599955
 31
0.0
  0
LINE
  5
291
  8
0
 10
9.092849
 20
4.599955
 30
0.0
 11
9.092849
 21
5.828987
 31
0.0
  0
LINE
  5
292
  8
0
 10
9.092849
 20
5.828987
 30
0.0
 11
9.092849
 21
5.883181
 31
0.0
  0
LINE
  5
293
  8
0
 10
9.092849
 20
5.883181
 30
0.0
 11
9.092849
 21
6.128987
 31
0.0
  0
LINE
  5
294
  8
0
 10
9.092849
 20
6.128987
 30
0.0
 11
9.092849
 21
6.399955
 31
0.0
  0
LINE
  5
295
  8
0
 10
9.092849
 20
6.399955
 30
0.0
 11
9.092849
 21
7.628987
 31
0.0
  0
LINE
  5
296
  8
0
 10
9.092849
 20
7.628987
 30
0.0
 11
9.092849
 21
7.683181
 31
0.0
  0
LINE
  5
297
  8
0
 10
9.092849
 20
7.683181
 30
0.0
 11
9.092849
 21
7.928987
 31
0.0
  0
LINE
  5
298
  8
0
 10
9.092849
 20
7.928987
 30
0.0
 11
9.092849
 21
8.199955
 31
0.0
  0
LINE
  5
299
  8
0
 10
9.092849
 20
8.199955
 30
0.0
 11
9.092849
 21
9.428987
 31
0.0
  0
LINE
  5
29A
  8
0
 10
9.092849
 20
9.428987
 30
0.0
 11
9.092849
 21
9.483181
 31
0.0
  0
LINE
  5
29B
  8
0
 10
9.092849
 20
9.483181
 30
0.0
 11
9.092849
 21
9.728987
 31
0.0
  0
LINE
  5
29C
  8
0
 10
9.092849
 20
9.728987
 30
0.0
 11
9.092849
 21
9.999955
 31
0.0
  0
LINE
  5
29D
  8
0
 10
9.092849
 20
9.999955
 30
0.0
 11
9.092849
 21
11.228987
 31
0.0
  0
LINE
  5
29E
  8
0
 10
9.092849
 20
11.228987
 30
0.0
 11
9.092849
 21
11.283181
 31
0.0
  0
LINE
  5
29F
  8
0
 10
9.092849
 20
11.283181
 30
0.0
 11
9.092849
 21
11.528987
 31
0.0
  0
LINE
  5
2A0
  8
0
 10
9.092849
 20
11.528987
 30
0.0
 11
9.092849
 21
11.799955
 31
0.0
  0
LINE
  5
2A1
  8
0
 10
9.092849
 20
11.799955
 30
0.0
 11
9.092849
 21
13.028987
 31
0.0
  0
LINE
  5
2A2
  8
0
 10
9.092849
 20
13.028987
 30
0.0
 11
9.092849
 21
13.083181
 31
0.0
  0
LINE
  5
2A3
  8
0
 10
9.092849
 20
13.083181
 30
0.0
 11
9.092849
 21
13.328987
 31
0.0
  0
LINE
  5
2A4
  8
0
 10
9.092849
 20
13.328987
 30
0.0
 11
9.092849
 21
13.599955
 31
0.0
  0
LINE
  5
2A5
  8
0
 10
9.092849
 20
13.599955
 30
0.0
 11
9.092849
 21
14.575806
 31
0.0
  0
LINE
  5
2A6
  8
0
 10
9.092849
 20
14.575806
 30
0.0
 11
9.092849
 21
14.63
 31
0.0
  0
LINE
  5
2A7
  8
0
 10
9.592849
 20
0.527
 30
0.0
 11
9.592849
 21
0.772806
 31
0.0
  0
LINE
  5
2A8
  8
0
 10
9.592849
 20
0.527
 30
0.0
 11
9.592849
 21
0.772806
 31
0.0
  0
LINE
  5
2A9
  8
0
 10
9.592849
 20
0.772806
 30
0.0
 11
9.592849
 21
0.990123
 31
0.0
  0
LINE
  5
2AA
  8
0
 10
9.592849
 20
0.990123
 30
0.0
 11
9.592849
 21
2.219155
 31
0.0
  0
LINE
  5
2AB
  8
0
 10
9.592849
 20
2.219155
 30
0.0
 11
9.592849
 21
2.273348
 31
0.0
  0
LINE
  5
2AC
  8
0
 10
9.592849
 20
2.273348
 30
0.0
 11
9.592849
 21
2.519155
 31
0.0
  0
LINE
  5
2AD
  8
0
 10
9.592849
 20
2.519155
 30
0.0
 11
9.592849
 21
2.790123
 31
0.0
  0
LINE
  5
2AE
  8
0
 10
9.592849
 20
2.790123
 30
0.0
 11
9.592849
 21
4.019155
 31
0.0
  0
LINE
  5
2AF
  8
0
 10
9.592849
 20
4.019155
 30
0.0
 11
9.592849
 21
4.073348
 31
0.0
  0
LINE
  5
2B0
  8
0
 10
9.592849
 20
4.073348
 30
0.0
 11
9.592849
 21
4.319155
 31
0.0
  0
LINE
  5
2B1
  8
0
 10
9.592849
 20
4.319155
 30
0.0
 11
9.592849
 21
4.590123
 31
0.0
  0
LINE
  5
2B2
  8
0
 10
9.592849
 20
4.590123
 30
0.0
 11
9.592849
 21
5.819155
 31
0.0
  0
LINE
  5
2B3
  8
0
 10
9.592849
 20
5.819155
 30
0.0
 11
9.592849
 21
5.873348
 31
0.0
  0
LINE
  5
2B4
  8
0
 10
9.592849
 20
5.873348
 30
0.0
 11
9.592849
 21
6.119155
 31
0.0
  0
LINE
  5
2B5
  8
0
 10
9.592849
 20
6.119155
 30
0.0
 11
9.592849
 21
6.390123
 31
0.0
  0
LINE
  5
2B6
  8
0
 10
9.592849
 20
6.390123
 30
0.0
 11
9.592849
 21
7.619155
 31
0.0
  0
LINE
  5
2B7
  8
0
 10
9.592849
 20
7.619155
 30
0.0
 11
9.592849
 21
7.673348
 31
0.0
  0
LINE
  5
2B8
  8
0
 10
9.592849
 20
7.673348
 30
0.0
 11
9.592849
 21
7.919155
 31
0.0
  0
LINE
  5
2B9
  8
0
 10
9.592849
 20
7.919155
 30
0.0
 11
9.592849
 21
8.190123
 31
0.0
  0
LINE
  5
2BA
  8
0
 10
9.592849
 20
8.190123
 30
0.0
 11
9.592849
 21
9.419155
 31
0.0
  0
LINE
  5
2BB
  8
0
 10
9.592849
 20
9.419155
 30
0.0
 11
9.592849
 21
9.473348
 31
0.0
  0
LINE
  5
2BC
  8
0
 10
9.592849
 20
9.473348
 30
0.0
 11
9.592849
 21
9.719155
 31
0.0
  0
LINE
  5
2BD
  8
0
 10
9.592849
 20
9.719155
 30
0.0
 11
9.592849
 21
9.990123
 31
0.0
  0
LINE
  5
2BE
  8
0
 10
9.592849
 20
9.990123
 30
0.0
 11
9.592849
 21
11.219155
 31
0.0
  0
LINE
  5
2BF
  8
0
 10
9.592849
 20
11.219155
 30
0.0
 11
9.592849
 21
11.273348
 31
0.0
  0
LINE
  5
2C0
  8
0
 10
9.592849
 20
11.273348
 30
0.0
 11
9.592849
 21
11.519155
 31
0.0
  0
LINE
  5
2C1
  8
0
 10
9.592849
 20
11.519155
 30
0.0
 11
9.592849
 21
11.790123
 31
0.0
  0
LINE
  5
2C2
  8
0
 10
9.592849
 20
11.790123
 30
0.0
 11
9.592849
 21
13.019155
 31
0.0
  0
LINE
  5
2C3
  8
0
 10
9.592849
 20
13.019155
 30
0.0
 11
9.592849
 21
13.073348
 31
0.0
  0
LINE
  5
2C4
  8
0
 10
9.592849
 20
13.073348
 30
0.0
 11
9.592849
 21
13.319155
 31
0.0
  0
LINE
  5
2C5
  8
0
 10
9.592849
 20
13.319155
 30
0.0
 11
9.592849
 21
13.590123
 31
0.0
  0
LINE
  5
2C6
  8
0
 10
9.592849
 20
13.590123
 30
0.0
 11
9.592849
 21
14.575806
 31
0.0
  0
LINE
  5
2C7
  8
0
 10
9.592849
 20
14.575806
 30
0.0
 11
9.592849
 21
14.63
 31
0.0
  0
LINE
  5
2C8
  8
0
 10
10.092849
 20
0.515
 30
0.0
 11
10.092849
 21
0.760806
 31
0.0
  0
LINE
  5
2C9
  8
0
 10
10.092849
 20
0.515
 30
0.0
 11
10.092849
 21
0.760806
 31
0.0
  0
LINE
  5
2CA
  8
0
 10
10.092849
 20
0.760806
 30
0.0
 11
10.092849
 21
0.980471
 31
0.0
  0
LINE
  5
2CB
  8
0
 10
10.092849
 20
0.980471
 30
0.0
 11
10.092849
 21
2.209503
 31
0.0
  0
LINE
  5
2CC
  8
0
 10
10.092849
 20
2.209503
 30
0.0
 11
10.092849
 21
2.263697
 31
0.0
  0
LINE
  5
2CD
  8
0
 10
10.092849
 20
2.263697
 30
0.0
 11
10.092849
 21
2.509503
 31
0.0
  0
LINE
  5
2CE
  8
0
 10
10.092849
 20
2.509503
 30
0.0
 11
10.092849
 21
2.780471
 31
0.0
  0
LINE
  5
2CF
  8
0
 10
10.092849
 20
2.780471
 30
0.0
 11
10.092849
 21
4.009503
 31
0.0
  0
LINE
  5
2D0
  8
0
 10
10.092849
 20
4.009503
 30
0.0
 11
10.092849
 21
4.063697
 31
0.0
  0
LINE
  5
2D1
  8
0
 10
10.092849
 20
4.063697
 30
0.0
 11
10.092849
 21
4.309503
 31
0.0
  0
LINE
  5
2D2
  8
0
 10
10.092849
 20
4.309503
 30
0.0
 11
10.092849
 21
4.580471
 31
0.0
  0
LINE
  5
2D3
  8
0
 10
10.092849
 20
4.580471
 30
0.0
 11
10.092849
 21
5.809503
 31
0.0
  0
LINE
  5
2D4
  8
0
 10
10.092849
 20
5.809503
 30
0.0
 11
10.092849
 21
5.863697
 31
0.0
  0
LINE
  5
2D5
  8
0
 10
10.092849
 20
5.863697
 30
0.0
 11
10.092849
 21
6.109503
 31
0.0
  0
LINE
  5
2D6
  8
0
 10
10.092849
 20
6.109503
 30
0.0
 11
10.092849
 21
6.380471
 31
0.0
  0
LINE
  5
2D7
  8
0
 10
10.092849
 20
6.380471
 30
0.0
 11
10.092849
 21
7.609503
 31
0.0
  0
LINE
  5
2D8
  8
0
 10
10.092849
 20
7.609503
 30
0.0
 11
10.092849
 21
7.663697
 31
0.0
  0
LINE
  5
2D9
  8
0
 10
10.092849
 20
7.663697
 30
0.0
 11
10.092849
 21
7.909503
 31
0.0
  0
LINE
  5
2DA
  8
0
 10
10.092849
 20
7.909503
 30
0.0
 11
10.092849
 21
8.180471
 31
0.0
  0
LINE
  5
2DB
  8
0
 10
10.092849
 20
8.180471
 30
0.0
 11
10.092849
 21
9.409503
 31
0.0
  0
LINE
  5
2DC
  8
0
 10
10.092849
 20
9.409503
 30
0.0
 11
10.092849
 21
9.463697
 31
0.0
  0
LINE
  5
2DD
  8
0
 10
10.092849
 20
9.463697
 30
0.0
 11
10.092849
 21
9.709503
 31
0.0
  0
LINE
  5
2DE
  8
0
 10
10.092849
 20
9.709503
 30
0.0
 11
10.092849
 21
9.980471
 31
0.0
  0
LINE
  5
2DF
  8
0
 10
10.092849
 20
9.980471
 30
0.0
 11
10.092849
 21
11.209503
 31
0.0
  0
LINE
  5
2E0
  8
0
 10
10.092849
 20
11.209503
 30
0.0
 11
10.092849
 21
11.263697
 31
0.0
  0
LINE
  5
2E1
  8
0
 10
10.092849
 20
11.263697
 30
0.0
 11
10.092849
 21
11.509503
 31
0.0
  0
LINE
  5
2E2
  8
0
 10
10.092849
 20
11.509503
 30
0.0
 11
10.092849
 21
11.780471
 31
0.0
  0
LINE
  5
2E3
  8
0
 10
10.092849
 20
11.780471
 30
0.0
 11
10.092849
 21
13.009503
 31
0.0
  0
LINE
  5
2E4
  8
0
 10
10.092849
 20
13.009503
 30
0.0
 11
10.092849
 21
13.063697
 31
0.0
  0
LINE
  5
2E5
  8
0
 10
10.092849
 20
13.063697
 30
0.0
 11
10.092849
 21
13.309503
 31
0.0
  0
LINE
  5
2E6
  8
0
 10
10.092849
 20
13.309503
 30
0.0
 11
10.092849
 21
13.580471
 31
0.0
  0
LINE
  5
2E7
  8
0
 10
10.092849
 20
13.580471
 30
0.0
 11
10.092849
 21
14.576806
 31
0.0
  0
LINE
  5
2E8
  8
0
 10
10.092849
 20
14.576806
 30
0.0
 11
10.092849
 21
14.631
 31
0.0
  0
LINE
  5
2E9
  8
0
 10
10.592849
 20
0.503
 30
0.0
 11
10.592849
 21
0.748806
 31
0.0
  0
LINE
  5
2EA
  8
0
 10
10.592849
 20
0.503
 30
0.0
 11
10.592849
 21
0.748806
 31
0.0
  0
LINE
  5
2EB
  8
0
 10
10.592849
 20
0.748806
 30
0.0
 11
10.592849
 21
0.970819
 31
0.0
  0
LINE
  5
2EC
  8
0
 10
10.592849
 20
0.970819
 30
0.0
 11
10.592849
 21
2.199852
 31
0.0
  0
LINE
  5
2ED
  8
0
 10
10.592849
 20
2.199852
 30
0.0
 11
10.592849
 21
2.254045
 31
0.0
  0
LINE
  5
2EE
  8
0
 10
10.592849
 20
2.254045
 30
0.0
 11
10.592849
 21
2.499852
 31
0.0
  0
LINE
  5
2EF
  8
0
 10
10.592849
 20
2.499852
 30
0.0
 11
10.592849
 21
2.770819
 31
0.0
  0
LINE
  5
2F0
  8
0
 10
10.592849
 20
2.770819
 30
0.0
 11
10.592849
 21
3.999852
 31
0.0
  0
LINE
  5
2F1
  8
0
 10
10.592849
 20
3.999852
 30
0.0
 11
10.592849
 21
4.054045
 31
0.0
  0
LINE
  5
2F2
  8
0
 10
10.592849
 20
4.054045
 30
0.0
 11
10.592849
 21
4.299852
 31
0.0
  0
LINE
  5
2F3
  8
0
 10
10.592849
 20
4.299852
 30
0.0
 11
10.592849
 21
4.570819
 31
0.0
  0
LINE
  5
2F4
  8
0
 10
10.592849
 20
4.570819
 30
0.0
 11
10.592849
 21
5.799852
 31
0.0
  0
LINE
  5
2F5
  8
0
 10
10.592849
 20
5.799852
 30
0.0
 11
10.592849
 21
5.854045
 31
0.0
  0
LINE
  5
2F6
  8
0
 10
10.592849
 20
5.854045
 30
0.0
 11
10.592849
 21
6.099852
 31
0.0
  0
LINE
  5
2F7
  8
0
 10
10.592849
 20
6.099852
 30
0.0
 11
10.592849
 21
6.370819
 31
0.0
  0
LINE
  5
2F8
  8
0
 10
10.592849
 20
6.370819
 30
0.0
 11
10.592849
 21
7.599852
 31
0.0
  0
LINE
  5
2F9
  8
0
 10
10.592849
 20
7.599852
 30
0.0
 11
10.592849
 21
7.654045
 31
0.0
  0
LINE
  5
2FA
  8
0
 10
10.592849
 20
7.654045
 30
0.0
 11
10.592849
 21
7.899852
 31
0.0
  0
LINE
  5
2FB
  8
0
 10
10.592849
 20
7.899852
 30
0.0
 11
10.592849
 21
8.170819
 31
0.0
  0
LINE
  5
2FC
  8
0
 10
10.592849
 20
8.170819
 30
0.0
 11
10.592849
 21
9.399852
 31
0.0
  0
LINE
  5
2FD
  8
0
 10
10.592849
 20
9.399852
 30
0.0
 11
10.592849
 21
9.454045
 31
0.0
  0
LINE
  5
2FE
  8
0
 10
10.592849
 20
9.454045
 30
0.0
 11
10.592849
 21
9.699852
 31
0.0
  0
LINE
  5
2FF
  8
0
 10
10.592849
 20
9.699852
 30
0.0
 11
10.592849
 21
9.970819
 31
0.0
  0
LINE
  5
300
  8
0
 10
10.592849
 20
9.970819
 30
0.0
 11
10.592849
 21
11.199852
 31
0.0
  0
LINE
  5
301
  8
0
 10
10.592849
 20
11.199852
 30
0.0
 11
10.592849
 21
11.254045
 31
0.0
  0
LINE
  5
302
  8
0
 10
10.592849
 20
11.254045
 30
0.0
 11
10.592849
 21
11.499852
 31
0.0
  0
LINE
  5
303
  8
0
 10
10.592849
 20
11.499852
 30
0.0
 11
10.592849
 21
11.770819
 31
0.0
  0
LINE
  5
304
  8
0
 10
10.592849
 20
11.770819
 30
0.0
 11
10.592849
 21
12.999852
 31
0.0
  0
LINE
  5
305
  8
0
 10
10.592849
 20
12.999852
 30
0.0
 11
10.592849
 21
13.054045
 31
0.0
  0
LINE
  5
306
  8
0
 10
10.592849
 20
13.054045
 30
0.0
 11
10.592849
 21
13.299852
 31
0.0
  0
LINE
  5
307
  8
0
 10
10.592849
 20
13.299852
 30
0.0
 11
10.592849
 21
13.570819
 31
0.0
  0
LINE
  5
308
  8
0
 10
10.592849
 20
13.570819
 30
0.0
 11
10.592849
 21
14.577806
 31
0.0
  0
LINE
  5
309
  8
0
 10
10.592849
 20
14.577806
 30
0.0
 11
10.592849
 21
14.632
 31
0.0
  0
LINE
  5
30A
  8
0
 10
11.092849
 20
0.491
 30
0.0
 11
11.092849
 21
0.736806
 31
0.0
  0
LINE
  5
30B
  8
0
 10
11.092849
 20
0.491
 30
0.0
 11
11.092849
 21
0.736806
 31
0.0
  0
LINE
  5
30C
  8
0
 10
11.092849
 20
0.736806
 30
0.0
 11
11.092849
 21
0.961168
 31
0.0
  0
LINE
  5
30D
  8
0
 10
11.092849
 20
0.961168
 30
0.0
 11
11.092849
 21
2.1902
 31
0.0
  0
LINE
  5
30E
  8
0
 10
11.092849
 20
2.1902
 30
0.0
 11
11.092849
 21
2.244213
 31
0.0
  0
LINE
  5
30F
  8
0
 10
11.092849
 20
2.244213
 30
0.0
 11
11.092849
 21
2.490019
 31
0.0
  0
LINE
  5
310
  8
0
 10
11.092849
 20
2.490019
 30
0.0
 11
11.092849
 21
2.761168
 31
0.0
  0
LINE
  5
311
  8
0
 10
11.092849
 20
2.761168
 30
0.0
 11
11.092849
 21
3.9902
 31
0.0
  0
LINE
  5
312
  8
0
 10
11.092849
 20
3.9902
 30
0.0
 11
11.092849
 21
4.044213
 31
0.0
  0
LINE
  5
313
  8
0
 10
11.092849
 20
4.044213
 30
0.0
 11
11.092849
 21
4.290019
 31
0.0
  0
LINE
  5
314
  8
0
 10
11.092849
 20
4.290019
 30
0.0
 11
11.092849
 21
4.561168
 31
0.0
  0
LINE
  5
315
  8
0
 10
11.092849
 20
4.561168
 30
0.0
 11
11.092849
 21
5.7902
 31
0.0
  0
LINE
  5
316
  8
0
 10
11.092849
 20
5.7902
 30
0.0
 11
11.092849
 21
5.844213
 31
0.0
  0
LINE
  5
317
  8
0
 10
11.092849
 20
5.844213
 30
0.0
 11
11.092849
 21
6.090019
 31
0.0
  0
LINE
  5
318
  8
0
 10
11.092849
 20
6.090019
 30
0.0
 11
11.092849
 21
6.361168
 31
0.0
  0
LINE
  5
319
  8
0
 10
11.092849
 20
6.361168
 30
0.0
 11
11.092849
 21
7.5902
 31
0.0
  0
LINE
  5
31A
  8
0
 10
11.092849
 20
7.5902
 30
0.0
 11
11.092849
 21
7.644213
 31
0.0
  0
LINE
  5
31B
  8
0
 10
11.092849
 20
7.644213
 30
0.0
 11
11.092849
 21
7.890019
 31
0.0
  0
LINE
  5
31C
  8
0
 10
11.092849
 20
7.890019
 30
0.0
 11
11.092849
 21
8.161168
 31
0.0
  0
LINE
  5
31D
  8
0
 10
11.092849
 20
8.161168
 30
0.0
 11
11.092849
 21
9.3902
 31
0.0
  0
LINE
  5
31E
  8
0
 10
11.092849
 20
9.3902
 30
0.0
 11
11.092849
 21
9.444213
 31
0.0
  0
LINE
  5
31F
  8
0
 10
11.092849
 20
9.444213
 30
0.0
 11
11.092849
 21
9.690019
 31
0.0
  0
LINE
  5
320
  8
0
 10
11.092849
 20
9.690019
 30
0.0
 11
11.092849
 21
9.961168
 31
0.0
  0
LINE
  5
321
  8
0
 10
11.092849
 20
9.961168
 30
0.0
 11
11.092849
 21
11.1902
 31
0.0
  0
LINE
  5
322
  8
0
 10
11.092849
 20
11.1902
 30
0.0
 11
11.092849
 21
11.244213
 31
0.0
  0
LINE
  5
323
  8
0
 10
11.092849
 20
11.244213
 30
0.0
 11
11.092849
 21
11.490019
 31
0.0
  0
LINE
  5
324
  8
0
 10
11.092849
 20
11.490019
 30
0.0
 11
11.092849
 21
11.761168
 31
0.0
  0
LINE
  5
325
  8
0
 10
11.092849
 20
11.761168
 30
0.0
 11
11.092849
 21
12.9902
 31
0.0
  0
LINE
  5
326
  8
0
 10
11.092849
 20
12.9902
 30
0.0
 11
11.092849
 21
13.044213
 31
0.0
  0
LINE
  5
327
  8
0
 10
11.092849
 20
13.044213
 30
0.0
 11
11.092849
 21
13.290019
 31
0.0
  0
LINE
  5
328
  8
0
 10
11.092849
 20
13.290019
 30
0.0
 11
11.092849
 21
13.561168
 31
0.0
  0
LINE
  5
329
  8
0
 10
11.092849
 20
13.561168
 30
0.0
 11
11.092849
 21
14.578806
 31
0.0
  0
LINE
  5
32A
  8
0
 10
11.092849
 20
14.578806
 30
0.0
 11
11.092849
 21
14.633
 31
0.0
  0
LINE
  5
32B
  8
0
 10
11.592849
 20
0.479
 30
0.0
 11
11.592849
 21
0.724806
 31
0.0
  0
LINE
  5
32C
  8
0
 10
11.592849
 20
0.479
 30
0.0
 11
11.592849
 21
0.724806
 31
0.0
  0
LINE
  5
32D
  8
0
 10
11.592849
 20
0.724806
 30
0.0
 11
11.592849
 21
0.951335
 31
0.0
  0
LINE
  5
32E
  8
0
 10
11.592849
 20
0.951335
 30
0.0
 11
11.592849
 21
2.180368
 31
0.0
  0
LINE
  5
32F
  8
0
 10
11.592849
 20
2.180368
 30
0.0
 11
11.592849
 21
2.234561
 31
0.0
  0
LINE
  5
330
  8
0
 10
11.592849
 20
2.234561
 30
0.0
 11
11.592849
 21
2.480368
 31
0.0
  0
LINE
  5
331
  8
0
 10
11.592849
 20
2.480368
 30
0.0
 11
11.592849
 21
2.751335
 31
0.0
  0
LINE
  5
332
  8
0
 10
11.592849
 20
2.751335
 30
0.0
 11
11.592849
 21
3.980368
 31
0.0
  0
LINE
  5
333
  8
0
 10
11.592849
 20
3.980368
 30
0.0
 11
11.592849
 21
4.034561
 31
0.0
  0
LINE
  5
334
  8
0
 10
11.592849
 20
4.034561
 30
0.0
 11
11.592849
 21
4.280368
 31
0.0
  0
LINE
  5
335
  8
0
 10
11.592849
 20
4.280368
 30
0.0
 11
11.592849
 21
4.551335
 31
0.0
  0
LINE
  5
336
  8
0
 10
11.592849
 20
4.551335
 30
0.0
 11
11.592849
 21
5.780368
 31
0.0
  0
LINE
  5
337
  8
0
 10
11.592849
 20
5.780368
 30
0.0
 11
11.592849
 21
5.834561
 31
0.0
  0
LINE
  5
338
  8
0
 10
11.592849
 20
5.834561
 30
0.0
 11
11.592849
 21
6.080368
 31
0.0
  0
LINE
  5
339
  8
0
 10
11.592849
 20
6.080368
 30
0.0
 11
11.592849
 21
6.351335
 31
0.0
  0
LINE
  5
33A
  8
0
 10
11.592849
 20
6.351335
 30
0.0
 11
11.592849
 21
7.580368
 31
0.0
  0
LINE
  5
33B
  8
0
 10
11.592849
 20
7.580368
 30
0.0
 11
11.592849
 21
7.634561
 31
0.0
  0
LINE
  5
33C
  8
0
 10
11.592849
 20
7.634561
 30
0.0
 11
11.592849
 21
7.880368
 31
0.0
  0
LINE
  5
33D
  8
0
 10
11.592849
 20
7.880368
 30
0.0
 11
11.592849
 21
8.151335
 31
0.0
  0
LINE
  5
33E
  8
0
 10
11.592849
 20
8.151335
 30
0.0
 11
11.592849
 21
9.380368
 31
0.0
  0
LINE
  5
33F
  8
0
 10
11.592849
 20
9.380368
 30
0.0
 11
11.592849
 21
9.434561
 31
0.0
  0
LINE
  5
340
  8
0
 10
11.592849
 20
9.434561
 30
0.0
 11
11.592849
 21
9.680368
 31
0.0
  0
LINE
  5
341
  8
0
 10
11.592849
 20
9.680368
 30
0.0
 11
11.592849
 21
9.951335
 31
0.0
  0
LINE
  5
342
  8
0
 10
11.592849
 20
9.951335
 30
0.0
 11
11.592849
 21
11.180368
 31
0.0
  0
LINE
  5
343
  8
0
 10
11.592849
 20
11.180368
 30
0.0
 11
11.592849
 21
11.234561
 31
0.0
  0
LINE
  5
344
  8
0
 10
11.592849
 20
11.234561
 30
0.0
 11
11.592849
 21
11.480368
 31
0.0
  0
LINE
  5
345
  8
0
 10
11.592849
 20
11.480368
 30
0.0
 11
11.592849
 21
11.751335
 31
0.0
  0
LINE
  5
346
  8
0
 10
11.592849
 20
11.751335
 30
0.0
 11
11.592849
 21
12.980368
 31
0.0
  0
LINE
  5
347
  8
0
 10
11.592849
 20
12.980368
 30
0.0
 11
11.592849
 21
13.034561
 31
0.0
  0
LINE
  5
348
  8
0
 10
11.592849
 20
13.034561
 30
0.0
 11
11.592849
 21
13.280368
 31
0.0
  0
LINE
  5
349
  8
0
 10
11.592849
 20
13.280368
 30
0.0
 11
11.592849
 21
13.551335
 31
0.0
  0
LINE
  5
34A
  8
0
 10
11.592849
 20
13.551335
 30
0.0
 11
11.592849
 21
14.578806
 31
0.0
  0
LINE
  5
34B
  8
0
 10
11.592849
 20
14.578806
 30
0.0
 11
11.592849
 21
14.633
 31
0.0
  0
LINE
  5
34C
  8
0
 10
12.092849
 20
0.467
 30
0.0
 11
12.092849
 21
0.712806
 31
0.0
  0
LINE
  5
34D
  8
0
 10
12.092849
 20
0.467
 30
0.0
 11
12.092849
 21
0.712806
 31
0.0
  0
LINE
  5
34E
  8
0
 10
12.092849
 20
0.712806
 30
0.0
 11
12.092849
 21
0.941684
 31
0.0
  0
LINE
  5
34F
  8
0
 10
12.092849
 20
0.941684
 30
0.0
 11
12.092849
 21
2.170716
 31
0.0
  0
LINE
  5
350
  8
0
 10
12.092849
 20
2.170716
 30
0.0
 11
12.092849
 21
2.22491
 31
0.0
  0
LINE
  5
351
  8
0
 10
12.092849
 20
2.22491
 30
0.0
 11
12.092849
 21
2.470716
 31
0.0
  0
LINE
  5
352
  8
0
 10
12.092849
 20
2.470716
 30
0.0
 11
12.092849
 21
2.741684
 31
0.0
  0
LINE
  5
353
  8
0
 10
12.092849
 20
2.741684
 30
0.0
 11
12.092849
 21
3.970716
 31
0.0
  0
LINE
  5
354
  8
0
 10
12.092849
 20
3.970716
 30
0.0
 11
12.092849
 21
4.02491
 31
0.0
  0
LINE
  5
355
  8
0
 10
12.092849
 20
4.02491
 30
0.0
 11
12.092849
 21
4.270716
 31
0.0
  0
LINE
  5
356
  8
0
 10
12.092849
 20
4.270716
 30
0.0
 11
12.092849
 21
4.541684
 31
0.0
  0
LINE
  5
357
  8
0
 10
12.092849
 20
4.541684
 30
0.0
 11
12.092849
 21
5.770716
 31
0.0
  0
LINE
  5
358
  8
0
 10
12.092849
 20
5.770716
 30
0.0
 11
12.092849
 21
5.82491
 31
0.0
  0
LINE
  5
359
  8
0
 10
12.092849
 20
5.82491
 30
0.0
 11
12.092849
 21
6.070716
 31
0.0
  0
LINE
  5
35A
  8
0
 10
12.092849
 20
6.070716
 30
0.0
 11
12.092849
 21
6.341684
 31
0.0
  0
LINE
  5
35B
  8
0
 10
12.092849
 20
6.341684
 30
0.0
 11
12.092849
 21
7.570716
 31
0.0
  0
LINE
  5
35C
  8
0
 10
12.092849
 20
7.570716
 30
0.0
 11
12.092849
 21
7.62491
 31
0.0
  0
LINE
  5
35D
  8
0
 10
12.092849
 20
7.62491
 30
0.0
 11
12.092849
 21
7.870716
 31
0.0
  0
LINE
  5
35E
  8
0
 10
12.092849
 20
7.870716
 30
0.0
 11
12.092849
 21
8.141684
 31
0.0
  0
LINE
  5
35F
  8
0
 10
12.092849
 20
8.141684
 30
0.0
 11
12.092849
 21
9.370716
 31
0.0
  0
LINE
  5
360
  8
0
 10
12.092849
 20
9.370716
 30
0.0
 11
12.092849
 21
9.42491
 31
0.0
  0
LINE
  5
361
  8
0
 10
12.092849
 20
9.42491
 30
0.0
 11
12.092849
 21
9.670716
 31
0.0
  0
LINE
  5
362
  8
0
 10
12.092849
 20
9.670716
 30
0.0
 11
12.092849
 21
9.941684
 31
0.0
  0
LINE
  5
363
  8
0
 10
12.092849
 20
9.941684
 30
0.0
 11
12.092849
 21
11.170716
 31
0.0
  0
LINE
  5
364
  8
0
 10
12.092849
 20
11.170716
 30
0.0
 11
12.092849
 21
11.22491
 31
0.0
  0
LINE
  5
365
  8
0
 10
12.092849
 20
11.22491
 30
0.0
 11
12.092849
 21
11.470716
 31
0.0
  0
LINE
  5
366
  8
0
 10
12.092849
 20
11.470716
 30
0.0
 11
12.092849
 21
11.741684
 31
0.0
  0
LINE
  5
367
  8
0
 10
12.092849
 20
11.741684
 30
0.0
 11
12.092849
 21
12.970716
 31
0.0
  0
LINE
  5
368
  8
0
 10
12.092849
 20
12.970716
 30
0.0
 11
12.092849
 21
13.02491
 31
0.0
  0
LINE
  5
369
  8
0
 10
12.092849
 20
13.02491
 30
0.0
 11
12.092849
 21
13.270716
 31
0.0
  0
LINE
  5
36A
  8
0
 10
12.092849
 20
13.270716
 30
0.0
 11
12.092849
 21
13.541684
 31
0.0
  0
LINE
  5
36B
  8
0
 10
12.092849
 20
13.541684
 30
0.0
 11
12.092849
 21
14.579806
 31
0.0
  0
LINE
  5
36C
  8
0
 10
12.092849
 20
14.579806
 30
0.0
 11
12.092849
 21
14.634
 31
0.0
  0
LINE
  5
36D
  8
0
 10
12.592849
 20
0.455
 30
0.0
 11
12.592849
 21
0.700806
 31
0.0
  0
LINE
  5
36E
  8
0
 10
12.592849
 20
0.455
 30
0.0
 11
12.592849
 21
0.700806
 31
0.0
  0
LINE
  5
36F
  8
0
 10
12.592849
 20
0.700806
 30
0.0
 11
12.592849
 21
0.932032
 31
0.0
  0
LINE
  5
370
  8
0
 10
12.592849
 20
0.932032
 30
0.0
 11
12.592849
 21
2.161065
 31
0.0
  0
LINE
  5
371
  8
0
 10
12.592849
 20
2.161065
 30
0.0
 11
12.592849
 21
2.215258
 31
0.0
  0
LINE
  5
372
  8
0
 10
12.592849
 20
2.215258
 30
0.0
 11
12.592849
 21
2.461065
 31
0.0
  0
LINE
  5
373
  8
0
 10
12.592849
 20
2.461065
 30
0.0
 11
12.592849
 21
2.732032
 31
0.0
  0
LINE
  5
374
  8
0
 10
12.592849
 20
2.732032
 30
0.0
 11
12.592849
 21
3.961065
 31
0.0
  0
LINE
  5
375
  8
0
 10
12.592849
 20
3.961065
 30
0.0
 11
12.592849
 21
4.015258
 31
0.0
  0
LINE
  5
376
  8
0
 10
12.592849
 20
4.015258
 30
0.0
 11
12.592849
 21
4.261065
 31
0.0
  0
LINE
  5
377
  8
0
 10
12.592849
 20
4.261065
 30
0.0
 11
12.592849
 21
4.532032
 31
0.0
  0
LINE
  5
378
  8
0
 10
12.592849
 20
4.532032
 30
0.0
 11
12.592849
 21
5.761065
 31
0.0
  0
LINE
  5
379
  8
0
 10
12.592849
 20
5.761065
 30
0.0
 11
12.592849
 21
5.815258
 31
0.0
  0
LINE
  5
37A
  8
0
 10
12.592849
 20
5.815258
 30
0.0
 11
12.592849
 21
6.061065
 31
0.0
  0
LINE
  5
37B
  8
0
 10
12.592849
 20
6.061065
 30
0.0
 11
12.592849
 21
6.332032
 31
0.0
  0
LINE
  5
37C
  8
0
 10
12.592849
 20
6.332032
 30
0.0
 11
12.592849
 21
7.561065
 31
0.0
  0
LINE
  5
37D
  8
0
 10
12.592849
 20
7.561065
 30
0.0
 11
12.592849
 21
7.615258
 31
0.0
  0
LINE
  5
37E
  8
0
 10
12.592849
 20
7.615258
 30
0.0
 11
12.592849
 21
7.861065
 31
0.0
  0
LINE
  5
37F
  8
0
 10
12.592849
 20
7.861065
 30
0.0
 11
12.592849
 21
8.132032
 31
0.0
  0
LINE
  5
380
  8
0
 10
12.592849
 20
8.132032
 30
0.0
 11
12.592849
 21
9.361065
 31
0.0
  0
LINE
  5
381
  8
0
 10
12.592849
 20
9.361065
 30
0.0
 11
12.592849
 21
9.415258
 31
0.0
  0
LINE
  5
382
  8
0
 10
12.592849
 20
9.415258
 30
0.0
 11
12.592849
 21
9.661065
 31
0.0
  0
LINE
  5
383
  8
0
 10
12.592849
 20
9.661065
 30
0.0
 11
12.592849
 21
9.932032
 31
0.0
  0
LINE
  5
384
  8
0
 10
12.592849
 20
9.932032
 30
0.0
 11
12.592849
 21
11.161065
 31
0.0
  0
LINE
  5
385
  8
0
 10
12.592849
 20
11.161065
 30
0.0
 11
12.592849
 21
11.215258
 31
0.0
  0
LINE
  5
386
  8
0
 10
12.592849
 20
11.215258
 30
0.0
 11
12.592849
 21
11.461065
 31
0.0
  0
LINE
  5
387
  8
0
 10
12.592849
 20
11.461065
 30
0.0
 11
12.592849
 21
11.732032
 31
0.0
  0
LINE
  5
388
  8
0
 10
12.592849
 20
11.732032
 30
0.0
 11
12.592849
 21
12.961065
 31
0.0
  0
LINE
  5
389
  8
0
 10
12.592849
 20
12.961065
 30
0.0
 11
12.592849
 21
13.015258
 31
0.0
  0
LINE
  5
38A
  8
0
 10
12.592849
 20
13.015258
 30
0.0
 11
12.592849
 21
13.261065
 31
0.0
  0
LINE
  5
38B
  8
0
 10
12.592849
 20
13.261065
 30
0.0
 11
12.592849
 21
13.532032
 31
0.0
  0
LINE
  5
38C
  8
0
 10
12.592849
 20
13.532032
 30
0.0
 11
12.592849
 21
14.580806
 31
0.0
  0
LINE
  5
38D
  8
0
 10
12.592849
 20
14.580806
 30
0.0
 11
12.592849
 21
14.635
 31
0.0
  0
LINE
  5
38E
  8
0
 10
13.092849
 20
0.455
 30
0.0
 11
13.092849
 21
0.700806
 31
0.0
  0
LINE
  5
38F
  8
0
 10
13.092849
 20
0.455
 30
0.0
 11
13.092849
 21
0.700806
 31
0.0
  0
LINE
  5
390
  8
0
 10
13.092849
 20
0.700806
 30
0.0
 11
13.092849
 21
0.932213
 31
0.0
  0
LINE
  5
391
  8
0
 10
13.092849
 20
0.932213
 30
0.0
 11
13.092849
 21
2.161245
 31
0.0
  0
LINE
  5
392
  8
0
 10
13.092849
 20
2.161245
 30
0.0
 11
13.092849
 21
2.215258
 31
0.0
  0
LINE
  5
393
  8
0
 10
13.092849
 20
2.215258
 30
0.0
 11
13.092849
 21
2.461065
 31
0.0
  0
LINE
  5
394
  8
0
 10
13.092849
 20
2.461065
 30
0.0
 11
13.092849
 21
2.732213
 31
0.0
  0
LINE
  5
395
  8
0
 10
13.092849
 20
2.732213
 30
0.0
 11
13.092849
 21
3.961245
 31
0.0
  0
LINE
  5
396
  8
0
 10
13.092849
 20
3.961245
 30
0.0
 11
13.092849
 21
4.015258
 31
0.0
  0
LINE
  5
397
  8
0
 10
13.092849
 20
4.015258
 30
0.0
 11
13.092849
 21
4.261065
 31
0.0
  0
LINE
  5
398
  8
0
 10
13.092849
 20
4.261065
 30
0.0
 11
13.092849
 21
4.532213
 31
0.0
  0
LINE
  5
399
  8
0
 10
13.092849
 20
4.532213
 30
0.0
 11
13.092849
 21
5.761245
 31
0.0
  0
LINE
  5
39A
  8
0
 10
13.092849
 20
5.761245
 30
0.0
 11
13.092849
 21
5.815258
 31
0.0
  0
LINE
  5
39B
  8
0
 10
13.092849
 20
5.815258
 30
0.0
 11
13.092849
 21
6.061065
 31
0.0
  0
LINE
  5
39C
  8
0
 10
13.092849
 20
6.061065
 30
0.0
 11
13.092849
 21
6.332213
 31
0.0
  0
LINE
  5
39D
  8
0
 10
13.092849
 20
6.332213
 30
0.0
 11
13.092849
 21
7.561245
 31
0.0
  0
LINE
  5
39E
  8
0
 10
13.092849
 20
7.561245
 30
0.0
 11
13.092849
 21
7.615258
 31
0.0
  0
LINE
  5
39F
  8
0
 10
13.092849
 20
7.615258
 30
0.0
 11
13.092849
 21
7.861065
 31
0.0
  0
LINE
  5
3A0
  8
0
 10
13.092849
 20
7.861065
 30
0.0
 11
13.092849
 21
8.132213
 31
0.0
  0
LINE
  5
3A1
  8
0
 10
13.092849
 20
8.132213
 30
0.0
 11
13.092849
 21
9.361245
 31
0.0
  0
LINE
  5
3A2
  8
0
 10
13.092849
 20
9.361245
 30
0.0
 11
13.092849
 21
9.415258
 31
0.0
  0
LINE
  5
3A3
  8
0
 10
13.092849
 20
9.415258
 30
0.0
 11
13.092849
 21
9.661065
 31
0.0
  0
LINE
  5
3A4
  8
0
 10
13.092849
 20
9.661065
 30
0.0
 11
13.092849
 21
9.932213
 31
0.0
  0
LINE
  5
3A5
  8
0
 10
13.092849
 20
9.932213
 30
0.0
 11
13.092849
 21
11.161245
 31
0.0
  0
LINE
  5
3A6
  8
0
 10
13.092849
 20
11.161245
 30
0.0
 11
13.092849
 21
11.215258
 31
0.0
  0
LINE
  5
3A7
  8
0
 10
13.092849
 20
11.215258
 30
0.0
 11
13.092849
 21
11.461065
 31
0.0
  0
LINE
  5
3A8
  8
0
 10
13.092849
 20
11.461065
 30
0.0
 11
13.092849
 21
11.732213
 31
0.0
  0
LINE
  5
3A9
  8
0
 10
13.092849
 20
11.732213
 30
0.0
 11
13.092849
 21
12.961245
 31
0.0
  0
LINE
  5
3AA
  8
0
 10
13.092849
 20
12.961245
 30
0.0
 11
13.092849
 21
13.015258
 31
0.0
  0
LINE
  5
3AB
  8
0
 10
13.092849
 20
13.015258
 30
0.0
 11
13.092849
 21
13.261065
 31
0.0
  0
LINE
  5
3AC
  8
0
 10
13.092849
 20
13.261065
 30
0.0
 11
13.092849
 21
13.532213
 31
0.0
  0
LINE
  5
3AD
  8
0
 10
13.092849
 20
13.532213
 30
0.0
 11
13.092849
 21
14.581806
 31
0.0
  0
LINE
  5
3AE
  8
0
 10
13.092849
 20
14.581806
 30
0.0
 11
13.092849
 21
14.635819
 31
0.0
  0
LINE
  5
3AF
  8
0
 10
13.592849
 20
0.523
 30
0.0
 11
13.592849
 21
0.768806
 31
0.0
  0
LINE
  5
3B0
  8
0
 10
13.592849
 20
0.523
 30
0.0
 11
13.592849
 21
0.768806
 31
0.0
  0
LINE
  5
3B1
  8
0
 10
13.592849
 20
0.768806
 30
0.0
 11
13.592849
 21
0.987929
 31
0.0
  0
LINE
  5
3B2
  8
0
 10
13.592849
 20
0.987929
 30
0.0
 11
13.592849
 21
2.216961
 31
0.0
  0
LINE
  5
3B3
  8
0
 10
13.592849
 20
2.216961
 30
0.0
 11
13.592849
 21
2.271155
 31
0.0
  0
LINE
  5
3B4
  8
0
 10
13.592849
 20
2.271155
 30
0.0
 11
13.592849
 21
2.516961
 31
0.0
  0
LINE
  5
3B5
  8
0
 10
13.592849
 20
2.516961
 30
0.0
 11
13.592849
 21
2.787929
 31
0.0
  0
LINE
  5
3B6
  8
0
 10
13.592849
 20
2.787929
 30
0.0
 11
13.592849
 21
4.016961
 31
0.0
  0
LINE
  5
3B7
  8
0
 10
13.592849
 20
4.016961
 30
0.0
 11
13.592849
 21
4.071155
 31
0.0
  0
LINE
  5
3B8
  8
0
 10
13.592849
 20
4.071155
 30
0.0
 11
13.592849
 21
4.316961
 31
0.0
  0
LINE
  5
3B9
  8
0
 10
13.592849
 20
4.316961
 30
0.0
 11
13.592849
 21
4.587929
 31
0.0
  0
LINE
  5
3BA
  8
0
 10
13.592849
 20
4.587929
 30
0.0
 11
13.592849
 21
5.816961
 31
0.0
  0
LINE
  5
3BB
  8
0
 10
13.592849
 20
5.816961
 30
0.0
 11
13.592849
 21
5.871155
 31
0.0
  0
LINE
  5
3BC
  8
0
 10
13.592849
 20
5.871155
 30
0.0
 11
13.592849
 21
6.116961
 31
0.0
  0
LINE
  5
3BD
  8
0
 10
13.592849
 20
6.116961
 30
0.0
 11
13.592849
 21
6.387929
 31
0.0
  0
LINE
  5
3BE
  8
0
 10
13.592849
 20
6.387929
 30
0.0
 11
13.592849
 21
7.616961
 31
0.0
  0
LINE
  5
3BF
  8
0
 10
13.592849
 20
7.616961
 30
0.0
 11
13.592849
 21
7.671155
 31
0.0
  0
LINE
  5
3C0
  8
0
 10
13.592849
 20
7.671155
 30
0.0
 11
13.592849
 21
7.916961
 31
0.0
  0
LINE
  5
3C1
  8
0
 10
13.592849
 20
7.916961
 30
0.0
 11
13.592849
 21
8.187929
 31
0.0
  0
LINE
  5
3C2
  8
0
 10
13.592849
 20
8.187929
 30
0.0
 11
13.592849
 21
9.416961
 31
0.0
  0
LINE
  5
3C3
  8
0
 10
13.592849
 20
9.416961
 30
0.0
 11
13.592849
 21
9.471155
 31
0.0
  0
LINE
  5
3C4
  8
0
 10
13.592849
 20
9.471155
 30
0.0
 11
13.592849
 21
9.716961
 31
0.0
  0
LINE
  5
3C5
  8
0
 10
13.592849
 20
9.716961
 30
0.0
 11
13.592849
 21
9.987929
 31
0.0
  0
LINE
  5
3C6
  8
0
 10
13.592849
 20
9.987929
 30
0.0
 11
13.592849
 21
11.216961
 31
0.0
  0
LINE
  5
3C7
  8
0
 10
13.592849
 20
11.216961
 30
0.0
 11
13.592849
 21
11.271155
 31
0.0
  0
LINE
  5
3C8
  8
0
 10
13.592849
 20
11.271155
 30
0.0
 11
13.592849
 21
11.516961
 31
0.0
  0
LINE
  5
3C9
  8
0
 10
13.592849
 20
11.516961
 30
0.0
 11
13.592849
 21
11.787929
 31
0.0
  0
LINE
  5
3CA
  8
0
 10
13.592849
 20
11.787929
 30
0.0
 11
13.592849
 21
13.016961
 31
0.0
  0
LINE
  5
3CB
  8
0
 10
13.592849
 20
13.016961
 30
0.0
 11
13.592849
 21
13.071155
 31
0.0
  0
LINE
  5
3CC
  8
0
 10
13.592849
 20
13.071155
 30
0.0
 11
13.592849
 21
13.316961
 31
0.0
  0
LINE
  5
3CD
  8
0
 10
13.592849
 20
13.316961
 30
0.0
 11
13.592849
 21
13.587929
 31
0.0
  0
LINE
  5
3CE
  8
0
 10
13.592849
 20
13.587929
 30
0.0
 11
13.592849
 21
14.581806
 31
0.0
  0
LINE
  5
3CF
  8
0
 10
13.592849
 20
14.581806
 30
0.0
 11
13.592849
 21
14.636
 31
0.0
  0
LINE
  5
3D0
  8
0
 10
14.092849
 20
0.654
 30
0.0
 11
14.092849
 21
0.899806
 31
0.0
  0
LINE
  5
3D1
  8
0
 10
14.092849
 20
0.654
 30
0.0
 11
14.092849
 21
0.899806
 31
0.0
  0
LINE
  5
3D2
  8
0
 10
14.092849
 20
0.899806
 30
0.0
 11
14.092849
 21
1.095445
 31
0.0
  0
LINE
  5
3D3
  8
0
 10
14.092849
 20
1.095445
 30
0.0
 11
14.092849
 21
2.324477
 31
0.0
  0
LINE
  5
3D4
  8
0
 10
14.092849
 20
2.324477
 30
0.0
 11
14.092849
 21
2.378671
 31
0.0
  0
LINE
  5
3D5
  8
0
 10
14.092849
 20
2.378671
 30
0.0
 11
14.092849
 21
2.624477
 31
0.0
  0
LINE
  5
3D6
  8
0
 10
14.092849
 20
2.624477
 30
0.0
 11
14.092849
 21
2.895445
 31
0.0
  0
LINE
  5
3D7
  8
0
 10
14.092849
 20
2.895445
 30
0.0
 11
14.092849
 21
4.124477
 31
0.0
  0
LINE
  5
3D8
  8
0
 10
14.092849
 20
4.124477
 30
0.0
 11
14.092849
 21
4.178671
 31
0.0
  0
LINE
  5
3D9
  8
0
 10
14.092849
 20
4.178671
 30
0.0
 11
14.092849
 21
4.424477
 31
0.0
  0
LINE
  5
3DA
  8
0
 10
14.092849
 20
4.424477
 30
0.0
 11
14.092849
 21
4.695445
 31
0.0
  0
LINE
  5
3DB
  8
0
 10
14.092849
 20
4.695445
 30
0.0
 11
14.092849
 21
5.924477
 31
0.0
  0
LINE
  5
3DC
  8
0
 10
14.092849
 20
5.924477
 30
0.0
 11
14.092849
 21
5.978671
 31
0.0
  0
LINE
  5
3DD
  8
0
 10
14.092849
 20
5.978671
 30
0.0
 11
14.092849
 21
6.224477
 31
0.0
  0
LINE
  5
3DE
  8
0
 10
14.092849
 20
6.224477
 30
0.0
 11
14.092849
 21
6.495445
 31
0.0
  0
LINE
  5
3DF
  8
0
 10
14.092849
 20
6.495445
 30
0.0
 11
14.092849
 21
7.724477
 31
0.0
  0
LINE
  5
3E0
  8
0
 10
14.092849
 20
7.724477
 30
0.0
 11
14.092849
 21
7.778671
 31
0.0
  0
LINE
  5
3E1
  8
0
 10
14.092849
 20
7.778671
 30
0.0
 11
14.092849
 21
8.024477
 31
0.0
  0
LINE
  5
3E2
  8
0
 10
14.092849
 20
8.024477
 30
0.0
 11
14.092849
 21
8.295445
 31
0.0
  0
LINE
  5
3E3
  8
0
 10
14.092849
 20
8.295445
 30
0.0
 11
14.092849
 21
9.524477
 31
0.0
  0
LINE
  5
3E4
  8
0
 10
14.092849
 20
9.524477
 30
0.0
 11
14.092849
 21
9.578671
 31
0.0
  0
LINE
  5
3E5
  8
0
 10
14.092849
 20
9.578671
 30
0.0
 11
14.092849
 21
9.824477
 31
0.0
  0
LINE
  5
3E6
  8
0
 10
14.092849
 20
9.824477
 30
0.0
 11
14.092849
 21
10.095445
 31
0.0
  0
LINE
  5
3E7
  8
0
 10
14.092849
 20
10.095445
 30
0.0
 11
14.092849
 21
11.324477
 31
0.0
  0
LINE
  5
3E8
  8
0
 10
14.092849
 20
11.324477
 30
0.0
 11
14.092849
 21
11.378671
 31
0.0
  0
LINE
  5
3E9
  8
0
 10
14.092849
 20
11.378671
 30
0.0
 11
14.092849
 21
11.624477
 31
0.0
  0
LINE
  5
3EA
  8
0
 10
14.092849
 20
11.624477
 30
0.0
 11
14.092849
 21
11.895445
 31
0.0
  0
LINE
  5
3EB
  8
0
 10
14.092849
 20
11.895445
 30
0.0
 11
14.092849
 21
13.124477
 31
0.0
  0
LINE
  5
3EC
  8
0
 10
14.092849
 20
13.124477
 30
0.0
 11
14.092849
 21
13.178671
 31
0.0
  0
LINE
  5
3ED
  8
0
 10
14.092849
 20
13.178671
 30
0.0
 11
14.092849
 21
13.424477
 31
0.0
  0
LINE
  5
3EE
  8
0
 10
14.092849
 20
13.424477
 30
0.0
 11
14.092849
 21
13.695445
 31
0.0
  0
LINE
  5
3EF
  8
0
 10
14.092849
 20
13.695445
 30
0.0
 11
14.092849
 21
14.582806
 31
0.0
  0
LINE
  5
3F0
  8
0
 10
14.092849
 20
14.582806
 30
0.0
 11
14.092849
 21
14.637
 31
0.0
  0
LINE
  5
3F1
  8
0
 10
14.592849
 20
1.226
 30
0.0
 11
14.592849
 21
1.471806
 31
0.0
  0
LINE
  5
3F2
  8
0
 10
14.592849
 20
1.226
 30
0.0
 11
14.592849
 21
1.471806
 31
0.0
  0
LINE
  5
3F3
  8
0
 10
14.592849
 20
1.471806
 30
0.0
 11
14.592849
 21
1.564297
 31
0.0
  0
LINE
  5
3F4
  8
0
 10
14.592849
 20
1.564297
 30
0.0
 11
14.592849
 21
1.61849
 31
0.0
  0
LINE
  5
3F5
  8
0
 10
14.592849
 20
1.61849
 30
0.0
 11
14.592849
 21
2.848342
 31
0.0
  0
LINE
  5
3F6
  8
0
 10
14.592849
 20
2.848342
 30
0.0
 11
14.592849
 21
3.11931
 31
0.0
  0
LINE
  5
3F7
  8
0
 10
14.592849
 20
3.11931
 30
0.0
 11
14.592849
 21
3.364297
 31
0.0
  0
LINE
  5
3F8
  8
0
 10
14.592849
 20
3.364297
 30
0.0
 11
14.592849
 21
3.41849
 31
0.0
  0
LINE
  5
3F9
  8
0
 10
14.592849
 20
3.41849
 30
0.0
 11
14.592849
 21
4.648342
 31
0.0
  0
LINE
  5
3FA
  8
0
 10
14.592849
 20
4.648342
 30
0.0
 11
14.592849
 21
4.91931
 31
0.0
  0
LINE
  5
3FB
  8
0
 10
14.592849
 20
4.91931
 30
0.0
 11
14.592849
 21
5.164297
 31
0.0
  0
LINE
  5
3FC
  8
0
 10
14.592849
 20
5.164297
 30
0.0
 11
14.592849
 21
5.21849
 31
0.0
  0
LINE
  5
3FD
  8
0
 10
14.592849
 20
5.21849
 30
0.0
 11
14.592849
 21
6.448342
 31
0.0
  0
LINE
  5
3FE
  8
0
 10
14.592849
 20
6.448342
 30
0.0
 11
14.592849
 21
6.71931
 31
0.0
  0
LINE
  5
3FF
  8
0
 10
14.592849
 20
6.71931
 30
0.0
 11
14.592849
 21
6.964297
 31
0.0
  0
LINE
  5
400
  8
0
 10
14.592849
 20
6.964297
 30
0.0
 11
14.592849
 21
7.01849
 31
0.0
  0
LINE
  5
401
  8
0
 10
14.592849
 20
7.01849
 30
0.0
 11
14.592849
 21
8.248342
 31
0.0
  0
LINE
  5
402
  8
0
 10
14.592849
 20
8.248342
 30
0.0
 11
14.592849
 21
8.51931
 31
0.0
  0
LINE
  5
403
  8
0
 10
14.592849
 20
8.51931
 30
0.0
 11
14.592849
 21
8.764297
 31
0.0
  0
LINE
  5
404
  8
0
 10
14.592849
 20
8.764297
 30
0.0
 11
14.592849
 21
8.81849
 31
0.0
  0
LINE
  5
405
  8
0
 10
14.592849
 20
8.81849
 30
0.0
 11
14.592849
 21
10.048342
 31
0.0
  0
LINE
  5
406
  8
0
 10
14.592849
 20
10.048342
 30
0.0
 11
14.592849
 21
10.31931
 31
0.0
  0
LINE
  5
407
  8
0
 10
14.592849
 20
10.31931
 30
0.0
 11
14.592849
 21
10.564297
 31
0.0
  0
LINE
  5
408
  8
0
 10
14.592849
 20
10.564297
 30
0.0
 11
14.592849
 21
10.61849
 31
0.0
  0
LINE
  5
409
  8
0
 10
14.592849
 20
10.61849
 30
0.0
 11
14.592849
 21
11.848342
 31
0.0
  0
LINE
  5
40A
  8
0
 10
14.592849
 20
11.848342
 30
0.0
 11
14.592849
 21
12.11931
 31
0.0
  0
LINE
  5
40B
  8
0
 10
14.592849
 20
12.11931
 30
0.0
 11
14.592849
 21
12.364297
 31
0.0
  0
LINE
  5
40C
  8
0
 10
14.592849
 20
12.364297
 30
0.0
 11
14.592849
 21
12.41849
 31
0.0
  0
LINE
  5
40D
  8
0
 10
14.592849
 20
12.41849
 30
0.0
 11
14.592849
 21
13.648342
 31
0.0
  0
LINE
  5
40E
  8
0
 10
14.592849
 20
13.648342
 30
0.0
 11
14.592849
 21
13.91931
 31
0.0
  0
LINE
  5
40F
  8
0
 10
14.592849
 20
13.91931
 30
0.0
 11
14.592849
 21
14.164297
 31
0.0
  0
LINE
  5
410
  8
0
 10
14.592849
 20
14.164297
 30
0.0
 11
14.592849
 21
14.583806
 31
0.0
  0
LINE
  5
411
  8
0
 10
14.592849
 20
14.583806
 30
0.0
 11
14.592849
 21
14.638
 31
0.0
  0
LINE
  5
412
  8
0
 10
1.234
 20
0.592238
 30
0.0
 11
1.313452
 21
0.592238
 31
0.0
  0
LINE
  5
413
  8
0
 10
1.234
 20
0.592238
 30
0.0
 11
1.313452
 21
0.592238
 31
0.0
  0
LINE
  5
414
  8
0
 10
1.313452
 20
0.592238
 30
0.0
 11
1.367725
 21
0.592238
 31
0.0
  0
LINE
  5
415
  8
0
 10
1.367725
 20
0.592238
 30
0.0
 11
2.596703
 21
0.592238
 31
0.0
  0
LINE
  5
416
  8
0
 10
2.596703
 20
0.592238
 30
0.0
 11
2.867671
 21
0.592238
 31
0.0
  0
LINE
  5
417
  8
0
 10
2.867671
 20
0.592238
 30
0.0
 11
3.113477
 21
0.592238
 31
0.0
  0
LINE
  5
418
  8
0
 10
3.113477
 20
0.592238
 30
0.0
 11
3.167671
 21
0.592238
 31
0.0
  0
LINE
  5
419
  8
0
 10
3.167671
 20
0.592238
 30
0.0
 11
4.396703
 21
0.592238
 31
0.0
  0
LINE
  5
41A
  8
0
 10
4.396703
 20
0.592238
 30
0.0
 11
4.667671
 21
0.592238
 31
0.0
  0
LINE
  5
41B
  8
0
 10
4.667671
 20
0.592238
 30
0.0
 11
4.913477
 21
0.592238
 31
0.0
  0
LINE
  5
41C
  8
0
 10
4.913477
 20
0.592238
 30
0.0
 11
4.967671
 21
0.592238
 31
0.0
  0
LINE
  5
41D
  8
0
 10
4.967671
 20
0.592238
 30
0.0
 11
6.196703
 21
0.592238
 31
0.0
  0
LINE
  5
41E
  8
0
 10
6.196703
 20
0.592238
 30
0.0
 11
6.467671
 21
0.592238
 31
0.0
  0
LINE
  5
41F
  8
0
 10
6.467671
 20
0.592238
 30
0.0
 11
6.713477
 21
0.592238
 31
0.0
  0
LINE
  5
420
  8
0
 10
6.713477
 20
0.592238
 30
0.0
 11
6.767671
 21
0.592238
 31
0.0
  0
LINE
  5
421
  8
0
 10
6.767671
 20
0.592238
 30
0.0
 11
6.819877
 21
0.592238
 31
0.0
  0
LINE
  5
422
  8
0
 10
6.819877
 20
0.592238
 30
0.0
 11
6.87389
 21
0.592238
 31
0.0
  0
LINE
  5
423
  8
0
 10
6.87389
 20
0.592238
 30
0.0
 11
8.102923
 21
0.592238
 31
0.0
  0
LINE
  5
424
  8
0
 10
8.102923
 20
0.592238
 30
0.0
 11
8.374071
 21
0.592238
 31
0.0
  0
LINE
  5
425
  8
0
 10
8.374071
 20
0.592238
 30
0.0
 11
8.619877
 21
0.592238
 31
0.0
  0
LINE
  5
426
  8
0
 10
8.619877
 20
0.592238
 30
0.0
 11
8.67389
 21
0.592238
 31
0.0
  0
LINE
  5
427
  8
0
 10
8.67389
 20
0.592238
 30
0.0
 11
9.902923
 21
0.592238
 31
0.0
  0
LINE
  5
428
  8
0
 10
9.902923
 20
0.592238
 30
0.0
 11
10.174071
 21
0.592238
 31
0.0
  0
LINE
  5
429
  8
0
 10
10.174071
 20
0.592238
 30
0.0
 11
10.419877
 21
0.592238
 31
0.0
  0
LINE
  5
42A
  8
0
 10
10.419877
 20
0.592238
 30
0.0
 11
10.47389
 21
0.592238
 31
0.0
  0
LINE
  5
42B
  8
0
 10
10.47389
 20
0.592238
 30
0.0
 11
11.702923
 21
0.592238
 31
0.0
  0
LINE
  5
42C
  8
0
 10
11.702923
 20
0.592238
 30
0.0
 11
11.974071
 21
0.592238
 31
0.0
  0
LINE
  5
42D
  8
0
 10
11.974071
 20
0.592238
 30
0.0
 11
12.219877
 21
0.592238
 31
0.0
  0
LINE
  5
42E
  8
0
 10
12.219877
 20
0.592238
 30
0.0
 11
12.27389
 21
0.592238
 31
0.0
  0
LINE
  5
42F
  8
0
 10
12.27389
 20
0.592238
 30
0.0
 11
13.502923
 21
0.592238
 31
0.0
  0
LINE
  5
430
  8
0
 10
13.502923
 20
0.592238
 30
0.0
 11
13.685194
 21
0.592238
 31
0.0
  0
LINE
  5
431
  8
0
 10
13.685194
 20
0.592238
 30
0.0
 11
13.931
 21
0.592238
 31
0.0
  0
LINE
  5
432
  8
0
 10
0.651
 20
1.092238
 30
0.0
 11
0.705194
 21
1.092238
 31
0.0
  0
LINE
  5
433
  8
0
 10
0.651
 20
1.092238
 30
0.0
 11
0.705194
 21
1.092238
 31
0.0
  0
LINE
  5
434
  8
0
 10
0.705194
 20
1.092238
 30
0.0
 11
1.513077
 21
1.092238
 31
0.0
  0
LINE
  5
435
  8
0
 10
1.513077
 20
1.092238
 30
0.0
 11
1.784226
 21
1.092238
 31
0.0
  0
LINE
  5
436
  8
0
 10
1.784226
 20
1.092238
 30
0.0
 11
2.030032
 21
1.092238
 31
0.0
  0
LINE
  5
437
  8
0
 10
2.030032
 20
1.092238
 30
0.0
 11
2.084045
 21
1.092238
 31
0.0
  0
LINE
  5
438
  8
0
 10
2.084045
 20
1.092238
 30
0.0
 11
3.313077
 21
1.092238
 31
0.0
  0
LINE
  5
439
  8
0
 10
3.313077
 20
1.092238
 30
0.0
 11
3.584226
 21
1.092238
 31
0.0
  0
LINE
  5
43A
  8
0
 10
3.584226
 20
1.092238
 30
0.0
 11
3.830032
 21
1.092238
 31
0.0
  0
LINE
  5
43B
  8
0
 10
3.830032
 20
1.092238
 30
0.0
 11
3.884045
 21
1.092238
 31
0.0
  0
LINE
  5
43C
  8
0
 10
3.884045
 20
1.092238
 30
0.0
 11
5.113077
 21
1.092238
 31
0.0
  0
LINE
  5
43D
  8
0
 10
5.113077
 20
1.092238
 30
0.0
 11
5.384226
 21
1.092238
 31
0.0
  0
LINE
  5
43E
  8
0
 10
5.384226
 20
1.092238
 30
0.0
 11
5.630032
 21
1.092238
 31
0.0
  0
LINE
  5
43F
  8
0
 10
5.630032
 20
1.092238
 30
0.0
 11
5.684045
 21
1.092238
 31
0.0
  0
LINE
  5
440
  8
0
 10
5.684045
 20
1.092238
 30
0.0
 11
6.913077
 21
1.092238
 31
0.0
  0
LINE
  5
441
  8
0
 10
6.913077
 20
1.092238
 30
0.0
 11
7.184226
 21
1.092238
 31
0.0
  0
LINE
  5
442
  8
0
 10
7.184226
 20
1.092238
 30
0.0
 11
7.430032
 21
1.092238
 31
0.0
  0
LINE
  5
443
  8
0
 10
7.430032
 20
1.092238
 30
0.0
 11
7.484045
 21
1.092238
 31
0.0
  0
LINE
  5
444
  8
0
 10
7.484045
 20
1.092238
 30
0.0
 11
8.713077
 21
1.092238
 31
0.0
  0
LINE
  5
445
  8
0
 10
8.713077
 20
1.092238
 30
0.0
 11
8.984226
 21
1.092238
 31
0.0
  0
LINE
  5
446
  8
0
 10
8.984226
 20
1.092238
 30
0.0
 11
9.230032
 21
1.092238
 31
0.0
  0
LINE
  5
447
  8
0
 10
9.230032
 20
1.092238
 30
0.0
 11
9.284045
 21
1.092238
 31
0.0
  0
LINE
  5
448
  8
0
 10
9.284045
 20
1.092238
 30
0.0
 11
10.513077
 21
1.092238
 31
0.0
  0
LINE
  5
449
  8
0
 10
10.513077
 20
1.092238
 30
0.0
 11
10.784226
 21
1.092238
 31
0.0
  0
LINE
  5
44A
  8
0
 10
10.784226
 20
1.092238
 30
0.0
 11
11.030032
 21
1.092238
 31
0.0
  0
LINE
  5
44B
  8
0
 10
11.030032
 20
1.092238
 30
0.0
 11
11.084045
 21
1.092238
 31
0.0
  0
LINE
  5
44C
  8
0
 10
11.084045
 20
1.092238
 30
0.0
 11
12.313077
 21
1.092238
 31
0.0
  0
LINE
  5
44D
  8
0
 10
12.313077
 20
1.092238
 30
0.0
 11
12.584226
 21
1.092238
 31
0.0
  0
LINE
  5
44E
  8
0
 10
12.584226
 20
1.092238
 30
0.0
 11
12.830032
 21
1.092238
 31
0.0
  0
LINE
  5
44F
  8
0
 10
12.830032
 20
1.092238
 30
0.0
 11
12.884045
 21
1.092238
 31
0.0
  0
LINE
  5
450
  8
0
 10
12.884045
 20
1.092238
 30
0.0
 11
14.113077
 21
1.092238
 31
0.0
  0
LINE
  5
451
  8
0
 10
14.113077
 20
1.092238
 30
0.0
 11
14.291194
 21
1.092238
 31
0.0
  0
LINE
  5
452
  8
0
 10
14.291194
 20
1.092238
 30
0.0
 11
14.537
 21
1.092238
 31
0.0
  0
LINE
  5
453
  8
0
 10
0.519
 20
1.592238
 30
0.0
 11
0.573194
 21
1.592238
 31
0.0
  0
LINE
  5
454
  8
0
 10
0.519
 20
1.592238
 30
0.0
 11
0.573194
 21
1.592238
 31
0.0
  0
LINE
  5
455
  8
0
 10
0.573194
 20
1.592238
 30
0.0
 11
1.59329
 21
1.592238
 31
0.0
  0
LINE
  5
456
  8
0
 10
1.59329
 20
1.592238
 30
0.0
 11
1.864258
 21
1.592238
 31
0.0
  0
LINE
  5
457
  8
0
 10
1.864258
 20
1.592238
 30
0.0
 11
2.110065
 21
1.592238
 31
0.0
  0
LINE
  5
458
  8
0
 10
2.110065
 20
1.592238
 30
0.0
 11
2.164258
 21
1.592238
 31
0.0
  0
LINE
  5
459
  8
0
 10
2.164258
 20
1.592238
 30
0.0
 11
3.39329
 21
1.592238
 31
0.0
  0
LINE
  5
45A
  8
0
 10
3.39329
 20
1.592238
 30
0.0
 11
3.664258
 21
1.592238
 31
0.0
  0
LINE
  5
45B
  8
0
 10
3.664258
 20
1.592238
 30
0.0
 11
3.910065
 21
1.592238
 31
0.0
  0
LINE
  5
45C
  8
0
 10
3.910065
 20
1.592238
 30
0.0
 11
3.964258
 21
1.592238
 31
0.0
  0
LINE
  5
45D
  8
0
 10
3.964258
 20
1.592238
 30
0.0
 11
5.19329
 21
1.592238
 31
0.0
  0
LINE
  5
45E
  8
0
 10
5.19329
 20
1.592238
 30
0.0
 11
5.464258
 21
1.592238
 31
0.0
  0
LINE
  5
45F
  8
0
 10
5.464258
 20
1.592238
 30
0.0
 11
5.710065
 21
1.592238
 31
0.0
  0
LINE
  5
460
  8
0
 10
5.710065
 20
1.592238
 30
0.0
 11
5.764258
 21
1.592238
 31
0.0
  0
LINE
  5
461
  8
0
 10
5.764258
 20
1.592238
 30
0.0
 11
6.99329
 21
1.592238
 31
0.0
  0
LINE
  5
462
  8
0
 10
6.99329
 20
1.592238
 30
0.0
 11
7.264258
 21
1.592238
 31
0.0
  0
LINE
  5
463
  8
0
 10
7.264258
 20
1.592238
 30
0.0
 11
7.510065
 21
1.592238
 31
0.0
  0
LINE
  5
464
  8
0
 10
7.510065
 20
1.592238
 30
0.0
 11
7.564258
 21
1.592238
 31
0.0
  0
LINE
  5
465
  8
0
 10
7.564258
 20
1.592238
 30
0.0
 11
8.79329
 21
1.592238
 31
0.0
  0
LINE
  5
466
  8
0
 10
8.79329
 20
1.592238
 30
0.0
 11
9.064258
 21
1.592238
 31
0.0
  0
LINE
  5
467
  8
0
 10
9.064258
 20
1.592238
 30
0.0
 11
9.310065
 21
1.592238
 31
0.0
  0
LINE
  5
468
  8
0
 10
9.310065
 20
1.592238
 30
0.0
 11
9.364258
 21
1.592238
 31
0.0
  0
LINE
  5
469
  8
0
 10
9.364258
 20
1.592238
 30
0.0
 11
10.59329
 21
1.592238
 31
0.0
  0
LINE
  5
46A
  8
0
 10
10.59329
 20
1.592238
 30
0.0
 11
10.864258
 21
1.592238
 31
0.0
  0
LINE
  5
46B
  8
0
 10
10.864258
 20
1.592238
 30
0.0
 11
11.110065
 21
1.592238
 31
0.0
  0
LINE
  5
46C
  8
0
 10
11.110065
 20
1.592238
 30
0.0
 11
11.164258
 21
1.592238
 31
0.0
  0
LINE
  5
46D
  8
0
 10
11.164258
 20
1.592238
 30
0.0
 11
12.39329
 21
1.592238
 31
0.0
  0
LINE
  5
46E
  8
0
 10
12.39329
 20
1.592238
 30
0.0
 11
12.664258
 21
1.592238
 31
0.0
  0
LINE
  5
46F
  8
0
 10
12.664258
 20
1.592238
 30
0.0
 11
12.910065
 21
1.592238
 31
0.0
  0
LINE
  5
470
  8
0
 10
12.910065
 20
1.592238
 30
0.0
 11
12.964258
 21
1.592238
 31
0.0
  0
LINE
  5
471
  8
0
 10
12.964258
 20
1.592238
 30
0.0
 11
14.19329
 21
1.592238
 31
0.0
  0
LINE
  5
472
  8
0
 10
14.19329
 20
1.592238
 30
0.0
 11
14.418194
 21
1.592238
 31
0.0
  0
LINE
  5
473
  8
0
 10
14.418194
 20
1.592238
 30
0.0
 11
14.664
 21
1.592238
 31
0.0
  0
LINE
  5
474
  8
0
 10
0.456
 20
2.092238
 30
0.0
 11
0.510194
 21
2.092238
 31
0.0
  0
LINE
  5
475
  8
0
 10
0.456
 20
2.092238
 30
0.0
 11
0.510194
 21
2.092238
 31
0.0
  0
LINE
  5
476
  8
0
 10
0.510194
 20
2.092238
 30
0.0
 11
1.634348
 21
2.092238
 31
0.0
  0
LINE
  5
477
  8
0
 10
1.634348
 20
2.092238
 30
0.0
 11
1.905316
 21
2.092238
 31
0.0
  0
LINE
  5
478
  8
0
 10
1.905316
 20
2.092238
 30
0.0
 11
2.151123
 21
2.092238
 31
0.0
  0
LINE
  5
479
  8
0
 10
2.151123
 20
2.092238
 30
0.0
 11
2.205316
 21
2.092238
 31
0.0
  0
LINE
  5
47A
  8
0
 10
2.205316
 20
2.092238
 30
0.0
 11
3.434348
 21
2.092238
 31
0.0
  0
LINE
  5
47B
  8
0
 10
3.434348
 20
2.092238
 30
0.0
 11
3.705316
 21
2.092238
 31
0.0
  0
LINE
  5
47C
  8
0
 10
3.705316
 20
2.092238
 30
0.0
 11
3.951123
 21
2.092238
 31
0.0
  0
LINE
  5
47D
  8
0
 10
3.951123
 20
2.092238
 30
0.0
 11
4.005316
 21
2.092238
 31
0.0
  0
LINE
  5
47E
  8
0
 10
4.005316
 20
2.092238
 30
0.0
 11
5.234348
 21
2.092238
 31
0.0
  0
LINE
  5
47F
  8
0
 10
5.234348
 20
2.092238
 30
0.0
 11
5.505316
 21
2.092238
 31
0.0
  0
LINE
  5
480
  8
0
 10
5.505316
 20
2.092238
 30
0.0
 11
5.751123
 21
2.092238
 31
0.0
  0
LINE
  5
481
  8
0
 10
5.751123
 20
2.092238
 30
0.0
 11
5.805316
 21
2.092238
 31
0.0
  0
LINE
  5
482
  8
0
 10
5.805316
 20
2.092238
 30
0.0
 11
7.034348
 21
2.092238
 31
0.0
  0
LINE
  5
483
  8
0
 10
7.034348
 20
2.092238
 30
0.0
 11
7.305316
 21
2.092238
 31
0.0
  0
LINE
  5
484
  8
0
 10
7.305316
 20
2.092238
 30
0.0
 11
7.551123
 21
2.092238
 31
0.0
  0
LINE
  5
485
  8
0
 10
7.551123
 20
2.092238
 30
0.0
 11
7.605316
 21
2.092238
 31
0.0
  0
LINE
  5
486
  8
0
 10
7.605316
 20
2.092238
 30
0.0
 11
8.834348
 21
2.092238
 31
0.0
  0
LINE
  5
487
  8
0
 10
8.834348
 20
2.092238
 30
0.0
 11
9.105316
 21
2.092238
 31
0.0
  0
LINE
  5
488
  8
0
 10
9.105316
 20
2.092238
 30
0.0
 11
9.351123
 21
2.092238
 31
0.0
  0
LINE
  5
489
  8
0
 10
9.351123
 20
2.092238
 30
0.0
 11
9.405316
 21
2.092238
 31
0.0
  0
LINE
  5
48A
  8
0
 10
9.405316
 20
2.092238
 30
0.0
 11
10.634348
 21
2.092238
 31
0.0
  0
LINE
  5
48B
  8
0
 10
10.634348
 20
2.092238
 30
0.0
 11
10.905316
 21
2.092238
 31
0.0
  0
LINE
  5
48C
  8
0
 10
10.905316
 20
2.092238
 30
0.0
 11
11.151123
 21
2.092238
 31
0.0
  0
LINE
  5
48D
  8
0
 10
11.151123
 20
2.092238
 30
0.0
 11
11.205316
 21
2.092238
 31
0.0
  0
LINE
  5
48E
  8
0
 10
11.205316
 20
2.092238
 30
0.0
 11
12.434348
 21
2.092238
 31
0.0
  0
LINE
  5
48F
  8
0
 10
12.434348
 20
2.092238
 30
0.0
 11
12.705316
 21
2.092238
 31
0.0
  0
LINE
  5
490
  8
0
 10
12.705316
 20
2.092238
 30
0.0
 11
12.951123
 21
2.092238
 31
0.0
  0
LINE
  5
491
  8
0
 10
12.951123
 20
2.092238
 30
0.0
 11
13.005316
 21
2.092238
 31
0.0
  0
LINE
  5
492
  8
0
 10
13.005316
 20
2.092238
 30
0.0
 11
14.234348
 21
2.092238
 31
0.0
  0
LINE
  5
493
  8
0
 10
14.234348
 20
2.092238
 30
0.0
 11
14.482194
 21
2.092238
 31
0.0
  0
LINE
  5
494
  8
0
 10
14.482194
 20
2.092238
 30
0.0
 11
14.728
 21
2.092238
 31
0.0
  0
LINE
  5
495
  8
0
 10
0.45
 20
2.592238
 30
0.0
 11
0.504194
 21
2.592238
 31
0.0
  0
LINE
  5
496
  8
0
 10
0.45
 20
2.592238
 30
0.0
 11
0.504194
 21
2.592238
 31
0.0
  0
LINE
  5
497
  8
0
 10
0.504194
 20
2.592238
 30
0.0
 11
1.642277
 21
2.592238
 31
0.0
  0
LINE
  5
498
  8
0
 10
1.642277
 20
2.592238
 30
0.0
 11
1.913426
 21
2.592238
 31
0.0
  0
LINE
  5
499
  8
0
 10
1.913426
 20
2.592238
 30
0.0
 11
2.159232
 21
2.592238
 31
0.0
  0
LINE
  5
49A
  8
0
 10
2.159232
 20
2.592238
 30
0.0
 11
2.213245
 21
2.592238
 31
0.0
  0
LINE
  5
49B
  8
0
 10
2.213245
 20
2.592238
 30
0.0
 11
3.442277
 21
2.592238
 31
0.0
  0
LINE
  5
49C
  8
0
 10
3.442277
 20
2.592238
 30
0.0
 11
3.713426
 21
2.592238
 31
0.0
  0
LINE
  5
49D
  8
0
 10
3.713426
 20
2.592238
 30
0.0
 11
3.959232
 21
2.592238
 31
0.0
  0
LINE
  5
49E
  8
0
 10
3.959232
 20
2.592238
 30
0.0
 11
4.013245
 21
2.592238
 31
0.0
  0
LINE
  5
49F
  8
0
 10
4.013245
 20
2.592238
 30
0.0
 11
5.242277
 21
2.592238
 31
0.0
  0
LINE
  5
4A0
  8
0
 10
5.242277
 20
2.592238
 30
0.0
 11
5.513426
 21
2.592238
 31
0.0
  0
LINE
  5
4A1
  8
0
 10
5.513426
 20
2.592238
 30
0.0
 11
5.759232
 21
2.592238
 31
0.0
  0
LINE
  5
4A2
  8
0
 10
5.759232
 20
2.592238
 30
0.0
 11
5.813245
 21
2.592238
 31
0.0
  0
LINE
  5
4A3
  8
0
 10
5.813245
 20
2.592238
 30
0.0
 11
7.042277
 21
2.592238
 31
0.0
  0
LINE
  5
4A4
  8
0
 10
7.042277
 20
2.592238
 30
0.0
 11
7.313426
 21
2.592238
 31
0.0
  0
LINE
  5
4A5
  8
0
 10
7.313426
 20
2.592238
 30
0.0
 11
7.559232
 21
2.592238
 31
0.0
  0
LINE
  5
4A6
  8
0
 10
7.559232
 20
2.592238
 30
0.0
 11
7.613245
 21
2.592238
 31
0.0
  0
LINE
  5
4A7
  8
0
 10
7.613245
 20
2.592238
 30
0.0
 11
8.842277
 21
2.592238
 31
0.0
  0
LINE
  5
4A8
  8
0
 10
8.842277
 20
2.592238
 30
0.0
 11
9.113426
 21
2.592238
 31
0.0
  0
LINE
  5
4A9
  8
0
 10
9.113426
 20
2.592238
 30
0.0
 11
9.359232
 21
2.592238
 31
0.0
  0
LINE
  5
4AA
  8
0
 10
9.359232
 20
2.592238
 30
0.0
 11
9.413245
 21
2.592238
 31
0.0
  0
LINE
  5
4AB
  8
0
 10
9.413245
 20
2.592238
 30
0.0
 11
10.642277
 21
2.592238
 31
0.0
  0
LINE
  5
4AC
  8
0
 10
10.642277
 20
2.592238
 30
0.0
 11
10.913426
 21
2.592238
 31
0.0
  0
LINE
  5
4AD
  8
0
 10
10.913426
 20
2.592238
 30
0.0
 11
11.159232
 21
2.592238
 31
0.0
  0
LINE
  5
4AE
  8
0
 10
11.159232
 20
2.592238
 30
0.0
 11
11.213245
 21
2.592238
 31
0.0
  0
LINE
  5
4AF
  8
0
 10
11.213245
 20
2.592238
 30
0.0
 11
12.442277
 21
2.592238
 31
0.0
  0
LINE
  5
4B0
  8
0
 10
12.442277
 20
2.592238
 30
0.0
 11
12.713426
 21
2.592238
 31
0.0
  0
LINE
  5
4B1
  8
0
 10
12.713426
 20
2.592238
 30
0.0
 11
12.959232
 21
2.592238
 31
0.0
  0
LINE
  5
4B2
  8
0
 10
12.959232
 20
2.592238
 30
0.0
 11
13.013245
 21
2.592238
 31
0.0
  0
LINE
  5
4B3
  8
0
 10
13.013245
 20
2.592238
 30
0.0
 11
14.242277
 21
2.592238
 31
0.0
  0
LINE
  5
4B4
  8
0
 10
14.242277
 20
2.592238
 30
0.0
 11
14.493194
 21
2.592238
 31
0.0
  0
LINE
  5
4B5
  8
0
 10
14.493194
 20
2.592238
 30
0.0
 11
14.739
 21
2.592238
 31
0.0
  0
LINE
  5
4B6
  8
0
 10
0.463
 20
3.092238
 30
0.0
 11
0.517194
 21
3.092238
 31
0.0
  0
LINE
  5
4B7
  8
0
 10
0.463
 20
3.092238
 30
0.0
 11
0.517194
 21
3.092238
 31
0.0
  0
LINE
  5
4B8
  8
0
 10
0.517194
 20
3.092238
 30
0.0
 11
1.630697
 21
3.092238
 31
0.0
  0
LINE
  5
4B9
  8
0
 10
1.630697
 20
3.092238
 30
0.0
 11
1.901665
 21
3.092238
 31
0.0
  0
LINE
  5
4BA
  8
0
 10
1.901665
 20
3.092238
 30
0.0
 11
2.147471
 21
3.092238
 31
0.0
  0
LINE
  5
4BB
  8
0
 10
2.147471
 20
3.092238
 30
0.0
 11
2.201665
 21
3.092238
 31
0.0
  0
LINE
  5
4BC
  8
0
 10
2.201665
 20
3.092238
 30
0.0
 11
3.430697
 21
3.092238
 31
0.0
  0
LINE
  5
4BD
  8
0
 10
3.430697
 20
3.092238
 30
0.0
 11
3.701665
 21
3.092238
 31
0.0
  0
LINE
  5
4BE
  8
0
 10
3.701665
 20
3.092238
 30
0.0
 11
3.947471
 21
3.092238
 31
0.0
  0
LINE
  5
4BF
  8
0
 10
3.947471
 20
3.092238
 30
0.0
 11
4.001665
 21
3.092238
 31
0.0
  0
LINE
  5
4C0
  8
0
 10
4.001665
 20
3.092238
 30
0.0
 11
5.230697
 21
3.092238
 31
0.0
  0
LINE
  5
4C1
  8
0
 10
5.230697
 20
3.092238
 30
0.0
 11
5.501665
 21
3.092238
 31
0.0
  0
LINE
  5
4C2
  8
0
 10
5.501665
 20
3.092238
 30
0.0
 11
5.747471
 21
3.092238
 31
0.0
  0
LINE
  5
4C3
  8
0
 10
5.747471
 20
3.092238
 30
0.0
 11
5.801665
 21
3.092238
 31
0.0
  0
LINE
  5
4C4
  8
0
 10
5.801665
 20
3.092238
 30
0.0
 11
7.030697
 21
3.092238
 31
0.0
  0
LINE
  5
4C5
  8
0
 10
7.030697
 20
3.092238
 30
0.0
 11
7.301665
 21
3.092238
 31
0.0
  0
LINE
  5
4C6
  8
0
 10
7.301665
 20
3.092238
 30
0.0
 11
7.547471
 21
3.092238
 31
0.0
  0
LINE
  5
4C7
  8
0
 10
7.547471
 20
3.092238
 30
0.0
 11
7.601665
 21
3.092238
 31
0.0
  0
LINE
  5
4C8
  8
0
 10
7.601665
 20
3.092238
 30
0.0
 11
8.830697
 21
3.092238
 31
0.0
  0
LINE
  5
4C9
  8
0
 10
8.830697
 20
3.092238
 30
0.0
 11
9.101665
 21
3.092238
 31
0.0
  0
LINE
  5
4CA
  8
0
 10
9.101665
 20
3.092238
 30
0.0
 11
9.347471
 21
3.092238
 31
0.0
  0
LINE
  5
4CB
  8
0
 10
9.347471
 20
3.092238
 30
0.0
 11
9.401665
 21
3.092238
 31
0.0
  0
LINE
  5
4CC
  8
0
 10
9.401665
 20
3.092238
 30
0.0
 11
10.630697
 21
3.092238
 31
0.0
  0
LINE
  5
4CD
  8
0
 10
10.630697
 20
3.092238
 30
0.0
 11
10.901665
 21
3.092238
 31
0.0
  0
LINE
  5
4CE
  8
0
 10
10.901665
 20
3.092238
 30
0.0
 11
11.147471
 21
3.092238
 31
0.0
  0
LINE
  5
4CF
  8
0
 10
11.147471
 20
3.092238
 30
0.0
 11
11.201665
 21
3.092238
 31
0.0
  0
LINE
  5
4D0
  8
0
 10
11.201665
 20
3.092238
 30
0.0
 11
12.430697
 21
3.092238
 31
0.0
  0
LINE
  5
4D1
  8
0
 10
12.430697
 20
3.092238
 30
0.0
 11
12.701665
 21
3.092238
 31
0.0
  0
LINE
  5
4D2
  8
0
 10
12.701665
 20
3.092238
 30
0.0
 11
12.947471
 21
3.092238
 31
0.0
  0
LINE
  5
4D3
  8
0
 10
12.947471
 20
3.092238
 30
0.0
 11
13.001665
 21
3.092238
 31
0.0
  0
LINE
  5
4D4
  8
0
 10
13.001665
 20
3.092238
 30
0.0
 11
14.230697
 21
3.092238
 31
0.0
  0
LINE
  5
4D5
  8
0
 10
14.230697
 20
3.092238
 30
0.0
 11
14.476194
 21
3.092238
 31
0.0
  0
LINE
  5
4D6
  8
0
 10
14.476194
 20
3.092238
 30
0.0
 11
14.722
 21
3.092238
 31
0.0
  0
LINE
  5
4D7
  8
0
 10
0.476
 20
3.592238
 30
0.0
 11
0.530194
 21
3.592238
 31
0.0
  0
LINE
  5
4D8
  8
0
 10
0.476
 20
3.592238
 30
0.0
 11
0.530194
 21
3.592238
 31
0.0
  0
LINE
  5
4D9
  8
0
 10
0.530194
 20
3.592238
 30
0.0
 11
1.618297
 21
3.592238
 31
0.0
  0
LINE
  5
4DA
  8
0
 10
1.618297
 20
3.592238
 30
0.0
 11
1.889265
 21
3.592238
 31
0.0
  0
LINE
  5
4DB
  8
0
 10
1.889265
 20
3.592238
 30
0.0
 11
2.135071
 21
3.592238
 31
0.0
  0
LINE
  5
4DC
  8
0
 10
2.135071
 20
3.592238
 30
0.0
 11
2.189265
 21
3.592238
 31
0.0
  0
LINE
  5
4DD
  8
0
 10
2.189265
 20
3.592238
 30
0.0
 11
3.418297
 21
3.592238
 31
0.0
  0
LINE
  5
4DE
  8
0
 10
3.418297
 20
3.592238
 30
0.0
 11
3.689265
 21
3.592238
 31
0.0
  0
LINE
  5
4DF
  8
0
 10
3.689265
 20
3.592238
 30
0.0
 11
3.935071
 21
3.592238
 31
0.0
  0
LINE
  5
4E0
  8
0
 10
3.935071
 20
3.592238
 30
0.0
 11
3.989265
 21
3.592238
 31
0.0
  0
LINE
  5
4E1
  8
0
 10
3.989265
 20
3.592238
 30
0.0
 11
5.218297
 21
3.592238
 31
0.0
  0
LINE
  5
4E2
  8
0
 10
5.218297
 20
3.592238
 30
0.0
 11
5.489265
 21
3.592238
 31
0.0
  0
LINE
  5
4E3
  8
0
 10
5.489265
 20
3.592238
 30
0.0
 11
5.735071
 21
3.592238
 31
0.0
  0
LINE
  5
4E4
  8
0
 10
5.735071
 20
3.592238
 30
0.0
 11
5.789265
 21
3.592238
 31
0.0
  0
LINE
  5
4E5
  8
0
 10
5.789265
 20
3.592238
 30
0.0
 11
7.018297
 21
3.592238
 31
0.0
  0
LINE
  5
4E6
  8
0
 10
7.018297
 20
3.592238
 30
0.0
 11
7.289265
 21
3.592238
 31
0.0
  0
LINE
  5
4E7
  8
0
 10
7.289265
 20
3.592238
 30
0.0
 11
7.535071
 21
3.592238
 31
0.0
  0
LINE
  5
4E8
  8
0
 10
7.535071
 20
3.592238
 30
0.0
 11
7.589265
 21
3.592238
 31
0.0
  0
LINE
  5
4E9
  8
0
 10
7.589265
 20
3.592238
 30
0.0
 11
8.818297
 21
3.592238
 31
0.0
  0
LINE
  5
4EA
  8
0
 10
8.818297
 20
3.592238
 30
0.0
 11
9.089265
 21
3.592238
 31
0.0
  0
LINE
  5
4EB
  8
0
 10
9.089265
 20
3.592238
 30
0.0
 11
9.335071
 21
3.592238
 31
0.0
  0
LINE
  5
4EC
  8
0
 10
9.335071
 20
3.592238
 30
0.0
 11
9.389265
 21
3.592238
 31
0.0
  0
LINE
  5
4ED
  8
0
 10
9.389265
 20
3.592238
 30
0.0
 11
10.618297
 21
3.592238
 31
0.0
  0
LINE
  5
4EE
  8
0
 10
10.618297
 20
3.592238
 30
0.0
 11
10.889265
 21
3.592238
 31
0.0
  0
LINE
  5
4EF
  8
0
 10
10.889265
 20
3.592238
 30
0.0
 11
11.135071
 21
3.592238
 31
0.0
  0
LINE
  5
4F0
  8
0
 10
11.135071
 20
3.592238
 30
0.0
 11
11.189265
 21
3.592238
 31
0.0
  0
LINE
  5
4F1
  8
0
 10
11.189265
 20
3.592238
 30
0.0
 11
12.418297
 21
3.592238
 31
0.0
  0
LINE
  5
4F2
  8
0
 10
12.418297
 20
3.592238
 30
0.0
 11
12.689265
 21
3.592238
 31
0.0
  0
LINE
  5
4F3
  8
0
 10
12.689265
 20
3.592238
 30
0.0
 11
12.935071
 21
3.592238
 31
0.0
  0
LINE
  5
4F4
  8
0
 10
12.935071
 20
3.592238
 30
0.0
 11
12.989265
 21
3.592238
 31
0.0
  0
LINE
  5
4F5
  8
0
 10
12.989265
 20
3.592238
 30
0.0
 11
14.218297
 21
3.592238
 31
0.0
  0
LINE
  5
4F6
  8
0
 10
14.218297
 20
3.592238
 30
0.0
 11
14.458194
 21
3.592238
 31
0.0
  0
LINE
  5
4F7
  8
0
 10
14.458194
 20
3.592238
 30
0.0
 11
14.704
 21
3.592238
 31
0.0
  0
LINE
  5
4F8
  8
0
 10
0.488
 20
4.092238
 30
0.0
 11
0.542194
 21
4.092238
 31
0.0
  0
LINE
  5
4F9
  8
0
 10
0.488
 20
4.092238
 30
0.0
 11
0.542194
 21
4.092238
 31
0.0
  0
LINE
  5
4FA
  8
0
 10
0.542194
 20
4.092238
 30
0.0
 11
1.606535
 21
4.092238
 31
0.0
  0
LINE
  5
4FB
  8
0
 10
1.606535
 20
4.092238
 30
0.0
 11
1.877503
 21
4.092238
 31
0.0
  0
LINE
  5
4FC
  8
0
 10
1.877503
 20
4.092238
 30
0.0
 11
2.12249
 21
4.092238
 31
0.0
  0
LINE
  5
4FD
  8
0
 10
2.12249
 20
4.092238
 30
0.0
 11
2.176684
 21
4.092238
 31
0.0
  0
LINE
  5
4FE
  8
0
 10
2.176684
 20
4.092238
 30
0.0
 11
3.406535
 21
4.092238
 31
0.0
  0
LINE
  5
4FF
  8
0
 10
3.406535
 20
4.092238
 30
0.0
 11
3.677503
 21
4.092238
 31
0.0
  0
LINE
  5
500
  8
0
 10
3.677503
 20
4.092238
 30
0.0
 11
3.92249
 21
4.092238
 31
0.0
  0
LINE
  5
501
  8
0
 10
3.92249
 20
4.092238
 30
0.0
 11
3.976684
 21
4.092238
 31
0.0
  0
LINE
  5
502
  8
0
 10
3.976684
 20
4.092238
 30
0.0
 11
5.206535
 21
4.092238
 31
0.0
  0
LINE
  5
503
  8
0
 10
5.206535
 20
4.092238
 30
0.0
 11
5.477503
 21
4.092238
 31
0.0
  0
LINE
  5
504
  8
0
 10
5.477503
 20
4.092238
 30
0.0
 11
5.72249
 21
4.092238
 31
0.0
  0
LINE
  5
505
  8
0
 10
5.72249
 20
4.092238
 30
0.0
 11
5.776684
 21
4.092238
 31
0.0
  0
LINE
  5
506
  8
0
 10
5.776684
 20
4.092238
 30
0.0
 11
7.006535
 21
4.092238
 31
0.0
  0
LINE
  5
507
  8
0
 10
7.006535
 20
4.092238
 30
0.0
 11
7.277503
 21
4.092238
 31
0.0
  0
LINE
  5
508
  8
0
 10
7.277503
 20
4.092238
 30
0.0
 11
7.52249
 21
4.092238
 31
0.0
  0
LINE
  5
509
  8
0
 10
7.52249
 20
4.092238
 30
0.0
 11
7.576684
 21
4.092238
 31
0.0
  0
LINE
  5
50A
  8
0
 10
7.576684
 20
4.092238
 30
0.0
 11
8.806535
 21
4.092238
 31
0.0
  0
LINE
  5
50B
  8
0
 10
8.806535
 20
4.092238
 30
0.0
 11
9.077503
 21
4.092238
 31
0.0
  0
LINE
  5
50C
  8
0
 10
9.077503
 20
4.092238
 30
0.0
 11
9.32249
 21
4.092238
 31
0.0
  0
LINE
  5
50D
  8
0
 10
9.32249
 20
4.092238
 30
0.0
 11
9.376684
 21
4.092238
 31
0.0
  0
LINE
  5
50E
  8
0
 10
9.376684
 20
4.092238
 30
0.0
 11
10.606535
 21
4.092238
 31
0.0
  0
LINE
  5
50F
  8
0
 10
10.606535
 20
4.092238
 30
0.0
 11
10.877503
 21
4.092238
 31
0.0
  0
LINE
  5
510
  8
0
 10
10.877503
 20
4.092238
 30
0.0
 11
11.12249
 21
4.092238
 31
0.0
  0
LINE
  5
511
  8
0
 10
11.12249
 20
4.092238
 30
0.0
 11
11.176684
 21
4.092238
 31
0.0
  0
LINE
  5
512
  8
0
 10
11.176684
 20
4.092238
 30
0.0
 11
12.406535
 21
4.092238
 31
0.0
  0
LINE
  5
513
  8
0
 10
12.406535
 20
4.092238
 30
0.0
 11
12.677503
 21
4.092238
 31
0.0
  0
LINE
  5
514
  8
0
 10
12.677503
 20
4.092238
 30
0.0
 11
12.92249
 21
4.092238
 31
0.0
  0
LINE
  5
515
  8
0
 10
12.92249
 20
4.092238
 30
0.0
 11
12.976684
 21
4.092238
 31
0.0
  0
LINE
  5
516
  8
0
 10
12.976684
 20
4.092238
 30
0.0
 11
14.206535
 21
4.092238
 31
0.0
  0
LINE
  5
517
  8
0
 10
14.206535
 20
4.092238
 30
0.0
 11
14.441194
 21
4.092238
 31
0.0
  0
LINE
  5
518
  8
0
 10
14.441194
 20
4.092238
 30
0.0
 11
14.687
 21
4.092238
 31
0.0
  0
LINE
  5
519
  8
0
 10
0.501
 20
4.592238
 30
0.0
 11
0.555194
 21
4.592238
 31
0.0
  0
LINE
  5
51A
  8
0
 10
0.501
 20
4.592238
 30
0.0
 11
0.555194
 21
4.592238
 31
0.0
  0
LINE
  5
51B
  8
0
 10
0.555194
 20
4.592238
 30
0.0
 11
1.594135
 21
4.592238
 31
0.0
  0
LINE
  5
51C
  8
0
 10
1.594135
 20
4.592238
 30
0.0
 11
1.865103
 21
4.592238
 31
0.0
  0
LINE
  5
51D
  8
0
 10
1.865103
 20
4.592238
 30
0.0
 11
2.11091
 21
4.592238
 31
0.0
  0
LINE
  5
51E
  8
0
 10
2.11091
 20
4.592238
 30
0.0
 11
2.165103
 21
4.592238
 31
0.0
  0
LINE
  5
51F
  8
0
 10
2.165103
 20
4.592238
 30
0.0
 11
3.394135
 21
4.592238
 31
0.0
  0
LINE
  5
520
  8
0
 10
3.394135
 20
4.592238
 30
0.0
 11
3.665103
 21
4.592238
 31
0.0
  0
LINE
  5
521
  8
0
 10
3.665103
 20
4.592238
 30
0.0
 11
3.91091
 21
4.592238
 31
0.0
  0
LINE
  5
522
  8
0
 10
3.91091
 20
4.592238
 30
0.0
 11
3.965103
 21
4.592238
 31
0.0
  0
LINE
  5
523
  8
0
 10
3.965103
 20
4.592238
 30
0.0
 11
5.194135
 21
4.592238
 31
0.0
  0
LINE
  5
524
  8
0
 10
5.194135
 20
4.592238
 30
0.0
 11
5.465103
 21
4.592238
 31
0.0
  0
LINE
  5
525
  8
0
 10
5.465103
 20
4.592238
 30
0.0
 11
5.71091
 21
4.592238
 31
0.0
  0
LINE
  5
526
  8
0
 10
5.71091
 20
4.592238
 30
0.0
 11
5.765103
 21
4.592238
 31
0.0
  0
LINE
  5
527
  8
0
 10
5.765103
 20
4.592238
 30
0.0
 11
6.994135
 21
4.592238
 31
0.0
  0
LINE
  5
528
  8
0
 10
6.994135
 20
4.592238
 30
0.0
 11
7.265103
 21
4.592238
 31
0.0
  0
LINE
  5
529
  8
0
 10
7.265103
 20
4.592238
 30
0.0
 11
7.51091
 21
4.592238
 31
0.0
  0
LINE
  5
52A
  8
0
 10
7.51091
 20
4.592238
 30
0.0
 11
7.565103
 21
4.592238
 31
0.0
  0
LINE
  5
52B
  8
0
 10
7.565103
 20
4.592238
 30
0.0
 11
8.794135
 21
4.592238
 31
0.0
  0
LINE
  5
52C
  8
0
 10
8.794135
 20
4.592238
 30
0.0
 11
9.065103
 21
4.592238
 31
0.0
  0
LINE
  5
52D
  8
0
 10
9.065103
 20
4.592238
 30
0.0
 11
9.31091
 21
4.592238
 31
0.0
  0
LINE
  5
52E
  8
0
 10
9.31091
 20
4.592238
 30
0.0
 11
9.365103
 21
4.592238
 31
0.0
  0
LINE
  5
52F
  8
0
 10
9.365103
 20
4.592238
 30
0.0
 11
10.594135
 21
4.592238
 31
0.0
  0
LINE
  5
530
  8
0
 10
10.594135
 20
4.592238
 30
0.0
 11
10.865103
 21
4.592238
 31
0.0
  0
LINE
  5
531
  8
0
 10
10.865103
 20
4.592238
 30
0.0
 11
11.11091
 21
4.592238
 31
0.0
  0
LINE
  5
532
  8
0
 10
11.11091
 20
4.592238
 30
0.0
 11
11.165103
 21
4.592238
 31
0.0
  0
LINE
  5
533
  8
0
 10
11.165103
 20
4.592238
 30
0.0
 11
12.394135
 21
4.592238
 31
0.0
  0
LINE
  5
534
  8
0
 10
12.394135
 20
4.592238
 30
0.0
 11
12.665103
 21
4.592238
 31
0.0
  0
LINE
  5
535
  8
0
 10
12.665103
 20
4.592238
 30
0.0
 11
12.91091
 21
4.592238
 31
0.0
  0
LINE
  5
536
  8
0
 10
12.91091
 20
4.592238
 30
0.0
 11
12.965103
 21
4.592238
 31
0.0
  0
LINE
  5
537
  8
0
 10
12.965103
 20
4.592238
 30
0.0
 11
14.194135
 21
4.592238
 31
0.0
  0
LINE
  5
538
  8
0
 10
14.194135
 20
4.592238
 30
0.0
 11
14.423194
 21
4.592238
 31
0.0
  0
LINE
  5
539
  8
0
 10
14.423194
 20
4.592238
 30
0.0
 11
14.669
 21
4.592238
 31
0.0
  0
LINE
  5
53A
  8
0
 10
0.513
 20
5.092238
 30
0.0
 11
0.567194
 21
5.092238
 31
0.0
  0
LINE
  5
53B
  8
0
 10
0.513
 20
5.092238
 30
0.0
 11
0.567194
 21
5.092238
 31
0.0
  0
LINE
  5
53C
  8
0
 10
0.567194
 20
5.092238
 30
0.0
 11
1.581555
 21
5.092238
 31
0.0
  0
LINE
  5
53D
  8
0
 10
1.581555
 20
5.092238
 30
0.0
 11
1.852703
 21
5.092238
 31
0.0
  0
LINE
  5
53E
  8
0
 10
1.852703
 20
5.092238
 30
0.0
 11
2.09851
 21
5.092238
 31
0.0
  0
LINE
  5
53F
  8
0
 10
2.09851
 20
5.092238
 30
0.0
 11
2.152523
 21
5.092238
 31
0.0
  0
LINE
  5
540
  8
0
 10
2.152523
 20
5.092238
 30
0.0
 11
3.381555
 21
5.092238
 31
0.0
  0
LINE
  5
541
  8
0
 10
3.381555
 20
5.092238
 30
0.0
 11
3.652703
 21
5.092238
 31
0.0
  0
LINE
  5
542
  8
0
 10
3.652703
 20
5.092238
 30
0.0
 11
3.89851
 21
5.092238
 31
0.0
  0
LINE
  5
543
  8
0
 10
3.89851
 20
5.092238
 30
0.0
 11
3.952523
 21
5.092238
 31
0.0
  0
LINE
  5
544
  8
0
 10
3.952523
 20
5.092238
 30
0.0
 11
5.181555
 21
5.092238
 31
0.0
  0
LINE
  5
545
  8
0
 10
5.181555
 20
5.092238
 30
0.0
 11
5.452703
 21
5.092238
 31
0.0
  0
LINE
  5
546
  8
0
 10
5.452703
 20
5.092238
 30
0.0
 11
5.69851
 21
5.092238
 31
0.0
  0
LINE
  5
547
  8
0
 10
5.69851
 20
5.092238
 30
0.0
 11
5.752523
 21
5.092238
 31
0.0
  0
LINE
  5
548
  8
0
 10
5.752523
 20
5.092238
 30
0.0
 11
6.981555
 21
5.092238
 31
0.0
  0
LINE
  5
549
  8
0
 10
6.981555
 20
5.092238
 30
0.0
 11
7.252703
 21
5.092238
 31
0.0
  0
LINE
  5
54A
  8
0
 10
7.252703
 20
5.092238
 30
0.0
 11
7.49851
 21
5.092238
 31
0.0
  0
LINE
  5
54B
  8
0
 10
7.49851
 20
5.092238
 30
0.0
 11
7.552523
 21
5.092238
 31
0.0
  0
LINE
  5
54C
  8
0
 10
7.552523
 20
5.092238
 30
0.0
 11
8.781555
 21
5.092238
 31
0.0
  0
LINE
  5
54D
  8
0
 10
8.781555
 20
5.092238
 30
0.0
 11
9.052703
 21
5.092238
 31
0.0
  0
LINE
  5
54E
  8
0
 10
9.052703
 20
5.092238
 30
0.0
 11
9.29851
 21
5.092238
 31
0.0
  0
LINE
  5
54F
  8
0
 10
9.29851
 20
5.092238
 30
0.0
 11
9.352523
 21
5.092238
 31
0.0
  0
LINE
  5
550
  8
0
 10
9.352523
 20
5.092238
 30
0.0
 11
10.581555
 21
5.092238
 31
0.0
  0
LINE
  5
551
  8
0
 10
10.581555
 20
5.092238
 30
0.0
 11
10.852703
 21
5.092238
 31
0.0
  0
LINE
  5
552
  8
0
 10
10.852703
 20
5.092238
 30
0.0
 11
11.09851
 21
5.092238
 31
0.0
  0
LINE
  5
553
  8
0
 10
11.09851
 20
5.092238
 30
0.0
 11
11.152523
 21
5.092238
 31
0.0
  0
LINE
  5
554
  8
0
 10
11.152523
 20
5.092238
 30
0.0
 11
12.381555
 21
5.092238
 31
0.0
  0
LINE
  5
555
  8
0
 10
12.381555
 20
5.092238
 30
0.0
 11
12.652703
 21
5.092238
 31
0.0
  0
LINE
  5
556
  8
0
 10
12.652703
 20
5.092238
 30
0.0
 11
12.89851
 21
5.092238
 31
0.0
  0
LINE
  5
557
  8
0
 10
12.89851
 20
5.092238
 30
0.0
 11
12.952523
 21
5.092238
 31
0.0
  0
LINE
  5
558
  8
0
 10
12.952523
 20
5.092238
 30
0.0
 11
14.181555
 21
5.092238
 31
0.0
  0
LINE
  5
559
  8
0
 10
14.181555
 20
5.092238
 30
0.0
 11
14.405194
 21
5.092238
 31
0.0
  0
LINE
  5
55A
  8
0
 10
14.405194
 20
5.092238
 30
0.0
 11
14.651
 21
5.092238
 31
0.0
  0
LINE
  5
55B
  8
0
 10
0.526
 20
5.592238
 30
0.0
 11
0.580194
 21
5.592238
 31
0.0
  0
LINE
  5
55C
  8
0
 10
0.526
 20
5.592238
 30
0.0
 11
0.580194
 21
5.592238
 31
0.0
  0
LINE
  5
55D
  8
0
 10
0.580194
 20
5.592238
 30
0.0
 11
1.569974
 21
5.592238
 31
0.0
  0
LINE
  5
55E
  8
0
 10
1.569974
 20
5.592238
 30
0.0
 11
1.840942
 21
5.592238
 31
0.0
  0
LINE
  5
55F
  8
0
 10
1.840942
 20
5.592238
 30
0.0
 11
2.086748
 21
5.592238
 31
0.0
  0
LINE
  5
560
  8
0
 10
2.086748
 20
5.592238
 30
0.0
 11
2.140942
 21
5.592238
 31
0.0
  0
LINE
  5
561
  8
0
 10
2.140942
 20
5.592238
 30
0.0
 11
3.369974
 21
5.592238
 31
0.0
  0
LINE
  5
562
  8
0
 10
3.369974
 20
5.592238
 30
0.0
 11
3.640942
 21
5.592238
 31
0.0
  0
LINE
  5
563
  8
0
 10
3.640942
 20
5.592238
 30
0.0
 11
3.886748
 21
5.592238
 31
0.0
  0
LINE
  5
564
  8
0
 10
3.886748
 20
5.592238
 30
0.0
 11
3.940942
 21
5.592238
 31
0.0
  0
LINE
  5
565
  8
0
 10
3.940942
 20
5.592238
 30
0.0
 11
5.169974
 21
5.592238
 31
0.0
  0
LINE
  5
566
  8
0
 10
5.169974
 20
5.592238
 30
0.0
 11
5.440942
 21
5.592238
 31
0.0
  0
LINE
  5
567
  8
0
 10
5.440942
 20
5.592238
 30
0.0
 11
5.686748
 21
5.592238
 31
0.0
  0
LINE
  5
568
  8
0
 10
5.686748
 20
5.592238
 30
0.0
 11
5.740942
 21
5.592238
 31
0.0
  0
LINE
  5
569
  8
0
 10
5.740942
 20
5.592238
 30
0.0
 11
6.969974
 21
5.592238
 31
0.0
  0
LINE
  5
56A
  8
0
 10
6.969974
 20
5.592238
 30
0.0
 11
7.240942
 21
5.592238
 31
0.0
  0
LINE
  5
56B
  8
0
 10
7.240942
 20
5.592238
 30
0.0
 11
7.486748
 21
5.592238
 31
0.0
  0
LINE
  5
56C
  8
0
 10
7.486748
 20
5.592238
 30
0.0
 11
7.540942
 21
5.592238
 31
0.0
  0
LINE
  5
56D
  8
0
 10
7.540942
 20
5.592238
 30
0.0
 11
8.769974
 21
5.592238
 31
0.0
  0
LINE
  5
56E
  8
0
 10
8.769974
 20
5.592238
 30
0.0
 11
9.040942
 21
5.592238
 31
0.0
  0
LINE
  5
56F
  8
0
 10
9.040942
 20
5.592238
 30
0.0
 11
9.286748
 21
5.592238
 31
0.0
  0
LINE
  5
570
  8
0
 10
9.286748
 20
5.592238
 30
0.0
 11
9.340942
 21
5.592238
 31
0.0
  0
LINE
  5
571
  8
0
 10
9.340942
 20
5.592238
 30
0.0
 11
10.569974
 21
5.592238
 31
0.0
  0
LINE
  5
572
  8
0
 10
10.569974
 20
5.592238
 30
0.0
 11
10.840942
 21
5.592238
 31
0.0
  0
LINE
  5
573
  8
0
 10
10.840942
 20
5.592238
 30
0.0
 11
11.086748
 21
5.592238
 31
0.0
  0
LINE
  5
574
  8
0
 10
11.086748
 20
5.592238
 30
0.0
 11
11.140942
 21
5.592238
 31
0.0
  0
LINE
  5
575
  8
0
 10
11.140942
 20
5.592238
 30
0.0
 11
12.369974
 21
5.592238
 31
0.0
  0
LINE
  5
576
  8
0
 10
12.369974
 20
5.592238
 30
0.0
 11
12.640942
 21
5.592238
 31
0.0
  0
LINE
  5
577
  8
0
 10
12.640942
 20
5.592238
 30
0.0
 11
12.886748
 21
5.592238
 31
0.0
  0
LINE
  5
578
  8
0
 10
12.886748
 20
5.592238
 30
0.0
 11
12.940942
 21
5.592238
 31
0.0
  0
LINE
  5
579
  8
0
 10
12.940942
 20
5.592238
 30
0.0
 11
14.169974
 21
5.592238
 31
0.0
  0
LINE
  5
57A
  8
0
 10
14.169974
 20
5.592238
 30
0.0
 11
14.388194
 21
5.592238
 31
0.0
  0
LINE
  5
57B
  8
0
 10
14.388194
 20
5.592238
 30
0.0
 11
14.634
 21
5.592238
 31
0.0
  0
LINE
  5
57C
  8
0
 10
0.539
 20
6.092238
 30
0.0
 11
0.593194
 21
6.092238
 31
0.0
  0
LINE
  5
57D
  8
0
 10
0.539
 20
6.092238
 30
0.0
 11
0.593194
 21
6.092238
 31
0.0
  0
LINE
  5
57E
  8
0
 10
0.593194
 20
6.092238
 30
0.0
 11
1.565768
 21
6.092238
 31
0.0
  0
LINE
  5
57F
  8
0
 10
1.565768
 20
6.092238
 30
0.0
 11
1.836735
 21
6.092238
 31
0.0
  0
LINE
  5
580
  8
0
 10
1.836735
 20
6.092238
 30
0.0
 11
2.082542
 21
6.092238
 31
0.0
  0
LINE
  5
581
  8
0
 10
2.082542
 20
6.092238
 30
0.0
 11
2.136735
 21
6.092238
 31
0.0
  0
LINE
  5
582
  8
0
 10
2.136735
 20
6.092238
 30
0.0
 11
3.365768
 21
6.092238
 31
0.0
  0
LINE
  5
583
  8
0
 10
3.365768
 20
6.092238
 30
0.0
 11
3.636735
 21
6.092238
 31
0.0
  0
LINE
  5
584
  8
0
 10
3.636735
 20
6.092238
 30
0.0
 11
3.882542
 21
6.092238
 31
0.0
  0
LINE
  5
585
  8
0
 10
3.882542
 20
6.092238
 30
0.0
 11
3.936735
 21
6.092238
 31
0.0
  0
LINE
  5
586
  8
0
 10
3.936735
 20
6.092238
 30
0.0
 11
5.165768
 21
6.092238
 31
0.0
  0
LINE
  5
587
  8
0
 10
5.165768
 20
6.092238
 30
0.0
 11
5.436735
 21
6.092238
 31
0.0
  0
LINE
  5
588
  8
0
 10
5.436735
 20
6.092238
 30
0.0
 11
5.682542
 21
6.092238
 31
0.0
  0
LINE
  5
589
  8
0
 10
5.682542
 20
6.092238
 30
0.0
 11
5.736735
 21
6.092238
 31
0.0
  0
LINE
  5
58A
  8
0
 10
5.736735
 20
6.092238
 30
0.0
 11
6.965768
 21
6.092238
 31
0.0
  0
LINE
  5
58B
  8
0
 10
6.965768
 20
6.092238
 30
0.0
 11
7.236735
 21
6.092238
 31
0.0
  0
LINE
  5
58C
  8
0
 10
7.236735
 20
6.092238
 30
0.0
 11
7.482542
 21
6.092238
 31
0.0
  0
LINE
  5
58D
  8
0
 10
7.482542
 20
6.092238
 30
0.0
 11
7.536735
 21
6.092238
 31
0.0
  0
LINE
  5
58E
  8
0
 10
7.536735
 20
6.092238
 30
0.0
 11
8.765768
 21
6.092238
 31
0.0
  0
LINE
  5
58F
  8
0
 10
8.765768
 20
6.092238
 30
0.0
 11
9.036735
 21
6.092238
 31
0.0
  0
LINE
  5
590
  8
0
 10
9.036735
 20
6.092238
 30
0.0
 11
9.282542
 21
6.092238
 31
0.0
  0
LINE
  5
591
  8
0
 10
9.282542
 20
6.092238
 30
0.0
 11
9.336735
 21
6.092238
 31
0.0
  0
LINE
  5
592
  8
0
 10
9.336735
 20
6.092238
 30
0.0
 11
10.565768
 21
6.092238
 31
0.0
  0
LINE
  5
593
  8
0
 10
10.565768
 20
6.092238
 30
0.0
 11
10.836735
 21
6.092238
 31
0.0
  0
LINE
  5
594
  8
0
 10
10.836735
 20
6.092238
 30
0.0
 11
11.082542
 21
6.092238
 31
0.0
  0
LINE
  5
595
  8
0
 10
11.082542
 20
6.092238
 30
0.0
 11
11.136735
 21
6.092238
 31
0.0
  0
LINE
  5
596
  8
0
 10
11.136735
 20
6.092238
 30
0.0
 11
12.365768
 21
6.092238
 31
0.0
  0
LINE
  5
597
  8
0
 10
12.365768
 20
6.092238
 30
0.0
 11
12.636735
 21
6.092238
 31
0.0
  0
LINE
  5
598
  8
0
 10
12.636735
 20
6.092238
 30
0.0
 11
12.882542
 21
6.092238
 31
0.0
  0
LINE
  5
599
  8
0
 10
12.882542
 20
6.092238
 30
0.0
 11
12.936735
 21
6.092238
 31
0.0
  0
LINE
  5
59A
  8
0
 10
12.936735
 20
6.092238
 30
0.0
 11
14.165768
 21
6.092238
 31
0.0
  0
LINE
  5
59B
  8
0
 10
14.165768
 20
6.092238
 30
0.0
 11
14.380194
 21
6.092238
 31
0.0
  0
LINE
  5
59C
  8
0
 10
14.380194
 20
6.092238
 30
0.0
 11
14.626
 21
6.092238
 31
0.0
  0
LINE
  5
59D
  8
0
 10
0.551
 20
6.592238
 30
0.0
 11
0.605194
 21
6.592238
 31
0.0
  0
LINE
  5
59E
  8
0
 10
0.551
 20
6.592238
 30
0.0
 11
0.605194
 21
6.592238
 31
0.0
  0
LINE
  5
59F
  8
0
 10
0.605194
 20
6.592238
 30
0.0
 11
1.567935
 21
6.592238
 31
0.0
  0
LINE
  5
5A0
  8
0
 10
1.567935
 20
6.592238
 30
0.0
 11
1.838903
 21
6.592238
 31
0.0
  0
LINE
  5
5A1
  8
0
 10
1.838903
 20
6.592238
 30
0.0
 11
2.08471
 21
6.592238
 31
0.0
  0
LINE
  5
5A2
  8
0
 10
2.08471
 20
6.592238
 30
0.0
 11
2.138903
 21
6.592238
 31
0.0
  0
LINE
  5
5A3
  8
0
 10
2.138903
 20
6.592238
 30
0.0
 11
3.367935
 21
6.592238
 31
0.0
  0
LINE
  5
5A4
  8
0
 10
3.367935
 20
6.592238
 30
0.0
 11
3.638903
 21
6.592238
 31
0.0
  0
LINE
  5
5A5
  8
0
 10
3.638903
 20
6.592238
 30
0.0
 11
3.88471
 21
6.592238
 31
0.0
  0
LINE
  5
5A6
  8
0
 10
3.88471
 20
6.592238
 30
0.0
 11
3.938903
 21
6.592238
 31
0.0
  0
LINE
  5
5A7
  8
0
 10
3.938903
 20
6.592238
 30
0.0
 11
5.167935
 21
6.592238
 31
0.0
  0
LINE
  5
5A8
  8
0
 10
5.167935
 20
6.592238
 30
0.0
 11
5.438903
 21
6.592238
 31
0.0
  0
LINE
  5
5A9
  8
0
 10
5.438903
 20
6.592238
 30
0.0
 11
5.68471
 21
6.592238
 31
0.0
  0
LINE
  5
5AA
  8
0
 10
5.68471
 20
6.592238
 30
0.0
 11
5.738903
 21
6.592238
 31
0.0
  0
LINE
  5
5AB
  8
0
 10
5.738903
 20
6.592238
 30
0.0
 11
6.967935
 21
6.592238
 31
0.0
  0
LINE
  5
5AC
  8
0
 10
6.967935
 20
6.592238
 30
0.0
 11
7.238903
 21
6.592238
 31
0.0
  0
LINE
  5
5AD
  8
0
 10
7.238903
 20
6.592238
 30
0.0
 11
7.48471
 21
6.592238
 31
0.0
  0
LINE
  5
5AE
  8
0
 10
7.48471
 20
6.592238
 30
0.0
 11
7.538903
 21
6.592238
 31
0.0
  0
LINE
  5
5AF
  8
0
 10
7.538903
 20
6.592238
 30
0.0
 11
8.767935
 21
6.592238
 31
0.0
  0
LINE
  5
5B0
  8
0
 10
8.767935
 20
6.592238
 30
0.0
 11
9.038903
 21
6.592238
 31
0.0
  0
LINE
  5
5B1
  8
0
 10
9.038903
 20
6.592238
 30
0.0
 11
9.28471
 21
6.592238
 31
0.0
  0
LINE
  5
5B2
  8
0
 10
9.28471
 20
6.592238
 30
0.0
 11
9.338903
 21
6.592238
 31
0.0
  0
LINE
  5
5B3
  8
0
 10
9.338903
 20
6.592238
 30
0.0
 11
10.567935
 21
6.592238
 31
0.0
  0
LINE
  5
5B4
  8
0
 10
10.567935
 20
6.592238
 30
0.0
 11
10.838903
 21
6.592238
 31
0.0
  0
LINE
  5
5B5
  8
0
 10
10.838903
 20
6.592238
 30
0.0
 11
11.08471
 21
6.592238
 31
0.0
  0
LINE
  5
5B6
  8
0
 10
11.08471
 20
6.592238
 30
0.0
 11
11.138903
 21
6.592238
 31
0.0
  0
LINE
  5
5B7
  8
0
 10
11.138903
 20
6.592238
 30
0.0
 11
12.367935
 21
6.592238
 31
0.0
  0
LINE
  5
5B8
  8
0
 10
12.367935
 20
6.592238
 30
0.0
 11
12.638903
 21
6.592238
 31
0.0
  0
LINE
  5
5B9
  8
0
 10
12.638903
 20
6.592238
 30
0.0
 11
12.88471
 21
6.592238
 31
0.0
  0
LINE
  5
5BA
  8
0
 10
12.88471
 20
6.592238
 30
0.0
 11
12.938903
 21
6.592238
 31
0.0
  0
LINE
  5
5BB
  8
0
 10
12.938903
 20
6.592238
 30
0.0
 11
14.167935
 21
6.592238
 31
0.0
  0
LINE
  5
5BC
  8
0
 10
14.167935
 20
6.592238
 30
0.0
 11
14.380194
 21
6.592238
 31
0.0
  0
LINE
  5
5BD
  8
0
 10
14.380194
 20
6.592238
 30
0.0
 11
14.626
 21
6.592238
 31
0.0
  0
LINE
  5
5BE
  8
0
 10
0.564
 20
7.092238
 30
0.0
 11
0.618194
 21
7.092238
 31
0.0
  0
LINE
  5
5BF
  8
0
 10
0.564
 20
7.092238
 30
0.0
 11
0.618194
 21
7.092238
 31
0.0
  0
LINE
  5
5C0
  8
0
 10
0.618194
 20
7.092238
 30
0.0
 11
1.570284
 21
7.092238
 31
0.0
  0
LINE
  5
5C1
  8
0
 10
1.570284
 20
7.092238
 30
0.0
 11
1.841252
 21
7.092238
 31
0.0
  0
LINE
  5
5C2
  8
0
 10
1.841252
 20
7.092238
 30
0.0
 11
2.087058
 21
7.092238
 31
0.0
  0
LINE
  5
5C3
  8
0
 10
2.087058
 20
7.092238
 30
0.0
 11
2.141252
 21
7.092238
 31
0.0
  0
LINE
  5
5C4
  8
0
 10
2.141252
 20
7.092238
 30
0.0
 11
3.370284
 21
7.092238
 31
0.0
  0
LINE
  5
5C5
  8
0
 10
3.370284
 20
7.092238
 30
0.0
 11
3.641252
 21
7.092238
 31
0.0
  0
LINE
  5
5C6
  8
0
 10
3.641252
 20
7.092238
 30
0.0
 11
3.887058
 21
7.092238
 31
0.0
  0
LINE
  5
5C7
  8
0
 10
3.887058
 20
7.092238
 30
0.0
 11
3.941252
 21
7.092238
 31
0.0
  0
LINE
  5
5C8
  8
0
 10
3.941252
 20
7.092238
 30
0.0
 11
5.170284
 21
7.092238
 31
0.0
  0
LINE
  5
5C9
  8
0
 10
5.170284
 20
7.092238
 30
0.0
 11
5.441252
 21
7.092238
 31
0.0
  0
LINE
  5
5CA
  8
0
 10
5.441252
 20
7.092238
 30
0.0
 11
5.687058
 21
7.092238
 31
0.0
  0
LINE
  5
5CB
  8
0
 10
5.687058
 20
7.092238
 30
0.0
 11
5.741252
 21
7.092238
 31
0.0
  0
LINE
  5
5CC
  8
0
 10
5.741252
 20
7.092238
 30
0.0
 11
6.970284
 21
7.092238
 31
0.0
  0
LINE
  5
5CD
  8
0
 10
6.970284
 20
7.092238
 30
0.0
 11
7.241252
 21
7.092238
 31
0.0
  0
LINE
  5
5CE
  8
0
 10
7.241252
 20
7.092238
 30
0.0
 11
7.487058
 21
7.092238
 31
0.0
  0
LINE
  5
5CF
  8
0
 10
7.487058
 20
7.092238
 30
0.0
 11
7.541252
 21
7.092238
 31
0.0
  0
LINE
  5
5D0
  8
0
 10
7.541252
 20
7.092238
 30
0.0
 11
8.770284
 21
7.092238
 31
0.0
  0
LINE
  5
5D1
  8
0
 10
8.770284
 20
7.092238
 30
0.0
 11
9.041252
 21
7.092238
 31
0.0
  0
LINE
  5
5D2
  8
0
 10
9.041252
 20
7.092238
 30
0.0
 11
9.287058
 21
7.092238
 31
0.0
  0
LINE
  5
5D3
  8
0
 10
9.287058
 20
7.092238
 30
0.0
 11
9.341252
 21
7.092238
 31
0.0
  0
LINE
  5
5D4
  8
0
 10
9.341252
 20
7.092238
 30
0.0
 11
10.570284
 21
7.092238
 31
0.0
  0
LINE
  5
5D5
  8
0
 10
10.570284
 20
7.092238
 30
0.0
 11
10.841252
 21
7.092238
 31
0.0
  0
LINE
  5
5D6
  8
0
 10
10.841252
 20
7.092238
 30
0.0
 11
11.087058
 21
7.092238
 31
0.0
  0
LINE
  5
5D7
  8
0
 10
11.087058
 20
7.092238
 30
0.0
 11
11.141252
 21
7.092238
 31
0.0
  0
LINE
  5
5D8
  8
0
 10
11.141252
 20
7.092238
 30
0.0
 11
12.370284
 21
7.092238
 31
0.0
  0
LINE
  5
5D9
  8
0
 10
12.370284
 20
7.092238
 30
0.0
 11
12.641252
 21
7.092238
 31
0.0
  0
LINE
  5
5DA
  8
0
 10
12.641252
 20
7.092238
 30
0.0
 11
12.887058
 21
7.092238
 31
0.0
  0
LINE
  5
5DB
  8
0
 10
12.887058
 20
7.092238
 30
0.0
 11
12.941252
 21
7.092238
 31
0.0
  0
LINE
  5
5DC
  8
0
 10
12.941252
 20
7.092238
 30
0.0
 11
14.170284
 21
7.092238
 31
0.0
  0
LINE
  5
5DD
  8
0
 10
14.170284
 20
7.092238
 30
0.0
 11
14.380194
 21
7.092238
 31
0.0
  0
LINE
  5
5DE
  8
0
 10
14.380194
 20
7.092238
 30
0.0
 11
14.626
 21
7.092238
 31
0.0
  0
LINE
  5
5DF
  8
0
 10
0.576
 20
7.592238
 30
0.0
 11
0.630194
 21
7.592238
 31
0.0
  0
LINE
  5
5E0
  8
0
 10
0.576
 20
7.592238
 30
0.0
 11
0.630194
 21
7.592238
 31
0.0
  0
LINE
  5
5E1
  8
0
 10
0.630194
 20
7.592238
 30
0.0
 11
1.572452
 21
7.592238
 31
0.0
  0
LINE
  5
5E2
  8
0
 10
1.572452
 20
7.592238
 30
0.0
 11
1.8436
 21
7.592238
 31
0.0
  0
LINE
  5
5E3
  8
0
 10
1.8436
 20
7.592238
 30
0.0
 11
2.089406
 21
7.592238
 31
0.0
  0
LINE
  5
5E4
  8
0
 10
2.089406
 20
7.592238
 30
0.0
 11
2.143419
 21
7.592238
 31
0.0
  0
LINE
  5
5E5
  8
0
 10
2.143419
 20
7.592238
 30
0.0
 11
3.372452
 21
7.592238
 31
0.0
  0
LINE
  5
5E6
  8
0
 10
3.372452
 20
7.592238
 30
0.0
 11
3.6436
 21
7.592238
 31
0.0
  0
LINE
  5
5E7
  8
0
 10
3.6436
 20
7.592238
 30
0.0
 11
3.889406
 21
7.592238
 31
0.0
  0
LINE
  5
5E8
  8
0
 10
3.889406
 20
7.592238
 30
0.0
 11
3.943419
 21
7.592238
 31
0.0
  0
LINE
  5
5E9
  8
0
 10
3.943419
 20
7.592238
 30
0.0
 11
5.172452
 21
7.592238
 31
0.0
  0
LINE
  5
5EA
  8
0
 10
5.172452
 20
7.592238
 30
0.0
 11
5.4436
 21
7.592238
 31
0.0
  0
LINE
  5
5EB
  8
0
 10
5.4436
 20
7.592238
 30
0.0
 11
5.689406
 21
7.592238
 31
0.0
  0
LINE
  5
5EC
  8
0
 10
5.689406
 20
7.592238
 30
0.0
 11
5.743419
 21
7.592238
 31
0.0
  0
LINE
  5
5ED
  8
0
 10
5.743419
 20
7.592238
 30
0.0
 11
6.972452
 21
7.592238
 31
0.0
  0
LINE
  5
5EE
  8
0
 10
6.972452
 20
7.592238
 30
0.0
 11
7.2436
 21
7.592238
 31
0.0
  0
LINE
  5
5EF
  8
0
 10
7.2436
 20
7.592238
 30
0.0
 11
7.489406
 21
7.592238
 31
0.0
  0
LINE
  5
5F0
  8
0
 10
7.489406
 20
7.592238
 30
0.0
 11
7.543419
 21
7.592238
 31
0.0
  0
LINE
  5
5F1
  8
0
 10
7.543419
 20
7.592238
 30
0.0
 11
8.772452
 21
7.592238
 31
0.0
  0
LINE
  5
5F2
  8
0
 10
8.772452
 20
7.592238
 30
0.0
 11
9.0436
 21
7.592238
 31
0.0
  0
LINE
  5
5F3
  8
0
 10
9.0436
 20
7.592238
 30
0.0
 11
9.289406
 21
7.592238
 31
0.0
  0
LINE
  5
5F4
  8
0
 10
9.289406
 20
7.592238
 30
0.0
 11
9.343419
 21
7.592238
 31
0.0
  0
LINE
  5
5F5
  8
0
 10
9.343419
 20
7.592238
 30
0.0
 11
10.572452
 21
7.592238
 31
0.0
  0
LINE
  5
5F6
  8
0
 10
10.572452
 20
7.592238
 30
0.0
 11
10.8436
 21
7.592238
 31
0.0
  0
LINE
  5
5F7
  8
0
 10
10.8436
 20
7.592238
 30
0.0
 11
11.089406
 21
7.592238
 31
0.0
  0
LINE
  5
5F8
  8
0
 10
11.089406
 20
7.592238
 30
0.0
 11
11.143419
 21
7.592238
 31
0.0
  0
LINE
  5
5F9
  8
0
 10
11.143419
 20
7.592238
 30
0.0
 11
12.372452
 21
7.592238
 31
0.0
  0
LINE
  5
5FA
  8
0
 10
12.372452
 20
7.592238
 30
0.0
 11
12.6436
 21
7.592238
 31
0.0
  0
LINE
  5
5FB
  8
0
 10
12.6436
 20
7.592238
 30
0.0
 11
12.889406
 21
7.592238
 31
0.0
  0
LINE
  5
5FC
  8
0
 10
12.889406
 20
7.592238
 30
0.0
 11
12.943419
 21
7.592238
 31
0.0
  0
LINE
  5
5FD
  8
0
 10
12.943419
 20
7.592238
 30
0.0
 11
14.172452
 21
7.592238
 31
0.0
  0
LINE
  5
5FE
  8
0
 10
14.172452
 20
7.592238
 30
0.0
 11
14.380194
 21
7.592238
 31
0.0
  0
LINE
  5
5FF
  8
0
 10
14.380194
 20
7.592238
 30
0.0
 11
14.626
 21
7.592238
 31
0.0
  0
LINE
  5
600
  8
0
 10
0.575
 20
8.092238
 30
0.0
 11
0.629194
 21
8.092238
 31
0.0
  0
LINE
  5
601
  8
0
 10
0.575
 20
8.092238
 30
0.0
 11
0.629194
 21
8.092238
 31
0.0
  0
LINE
  5
602
  8
0
 10
0.629194
 20
8.092238
 30
0.0
 11
1.572271
 21
8.092238
 31
0.0
  0
LINE
  5
603
  8
0
 10
1.572271
 20
8.092238
 30
0.0
 11
1.843419
 21
8.092238
 31
0.0
  0
LINE
  5
604
  8
0
 10
1.843419
 20
8.092238
 30
0.0
 11
2.089226
 21
8.092238
 31
0.0
  0
LINE
  5
605
  8
0
 10
2.089226
 20
8.092238
 30
0.0
 11
2.143239
 21
8.092238
 31
0.0
  0
LINE
  5
606
  8
0
 10
2.143239
 20
8.092238
 30
0.0
 11
3.372271
 21
8.092238
 31
0.0
  0
LINE
  5
607
  8
0
 10
3.372271
 20
8.092238
 30
0.0
 11
3.643419
 21
8.092238
 31
0.0
  0
LINE
  5
608
  8
0
 10
3.643419
 20
8.092238
 30
0.0
 11
3.889226
 21
8.092238
 31
0.0
  0
LINE
  5
609
  8
0
 10
3.889226
 20
8.092238
 30
0.0
 11
3.943239
 21
8.092238
 31
0.0
  0
LINE
  5
60A
  8
0
 10
3.943239
 20
8.092238
 30
0.0
 11
5.172271
 21
8.092238
 31
0.0
  0
LINE
  5
60B
  8
0
 10
5.172271
 20
8.092238
 30
0.0
 11
5.443419
 21
8.092238
 31
0.0
  0
LINE
  5
60C
  8
0
 10
5.443419
 20
8.092238
 30
0.0
 11
5.689226
 21
8.092238
 31
0.0
  0
LINE
  5
60D
  8
0
 10
5.689226
 20
8.092238
 30
0.0
 11
5.743239
 21
8.092238
 31
0.0
  0
LINE
  5
60E
  8
0
 10
5.743239
 20
8.092238
 30
0.0
 11
6.972271
 21
8.092238
 31
0.0
  0
LINE
  5
60F
  8
0
 10
6.972271
 20
8.092238
 30
0.0
 11
7.243419
 21
8.092238
 31
0.0
  0
LINE
  5
610
  8
0
 10
7.243419
 20
8.092238
 30
0.0
 11
7.489226
 21
8.092238
 31
0.0
  0
LINE
  5
611
  8
0
 10
7.489226
 20
8.092238
 30
0.0
 11
7.543239
 21
8.092238
 31
0.0
  0
LINE
  5
612
  8
0
 10
7.543239
 20
8.092238
 30
0.0
 11
8.772271
 21
8.092238
 31
0.0
  0
LINE
  5
613
  8
0
 10
8.772271
 20
8.092238
 30
0.0
 11
9.043419
 21
8.092238
 31
0.0
  0
LINE
  5
614
  8
0
 10
9.043419
 20
8.092238
 30
0.0
 11
9.289226
 21
8.092238
 31
0.0
  0
LINE
  5
615
  8
0
 10
9.289226
 20
8.092238
 30
0.0
 11
9.343239
 21
8.092238
 31
0.0
  0
LINE
  5
616
  8
0
 10
9.343239
 20
8.092238
 30
0.0
 11
10.572271
 21
8.092238
 31
0.0
  0
LINE
  5
617
  8
0
 10
10.572271
 20
8.092238
 30
0.0
 11
10.843419
 21
8.092238
 31
0.0
  0
LINE
  5
618
  8
0
 10
10.843419
 20
8.092238
 30
0.0
 11
11.089226
 21
8.092238
 31
0.0
  0
LINE
  5
619
  8
0
 10
11.089226
 20
8.092238
 30
0.0
 11
11.143239
 21
8.092238
 31
0.0
  0
LINE
  5
61A
  8
0
 10
11.143239
 20
8.092238
 30
0.0
 11
12.372271
 21
8.092238
 31
0.0
  0
LINE
  5
61B
  8
0
 10
12.372271
 20
8.092238
 30
0.0
 11
12.643419
 21
8.092238
 31
0.0
  0
LINE
  5
61C
  8
0
 10
12.643419
 20
8.092238
 30
0.0
 11
12.889226
 21
8.092238
 31
0.0
  0
LINE
  5
61D
  8
0
 10
12.889226
 20
8.092238
 30
0.0
 11
12.943239
 21
8.092238
 31
0.0
  0
LINE
  5
61E
  8
0
 10
12.943239
 20
8.092238
 30
0.0
 11
14.172271
 21
8.092238
 31
0.0
  0
LINE
  5
61F
  8
0
 10
14.172271
 20
8.092238
 30
0.0
 11
14.380194
 21
8.092238
 31
0.0
  0
LINE
  5
620
  8
0
 10
14.380194
 20
8.092238
 30
0.0
 11
14.626
 21
8.092238
 31
0.0
  0
LINE
  5
621
  8
0
 10
0.56
 20
8.592238
 30
0.0
 11
0.614194
 21
8.592238
 31
0.0
  0
LINE
  5
622
  8
0
 10
0.56
 20
8.592238
 30
0.0
 11
0.614194
 21
8.592238
 31
0.0
  0
LINE
  5
623
  8
0
 10
0.614194
 20
8.592238
 30
0.0
 11
1.569561
 21
8.592238
 31
0.0
  0
LINE
  5
624
  8
0
 10
1.569561
 20
8.592238
 30
0.0
 11
1.840529
 21
8.592238
 31
0.0
  0
LINE
  5
625
  8
0
 10
1.840529
 20
8.592238
 30
0.0
 11
2.086335
 21
8.592238
 31
0.0
  0
LINE
  5
626
  8
0
 10
2.086335
 20
8.592238
 30
0.0
 11
2.140529
 21
8.592238
 31
0.0
  0
LINE
  5
627
  8
0
 10
2.140529
 20
8.592238
 30
0.0
 11
3.369561
 21
8.592238
 31
0.0
  0
LINE
  5
628
  8
0
 10
3.369561
 20
8.592238
 30
0.0
 11
3.640529
 21
8.592238
 31
0.0
  0
LINE
  5
629
  8
0
 10
3.640529
 20
8.592238
 30
0.0
 11
3.886335
 21
8.592238
 31
0.0
  0
LINE
  5
62A
  8
0
 10
3.886335
 20
8.592238
 30
0.0
 11
3.940529
 21
8.592238
 31
0.0
  0
LINE
  5
62B
  8
0
 10
3.940529
 20
8.592238
 30
0.0
 11
5.169561
 21
8.592238
 31
0.0
  0
LINE
  5
62C
  8
0
 10
5.169561
 20
8.592238
 30
0.0
 11
5.440529
 21
8.592238
 31
0.0
  0
LINE
  5
62D
  8
0
 10
5.440529
 20
8.592238
 30
0.0
 11
5.686335
 21
8.592238
 31
0.0
  0
LINE
  5
62E
  8
0
 10
5.686335
 20
8.592238
 30
0.0
 11
5.740529
 21
8.592238
 31
0.0
  0
LINE
  5
62F
  8
0
 10
5.740529
 20
8.592238
 30
0.0
 11
6.969561
 21
8.592238
 31
0.0
  0
LINE
  5
630
  8
0
 10
6.969561
 20
8.592238
 30
0.0
 11
7.240529
 21
8.592238
 31
0.0
  0
LINE
  5
631
  8
0
 10
7.240529
 20
8.592238
 30
0.0
 11
7.486335
 21
8.592238
 31
0.0
  0
LINE
  5
632
  8
0
 10
7.486335
 20
8.592238
 30
0.0
 11
7.540529
 21
8.592238
 31
0.0
  0
LINE
  5
633
  8
0
 10
7.540529
 20
8.592238
 30
0.0
 11
8.769561
 21
8.592238
 31
0.0
  0
LINE
  5
634
  8
0
 10
8.769561
 20
8.592238
 30
0.0
 11
9.040529
 21
8.592238
 31
0.0
  0
LINE
  5
635
  8
0
 10
9.040529
 20
8.592238
 30
0.0
 11
9.286335
 21
8.592238
 31
0.0
  0
LINE
  5
636
  8
0
 10
9.286335
 20
8.592238
 30
0.0
 11
9.340529
 21
8.592238
 31
0.0
  0
LINE
  5
637
  8
0
 10
9.340529
 20
8.592238
 30
0.0
 11
10.569561
 21
8.592238
 31
0.0
  0
LINE
  5
638
  8
0
 10
10.569561
 20
8.592238
 30
0.0
 11
10.840529
 21
8.592238
 31
0.0
  0
LINE
  5
639
  8
0
 10
10.840529
 20
8.592238
 30
0.0
 11
11.086335
 21
8.592238
 31
0.0
  0
LINE
  5
63A
  8
0
 10
11.086335
 20
8.592238
 30
0.0
 11
11.140529
 21
8.592238
 31
0.0
  0
LINE
  5
63B
  8
0
 10
11.140529
 20
8.592238
 30
0.0
 11
12.369561
 21
8.592238
 31
0.0
  0
LINE
  5
63C
  8
0
 10
12.369561
 20
8.592238
 30
0.0
 11
12.640529
 21
8.592238
 31
0.0
  0
LINE
  5
63D
  8
0
 10
12.640529
 20
8.592238
 30
0.0
 11
12.886335
 21
8.592238
 31
0.0
  0
LINE
  5
63E
  8
0
 10
12.886335
 20
8.592238
 30
0.0
 11
12.940529
 21
8.592238
 31
0.0
  0
LINE
  5
63F
  8
0
 10
12.940529
 20
8.592238
 30
0.0
 11
14.169561
 21
8.592238
 31
0.0
  0
LINE
  5
640
  8
0
 10
14.169561
 20
8.592238
 30
0.0
 11
14.380194
 21
8.592238
 31
0.0
  0
LINE
  5
641
  8
0
 10
14.380194
 20
8.592238
 30
0.0
 11
14.626
 21
8.592238
 31
0.0
  0
LINE
  5
642
  8
0
 10
0.545
 20
9.092238
 30
0.0
 11
0.599194
 21
9.092238
 31
0.0
  0
LINE
  5
643
  8
0
 10
0.545
 20
9.092238
 30
0.0
 11
0.599194
 21
9.092238
 31
0.0
  0
LINE
  5
644
  8
0
 10
0.599194
 20
9.092238
 30
0.0
 11
1.566852
 21
9.092238
 31
0.0
  0
LINE
  5
645
  8
0
 10
1.566852
 20
9.092238
 30
0.0
 11
1.837819
 21
9.092238
 31
0.0
  0
LINE
  5
646
  8
0
 10
1.837819
 20
9.092238
 30
0.0
 11
2.083626
 21
9.092238
 31
0.0
  0
LINE
  5
647
  8
0
 10
2.083626
 20
9.092238
 30
0.0
 11
2.137819
 21
9.092238
 31
0.0
  0
LINE
  5
648
  8
0
 10
2.137819
 20
9.092238
 30
0.0
 11
3.366852
 21
9.092238
 31
0.0
  0
LINE
  5
649
  8
0
 10
3.366852
 20
9.092238
 30
0.0
 11
3.637819
 21
9.092238
 31
0.0
  0
LINE
  5
64A
  8
0
 10
3.637819
 20
9.092238
 30
0.0
 11
3.883626
 21
9.092238
 31
0.0
  0
LINE
  5
64B
  8
0
 10
3.883626
 20
9.092238
 30
0.0
 11
3.937819
 21
9.092238
 31
0.0
  0
LINE
  5
64C
  8
0
 10
3.937819
 20
9.092238
 30
0.0
 11
5.166852
 21
9.092238
 31
0.0
  0
LINE
  5
64D
  8
0
 10
5.166852
 20
9.092238
 30
0.0
 11
5.437819
 21
9.092238
 31
0.0
  0
LINE
  5
64E
  8
0
 10
5.437819
 20
9.092238
 30
0.0
 11
5.683626
 21
9.092238
 31
0.0
  0
LINE
  5
64F
  8
0
 10
5.683626
 20
9.092238
 30
0.0
 11
5.737819
 21
9.092238
 31
0.0
  0
LINE
  5
650
  8
0
 10
5.737819
 20
9.092238
 30
0.0
 11
6.966852
 21
9.092238
 31
0.0
  0
LINE
  5
651
  8
0
 10
6.966852
 20
9.092238
 30
0.0
 11
7.237819
 21
9.092238
 31
0.0
  0
LINE
  5
652
  8
0
 10
7.237819
 20
9.092238
 30
0.0
 11
7.483626
 21
9.092238
 31
0.0
  0
LINE
  5
653
  8
0
 10
7.483626
 20
9.092238
 30
0.0
 11
7.537819
 21
9.092238
 31
0.0
  0
LINE
  5
654
  8
0
 10
7.537819
 20
9.092238
 30
0.0
 11
8.766852
 21
9.092238
 31
0.0
  0
LINE
  5
655
  8
0
 10
8.766852
 20
9.092238
 30
0.0
 11
9.037819
 21
9.092238
 31
0.0
  0
LINE
  5
656
  8
0
 10
9.037819
 20
9.092238
 30
0.0
 11
9.283626
 21
9.092238
 31
0.0
  0
LINE
  5
657
  8
0
 10
9.283626
 20
9.092238
 30
0.0
 11
9.337819
 21
9.092238
 31
0.0
  0
LINE
  5
658
  8
0
 10
9.337819
 20
9.092238
 30
0.0
 11
10.566852
 21
9.092238
 31
0.0
  0
LINE
  5
659
  8
0
 10
10.566852
 20
9.092238
 30
0.0
 11
10.837819
 21
9.092238
 31
0.0
  0
LINE
  5
65A
  8
0
 10
10.837819
 20
9.092238
 30
0.0
 11
11.083626
 21
9.092238
 31
0.0
  0
LINE
  5
65B
  8
0
 10
11.083626
 20
9.092238
 30
0.0
 11
11.137819
 21
9.092238
 31
0.0
  0
LINE
  5
65C
  8
0
 10
11.137819
 20
9.092238
 30
0.0
 11
12.366852
 21
9.092238
 31
0.0
  0
LINE
  5
65D
  8
0
 10
12.366852
 20
9.092238
 30
0.0
 11
12.637819
 21
9.092238
 31
0.0
  0
LINE
  5
65E
  8
0
 10
12.637819
 20
9.092238
 30
0.0
 11
12.883626
 21
9.092238
 31
0.0
  0
LINE
  5
65F
  8
0
 10
12.883626
 20
9.092238
 30
0.0
 11
12.937819
 21
9.092238
 31
0.0
  0
LINE
  5
660
  8
0
 10
12.937819
 20
9.092238
 30
0.0
 11
14.166852
 21
9.092238
 31
0.0
  0
LINE
  5
661
  8
0
 10
14.166852
 20
9.092238
 30
0.0
 11
14.380194
 21
9.092238
 31
0.0
  0
LINE
  5
662
  8
0
 10
14.380194
 20
9.092238
 30
0.0
 11
14.626
 21
9.092238
 31
0.0
  0
LINE
  5
663
  8
0
 10
0.529
 20
9.592238
 30
0.0
 11
0.583194
 21
9.592238
 31
0.0
  0
LINE
  5
664
  8
0
 10
0.529
 20
9.592238
 30
0.0
 11
0.583194
 21
9.592238
 31
0.0
  0
LINE
  5
665
  8
0
 10
0.583194
 20
9.592238
 30
0.0
 11
1.563961
 21
9.592238
 31
0.0
  0
LINE
  5
666
  8
0
 10
1.563961
 20
9.592238
 30
0.0
 11
1.83511
 21
9.592238
 31
0.0
  0
LINE
  5
667
  8
0
 10
1.83511
 20
9.592238
 30
0.0
 11
2.080916
 21
9.592238
 31
0.0
  0
LINE
  5
668
  8
0
 10
2.080916
 20
9.592238
 30
0.0
 11
2.134929
 21
9.592238
 31
0.0
  0
LINE
  5
669
  8
0
 10
2.134929
 20
9.592238
 30
0.0
 11
3.363961
 21
9.592238
 31
0.0
  0
LINE
  5
66A
  8
0
 10
3.363961
 20
9.592238
 30
0.0
 11
3.63511
 21
9.592238
 31
0.0
  0
LINE
  5
66B
  8
0
 10
3.63511
 20
9.592238
 30
0.0
 11
3.880916
 21
9.592238
 31
0.0
  0
LINE
  5
66C
  8
0
 10
3.880916
 20
9.592238
 30
0.0
 11
3.934929
 21
9.592238
 31
0.0
  0
LINE
  5
66D
  8
0
 10
3.934929
 20
9.592238
 30
0.0
 11
5.163961
 21
9.592238
 31
0.0
  0
LINE
  5
66E
  8
0
 10
5.163961
 20
9.592238
 30
0.0
 11
5.43511
 21
9.592238
 31
0.0
  0
LINE
  5
66F
  8
0
 10
5.43511
 20
9.592238
 30
0.0
 11
5.680916
 21
9.592238
 31
0.0
  0
LINE
  5
670
  8
0
 10
5.680916
 20
9.592238
 30
0.0
 11
5.734929
 21
9.592238
 31
0.0
  0
LINE
  5
671
  8
0
 10
5.734929
 20
9.592238
 30
0.0
 11
6.963961
 21
9.592238
 31
0.0
  0
LINE
  5
672
  8
0
 10
6.963961
 20
9.592238
 30
0.0
 11
7.23511
 21
9.592238
 31
0.0
  0
LINE
  5
673
  8
0
 10
7.23511
 20
9.592238
 30
0.0
 11
7.480916
 21
9.592238
 31
0.0
  0
LINE
  5
674
  8
0
 10
7.480916
 20
9.592238
 30
0.0
 11
7.534929
 21
9.592238
 31
0.0
  0
LINE
  5
675
  8
0
 10
7.534929
 20
9.592238
 30
0.0
 11
8.763961
 21
9.592238
 31
0.0
  0
LINE
  5
676
  8
0
 10
8.763961
 20
9.592238
 30
0.0
 11
9.03511
 21
9.592238
 31
0.0
  0
LINE
  5
677
  8
0
 10
9.03511
 20
9.592238
 30
0.0
 11
9.280916
 21
9.592238
 31
0.0
  0
LINE
  5
678
  8
0
 10
9.280916
 20
9.592238
 30
0.0
 11
9.334929
 21
9.592238
 31
0.0
  0
LINE
  5
679
  8
0
 10
9.334929
 20
9.592238
 30
0.0
 11
10.563961
 21
9.592238
 31
0.0
  0
LINE
  5
67A
  8
0
 10
10.563961
 20
9.592238
 30
0.0
 11
10.83511
 21
9.592238
 31
0.0
  0
LINE
  5
67B
  8
0
 10
10.83511
 20
9.592238
 30
0.0
 11
11.080916
 21
9.592238
 31
0.0
  0
LINE
  5
67C
  8
0
 10
11.080916
 20
9.592238
 30
0.0
 11
11.134929
 21
9.592238
 31
0.0
  0
LINE
  5
67D
  8
0
 10
11.134929
 20
9.592238
 30
0.0
 11
12.363961
 21
9.592238
 31
0.0
  0
LINE
  5
67E
  8
0
 10
12.363961
 20
9.592238
 30
0.0
 11
12.63511
 21
9.592238
 31
0.0
  0
LINE
  5
67F
  8
0
 10
12.63511
 20
9.592238
 30
0.0
 11
12.880916
 21
9.592238
 31
0.0
  0
LINE
  5
680
  8
0
 10
12.880916
 20
9.592238
 30
0.0
 11
12.934929
 21
9.592238
 31
0.0
  0
LINE
  5
681
  8
0
 10
12.934929
 20
9.592238
 30
0.0
 11
14.163961
 21
9.592238
 31
0.0
  0
LINE
  5
682
  8
0
 10
14.163961
 20
9.592238
 30
0.0
 11
14.380194
 21
9.592238
 31
0.0
  0
LINE
  5
683
  8
0
 10
14.380194
 20
9.592238
 30
0.0
 11
14.626
 21
9.592238
 31
0.0
  0
LINE
  5
684
  8
0
 10
0.514
 20
10.092238
 30
0.0
 11
0.568194
 21
10.092238
 31
0.0
  0
LINE
  5
685
  8
0
 10
0.514
 20
10.092238
 30
0.0
 11
0.568194
 21
10.092238
 31
0.0
  0
LINE
  5
686
  8
0
 10
0.568194
 20
10.092238
 30
0.0
 11
1.561252
 21
10.092238
 31
0.0
  0
LINE
  5
687
  8
0
 10
1.561252
 20
10.092238
 30
0.0
 11
1.832219
 21
10.092238
 31
0.0
  0
LINE
  5
688
  8
0
 10
1.832219
 20
10.092238
 30
0.0
 11
2.078026
 21
10.092238
 31
0.0
  0
LINE
  5
689
  8
0
 10
2.078026
 20
10.092238
 30
0.0
 11
2.132219
 21
10.092238
 31
0.0
  0
LINE
  5
68A
  8
0
 10
2.132219
 20
10.092238
 30
0.0
 11
3.361252
 21
10.092238
 31
0.0
  0
LINE
  5
68B
  8
0
 10
3.361252
 20
10.092238
 30
0.0
 11
3.632219
 21
10.092238
 31
0.0
  0
LINE
  5
68C
  8
0
 10
3.632219
 20
10.092238
 30
0.0
 11
3.878026
 21
10.092238
 31
0.0
  0
LINE
  5
68D
  8
0
 10
3.878026
 20
10.092238
 30
0.0
 11
3.932219
 21
10.092238
 31
0.0
  0
LINE
  5
68E
  8
0
 10
3.932219
 20
10.092238
 30
0.0
 11
5.161252
 21
10.092238
 31
0.0
  0
LINE
  5
68F
  8
0
 10
5.161252
 20
10.092238
 30
0.0
 11
5.432219
 21
10.092238
 31
0.0
  0
LINE
  5
690
  8
0
 10
5.432219
 20
10.092238
 30
0.0
 11
5.678026
 21
10.092238
 31
0.0
  0
LINE
  5
691
  8
0
 10
5.678026
 20
10.092238
 30
0.0
 11
5.732219
 21
10.092238
 31
0.0
  0
LINE
  5
692
  8
0
 10
5.732219
 20
10.092238
 30
0.0
 11
6.961252
 21
10.092238
 31
0.0
  0
LINE
  5
693
  8
0
 10
6.961252
 20
10.092238
 30
0.0
 11
7.232219
 21
10.092238
 31
0.0
  0
LINE
  5
694
  8
0
 10
7.232219
 20
10.092238
 30
0.0
 11
7.478026
 21
10.092238
 31
0.0
  0
LINE
  5
695
  8
0
 10
7.478026
 20
10.092238
 30
0.0
 11
7.532219
 21
10.092238
 31
0.0
  0
LINE
  5
696
  8
0
 10
7.532219
 20
10.092238
 30
0.0
 11
8.761252
 21
10.092238
 31
0.0
  0
LINE
  5
697
  8
0
 10
8.761252
 20
10.092238
 30
0.0
 11
9.032219
 21
10.092238
 31
0.0
  0
LINE
  5
698
  8
0
 10
9.032219
 20
10.092238
 30
0.0
 11
9.278026
 21
10.092238
 31
0.0
  0
LINE
  5
699
  8
0
 10
9.278026
 20
10.092238
 30
0.0
 11
9.332219
 21
10.092238
 31
0.0
  0
LINE
  5
69A
  8
0
 10
9.332219
 20
10.092238
 30
0.0
 11
10.561252
 21
10.092238
 31
0.0
  0
LINE
  5
69B
  8
0
 10
10.561252
 20
10.092238
 30
0.0
 11
10.832219
 21
10.092238
 31
0.0
  0
LINE
  5
69C
  8
0
 10
10.832219
 20
10.092238
 30
0.0
 11
11.078026
 21
10.092238
 31
0.0
  0
LINE
  5
69D
  8
0
 10
11.078026
 20
10.092238
 30
0.0
 11
11.132219
 21
10.092238
 31
0.0
  0
LINE
  5
69E
  8
0
 10
11.132219
 20
10.092238
 30
0.0
 11
12.361252
 21
10.092238
 31
0.0
  0
LINE
  5
69F
  8
0
 10
12.361252
 20
10.092238
 30
0.0
 11
12.632219
 21
10.092238
 31
0.0
  0
LINE
  5
6A0
  8
0
 10
12.632219
 20
10.092238
 30
0.0
 11
12.878026
 21
10.092238
 31
0.0
  0
LINE
  5
6A1
  8
0
 10
12.878026
 20
10.092238
 30
0.0
 11
12.932219
 21
10.092238
 31
0.0
  0
LINE
  5
6A2
  8
0
 10
12.932219
 20
10.092238
 30
0.0
 11
14.161252
 21
10.092238
 31
0.0
  0
LINE
  5
6A3
  8
0
 10
14.161252
 20
10.092238
 30
0.0
 11
14.380194
 21
10.092238
 31
0.0
  0
LINE
  5
6A4
  8
0
 10
14.380194
 20
10.092238
 30
0.0
 11
14.626
 21
10.092238
 31
0.0
  0
LINE
  5
6A5
  8
0
 10
0.499
 20
10.592238
 30
0.0
 11
0.553194
 21
10.592238
 31
0.0
  0
LINE
  5
6A6
  8
0
 10
0.499
 20
10.592238
 30
0.0
 11
0.553194
 21
10.592238
 31
0.0
  0
LINE
  5
6A7
  8
0
 10
0.553194
 20
10.592238
 30
0.0
 11
1.558542
 21
10.592238
 31
0.0
  0
LINE
  5
6A8
  8
0
 10
1.558542
 20
10.592238
 30
0.0
 11
1.82951
 21
10.592238
 31
0.0
  0
LINE
  5
6A9
  8
0
 10
1.82951
 20
10.592238
 30
0.0
 11
2.075316
 21
10.592238
 31
0.0
  0
LINE
  5
6AA
  8
0
 10
2.075316
 20
10.592238
 30
0.0
 11
2.12951
 21
10.592238
 31
0.0
  0
LINE
  5
6AB
  8
0
 10
2.12951
 20
10.592238
 30
0.0
 11
3.358542
 21
10.592238
 31
0.0
  0
LINE
  5
6AC
  8
0
 10
3.358542
 20
10.592238
 30
0.0
 11
3.62951
 21
10.592238
 31
0.0
  0
LINE
  5
6AD
  8
0
 10
3.62951
 20
10.592238
 30
0.0
 11
3.875316
 21
10.592238
 31
0.0
  0
LINE
  5
6AE
  8
0
 10
3.875316
 20
10.592238
 30
0.0
 11
3.92951
 21
10.592238
 31
0.0
  0
LINE
  5
6AF
  8
0
 10
3.92951
 20
10.592238
 30
0.0
 11
5.158542
 21
10.592238
 31
0.0
  0
LINE
  5
6B0
  8
0
 10
5.158542
 20
10.592238
 30
0.0
 11
5.42951
 21
10.592238
 31
0.0
  0
LINE
  5
6B1
  8
0
 10
5.42951
 20
10.592238
 30
0.0
 11
5.675316
 21
10.592238
 31
0.0
  0
LINE
  5
6B2
  8
0
 10
5.675316
 20
10.592238
 30
0.0
 11
5.72951
 21
10.592238
 31
0.0
  0
LINE
  5
6B3
  8
0
 10
5.72951
 20
10.592238
 30
0.0
 11
6.958542
 21
10.592238
 31
0.0
  0
LINE
  5
6B4
  8
0
 10
6.958542
 20
10.592238
 30
0.0
 11
7.22951
 21
10.592238
 31
0.0
  0
LINE
  5
6B5
  8
0
 10
7.22951
 20
10.592238
 30
0.0
 11
7.475316
 21
10.592238
 31
0.0
  0
LINE
  5
6B6
  8
0
 10
7.475316
 20
10.592238
 30
0.0
 11
7.52951
 21
10.592238
 31
0.0
  0
LINE
  5
6B7
  8
0
 10
7.52951
 20
10.592238
 30
0.0
 11
8.758542
 21
10.592238
 31
0.0
  0
LINE
  5
6B8
  8
0
 10
8.758542
 20
10.592238
 30
0.0
 11
9.02951
 21
10.592238
 31
0.0
  0
LINE
  5
6B9
  8
0
 10
9.02951
 20
10.592238
 30
0.0
 11
9.275316
 21
10.592238
 31
0.0
  0
LINE
  5
6BA
  8
0
 10
9.275316
 20
10.592238
 30
0.0
 11
9.32951
 21
10.592238
 31
0.0
  0
LINE
  5
6BB
  8
0
 10
9.32951
 20
10.592238
 30
0.0
 11
10.558542
 21
10.592238
 31
0.0
  0
LINE
  5
6BC
  8
0
 10
10.558542
 20
10.592238
 30
0.0
 11
10.82951
 21
10.592238
 31
0.0
  0
LINE
  5
6BD
  8
0
 10
10.82951
 20
10.592238
 30
0.0
 11
11.075316
 21
10.592238
 31
0.0
  0
LINE
  5
6BE
  8
0
 10
11.075316
 20
10.592238
 30
0.0
 11
11.12951
 21
10.592238
 31
0.0
  0
LINE
  5
6BF
  8
0
 10
11.12951
 20
10.592238
 30
0.0
 11
12.358542
 21
10.592238
 31
0.0
  0
LINE
  5
6C0
  8
0
 10
12.358542
 20
10.592238
 30
0.0
 11
12.62951
 21
10.592238
 31
0.0
  0
LINE
  5
6C1
  8
0
 10
12.62951
 20
10.592238
 30
0.0
 11
12.875316
 21
10.592238
 31
0.0
  0
LINE
  5
6C2
  8
0
 10
12.875316
 20
10.592238
 30
0.0
 11
12.92951
 21
10.592238
 31
0.0
  0
LINE
  5
6C3
  8
0
 10
12.92951
 20
10.592238
 30
0.0
 11
14.158542
 21
10.592238
 31
0.0
  0
LINE
  5
6C4
  8
0
 10
14.158542
 20
10.592238
 30
0.0
 11
14.380194
 21
10.592238
 31
0.0
  0
LINE
  5
6C5
  8
0
 10
14.380194
 20
10.592238
 30
0.0
 11
14.626
 21
10.592238
 31
0.0
  0
LINE
  5
6C6
  8
0
 10
0.484
 20
11.092238
 30
0.0
 11
0.538194
 21
11.092238
 31
0.0
  0
LINE
  5
6C7
  8
0
 10
0.484
 20
11.092238
 30
0.0
 11
0.538194
 21
11.092238
 31
0.0
  0
LINE
  5
6C8
  8
0
 10
0.538194
 20
11.092238
 30
0.0
 11
1.555832
 21
11.092238
 31
0.0
  0
LINE
  5
6C9
  8
0
 10
1.555832
 20
11.092238
 30
0.0
 11
1.8268
 21
11.092238
 31
0.0
  0
LINE
  5
6CA
  8
0
 10
1.8268
 20
11.092238
 30
0.0
 11
2.072606
 21
11.092238
 31
0.0
  0
LINE
  5
6CB
  8
0
 10
2.072606
 20
11.092238
 30
0.0
 11
2.1268
 21
11.092238
 31
0.0
  0
LINE
  5
6CC
  8
0
 10
2.1268
 20
11.092238
 30
0.0
 11
3.355832
 21
11.092238
 31
0.0
  0
LINE
  5
6CD
  8
0
 10
3.355832
 20
11.092238
 30
0.0
 11
3.6268
 21
11.092238
 31
0.0
  0
LINE
  5
6CE
  8
0
 10
3.6268
 20
11.092238
 30
0.0
 11
3.872606
 21
11.092238
 31
0.0
  0
LINE
  5
6CF
  8
0
 10
3.872606
 20
11.092238
 30
0.0
 11
3.9268
 21
11.092238
 31
0.0
  0
LINE
  5
6D0
  8
0
 10
3.9268
 20
11.092238
 30
0.0
 11
5.155832
 21
11.092238
 31
0.0
  0
LINE
  5
6D1
  8
0
 10
5.155832
 20
11.092238
 30
0.0
 11
5.4268
 21
11.092238
 31
0.0
  0
LINE
  5
6D2
  8
0
 10
5.4268
 20
11.092238
 30
0.0
 11
5.672606
 21
11.092238
 31
0.0
  0
LINE
  5
6D3
  8
0
 10
5.672606
 20
11.092238
 30
0.0
 11
5.7268
 21
11.092238
 31
0.0
  0
LINE
  5
6D4
  8
0
 10
5.7268
 20
11.092238
 30
0.0
 11
6.955832
 21
11.092238
 31
0.0
  0
LINE
  5
6D5
  8
0
 10
6.955832
 20
11.092238
 30
0.0
 11
7.2268
 21
11.092238
 31
0.0
  0
LINE
  5
6D6
  8
0
 10
7.2268
 20
11.092238
 30
0.0
 11
7.472606
 21
11.092238
 31
0.0
  0
LINE
  5
6D7
  8
0
 10
7.472606
 20
11.092238
 30
0.0
 11
7.5268
 21
11.092238
 31
0.0
  0
LINE
  5
6D8
  8
0
 10
7.5268
 20
11.092238
 30
0.0
 11
8.755832
 21
11.092238
 31
0.0
  0
LINE
  5
6D9
  8
0
 10
8.755832
 20
11.092238
 30
0.0
 11
9.0268
 21
11.092238
 31
0.0
  0
LINE
  5
6DA
  8
0
 10
9.0268
 20
11.092238
 30
0.0
 11
9.272606
 21
11.092238
 31
0.0
  0
LINE
  5
6DB
  8
0
 10
9.272606
 20
11.092238
 30
0.0
 11
9.3268
 21
11.092238
 31
0.0
  0
LINE
  5
6DC
  8
0
 10
9.3268
 20
11.092238
 30
0.0
 11
10.555832
 21
11.092238
 31
0.0
  0
LINE
  5
6DD
  8
0
 10
10.555832
 20
11.092238
 30
0.0
 11
10.8268
 21
11.092238
 31
0.0
  0
LINE
  5
6DE
  8
0
 10
10.8268
 20
11.092238
 30
0.0
 11
11.072606
 21
11.092238
 31
0.0
  0
LINE
  5
6DF
  8
0
 10
11.072606
 20
11.092238
 30
0.0
 11
11.1268
 21
11.092238
 31
0.0
  0
LINE
  5
6E0
  8
0
 10
11.1268
 20
11.092238
 30
0.0
 11
12.355832
 21
11.092238
 31
0.0
  0
LINE
  5
6E1
  8
0
 10
12.355832
 20
11.092238
 30
0.0
 11
12.6268
 21
11.092238
 31
0.0
  0
LINE
  5
6E2
  8
0
 10
12.6268
 20
11.092238
 30
0.0
 11
12.872606
 21
11.092238
 31
0.0
  0
LINE
  5
6E3
  8
0
 10
12.872606
 20
11.092238
 30
0.0
 11
12.9268
 21
11.092238
 31
0.0
  0
LINE
  5
6E4
  8
0
 10
12.9268
 20
11.092238
 30
0.0
 11
14.155832
 21
11.092238
 31
0.0
  0
LINE
  5
6E5
  8
0
 10
14.155832
 20
11.092238
 30
0.0
 11
14.380194
 21
11.092238
 31
0.0
  0
LINE
  5
6E6
  8
0
 10
14.380194
 20
11.092238
 30
0.0
 11
14.626
 21
11.092238
 31
0.0
  0
LINE
  5
6E7
  8
0
 10
0.468
 20
11.592238
 30
0.0
 11
0.522194
 21
11.592238
 31
0.0
  0
LINE
  5
6E8
  8
0
 10
0.468
 20
11.592238
 30
0.0
 11
0.522194
 21
11.592238
 31
0.0
  0
LINE
  5
6E9
  8
0
 10
0.522194
 20
11.592238
 30
0.0
 11
1.552942
 21
11.592238
 31
0.0
  0
LINE
  5
6EA
  8
0
 10
1.552942
 20
11.592238
 30
0.0
 11
1.82391
 21
11.592238
 31
0.0
  0
LINE
  5
6EB
  8
0
 10
1.82391
 20
11.592238
 30
0.0
 11
2.069716
 21
11.592238
 31
0.0
  0
LINE
  5
6EC
  8
0
 10
2.069716
 20
11.592238
 30
0.0
 11
2.12391
 21
11.592238
 31
0.0
  0
LINE
  5
6ED
  8
0
 10
2.12391
 20
11.592238
 30
0.0
 11
3.352942
 21
11.592238
 31
0.0
  0
LINE
  5
6EE
  8
0
 10
3.352942
 20
11.592238
 30
0.0
 11
3.62391
 21
11.592238
 31
0.0
  0
LINE
  5
6EF
  8
0
 10
3.62391
 20
11.592238
 30
0.0
 11
3.869716
 21
11.592238
 31
0.0
  0
LINE
  5
6F0
  8
0
 10
3.869716
 20
11.592238
 30
0.0
 11
3.92391
 21
11.592238
 31
0.0
  0
LINE
  5
6F1
  8
0
 10
3.92391
 20
11.592238
 30
0.0
 11
5.152942
 21
11.592238
 31
0.0
  0
LINE
  5
6F2
  8
0
 10
5.152942
 20
11.592238
 30
0.0
 11
5.42391
 21
11.592238
 31
0.0
  0
LINE
  5
6F3
  8
0
 10
5.42391
 20
11.592238
 30
0.0
 11
5.669716
 21
11.592238
 31
0.0
  0
LINE
  5
6F4
  8
0
 10
5.669716
 20
11.592238
 30
0.0
 11
5.72391
 21
11.592238
 31
0.0
  0
LINE
  5
6F5
  8
0
 10
5.72391
 20
11.592238
 30
0.0
 11
6.952942
 21
11.592238
 31
0.0
  0
LINE
  5
6F6
  8
0
 10
6.952942
 20
11.592238
 30
0.0
 11
7.22391
 21
11.592238
 31
0.0
  0
LINE
  5
6F7
  8
0
 10
7.22391
 20
11.592238
 30
0.0
 11
7.469716
 21
11.592238
 31
0.0
  0
LINE
  5
6F8
  8
0
 10
7.469716
 20
11.592238
 30
0.0
 11
7.52391
 21
11.592238
 31
0.0
  0
LINE
  5
6F9
  8
0
 10
7.52391
 20
11.592238
 30
0.0
 11
8.752942
 21
11.592238
 31
0.0
  0
LINE
  5
6FA
  8
0
 10
8.752942
 20
11.592238
 30
0.0
 11
9.02391
 21
11.592238
 31
0.0
  0
LINE
  5
6FB
  8
0
 10
9.02391
 20
11.592238
 30
0.0
 11
9.269716
 21
11.592238
 31
0.0
  0
LINE
  5
6FC
  8
0
 10
9.269716
 20
11.592238
 30
0.0
 11
9.32391
 21
11.592238
 31
0.0
  0
LINE
  5
6FD
  8
0
 10
9.32391
 20
11.592238
 30
0.0
 11
10.552942
 21
11.592238
 31
0.0
  0
LINE
  5
6FE
  8
0
 10
10.552942
 20
11.592238
 30
0.0
 11
10.82391
 21
11.592238
 31
0.0
  0
LINE
  5
6FF
  8
0
 10
10.82391
 20
11.592238
 30
0.0
 11
11.069716
 21
11.592238
 31
0.0
  0
LINE
  5
700
  8
0
 10
11.069716
 20
11.592238
 30
0.0
 11
11.12391
 21
11.592238
 31
0.0
  0
LINE
  5
701
  8
0
 10
11.12391
 20
11.592238
 30
0.0
 11
12.352942
 21
11.592238
 31
0.0
  0
LINE
  5
702
  8
0
 10
12.352942
 20
11.592238
 30
0.0
 11
12.62391
 21
11.592238
 31
0.0
  0
LINE
  5
703
  8
0
 10
12.62391
 20
11.592238
 30
0.0
 11
12.869716
 21
11.592238
 31
0.0
  0
LINE
  5
704
  8
0
 10
12.869716
 20
11.592238
 30
0.0
 11
12.92391
 21
11.592238
 31
0.0
  0
LINE
  5
705
  8
0
 10
12.92391
 20
11.592238
 30
0.0
 11
14.152942
 21
11.592238
 31
0.0
  0
LINE
  5
706
  8
0
 10
14.152942
 20
11.592238
 30
0.0
 11
14.380194
 21
11.592238
 31
0.0
  0
LINE
  5
707
  8
0
 10
14.380194
 20
11.592238
 30
0.0
 11
14.626
 21
11.592238
 31
0.0
  0
LINE
  5
708
  8
0
 10
0.453
 20
12.092238
 30
0.0
 11
0.507194
 21
12.092238
 31
0.0
  0
LINE
  5
709
  8
0
 10
0.453
 20
12.092238
 30
0.0
 11
0.507194
 21
12.092238
 31
0.0
  0
LINE
  5
70A
  8
0
 10
0.507194
 20
12.092238
 30
0.0
 11
1.550232
 21
12.092238
 31
0.0
  0
LINE
  5
70B
  8
0
 10
1.550232
 20
12.092238
 30
0.0
 11
1.8212
 21
12.092238
 31
0.0
  0
LINE
  5
70C
  8
0
 10
1.8212
 20
12.092238
 30
0.0
 11
2.067006
 21
12.092238
 31
0.0
  0
LINE
  5
70D
  8
0
 10
2.067006
 20
12.092238
 30
0.0
 11
2.1212
 21
12.092238
 31
0.0
  0
LINE
  5
70E
  8
0
 10
2.1212
 20
12.092238
 30
0.0
 11
3.350232
 21
12.092238
 31
0.0
  0
LINE
  5
70F
  8
0
 10
3.350232
 20
12.092238
 30
0.0
 11
3.6212
 21
12.092238
 31
0.0
  0
LINE
  5
710
  8
0
 10
3.6212
 20
12.092238
 30
0.0
 11
3.867006
 21
12.092238
 31
0.0
  0
LINE
  5
711
  8
0
 10
3.867006
 20
12.092238
 30
0.0
 11
3.9212
 21
12.092238
 31
0.0
  0
LINE
  5
712
  8
0
 10
3.9212
 20
12.092238
 30
0.0
 11
5.150232
 21
12.092238
 31
0.0
  0
LINE
  5
713
  8
0
 10
5.150232
 20
12.092238
 30
0.0
 11
5.4212
 21
12.092238
 31
0.0
  0
LINE
  5
714
  8
0
 10
5.4212
 20
12.092238
 30
0.0
 11
5.667006
 21
12.092238
 31
0.0
  0
LINE
  5
715
  8
0
 10
5.667006
 20
12.092238
 30
0.0
 11
5.7212
 21
12.092238
 31
0.0
  0
LINE
  5
716
  8
0
 10
5.7212
 20
12.092238
 30
0.0
 11
6.950232
 21
12.092238
 31
0.0
  0
LINE
  5
717
  8
0
 10
6.950232
 20
12.092238
 30
0.0
 11
7.2212
 21
12.092238
 31
0.0
  0
LINE
  5
718
  8
0
 10
7.2212
 20
12.092238
 30
0.0
 11
7.467006
 21
12.092238
 31
0.0
  0
LINE
  5
719
  8
0
 10
7.467006
 20
12.092238
 30
0.0
 11
7.5212
 21
12.092238
 31
0.0
  0
LINE
  5
71A
  8
0
 10
7.5212
 20
12.092238
 30
0.0
 11
8.750232
 21
12.092238
 31
0.0
  0
LINE
  5
71B
  8
0
 10
8.750232
 20
12.092238
 30
0.0
 11
9.0212
 21
12.092238
 31
0.0
  0
LINE
  5
71C
  8
0
 10
9.0212
 20
12.092238
 30
0.0
 11
9.267006
 21
12.092238
 31
0.0
  0
LINE
  5
71D
  8
0
 10
9.267006
 20
12.092238
 30
0.0
 11
9.3212
 21
12.092238
 31
0.0
  0
LINE
  5
71E
  8
0
 10
9.3212
 20
12.092238
 30
0.0
 11
10.550232
 21
12.092238
 31
0.0
  0
LINE
  5
71F
  8
0
 10
10.550232
 20
12.092238
 30
0.0
 11
10.8212
 21
12.092238
 31
0.0
  0
LINE
  5
720
  8
0
 10
10.8212
 20
12.092238
 30
0.0
 11
11.067006
 21
12.092238
 31
0.0
  0
LINE
  5
721
  8
0
 10
11.067006
 20
12.092238
 30
0.0
 11
11.1212
 21
12.092238
 31
0.0
  0
LINE
  5
722
  8
0
 10
11.1212
 20
12.092238
 30
0.0
 11
12.350232
 21
12.092238
 31
0.0
  0
LINE
  5
723
  8
0
 10
12.350232
 20
12.092238
 30
0.0
 11
12.6212
 21
12.092238
 31
0.0
  0
LINE
  5
724
  8
0
 10
12.6212
 20
12.092238
 30
0.0
 11
12.867006
 21
12.092238
 31
0.0
  0
LINE
  5
725
  8
0
 10
12.867006
 20
12.092238
 30
0.0
 11
12.9212
 21
12.092238
 31
0.0
  0
LINE
  5
726
  8
0
 10
12.9212
 20
12.092238
 30
0.0
 11
14.150232
 21
12.092238
 31
0.0
  0
LINE
  5
727
  8
0
 10
14.150232
 20
12.092238
 30
0.0
 11
14.380194
 21
12.092238
 31
0.0
  0
LINE
  5
728
  8
0
 10
14.380194
 20
12.092238
 30
0.0
 11
14.626
 21
12.092238
 31
0.0
  0
LINE
  5
729
  8
0
 10
0.438
 20
12.592238
 30
0.0
 11
0.492194
 21
12.592238
 31
0.0
  0
LINE
  5
72A
  8
0
 10
0.438
 20
12.592238
 30
0.0
 11
0.492194
 21
12.592238
 31
0.0
  0
LINE
  5
72B
  8
0
 10
0.492194
 20
12.592238
 30
0.0
 11
1.547523
 21
12.592238
 31
0.0
  0
LINE
  5
72C
  8
0
 10
1.547523
 20
12.592238
 30
0.0
 11
1.81849
 21
12.592238
 31
0.0
  0
LINE
  5
72D
  8
0
 10
1.81849
 20
12.592238
 30
0.0
 11
2.064297
 21
12.592238
 31
0.0
  0
LINE
  5
72E
  8
0
 10
2.064297
 20
12.592238
 30
0.0
 11
2.11849
 21
12.592238
 31
0.0
  0
LINE
  5
72F
  8
0
 10
2.11849
 20
12.592238
 30
0.0
 11
3.347523
 21
12.592238
 31
0.0
  0
LINE
  5
730
  8
0
 10
3.347523
 20
12.592238
 30
0.0
 11
3.61849
 21
12.592238
 31
0.0
  0
LINE
  5
731
  8
0
 10
3.61849
 20
12.592238
 30
0.0
 11
3.864297
 21
12.592238
 31
0.0
  0
LINE
  5
732
  8
0
 10
3.864297
 20
12.592238
 30
0.0
 11
3.91849
 21
12.592238
 31
0.0
  0
LINE
  5
733
  8
0
 10
3.91849
 20
12.592238
 30
0.0
 11
5.147523
 21
12.592238
 31
0.0
  0
LINE
  5
734
  8
0
 10
5.147523
 20
12.592238
 30
0.0
 11
5.41849
 21
12.592238
 31
0.0
  0
LINE
  5
735
  8
0
 10
5.41849
 20
12.592238
 30
0.0
 11
5.664297
 21
12.592238
 31
0.0
  0
LINE
  5
736
  8
0
 10
5.664297
 20
12.592238
 30
0.0
 11
5.71849
 21
12.592238
 31
0.0
  0
LINE
  5
737
  8
0
 10
5.71849
 20
12.592238
 30
0.0
 11
6.947523
 21
12.592238
 31
0.0
  0
LINE
  5
738
  8
0
 10
6.947523
 20
12.592238
 30
0.0
 11
7.21849
 21
12.592238
 31
0.0
  0
LINE
  5
739
  8
0
 10
7.21849
 20
12.592238
 30
0.0
 11
7.464297
 21
12.592238
 31
0.0
  0
LINE
  5
73A
  8
0
 10
7.464297
 20
12.592238
 30
0.0
 11
7.51849
 21
12.592238
 31
0.0
  0
LINE
  5
73B
  8
0
 10
7.51849
 20
12.592238
 30
0.0
 11
8.747523
 21
12.592238
 31
0.0
  0
LINE
  5
73C
  8
0
 10
8.747523
 20
12.592238
 30
0.0
 11
9.01849
 21
12.592238
 31
0.0
  0
LINE
  5
73D
  8
0
 10
9.01849
 20
12.592238
 30
0.0
 11
9.264297
 21
12.592238
 31
0.0
  0
LINE
  5
73E
  8
0
 10
9.264297
 20
12.592238
 30
0.0
 11
9.31849
 21
12.592238
 31
0.0
  0
LINE
  5
73F
  8
0
 10
9.31849
 20
12.592238
 30
0.0
 11
10.547523
 21
12.592238
 31
0.0
  0
LINE
  5
740
  8
0
 10
10.547523
 20
12.592238
 30
0.0
 11
10.81849
 21
12.592238
 31
0.0
  0
LINE
  5
741
  8
0
 10
10.81849
 20
12.592238
 30
0.0
 11
11.064297
 21
12.592238
 31
0.0
  0
LINE
  5
742
  8
0
 10
11.064297
 20
12.592238
 30
0.0
 11
11.11849
 21
12.592238
 31
0.0
  0
LINE
  5
743
  8
0
 10
11.11849
 20
12.592238
 30
0.0
 11
12.347523
 21
12.592238
 31
0.0
  0
LINE
  5
744
  8
0
 10
12.347523
 20
12.592238
 30
0.0
 11
12.61849
 21
12.592238
 31
0.0
  0
LINE
  5
745
  8
0
 10
12.61849
 20
12.592238
 30
0.0
 11
12.864297
 21
12.592238
 31
0.0
  0
LINE
  5
746
  8
0
 10
12.864297
 20
12.592238
 30
0.0
 11
12.91849
 21
12.592238
 31
0.0
  0
LINE
  5
747
  8
0
 10
12.91849
 20
12.592238
 30
0.0
 11
14.147523
 21
12.592238
 31
0.0
  0
LINE
  5
748
  8
0
 10
14.147523
 20
12.592238
 30
0.0
 11
14.380194
 21
12.592238
 31
0.0
  0
LINE
  5
749
  8
0
 10
14.380194
 20
12.592238
 30
0.0
 11
14.626
 21
12.592238
 31
0.0
  0
LINE
  5
74A
  8
0
 10
0.451
 20
13.092238
 30
0.0
 11
0.505194
 21
13.092238
 31
0.0
  0
LINE
  5
74B
  8
0
 10
0.451
 20
13.092238
 30
0.0
 11
0.505194
 21
13.092238
 31
0.0
  0
LINE
  5
74C
  8
0
 10
0.505194
 20
13.092238
 30
0.0
 11
1.549871
 21
13.092238
 31
0.0
  0
LINE
  5
74D
  8
0
 10
1.549871
 20
13.092238
 30
0.0
 11
1.820839
 21
13.092238
 31
0.0
  0
LINE
  5
74E
  8
0
 10
1.820839
 20
13.092238
 30
0.0
 11
2.066645
 21
13.092238
 31
0.0
  0
LINE
  5
74F
  8
0
 10
2.066645
 20
13.092238
 30
0.0
 11
2.120839
 21
13.092238
 31
0.0
  0
LINE
  5
750
  8
0
 10
2.120839
 20
13.092238
 30
0.0
 11
3.349871
 21
13.092238
 31
0.0
  0
LINE
  5
751
  8
0
 10
3.349871
 20
13.092238
 30
0.0
 11
3.620839
 21
13.092238
 31
0.0
  0
LINE
  5
752
  8
0
 10
3.620839
 20
13.092238
 30
0.0
 11
3.866645
 21
13.092238
 31
0.0
  0
LINE
  5
753
  8
0
 10
3.866645
 20
13.092238
 30
0.0
 11
3.920839
 21
13.092238
 31
0.0
  0
LINE
  5
754
  8
0
 10
3.920839
 20
13.092238
 30
0.0
 11
5.149871
 21
13.092238
 31
0.0
  0
LINE
  5
755
  8
0
 10
5.149871
 20
13.092238
 30
0.0
 11
5.420839
 21
13.092238
 31
0.0
  0
LINE
  5
756
  8
0
 10
5.420839
 20
13.092238
 30
0.0
 11
5.666645
 21
13.092238
 31
0.0
  0
LINE
  5
757
  8
0
 10
5.666645
 20
13.092238
 30
0.0
 11
5.720839
 21
13.092238
 31
0.0
  0
LINE
  5
758
  8
0
 10
5.720839
 20
13.092238
 30
0.0
 11
6.949871
 21
13.092238
 31
0.0
  0
LINE
  5
759
  8
0
 10
6.949871
 20
13.092238
 30
0.0
 11
7.220839
 21
13.092238
 31
0.0
  0
LINE
  5
75A
  8
0
 10
7.220839
 20
13.092238
 30
0.0
 11
7.466645
 21
13.092238
 31
0.0
  0
LINE
  5
75B
  8
0
 10
7.466645
 20
13.092238
 30
0.0
 11
7.520839
 21
13.092238
 31
0.0
  0
LINE
  5
75C
  8
0
 10
7.520839
 20
13.092238
 30
0.0
 11
8.749871
 21
13.092238
 31
0.0
  0
LINE
  5
75D
  8
0
 10
8.749871
 20
13.092238
 30
0.0
 11
9.020839
 21
13.092238
 31
0.0
  0
LINE
  5
75E
  8
0
 10
9.020839
 20
13.092238
 30
0.0
 11
9.266645
 21
13.092238
 31
0.0
  0
LINE
  5
75F
  8
0
 10
9.266645
 20
13.092238
 30
0.0
 11
9.320839
 21
13.092238
 31
0.0
  0
LINE
  5
760
  8
0
 10
9.320839
 20
13.092238
 30
0.0
 11
10.549871
 21
13.092238
 31
0.0
  0
LINE
  5
761
  8
0
 10
10.549871
 20
13.092238
 30
0.0
 11
10.820839
 21
13.092238
 31
0.0
  0
LINE
  5
762
  8
0
 10
10.820839
 20
13.092238
 30
0.0
 11
11.066645
 21
13.092238
 31
0.0
  0
LINE
  5
763
  8
0
 10
11.066645
 20
13.092238
 30
0.0
 11
11.120839
 21
13.092238
 31
0.0
  0
LINE
  5
764
  8
0
 10
11.120839
 20
13.092238
 30
0.0
 11
12.349871
 21
13.092238
 31
0.0
  0
LINE
  5
765
  8
0
 10
12.349871
 20
13.092238
 30
0.0
 11
12.620839
 21
13.092238
 31
0.0
  0
LINE
  5
766
  8
0
 10
12.620839
 20
13.092238
 30
0.0
 11
12.866645
 21
13.092238
 31
0.0
  0
LINE
  5
767
  8
0
 10
12.866645
 20
13.092238
 30
0.0
 11
12.920839
 21
13.092238
 31
0.0
  0
LINE
  5
768
  8
0
 10
12.920839
 20
13.092238
 30
0.0
 11
14.149871
 21
13.092238
 31
0.0
  0
LINE
  5
769
  8
0
 10
14.149871
 20
13.092238
 30
0.0
 11
14.380194
 21
13.092238
 31
0.0
  0
LINE
  5
76A
  8
0
 10
14.380194
 20
13.092238
 30
0.0
 11
14.626
 21
13.092238
 31
0.0
  0
LINE
  5
76B
  8
0
 10
0.511
 20
13.592238
 30
0.0
 11
0.565194
 21
13.592238
 31
0.0
  0
LINE
  5
76C
  8
0
 10
0.511
 20
13.592238
 30
0.0
 11
0.565194
 21
13.592238
 31
0.0
  0
LINE
  5
76D
  8
0
 10
0.565194
 20
13.592238
 30
0.0
 11
1.56071
 21
13.592238
 31
0.0
  0
LINE
  5
76E
  8
0
 10
1.56071
 20
13.592238
 30
0.0
 11
1.831677
 21
13.592238
 31
0.0
  0
LINE
  5
76F
  8
0
 10
1.831677
 20
13.592238
 30
0.0
 11
2.077484
 21
13.592238
 31
0.0
  0
LINE
  5
770
  8
0
 10
2.077484
 20
13.592238
 30
0.0
 11
2.131677
 21
13.592238
 31
0.0
  0
LINE
  5
771
  8
0
 10
2.131677
 20
13.592238
 30
0.0
 11
3.36071
 21
13.592238
 31
0.0
  0
LINE
  5
772
  8
0
 10
3.36071
 20
13.592238
 30
0.0
 11
3.631677
 21
13.592238
 31
0.0
  0
LINE
  5
773
  8
0
 10
3.631677
 20
13.592238
 30
0.0
 11
3.877484
 21
13.592238
 31
0.0
  0
LINE
  5
774
  8
0
 10
3.877484
 20
13.592238
 30
0.0
 11
3.931677
 21
13.592238
 31
0.0
  0
LINE
  5
775
  8
0
 10
3.931677
 20
13.592238
 30
0.0
 11
5.16071
 21
13.592238
 31
0.0
  0
LINE
  5
776
  8
0
 10
5.16071
 20
13.592238
 30
0.0
 11
5.431677
 21
13.592238
 31
0.0
  0
LINE
  5
777
  8
0
 10
5.431677
 20
13.592238
 30
0.0
 11
5.677484
 21
13.592238
 31
0.0
  0
LINE
  5
778
  8
0
 10
5.677484
 20
13.592238
 30
0.0
 11
5.731677
 21
13.592238
 31
0.0
  0
LINE
  5
779
  8
0
 10
5.731677
 20
13.592238
 30
0.0
 11
6.96071
 21
13.592238
 31
0.0
  0
LINE
  5
77A
  8
0
 10
6.96071
 20
13.592238
 30
0.0
 11
7.231677
 21
13.592238
 31
0.0
  0
LINE
  5
77B
  8
0
 10
7.231677
 20
13.592238
 30
0.0
 11
7.477484
 21
13.592238
 31
0.0
  0
LINE
  5
77C
  8
0
 10
7.477484
 20
13.592238
 30
0.0
 11
7.531677
 21
13.592238
 31
0.0
  0
LINE
  5
77D
  8
0
 10
7.531677
 20
13.592238
 30
0.0
 11
8.76071
 21
13.592238
 31
0.0
  0
LINE
  5
77E
  8
0
 10
8.76071
 20
13.592238
 30
0.0
 11
9.031677
 21
13.592238
 31
0.0
  0
LINE
  5
77F
  8
0
 10
9.031677
 20
13.592238
 30
0.0
 11
9.277484
 21
13.592238
 31
0.0
  0
LINE
  5
780
  8
0
 10
9.277484
 20
13.592238
 30
0.0
 11
9.331677
 21
13.592238
 31
0.0
  0
LINE
  5
781
  8
0
 10
9.331677
 20
13.592238
 30
0.0
 11
10.56071
 21
13.592238
 31
0.0
  0
LINE
  5
782
  8
0
 10
10.56071
 20
13.592238
 30
0.0
 11
10.831677
 21
13.592238
 31
0.0
  0
LINE
  5
783
  8
0
 10
10.831677
 20
13.592238
 30
0.0
 11
11.077484
 21
13.592238
 31
0.0
  0
LINE
  5
784
  8
0
 10
11.077484
 20
13.592238
 30
0.0
 11
11.131677
 21
13.592238
 31
0.0
  0
LINE
  5
785
  8
0
 10
11.131677
 20
13.592238
 30
0.0
 11
12.36071
 21
13.592238
 31
0.0
  0
LINE
  5
786
  8
0
 10
12.36071
 20
13.592238
 30
0.0
 11
12.631677
 21
13.592238
 31
0.0
  0
LINE
  5
787
  8
0
 10
12.631677
 20
13.592238
 30
0.0
 11
12.877484
 21
13.592238
 31
0.0
  0
LINE
  5
788
  8
0
 10
12.877484
 20
13.592238
 30
0.0
 11
12.931677
 21
13.592238
 31
0.0
  0
LINE
  5
789
  8
0
 10
12.931677
 20
13.592238
 30
0.0
 11
14.16071
 21
13.592238
 31
0.0
  0
LINE
  5
78A
  8
0
 10
14.16071
 20
13.592238
 30
0.0
 11
14.380194
 21
13.592238
 31
0.0
  0
LINE
  5
78B
  8
0
 10
14.380194
 20
13.592238
 30
0.0
 11
14.626
 21
13.592238
 31
0.0
  0
LINE
  5
78C
  8
0
 10
0.654
 20
14.092238
 30
0.0
 11
0.708194
 21
14.092238
 31
0.0
  0
LINE
  5
78D
  8
0
 10
0.654
 20
14.092238
 30
0.0
 11
0.708194
 21
14.092238
 31
0.0
  0
LINE
  5
78E
  8
0
 10
0.708194
 20
14.092238
 30
0.0
 11
1.586542
 21
14.092238
 31
0.0
  0
LINE
  5
78F
  8
0
 10
1.586542
 20
14.092238
 30
0.0
 11
1.85751
 21
14.092238
 31
0.0
  0
LINE
  5
790
  8
0
 10
1.85751
 20
14.092238
 30
0.0
 11
2.103316
 21
14.092238
 31
0.0
  0
LINE
  5
791
  8
0
 10
2.103316
 20
14.092238
 30
0.0
 11
2.15751
 21
14.092238
 31
0.0
  0
LINE
  5
792
  8
0
 10
2.15751
 20
14.092238
 30
0.0
 11
3.386542
 21
14.092238
 31
0.0
  0
LINE
  5
793
  8
0
 10
3.386542
 20
14.092238
 30
0.0
 11
3.65751
 21
14.092238
 31
0.0
  0
LINE
  5
794
  8
0
 10
3.65751
 20
14.092238
 30
0.0
 11
3.903316
 21
14.092238
 31
0.0
  0
LINE
  5
795
  8
0
 10
3.903316
 20
14.092238
 30
0.0
 11
3.95751
 21
14.092238
 31
0.0
  0
LINE
  5
796
  8
0
 10
3.95751
 20
14.092238
 30
0.0
 11
5.186542
 21
14.092238
 31
0.0
  0
LINE
  5
797
  8
0
 10
5.186542
 20
14.092238
 30
0.0
 11
5.45751
 21
14.092238
 31
0.0
  0
LINE
  5
798
  8
0
 10
5.45751
 20
14.092238
 30
0.0
 11
5.703316
 21
14.092238
 31
0.0
  0
LINE
  5
799
  8
0
 10
5.703316
 20
14.092238
 30
0.0
 11
5.75751
 21
14.092238
 31
0.0
  0
LINE
  5
79A
  8
0
 10
5.75751
 20
14.092238
 30
0.0
 11
6.986542
 21
14.092238
 31
0.0
  0
LINE
  5
79B
  8
0
 10
6.986542
 20
14.092238
 30
0.0
 11
7.25751
 21
14.092238
 31
0.0
  0
LINE
  5
79C
  8
0
 10
7.25751
 20
14.092238
 30
0.0
 11
7.503316
 21
14.092238
 31
0.0
  0
LINE
  5
79D
  8
0
 10
7.503316
 20
14.092238
 30
0.0
 11
7.55751
 21
14.092238
 31
0.0
  0
LINE
  5
79E
  8
0
 10
7.55751
 20
14.092238
 30
0.0
 11
8.786542
 21
14.092238
 31
0.0
  0
LINE
  5
79F
  8
0
 10
8.786542
 20
14.092238
 30
0.0
 11
9.05751
 21
14.092238
 31
0.0
  0
LINE
  5
7A0
  8
0
 10
9.05751
 20
14.092238
 30
0.0
 11
9.303316
 21
14.092238
 31
0.0
  0
LINE
  5
7A1
  8
0
 10
9.303316
 20
14.092238
 30
0.0
 11
9.35751
 21
14.092238
 31
0.0
  0
LINE
  5
7A2
  8
0
 10
9.35751
 20
14.092238
 30
0.0
 11
10.586542
 21
14.092238
 31
0.0
  0
LINE
  5
7A3
  8
0
 10
10.586542
 20
14.092238
 30
0.0
 11
10.85751
 21
14.092238
 31
0.0
  0
LINE
  5
7A4
  8
0
 10
10.85751
 20
14.092238
 30
0.0
 11
11.103316
 21
14.092238
 31
0.0
  0
LINE
  5
7A5
  8
0
 10
11.103316
 20
14.092238
 30
0.0
 11
11.15751
 21
14.092238
 31
0.0
  0
LINE
  5
7A6
  8
0
 10
11.15751
 20
14.092238
 30
0.0
 11
12.386542
 21
14.092238
 31
0.0
  0
LINE
  5
7A7
  8
0
 10
12.386542
 20
14.092238
 30
0.0
 11
12.65751
 21
14.092238
 31
0.0
  0
LINE
  5
7A8
  8
0
 10
12.65751
 20
14.092238
 30
0.0
 11
12.903316
 21
14.092238
 31
0.0
  0
LINE
  5
7A9
  8
0
 10
12.903316
 20
14.092238
 30
0.0
 11
12.95751
 21
14.092238
 31
0.0
  0
LINE
  5
7AA
  8
0
 10
12.95751
 20
14.092238
 30
0.0
 11
14.186542
 21
14.092238
 31
0.0
  0
LINE
  5
7AB
  8
0
 10
14.186542
 20
14.092238
 30
0.0
 11
14.380194
 21
14.092238
 31
0.0
  0
LINE
  5
7AC
  8
0
 10
14.380194
 20
14.092238
 30
0.0
 11
14.626
 21
14.092238
 31
0.0
  0
LINE
  5
7AD
  8
0
 10
1.221
 20
14.592238
 30
0.0
 11
1.275194
 21
14.592238
 31
0.0
  0
LINE
  5
7AE
  8
0
 10
1.221
 20
14.592238
 30
0.0
 11
1.275194
 21
14.592238
 31
0.0
  0
LINE
  5
7AF
  8
0
 10
1.275194
 20
14.592238
 30
0.0
 11
1.688968
 21
14.592238
 31
0.0
  0
LINE
  5
7B0
  8
0
 10
1.688968
 20
14.592238
 30
0.0
 11
1.934774
 21
14.592238
 31
0.0
  0
LINE
  5
7B1
  8
0
 10
1.934774
 20
14.592238
 30
0.0
 11
2.205742
 21
14.592238
 31
0.0
  0
LINE
  5
7B2
  8
0
 10
2.205742
 20
14.592238
 30
0.0
 11
3.434774
 21
14.592238
 31
0.0
  0
LINE
  5
7B3
  8
0
 10
3.434774
 20
14.592238
 30
0.0
 11
3.488968
 21
14.592238
 31
0.0
  0
LINE
  5
7B4
  8
0
 10
3.488968
 20
14.592238
 30
0.0
 11
3.734774
 21
14.592238
 31
0.0
  0
LINE
  5
7B5
  8
0
 10
3.734774
 20
14.592238
 30
0.0
 11
4.005742
 21
14.592238
 31
0.0
  0
LINE
  5
7B6
  8
0
 10
4.005742
 20
14.592238
 30
0.0
 11
5.234774
 21
14.592238
 31
0.0
  0
LINE
  5
7B7
  8
0
 10
5.234774
 20
14.592238
 30
0.0
 11
5.288968
 21
14.592238
 31
0.0
  0
LINE
  5
7B8
  8
0
 10
5.288968
 20
14.592238
 30
0.0
 11
5.534774
 21
14.592238
 31
0.0
  0
LINE
  5
7B9
  8
0
 10
5.534774
 20
14.592238
 30
0.0
 11
5.687961
 21
14.592238
 31
0.0
  0
LINE
  5
7BA
  8
0
 10
5.687961
 20
14.592238
 30
0.0
 11
5.742155
 21
14.592238
 31
0.0
  0
LINE
  5
7BB
  8
0
 10
5.742155
 20
14.592238
 30
0.0
 11
6.971187
 21
14.592238
 31
0.0
  0
LINE
  5
7BC
  8
0
 10
6.971187
 20
14.592238
 30
0.0
 11
7.242155
 21
14.592238
 31
0.0
  0
LINE
  5
7BD
  8
0
 10
7.242155
 20
14.592238
 30
0.0
 11
7.487961
 21
14.592238
 31
0.0
  0
LINE
  5
7BE
  8
0
 10
7.487961
 20
14.592238
 30
0.0
 11
7.542155
 21
14.592238
 31
0.0
  0
LINE
  5
7BF
  8
0
 10
7.542155
 20
14.592238
 30
0.0
 11
8.771187
 21
14.592238
 31
0.0
  0
LINE
  5
7C0
  8
0
 10
8.771187
 20
14.592238
 30
0.0
 11
9.042155
 21
14.592238
 31
0.0
  0
LINE
  5
7C1
  8
0
 10
9.042155
 20
14.592238
 30
0.0
 11
9.287961
 21
14.592238
 31
0.0
  0
LINE
  5
7C2
  8
0
 10
9.287961
 20
14.592238
 30
0.0
 11
9.342155
 21
14.592238
 31
0.0
  0
LINE
  5
7C3
  8
0
 10
9.342155
 20
14.592238
 30
0.0
 11
10.571187
 21
14.592238
 31
0.0
  0
LINE
  5
7C4
  8
0
 10
10.571187
 20
14.592238
 30
0.0
 11
10.842155
 21
14.592238
 31
0.0
  0
LINE
  5
7C5
  8
0
 10
10.842155
 20
14.592238
 30
0.0
 11
11.087961
 21
14.592238
 31
0.0
  0
LINE
  5
7C6
  8
0
 10
11.087961
 20
14.592238
 30
0.0
 11
11.142155
 21
14.592238
 31
0.0
  0
LINE
  5
7C7
  8
0
 10
11.142155
 20
14.592238
 30
0.0
 11
12.371187
 21
14.592238
 31
0.0
  0
LINE
  5
7C8
  8
0
 10
12.371187
 20
14.592238
 30
0.0
 11
12.642155
 21
14.592238
 31
0.0
  0
LINE
  5
7C9
  8
0
 10
12.642155
 20
14.592238
 30
0.0
 11
12.887961
 21
14.592238
 31
0.0
  0
LINE
  5
7CA
  8
0
 10
12.887961
 20
14.592238
 30
0.0
 11
12.942155
 21
14.592238
 31
0.0
  0
LINE
  5
7CB
  8
0
 10
12.942155
 20
14.592238
 30
0.0
 11
14.171187
 21
14.592238
 31
0.0
  0
LINE
  5
7CC
  8
0
 10
14.171187
 20
14.592238
 30
0.0
 11
14.380194
 21
14.592238
 31
0.0
  0
LINE
  5
7CD
  8
0
 10
14.380194
 20
14.592238
 30
0.0
 11
14.626
 21
14.592238
 31
0.0
  0
ENDSEC
  0
EOF
