  0
SECTION
  2
HEADER
  9
$ACADVER
  1
AC1009
  9
$DWGCODEPAGE
  3
ANSI_1252
  9
$INSBASE
 10
0.0
 20
0.0
 30
0.0
  9
$EXTMIN
 10
1e+20
 20
1e+20
 30
1e+20
  9
$EXTMAX
 10
-1e+20
 20
-1e+20
 30
-1e+20
  9
$LIMMIN
 10
0.0
 20
0.0
  9
$LIMMAX
 10
420.0
 20
297.0
  9
$ORTHOMODE
 70
0
  9
$REGENMODE
 70
1
  9
$FILLMODE
 70
1
  9
$DRAGMODE
 70
2
  9
$QTEXTMODE
 70
0
  9
$MIRRTEXT
 70
1
  9
$OSMODE
 70
20583
  9
$LTSCALE
 40
1.0
  9
$ATTMODE
 70
1
  9
$TEXTSIZE
 40
2.5
  9
$TRACEWID
 40
1.0
  9
$TEXTSTYLE
  7
Standard
  9
$CLAYER
  8
0
  9
$CELTYPE
  6
ByLayer
  9
$CECOLOR
 62
256
  9
$DIMSCALE
 40
1.0
  9
$DIMASZ
 40
2.5
  9
$DIMEXO
 40
0.625
  9
$DIMDLI
 40
3.75
  9
$DIMRND
 40
0.0
  9
$DIMDLE
 40
0.0
  9
$DIMEXE
 40
1.25
  9
$DIMTP
 40
0.0
  9
$DIMTM
 40
0.0
  9
$DIMTXT
 40
2.5
  9
$DIMCEN
 40
2.5
  9
$DIMTSZ
 40
0.0
  9
$DIMTOL
 70
0
  9
$DIMLIM
 70
0
  9
$DIMTIH
 70
0
  9
$DIMTOH
 70
0
  9
$DIMSE1
 70
0
  9
$DIMSE2
 70
0
  9
$DIMTAD
 70
1
  9
$DIMZIN
 70
8
  9
$DIMBLK
  1

  9
$DIMASO
 70
1
  9
$DIMSHO
 70
1
  9
$DIMPOST
  1

  9
$DIMAPOST
  1

  9
$DIMALT
 70
0
  9
$DIMALTD
 70
3
  9
$DIMALTF
 40
0.03937007874
  9
$DIMLFAC
 40
1.0
  9
$DIMTOFL
 70
1
  9
$DIMTVP
 40
0.0
  9
$DIMTIX
 70
0
  9
$DIMSOXD
 70
0
  9
$DIMSAH
 70
0
  9
$DIMBLK1
  1

  9
$DIMBLK2
  1

  9
$DIMSTYLE
  2
ISO-25
  9
$DIMCLRD
 70
0
  9
$DIMCLRE
 70
0
  9
$DIMCLRT
 70
0
  9
$DIMTFAC
 40
1.0
  9
$DIMGAP
 40
0.625
  9
$COORDS
 70
1
  9
$ATTDIA
 70
0
  9
$ATTREQ
 70
1
  9
$HANDLING
 70
1
  9
$LUNITS
 70
2
  9
$LUPREC
 70
4
  9
$SKETCHINC
 40
1.0
  9
$FILLETRAD
 40
10.0
  9
$AUNITS
 70
0
  9
$AUPREC
 70
2
  9
$MENU
  1
.
  9
$ELEVATION
 40
0.0
  9
$PELEVATION
 40
0.0
  9
$THICKNESS
 40
0.0
  9
$LIMCHECK
 70
0
  9
$CHAMFERA
 40
0.0
  9
$CHAMFERB
 40
0.0
  9
$SKPOLY
 70
0
  9
$TDCREATE
 40
2460888.3960185186
  9
$TDUPDATE
 40
2460888.3960300926
  9
$TDINDWG
 40
0.0
  9
$TDUSRTIMER
 40
0.0
  9
$USRTIMER
 70
1
  9
$ANGBASE
 50
0.0
  9
$ANGDIR
 70
0
  9
$PDMODE
 70
0
  9
$PDSIZE
 40
0.0
  9
$PLINEWID
 40
0.0
  9
$SPLFRAME
 70
0
  9
$SPLINETYPE
 70
6
  9
$SPLINESEGS
 70
8
  9
$HANDSEED
  5
7D0
  9
$SURFTAB1
 70
6
  9
$SURFTAB2
 70
6
  9
$SURFTYPE
 70
6
  9
$SURFU
 70
6
  9
$SURFV
 70
6
  9
$UCSNAME
  2

  9
$UCSORG
 10
0.0
 20
0.0
 30
0.0
  9
$UCSXDIR
 10
1.0
 20
0.0
 30
0.0
  9
$UCSYDIR
 10
0.0
 20
1.0
 30
0.0
  9
$PUCSNAME
  2

  9
$PUCSORG
 10
0.0
 20
0.0
 30
0.0
  9
$PUCSXDIR
 10
1.0
 20
0.0
 30
0.0
  9
$PUCSYDIR
 10
0.0
 20
1.0
 30
0.0
  9
$USERI1
 70
0
  9
$USERI2
 70
0
  9
$USERI3
 70
0
  9
$USERI4
 70
0
  9
$USERI5
 70
0
  9
$USERR1
 40
0.0
  9
$USERR2
 40
0.0
  9
$USERR3
 40
0.0
  9
$USERR4
 40
0.0
  9
$USERR5
 40
0.0
  9
$WORLDVIEW
 70
1
  9
$SHADEDGE
 70
3
  9
$SHADEDIF
 70
70
  9
$TILEMODE
 70
1
  9
$MAXACTVP
 70
64
  9
$PLIMCHECK
 70
0
  9
$PEXTMIN
 10
1e+20
 20
1e+20
 30
1e+20
  9
$PEXTMAX
 10
-1e+20
 20
-1e+20
 30
-1e+20
  9
$PLIMMIN
 10
0.0
 20
0.0
  9
$PLIMMAX
 10
420.0
 20
297.0
  9
$UNITMODE
 70
0
  9
$VISRETAIN
 70
1
  9
$PLINEGEN
 70
0
  9
$PSLTSCALE
 70
1
  0
ENDSEC
  0
SECTION
  2
TABLES
  0
TABLE
  2
VPORT
 70
1
  0
VPORT
  5
23
  2
*Active
 70
0
 10
0.0
 20
0.0
 11
1.0
 21
1.0
 12
0.0
 22
0.0
 13
0.0
 23
0.0
 14
0.5
 24
0.5
 15
0.5
 25
0.5
 16
0.0
 26
0.0
 36
1.0
 17
0.0
 27
0.0
 37
0.0
 40
1000.0
 41
1.34
 42
50.0
 43
0.0
 44
0.0
 50
0.0
 51
0.0
 71
0
 72
1000
 73
1
 74
3
 75
0
 76
0
 77
0
 78
0
  0
ENDTAB
  0
TABLE
  2
LTYPE
 70
3
  0
LTYPE
  5
24
  2
ByBlock
 70
0
  3

 72
65
 73
0
 40
0.0
  0
LTYPE
  5
25
  2
ByLayer
 70
0
  3

 72
65
 73
0
 40
0.0
  0
LTYPE
  5
26
  2
Continuous
 70
0
  3

 72
65
 73
0
 40
0.0
  0
ENDTAB
  0
TABLE
  2
LAYER
 70
2
  0
LAYER
  5
27
  2
0
 70
0
 62
7
  6
Continuous
  0
LAYER
  5
28
  2
Defpoints
 70
0
 62
7
  6
Continuous
  0
ENDTAB
  0
TABLE
  2
STYLE
 70
1
  0
STYLE
  5
29
  2
Standard
 70
0
 40
0.0
 41
1.0
 50
0.0
 71
0
 42
2.5
  3
txt
  4

  0
ENDTAB
  0
TABLE
  2
VIEW
 70
0
  0
ENDTAB
  0
TABLE
  2
UCS
 70
0
  0
ENDTAB
  0
TABLE
  2
APPID
 70
3
  0
APPID
  5
2A
  2
ACAD
 70
0
  0
APPID
  5
7CE
  2
HATCHBACKGROUNDCOLOR
 70
0
  0
APPID
  5
7CF
  2
EZDXF
 70
0
  0
ENDTAB
  0
TABLE
  2
DIMSTYLE
 70
1
  0
DIMSTYLE
105
2B
  2
Standard
 70
0
  3

  4

  5

  6

  7

 40
1.0
 41
2.5
 42
0.625
 43
3.75
 44
1.25
 45
0.0
 46
0.0
 47
0.0
 48
0.0
140
2.5
141
2.5
142
0.0
143
0.03937007874
144
1.0
145
0.0
146
1.0
147
0.625
 71
0
 72
0
 73
0
 74
0
 75
0
 76
0
 77
1
 78
8
170
0
171
3
172
1
173
0
174
0
175
0
176
0
177
0
178
0
  0
ENDTAB
  0
ENDSEC
  0
SECTION
  2
BLOCKS
  0
BLOCK
  5
18
  8
0
  2
$Model_Space
 70
0
 10
0.0
 20
0.0
 30
0.0
  3
$Model_Space
  1

1001
EZDXF
1000
CREATED_BY_EZDXF
1000
1.4.2 @ 2025-07-31T12:30:16.951598+00:00
1000
WRITTEN_BY_EZDXF
1000
1.4.2 @ 2025-07-31T12:30:17.045343+00:00
  0
ENDBLK
  5
19
  8
0
  0
BLOCK
  5
1C
  8
0
  2
$Paper_Space
 70
0
 10
0.0
 20
0.0
 30
0.0
  3
$Paper_Space
  1

  0
ENDBLK
  5
1D
  8
0
  0
ENDSEC
  0
SECTION
  2
ENTITIES
  0
LINE
  5
2D
  8
0
 10
2.4162
 20
0.431372
 30
0.0
 11
7.254158
 21
0.57935
 31
0.0
  0
LINE
  5
2E
  8
0
 10
7.254158
 20
0.57935
 30
0.0
 11
12.819565
 21
0.449261
 31
0.0
  0
LINE
  5
2F
  8
0
 10
12.819565
 20
0.449261
 30
0.0
 11
13.764354
 21
0.559498
 31
0.0
  0
LINE
  5
30
  8
0
 10
13.764354
 20
0.559498
 30
0.0
 11
14.311402
 21
0.796016
 31
0.0
  0
LINE
  5
31
  8
0
 10
14.311402
 20
0.796016
 30
0.0
 11
14.634964
 21
1.362851
 31
0.0
  0
LINE
  5
32
  8
0
 10
14.634964
 20
1.362851
 30
0.0
 11
14.748896
 21
2.320802
 31
0.0
  0
LINE
  5
33
  8
0
 10
14.748896
 20
2.320802
 30
0.0
 11
14.624956
 21
14.624858
 31
0.0
  0
LINE
  5
34
  8
0
 10
14.624956
 20
14.624858
 30
0.0
 11
2.339743
 21
14.750359
 31
0.0
  0
LINE
  5
35
  8
0
 10
2.339743
 20
14.750359
 30
0.0
 11
1.268988
 21
14.613365
 31
0.0
  0
LINE
  5
36
  8
0
 10
1.268988
 20
14.613365
 30
0.0
 11
0.826406
 21
14.347043
 31
0.0
  0
LINE
  5
37
  8
0
 10
0.826406
 20
14.347043
 30
0.0
 11
0.519604
 21
13.641945
 31
0.0
  0
LINE
  5
38
  8
0
 10
0.519604
 20
13.641945
 30
0.0
 11
0.436496
 21
12.720897
 31
0.0
  0
LINE
  5
39
  8
0
 10
0.436496
 20
12.720897
 30
0.0
 11
0.581712
 21
7.857409
 31
0.0
  0
LINE
  5
3A
  8
0
 10
0.581712
 20
7.857409
 30
0.0
 11
0.462952
 21
2.038255
 31
0.0
  0
LINE
  5
3B
  8
0
 10
0.462952
 20
2.038255
 30
0.0
 11
0.542222
 21
1.406427
 31
0.0
  0
LINE
  5
3C
  8
0
 10
0.542222
 20
1.406427
 30
0.0
 11
0.806799
 21
0.85731
 31
0.0
  0
LINE
  5
3D
  8
0
 10
0.806799
 20
0.85731
 30
0.0
 11
1.403294
 21
0.543116
 31
0.0
  0
LINE
  5
3E
  8
0
 10
1.403294
 20
0.543116
 30
0.0
 11
2.4162
 21
0.431372
 31
0.0
  0
LINE
  5
3F
  8
0
 10
2.4162
 20
0.431372
 30
0.0
 11
2.4162
 21
0.431372
 31
0.0
  0
LINE
  5
40
  8
0
 10
2.4162
 20
0.431372
 30
0.0
 11
7.254158
 21
0.57935
 31
0.0
  0
LINE
  5
41
  8
0
 10
7.254158
 20
0.57935
 30
0.0
 11
12.819565
 21
0.449261
 31
0.0
  0
LINE
  5
42
  8
0
 10
12.819565
 20
0.449261
 30
0.0
 11
13.764354
 21
0.559498
 31
0.0
  0
LINE
  5
43
  8
0
 10
13.764354
 20
0.559498
 30
0.0
 11
14.311402
 21
0.796016
 31
0.0
  0
LINE
  5
44
  8
0
 10
14.311402
 20
0.796016
 30
0.0
 11
14.634964
 21
1.362851
 31
0.0
  0
LINE
  5
45
  8
0
 10
14.634964
 20
1.362851
 30
0.0
 11
14.748896
 21
2.320802
 31
0.0
  0
LINE
  5
46
  8
0
 10
14.748896
 20
2.320802
 30
0.0
 11
14.624956
 21
14.624858
 31
0.0
  0
LINE
  5
47
  8
0
 10
14.624956
 20
14.624858
 30
0.0
 11
2.339743
 21
14.750359
 31
0.0
  0
LINE
  5
48
  8
0
 10
2.339743
 20
14.750359
 30
0.0
 11
1.268988
 21
14.613365
 31
0.0
  0
LINE
  5
49
  8
0
 10
1.268988
 20
14.613365
 30
0.0
 11
0.826406
 21
14.347043
 31
0.0
  0
LINE
  5
4A
  8
0
 10
0.826406
 20
14.347043
 30
0.0
 11
0.519604
 21
13.641945
 31
0.0
  0
LINE
  5
4B
  8
0
 10
0.519604
 20
13.641945
 30
0.0
 11
0.436496
 21
12.720897
 31
0.0
  0
LINE
  5
4C
  8
0
 10
0.436496
 20
12.720897
 30
0.0
 11
0.581712
 21
7.857409
 31
0.0
  0
LINE
  5
4D
  8
0
 10
0.581712
 20
7.857409
 30
0.0
 11
0.462952
 21
2.038255
 31
0.0
  0
LINE
  5
4E
  8
0
 10
0.462952
 20
2.038255
 30
0.0
 11
0.542222
 21
1.406427
 31
0.0
  0
LINE
  5
4F
  8
0
 10
0.542222
 20
1.406427
 30
0.0
 11
0.806799
 21
0.85731
 31
0.0
  0
LINE
  5
50
  8
0
 10
0.806799
 20
0.85731
 30
0.0
 11
1.403294
 21
0.543116
 31
0.0
  0
LINE
  5
51
  8
0
 10
1.403294
 20
0.543116
 30
0.0
 11
2.4162
 21
0.431372
 31
0.0
  0
LINE
  5
52
  8
0
 10
2.4162
 20
0.431372
 30
0.0
 11
2.4162
 21
0.431372
 31
0.0
  0
LINE
  5
53
  8
0
 10
0.592849
 20
1.254
 30
0.0
 11
0.592849
 21
1.265367
 31
0.0
  0
LINE
  5
54
  8
0
 10
0.592849
 20
1.254
 30
0.0
 11
0.592849
 21
1.265367
 31
0.0
  0
LINE
  5
55
  8
0
 10
0.592849
 20
1.265367
 30
0.0
 11
0.592849
 21
1.519898
 31
0.0
  0
LINE
  5
56
  8
0
 10
0.592849
 20
1.519898
 30
0.0
 11
0.592849
 21
1.747306
 31
0.0
  0
LINE
  5
57
  8
0
 10
0.592849
 20
1.747306
 30
0.0
 11
0.592849
 21
3.019887
 31
0.0
  0
LINE
  5
58
  8
0
 10
0.592849
 20
3.019887
 30
0.0
 11
0.592849
 21
3.065371
 31
0.0
  0
LINE
  5
59
  8
0
 10
0.592849
 20
3.065371
 30
0.0
 11
0.592849
 21
3.319887
 31
0.0
  0
LINE
  5
5A
  8
0
 10
0.592849
 20
3.319887
 30
0.0
 11
0.592849
 21
3.547306
 31
0.0
  0
LINE
  5
5B
  8
0
 10
0.592849
 20
3.547306
 30
0.0
 11
0.592849
 21
4.819887
 31
0.0
  0
LINE
  5
5C
  8
0
 10
0.592849
 20
4.819887
 30
0.0
 11
0.592849
 21
4.865371
 31
0.0
  0
LINE
  5
5D
  8
0
 10
0.592849
 20
4.865371
 30
0.0
 11
0.592849
 21
5.119887
 31
0.0
  0
LINE
  5
5E
  8
0
 10
0.592849
 20
5.119887
 30
0.0
 11
0.592849
 21
5.347306
 31
0.0
  0
LINE
  5
5F
  8
0
 10
0.592849
 20
5.347306
 30
0.0
 11
0.592849
 21
6.619887
 31
0.0
  0
LINE
  5
60
  8
0
 10
0.592849
 20
6.619887
 30
0.0
 11
0.592849
 21
6.665371
 31
0.0
  0
LINE
  5
61
  8
0
 10
0.592849
 20
6.665371
 30
0.0
 11
0.592849
 21
6.919887
 31
0.0
  0
LINE
  5
62
  8
0
 10
0.592849
 20
6.919887
 30
0.0
 11
0.592849
 21
7.147306
 31
0.0
  0
LINE
  5
63
  8
0
 10
0.592849
 20
7.147306
 30
0.0
 11
0.592849
 21
8.419887
 31
0.0
  0
LINE
  5
64
  8
0
 10
0.592849
 20
8.419887
 30
0.0
 11
0.592849
 21
8.465371
 31
0.0
  0
LINE
  5
65
  8
0
 10
0.592849
 20
8.465371
 30
0.0
 11
0.592849
 21
8.719887
 31
0.0
  0
LINE
  5
66
  8
0
 10
0.592849
 20
8.719887
 30
0.0
 11
0.592849
 21
8.947306
 31
0.0
  0
LINE
  5
67
  8
0
 10
0.592849
 20
8.947306
 30
0.0
 11
0.592849
 21
10.219887
 31
0.0
  0
LINE
  5
68
  8
0
 10
0.592849
 20
10.219887
 30
0.0
 11
0.592849
 21
10.265371
 31
0.0
  0
LINE
  5
69
  8
0
 10
0.592849
 20
10.265371
 30
0.0
 11
0.592849
 21
10.519887
 31
0.0
  0
LINE
  5
6A
  8
0
 10
0.592849
 20
10.519887
 30
0.0
 11
0.592849
 21
10.747306
 31
0.0
  0
LINE
  5
6B
  8
0
 10
0.592849
 20
10.747306
 30
0.0
 11
0.592849
 21
12.019887
 31
0.0
  0
LINE
  5
6C
  8
0
 10
0.592849
 20
12.019887
 30
0.0
 11
0.592849
 21
12.065371
 31
0.0
  0
LINE
  5
6D
  8
0
 10
0.592849
 20
12.065371
 30
0.0
 11
0.592849
 21
12.319887
 31
0.0
  0
LINE
  5
6E
  8
0
 10
0.592849
 20
12.319887
 30
0.0
 11
0.592849
 21
12.547306
 31
0.0
  0
LINE
  5
6F
  8
0
 10
0.592849
 20
12.547306
 30
0.0
 11
0.592849
 21
13.819826
 31
0.0
  0
LINE
  5
70
  8
0
 10
0.592849
 20
13.819826
 30
0.0
 11
0.592849
 21
13.865391
 31
0.0
  0
LINE
  5
71
  8
0
 10
0.592849
 20
13.865391
 30
0.0
 11
0.592849
 21
13.929
 31
0.0
  0
LINE
  5
72
  8
0
 10
1.092849
 20
0.654
 30
0.0
 11
1.092849
 21
0.908516
 31
0.0
  0
LINE
  5
73
  8
0
 10
1.092849
 20
0.654
 30
0.0
 11
1.092849
 21
0.908516
 31
0.0
  0
LINE
  5
74
  8
0
 10
1.092849
 20
0.908516
 30
0.0
 11
1.092849
 21
1.0574
 31
0.0
  0
LINE
  5
75
  8
0
 10
1.092849
 20
1.0574
 30
0.0
 11
1.092849
 21
2.329981
 31
0.0
  0
LINE
  5
76
  8
0
 10
1.092849
 20
2.329981
 30
0.0
 11
1.092849
 21
2.375465
 31
0.0
  0
LINE
  5
77
  8
0
 10
1.092849
 20
2.375465
 30
0.0
 11
1.092849
 21
2.629981
 31
0.0
  0
LINE
  5
78
  8
0
 10
1.092849
 20
2.629981
 30
0.0
 11
1.092849
 21
2.8574
 31
0.0
  0
LINE
  5
79
  8
0
 10
1.092849
 20
2.8574
 30
0.0
 11
1.092849
 21
4.129981
 31
0.0
  0
LINE
  5
7A
  8
0
 10
1.092849
 20
4.129981
 30
0.0
 11
1.092849
 21
4.175465
 31
0.0
  0
LINE
  5
7B
  8
0
 10
1.092849
 20
4.175465
 30
0.0
 11
1.092849
 21
4.429981
 31
0.0
  0
LINE
  5
7C
  8
0
 10
1.092849
 20
4.429981
 30
0.0
 11
1.092849
 21
4.6574
 31
0.0
  0
LINE
  5
7D
  8
0
 10
1.092849
 20
4.6574
 30
0.0
 11
1.092849
 21
5.929981
 31
0.0
  0
LINE
  5
7E
  8
0
 10
1.092849
 20
5.929981
 30
0.0
 11
1.092849
 21
5.975465
 31
0.0
  0
LINE
  5
7F
  8
0
 10
1.092849
 20
5.975465
 30
0.0
 11
1.092849
 21
6.229981
 31
0.0
  0
LINE
  5
80
  8
0
 10
1.092849
 20
6.229981
 30
0.0
 11
1.092849
 21
6.4574
 31
0.0
  0
LINE
  5
81
  8
0
 10
1.092849
 20
6.4574
 30
0.0
 11
1.092849
 21
7.729981
 31
0.0
  0
LINE
  5
82
  8
0
 10
1.092849
 20
7.729981
 30
0.0
 11
1.092849
 21
7.775465
 31
0.0
  0
LINE
  5
83
  8
0
 10
1.092849
 20
7.775465
 30
0.0
 11
1.092849
 21
8.029981
 31
0.0
  0
LINE
  5
84
  8
0
 10
1.092849
 20
8.029981
 30
0.0
 11
1.092849
 21
8.2574
 31
0.0
  0
LINE
  5
85
  8
0
 10
1.092849
 20
8.2574
 30
0.0
 11
1.092849
 21
9.529981
 31
0.0
  0
LINE
  5
86
  8
0
 10
1.092849
 20
9.529981
 30
0.0
 11
1.092849
 21
9.575465
 31
0.0
  0
LINE
  5
87
  8
0
 10
1.092849
 20
9.575465
 30
0.0
 11
1.092849
 21
9.829981
 31
0.0
  0
LINE
  5
88
  8
0
 10
1.092849
 20
9.829981
 30
0.0
 11
1.092849
 21
10.0574
 31
0.0
  0
LINE
  5
89
  8
0
 10
1.092849
 20
10.0574
 30
0.0
 11
1.092849
 21
11.329981
 31
0.0
  0
LINE
  5
8A
  8
0
 10
1.092849
 20
11.329981
 30
0.0
 11
1.092849
 21
11.375465
 31
0.0
  0
LINE
  5
8B
  8
0
 10
1.092849
 20
11.375465
 30
0.0
 11
1.092849
 21
11.629981
 31
0.0
  0
LINE
  5
8C
  8
0
 10
1.092849
 20
11.629981
 30
0.0
 11
1.092849
 21
11.8574
 31
0.0
  0
LINE
  5
8D
  8
0
 10
1.092849
 20
11.8574
 30
0.0
 11
1.092849
 21
13.129981
 31
0.0
  0
LINE
  5
8E
  8
0
 10
1.092849
 20
13.129981
 30
0.0
 11
1.092849
 21
13.175465
 31
0.0
  0
LINE
  5
8F
  8
0
 10
1.092849
 20
13.175465
 30
0.0
 11
1.092849
 21
13.429981
 31
0.0
  0
LINE
  5
90
  8
0
 10
1.092849
 20
13.429981
 30
0.0
 11
1.092849
 21
13.6574
 31
0.0
  0
LINE
  5
91
  8
0
 10
1.092849
 20
13.6574
 30
0.0
 11
1.092849
 21
14.491365
 31
0.0
  0
LINE
  5
92
  8
0
 10
1.092849
 20
14.491365
 30
0.0
 11
1.092849
 21
14.536848
 31
0.0
  0
LINE
  5
93
  8
0
 10
1.592849
 20
0.504
 30
0.0
 11
1.592849
 21
0.758516
 31
0.0
  0
LINE
  5
94
  8
0
 10
1.592849
 20
0.504
 30
0.0
 11
1.592849
 21
0.758516
 31
0.0
  0
LINE
  5
95
  8
0
 10
1.592849
 20
0.758516
 30
0.0
 11
1.592849
 21
0.954248
 31
0.0
  0
LINE
  5
96
  8
0
 10
1.592849
 20
0.954248
 30
0.0
 11
1.592849
 21
2.226829
 31
0.0
  0
LINE
  5
97
  8
0
 10
1.592849
 20
2.226829
 30
0.0
 11
1.592849
 21
2.272313
 31
0.0
  0
LINE
  5
98
  8
0
 10
1.592849
 20
2.272313
 30
0.0
 11
1.592849
 21
2.526829
 31
0.0
  0
LINE
  5
99
  8
0
 10
1.592849
 20
2.526829
 30
0.0
 11
1.592849
 21
2.754248
 31
0.0
  0
LINE
  5
9A
  8
0
 10
1.592849
 20
2.754248
 30
0.0
 11
1.592849
 21
4.026829
 31
0.0
  0
LINE
  5
9B
  8
0
 10
1.592849
 20
4.026829
 30
0.0
 11
1.592849
 21
4.072313
 31
0.0
  0
LINE
  5
9C
  8
0
 10
1.592849
 20
4.072313
 30
0.0
 11
1.592849
 21
4.326829
 31
0.0
  0
LINE
  5
9D
  8
0
 10
1.592849
 20
4.326829
 30
0.0
 11
1.592849
 21
4.554248
 31
0.0
  0
LINE
  5
9E
  8
0
 10
1.592849
 20
4.554248
 30
0.0
 11
1.592849
 21
5.826829
 31
0.0
  0
LINE
  5
9F
  8
0
 10
1.592849
 20
5.826829
 30
0.0
 11
1.592849
 21
5.872313
 31
0.0
  0
LINE
  5
A0
  8
0
 10
1.592849
 20
5.872313
 30
0.0
 11
1.592849
 21
6.126829
 31
0.0
  0
LINE
  5
A1
  8
0
 10
1.592849
 20
6.126829
 30
0.0
 11
1.592849
 21
6.354248
 31
0.0
  0
LINE
  5
A2
  8
0
 10
1.592849
 20
6.354248
 30
0.0
 11
1.592849
 21
7.626829
 31
0.0
  0
LINE
  5
A3
  8
0
 10
1.592849
 20
7.626829
 30
0.0
 11
1.592849
 21
7.672313
 31
0.0
  0
LINE
  5
A4
  8
0
 10
1.592849
 20
7.672313
 30
0.0
 11
1.592849
 21
7.926829
 31
0.0
  0
LINE
  5
A5
  8
0
 10
1.592849
 20
7.926829
 30
0.0
 11
1.592849
 21
8.154248
 31
0.0
  0
LINE
  5
A6
  8
0
 10
1.592849
 20
8.154248
 30
0.0
 11
1.592849
 21
9.426829
 31
0.0
  0
LINE
  5
A7
  8
0
 10
1.592849
 20
9.426829
 30
0.0
 11
1.592849
 21
9.472313
 31
0.0
  0
LINE
  5
A8
  8
0
 10
1.592849
 20
9.472313
 30
0.0
 11
1.592849
 21
9.726829
 31
0.0
  0
LINE
  5
A9
  8
0
 10
1.592849
 20
9.726829
 30
0.0
 11
1.592849
 21
9.954248
 31
0.0
  0
LINE
  5
AA
  8
0
 10
1.592849
 20
9.954248
 30
0.0
 11
1.592849
 21
11.226829
 31
0.0
  0
LINE
  5
AB
  8
0
 10
1.592849
 20
11.226829
 30
0.0
 11
1.592849
 21
11.272313
 31
0.0
  0
LINE
  5
AC
  8
0
 10
1.592849
 20
11.272313
 30
0.0
 11
1.592849
 21
11.526829
 31
0.0
  0
LINE
  5
AD
  8
0
 10
1.592849
 20
11.526829
 30
0.0
 11
1.592849
 21
11.754248
 31
0.0
  0
LINE
  5
AE
  8
0
 10
1.592849
 20
11.754248
 30
0.0
 11
1.592849
 21
13.026829
 31
0.0
  0
LINE
  5
AF
  8
0
 10
1.592849
 20
13.026829
 30
0.0
 11
1.592849
 21
13.072313
 31
0.0
  0
LINE
  5
B0
  8
0
 10
1.592849
 20
13.072313
 30
0.0
 11
1.592849
 21
13.326829
 31
0.0
  0
LINE
  5
B1
  8
0
 10
1.592849
 20
13.326829
 30
0.0
 11
1.592849
 21
13.554248
 31
0.0
  0
LINE
  5
B2
  8
0
 10
1.592849
 20
13.554248
 30
0.0
 11
1.592849
 21
14.649516
 31
0.0
  0
LINE
  5
B3
  8
0
 10
1.592849
 20
14.649516
 30
0.0
 11
1.592849
 21
14.695
 31
0.0
  0
LINE
  5
B4
  8
0
 10
2.092849
 20
0.446
 30
0.0
 11
2.092849
 21
0.446848
 31
0.0
  0
LINE
  5
B5
  8
0
 10
2.092849
 20
0.446
 30
0.0
 11
2.092849
 21
0.446848
 31
0.0
  0
LINE
  5
B6
  8
0
 10
2.092849
 20
0.446848
 30
0.0
 11
2.092849
 21
0.700516
 31
0.0
  0
LINE
  5
B7
  8
0
 10
2.092849
 20
0.700516
 30
0.0
 11
2.092849
 21
0.912319
 31
0.0
  0
LINE
  5
B8
  8
0
 10
2.092849
 20
0.912319
 30
0.0
 11
2.092849
 21
2.185748
 31
0.0
  0
LINE
  5
B9
  8
0
 10
2.092849
 20
2.185748
 30
0.0
 11
2.092849
 21
2.231232
 31
0.0
  0
LINE
  5
BA
  8
0
 10
2.092849
 20
2.231232
 30
0.0
 11
2.092849
 21
2.4849
 31
0.0
  0
LINE
  5
BB
  8
0
 10
2.092849
 20
2.4849
 30
0.0
 11
2.092849
 21
2.712319
 31
0.0
  0
LINE
  5
BC
  8
0
 10
2.092849
 20
2.712319
 30
0.0
 11
2.092849
 21
3.985748
 31
0.0
  0
LINE
  5
BD
  8
0
 10
2.092849
 20
3.985748
 30
0.0
 11
2.092849
 21
4.031232
 31
0.0
  0
LINE
  5
BE
  8
0
 10
2.092849
 20
4.031232
 30
0.0
 11
2.092849
 21
4.2849
 31
0.0
  0
LINE
  5
BF
  8
0
 10
2.092849
 20
4.2849
 30
0.0
 11
2.092849
 21
4.512319
 31
0.0
  0
LINE
  5
C0
  8
0
 10
2.092849
 20
4.512319
 30
0.0
 11
2.092849
 21
5.785748
 31
0.0
  0
LINE
  5
C1
  8
0
 10
2.092849
 20
5.785748
 30
0.0
 11
2.092849
 21
5.831232
 31
0.0
  0
LINE
  5
C2
  8
0
 10
2.092849
 20
5.831232
 30
0.0
 11
2.092849
 21
6.0849
 31
0.0
  0
LINE
  5
C3
  8
0
 10
2.092849
 20
6.0849
 30
0.0
 11
2.092849
 21
6.312319
 31
0.0
  0
LINE
  5
C4
  8
0
 10
2.092849
 20
6.312319
 30
0.0
 11
2.092849
 21
7.585748
 31
0.0
  0
LINE
  5
C5
  8
0
 10
2.092849
 20
7.585748
 30
0.0
 11
2.092849
 21
7.631232
 31
0.0
  0
LINE
  5
C6
  8
0
 10
2.092849
 20
7.631232
 30
0.0
 11
2.092849
 21
7.8849
 31
0.0
  0
LINE
  5
C7
  8
0
 10
2.092849
 20
7.8849
 30
0.0
 11
2.092849
 21
8.112319
 31
0.0
  0
LINE
  5
C8
  8
0
 10
2.092849
 20
8.112319
 30
0.0
 11
2.092849
 21
9.385748
 31
0.0
  0
LINE
  5
C9
  8
0
 10
2.092849
 20
9.385748
 30
0.0
 11
2.092849
 21
9.431232
 31
0.0
  0
LINE
  5
CA
  8
0
 10
2.092849
 20
9.431232
 30
0.0
 11
2.092849
 21
9.6849
 31
0.0
  0
LINE
  5
CB
  8
0
 10
2.092849
 20
9.6849
 30
0.0
 11
2.092849
 21
9.912319
 31
0.0
  0
LINE
  5
CC
  8
0
 10
2.092849
 20
9.912319
 30
0.0
 11
2.092849
 21
11.185748
 31
0.0
  0
LINE
  5
CD
  8
0
 10
2.092849
 20
11.185748
 30
0.0
 11
2.092849
 21
11.231232
 31
0.0
  0
LINE
  5
CE
  8
0
 10
2.092849
 20
11.231232
 30
0.0
 11
2.092849
 21
11.4849
 31
0.0
  0
LINE
  5
CF
  8
0
 10
2.092849
 20
11.4849
 30
0.0
 11
2.092849
 21
11.712319
 31
0.0
  0
LINE
  5
D0
  8
0
 10
2.092849
 20
11.712319
 30
0.0
 11
2.092849
 21
12.985748
 31
0.0
  0
LINE
  5
D1
  8
0
 10
2.092849
 20
12.985748
 30
0.0
 11
2.092849
 21
13.031232
 31
0.0
  0
LINE
  5
D2
  8
0
 10
2.092849
 20
13.031232
 30
0.0
 11
2.092849
 21
13.2849
 31
0.0
  0
LINE
  5
D3
  8
0
 10
2.092849
 20
13.2849
 30
0.0
 11
2.092849
 21
13.512319
 31
0.0
  0
LINE
  5
D4
  8
0
 10
2.092849
 20
13.512319
 30
0.0
 11
2.092849
 21
14.697516
 31
0.0
  0
LINE
  5
D5
  8
0
 10
2.092849
 20
14.697516
 30
0.0
 11
2.092849
 21
14.743
 31
0.0
  0
LINE
  5
D6
  8
0
 10
2.092849
 20
14.743
 30
0.0
 11
2.092849
 21
14.744
 31
0.0
  0
LINE
  5
D7
  8
0
 10
2.592849
 20
0.437
 30
0.0
 11
2.592849
 21
0.691516
 31
0.0
  0
LINE
  5
D8
  8
0
 10
2.592849
 20
0.437
 30
0.0
 11
2.592849
 21
0.691516
 31
0.0
  0
LINE
  5
D9
  8
0
 10
2.592849
 20
0.691516
 30
0.0
 11
2.592849
 21
0.904532
 31
0.0
  0
LINE
  5
DA
  8
0
 10
2.592849
 20
0.904532
 30
0.0
 11
2.592849
 21
2.177113
 31
0.0
  0
LINE
  5
DB
  8
0
 10
2.592849
 20
2.177113
 30
0.0
 11
2.592849
 21
2.222445
 31
0.0
  0
LINE
  5
DC
  8
0
 10
2.592849
 20
2.222445
 30
0.0
 11
2.592849
 21
2.476961
 31
0.0
  0
LINE
  5
DD
  8
0
 10
2.592849
 20
2.476961
 30
0.0
 11
2.592849
 21
2.704532
 31
0.0
  0
LINE
  5
DE
  8
0
 10
2.592849
 20
2.704532
 30
0.0
 11
2.592849
 21
3.977113
 31
0.0
  0
LINE
  5
DF
  8
0
 10
2.592849
 20
3.977113
 30
0.0
 11
2.592849
 21
4.022445
 31
0.0
  0
LINE
  5
E0
  8
0
 10
2.592849
 20
4.022445
 30
0.0
 11
2.592849
 21
4.276961
 31
0.0
  0
LINE
  5
E1
  8
0
 10
2.592849
 20
4.276961
 30
0.0
 11
2.592849
 21
4.504532
 31
0.0
  0
LINE
  5
E2
  8
0
 10
2.592849
 20
4.504532
 30
0.0
 11
2.592849
 21
5.777113
 31
0.0
  0
LINE
  5
E3
  8
0
 10
2.592849
 20
5.777113
 30
0.0
 11
2.592849
 21
5.822445
 31
0.0
  0
LINE
  5
E4
  8
0
 10
2.592849
 20
5.822445
 30
0.0
 11
2.592849
 21
6.076961
 31
0.0
  0
LINE
  5
E5
  8
0
 10
2.592849
 20
6.076961
 30
0.0
 11
2.592849
 21
6.304532
 31
0.0
  0
LINE
  5
E6
  8
0
 10
2.592849
 20
6.304532
 30
0.0
 11
2.592849
 21
7.577113
 31
0.0
  0
LINE
  5
E7
  8
0
 10
2.592849
 20
7.577113
 30
0.0
 11
2.592849
 21
7.622445
 31
0.0
  0
LINE
  5
E8
  8
0
 10
2.592849
 20
7.622445
 30
0.0
 11
2.592849
 21
7.876961
 31
0.0
  0
LINE
  5
E9
  8
0
 10
2.592849
 20
7.876961
 30
0.0
 11
2.592849
 21
8.104532
 31
0.0
  0
LINE
  5
EA
  8
0
 10
2.592849
 20
8.104532
 30
0.0
 11
2.592849
 21
9.377113
 31
0.0
  0
LINE
  5
EB
  8
0
 10
2.592849
 20
9.377113
 30
0.0
 11
2.592849
 21
9.422445
 31
0.0
  0
LINE
  5
EC
  8
0
 10
2.592849
 20
9.422445
 30
0.0
 11
2.592849
 21
9.676961
 31
0.0
  0
LINE
  5
ED
  8
0
 10
2.592849
 20
9.676961
 30
0.0
 11
2.592849
 21
9.904532
 31
0.0
  0
LINE
  5
EE
  8
0
 10
2.592849
 20
9.904532
 30
0.0
 11
2.592849
 21
11.177113
 31
0.0
  0
LINE
  5
EF
  8
0
 10
2.592849
 20
11.177113
 30
0.0
 11
2.592849
 21
11.222445
 31
0.0
  0
LINE
  5
F0
  8
0
 10
2.592849
 20
11.222445
 30
0.0
 11
2.592849
 21
11.476961
 31
0.0
  0
LINE
  5
F1
  8
0
 10
2.592849
 20
11.476961
 30
0.0
 11
2.592849
 21
11.704532
 31
0.0
  0
LINE
  5
F2
  8
0
 10
2.592849
 20
11.704532
 30
0.0
 11
2.592849
 21
12.977113
 31
0.0
  0
LINE
  5
F3
  8
0
 10
2.592849
 20
12.977113
 30
0.0
 11
2.592849
 21
13.022445
 31
0.0
  0
LINE
  5
F4
  8
0
 10
2.592849
 20
13.022445
 30
0.0
 11
2.592849
 21
13.276961
 31
0.0
  0
LINE
  5
F5
  8
0
 10
2.592849
 20
13.276961
 30
0.0
 11
2.592849
 21
13.504532
 31
0.0
  0
LINE
  5
F6
  8
0
 10
2.592849
 20
13.504532
 30
0.0
 11
2.592849
 21
14.696516
 31
0.0
  0
LINE
  5
F7
  8
0
 10
2.592849
 20
14.696516
 30
0.0
 11
2.592849
 21
14.742
 31
0.0
  0
LINE
  5
F8
  8
0
 10
3.092849
 20
0.453
 30
0.0
 11
3.092849
 21
0.707516
 31
0.0
  0
LINE
  5
F9
  8
0
 10
3.092849
 20
0.453
 30
0.0
 11
3.092849
 21
0.707516
 31
0.0
  0
LINE
  5
FA
  8
0
 10
3.092849
 20
0.707516
 30
0.0
 11
3.092849
 21
0.915377
 31
0.0
  0
LINE
  5
FB
  8
0
 10
3.092849
 20
0.915377
 30
0.0
 11
3.092849
 21
2.187958
 31
0.0
  0
LINE
  5
FC
  8
0
 10
3.092849
 20
2.187958
 30
0.0
 11
3.092849
 21
2.233442
 31
0.0
  0
LINE
  5
FD
  8
0
 10
3.092849
 20
2.233442
 30
0.0
 11
3.092849
 21
2.487958
 31
0.0
  0
LINE
  5
FE
  8
0
 10
3.092849
 20
2.487958
 30
0.0
 11
3.092849
 21
2.715377
 31
0.0
  0
LINE
  5
FF
  8
0
 10
3.092849
 20
2.715377
 30
0.0
 11
3.092849
 21
3.987958
 31
0.0
  0
LINE
  5
100
  8
0
 10
3.092849
 20
3.987958
 30
0.0
 11
3.092849
 21
4.033442
 31
0.0
  0
LINE
  5
101
  8
0
 10
3.092849
 20
4.033442
 30
0.0
 11
3.092849
 21
4.287958
 31
0.0
  0
LINE
  5
102
  8
0
 10
3.092849
 20
4.287958
 30
0.0
 11
3.092849
 21
4.515377
 31
0.0
  0
LINE
  5
103
  8
0
 10
3.092849
 20
4.515377
 30
0.0
 11
3.092849
 21
5.787958
 31
0.0
  0
LINE
  5
104
  8
0
 10
3.092849
 20
5.787958
 30
0.0
 11
3.092849
 21
5.833442
 31
0.0
  0
LINE
  5
105
  8
0
 10
3.092849
 20
5.833442
 30
0.0
 11
3.092849
 21
6.087958
 31
0.0
  0
LINE
  5
106
  8
0
 10
3.092849
 20
6.087958
 30
0.0
 11
3.092849
 21
6.315377
 31
0.0
  0
LINE
  5
107
  8
0
 10
3.092849
 20
6.315377
 30
0.0
 11
3.092849
 21
7.587958
 31
0.0
  0
LINE
  5
108
  8
0
 10
3.092849
 20
7.587958
 30
0.0
 11
3.092849
 21
7.633442
 31
0.0
  0
LINE
  5
109
  8
0
 10
3.092849
 20
7.633442
 30
0.0
 11
3.092849
 21
7.887958
 31
0.0
  0
LINE
  5
10A
  8
0
 10
3.092849
 20
7.887958
 30
0.0
 11
3.092849
 21
8.115377
 31
0.0
  0
LINE
  5
10B
  8
0
 10
3.092849
 20
8.115377
 30
0.0
 11
3.092849
 21
9.387958
 31
0.0
  0
LINE
  5
10C
  8
0
 10
3.092849
 20
9.387958
 30
0.0
 11
3.092849
 21
9.433442
 31
0.0
  0
LINE
  5
10D
  8
0
 10
3.092849
 20
9.433442
 30
0.0
 11
3.092849
 21
9.687958
 31
0.0
  0
LINE
  5
10E
  8
0
 10
3.092849
 20
9.687958
 30
0.0
 11
3.092849
 21
9.915377
 31
0.0
  0
LINE
  5
10F
  8
0
 10
3.092849
 20
9.915377
 30
0.0
 11
3.092849
 21
11.187958
 31
0.0
  0
LINE
  5
110
  8
0
 10
3.092849
 20
11.187958
 30
0.0
 11
3.092849
 21
11.233442
 31
0.0
  0
LINE
  5
111
  8
0
 10
3.092849
 20
11.233442
 30
0.0
 11
3.092849
 21
11.487958
 31
0.0
  0
LINE
  5
112
  8
0
 10
3.092849
 20
11.487958
 30
0.0
 11
3.092849
 21
11.715377
 31
0.0
  0
LINE
  5
113
  8
0
 10
3.092849
 20
11.715377
 30
0.0
 11
3.092849
 21
12.987958
 31
0.0
  0
LINE
  5
114
  8
0
 10
3.092849
 20
12.987958
 30
0.0
 11
3.092849
 21
13.033442
 31
0.0
  0
LINE
  5
115
  8
0
 10
3.092849
 20
13.033442
 30
0.0
 11
3.092849
 21
13.287958
 31
0.0
  0
LINE
  5
116
  8
0
 10
3.092849
 20
13.287958
 30
0.0
 11
3.092849
 21
13.515377
 31
0.0
  0
LINE
  5
117
  8
0
 10
3.092849
 20
13.515377
 30
0.0
 11
3.092849
 21
14.678516
 31
0.0
  0
LINE
  5
118
  8
0
 10
3.092849
 20
14.678516
 30
0.0
 11
3.092849
 21
14.724
 31
0.0
  0
LINE
  5
119
  8
0
 10
3.592849
 20
0.469
 30
0.0
 11
3.592849
 21
0.723516
 31
0.0
  0
LINE
  5
11A
  8
0
 10
3.592849
 20
0.469
 30
0.0
 11
3.592849
 21
0.723516
 31
0.0
  0
LINE
  5
11B
  8
0
 10
3.592849
 20
0.723516
 30
0.0
 11
3.592849
 21
0.926374
 31
0.0
  0
LINE
  5
11C
  8
0
 10
3.592849
 20
0.926374
 30
0.0
 11
3.592849
 21
2.198955
 31
0.0
  0
LINE
  5
11D
  8
0
 10
3.592849
 20
2.198955
 30
0.0
 11
3.592849
 21
2.244439
 31
0.0
  0
LINE
  5
11E
  8
0
 10
3.592849
 20
2.244439
 30
0.0
 11
3.592849
 21
2.498955
 31
0.0
  0
LINE
  5
11F
  8
0
 10
3.592849
 20
2.498955
 30
0.0
 11
3.592849
 21
2.726374
 31
0.0
  0
LINE
  5
120
  8
0
 10
3.592849
 20
2.726374
 30
0.0
 11
3.592849
 21
3.998955
 31
0.0
  0
LINE
  5
121
  8
0
 10
3.592849
 20
3.998955
 30
0.0
 11
3.592849
 21
4.044439
 31
0.0
  0
LINE
  5
122
  8
0
 10
3.592849
 20
4.044439
 30
0.0
 11
3.592849
 21
4.298955
 31
0.0
  0
LINE
  5
123
  8
0
 10
3.592849
 20
4.298955
 30
0.0
 11
3.592849
 21
4.526374
 31
0.0
  0
LINE
  5
124
  8
0
 10
3.592849
 20
4.526374
 30
0.0
 11
3.592849
 21
5.798955
 31
0.0
  0
LINE
  5
125
  8
0
 10
3.592849
 20
5.798955
 30
0.0
 11
3.592849
 21
5.844439
 31
0.0
  0
LINE
  5
126
  8
0
 10
3.592849
 20
5.844439
 30
0.0
 11
3.592849
 21
6.098955
 31
0.0
  0
LINE
  5
127
  8
0
 10
3.592849
 20
6.098955
 30
0.0
 11
3.592849
 21
6.326374
 31
0.0
  0
LINE
  5
128
  8
0
 10
3.592849
 20
6.326374
 30
0.0
 11
3.592849
 21
7.598955
 31
0.0
  0
LINE
  5
129
  8
0
 10
3.592849
 20
7.598955
 30
0.0
 11
3.592849
 21
7.644439
 31
0.0
  0
LINE
  5
12A
  8
0
 10
3.592849
 20
7.644439
 30
0.0
 11
3.592849
 21
7.898955
 31
0.0
  0
LINE
  5
12B
  8
0
 10
3.592849
 20
7.898955
 30
0.0
 11
3.592849
 21
8.126374
 31
0.0
  0
LINE
  5
12C
  8
0
 10
3.592849
 20
8.126374
 30
0.0
 11
3.592849
 21
9.398955
 31
0.0
  0
LINE
  5
12D
  8
0
 10
3.592849
 20
9.398955
 30
0.0
 11
3.592849
 21
9.444439
 31
0.0
  0
LINE
  5
12E
  8
0
 10
3.592849
 20
9.444439
 30
0.0
 11
3.592849
 21
9.698955
 31
0.0
  0
LINE
  5
12F
  8
0
 10
3.592849
 20
9.698955
 30
0.0
 11
3.592849
 21
9.926374
 31
0.0
  0
LINE
  5
130
  8
0
 10
3.592849
 20
9.926374
 30
0.0
 11
3.592849
 21
11.198955
 31
0.0
  0
LINE
  5
131
  8
0
 10
3.592849
 20
11.198955
 30
0.0
 11
3.592849
 21
11.244439
 31
0.0
  0
LINE
  5
132
  8
0
 10
3.592849
 20
11.244439
 30
0.0
 11
3.592849
 21
11.498955
 31
0.0
  0
LINE
  5
133
  8
0
 10
3.592849
 20
11.498955
 30
0.0
 11
3.592849
 21
11.726374
 31
0.0
  0
LINE
  5
134
  8
0
 10
3.592849
 20
11.726374
 30
0.0
 11
3.592849
 21
12.998955
 31
0.0
  0
LINE
  5
135
  8
0
 10
3.592849
 20
12.998955
 30
0.0
 11
3.592849
 21
13.044439
 31
0.0
  0
LINE
  5
136
  8
0
 10
3.592849
 20
13.044439
 30
0.0
 11
3.592849
 21
13.298955
 31
0.0
  0
LINE
  5
137
  8
0
 10
3.592849
 20
13.298955
 30
0.0
 11
3.592849
 21
13.526374
 31
0.0
  0
LINE
  5
138
  8
0
 10
3.592849
 20
13.526374
 30
0.0
 11
3.592849
 21
14.661516
 31
0.0
  0
LINE
  5
139
  8
0
 10
3.592849
 20
14.661516
 30
0.0
 11
3.592849
 21
14.707
 31
0.0
  0
LINE
  5
13A
  8
0
 10
4.092849
 20
0.484
 30
0.0
 11
4.092849
 21
0.738516
 31
0.0
  0
LINE
  5
13B
  8
0
 10
4.092849
 20
0.484
 30
0.0
 11
4.092849
 21
0.738516
 31
0.0
  0
LINE
  5
13C
  8
0
 10
4.092849
 20
0.738516
 30
0.0
 11
4.092849
 21
0.936371
 31
0.0
  0
LINE
  5
13D
  8
0
 10
4.092849
 20
0.936371
 30
0.0
 11
4.092849
 21
2.2098
 31
0.0
  0
LINE
  5
13E
  8
0
 10
4.092849
 20
2.2098
 30
0.0
 11
4.092849
 21
2.255284
 31
0.0
  0
LINE
  5
13F
  8
0
 10
4.092849
 20
2.255284
 30
0.0
 11
4.092849
 21
2.508952
 31
0.0
  0
LINE
  5
140
  8
0
 10
4.092849
 20
2.508952
 30
0.0
 11
4.092849
 21
2.736371
 31
0.0
  0
LINE
  5
141
  8
0
 10
4.092849
 20
2.736371
 30
0.0
 11
4.092849
 21
4.0098
 31
0.0
  0
LINE
  5
142
  8
0
 10
4.092849
 20
4.0098
 30
0.0
 11
4.092849
 21
4.055284
 31
0.0
  0
LINE
  5
143
  8
0
 10
4.092849
 20
4.055284
 30
0.0
 11
4.092849
 21
4.308952
 31
0.0
  0
LINE
  5
144
  8
0
 10
4.092849
 20
4.308952
 30
0.0
 11
4.092849
 21
4.536371
 31
0.0
  0
LINE
  5
145
  8
0
 10
4.092849
 20
4.536371
 30
0.0
 11
4.092849
 21
5.8098
 31
0.0
  0
LINE
  5
146
  8
0
 10
4.092849
 20
5.8098
 30
0.0
 11
4.092849
 21
5.855284
 31
0.0
  0
LINE
  5
147
  8
0
 10
4.092849
 20
5.855284
 30
0.0
 11
4.092849
 21
6.108952
 31
0.0
  0
LINE
  5
148
  8
0
 10
4.092849
 20
6.108952
 30
0.0
 11
4.092849
 21
6.336371
 31
0.0
  0
LINE
  5
149
  8
0
 10
4.092849
 20
6.336371
 30
0.0
 11
4.092849
 21
7.6098
 31
0.0
  0
LINE
  5
14A
  8
0
 10
4.092849
 20
7.6098
 30
0.0
 11
4.092849
 21
7.655284
 31
0.0
  0
LINE
  5
14B
  8
0
 10
4.092849
 20
7.655284
 30
0.0
 11
4.092849
 21
7.908952
 31
0.0
  0
LINE
  5
14C
  8
0
 10
4.092849
 20
7.908952
 30
0.0
 11
4.092849
 21
8.136371
 31
0.0
  0
LINE
  5
14D
  8
0
 10
4.092849
 20
8.136371
 30
0.0
 11
4.092849
 21
9.4098
 31
0.0
  0
LINE
  5
14E
  8
0
 10
4.092849
 20
9.4098
 30
0.0
 11
4.092849
 21
9.455284
 31
0.0
  0
LINE
  5
14F
  8
0
 10
4.092849
 20
9.455284
 30
0.0
 11
4.092849
 21
9.708952
 31
0.0
  0
LINE
  5
150
  8
0
 10
4.092849
 20
9.708952
 30
0.0
 11
4.092849
 21
9.936371
 31
0.0
  0
LINE
  5
151
  8
0
 10
4.092849
 20
9.936371
 30
0.0
 11
4.092849
 21
11.2098
 31
0.0
  0
LINE
  5
152
  8
0
 10
4.092849
 20
11.2098
 30
0.0
 11
4.092849
 21
11.255284
 31
0.0
  0
LINE
  5
153
  8
0
 10
4.092849
 20
11.255284
 30
0.0
 11
4.092849
 21
11.508952
 31
0.0
  0
LINE
  5
154
  8
0
 10
4.092849
 20
11.508952
 30
0.0
 11
4.092849
 21
11.736371
 31
0.0
  0
LINE
  5
155
  8
0
 10
4.092849
 20
11.736371
 30
0.0
 11
4.092849
 21
13.0098
 31
0.0
  0
LINE
  5
156
  8
0
 10
4.092849
 20
13.0098
 30
0.0
 11
4.092849
 21
13.055284
 31
0.0
  0
LINE
  5
157
  8
0
 10
4.092849
 20
13.055284
 30
0.0
 11
4.092849
 21
13.308952
 31
0.0
  0
LINE
  5
158
  8
0
 10
4.092849
 20
13.308952
 30
0.0
 11
4.092849
 21
13.536371
 31
0.0
  0
LINE
  5
159
  8
0
 10
4.092849
 20
13.536371
 30
0.0
 11
4.092849
 21
14.644365
 31
0.0
  0
LINE
  5
15A
  8
0
 10
4.092849
 20
14.644365
 30
0.0
 11
4.092849
 21
14.689848
 31
0.0
  0
LINE
  5
15B
  8
0
 10
4.592849
 20
0.5
 30
0.0
 11
4.592849
 21
0.754516
 31
0.0
  0
LINE
  5
15C
  8
0
 10
4.592849
 20
0.5
 30
0.0
 11
4.592849
 21
0.754516
 31
0.0
  0
LINE
  5
15D
  8
0
 10
4.592849
 20
0.754516
 30
0.0
 11
4.592849
 21
0.947368
 31
0.0
  0
LINE
  5
15E
  8
0
 10
4.592849
 20
0.947368
 30
0.0
 11
4.592849
 21
2.219948
 31
0.0
  0
LINE
  5
15F
  8
0
 10
4.592849
 20
2.219948
 30
0.0
 11
4.592849
 21
2.265432
 31
0.0
  0
LINE
  5
160
  8
0
 10
4.592849
 20
2.265432
 30
0.0
 11
4.592849
 21
2.519948
 31
0.0
  0
LINE
  5
161
  8
0
 10
4.592849
 20
2.519948
 30
0.0
 11
4.592849
 21
2.747368
 31
0.0
  0
LINE
  5
162
  8
0
 10
4.592849
 20
2.747368
 30
0.0
 11
4.592849
 21
4.019948
 31
0.0
  0
LINE
  5
163
  8
0
 10
4.592849
 20
4.019948
 30
0.0
 11
4.592849
 21
4.065432
 31
0.0
  0
LINE
  5
164
  8
0
 10
4.592849
 20
4.065432
 30
0.0
 11
4.592849
 21
4.319948
 31
0.0
  0
LINE
  5
165
  8
0
 10
4.592849
 20
4.319948
 30
0.0
 11
4.592849
 21
4.547368
 31
0.0
  0
LINE
  5
166
  8
0
 10
4.592849
 20
4.547368
 30
0.0
 11
4.592849
 21
5.819948
 31
0.0
  0
LINE
  5
167
  8
0
 10
4.592849
 20
5.819948
 30
0.0
 11
4.592849
 21
5.865432
 31
0.0
  0
LINE
  5
168
  8
0
 10
4.592849
 20
5.865432
 30
0.0
 11
4.592849
 21
6.119948
 31
0.0
  0
LINE
  5
169
  8
0
 10
4.592849
 20
6.119948
 30
0.0
 11
4.592849
 21
6.347368
 31
0.0
  0
LINE
  5
16A
  8
0
 10
4.592849
 20
6.347368
 30
0.0
 11
4.592849
 21
7.619948
 31
0.0
  0
LINE
  5
16B
  8
0
 10
4.592849
 20
7.619948
 30
0.0
 11
4.592849
 21
7.665432
 31
0.0
  0
LINE
  5
16C
  8
0
 10
4.592849
 20
7.665432
 30
0.0
 11
4.592849
 21
7.919948
 31
0.0
  0
LINE
  5
16D
  8
0
 10
4.592849
 20
7.919948
 30
0.0
 11
4.592849
 21
8.147368
 31
0.0
  0
LINE
  5
16E
  8
0
 10
4.592849
 20
8.147368
 30
0.0
 11
4.592849
 21
9.419948
 31
0.0
  0
LINE
  5
16F
  8
0
 10
4.592849
 20
9.419948
 30
0.0
 11
4.592849
 21
9.465432
 31
0.0
  0
LINE
  5
170
  8
0
 10
4.592849
 20
9.465432
 30
0.0
 11
4.592849
 21
9.719948
 31
0.0
  0
LINE
  5
171
  8
0
 10
4.592849
 20
9.719948
 30
0.0
 11
4.592849
 21
9.947368
 31
0.0
  0
LINE
  5
172
  8
0
 10
4.592849
 20
9.947368
 30
0.0
 11
4.592849
 21
11.219948
 31
0.0
  0
LINE
  5
173
  8
0
 10
4.592849
 20
11.219948
 30
0.0
 11
4.592849
 21
11.265432
 31
0.0
  0
LINE
  5
174
  8
0
 10
4.592849
 20
11.265432
 30
0.0
 11
4.592849
 21
11.519948
 31
0.0
  0
LINE
  5
175
  8
0
 10
4.592849
 20
11.519948
 30
0.0
 11
4.592849
 21
11.747368
 31
0.0
  0
LINE
  5
176
  8
0
 10
4.592849
 20
11.747368
 30
0.0
 11
4.592849
 21
13.019948
 31
0.0
  0
LINE
  5
177
  8
0
 10
4.592849
 20
13.019948
 30
0.0
 11
4.592849
 21
13.065432
 31
0.0
  0
LINE
  5
178
  8
0
 10
4.592849
 20
13.065432
 30
0.0
 11
4.592849
 21
13.319948
 31
0.0
  0
LINE
  5
179
  8
0
 10
4.592849
 20
13.319948
 30
0.0
 11
4.592849
 21
13.547368
 31
0.0
  0
LINE
  5
17A
  8
0
 10
4.592849
 20
13.547368
 30
0.0
 11
4.592849
 21
14.626516
 31
0.0
  0
LINE
  5
17B
  8
0
 10
4.592849
 20
14.626516
 30
0.0
 11
4.592849
 21
14.672
 31
0.0
  0
LINE
  5
17C
  8
0
 10
5.092849
 20
0.516
 30
0.0
 11
5.092849
 21
0.770516
 31
0.0
  0
LINE
  5
17D
  8
0
 10
5.092849
 20
0.516
 30
0.0
 11
5.092849
 21
0.770516
 31
0.0
  0
LINE
  5
17E
  8
0
 10
5.092849
 20
0.770516
 30
0.0
 11
5.092849
 21
0.958365
 31
0.0
  0
LINE
  5
17F
  8
0
 10
5.092849
 20
0.958365
 30
0.0
 11
5.092849
 21
2.230945
 31
0.0
  0
LINE
  5
180
  8
0
 10
5.092849
 20
2.230945
 30
0.0
 11
5.092849
 21
2.276429
 31
0.0
  0
LINE
  5
181
  8
0
 10
5.092849
 20
2.276429
 30
0.0
 11
5.092849
 21
2.530945
 31
0.0
  0
LINE
  5
182
  8
0
 10
5.092849
 20
2.530945
 30
0.0
 11
5.092849
 21
2.758365
 31
0.0
  0
LINE
  5
183
  8
0
 10
5.092849
 20
2.758365
 30
0.0
 11
5.092849
 21
4.030945
 31
0.0
  0
LINE
  5
184
  8
0
 10
5.092849
 20
4.030945
 30
0.0
 11
5.092849
 21
4.076429
 31
0.0
  0
LINE
  5
185
  8
0
 10
5.092849
 20
4.076429
 30
0.0
 11
5.092849
 21
4.330945
 31
0.0
  0
LINE
  5
186
  8
0
 10
5.092849
 20
4.330945
 30
0.0
 11
5.092849
 21
4.558365
 31
0.0
  0
LINE
  5
187
  8
0
 10
5.092849
 20
4.558365
 30
0.0
 11
5.092849
 21
5.830945
 31
0.0
  0
LINE
  5
188
  8
0
 10
5.092849
 20
5.830945
 30
0.0
 11
5.092849
 21
5.876429
 31
0.0
  0
LINE
  5
189
  8
0
 10
5.092849
 20
5.876429
 30
0.0
 11
5.092849
 21
6.130945
 31
0.0
  0
LINE
  5
18A
  8
0
 10
5.092849
 20
6.130945
 30
0.0
 11
5.092849
 21
6.358365
 31
0.0
  0
LINE
  5
18B
  8
0
 10
5.092849
 20
6.358365
 30
0.0
 11
5.092849
 21
7.630945
 31
0.0
  0
LINE
  5
18C
  8
0
 10
5.092849
 20
7.630945
 30
0.0
 11
5.092849
 21
7.676429
 31
0.0
  0
LINE
  5
18D
  8
0
 10
5.092849
 20
7.676429
 30
0.0
 11
5.092849
 21
7.930945
 31
0.0
  0
LINE
  5
18E
  8
0
 10
5.092849
 20
7.930945
 30
0.0
 11
5.092849
 21
8.158365
 31
0.0
  0
LINE
  5
18F
  8
0
 10
5.092849
 20
8.158365
 30
0.0
 11
5.092849
 21
9.430945
 31
0.0
  0
LINE
  5
190
  8
0
 10
5.092849
 20
9.430945
 30
0.0
 11
5.092849
 21
9.476429
 31
0.0
  0
LINE
  5
191
  8
0
 10
5.092849
 20
9.476429
 30
0.0
 11
5.092849
 21
9.730945
 31
0.0
  0
LINE
  5
192
  8
0
 10
5.092849
 20
9.730945
 30
0.0
 11
5.092849
 21
9.958365
 31
0.0
  0
LINE
  5
193
  8
0
 10
5.092849
 20
9.958365
 30
0.0
 11
5.092849
 21
11.230945
 31
0.0
  0
LINE
  5
194
  8
0
 10
5.092849
 20
11.230945
 30
0.0
 11
5.092849
 21
11.276429
 31
0.0
  0
LINE
  5
195
  8
0
 10
5.092849
 20
11.276429
 30
0.0
 11
5.092849
 21
11.530945
 31
0.0
  0
LINE
  5
196
  8
0
 10
5.092849
 20
11.530945
 30
0.0
 11
5.092849
 21
11.758365
 31
0.0
  0
LINE
  5
197
  8
0
 10
5.092849
 20
11.758365
 30
0.0
 11
5.092849
 21
13.030945
 31
0.0
  0
LINE
  5
198
  8
0
 10
5.092849
 20
13.030945
 30
0.0
 11
5.092849
 21
13.076429
 31
0.0
  0
LINE
  5
199
  8
0
 10
5.092849
 20
13.076429
 30
0.0
 11
5.092849
 21
13.330945
 31
0.0
  0
LINE
  5
19A
  8
0
 10
5.092849
 20
13.330945
 30
0.0
 11
5.092849
 21
13.558365
 31
0.0
  0
LINE
  5
19B
  8
0
 10
5.092849
 20
13.558365
 30
0.0
 11
5.092849
 21
14.609516
 31
0.0
  0
LINE
  5
19C
  8
0
 10
5.092849
 20
14.609516
 30
0.0
 11
5.092849
 21
14.655
 31
0.0
  0
LINE
  5
19D
  8
0
 10
5.592849
 20
0.532
 30
0.0
 11
5.592849
 21
0.786516
 31
0.0
  0
LINE
  5
19E
  8
0
 10
5.592849
 20
0.532
 30
0.0
 11
5.592849
 21
0.786516
 31
0.0
  0
LINE
  5
19F
  8
0
 10
5.592849
 20
0.786516
 30
0.0
 11
5.592849
 21
0.96921
 31
0.0
  0
LINE
  5
1A0
  8
0
 10
5.592849
 20
0.96921
 30
0.0
 11
5.592849
 21
2.24179
 31
0.0
  0
LINE
  5
1A1
  8
0
 10
5.592849
 20
2.24179
 30
0.0
 11
5.592849
 21
2.287274
 31
0.0
  0
LINE
  5
1A2
  8
0
 10
5.592849
 20
2.287274
 30
0.0
 11
5.592849
 21
2.54179
 31
0.0
  0
LINE
  5
1A3
  8
0
 10
5.592849
 20
2.54179
 30
0.0
 11
5.592849
 21
2.76921
 31
0.0
  0
LINE
  5
1A4
  8
0
 10
5.592849
 20
2.76921
 30
0.0
 11
5.592849
 21
4.04179
 31
0.0
  0
LINE
  5
1A5
  8
0
 10
5.592849
 20
4.04179
 30
0.0
 11
5.592849
 21
4.087274
 31
0.0
  0
LINE
  5
1A6
  8
0
 10
5.592849
 20
4.087274
 30
0.0
 11
5.592849
 21
4.34179
 31
0.0
  0
LINE
  5
1A7
  8
0
 10
5.592849
 20
4.34179
 30
0.0
 11
5.592849
 21
4.56921
 31
0.0
  0
LINE
  5
1A8
  8
0
 10
5.592849
 20
4.56921
 30
0.0
 11
5.592849
 21
5.84179
 31
0.0
  0
LINE
  5
1A9
  8
0
 10
5.592849
 20
5.84179
 30
0.0
 11
5.592849
 21
5.887274
 31
0.0
  0
LINE
  5
1AA
  8
0
 10
5.592849
 20
5.887274
 30
0.0
 11
5.592849
 21
6.14179
 31
0.0
  0
LINE
  5
1AB
  8
0
 10
5.592849
 20
6.14179
 30
0.0
 11
5.592849
 21
6.36921
 31
0.0
  0
LINE
  5
1AC
  8
0
 10
5.592849
 20
6.36921
 30
0.0
 11
5.592849
 21
7.64179
 31
0.0
  0
LINE
  5
1AD
  8
0
 10
5.592849
 20
7.64179
 30
0.0
 11
5.592849
 21
7.687274
 31
0.0
  0
LINE
  5
1AE
  8
0
 10
5.592849
 20
7.687274
 30
0.0
 11
5.592849
 21
7.94179
 31
0.0
  0
LINE
  5
1AF
  8
0
 10
5.592849
 20
7.94179
 30
0.0
 11
5.592849
 21
8.16921
 31
0.0
  0
LINE
  5
1B0
  8
0
 10
5.592849
 20
8.16921
 30
0.0
 11
5.592849
 21
9.44179
 31
0.0
  0
LINE
  5
1B1
  8
0
 10
5.592849
 20
9.44179
 30
0.0
 11
5.592849
 21
9.487274
 31
0.0
  0
LINE
  5
1B2
  8
0
 10
5.592849
 20
9.487274
 30
0.0
 11
5.592849
 21
9.74179
 31
0.0
  0
LINE
  5
1B3
  8
0
 10
5.592849
 20
9.74179
 30
0.0
 11
5.592849
 21
9.96921
 31
0.0
  0
LINE
  5
1B4
  8
0
 10
5.592849
 20
9.96921
 30
0.0
 11
5.592849
 21
11.24179
 31
0.0
  0
LINE
  5
1B5
  8
0
 10
5.592849
 20
11.24179
 30
0.0
 11
5.592849
 21
11.287274
 31
0.0
  0
LINE
  5
1B6
  8
0
 10
5.592849
 20
11.287274
 30
0.0
 11
5.592849
 21
11.54179
 31
0.0
  0
LINE
  5
1B7
  8
0
 10
5.592849
 20
11.54179
 30
0.0
 11
5.592849
 21
11.76921
 31
0.0
  0
LINE
  5
1B8
  8
0
 10
5.592849
 20
11.76921
 30
0.0
 11
5.592849
 21
13.04179
 31
0.0
  0
LINE
  5
1B9
  8
0
 10
5.592849
 20
13.04179
 30
0.0
 11
5.592849
 21
13.087274
 31
0.0
  0
LINE
  5
1BA
  8
0
 10
5.592849
 20
13.087274
 30
0.0
 11
5.592849
 21
13.34179
 31
0.0
  0
LINE
  5
1BB
  8
0
 10
5.592849
 20
13.34179
 30
0.0
 11
5.592849
 21
13.56921
 31
0.0
  0
LINE
  5
1BC
  8
0
 10
5.592849
 20
13.56921
 30
0.0
 11
5.592849
 21
14.591516
 31
0.0
  0
LINE
  5
1BD
  8
0
 10
5.592849
 20
14.591516
 30
0.0
 11
5.592849
 21
14.637
 31
0.0
  0
LINE
  5
1BE
  8
0
 10
6.092849
 20
0.548
 30
0.0
 11
6.092849
 21
0.802516
 31
0.0
  0
LINE
  5
1BF
  8
0
 10
6.092849
 20
0.548
 30
0.0
 11
6.092849
 21
0.802516
 31
0.0
  0
LINE
  5
1C0
  8
0
 10
6.092849
 20
0.802516
 30
0.0
 11
6.092849
 21
0.980965
 31
0.0
  0
LINE
  5
1C1
  8
0
 10
6.092849
 20
0.980965
 30
0.0
 11
6.092849
 21
2.253545
 31
0.0
  0
LINE
  5
1C2
  8
0
 10
6.092849
 20
2.253545
 30
0.0
 11
6.092849
 21
2.299029
 31
0.0
  0
LINE
  5
1C3
  8
0
 10
6.092849
 20
2.299029
 30
0.0
 11
6.092849
 21
2.553545
 31
0.0
  0
LINE
  5
1C4
  8
0
 10
6.092849
 20
2.553545
 30
0.0
 11
6.092849
 21
2.780965
 31
0.0
  0
LINE
  5
1C5
  8
0
 10
6.092849
 20
2.780965
 30
0.0
 11
6.092849
 21
4.053545
 31
0.0
  0
LINE
  5
1C6
  8
0
 10
6.092849
 20
4.053545
 30
0.0
 11
6.092849
 21
4.099029
 31
0.0
  0
LINE
  5
1C7
  8
0
 10
6.092849
 20
4.099029
 30
0.0
 11
6.092849
 21
4.353545
 31
0.0
  0
LINE
  5
1C8
  8
0
 10
6.092849
 20
4.353545
 30
0.0
 11
6.092849
 21
4.580965
 31
0.0
  0
LINE
  5
1C9
  8
0
 10
6.092849
 20
4.580965
 30
0.0
 11
6.092849
 21
5.853545
 31
0.0
  0
LINE
  5
1CA
  8
0
 10
6.092849
 20
5.853545
 30
0.0
 11
6.092849
 21
5.899029
 31
0.0
  0
LINE
  5
1CB
  8
0
 10
6.092849
 20
5.899029
 30
0.0
 11
6.092849
 21
6.153545
 31
0.0
  0
LINE
  5
1CC
  8
0
 10
6.092849
 20
6.153545
 30
0.0
 11
6.092849
 21
6.380965
 31
0.0
  0
LINE
  5
1CD
  8
0
 10
6.092849
 20
6.380965
 30
0.0
 11
6.092849
 21
7.653545
 31
0.0
  0
LINE
  5
1CE
  8
0
 10
6.092849
 20
7.653545
 30
0.0
 11
6.092849
 21
7.699029
 31
0.0
  0
LINE
  5
1CF
  8
0
 10
6.092849
 20
7.699029
 30
0.0
 11
6.092849
 21
7.953545
 31
0.0
  0
LINE
  5
1D0
  8
0
 10
6.092849
 20
7.953545
 30
0.0
 11
6.092849
 21
8.180965
 31
0.0
  0
LINE
  5
1D1
  8
0
 10
6.092849
 20
8.180965
 30
0.0
 11
6.092849
 21
9.453545
 31
0.0
  0
LINE
  5
1D2
  8
0
 10
6.092849
 20
9.453545
 30
0.0
 11
6.092849
 21
9.499029
 31
0.0
  0
LINE
  5
1D3
  8
0
 10
6.092849
 20
9.499029
 30
0.0
 11
6.092849
 21
9.753545
 31
0.0
  0
LINE
  5
1D4
  8
0
 10
6.092849
 20
9.753545
 30
0.0
 11
6.092849
 21
9.980965
 31
0.0
  0
LINE
  5
1D5
  8
0
 10
6.092849
 20
9.980965
 30
0.0
 11
6.092849
 21
11.253545
 31
0.0
  0
LINE
  5
1D6
  8
0
 10
6.092849
 20
11.253545
 30
0.0
 11
6.092849
 21
11.299029
 31
0.0
  0
LINE
  5
1D7
  8
0
 10
6.092849
 20
11.299029
 30
0.0
 11
6.092849
 21
11.553545
 31
0.0
  0
LINE
  5
1D8
  8
0
 10
6.092849
 20
11.553545
 30
0.0
 11
6.092849
 21
11.780965
 31
0.0
  0
LINE
  5
1D9
  8
0
 10
6.092849
 20
11.780965
 30
0.0
 11
6.092849
 21
13.053545
 31
0.0
  0
LINE
  5
1DA
  8
0
 10
6.092849
 20
13.053545
 30
0.0
 11
6.092849
 21
13.099029
 31
0.0
  0
LINE
  5
1DB
  8
0
 10
6.092849
 20
13.099029
 30
0.0
 11
6.092849
 21
13.353545
 31
0.0
  0
LINE
  5
1DC
  8
0
 10
6.092849
 20
13.353545
 30
0.0
 11
6.092849
 21
13.580965
 31
0.0
  0
LINE
  5
1DD
  8
0
 10
6.092849
 20
13.580965
 30
0.0
 11
6.092849
 21
14.579516
 31
0.0
  0
LINE
  5
1DE
  8
0
 10
6.092849
 20
14.579516
 30
0.0
 11
6.092849
 21
14.625
 31
0.0
  0
LINE
  5
1DF
  8
0
 10
6.592849
 20
0.563
 30
0.0
 11
6.592849
 21
0.563848
 31
0.0
  0
LINE
  5
1E0
  8
0
 10
6.592849
 20
0.563
 30
0.0
 11
6.592849
 21
0.563848
 31
0.0
  0
LINE
  5
1E1
  8
0
 10
6.592849
 20
0.563848
 30
0.0
 11
6.592849
 21
0.817516
 31
0.0
  0
LINE
  5
1E2
  8
0
 10
6.592849
 20
0.817516
 30
0.0
 11
6.592849
 21
0.993842
 31
0.0
  0
LINE
  5
1E3
  8
0
 10
6.592849
 20
0.993842
 30
0.0
 11
6.592849
 21
2.267271
 31
0.0
  0
LINE
  5
1E4
  8
0
 10
6.592849
 20
2.267271
 30
0.0
 11
6.592849
 21
2.312755
 31
0.0
  0
LINE
  5
1E5
  8
0
 10
6.592849
 20
2.312755
 30
0.0
 11
6.592849
 21
2.566423
 31
0.0
  0
LINE
  5
1E6
  8
0
 10
6.592849
 20
2.566423
 30
0.0
 11
6.592849
 21
2.793842
 31
0.0
  0
LINE
  5
1E7
  8
0
 10
6.592849
 20
2.793842
 30
0.0
 11
6.592849
 21
4.067271
 31
0.0
  0
LINE
  5
1E8
  8
0
 10
6.592849
 20
4.067271
 30
0.0
 11
6.592849
 21
4.112755
 31
0.0
  0
LINE
  5
1E9
  8
0
 10
6.592849
 20
4.112755
 30
0.0
 11
6.592849
 21
4.366423
 31
0.0
  0
LINE
  5
1EA
  8
0
 10
6.592849
 20
4.366423
 30
0.0
 11
6.592849
 21
4.593842
 31
0.0
  0
LINE
  5
1EB
  8
0
 10
6.592849
 20
4.593842
 30
0.0
 11
6.592849
 21
5.867271
 31
0.0
  0
LINE
  5
1EC
  8
0
 10
6.592849
 20
5.867271
 30
0.0
 11
6.592849
 21
5.912755
 31
0.0
  0
LINE
  5
1ED
  8
0
 10
6.592849
 20
5.912755
 30
0.0
 11
6.592849
 21
6.166423
 31
0.0
  0
LINE
  5
1EE
  8
0
 10
6.592849
 20
6.166423
 30
0.0
 11
6.592849
 21
6.393842
 31
0.0
  0
LINE
  5
1EF
  8
0
 10
6.592849
 20
6.393842
 30
0.0
 11
6.592849
 21
7.667271
 31
0.0
  0
LINE
  5
1F0
  8
0
 10
6.592849
 20
7.667271
 30
0.0
 11
6.592849
 21
7.712755
 31
0.0
  0
LINE
  5
1F1
  8
0
 10
6.592849
 20
7.712755
 30
0.0
 11
6.592849
 21
7.966423
 31
0.0
  0
LINE
  5
1F2
  8
0
 10
6.592849
 20
7.966423
 30
0.0
 11
6.592849
 21
8.193842
 31
0.0
  0
LINE
  5
1F3
  8
0
 10
6.592849
 20
8.193842
 30
0.0
 11
6.592849
 21
9.467271
 31
0.0
  0
LINE
  5
1F4
  8
0
 10
6.592849
 20
9.467271
 30
0.0
 11
6.592849
 21
9.512755
 31
0.0
  0
LINE
  5
1F5
  8
0
 10
6.592849
 20
9.512755
 30
0.0
 11
6.592849
 21
9.766423
 31
0.0
  0
LINE
  5
1F6
  8
0
 10
6.592849
 20
9.766423
 30
0.0
 11
6.592849
 21
9.993842
 31
0.0
  0
LINE
  5
1F7
  8
0
 10
6.592849
 20
9.993842
 30
0.0
 11
6.592849
 21
11.267271
 31
0.0
  0
LINE
  5
1F8
  8
0
 10
6.592849
 20
11.267271
 30
0.0
 11
6.592849
 21
11.312755
 31
0.0
  0
LINE
  5
1F9
  8
0
 10
6.592849
 20
11.312755
 30
0.0
 11
6.592849
 21
11.566423
 31
0.0
  0
LINE
  5
1FA
  8
0
 10
6.592849
 20
11.566423
 30
0.0
 11
6.592849
 21
11.793842
 31
0.0
  0
LINE
  5
1FB
  8
0
 10
6.592849
 20
11.793842
 30
0.0
 11
6.592849
 21
13.067271
 31
0.0
  0
LINE
  5
1FC
  8
0
 10
6.592849
 20
13.067271
 30
0.0
 11
6.592849
 21
13.112755
 31
0.0
  0
LINE
  5
1FD
  8
0
 10
6.592849
 20
13.112755
 30
0.0
 11
6.592849
 21
13.366423
 31
0.0
  0
LINE
  5
1FE
  8
0
 10
6.592849
 20
13.366423
 30
0.0
 11
6.592849
 21
13.593842
 31
0.0
  0
LINE
  5
1FF
  8
0
 10
6.592849
 20
13.593842
 30
0.0
 11
6.592849
 21
14.580516
 31
0.0
  0
LINE
  5
200
  8
0
 10
6.592849
 20
14.580516
 30
0.0
 11
6.592849
 21
14.626
 31
0.0
  0
LINE
  5
201
  8
0
 10
7.092849
 20
0.579
 30
0.0
 11
7.092849
 21
0.833516
 31
0.0
  0
LINE
  5
202
  8
0
 10
7.092849
 20
0.579
 30
0.0
 11
7.092849
 21
0.833516
 31
0.0
  0
LINE
  5
203
  8
0
 10
7.092849
 20
0.833516
 30
0.0
 11
7.092849
 21
1.007568
 31
0.0
  0
LINE
  5
204
  8
0
 10
7.092849
 20
1.007568
 30
0.0
 11
7.092849
 21
2.280148
 31
0.0
  0
LINE
  5
205
  8
0
 10
7.092849
 20
2.280148
 30
0.0
 11
7.092849
 21
2.325632
 31
0.0
  0
LINE
  5
206
  8
0
 10
7.092849
 20
2.325632
 30
0.0
 11
7.092849
 21
2.580148
 31
0.0
  0
LINE
  5
207
  8
0
 10
7.092849
 20
2.580148
 30
0.0
 11
7.092849
 21
2.807568
 31
0.0
  0
LINE
  5
208
  8
0
 10
7.092849
 20
2.807568
 30
0.0
 11
7.092849
 21
4.080148
 31
0.0
  0
LINE
  5
209
  8
0
 10
7.092849
 20
4.080148
 30
0.0
 11
7.092849
 21
4.125632
 31
0.0
  0
LINE
  5
20A
  8
0
 10
7.092849
 20
4.125632
 30
0.0
 11
7.092849
 21
4.380148
 31
0.0
  0
LINE
  5
20B
  8
0
 10
7.092849
 20
4.380148
 30
0.0
 11
7.092849
 21
4.607568
 31
0.0
  0
LINE
  5
20C
  8
0
 10
7.092849
 20
4.607568
 30
0.0
 11
7.092849
 21
5.880148
 31
0.0
  0
LINE
  5
20D
  8
0
 10
7.092849
 20
5.880148
 30
0.0
 11
7.092849
 21
5.925632
 31
0.0
  0
LINE
  5
20E
  8
0
 10
7.092849
 20
5.925632
 30
0.0
 11
7.092849
 21
6.180148
 31
0.0
  0
LINE
  5
20F
  8
0
 10
7.092849
 20
6.180148
 30
0.0
 11
7.092849
 21
6.407568
 31
0.0
  0
LINE
  5
210
  8
0
 10
7.092849
 20
6.407568
 30
0.0
 11
7.092849
 21
7.680148
 31
0.0
  0
LINE
  5
211
  8
0
 10
7.092849
 20
7.680148
 30
0.0
 11
7.092849
 21
7.725632
 31
0.0
  0
LINE
  5
212
  8
0
 10
7.092849
 20
7.725632
 30
0.0
 11
7.092849
 21
7.980148
 31
0.0
  0
LINE
  5
213
  8
0
 10
7.092849
 20
7.980148
 30
0.0
 11
7.092849
 21
8.207568
 31
0.0
  0
LINE
  5
214
  8
0
 10
7.092849
 20
8.207568
 30
0.0
 11
7.092849
 21
9.480148
 31
0.0
  0
LINE
  5
215
  8
0
 10
7.092849
 20
9.480148
 30
0.0
 11
7.092849
 21
9.525632
 31
0.0
  0
LINE
  5
216
  8
0
 10
7.092849
 20
9.525632
 30
0.0
 11
7.092849
 21
9.780148
 31
0.0
  0
LINE
  5
217
  8
0
 10
7.092849
 20
9.780148
 30
0.0
 11
7.092849
 21
10.007568
 31
0.0
  0
LINE
  5
218
  8
0
 10
7.092849
 20
10.007568
 30
0.0
 11
7.092849
 21
11.280148
 31
0.0
  0
LINE
  5
219
  8
0
 10
7.092849
 20
11.280148
 30
0.0
 11
7.092849
 21
11.325632
 31
0.0
  0
LINE
  5
21A
  8
0
 10
7.092849
 20
11.325632
 30
0.0
 11
7.092849
 21
11.580148
 31
0.0
  0
LINE
  5
21B
  8
0
 10
7.092849
 20
11.580148
 30
0.0
 11
7.092849
 21
11.807568
 31
0.0
  0
LINE
  5
21C
  8
0
 10
7.092849
 20
11.807568
 30
0.0
 11
7.092849
 21
13.080148
 31
0.0
  0
LINE
  5
21D
  8
0
 10
7.092849
 20
13.080148
 30
0.0
 11
7.092849
 21
13.125632
 31
0.0
  0
LINE
  5
21E
  8
0
 10
7.092849
 20
13.125632
 30
0.0
 11
7.092849
 21
13.380148
 31
0.0
  0
LINE
  5
21F
  8
0
 10
7.092849
 20
13.380148
 30
0.0
 11
7.092849
 21
13.607568
 31
0.0
  0
LINE
  5
220
  8
0
 10
7.092849
 20
13.607568
 30
0.0
 11
7.092849
 21
14.581516
 31
0.0
  0
LINE
  5
221
  8
0
 10
7.092849
 20
14.581516
 30
0.0
 11
7.092849
 21
14.627
 31
0.0
  0
LINE
  5
222
  8
0
 10
7.592849
 20
0.574
 30
0.0
 11
7.592849
 21
0.575
 31
0.0
  0
LINE
  5
223
  8
0
 10
7.592849
 20
0.574
 30
0.0
 11
7.592849
 21
0.575
 31
0.0
  0
LINE
  5
224
  8
0
 10
7.592849
 20
0.575
 30
0.0
 11
7.592849
 21
0.829516
 31
0.0
  0
LINE
  5
225
  8
0
 10
7.592849
 20
0.829516
 30
0.0
 11
7.592849
 21
1.004326
 31
0.0
  0
LINE
  5
226
  8
0
 10
7.592849
 20
1.004326
 30
0.0
 11
7.592849
 21
2.276906
 31
0.0
  0
LINE
  5
227
  8
0
 10
7.592849
 20
2.276906
 30
0.0
 11
7.592849
 21
2.322239
 31
0.0
  0
LINE
  5
228
  8
0
 10
7.592849
 20
2.322239
 30
0.0
 11
7.592849
 21
2.576755
 31
0.0
  0
LINE
  5
229
  8
0
 10
7.592849
 20
2.576755
 30
0.0
 11
7.592849
 21
2.804326
 31
0.0
  0
LINE
  5
22A
  8
0
 10
7.592849
 20
2.804326
 30
0.0
 11
7.592849
 21
4.076906
 31
0.0
  0
LINE
  5
22B
  8
0
 10
7.592849
 20
4.076906
 30
0.0
 11
7.592849
 21
4.122239
 31
0.0
  0
LINE
  5
22C
  8
0
 10
7.592849
 20
4.122239
 30
0.0
 11
7.592849
 21
4.376755
 31
0.0
  0
LINE
  5
22D
  8
0
 10
7.592849
 20
4.376755
 30
0.0
 11
7.592849
 21
4.604326
 31
0.0
  0
LINE
  5
22E
  8
0
 10
7.592849
 20
4.604326
 30
0.0
 11
7.592849
 21
5.876906
 31
0.0
  0
LINE
  5
22F
  8
0
 10
7.592849
 20
5.876906
 30
0.0
 11
7.592849
 21
5.922239
 31
0.0
  0
LINE
  5
230
  8
0
 10
7.592849
 20
5.922239
 30
0.0
 11
7.592849
 21
6.176755
 31
0.0
  0
LINE
  5
231
  8
0
 10
7.592849
 20
6.176755
 30
0.0
 11
7.592849
 21
6.404326
 31
0.0
  0
LINE
  5
232
  8
0
 10
7.592849
 20
6.404326
 30
0.0
 11
7.592849
 21
7.676906
 31
0.0
  0
LINE
  5
233
  8
0
 10
7.592849
 20
7.676906
 30
0.0
 11
7.592849
 21
7.722239
 31
0.0
  0
LINE
  5
234
  8
0
 10
7.592849
 20
7.722239
 30
0.0
 11
7.592849
 21
7.976755
 31
0.0
  0
LINE
  5
235
  8
0
 10
7.592849
 20
7.976755
 30
0.0
 11
7.592849
 21
8.204326
 31
0.0
  0
LINE
  5
236
  8
0
 10
7.592849
 20
8.204326
 30
0.0
 11
7.592849
 21
9.476906
 31
0.0
  0
LINE
  5
237
  8
0
 10
7.592849
 20
9.476906
 30
0.0
 11
7.592849
 21
9.522239
 31
0.0
  0
LINE
  5
238
  8
0
 10
7.592849
 20
9.522239
 30
0.0
 11
7.592849
 21
9.776755
 31
0.0
  0
LINE
  5
239
  8
0
 10
7.592849
 20
9.776755
 30
0.0
 11
7.592849
 21
10.004326
 31
0.0
  0
LINE
  5
23A
  8
0
 10
7.592849
 20
10.004326
 30
0.0
 11
7.592849
 21
11.276906
 31
0.0
  0
LINE
  5
23B
  8
0
 10
7.592849
 20
11.276906
 30
0.0
 11
7.592849
 21
11.322239
 31
0.0
  0
LINE
  5
23C
  8
0
 10
7.592849
 20
11.322239
 30
0.0
 11
7.592849
 21
11.576755
 31
0.0
  0
LINE
  5
23D
  8
0
 10
7.592849
 20
11.576755
 30
0.0
 11
7.592849
 21
11.804326
 31
0.0
  0
LINE
  5
23E
  8
0
 10
7.592849
 20
11.804326
 30
0.0
 11
7.592849
 21
13.076906
 31
0.0
  0
LINE
  5
23F
  8
0
 10
7.592849
 20
13.076906
 30
0.0
 11
7.592849
 21
13.122239
 31
0.0
  0
LINE
  5
240
  8
0
 10
7.592849
 20
13.122239
 30
0.0
 11
7.592849
 21
13.376755
 31
0.0
  0
LINE
  5
241
  8
0
 10
7.592849
 20
13.376755
 30
0.0
 11
7.592849
 21
13.604326
 31
0.0
  0
LINE
  5
242
  8
0
 10
7.592849
 20
13.604326
 30
0.0
 11
7.592849
 21
14.582516
 31
0.0
  0
LINE
  5
243
  8
0
 10
7.592849
 20
14.582516
 30
0.0
 11
7.592849
 21
14.628
 31
0.0
  0
LINE
  5
244
  8
0
 10
8.092849
 20
0.563
 30
0.0
 11
8.092849
 21
0.817516
 31
0.0
  0
LINE
  5
245
  8
0
 10
8.092849
 20
0.563
 30
0.0
 11
8.092849
 21
0.817516
 31
0.0
  0
LINE
  5
246
  8
0
 10
8.092849
 20
0.817516
 30
0.0
 11
8.092849
 21
0.994145
 31
0.0
  0
LINE
  5
247
  8
0
 10
8.092849
 20
0.994145
 30
0.0
 11
8.092849
 21
2.266726
 31
0.0
  0
LINE
  5
248
  8
0
 10
8.092849
 20
2.266726
 30
0.0
 11
8.092849
 21
2.31221
 31
0.0
  0
LINE
  5
249
  8
0
 10
8.092849
 20
2.31221
 30
0.0
 11
8.092849
 21
2.566726
 31
0.0
  0
LINE
  5
24A
  8
0
 10
8.092849
 20
2.566726
 30
0.0
 11
8.092849
 21
2.794145
 31
0.0
  0
LINE
  5
24B
  8
0
 10
8.092849
 20
2.794145
 30
0.0
 11
8.092849
 21
4.066726
 31
0.0
  0
LINE
  5
24C
  8
0
 10
8.092849
 20
4.066726
 30
0.0
 11
8.092849
 21
4.11221
 31
0.0
  0
LINE
  5
24D
  8
0
 10
8.092849
 20
4.11221
 30
0.0
 11
8.092849
 21
4.366726
 31
0.0
  0
LINE
  5
24E
  8
0
 10
8.092849
 20
4.366726
 30
0.0
 11
8.092849
 21
4.594145
 31
0.0
  0
LINE
  5
24F
  8
0
 10
8.092849
 20
4.594145
 30
0.0
 11
8.092849
 21
5.866726
 31
0.0
  0
LINE
  5
250
  8
0
 10
8.092849
 20
5.866726
 30
0.0
 11
8.092849
 21
5.91221
 31
0.0
  0
LINE
  5
251
  8
0
 10
8.092849
 20
5.91221
 30
0.0
 11
8.092849
 21
6.166726
 31
0.0
  0
LINE
  5
252
  8
0
 10
8.092849
 20
6.166726
 30
0.0
 11
8.092849
 21
6.394145
 31
0.0
  0
LINE
  5
253
  8
0
 10
8.092849
 20
6.394145
 30
0.0
 11
8.092849
 21
7.666726
 31
0.0
  0
LINE
  5
254
  8
0
 10
8.092849
 20
7.666726
 30
0.0
 11
8.092849
 21
7.71221
 31
0.0
  0
LINE
  5
255
  8
0
 10
8.092849
 20
7.71221
 30
0.0
 11
8.092849
 21
7.966726
 31
0.0
  0
LINE
  5
256
  8
0
 10
8.092849
 20
7.966726
 30
0.0
 11
8.092849
 21
8.194145
 31
0.0
  0
LINE
  5
257
  8
0
 10
8.092849
 20
8.194145
 30
0.0
 11
8.092849
 21
9.466726
 31
0.0
  0
LINE
  5
258
  8
0
 10
8.092849
 20
9.466726
 30
0.0
 11
8.092849
 21
9.51221
 31
0.0
  0
LINE
  5
259
  8
0
 10
8.092849
 20
9.51221
 30
0.0
 11
8.092849
 21
9.766726
 31
0.0
  0
LINE
  5
25A
  8
0
 10
8.092849
 20
9.766726
 30
0.0
 11
8.092849
 21
9.994145
 31
0.0
  0
LINE
  5
25B
  8
0
 10
8.092849
 20
9.994145
 30
0.0
 11
8.092849
 21
11.266726
 31
0.0
  0
LINE
  5
25C
  8
0
 10
8.092849
 20
11.266726
 30
0.0
 11
8.092849
 21
11.31221
 31
0.0
  0
LINE
  5
25D
  8
0
 10
8.092849
 20
11.31221
 30
0.0
 11
8.092849
 21
11.566726
 31
0.0
  0
LINE
  5
25E
  8
0
 10
8.092849
 20
11.566726
 30
0.0
 11
8.092849
 21
11.794145
 31
0.0
  0
LINE
  5
25F
  8
0
 10
8.092849
 20
11.794145
 30
0.0
 11
8.092849
 21
13.066726
 31
0.0
  0
LINE
  5
260
  8
0
 10
8.092849
 20
13.066726
 30
0.0
 11
8.092849
 21
13.11221
 31
0.0
  0
LINE
  5
261
  8
0
 10
8.092849
 20
13.11221
 30
0.0
 11
8.092849
 21
13.366726
 31
0.0
  0
LINE
  5
262
  8
0
 10
8.092849
 20
13.366726
 30
0.0
 11
8.092849
 21
13.594145
 31
0.0
  0
LINE
  5
263
  8
0
 10
8.092849
 20
13.594145
 30
0.0
 11
8.092849
 21
14.582516
 31
0.0
  0
LINE
  5
264
  8
0
 10
8.092849
 20
14.582516
 30
0.0
 11
8.092849
 21
14.628
 31
0.0
  0
LINE
  5
265
  8
0
 10
8.592849
 20
0.551
 30
0.0
 11
8.592849
 21
0.805516
 31
0.0
  0
LINE
  5
266
  8
0
 10
8.592849
 20
0.551
 30
0.0
 11
8.592849
 21
0.805516
 31
0.0
  0
LINE
  5
267
  8
0
 10
8.592849
 20
0.805516
 30
0.0
 11
8.592849
 21
0.984116
 31
0.0
  0
LINE
  5
268
  8
0
 10
8.592849
 20
0.984116
 30
0.0
 11
8.592849
 21
2.256697
 31
0.0
  0
LINE
  5
269
  8
0
 10
8.592849
 20
2.256697
 30
0.0
 11
8.592849
 21
2.302181
 31
0.0
  0
LINE
  5
26A
  8
0
 10
8.592849
 20
2.302181
 30
0.0
 11
8.592849
 21
2.556697
 31
0.0
  0
LINE
  5
26B
  8
0
 10
8.592849
 20
2.556697
 30
0.0
 11
8.592849
 21
2.784116
 31
0.0
  0
LINE
  5
26C
  8
0
 10
8.592849
 20
2.784116
 30
0.0
 11
8.592849
 21
4.056697
 31
0.0
  0
LINE
  5
26D
  8
0
 10
8.592849
 20
4.056697
 30
0.0
 11
8.592849
 21
4.102181
 31
0.0
  0
LINE
  5
26E
  8
0
 10
8.592849
 20
4.102181
 30
0.0
 11
8.592849
 21
4.356697
 31
0.0
  0
LINE
  5
26F
  8
0
 10
8.592849
 20
4.356697
 30
0.0
 11
8.592849
 21
4.584116
 31
0.0
  0
LINE
  5
270
  8
0
 10
8.592849
 20
4.584116
 30
0.0
 11
8.592849
 21
5.856697
 31
0.0
  0
LINE
  5
271
  8
0
 10
8.592849
 20
5.856697
 30
0.0
 11
8.592849
 21
5.902181
 31
0.0
  0
LINE
  5
272
  8
0
 10
8.592849
 20
5.902181
 30
0.0
 11
8.592849
 21
6.156697
 31
0.0
  0
LINE
  5
273
  8
0
 10
8.592849
 20
6.156697
 30
0.0
 11
8.592849
 21
6.384116
 31
0.0
  0
LINE
  5
274
  8
0
 10
8.592849
 20
6.384116
 30
0.0
 11
8.592849
 21
7.656697
 31
0.0
  0
LINE
  5
275
  8
0
 10
8.592849
 20
7.656697
 30
0.0
 11
8.592849
 21
7.702181
 31
0.0
  0
LINE
  5
276
  8
0
 10
8.592849
 20
7.702181
 30
0.0
 11
8.592849
 21
7.956697
 31
0.0
  0
LINE
  5
277
  8
0
 10
8.592849
 20
7.956697
 30
0.0
 11
8.592849
 21
8.184116
 31
0.0
  0
LINE
  5
278
  8
0
 10
8.592849
 20
8.184116
 30
0.0
 11
8.592849
 21
9.456697
 31
0.0
  0
LINE
  5
279
  8
0
 10
8.592849
 20
9.456697
 30
0.0
 11
8.592849
 21
9.502181
 31
0.0
  0
LINE
  5
27A
  8
0
 10
8.592849
 20
9.502181
 30
0.0
 11
8.592849
 21
9.756697
 31
0.0
  0
LINE
  5
27B
  8
0
 10
8.592849
 20
9.756697
 30
0.0
 11
8.592849
 21
9.984116
 31
0.0
  0
LINE
  5
27C
  8
0
 10
8.592849
 20
9.984116
 30
0.0
 11
8.592849
 21
11.256697
 31
0.0
  0
LINE
  5
27D
  8
0
 10
8.592849
 20
11.256697
 30
0.0
 11
8.592849
 21
11.302181
 31
0.0
  0
LINE
  5
27E
  8
0
 10
8.592849
 20
11.302181
 30
0.0
 11
8.592849
 21
11.556697
 31
0.0
  0
LINE
  5
27F
  8
0
 10
8.592849
 20
11.556697
 30
0.0
 11
8.592849
 21
11.784116
 31
0.0
  0
LINE
  5
280
  8
0
 10
8.592849
 20
11.784116
 30
0.0
 11
8.592849
 21
13.056697
 31
0.0
  0
LINE
  5
281
  8
0
 10
8.592849
 20
13.056697
 30
0.0
 11
8.592849
 21
13.102181
 31
0.0
  0
LINE
  5
282
  8
0
 10
8.592849
 20
13.102181
 30
0.0
 11
8.592849
 21
13.356697
 31
0.0
  0
LINE
  5
283
  8
0
 10
8.592849
 20
13.356697
 30
0.0
 11
8.592849
 21
13.584116
 31
0.0
  0
LINE
  5
284
  8
0
 10
8.592849
 20
13.584116
 30
0.0
 11
8.592849
 21
14.583516
 31
0.0
  0
LINE
  5
285
  8
0
 10
8.592849
 20
14.583516
 30
0.0
 11
8.592849
 21
14.629
 31
0.0
  0
LINE
  5
286
  8
0
 10
9.092849
 20
0.539
 30
0.0
 11
9.092849
 21
0.793516
 31
0.0
  0
LINE
  5
287
  8
0
 10
9.092849
 20
0.539
 30
0.0
 11
9.092849
 21
0.793516
 31
0.0
  0
LINE
  5
288
  8
0
 10
9.092849
 20
0.793516
 30
0.0
 11
9.092849
 21
0.974087
 31
0.0
  0
LINE
  5
289
  8
0
 10
9.092849
 20
0.974087
 30
0.0
 11
9.092849
 21
2.246668
 31
0.0
  0
LINE
  5
28A
  8
0
 10
9.092849
 20
2.246668
 30
0.0
 11
9.092849
 21
2.292152
 31
0.0
  0
LINE
  5
28B
  8
0
 10
9.092849
 20
2.292152
 30
0.0
 11
9.092849
 21
2.546668
 31
0.0
  0
LINE
  5
28C
  8
0
 10
9.092849
 20
2.546668
 30
0.0
 11
9.092849
 21
2.774087
 31
0.0
  0
LINE
  5
28D
  8
0
 10
9.092849
 20
2.774087
 30
0.0
 11
9.092849
 21
4.046668
 31
0.0
  0
LINE
  5
28E
  8
0
 10
9.092849
 20
4.046668
 30
0.0
 11
9.092849
 21
4.092152
 31
0.0
  0
LINE
  5
28F
  8
0
 10
9.092849
 20
4.092152
 30
0.0
 11
9.092849
 21
4.346668
 31
0.0
  0
LINE
  5
290
  8
0
 10
9.092849
 20
4.346668
 30
0.0
 11
9.092849
 21
4.574087
 31
0.0
  0
LINE
  5
291
  8
0
 10
9.092849
 20
4.574087
 30
0.0
 11
9.092849
 21
5.846668
 31
0.0
  0
LINE
  5
292
  8
0
 10
9.092849
 20
5.846668
 30
0.0
 11
9.092849
 21
5.892152
 31
0.0
  0
LINE
  5
293
  8
0
 10
9.092849
 20
5.892152
 30
0.0
 11
9.092849
 21
6.146668
 31
0.0
  0
LINE
  5
294
  8
0
 10
9.092849
 20
6.146668
 30
0.0
 11
9.092849
 21
6.374087
 31
0.0
  0
LINE
  5
295
  8
0
 10
9.092849
 20
6.374087
 30
0.0
 11
9.092849
 21
7.646668
 31
0.0
  0
LINE
  5
296
  8
0
 10
9.092849
 20
7.646668
 30
0.0
 11
9.092849
 21
7.692152
 31
0.0
  0
LINE
  5
297
  8
0
 10
9.092849
 20
7.692152
 30
0.0
 11
9.092849
 21
7.946668
 31
0.0
  0
LINE
  5
298
  8
0
 10
9.092849
 20
7.946668
 30
0.0
 11
9.092849
 21
8.174087
 31
0.0
  0
LINE
  5
299
  8
0
 10
9.092849
 20
8.174087
 30
0.0
 11
9.092849
 21
9.446668
 31
0.0
  0
LINE
  5
29A
  8
0
 10
9.092849
 20
9.446668
 30
0.0
 11
9.092849
 21
9.492152
 31
0.0
  0
LINE
  5
29B
  8
0
 10
9.092849
 20
9.492152
 30
0.0
 11
9.092849
 21
9.746668
 31
0.0
  0
LINE
  5
29C
  8
0
 10
9.092849
 20
9.746668
 30
0.0
 11
9.092849
 21
9.974087
 31
0.0
  0
LINE
  5
29D
  8
0
 10
9.092849
 20
9.974087
 30
0.0
 11
9.092849
 21
11.246668
 31
0.0
  0
LINE
  5
29E
  8
0
 10
9.092849
 20
11.246668
 30
0.0
 11
9.092849
 21
11.292152
 31
0.0
  0
LINE
  5
29F
  8
0
 10
9.092849
 20
11.292152
 30
0.0
 11
9.092849
 21
11.546668
 31
0.0
  0
LINE
  5
2A0
  8
0
 10
9.092849
 20
11.546668
 30
0.0
 11
9.092849
 21
11.774087
 31
0.0
  0
LINE
  5
2A1
  8
0
 10
9.092849
 20
11.774087
 30
0.0
 11
9.092849
 21
13.046668
 31
0.0
  0
LINE
  5
2A2
  8
0
 10
9.092849
 20
13.046668
 30
0.0
 11
9.092849
 21
13.092152
 31
0.0
  0
LINE
  5
2A3
  8
0
 10
9.092849
 20
13.092152
 30
0.0
 11
9.092849
 21
13.346668
 31
0.0
  0
LINE
  5
2A4
  8
0
 10
9.092849
 20
13.346668
 30
0.0
 11
9.092849
 21
13.574087
 31
0.0
  0
LINE
  5
2A5
  8
0
 10
9.092849
 20
13.574087
 30
0.0
 11
9.092849
 21
14.584516
 31
0.0
  0
LINE
  5
2A6
  8
0
 10
9.092849
 20
14.584516
 30
0.0
 11
9.092849
 21
14.63
 31
0.0
  0
LINE
  5
2A7
  8
0
 10
9.592849
 20
0.527
 30
0.0
 11
9.592849
 21
0.781516
 31
0.0
  0
LINE
  5
2A8
  8
0
 10
9.592849
 20
0.527
 30
0.0
 11
9.592849
 21
0.781516
 31
0.0
  0
LINE
  5
2A9
  8
0
 10
9.592849
 20
0.781516
 30
0.0
 11
9.592849
 21
0.963906
 31
0.0
  0
LINE
  5
2AA
  8
0
 10
9.592849
 20
0.963906
 30
0.0
 11
9.592849
 21
2.236487
 31
0.0
  0
LINE
  5
2AB
  8
0
 10
9.592849
 20
2.236487
 30
0.0
 11
9.592849
 21
2.281971
 31
0.0
  0
LINE
  5
2AC
  8
0
 10
9.592849
 20
2.281971
 30
0.0
 11
9.592849
 21
2.536487
 31
0.0
  0
LINE
  5
2AD
  8
0
 10
9.592849
 20
2.536487
 30
0.0
 11
9.592849
 21
2.763906
 31
0.0
  0
LINE
  5
2AE
  8
0
 10
9.592849
 20
2.763906
 30
0.0
 11
9.592849
 21
4.036487
 31
0.0
  0
LINE
  5
2AF
  8
0
 10
9.592849
 20
4.036487
 30
0.0
 11
9.592849
 21
4.081971
 31
0.0
  0
LINE
  5
2B0
  8
0
 10
9.592849
 20
4.081971
 30
0.0
 11
9.592849
 21
4.336487
 31
0.0
  0
LINE
  5
2B1
  8
0
 10
9.592849
 20
4.336487
 30
0.0
 11
9.592849
 21
4.563906
 31
0.0
  0
LINE
  5
2B2
  8
0
 10
9.592849
 20
4.563906
 30
0.0
 11
9.592849
 21
5.836487
 31
0.0
  0
LINE
  5
2B3
  8
0
 10
9.592849
 20
5.836487
 30
0.0
 11
9.592849
 21
5.881971
 31
0.0
  0
LINE
  5
2B4
  8
0
 10
9.592849
 20
5.881971
 30
0.0
 11
9.592849
 21
6.136487
 31
0.0
  0
LINE
  5
2B5
  8
0
 10
9.592849
 20
6.136487
 30
0.0
 11
9.592849
 21
6.363906
 31
0.0
  0
LINE
  5
2B6
  8
0
 10
9.592849
 20
6.363906
 30
0.0
 11
9.592849
 21
7.636487
 31
0.0
  0
LINE
  5
2B7
  8
0
 10
9.592849
 20
7.636487
 30
0.0
 11
9.592849
 21
7.681971
 31
0.0
  0
LINE
  5
2B8
  8
0
 10
9.592849
 20
7.681971
 30
0.0
 11
9.592849
 21
7.936487
 31
0.0
  0
LINE
  5
2B9
  8
0
 10
9.592849
 20
7.936487
 30
0.0
 11
9.592849
 21
8.163906
 31
0.0
  0
LINE
  5
2BA
  8
0
 10
9.592849
 20
8.163906
 30
0.0
 11
9.592849
 21
9.436487
 31
0.0
  0
LINE
  5
2BB
  8
0
 10
9.592849
 20
9.436487
 30
0.0
 11
9.592849
 21
9.481971
 31
0.0
  0
LINE
  5
2BC
  8
0
 10
9.592849
 20
9.481971
 30
0.0
 11
9.592849
 21
9.736487
 31
0.0
  0
LINE
  5
2BD
  8
0
 10
9.592849
 20
9.736487
 30
0.0
 11
9.592849
 21
9.963906
 31
0.0
  0
LINE
  5
2BE
  8
0
 10
9.592849
 20
9.963906
 30
0.0
 11
9.592849
 21
11.236487
 31
0.0
  0
LINE
  5
2BF
  8
0
 10
9.592849
 20
11.236487
 30
0.0
 11
9.592849
 21
11.281971
 31
0.0
  0
LINE
  5
2C0
  8
0
 10
9.592849
 20
11.281971
 30
0.0
 11
9.592849
 21
11.536487
 31
0.0
  0
LINE
  5
2C1
  8
0
 10
9.592849
 20
11.536487
 30
0.0
 11
9.592849
 21
11.763906
 31
0.0
  0
LINE
  5
2C2
  8
0
 10
9.592849
 20
11.763906
 30
0.0
 11
9.592849
 21
13.036487
 31
0.0
  0
LINE
  5
2C3
  8
0
 10
9.592849
 20
13.036487
 30
0.0
 11
9.592849
 21
13.081971
 31
0.0
  0
LINE
  5
2C4
  8
0
 10
9.592849
 20
13.081971
 30
0.0
 11
9.592849
 21
13.336487
 31
0.0
  0
LINE
  5
2C5
  8
0
 10
9.592849
 20
13.336487
 30
0.0
 11
9.592849
 21
13.563906
 31
0.0
  0
LINE
  5
2C6
  8
0
 10
9.592849
 20
13.563906
 30
0.0
 11
9.592849
 21
14.584516
 31
0.0
  0
LINE
  5
2C7
  8
0
 10
9.592849
 20
14.584516
 30
0.0
 11
9.592849
 21
14.63
 31
0.0
  0
LINE
  5
2C8
  8
0
 10
10.092849
 20
0.515
 30
0.0
 11
10.092849
 21
0.769516
 31
0.0
  0
LINE
  5
2C9
  8
0
 10
10.092849
 20
0.515
 30
0.0
 11
10.092849
 21
0.769516
 31
0.0
  0
LINE
  5
2CA
  8
0
 10
10.092849
 20
0.769516
 30
0.0
 11
10.092849
 21
0.953877
 31
0.0
  0
LINE
  5
2CB
  8
0
 10
10.092849
 20
0.953877
 30
0.0
 11
10.092849
 21
2.226458
 31
0.0
  0
LINE
  5
2CC
  8
0
 10
10.092849
 20
2.226458
 30
0.0
 11
10.092849
 21
2.271942
 31
0.0
  0
LINE
  5
2CD
  8
0
 10
10.092849
 20
2.271942
 30
0.0
 11
10.092849
 21
2.526458
 31
0.0
  0
LINE
  5
2CE
  8
0
 10
10.092849
 20
2.526458
 30
0.0
 11
10.092849
 21
2.753877
 31
0.0
  0
LINE
  5
2CF
  8
0
 10
10.092849
 20
2.753877
 30
0.0
 11
10.092849
 21
4.026458
 31
0.0
  0
LINE
  5
2D0
  8
0
 10
10.092849
 20
4.026458
 30
0.0
 11
10.092849
 21
4.071942
 31
0.0
  0
LINE
  5
2D1
  8
0
 10
10.092849
 20
4.071942
 30
0.0
 11
10.092849
 21
4.326458
 31
0.0
  0
LINE
  5
2D2
  8
0
 10
10.092849
 20
4.326458
 30
0.0
 11
10.092849
 21
4.553877
 31
0.0
  0
LINE
  5
2D3
  8
0
 10
10.092849
 20
4.553877
 30
0.0
 11
10.092849
 21
5.826458
 31
0.0
  0
LINE
  5
2D4
  8
0
 10
10.092849
 20
5.826458
 30
0.0
 11
10.092849
 21
5.871942
 31
0.0
  0
LINE
  5
2D5
  8
0
 10
10.092849
 20
5.871942
 30
0.0
 11
10.092849
 21
6.126458
 31
0.0
  0
LINE
  5
2D6
  8
0
 10
10.092849
 20
6.126458
 30
0.0
 11
10.092849
 21
6.353877
 31
0.0
  0
LINE
  5
2D7
  8
0
 10
10.092849
 20
6.353877
 30
0.0
 11
10.092849
 21
7.626458
 31
0.0
  0
LINE
  5
2D8
  8
0
 10
10.092849
 20
7.626458
 30
0.0
 11
10.092849
 21
7.671942
 31
0.0
  0
LINE
  5
2D9
  8
0
 10
10.092849
 20
7.671942
 30
0.0
 11
10.092849
 21
7.926458
 31
0.0
  0
LINE
  5
2DA
  8
0
 10
10.092849
 20
7.926458
 30
0.0
 11
10.092849
 21
8.153877
 31
0.0
  0
LINE
  5
2DB
  8
0
 10
10.092849
 20
8.153877
 30
0.0
 11
10.092849
 21
9.426458
 31
0.0
  0
LINE
  5
2DC
  8
0
 10
10.092849
 20
9.426458
 30
0.0
 11
10.092849
 21
9.471942
 31
0.0
  0
LINE
  5
2DD
  8
0
 10
10.092849
 20
9.471942
 30
0.0
 11
10.092849
 21
9.726458
 31
0.0
  0
LINE
  5
2DE
  8
0
 10
10.092849
 20
9.726458
 30
0.0
 11
10.092849
 21
9.953877
 31
0.0
  0
LINE
  5
2DF
  8
0
 10
10.092849
 20
9.953877
 30
0.0
 11
10.092849
 21
11.226458
 31
0.0
  0
LINE
  5
2E0
  8
0
 10
10.092849
 20
11.226458
 30
0.0
 11
10.092849
 21
11.271942
 31
0.0
  0
LINE
  5
2E1
  8
0
 10
10.092849
 20
11.271942
 30
0.0
 11
10.092849
 21
11.526458
 31
0.0
  0
LINE
  5
2E2
  8
0
 10
10.092849
 20
11.526458
 30
0.0
 11
10.092849
 21
11.753877
 31
0.0
  0
LINE
  5
2E3
  8
0
 10
10.092849
 20
11.753877
 30
0.0
 11
10.092849
 21
13.026458
 31
0.0
  0
LINE
  5
2E4
  8
0
 10
10.092849
 20
13.026458
 30
0.0
 11
10.092849
 21
13.071942
 31
0.0
  0
LINE
  5
2E5
  8
0
 10
10.092849
 20
13.071942
 30
0.0
 11
10.092849
 21
13.326458
 31
0.0
  0
LINE
  5
2E6
  8
0
 10
10.092849
 20
13.326458
 30
0.0
 11
10.092849
 21
13.553877
 31
0.0
  0
LINE
  5
2E7
  8
0
 10
10.092849
 20
13.553877
 30
0.0
 11
10.092849
 21
14.585516
 31
0.0
  0
LINE
  5
2E8
  8
0
 10
10.092849
 20
14.585516
 30
0.0
 11
10.092849
 21
14.631
 31
0.0
  0
LINE
  5
2E9
  8
0
 10
10.592849
 20
0.503
 30
0.0
 11
10.592849
 21
0.757516
 31
0.0
  0
LINE
  5
2EA
  8
0
 10
10.592849
 20
0.503
 30
0.0
 11
10.592849
 21
0.757516
 31
0.0
  0
LINE
  5
2EB
  8
0
 10
10.592849
 20
0.757516
 30
0.0
 11
10.592849
 21
0.943848
 31
0.0
  0
LINE
  5
2EC
  8
0
 10
10.592849
 20
0.943848
 30
0.0
 11
10.592849
 21
2.216429
 31
0.0
  0
LINE
  5
2ED
  8
0
 10
10.592849
 20
2.216429
 30
0.0
 11
10.592849
 21
2.261913
 31
0.0
  0
LINE
  5
2EE
  8
0
 10
10.592849
 20
2.261913
 30
0.0
 11
10.592849
 21
2.516429
 31
0.0
  0
LINE
  5
2EF
  8
0
 10
10.592849
 20
2.516429
 30
0.0
 11
10.592849
 21
2.743848
 31
0.0
  0
LINE
  5
2F0
  8
0
 10
10.592849
 20
2.743848
 30
0.0
 11
10.592849
 21
4.016429
 31
0.0
  0
LINE
  5
2F1
  8
0
 10
10.592849
 20
4.016429
 30
0.0
 11
10.592849
 21
4.061913
 31
0.0
  0
LINE
  5
2F2
  8
0
 10
10.592849
 20
4.061913
 30
0.0
 11
10.592849
 21
4.316429
 31
0.0
  0
LINE
  5
2F3
  8
0
 10
10.592849
 20
4.316429
 30
0.0
 11
10.592849
 21
4.543848
 31
0.0
  0
LINE
  5
2F4
  8
0
 10
10.592849
 20
4.543848
 30
0.0
 11
10.592849
 21
5.816429
 31
0.0
  0
LINE
  5
2F5
  8
0
 10
10.592849
 20
5.816429
 30
0.0
 11
10.592849
 21
5.861913
 31
0.0
  0
LINE
  5
2F6
  8
0
 10
10.592849
 20
5.861913
 30
0.0
 11
10.592849
 21
6.116429
 31
0.0
  0
LINE
  5
2F7
  8
0
 10
10.592849
 20
6.116429
 30
0.0
 11
10.592849
 21
6.343848
 31
0.0
  0
LINE
  5
2F8
  8
0
 10
10.592849
 20
6.343848
 30
0.0
 11
10.592849
 21
7.616429
 31
0.0
  0
LINE
  5
2F9
  8
0
 10
10.592849
 20
7.616429
 30
0.0
 11
10.592849
 21
7.661913
 31
0.0
  0
LINE
  5
2FA
  8
0
 10
10.592849
 20
7.661913
 30
0.0
 11
10.592849
 21
7.916429
 31
0.0
  0
LINE
  5
2FB
  8
0
 10
10.592849
 20
7.916429
 30
0.0
 11
10.592849
 21
8.143848
 31
0.0
  0
LINE
  5
2FC
  8
0
 10
10.592849
 20
8.143848
 30
0.0
 11
10.592849
 21
9.416429
 31
0.0
  0
LINE
  5
2FD
  8
0
 10
10.592849
 20
9.416429
 30
0.0
 11
10.592849
 21
9.461913
 31
0.0
  0
LINE
  5
2FE
  8
0
 10
10.592849
 20
9.461913
 30
0.0
 11
10.592849
 21
9.716429
 31
0.0
  0
LINE
  5
2FF
  8
0
 10
10.592849
 20
9.716429
 30
0.0
 11
10.592849
 21
9.943848
 31
0.0
  0
LINE
  5
300
  8
0
 10
10.592849
 20
9.943848
 30
0.0
 11
10.592849
 21
11.216429
 31
0.0
  0
LINE
  5
301
  8
0
 10
10.592849
 20
11.216429
 30
0.0
 11
10.592849
 21
11.261913
 31
0.0
  0
LINE
  5
302
  8
0
 10
10.592849
 20
11.261913
 30
0.0
 11
10.592849
 21
11.516429
 31
0.0
  0
LINE
  5
303
  8
0
 10
10.592849
 20
11.516429
 30
0.0
 11
10.592849
 21
11.743848
 31
0.0
  0
LINE
  5
304
  8
0
 10
10.592849
 20
11.743848
 30
0.0
 11
10.592849
 21
13.016429
 31
0.0
  0
LINE
  5
305
  8
0
 10
10.592849
 20
13.016429
 30
0.0
 11
10.592849
 21
13.061913
 31
0.0
  0
LINE
  5
306
  8
0
 10
10.592849
 20
13.061913
 30
0.0
 11
10.592849
 21
13.316429
 31
0.0
  0
LINE
  5
307
  8
0
 10
10.592849
 20
13.316429
 30
0.0
 11
10.592849
 21
13.543848
 31
0.0
  0
LINE
  5
308
  8
0
 10
10.592849
 20
13.543848
 30
0.0
 11
10.592849
 21
14.586516
 31
0.0
  0
LINE
  5
309
  8
0
 10
10.592849
 20
14.586516
 30
0.0
 11
10.592849
 21
14.632
 31
0.0
  0
LINE
  5
30A
  8
0
 10
11.092849
 20
0.491
 30
0.0
 11
11.092849
 21
0.745516
 31
0.0
  0
LINE
  5
30B
  8
0
 10
11.092849
 20
0.491
 30
0.0
 11
11.092849
 21
0.745516
 31
0.0
  0
LINE
  5
30C
  8
0
 10
11.092849
 20
0.745516
 30
0.0
 11
11.092849
 21
0.933819
 31
0.0
  0
LINE
  5
30D
  8
0
 10
11.092849
 20
0.933819
 30
0.0
 11
11.092849
 21
2.2064
 31
0.0
  0
LINE
  5
30E
  8
0
 10
11.092849
 20
2.2064
 30
0.0
 11
11.092849
 21
2.251732
 31
0.0
  0
LINE
  5
30F
  8
0
 10
11.092849
 20
2.251732
 30
0.0
 11
11.092849
 21
2.506248
 31
0.0
  0
LINE
  5
310
  8
0
 10
11.092849
 20
2.506248
 30
0.0
 11
11.092849
 21
2.733819
 31
0.0
  0
LINE
  5
311
  8
0
 10
11.092849
 20
2.733819
 30
0.0
 11
11.092849
 21
4.0064
 31
0.0
  0
LINE
  5
312
  8
0
 10
11.092849
 20
4.0064
 30
0.0
 11
11.092849
 21
4.051732
 31
0.0
  0
LINE
  5
313
  8
0
 10
11.092849
 20
4.051732
 30
0.0
 11
11.092849
 21
4.306248
 31
0.0
  0
LINE
  5
314
  8
0
 10
11.092849
 20
4.306248
 30
0.0
 11
11.092849
 21
4.533819
 31
0.0
  0
LINE
  5
315
  8
0
 10
11.092849
 20
4.533819
 30
0.0
 11
11.092849
 21
5.8064
 31
0.0
  0
LINE
  5
316
  8
0
 10
11.092849
 20
5.8064
 30
0.0
 11
11.092849
 21
5.851732
 31
0.0
  0
LINE
  5
317
  8
0
 10
11.092849
 20
5.851732
 30
0.0
 11
11.092849
 21
6.106248
 31
0.0
  0
LINE
  5
318
  8
0
 10
11.092849
 20
6.106248
 30
0.0
 11
11.092849
 21
6.333819
 31
0.0
  0
LINE
  5
319
  8
0
 10
11.092849
 20
6.333819
 30
0.0
 11
11.092849
 21
7.6064
 31
0.0
  0
LINE
  5
31A
  8
0
 10
11.092849
 20
7.6064
 30
0.0
 11
11.092849
 21
7.651732
 31
0.0
  0
LINE
  5
31B
  8
0
 10
11.092849
 20
7.651732
 30
0.0
 11
11.092849
 21
7.906248
 31
0.0
  0
LINE
  5
31C
  8
0
 10
11.092849
 20
7.906248
 30
0.0
 11
11.092849
 21
8.133819
 31
0.0
  0
LINE
  5
31D
  8
0
 10
11.092849
 20
8.133819
 30
0.0
 11
11.092849
 21
9.4064
 31
0.0
  0
LINE
  5
31E
  8
0
 10
11.092849
 20
9.4064
 30
0.0
 11
11.092849
 21
9.451732
 31
0.0
  0
LINE
  5
31F
  8
0
 10
11.092849
 20
9.451732
 30
0.0
 11
11.092849
 21
9.706248
 31
0.0
  0
LINE
  5
320
  8
0
 10
11.092849
 20
9.706248
 30
0.0
 11
11.092849
 21
9.933819
 31
0.0
  0
LINE
  5
321
  8
0
 10
11.092849
 20
9.933819
 30
0.0
 11
11.092849
 21
11.2064
 31
0.0
  0
LINE
  5
322
  8
0
 10
11.092849
 20
11.2064
 30
0.0
 11
11.092849
 21
11.251732
 31
0.0
  0
LINE
  5
323
  8
0
 10
11.092849
 20
11.251732
 30
0.0
 11
11.092849
 21
11.506248
 31
0.0
  0
LINE
  5
324
  8
0
 10
11.092849
 20
11.506248
 30
0.0
 11
11.092849
 21
11.733819
 31
0.0
  0
LINE
  5
325
  8
0
 10
11.092849
 20
11.733819
 30
0.0
 11
11.092849
 21
13.0064
 31
0.0
  0
LINE
  5
326
  8
0
 10
11.092849
 20
13.0064
 30
0.0
 11
11.092849
 21
13.051732
 31
0.0
  0
LINE
  5
327
  8
0
 10
11.092849
 20
13.051732
 30
0.0
 11
11.092849
 21
13.306248
 31
0.0
  0
LINE
  5
328
  8
0
 10
11.092849
 20
13.306248
 30
0.0
 11
11.092849
 21
13.533819
 31
0.0
  0
LINE
  5
329
  8
0
 10
11.092849
 20
13.533819
 30
0.0
 11
11.092849
 21
14.587516
 31
0.0
  0
LINE
  5
32A
  8
0
 10
11.092849
 20
14.587516
 30
0.0
 11
11.092849
 21
14.633
 31
0.0
  0
LINE
  5
32B
  8
0
 10
11.592849
 20
0.479
 30
0.0
 11
11.592849
 21
0.733516
 31
0.0
  0
LINE
  5
32C
  8
0
 10
11.592849
 20
0.479
 30
0.0
 11
11.592849
 21
0.733516
 31
0.0
  0
LINE
  5
32D
  8
0
 10
11.592849
 20
0.733516
 30
0.0
 11
11.592849
 21
0.923639
 31
0.0
  0
LINE
  5
32E
  8
0
 10
11.592849
 20
0.923639
 30
0.0
 11
11.592849
 21
2.196219
 31
0.0
  0
LINE
  5
32F
  8
0
 10
11.592849
 20
2.196219
 30
0.0
 11
11.592849
 21
2.241703
 31
0.0
  0
LINE
  5
330
  8
0
 10
11.592849
 20
2.241703
 30
0.0
 11
11.592849
 21
2.496219
 31
0.0
  0
LINE
  5
331
  8
0
 10
11.592849
 20
2.496219
 30
0.0
 11
11.592849
 21
2.723639
 31
0.0
  0
LINE
  5
332
  8
0
 10
11.592849
 20
2.723639
 30
0.0
 11
11.592849
 21
3.996219
 31
0.0
  0
LINE
  5
333
  8
0
 10
11.592849
 20
3.996219
 30
0.0
 11
11.592849
 21
4.041703
 31
0.0
  0
LINE
  5
334
  8
0
 10
11.592849
 20
4.041703
 30
0.0
 11
11.592849
 21
4.296219
 31
0.0
  0
LINE
  5
335
  8
0
 10
11.592849
 20
4.296219
 30
0.0
 11
11.592849
 21
4.523639
 31
0.0
  0
LINE
  5
336
  8
0
 10
11.592849
 20
4.523639
 30
0.0
 11
11.592849
 21
5.796219
 31
0.0
  0
LINE
  5
337
  8
0
 10
11.592849
 20
5.796219
 30
0.0
 11
11.592849
 21
5.841703
 31
0.0
  0
LINE
  5
338
  8
0
 10
11.592849
 20
5.841703
 30
0.0
 11
11.592849
 21
6.096219
 31
0.0
  0
LINE
  5
339
  8
0
 10
11.592849
 20
6.096219
 30
0.0
 11
11.592849
 21
6.323639
 31
0.0
  0
LINE
  5
33A
  8
0
 10
11.592849
 20
6.323639
 30
0.0
 11
11.592849
 21
7.596219
 31
0.0
  0
LINE
  5
33B
  8
0
 10
11.592849
 20
7.596219
 30
0.0
 11
11.592849
 21
7.641703
 31
0.0
  0
LINE
  5
33C
  8
0
 10
11.592849
 20
7.641703
 30
0.0
 11
11.592849
 21
7.896219
 31
0.0
  0
LINE
  5
33D
  8
0
 10
11.592849
 20
7.896219
 30
0.0
 11
11.592849
 21
8.123639
 31
0.0
  0
LINE
  5
33E
  8
0
 10
11.592849
 20
8.123639
 30
0.0
 11
11.592849
 21
9.396219
 31
0.0
  0
LINE
  5
33F
  8
0
 10
11.592849
 20
9.396219
 30
0.0
 11
11.592849
 21
9.441703
 31
0.0
  0
LINE
  5
340
  8
0
 10
11.592849
 20
9.441703
 30
0.0
 11
11.592849
 21
9.696219
 31
0.0
  0
LINE
  5
341
  8
0
 10
11.592849
 20
9.696219
 30
0.0
 11
11.592849
 21
9.923639
 31
0.0
  0
LINE
  5
342
  8
0
 10
11.592849
 20
9.923639
 30
0.0
 11
11.592849
 21
11.196219
 31
0.0
  0
LINE
  5
343
  8
0
 10
11.592849
 20
11.196219
 30
0.0
 11
11.592849
 21
11.241703
 31
0.0
  0
LINE
  5
344
  8
0
 10
11.592849
 20
11.241703
 30
0.0
 11
11.592849
 21
11.496219
 31
0.0
  0
LINE
  5
345
  8
0
 10
11.592849
 20
11.496219
 30
0.0
 11
11.592849
 21
11.723639
 31
0.0
  0
LINE
  5
346
  8
0
 10
11.592849
 20
11.723639
 30
0.0
 11
11.592849
 21
12.996219
 31
0.0
  0
LINE
  5
347
  8
0
 10
11.592849
 20
12.996219
 30
0.0
 11
11.592849
 21
13.041703
 31
0.0
  0
LINE
  5
348
  8
0
 10
11.592849
 20
13.041703
 30
0.0
 11
11.592849
 21
13.296219
 31
0.0
  0
LINE
  5
349
  8
0
 10
11.592849
 20
13.296219
 30
0.0
 11
11.592849
 21
13.523639
 31
0.0
  0
LINE
  5
34A
  8
0
 10
11.592849
 20
13.523639
 30
0.0
 11
11.592849
 21
14.587516
 31
0.0
  0
LINE
  5
34B
  8
0
 10
11.592849
 20
14.587516
 30
0.0
 11
11.592849
 21
14.633
 31
0.0
  0
LINE
  5
34C
  8
0
 10
12.092849
 20
0.467
 30
0.0
 11
12.092849
 21
0.721516
 31
0.0
  0
LINE
  5
34D
  8
0
 10
12.092849
 20
0.467
 30
0.0
 11
12.092849
 21
0.721516
 31
0.0
  0
LINE
  5
34E
  8
0
 10
12.092849
 20
0.721516
 30
0.0
 11
12.092849
 21
0.91361
 31
0.0
  0
LINE
  5
34F
  8
0
 10
12.092849
 20
0.91361
 30
0.0
 11
12.092849
 21
2.18619
 31
0.0
  0
LINE
  5
350
  8
0
 10
12.092849
 20
2.18619
 30
0.0
 11
12.092849
 21
2.231674
 31
0.0
  0
LINE
  5
351
  8
0
 10
12.092849
 20
2.231674
 30
0.0
 11
12.092849
 21
2.48619
 31
0.0
  0
LINE
  5
352
  8
0
 10
12.092849
 20
2.48619
 30
0.0
 11
12.092849
 21
2.71361
 31
0.0
  0
LINE
  5
353
  8
0
 10
12.092849
 20
2.71361
 30
0.0
 11
12.092849
 21
3.98619
 31
0.0
  0
LINE
  5
354
  8
0
 10
12.092849
 20
3.98619
 30
0.0
 11
12.092849
 21
4.031674
 31
0.0
  0
LINE
  5
355
  8
0
 10
12.092849
 20
4.031674
 30
0.0
 11
12.092849
 21
4.28619
 31
0.0
  0
LINE
  5
356
  8
0
 10
12.092849
 20
4.28619
 30
0.0
 11
12.092849
 21
4.51361
 31
0.0
  0
LINE
  5
357
  8
0
 10
12.092849
 20
4.51361
 30
0.0
 11
12.092849
 21
5.78619
 31
0.0
  0
LINE
  5
358
  8
0
 10
12.092849
 20
5.78619
 30
0.0
 11
12.092849
 21
5.831674
 31
0.0
  0
LINE
  5
359
  8
0
 10
12.092849
 20
5.831674
 30
0.0
 11
12.092849
 21
6.08619
 31
0.0
  0
LINE
  5
35A
  8
0
 10
12.092849
 20
6.08619
 30
0.0
 11
12.092849
 21
6.31361
 31
0.0
  0
LINE
  5
35B
  8
0
 10
12.092849
 20
6.31361
 30
0.0
 11
12.092849
 21
7.58619
 31
0.0
  0
LINE
  5
35C
  8
0
 10
12.092849
 20
7.58619
 30
0.0
 11
12.092849
 21
7.631674
 31
0.0
  0
LINE
  5
35D
  8
0
 10
12.092849
 20
7.631674
 30
0.0
 11
12.092849
 21
7.88619
 31
0.0
  0
LINE
  5
35E
  8
0
 10
12.092849
 20
7.88619
 30
0.0
 11
12.092849
 21
8.11361
 31
0.0
  0
LINE
  5
35F
  8
0
 10
12.092849
 20
8.11361
 30
0.0
 11
12.092849
 21
9.38619
 31
0.0
  0
LINE
  5
360
  8
0
 10
12.092849
 20
9.38619
 30
0.0
 11
12.092849
 21
9.431674
 31
0.0
  0
LINE
  5
361
  8
0
 10
12.092849
 20
9.431674
 30
0.0
 11
12.092849
 21
9.68619
 31
0.0
  0
LINE
  5
362
  8
0
 10
12.092849
 20
9.68619
 30
0.0
 11
12.092849
 21
9.91361
 31
0.0
  0
LINE
  5
363
  8
0
 10
12.092849
 20
9.91361
 30
0.0
 11
12.092849
 21
11.18619
 31
0.0
  0
LINE
  5
364
  8
0
 10
12.092849
 20
11.18619
 30
0.0
 11
12.092849
 21
11.231674
 31
0.0
  0
LINE
  5
365
  8
0
 10
12.092849
 20
11.231674
 30
0.0
 11
12.092849
 21
11.48619
 31
0.0
  0
LINE
  5
366
  8
0
 10
12.092849
 20
11.48619
 30
0.0
 11
12.092849
 21
11.71361
 31
0.0
  0
LINE
  5
367
  8
0
 10
12.092849
 20
11.71361
 30
0.0
 11
12.092849
 21
12.98619
 31
0.0
  0
LINE
  5
368
  8
0
 10
12.092849
 20
12.98619
 30
0.0
 11
12.092849
 21
13.031674
 31
0.0
  0
LINE
  5
369
  8
0
 10
12.092849
 20
13.031674
 30
0.0
 11
12.092849
 21
13.28619
 31
0.0
  0
LINE
  5
36A
  8
0
 10
12.092849
 20
13.28619
 30
0.0
 11
12.092849
 21
13.51361
 31
0.0
  0
LINE
  5
36B
  8
0
 10
12.092849
 20
13.51361
 30
0.0
 11
12.092849
 21
14.588516
 31
0.0
  0
LINE
  5
36C
  8
0
 10
12.092849
 20
14.588516
 30
0.0
 11
12.092849
 21
14.634
 31
0.0
  0
LINE
  5
36D
  8
0
 10
12.592849
 20
0.455
 30
0.0
 11
12.592849
 21
0.709516
 31
0.0
  0
LINE
  5
36E
  8
0
 10
12.592849
 20
0.455
 30
0.0
 11
12.592849
 21
0.709516
 31
0.0
  0
LINE
  5
36F
  8
0
 10
12.592849
 20
0.709516
 30
0.0
 11
12.592849
 21
0.903581
 31
0.0
  0
LINE
  5
370
  8
0
 10
12.592849
 20
0.903581
 30
0.0
 11
12.592849
 21
2.176161
 31
0.0
  0
LINE
  5
371
  8
0
 10
12.592849
 20
2.176161
 30
0.0
 11
12.592849
 21
2.221645
 31
0.0
  0
LINE
  5
372
  8
0
 10
12.592849
 20
2.221645
 30
0.0
 11
12.592849
 21
2.476161
 31
0.0
  0
LINE
  5
373
  8
0
 10
12.592849
 20
2.476161
 30
0.0
 11
12.592849
 21
2.703581
 31
0.0
  0
LINE
  5
374
  8
0
 10
12.592849
 20
2.703581
 30
0.0
 11
12.592849
 21
3.976161
 31
0.0
  0
LINE
  5
375
  8
0
 10
12.592849
 20
3.976161
 30
0.0
 11
12.592849
 21
4.021645
 31
0.0
  0
LINE
  5
376
  8
0
 10
12.592849
 20
4.021645
 30
0.0
 11
12.592849
 21
4.276161
 31
0.0
  0
LINE
  5
377
  8
0
 10
12.592849
 20
4.276161
 30
0.0
 11
12.592849
 21
4.503581
 31
0.0
  0
LINE
  5
378
  8
0
 10
12.592849
 20
4.503581
 30
0.0
 11
12.592849
 21
5.776161
 31
0.0
  0
LINE
  5
379
  8
0
 10
12.592849
 20
5.776161
 30
0.0
 11
12.592849
 21
5.821645
 31
0.0
  0
LINE
  5
37A
  8
0
 10
12.592849
 20
5.821645
 30
0.0
 11
12.592849
 21
6.076161
 31
0.0
  0
LINE
  5
37B
  8
0
 10
12.592849
 20
6.076161
 30
0.0
 11
12.592849
 21
6.303581
 31
0.0
  0
LINE
  5
37C
  8
0
 10
12.592849
 20
6.303581
 30
0.0
 11
12.592849
 21
7.576161
 31
0.0
  0
LINE
  5
37D
  8
0
 10
12.592849
 20
7.576161
 30
0.0
 11
12.592849
 21
7.621645
 31
0.0
  0
LINE
  5
37E
  8
0
 10
12.592849
 20
7.621645
 30
0.0
 11
12.592849
 21
7.876161
 31
0.0
  0
LINE
  5
37F
  8
0
 10
12.592849
 20
7.876161
 30
0.0
 11
12.592849
 21
8.103581
 31
0.0
  0
LINE
  5
380
  8
0
 10
12.592849
 20
8.103581
 30
0.0
 11
12.592849
 21
9.376161
 31
0.0
  0
LINE
  5
381
  8
0
 10
12.592849
 20
9.376161
 30
0.0
 11
12.592849
 21
9.421645
 31
0.0
  0
LINE
  5
382
  8
0
 10
12.592849
 20
9.421645
 30
0.0
 11
12.592849
 21
9.676161
 31
0.0
  0
LINE
  5
383
  8
0
 10
12.592849
 20
9.676161
 30
0.0
 11
12.592849
 21
9.903581
 31
0.0
  0
LINE
  5
384
  8
0
 10
12.592849
 20
9.903581
 30
0.0
 11
12.592849
 21
11.176161
 31
0.0
  0
LINE
  5
385
  8
0
 10
12.592849
 20
11.176161
 30
0.0
 11
12.592849
 21
11.221645
 31
0.0
  0
LINE
  5
386
  8
0
 10
12.592849
 20
11.221645
 30
0.0
 11
12.592849
 21
11.476161
 31
0.0
  0
LINE
  5
387
  8
0
 10
12.592849
 20
11.476161
 30
0.0
 11
12.592849
 21
11.703581
 31
0.0
  0
LINE
  5
388
  8
0
 10
12.592849
 20
11.703581
 30
0.0
 11
12.592849
 21
12.976161
 31
0.0
  0
LINE
  5
389
  8
0
 10
12.592849
 20
12.976161
 30
0.0
 11
12.592849
 21
13.021645
 31
0.0
  0
LINE
  5
38A
  8
0
 10
12.592849
 20
13.021645
 30
0.0
 11
12.592849
 21
13.276161
 31
0.0
  0
LINE
  5
38B
  8
0
 10
12.592849
 20
13.276161
 30
0.0
 11
12.592849
 21
13.503581
 31
0.0
  0
LINE
  5
38C
  8
0
 10
12.592849
 20
13.503581
 30
0.0
 11
12.592849
 21
14.589516
 31
0.0
  0
LINE
  5
38D
  8
0
 10
12.592849
 20
14.589516
 30
0.0
 11
12.592849
 21
14.635
 31
0.0
  0
LINE
  5
38E
  8
0
 10
13.092849
 20
0.455
 30
0.0
 11
13.092849
 21
0.709516
 31
0.0
  0
LINE
  5
38F
  8
0
 10
13.092849
 20
0.455
 30
0.0
 11
13.092849
 21
0.709516
 31
0.0
  0
LINE
  5
390
  8
0
 10
13.092849
 20
0.709516
 30
0.0
 11
13.092849
 21
0.903732
 31
0.0
  0
LINE
  5
391
  8
0
 10
13.092849
 20
0.903732
 30
0.0
 11
13.092849
 21
2.176313
 31
0.0
  0
LINE
  5
392
  8
0
 10
13.092849
 20
2.176313
 30
0.0
 11
13.092849
 21
2.221645
 31
0.0
  0
LINE
  5
393
  8
0
 10
13.092849
 20
2.221645
 30
0.0
 11
13.092849
 21
2.476161
 31
0.0
  0
LINE
  5
394
  8
0
 10
13.092849
 20
2.476161
 30
0.0
 11
13.092849
 21
2.703732
 31
0.0
  0
LINE
  5
395
  8
0
 10
13.092849
 20
2.703732
 30
0.0
 11
13.092849
 21
3.976313
 31
0.0
  0
LINE
  5
396
  8
0
 10
13.092849
 20
3.976313
 30
0.0
 11
13.092849
 21
4.021645
 31
0.0
  0
LINE
  5
397
  8
0
 10
13.092849
 20
4.021645
 30
0.0
 11
13.092849
 21
4.276161
 31
0.0
  0
LINE
  5
398
  8
0
 10
13.092849
 20
4.276161
 30
0.0
 11
13.092849
 21
4.503732
 31
0.0
  0
LINE
  5
399
  8
0
 10
13.092849
 20
4.503732
 30
0.0
 11
13.092849
 21
5.776313
 31
0.0
  0
LINE
  5
39A
  8
0
 10
13.092849
 20
5.776313
 30
0.0
 11
13.092849
 21
5.821645
 31
0.0
  0
LINE
  5
39B
  8
0
 10
13.092849
 20
5.821645
 30
0.0
 11
13.092849
 21
6.076161
 31
0.0
  0
LINE
  5
39C
  8
0
 10
13.092849
 20
6.076161
 30
0.0
 11
13.092849
 21
6.303732
 31
0.0
  0
LINE
  5
39D
  8
0
 10
13.092849
 20
6.303732
 30
0.0
 11
13.092849
 21
7.576313
 31
0.0
  0
LINE
  5
39E
  8
0
 10
13.092849
 20
7.576313
 30
0.0
 11
13.092849
 21
7.621645
 31
0.0
  0
LINE
  5
39F
  8
0
 10
13.092849
 20
7.621645
 30
0.0
 11
13.092849
 21
7.876161
 31
0.0
  0
LINE
  5
3A0
  8
0
 10
13.092849
 20
7.876161
 30
0.0
 11
13.092849
 21
8.103732
 31
0.0
  0
LINE
  5
3A1
  8
0
 10
13.092849
 20
8.103732
 30
0.0
 11
13.092849
 21
9.376313
 31
0.0
  0
LINE
  5
3A2
  8
0
 10
13.092849
 20
9.376313
 30
0.0
 11
13.092849
 21
9.421645
 31
0.0
  0
LINE
  5
3A3
  8
0
 10
13.092849
 20
9.421645
 30
0.0
 11
13.092849
 21
9.676161
 31
0.0
  0
LINE
  5
3A4
  8
0
 10
13.092849
 20
9.676161
 30
0.0
 11
13.092849
 21
9.903732
 31
0.0
  0
LINE
  5
3A5
  8
0
 10
13.092849
 20
9.903732
 30
0.0
 11
13.092849
 21
11.176313
 31
0.0
  0
LINE
  5
3A6
  8
0
 10
13.092849
 20
11.176313
 30
0.0
 11
13.092849
 21
11.221645
 31
0.0
  0
LINE
  5
3A7
  8
0
 10
13.092849
 20
11.221645
 30
0.0
 11
13.092849
 21
11.476161
 31
0.0
  0
LINE
  5
3A8
  8
0
 10
13.092849
 20
11.476161
 30
0.0
 11
13.092849
 21
11.703732
 31
0.0
  0
LINE
  5
3A9
  8
0
 10
13.092849
 20
11.703732
 30
0.0
 11
13.092849
 21
12.976313
 31
0.0
  0
LINE
  5
3AA
  8
0
 10
13.092849
 20
12.976313
 30
0.0
 11
13.092849
 21
13.021645
 31
0.0
  0
LINE
  5
3AB
  8
0
 10
13.092849
 20
13.021645
 30
0.0
 11
13.092849
 21
13.276161
 31
0.0
  0
LINE
  5
3AC
  8
0
 10
13.092849
 20
13.276161
 30
0.0
 11
13.092849
 21
13.503732
 31
0.0
  0
LINE
  5
3AD
  8
0
 10
13.092849
 20
13.503732
 30
0.0
 11
13.092849
 21
14.590516
 31
0.0
  0
LINE
  5
3AE
  8
0
 10
13.092849
 20
14.590516
 30
0.0
 11
13.092849
 21
14.635848
 31
0.0
  0
LINE
  5
3AF
  8
0
 10
13.592849
 20
0.523
 30
0.0
 11
13.592849
 21
0.777516
 31
0.0
  0
LINE
  5
3B0
  8
0
 10
13.592849
 20
0.523
 30
0.0
 11
13.592849
 21
0.777516
 31
0.0
  0
LINE
  5
3B1
  8
0
 10
13.592849
 20
0.777516
 30
0.0
 11
13.592849
 21
0.961423
 31
0.0
  0
LINE
  5
3B2
  8
0
 10
13.592849
 20
0.961423
 30
0.0
 11
13.592849
 21
2.234003
 31
0.0
  0
LINE
  5
3B3
  8
0
 10
13.592849
 20
2.234003
 30
0.0
 11
13.592849
 21
2.279487
 31
0.0
  0
LINE
  5
3B4
  8
0
 10
13.592849
 20
2.279487
 30
0.0
 11
13.592849
 21
2.534003
 31
0.0
  0
LINE
  5
3B5
  8
0
 10
13.592849
 20
2.534003
 30
0.0
 11
13.592849
 21
2.761423
 31
0.0
  0
LINE
  5
3B6
  8
0
 10
13.592849
 20
2.761423
 30
0.0
 11
13.592849
 21
4.034003
 31
0.0
  0
LINE
  5
3B7
  8
0
 10
13.592849
 20
4.034003
 30
0.0
 11
13.592849
 21
4.079487
 31
0.0
  0
LINE
  5
3B8
  8
0
 10
13.592849
 20
4.079487
 30
0.0
 11
13.592849
 21
4.334003
 31
0.0
  0
LINE
  5
3B9
  8
0
 10
13.592849
 20
4.334003
 30
0.0
 11
13.592849
 21
4.561423
 31
0.0
  0
LINE
  5
3BA
  8
0
 10
13.592849
 20
4.561423
 30
0.0
 11
13.592849
 21
5.834003
 31
0.0
  0
LINE
  5
3BB
  8
0
 10
13.592849
 20
5.834003
 30
0.0
 11
13.592849
 21
5.879487
 31
0.0
  0
LINE
  5
3BC
  8
0
 10
13.592849
 20
5.879487
 30
0.0
 11
13.592849
 21
6.134003
 31
0.0
  0
LINE
  5
3BD
  8
0
 10
13.592849
 20
6.134003
 30
0.0
 11
13.592849
 21
6.361423
 31
0.0
  0
LINE
  5
3BE
  8
0
 10
13.592849
 20
6.361423
 30
0.0
 11
13.592849
 21
7.634003
 31
0.0
  0
LINE
  5
3BF
  8
0
 10
13.592849
 20
7.634003
 30
0.0
 11
13.592849
 21
7.679487
 31
0.0
  0
LINE
  5
3C0
  8
0
 10
13.592849
 20
7.679487
 30
0.0
 11
13.592849
 21
7.934003
 31
0.0
  0
LINE
  5
3C1
  8
0
 10
13.592849
 20
7.934003
 30
0.0
 11
13.592849
 21
8.161423
 31
0.0
  0
LINE
  5
3C2
  8
0
 10
13.592849
 20
8.161423
 30
0.0
 11
13.592849
 21
9.434003
 31
0.0
  0
LINE
  5
3C3
  8
0
 10
13.592849
 20
9.434003
 30
0.0
 11
13.592849
 21
9.479487
 31
0.0
  0
LINE
  5
3C4
  8
0
 10
13.592849
 20
9.479487
 30
0.0
 11
13.592849
 21
9.734003
 31
0.0
  0
LINE
  5
3C5
  8
0
 10
13.592849
 20
9.734003
 30
0.0
 11
13.592849
 21
9.961423
 31
0.0
  0
LINE
  5
3C6
  8
0
 10
13.592849
 20
9.961423
 30
0.0
 11
13.592849
 21
11.234003
 31
0.0
  0
LINE
  5
3C7
  8
0
 10
13.592849
 20
11.234003
 30
0.0
 11
13.592849
 21
11.279487
 31
0.0
  0
LINE
  5
3C8
  8
0
 10
13.592849
 20
11.279487
 30
0.0
 11
13.592849
 21
11.534003
 31
0.0
  0
LINE
  5
3C9
  8
0
 10
13.592849
 20
11.534003
 30
0.0
 11
13.592849
 21
11.761423
 31
0.0
  0
LINE
  5
3CA
  8
0
 10
13.592849
 20
11.761423
 30
0.0
 11
13.592849
 21
13.034003
 31
0.0
  0
LINE
  5
3CB
  8
0
 10
13.592849
 20
13.034003
 30
0.0
 11
13.592849
 21
13.079487
 31
0.0
  0
LINE
  5
3CC
  8
0
 10
13.592849
 20
13.079487
 30
0.0
 11
13.592849
 21
13.334003
 31
0.0
  0
LINE
  5
3CD
  8
0
 10
13.592849
 20
13.334003
 30
0.0
 11
13.592849
 21
13.561423
 31
0.0
  0
LINE
  5
3CE
  8
0
 10
13.592849
 20
13.561423
 30
0.0
 11
13.592849
 21
14.590516
 31
0.0
  0
LINE
  5
3CF
  8
0
 10
13.592849
 20
14.590516
 30
0.0
 11
13.592849
 21
14.636
 31
0.0
  0
LINE
  5
3D0
  8
0
 10
14.092849
 20
0.654
 30
0.0
 11
14.092849
 21
0.908516
 31
0.0
  0
LINE
  5
3D1
  8
0
 10
14.092849
 20
0.654
 30
0.0
 11
14.092849
 21
0.908516
 31
0.0
  0
LINE
  5
3D2
  8
0
 10
14.092849
 20
0.908516
 30
0.0
 11
14.092849
 21
1.072713
 31
0.0
  0
LINE
  5
3D3
  8
0
 10
14.092849
 20
1.072713
 30
0.0
 11
14.092849
 21
2.345294
 31
0.0
  0
LINE
  5
3D4
  8
0
 10
14.092849
 20
2.345294
 30
0.0
 11
14.092849
 21
2.390777
 31
0.0
  0
LINE
  5
3D5
  8
0
 10
14.092849
 20
2.390777
 30
0.0
 11
14.092849
 21
2.645294
 31
0.0
  0
LINE
  5
3D6
  8
0
 10
14.092849
 20
2.645294
 30
0.0
 11
14.092849
 21
2.872713
 31
0.0
  0
LINE
  5
3D7
  8
0
 10
14.092849
 20
2.872713
 30
0.0
 11
14.092849
 21
4.145294
 31
0.0
  0
LINE
  5
3D8
  8
0
 10
14.092849
 20
4.145294
 30
0.0
 11
14.092849
 21
4.190777
 31
0.0
  0
LINE
  5
3D9
  8
0
 10
14.092849
 20
4.190777
 30
0.0
 11
14.092849
 21
4.445294
 31
0.0
  0
LINE
  5
3DA
  8
0
 10
14.092849
 20
4.445294
 30
0.0
 11
14.092849
 21
4.672713
 31
0.0
  0
LINE
  5
3DB
  8
0
 10
14.092849
 20
4.672713
 30
0.0
 11
14.092849
 21
5.945294
 31
0.0
  0
LINE
  5
3DC
  8
0
 10
14.092849
 20
5.945294
 30
0.0
 11
14.092849
 21
5.990777
 31
0.0
  0
LINE
  5
3DD
  8
0
 10
14.092849
 20
5.990777
 30
0.0
 11
14.092849
 21
6.245294
 31
0.0
  0
LINE
  5
3DE
  8
0
 10
14.092849
 20
6.245294
 30
0.0
 11
14.092849
 21
6.472713
 31
0.0
  0
LINE
  5
3DF
  8
0
 10
14.092849
 20
6.472713
 30
0.0
 11
14.092849
 21
7.745294
 31
0.0
  0
LINE
  5
3E0
  8
0
 10
14.092849
 20
7.745294
 30
0.0
 11
14.092849
 21
7.790777
 31
0.0
  0
LINE
  5
3E1
  8
0
 10
14.092849
 20
7.790777
 30
0.0
 11
14.092849
 21
8.045294
 31
0.0
  0
LINE
  5
3E2
  8
0
 10
14.092849
 20
8.045294
 30
0.0
 11
14.092849
 21
8.272713
 31
0.0
  0
LINE
  5
3E3
  8
0
 10
14.092849
 20
8.272713
 30
0.0
 11
14.092849
 21
9.545294
 31
0.0
  0
LINE
  5
3E4
  8
0
 10
14.092849
 20
9.545294
 30
0.0
 11
14.092849
 21
9.590777
 31
0.0
  0
LINE
  5
3E5
  8
0
 10
14.092849
 20
9.590777
 30
0.0
 11
14.092849
 21
9.845294
 31
0.0
  0
LINE
  5
3E6
  8
0
 10
14.092849
 20
9.845294
 30
0.0
 11
14.092849
 21
10.072713
 31
0.0
  0
LINE
  5
3E7
  8
0
 10
14.092849
 20
10.072713
 30
0.0
 11
14.092849
 21
11.345294
 31
0.0
  0
LINE
  5
3E8
  8
0
 10
14.092849
 20
11.345294
 30
0.0
 11
14.092849
 21
11.390777
 31
0.0
  0
LINE
  5
3E9
  8
0
 10
14.092849
 20
11.390777
 30
0.0
 11
14.092849
 21
11.645294
 31
0.0
  0
LINE
  5
3EA
  8
0
 10
14.092849
 20
11.645294
 30
0.0
 11
14.092849
 21
11.872713
 31
0.0
  0
LINE
  5
3EB
  8
0
 10
14.092849
 20
11.872713
 30
0.0
 11
14.092849
 21
13.145294
 31
0.0
  0
LINE
  5
3EC
  8
0
 10
14.092849
 20
13.145294
 30
0.0
 11
14.092849
 21
13.190777
 31
0.0
  0
LINE
  5
3ED
  8
0
 10
14.092849
 20
13.190777
 30
0.0
 11
14.092849
 21
13.445294
 31
0.0
  0
LINE
  5
3EE
  8
0
 10
14.092849
 20
13.445294
 30
0.0
 11
14.092849
 21
13.672713
 31
0.0
  0
LINE
  5
3EF
  8
0
 10
14.092849
 20
13.672713
 30
0.0
 11
14.092849
 21
14.591516
 31
0.0
  0
LINE
  5
3F0
  8
0
 10
14.092849
 20
14.591516
 30
0.0
 11
14.092849
 21
14.637
 31
0.0
  0
LINE
  5
3F1
  8
0
 10
14.592849
 20
1.226
 30
0.0
 11
14.592849
 21
1.480516
 31
0.0
  0
LINE
  5
3F2
  8
0
 10
14.592849
 20
1.226
 30
0.0
 11
14.592849
 21
1.480516
 31
0.0
  0
LINE
  5
3F3
  8
0
 10
14.592849
 20
1.480516
 30
0.0
 11
14.592849
 21
1.558142
 31
0.0
  0
LINE
  5
3F4
  8
0
 10
14.592849
 20
1.558142
 30
0.0
 11
14.592849
 21
1.603626
 31
0.0
  0
LINE
  5
3F5
  8
0
 10
14.592849
 20
1.603626
 30
0.0
 11
14.592849
 21
2.877055
 31
0.0
  0
LINE
  5
3F6
  8
0
 10
14.592849
 20
2.877055
 30
0.0
 11
14.592849
 21
3.104474
 31
0.0
  0
LINE
  5
3F7
  8
0
 10
14.592849
 20
3.104474
 30
0.0
 11
14.592849
 21
3.358142
 31
0.0
  0
LINE
  5
3F8
  8
0
 10
14.592849
 20
3.358142
 30
0.0
 11
14.592849
 21
3.403626
 31
0.0
  0
LINE
  5
3F9
  8
0
 10
14.592849
 20
3.403626
 30
0.0
 11
14.592849
 21
4.677055
 31
0.0
  0
LINE
  5
3FA
  8
0
 10
14.592849
 20
4.677055
 30
0.0
 11
14.592849
 21
4.904474
 31
0.0
  0
LINE
  5
3FB
  8
0
 10
14.592849
 20
4.904474
 30
0.0
 11
14.592849
 21
5.158142
 31
0.0
  0
LINE
  5
3FC
  8
0
 10
14.592849
 20
5.158142
 30
0.0
 11
14.592849
 21
5.203626
 31
0.0
  0
LINE
  5
3FD
  8
0
 10
14.592849
 20
5.203626
 30
0.0
 11
14.592849
 21
6.477055
 31
0.0
  0
LINE
  5
3FE
  8
0
 10
14.592849
 20
6.477055
 30
0.0
 11
14.592849
 21
6.704474
 31
0.0
  0
LINE
  5
3FF
  8
0
 10
14.592849
 20
6.704474
 30
0.0
 11
14.592849
 21
6.958142
 31
0.0
  0
LINE
  5
400
  8
0
 10
14.592849
 20
6.958142
 30
0.0
 11
14.592849
 21
7.003626
 31
0.0
  0
LINE
  5
401
  8
0
 10
14.592849
 20
7.003626
 30
0.0
 11
14.592849
 21
8.277055
 31
0.0
  0
LINE
  5
402
  8
0
 10
14.592849
 20
8.277055
 30
0.0
 11
14.592849
 21
8.504474
 31
0.0
  0
LINE
  5
403
  8
0
 10
14.592849
 20
8.504474
 30
0.0
 11
14.592849
 21
8.758142
 31
0.0
  0
LINE
  5
404
  8
0
 10
14.592849
 20
8.758142
 30
0.0
 11
14.592849
 21
8.803626
 31
0.0
  0
LINE
  5
405
  8
0
 10
14.592849
 20
8.803626
 30
0.0
 11
14.592849
 21
10.077055
 31
0.0
  0
LINE
  5
406
  8
0
 10
14.592849
 20
10.077055
 30
0.0
 11
14.592849
 21
10.304474
 31
0.0
  0
LINE
  5
407
  8
0
 10
14.592849
 20
10.304474
 30
0.0
 11
14.592849
 21
10.558142
 31
0.0
  0
LINE
  5
408
  8
0
 10
14.592849
 20
10.558142
 30
0.0
 11
14.592849
 21
10.603626
 31
0.0
  0
LINE
  5
409
  8
0
 10
14.592849
 20
10.603626
 30
0.0
 11
14.592849
 21
11.877055
 31
0.0
  0
LINE
  5
40A
  8
0
 10
14.592849
 20
11.877055
 30
0.0
 11
14.592849
 21
12.104474
 31
0.0
  0
LINE
  5
40B
  8
0
 10
14.592849
 20
12.104474
 30
0.0
 11
14.592849
 21
12.358142
 31
0.0
  0
LINE
  5
40C
  8
0
 10
14.592849
 20
12.358142
 30
0.0
 11
14.592849
 21
12.403626
 31
0.0
  0
LINE
  5
40D
  8
0
 10
14.592849
 20
12.403626
 30
0.0
 11
14.592849
 21
13.677055
 31
0.0
  0
LINE
  5
40E
  8
0
 10
14.592849
 20
13.677055
 30
0.0
 11
14.592849
 21
13.904474
 31
0.0
  0
LINE
  5
40F
  8
0
 10
14.592849
 20
13.904474
 30
0.0
 11
14.592849
 21
14.158142
 31
0.0
  0
LINE
  5
410
  8
0
 10
14.592849
 20
14.158142
 30
0.0
 11
14.592849
 21
14.592516
 31
0.0
  0
LINE
  5
411
  8
0
 10
14.592849
 20
14.592516
 30
0.0
 11
14.592849
 21
14.638
 31
0.0
  0
LINE
  5
412
  8
0
 10
1.234
 20
0.592238
 30
0.0
 11
1.316267
 21
0.592238
 31
0.0
  0
LINE
  5
413
  8
0
 10
1.234
 20
0.592238
 30
0.0
 11
1.316267
 21
0.592238
 31
0.0
  0
LINE
  5
414
  8
0
 10
1.316267
 20
0.592238
 30
0.0
 11
1.361833
 21
0.592238
 31
0.0
  0
LINE
  5
415
  8
0
 10
1.361833
 20
0.592238
 30
0.0
 11
2.634358
 21
0.592238
 31
0.0
  0
LINE
  5
416
  8
0
 10
2.634358
 20
0.592238
 30
0.0
 11
2.861777
 21
0.592238
 31
0.0
  0
LINE
  5
417
  8
0
 10
2.861777
 20
0.592238
 30
0.0
 11
3.116294
 21
0.592238
 31
0.0
  0
LINE
  5
418
  8
0
 10
3.116294
 20
0.592238
 30
0.0
 11
3.161777
 21
0.592238
 31
0.0
  0
LINE
  5
419
  8
0
 10
3.161777
 20
0.592238
 30
0.0
 11
4.434358
 21
0.592238
 31
0.0
  0
LINE
  5
41A
  8
0
 10
4.434358
 20
0.592238
 30
0.0
 11
4.661777
 21
0.592238
 31
0.0
  0
LINE
  5
41B
  8
0
 10
4.661777
 20
0.592238
 30
0.0
 11
4.916294
 21
0.592238
 31
0.0
  0
LINE
  5
41C
  8
0
 10
4.916294
 20
0.592238
 30
0.0
 11
4.961777
 21
0.592238
 31
0.0
  0
LINE
  5
41D
  8
0
 10
4.961777
 20
0.592238
 30
0.0
 11
6.234358
 21
0.592238
 31
0.0
  0
LINE
  5
41E
  8
0
 10
6.234358
 20
0.592238
 30
0.0
 11
6.461777
 21
0.592238
 31
0.0
  0
LINE
  5
41F
  8
0
 10
6.461777
 20
0.592238
 30
0.0
 11
6.716294
 21
0.592238
 31
0.0
  0
LINE
  5
420
  8
0
 10
6.716294
 20
0.592238
 30
0.0
 11
6.761777
 21
0.592238
 31
0.0
  0
LINE
  5
421
  8
0
 10
6.761777
 20
0.592238
 30
0.0
 11
6.805594
 21
0.592238
 31
0.0
  0
LINE
  5
422
  8
0
 10
6.805594
 20
0.592238
 30
0.0
 11
6.850926
 21
0.592238
 31
0.0
  0
LINE
  5
423
  8
0
 10
6.850926
 20
0.592238
 30
0.0
 11
8.123506
 21
0.592238
 31
0.0
  0
LINE
  5
424
  8
0
 10
8.123506
 20
0.592238
 30
0.0
 11
8.351077
 21
0.592238
 31
0.0
  0
LINE
  5
425
  8
0
 10
8.351077
 20
0.592238
 30
0.0
 11
8.605594
 21
0.592238
 31
0.0
  0
LINE
  5
426
  8
0
 10
8.605594
 20
0.592238
 30
0.0
 11
8.650926
 21
0.592238
 31
0.0
  0
LINE
  5
427
  8
0
 10
8.650926
 20
0.592238
 30
0.0
 11
9.923506
 21
0.592238
 31
0.0
  0
LINE
  5
428
  8
0
 10
9.923506
 20
0.592238
 30
0.0
 11
10.151077
 21
0.592238
 31
0.0
  0
LINE
  5
429
  8
0
 10
10.151077
 20
0.592238
 30
0.0
 11
10.405594
 21
0.592238
 31
0.0
  0
LINE
  5
42A
  8
0
 10
10.405594
 20
0.592238
 30
0.0
 11
10.450926
 21
0.592238
 31
0.0
  0
LINE
  5
42B
  8
0
 10
10.450926
 20
0.592238
 30
0.0
 11
11.723506
 21
0.592238
 31
0.0
  0
LINE
  5
42C
  8
0
 10
11.723506
 20
0.592238
 30
0.0
 11
11.951077
 21
0.592238
 31
0.0
  0
LINE
  5
42D
  8
0
 10
11.951077
 20
0.592238
 30
0.0
 11
12.205594
 21
0.592238
 31
0.0
  0
LINE
  5
42E
  8
0
 10
12.205594
 20
0.592238
 30
0.0
 11
12.250926
 21
0.592238
 31
0.0
  0
LINE
  5
42F
  8
0
 10
12.250926
 20
0.592238
 30
0.0
 11
13.523506
 21
0.592238
 31
0.0
  0
LINE
  5
430
  8
0
 10
13.523506
 20
0.592238
 30
0.0
 11
13.676484
 21
0.592238
 31
0.0
  0
LINE
  5
431
  8
0
 10
13.676484
 20
0.592238
 30
0.0
 11
13.931
 21
0.592238
 31
0.0
  0
LINE
  5
432
  8
0
 10
0.651
 20
1.092238
 30
0.0
 11
0.696484
 21
1.092238
 31
0.0
  0
LINE
  5
433
  8
0
 10
0.651
 20
1.092238
 30
0.0
 11
0.696484
 21
1.092238
 31
0.0
  0
LINE
  5
434
  8
0
 10
0.696484
 20
1.092238
 30
0.0
 11
1.532994
 21
1.092238
 31
0.0
  0
LINE
  5
435
  8
0
 10
1.532994
 20
1.092238
 30
0.0
 11
1.760565
 21
1.092238
 31
0.0
  0
LINE
  5
436
  8
0
 10
1.760565
 20
1.092238
 30
0.0
 11
2.015081
 21
1.092238
 31
0.0
  0
LINE
  5
437
  8
0
 10
2.015081
 20
1.092238
 30
0.0
 11
2.060413
 21
1.092238
 31
0.0
  0
LINE
  5
438
  8
0
 10
2.060413
 20
1.092238
 30
0.0
 11
3.332994
 21
1.092238
 31
0.0
  0
LINE
  5
439
  8
0
 10
3.332994
 20
1.092238
 30
0.0
 11
3.560565
 21
1.092238
 31
0.0
  0
LINE
  5
43A
  8
0
 10
3.560565
 20
1.092238
 30
0.0
 11
3.815081
 21
1.092238
 31
0.0
  0
LINE
  5
43B
  8
0
 10
3.815081
 20
1.092238
 30
0.0
 11
3.860413
 21
1.092238
 31
0.0
  0
LINE
  5
43C
  8
0
 10
3.860413
 20
1.092238
 30
0.0
 11
5.132994
 21
1.092238
 31
0.0
  0
LINE
  5
43D
  8
0
 10
5.132994
 20
1.092238
 30
0.0
 11
5.360565
 21
1.092238
 31
0.0
  0
LINE
  5
43E
  8
0
 10
5.360565
 20
1.092238
 30
0.0
 11
5.615081
 21
1.092238
 31
0.0
  0
LINE
  5
43F
  8
0
 10
5.615081
 20
1.092238
 30
0.0
 11
5.660413
 21
1.092238
 31
0.0
  0
LINE
  5
440
  8
0
 10
5.660413
 20
1.092238
 30
0.0
 11
6.932994
 21
1.092238
 31
0.0
  0
LINE
  5
441
  8
0
 10
6.932994
 20
1.092238
 30
0.0
 11
7.160565
 21
1.092238
 31
0.0
  0
LINE
  5
442
  8
0
 10
7.160565
 20
1.092238
 30
0.0
 11
7.415081
 21
1.092238
 31
0.0
  0
LINE
  5
443
  8
0
 10
7.415081
 20
1.092238
 30
0.0
 11
7.460413
 21
1.092238
 31
0.0
  0
LINE
  5
444
  8
0
 10
7.460413
 20
1.092238
 30
0.0
 11
8.732994
 21
1.092238
 31
0.0
  0
LINE
  5
445
  8
0
 10
8.732994
 20
1.092238
 30
0.0
 11
8.960565
 21
1.092238
 31
0.0
  0
LINE
  5
446
  8
0
 10
8.960565
 20
1.092238
 30
0.0
 11
9.215081
 21
1.092238
 31
0.0
  0
LINE
  5
447
  8
0
 10
9.215081
 20
1.092238
 30
0.0
 11
9.260413
 21
1.092238
 31
0.0
  0
LINE
  5
448
  8
0
 10
9.260413
 20
1.092238
 30
0.0
 11
10.532994
 21
1.092238
 31
0.0
  0
LINE
  5
449
  8
0
 10
10.532994
 20
1.092238
 30
0.0
 11
10.760565
 21
1.092238
 31
0.0
  0
LINE
  5
44A
  8
0
 10
10.760565
 20
1.092238
 30
0.0
 11
11.015081
 21
1.092238
 31
0.0
  0
LINE
  5
44B
  8
0
 10
11.015081
 20
1.092238
 30
0.0
 11
11.060413
 21
1.092238
 31
0.0
  0
LINE
  5
44C
  8
0
 10
11.060413
 20
1.092238
 30
0.0
 11
12.332994
 21
1.092238
 31
0.0
  0
LINE
  5
44D
  8
0
 10
12.332994
 20
1.092238
 30
0.0
 11
12.560565
 21
1.092238
 31
0.0
  0
LINE
  5
44E
  8
0
 10
12.560565
 20
1.092238
 30
0.0
 11
12.815081
 21
1.092238
 31
0.0
  0
LINE
  5
44F
  8
0
 10
12.815081
 20
1.092238
 30
0.0
 11
12.860413
 21
1.092238
 31
0.0
  0
LINE
  5
450
  8
0
 10
12.860413
 20
1.092238
 30
0.0
 11
14.132994
 21
1.092238
 31
0.0
  0
LINE
  5
451
  8
0
 10
14.132994
 20
1.092238
 30
0.0
 11
14.282484
 21
1.092238
 31
0.0
  0
LINE
  5
452
  8
0
 10
14.282484
 20
1.092238
 30
0.0
 11
14.537
 21
1.092238
 31
0.0
  0
LINE
  5
453
  8
0
 10
0.519
 20
1.592238
 30
0.0
 11
0.564484
 21
1.592238
 31
0.0
  0
LINE
  5
454
  8
0
 10
0.519
 20
1.592238
 30
0.0
 11
0.564484
 21
1.592238
 31
0.0
  0
LINE
  5
455
  8
0
 10
0.564484
 20
1.592238
 30
0.0
 11
1.620726
 21
1.592238
 31
0.0
  0
LINE
  5
456
  8
0
 10
1.620726
 20
1.592238
 30
0.0
 11
1.848145
 21
1.592238
 31
0.0
  0
LINE
  5
457
  8
0
 10
1.848145
 20
1.592238
 30
0.0
 11
2.102661
 21
1.592238
 31
0.0
  0
LINE
  5
458
  8
0
 10
2.102661
 20
1.592238
 30
0.0
 11
2.148145
 21
1.592238
 31
0.0
  0
LINE
  5
459
  8
0
 10
2.148145
 20
1.592238
 30
0.0
 11
3.420726
 21
1.592238
 31
0.0
  0
LINE
  5
45A
  8
0
 10
3.420726
 20
1.592238
 30
0.0
 11
3.648145
 21
1.592238
 31
0.0
  0
LINE
  5
45B
  8
0
 10
3.648145
 20
1.592238
 30
0.0
 11
3.902661
 21
1.592238
 31
0.0
  0
LINE
  5
45C
  8
0
 10
3.902661
 20
1.592238
 30
0.0
 11
3.948145
 21
1.592238
 31
0.0
  0
LINE
  5
45D
  8
0
 10
3.948145
 20
1.592238
 30
0.0
 11
5.220726
 21
1.592238
 31
0.0
  0
LINE
  5
45E
  8
0
 10
5.220726
 20
1.592238
 30
0.0
 11
5.448145
 21
1.592238
 31
0.0
  0
LINE
  5
45F
  8
0
 10
5.448145
 20
1.592238
 30
0.0
 11
5.702661
 21
1.592238
 31
0.0
  0
LINE
  5
460
  8
0
 10
5.702661
 20
1.592238
 30
0.0
 11
5.748145
 21
1.592238
 31
0.0
  0
LINE
  5
461
  8
0
 10
5.748145
 20
1.592238
 30
0.0
 11
7.020726
 21
1.592238
 31
0.0
  0
LINE
  5
462
  8
0
 10
7.020726
 20
1.592238
 30
0.0
 11
7.248145
 21
1.592238
 31
0.0
  0
LINE
  5
463
  8
0
 10
7.248145
 20
1.592238
 30
0.0
 11
7.502661
 21
1.592238
 31
0.0
  0
LINE
  5
464
  8
0
 10
7.502661
 20
1.592238
 30
0.0
 11
7.548145
 21
1.592238
 31
0.0
  0
LINE
  5
465
  8
0
 10
7.548145
 20
1.592238
 30
0.0
 11
8.820726
 21
1.592238
 31
0.0
  0
LINE
  5
466
  8
0
 10
8.820726
 20
1.592238
 30
0.0
 11
9.048145
 21
1.592238
 31
0.0
  0
LINE
  5
467
  8
0
 10
9.048145
 20
1.592238
 30
0.0
 11
9.302661
 21
1.592238
 31
0.0
  0
LINE
  5
468
  8
0
 10
9.302661
 20
1.592238
 30
0.0
 11
9.348145
 21
1.592238
 31
0.0
  0
LINE
  5
469
  8
0
 10
9.348145
 20
1.592238
 30
0.0
 11
10.620726
 21
1.592238
 31
0.0
  0
LINE
  5
46A
  8
0
 10
10.620726
 20
1.592238
 30
0.0
 11
10.848145
 21
1.592238
 31
0.0
  0
LINE
  5
46B
  8
0
 10
10.848145
 20
1.592238
 30
0.0
 11
11.102661
 21
1.592238
 31
0.0
  0
LINE
  5
46C
  8
0
 10
11.102661
 20
1.592238
 30
0.0
 11
11.148145
 21
1.592238
 31
0.0
  0
LINE
  5
46D
  8
0
 10
11.148145
 20
1.592238
 30
0.0
 11
12.420726
 21
1.592238
 31
0.0
  0
LINE
  5
46E
  8
0
 10
12.420726
 20
1.592238
 30
0.0
 11
12.648145
 21
1.592238
 31
0.0
  0
LINE
  5
46F
  8
0
 10
12.648145
 20
1.592238
 30
0.0
 11
12.902661
 21
1.592238
 31
0.0
  0
LINE
  5
470
  8
0
 10
12.902661
 20
1.592238
 30
0.0
 11
12.948145
 21
1.592238
 31
0.0
  0
LINE
  5
471
  8
0
 10
12.948145
 20
1.592238
 30
0.0
 11
14.220726
 21
1.592238
 31
0.0
  0
LINE
  5
472
  8
0
 10
14.220726
 20
1.592238
 30
0.0
 11
14.409484
 21
1.592238
 31
0.0
  0
LINE
  5
473
  8
0
 10
14.409484
 20
1.592238
 30
0.0
 11
14.664
 21
1.592238
 31
0.0
  0
LINE
  5
474
  8
0
 10
0.456
 20
2.092238
 30
0.0
 11
0.501484
 21
2.092238
 31
0.0
  0
LINE
  5
475
  8
0
 10
0.456
 20
2.092238
 30
0.0
 11
0.501484
 21
2.092238
 31
0.0
  0
LINE
  5
476
  8
0
 10
0.501484
 20
2.092238
 30
0.0
 11
1.665471
 21
2.092238
 31
0.0
  0
LINE
  5
477
  8
0
 10
1.665471
 20
2.092238
 30
0.0
 11
1.89289
 21
2.092238
 31
0.0
  0
LINE
  5
478
  8
0
 10
1.89289
 20
2.092238
 30
0.0
 11
2.147406
 21
2.092238
 31
0.0
  0
LINE
  5
479
  8
0
 10
2.147406
 20
2.092238
 30
0.0
 11
2.19289
 21
2.092238
 31
0.0
  0
LINE
  5
47A
  8
0
 10
2.19289
 20
2.092238
 30
0.0
 11
3.465471
 21
2.092238
 31
0.0
  0
LINE
  5
47B
  8
0
 10
3.465471
 20
2.092238
 30
0.0
 11
3.69289
 21
2.092238
 31
0.0
  0
LINE
  5
47C
  8
0
 10
3.69289
 20
2.092238
 30
0.0
 11
3.947406
 21
2.092238
 31
0.0
  0
LINE
  5
47D
  8
0
 10
3.947406
 20
2.092238
 30
0.0
 11
3.99289
 21
2.092238
 31
0.0
  0
LINE
  5
47E
  8
0
 10
3.99289
 20
2.092238
 30
0.0
 11
5.265471
 21
2.092238
 31
0.0
  0
LINE
  5
47F
  8
0
 10
5.265471
 20
2.092238
 30
0.0
 11
5.49289
 21
2.092238
 31
0.0
  0
LINE
  5
480
  8
0
 10
5.49289
 20
2.092238
 30
0.0
 11
5.747406
 21
2.092238
 31
0.0
  0
LINE
  5
481
  8
0
 10
5.747406
 20
2.092238
 30
0.0
 11
5.79289
 21
2.092238
 31
0.0
  0
LINE
  5
482
  8
0
 10
5.79289
 20
2.092238
 30
0.0
 11
7.065471
 21
2.092238
 31
0.0
  0
LINE
  5
483
  8
0
 10
7.065471
 20
2.092238
 30
0.0
 11
7.29289
 21
2.092238
 31
0.0
  0
LINE
  5
484
  8
0
 10
7.29289
 20
2.092238
 30
0.0
 11
7.547406
 21
2.092238
 31
0.0
  0
LINE
  5
485
  8
0
 10
7.547406
 20
2.092238
 30
0.0
 11
7.59289
 21
2.092238
 31
0.0
  0
LINE
  5
486
  8
0
 10
7.59289
 20
2.092238
 30
0.0
 11
8.865471
 21
2.092238
 31
0.0
  0
LINE
  5
487
  8
0
 10
8.865471
 20
2.092238
 30
0.0
 11
9.09289
 21
2.092238
 31
0.0
  0
LINE
  5
488
  8
0
 10
9.09289
 20
2.092238
 30
0.0
 11
9.347406
 21
2.092238
 31
0.0
  0
LINE
  5
489
  8
0
 10
9.347406
 20
2.092238
 30
0.0
 11
9.39289
 21
2.092238
 31
0.0
  0
LINE
  5
48A
  8
0
 10
9.39289
 20
2.092238
 30
0.0
 11
10.665471
 21
2.092238
 31
0.0
  0
LINE
  5
48B
  8
0
 10
10.665471
 20
2.092238
 30
0.0
 11
10.89289
 21
2.092238
 31
0.0
  0
LINE
  5
48C
  8
0
 10
10.89289
 20
2.092238
 30
0.0
 11
11.147406
 21
2.092238
 31
0.0
  0
LINE
  5
48D
  8
0
 10
11.147406
 20
2.092238
 30
0.0
 11
11.19289
 21
2.092238
 31
0.0
  0
LINE
  5
48E
  8
0
 10
11.19289
 20
2.092238
 30
0.0
 11
12.465471
 21
2.092238
 31
0.0
  0
LINE
  5
48F
  8
0
 10
12.465471
 20
2.092238
 30
0.0
 11
12.69289
 21
2.092238
 31
0.0
  0
LINE
  5
490
  8
0
 10
12.69289
 20
2.092238
 30
0.0
 11
12.947406
 21
2.092238
 31
0.0
  0
LINE
  5
491
  8
0
 10
12.947406
 20
2.092238
 30
0.0
 11
12.99289
 21
2.092238
 31
0.0
  0
LINE
  5
492
  8
0
 10
12.99289
 20
2.092238
 30
0.0
 11
14.265471
 21
2.092238
 31
0.0
  0
LINE
  5
493
  8
0
 10
14.265471
 20
2.092238
 30
0.0
 11
14.473484
 21
2.092238
 31
0.0
  0
LINE
  5
494
  8
0
 10
14.473484
 20
2.092238
 30
0.0
 11
14.728
 21
2.092238
 31
0.0
  0
LINE
  5
495
  8
0
 10
0.45
 20
2.592238
 30
0.0
 11
0.495484
 21
2.592238
 31
0.0
  0
LINE
  5
496
  8
0
 10
0.45
 20
2.592238
 30
0.0
 11
0.495484
 21
2.592238
 31
0.0
  0
LINE
  5
497
  8
0
 10
0.495484
 20
2.592238
 30
0.0
 11
1.673894
 21
2.592238
 31
0.0
  0
LINE
  5
498
  8
0
 10
1.673894
 20
2.592238
 30
0.0
 11
1.901465
 21
2.592238
 31
0.0
  0
LINE
  5
499
  8
0
 10
1.901465
 20
2.592238
 30
0.0
 11
2.155981
 21
2.592238
 31
0.0
  0
LINE
  5
49A
  8
0
 10
2.155981
 20
2.592238
 30
0.0
 11
2.201313
 21
2.592238
 31
0.0
  0
LINE
  5
49B
  8
0
 10
2.201313
 20
2.592238
 30
0.0
 11
3.473894
 21
2.592238
 31
0.0
  0
LINE
  5
49C
  8
0
 10
3.473894
 20
2.592238
 30
0.0
 11
3.701465
 21
2.592238
 31
0.0
  0
LINE
  5
49D
  8
0
 10
3.701465
 20
2.592238
 30
0.0
 11
3.955981
 21
2.592238
 31
0.0
  0
LINE
  5
49E
  8
0
 10
3.955981
 20
2.592238
 30
0.0
 11
4.001313
 21
2.592238
 31
0.0
  0
LINE
  5
49F
  8
0
 10
4.001313
 20
2.592238
 30
0.0
 11
5.273894
 21
2.592238
 31
0.0
  0
LINE
  5
4A0
  8
0
 10
5.273894
 20
2.592238
 30
0.0
 11
5.501465
 21
2.592238
 31
0.0
  0
LINE
  5
4A1
  8
0
 10
5.501465
 20
2.592238
 30
0.0
 11
5.755981
 21
2.592238
 31
0.0
  0
LINE
  5
4A2
  8
0
 10
5.755981
 20
2.592238
 30
0.0
 11
5.801313
 21
2.592238
 31
0.0
  0
LINE
  5
4A3
  8
0
 10
5.801313
 20
2.592238
 30
0.0
 11
7.073894
 21
2.592238
 31
0.0
  0
LINE
  5
4A4
  8
0
 10
7.073894
 20
2.592238
 30
0.0
 11
7.301465
 21
2.592238
 31
0.0
  0
LINE
  5
4A5
  8
0
 10
7.301465
 20
2.592238
 30
0.0
 11
7.555981
 21
2.592238
 31
0.0
  0
LINE
  5
4A6
  8
0
 10
7.555981
 20
2.592238
 30
0.0
 11
7.601313
 21
2.592238
 31
0.0
  0
LINE
  5
4A7
  8
0
 10
7.601313
 20
2.592238
 30
0.0
 11
8.873894
 21
2.592238
 31
0.0
  0
LINE
  5
4A8
  8
0
 10
8.873894
 20
2.592238
 30
0.0
 11
9.101465
 21
2.592238
 31
0.0
  0
LINE
  5
4A9
  8
0
 10
9.101465
 20
2.592238
 30
0.0
 11
9.355981
 21
2.592238
 31
0.0
  0
LINE
  5
4AA
  8
0
 10
9.355981
 20
2.592238
 30
0.0
 11
9.401313
 21
2.592238
 31
0.0
  0
LINE
  5
4AB
  8
0
 10
9.401313
 20
2.592238
 30
0.0
 11
10.673894
 21
2.592238
 31
0.0
  0
LINE
  5
4AC
  8
0
 10
10.673894
 20
2.592238
 30
0.0
 11
10.901465
 21
2.592238
 31
0.0
  0
LINE
  5
4AD
  8
0
 10
10.901465
 20
2.592238
 30
0.0
 11
11.155981
 21
2.592238
 31
0.0
  0
LINE
  5
4AE
  8
0
 10
11.155981
 20
2.592238
 30
0.0
 11
11.201313
 21
2.592238
 31
0.0
  0
LINE
  5
4AF
  8
0
 10
11.201313
 20
2.592238
 30
0.0
 11
12.473894
 21
2.592238
 31
0.0
  0
LINE
  5
4B0
  8
0
 10
12.473894
 20
2.592238
 30
0.0
 11
12.701465
 21
2.592238
 31
0.0
  0
LINE
  5
4B1
  8
0
 10
12.701465
 20
2.592238
 30
0.0
 11
12.955981
 21
2.592238
 31
0.0
  0
LINE
  5
4B2
  8
0
 10
12.955981
 20
2.592238
 30
0.0
 11
13.001313
 21
2.592238
 31
0.0
  0
LINE
  5
4B3
  8
0
 10
13.001313
 20
2.592238
 30
0.0
 11
14.273894
 21
2.592238
 31
0.0
  0
LINE
  5
4B4
  8
0
 10
14.273894
 20
2.592238
 30
0.0
 11
14.484484
 21
2.592238
 31
0.0
  0
LINE
  5
4B5
  8
0
 10
14.484484
 20
2.592238
 30
0.0
 11
14.739
 21
2.592238
 31
0.0
  0
LINE
  5
4B6
  8
0
 10
0.463
 20
3.092238
 30
0.0
 11
0.508484
 21
3.092238
 31
0.0
  0
LINE
  5
4B7
  8
0
 10
0.463
 20
3.092238
 30
0.0
 11
0.508484
 21
3.092238
 31
0.0
  0
LINE
  5
4B8
  8
0
 10
0.508484
 20
3.092238
 30
0.0
 11
1.661442
 21
3.092238
 31
0.0
  0
LINE
  5
4B9
  8
0
 10
1.661442
 20
3.092238
 30
0.0
 11
1.888861
 21
3.092238
 31
0.0
  0
LINE
  5
4BA
  8
0
 10
1.888861
 20
3.092238
 30
0.0
 11
2.143377
 21
3.092238
 31
0.0
  0
LINE
  5
4BB
  8
0
 10
2.143377
 20
3.092238
 30
0.0
 11
2.188861
 21
3.092238
 31
0.0
  0
LINE
  5
4BC
  8
0
 10
2.188861
 20
3.092238
 30
0.0
 11
3.461442
 21
3.092238
 31
0.0
  0
LINE
  5
4BD
  8
0
 10
3.461442
 20
3.092238
 30
0.0
 11
3.688861
 21
3.092238
 31
0.0
  0
LINE
  5
4BE
  8
0
 10
3.688861
 20
3.092238
 30
0.0
 11
3.943377
 21
3.092238
 31
0.0
  0
LINE
  5
4BF
  8
0
 10
3.943377
 20
3.092238
 30
0.0
 11
3.988861
 21
3.092238
 31
0.0
  0
LINE
  5
4C0
  8
0
 10
3.988861
 20
3.092238
 30
0.0
 11
5.261442
 21
3.092238
 31
0.0
  0
LINE
  5
4C1
  8
0
 10
5.261442
 20
3.092238
 30
0.0
 11
5.488861
 21
3.092238
 31
0.0
  0
LINE
  5
4C2
  8
0
 10
5.488861
 20
3.092238
 30
0.0
 11
5.743377
 21
3.092238
 31
0.0
  0
LINE
  5
4C3
  8
0
 10
5.743377
 20
3.092238
 30
0.0
 11
5.788861
 21
3.092238
 31
0.0
  0
LINE
  5
4C4
  8
0
 10
5.788861
 20
3.092238
 30
0.0
 11
7.061442
 21
3.092238
 31
0.0
  0
LINE
  5
4C5
  8
0
 10
7.061442
 20
3.092238
 30
0.0
 11
7.288861
 21
3.092238
 31
0.0
  0
LINE
  5
4C6
  8
0
 10
7.288861
 20
3.092238
 30
0.0
 11
7.543377
 21
3.092238
 31
0.0
  0
LINE
  5
4C7
  8
0
 10
7.543377
 20
3.092238
 30
0.0
 11
7.588861
 21
3.092238
 31
0.0
  0
LINE
  5
4C8
  8
0
 10
7.588861
 20
3.092238
 30
0.0
 11
8.861442
 21
3.092238
 31
0.0
  0
LINE
  5
4C9
  8
0
 10
8.861442
 20
3.092238
 30
0.0
 11
9.088861
 21
3.092238
 31
0.0
  0
LINE
  5
4CA
  8
0
 10
9.088861
 20
3.092238
 30
0.0
 11
9.343377
 21
3.092238
 31
0.0
  0
LINE
  5
4CB
  8
0
 10
9.343377
 20
3.092238
 30
0.0
 11
9.388861
 21
3.092238
 31
0.0
  0
LINE
  5
4CC
  8
0
 10
9.388861
 20
3.092238
 30
0.0
 11
10.661442
 21
3.092238
 31
0.0
  0
LINE
  5
4CD
  8
0
 10
10.661442
 20
3.092238
 30
0.0
 11
10.888861
 21
3.092238
 31
0.0
  0
LINE
  5
4CE
  8
0
 10
10.888861
 20
3.092238
 30
0.0
 11
11.143377
 21
3.092238
 31
0.0
  0
LINE
  5
4CF
  8
0
 10
11.143377
 20
3.092238
 30
0.0
 11
11.188861
 21
3.092238
 31
0.0
  0
LINE
  5
4D0
  8
0
 10
11.188861
 20
3.092238
 30
0.0
 11
12.461442
 21
3.092238
 31
0.0
  0
LINE
  5
4D1
  8
0
 10
12.461442
 20
3.092238
 30
0.0
 11
12.688861
 21
3.092238
 31
0.0
  0
LINE
  5
4D2
  8
0
 10
12.688861
 20
3.092238
 30
0.0
 11
12.943377
 21
3.092238
 31
0.0
  0
LINE
  5
4D3
  8
0
 10
12.943377
 20
3.092238
 30
0.0
 11
12.988861
 21
3.092238
 31
0.0
  0
LINE
  5
4D4
  8
0
 10
12.988861
 20
3.092238
 30
0.0
 11
14.261442
 21
3.092238
 31
0.0
  0
LINE
  5
4D5
  8
0
 10
14.261442
 20
3.092238
 30
0.0
 11
14.467484
 21
3.092238
 31
0.0
  0
LINE
  5
4D6
  8
0
 10
14.467484
 20
3.092238
 30
0.0
 11
14.722
 21
3.092238
 31
0.0
  0
LINE
  5
4D7
  8
0
 10
0.476
 20
3.592238
 30
0.0
 11
0.521484
 21
3.592238
 31
0.0
  0
LINE
  5
4D8
  8
0
 10
0.476
 20
3.592238
 30
0.0
 11
0.521484
 21
3.592238
 31
0.0
  0
LINE
  5
4D9
  8
0
 10
0.521484
 20
3.592238
 30
0.0
 11
1.648142
 21
3.592238
 31
0.0
  0
LINE
  5
4DA
  8
0
 10
1.648142
 20
3.592238
 30
0.0
 11
1.875561
 21
3.592238
 31
0.0
  0
LINE
  5
4DB
  8
0
 10
1.875561
 20
3.592238
 30
0.0
 11
2.130077
 21
3.592238
 31
0.0
  0
LINE
  5
4DC
  8
0
 10
2.130077
 20
3.592238
 30
0.0
 11
2.175561
 21
3.592238
 31
0.0
  0
LINE
  5
4DD
  8
0
 10
2.175561
 20
3.592238
 30
0.0
 11
3.448142
 21
3.592238
 31
0.0
  0
LINE
  5
4DE
  8
0
 10
3.448142
 20
3.592238
 30
0.0
 11
3.675561
 21
3.592238
 31
0.0
  0
LINE
  5
4DF
  8
0
 10
3.675561
 20
3.592238
 30
0.0
 11
3.930077
 21
3.592238
 31
0.0
  0
LINE
  5
4E0
  8
0
 10
3.930077
 20
3.592238
 30
0.0
 11
3.975561
 21
3.592238
 31
0.0
  0
LINE
  5
4E1
  8
0
 10
3.975561
 20
3.592238
 30
0.0
 11
5.248142
 21
3.592238
 31
0.0
  0
LINE
  5
4E2
  8
0
 10
5.248142
 20
3.592238
 30
0.0
 11
5.475561
 21
3.592238
 31
0.0
  0
LINE
  5
4E3
  8
0
 10
5.475561
 20
3.592238
 30
0.0
 11
5.730077
 21
3.592238
 31
0.0
  0
LINE
  5
4E4
  8
0
 10
5.730077
 20
3.592238
 30
0.0
 11
5.775561
 21
3.592238
 31
0.0
  0
LINE
  5
4E5
  8
0
 10
5.775561
 20
3.592238
 30
0.0
 11
7.048142
 21
3.592238
 31
0.0
  0
LINE
  5
4E6
  8
0
 10
7.048142
 20
3.592238
 30
0.0
 11
7.275561
 21
3.592238
 31
0.0
  0
LINE
  5
4E7
  8
0
 10
7.275561
 20
3.592238
 30
0.0
 11
7.530077
 21
3.592238
 31
0.0
  0
LINE
  5
4E8
  8
0
 10
7.530077
 20
3.592238
 30
0.0
 11
7.575561
 21
3.592238
 31
0.0
  0
LINE
  5
4E9
  8
0
 10
7.575561
 20
3.592238
 30
0.0
 11
8.848142
 21
3.592238
 31
0.0
  0
LINE
  5
4EA
  8
0
 10
8.848142
 20
3.592238
 30
0.0
 11
9.075561
 21
3.592238
 31
0.0
  0
LINE
  5
4EB
  8
0
 10
9.075561
 20
3.592238
 30
0.0
 11
9.330077
 21
3.592238
 31
0.0
  0
LINE
  5
4EC
  8
0
 10
9.330077
 20
3.592238
 30
0.0
 11
9.375561
 21
3.592238
 31
0.0
  0
LINE
  5
4ED
  8
0
 10
9.375561
 20
3.592238
 30
0.0
 11
10.648142
 21
3.592238
 31
0.0
  0
LINE
  5
4EE
  8
0
 10
10.648142
 20
3.592238
 30
0.0
 11
10.875561
 21
3.592238
 31
0.0
  0
LINE
  5
4EF
  8
0
 10
10.875561
 20
3.592238
 30
0.0
 11
11.130077
 21
3.592238
 31
0.0
  0
LINE
  5
4F0
  8
0
 10
11.130077
 20
3.592238
 30
0.0
 11
11.175561
 21
3.592238
 31
0.0
  0
LINE
  5
4F1
  8
0
 10
11.175561
 20
3.592238
 30
0.0
 11
12.448142
 21
3.592238
 31
0.0
  0
LINE
  5
4F2
  8
0
 10
12.448142
 20
3.592238
 30
0.0
 11
12.675561
 21
3.592238
 31
0.0
  0
LINE
  5
4F3
  8
0
 10
12.675561
 20
3.592238
 30
0.0
 11
12.930077
 21
3.592238
 31
0.0
  0
LINE
  5
4F4
  8
0
 10
12.930077
 20
3.592238
 30
0.0
 11
12.975561
 21
3.592238
 31
0.0
  0
LINE
  5
4F5
  8
0
 10
12.975561
 20
3.592238
 30
0.0
 11
14.248142
 21
3.592238
 31
0.0
  0
LINE
  5
4F6
  8
0
 10
14.248142
 20
3.592238
 30
0.0
 11
14.449484
 21
3.592238
 31
0.0
  0
LINE
  5
4F7
  8
0
 10
14.449484
 20
3.592238
 30
0.0
 11
14.704
 21
3.592238
 31
0.0
  0
LINE
  5
4F8
  8
0
 10
0.488
 20
4.092238
 30
0.0
 11
0.533484
 21
4.092238
 31
0.0
  0
LINE
  5
4F9
  8
0
 10
0.488
 20
4.092238
 30
0.0
 11
0.533484
 21
4.092238
 31
0.0
  0
LINE
  5
4FA
  8
0
 10
0.533484
 20
4.092238
 30
0.0
 11
1.635539
 21
4.092238
 31
0.0
  0
LINE
  5
4FB
  8
0
 10
1.635539
 20
4.092238
 30
0.0
 11
1.862958
 21
4.092238
 31
0.0
  0
LINE
  5
4FC
  8
0
 10
1.862958
 20
4.092238
 30
0.0
 11
2.116626
 21
4.092238
 31
0.0
  0
LINE
  5
4FD
  8
0
 10
2.116626
 20
4.092238
 30
0.0
 11
2.16211
 21
4.092238
 31
0.0
  0
LINE
  5
4FE
  8
0
 10
2.16211
 20
4.092238
 30
0.0
 11
3.435539
 21
4.092238
 31
0.0
  0
LINE
  5
4FF
  8
0
 10
3.435539
 20
4.092238
 30
0.0
 11
3.662958
 21
4.092238
 31
0.0
  0
LINE
  5
500
  8
0
 10
3.662958
 20
4.092238
 30
0.0
 11
3.916626
 21
4.092238
 31
0.0
  0
LINE
  5
501
  8
0
 10
3.916626
 20
4.092238
 30
0.0
 11
3.96211
 21
4.092238
 31
0.0
  0
LINE
  5
502
  8
0
 10
3.96211
 20
4.092238
 30
0.0
 11
5.235539
 21
4.092238
 31
0.0
  0
LINE
  5
503
  8
0
 10
5.235539
 20
4.092238
 30
0.0
 11
5.462958
 21
4.092238
 31
0.0
  0
LINE
  5
504
  8
0
 10
5.462958
 20
4.092238
 30
0.0
 11
5.716626
 21
4.092238
 31
0.0
  0
LINE
  5
505
  8
0
 10
5.716626
 20
4.092238
 30
0.0
 11
5.76211
 21
4.092238
 31
0.0
  0
LINE
  5
506
  8
0
 10
5.76211
 20
4.092238
 30
0.0
 11
7.035539
 21
4.092238
 31
0.0
  0
LINE
  5
507
  8
0
 10
7.035539
 20
4.092238
 30
0.0
 11
7.262958
 21
4.092238
 31
0.0
  0
LINE
  5
508
  8
0
 10
7.262958
 20
4.092238
 30
0.0
 11
7.516626
 21
4.092238
 31
0.0
  0
LINE
  5
509
  8
0
 10
7.516626
 20
4.092238
 30
0.0
 11
7.56211
 21
4.092238
 31
0.0
  0
LINE
  5
50A
  8
0
 10
7.56211
 20
4.092238
 30
0.0
 11
8.835539
 21
4.092238
 31
0.0
  0
LINE
  5
50B
  8
0
 10
8.835539
 20
4.092238
 30
0.0
 11
9.062958
 21
4.092238
 31
0.0
  0
LINE
  5
50C
  8
0
 10
9.062958
 20
4.092238
 30
0.0
 11
9.316626
 21
4.092238
 31
0.0
  0
LINE
  5
50D
  8
0
 10
9.316626
 20
4.092238
 30
0.0
 11
9.36211
 21
4.092238
 31
0.0
  0
LINE
  5
50E
  8
0
 10
9.36211
 20
4.092238
 30
0.0
 11
10.635539
 21
4.092238
 31
0.0
  0
LINE
  5
50F
  8
0
 10
10.635539
 20
4.092238
 30
0.0
 11
10.862958
 21
4.092238
 31
0.0
  0
LINE
  5
510
  8
0
 10
10.862958
 20
4.092238
 30
0.0
 11
11.116626
 21
4.092238
 31
0.0
  0
LINE
  5
511
  8
0
 10
11.116626
 20
4.092238
 30
0.0
 11
11.16211
 21
4.092238
 31
0.0
  0
LINE
  5
512
  8
0
 10
11.16211
 20
4.092238
 30
0.0
 11
12.435539
 21
4.092238
 31
0.0
  0
LINE
  5
513
  8
0
 10
12.435539
 20
4.092238
 30
0.0
 11
12.662958
 21
4.092238
 31
0.0
  0
LINE
  5
514
  8
0
 10
12.662958
 20
4.092238
 30
0.0
 11
12.916626
 21
4.092238
 31
0.0
  0
LINE
  5
515
  8
0
 10
12.916626
 20
4.092238
 30
0.0
 11
12.96211
 21
4.092238
 31
0.0
  0
LINE
  5
516
  8
0
 10
12.96211
 20
4.092238
 30
0.0
 11
14.235539
 21
4.092238
 31
0.0
  0
LINE
  5
517
  8
0
 10
14.235539
 20
4.092238
 30
0.0
 11
14.432484
 21
4.092238
 31
0.0
  0
LINE
  5
518
  8
0
 10
14.432484
 20
4.092238
 30
0.0
 11
14.687
 21
4.092238
 31
0.0
  0
LINE
  5
519
  8
0
 10
0.501
 20
4.592238
 30
0.0
 11
0.546484
 21
4.592238
 31
0.0
  0
LINE
  5
51A
  8
0
 10
0.501
 20
4.592238
 30
0.0
 11
0.546484
 21
4.592238
 31
0.0
  0
LINE
  5
51B
  8
0
 10
0.546484
 20
4.592238
 30
0.0
 11
1.622239
 21
4.592238
 31
0.0
  0
LINE
  5
51C
  8
0
 10
1.622239
 20
4.592238
 30
0.0
 11
1.849658
 21
4.592238
 31
0.0
  0
LINE
  5
51D
  8
0
 10
1.849658
 20
4.592238
 30
0.0
 11
2.104174
 21
4.592238
 31
0.0
  0
LINE
  5
51E
  8
0
 10
2.104174
 20
4.592238
 30
0.0
 11
2.149658
 21
4.592238
 31
0.0
  0
LINE
  5
51F
  8
0
 10
2.149658
 20
4.592238
 30
0.0
 11
3.422239
 21
4.592238
 31
0.0
  0
LINE
  5
520
  8
0
 10
3.422239
 20
4.592238
 30
0.0
 11
3.649658
 21
4.592238
 31
0.0
  0
LINE
  5
521
  8
0
 10
3.649658
 20
4.592238
 30
0.0
 11
3.904174
 21
4.592238
 31
0.0
  0
LINE
  5
522
  8
0
 10
3.904174
 20
4.592238
 30
0.0
 11
3.949658
 21
4.592238
 31
0.0
  0
LINE
  5
523
  8
0
 10
3.949658
 20
4.592238
 30
0.0
 11
5.222239
 21
4.592238
 31
0.0
  0
LINE
  5
524
  8
0
 10
5.222239
 20
4.592238
 30
0.0
 11
5.449658
 21
4.592238
 31
0.0
  0
LINE
  5
525
  8
0
 10
5.449658
 20
4.592238
 30
0.0
 11
5.704174
 21
4.592238
 31
0.0
  0
LINE
  5
526
  8
0
 10
5.704174
 20
4.592238
 30
0.0
 11
5.749658
 21
4.592238
 31
0.0
  0
LINE
  5
527
  8
0
 10
5.749658
 20
4.592238
 30
0.0
 11
7.022239
 21
4.592238
 31
0.0
  0
LINE
  5
528
  8
0
 10
7.022239
 20
4.592238
 30
0.0
 11
7.249658
 21
4.592238
 31
0.0
  0
LINE
  5
529
  8
0
 10
7.249658
 20
4.592238
 30
0.0
 11
7.504174
 21
4.592238
 31
0.0
  0
LINE
  5
52A
  8
0
 10
7.504174
 20
4.592238
 30
0.0
 11
7.549658
 21
4.592238
 31
0.0
  0
LINE
  5
52B
  8
0
 10
7.549658
 20
4.592238
 30
0.0
 11
8.822239
 21
4.592238
 31
0.0
  0
LINE
  5
52C
  8
0
 10
8.822239
 20
4.592238
 30
0.0
 11
9.049658
 21
4.592238
 31
0.0
  0
LINE
  5
52D
  8
0
 10
9.049658
 20
4.592238
 30
0.0
 11
9.304174
 21
4.592238
 31
0.0
  0
LINE
  5
52E
  8
0
 10
9.304174
 20
4.592238
 30
0.0
 11
9.349658
 21
4.592238
 31
0.0
  0
LINE
  5
52F
  8
0
 10
9.349658
 20
4.592238
 30
0.0
 11
10.622239
 21
4.592238
 31
0.0
  0
LINE
  5
530
  8
0
 10
10.622239
 20
4.592238
 30
0.0
 11
10.849658
 21
4.592238
 31
0.0
  0
LINE
  5
531
  8
0
 10
10.849658
 20
4.592238
 30
0.0
 11
11.104174
 21
4.592238
 31
0.0
  0
LINE
  5
532
  8
0
 10
11.104174
 20
4.592238
 30
0.0
 11
11.149658
 21
4.592238
 31
0.0
  0
LINE
  5
533
  8
0
 10
11.149658
 20
4.592238
 30
0.0
 11
12.422239
 21
4.592238
 31
0.0
  0
LINE
  5
534
  8
0
 10
12.422239
 20
4.592238
 30
0.0
 11
12.649658
 21
4.592238
 31
0.0
  0
LINE
  5
535
  8
0
 10
12.649658
 20
4.592238
 30
0.0
 11
12.904174
 21
4.592238
 31
0.0
  0
LINE
  5
536
  8
0
 10
12.904174
 20
4.592238
 30
0.0
 11
12.949658
 21
4.592238
 31
0.0
  0
LINE
  5
537
  8
0
 10
12.949658
 20
4.592238
 30
0.0
 11
14.222239
 21
4.592238
 31
0.0
  0
LINE
  5
538
  8
0
 10
14.222239
 20
4.592238
 30
0.0
 11
14.414484
 21
4.592238
 31
0.0
  0
LINE
  5
539
  8
0
 10
14.414484
 20
4.592238
 30
0.0
 11
14.669
 21
4.592238
 31
0.0
  0
LINE
  5
53A
  8
0
 10
0.513
 20
5.092238
 30
0.0
 11
0.558484
 21
5.092238
 31
0.0
  0
LINE
  5
53B
  8
0
 10
0.513
 20
5.092238
 30
0.0
 11
0.558484
 21
5.092238
 31
0.0
  0
LINE
  5
53C
  8
0
 10
0.558484
 20
5.092238
 30
0.0
 11
1.608787
 21
5.092238
 31
0.0
  0
LINE
  5
53D
  8
0
 10
1.608787
 20
5.092238
 30
0.0
 11
1.836358
 21
5.092238
 31
0.0
  0
LINE
  5
53E
  8
0
 10
1.836358
 20
5.092238
 30
0.0
 11
2.090874
 21
5.092238
 31
0.0
  0
LINE
  5
53F
  8
0
 10
2.090874
 20
5.092238
 30
0.0
 11
2.136206
 21
5.092238
 31
0.0
  0
LINE
  5
540
  8
0
 10
2.136206
 20
5.092238
 30
0.0
 11
3.408787
 21
5.092238
 31
0.0
  0
LINE
  5
541
  8
0
 10
3.408787
 20
5.092238
 30
0.0
 11
3.636358
 21
5.092238
 31
0.0
  0
LINE
  5
542
  8
0
 10
3.636358
 20
5.092238
 30
0.0
 11
3.890874
 21
5.092238
 31
0.0
  0
LINE
  5
543
  8
0
 10
3.890874
 20
5.092238
 30
0.0
 11
3.936206
 21
5.092238
 31
0.0
  0
LINE
  5
544
  8
0
 10
3.936206
 20
5.092238
 30
0.0
 11
5.208787
 21
5.092238
 31
0.0
  0
LINE
  5
545
  8
0
 10
5.208787
 20
5.092238
 30
0.0
 11
5.436358
 21
5.092238
 31
0.0
  0
LINE
  5
546
  8
0
 10
5.436358
 20
5.092238
 30
0.0
 11
5.690874
 21
5.092238
 31
0.0
  0
LINE
  5
547
  8
0
 10
5.690874
 20
5.092238
 30
0.0
 11
5.736206
 21
5.092238
 31
0.0
  0
LINE
  5
548
  8
0
 10
5.736206
 20
5.092238
 30
0.0
 11
7.008787
 21
5.092238
 31
0.0
  0
LINE
  5
549
  8
0
 10
7.008787
 20
5.092238
 30
0.0
 11
7.236358
 21
5.092238
 31
0.0
  0
LINE
  5
54A
  8
0
 10
7.236358
 20
5.092238
 30
0.0
 11
7.490874
 21
5.092238
 31
0.0
  0
LINE
  5
54B
  8
0
 10
7.490874
 20
5.092238
 30
0.0
 11
7.536206
 21
5.092238
 31
0.0
  0
LINE
  5
54C
  8
0
 10
7.536206
 20
5.092238
 30
0.0
 11
8.808787
 21
5.092238
 31
0.0
  0
LINE
  5
54D
  8
0
 10
8.808787
 20
5.092238
 30
0.0
 11
9.036358
 21
5.092238
 31
0.0
  0
LINE
  5
54E
  8
0
 10
9.036358
 20
5.092238
 30
0.0
 11
9.290874
 21
5.092238
 31
0.0
  0
LINE
  5
54F
  8
0
 10
9.290874
 20
5.092238
 30
0.0
 11
9.336206
 21
5.092238
 31
0.0
  0
LINE
  5
550
  8
0
 10
9.336206
 20
5.092238
 30
0.0
 11
10.608787
 21
5.092238
 31
0.0
  0
LINE
  5
551
  8
0
 10
10.608787
 20
5.092238
 30
0.0
 11
10.836358
 21
5.092238
 31
0.0
  0
LINE
  5
552
  8
0
 10
10.836358
 20
5.092238
 30
0.0
 11
11.090874
 21
5.092238
 31
0.0
  0
LINE
  5
553
  8
0
 10
11.090874
 20
5.092238
 30
0.0
 11
11.136206
 21
5.092238
 31
0.0
  0
LINE
  5
554
  8
0
 10
11.136206
 20
5.092238
 30
0.0
 11
12.408787
 21
5.092238
 31
0.0
  0
LINE
  5
555
  8
0
 10
12.408787
 20
5.092238
 30
0.0
 11
12.636358
 21
5.092238
 31
0.0
  0
LINE
  5
556
  8
0
 10
12.636358
 20
5.092238
 30
0.0
 11
12.890874
 21
5.092238
 31
0.0
  0
LINE
  5
557
  8
0
 10
12.890874
 20
5.092238
 30
0.0
 11
12.936206
 21
5.092238
 31
0.0
  0
LINE
  5
558
  8
0
 10
12.936206
 20
5.092238
 30
0.0
 11
14.208787
 21
5.092238
 31
0.0
  0
LINE
  5
559
  8
0
 10
14.208787
 20
5.092238
 30
0.0
 11
14.396484
 21
5.092238
 31
0.0
  0
LINE
  5
55A
  8
0
 10
14.396484
 20
5.092238
 30
0.0
 11
14.651
 21
5.092238
 31
0.0
  0
LINE
  5
55B
  8
0
 10
0.526
 20
5.592238
 30
0.0
 11
0.571484
 21
5.592238
 31
0.0
  0
LINE
  5
55C
  8
0
 10
0.526
 20
5.592238
 30
0.0
 11
0.571484
 21
5.592238
 31
0.0
  0
LINE
  5
55D
  8
0
 10
0.571484
 20
5.592238
 30
0.0
 11
1.596335
 21
5.592238
 31
0.0
  0
LINE
  5
55E
  8
0
 10
1.596335
 20
5.592238
 30
0.0
 11
1.823755
 21
5.592238
 31
0.0
  0
LINE
  5
55F
  8
0
 10
1.823755
 20
5.592238
 30
0.0
 11
2.078271
 21
5.592238
 31
0.0
  0
LINE
  5
560
  8
0
 10
2.078271
 20
5.592238
 30
0.0
 11
2.123755
 21
5.592238
 31
0.0
  0
LINE
  5
561
  8
0
 10
2.123755
 20
5.592238
 30
0.0
 11
3.396335
 21
5.592238
 31
0.0
  0
LINE
  5
562
  8
0
 10
3.396335
 20
5.592238
 30
0.0
 11
3.623755
 21
5.592238
 31
0.0
  0
LINE
  5
563
  8
0
 10
3.623755
 20
5.592238
 30
0.0
 11
3.878271
 21
5.592238
 31
0.0
  0
LINE
  5
564
  8
0
 10
3.878271
 20
5.592238
 30
0.0
 11
3.923755
 21
5.592238
 31
0.0
  0
LINE
  5
565
  8
0
 10
3.923755
 20
5.592238
 30
0.0
 11
5.196335
 21
5.592238
 31
0.0
  0
LINE
  5
566
  8
0
 10
5.196335
 20
5.592238
 30
0.0
 11
5.423755
 21
5.592238
 31
0.0
  0
LINE
  5
567
  8
0
 10
5.423755
 20
5.592238
 30
0.0
 11
5.678271
 21
5.592238
 31
0.0
  0
LINE
  5
568
  8
0
 10
5.678271
 20
5.592238
 30
0.0
 11
5.723755
 21
5.592238
 31
0.0
  0
LINE
  5
569
  8
0
 10
5.723755
 20
5.592238
 30
0.0
 11
6.996335
 21
5.592238
 31
0.0
  0
LINE
  5
56A
  8
0
 10
6.996335
 20
5.592238
 30
0.0
 11
7.223755
 21
5.592238
 31
0.0
  0
LINE
  5
56B
  8
0
 10
7.223755
 20
5.592238
 30
0.0
 11
7.478271
 21
5.592238
 31
0.0
  0
LINE
  5
56C
  8
0
 10
7.478271
 20
5.592238
 30
0.0
 11
7.523755
 21
5.592238
 31
0.0
  0
LINE
  5
56D
  8
0
 10
7.523755
 20
5.592238
 30
0.0
 11
8.796335
 21
5.592238
 31
0.0
  0
LINE
  5
56E
  8
0
 10
8.796335
 20
5.592238
 30
0.0
 11
9.023755
 21
5.592238
 31
0.0
  0
LINE
  5
56F
  8
0
 10
9.023755
 20
5.592238
 30
0.0
 11
9.278271
 21
5.592238
 31
0.0
  0
LINE
  5
570
  8
0
 10
9.278271
 20
5.592238
 30
0.0
 11
9.323755
 21
5.592238
 31
0.0
  0
LINE
  5
571
  8
0
 10
9.323755
 20
5.592238
 30
0.0
 11
10.596335
 21
5.592238
 31
0.0
  0
LINE
  5
572
  8
0
 10
10.596335
 20
5.592238
 30
0.0
 11
10.823755
 21
5.592238
 31
0.0
  0
LINE
  5
573
  8
0
 10
10.823755
 20
5.592238
 30
0.0
 11
11.078271
 21
5.592238
 31
0.0
  0
LINE
  5
574
  8
0
 10
11.078271
 20
5.592238
 30
0.0
 11
11.123755
 21
5.592238
 31
0.0
  0
LINE
  5
575
  8
0
 10
11.123755
 20
5.592238
 30
0.0
 11
12.396335
 21
5.592238
 31
0.0
  0
LINE
  5
576
  8
0
 10
12.396335
 20
5.592238
 30
0.0
 11
12.623755
 21
5.592238
 31
0.0
  0
LINE
  5
577
  8
0
 10
12.623755
 20
5.592238
 30
0.0
 11
12.878271
 21
5.592238
 31
0.0
  0
LINE
  5
578
  8
0
 10
12.878271
 20
5.592238
 30
0.0
 11
12.923755
 21
5.592238
 31
0.0
  0
LINE
  5
579
  8
0
 10
12.923755
 20
5.592238
 30
0.0
 11
14.196335
 21
5.592238
 31
0.0
  0
LINE
  5
57A
  8
0
 10
14.196335
 20
5.592238
 30
0.0
 11
14.379484
 21
5.592238
 31
0.0
  0
LINE
  5
57B
  8
0
 10
14.379484
 20
5.592238
 30
0.0
 11
14.634
 21
5.592238
 31
0.0
  0
LINE
  5
57C
  8
0
 10
0.539
 20
6.092238
 30
0.0
 11
0.584484
 21
6.092238
 31
0.0
  0
LINE
  5
57D
  8
0
 10
0.539
 20
6.092238
 30
0.0
 11
0.584484
 21
6.092238
 31
0.0
  0
LINE
  5
57E
  8
0
 10
0.584484
 20
6.092238
 30
0.0
 11
1.591519
 21
6.092238
 31
0.0
  0
LINE
  5
57F
  8
0
 10
1.591519
 20
6.092238
 30
0.0
 11
1.818939
 21
6.092238
 31
0.0
  0
LINE
  5
580
  8
0
 10
1.818939
 20
6.092238
 30
0.0
 11
2.073455
 21
6.092238
 31
0.0
  0
LINE
  5
581
  8
0
 10
2.073455
 20
6.092238
 30
0.0
 11
2.118939
 21
6.092238
 31
0.0
  0
LINE
  5
582
  8
0
 10
2.118939
 20
6.092238
 30
0.0
 11
3.391519
 21
6.092238
 31
0.0
  0
LINE
  5
583
  8
0
 10
3.391519
 20
6.092238
 30
0.0
 11
3.618939
 21
6.092238
 31
0.0
  0
LINE
  5
584
  8
0
 10
3.618939
 20
6.092238
 30
0.0
 11
3.873455
 21
6.092238
 31
0.0
  0
LINE
  5
585
  8
0
 10
3.873455
 20
6.092238
 30
0.0
 11
3.918939
 21
6.092238
 31
0.0
  0
LINE
  5
586
  8
0
 10
3.918939
 20
6.092238
 30
0.0
 11
5.191519
 21
6.092238
 31
0.0
  0
LINE
  5
587
  8
0
 10
5.191519
 20
6.092238
 30
0.0
 11
5.418939
 21
6.092238
 31
0.0
  0
LINE
  5
588
  8
0
 10
5.418939
 20
6.092238
 30
0.0
 11
5.673455
 21
6.092238
 31
0.0
  0
LINE
  5
589
  8
0
 10
5.673455
 20
6.092238
 30
0.0
 11
5.718939
 21
6.092238
 31
0.0
  0
LINE
  5
58A
  8
0
 10
5.718939
 20
6.092238
 30
0.0
 11
6.991519
 21
6.092238
 31
0.0
  0
LINE
  5
58B
  8
0
 10
6.991519
 20
6.092238
 30
0.0
 11
7.218939
 21
6.092238
 31
0.0
  0
LINE
  5
58C
  8
0
 10
7.218939
 20
6.092238
 30
0.0
 11
7.473455
 21
6.092238
 31
0.0
  0
LINE
  5
58D
  8
0
 10
7.473455
 20
6.092238
 30
0.0
 11
7.518939
 21
6.092238
 31
0.0
  0
LINE
  5
58E
  8
0
 10
7.518939
 20
6.092238
 30
0.0
 11
8.791519
 21
6.092238
 31
0.0
  0
LINE
  5
58F
  8
0
 10
8.791519
 20
6.092238
 30
0.0
 11
9.018939
 21
6.092238
 31
0.0
  0
LINE
  5
590
  8
0
 10
9.018939
 20
6.092238
 30
0.0
 11
9.273455
 21
6.092238
 31
0.0
  0
LINE
  5
591
  8
0
 10
9.273455
 20
6.092238
 30
0.0
 11
9.318939
 21
6.092238
 31
0.0
  0
LINE
  5
592
  8
0
 10
9.318939
 20
6.092238
 30
0.0
 11
10.591519
 21
6.092238
 31
0.0
  0
LINE
  5
593
  8
0
 10
10.591519
 20
6.092238
 30
0.0
 11
10.818939
 21
6.092238
 31
0.0
  0
LINE
  5
594
  8
0
 10
10.818939
 20
6.092238
 30
0.0
 11
11.073455
 21
6.092238
 31
0.0
  0
LINE
  5
595
  8
0
 10
11.073455
 20
6.092238
 30
0.0
 11
11.118939
 21
6.092238
 31
0.0
  0
LINE
  5
596
  8
0
 10
11.118939
 20
6.092238
 30
0.0
 11
12.391519
 21
6.092238
 31
0.0
  0
LINE
  5
597
  8
0
 10
12.391519
 20
6.092238
 30
0.0
 11
12.618939
 21
6.092238
 31
0.0
  0
LINE
  5
598
  8
0
 10
12.618939
 20
6.092238
 30
0.0
 11
12.873455
 21
6.092238
 31
0.0
  0
LINE
  5
599
  8
0
 10
12.873455
 20
6.092238
 30
0.0
 11
12.918939
 21
6.092238
 31
0.0
  0
LINE
  5
59A
  8
0
 10
12.918939
 20
6.092238
 30
0.0
 11
14.191519
 21
6.092238
 31
0.0
  0
LINE
  5
59B
  8
0
 10
14.191519
 20
6.092238
 30
0.0
 11
14.371484
 21
6.092238
 31
0.0
  0
LINE
  5
59C
  8
0
 10
14.371484
 20
6.092238
 30
0.0
 11
14.626
 21
6.092238
 31
0.0
  0
LINE
  5
59D
  8
0
 10
0.551
 20
6.592238
 30
0.0
 11
0.596484
 21
6.592238
 31
0.0
  0
LINE
  5
59E
  8
0
 10
0.551
 20
6.592238
 30
0.0
 11
0.596484
 21
6.592238
 31
0.0
  0
LINE
  5
59F
  8
0
 10
0.596484
 20
6.592238
 30
0.0
 11
1.593339
 21
6.592238
 31
0.0
  0
LINE
  5
5A0
  8
0
 10
1.593339
 20
6.592238
 30
0.0
 11
1.820758
 21
6.592238
 31
0.0
  0
LINE
  5
5A1
  8
0
 10
1.820758
 20
6.592238
 30
0.0
 11
2.075274
 21
6.592238
 31
0.0
  0
LINE
  5
5A2
  8
0
 10
2.075274
 20
6.592238
 30
0.0
 11
2.120758
 21
6.592238
 31
0.0
  0
LINE
  5
5A3
  8
0
 10
2.120758
 20
6.592238
 30
0.0
 11
3.393339
 21
6.592238
 31
0.0
  0
LINE
  5
5A4
  8
0
 10
3.393339
 20
6.592238
 30
0.0
 11
3.620758
 21
6.592238
 31
0.0
  0
LINE
  5
5A5
  8
0
 10
3.620758
 20
6.592238
 30
0.0
 11
3.875274
 21
6.592238
 31
0.0
  0
LINE
  5
5A6
  8
0
 10
3.875274
 20
6.592238
 30
0.0
 11
3.920758
 21
6.592238
 31
0.0
  0
LINE
  5
5A7
  8
0
 10
3.920758
 20
6.592238
 30
0.0
 11
5.193339
 21
6.592238
 31
0.0
  0
LINE
  5
5A8
  8
0
 10
5.193339
 20
6.592238
 30
0.0
 11
5.420758
 21
6.592238
 31
0.0
  0
LINE
  5
5A9
  8
0
 10
5.420758
 20
6.592238
 30
0.0
 11
5.675274
 21
6.592238
 31
0.0
  0
LINE
  5
5AA
  8
0
 10
5.675274
 20
6.592238
 30
0.0
 11
5.720758
 21
6.592238
 31
0.0
  0
LINE
  5
5AB
  8
0
 10
5.720758
 20
6.592238
 30
0.0
 11
6.993339
 21
6.592238
 31
0.0
  0
LINE
  5
5AC
  8
0
 10
6.993339
 20
6.592238
 30
0.0
 11
7.220758
 21
6.592238
 31
0.0
  0
LINE
  5
5AD
  8
0
 10
7.220758
 20
6.592238
 30
0.0
 11
7.475274
 21
6.592238
 31
0.0
  0
LINE
  5
5AE
  8
0
 10
7.475274
 20
6.592238
 30
0.0
 11
7.520758
 21
6.592238
 31
0.0
  0
LINE
  5
5AF
  8
0
 10
7.520758
 20
6.592238
 30
0.0
 11
8.793339
 21
6.592238
 31
0.0
  0
LINE
  5
5B0
  8
0
 10
8.793339
 20
6.592238
 30
0.0
 11
9.020758
 21
6.592238
 31
0.0
  0
LINE
  5
5B1
  8
0
 10
9.020758
 20
6.592238
 30
0.0
 11
9.275274
 21
6.592238
 31
0.0
  0
LINE
  5
5B2
  8
0
 10
9.275274
 20
6.592238
 30
0.0
 11
9.320758
 21
6.592238
 31
0.0
  0
LINE
  5
5B3
  8
0
 10
9.320758
 20
6.592238
 30
0.0
 11
10.593339
 21
6.592238
 31
0.0
  0
LINE
  5
5B4
  8
0
 10
10.593339
 20
6.592238
 30
0.0
 11
10.820758
 21
6.592238
 31
0.0
  0
LINE
  5
5B5
  8
0
 10
10.820758
 20
6.592238
 30
0.0
 11
11.075274
 21
6.592238
 31
0.0
  0
LINE
  5
5B6
  8
0
 10
11.075274
 20
6.592238
 30
0.0
 11
11.120758
 21
6.592238
 31
0.0
  0
LINE
  5
5B7
  8
0
 10
11.120758
 20
6.592238
 30
0.0
 11
12.393339
 21
6.592238
 31
0.0
  0
LINE
  5
5B8
  8
0
 10
12.393339
 20
6.592238
 30
0.0
 11
12.620758
 21
6.592238
 31
0.0
  0
LINE
  5
5B9
  8
0
 10
12.620758
 20
6.592238
 30
0.0
 11
12.875274
 21
6.592238
 31
0.0
  0
LINE
  5
5BA
  8
0
 10
12.875274
 20
6.592238
 30
0.0
 11
12.920758
 21
6.592238
 31
0.0
  0
LINE
  5
5BB
  8
0
 10
12.920758
 20
6.592238
 30
0.0
 11
14.193339
 21
6.592238
 31
0.0
  0
LINE
  5
5BC
  8
0
 10
14.193339
 20
6.592238
 30
0.0
 11
14.371484
 21
6.592238
 31
0.0
  0
LINE
  5
5BD
  8
0
 10
14.371484
 20
6.592238
 30
0.0
 11
14.626
 21
6.592238
 31
0.0
  0
LINE
  5
5BE
  8
0
 10
0.564
 20
7.092238
 30
0.0
 11
0.609484
 21
7.092238
 31
0.0
  0
LINE
  5
5BF
  8
0
 10
0.564
 20
7.092238
 30
0.0
 11
0.609484
 21
7.092238
 31
0.0
  0
LINE
  5
5C0
  8
0
 10
0.609484
 20
7.092238
 30
0.0
 11
1.59531
 21
7.092238
 31
0.0
  0
LINE
  5
5C1
  8
0
 10
1.59531
 20
7.092238
 30
0.0
 11
1.822729
 21
7.092238
 31
0.0
  0
LINE
  5
5C2
  8
0
 10
1.822729
 20
7.092238
 30
0.0
 11
2.077245
 21
7.092238
 31
0.0
  0
LINE
  5
5C3
  8
0
 10
2.077245
 20
7.092238
 30
0.0
 11
2.122729
 21
7.092238
 31
0.0
  0
LINE
  5
5C4
  8
0
 10
2.122729
 20
7.092238
 30
0.0
 11
3.39531
 21
7.092238
 31
0.0
  0
LINE
  5
5C5
  8
0
 10
3.39531
 20
7.092238
 30
0.0
 11
3.622729
 21
7.092238
 31
0.0
  0
LINE
  5
5C6
  8
0
 10
3.622729
 20
7.092238
 30
0.0
 11
3.877245
 21
7.092238
 31
0.0
  0
LINE
  5
5C7
  8
0
 10
3.877245
 20
7.092238
 30
0.0
 11
3.922729
 21
7.092238
 31
0.0
  0
LINE
  5
5C8
  8
0
 10
3.922729
 20
7.092238
 30
0.0
 11
5.19531
 21
7.092238
 31
0.0
  0
LINE
  5
5C9
  8
0
 10
5.19531
 20
7.092238
 30
0.0
 11
5.422729
 21
7.092238
 31
0.0
  0
LINE
  5
5CA
  8
0
 10
5.422729
 20
7.092238
 30
0.0
 11
5.677245
 21
7.092238
 31
0.0
  0
LINE
  5
5CB
  8
0
 10
5.677245
 20
7.092238
 30
0.0
 11
5.722729
 21
7.092238
 31
0.0
  0
LINE
  5
5CC
  8
0
 10
5.722729
 20
7.092238
 30
0.0
 11
6.99531
 21
7.092238
 31
0.0
  0
LINE
  5
5CD
  8
0
 10
6.99531
 20
7.092238
 30
0.0
 11
7.222729
 21
7.092238
 31
0.0
  0
LINE
  5
5CE
  8
0
 10
7.222729
 20
7.092238
 30
0.0
 11
7.477245
 21
7.092238
 31
0.0
  0
LINE
  5
5CF
  8
0
 10
7.477245
 20
7.092238
 30
0.0
 11
7.522729
 21
7.092238
 31
0.0
  0
LINE
  5
5D0
  8
0
 10
7.522729
 20
7.092238
 30
0.0
 11
8.79531
 21
7.092238
 31
0.0
  0
LINE
  5
5D1
  8
0
 10
8.79531
 20
7.092238
 30
0.0
 11
9.022729
 21
7.092238
 31
0.0
  0
LINE
  5
5D2
  8
0
 10
9.022729
 20
7.092238
 30
0.0
 11
9.277245
 21
7.092238
 31
0.0
  0
LINE
  5
5D3
  8
0
 10
9.277245
 20
7.092238
 30
0.0
 11
9.322729
 21
7.092238
 31
0.0
  0
LINE
  5
5D4
  8
0
 10
9.322729
 20
7.092238
 30
0.0
 11
10.59531
 21
7.092238
 31
0.0
  0
LINE
  5
5D5
  8
0
 10
10.59531
 20
7.092238
 30
0.0
 11
10.822729
 21
7.092238
 31
0.0
  0
LINE
  5
5D6
  8
0
 10
10.822729
 20
7.092238
 30
0.0
 11
11.077245
 21
7.092238
 31
0.0
  0
LINE
  5
5D7
  8
0
 10
11.077245
 20
7.092238
 30
0.0
 11
11.122729
 21
7.092238
 31
0.0
  0
LINE
  5
5D8
  8
0
 10
11.122729
 20
7.092238
 30
0.0
 11
12.39531
 21
7.092238
 31
0.0
  0
LINE
  5
5D9
  8
0
 10
12.39531
 20
7.092238
 30
0.0
 11
12.622729
 21
7.092238
 31
0.0
  0
LINE
  5
5DA
  8
0
 10
12.622729
 20
7.092238
 30
0.0
 11
12.877245
 21
7.092238
 31
0.0
  0
LINE
  5
5DB
  8
0
 10
12.877245
 20
7.092238
 30
0.0
 11
12.922729
 21
7.092238
 31
0.0
  0
LINE
  5
5DC
  8
0
 10
12.922729
 20
7.092238
 30
0.0
 11
14.19531
 21
7.092238
 31
0.0
  0
LINE
  5
5DD
  8
0
 10
14.19531
 20
7.092238
 30
0.0
 11
14.371484
 21
7.092238
 31
0.0
  0
LINE
  5
5DE
  8
0
 10
14.371484
 20
7.092238
 30
0.0
 11
14.626
 21
7.092238
 31
0.0
  0
LINE
  5
5DF
  8
0
 10
0.576
 20
7.592238
 30
0.0
 11
0.621484
 21
7.592238
 31
0.0
  0
LINE
  5
5E0
  8
0
 10
0.576
 20
7.592238
 30
0.0
 11
0.621484
 21
7.592238
 31
0.0
  0
LINE
  5
5E1
  8
0
 10
0.621484
 20
7.592238
 30
0.0
 11
1.597129
 21
7.592238
 31
0.0
  0
LINE
  5
5E2
  8
0
 10
1.597129
 20
7.592238
 30
0.0
 11
1.8247
 21
7.592238
 31
0.0
  0
LINE
  5
5E3
  8
0
 10
1.8247
 20
7.592238
 30
0.0
 11
2.079216
 21
7.592238
 31
0.0
  0
LINE
  5
5E4
  8
0
 10
2.079216
 20
7.592238
 30
0.0
 11
2.124548
 21
7.592238
 31
0.0
  0
LINE
  5
5E5
  8
0
 10
2.124548
 20
7.592238
 30
0.0
 11
3.397129
 21
7.592238
 31
0.0
  0
LINE
  5
5E6
  8
0
 10
3.397129
 20
7.592238
 30
0.0
 11
3.6247
 21
7.592238
 31
0.0
  0
LINE
  5
5E7
  8
0
 10
3.6247
 20
7.592238
 30
0.0
 11
3.879216
 21
7.592238
 31
0.0
  0
LINE
  5
5E8
  8
0
 10
3.879216
 20
7.592238
 30
0.0
 11
3.924548
 21
7.592238
 31
0.0
  0
LINE
  5
5E9
  8
0
 10
3.924548
 20
7.592238
 30
0.0
 11
5.197129
 21
7.592238
 31
0.0
  0
LINE
  5
5EA
  8
0
 10
5.197129
 20
7.592238
 30
0.0
 11
5.4247
 21
7.592238
 31
0.0
  0
LINE
  5
5EB
  8
0
 10
5.4247
 20
7.592238
 30
0.0
 11
5.679216
 21
7.592238
 31
0.0
  0
LINE
  5
5EC
  8
0
 10
5.679216
 20
7.592238
 30
0.0
 11
5.724548
 21
7.592238
 31
0.0
  0
LINE
  5
5ED
  8
0
 10
5.724548
 20
7.592238
 30
0.0
 11
6.997129
 21
7.592238
 31
0.0
  0
LINE
  5
5EE
  8
0
 10
6.997129
 20
7.592238
 30
0.0
 11
7.2247
 21
7.592238
 31
0.0
  0
LINE
  5
5EF
  8
0
 10
7.2247
 20
7.592238
 30
0.0
 11
7.479216
 21
7.592238
 31
0.0
  0
LINE
  5
5F0
  8
0
 10
7.479216
 20
7.592238
 30
0.0
 11
7.524548
 21
7.592238
 31
0.0
  0
LINE
  5
5F1
  8
0
 10
7.524548
 20
7.592238
 30
0.0
 11
8.797129
 21
7.592238
 31
0.0
  0
LINE
  5
5F2
  8
0
 10
8.797129
 20
7.592238
 30
0.0
 11
9.0247
 21
7.592238
 31
0.0
  0
LINE
  5
5F3
  8
0
 10
9.0247
 20
7.592238
 30
0.0
 11
9.279216
 21
7.592238
 31
0.0
  0
LINE
  5
5F4
  8
0
 10
9.279216
 20
7.592238
 30
0.0
 11
9.324548
 21
7.592238
 31
0.0
  0
LINE
  5
5F5
  8
0
 10
9.324548
 20
7.592238
 30
0.0
 11
10.597129
 21
7.592238
 31
0.0
  0
LINE
  5
5F6
  8
0
 10
10.597129
 20
7.592238
 30
0.0
 11
10.8247
 21
7.592238
 31
0.0
  0
LINE
  5
5F7
  8
0
 10
10.8247
 20
7.592238
 30
0.0
 11
11.079216
 21
7.592238
 31
0.0
  0
LINE
  5
5F8
  8
0
 10
11.079216
 20
7.592238
 30
0.0
 11
11.124548
 21
7.592238
 31
0.0
  0
LINE
  5
5F9
  8
0
 10
11.124548
 20
7.592238
 30
0.0
 11
12.397129
 21
7.592238
 31
0.0
  0
LINE
  5
5FA
  8
0
 10
12.397129
 20
7.592238
 30
0.0
 11
12.6247
 21
7.592238
 31
0.0
  0
LINE
  5
5FB
  8
0
 10
12.6247
 20
7.592238
 30
0.0
 11
12.879216
 21
7.592238
 31
0.0
  0
LINE
  5
5FC
  8
0
 10
12.879216
 20
7.592238
 30
0.0
 11
12.924548
 21
7.592238
 31
0.0
  0
LINE
  5
5FD
  8
0
 10
12.924548
 20
7.592238
 30
0.0
 11
14.197129
 21
7.592238
 31
0.0
  0
LINE
  5
5FE
  8
0
 10
14.197129
 20
7.592238
 30
0.0
 11
14.371484
 21
7.592238
 31
0.0
  0
LINE
  5
5FF
  8
0
 10
14.371484
 20
7.592238
 30
0.0
 11
14.626
 21
7.592238
 31
0.0
  0
LINE
  5
600
  8
0
 10
0.575
 20
8.092238
 30
0.0
 11
0.620484
 21
8.092238
 31
0.0
  0
LINE
  5
601
  8
0
 10
0.575
 20
8.092238
 30
0.0
 11
0.620484
 21
8.092238
 31
0.0
  0
LINE
  5
602
  8
0
 10
0.620484
 20
8.092238
 30
0.0
 11
1.596977
 21
8.092238
 31
0.0
  0
LINE
  5
603
  8
0
 10
1.596977
 20
8.092238
 30
0.0
 11
1.824548
 21
8.092238
 31
0.0
  0
LINE
  5
604
  8
0
 10
1.824548
 20
8.092238
 30
0.0
 11
2.079065
 21
8.092238
 31
0.0
  0
LINE
  5
605
  8
0
 10
2.079065
 20
8.092238
 30
0.0
 11
2.124397
 21
8.092238
 31
0.0
  0
LINE
  5
606
  8
0
 10
2.124397
 20
8.092238
 30
0.0
 11
3.396977
 21
8.092238
 31
0.0
  0
LINE
  5
607
  8
0
 10
3.396977
 20
8.092238
 30
0.0
 11
3.624548
 21
8.092238
 31
0.0
  0
LINE
  5
608
  8
0
 10
3.624548
 20
8.092238
 30
0.0
 11
3.879065
 21
8.092238
 31
0.0
  0
LINE
  5
609
  8
0
 10
3.879065
 20
8.092238
 30
0.0
 11
3.924397
 21
8.092238
 31
0.0
  0
LINE
  5
60A
  8
0
 10
3.924397
 20
8.092238
 30
0.0
 11
5.196977
 21
8.092238
 31
0.0
  0
LINE
  5
60B
  8
0
 10
5.196977
 20
8.092238
 30
0.0
 11
5.424548
 21
8.092238
 31
0.0
  0
LINE
  5
60C
  8
0
 10
5.424548
 20
8.092238
 30
0.0
 11
5.679065
 21
8.092238
 31
0.0
  0
LINE
  5
60D
  8
0
 10
5.679065
 20
8.092238
 30
0.0
 11
5.724397
 21
8.092238
 31
0.0
  0
LINE
  5
60E
  8
0
 10
5.724397
 20
8.092238
 30
0.0
 11
6.996977
 21
8.092238
 31
0.0
  0
LINE
  5
60F
  8
0
 10
6.996977
 20
8.092238
 30
0.0
 11
7.224548
 21
8.092238
 31
0.0
  0
LINE
  5
610
  8
0
 10
7.224548
 20
8.092238
 30
0.0
 11
7.479065
 21
8.092238
 31
0.0
  0
LINE
  5
611
  8
0
 10
7.479065
 20
8.092238
 30
0.0
 11
7.524397
 21
8.092238
 31
0.0
  0
LINE
  5
612
  8
0
 10
7.524397
 20
8.092238
 30
0.0
 11
8.796977
 21
8.092238
 31
0.0
  0
LINE
  5
613
  8
0
 10
8.796977
 20
8.092238
 30
0.0
 11
9.024548
 21
8.092238
 31
0.0
  0
LINE
  5
614
  8
0
 10
9.024548
 20
8.092238
 30
0.0
 11
9.279065
 21
8.092238
 31
0.0
  0
LINE
  5
615
  8
0
 10
9.279065
 20
8.092238
 30
0.0
 11
9.324397
 21
8.092238
 31
0.0
  0
LINE
  5
616
  8
0
 10
9.324397
 20
8.092238
 30
0.0
 11
10.596977
 21
8.092238
 31
0.0
  0
LINE
  5
617
  8
0
 10
10.596977
 20
8.092238
 30
0.0
 11
10.824548
 21
8.092238
 31
0.0
  0
LINE
  5
618
  8
0
 10
10.824548
 20
8.092238
 30
0.0
 11
11.079065
 21
8.092238
 31
0.0
  0
LINE
  5
619
  8
0
 10
11.079065
 20
8.092238
 30
0.0
 11
11.124397
 21
8.092238
 31
0.0
  0
LINE
  5
61A
  8
0
 10
11.124397
 20
8.092238
 30
0.0
 11
12.396977
 21
8.092238
 31
0.0
  0
LINE
  5
61B
  8
0
 10
12.396977
 20
8.092238
 30
0.0
 11
12.624548
 21
8.092238
 31
0.0
  0
LINE
  5
61C
  8
0
 10
12.624548
 20
8.092238
 30
0.0
 11
12.879065
 21
8.092238
 31
0.0
  0
LINE
  5
61D
  8
0
 10
12.879065
 20
8.092238
 30
0.0
 11
12.924397
 21
8.092238
 31
0.0
  0
LINE
  5
61E
  8
0
 10
12.924397
 20
8.092238
 30
0.0
 11
14.196977
 21
8.092238
 31
0.0
  0
LINE
  5
61F
  8
0
 10
14.196977
 20
8.092238
 30
0.0
 11
14.371484
 21
8.092238
 31
0.0
  0
LINE
  5
620
  8
0
 10
14.371484
 20
8.092238
 30
0.0
 11
14.626
 21
8.092238
 31
0.0
  0
LINE
  5
621
  8
0
 10
0.56
 20
8.592238
 30
0.0
 11
0.605484
 21
8.592238
 31
0.0
  0
LINE
  5
622
  8
0
 10
0.56
 20
8.592238
 30
0.0
 11
0.605484
 21
8.592238
 31
0.0
  0
LINE
  5
623
  8
0
 10
0.605484
 20
8.592238
 30
0.0
 11
1.594703
 21
8.592238
 31
0.0
  0
LINE
  5
624
  8
0
 10
1.594703
 20
8.592238
 30
0.0
 11
1.822123
 21
8.592238
 31
0.0
  0
LINE
  5
625
  8
0
 10
1.822123
 20
8.592238
 30
0.0
 11
2.076639
 21
8.592238
 31
0.0
  0
LINE
  5
626
  8
0
 10
2.076639
 20
8.592238
 30
0.0
 11
2.122123
 21
8.592238
 31
0.0
  0
LINE
  5
627
  8
0
 10
2.122123
 20
8.592238
 30
0.0
 11
3.394703
 21
8.592238
 31
0.0
  0
LINE
  5
628
  8
0
 10
3.394703
 20
8.592238
 30
0.0
 11
3.622123
 21
8.592238
 31
0.0
  0
LINE
  5
629
  8
0
 10
3.622123
 20
8.592238
 30
0.0
 11
3.876639
 21
8.592238
 31
0.0
  0
LINE
  5
62A
  8
0
 10
3.876639
 20
8.592238
 30
0.0
 11
3.922123
 21
8.592238
 31
0.0
  0
LINE
  5
62B
  8
0
 10
3.922123
 20
8.592238
 30
0.0
 11
5.194703
 21
8.592238
 31
0.0
  0
LINE
  5
62C
  8
0
 10
5.194703
 20
8.592238
 30
0.0
 11
5.422123
 21
8.592238
 31
0.0
  0
LINE
  5
62D
  8
0
 10
5.422123
 20
8.592238
 30
0.0
 11
5.676639
 21
8.592238
 31
0.0
  0
LINE
  5
62E
  8
0
 10
5.676639
 20
8.592238
 30
0.0
 11
5.722123
 21
8.592238
 31
0.0
  0
LINE
  5
62F
  8
0
 10
5.722123
 20
8.592238
 30
0.0
 11
6.994703
 21
8.592238
 31
0.0
  0
LINE
  5
630
  8
0
 10
6.994703
 20
8.592238
 30
0.0
 11
7.222123
 21
8.592238
 31
0.0
  0
LINE
  5
631
  8
0
 10
7.222123
 20
8.592238
 30
0.0
 11
7.476639
 21
8.592238
 31
0.0
  0
LINE
  5
632
  8
0
 10
7.476639
 20
8.592238
 30
0.0
 11
7.522123
 21
8.592238
 31
0.0
  0
LINE
  5
633
  8
0
 10
7.522123
 20
8.592238
 30
0.0
 11
8.794703
 21
8.592238
 31
0.0
  0
LINE
  5
634
  8
0
 10
8.794703
 20
8.592238
 30
0.0
 11
9.022123
 21
8.592238
 31
0.0
  0
LINE
  5
635
  8
0
 10
9.022123
 20
8.592238
 30
0.0
 11
9.276639
 21
8.592238
 31
0.0
  0
LINE
  5
636
  8
0
 10
9.276639
 20
8.592238
 30
0.0
 11
9.322123
 21
8.592238
 31
0.0
  0
LINE
  5
637
  8
0
 10
9.322123
 20
8.592238
 30
0.0
 11
10.594703
 21
8.592238
 31
0.0
  0
LINE
  5
638
  8
0
 10
10.594703
 20
8.592238
 30
0.0
 11
10.822123
 21
8.592238
 31
0.0
  0
LINE
  5
639
  8
0
 10
10.822123
 20
8.592238
 30
0.0
 11
11.076639
 21
8.592238
 31
0.0
  0
LINE
  5
63A
  8
0
 10
11.076639
 20
8.592238
 30
0.0
 11
11.122123
 21
8.592238
 31
0.0
  0
LINE
  5
63B
  8
0
 10
11.122123
 20
8.592238
 30
0.0
 11
12.394703
 21
8.592238
 31
0.0
  0
LINE
  5
63C
  8
0
 10
12.394703
 20
8.592238
 30
0.0
 11
12.622123
 21
8.592238
 31
0.0
  0
LINE
  5
63D
  8
0
 10
12.622123
 20
8.592238
 30
0.0
 11
12.876639
 21
8.592238
 31
0.0
  0
LINE
  5
63E
  8
0
 10
12.876639
 20
8.592238
 30
0.0
 11
12.922123
 21
8.592238
 31
0.0
  0
LINE
  5
63F
  8
0
 10
12.922123
 20
8.592238
 30
0.0
 11
14.194703
 21
8.592238
 31
0.0
  0
LINE
  5
640
  8
0
 10
14.194703
 20
8.592238
 30
0.0
 11
14.371484
 21
8.592238
 31
0.0
  0
LINE
  5
641
  8
0
 10
14.371484
 20
8.592238
 30
0.0
 11
14.626
 21
8.592238
 31
0.0
  0
LINE
  5
642
  8
0
 10
0.545
 20
9.092238
 30
0.0
 11
0.590484
 21
9.092238
 31
0.0
  0
LINE
  5
643
  8
0
 10
0.545
 20
9.092238
 30
0.0
 11
0.590484
 21
9.092238
 31
0.0
  0
LINE
  5
644
  8
0
 10
0.590484
 20
9.092238
 30
0.0
 11
1.592429
 21
9.092238
 31
0.0
  0
LINE
  5
645
  8
0
 10
1.592429
 20
9.092238
 30
0.0
 11
1.819848
 21
9.092238
 31
0.0
  0
LINE
  5
646
  8
0
 10
1.819848
 20
9.092238
 30
0.0
 11
2.074365
 21
9.092238
 31
0.0
  0
LINE
  5
647
  8
0
 10
2.074365
 20
9.092238
 30
0.0
 11
2.119848
 21
9.092238
 31
0.0
  0
LINE
  5
648
  8
0
 10
2.119848
 20
9.092238
 30
0.0
 11
3.392429
 21
9.092238
 31
0.0
  0
LINE
  5
649
  8
0
 10
3.392429
 20
9.092238
 30
0.0
 11
3.619848
 21
9.092238
 31
0.0
  0
LINE
  5
64A
  8
0
 10
3.619848
 20
9.092238
 30
0.0
 11
3.874365
 21
9.092238
 31
0.0
  0
LINE
  5
64B
  8
0
 10
3.874365
 20
9.092238
 30
0.0
 11
3.919848
 21
9.092238
 31
0.0
  0
LINE
  5
64C
  8
0
 10
3.919848
 20
9.092238
 30
0.0
 11
5.192429
 21
9.092238
 31
0.0
  0
LINE
  5
64D
  8
0
 10
5.192429
 20
9.092238
 30
0.0
 11
5.419848
 21
9.092238
 31
0.0
  0
LINE
  5
64E
  8
0
 10
5.419848
 20
9.092238
 30
0.0
 11
5.674365
 21
9.092238
 31
0.0
  0
LINE
  5
64F
  8
0
 10
5.674365
 20
9.092238
 30
0.0
 11
5.719848
 21
9.092238
 31
0.0
  0
LINE
  5
650
  8
0
 10
5.719848
 20
9.092238
 30
0.0
 11
6.992429
 21
9.092238
 31
0.0
  0
LINE
  5
651
  8
0
 10
6.992429
 20
9.092238
 30
0.0
 11
7.219848
 21
9.092238
 31
0.0
  0
LINE
  5
652
  8
0
 10
7.219848
 20
9.092238
 30
0.0
 11
7.474365
 21
9.092238
 31
0.0
  0
LINE
  5
653
  8
0
 10
7.474365
 20
9.092238
 30
0.0
 11
7.519848
 21
9.092238
 31
0.0
  0
LINE
  5
654
  8
0
 10
7.519848
 20
9.092238
 30
0.0
 11
8.792429
 21
9.092238
 31
0.0
  0
LINE
  5
655
  8
0
 10
8.792429
 20
9.092238
 30
0.0
 11
9.019848
 21
9.092238
 31
0.0
  0
LINE
  5
656
  8
0
 10
9.019848
 20
9.092238
 30
0.0
 11
9.274365
 21
9.092238
 31
0.0
  0
LINE
  5
657
  8
0
 10
9.274365
 20
9.092238
 30
0.0
 11
9.319848
 21
9.092238
 31
0.0
  0
LINE
  5
658
  8
0
 10
9.319848
 20
9.092238
 30
0.0
 11
10.592429
 21
9.092238
 31
0.0
  0
LINE
  5
659
  8
0
 10
10.592429
 20
9.092238
 30
0.0
 11
10.819848
 21
9.092238
 31
0.0
  0
LINE
  5
65A
  8
0
 10
10.819848
 20
9.092238
 30
0.0
 11
11.074365
 21
9.092238
 31
0.0
  0
LINE
  5
65B
  8
0
 10
11.074365
 20
9.092238
 30
0.0
 11
11.119848
 21
9.092238
 31
0.0
  0
LINE
  5
65C
  8
0
 10
11.119848
 20
9.092238
 30
0.0
 11
12.392429
 21
9.092238
 31
0.0
  0
LINE
  5
65D
  8
0
 10
12.392429
 20
9.092238
 30
0.0
 11
12.619848
 21
9.092238
 31
0.0
  0
LINE
  5
65E
  8
0
 10
12.619848
 20
9.092238
 30
0.0
 11
12.874365
 21
9.092238
 31
0.0
  0
LINE
  5
65F
  8
0
 10
12.874365
 20
9.092238
 30
0.0
 11
12.919848
 21
9.092238
 31
0.0
  0
LINE
  5
660
  8
0
 10
12.919848
 20
9.092238
 30
0.0
 11
14.192429
 21
9.092238
 31
0.0
  0
LINE
  5
661
  8
0
 10
14.192429
 20
9.092238
 30
0.0
 11
14.371484
 21
9.092238
 31
0.0
  0
LINE
  5
662
  8
0
 10
14.371484
 20
9.092238
 30
0.0
 11
14.626
 21
9.092238
 31
0.0
  0
LINE
  5
663
  8
0
 10
0.529
 20
9.592238
 30
0.0
 11
0.574484
 21
9.592238
 31
0.0
  0
LINE
  5
664
  8
0
 10
0.529
 20
9.592238
 30
0.0
 11
0.574484
 21
9.592238
 31
0.0
  0
LINE
  5
665
  8
0
 10
0.574484
 20
9.592238
 30
0.0
 11
1.590003
 21
9.592238
 31
0.0
  0
LINE
  5
666
  8
0
 10
1.590003
 20
9.592238
 30
0.0
 11
1.817574
 21
9.592238
 31
0.0
  0
LINE
  5
667
  8
0
 10
1.817574
 20
9.592238
 30
0.0
 11
2.07209
 21
9.592238
 31
0.0
  0
LINE
  5
668
  8
0
 10
2.07209
 20
9.592238
 30
0.0
 11
2.117423
 21
9.592238
 31
0.0
  0
LINE
  5
669
  8
0
 10
2.117423
 20
9.592238
 30
0.0
 11
3.390003
 21
9.592238
 31
0.0
  0
LINE
  5
66A
  8
0
 10
3.390003
 20
9.592238
 30
0.0
 11
3.617574
 21
9.592238
 31
0.0
  0
LINE
  5
66B
  8
0
 10
3.617574
 20
9.592238
 30
0.0
 11
3.87209
 21
9.592238
 31
0.0
  0
LINE
  5
66C
  8
0
 10
3.87209
 20
9.592238
 30
0.0
 11
3.917423
 21
9.592238
 31
0.0
  0
LINE
  5
66D
  8
0
 10
3.917423
 20
9.592238
 30
0.0
 11
5.190003
 21
9.592238
 31
0.0
  0
LINE
  5
66E
  8
0
 10
5.190003
 20
9.592238
 30
0.0
 11
5.417574
 21
9.592238
 31
0.0
  0
LINE
  5
66F
  8
0
 10
5.417574
 20
9.592238
 30
0.0
 11
5.67209
 21
9.592238
 31
0.0
  0
LINE
  5
670
  8
0
 10
5.67209
 20
9.592238
 30
0.0
 11
5.717423
 21
9.592238
 31
0.0
  0
LINE
  5
671
  8
0
 10
5.717423
 20
9.592238
 30
0.0
 11
6.990003
 21
9.592238
 31
0.0
  0
LINE
  5
672
  8
0
 10
6.990003
 20
9.592238
 30
0.0
 11
7.217574
 21
9.592238
 31
0.0
  0
LINE
  5
673
  8
0
 10
7.217574
 20
9.592238
 30
0.0
 11
7.47209
 21
9.592238
 31
0.0
  0
LINE
  5
674
  8
0
 10
7.47209
 20
9.592238
 30
0.0
 11
7.517423
 21
9.592238
 31
0.0
  0
LINE
  5
675
  8
0
 10
7.517423
 20
9.592238
 30
0.0
 11
8.790003
 21
9.592238
 31
0.0
  0
LINE
  5
676
  8
0
 10
8.790003
 20
9.592238
 30
0.0
 11
9.017574
 21
9.592238
 31
0.0
  0
LINE
  5
677
  8
0
 10
9.017574
 20
9.592238
 30
0.0
 11
9.27209
 21
9.592238
 31
0.0
  0
LINE
  5
678
  8
0
 10
9.27209
 20
9.592238
 30
0.0
 11
9.317423
 21
9.592238
 31
0.0
  0
LINE
  5
679
  8
0
 10
9.317423
 20
9.592238
 30
0.0
 11
10.590003
 21
9.592238
 31
0.0
  0
LINE
  5
67A
  8
0
 10
10.590003
 20
9.592238
 30
0.0
 11
10.817574
 21
9.592238
 31
0.0
  0
LINE
  5
67B
  8
0
 10
10.817574
 20
9.592238
 30
0.0
 11
11.07209
 21
9.592238
 31
0.0
  0
LINE
  5
67C
  8
0
 10
11.07209
 20
9.592238
 30
0.0
 11
11.117423
 21
9.592238
 31
0.0
  0
LINE
  5
67D
  8
0
 10
11.117423
 20
9.592238
 30
0.0
 11
12.390003
 21
9.592238
 31
0.0
  0
LINE
  5
67E
  8
0
 10
12.390003
 20
9.592238
 30
0.0
 11
12.617574
 21
9.592238
 31
0.0
  0
LINE
  5
67F
  8
0
 10
12.617574
 20
9.592238
 30
0.0
 11
12.87209
 21
9.592238
 31
0.0
  0
LINE
  5
680
  8
0
 10
12.87209
 20
9.592238
 30
0.0
 11
12.917423
 21
9.592238
 31
0.0
  0
LINE
  5
681
  8
0
 10
12.917423
 20
9.592238
 30
0.0
 11
14.190003
 21
9.592238
 31
0.0
  0
LINE
  5
682
  8
0
 10
14.190003
 20
9.592238
 30
0.0
 11
14.371484
 21
9.592238
 31
0.0
  0
LINE
  5
683
  8
0
 10
14.371484
 20
9.592238
 30
0.0
 11
14.626
 21
9.592238
 31
0.0
  0
LINE
  5
684
  8
0
 10
0.514
 20
10.092238
 30
0.0
 11
0.559484
 21
10.092238
 31
0.0
  0
LINE
  5
685
  8
0
 10
0.514
 20
10.092238
 30
0.0
 11
0.559484
 21
10.092238
 31
0.0
  0
LINE
  5
686
  8
0
 10
0.559484
 20
10.092238
 30
0.0
 11
1.587729
 21
10.092238
 31
0.0
  0
LINE
  5
687
  8
0
 10
1.587729
 20
10.092238
 30
0.0
 11
1.815148
 21
10.092238
 31
0.0
  0
LINE
  5
688
  8
0
 10
1.815148
 20
10.092238
 30
0.0
 11
2.069665
 21
10.092238
 31
0.0
  0
LINE
  5
689
  8
0
 10
2.069665
 20
10.092238
 30
0.0
 11
2.115148
 21
10.092238
 31
0.0
  0
LINE
  5
68A
  8
0
 10
2.115148
 20
10.092238
 30
0.0
 11
3.387729
 21
10.092238
 31
0.0
  0
LINE
  5
68B
  8
0
 10
3.387729
 20
10.092238
 30
0.0
 11
3.615148
 21
10.092238
 31
0.0
  0
LINE
  5
68C
  8
0
 10
3.615148
 20
10.092238
 30
0.0
 11
3.869665
 21
10.092238
 31
0.0
  0
LINE
  5
68D
  8
0
 10
3.869665
 20
10.092238
 30
0.0
 11
3.915148
 21
10.092238
 31
0.0
  0
LINE
  5
68E
  8
0
 10
3.915148
 20
10.092238
 30
0.0
 11
5.187729
 21
10.092238
 31
0.0
  0
LINE
  5
68F
  8
0
 10
5.187729
 20
10.092238
 30
0.0
 11
5.415148
 21
10.092238
 31
0.0
  0
LINE
  5
690
  8
0
 10
5.415148
 20
10.092238
 30
0.0
 11
5.669665
 21
10.092238
 31
0.0
  0
LINE
  5
691
  8
0
 10
5.669665
 20
10.092238
 30
0.0
 11
5.715148
 21
10.092238
 31
0.0
  0
LINE
  5
692
  8
0
 10
5.715148
 20
10.092238
 30
0.0
 11
6.987729
 21
10.092238
 31
0.0
  0
LINE
  5
693
  8
0
 10
6.987729
 20
10.092238
 30
0.0
 11
7.215148
 21
10.092238
 31
0.0
  0
LINE
  5
694
  8
0
 10
7.215148
 20
10.092238
 30
0.0
 11
7.469665
 21
10.092238
 31
0.0
  0
LINE
  5
695
  8
0
 10
7.469665
 20
10.092238
 30
0.0
 11
7.515148
 21
10.092238
 31
0.0
  0
LINE
  5
696
  8
0
 10
7.515148
 20
10.092238
 30
0.0
 11
8.787729
 21
10.092238
 31
0.0
  0
LINE
  5
697
  8
0
 10
8.787729
 20
10.092238
 30
0.0
 11
9.015148
 21
10.092238
 31
0.0
  0
LINE
  5
698
  8
0
 10
9.015148
 20
10.092238
 30
0.0
 11
9.269665
 21
10.092238
 31
0.0
  0
LINE
  5
699
  8
0
 10
9.269665
 20
10.092238
 30
0.0
 11
9.315148
 21
10.092238
 31
0.0
  0
LINE
  5
69A
  8
0
 10
9.315148
 20
10.092238
 30
0.0
 11
10.587729
 21
10.092238
 31
0.0
  0
LINE
  5
69B
  8
0
 10
10.587729
 20
10.092238
 30
0.0
 11
10.815148
 21
10.092238
 31
0.0
  0
LINE
  5
69C
  8
0
 10
10.815148
 20
10.092238
 30
0.0
 11
11.069665
 21
10.092238
 31
0.0
  0
LINE
  5
69D
  8
0
 10
11.069665
 20
10.092238
 30
0.0
 11
11.115148
 21
10.092238
 31
0.0
  0
LINE
  5
69E
  8
0
 10
11.115148
 20
10.092238
 30
0.0
 11
12.387729
 21
10.092238
 31
0.0
  0
LINE
  5
69F
  8
0
 10
12.387729
 20
10.092238
 30
0.0
 11
12.615148
 21
10.092238
 31
0.0
  0
LINE
  5
6A0
  8
0
 10
12.615148
 20
10.092238
 30
0.0
 11
12.869665
 21
10.092238
 31
0.0
  0
LINE
  5
6A1
  8
0
 10
12.869665
 20
10.092238
 30
0.0
 11
12.915148
 21
10.092238
 31
0.0
  0
LINE
  5
6A2
  8
0
 10
12.915148
 20
10.092238
 30
0.0
 11
14.187729
 21
10.092238
 31
0.0
  0
LINE
  5
6A3
  8
0
 10
14.187729
 20
10.092238
 30
0.0
 11
14.371484
 21
10.092238
 31
0.0
  0
LINE
  5
6A4
  8
0
 10
14.371484
 20
10.092238
 30
0.0
 11
14.626
 21
10.092238
 31
0.0
  0
LINE
  5
6A5
  8
0
 10
0.499
 20
10.592238
 30
0.0
 11
0.544484
 21
10.592238
 31
0.0
  0
LINE
  5
6A6
  8
0
 10
0.499
 20
10.592238
 30
0.0
 11
0.544484
 21
10.592238
 31
0.0
  0
LINE
  5
6A7
  8
0
 10
0.544484
 20
10.592238
 30
0.0
 11
1.585455
 21
10.592238
 31
0.0
  0
LINE
  5
6A8
  8
0
 10
1.585455
 20
10.592238
 30
0.0
 11
1.812874
 21
10.592238
 31
0.0
  0
LINE
  5
6A9
  8
0
 10
1.812874
 20
10.592238
 30
0.0
 11
2.06739
 21
10.592238
 31
0.0
  0
LINE
  5
6AA
  8
0
 10
2.06739
 20
10.592238
 30
0.0
 11
2.112874
 21
10.592238
 31
0.0
  0
LINE
  5
6AB
  8
0
 10
2.112874
 20
10.592238
 30
0.0
 11
3.385455
 21
10.592238
 31
0.0
  0
LINE
  5
6AC
  8
0
 10
3.385455
 20
10.592238
 30
0.0
 11
3.612874
 21
10.592238
 31
0.0
  0
LINE
  5
6AD
  8
0
 10
3.612874
 20
10.592238
 30
0.0
 11
3.86739
 21
10.592238
 31
0.0
  0
LINE
  5
6AE
  8
0
 10
3.86739
 20
10.592238
 30
0.0
 11
3.912874
 21
10.592238
 31
0.0
  0
LINE
  5
6AF
  8
0
 10
3.912874
 20
10.592238
 30
0.0
 11
5.185455
 21
10.592238
 31
0.0
  0
LINE
  5
6B0
  8
0
 10
5.185455
 20
10.592238
 30
0.0
 11
5.412874
 21
10.592238
 31
0.0
  0
LINE
  5
6B1
  8
0
 10
5.412874
 20
10.592238
 30
0.0
 11
5.66739
 21
10.592238
 31
0.0
  0
LINE
  5
6B2
  8
0
 10
5.66739
 20
10.592238
 30
0.0
 11
5.712874
 21
10.592238
 31
0.0
  0
LINE
  5
6B3
  8
0
 10
5.712874
 20
10.592238
 30
0.0
 11
6.985455
 21
10.592238
 31
0.0
  0
LINE
  5
6B4
  8
0
 10
6.985455
 20
10.592238
 30
0.0
 11
7.212874
 21
10.592238
 31
0.0
  0
LINE
  5
6B5
  8
0
 10
7.212874
 20
10.592238
 30
0.0
 11
7.46739
 21
10.592238
 31
0.0
  0
LINE
  5
6B6
  8
0
 10
7.46739
 20
10.592238
 30
0.0
 11
7.512874
 21
10.592238
 31
0.0
  0
LINE
  5
6B7
  8
0
 10
7.512874
 20
10.592238
 30
0.0
 11
8.785455
 21
10.592238
 31
0.0
  0
LINE
  5
6B8
  8
0
 10
8.785455
 20
10.592238
 30
0.0
 11
9.012874
 21
10.592238
 31
0.0
  0
LINE
  5
6B9
  8
0
 10
9.012874
 20
10.592238
 30
0.0
 11
9.26739
 21
10.592238
 31
0.0
  0
LINE
  5
6BA
  8
0
 10
9.26739
 20
10.592238
 30
0.0
 11
9.312874
 21
10.592238
 31
0.0
  0
LINE
  5
6BB
  8
0
 10
9.312874
 20
10.592238
 30
0.0
 11
10.585455
 21
10.592238
 31
0.0
  0
LINE
  5
6BC
  8
0
 10
10.585455
 20
10.592238
 30
0.0
 11
10.812874
 21
10.592238
 31
0.0
  0
LINE
  5
6BD
  8
0
 10
10.812874
 20
10.592238
 30
0.0
 11
11.06739
 21
10.592238
 31
0.0
  0
LINE
  5
6BE
  8
0
 10
11.06739
 20
10.592238
 30
0.0
 11
11.112874
 21
10.592238
 31
0.0
  0
LINE
  5
6BF
  8
0
 10
11.112874
 20
10.592238
 30
0.0
 11
12.385455
 21
10.592238
 31
0.0
  0
LINE
  5
6C0
  8
0
 10
12.385455
 20
10.592238
 30
0.0
 11
12.612874
 21
10.592238
 31
0.0
  0
LINE
  5
6C1
  8
0
 10
12.612874
 20
10.592238
 30
0.0
 11
12.86739
 21
10.592238
 31
0.0
  0
LINE
  5
6C2
  8
0
 10
12.86739
 20
10.592238
 30
0.0
 11
12.912874
 21
10.592238
 31
0.0
  0
LINE
  5
6C3
  8
0
 10
12.912874
 20
10.592238
 30
0.0
 11
14.185455
 21
10.592238
 31
0.0
  0
LINE
  5
6C4
  8
0
 10
14.185455
 20
10.592238
 30
0.0
 11
14.371484
 21
10.592238
 31
0.0
  0
LINE
  5
6C5
  8
0
 10
14.371484
 20
10.592238
 30
0.0
 11
14.626
 21
10.592238
 31
0.0
  0
LINE
  5
6C6
  8
0
 10
0.484
 20
11.092238
 30
0.0
 11
0.529484
 21
11.092238
 31
0.0
  0
LINE
  5
6C7
  8
0
 10
0.484
 20
11.092238
 30
0.0
 11
0.529484
 21
11.092238
 31
0.0
  0
LINE
  5
6C8
  8
0
 10
0.529484
 20
11.092238
 30
0.0
 11
1.583181
 21
11.092238
 31
0.0
  0
LINE
  5
6C9
  8
0
 10
1.583181
 20
11.092238
 30
0.0
 11
1.8106
 21
11.092238
 31
0.0
  0
LINE
  5
6CA
  8
0
 10
1.8106
 20
11.092238
 30
0.0
 11
2.065116
 21
11.092238
 31
0.0
  0
LINE
  5
6CB
  8
0
 10
2.065116
 20
11.092238
 30
0.0
 11
2.1106
 21
11.092238
 31
0.0
  0
LINE
  5
6CC
  8
0
 10
2.1106
 20
11.092238
 30
0.0
 11
3.383181
 21
11.092238
 31
0.0
  0
LINE
  5
6CD
  8
0
 10
3.383181
 20
11.092238
 30
0.0
 11
3.6106
 21
11.092238
 31
0.0
  0
LINE
  5
6CE
  8
0
 10
3.6106
 20
11.092238
 30
0.0
 11
3.865116
 21
11.092238
 31
0.0
  0
LINE
  5
6CF
  8
0
 10
3.865116
 20
11.092238
 30
0.0
 11
3.9106
 21
11.092238
 31
0.0
  0
LINE
  5
6D0
  8
0
 10
3.9106
 20
11.092238
 30
0.0
 11
5.183181
 21
11.092238
 31
0.0
  0
LINE
  5
6D1
  8
0
 10
5.183181
 20
11.092238
 30
0.0
 11
5.4106
 21
11.092238
 31
0.0
  0
LINE
  5
6D2
  8
0
 10
5.4106
 20
11.092238
 30
0.0
 11
5.665116
 21
11.092238
 31
0.0
  0
LINE
  5
6D3
  8
0
 10
5.665116
 20
11.092238
 30
0.0
 11
5.7106
 21
11.092238
 31
0.0
  0
LINE
  5
6D4
  8
0
 10
5.7106
 20
11.092238
 30
0.0
 11
6.983181
 21
11.092238
 31
0.0
  0
LINE
  5
6D5
  8
0
 10
6.983181
 20
11.092238
 30
0.0
 11
7.2106
 21
11.092238
 31
0.0
  0
LINE
  5
6D6
  8
0
 10
7.2106
 20
11.092238
 30
0.0
 11
7.465116
 21
11.092238
 31
0.0
  0
LINE
  5
6D7
  8
0
 10
7.465116
 20
11.092238
 30
0.0
 11
7.5106
 21
11.092238
 31
0.0
  0
LINE
  5
6D8
  8
0
 10
7.5106
 20
11.092238
 30
0.0
 11
8.783181
 21
11.092238
 31
0.0
  0
LINE
  5
6D9
  8
0
 10
8.783181
 20
11.092238
 30
0.0
 11
9.0106
 21
11.092238
 31
0.0
  0
LINE
  5
6DA
  8
0
 10
9.0106
 20
11.092238
 30
0.0
 11
9.265116
 21
11.092238
 31
0.0
  0
LINE
  5
6DB
  8
0
 10
9.265116
 20
11.092238
 30
0.0
 11
9.3106
 21
11.092238
 31
0.0
  0
LINE
  5
6DC
  8
0
 10
9.3106
 20
11.092238
 30
0.0
 11
10.583181
 21
11.092238
 31
0.0
  0
LINE
  5
6DD
  8
0
 10
10.583181
 20
11.092238
 30
0.0
 11
10.8106
 21
11.092238
 31
0.0
  0
LINE
  5
6DE
  8
0
 10
10.8106
 20
11.092238
 30
0.0
 11
11.065116
 21
11.092238
 31
0.0
  0
LINE
  5
6DF
  8
0
 10
11.065116
 20
11.092238
 30
0.0
 11
11.1106
 21
11.092238
 31
0.0
  0
LINE
  5
6E0
  8
0
 10
11.1106
 20
11.092238
 30
0.0
 11
12.383181
 21
11.092238
 31
0.0
  0
LINE
  5
6E1
  8
0
 10
12.383181
 20
11.092238
 30
0.0
 11
12.6106
 21
11.092238
 31
0.0
  0
LINE
  5
6E2
  8
0
 10
12.6106
 20
11.092238
 30
0.0
 11
12.865116
 21
11.092238
 31
0.0
  0
LINE
  5
6E3
  8
0
 10
12.865116
 20
11.092238
 30
0.0
 11
12.9106
 21
11.092238
 31
0.0
  0
LINE
  5
6E4
  8
0
 10
12.9106
 20
11.092238
 30
0.0
 11
14.183181
 21
11.092238
 31
0.0
  0
LINE
  5
6E5
  8
0
 10
14.183181
 20
11.092238
 30
0.0
 11
14.371484
 21
11.092238
 31
0.0
  0
LINE
  5
6E6
  8
0
 10
14.371484
 20
11.092238
 30
0.0
 11
14.626
 21
11.092238
 31
0.0
  0
LINE
  5
6E7
  8
0
 10
0.468
 20
11.592238
 30
0.0
 11
0.513484
 21
11.592238
 31
0.0
  0
LINE
  5
6E8
  8
0
 10
0.468
 20
11.592238
 30
0.0
 11
0.513484
 21
11.592238
 31
0.0
  0
LINE
  5
6E9
  8
0
 10
0.513484
 20
11.592238
 30
0.0
 11
1.580755
 21
11.592238
 31
0.0
  0
LINE
  5
6EA
  8
0
 10
1.580755
 20
11.592238
 30
0.0
 11
1.808174
 21
11.592238
 31
0.0
  0
LINE
  5
6EB
  8
0
 10
1.808174
 20
11.592238
 30
0.0
 11
2.06269
 21
11.592238
 31
0.0
  0
LINE
  5
6EC
  8
0
 10
2.06269
 20
11.592238
 30
0.0
 11
2.108174
 21
11.592238
 31
0.0
  0
LINE
  5
6ED
  8
0
 10
2.108174
 20
11.592238
 30
0.0
 11
3.380755
 21
11.592238
 31
0.0
  0
LINE
  5
6EE
  8
0
 10
3.380755
 20
11.592238
 30
0.0
 11
3.608174
 21
11.592238
 31
0.0
  0
LINE
  5
6EF
  8
0
 10
3.608174
 20
11.592238
 30
0.0
 11
3.86269
 21
11.592238
 31
0.0
  0
LINE
  5
6F0
  8
0
 10
3.86269
 20
11.592238
 30
0.0
 11
3.908174
 21
11.592238
 31
0.0
  0
LINE
  5
6F1
  8
0
 10
3.908174
 20
11.592238
 30
0.0
 11
5.180755
 21
11.592238
 31
0.0
  0
LINE
  5
6F2
  8
0
 10
5.180755
 20
11.592238
 30
0.0
 11
5.408174
 21
11.592238
 31
0.0
  0
LINE
  5
6F3
  8
0
 10
5.408174
 20
11.592238
 30
0.0
 11
5.66269
 21
11.592238
 31
0.0
  0
LINE
  5
6F4
  8
0
 10
5.66269
 20
11.592238
 30
0.0
 11
5.708174
 21
11.592238
 31
0.0
  0
LINE
  5
6F5
  8
0
 10
5.708174
 20
11.592238
 30
0.0
 11
6.980755
 21
11.592238
 31
0.0
  0
LINE
  5
6F6
  8
0
 10
6.980755
 20
11.592238
 30
0.0
 11
7.208174
 21
11.592238
 31
0.0
  0
LINE
  5
6F7
  8
0
 10
7.208174
 20
11.592238
 30
0.0
 11
7.46269
 21
11.592238
 31
0.0
  0
LINE
  5
6F8
  8
0
 10
7.46269
 20
11.592238
 30
0.0
 11
7.508174
 21
11.592238
 31
0.0
  0
LINE
  5
6F9
  8
0
 10
7.508174
 20
11.592238
 30
0.0
 11
8.780755
 21
11.592238
 31
0.0
  0
LINE
  5
6FA
  8
0
 10
8.780755
 20
11.592238
 30
0.0
 11
9.008174
 21
11.592238
 31
0.0
  0
LINE
  5
6FB
  8
0
 10
9.008174
 20
11.592238
 30
0.0
 11
9.26269
 21
11.592238
 31
0.0
  0
LINE
  5
6FC
  8
0
 10
9.26269
 20
11.592238
 30
0.0
 11
9.308174
 21
11.592238
 31
0.0
  0
LINE
  5
6FD
  8
0
 10
9.308174
 20
11.592238
 30
0.0
 11
10.580755
 21
11.592238
 31
0.0
  0
LINE
  5
6FE
  8
0
 10
10.580755
 20
11.592238
 30
0.0
 11
10.808174
 21
11.592238
 31
0.0
  0
LINE
  5
6FF
  8
0
 10
10.808174
 20
11.592238
 30
0.0
 11
11.06269
 21
11.592238
 31
0.0
  0
LINE
  5
700
  8
0
 10
11.06269
 20
11.592238
 30
0.0
 11
11.108174
 21
11.592238
 31
0.0
  0
LINE
  5
701
  8
0
 10
11.108174
 20
11.592238
 30
0.0
 11
12.380755
 21
11.592238
 31
0.0
  0
LINE
  5
702
  8
0
 10
12.380755
 20
11.592238
 30
0.0
 11
12.608174
 21
11.592238
 31
0.0
  0
LINE
  5
703
  8
0
 10
12.608174
 20
11.592238
 30
0.0
 11
12.86269
 21
11.592238
 31
0.0
  0
LINE
  5
704
  8
0
 10
12.86269
 20
11.592238
 30
0.0
 11
12.908174
 21
11.592238
 31
0.0
  0
LINE
  5
705
  8
0
 10
12.908174
 20
11.592238
 30
0.0
 11
14.180755
 21
11.592238
 31
0.0
  0
LINE
  5
706
  8
0
 10
14.180755
 20
11.592238
 30
0.0
 11
14.371484
 21
11.592238
 31
0.0
  0
LINE
  5
707
  8
0
 10
14.371484
 20
11.592238
 30
0.0
 11
14.626
 21
11.592238
 31
0.0
  0
LINE
  5
708
  8
0
 10
0.453
 20
12.092238
 30
0.0
 11
0.498484
 21
12.092238
 31
0.0
  0
LINE
  5
709
  8
0
 10
0.453
 20
12.092238
 30
0.0
 11
0.498484
 21
12.092238
 31
0.0
  0
LINE
  5
70A
  8
0
 10
0.498484
 20
12.092238
 30
0.0
 11
1.578481
 21
12.092238
 31
0.0
  0
LINE
  5
70B
  8
0
 10
1.578481
 20
12.092238
 30
0.0
 11
1.8059
 21
12.092238
 31
0.0
  0
LINE
  5
70C
  8
0
 10
1.8059
 20
12.092238
 30
0.0
 11
2.060416
 21
12.092238
 31
0.0
  0
LINE
  5
70D
  8
0
 10
2.060416
 20
12.092238
 30
0.0
 11
2.1059
 21
12.092238
 31
0.0
  0
LINE
  5
70E
  8
0
 10
2.1059
 20
12.092238
 30
0.0
 11
3.378481
 21
12.092238
 31
0.0
  0
LINE
  5
70F
  8
0
 10
3.378481
 20
12.092238
 30
0.0
 11
3.6059
 21
12.092238
 31
0.0
  0
LINE
  5
710
  8
0
 10
3.6059
 20
12.092238
 30
0.0
 11
3.860416
 21
12.092238
 31
0.0
  0
LINE
  5
711
  8
0
 10
3.860416
 20
12.092238
 30
0.0
 11
3.9059
 21
12.092238
 31
0.0
  0
LINE
  5
712
  8
0
 10
3.9059
 20
12.092238
 30
0.0
 11
5.178481
 21
12.092238
 31
0.0
  0
LINE
  5
713
  8
0
 10
5.178481
 20
12.092238
 30
0.0
 11
5.4059
 21
12.092238
 31
0.0
  0
LINE
  5
714
  8
0
 10
5.4059
 20
12.092238
 30
0.0
 11
5.660416
 21
12.092238
 31
0.0
  0
LINE
  5
715
  8
0
 10
5.660416
 20
12.092238
 30
0.0
 11
5.7059
 21
12.092238
 31
0.0
  0
LINE
  5
716
  8
0
 10
5.7059
 20
12.092238
 30
0.0
 11
6.978481
 21
12.092238
 31
0.0
  0
LINE
  5
717
  8
0
 10
6.978481
 20
12.092238
 30
0.0
 11
7.2059
 21
12.092238
 31
0.0
  0
LINE
  5
718
  8
0
 10
7.2059
 20
12.092238
 30
0.0
 11
7.460416
 21
12.092238
 31
0.0
  0
LINE
  5
719
  8
0
 10
7.460416
 20
12.092238
 30
0.0
 11
7.5059
 21
12.092238
 31
0.0
  0
LINE
  5
71A
  8
0
 10
7.5059
 20
12.092238
 30
0.0
 11
8.778481
 21
12.092238
 31
0.0
  0
LINE
  5
71B
  8
0
 10
8.778481
 20
12.092238
 30
0.0
 11
9.0059
 21
12.092238
 31
0.0
  0
LINE
  5
71C
  8
0
 10
9.0059
 20
12.092238
 30
0.0
 11
9.260416
 21
12.092238
 31
0.0
  0
LINE
  5
71D
  8
0
 10
9.260416
 20
12.092238
 30
0.0
 11
9.3059
 21
12.092238
 31
0.0
  0
LINE
  5
71E
  8
0
 10
9.3059
 20
12.092238
 30
0.0
 11
10.578481
 21
12.092238
 31
0.0
  0
LINE
  5
71F
  8
0
 10
10.578481
 20
12.092238
 30
0.0
 11
10.8059
 21
12.092238
 31
0.0
  0
LINE
  5
720
  8
0
 10
10.8059
 20
12.092238
 30
0.0
 11
11.060416
 21
12.092238
 31
0.0
  0
LINE
  5
721
  8
0
 10
11.060416
 20
12.092238
 30
0.0
 11
11.1059
 21
12.092238
 31
0.0
  0
LINE
  5
722
  8
0
 10
11.1059
 20
12.092238
 30
0.0
 11
12.378481
 21
12.092238
 31
0.0
  0
LINE
  5
723
  8
0
 10
12.378481
 20
12.092238
 30
0.0
 11
12.6059
 21
12.092238
 31
0.0
  0
LINE
  5
724
  8
0
 10
12.6059
 20
12.092238
 30
0.0
 11
12.860416
 21
12.092238
 31
0.0
  0
LINE
  5
725
  8
0
 10
12.860416
 20
12.092238
 30
0.0
 11
12.9059
 21
12.092238
 31
0.0
  0
LINE
  5
726
  8
0
 10
12.9059
 20
12.092238
 30
0.0
 11
14.178481
 21
12.092238
 31
0.0
  0
LINE
  5
727
  8
0
 10
14.178481
 20
12.092238
 30
0.0
 11
14.371484
 21
12.092238
 31
0.0
  0
LINE
  5
728
  8
0
 10
14.371484
 20
12.092238
 30
0.0
 11
14.626
 21
12.092238
 31
0.0
  0
LINE
  5
729
  8
0
 10
0.438
 20
12.592238
 30
0.0
 11
0.483484
 21
12.592238
 31
0.0
  0
LINE
  5
72A
  8
0
 10
0.438
 20
12.592238
 30
0.0
 11
0.483484
 21
12.592238
 31
0.0
  0
LINE
  5
72B
  8
0
 10
0.483484
 20
12.592238
 30
0.0
 11
1.576206
 21
12.592238
 31
0.0
  0
LINE
  5
72C
  8
0
 10
1.576206
 20
12.592238
 30
0.0
 11
1.803626
 21
12.592238
 31
0.0
  0
LINE
  5
72D
  8
0
 10
1.803626
 20
12.592238
 30
0.0
 11
2.058142
 21
12.592238
 31
0.0
  0
LINE
  5
72E
  8
0
 10
2.058142
 20
12.592238
 30
0.0
 11
2.103626
 21
12.592238
 31
0.0
  0
LINE
  5
72F
  8
0
 10
2.103626
 20
12.592238
 30
0.0
 11
3.376206
 21
12.592238
 31
0.0
  0
LINE
  5
730
  8
0
 10
3.376206
 20
12.592238
 30
0.0
 11
3.603626
 21
12.592238
 31
0.0
  0
LINE
  5
731
  8
0
 10
3.603626
 20
12.592238
 30
0.0
 11
3.858142
 21
12.592238
 31
0.0
  0
LINE
  5
732
  8
0
 10
3.858142
 20
12.592238
 30
0.0
 11
3.903626
 21
12.592238
 31
0.0
  0
LINE
  5
733
  8
0
 10
3.903626
 20
12.592238
 30
0.0
 11
5.176206
 21
12.592238
 31
0.0
  0
LINE
  5
734
  8
0
 10
5.176206
 20
12.592238
 30
0.0
 11
5.403626
 21
12.592238
 31
0.0
  0
LINE
  5
735
  8
0
 10
5.403626
 20
12.592238
 30
0.0
 11
5.658142
 21
12.592238
 31
0.0
  0
LINE
  5
736
  8
0
 10
5.658142
 20
12.592238
 30
0.0
 11
5.703626
 21
12.592238
 31
0.0
  0
LINE
  5
737
  8
0
 10
5.703626
 20
12.592238
 30
0.0
 11
6.976206
 21
12.592238
 31
0.0
  0
LINE
  5
738
  8
0
 10
6.976206
 20
12.592238
 30
0.0
 11
7.203626
 21
12.592238
 31
0.0
  0
LINE
  5
739
  8
0
 10
7.203626
 20
12.592238
 30
0.0
 11
7.458142
 21
12.592238
 31
0.0
  0
LINE
  5
73A
  8
0
 10
7.458142
 20
12.592238
 30
0.0
 11
7.503626
 21
12.592238
 31
0.0
  0
LINE
  5
73B
  8
0
 10
7.503626
 20
12.592238
 30
0.0
 11
8.776206
 21
12.592238
 31
0.0
  0
LINE
  5
73C
  8
0
 10
8.776206
 20
12.592238
 30
0.0
 11
9.003626
 21
12.592238
 31
0.0
  0
LINE
  5
73D
  8
0
 10
9.003626
 20
12.592238
 30
0.0
 11
9.258142
 21
12.592238
 31
0.0
  0
LINE
  5
73E
  8
0
 10
9.258142
 20
12.592238
 30
0.0
 11
9.303626
 21
12.592238
 31
0.0
  0
LINE
  5
73F
  8
0
 10
9.303626
 20
12.592238
 30
0.0
 11
10.576206
 21
12.592238
 31
0.0
  0
LINE
  5
740
  8
0
 10
10.576206
 20
12.592238
 30
0.0
 11
10.803626
 21
12.592238
 31
0.0
  0
LINE
  5
741
  8
0
 10
10.803626
 20
12.592238
 30
0.0
 11
11.058142
 21
12.592238
 31
0.0
  0
LINE
  5
742
  8
0
 10
11.058142
 20
12.592238
 30
0.0
 11
11.103626
 21
12.592238
 31
0.0
  0
LINE
  5
743
  8
0
 10
11.103626
 20
12.592238
 30
0.0
 11
12.376206
 21
12.592238
 31
0.0
  0
LINE
  5
744
  8
0
 10
12.376206
 20
12.592238
 30
0.0
 11
12.603626
 21
12.592238
 31
0.0
  0
LINE
  5
745
  8
0
 10
12.603626
 20
12.592238
 30
0.0
 11
12.858142
 21
12.592238
 31
0.0
  0
LINE
  5
746
  8
0
 10
12.858142
 20
12.592238
 30
0.0
 11
12.903626
 21
12.592238
 31
0.0
  0
LINE
  5
747
  8
0
 10
12.903626
 20
12.592238
 30
0.0
 11
14.176206
 21
12.592238
 31
0.0
  0
LINE
  5
748
  8
0
 10
14.176206
 20
12.592238
 30
0.0
 11
14.371484
 21
12.592238
 31
0.0
  0
LINE
  5
749
  8
0
 10
14.371484
 20
12.592238
 30
0.0
 11
14.626
 21
12.592238
 31
0.0
  0
LINE
  5
74A
  8
0
 10
0.451
 20
13.092238
 30
0.0
 11
0.496484
 21
13.092238
 31
0.0
  0
LINE
  5
74B
  8
0
 10
0.451
 20
13.092238
 30
0.0
 11
0.496484
 21
13.092238
 31
0.0
  0
LINE
  5
74C
  8
0
 10
0.496484
 20
13.092238
 30
0.0
 11
1.578177
 21
13.092238
 31
0.0
  0
LINE
  5
74D
  8
0
 10
1.578177
 20
13.092238
 30
0.0
 11
1.805597
 21
13.092238
 31
0.0
  0
LINE
  5
74E
  8
0
 10
1.805597
 20
13.092238
 30
0.0
 11
2.060113
 21
13.092238
 31
0.0
  0
LINE
  5
74F
  8
0
 10
2.060113
 20
13.092238
 30
0.0
 11
2.105597
 21
13.092238
 31
0.0
  0
LINE
  5
750
  8
0
 10
2.105597
 20
13.092238
 30
0.0
 11
3.378177
 21
13.092238
 31
0.0
  0
LINE
  5
751
  8
0
 10
3.378177
 20
13.092238
 30
0.0
 11
3.605597
 21
13.092238
 31
0.0
  0
LINE
  5
752
  8
0
 10
3.605597
 20
13.092238
 30
0.0
 11
3.860113
 21
13.092238
 31
0.0
  0
LINE
  5
753
  8
0
 10
3.860113
 20
13.092238
 30
0.0
 11
3.905597
 21
13.092238
 31
0.0
  0
LINE
  5
754
  8
0
 10
3.905597
 20
13.092238
 30
0.0
 11
5.178177
 21
13.092238
 31
0.0
  0
LINE
  5
755
  8
0
 10
5.178177
 20
13.092238
 30
0.0
 11
5.405597
 21
13.092238
 31
0.0
  0
LINE
  5
756
  8
0
 10
5.405597
 20
13.092238
 30
0.0
 11
5.660113
 21
13.092238
 31
0.0
  0
LINE
  5
757
  8
0
 10
5.660113
 20
13.092238
 30
0.0
 11
5.705597
 21
13.092238
 31
0.0
  0
LINE
  5
758
  8
0
 10
5.705597
 20
13.092238
 30
0.0
 11
6.978177
 21
13.092238
 31
0.0
  0
LINE
  5
759
  8
0
 10
6.978177
 20
13.092238
 30
0.0
 11
7.205597
 21
13.092238
 31
0.0
  0
LINE
  5
75A
  8
0
 10
7.205597
 20
13.092238
 30
0.0
 11
7.460113
 21
13.092238
 31
0.0
  0
LINE
  5
75B
  8
0
 10
7.460113
 20
13.092238
 30
0.0
 11
7.505597
 21
13.092238
 31
0.0
  0
LINE
  5
75C
  8
0
 10
7.505597
 20
13.092238
 30
0.0
 11
8.778177
 21
13.092238
 31
0.0
  0
LINE
  5
75D
  8
0
 10
8.778177
 20
13.092238
 30
0.0
 11
9.005597
 21
13.092238
 31
0.0
  0
LINE
  5
75E
  8
0
 10
9.005597
 20
13.092238
 30
0.0
 11
9.260113
 21
13.092238
 31
0.0
  0
LINE
  5
75F
  8
0
 10
9.260113
 20
13.092238
 30
0.0
 11
9.305597
 21
13.092238
 31
0.0
  0
LINE
  5
760
  8
0
 10
9.305597
 20
13.092238
 30
0.0
 11
10.578177
 21
13.092238
 31
0.0
  0
LINE
  5
761
  8
0
 10
10.578177
 20
13.092238
 30
0.0
 11
10.805597
 21
13.092238
 31
0.0
  0
LINE
  5
762
  8
0
 10
10.805597
 20
13.092238
 30
0.0
 11
11.060113
 21
13.092238
 31
0.0
  0
LINE
  5
763
  8
0
 10
11.060113
 20
13.092238
 30
0.0
 11
11.105597
 21
13.092238
 31
0.0
  0
LINE
  5
764
  8
0
 10
11.105597
 20
13.092238
 30
0.0
 11
12.378177
 21
13.092238
 31
0.0
  0
LINE
  5
765
  8
0
 10
12.378177
 20
13.092238
 30
0.0
 11
12.605597
 21
13.092238
 31
0.0
  0
LINE
  5
766
  8
0
 10
12.605597
 20
13.092238
 30
0.0
 11
12.860113
 21
13.092238
 31
0.0
  0
LINE
  5
767
  8
0
 10
12.860113
 20
13.092238
 30
0.0
 11
12.905597
 21
13.092238
 31
0.0
  0
LINE
  5
768
  8
0
 10
12.905597
 20
13.092238
 30
0.0
 11
14.178177
 21
13.092238
 31
0.0
  0
LINE
  5
769
  8
0
 10
14.178177
 20
13.092238
 30
0.0
 11
14.371484
 21
13.092238
 31
0.0
  0
LINE
  5
76A
  8
0
 10
14.371484
 20
13.092238
 30
0.0
 11
14.626
 21
13.092238
 31
0.0
  0
LINE
  5
76B
  8
0
 10
0.511
 20
13.592238
 30
0.0
 11
0.556484
 21
13.592238
 31
0.0
  0
LINE
  5
76C
  8
0
 10
0.511
 20
13.592238
 30
0.0
 11
0.556484
 21
13.592238
 31
0.0
  0
LINE
  5
76D
  8
0
 10
0.556484
 20
13.592238
 30
0.0
 11
1.587274
 21
13.592238
 31
0.0
  0
LINE
  5
76E
  8
0
 10
1.587274
 20
13.592238
 30
0.0
 11
1.814694
 21
13.592238
 31
0.0
  0
LINE
  5
76F
  8
0
 10
1.814694
 20
13.592238
 30
0.0
 11
2.06921
 21
13.592238
 31
0.0
  0
LINE
  5
770
  8
0
 10
2.06921
 20
13.592238
 30
0.0
 11
2.114694
 21
13.592238
 31
0.0
  0
LINE
  5
771
  8
0
 10
2.114694
 20
13.592238
 30
0.0
 11
3.387274
 21
13.592238
 31
0.0
  0
LINE
  5
772
  8
0
 10
3.387274
 20
13.592238
 30
0.0
 11
3.614694
 21
13.592238
 31
0.0
  0
LINE
  5
773
  8
0
 10
3.614694
 20
13.592238
 30
0.0
 11
3.86921
 21
13.592238
 31
0.0
  0
LINE
  5
774
  8
0
 10
3.86921
 20
13.592238
 30
0.0
 11
3.914694
 21
13.592238
 31
0.0
  0
LINE
  5
775
  8
0
 10
3.914694
 20
13.592238
 30
0.0
 11
5.187274
 21
13.592238
 31
0.0
  0
LINE
  5
776
  8
0
 10
5.187274
 20
13.592238
 30
0.0
 11
5.414694
 21
13.592238
 31
0.0
  0
LINE
  5
777
  8
0
 10
5.414694
 20
13.592238
 30
0.0
 11
5.66921
 21
13.592238
 31
0.0
  0
LINE
  5
778
  8
0
 10
5.66921
 20
13.592238
 30
0.0
 11
5.714694
 21
13.592238
 31
0.0
  0
LINE
  5
779
  8
0
 10
5.714694
 20
13.592238
 30
0.0
 11
6.987274
 21
13.592238
 31
0.0
  0
LINE
  5
77A
  8
0
 10
6.987274
 20
13.592238
 30
0.0
 11
7.214694
 21
13.592238
 31
0.0
  0
LINE
  5
77B
  8
0
 10
7.214694
 20
13.592238
 30
0.0
 11
7.46921
 21
13.592238
 31
0.0
  0
LINE
  5
77C
  8
0
 10
7.46921
 20
13.592238
 30
0.0
 11
7.514694
 21
13.592238
 31
0.0
  0
LINE
  5
77D
  8
0
 10
7.514694
 20
13.592238
 30
0.0
 11
8.787274
 21
13.592238
 31
0.0
  0
LINE
  5
77E
  8
0
 10
8.787274
 20
13.592238
 30
0.0
 11
9.014694
 21
13.592238
 31
0.0
  0
LINE
  5
77F
  8
0
 10
9.014694
 20
13.592238
 30
0.0
 11
9.26921
 21
13.592238
 31
0.0
  0
LINE
  5
780
  8
0
 10
9.26921
 20
13.592238
 30
0.0
 11
9.314694
 21
13.592238
 31
0.0
  0
LINE
  5
781
  8
0
 10
9.314694
 20
13.592238
 30
0.0
 11
10.587274
 21
13.592238
 31
0.0
  0
LINE
  5
782
  8
0
 10
10.587274
 20
13.592238
 30
0.0
 11
10.814694
 21
13.592238
 31
0.0
  0
LINE
  5
783
  8
0
 10
10.814694
 20
13.592238
 30
0.0
 11
11.06921
 21
13.592238
 31
0.0
  0
LINE
  5
784
  8
0
 10
11.06921
 20
13.592238
 30
0.0
 11
11.114694
 21
13.592238
 31
0.0
  0
LINE
  5
785
  8
0
 10
11.114694
 20
13.592238
 30
0.0
 11
12.387274
 21
13.592238
 31
0.0
  0
LINE
  5
786
  8
0
 10
12.387274
 20
13.592238
 30
0.0
 11
12.614694
 21
13.592238
 31
0.0
  0
LINE
  5
787
  8
0
 10
12.614694
 20
13.592238
 30
0.0
 11
12.86921
 21
13.592238
 31
0.0
  0
LINE
  5
788
  8
0
 10
12.86921
 20
13.592238
 30
0.0
 11
12.914694
 21
13.592238
 31
0.0
  0
LINE
  5
789
  8
0
 10
12.914694
 20
13.592238
 30
0.0
 11
14.187274
 21
13.592238
 31
0.0
  0
LINE
  5
78A
  8
0
 10
14.187274
 20
13.592238
 30
0.0
 11
14.371484
 21
13.592238
 31
0.0
  0
LINE
  5
78B
  8
0
 10
14.371484
 20
13.592238
 30
0.0
 11
14.626
 21
13.592238
 31
0.0
  0
LINE
  5
78C
  8
0
 10
0.654
 20
14.092238
 30
0.0
 11
0.699484
 21
14.092238
 31
0.0
  0
LINE
  5
78D
  8
0
 10
0.654
 20
14.092238
 30
0.0
 11
0.699484
 21
14.092238
 31
0.0
  0
LINE
  5
78E
  8
0
 10
0.699484
 20
14.092238
 30
0.0
 11
1.608955
 21
14.092238
 31
0.0
  0
LINE
  5
78F
  8
0
 10
1.608955
 20
14.092238
 30
0.0
 11
1.836374
 21
14.092238
 31
0.0
  0
LINE
  5
790
  8
0
 10
1.836374
 20
14.092238
 30
0.0
 11
2.09089
 21
14.092238
 31
0.0
  0
LINE
  5
791
  8
0
 10
2.09089
 20
14.092238
 30
0.0
 11
2.136374
 21
14.092238
 31
0.0
  0
LINE
  5
792
  8
0
 10
2.136374
 20
14.092238
 30
0.0
 11
3.408955
 21
14.092238
 31
0.0
  0
LINE
  5
793
  8
0
 10
3.408955
 20
14.092238
 30
0.0
 11
3.636374
 21
14.092238
 31
0.0
  0
LINE
  5
794
  8
0
 10
3.636374
 20
14.092238
 30
0.0
 11
3.89089
 21
14.092238
 31
0.0
  0
LINE
  5
795
  8
0
 10
3.89089
 20
14.092238
 30
0.0
 11
3.936374
 21
14.092238
 31
0.0
  0
LINE
  5
796
  8
0
 10
3.936374
 20
14.092238
 30
0.0
 11
5.208955
 21
14.092238
 31
0.0
  0
LINE
  5
797
  8
0
 10
5.208955
 20
14.092238
 30
0.0
 11
5.436374
 21
14.092238
 31
0.0
  0
LINE
  5
798
  8
0
 10
5.436374
 20
14.092238
 30
0.0
 11
5.69089
 21
14.092238
 31
0.0
  0
LINE
  5
799
  8
0
 10
5.69089
 20
14.092238
 30
0.0
 11
5.736374
 21
14.092238
 31
0.0
  0
LINE
  5
79A
  8
0
 10
5.736374
 20
14.092238
 30
0.0
 11
7.008955
 21
14.092238
 31
0.0
  0
LINE
  5
79B
  8
0
 10
7.008955
 20
14.092238
 30
0.0
 11
7.236374
 21
14.092238
 31
0.0
  0
LINE
  5
79C
  8
0
 10
7.236374
 20
14.092238
 30
0.0
 11
7.49089
 21
14.092238
 31
0.0
  0
LINE
  5
79D
  8
0
 10
7.49089
 20
14.092238
 30
0.0
 11
7.536374
 21
14.092238
 31
0.0
  0
LINE
  5
79E
  8
0
 10
7.536374
 20
14.092238
 30
0.0
 11
8.808955
 21
14.092238
 31
0.0
  0
LINE
  5
79F
  8
0
 10
8.808955
 20
14.092238
 30
0.0
 11
9.036374
 21
14.092238
 31
0.0
  0
LINE
  5
7A0
  8
0
 10
9.036374
 20
14.092238
 30
0.0
 11
9.29089
 21
14.092238
 31
0.0
  0
LINE
  5
7A1
  8
0
 10
9.29089
 20
14.092238
 30
0.0
 11
9.336374
 21
14.092238
 31
0.0
  0
LINE
  5
7A2
  8
0
 10
9.336374
 20
14.092238
 30
0.0
 11
10.608955
 21
14.092238
 31
0.0
  0
LINE
  5
7A3
  8
0
 10
10.608955
 20
14.092238
 30
0.0
 11
10.836374
 21
14.092238
 31
0.0
  0
LINE
  5
7A4
  8
0
 10
10.836374
 20
14.092238
 30
0.0
 11
11.09089
 21
14.092238
 31
0.0
  0
LINE
  5
7A5
  8
0
 10
11.09089
 20
14.092238
 30
0.0
 11
11.136374
 21
14.092238
 31
0.0
  0
LINE
  5
7A6
  8
0
 10
11.136374
 20
14.092238
 30
0.0
 11
12.408955
 21
14.092238
 31
0.0
  0
LINE
  5
7A7
  8
0
 10
12.408955
 20
14.092238
 30
0.0
 11
12.636374
 21
14.092238
 31
0.0
  0
LINE
  5
7A8
  8
0
 10
12.636374
 20
14.092238
 30
0.0
 11
12.89089
 21
14.092238
 31
0.0
  0
LINE
  5
7A9
  8
0
 10
12.89089
 20
14.092238
 30
0.0
 11
12.936374
 21
14.092238
 31
0.0
  0
LINE
  5
7AA
  8
0
 10
12.936374
 20
14.092238
 30
0.0
 11
14.208955
 21
14.092238
 31
0.0
  0
LINE
  5
7AB
  8
0
 10
14.208955
 20
14.092238
 30
0.0
 11
14.371484
 21
14.092238
 31
0.0
  0
LINE
  5
7AC
  8
0
 10
14.371484
 20
14.092238
 30
0.0
 11
14.626
 21
14.092238
 31
0.0
  0
LINE
  5
7AD
  8
0
 10
1.221
 20
14.592238
 30
0.0
 11
1.266484
 21
14.592238
 31
0.0
  0
LINE
  5
7AE
  8
0
 10
1.221
 20
14.592238
 30
0.0
 11
1.266484
 21
14.592238
 31
0.0
  0
LINE
  5
7AF
  8
0
 10
1.266484
 20
14.592238
 30
0.0
 11
1.694919
 21
14.592238
 31
0.0
  0
LINE
  5
7B0
  8
0
 10
1.694919
 20
14.592238
 30
0.0
 11
1.949435
 21
14.592238
 31
0.0
  0
LINE
  5
7B1
  8
0
 10
1.949435
 20
14.592238
 30
0.0
 11
2.176855
 21
14.592238
 31
0.0
  0
LINE
  5
7B2
  8
0
 10
2.176855
 20
14.592238
 30
0.0
 11
3.449435
 21
14.592238
 31
0.0
  0
LINE
  5
7B3
  8
0
 10
3.449435
 20
14.592238
 30
0.0
 11
3.494919
 21
14.592238
 31
0.0
  0
LINE
  5
7B4
  8
0
 10
3.494919
 20
14.592238
 30
0.0
 11
3.749435
 21
14.592238
 31
0.0
  0
LINE
  5
7B5
  8
0
 10
3.749435
 20
14.592238
 30
0.0
 11
3.976855
 21
14.592238
 31
0.0
  0
LINE
  5
7B6
  8
0
 10
3.976855
 20
14.592238
 30
0.0
 11
5.249435
 21
14.592238
 31
0.0
  0
LINE
  5
7B7
  8
0
 10
5.249435
 20
14.592238
 30
0.0
 11
5.294919
 21
14.592238
 31
0.0
  0
LINE
  5
7B8
  8
0
 10
5.294919
 20
14.592238
 30
0.0
 11
5.549435
 21
14.592238
 31
0.0
  0
LINE
  5
7B9
  8
0
 10
5.549435
 20
14.592238
 30
0.0
 11
5.678003
 21
14.592238
 31
0.0
  0
LINE
  5
7BA
  8
0
 10
5.678003
 20
14.592238
 30
0.0
 11
5.723487
 21
14.592238
 31
0.0
  0
LINE
  5
7BB
  8
0
 10
5.723487
 20
14.592238
 30
0.0
 11
6.996068
 21
14.592238
 31
0.0
  0
LINE
  5
7BC
  8
0
 10
6.996068
 20
14.592238
 30
0.0
 11
7.223487
 21
14.592238
 31
0.0
  0
LINE
  5
7BD
  8
0
 10
7.223487
 20
14.592238
 30
0.0
 11
7.478003
 21
14.592238
 31
0.0
  0
LINE
  5
7BE
  8
0
 10
7.478003
 20
14.592238
 30
0.0
 11
7.523487
 21
14.592238
 31
0.0
  0
LINE
  5
7BF
  8
0
 10
7.523487
 20
14.592238
 30
0.0
 11
8.796068
 21
14.592238
 31
0.0
  0
LINE
  5
7C0
  8
0
 10
8.796068
 20
14.592238
 30
0.0
 11
9.023487
 21
14.592238
 31
0.0
  0
LINE
  5
7C1
  8
0
 10
9.023487
 20
14.592238
 30
0.0
 11
9.278003
 21
14.592238
 31
0.0
  0
LINE
  5
7C2
  8
0
 10
9.278003
 20
14.592238
 30
0.0
 11
9.323487
 21
14.592238
 31
0.0
  0
LINE
  5
7C3
  8
0
 10
9.323487
 20
14.592238
 30
0.0
 11
10.596068
 21
14.592238
 31
0.0
  0
LINE
  5
7C4
  8
0
 10
10.596068
 20
14.592238
 30
0.0
 11
10.823487
 21
14.592238
 31
0.0
  0
LINE
  5
7C5
  8
0
 10
10.823487
 20
14.592238
 30
0.0
 11
11.078003
 21
14.592238
 31
0.0
  0
LINE
  5
7C6
  8
0
 10
11.078003
 20
14.592238
 30
0.0
 11
11.123487
 21
14.592238
 31
0.0
  0
LINE
  5
7C7
  8
0
 10
11.123487
 20
14.592238
 30
0.0
 11
12.396068
 21
14.592238
 31
0.0
  0
LINE
  5
7C8
  8
0
 10
12.396068
 20
14.592238
 30
0.0
 11
12.623487
 21
14.592238
 31
0.0
  0
LINE
  5
7C9
  8
0
 10
12.623487
 20
14.592238
 30
0.0
 11
12.878003
 21
14.592238
 31
0.0
  0
LINE
  5
7CA
  8
0
 10
12.878003
 20
14.592238
 30
0.0
 11
12.923487
 21
14.592238
 31
0.0
  0
LINE
  5
7CB
  8
0
 10
12.923487
 20
14.592238
 30
0.0
 11
14.196068
 21
14.592238
 31
0.0
  0
LINE
  5
7CC
  8
0
 10
14.196068
 20
14.592238
 30
0.0
 11
14.371484
 21
14.592238
 31
0.0
  0
LINE
  5
7CD
  8
0
 10
14.371484
 20
14.592238
 30
0.0
 11
14.626
 21
14.592238
 31
0.0
  0
ENDSEC
  0
EOF
