  0
SECTION
  2
HEADER
  9
$ACADVER
  1
AC1009
  9
$DWGCODEPAGE
  3
ANSI_1252
  9
$INSBASE
 10
0.0
 20
0.0
 30
0.0
  9
$EXTMIN
 10
1e+20
 20
1e+20
 30
1e+20
  9
$EXTMAX
 10
-1e+20
 20
-1e+20
 30
-1e+20
  9
$LIMMIN
 10
0.0
 20
0.0
  9
$LIMMAX
 10
420.0
 20
297.0
  9
$ORTHOMODE
 70
0
  9
$REGENMODE
 70
1
  9
$FILLMODE
 70
1
  9
$DRAGMODE
 70
2
  9
$QTEXTMODE
 70
0
  9
$MIRRTEXT
 70
1
  9
$OSMODE
 70
20583
  9
$LTSCALE
 40
1.0
  9
$ATTMODE
 70
1
  9
$TEXTSIZE
 40
2.5
  9
$TRACEWID
 40
1.0
  9
$TEXTSTYLE
  7
Standard
  9
$CLAYER
  8
0
  9
$CELTYPE
  6
ByLayer
  9
$CECOLOR
 62
256
  9
$DIMSCALE
 40
1.0
  9
$DIMASZ
 40
2.5
  9
$DIMEXO
 40
0.625
  9
$DIMDLI
 40
3.75
  9
$DIMRND
 40
0.0
  9
$DIMDLE
 40
0.0
  9
$DIMEXE
 40
1.25
  9
$DIMTP
 40
0.0
  9
$DIMTM
 40
0.0
  9
$DIMTXT
 40
2.5
  9
$DIMCEN
 40
2.5
  9
$DIMTSZ
 40
0.0
  9
$DIMTOL
 70
0
  9
$DIMLIM
 70
0
  9
$DIMTIH
 70
0
  9
$DIMTOH
 70
0
  9
$DIMSE1
 70
0
  9
$DIMSE2
 70
0
  9
$DIMTAD
 70
1
  9
$DIMZIN
 70
8
  9
$DIMBLK
  1

  9
$DIMASO
 70
1
  9
$DIMSHO
 70
1
  9
$DIMPOST
  1

  9
$DIMAPOST
  1

  9
$DIMALT
 70
0
  9
$DIMALTD
 70
3
  9
$DIMALTF
 40
0.03937007874
  9
$DIMLFAC
 40
1.0
  9
$DIMTOFL
 70
1
  9
$DIMTVP
 40
0.0
  9
$DIMTIX
 70
0
  9
$DIMSOXD
 70
0
  9
$DIMSAH
 70
0
  9
$DIMBLK1
  1

  9
$DIMBLK2
  1

  9
$DIMSTYLE
  2
ISO-25
  9
$DIMCLRD
 70
0
  9
$DIMCLRE
 70
0
  9
$DIMCLRT
 70
0
  9
$DIMTFAC
 40
1.0
  9
$DIMGAP
 40
0.625
  9
$COORDS
 70
1
  9
$ATTDIA
 70
0
  9
$ATTREQ
 70
1
  9
$HANDLING
 70
1
  9
$LUNITS
 70
2
  9
$LUPREC
 70
4
  9
$SKETCHINC
 40
1.0
  9
$FILLETRAD
 40
10.0
  9
$AUNITS
 70
0
  9
$AUPREC
 70
2
  9
$MENU
  1
.
  9
$ELEVATION
 40
0.0
  9
$PELEVATION
 40
0.0
  9
$THICKNESS
 40
0.0
  9
$LIMCHECK
 70
0
  9
$CHAMFERA
 40
0.0
  9
$CHAMFERB
 40
0.0
  9
$SKPOLY
 70
0
  9
$TDCREATE
 40
2460888.3945717593
  9
$TDUPDATE
 40
2460888.3945717593
  9
$TDINDWG
 40
0.0
  9
$TDUSRTIMER
 40
0.0
  9
$USRTIMER
 70
1
  9
$ANGBASE
 50
0.0
  9
$ANGDIR
 70
0
  9
$PDMODE
 70
0
  9
$PDSIZE
 40
0.0
  9
$PLINEWID
 40
0.0
  9
$SPLFRAME
 70
0
  9
$SPLINETYPE
 70
6
  9
$SPLINESEGS
 70
8
  9
$HANDSEED
  5
7D0
  9
$SURFTAB1
 70
6
  9
$SURFTAB2
 70
6
  9
$SURFTYPE
 70
6
  9
$SURFU
 70
6
  9
$SURFV
 70
6
  9
$UCSNAME
  2

  9
$UCSORG
 10
0.0
 20
0.0
 30
0.0
  9
$UCSXDIR
 10
1.0
 20
0.0
 30
0.0
  9
$UCSYDIR
 10
0.0
 20
1.0
 30
0.0
  9
$PUCSNAME
  2

  9
$PUCSORG
 10
0.0
 20
0.0
 30
0.0
  9
$PUCSXDIR
 10
1.0
 20
0.0
 30
0.0
  9
$PUCSYDIR
 10
0.0
 20
1.0
 30
0.0
  9
$USERI1
 70
0
  9
$USERI2
 70
0
  9
$USERI3
 70
0
  9
$USERI4
 70
0
  9
$USERI5
 70
0
  9
$USERR1
 40
0.0
  9
$USERR2
 40
0.0
  9
$USERR3
 40
0.0
  9
$USERR4
 40
0.0
  9
$USERR5
 40
0.0
  9
$WORLDVIEW
 70
1
  9
$SHADEDGE
 70
3
  9
$SHADEDIF
 70
70
  9
$TILEMODE
 70
1
  9
$MAXACTVP
 70
64
  9
$PLIMCHECK
 70
0
  9
$PEXTMIN
 10
1e+20
 20
1e+20
 30
1e+20
  9
$PEXTMAX
 10
-1e+20
 20
-1e+20
 30
-1e+20
  9
$PLIMMIN
 10
0.0
 20
0.0
  9
$PLIMMAX
 10
420.0
 20
297.0
  9
$UNITMODE
 70
0
  9
$VISRETAIN
 70
1
  9
$PLINEGEN
 70
0
  9
$PSLTSCALE
 70
1
  0
ENDSEC
  0
SECTION
  2
TABLES
  0
TABLE
  2
VPORT
 70
1
  0
VPORT
  5
23
  2
*Active
 70
0
 10
0.0
 20
0.0
 11
1.0
 21
1.0
 12
0.0
 22
0.0
 13
0.0
 23
0.0
 14
0.5
 24
0.5
 15
0.5
 25
0.5
 16
0.0
 26
0.0
 36
1.0
 17
0.0
 27
0.0
 37
0.0
 40
1000.0
 41
1.34
 42
50.0
 43
0.0
 44
0.0
 50
0.0
 51
0.0
 71
0
 72
1000
 73
1
 74
3
 75
0
 76
0
 77
0
 78
0
  0
ENDTAB
  0
TABLE
  2
LTYPE
 70
3
  0
LTYPE
  5
24
  2
ByBlock
 70
0
  3

 72
65
 73
0
 40
0.0
  0
LTYPE
  5
25
  2
ByLayer
 70
0
  3

 72
65
 73
0
 40
0.0
  0
LTYPE
  5
26
  2
Continuous
 70
0
  3

 72
65
 73
0
 40
0.0
  0
ENDTAB
  0
TABLE
  2
LAYER
 70
2
  0
LAYER
  5
27
  2
0
 70
0
 62
7
  6
Continuous
  0
LAYER
  5
28
  2
Defpoints
 70
0
 62
7
  6
Continuous
  0
ENDTAB
  0
TABLE
  2
STYLE
 70
1
  0
STYLE
  5
29
  2
Standard
 70
0
 40
0.0
 41
1.0
 50
0.0
 71
0
 42
2.5
  3
txt
  4

  0
ENDTAB
  0
TABLE
  2
VIEW
 70
0
  0
ENDTAB
  0
TABLE
  2
UCS
 70
0
  0
ENDTAB
  0
TABLE
  2
APPID
 70
3
  0
APPID
  5
2A
  2
ACAD
 70
0
  0
APPID
  5
7CE
  2
HATCHBACKGROUNDCOLOR
 70
0
  0
APPID
  5
7CF
  2
EZDXF
 70
0
  0
ENDTAB
  0
TABLE
  2
DIMSTYLE
 70
1
  0
DIMSTYLE
105
2B
  2
Standard
 70
0
  3

  4

  5

  6

  7

 40
1.0
 41
2.5
 42
0.625
 43
3.75
 44
1.25
 45
0.0
 46
0.0
 47
0.0
 48
0.0
140
2.5
141
2.5
142
0.0
143
0.03937007874
144
1.0
145
0.0
146
1.0
147
0.625
 71
0
 72
0
 73
0
 74
0
 75
0
 76
0
 77
1
 78
8
170
0
171
3
172
1
173
0
174
0
175
0
176
0
177
0
178
0
  0
ENDTAB
  0
ENDSEC
  0
SECTION
  2
BLOCKS
  0
BLOCK
  5
18
  8
0
  2
$Model_Space
 70
0
 10
0.0
 20
0.0
 30
0.0
  3
$Model_Space
  1

1001
EZDXF
1000
CREATED_BY_EZDXF
1000
1.4.2 @ 2025-07-31T12:28:11.446372+00:00
1000
WRITTEN_BY_EZDXF
1000
1.4.2 @ 2025-07-31T12:28:11.540121+00:00
  0
ENDBLK
  5
19
  8
0
  0
BLOCK
  5
1C
  8
0
  2
$Paper_Space
 70
0
 10
0.0
 20
0.0
 30
0.0
  3
$Paper_Space
  1

  0
ENDBLK
  5
1D
  8
0
  0
ENDSEC
  0
SECTION
  2
ENTITIES
  0
LINE
  5
2D
  8
0
 10
2.489714
 20
0.433699
 30
0.0
 11
7.170566
 21
0.581684
 31
0.0
  0
LINE
  5
2E
  8
0
 10
7.170566
 20
0.581684
 30
0.0
 11
12.879637
 21
0.44782
 31
0.0
  0
LINE
  5
2F
  8
0
 10
12.879637
 20
0.44782
 30
0.0
 11
13.938792
 21
0.595214
 31
0.0
  0
LINE
  5
30
  8
0
 10
13.938792
 20
0.595214
 30
0.0
 11
14.376038
 21
0.881558
 31
0.0
  0
LINE
  5
31
  8
0
 10
14.376038
 20
0.881558
 30
0.0
 11
14.641812
 21
1.416369
 31
0.0
  0
LINE
  5
32
  8
0
 10
14.641812
 20
1.416369
 30
0.0
 11
14.745617
 21
2.413857
 31
0.0
  0
LINE
  5
33
  8
0
 10
14.745617
 20
2.413857
 30
0.0
 11
14.621909
 21
14.593364
 31
0.0
  0
LINE
  5
34
  8
0
 10
14.621909
 20
14.593364
 30
0.0
 11
2.40999
 21
14.747916
 31
0.0
  0
LINE
  5
35
  8
0
 10
2.40999
 20
14.747916
 30
0.0
 11
1.487248
 21
14.667413
 31
0.0
  0
LINE
  5
36
  8
0
 10
1.487248
 20
14.667413
 30
0.0
 11
0.805868
 21
14.323494
 31
0.0
  0
LINE
  5
37
  8
0
 10
0.805868
 20
14.323494
 30
0.0
 11
0.533327
 21
13.689837
 31
0.0
  0
LINE
  5
38
  8
0
 10
0.533327
 20
13.689837
 30
0.0
 11
0.435457
 21
12.688842
 31
0.0
  0
LINE
  5
39
  8
0
 10
0.435457
 20
12.688842
 30
0.0
 11
0.57886
 21
7.814961
 31
0.0
  0
LINE
  5
3A
  8
0
 10
0.57886
 20
7.814961
 30
0.0
 11
0.470307
 21
1.979565
 31
0.0
  0
LINE
  5
3B
  8
0
 10
0.470307
 20
1.979565
 30
0.0
 11
0.588383
 21
1.266476
 31
0.0
  0
LINE
  5
3C
  8
0
 10
0.588383
 20
1.266476
 30
0.0
 11
0.97825
 21
0.718585
 31
0.0
  0
LINE
  5
3D
  8
0
 10
0.97825
 20
0.718585
 30
0.0
 11
2.489714
 21
0.433699
 31
0.0
  0
LINE
  5
3E
  8
0
 10
2.489714
 20
0.433699
 30
0.0
 11
2.489714
 21
0.433699
 31
0.0
  0
LINE
  5
3F
  8
0
 10
2.489714
 20
0.433699
 30
0.0
 11
7.170566
 21
0.581684
 31
0.0
  0
LINE
  5
40
  8
0
 10
7.170566
 20
0.581684
 30
0.0
 11
12.879637
 21
0.44782
 31
0.0
  0
LINE
  5
41
  8
0
 10
12.879637
 20
0.44782
 30
0.0
 11
13.938792
 21
0.595214
 31
0.0
  0
LINE
  5
42
  8
0
 10
13.938792
 20
0.595214
 30
0.0
 11
14.376038
 21
0.881558
 31
0.0
  0
LINE
  5
43
  8
0
 10
14.376038
 20
0.881558
 30
0.0
 11
14.641812
 21
1.416369
 31
0.0
  0
LINE
  5
44
  8
0
 10
14.641812
 20
1.416369
 30
0.0
 11
14.745617
 21
2.413857
 31
0.0
  0
LINE
  5
45
  8
0
 10
14.745617
 20
2.413857
 30
0.0
 11
14.621909
 21
14.593364
 31
0.0
  0
LINE
  5
46
  8
0
 10
14.621909
 20
14.593364
 30
0.0
 11
2.40999
 21
14.747916
 31
0.0
  0
LINE
  5
47
  8
0
 10
2.40999
 20
14.747916
 30
0.0
 11
1.487248
 21
14.667413
 31
0.0
  0
LINE
  5
48
  8
0
 10
1.487248
 20
14.667413
 30
0.0
 11
0.805868
 21
14.323494
 31
0.0
  0
LINE
  5
49
  8
0
 10
0.805868
 20
14.323494
 30
0.0
 11
0.533327
 21
13.689837
 31
0.0
  0
LINE
  5
4A
  8
0
 10
0.533327
 20
13.689837
 30
0.0
 11
0.435457
 21
12.688842
 31
0.0
  0
LINE
  5
4B
  8
0
 10
0.435457
 20
12.688842
 30
0.0
 11
0.57886
 21
7.814961
 31
0.0
  0
LINE
  5
4C
  8
0
 10
0.57886
 20
7.814961
 30
0.0
 11
0.470307
 21
1.979565
 31
0.0
  0
LINE
  5
4D
  8
0
 10
0.470307
 20
1.979565
 30
0.0
 11
0.588383
 21
1.266476
 31
0.0
  0
LINE
  5
4E
  8
0
 10
0.588383
 20
1.266476
 30
0.0
 11
0.97825
 21
0.718585
 31
0.0
  0
LINE
  5
4F
  8
0
 10
0.97825
 20
0.718585
 30
0.0
 11
2.489714
 21
0.433699
 31
0.0
  0
LINE
  5
50
  8
0
 10
2.489714
 20
0.433699
 30
0.0
 11
2.489714
 21
0.433699
 31
0.0
  0
LINE
  5
51
  8
0
 10
0.592849
 20
1.254
 30
0.0
 11
0.592849
 21
1.313255
 31
0.0
  0
LINE
  5
52
  8
0
 10
0.592849
 20
1.254
 30
0.0
 11
0.592849
 21
1.313255
 31
0.0
  0
LINE
  5
53
  8
0
 10
0.592849
 20
1.313255
 30
0.0
 11
0.592849
 21
1.376235
 31
0.0
  0
LINE
  5
54
  8
0
 10
0.592849
 20
1.376235
 30
0.0
 11
0.592849
 21
2.561661
 31
0.0
  0
LINE
  5
55
  8
0
 10
0.592849
 20
2.561661
 30
0.0
 11
0.592849
 21
2.876177
 31
0.0
  0
LINE
  5
56
  8
0
 10
0.592849
 20
2.876177
 30
0.0
 11
0.592849
 21
3.113274
 31
0.0
  0
LINE
  5
57
  8
0
 10
0.592849
 20
3.113274
 30
0.0
 11
0.592849
 21
3.176177
 31
0.0
  0
LINE
  5
58
  8
0
 10
0.592849
 20
3.176177
 30
0.0
 11
0.592849
 21
4.361661
 31
0.0
  0
LINE
  5
59
  8
0
 10
0.592849
 20
4.361661
 30
0.0
 11
0.592849
 21
4.676177
 31
0.0
  0
LINE
  5
5A
  8
0
 10
0.592849
 20
4.676177
 30
0.0
 11
0.592849
 21
4.913274
 31
0.0
  0
LINE
  5
5B
  8
0
 10
0.592849
 20
4.913274
 30
0.0
 11
0.592849
 21
4.976177
 31
0.0
  0
LINE
  5
5C
  8
0
 10
0.592849
 20
4.976177
 30
0.0
 11
0.592849
 21
6.161661
 31
0.0
  0
LINE
  5
5D
  8
0
 10
0.592849
 20
6.161661
 30
0.0
 11
0.592849
 21
6.476177
 31
0.0
  0
LINE
  5
5E
  8
0
 10
0.592849
 20
6.476177
 30
0.0
 11
0.592849
 21
6.713274
 31
0.0
  0
LINE
  5
5F
  8
0
 10
0.592849
 20
6.713274
 30
0.0
 11
0.592849
 21
6.776177
 31
0.0
  0
LINE
  5
60
  8
0
 10
0.592849
 20
6.776177
 30
0.0
 11
0.592849
 21
7.961661
 31
0.0
  0
LINE
  5
61
  8
0
 10
0.592849
 20
7.961661
 30
0.0
 11
0.592849
 21
8.276177
 31
0.0
  0
LINE
  5
62
  8
0
 10
0.592849
 20
8.276177
 30
0.0
 11
0.592849
 21
8.513274
 31
0.0
  0
LINE
  5
63
  8
0
 10
0.592849
 20
8.513274
 30
0.0
 11
0.592849
 21
8.576177
 31
0.0
  0
LINE
  5
64
  8
0
 10
0.592849
 20
8.576177
 30
0.0
 11
0.592849
 21
9.761661
 31
0.0
  0
LINE
  5
65
  8
0
 10
0.592849
 20
9.761661
 30
0.0
 11
0.592849
 21
10.076177
 31
0.0
  0
LINE
  5
66
  8
0
 10
0.592849
 20
10.076177
 30
0.0
 11
0.592849
 21
10.313274
 31
0.0
  0
LINE
  5
67
  8
0
 10
0.592849
 20
10.313274
 30
0.0
 11
0.592849
 21
10.376177
 31
0.0
  0
LINE
  5
68
  8
0
 10
0.592849
 20
10.376177
 30
0.0
 11
0.592849
 21
11.561661
 31
0.0
  0
LINE
  5
69
  8
0
 10
0.592849
 20
11.561661
 30
0.0
 11
0.592849
 21
11.876177
 31
0.0
  0
LINE
  5
6A
  8
0
 10
0.592849
 20
11.876177
 30
0.0
 11
0.592849
 21
12.113274
 31
0.0
  0
LINE
  5
6B
  8
0
 10
0.592849
 20
12.113274
 30
0.0
 11
0.592849
 21
12.176177
 31
0.0
  0
LINE
  5
6C
  8
0
 10
0.592849
 20
12.176177
 30
0.0
 11
0.592849
 21
13.361661
 31
0.0
  0
LINE
  5
6D
  8
0
 10
0.592849
 20
13.361661
 30
0.0
 11
0.592849
 21
13.676162
 31
0.0
  0
LINE
  5
6E
  8
0
 10
0.592849
 20
13.676162
 30
0.0
 11
0.592849
 21
13.913279
 31
0.0
  0
LINE
  5
6F
  8
0
 10
0.592849
 20
13.913279
 30
0.0
 11
0.592849
 21
13.929
 31
0.0
  0
LINE
  5
70
  8
0
 10
1.092849
 20
0.654
 30
0.0
 11
1.092849
 21
0.716903
 31
0.0
  0
LINE
  5
71
  8
0
 10
1.092849
 20
0.654
 30
0.0
 11
1.092849
 21
0.716903
 31
0.0
  0
LINE
  5
72
  8
0
 10
1.092849
 20
0.716903
 30
0.0
 11
1.092849
 21
1.493
 31
0.0
  0
LINE
  5
73
  8
0
 10
1.092849
 20
1.493
 30
0.0
 11
1.092849
 21
1.807516
 31
0.0
  0
LINE
  5
74
  8
0
 10
1.092849
 20
1.807516
 30
0.0
 11
1.092849
 21
2.044613
 31
0.0
  0
LINE
  5
75
  8
0
 10
1.092849
 20
2.044613
 30
0.0
 11
1.092849
 21
2.107516
 31
0.0
  0
LINE
  5
76
  8
0
 10
1.092849
 20
2.107516
 30
0.0
 11
1.092849
 21
3.293
 31
0.0
  0
LINE
  5
77
  8
0
 10
1.092849
 20
3.293
 30
0.0
 11
1.092849
 21
3.607516
 31
0.0
  0
LINE
  5
78
  8
0
 10
1.092849
 20
3.607516
 30
0.0
 11
1.092849
 21
3.844613
 31
0.0
  0
LINE
  5
79
  8
0
 10
1.092849
 20
3.844613
 30
0.0
 11
1.092849
 21
3.907516
 31
0.0
  0
LINE
  5
7A
  8
0
 10
1.092849
 20
3.907516
 30
0.0
 11
1.092849
 21
5.093
 31
0.0
  0
LINE
  5
7B
  8
0
 10
1.092849
 20
5.093
 30
0.0
 11
1.092849
 21
5.407516
 31
0.0
  0
LINE
  5
7C
  8
0
 10
1.092849
 20
5.407516
 30
0.0
 11
1.092849
 21
5.644613
 31
0.0
  0
LINE
  5
7D
  8
0
 10
1.092849
 20
5.644613
 30
0.0
 11
1.092849
 21
5.707516
 31
0.0
  0
LINE
  5
7E
  8
0
 10
1.092849
 20
5.707516
 30
0.0
 11
1.092849
 21
6.893
 31
0.0
  0
LINE
  5
7F
  8
0
 10
1.092849
 20
6.893
 30
0.0
 11
1.092849
 21
7.207516
 31
0.0
  0
LINE
  5
80
  8
0
 10
1.092849
 20
7.207516
 30
0.0
 11
1.092849
 21
7.444613
 31
0.0
  0
LINE
  5
81
  8
0
 10
1.092849
 20
7.444613
 30
0.0
 11
1.092849
 21
7.507516
 31
0.0
  0
LINE
  5
82
  8
0
 10
1.092849
 20
7.507516
 30
0.0
 11
1.092849
 21
8.693
 31
0.0
  0
LINE
  5
83
  8
0
 10
1.092849
 20
8.693
 30
0.0
 11
1.092849
 21
9.007516
 31
0.0
  0
LINE
  5
84
  8
0
 10
1.092849
 20
9.007516
 30
0.0
 11
1.092849
 21
9.244613
 31
0.0
  0
LINE
  5
85
  8
0
 10
1.092849
 20
9.244613
 30
0.0
 11
1.092849
 21
9.307516
 31
0.0
  0
LINE
  5
86
  8
0
 10
1.092849
 20
9.307516
 30
0.0
 11
1.092849
 21
10.493
 31
0.0
  0
LINE
  5
87
  8
0
 10
1.092849
 20
10.493
 30
0.0
 11
1.092849
 21
10.807516
 31
0.0
  0
LINE
  5
88
  8
0
 10
1.092849
 20
10.807516
 30
0.0
 11
1.092849
 21
11.044613
 31
0.0
  0
LINE
  5
89
  8
0
 10
1.092849
 20
11.044613
 30
0.0
 11
1.092849
 21
11.107516
 31
0.0
  0
LINE
  5
8A
  8
0
 10
1.092849
 20
11.107516
 30
0.0
 11
1.092849
 21
12.293
 31
0.0
  0
LINE
  5
8B
  8
0
 10
1.092849
 20
12.293
 30
0.0
 11
1.092849
 21
12.607516
 31
0.0
  0
LINE
  5
8C
  8
0
 10
1.092849
 20
12.607516
 30
0.0
 11
1.092849
 21
12.844613
 31
0.0
  0
LINE
  5
8D
  8
0
 10
1.092849
 20
12.844613
 30
0.0
 11
1.092849
 21
12.907516
 31
0.0
  0
LINE
  5
8E
  8
0
 10
1.092849
 20
12.907516
 30
0.0
 11
1.092849
 21
14.093
 31
0.0
  0
LINE
  5
8F
  8
0
 10
1.092849
 20
14.093
 30
0.0
 11
1.092849
 21
14.299113
 31
0.0
  0
LINE
  5
90
  8
0
 10
1.092849
 20
14.299113
 30
0.0
 11
1.092849
 21
14.53621
 31
0.0
  0
LINE
  5
91
  8
0
 10
1.092849
 20
14.53621
 30
0.0
 11
1.092849
 21
14.537
 31
0.0
  0
LINE
  5
92
  8
0
 10
1.592849
 20
0.504
 30
0.0
 11
1.592849
 21
0.566903
 31
0.0
  0
LINE
  5
93
  8
0
 10
1.592849
 20
0.504
 30
0.0
 11
1.592849
 21
0.566903
 31
0.0
  0
LINE
  5
94
  8
0
 10
1.592849
 20
0.566903
 30
0.0
 11
1.592849
 21
1.58721
 31
0.0
  0
LINE
  5
95
  8
0
 10
1.592849
 20
1.58721
 30
0.0
 11
1.592849
 21
1.901726
 31
0.0
  0
LINE
  5
96
  8
0
 10
1.592849
 20
1.901726
 30
0.0
 11
1.592849
 21
2.138823
 31
0.0
  0
LINE
  5
97
  8
0
 10
1.592849
 20
2.138823
 30
0.0
 11
1.592849
 21
2.201726
 31
0.0
  0
LINE
  5
98
  8
0
 10
1.592849
 20
2.201726
 30
0.0
 11
1.592849
 21
3.38721
 31
0.0
  0
LINE
  5
99
  8
0
 10
1.592849
 20
3.38721
 30
0.0
 11
1.592849
 21
3.701726
 31
0.0
  0
LINE
  5
9A
  8
0
 10
1.592849
 20
3.701726
 30
0.0
 11
1.592849
 21
3.938823
 31
0.0
  0
LINE
  5
9B
  8
0
 10
1.592849
 20
3.938823
 30
0.0
 11
1.592849
 21
4.001726
 31
0.0
  0
LINE
  5
9C
  8
0
 10
1.592849
 20
4.001726
 30
0.0
 11
1.592849
 21
5.18721
 31
0.0
  0
LINE
  5
9D
  8
0
 10
1.592849
 20
5.18721
 30
0.0
 11
1.592849
 21
5.501726
 31
0.0
  0
LINE
  5
9E
  8
0
 10
1.592849
 20
5.501726
 30
0.0
 11
1.592849
 21
5.738823
 31
0.0
  0
LINE
  5
9F
  8
0
 10
1.592849
 20
5.738823
 30
0.0
 11
1.592849
 21
5.801726
 31
0.0
  0
LINE
  5
A0
  8
0
 10
1.592849
 20
5.801726
 30
0.0
 11
1.592849
 21
6.98721
 31
0.0
  0
LINE
  5
A1
  8
0
 10
1.592849
 20
6.98721
 30
0.0
 11
1.592849
 21
7.301726
 31
0.0
  0
LINE
  5
A2
  8
0
 10
1.592849
 20
7.301726
 30
0.0
 11
1.592849
 21
7.538823
 31
0.0
  0
LINE
  5
A3
  8
0
 10
1.592849
 20
7.538823
 30
0.0
 11
1.592849
 21
7.601726
 31
0.0
  0
LINE
  5
A4
  8
0
 10
1.592849
 20
7.601726
 30
0.0
 11
1.592849
 21
8.78721
 31
0.0
  0
LINE
  5
A5
  8
0
 10
1.592849
 20
8.78721
 30
0.0
 11
1.592849
 21
9.101726
 31
0.0
  0
LINE
  5
A6
  8
0
 10
1.592849
 20
9.101726
 30
0.0
 11
1.592849
 21
9.338823
 31
0.0
  0
LINE
  5
A7
  8
0
 10
1.592849
 20
9.338823
 30
0.0
 11
1.592849
 21
9.401726
 31
0.0
  0
LINE
  5
A8
  8
0
 10
1.592849
 20
9.401726
 30
0.0
 11
1.592849
 21
10.58721
 31
0.0
  0
LINE
  5
A9
  8
0
 10
1.592849
 20
10.58721
 30
0.0
 11
1.592849
 21
10.901726
 31
0.0
  0
LINE
  5
AA
  8
0
 10
1.592849
 20
10.901726
 30
0.0
 11
1.592849
 21
11.138823
 31
0.0
  0
LINE
  5
AB
  8
0
 10
1.592849
 20
11.138823
 30
0.0
 11
1.592849
 21
11.201726
 31
0.0
  0
LINE
  5
AC
  8
0
 10
1.592849
 20
11.201726
 30
0.0
 11
1.592849
 21
12.38721
 31
0.0
  0
LINE
  5
AD
  8
0
 10
1.592849
 20
12.38721
 30
0.0
 11
1.592849
 21
12.701726
 31
0.0
  0
LINE
  5
AE
  8
0
 10
1.592849
 20
12.701726
 30
0.0
 11
1.592849
 21
12.938823
 31
0.0
  0
LINE
  5
AF
  8
0
 10
1.592849
 20
12.938823
 30
0.0
 11
1.592849
 21
13.001726
 31
0.0
  0
LINE
  5
B0
  8
0
 10
1.592849
 20
13.001726
 30
0.0
 11
1.592849
 21
14.18721
 31
0.0
  0
LINE
  5
B1
  8
0
 10
1.592849
 20
14.18721
 30
0.0
 11
1.592849
 21
14.457903
 31
0.0
  0
LINE
  5
B2
  8
0
 10
1.592849
 20
14.457903
 30
0.0
 11
1.592849
 21
14.695
 31
0.0
  0
LINE
  5
B3
  8
0
 10
2.092849
 20
0.446
 30
0.0
 11
2.092849
 21
0.508903
 31
0.0
  0
LINE
  5
B4
  8
0
 10
2.092849
 20
0.446
 30
0.0
 11
2.092849
 21
0.508903
 31
0.0
  0
LINE
  5
B5
  8
0
 10
2.092849
 20
0.508903
 30
0.0
 11
2.092849
 21
1.612984
 31
0.0
  0
LINE
  5
B6
  8
0
 10
2.092849
 20
1.612984
 30
0.0
 11
2.092849
 21
1.92771
 31
0.0
  0
LINE
  5
B7
  8
0
 10
2.092849
 20
1.92771
 30
0.0
 11
2.092849
 21
2.164806
 31
0.0
  0
LINE
  5
B8
  8
0
 10
2.092849
 20
2.164806
 30
0.0
 11
2.092849
 21
2.2275
 31
0.0
  0
LINE
  5
B9
  8
0
 10
2.092849
 20
2.2275
 30
0.0
 11
2.092849
 21
3.412984
 31
0.0
  0
LINE
  5
BA
  8
0
 10
2.092849
 20
3.412984
 30
0.0
 11
2.092849
 21
3.72771
 31
0.0
  0
LINE
  5
BB
  8
0
 10
2.092849
 20
3.72771
 30
0.0
 11
2.092849
 21
3.964806
 31
0.0
  0
LINE
  5
BC
  8
0
 10
2.092849
 20
3.964806
 30
0.0
 11
2.092849
 21
4.0275
 31
0.0
  0
LINE
  5
BD
  8
0
 10
2.092849
 20
4.0275
 30
0.0
 11
2.092849
 21
5.212984
 31
0.0
  0
LINE
  5
BE
  8
0
 10
2.092849
 20
5.212984
 30
0.0
 11
2.092849
 21
5.52771
 31
0.0
  0
LINE
  5
BF
  8
0
 10
2.092849
 20
5.52771
 30
0.0
 11
2.092849
 21
5.764806
 31
0.0
  0
LINE
  5
C0
  8
0
 10
2.092849
 20
5.764806
 30
0.0
 11
2.092849
 21
5.8275
 31
0.0
  0
LINE
  5
C1
  8
0
 10
2.092849
 20
5.8275
 30
0.0
 11
2.092849
 21
7.012984
 31
0.0
  0
LINE
  5
C2
  8
0
 10
2.092849
 20
7.012984
 30
0.0
 11
2.092849
 21
7.32771
 31
0.0
  0
LINE
  5
C3
  8
0
 10
2.092849
 20
7.32771
 30
0.0
 11
2.092849
 21
7.564806
 31
0.0
  0
LINE
  5
C4
  8
0
 10
2.092849
 20
7.564806
 30
0.0
 11
2.092849
 21
7.6275
 31
0.0
  0
LINE
  5
C5
  8
0
 10
2.092849
 20
7.6275
 30
0.0
 11
2.092849
 21
8.812984
 31
0.0
  0
LINE
  5
C6
  8
0
 10
2.092849
 20
8.812984
 30
0.0
 11
2.092849
 21
9.12771
 31
0.0
  0
LINE
  5
C7
  8
0
 10
2.092849
 20
9.12771
 30
0.0
 11
2.092849
 21
9.364806
 31
0.0
  0
LINE
  5
C8
  8
0
 10
2.092849
 20
9.364806
 30
0.0
 11
2.092849
 21
9.4275
 31
0.0
  0
LINE
  5
C9
  8
0
 10
2.092849
 20
9.4275
 30
0.0
 11
2.092849
 21
10.612984
 31
0.0
  0
LINE
  5
CA
  8
0
 10
2.092849
 20
10.612984
 30
0.0
 11
2.092849
 21
10.92771
 31
0.0
  0
LINE
  5
CB
  8
0
 10
2.092849
 20
10.92771
 30
0.0
 11
2.092849
 21
11.164806
 31
0.0
  0
LINE
  5
CC
  8
0
 10
2.092849
 20
11.164806
 30
0.0
 11
2.092849
 21
11.2275
 31
0.0
  0
LINE
  5
CD
  8
0
 10
2.092849
 20
11.2275
 30
0.0
 11
2.092849
 21
12.412984
 31
0.0
  0
LINE
  5
CE
  8
0
 10
2.092849
 20
12.412984
 30
0.0
 11
2.092849
 21
12.72771
 31
0.0
  0
LINE
  5
CF
  8
0
 10
2.092849
 20
12.72771
 30
0.0
 11
2.092849
 21
12.964806
 31
0.0
  0
LINE
  5
D0
  8
0
 10
2.092849
 20
12.964806
 30
0.0
 11
2.092849
 21
13.0275
 31
0.0
  0
LINE
  5
D1
  8
0
 10
2.092849
 20
13.0275
 30
0.0
 11
2.092849
 21
14.212984
 31
0.0
  0
LINE
  5
D2
  8
0
 10
2.092849
 20
14.212984
 30
0.0
 11
2.092849
 21
14.505903
 31
0.0
  0
LINE
  5
D3
  8
0
 10
2.092849
 20
14.505903
 30
0.0
 11
2.092849
 21
14.743
 31
0.0
  0
LINE
  5
D4
  8
0
 10
2.092849
 20
14.743
 30
0.0
 11
2.092849
 21
14.74379
 31
0.0
  0
LINE
  5
D5
  8
0
 10
2.592849
 20
0.437
 30
0.0
 11
2.592849
 21
0.499903
 31
0.0
  0
LINE
  5
D6
  8
0
 10
2.592849
 20
0.437
 30
0.0
 11
2.592849
 21
0.499903
 31
0.0
  0
LINE
  5
D7
  8
0
 10
2.592849
 20
0.499903
 30
0.0
 11
2.592849
 21
1.610306
 31
0.0
  0
LINE
  5
D8
  8
0
 10
2.592849
 20
1.610306
 30
0.0
 11
2.592849
 21
1.924823
 31
0.0
  0
LINE
  5
D9
  8
0
 10
2.592849
 20
1.924823
 30
0.0
 11
2.592849
 21
2.161129
 31
0.0
  0
LINE
  5
DA
  8
0
 10
2.592849
 20
2.161129
 30
0.0
 11
2.592849
 21
2.224032
 31
0.0
  0
LINE
  5
DB
  8
0
 10
2.592849
 20
2.224032
 30
0.0
 11
2.592849
 21
3.410306
 31
0.0
  0
LINE
  5
DC
  8
0
 10
2.592849
 20
3.410306
 30
0.0
 11
2.592849
 21
3.724823
 31
0.0
  0
LINE
  5
DD
  8
0
 10
2.592849
 20
3.724823
 30
0.0
 11
2.592849
 21
3.961129
 31
0.0
  0
LINE
  5
DE
  8
0
 10
2.592849
 20
3.961129
 30
0.0
 11
2.592849
 21
4.024032
 31
0.0
  0
LINE
  5
DF
  8
0
 10
2.592849
 20
4.024032
 30
0.0
 11
2.592849
 21
5.210306
 31
0.0
  0
LINE
  5
E0
  8
0
 10
2.592849
 20
5.210306
 30
0.0
 11
2.592849
 21
5.524823
 31
0.0
  0
LINE
  5
E1
  8
0
 10
2.592849
 20
5.524823
 30
0.0
 11
2.592849
 21
5.761129
 31
0.0
  0
LINE
  5
E2
  8
0
 10
2.592849
 20
5.761129
 30
0.0
 11
2.592849
 21
5.824032
 31
0.0
  0
LINE
  5
E3
  8
0
 10
2.592849
 20
5.824032
 30
0.0
 11
2.592849
 21
7.010306
 31
0.0
  0
LINE
  5
E4
  8
0
 10
2.592849
 20
7.010306
 30
0.0
 11
2.592849
 21
7.324823
 31
0.0
  0
LINE
  5
E5
  8
0
 10
2.592849
 20
7.324823
 30
0.0
 11
2.592849
 21
7.561129
 31
0.0
  0
LINE
  5
E6
  8
0
 10
2.592849
 20
7.561129
 30
0.0
 11
2.592849
 21
7.624032
 31
0.0
  0
LINE
  5
E7
  8
0
 10
2.592849
 20
7.624032
 30
0.0
 11
2.592849
 21
8.810306
 31
0.0
  0
LINE
  5
E8
  8
0
 10
2.592849
 20
8.810306
 30
0.0
 11
2.592849
 21
9.124823
 31
0.0
  0
LINE
  5
E9
  8
0
 10
2.592849
 20
9.124823
 30
0.0
 11
2.592849
 21
9.361129
 31
0.0
  0
LINE
  5
EA
  8
0
 10
2.592849
 20
9.361129
 30
0.0
 11
2.592849
 21
9.424032
 31
0.0
  0
LINE
  5
EB
  8
0
 10
2.592849
 20
9.424032
 30
0.0
 11
2.592849
 21
10.610306
 31
0.0
  0
LINE
  5
EC
  8
0
 10
2.592849
 20
10.610306
 30
0.0
 11
2.592849
 21
10.924823
 31
0.0
  0
LINE
  5
ED
  8
0
 10
2.592849
 20
10.924823
 30
0.0
 11
2.592849
 21
11.161129
 31
0.0
  0
LINE
  5
EE
  8
0
 10
2.592849
 20
11.161129
 30
0.0
 11
2.592849
 21
11.224032
 31
0.0
  0
LINE
  5
EF
  8
0
 10
2.592849
 20
11.224032
 30
0.0
 11
2.592849
 21
12.410306
 31
0.0
  0
LINE
  5
F0
  8
0
 10
2.592849
 20
12.410306
 30
0.0
 11
2.592849
 21
12.724823
 31
0.0
  0
LINE
  5
F1
  8
0
 10
2.592849
 20
12.724823
 30
0.0
 11
2.592849
 21
12.961129
 31
0.0
  0
LINE
  5
F2
  8
0
 10
2.592849
 20
12.961129
 30
0.0
 11
2.592849
 21
13.024032
 31
0.0
  0
LINE
  5
F3
  8
0
 10
2.592849
 20
13.024032
 30
0.0
 11
2.592849
 21
14.210306
 31
0.0
  0
LINE
  5
F4
  8
0
 10
2.592849
 20
14.210306
 30
0.0
 11
2.592849
 21
14.504903
 31
0.0
  0
LINE
  5
F5
  8
0
 10
2.592849
 20
14.504903
 30
0.0
 11
2.592849
 21
14.742
 31
0.0
  0
LINE
  5
F6
  8
0
 10
3.092849
 20
0.453
 30
0.0
 11
3.092849
 21
0.515903
 31
0.0
  0
LINE
  5
F7
  8
0
 10
3.092849
 20
0.453
 30
0.0
 11
3.092849
 21
0.515903
 31
0.0
  0
LINE
  5
F8
  8
0
 10
3.092849
 20
0.515903
 30
0.0
 11
3.092849
 21
1.599435
 31
0.0
  0
LINE
  5
F9
  8
0
 10
3.092849
 20
1.599435
 30
0.0
 11
3.092849
 21
1.913952
 31
0.0
  0
LINE
  5
FA
  8
0
 10
3.092849
 20
1.913952
 30
0.0
 11
3.092849
 21
2.151048
 31
0.0
  0
LINE
  5
FB
  8
0
 10
3.092849
 20
2.151048
 30
0.0
 11
3.092849
 21
2.213952
 31
0.0
  0
LINE
  5
FC
  8
0
 10
3.092849
 20
2.213952
 30
0.0
 11
3.092849
 21
3.399435
 31
0.0
  0
LINE
  5
FD
  8
0
 10
3.092849
 20
3.399435
 30
0.0
 11
3.092849
 21
3.713952
 31
0.0
  0
LINE
  5
FE
  8
0
 10
3.092849
 20
3.713952
 30
0.0
 11
3.092849
 21
3.951048
 31
0.0
  0
LINE
  5
FF
  8
0
 10
3.092849
 20
3.951048
 30
0.0
 11
3.092849
 21
4.013952
 31
0.0
  0
LINE
  5
100
  8
0
 10
3.092849
 20
4.013952
 30
0.0
 11
3.092849
 21
5.199435
 31
0.0
  0
LINE
  5
101
  8
0
 10
3.092849
 20
5.199435
 30
0.0
 11
3.092849
 21
5.513952
 31
0.0
  0
LINE
  5
102
  8
0
 10
3.092849
 20
5.513952
 30
0.0
 11
3.092849
 21
5.751048
 31
0.0
  0
LINE
  5
103
  8
0
 10
3.092849
 20
5.751048
 30
0.0
 11
3.092849
 21
5.813952
 31
0.0
  0
LINE
  5
104
  8
0
 10
3.092849
 20
5.813952
 30
0.0
 11
3.092849
 21
6.999435
 31
0.0
  0
LINE
  5
105
  8
0
 10
3.092849
 20
6.999435
 30
0.0
 11
3.092849
 21
7.313952
 31
0.0
  0
LINE
  5
106
  8
0
 10
3.092849
 20
7.313952
 30
0.0
 11
3.092849
 21
7.551048
 31
0.0
  0
LINE
  5
107
  8
0
 10
3.092849
 20
7.551048
 30
0.0
 11
3.092849
 21
7.613952
 31
0.0
  0
LINE
  5
108
  8
0
 10
3.092849
 20
7.613952
 30
0.0
 11
3.092849
 21
8.799435
 31
0.0
  0
LINE
  5
109
  8
0
 10
3.092849
 20
8.799435
 30
0.0
 11
3.092849
 21
9.113952
 31
0.0
  0
LINE
  5
10A
  8
0
 10
3.092849
 20
9.113952
 30
0.0
 11
3.092849
 21
9.351048
 31
0.0
  0
LINE
  5
10B
  8
0
 10
3.092849
 20
9.351048
 30
0.0
 11
3.092849
 21
9.413952
 31
0.0
  0
LINE
  5
10C
  8
0
 10
3.092849
 20
9.413952
 30
0.0
 11
3.092849
 21
10.599435
 31
0.0
  0
LINE
  5
10D
  8
0
 10
3.092849
 20
10.599435
 30
0.0
 11
3.092849
 21
10.913952
 31
0.0
  0
LINE
  5
10E
  8
0
 10
3.092849
 20
10.913952
 30
0.0
 11
3.092849
 21
11.151048
 31
0.0
  0
LINE
  5
10F
  8
0
 10
3.092849
 20
11.151048
 30
0.0
 11
3.092849
 21
11.213952
 31
0.0
  0
LINE
  5
110
  8
0
 10
3.092849
 20
11.213952
 30
0.0
 11
3.092849
 21
12.399435
 31
0.0
  0
LINE
  5
111
  8
0
 10
3.092849
 20
12.399435
 30
0.0
 11
3.092849
 21
12.713952
 31
0.0
  0
LINE
  5
112
  8
0
 10
3.092849
 20
12.713952
 30
0.0
 11
3.092849
 21
12.951048
 31
0.0
  0
LINE
  5
113
  8
0
 10
3.092849
 20
12.951048
 30
0.0
 11
3.092849
 21
13.013952
 31
0.0
  0
LINE
  5
114
  8
0
 10
3.092849
 20
13.013952
 30
0.0
 11
3.092849
 21
14.199435
 31
0.0
  0
LINE
  5
115
  8
0
 10
3.092849
 20
14.199435
 30
0.0
 11
3.092849
 21
14.486903
 31
0.0
  0
LINE
  5
116
  8
0
 10
3.092849
 20
14.486903
 30
0.0
 11
3.092849
 21
14.724
 31
0.0
  0
LINE
  5
117
  8
0
 10
3.592849
 20
0.469
 30
0.0
 11
3.592849
 21
0.531903
 31
0.0
  0
LINE
  5
118
  8
0
 10
3.592849
 20
0.469
 30
0.0
 11
3.592849
 21
0.531903
 31
0.0
  0
LINE
  5
119
  8
0
 10
3.592849
 20
0.531903
 30
0.0
 11
3.592849
 21
1.589355
 31
0.0
  0
LINE
  5
11A
  8
0
 10
3.592849
 20
1.589355
 30
0.0
 11
3.592849
 21
1.903871
 31
0.0
  0
LINE
  5
11B
  8
0
 10
3.592849
 20
1.903871
 30
0.0
 11
3.592849
 21
2.140968
 31
0.0
  0
LINE
  5
11C
  8
0
 10
3.592849
 20
2.140968
 30
0.0
 11
3.592849
 21
2.203871
 31
0.0
  0
LINE
  5
11D
  8
0
 10
3.592849
 20
2.203871
 30
0.0
 11
3.592849
 21
3.389355
 31
0.0
  0
LINE
  5
11E
  8
0
 10
3.592849
 20
3.389355
 30
0.0
 11
3.592849
 21
3.703871
 31
0.0
  0
LINE
  5
11F
  8
0
 10
3.592849
 20
3.703871
 30
0.0
 11
3.592849
 21
3.940968
 31
0.0
  0
LINE
  5
120
  8
0
 10
3.592849
 20
3.940968
 30
0.0
 11
3.592849
 21
4.003871
 31
0.0
  0
LINE
  5
121
  8
0
 10
3.592849
 20
4.003871
 30
0.0
 11
3.592849
 21
5.189355
 31
0.0
  0
LINE
  5
122
  8
0
 10
3.592849
 20
5.189355
 30
0.0
 11
3.592849
 21
5.503871
 31
0.0
  0
LINE
  5
123
  8
0
 10
3.592849
 20
5.503871
 30
0.0
 11
3.592849
 21
5.740968
 31
0.0
  0
LINE
  5
124
  8
0
 10
3.592849
 20
5.740968
 30
0.0
 11
3.592849
 21
5.803871
 31
0.0
  0
LINE
  5
125
  8
0
 10
3.592849
 20
5.803871
 30
0.0
 11
3.592849
 21
6.989355
 31
0.0
  0
LINE
  5
126
  8
0
 10
3.592849
 20
6.989355
 30
0.0
 11
3.592849
 21
7.303871
 31
0.0
  0
LINE
  5
127
  8
0
 10
3.592849
 20
7.303871
 30
0.0
 11
3.592849
 21
7.540968
 31
0.0
  0
LINE
  5
128
  8
0
 10
3.592849
 20
7.540968
 30
0.0
 11
3.592849
 21
7.603871
 31
0.0
  0
LINE
  5
129
  8
0
 10
3.592849
 20
7.603871
 30
0.0
 11
3.592849
 21
8.789355
 31
0.0
  0
LINE
  5
12A
  8
0
 10
3.592849
 20
8.789355
 30
0.0
 11
3.592849
 21
9.103871
 31
0.0
  0
LINE
  5
12B
  8
0
 10
3.592849
 20
9.103871
 30
0.0
 11
3.592849
 21
9.340968
 31
0.0
  0
LINE
  5
12C
  8
0
 10
3.592849
 20
9.340968
 30
0.0
 11
3.592849
 21
9.403871
 31
0.0
  0
LINE
  5
12D
  8
0
 10
3.592849
 20
9.403871
 30
0.0
 11
3.592849
 21
10.589355
 31
0.0
  0
LINE
  5
12E
  8
0
 10
3.592849
 20
10.589355
 30
0.0
 11
3.592849
 21
10.903871
 31
0.0
  0
LINE
  5
12F
  8
0
 10
3.592849
 20
10.903871
 30
0.0
 11
3.592849
 21
11.140968
 31
0.0
  0
LINE
  5
130
  8
0
 10
3.592849
 20
11.140968
 30
0.0
 11
3.592849
 21
11.203871
 31
0.0
  0
LINE
  5
131
  8
0
 10
3.592849
 20
11.203871
 30
0.0
 11
3.592849
 21
12.389355
 31
0.0
  0
LINE
  5
132
  8
0
 10
3.592849
 20
12.389355
 30
0.0
 11
3.592849
 21
12.703871
 31
0.0
  0
LINE
  5
133
  8
0
 10
3.592849
 20
12.703871
 30
0.0
 11
3.592849
 21
12.940968
 31
0.0
  0
LINE
  5
134
  8
0
 10
3.592849
 20
12.940968
 30
0.0
 11
3.592849
 21
13.003871
 31
0.0
  0
LINE
  5
135
  8
0
 10
3.592849
 20
13.003871
 30
0.0
 11
3.592849
 21
14.189355
 31
0.0
  0
LINE
  5
136
  8
0
 10
3.592849
 20
14.189355
 30
0.0
 11
3.592849
 21
14.469903
 31
0.0
  0
LINE
  5
137
  8
0
 10
3.592849
 20
14.469903
 30
0.0
 11
3.592849
 21
14.707
 31
0.0
  0
LINE
  5
138
  8
0
 10
4.092849
 20
0.484
 30
0.0
 11
4.092849
 21
0.546903
 31
0.0
  0
LINE
  5
139
  8
0
 10
4.092849
 20
0.484
 30
0.0
 11
4.092849
 21
0.546903
 31
0.0
  0
LINE
  5
13A
  8
0
 10
4.092849
 20
0.546903
 30
0.0
 11
4.092849
 21
1.578274
 31
0.0
  0
LINE
  5
13B
  8
0
 10
4.092849
 20
1.578274
 30
0.0
 11
4.092849
 21
1.893
 31
0.0
  0
LINE
  5
13C
  8
0
 10
4.092849
 20
1.893
 30
0.0
 11
4.092849
 21
2.130097
 31
0.0
  0
LINE
  5
13D
  8
0
 10
4.092849
 20
2.130097
 30
0.0
 11
4.092849
 21
2.19279
 31
0.0
  0
LINE
  5
13E
  8
0
 10
4.092849
 20
2.19279
 30
0.0
 11
4.092849
 21
3.378274
 31
0.0
  0
LINE
  5
13F
  8
0
 10
4.092849
 20
3.378274
 30
0.0
 11
4.092849
 21
3.693
 31
0.0
  0
LINE
  5
140
  8
0
 10
4.092849
 20
3.693
 30
0.0
 11
4.092849
 21
3.930097
 31
0.0
  0
LINE
  5
141
  8
0
 10
4.092849
 20
3.930097
 30
0.0
 11
4.092849
 21
3.99279
 31
0.0
  0
LINE
  5
142
  8
0
 10
4.092849
 20
3.99279
 30
0.0
 11
4.092849
 21
5.178274
 31
0.0
  0
LINE
  5
143
  8
0
 10
4.092849
 20
5.178274
 30
0.0
 11
4.092849
 21
5.493
 31
0.0
  0
LINE
  5
144
  8
0
 10
4.092849
 20
5.493
 30
0.0
 11
4.092849
 21
5.730097
 31
0.0
  0
LINE
  5
145
  8
0
 10
4.092849
 20
5.730097
 30
0.0
 11
4.092849
 21
5.79279
 31
0.0
  0
LINE
  5
146
  8
0
 10
4.092849
 20
5.79279
 30
0.0
 11
4.092849
 21
6.978274
 31
0.0
  0
LINE
  5
147
  8
0
 10
4.092849
 20
6.978274
 30
0.0
 11
4.092849
 21
7.293
 31
0.0
  0
LINE
  5
148
  8
0
 10
4.092849
 20
7.293
 30
0.0
 11
4.092849
 21
7.530097
 31
0.0
  0
LINE
  5
149
  8
0
 10
4.092849
 20
7.530097
 30
0.0
 11
4.092849
 21
7.59279
 31
0.0
  0
LINE
  5
14A
  8
0
 10
4.092849
 20
7.59279
 30
0.0
 11
4.092849
 21
8.778274
 31
0.0
  0
LINE
  5
14B
  8
0
 10
4.092849
 20
8.778274
 30
0.0
 11
4.092849
 21
9.093
 31
0.0
  0
LINE
  5
14C
  8
0
 10
4.092849
 20
9.093
 30
0.0
 11
4.092849
 21
9.330097
 31
0.0
  0
LINE
  5
14D
  8
0
 10
4.092849
 20
9.330097
 30
0.0
 11
4.092849
 21
9.39279
 31
0.0
  0
LINE
  5
14E
  8
0
 10
4.092849
 20
9.39279
 30
0.0
 11
4.092849
 21
10.578274
 31
0.0
  0
LINE
  5
14F
  8
0
 10
4.092849
 20
10.578274
 30
0.0
 11
4.092849
 21
10.893
 31
0.0
  0
LINE
  5
150
  8
0
 10
4.092849
 20
10.893
 30
0.0
 11
4.092849
 21
11.130097
 31
0.0
  0
LINE
  5
151
  8
0
 10
4.092849
 20
11.130097
 30
0.0
 11
4.092849
 21
11.19279
 31
0.0
  0
LINE
  5
152
  8
0
 10
4.092849
 20
11.19279
 30
0.0
 11
4.092849
 21
12.378274
 31
0.0
  0
LINE
  5
153
  8
0
 10
4.092849
 20
12.378274
 30
0.0
 11
4.092849
 21
12.693
 31
0.0
  0
LINE
  5
154
  8
0
 10
4.092849
 20
12.693
 30
0.0
 11
4.092849
 21
12.930097
 31
0.0
  0
LINE
  5
155
  8
0
 10
4.092849
 20
12.930097
 30
0.0
 11
4.092849
 21
12.99279
 31
0.0
  0
LINE
  5
156
  8
0
 10
4.092849
 20
12.99279
 30
0.0
 11
4.092849
 21
14.178274
 31
0.0
  0
LINE
  5
157
  8
0
 10
4.092849
 20
14.178274
 30
0.0
 11
4.092849
 21
14.452113
 31
0.0
  0
LINE
  5
158
  8
0
 10
4.092849
 20
14.452113
 30
0.0
 11
4.092849
 21
14.68921
 31
0.0
  0
LINE
  5
159
  8
0
 10
4.092849
 20
14.68921
 30
0.0
 11
4.092849
 21
14.69
 31
0.0
  0
LINE
  5
15A
  8
0
 10
4.592849
 20
0.5
 30
0.0
 11
4.592849
 21
0.562903
 31
0.0
  0
LINE
  5
15B
  8
0
 10
4.592849
 20
0.5
 30
0.0
 11
4.592849
 21
0.562903
 31
0.0
  0
LINE
  5
15C
  8
0
 10
4.592849
 20
0.562903
 30
0.0
 11
4.592849
 21
1.568194
 31
0.0
  0
LINE
  5
15D
  8
0
 10
4.592849
 20
1.568194
 30
0.0
 11
4.592849
 21
1.88271
 31
0.0
  0
LINE
  5
15E
  8
0
 10
4.592849
 20
1.88271
 30
0.0
 11
4.592849
 21
2.119806
 31
0.0
  0
LINE
  5
15F
  8
0
 10
4.592849
 20
2.119806
 30
0.0
 11
4.592849
 21
2.18271
 31
0.0
  0
LINE
  5
160
  8
0
 10
4.592849
 20
2.18271
 30
0.0
 11
4.592849
 21
3.368194
 31
0.0
  0
LINE
  5
161
  8
0
 10
4.592849
 20
3.368194
 30
0.0
 11
4.592849
 21
3.68271
 31
0.0
  0
LINE
  5
162
  8
0
 10
4.592849
 20
3.68271
 30
0.0
 11
4.592849
 21
3.919806
 31
0.0
  0
LINE
  5
163
  8
0
 10
4.592849
 20
3.919806
 30
0.0
 11
4.592849
 21
3.98271
 31
0.0
  0
LINE
  5
164
  8
0
 10
4.592849
 20
3.98271
 30
0.0
 11
4.592849
 21
5.168194
 31
0.0
  0
LINE
  5
165
  8
0
 10
4.592849
 20
5.168194
 30
0.0
 11
4.592849
 21
5.48271
 31
0.0
  0
LINE
  5
166
  8
0
 10
4.592849
 20
5.48271
 30
0.0
 11
4.592849
 21
5.719806
 31
0.0
  0
LINE
  5
167
  8
0
 10
4.592849
 20
5.719806
 30
0.0
 11
4.592849
 21
5.78271
 31
0.0
  0
LINE
  5
168
  8
0
 10
4.592849
 20
5.78271
 30
0.0
 11
4.592849
 21
6.968194
 31
0.0
  0
LINE
  5
169
  8
0
 10
4.592849
 20
6.968194
 30
0.0
 11
4.592849
 21
7.28271
 31
0.0
  0
LINE
  5
16A
  8
0
 10
4.592849
 20
7.28271
 30
0.0
 11
4.592849
 21
7.519806
 31
0.0
  0
LINE
  5
16B
  8
0
 10
4.592849
 20
7.519806
 30
0.0
 11
4.592849
 21
7.58271
 31
0.0
  0
LINE
  5
16C
  8
0
 10
4.592849
 20
7.58271
 30
0.0
 11
4.592849
 21
8.768194
 31
0.0
  0
LINE
  5
16D
  8
0
 10
4.592849
 20
8.768194
 30
0.0
 11
4.592849
 21
9.08271
 31
0.0
  0
LINE
  5
16E
  8
0
 10
4.592849
 20
9.08271
 30
0.0
 11
4.592849
 21
9.319806
 31
0.0
  0
LINE
  5
16F
  8
0
 10
4.592849
 20
9.319806
 30
0.0
 11
4.592849
 21
9.38271
 31
0.0
  0
LINE
  5
170
  8
0
 10
4.592849
 20
9.38271
 30
0.0
 11
4.592849
 21
10.568194
 31
0.0
  0
LINE
  5
171
  8
0
 10
4.592849
 20
10.568194
 30
0.0
 11
4.592849
 21
10.88271
 31
0.0
  0
LINE
  5
172
  8
0
 10
4.592849
 20
10.88271
 30
0.0
 11
4.592849
 21
11.119806
 31
0.0
  0
LINE
  5
173
  8
0
 10
4.592849
 20
11.119806
 30
0.0
 11
4.592849
 21
11.18271
 31
0.0
  0
LINE
  5
174
  8
0
 10
4.592849
 20
11.18271
 30
0.0
 11
4.592849
 21
12.368194
 31
0.0
  0
LINE
  5
175
  8
0
 10
4.592849
 20
12.368194
 30
0.0
 11
4.592849
 21
12.68271
 31
0.0
  0
LINE
  5
176
  8
0
 10
4.592849
 20
12.68271
 30
0.0
 11
4.592849
 21
12.919806
 31
0.0
  0
LINE
  5
177
  8
0
 10
4.592849
 20
12.919806
 30
0.0
 11
4.592849
 21
12.98271
 31
0.0
  0
LINE
  5
178
  8
0
 10
4.592849
 20
12.98271
 30
0.0
 11
4.592849
 21
14.168194
 31
0.0
  0
LINE
  5
179
  8
0
 10
4.592849
 20
14.168194
 30
0.0
 11
4.592849
 21
14.434903
 31
0.0
  0
LINE
  5
17A
  8
0
 10
4.592849
 20
14.434903
 30
0.0
 11
4.592849
 21
14.672
 31
0.0
  0
LINE
  5
17B
  8
0
 10
5.092849
 20
0.516
 30
0.0
 11
5.092849
 21
0.578903
 31
0.0
  0
LINE
  5
17C
  8
0
 10
5.092849
 20
0.516
 30
0.0
 11
5.092849
 21
0.578903
 31
0.0
  0
LINE
  5
17D
  8
0
 10
5.092849
 20
0.578903
 30
0.0
 11
5.092849
 21
1.558113
 31
0.0
  0
LINE
  5
17E
  8
0
 10
5.092849
 20
1.558113
 30
0.0
 11
5.092849
 21
1.872629
 31
0.0
  0
LINE
  5
17F
  8
0
 10
5.092849
 20
1.872629
 30
0.0
 11
5.092849
 21
2.109726
 31
0.0
  0
LINE
  5
180
  8
0
 10
5.092849
 20
2.109726
 30
0.0
 11
5.092849
 21
2.172629
 31
0.0
  0
LINE
  5
181
  8
0
 10
5.092849
 20
2.172629
 30
0.0
 11
5.092849
 21
3.358113
 31
0.0
  0
LINE
  5
182
  8
0
 10
5.092849
 20
3.358113
 30
0.0
 11
5.092849
 21
3.672629
 31
0.0
  0
LINE
  5
183
  8
0
 10
5.092849
 20
3.672629
 30
0.0
 11
5.092849
 21
3.909726
 31
0.0
  0
LINE
  5
184
  8
0
 10
5.092849
 20
3.909726
 30
0.0
 11
5.092849
 21
3.972629
 31
0.0
  0
LINE
  5
185
  8
0
 10
5.092849
 20
3.972629
 30
0.0
 11
5.092849
 21
5.158113
 31
0.0
  0
LINE
  5
186
  8
0
 10
5.092849
 20
5.158113
 30
0.0
 11
5.092849
 21
5.472629
 31
0.0
  0
LINE
  5
187
  8
0
 10
5.092849
 20
5.472629
 30
0.0
 11
5.092849
 21
5.709726
 31
0.0
  0
LINE
  5
188
  8
0
 10
5.092849
 20
5.709726
 30
0.0
 11
5.092849
 21
5.772629
 31
0.0
  0
LINE
  5
189
  8
0
 10
5.092849
 20
5.772629
 30
0.0
 11
5.092849
 21
6.958113
 31
0.0
  0
LINE
  5
18A
  8
0
 10
5.092849
 20
6.958113
 30
0.0
 11
5.092849
 21
7.272629
 31
0.0
  0
LINE
  5
18B
  8
0
 10
5.092849
 20
7.272629
 30
0.0
 11
5.092849
 21
7.509726
 31
0.0
  0
LINE
  5
18C
  8
0
 10
5.092849
 20
7.509726
 30
0.0
 11
5.092849
 21
7.572629
 31
0.0
  0
LINE
  5
18D
  8
0
 10
5.092849
 20
7.572629
 30
0.0
 11
5.092849
 21
8.758113
 31
0.0
  0
LINE
  5
18E
  8
0
 10
5.092849
 20
8.758113
 30
0.0
 11
5.092849
 21
9.072629
 31
0.0
  0
LINE
  5
18F
  8
0
 10
5.092849
 20
9.072629
 30
0.0
 11
5.092849
 21
9.309726
 31
0.0
  0
LINE
  5
190
  8
0
 10
5.092849
 20
9.309726
 30
0.0
 11
5.092849
 21
9.372629
 31
0.0
  0
LINE
  5
191
  8
0
 10
5.092849
 20
9.372629
 30
0.0
 11
5.092849
 21
10.558113
 31
0.0
  0
LINE
  5
192
  8
0
 10
5.092849
 20
10.558113
 30
0.0
 11
5.092849
 21
10.872629
 31
0.0
  0
LINE
  5
193
  8
0
 10
5.092849
 20
10.872629
 30
0.0
 11
5.092849
 21
11.109726
 31
0.0
  0
LINE
  5
194
  8
0
 10
5.092849
 20
11.109726
 30
0.0
 11
5.092849
 21
11.172629
 31
0.0
  0
LINE
  5
195
  8
0
 10
5.092849
 20
11.172629
 30
0.0
 11
5.092849
 21
12.358113
 31
0.0
  0
LINE
  5
196
  8
0
 10
5.092849
 20
12.358113
 30
0.0
 11
5.092849
 21
12.672629
 31
0.0
  0
LINE
  5
197
  8
0
 10
5.092849
 20
12.672629
 30
0.0
 11
5.092849
 21
12.909726
 31
0.0
  0
LINE
  5
198
  8
0
 10
5.092849
 20
12.909726
 30
0.0
 11
5.092849
 21
12.972629
 31
0.0
  0
LINE
  5
199
  8
0
 10
5.092849
 20
12.972629
 30
0.0
 11
5.092849
 21
14.158113
 31
0.0
  0
LINE
  5
19A
  8
0
 10
5.092849
 20
14.158113
 30
0.0
 11
5.092849
 21
14.417903
 31
0.0
  0
LINE
  5
19B
  8
0
 10
5.092849
 20
14.417903
 30
0.0
 11
5.092849
 21
14.655
 31
0.0
  0
LINE
  5
19C
  8
0
 10
5.592849
 20
0.532
 30
0.0
 11
5.592849
 21
0.594903
 31
0.0
  0
LINE
  5
19D
  8
0
 10
5.592849
 20
0.532
 30
0.0
 11
5.592849
 21
0.594903
 31
0.0
  0
LINE
  5
19E
  8
0
 10
5.592849
 20
0.594903
 30
0.0
 11
5.592849
 21
1.547242
 31
0.0
  0
LINE
  5
19F
  8
0
 10
5.592849
 20
1.547242
 30
0.0
 11
5.592849
 21
1.861758
 31
0.0
  0
LINE
  5
1A0
  8
0
 10
5.592849
 20
1.861758
 30
0.0
 11
5.592849
 21
2.098855
 31
0.0
  0
LINE
  5
1A1
  8
0
 10
5.592849
 20
2.098855
 30
0.0
 11
5.592849
 21
2.161758
 31
0.0
  0
LINE
  5
1A2
  8
0
 10
5.592849
 20
2.161758
 30
0.0
 11
5.592849
 21
3.347242
 31
0.0
  0
LINE
  5
1A3
  8
0
 10
5.592849
 20
3.347242
 30
0.0
 11
5.592849
 21
3.661758
 31
0.0
  0
LINE
  5
1A4
  8
0
 10
5.592849
 20
3.661758
 30
0.0
 11
5.592849
 21
3.898855
 31
0.0
  0
LINE
  5
1A5
  8
0
 10
5.592849
 20
3.898855
 30
0.0
 11
5.592849
 21
3.961758
 31
0.0
  0
LINE
  5
1A6
  8
0
 10
5.592849
 20
3.961758
 30
0.0
 11
5.592849
 21
5.147242
 31
0.0
  0
LINE
  5
1A7
  8
0
 10
5.592849
 20
5.147242
 30
0.0
 11
5.592849
 21
5.461758
 31
0.0
  0
LINE
  5
1A8
  8
0
 10
5.592849
 20
5.461758
 30
0.0
 11
5.592849
 21
5.698855
 31
0.0
  0
LINE
  5
1A9
  8
0
 10
5.592849
 20
5.698855
 30
0.0
 11
5.592849
 21
5.761758
 31
0.0
  0
LINE
  5
1AA
  8
0
 10
5.592849
 20
5.761758
 30
0.0
 11
5.592849
 21
6.947242
 31
0.0
  0
LINE
  5
1AB
  8
0
 10
5.592849
 20
6.947242
 30
0.0
 11
5.592849
 21
7.261758
 31
0.0
  0
LINE
  5
1AC
  8
0
 10
5.592849
 20
7.261758
 30
0.0
 11
5.592849
 21
7.498855
 31
0.0
  0
LINE
  5
1AD
  8
0
 10
5.592849
 20
7.498855
 30
0.0
 11
5.592849
 21
7.561758
 31
0.0
  0
LINE
  5
1AE
  8
0
 10
5.592849
 20
7.561758
 30
0.0
 11
5.592849
 21
8.747242
 31
0.0
  0
LINE
  5
1AF
  8
0
 10
5.592849
 20
8.747242
 30
0.0
 11
5.592849
 21
9.061758
 31
0.0
  0
LINE
  5
1B0
  8
0
 10
5.592849
 20
9.061758
 30
0.0
 11
5.592849
 21
9.298855
 31
0.0
  0
LINE
  5
1B1
  8
0
 10
5.592849
 20
9.298855
 30
0.0
 11
5.592849
 21
9.361758
 31
0.0
  0
LINE
  5
1B2
  8
0
 10
5.592849
 20
9.361758
 30
0.0
 11
5.592849
 21
10.547242
 31
0.0
  0
LINE
  5
1B3
  8
0
 10
5.592849
 20
10.547242
 30
0.0
 11
5.592849
 21
10.861758
 31
0.0
  0
LINE
  5
1B4
  8
0
 10
5.592849
 20
10.861758
 30
0.0
 11
5.592849
 21
11.098855
 31
0.0
  0
LINE
  5
1B5
  8
0
 10
5.592849
 20
11.098855
 30
0.0
 11
5.592849
 21
11.161758
 31
0.0
  0
LINE
  5
1B6
  8
0
 10
5.592849
 20
11.161758
 30
0.0
 11
5.592849
 21
12.347242
 31
0.0
  0
LINE
  5
1B7
  8
0
 10
5.592849
 20
12.347242
 30
0.0
 11
5.592849
 21
12.661758
 31
0.0
  0
LINE
  5
1B8
  8
0
 10
5.592849
 20
12.661758
 30
0.0
 11
5.592849
 21
12.898855
 31
0.0
  0
LINE
  5
1B9
  8
0
 10
5.592849
 20
12.898855
 30
0.0
 11
5.592849
 21
12.961758
 31
0.0
  0
LINE
  5
1BA
  8
0
 10
5.592849
 20
12.961758
 30
0.0
 11
5.592849
 21
14.147242
 31
0.0
  0
LINE
  5
1BB
  8
0
 10
5.592849
 20
14.147242
 30
0.0
 11
5.592849
 21
14.399903
 31
0.0
  0
LINE
  5
1BC
  8
0
 10
5.592849
 20
14.399903
 30
0.0
 11
5.592849
 21
14.637
 31
0.0
  0
LINE
  5
1BD
  8
0
 10
6.092849
 20
0.548
 30
0.0
 11
6.092849
 21
0.610903
 31
0.0
  0
LINE
  5
1BE
  8
0
 10
6.092849
 20
0.548
 30
0.0
 11
6.092849
 21
0.610903
 31
0.0
  0
LINE
  5
1BF
  8
0
 10
6.092849
 20
0.610903
 30
0.0
 11
6.092849
 21
1.541113
 31
0.0
  0
LINE
  5
1C0
  8
0
 10
6.092849
 20
1.541113
 30
0.0
 11
6.092849
 21
1.855629
 31
0.0
  0
LINE
  5
1C1
  8
0
 10
6.092849
 20
1.855629
 30
0.0
 11
6.092849
 21
2.092726
 31
0.0
  0
LINE
  5
1C2
  8
0
 10
6.092849
 20
2.092726
 30
0.0
 11
6.092849
 21
2.155629
 31
0.0
  0
LINE
  5
1C3
  8
0
 10
6.092849
 20
2.155629
 30
0.0
 11
6.092849
 21
3.341113
 31
0.0
  0
LINE
  5
1C4
  8
0
 10
6.092849
 20
3.341113
 30
0.0
 11
6.092849
 21
3.655629
 31
0.0
  0
LINE
  5
1C5
  8
0
 10
6.092849
 20
3.655629
 30
0.0
 11
6.092849
 21
3.892726
 31
0.0
  0
LINE
  5
1C6
  8
0
 10
6.092849
 20
3.892726
 30
0.0
 11
6.092849
 21
3.955629
 31
0.0
  0
LINE
  5
1C7
  8
0
 10
6.092849
 20
3.955629
 30
0.0
 11
6.092849
 21
5.141113
 31
0.0
  0
LINE
  5
1C8
  8
0
 10
6.092849
 20
5.141113
 30
0.0
 11
6.092849
 21
5.455629
 31
0.0
  0
LINE
  5
1C9
  8
0
 10
6.092849
 20
5.455629
 30
0.0
 11
6.092849
 21
5.692726
 31
0.0
  0
LINE
  5
1CA
  8
0
 10
6.092849
 20
5.692726
 30
0.0
 11
6.092849
 21
5.755629
 31
0.0
  0
LINE
  5
1CB
  8
0
 10
6.092849
 20
5.755629
 30
0.0
 11
6.092849
 21
6.941113
 31
0.0
  0
LINE
  5
1CC
  8
0
 10
6.092849
 20
6.941113
 30
0.0
 11
6.092849
 21
7.255629
 31
0.0
  0
LINE
  5
1CD
  8
0
 10
6.092849
 20
7.255629
 30
0.0
 11
6.092849
 21
7.492726
 31
0.0
  0
LINE
  5
1CE
  8
0
 10
6.092849
 20
7.492726
 30
0.0
 11
6.092849
 21
7.555629
 31
0.0
  0
LINE
  5
1CF
  8
0
 10
6.092849
 20
7.555629
 30
0.0
 11
6.092849
 21
8.741113
 31
0.0
  0
LINE
  5
1D0
  8
0
 10
6.092849
 20
8.741113
 30
0.0
 11
6.092849
 21
9.055629
 31
0.0
  0
LINE
  5
1D1
  8
0
 10
6.092849
 20
9.055629
 30
0.0
 11
6.092849
 21
9.292726
 31
0.0
  0
LINE
  5
1D2
  8
0
 10
6.092849
 20
9.292726
 30
0.0
 11
6.092849
 21
9.355629
 31
0.0
  0
LINE
  5
1D3
  8
0
 10
6.092849
 20
9.355629
 30
0.0
 11
6.092849
 21
10.541113
 31
0.0
  0
LINE
  5
1D4
  8
0
 10
6.092849
 20
10.541113
 30
0.0
 11
6.092849
 21
10.855629
 31
0.0
  0
LINE
  5
1D5
  8
0
 10
6.092849
 20
10.855629
 30
0.0
 11
6.092849
 21
11.092726
 31
0.0
  0
LINE
  5
1D6
  8
0
 10
6.092849
 20
11.092726
 30
0.0
 11
6.092849
 21
11.155629
 31
0.0
  0
LINE
  5
1D7
  8
0
 10
6.092849
 20
11.155629
 30
0.0
 11
6.092849
 21
12.341113
 31
0.0
  0
LINE
  5
1D8
  8
0
 10
6.092849
 20
12.341113
 30
0.0
 11
6.092849
 21
12.655629
 31
0.0
  0
LINE
  5
1D9
  8
0
 10
6.092849
 20
12.655629
 30
0.0
 11
6.092849
 21
12.892726
 31
0.0
  0
LINE
  5
1DA
  8
0
 10
6.092849
 20
12.892726
 30
0.0
 11
6.092849
 21
12.955629
 31
0.0
  0
LINE
  5
1DB
  8
0
 10
6.092849
 20
12.955629
 30
0.0
 11
6.092849
 21
14.141113
 31
0.0
  0
LINE
  5
1DC
  8
0
 10
6.092849
 20
14.141113
 30
0.0
 11
6.092849
 21
14.387903
 31
0.0
  0
LINE
  5
1DD
  8
0
 10
6.092849
 20
14.387903
 30
0.0
 11
6.092849
 21
14.625
 31
0.0
  0
LINE
  5
1DE
  8
0
 10
6.592849
 20
0.563
 30
0.0
 11
6.592849
 21
0.625903
 31
0.0
  0
LINE
  5
1DF
  8
0
 10
6.592849
 20
0.563
 30
0.0
 11
6.592849
 21
0.625903
 31
0.0
  0
LINE
  5
1E0
  8
0
 10
6.592849
 20
0.625903
 30
0.0
 11
6.592849
 21
1.545048
 31
0.0
  0
LINE
  5
1E1
  8
0
 10
6.592849
 20
1.545048
 30
0.0
 11
6.592849
 21
1.859774
 31
0.0
  0
LINE
  5
1E2
  8
0
 10
6.592849
 20
1.859774
 30
0.0
 11
6.592849
 21
2.096871
 31
0.0
  0
LINE
  5
1E3
  8
0
 10
6.592849
 20
2.096871
 30
0.0
 11
6.592849
 21
2.159565
 31
0.0
  0
LINE
  5
1E4
  8
0
 10
6.592849
 20
2.159565
 30
0.0
 11
6.592849
 21
3.345048
 31
0.0
  0
LINE
  5
1E5
  8
0
 10
6.592849
 20
3.345048
 30
0.0
 11
6.592849
 21
3.659774
 31
0.0
  0
LINE
  5
1E6
  8
0
 10
6.592849
 20
3.659774
 30
0.0
 11
6.592849
 21
3.896871
 31
0.0
  0
LINE
  5
1E7
  8
0
 10
6.592849
 20
3.896871
 30
0.0
 11
6.592849
 21
3.959565
 31
0.0
  0
LINE
  5
1E8
  8
0
 10
6.592849
 20
3.959565
 30
0.0
 11
6.592849
 21
5.145048
 31
0.0
  0
LINE
  5
1E9
  8
0
 10
6.592849
 20
5.145048
 30
0.0
 11
6.592849
 21
5.459774
 31
0.0
  0
LINE
  5
1EA
  8
0
 10
6.592849
 20
5.459774
 30
0.0
 11
6.592849
 21
5.696871
 31
0.0
  0
LINE
  5
1EB
  8
0
 10
6.592849
 20
5.696871
 30
0.0
 11
6.592849
 21
5.759565
 31
0.0
  0
LINE
  5
1EC
  8
0
 10
6.592849
 20
5.759565
 30
0.0
 11
6.592849
 21
6.945048
 31
0.0
  0
LINE
  5
1ED
  8
0
 10
6.592849
 20
6.945048
 30
0.0
 11
6.592849
 21
7.259774
 31
0.0
  0
LINE
  5
1EE
  8
0
 10
6.592849
 20
7.259774
 30
0.0
 11
6.592849
 21
7.496871
 31
0.0
  0
LINE
  5
1EF
  8
0
 10
6.592849
 20
7.496871
 30
0.0
 11
6.592849
 21
7.559565
 31
0.0
  0
LINE
  5
1F0
  8
0
 10
6.592849
 20
7.559565
 30
0.0
 11
6.592849
 21
8.745048
 31
0.0
  0
LINE
  5
1F1
  8
0
 10
6.592849
 20
8.745048
 30
0.0
 11
6.592849
 21
9.059774
 31
0.0
  0
LINE
  5
1F2
  8
0
 10
6.592849
 20
9.059774
 30
0.0
 11
6.592849
 21
9.296871
 31
0.0
  0
LINE
  5
1F3
  8
0
 10
6.592849
 20
9.296871
 30
0.0
 11
6.592849
 21
9.359565
 31
0.0
  0
LINE
  5
1F4
  8
0
 10
6.592849
 20
9.359565
 30
0.0
 11
6.592849
 21
10.545048
 31
0.0
  0
LINE
  5
1F5
  8
0
 10
6.592849
 20
10.545048
 30
0.0
 11
6.592849
 21
10.859774
 31
0.0
  0
LINE
  5
1F6
  8
0
 10
6.592849
 20
10.859774
 30
0.0
 11
6.592849
 21
11.096871
 31
0.0
  0
LINE
  5
1F7
  8
0
 10
6.592849
 20
11.096871
 30
0.0
 11
6.592849
 21
11.159565
 31
0.0
  0
LINE
  5
1F8
  8
0
 10
6.592849
 20
11.159565
 30
0.0
 11
6.592849
 21
12.345048
 31
0.0
  0
LINE
  5
1F9
  8
0
 10
6.592849
 20
12.345048
 30
0.0
 11
6.592849
 21
12.659774
 31
0.0
  0
LINE
  5
1FA
  8
0
 10
6.592849
 20
12.659774
 30
0.0
 11
6.592849
 21
12.896871
 31
0.0
  0
LINE
  5
1FB
  8
0
 10
6.592849
 20
12.896871
 30
0.0
 11
6.592849
 21
12.959565
 31
0.0
  0
LINE
  5
1FC
  8
0
 10
6.592849
 20
12.959565
 30
0.0
 11
6.592849
 21
14.145048
 31
0.0
  0
LINE
  5
1FD
  8
0
 10
6.592849
 20
14.145048
 30
0.0
 11
6.592849
 21
14.388903
 31
0.0
  0
LINE
  5
1FE
  8
0
 10
6.592849
 20
14.388903
 30
0.0
 11
6.592849
 21
14.626
 31
0.0
  0
LINE
  5
1FF
  8
0
 10
7.092849
 20
0.579
 30
0.0
 11
7.092849
 21
0.641903
 31
0.0
  0
LINE
  5
200
  8
0
 10
7.092849
 20
0.579
 30
0.0
 11
7.092849
 21
0.641903
 31
0.0
  0
LINE
  5
201
  8
0
 10
7.092849
 20
0.641903
 30
0.0
 11
7.092849
 21
1.549194
 31
0.0
  0
LINE
  5
202
  8
0
 10
7.092849
 20
1.549194
 30
0.0
 11
7.092849
 21
1.86371
 31
0.0
  0
LINE
  5
203
  8
0
 10
7.092849
 20
1.86371
 30
0.0
 11
7.092849
 21
2.100806
 31
0.0
  0
LINE
  5
204
  8
0
 10
7.092849
 20
2.100806
 30
0.0
 11
7.092849
 21
2.16371
 31
0.0
  0
LINE
  5
205
  8
0
 10
7.092849
 20
2.16371
 30
0.0
 11
7.092849
 21
3.349194
 31
0.0
  0
LINE
  5
206
  8
0
 10
7.092849
 20
3.349194
 30
0.0
 11
7.092849
 21
3.66371
 31
0.0
  0
LINE
  5
207
  8
0
 10
7.092849
 20
3.66371
 30
0.0
 11
7.092849
 21
3.900806
 31
0.0
  0
LINE
  5
208
  8
0
 10
7.092849
 20
3.900806
 30
0.0
 11
7.092849
 21
3.96371
 31
0.0
  0
LINE
  5
209
  8
0
 10
7.092849
 20
3.96371
 30
0.0
 11
7.092849
 21
5.149194
 31
0.0
  0
LINE
  5
20A
  8
0
 10
7.092849
 20
5.149194
 30
0.0
 11
7.092849
 21
5.46371
 31
0.0
  0
LINE
  5
20B
  8
0
 10
7.092849
 20
5.46371
 30
0.0
 11
7.092849
 21
5.700806
 31
0.0
  0
LINE
  5
20C
  8
0
 10
7.092849
 20
5.700806
 30
0.0
 11
7.092849
 21
5.76371
 31
0.0
  0
LINE
  5
20D
  8
0
 10
7.092849
 20
5.76371
 30
0.0
 11
7.092849
 21
6.949194
 31
0.0
  0
LINE
  5
20E
  8
0
 10
7.092849
 20
6.949194
 30
0.0
 11
7.092849
 21
7.26371
 31
0.0
  0
LINE
  5
20F
  8
0
 10
7.092849
 20
7.26371
 30
0.0
 11
7.092849
 21
7.500806
 31
0.0
  0
LINE
  5
210
  8
0
 10
7.092849
 20
7.500806
 30
0.0
 11
7.092849
 21
7.56371
 31
0.0
  0
LINE
  5
211
  8
0
 10
7.092849
 20
7.56371
 30
0.0
 11
7.092849
 21
8.749194
 31
0.0
  0
LINE
  5
212
  8
0
 10
7.092849
 20
8.749194
 30
0.0
 11
7.092849
 21
9.06371
 31
0.0
  0
LINE
  5
213
  8
0
 10
7.092849
 20
9.06371
 30
0.0
 11
7.092849
 21
9.300806
 31
0.0
  0
LINE
  5
214
  8
0
 10
7.092849
 20
9.300806
 30
0.0
 11
7.092849
 21
9.36371
 31
0.0
  0
LINE
  5
215
  8
0
 10
7.092849
 20
9.36371
 30
0.0
 11
7.092849
 21
10.549194
 31
0.0
  0
LINE
  5
216
  8
0
 10
7.092849
 20
10.549194
 30
0.0
 11
7.092849
 21
10.86371
 31
0.0
  0
LINE
  5
217
  8
0
 10
7.092849
 20
10.86371
 30
0.0
 11
7.092849
 21
11.100806
 31
0.0
  0
LINE
  5
218
  8
0
 10
7.092849
 20
11.100806
 30
0.0
 11
7.092849
 21
11.16371
 31
0.0
  0
LINE
  5
219
  8
0
 10
7.092849
 20
11.16371
 30
0.0
 11
7.092849
 21
12.349194
 31
0.0
  0
LINE
  5
21A
  8
0
 10
7.092849
 20
12.349194
 30
0.0
 11
7.092849
 21
12.66371
 31
0.0
  0
LINE
  5
21B
  8
0
 10
7.092849
 20
12.66371
 30
0.0
 11
7.092849
 21
12.900806
 31
0.0
  0
LINE
  5
21C
  8
0
 10
7.092849
 20
12.900806
 30
0.0
 11
7.092849
 21
12.96371
 31
0.0
  0
LINE
  5
21D
  8
0
 10
7.092849
 20
12.96371
 30
0.0
 11
7.092849
 21
14.149194
 31
0.0
  0
LINE
  5
21E
  8
0
 10
7.092849
 20
14.149194
 30
0.0
 11
7.092849
 21
14.389903
 31
0.0
  0
LINE
  5
21F
  8
0
 10
7.092849
 20
14.389903
 30
0.0
 11
7.092849
 21
14.627
 31
0.0
  0
LINE
  5
220
  8
0
 10
7.592849
 20
0.574
 30
0.0
 11
7.592849
 21
0.57479
 31
0.0
  0
LINE
  5
221
  8
0
 10
7.592849
 20
0.574
 30
0.0
 11
7.592849
 21
0.57479
 31
0.0
  0
LINE
  5
222
  8
0
 10
7.592849
 20
0.57479
 30
0.0
 11
7.592849
 21
0.637903
 31
0.0
  0
LINE
  5
223
  8
0
 10
7.592849
 20
0.637903
 30
0.0
 11
7.592849
 21
1.549145
 31
0.0
  0
LINE
  5
224
  8
0
 10
7.592849
 20
1.549145
 30
0.0
 11
7.592849
 21
1.863661
 31
0.0
  0
LINE
  5
225
  8
0
 10
7.592849
 20
1.863661
 30
0.0
 11
7.592849
 21
2.099968
 31
0.0
  0
LINE
  5
226
  8
0
 10
7.592849
 20
2.099968
 30
0.0
 11
7.592849
 21
2.162871
 31
0.0
  0
LINE
  5
227
  8
0
 10
7.592849
 20
2.162871
 30
0.0
 11
7.592849
 21
3.349145
 31
0.0
  0
LINE
  5
228
  8
0
 10
7.592849
 20
3.349145
 30
0.0
 11
7.592849
 21
3.663661
 31
0.0
  0
LINE
  5
229
  8
0
 10
7.592849
 20
3.663661
 30
0.0
 11
7.592849
 21
3.899968
 31
0.0
  0
LINE
  5
22A
  8
0
 10
7.592849
 20
3.899968
 30
0.0
 11
7.592849
 21
3.962871
 31
0.0
  0
LINE
  5
22B
  8
0
 10
7.592849
 20
3.962871
 30
0.0
 11
7.592849
 21
5.149145
 31
0.0
  0
LINE
  5
22C
  8
0
 10
7.592849
 20
5.149145
 30
0.0
 11
7.592849
 21
5.463661
 31
0.0
  0
LINE
  5
22D
  8
0
 10
7.592849
 20
5.463661
 30
0.0
 11
7.592849
 21
5.699968
 31
0.0
  0
LINE
  5
22E
  8
0
 10
7.592849
 20
5.699968
 30
0.0
 11
7.592849
 21
5.762871
 31
0.0
  0
LINE
  5
22F
  8
0
 10
7.592849
 20
5.762871
 30
0.0
 11
7.592849
 21
6.949145
 31
0.0
  0
LINE
  5
230
  8
0
 10
7.592849
 20
6.949145
 30
0.0
 11
7.592849
 21
7.263661
 31
0.0
  0
LINE
  5
231
  8
0
 10
7.592849
 20
7.263661
 30
0.0
 11
7.592849
 21
7.499968
 31
0.0
  0
LINE
  5
232
  8
0
 10
7.592849
 20
7.499968
 30
0.0
 11
7.592849
 21
7.562871
 31
0.0
  0
LINE
  5
233
  8
0
 10
7.592849
 20
7.562871
 30
0.0
 11
7.592849
 21
8.749145
 31
0.0
  0
LINE
  5
234
  8
0
 10
7.592849
 20
8.749145
 30
0.0
 11
7.592849
 21
9.063661
 31
0.0
  0
LINE
  5
235
  8
0
 10
7.592849
 20
9.063661
 30
0.0
 11
7.592849
 21
9.299968
 31
0.0
  0
LINE
  5
236
  8
0
 10
7.592849
 20
9.299968
 30
0.0
 11
7.592849
 21
9.362871
 31
0.0
  0
LINE
  5
237
  8
0
 10
7.592849
 20
9.362871
 30
0.0
 11
7.592849
 21
10.549145
 31
0.0
  0
LINE
  5
238
  8
0
 10
7.592849
 20
10.549145
 30
0.0
 11
7.592849
 21
10.863661
 31
0.0
  0
LINE
  5
239
  8
0
 10
7.592849
 20
10.863661
 30
0.0
 11
7.592849
 21
11.099968
 31
0.0
  0
LINE
  5
23A
  8
0
 10
7.592849
 20
11.099968
 30
0.0
 11
7.592849
 21
11.162871
 31
0.0
  0
LINE
  5
23B
  8
0
 10
7.592849
 20
11.162871
 30
0.0
 11
7.592849
 21
12.349145
 31
0.0
  0
LINE
  5
23C
  8
0
 10
7.592849
 20
12.349145
 30
0.0
 11
7.592849
 21
12.663661
 31
0.0
  0
LINE
  5
23D
  8
0
 10
7.592849
 20
12.663661
 30
0.0
 11
7.592849
 21
12.899968
 31
0.0
  0
LINE
  5
23E
  8
0
 10
7.592849
 20
12.899968
 30
0.0
 11
7.592849
 21
12.962871
 31
0.0
  0
LINE
  5
23F
  8
0
 10
7.592849
 20
12.962871
 30
0.0
 11
7.592849
 21
14.149145
 31
0.0
  0
LINE
  5
240
  8
0
 10
7.592849
 20
14.149145
 30
0.0
 11
7.592849
 21
14.390903
 31
0.0
  0
LINE
  5
241
  8
0
 10
7.592849
 20
14.390903
 30
0.0
 11
7.592849
 21
14.628
 31
0.0
  0
LINE
  5
242
  8
0
 10
8.092849
 20
0.563
 30
0.0
 11
8.092849
 21
0.625903
 31
0.0
  0
LINE
  5
243
  8
0
 10
8.092849
 20
0.563
 30
0.0
 11
8.092849
 21
0.625903
 31
0.0
  0
LINE
  5
244
  8
0
 10
8.092849
 20
0.625903
 30
0.0
 11
8.092849
 21
1.546629
 31
0.0
  0
LINE
  5
245
  8
0
 10
8.092849
 20
1.546629
 30
0.0
 11
8.092849
 21
1.861145
 31
0.0
  0
LINE
  5
246
  8
0
 10
8.092849
 20
1.861145
 30
0.0
 11
8.092849
 21
2.098242
 31
0.0
  0
LINE
  5
247
  8
0
 10
8.092849
 20
2.098242
 30
0.0
 11
8.092849
 21
2.161145
 31
0.0
  0
LINE
  5
248
  8
0
 10
8.092849
 20
2.161145
 30
0.0
 11
8.092849
 21
3.346629
 31
0.0
  0
LINE
  5
249
  8
0
 10
8.092849
 20
3.346629
 30
0.0
 11
8.092849
 21
3.661145
 31
0.0
  0
LINE
  5
24A
  8
0
 10
8.092849
 20
3.661145
 30
0.0
 11
8.092849
 21
3.898242
 31
0.0
  0
LINE
  5
24B
  8
0
 10
8.092849
 20
3.898242
 30
0.0
 11
8.092849
 21
3.961145
 31
0.0
  0
LINE
  5
24C
  8
0
 10
8.092849
 20
3.961145
 30
0.0
 11
8.092849
 21
5.146629
 31
0.0
  0
LINE
  5
24D
  8
0
 10
8.092849
 20
5.146629
 30
0.0
 11
8.092849
 21
5.461145
 31
0.0
  0
LINE
  5
24E
  8
0
 10
8.092849
 20
5.461145
 30
0.0
 11
8.092849
 21
5.698242
 31
0.0
  0
LINE
  5
24F
  8
0
 10
8.092849
 20
5.698242
 30
0.0
 11
8.092849
 21
5.761145
 31
0.0
  0
LINE
  5
250
  8
0
 10
8.092849
 20
5.761145
 30
0.0
 11
8.092849
 21
6.946629
 31
0.0
  0
LINE
  5
251
  8
0
 10
8.092849
 20
6.946629
 30
0.0
 11
8.092849
 21
7.261145
 31
0.0
  0
LINE
  5
252
  8
0
 10
8.092849
 20
7.261145
 30
0.0
 11
8.092849
 21
7.498242
 31
0.0
  0
LINE
  5
253
  8
0
 10
8.092849
 20
7.498242
 30
0.0
 11
8.092849
 21
7.561145
 31
0.0
  0
LINE
  5
254
  8
0
 10
8.092849
 20
7.561145
 30
0.0
 11
8.092849
 21
8.746629
 31
0.0
  0
LINE
  5
255
  8
0
 10
8.092849
 20
8.746629
 30
0.0
 11
8.092849
 21
9.061145
 31
0.0
  0
LINE
  5
256
  8
0
 10
8.092849
 20
9.061145
 30
0.0
 11
8.092849
 21
9.298242
 31
0.0
  0
LINE
  5
257
  8
0
 10
8.092849
 20
9.298242
 30
0.0
 11
8.092849
 21
9.361145
 31
0.0
  0
LINE
  5
258
  8
0
 10
8.092849
 20
9.361145
 30
0.0
 11
8.092849
 21
10.546629
 31
0.0
  0
LINE
  5
259
  8
0
 10
8.092849
 20
10.546629
 30
0.0
 11
8.092849
 21
10.861145
 31
0.0
  0
LINE
  5
25A
  8
0
 10
8.092849
 20
10.861145
 30
0.0
 11
8.092849
 21
11.098242
 31
0.0
  0
LINE
  5
25B
  8
0
 10
8.092849
 20
11.098242
 30
0.0
 11
8.092849
 21
11.161145
 31
0.0
  0
LINE
  5
25C
  8
0
 10
8.092849
 20
11.161145
 30
0.0
 11
8.092849
 21
12.346629
 31
0.0
  0
LINE
  5
25D
  8
0
 10
8.092849
 20
12.346629
 30
0.0
 11
8.092849
 21
12.661145
 31
0.0
  0
LINE
  5
25E
  8
0
 10
8.092849
 20
12.661145
 30
0.0
 11
8.092849
 21
12.898242
 31
0.0
  0
LINE
  5
25F
  8
0
 10
8.092849
 20
12.898242
 30
0.0
 11
8.092849
 21
12.961145
 31
0.0
  0
LINE
  5
260
  8
0
 10
8.092849
 20
12.961145
 30
0.0
 11
8.092849
 21
14.146629
 31
0.0
  0
LINE
  5
261
  8
0
 10
8.092849
 20
14.146629
 30
0.0
 11
8.092849
 21
14.390903
 31
0.0
  0
LINE
  5
262
  8
0
 10
8.092849
 20
14.390903
 30
0.0
 11
8.092849
 21
14.628
 31
0.0
  0
LINE
  5
263
  8
0
 10
8.592849
 20
0.551
 30
0.0
 11
8.592849
 21
0.613903
 31
0.0
  0
LINE
  5
264
  8
0
 10
8.592849
 20
0.551
 30
0.0
 11
8.592849
 21
0.613903
 31
0.0
  0
LINE
  5
265
  8
0
 10
8.592849
 20
0.613903
 30
0.0
 11
8.592849
 21
1.544903
 31
0.0
  0
LINE
  5
266
  8
0
 10
8.592849
 20
1.544903
 30
0.0
 11
8.592849
 21
1.859419
 31
0.0
  0
LINE
  5
267
  8
0
 10
8.592849
 20
1.859419
 30
0.0
 11
8.592849
 21
2.096516
 31
0.0
  0
LINE
  5
268
  8
0
 10
8.592849
 20
2.096516
 30
0.0
 11
8.592849
 21
2.159419
 31
0.0
  0
LINE
  5
269
  8
0
 10
8.592849
 20
2.159419
 30
0.0
 11
8.592849
 21
3.344903
 31
0.0
  0
LINE
  5
26A
  8
0
 10
8.592849
 20
3.344903
 30
0.0
 11
8.592849
 21
3.659419
 31
0.0
  0
LINE
  5
26B
  8
0
 10
8.592849
 20
3.659419
 30
0.0
 11
8.592849
 21
3.896516
 31
0.0
  0
LINE
  5
26C
  8
0
 10
8.592849
 20
3.896516
 30
0.0
 11
8.592849
 21
3.959419
 31
0.0
  0
LINE
  5
26D
  8
0
 10
8.592849
 20
3.959419
 30
0.0
 11
8.592849
 21
5.144903
 31
0.0
  0
LINE
  5
26E
  8
0
 10
8.592849
 20
5.144903
 30
0.0
 11
8.592849
 21
5.459419
 31
0.0
  0
LINE
  5
26F
  8
0
 10
8.592849
 20
5.459419
 30
0.0
 11
8.592849
 21
5.696516
 31
0.0
  0
LINE
  5
270
  8
0
 10
8.592849
 20
5.696516
 30
0.0
 11
8.592849
 21
5.759419
 31
0.0
  0
LINE
  5
271
  8
0
 10
8.592849
 20
5.759419
 30
0.0
 11
8.592849
 21
6.944903
 31
0.0
  0
LINE
  5
272
  8
0
 10
8.592849
 20
6.944903
 30
0.0
 11
8.592849
 21
7.259419
 31
0.0
  0
LINE
  5
273
  8
0
 10
8.592849
 20
7.259419
 30
0.0
 11
8.592849
 21
7.496516
 31
0.0
  0
LINE
  5
274
  8
0
 10
8.592849
 20
7.496516
 30
0.0
 11
8.592849
 21
7.559419
 31
0.0
  0
LINE
  5
275
  8
0
 10
8.592849
 20
7.559419
 30
0.0
 11
8.592849
 21
8.744903
 31
0.0
  0
LINE
  5
276
  8
0
 10
8.592849
 20
8.744903
 30
0.0
 11
8.592849
 21
9.059419
 31
0.0
  0
LINE
  5
277
  8
0
 10
8.592849
 20
9.059419
 30
0.0
 11
8.592849
 21
9.296516
 31
0.0
  0
LINE
  5
278
  8
0
 10
8.592849
 20
9.296516
 30
0.0
 11
8.592849
 21
9.359419
 31
0.0
  0
LINE
  5
279
  8
0
 10
8.592849
 20
9.359419
 30
0.0
 11
8.592849
 21
10.544903
 31
0.0
  0
LINE
  5
27A
  8
0
 10
8.592849
 20
10.544903
 30
0.0
 11
8.592849
 21
10.859419
 31
0.0
  0
LINE
  5
27B
  8
0
 10
8.592849
 20
10.859419
 30
0.0
 11
8.592849
 21
11.096516
 31
0.0
  0
LINE
  5
27C
  8
0
 10
8.592849
 20
11.096516
 30
0.0
 11
8.592849
 21
11.159419
 31
0.0
  0
LINE
  5
27D
  8
0
 10
8.592849
 20
11.159419
 30
0.0
 11
8.592849
 21
12.344903
 31
0.0
  0
LINE
  5
27E
  8
0
 10
8.592849
 20
12.344903
 30
0.0
 11
8.592849
 21
12.659419
 31
0.0
  0
LINE
  5
27F
  8
0
 10
8.592849
 20
12.659419
 30
0.0
 11
8.592849
 21
12.896516
 31
0.0
  0
LINE
  5
280
  8
0
 10
8.592849
 20
12.896516
 30
0.0
 11
8.592849
 21
12.959419
 31
0.0
  0
LINE
  5
281
  8
0
 10
8.592849
 20
12.959419
 30
0.0
 11
8.592849
 21
14.144903
 31
0.0
  0
LINE
  5
282
  8
0
 10
8.592849
 20
14.144903
 30
0.0
 11
8.592849
 21
14.391903
 31
0.0
  0
LINE
  5
283
  8
0
 10
8.592849
 20
14.391903
 30
0.0
 11
8.592849
 21
14.629
 31
0.0
  0
LINE
  5
284
  8
0
 10
9.092849
 20
0.539
 30
0.0
 11
9.092849
 21
0.601903
 31
0.0
  0
LINE
  5
285
  8
0
 10
9.092849
 20
0.539
 30
0.0
 11
9.092849
 21
0.601903
 31
0.0
  0
LINE
  5
286
  8
0
 10
9.092849
 20
0.601903
 30
0.0
 11
9.092849
 21
1.543177
 31
0.0
  0
LINE
  5
287
  8
0
 10
9.092849
 20
1.543177
 30
0.0
 11
9.092849
 21
1.857694
 31
0.0
  0
LINE
  5
288
  8
0
 10
9.092849
 20
1.857694
 30
0.0
 11
9.092849
 21
2.09479
 31
0.0
  0
LINE
  5
289
  8
0
 10
9.092849
 20
2.09479
 30
0.0
 11
9.092849
 21
2.157694
 31
0.0
  0
LINE
  5
28A
  8
0
 10
9.092849
 20
2.157694
 30
0.0
 11
9.092849
 21
3.343177
 31
0.0
  0
LINE
  5
28B
  8
0
 10
9.092849
 20
3.343177
 30
0.0
 11
9.092849
 21
3.657694
 31
0.0
  0
LINE
  5
28C
  8
0
 10
9.092849
 20
3.657694
 30
0.0
 11
9.092849
 21
3.89479
 31
0.0
  0
LINE
  5
28D
  8
0
 10
9.092849
 20
3.89479
 30
0.0
 11
9.092849
 21
3.957694
 31
0.0
  0
LINE
  5
28E
  8
0
 10
9.092849
 20
3.957694
 30
0.0
 11
9.092849
 21
5.143177
 31
0.0
  0
LINE
  5
28F
  8
0
 10
9.092849
 20
5.143177
 30
0.0
 11
9.092849
 21
5.457694
 31
0.0
  0
LINE
  5
290
  8
0
 10
9.092849
 20
5.457694
 30
0.0
 11
9.092849
 21
5.69479
 31
0.0
  0
LINE
  5
291
  8
0
 10
9.092849
 20
5.69479
 30
0.0
 11
9.092849
 21
5.757694
 31
0.0
  0
LINE
  5
292
  8
0
 10
9.092849
 20
5.757694
 30
0.0
 11
9.092849
 21
6.943177
 31
0.0
  0
LINE
  5
293
  8
0
 10
9.092849
 20
6.943177
 30
0.0
 11
9.092849
 21
7.257694
 31
0.0
  0
LINE
  5
294
  8
0
 10
9.092849
 20
7.257694
 30
0.0
 11
9.092849
 21
7.49479
 31
0.0
  0
LINE
  5
295
  8
0
 10
9.092849
 20
7.49479
 30
0.0
 11
9.092849
 21
7.557694
 31
0.0
  0
LINE
  5
296
  8
0
 10
9.092849
 20
7.557694
 30
0.0
 11
9.092849
 21
8.743177
 31
0.0
  0
LINE
  5
297
  8
0
 10
9.092849
 20
8.743177
 30
0.0
 11
9.092849
 21
9.057694
 31
0.0
  0
LINE
  5
298
  8
0
 10
9.092849
 20
9.057694
 30
0.0
 11
9.092849
 21
9.29479
 31
0.0
  0
LINE
  5
299
  8
0
 10
9.092849
 20
9.29479
 30
0.0
 11
9.092849
 21
9.357694
 31
0.0
  0
LINE
  5
29A
  8
0
 10
9.092849
 20
9.357694
 30
0.0
 11
9.092849
 21
10.543177
 31
0.0
  0
LINE
  5
29B
  8
0
 10
9.092849
 20
10.543177
 30
0.0
 11
9.092849
 21
10.857694
 31
0.0
  0
LINE
  5
29C
  8
0
 10
9.092849
 20
10.857694
 30
0.0
 11
9.092849
 21
11.09479
 31
0.0
  0
LINE
  5
29D
  8
0
 10
9.092849
 20
11.09479
 30
0.0
 11
9.092849
 21
11.157694
 31
0.0
  0
LINE
  5
29E
  8
0
 10
9.092849
 20
11.157694
 30
0.0
 11
9.092849
 21
12.343177
 31
0.0
  0
LINE
  5
29F
  8
0
 10
9.092849
 20
12.343177
 30
0.0
 11
9.092849
 21
12.657694
 31
0.0
  0
LINE
  5
2A0
  8
0
 10
9.092849
 20
12.657694
 30
0.0
 11
9.092849
 21
12.89479
 31
0.0
  0
LINE
  5
2A1
  8
0
 10
9.092849
 20
12.89479
 30
0.0
 11
9.092849
 21
12.957694
 31
0.0
  0
LINE
  5
2A2
  8
0
 10
9.092849
 20
12.957694
 30
0.0
 11
9.092849
 21
14.143177
 31
0.0
  0
LINE
  5
2A3
  8
0
 10
9.092849
 20
14.143177
 30
0.0
 11
9.092849
 21
14.392903
 31
0.0
  0
LINE
  5
2A4
  8
0
 10
9.092849
 20
14.392903
 30
0.0
 11
9.092849
 21
14.63
 31
0.0
  0
LINE
  5
2A5
  8
0
 10
9.592849
 20
0.527
 30
0.0
 11
9.592849
 21
0.589903
 31
0.0
  0
LINE
  5
2A6
  8
0
 10
9.592849
 20
0.527
 30
0.0
 11
9.592849
 21
0.589903
 31
0.0
  0
LINE
  5
2A7
  8
0
 10
9.592849
 20
0.589903
 30
0.0
 11
9.592849
 21
1.540661
 31
0.0
  0
LINE
  5
2A8
  8
0
 10
9.592849
 20
1.540661
 30
0.0
 11
9.592849
 21
1.855177
 31
0.0
  0
LINE
  5
2A9
  8
0
 10
9.592849
 20
1.855177
 30
0.0
 11
9.592849
 21
2.092274
 31
0.0
  0
LINE
  5
2AA
  8
0
 10
9.592849
 20
2.092274
 30
0.0
 11
9.592849
 21
2.155177
 31
0.0
  0
LINE
  5
2AB
  8
0
 10
9.592849
 20
2.155177
 30
0.0
 11
9.592849
 21
3.340661
 31
0.0
  0
LINE
  5
2AC
  8
0
 10
9.592849
 20
3.340661
 30
0.0
 11
9.592849
 21
3.655177
 31
0.0
  0
LINE
  5
2AD
  8
0
 10
9.592849
 20
3.655177
 30
0.0
 11
9.592849
 21
3.892274
 31
0.0
  0
LINE
  5
2AE
  8
0
 10
9.592849
 20
3.892274
 30
0.0
 11
9.592849
 21
3.955177
 31
0.0
  0
LINE
  5
2AF
  8
0
 10
9.592849
 20
3.955177
 30
0.0
 11
9.592849
 21
5.140661
 31
0.0
  0
LINE
  5
2B0
  8
0
 10
9.592849
 20
5.140661
 30
0.0
 11
9.592849
 21
5.455177
 31
0.0
  0
LINE
  5
2B1
  8
0
 10
9.592849
 20
5.455177
 30
0.0
 11
9.592849
 21
5.692274
 31
0.0
  0
LINE
  5
2B2
  8
0
 10
9.592849
 20
5.692274
 30
0.0
 11
9.592849
 21
5.755177
 31
0.0
  0
LINE
  5
2B3
  8
0
 10
9.592849
 20
5.755177
 30
0.0
 11
9.592849
 21
6.940661
 31
0.0
  0
LINE
  5
2B4
  8
0
 10
9.592849
 20
6.940661
 30
0.0
 11
9.592849
 21
7.255177
 31
0.0
  0
LINE
  5
2B5
  8
0
 10
9.592849
 20
7.255177
 30
0.0
 11
9.592849
 21
7.492274
 31
0.0
  0
LINE
  5
2B6
  8
0
 10
9.592849
 20
7.492274
 30
0.0
 11
9.592849
 21
7.555177
 31
0.0
  0
LINE
  5
2B7
  8
0
 10
9.592849
 20
7.555177
 30
0.0
 11
9.592849
 21
8.740661
 31
0.0
  0
LINE
  5
2B8
  8
0
 10
9.592849
 20
8.740661
 30
0.0
 11
9.592849
 21
9.055177
 31
0.0
  0
LINE
  5
2B9
  8
0
 10
9.592849
 20
9.055177
 30
0.0
 11
9.592849
 21
9.292274
 31
0.0
  0
LINE
  5
2BA
  8
0
 10
9.592849
 20
9.292274
 30
0.0
 11
9.592849
 21
9.355177
 31
0.0
  0
LINE
  5
2BB
  8
0
 10
9.592849
 20
9.355177
 30
0.0
 11
9.592849
 21
10.540661
 31
0.0
  0
LINE
  5
2BC
  8
0
 10
9.592849
 20
10.540661
 30
0.0
 11
9.592849
 21
10.855177
 31
0.0
  0
LINE
  5
2BD
  8
0
 10
9.592849
 20
10.855177
 30
0.0
 11
9.592849
 21
11.092274
 31
0.0
  0
LINE
  5
2BE
  8
0
 10
9.592849
 20
11.092274
 30
0.0
 11
9.592849
 21
11.155177
 31
0.0
  0
LINE
  5
2BF
  8
0
 10
9.592849
 20
11.155177
 30
0.0
 11
9.592849
 21
12.340661
 31
0.0
  0
LINE
  5
2C0
  8
0
 10
9.592849
 20
12.340661
 30
0.0
 11
9.592849
 21
12.655177
 31
0.0
  0
LINE
  5
2C1
  8
0
 10
9.592849
 20
12.655177
 30
0.0
 11
9.592849
 21
12.892274
 31
0.0
  0
LINE
  5
2C2
  8
0
 10
9.592849
 20
12.892274
 30
0.0
 11
9.592849
 21
12.955177
 31
0.0
  0
LINE
  5
2C3
  8
0
 10
9.592849
 20
12.955177
 30
0.0
 11
9.592849
 21
14.140661
 31
0.0
  0
LINE
  5
2C4
  8
0
 10
9.592849
 20
14.140661
 30
0.0
 11
9.592849
 21
14.392903
 31
0.0
  0
LINE
  5
2C5
  8
0
 10
9.592849
 20
14.392903
 30
0.0
 11
9.592849
 21
14.63
 31
0.0
  0
LINE
  5
2C6
  8
0
 10
10.092849
 20
0.515
 30
0.0
 11
10.092849
 21
0.577903
 31
0.0
  0
LINE
  5
2C7
  8
0
 10
10.092849
 20
0.515
 30
0.0
 11
10.092849
 21
0.577903
 31
0.0
  0
LINE
  5
2C8
  8
0
 10
10.092849
 20
0.577903
 30
0.0
 11
10.092849
 21
1.538935
 31
0.0
  0
LINE
  5
2C9
  8
0
 10
10.092849
 20
1.538935
 30
0.0
 11
10.092849
 21
1.853452
 31
0.0
  0
LINE
  5
2CA
  8
0
 10
10.092849
 20
1.853452
 30
0.0
 11
10.092849
 21
2.090548
 31
0.0
  0
LINE
  5
2CB
  8
0
 10
10.092849
 20
2.090548
 30
0.0
 11
10.092849
 21
2.153452
 31
0.0
  0
LINE
  5
2CC
  8
0
 10
10.092849
 20
2.153452
 30
0.0
 11
10.092849
 21
3.338935
 31
0.0
  0
LINE
  5
2CD
  8
0
 10
10.092849
 20
3.338935
 30
0.0
 11
10.092849
 21
3.653452
 31
0.0
  0
LINE
  5
2CE
  8
0
 10
10.092849
 20
3.653452
 30
0.0
 11
10.092849
 21
3.890548
 31
0.0
  0
LINE
  5
2CF
  8
0
 10
10.092849
 20
3.890548
 30
0.0
 11
10.092849
 21
3.953452
 31
0.0
  0
LINE
  5
2D0
  8
0
 10
10.092849
 20
3.953452
 30
0.0
 11
10.092849
 21
5.138935
 31
0.0
  0
LINE
  5
2D1
  8
0
 10
10.092849
 20
5.138935
 30
0.0
 11
10.092849
 21
5.453452
 31
0.0
  0
LINE
  5
2D2
  8
0
 10
10.092849
 20
5.453452
 30
0.0
 11
10.092849
 21
5.690548
 31
0.0
  0
LINE
  5
2D3
  8
0
 10
10.092849
 20
5.690548
 30
0.0
 11
10.092849
 21
5.753452
 31
0.0
  0
LINE
  5
2D4
  8
0
 10
10.092849
 20
5.753452
 30
0.0
 11
10.092849
 21
6.938935
 31
0.0
  0
LINE
  5
2D5
  8
0
 10
10.092849
 20
6.938935
 30
0.0
 11
10.092849
 21
7.253452
 31
0.0
  0
LINE
  5
2D6
  8
0
 10
10.092849
 20
7.253452
 30
0.0
 11
10.092849
 21
7.490548
 31
0.0
  0
LINE
  5
2D7
  8
0
 10
10.092849
 20
7.490548
 30
0.0
 11
10.092849
 21
7.553452
 31
0.0
  0
LINE
  5
2D8
  8
0
 10
10.092849
 20
7.553452
 30
0.0
 11
10.092849
 21
8.738935
 31
0.0
  0
LINE
  5
2D9
  8
0
 10
10.092849
 20
8.738935
 30
0.0
 11
10.092849
 21
9.053452
 31
0.0
  0
LINE
  5
2DA
  8
0
 10
10.092849
 20
9.053452
 30
0.0
 11
10.092849
 21
9.290548
 31
0.0
  0
LINE
  5
2DB
  8
0
 10
10.092849
 20
9.290548
 30
0.0
 11
10.092849
 21
9.353452
 31
0.0
  0
LINE
  5
2DC
  8
0
 10
10.092849
 20
9.353452
 30
0.0
 11
10.092849
 21
10.538935
 31
0.0
  0
LINE
  5
2DD
  8
0
 10
10.092849
 20
10.538935
 30
0.0
 11
10.092849
 21
10.853452
 31
0.0
  0
LINE
  5
2DE
  8
0
 10
10.092849
 20
10.853452
 30
0.0
 11
10.092849
 21
11.090548
 31
0.0
  0
LINE
  5
2DF
  8
0
 10
10.092849
 20
11.090548
 30
0.0
 11
10.092849
 21
11.153452
 31
0.0
  0
LINE
  5
2E0
  8
0
 10
10.092849
 20
11.153452
 30
0.0
 11
10.092849
 21
12.338935
 31
0.0
  0
LINE
  5
2E1
  8
0
 10
10.092849
 20
12.338935
 30
0.0
 11
10.092849
 21
12.653452
 31
0.0
  0
LINE
  5
2E2
  8
0
 10
10.092849
 20
12.653452
 30
0.0
 11
10.092849
 21
12.890548
 31
0.0
  0
LINE
  5
2E3
  8
0
 10
10.092849
 20
12.890548
 30
0.0
 11
10.092849
 21
12.953452
 31
0.0
  0
LINE
  5
2E4
  8
0
 10
10.092849
 20
12.953452
 30
0.0
 11
10.092849
 21
14.138935
 31
0.0
  0
LINE
  5
2E5
  8
0
 10
10.092849
 20
14.138935
 30
0.0
 11
10.092849
 21
14.393903
 31
0.0
  0
LINE
  5
2E6
  8
0
 10
10.092849
 20
14.393903
 30
0.0
 11
10.092849
 21
14.631
 31
0.0
  0
LINE
  5
2E7
  8
0
 10
10.592849
 20
0.503
 30
0.0
 11
10.592849
 21
0.565903
 31
0.0
  0
LINE
  5
2E8
  8
0
 10
10.592849
 20
0.503
 30
0.0
 11
10.592849
 21
0.565903
 31
0.0
  0
LINE
  5
2E9
  8
0
 10
10.592849
 20
0.565903
 30
0.0
 11
10.592849
 21
1.53721
 31
0.0
  0
LINE
  5
2EA
  8
0
 10
10.592849
 20
1.53721
 30
0.0
 11
10.592849
 21
1.851726
 31
0.0
  0
LINE
  5
2EB
  8
0
 10
10.592849
 20
1.851726
 30
0.0
 11
10.592849
 21
2.088823
 31
0.0
  0
LINE
  5
2EC
  8
0
 10
10.592849
 20
2.088823
 30
0.0
 11
10.592849
 21
2.151726
 31
0.0
  0
LINE
  5
2ED
  8
0
 10
10.592849
 20
2.151726
 30
0.0
 11
10.592849
 21
3.33721
 31
0.0
  0
LINE
  5
2EE
  8
0
 10
10.592849
 20
3.33721
 30
0.0
 11
10.592849
 21
3.651726
 31
0.0
  0
LINE
  5
2EF
  8
0
 10
10.592849
 20
3.651726
 30
0.0
 11
10.592849
 21
3.888823
 31
0.0
  0
LINE
  5
2F0
  8
0
 10
10.592849
 20
3.888823
 30
0.0
 11
10.592849
 21
3.951726
 31
0.0
  0
LINE
  5
2F1
  8
0
 10
10.592849
 20
3.951726
 30
0.0
 11
10.592849
 21
5.13721
 31
0.0
  0
LINE
  5
2F2
  8
0
 10
10.592849
 20
5.13721
 30
0.0
 11
10.592849
 21
5.451726
 31
0.0
  0
LINE
  5
2F3
  8
0
 10
10.592849
 20
5.451726
 30
0.0
 11
10.592849
 21
5.688823
 31
0.0
  0
LINE
  5
2F4
  8
0
 10
10.592849
 20
5.688823
 30
0.0
 11
10.592849
 21
5.751726
 31
0.0
  0
LINE
  5
2F5
  8
0
 10
10.592849
 20
5.751726
 30
0.0
 11
10.592849
 21
6.93721
 31
0.0
  0
LINE
  5
2F6
  8
0
 10
10.592849
 20
6.93721
 30
0.0
 11
10.592849
 21
7.251726
 31
0.0
  0
LINE
  5
2F7
  8
0
 10
10.592849
 20
7.251726
 30
0.0
 11
10.592849
 21
7.488823
 31
0.0
  0
LINE
  5
2F8
  8
0
 10
10.592849
 20
7.488823
 30
0.0
 11
10.592849
 21
7.551726
 31
0.0
  0
LINE
  5
2F9
  8
0
 10
10.592849
 20
7.551726
 30
0.0
 11
10.592849
 21
8.73721
 31
0.0
  0
LINE
  5
2FA
  8
0
 10
10.592849
 20
8.73721
 30
0.0
 11
10.592849
 21
9.051726
 31
0.0
  0
LINE
  5
2FB
  8
0
 10
10.592849
 20
9.051726
 30
0.0
 11
10.592849
 21
9.288823
 31
0.0
  0
LINE
  5
2FC
  8
0
 10
10.592849
 20
9.288823
 30
0.0
 11
10.592849
 21
9.351726
 31
0.0
  0
LINE
  5
2FD
  8
0
 10
10.592849
 20
9.351726
 30
0.0
 11
10.592849
 21
10.53721
 31
0.0
  0
LINE
  5
2FE
  8
0
 10
10.592849
 20
10.53721
 30
0.0
 11
10.592849
 21
10.851726
 31
0.0
  0
LINE
  5
2FF
  8
0
 10
10.592849
 20
10.851726
 30
0.0
 11
10.592849
 21
11.088823
 31
0.0
  0
LINE
  5
300
  8
0
 10
10.592849
 20
11.088823
 30
0.0
 11
10.592849
 21
11.151726
 31
0.0
  0
LINE
  5
301
  8
0
 10
10.592849
 20
11.151726
 30
0.0
 11
10.592849
 21
12.33721
 31
0.0
  0
LINE
  5
302
  8
0
 10
10.592849
 20
12.33721
 30
0.0
 11
10.592849
 21
12.651726
 31
0.0
  0
LINE
  5
303
  8
0
 10
10.592849
 20
12.651726
 30
0.0
 11
10.592849
 21
12.888823
 31
0.0
  0
LINE
  5
304
  8
0
 10
10.592849
 20
12.888823
 30
0.0
 11
10.592849
 21
12.951726
 31
0.0
  0
LINE
  5
305
  8
0
 10
10.592849
 20
12.951726
 30
0.0
 11
10.592849
 21
14.13721
 31
0.0
  0
LINE
  5
306
  8
0
 10
10.592849
 20
14.13721
 30
0.0
 11
10.592849
 21
14.394903
 31
0.0
  0
LINE
  5
307
  8
0
 10
10.592849
 20
14.394903
 30
0.0
 11
10.592849
 21
14.632
 31
0.0
  0
LINE
  5
308
  8
0
 10
11.092849
 20
0.491
 30
0.0
 11
11.092849
 21
0.553903
 31
0.0
  0
LINE
  5
309
  8
0
 10
11.092849
 20
0.491
 30
0.0
 11
11.092849
 21
0.553903
 31
0.0
  0
LINE
  5
30A
  8
0
 10
11.092849
 20
0.553903
 30
0.0
 11
11.092849
 21
1.535484
 31
0.0
  0
LINE
  5
30B
  8
0
 10
11.092849
 20
1.535484
 30
0.0
 11
11.092849
 21
1.85
 31
0.0
  0
LINE
  5
30C
  8
0
 10
11.092849
 20
1.85
 30
0.0
 11
11.092849
 21
2.086306
 31
0.0
  0
LINE
  5
30D
  8
0
 10
11.092849
 20
2.086306
 30
0.0
 11
11.092849
 21
2.14921
 31
0.0
  0
LINE
  5
30E
  8
0
 10
11.092849
 20
2.14921
 30
0.0
 11
11.092849
 21
3.335484
 31
0.0
  0
LINE
  5
30F
  8
0
 10
11.092849
 20
3.335484
 30
0.0
 11
11.092849
 21
3.65
 31
0.0
  0
LINE
  5
310
  8
0
 10
11.092849
 20
3.65
 30
0.0
 11
11.092849
 21
3.886306
 31
0.0
  0
LINE
  5
311
  8
0
 10
11.092849
 20
3.886306
 30
0.0
 11
11.092849
 21
3.94921
 31
0.0
  0
LINE
  5
312
  8
0
 10
11.092849
 20
3.94921
 30
0.0
 11
11.092849
 21
5.135484
 31
0.0
  0
LINE
  5
313
  8
0
 10
11.092849
 20
5.135484
 30
0.0
 11
11.092849
 21
5.45
 31
0.0
  0
LINE
  5
314
  8
0
 10
11.092849
 20
5.45
 30
0.0
 11
11.092849
 21
5.686306
 31
0.0
  0
LINE
  5
315
  8
0
 10
11.092849
 20
5.686306
 30
0.0
 11
11.092849
 21
5.74921
 31
0.0
  0
LINE
  5
316
  8
0
 10
11.092849
 20
5.74921
 30
0.0
 11
11.092849
 21
6.935484
 31
0.0
  0
LINE
  5
317
  8
0
 10
11.092849
 20
6.935484
 30
0.0
 11
11.092849
 21
7.25
 31
0.0
  0
LINE
  5
318
  8
0
 10
11.092849
 20
7.25
 30
0.0
 11
11.092849
 21
7.486306
 31
0.0
  0
LINE
  5
319
  8
0
 10
11.092849
 20
7.486306
 30
0.0
 11
11.092849
 21
7.54921
 31
0.0
  0
LINE
  5
31A
  8
0
 10
11.092849
 20
7.54921
 30
0.0
 11
11.092849
 21
8.735484
 31
0.0
  0
LINE
  5
31B
  8
0
 10
11.092849
 20
8.735484
 30
0.0
 11
11.092849
 21
9.05
 31
0.0
  0
LINE
  5
31C
  8
0
 10
11.092849
 20
9.05
 30
0.0
 11
11.092849
 21
9.286306
 31
0.0
  0
LINE
  5
31D
  8
0
 10
11.092849
 20
9.286306
 30
0.0
 11
11.092849
 21
9.34921
 31
0.0
  0
LINE
  5
31E
  8
0
 10
11.092849
 20
9.34921
 30
0.0
 11
11.092849
 21
10.535484
 31
0.0
  0
LINE
  5
31F
  8
0
 10
11.092849
 20
10.535484
 30
0.0
 11
11.092849
 21
10.85
 31
0.0
  0
LINE
  5
320
  8
0
 10
11.092849
 20
10.85
 30
0.0
 11
11.092849
 21
11.086306
 31
0.0
  0
LINE
  5
321
  8
0
 10
11.092849
 20
11.086306
 30
0.0
 11
11.092849
 21
11.14921
 31
0.0
  0
LINE
  5
322
  8
0
 10
11.092849
 20
11.14921
 30
0.0
 11
11.092849
 21
12.335484
 31
0.0
  0
LINE
  5
323
  8
0
 10
11.092849
 20
12.335484
 30
0.0
 11
11.092849
 21
12.65
 31
0.0
  0
LINE
  5
324
  8
0
 10
11.092849
 20
12.65
 30
0.0
 11
11.092849
 21
12.886306
 31
0.0
  0
LINE
  5
325
  8
0
 10
11.092849
 20
12.886306
 30
0.0
 11
11.092849
 21
12.94921
 31
0.0
  0
LINE
  5
326
  8
0
 10
11.092849
 20
12.94921
 30
0.0
 11
11.092849
 21
14.135484
 31
0.0
  0
LINE
  5
327
  8
0
 10
11.092849
 20
14.135484
 30
0.0
 11
11.092849
 21
14.395903
 31
0.0
  0
LINE
  5
328
  8
0
 10
11.092849
 20
14.395903
 30
0.0
 11
11.092849
 21
14.633
 31
0.0
  0
LINE
  5
329
  8
0
 10
11.592849
 20
0.479
 30
0.0
 11
11.592849
 21
0.541903
 31
0.0
  0
LINE
  5
32A
  8
0
 10
11.592849
 20
0.479
 30
0.0
 11
11.592849
 21
0.541903
 31
0.0
  0
LINE
  5
32B
  8
0
 10
11.592849
 20
0.541903
 30
0.0
 11
11.592849
 21
1.532968
 31
0.0
  0
LINE
  5
32C
  8
0
 10
11.592849
 20
1.532968
 30
0.0
 11
11.592849
 21
1.847484
 31
0.0
  0
LINE
  5
32D
  8
0
 10
11.592849
 20
1.847484
 30
0.0
 11
11.592849
 21
2.084581
 31
0.0
  0
LINE
  5
32E
  8
0
 10
11.592849
 20
2.084581
 30
0.0
 11
11.592849
 21
2.147484
 31
0.0
  0
LINE
  5
32F
  8
0
 10
11.592849
 20
2.147484
 30
0.0
 11
11.592849
 21
3.332968
 31
0.0
  0
LINE
  5
330
  8
0
 10
11.592849
 20
3.332968
 30
0.0
 11
11.592849
 21
3.647484
 31
0.0
  0
LINE
  5
331
  8
0
 10
11.592849
 20
3.647484
 30
0.0
 11
11.592849
 21
3.884581
 31
0.0
  0
LINE
  5
332
  8
0
 10
11.592849
 20
3.884581
 30
0.0
 11
11.592849
 21
3.947484
 31
0.0
  0
LINE
  5
333
  8
0
 10
11.592849
 20
3.947484
 30
0.0
 11
11.592849
 21
5.132968
 31
0.0
  0
LINE
  5
334
  8
0
 10
11.592849
 20
5.132968
 30
0.0
 11
11.592849
 21
5.447484
 31
0.0
  0
LINE
  5
335
  8
0
 10
11.592849
 20
5.447484
 30
0.0
 11
11.592849
 21
5.684581
 31
0.0
  0
LINE
  5
336
  8
0
 10
11.592849
 20
5.684581
 30
0.0
 11
11.592849
 21
5.747484
 31
0.0
  0
LINE
  5
337
  8
0
 10
11.592849
 20
5.747484
 30
0.0
 11
11.592849
 21
6.932968
 31
0.0
  0
LINE
  5
338
  8
0
 10
11.592849
 20
6.932968
 30
0.0
 11
11.592849
 21
7.247484
 31
0.0
  0
LINE
  5
339
  8
0
 10
11.592849
 20
7.247484
 30
0.0
 11
11.592849
 21
7.484581
 31
0.0
  0
LINE
  5
33A
  8
0
 10
11.592849
 20
7.484581
 30
0.0
 11
11.592849
 21
7.547484
 31
0.0
  0
LINE
  5
33B
  8
0
 10
11.592849
 20
7.547484
 30
0.0
 11
11.592849
 21
8.732968
 31
0.0
  0
LINE
  5
33C
  8
0
 10
11.592849
 20
8.732968
 30
0.0
 11
11.592849
 21
9.047484
 31
0.0
  0
LINE
  5
33D
  8
0
 10
11.592849
 20
9.047484
 30
0.0
 11
11.592849
 21
9.284581
 31
0.0
  0
LINE
  5
33E
  8
0
 10
11.592849
 20
9.284581
 30
0.0
 11
11.592849
 21
9.347484
 31
0.0
  0
LINE
  5
33F
  8
0
 10
11.592849
 20
9.347484
 30
0.0
 11
11.592849
 21
10.532968
 31
0.0
  0
LINE
  5
340
  8
0
 10
11.592849
 20
10.532968
 30
0.0
 11
11.592849
 21
10.847484
 31
0.0
  0
LINE
  5
341
  8
0
 10
11.592849
 20
10.847484
 30
0.0
 11
11.592849
 21
11.084581
 31
0.0
  0
LINE
  5
342
  8
0
 10
11.592849
 20
11.084581
 30
0.0
 11
11.592849
 21
11.147484
 31
0.0
  0
LINE
  5
343
  8
0
 10
11.592849
 20
11.147484
 30
0.0
 11
11.592849
 21
12.332968
 31
0.0
  0
LINE
  5
344
  8
0
 10
11.592849
 20
12.332968
 30
0.0
 11
11.592849
 21
12.647484
 31
0.0
  0
LINE
  5
345
  8
0
 10
11.592849
 20
12.647484
 30
0.0
 11
11.592849
 21
12.884581
 31
0.0
  0
LINE
  5
346
  8
0
 10
11.592849
 20
12.884581
 30
0.0
 11
11.592849
 21
12.947484
 31
0.0
  0
LINE
  5
347
  8
0
 10
11.592849
 20
12.947484
 30
0.0
 11
11.592849
 21
14.132968
 31
0.0
  0
LINE
  5
348
  8
0
 10
11.592849
 20
14.132968
 30
0.0
 11
11.592849
 21
14.395903
 31
0.0
  0
LINE
  5
349
  8
0
 10
11.592849
 20
14.395903
 30
0.0
 11
11.592849
 21
14.633
 31
0.0
  0
LINE
  5
34A
  8
0
 10
12.092849
 20
0.467
 30
0.0
 11
12.092849
 21
0.529903
 31
0.0
  0
LINE
  5
34B
  8
0
 10
12.092849
 20
0.467
 30
0.0
 11
12.092849
 21
0.529903
 31
0.0
  0
LINE
  5
34C
  8
0
 10
12.092849
 20
0.529903
 30
0.0
 11
12.092849
 21
1.531242
 31
0.0
  0
LINE
  5
34D
  8
0
 10
12.092849
 20
1.531242
 30
0.0
 11
12.092849
 21
1.845758
 31
0.0
  0
LINE
  5
34E
  8
0
 10
12.092849
 20
1.845758
 30
0.0
 11
12.092849
 21
2.082855
 31
0.0
  0
LINE
  5
34F
  8
0
 10
12.092849
 20
2.082855
 30
0.0
 11
12.092849
 21
2.145758
 31
0.0
  0
LINE
  5
350
  8
0
 10
12.092849
 20
2.145758
 30
0.0
 11
12.092849
 21
3.331242
 31
0.0
  0
LINE
  5
351
  8
0
 10
12.092849
 20
3.331242
 30
0.0
 11
12.092849
 21
3.645758
 31
0.0
  0
LINE
  5
352
  8
0
 10
12.092849
 20
3.645758
 30
0.0
 11
12.092849
 21
3.882855
 31
0.0
  0
LINE
  5
353
  8
0
 10
12.092849
 20
3.882855
 30
0.0
 11
12.092849
 21
3.945758
 31
0.0
  0
LINE
  5
354
  8
0
 10
12.092849
 20
3.945758
 30
0.0
 11
12.092849
 21
5.131242
 31
0.0
  0
LINE
  5
355
  8
0
 10
12.092849
 20
5.131242
 30
0.0
 11
12.092849
 21
5.445758
 31
0.0
  0
LINE
  5
356
  8
0
 10
12.092849
 20
5.445758
 30
0.0
 11
12.092849
 21
5.682855
 31
0.0
  0
LINE
  5
357
  8
0
 10
12.092849
 20
5.682855
 30
0.0
 11
12.092849
 21
5.745758
 31
0.0
  0
LINE
  5
358
  8
0
 10
12.092849
 20
5.745758
 30
0.0
 11
12.092849
 21
6.931242
 31
0.0
  0
LINE
  5
359
  8
0
 10
12.092849
 20
6.931242
 30
0.0
 11
12.092849
 21
7.245758
 31
0.0
  0
LINE
  5
35A
  8
0
 10
12.092849
 20
7.245758
 30
0.0
 11
12.092849
 21
7.482855
 31
0.0
  0
LINE
  5
35B
  8
0
 10
12.092849
 20
7.482855
 30
0.0
 11
12.092849
 21
7.545758
 31
0.0
  0
LINE
  5
35C
  8
0
 10
12.092849
 20
7.545758
 30
0.0
 11
12.092849
 21
8.731242
 31
0.0
  0
LINE
  5
35D
  8
0
 10
12.092849
 20
8.731242
 30
0.0
 11
12.092849
 21
9.045758
 31
0.0
  0
LINE
  5
35E
  8
0
 10
12.092849
 20
9.045758
 30
0.0
 11
12.092849
 21
9.282855
 31
0.0
  0
LINE
  5
35F
  8
0
 10
12.092849
 20
9.282855
 30
0.0
 11
12.092849
 21
9.345758
 31
0.0
  0
LINE
  5
360
  8
0
 10
12.092849
 20
9.345758
 30
0.0
 11
12.092849
 21
10.531242
 31
0.0
  0
LINE
  5
361
  8
0
 10
12.092849
 20
10.531242
 30
0.0
 11
12.092849
 21
10.845758
 31
0.0
  0
LINE
  5
362
  8
0
 10
12.092849
 20
10.845758
 30
0.0
 11
12.092849
 21
11.082855
 31
0.0
  0
LINE
  5
363
  8
0
 10
12.092849
 20
11.082855
 30
0.0
 11
12.092849
 21
11.145758
 31
0.0
  0
LINE
  5
364
  8
0
 10
12.092849
 20
11.145758
 30
0.0
 11
12.092849
 21
12.331242
 31
0.0
  0
LINE
  5
365
  8
0
 10
12.092849
 20
12.331242
 30
0.0
 11
12.092849
 21
12.645758
 31
0.0
  0
LINE
  5
366
  8
0
 10
12.092849
 20
12.645758
 30
0.0
 11
12.092849
 21
12.882855
 31
0.0
  0
LINE
  5
367
  8
0
 10
12.092849
 20
12.882855
 30
0.0
 11
12.092849
 21
12.945758
 31
0.0
  0
LINE
  5
368
  8
0
 10
12.092849
 20
12.945758
 30
0.0
 11
12.092849
 21
14.131242
 31
0.0
  0
LINE
  5
369
  8
0
 10
12.092849
 20
14.131242
 30
0.0
 11
12.092849
 21
14.396903
 31
0.0
  0
LINE
  5
36A
  8
0
 10
12.092849
 20
14.396903
 30
0.0
 11
12.092849
 21
14.634
 31
0.0
  0
LINE
  5
36B
  8
0
 10
12.592849
 20
0.455
 30
0.0
 11
12.592849
 21
0.517903
 31
0.0
  0
LINE
  5
36C
  8
0
 10
12.592849
 20
0.455
 30
0.0
 11
12.592849
 21
0.517903
 31
0.0
  0
LINE
  5
36D
  8
0
 10
12.592849
 20
0.517903
 30
0.0
 11
12.592849
 21
1.529516
 31
0.0
  0
LINE
  5
36E
  8
0
 10
12.592849
 20
1.529516
 30
0.0
 11
12.592849
 21
1.844032
 31
0.0
  0
LINE
  5
36F
  8
0
 10
12.592849
 20
1.844032
 30
0.0
 11
12.592849
 21
2.081129
 31
0.0
  0
LINE
  5
370
  8
0
 10
12.592849
 20
2.081129
 30
0.0
 11
12.592849
 21
2.144032
 31
0.0
  0
LINE
  5
371
  8
0
 10
12.592849
 20
2.144032
 30
0.0
 11
12.592849
 21
3.329516
 31
0.0
  0
LINE
  5
372
  8
0
 10
12.592849
 20
3.329516
 30
0.0
 11
12.592849
 21
3.644032
 31
0.0
  0
LINE
  5
373
  8
0
 10
12.592849
 20
3.644032
 30
0.0
 11
12.592849
 21
3.881129
 31
0.0
  0
LINE
  5
374
  8
0
 10
12.592849
 20
3.881129
 30
0.0
 11
12.592849
 21
3.944032
 31
0.0
  0
LINE
  5
375
  8
0
 10
12.592849
 20
3.944032
 30
0.0
 11
12.592849
 21
5.129516
 31
0.0
  0
LINE
  5
376
  8
0
 10
12.592849
 20
5.129516
 30
0.0
 11
12.592849
 21
5.444032
 31
0.0
  0
LINE
  5
377
  8
0
 10
12.592849
 20
5.444032
 30
0.0
 11
12.592849
 21
5.681129
 31
0.0
  0
LINE
  5
378
  8
0
 10
12.592849
 20
5.681129
 30
0.0
 11
12.592849
 21
5.744032
 31
0.0
  0
LINE
  5
379
  8
0
 10
12.592849
 20
5.744032
 30
0.0
 11
12.592849
 21
6.929516
 31
0.0
  0
LINE
  5
37A
  8
0
 10
12.592849
 20
6.929516
 30
0.0
 11
12.592849
 21
7.244032
 31
0.0
  0
LINE
  5
37B
  8
0
 10
12.592849
 20
7.244032
 30
0.0
 11
12.592849
 21
7.481129
 31
0.0
  0
LINE
  5
37C
  8
0
 10
12.592849
 20
7.481129
 30
0.0
 11
12.592849
 21
7.544032
 31
0.0
  0
LINE
  5
37D
  8
0
 10
12.592849
 20
7.544032
 30
0.0
 11
12.592849
 21
8.729516
 31
0.0
  0
LINE
  5
37E
  8
0
 10
12.592849
 20
8.729516
 30
0.0
 11
12.592849
 21
9.044032
 31
0.0
  0
LINE
  5
37F
  8
0
 10
12.592849
 20
9.044032
 30
0.0
 11
12.592849
 21
9.281129
 31
0.0
  0
LINE
  5
380
  8
0
 10
12.592849
 20
9.281129
 30
0.0
 11
12.592849
 21
9.344032
 31
0.0
  0
LINE
  5
381
  8
0
 10
12.592849
 20
9.344032
 30
0.0
 11
12.592849
 21
10.529516
 31
0.0
  0
LINE
  5
382
  8
0
 10
12.592849
 20
10.529516
 30
0.0
 11
12.592849
 21
10.844032
 31
0.0
  0
LINE
  5
383
  8
0
 10
12.592849
 20
10.844032
 30
0.0
 11
12.592849
 21
11.081129
 31
0.0
  0
LINE
  5
384
  8
0
 10
12.592849
 20
11.081129
 30
0.0
 11
12.592849
 21
11.144032
 31
0.0
  0
LINE
  5
385
  8
0
 10
12.592849
 20
11.144032
 30
0.0
 11
12.592849
 21
12.329516
 31
0.0
  0
LINE
  5
386
  8
0
 10
12.592849
 20
12.329516
 30
0.0
 11
12.592849
 21
12.644032
 31
0.0
  0
LINE
  5
387
  8
0
 10
12.592849
 20
12.644032
 30
0.0
 11
12.592849
 21
12.881129
 31
0.0
  0
LINE
  5
388
  8
0
 10
12.592849
 20
12.881129
 30
0.0
 11
12.592849
 21
12.944032
 31
0.0
  0
LINE
  5
389
  8
0
 10
12.592849
 20
12.944032
 30
0.0
 11
12.592849
 21
14.129516
 31
0.0
  0
LINE
  5
38A
  8
0
 10
12.592849
 20
14.129516
 30
0.0
 11
12.592849
 21
14.397903
 31
0.0
  0
LINE
  5
38B
  8
0
 10
12.592849
 20
14.397903
 30
0.0
 11
12.592849
 21
14.635
 31
0.0
  0
LINE
  5
38C
  8
0
 10
13.092849
 20
0.455
 30
0.0
 11
13.092849
 21
0.517903
 31
0.0
  0
LINE
  5
38D
  8
0
 10
13.092849
 20
0.455
 30
0.0
 11
13.092849
 21
0.517903
 31
0.0
  0
LINE
  5
38E
  8
0
 10
13.092849
 20
0.517903
 30
0.0
 11
13.092849
 21
1.530306
 31
0.0
  0
LINE
  5
38F
  8
0
 10
13.092849
 20
1.530306
 30
0.0
 11
13.092849
 21
1.844823
 31
0.0
  0
LINE
  5
390
  8
0
 10
13.092849
 20
1.844823
 30
0.0
 11
13.092849
 21
2.081129
 31
0.0
  0
LINE
  5
391
  8
0
 10
13.092849
 20
2.081129
 30
0.0
 11
13.092849
 21
2.144032
 31
0.0
  0
LINE
  5
392
  8
0
 10
13.092849
 20
2.144032
 30
0.0
 11
13.092849
 21
3.330306
 31
0.0
  0
LINE
  5
393
  8
0
 10
13.092849
 20
3.330306
 30
0.0
 11
13.092849
 21
3.644823
 31
0.0
  0
LINE
  5
394
  8
0
 10
13.092849
 20
3.644823
 30
0.0
 11
13.092849
 21
3.881129
 31
0.0
  0
LINE
  5
395
  8
0
 10
13.092849
 20
3.881129
 30
0.0
 11
13.092849
 21
3.944032
 31
0.0
  0
LINE
  5
396
  8
0
 10
13.092849
 20
3.944032
 30
0.0
 11
13.092849
 21
5.130306
 31
0.0
  0
LINE
  5
397
  8
0
 10
13.092849
 20
5.130306
 30
0.0
 11
13.092849
 21
5.444823
 31
0.0
  0
LINE
  5
398
  8
0
 10
13.092849
 20
5.444823
 30
0.0
 11
13.092849
 21
5.681129
 31
0.0
  0
LINE
  5
399
  8
0
 10
13.092849
 20
5.681129
 30
0.0
 11
13.092849
 21
5.744032
 31
0.0
  0
LINE
  5
39A
  8
0
 10
13.092849
 20
5.744032
 30
0.0
 11
13.092849
 21
6.930306
 31
0.0
  0
LINE
  5
39B
  8
0
 10
13.092849
 20
6.930306
 30
0.0
 11
13.092849
 21
7.244823
 31
0.0
  0
LINE
  5
39C
  8
0
 10
13.092849
 20
7.244823
 30
0.0
 11
13.092849
 21
7.481129
 31
0.0
  0
LINE
  5
39D
  8
0
 10
13.092849
 20
7.481129
 30
0.0
 11
13.092849
 21
7.544032
 31
0.0
  0
LINE
  5
39E
  8
0
 10
13.092849
 20
7.544032
 30
0.0
 11
13.092849
 21
8.730306
 31
0.0
  0
LINE
  5
39F
  8
0
 10
13.092849
 20
8.730306
 30
0.0
 11
13.092849
 21
9.044823
 31
0.0
  0
LINE
  5
3A0
  8
0
 10
13.092849
 20
9.044823
 30
0.0
 11
13.092849
 21
9.281129
 31
0.0
  0
LINE
  5
3A1
  8
0
 10
13.092849
 20
9.281129
 30
0.0
 11
13.092849
 21
9.344032
 31
0.0
  0
LINE
  5
3A2
  8
0
 10
13.092849
 20
9.344032
 30
0.0
 11
13.092849
 21
10.530306
 31
0.0
  0
LINE
  5
3A3
  8
0
 10
13.092849
 20
10.530306
 30
0.0
 11
13.092849
 21
10.844823
 31
0.0
  0
LINE
  5
3A4
  8
0
 10
13.092849
 20
10.844823
 30
0.0
 11
13.092849
 21
11.081129
 31
0.0
  0
LINE
  5
3A5
  8
0
 10
13.092849
 20
11.081129
 30
0.0
 11
13.092849
 21
11.144032
 31
0.0
  0
LINE
  5
3A6
  8
0
 10
13.092849
 20
11.144032
 30
0.0
 11
13.092849
 21
12.330306
 31
0.0
  0
LINE
  5
3A7
  8
0
 10
13.092849
 20
12.330306
 30
0.0
 11
13.092849
 21
12.644823
 31
0.0
  0
LINE
  5
3A8
  8
0
 10
13.092849
 20
12.644823
 30
0.0
 11
13.092849
 21
12.881129
 31
0.0
  0
LINE
  5
3A9
  8
0
 10
13.092849
 20
12.881129
 30
0.0
 11
13.092849
 21
12.944032
 31
0.0
  0
LINE
  5
3AA
  8
0
 10
13.092849
 20
12.944032
 30
0.0
 11
13.092849
 21
14.130306
 31
0.0
  0
LINE
  5
3AB
  8
0
 10
13.092849
 20
14.130306
 30
0.0
 11
13.092849
 21
14.398903
 31
0.0
  0
LINE
  5
3AC
  8
0
 10
13.092849
 20
14.398903
 30
0.0
 11
13.092849
 21
14.63521
 31
0.0
  0
LINE
  5
3AD
  8
0
 10
13.092849
 20
14.63521
 30
0.0
 11
13.092849
 21
14.636
 31
0.0
  0
LINE
  5
3AE
  8
0
 10
13.592849
 20
0.523
 30
0.0
 11
13.592849
 21
0.585903
 31
0.0
  0
LINE
  5
3AF
  8
0
 10
13.592849
 20
0.523
 30
0.0
 11
13.592849
 21
0.585903
 31
0.0
  0
LINE
  5
3B0
  8
0
 10
13.592849
 20
0.585903
 30
0.0
 11
13.592849
 21
1.544565
 31
0.0
  0
LINE
  5
3B1
  8
0
 10
13.592849
 20
1.544565
 30
0.0
 11
13.592849
 21
1.859081
 31
0.0
  0
LINE
  5
3B2
  8
0
 10
13.592849
 20
1.859081
 30
0.0
 11
13.592849
 21
2.096177
 31
0.0
  0
LINE
  5
3B3
  8
0
 10
13.592849
 20
2.096177
 30
0.0
 11
13.592849
 21
2.159081
 31
0.0
  0
LINE
  5
3B4
  8
0
 10
13.592849
 20
2.159081
 30
0.0
 11
13.592849
 21
3.344565
 31
0.0
  0
LINE
  5
3B5
  8
0
 10
13.592849
 20
3.344565
 30
0.0
 11
13.592849
 21
3.659081
 31
0.0
  0
LINE
  5
3B6
  8
0
 10
13.592849
 20
3.659081
 30
0.0
 11
13.592849
 21
3.896177
 31
0.0
  0
LINE
  5
3B7
  8
0
 10
13.592849
 20
3.896177
 30
0.0
 11
13.592849
 21
3.959081
 31
0.0
  0
LINE
  5
3B8
  8
0
 10
13.592849
 20
3.959081
 30
0.0
 11
13.592849
 21
5.144565
 31
0.0
  0
LINE
  5
3B9
  8
0
 10
13.592849
 20
5.144565
 30
0.0
 11
13.592849
 21
5.459081
 31
0.0
  0
LINE
  5
3BA
  8
0
 10
13.592849
 20
5.459081
 30
0.0
 11
13.592849
 21
5.696177
 31
0.0
  0
LINE
  5
3BB
  8
0
 10
13.592849
 20
5.696177
 30
0.0
 11
13.592849
 21
5.759081
 31
0.0
  0
LINE
  5
3BC
  8
0
 10
13.592849
 20
5.759081
 30
0.0
 11
13.592849
 21
6.944565
 31
0.0
  0
LINE
  5
3BD
  8
0
 10
13.592849
 20
6.944565
 30
0.0
 11
13.592849
 21
7.259081
 31
0.0
  0
LINE
  5
3BE
  8
0
 10
13.592849
 20
7.259081
 30
0.0
 11
13.592849
 21
7.496177
 31
0.0
  0
LINE
  5
3BF
  8
0
 10
13.592849
 20
7.496177
 30
0.0
 11
13.592849
 21
7.559081
 31
0.0
  0
LINE
  5
3C0
  8
0
 10
13.592849
 20
7.559081
 30
0.0
 11
13.592849
 21
8.744565
 31
0.0
  0
LINE
  5
3C1
  8
0
 10
13.592849
 20
8.744565
 30
0.0
 11
13.592849
 21
9.059081
 31
0.0
  0
LINE
  5
3C2
  8
0
 10
13.592849
 20
9.059081
 30
0.0
 11
13.592849
 21
9.296177
 31
0.0
  0
LINE
  5
3C3
  8
0
 10
13.592849
 20
9.296177
 30
0.0
 11
13.592849
 21
9.359081
 31
0.0
  0
LINE
  5
3C4
  8
0
 10
13.592849
 20
9.359081
 30
0.0
 11
13.592849
 21
10.544565
 31
0.0
  0
LINE
  5
3C5
  8
0
 10
13.592849
 20
10.544565
 30
0.0
 11
13.592849
 21
10.859081
 31
0.0
  0
LINE
  5
3C6
  8
0
 10
13.592849
 20
10.859081
 30
0.0
 11
13.592849
 21
11.096177
 31
0.0
  0
LINE
  5
3C7
  8
0
 10
13.592849
 20
11.096177
 30
0.0
 11
13.592849
 21
11.159081
 31
0.0
  0
LINE
  5
3C8
  8
0
 10
13.592849
 20
11.159081
 30
0.0
 11
13.592849
 21
12.344565
 31
0.0
  0
LINE
  5
3C9
  8
0
 10
13.592849
 20
12.344565
 30
0.0
 11
13.592849
 21
12.659081
 31
0.0
  0
LINE
  5
3CA
  8
0
 10
13.592849
 20
12.659081
 30
0.0
 11
13.592849
 21
12.896177
 31
0.0
  0
LINE
  5
3CB
  8
0
 10
13.592849
 20
12.896177
 30
0.0
 11
13.592849
 21
12.959081
 31
0.0
  0
LINE
  5
3CC
  8
0
 10
13.592849
 20
12.959081
 30
0.0
 11
13.592849
 21
14.144565
 31
0.0
  0
LINE
  5
3CD
  8
0
 10
13.592849
 20
14.144565
 30
0.0
 11
13.592849
 21
14.398903
 31
0.0
  0
LINE
  5
3CE
  8
0
 10
13.592849
 20
14.398903
 30
0.0
 11
13.592849
 21
14.636
 31
0.0
  0
LINE
  5
3CF
  8
0
 10
14.092849
 20
0.654
 30
0.0
 11
14.092849
 21
0.716903
 31
0.0
  0
LINE
  5
3D0
  8
0
 10
14.092849
 20
0.654
 30
0.0
 11
14.092849
 21
0.716903
 31
0.0
  0
LINE
  5
3D1
  8
0
 10
14.092849
 20
0.716903
 30
0.0
 11
14.092849
 21
1.572823
 31
0.0
  0
LINE
  5
3D2
  8
0
 10
14.092849
 20
1.572823
 30
0.0
 11
14.092849
 21
1.887339
 31
0.0
  0
LINE
  5
3D3
  8
0
 10
14.092849
 20
1.887339
 30
0.0
 11
14.092849
 21
2.124435
 31
0.0
  0
LINE
  5
3D4
  8
0
 10
14.092849
 20
2.124435
 30
0.0
 11
14.092849
 21
2.187339
 31
0.0
  0
LINE
  5
3D5
  8
0
 10
14.092849
 20
2.187339
 30
0.0
 11
14.092849
 21
3.372823
 31
0.0
  0
LINE
  5
3D6
  8
0
 10
14.092849
 20
3.372823
 30
0.0
 11
14.092849
 21
3.687339
 31
0.0
  0
LINE
  5
3D7
  8
0
 10
14.092849
 20
3.687339
 30
0.0
 11
14.092849
 21
3.924435
 31
0.0
  0
LINE
  5
3D8
  8
0
 10
14.092849
 20
3.924435
 30
0.0
 11
14.092849
 21
3.987339
 31
0.0
  0
LINE
  5
3D9
  8
0
 10
14.092849
 20
3.987339
 30
0.0
 11
14.092849
 21
5.172823
 31
0.0
  0
LINE
  5
3DA
  8
0
 10
14.092849
 20
5.172823
 30
0.0
 11
14.092849
 21
5.487339
 31
0.0
  0
LINE
  5
3DB
  8
0
 10
14.092849
 20
5.487339
 30
0.0
 11
14.092849
 21
5.724435
 31
0.0
  0
LINE
  5
3DC
  8
0
 10
14.092849
 20
5.724435
 30
0.0
 11
14.092849
 21
5.787339
 31
0.0
  0
LINE
  5
3DD
  8
0
 10
14.092849
 20
5.787339
 30
0.0
 11
14.092849
 21
6.972823
 31
0.0
  0
LINE
  5
3DE
  8
0
 10
14.092849
 20
6.972823
 30
0.0
 11
14.092849
 21
7.287339
 31
0.0
  0
LINE
  5
3DF
  8
0
 10
14.092849
 20
7.287339
 30
0.0
 11
14.092849
 21
7.524435
 31
0.0
  0
LINE
  5
3E0
  8
0
 10
14.092849
 20
7.524435
 30
0.0
 11
14.092849
 21
7.587339
 31
0.0
  0
LINE
  5
3E1
  8
0
 10
14.092849
 20
7.587339
 30
0.0
 11
14.092849
 21
8.772823
 31
0.0
  0
LINE
  5
3E2
  8
0
 10
14.092849
 20
8.772823
 30
0.0
 11
14.092849
 21
9.087339
 31
0.0
  0
LINE
  5
3E3
  8
0
 10
14.092849
 20
9.087339
 30
0.0
 11
14.092849
 21
9.324435
 31
0.0
  0
LINE
  5
3E4
  8
0
 10
14.092849
 20
9.324435
 30
0.0
 11
14.092849
 21
9.387339
 31
0.0
  0
LINE
  5
3E5
  8
0
 10
14.092849
 20
9.387339
 30
0.0
 11
14.092849
 21
10.572823
 31
0.0
  0
LINE
  5
3E6
  8
0
 10
14.092849
 20
10.572823
 30
0.0
 11
14.092849
 21
10.887339
 31
0.0
  0
LINE
  5
3E7
  8
0
 10
14.092849
 20
10.887339
 30
0.0
 11
14.092849
 21
11.124435
 31
0.0
  0
LINE
  5
3E8
  8
0
 10
14.092849
 20
11.124435
 30
0.0
 11
14.092849
 21
11.187339
 31
0.0
  0
LINE
  5
3E9
  8
0
 10
14.092849
 20
11.187339
 30
0.0
 11
14.092849
 21
12.372823
 31
0.0
  0
LINE
  5
3EA
  8
0
 10
14.092849
 20
12.372823
 30
0.0
 11
14.092849
 21
12.687339
 31
0.0
  0
LINE
  5
3EB
  8
0
 10
14.092849
 20
12.687339
 30
0.0
 11
14.092849
 21
12.924435
 31
0.0
  0
LINE
  5
3EC
  8
0
 10
14.092849
 20
12.924435
 30
0.0
 11
14.092849
 21
12.987339
 31
0.0
  0
LINE
  5
3ED
  8
0
 10
14.092849
 20
12.987339
 30
0.0
 11
14.092849
 21
14.172823
 31
0.0
  0
LINE
  5
3EE
  8
0
 10
14.092849
 20
14.172823
 30
0.0
 11
14.092849
 21
14.399903
 31
0.0
  0
LINE
  5
3EF
  8
0
 10
14.092849
 20
14.399903
 30
0.0
 11
14.092849
 21
14.637
 31
0.0
  0
LINE
  5
3F0
  8
0
 10
14.592849
 20
1.226
 30
0.0
 11
14.592849
 21
1.288903
 31
0.0
  0
LINE
  5
3F1
  8
0
 10
14.592849
 20
1.226
 30
0.0
 11
14.592849
 21
1.288903
 31
0.0
  0
LINE
  5
3F2
  8
0
 10
14.592849
 20
1.288903
 30
0.0
 11
14.592849
 21
1.693548
 31
0.0
  0
LINE
  5
3F3
  8
0
 10
14.592849
 20
1.693548
 30
0.0
 11
14.592849
 21
1.930645
 31
0.0
  0
LINE
  5
3F4
  8
0
 10
14.592849
 20
1.930645
 30
0.0
 11
14.592849
 21
2.245371
 31
0.0
  0
LINE
  5
3F5
  8
0
 10
14.592849
 20
2.245371
 30
0.0
 11
14.592849
 21
3.430855
 31
0.0
  0
LINE
  5
3F6
  8
0
 10
14.592849
 20
3.430855
 30
0.0
 11
14.592849
 21
3.493548
 31
0.0
  0
LINE
  5
3F7
  8
0
 10
14.592849
 20
3.493548
 30
0.0
 11
14.592849
 21
3.730645
 31
0.0
  0
LINE
  5
3F8
  8
0
 10
14.592849
 20
3.730645
 30
0.0
 11
14.592849
 21
4.045371
 31
0.0
  0
LINE
  5
3F9
  8
0
 10
14.592849
 20
4.045371
 30
0.0
 11
14.592849
 21
5.230855
 31
0.0
  0
LINE
  5
3FA
  8
0
 10
14.592849
 20
5.230855
 30
0.0
 11
14.592849
 21
5.293548
 31
0.0
  0
LINE
  5
3FB
  8
0
 10
14.592849
 20
5.293548
 30
0.0
 11
14.592849
 21
5.530645
 31
0.0
  0
LINE
  5
3FC
  8
0
 10
14.592849
 20
5.530645
 30
0.0
 11
14.592849
 21
5.845371
 31
0.0
  0
LINE
  5
3FD
  8
0
 10
14.592849
 20
5.845371
 30
0.0
 11
14.592849
 21
7.030855
 31
0.0
  0
LINE
  5
3FE
  8
0
 10
14.592849
 20
7.030855
 30
0.0
 11
14.592849
 21
7.093548
 31
0.0
  0
LINE
  5
3FF
  8
0
 10
14.592849
 20
7.093548
 30
0.0
 11
14.592849
 21
7.330645
 31
0.0
  0
LINE
  5
400
  8
0
 10
14.592849
 20
7.330645
 30
0.0
 11
14.592849
 21
7.645371
 31
0.0
  0
LINE
  5
401
  8
0
 10
14.592849
 20
7.645371
 30
0.0
 11
14.592849
 21
8.830855
 31
0.0
  0
LINE
  5
402
  8
0
 10
14.592849
 20
8.830855
 30
0.0
 11
14.592849
 21
8.893548
 31
0.0
  0
LINE
  5
403
  8
0
 10
14.592849
 20
8.893548
 30
0.0
 11
14.592849
 21
9.130645
 31
0.0
  0
LINE
  5
404
  8
0
 10
14.592849
 20
9.130645
 30
0.0
 11
14.592849
 21
9.445371
 31
0.0
  0
LINE
  5
405
  8
0
 10
14.592849
 20
9.445371
 30
0.0
 11
14.592849
 21
10.630855
 31
0.0
  0
LINE
  5
406
  8
0
 10
14.592849
 20
10.630855
 30
0.0
 11
14.592849
 21
10.693548
 31
0.0
  0
LINE
  5
407
  8
0
 10
14.592849
 20
10.693548
 30
0.0
 11
14.592849
 21
10.930645
 31
0.0
  0
LINE
  5
408
  8
0
 10
14.592849
 20
10.930645
 30
0.0
 11
14.592849
 21
11.245371
 31
0.0
  0
LINE
  5
409
  8
0
 10
14.592849
 20
11.245371
 30
0.0
 11
14.592849
 21
12.430855
 31
0.0
  0
LINE
  5
40A
  8
0
 10
14.592849
 20
12.430855
 30
0.0
 11
14.592849
 21
12.493548
 31
0.0
  0
LINE
  5
40B
  8
0
 10
14.592849
 20
12.493548
 30
0.0
 11
14.592849
 21
12.730645
 31
0.0
  0
LINE
  5
40C
  8
0
 10
14.592849
 20
12.730645
 30
0.0
 11
14.592849
 21
13.045371
 31
0.0
  0
LINE
  5
40D
  8
0
 10
14.592849
 20
13.045371
 30
0.0
 11
14.592849
 21
14.230855
 31
0.0
  0
LINE
  5
40E
  8
0
 10
14.592849
 20
14.230855
 30
0.0
 11
14.592849
 21
14.293548
 31
0.0
  0
LINE
  5
40F
  8
0
 10
14.592849
 20
14.293548
 30
0.0
 11
14.592849
 21
14.400903
 31
0.0
  0
LINE
  5
410
  8
0
 10
14.592849
 20
14.400903
 30
0.0
 11
14.592849
 21
14.638
 31
0.0
  0
LINE
  5
411
  8
0
 10
1.234
 20
0.592238
 30
0.0
 11
1.254332
 21
0.592238
 31
0.0
  0
LINE
  5
412
  8
0
 10
1.234
 20
0.592238
 30
0.0
 11
1.254332
 21
0.592238
 31
0.0
  0
LINE
  5
413
  8
0
 10
1.254332
 20
0.592238
 30
0.0
 11
1.491449
 21
0.592238
 31
0.0
  0
LINE
  5
414
  8
0
 10
1.491449
 20
0.592238
 30
0.0
 11
1.805952
 21
0.592238
 31
0.0
  0
LINE
  5
415
  8
0
 10
1.805952
 20
0.592238
 30
0.0
 11
2.991435
 21
0.592238
 31
0.0
  0
LINE
  5
416
  8
0
 10
2.991435
 20
0.592238
 30
0.0
 11
3.054339
 21
0.592238
 31
0.0
  0
LINE
  5
417
  8
0
 10
3.054339
 20
0.592238
 30
0.0
 11
3.291435
 21
0.592238
 31
0.0
  0
LINE
  5
418
  8
0
 10
3.291435
 20
0.592238
 30
0.0
 11
3.605952
 21
0.592238
 31
0.0
  0
LINE
  5
419
  8
0
 10
3.605952
 20
0.592238
 30
0.0
 11
4.791435
 21
0.592238
 31
0.0
  0
LINE
  5
41A
  8
0
 10
4.791435
 20
0.592238
 30
0.0
 11
4.854339
 21
0.592238
 31
0.0
  0
LINE
  5
41B
  8
0
 10
4.854339
 20
0.592238
 30
0.0
 11
5.091435
 21
0.592238
 31
0.0
  0
LINE
  5
41C
  8
0
 10
5.091435
 20
0.592238
 30
0.0
 11
5.405952
 21
0.592238
 31
0.0
  0
LINE
  5
41D
  8
0
 10
5.405952
 20
0.592238
 30
0.0
 11
6.591435
 21
0.592238
 31
0.0
  0
LINE
  5
41E
  8
0
 10
6.591435
 20
0.592238
 30
0.0
 11
6.654339
 21
0.592238
 31
0.0
  0
LINE
  5
41F
  8
0
 10
6.654339
 20
0.592238
 30
0.0
 11
6.891435
 21
0.592238
 31
0.0
  0
LINE
  5
420
  8
0
 10
6.891435
 20
0.592238
 30
0.0
 11
7.119839
 21
0.592238
 31
0.0
  0
LINE
  5
421
  8
0
 10
7.119839
 20
0.592238
 30
0.0
 11
7.356145
 21
0.592238
 31
0.0
  0
LINE
  5
422
  8
0
 10
7.356145
 20
0.592238
 30
0.0
 11
7.670661
 21
0.592238
 31
0.0
  0
LINE
  5
423
  8
0
 10
7.670661
 20
0.592238
 30
0.0
 11
8.856935
 21
0.592238
 31
0.0
  0
LINE
  5
424
  8
0
 10
8.856935
 20
0.592238
 30
0.0
 11
8.919839
 21
0.592238
 31
0.0
  0
LINE
  5
425
  8
0
 10
8.919839
 20
0.592238
 30
0.0
 11
9.156145
 21
0.592238
 31
0.0
  0
LINE
  5
426
  8
0
 10
9.156145
 20
0.592238
 30
0.0
 11
9.470661
 21
0.592238
 31
0.0
  0
LINE
  5
427
  8
0
 10
9.470661
 20
0.592238
 30
0.0
 11
10.656935
 21
0.592238
 31
0.0
  0
LINE
  5
428
  8
0
 10
10.656935
 20
0.592238
 30
0.0
 11
10.719839
 21
0.592238
 31
0.0
  0
LINE
  5
429
  8
0
 10
10.719839
 20
0.592238
 30
0.0
 11
10.956145
 21
0.592238
 31
0.0
  0
LINE
  5
42A
  8
0
 10
10.956145
 20
0.592238
 30
0.0
 11
11.270661
 21
0.592238
 31
0.0
  0
LINE
  5
42B
  8
0
 10
11.270661
 20
0.592238
 30
0.0
 11
12.456935
 21
0.592238
 31
0.0
  0
LINE
  5
42C
  8
0
 10
12.456935
 20
0.592238
 30
0.0
 11
12.519839
 21
0.592238
 31
0.0
  0
LINE
  5
42D
  8
0
 10
12.519839
 20
0.592238
 30
0.0
 11
12.756145
 21
0.592238
 31
0.0
  0
LINE
  5
42E
  8
0
 10
12.756145
 20
0.592238
 30
0.0
 11
13.070661
 21
0.592238
 31
0.0
  0
LINE
  5
42F
  8
0
 10
13.070661
 20
0.592238
 30
0.0
 11
13.868097
 21
0.592238
 31
0.0
  0
LINE
  5
430
  8
0
 10
13.868097
 20
0.592238
 30
0.0
 11
13.931
 21
0.592238
 31
0.0
  0
LINE
  5
431
  8
0
 10
0.651
 20
1.092238
 30
0.0
 11
0.888097
 21
1.092238
 31
0.0
  0
LINE
  5
432
  8
0
 10
0.651
 20
1.092238
 30
0.0
 11
0.888097
 21
1.092238
 31
0.0
  0
LINE
  5
433
  8
0
 10
0.888097
 20
1.092238
 30
0.0
 11
1.094839
 21
1.092238
 31
0.0
  0
LINE
  5
434
  8
0
 10
1.094839
 20
1.092238
 30
0.0
 11
2.281113
 21
1.092238
 31
0.0
  0
LINE
  5
435
  8
0
 10
2.281113
 20
1.092238
 30
0.0
 11
2.344016
 21
1.092238
 31
0.0
  0
LINE
  5
436
  8
0
 10
2.344016
 20
1.092238
 30
0.0
 11
2.580323
 21
1.092238
 31
0.0
  0
LINE
  5
437
  8
0
 10
2.580323
 20
1.092238
 30
0.0
 11
2.894839
 21
1.092238
 31
0.0
  0
LINE
  5
438
  8
0
 10
2.894839
 20
1.092238
 30
0.0
 11
4.081113
 21
1.092238
 31
0.0
  0
LINE
  5
439
  8
0
 10
4.081113
 20
1.092238
 30
0.0
 11
4.144016
 21
1.092238
 31
0.0
  0
LINE
  5
43A
  8
0
 10
4.144016
 20
1.092238
 30
0.0
 11
4.380323
 21
1.092238
 31
0.0
  0
LINE
  5
43B
  8
0
 10
4.380323
 20
1.092238
 30
0.0
 11
4.694839
 21
1.092238
 31
0.0
  0
LINE
  5
43C
  8
0
 10
4.694839
 20
1.092238
 30
0.0
 11
5.881113
 21
1.092238
 31
0.0
  0
LINE
  5
43D
  8
0
 10
5.881113
 20
1.092238
 30
0.0
 11
5.944016
 21
1.092238
 31
0.0
  0
LINE
  5
43E
  8
0
 10
5.944016
 20
1.092238
 30
0.0
 11
6.180323
 21
1.092238
 31
0.0
  0
LINE
  5
43F
  8
0
 10
6.180323
 20
1.092238
 30
0.0
 11
6.494839
 21
1.092238
 31
0.0
  0
LINE
  5
440
  8
0
 10
6.494839
 20
1.092238
 30
0.0
 11
7.681113
 21
1.092238
 31
0.0
  0
LINE
  5
441
  8
0
 10
7.681113
 20
1.092238
 30
0.0
 11
7.744016
 21
1.092238
 31
0.0
  0
LINE
  5
442
  8
0
 10
7.744016
 20
1.092238
 30
0.0
 11
7.980323
 21
1.092238
 31
0.0
  0
LINE
  5
443
  8
0
 10
7.980323
 20
1.092238
 30
0.0
 11
8.294839
 21
1.092238
 31
0.0
  0
LINE
  5
444
  8
0
 10
8.294839
 20
1.092238
 30
0.0
 11
9.481113
 21
1.092238
 31
0.0
  0
LINE
  5
445
  8
0
 10
9.481113
 20
1.092238
 30
0.0
 11
9.544016
 21
1.092238
 31
0.0
  0
LINE
  5
446
  8
0
 10
9.544016
 20
1.092238
 30
0.0
 11
9.780323
 21
1.092238
 31
0.0
  0
LINE
  5
447
  8
0
 10
9.780323
 20
1.092238
 30
0.0
 11
10.094839
 21
1.092238
 31
0.0
  0
LINE
  5
448
  8
0
 10
10.094839
 20
1.092238
 30
0.0
 11
11.281113
 21
1.092238
 31
0.0
  0
LINE
  5
449
  8
0
 10
11.281113
 20
1.092238
 30
0.0
 11
11.344016
 21
1.092238
 31
0.0
  0
LINE
  5
44A
  8
0
 10
11.344016
 20
1.092238
 30
0.0
 11
11.580323
 21
1.092238
 31
0.0
  0
LINE
  5
44B
  8
0
 10
11.580323
 20
1.092238
 30
0.0
 11
11.894839
 21
1.092238
 31
0.0
  0
LINE
  5
44C
  8
0
 10
11.894839
 20
1.092238
 30
0.0
 11
13.081113
 21
1.092238
 31
0.0
  0
LINE
  5
44D
  8
0
 10
13.081113
 20
1.092238
 30
0.0
 11
13.144016
 21
1.092238
 31
0.0
  0
LINE
  5
44E
  8
0
 10
13.144016
 20
1.092238
 30
0.0
 11
13.380323
 21
1.092238
 31
0.0
  0
LINE
  5
44F
  8
0
 10
13.380323
 20
1.092238
 30
0.0
 11
13.694839
 21
1.092238
 31
0.0
  0
LINE
  5
450
  8
0
 10
13.694839
 20
1.092238
 30
0.0
 11
14.474097
 21
1.092238
 31
0.0
  0
LINE
  5
451
  8
0
 10
14.474097
 20
1.092238
 30
0.0
 11
14.537
 21
1.092238
 31
0.0
  0
LINE
  5
452
  8
0
 10
0.519
 20
1.592238
 30
0.0
 11
0.756097
 21
1.592238
 31
0.0
  0
LINE
  5
453
  8
0
 10
0.519
 20
1.592238
 30
0.0
 11
0.756097
 21
1.592238
 31
0.0
  0
LINE
  5
454
  8
0
 10
0.756097
 20
1.592238
 30
0.0
 11
1.017145
 21
1.592238
 31
0.0
  0
LINE
  5
455
  8
0
 10
1.017145
 20
1.592238
 30
0.0
 11
2.202629
 21
1.592238
 31
0.0
  0
LINE
  5
456
  8
0
 10
2.202629
 20
1.592238
 30
0.0
 11
2.265532
 21
1.592238
 31
0.0
  0
LINE
  5
457
  8
0
 10
2.265532
 20
1.592238
 30
0.0
 11
2.502629
 21
1.592238
 31
0.0
  0
LINE
  5
458
  8
0
 10
2.502629
 20
1.592238
 30
0.0
 11
2.817145
 21
1.592238
 31
0.0
  0
LINE
  5
459
  8
0
 10
2.817145
 20
1.592238
 30
0.0
 11
4.002629
 21
1.592238
 31
0.0
  0
LINE
  5
45A
  8
0
 10
4.002629
 20
1.592238
 30
0.0
 11
4.065532
 21
1.592238
 31
0.0
  0
LINE
  5
45B
  8
0
 10
4.065532
 20
1.592238
 30
0.0
 11
4.302629
 21
1.592238
 31
0.0
  0
LINE
  5
45C
  8
0
 10
4.302629
 20
1.592238
 30
0.0
 11
4.617145
 21
1.592238
 31
0.0
  0
LINE
  5
45D
  8
0
 10
4.617145
 20
1.592238
 30
0.0
 11
5.802629
 21
1.592238
 31
0.0
  0
LINE
  5
45E
  8
0
 10
5.802629
 20
1.592238
 30
0.0
 11
5.865532
 21
1.592238
 31
0.0
  0
LINE
  5
45F
  8
0
 10
5.865532
 20
1.592238
 30
0.0
 11
6.102629
 21
1.592238
 31
0.0
  0
LINE
  5
460
  8
0
 10
6.102629
 20
1.592238
 30
0.0
 11
6.417145
 21
1.592238
 31
0.0
  0
LINE
  5
461
  8
0
 10
6.417145
 20
1.592238
 30
0.0
 11
7.602629
 21
1.592238
 31
0.0
  0
LINE
  5
462
  8
0
 10
7.602629
 20
1.592238
 30
0.0
 11
7.665532
 21
1.592238
 31
0.0
  0
LINE
  5
463
  8
0
 10
7.665532
 20
1.592238
 30
0.0
 11
7.902629
 21
1.592238
 31
0.0
  0
LINE
  5
464
  8
0
 10
7.902629
 20
1.592238
 30
0.0
 11
8.217145
 21
1.592238
 31
0.0
  0
LINE
  5
465
  8
0
 10
8.217145
 20
1.592238
 30
0.0
 11
9.402629
 21
1.592238
 31
0.0
  0
LINE
  5
466
  8
0
 10
9.402629
 20
1.592238
 30
0.0
 11
9.465532
 21
1.592238
 31
0.0
  0
LINE
  5
467
  8
0
 10
9.465532
 20
1.592238
 30
0.0
 11
9.702629
 21
1.592238
 31
0.0
  0
LINE
  5
468
  8
0
 10
9.702629
 20
1.592238
 30
0.0
 11
10.017145
 21
1.592238
 31
0.0
  0
LINE
  5
469
  8
0
 10
10.017145
 20
1.592238
 30
0.0
 11
11.202629
 21
1.592238
 31
0.0
  0
LINE
  5
46A
  8
0
 10
11.202629
 20
1.592238
 30
0.0
 11
11.265532
 21
1.592238
 31
0.0
  0
LINE
  5
46B
  8
0
 10
11.265532
 20
1.592238
 30
0.0
 11
11.502629
 21
1.592238
 31
0.0
  0
LINE
  5
46C
  8
0
 10
11.502629
 20
1.592238
 30
0.0
 11
11.817145
 21
1.592238
 31
0.0
  0
LINE
  5
46D
  8
0
 10
11.817145
 20
1.592238
 30
0.0
 11
13.002629
 21
1.592238
 31
0.0
  0
LINE
  5
46E
  8
0
 10
13.002629
 20
1.592238
 30
0.0
 11
13.065532
 21
1.592238
 31
0.0
  0
LINE
  5
46F
  8
0
 10
13.065532
 20
1.592238
 30
0.0
 11
13.302629
 21
1.592238
 31
0.0
  0
LINE
  5
470
  8
0
 10
13.302629
 20
1.592238
 30
0.0
 11
13.617145
 21
1.592238
 31
0.0
  0
LINE
  5
471
  8
0
 10
13.617145
 20
1.592238
 30
0.0
 11
14.601097
 21
1.592238
 31
0.0
  0
LINE
  5
472
  8
0
 10
14.601097
 20
1.592238
 30
0.0
 11
14.664
 21
1.592238
 31
0.0
  0
LINE
  5
473
  8
0
 10
0.456
 20
2.092238
 30
0.0
 11
0.693097
 21
2.092238
 31
0.0
  0
LINE
  5
474
  8
0
 10
0.456
 20
2.092238
 30
0.0
 11
0.693097
 21
2.092238
 31
0.0
  0
LINE
  5
475
  8
0
 10
0.693097
 20
2.092238
 30
0.0
 11
0.980774
 21
2.092238
 31
0.0
  0
LINE
  5
476
  8
0
 10
0.980774
 20
2.092238
 30
0.0
 11
2.166258
 21
2.092238
 31
0.0
  0
LINE
  5
477
  8
0
 10
2.166258
 20
2.092238
 30
0.0
 11
2.229161
 21
2.092238
 31
0.0
  0
LINE
  5
478
  8
0
 10
2.229161
 20
2.092238
 30
0.0
 11
2.466258
 21
2.092238
 31
0.0
  0
LINE
  5
479
  8
0
 10
2.466258
 20
2.092238
 30
0.0
 11
2.780774
 21
2.092238
 31
0.0
  0
LINE
  5
47A
  8
0
 10
2.780774
 20
2.092238
 30
0.0
 11
3.966258
 21
2.092238
 31
0.0
  0
LINE
  5
47B
  8
0
 10
3.966258
 20
2.092238
 30
0.0
 11
4.029161
 21
2.092238
 31
0.0
  0
LINE
  5
47C
  8
0
 10
4.029161
 20
2.092238
 30
0.0
 11
4.266258
 21
2.092238
 31
0.0
  0
LINE
  5
47D
  8
0
 10
4.266258
 20
2.092238
 30
0.0
 11
4.580774
 21
2.092238
 31
0.0
  0
LINE
  5
47E
  8
0
 10
4.580774
 20
2.092238
 30
0.0
 11
5.766258
 21
2.092238
 31
0.0
  0
LINE
  5
47F
  8
0
 10
5.766258
 20
2.092238
 30
0.0
 11
5.829161
 21
2.092238
 31
0.0
  0
LINE
  5
480
  8
0
 10
5.829161
 20
2.092238
 30
0.0
 11
6.066258
 21
2.092238
 31
0.0
  0
LINE
  5
481
  8
0
 10
6.066258
 20
2.092238
 30
0.0
 11
6.380774
 21
2.092238
 31
0.0
  0
LINE
  5
482
  8
0
 10
6.380774
 20
2.092238
 30
0.0
 11
7.566258
 21
2.092238
 31
0.0
  0
LINE
  5
483
  8
0
 10
7.566258
 20
2.092238
 30
0.0
 11
7.629161
 21
2.092238
 31
0.0
  0
LINE
  5
484
  8
0
 10
7.629161
 20
2.092238
 30
0.0
 11
7.866258
 21
2.092238
 31
0.0
  0
LINE
  5
485
  8
0
 10
7.866258
 20
2.092238
 30
0.0
 11
8.180774
 21
2.092238
 31
0.0
  0
LINE
  5
486
  8
0
 10
8.180774
 20
2.092238
 30
0.0
 11
9.366258
 21
2.092238
 31
0.0
  0
LINE
  5
487
  8
0
 10
9.366258
 20
2.092238
 30
0.0
 11
9.429161
 21
2.092238
 31
0.0
  0
LINE
  5
488
  8
0
 10
9.429161
 20
2.092238
 30
0.0
 11
9.666258
 21
2.092238
 31
0.0
  0
LINE
  5
489
  8
0
 10
9.666258
 20
2.092238
 30
0.0
 11
9.980774
 21
2.092238
 31
0.0
  0
LINE
  5
48A
  8
0
 10
9.980774
 20
2.092238
 30
0.0
 11
11.166258
 21
2.092238
 31
0.0
  0
LINE
  5
48B
  8
0
 10
11.166258
 20
2.092238
 30
0.0
 11
11.229161
 21
2.092238
 31
0.0
  0
LINE
  5
48C
  8
0
 10
11.229161
 20
2.092238
 30
0.0
 11
11.466258
 21
2.092238
 31
0.0
  0
LINE
  5
48D
  8
0
 10
11.466258
 20
2.092238
 30
0.0
 11
11.780774
 21
2.092238
 31
0.0
  0
LINE
  5
48E
  8
0
 10
11.780774
 20
2.092238
 30
0.0
 11
12.966258
 21
2.092238
 31
0.0
  0
LINE
  5
48F
  8
0
 10
12.966258
 20
2.092238
 30
0.0
 11
13.029161
 21
2.092238
 31
0.0
  0
LINE
  5
490
  8
0
 10
13.029161
 20
2.092238
 30
0.0
 11
13.266258
 21
2.092238
 31
0.0
  0
LINE
  5
491
  8
0
 10
13.266258
 20
2.092238
 30
0.0
 11
13.580774
 21
2.092238
 31
0.0
  0
LINE
  5
492
  8
0
 10
13.580774
 20
2.092238
 30
0.0
 11
14.665097
 21
2.092238
 31
0.0
  0
LINE
  5
493
  8
0
 10
14.665097
 20
2.092238
 30
0.0
 11
14.728
 21
2.092238
 31
0.0
  0
LINE
  5
494
  8
0
 10
0.45
 20
2.592238
 30
0.0
 11
0.687097
 21
2.592238
 31
0.0
  0
LINE
  5
495
  8
0
 10
0.45
 20
2.592238
 30
0.0
 11
0.687097
 21
2.592238
 31
0.0
  0
LINE
  5
496
  8
0
 10
0.687097
 20
2.592238
 30
0.0
 11
0.978339
 21
2.592238
 31
0.0
  0
LINE
  5
497
  8
0
 10
0.978339
 20
2.592238
 30
0.0
 11
2.164613
 21
2.592238
 31
0.0
  0
LINE
  5
498
  8
0
 10
2.164613
 20
2.592238
 30
0.0
 11
2.227516
 21
2.592238
 31
0.0
  0
LINE
  5
499
  8
0
 10
2.227516
 20
2.592238
 30
0.0
 11
2.463823
 21
2.592238
 31
0.0
  0
LINE
  5
49A
  8
0
 10
2.463823
 20
2.592238
 30
0.0
 11
2.778339
 21
2.592238
 31
0.0
  0
LINE
  5
49B
  8
0
 10
2.778339
 20
2.592238
 30
0.0
 11
3.964613
 21
2.592238
 31
0.0
  0
LINE
  5
49C
  8
0
 10
3.964613
 20
2.592238
 30
0.0
 11
4.027516
 21
2.592238
 31
0.0
  0
LINE
  5
49D
  8
0
 10
4.027516
 20
2.592238
 30
0.0
 11
4.263823
 21
2.592238
 31
0.0
  0
LINE
  5
49E
  8
0
 10
4.263823
 20
2.592238
 30
0.0
 11
4.578339
 21
2.592238
 31
0.0
  0
LINE
  5
49F
  8
0
 10
4.578339
 20
2.592238
 30
0.0
 11
5.764613
 21
2.592238
 31
0.0
  0
LINE
  5
4A0
  8
0
 10
5.764613
 20
2.592238
 30
0.0
 11
5.827516
 21
2.592238
 31
0.0
  0
LINE
  5
4A1
  8
0
 10
5.827516
 20
2.592238
 30
0.0
 11
6.063823
 21
2.592238
 31
0.0
  0
LINE
  5
4A2
  8
0
 10
6.063823
 20
2.592238
 30
0.0
 11
6.378339
 21
2.592238
 31
0.0
  0
LINE
  5
4A3
  8
0
 10
6.378339
 20
2.592238
 30
0.0
 11
7.564613
 21
2.592238
 31
0.0
  0
LINE
  5
4A4
  8
0
 10
7.564613
 20
2.592238
 30
0.0
 11
7.627516
 21
2.592238
 31
0.0
  0
LINE
  5
4A5
  8
0
 10
7.627516
 20
2.592238
 30
0.0
 11
7.863823
 21
2.592238
 31
0.0
  0
LINE
  5
4A6
  8
0
 10
7.863823
 20
2.592238
 30
0.0
 11
8.178339
 21
2.592238
 31
0.0
  0
LINE
  5
4A7
  8
0
 10
8.178339
 20
2.592238
 30
0.0
 11
9.364613
 21
2.592238
 31
0.0
  0
LINE
  5
4A8
  8
0
 10
9.364613
 20
2.592238
 30
0.0
 11
9.427516
 21
2.592238
 31
0.0
  0
LINE
  5
4A9
  8
0
 10
9.427516
 20
2.592238
 30
0.0
 11
9.663823
 21
2.592238
 31
0.0
  0
LINE
  5
4AA
  8
0
 10
9.663823
 20
2.592238
 30
0.0
 11
9.978339
 21
2.592238
 31
0.0
  0
LINE
  5
4AB
  8
0
 10
9.978339
 20
2.592238
 30
0.0
 11
11.164613
 21
2.592238
 31
0.0
  0
LINE
  5
4AC
  8
0
 10
11.164613
 20
2.592238
 30
0.0
 11
11.227516
 21
2.592238
 31
0.0
  0
LINE
  5
4AD
  8
0
 10
11.227516
 20
2.592238
 30
0.0
 11
11.463823
 21
2.592238
 31
0.0
  0
LINE
  5
4AE
  8
0
 10
11.463823
 20
2.592238
 30
0.0
 11
11.778339
 21
2.592238
 31
0.0
  0
LINE
  5
4AF
  8
0
 10
11.778339
 20
2.592238
 30
0.0
 11
12.964613
 21
2.592238
 31
0.0
  0
LINE
  5
4B0
  8
0
 10
12.964613
 20
2.592238
 30
0.0
 11
13.027516
 21
2.592238
 31
0.0
  0
LINE
  5
4B1
  8
0
 10
13.027516
 20
2.592238
 30
0.0
 11
13.263823
 21
2.592238
 31
0.0
  0
LINE
  5
4B2
  8
0
 10
13.263823
 20
2.592238
 30
0.0
 11
13.578339
 21
2.592238
 31
0.0
  0
LINE
  5
4B3
  8
0
 10
13.578339
 20
2.592238
 30
0.0
 11
14.676097
 21
2.592238
 31
0.0
  0
LINE
  5
4B4
  8
0
 10
14.676097
 20
2.592238
 30
0.0
 11
14.739
 21
2.592238
 31
0.0
  0
LINE
  5
4B5
  8
0
 10
0.463
 20
3.092238
 30
0.0
 11
0.700097
 21
3.092238
 31
0.0
  0
LINE
  5
4B6
  8
0
 10
0.463
 20
3.092238
 30
0.0
 11
0.700097
 21
3.092238
 31
0.0
  0
LINE
  5
4B7
  8
0
 10
0.700097
 20
3.092238
 30
0.0
 11
0.985048
 21
3.092238
 31
0.0
  0
LINE
  5
4B8
  8
0
 10
0.985048
 20
3.092238
 30
0.0
 11
2.170532
 21
3.092238
 31
0.0
  0
LINE
  5
4B9
  8
0
 10
2.170532
 20
3.092238
 30
0.0
 11
2.233435
 21
3.092238
 31
0.0
  0
LINE
  5
4BA
  8
0
 10
2.233435
 20
3.092238
 30
0.0
 11
2.470532
 21
3.092238
 31
0.0
  0
LINE
  5
4BB
  8
0
 10
2.470532
 20
3.092238
 30
0.0
 11
2.785048
 21
3.092238
 31
0.0
  0
LINE
  5
4BC
  8
0
 10
2.785048
 20
3.092238
 30
0.0
 11
3.970532
 21
3.092238
 31
0.0
  0
LINE
  5
4BD
  8
0
 10
3.970532
 20
3.092238
 30
0.0
 11
4.033435
 21
3.092238
 31
0.0
  0
LINE
  5
4BE
  8
0
 10
4.033435
 20
3.092238
 30
0.0
 11
4.270532
 21
3.092238
 31
0.0
  0
LINE
  5
4BF
  8
0
 10
4.270532
 20
3.092238
 30
0.0
 11
4.585048
 21
3.092238
 31
0.0
  0
LINE
  5
4C0
  8
0
 10
4.585048
 20
3.092238
 30
0.0
 11
5.770532
 21
3.092238
 31
0.0
  0
LINE
  5
4C1
  8
0
 10
5.770532
 20
3.092238
 30
0.0
 11
5.833435
 21
3.092238
 31
0.0
  0
LINE
  5
4C2
  8
0
 10
5.833435
 20
3.092238
 30
0.0
 11
6.070532
 21
3.092238
 31
0.0
  0
LINE
  5
4C3
  8
0
 10
6.070532
 20
3.092238
 30
0.0
 11
6.385048
 21
3.092238
 31
0.0
  0
LINE
  5
4C4
  8
0
 10
6.385048
 20
3.092238
 30
0.0
 11
7.570532
 21
3.092238
 31
0.0
  0
LINE
  5
4C5
  8
0
 10
7.570532
 20
3.092238
 30
0.0
 11
7.633435
 21
3.092238
 31
0.0
  0
LINE
  5
4C6
  8
0
 10
7.633435
 20
3.092238
 30
0.0
 11
7.870532
 21
3.092238
 31
0.0
  0
LINE
  5
4C7
  8
0
 10
7.870532
 20
3.092238
 30
0.0
 11
8.185048
 21
3.092238
 31
0.0
  0
LINE
  5
4C8
  8
0
 10
8.185048
 20
3.092238
 30
0.0
 11
9.370532
 21
3.092238
 31
0.0
  0
LINE
  5
4C9
  8
0
 10
9.370532
 20
3.092238
 30
0.0
 11
9.433435
 21
3.092238
 31
0.0
  0
LINE
  5
4CA
  8
0
 10
9.433435
 20
3.092238
 30
0.0
 11
9.670532
 21
3.092238
 31
0.0
  0
LINE
  5
4CB
  8
0
 10
9.670532
 20
3.092238
 30
0.0
 11
9.985048
 21
3.092238
 31
0.0
  0
LINE
  5
4CC
  8
0
 10
9.985048
 20
3.092238
 30
0.0
 11
11.170532
 21
3.092238
 31
0.0
  0
LINE
  5
4CD
  8
0
 10
11.170532
 20
3.092238
 30
0.0
 11
11.233435
 21
3.092238
 31
0.0
  0
LINE
  5
4CE
  8
0
 10
11.233435
 20
3.092238
 30
0.0
 11
11.470532
 21
3.092238
 31
0.0
  0
LINE
  5
4CF
  8
0
 10
11.470532
 20
3.092238
 30
0.0
 11
11.785048
 21
3.092238
 31
0.0
  0
LINE
  5
4D0
  8
0
 10
11.785048
 20
3.092238
 30
0.0
 11
12.970532
 21
3.092238
 31
0.0
  0
LINE
  5
4D1
  8
0
 10
12.970532
 20
3.092238
 30
0.0
 11
13.033435
 21
3.092238
 31
0.0
  0
LINE
  5
4D2
  8
0
 10
13.033435
 20
3.092238
 30
0.0
 11
13.270532
 21
3.092238
 31
0.0
  0
LINE
  5
4D3
  8
0
 10
13.270532
 20
3.092238
 30
0.0
 11
13.585048
 21
3.092238
 31
0.0
  0
LINE
  5
4D4
  8
0
 10
13.585048
 20
3.092238
 30
0.0
 11
14.659097
 21
3.092238
 31
0.0
  0
LINE
  5
4D5
  8
0
 10
14.659097
 20
3.092238
 30
0.0
 11
14.722
 21
3.092238
 31
0.0
  0
LINE
  5
4D6
  8
0
 10
0.476
 20
3.592238
 30
0.0
 11
0.713097
 21
3.592238
 31
0.0
  0
LINE
  5
4D7
  8
0
 10
0.476
 20
3.592238
 30
0.0
 11
0.713097
 21
3.592238
 31
0.0
  0
LINE
  5
4D8
  8
0
 10
0.713097
 20
3.592238
 30
0.0
 11
0.991548
 21
3.592238
 31
0.0
  0
LINE
  5
4D9
  8
0
 10
0.991548
 20
3.592238
 30
0.0
 11
2.177032
 21
3.592238
 31
0.0
  0
LINE
  5
4DA
  8
0
 10
2.177032
 20
3.592238
 30
0.0
 11
2.239935
 21
3.592238
 31
0.0
  0
LINE
  5
4DB
  8
0
 10
2.239935
 20
3.592238
 30
0.0
 11
2.477032
 21
3.592238
 31
0.0
  0
LINE
  5
4DC
  8
0
 10
2.477032
 20
3.592238
 30
0.0
 11
2.791548
 21
3.592238
 31
0.0
  0
LINE
  5
4DD
  8
0
 10
2.791548
 20
3.592238
 30
0.0
 11
3.977032
 21
3.592238
 31
0.0
  0
LINE
  5
4DE
  8
0
 10
3.977032
 20
3.592238
 30
0.0
 11
4.039935
 21
3.592238
 31
0.0
  0
LINE
  5
4DF
  8
0
 10
4.039935
 20
3.592238
 30
0.0
 11
4.277032
 21
3.592238
 31
0.0
  0
LINE
  5
4E0
  8
0
 10
4.277032
 20
3.592238
 30
0.0
 11
4.591548
 21
3.592238
 31
0.0
  0
LINE
  5
4E1
  8
0
 10
4.591548
 20
3.592238
 30
0.0
 11
5.777032
 21
3.592238
 31
0.0
  0
LINE
  5
4E2
  8
0
 10
5.777032
 20
3.592238
 30
0.0
 11
5.839935
 21
3.592238
 31
0.0
  0
LINE
  5
4E3
  8
0
 10
5.839935
 20
3.592238
 30
0.0
 11
6.077032
 21
3.592238
 31
0.0
  0
LINE
  5
4E4
  8
0
 10
6.077032
 20
3.592238
 30
0.0
 11
6.391548
 21
3.592238
 31
0.0
  0
LINE
  5
4E5
  8
0
 10
6.391548
 20
3.592238
 30
0.0
 11
7.577032
 21
3.592238
 31
0.0
  0
LINE
  5
4E6
  8
0
 10
7.577032
 20
3.592238
 30
0.0
 11
7.639935
 21
3.592238
 31
0.0
  0
LINE
  5
4E7
  8
0
 10
7.639935
 20
3.592238
 30
0.0
 11
7.877032
 21
3.592238
 31
0.0
  0
LINE
  5
4E8
  8
0
 10
7.877032
 20
3.592238
 30
0.0
 11
8.191548
 21
3.592238
 31
0.0
  0
LINE
  5
4E9
  8
0
 10
8.191548
 20
3.592238
 30
0.0
 11
9.377032
 21
3.592238
 31
0.0
  0
LINE
  5
4EA
  8
0
 10
9.377032
 20
3.592238
 30
0.0
 11
9.439935
 21
3.592238
 31
0.0
  0
LINE
  5
4EB
  8
0
 10
9.439935
 20
3.592238
 30
0.0
 11
9.677032
 21
3.592238
 31
0.0
  0
LINE
  5
4EC
  8
0
 10
9.677032
 20
3.592238
 30
0.0
 11
9.991548
 21
3.592238
 31
0.0
  0
LINE
  5
4ED
  8
0
 10
9.991548
 20
3.592238
 30
0.0
 11
11.177032
 21
3.592238
 31
0.0
  0
LINE
  5
4EE
  8
0
 10
11.177032
 20
3.592238
 30
0.0
 11
11.239935
 21
3.592238
 31
0.0
  0
LINE
  5
4EF
  8
0
 10
11.239935
 20
3.592238
 30
0.0
 11
11.477032
 21
3.592238
 31
0.0
  0
LINE
  5
4F0
  8
0
 10
11.477032
 20
3.592238
 30
0.0
 11
11.791548
 21
3.592238
 31
0.0
  0
LINE
  5
4F1
  8
0
 10
11.791548
 20
3.592238
 30
0.0
 11
12.977032
 21
3.592238
 31
0.0
  0
LINE
  5
4F2
  8
0
 10
12.977032
 20
3.592238
 30
0.0
 11
13.039935
 21
3.592238
 31
0.0
  0
LINE
  5
4F3
  8
0
 10
13.039935
 20
3.592238
 30
0.0
 11
13.277032
 21
3.592238
 31
0.0
  0
LINE
  5
4F4
  8
0
 10
13.277032
 20
3.592238
 30
0.0
 11
13.591548
 21
3.592238
 31
0.0
  0
LINE
  5
4F5
  8
0
 10
13.591548
 20
3.592238
 30
0.0
 11
14.641097
 21
3.592238
 31
0.0
  0
LINE
  5
4F6
  8
0
 10
14.641097
 20
3.592238
 30
0.0
 11
14.704
 21
3.592238
 31
0.0
  0
LINE
  5
4F7
  8
0
 10
0.488
 20
4.092238
 30
0.0
 11
0.725097
 21
4.092238
 31
0.0
  0
LINE
  5
4F8
  8
0
 10
0.488
 20
4.092238
 30
0.0
 11
0.725097
 21
4.092238
 31
0.0
  0
LINE
  5
4F9
  8
0
 10
0.725097
 20
4.092238
 30
0.0
 11
0.997468
 21
4.092238
 31
0.0
  0
LINE
  5
4FA
  8
0
 10
0.997468
 20
4.092238
 30
0.0
 11
2.182952
 21
4.092238
 31
0.0
  0
LINE
  5
4FB
  8
0
 10
2.182952
 20
4.092238
 30
0.0
 11
2.245645
 21
4.092238
 31
0.0
  0
LINE
  5
4FC
  8
0
 10
2.245645
 20
4.092238
 30
0.0
 11
2.482742
 21
4.092238
 31
0.0
  0
LINE
  5
4FD
  8
0
 10
2.482742
 20
4.092238
 30
0.0
 11
2.797468
 21
4.092238
 31
0.0
  0
LINE
  5
4FE
  8
0
 10
2.797468
 20
4.092238
 30
0.0
 11
3.982952
 21
4.092238
 31
0.0
  0
LINE
  5
4FF
  8
0
 10
3.982952
 20
4.092238
 30
0.0
 11
4.045645
 21
4.092238
 31
0.0
  0
LINE
  5
500
  8
0
 10
4.045645
 20
4.092238
 30
0.0
 11
4.282742
 21
4.092238
 31
0.0
  0
LINE
  5
501
  8
0
 10
4.282742
 20
4.092238
 30
0.0
 11
4.597468
 21
4.092238
 31
0.0
  0
LINE
  5
502
  8
0
 10
4.597468
 20
4.092238
 30
0.0
 11
5.782952
 21
4.092238
 31
0.0
  0
LINE
  5
503
  8
0
 10
5.782952
 20
4.092238
 30
0.0
 11
5.845645
 21
4.092238
 31
0.0
  0
LINE
  5
504
  8
0
 10
5.845645
 20
4.092238
 30
0.0
 11
6.082742
 21
4.092238
 31
0.0
  0
LINE
  5
505
  8
0
 10
6.082742
 20
4.092238
 30
0.0
 11
6.397468
 21
4.092238
 31
0.0
  0
LINE
  5
506
  8
0
 10
6.397468
 20
4.092238
 30
0.0
 11
7.582952
 21
4.092238
 31
0.0
  0
LINE
  5
507
  8
0
 10
7.582952
 20
4.092238
 30
0.0
 11
7.645645
 21
4.092238
 31
0.0
  0
LINE
  5
508
  8
0
 10
7.645645
 20
4.092238
 30
0.0
 11
7.882742
 21
4.092238
 31
0.0
  0
LINE
  5
509
  8
0
 10
7.882742
 20
4.092238
 30
0.0
 11
8.197468
 21
4.092238
 31
0.0
  0
LINE
  5
50A
  8
0
 10
8.197468
 20
4.092238
 30
0.0
 11
9.382952
 21
4.092238
 31
0.0
  0
LINE
  5
50B
  8
0
 10
9.382952
 20
4.092238
 30
0.0
 11
9.445645
 21
4.092238
 31
0.0
  0
LINE
  5
50C
  8
0
 10
9.445645
 20
4.092238
 30
0.0
 11
9.682742
 21
4.092238
 31
0.0
  0
LINE
  5
50D
  8
0
 10
9.682742
 20
4.092238
 30
0.0
 11
9.997468
 21
4.092238
 31
0.0
  0
LINE
  5
50E
  8
0
 10
9.997468
 20
4.092238
 30
0.0
 11
11.182952
 21
4.092238
 31
0.0
  0
LINE
  5
50F
  8
0
 10
11.182952
 20
4.092238
 30
0.0
 11
11.245645
 21
4.092238
 31
0.0
  0
LINE
  5
510
  8
0
 10
11.245645
 20
4.092238
 30
0.0
 11
11.482742
 21
4.092238
 31
0.0
  0
LINE
  5
511
  8
0
 10
11.482742
 20
4.092238
 30
0.0
 11
11.797468
 21
4.092238
 31
0.0
  0
LINE
  5
512
  8
0
 10
11.797468
 20
4.092238
 30
0.0
 11
12.982952
 21
4.092238
 31
0.0
  0
LINE
  5
513
  8
0
 10
12.982952
 20
4.092238
 30
0.0
 11
13.045645
 21
4.092238
 31
0.0
  0
LINE
  5
514
  8
0
 10
13.045645
 20
4.092238
 30
0.0
 11
13.282742
 21
4.092238
 31
0.0
  0
LINE
  5
515
  8
0
 10
13.282742
 20
4.092238
 30
0.0
 11
13.597468
 21
4.092238
 31
0.0
  0
LINE
  5
516
  8
0
 10
13.597468
 20
4.092238
 30
0.0
 11
14.624097
 21
4.092238
 31
0.0
  0
LINE
  5
517
  8
0
 10
14.624097
 20
4.092238
 30
0.0
 11
14.687
 21
4.092238
 31
0.0
  0
LINE
  5
518
  8
0
 10
0.501
 20
4.592238
 30
0.0
 11
0.738097
 21
4.592238
 31
0.0
  0
LINE
  5
519
  8
0
 10
0.501
 20
4.592238
 30
0.0
 11
0.738097
 21
4.592238
 31
0.0
  0
LINE
  5
51A
  8
0
 10
0.738097
 20
4.592238
 30
0.0
 11
1.003968
 21
4.592238
 31
0.0
  0
LINE
  5
51B
  8
0
 10
1.003968
 20
4.592238
 30
0.0
 11
2.189452
 21
4.592238
 31
0.0
  0
LINE
  5
51C
  8
0
 10
2.189452
 20
4.592238
 30
0.0
 11
2.252355
 21
4.592238
 31
0.0
  0
LINE
  5
51D
  8
0
 10
2.252355
 20
4.592238
 30
0.0
 11
2.489452
 21
4.592238
 31
0.0
  0
LINE
  5
51E
  8
0
 10
2.489452
 20
4.592238
 30
0.0
 11
2.803968
 21
4.592238
 31
0.0
  0
LINE
  5
51F
  8
0
 10
2.803968
 20
4.592238
 30
0.0
 11
3.989452
 21
4.592238
 31
0.0
  0
LINE
  5
520
  8
0
 10
3.989452
 20
4.592238
 30
0.0
 11
4.052355
 21
4.592238
 31
0.0
  0
LINE
  5
521
  8
0
 10
4.052355
 20
4.592238
 30
0.0
 11
4.289452
 21
4.592238
 31
0.0
  0
LINE
  5
522
  8
0
 10
4.289452
 20
4.592238
 30
0.0
 11
4.603968
 21
4.592238
 31
0.0
  0
LINE
  5
523
  8
0
 10
4.603968
 20
4.592238
 30
0.0
 11
5.789452
 21
4.592238
 31
0.0
  0
LINE
  5
524
  8
0
 10
5.789452
 20
4.592238
 30
0.0
 11
5.852355
 21
4.592238
 31
0.0
  0
LINE
  5
525
  8
0
 10
5.852355
 20
4.592238
 30
0.0
 11
6.089452
 21
4.592238
 31
0.0
  0
LINE
  5
526
  8
0
 10
6.089452
 20
4.592238
 30
0.0
 11
6.403968
 21
4.592238
 31
0.0
  0
LINE
  5
527
  8
0
 10
6.403968
 20
4.592238
 30
0.0
 11
7.589452
 21
4.592238
 31
0.0
  0
LINE
  5
528
  8
0
 10
7.589452
 20
4.592238
 30
0.0
 11
7.652355
 21
4.592238
 31
0.0
  0
LINE
  5
529
  8
0
 10
7.652355
 20
4.592238
 30
0.0
 11
7.889452
 21
4.592238
 31
0.0
  0
LINE
  5
52A
  8
0
 10
7.889452
 20
4.592238
 30
0.0
 11
8.203968
 21
4.592238
 31
0.0
  0
LINE
  5
52B
  8
0
 10
8.203968
 20
4.592238
 30
0.0
 11
9.389452
 21
4.592238
 31
0.0
  0
LINE
  5
52C
  8
0
 10
9.389452
 20
4.592238
 30
0.0
 11
9.452355
 21
4.592238
 31
0.0
  0
LINE
  5
52D
  8
0
 10
9.452355
 20
4.592238
 30
0.0
 11
9.689452
 21
4.592238
 31
0.0
  0
LINE
  5
52E
  8
0
 10
9.689452
 20
4.592238
 30
0.0
 11
10.003968
 21
4.592238
 31
0.0
  0
LINE
  5
52F
  8
0
 10
10.003968
 20
4.592238
 30
0.0
 11
11.189452
 21
4.592238
 31
0.0
  0
LINE
  5
530
  8
0
 10
11.189452
 20
4.592238
 30
0.0
 11
11.252355
 21
4.592238
 31
0.0
  0
LINE
  5
531
  8
0
 10
11.252355
 20
4.592238
 30
0.0
 11
11.489452
 21
4.592238
 31
0.0
  0
LINE
  5
532
  8
0
 10
11.489452
 20
4.592238
 30
0.0
 11
11.803968
 21
4.592238
 31
0.0
  0
LINE
  5
533
  8
0
 10
11.803968
 20
4.592238
 30
0.0
 11
12.989452
 21
4.592238
 31
0.0
  0
LINE
  5
534
  8
0
 10
12.989452
 20
4.592238
 30
0.0
 11
13.052355
 21
4.592238
 31
0.0
  0
LINE
  5
535
  8
0
 10
13.052355
 20
4.592238
 30
0.0
 11
13.289452
 21
4.592238
 31
0.0
  0
LINE
  5
536
  8
0
 10
13.289452
 20
4.592238
 30
0.0
 11
13.603968
 21
4.592238
 31
0.0
  0
LINE
  5
537
  8
0
 10
13.603968
 20
4.592238
 30
0.0
 11
14.606097
 21
4.592238
 31
0.0
  0
LINE
  5
538
  8
0
 10
14.606097
 20
4.592238
 30
0.0
 11
14.669
 21
4.592238
 31
0.0
  0
LINE
  5
539
  8
0
 10
0.513
 20
5.092238
 30
0.0
 11
0.750097
 21
5.092238
 31
0.0
  0
LINE
  5
53A
  8
0
 10
0.513
 20
5.092238
 30
0.0
 11
0.750097
 21
5.092238
 31
0.0
  0
LINE
  5
53B
  8
0
 10
0.750097
 20
5.092238
 30
0.0
 11
1.009677
 21
5.092238
 31
0.0
  0
LINE
  5
53C
  8
0
 10
1.009677
 20
5.092238
 30
0.0
 11
2.195952
 21
5.092238
 31
0.0
  0
LINE
  5
53D
  8
0
 10
2.195952
 20
5.092238
 30
0.0
 11
2.258855
 21
5.092238
 31
0.0
  0
LINE
  5
53E
  8
0
 10
2.258855
 20
5.092238
 30
0.0
 11
2.495161
 21
5.092238
 31
0.0
  0
LINE
  5
53F
  8
0
 10
2.495161
 20
5.092238
 30
0.0
 11
2.809677
 21
5.092238
 31
0.0
  0
LINE
  5
540
  8
0
 10
2.809677
 20
5.092238
 30
0.0
 11
3.995952
 21
5.092238
 31
0.0
  0
LINE
  5
541
  8
0
 10
3.995952
 20
5.092238
 30
0.0
 11
4.058855
 21
5.092238
 31
0.0
  0
LINE
  5
542
  8
0
 10
4.058855
 20
5.092238
 30
0.0
 11
4.295161
 21
5.092238
 31
0.0
  0
LINE
  5
543
  8
0
 10
4.295161
 20
5.092238
 30
0.0
 11
4.609677
 21
5.092238
 31
0.0
  0
LINE
  5
544
  8
0
 10
4.609677
 20
5.092238
 30
0.0
 11
5.795952
 21
5.092238
 31
0.0
  0
LINE
  5
545
  8
0
 10
5.795952
 20
5.092238
 30
0.0
 11
5.858855
 21
5.092238
 31
0.0
  0
LINE
  5
546
  8
0
 10
5.858855
 20
5.092238
 30
0.0
 11
6.095161
 21
5.092238
 31
0.0
  0
LINE
  5
547
  8
0
 10
6.095161
 20
5.092238
 30
0.0
 11
6.409677
 21
5.092238
 31
0.0
  0
LINE
  5
548
  8
0
 10
6.409677
 20
5.092238
 30
0.0
 11
7.595952
 21
5.092238
 31
0.0
  0
LINE
  5
549
  8
0
 10
7.595952
 20
5.092238
 30
0.0
 11
7.658855
 21
5.092238
 31
0.0
  0
LINE
  5
54A
  8
0
 10
7.658855
 20
5.092238
 30
0.0
 11
7.895161
 21
5.092238
 31
0.0
  0
LINE
  5
54B
  8
0
 10
7.895161
 20
5.092238
 30
0.0
 11
8.209677
 21
5.092238
 31
0.0
  0
LINE
  5
54C
  8
0
 10
8.209677
 20
5.092238
 30
0.0
 11
9.395952
 21
5.092238
 31
0.0
  0
LINE
  5
54D
  8
0
 10
9.395952
 20
5.092238
 30
0.0
 11
9.458855
 21
5.092238
 31
0.0
  0
LINE
  5
54E
  8
0
 10
9.458855
 20
5.092238
 30
0.0
 11
9.695161
 21
5.092238
 31
0.0
  0
LINE
  5
54F
  8
0
 10
9.695161
 20
5.092238
 30
0.0
 11
10.009677
 21
5.092238
 31
0.0
  0
LINE
  5
550
  8
0
 10
10.009677
 20
5.092238
 30
0.0
 11
11.195952
 21
5.092238
 31
0.0
  0
LINE
  5
551
  8
0
 10
11.195952
 20
5.092238
 30
0.0
 11
11.258855
 21
5.092238
 31
0.0
  0
LINE
  5
552
  8
0
 10
11.258855
 20
5.092238
 30
0.0
 11
11.495161
 21
5.092238
 31
0.0
  0
LINE
  5
553
  8
0
 10
11.495161
 20
5.092238
 30
0.0
 11
11.809677
 21
5.092238
 31
0.0
  0
LINE
  5
554
  8
0
 10
11.809677
 20
5.092238
 30
0.0
 11
12.995952
 21
5.092238
 31
0.0
  0
LINE
  5
555
  8
0
 10
12.995952
 20
5.092238
 30
0.0
 11
13.058855
 21
5.092238
 31
0.0
  0
LINE
  5
556
  8
0
 10
13.058855
 20
5.092238
 30
0.0
 11
13.295161
 21
5.092238
 31
0.0
  0
LINE
  5
557
  8
0
 10
13.295161
 20
5.092238
 30
0.0
 11
13.609677
 21
5.092238
 31
0.0
  0
LINE
  5
558
  8
0
 10
13.609677
 20
5.092238
 30
0.0
 11
14.588097
 21
5.092238
 31
0.0
  0
LINE
  5
559
  8
0
 10
14.588097
 20
5.092238
 30
0.0
 11
14.651
 21
5.092238
 31
0.0
  0
LINE
  5
55A
  8
0
 10
0.526
 20
5.592238
 30
0.0
 11
0.763097
 21
5.592238
 31
0.0
  0
LINE
  5
55B
  8
0
 10
0.526
 20
5.592238
 30
0.0
 11
0.763097
 21
5.592238
 31
0.0
  0
LINE
  5
55C
  8
0
 10
0.763097
 20
5.592238
 30
0.0
 11
1.016387
 21
5.592238
 31
0.0
  0
LINE
  5
55D
  8
0
 10
1.016387
 20
5.592238
 30
0.0
 11
2.201871
 21
5.592238
 31
0.0
  0
LINE
  5
55E
  8
0
 10
2.201871
 20
5.592238
 30
0.0
 11
2.264774
 21
5.592238
 31
0.0
  0
LINE
  5
55F
  8
0
 10
2.264774
 20
5.592238
 30
0.0
 11
2.501871
 21
5.592238
 31
0.0
  0
LINE
  5
560
  8
0
 10
2.501871
 20
5.592238
 30
0.0
 11
2.816387
 21
5.592238
 31
0.0
  0
LINE
  5
561
  8
0
 10
2.816387
 20
5.592238
 30
0.0
 11
4.001871
 21
5.592238
 31
0.0
  0
LINE
  5
562
  8
0
 10
4.001871
 20
5.592238
 30
0.0
 11
4.064774
 21
5.592238
 31
0.0
  0
LINE
  5
563
  8
0
 10
4.064774
 20
5.592238
 30
0.0
 11
4.301871
 21
5.592238
 31
0.0
  0
LINE
  5
564
  8
0
 10
4.301871
 20
5.592238
 30
0.0
 11
4.616387
 21
5.592238
 31
0.0
  0
LINE
  5
565
  8
0
 10
4.616387
 20
5.592238
 30
0.0
 11
5.801871
 21
5.592238
 31
0.0
  0
LINE
  5
566
  8
0
 10
5.801871
 20
5.592238
 30
0.0
 11
5.864774
 21
5.592238
 31
0.0
  0
LINE
  5
567
  8
0
 10
5.864774
 20
5.592238
 30
0.0
 11
6.101871
 21
5.592238
 31
0.0
  0
LINE
  5
568
  8
0
 10
6.101871
 20
5.592238
 30
0.0
 11
6.416387
 21
5.592238
 31
0.0
  0
LINE
  5
569
  8
0
 10
6.416387
 20
5.592238
 30
0.0
 11
7.601871
 21
5.592238
 31
0.0
  0
LINE
  5
56A
  8
0
 10
7.601871
 20
5.592238
 30
0.0
 11
7.664774
 21
5.592238
 31
0.0
  0
LINE
  5
56B
  8
0
 10
7.664774
 20
5.592238
 30
0.0
 11
7.901871
 21
5.592238
 31
0.0
  0
LINE
  5
56C
  8
0
 10
7.901871
 20
5.592238
 30
0.0
 11
8.216387
 21
5.592238
 31
0.0
  0
LINE
  5
56D
  8
0
 10
8.216387
 20
5.592238
 30
0.0
 11
9.401871
 21
5.592238
 31
0.0
  0
LINE
  5
56E
  8
0
 10
9.401871
 20
5.592238
 30
0.0
 11
9.464774
 21
5.592238
 31
0.0
  0
LINE
  5
56F
  8
0
 10
9.464774
 20
5.592238
 30
0.0
 11
9.701871
 21
5.592238
 31
0.0
  0
LINE
  5
570
  8
0
 10
9.701871
 20
5.592238
 30
0.0
 11
10.016387
 21
5.592238
 31
0.0
  0
LINE
  5
571
  8
0
 10
10.016387
 20
5.592238
 30
0.0
 11
11.201871
 21
5.592238
 31
0.0
  0
LINE
  5
572
  8
0
 10
11.201871
 20
5.592238
 30
0.0
 11
11.264774
 21
5.592238
 31
0.0
  0
LINE
  5
573
  8
0
 10
11.264774
 20
5.592238
 30
0.0
 11
11.501871
 21
5.592238
 31
0.0
  0
LINE
  5
574
  8
0
 10
11.501871
 20
5.592238
 30
0.0
 11
11.816387
 21
5.592238
 31
0.0
  0
LINE
  5
575
  8
0
 10
11.816387
 20
5.592238
 30
0.0
 11
13.001871
 21
5.592238
 31
0.0
  0
LINE
  5
576
  8
0
 10
13.001871
 20
5.592238
 30
0.0
 11
13.064774
 21
5.592238
 31
0.0
  0
LINE
  5
577
  8
0
 10
13.064774
 20
5.592238
 30
0.0
 11
13.301871
 21
5.592238
 31
0.0
  0
LINE
  5
578
  8
0
 10
13.301871
 20
5.592238
 30
0.0
 11
13.616387
 21
5.592238
 31
0.0
  0
LINE
  5
579
  8
0
 10
13.616387
 20
5.592238
 30
0.0
 11
14.571097
 21
5.592238
 31
0.0
  0
LINE
  5
57A
  8
0
 10
14.571097
 20
5.592238
 30
0.0
 11
14.634
 21
5.592238
 31
0.0
  0
LINE
  5
57B
  8
0
 10
0.539
 20
6.092238
 30
0.0
 11
0.776097
 21
6.092238
 31
0.0
  0
LINE
  5
57C
  8
0
 10
0.539
 20
6.092238
 30
0.0
 11
0.776097
 21
6.092238
 31
0.0
  0
LINE
  5
57D
  8
0
 10
0.776097
 20
6.092238
 30
0.0
 11
1.024984
 21
6.092238
 31
0.0
  0
LINE
  5
57E
  8
0
 10
1.024984
 20
6.092238
 30
0.0
 11
2.210468
 21
6.092238
 31
0.0
  0
LINE
  5
57F
  8
0
 10
2.210468
 20
6.092238
 30
0.0
 11
2.273371
 21
6.092238
 31
0.0
  0
LINE
  5
580
  8
0
 10
2.273371
 20
6.092238
 30
0.0
 11
2.510468
 21
6.092238
 31
0.0
  0
LINE
  5
581
  8
0
 10
2.510468
 20
6.092238
 30
0.0
 11
2.824984
 21
6.092238
 31
0.0
  0
LINE
  5
582
  8
0
 10
2.824984
 20
6.092238
 30
0.0
 11
4.010468
 21
6.092238
 31
0.0
  0
LINE
  5
583
  8
0
 10
4.010468
 20
6.092238
 30
0.0
 11
4.073371
 21
6.092238
 31
0.0
  0
LINE
  5
584
  8
0
 10
4.073371
 20
6.092238
 30
0.0
 11
4.310468
 21
6.092238
 31
0.0
  0
LINE
  5
585
  8
0
 10
4.310468
 20
6.092238
 30
0.0
 11
4.624984
 21
6.092238
 31
0.0
  0
LINE
  5
586
  8
0
 10
4.624984
 20
6.092238
 30
0.0
 11
5.810468
 21
6.092238
 31
0.0
  0
LINE
  5
587
  8
0
 10
5.810468
 20
6.092238
 30
0.0
 11
5.873371
 21
6.092238
 31
0.0
  0
LINE
  5
588
  8
0
 10
5.873371
 20
6.092238
 30
0.0
 11
6.110468
 21
6.092238
 31
0.0
  0
LINE
  5
589
  8
0
 10
6.110468
 20
6.092238
 30
0.0
 11
6.424984
 21
6.092238
 31
0.0
  0
LINE
  5
58A
  8
0
 10
6.424984
 20
6.092238
 30
0.0
 11
7.610468
 21
6.092238
 31
0.0
  0
LINE
  5
58B
  8
0
 10
7.610468
 20
6.092238
 30
0.0
 11
7.673371
 21
6.092238
 31
0.0
  0
LINE
  5
58C
  8
0
 10
7.673371
 20
6.092238
 30
0.0
 11
7.910468
 21
6.092238
 31
0.0
  0
LINE
  5
58D
  8
0
 10
7.910468
 20
6.092238
 30
0.0
 11
8.224984
 21
6.092238
 31
0.0
  0
LINE
  5
58E
  8
0
 10
8.224984
 20
6.092238
 30
0.0
 11
9.410468
 21
6.092238
 31
0.0
  0
LINE
  5
58F
  8
0
 10
9.410468
 20
6.092238
 30
0.0
 11
9.473371
 21
6.092238
 31
0.0
  0
LINE
  5
590
  8
0
 10
9.473371
 20
6.092238
 30
0.0
 11
9.710468
 21
6.092238
 31
0.0
  0
LINE
  5
591
  8
0
 10
9.710468
 20
6.092238
 30
0.0
 11
10.024984
 21
6.092238
 31
0.0
  0
LINE
  5
592
  8
0
 10
10.024984
 20
6.092238
 30
0.0
 11
11.210468
 21
6.092238
 31
0.0
  0
LINE
  5
593
  8
0
 10
11.210468
 20
6.092238
 30
0.0
 11
11.273371
 21
6.092238
 31
0.0
  0
LINE
  5
594
  8
0
 10
11.273371
 20
6.092238
 30
0.0
 11
11.510468
 21
6.092238
 31
0.0
  0
LINE
  5
595
  8
0
 10
11.510468
 20
6.092238
 30
0.0
 11
11.824984
 21
6.092238
 31
0.0
  0
LINE
  5
596
  8
0
 10
11.824984
 20
6.092238
 30
0.0
 11
13.010468
 21
6.092238
 31
0.0
  0
LINE
  5
597
  8
0
 10
13.010468
 20
6.092238
 30
0.0
 11
13.073371
 21
6.092238
 31
0.0
  0
LINE
  5
598
  8
0
 10
13.073371
 20
6.092238
 30
0.0
 11
13.310468
 21
6.092238
 31
0.0
  0
LINE
  5
599
  8
0
 10
13.310468
 20
6.092238
 30
0.0
 11
13.624984
 21
6.092238
 31
0.0
  0
LINE
  5
59A
  8
0
 10
13.624984
 20
6.092238
 30
0.0
 11
14.563097
 21
6.092238
 31
0.0
  0
LINE
  5
59B
  8
0
 10
14.563097
 20
6.092238
 30
0.0
 11
14.626
 21
6.092238
 31
0.0
  0
LINE
  5
59C
  8
0
 10
0.551
 20
6.592238
 30
0.0
 11
0.788097
 21
6.592238
 31
0.0
  0
LINE
  5
59D
  8
0
 10
0.551
 20
6.592238
 30
0.0
 11
0.788097
 21
6.592238
 31
0.0
  0
LINE
  5
59E
  8
0
 10
0.788097
 20
6.592238
 30
0.0
 11
1.034468
 21
6.592238
 31
0.0
  0
LINE
  5
59F
  8
0
 10
1.034468
 20
6.592238
 30
0.0
 11
2.219952
 21
6.592238
 31
0.0
  0
LINE
  5
5A0
  8
0
 10
2.219952
 20
6.592238
 30
0.0
 11
2.282855
 21
6.592238
 31
0.0
  0
LINE
  5
5A1
  8
0
 10
2.282855
 20
6.592238
 30
0.0
 11
2.519952
 21
6.592238
 31
0.0
  0
LINE
  5
5A2
  8
0
 10
2.519952
 20
6.592238
 30
0.0
 11
2.834468
 21
6.592238
 31
0.0
  0
LINE
  5
5A3
  8
0
 10
2.834468
 20
6.592238
 30
0.0
 11
4.019952
 21
6.592238
 31
0.0
  0
LINE
  5
5A4
  8
0
 10
4.019952
 20
6.592238
 30
0.0
 11
4.082855
 21
6.592238
 31
0.0
  0
LINE
  5
5A5
  8
0
 10
4.082855
 20
6.592238
 30
0.0
 11
4.319952
 21
6.592238
 31
0.0
  0
LINE
  5
5A6
  8
0
 10
4.319952
 20
6.592238
 30
0.0
 11
4.634468
 21
6.592238
 31
0.0
  0
LINE
  5
5A7
  8
0
 10
4.634468
 20
6.592238
 30
0.0
 11
5.819952
 21
6.592238
 31
0.0
  0
LINE
  5
5A8
  8
0
 10
5.819952
 20
6.592238
 30
0.0
 11
5.882855
 21
6.592238
 31
0.0
  0
LINE
  5
5A9
  8
0
 10
5.882855
 20
6.592238
 30
0.0
 11
6.119952
 21
6.592238
 31
0.0
  0
LINE
  5
5AA
  8
0
 10
6.119952
 20
6.592238
 30
0.0
 11
6.434468
 21
6.592238
 31
0.0
  0
LINE
  5
5AB
  8
0
 10
6.434468
 20
6.592238
 30
0.0
 11
7.619952
 21
6.592238
 31
0.0
  0
LINE
  5
5AC
  8
0
 10
7.619952
 20
6.592238
 30
0.0
 11
7.682855
 21
6.592238
 31
0.0
  0
LINE
  5
5AD
  8
0
 10
7.682855
 20
6.592238
 30
0.0
 11
7.919952
 21
6.592238
 31
0.0
  0
LINE
  5
5AE
  8
0
 10
7.919952
 20
6.592238
 30
0.0
 11
8.234468
 21
6.592238
 31
0.0
  0
LINE
  5
5AF
  8
0
 10
8.234468
 20
6.592238
 30
0.0
 11
9.419952
 21
6.592238
 31
0.0
  0
LINE
  5
5B0
  8
0
 10
9.419952
 20
6.592238
 30
0.0
 11
9.482855
 21
6.592238
 31
0.0
  0
LINE
  5
5B1
  8
0
 10
9.482855
 20
6.592238
 30
0.0
 11
9.719952
 21
6.592238
 31
0.0
  0
LINE
  5
5B2
  8
0
 10
9.719952
 20
6.592238
 30
0.0
 11
10.034468
 21
6.592238
 31
0.0
  0
LINE
  5
5B3
  8
0
 10
10.034468
 20
6.592238
 30
0.0
 11
11.219952
 21
6.592238
 31
0.0
  0
LINE
  5
5B4
  8
0
 10
11.219952
 20
6.592238
 30
0.0
 11
11.282855
 21
6.592238
 31
0.0
  0
LINE
  5
5B5
  8
0
 10
11.282855
 20
6.592238
 30
0.0
 11
11.519952
 21
6.592238
 31
0.0
  0
LINE
  5
5B6
  8
0
 10
11.519952
 20
6.592238
 30
0.0
 11
11.834468
 21
6.592238
 31
0.0
  0
LINE
  5
5B7
  8
0
 10
11.834468
 20
6.592238
 30
0.0
 11
13.019952
 21
6.592238
 31
0.0
  0
LINE
  5
5B8
  8
0
 10
13.019952
 20
6.592238
 30
0.0
 11
13.082855
 21
6.592238
 31
0.0
  0
LINE
  5
5B9
  8
0
 10
13.082855
 20
6.592238
 30
0.0
 11
13.319952
 21
6.592238
 31
0.0
  0
LINE
  5
5BA
  8
0
 10
13.319952
 20
6.592238
 30
0.0
 11
13.634468
 21
6.592238
 31
0.0
  0
LINE
  5
5BB
  8
0
 10
13.634468
 20
6.592238
 30
0.0
 11
14.563097
 21
6.592238
 31
0.0
  0
LINE
  5
5BC
  8
0
 10
14.563097
 20
6.592238
 30
0.0
 11
14.626
 21
6.592238
 31
0.0
  0
LINE
  5
5BD
  8
0
 10
0.564
 20
7.092238
 30
0.0
 11
0.801097
 21
7.092238
 31
0.0
  0
LINE
  5
5BE
  8
0
 10
0.564
 20
7.092238
 30
0.0
 11
0.801097
 21
7.092238
 31
0.0
  0
LINE
  5
5BF
  8
0
 10
0.801097
 20
7.092238
 30
0.0
 11
1.044742
 21
7.092238
 31
0.0
  0
LINE
  5
5C0
  8
0
 10
1.044742
 20
7.092238
 30
0.0
 11
2.230226
 21
7.092238
 31
0.0
  0
LINE
  5
5C1
  8
0
 10
2.230226
 20
7.092238
 30
0.0
 11
2.293129
 21
7.092238
 31
0.0
  0
LINE
  5
5C2
  8
0
 10
2.293129
 20
7.092238
 30
0.0
 11
2.530226
 21
7.092238
 31
0.0
  0
LINE
  5
5C3
  8
0
 10
2.530226
 20
7.092238
 30
0.0
 11
2.844742
 21
7.092238
 31
0.0
  0
LINE
  5
5C4
  8
0
 10
2.844742
 20
7.092238
 30
0.0
 11
4.030226
 21
7.092238
 31
0.0
  0
LINE
  5
5C5
  8
0
 10
4.030226
 20
7.092238
 30
0.0
 11
4.093129
 21
7.092238
 31
0.0
  0
LINE
  5
5C6
  8
0
 10
4.093129
 20
7.092238
 30
0.0
 11
4.330226
 21
7.092238
 31
0.0
  0
LINE
  5
5C7
  8
0
 10
4.330226
 20
7.092238
 30
0.0
 11
4.644742
 21
7.092238
 31
0.0
  0
LINE
  5
5C8
  8
0
 10
4.644742
 20
7.092238
 30
0.0
 11
5.830226
 21
7.092238
 31
0.0
  0
LINE
  5
5C9
  8
0
 10
5.830226
 20
7.092238
 30
0.0
 11
5.893129
 21
7.092238
 31
0.0
  0
LINE
  5
5CA
  8
0
 10
5.893129
 20
7.092238
 30
0.0
 11
6.130226
 21
7.092238
 31
0.0
  0
LINE
  5
5CB
  8
0
 10
6.130226
 20
7.092238
 30
0.0
 11
6.444742
 21
7.092238
 31
0.0
  0
LINE
  5
5CC
  8
0
 10
6.444742
 20
7.092238
 30
0.0
 11
7.630226
 21
7.092238
 31
0.0
  0
LINE
  5
5CD
  8
0
 10
7.630226
 20
7.092238
 30
0.0
 11
7.693129
 21
7.092238
 31
0.0
  0
LINE
  5
5CE
  8
0
 10
7.693129
 20
7.092238
 30
0.0
 11
7.930226
 21
7.092238
 31
0.0
  0
LINE
  5
5CF
  8
0
 10
7.930226
 20
7.092238
 30
0.0
 11
8.244742
 21
7.092238
 31
0.0
  0
LINE
  5
5D0
  8
0
 10
8.244742
 20
7.092238
 30
0.0
 11
9.430226
 21
7.092238
 31
0.0
  0
LINE
  5
5D1
  8
0
 10
9.430226
 20
7.092238
 30
0.0
 11
9.493129
 21
7.092238
 31
0.0
  0
LINE
  5
5D2
  8
0
 10
9.493129
 20
7.092238
 30
0.0
 11
9.730226
 21
7.092238
 31
0.0
  0
LINE
  5
5D3
  8
0
 10
9.730226
 20
7.092238
 30
0.0
 11
10.044742
 21
7.092238
 31
0.0
  0
LINE
  5
5D4
  8
0
 10
10.044742
 20
7.092238
 30
0.0
 11
11.230226
 21
7.092238
 31
0.0
  0
LINE
  5
5D5
  8
0
 10
11.230226
 20
7.092238
 30
0.0
 11
11.293129
 21
7.092238
 31
0.0
  0
LINE
  5
5D6
  8
0
 10
11.293129
 20
7.092238
 30
0.0
 11
11.530226
 21
7.092238
 31
0.0
  0
LINE
  5
5D7
  8
0
 10
11.530226
 20
7.092238
 30
0.0
 11
11.844742
 21
7.092238
 31
0.0
  0
LINE
  5
5D8
  8
0
 10
11.844742
 20
7.092238
 30
0.0
 11
13.030226
 21
7.092238
 31
0.0
  0
LINE
  5
5D9
  8
0
 10
13.030226
 20
7.092238
 30
0.0
 11
13.093129
 21
7.092238
 31
0.0
  0
LINE
  5
5DA
  8
0
 10
13.093129
 20
7.092238
 30
0.0
 11
13.330226
 21
7.092238
 31
0.0
  0
LINE
  5
5DB
  8
0
 10
13.330226
 20
7.092238
 30
0.0
 11
13.644742
 21
7.092238
 31
0.0
  0
LINE
  5
5DC
  8
0
 10
13.644742
 20
7.092238
 30
0.0
 11
14.563097
 21
7.092238
 31
0.0
  0
LINE
  5
5DD
  8
0
 10
14.563097
 20
7.092238
 30
0.0
 11
14.626
 21
7.092238
 31
0.0
  0
LINE
  5
5DE
  8
0
 10
0.576
 20
7.592238
 30
0.0
 11
0.57679
 21
7.592238
 31
0.0
  0
LINE
  5
5DF
  8
0
 10
0.576
 20
7.592238
 30
0.0
 11
0.57679
 21
7.592238
 31
0.0
  0
LINE
  5
5E0
  8
0
 10
0.57679
 20
7.592238
 30
0.0
 11
0.813097
 21
7.592238
 31
0.0
  0
LINE
  5
5E1
  8
0
 10
0.813097
 20
7.592238
 30
0.0
 11
1.054226
 21
7.592238
 31
0.0
  0
LINE
  5
5E2
  8
0
 10
1.054226
 20
7.592238
 30
0.0
 11
2.2405
 21
7.592238
 31
0.0
  0
LINE
  5
5E3
  8
0
 10
2.2405
 20
7.592238
 30
0.0
 11
2.303403
 21
7.592238
 31
0.0
  0
LINE
  5
5E4
  8
0
 10
2.303403
 20
7.592238
 30
0.0
 11
2.53971
 21
7.592238
 31
0.0
  0
LINE
  5
5E5
  8
0
 10
2.53971
 20
7.592238
 30
0.0
 11
2.854226
 21
7.592238
 31
0.0
  0
LINE
  5
5E6
  8
0
 10
2.854226
 20
7.592238
 30
0.0
 11
4.0405
 21
7.592238
 31
0.0
  0
LINE
  5
5E7
  8
0
 10
4.0405
 20
7.592238
 30
0.0
 11
4.103403
 21
7.592238
 31
0.0
  0
LINE
  5
5E8
  8
0
 10
4.103403
 20
7.592238
 30
0.0
 11
4.33971
 21
7.592238
 31
0.0
  0
LINE
  5
5E9
  8
0
 10
4.33971
 20
7.592238
 30
0.0
 11
4.654226
 21
7.592238
 31
0.0
  0
LINE
  5
5EA
  8
0
 10
4.654226
 20
7.592238
 30
0.0
 11
5.8405
 21
7.592238
 31
0.0
  0
LINE
  5
5EB
  8
0
 10
5.8405
 20
7.592238
 30
0.0
 11
5.903403
 21
7.592238
 31
0.0
  0
LINE
  5
5EC
  8
0
 10
5.903403
 20
7.592238
 30
0.0
 11
6.13971
 21
7.592238
 31
0.0
  0
LINE
  5
5ED
  8
0
 10
6.13971
 20
7.592238
 30
0.0
 11
6.454226
 21
7.592238
 31
0.0
  0
LINE
  5
5EE
  8
0
 10
6.454226
 20
7.592238
 30
0.0
 11
7.6405
 21
7.592238
 31
0.0
  0
LINE
  5
5EF
  8
0
 10
7.6405
 20
7.592238
 30
0.0
 11
7.703403
 21
7.592238
 31
0.0
  0
LINE
  5
5F0
  8
0
 10
7.703403
 20
7.592238
 30
0.0
 11
7.93971
 21
7.592238
 31
0.0
  0
LINE
  5
5F1
  8
0
 10
7.93971
 20
7.592238
 30
0.0
 11
8.254226
 21
7.592238
 31
0.0
  0
LINE
  5
5F2
  8
0
 10
8.254226
 20
7.592238
 30
0.0
 11
9.4405
 21
7.592238
 31
0.0
  0
LINE
  5
5F3
  8
0
 10
9.4405
 20
7.592238
 30
0.0
 11
9.503403
 21
7.592238
 31
0.0
  0
LINE
  5
5F4
  8
0
 10
9.503403
 20
7.592238
 30
0.0
 11
9.73971
 21
7.592238
 31
0.0
  0
LINE
  5
5F5
  8
0
 10
9.73971
 20
7.592238
 30
0.0
 11
10.054226
 21
7.592238
 31
0.0
  0
LINE
  5
5F6
  8
0
 10
10.054226
 20
7.592238
 30
0.0
 11
11.2405
 21
7.592238
 31
0.0
  0
LINE
  5
5F7
  8
0
 10
11.2405
 20
7.592238
 30
0.0
 11
11.303403
 21
7.592238
 31
0.0
  0
LINE
  5
5F8
  8
0
 10
11.303403
 20
7.592238
 30
0.0
 11
11.53971
 21
7.592238
 31
0.0
  0
LINE
  5
5F9
  8
0
 10
11.53971
 20
7.592238
 30
0.0
 11
11.854226
 21
7.592238
 31
0.0
  0
LINE
  5
5FA
  8
0
 10
11.854226
 20
7.592238
 30
0.0
 11
13.0405
 21
7.592238
 31
0.0
  0
LINE
  5
5FB
  8
0
 10
13.0405
 20
7.592238
 30
0.0
 11
13.103403
 21
7.592238
 31
0.0
  0
LINE
  5
5FC
  8
0
 10
13.103403
 20
7.592238
 30
0.0
 11
13.33971
 21
7.592238
 31
0.0
  0
LINE
  5
5FD
  8
0
 10
13.33971
 20
7.592238
 30
0.0
 11
13.654226
 21
7.592238
 31
0.0
  0
LINE
  5
5FE
  8
0
 10
13.654226
 20
7.592238
 30
0.0
 11
14.563097
 21
7.592238
 31
0.0
  0
LINE
  5
5FF
  8
0
 10
14.563097
 20
7.592238
 30
0.0
 11
14.626
 21
7.592238
 31
0.0
  0
LINE
  5
600
  8
0
 10
0.575
 20
8.092238
 30
0.0
 11
0.812097
 21
8.092238
 31
0.0
  0
LINE
  5
601
  8
0
 10
0.575
 20
8.092238
 30
0.0
 11
0.812097
 21
8.092238
 31
0.0
  0
LINE
  5
602
  8
0
 10
0.812097
 20
8.092238
 30
0.0
 11
1.053435
 21
8.092238
 31
0.0
  0
LINE
  5
603
  8
0
 10
1.053435
 20
8.092238
 30
0.0
 11
2.23971
 21
8.092238
 31
0.0
  0
LINE
  5
604
  8
0
 10
2.23971
 20
8.092238
 30
0.0
 11
2.302613
 21
8.092238
 31
0.0
  0
LINE
  5
605
  8
0
 10
2.302613
 20
8.092238
 30
0.0
 11
2.538919
 21
8.092238
 31
0.0
  0
LINE
  5
606
  8
0
 10
2.538919
 20
8.092238
 30
0.0
 11
2.853435
 21
8.092238
 31
0.0
  0
LINE
  5
607
  8
0
 10
2.853435
 20
8.092238
 30
0.0
 11
4.03971
 21
8.092238
 31
0.0
  0
LINE
  5
608
  8
0
 10
4.03971
 20
8.092238
 30
0.0
 11
4.102613
 21
8.092238
 31
0.0
  0
LINE
  5
609
  8
0
 10
4.102613
 20
8.092238
 30
0.0
 11
4.338919
 21
8.092238
 31
0.0
  0
LINE
  5
60A
  8
0
 10
4.338919
 20
8.092238
 30
0.0
 11
4.653435
 21
8.092238
 31
0.0
  0
LINE
  5
60B
  8
0
 10
4.653435
 20
8.092238
 30
0.0
 11
5.83971
 21
8.092238
 31
0.0
  0
LINE
  5
60C
  8
0
 10
5.83971
 20
8.092238
 30
0.0
 11
5.902613
 21
8.092238
 31
0.0
  0
LINE
  5
60D
  8
0
 10
5.902613
 20
8.092238
 30
0.0
 11
6.138919
 21
8.092238
 31
0.0
  0
LINE
  5
60E
  8
0
 10
6.138919
 20
8.092238
 30
0.0
 11
6.453435
 21
8.092238
 31
0.0
  0
LINE
  5
60F
  8
0
 10
6.453435
 20
8.092238
 30
0.0
 11
7.63971
 21
8.092238
 31
0.0
  0
LINE
  5
610
  8
0
 10
7.63971
 20
8.092238
 30
0.0
 11
7.702613
 21
8.092238
 31
0.0
  0
LINE
  5
611
  8
0
 10
7.702613
 20
8.092238
 30
0.0
 11
7.938919
 21
8.092238
 31
0.0
  0
LINE
  5
612
  8
0
 10
7.938919
 20
8.092238
 30
0.0
 11
8.253435
 21
8.092238
 31
0.0
  0
LINE
  5
613
  8
0
 10
8.253435
 20
8.092238
 30
0.0
 11
9.43971
 21
8.092238
 31
0.0
  0
LINE
  5
614
  8
0
 10
9.43971
 20
8.092238
 30
0.0
 11
9.502613
 21
8.092238
 31
0.0
  0
LINE
  5
615
  8
0
 10
9.502613
 20
8.092238
 30
0.0
 11
9.738919
 21
8.092238
 31
0.0
  0
LINE
  5
616
  8
0
 10
9.738919
 20
8.092238
 30
0.0
 11
10.053435
 21
8.092238
 31
0.0
  0
LINE
  5
617
  8
0
 10
10.053435
 20
8.092238
 30
0.0
 11
11.23971
 21
8.092238
 31
0.0
  0
LINE
  5
618
  8
0
 10
11.23971
 20
8.092238
 30
0.0
 11
11.302613
 21
8.092238
 31
0.0
  0
LINE
  5
619
  8
0
 10
11.302613
 20
8.092238
 30
0.0
 11
11.538919
 21
8.092238
 31
0.0
  0
LINE
  5
61A
  8
0
 10
11.538919
 20
8.092238
 30
0.0
 11
11.853435
 21
8.092238
 31
0.0
  0
LINE
  5
61B
  8
0
 10
11.853435
 20
8.092238
 30
0.0
 11
13.03971
 21
8.092238
 31
0.0
  0
LINE
  5
61C
  8
0
 10
13.03971
 20
8.092238
 30
0.0
 11
13.102613
 21
8.092238
 31
0.0
  0
LINE
  5
61D
  8
0
 10
13.102613
 20
8.092238
 30
0.0
 11
13.338919
 21
8.092238
 31
0.0
  0
LINE
  5
61E
  8
0
 10
13.338919
 20
8.092238
 30
0.0
 11
13.653435
 21
8.092238
 31
0.0
  0
LINE
  5
61F
  8
0
 10
13.653435
 20
8.092238
 30
0.0
 11
14.563097
 21
8.092238
 31
0.0
  0
LINE
  5
620
  8
0
 10
14.563097
 20
8.092238
 30
0.0
 11
14.626
 21
8.092238
 31
0.0
  0
LINE
  5
621
  8
0
 10
0.56
 20
8.592238
 30
0.0
 11
0.797097
 21
8.592238
 31
0.0
  0
LINE
  5
622
  8
0
 10
0.56
 20
8.592238
 30
0.0
 11
0.797097
 21
8.592238
 31
0.0
  0
LINE
  5
623
  8
0
 10
0.797097
 20
8.592238
 30
0.0
 11
1.041581
 21
8.592238
 31
0.0
  0
LINE
  5
624
  8
0
 10
1.041581
 20
8.592238
 30
0.0
 11
2.227065
 21
8.592238
 31
0.0
  0
LINE
  5
625
  8
0
 10
2.227065
 20
8.592238
 30
0.0
 11
2.289968
 21
8.592238
 31
0.0
  0
LINE
  5
626
  8
0
 10
2.289968
 20
8.592238
 30
0.0
 11
2.527065
 21
8.592238
 31
0.0
  0
LINE
  5
627
  8
0
 10
2.527065
 20
8.592238
 30
0.0
 11
2.841581
 21
8.592238
 31
0.0
  0
LINE
  5
628
  8
0
 10
2.841581
 20
8.592238
 30
0.0
 11
4.027065
 21
8.592238
 31
0.0
  0
LINE
  5
629
  8
0
 10
4.027065
 20
8.592238
 30
0.0
 11
4.089968
 21
8.592238
 31
0.0
  0
LINE
  5
62A
  8
0
 10
4.089968
 20
8.592238
 30
0.0
 11
4.327065
 21
8.592238
 31
0.0
  0
LINE
  5
62B
  8
0
 10
4.327065
 20
8.592238
 30
0.0
 11
4.641581
 21
8.592238
 31
0.0
  0
LINE
  5
62C
  8
0
 10
4.641581
 20
8.592238
 30
0.0
 11
5.827065
 21
8.592238
 31
0.0
  0
LINE
  5
62D
  8
0
 10
5.827065
 20
8.592238
 30
0.0
 11
5.889968
 21
8.592238
 31
0.0
  0
LINE
  5
62E
  8
0
 10
5.889968
 20
8.592238
 30
0.0
 11
6.127065
 21
8.592238
 31
0.0
  0
LINE
  5
62F
  8
0
 10
6.127065
 20
8.592238
 30
0.0
 11
6.441581
 21
8.592238
 31
0.0
  0
LINE
  5
630
  8
0
 10
6.441581
 20
8.592238
 30
0.0
 11
7.627065
 21
8.592238
 31
0.0
  0
LINE
  5
631
  8
0
 10
7.627065
 20
8.592238
 30
0.0
 11
7.689968
 21
8.592238
 31
0.0
  0
LINE
  5
632
  8
0
 10
7.689968
 20
8.592238
 30
0.0
 11
7.927065
 21
8.592238
 31
0.0
  0
LINE
  5
633
  8
0
 10
7.927065
 20
8.592238
 30
0.0
 11
8.241581
 21
8.592238
 31
0.0
  0
LINE
  5
634
  8
0
 10
8.241581
 20
8.592238
 30
0.0
 11
9.427065
 21
8.592238
 31
0.0
  0
LINE
  5
635
  8
0
 10
9.427065
 20
8.592238
 30
0.0
 11
9.489968
 21
8.592238
 31
0.0
  0
LINE
  5
636
  8
0
 10
9.489968
 20
8.592238
 30
0.0
 11
9.727065
 21
8.592238
 31
0.0
  0
LINE
  5
637
  8
0
 10
9.727065
 20
8.592238
 30
0.0
 11
10.041581
 21
8.592238
 31
0.0
  0
LINE
  5
638
  8
0
 10
10.041581
 20
8.592238
 30
0.0
 11
11.227065
 21
8.592238
 31
0.0
  0
LINE
  5
639
  8
0
 10
11.227065
 20
8.592238
 30
0.0
 11
11.289968
 21
8.592238
 31
0.0
  0
LINE
  5
63A
  8
0
 10
11.289968
 20
8.592238
 30
0.0
 11
11.527065
 21
8.592238
 31
0.0
  0
LINE
  5
63B
  8
0
 10
11.527065
 20
8.592238
 30
0.0
 11
11.841581
 21
8.592238
 31
0.0
  0
LINE
  5
63C
  8
0
 10
11.841581
 20
8.592238
 30
0.0
 11
13.027065
 21
8.592238
 31
0.0
  0
LINE
  5
63D
  8
0
 10
13.027065
 20
8.592238
 30
0.0
 11
13.089968
 21
8.592238
 31
0.0
  0
LINE
  5
63E
  8
0
 10
13.089968
 20
8.592238
 30
0.0
 11
13.327065
 21
8.592238
 31
0.0
  0
LINE
  5
63F
  8
0
 10
13.327065
 20
8.592238
 30
0.0
 11
13.641581
 21
8.592238
 31
0.0
  0
LINE
  5
640
  8
0
 10
13.641581
 20
8.592238
 30
0.0
 11
14.563097
 21
8.592238
 31
0.0
  0
LINE
  5
641
  8
0
 10
14.563097
 20
8.592238
 30
0.0
 11
14.626
 21
8.592238
 31
0.0
  0
LINE
  5
642
  8
0
 10
0.545
 20
9.092238
 30
0.0
 11
0.782097
 21
9.092238
 31
0.0
  0
LINE
  5
643
  8
0
 10
0.545
 20
9.092238
 30
0.0
 11
0.782097
 21
9.092238
 31
0.0
  0
LINE
  5
644
  8
0
 10
0.782097
 20
9.092238
 30
0.0
 11
1.029726
 21
9.092238
 31
0.0
  0
LINE
  5
645
  8
0
 10
1.029726
 20
9.092238
 30
0.0
 11
2.21521
 21
9.092238
 31
0.0
  0
LINE
  5
646
  8
0
 10
2.21521
 20
9.092238
 30
0.0
 11
2.278113
 21
9.092238
 31
0.0
  0
LINE
  5
647
  8
0
 10
2.278113
 20
9.092238
 30
0.0
 11
2.51521
 21
9.092238
 31
0.0
  0
LINE
  5
648
  8
0
 10
2.51521
 20
9.092238
 30
0.0
 11
2.829726
 21
9.092238
 31
0.0
  0
LINE
  5
649
  8
0
 10
2.829726
 20
9.092238
 30
0.0
 11
4.01521
 21
9.092238
 31
0.0
  0
LINE
  5
64A
  8
0
 10
4.01521
 20
9.092238
 30
0.0
 11
4.078113
 21
9.092238
 31
0.0
  0
LINE
  5
64B
  8
0
 10
4.078113
 20
9.092238
 30
0.0
 11
4.31521
 21
9.092238
 31
0.0
  0
LINE
  5
64C
  8
0
 10
4.31521
 20
9.092238
 30
0.0
 11
4.629726
 21
9.092238
 31
0.0
  0
LINE
  5
64D
  8
0
 10
4.629726
 20
9.092238
 30
0.0
 11
5.81521
 21
9.092238
 31
0.0
  0
LINE
  5
64E
  8
0
 10
5.81521
 20
9.092238
 30
0.0
 11
5.878113
 21
9.092238
 31
0.0
  0
LINE
  5
64F
  8
0
 10
5.878113
 20
9.092238
 30
0.0
 11
6.11521
 21
9.092238
 31
0.0
  0
LINE
  5
650
  8
0
 10
6.11521
 20
9.092238
 30
0.0
 11
6.429726
 21
9.092238
 31
0.0
  0
LINE
  5
651
  8
0
 10
6.429726
 20
9.092238
 30
0.0
 11
7.61521
 21
9.092238
 31
0.0
  0
LINE
  5
652
  8
0
 10
7.61521
 20
9.092238
 30
0.0
 11
7.678113
 21
9.092238
 31
0.0
  0
LINE
  5
653
  8
0
 10
7.678113
 20
9.092238
 30
0.0
 11
7.91521
 21
9.092238
 31
0.0
  0
LINE
  5
654
  8
0
 10
7.91521
 20
9.092238
 30
0.0
 11
8.229726
 21
9.092238
 31
0.0
  0
LINE
  5
655
  8
0
 10
8.229726
 20
9.092238
 30
0.0
 11
9.41521
 21
9.092238
 31
0.0
  0
LINE
  5
656
  8
0
 10
9.41521
 20
9.092238
 30
0.0
 11
9.478113
 21
9.092238
 31
0.0
  0
LINE
  5
657
  8
0
 10
9.478113
 20
9.092238
 30
0.0
 11
9.71521
 21
9.092238
 31
0.0
  0
LINE
  5
658
  8
0
 10
9.71521
 20
9.092238
 30
0.0
 11
10.029726
 21
9.092238
 31
0.0
  0
LINE
  5
659
  8
0
 10
10.029726
 20
9.092238
 30
0.0
 11
11.21521
 21
9.092238
 31
0.0
  0
LINE
  5
65A
  8
0
 10
11.21521
 20
9.092238
 30
0.0
 11
11.278113
 21
9.092238
 31
0.0
  0
LINE
  5
65B
  8
0
 10
11.278113
 20
9.092238
 30
0.0
 11
11.51521
 21
9.092238
 31
0.0
  0
LINE
  5
65C
  8
0
 10
11.51521
 20
9.092238
 30
0.0
 11
11.829726
 21
9.092238
 31
0.0
  0
LINE
  5
65D
  8
0
 10
11.829726
 20
9.092238
 30
0.0
 11
13.01521
 21
9.092238
 31
0.0
  0
LINE
  5
65E
  8
0
 10
13.01521
 20
9.092238
 30
0.0
 11
13.078113
 21
9.092238
 31
0.0
  0
LINE
  5
65F
  8
0
 10
13.078113
 20
9.092238
 30
0.0
 11
13.31521
 21
9.092238
 31
0.0
  0
LINE
  5
660
  8
0
 10
13.31521
 20
9.092238
 30
0.0
 11
13.629726
 21
9.092238
 31
0.0
  0
LINE
  5
661
  8
0
 10
13.629726
 20
9.092238
 30
0.0
 11
14.563097
 21
9.092238
 31
0.0
  0
LINE
  5
662
  8
0
 10
14.563097
 20
9.092238
 30
0.0
 11
14.626
 21
9.092238
 31
0.0
  0
LINE
  5
663
  8
0
 10
0.529
 20
9.592238
 30
0.0
 11
0.766097
 21
9.592238
 31
0.0
  0
LINE
  5
664
  8
0
 10
0.529
 20
9.592238
 30
0.0
 11
0.766097
 21
9.592238
 31
0.0
  0
LINE
  5
665
  8
0
 10
0.766097
 20
9.592238
 30
0.0
 11
1.017081
 21
9.592238
 31
0.0
  0
LINE
  5
666
  8
0
 10
1.017081
 20
9.592238
 30
0.0
 11
2.203355
 21
9.592238
 31
0.0
  0
LINE
  5
667
  8
0
 10
2.203355
 20
9.592238
 30
0.0
 11
2.266258
 21
9.592238
 31
0.0
  0
LINE
  5
668
  8
0
 10
2.266258
 20
9.592238
 30
0.0
 11
2.502565
 21
9.592238
 31
0.0
  0
LINE
  5
669
  8
0
 10
2.502565
 20
9.592238
 30
0.0
 11
2.817081
 21
9.592238
 31
0.0
  0
LINE
  5
66A
  8
0
 10
2.817081
 20
9.592238
 30
0.0
 11
4.003355
 21
9.592238
 31
0.0
  0
LINE
  5
66B
  8
0
 10
4.003355
 20
9.592238
 30
0.0
 11
4.066258
 21
9.592238
 31
0.0
  0
LINE
  5
66C
  8
0
 10
4.066258
 20
9.592238
 30
0.0
 11
4.302565
 21
9.592238
 31
0.0
  0
LINE
  5
66D
  8
0
 10
4.302565
 20
9.592238
 30
0.0
 11
4.617081
 21
9.592238
 31
0.0
  0
LINE
  5
66E
  8
0
 10
4.617081
 20
9.592238
 30
0.0
 11
5.803355
 21
9.592238
 31
0.0
  0
LINE
  5
66F
  8
0
 10
5.803355
 20
9.592238
 30
0.0
 11
5.866258
 21
9.592238
 31
0.0
  0
LINE
  5
670
  8
0
 10
5.866258
 20
9.592238
 30
0.0
 11
6.102565
 21
9.592238
 31
0.0
  0
LINE
  5
671
  8
0
 10
6.102565
 20
9.592238
 30
0.0
 11
6.417081
 21
9.592238
 31
0.0
  0
LINE
  5
672
  8
0
 10
6.417081
 20
9.592238
 30
0.0
 11
7.603355
 21
9.592238
 31
0.0
  0
LINE
  5
673
  8
0
 10
7.603355
 20
9.592238
 30
0.0
 11
7.666258
 21
9.592238
 31
0.0
  0
LINE
  5
674
  8
0
 10
7.666258
 20
9.592238
 30
0.0
 11
7.902565
 21
9.592238
 31
0.0
  0
LINE
  5
675
  8
0
 10
7.902565
 20
9.592238
 30
0.0
 11
8.217081
 21
9.592238
 31
0.0
  0
LINE
  5
676
  8
0
 10
8.217081
 20
9.592238
 30
0.0
 11
9.403355
 21
9.592238
 31
0.0
  0
LINE
  5
677
  8
0
 10
9.403355
 20
9.592238
 30
0.0
 11
9.466258
 21
9.592238
 31
0.0
  0
LINE
  5
678
  8
0
 10
9.466258
 20
9.592238
 30
0.0
 11
9.702565
 21
9.592238
 31
0.0
  0
LINE
  5
679
  8
0
 10
9.702565
 20
9.592238
 30
0.0
 11
10.017081
 21
9.592238
 31
0.0
  0
LINE
  5
67A
  8
0
 10
10.017081
 20
9.592238
 30
0.0
 11
11.203355
 21
9.592238
 31
0.0
  0
LINE
  5
67B
  8
0
 10
11.203355
 20
9.592238
 30
0.0
 11
11.266258
 21
9.592238
 31
0.0
  0
LINE
  5
67C
  8
0
 10
11.266258
 20
9.592238
 30
0.0
 11
11.502565
 21
9.592238
 31
0.0
  0
LINE
  5
67D
  8
0
 10
11.502565
 20
9.592238
 30
0.0
 11
11.817081
 21
9.592238
 31
0.0
  0
LINE
  5
67E
  8
0
 10
11.817081
 20
9.592238
 30
0.0
 11
13.003355
 21
9.592238
 31
0.0
  0
LINE
  5
67F
  8
0
 10
13.003355
 20
9.592238
 30
0.0
 11
13.066258
 21
9.592238
 31
0.0
  0
LINE
  5
680
  8
0
 10
13.066258
 20
9.592238
 30
0.0
 11
13.302565
 21
9.592238
 31
0.0
  0
LINE
  5
681
  8
0
 10
13.302565
 20
9.592238
 30
0.0
 11
13.617081
 21
9.592238
 31
0.0
  0
LINE
  5
682
  8
0
 10
13.617081
 20
9.592238
 30
0.0
 11
14.563097
 21
9.592238
 31
0.0
  0
LINE
  5
683
  8
0
 10
14.563097
 20
9.592238
 30
0.0
 11
14.626
 21
9.592238
 31
0.0
  0
LINE
  5
684
  8
0
 10
0.514
 20
10.092238
 30
0.0
 11
0.751097
 21
10.092238
 31
0.0
  0
LINE
  5
685
  8
0
 10
0.514
 20
10.092238
 30
0.0
 11
0.751097
 21
10.092238
 31
0.0
  0
LINE
  5
686
  8
0
 10
0.751097
 20
10.092238
 30
0.0
 11
1.005226
 21
10.092238
 31
0.0
  0
LINE
  5
687
  8
0
 10
1.005226
 20
10.092238
 30
0.0
 11
2.19071
 21
10.092238
 31
0.0
  0
LINE
  5
688
  8
0
 10
2.19071
 20
10.092238
 30
0.0
 11
2.253613
 21
10.092238
 31
0.0
  0
LINE
  5
689
  8
0
 10
2.253613
 20
10.092238
 30
0.0
 11
2.49071
 21
10.092238
 31
0.0
  0
LINE
  5
68A
  8
0
 10
2.49071
 20
10.092238
 30
0.0
 11
2.805226
 21
10.092238
 31
0.0
  0
LINE
  5
68B
  8
0
 10
2.805226
 20
10.092238
 30
0.0
 11
3.99071
 21
10.092238
 31
0.0
  0
LINE
  5
68C
  8
0
 10
3.99071
 20
10.092238
 30
0.0
 11
4.053613
 21
10.092238
 31
0.0
  0
LINE
  5
68D
  8
0
 10
4.053613
 20
10.092238
 30
0.0
 11
4.29071
 21
10.092238
 31
0.0
  0
LINE
  5
68E
  8
0
 10
4.29071
 20
10.092238
 30
0.0
 11
4.605226
 21
10.092238
 31
0.0
  0
LINE
  5
68F
  8
0
 10
4.605226
 20
10.092238
 30
0.0
 11
5.79071
 21
10.092238
 31
0.0
  0
LINE
  5
690
  8
0
 10
5.79071
 20
10.092238
 30
0.0
 11
5.853613
 21
10.092238
 31
0.0
  0
LINE
  5
691
  8
0
 10
5.853613
 20
10.092238
 30
0.0
 11
6.09071
 21
10.092238
 31
0.0
  0
LINE
  5
692
  8
0
 10
6.09071
 20
10.092238
 30
0.0
 11
6.405226
 21
10.092238
 31
0.0
  0
LINE
  5
693
  8
0
 10
6.405226
 20
10.092238
 30
0.0
 11
7.59071
 21
10.092238
 31
0.0
  0
LINE
  5
694
  8
0
 10
7.59071
 20
10.092238
 30
0.0
 11
7.653613
 21
10.092238
 31
0.0
  0
LINE
  5
695
  8
0
 10
7.653613
 20
10.092238
 30
0.0
 11
7.89071
 21
10.092238
 31
0.0
  0
LINE
  5
696
  8
0
 10
7.89071
 20
10.092238
 30
0.0
 11
8.205226
 21
10.092238
 31
0.0
  0
LINE
  5
697
  8
0
 10
8.205226
 20
10.092238
 30
0.0
 11
9.39071
 21
10.092238
 31
0.0
  0
LINE
  5
698
  8
0
 10
9.39071
 20
10.092238
 30
0.0
 11
9.453613
 21
10.092238
 31
0.0
  0
LINE
  5
699
  8
0
 10
9.453613
 20
10.092238
 30
0.0
 11
9.69071
 21
10.092238
 31
0.0
  0
LINE
  5
69A
  8
0
 10
9.69071
 20
10.092238
 30
0.0
 11
10.005226
 21
10.092238
 31
0.0
  0
LINE
  5
69B
  8
0
 10
10.005226
 20
10.092238
 30
0.0
 11
11.19071
 21
10.092238
 31
0.0
  0
LINE
  5
69C
  8
0
 10
11.19071
 20
10.092238
 30
0.0
 11
11.253613
 21
10.092238
 31
0.0
  0
LINE
  5
69D
  8
0
 10
11.253613
 20
10.092238
 30
0.0
 11
11.49071
 21
10.092238
 31
0.0
  0
LINE
  5
69E
  8
0
 10
11.49071
 20
10.092238
 30
0.0
 11
11.805226
 21
10.092238
 31
0.0
  0
LINE
  5
69F
  8
0
 10
11.805226
 20
10.092238
 30
0.0
 11
12.99071
 21
10.092238
 31
0.0
  0
LINE
  5
6A0
  8
0
 10
12.99071
 20
10.092238
 30
0.0
 11
13.053613
 21
10.092238
 31
0.0
  0
LINE
  5
6A1
  8
0
 10
13.053613
 20
10.092238
 30
0.0
 11
13.29071
 21
10.092238
 31
0.0
  0
LINE
  5
6A2
  8
0
 10
13.29071
 20
10.092238
 30
0.0
 11
13.605226
 21
10.092238
 31
0.0
  0
LINE
  5
6A3
  8
0
 10
13.605226
 20
10.092238
 30
0.0
 11
14.563097
 21
10.092238
 31
0.0
  0
LINE
  5
6A4
  8
0
 10
14.563097
 20
10.092238
 30
0.0
 11
14.626
 21
10.092238
 31
0.0
  0
LINE
  5
6A5
  8
0
 10
0.499
 20
10.592238
 30
0.0
 11
0.736097
 21
10.592238
 31
0.0
  0
LINE
  5
6A6
  8
0
 10
0.499
 20
10.592238
 30
0.0
 11
0.736097
 21
10.592238
 31
0.0
  0
LINE
  5
6A7
  8
0
 10
0.736097
 20
10.592238
 30
0.0
 11
0.993371
 21
10.592238
 31
0.0
  0
LINE
  5
6A8
  8
0
 10
0.993371
 20
10.592238
 30
0.0
 11
2.178855
 21
10.592238
 31
0.0
  0
LINE
  5
6A9
  8
0
 10
2.178855
 20
10.592238
 30
0.0
 11
2.241758
 21
10.592238
 31
0.0
  0
LINE
  5
6AA
  8
0
 10
2.241758
 20
10.592238
 30
0.0
 11
2.478855
 21
10.592238
 31
0.0
  0
LINE
  5
6AB
  8
0
 10
2.478855
 20
10.592238
 30
0.0
 11
2.793371
 21
10.592238
 31
0.0
  0
LINE
  5
6AC
  8
0
 10
2.793371
 20
10.592238
 30
0.0
 11
3.978855
 21
10.592238
 31
0.0
  0
LINE
  5
6AD
  8
0
 10
3.978855
 20
10.592238
 30
0.0
 11
4.041758
 21
10.592238
 31
0.0
  0
LINE
  5
6AE
  8
0
 10
4.041758
 20
10.592238
 30
0.0
 11
4.278855
 21
10.592238
 31
0.0
  0
LINE
  5
6AF
  8
0
 10
4.278855
 20
10.592238
 30
0.0
 11
4.593371
 21
10.592238
 31
0.0
  0
LINE
  5
6B0
  8
0
 10
4.593371
 20
10.592238
 30
0.0
 11
5.778855
 21
10.592238
 31
0.0
  0
LINE
  5
6B1
  8
0
 10
5.778855
 20
10.592238
 30
0.0
 11
5.841758
 21
10.592238
 31
0.0
  0
LINE
  5
6B2
  8
0
 10
5.841758
 20
10.592238
 30
0.0
 11
6.078855
 21
10.592238
 31
0.0
  0
LINE
  5
6B3
  8
0
 10
6.078855
 20
10.592238
 30
0.0
 11
6.393371
 21
10.592238
 31
0.0
  0
LINE
  5
6B4
  8
0
 10
6.393371
 20
10.592238
 30
0.0
 11
7.578855
 21
10.592238
 31
0.0
  0
LINE
  5
6B5
  8
0
 10
7.578855
 20
10.592238
 30
0.0
 11
7.641758
 21
10.592238
 31
0.0
  0
LINE
  5
6B6
  8
0
 10
7.641758
 20
10.592238
 30
0.0
 11
7.878855
 21
10.592238
 31
0.0
  0
LINE
  5
6B7
  8
0
 10
7.878855
 20
10.592238
 30
0.0
 11
8.193371
 21
10.592238
 31
0.0
  0
LINE
  5
6B8
  8
0
 10
8.193371
 20
10.592238
 30
0.0
 11
9.378855
 21
10.592238
 31
0.0
  0
LINE
  5
6B9
  8
0
 10
9.378855
 20
10.592238
 30
0.0
 11
9.441758
 21
10.592238
 31
0.0
  0
LINE
  5
6BA
  8
0
 10
9.441758
 20
10.592238
 30
0.0
 11
9.678855
 21
10.592238
 31
0.0
  0
LINE
  5
6BB
  8
0
 10
9.678855
 20
10.592238
 30
0.0
 11
9.993371
 21
10.592238
 31
0.0
  0
LINE
  5
6BC
  8
0
 10
9.993371
 20
10.592238
 30
0.0
 11
11.178855
 21
10.592238
 31
0.0
  0
LINE
  5
6BD
  8
0
 10
11.178855
 20
10.592238
 30
0.0
 11
11.241758
 21
10.592238
 31
0.0
  0
LINE
  5
6BE
  8
0
 10
11.241758
 20
10.592238
 30
0.0
 11
11.478855
 21
10.592238
 31
0.0
  0
LINE
  5
6BF
  8
0
 10
11.478855
 20
10.592238
 30
0.0
 11
11.793371
 21
10.592238
 31
0.0
  0
LINE
  5
6C0
  8
0
 10
11.793371
 20
10.592238
 30
0.0
 11
12.978855
 21
10.592238
 31
0.0
  0
LINE
  5
6C1
  8
0
 10
12.978855
 20
10.592238
 30
0.0
 11
13.041758
 21
10.592238
 31
0.0
  0
LINE
  5
6C2
  8
0
 10
13.041758
 20
10.592238
 30
0.0
 11
13.278855
 21
10.592238
 31
0.0
  0
LINE
  5
6C3
  8
0
 10
13.278855
 20
10.592238
 30
0.0
 11
13.593371
 21
10.592238
 31
0.0
  0
LINE
  5
6C4
  8
0
 10
13.593371
 20
10.592238
 30
0.0
 11
14.563097
 21
10.592238
 31
0.0
  0
LINE
  5
6C5
  8
0
 10
14.563097
 20
10.592238
 30
0.0
 11
14.626
 21
10.592238
 31
0.0
  0
LINE
  5
6C6
  8
0
 10
0.484
 20
11.092238
 30
0.0
 11
0.721097
 21
11.092238
 31
0.0
  0
LINE
  5
6C7
  8
0
 10
0.484
 20
11.092238
 30
0.0
 11
0.721097
 21
11.092238
 31
0.0
  0
LINE
  5
6C8
  8
0
 10
0.721097
 20
11.092238
 30
0.0
 11
0.981516
 21
11.092238
 31
0.0
  0
LINE
  5
6C9
  8
0
 10
0.981516
 20
11.092238
 30
0.0
 11
2.167
 21
11.092238
 31
0.0
  0
LINE
  5
6CA
  8
0
 10
2.167
 20
11.092238
 30
0.0
 11
2.229903
 21
11.092238
 31
0.0
  0
LINE
  5
6CB
  8
0
 10
2.229903
 20
11.092238
 30
0.0
 11
2.467
 21
11.092238
 31
0.0
  0
LINE
  5
6CC
  8
0
 10
2.467
 20
11.092238
 30
0.0
 11
2.781516
 21
11.092238
 31
0.0
  0
LINE
  5
6CD
  8
0
 10
2.781516
 20
11.092238
 30
0.0
 11
3.967
 21
11.092238
 31
0.0
  0
LINE
  5
6CE
  8
0
 10
3.967
 20
11.092238
 30
0.0
 11
4.029903
 21
11.092238
 31
0.0
  0
LINE
  5
6CF
  8
0
 10
4.029903
 20
11.092238
 30
0.0
 11
4.267
 21
11.092238
 31
0.0
  0
LINE
  5
6D0
  8
0
 10
4.267
 20
11.092238
 30
0.0
 11
4.581516
 21
11.092238
 31
0.0
  0
LINE
  5
6D1
  8
0
 10
4.581516
 20
11.092238
 30
0.0
 11
5.767
 21
11.092238
 31
0.0
  0
LINE
  5
6D2
  8
0
 10
5.767
 20
11.092238
 30
0.0
 11
5.829903
 21
11.092238
 31
0.0
  0
LINE
  5
6D3
  8
0
 10
5.829903
 20
11.092238
 30
0.0
 11
6.067
 21
11.092238
 31
0.0
  0
LINE
  5
6D4
  8
0
 10
6.067
 20
11.092238
 30
0.0
 11
6.381516
 21
11.092238
 31
0.0
  0
LINE
  5
6D5
  8
0
 10
6.381516
 20
11.092238
 30
0.0
 11
7.567
 21
11.092238
 31
0.0
  0
LINE
  5
6D6
  8
0
 10
7.567
 20
11.092238
 30
0.0
 11
7.629903
 21
11.092238
 31
0.0
  0
LINE
  5
6D7
  8
0
 10
7.629903
 20
11.092238
 30
0.0
 11
7.867
 21
11.092238
 31
0.0
  0
LINE
  5
6D8
  8
0
 10
7.867
 20
11.092238
 30
0.0
 11
8.181516
 21
11.092238
 31
0.0
  0
LINE
  5
6D9
  8
0
 10
8.181516
 20
11.092238
 30
0.0
 11
9.367
 21
11.092238
 31
0.0
  0
LINE
  5
6DA
  8
0
 10
9.367
 20
11.092238
 30
0.0
 11
9.429903
 21
11.092238
 31
0.0
  0
LINE
  5
6DB
  8
0
 10
9.429903
 20
11.092238
 30
0.0
 11
9.667
 21
11.092238
 31
0.0
  0
LINE
  5
6DC
  8
0
 10
9.667
 20
11.092238
 30
0.0
 11
9.981516
 21
11.092238
 31
0.0
  0
LINE
  5
6DD
  8
0
 10
9.981516
 20
11.092238
 30
0.0
 11
11.167
 21
11.092238
 31
0.0
  0
LINE
  5
6DE
  8
0
 10
11.167
 20
11.092238
 30
0.0
 11
11.229903
 21
11.092238
 31
0.0
  0
LINE
  5
6DF
  8
0
 10
11.229903
 20
11.092238
 30
0.0
 11
11.467
 21
11.092238
 31
0.0
  0
LINE
  5
6E0
  8
0
 10
11.467
 20
11.092238
 30
0.0
 11
11.781516
 21
11.092238
 31
0.0
  0
LINE
  5
6E1
  8
0
 10
11.781516
 20
11.092238
 30
0.0
 11
12.967
 21
11.092238
 31
0.0
  0
LINE
  5
6E2
  8
0
 10
12.967
 20
11.092238
 30
0.0
 11
13.029903
 21
11.092238
 31
0.0
  0
LINE
  5
6E3
  8
0
 10
13.029903
 20
11.092238
 30
0.0
 11
13.267
 21
11.092238
 31
0.0
  0
LINE
  5
6E4
  8
0
 10
13.267
 20
11.092238
 30
0.0
 11
13.581516
 21
11.092238
 31
0.0
  0
LINE
  5
6E5
  8
0
 10
13.581516
 20
11.092238
 30
0.0
 11
14.563097
 21
11.092238
 31
0.0
  0
LINE
  5
6E6
  8
0
 10
14.563097
 20
11.092238
 30
0.0
 11
14.626
 21
11.092238
 31
0.0
  0
LINE
  5
6E7
  8
0
 10
0.468
 20
11.592238
 30
0.0
 11
0.705097
 21
11.592238
 31
0.0
  0
LINE
  5
6E8
  8
0
 10
0.468
 20
11.592238
 30
0.0
 11
0.705097
 21
11.592238
 31
0.0
  0
LINE
  5
6E9
  8
0
 10
0.705097
 20
11.592238
 30
0.0
 11
0.968871
 21
11.592238
 31
0.0
  0
LINE
  5
6EA
  8
0
 10
0.968871
 20
11.592238
 30
0.0
 11
2.154355
 21
11.592238
 31
0.0
  0
LINE
  5
6EB
  8
0
 10
2.154355
 20
11.592238
 30
0.0
 11
2.217258
 21
11.592238
 31
0.0
  0
LINE
  5
6EC
  8
0
 10
2.217258
 20
11.592238
 30
0.0
 11
2.454355
 21
11.592238
 31
0.0
  0
LINE
  5
6ED
  8
0
 10
2.454355
 20
11.592238
 30
0.0
 11
2.768871
 21
11.592238
 31
0.0
  0
LINE
  5
6EE
  8
0
 10
2.768871
 20
11.592238
 30
0.0
 11
3.954355
 21
11.592238
 31
0.0
  0
LINE
  5
6EF
  8
0
 10
3.954355
 20
11.592238
 30
0.0
 11
4.017258
 21
11.592238
 31
0.0
  0
LINE
  5
6F0
  8
0
 10
4.017258
 20
11.592238
 30
0.0
 11
4.254355
 21
11.592238
 31
0.0
  0
LINE
  5
6F1
  8
0
 10
4.254355
 20
11.592238
 30
0.0
 11
4.568871
 21
11.592238
 31
0.0
  0
LINE
  5
6F2
  8
0
 10
4.568871
 20
11.592238
 30
0.0
 11
5.754355
 21
11.592238
 31
0.0
  0
LINE
  5
6F3
  8
0
 10
5.754355
 20
11.592238
 30
0.0
 11
5.817258
 21
11.592238
 31
0.0
  0
LINE
  5
6F4
  8
0
 10
5.817258
 20
11.592238
 30
0.0
 11
6.054355
 21
11.592238
 31
0.0
  0
LINE
  5
6F5
  8
0
 10
6.054355
 20
11.592238
 30
0.0
 11
6.368871
 21
11.592238
 31
0.0
  0
LINE
  5
6F6
  8
0
 10
6.368871
 20
11.592238
 30
0.0
 11
7.554355
 21
11.592238
 31
0.0
  0
LINE
  5
6F7
  8
0
 10
7.554355
 20
11.592238
 30
0.0
 11
7.617258
 21
11.592238
 31
0.0
  0
LINE
  5
6F8
  8
0
 10
7.617258
 20
11.592238
 30
0.0
 11
7.854355
 21
11.592238
 31
0.0
  0
LINE
  5
6F9
  8
0
 10
7.854355
 20
11.592238
 30
0.0
 11
8.168871
 21
11.592238
 31
0.0
  0
LINE
  5
6FA
  8
0
 10
8.168871
 20
11.592238
 30
0.0
 11
9.354355
 21
11.592238
 31
0.0
  0
LINE
  5
6FB
  8
0
 10
9.354355
 20
11.592238
 30
0.0
 11
9.417258
 21
11.592238
 31
0.0
  0
LINE
  5
6FC
  8
0
 10
9.417258
 20
11.592238
 30
0.0
 11
9.654355
 21
11.592238
 31
0.0
  0
LINE
  5
6FD
  8
0
 10
9.654355
 20
11.592238
 30
0.0
 11
9.968871
 21
11.592238
 31
0.0
  0
LINE
  5
6FE
  8
0
 10
9.968871
 20
11.592238
 30
0.0
 11
11.154355
 21
11.592238
 31
0.0
  0
LINE
  5
6FF
  8
0
 10
11.154355
 20
11.592238
 30
0.0
 11
11.217258
 21
11.592238
 31
0.0
  0
LINE
  5
700
  8
0
 10
11.217258
 20
11.592238
 30
0.0
 11
11.454355
 21
11.592238
 31
0.0
  0
LINE
  5
701
  8
0
 10
11.454355
 20
11.592238
 30
0.0
 11
11.768871
 21
11.592238
 31
0.0
  0
LINE
  5
702
  8
0
 10
11.768871
 20
11.592238
 30
0.0
 11
12.954355
 21
11.592238
 31
0.0
  0
LINE
  5
703
  8
0
 10
12.954355
 20
11.592238
 30
0.0
 11
13.017258
 21
11.592238
 31
0.0
  0
LINE
  5
704
  8
0
 10
13.017258
 20
11.592238
 30
0.0
 11
13.254355
 21
11.592238
 31
0.0
  0
LINE
  5
705
  8
0
 10
13.254355
 20
11.592238
 30
0.0
 11
13.568871
 21
11.592238
 31
0.0
  0
LINE
  5
706
  8
0
 10
13.568871
 20
11.592238
 30
0.0
 11
14.563097
 21
11.592238
 31
0.0
  0
LINE
  5
707
  8
0
 10
14.563097
 20
11.592238
 30
0.0
 11
14.626
 21
11.592238
 31
0.0
  0
LINE
  5
708
  8
0
 10
0.453
 20
12.092238
 30
0.0
 11
0.690097
 21
12.092238
 31
0.0
  0
LINE
  5
709
  8
0
 10
0.453
 20
12.092238
 30
0.0
 11
0.690097
 21
12.092238
 31
0.0
  0
LINE
  5
70A
  8
0
 10
0.690097
 20
12.092238
 30
0.0
 11
0.957016
 21
12.092238
 31
0.0
  0
LINE
  5
70B
  8
0
 10
0.957016
 20
12.092238
 30
0.0
 11
2.1425
 21
12.092238
 31
0.0
  0
LINE
  5
70C
  8
0
 10
2.1425
 20
12.092238
 30
0.0
 11
2.205403
 21
12.092238
 31
0.0
  0
LINE
  5
70D
  8
0
 10
2.205403
 20
12.092238
 30
0.0
 11
2.4425
 21
12.092238
 31
0.0
  0
LINE
  5
70E
  8
0
 10
2.4425
 20
12.092238
 30
0.0
 11
2.757016
 21
12.092238
 31
0.0
  0
LINE
  5
70F
  8
0
 10
2.757016
 20
12.092238
 30
0.0
 11
3.9425
 21
12.092238
 31
0.0
  0
LINE
  5
710
  8
0
 10
3.9425
 20
12.092238
 30
0.0
 11
4.005403
 21
12.092238
 31
0.0
  0
LINE
  5
711
  8
0
 10
4.005403
 20
12.092238
 30
0.0
 11
4.2425
 21
12.092238
 31
0.0
  0
LINE
  5
712
  8
0
 10
4.2425
 20
12.092238
 30
0.0
 11
4.557016
 21
12.092238
 31
0.0
  0
LINE
  5
713
  8
0
 10
4.557016
 20
12.092238
 30
0.0
 11
5.7425
 21
12.092238
 31
0.0
  0
LINE
  5
714
  8
0
 10
5.7425
 20
12.092238
 30
0.0
 11
5.805403
 21
12.092238
 31
0.0
  0
LINE
  5
715
  8
0
 10
5.805403
 20
12.092238
 30
0.0
 11
6.0425
 21
12.092238
 31
0.0
  0
LINE
  5
716
  8
0
 10
6.0425
 20
12.092238
 30
0.0
 11
6.357016
 21
12.092238
 31
0.0
  0
LINE
  5
717
  8
0
 10
6.357016
 20
12.092238
 30
0.0
 11
7.5425
 21
12.092238
 31
0.0
  0
LINE
  5
718
  8
0
 10
7.5425
 20
12.092238
 30
0.0
 11
7.605403
 21
12.092238
 31
0.0
  0
LINE
  5
719
  8
0
 10
7.605403
 20
12.092238
 30
0.0
 11
7.8425
 21
12.092238
 31
0.0
  0
LINE
  5
71A
  8
0
 10
7.8425
 20
12.092238
 30
0.0
 11
8.157016
 21
12.092238
 31
0.0
  0
LINE
  5
71B
  8
0
 10
8.157016
 20
12.092238
 30
0.0
 11
9.3425
 21
12.092238
 31
0.0
  0
LINE
  5
71C
  8
0
 10
9.3425
 20
12.092238
 30
0.0
 11
9.405403
 21
12.092238
 31
0.0
  0
LINE
  5
71D
  8
0
 10
9.405403
 20
12.092238
 30
0.0
 11
9.6425
 21
12.092238
 31
0.0
  0
LINE
  5
71E
  8
0
 10
9.6425
 20
12.092238
 30
0.0
 11
9.957016
 21
12.092238
 31
0.0
  0
LINE
  5
71F
  8
0
 10
9.957016
 20
12.092238
 30
0.0
 11
11.1425
 21
12.092238
 31
0.0
  0
LINE
  5
720
  8
0
 10
11.1425
 20
12.092238
 30
0.0
 11
11.205403
 21
12.092238
 31
0.0
  0
LINE
  5
721
  8
0
 10
11.205403
 20
12.092238
 30
0.0
 11
11.4425
 21
12.092238
 31
0.0
  0
LINE
  5
722
  8
0
 10
11.4425
 20
12.092238
 30
0.0
 11
11.757016
 21
12.092238
 31
0.0
  0
LINE
  5
723
  8
0
 10
11.757016
 20
12.092238
 30
0.0
 11
12.9425
 21
12.092238
 31
0.0
  0
LINE
  5
724
  8
0
 10
12.9425
 20
12.092238
 30
0.0
 11
13.005403
 21
12.092238
 31
0.0
  0
LINE
  5
725
  8
0
 10
13.005403
 20
12.092238
 30
0.0
 11
13.2425
 21
12.092238
 31
0.0
  0
LINE
  5
726
  8
0
 10
13.2425
 20
12.092238
 30
0.0
 11
13.557016
 21
12.092238
 31
0.0
  0
LINE
  5
727
  8
0
 10
13.557016
 20
12.092238
 30
0.0
 11
14.563097
 21
12.092238
 31
0.0
  0
LINE
  5
728
  8
0
 10
14.563097
 20
12.092238
 30
0.0
 11
14.626
 21
12.092238
 31
0.0
  0
LINE
  5
729
  8
0
 10
0.438
 20
12.592238
 30
0.0
 11
0.675097
 21
12.592238
 31
0.0
  0
LINE
  5
72A
  8
0
 10
0.438
 20
12.592238
 30
0.0
 11
0.675097
 21
12.592238
 31
0.0
  0
LINE
  5
72B
  8
0
 10
0.675097
 20
12.592238
 30
0.0
 11
0.945161
 21
12.592238
 31
0.0
  0
LINE
  5
72C
  8
0
 10
0.945161
 20
12.592238
 30
0.0
 11
2.130645
 21
12.592238
 31
0.0
  0
LINE
  5
72D
  8
0
 10
2.130645
 20
12.592238
 30
0.0
 11
2.193548
 21
12.592238
 31
0.0
  0
LINE
  5
72E
  8
0
 10
2.193548
 20
12.592238
 30
0.0
 11
2.430645
 21
12.592238
 31
0.0
  0
LINE
  5
72F
  8
0
 10
2.430645
 20
12.592238
 30
0.0
 11
2.745161
 21
12.592238
 31
0.0
  0
LINE
  5
730
  8
0
 10
2.745161
 20
12.592238
 30
0.0
 11
3.930645
 21
12.592238
 31
0.0
  0
LINE
  5
731
  8
0
 10
3.930645
 20
12.592238
 30
0.0
 11
3.993548
 21
12.592238
 31
0.0
  0
LINE
  5
732
  8
0
 10
3.993548
 20
12.592238
 30
0.0
 11
4.230645
 21
12.592238
 31
0.0
  0
LINE
  5
733
  8
0
 10
4.230645
 20
12.592238
 30
0.0
 11
4.545161
 21
12.592238
 31
0.0
  0
LINE
  5
734
  8
0
 10
4.545161
 20
12.592238
 30
0.0
 11
5.730645
 21
12.592238
 31
0.0
  0
LINE
  5
735
  8
0
 10
5.730645
 20
12.592238
 30
0.0
 11
5.793548
 21
12.592238
 31
0.0
  0
LINE
  5
736
  8
0
 10
5.793548
 20
12.592238
 30
0.0
 11
6.030645
 21
12.592238
 31
0.0
  0
LINE
  5
737
  8
0
 10
6.030645
 20
12.592238
 30
0.0
 11
6.345161
 21
12.592238
 31
0.0
  0
LINE
  5
738
  8
0
 10
6.345161
 20
12.592238
 30
0.0
 11
7.530645
 21
12.592238
 31
0.0
  0
LINE
  5
739
  8
0
 10
7.530645
 20
12.592238
 30
0.0
 11
7.593548
 21
12.592238
 31
0.0
  0
LINE
  5
73A
  8
0
 10
7.593548
 20
12.592238
 30
0.0
 11
7.830645
 21
12.592238
 31
0.0
  0
LINE
  5
73B
  8
0
 10
7.830645
 20
12.592238
 30
0.0
 11
8.145161
 21
12.592238
 31
0.0
  0
LINE
  5
73C
  8
0
 10
8.145161
 20
12.592238
 30
0.0
 11
9.330645
 21
12.592238
 31
0.0
  0
LINE
  5
73D
  8
0
 10
9.330645
 20
12.592238
 30
0.0
 11
9.393548
 21
12.592238
 31
0.0
  0
LINE
  5
73E
  8
0
 10
9.393548
 20
12.592238
 30
0.0
 11
9.630645
 21
12.592238
 31
0.0
  0
LINE
  5
73F
  8
0
 10
9.630645
 20
12.592238
 30
0.0
 11
9.945161
 21
12.592238
 31
0.0
  0
LINE
  5
740
  8
0
 10
9.945161
 20
12.592238
 30
0.0
 11
11.130645
 21
12.592238
 31
0.0
  0
LINE
  5
741
  8
0
 10
11.130645
 20
12.592238
 30
0.0
 11
11.193548
 21
12.592238
 31
0.0
  0
LINE
  5
742
  8
0
 10
11.193548
 20
12.592238
 30
0.0
 11
11.430645
 21
12.592238
 31
0.0
  0
LINE
  5
743
  8
0
 10
11.430645
 20
12.592238
 30
0.0
 11
11.745161
 21
12.592238
 31
0.0
  0
LINE
  5
744
  8
0
 10
11.745161
 20
12.592238
 30
0.0
 11
12.930645
 21
12.592238
 31
0.0
  0
LINE
  5
745
  8
0
 10
12.930645
 20
12.592238
 30
0.0
 11
12.993548
 21
12.592238
 31
0.0
  0
LINE
  5
746
  8
0
 10
12.993548
 20
12.592238
 30
0.0
 11
13.230645
 21
12.592238
 31
0.0
  0
LINE
  5
747
  8
0
 10
13.230645
 20
12.592238
 30
0.0
 11
13.545161
 21
12.592238
 31
0.0
  0
LINE
  5
748
  8
0
 10
13.545161
 20
12.592238
 30
0.0
 11
14.563097
 21
12.592238
 31
0.0
  0
LINE
  5
749
  8
0
 10
14.563097
 20
12.592238
 30
0.0
 11
14.626
 21
12.592238
 31
0.0
  0
LINE
  5
74A
  8
0
 10
0.451
 20
13.092238
 30
0.0
 11
0.688097
 21
13.092238
 31
0.0
  0
LINE
  5
74B
  8
0
 10
0.451
 20
13.092238
 30
0.0
 11
0.688097
 21
13.092238
 31
0.0
  0
LINE
  5
74C
  8
0
 10
0.688097
 20
13.092238
 30
0.0
 11
0.955435
 21
13.092238
 31
0.0
  0
LINE
  5
74D
  8
0
 10
0.955435
 20
13.092238
 30
0.0
 11
2.140919
 21
13.092238
 31
0.0
  0
LINE
  5
74E
  8
0
 10
2.140919
 20
13.092238
 30
0.0
 11
2.203823
 21
13.092238
 31
0.0
  0
LINE
  5
74F
  8
0
 10
2.203823
 20
13.092238
 30
0.0
 11
2.440919
 21
13.092238
 31
0.0
  0
LINE
  5
750
  8
0
 10
2.440919
 20
13.092238
 30
0.0
 11
2.755435
 21
13.092238
 31
0.0
  0
LINE
  5
751
  8
0
 10
2.755435
 20
13.092238
 30
0.0
 11
3.940919
 21
13.092238
 31
0.0
  0
LINE
  5
752
  8
0
 10
3.940919
 20
13.092238
 30
0.0
 11
4.003823
 21
13.092238
 31
0.0
  0
LINE
  5
753
  8
0
 10
4.003823
 20
13.092238
 30
0.0
 11
4.240919
 21
13.092238
 31
0.0
  0
LINE
  5
754
  8
0
 10
4.240919
 20
13.092238
 30
0.0
 11
4.555435
 21
13.092238
 31
0.0
  0
LINE
  5
755
  8
0
 10
4.555435
 20
13.092238
 30
0.0
 11
5.740919
 21
13.092238
 31
0.0
  0
LINE
  5
756
  8
0
 10
5.740919
 20
13.092238
 30
0.0
 11
5.803823
 21
13.092238
 31
0.0
  0
LINE
  5
757
  8
0
 10
5.803823
 20
13.092238
 30
0.0
 11
6.040919
 21
13.092238
 31
0.0
  0
LINE
  5
758
  8
0
 10
6.040919
 20
13.092238
 30
0.0
 11
6.355435
 21
13.092238
 31
0.0
  0
LINE
  5
759
  8
0
 10
6.355435
 20
13.092238
 30
0.0
 11
7.540919
 21
13.092238
 31
0.0
  0
LINE
  5
75A
  8
0
 10
7.540919
 20
13.092238
 30
0.0
 11
7.603823
 21
13.092238
 31
0.0
  0
LINE
  5
75B
  8
0
 10
7.603823
 20
13.092238
 30
0.0
 11
7.840919
 21
13.092238
 31
0.0
  0
LINE
  5
75C
  8
0
 10
7.840919
 20
13.092238
 30
0.0
 11
8.155435
 21
13.092238
 31
0.0
  0
LINE
  5
75D
  8
0
 10
8.155435
 20
13.092238
 30
0.0
 11
9.340919
 21
13.092238
 31
0.0
  0
LINE
  5
75E
  8
0
 10
9.340919
 20
13.092238
 30
0.0
 11
9.403823
 21
13.092238
 31
0.0
  0
LINE
  5
75F
  8
0
 10
9.403823
 20
13.092238
 30
0.0
 11
9.640919
 21
13.092238
 31
0.0
  0
LINE
  5
760
  8
0
 10
9.640919
 20
13.092238
 30
0.0
 11
9.955435
 21
13.092238
 31
0.0
  0
LINE
  5
761
  8
0
 10
9.955435
 20
13.092238
 30
0.0
 11
11.140919
 21
13.092238
 31
0.0
  0
LINE
  5
762
  8
0
 10
11.140919
 20
13.092238
 30
0.0
 11
11.203823
 21
13.092238
 31
0.0
  0
LINE
  5
763
  8
0
 10
11.203823
 20
13.092238
 30
0.0
 11
11.440919
 21
13.092238
 31
0.0
  0
LINE
  5
764
  8
0
 10
11.440919
 20
13.092238
 30
0.0
 11
11.755435
 21
13.092238
 31
0.0
  0
LINE
  5
765
  8
0
 10
11.755435
 20
13.092238
 30
0.0
 11
12.940919
 21
13.092238
 31
0.0
  0
LINE
  5
766
  8
0
 10
12.940919
 20
13.092238
 30
0.0
 11
13.003823
 21
13.092238
 31
0.0
  0
LINE
  5
767
  8
0
 10
13.003823
 20
13.092238
 30
0.0
 11
13.240919
 21
13.092238
 31
0.0
  0
LINE
  5
768
  8
0
 10
13.240919
 20
13.092238
 30
0.0
 11
13.555435
 21
13.092238
 31
0.0
  0
LINE
  5
769
  8
0
 10
13.555435
 20
13.092238
 30
0.0
 11
14.563097
 21
13.092238
 31
0.0
  0
LINE
  5
76A
  8
0
 10
14.563097
 20
13.092238
 30
0.0
 11
14.626
 21
13.092238
 31
0.0
  0
LINE
  5
76B
  8
0
 10
0.511
 20
13.592238
 30
0.0
 11
0.748097
 21
13.592238
 31
0.0
  0
LINE
  5
76C
  8
0
 10
0.511
 20
13.592238
 30
0.0
 11
0.748097
 21
13.592238
 31
0.0
  0
LINE
  5
76D
  8
0
 10
0.748097
 20
13.592238
 30
0.0
 11
1.002855
 21
13.592238
 31
0.0
  0
LINE
  5
76E
  8
0
 10
1.002855
 20
13.592238
 30
0.0
 11
2.188339
 21
13.592238
 31
0.0
  0
LINE
  5
76F
  8
0
 10
2.188339
 20
13.592238
 30
0.0
 11
2.251242
 21
13.592238
 31
0.0
  0
LINE
  5
770
  8
0
 10
2.251242
 20
13.592238
 30
0.0
 11
2.488339
 21
13.592238
 31
0.0
  0
LINE
  5
771
  8
0
 10
2.488339
 20
13.592238
 30
0.0
 11
2.802855
 21
13.592238
 31
0.0
  0
LINE
  5
772
  8
0
 10
2.802855
 20
13.592238
 30
0.0
 11
3.988339
 21
13.592238
 31
0.0
  0
LINE
  5
773
  8
0
 10
3.988339
 20
13.592238
 30
0.0
 11
4.051242
 21
13.592238
 31
0.0
  0
LINE
  5
774
  8
0
 10
4.051242
 20
13.592238
 30
0.0
 11
4.288339
 21
13.592238
 31
0.0
  0
LINE
  5
775
  8
0
 10
4.288339
 20
13.592238
 30
0.0
 11
4.602855
 21
13.592238
 31
0.0
  0
LINE
  5
776
  8
0
 10
4.602855
 20
13.592238
 30
0.0
 11
5.788339
 21
13.592238
 31
0.0
  0
LINE
  5
777
  8
0
 10
5.788339
 20
13.592238
 30
0.0
 11
5.851242
 21
13.592238
 31
0.0
  0
LINE
  5
778
  8
0
 10
5.851242
 20
13.592238
 30
0.0
 11
6.088339
 21
13.592238
 31
0.0
  0
LINE
  5
779
  8
0
 10
6.088339
 20
13.592238
 30
0.0
 11
6.402855
 21
13.592238
 31
0.0
  0
LINE
  5
77A
  8
0
 10
6.402855
 20
13.592238
 30
0.0
 11
7.588339
 21
13.592238
 31
0.0
  0
LINE
  5
77B
  8
0
 10
7.588339
 20
13.592238
 30
0.0
 11
7.651242
 21
13.592238
 31
0.0
  0
LINE
  5
77C
  8
0
 10
7.651242
 20
13.592238
 30
0.0
 11
7.888339
 21
13.592238
 31
0.0
  0
LINE
  5
77D
  8
0
 10
7.888339
 20
13.592238
 30
0.0
 11
8.202855
 21
13.592238
 31
0.0
  0
LINE
  5
77E
  8
0
 10
8.202855
 20
13.592238
 30
0.0
 11
9.388339
 21
13.592238
 31
0.0
  0
LINE
  5
77F
  8
0
 10
9.388339
 20
13.592238
 30
0.0
 11
9.451242
 21
13.592238
 31
0.0
  0
LINE
  5
780
  8
0
 10
9.451242
 20
13.592238
 30
0.0
 11
9.688339
 21
13.592238
 31
0.0
  0
LINE
  5
781
  8
0
 10
9.688339
 20
13.592238
 30
0.0
 11
10.002855
 21
13.592238
 31
0.0
  0
LINE
  5
782
  8
0
 10
10.002855
 20
13.592238
 30
0.0
 11
11.188339
 21
13.592238
 31
0.0
  0
LINE
  5
783
  8
0
 10
11.188339
 20
13.592238
 30
0.0
 11
11.251242
 21
13.592238
 31
0.0
  0
LINE
  5
784
  8
0
 10
11.251242
 20
13.592238
 30
0.0
 11
11.488339
 21
13.592238
 31
0.0
  0
LINE
  5
785
  8
0
 10
11.488339
 20
13.592238
 30
0.0
 11
11.802855
 21
13.592238
 31
0.0
  0
LINE
  5
786
  8
0
 10
11.802855
 20
13.592238
 30
0.0
 11
12.988339
 21
13.592238
 31
0.0
  0
LINE
  5
787
  8
0
 10
12.988339
 20
13.592238
 30
0.0
 11
13.051242
 21
13.592238
 31
0.0
  0
LINE
  5
788
  8
0
 10
13.051242
 20
13.592238
 30
0.0
 11
13.288339
 21
13.592238
 31
0.0
  0
LINE
  5
789
  8
0
 10
13.288339
 20
13.592238
 30
0.0
 11
13.602855
 21
13.592238
 31
0.0
  0
LINE
  5
78A
  8
0
 10
13.602855
 20
13.592238
 30
0.0
 11
14.563097
 21
13.592238
 31
0.0
  0
LINE
  5
78B
  8
0
 10
14.563097
 20
13.592238
 30
0.0
 11
14.626
 21
13.592238
 31
0.0
  0
LINE
  5
78C
  8
0
 10
0.654
 20
14.092238
 30
0.0
 11
0.891097
 21
14.092238
 31
0.0
  0
LINE
  5
78D
  8
0
 10
0.654
 20
14.092238
 30
0.0
 11
0.891097
 21
14.092238
 31
0.0
  0
LINE
  5
78E
  8
0
 10
0.891097
 20
14.092238
 30
0.0
 11
1.115871
 21
14.092238
 31
0.0
  0
LINE
  5
78F
  8
0
 10
1.115871
 20
14.092238
 30
0.0
 11
2.301355
 21
14.092238
 31
0.0
  0
LINE
  5
790
  8
0
 10
2.301355
 20
14.092238
 30
0.0
 11
2.364258
 21
14.092238
 31
0.0
  0
LINE
  5
791
  8
0
 10
2.364258
 20
14.092238
 30
0.0
 11
2.601355
 21
14.092238
 31
0.0
  0
LINE
  5
792
  8
0
 10
2.601355
 20
14.092238
 30
0.0
 11
2.915871
 21
14.092238
 31
0.0
  0
LINE
  5
793
  8
0
 10
2.915871
 20
14.092238
 30
0.0
 11
4.101355
 21
14.092238
 31
0.0
  0
LINE
  5
794
  8
0
 10
4.101355
 20
14.092238
 30
0.0
 11
4.164258
 21
14.092238
 31
0.0
  0
LINE
  5
795
  8
0
 10
4.164258
 20
14.092238
 30
0.0
 11
4.401355
 21
14.092238
 31
0.0
  0
LINE
  5
796
  8
0
 10
4.401355
 20
14.092238
 30
0.0
 11
4.715871
 21
14.092238
 31
0.0
  0
LINE
  5
797
  8
0
 10
4.715871
 20
14.092238
 30
0.0
 11
5.901355
 21
14.092238
 31
0.0
  0
LINE
  5
798
  8
0
 10
5.901355
 20
14.092238
 30
0.0
 11
5.964258
 21
14.092238
 31
0.0
  0
LINE
  5
799
  8
0
 10
5.964258
 20
14.092238
 30
0.0
 11
6.201355
 21
14.092238
 31
0.0
  0
LINE
  5
79A
  8
0
 10
6.201355
 20
14.092238
 30
0.0
 11
6.515871
 21
14.092238
 31
0.0
  0
LINE
  5
79B
  8
0
 10
6.515871
 20
14.092238
 30
0.0
 11
7.701355
 21
14.092238
 31
0.0
  0
LINE
  5
79C
  8
0
 10
7.701355
 20
14.092238
 30
0.0
 11
7.764258
 21
14.092238
 31
0.0
  0
LINE
  5
79D
  8
0
 10
7.764258
 20
14.092238
 30
0.0
 11
8.001355
 21
14.092238
 31
0.0
  0
LINE
  5
79E
  8
0
 10
8.001355
 20
14.092238
 30
0.0
 11
8.315871
 21
14.092238
 31
0.0
  0
LINE
  5
79F
  8
0
 10
8.315871
 20
14.092238
 30
0.0
 11
9.501355
 21
14.092238
 31
0.0
  0
LINE
  5
7A0
  8
0
 10
9.501355
 20
14.092238
 30
0.0
 11
9.564258
 21
14.092238
 31
0.0
  0
LINE
  5
7A1
  8
0
 10
9.564258
 20
14.092238
 30
0.0
 11
9.801355
 21
14.092238
 31
0.0
  0
LINE
  5
7A2
  8
0
 10
9.801355
 20
14.092238
 30
0.0
 11
10.115871
 21
14.092238
 31
0.0
  0
LINE
  5
7A3
  8
0
 10
10.115871
 20
14.092238
 30
0.0
 11
11.301355
 21
14.092238
 31
0.0
  0
LINE
  5
7A4
  8
0
 10
11.301355
 20
14.092238
 30
0.0
 11
11.364258
 21
14.092238
 31
0.0
  0
LINE
  5
7A5
  8
0
 10
11.364258
 20
14.092238
 30
0.0
 11
11.601355
 21
14.092238
 31
0.0
  0
LINE
  5
7A6
  8
0
 10
11.601355
 20
14.092238
 30
0.0
 11
11.915871
 21
14.092238
 31
0.0
  0
LINE
  5
7A7
  8
0
 10
11.915871
 20
14.092238
 30
0.0
 11
13.101355
 21
14.092238
 31
0.0
  0
LINE
  5
7A8
  8
0
 10
13.101355
 20
14.092238
 30
0.0
 11
13.164258
 21
14.092238
 31
0.0
  0
LINE
  5
7A9
  8
0
 10
13.164258
 20
14.092238
 30
0.0
 11
13.401355
 21
14.092238
 31
0.0
  0
LINE
  5
7AA
  8
0
 10
13.401355
 20
14.092238
 30
0.0
 11
13.715871
 21
14.092238
 31
0.0
  0
LINE
  5
7AB
  8
0
 10
13.715871
 20
14.092238
 30
0.0
 11
14.563097
 21
14.092238
 31
0.0
  0
LINE
  5
7AC
  8
0
 10
14.563097
 20
14.092238
 30
0.0
 11
14.626
 21
14.092238
 31
0.0
  0
LINE
  5
7AD
  8
0
 10
1.221
 20
14.592238
 30
0.0
 11
1.458097
 21
14.592238
 31
0.0
  0
LINE
  5
7AE
  8
0
 10
1.221
 20
14.592238
 30
0.0
 11
1.458097
 21
14.592238
 31
0.0
  0
LINE
  5
7AF
  8
0
 10
1.458097
 20
14.592238
 30
0.0
 11
1.563984
 21
14.592238
 31
0.0
  0
LINE
  5
7B0
  8
0
 10
1.563984
 20
14.592238
 30
0.0
 11
1.626887
 21
14.592238
 31
0.0
  0
LINE
  5
7B1
  8
0
 10
1.626887
 20
14.592238
 30
0.0
 11
2.812371
 21
14.592238
 31
0.0
  0
LINE
  5
7B2
  8
0
 10
2.812371
 20
14.592238
 30
0.0
 11
3.126887
 21
14.592238
 31
0.0
  0
LINE
  5
7B3
  8
0
 10
3.126887
 20
14.592238
 30
0.0
 11
3.363984
 21
14.592238
 31
0.0
  0
LINE
  5
7B4
  8
0
 10
3.363984
 20
14.592238
 30
0.0
 11
3.426887
 21
14.592238
 31
0.0
  0
LINE
  5
7B5
  8
0
 10
3.426887
 20
14.592238
 30
0.0
 11
4.612371
 21
14.592238
 31
0.0
  0
LINE
  5
7B6
  8
0
 10
4.612371
 20
14.592238
 30
0.0
 11
4.926887
 21
14.592238
 31
0.0
  0
LINE
  5
7B7
  8
0
 10
4.926887
 20
14.592238
 30
0.0
 11
5.163984
 21
14.592238
 31
0.0
  0
LINE
  5
7B8
  8
0
 10
5.163984
 20
14.592238
 30
0.0
 11
5.226887
 21
14.592238
 31
0.0
  0
LINE
  5
7B9
  8
0
 10
5.226887
 20
14.592238
 30
0.0
 11
5.897081
 21
14.592238
 31
0.0
  0
LINE
  5
7BA
  8
0
 10
5.897081
 20
14.592238
 30
0.0
 11
6.134177
 21
14.592238
 31
0.0
  0
LINE
  5
7BB
  8
0
 10
6.134177
 20
14.592238
 30
0.0
 11
6.448694
 21
14.592238
 31
0.0
  0
LINE
  5
7BC
  8
0
 10
6.448694
 20
14.592238
 30
0.0
 11
7.634177
 21
14.592238
 31
0.0
  0
LINE
  5
7BD
  8
0
 10
7.634177
 20
14.592238
 30
0.0
 11
7.697081
 21
14.592238
 31
0.0
  0
LINE
  5
7BE
  8
0
 10
7.697081
 20
14.592238
 30
0.0
 11
7.934177
 21
14.592238
 31
0.0
  0
LINE
  5
7BF
  8
0
 10
7.934177
 20
14.592238
 30
0.0
 11
8.248694
 21
14.592238
 31
0.0
  0
LINE
  5
7C0
  8
0
 10
8.248694
 20
14.592238
 30
0.0
 11
9.434177
 21
14.592238
 31
0.0
  0
LINE
  5
7C1
  8
0
 10
9.434177
 20
14.592238
 30
0.0
 11
9.497081
 21
14.592238
 31
0.0
  0
LINE
  5
7C2
  8
0
 10
9.497081
 20
14.592238
 30
0.0
 11
9.734177
 21
14.592238
 31
0.0
  0
LINE
  5
7C3
  8
0
 10
9.734177
 20
14.592238
 30
0.0
 11
10.048694
 21
14.592238
 31
0.0
  0
LINE
  5
7C4
  8
0
 10
10.048694
 20
14.592238
 30
0.0
 11
11.234177
 21
14.592238
 31
0.0
  0
LINE
  5
7C5
  8
0
 10
11.234177
 20
14.592238
 30
0.0
 11
11.297081
 21
14.592238
 31
0.0
  0
LINE
  5
7C6
  8
0
 10
11.297081
 20
14.592238
 30
0.0
 11
11.534177
 21
14.592238
 31
0.0
  0
LINE
  5
7C7
  8
0
 10
11.534177
 20
14.592238
 30
0.0
 11
11.848694
 21
14.592238
 31
0.0
  0
LINE
  5
7C8
  8
0
 10
11.848694
 20
14.592238
 30
0.0
 11
13.034177
 21
14.592238
 31
0.0
  0
LINE
  5
7C9
  8
0
 10
13.034177
 20
14.592238
 30
0.0
 11
13.097081
 21
14.592238
 31
0.0
  0
LINE
  5
7CA
  8
0
 10
13.097081
 20
14.592238
 30
0.0
 11
13.334177
 21
14.592238
 31
0.0
  0
LINE
  5
7CB
  8
0
 10
13.334177
 20
14.592238
 30
0.0
 11
13.648694
 21
14.592238
 31
0.0
  0
LINE
  5
7CC
  8
0
 10
13.648694
 20
14.592238
 30
0.0
 11
14.563097
 21
14.592238
 31
0.0
  0
LINE
  5
7CD
  8
0
 10
14.563097
 20
14.592238
 30
0.0
 11
14.626
 21
14.592238
 31
0.0
  0
ENDSEC
  0
EOF
