  0
SECTION
  2
HEADER
  9
$ACADVER
  1
AC1009
  9
$DWGCODEPAGE
  3
ANSI_1252
  9
$INSBASE
 10
0.0
 20
0.0
 30
0.0
  9
$EXTMIN
 10
1e+20
 20
1e+20
 30
1e+20
  9
$EXTMAX
 10
-1e+20
 20
-1e+20
 30
-1e+20
  9
$LIMMIN
 10
0.0
 20
0.0
  9
$LIMMAX
 10
420.0
 20
297.0
  9
$ORTHOMODE
 70
0
  9
$REGENMODE
 70
1
  9
$FILLMODE
 70
1
  9
$DRAGMODE
 70
2
  9
$QTEXTMODE
 70
0
  9
$MIRRTEXT
 70
1
  9
$OSMODE
 70
20583
  9
$LTSCALE
 40
1.0
  9
$ATTMODE
 70
1
  9
$TEXTSIZE
 40
2.5
  9
$TRACEWID
 40
1.0
  9
$TEXTSTYLE
  7
Standard
  9
$CLAYER
  8
0
  9
$CELTYPE
  6
ByLayer
  9
$CECOLOR
 62
256
  9
$DIMSCALE
 40
1.0
  9
$DIMASZ
 40
2.5
  9
$DIMEXO
 40
0.625
  9
$DIMDLI
 40
3.75
  9
$DIMRND
 40
0.0
  9
$DIMDLE
 40
0.0
  9
$DIMEXE
 40
1.25
  9
$DIMTP
 40
0.0
  9
$DIMTM
 40
0.0
  9
$DIMTXT
 40
2.5
  9
$DIMCEN
 40
2.5
  9
$DIMTSZ
 40
0.0
  9
$DIMTOL
 70
0
  9
$DIMLIM
 70
0
  9
$DIMTIH
 70
0
  9
$DIMTOH
 70
0
  9
$DIMSE1
 70
0
  9
$DIMSE2
 70
0
  9
$DIMTAD
 70
1
  9
$DIMZIN
 70
8
  9
$DIMBLK
  1

  9
$DIMASO
 70
1
  9
$DIMSHO
 70
1
  9
$DIMPOST
  1

  9
$DIMAPOST
  1

  9
$DIMALT
 70
0
  9
$DIMALTD
 70
3
  9
$DIMALTF
 40
0.03937007874
  9
$DIMLFAC
 40
1.0
  9
$DIMTOFL
 70
1
  9
$DIMTVP
 40
0.0
  9
$DIMTIX
 70
0
  9
$DIMSOXD
 70
0
  9
$DIMSAH
 70
0
  9
$DIMBLK1
  1

  9
$DIMBLK2
  1

  9
$DIMSTYLE
  2
ISO-25
  9
$DIMCLRD
 70
0
  9
$DIMCLRE
 70
0
  9
$DIMCLRT
 70
0
  9
$DIMTFAC
 40
1.0
  9
$DIMGAP
 40
0.625
  9
$COORDS
 70
1
  9
$ATTDIA
 70
0
  9
$ATTREQ
 70
1
  9
$HANDLING
 70
1
  9
$LUNITS
 70
2
  9
$LUPREC
 70
4
  9
$SKETCHINC
 40
1.0
  9
$FILLETRAD
 40
10.0
  9
$AUNITS
 70
0
  9
$AUPREC
 70
2
  9
$MENU
  1
.
  9
$ELEVATION
 40
0.0
  9
$PELEVATION
 40
0.0
  9
$THICKNESS
 40
0.0
  9
$LIMCHECK
 70
0
  9
$CHAMFERA
 40
0.0
  9
$CHAMFERB
 40
0.0
  9
$SKPOLY
 70
0
  9
$TDCREATE
 40
2460888.395925926
  9
$TDUPDATE
 40
2460888.395925926
  9
$TDINDWG
 40
0.0
  9
$TDUSRTIMER
 40
0.0
  9
$USRTIMER
 70
1
  9
$ANGBASE
 50
0.0
  9
$ANGDIR
 70
0
  9
$PDMODE
 70
0
  9
$PDSIZE
 40
0.0
  9
$PLINEWID
 40
0.0
  9
$SPLFRAME
 70
0
  9
$SPLINETYPE
 70
6
  9
$SPLINESEGS
 70
8
  9
$HANDSEED
  5
7D0
  9
$SURFTAB1
 70
6
  9
$SURFTAB2
 70
6
  9
$SURFTYPE
 70
6
  9
$SURFU
 70
6
  9
$SURFV
 70
6
  9
$UCSNAME
  2

  9
$UCSORG
 10
0.0
 20
0.0
 30
0.0
  9
$UCSXDIR
 10
1.0
 20
0.0
 30
0.0
  9
$UCSYDIR
 10
0.0
 20
1.0
 30
0.0
  9
$PUCSNAME
  2

  9
$PUCSORG
 10
0.0
 20
0.0
 30
0.0
  9
$PUCSXDIR
 10
1.0
 20
0.0
 30
0.0
  9
$PUCSYDIR
 10
0.0
 20
1.0
 30
0.0
  9
$USERI1
 70
0
  9
$USERI2
 70
0
  9
$USERI3
 70
0
  9
$USERI4
 70
0
  9
$USERI5
 70
0
  9
$USERR1
 40
0.0
  9
$USERR2
 40
0.0
  9
$USERR3
 40
0.0
  9
$USERR4
 40
0.0
  9
$USERR5
 40
0.0
  9
$WORLDVIEW
 70
1
  9
$SHADEDGE
 70
3
  9
$SHADEDIF
 70
70
  9
$TILEMODE
 70
1
  9
$MAXACTVP
 70
64
  9
$PLIMCHECK
 70
0
  9
$PEXTMIN
 10
1e+20
 20
1e+20
 30
1e+20
  9
$PEXTMAX
 10
-1e+20
 20
-1e+20
 30
-1e+20
  9
$PLIMMIN
 10
0.0
 20
0.0
  9
$PLIMMAX
 10
420.0
 20
297.0
  9
$UNITMODE
 70
0
  9
$VISRETAIN
 70
1
  9
$PLINEGEN
 70
0
  9
$PSLTSCALE
 70
1
  0
ENDSEC
  0
SECTION
  2
TABLES
  0
TABLE
  2
VPORT
 70
1
  0
VPORT
  5
23
  2
*Active
 70
0
 10
0.0
 20
0.0
 11
1.0
 21
1.0
 12
0.0
 22
0.0
 13
0.0
 23
0.0
 14
0.5
 24
0.5
 15
0.5
 25
0.5
 16
0.0
 26
0.0
 36
1.0
 17
0.0
 27
0.0
 37
0.0
 40
1000.0
 41
1.34
 42
50.0
 43
0.0
 44
0.0
 50
0.0
 51
0.0
 71
0
 72
1000
 73
1
 74
3
 75
0
 76
0
 77
0
 78
0
  0
ENDTAB
  0
TABLE
  2
LTYPE
 70
3
  0
LTYPE
  5
24
  2
ByBlock
 70
0
  3

 72
65
 73
0
 40
0.0
  0
LTYPE
  5
25
  2
ByLayer
 70
0
  3

 72
65
 73
0
 40
0.0
  0
LTYPE
  5
26
  2
Continuous
 70
0
  3

 72
65
 73
0
 40
0.0
  0
ENDTAB
  0
TABLE
  2
LAYER
 70
2
  0
LAYER
  5
27
  2
0
 70
0
 62
7
  6
Continuous
  0
LAYER
  5
28
  2
Defpoints
 70
0
 62
7
  6
Continuous
  0
ENDTAB
  0
TABLE
  2
STYLE
 70
1
  0
STYLE
  5
29
  2
Standard
 70
0
 40
0.0
 41
1.0
 50
0.0
 71
0
 42
2.5
  3
txt
  4

  0
ENDTAB
  0
TABLE
  2
VIEW
 70
0
  0
ENDTAB
  0
TABLE
  2
UCS
 70
0
  0
ENDTAB
  0
TABLE
  2
APPID
 70
3
  0
APPID
  5
2A
  2
ACAD
 70
0
  0
APPID
  5
7CE
  2
HATCHBACKGROUNDCOLOR
 70
0
  0
APPID
  5
7CF
  2
EZDXF
 70
0
  0
ENDTAB
  0
TABLE
  2
DIMSTYLE
 70
1
  0
DIMSTYLE
105
2B
  2
Standard
 70
0
  3

  4

  5

  6

  7

 40
1.0
 41
2.5
 42
0.625
 43
3.75
 44
1.25
 45
0.0
 46
0.0
 47
0.0
 48
0.0
140
2.5
141
2.5
142
0.0
143
0.03937007874
144
1.0
145
0.0
146
1.0
147
0.625
 71
0
 72
0
 73
0
 74
0
 75
0
 76
0
 77
1
 78
8
170
0
171
3
172
1
173
0
174
0
175
0
176
0
177
0
178
0
  0
ENDTAB
  0
ENDSEC
  0
SECTION
  2
BLOCKS
  0
BLOCK
  5
18
  8
0
  2
$Model_Space
 70
0
 10
0.0
 20
0.0
 30
0.0
  3
$Model_Space
  1

1001
EZDXF
1000
CREATED_BY_EZDXF
1000
1.4.2 @ 2025-07-31T12:30:08.326967+00:00
1000
WRITTEN_BY_EZDXF
1000
1.4.2 @ 2025-07-31T12:30:08.420712+00:00
  0
ENDBLK
  5
19
  8
0
  0
BLOCK
  5
1C
  8
0
  2
$Paper_Space
 70
0
 10
0.0
 20
0.0
 30
0.0
  3
$Paper_Space
  1

  0
ENDBLK
  5
1D
  8
0
  0
ENDSEC
  0
SECTION
  2
ENTITIES
  0
LINE
  5
2D
  8
0
 10
2.411298
 20
0.431217
 30
0.0
 11
7.310014
 21
0.579702
 31
0.0
  0
LINE
  5
2E
  8
0
 10
7.310014
 20
0.579702
 30
0.0
 11
12.814104
 21
0.449392
 31
0.0
  0
LINE
  5
2F
  8
0
 10
12.814104
 20
0.449392
 30
0.0
 11
13.628925
 21
0.527583
 31
0.0
  0
LINE
  5
30
  8
0
 10
13.628925
 20
0.527583
 30
0.0
 11
14.307385
 21
0.793201
 31
0.0
  0
LINE
  5
31
  8
0
 10
14.307385
 20
0.793201
 30
0.0
 11
14.634341
 21
1.357985
 31
0.0
  0
LINE
  5
32
  8
0
 10
14.634341
 20
1.357985
 30
0.0
 11
14.748673
 21
2.327143
 31
0.0
  0
LINE
  5
33
  8
0
 10
14.748673
 20
2.327143
 30
0.0
 11
14.624588
 21
14.630879
 31
0.0
  0
LINE
  5
34
  8
0
 10
14.624588
 20
14.630879
 30
0.0
 11
2.333357
 21
14.750581
 31
0.0
  0
LINE
  5
35
  8
0
 10
2.333357
 20
14.750581
 30
0.0
 11
1.273483
 21
14.615329
 31
0.0
  0
LINE
  5
36
  8
0
 10
1.273483
 20
14.615329
 30
0.0
 11
0.830009
 21
14.350256
 31
0.0
  0
LINE
  5
37
  8
0
 10
0.830009
 20
14.350256
 30
0.0
 11
0.518527
 21
13.635646
 31
0.0
  0
LINE
  5
38
  8
0
 10
0.518527
 20
13.635646
 30
0.0
 11
0.436693
 21
12.725798
 31
0.0
  0
LINE
  5
39
  8
0
 10
0.436693
 20
12.725798
 30
0.0
 11
0.581691
 21
7.873559
 31
0.0
  0
LINE
  5
3A
  8
0
 10
0.581691
 20
7.873559
 30
0.0
 11
0.462283
 21
2.04359
 31
0.0
  0
LINE
  5
3B
  8
0
 10
0.462283
 20
2.04359
 30
0.0
 11
0.541467
 21
1.411741
 31
0.0
  0
LINE
  5
3C
  8
0
 10
0.541467
 20
1.411741
 30
0.0
 11
0.806799
 21
0.85731
 31
0.0
  0
LINE
  5
3D
  8
0
 10
0.806799
 20
0.85731
 30
0.0
 11
1.416483
 21
0.540413
 31
0.0
  0
LINE
  5
3E
  8
0
 10
1.416483
 20
0.540413
 30
0.0
 11
2.411298
 21
0.431217
 31
0.0
  0
LINE
  5
3F
  8
0
 10
2.411298
 20
0.431217
 30
0.0
 11
2.411298
 21
0.431217
 31
0.0
  0
LINE
  5
40
  8
0
 10
2.411298
 20
0.431217
 30
0.0
 11
7.310014
 21
0.579702
 31
0.0
  0
LINE
  5
41
  8
0
 10
7.310014
 20
0.579702
 30
0.0
 11
12.814104
 21
0.449392
 31
0.0
  0
LINE
  5
42
  8
0
 10
12.814104
 20
0.449392
 30
0.0
 11
13.628925
 21
0.527583
 31
0.0
  0
LINE
  5
43
  8
0
 10
13.628925
 20
0.527583
 30
0.0
 11
14.307385
 21
0.793201
 31
0.0
  0
LINE
  5
44
  8
0
 10
14.307385
 20
0.793201
 30
0.0
 11
14.634341
 21
1.357985
 31
0.0
  0
LINE
  5
45
  8
0
 10
14.634341
 20
1.357985
 30
0.0
 11
14.748673
 21
2.327143
 31
0.0
  0
LINE
  5
46
  8
0
 10
14.748673
 20
2.327143
 30
0.0
 11
14.624588
 21
14.630879
 31
0.0
  0
LINE
  5
47
  8
0
 10
14.624588
 20
14.630879
 30
0.0
 11
2.333357
 21
14.750581
 31
0.0
  0
LINE
  5
48
  8
0
 10
2.333357
 20
14.750581
 30
0.0
 11
1.273483
 21
14.615329
 31
0.0
  0
LINE
  5
49
  8
0
 10
1.273483
 20
14.615329
 30
0.0
 11
0.830009
 21
14.350256
 31
0.0
  0
LINE
  5
4A
  8
0
 10
0.830009
 20
14.350256
 30
0.0
 11
0.518527
 21
13.635646
 31
0.0
  0
LINE
  5
4B
  8
0
 10
0.518527
 20
13.635646
 30
0.0
 11
0.436693
 21
12.725798
 31
0.0
  0
LINE
  5
4C
  8
0
 10
0.436693
 20
12.725798
 30
0.0
 11
0.581691
 21
7.873559
 31
0.0
  0
LINE
  5
4D
  8
0
 10
0.581691
 20
7.873559
 30
0.0
 11
0.462283
 21
2.04359
 31
0.0
  0
LINE
  5
4E
  8
0
 10
0.462283
 20
2.04359
 30
0.0
 11
0.541467
 21
1.411741
 31
0.0
  0
LINE
  5
4F
  8
0
 10
0.541467
 20
1.411741
 30
0.0
 11
0.806799
 21
0.85731
 31
0.0
  0
LINE
  5
50
  8
0
 10
0.806799
 20
0.85731
 30
0.0
 11
1.416483
 21
0.540413
 31
0.0
  0
LINE
  5
51
  8
0
 10
1.416483
 20
0.540413
 30
0.0
 11
2.411298
 21
0.431217
 31
0.0
  0
LINE
  5
52
  8
0
 10
2.411298
 20
0.431217
 30
0.0
 11
2.411298
 21
0.431217
 31
0.0
  0
LINE
  5
53
  8
0
 10
0.592849
 20
1.254
 30
0.0
 11
0.592849
 21
1.261014
 31
0.0
  0
LINE
  5
54
  8
0
 10
0.592849
 20
1.254
 30
0.0
 11
0.592849
 21
1.261014
 31
0.0
  0
LINE
  5
55
  8
0
 10
0.592849
 20
1.261014
 30
0.0
 11
0.592849
 21
1.532958
 31
0.0
  0
LINE
  5
56
  8
0
 10
0.592849
 20
1.532958
 30
0.0
 11
0.592849
 21
1.673274
 31
0.0
  0
LINE
  5
57
  8
0
 10
0.592849
 20
1.673274
 30
0.0
 11
0.592849
 21
3.032952
 31
0.0
  0
LINE
  5
58
  8
0
 10
0.592849
 20
3.032952
 30
0.0
 11
0.592849
 21
3.061016
 31
0.0
  0
LINE
  5
59
  8
0
 10
0.592849
 20
3.061016
 30
0.0
 11
0.592849
 21
3.332952
 31
0.0
  0
LINE
  5
5A
  8
0
 10
0.592849
 20
3.332952
 30
0.0
 11
0.592849
 21
3.473274
 31
0.0
  0
LINE
  5
5B
  8
0
 10
0.592849
 20
3.473274
 30
0.0
 11
0.592849
 21
4.832952
 31
0.0
  0
LINE
  5
5C
  8
0
 10
0.592849
 20
4.832952
 30
0.0
 11
0.592849
 21
4.861016
 31
0.0
  0
LINE
  5
5D
  8
0
 10
0.592849
 20
4.861016
 30
0.0
 11
0.592849
 21
5.132952
 31
0.0
  0
LINE
  5
5E
  8
0
 10
0.592849
 20
5.132952
 30
0.0
 11
0.592849
 21
5.273274
 31
0.0
  0
LINE
  5
5F
  8
0
 10
0.592849
 20
5.273274
 30
0.0
 11
0.592849
 21
6.632952
 31
0.0
  0
LINE
  5
60
  8
0
 10
0.592849
 20
6.632952
 30
0.0
 11
0.592849
 21
6.661016
 31
0.0
  0
LINE
  5
61
  8
0
 10
0.592849
 20
6.661016
 30
0.0
 11
0.592849
 21
6.932952
 31
0.0
  0
LINE
  5
62
  8
0
 10
0.592849
 20
6.932952
 30
0.0
 11
0.592849
 21
7.073274
 31
0.0
  0
LINE
  5
63
  8
0
 10
0.592849
 20
7.073274
 30
0.0
 11
0.592849
 21
8.432952
 31
0.0
  0
LINE
  5
64
  8
0
 10
0.592849
 20
8.432952
 30
0.0
 11
0.592849
 21
8.461016
 31
0.0
  0
LINE
  5
65
  8
0
 10
0.592849
 20
8.461016
 30
0.0
 11
0.592849
 21
8.732952
 31
0.0
  0
LINE
  5
66
  8
0
 10
0.592849
 20
8.732952
 30
0.0
 11
0.592849
 21
8.873274
 31
0.0
  0
LINE
  5
67
  8
0
 10
0.592849
 20
8.873274
 30
0.0
 11
0.592849
 21
10.232952
 31
0.0
  0
LINE
  5
68
  8
0
 10
0.592849
 20
10.232952
 30
0.0
 11
0.592849
 21
10.261016
 31
0.0
  0
LINE
  5
69
  8
0
 10
0.592849
 20
10.261016
 30
0.0
 11
0.592849
 21
10.532952
 31
0.0
  0
LINE
  5
6A
  8
0
 10
0.592849
 20
10.532952
 30
0.0
 11
0.592849
 21
10.673274
 31
0.0
  0
LINE
  5
6B
  8
0
 10
0.592849
 20
10.673274
 30
0.0
 11
0.592849
 21
12.032952
 31
0.0
  0
LINE
  5
6C
  8
0
 10
0.592849
 20
12.032952
 30
0.0
 11
0.592849
 21
12.061016
 31
0.0
  0
LINE
  5
6D
  8
0
 10
0.592849
 20
12.061016
 30
0.0
 11
0.592849
 21
12.332952
 31
0.0
  0
LINE
  5
6E
  8
0
 10
0.592849
 20
12.332952
 30
0.0
 11
0.592849
 21
12.473274
 31
0.0
  0
LINE
  5
6F
  8
0
 10
0.592849
 20
12.473274
 30
0.0
 11
0.592849
 21
13.832886
 31
0.0
  0
LINE
  5
70
  8
0
 10
0.592849
 20
13.832886
 30
0.0
 11
0.592849
 21
13.861038
 31
0.0
  0
LINE
  5
71
  8
0
 10
0.592849
 20
13.861038
 30
0.0
 11
0.592849
 21
13.929
 31
0.0
  0
LINE
  5
72
  8
0
 10
1.092849
 20
0.654
 30
0.0
 11
1.092849
 21
0.925935
 31
0.0
  0
LINE
  5
73
  8
0
 10
1.092849
 20
0.654
 30
0.0
 11
1.092849
 21
0.925935
 31
0.0
  0
LINE
  5
74
  8
0
 10
1.092849
 20
0.925935
 30
0.0
 11
1.092849
 21
1.0178
 31
0.0
  0
LINE
  5
75
  8
0
 10
1.092849
 20
1.0178
 30
0.0
 11
1.092849
 21
2.377477
 31
0.0
  0
LINE
  5
76
  8
0
 10
1.092849
 20
2.377477
 30
0.0
 11
1.092849
 21
2.405542
 31
0.0
  0
LINE
  5
77
  8
0
 10
1.092849
 20
2.405542
 30
0.0
 11
1.092849
 21
2.677477
 31
0.0
  0
LINE
  5
78
  8
0
 10
1.092849
 20
2.677477
 30
0.0
 11
1.092849
 21
2.8178
 31
0.0
  0
LINE
  5
79
  8
0
 10
1.092849
 20
2.8178
 30
0.0
 11
1.092849
 21
4.177477
 31
0.0
  0
LINE
  5
7A
  8
0
 10
1.092849
 20
4.177477
 30
0.0
 11
1.092849
 21
4.205542
 31
0.0
  0
LINE
  5
7B
  8
0
 10
1.092849
 20
4.205542
 30
0.0
 11
1.092849
 21
4.477477
 31
0.0
  0
LINE
  5
7C
  8
0
 10
1.092849
 20
4.477477
 30
0.0
 11
1.092849
 21
4.6178
 31
0.0
  0
LINE
  5
7D
  8
0
 10
1.092849
 20
4.6178
 30
0.0
 11
1.092849
 21
5.977477
 31
0.0
  0
LINE
  5
7E
  8
0
 10
1.092849
 20
5.977477
 30
0.0
 11
1.092849
 21
6.005542
 31
0.0
  0
LINE
  5
7F
  8
0
 10
1.092849
 20
6.005542
 30
0.0
 11
1.092849
 21
6.277477
 31
0.0
  0
LINE
  5
80
  8
0
 10
1.092849
 20
6.277477
 30
0.0
 11
1.092849
 21
6.4178
 31
0.0
  0
LINE
  5
81
  8
0
 10
1.092849
 20
6.4178
 30
0.0
 11
1.092849
 21
7.777477
 31
0.0
  0
LINE
  5
82
  8
0
 10
1.092849
 20
7.777477
 30
0.0
 11
1.092849
 21
7.805542
 31
0.0
  0
LINE
  5
83
  8
0
 10
1.092849
 20
7.805542
 30
0.0
 11
1.092849
 21
8.077477
 31
0.0
  0
LINE
  5
84
  8
0
 10
1.092849
 20
8.077477
 30
0.0
 11
1.092849
 21
8.2178
 31
0.0
  0
LINE
  5
85
  8
0
 10
1.092849
 20
8.2178
 30
0.0
 11
1.092849
 21
9.577477
 31
0.0
  0
LINE
  5
86
  8
0
 10
1.092849
 20
9.577477
 30
0.0
 11
1.092849
 21
9.605542
 31
0.0
  0
LINE
  5
87
  8
0
 10
1.092849
 20
9.605542
 30
0.0
 11
1.092849
 21
9.877477
 31
0.0
  0
LINE
  5
88
  8
0
 10
1.092849
 20
9.877477
 30
0.0
 11
1.092849
 21
10.0178
 31
0.0
  0
LINE
  5
89
  8
0
 10
1.092849
 20
10.0178
 30
0.0
 11
1.092849
 21
11.377477
 31
0.0
  0
LINE
  5
8A
  8
0
 10
1.092849
 20
11.377477
 30
0.0
 11
1.092849
 21
11.405542
 31
0.0
  0
LINE
  5
8B
  8
0
 10
1.092849
 20
11.405542
 30
0.0
 11
1.092849
 21
11.677477
 31
0.0
  0
LINE
  5
8C
  8
0
 10
1.092849
 20
11.677477
 30
0.0
 11
1.092849
 21
11.8178
 31
0.0
  0
LINE
  5
8D
  8
0
 10
1.092849
 20
11.8178
 30
0.0
 11
1.092849
 21
13.177477
 31
0.0
  0
LINE
  5
8E
  8
0
 10
1.092849
 20
13.177477
 30
0.0
 11
1.092849
 21
13.205542
 31
0.0
  0
LINE
  5
8F
  8
0
 10
1.092849
 20
13.205542
 30
0.0
 11
1.092849
 21
13.477477
 31
0.0
  0
LINE
  5
90
  8
0
 10
1.092849
 20
13.477477
 30
0.0
 11
1.092849
 21
13.6178
 31
0.0
  0
LINE
  5
91
  8
0
 10
1.092849
 20
13.6178
 30
0.0
 11
1.092849
 21
14.508842
 31
0.0
  0
LINE
  5
92
  8
0
 10
1.092849
 20
14.508842
 30
0.0
 11
1.092849
 21
14.536906
 31
0.0
  0
LINE
  5
93
  8
0
 10
1.592849
 20
0.504
 30
0.0
 11
1.592849
 21
0.775935
 31
0.0
  0
LINE
  5
94
  8
0
 10
1.592849
 20
0.504
 30
0.0
 11
1.592849
 21
0.775935
 31
0.0
  0
LINE
  5
95
  8
0
 10
1.592849
 20
0.775935
 30
0.0
 11
1.592849
 21
0.896706
 31
0.0
  0
LINE
  5
96
  8
0
 10
1.592849
 20
0.896706
 30
0.0
 11
1.592849
 21
2.256384
 31
0.0
  0
LINE
  5
97
  8
0
 10
1.592849
 20
2.256384
 30
0.0
 11
1.592849
 21
2.284448
 31
0.0
  0
LINE
  5
98
  8
0
 10
1.592849
 20
2.284448
 30
0.0
 11
1.592849
 21
2.556384
 31
0.0
  0
LINE
  5
99
  8
0
 10
1.592849
 20
2.556384
 30
0.0
 11
1.592849
 21
2.696706
 31
0.0
  0
LINE
  5
9A
  8
0
 10
1.592849
 20
2.696706
 30
0.0
 11
1.592849
 21
4.056384
 31
0.0
  0
LINE
  5
9B
  8
0
 10
1.592849
 20
4.056384
 30
0.0
 11
1.592849
 21
4.084448
 31
0.0
  0
LINE
  5
9C
  8
0
 10
1.592849
 20
4.084448
 30
0.0
 11
1.592849
 21
4.356384
 31
0.0
  0
LINE
  5
9D
  8
0
 10
1.592849
 20
4.356384
 30
0.0
 11
1.592849
 21
4.496706
 31
0.0
  0
LINE
  5
9E
  8
0
 10
1.592849
 20
4.496706
 30
0.0
 11
1.592849
 21
5.856384
 31
0.0
  0
LINE
  5
9F
  8
0
 10
1.592849
 20
5.856384
 30
0.0
 11
1.592849
 21
5.884448
 31
0.0
  0
LINE
  5
A0
  8
0
 10
1.592849
 20
5.884448
 30
0.0
 11
1.592849
 21
6.156384
 31
0.0
  0
LINE
  5
A1
  8
0
 10
1.592849
 20
6.156384
 30
0.0
 11
1.592849
 21
6.296706
 31
0.0
  0
LINE
  5
A2
  8
0
 10
1.592849
 20
6.296706
 30
0.0
 11
1.592849
 21
7.656384
 31
0.0
  0
LINE
  5
A3
  8
0
 10
1.592849
 20
7.656384
 30
0.0
 11
1.592849
 21
7.684448
 31
0.0
  0
LINE
  5
A4
  8
0
 10
1.592849
 20
7.684448
 30
0.0
 11
1.592849
 21
7.956384
 31
0.0
  0
LINE
  5
A5
  8
0
 10
1.592849
 20
7.956384
 30
0.0
 11
1.592849
 21
8.096706
 31
0.0
  0
LINE
  5
A6
  8
0
 10
1.592849
 20
8.096706
 30
0.0
 11
1.592849
 21
9.456384
 31
0.0
  0
LINE
  5
A7
  8
0
 10
1.592849
 20
9.456384
 30
0.0
 11
1.592849
 21
9.484448
 31
0.0
  0
LINE
  5
A8
  8
0
 10
1.592849
 20
9.484448
 30
0.0
 11
1.592849
 21
9.756384
 31
0.0
  0
LINE
  5
A9
  8
0
 10
1.592849
 20
9.756384
 30
0.0
 11
1.592849
 21
9.896706
 31
0.0
  0
LINE
  5
AA
  8
0
 10
1.592849
 20
9.896706
 30
0.0
 11
1.592849
 21
11.256384
 31
0.0
  0
LINE
  5
AB
  8
0
 10
1.592849
 20
11.256384
 30
0.0
 11
1.592849
 21
11.284448
 31
0.0
  0
LINE
  5
AC
  8
0
 10
1.592849
 20
11.284448
 30
0.0
 11
1.592849
 21
11.556384
 31
0.0
  0
LINE
  5
AD
  8
0
 10
1.592849
 20
11.556384
 30
0.0
 11
1.592849
 21
11.696706
 31
0.0
  0
LINE
  5
AE
  8
0
 10
1.592849
 20
11.696706
 30
0.0
 11
1.592849
 21
13.056384
 31
0.0
  0
LINE
  5
AF
  8
0
 10
1.592849
 20
13.056384
 30
0.0
 11
1.592849
 21
13.084448
 31
0.0
  0
LINE
  5
B0
  8
0
 10
1.592849
 20
13.084448
 30
0.0
 11
1.592849
 21
13.356384
 31
0.0
  0
LINE
  5
B1
  8
0
 10
1.592849
 20
13.356384
 30
0.0
 11
1.592849
 21
13.496706
 31
0.0
  0
LINE
  5
B2
  8
0
 10
1.592849
 20
13.496706
 30
0.0
 11
1.592849
 21
14.666935
 31
0.0
  0
LINE
  5
B3
  8
0
 10
1.592849
 20
14.666935
 30
0.0
 11
1.592849
 21
14.695
 31
0.0
  0
LINE
  5
B4
  8
0
 10
2.092849
 20
0.446
 30
0.0
 11
2.092849
 21
0.446906
 31
0.0
  0
LINE
  5
B5
  8
0
 10
2.092849
 20
0.446
 30
0.0
 11
2.092849
 21
0.446906
 31
0.0
  0
LINE
  5
B6
  8
0
 10
2.092849
 20
0.446906
 30
0.0
 11
2.092849
 21
0.717935
 31
0.0
  0
LINE
  5
B7
  8
0
 10
2.092849
 20
0.717935
 30
0.0
 11
2.092849
 21
0.848623
 31
0.0
  0
LINE
  5
B8
  8
0
 10
2.092849
 20
0.848623
 30
0.0
 11
2.092849
 21
2.209206
 31
0.0
  0
LINE
  5
B9
  8
0
 10
2.092849
 20
2.209206
 30
0.0
 11
2.092849
 21
2.237271
 31
0.0
  0
LINE
  5
BA
  8
0
 10
2.092849
 20
2.237271
 30
0.0
 11
2.092849
 21
2.5083
 31
0.0
  0
LINE
  5
BB
  8
0
 10
2.092849
 20
2.5083
 30
0.0
 11
2.092849
 21
2.648623
 31
0.0
  0
LINE
  5
BC
  8
0
 10
2.092849
 20
2.648623
 30
0.0
 11
2.092849
 21
4.009206
 31
0.0
  0
LINE
  5
BD
  8
0
 10
2.092849
 20
4.009206
 30
0.0
 11
2.092849
 21
4.037271
 31
0.0
  0
LINE
  5
BE
  8
0
 10
2.092849
 20
4.037271
 30
0.0
 11
2.092849
 21
4.3083
 31
0.0
  0
LINE
  5
BF
  8
0
 10
2.092849
 20
4.3083
 30
0.0
 11
2.092849
 21
4.448623
 31
0.0
  0
LINE
  5
C0
  8
0
 10
2.092849
 20
4.448623
 30
0.0
 11
2.092849
 21
5.809206
 31
0.0
  0
LINE
  5
C1
  8
0
 10
2.092849
 20
5.809206
 30
0.0
 11
2.092849
 21
5.837271
 31
0.0
  0
LINE
  5
C2
  8
0
 10
2.092849
 20
5.837271
 30
0.0
 11
2.092849
 21
6.1083
 31
0.0
  0
LINE
  5
C3
  8
0
 10
2.092849
 20
6.1083
 30
0.0
 11
2.092849
 21
6.248623
 31
0.0
  0
LINE
  5
C4
  8
0
 10
2.092849
 20
6.248623
 30
0.0
 11
2.092849
 21
7.609206
 31
0.0
  0
LINE
  5
C5
  8
0
 10
2.092849
 20
7.609206
 30
0.0
 11
2.092849
 21
7.637271
 31
0.0
  0
LINE
  5
C6
  8
0
 10
2.092849
 20
7.637271
 30
0.0
 11
2.092849
 21
7.9083
 31
0.0
  0
LINE
  5
C7
  8
0
 10
2.092849
 20
7.9083
 30
0.0
 11
2.092849
 21
8.048623
 31
0.0
  0
LINE
  5
C8
  8
0
 10
2.092849
 20
8.048623
 30
0.0
 11
2.092849
 21
9.409206
 31
0.0
  0
LINE
  5
C9
  8
0
 10
2.092849
 20
9.409206
 30
0.0
 11
2.092849
 21
9.437271
 31
0.0
  0
LINE
  5
CA
  8
0
 10
2.092849
 20
9.437271
 30
0.0
 11
2.092849
 21
9.7083
 31
0.0
  0
LINE
  5
CB
  8
0
 10
2.092849
 20
9.7083
 30
0.0
 11
2.092849
 21
9.848623
 31
0.0
  0
LINE
  5
CC
  8
0
 10
2.092849
 20
9.848623
 30
0.0
 11
2.092849
 21
11.209206
 31
0.0
  0
LINE
  5
CD
  8
0
 10
2.092849
 20
11.209206
 30
0.0
 11
2.092849
 21
11.237271
 31
0.0
  0
LINE
  5
CE
  8
0
 10
2.092849
 20
11.237271
 30
0.0
 11
2.092849
 21
11.5083
 31
0.0
  0
LINE
  5
CF
  8
0
 10
2.092849
 20
11.5083
 30
0.0
 11
2.092849
 21
11.648623
 31
0.0
  0
LINE
  5
D0
  8
0
 10
2.092849
 20
11.648623
 30
0.0
 11
2.092849
 21
13.009206
 31
0.0
  0
LINE
  5
D1
  8
0
 10
2.092849
 20
13.009206
 30
0.0
 11
2.092849
 21
13.037271
 31
0.0
  0
LINE
  5
D2
  8
0
 10
2.092849
 20
13.037271
 30
0.0
 11
2.092849
 21
13.3083
 31
0.0
  0
LINE
  5
D3
  8
0
 10
2.092849
 20
13.3083
 30
0.0
 11
2.092849
 21
13.448623
 31
0.0
  0
LINE
  5
D4
  8
0
 10
2.092849
 20
13.448623
 30
0.0
 11
2.092849
 21
14.714935
 31
0.0
  0
LINE
  5
D5
  8
0
 10
2.092849
 20
14.714935
 30
0.0
 11
2.092849
 21
14.743
 31
0.0
  0
LINE
  5
D6
  8
0
 10
2.092849
 20
14.743
 30
0.0
 11
2.092849
 21
14.744
 31
0.0
  0
LINE
  5
D7
  8
0
 10
2.592849
 20
0.437
 30
0.0
 11
2.592849
 21
0.708935
 31
0.0
  0
LINE
  5
D8
  8
0
 10
2.592849
 20
0.437
 30
0.0
 11
2.592849
 21
0.708935
 31
0.0
  0
LINE
  5
D9
  8
0
 10
2.592849
 20
0.708935
 30
0.0
 11
2.592849
 21
0.840371
 31
0.0
  0
LINE
  5
DA
  8
0
 10
2.592849
 20
0.840371
 30
0.0
 11
2.592849
 21
2.200048
 31
0.0
  0
LINE
  5
DB
  8
0
 10
2.592849
 20
2.200048
 30
0.0
 11
2.592849
 21
2.228019
 31
0.0
  0
LINE
  5
DC
  8
0
 10
2.592849
 20
2.228019
 30
0.0
 11
2.592849
 21
2.499955
 31
0.0
  0
LINE
  5
DD
  8
0
 10
2.592849
 20
2.499955
 30
0.0
 11
2.592849
 21
2.640371
 31
0.0
  0
LINE
  5
DE
  8
0
 10
2.592849
 20
2.640371
 30
0.0
 11
2.592849
 21
4.000048
 31
0.0
  0
LINE
  5
DF
  8
0
 10
2.592849
 20
4.000048
 30
0.0
 11
2.592849
 21
4.028019
 31
0.0
  0
LINE
  5
E0
  8
0
 10
2.592849
 20
4.028019
 30
0.0
 11
2.592849
 21
4.299955
 31
0.0
  0
LINE
  5
E1
  8
0
 10
2.592849
 20
4.299955
 30
0.0
 11
2.592849
 21
4.440371
 31
0.0
  0
LINE
  5
E2
  8
0
 10
2.592849
 20
4.440371
 30
0.0
 11
2.592849
 21
5.800048
 31
0.0
  0
LINE
  5
E3
  8
0
 10
2.592849
 20
5.800048
 30
0.0
 11
2.592849
 21
5.828019
 31
0.0
  0
LINE
  5
E4
  8
0
 10
2.592849
 20
5.828019
 30
0.0
 11
2.592849
 21
6.099955
 31
0.0
  0
LINE
  5
E5
  8
0
 10
2.592849
 20
6.099955
 30
0.0
 11
2.592849
 21
6.240371
 31
0.0
  0
LINE
  5
E6
  8
0
 10
2.592849
 20
6.240371
 30
0.0
 11
2.592849
 21
7.600048
 31
0.0
  0
LINE
  5
E7
  8
0
 10
2.592849
 20
7.600048
 30
0.0
 11
2.592849
 21
7.628019
 31
0.0
  0
LINE
  5
E8
  8
0
 10
2.592849
 20
7.628019
 30
0.0
 11
2.592849
 21
7.899955
 31
0.0
  0
LINE
  5
E9
  8
0
 10
2.592849
 20
7.899955
 30
0.0
 11
2.592849
 21
8.040371
 31
0.0
  0
LINE
  5
EA
  8
0
 10
2.592849
 20
8.040371
 30
0.0
 11
2.592849
 21
9.400048
 31
0.0
  0
LINE
  5
EB
  8
0
 10
2.592849
 20
9.400048
 30
0.0
 11
2.592849
 21
9.428019
 31
0.0
  0
LINE
  5
EC
  8
0
 10
2.592849
 20
9.428019
 30
0.0
 11
2.592849
 21
9.699955
 31
0.0
  0
LINE
  5
ED
  8
0
 10
2.592849
 20
9.699955
 30
0.0
 11
2.592849
 21
9.840371
 31
0.0
  0
LINE
  5
EE
  8
0
 10
2.592849
 20
9.840371
 30
0.0
 11
2.592849
 21
11.200048
 31
0.0
  0
LINE
  5
EF
  8
0
 10
2.592849
 20
11.200048
 30
0.0
 11
2.592849
 21
11.228019
 31
0.0
  0
LINE
  5
F0
  8
0
 10
2.592849
 20
11.228019
 30
0.0
 11
2.592849
 21
11.499955
 31
0.0
  0
LINE
  5
F1
  8
0
 10
2.592849
 20
11.499955
 30
0.0
 11
2.592849
 21
11.640371
 31
0.0
  0
LINE
  5
F2
  8
0
 10
2.592849
 20
11.640371
 30
0.0
 11
2.592849
 21
13.000048
 31
0.0
  0
LINE
  5
F3
  8
0
 10
2.592849
 20
13.000048
 30
0.0
 11
2.592849
 21
13.028019
 31
0.0
  0
LINE
  5
F4
  8
0
 10
2.592849
 20
13.028019
 30
0.0
 11
2.592849
 21
13.299955
 31
0.0
  0
LINE
  5
F5
  8
0
 10
2.592849
 20
13.299955
 30
0.0
 11
2.592849
 21
13.440371
 31
0.0
  0
LINE
  5
F6
  8
0
 10
2.592849
 20
13.440371
 30
0.0
 11
2.592849
 21
14.713935
 31
0.0
  0
LINE
  5
F7
  8
0
 10
2.592849
 20
14.713935
 30
0.0
 11
2.592849
 21
14.742
 31
0.0
  0
LINE
  5
F8
  8
0
 10
3.092849
 20
0.453
 30
0.0
 11
3.092849
 21
0.724935
 31
0.0
  0
LINE
  5
F9
  8
0
 10
3.092849
 20
0.453
 30
0.0
 11
3.092849
 21
0.724935
 31
0.0
  0
LINE
  5
FA
  8
0
 10
3.092849
 20
0.724935
 30
0.0
 11
3.092849
 21
0.85319
 31
0.0
  0
LINE
  5
FB
  8
0
 10
3.092849
 20
0.85319
 30
0.0
 11
3.092849
 21
2.212868
 31
0.0
  0
LINE
  5
FC
  8
0
 10
3.092849
 20
2.212868
 30
0.0
 11
3.092849
 21
2.240932
 31
0.0
  0
LINE
  5
FD
  8
0
 10
3.092849
 20
2.240932
 30
0.0
 11
3.092849
 21
2.512868
 31
0.0
  0
LINE
  5
FE
  8
0
 10
3.092849
 20
2.512868
 30
0.0
 11
3.092849
 21
2.65319
 31
0.0
  0
LINE
  5
FF
  8
0
 10
3.092849
 20
2.65319
 30
0.0
 11
3.092849
 21
4.012868
 31
0.0
  0
LINE
  5
100
  8
0
 10
3.092849
 20
4.012868
 30
0.0
 11
3.092849
 21
4.040932
 31
0.0
  0
LINE
  5
101
  8
0
 10
3.092849
 20
4.040932
 30
0.0
 11
3.092849
 21
4.312868
 31
0.0
  0
LINE
  5
102
  8
0
 10
3.092849
 20
4.312868
 30
0.0
 11
3.092849
 21
4.45319
 31
0.0
  0
LINE
  5
103
  8
0
 10
3.092849
 20
4.45319
 30
0.0
 11
3.092849
 21
5.812868
 31
0.0
  0
LINE
  5
104
  8
0
 10
3.092849
 20
5.812868
 30
0.0
 11
3.092849
 21
5.840932
 31
0.0
  0
LINE
  5
105
  8
0
 10
3.092849
 20
5.840932
 30
0.0
 11
3.092849
 21
6.112868
 31
0.0
  0
LINE
  5
106
  8
0
 10
3.092849
 20
6.112868
 30
0.0
 11
3.092849
 21
6.25319
 31
0.0
  0
LINE
  5
107
  8
0
 10
3.092849
 20
6.25319
 30
0.0
 11
3.092849
 21
7.612868
 31
0.0
  0
LINE
  5
108
  8
0
 10
3.092849
 20
7.612868
 30
0.0
 11
3.092849
 21
7.640932
 31
0.0
  0
LINE
  5
109
  8
0
 10
3.092849
 20
7.640932
 30
0.0
 11
3.092849
 21
7.912868
 31
0.0
  0
LINE
  5
10A
  8
0
 10
3.092849
 20
7.912868
 30
0.0
 11
3.092849
 21
8.05319
 31
0.0
  0
LINE
  5
10B
  8
0
 10
3.092849
 20
8.05319
 30
0.0
 11
3.092849
 21
9.412868
 31
0.0
  0
LINE
  5
10C
  8
0
 10
3.092849
 20
9.412868
 30
0.0
 11
3.092849
 21
9.440932
 31
0.0
  0
LINE
  5
10D
  8
0
 10
3.092849
 20
9.440932
 30
0.0
 11
3.092849
 21
9.712868
 31
0.0
  0
LINE
  5
10E
  8
0
 10
3.092849
 20
9.712868
 30
0.0
 11
3.092849
 21
9.85319
 31
0.0
  0
LINE
  5
10F
  8
0
 10
3.092849
 20
9.85319
 30
0.0
 11
3.092849
 21
11.212868
 31
0.0
  0
LINE
  5
110
  8
0
 10
3.092849
 20
11.212868
 30
0.0
 11
3.092849
 21
11.240932
 31
0.0
  0
LINE
  5
111
  8
0
 10
3.092849
 20
11.240932
 30
0.0
 11
3.092849
 21
11.512868
 31
0.0
  0
LINE
  5
112
  8
0
 10
3.092849
 20
11.512868
 30
0.0
 11
3.092849
 21
11.65319
 31
0.0
  0
LINE
  5
113
  8
0
 10
3.092849
 20
11.65319
 30
0.0
 11
3.092849
 21
13.012868
 31
0.0
  0
LINE
  5
114
  8
0
 10
3.092849
 20
13.012868
 30
0.0
 11
3.092849
 21
13.040932
 31
0.0
  0
LINE
  5
115
  8
0
 10
3.092849
 20
13.040932
 30
0.0
 11
3.092849
 21
13.312868
 31
0.0
  0
LINE
  5
116
  8
0
 10
3.092849
 20
13.312868
 30
0.0
 11
3.092849
 21
13.45319
 31
0.0
  0
LINE
  5
117
  8
0
 10
3.092849
 20
13.45319
 30
0.0
 11
3.092849
 21
14.695935
 31
0.0
  0
LINE
  5
118
  8
0
 10
3.092849
 20
14.695935
 30
0.0
 11
3.092849
 21
14.724
 31
0.0
  0
LINE
  5
119
  8
0
 10
3.592849
 20
0.469
 30
0.0
 11
3.592849
 21
0.740935
 31
0.0
  0
LINE
  5
11A
  8
0
 10
3.592849
 20
0.469
 30
0.0
 11
3.592849
 21
0.740935
 31
0.0
  0
LINE
  5
11B
  8
0
 10
3.592849
 20
0.740935
 30
0.0
 11
3.592849
 21
0.866103
 31
0.0
  0
LINE
  5
11C
  8
0
 10
3.592849
 20
0.866103
 30
0.0
 11
3.592849
 21
2.225781
 31
0.0
  0
LINE
  5
11D
  8
0
 10
3.592849
 20
2.225781
 30
0.0
 11
3.592849
 21
2.253845
 31
0.0
  0
LINE
  5
11E
  8
0
 10
3.592849
 20
2.253845
 30
0.0
 11
3.592849
 21
2.525781
 31
0.0
  0
LINE
  5
11F
  8
0
 10
3.592849
 20
2.525781
 30
0.0
 11
3.592849
 21
2.666103
 31
0.0
  0
LINE
  5
120
  8
0
 10
3.592849
 20
2.666103
 30
0.0
 11
3.592849
 21
4.025781
 31
0.0
  0
LINE
  5
121
  8
0
 10
3.592849
 20
4.025781
 30
0.0
 11
3.592849
 21
4.053845
 31
0.0
  0
LINE
  5
122
  8
0
 10
3.592849
 20
4.053845
 30
0.0
 11
3.592849
 21
4.325781
 31
0.0
  0
LINE
  5
123
  8
0
 10
3.592849
 20
4.325781
 30
0.0
 11
3.592849
 21
4.466103
 31
0.0
  0
LINE
  5
124
  8
0
 10
3.592849
 20
4.466103
 30
0.0
 11
3.592849
 21
5.825781
 31
0.0
  0
LINE
  5
125
  8
0
 10
3.592849
 20
5.825781
 30
0.0
 11
3.592849
 21
5.853845
 31
0.0
  0
LINE
  5
126
  8
0
 10
3.592849
 20
5.853845
 30
0.0
 11
3.592849
 21
6.125781
 31
0.0
  0
LINE
  5
127
  8
0
 10
3.592849
 20
6.125781
 30
0.0
 11
3.592849
 21
6.266103
 31
0.0
  0
LINE
  5
128
  8
0
 10
3.592849
 20
6.266103
 30
0.0
 11
3.592849
 21
7.625781
 31
0.0
  0
LINE
  5
129
  8
0
 10
3.592849
 20
7.625781
 30
0.0
 11
3.592849
 21
7.653845
 31
0.0
  0
LINE
  5
12A
  8
0
 10
3.592849
 20
7.653845
 30
0.0
 11
3.592849
 21
7.925781
 31
0.0
  0
LINE
  5
12B
  8
0
 10
3.592849
 20
7.925781
 30
0.0
 11
3.592849
 21
8.066103
 31
0.0
  0
LINE
  5
12C
  8
0
 10
3.592849
 20
8.066103
 30
0.0
 11
3.592849
 21
9.425781
 31
0.0
  0
LINE
  5
12D
  8
0
 10
3.592849
 20
9.425781
 30
0.0
 11
3.592849
 21
9.453845
 31
0.0
  0
LINE
  5
12E
  8
0
 10
3.592849
 20
9.453845
 30
0.0
 11
3.592849
 21
9.725781
 31
0.0
  0
LINE
  5
12F
  8
0
 10
3.592849
 20
9.725781
 30
0.0
 11
3.592849
 21
9.866103
 31
0.0
  0
LINE
  5
130
  8
0
 10
3.592849
 20
9.866103
 30
0.0
 11
3.592849
 21
11.225781
 31
0.0
  0
LINE
  5
131
  8
0
 10
3.592849
 20
11.225781
 30
0.0
 11
3.592849
 21
11.253845
 31
0.0
  0
LINE
  5
132
  8
0
 10
3.592849
 20
11.253845
 30
0.0
 11
3.592849
 21
11.525781
 31
0.0
  0
LINE
  5
133
  8
0
 10
3.592849
 20
11.525781
 30
0.0
 11
3.592849
 21
11.666103
 31
0.0
  0
LINE
  5
134
  8
0
 10
3.592849
 20
11.666103
 30
0.0
 11
3.592849
 21
13.025781
 31
0.0
  0
LINE
  5
135
  8
0
 10
3.592849
 20
13.025781
 30
0.0
 11
3.592849
 21
13.053845
 31
0.0
  0
LINE
  5
136
  8
0
 10
3.592849
 20
13.053845
 30
0.0
 11
3.592849
 21
13.325781
 31
0.0
  0
LINE
  5
137
  8
0
 10
3.592849
 20
13.325781
 30
0.0
 11
3.592849
 21
13.466103
 31
0.0
  0
LINE
  5
138
  8
0
 10
3.592849
 20
13.466103
 30
0.0
 11
3.592849
 21
14.678935
 31
0.0
  0
LINE
  5
139
  8
0
 10
3.592849
 20
14.678935
 30
0.0
 11
3.592849
 21
14.707
 31
0.0
  0
LINE
  5
13A
  8
0
 10
4.092849
 20
0.484
 30
0.0
 11
4.092849
 21
0.755935
 31
0.0
  0
LINE
  5
13B
  8
0
 10
4.092849
 20
0.484
 30
0.0
 11
4.092849
 21
0.755935
 31
0.0
  0
LINE
  5
13C
  8
0
 10
4.092849
 20
0.755935
 30
0.0
 11
4.092849
 21
0.878016
 31
0.0
  0
LINE
  5
13D
  8
0
 10
4.092849
 20
0.878016
 30
0.0
 11
4.092849
 21
2.2386
 31
0.0
  0
LINE
  5
13E
  8
0
 10
4.092849
 20
2.2386
 30
0.0
 11
4.092849
 21
2.266665
 31
0.0
  0
LINE
  5
13F
  8
0
 10
4.092849
 20
2.266665
 30
0.0
 11
4.092849
 21
2.537694
 31
0.0
  0
LINE
  5
140
  8
0
 10
4.092849
 20
2.537694
 30
0.0
 11
4.092849
 21
2.678016
 31
0.0
  0
LINE
  5
141
  8
0
 10
4.092849
 20
2.678016
 30
0.0
 11
4.092849
 21
4.0386
 31
0.0
  0
LINE
  5
142
  8
0
 10
4.092849
 20
4.0386
 30
0.0
 11
4.092849
 21
4.066665
 31
0.0
  0
LINE
  5
143
  8
0
 10
4.092849
 20
4.066665
 30
0.0
 11
4.092849
 21
4.337694
 31
0.0
  0
LINE
  5
144
  8
0
 10
4.092849
 20
4.337694
 30
0.0
 11
4.092849
 21
4.478016
 31
0.0
  0
LINE
  5
145
  8
0
 10
4.092849
 20
4.478016
 30
0.0
 11
4.092849
 21
5.8386
 31
0.0
  0
LINE
  5
146
  8
0
 10
4.092849
 20
5.8386
 30
0.0
 11
4.092849
 21
5.866665
 31
0.0
  0
LINE
  5
147
  8
0
 10
4.092849
 20
5.866665
 30
0.0
 11
4.092849
 21
6.137694
 31
0.0
  0
LINE
  5
148
  8
0
 10
4.092849
 20
6.137694
 30
0.0
 11
4.092849
 21
6.278016
 31
0.0
  0
LINE
  5
149
  8
0
 10
4.092849
 20
6.278016
 30
0.0
 11
4.092849
 21
7.6386
 31
0.0
  0
LINE
  5
14A
  8
0
 10
4.092849
 20
7.6386
 30
0.0
 11
4.092849
 21
7.666665
 31
0.0
  0
LINE
  5
14B
  8
0
 10
4.092849
 20
7.666665
 30
0.0
 11
4.092849
 21
7.937694
 31
0.0
  0
LINE
  5
14C
  8
0
 10
4.092849
 20
7.937694
 30
0.0
 11
4.092849
 21
8.078016
 31
0.0
  0
LINE
  5
14D
  8
0
 10
4.092849
 20
8.078016
 30
0.0
 11
4.092849
 21
9.4386
 31
0.0
  0
LINE
  5
14E
  8
0
 10
4.092849
 20
9.4386
 30
0.0
 11
4.092849
 21
9.466665
 31
0.0
  0
LINE
  5
14F
  8
0
 10
4.092849
 20
9.466665
 30
0.0
 11
4.092849
 21
9.737694
 31
0.0
  0
LINE
  5
150
  8
0
 10
4.092849
 20
9.737694
 30
0.0
 11
4.092849
 21
9.878016
 31
0.0
  0
LINE
  5
151
  8
0
 10
4.092849
 20
9.878016
 30
0.0
 11
4.092849
 21
11.2386
 31
0.0
  0
LINE
  5
152
  8
0
 10
4.092849
 20
11.2386
 30
0.0
 11
4.092849
 21
11.266665
 31
0.0
  0
LINE
  5
153
  8
0
 10
4.092849
 20
11.266665
 30
0.0
 11
4.092849
 21
11.537694
 31
0.0
  0
LINE
  5
154
  8
0
 10
4.092849
 20
11.537694
 30
0.0
 11
4.092849
 21
11.678016
 31
0.0
  0
LINE
  5
155
  8
0
 10
4.092849
 20
11.678016
 30
0.0
 11
4.092849
 21
13.0386
 31
0.0
  0
LINE
  5
156
  8
0
 10
4.092849
 20
13.0386
 30
0.0
 11
4.092849
 21
13.066665
 31
0.0
  0
LINE
  5
157
  8
0
 10
4.092849
 20
13.066665
 30
0.0
 11
4.092849
 21
13.337694
 31
0.0
  0
LINE
  5
158
  8
0
 10
4.092849
 20
13.337694
 30
0.0
 11
4.092849
 21
13.478016
 31
0.0
  0
LINE
  5
159
  8
0
 10
4.092849
 20
13.478016
 30
0.0
 11
4.092849
 21
14.661842
 31
0.0
  0
LINE
  5
15A
  8
0
 10
4.092849
 20
14.661842
 30
0.0
 11
4.092849
 21
14.689906
 31
0.0
  0
LINE
  5
15B
  8
0
 10
4.592849
 20
0.5
 30
0.0
 11
4.592849
 21
0.771935
 31
0.0
  0
LINE
  5
15C
  8
0
 10
4.592849
 20
0.5
 30
0.0
 11
4.592849
 21
0.771935
 31
0.0
  0
LINE
  5
15D
  8
0
 10
4.592849
 20
0.771935
 30
0.0
 11
4.592849
 21
0.890929
 31
0.0
  0
LINE
  5
15E
  8
0
 10
4.592849
 20
0.890929
 30
0.0
 11
4.592849
 21
2.250606
 31
0.0
  0
LINE
  5
15F
  8
0
 10
4.592849
 20
2.250606
 30
0.0
 11
4.592849
 21
2.278671
 31
0.0
  0
LINE
  5
160
  8
0
 10
4.592849
 20
2.278671
 30
0.0
 11
4.592849
 21
2.550606
 31
0.0
  0
LINE
  5
161
  8
0
 10
4.592849
 20
2.550606
 30
0.0
 11
4.592849
 21
2.690929
 31
0.0
  0
LINE
  5
162
  8
0
 10
4.592849
 20
2.690929
 30
0.0
 11
4.592849
 21
4.050606
 31
0.0
  0
LINE
  5
163
  8
0
 10
4.592849
 20
4.050606
 30
0.0
 11
4.592849
 21
4.078671
 31
0.0
  0
LINE
  5
164
  8
0
 10
4.592849
 20
4.078671
 30
0.0
 11
4.592849
 21
4.350606
 31
0.0
  0
LINE
  5
165
  8
0
 10
4.592849
 20
4.350606
 30
0.0
 11
4.592849
 21
4.490929
 31
0.0
  0
LINE
  5
166
  8
0
 10
4.592849
 20
4.490929
 30
0.0
 11
4.592849
 21
5.850606
 31
0.0
  0
LINE
  5
167
  8
0
 10
4.592849
 20
5.850606
 30
0.0
 11
4.592849
 21
5.878671
 31
0.0
  0
LINE
  5
168
  8
0
 10
4.592849
 20
5.878671
 30
0.0
 11
4.592849
 21
6.150606
 31
0.0
  0
LINE
  5
169
  8
0
 10
4.592849
 20
6.150606
 30
0.0
 11
4.592849
 21
6.290929
 31
0.0
  0
LINE
  5
16A
  8
0
 10
4.592849
 20
6.290929
 30
0.0
 11
4.592849
 21
7.650606
 31
0.0
  0
LINE
  5
16B
  8
0
 10
4.592849
 20
7.650606
 30
0.0
 11
4.592849
 21
7.678671
 31
0.0
  0
LINE
  5
16C
  8
0
 10
4.592849
 20
7.678671
 30
0.0
 11
4.592849
 21
7.950606
 31
0.0
  0
LINE
  5
16D
  8
0
 10
4.592849
 20
7.950606
 30
0.0
 11
4.592849
 21
8.090929
 31
0.0
  0
LINE
  5
16E
  8
0
 10
4.592849
 20
8.090929
 30
0.0
 11
4.592849
 21
9.450606
 31
0.0
  0
LINE
  5
16F
  8
0
 10
4.592849
 20
9.450606
 30
0.0
 11
4.592849
 21
9.478671
 31
0.0
  0
LINE
  5
170
  8
0
 10
4.592849
 20
9.478671
 30
0.0
 11
4.592849
 21
9.750606
 31
0.0
  0
LINE
  5
171
  8
0
 10
4.592849
 20
9.750606
 30
0.0
 11
4.592849
 21
9.890929
 31
0.0
  0
LINE
  5
172
  8
0
 10
4.592849
 20
9.890929
 30
0.0
 11
4.592849
 21
11.250606
 31
0.0
  0
LINE
  5
173
  8
0
 10
4.592849
 20
11.250606
 30
0.0
 11
4.592849
 21
11.278671
 31
0.0
  0
LINE
  5
174
  8
0
 10
4.592849
 20
11.278671
 30
0.0
 11
4.592849
 21
11.550606
 31
0.0
  0
LINE
  5
175
  8
0
 10
4.592849
 20
11.550606
 30
0.0
 11
4.592849
 21
11.690929
 31
0.0
  0
LINE
  5
176
  8
0
 10
4.592849
 20
11.690929
 30
0.0
 11
4.592849
 21
13.050606
 31
0.0
  0
LINE
  5
177
  8
0
 10
4.592849
 20
13.050606
 30
0.0
 11
4.592849
 21
13.078671
 31
0.0
  0
LINE
  5
178
  8
0
 10
4.592849
 20
13.078671
 30
0.0
 11
4.592849
 21
13.350606
 31
0.0
  0
LINE
  5
179
  8
0
 10
4.592849
 20
13.350606
 30
0.0
 11
4.592849
 21
13.490929
 31
0.0
  0
LINE
  5
17A
  8
0
 10
4.592849
 20
13.490929
 30
0.0
 11
4.592849
 21
14.643935
 31
0.0
  0
LINE
  5
17B
  8
0
 10
4.592849
 20
14.643935
 30
0.0
 11
4.592849
 21
14.672
 31
0.0
  0
LINE
  5
17C
  8
0
 10
5.092849
 20
0.516
 30
0.0
 11
5.092849
 21
0.787935
 31
0.0
  0
LINE
  5
17D
  8
0
 10
5.092849
 20
0.516
 30
0.0
 11
5.092849
 21
0.787935
 31
0.0
  0
LINE
  5
17E
  8
0
 10
5.092849
 20
0.787935
 30
0.0
 11
5.092849
 21
0.903842
 31
0.0
  0
LINE
  5
17F
  8
0
 10
5.092849
 20
0.903842
 30
0.0
 11
5.092849
 21
2.263519
 31
0.0
  0
LINE
  5
180
  8
0
 10
5.092849
 20
2.263519
 30
0.0
 11
5.092849
 21
2.291584
 31
0.0
  0
LINE
  5
181
  8
0
 10
5.092849
 20
2.291584
 30
0.0
 11
5.092849
 21
2.563519
 31
0.0
  0
LINE
  5
182
  8
0
 10
5.092849
 20
2.563519
 30
0.0
 11
5.092849
 21
2.703842
 31
0.0
  0
LINE
  5
183
  8
0
 10
5.092849
 20
2.703842
 30
0.0
 11
5.092849
 21
4.063519
 31
0.0
  0
LINE
  5
184
  8
0
 10
5.092849
 20
4.063519
 30
0.0
 11
5.092849
 21
4.091584
 31
0.0
  0
LINE
  5
185
  8
0
 10
5.092849
 20
4.091584
 30
0.0
 11
5.092849
 21
4.363519
 31
0.0
  0
LINE
  5
186
  8
0
 10
5.092849
 20
4.363519
 30
0.0
 11
5.092849
 21
4.503842
 31
0.0
  0
LINE
  5
187
  8
0
 10
5.092849
 20
4.503842
 30
0.0
 11
5.092849
 21
5.863519
 31
0.0
  0
LINE
  5
188
  8
0
 10
5.092849
 20
5.863519
 30
0.0
 11
5.092849
 21
5.891584
 31
0.0
  0
LINE
  5
189
  8
0
 10
5.092849
 20
5.891584
 30
0.0
 11
5.092849
 21
6.163519
 31
0.0
  0
LINE
  5
18A
  8
0
 10
5.092849
 20
6.163519
 30
0.0
 11
5.092849
 21
6.303842
 31
0.0
  0
LINE
  5
18B
  8
0
 10
5.092849
 20
6.303842
 30
0.0
 11
5.092849
 21
7.663519
 31
0.0
  0
LINE
  5
18C
  8
0
 10
5.092849
 20
7.663519
 30
0.0
 11
5.092849
 21
7.691584
 31
0.0
  0
LINE
  5
18D
  8
0
 10
5.092849
 20
7.691584
 30
0.0
 11
5.092849
 21
7.963519
 31
0.0
  0
LINE
  5
18E
  8
0
 10
5.092849
 20
7.963519
 30
0.0
 11
5.092849
 21
8.103842
 31
0.0
  0
LINE
  5
18F
  8
0
 10
5.092849
 20
8.103842
 30
0.0
 11
5.092849
 21
9.463519
 31
0.0
  0
LINE
  5
190
  8
0
 10
5.092849
 20
9.463519
 30
0.0
 11
5.092849
 21
9.491584
 31
0.0
  0
LINE
  5
191
  8
0
 10
5.092849
 20
9.491584
 30
0.0
 11
5.092849
 21
9.763519
 31
0.0
  0
LINE
  5
192
  8
0
 10
5.092849
 20
9.763519
 30
0.0
 11
5.092849
 21
9.903842
 31
0.0
  0
LINE
  5
193
  8
0
 10
5.092849
 20
9.903842
 30
0.0
 11
5.092849
 21
11.263519
 31
0.0
  0
LINE
  5
194
  8
0
 10
5.092849
 20
11.263519
 30
0.0
 11
5.092849
 21
11.291584
 31
0.0
  0
LINE
  5
195
  8
0
 10
5.092849
 20
11.291584
 30
0.0
 11
5.092849
 21
11.563519
 31
0.0
  0
LINE
  5
196
  8
0
 10
5.092849
 20
11.563519
 30
0.0
 11
5.092849
 21
11.703842
 31
0.0
  0
LINE
  5
197
  8
0
 10
5.092849
 20
11.703842
 30
0.0
 11
5.092849
 21
13.063519
 31
0.0
  0
LINE
  5
198
  8
0
 10
5.092849
 20
13.063519
 30
0.0
 11
5.092849
 21
13.091584
 31
0.0
  0
LINE
  5
199
  8
0
 10
5.092849
 20
13.091584
 30
0.0
 11
5.092849
 21
13.363519
 31
0.0
  0
LINE
  5
19A
  8
0
 10
5.092849
 20
13.363519
 30
0.0
 11
5.092849
 21
13.503842
 31
0.0
  0
LINE
  5
19B
  8
0
 10
5.092849
 20
13.503842
 30
0.0
 11
5.092849
 21
14.626935
 31
0.0
  0
LINE
  5
19C
  8
0
 10
5.092849
 20
14.626935
 30
0.0
 11
5.092849
 21
14.655
 31
0.0
  0
LINE
  5
19D
  8
0
 10
5.592849
 20
0.532
 30
0.0
 11
5.592849
 21
0.803935
 31
0.0
  0
LINE
  5
19E
  8
0
 10
5.592849
 20
0.532
 30
0.0
 11
5.592849
 21
0.803935
 31
0.0
  0
LINE
  5
19F
  8
0
 10
5.592849
 20
0.803935
 30
0.0
 11
5.592849
 21
0.916661
 31
0.0
  0
LINE
  5
1A0
  8
0
 10
5.592849
 20
0.916661
 30
0.0
 11
5.592849
 21
2.276339
 31
0.0
  0
LINE
  5
1A1
  8
0
 10
5.592849
 20
2.276339
 30
0.0
 11
5.592849
 21
2.304403
 31
0.0
  0
LINE
  5
1A2
  8
0
 10
5.592849
 20
2.304403
 30
0.0
 11
5.592849
 21
2.576339
 31
0.0
  0
LINE
  5
1A3
  8
0
 10
5.592849
 20
2.576339
 30
0.0
 11
5.592849
 21
2.716661
 31
0.0
  0
LINE
  5
1A4
  8
0
 10
5.592849
 20
2.716661
 30
0.0
 11
5.592849
 21
4.076339
 31
0.0
  0
LINE
  5
1A5
  8
0
 10
5.592849
 20
4.076339
 30
0.0
 11
5.592849
 21
4.104403
 31
0.0
  0
LINE
  5
1A6
  8
0
 10
5.592849
 20
4.104403
 30
0.0
 11
5.592849
 21
4.376339
 31
0.0
  0
LINE
  5
1A7
  8
0
 10
5.592849
 20
4.376339
 30
0.0
 11
5.592849
 21
4.516661
 31
0.0
  0
LINE
  5
1A8
  8
0
 10
5.592849
 20
4.516661
 30
0.0
 11
5.592849
 21
5.876339
 31
0.0
  0
LINE
  5
1A9
  8
0
 10
5.592849
 20
5.876339
 30
0.0
 11
5.592849
 21
5.904403
 31
0.0
  0
LINE
  5
1AA
  8
0
 10
5.592849
 20
5.904403
 30
0.0
 11
5.592849
 21
6.176339
 31
0.0
  0
LINE
  5
1AB
  8
0
 10
5.592849
 20
6.176339
 30
0.0
 11
5.592849
 21
6.316661
 31
0.0
  0
LINE
  5
1AC
  8
0
 10
5.592849
 20
6.316661
 30
0.0
 11
5.592849
 21
7.676339
 31
0.0
  0
LINE
  5
1AD
  8
0
 10
5.592849
 20
7.676339
 30
0.0
 11
5.592849
 21
7.704403
 31
0.0
  0
LINE
  5
1AE
  8
0
 10
5.592849
 20
7.704403
 30
0.0
 11
5.592849
 21
7.976339
 31
0.0
  0
LINE
  5
1AF
  8
0
 10
5.592849
 20
7.976339
 30
0.0
 11
5.592849
 21
8.116661
 31
0.0
  0
LINE
  5
1B0
  8
0
 10
5.592849
 20
8.116661
 30
0.0
 11
5.592849
 21
9.476339
 31
0.0
  0
LINE
  5
1B1
  8
0
 10
5.592849
 20
9.476339
 30
0.0
 11
5.592849
 21
9.504403
 31
0.0
  0
LINE
  5
1B2
  8
0
 10
5.592849
 20
9.504403
 30
0.0
 11
5.592849
 21
9.776339
 31
0.0
  0
LINE
  5
1B3
  8
0
 10
5.592849
 20
9.776339
 30
0.0
 11
5.592849
 21
9.916661
 31
0.0
  0
LINE
  5
1B4
  8
0
 10
5.592849
 20
9.916661
 30
0.0
 11
5.592849
 21
11.276339
 31
0.0
  0
LINE
  5
1B5
  8
0
 10
5.592849
 20
11.276339
 30
0.0
 11
5.592849
 21
11.304403
 31
0.0
  0
LINE
  5
1B6
  8
0
 10
5.592849
 20
11.304403
 30
0.0
 11
5.592849
 21
11.576339
 31
0.0
  0
LINE
  5
1B7
  8
0
 10
5.592849
 20
11.576339
 30
0.0
 11
5.592849
 21
11.716661
 31
0.0
  0
LINE
  5
1B8
  8
0
 10
5.592849
 20
11.716661
 30
0.0
 11
5.592849
 21
13.076339
 31
0.0
  0
LINE
  5
1B9
  8
0
 10
5.592849
 20
13.076339
 30
0.0
 11
5.592849
 21
13.104403
 31
0.0
  0
LINE
  5
1BA
  8
0
 10
5.592849
 20
13.104403
 30
0.0
 11
5.592849
 21
13.376339
 31
0.0
  0
LINE
  5
1BB
  8
0
 10
5.592849
 20
13.376339
 30
0.0
 11
5.592849
 21
13.516661
 31
0.0
  0
LINE
  5
1BC
  8
0
 10
5.592849
 20
13.516661
 30
0.0
 11
5.592849
 21
14.608935
 31
0.0
  0
LINE
  5
1BD
  8
0
 10
5.592849
 20
14.608935
 30
0.0
 11
5.592849
 21
14.637
 31
0.0
  0
LINE
  5
1BE
  8
0
 10
6.092849
 20
0.548
 30
0.0
 11
6.092849
 21
0.819935
 31
0.0
  0
LINE
  5
1BF
  8
0
 10
6.092849
 20
0.548
 30
0.0
 11
6.092849
 21
0.819935
 31
0.0
  0
LINE
  5
1C0
  8
0
 10
6.092849
 20
0.819935
 30
0.0
 11
6.092849
 21
0.930042
 31
0.0
  0
LINE
  5
1C1
  8
0
 10
6.092849
 20
0.930042
 30
0.0
 11
6.092849
 21
2.289719
 31
0.0
  0
LINE
  5
1C2
  8
0
 10
6.092849
 20
2.289719
 30
0.0
 11
6.092849
 21
2.317784
 31
0.0
  0
LINE
  5
1C3
  8
0
 10
6.092849
 20
2.317784
 30
0.0
 11
6.092849
 21
2.589719
 31
0.0
  0
LINE
  5
1C4
  8
0
 10
6.092849
 20
2.589719
 30
0.0
 11
6.092849
 21
2.730042
 31
0.0
  0
LINE
  5
1C5
  8
0
 10
6.092849
 20
2.730042
 30
0.0
 11
6.092849
 21
4.089719
 31
0.0
  0
LINE
  5
1C6
  8
0
 10
6.092849
 20
4.089719
 30
0.0
 11
6.092849
 21
4.117784
 31
0.0
  0
LINE
  5
1C7
  8
0
 10
6.092849
 20
4.117784
 30
0.0
 11
6.092849
 21
4.389719
 31
0.0
  0
LINE
  5
1C8
  8
0
 10
6.092849
 20
4.389719
 30
0.0
 11
6.092849
 21
4.530042
 31
0.0
  0
LINE
  5
1C9
  8
0
 10
6.092849
 20
4.530042
 30
0.0
 11
6.092849
 21
5.889719
 31
0.0
  0
LINE
  5
1CA
  8
0
 10
6.092849
 20
5.889719
 30
0.0
 11
6.092849
 21
5.917784
 31
0.0
  0
LINE
  5
1CB
  8
0
 10
6.092849
 20
5.917784
 30
0.0
 11
6.092849
 21
6.189719
 31
0.0
  0
LINE
  5
1CC
  8
0
 10
6.092849
 20
6.189719
 30
0.0
 11
6.092849
 21
6.330042
 31
0.0
  0
LINE
  5
1CD
  8
0
 10
6.092849
 20
6.330042
 30
0.0
 11
6.092849
 21
7.689719
 31
0.0
  0
LINE
  5
1CE
  8
0
 10
6.092849
 20
7.689719
 30
0.0
 11
6.092849
 21
7.717784
 31
0.0
  0
LINE
  5
1CF
  8
0
 10
6.092849
 20
7.717784
 30
0.0
 11
6.092849
 21
7.989719
 31
0.0
  0
LINE
  5
1D0
  8
0
 10
6.092849
 20
7.989719
 30
0.0
 11
6.092849
 21
8.130042
 31
0.0
  0
LINE
  5
1D1
  8
0
 10
6.092849
 20
8.130042
 30
0.0
 11
6.092849
 21
9.489719
 31
0.0
  0
LINE
  5
1D2
  8
0
 10
6.092849
 20
9.489719
 30
0.0
 11
6.092849
 21
9.517784
 31
0.0
  0
LINE
  5
1D3
  8
0
 10
6.092849
 20
9.517784
 30
0.0
 11
6.092849
 21
9.789719
 31
0.0
  0
LINE
  5
1D4
  8
0
 10
6.092849
 20
9.789719
 30
0.0
 11
6.092849
 21
9.930042
 31
0.0
  0
LINE
  5
1D5
  8
0
 10
6.092849
 20
9.930042
 30
0.0
 11
6.092849
 21
11.289719
 31
0.0
  0
LINE
  5
1D6
  8
0
 10
6.092849
 20
11.289719
 30
0.0
 11
6.092849
 21
11.317784
 31
0.0
  0
LINE
  5
1D7
  8
0
 10
6.092849
 20
11.317784
 30
0.0
 11
6.092849
 21
11.589719
 31
0.0
  0
LINE
  5
1D8
  8
0
 10
6.092849
 20
11.589719
 30
0.0
 11
6.092849
 21
11.730042
 31
0.0
  0
LINE
  5
1D9
  8
0
 10
6.092849
 20
11.730042
 30
0.0
 11
6.092849
 21
13.089719
 31
0.0
  0
LINE
  5
1DA
  8
0
 10
6.092849
 20
13.089719
 30
0.0
 11
6.092849
 21
13.117784
 31
0.0
  0
LINE
  5
1DB
  8
0
 10
6.092849
 20
13.117784
 30
0.0
 11
6.092849
 21
13.389719
 31
0.0
  0
LINE
  5
1DC
  8
0
 10
6.092849
 20
13.389719
 30
0.0
 11
6.092849
 21
13.530042
 31
0.0
  0
LINE
  5
1DD
  8
0
 10
6.092849
 20
13.530042
 30
0.0
 11
6.092849
 21
14.596935
 31
0.0
  0
LINE
  5
1DE
  8
0
 10
6.092849
 20
14.596935
 30
0.0
 11
6.092849
 21
14.625
 31
0.0
  0
LINE
  5
1DF
  8
0
 10
6.592849
 20
0.563
 30
0.0
 11
6.592849
 21
0.563906
 31
0.0
  0
LINE
  5
1E0
  8
0
 10
6.592849
 20
0.563
 30
0.0
 11
6.592849
 21
0.563906
 31
0.0
  0
LINE
  5
1E1
  8
0
 10
6.592849
 20
0.563906
 30
0.0
 11
6.592849
 21
0.834935
 31
0.0
  0
LINE
  5
1E2
  8
0
 10
6.592849
 20
0.834935
 30
0.0
 11
6.592849
 21
0.943732
 31
0.0
  0
LINE
  5
1E3
  8
0
 10
6.592849
 20
0.943732
 30
0.0
 11
6.592849
 21
2.304316
 31
0.0
  0
LINE
  5
1E4
  8
0
 10
6.592849
 20
2.304316
 30
0.0
 11
6.592849
 21
2.332381
 31
0.0
  0
LINE
  5
1E5
  8
0
 10
6.592849
 20
2.332381
 30
0.0
 11
6.592849
 21
2.60341
 31
0.0
  0
LINE
  5
1E6
  8
0
 10
6.592849
 20
2.60341
 30
0.0
 11
6.592849
 21
2.743732
 31
0.0
  0
LINE
  5
1E7
  8
0
 10
6.592849
 20
2.743732
 30
0.0
 11
6.592849
 21
4.104316
 31
0.0
  0
LINE
  5
1E8
  8
0
 10
6.592849
 20
4.104316
 30
0.0
 11
6.592849
 21
4.132381
 31
0.0
  0
LINE
  5
1E9
  8
0
 10
6.592849
 20
4.132381
 30
0.0
 11
6.592849
 21
4.40341
 31
0.0
  0
LINE
  5
1EA
  8
0
 10
6.592849
 20
4.40341
 30
0.0
 11
6.592849
 21
4.543732
 31
0.0
  0
LINE
  5
1EB
  8
0
 10
6.592849
 20
4.543732
 30
0.0
 11
6.592849
 21
5.904316
 31
0.0
  0
LINE
  5
1EC
  8
0
 10
6.592849
 20
5.904316
 30
0.0
 11
6.592849
 21
5.932381
 31
0.0
  0
LINE
  5
1ED
  8
0
 10
6.592849
 20
5.932381
 30
0.0
 11
6.592849
 21
6.20341
 31
0.0
  0
LINE
  5
1EE
  8
0
 10
6.592849
 20
6.20341
 30
0.0
 11
6.592849
 21
6.343732
 31
0.0
  0
LINE
  5
1EF
  8
0
 10
6.592849
 20
6.343732
 30
0.0
 11
6.592849
 21
7.704316
 31
0.0
  0
LINE
  5
1F0
  8
0
 10
6.592849
 20
7.704316
 30
0.0
 11
6.592849
 21
7.732381
 31
0.0
  0
LINE
  5
1F1
  8
0
 10
6.592849
 20
7.732381
 30
0.0
 11
6.592849
 21
8.00341
 31
0.0
  0
LINE
  5
1F2
  8
0
 10
6.592849
 20
8.00341
 30
0.0
 11
6.592849
 21
8.143732
 31
0.0
  0
LINE
  5
1F3
  8
0
 10
6.592849
 20
8.143732
 30
0.0
 11
6.592849
 21
9.504316
 31
0.0
  0
LINE
  5
1F4
  8
0
 10
6.592849
 20
9.504316
 30
0.0
 11
6.592849
 21
9.532381
 31
0.0
  0
LINE
  5
1F5
  8
0
 10
6.592849
 20
9.532381
 30
0.0
 11
6.592849
 21
9.80341
 31
0.0
  0
LINE
  5
1F6
  8
0
 10
6.592849
 20
9.80341
 30
0.0
 11
6.592849
 21
9.943732
 31
0.0
  0
LINE
  5
1F7
  8
0
 10
6.592849
 20
9.943732
 30
0.0
 11
6.592849
 21
11.304316
 31
0.0
  0
LINE
  5
1F8
  8
0
 10
6.592849
 20
11.304316
 30
0.0
 11
6.592849
 21
11.332381
 31
0.0
  0
LINE
  5
1F9
  8
0
 10
6.592849
 20
11.332381
 30
0.0
 11
6.592849
 21
11.60341
 31
0.0
  0
LINE
  5
1FA
  8
0
 10
6.592849
 20
11.60341
 30
0.0
 11
6.592849
 21
11.743732
 31
0.0
  0
LINE
  5
1FB
  8
0
 10
6.592849
 20
11.743732
 30
0.0
 11
6.592849
 21
13.104316
 31
0.0
  0
LINE
  5
1FC
  8
0
 10
6.592849
 20
13.104316
 30
0.0
 11
6.592849
 21
13.132381
 31
0.0
  0
LINE
  5
1FD
  8
0
 10
6.592849
 20
13.132381
 30
0.0
 11
6.592849
 21
13.40341
 31
0.0
  0
LINE
  5
1FE
  8
0
 10
6.592849
 20
13.40341
 30
0.0
 11
6.592849
 21
13.543732
 31
0.0
  0
LINE
  5
1FF
  8
0
 10
6.592849
 20
13.543732
 30
0.0
 11
6.592849
 21
14.597935
 31
0.0
  0
LINE
  5
200
  8
0
 10
6.592849
 20
14.597935
 30
0.0
 11
6.592849
 21
14.626
 31
0.0
  0
LINE
  5
201
  8
0
 10
7.092849
 20
0.579
 30
0.0
 11
7.092849
 21
0.850935
 31
0.0
  0
LINE
  5
202
  8
0
 10
7.092849
 20
0.579
 30
0.0
 11
7.092849
 21
0.850935
 31
0.0
  0
LINE
  5
203
  8
0
 10
7.092849
 20
0.850935
 30
0.0
 11
7.092849
 21
0.958329
 31
0.0
  0
LINE
  5
204
  8
0
 10
7.092849
 20
0.958329
 30
0.0
 11
7.092849
 21
2.318006
 31
0.0
  0
LINE
  5
205
  8
0
 10
7.092849
 20
2.318006
 30
0.0
 11
7.092849
 21
2.346071
 31
0.0
  0
LINE
  5
206
  8
0
 10
7.092849
 20
2.346071
 30
0.0
 11
7.092849
 21
2.618006
 31
0.0
  0
LINE
  5
207
  8
0
 10
7.092849
 20
2.618006
 30
0.0
 11
7.092849
 21
2.758329
 31
0.0
  0
LINE
  5
208
  8
0
 10
7.092849
 20
2.758329
 30
0.0
 11
7.092849
 21
4.118006
 31
0.0
  0
LINE
  5
209
  8
0
 10
7.092849
 20
4.118006
 30
0.0
 11
7.092849
 21
4.146071
 31
0.0
  0
LINE
  5
20A
  8
0
 10
7.092849
 20
4.146071
 30
0.0
 11
7.092849
 21
4.418006
 31
0.0
  0
LINE
  5
20B
  8
0
 10
7.092849
 20
4.418006
 30
0.0
 11
7.092849
 21
4.558329
 31
0.0
  0
LINE
  5
20C
  8
0
 10
7.092849
 20
4.558329
 30
0.0
 11
7.092849
 21
5.918006
 31
0.0
  0
LINE
  5
20D
  8
0
 10
7.092849
 20
5.918006
 30
0.0
 11
7.092849
 21
5.946071
 31
0.0
  0
LINE
  5
20E
  8
0
 10
7.092849
 20
5.946071
 30
0.0
 11
7.092849
 21
6.218006
 31
0.0
  0
LINE
  5
20F
  8
0
 10
7.092849
 20
6.218006
 30
0.0
 11
7.092849
 21
6.358329
 31
0.0
  0
LINE
  5
210
  8
0
 10
7.092849
 20
6.358329
 30
0.0
 11
7.092849
 21
7.718006
 31
0.0
  0
LINE
  5
211
  8
0
 10
7.092849
 20
7.718006
 30
0.0
 11
7.092849
 21
7.746071
 31
0.0
  0
LINE
  5
212
  8
0
 10
7.092849
 20
7.746071
 30
0.0
 11
7.092849
 21
8.018006
 31
0.0
  0
LINE
  5
213
  8
0
 10
7.092849
 20
8.018006
 30
0.0
 11
7.092849
 21
8.158329
 31
0.0
  0
LINE
  5
214
  8
0
 10
7.092849
 20
8.158329
 30
0.0
 11
7.092849
 21
9.518006
 31
0.0
  0
LINE
  5
215
  8
0
 10
7.092849
 20
9.518006
 30
0.0
 11
7.092849
 21
9.546071
 31
0.0
  0
LINE
  5
216
  8
0
 10
7.092849
 20
9.546071
 30
0.0
 11
7.092849
 21
9.818006
 31
0.0
  0
LINE
  5
217
  8
0
 10
7.092849
 20
9.818006
 30
0.0
 11
7.092849
 21
9.958329
 31
0.0
  0
LINE
  5
218
  8
0
 10
7.092849
 20
9.958329
 30
0.0
 11
7.092849
 21
11.318006
 31
0.0
  0
LINE
  5
219
  8
0
 10
7.092849
 20
11.318006
 30
0.0
 11
7.092849
 21
11.346071
 31
0.0
  0
LINE
  5
21A
  8
0
 10
7.092849
 20
11.346071
 30
0.0
 11
7.092849
 21
11.618006
 31
0.0
  0
LINE
  5
21B
  8
0
 10
7.092849
 20
11.618006
 30
0.0
 11
7.092849
 21
11.758329
 31
0.0
  0
LINE
  5
21C
  8
0
 10
7.092849
 20
11.758329
 30
0.0
 11
7.092849
 21
13.118006
 31
0.0
  0
LINE
  5
21D
  8
0
 10
7.092849
 20
13.118006
 30
0.0
 11
7.092849
 21
13.146071
 31
0.0
  0
LINE
  5
21E
  8
0
 10
7.092849
 20
13.146071
 30
0.0
 11
7.092849
 21
13.418006
 31
0.0
  0
LINE
  5
21F
  8
0
 10
7.092849
 20
13.418006
 30
0.0
 11
7.092849
 21
13.558329
 31
0.0
  0
LINE
  5
220
  8
0
 10
7.092849
 20
13.558329
 30
0.0
 11
7.092849
 21
14.598935
 31
0.0
  0
LINE
  5
221
  8
0
 10
7.092849
 20
14.598935
 30
0.0
 11
7.092849
 21
14.627
 31
0.0
  0
LINE
  5
222
  8
0
 10
7.592849
 20
0.574
 30
0.0
 11
7.592849
 21
0.575
 31
0.0
  0
LINE
  5
223
  8
0
 10
7.592849
 20
0.574
 30
0.0
 11
7.592849
 21
0.575
 31
0.0
  0
LINE
  5
224
  8
0
 10
7.592849
 20
0.575
 30
0.0
 11
7.592849
 21
0.846935
 31
0.0
  0
LINE
  5
225
  8
0
 10
7.592849
 20
0.846935
 30
0.0
 11
7.592849
 21
0.954797
 31
0.0
  0
LINE
  5
226
  8
0
 10
7.592849
 20
0.954797
 30
0.0
 11
7.592849
 21
2.314474
 31
0.0
  0
LINE
  5
227
  8
0
 10
7.592849
 20
2.314474
 30
0.0
 11
7.592849
 21
2.342445
 31
0.0
  0
LINE
  5
228
  8
0
 10
7.592849
 20
2.342445
 30
0.0
 11
7.592849
 21
2.614381
 31
0.0
  0
LINE
  5
229
  8
0
 10
7.592849
 20
2.614381
 30
0.0
 11
7.592849
 21
2.754797
 31
0.0
  0
LINE
  5
22A
  8
0
 10
7.592849
 20
2.754797
 30
0.0
 11
7.592849
 21
4.114474
 31
0.0
  0
LINE
  5
22B
  8
0
 10
7.592849
 20
4.114474
 30
0.0
 11
7.592849
 21
4.142445
 31
0.0
  0
LINE
  5
22C
  8
0
 10
7.592849
 20
4.142445
 30
0.0
 11
7.592849
 21
4.414381
 31
0.0
  0
LINE
  5
22D
  8
0
 10
7.592849
 20
4.414381
 30
0.0
 11
7.592849
 21
4.554797
 31
0.0
  0
LINE
  5
22E
  8
0
 10
7.592849
 20
4.554797
 30
0.0
 11
7.592849
 21
5.914474
 31
0.0
  0
LINE
  5
22F
  8
0
 10
7.592849
 20
5.914474
 30
0.0
 11
7.592849
 21
5.942445
 31
0.0
  0
LINE
  5
230
  8
0
 10
7.592849
 20
5.942445
 30
0.0
 11
7.592849
 21
6.214381
 31
0.0
  0
LINE
  5
231
  8
0
 10
7.592849
 20
6.214381
 30
0.0
 11
7.592849
 21
6.354797
 31
0.0
  0
LINE
  5
232
  8
0
 10
7.592849
 20
6.354797
 30
0.0
 11
7.592849
 21
7.714474
 31
0.0
  0
LINE
  5
233
  8
0
 10
7.592849
 20
7.714474
 30
0.0
 11
7.592849
 21
7.742445
 31
0.0
  0
LINE
  5
234
  8
0
 10
7.592849
 20
7.742445
 30
0.0
 11
7.592849
 21
8.014381
 31
0.0
  0
LINE
  5
235
  8
0
 10
7.592849
 20
8.014381
 30
0.0
 11
7.592849
 21
8.154797
 31
0.0
  0
LINE
  5
236
  8
0
 10
7.592849
 20
8.154797
 30
0.0
 11
7.592849
 21
9.514474
 31
0.0
  0
LINE
  5
237
  8
0
 10
7.592849
 20
9.514474
 30
0.0
 11
7.592849
 21
9.542445
 31
0.0
  0
LINE
  5
238
  8
0
 10
7.592849
 20
9.542445
 30
0.0
 11
7.592849
 21
9.814381
 31
0.0
  0
LINE
  5
239
  8
0
 10
7.592849
 20
9.814381
 30
0.0
 11
7.592849
 21
9.954797
 31
0.0
  0
LINE
  5
23A
  8
0
 10
7.592849
 20
9.954797
 30
0.0
 11
7.592849
 21
11.314474
 31
0.0
  0
LINE
  5
23B
  8
0
 10
7.592849
 20
11.314474
 30
0.0
 11
7.592849
 21
11.342445
 31
0.0
  0
LINE
  5
23C
  8
0
 10
7.592849
 20
11.342445
 30
0.0
 11
7.592849
 21
11.614381
 31
0.0
  0
LINE
  5
23D
  8
0
 10
7.592849
 20
11.614381
 30
0.0
 11
7.592849
 21
11.754797
 31
0.0
  0
LINE
  5
23E
  8
0
 10
7.592849
 20
11.754797
 30
0.0
 11
7.592849
 21
13.114474
 31
0.0
  0
LINE
  5
23F
  8
0
 10
7.592849
 20
13.114474
 30
0.0
 11
7.592849
 21
13.142445
 31
0.0
  0
LINE
  5
240
  8
0
 10
7.592849
 20
13.142445
 30
0.0
 11
7.592849
 21
13.414381
 31
0.0
  0
LINE
  5
241
  8
0
 10
7.592849
 20
13.414381
 30
0.0
 11
7.592849
 21
13.554797
 31
0.0
  0
LINE
  5
242
  8
0
 10
7.592849
 20
13.554797
 30
0.0
 11
7.592849
 21
14.599935
 31
0.0
  0
LINE
  5
243
  8
0
 10
7.592849
 20
14.599935
 30
0.0
 11
7.592849
 21
14.628
 31
0.0
  0
LINE
  5
244
  8
0
 10
8.092849
 20
0.563
 30
0.0
 11
8.092849
 21
0.834935
 31
0.0
  0
LINE
  5
245
  8
0
 10
8.092849
 20
0.563
 30
0.0
 11
8.092849
 21
0.834935
 31
0.0
  0
LINE
  5
246
  8
0
 10
8.092849
 20
0.834935
 30
0.0
 11
8.092849
 21
0.943919
 31
0.0
  0
LINE
  5
247
  8
0
 10
8.092849
 20
0.943919
 30
0.0
 11
8.092849
 21
2.303597
 31
0.0
  0
LINE
  5
248
  8
0
 10
8.092849
 20
2.303597
 30
0.0
 11
8.092849
 21
2.331661
 31
0.0
  0
LINE
  5
249
  8
0
 10
8.092849
 20
2.331661
 30
0.0
 11
8.092849
 21
2.603597
 31
0.0
  0
LINE
  5
24A
  8
0
 10
8.092849
 20
2.603597
 30
0.0
 11
8.092849
 21
2.743919
 31
0.0
  0
LINE
  5
24B
  8
0
 10
8.092849
 20
2.743919
 30
0.0
 11
8.092849
 21
4.103597
 31
0.0
  0
LINE
  5
24C
  8
0
 10
8.092849
 20
4.103597
 30
0.0
 11
8.092849
 21
4.131661
 31
0.0
  0
LINE
  5
24D
  8
0
 10
8.092849
 20
4.131661
 30
0.0
 11
8.092849
 21
4.403597
 31
0.0
  0
LINE
  5
24E
  8
0
 10
8.092849
 20
4.403597
 30
0.0
 11
8.092849
 21
4.543919
 31
0.0
  0
LINE
  5
24F
  8
0
 10
8.092849
 20
4.543919
 30
0.0
 11
8.092849
 21
5.903597
 31
0.0
  0
LINE
  5
250
  8
0
 10
8.092849
 20
5.903597
 30
0.0
 11
8.092849
 21
5.931661
 31
0.0
  0
LINE
  5
251
  8
0
 10
8.092849
 20
5.931661
 30
0.0
 11
8.092849
 21
6.203597
 31
0.0
  0
LINE
  5
252
  8
0
 10
8.092849
 20
6.203597
 30
0.0
 11
8.092849
 21
6.343919
 31
0.0
  0
LINE
  5
253
  8
0
 10
8.092849
 20
6.343919
 30
0.0
 11
8.092849
 21
7.703597
 31
0.0
  0
LINE
  5
254
  8
0
 10
8.092849
 20
7.703597
 30
0.0
 11
8.092849
 21
7.731661
 31
0.0
  0
LINE
  5
255
  8
0
 10
8.092849
 20
7.731661
 30
0.0
 11
8.092849
 21
8.003597
 31
0.0
  0
LINE
  5
256
  8
0
 10
8.092849
 20
8.003597
 30
0.0
 11
8.092849
 21
8.143919
 31
0.0
  0
LINE
  5
257
  8
0
 10
8.092849
 20
8.143919
 30
0.0
 11
8.092849
 21
9.503597
 31
0.0
  0
LINE
  5
258
  8
0
 10
8.092849
 20
9.503597
 30
0.0
 11
8.092849
 21
9.531661
 31
0.0
  0
LINE
  5
259
  8
0
 10
8.092849
 20
9.531661
 30
0.0
 11
8.092849
 21
9.803597
 31
0.0
  0
LINE
  5
25A
  8
0
 10
8.092849
 20
9.803597
 30
0.0
 11
8.092849
 21
9.943919
 31
0.0
  0
LINE
  5
25B
  8
0
 10
8.092849
 20
9.943919
 30
0.0
 11
8.092849
 21
11.303597
 31
0.0
  0
LINE
  5
25C
  8
0
 10
8.092849
 20
11.303597
 30
0.0
 11
8.092849
 21
11.331661
 31
0.0
  0
LINE
  5
25D
  8
0
 10
8.092849
 20
11.331661
 30
0.0
 11
8.092849
 21
11.603597
 31
0.0
  0
LINE
  5
25E
  8
0
 10
8.092849
 20
11.603597
 30
0.0
 11
8.092849
 21
11.743919
 31
0.0
  0
LINE
  5
25F
  8
0
 10
8.092849
 20
11.743919
 30
0.0
 11
8.092849
 21
13.103597
 31
0.0
  0
LINE
  5
260
  8
0
 10
8.092849
 20
13.103597
 30
0.0
 11
8.092849
 21
13.131661
 31
0.0
  0
LINE
  5
261
  8
0
 10
8.092849
 20
13.131661
 30
0.0
 11
8.092849
 21
13.403597
 31
0.0
  0
LINE
  5
262
  8
0
 10
8.092849
 20
13.403597
 30
0.0
 11
8.092849
 21
13.543919
 31
0.0
  0
LINE
  5
263
  8
0
 10
8.092849
 20
13.543919
 30
0.0
 11
8.092849
 21
14.599935
 31
0.0
  0
LINE
  5
264
  8
0
 10
8.092849
 20
14.599935
 30
0.0
 11
8.092849
 21
14.628
 31
0.0
  0
LINE
  5
265
  8
0
 10
8.592849
 20
0.551
 30
0.0
 11
8.592849
 21
0.822935
 31
0.0
  0
LINE
  5
266
  8
0
 10
8.592849
 20
0.551
 30
0.0
 11
8.592849
 21
0.822935
 31
0.0
  0
LINE
  5
267
  8
0
 10
8.592849
 20
0.822935
 30
0.0
 11
8.592849
 21
0.933135
 31
0.0
  0
LINE
  5
268
  8
0
 10
8.592849
 20
0.933135
 30
0.0
 11
8.592849
 21
2.292813
 31
0.0
  0
LINE
  5
269
  8
0
 10
8.592849
 20
2.292813
 30
0.0
 11
8.592849
 21
2.320877
 31
0.0
  0
LINE
  5
26A
  8
0
 10
8.592849
 20
2.320877
 30
0.0
 11
8.592849
 21
2.592813
 31
0.0
  0
LINE
  5
26B
  8
0
 10
8.592849
 20
2.592813
 30
0.0
 11
8.592849
 21
2.733135
 31
0.0
  0
LINE
  5
26C
  8
0
 10
8.592849
 20
2.733135
 30
0.0
 11
8.592849
 21
4.092813
 31
0.0
  0
LINE
  5
26D
  8
0
 10
8.592849
 20
4.092813
 30
0.0
 11
8.592849
 21
4.120877
 31
0.0
  0
LINE
  5
26E
  8
0
 10
8.592849
 20
4.120877
 30
0.0
 11
8.592849
 21
4.392813
 31
0.0
  0
LINE
  5
26F
  8
0
 10
8.592849
 20
4.392813
 30
0.0
 11
8.592849
 21
4.533135
 31
0.0
  0
LINE
  5
270
  8
0
 10
8.592849
 20
4.533135
 30
0.0
 11
8.592849
 21
5.892813
 31
0.0
  0
LINE
  5
271
  8
0
 10
8.592849
 20
5.892813
 30
0.0
 11
8.592849
 21
5.920877
 31
0.0
  0
LINE
  5
272
  8
0
 10
8.592849
 20
5.920877
 30
0.0
 11
8.592849
 21
6.192813
 31
0.0
  0
LINE
  5
273
  8
0
 10
8.592849
 20
6.192813
 30
0.0
 11
8.592849
 21
6.333135
 31
0.0
  0
LINE
  5
274
  8
0
 10
8.592849
 20
6.333135
 30
0.0
 11
8.592849
 21
7.692813
 31
0.0
  0
LINE
  5
275
  8
0
 10
8.592849
 20
7.692813
 30
0.0
 11
8.592849
 21
7.720877
 31
0.0
  0
LINE
  5
276
  8
0
 10
8.592849
 20
7.720877
 30
0.0
 11
8.592849
 21
7.992813
 31
0.0
  0
LINE
  5
277
  8
0
 10
8.592849
 20
7.992813
 30
0.0
 11
8.592849
 21
8.133135
 31
0.0
  0
LINE
  5
278
  8
0
 10
8.592849
 20
8.133135
 30
0.0
 11
8.592849
 21
9.492813
 31
0.0
  0
LINE
  5
279
  8
0
 10
8.592849
 20
9.492813
 30
0.0
 11
8.592849
 21
9.520877
 31
0.0
  0
LINE
  5
27A
  8
0
 10
8.592849
 20
9.520877
 30
0.0
 11
8.592849
 21
9.792813
 31
0.0
  0
LINE
  5
27B
  8
0
 10
8.592849
 20
9.792813
 30
0.0
 11
8.592849
 21
9.933135
 31
0.0
  0
LINE
  5
27C
  8
0
 10
8.592849
 20
9.933135
 30
0.0
 11
8.592849
 21
11.292813
 31
0.0
  0
LINE
  5
27D
  8
0
 10
8.592849
 20
11.292813
 30
0.0
 11
8.592849
 21
11.320877
 31
0.0
  0
LINE
  5
27E
  8
0
 10
8.592849
 20
11.320877
 30
0.0
 11
8.592849
 21
11.592813
 31
0.0
  0
LINE
  5
27F
  8
0
 10
8.592849
 20
11.592813
 30
0.0
 11
8.592849
 21
11.733135
 31
0.0
  0
LINE
  5
280
  8
0
 10
8.592849
 20
11.733135
 30
0.0
 11
8.592849
 21
13.092813
 31
0.0
  0
LINE
  5
281
  8
0
 10
8.592849
 20
13.092813
 30
0.0
 11
8.592849
 21
13.120877
 31
0.0
  0
LINE
  5
282
  8
0
 10
8.592849
 20
13.120877
 30
0.0
 11
8.592849
 21
13.392813
 31
0.0
  0
LINE
  5
283
  8
0
 10
8.592849
 20
13.392813
 30
0.0
 11
8.592849
 21
13.533135
 31
0.0
  0
LINE
  5
284
  8
0
 10
8.592849
 20
13.533135
 30
0.0
 11
8.592849
 21
14.600935
 31
0.0
  0
LINE
  5
285
  8
0
 10
8.592849
 20
14.600935
 30
0.0
 11
8.592849
 21
14.629
 31
0.0
  0
LINE
  5
286
  8
0
 10
9.092849
 20
0.539
 30
0.0
 11
9.092849
 21
0.810935
 31
0.0
  0
LINE
  5
287
  8
0
 10
9.092849
 20
0.539
 30
0.0
 11
9.092849
 21
0.810935
 31
0.0
  0
LINE
  5
288
  8
0
 10
9.092849
 20
0.810935
 30
0.0
 11
9.092849
 21
0.922352
 31
0.0
  0
LINE
  5
289
  8
0
 10
9.092849
 20
0.922352
 30
0.0
 11
9.092849
 21
2.282029
 31
0.0
  0
LINE
  5
28A
  8
0
 10
9.092849
 20
2.282029
 30
0.0
 11
9.092849
 21
2.310094
 31
0.0
  0
LINE
  5
28B
  8
0
 10
9.092849
 20
2.310094
 30
0.0
 11
9.092849
 21
2.582029
 31
0.0
  0
LINE
  5
28C
  8
0
 10
9.092849
 20
2.582029
 30
0.0
 11
9.092849
 21
2.722352
 31
0.0
  0
LINE
  5
28D
  8
0
 10
9.092849
 20
2.722352
 30
0.0
 11
9.092849
 21
4.082029
 31
0.0
  0
LINE
  5
28E
  8
0
 10
9.092849
 20
4.082029
 30
0.0
 11
9.092849
 21
4.110094
 31
0.0
  0
LINE
  5
28F
  8
0
 10
9.092849
 20
4.110094
 30
0.0
 11
9.092849
 21
4.382029
 31
0.0
  0
LINE
  5
290
  8
0
 10
9.092849
 20
4.382029
 30
0.0
 11
9.092849
 21
4.522352
 31
0.0
  0
LINE
  5
291
  8
0
 10
9.092849
 20
4.522352
 30
0.0
 11
9.092849
 21
5.882029
 31
0.0
  0
LINE
  5
292
  8
0
 10
9.092849
 20
5.882029
 30
0.0
 11
9.092849
 21
5.910094
 31
0.0
  0
LINE
  5
293
  8
0
 10
9.092849
 20
5.910094
 30
0.0
 11
9.092849
 21
6.182029
 31
0.0
  0
LINE
  5
294
  8
0
 10
9.092849
 20
6.182029
 30
0.0
 11
9.092849
 21
6.322352
 31
0.0
  0
LINE
  5
295
  8
0
 10
9.092849
 20
6.322352
 30
0.0
 11
9.092849
 21
7.682029
 31
0.0
  0
LINE
  5
296
  8
0
 10
9.092849
 20
7.682029
 30
0.0
 11
9.092849
 21
7.710094
 31
0.0
  0
LINE
  5
297
  8
0
 10
9.092849
 20
7.710094
 30
0.0
 11
9.092849
 21
7.982029
 31
0.0
  0
LINE
  5
298
  8
0
 10
9.092849
 20
7.982029
 30
0.0
 11
9.092849
 21
8.122352
 31
0.0
  0
LINE
  5
299
  8
0
 10
9.092849
 20
8.122352
 30
0.0
 11
9.092849
 21
9.482029
 31
0.0
  0
LINE
  5
29A
  8
0
 10
9.092849
 20
9.482029
 30
0.0
 11
9.092849
 21
9.510094
 31
0.0
  0
LINE
  5
29B
  8
0
 10
9.092849
 20
9.510094
 30
0.0
 11
9.092849
 21
9.782029
 31
0.0
  0
LINE
  5
29C
  8
0
 10
9.092849
 20
9.782029
 30
0.0
 11
9.092849
 21
9.922352
 31
0.0
  0
LINE
  5
29D
  8
0
 10
9.092849
 20
9.922352
 30
0.0
 11
9.092849
 21
11.282029
 31
0.0
  0
LINE
  5
29E
  8
0
 10
9.092849
 20
11.282029
 30
0.0
 11
9.092849
 21
11.310094
 31
0.0
  0
LINE
  5
29F
  8
0
 10
9.092849
 20
11.310094
 30
0.0
 11
9.092849
 21
11.582029
 31
0.0
  0
LINE
  5
2A0
  8
0
 10
9.092849
 20
11.582029
 30
0.0
 11
9.092849
 21
11.722352
 31
0.0
  0
LINE
  5
2A1
  8
0
 10
9.092849
 20
11.722352
 30
0.0
 11
9.092849
 21
13.082029
 31
0.0
  0
LINE
  5
2A2
  8
0
 10
9.092849
 20
13.082029
 30
0.0
 11
9.092849
 21
13.110094
 31
0.0
  0
LINE
  5
2A3
  8
0
 10
9.092849
 20
13.110094
 30
0.0
 11
9.092849
 21
13.382029
 31
0.0
  0
LINE
  5
2A4
  8
0
 10
9.092849
 20
13.382029
 30
0.0
 11
9.092849
 21
13.522352
 31
0.0
  0
LINE
  5
2A5
  8
0
 10
9.092849
 20
13.522352
 30
0.0
 11
9.092849
 21
14.601935
 31
0.0
  0
LINE
  5
2A6
  8
0
 10
9.092849
 20
14.601935
 30
0.0
 11
9.092849
 21
14.63
 31
0.0
  0
LINE
  5
2A7
  8
0
 10
9.592849
 20
0.527
 30
0.0
 11
9.592849
 21
0.798935
 31
0.0
  0
LINE
  5
2A8
  8
0
 10
9.592849
 20
0.527
 30
0.0
 11
9.592849
 21
0.798935
 31
0.0
  0
LINE
  5
2A9
  8
0
 10
9.592849
 20
0.798935
 30
0.0
 11
9.592849
 21
0.911474
 31
0.0
  0
LINE
  5
2AA
  8
0
 10
9.592849
 20
0.911474
 30
0.0
 11
9.592849
 21
2.271152
 31
0.0
  0
LINE
  5
2AB
  8
0
 10
9.592849
 20
2.271152
 30
0.0
 11
9.592849
 21
2.299216
 31
0.0
  0
LINE
  5
2AC
  8
0
 10
9.592849
 20
2.299216
 30
0.0
 11
9.592849
 21
2.571152
 31
0.0
  0
LINE
  5
2AD
  8
0
 10
9.592849
 20
2.571152
 30
0.0
 11
9.592849
 21
2.711474
 31
0.0
  0
LINE
  5
2AE
  8
0
 10
9.592849
 20
2.711474
 30
0.0
 11
9.592849
 21
4.071152
 31
0.0
  0
LINE
  5
2AF
  8
0
 10
9.592849
 20
4.071152
 30
0.0
 11
9.592849
 21
4.099216
 31
0.0
  0
LINE
  5
2B0
  8
0
 10
9.592849
 20
4.099216
 30
0.0
 11
9.592849
 21
4.371152
 31
0.0
  0
LINE
  5
2B1
  8
0
 10
9.592849
 20
4.371152
 30
0.0
 11
9.592849
 21
4.511474
 31
0.0
  0
LINE
  5
2B2
  8
0
 10
9.592849
 20
4.511474
 30
0.0
 11
9.592849
 21
5.871152
 31
0.0
  0
LINE
  5
2B3
  8
0
 10
9.592849
 20
5.871152
 30
0.0
 11
9.592849
 21
5.899216
 31
0.0
  0
LINE
  5
2B4
  8
0
 10
9.592849
 20
5.899216
 30
0.0
 11
9.592849
 21
6.171152
 31
0.0
  0
LINE
  5
2B5
  8
0
 10
9.592849
 20
6.171152
 30
0.0
 11
9.592849
 21
6.311474
 31
0.0
  0
LINE
  5
2B6
  8
0
 10
9.592849
 20
6.311474
 30
0.0
 11
9.592849
 21
7.671152
 31
0.0
  0
LINE
  5
2B7
  8
0
 10
9.592849
 20
7.671152
 30
0.0
 11
9.592849
 21
7.699216
 31
0.0
  0
LINE
  5
2B8
  8
0
 10
9.592849
 20
7.699216
 30
0.0
 11
9.592849
 21
7.971152
 31
0.0
  0
LINE
  5
2B9
  8
0
 10
9.592849
 20
7.971152
 30
0.0
 11
9.592849
 21
8.111474
 31
0.0
  0
LINE
  5
2BA
  8
0
 10
9.592849
 20
8.111474
 30
0.0
 11
9.592849
 21
9.471152
 31
0.0
  0
LINE
  5
2BB
  8
0
 10
9.592849
 20
9.471152
 30
0.0
 11
9.592849
 21
9.499216
 31
0.0
  0
LINE
  5
2BC
  8
0
 10
9.592849
 20
9.499216
 30
0.0
 11
9.592849
 21
9.771152
 31
0.0
  0
LINE
  5
2BD
  8
0
 10
9.592849
 20
9.771152
 30
0.0
 11
9.592849
 21
9.911474
 31
0.0
  0
LINE
  5
2BE
  8
0
 10
9.592849
 20
9.911474
 30
0.0
 11
9.592849
 21
11.271152
 31
0.0
  0
LINE
  5
2BF
  8
0
 10
9.592849
 20
11.271152
 30
0.0
 11
9.592849
 21
11.299216
 31
0.0
  0
LINE
  5
2C0
  8
0
 10
9.592849
 20
11.299216
 30
0.0
 11
9.592849
 21
11.571152
 31
0.0
  0
LINE
  5
2C1
  8
0
 10
9.592849
 20
11.571152
 30
0.0
 11
9.592849
 21
11.711474
 31
0.0
  0
LINE
  5
2C2
  8
0
 10
9.592849
 20
11.711474
 30
0.0
 11
9.592849
 21
13.071152
 31
0.0
  0
LINE
  5
2C3
  8
0
 10
9.592849
 20
13.071152
 30
0.0
 11
9.592849
 21
13.099216
 31
0.0
  0
LINE
  5
2C4
  8
0
 10
9.592849
 20
13.099216
 30
0.0
 11
9.592849
 21
13.371152
 31
0.0
  0
LINE
  5
2C5
  8
0
 10
9.592849
 20
13.371152
 30
0.0
 11
9.592849
 21
13.511474
 31
0.0
  0
LINE
  5
2C6
  8
0
 10
9.592849
 20
13.511474
 30
0.0
 11
9.592849
 21
14.601935
 31
0.0
  0
LINE
  5
2C7
  8
0
 10
9.592849
 20
14.601935
 30
0.0
 11
9.592849
 21
14.63
 31
0.0
  0
LINE
  5
2C8
  8
0
 10
10.092849
 20
0.515
 30
0.0
 11
10.092849
 21
0.786935
 31
0.0
  0
LINE
  5
2C9
  8
0
 10
10.092849
 20
0.515
 30
0.0
 11
10.092849
 21
0.786935
 31
0.0
  0
LINE
  5
2CA
  8
0
 10
10.092849
 20
0.786935
 30
0.0
 11
10.092849
 21
0.90069
 31
0.0
  0
LINE
  5
2CB
  8
0
 10
10.092849
 20
0.90069
 30
0.0
 11
10.092849
 21
2.260368
 31
0.0
  0
LINE
  5
2CC
  8
0
 10
10.092849
 20
2.260368
 30
0.0
 11
10.092849
 21
2.288432
 31
0.0
  0
LINE
  5
2CD
  8
0
 10
10.092849
 20
2.288432
 30
0.0
 11
10.092849
 21
2.560368
 31
0.0
  0
LINE
  5
2CE
  8
0
 10
10.092849
 20
2.560368
 30
0.0
 11
10.092849
 21
2.70069
 31
0.0
  0
LINE
  5
2CF
  8
0
 10
10.092849
 20
2.70069
 30
0.0
 11
10.092849
 21
4.060368
 31
0.0
  0
LINE
  5
2D0
  8
0
 10
10.092849
 20
4.060368
 30
0.0
 11
10.092849
 21
4.088432
 31
0.0
  0
LINE
  5
2D1
  8
0
 10
10.092849
 20
4.088432
 30
0.0
 11
10.092849
 21
4.360368
 31
0.0
  0
LINE
  5
2D2
  8
0
 10
10.092849
 20
4.360368
 30
0.0
 11
10.092849
 21
4.50069
 31
0.0
  0
LINE
  5
2D3
  8
0
 10
10.092849
 20
4.50069
 30
0.0
 11
10.092849
 21
5.860368
 31
0.0
  0
LINE
  5
2D4
  8
0
 10
10.092849
 20
5.860368
 30
0.0
 11
10.092849
 21
5.888432
 31
0.0
  0
LINE
  5
2D5
  8
0
 10
10.092849
 20
5.888432
 30
0.0
 11
10.092849
 21
6.160368
 31
0.0
  0
LINE
  5
2D6
  8
0
 10
10.092849
 20
6.160368
 30
0.0
 11
10.092849
 21
6.30069
 31
0.0
  0
LINE
  5
2D7
  8
0
 10
10.092849
 20
6.30069
 30
0.0
 11
10.092849
 21
7.660368
 31
0.0
  0
LINE
  5
2D8
  8
0
 10
10.092849
 20
7.660368
 30
0.0
 11
10.092849
 21
7.688432
 31
0.0
  0
LINE
  5
2D9
  8
0
 10
10.092849
 20
7.688432
 30
0.0
 11
10.092849
 21
7.960368
 31
0.0
  0
LINE
  5
2DA
  8
0
 10
10.092849
 20
7.960368
 30
0.0
 11
10.092849
 21
8.10069
 31
0.0
  0
LINE
  5
2DB
  8
0
 10
10.092849
 20
8.10069
 30
0.0
 11
10.092849
 21
9.460368
 31
0.0
  0
LINE
  5
2DC
  8
0
 10
10.092849
 20
9.460368
 30
0.0
 11
10.092849
 21
9.488432
 31
0.0
  0
LINE
  5
2DD
  8
0
 10
10.092849
 20
9.488432
 30
0.0
 11
10.092849
 21
9.760368
 31
0.0
  0
LINE
  5
2DE
  8
0
 10
10.092849
 20
9.760368
 30
0.0
 11
10.092849
 21
9.90069
 31
0.0
  0
LINE
  5
2DF
  8
0
 10
10.092849
 20
9.90069
 30
0.0
 11
10.092849
 21
11.260368
 31
0.0
  0
LINE
  5
2E0
  8
0
 10
10.092849
 20
11.260368
 30
0.0
 11
10.092849
 21
11.288432
 31
0.0
  0
LINE
  5
2E1
  8
0
 10
10.092849
 20
11.288432
 30
0.0
 11
10.092849
 21
11.560368
 31
0.0
  0
LINE
  5
2E2
  8
0
 10
10.092849
 20
11.560368
 30
0.0
 11
10.092849
 21
11.70069
 31
0.0
  0
LINE
  5
2E3
  8
0
 10
10.092849
 20
11.70069
 30
0.0
 11
10.092849
 21
13.060368
 31
0.0
  0
LINE
  5
2E4
  8
0
 10
10.092849
 20
13.060368
 30
0.0
 11
10.092849
 21
13.088432
 31
0.0
  0
LINE
  5
2E5
  8
0
 10
10.092849
 20
13.088432
 30
0.0
 11
10.092849
 21
13.360368
 31
0.0
  0
LINE
  5
2E6
  8
0
 10
10.092849
 20
13.360368
 30
0.0
 11
10.092849
 21
13.50069
 31
0.0
  0
LINE
  5
2E7
  8
0
 10
10.092849
 20
13.50069
 30
0.0
 11
10.092849
 21
14.602935
 31
0.0
  0
LINE
  5
2E8
  8
0
 10
10.092849
 20
14.602935
 30
0.0
 11
10.092849
 21
14.631
 31
0.0
  0
LINE
  5
2E9
  8
0
 10
10.592849
 20
0.503
 30
0.0
 11
10.592849
 21
0.774935
 31
0.0
  0
LINE
  5
2EA
  8
0
 10
10.592849
 20
0.503
 30
0.0
 11
10.592849
 21
0.774935
 31
0.0
  0
LINE
  5
2EB
  8
0
 10
10.592849
 20
0.774935
 30
0.0
 11
10.592849
 21
0.889906
 31
0.0
  0
LINE
  5
2EC
  8
0
 10
10.592849
 20
0.889906
 30
0.0
 11
10.592849
 21
2.249584
 31
0.0
  0
LINE
  5
2ED
  8
0
 10
10.592849
 20
2.249584
 30
0.0
 11
10.592849
 21
2.277648
 31
0.0
  0
LINE
  5
2EE
  8
0
 10
10.592849
 20
2.277648
 30
0.0
 11
10.592849
 21
2.549584
 31
0.0
  0
LINE
  5
2EF
  8
0
 10
10.592849
 20
2.549584
 30
0.0
 11
10.592849
 21
2.689906
 31
0.0
  0
LINE
  5
2F0
  8
0
 10
10.592849
 20
2.689906
 30
0.0
 11
10.592849
 21
4.049584
 31
0.0
  0
LINE
  5
2F1
  8
0
 10
10.592849
 20
4.049584
 30
0.0
 11
10.592849
 21
4.077648
 31
0.0
  0
LINE
  5
2F2
  8
0
 10
10.592849
 20
4.077648
 30
0.0
 11
10.592849
 21
4.349584
 31
0.0
  0
LINE
  5
2F3
  8
0
 10
10.592849
 20
4.349584
 30
0.0
 11
10.592849
 21
4.489906
 31
0.0
  0
LINE
  5
2F4
  8
0
 10
10.592849
 20
4.489906
 30
0.0
 11
10.592849
 21
5.849584
 31
0.0
  0
LINE
  5
2F5
  8
0
 10
10.592849
 20
5.849584
 30
0.0
 11
10.592849
 21
5.877648
 31
0.0
  0
LINE
  5
2F6
  8
0
 10
10.592849
 20
5.877648
 30
0.0
 11
10.592849
 21
6.149584
 31
0.0
  0
LINE
  5
2F7
  8
0
 10
10.592849
 20
6.149584
 30
0.0
 11
10.592849
 21
6.289906
 31
0.0
  0
LINE
  5
2F8
  8
0
 10
10.592849
 20
6.289906
 30
0.0
 11
10.592849
 21
7.649584
 31
0.0
  0
LINE
  5
2F9
  8
0
 10
10.592849
 20
7.649584
 30
0.0
 11
10.592849
 21
7.677648
 31
0.0
  0
LINE
  5
2FA
  8
0
 10
10.592849
 20
7.677648
 30
0.0
 11
10.592849
 21
7.949584
 31
0.0
  0
LINE
  5
2FB
  8
0
 10
10.592849
 20
7.949584
 30
0.0
 11
10.592849
 21
8.089906
 31
0.0
  0
LINE
  5
2FC
  8
0
 10
10.592849
 20
8.089906
 30
0.0
 11
10.592849
 21
9.449584
 31
0.0
  0
LINE
  5
2FD
  8
0
 10
10.592849
 20
9.449584
 30
0.0
 11
10.592849
 21
9.477648
 31
0.0
  0
LINE
  5
2FE
  8
0
 10
10.592849
 20
9.477648
 30
0.0
 11
10.592849
 21
9.749584
 31
0.0
  0
LINE
  5
2FF
  8
0
 10
10.592849
 20
9.749584
 30
0.0
 11
10.592849
 21
9.889906
 31
0.0
  0
LINE
  5
300
  8
0
 10
10.592849
 20
9.889906
 30
0.0
 11
10.592849
 21
11.249584
 31
0.0
  0
LINE
  5
301
  8
0
 10
10.592849
 20
11.249584
 30
0.0
 11
10.592849
 21
11.277648
 31
0.0
  0
LINE
  5
302
  8
0
 10
10.592849
 20
11.277648
 30
0.0
 11
10.592849
 21
11.549584
 31
0.0
  0
LINE
  5
303
  8
0
 10
10.592849
 20
11.549584
 30
0.0
 11
10.592849
 21
11.689906
 31
0.0
  0
LINE
  5
304
  8
0
 10
10.592849
 20
11.689906
 30
0.0
 11
10.592849
 21
13.049584
 31
0.0
  0
LINE
  5
305
  8
0
 10
10.592849
 20
13.049584
 30
0.0
 11
10.592849
 21
13.077648
 31
0.0
  0
LINE
  5
306
  8
0
 10
10.592849
 20
13.077648
 30
0.0
 11
10.592849
 21
13.349584
 31
0.0
  0
LINE
  5
307
  8
0
 10
10.592849
 20
13.349584
 30
0.0
 11
10.592849
 21
13.489906
 31
0.0
  0
LINE
  5
308
  8
0
 10
10.592849
 20
13.489906
 30
0.0
 11
10.592849
 21
14.603935
 31
0.0
  0
LINE
  5
309
  8
0
 10
10.592849
 20
14.603935
 30
0.0
 11
10.592849
 21
14.632
 31
0.0
  0
LINE
  5
30A
  8
0
 10
11.092849
 20
0.491
 30
0.0
 11
11.092849
 21
0.762935
 31
0.0
  0
LINE
  5
30B
  8
0
 10
11.092849
 20
0.491
 30
0.0
 11
11.092849
 21
0.762935
 31
0.0
  0
LINE
  5
30C
  8
0
 10
11.092849
 20
0.762935
 30
0.0
 11
11.092849
 21
0.879123
 31
0.0
  0
LINE
  5
30D
  8
0
 10
11.092849
 20
0.879123
 30
0.0
 11
11.092849
 21
2.2388
 31
0.0
  0
LINE
  5
30E
  8
0
 10
11.092849
 20
2.2388
 30
0.0
 11
11.092849
 21
2.266771
 31
0.0
  0
LINE
  5
30F
  8
0
 10
11.092849
 20
2.266771
 30
0.0
 11
11.092849
 21
2.538706
 31
0.0
  0
LINE
  5
310
  8
0
 10
11.092849
 20
2.538706
 30
0.0
 11
11.092849
 21
2.679123
 31
0.0
  0
LINE
  5
311
  8
0
 10
11.092849
 20
2.679123
 30
0.0
 11
11.092849
 21
4.0388
 31
0.0
  0
LINE
  5
312
  8
0
 10
11.092849
 20
4.0388
 30
0.0
 11
11.092849
 21
4.066771
 31
0.0
  0
LINE
  5
313
  8
0
 10
11.092849
 20
4.066771
 30
0.0
 11
11.092849
 21
4.338706
 31
0.0
  0
LINE
  5
314
  8
0
 10
11.092849
 20
4.338706
 30
0.0
 11
11.092849
 21
4.479123
 31
0.0
  0
LINE
  5
315
  8
0
 10
11.092849
 20
4.479123
 30
0.0
 11
11.092849
 21
5.8388
 31
0.0
  0
LINE
  5
316
  8
0
 10
11.092849
 20
5.8388
 30
0.0
 11
11.092849
 21
5.866771
 31
0.0
  0
LINE
  5
317
  8
0
 10
11.092849
 20
5.866771
 30
0.0
 11
11.092849
 21
6.138706
 31
0.0
  0
LINE
  5
318
  8
0
 10
11.092849
 20
6.138706
 30
0.0
 11
11.092849
 21
6.279123
 31
0.0
  0
LINE
  5
319
  8
0
 10
11.092849
 20
6.279123
 30
0.0
 11
11.092849
 21
7.6388
 31
0.0
  0
LINE
  5
31A
  8
0
 10
11.092849
 20
7.6388
 30
0.0
 11
11.092849
 21
7.666771
 31
0.0
  0
LINE
  5
31B
  8
0
 10
11.092849
 20
7.666771
 30
0.0
 11
11.092849
 21
7.938706
 31
0.0
  0
LINE
  5
31C
  8
0
 10
11.092849
 20
7.938706
 30
0.0
 11
11.092849
 21
8.079123
 31
0.0
  0
LINE
  5
31D
  8
0
 10
11.092849
 20
8.079123
 30
0.0
 11
11.092849
 21
9.4388
 31
0.0
  0
LINE
  5
31E
  8
0
 10
11.092849
 20
9.4388
 30
0.0
 11
11.092849
 21
9.466771
 31
0.0
  0
LINE
  5
31F
  8
0
 10
11.092849
 20
9.466771
 30
0.0
 11
11.092849
 21
9.738706
 31
0.0
  0
LINE
  5
320
  8
0
 10
11.092849
 20
9.738706
 30
0.0
 11
11.092849
 21
9.879123
 31
0.0
  0
LINE
  5
321
  8
0
 10
11.092849
 20
9.879123
 30
0.0
 11
11.092849
 21
11.2388
 31
0.0
  0
LINE
  5
322
  8
0
 10
11.092849
 20
11.2388
 30
0.0
 11
11.092849
 21
11.266771
 31
0.0
  0
LINE
  5
323
  8
0
 10
11.092849
 20
11.266771
 30
0.0
 11
11.092849
 21
11.538706
 31
0.0
  0
LINE
  5
324
  8
0
 10
11.092849
 20
11.538706
 30
0.0
 11
11.092849
 21
11.679123
 31
0.0
  0
LINE
  5
325
  8
0
 10
11.092849
 20
11.679123
 30
0.0
 11
11.092849
 21
13.0388
 31
0.0
  0
LINE
  5
326
  8
0
 10
11.092849
 20
13.0388
 30
0.0
 11
11.092849
 21
13.066771
 31
0.0
  0
LINE
  5
327
  8
0
 10
11.092849
 20
13.066771
 30
0.0
 11
11.092849
 21
13.338706
 31
0.0
  0
LINE
  5
328
  8
0
 10
11.092849
 20
13.338706
 30
0.0
 11
11.092849
 21
13.479123
 31
0.0
  0
LINE
  5
329
  8
0
 10
11.092849
 20
13.479123
 30
0.0
 11
11.092849
 21
14.604935
 31
0.0
  0
LINE
  5
32A
  8
0
 10
11.092849
 20
14.604935
 30
0.0
 11
11.092849
 21
14.633
 31
0.0
  0
LINE
  5
32B
  8
0
 10
11.592849
 20
0.479
 30
0.0
 11
11.592849
 21
0.750935
 31
0.0
  0
LINE
  5
32C
  8
0
 10
11.592849
 20
0.479
 30
0.0
 11
11.592849
 21
0.750935
 31
0.0
  0
LINE
  5
32D
  8
0
 10
11.592849
 20
0.750935
 30
0.0
 11
11.592849
 21
0.868245
 31
0.0
  0
LINE
  5
32E
  8
0
 10
11.592849
 20
0.868245
 30
0.0
 11
11.592849
 21
2.227923
 31
0.0
  0
LINE
  5
32F
  8
0
 10
11.592849
 20
2.227923
 30
0.0
 11
11.592849
 21
2.255987
 31
0.0
  0
LINE
  5
330
  8
0
 10
11.592849
 20
2.255987
 30
0.0
 11
11.592849
 21
2.527923
 31
0.0
  0
LINE
  5
331
  8
0
 10
11.592849
 20
2.527923
 30
0.0
 11
11.592849
 21
2.668245
 31
0.0
  0
LINE
  5
332
  8
0
 10
11.592849
 20
2.668245
 30
0.0
 11
11.592849
 21
4.027923
 31
0.0
  0
LINE
  5
333
  8
0
 10
11.592849
 20
4.027923
 30
0.0
 11
11.592849
 21
4.055987
 31
0.0
  0
LINE
  5
334
  8
0
 10
11.592849
 20
4.055987
 30
0.0
 11
11.592849
 21
4.327923
 31
0.0
  0
LINE
  5
335
  8
0
 10
11.592849
 20
4.327923
 30
0.0
 11
11.592849
 21
4.468245
 31
0.0
  0
LINE
  5
336
  8
0
 10
11.592849
 20
4.468245
 30
0.0
 11
11.592849
 21
5.827923
 31
0.0
  0
LINE
  5
337
  8
0
 10
11.592849
 20
5.827923
 30
0.0
 11
11.592849
 21
5.855987
 31
0.0
  0
LINE
  5
338
  8
0
 10
11.592849
 20
5.855987
 30
0.0
 11
11.592849
 21
6.127923
 31
0.0
  0
LINE
  5
339
  8
0
 10
11.592849
 20
6.127923
 30
0.0
 11
11.592849
 21
6.268245
 31
0.0
  0
LINE
  5
33A
  8
0
 10
11.592849
 20
6.268245
 30
0.0
 11
11.592849
 21
7.627923
 31
0.0
  0
LINE
  5
33B
  8
0
 10
11.592849
 20
7.627923
 30
0.0
 11
11.592849
 21
7.655987
 31
0.0
  0
LINE
  5
33C
  8
0
 10
11.592849
 20
7.655987
 30
0.0
 11
11.592849
 21
7.927923
 31
0.0
  0
LINE
  5
33D
  8
0
 10
11.592849
 20
7.927923
 30
0.0
 11
11.592849
 21
8.068245
 31
0.0
  0
LINE
  5
33E
  8
0
 10
11.592849
 20
8.068245
 30
0.0
 11
11.592849
 21
9.427923
 31
0.0
  0
LINE
  5
33F
  8
0
 10
11.592849
 20
9.427923
 30
0.0
 11
11.592849
 21
9.455987
 31
0.0
  0
LINE
  5
340
  8
0
 10
11.592849
 20
9.455987
 30
0.0
 11
11.592849
 21
9.727923
 31
0.0
  0
LINE
  5
341
  8
0
 10
11.592849
 20
9.727923
 30
0.0
 11
11.592849
 21
9.868245
 31
0.0
  0
LINE
  5
342
  8
0
 10
11.592849
 20
9.868245
 30
0.0
 11
11.592849
 21
11.227923
 31
0.0
  0
LINE
  5
343
  8
0
 10
11.592849
 20
11.227923
 30
0.0
 11
11.592849
 21
11.255987
 31
0.0
  0
LINE
  5
344
  8
0
 10
11.592849
 20
11.255987
 30
0.0
 11
11.592849
 21
11.527923
 31
0.0
  0
LINE
  5
345
  8
0
 10
11.592849
 20
11.527923
 30
0.0
 11
11.592849
 21
11.668245
 31
0.0
  0
LINE
  5
346
  8
0
 10
11.592849
 20
11.668245
 30
0.0
 11
11.592849
 21
13.027923
 31
0.0
  0
LINE
  5
347
  8
0
 10
11.592849
 20
13.027923
 30
0.0
 11
11.592849
 21
13.055987
 31
0.0
  0
LINE
  5
348
  8
0
 10
11.592849
 20
13.055987
 30
0.0
 11
11.592849
 21
13.327923
 31
0.0
  0
LINE
  5
349
  8
0
 10
11.592849
 20
13.327923
 30
0.0
 11
11.592849
 21
13.468245
 31
0.0
  0
LINE
  5
34A
  8
0
 10
11.592849
 20
13.468245
 30
0.0
 11
11.592849
 21
14.604935
 31
0.0
  0
LINE
  5
34B
  8
0
 10
11.592849
 20
14.604935
 30
0.0
 11
11.592849
 21
14.633
 31
0.0
  0
LINE
  5
34C
  8
0
 10
12.092849
 20
0.467
 30
0.0
 11
12.092849
 21
0.738935
 31
0.0
  0
LINE
  5
34D
  8
0
 10
12.092849
 20
0.467
 30
0.0
 11
12.092849
 21
0.738935
 31
0.0
  0
LINE
  5
34E
  8
0
 10
12.092849
 20
0.738935
 30
0.0
 11
12.092849
 21
0.857461
 31
0.0
  0
LINE
  5
34F
  8
0
 10
12.092849
 20
0.857461
 30
0.0
 11
12.092849
 21
2.217139
 31
0.0
  0
LINE
  5
350
  8
0
 10
12.092849
 20
2.217139
 30
0.0
 11
12.092849
 21
2.245203
 31
0.0
  0
LINE
  5
351
  8
0
 10
12.092849
 20
2.245203
 30
0.0
 11
12.092849
 21
2.517139
 31
0.0
  0
LINE
  5
352
  8
0
 10
12.092849
 20
2.517139
 30
0.0
 11
12.092849
 21
2.657461
 31
0.0
  0
LINE
  5
353
  8
0
 10
12.092849
 20
2.657461
 30
0.0
 11
12.092849
 21
4.017139
 31
0.0
  0
LINE
  5
354
  8
0
 10
12.092849
 20
4.017139
 30
0.0
 11
12.092849
 21
4.045203
 31
0.0
  0
LINE
  5
355
  8
0
 10
12.092849
 20
4.045203
 30
0.0
 11
12.092849
 21
4.317139
 31
0.0
  0
LINE
  5
356
  8
0
 10
12.092849
 20
4.317139
 30
0.0
 11
12.092849
 21
4.457461
 31
0.0
  0
LINE
  5
357
  8
0
 10
12.092849
 20
4.457461
 30
0.0
 11
12.092849
 21
5.817139
 31
0.0
  0
LINE
  5
358
  8
0
 10
12.092849
 20
5.817139
 30
0.0
 11
12.092849
 21
5.845203
 31
0.0
  0
LINE
  5
359
  8
0
 10
12.092849
 20
5.845203
 30
0.0
 11
12.092849
 21
6.117139
 31
0.0
  0
LINE
  5
35A
  8
0
 10
12.092849
 20
6.117139
 30
0.0
 11
12.092849
 21
6.257461
 31
0.0
  0
LINE
  5
35B
  8
0
 10
12.092849
 20
6.257461
 30
0.0
 11
12.092849
 21
7.617139
 31
0.0
  0
LINE
  5
35C
  8
0
 10
12.092849
 20
7.617139
 30
0.0
 11
12.092849
 21
7.645203
 31
0.0
  0
LINE
  5
35D
  8
0
 10
12.092849
 20
7.645203
 30
0.0
 11
12.092849
 21
7.917139
 31
0.0
  0
LINE
  5
35E
  8
0
 10
12.092849
 20
7.917139
 30
0.0
 11
12.092849
 21
8.057461
 31
0.0
  0
LINE
  5
35F
  8
0
 10
12.092849
 20
8.057461
 30
0.0
 11
12.092849
 21
9.417139
 31
0.0
  0
LINE
  5
360
  8
0
 10
12.092849
 20
9.417139
 30
0.0
 11
12.092849
 21
9.445203
 31
0.0
  0
LINE
  5
361
  8
0
 10
12.092849
 20
9.445203
 30
0.0
 11
12.092849
 21
9.717139
 31
0.0
  0
LINE
  5
362
  8
0
 10
12.092849
 20
9.717139
 30
0.0
 11
12.092849
 21
9.857461
 31
0.0
  0
LINE
  5
363
  8
0
 10
12.092849
 20
9.857461
 30
0.0
 11
12.092849
 21
11.217139
 31
0.0
  0
LINE
  5
364
  8
0
 10
12.092849
 20
11.217139
 30
0.0
 11
12.092849
 21
11.245203
 31
0.0
  0
LINE
  5
365
  8
0
 10
12.092849
 20
11.245203
 30
0.0
 11
12.092849
 21
11.517139
 31
0.0
  0
LINE
  5
366
  8
0
 10
12.092849
 20
11.517139
 30
0.0
 11
12.092849
 21
11.657461
 31
0.0
  0
LINE
  5
367
  8
0
 10
12.092849
 20
11.657461
 30
0.0
 11
12.092849
 21
13.017139
 31
0.0
  0
LINE
  5
368
  8
0
 10
12.092849
 20
13.017139
 30
0.0
 11
12.092849
 21
13.045203
 31
0.0
  0
LINE
  5
369
  8
0
 10
12.092849
 20
13.045203
 30
0.0
 11
12.092849
 21
13.317139
 31
0.0
  0
LINE
  5
36A
  8
0
 10
12.092849
 20
13.317139
 30
0.0
 11
12.092849
 21
13.457461
 31
0.0
  0
LINE
  5
36B
  8
0
 10
12.092849
 20
13.457461
 30
0.0
 11
12.092849
 21
14.605935
 31
0.0
  0
LINE
  5
36C
  8
0
 10
12.092849
 20
14.605935
 30
0.0
 11
12.092849
 21
14.634
 31
0.0
  0
LINE
  5
36D
  8
0
 10
12.592849
 20
0.455
 30
0.0
 11
12.592849
 21
0.726935
 31
0.0
  0
LINE
  5
36E
  8
0
 10
12.592849
 20
0.455
 30
0.0
 11
12.592849
 21
0.726935
 31
0.0
  0
LINE
  5
36F
  8
0
 10
12.592849
 20
0.726935
 30
0.0
 11
12.592849
 21
0.846677
 31
0.0
  0
LINE
  5
370
  8
0
 10
12.592849
 20
0.846677
 30
0.0
 11
12.592849
 21
2.206355
 31
0.0
  0
LINE
  5
371
  8
0
 10
12.592849
 20
2.206355
 30
0.0
 11
12.592849
 21
2.234419
 31
0.0
  0
LINE
  5
372
  8
0
 10
12.592849
 20
2.234419
 30
0.0
 11
12.592849
 21
2.506355
 31
0.0
  0
LINE
  5
373
  8
0
 10
12.592849
 20
2.506355
 30
0.0
 11
12.592849
 21
2.646677
 31
0.0
  0
LINE
  5
374
  8
0
 10
12.592849
 20
2.646677
 30
0.0
 11
12.592849
 21
4.006355
 31
0.0
  0
LINE
  5
375
  8
0
 10
12.592849
 20
4.006355
 30
0.0
 11
12.592849
 21
4.034419
 31
0.0
  0
LINE
  5
376
  8
0
 10
12.592849
 20
4.034419
 30
0.0
 11
12.592849
 21
4.306355
 31
0.0
  0
LINE
  5
377
  8
0
 10
12.592849
 20
4.306355
 30
0.0
 11
12.592849
 21
4.446677
 31
0.0
  0
LINE
  5
378
  8
0
 10
12.592849
 20
4.446677
 30
0.0
 11
12.592849
 21
5.806355
 31
0.0
  0
LINE
  5
379
  8
0
 10
12.592849
 20
5.806355
 30
0.0
 11
12.592849
 21
5.834419
 31
0.0
  0
LINE
  5
37A
  8
0
 10
12.592849
 20
5.834419
 30
0.0
 11
12.592849
 21
6.106355
 31
0.0
  0
LINE
  5
37B
  8
0
 10
12.592849
 20
6.106355
 30
0.0
 11
12.592849
 21
6.246677
 31
0.0
  0
LINE
  5
37C
  8
0
 10
12.592849
 20
6.246677
 30
0.0
 11
12.592849
 21
7.606355
 31
0.0
  0
LINE
  5
37D
  8
0
 10
12.592849
 20
7.606355
 30
0.0
 11
12.592849
 21
7.634419
 31
0.0
  0
LINE
  5
37E
  8
0
 10
12.592849
 20
7.634419
 30
0.0
 11
12.592849
 21
7.906355
 31
0.0
  0
LINE
  5
37F
  8
0
 10
12.592849
 20
7.906355
 30
0.0
 11
12.592849
 21
8.046677
 31
0.0
  0
LINE
  5
380
  8
0
 10
12.592849
 20
8.046677
 30
0.0
 11
12.592849
 21
9.406355
 31
0.0
  0
LINE
  5
381
  8
0
 10
12.592849
 20
9.406355
 30
0.0
 11
12.592849
 21
9.434419
 31
0.0
  0
LINE
  5
382
  8
0
 10
12.592849
 20
9.434419
 30
0.0
 11
12.592849
 21
9.706355
 31
0.0
  0
LINE
  5
383
  8
0
 10
12.592849
 20
9.706355
 30
0.0
 11
12.592849
 21
9.846677
 31
0.0
  0
LINE
  5
384
  8
0
 10
12.592849
 20
9.846677
 30
0.0
 11
12.592849
 21
11.206355
 31
0.0
  0
LINE
  5
385
  8
0
 10
12.592849
 20
11.206355
 30
0.0
 11
12.592849
 21
11.234419
 31
0.0
  0
LINE
  5
386
  8
0
 10
12.592849
 20
11.234419
 30
0.0
 11
12.592849
 21
11.506355
 31
0.0
  0
LINE
  5
387
  8
0
 10
12.592849
 20
11.506355
 30
0.0
 11
12.592849
 21
11.646677
 31
0.0
  0
LINE
  5
388
  8
0
 10
12.592849
 20
11.646677
 30
0.0
 11
12.592849
 21
13.006355
 31
0.0
  0
LINE
  5
389
  8
0
 10
12.592849
 20
13.006355
 30
0.0
 11
12.592849
 21
13.034419
 31
0.0
  0
LINE
  5
38A
  8
0
 10
12.592849
 20
13.034419
 30
0.0
 11
12.592849
 21
13.306355
 31
0.0
  0
LINE
  5
38B
  8
0
 10
12.592849
 20
13.306355
 30
0.0
 11
12.592849
 21
13.446677
 31
0.0
  0
LINE
  5
38C
  8
0
 10
12.592849
 20
13.446677
 30
0.0
 11
12.592849
 21
14.606935
 31
0.0
  0
LINE
  5
38D
  8
0
 10
12.592849
 20
14.606935
 30
0.0
 11
12.592849
 21
14.635
 31
0.0
  0
LINE
  5
38E
  8
0
 10
13.092849
 20
0.455
 30
0.0
 11
13.092849
 21
0.726935
 31
0.0
  0
LINE
  5
38F
  8
0
 10
13.092849
 20
0.455
 30
0.0
 11
13.092849
 21
0.726935
 31
0.0
  0
LINE
  5
390
  8
0
 10
13.092849
 20
0.726935
 30
0.0
 11
13.092849
 21
0.846771
 31
0.0
  0
LINE
  5
391
  8
0
 10
13.092849
 20
0.846771
 30
0.0
 11
13.092849
 21
2.206448
 31
0.0
  0
LINE
  5
392
  8
0
 10
13.092849
 20
2.206448
 30
0.0
 11
13.092849
 21
2.234419
 31
0.0
  0
LINE
  5
393
  8
0
 10
13.092849
 20
2.234419
 30
0.0
 11
13.092849
 21
2.506355
 31
0.0
  0
LINE
  5
394
  8
0
 10
13.092849
 20
2.506355
 30
0.0
 11
13.092849
 21
2.646771
 31
0.0
  0
LINE
  5
395
  8
0
 10
13.092849
 20
2.646771
 30
0.0
 11
13.092849
 21
4.006448
 31
0.0
  0
LINE
  5
396
  8
0
 10
13.092849
 20
4.006448
 30
0.0
 11
13.092849
 21
4.034419
 31
0.0
  0
LINE
  5
397
  8
0
 10
13.092849
 20
4.034419
 30
0.0
 11
13.092849
 21
4.306355
 31
0.0
  0
LINE
  5
398
  8
0
 10
13.092849
 20
4.306355
 30
0.0
 11
13.092849
 21
4.446771
 31
0.0
  0
LINE
  5
399
  8
0
 10
13.092849
 20
4.446771
 30
0.0
 11
13.092849
 21
5.806448
 31
0.0
  0
LINE
  5
39A
  8
0
 10
13.092849
 20
5.806448
 30
0.0
 11
13.092849
 21
5.834419
 31
0.0
  0
LINE
  5
39B
  8
0
 10
13.092849
 20
5.834419
 30
0.0
 11
13.092849
 21
6.106355
 31
0.0
  0
LINE
  5
39C
  8
0
 10
13.092849
 20
6.106355
 30
0.0
 11
13.092849
 21
6.246771
 31
0.0
  0
LINE
  5
39D
  8
0
 10
13.092849
 20
6.246771
 30
0.0
 11
13.092849
 21
7.606448
 31
0.0
  0
LINE
  5
39E
  8
0
 10
13.092849
 20
7.606448
 30
0.0
 11
13.092849
 21
7.634419
 31
0.0
  0
LINE
  5
39F
  8
0
 10
13.092849
 20
7.634419
 30
0.0
 11
13.092849
 21
7.906355
 31
0.0
  0
LINE
  5
3A0
  8
0
 10
13.092849
 20
7.906355
 30
0.0
 11
13.092849
 21
8.046771
 31
0.0
  0
LINE
  5
3A1
  8
0
 10
13.092849
 20
8.046771
 30
0.0
 11
13.092849
 21
9.406448
 31
0.0
  0
LINE
  5
3A2
  8
0
 10
13.092849
 20
9.406448
 30
0.0
 11
13.092849
 21
9.434419
 31
0.0
  0
LINE
  5
3A3
  8
0
 10
13.092849
 20
9.434419
 30
0.0
 11
13.092849
 21
9.706355
 31
0.0
  0
LINE
  5
3A4
  8
0
 10
13.092849
 20
9.706355
 30
0.0
 11
13.092849
 21
9.846771
 31
0.0
  0
LINE
  5
3A5
  8
0
 10
13.092849
 20
9.846771
 30
0.0
 11
13.092849
 21
11.206448
 31
0.0
  0
LINE
  5
3A6
  8
0
 10
13.092849
 20
11.206448
 30
0.0
 11
13.092849
 21
11.234419
 31
0.0
  0
LINE
  5
3A7
  8
0
 10
13.092849
 20
11.234419
 30
0.0
 11
13.092849
 21
11.506355
 31
0.0
  0
LINE
  5
3A8
  8
0
 10
13.092849
 20
11.506355
 30
0.0
 11
13.092849
 21
11.646771
 31
0.0
  0
LINE
  5
3A9
  8
0
 10
13.092849
 20
11.646771
 30
0.0
 11
13.092849
 21
13.006448
 31
0.0
  0
LINE
  5
3AA
  8
0
 10
13.092849
 20
13.006448
 30
0.0
 11
13.092849
 21
13.034419
 31
0.0
  0
LINE
  5
3AB
  8
0
 10
13.092849
 20
13.034419
 30
0.0
 11
13.092849
 21
13.306355
 31
0.0
  0
LINE
  5
3AC
  8
0
 10
13.092849
 20
13.306355
 30
0.0
 11
13.092849
 21
13.446771
 31
0.0
  0
LINE
  5
3AD
  8
0
 10
13.092849
 20
13.446771
 30
0.0
 11
13.092849
 21
14.607935
 31
0.0
  0
LINE
  5
3AE
  8
0
 10
13.092849
 20
14.607935
 30
0.0
 11
13.092849
 21
14.635906
 31
0.0
  0
LINE
  5
3AF
  8
0
 10
13.592849
 20
0.523
 30
0.0
 11
13.592849
 21
0.794935
 31
0.0
  0
LINE
  5
3B0
  8
0
 10
13.592849
 20
0.523
 30
0.0
 11
13.592849
 21
0.794935
 31
0.0
  0
LINE
  5
3B1
  8
0
 10
13.592849
 20
0.794935
 30
0.0
 11
13.592849
 21
0.90841
 31
0.0
  0
LINE
  5
3B2
  8
0
 10
13.592849
 20
0.90841
 30
0.0
 11
13.592849
 21
2.268087
 31
0.0
  0
LINE
  5
3B3
  8
0
 10
13.592849
 20
2.268087
 30
0.0
 11
13.592849
 21
2.296152
 31
0.0
  0
LINE
  5
3B4
  8
0
 10
13.592849
 20
2.296152
 30
0.0
 11
13.592849
 21
2.568087
 31
0.0
  0
LINE
  5
3B5
  8
0
 10
13.592849
 20
2.568087
 30
0.0
 11
13.592849
 21
2.70841
 31
0.0
  0
LINE
  5
3B6
  8
0
 10
13.592849
 20
2.70841
 30
0.0
 11
13.592849
 21
4.068087
 31
0.0
  0
LINE
  5
3B7
  8
0
 10
13.592849
 20
4.068087
 30
0.0
 11
13.592849
 21
4.096152
 31
0.0
  0
LINE
  5
3B8
  8
0
 10
13.592849
 20
4.096152
 30
0.0
 11
13.592849
 21
4.368087
 31
0.0
  0
LINE
  5
3B9
  8
0
 10
13.592849
 20
4.368087
 30
0.0
 11
13.592849
 21
4.50841
 31
0.0
  0
LINE
  5
3BA
  8
0
 10
13.592849
 20
4.50841
 30
0.0
 11
13.592849
 21
5.868087
 31
0.0
  0
LINE
  5
3BB
  8
0
 10
13.592849
 20
5.868087
 30
0.0
 11
13.592849
 21
5.896152
 31
0.0
  0
LINE
  5
3BC
  8
0
 10
13.592849
 20
5.896152
 30
0.0
 11
13.592849
 21
6.168087
 31
0.0
  0
LINE
  5
3BD
  8
0
 10
13.592849
 20
6.168087
 30
0.0
 11
13.592849
 21
6.30841
 31
0.0
  0
LINE
  5
3BE
  8
0
 10
13.592849
 20
6.30841
 30
0.0
 11
13.592849
 21
7.668087
 31
0.0
  0
LINE
  5
3BF
  8
0
 10
13.592849
 20
7.668087
 30
0.0
 11
13.592849
 21
7.696152
 31
0.0
  0
LINE
  5
3C0
  8
0
 10
13.592849
 20
7.696152
 30
0.0
 11
13.592849
 21
7.968087
 31
0.0
  0
LINE
  5
3C1
  8
0
 10
13.592849
 20
7.968087
 30
0.0
 11
13.592849
 21
8.10841
 31
0.0
  0
LINE
  5
3C2
  8
0
 10
13.592849
 20
8.10841
 30
0.0
 11
13.592849
 21
9.468087
 31
0.0
  0
LINE
  5
3C3
  8
0
 10
13.592849
 20
9.468087
 30
0.0
 11
13.592849
 21
9.496152
 31
0.0
  0
LINE
  5
3C4
  8
0
 10
13.592849
 20
9.496152
 30
0.0
 11
13.592849
 21
9.768087
 31
0.0
  0
LINE
  5
3C5
  8
0
 10
13.592849
 20
9.768087
 30
0.0
 11
13.592849
 21
9.90841
 31
0.0
  0
LINE
  5
3C6
  8
0
 10
13.592849
 20
9.90841
 30
0.0
 11
13.592849
 21
11.268087
 31
0.0
  0
LINE
  5
3C7
  8
0
 10
13.592849
 20
11.268087
 30
0.0
 11
13.592849
 21
11.296152
 31
0.0
  0
LINE
  5
3C8
  8
0
 10
13.592849
 20
11.296152
 30
0.0
 11
13.592849
 21
11.568087
 31
0.0
  0
LINE
  5
3C9
  8
0
 10
13.592849
 20
11.568087
 30
0.0
 11
13.592849
 21
11.70841
 31
0.0
  0
LINE
  5
3CA
  8
0
 10
13.592849
 20
11.70841
 30
0.0
 11
13.592849
 21
13.068087
 31
0.0
  0
LINE
  5
3CB
  8
0
 10
13.592849
 20
13.068087
 30
0.0
 11
13.592849
 21
13.096152
 31
0.0
  0
LINE
  5
3CC
  8
0
 10
13.592849
 20
13.096152
 30
0.0
 11
13.592849
 21
13.368087
 31
0.0
  0
LINE
  5
3CD
  8
0
 10
13.592849
 20
13.368087
 30
0.0
 11
13.592849
 21
13.50841
 31
0.0
  0
LINE
  5
3CE
  8
0
 10
13.592849
 20
13.50841
 30
0.0
 11
13.592849
 21
14.607935
 31
0.0
  0
LINE
  5
3CF
  8
0
 10
13.592849
 20
14.607935
 30
0.0
 11
13.592849
 21
14.636
 31
0.0
  0
LINE
  5
3D0
  8
0
 10
14.092849
 20
0.654
 30
0.0
 11
14.092849
 21
0.925935
 31
0.0
  0
LINE
  5
3D1
  8
0
 10
14.092849
 20
0.654
 30
0.0
 11
14.092849
 21
0.925935
 31
0.0
  0
LINE
  5
3D2
  8
0
 10
14.092849
 20
0.925935
 30
0.0
 11
14.092849
 21
1.027248
 31
0.0
  0
LINE
  5
3D3
  8
0
 10
14.092849
 20
1.027248
 30
0.0
 11
14.092849
 21
2.386926
 31
0.0
  0
LINE
  5
3D4
  8
0
 10
14.092849
 20
2.386926
 30
0.0
 11
14.092849
 21
2.41499
 31
0.0
  0
LINE
  5
3D5
  8
0
 10
14.092849
 20
2.41499
 30
0.0
 11
14.092849
 21
2.686926
 31
0.0
  0
LINE
  5
3D6
  8
0
 10
14.092849
 20
2.686926
 30
0.0
 11
14.092849
 21
2.827248
 31
0.0
  0
LINE
  5
3D7
  8
0
 10
14.092849
 20
2.827248
 30
0.0
 11
14.092849
 21
4.186926
 31
0.0
  0
LINE
  5
3D8
  8
0
 10
14.092849
 20
4.186926
 30
0.0
 11
14.092849
 21
4.21499
 31
0.0
  0
LINE
  5
3D9
  8
0
 10
14.092849
 20
4.21499
 30
0.0
 11
14.092849
 21
4.486926
 31
0.0
  0
LINE
  5
3DA
  8
0
 10
14.092849
 20
4.486926
 30
0.0
 11
14.092849
 21
4.627248
 31
0.0
  0
LINE
  5
3DB
  8
0
 10
14.092849
 20
4.627248
 30
0.0
 11
14.092849
 21
5.986926
 31
0.0
  0
LINE
  5
3DC
  8
0
 10
14.092849
 20
5.986926
 30
0.0
 11
14.092849
 21
6.01499
 31
0.0
  0
LINE
  5
3DD
  8
0
 10
14.092849
 20
6.01499
 30
0.0
 11
14.092849
 21
6.286926
 31
0.0
  0
LINE
  5
3DE
  8
0
 10
14.092849
 20
6.286926
 30
0.0
 11
14.092849
 21
6.427248
 31
0.0
  0
LINE
  5
3DF
  8
0
 10
14.092849
 20
6.427248
 30
0.0
 11
14.092849
 21
7.786926
 31
0.0
  0
LINE
  5
3E0
  8
0
 10
14.092849
 20
7.786926
 30
0.0
 11
14.092849
 21
7.81499
 31
0.0
  0
LINE
  5
3E1
  8
0
 10
14.092849
 20
7.81499
 30
0.0
 11
14.092849
 21
8.086926
 31
0.0
  0
LINE
  5
3E2
  8
0
 10
14.092849
 20
8.086926
 30
0.0
 11
14.092849
 21
8.227248
 31
0.0
  0
LINE
  5
3E3
  8
0
 10
14.092849
 20
8.227248
 30
0.0
 11
14.092849
 21
9.586926
 31
0.0
  0
LINE
  5
3E4
  8
0
 10
14.092849
 20
9.586926
 30
0.0
 11
14.092849
 21
9.61499
 31
0.0
  0
LINE
  5
3E5
  8
0
 10
14.092849
 20
9.61499
 30
0.0
 11
14.092849
 21
9.886926
 31
0.0
  0
LINE
  5
3E6
  8
0
 10
14.092849
 20
9.886926
 30
0.0
 11
14.092849
 21
10.027248
 31
0.0
  0
LINE
  5
3E7
  8
0
 10
14.092849
 20
10.027248
 30
0.0
 11
14.092849
 21
11.386926
 31
0.0
  0
LINE
  5
3E8
  8
0
 10
14.092849
 20
11.386926
 30
0.0
 11
14.092849
 21
11.41499
 31
0.0
  0
LINE
  5
3E9
  8
0
 10
14.092849
 20
11.41499
 30
0.0
 11
14.092849
 21
11.686926
 31
0.0
  0
LINE
  5
3EA
  8
0
 10
14.092849
 20
11.686926
 30
0.0
 11
14.092849
 21
11.827248
 31
0.0
  0
LINE
  5
3EB
  8
0
 10
14.092849
 20
11.827248
 30
0.0
 11
14.092849
 21
13.186926
 31
0.0
  0
LINE
  5
3EC
  8
0
 10
14.092849
 20
13.186926
 30
0.0
 11
14.092849
 21
13.21499
 31
0.0
  0
LINE
  5
3ED
  8
0
 10
14.092849
 20
13.21499
 30
0.0
 11
14.092849
 21
13.486926
 31
0.0
  0
LINE
  5
3EE
  8
0
 10
14.092849
 20
13.486926
 30
0.0
 11
14.092849
 21
13.627248
 31
0.0
  0
LINE
  5
3EF
  8
0
 10
14.092849
 20
13.627248
 30
0.0
 11
14.092849
 21
14.608935
 31
0.0
  0
LINE
  5
3F0
  8
0
 10
14.092849
 20
14.608935
 30
0.0
 11
14.092849
 21
14.637
 31
0.0
  0
LINE
  5
3F1
  8
0
 10
14.592849
 20
1.226
 30
0.0
 11
14.592849
 21
1.497935
 31
0.0
  0
LINE
  5
3F2
  8
0
 10
14.592849
 20
1.226
 30
0.0
 11
14.592849
 21
1.497935
 31
0.0
  0
LINE
  5
3F3
  8
0
 10
14.592849
 20
1.497935
 30
0.0
 11
14.592849
 21
1.545832
 31
0.0
  0
LINE
  5
3F4
  8
0
 10
14.592849
 20
1.545832
 30
0.0
 11
14.592849
 21
1.573897
 31
0.0
  0
LINE
  5
3F5
  8
0
 10
14.592849
 20
1.573897
 30
0.0
 11
14.592849
 21
2.934481
 31
0.0
  0
LINE
  5
3F6
  8
0
 10
14.592849
 20
2.934481
 30
0.0
 11
14.592849
 21
3.074803
 31
0.0
  0
LINE
  5
3F7
  8
0
 10
14.592849
 20
3.074803
 30
0.0
 11
14.592849
 21
3.345832
 31
0.0
  0
LINE
  5
3F8
  8
0
 10
14.592849
 20
3.345832
 30
0.0
 11
14.592849
 21
3.373897
 31
0.0
  0
LINE
  5
3F9
  8
0
 10
14.592849
 20
3.373897
 30
0.0
 11
14.592849
 21
4.734481
 31
0.0
  0
LINE
  5
3FA
  8
0
 10
14.592849
 20
4.734481
 30
0.0
 11
14.592849
 21
4.874803
 31
0.0
  0
LINE
  5
3FB
  8
0
 10
14.592849
 20
4.874803
 30
0.0
 11
14.592849
 21
5.145832
 31
0.0
  0
LINE
  5
3FC
  8
0
 10
14.592849
 20
5.145832
 30
0.0
 11
14.592849
 21
5.173897
 31
0.0
  0
LINE
  5
3FD
  8
0
 10
14.592849
 20
5.173897
 30
0.0
 11
14.592849
 21
6.534481
 31
0.0
  0
LINE
  5
3FE
  8
0
 10
14.592849
 20
6.534481
 30
0.0
 11
14.592849
 21
6.674803
 31
0.0
  0
LINE
  5
3FF
  8
0
 10
14.592849
 20
6.674803
 30
0.0
 11
14.592849
 21
6.945832
 31
0.0
  0
LINE
  5
400
  8
0
 10
14.592849
 20
6.945832
 30
0.0
 11
14.592849
 21
6.973897
 31
0.0
  0
LINE
  5
401
  8
0
 10
14.592849
 20
6.973897
 30
0.0
 11
14.592849
 21
8.334481
 31
0.0
  0
LINE
  5
402
  8
0
 10
14.592849
 20
8.334481
 30
0.0
 11
14.592849
 21
8.474803
 31
0.0
  0
LINE
  5
403
  8
0
 10
14.592849
 20
8.474803
 30
0.0
 11
14.592849
 21
8.745832
 31
0.0
  0
LINE
  5
404
  8
0
 10
14.592849
 20
8.745832
 30
0.0
 11
14.592849
 21
8.773897
 31
0.0
  0
LINE
  5
405
  8
0
 10
14.592849
 20
8.773897
 30
0.0
 11
14.592849
 21
10.134481
 31
0.0
  0
LINE
  5
406
  8
0
 10
14.592849
 20
10.134481
 30
0.0
 11
14.592849
 21
10.274803
 31
0.0
  0
LINE
  5
407
  8
0
 10
14.592849
 20
10.274803
 30
0.0
 11
14.592849
 21
10.545832
 31
0.0
  0
LINE
  5
408
  8
0
 10
14.592849
 20
10.545832
 30
0.0
 11
14.592849
 21
10.573897
 31
0.0
  0
LINE
  5
409
  8
0
 10
14.592849
 20
10.573897
 30
0.0
 11
14.592849
 21
11.934481
 31
0.0
  0
LINE
  5
40A
  8
0
 10
14.592849
 20
11.934481
 30
0.0
 11
14.592849
 21
12.074803
 31
0.0
  0
LINE
  5
40B
  8
0
 10
14.592849
 20
12.074803
 30
0.0
 11
14.592849
 21
12.345832
 31
0.0
  0
LINE
  5
40C
  8
0
 10
14.592849
 20
12.345832
 30
0.0
 11
14.592849
 21
12.373897
 31
0.0
  0
LINE
  5
40D
  8
0
 10
14.592849
 20
12.373897
 30
0.0
 11
14.592849
 21
13.734481
 31
0.0
  0
LINE
  5
40E
  8
0
 10
14.592849
 20
13.734481
 30
0.0
 11
14.592849
 21
13.874803
 31
0.0
  0
LINE
  5
40F
  8
0
 10
14.592849
 20
13.874803
 30
0.0
 11
14.592849
 21
14.145832
 31
0.0
  0
LINE
  5
410
  8
0
 10
14.592849
 20
14.145832
 30
0.0
 11
14.592849
 21
14.609935
 31
0.0
  0
LINE
  5
411
  8
0
 10
14.592849
 20
14.609935
 30
0.0
 11
14.592849
 21
14.638
 31
0.0
  0
LINE
  5
412
  8
0
 10
1.234
 20
0.592238
 30
0.0
 11
1.321897
 21
0.592238
 31
0.0
  0
LINE
  5
413
  8
0
 10
1.234
 20
0.592238
 30
0.0
 11
1.321897
 21
0.592238
 31
0.0
  0
LINE
  5
414
  8
0
 10
1.321897
 20
0.592238
 30
0.0
 11
1.35005
 21
0.592238
 31
0.0
  0
LINE
  5
415
  8
0
 10
1.35005
 20
0.592238
 30
0.0
 11
2.709668
 21
0.592238
 31
0.0
  0
LINE
  5
416
  8
0
 10
2.709668
 20
0.592238
 30
0.0
 11
2.84999
 21
0.592238
 31
0.0
  0
LINE
  5
417
  8
0
 10
2.84999
 20
0.592238
 30
0.0
 11
3.121926
 21
0.592238
 31
0.0
  0
LINE
  5
418
  8
0
 10
3.121926
 20
0.592238
 30
0.0
 11
3.14999
 21
0.592238
 31
0.0
  0
LINE
  5
419
  8
0
 10
3.14999
 20
0.592238
 30
0.0
 11
4.509668
 21
0.592238
 31
0.0
  0
LINE
  5
41A
  8
0
 10
4.509668
 20
0.592238
 30
0.0
 11
4.64999
 21
0.592238
 31
0.0
  0
LINE
  5
41B
  8
0
 10
4.64999
 20
0.592238
 30
0.0
 11
4.921926
 21
0.592238
 31
0.0
  0
LINE
  5
41C
  8
0
 10
4.921926
 20
0.592238
 30
0.0
 11
4.94999
 21
0.592238
 31
0.0
  0
LINE
  5
41D
  8
0
 10
4.94999
 20
0.592238
 30
0.0
 11
6.309668
 21
0.592238
 31
0.0
  0
LINE
  5
41E
  8
0
 10
6.309668
 20
0.592238
 30
0.0
 11
6.44999
 21
0.592238
 31
0.0
  0
LINE
  5
41F
  8
0
 10
6.44999
 20
0.592238
 30
0.0
 11
6.721926
 21
0.592238
 31
0.0
  0
LINE
  5
420
  8
0
 10
6.721926
 20
0.592238
 30
0.0
 11
6.74999
 21
0.592238
 31
0.0
  0
LINE
  5
421
  8
0
 10
6.74999
 20
0.592238
 30
0.0
 11
6.777026
 21
0.592238
 31
0.0
  0
LINE
  5
422
  8
0
 10
6.777026
 20
0.592238
 30
0.0
 11
6.804997
 21
0.592238
 31
0.0
  0
LINE
  5
423
  8
0
 10
6.804997
 20
0.592238
 30
0.0
 11
8.164674
 21
0.592238
 31
0.0
  0
LINE
  5
424
  8
0
 10
8.164674
 20
0.592238
 30
0.0
 11
8.30509
 21
0.592238
 31
0.0
  0
LINE
  5
425
  8
0
 10
8.30509
 20
0.592238
 30
0.0
 11
8.577026
 21
0.592238
 31
0.0
  0
LINE
  5
426
  8
0
 10
8.577026
 20
0.592238
 30
0.0
 11
8.604997
 21
0.592238
 31
0.0
  0
LINE
  5
427
  8
0
 10
8.604997
 20
0.592238
 30
0.0
 11
9.964674
 21
0.592238
 31
0.0
  0
LINE
  5
428
  8
0
 10
9.964674
 20
0.592238
 30
0.0
 11
10.10509
 21
0.592238
 31
0.0
  0
LINE
  5
429
  8
0
 10
10.10509
 20
0.592238
 30
0.0
 11
10.377026
 21
0.592238
 31
0.0
  0
LINE
  5
42A
  8
0
 10
10.377026
 20
0.592238
 30
0.0
 11
10.404997
 21
0.592238
 31
0.0
  0
LINE
  5
42B
  8
0
 10
10.404997
 20
0.592238
 30
0.0
 11
11.764674
 21
0.592238
 31
0.0
  0
LINE
  5
42C
  8
0
 10
11.764674
 20
0.592238
 30
0.0
 11
11.90509
 21
0.592238
 31
0.0
  0
LINE
  5
42D
  8
0
 10
11.90509
 20
0.592238
 30
0.0
 11
12.177026
 21
0.592238
 31
0.0
  0
LINE
  5
42E
  8
0
 10
12.177026
 20
0.592238
 30
0.0
 11
12.204997
 21
0.592238
 31
0.0
  0
LINE
  5
42F
  8
0
 10
12.204997
 20
0.592238
 30
0.0
 11
13.564674
 21
0.592238
 31
0.0
  0
LINE
  5
430
  8
0
 10
13.564674
 20
0.592238
 30
0.0
 11
13.659065
 21
0.592238
 31
0.0
  0
LINE
  5
431
  8
0
 10
13.659065
 20
0.592238
 30
0.0
 11
13.931
 21
0.592238
 31
0.0
  0
LINE
  5
432
  8
0
 10
0.651
 20
1.092238
 30
0.0
 11
0.679065
 21
1.092238
 31
0.0
  0
LINE
  5
433
  8
0
 10
0.651
 20
1.092238
 30
0.0
 11
0.679065
 21
1.092238
 31
0.0
  0
LINE
  5
434
  8
0
 10
0.679065
 20
1.092238
 30
0.0
 11
1.572826
 21
1.092238
 31
0.0
  0
LINE
  5
435
  8
0
 10
1.572826
 20
1.092238
 30
0.0
 11
1.713242
 21
1.092238
 31
0.0
  0
LINE
  5
436
  8
0
 10
1.713242
 20
1.092238
 30
0.0
 11
1.985177
 21
1.092238
 31
0.0
  0
LINE
  5
437
  8
0
 10
1.985177
 20
1.092238
 30
0.0
 11
2.013148
 21
1.092238
 31
0.0
  0
LINE
  5
438
  8
0
 10
2.013148
 20
1.092238
 30
0.0
 11
3.372826
 21
1.092238
 31
0.0
  0
LINE
  5
439
  8
0
 10
3.372826
 20
1.092238
 30
0.0
 11
3.513242
 21
1.092238
 31
0.0
  0
LINE
  5
43A
  8
0
 10
3.513242
 20
1.092238
 30
0.0
 11
3.785177
 21
1.092238
 31
0.0
  0
LINE
  5
43B
  8
0
 10
3.785177
 20
1.092238
 30
0.0
 11
3.813148
 21
1.092238
 31
0.0
  0
LINE
  5
43C
  8
0
 10
3.813148
 20
1.092238
 30
0.0
 11
5.172826
 21
1.092238
 31
0.0
  0
LINE
  5
43D
  8
0
 10
5.172826
 20
1.092238
 30
0.0
 11
5.313242
 21
1.092238
 31
0.0
  0
LINE
  5
43E
  8
0
 10
5.313242
 20
1.092238
 30
0.0
 11
5.585177
 21
1.092238
 31
0.0
  0
LINE
  5
43F
  8
0
 10
5.585177
 20
1.092238
 30
0.0
 11
5.613148
 21
1.092238
 31
0.0
  0
LINE
  5
440
  8
0
 10
5.613148
 20
1.092238
 30
0.0
 11
6.972826
 21
1.092238
 31
0.0
  0
LINE
  5
441
  8
0
 10
6.972826
 20
1.092238
 30
0.0
 11
7.113242
 21
1.092238
 31
0.0
  0
LINE
  5
442
  8
0
 10
7.113242
 20
1.092238
 30
0.0
 11
7.385177
 21
1.092238
 31
0.0
  0
LINE
  5
443
  8
0
 10
7.385177
 20
1.092238
 30
0.0
 11
7.413148
 21
1.092238
 31
0.0
  0
LINE
  5
444
  8
0
 10
7.413148
 20
1.092238
 30
0.0
 11
8.772826
 21
1.092238
 31
0.0
  0
LINE
  5
445
  8
0
 10
8.772826
 20
1.092238
 30
0.0
 11
8.913242
 21
1.092238
 31
0.0
  0
LINE
  5
446
  8
0
 10
8.913242
 20
1.092238
 30
0.0
 11
9.185177
 21
1.092238
 31
0.0
  0
LINE
  5
447
  8
0
 10
9.185177
 20
1.092238
 30
0.0
 11
9.213148
 21
1.092238
 31
0.0
  0
LINE
  5
448
  8
0
 10
9.213148
 20
1.092238
 30
0.0
 11
10.572826
 21
1.092238
 31
0.0
  0
LINE
  5
449
  8
0
 10
10.572826
 20
1.092238
 30
0.0
 11
10.713242
 21
1.092238
 31
0.0
  0
LINE
  5
44A
  8
0
 10
10.713242
 20
1.092238
 30
0.0
 11
10.985177
 21
1.092238
 31
0.0
  0
LINE
  5
44B
  8
0
 10
10.985177
 20
1.092238
 30
0.0
 11
11.013148
 21
1.092238
 31
0.0
  0
LINE
  5
44C
  8
0
 10
11.013148
 20
1.092238
 30
0.0
 11
12.372826
 21
1.092238
 31
0.0
  0
LINE
  5
44D
  8
0
 10
12.372826
 20
1.092238
 30
0.0
 11
12.513242
 21
1.092238
 31
0.0
  0
LINE
  5
44E
  8
0
 10
12.513242
 20
1.092238
 30
0.0
 11
12.785177
 21
1.092238
 31
0.0
  0
LINE
  5
44F
  8
0
 10
12.785177
 20
1.092238
 30
0.0
 11
12.813148
 21
1.092238
 31
0.0
  0
LINE
  5
450
  8
0
 10
12.813148
 20
1.092238
 30
0.0
 11
14.172826
 21
1.092238
 31
0.0
  0
LINE
  5
451
  8
0
 10
14.172826
 20
1.092238
 30
0.0
 11
14.265065
 21
1.092238
 31
0.0
  0
LINE
  5
452
  8
0
 10
14.265065
 20
1.092238
 30
0.0
 11
14.537
 21
1.092238
 31
0.0
  0
LINE
  5
453
  8
0
 10
0.519
 20
1.592238
 30
0.0
 11
0.547065
 21
1.592238
 31
0.0
  0
LINE
  5
454
  8
0
 10
0.519
 20
1.592238
 30
0.0
 11
0.547065
 21
1.592238
 31
0.0
  0
LINE
  5
455
  8
0
 10
0.547065
 20
1.592238
 30
0.0
 11
1.675597
 21
1.592238
 31
0.0
  0
LINE
  5
456
  8
0
 10
1.675597
 20
1.592238
 30
0.0
 11
1.815919
 21
1.592238
 31
0.0
  0
LINE
  5
457
  8
0
 10
1.815919
 20
1.592238
 30
0.0
 11
2.087855
 21
1.592238
 31
0.0
  0
LINE
  5
458
  8
0
 10
2.087855
 20
1.592238
 30
0.0
 11
2.115919
 21
1.592238
 31
0.0
  0
LINE
  5
459
  8
0
 10
2.115919
 20
1.592238
 30
0.0
 11
3.475597
 21
1.592238
 31
0.0
  0
LINE
  5
45A
  8
0
 10
3.475597
 20
1.592238
 30
0.0
 11
3.615919
 21
1.592238
 31
0.0
  0
LINE
  5
45B
  8
0
 10
3.615919
 20
1.592238
 30
0.0
 11
3.887855
 21
1.592238
 31
0.0
  0
LINE
  5
45C
  8
0
 10
3.887855
 20
1.592238
 30
0.0
 11
3.915919
 21
1.592238
 31
0.0
  0
LINE
  5
45D
  8
0
 10
3.915919
 20
1.592238
 30
0.0
 11
5.275597
 21
1.592238
 31
0.0
  0
LINE
  5
45E
  8
0
 10
5.275597
 20
1.592238
 30
0.0
 11
5.415919
 21
1.592238
 31
0.0
  0
LINE
  5
45F
  8
0
 10
5.415919
 20
1.592238
 30
0.0
 11
5.687855
 21
1.592238
 31
0.0
  0
LINE
  5
460
  8
0
 10
5.687855
 20
1.592238
 30
0.0
 11
5.715919
 21
1.592238
 31
0.0
  0
LINE
  5
461
  8
0
 10
5.715919
 20
1.592238
 30
0.0
 11
7.075597
 21
1.592238
 31
0.0
  0
LINE
  5
462
  8
0
 10
7.075597
 20
1.592238
 30
0.0
 11
7.215919
 21
1.592238
 31
0.0
  0
LINE
  5
463
  8
0
 10
7.215919
 20
1.592238
 30
0.0
 11
7.487855
 21
1.592238
 31
0.0
  0
LINE
  5
464
  8
0
 10
7.487855
 20
1.592238
 30
0.0
 11
7.515919
 21
1.592238
 31
0.0
  0
LINE
  5
465
  8
0
 10
7.515919
 20
1.592238
 30
0.0
 11
8.875597
 21
1.592238
 31
0.0
  0
LINE
  5
466
  8
0
 10
8.875597
 20
1.592238
 30
0.0
 11
9.015919
 21
1.592238
 31
0.0
  0
LINE
  5
467
  8
0
 10
9.015919
 20
1.592238
 30
0.0
 11
9.287855
 21
1.592238
 31
0.0
  0
LINE
  5
468
  8
0
 10
9.287855
 20
1.592238
 30
0.0
 11
9.315919
 21
1.592238
 31
0.0
  0
LINE
  5
469
  8
0
 10
9.315919
 20
1.592238
 30
0.0
 11
10.675597
 21
1.592238
 31
0.0
  0
LINE
  5
46A
  8
0
 10
10.675597
 20
1.592238
 30
0.0
 11
10.815919
 21
1.592238
 31
0.0
  0
LINE
  5
46B
  8
0
 10
10.815919
 20
1.592238
 30
0.0
 11
11.087855
 21
1.592238
 31
0.0
  0
LINE
  5
46C
  8
0
 10
11.087855
 20
1.592238
 30
0.0
 11
11.115919
 21
1.592238
 31
0.0
  0
LINE
  5
46D
  8
0
 10
11.115919
 20
1.592238
 30
0.0
 11
12.475597
 21
1.592238
 31
0.0
  0
LINE
  5
46E
  8
0
 10
12.475597
 20
1.592238
 30
0.0
 11
12.615919
 21
1.592238
 31
0.0
  0
LINE
  5
46F
  8
0
 10
12.615919
 20
1.592238
 30
0.0
 11
12.887855
 21
1.592238
 31
0.0
  0
LINE
  5
470
  8
0
 10
12.887855
 20
1.592238
 30
0.0
 11
12.915919
 21
1.592238
 31
0.0
  0
LINE
  5
471
  8
0
 10
12.915919
 20
1.592238
 30
0.0
 11
14.275597
 21
1.592238
 31
0.0
  0
LINE
  5
472
  8
0
 10
14.275597
 20
1.592238
 30
0.0
 11
14.392065
 21
1.592238
 31
0.0
  0
LINE
  5
473
  8
0
 10
14.392065
 20
1.592238
 30
0.0
 11
14.664
 21
1.592238
 31
0.0
  0
LINE
  5
474
  8
0
 10
0.456
 20
2.092238
 30
0.0
 11
0.484065
 21
2.092238
 31
0.0
  0
LINE
  5
475
  8
0
 10
0.456
 20
2.092238
 30
0.0
 11
0.484065
 21
2.092238
 31
0.0
  0
LINE
  5
476
  8
0
 10
0.484065
 20
2.092238
 30
0.0
 11
1.727716
 21
2.092238
 31
0.0
  0
LINE
  5
477
  8
0
 10
1.727716
 20
2.092238
 30
0.0
 11
1.868039
 21
2.092238
 31
0.0
  0
LINE
  5
478
  8
0
 10
1.868039
 20
2.092238
 30
0.0
 11
2.139974
 21
2.092238
 31
0.0
  0
LINE
  5
479
  8
0
 10
2.139974
 20
2.092238
 30
0.0
 11
2.168039
 21
2.092238
 31
0.0
  0
LINE
  5
47A
  8
0
 10
2.168039
 20
2.092238
 30
0.0
 11
3.527716
 21
2.092238
 31
0.0
  0
LINE
  5
47B
  8
0
 10
3.527716
 20
2.092238
 30
0.0
 11
3.668039
 21
2.092238
 31
0.0
  0
LINE
  5
47C
  8
0
 10
3.668039
 20
2.092238
 30
0.0
 11
3.939974
 21
2.092238
 31
0.0
  0
LINE
  5
47D
  8
0
 10
3.939974
 20
2.092238
 30
0.0
 11
3.968039
 21
2.092238
 31
0.0
  0
LINE
  5
47E
  8
0
 10
3.968039
 20
2.092238
 30
0.0
 11
5.327716
 21
2.092238
 31
0.0
  0
LINE
  5
47F
  8
0
 10
5.327716
 20
2.092238
 30
0.0
 11
5.468039
 21
2.092238
 31
0.0
  0
LINE
  5
480
  8
0
 10
5.468039
 20
2.092238
 30
0.0
 11
5.739974
 21
2.092238
 31
0.0
  0
LINE
  5
481
  8
0
 10
5.739974
 20
2.092238
 30
0.0
 11
5.768039
 21
2.092238
 31
0.0
  0
LINE
  5
482
  8
0
 10
5.768039
 20
2.092238
 30
0.0
 11
7.127716
 21
2.092238
 31
0.0
  0
LINE
  5
483
  8
0
 10
7.127716
 20
2.092238
 30
0.0
 11
7.268039
 21
2.092238
 31
0.0
  0
LINE
  5
484
  8
0
 10
7.268039
 20
2.092238
 30
0.0
 11
7.539974
 21
2.092238
 31
0.0
  0
LINE
  5
485
  8
0
 10
7.539974
 20
2.092238
 30
0.0
 11
7.568039
 21
2.092238
 31
0.0
  0
LINE
  5
486
  8
0
 10
7.568039
 20
2.092238
 30
0.0
 11
8.927716
 21
2.092238
 31
0.0
  0
LINE
  5
487
  8
0
 10
8.927716
 20
2.092238
 30
0.0
 11
9.068039
 21
2.092238
 31
0.0
  0
LINE
  5
488
  8
0
 10
9.068039
 20
2.092238
 30
0.0
 11
9.339974
 21
2.092238
 31
0.0
  0
LINE
  5
489
  8
0
 10
9.339974
 20
2.092238
 30
0.0
 11
9.368039
 21
2.092238
 31
0.0
  0
LINE
  5
48A
  8
0
 10
9.368039
 20
2.092238
 30
0.0
 11
10.727716
 21
2.092238
 31
0.0
  0
LINE
  5
48B
  8
0
 10
10.727716
 20
2.092238
 30
0.0
 11
10.868039
 21
2.092238
 31
0.0
  0
LINE
  5
48C
  8
0
 10
10.868039
 20
2.092238
 30
0.0
 11
11.139974
 21
2.092238
 31
0.0
  0
LINE
  5
48D
  8
0
 10
11.139974
 20
2.092238
 30
0.0
 11
11.168039
 21
2.092238
 31
0.0
  0
LINE
  5
48E
  8
0
 10
11.168039
 20
2.092238
 30
0.0
 11
12.527716
 21
2.092238
 31
0.0
  0
LINE
  5
48F
  8
0
 10
12.527716
 20
2.092238
 30
0.0
 11
12.668039
 21
2.092238
 31
0.0
  0
LINE
  5
490
  8
0
 10
12.668039
 20
2.092238
 30
0.0
 11
12.939974
 21
2.092238
 31
0.0
  0
LINE
  5
491
  8
0
 10
12.939974
 20
2.092238
 30
0.0
 11
12.968039
 21
2.092238
 31
0.0
  0
LINE
  5
492
  8
0
 10
12.968039
 20
2.092238
 30
0.0
 11
14.327716
 21
2.092238
 31
0.0
  0
LINE
  5
493
  8
0
 10
14.327716
 20
2.092238
 30
0.0
 11
14.456065
 21
2.092238
 31
0.0
  0
LINE
  5
494
  8
0
 10
14.456065
 20
2.092238
 30
0.0
 11
14.728
 21
2.092238
 31
0.0
  0
LINE
  5
495
  8
0
 10
0.45
 20
2.592238
 30
0.0
 11
0.478065
 21
2.592238
 31
0.0
  0
LINE
  5
496
  8
0
 10
0.45
 20
2.592238
 30
0.0
 11
0.478065
 21
2.592238
 31
0.0
  0
LINE
  5
497
  8
0
 10
0.478065
 20
2.592238
 30
0.0
 11
1.737126
 21
2.592238
 31
0.0
  0
LINE
  5
498
  8
0
 10
1.737126
 20
2.592238
 30
0.0
 11
1.877542
 21
2.592238
 31
0.0
  0
LINE
  5
499
  8
0
 10
1.877542
 20
2.592238
 30
0.0
 11
2.149477
 21
2.592238
 31
0.0
  0
LINE
  5
49A
  8
0
 10
2.149477
 20
2.592238
 30
0.0
 11
2.177448
 21
2.592238
 31
0.0
  0
LINE
  5
49B
  8
0
 10
2.177448
 20
2.592238
 30
0.0
 11
3.537126
 21
2.592238
 31
0.0
  0
LINE
  5
49C
  8
0
 10
3.537126
 20
2.592238
 30
0.0
 11
3.677542
 21
2.592238
 31
0.0
  0
LINE
  5
49D
  8
0
 10
3.677542
 20
2.592238
 30
0.0
 11
3.949477
 21
2.592238
 31
0.0
  0
LINE
  5
49E
  8
0
 10
3.949477
 20
2.592238
 30
0.0
 11
3.977448
 21
2.592238
 31
0.0
  0
LINE
  5
49F
  8
0
 10
3.977448
 20
2.592238
 30
0.0
 11
5.337126
 21
2.592238
 31
0.0
  0
LINE
  5
4A0
  8
0
 10
5.337126
 20
2.592238
 30
0.0
 11
5.477542
 21
2.592238
 31
0.0
  0
LINE
  5
4A1
  8
0
 10
5.477542
 20
2.592238
 30
0.0
 11
5.749477
 21
2.592238
 31
0.0
  0
LINE
  5
4A2
  8
0
 10
5.749477
 20
2.592238
 30
0.0
 11
5.777448
 21
2.592238
 31
0.0
  0
LINE
  5
4A3
  8
0
 10
5.777448
 20
2.592238
 30
0.0
 11
7.137126
 21
2.592238
 31
0.0
  0
LINE
  5
4A4
  8
0
 10
7.137126
 20
2.592238
 30
0.0
 11
7.277542
 21
2.592238
 31
0.0
  0
LINE
  5
4A5
  8
0
 10
7.277542
 20
2.592238
 30
0.0
 11
7.549477
 21
2.592238
 31
0.0
  0
LINE
  5
4A6
  8
0
 10
7.549477
 20
2.592238
 30
0.0
 11
7.577448
 21
2.592238
 31
0.0
  0
LINE
  5
4A7
  8
0
 10
7.577448
 20
2.592238
 30
0.0
 11
8.937126
 21
2.592238
 31
0.0
  0
LINE
  5
4A8
  8
0
 10
8.937126
 20
2.592238
 30
0.0
 11
9.077542
 21
2.592238
 31
0.0
  0
LINE
  5
4A9
  8
0
 10
9.077542
 20
2.592238
 30
0.0
 11
9.349477
 21
2.592238
 31
0.0
  0
LINE
  5
4AA
  8
0
 10
9.349477
 20
2.592238
 30
0.0
 11
9.377448
 21
2.592238
 31
0.0
  0
LINE
  5
4AB
  8
0
 10
9.377448
 20
2.592238
 30
0.0
 11
10.737126
 21
2.592238
 31
0.0
  0
LINE
  5
4AC
  8
0
 10
10.737126
 20
2.592238
 30
0.0
 11
10.877542
 21
2.592238
 31
0.0
  0
LINE
  5
4AD
  8
0
 10
10.877542
 20
2.592238
 30
0.0
 11
11.149477
 21
2.592238
 31
0.0
  0
LINE
  5
4AE
  8
0
 10
11.149477
 20
2.592238
 30
0.0
 11
11.177448
 21
2.592238
 31
0.0
  0
LINE
  5
4AF
  8
0
 10
11.177448
 20
2.592238
 30
0.0
 11
12.537126
 21
2.592238
 31
0.0
  0
LINE
  5
4B0
  8
0
 10
12.537126
 20
2.592238
 30
0.0
 11
12.677542
 21
2.592238
 31
0.0
  0
LINE
  5
4B1
  8
0
 10
12.677542
 20
2.592238
 30
0.0
 11
12.949477
 21
2.592238
 31
0.0
  0
LINE
  5
4B2
  8
0
 10
12.949477
 20
2.592238
 30
0.0
 11
12.977448
 21
2.592238
 31
0.0
  0
LINE
  5
4B3
  8
0
 10
12.977448
 20
2.592238
 30
0.0
 11
14.337126
 21
2.592238
 31
0.0
  0
LINE
  5
4B4
  8
0
 10
14.337126
 20
2.592238
 30
0.0
 11
14.467065
 21
2.592238
 31
0.0
  0
LINE
  5
4B5
  8
0
 10
14.467065
 20
2.592238
 30
0.0
 11
14.739
 21
2.592238
 31
0.0
  0
LINE
  5
4B6
  8
0
 10
0.463
 20
3.092238
 30
0.0
 11
0.491065
 21
3.092238
 31
0.0
  0
LINE
  5
4B7
  8
0
 10
0.463
 20
3.092238
 30
0.0
 11
0.491065
 21
3.092238
 31
0.0
  0
LINE
  5
4B8
  8
0
 10
0.491065
 20
3.092238
 30
0.0
 11
1.722932
 21
3.092238
 31
0.0
  0
LINE
  5
4B9
  8
0
 10
1.722932
 20
3.092238
 30
0.0
 11
1.863255
 21
3.092238
 31
0.0
  0
LINE
  5
4BA
  8
0
 10
1.863255
 20
3.092238
 30
0.0
 11
2.13519
 21
3.092238
 31
0.0
  0
LINE
  5
4BB
  8
0
 10
2.13519
 20
3.092238
 30
0.0
 11
2.163255
 21
3.092238
 31
0.0
  0
LINE
  5
4BC
  8
0
 10
2.163255
 20
3.092238
 30
0.0
 11
3.522932
 21
3.092238
 31
0.0
  0
LINE
  5
4BD
  8
0
 10
3.522932
 20
3.092238
 30
0.0
 11
3.663255
 21
3.092238
 31
0.0
  0
LINE
  5
4BE
  8
0
 10
3.663255
 20
3.092238
 30
0.0
 11
3.93519
 21
3.092238
 31
0.0
  0
LINE
  5
4BF
  8
0
 10
3.93519
 20
3.092238
 30
0.0
 11
3.963255
 21
3.092238
 31
0.0
  0
LINE
  5
4C0
  8
0
 10
3.963255
 20
3.092238
 30
0.0
 11
5.322932
 21
3.092238
 31
0.0
  0
LINE
  5
4C1
  8
0
 10
5.322932
 20
3.092238
 30
0.0
 11
5.463255
 21
3.092238
 31
0.0
  0
LINE
  5
4C2
  8
0
 10
5.463255
 20
3.092238
 30
0.0
 11
5.73519
 21
3.092238
 31
0.0
  0
LINE
  5
4C3
  8
0
 10
5.73519
 20
3.092238
 30
0.0
 11
5.763255
 21
3.092238
 31
0.0
  0
LINE
  5
4C4
  8
0
 10
5.763255
 20
3.092238
 30
0.0
 11
7.122932
 21
3.092238
 31
0.0
  0
LINE
  5
4C5
  8
0
 10
7.122932
 20
3.092238
 30
0.0
 11
7.263255
 21
3.092238
 31
0.0
  0
LINE
  5
4C6
  8
0
 10
7.263255
 20
3.092238
 30
0.0
 11
7.53519
 21
3.092238
 31
0.0
  0
LINE
  5
4C7
  8
0
 10
7.53519
 20
3.092238
 30
0.0
 11
7.563255
 21
3.092238
 31
0.0
  0
LINE
  5
4C8
  8
0
 10
7.563255
 20
3.092238
 30
0.0
 11
8.922932
 21
3.092238
 31
0.0
  0
LINE
  5
4C9
  8
0
 10
8.922932
 20
3.092238
 30
0.0
 11
9.063255
 21
3.092238
 31
0.0
  0
LINE
  5
4CA
  8
0
 10
9.063255
 20
3.092238
 30
0.0
 11
9.33519
 21
3.092238
 31
0.0
  0
LINE
  5
4CB
  8
0
 10
9.33519
 20
3.092238
 30
0.0
 11
9.363255
 21
3.092238
 31
0.0
  0
LINE
  5
4CC
  8
0
 10
9.363255
 20
3.092238
 30
0.0
 11
10.722932
 21
3.092238
 31
0.0
  0
LINE
  5
4CD
  8
0
 10
10.722932
 20
3.092238
 30
0.0
 11
10.863255
 21
3.092238
 31
0.0
  0
LINE
  5
4CE
  8
0
 10
10.863255
 20
3.092238
 30
0.0
 11
11.13519
 21
3.092238
 31
0.0
  0
LINE
  5
4CF
  8
0
 10
11.13519
 20
3.092238
 30
0.0
 11
11.163255
 21
3.092238
 31
0.0
  0
LINE
  5
4D0
  8
0
 10
11.163255
 20
3.092238
 30
0.0
 11
12.522932
 21
3.092238
 31
0.0
  0
LINE
  5
4D1
  8
0
 10
12.522932
 20
3.092238
 30
0.0
 11
12.663255
 21
3.092238
 31
0.0
  0
LINE
  5
4D2
  8
0
 10
12.663255
 20
3.092238
 30
0.0
 11
12.93519
 21
3.092238
 31
0.0
  0
LINE
  5
4D3
  8
0
 10
12.93519
 20
3.092238
 30
0.0
 11
12.963255
 21
3.092238
 31
0.0
  0
LINE
  5
4D4
  8
0
 10
12.963255
 20
3.092238
 30
0.0
 11
14.322932
 21
3.092238
 31
0.0
  0
LINE
  5
4D5
  8
0
 10
14.322932
 20
3.092238
 30
0.0
 11
14.450065
 21
3.092238
 31
0.0
  0
LINE
  5
4D6
  8
0
 10
14.450065
 20
3.092238
 30
0.0
 11
14.722
 21
3.092238
 31
0.0
  0
LINE
  5
4D7
  8
0
 10
0.476
 20
3.592238
 30
0.0
 11
0.504065
 21
3.592238
 31
0.0
  0
LINE
  5
4D8
  8
0
 10
0.476
 20
3.592238
 30
0.0
 11
0.504065
 21
3.592238
 31
0.0
  0
LINE
  5
4D9
  8
0
 10
0.504065
 20
3.592238
 30
0.0
 11
1.707832
 21
3.592238
 31
0.0
  0
LINE
  5
4DA
  8
0
 10
1.707832
 20
3.592238
 30
0.0
 11
1.848155
 21
3.592238
 31
0.0
  0
LINE
  5
4DB
  8
0
 10
1.848155
 20
3.592238
 30
0.0
 11
2.12009
 21
3.592238
 31
0.0
  0
LINE
  5
4DC
  8
0
 10
2.12009
 20
3.592238
 30
0.0
 11
2.148155
 21
3.592238
 31
0.0
  0
LINE
  5
4DD
  8
0
 10
2.148155
 20
3.592238
 30
0.0
 11
3.507832
 21
3.592238
 31
0.0
  0
LINE
  5
4DE
  8
0
 10
3.507832
 20
3.592238
 30
0.0
 11
3.648155
 21
3.592238
 31
0.0
  0
LINE
  5
4DF
  8
0
 10
3.648155
 20
3.592238
 30
0.0
 11
3.92009
 21
3.592238
 31
0.0
  0
LINE
  5
4E0
  8
0
 10
3.92009
 20
3.592238
 30
0.0
 11
3.948155
 21
3.592238
 31
0.0
  0
LINE
  5
4E1
  8
0
 10
3.948155
 20
3.592238
 30
0.0
 11
5.307832
 21
3.592238
 31
0.0
  0
LINE
  5
4E2
  8
0
 10
5.307832
 20
3.592238
 30
0.0
 11
5.448155
 21
3.592238
 31
0.0
  0
LINE
  5
4E3
  8
0
 10
5.448155
 20
3.592238
 30
0.0
 11
5.72009
 21
3.592238
 31
0.0
  0
LINE
  5
4E4
  8
0
 10
5.72009
 20
3.592238
 30
0.0
 11
5.748155
 21
3.592238
 31
0.0
  0
LINE
  5
4E5
  8
0
 10
5.748155
 20
3.592238
 30
0.0
 11
7.107832
 21
3.592238
 31
0.0
  0
LINE
  5
4E6
  8
0
 10
7.107832
 20
3.592238
 30
0.0
 11
7.248155
 21
3.592238
 31
0.0
  0
LINE
  5
4E7
  8
0
 10
7.248155
 20
3.592238
 30
0.0
 11
7.52009
 21
3.592238
 31
0.0
  0
LINE
  5
4E8
  8
0
 10
7.52009
 20
3.592238
 30
0.0
 11
7.548155
 21
3.592238
 31
0.0
  0
LINE
  5
4E9
  8
0
 10
7.548155
 20
3.592238
 30
0.0
 11
8.907832
 21
3.592238
 31
0.0
  0
LINE
  5
4EA
  8
0
 10
8.907832
 20
3.592238
 30
0.0
 11
9.048155
 21
3.592238
 31
0.0
  0
LINE
  5
4EB
  8
0
 10
9.048155
 20
3.592238
 30
0.0
 11
9.32009
 21
3.592238
 31
0.0
  0
LINE
  5
4EC
  8
0
 10
9.32009
 20
3.592238
 30
0.0
 11
9.348155
 21
3.592238
 31
0.0
  0
LINE
  5
4ED
  8
0
 10
9.348155
 20
3.592238
 30
0.0
 11
10.707832
 21
3.592238
 31
0.0
  0
LINE
  5
4EE
  8
0
 10
10.707832
 20
3.592238
 30
0.0
 11
10.848155
 21
3.592238
 31
0.0
  0
LINE
  5
4EF
  8
0
 10
10.848155
 20
3.592238
 30
0.0
 11
11.12009
 21
3.592238
 31
0.0
  0
LINE
  5
4F0
  8
0
 10
11.12009
 20
3.592238
 30
0.0
 11
11.148155
 21
3.592238
 31
0.0
  0
LINE
  5
4F1
  8
0
 10
11.148155
 20
3.592238
 30
0.0
 11
12.507832
 21
3.592238
 31
0.0
  0
LINE
  5
4F2
  8
0
 10
12.507832
 20
3.592238
 30
0.0
 11
12.648155
 21
3.592238
 31
0.0
  0
LINE
  5
4F3
  8
0
 10
12.648155
 20
3.592238
 30
0.0
 11
12.92009
 21
3.592238
 31
0.0
  0
LINE
  5
4F4
  8
0
 10
12.92009
 20
3.592238
 30
0.0
 11
12.948155
 21
3.592238
 31
0.0
  0
LINE
  5
4F5
  8
0
 10
12.948155
 20
3.592238
 30
0.0
 11
14.307832
 21
3.592238
 31
0.0
  0
LINE
  5
4F6
  8
0
 10
14.307832
 20
3.592238
 30
0.0
 11
14.432065
 21
3.592238
 31
0.0
  0
LINE
  5
4F7
  8
0
 10
14.432065
 20
3.592238
 30
0.0
 11
14.704
 21
3.592238
 31
0.0
  0
LINE
  5
4F8
  8
0
 10
0.488
 20
4.092238
 30
0.0
 11
0.516065
 21
4.092238
 31
0.0
  0
LINE
  5
4F9
  8
0
 10
0.488
 20
4.092238
 30
0.0
 11
0.516065
 21
4.092238
 31
0.0
  0
LINE
  5
4FA
  8
0
 10
0.516065
 20
4.092238
 30
0.0
 11
1.693545
 21
4.092238
 31
0.0
  0
LINE
  5
4FB
  8
0
 10
1.693545
 20
4.092238
 30
0.0
 11
1.833868
 21
4.092238
 31
0.0
  0
LINE
  5
4FC
  8
0
 10
1.833868
 20
4.092238
 30
0.0
 11
2.104897
 21
4.092238
 31
0.0
  0
LINE
  5
4FD
  8
0
 10
2.104897
 20
4.092238
 30
0.0
 11
2.132961
 21
4.092238
 31
0.0
  0
LINE
  5
4FE
  8
0
 10
2.132961
 20
4.092238
 30
0.0
 11
3.493545
 21
4.092238
 31
0.0
  0
LINE
  5
4FF
  8
0
 10
3.493545
 20
4.092238
 30
0.0
 11
3.633868
 21
4.092238
 31
0.0
  0
LINE
  5
500
  8
0
 10
3.633868
 20
4.092238
 30
0.0
 11
3.904897
 21
4.092238
 31
0.0
  0
LINE
  5
501
  8
0
 10
3.904897
 20
4.092238
 30
0.0
 11
3.932961
 21
4.092238
 31
0.0
  0
LINE
  5
502
  8
0
 10
3.932961
 20
4.092238
 30
0.0
 11
5.293545
 21
4.092238
 31
0.0
  0
LINE
  5
503
  8
0
 10
5.293545
 20
4.092238
 30
0.0
 11
5.433868
 21
4.092238
 31
0.0
  0
LINE
  5
504
  8
0
 10
5.433868
 20
4.092238
 30
0.0
 11
5.704897
 21
4.092238
 31
0.0
  0
LINE
  5
505
  8
0
 10
5.704897
 20
4.092238
 30
0.0
 11
5.732961
 21
4.092238
 31
0.0
  0
LINE
  5
506
  8
0
 10
5.732961
 20
4.092238
 30
0.0
 11
7.093545
 21
4.092238
 31
0.0
  0
LINE
  5
507
  8
0
 10
7.093545
 20
4.092238
 30
0.0
 11
7.233868
 21
4.092238
 31
0.0
  0
LINE
  5
508
  8
0
 10
7.233868
 20
4.092238
 30
0.0
 11
7.504897
 21
4.092238
 31
0.0
  0
LINE
  5
509
  8
0
 10
7.504897
 20
4.092238
 30
0.0
 11
7.532961
 21
4.092238
 31
0.0
  0
LINE
  5
50A
  8
0
 10
7.532961
 20
4.092238
 30
0.0
 11
8.893545
 21
4.092238
 31
0.0
  0
LINE
  5
50B
  8
0
 10
8.893545
 20
4.092238
 30
0.0
 11
9.033868
 21
4.092238
 31
0.0
  0
LINE
  5
50C
  8
0
 10
9.033868
 20
4.092238
 30
0.0
 11
9.304897
 21
4.092238
 31
0.0
  0
LINE
  5
50D
  8
0
 10
9.304897
 20
4.092238
 30
0.0
 11
9.332961
 21
4.092238
 31
0.0
  0
LINE
  5
50E
  8
0
 10
9.332961
 20
4.092238
 30
0.0
 11
10.693545
 21
4.092238
 31
0.0
  0
LINE
  5
50F
  8
0
 10
10.693545
 20
4.092238
 30
0.0
 11
10.833868
 21
4.092238
 31
0.0
  0
LINE
  5
510
  8
0
 10
10.833868
 20
4.092238
 30
0.0
 11
11.104897
 21
4.092238
 31
0.0
  0
LINE
  5
511
  8
0
 10
11.104897
 20
4.092238
 30
0.0
 11
11.132961
 21
4.092238
 31
0.0
  0
LINE
  5
512
  8
0
 10
11.132961
 20
4.092238
 30
0.0
 11
12.493545
 21
4.092238
 31
0.0
  0
LINE
  5
513
  8
0
 10
12.493545
 20
4.092238
 30
0.0
 11
12.633868
 21
4.092238
 31
0.0
  0
LINE
  5
514
  8
0
 10
12.633868
 20
4.092238
 30
0.0
 11
12.904897
 21
4.092238
 31
0.0
  0
LINE
  5
515
  8
0
 10
12.904897
 20
4.092238
 30
0.0
 11
12.932961
 21
4.092238
 31
0.0
  0
LINE
  5
516
  8
0
 10
12.932961
 20
4.092238
 30
0.0
 11
14.293545
 21
4.092238
 31
0.0
  0
LINE
  5
517
  8
0
 10
14.293545
 20
4.092238
 30
0.0
 11
14.415065
 21
4.092238
 31
0.0
  0
LINE
  5
518
  8
0
 10
14.415065
 20
4.092238
 30
0.0
 11
14.687
 21
4.092238
 31
0.0
  0
LINE
  5
519
  8
0
 10
0.501
 20
4.592238
 30
0.0
 11
0.529065
 21
4.592238
 31
0.0
  0
LINE
  5
51A
  8
0
 10
0.501
 20
4.592238
 30
0.0
 11
0.529065
 21
4.592238
 31
0.0
  0
LINE
  5
51B
  8
0
 10
0.529065
 20
4.592238
 30
0.0
 11
1.678445
 21
4.592238
 31
0.0
  0
LINE
  5
51C
  8
0
 10
1.678445
 20
4.592238
 30
0.0
 11
1.818768
 21
4.592238
 31
0.0
  0
LINE
  5
51D
  8
0
 10
1.818768
 20
4.592238
 30
0.0
 11
2.090703
 21
4.592238
 31
0.0
  0
LINE
  5
51E
  8
0
 10
2.090703
 20
4.592238
 30
0.0
 11
2.118768
 21
4.592238
 31
0.0
  0
LINE
  5
51F
  8
0
 10
2.118768
 20
4.592238
 30
0.0
 11
3.478445
 21
4.592238
 31
0.0
  0
LINE
  5
520
  8
0
 10
3.478445
 20
4.592238
 30
0.0
 11
3.618768
 21
4.592238
 31
0.0
  0
LINE
  5
521
  8
0
 10
3.618768
 20
4.592238
 30
0.0
 11
3.890703
 21
4.592238
 31
0.0
  0
LINE
  5
522
  8
0
 10
3.890703
 20
4.592238
 30
0.0
 11
3.918768
 21
4.592238
 31
0.0
  0
LINE
  5
523
  8
0
 10
3.918768
 20
4.592238
 30
0.0
 11
5.278445
 21
4.592238
 31
0.0
  0
LINE
  5
524
  8
0
 10
5.278445
 20
4.592238
 30
0.0
 11
5.418768
 21
4.592238
 31
0.0
  0
LINE
  5
525
  8
0
 10
5.418768
 20
4.592238
 30
0.0
 11
5.690703
 21
4.592238
 31
0.0
  0
LINE
  5
526
  8
0
 10
5.690703
 20
4.592238
 30
0.0
 11
5.718768
 21
4.592238
 31
0.0
  0
LINE
  5
527
  8
0
 10
5.718768
 20
4.592238
 30
0.0
 11
7.078445
 21
4.592238
 31
0.0
  0
LINE
  5
528
  8
0
 10
7.078445
 20
4.592238
 30
0.0
 11
7.218768
 21
4.592238
 31
0.0
  0
LINE
  5
529
  8
0
 10
7.218768
 20
4.592238
 30
0.0
 11
7.490703
 21
4.592238
 31
0.0
  0
LINE
  5
52A
  8
0
 10
7.490703
 20
4.592238
 30
0.0
 11
7.518768
 21
4.592238
 31
0.0
  0
LINE
  5
52B
  8
0
 10
7.518768
 20
4.592238
 30
0.0
 11
8.878445
 21
4.592238
 31
0.0
  0
LINE
  5
52C
  8
0
 10
8.878445
 20
4.592238
 30
0.0
 11
9.018768
 21
4.592238
 31
0.0
  0
LINE
  5
52D
  8
0
 10
9.018768
 20
4.592238
 30
0.0
 11
9.290703
 21
4.592238
 31
0.0
  0
LINE
  5
52E
  8
0
 10
9.290703
 20
4.592238
 30
0.0
 11
9.318768
 21
4.592238
 31
0.0
  0
LINE
  5
52F
  8
0
 10
9.318768
 20
4.592238
 30
0.0
 11
10.678445
 21
4.592238
 31
0.0
  0
LINE
  5
530
  8
0
 10
10.678445
 20
4.592238
 30
0.0
 11
10.818768
 21
4.592238
 31
0.0
  0
LINE
  5
531
  8
0
 10
10.818768
 20
4.592238
 30
0.0
 11
11.090703
 21
4.592238
 31
0.0
  0
LINE
  5
532
  8
0
 10
11.090703
 20
4.592238
 30
0.0
 11
11.118768
 21
4.592238
 31
0.0
  0
LINE
  5
533
  8
0
 10
11.118768
 20
4.592238
 30
0.0
 11
12.478445
 21
4.592238
 31
0.0
  0
LINE
  5
534
  8
0
 10
12.478445
 20
4.592238
 30
0.0
 11
12.618768
 21
4.592238
 31
0.0
  0
LINE
  5
535
  8
0
 10
12.618768
 20
4.592238
 30
0.0
 11
12.890703
 21
4.592238
 31
0.0
  0
LINE
  5
536
  8
0
 10
12.890703
 20
4.592238
 30
0.0
 11
12.918768
 21
4.592238
 31
0.0
  0
LINE
  5
537
  8
0
 10
12.918768
 20
4.592238
 30
0.0
 11
14.278445
 21
4.592238
 31
0.0
  0
LINE
  5
538
  8
0
 10
14.278445
 20
4.592238
 30
0.0
 11
14.397065
 21
4.592238
 31
0.0
  0
LINE
  5
539
  8
0
 10
14.397065
 20
4.592238
 30
0.0
 11
14.669
 21
4.592238
 31
0.0
  0
LINE
  5
53A
  8
0
 10
0.513
 20
5.092238
 30
0.0
 11
0.541065
 21
5.092238
 31
0.0
  0
LINE
  5
53B
  8
0
 10
0.513
 20
5.092238
 30
0.0
 11
0.541065
 21
5.092238
 31
0.0
  0
LINE
  5
53C
  8
0
 10
0.541065
 20
5.092238
 30
0.0
 11
1.663252
 21
5.092238
 31
0.0
  0
LINE
  5
53D
  8
0
 10
1.663252
 20
5.092238
 30
0.0
 11
1.803668
 21
5.092238
 31
0.0
  0
LINE
  5
53E
  8
0
 10
1.803668
 20
5.092238
 30
0.0
 11
2.075603
 21
5.092238
 31
0.0
  0
LINE
  5
53F
  8
0
 10
2.075603
 20
5.092238
 30
0.0
 11
2.103574
 21
5.092238
 31
0.0
  0
LINE
  5
540
  8
0
 10
2.103574
 20
5.092238
 30
0.0
 11
3.463252
 21
5.092238
 31
0.0
  0
LINE
  5
541
  8
0
 10
3.463252
 20
5.092238
 30
0.0
 11
3.603668
 21
5.092238
 31
0.0
  0
LINE
  5
542
  8
0
 10
3.603668
 20
5.092238
 30
0.0
 11
3.875603
 21
5.092238
 31
0.0
  0
LINE
  5
543
  8
0
 10
3.875603
 20
5.092238
 30
0.0
 11
3.903574
 21
5.092238
 31
0.0
  0
LINE
  5
544
  8
0
 10
3.903574
 20
5.092238
 30
0.0
 11
5.263252
 21
5.092238
 31
0.0
  0
LINE
  5
545
  8
0
 10
5.263252
 20
5.092238
 30
0.0
 11
5.403668
 21
5.092238
 31
0.0
  0
LINE
  5
546
  8
0
 10
5.403668
 20
5.092238
 30
0.0
 11
5.675603
 21
5.092238
 31
0.0
  0
LINE
  5
547
  8
0
 10
5.675603
 20
5.092238
 30
0.0
 11
5.703574
 21
5.092238
 31
0.0
  0
LINE
  5
548
  8
0
 10
5.703574
 20
5.092238
 30
0.0
 11
7.063252
 21
5.092238
 31
0.0
  0
LINE
  5
549
  8
0
 10
7.063252
 20
5.092238
 30
0.0
 11
7.203668
 21
5.092238
 31
0.0
  0
LINE
  5
54A
  8
0
 10
7.203668
 20
5.092238
 30
0.0
 11
7.475603
 21
5.092238
 31
0.0
  0
LINE
  5
54B
  8
0
 10
7.475603
 20
5.092238
 30
0.0
 11
7.503574
 21
5.092238
 31
0.0
  0
LINE
  5
54C
  8
0
 10
7.503574
 20
5.092238
 30
0.0
 11
8.863252
 21
5.092238
 31
0.0
  0
LINE
  5
54D
  8
0
 10
8.863252
 20
5.092238
 30
0.0
 11
9.003668
 21
5.092238
 31
0.0
  0
LINE
  5
54E
  8
0
 10
9.003668
 20
5.092238
 30
0.0
 11
9.275603
 21
5.092238
 31
0.0
  0
LINE
  5
54F
  8
0
 10
9.275603
 20
5.092238
 30
0.0
 11
9.303574
 21
5.092238
 31
0.0
  0
LINE
  5
550
  8
0
 10
9.303574
 20
5.092238
 30
0.0
 11
10.663252
 21
5.092238
 31
0.0
  0
LINE
  5
551
  8
0
 10
10.663252
 20
5.092238
 30
0.0
 11
10.803668
 21
5.092238
 31
0.0
  0
LINE
  5
552
  8
0
 10
10.803668
 20
5.092238
 30
0.0
 11
11.075603
 21
5.092238
 31
0.0
  0
LINE
  5
553
  8
0
 10
11.075603
 20
5.092238
 30
0.0
 11
11.103574
 21
5.092238
 31
0.0
  0
LINE
  5
554
  8
0
 10
11.103574
 20
5.092238
 30
0.0
 11
12.463252
 21
5.092238
 31
0.0
  0
LINE
  5
555
  8
0
 10
12.463252
 20
5.092238
 30
0.0
 11
12.603668
 21
5.092238
 31
0.0
  0
LINE
  5
556
  8
0
 10
12.603668
 20
5.092238
 30
0.0
 11
12.875603
 21
5.092238
 31
0.0
  0
LINE
  5
557
  8
0
 10
12.875603
 20
5.092238
 30
0.0
 11
12.903574
 21
5.092238
 31
0.0
  0
LINE
  5
558
  8
0
 10
12.903574
 20
5.092238
 30
0.0
 11
14.263252
 21
5.092238
 31
0.0
  0
LINE
  5
559
  8
0
 10
14.263252
 20
5.092238
 30
0.0
 11
14.379065
 21
5.092238
 31
0.0
  0
LINE
  5
55A
  8
0
 10
14.379065
 20
5.092238
 30
0.0
 11
14.651
 21
5.092238
 31
0.0
  0
LINE
  5
55B
  8
0
 10
0.526
 20
5.592238
 30
0.0
 11
0.554065
 21
5.592238
 31
0.0
  0
LINE
  5
55C
  8
0
 10
0.526
 20
5.592238
 30
0.0
 11
0.554065
 21
5.592238
 31
0.0
  0
LINE
  5
55D
  8
0
 10
0.554065
 20
5.592238
 30
0.0
 11
1.649058
 21
5.592238
 31
0.0
  0
LINE
  5
55E
  8
0
 10
1.649058
 20
5.592238
 30
0.0
 11
1.789381
 21
5.592238
 31
0.0
  0
LINE
  5
55F
  8
0
 10
1.789381
 20
5.592238
 30
0.0
 11
2.061316
 21
5.592238
 31
0.0
  0
LINE
  5
560
  8
0
 10
2.061316
 20
5.592238
 30
0.0
 11
2.089381
 21
5.592238
 31
0.0
  0
LINE
  5
561
  8
0
 10
2.089381
 20
5.592238
 30
0.0
 11
3.449058
 21
5.592238
 31
0.0
  0
LINE
  5
562
  8
0
 10
3.449058
 20
5.592238
 30
0.0
 11
3.589381
 21
5.592238
 31
0.0
  0
LINE
  5
563
  8
0
 10
3.589381
 20
5.592238
 30
0.0
 11
3.861316
 21
5.592238
 31
0.0
  0
LINE
  5
564
  8
0
 10
3.861316
 20
5.592238
 30
0.0
 11
3.889381
 21
5.592238
 31
0.0
  0
LINE
  5
565
  8
0
 10
3.889381
 20
5.592238
 30
0.0
 11
5.249058
 21
5.592238
 31
0.0
  0
LINE
  5
566
  8
0
 10
5.249058
 20
5.592238
 30
0.0
 11
5.389381
 21
5.592238
 31
0.0
  0
LINE
  5
567
  8
0
 10
5.389381
 20
5.592238
 30
0.0
 11
5.661316
 21
5.592238
 31
0.0
  0
LINE
  5
568
  8
0
 10
5.661316
 20
5.592238
 30
0.0
 11
5.689381
 21
5.592238
 31
0.0
  0
LINE
  5
569
  8
0
 10
5.689381
 20
5.592238
 30
0.0
 11
7.049058
 21
5.592238
 31
0.0
  0
LINE
  5
56A
  8
0
 10
7.049058
 20
5.592238
 30
0.0
 11
7.189381
 21
5.592238
 31
0.0
  0
LINE
  5
56B
  8
0
 10
7.189381
 20
5.592238
 30
0.0
 11
7.461316
 21
5.592238
 31
0.0
  0
LINE
  5
56C
  8
0
 10
7.461316
 20
5.592238
 30
0.0
 11
7.489381
 21
5.592238
 31
0.0
  0
LINE
  5
56D
  8
0
 10
7.489381
 20
5.592238
 30
0.0
 11
8.849058
 21
5.592238
 31
0.0
  0
LINE
  5
56E
  8
0
 10
8.849058
 20
5.592238
 30
0.0
 11
8.989381
 21
5.592238
 31
0.0
  0
LINE
  5
56F
  8
0
 10
8.989381
 20
5.592238
 30
0.0
 11
9.261316
 21
5.592238
 31
0.0
  0
LINE
  5
570
  8
0
 10
9.261316
 20
5.592238
 30
0.0
 11
9.289381
 21
5.592238
 31
0.0
  0
LINE
  5
571
  8
0
 10
9.289381
 20
5.592238
 30
0.0
 11
10.649058
 21
5.592238
 31
0.0
  0
LINE
  5
572
  8
0
 10
10.649058
 20
5.592238
 30
0.0
 11
10.789381
 21
5.592238
 31
0.0
  0
LINE
  5
573
  8
0
 10
10.789381
 20
5.592238
 30
0.0
 11
11.061316
 21
5.592238
 31
0.0
  0
LINE
  5
574
  8
0
 10
11.061316
 20
5.592238
 30
0.0
 11
11.089381
 21
5.592238
 31
0.0
  0
LINE
  5
575
  8
0
 10
11.089381
 20
5.592238
 30
0.0
 11
12.449058
 21
5.592238
 31
0.0
  0
LINE
  5
576
  8
0
 10
12.449058
 20
5.592238
 30
0.0
 11
12.589381
 21
5.592238
 31
0.0
  0
LINE
  5
577
  8
0
 10
12.589381
 20
5.592238
 30
0.0
 11
12.861316
 21
5.592238
 31
0.0
  0
LINE
  5
578
  8
0
 10
12.861316
 20
5.592238
 30
0.0
 11
12.889381
 21
5.592238
 31
0.0
  0
LINE
  5
579
  8
0
 10
12.889381
 20
5.592238
 30
0.0
 11
14.249058
 21
5.592238
 31
0.0
  0
LINE
  5
57A
  8
0
 10
14.249058
 20
5.592238
 30
0.0
 11
14.362065
 21
5.592238
 31
0.0
  0
LINE
  5
57B
  8
0
 10
14.362065
 20
5.592238
 30
0.0
 11
14.634
 21
5.592238
 31
0.0
  0
LINE
  5
57C
  8
0
 10
0.539
 20
6.092238
 30
0.0
 11
0.567065
 21
6.092238
 31
0.0
  0
LINE
  5
57D
  8
0
 10
0.539
 20
6.092238
 30
0.0
 11
0.567065
 21
6.092238
 31
0.0
  0
LINE
  5
57E
  8
0
 10
0.567065
 20
6.092238
 30
0.0
 11
1.643023
 21
6.092238
 31
0.0
  0
LINE
  5
57F
  8
0
 10
1.643023
 20
6.092238
 30
0.0
 11
1.783345
 21
6.092238
 31
0.0
  0
LINE
  5
580
  8
0
 10
1.783345
 20
6.092238
 30
0.0
 11
2.055281
 21
6.092238
 31
0.0
  0
LINE
  5
581
  8
0
 10
2.055281
 20
6.092238
 30
0.0
 11
2.083345
 21
6.092238
 31
0.0
  0
LINE
  5
582
  8
0
 10
2.083345
 20
6.092238
 30
0.0
 11
3.443023
 21
6.092238
 31
0.0
  0
LINE
  5
583
  8
0
 10
3.443023
 20
6.092238
 30
0.0
 11
3.583345
 21
6.092238
 31
0.0
  0
LINE
  5
584
  8
0
 10
3.583345
 20
6.092238
 30
0.0
 11
3.855281
 21
6.092238
 31
0.0
  0
LINE
  5
585
  8
0
 10
3.855281
 20
6.092238
 30
0.0
 11
3.883345
 21
6.092238
 31
0.0
  0
LINE
  5
586
  8
0
 10
3.883345
 20
6.092238
 30
0.0
 11
5.243023
 21
6.092238
 31
0.0
  0
LINE
  5
587
  8
0
 10
5.243023
 20
6.092238
 30
0.0
 11
5.383345
 21
6.092238
 31
0.0
  0
LINE
  5
588
  8
0
 10
5.383345
 20
6.092238
 30
0.0
 11
5.655281
 21
6.092238
 31
0.0
  0
LINE
  5
589
  8
0
 10
5.655281
 20
6.092238
 30
0.0
 11
5.683345
 21
6.092238
 31
0.0
  0
LINE
  5
58A
  8
0
 10
5.683345
 20
6.092238
 30
0.0
 11
7.043023
 21
6.092238
 31
0.0
  0
LINE
  5
58B
  8
0
 10
7.043023
 20
6.092238
 30
0.0
 11
7.183345
 21
6.092238
 31
0.0
  0
LINE
  5
58C
  8
0
 10
7.183345
 20
6.092238
 30
0.0
 11
7.455281
 21
6.092238
 31
0.0
  0
LINE
  5
58D
  8
0
 10
7.455281
 20
6.092238
 30
0.0
 11
7.483345
 21
6.092238
 31
0.0
  0
LINE
  5
58E
  8
0
 10
7.483345
 20
6.092238
 30
0.0
 11
8.843023
 21
6.092238
 31
0.0
  0
LINE
  5
58F
  8
0
 10
8.843023
 20
6.092238
 30
0.0
 11
8.983345
 21
6.092238
 31
0.0
  0
LINE
  5
590
  8
0
 10
8.983345
 20
6.092238
 30
0.0
 11
9.255281
 21
6.092238
 31
0.0
  0
LINE
  5
591
  8
0
 10
9.255281
 20
6.092238
 30
0.0
 11
9.283345
 21
6.092238
 31
0.0
  0
LINE
  5
592
  8
0
 10
9.283345
 20
6.092238
 30
0.0
 11
10.643023
 21
6.092238
 31
0.0
  0
LINE
  5
593
  8
0
 10
10.643023
 20
6.092238
 30
0.0
 11
10.783345
 21
6.092238
 31
0.0
  0
LINE
  5
594
  8
0
 10
10.783345
 20
6.092238
 30
0.0
 11
11.055281
 21
6.092238
 31
0.0
  0
LINE
  5
595
  8
0
 10
11.055281
 20
6.092238
 30
0.0
 11
11.083345
 21
6.092238
 31
0.0
  0
LINE
  5
596
  8
0
 10
11.083345
 20
6.092238
 30
0.0
 11
12.443023
 21
6.092238
 31
0.0
  0
LINE
  5
597
  8
0
 10
12.443023
 20
6.092238
 30
0.0
 11
12.583345
 21
6.092238
 31
0.0
  0
LINE
  5
598
  8
0
 10
12.583345
 20
6.092238
 30
0.0
 11
12.855281
 21
6.092238
 31
0.0
  0
LINE
  5
599
  8
0
 10
12.855281
 20
6.092238
 30
0.0
 11
12.883345
 21
6.092238
 31
0.0
  0
LINE
  5
59A
  8
0
 10
12.883345
 20
6.092238
 30
0.0
 11
14.243023
 21
6.092238
 31
0.0
  0
LINE
  5
59B
  8
0
 10
14.243023
 20
6.092238
 30
0.0
 11
14.354065
 21
6.092238
 31
0.0
  0
LINE
  5
59C
  8
0
 10
14.354065
 20
6.092238
 30
0.0
 11
14.626
 21
6.092238
 31
0.0
  0
LINE
  5
59D
  8
0
 10
0.551
 20
6.592238
 30
0.0
 11
0.579065
 21
6.592238
 31
0.0
  0
LINE
  5
59E
  8
0
 10
0.551
 20
6.592238
 30
0.0
 11
0.579065
 21
6.592238
 31
0.0
  0
LINE
  5
59F
  8
0
 10
0.579065
 20
6.592238
 30
0.0
 11
1.644145
 21
6.592238
 31
0.0
  0
LINE
  5
5A0
  8
0
 10
1.644145
 20
6.592238
 30
0.0
 11
1.784468
 21
6.592238
 31
0.0
  0
LINE
  5
5A1
  8
0
 10
1.784468
 20
6.592238
 30
0.0
 11
2.056403
 21
6.592238
 31
0.0
  0
LINE
  5
5A2
  8
0
 10
2.056403
 20
6.592238
 30
0.0
 11
2.084468
 21
6.592238
 31
0.0
  0
LINE
  5
5A3
  8
0
 10
2.084468
 20
6.592238
 30
0.0
 11
3.444145
 21
6.592238
 31
0.0
  0
LINE
  5
5A4
  8
0
 10
3.444145
 20
6.592238
 30
0.0
 11
3.584468
 21
6.592238
 31
0.0
  0
LINE
  5
5A5
  8
0
 10
3.584468
 20
6.592238
 30
0.0
 11
3.856403
 21
6.592238
 31
0.0
  0
LINE
  5
5A6
  8
0
 10
3.856403
 20
6.592238
 30
0.0
 11
3.884468
 21
6.592238
 31
0.0
  0
LINE
  5
5A7
  8
0
 10
3.884468
 20
6.592238
 30
0.0
 11
5.244145
 21
6.592238
 31
0.0
  0
LINE
  5
5A8
  8
0
 10
5.244145
 20
6.592238
 30
0.0
 11
5.384468
 21
6.592238
 31
0.0
  0
LINE
  5
5A9
  8
0
 10
5.384468
 20
6.592238
 30
0.0
 11
5.656403
 21
6.592238
 31
0.0
  0
LINE
  5
5AA
  8
0
 10
5.656403
 20
6.592238
 30
0.0
 11
5.684468
 21
6.592238
 31
0.0
  0
LINE
  5
5AB
  8
0
 10
5.684468
 20
6.592238
 30
0.0
 11
7.044145
 21
6.592238
 31
0.0
  0
LINE
  5
5AC
  8
0
 10
7.044145
 20
6.592238
 30
0.0
 11
7.184468
 21
6.592238
 31
0.0
  0
LINE
  5
5AD
  8
0
 10
7.184468
 20
6.592238
 30
0.0
 11
7.456403
 21
6.592238
 31
0.0
  0
LINE
  5
5AE
  8
0
 10
7.456403
 20
6.592238
 30
0.0
 11
7.484468
 21
6.592238
 31
0.0
  0
LINE
  5
5AF
  8
0
 10
7.484468
 20
6.592238
 30
0.0
 11
8.844145
 21
6.592238
 31
0.0
  0
LINE
  5
5B0
  8
0
 10
8.844145
 20
6.592238
 30
0.0
 11
8.984468
 21
6.592238
 31
0.0
  0
LINE
  5
5B1
  8
0
 10
8.984468
 20
6.592238
 30
0.0
 11
9.256403
 21
6.592238
 31
0.0
  0
LINE
  5
5B2
  8
0
 10
9.256403
 20
6.592238
 30
0.0
 11
9.284468
 21
6.592238
 31
0.0
  0
LINE
  5
5B3
  8
0
 10
9.284468
 20
6.592238
 30
0.0
 11
10.644145
 21
6.592238
 31
0.0
  0
LINE
  5
5B4
  8
0
 10
10.644145
 20
6.592238
 30
0.0
 11
10.784468
 21
6.592238
 31
0.0
  0
LINE
  5
5B5
  8
0
 10
10.784468
 20
6.592238
 30
0.0
 11
11.056403
 21
6.592238
 31
0.0
  0
LINE
  5
5B6
  8
0
 10
11.056403
 20
6.592238
 30
0.0
 11
11.084468
 21
6.592238
 31
0.0
  0
LINE
  5
5B7
  8
0
 10
11.084468
 20
6.592238
 30
0.0
 11
12.444145
 21
6.592238
 31
0.0
  0
LINE
  5
5B8
  8
0
 10
12.444145
 20
6.592238
 30
0.0
 11
12.584468
 21
6.592238
 31
0.0
  0
LINE
  5
5B9
  8
0
 10
12.584468
 20
6.592238
 30
0.0
 11
12.856403
 21
6.592238
 31
0.0
  0
LINE
  5
5BA
  8
0
 10
12.856403
 20
6.592238
 30
0.0
 11
12.884468
 21
6.592238
 31
0.0
  0
LINE
  5
5BB
  8
0
 10
12.884468
 20
6.592238
 30
0.0
 11
14.244145
 21
6.592238
 31
0.0
  0
LINE
  5
5BC
  8
0
 10
14.244145
 20
6.592238
 30
0.0
 11
14.354065
 21
6.592238
 31
0.0
  0
LINE
  5
5BD
  8
0
 10
14.354065
 20
6.592238
 30
0.0
 11
14.626
 21
6.592238
 31
0.0
  0
LINE
  5
5BE
  8
0
 10
0.564
 20
7.092238
 30
0.0
 11
0.592065
 21
7.092238
 31
0.0
  0
LINE
  5
5BF
  8
0
 10
0.564
 20
7.092238
 30
0.0
 11
0.592065
 21
7.092238
 31
0.0
  0
LINE
  5
5C0
  8
0
 10
0.592065
 20
7.092238
 30
0.0
 11
1.645361
 21
7.092238
 31
0.0
  0
LINE
  5
5C1
  8
0
 10
1.645361
 20
7.092238
 30
0.0
 11
1.785684
 21
7.092238
 31
0.0
  0
LINE
  5
5C2
  8
0
 10
1.785684
 20
7.092238
 30
0.0
 11
2.057619
 21
7.092238
 31
0.0
  0
LINE
  5
5C3
  8
0
 10
2.057619
 20
7.092238
 30
0.0
 11
2.085684
 21
7.092238
 31
0.0
  0
LINE
  5
5C4
  8
0
 10
2.085684
 20
7.092238
 30
0.0
 11
3.445361
 21
7.092238
 31
0.0
  0
LINE
  5
5C5
  8
0
 10
3.445361
 20
7.092238
 30
0.0
 11
3.585684
 21
7.092238
 31
0.0
  0
LINE
  5
5C6
  8
0
 10
3.585684
 20
7.092238
 30
0.0
 11
3.857619
 21
7.092238
 31
0.0
  0
LINE
  5
5C7
  8
0
 10
3.857619
 20
7.092238
 30
0.0
 11
3.885684
 21
7.092238
 31
0.0
  0
LINE
  5
5C8
  8
0
 10
3.885684
 20
7.092238
 30
0.0
 11
5.245361
 21
7.092238
 31
0.0
  0
LINE
  5
5C9
  8
0
 10
5.245361
 20
7.092238
 30
0.0
 11
5.385684
 21
7.092238
 31
0.0
  0
LINE
  5
5CA
  8
0
 10
5.385684
 20
7.092238
 30
0.0
 11
5.657619
 21
7.092238
 31
0.0
  0
LINE
  5
5CB
  8
0
 10
5.657619
 20
7.092238
 30
0.0
 11
5.685684
 21
7.092238
 31
0.0
  0
LINE
  5
5CC
  8
0
 10
5.685684
 20
7.092238
 30
0.0
 11
7.045361
 21
7.092238
 31
0.0
  0
LINE
  5
5CD
  8
0
 10
7.045361
 20
7.092238
 30
0.0
 11
7.185684
 21
7.092238
 31
0.0
  0
LINE
  5
5CE
  8
0
 10
7.185684
 20
7.092238
 30
0.0
 11
7.457619
 21
7.092238
 31
0.0
  0
LINE
  5
5CF
  8
0
 10
7.457619
 20
7.092238
 30
0.0
 11
7.485684
 21
7.092238
 31
0.0
  0
LINE
  5
5D0
  8
0
 10
7.485684
 20
7.092238
 30
0.0
 11
8.845361
 21
7.092238
 31
0.0
  0
LINE
  5
5D1
  8
0
 10
8.845361
 20
7.092238
 30
0.0
 11
8.985684
 21
7.092238
 31
0.0
  0
LINE
  5
5D2
  8
0
 10
8.985684
 20
7.092238
 30
0.0
 11
9.257619
 21
7.092238
 31
0.0
  0
LINE
  5
5D3
  8
0
 10
9.257619
 20
7.092238
 30
0.0
 11
9.285684
 21
7.092238
 31
0.0
  0
LINE
  5
5D4
  8
0
 10
9.285684
 20
7.092238
 30
0.0
 11
10.645361
 21
7.092238
 31
0.0
  0
LINE
  5
5D5
  8
0
 10
10.645361
 20
7.092238
 30
0.0
 11
10.785684
 21
7.092238
 31
0.0
  0
LINE
  5
5D6
  8
0
 10
10.785684
 20
7.092238
 30
0.0
 11
11.057619
 21
7.092238
 31
0.0
  0
LINE
  5
5D7
  8
0
 10
11.057619
 20
7.092238
 30
0.0
 11
11.085684
 21
7.092238
 31
0.0
  0
LINE
  5
5D8
  8
0
 10
11.085684
 20
7.092238
 30
0.0
 11
12.445361
 21
7.092238
 31
0.0
  0
LINE
  5
5D9
  8
0
 10
12.445361
 20
7.092238
 30
0.0
 11
12.585684
 21
7.092238
 31
0.0
  0
LINE
  5
5DA
  8
0
 10
12.585684
 20
7.092238
 30
0.0
 11
12.857619
 21
7.092238
 31
0.0
  0
LINE
  5
5DB
  8
0
 10
12.857619
 20
7.092238
 30
0.0
 11
12.885684
 21
7.092238
 31
0.0
  0
LINE
  5
5DC
  8
0
 10
12.885684
 20
7.092238
 30
0.0
 11
14.245361
 21
7.092238
 31
0.0
  0
LINE
  5
5DD
  8
0
 10
14.245361
 20
7.092238
 30
0.0
 11
14.354065
 21
7.092238
 31
0.0
  0
LINE
  5
5DE
  8
0
 10
14.354065
 20
7.092238
 30
0.0
 11
14.626
 21
7.092238
 31
0.0
  0
LINE
  5
5DF
  8
0
 10
0.576
 20
7.592238
 30
0.0
 11
0.604065
 21
7.592238
 31
0.0
  0
LINE
  5
5E0
  8
0
 10
0.576
 20
7.592238
 30
0.0
 11
0.604065
 21
7.592238
 31
0.0
  0
LINE
  5
5E1
  8
0
 10
0.604065
 20
7.592238
 30
0.0
 11
1.646484
 21
7.592238
 31
0.0
  0
LINE
  5
5E2
  8
0
 10
1.646484
 20
7.592238
 30
0.0
 11
1.7869
 21
7.592238
 31
0.0
  0
LINE
  5
5E3
  8
0
 10
1.7869
 20
7.592238
 30
0.0
 11
2.058835
 21
7.592238
 31
0.0
  0
LINE
  5
5E4
  8
0
 10
2.058835
 20
7.592238
 30
0.0
 11
2.086806
 21
7.592238
 31
0.0
  0
LINE
  5
5E5
  8
0
 10
2.086806
 20
7.592238
 30
0.0
 11
3.446484
 21
7.592238
 31
0.0
  0
LINE
  5
5E6
  8
0
 10
3.446484
 20
7.592238
 30
0.0
 11
3.5869
 21
7.592238
 31
0.0
  0
LINE
  5
5E7
  8
0
 10
3.5869
 20
7.592238
 30
0.0
 11
3.858835
 21
7.592238
 31
0.0
  0
LINE
  5
5E8
  8
0
 10
3.858835
 20
7.592238
 30
0.0
 11
3.886806
 21
7.592238
 31
0.0
  0
LINE
  5
5E9
  8
0
 10
3.886806
 20
7.592238
 30
0.0
 11
5.246484
 21
7.592238
 31
0.0
  0
LINE
  5
5EA
  8
0
 10
5.246484
 20
7.592238
 30
0.0
 11
5.3869
 21
7.592238
 31
0.0
  0
LINE
  5
5EB
  8
0
 10
5.3869
 20
7.592238
 30
0.0
 11
5.658835
 21
7.592238
 31
0.0
  0
LINE
  5
5EC
  8
0
 10
5.658835
 20
7.592238
 30
0.0
 11
5.686806
 21
7.592238
 31
0.0
  0
LINE
  5
5ED
  8
0
 10
5.686806
 20
7.592238
 30
0.0
 11
7.046484
 21
7.592238
 31
0.0
  0
LINE
  5
5EE
  8
0
 10
7.046484
 20
7.592238
 30
0.0
 11
7.1869
 21
7.592238
 31
0.0
  0
LINE
  5
5EF
  8
0
 10
7.1869
 20
7.592238
 30
0.0
 11
7.458835
 21
7.592238
 31
0.0
  0
LINE
  5
5F0
  8
0
 10
7.458835
 20
7.592238
 30
0.0
 11
7.486806
 21
7.592238
 31
0.0
  0
LINE
  5
5F1
  8
0
 10
7.486806
 20
7.592238
 30
0.0
 11
8.846484
 21
7.592238
 31
0.0
  0
LINE
  5
5F2
  8
0
 10
8.846484
 20
7.592238
 30
0.0
 11
8.9869
 21
7.592238
 31
0.0
  0
LINE
  5
5F3
  8
0
 10
8.9869
 20
7.592238
 30
0.0
 11
9.258835
 21
7.592238
 31
0.0
  0
LINE
  5
5F4
  8
0
 10
9.258835
 20
7.592238
 30
0.0
 11
9.286806
 21
7.592238
 31
0.0
  0
LINE
  5
5F5
  8
0
 10
9.286806
 20
7.592238
 30
0.0
 11
10.646484
 21
7.592238
 31
0.0
  0
LINE
  5
5F6
  8
0
 10
10.646484
 20
7.592238
 30
0.0
 11
10.7869
 21
7.592238
 31
0.0
  0
LINE
  5
5F7
  8
0
 10
10.7869
 20
7.592238
 30
0.0
 11
11.058835
 21
7.592238
 31
0.0
  0
LINE
  5
5F8
  8
0
 10
11.058835
 20
7.592238
 30
0.0
 11
11.086806
 21
7.592238
 31
0.0
  0
LINE
  5
5F9
  8
0
 10
11.086806
 20
7.592238
 30
0.0
 11
12.446484
 21
7.592238
 31
0.0
  0
LINE
  5
5FA
  8
0
 10
12.446484
 20
7.592238
 30
0.0
 11
12.5869
 21
7.592238
 31
0.0
  0
LINE
  5
5FB
  8
0
 10
12.5869
 20
7.592238
 30
0.0
 11
12.858835
 21
7.592238
 31
0.0
  0
LINE
  5
5FC
  8
0
 10
12.858835
 20
7.592238
 30
0.0
 11
12.886806
 21
7.592238
 31
0.0
  0
LINE
  5
5FD
  8
0
 10
12.886806
 20
7.592238
 30
0.0
 11
14.246484
 21
7.592238
 31
0.0
  0
LINE
  5
5FE
  8
0
 10
14.246484
 20
7.592238
 30
0.0
 11
14.354065
 21
7.592238
 31
0.0
  0
LINE
  5
5FF
  8
0
 10
14.354065
 20
7.592238
 30
0.0
 11
14.626
 21
7.592238
 31
0.0
  0
LINE
  5
600
  8
0
 10
0.575
 20
8.092238
 30
0.0
 11
0.603065
 21
8.092238
 31
0.0
  0
LINE
  5
601
  8
0
 10
0.575
 20
8.092238
 30
0.0
 11
0.603065
 21
8.092238
 31
0.0
  0
LINE
  5
602
  8
0
 10
0.603065
 20
8.092238
 30
0.0
 11
1.64639
 21
8.092238
 31
0.0
  0
LINE
  5
603
  8
0
 10
1.64639
 20
8.092238
 30
0.0
 11
1.786806
 21
8.092238
 31
0.0
  0
LINE
  5
604
  8
0
 10
1.786806
 20
8.092238
 30
0.0
 11
2.058742
 21
8.092238
 31
0.0
  0
LINE
  5
605
  8
0
 10
2.058742
 20
8.092238
 30
0.0
 11
2.086713
 21
8.092238
 31
0.0
  0
LINE
  5
606
  8
0
 10
2.086713
 20
8.092238
 30
0.0
 11
3.44639
 21
8.092238
 31
0.0
  0
LINE
  5
607
  8
0
 10
3.44639
 20
8.092238
 30
0.0
 11
3.586806
 21
8.092238
 31
0.0
  0
LINE
  5
608
  8
0
 10
3.586806
 20
8.092238
 30
0.0
 11
3.858742
 21
8.092238
 31
0.0
  0
LINE
  5
609
  8
0
 10
3.858742
 20
8.092238
 30
0.0
 11
3.886713
 21
8.092238
 31
0.0
  0
LINE
  5
60A
  8
0
 10
3.886713
 20
8.092238
 30
0.0
 11
5.24639
 21
8.092238
 31
0.0
  0
LINE
  5
60B
  8
0
 10
5.24639
 20
8.092238
 30
0.0
 11
5.386806
 21
8.092238
 31
0.0
  0
LINE
  5
60C
  8
0
 10
5.386806
 20
8.092238
 30
0.0
 11
5.658742
 21
8.092238
 31
0.0
  0
LINE
  5
60D
  8
0
 10
5.658742
 20
8.092238
 30
0.0
 11
5.686713
 21
8.092238
 31
0.0
  0
LINE
  5
60E
  8
0
 10
5.686713
 20
8.092238
 30
0.0
 11
7.04639
 21
8.092238
 31
0.0
  0
LINE
  5
60F
  8
0
 10
7.04639
 20
8.092238
 30
0.0
 11
7.186806
 21
8.092238
 31
0.0
  0
LINE
  5
610
  8
0
 10
7.186806
 20
8.092238
 30
0.0
 11
7.458742
 21
8.092238
 31
0.0
  0
LINE
  5
611
  8
0
 10
7.458742
 20
8.092238
 30
0.0
 11
7.486713
 21
8.092238
 31
0.0
  0
LINE
  5
612
  8
0
 10
7.486713
 20
8.092238
 30
0.0
 11
8.84639
 21
8.092238
 31
0.0
  0
LINE
  5
613
  8
0
 10
8.84639
 20
8.092238
 30
0.0
 11
8.986806
 21
8.092238
 31
0.0
  0
LINE
  5
614
  8
0
 10
8.986806
 20
8.092238
 30
0.0
 11
9.258742
 21
8.092238
 31
0.0
  0
LINE
  5
615
  8
0
 10
9.258742
 20
8.092238
 30
0.0
 11
9.286713
 21
8.092238
 31
0.0
  0
LINE
  5
616
  8
0
 10
9.286713
 20
8.092238
 30
0.0
 11
10.64639
 21
8.092238
 31
0.0
  0
LINE
  5
617
  8
0
 10
10.64639
 20
8.092238
 30
0.0
 11
10.786806
 21
8.092238
 31
0.0
  0
LINE
  5
618
  8
0
 10
10.786806
 20
8.092238
 30
0.0
 11
11.058742
 21
8.092238
 31
0.0
  0
LINE
  5
619
  8
0
 10
11.058742
 20
8.092238
 30
0.0
 11
11.086713
 21
8.092238
 31
0.0
  0
LINE
  5
61A
  8
0
 10
11.086713
 20
8.092238
 30
0.0
 11
12.44639
 21
8.092238
 31
0.0
  0
LINE
  5
61B
  8
0
 10
12.44639
 20
8.092238
 30
0.0
 11
12.586806
 21
8.092238
 31
0.0
  0
LINE
  5
61C
  8
0
 10
12.586806
 20
8.092238
 30
0.0
 11
12.858742
 21
8.092238
 31
0.0
  0
LINE
  5
61D
  8
0
 10
12.858742
 20
8.092238
 30
0.0
 11
12.886713
 21
8.092238
 31
0.0
  0
LINE
  5
61E
  8
0
 10
12.886713
 20
8.092238
 30
0.0
 11
14.24639
 21
8.092238
 31
0.0
  0
LINE
  5
61F
  8
0
 10
14.24639
 20
8.092238
 30
0.0
 11
14.354065
 21
8.092238
 31
0.0
  0
LINE
  5
620
  8
0
 10
14.354065
 20
8.092238
 30
0.0
 11
14.626
 21
8.092238
 31
0.0
  0
LINE
  5
621
  8
0
 10
0.56
 20
8.592238
 30
0.0
 11
0.588065
 21
8.592238
 31
0.0
  0
LINE
  5
622
  8
0
 10
0.56
 20
8.592238
 30
0.0
 11
0.588065
 21
8.592238
 31
0.0
  0
LINE
  5
623
  8
0
 10
0.588065
 20
8.592238
 30
0.0
 11
1.644987
 21
8.592238
 31
0.0
  0
LINE
  5
624
  8
0
 10
1.644987
 20
8.592238
 30
0.0
 11
1.78531
 21
8.592238
 31
0.0
  0
LINE
  5
625
  8
0
 10
1.78531
 20
8.592238
 30
0.0
 11
2.057245
 21
8.592238
 31
0.0
  0
LINE
  5
626
  8
0
 10
2.057245
 20
8.592238
 30
0.0
 11
2.08531
 21
8.592238
 31
0.0
  0
LINE
  5
627
  8
0
 10
2.08531
 20
8.592238
 30
0.0
 11
3.444987
 21
8.592238
 31
0.0
  0
LINE
  5
628
  8
0
 10
3.444987
 20
8.592238
 30
0.0
 11
3.58531
 21
8.592238
 31
0.0
  0
LINE
  5
629
  8
0
 10
3.58531
 20
8.592238
 30
0.0
 11
3.857245
 21
8.592238
 31
0.0
  0
LINE
  5
62A
  8
0
 10
3.857245
 20
8.592238
 30
0.0
 11
3.88531
 21
8.592238
 31
0.0
  0
LINE
  5
62B
  8
0
 10
3.88531
 20
8.592238
 30
0.0
 11
5.244987
 21
8.592238
 31
0.0
  0
LINE
  5
62C
  8
0
 10
5.244987
 20
8.592238
 30
0.0
 11
5.38531
 21
8.592238
 31
0.0
  0
LINE
  5
62D
  8
0
 10
5.38531
 20
8.592238
 30
0.0
 11
5.657245
 21
8.592238
 31
0.0
  0
LINE
  5
62E
  8
0
 10
5.657245
 20
8.592238
 30
0.0
 11
5.68531
 21
8.592238
 31
0.0
  0
LINE
  5
62F
  8
0
 10
5.68531
 20
8.592238
 30
0.0
 11
7.044987
 21
8.592238
 31
0.0
  0
LINE
  5
630
  8
0
 10
7.044987
 20
8.592238
 30
0.0
 11
7.18531
 21
8.592238
 31
0.0
  0
LINE
  5
631
  8
0
 10
7.18531
 20
8.592238
 30
0.0
 11
7.457245
 21
8.592238
 31
0.0
  0
LINE
  5
632
  8
0
 10
7.457245
 20
8.592238
 30
0.0
 11
7.48531
 21
8.592238
 31
0.0
  0
LINE
  5
633
  8
0
 10
7.48531
 20
8.592238
 30
0.0
 11
8.844987
 21
8.592238
 31
0.0
  0
LINE
  5
634
  8
0
 10
8.844987
 20
8.592238
 30
0.0
 11
8.98531
 21
8.592238
 31
0.0
  0
LINE
  5
635
  8
0
 10
8.98531
 20
8.592238
 30
0.0
 11
9.257245
 21
8.592238
 31
0.0
  0
LINE
  5
636
  8
0
 10
9.257245
 20
8.592238
 30
0.0
 11
9.28531
 21
8.592238
 31
0.0
  0
LINE
  5
637
  8
0
 10
9.28531
 20
8.592238
 30
0.0
 11
10.644987
 21
8.592238
 31
0.0
  0
LINE
  5
638
  8
0
 10
10.644987
 20
8.592238
 30
0.0
 11
10.78531
 21
8.592238
 31
0.0
  0
LINE
  5
639
  8
0
 10
10.78531
 20
8.592238
 30
0.0
 11
11.057245
 21
8.592238
 31
0.0
  0
LINE
  5
63A
  8
0
 10
11.057245
 20
8.592238
 30
0.0
 11
11.08531
 21
8.592238
 31
0.0
  0
LINE
  5
63B
  8
0
 10
11.08531
 20
8.592238
 30
0.0
 11
12.444987
 21
8.592238
 31
0.0
  0
LINE
  5
63C
  8
0
 10
12.444987
 20
8.592238
 30
0.0
 11
12.58531
 21
8.592238
 31
0.0
  0
LINE
  5
63D
  8
0
 10
12.58531
 20
8.592238
 30
0.0
 11
12.857245
 21
8.592238
 31
0.0
  0
LINE
  5
63E
  8
0
 10
12.857245
 20
8.592238
 30
0.0
 11
12.88531
 21
8.592238
 31
0.0
  0
LINE
  5
63F
  8
0
 10
12.88531
 20
8.592238
 30
0.0
 11
14.244987
 21
8.592238
 31
0.0
  0
LINE
  5
640
  8
0
 10
14.244987
 20
8.592238
 30
0.0
 11
14.354065
 21
8.592238
 31
0.0
  0
LINE
  5
641
  8
0
 10
14.354065
 20
8.592238
 30
0.0
 11
14.626
 21
8.592238
 31
0.0
  0
LINE
  5
642
  8
0
 10
0.545
 20
9.092238
 30
0.0
 11
0.573065
 21
9.092238
 31
0.0
  0
LINE
  5
643
  8
0
 10
0.545
 20
9.092238
 30
0.0
 11
0.573065
 21
9.092238
 31
0.0
  0
LINE
  5
644
  8
0
 10
0.573065
 20
9.092238
 30
0.0
 11
1.643584
 21
9.092238
 31
0.0
  0
LINE
  5
645
  8
0
 10
1.643584
 20
9.092238
 30
0.0
 11
1.783906
 21
9.092238
 31
0.0
  0
LINE
  5
646
  8
0
 10
1.783906
 20
9.092238
 30
0.0
 11
2.055842
 21
9.092238
 31
0.0
  0
LINE
  5
647
  8
0
 10
2.055842
 20
9.092238
 30
0.0
 11
2.083906
 21
9.092238
 31
0.0
  0
LINE
  5
648
  8
0
 10
2.083906
 20
9.092238
 30
0.0
 11
3.443584
 21
9.092238
 31
0.0
  0
LINE
  5
649
  8
0
 10
3.443584
 20
9.092238
 30
0.0
 11
3.583906
 21
9.092238
 31
0.0
  0
LINE
  5
64A
  8
0
 10
3.583906
 20
9.092238
 30
0.0
 11
3.855842
 21
9.092238
 31
0.0
  0
LINE
  5
64B
  8
0
 10
3.855842
 20
9.092238
 30
0.0
 11
3.883906
 21
9.092238
 31
0.0
  0
LINE
  5
64C
  8
0
 10
3.883906
 20
9.092238
 30
0.0
 11
5.243584
 21
9.092238
 31
0.0
  0
LINE
  5
64D
  8
0
 10
5.243584
 20
9.092238
 30
0.0
 11
5.383906
 21
9.092238
 31
0.0
  0
LINE
  5
64E
  8
0
 10
5.383906
 20
9.092238
 30
0.0
 11
5.655842
 21
9.092238
 31
0.0
  0
LINE
  5
64F
  8
0
 10
5.655842
 20
9.092238
 30
0.0
 11
5.683906
 21
9.092238
 31
0.0
  0
LINE
  5
650
  8
0
 10
5.683906
 20
9.092238
 30
0.0
 11
7.043584
 21
9.092238
 31
0.0
  0
LINE
  5
651
  8
0
 10
7.043584
 20
9.092238
 30
0.0
 11
7.183906
 21
9.092238
 31
0.0
  0
LINE
  5
652
  8
0
 10
7.183906
 20
9.092238
 30
0.0
 11
7.455842
 21
9.092238
 31
0.0
  0
LINE
  5
653
  8
0
 10
7.455842
 20
9.092238
 30
0.0
 11
7.483906
 21
9.092238
 31
0.0
  0
LINE
  5
654
  8
0
 10
7.483906
 20
9.092238
 30
0.0
 11
8.843584
 21
9.092238
 31
0.0
  0
LINE
  5
655
  8
0
 10
8.843584
 20
9.092238
 30
0.0
 11
8.983906
 21
9.092238
 31
0.0
  0
LINE
  5
656
  8
0
 10
8.983906
 20
9.092238
 30
0.0
 11
9.255842
 21
9.092238
 31
0.0
  0
LINE
  5
657
  8
0
 10
9.255842
 20
9.092238
 30
0.0
 11
9.283906
 21
9.092238
 31
0.0
  0
LINE
  5
658
  8
0
 10
9.283906
 20
9.092238
 30
0.0
 11
10.643584
 21
9.092238
 31
0.0
  0
LINE
  5
659
  8
0
 10
10.643584
 20
9.092238
 30
0.0
 11
10.783906
 21
9.092238
 31
0.0
  0
LINE
  5
65A
  8
0
 10
10.783906
 20
9.092238
 30
0.0
 11
11.055842
 21
9.092238
 31
0.0
  0
LINE
  5
65B
  8
0
 10
11.055842
 20
9.092238
 30
0.0
 11
11.083906
 21
9.092238
 31
0.0
  0
LINE
  5
65C
  8
0
 10
11.083906
 20
9.092238
 30
0.0
 11
12.443584
 21
9.092238
 31
0.0
  0
LINE
  5
65D
  8
0
 10
12.443584
 20
9.092238
 30
0.0
 11
12.583906
 21
9.092238
 31
0.0
  0
LINE
  5
65E
  8
0
 10
12.583906
 20
9.092238
 30
0.0
 11
12.855842
 21
9.092238
 31
0.0
  0
LINE
  5
65F
  8
0
 10
12.855842
 20
9.092238
 30
0.0
 11
12.883906
 21
9.092238
 31
0.0
  0
LINE
  5
660
  8
0
 10
12.883906
 20
9.092238
 30
0.0
 11
14.243584
 21
9.092238
 31
0.0
  0
LINE
  5
661
  8
0
 10
14.243584
 20
9.092238
 30
0.0
 11
14.354065
 21
9.092238
 31
0.0
  0
LINE
  5
662
  8
0
 10
14.354065
 20
9.092238
 30
0.0
 11
14.626
 21
9.092238
 31
0.0
  0
LINE
  5
663
  8
0
 10
0.529
 20
9.592238
 30
0.0
 11
0.557065
 21
9.592238
 31
0.0
  0
LINE
  5
664
  8
0
 10
0.529
 20
9.592238
 30
0.0
 11
0.557065
 21
9.592238
 31
0.0
  0
LINE
  5
665
  8
0
 10
0.557065
 20
9.592238
 30
0.0
 11
1.642087
 21
9.592238
 31
0.0
  0
LINE
  5
666
  8
0
 10
1.642087
 20
9.592238
 30
0.0
 11
1.782503
 21
9.592238
 31
0.0
  0
LINE
  5
667
  8
0
 10
1.782503
 20
9.592238
 30
0.0
 11
2.054439
 21
9.592238
 31
0.0
  0
LINE
  5
668
  8
0
 10
2.054439
 20
9.592238
 30
0.0
 11
2.08241
 21
9.592238
 31
0.0
  0
LINE
  5
669
  8
0
 10
2.08241
 20
9.592238
 30
0.0
 11
3.442087
 21
9.592238
 31
0.0
  0
LINE
  5
66A
  8
0
 10
3.442087
 20
9.592238
 30
0.0
 11
3.582503
 21
9.592238
 31
0.0
  0
LINE
  5
66B
  8
0
 10
3.582503
 20
9.592238
 30
0.0
 11
3.854439
 21
9.592238
 31
0.0
  0
LINE
  5
66C
  8
0
 10
3.854439
 20
9.592238
 30
0.0
 11
3.88241
 21
9.592238
 31
0.0
  0
LINE
  5
66D
  8
0
 10
3.88241
 20
9.592238
 30
0.0
 11
5.242087
 21
9.592238
 31
0.0
  0
LINE
  5
66E
  8
0
 10
5.242087
 20
9.592238
 30
0.0
 11
5.382503
 21
9.592238
 31
0.0
  0
LINE
  5
66F
  8
0
 10
5.382503
 20
9.592238
 30
0.0
 11
5.654439
 21
9.592238
 31
0.0
  0
LINE
  5
670
  8
0
 10
5.654439
 20
9.592238
 30
0.0
 11
5.68241
 21
9.592238
 31
0.0
  0
LINE
  5
671
  8
0
 10
5.68241
 20
9.592238
 30
0.0
 11
7.042087
 21
9.592238
 31
0.0
  0
LINE
  5
672
  8
0
 10
7.042087
 20
9.592238
 30
0.0
 11
7.182503
 21
9.592238
 31
0.0
  0
LINE
  5
673
  8
0
 10
7.182503
 20
9.592238
 30
0.0
 11
7.454439
 21
9.592238
 31
0.0
  0
LINE
  5
674
  8
0
 10
7.454439
 20
9.592238
 30
0.0
 11
7.48241
 21
9.592238
 31
0.0
  0
LINE
  5
675
  8
0
 10
7.48241
 20
9.592238
 30
0.0
 11
8.842087
 21
9.592238
 31
0.0
  0
LINE
  5
676
  8
0
 10
8.842087
 20
9.592238
 30
0.0
 11
8.982503
 21
9.592238
 31
0.0
  0
LINE
  5
677
  8
0
 10
8.982503
 20
9.592238
 30
0.0
 11
9.254439
 21
9.592238
 31
0.0
  0
LINE
  5
678
  8
0
 10
9.254439
 20
9.592238
 30
0.0
 11
9.28241
 21
9.592238
 31
0.0
  0
LINE
  5
679
  8
0
 10
9.28241
 20
9.592238
 30
0.0
 11
10.642087
 21
9.592238
 31
0.0
  0
LINE
  5
67A
  8
0
 10
10.642087
 20
9.592238
 30
0.0
 11
10.782503
 21
9.592238
 31
0.0
  0
LINE
  5
67B
  8
0
 10
10.782503
 20
9.592238
 30
0.0
 11
11.054439
 21
9.592238
 31
0.0
  0
LINE
  5
67C
  8
0
 10
11.054439
 20
9.592238
 30
0.0
 11
11.08241
 21
9.592238
 31
0.0
  0
LINE
  5
67D
  8
0
 10
11.08241
 20
9.592238
 30
0.0
 11
12.442087
 21
9.592238
 31
0.0
  0
LINE
  5
67E
  8
0
 10
12.442087
 20
9.592238
 30
0.0
 11
12.582503
 21
9.592238
 31
0.0
  0
LINE
  5
67F
  8
0
 10
12.582503
 20
9.592238
 30
0.0
 11
12.854439
 21
9.592238
 31
0.0
  0
LINE
  5
680
  8
0
 10
12.854439
 20
9.592238
 30
0.0
 11
12.88241
 21
9.592238
 31
0.0
  0
LINE
  5
681
  8
0
 10
12.88241
 20
9.592238
 30
0.0
 11
14.242087
 21
9.592238
 31
0.0
  0
LINE
  5
682
  8
0
 10
14.242087
 20
9.592238
 30
0.0
 11
14.354065
 21
9.592238
 31
0.0
  0
LINE
  5
683
  8
0
 10
14.354065
 20
9.592238
 30
0.0
 11
14.626
 21
9.592238
 31
0.0
  0
LINE
  5
684
  8
0
 10
0.514
 20
10.092238
 30
0.0
 11
0.542065
 21
10.092238
 31
0.0
  0
LINE
  5
685
  8
0
 10
0.514
 20
10.092238
 30
0.0
 11
0.542065
 21
10.092238
 31
0.0
  0
LINE
  5
686
  8
0
 10
0.542065
 20
10.092238
 30
0.0
 11
1.640684
 21
10.092238
 31
0.0
  0
LINE
  5
687
  8
0
 10
1.640684
 20
10.092238
 30
0.0
 11
1.781006
 21
10.092238
 31
0.0
  0
LINE
  5
688
  8
0
 10
1.781006
 20
10.092238
 30
0.0
 11
2.052942
 21
10.092238
 31
0.0
  0
LINE
  5
689
  8
0
 10
2.052942
 20
10.092238
 30
0.0
 11
2.081006
 21
10.092238
 31
0.0
  0
LINE
  5
68A
  8
0
 10
2.081006
 20
10.092238
 30
0.0
 11
3.440684
 21
10.092238
 31
0.0
  0
LINE
  5
68B
  8
0
 10
3.440684
 20
10.092238
 30
0.0
 11
3.581006
 21
10.092238
 31
0.0
  0
LINE
  5
68C
  8
0
 10
3.581006
 20
10.092238
 30
0.0
 11
3.852942
 21
10.092238
 31
0.0
  0
LINE
  5
68D
  8
0
 10
3.852942
 20
10.092238
 30
0.0
 11
3.881006
 21
10.092238
 31
0.0
  0
LINE
  5
68E
  8
0
 10
3.881006
 20
10.092238
 30
0.0
 11
5.240684
 21
10.092238
 31
0.0
  0
LINE
  5
68F
  8
0
 10
5.240684
 20
10.092238
 30
0.0
 11
5.381006
 21
10.092238
 31
0.0
  0
LINE
  5
690
  8
0
 10
5.381006
 20
10.092238
 30
0.0
 11
5.652942
 21
10.092238
 31
0.0
  0
LINE
  5
691
  8
0
 10
5.652942
 20
10.092238
 30
0.0
 11
5.681006
 21
10.092238
 31
0.0
  0
LINE
  5
692
  8
0
 10
5.681006
 20
10.092238
 30
0.0
 11
7.040684
 21
10.092238
 31
0.0
  0
LINE
  5
693
  8
0
 10
7.040684
 20
10.092238
 30
0.0
 11
7.181006
 21
10.092238
 31
0.0
  0
LINE
  5
694
  8
0
 10
7.181006
 20
10.092238
 30
0.0
 11
7.452942
 21
10.092238
 31
0.0
  0
LINE
  5
695
  8
0
 10
7.452942
 20
10.092238
 30
0.0
 11
7.481006
 21
10.092238
 31
0.0
  0
LINE
  5
696
  8
0
 10
7.481006
 20
10.092238
 30
0.0
 11
8.840684
 21
10.092238
 31
0.0
  0
LINE
  5
697
  8
0
 10
8.840684
 20
10.092238
 30
0.0
 11
8.981006
 21
10.092238
 31
0.0
  0
LINE
  5
698
  8
0
 10
8.981006
 20
10.092238
 30
0.0
 11
9.252942
 21
10.092238
 31
0.0
  0
LINE
  5
699
  8
0
 10
9.252942
 20
10.092238
 30
0.0
 11
9.281006
 21
10.092238
 31
0.0
  0
LINE
  5
69A
  8
0
 10
9.281006
 20
10.092238
 30
0.0
 11
10.640684
 21
10.092238
 31
0.0
  0
LINE
  5
69B
  8
0
 10
10.640684
 20
10.092238
 30
0.0
 11
10.781006
 21
10.092238
 31
0.0
  0
LINE
  5
69C
  8
0
 10
10.781006
 20
10.092238
 30
0.0
 11
11.052942
 21
10.092238
 31
0.0
  0
LINE
  5
69D
  8
0
 10
11.052942
 20
10.092238
 30
0.0
 11
11.081006
 21
10.092238
 31
0.0
  0
LINE
  5
69E
  8
0
 10
11.081006
 20
10.092238
 30
0.0
 11
12.440684
 21
10.092238
 31
0.0
  0
LINE
  5
69F
  8
0
 10
12.440684
 20
10.092238
 30
0.0
 11
12.581006
 21
10.092238
 31
0.0
  0
LINE
  5
6A0
  8
0
 10
12.581006
 20
10.092238
 30
0.0
 11
12.852942
 21
10.092238
 31
0.0
  0
LINE
  5
6A1
  8
0
 10
12.852942
 20
10.092238
 30
0.0
 11
12.881006
 21
10.092238
 31
0.0
  0
LINE
  5
6A2
  8
0
 10
12.881006
 20
10.092238
 30
0.0
 11
14.240684
 21
10.092238
 31
0.0
  0
LINE
  5
6A3
  8
0
 10
14.240684
 20
10.092238
 30
0.0
 11
14.354065
 21
10.092238
 31
0.0
  0
LINE
  5
6A4
  8
0
 10
14.354065
 20
10.092238
 30
0.0
 11
14.626
 21
10.092238
 31
0.0
  0
LINE
  5
6A5
  8
0
 10
0.499
 20
10.592238
 30
0.0
 11
0.527065
 21
10.592238
 31
0.0
  0
LINE
  5
6A6
  8
0
 10
0.499
 20
10.592238
 30
0.0
 11
0.527065
 21
10.592238
 31
0.0
  0
LINE
  5
6A7
  8
0
 10
0.527065
 20
10.592238
 30
0.0
 11
1.639281
 21
10.592238
 31
0.0
  0
LINE
  5
6A8
  8
0
 10
1.639281
 20
10.592238
 30
0.0
 11
1.779603
 21
10.592238
 31
0.0
  0
LINE
  5
6A9
  8
0
 10
1.779603
 20
10.592238
 30
0.0
 11
2.051539
 21
10.592238
 31
0.0
  0
LINE
  5
6AA
  8
0
 10
2.051539
 20
10.592238
 30
0.0
 11
2.079603
 21
10.592238
 31
0.0
  0
LINE
  5
6AB
  8
0
 10
2.079603
 20
10.592238
 30
0.0
 11
3.439281
 21
10.592238
 31
0.0
  0
LINE
  5
6AC
  8
0
 10
3.439281
 20
10.592238
 30
0.0
 11
3.579603
 21
10.592238
 31
0.0
  0
LINE
  5
6AD
  8
0
 10
3.579603
 20
10.592238
 30
0.0
 11
3.851539
 21
10.592238
 31
0.0
  0
LINE
  5
6AE
  8
0
 10
3.851539
 20
10.592238
 30
0.0
 11
3.879603
 21
10.592238
 31
0.0
  0
LINE
  5
6AF
  8
0
 10
3.879603
 20
10.592238
 30
0.0
 11
5.239281
 21
10.592238
 31
0.0
  0
LINE
  5
6B0
  8
0
 10
5.239281
 20
10.592238
 30
0.0
 11
5.379603
 21
10.592238
 31
0.0
  0
LINE
  5
6B1
  8
0
 10
5.379603
 20
10.592238
 30
0.0
 11
5.651539
 21
10.592238
 31
0.0
  0
LINE
  5
6B2
  8
0
 10
5.651539
 20
10.592238
 30
0.0
 11
5.679603
 21
10.592238
 31
0.0
  0
LINE
  5
6B3
  8
0
 10
5.679603
 20
10.592238
 30
0.0
 11
7.039281
 21
10.592238
 31
0.0
  0
LINE
  5
6B4
  8
0
 10
7.039281
 20
10.592238
 30
0.0
 11
7.179603
 21
10.592238
 31
0.0
  0
LINE
  5
6B5
  8
0
 10
7.179603
 20
10.592238
 30
0.0
 11
7.451539
 21
10.592238
 31
0.0
  0
LINE
  5
6B6
  8
0
 10
7.451539
 20
10.592238
 30
0.0
 11
7.479603
 21
10.592238
 31
0.0
  0
LINE
  5
6B7
  8
0
 10
7.479603
 20
10.592238
 30
0.0
 11
8.839281
 21
10.592238
 31
0.0
  0
LINE
  5
6B8
  8
0
 10
8.839281
 20
10.592238
 30
0.0
 11
8.979603
 21
10.592238
 31
0.0
  0
LINE
  5
6B9
  8
0
 10
8.979603
 20
10.592238
 30
0.0
 11
9.251539
 21
10.592238
 31
0.0
  0
LINE
  5
6BA
  8
0
 10
9.251539
 20
10.592238
 30
0.0
 11
9.279603
 21
10.592238
 31
0.0
  0
LINE
  5
6BB
  8
0
 10
9.279603
 20
10.592238
 30
0.0
 11
10.639281
 21
10.592238
 31
0.0
  0
LINE
  5
6BC
  8
0
 10
10.639281
 20
10.592238
 30
0.0
 11
10.779603
 21
10.592238
 31
0.0
  0
LINE
  5
6BD
  8
0
 10
10.779603
 20
10.592238
 30
0.0
 11
11.051539
 21
10.592238
 31
0.0
  0
LINE
  5
6BE
  8
0
 10
11.051539
 20
10.592238
 30
0.0
 11
11.079603
 21
10.592238
 31
0.0
  0
LINE
  5
6BF
  8
0
 10
11.079603
 20
10.592238
 30
0.0
 11
12.439281
 21
10.592238
 31
0.0
  0
LINE
  5
6C0
  8
0
 10
12.439281
 20
10.592238
 30
0.0
 11
12.579603
 21
10.592238
 31
0.0
  0
LINE
  5
6C1
  8
0
 10
12.579603
 20
10.592238
 30
0.0
 11
12.851539
 21
10.592238
 31
0.0
  0
LINE
  5
6C2
  8
0
 10
12.851539
 20
10.592238
 30
0.0
 11
12.879603
 21
10.592238
 31
0.0
  0
LINE
  5
6C3
  8
0
 10
12.879603
 20
10.592238
 30
0.0
 11
14.239281
 21
10.592238
 31
0.0
  0
LINE
  5
6C4
  8
0
 10
14.239281
 20
10.592238
 30
0.0
 11
14.354065
 21
10.592238
 31
0.0
  0
LINE
  5
6C5
  8
0
 10
14.354065
 20
10.592238
 30
0.0
 11
14.626
 21
10.592238
 31
0.0
  0
LINE
  5
6C6
  8
0
 10
0.484
 20
11.092238
 30
0.0
 11
0.512065
 21
11.092238
 31
0.0
  0
LINE
  5
6C7
  8
0
 10
0.484
 20
11.092238
 30
0.0
 11
0.512065
 21
11.092238
 31
0.0
  0
LINE
  5
6C8
  8
0
 10
0.512065
 20
11.092238
 30
0.0
 11
1.637877
 21
11.092238
 31
0.0
  0
LINE
  5
6C9
  8
0
 10
1.637877
 20
11.092238
 30
0.0
 11
1.7782
 21
11.092238
 31
0.0
  0
LINE
  5
6CA
  8
0
 10
1.7782
 20
11.092238
 30
0.0
 11
2.050135
 21
11.092238
 31
0.0
  0
LINE
  5
6CB
  8
0
 10
2.050135
 20
11.092238
 30
0.0
 11
2.0782
 21
11.092238
 31
0.0
  0
LINE
  5
6CC
  8
0
 10
2.0782
 20
11.092238
 30
0.0
 11
3.437877
 21
11.092238
 31
0.0
  0
LINE
  5
6CD
  8
0
 10
3.437877
 20
11.092238
 30
0.0
 11
3.5782
 21
11.092238
 31
0.0
  0
LINE
  5
6CE
  8
0
 10
3.5782
 20
11.092238
 30
0.0
 11
3.850135
 21
11.092238
 31
0.0
  0
LINE
  5
6CF
  8
0
 10
3.850135
 20
11.092238
 30
0.0
 11
3.8782
 21
11.092238
 31
0.0
  0
LINE
  5
6D0
  8
0
 10
3.8782
 20
11.092238
 30
0.0
 11
5.237877
 21
11.092238
 31
0.0
  0
LINE
  5
6D1
  8
0
 10
5.237877
 20
11.092238
 30
0.0
 11
5.3782
 21
11.092238
 31
0.0
  0
LINE
  5
6D2
  8
0
 10
5.3782
 20
11.092238
 30
0.0
 11
5.650135
 21
11.092238
 31
0.0
  0
LINE
  5
6D3
  8
0
 10
5.650135
 20
11.092238
 30
0.0
 11
5.6782
 21
11.092238
 31
0.0
  0
LINE
  5
6D4
  8
0
 10
5.6782
 20
11.092238
 30
0.0
 11
7.037877
 21
11.092238
 31
0.0
  0
LINE
  5
6D5
  8
0
 10
7.037877
 20
11.092238
 30
0.0
 11
7.1782
 21
11.092238
 31
0.0
  0
LINE
  5
6D6
  8
0
 10
7.1782
 20
11.092238
 30
0.0
 11
7.450135
 21
11.092238
 31
0.0
  0
LINE
  5
6D7
  8
0
 10
7.450135
 20
11.092238
 30
0.0
 11
7.4782
 21
11.092238
 31
0.0
  0
LINE
  5
6D8
  8
0
 10
7.4782
 20
11.092238
 30
0.0
 11
8.837877
 21
11.092238
 31
0.0
  0
LINE
  5
6D9
  8
0
 10
8.837877
 20
11.092238
 30
0.0
 11
8.9782
 21
11.092238
 31
0.0
  0
LINE
  5
6DA
  8
0
 10
8.9782
 20
11.092238
 30
0.0
 11
9.250135
 21
11.092238
 31
0.0
  0
LINE
  5
6DB
  8
0
 10
9.250135
 20
11.092238
 30
0.0
 11
9.2782
 21
11.092238
 31
0.0
  0
LINE
  5
6DC
  8
0
 10
9.2782
 20
11.092238
 30
0.0
 11
10.637877
 21
11.092238
 31
0.0
  0
LINE
  5
6DD
  8
0
 10
10.637877
 20
11.092238
 30
0.0
 11
10.7782
 21
11.092238
 31
0.0
  0
LINE
  5
6DE
  8
0
 10
10.7782
 20
11.092238
 30
0.0
 11
11.050135
 21
11.092238
 31
0.0
  0
LINE
  5
6DF
  8
0
 10
11.050135
 20
11.092238
 30
0.0
 11
11.0782
 21
11.092238
 31
0.0
  0
LINE
  5
6E0
  8
0
 10
11.0782
 20
11.092238
 30
0.0
 11
12.437877
 21
11.092238
 31
0.0
  0
LINE
  5
6E1
  8
0
 10
12.437877
 20
11.092238
 30
0.0
 11
12.5782
 21
11.092238
 31
0.0
  0
LINE
  5
6E2
  8
0
 10
12.5782
 20
11.092238
 30
0.0
 11
12.850135
 21
11.092238
 31
0.0
  0
LINE
  5
6E3
  8
0
 10
12.850135
 20
11.092238
 30
0.0
 11
12.8782
 21
11.092238
 31
0.0
  0
LINE
  5
6E4
  8
0
 10
12.8782
 20
11.092238
 30
0.0
 11
14.237877
 21
11.092238
 31
0.0
  0
LINE
  5
6E5
  8
0
 10
14.237877
 20
11.092238
 30
0.0
 11
14.354065
 21
11.092238
 31
0.0
  0
LINE
  5
6E6
  8
0
 10
14.354065
 20
11.092238
 30
0.0
 11
14.626
 21
11.092238
 31
0.0
  0
LINE
  5
6E7
  8
0
 10
0.468
 20
11.592238
 30
0.0
 11
0.496065
 21
11.592238
 31
0.0
  0
LINE
  5
6E8
  8
0
 10
0.468
 20
11.592238
 30
0.0
 11
0.496065
 21
11.592238
 31
0.0
  0
LINE
  5
6E9
  8
0
 10
0.496065
 20
11.592238
 30
0.0
 11
1.636381
 21
11.592238
 31
0.0
  0
LINE
  5
6EA
  8
0
 10
1.636381
 20
11.592238
 30
0.0
 11
1.776703
 21
11.592238
 31
0.0
  0
LINE
  5
6EB
  8
0
 10
1.776703
 20
11.592238
 30
0.0
 11
2.048639
 21
11.592238
 31
0.0
  0
LINE
  5
6EC
  8
0
 10
2.048639
 20
11.592238
 30
0.0
 11
2.076703
 21
11.592238
 31
0.0
  0
LINE
  5
6ED
  8
0
 10
2.076703
 20
11.592238
 30
0.0
 11
3.436381
 21
11.592238
 31
0.0
  0
LINE
  5
6EE
  8
0
 10
3.436381
 20
11.592238
 30
0.0
 11
3.576703
 21
11.592238
 31
0.0
  0
LINE
  5
6EF
  8
0
 10
3.576703
 20
11.592238
 30
0.0
 11
3.848639
 21
11.592238
 31
0.0
  0
LINE
  5
6F0
  8
0
 10
3.848639
 20
11.592238
 30
0.0
 11
3.876703
 21
11.592238
 31
0.0
  0
LINE
  5
6F1
  8
0
 10
3.876703
 20
11.592238
 30
0.0
 11
5.236381
 21
11.592238
 31
0.0
  0
LINE
  5
6F2
  8
0
 10
5.236381
 20
11.592238
 30
0.0
 11
5.376703
 21
11.592238
 31
0.0
  0
LINE
  5
6F3
  8
0
 10
5.376703
 20
11.592238
 30
0.0
 11
5.648639
 21
11.592238
 31
0.0
  0
LINE
  5
6F4
  8
0
 10
5.648639
 20
11.592238
 30
0.0
 11
5.676703
 21
11.592238
 31
0.0
  0
LINE
  5
6F5
  8
0
 10
5.676703
 20
11.592238
 30
0.0
 11
7.036381
 21
11.592238
 31
0.0
  0
LINE
  5
6F6
  8
0
 10
7.036381
 20
11.592238
 30
0.0
 11
7.176703
 21
11.592238
 31
0.0
  0
LINE
  5
6F7
  8
0
 10
7.176703
 20
11.592238
 30
0.0
 11
7.448639
 21
11.592238
 31
0.0
  0
LINE
  5
6F8
  8
0
 10
7.448639
 20
11.592238
 30
0.0
 11
7.476703
 21
11.592238
 31
0.0
  0
LINE
  5
6F9
  8
0
 10
7.476703
 20
11.592238
 30
0.0
 11
8.836381
 21
11.592238
 31
0.0
  0
LINE
  5
6FA
  8
0
 10
8.836381
 20
11.592238
 30
0.0
 11
8.976703
 21
11.592238
 31
0.0
  0
LINE
  5
6FB
  8
0
 10
8.976703
 20
11.592238
 30
0.0
 11
9.248639
 21
11.592238
 31
0.0
  0
LINE
  5
6FC
  8
0
 10
9.248639
 20
11.592238
 30
0.0
 11
9.276703
 21
11.592238
 31
0.0
  0
LINE
  5
6FD
  8
0
 10
9.276703
 20
11.592238
 30
0.0
 11
10.636381
 21
11.592238
 31
0.0
  0
LINE
  5
6FE
  8
0
 10
10.636381
 20
11.592238
 30
0.0
 11
10.776703
 21
11.592238
 31
0.0
  0
LINE
  5
6FF
  8
0
 10
10.776703
 20
11.592238
 30
0.0
 11
11.048639
 21
11.592238
 31
0.0
  0
LINE
  5
700
  8
0
 10
11.048639
 20
11.592238
 30
0.0
 11
11.076703
 21
11.592238
 31
0.0
  0
LINE
  5
701
  8
0
 10
11.076703
 20
11.592238
 30
0.0
 11
12.436381
 21
11.592238
 31
0.0
  0
LINE
  5
702
  8
0
 10
12.436381
 20
11.592238
 30
0.0
 11
12.576703
 21
11.592238
 31
0.0
  0
LINE
  5
703
  8
0
 10
12.576703
 20
11.592238
 30
0.0
 11
12.848639
 21
11.592238
 31
0.0
  0
LINE
  5
704
  8
0
 10
12.848639
 20
11.592238
 30
0.0
 11
12.876703
 21
11.592238
 31
0.0
  0
LINE
  5
705
  8
0
 10
12.876703
 20
11.592238
 30
0.0
 11
14.236381
 21
11.592238
 31
0.0
  0
LINE
  5
706
  8
0
 10
14.236381
 20
11.592238
 30
0.0
 11
14.354065
 21
11.592238
 31
0.0
  0
LINE
  5
707
  8
0
 10
14.354065
 20
11.592238
 30
0.0
 11
14.626
 21
11.592238
 31
0.0
  0
LINE
  5
708
  8
0
 10
0.453
 20
12.092238
 30
0.0
 11
0.481065
 21
12.092238
 31
0.0
  0
LINE
  5
709
  8
0
 10
0.453
 20
12.092238
 30
0.0
 11
0.481065
 21
12.092238
 31
0.0
  0
LINE
  5
70A
  8
0
 10
0.481065
 20
12.092238
 30
0.0
 11
1.634977
 21
12.092238
 31
0.0
  0
LINE
  5
70B
  8
0
 10
1.634977
 20
12.092238
 30
0.0
 11
1.7753
 21
12.092238
 31
0.0
  0
LINE
  5
70C
  8
0
 10
1.7753
 20
12.092238
 30
0.0
 11
2.047235
 21
12.092238
 31
0.0
  0
LINE
  5
70D
  8
0
 10
2.047235
 20
12.092238
 30
0.0
 11
2.0753
 21
12.092238
 31
0.0
  0
LINE
  5
70E
  8
0
 10
2.0753
 20
12.092238
 30
0.0
 11
3.434977
 21
12.092238
 31
0.0
  0
LINE
  5
70F
  8
0
 10
3.434977
 20
12.092238
 30
0.0
 11
3.5753
 21
12.092238
 31
0.0
  0
LINE
  5
710
  8
0
 10
3.5753
 20
12.092238
 30
0.0
 11
3.847235
 21
12.092238
 31
0.0
  0
LINE
  5
711
  8
0
 10
3.847235
 20
12.092238
 30
0.0
 11
3.8753
 21
12.092238
 31
0.0
  0
LINE
  5
712
  8
0
 10
3.8753
 20
12.092238
 30
0.0
 11
5.234977
 21
12.092238
 31
0.0
  0
LINE
  5
713
  8
0
 10
5.234977
 20
12.092238
 30
0.0
 11
5.3753
 21
12.092238
 31
0.0
  0
LINE
  5
714
  8
0
 10
5.3753
 20
12.092238
 30
0.0
 11
5.647235
 21
12.092238
 31
0.0
  0
LINE
  5
715
  8
0
 10
5.647235
 20
12.092238
 30
0.0
 11
5.6753
 21
12.092238
 31
0.0
  0
LINE
  5
716
  8
0
 10
5.6753
 20
12.092238
 30
0.0
 11
7.034977
 21
12.092238
 31
0.0
  0
LINE
  5
717
  8
0
 10
7.034977
 20
12.092238
 30
0.0
 11
7.1753
 21
12.092238
 31
0.0
  0
LINE
  5
718
  8
0
 10
7.1753
 20
12.092238
 30
0.0
 11
7.447235
 21
12.092238
 31
0.0
  0
LINE
  5
719
  8
0
 10
7.447235
 20
12.092238
 30
0.0
 11
7.4753
 21
12.092238
 31
0.0
  0
LINE
  5
71A
  8
0
 10
7.4753
 20
12.092238
 30
0.0
 11
8.834977
 21
12.092238
 31
0.0
  0
LINE
  5
71B
  8
0
 10
8.834977
 20
12.092238
 30
0.0
 11
8.9753
 21
12.092238
 31
0.0
  0
LINE
  5
71C
  8
0
 10
8.9753
 20
12.092238
 30
0.0
 11
9.247235
 21
12.092238
 31
0.0
  0
LINE
  5
71D
  8
0
 10
9.247235
 20
12.092238
 30
0.0
 11
9.2753
 21
12.092238
 31
0.0
  0
LINE
  5
71E
  8
0
 10
9.2753
 20
12.092238
 30
0.0
 11
10.634977
 21
12.092238
 31
0.0
  0
LINE
  5
71F
  8
0
 10
10.634977
 20
12.092238
 30
0.0
 11
10.7753
 21
12.092238
 31
0.0
  0
LINE
  5
720
  8
0
 10
10.7753
 20
12.092238
 30
0.0
 11
11.047235
 21
12.092238
 31
0.0
  0
LINE
  5
721
  8
0
 10
11.047235
 20
12.092238
 30
0.0
 11
11.0753
 21
12.092238
 31
0.0
  0
LINE
  5
722
  8
0
 10
11.0753
 20
12.092238
 30
0.0
 11
12.434977
 21
12.092238
 31
0.0
  0
LINE
  5
723
  8
0
 10
12.434977
 20
12.092238
 30
0.0
 11
12.5753
 21
12.092238
 31
0.0
  0
LINE
  5
724
  8
0
 10
12.5753
 20
12.092238
 30
0.0
 11
12.847235
 21
12.092238
 31
0.0
  0
LINE
  5
725
  8
0
 10
12.847235
 20
12.092238
 30
0.0
 11
12.8753
 21
12.092238
 31
0.0
  0
LINE
  5
726
  8
0
 10
12.8753
 20
12.092238
 30
0.0
 11
14.234977
 21
12.092238
 31
0.0
  0
LINE
  5
727
  8
0
 10
14.234977
 20
12.092238
 30
0.0
 11
14.354065
 21
12.092238
 31
0.0
  0
LINE
  5
728
  8
0
 10
14.354065
 20
12.092238
 30
0.0
 11
14.626
 21
12.092238
 31
0.0
  0
LINE
  5
729
  8
0
 10
0.438
 20
12.592238
 30
0.0
 11
0.466065
 21
12.592238
 31
0.0
  0
LINE
  5
72A
  8
0
 10
0.438
 20
12.592238
 30
0.0
 11
0.466065
 21
12.592238
 31
0.0
  0
LINE
  5
72B
  8
0
 10
0.466065
 20
12.592238
 30
0.0
 11
1.633574
 21
12.592238
 31
0.0
  0
LINE
  5
72C
  8
0
 10
1.633574
 20
12.592238
 30
0.0
 11
1.773897
 21
12.592238
 31
0.0
  0
LINE
  5
72D
  8
0
 10
1.773897
 20
12.592238
 30
0.0
 11
2.045832
 21
12.592238
 31
0.0
  0
LINE
  5
72E
  8
0
 10
2.045832
 20
12.592238
 30
0.0
 11
2.073897
 21
12.592238
 31
0.0
  0
LINE
  5
72F
  8
0
 10
2.073897
 20
12.592238
 30
0.0
 11
3.433574
 21
12.592238
 31
0.0
  0
LINE
  5
730
  8
0
 10
3.433574
 20
12.592238
 30
0.0
 11
3.573897
 21
12.592238
 31
0.0
  0
LINE
  5
731
  8
0
 10
3.573897
 20
12.592238
 30
0.0
 11
3.845832
 21
12.592238
 31
0.0
  0
LINE
  5
732
  8
0
 10
3.845832
 20
12.592238
 30
0.0
 11
3.873897
 21
12.592238
 31
0.0
  0
LINE
  5
733
  8
0
 10
3.873897
 20
12.592238
 30
0.0
 11
5.233574
 21
12.592238
 31
0.0
  0
LINE
  5
734
  8
0
 10
5.233574
 20
12.592238
 30
0.0
 11
5.373897
 21
12.592238
 31
0.0
  0
LINE
  5
735
  8
0
 10
5.373897
 20
12.592238
 30
0.0
 11
5.645832
 21
12.592238
 31
0.0
  0
LINE
  5
736
  8
0
 10
5.645832
 20
12.592238
 30
0.0
 11
5.673897
 21
12.592238
 31
0.0
  0
LINE
  5
737
  8
0
 10
5.673897
 20
12.592238
 30
0.0
 11
7.033574
 21
12.592238
 31
0.0
  0
LINE
  5
738
  8
0
 10
7.033574
 20
12.592238
 30
0.0
 11
7.173897
 21
12.592238
 31
0.0
  0
LINE
  5
739
  8
0
 10
7.173897
 20
12.592238
 30
0.0
 11
7.445832
 21
12.592238
 31
0.0
  0
LINE
  5
73A
  8
0
 10
7.445832
 20
12.592238
 30
0.0
 11
7.473897
 21
12.592238
 31
0.0
  0
LINE
  5
73B
  8
0
 10
7.473897
 20
12.592238
 30
0.0
 11
8.833574
 21
12.592238
 31
0.0
  0
LINE
  5
73C
  8
0
 10
8.833574
 20
12.592238
 30
0.0
 11
8.973897
 21
12.592238
 31
0.0
  0
LINE
  5
73D
  8
0
 10
8.973897
 20
12.592238
 30
0.0
 11
9.245832
 21
12.592238
 31
0.0
  0
LINE
  5
73E
  8
0
 10
9.245832
 20
12.592238
 30
0.0
 11
9.273897
 21
12.592238
 31
0.0
  0
LINE
  5
73F
  8
0
 10
9.273897
 20
12.592238
 30
0.0
 11
10.633574
 21
12.592238
 31
0.0
  0
LINE
  5
740
  8
0
 10
10.633574
 20
12.592238
 30
0.0
 11
10.773897
 21
12.592238
 31
0.0
  0
LINE
  5
741
  8
0
 10
10.773897
 20
12.592238
 30
0.0
 11
11.045832
 21
12.592238
 31
0.0
  0
LINE
  5
742
  8
0
 10
11.045832
 20
12.592238
 30
0.0
 11
11.073897
 21
12.592238
 31
0.0
  0
LINE
  5
743
  8
0
 10
11.073897
 20
12.592238
 30
0.0
 11
12.433574
 21
12.592238
 31
0.0
  0
LINE
  5
744
  8
0
 10
12.433574
 20
12.592238
 30
0.0
 11
12.573897
 21
12.592238
 31
0.0
  0
LINE
  5
745
  8
0
 10
12.573897
 20
12.592238
 30
0.0
 11
12.845832
 21
12.592238
 31
0.0
  0
LINE
  5
746
  8
0
 10
12.845832
 20
12.592238
 30
0.0
 11
12.873897
 21
12.592238
 31
0.0
  0
LINE
  5
747
  8
0
 10
12.873897
 20
12.592238
 30
0.0
 11
14.233574
 21
12.592238
 31
0.0
  0
LINE
  5
748
  8
0
 10
14.233574
 20
12.592238
 30
0.0
 11
14.354065
 21
12.592238
 31
0.0
  0
LINE
  5
749
  8
0
 10
14.354065
 20
12.592238
 30
0.0
 11
14.626
 21
12.592238
 31
0.0
  0
LINE
  5
74A
  8
0
 10
0.451
 20
13.092238
 30
0.0
 11
0.479065
 21
13.092238
 31
0.0
  0
LINE
  5
74B
  8
0
 10
0.451
 20
13.092238
 30
0.0
 11
0.479065
 21
13.092238
 31
0.0
  0
LINE
  5
74C
  8
0
 10
0.479065
 20
13.092238
 30
0.0
 11
1.63479
 21
13.092238
 31
0.0
  0
LINE
  5
74D
  8
0
 10
1.63479
 20
13.092238
 30
0.0
 11
1.775113
 21
13.092238
 31
0.0
  0
LINE
  5
74E
  8
0
 10
1.775113
 20
13.092238
 30
0.0
 11
2.047048
 21
13.092238
 31
0.0
  0
LINE
  5
74F
  8
0
 10
2.047048
 20
13.092238
 30
0.0
 11
2.075113
 21
13.092238
 31
0.0
  0
LINE
  5
750
  8
0
 10
2.075113
 20
13.092238
 30
0.0
 11
3.43479
 21
13.092238
 31
0.0
  0
LINE
  5
751
  8
0
 10
3.43479
 20
13.092238
 30
0.0
 11
3.575113
 21
13.092238
 31
0.0
  0
LINE
  5
752
  8
0
 10
3.575113
 20
13.092238
 30
0.0
 11
3.847048
 21
13.092238
 31
0.0
  0
LINE
  5
753
  8
0
 10
3.847048
 20
13.092238
 30
0.0
 11
3.875113
 21
13.092238
 31
0.0
  0
LINE
  5
754
  8
0
 10
3.875113
 20
13.092238
 30
0.0
 11
5.23479
 21
13.092238
 31
0.0
  0
LINE
  5
755
  8
0
 10
5.23479
 20
13.092238
 30
0.0
 11
5.375113
 21
13.092238
 31
0.0
  0
LINE
  5
756
  8
0
 10
5.375113
 20
13.092238
 30
0.0
 11
5.647048
 21
13.092238
 31
0.0
  0
LINE
  5
757
  8
0
 10
5.647048
 20
13.092238
 30
0.0
 11
5.675113
 21
13.092238
 31
0.0
  0
LINE
  5
758
  8
0
 10
5.675113
 20
13.092238
 30
0.0
 11
7.03479
 21
13.092238
 31
0.0
  0
LINE
  5
759
  8
0
 10
7.03479
 20
13.092238
 30
0.0
 11
7.175113
 21
13.092238
 31
0.0
  0
LINE
  5
75A
  8
0
 10
7.175113
 20
13.092238
 30
0.0
 11
7.447048
 21
13.092238
 31
0.0
  0
LINE
  5
75B
  8
0
 10
7.447048
 20
13.092238
 30
0.0
 11
7.475113
 21
13.092238
 31
0.0
  0
LINE
  5
75C
  8
0
 10
7.475113
 20
13.092238
 30
0.0
 11
8.83479
 21
13.092238
 31
0.0
  0
LINE
  5
75D
  8
0
 10
8.83479
 20
13.092238
 30
0.0
 11
8.975113
 21
13.092238
 31
0.0
  0
LINE
  5
75E
  8
0
 10
8.975113
 20
13.092238
 30
0.0
 11
9.247048
 21
13.092238
 31
0.0
  0
LINE
  5
75F
  8
0
 10
9.247048
 20
13.092238
 30
0.0
 11
9.275113
 21
13.092238
 31
0.0
  0
LINE
  5
760
  8
0
 10
9.275113
 20
13.092238
 30
0.0
 11
10.63479
 21
13.092238
 31
0.0
  0
LINE
  5
761
  8
0
 10
10.63479
 20
13.092238
 30
0.0
 11
10.775113
 21
13.092238
 31
0.0
  0
LINE
  5
762
  8
0
 10
10.775113
 20
13.092238
 30
0.0
 11
11.047048
 21
13.092238
 31
0.0
  0
LINE
  5
763
  8
0
 10
11.047048
 20
13.092238
 30
0.0
 11
11.075113
 21
13.092238
 31
0.0
  0
LINE
  5
764
  8
0
 10
11.075113
 20
13.092238
 30
0.0
 11
12.43479
 21
13.092238
 31
0.0
  0
LINE
  5
765
  8
0
 10
12.43479
 20
13.092238
 30
0.0
 11
12.575113
 21
13.092238
 31
0.0
  0
LINE
  5
766
  8
0
 10
12.575113
 20
13.092238
 30
0.0
 11
12.847048
 21
13.092238
 31
0.0
  0
LINE
  5
767
  8
0
 10
12.847048
 20
13.092238
 30
0.0
 11
12.875113
 21
13.092238
 31
0.0
  0
LINE
  5
768
  8
0
 10
12.875113
 20
13.092238
 30
0.0
 11
14.23479
 21
13.092238
 31
0.0
  0
LINE
  5
769
  8
0
 10
14.23479
 20
13.092238
 30
0.0
 11
14.354065
 21
13.092238
 31
0.0
  0
LINE
  5
76A
  8
0
 10
14.354065
 20
13.092238
 30
0.0
 11
14.626
 21
13.092238
 31
0.0
  0
LINE
  5
76B
  8
0
 10
0.511
 20
13.592238
 30
0.0
 11
0.539065
 21
13.592238
 31
0.0
  0
LINE
  5
76C
  8
0
 10
0.511
 20
13.592238
 30
0.0
 11
0.539065
 21
13.592238
 31
0.0
  0
LINE
  5
76D
  8
0
 10
0.539065
 20
13.592238
 30
0.0
 11
1.640403
 21
13.592238
 31
0.0
  0
LINE
  5
76E
  8
0
 10
1.640403
 20
13.592238
 30
0.0
 11
1.780726
 21
13.592238
 31
0.0
  0
LINE
  5
76F
  8
0
 10
1.780726
 20
13.592238
 30
0.0
 11
2.052661
 21
13.592238
 31
0.0
  0
LINE
  5
770
  8
0
 10
2.052661
 20
13.592238
 30
0.0
 11
2.080726
 21
13.592238
 31
0.0
  0
LINE
  5
771
  8
0
 10
2.080726
 20
13.592238
 30
0.0
 11
3.440403
 21
13.592238
 31
0.0
  0
LINE
  5
772
  8
0
 10
3.440403
 20
13.592238
 30
0.0
 11
3.580726
 21
13.592238
 31
0.0
  0
LINE
  5
773
  8
0
 10
3.580726
 20
13.592238
 30
0.0
 11
3.852661
 21
13.592238
 31
0.0
  0
LINE
  5
774
  8
0
 10
3.852661
 20
13.592238
 30
0.0
 11
3.880726
 21
13.592238
 31
0.0
  0
LINE
  5
775
  8
0
 10
3.880726
 20
13.592238
 30
0.0
 11
5.240403
 21
13.592238
 31
0.0
  0
LINE
  5
776
  8
0
 10
5.240403
 20
13.592238
 30
0.0
 11
5.380726
 21
13.592238
 31
0.0
  0
LINE
  5
777
  8
0
 10
5.380726
 20
13.592238
 30
0.0
 11
5.652661
 21
13.592238
 31
0.0
  0
LINE
  5
778
  8
0
 10
5.652661
 20
13.592238
 30
0.0
 11
5.680726
 21
13.592238
 31
0.0
  0
LINE
  5
779
  8
0
 10
5.680726
 20
13.592238
 30
0.0
 11
7.040403
 21
13.592238
 31
0.0
  0
LINE
  5
77A
  8
0
 10
7.040403
 20
13.592238
 30
0.0
 11
7.180726
 21
13.592238
 31
0.0
  0
LINE
  5
77B
  8
0
 10
7.180726
 20
13.592238
 30
0.0
 11
7.452661
 21
13.592238
 31
0.0
  0
LINE
  5
77C
  8
0
 10
7.452661
 20
13.592238
 30
0.0
 11
7.480726
 21
13.592238
 31
0.0
  0
LINE
  5
77D
  8
0
 10
7.480726
 20
13.592238
 30
0.0
 11
8.840403
 21
13.592238
 31
0.0
  0
LINE
  5
77E
  8
0
 10
8.840403
 20
13.592238
 30
0.0
 11
8.980726
 21
13.592238
 31
0.0
  0
LINE
  5
77F
  8
0
 10
8.980726
 20
13.592238
 30
0.0
 11
9.252661
 21
13.592238
 31
0.0
  0
LINE
  5
780
  8
0
 10
9.252661
 20
13.592238
 30
0.0
 11
9.280726
 21
13.592238
 31
0.0
  0
LINE
  5
781
  8
0
 10
9.280726
 20
13.592238
 30
0.0
 11
10.640403
 21
13.592238
 31
0.0
  0
LINE
  5
782
  8
0
 10
10.640403
 20
13.592238
 30
0.0
 11
10.780726
 21
13.592238
 31
0.0
  0
LINE
  5
783
  8
0
 10
10.780726
 20
13.592238
 30
0.0
 11
11.052661
 21
13.592238
 31
0.0
  0
LINE
  5
784
  8
0
 10
11.052661
 20
13.592238
 30
0.0
 11
11.080726
 21
13.592238
 31
0.0
  0
LINE
  5
785
  8
0
 10
11.080726
 20
13.592238
 30
0.0
 11
12.440403
 21
13.592238
 31
0.0
  0
LINE
  5
786
  8
0
 10
12.440403
 20
13.592238
 30
0.0
 11
12.580726
 21
13.592238
 31
0.0
  0
LINE
  5
787
  8
0
 10
12.580726
 20
13.592238
 30
0.0
 11
12.852661
 21
13.592238
 31
0.0
  0
LINE
  5
788
  8
0
 10
12.852661
 20
13.592238
 30
0.0
 11
12.880726
 21
13.592238
 31
0.0
  0
LINE
  5
789
  8
0
 10
12.880726
 20
13.592238
 30
0.0
 11
14.240403
 21
13.592238
 31
0.0
  0
LINE
  5
78A
  8
0
 10
14.240403
 20
13.592238
 30
0.0
 11
14.354065
 21
13.592238
 31
0.0
  0
LINE
  5
78B
  8
0
 10
14.354065
 20
13.592238
 30
0.0
 11
14.626
 21
13.592238
 31
0.0
  0
LINE
  5
78C
  8
0
 10
0.654
 20
14.092238
 30
0.0
 11
0.682065
 21
14.092238
 31
0.0
  0
LINE
  5
78D
  8
0
 10
0.654
 20
14.092238
 30
0.0
 11
0.682065
 21
14.092238
 31
0.0
  0
LINE
  5
78E
  8
0
 10
0.682065
 20
14.092238
 30
0.0
 11
1.653781
 21
14.092238
 31
0.0
  0
LINE
  5
78F
  8
0
 10
1.653781
 20
14.092238
 30
0.0
 11
1.794103
 21
14.092238
 31
0.0
  0
LINE
  5
790
  8
0
 10
1.794103
 20
14.092238
 30
0.0
 11
2.066039
 21
14.092238
 31
0.0
  0
LINE
  5
791
  8
0
 10
2.066039
 20
14.092238
 30
0.0
 11
2.094103
 21
14.092238
 31
0.0
  0
LINE
  5
792
  8
0
 10
2.094103
 20
14.092238
 30
0.0
 11
3.453781
 21
14.092238
 31
0.0
  0
LINE
  5
793
  8
0
 10
3.453781
 20
14.092238
 30
0.0
 11
3.594103
 21
14.092238
 31
0.0
  0
LINE
  5
794
  8
0
 10
3.594103
 20
14.092238
 30
0.0
 11
3.866039
 21
14.092238
 31
0.0
  0
LINE
  5
795
  8
0
 10
3.866039
 20
14.092238
 30
0.0
 11
3.894103
 21
14.092238
 31
0.0
  0
LINE
  5
796
  8
0
 10
3.894103
 20
14.092238
 30
0.0
 11
5.253781
 21
14.092238
 31
0.0
  0
LINE
  5
797
  8
0
 10
5.253781
 20
14.092238
 30
0.0
 11
5.394103
 21
14.092238
 31
0.0
  0
LINE
  5
798
  8
0
 10
5.394103
 20
14.092238
 30
0.0
 11
5.666039
 21
14.092238
 31
0.0
  0
LINE
  5
799
  8
0
 10
5.666039
 20
14.092238
 30
0.0
 11
5.694103
 21
14.092238
 31
0.0
  0
LINE
  5
79A
  8
0
 10
5.694103
 20
14.092238
 30
0.0
 11
7.053781
 21
14.092238
 31
0.0
  0
LINE
  5
79B
  8
0
 10
7.053781
 20
14.092238
 30
0.0
 11
7.194103
 21
14.092238
 31
0.0
  0
LINE
  5
79C
  8
0
 10
7.194103
 20
14.092238
 30
0.0
 11
7.466039
 21
14.092238
 31
0.0
  0
LINE
  5
79D
  8
0
 10
7.466039
 20
14.092238
 30
0.0
 11
7.494103
 21
14.092238
 31
0.0
  0
LINE
  5
79E
  8
0
 10
7.494103
 20
14.092238
 30
0.0
 11
8.853781
 21
14.092238
 31
0.0
  0
LINE
  5
79F
  8
0
 10
8.853781
 20
14.092238
 30
0.0
 11
8.994103
 21
14.092238
 31
0.0
  0
LINE
  5
7A0
  8
0
 10
8.994103
 20
14.092238
 30
0.0
 11
9.266039
 21
14.092238
 31
0.0
  0
LINE
  5
7A1
  8
0
 10
9.266039
 20
14.092238
 30
0.0
 11
9.294103
 21
14.092238
 31
0.0
  0
LINE
  5
7A2
  8
0
 10
9.294103
 20
14.092238
 30
0.0
 11
10.653781
 21
14.092238
 31
0.0
  0
LINE
  5
7A3
  8
0
 10
10.653781
 20
14.092238
 30
0.0
 11
10.794103
 21
14.092238
 31
0.0
  0
LINE
  5
7A4
  8
0
 10
10.794103
 20
14.092238
 30
0.0
 11
11.066039
 21
14.092238
 31
0.0
  0
LINE
  5
7A5
  8
0
 10
11.066039
 20
14.092238
 30
0.0
 11
11.094103
 21
14.092238
 31
0.0
  0
LINE
  5
7A6
  8
0
 10
11.094103
 20
14.092238
 30
0.0
 11
12.453781
 21
14.092238
 31
0.0
  0
LINE
  5
7A7
  8
0
 10
12.453781
 20
14.092238
 30
0.0
 11
12.594103
 21
14.092238
 31
0.0
  0
LINE
  5
7A8
  8
0
 10
12.594103
 20
14.092238
 30
0.0
 11
12.866039
 21
14.092238
 31
0.0
  0
LINE
  5
7A9
  8
0
 10
12.866039
 20
14.092238
 30
0.0
 11
12.894103
 21
14.092238
 31
0.0
  0
LINE
  5
7AA
  8
0
 10
12.894103
 20
14.092238
 30
0.0
 11
14.253781
 21
14.092238
 31
0.0
  0
LINE
  5
7AB
  8
0
 10
14.253781
 20
14.092238
 30
0.0
 11
14.354065
 21
14.092238
 31
0.0
  0
LINE
  5
7AC
  8
0
 10
14.354065
 20
14.092238
 30
0.0
 11
14.626
 21
14.092238
 31
0.0
  0
LINE
  5
7AD
  8
0
 10
1.221
 20
14.592238
 30
0.0
 11
1.249065
 21
14.592238
 31
0.0
  0
LINE
  5
7AE
  8
0
 10
1.221
 20
14.592238
 30
0.0
 11
1.249065
 21
14.592238
 31
0.0
  0
LINE
  5
7AF
  8
0
 10
1.249065
 20
14.592238
 30
0.0
 11
1.706823
 21
14.592238
 31
0.0
  0
LINE
  5
7B0
  8
0
 10
1.706823
 20
14.592238
 30
0.0
 11
1.978758
 21
14.592238
 31
0.0
  0
LINE
  5
7B1
  8
0
 10
1.978758
 20
14.592238
 30
0.0
 11
2.119081
 21
14.592238
 31
0.0
  0
LINE
  5
7B2
  8
0
 10
2.119081
 20
14.592238
 30
0.0
 11
3.478758
 21
14.592238
 31
0.0
  0
LINE
  5
7B3
  8
0
 10
3.478758
 20
14.592238
 30
0.0
 11
3.506823
 21
14.592238
 31
0.0
  0
LINE
  5
7B4
  8
0
 10
3.506823
 20
14.592238
 30
0.0
 11
3.778758
 21
14.592238
 31
0.0
  0
LINE
  5
7B5
  8
0
 10
3.778758
 20
14.592238
 30
0.0
 11
3.919081
 21
14.592238
 31
0.0
  0
LINE
  5
7B6
  8
0
 10
3.919081
 20
14.592238
 30
0.0
 11
5.278758
 21
14.592238
 31
0.0
  0
LINE
  5
7B7
  8
0
 10
5.278758
 20
14.592238
 30
0.0
 11
5.306823
 21
14.592238
 31
0.0
  0
LINE
  5
7B8
  8
0
 10
5.306823
 20
14.592238
 30
0.0
 11
5.578758
 21
14.592238
 31
0.0
  0
LINE
  5
7B9
  8
0
 10
5.578758
 20
14.592238
 30
0.0
 11
5.658087
 21
14.592238
 31
0.0
  0
LINE
  5
7BA
  8
0
 10
5.658087
 20
14.592238
 30
0.0
 11
5.686152
 21
14.592238
 31
0.0
  0
LINE
  5
7BB
  8
0
 10
5.686152
 20
14.592238
 30
0.0
 11
7.045829
 21
14.592238
 31
0.0
  0
LINE
  5
7BC
  8
0
 10
7.045829
 20
14.592238
 30
0.0
 11
7.186152
 21
14.592238
 31
0.0
  0
LINE
  5
7BD
  8
0
 10
7.186152
 20
14.592238
 30
0.0
 11
7.458087
 21
14.592238
 31
0.0
  0
LINE
  5
7BE
  8
0
 10
7.458087
 20
14.592238
 30
0.0
 11
7.486152
 21
14.592238
 31
0.0
  0
LINE
  5
7BF
  8
0
 10
7.486152
 20
14.592238
 30
0.0
 11
8.845829
 21
14.592238
 31
0.0
  0
LINE
  5
7C0
  8
0
 10
8.845829
 20
14.592238
 30
0.0
 11
8.986152
 21
14.592238
 31
0.0
  0
LINE
  5
7C1
  8
0
 10
8.986152
 20
14.592238
 30
0.0
 11
9.258087
 21
14.592238
 31
0.0
  0
LINE
  5
7C2
  8
0
 10
9.258087
 20
14.592238
 30
0.0
 11
9.286152
 21
14.592238
 31
0.0
  0
LINE
  5
7C3
  8
0
 10
9.286152
 20
14.592238
 30
0.0
 11
10.645829
 21
14.592238
 31
0.0
  0
LINE
  5
7C4
  8
0
 10
10.645829
 20
14.592238
 30
0.0
 11
10.786152
 21
14.592238
 31
0.0
  0
LINE
  5
7C5
  8
0
 10
10.786152
 20
14.592238
 30
0.0
 11
11.058087
 21
14.592238
 31
0.0
  0
LINE
  5
7C6
  8
0
 10
11.058087
 20
14.592238
 30
0.0
 11
11.086152
 21
14.592238
 31
0.0
  0
LINE
  5
7C7
  8
0
 10
11.086152
 20
14.592238
 30
0.0
 11
12.445829
 21
14.592238
 31
0.0
  0
LINE
  5
7C8
  8
0
 10
12.445829
 20
14.592238
 30
0.0
 11
12.586152
 21
14.592238
 31
0.0
  0
LINE
  5
7C9
  8
0
 10
12.586152
 20
14.592238
 30
0.0
 11
12.858087
 21
14.592238
 31
0.0
  0
LINE
  5
7CA
  8
0
 10
12.858087
 20
14.592238
 30
0.0
 11
12.886152
 21
14.592238
 31
0.0
  0
LINE
  5
7CB
  8
0
 10
12.886152
 20
14.592238
 30
0.0
 11
14.245829
 21
14.592238
 31
0.0
  0
LINE
  5
7CC
  8
0
 10
14.245829
 20
14.592238
 30
0.0
 11
14.354065
 21
14.592238
 31
0.0
  0
LINE
  5
7CD
  8
0
 10
14.354065
 20
14.592238
 30
0.0
 11
14.626
 21
14.592238
 31
0.0
  0
ENDSEC
  0
EOF
