0
SECTION
2
ENTITIES
0
LINE
8
0
10
14.941
20
0.059
11
0.059
21
0.059
0
0
LINE
8
0
10
0.059
20
0.059
11
0.059
21
14.941
0
0
LINE
8
0
10
0.059
20
14.941
11
14.941
21
14.941
0
0
LINE
8
0
10
14.941
20
14.941
11
14.941
21
0.059
0
0
LINE
8
0
10
14.941
20
0.059
11
14.941
21
0.059
0
0
LINE
8
0
10
14.861
20
0.139
11
0.139
21
0.139
0
0
LINE
8
0
10
0.139
20
0.139
11
0.139
21
14.861
0
0
LINE
8
0
10
0.139
20
14.861
11
14.861
21
14.861
0
0
LINE
8
0
10
14.861
20
14.861
11
14.861
21
0.139
0
0
LINE
8
0
10
14.861
20
0.139
11
14.861
21
0.139
0
0
LINE
8
0
10
14.781
20
0.219
11
0.219
21
0.219
0
0
LINE
8
0
10
0.219
20
0.219
11
0.219
21
14.781
0
0
LINE
8
0
10
0.219
20
14.781
11
14.781
21
14.781
0
0
LINE
8
0
10
14.781
20
14.781
11
14.781
21
0.219
0
0
LINE
8
0
10
14.781
20
0.219
11
14.781
21
0.219
0
0
LINE
8
0
10
0.337
20
0.299
11
0.299
21
0.330
0
0
LINE
8
0
10
0.299
20
0.433
11
0.465
21
0.299
0
0
LINE
8
0
10
0.592
20
0.299
11
0.299
21
0.536
0
0
LINE
8
0
10
0.299
20
0.639
11
0.719
21
0.299
0
0
LINE
8
0
10
0.846
20
0.299
11
0.299
21
0.742
0
0
LINE
8
0
10
0.299
20
0.845
11
0.973
21
0.299
0
0
LINE
8
0
10
1.100
20
0.299
11
0.299
21
0.948
0
0
LINE
8
0
10
0.299
20
1.051
11
1.227
21
0.299
0
0
LINE
8
0
10
1.354
20
0.299
11
0.299
21
1.154
0
0
LINE
8
0
10
0.299
20
1.257
11
1.482
21
0.299
0
0
LINE
8
0
10
1.609
20
0.299
11
0.299
21
1.360
0
0
LINE
8
0
10
0.299
20
1.462
11
1.736
21
0.299
0
0
LINE
8
0
10
1.863
20
0.299
11
0.299
21
1.565
0
0
LINE
8
0
10
0.299
20
1.668
11
1.990
21
0.299
0
0
LINE
8
0
10
2.117
20
0.299
11
0.299
21
1.771
0
0
LINE
8
0
10
0.299
20
1.874
11
2.244
21
0.299
0
0
LINE
8
0
10
2.371
20
0.299
11
0.299
21
1.977
0
0
LINE
8
0
10
0.299
20
2.080
11
2.499
21
0.299
0
0
LINE
8
0
10
2.626
20
0.299
11
0.299
21
2.183
0
0
LINE
8
0
10
0.299
20
2.286
11
2.753
21
0.299
0
0
LINE
8
0
10
2.880
20
0.299
11
0.299
21
2.389
0
0
LINE
8
0
10
0.299
20
2.492
11
3.007
21
0.299
0
0
LINE
8
0
10
3.134
20
0.299
11
0.299
21
2.595
0
0
LINE
8
0
10
0.299
20
2.698
11
3.261
21
0.299
0
0
LINE
8
0
10
3.388
20
0.299
11
0.299
21
2.801
0
0
LINE
8
0
10
0.299
20
2.904
11
3.515
21
0.299
0
0
LINE
8
0
10
3.643
20
0.299
11
0.299
21
3.007
0
0
LINE
8
0
10
0.299
20
3.110
11
3.770
21
0.299
0
0
LINE
8
0
10
3.897
20
0.299
11
0.299
21
3.212
0
0
LINE
8
0
10
0.299
20
3.315
11
4.024
21
0.299
0
0
LINE
8
0
10
4.151
20
0.299
11
0.299
21
3.418
0
0
LINE
8
0
10
0.299
20
3.521
11
4.278
21
0.299
0
0
LINE
8
0
10
4.405
20
0.299
11
0.299
21
3.624
0
0
LINE
8
0
10
0.299
20
3.727
11
4.532
21
0.299
0
0
LINE
8
0
10
4.660
20
0.299
11
0.299
21
3.830
0
0
LINE
8
0
10
0.299
20
3.933
11
4.787
21
0.299
0
0
LINE
8
0
10
4.914
20
0.299
11
0.299
21
4.036
0
0
LINE
8
0
10
0.299
20
4.139
11
5.041
21
0.299
0
0
LINE
8
0
10
5.168
20
0.299
11
0.299
21
4.242
0
0
LINE
8
0
10
0.299
20
4.345
11
5.295
21
0.299
0
0
LINE
8
0
10
5.422
20
0.299
11
0.299
21
4.448
0
0
LINE
8
0
10
0.299
20
4.551
11
5.549
21
0.299
0
0
LINE
8
0
10
5.677
20
0.299
11
0.299
21
4.654
0
0
LINE
8
0
10
0.299
20
4.757
11
5.804
21
0.299
0
0
LINE
8
0
10
5.931
20
0.299
11
0.299
21
4.860
0
0
LINE
8
0
10
0.299
20
4.962
11
6.058
21
0.299
0
0
LINE
8
0
10
6.185
20
0.299
11
0.299
21
5.065
0
0
LINE
8
0
10
0.299
20
5.168
11
6.312
21
0.299
0
0
LINE
8
0
10
6.439
20
0.299
11
0.299
21
5.271
0
0
LINE
8
0
10
0.299
20
5.374
11
6.566
21
0.299
0
0
LINE
8
0
10
6.694
20
0.299
11
0.299
21
5.477
0
0
LINE
8
0
10
0.299
20
5.580
11
6.821
21
0.299
0
0
LINE
8
0
10
6.948
20
0.299
11
0.299
21
5.683
0
0
LINE
8
0
10
0.299
20
5.786
11
7.075
21
0.299
0
0
LINE
8
0
10
7.202
20
0.299
11
0.299
21
5.889
0
0
LINE
8
0
10
0.299
20
5.992
11
7.329
21
0.299
0
0
LINE
8
0
10
7.456
20
0.299
11
0.299
21
6.095
0
0
LINE
8
0
10
0.299
20
6.198
11
7.583
21
0.299
0
0
LINE
8
0
10
7.710
20
0.299
11
0.299
21
6.301
0
0
LINE
8
0
10
0.299
20
6.404
11
7.838
21
0.299
0
0
LINE
8
0
10
7.965
20
0.299
11
0.299
21
6.507
0
0
LINE
8
0
10
0.299
20
6.610
11
8.092
21
0.299
0
0
LINE
8
0
10
8.219
20
0.299
11
0.299
21
6.712
0
0
LINE
8
0
10
0.299
20
6.815
11
8.346
21
0.299
0
0
LINE
8
0
10
8.473
20
0.299
11
0.299
21
6.918
0
0
LINE
8
0
10
0.299
20
7.021
11
8.600
21
0.299
0
0
LINE
8
0
10
8.727
20
0.299
11
0.299
21
7.124
0
0
LINE
8
0
10
0.299
20
7.227
11
8.855
21
0.299
0
0
LINE
8
0
10
8.982
20
0.299
11
0.299
21
7.330
0
0
LINE
8
0
10
0.299
20
7.433
11
9.109
21
0.299
0
0
LINE
8
0
10
9.236
20
0.299
11
0.299
21
7.536
0
0
LINE
8
0
10
0.299
20
7.639
11
9.363
21
0.299
0
0
LINE
8
0
10
9.490
20
0.299
11
0.299
21
7.742
0
0
LINE
8
0
10
0.299
20
7.845
11
9.617
21
0.299
0
0
LINE
8
0
10
9.744
20
0.299
11
0.299
21
7.948
0
0
LINE
8
0
10
0.299
20
8.051
11
9.872
21
0.299
0
0
LINE
8
0
10
9.999
20
0.299
11
0.299
21
8.154
0
0
LINE
8
0
10
0.299
20
8.257
11
10.126
21
0.299
0
0
LINE
8
0
10
10.253
20
0.299
11
0.299
21
8.360
0
0
LINE
8
0
10
0.299
20
8.462
11
10.380
21
0.299
0
0
LINE
8
0
10
10.507
20
0.299
11
0.299
21
8.565
0
0
LINE
8
0
10
0.299
20
8.668
11
10.634
21
0.299
0
0
LINE
8
0
10
10.761
20
0.299
11
0.299
21
8.771
0
0
LINE
8
0
10
0.299
20
8.874
11
10.889
21
0.299
0
0
LINE
8
0
10
11.016
20
0.299
11
0.299
21
8.977
0
0
LINE
8
0
10
0.299
20
9.080
11
11.143
21
0.299
0
0
LINE
8
0
10
11.270
20
0.299
11
0.299
21
9.183
0
0
LINE
8
0
10
0.299
20
9.286
11
11.397
21
0.299
0
0
LINE
8
0
10
11.524
20
0.299
11
0.299
21
9.389
0
0
LINE
8
0
10
0.299
20
9.492
11
11.651
21
0.299
0
0
LINE
8
0
10
11.778
20
0.299
11
0.299
21
9.595
0
0
LINE
8
0
10
0.299
20
9.698
11
11.905
21
0.299
0
0
LINE
8
0
10
12.033
20
0.299
11
0.299
21
9.801
0
0
LINE
8
0
10
0.299
20
9.904
11
12.160
21
0.299
0
0
LINE
8
0
10
12.287
20
0.299
11
0.299
21
10.007
0
0
LINE
8
0
10
0.299
20
10.110
11
12.414
21
0.299
0
0
LINE
8
0
10
12.541
20
0.299
11
0.299
21
10.212
0
0
LINE
8
0
10
0.299
20
10.315
11
12.668
21
0.299
0
0
LINE
8
0
10
12.795
20
0.299
11
0.299
21
10.418
0
0
LINE
8
0
10
0.299
20
10.521
11
12.922
21
0.299
0
0
LINE
8
0
10
13.050
20
0.299
11
0.299
21
10.624
0
0
LINE
8
0
10
0.299
20
10.727
11
13.177
21
0.299
0
0
LINE
8
0
10
13.304
20
0.299
11
0.299
21
10.830
0
0
LINE
8
0
10
0.299
20
10.933
11
13.431
21
0.299
0
0
LINE
8
0
10
13.558
20
0.299
11
0.299
21
11.036
0
0
LINE
8
0
10
0.299
20
11.139
11
13.685
21
0.299
0
0
LINE
8
0
10
13.812
20
0.299
11
0.299
21
11.242
0
0
LINE
8
0
10
0.299
20
11.345
11
13.939
21
0.299
0
0
LINE
8
0
10
14.067
20
0.299
11
0.299
21
11.448
0
0
LINE
8
0
10
0.299
20
11.551
11
14.194
21
0.299
0
0
LINE
8
0
10
14.321
20
0.299
11
0.299
21
11.654
0
0
LINE
8
0
10
0.299
20
11.757
11
14.448
21
0.299
0
0
LINE
8
0
10
14.575
20
0.299
11
0.299
21
11.860
0
0
LINE
8
0
10
0.299
20
11.962
11
14.701
21
0.300
0
0
LINE
8
0
10
14.701
20
0.403
11
0.299
21
12.065
0
0
LINE
8
0
10
0.299
20
12.168
11
14.701
21
0.506
0
0
LINE
8
0
10
14.701
20
0.609
11
0.299
21
12.271
0
0
LINE
8
0
10
0.299
20
12.374
11
14.701
21
0.712
0
0
LINE
8
0
10
14.701
20
0.815
11
0.299
21
12.477
0
0
LINE
8
0
10
0.299
20
12.580
11
14.701
21
0.918
0
0
LINE
8
0
10
14.701
20
1.021
11
0.299
21
12.683
0
0
LINE
8
0
10
0.299
20
12.786
11
14.701
21
1.123
0
0
LINE
8
0
10
14.701
20
1.226
11
0.299
21
12.889
0
0
LINE
8
0
10
0.299
20
12.992
11
14.701
21
1.329
0
0
LINE
8
0
10
14.701
20
1.432
11
0.299
21
13.095
0
0
LINE
8
0
10
0.299
20
13.198
11
14.701
21
1.535
0
0
LINE
8
0
10
14.701
20
1.638
11
0.299
21
13.301
0
0
LINE
8
0
10
0.299
20
13.404
11
14.701
21
1.741
0
0
LINE
8
0
10
14.701
20
1.844
11
0.299
21
13.507
0
0
LINE
8
0
10
0.299
20
13.609
11
14.701
21
1.947
0
0
LINE
8
0
10
14.701
20
2.050
11
0.299
21
13.712
0
0
LINE
8
0
10
0.299
20
13.815
11
14.701
21
2.153
0
0
LINE
8
0
10
14.701
20
2.256
11
0.299
21
13.918
0
0
LINE
8
0
10
0.299
20
14.021
11
14.701
21
2.359
0
0
LINE
8
0
10
14.701
20
2.462
11
0.299
21
14.124
0
0
LINE
8
0
10
0.299
20
14.227
11
14.701
21
2.565
0
0
LINE
8
0
10
14.701
20
2.668
11
0.299
21
14.330
0
0
LINE
8
0
10
0.299
20
14.433
11
14.701
21
2.771
0
0
LINE
8
0
10
14.701
20
2.873
11
0.299
21
14.536
0
0
LINE
8
0
10
0.299
20
14.639
11
14.701
21
2.976
0
0
LINE
8
0
10
14.701
20
3.079
11
0.349
21
14.701
0
0
LINE
8
0
10
0.477
20
14.701
11
14.701
21
3.182
0
0
LINE
8
0
10
14.701
20
3.285
11
0.604
21
14.701
0
0
LINE
8
0
10
0.731
20
14.701
11
14.701
21
3.388
0
0
LINE
8
0
10
14.701
20
3.491
11
0.858
21
14.701
0
0
LINE
8
0
10
0.985
20
14.701
11
14.701
21
3.594
0
0
LINE
8
0
10
14.701
20
3.697
11
1.112
21
14.701
0
0
LINE
8
0
10
1.239
20
14.701
11
14.701
21
3.800
0
0
LINE
8
0
10
14.701
20
3.903
11
1.366
21
14.701
0
0
LINE
8
0
10
1.494
20
14.701
11
14.701
21
4.006
0
0
LINE
8
0
10
14.701
20
4.109
11
1.621
21
14.701
0
0
LINE
8
0
10
1.748
20
14.701
11
14.701
21
4.212
0
0
LINE
8
0
10
14.701
20
4.315
11
1.875
21
14.701
0
0
LINE
8
0
10
2.002
20
14.701
11
14.701
21
4.418
0
0
LINE
8
0
10
14.701
20
4.521
11
2.129
21
14.701
0
0
LINE
8
0
10
2.256
20
14.701
11
14.701
21
4.623
0
0
LINE
8
0
10
14.701
20
4.726
11
2.383
21
14.701
0
0
LINE
8
0
10
2.511
20
14.701
11
14.701
21
4.829
0
0
LINE
8
0
10
14.701
20
4.932
11
2.638
21
14.701
0
0
LINE
8
0
10
2.765
20
14.701
11
14.701
21
5.035
0
0
LINE
8
0
10
14.701
20
5.138
11
2.892
21
14.701
0
0
LINE
8
0
10
3.019
20
14.701
11
14.701
21
5.241
0
0
LINE
8
0
10
14.701
20
5.344
11
3.146
21
14.701
0
0
LINE
8
0
10
3.273
20
14.701
11
14.701
21
5.447
0
0
LINE
8
0
10
14.701
20
5.550
11
3.400
21
14.701
0
0
LINE
8
0
10
3.527
20
14.701
11
14.701
21
5.653
0
0
LINE
8
0
10
14.701
20
5.756
11
3.655
21
14.701
0
0
LINE
8
0
10
3.782
20
14.701
11
14.701
21
5.859
0
0
LINE
8
0
10
14.701
20
5.962
11
3.909
21
14.701
0
0
LINE
8
0
10
4.036
20
14.701
11
14.701
21
6.065
0
0
LINE
8
0
10
14.701
20
6.168
11
4.163
21
14.701
0
0
LINE
8
0
10
4.290
20
14.701
11
14.701
21
6.270
0
0
LINE
8
0
10
14.701
20
6.373
11
4.417
21
14.701
0
0
LINE
8
0
10
4.544
20
14.701
11
14.701
21
6.476
0
0
LINE
8
0
10
14.701
20
6.579
11
4.672
21
14.701
0
0
LINE
8
0
10
4.799
20
14.701
11
14.701
21
6.682
0
0
LINE
8
0
10
14.701
20
6.785
11
4.926
21
14.701
0
0
LINE
8
0
10
5.053
20
14.701
11
14.701
21
6.888
0
0
LINE
8
0
10
14.701
20
6.991
11
5.180
21
14.701
0
0
LINE
8
0
10
5.307
20
14.701
11
14.701
21
7.094
0
0
LINE
8
0
10
14.701
20
7.197
11
5.434
21
14.701
0
0
LINE
8
0
10
5.561
20
14.701
11
14.701
21
7.300
0
0
LINE
8
0
10
14.701
20
7.403
11
5.689
21
14.701
0
0
LINE
8
0
10
5.816
20
14.701
11
14.701
21
7.506
0
0
LINE
8
0
10
14.701
20
7.609
11
5.943
21
14.701
0
0
LINE
8
0
10
6.070
20
14.701
11
14.701
21
7.712
0
0
LINE
8
0
10
14.701
20
7.815
11
6.197
21
14.701
0
0
LINE
8
0
10
6.324
20
14.701
11
14.701
21
7.918
0
0
LINE
8
0
10
14.701
20
8.020
11
6.451
21
14.701
0
0
LINE
8
0
10
6.578
20
14.701
11
14.701
21
8.123
0
0
LINE
8
0
10
14.701
20
8.226
11
6.705
21
14.701
0
0
LINE
8
0
10
6.833
20
14.701
11
14.701
21
8.329
0
0
LINE
8
0
10
14.701
20
8.432
11
6.960
21
14.701
0
0
LINE
8
0
10
7.087
20
14.701
11
14.701
21
8.535
0
0
LINE
8
0
10
14.701
20
8.638
11
7.214
21
14.701
0
0
LINE
8
0
10
7.341
20
14.701
11
14.701
21
8.741
0
0
LINE
8
0
10
14.701
20
8.844
11
7.468
21
14.701
0
0
LINE
8
0
10
7.595
20
14.701
11
14.701
21
8.947
0
0
LINE
8
0
10
14.701
20
9.050
11
7.722
21
14.701
0
0
LINE
8
0
10
7.850
20
14.701
11
14.701
21
9.153
0
0
LINE
8
0
10
14.701
20
9.256
11
7.977
21
14.701
0
0
LINE
8
0
10
8.104
20
14.701
11
14.701
21
9.359
0
0
LINE
8
0
10
14.701
20
9.462
11
8.231
21
14.701
0
0
LINE
8
0
10
8.358
20
14.701
11
14.701
21
9.565
0
0
LINE
8
0
10
14.701
20
9.668
11
8.485
21
14.701
0
0
LINE
8
0
10
8.612
20
14.701
11
14.701
21
9.770
0
0
LINE
8
0
10
14.701
20
9.873
11
8.739
21
14.701
0
0
LINE
8
0
10
8.867
20
14.701
11
14.701
21
9.976
0
0
LINE
8
0
10
14.701
20
10.079
11
8.994
21
14.701
0
0
LINE
8
0
10
9.121
20
14.701
11
14.701
21
10.182
0
0
LINE
8
0
10
14.701
20
10.285
11
9.248
21
14.701
0
0
LINE
8
0
10
9.375
20
14.701
11
14.701
21
10.388
0
0
LINE
8
0
10
14.701
20
10.491
11
9.502
21
14.701
0
0
LINE
8
0
10
9.629
20
14.701
11
14.701
21
10.594
0
0
LINE
8
0
10
14.701
20
10.697
11
9.756
21
14.701
0
0
LINE
8
0
10
9.884
20
14.701
11
14.701
21
10.800
0
0
LINE
8
0
10
14.701
20
10.903
11
10.011
21
14.701
0
0
LINE
8
0
10
10.138
20
14.701
11
14.701
21
11.006
0
0
LINE
8
0
10
14.701
20
11.109
11
10.265
21
14.701
0
0
LINE
8
0
10
10.392
20
14.701
11
14.701
21
11.212
0
0
LINE
8
0
10
14.701
20
11.315
11
10.519
21
14.701
0
0
LINE
8
0
10
10.646
20
14.701
11
14.701
21
11.418
0
0
LINE
8
0
10
14.701
20
11.520
11
10.773
21
14.701
0
0
LINE
8
0
10
10.900
20
14.701
11
14.701
21
11.623
0
0
LINE
8
0
10
14.701
20
11.726
11
11.028
21
14.701
0
0
LINE
8
0
10
11.155
20
14.701
11
14.701
21
11.829
0
0
LINE
8
0
10
14.701
20
11.932
11
11.282
21
14.701
0
0
LINE
8
0
10
11.409
20
14.701
11
14.701
21
12.035
0
0
LINE
8
0
10
14.701
20
12.138
11
11.536
21
14.701
0
0
LINE
8
0
10
11.663
20
14.701
11
14.701
21
12.241
0
0
LINE
8
0
10
14.701
20
12.344
11
11.790
21
14.701
0
0
LINE
8
0
10
11.917
20
14.701
11
14.701
21
12.447
0
0
LINE
8
0
10
14.701
20
12.550
11
12.045
21
14.701
0
0
LINE
8
0
10
12.172
20
14.701
11
14.701
21
12.653
0
0
LINE
8
0
10
14.701
20
12.756
11
12.299
21
14.701
0
0
LINE
8
0
10
12.426
20
14.701
11
14.701
21
12.859
0
0
LINE
8
0
10
14.701
20
12.962
11
12.553
21
14.701
0
0
LINE
8
0
10
12.680
20
14.701
11
14.701
21
13.065
0
0
LINE
8
0
10
14.701
20
13.168
11
12.807
21
14.701
0
0
LINE
8
0
10
12.934
20
14.701
11
14.701
21
13.270
0
0
LINE
8
0
10
14.701
20
13.373
11
13.062
21
14.701
0
0
LINE
8
0
10
13.189
20
14.701
11
14.701
21
13.476
0
0
LINE
8
0
10
14.701
20
13.579
11
13.316
21
14.701
0
0
LINE
8
0
10
13.443
20
14.701
11
14.701
21
13.682
0
0
LINE
8
0
10
14.701
20
13.785
11
13.570
21
14.701
0
0
LINE
8
0
10
13.697
20
14.701
11
14.701
21
13.888
0
0
LINE
8
0
10
14.701
20
13.991
11
13.824
21
14.701
0
0
LINE
8
0
10
13.951
20
14.701
11
14.701
21
14.094
0
0
LINE
8
0
10
14.701
20
14.197
11
14.079
21
14.701
0
0
LINE
8
0
10
14.206
20
14.701
11
14.701
21
14.300
0
0
LINE
8
0
10
14.701
20
14.403
11
14.333
21
14.701
0
0
LINE
8
0
10
14.460
20
14.701
11
14.701
21
14.506
0
0
LINE
8
0
10
14.701
20
14.609
11
14.587
21
14.701
0
0
ENDSEC
0
EOF
