0
SECTION
2
ENTITIES
0
LINE
8
0
10
2.191
20
0.441
11
1.356
21
0.553
0
0
LINE
8
0
10
2.191
20
0.441
11
1.356
21
0.553
0
0
LINE
8
0
10
3.128
20
0.454
11
3.962
21
0.480
0
0
LINE
8
0
10
4.927
20
0.511
11
5.753
21
0.537
0
0
LINE
8
0
10
6.726
20
0.568
11
7.559
21
0.575
0
0
LINE
8
0
10
8.538
20
0.552
11
9.373
21
0.532
0
0
LINE
8
0
10
10.353
20
0.508
11
11.188
21
0.488
0
0
LINE
8
0
10
12.160
20
0.465
11
12.988
21
0.445
0
0
LINE
8
0
10
13.941
20
0.596
11
14.549
21
1.121
0
0
LINE
8
0
10
14.721
20
2.037
11
14.729
21
2.884
0
0
LINE
8
0
10
14.696
20
3.833
11
14.666
21
4.661
0
0
LINE
8
0
10
14.632
20
5.632
11
14.626
21
6.459
0
0
LINE
8
0
10
14.626
20
7.432
11
14.626
21
8.269
0
0
LINE
8
0
10
14.626
20
9.251
11
14.626
21
10.086
0
0
LINE
8
0
10
14.626
20
11.063
11
14.626
21
11.895
0
0
LINE
8
0
10
14.626
20
12.868
11
14.626
21
13.695
0
0
LINE
8
0
10
14.604
20
14.634
11
13.770
21
14.636
0
0
LINE
8
0
10
12.832
20
14.635
11
11.993
21
14.634
0
0
LINE
8
0
10
11.032
20
14.632
11
10.206
21
14.631
0
0
LINE
8
0
10
9.232
20
14.630
11
8.402
21
14.629
0
0
LINE
8
0
10
7.425
20
14.627
11
6.589
21
14.626
0
0
LINE
8
0
10
5.608
20
14.637
11
4.772
21
14.666
0
0
LINE
8
0
10
3.799
20
14.700
11
2.971
21
14.728
0
0
LINE
8
0
10
2.000
20
14.736
11
1.193
21
14.580
0
0
LINE
8
0
10
0.582
20
13.901
11
0.450
21
13.066
0
0
LINE
8
0
10
0.452
20
12.129
11
0.477
21
11.297
0
0
LINE
8
0
10
0.507
20
10.330
11
0.532
21
9.504
0
0
LINE
8
0
10
0.562
20
8.532
11
0.579
21
7.697
0
0
LINE
8
0
10
0.555
20
6.717
11
0.533
21
5.883
0
0
LINE
8
0
10
0.509
20
4.904
11
0.488
21
4.069
0
0
LINE
8
0
10
0.463
20
3.097
11
0.442
21
2.270
0
0
LINE
8
0
10
0.593
20
1.254
11
0.593
21
1.261
0
0
LINE
8
0
10
0.593
20
1.254
11
0.593
21
1.261
0
0
LINE
8
0
10
0.593
20
1.647
11
0.593
21
2.375
0
0
LINE
8
0
10
0.593
20
2.375
11
0.593
21
2.510
0
0
LINE
8
0
10
0.593
20
3.447
11
0.593
21
4.176
0
0
LINE
8
0
10
0.593
20
4.176
11
0.593
21
4.311
0
0
LINE
8
0
10
0.593
20
5.247
11
0.593
21
5.976
0
0
LINE
8
0
10
0.593
20
5.976
11
0.593
21
6.111
0
0
LINE
8
0
10
0.593
20
7.048
11
0.593
21
7.776
0
0
LINE
8
0
10
0.593
20
7.776
11
0.593
21
7.910
0
0
LINE
8
0
10
0.593
20
8.848
11
0.593
21
9.575
0
0
LINE
8
0
10
0.593
20
9.575
11
0.593
21
9.710
0
0
LINE
8
0
10
0.593
20
10.648
11
0.593
21
11.376
0
0
LINE
8
0
10
0.593
20
11.376
11
0.593
21
11.511
0
0
LINE
8
0
10
0.593
20
12.447
11
0.593
21
12.582
0
0
LINE
8
0
10
0.593
20
12.582
11
0.593
21
13.310
0
0
LINE
8
0
10
1.093
20
1.229
11
1.093
21
1.317
0
0
LINE
8
0
10
1.093
20
1.229
11
1.093
21
1.317
0
0
LINE
8
0
10
1.093
20
1.317
11
1.093
21
1.318
0
0
LINE
8
0
10
1.093
20
2.255
11
1.093
21
2.982
0
0
LINE
8
0
10
1.093
20
2.982
11
1.093
21
3.118
0
0
LINE
8
0
10
1.093
20
3.118
11
1.093
21
3.118
0
0
LINE
8
0
10
1.093
20
4.054
11
1.093
21
4.189
0
0
LINE
8
0
10
1.093
20
4.189
11
1.093
21
4.918
0
0
LINE
8
0
10
1.093
20
4.918
11
1.093
21
4.918
0
0
LINE
8
0
10
1.093
20
5.854
11
1.093
21
6.582
0
0
LINE
8
0
10
1.093
20
6.582
11
1.093
21
6.718
0
0
LINE
8
0
10
1.093
20
6.718
11
1.093
21
6.718
0
0
LINE
8
0
10
1.093
20
7.654
11
1.093
21
7.790
0
0
LINE
8
0
10
1.093
20
7.790
11
1.093
21
8.518
0
0
LINE
8
0
10
1.093
20
8.518
11
1.093
21
8.518
0
0
LINE
8
0
10
1.093
20
9.454
11
1.093
21
10.182
0
0
LINE
8
0
10
1.093
20
10.182
11
1.093
21
10.318
0
0
LINE
8
0
10
1.093
20
10.318
11
1.093
21
10.318
0
0
LINE
8
0
10
1.093
20
11.255
11
1.093
21
11.982
0
0
LINE
8
0
10
1.093
20
11.982
11
1.093
21
12.117
0
0
LINE
8
0
10
1.093
20
12.117
11
1.093
21
12.118
0
0
LINE
8
0
10
1.093
20
13.055
11
1.093
21
13.783
0
0
LINE
8
0
10
1.093
20
13.783
11
1.093
21
13.918
0
0
LINE
8
0
10
1.093
20
13.918
11
1.093
21
13.918
0
0
LINE
8
0
10
1.593
20
1.360
11
1.593
21
1.476
0
0
LINE
8
0
10
1.593
20
1.360
11
1.593
21
1.476
0
0
LINE
8
0
10
1.593
20
2.413
11
1.593
21
3.142
0
0
LINE
8
0
10
1.593
20
3.142
11
1.593
21
3.276
0
0
LINE
8
0
10
1.593
20
4.213
11
1.593
21
4.941
0
0
LINE
8
0
10
1.593
20
4.941
11
1.593
21
5.077
0
0
LINE
8
0
10
1.593
20
6.013
11
1.593
21
6.742
0
0
LINE
8
0
10
1.593
20
6.742
11
1.593
21
6.877
0
0
LINE
8
0
10
1.593
20
7.814
11
1.593
21
8.541
0
0
LINE
8
0
10
1.593
20
8.541
11
1.593
21
8.677
0
0
LINE
8
0
10
1.593
20
9.614
11
1.593
21
10.341
0
0
LINE
8
0
10
1.593
20
10.341
11
1.593
21
10.476
0
0
LINE
8
0
10
1.593
20
11.414
11
1.593
21
12.142
0
0
LINE
8
0
10
1.593
20
12.142
11
1.593
21
12.277
0
0
LINE
8
0
10
1.593
20
13.213
11
1.593
21
13.348
0
0
LINE
8
0
10
1.593
20
13.348
11
1.593
21
14.076
0
0
LINE
8
0
10
2.093
20
1.399
11
2.093
21
1.524
0
0
LINE
8
0
10
2.093
20
1.399
11
2.093
21
1.524
0
0
LINE
8
0
10
2.093
20
1.524
11
2.093
21
1.525
0
0
LINE
8
0
10
2.093
20
2.462
11
2.093
21
3.189
0
0
LINE
8
0
10
2.093
20
3.189
11
2.093
21
3.325
0
0
LINE
8
0
10
2.093
20
3.325
11
2.093
21
3.325
0
0
LINE
8
0
10
2.093
20
4.261
11
2.093
21
4.989
0
0
LINE
8
0
10
2.093
20
4.989
11
2.093
21
5.125
0
0
LINE
8
0
10
2.093
20
5.125
11
2.093
21
5.125
0
0
LINE
8
0
10
2.093
20
6.061
11
2.093
21
6.790
0
0
LINE
8
0
10
2.093
20
6.790
11
2.093
21
6.925
0
0
LINE
8
0
10
2.093
20
6.925
11
2.093
21
6.925
0
0
LINE
8
0
10
2.093
20
7.862
11
2.093
21
8.589
0
0
LINE
8
0
10
2.093
20
8.589
11
2.093
21
8.725
0
0
LINE
8
0
10
2.093
20
8.725
11
2.093
21
8.725
0
0
LINE
8
0
10
2.093
20
9.662
11
2.093
21
10.389
0
0
LINE
8
0
10
2.093
20
10.389
11
2.093
21
10.524
0
0
LINE
8
0
10
2.093
20
10.524
11
2.093
21
10.525
0
0
LINE
8
0
10
2.093
20
11.461
11
2.093
21
12.190
0
0
LINE
8
0
10
2.093
20
12.190
11
2.093
21
12.325
0
0
LINE
8
0
10
2.093
20
12.325
11
2.093
21
12.325
0
0
LINE
8
0
10
2.093
20
13.261
11
2.093
21
13.396
0
0
LINE
8
0
10
2.093
20
13.396
11
2.093
21
14.124
0
0
LINE
8
0
10
2.093
20
14.124
11
2.093
21
14.125
0
0
LINE
8
0
10
2.593
20
1.397
11
2.593
21
1.524
0
0
LINE
8
0
10
2.593
20
1.397
11
2.593
21
1.524
0
0
LINE
8
0
10
2.593
20
2.459
11
2.593
21
2.460
0
0
LINE
8
0
10
2.593
20
2.460
11
2.593
21
2.595
0
0
LINE
8
0
10
2.593
20
2.595
11
2.593
21
3.324
0
0
LINE
8
0
10
2.593
20
4.260
11
2.593
21
4.260
0
0
LINE
8
0
10
2.593
20
4.260
11
2.593
21
4.396
0
0
LINE
8
0
10
2.593
20
4.396
11
2.593
21
5.123
0
0
LINE
8
0
10
2.593
20
6.059
11
2.593
21
6.060
0
0
LINE
8
0
10
2.593
20
6.060
11
2.593
21
6.196
0
0
LINE
8
0
10
2.593
20
6.196
11
2.593
21
6.923
0
0
LINE
8
0
10
2.593
20
7.859
11
2.593
21
7.860
0
0
LINE
8
0
10
2.593
20
7.860
11
2.593
21
7.995
0
0
LINE
8
0
10
2.593
20
7.995
11
2.593
21
8.723
0
0
LINE
8
0
10
2.593
20
9.659
11
2.593
21
9.660
0
0
LINE
8
0
10
2.593
20
9.660
11
2.593
21
9.796
0
0
LINE
8
0
10
2.593
20
9.796
11
2.593
21
10.524
0
0
LINE
8
0
10
2.593
20
11.460
11
2.593
21
11.460
0
0
LINE
8
0
10
2.593
20
11.460
11
2.593
21
11.595
0
0
LINE
8
0
10
2.593
20
11.595
11
2.593
21
12.323
0
0
LINE
8
0
10
2.593
20
13.259
11
2.593
21
13.260
0
0
LINE
8
0
10
2.593
20
13.260
11
2.593
21
13.396
0
0
LINE
8
0
10
2.593
20
13.396
11
2.593
21
14.123
0
0
LINE
8
0
10
3.093
20
1.382
11
3.093
21
1.506
0
0
LINE
8
0
10
3.093
20
1.382
11
3.093
21
1.506
0
0
LINE
8
0
10
3.093
20
2.442
11
3.093
21
3.171
0
0
LINE
8
0
10
3.093
20
3.171
11
3.093
21
3.305
0
0
LINE
8
0
10
3.093
20
4.242
11
3.093
21
4.971
0
0
LINE
8
0
10
3.093
20
4.971
11
3.093
21
5.106
0
0
LINE
8
0
10
3.093
20
6.043
11
3.093
21
6.771
0
0
LINE
8
0
10
3.093
20
6.771
11
3.093
21
6.905
0
0
LINE
8
0
10
3.093
20
7.843
11
3.093
21
8.570
0
0
LINE
8
0
10
3.093
20
8.570
11
3.093
21
8.706
0
0
LINE
8
0
10
3.093
20
9.643
11
3.093
21
10.370
0
0
LINE
8
0
10
3.093
20
10.370
11
3.093
21
10.505
0
0
LINE
8
0
10
3.093
20
11.443
11
3.093
21
12.171
0
0
LINE
8
0
10
3.093
20
12.171
11
3.093
21
12.306
0
0
LINE
8
0
10
3.093
20
13.242
11
3.093
21
13.377
0
0
LINE
8
0
10
3.093
20
13.377
11
3.093
21
14.105
0
0
LINE
8
0
10
3.593
20
1.368
11
3.593
21
1.488
0
0
LINE
8
0
10
3.593
20
1.368
11
3.593
21
1.488
0
0
LINE
8
0
10
3.593
20
2.425
11
3.593
21
3.154
0
0
LINE
8
0
10
3.593
20
3.154
11
3.593
21
3.288
0
0
LINE
8
0
10
3.593
20
4.226
11
3.593
21
4.954
0
0
LINE
8
0
10
3.593
20
4.954
11
3.593
21
5.088
0
0
LINE
8
0
10
3.593
20
6.026
11
3.593
21
6.160
0
0
LINE
8
0
10
3.593
20
6.160
11
3.593
21
6.888
0
0
LINE
8
0
10
3.593
20
7.825
11
3.593
21
7.960
0
0
LINE
8
0
10
3.593
20
7.960
11
3.593
21
8.688
0
0
LINE
8
0
10
3.593
20
9.626
11
3.593
21
10.354
0
0
LINE
8
0
10
3.593
20
10.354
11
3.593
21
10.489
0
0
LINE
8
0
10
3.593
20
11.425
11
3.593
21
12.153
0
0
LINE
8
0
10
3.593
20
12.153
11
3.593
21
12.289
0
0
LINE
8
0
10
3.593
20
13.226
11
3.593
21
13.954
0
0
LINE
8
0
10
3.593
20
13.954
11
3.593
21
14.088
0
0
LINE
8
0
10
4.093
20
1.353
11
4.093
21
1.470
0
0
LINE
8
0
10
4.093
20
1.353
11
4.093
21
1.470
0
0
LINE
8
0
10
4.093
20
1.470
11
4.093
21
1.471
0
0
LINE
8
0
10
4.093
20
2.408
11
4.093
21
3.135
0
0
LINE
8
0
10
4.093
20
3.135
11
4.093
21
3.271
0
0
LINE
8
0
10
4.093
20
3.271
11
4.093
21
3.271
0
0
LINE
8
0
10
4.093
20
4.207
11
4.093
21
4.936
0
0
LINE
8
0
10
4.093
20
4.936
11
4.093
21
5.071
0
0
LINE
8
0
10
4.093
20
5.071
11
4.093
21
5.071
0
0
LINE
8
0
10
4.093
20
6.008
11
4.093
21
6.736
0
0
LINE
8
0
10
4.093
20
6.736
11
4.093
21
6.870
0
0
LINE
8
0
10
4.093
20
6.870
11
4.093
21
6.871
0
0
LINE
8
0
10
4.093
20
7.808
11
4.093
21
8.536
0
0
LINE
8
0
10
4.093
20
8.536
11
4.093
21
8.671
0
0
LINE
8
0
10
4.093
20
8.671
11
4.093
21
8.671
0
0
LINE
8
0
10
4.093
20
9.607
11
4.093
21
10.335
0
0
LINE
8
0
10
4.093
20
10.335
11
4.093
21
10.470
0
0
LINE
8
0
10
4.093
20
10.470
11
4.093
21
10.471
0
0
LINE
8
0
10
4.093
20
11.408
11
4.093
21
12.136
0
0
LINE
8
0
10
4.093
20
12.136
11
4.093
21
12.271
0
0
LINE
8
0
10
4.093
20
12.271
11
4.093
21
12.271
0
0
LINE
8
0
10
4.093
20
13.207
11
4.093
21
13.935
0
0
LINE
8
0
10
4.093
20
13.935
11
4.093
21
14.070
0
0
LINE
8
0
10
4.093
20
14.070
11
4.093
21
14.071
0
0
LINE
8
0
10
4.593
20
1.339
11
4.593
21
1.454
0
0
LINE
8
0
10
4.593
20
1.339
11
4.593
21
1.454
0
0
LINE
8
0
10
4.593
20
2.390
11
4.593
21
3.119
0
0
LINE
8
0
10
4.593
20
3.119
11
4.593
21
3.253
0
0
LINE
8
0
10
4.593
20
4.191
11
4.593
21
4.325
0
0
LINE
8
0
10
4.593
20
4.325
11
4.593
21
5.053
0
0
LINE
8
0
10
4.593
20
5.990
11
4.593
21
6.125
0
0
LINE
8
0
10
4.593
20
6.125
11
4.593
21
6.854
0
0
LINE
8
0
10
4.593
20
7.790
11
4.593
21
7.926
0
0
LINE
8
0
10
4.593
20
7.926
11
4.593
21
8.653
0
0
LINE
8
0
10
4.593
20
9.591
11
4.593
21
10.319
0
0
LINE
8
0
10
4.593
20
10.319
11
4.593
21
10.454
0
0
LINE
8
0
10
4.593
20
11.390
11
4.593
21
12.118
0
0
LINE
8
0
10
4.593
20
12.118
11
4.593
21
12.254
0
0
LINE
8
0
10
4.593
20
13.191
11
4.593
21
13.918
0
0
LINE
8
0
10
4.593
20
13.918
11
4.593
21
14.053
0
0
LINE
8
0
10
5.093
20
1.325
11
5.093
21
1.437
0
0
LINE
8
0
10
5.093
20
1.325
11
5.093
21
1.437
0
0
LINE
8
0
10
5.093
20
2.373
11
5.093
21
3.102
0
0
LINE
8
0
10
5.093
20
3.102
11
5.093
21
3.236
0
0
LINE
8
0
10
5.093
20
4.173
11
5.093
21
4.902
0
0
LINE
8
0
10
5.093
20
4.902
11
5.093
21
5.037
0
0
LINE
8
0
10
5.093
20
5.973
11
5.093
21
6.702
0
0
LINE
8
0
10
5.093
20
6.702
11
5.093
21
6.837
0
0
LINE
8
0
10
5.093
20
7.774
11
5.093
21
7.909
0
0
LINE
8
0
10
5.093
20
7.909
11
5.093
21
8.636
0
0
LINE
8
0
10
5.093
20
9.573
11
5.093
21
10.302
0
0
LINE
8
0
10
5.093
20
10.302
11
5.093
21
10.437
0
0
LINE
8
0
10
5.093
20
11.373
11
5.093
21
12.101
0
0
LINE
8
0
10
5.093
20
12.101
11
5.093
21
12.236
0
0
LINE
8
0
10
5.093
20
13.174
11
5.093
21
13.902
0
0
LINE
8
0
10
5.093
20
13.902
11
5.093
21
14.037
0
0
LINE
8
0
10
5.593
20
1.310
11
5.593
21
1.419
0
0
LINE
8
0
10
5.593
20
1.310
11
5.593
21
1.419
0
0
LINE
8
0
10
5.593
20
2.356
11
5.593
21
2.490
0
0
LINE
8
0
10
5.593
20
2.490
11
5.593
21
3.219
0
0
LINE
8
0
10
5.593
20
4.155
11
5.593
21
4.290
0
0
LINE
8
0
10
5.593
20
4.290
11
5.593
21
5.019
0
0
LINE
8
0
10
5.593
20
5.955
11
5.593
21
6.684
0
0
LINE
8
0
10
5.593
20
6.684
11
5.593
21
6.819
0
0
LINE
8
0
10
5.593
20
7.755
11
5.593
21
7.891
0
0
LINE
8
0
10
5.593
20
7.891
11
5.593
21
8.618
0
0
LINE
8
0
10
5.593
20
9.556
11
5.593
21
10.284
0
0
LINE
8
0
10
5.593
20
10.284
11
5.593
21
10.418
0
0
LINE
8
0
10
5.593
20
11.355
11
5.593
21
12.084
0
0
LINE
8
0
10
5.593
20
12.084
11
5.593
21
12.219
0
0
LINE
8
0
10
5.593
20
13.155
11
5.593
21
13.883
0
0
LINE
8
0
10
5.593
20
13.883
11
5.593
21
14.018
0
0
LINE
8
0
10
6.093
20
1.301
11
6.093
21
1.407
0
0
LINE
8
0
10
6.093
20
1.301
11
6.093
21
1.407
0
0
LINE
8
0
10
6.093
20
2.344
11
6.093
21
2.478
0
0
LINE
8
0
10
6.093
20
2.478
11
6.093
21
3.207
0
0
LINE
8
0
10
6.093
20
4.144
11
6.093
21
4.872
0
0
LINE
8
0
10
6.093
20
4.872
11
6.093
21
5.006
0
0
LINE
8
0
10
6.093
20
5.944
11
6.093
21
6.079
0
0
LINE
8
0
10
6.093
20
6.079
11
6.093
21
6.806
0
0
LINE
8
0
10
6.093
20
7.744
11
6.093
21
7.878
0
0
LINE
8
0
10
6.093
20
7.878
11
6.093
21
8.607
0
0
LINE
8
0
10
6.093
20
9.543
11
6.093
21
9.678
0
0
LINE
8
0
10
6.093
20
9.678
11
6.093
21
10.406
0
0
LINE
8
0
10
6.093
20
11.344
11
6.093
21
12.072
0
0
LINE
8
0
10
6.093
20
12.072
11
6.093
21
12.207
0
0
LINE
8
0
10
6.093
20
13.143
11
6.093
21
13.871
0
0
LINE
8
0
10
6.093
20
13.871
11
6.093
21
14.007
0
0
LINE
8
0
10
6.593
20
1.303
11
6.593
21
1.407
0
0
LINE
8
0
10
6.593
20
1.303
11
6.593
21
1.407
0
0
LINE
8
0
10
6.593
20
2.345
11
6.593
21
3.072
0
0
LINE
8
0
10
6.593
20
3.072
11
6.593
21
3.208
0
0
LINE
8
0
10
6.593
20
4.144
11
6.593
21
4.872
0
0
LINE
8
0
10
6.593
20
4.872
11
6.593
21
5.008
0
0
LINE
8
0
10
6.593
20
5.944
11
6.593
21
6.673
0
0
LINE
8
0
10
6.593
20
6.673
11
6.593
21
6.808
0
0
LINE
8
0
10
6.593
20
7.745
11
6.593
21
8.473
0
0
LINE
8
0
10
6.593
20
8.473
11
6.593
21
8.607
0
0
LINE
8
0
10
6.593
20
9.544
11
6.593
21
10.273
0
0
LINE
8
0
10
6.593
20
10.273
11
6.593
21
10.408
0
0
LINE
8
0
10
6.593
20
11.345
11
6.593
21
12.072
0
0
LINE
8
0
10
6.593
20
12.072
11
6.593
21
12.207
0
0
LINE
8
0
10
6.593
20
13.145
11
6.593
21
13.873
0
0
LINE
8
0
10
6.593
20
13.873
11
6.593
21
14.008
0
0
LINE
8
0
10
7.093
20
1.305
11
7.093
21
1.409
0
0
LINE
8
0
10
7.093
20
1.305
11
7.093
21
1.409
0
0
LINE
8
0
10
7.093
20
2.345
11
7.093
21
3.074
0
0
LINE
8
0
10
7.093
20
3.074
11
7.093
21
3.208
0
0
LINE
8
0
10
7.093
20
4.146
11
7.093
21
4.280
0
0
LINE
8
0
10
7.093
20
4.280
11
7.093
21
5.008
0
0
LINE
8
0
10
7.093
20
5.946
11
7.093
21
6.080
0
0
LINE
8
0
10
7.093
20
6.080
11
7.093
21
6.809
0
0
LINE
8
0
10
7.093
20
7.745
11
7.093
21
7.880
0
0
LINE
8
0
10
7.093
20
7.880
11
7.093
21
8.608
0
0
LINE
8
0
10
7.093
20
9.546
11
7.093
21
10.274
0
0
LINE
8
0
10
7.093
20
10.274
11
7.093
21
10.409
0
0
LINE
8
0
10
7.093
20
11.345
11
7.093
21
12.073
0
0
LINE
8
0
10
7.093
20
12.073
11
7.093
21
12.209
0
0
LINE
8
0
10
7.093
20
13.146
11
7.093
21
13.873
0
0
LINE
8
0
10
7.093
20
13.873
11
7.093
21
14.008
0
0
LINE
8
0
10
7.593
20
1.305
11
7.593
21
1.409
0
0
LINE
8
0
10
7.593
20
1.305
11
7.593
21
1.409
0
0
LINE
8
0
10
7.593
20
2.345
11
7.593
21
3.074
0
0
LINE
8
0
10
7.593
20
3.074
11
7.593
21
3.209
0
0
LINE
8
0
10
7.593
20
4.146
11
7.593
21
4.874
0
0
LINE
8
0
10
7.593
20
4.874
11
7.593
21
5.010
0
0
LINE
8
0
10
7.593
20
5.946
11
7.593
21
6.081
0
0
LINE
8
0
10
7.593
20
6.081
11
7.593
21
6.809
0
0
LINE
8
0
10
7.593
20
7.745
11
7.593
21
8.474
0
0
LINE
8
0
10
7.593
20
8.474
11
7.593
21
8.610
0
0
LINE
8
0
10
7.593
20
9.546
11
7.593
21
10.274
0
0
LINE
8
0
10
7.593
20
10.274
11
7.593
21
10.409
0
0
LINE
8
0
10
7.593
20
11.345
11
7.593
21
12.074
0
0
LINE
8
0
10
7.593
20
12.074
11
7.593
21
12.210
0
0
LINE
8
0
10
7.593
20
13.146
11
7.593
21
13.874
0
0
LINE
8
0
10
7.593
20
13.874
11
7.593
21
14.009
0
0
LINE
8
0
10
8.093
20
1.305
11
8.093
21
1.409
0
0
LINE
8
0
10
8.093
20
1.305
11
8.093
21
1.409
0
0
LINE
8
0
10
8.093
20
2.346
11
8.093
21
3.075
0
0
LINE
8
0
10
8.093
20
3.075
11
8.093
21
3.209
0
0
LINE
8
0
10
8.093
20
4.146
11
8.093
21
4.875
0
0
LINE
8
0
10
8.093
20
4.875
11
8.093
21
5.010
0
0
LINE
8
0
10
8.093
20
5.947
11
8.093
21
6.675
0
0
LINE
8
0
10
8.093
20
6.675
11
8.093
21
6.809
0
0
LINE
8
0
10
8.093
20
7.747
11
8.093
21
8.475
0
0
LINE
8
0
10
8.093
20
8.475
11
8.093
21
8.610
0
0
LINE
8
0
10
8.093
20
9.546
11
8.093
21
10.274
0
0
LINE
8
0
10
8.093
20
10.274
11
8.093
21
10.409
0
0
LINE
8
0
10
8.093
20
11.347
11
8.093
21
12.075
0
0
LINE
8
0
10
8.093
20
12.075
11
8.093
21
12.210
0
0
LINE
8
0
10
8.093
20
13.146
11
8.093
21
13.874
0
0
LINE
8
0
10
8.093
20
13.874
11
8.093
21
14.009
0
0
LINE
8
0
10
8.593
20
1.304
11
8.593
21
1.411
0
0
LINE
8
0
10
8.593
20
1.304
11
8.593
21
1.411
0
0
LINE
8
0
10
8.593
20
2.348
11
8.593
21
2.482
0
0
LINE
8
0
10
8.593
20
2.482
11
8.593
21
3.211
0
0
LINE
8
0
10
8.593
20
4.147
11
8.593
21
4.282
0
0
LINE
8
0
10
8.593
20
4.282
11
8.593
21
5.011
0
0
LINE
8
0
10
8.593
20
5.947
11
8.593
21
6.676
0
0
LINE
8
0
10
8.593
20
6.676
11
8.593
21
6.811
0
0
LINE
8
0
10
8.593
20
7.747
11
8.593
21
7.883
0
0
LINE
8
0
10
8.593
20
7.883
11
8.593
21
8.611
0
0
LINE
8
0
10
8.593
20
9.547
11
8.593
21
10.275
0
0
LINE
8
0
10
8.593
20
10.275
11
8.593
21
10.411
0
0
LINE
8
0
10
8.593
20
11.348
11
8.593
21
12.075
0
0
LINE
8
0
10
8.593
20
12.075
11
8.593
21
12.210
0
0
LINE
8
0
10
8.593
20
13.148
11
8.593
21
13.876
0
0
LINE
8
0
10
8.593
20
13.876
11
8.593
21
14.011
0
0
LINE
8
0
10
9.093
20
1.304
11
9.093
21
1.411
0
0
LINE
8
0
10
9.093
20
1.304
11
9.093
21
1.411
0
0
LINE
8
0
10
9.093
20
2.349
11
9.093
21
3.076
0
0
LINE
8
0
10
9.093
20
3.076
11
9.093
21
3.212
0
0
LINE
8
0
10
9.093
20
4.149
11
9.093
21
4.877
0
0
LINE
8
0
10
9.093
20
4.877
11
9.093
21
5.011
0
0
LINE
8
0
10
9.093
20
5.949
11
9.093
21
6.083
0
0
LINE
8
0
10
9.093
20
6.083
11
9.093
21
6.811
0
0
LINE
8
0
10
9.093
20
7.748
11
9.093
21
7.883
0
0
LINE
8
0
10
9.093
20
7.883
11
9.093
21
8.611
0
0
LINE
8
0
10
9.093
20
9.549
11
9.093
21
10.277
0
0
LINE
8
0
10
9.093
20
10.277
11
9.093
21
10.412
0
0
LINE
8
0
10
9.093
20
11.348
11
9.093
21
12.076
0
0
LINE
8
0
10
9.093
20
12.076
11
9.093
21
12.211
0
0
LINE
8
0
10
9.093
20
13.149
11
9.093
21
13.877
0
0
LINE
8
0
10
9.093
20
13.877
11
9.093
21
14.011
0
0
LINE
8
0
10
9.593
20
1.303
11
9.593
21
1.411
0
0
LINE
8
0
10
9.593
20
1.303
11
9.593
21
1.411
0
0
LINE
8
0
10
9.593
20
2.349
11
9.593
21
3.076
0
0
LINE
8
0
10
9.593
20
3.076
11
9.593
21
3.212
0
0
LINE
8
0
10
9.593
20
4.149
11
9.593
21
4.877
0
0
LINE
8
0
10
9.593
20
4.877
11
9.593
21
5.011
0
0
LINE
8
0
10
9.593
20
5.949
11
9.593
21
6.083
0
0
LINE
8
0
10
9.593
20
6.083
11
9.593
21
6.811
0
0
LINE
8
0
10
9.593
20
7.748
11
9.593
21
7.883
0
0
LINE
8
0
10
9.593
20
7.883
11
9.593
21
8.611
0
0
LINE
8
0
10
9.593
20
9.549
11
9.593
21
10.277
0
0
LINE
8
0
10
9.593
20
10.277
11
9.593
21
10.412
0
0
LINE
8
0
10
9.593
20
11.348
11
9.593
21
12.076
0
0
LINE
8
0
10
9.593
20
12.076
11
9.593
21
12.211
0
0
LINE
8
0
10
9.593
20
13.149
11
9.593
21
13.877
0
0
LINE
8
0
10
9.593
20
13.877
11
9.593
21
14.011
0
0
LINE
8
0
10
10.093
20
1.303
11
10.093
21
1.413
0
0
LINE
8
0
10
10.093
20
1.303
11
10.093
21
1.413
0
0
LINE
8
0
10
10.093
20
2.349
11
10.093
21
3.078
0
0
LINE
8
0
10
10.093
20
3.078
11
10.093
21
3.212
0
0
LINE
8
0
10
10.093
20
4.149
11
10.093
21
4.878
0
0
LINE
8
0
10
10.093
20
4.878
11
10.093
21
5.013
0
0
LINE
8
0
10
10.093
20
5.949
11
10.093
21
6.678
0
0
LINE
8
0
10
10.093
20
6.678
11
10.093
21
6.812
0
0
LINE
8
0
10
10.093
20
7.750
11
10.093
21
8.477
0
0
LINE
8
0
10
10.093
20
8.477
11
10.093
21
8.613
0
0
LINE
8
0
10
10.093
20
9.550
11
10.093
21
10.277
0
0
LINE
8
0
10
10.093
20
10.277
11
10.093
21
10.412
0
0
LINE
8
0
10
10.093
20
11.350
11
10.093
21
12.078
0
0
LINE
8
0
10
10.093
20
12.078
11
10.093
21
12.213
0
0
LINE
8
0
10
10.093
20
13.149
11
10.093
21
13.284
0
0
LINE
8
0
10
10.093
20
13.284
11
10.093
21
14.012
0
0
LINE
8
0
10
10.593
20
1.303
11
10.593
21
1.413
0
0
LINE
8
0
10
10.593
20
1.303
11
10.593
21
1.413
0
0
LINE
8
0
10
10.593
20
2.350
11
10.593
21
3.079
0
0
LINE
8
0
10
10.593
20
3.079
11
10.593
21
3.213
0
0
LINE
8
0
10
10.593
20
4.151
11
10.593
21
4.285
0
0
LINE
8
0
10
10.593
20
4.285
11
10.593
21
5.013
0
0
LINE
8
0
10
10.593
20
5.950
11
10.593
21
6.678
0
0
LINE
8
0
10
10.593
20
6.678
11
10.593
21
6.814
0
0
LINE
8
0
10
10.593
20
7.750
11
10.593
21
7.886
0
0
LINE
8
0
10
10.593
20
7.886
11
10.593
21
8.614
0
0
LINE
8
0
10
10.593
20
9.550
11
10.593
21
10.278
0
0
LINE
8
0
10
10.593
20
10.278
11
10.593
21
10.414
0
0
LINE
8
0
10
10.593
20
11.351
11
10.593
21
12.079
0
0
LINE
8
0
10
10.593
20
12.079
11
10.593
21
12.213
0
0
LINE
8
0
10
10.593
20
13.150
11
10.593
21
13.879
0
0
LINE
8
0
10
10.593
20
13.879
11
10.593
21
14.014
0
0
LINE
8
0
10
11.093
20
1.302
11
11.093
21
1.414
0
0
LINE
8
0
10
11.093
20
1.302
11
11.093
21
1.414
0
0
LINE
8
0
10
11.093
20
2.350
11
11.093
21
2.351
0
0
LINE
8
0
10
11.093
20
2.351
11
11.093
21
2.486
0
0
LINE
8
0
10
11.093
20
2.486
11
11.093
21
3.215
0
0
LINE
8
0
10
11.093
20
4.151
11
11.093
21
4.151
0
0
LINE
8
0
10
11.093
20
4.151
11
11.093
21
4.287
0
0
LINE
8
0
10
11.093
20
4.287
11
11.093
21
5.014
0
0
LINE
8
0
10
11.093
20
5.950
11
11.093
21
5.951
0
0
LINE
8
0
10
11.093
20
5.951
11
11.093
21
6.087
0
0
LINE
8
0
10
11.093
20
6.087
11
11.093
21
6.814
0
0
LINE
8
0
10
11.093
20
7.750
11
11.093
21
7.751
0
0
LINE
8
0
10
11.093
20
7.751
11
11.093
21
7.886
0
0
LINE
8
0
10
11.093
20
7.886
11
11.093
21
8.614
0
0
LINE
8
0
10
11.093
20
9.550
11
11.093
21
9.551
0
0
LINE
8
0
10
11.093
20
9.551
11
11.093
21
9.687
0
0
LINE
8
0
10
11.093
20
9.687
11
11.093
21
10.415
0
0
LINE
8
0
10
11.093
20
11.351
11
11.093
21
11.351
0
0
LINE
8
0
10
11.093
20
11.351
11
11.093
21
11.486
0
0
LINE
8
0
10
11.093
20
11.486
11
11.093
21
12.214
0
0
LINE
8
0
10
11.093
20
13.150
11
11.093
21
13.151
0
0
LINE
8
0
10
11.093
20
13.151
11
11.093
21
13.287
0
0
LINE
8
0
10
11.093
20
13.287
11
11.093
21
14.014
0
0
LINE
8
0
10
11.593
20
1.302
11
11.593
21
1.415
0
0
LINE
8
0
10
11.593
20
1.302
11
11.593
21
1.415
0
0
LINE
8
0
10
11.593
20
2.352
11
11.593
21
2.486
0
0
LINE
8
0
10
11.593
20
2.486
11
11.593
21
3.215
0
0
LINE
8
0
10
11.593
20
4.152
11
11.593
21
4.880
0
0
LINE
8
0
10
11.593
20
4.880
11
11.593
21
5.014
0
0
LINE
8
0
10
11.593
20
5.952
11
11.593
21
6.087
0
0
LINE
8
0
10
11.593
20
6.087
11
11.593
21
6.814
0
0
LINE
8
0
10
11.593
20
7.752
11
11.593
21
7.886
0
0
LINE
8
0
10
11.593
20
7.886
11
11.593
21
8.614
0
0
LINE
8
0
10
11.593
20
9.552
11
11.593
21
10.280
0
0
LINE
8
0
10
11.593
20
10.280
11
11.593
21
10.415
0
0
LINE
8
0
10
11.593
20
11.351
11
11.593
21
11.486
0
0
LINE
8
0
10
11.593
20
11.486
11
11.593
21
12.214
0
0
LINE
8
0
10
11.593
20
13.152
11
11.593
21
13.880
0
0
LINE
8
0
10
11.593
20
13.880
11
11.593
21
14.014
0
0
LINE
8
0
10
12.093
20
1.301
11
12.093
21
1.415
0
0
LINE
8
0
10
12.093
20
1.301
11
12.093
21
1.415
0
0
LINE
8
0
10
12.093
20
2.353
11
12.093
21
3.080
0
0
LINE
8
0
10
12.093
20
3.080
11
12.093
21
3.216
0
0
LINE
8
0
10
12.093
20
4.152
11
12.093
21
4.880
0
0
LINE
8
0
10
12.093
20
4.880
11
12.093
21
5.016
0
0
LINE
8
0
10
12.093
20
5.952
11
12.093
21
6.681
0
0
LINE
8
0
10
12.093
20
6.681
11
12.093
21
6.816
0
0
LINE
8
0
10
12.093
20
7.753
11
12.093
21
8.480
0
0
LINE
8
0
10
12.093
20
8.480
11
12.093
21
8.616
0
0
LINE
8
0
10
12.093
20
9.553
11
12.093
21
10.280
0
0
LINE
8
0
10
12.093
20
10.280
11
12.093
21
10.415
0
0
LINE
8
0
10
12.093
20
11.352
11
12.093
21
12.081
0
0
LINE
8
0
10
12.093
20
12.081
11
12.093
21
12.216
0
0
LINE
8
0
10
12.093
20
13.152
11
12.093
21
13.287
0
0
LINE
8
0
10
12.093
20
13.287
11
12.093
21
14.015
0
0
LINE
8
0
10
12.593
20
1.301
11
12.593
21
1.417
0
0
LINE
8
0
10
12.593
20
1.301
11
12.593
21
1.417
0
0
LINE
8
0
10
12.593
20
2.353
11
12.593
21
3.082
0
0
LINE
8
0
10
12.593
20
3.082
11
12.593
21
3.216
0
0
LINE
8
0
10
12.593
20
4.154
11
12.593
21
4.288
0
0
LINE
8
0
10
12.593
20
4.288
11
12.593
21
5.016
0
0
LINE
8
0
10
12.593
20
5.954
11
12.593
21
6.088
0
0
LINE
8
0
10
12.593
20
6.088
11
12.593
21
6.816
0
0
LINE
8
0
10
12.593
20
7.753
11
12.593
21
7.888
0
0
LINE
8
0
10
12.593
20
7.888
11
12.593
21
8.617
0
0
LINE
8
0
10
12.593
20
9.553
11
12.593
21
9.688
0
0
LINE
8
0
10
12.593
20
9.688
11
12.593
21
10.416
0
0
LINE
8
0
10
12.593
20
11.354
11
12.593
21
12.082
0
0
LINE
8
0
10
12.593
20
12.082
11
12.593
21
12.216
0
0
LINE
8
0
10
12.593
20
13.153
11
12.593
21
13.882
0
0
LINE
8
0
10
12.593
20
13.882
11
12.593
21
14.017
0
0
LINE
8
0
10
13.093
20
1.301
11
13.093
21
1.417
0
0
LINE
8
0
10
13.093
20
1.301
11
13.093
21
1.417
0
0
LINE
8
0
10
13.093
20
2.353
11
13.093
21
3.082
0
0
LINE
8
0
10
13.093
20
3.082
11
13.093
21
3.217
0
0
LINE
8
0
10
13.093
20
4.154
11
13.093
21
4.881
0
0
LINE
8
0
10
13.093
20
4.881
11
13.093
21
5.017
0
0
LINE
8
0
10
13.093
20
5.954
11
13.093
21
6.681
0
0
LINE
8
0
10
13.093
20
6.681
11
13.093
21
6.817
0
0
LINE
8
0
10
13.093
20
7.753
11
13.093
21
8.482
0
0
LINE
8
0
10
13.093
20
8.482
11
13.093
21
8.617
0
0
LINE
8
0
10
13.093
20
9.553
11
13.093
21
10.281
0
0
LINE
8
0
10
13.093
20
10.281
11
13.093
21
10.417
0
0
LINE
8
0
10
13.093
20
11.354
11
13.093
21
12.082
0
0
LINE
8
0
10
13.093
20
12.082
11
13.093
21
12.217
0
0
LINE
8
0
10
13.093
20
13.153
11
13.093
21
13.882
0
0
LINE
8
0
10
13.093
20
13.882
11
13.093
21
14.017
0
0
LINE
8
0
10
13.593
20
1.308
11
13.593
21
1.417
0
0
LINE
8
0
10
13.593
20
1.308
11
13.593
21
1.417
0
0
LINE
8
0
10
13.593
20
2.354
11
13.593
21
3.083
0
0
LINE
8
0
10
13.593
20
3.083
11
13.593
21
3.217
0
0
LINE
8
0
10
13.593
20
4.154
11
13.593
21
4.883
0
0
LINE
8
0
10
13.593
20
4.883
11
13.593
21
5.018
0
0
LINE
8
0
10
13.593
20
5.955
11
13.593
21
6.683
0
0
LINE
8
0
10
13.593
20
6.683
11
13.593
21
6.817
0
0
LINE
8
0
10
13.593
20
7.755
11
13.593
21
7.889
0
0
LINE
8
0
10
13.593
20
7.889
11
13.593
21
8.617
0
0
LINE
8
0
10
13.593
20
9.555
11
13.593
21
10.283
0
0
LINE
8
0
10
13.593
20
10.283
11
13.593
21
10.418
0
0
LINE
8
0
10
13.593
20
11.354
11
13.593
21
11.489
0
0
LINE
8
0
10
13.593
20
11.489
11
13.593
21
12.217
0
0
LINE
8
0
10
13.593
20
13.155
11
13.593
21
13.883
0
0
LINE
8
0
10
13.593
20
13.883
11
13.593
21
14.018
0
0
LINE
8
0
10
14.093
20
1.321
11
14.093
21
1.419
0
0
LINE
8
0
10
14.093
20
1.321
11
14.093
21
1.419
0
0
LINE
8
0
10
14.093
20
2.356
11
14.093
21
2.490
0
0
LINE
8
0
10
14.093
20
2.490
11
14.093
21
3.219
0
0
LINE
8
0
10
14.093
20
4.155
11
14.093
21
4.290
0
0
LINE
8
0
10
14.093
20
4.290
11
14.093
21
5.019
0
0
LINE
8
0
10
14.093
20
5.955
11
14.093
21
6.684
0
0
LINE
8
0
10
14.093
20
6.684
11
14.093
21
6.819
0
0
LINE
8
0
10
14.093
20
7.755
11
14.093
21
7.891
0
0
LINE
8
0
10
14.093
20
7.891
11
14.093
21
8.618
0
0
LINE
8
0
10
14.093
20
9.556
11
14.093
21
10.284
0
0
LINE
8
0
10
14.093
20
10.284
11
14.093
21
10.418
0
0
LINE
8
0
10
14.093
20
11.355
11
14.093
21
12.084
0
0
LINE
8
0
10
14.093
20
12.084
11
14.093
21
12.219
0
0
LINE
8
0
10
14.093
20
13.155
11
14.093
21
13.883
0
0
LINE
8
0
10
14.093
20
13.883
11
14.093
21
14.018
0
0
LINE
8
0
10
14.593
20
1.373
11
14.593
21
1.419
0
0
LINE
8
0
10
14.593
20
1.373
11
14.593
21
1.419
0
0
LINE
8
0
10
14.593
20
2.356
11
14.593
21
3.084
0
0
LINE
8
0
10
14.593
20
3.084
11
14.593
21
3.220
0
0
LINE
8
0
10
14.593
20
4.156
11
14.593
21
4.885
0
0
LINE
8
0
10
14.593
20
4.885
11
14.593
21
5.019
0
0
LINE
8
0
10
14.593
20
5.956
11
14.593
21
6.091
0
0
LINE
8
0
10
14.593
20
6.091
11
14.593
21
6.819
0
0
LINE
8
0
10
14.593
20
7.756
11
14.593
21
7.891
0
0
LINE
8
0
10
14.593
20
7.891
11
14.593
21
8.620
0
0
LINE
8
0
10
14.593
20
9.556
11
14.593
21
9.691
0
0
LINE
8
0
10
14.593
20
9.691
11
14.593
21
10.419
0
0
LINE
8
0
10
14.593
20
11.356
11
14.593
21
12.085
0
0
LINE
8
0
10
14.593
20
12.085
11
14.593
21
12.220
0
0
LINE
8
0
10
14.593
20
13.156
11
14.593
21
13.884
0
0
LINE
8
0
10
14.593
20
13.884
11
14.593
21
14.020
0
0
LINE
8
0
10
1.853
20
0.592
11
1.988
21
0.592
0
0
LINE
8
0
10
1.853
20
0.592
11
1.988
21
0.592
0
0
LINE
8
0
10
1.988
20
0.592
11
2.716
21
0.592
0
0
LINE
8
0
10
3.652
20
0.592
11
4.380
21
0.592
0
0
LINE
8
0
10
4.380
20
0.592
11
4.516
21
0.592
0
0
LINE
8
0
10
5.452
20
0.592
11
6.181
21
0.592
0
0
LINE
8
0
10
6.181
20
0.592
11
6.316
21
0.592
0
0
LINE
8
0
10
7.196
20
0.592
11
7.222
21
0.592
0
0
LINE
8
0
10
7.222
20
0.592
11
7.223
21
0.592
0
0
LINE
8
0
10
7.840
20
0.592
11
7.841
21
0.592
0
0
LINE
8
0
10
7.841
20
0.592
11
7.976
21
0.592
0
0
LINE
8
0
10
7.976
20
0.592
11
8.704
21
0.592
0
0
LINE
8
0
10
9.640
20
0.592
11
9.641
21
0.592
0
0
LINE
8
0
10
9.641
20
0.592
11
9.777
21
0.592
0
0
LINE
8
0
10
9.777
20
0.592
11
10.505
21
0.592
0
0
LINE
8
0
10
11.441
20
0.592
11
11.441
21
0.592
0
0
LINE
8
0
10
11.441
20
0.592
11
11.576
21
0.592
0
0
LINE
8
0
10
11.576
20
0.592
11
12.305
21
0.592
0
0
LINE
8
0
10
13.241
20
0.592
11
13.241
21
0.592
0
0
LINE
8
0
10
13.241
20
0.592
11
13.332
21
0.592
0
0
LINE
8
0
10
1.270
20
1.092
11
1.998
21
1.092
0
0
LINE
8
0
10
1.270
20
1.092
11
1.998
21
1.092
0
0
LINE
8
0
10
1.998
20
1.092
11
2.134
21
1.092
0
0
LINE
8
0
10
3.070
20
1.092
11
3.205
21
1.092
0
0
LINE
8
0
10
3.205
20
1.092
11
3.933
21
1.092
0
0
LINE
8
0
10
4.870
20
1.092
11
5.598
21
1.092
0
0
LINE
8
0
10
5.598
20
1.092
11
5.734
21
1.092
0
0
LINE
8
0
10
6.670
20
1.092
11
6.805
21
1.092
0
0
LINE
8
0
10
6.805
20
1.092
11
7.534
21
1.092
0
0
LINE
8
0
10
8.470
20
1.092
11
9.198
21
1.092
0
0
LINE
8
0
10
9.198
20
1.092
11
9.334
21
1.092
0
0
LINE
8
0
10
10.270
20
1.092
11
10.405
21
1.092
0
0
LINE
8
0
10
10.405
20
1.092
11
11.133
21
1.092
0
0
LINE
8
0
10
12.069
20
1.092
11
12.205
21
1.092
0
0
LINE
8
0
10
12.205
20
1.092
11
12.934
21
1.092
0
0
LINE
8
0
10
13.870
20
1.092
11
13.870
21
1.092
0
0
LINE
8
0
10
13.870
20
1.092
11
13.959
21
1.092
0
0
LINE
8
0
10
1.137
20
1.592
11
1.272
21
1.592
0
0
LINE
8
0
10
1.137
20
1.592
11
1.272
21
1.592
0
0
LINE
8
0
10
1.272
20
1.592
11
2.001
21
1.592
0
0
LINE
8
0
10
2.938
20
1.592
11
3.072
21
1.592
0
0
LINE
8
0
10
3.072
20
1.592
11
3.800
21
1.592
0
0
LINE
8
0
10
4.737
20
1.592
11
5.465
21
1.592
0
0
LINE
8
0
10
5.465
20
1.592
11
5.601
21
1.592
0
0
LINE
8
0
10
6.537
20
1.592
11
7.266
21
1.592
0
0
LINE
8
0
10
7.266
20
1.592
11
7.401
21
1.592
0
0
LINE
8
0
10
8.338
20
1.592
11
8.473
21
1.592
0
0
LINE
8
0
10
8.473
20
1.592
11
9.200
21
1.592
0
0
LINE
8
0
10
10.137
20
1.592
11
10.866
21
1.592
0
0
LINE
8
0
10
10.866
20
1.592
11
11.001
21
1.592
0
0
LINE
8
0
10
11.938
20
1.592
11
12.072
21
1.592
0
0
LINE
8
0
10
12.072
20
1.592
11
12.800
21
1.592
0
0
LINE
8
0
10
13.738
20
1.592
11
13.850
21
1.592
0
0
LINE
8
0
10
1.075
20
2.092
11
1.210
21
2.092
0
0
LINE
8
0
10
1.075
20
2.092
11
1.210
21
2.092
0
0
LINE
8
0
10
1.210
20
2.092
11
1.938
21
2.092
0
0
LINE
8
0
10
2.874
20
2.092
11
3.010
21
2.092
0
0
LINE
8
0
10
3.010
20
2.092
11
3.737
21
2.092
0
0
LINE
8
0
10
4.675
20
2.092
11
4.809
21
2.092
0
0
LINE
8
0
10
4.809
20
2.092
11
5.537
21
2.092
0
0
LINE
8
0
10
6.474
20
2.092
11
7.202
21
2.092
0
0
LINE
8
0
10
7.202
20
2.092
11
7.338
21
2.092
0
0
LINE
8
0
10
8.274
20
2.092
11
8.409
21
2.092
0
0
LINE
8
0
10
8.409
20
2.092
11
9.137
21
2.092
0
0
LINE
8
0
10
10.075
20
2.092
11
10.210
21
2.092
0
0
LINE
8
0
10
10.210
20
2.092
11
10.938
21
2.092
0
0
LINE
8
0
10
11.874
20
2.092
11
12.602
21
2.092
0
0
LINE
8
0
10
12.602
20
2.092
11
12.738
21
2.092
0
0
LINE
8
0
10
13.675
20
2.092
11
13.798
21
2.092
0
0
LINE
8
0
10
1.069
20
2.592
11
1.069
21
2.592
0
0
LINE
8
0
10
1.069
20
2.592
11
1.069
21
2.592
0
0
LINE
8
0
10
1.069
20
2.592
11
1.204
21
2.592
0
0
LINE
8
0
10
1.204
20
2.592
11
1.933
21
2.592
0
0
LINE
8
0
10
2.869
20
2.592
11
2.869
21
2.592
0
0
LINE
8
0
10
2.869
20
2.592
11
3.005
21
2.592
0
0
LINE
8
0
10
3.005
20
2.592
11
3.732
21
2.592
0
0
LINE
8
0
10
4.668
20
2.592
11
4.669
21
2.592
0
0
LINE
8
0
10
4.669
20
2.592
11
4.804
21
2.592
0
0
LINE
8
0
10
4.804
20
2.592
11
5.532
21
2.592
0
0
LINE
8
0
10
6.468
20
2.592
11
6.469
21
2.592
0
0
LINE
8
0
10
6.469
20
2.592
11
6.604
21
2.592
0
0
LINE
8
0
10
6.604
20
2.592
11
7.332
21
2.592
0
0
LINE
8
0
10
8.268
20
2.592
11
8.269
21
2.592
0
0
LINE
8
0
10
8.269
20
2.592
11
8.405
21
2.592
0
0
LINE
8
0
10
8.405
20
2.592
11
9.133
21
2.592
0
0
LINE
8
0
10
10.069
20
2.592
11
10.069
21
2.592
0
0
LINE
8
0
10
10.069
20
2.592
11
10.204
21
2.592
0
0
LINE
8
0
10
10.204
20
2.592
11
10.932
21
2.592
0
0
LINE
8
0
10
11.868
20
2.592
11
11.869
21
2.592
0
0
LINE
8
0
10
11.869
20
2.592
11
12.005
21
2.592
0
0
LINE
8
0
10
12.005
20
2.592
11
12.732
21
2.592
0
0
LINE
8
0
10
13.668
20
2.592
11
13.669
21
2.592
0
0
LINE
8
0
10
13.669
20
2.592
11
13.794
21
2.592
0
0
LINE
8
0
10
1.081
20
3.092
11
1.216
21
3.092
0
0
LINE
8
0
10
1.081
20
3.092
11
1.216
21
3.092
0
0
LINE
8
0
10
1.216
20
3.092
11
1.944
21
3.092
0
0
LINE
8
0
10
2.881
20
3.092
11
3.017
21
3.092
0
0
LINE
8
0
10
3.017
20
3.092
11
3.744
21
3.092
0
0
LINE
8
0
10
4.681
20
3.092
11
5.410
21
3.092
0
0
LINE
8
0
10
5.410
20
3.092
11
5.545
21
3.092
0
0
LINE
8
0
10
6.481
20
3.092
11
7.210
21
3.092
0
0
LINE
8
0
10
7.210
20
3.092
11
7.345
21
3.092
0
0
LINE
8
0
10
8.281
20
3.092
11
9.009
21
3.092
0
0
LINE
8
0
10
9.009
20
3.092
11
9.145
21
3.092
0
0
LINE
8
0
10
10.082
20
3.092
11
10.216
21
3.092
0
0
LINE
8
0
10
10.216
20
3.092
11
10.944
21
3.092
0
0
LINE
8
0
10
11.882
20
3.092
11
12.017
21
3.092
0
0
LINE
8
0
10
12.017
20
3.092
11
12.745
21
3.092
0
0
LINE
8
0
10
13.681
20
3.092
11
13.804
21
3.092
0
0
LINE
8
0
10
1.095
20
3.592
11
1.823
21
3.592
0
0
LINE
8
0
10
1.095
20
3.592
11
1.823
21
3.592
0
0
LINE
8
0
10
1.823
20
3.592
11
1.958
21
3.592
0
0
LINE
8
0
10
2.894
20
3.592
11
3.623
21
3.592
0
0
LINE
8
0
10
3.623
20
3.592
11
3.757
21
3.592
0
0
LINE
8
0
10
4.694
20
3.592
11
5.423
21
3.592
0
0
LINE
8
0
10
5.423
20
3.592
11
5.558
21
3.592
0
0
LINE
8
0
10
6.495
20
3.592
11
7.223
21
3.592
0
0
LINE
8
0
10
7.223
20
3.592
11
7.357
21
3.592
0
0
LINE
8
0
10
8.294
20
3.592
11
9.023
21
3.592
0
0
LINE
8
0
10
9.023
20
3.592
11
9.158
21
3.592
0
0
LINE
8
0
10
10.095
20
3.592
11
10.229
21
3.592
0
0
LINE
8
0
10
10.229
20
3.592
11
10.957
21
3.592
0
0
LINE
8
0
10
11.895
20
3.592
11
12.030
21
3.592
0
0
LINE
8
0
10
12.030
20
3.592
11
12.758
21
3.592
0
0
LINE
8
0
10
13.694
20
3.592
11
13.814
21
3.592
0
0
LINE
8
0
10
1.107
20
4.092
11
1.835
21
4.092
0
0
LINE
8
0
10
1.107
20
4.092
11
1.835
21
4.092
0
0
LINE
8
0
10
1.835
20
4.092
11
1.970
21
4.092
0
0
LINE
8
0
10
2.906
20
4.092
11
3.042
21
4.092
0
0
LINE
8
0
10
3.042
20
4.092
11
3.769
21
4.092
0
0
LINE
8
0
10
4.707
20
4.092
11
4.841
21
4.092
0
0
LINE
8
0
10
4.841
20
4.092
11
5.569
21
4.092
0
0
LINE
8
0
10
6.506
20
4.092
11
6.641
21
4.092
0
0
LINE
8
0
10
6.641
20
4.092
11
7.370
21
4.092
0
0
LINE
8
0
10
8.306
20
4.092
11
8.441
21
4.092
0
0
LINE
8
0
10
8.441
20
4.092
11
9.169
21
4.092
0
0
LINE
8
0
10
10.107
20
4.092
11
10.242
21
4.092
0
0
LINE
8
0
10
10.242
20
4.092
11
10.970
21
4.092
0
0
LINE
8
0
10
11.906
20
4.092
11
12.634
21
4.092
0
0
LINE
8
0
10
12.634
20
4.092
11
12.770
21
4.092
0
0
LINE
8
0
10
13.707
20
4.092
11
13.823
21
4.092
0
0
LINE
8
0
10
1.119
20
4.592
11
1.847
21
4.592
0
0
LINE
8
0
10
1.119
20
4.592
11
1.847
21
4.592
0
0
LINE
8
0
10
1.847
20
4.592
11
1.982
21
4.592
0
0
LINE
8
0
10
2.920
20
4.592
11
3.054
21
4.592
0
0
LINE
8
0
10
3.054
20
4.592
11
3.783
21
4.592
0
0
LINE
8
0
10
4.720
20
4.592
11
4.854
21
4.592
0
0
LINE
8
0
10
4.854
20
4.592
11
5.582
21
4.592
0
0
LINE
8
0
10
6.519
20
4.592
11
7.247
21
4.592
0
0
LINE
8
0
10
7.247
20
4.592
11
7.383
21
4.592
0
0
LINE
8
0
10
8.319
20
4.592
11
8.454
21
4.592
0
0
LINE
8
0
10
8.454
20
4.592
11
9.182
21
4.592
0
0
LINE
8
0
10
10.120
20
4.592
11
10.255
21
4.592
0
0
LINE
8
0
10
10.255
20
4.592
11
10.982
21
4.592
0
0
LINE
8
0
10
11.919
20
4.592
11
12.648
21
4.592
0
0
LINE
8
0
10
12.648
20
4.592
11
12.783
21
4.592
0
0
LINE
8
0
10
13.720
20
4.592
11
13.834
21
4.592
0
0
LINE
8
0
10
1.131
20
5.092
11
1.860
21
5.092
0
0
LINE
8
0
10
1.131
20
5.092
11
1.860
21
5.092
0
0
LINE
8
0
10
1.860
20
5.092
11
1.996
21
5.092
0
0
LINE
8
0
10
2.932
20
5.092
11
3.067
21
5.092
0
0
LINE
8
0
10
3.067
20
5.092
11
3.796
21
5.092
0
0
LINE
8
0
10
4.731
20
5.092
11
4.867
21
5.092
0
0
LINE
8
0
10
4.867
20
5.092
11
5.596
21
5.092
0
0
LINE
8
0
10
6.532
20
5.092
11
7.260
21
5.092
0
0
LINE
8
0
10
7.260
20
5.092
11
7.396
21
5.092
0
0
LINE
8
0
10
8.332
20
5.092
11
8.467
21
5.092
0
0
LINE
8
0
10
8.467
20
5.092
11
9.195
21
5.092
0
0
LINE
8
0
10
10.132
20
5.092
11
10.267
21
5.092
0
0
LINE
8
0
10
10.267
20
5.092
11
10.995
21
5.092
0
0
LINE
8
0
10
11.931
20
5.092
11
12.067
21
5.092
0
0
LINE
8
0
10
12.067
20
5.092
11
12.796
21
5.092
0
0
LINE
8
0
10
13.732
20
5.092
11
13.732
21
5.092
0
0
LINE
8
0
10
13.732
20
5.092
11
13.844
21
5.092
0
0
LINE
8
0
10
1.145
20
5.592
11
1.873
21
5.592
0
0
LINE
8
0
10
1.145
20
5.592
11
1.873
21
5.592
0
0
LINE
8
0
10
1.873
20
5.592
11
2.007
21
5.592
0
0
LINE
8
0
10
2.945
20
5.592
11
3.079
21
5.592
0
0
LINE
8
0
10
3.079
20
5.592
11
3.808
21
5.592
0
0
LINE
8
0
10
4.745
20
5.592
11
4.880
21
5.592
0
0
LINE
8
0
10
4.880
20
5.592
11
5.607
21
5.592
0
0
LINE
8
0
10
6.545
20
5.592
11
6.679
21
5.592
0
0
LINE
8
0
10
6.679
20
5.592
11
7.407
21
5.592
0
0
LINE
8
0
10
8.345
20
5.592
11
8.479
21
5.592
0
0
LINE
8
0
10
8.479
20
5.592
11
9.207
21
5.592
0
0
LINE
8
0
10
10.145
20
5.592
11
10.280
21
5.592
0
0
LINE
8
0
10
10.280
20
5.592
11
11.008
21
5.592
0
0
LINE
8
0
10
11.944
20
5.592
11
12.079
21
5.592
0
0
LINE
8
0
10
12.079
20
5.592
11
12.807
21
5.592
0
0
LINE
8
0
10
13.745
20
5.592
11
13.853
21
5.592
0
0
LINE
8
0
10
1.157
20
6.092
11
1.292
21
6.092
0
0
LINE
8
0
10
1.157
20
6.092
11
1.292
21
6.092
0
0
LINE
8
0
10
1.292
20
6.092
11
2.021
21
6.092
0
0
LINE
8
0
10
2.958
20
6.092
11
3.686
21
6.092
0
0
LINE
8
0
10
3.686
20
6.092
11
3.821
21
6.092
0
0
LINE
8
0
10
4.758
20
6.092
11
4.893
21
6.092
0
0
LINE
8
0
10
4.893
20
6.092
11
5.620
21
6.092
0
0
LINE
8
0
10
6.558
20
6.092
11
6.692
21
6.092
0
0
LINE
8
0
10
6.692
20
6.092
11
7.420
21
6.092
0
0
LINE
8
0
10
8.357
20
6.092
11
8.492
21
6.092
0
0
LINE
8
0
10
8.492
20
6.092
11
9.220
21
6.092
0
0
LINE
8
0
10
10.158
20
6.092
11
10.293
21
6.092
0
0
LINE
8
0
10
10.293
20
6.092
11
11.021
21
6.092
0
0
LINE
8
0
10
11.957
20
6.092
11
12.685
21
6.092
0
0
LINE
8
0
10
12.685
20
6.092
11
12.820
21
6.092
0
0
LINE
8
0
10
13.758
20
6.092
11
13.864
21
6.092
0
0
LINE
8
0
10
1.169
20
6.592
11
1.304
21
6.592
0
0
LINE
8
0
10
1.169
20
6.592
11
1.304
21
6.592
0
0
LINE
8
0
10
1.304
20
6.592
11
2.033
21
6.592
0
0
LINE
8
0
10
2.970
20
6.592
11
3.104
21
6.592
0
0
LINE
8
0
10
3.104
20
6.592
11
3.833
21
6.592
0
0
LINE
8
0
10
4.769
20
6.592
11
5.497
21
6.592
0
0
LINE
8
0
10
5.497
20
6.592
11
5.633
21
6.592
0
0
LINE
8
0
10
6.569
20
6.592
11
7.298
21
6.592
0
0
LINE
8
0
10
7.298
20
6.592
11
7.433
21
6.592
0
0
LINE
8
0
10
8.370
20
6.592
11
8.505
21
6.592
0
0
LINE
8
0
10
8.505
20
6.592
11
9.232
21
6.592
0
0
LINE
8
0
10
10.169
20
6.592
11
10.898
21
6.592
0
0
LINE
8
0
10
10.898
20
6.592
11
11.033
21
6.592
0
0
LINE
8
0
10
11.970
20
6.592
11
12.104
21
6.592
0
0
LINE
8
0
10
12.104
20
6.592
11
12.832
21
6.592
0
0
LINE
8
0
10
13.770
20
6.592
11
13.875
21
6.592
0
0
LINE
8
0
10
1.183
20
7.092
11
1.317
21
7.092
0
0
LINE
8
0
10
1.183
20
7.092
11
1.317
21
7.092
0
0
LINE
8
0
10
1.317
20
7.092
11
2.046
21
7.092
0
0
LINE
8
0
10
2.982
20
7.092
11
3.118
21
7.092
0
0
LINE
8
0
10
3.118
20
7.092
11
3.845
21
7.092
0
0
LINE
8
0
10
4.782
20
7.092
11
5.511
21
7.092
0
0
LINE
8
0
10
5.511
20
7.092
11
5.646
21
7.092
0
0
LINE
8
0
10
6.582
20
7.092
11
7.311
21
7.092
0
0
LINE
8
0
10
7.311
20
7.092
11
7.446
21
7.092
0
0
LINE
8
0
10
8.383
20
7.092
11
8.518
21
7.092
0
0
LINE
8
0
10
8.518
20
7.092
11
9.245
21
7.092
0
0
LINE
8
0
10
10.182
20
7.092
11
10.911
21
7.092
0
0
LINE
8
0
10
10.911
20
7.092
11
11.046
21
7.092
0
0
LINE
8
0
10
11.982
20
7.092
11
12.117
21
7.092
0
0
LINE
8
0
10
12.117
20
7.092
11
12.845
21
7.092
0
0
LINE
8
0
10
13.783
20
7.092
11
13.887
21
7.092
0
0
LINE
8
0
10
1.194
20
7.592
11
1.195
21
7.592
0
0
LINE
8
0
10
1.194
20
7.592
11
1.195
21
7.592
0
0
LINE
8
0
10
1.195
20
7.592
11
1.331
21
7.592
0
0
LINE
8
0
10
1.331
20
7.592
11
2.058
21
7.592
0
0
LINE
8
0
10
2.994
20
7.592
11
2.995
21
7.592
0
0
LINE
8
0
10
2.995
20
7.592
11
3.131
21
7.592
0
0
LINE
8
0
10
3.131
20
7.592
11
3.858
21
7.592
0
0
LINE
8
0
10
4.795
20
7.592
11
4.795
21
7.592
0
0
LINE
8
0
10
4.795
20
7.592
11
4.931
21
7.592
0
0
LINE
8
0
10
4.931
20
7.592
11
5.659
21
7.592
0
0
LINE
8
0
10
6.595
20
7.592
11
6.595
21
7.592
0
0
LINE
8
0
10
6.595
20
7.592
11
6.731
21
7.592
0
0
LINE
8
0
10
6.731
20
7.592
11
7.458
21
7.592
0
0
LINE
8
0
10
8.395
20
7.592
11
8.395
21
7.592
0
0
LINE
8
0
10
8.395
20
7.592
11
8.530
21
7.592
0
0
LINE
8
0
10
8.530
20
7.592
11
9.258
21
7.592
0
0
LINE
8
0
10
10.194
20
7.592
11
10.195
21
7.592
0
0
LINE
8
0
10
10.195
20
7.592
11
10.331
21
7.592
0
0
LINE
8
0
10
10.331
20
7.592
11
11.059
21
7.592
0
0
LINE
8
0
10
11.995
20
7.592
11
11.995
21
7.592
0
0
LINE
8
0
10
11.995
20
7.592
11
12.130
21
7.592
0
0
LINE
8
0
10
12.130
20
7.592
11
12.858
21
7.592
0
0
LINE
8
0
10
13.794
20
7.592
11
13.795
21
7.592
0
0
LINE
8
0
10
13.795
20
7.592
11
13.899
21
7.592
0
0
LINE
8
0
10
1.194
20
8.092
11
1.329
21
8.092
0
0
LINE
8
0
10
1.194
20
8.092
11
1.329
21
8.092
0
0
LINE
8
0
10
1.329
20
8.092
11
2.058
21
8.092
0
0
LINE
8
0
10
2.994
20
8.092
11
3.722
21
8.092
0
0
LINE
8
0
10
3.722
20
8.092
11
3.857
21
8.092
0
0
LINE
8
0
10
4.793
20
8.092
11
4.929
21
8.092
0
0
LINE
8
0
10
4.929
20
8.092
11
5.657
21
8.092
0
0
LINE
8
0
10
6.593
20
8.092
11
6.729
21
8.092
0
0
LINE
8
0
10
6.729
20
8.092
11
7.457
21
8.092
0
0
LINE
8
0
10
8.393
20
8.092
11
8.529
21
8.092
0
0
LINE
8
0
10
8.529
20
8.092
11
9.258
21
8.092
0
0
LINE
8
0
10
10.194
20
8.092
11
10.329
21
8.092
0
0
LINE
8
0
10
10.329
20
8.092
11
11.057
21
8.092
0
0
LINE
8
0
10
11.993
20
8.092
11
12.129
21
8.092
0
0
LINE
8
0
10
12.129
20
8.092
11
12.857
21
8.092
0
0
LINE
8
0
10
13.793
20
8.092
11
13.794
21
8.092
0
0
LINE
8
0
10
13.794
20
8.092
11
13.898
21
8.092
0
0
LINE
8
0
10
1.179
20
8.592
11
1.313
21
8.592
0
0
LINE
8
0
10
1.179
20
8.592
11
1.313
21
8.592
0
0
LINE
8
0
10
1.313
20
8.592
11
2.042
21
8.592
0
0
LINE
8
0
10
2.978
20
8.592
11
3.114
21
8.592
0
0
LINE
8
0
10
3.114
20
8.592
11
3.841
21
8.592
0
0
LINE
8
0
10
4.779
20
8.592
11
4.913
21
8.592
0
0
LINE
8
0
10
4.913
20
8.592
11
5.641
21
8.592
0
0
LINE
8
0
10
6.579
20
8.592
11
6.713
21
8.592
0
0
LINE
8
0
10
6.713
20
8.592
11
7.441
21
8.592
0
0
LINE
8
0
10
8.379
20
8.592
11
8.514
21
8.592
0
0
LINE
8
0
10
8.514
20
8.592
11
9.242
21
8.592
0
0
LINE
8
0
10
10.178
20
8.592
11
10.313
21
8.592
0
0
LINE
8
0
10
10.313
20
8.592
11
11.041
21
8.592
0
0
LINE
8
0
10
11.979
20
8.592
11
12.114
21
8.592
0
0
LINE
8
0
10
12.114
20
8.592
11
12.841
21
8.592
0
0
LINE
8
0
10
13.778
20
8.592
11
13.883
21
8.592
0
0
LINE
8
0
10
1.163
20
9.092
11
1.298
21
9.092
0
0
LINE
8
0
10
1.163
20
9.092
11
1.298
21
9.092
0
0
LINE
8
0
10
1.298
20
9.092
11
2.026
21
9.092
0
0
LINE
8
0
10
2.963
20
9.092
11
3.692
21
9.092
0
0
LINE
8
0
10
3.692
20
9.092
11
3.826
21
9.092
0
0
LINE
8
0
10
4.763
20
9.092
11
5.492
21
9.092
0
0
LINE
8
0
10
5.492
20
9.092
11
5.627
21
9.092
0
0
LINE
8
0
10
6.564
20
9.092
11
7.292
21
9.092
0
0
LINE
8
0
10
7.292
20
9.092
11
7.426
21
9.092
0
0
LINE
8
0
10
8.364
20
9.092
11
8.498
21
9.092
0
0
LINE
8
0
10
8.498
20
9.092
11
9.226
21
9.092
0
0
LINE
8
0
10
10.164
20
9.092
11
10.299
21
9.092
0
0
LINE
8
0
10
10.299
20
9.092
11
11.027
21
9.092
0
0
LINE
8
0
10
11.963
20
9.092
11
12.098
21
9.092
0
0
LINE
8
0
10
12.098
20
9.092
11
12.826
21
9.092
0
0
LINE
8
0
10
13.764
20
9.092
11
13.870
21
9.092
0
0
LINE
8
0
10
1.147
20
9.592
11
1.876
21
9.592
0
0
LINE
8
0
10
1.147
20
9.592
11
1.876
21
9.592
0
0
LINE
8
0
10
1.876
20
9.592
11
2.011
21
9.592
0
0
LINE
8
0
10
2.947
20
9.592
11
3.083
21
9.592
0
0
LINE
8
0
10
3.083
20
9.592
11
3.812
21
9.592
0
0
LINE
8
0
10
4.747
20
9.592
11
4.883
21
9.592
0
0
LINE
8
0
10
4.883
20
9.592
11
5.612
21
9.592
0
0
LINE
8
0
10
6.548
20
9.592
11
7.276
21
9.592
0
0
LINE
8
0
10
7.276
20
9.592
11
7.412
21
9.592
0
0
LINE
8
0
10
8.348
20
9.592
11
8.483
21
9.592
0
0
LINE
8
0
10
8.483
20
9.592
11
9.211
21
9.592
0
0
LINE
8
0
10
10.148
20
9.592
11
10.283
21
9.592
0
0
LINE
8
0
10
10.283
20
9.592
11
11.011
21
9.592
0
0
LINE
8
0
10
11.947
20
9.592
11
12.083
21
9.592
0
0
LINE
8
0
10
12.083
20
9.592
11
12.812
21
9.592
0
0
LINE
8
0
10
13.748
20
9.592
11
13.748
21
9.592
0
0
LINE
8
0
10
13.748
20
9.592
11
13.856
21
9.592
0
0
LINE
8
0
10
1.133
20
10.092
11
1.861
21
10.092
0
0
LINE
8
0
10
1.133
20
10.092
11
1.861
21
10.092
0
0
LINE
8
0
10
1.861
20
10.092
11
1.996
21
10.092
0
0
LINE
8
0
10
2.933
20
10.092
11
3.067
21
10.092
0
0
LINE
8
0
10
3.067
20
10.092
11
3.796
21
10.092
0
0
LINE
8
0
10
4.732
20
10.092
11
4.867
21
10.092
0
0
LINE
8
0
10
4.867
20
10.092
11
5.596
21
10.092
0
0
LINE
8
0
10
6.532
20
10.092
11
7.261
21
10.092
0
0
LINE
8
0
10
7.261
20
10.092
11
7.396
21
10.092
0
0
LINE
8
0
10
8.332
20
10.092
11
8.467
21
10.092
0
0
LINE
8
0
10
8.467
20
10.092
11
9.195
21
10.092
0
0
LINE
8
0
10
10.133
20
10.092
11
10.268
21
10.092
0
0
LINE
8
0
10
10.268
20
10.092
11
10.995
21
10.092
0
0
LINE
8
0
10
11.932
20
10.092
11
12.068
21
10.092
0
0
LINE
8
0
10
12.068
20
10.092
11
12.796
21
10.092
0
0
LINE
8
0
10
13.732
20
10.092
11
13.842
21
10.092
0
0
LINE
8
0
10
1.117
20
10.592
11
1.252
21
10.592
0
0
LINE
8
0
10
1.117
20
10.592
11
1.252
21
10.592
0
0
LINE
8
0
10
1.252
20
10.592
11
1.980
21
10.592
0
0
LINE
8
0
10
2.917
20
10.592
11
3.646
21
10.592
0
0
LINE
8
0
10
3.646
20
10.592
11
3.780
21
10.592
0
0
LINE
8
0
10
4.718
20
10.592
11
4.853
21
10.592
0
0
LINE
8
0
10
4.853
20
10.592
11
5.580
21
10.592
0
0
LINE
8
0
10
6.518
20
10.592
11
6.652
21
10.592
0
0
LINE
8
0
10
6.652
20
10.592
11
7.380
21
10.592
0
0
LINE
8
0
10
8.318
20
10.592
11
8.453
21
10.592
0
0
LINE
8
0
10
8.453
20
10.592
11
9.181
21
10.592
0
0
LINE
8
0
10
10.117
20
10.592
11
10.252
21
10.592
0
0
LINE
8
0
10
10.252
20
10.592
11
10.980
21
10.592
0
0
LINE
8
0
10
11.918
20
10.592
11
12.053
21
10.592
0
0
LINE
8
0
10
12.053
20
10.592
11
12.780
21
10.592
0
0
LINE
8
0
10
13.717
20
10.592
11
13.828
21
10.592
0
0
LINE
8
0
10
1.103
20
11.092
11
1.831
21
11.092
0
0
LINE
8
0
10
1.103
20
11.092
11
1.831
21
11.092
0
0
LINE
8
0
10
1.831
20
11.092
11
1.966
21
11.092
0
0
LINE
8
0
10
2.902
20
11.092
11
3.631
21
11.092
0
0
LINE
8
0
10
3.631
20
11.092
11
3.765
21
11.092
0
0
LINE
8
0
10
4.702
20
11.092
11
5.431
21
11.092
0
0
LINE
8
0
10
5.431
20
11.092
11
5.566
21
11.092
0
0
LINE
8
0
10
6.503
20
11.092
11
7.231
21
11.092
0
0
LINE
8
0
10
7.231
20
11.092
11
7.365
21
11.092
0
0
LINE
8
0
10
8.303
20
11.092
11
8.438
21
11.092
0
0
LINE
8
0
10
8.438
20
11.092
11
9.165
21
11.092
0
0
LINE
8
0
10
10.102
20
11.092
11
10.238
21
11.092
0
0
LINE
8
0
10
10.238
20
11.092
11
10.966
21
11.092
0
0
LINE
8
0
10
11.902
20
11.092
11
12.037
21
11.092
0
0
LINE
8
0
10
12.037
20
11.092
11
12.765
21
11.092
0
0
LINE
8
0
10
13.703
20
11.092
11
13.814
21
11.092
0
0
LINE
8
0
10
1.087
20
11.592
11
1.222
21
11.592
0
0
LINE
8
0
10
1.087
20
11.592
11
1.222
21
11.592
0
0
LINE
8
0
10
1.222
20
11.592
11
1.950
21
11.592
0
0
LINE
8
0
10
2.886
20
11.592
11
3.615
21
11.592
0
0
LINE
8
0
10
3.615
20
11.592
11
3.749
21
11.592
0
0
LINE
8
0
10
4.686
20
11.592
11
5.415
21
11.592
0
0
LINE
8
0
10
5.415
20
11.592
11
5.550
21
11.592
0
0
LINE
8
0
10
6.487
20
11.592
11
7.215
21
11.592
0
0
LINE
8
0
10
7.215
20
11.592
11
7.349
21
11.592
0
0
LINE
8
0
10
8.287
20
11.592
11
8.421
21
11.592
0
0
LINE
8
0
10
8.421
20
11.592
11
9.149
21
11.592
0
0
LINE
8
0
10
10.086
20
11.592
11
10.222
21
11.592
0
0
LINE
8
0
10
10.222
20
11.592
11
10.950
21
11.592
0
0
LINE
8
0
10
11.886
20
11.592
11
12.021
21
11.592
0
0
LINE
8
0
10
12.021
20
11.592
11
12.749
21
11.592
0
0
LINE
8
0
10
13.687
20
11.592
11
13.800
21
11.592
0
0
LINE
8
0
10
1.071
20
12.092
11
1.800
21
12.092
0
0
LINE
8
0
10
1.071
20
12.092
11
1.800
21
12.092
0
0
LINE
8
0
10
1.800
20
12.092
11
1.935
21
12.092
0
0
LINE
8
0
10
2.872
20
12.092
11
3.006
21
12.092
0
0
LINE
8
0
10
3.006
20
12.092
11
3.735
21
12.092
0
0
LINE
8
0
10
4.671
20
12.092
11
4.806
21
12.092
0
0
LINE
8
0
10
4.806
20
12.092
11
5.535
21
12.092
0
0
LINE
8
0
10
6.471
20
12.092
11
7.199
21
12.092
0
0
LINE
8
0
10
7.199
20
12.092
11
7.335
21
12.092
0
0
LINE
8
0
10
8.271
20
12.092
11
8.406
21
12.092
0
0
LINE
8
0
10
8.406
20
12.092
11
9.134
21
12.092
0
0
LINE
8
0
10
10.072
20
12.092
11
10.207
21
12.092
0
0
LINE
8
0
10
10.207
20
12.092
11
10.934
21
12.092
0
0
LINE
8
0
10
11.871
20
12.092
11
12.600
21
12.092
0
0
LINE
8
0
10
12.600
20
12.092
11
12.735
21
12.092
0
0
LINE
8
0
10
13.671
20
12.092
11
13.786
21
12.092
0
0
LINE
8
0
10
1.056
20
12.592
11
1.192
21
12.592
0
0
LINE
8
0
10
1.056
20
12.592
11
1.192
21
12.592
0
0
LINE
8
0
10
1.192
20
12.592
11
1.919
21
12.592
0
0
LINE
8
0
10
2.857
20
12.592
11
3.584
21
12.592
0
0
LINE
8
0
10
3.584
20
12.592
11
3.720
21
12.592
0
0
LINE
8
0
10
4.657
20
12.592
11
4.792
21
12.592
0
0
LINE
8
0
10
4.792
20
12.592
11
5.519
21
12.592
0
0
LINE
8
0
10
6.457
20
12.592
11
6.591
21
12.592
0
0
LINE
8
0
10
6.591
20
12.592
11
7.319
21
12.592
0
0
LINE
8
0
10
8.257
20
12.592
11
8.392
21
12.592
0
0
LINE
8
0
10
8.392
20
12.592
11
9.120
21
12.592
0
0
LINE
8
0
10
10.056
20
12.592
11
10.191
21
12.592
0
0
LINE
8
0
10
10.191
20
12.592
11
10.919
21
12.592
0
0
LINE
8
0
10
11.857
20
12.592
11
11.992
21
12.592
0
0
LINE
8
0
10
11.992
20
12.592
11
12.720
21
12.592
0
0
LINE
8
0
10
13.656
20
12.592
11
13.772
21
12.592
0
0
LINE
8
0
10
1.069
20
13.092
11
1.204
21
13.092
0
0
LINE
8
0
10
1.069
20
13.092
11
1.204
21
13.092
0
0
LINE
8
0
10
1.204
20
13.092
11
1.933
21
13.092
0
0
LINE
8
0
10
2.869
20
13.092
11
3.005
21
13.092
0
0
LINE
8
0
10
3.005
20
13.092
11
3.732
21
13.092
0
0
LINE
8
0
10
4.670
20
13.092
11
4.804
21
13.092
0
0
LINE
8
0
10
4.804
20
13.092
11
5.532
21
13.092
0
0
LINE
8
0
10
6.470
20
13.092
11
6.604
21
13.092
0
0
LINE
8
0
10
6.604
20
13.092
11
7.332
21
13.092
0
0
LINE
8
0
10
8.270
20
13.092
11
8.405
21
13.092
0
0
LINE
8
0
10
8.405
20
13.092
11
9.133
21
13.092
0
0
LINE
8
0
10
10.069
20
13.092
11
10.204
21
13.092
0
0
LINE
8
0
10
10.204
20
13.092
11
10.932
21
13.092
0
0
LINE
8
0
10
11.870
20
13.092
11
12.005
21
13.092
0
0
LINE
8
0
10
12.005
20
13.092
11
12.732
21
13.092
0
0
LINE
8
0
10
13.669
20
13.092
11
13.784
21
13.092
0
0
LINE
8
0
10
1.129
20
13.592
11
1.264
21
13.592
0
0
LINE
8
0
10
1.129
20
13.592
11
1.264
21
13.592
0
0
LINE
8
0
10
1.264
20
13.592
11
1.992
21
13.592
0
0
LINE
8
0
10
2.929
20
13.592
11
3.064
21
13.592
0
0
LINE
8
0
10
3.064
20
13.592
11
3.792
21
13.592
0
0
LINE
8
0
10
4.729
20
13.592
11
5.457
21
13.592
0
0
LINE
8
0
10
5.457
20
13.592
11
5.593
21
13.592
0
0
LINE
8
0
10
6.529
20
13.592
11
7.258
21
13.592
0
0
LINE
8
0
10
7.258
20
13.592
11
7.393
21
13.592
0
0
LINE
8
0
10
8.329
20
13.592
11
9.057
21
13.592
0
0
LINE
8
0
10
9.057
20
13.592
11
9.193
21
13.592
0
0
LINE
8
0
10
10.130
20
13.592
11
10.264
21
13.592
0
0
LINE
8
0
10
10.264
20
13.592
11
10.992
21
13.592
0
0
LINE
8
0
10
11.930
20
13.592
11
12.065
21
13.592
0
0
LINE
8
0
10
12.065
20
13.592
11
12.793
21
13.592
0
0
LINE
8
0
10
13.729
20
13.592
11
13.839
21
13.592
0
0
LINE
8
0
10
1.272
20
14.092
11
2.001
21
14.092
0
0
LINE
8
0
10
1.272
20
14.092
11
2.001
21
14.092
0
0
LINE
8
0
10
2.001
20
14.092
11
2.135
21
14.092
0
0
LINE
8
0
10
3.072
20
14.092
11
3.800
21
14.092
0
0
LINE
8
0
10
3.800
20
14.092
11
3.936
21
14.092
0
0
LINE
8
0
10
4.872
20
14.092
11
5.601
21
14.092
0
0
LINE
8
0
10
5.601
20
14.092
11
5.736
21
14.092
0
0
LINE
8
0
10
6.673
20
14.092
11
7.401
21
14.092
0
0
LINE
8
0
10
7.401
20
14.092
11
7.535
21
14.092
0
0
LINE
8
0
10
8.473
20
14.092
11
8.607
21
14.092
0
0
LINE
8
0
10
8.607
20
14.092
11
9.335
21
14.092
0
0
LINE
8
0
10
10.273
20
14.092
11
10.408
21
14.092
0
0
LINE
8
0
10
10.408
20
14.092
11
11.136
21
14.092
0
0
LINE
8
0
10
12.072
20
14.092
11
12.207
21
14.092
0
0
LINE
8
0
10
12.207
20
14.092
11
12.935
21
14.092
0
0
LINE
8
0
10
13.873
20
14.092
11
13.969
21
14.092
0
0
LINE
8
0
10
1.839
20
14.592
11
1.974
21
14.592
0
0
LINE
8
0
10
1.839
20
14.592
11
1.974
21
14.592
0
0
LINE
8
0
10
1.974
20
14.592
11
2.703
21
14.592
0
0
LINE
8
0
10
3.639
20
14.592
11
3.775
21
14.592
0
0
LINE
8
0
10
3.775
20
14.592
11
4.503
21
14.592
0
0
LINE
8
0
10
5.439
20
14.592
11
5.516
21
14.592
0
0
LINE
8
0
10
6.588
20
14.592
11
6.723
21
14.592
0
0
LINE
8
0
10
6.723
20
14.592
11
7.450
21
14.592
0
0
LINE
8
0
10
8.387
20
14.592
11
9.116
21
14.592
0
0
LINE
8
0
10
9.116
20
14.592
11
9.251
21
14.592
0
0
LINE
8
0
10
10.188
20
14.592
11
10.322
21
14.592
0
0
LINE
8
0
10
10.322
20
14.592
11
11.050
21
14.592
0
0
LINE
8
0
10
11.988
20
14.592
11
12.123
21
14.592
0
0
LINE
8
0
10
12.123
20
14.592
11
12.851
21
14.592
0
0
LINE
8
0
10
13.787
20
14.592
11
13.892
21
14.592
0
0
ENDSEC
0
EOF
