0
SECTION
2
ENTITIES
0
LINE
8
0
10
14.941
20
0.059
11
0.059
21
0.059
0
0
LINE
8
0
10
0.059
20
0.059
11
0.059
21
14.941
0
0
LINE
8
0
10
0.059
20
14.941
11
14.941
21
14.941
0
0
LINE
8
0
10
14.941
20
14.941
11
14.941
21
0.059
0
0
LINE
8
0
10
14.941
20
0.059
11
14.941
21
0.059
0
0
LINE
8
0
10
14.861
20
0.139
11
0.139
21
0.139
0
0
LINE
8
0
10
0.139
20
0.139
11
0.139
21
14.861
0
0
LINE
8
0
10
0.139
20
14.861
11
14.861
21
14.861
0
0
LINE
8
0
10
14.861
20
14.861
11
14.861
21
0.139
0
0
LINE
8
0
10
14.861
20
0.139
11
14.861
21
0.139
0
0
LINE
8
0
10
14.781
20
0.219
11
0.219
21
0.219
0
0
LINE
8
0
10
0.219
20
0.219
11
0.219
21
14.781
0
0
LINE
8
0
10
0.219
20
14.781
11
14.781
21
14.781
0
0
LINE
8
0
10
14.781
20
14.781
11
14.781
21
0.219
0
0
LINE
8
0
10
14.781
20
0.219
11
14.781
21
0.219
0
0
LINE
8
0
10
0.299
20
14.621
11
0.390
21
14.701
0
0
LINE
8
0
10
0.511
20
14.701
11
0.299
21
14.514
0
0
LINE
8
0
10
0.299
20
14.408
11
0.632
21
14.701
0
0
LINE
8
0
10
0.752
20
14.701
11
0.299
21
14.301
0
0
LINE
8
0
10
0.299
20
14.195
11
0.873
21
14.701
0
0
LINE
8
0
10
0.994
20
14.701
11
0.299
21
14.088
0
0
LINE
8
0
10
0.299
20
13.981
11
1.115
21
14.701
0
0
LINE
8
0
10
1.236
20
14.701
11
0.299
21
13.875
0
0
LINE
8
0
10
0.299
20
13.768
11
1.357
21
14.701
0
0
LINE
8
0
10
1.478
20
14.701
11
0.299
21
13.661
0
0
LINE
8
0
10
0.299
20
13.555
11
1.599
21
14.701
0
0
LINE
8
0
10
1.720
20
14.701
11
0.299
21
13.448
0
0
LINE
8
0
10
0.299
20
13.341
11
1.841
21
14.701
0
0
LINE
8
0
10
1.962
20
14.701
11
0.299
21
13.235
0
0
LINE
8
0
10
0.299
20
13.128
11
2.083
21
14.701
0
0
LINE
8
0
10
2.204
20
14.701
11
0.299
21
13.021
0
0
LINE
8
0
10
0.299
20
12.915
11
2.325
21
14.701
0
0
LINE
8
0
10
2.446
20
14.701
11
0.299
21
12.808
0
0
LINE
8
0
10
0.299
20
12.701
11
2.567
21
14.701
0
0
LINE
8
0
10
2.688
20
14.701
11
0.299
21
12.595
0
0
LINE
8
0
10
0.299
20
12.488
11
2.809
21
14.701
0
0
LINE
8
0
10
2.930
20
14.701
11
0.299
21
12.381
0
0
LINE
8
0
10
0.299
20
12.275
11
3.051
21
14.701
0
0
LINE
8
0
10
3.172
20
14.701
11
0.299
21
12.168
0
0
LINE
8
0
10
0.299
20
12.062
11
3.293
21
14.701
0
0
LINE
8
0
10
3.414
20
14.701
11
0.299
21
11.955
0
0
LINE
8
0
10
0.299
20
11.848
11
3.535
21
14.701
0
0
LINE
8
0
10
3.656
20
14.701
11
0.299
21
11.742
0
0
LINE
8
0
10
0.299
20
11.635
11
3.777
21
14.701
0
0
LINE
8
0
10
3.898
20
14.701
11
0.299
21
11.528
0
0
LINE
8
0
10
0.299
20
11.422
11
4.019
21
14.701
0
0
LINE
8
0
10
4.140
20
14.701
11
0.299
21
11.315
0
0
LINE
8
0
10
0.299
20
11.208
11
4.261
21
14.701
0
0
LINE
8
0
10
4.382
20
14.701
11
0.299
21
11.102
0
0
LINE
8
0
10
0.299
20
10.995
11
4.503
21
14.701
0
0
LINE
8
0
10
4.624
20
14.701
11
0.299
21
10.888
0
0
LINE
8
0
10
0.299
20
10.782
11
4.745
21
14.701
0
0
LINE
8
0
10
4.866
20
14.701
11
0.299
21
10.675
0
0
LINE
8
0
10
0.299
20
10.568
11
4.987
21
14.701
0
0
LINE
8
0
10
5.107
20
14.701
11
0.299
21
10.462
0
0
LINE
8
0
10
0.299
20
10.355
11
5.228
21
14.701
0
0
LINE
8
0
10
5.349
20
14.701
11
0.299
21
10.248
0
0
LINE
8
0
10
0.299
20
10.142
11
5.470
21
14.701
0
0
LINE
8
0
10
5.591
20
14.701
11
0.299
21
10.035
0
0
LINE
8
0
10
0.299
20
9.928
11
5.712
21
14.701
0
0
LINE
8
0
10
5.833
20
14.701
11
0.299
21
9.822
0
0
LINE
8
0
10
0.299
20
9.715
11
5.954
21
14.701
0
0
LINE
8
0
10
6.075
20
14.701
11
0.299
21
9.609
0
0
LINE
8
0
10
0.299
20
9.502
11
6.196
21
14.701
0
0
LINE
8
0
10
6.317
20
14.701
11
0.299
21
9.395
0
0
LINE
8
0
10
0.299
20
9.289
11
6.438
21
14.701
0
0
LINE
8
0
10
6.559
20
14.701
11
0.299
21
9.182
0
0
LINE
8
0
10
0.299
20
9.075
11
6.680
21
14.701
0
0
LINE
8
0
10
6.801
20
14.701
11
0.299
21
8.969
0
0
LINE
8
0
10
0.299
20
8.862
11
6.922
21
14.701
0
0
LINE
8
0
10
7.043
20
14.701
11
0.299
21
8.755
0
0
LINE
8
0
10
0.299
20
8.649
11
7.164
21
14.701
0
0
LINE
8
0
10
7.285
20
14.701
11
0.299
21
8.542
0
0
LINE
8
0
10
0.299
20
8.435
11
7.406
21
14.701
0
0
LINE
8
0
10
7.527
20
14.701
11
0.299
21
8.329
0
0
LINE
8
0
10
0.299
20
8.222
11
7.648
21
14.701
0
0
LINE
8
0
10
7.769
20
14.701
11
0.299
21
8.115
0
0
LINE
8
0
10
0.299
20
8.009
11
7.890
21
14.701
0
0
LINE
8
0
10
8.011
20
14.701
11
0.299
21
7.902
0
0
LINE
8
0
10
0.299
20
7.795
11
8.132
21
14.701
0
0
LINE
8
0
10
8.253
20
14.701
11
0.299
21
7.689
0
0
LINE
8
0
10
0.299
20
7.582
11
8.374
21
14.701
0
0
LINE
8
0
10
8.495
20
14.701
11
0.299
21
7.476
0
0
LINE
8
0
10
0.299
20
7.369
11
8.616
21
14.701
0
0
LINE
8
0
10
8.737
20
14.701
11
0.299
21
7.262
0
0
LINE
8
0
10
0.299
20
7.156
11
8.858
21
14.701
0
0
LINE
8
0
10
8.979
20
14.701
11
0.299
21
7.049
0
0
LINE
8
0
10
0.299
20
6.942
11
9.100
21
14.701
0
0
LINE
8
0
10
9.220
20
14.701
11
0.299
21
6.836
0
0
LINE
8
0
10
0.299
20
6.729
11
9.341
21
14.701
0
0
LINE
8
0
10
9.462
20
14.701
11
0.299
21
6.622
0
0
LINE
8
0
10
0.299
20
6.516
11
9.583
21
14.701
0
0
LINE
8
0
10
9.704
20
14.701
11
0.299
21
6.409
0
0
LINE
8
0
10
0.299
20
6.302
11
9.825
21
14.701
0
0
LINE
8
0
10
9.946
20
14.701
11
0.299
21
6.196
0
0
LINE
8
0
10
0.299
20
6.089
11
10.067
21
14.701
0
0
LINE
8
0
10
10.188
20
14.701
11
0.299
21
5.982
0
0
LINE
8
0
10
0.299
20
5.876
11
10.309
21
14.701
0
0
LINE
8
0
10
10.430
20
14.701
11
0.299
21
5.769
0
0
LINE
8
0
10
0.299
20
5.662
11
10.551
21
14.701
0
0
LINE
8
0
10
10.672
20
14.701
11
0.299
21
5.556
0
0
LINE
8
0
10
0.299
20
5.449
11
10.793
21
14.701
0
0
LINE
8
0
10
10.914
20
14.701
11
0.299
21
5.343
0
0
LINE
8
0
10
0.299
20
5.236
11
11.035
21
14.701
0
0
LINE
8
0
10
11.156
20
14.701
11
0.299
21
5.129
0
0
LINE
8
0
10
0.299
20
5.023
11
11.277
21
14.701
0
0
LINE
8
0
10
11.398
20
14.701
11
0.299
21
4.916
0
0
LINE
8
0
10
0.299
20
4.809
11
11.519
21
14.701
0
0
LINE
8
0
10
11.640
20
14.701
11
0.299
21
4.703
0
0
LINE
8
0
10
0.299
20
4.596
11
11.761
21
14.701
0
0
LINE
8
0
10
11.882
20
14.701
11
0.299
21
4.489
0
0
LINE
8
0
10
0.299
20
4.383
11
12.003
21
14.701
0
0
LINE
8
0
10
12.124
20
14.701
11
0.299
21
4.276
0
0
LINE
8
0
10
0.299
20
4.169
11
12.245
21
14.701
0
0
LINE
8
0
10
12.366
20
14.701
11
0.299
21
4.063
0
0
LINE
8
0
10
0.299
20
3.956
11
12.487
21
14.701
0
0
LINE
8
0
10
12.608
20
14.701
11
0.299
21
3.849
0
0
LINE
8
0
10
0.299
20
3.743
11
12.729
21
14.701
0
0
LINE
8
0
10
12.850
20
14.701
11
0.299
21
3.636
0
0
LINE
8
0
10
0.299
20
3.529
11
12.971
21
14.701
0
0
LINE
8
0
10
13.092
20
14.701
11
0.299
21
3.423
0
0
LINE
8
0
10
0.299
20
3.316
11
13.213
21
14.701
0
0
LINE
8
0
10
13.334
20
14.701
11
0.299
21
3.209
0
0
LINE
8
0
10
0.299
20
3.103
11
13.455
21
14.701
0
0
LINE
8
0
10
13.575
20
14.701
11
0.299
21
2.996
0
0
LINE
8
0
10
0.299
20
2.890
11
13.696
21
14.701
0
0
LINE
8
0
10
13.817
20
14.701
11
0.299
21
2.783
0
0
LINE
8
0
10
0.299
20
2.676
11
13.938
21
14.701
0
0
LINE
8
0
10
14.059
20
14.701
11
0.299
21
2.570
0
0
LINE
8
0
10
0.299
20
2.463
11
14.180
21
14.701
0
0
LINE
8
0
10
14.301
20
14.701
11
0.299
21
2.356
0
0
LINE
8
0
10
0.299
20
2.250
11
14.422
21
14.701
0
0
LINE
8
0
10
14.543
20
14.701
11
0.299
21
2.143
0
0
LINE
8
0
10
0.299
20
2.036
11
14.664
21
14.701
0
0
LINE
8
0
10
14.701
20
14.627
11
0.299
21
1.930
0
0
LINE
8
0
10
0.299
20
1.823
11
14.701
21
14.520
0
0
LINE
8
0
10
14.701
20
14.413
11
0.299
21
1.716
0
0
LINE
8
0
10
0.299
20
1.610
11
14.701
21
14.307
0
0
LINE
8
0
10
14.701
20
14.200
11
0.299
21
1.503
0
0
LINE
8
0
10
0.299
20
1.396
11
14.701
21
14.094
0
0
LINE
8
0
10
14.701
20
13.987
11
0.299
21
1.290
0
0
LINE
8
0
10
0.299
20
1.183
11
14.701
21
13.880
0
0
LINE
8
0
10
14.701
20
13.774
11
0.299
21
1.076
0
0
LINE
8
0
10
0.299
20
0.970
11
14.701
21
13.667
0
0
LINE
8
0
10
14.701
20
13.560
11
0.299
21
0.863
0
0
LINE
8
0
10
0.299
20
0.757
11
14.701
21
13.454
0
0
LINE
8
0
10
14.701
20
13.347
11
0.299
21
0.650
0
0
LINE
8
0
10
0.299
20
0.543
11
14.701
21
13.240
0
0
LINE
8
0
10
14.701
20
13.134
11
0.299
21
0.437
0
0
LINE
8
0
10
0.299
20
0.330
11
14.701
21
13.027
0
0
LINE
8
0
10
14.701
20
12.920
11
0.385
21
0.299
0
0
LINE
8
0
10
0.506
20
0.299
11
14.701
21
12.814
0
0
LINE
8
0
10
14.701
20
12.707
11
0.627
21
0.299
0
0
LINE
8
0
10
0.748
20
0.299
11
14.701
21
12.600
0
0
LINE
8
0
10
14.701
20
12.494
11
0.869
21
0.299
0
0
LINE
8
0
10
0.990
20
0.299
11
14.701
21
12.387
0
0
LINE
8
0
10
14.701
20
12.280
11
1.111
21
0.299
0
0
LINE
8
0
10
1.232
20
0.299
11
14.701
21
12.174
0
0
LINE
8
0
10
14.701
20
12.067
11
1.353
21
0.299
0
0
LINE
8
0
10
1.474
20
0.299
11
14.701
21
11.960
0
0
LINE
8
0
10
14.701
20
11.854
11
1.595
21
0.299
0
0
LINE
8
0
10
1.716
20
0.299
11
14.701
21
11.747
0
0
LINE
8
0
10
14.701
20
11.641
11
1.837
21
0.299
0
0
LINE
8
0
10
1.958
20
0.299
11
14.701
21
11.534
0
0
LINE
8
0
10
14.701
20
11.427
11
2.078
21
0.299
0
0
LINE
8
0
10
2.199
20
0.299
11
14.701
21
11.321
0
0
LINE
8
0
10
14.701
20
11.214
11
2.320
21
0.299
0
0
LINE
8
0
10
2.441
20
0.299
11
14.701
21
11.107
0
0
LINE
8
0
10
14.701
20
11.001
11
2.562
21
0.299
0
0
LINE
8
0
10
2.683
20
0.299
11
14.701
21
10.894
0
0
LINE
8
0
10
14.701
20
10.787
11
2.804
21
0.299
0
0
LINE
8
0
10
2.925
20
0.299
11
14.701
21
10.681
0
0
LINE
8
0
10
14.701
20
10.574
11
3.046
21
0.299
0
0
LINE
8
0
10
3.167
20
0.299
11
14.701
21
10.467
0
0
LINE
8
0
10
14.701
20
10.361
11
3.288
21
0.299
0
0
LINE
8
0
10
3.409
20
0.299
11
14.701
21
10.254
0
0
LINE
8
0
10
14.701
20
10.147
11
3.530
21
0.299
0
0
LINE
8
0
10
3.651
20
0.299
11
14.701
21
10.041
0
0
LINE
8
0
10
14.701
20
9.934
11
3.772
21
0.299
0
0
LINE
8
0
10
3.893
20
0.299
11
14.701
21
9.827
0
0
LINE
8
0
10
14.701
20
9.721
11
4.014
21
0.299
0
0
LINE
8
0
10
4.135
20
0.299
11
14.701
21
9.614
0
0
LINE
8
0
10
14.701
20
9.508
11
4.256
21
0.299
0
0
LINE
8
0
10
4.377
20
0.299
11
14.701
21
9.401
0
0
LINE
8
0
10
14.701
20
9.294
11
4.498
21
0.299
0
0
LINE
8
0
10
4.619
20
0.299
11
14.701
21
9.188
0
0
LINE
8
0
10
14.701
20
9.081
11
4.740
21
0.299
0
0
LINE
8
0
10
4.861
20
0.299
11
14.701
21
8.974
0
0
LINE
8
0
10
14.701
20
8.868
11
4.982
21
0.299
0
0
LINE
8
0
10
5.103
20
0.299
11
14.701
21
8.761
0
0
LINE
8
0
10
14.701
20
8.654
11
5.224
21
0.299
0
0
LINE
8
0
10
5.345
20
0.299
11
14.701
21
8.548
0
0
LINE
8
0
10
14.701
20
8.441
11
5.466
21
0.299
0
0
LINE
8
0
10
5.587
20
0.299
11
14.701
21
8.334
0
0
LINE
8
0
10
14.701
20
8.228
11
5.708
21
0.299
0
0
LINE
8
0
10
5.829
20
0.299
11
14.701
21
8.121
0
0
LINE
8
0
10
14.701
20
8.014
11
5.950
21
0.299
0
0
LINE
8
0
10
6.071
20
0.299
11
14.701
21
7.908
0
0
LINE
8
0
10
14.701
20
7.801
11
6.192
21
0.299
0
0
LINE
8
0
10
6.312
20
0.299
11
14.701
21
7.694
0
0
LINE
8
0
10
14.701
20
7.588
11
6.433
21
0.299
0
0
LINE
8
0
10
6.554
20
0.299
11
14.701
21
7.481
0
0
LINE
8
0
10
14.701
20
7.375
11
6.675
21
0.299
0
0
LINE
8
0
10
6.796
20
0.299
11
14.701
21
7.268
0
0
LINE
8
0
10
14.701
20
7.161
11
6.917
21
0.299
0
0
LINE
8
0
10
7.038
20
0.299
11
14.701
21
7.055
0
0
LINE
8
0
10
14.701
20
6.948
11
7.159
21
0.299
0
0
LINE
8
0
10
7.280
20
0.299
11
14.701
21
6.841
0
0
LINE
8
0
10
14.701
20
6.735
11
7.401
21
0.299
0
0
LINE
8
0
10
7.522
20
0.299
11
14.701
21
6.628
0
0
LINE
8
0
10
14.701
20
6.521
11
7.643
21
0.299
0
0
LINE
8
0
10
7.764
20
0.299
11
14.701
21
6.415
0
0
LINE
8
0
10
14.701
20
6.308
11
7.885
21
0.299
0
0
LINE
8
0
10
8.006
20
0.299
11
14.701
21
6.201
0
0
LINE
8
0
10
14.701
20
6.095
11
8.127
21
0.299
0
0
LINE
8
0
10
8.248
20
0.299
11
14.701
21
5.988
0
0
LINE
8
0
10
14.701
20
5.881
11
8.369
21
0.299
0
0
LINE
8
0
10
8.490
20
0.299
11
14.701
21
5.775
0
0
LINE
8
0
10
14.701
20
5.668
11
8.611
21
0.299
0
0
LINE
8
0
10
8.732
20
0.299
11
14.701
21
5.561
0
0
LINE
8
0
10
14.701
20
5.455
11
8.853
21
0.299
0
0
LINE
8
0
10
8.974
20
0.299
11
14.701
21
5.348
0
0
LINE
8
0
10
14.701
20
5.241
11
9.095
21
0.299
0
0
LINE
8
0
10
9.216
20
0.299
11
14.701
21
5.135
0
0
LINE
8
0
10
14.701
20
5.028
11
9.337
21
0.299
0
0
LINE
8
0
10
9.458
20
0.299
11
14.701
21
4.922
0
0
LINE
8
0
10
14.701
20
4.815
11
9.579
21
0.299
0
0
LINE
8
0
10
9.700
20
0.299
11
14.701
21
4.708
0
0
LINE
8
0
10
14.701
20
4.602
11
9.821
21
0.299
0
0
LINE
8
0
10
9.942
20
0.299
11
14.701
21
4.495
0
0
LINE
8
0
10
14.701
20
4.388
11
10.063
21
0.299
0
0
LINE
8
0
10
10.184
20
0.299
11
14.701
21
4.282
0
0
LINE
8
0
10
14.701
20
4.175
11
10.305
21
0.299
0
0
LINE
8
0
10
10.426
20
0.299
11
14.701
21
4.068
0
0
LINE
8
0
10
14.701
20
3.962
11
10.546
21
0.299
0
0
LINE
8
0
10
10.667
20
0.299
11
14.701
21
3.855
0
0
LINE
8
0
10
14.701
20
3.748
11
10.788
21
0.299
0
0
LINE
8
0
10
10.909
20
0.299
11
14.701
21
3.642
0
0
LINE
8
0
10
14.701
20
3.535
11
11.030
21
0.299
0
0
LINE
8
0
10
11.151
20
0.299
11
14.701
21
3.428
0
0
LINE
8
0
10
14.701
20
3.322
11
11.272
21
0.299
0
0
LINE
8
0
10
11.393
20
0.299
11
14.701
21
3.215
0
0
LINE
8
0
10
14.701
20
3.108
11
11.514
21
0.299
0
0
LINE
8
0
10
11.635
20
0.299
11
14.701
21
3.002
0
0
LINE
8
0
10
14.701
20
2.895
11
11.756
21
0.299
0
0
LINE
8
0
10
11.877
20
0.299
11
14.701
21
2.789
0
0
LINE
8
0
10
14.701
20
2.682
11
11.998
21
0.299
0
0
LINE
8
0
10
12.119
20
0.299
11
14.701
21
2.575
0
0
LINE
8
0
10
14.701
20
2.469
11
12.240
21
0.299
0
0
LINE
8
0
10
12.361
20
0.299
11
14.701
21
2.362
0
0
LINE
8
0
10
14.701
20
2.255
11
12.482
21
0.299
0
0
LINE
8
0
10
12.603
20
0.299
11
14.701
21
2.149
0
0
LINE
8
0
10
14.701
20
2.042
11
12.724
21
0.299
0
0
LINE
8
0
10
12.845
20
0.299
11
14.701
21
1.935
0
0
LINE
8
0
10
14.701
20
1.829
11
12.966
21
0.299
0
0
LINE
8
0
10
13.087
20
0.299
11
14.701
21
1.722
0
0
LINE
8
0
10
14.701
20
1.615
11
13.208
21
0.299
0
0
LINE
8
0
10
13.329
20
0.299
11
14.701
21
1.509
0
0
LINE
8
0
10
14.701
20
1.402
11
13.450
21
0.299
0
0
LINE
8
0
10
13.571
20
0.299
11
14.701
21
1.295
0
0
LINE
8
0
10
14.701
20
1.189
11
13.692
21
0.299
0
0
LINE
8
0
10
13.813
20
0.299
11
14.701
21
1.082
0
0
LINE
8
0
10
14.701
20
0.975
11
13.934
21
0.299
0
0
LINE
8
0
10
14.055
20
0.299
11
14.701
21
0.869
0
0
LINE
8
0
10
14.701
20
0.762
11
14.176
21
0.299
0
0
LINE
8
0
10
14.297
20
0.299
11
14.701
21
0.656
0
0
LINE
8
0
10
14.701
20
0.549
11
14.418
21
0.299
0
0
LINE
8
0
10
14.539
20
0.299
11
14.701
21
0.442
0
0
LINE
8
0
10
14.701
20
0.336
11
14.660
21
0.299
0
0
ENDSEC
0
EOF
