0
SECTION
2
ENTITIES
0
LINE
8
0
10
2.460
20
0.433
11
7.138
21
0.581
0
0
LINE
8
0
10
7.138
20
0.581
11
12.869
21
0.448
0
0
LINE
8
0
10
12.869
20
0.448
11
13.951
21
0.600
0
0
LINE
8
0
10
13.951
20
0.600
11
14.297
21
0.786
0
0
LINE
8
0
10
14.297
20
0.786
11
14.641
21
1.407
0
0
LINE
8
0
10
14.641
20
1.407
11
14.747
21
2.384
0
0
LINE
8
0
10
14.747
20
2.384
11
14.626
21
14.569
0
0
LINE
8
0
10
14.626
20
14.569
11
2.397
21
14.748
0
0
LINE
8
0
10
2.397
20
14.748
11
1.229
21
14.596
0
0
LINE
8
0
10
1.229
20
14.596
11
0.799
21
14.314
0
0
LINE
8
0
10
0.799
20
14.314
11
0.509
21
13.582
0
0
LINE
8
0
10
0.509
20
13.582
11
0.435
21
12.677
0
0
LINE
8
0
10
0.435
20
12.677
11
0.580
21
7.712
0
0
LINE
8
0
10
0.580
20
7.712
11
0.469
21
1.990
0
0
LINE
8
0
10
0.469
20
1.990
11
0.588
21
1.266
0
0
LINE
8
0
10
0.588
20
1.266
11
0.992
21
0.707
0
0
LINE
8
0
10
0.992
20
0.707
11
2.460
21
0.433
0
0
LINE
8
0
10
2.460
20
0.433
11
2.460
21
0.433
0
0
LINE
8
0
10
2.460
20
0.433
11
7.138
21
0.581
0
0
LINE
8
0
10
7.138
20
0.581
11
12.869
21
0.448
0
0
LINE
8
0
10
12.869
20
0.448
11
13.951
21
0.600
0
0
LINE
8
0
10
13.951
20
0.600
11
14.297
21
0.786
0
0
LINE
8
0
10
14.297
20
0.786
11
14.641
21
1.407
0
0
LINE
8
0
10
14.641
20
1.407
11
14.747
21
2.384
0
0
LINE
8
0
10
14.747
20
2.384
11
14.626
21
14.569
0
0
LINE
8
0
10
14.626
20
14.569
11
2.397
21
14.748
0
0
LINE
8
0
10
2.397
20
14.748
11
1.229
21
14.596
0
0
LINE
8
0
10
1.229
20
14.596
11
0.799
21
14.314
0
0
LINE
8
0
10
0.799
20
14.314
11
0.509
21
13.582
0
0
LINE
8
0
10
0.509
20
13.582
11
0.435
21
12.677
0
0
LINE
8
0
10
0.435
20
12.677
11
0.580
21
7.712
0
0
LINE
8
0
10
0.580
20
7.712
11
0.469
21
1.990
0
0
LINE
8
0
10
0.469
20
1.990
11
0.588
21
1.266
0
0
LINE
8
0
10
0.588
20
1.266
11
0.992
21
0.707
0
0
LINE
8
0
10
0.992
20
0.707
11
2.460
21
0.433
0
0
LINE
8
0
10
2.460
20
0.433
11
2.460
21
0.433
0
0
LINE
8
0
10
0.593
20
1.254
11
0.593
21
1.305
0
0
LINE
8
0
10
0.593
20
1.254
11
0.593
21
1.305
0
0
LINE
8
0
10
0.593
20
1.305
11
0.593
21
1.402
0
0
LINE
8
0
10
0.593
20
1.402
11
0.593
21
2.414
0
0
LINE
8
0
10
0.593
20
2.414
11
0.593
21
2.902
0
0
LINE
8
0
10
0.593
20
2.902
11
0.593
21
3.105
0
0
LINE
8
0
10
0.593
20
3.105
11
0.593
21
3.202
0
0
LINE
8
0
10
0.593
20
3.202
11
0.593
21
4.214
0
0
LINE
8
0
10
0.593
20
4.214
11
0.593
21
4.702
0
0
LINE
8
0
10
0.593
20
4.702
11
0.593
21
4.905
0
0
LINE
8
0
10
0.593
20
4.905
11
0.593
21
5.002
0
0
LINE
8
0
10
0.593
20
5.002
11
0.593
21
6.014
0
0
LINE
8
0
10
0.593
20
6.014
11
0.593
21
6.502
0
0
LINE
8
0
10
0.593
20
6.502
11
0.593
21
6.705
0
0
LINE
8
0
10
0.593
20
6.705
11
0.593
21
6.802
0
0
LINE
8
0
10
0.593
20
6.802
11
0.593
21
7.814
0
0
LINE
8
0
10
0.593
20
7.814
11
0.593
21
8.302
0
0
LINE
8
0
10
0.593
20
8.302
11
0.593
21
8.505
0
0
LINE
8
0
10
0.593
20
8.505
11
0.593
21
8.602
0
0
LINE
8
0
10
0.593
20
8.602
11
0.593
21
9.614
0
0
LINE
8
0
10
0.593
20
9.614
11
0.593
21
10.102
0
0
LINE
8
0
10
0.593
20
10.102
11
0.593
21
10.305
0
0
LINE
8
0
10
0.593
20
10.305
11
0.593
21
10.402
0
0
LINE
8
0
10
0.593
20
10.402
11
0.593
21
11.414
0
0
LINE
8
0
10
0.593
20
11.414
11
0.593
21
11.902
0
0
LINE
8
0
10
0.593
20
11.902
11
0.593
21
12.105
0
0
LINE
8
0
10
0.593
20
12.105
11
0.593
21
12.202
0
0
LINE
8
0
10
0.593
20
12.202
11
0.593
21
13.214
0
0
LINE
8
0
10
0.593
20
13.214
11
0.593
21
13.702
0
0
LINE
8
0
10
0.593
20
13.702
11
0.593
21
13.905
0
0
LINE
8
0
10
0.593
20
13.905
11
0.593
21
13.929
0
0
LINE
8
0
10
1.093
20
0.654
11
1.093
21
0.752
0
0
LINE
8
0
10
1.093
20
0.654
11
1.093
21
0.752
0
0
LINE
8
0
10
1.093
20
0.752
11
1.093
21
1.414
0
0
LINE
8
0
10
1.093
20
1.414
11
1.093
21
1.903
0
0
LINE
8
0
10
1.093
20
1.903
11
1.093
21
2.105
0
0
LINE
8
0
10
1.093
20
2.105
11
1.093
21
2.203
0
0
LINE
8
0
10
1.093
20
2.203
11
1.093
21
3.214
0
0
LINE
8
0
10
1.093
20
3.214
11
1.093
21
3.703
0
0
LINE
8
0
10
1.093
20
3.703
11
1.093
21
3.905
0
0
LINE
8
0
10
1.093
20
3.905
11
1.093
21
4.003
0
0
LINE
8
0
10
1.093
20
4.003
11
1.093
21
5.014
0
0
LINE
8
0
10
1.093
20
5.014
11
1.093
21
5.503
0
0
LINE
8
0
10
1.093
20
5.503
11
1.093
21
5.705
0
0
LINE
8
0
10
1.093
20
5.705
11
1.093
21
5.803
0
0
LINE
8
0
10
1.093
20
5.803
11
1.093
21
6.814
0
0
LINE
8
0
10
1.093
20
6.814
11
1.093
21
7.303
0
0
LINE
8
0
10
1.093
20
7.303
11
1.093
21
7.505
0
0
LINE
8
0
10
1.093
20
7.505
11
1.093
21
7.603
0
0
LINE
8
0
10
1.093
20
7.603
11
1.093
21
8.614
0
0
LINE
8
0
10
1.093
20
8.614
11
1.093
21
9.103
0
0
LINE
8
0
10
1.093
20
9.103
11
1.093
21
9.305
0
0
LINE
8
0
10
1.093
20
9.305
11
1.093
21
9.403
0
0
LINE
8
0
10
1.093
20
9.403
11
1.093
21
10.414
0
0
LINE
8
0
10
1.093
20
10.414
11
1.093
21
10.903
0
0
LINE
8
0
10
1.093
20
10.903
11
1.093
21
11.105
0
0
LINE
8
0
10
1.093
20
11.105
11
1.093
21
11.203
0
0
LINE
8
0
10
1.093
20
11.203
11
1.093
21
12.214
0
0
LINE
8
0
10
1.093
20
12.214
11
1.093
21
12.703
0
0
LINE
8
0
10
1.093
20
12.703
11
1.093
21
12.905
0
0
LINE
8
0
10
1.093
20
12.905
11
1.093
21
13.003
0
0
LINE
8
0
10
1.093
20
13.003
11
1.093
21
14.014
0
0
LINE
8
0
10
1.093
20
14.014
11
1.093
21
14.334
0
0
LINE
8
0
10
1.093
20
14.334
11
1.093
21
14.536
0
0
LINE
8
0
10
1.093
20
14.536
11
1.093
21
14.537
0
0
LINE
8
0
10
1.593
20
0.504
11
1.593
21
0.602
0
0
LINE
8
0
10
1.593
20
0.504
11
1.593
21
0.602
0
0
LINE
8
0
10
1.593
20
0.602
11
1.593
21
1.472
0
0
LINE
8
0
10
1.593
20
1.472
11
1.593
21
1.961
0
0
LINE
8
0
10
1.593
20
1.961
11
1.593
21
2.163
0
0
LINE
8
0
10
1.593
20
2.163
11
1.593
21
2.261
0
0
LINE
8
0
10
1.593
20
2.261
11
1.593
21
3.272
0
0
LINE
8
0
10
1.593
20
3.272
11
1.593
21
3.761
0
0
LINE
8
0
10
1.593
20
3.761
11
1.593
21
3.963
0
0
LINE
8
0
10
1.593
20
3.963
11
1.593
21
4.061
0
0
LINE
8
0
10
1.593
20
4.061
11
1.593
21
5.072
0
0
LINE
8
0
10
1.593
20
5.072
11
1.593
21
5.561
0
0
LINE
8
0
10
1.593
20
5.561
11
1.593
21
5.763
0
0
LINE
8
0
10
1.593
20
5.763
11
1.593
21
5.861
0
0
LINE
8
0
10
1.593
20
5.861
11
1.593
21
6.872
0
0
LINE
8
0
10
1.593
20
6.872
11
1.593
21
7.361
0
0
LINE
8
0
10
1.593
20
7.361
11
1.593
21
7.563
0
0
LINE
8
0
10
1.593
20
7.563
11
1.593
21
7.661
0
0
LINE
8
0
10
1.593
20
7.661
11
1.593
21
8.672
0
0
LINE
8
0
10
1.593
20
8.672
11
1.593
21
9.161
0
0
LINE
8
0
10
1.593
20
9.161
11
1.593
21
9.363
0
0
LINE
8
0
10
1.593
20
9.363
11
1.593
21
9.461
0
0
LINE
8
0
10
1.593
20
9.461
11
1.593
21
10.472
0
0
LINE
8
0
10
1.593
20
10.472
11
1.593
21
10.961
0
0
LINE
8
0
10
1.593
20
10.961
11
1.593
21
11.163
0
0
LINE
8
0
10
1.593
20
11.163
11
1.593
21
11.261
0
0
LINE
8
0
10
1.593
20
11.261
11
1.593
21
12.272
0
0
LINE
8
0
10
1.593
20
12.272
11
1.593
21
12.761
0
0
LINE
8
0
10
1.593
20
12.761
11
1.593
21
12.963
0
0
LINE
8
0
10
1.593
20
12.963
11
1.593
21
13.061
0
0
LINE
8
0
10
1.593
20
13.061
11
1.593
21
14.072
0
0
LINE
8
0
10
1.593
20
14.072
11
1.593
21
14.493
0
0
LINE
8
0
10
1.593
20
14.493
11
1.593
21
14.695
0
0
LINE
8
0
10
2.093
20
0.446
11
2.093
21
0.544
0
0
LINE
8
0
10
2.093
20
0.446
11
2.093
21
0.544
0
0
LINE
8
0
10
2.093
20
0.544
11
2.093
21
1.486
0
0
LINE
8
0
10
2.093
20
1.486
11
2.093
21
1.975
0
0
LINE
8
0
10
2.093
20
1.975
11
2.093
21
2.177
0
0
LINE
8
0
10
2.093
20
2.177
11
2.093
21
2.274
0
0
LINE
8
0
10
2.093
20
2.274
11
2.093
21
3.286
0
0
LINE
8
0
10
2.093
20
3.286
11
2.093
21
3.775
0
0
LINE
8
0
10
2.093
20
3.775
11
2.093
21
3.977
0
0
LINE
8
0
10
2.093
20
3.977
11
2.093
21
4.074
0
0
LINE
8
0
10
2.093
20
4.074
11
2.093
21
5.086
0
0
LINE
8
0
10
2.093
20
5.086
11
2.093
21
5.575
0
0
LINE
8
0
10
2.093
20
5.575
11
2.093
21
5.777
0
0
LINE
8
0
10
2.093
20
5.777
11
2.093
21
5.874
0
0
LINE
8
0
10
2.093
20
5.874
11
2.093
21
6.886
0
0
LINE
8
0
10
2.093
20
6.886
11
2.093
21
7.375
0
0
LINE
8
0
10
2.093
20
7.375
11
2.093
21
7.577
0
0
LINE
8
0
10
2.093
20
7.577
11
2.093
21
7.674
0
0
LINE
8
0
10
2.093
20
7.674
11
2.093
21
8.686
0
0
LINE
8
0
10
2.093
20
8.686
11
2.093
21
9.175
0
0
LINE
8
0
10
2.093
20
9.175
11
2.093
21
9.377
0
0
LINE
8
0
10
2.093
20
9.377
11
2.093
21
9.474
0
0
LINE
8
0
10
2.093
20
9.474
11
2.093
21
10.486
0
0
LINE
8
0
10
2.093
20
10.486
11
2.093
21
10.975
0
0
LINE
8
0
10
2.093
20
10.975
11
2.093
21
11.177
0
0
LINE
8
0
10
2.093
20
11.177
11
2.093
21
11.274
0
0
LINE
8
0
10
2.093
20
11.274
11
2.093
21
12.286
0
0
LINE
8
0
10
2.093
20
12.286
11
2.093
21
12.775
0
0
LINE
8
0
10
2.093
20
12.775
11
2.093
21
12.977
0
0
LINE
8
0
10
2.093
20
12.977
11
2.093
21
13.074
0
0
LINE
8
0
10
2.093
20
13.074
11
2.093
21
14.086
0
0
LINE
8
0
10
2.093
20
14.086
11
2.093
21
14.541
0
0
LINE
8
0
10
2.093
20
14.541
11
2.093
21
14.743
0
0
LINE
8
0
10
2.093
20
14.743
11
2.093
21
14.744
0
0
LINE
8
0
10
2.593
20
0.437
11
2.593
21
0.535
0
0
LINE
8
0
10
2.593
20
0.437
11
2.593
21
0.535
0
0
LINE
8
0
10
2.593
20
0.535
11
2.593
21
1.482
0
0
LINE
8
0
10
2.593
20
1.482
11
2.593
21
1.971
0
0
LINE
8
0
10
2.593
20
1.971
11
2.593
21
2.172
0
0
LINE
8
0
10
2.593
20
2.172
11
2.593
21
2.270
0
0
LINE
8
0
10
2.593
20
2.270
11
2.593
21
3.282
0
0
LINE
8
0
10
2.593
20
3.282
11
2.593
21
3.771
0
0
LINE
8
0
10
2.593
20
3.771
11
2.593
21
3.972
0
0
LINE
8
0
10
2.593
20
3.972
11
2.593
21
4.070
0
0
LINE
8
0
10
2.593
20
4.070
11
2.593
21
5.082
0
0
LINE
8
0
10
2.593
20
5.082
11
2.593
21
5.571
0
0
LINE
8
0
10
2.593
20
5.571
11
2.593
21
5.772
0
0
LINE
8
0
10
2.593
20
5.772
11
2.593
21
5.870
0
0
LINE
8
0
10
2.593
20
5.870
11
2.593
21
6.882
0
0
LINE
8
0
10
2.593
20
6.882
11
2.593
21
7.371
0
0
LINE
8
0
10
2.593
20
7.371
11
2.593
21
7.572
0
0
LINE
8
0
10
2.593
20
7.572
11
2.593
21
7.670
0
0
LINE
8
0
10
2.593
20
7.670
11
2.593
21
8.682
0
0
LINE
8
0
10
2.593
20
8.682
11
2.593
21
9.171
0
0
LINE
8
0
10
2.593
20
9.171
11
2.593
21
9.372
0
0
LINE
8
0
10
2.593
20
9.372
11
2.593
21
9.470
0
0
LINE
8
0
10
2.593
20
9.470
11
2.593
21
10.482
0
0
LINE
8
0
10
2.593
20
10.482
11
2.593
21
10.971
0
0
LINE
8
0
10
2.593
20
10.971
11
2.593
21
11.172
0
0
LINE
8
0
10
2.593
20
11.172
11
2.593
21
11.270
0
0
LINE
8
0
10
2.593
20
11.270
11
2.593
21
12.282
0
0
LINE
8
0
10
2.593
20
12.282
11
2.593
21
12.771
0
0
LINE
8
0
10
2.593
20
12.771
11
2.593
21
12.972
0
0
LINE
8
0
10
2.593
20
12.972
11
2.593
21
13.070
0
0
LINE
8
0
10
2.593
20
13.070
11
2.593
21
14.082
0
0
LINE
8
0
10
2.593
20
14.082
11
2.593
21
14.540
0
0
LINE
8
0
10
2.593
20
14.540
11
2.593
21
14.742
0
0
LINE
8
0
10
3.093
20
0.453
11
3.093
21
0.551
0
0
LINE
8
0
10
3.093
20
0.453
11
3.093
21
0.551
0
0
LINE
8
0
10
3.093
20
0.551
11
3.093
21
1.475
0
0
LINE
8
0
10
3.093
20
1.475
11
3.093
21
1.964
0
0
LINE
8
0
10
3.093
20
1.964
11
3.093
21
2.166
0
0
LINE
8
0
10
3.093
20
2.166
11
3.093
21
2.264
0
0
LINE
8
0
10
3.093
20
2.264
11
3.093
21
3.275
0
0
LINE
8
0
10
3.093
20
3.275
11
3.093
21
3.764
0
0
LINE
8
0
10
3.093
20
3.764
11
3.093
21
3.966
0
0
LINE
8
0
10
3.093
20
3.966
11
3.093
21
4.064
0
0
LINE
8
0
10
3.093
20
4.064
11
3.093
21
5.075
0
0
LINE
8
0
10
3.093
20
5.075
11
3.093
21
5.564
0
0
LINE
8
0
10
3.093
20
5.564
11
3.093
21
5.766
0
0
LINE
8
0
10
3.093
20
5.766
11
3.093
21
5.864
0
0
LINE
8
0
10
3.093
20
5.864
11
3.093
21
6.875
0
0
LINE
8
0
10
3.093
20
6.875
11
3.093
21
7.364
0
0
LINE
8
0
10
3.093
20
7.364
11
3.093
21
7.566
0
0
LINE
8
0
10
3.093
20
7.566
11
3.093
21
7.664
0
0
LINE
8
0
10
3.093
20
7.664
11
3.093
21
8.675
0
0
LINE
8
0
10
3.093
20
8.675
11
3.093
21
9.164
0
0
LINE
8
0
10
3.093
20
9.164
11
3.093
21
9.366
0
0
LINE
8
0
10
3.093
20
9.366
11
3.093
21
9.464
0
0
LINE
8
0
10
3.093
20
9.464
11
3.093
21
10.475
0
0
LINE
8
0
10
3.093
20
10.475
11
3.093
21
10.964
0
0
LINE
8
0
10
3.093
20
10.964
11
3.093
21
11.166
0
0
LINE
8
0
10
3.093
20
11.166
11
3.093
21
11.264
0
0
LINE
8
0
10
3.093
20
11.264
11
3.093
21
12.275
0
0
LINE
8
0
10
3.093
20
12.275
11
3.093
21
12.764
0
0
LINE
8
0
10
3.093
20
12.764
11
3.093
21
12.966
0
0
LINE
8
0
10
3.093
20
12.966
11
3.093
21
13.064
0
0
LINE
8
0
10
3.093
20
13.064
11
3.093
21
14.075
0
0
LINE
8
0
10
3.093
20
14.075
11
3.093
21
14.522
0
0
LINE
8
0
10
3.093
20
14.522
11
3.093
21
14.724
0
0
LINE
8
0
10
3.593
20
0.469
11
3.593
21
0.567
0
0
LINE
8
0
10
3.593
20
0.469
11
3.593
21
0.567
0
0
LINE
8
0
10
3.593
20
0.567
11
3.593
21
1.469
0
0
LINE
8
0
10
3.593
20
1.469
11
3.593
21
1.958
0
0
LINE
8
0
10
3.593
20
1.958
11
3.593
21
2.160
0
0
LINE
8
0
10
3.593
20
2.160
11
3.593
21
2.258
0
0
LINE
8
0
10
3.593
20
2.258
11
3.593
21
3.269
0
0
LINE
8
0
10
3.593
20
3.269
11
3.593
21
3.758
0
0
LINE
8
0
10
3.593
20
3.758
11
3.593
21
3.960
0
0
LINE
8
0
10
3.593
20
3.960
11
3.593
21
4.058
0
0
LINE
8
0
10
3.593
20
4.058
11
3.593
21
5.069
0
0
LINE
8
0
10
3.593
20
5.069
11
3.593
21
5.558
0
0
LINE
8
0
10
3.593
20
5.558
11
3.593
21
5.760
0
0
LINE
8
0
10
3.593
20
5.760
11
3.593
21
5.858
0
0
LINE
8
0
10
3.593
20
5.858
11
3.593
21
6.869
0
0
LINE
8
0
10
3.593
20
6.869
11
3.593
21
7.358
0
0
LINE
8
0
10
3.593
20
7.358
11
3.593
21
7.560
0
0
LINE
8
0
10
3.593
20
7.560
11
3.593
21
7.658
0
0
LINE
8
0
10
3.593
20
7.658
11
3.593
21
8.669
0
0
LINE
8
0
10
3.593
20
8.669
11
3.593
21
9.158
0
0
LINE
8
0
10
3.593
20
9.158
11
3.593
21
9.360
0
0
LINE
8
0
10
3.593
20
9.360
11
3.593
21
9.458
0
0
LINE
8
0
10
3.593
20
9.458
11
3.593
21
10.469
0
0
LINE
8
0
10
3.593
20
10.469
11
3.593
21
10.958
0
0
LINE
8
0
10
3.593
20
10.958
11
3.593
21
11.160
0
0
LINE
8
0
10
3.593
20
11.160
11
3.593
21
11.258
0
0
LINE
8
0
10
3.593
20
11.258
11
3.593
21
12.269
0
0
LINE
8
0
10
3.593
20
12.269
11
3.593
21
12.758
0
0
LINE
8
0
10
3.593
20
12.758
11
3.593
21
12.960
0
0
LINE
8
0
10
3.593
20
12.960
11
3.593
21
13.058
0
0
LINE
8
0
10
3.593
20
13.058
11
3.593
21
14.069
0
0
LINE
8
0
10
3.593
20
14.069
11
3.593
21
14.505
0
0
LINE
8
0
10
3.593
20
14.505
11
3.593
21
14.707
0
0
LINE
8
0
10
4.093
20
0.484
11
4.093
21
0.582
0
0
LINE
8
0
10
4.093
20
0.484
11
4.093
21
0.582
0
0
LINE
8
0
10
4.093
20
0.582
11
4.093
21
1.462
0
0
LINE
8
0
10
4.093
20
1.462
11
4.093
21
1.951
0
0
LINE
8
0
10
4.093
20
1.951
11
4.093
21
2.153
0
0
LINE
8
0
10
4.093
20
2.153
11
4.093
21
2.250
0
0
LINE
8
0
10
4.093
20
2.250
11
4.093
21
3.262
0
0
LINE
8
0
10
4.093
20
3.262
11
4.093
21
3.751
0
0
LINE
8
0
10
4.093
20
3.751
11
4.093
21
3.953
0
0
LINE
8
0
10
4.093
20
3.953
11
4.093
21
4.050
0
0
LINE
8
0
10
4.093
20
4.050
11
4.093
21
5.062
0
0
LINE
8
0
10
4.093
20
5.062
11
4.093
21
5.551
0
0
LINE
8
0
10
4.093
20
5.551
11
4.093
21
5.753
0
0
LINE
8
0
10
4.093
20
5.753
11
4.093
21
5.850
0
0
LINE
8
0
10
4.093
20
5.850
11
4.093
21
6.862
0
0
LINE
8
0
10
4.093
20
6.862
11
4.093
21
7.351
0
0
LINE
8
0
10
4.093
20
7.351
11
4.093
21
7.553
0
0
LINE
8
0
10
4.093
20
7.553
11
4.093
21
7.650
0
0
LINE
8
0
10
4.093
20
7.650
11
4.093
21
8.662
0
0
LINE
8
0
10
4.093
20
8.662
11
4.093
21
9.151
0
0
LINE
8
0
10
4.093
20
9.151
11
4.093
21
9.353
0
0
LINE
8
0
10
4.093
20
9.353
11
4.093
21
9.450
0
0
LINE
8
0
10
4.093
20
9.450
11
4.093
21
10.462
0
0
LINE
8
0
10
4.093
20
10.462
11
4.093
21
10.951
0
0
LINE
8
0
10
4.093
20
10.951
11
4.093
21
11.153
0
0
LINE
8
0
10
4.093
20
11.153
11
4.093
21
11.250
0
0
LINE
8
0
10
4.093
20
11.250
11
4.093
21
12.262
0
0
LINE
8
0
10
4.093
20
12.262
11
4.093
21
12.751
0
0
LINE
8
0
10
4.093
20
12.751
11
4.093
21
12.953
0
0
LINE
8
0
10
4.093
20
12.953
11
4.093
21
13.050
0
0
LINE
8
0
10
4.093
20
13.050
11
4.093
21
14.062
0
0
LINE
8
0
10
4.093
20
14.062
11
4.093
21
14.487
0
0
LINE
8
0
10
4.093
20
14.487
11
4.093
21
14.689
0
0
LINE
8
0
10
4.093
20
14.689
11
4.093
21
14.690
0
0
LINE
8
0
10
4.593
20
0.500
11
4.593
21
0.598
0
0
LINE
8
0
10
4.593
20
0.500
11
4.593
21
0.598
0
0
LINE
8
0
10
4.593
20
0.598
11
4.593
21
1.455
0
0
LINE
8
0
10
4.593
20
1.455
11
4.593
21
1.944
0
0
LINE
8
0
10
4.593
20
1.944
11
4.593
21
2.146
0
0
LINE
8
0
10
4.593
20
2.146
11
4.593
21
2.244
0
0
LINE
8
0
10
4.593
20
2.244
11
4.593
21
3.255
0
0
LINE
8
0
10
4.593
20
3.255
11
4.593
21
3.744
0
0
LINE
8
0
10
4.593
20
3.744
11
4.593
21
3.946
0
0
LINE
8
0
10
4.593
20
3.946
11
4.593
21
4.044
0
0
LINE
8
0
10
4.593
20
4.044
11
4.593
21
5.055
0
0
LINE
8
0
10
4.593
20
5.055
11
4.593
21
5.544
0
0
LINE
8
0
10
4.593
20
5.544
11
4.593
21
5.746
0
0
LINE
8
0
10
4.593
20
5.746
11
4.593
21
5.844
0
0
LINE
8
0
10
4.593
20
5.844
11
4.593
21
6.855
0
0
LINE
8
0
10
4.593
20
6.855
11
4.593
21
7.344
0
0
LINE
8
0
10
4.593
20
7.344
11
4.593
21
7.546
0
0
LINE
8
0
10
4.593
20
7.546
11
4.593
21
7.644
0
0
LINE
8
0
10
4.593
20
7.644
11
4.593
21
8.655
0
0
LINE
8
0
10
4.593
20
8.655
11
4.593
21
9.144
0
0
LINE
8
0
10
4.593
20
9.144
11
4.593
21
9.346
0
0
LINE
8
0
10
4.593
20
9.346
11
4.593
21
9.444
0
0
LINE
8
0
10
4.593
20
9.444
11
4.593
21
10.455
0
0
LINE
8
0
10
4.593
20
10.455
11
4.593
21
10.944
0
0
LINE
8
0
10
4.593
20
10.944
11
4.593
21
11.146
0
0
LINE
8
0
10
4.593
20
11.146
11
4.593
21
11.244
0
0
LINE
8
0
10
4.593
20
11.244
11
4.593
21
12.255
0
0
LINE
8
0
10
4.593
20
12.255
11
4.593
21
12.744
0
0
LINE
8
0
10
4.593
20
12.744
11
4.593
21
12.946
0
0
LINE
8
0
10
4.593
20
12.946
11
4.593
21
13.044
0
0
LINE
8
0
10
4.593
20
13.044
11
4.593
21
14.055
0
0
LINE
8
0
10
4.593
20
14.055
11
4.593
21
14.470
0
0
LINE
8
0
10
4.593
20
14.470
11
4.593
21
14.672
0
0
LINE
8
0
10
5.093
20
0.516
11
5.093
21
0.614
0
0
LINE
8
0
10
5.093
20
0.516
11
5.093
21
0.614
0
0
LINE
8
0
10
5.093
20
0.614
11
5.093
21
1.449
0
0
LINE
8
0
10
5.093
20
1.449
11
5.093
21
1.938
0
0
LINE
8
0
10
5.093
20
1.938
11
5.093
21
2.140
0
0
LINE
8
0
10
5.093
20
2.140
11
5.093
21
2.238
0
0
LINE
8
0
10
5.093
20
2.238
11
5.093
21
3.249
0
0
LINE
8
0
10
5.093
20
3.249
11
5.093
21
3.738
0
0
LINE
8
0
10
5.093
20
3.738
11
5.093
21
3.940
0
0
LINE
8
0
10
5.093
20
3.940
11
5.093
21
4.038
0
0
LINE
8
0
10
5.093
20
4.038
11
5.093
21
5.049
0
0
LINE
8
0
10
5.093
20
5.049
11
5.093
21
5.538
0
0
LINE
8
0
10
5.093
20
5.538
11
5.093
21
5.740
0
0
LINE
8
0
10
5.093
20
5.740
11
5.093
21
5.838
0
0
LINE
8
0
10
5.093
20
5.838
11
5.093
21
6.849
0
0
LINE
8
0
10
5.093
20
6.849
11
5.093
21
7.338
0
0
LINE
8
0
10
5.093
20
7.338
11
5.093
21
7.540
0
0
LINE
8
0
10
5.093
20
7.540
11
5.093
21
7.638
0
0
LINE
8
0
10
5.093
20
7.638
11
5.093
21
8.649
0
0
LINE
8
0
10
5.093
20
8.649
11
5.093
21
9.138
0
0
LINE
8
0
10
5.093
20
9.138
11
5.093
21
9.340
0
0
LINE
8
0
10
5.093
20
9.340
11
5.093
21
9.438
0
0
LINE
8
0
10
5.093
20
9.438
11
5.093
21
10.449
0
0
LINE
8
0
10
5.093
20
10.449
11
5.093
21
10.938
0
0
LINE
8
0
10
5.093
20
10.938
11
5.093
21
11.140
0
0
LINE
8
0
10
5.093
20
11.140
11
5.093
21
11.238
0
0
LINE
8
0
10
5.093
20
11.238
11
5.093
21
12.249
0
0
LINE
8
0
10
5.093
20
12.249
11
5.093
21
12.738
0
0
LINE
8
0
10
5.093
20
12.738
11
5.093
21
12.940
0
0
LINE
8
0
10
5.093
20
12.940
11
5.093
21
13.038
0
0
LINE
8
0
10
5.093
20
13.038
11
5.093
21
14.049
0
0
LINE
8
0
10
5.093
20
14.049
11
5.093
21
14.453
0
0
LINE
8
0
10
5.093
20
14.453
11
5.093
21
14.655
0
0
LINE
8
0
10
5.593
20
0.532
11
5.593
21
0.630
0
0
LINE
8
0
10
5.593
20
0.532
11
5.593
21
0.630
0
0
LINE
8
0
10
5.593
20
0.630
11
5.593
21
1.442
0
0
LINE
8
0
10
5.593
20
1.442
11
5.593
21
1.931
0
0
LINE
8
0
10
5.593
20
1.931
11
5.593
21
2.133
0
0
LINE
8
0
10
5.593
20
2.133
11
5.593
21
2.231
0
0
LINE
8
0
10
5.593
20
2.231
11
5.593
21
3.242
0
0
LINE
8
0
10
5.593
20
3.242
11
5.593
21
3.731
0
0
LINE
8
0
10
5.593
20
3.731
11
5.593
21
3.933
0
0
LINE
8
0
10
5.593
20
3.933
11
5.593
21
4.031
0
0
LINE
8
0
10
5.593
20
4.031
11
5.593
21
5.042
0
0
LINE
8
0
10
5.593
20
5.042
11
5.593
21
5.531
0
0
LINE
8
0
10
5.593
20
5.531
11
5.593
21
5.733
0
0
LINE
8
0
10
5.593
20
5.733
11
5.593
21
5.831
0
0
LINE
8
0
10
5.593
20
5.831
11
5.593
21
6.842
0
0
LINE
8
0
10
5.593
20
6.842
11
5.593
21
7.331
0
0
LINE
8
0
10
5.593
20
7.331
11
5.593
21
7.533
0
0
LINE
8
0
10
5.593
20
7.533
11
5.593
21
7.631
0
0
LINE
8
0
10
5.593
20
7.631
11
5.593
21
8.642
0
0
LINE
8
0
10
5.593
20
8.642
11
5.593
21
9.131
0
0
LINE
8
0
10
5.593
20
9.131
11
5.593
21
9.333
0
0
LINE
8
0
10
5.593
20
9.333
11
5.593
21
9.431
0
0
LINE
8
0
10
5.593
20
9.431
11
5.593
21
10.442
0
0
LINE
8
0
10
5.593
20
10.442
11
5.593
21
10.931
0
0
LINE
8
0
10
5.593
20
10.931
11
5.593
21
11.133
0
0
LINE
8
0
10
5.593
20
11.133
11
5.593
21
11.231
0
0
LINE
8
0
10
5.593
20
11.231
11
5.593
21
12.242
0
0
LINE
8
0
10
5.593
20
12.242
11
5.593
21
12.731
0
0
LINE
8
0
10
5.593
20
12.731
11
5.593
21
12.933
0
0
LINE
8
0
10
5.593
20
12.933
11
5.593
21
13.031
0
0
LINE
8
0
10
5.593
20
13.031
11
5.593
21
14.042
0
0
LINE
8
0
10
5.593
20
14.042
11
5.593
21
14.435
0
0
LINE
8
0
10
5.593
20
14.435
11
5.593
21
14.637
0
0
LINE
8
0
10
6.093
20
0.548
11
6.093
21
0.646
0
0
LINE
8
0
10
6.093
20
0.548
11
6.093
21
0.646
0
0
LINE
8
0
10
6.093
20
0.646
11
6.093
21
1.439
0
0
LINE
8
0
10
6.093
20
1.439
11
6.093
21
1.928
0
0
LINE
8
0
10
6.093
20
1.928
11
6.093
21
2.130
0
0
LINE
8
0
10
6.093
20
2.130
11
6.093
21
2.228
0
0
LINE
8
0
10
6.093
20
2.228
11
6.093
21
3.239
0
0
LINE
8
0
10
6.093
20
3.239
11
6.093
21
3.728
0
0
LINE
8
0
10
6.093
20
3.728
11
6.093
21
3.930
0
0
LINE
8
0
10
6.093
20
3.930
11
6.093
21
4.028
0
0
LINE
8
0
10
6.093
20
4.028
11
6.093
21
5.039
0
0
LINE
8
0
10
6.093
20
5.039
11
6.093
21
5.528
0
0
LINE
8
0
10
6.093
20
5.528
11
6.093
21
5.730
0
0
LINE
8
0
10
6.093
20
5.730
11
6.093
21
5.828
0
0
LINE
8
0
10
6.093
20
5.828
11
6.093
21
6.839
0
0
LINE
8
0
10
6.093
20
6.839
11
6.093
21
7.328
0
0
LINE
8
0
10
6.093
20
7.328
11
6.093
21
7.530
0
0
LINE
8
0
10
6.093
20
7.530
11
6.093
21
7.628
0
0
LINE
8
0
10
6.093
20
7.628
11
6.093
21
8.639
0
0
LINE
8
0
10
6.093
20
8.639
11
6.093
21
9.128
0
0
LINE
8
0
10
6.093
20
9.128
11
6.093
21
9.330
0
0
LINE
8
0
10
6.093
20
9.330
11
6.093
21
9.428
0
0
LINE
8
0
10
6.093
20
9.428
11
6.093
21
10.439
0
0
LINE
8
0
10
6.093
20
10.439
11
6.093
21
10.928
0
0
LINE
8
0
10
6.093
20
10.928
11
6.093
21
11.130
0
0
LINE
8
0
10
6.093
20
11.130
11
6.093
21
11.228
0
0
LINE
8
0
10
6.093
20
11.228
11
6.093
21
12.239
0
0
LINE
8
0
10
6.093
20
12.239
11
6.093
21
12.728
0
0
LINE
8
0
10
6.093
20
12.728
11
6.093
21
12.930
0
0
LINE
8
0
10
6.093
20
12.930
11
6.093
21
13.028
0
0
LINE
8
0
10
6.093
20
13.028
11
6.093
21
14.039
0
0
LINE
8
0
10
6.093
20
14.039
11
6.093
21
14.423
0
0
LINE
8
0
10
6.093
20
14.423
11
6.093
21
14.625
0
0
LINE
8
0
10
6.593
20
0.563
11
6.593
21
0.661
0
0
LINE
8
0
10
6.593
20
0.563
11
6.593
21
0.661
0
0
LINE
8
0
10
6.593
20
0.661
11
6.593
21
1.445
0
0
LINE
8
0
10
6.593
20
1.445
11
6.593
21
1.934
0
0
LINE
8
0
10
6.593
20
1.934
11
6.593
21
2.136
0
0
LINE
8
0
10
6.593
20
2.136
11
6.593
21
2.234
0
0
LINE
8
0
10
6.593
20
2.234
11
6.593
21
3.245
0
0
LINE
8
0
10
6.593
20
3.245
11
6.593
21
3.734
0
0
LINE
8
0
10
6.593
20
3.734
11
6.593
21
3.936
0
0
LINE
8
0
10
6.593
20
3.936
11
6.593
21
4.034
0
0
LINE
8
0
10
6.593
20
4.034
11
6.593
21
5.045
0
0
LINE
8
0
10
6.593
20
5.045
11
6.593
21
5.534
0
0
LINE
8
0
10
6.593
20
5.534
11
6.593
21
5.736
0
0
LINE
8
0
10
6.593
20
5.736
11
6.593
21
5.834
0
0
LINE
8
0
10
6.593
20
5.834
11
6.593
21
6.845
0
0
LINE
8
0
10
6.593
20
6.845
11
6.593
21
7.334
0
0
LINE
8
0
10
6.593
20
7.334
11
6.593
21
7.536
0
0
LINE
8
0
10
6.593
20
7.536
11
6.593
21
7.634
0
0
LINE
8
0
10
6.593
20
7.634
11
6.593
21
8.645
0
0
LINE
8
0
10
6.593
20
8.645
11
6.593
21
9.134
0
0
LINE
8
0
10
6.593
20
9.134
11
6.593
21
9.336
0
0
LINE
8
0
10
6.593
20
9.336
11
6.593
21
9.434
0
0
LINE
8
0
10
6.593
20
9.434
11
6.593
21
10.445
0
0
LINE
8
0
10
6.593
20
10.445
11
6.593
21
10.934
0
0
LINE
8
0
10
6.593
20
10.934
11
6.593
21
11.136
0
0
LINE
8
0
10
6.593
20
11.136
11
6.593
21
11.234
0
0
LINE
8
0
10
6.593
20
11.234
11
6.593
21
12.245
0
0
LINE
8
0
10
6.593
20
12.245
11
6.593
21
12.734
0
0
LINE
8
0
10
6.593
20
12.734
11
6.593
21
12.936
0
0
LINE
8
0
10
6.593
20
12.936
11
6.593
21
13.034
0
0
LINE
8
0
10
6.593
20
13.034
11
6.593
21
14.045
0
0
LINE
8
0
10
6.593
20
14.045
11
6.593
21
14.424
0
0
LINE
8
0
10
6.593
20
14.424
11
6.593
21
14.626
0
0
LINE
8
0
10
7.093
20
0.579
11
7.093
21
0.677
0
0
LINE
8
0
10
7.093
20
0.579
11
7.093
21
0.677
0
0
LINE
8
0
10
7.093
20
0.677
11
7.093
21
1.451
0
0
LINE
8
0
10
7.093
20
1.451
11
7.093
21
1.939
0
0
LINE
8
0
10
7.093
20
1.939
11
7.093
21
2.142
0
0
LINE
8
0
10
7.093
20
2.142
11
7.093
21
2.239
0
0
LINE
8
0
10
7.093
20
2.239
11
7.093
21
3.251
0
0
LINE
8
0
10
7.093
20
3.251
11
7.093
21
3.739
0
0
LINE
8
0
10
7.093
20
3.739
11
7.093
21
3.942
0
0
LINE
8
0
10
7.093
20
3.942
11
7.093
21
4.039
0
0
LINE
8
0
10
7.093
20
4.039
11
7.093
21
5.051
0
0
LINE
8
0
10
7.093
20
5.051
11
7.093
21
5.539
0
0
LINE
8
0
10
7.093
20
5.539
11
7.093
21
5.742
0
0
LINE
8
0
10
7.093
20
5.742
11
7.093
21
5.839
0
0
LINE
8
0
10
7.093
20
5.839
11
7.093
21
6.851
0
0
LINE
8
0
10
7.093
20
6.851
11
7.093
21
7.339
0
0
LINE
8
0
10
7.093
20
7.339
11
7.093
21
7.542
0
0
LINE
8
0
10
7.093
20
7.542
11
7.093
21
7.639
0
0
LINE
8
0
10
7.093
20
7.639
11
7.093
21
8.651
0
0
LINE
8
0
10
7.093
20
8.651
11
7.093
21
9.139
0
0
LINE
8
0
10
7.093
20
9.139
11
7.093
21
9.342
0
0
LINE
8
0
10
7.093
20
9.342
11
7.093
21
9.439
0
0
LINE
8
0
10
7.093
20
9.439
11
7.093
21
10.451
0
0
LINE
8
0
10
7.093
20
10.451
11
7.093
21
10.939
0
0
LINE
8
0
10
7.093
20
10.939
11
7.093
21
11.142
0
0
LINE
8
0
10
7.093
20
11.142
11
7.093
21
11.239
0
0
LINE
8
0
10
7.093
20
11.239
11
7.093
21
12.251
0
0
LINE
8
0
10
7.093
20
12.251
11
7.093
21
12.739
0
0
LINE
8
0
10
7.093
20
12.739
11
7.093
21
12.942
0
0
LINE
8
0
10
7.093
20
12.942
11
7.093
21
13.039
0
0
LINE
8
0
10
7.093
20
13.039
11
7.093
21
14.051
0
0
LINE
8
0
10
7.093
20
14.051
11
7.093
21
14.425
0
0
LINE
8
0
10
7.093
20
14.425
11
7.093
21
14.627
0
0
LINE
8
0
10
7.593
20
0.574
11
7.593
21
0.575
0
0
LINE
8
0
10
7.593
20
0.574
11
7.593
21
0.575
0
0
LINE
8
0
10
7.593
20
0.575
11
7.593
21
0.673
0
0
LINE
8
0
10
7.593
20
0.673
11
7.593
21
1.450
0
0
LINE
8
0
10
7.593
20
1.450
11
7.593
21
1.939
0
0
LINE
8
0
10
7.593
20
1.939
11
7.593
21
2.140
0
0
LINE
8
0
10
7.593
20
2.140
11
7.593
21
2.238
0
0
LINE
8
0
10
7.593
20
2.238
11
7.593
21
3.250
0
0
LINE
8
0
10
7.593
20
3.250
11
7.593
21
3.739
0
0
LINE
8
0
10
7.593
20
3.739
11
7.593
21
3.940
0
0
LINE
8
0
10
7.593
20
3.940
11
7.593
21
4.038
0
0
LINE
8
0
10
7.593
20
4.038
11
7.593
21
5.050
0
0
LINE
8
0
10
7.593
20
5.050
11
7.593
21
5.539
0
0
LINE
8
0
10
7.593
20
5.539
11
7.593
21
5.740
0
0
LINE
8
0
10
7.593
20
5.740
11
7.593
21
5.838
0
0
LINE
8
0
10
7.593
20
5.838
11
7.593
21
6.850
0
0
LINE
8
0
10
7.593
20
6.850
11
7.593
21
7.339
0
0
LINE
8
0
10
7.593
20
7.339
11
7.593
21
7.540
0
0
LINE
8
0
10
7.593
20
7.540
11
7.593
21
7.638
0
0
LINE
8
0
10
7.593
20
7.638
11
7.593
21
8.650
0
0
LINE
8
0
10
7.593
20
8.650
11
7.593
21
9.139
0
0
LINE
8
0
10
7.593
20
9.139
11
7.593
21
9.340
0
0
LINE
8
0
10
7.593
20
9.340
11
7.593
21
9.438
0
0
LINE
8
0
10
7.593
20
9.438
11
7.593
21
10.450
0
0
LINE
8
0
10
7.593
20
10.450
11
7.593
21
10.939
0
0
LINE
8
0
10
7.593
20
10.939
11
7.593
21
11.140
0
0
LINE
8
0
10
7.593
20
11.140
11
7.593
21
11.238
0
0
LINE
8
0
10
7.593
20
11.238
11
7.593
21
12.250
0
0
LINE
8
0
10
7.593
20
12.250
11
7.593
21
12.739
0
0
LINE
8
0
10
7.593
20
12.739
11
7.593
21
12.940
0
0
LINE
8
0
10
7.593
20
12.940
11
7.593
21
13.038
0
0
LINE
8
0
10
7.593
20
13.038
11
7.593
21
14.050
0
0
LINE
8
0
10
7.593
20
14.050
11
7.593
21
14.426
0
0
LINE
8
0
10
7.593
20
14.426
11
7.593
21
14.628
0
0
LINE
8
0
10
8.093
20
0.563
11
8.093
21
0.661
0
0
LINE
8
0
10
8.093
20
0.563
11
8.093
21
0.661
0
0
LINE
8
0
10
8.093
20
0.661
11
8.093
21
1.446
0
0
LINE
8
0
10
8.093
20
1.446
11
8.093
21
1.935
0
0
LINE
8
0
10
8.093
20
1.935
11
8.093
21
2.137
0
0
LINE
8
0
10
8.093
20
2.137
11
8.093
21
2.235
0
0
LINE
8
0
10
8.093
20
2.235
11
8.093
21
3.246
0
0
LINE
8
0
10
8.093
20
3.246
11
8.093
21
3.735
0
0
LINE
8
0
10
8.093
20
3.735
11
8.093
21
3.937
0
0
LINE
8
0
10
8.093
20
3.937
11
8.093
21
4.035
0
0
LINE
8
0
10
8.093
20
4.035
11
8.093
21
5.046
0
0
LINE
8
0
10
8.093
20
5.046
11
8.093
21
5.535
0
0
LINE
8
0
10
8.093
20
5.535
11
8.093
21
5.737
0
0
LINE
8
0
10
8.093
20
5.737
11
8.093
21
5.835
0
0
LINE
8
0
10
8.093
20
5.835
11
8.093
21
6.846
0
0
LINE
8
0
10
8.093
20
6.846
11
8.093
21
7.335
0
0
LINE
8
0
10
8.093
20
7.335
11
8.093
21
7.537
0
0
LINE
8
0
10
8.093
20
7.537
11
8.093
21
7.635
0
0
LINE
8
0
10
8.093
20
7.635
11
8.093
21
8.646
0
0
LINE
8
0
10
8.093
20
8.646
11
8.093
21
9.135
0
0
LINE
8
0
10
8.093
20
9.135
11
8.093
21
9.337
0
0
LINE
8
0
10
8.093
20
9.337
11
8.093
21
9.435
0
0
LINE
8
0
10
8.093
20
9.435
11
8.093
21
10.446
0
0
LINE
8
0
10
8.093
20
10.446
11
8.093
21
10.935
0
0
LINE
8
0
10
8.093
20
10.935
11
8.093
21
11.137
0
0
LINE
8
0
10
8.093
20
11.137
11
8.093
21
11.235
0
0
LINE
8
0
10
8.093
20
11.235
11
8.093
21
12.246
0
0
LINE
8
0
10
8.093
20
12.246
11
8.093
21
12.735
0
0
LINE
8
0
10
8.093
20
12.735
11
8.093
21
12.937
0
0
LINE
8
0
10
8.093
20
12.937
11
8.093
21
13.035
0
0
LINE
8
0
10
8.093
20
13.035
11
8.093
21
14.046
0
0
LINE
8
0
10
8.093
20
14.046
11
8.093
21
14.426
0
0
LINE
8
0
10
8.093
20
14.426
11
8.093
21
14.628
0
0
LINE
8
0
10
8.593
20
0.551
11
8.593
21
0.649
0
0
LINE
8
0
10
8.593
20
0.551
11
8.593
21
0.649
0
0
LINE
8
0
10
8.593
20
0.649
11
8.593
21
1.443
0
0
LINE
8
0
10
8.593
20
1.443
11
8.593
21
1.932
0
0
LINE
8
0
10
8.593
20
1.932
11
8.593
21
2.134
0
0
LINE
8
0
10
8.593
20
2.134
11
8.593
21
2.232
0
0
LINE
8
0
10
8.593
20
2.232
11
8.593
21
3.243
0
0
LINE
8
0
10
8.593
20
3.243
11
8.593
21
3.732
0
0
LINE
8
0
10
8.593
20
3.732
11
8.593
21
3.934
0
0
LINE
8
0
10
8.593
20
3.934
11
8.593
21
4.032
0
0
LINE
8
0
10
8.593
20
4.032
11
8.593
21
5.043
0
0
LINE
8
0
10
8.593
20
5.043
11
8.593
21
5.532
0
0
LINE
8
0
10
8.593
20
5.532
11
8.593
21
5.734
0
0
LINE
8
0
10
8.593
20
5.734
11
8.593
21
5.832
0
0
LINE
8
0
10
8.593
20
5.832
11
8.593
21
6.843
0
0
LINE
8
0
10
8.593
20
6.843
11
8.593
21
7.332
0
0
LINE
8
0
10
8.593
20
7.332
11
8.593
21
7.534
0
0
LINE
8
0
10
8.593
20
7.534
11
8.593
21
7.632
0
0
LINE
8
0
10
8.593
20
7.632
11
8.593
21
8.643
0
0
LINE
8
0
10
8.593
20
8.643
11
8.593
21
9.132
0
0
LINE
8
0
10
8.593
20
9.132
11
8.593
21
9.334
0
0
LINE
8
0
10
8.593
20
9.334
11
8.593
21
9.432
0
0
LINE
8
0
10
8.593
20
9.432
11
8.593
21
10.443
0
0
LINE
8
0
10
8.593
20
10.443
11
8.593
21
10.932
0
0
LINE
8
0
10
8.593
20
10.932
11
8.593
21
11.134
0
0
LINE
8
0
10
8.593
20
11.134
11
8.593
21
11.232
0
0
LINE
8
0
10
8.593
20
11.232
11
8.593
21
12.243
0
0
LINE
8
0
10
8.593
20
12.243
11
8.593
21
12.732
0
0
LINE
8
0
10
8.593
20
12.732
11
8.593
21
12.934
0
0
LINE
8
0
10
8.593
20
12.934
11
8.593
21
13.032
0
0
LINE
8
0
10
8.593
20
13.032
11
8.593
21
14.043
0
0
LINE
8
0
10
8.593
20
14.043
11
8.593
21
14.427
0
0
LINE
8
0
10
8.593
20
14.427
11
8.593
21
14.629
0
0
LINE
8
0
10
9.093
20
0.539
11
9.093
21
0.637
0
0
LINE
8
0
10
9.093
20
0.539
11
9.093
21
0.637
0
0
LINE
8
0
10
9.093
20
0.637
11
9.093
21
1.440
0
0
LINE
8
0
10
9.093
20
1.440
11
9.093
21
1.928
0
0
LINE
8
0
10
9.093
20
1.928
11
9.093
21
2.131
0
0
LINE
8
0
10
9.093
20
2.131
11
9.093
21
2.228
0
0
LINE
8
0
10
9.093
20
2.228
11
9.093
21
3.240
0
0
LINE
8
0
10
9.093
20
3.240
11
9.093
21
3.728
0
0
LINE
8
0
10
9.093
20
3.728
11
9.093
21
3.931
0
0
LINE
8
0
10
9.093
20
3.931
11
9.093
21
4.028
0
0
LINE
8
0
10
9.093
20
4.028
11
9.093
21
5.040
0
0
LINE
8
0
10
9.093
20
5.040
11
9.093
21
5.528
0
0
LINE
8
0
10
9.093
20
5.528
11
9.093
21
5.731
0
0
LINE
8
0
10
9.093
20
5.731
11
9.093
21
5.828
0
0
LINE
8
0
10
9.093
20
5.828
11
9.093
21
6.840
0
0
LINE
8
0
10
9.093
20
6.840
11
9.093
21
7.328
0
0
LINE
8
0
10
9.093
20
7.328
11
9.093
21
7.531
0
0
LINE
8
0
10
9.093
20
7.531
11
9.093
21
7.628
0
0
LINE
8
0
10
9.093
20
7.628
11
9.093
21
8.640
0
0
LINE
8
0
10
9.093
20
8.640
11
9.093
21
9.128
0
0
LINE
8
0
10
9.093
20
9.128
11
9.093
21
9.331
0
0
LINE
8
0
10
9.093
20
9.331
11
9.093
21
9.428
0
0
LINE
8
0
10
9.093
20
9.428
11
9.093
21
10.440
0
0
LINE
8
0
10
9.093
20
10.440
11
9.093
21
10.928
0
0
LINE
8
0
10
9.093
20
10.928
11
9.093
21
11.131
0
0
LINE
8
0
10
9.093
20
11.131
11
9.093
21
11.228
0
0
LINE
8
0
10
9.093
20
11.228
11
9.093
21
12.240
0
0
LINE
8
0
10
9.093
20
12.240
11
9.093
21
12.728
0
0
LINE
8
0
10
9.093
20
12.728
11
9.093
21
12.931
0
0
LINE
8
0
10
9.093
20
12.931
11
9.093
21
13.028
0
0
LINE
8
0
10
9.093
20
13.028
11
9.093
21
14.040
0
0
LINE
8
0
10
9.093
20
14.040
11
9.093
21
14.428
0
0
LINE
8
0
10
9.093
20
14.428
11
9.093
21
14.630
0
0
LINE
8
0
10
9.593
20
0.527
11
9.593
21
0.625
0
0
LINE
8
0
10
9.593
20
0.527
11
9.593
21
0.625
0
0
LINE
8
0
10
9.593
20
0.625
11
9.593
21
1.436
0
0
LINE
8
0
10
9.593
20
1.436
11
9.593
21
1.925
0
0
LINE
8
0
10
9.593
20
1.925
11
9.593
21
2.127
0
0
LINE
8
0
10
9.593
20
2.127
11
9.593
21
2.225
0
0
LINE
8
0
10
9.593
20
2.225
11
9.593
21
3.236
0
0
LINE
8
0
10
9.593
20
3.236
11
9.593
21
3.725
0
0
LINE
8
0
10
9.593
20
3.725
11
9.593
21
3.927
0
0
LINE
8
0
10
9.593
20
3.927
11
9.593
21
4.025
0
0
LINE
8
0
10
9.593
20
4.025
11
9.593
21
5.036
0
0
LINE
8
0
10
9.593
20
5.036
11
9.593
21
5.525
0
0
LINE
8
0
10
9.593
20
5.525
11
9.593
21
5.727
0
0
LINE
8
0
10
9.593
20
5.727
11
9.593
21
5.825
0
0
LINE
8
0
10
9.593
20
5.825
11
9.593
21
6.836
0
0
LINE
8
0
10
9.593
20
6.836
11
9.593
21
7.325
0
0
LINE
8
0
10
9.593
20
7.325
11
9.593
21
7.527
0
0
LINE
8
0
10
9.593
20
7.527
11
9.593
21
7.625
0
0
LINE
8
0
10
9.593
20
7.625
11
9.593
21
8.636
0
0
LINE
8
0
10
9.593
20
8.636
11
9.593
21
9.125
0
0
LINE
8
0
10
9.593
20
9.125
11
9.593
21
9.327
0
0
LINE
8
0
10
9.593
20
9.327
11
9.593
21
9.425
0
0
LINE
8
0
10
9.593
20
9.425
11
9.593
21
10.436
0
0
LINE
8
0
10
9.593
20
10.436
11
9.593
21
10.925
0
0
LINE
8
0
10
9.593
20
10.925
11
9.593
21
11.127
0
0
LINE
8
0
10
9.593
20
11.127
11
9.593
21
11.225
0
0
LINE
8
0
10
9.593
20
11.225
11
9.593
21
12.236
0
0
LINE
8
0
10
9.593
20
12.236
11
9.593
21
12.725
0
0
LINE
8
0
10
9.593
20
12.725
11
9.593
21
12.927
0
0
LINE
8
0
10
9.593
20
12.927
11
9.593
21
13.025
0
0
LINE
8
0
10
9.593
20
13.025
11
9.593
21
14.036
0
0
LINE
8
0
10
9.593
20
14.036
11
9.593
21
14.428
0
0
LINE
8
0
10
9.593
20
14.428
11
9.593
21
14.630
0
0
LINE
8
0
10
10.093
20
0.515
11
10.093
21
0.613
0
0
LINE
8
0
10
10.093
20
0.515
11
10.093
21
0.613
0
0
LINE
8
0
10
10.093
20
0.613
11
10.093
21
1.433
0
0
LINE
8
0
10
10.093
20
1.433
11
10.093
21
1.921
0
0
LINE
8
0
10
10.093
20
1.921
11
10.093
21
2.124
0
0
LINE
8
0
10
10.093
20
2.124
11
10.093
21
2.221
0
0
LINE
8
0
10
10.093
20
2.221
11
10.093
21
3.233
0
0
LINE
8
0
10
10.093
20
3.233
11
10.093
21
3.721
0
0
LINE
8
0
10
10.093
20
3.721
11
10.093
21
3.924
0
0
LINE
8
0
10
10.093
20
3.924
11
10.093
21
4.021
0
0
LINE
8
0
10
10.093
20
4.021
11
10.093
21
5.033
0
0
LINE
8
0
10
10.093
20
5.033
11
10.093
21
5.521
0
0
LINE
8
0
10
10.093
20
5.521
11
10.093
21
5.724
0
0
LINE
8
0
10
10.093
20
5.724
11
10.093
21
5.821
0
0
LINE
8
0
10
10.093
20
5.821
11
10.093
21
6.833
0
0
LINE
8
0
10
10.093
20
6.833
11
10.093
21
7.321
0
0
LINE
8
0
10
10.093
20
7.321
11
10.093
21
7.524
0
0
LINE
8
0
10
10.093
20
7.524
11
10.093
21
7.621
0
0
LINE
8
0
10
10.093
20
7.621
11
10.093
21
8.633
0
0
LINE
8
0
10
10.093
20
8.633
11
10.093
21
9.121
0
0
LINE
8
0
10
10.093
20
9.121
11
10.093
21
9.324
0
0
LINE
8
0
10
10.093
20
9.324
11
10.093
21
9.421
0
0
LINE
8
0
10
10.093
20
9.421
11
10.093
21
10.433
0
0
LINE
8
0
10
10.093
20
10.433
11
10.093
21
10.921
0
0
LINE
8
0
10
10.093
20
10.921
11
10.093
21
11.124
0
0
LINE
8
0
10
10.093
20
11.124
11
10.093
21
11.221
0
0
LINE
8
0
10
10.093
20
11.221
11
10.093
21
12.233
0
0
LINE
8
0
10
10.093
20
12.233
11
10.093
21
12.721
0
0
LINE
8
0
10
10.093
20
12.721
11
10.093
21
12.924
0
0
LINE
8
0
10
10.093
20
12.924
11
10.093
21
13.021
0
0
LINE
8
0
10
10.093
20
13.021
11
10.093
21
14.033
0
0
LINE
8
0
10
10.093
20
14.033
11
10.093
21
14.429
0
0
LINE
8
0
10
10.093
20
14.429
11
10.093
21
14.631
0
0
LINE
8
0
10
10.593
20
0.503
11
10.593
21
0.601
0
0
LINE
8
0
10
10.593
20
0.503
11
10.593
21
0.601
0
0
LINE
8
0
10
10.593
20
0.601
11
10.593
21
1.429
0
0
LINE
8
0
10
10.593
20
1.429
11
10.593
21
1.918
0
0
LINE
8
0
10
10.593
20
1.918
11
10.593
21
2.120
0
0
LINE
8
0
10
10.593
20
2.120
11
10.593
21
2.218
0
0
LINE
8
0
10
10.593
20
2.218
11
10.593
21
3.229
0
0
LINE
8
0
10
10.593
20
3.229
11
10.593
21
3.718
0
0
LINE
8
0
10
10.593
20
3.718
11
10.593
21
3.920
0
0
LINE
8
0
10
10.593
20
3.920
11
10.593
21
4.018
0
0
LINE
8
0
10
10.593
20
4.018
11
10.593
21
5.029
0
0
LINE
8
0
10
10.593
20
5.029
11
10.593
21
5.518
0
0
LINE
8
0
10
10.593
20
5.518
11
10.593
21
5.720
0
0
LINE
8
0
10
10.593
20
5.720
11
10.593
21
5.818
0
0
LINE
8
0
10
10.593
20
5.818
11
10.593
21
6.829
0
0
LINE
8
0
10
10.593
20
6.829
11
10.593
21
7.318
0
0
LINE
8
0
10
10.593
20
7.318
11
10.593
21
7.520
0
0
LINE
8
0
10
10.593
20
7.520
11
10.593
21
7.618
0
0
LINE
8
0
10
10.593
20
7.618
11
10.593
21
8.629
0
0
LINE
8
0
10
10.593
20
8.629
11
10.593
21
9.118
0
0
LINE
8
0
10
10.593
20
9.118
11
10.593
21
9.320
0
0
LINE
8
0
10
10.593
20
9.320
11
10.593
21
9.418
0
0
LINE
8
0
10
10.593
20
9.418
11
10.593
21
10.429
0
0
LINE
8
0
10
10.593
20
10.429
11
10.593
21
10.918
0
0
LINE
8
0
10
10.593
20
10.918
11
10.593
21
11.120
0
0
LINE
8
0
10
10.593
20
11.120
11
10.593
21
11.218
0
0
LINE
8
0
10
10.593
20
11.218
11
10.593
21
12.229
0
0
LINE
8
0
10
10.593
20
12.229
11
10.593
21
12.718
0
0
LINE
8
0
10
10.593
20
12.718
11
10.593
21
12.920
0
0
LINE
8
0
10
10.593
20
12.920
11
10.593
21
13.018
0
0
LINE
8
0
10
10.593
20
13.018
11
10.593
21
14.029
0
0
LINE
8
0
10
10.593
20
14.029
11
10.593
21
14.430
0
0
LINE
8
0
10
10.593
20
14.430
11
10.593
21
14.632
0
0
LINE
8
0
10
11.093
20
0.491
11
11.093
21
0.589
0
0
LINE
8
0
10
11.093
20
0.491
11
11.093
21
0.589
0
0
LINE
8
0
10
11.093
20
0.589
11
11.093
21
1.426
0
0
LINE
8
0
10
11.093
20
1.426
11
11.093
21
1.915
0
0
LINE
8
0
10
11.093
20
1.915
11
11.093
21
2.116
0
0
LINE
8
0
10
11.093
20
2.116
11
11.093
21
2.214
0
0
LINE
8
0
10
11.093
20
2.214
11
11.093
21
3.226
0
0
LINE
8
0
10
11.093
20
3.226
11
11.093
21
3.715
0
0
LINE
8
0
10
11.093
20
3.715
11
11.093
21
3.916
0
0
LINE
8
0
10
11.093
20
3.916
11
11.093
21
4.014
0
0
LINE
8
0
10
11.093
20
4.014
11
11.093
21
5.026
0
0
LINE
8
0
10
11.093
20
5.026
11
11.093
21
5.515
0
0
LINE
8
0
10
11.093
20
5.515
11
11.093
21
5.716
0
0
LINE
8
0
10
11.093
20
5.716
11
11.093
21
5.814
0
0
LINE
8
0
10
11.093
20
5.814
11
11.093
21
6.826
0
0
LINE
8
0
10
11.093
20
6.826
11
11.093
21
7.315
0
0
LINE
8
0
10
11.093
20
7.315
11
11.093
21
7.516
0
0
LINE
8
0
10
11.093
20
7.516
11
11.093
21
7.614
0
0
LINE
8
0
10
11.093
20
7.614
11
11.093
21
8.626
0
0
LINE
8
0
10
11.093
20
8.626
11
11.093
21
9.115
0
0
LINE
8
0
10
11.093
20
9.115
11
11.093
21
9.316
0
0
LINE
8
0
10
11.093
20
9.316
11
11.093
21
9.414
0
0
LINE
8
0
10
11.093
20
9.414
11
11.093
21
10.426
0
0
LINE
8
0
10
11.093
20
10.426
11
11.093
21
10.915
0
0
LINE
8
0
10
11.093
20
10.915
11
11.093
21
11.116
0
0
LINE
8
0
10
11.093
20
11.116
11
11.093
21
11.214
0
0
LINE
8
0
10
11.093
20
11.214
11
11.093
21
12.226
0
0
LINE
8
0
10
11.093
20
12.226
11
11.093
21
12.715
0
0
LINE
8
0
10
11.093
20
12.715
11
11.093
21
12.916
0
0
LINE
8
0
10
11.093
20
12.916
11
11.093
21
13.014
0
0
LINE
8
0
10
11.093
20
13.014
11
11.093
21
14.026
0
0
LINE
8
0
10
11.093
20
14.026
11
11.093
21
14.431
0
0
LINE
8
0
10
11.093
20
14.431
11
11.093
21
14.633
0
0
LINE
8
0
10
11.593
20
0.479
11
11.593
21
0.577
0
0
LINE
8
0
10
11.593
20
0.479
11
11.593
21
0.577
0
0
LINE
8
0
10
11.593
20
0.577
11
11.593
21
1.422
0
0
LINE
8
0
10
11.593
20
1.422
11
11.593
21
1.911
0
0
LINE
8
0
10
11.593
20
1.911
11
11.593
21
2.113
0
0
LINE
8
0
10
11.593
20
2.113
11
11.593
21
2.211
0
0
LINE
8
0
10
11.593
20
2.211
11
11.593
21
3.222
0
0
LINE
8
0
10
11.593
20
3.222
11
11.593
21
3.711
0
0
LINE
8
0
10
11.593
20
3.711
11
11.593
21
3.913
0
0
LINE
8
0
10
11.593
20
3.913
11
11.593
21
4.011
0
0
LINE
8
0
10
11.593
20
4.011
11
11.593
21
5.022
0
0
LINE
8
0
10
11.593
20
5.022
11
11.593
21
5.511
0
0
LINE
8
0
10
11.593
20
5.511
11
11.593
21
5.713
0
0
LINE
8
0
10
11.593
20
5.713
11
11.593
21
5.811
0
0
LINE
8
0
10
11.593
20
5.811
11
11.593
21
6.822
0
0
LINE
8
0
10
11.593
20
6.822
11
11.593
21
7.311
0
0
LINE
8
0
10
11.593
20
7.311
11
11.593
21
7.513
0
0
LINE
8
0
10
11.593
20
7.513
11
11.593
21
7.611
0
0
LINE
8
0
10
11.593
20
7.611
11
11.593
21
8.622
0
0
LINE
8
0
10
11.593
20
8.622
11
11.593
21
9.111
0
0
LINE
8
0
10
11.593
20
9.111
11
11.593
21
9.313
0
0
LINE
8
0
10
11.593
20
9.313
11
11.593
21
9.411
0
0
LINE
8
0
10
11.593
20
9.411
11
11.593
21
10.422
0
0
LINE
8
0
10
11.593
20
10.422
11
11.593
21
10.911
0
0
LINE
8
0
10
11.593
20
10.911
11
11.593
21
11.113
0
0
LINE
8
0
10
11.593
20
11.113
11
11.593
21
11.211
0
0
LINE
8
0
10
11.593
20
11.211
11
11.593
21
12.222
0
0
LINE
8
0
10
11.593
20
12.222
11
11.593
21
12.711
0
0
LINE
8
0
10
11.593
20
12.711
11
11.593
21
12.913
0
0
LINE
8
0
10
11.593
20
12.913
11
11.593
21
13.011
0
0
LINE
8
0
10
11.593
20
13.011
11
11.593
21
14.022
0
0
LINE
8
0
10
11.593
20
14.022
11
11.593
21
14.431
0
0
LINE
8
0
10
11.593
20
14.431
11
11.593
21
14.633
0
0
LINE
8
0
10
12.093
20
0.467
11
12.093
21
0.565
0
0
LINE
8
0
10
12.093
20
0.467
11
12.093
21
0.565
0
0
LINE
8
0
10
12.093
20
0.565
11
12.093
21
1.419
0
0
LINE
8
0
10
12.093
20
1.419
11
12.093
21
1.908
0
0
LINE
8
0
10
12.093
20
1.908
11
12.093
21
2.110
0
0
LINE
8
0
10
12.093
20
2.110
11
12.093
21
2.208
0
0
LINE
8
0
10
12.093
20
2.208
11
12.093
21
3.219
0
0
LINE
8
0
10
12.093
20
3.219
11
12.093
21
3.708
0
0
LINE
8
0
10
12.093
20
3.708
11
12.093
21
3.910
0
0
LINE
8
0
10
12.093
20
3.910
11
12.093
21
4.008
0
0
LINE
8
0
10
12.093
20
4.008
11
12.093
21
5.019
0
0
LINE
8
0
10
12.093
20
5.019
11
12.093
21
5.508
0
0
LINE
8
0
10
12.093
20
5.508
11
12.093
21
5.710
0
0
LINE
8
0
10
12.093
20
5.710
11
12.093
21
5.808
0
0
LINE
8
0
10
12.093
20
5.808
11
12.093
21
6.819
0
0
LINE
8
0
10
12.093
20
6.819
11
12.093
21
7.308
0
0
LINE
8
0
10
12.093
20
7.308
11
12.093
21
7.510
0
0
LINE
8
0
10
12.093
20
7.510
11
12.093
21
7.608
0
0
LINE
8
0
10
12.093
20
7.608
11
12.093
21
8.619
0
0
LINE
8
0
10
12.093
20
8.619
11
12.093
21
9.108
0
0
LINE
8
0
10
12.093
20
9.108
11
12.093
21
9.310
0
0
LINE
8
0
10
12.093
20
9.310
11
12.093
21
9.408
0
0
LINE
8
0
10
12.093
20
9.408
11
12.093
21
10.419
0
0
LINE
8
0
10
12.093
20
10.419
11
12.093
21
10.908
0
0
LINE
8
0
10
12.093
20
10.908
11
12.093
21
11.110
0
0
LINE
8
0
10
12.093
20
11.110
11
12.093
21
11.208
0
0
LINE
8
0
10
12.093
20
11.208
11
12.093
21
12.219
0
0
LINE
8
0
10
12.093
20
12.219
11
12.093
21
12.708
0
0
LINE
8
0
10
12.093
20
12.708
11
12.093
21
12.910
0
0
LINE
8
0
10
12.093
20
12.910
11
12.093
21
13.008
0
0
LINE
8
0
10
12.093
20
13.008
11
12.093
21
14.019
0
0
LINE
8
0
10
12.093
20
14.019
11
12.093
21
14.432
0
0
LINE
8
0
10
12.093
20
14.432
11
12.093
21
14.634
0
0
LINE
8
0
10
12.593
20
0.455
11
12.593
21
0.553
0
0
LINE
8
0
10
12.593
20
0.455
11
12.593
21
0.553
0
0
LINE
8
0
10
12.593
20
0.553
11
12.593
21
1.416
0
0
LINE
8
0
10
12.593
20
1.416
11
12.593
21
1.904
0
0
LINE
8
0
10
12.593
20
1.904
11
12.593
21
2.107
0
0
LINE
8
0
10
12.593
20
2.107
11
12.593
21
2.204
0
0
LINE
8
0
10
12.593
20
2.204
11
12.593
21
3.216
0
0
LINE
8
0
10
12.593
20
3.216
11
12.593
21
3.704
0
0
LINE
8
0
10
12.593
20
3.704
11
12.593
21
3.907
0
0
LINE
8
0
10
12.593
20
3.907
11
12.593
21
4.004
0
0
LINE
8
0
10
12.593
20
4.004
11
12.593
21
5.016
0
0
LINE
8
0
10
12.593
20
5.016
11
12.593
21
5.504
0
0
LINE
8
0
10
12.593
20
5.504
11
12.593
21
5.707
0
0
LINE
8
0
10
12.593
20
5.707
11
12.593
21
5.804
0
0
LINE
8
0
10
12.593
20
5.804
11
12.593
21
6.816
0
0
LINE
8
0
10
12.593
20
6.816
11
12.593
21
7.304
0
0
LINE
8
0
10
12.593
20
7.304
11
12.593
21
7.507
0
0
LINE
8
0
10
12.593
20
7.507
11
12.593
21
7.604
0
0
LINE
8
0
10
12.593
20
7.604
11
12.593
21
8.616
0
0
LINE
8
0
10
12.593
20
8.616
11
12.593
21
9.104
0
0
LINE
8
0
10
12.593
20
9.104
11
12.593
21
9.307
0
0
LINE
8
0
10
12.593
20
9.307
11
12.593
21
9.404
0
0
LINE
8
0
10
12.593
20
9.404
11
12.593
21
10.416
0
0
LINE
8
0
10
12.593
20
10.416
11
12.593
21
10.904
0
0
LINE
8
0
10
12.593
20
10.904
11
12.593
21
11.107
0
0
LINE
8
0
10
12.593
20
11.107
11
12.593
21
11.204
0
0
LINE
8
0
10
12.593
20
11.204
11
12.593
21
12.216
0
0
LINE
8
0
10
12.593
20
12.216
11
12.593
21
12.704
0
0
LINE
8
0
10
12.593
20
12.704
11
12.593
21
12.907
0
0
LINE
8
0
10
12.593
20
12.907
11
12.593
21
13.004
0
0
LINE
8
0
10
12.593
20
13.004
11
12.593
21
14.016
0
0
LINE
8
0
10
12.593
20
14.016
11
12.593
21
14.433
0
0
LINE
8
0
10
12.593
20
14.433
11
12.593
21
14.635
0
0
LINE
8
0
10
13.093
20
0.455
11
13.093
21
0.553
0
0
LINE
8
0
10
13.093
20
0.455
11
13.093
21
0.553
0
0
LINE
8
0
10
13.093
20
0.553
11
13.093
21
1.416
0
0
LINE
8
0
10
13.093
20
1.416
11
13.093
21
1.905
0
0
LINE
8
0
10
13.093
20
1.905
11
13.093
21
2.107
0
0
LINE
8
0
10
13.093
20
2.107
11
13.093
21
2.204
0
0
LINE
8
0
10
13.093
20
2.204
11
13.093
21
3.216
0
0
LINE
8
0
10
13.093
20
3.216
11
13.093
21
3.705
0
0
LINE
8
0
10
13.093
20
3.705
11
13.093
21
3.907
0
0
LINE
8
0
10
13.093
20
3.907
11
13.093
21
4.004
0
0
LINE
8
0
10
13.093
20
4.004
11
13.093
21
5.016
0
0
LINE
8
0
10
13.093
20
5.016
11
13.093
21
5.505
0
0
LINE
8
0
10
13.093
20
5.505
11
13.093
21
5.707
0
0
LINE
8
0
10
13.093
20
5.707
11
13.093
21
5.804
0
0
LINE
8
0
10
13.093
20
5.804
11
13.093
21
6.816
0
0
LINE
8
0
10
13.093
20
6.816
11
13.093
21
7.305
0
0
LINE
8
0
10
13.093
20
7.305
11
13.093
21
7.507
0
0
LINE
8
0
10
13.093
20
7.507
11
13.093
21
7.604
0
0
LINE
8
0
10
13.093
20
7.604
11
13.093
21
8.616
0
0
LINE
8
0
10
13.093
20
8.616
11
13.093
21
9.105
0
0
LINE
8
0
10
13.093
20
9.105
11
13.093
21
9.307
0
0
LINE
8
0
10
13.093
20
9.307
11
13.093
21
9.404
0
0
LINE
8
0
10
13.093
20
9.404
11
13.093
21
10.416
0
0
LINE
8
0
10
13.093
20
10.416
11
13.093
21
10.905
0
0
LINE
8
0
10
13.093
20
10.905
11
13.093
21
11.107
0
0
LINE
8
0
10
13.093
20
11.107
11
13.093
21
11.204
0
0
LINE
8
0
10
13.093
20
11.204
11
13.093
21
12.216
0
0
LINE
8
0
10
13.093
20
12.216
11
13.093
21
12.705
0
0
LINE
8
0
10
13.093
20
12.705
11
13.093
21
12.907
0
0
LINE
8
0
10
13.093
20
12.907
11
13.093
21
13.004
0
0
LINE
8
0
10
13.093
20
13.004
11
13.093
21
14.016
0
0
LINE
8
0
10
13.093
20
14.016
11
13.093
21
14.434
0
0
LINE
8
0
10
13.093
20
14.434
11
13.093
21
14.635
0
0
LINE
8
0
10
13.093
20
14.635
11
13.093
21
14.636
0
0
LINE
8
0
10
13.593
20
0.523
11
13.593
21
0.621
0
0
LINE
8
0
10
13.593
20
0.523
11
13.593
21
0.621
0
0
LINE
8
0
10
13.593
20
0.621
11
13.593
21
1.439
0
0
LINE
8
0
10
13.593
20
1.439
11
13.593
21
1.927
0
0
LINE
8
0
10
13.593
20
1.927
11
13.593
21
2.130
0
0
LINE
8
0
10
13.593
20
2.130
11
13.593
21
2.227
0
0
LINE
8
0
10
13.593
20
2.227
11
13.593
21
3.239
0
0
LINE
8
0
10
13.593
20
3.239
11
13.593
21
3.727
0
0
LINE
8
0
10
13.593
20
3.727
11
13.593
21
3.930
0
0
LINE
8
0
10
13.593
20
3.930
11
13.593
21
4.027
0
0
LINE
8
0
10
13.593
20
4.027
11
13.593
21
5.039
0
0
LINE
8
0
10
13.593
20
5.039
11
13.593
21
5.527
0
0
LINE
8
0
10
13.593
20
5.527
11
13.593
21
5.730
0
0
LINE
8
0
10
13.593
20
5.730
11
13.593
21
5.827
0
0
LINE
8
0
10
13.593
20
5.827
11
13.593
21
6.839
0
0
LINE
8
0
10
13.593
20
6.839
11
13.593
21
7.327
0
0
LINE
8
0
10
13.593
20
7.327
11
13.593
21
7.530
0
0
LINE
8
0
10
13.593
20
7.530
11
13.593
21
7.627
0
0
LINE
8
0
10
13.593
20
7.627
11
13.593
21
8.639
0
0
LINE
8
0
10
13.593
20
8.639
11
13.593
21
9.127
0
0
LINE
8
0
10
13.593
20
9.127
11
13.593
21
9.330
0
0
LINE
8
0
10
13.593
20
9.330
11
13.593
21
9.427
0
0
LINE
8
0
10
13.593
20
9.427
11
13.593
21
10.439
0
0
LINE
8
0
10
13.593
20
10.439
11
13.593
21
10.927
0
0
LINE
8
0
10
13.593
20
10.927
11
13.593
21
11.130
0
0
LINE
8
0
10
13.593
20
11.130
11
13.593
21
11.227
0
0
LINE
8
0
10
13.593
20
11.227
11
13.593
21
12.239
0
0
LINE
8
0
10
13.593
20
12.239
11
13.593
21
12.727
0
0
LINE
8
0
10
13.593
20
12.727
11
13.593
21
12.930
0
0
LINE
8
0
10
13.593
20
12.930
11
13.593
21
13.027
0
0
LINE
8
0
10
13.593
20
13.027
11
13.593
21
14.039
0
0
LINE
8
0
10
13.593
20
14.039
11
13.593
21
14.434
0
0
LINE
8
0
10
13.593
20
14.434
11
13.593
21
14.636
0
0
LINE
8
0
10
14.093
20
0.654
11
14.093
21
0.752
0
0
LINE
8
0
10
14.093
20
0.654
11
14.093
21
0.752
0
0
LINE
8
0
10
14.093
20
0.752
11
14.093
21
1.482
0
0
LINE
8
0
10
14.093
20
1.482
11
14.093
21
1.971
0
0
LINE
8
0
10
14.093
20
1.971
11
14.093
21
2.173
0
0
LINE
8
0
10
14.093
20
2.173
11
14.093
21
2.271
0
0
LINE
8
0
10
14.093
20
2.271
11
14.093
21
3.282
0
0
LINE
8
0
10
14.093
20
3.282
11
14.093
21
3.771
0
0
LINE
8
0
10
14.093
20
3.771
11
14.093
21
3.973
0
0
LINE
8
0
10
14.093
20
3.973
11
14.093
21
4.071
0
0
LINE
8
0
10
14.093
20
4.071
11
14.093
21
5.082
0
0
LINE
8
0
10
14.093
20
5.082
11
14.093
21
5.571
0
0
LINE
8
0
10
14.093
20
5.571
11
14.093
21
5.773
0
0
LINE
8
0
10
14.093
20
5.773
11
14.093
21
5.871
0
0
LINE
8
0
10
14.093
20
5.871
11
14.093
21
6.882
0
0
LINE
8
0
10
14.093
20
6.882
11
14.093
21
7.371
0
0
LINE
8
0
10
14.093
20
7.371
11
14.093
21
7.573
0
0
LINE
8
0
10
14.093
20
7.573
11
14.093
21
7.671
0
0
LINE
8
0
10
14.093
20
7.671
11
14.093
21
8.682
0
0
LINE
8
0
10
14.093
20
8.682
11
14.093
21
9.171
0
0
LINE
8
0
10
14.093
20
9.171
11
14.093
21
9.373
0
0
LINE
8
0
10
14.093
20
9.373
11
14.093
21
9.471
0
0
LINE
8
0
10
14.093
20
9.471
11
14.093
21
10.482
0
0
LINE
8
0
10
14.093
20
10.482
11
14.093
21
10.971
0
0
LINE
8
0
10
14.093
20
10.971
11
14.093
21
11.173
0
0
LINE
8
0
10
14.093
20
11.173
11
14.093
21
11.271
0
0
LINE
8
0
10
14.093
20
11.271
11
14.093
21
12.282
0
0
LINE
8
0
10
14.093
20
12.282
11
14.093
21
12.771
0
0
LINE
8
0
10
14.093
20
12.771
11
14.093
21
12.973
0
0
LINE
8
0
10
14.093
20
12.973
11
14.093
21
13.071
0
0
LINE
8
0
10
14.093
20
13.071
11
14.093
21
14.082
0
0
LINE
8
0
10
14.093
20
14.082
11
14.093
21
14.435
0
0
LINE
8
0
10
14.093
20
14.435
11
14.093
21
14.637
0
0
LINE
8
0
10
14.593
20
1.226
11
14.593
21
1.324
0
0
LINE
8
0
10
14.593
20
1.226
11
14.593
21
1.324
0
0
LINE
8
0
10
14.593
20
1.324
11
14.593
21
1.669
0
0
LINE
8
0
10
14.593
20
1.669
11
14.593
21
1.871
0
0
LINE
8
0
10
14.593
20
1.871
11
14.593
21
2.360
0
0
LINE
8
0
10
14.593
20
2.360
11
14.593
21
3.372
0
0
LINE
8
0
10
14.593
20
3.372
11
14.593
21
3.469
0
0
LINE
8
0
10
14.593
20
3.469
11
14.593
21
3.671
0
0
LINE
8
0
10
14.593
20
3.671
11
14.593
21
4.160
0
0
LINE
8
0
10
14.593
20
4.160
11
14.593
21
5.172
0
0
LINE
8
0
10
14.593
20
5.172
11
14.593
21
5.269
0
0
LINE
8
0
10
14.593
20
5.269
11
14.593
21
5.471
0
0
LINE
8
0
10
14.593
20
5.471
11
14.593
21
5.960
0
0
LINE
8
0
10
14.593
20
5.960
11
14.593
21
6.972
0
0
LINE
8
0
10
14.593
20
6.972
11
14.593
21
7.069
0
0
LINE
8
0
10
14.593
20
7.069
11
14.593
21
7.271
0
0
LINE
8
0
10
14.593
20
7.271
11
14.593
21
7.760
0
0
LINE
8
0
10
14.593
20
7.760
11
14.593
21
8.772
0
0
LINE
8
0
10
14.593
20
8.772
11
14.593
21
8.869
0
0
LINE
8
0
10
14.593
20
8.869
11
14.593
21
9.071
0
0
LINE
8
0
10
14.593
20
9.071
11
14.593
21
9.560
0
0
LINE
8
0
10
14.593
20
9.560
11
14.593
21
10.572
0
0
LINE
8
0
10
14.593
20
10.572
11
14.593
21
10.669
0
0
LINE
8
0
10
14.593
20
10.669
11
14.593
21
10.871
0
0
LINE
8
0
10
14.593
20
10.871
11
14.593
21
11.360
0
0
LINE
8
0
10
14.593
20
11.360
11
14.593
21
12.372
0
0
LINE
8
0
10
14.593
20
12.372
11
14.593
21
12.469
0
0
LINE
8
0
10
14.593
20
12.469
11
14.593
21
12.671
0
0
LINE
8
0
10
14.593
20
12.671
11
14.593
21
13.160
0
0
LINE
8
0
10
14.593
20
13.160
11
14.593
21
14.172
0
0
LINE
8
0
10
14.593
20
14.172
11
14.593
21
14.269
0
0
LINE
8
0
10
14.593
20
14.269
11
14.593
21
14.436
0
0
LINE
8
0
10
14.593
20
14.436
11
14.593
21
14.638
0
0
LINE
8
0
10
1.234
20
0.592
11
1.266
21
0.592
0
0
LINE
8
0
10
1.234
20
0.592
11
1.266
21
0.592
0
0
LINE
8
0
10
1.266
20
0.592
11
1.468
21
0.592
0
0
LINE
8
0
10
1.468
20
0.592
11
1.957
21
0.592
0
0
LINE
8
0
10
1.957
20
0.592
11
2.968
21
0.592
0
0
LINE
8
0
10
2.968
20
0.592
11
3.066
21
0.592
0
0
LINE
8
0
10
3.066
20
0.592
11
3.268
21
0.592
0
0
LINE
8
0
10
3.268
20
0.592
11
3.757
21
0.592
0
0
LINE
8
0
10
3.757
20
0.592
11
4.768
21
0.592
0
0
LINE
8
0
10
4.768
20
0.592
11
4.866
21
0.592
0
0
LINE
8
0
10
4.866
20
0.592
11
5.068
21
0.592
0
0
LINE
8
0
10
5.068
20
0.592
11
5.557
21
0.592
0
0
LINE
8
0
10
5.557
20
0.592
11
6.568
21
0.592
0
0
LINE
8
0
10
6.568
20
0.592
11
6.666
21
0.592
0
0
LINE
8
0
10
6.666
20
0.592
11
6.868
21
0.592
0
0
LINE
8
0
10
6.868
20
0.592
11
7.063
21
0.592
0
0
LINE
8
0
10
7.063
20
0.592
11
7.264
21
0.592
0
0
LINE
8
0
10
7.264
20
0.592
11
7.753
21
0.592
0
0
LINE
8
0
10
7.753
20
0.592
11
8.765
21
0.592
0
0
LINE
8
0
10
8.765
20
0.592
11
8.863
21
0.592
0
0
LINE
8
0
10
8.863
20
0.592
11
9.064
21
0.592
0
0
LINE
8
0
10
9.064
20
0.592
11
9.553
21
0.592
0
0
LINE
8
0
10
9.553
20
0.592
11
10.565
21
0.592
0
0
LINE
8
0
10
10.565
20
0.592
11
10.663
21
0.592
0
0
LINE
8
0
10
10.663
20
0.592
11
10.864
21
0.592
0
0
LINE
8
0
10
10.864
20
0.592
11
11.353
21
0.592
0
0
LINE
8
0
10
11.353
20
0.592
11
12.365
21
0.592
0
0
LINE
8
0
10
12.365
20
0.592
11
12.463
21
0.592
0
0
LINE
8
0
10
12.463
20
0.592
11
12.664
21
0.592
0
0
LINE
8
0
10
12.664
20
0.592
11
13.153
21
0.592
0
0
LINE
8
0
10
13.153
20
0.592
11
13.833
21
0.592
0
0
LINE
8
0
10
13.833
20
0.592
11
13.931
21
0.592
0
0
LINE
8
0
10
0.651
20
1.092
11
0.853
21
1.092
0
0
LINE
8
0
10
0.651
20
1.092
11
0.853
21
1.092
0
0
LINE
8
0
10
0.853
20
1.092
11
1.175
21
1.092
0
0
LINE
8
0
10
1.175
20
1.092
11
2.186
21
1.092
0
0
LINE
8
0
10
2.186
20
1.092
11
2.284
21
1.092
0
0
LINE
8
0
10
2.284
20
1.092
11
2.486
21
1.092
0
0
LINE
8
0
10
2.486
20
1.092
11
2.975
21
1.092
0
0
LINE
8
0
10
2.975
20
1.092
11
3.986
21
1.092
0
0
LINE
8
0
10
3.986
20
1.092
11
4.084
21
1.092
0
0
LINE
8
0
10
4.084
20
1.092
11
4.286
21
1.092
0
0
LINE
8
0
10
4.286
20
1.092
11
4.775
21
1.092
0
0
LINE
8
0
10
4.775
20
1.092
11
5.786
21
1.092
0
0
LINE
8
0
10
5.786
20
1.092
11
5.884
21
1.092
0
0
LINE
8
0
10
5.884
20
1.092
11
6.086
21
1.092
0
0
LINE
8
0
10
6.086
20
1.092
11
6.575
21
1.092
0
0
LINE
8
0
10
6.575
20
1.092
11
7.586
21
1.092
0
0
LINE
8
0
10
7.586
20
1.092
11
7.684
21
1.092
0
0
LINE
8
0
10
7.684
20
1.092
11
7.886
21
1.092
0
0
LINE
8
0
10
7.886
20
1.092
11
8.375
21
1.092
0
0
LINE
8
0
10
8.375
20
1.092
11
9.386
21
1.092
0
0
LINE
8
0
10
9.386
20
1.092
11
9.484
21
1.092
0
0
LINE
8
0
10
9.484
20
1.092
11
9.686
21
1.092
0
0
LINE
8
0
10
9.686
20
1.092
11
10.175
21
1.092
0
0
LINE
8
0
10
10.175
20
1.092
11
11.186
21
1.092
0
0
LINE
8
0
10
11.186
20
1.092
11
11.284
21
1.092
0
0
LINE
8
0
10
11.284
20
1.092
11
11.486
21
1.092
0
0
LINE
8
0
10
11.486
20
1.092
11
11.975
21
1.092
0
0
LINE
8
0
10
11.975
20
1.092
11
12.986
21
1.092
0
0
LINE
8
0
10
12.986
20
1.092
11
13.084
21
1.092
0
0
LINE
8
0
10
13.084
20
1.092
11
13.286
21
1.092
0
0
LINE
8
0
10
13.286
20
1.092
11
13.775
21
1.092
0
0
LINE
8
0
10
13.775
20
1.092
11
14.439
21
1.092
0
0
LINE
8
0
10
14.439
20
1.092
11
14.537
21
1.092
0
0
LINE
8
0
10
0.519
20
1.592
11
0.721
21
1.592
0
0
LINE
8
0
10
0.519
20
1.592
11
0.721
21
1.592
0
0
LINE
8
0
10
0.721
20
1.592
11
1.127
21
1.592
0
0
LINE
8
0
10
1.127
20
1.592
11
2.138
21
1.592
0
0
LINE
8
0
10
2.138
20
1.592
11
2.236
21
1.592
0
0
LINE
8
0
10
2.236
20
1.592
11
2.438
21
1.592
0
0
LINE
8
0
10
2.438
20
1.592
11
2.927
21
1.592
0
0
LINE
8
0
10
2.927
20
1.592
11
3.938
21
1.592
0
0
LINE
8
0
10
3.938
20
1.592
11
4.036
21
1.592
0
0
LINE
8
0
10
4.036
20
1.592
11
4.238
21
1.592
0
0
LINE
8
0
10
4.238
20
1.592
11
4.727
21
1.592
0
0
LINE
8
0
10
4.727
20
1.592
11
5.738
21
1.592
0
0
LINE
8
0
10
5.738
20
1.592
11
5.836
21
1.592
0
0
LINE
8
0
10
5.836
20
1.592
11
6.038
21
1.592
0
0
LINE
8
0
10
6.038
20
1.592
11
6.527
21
1.592
0
0
LINE
8
0
10
6.527
20
1.592
11
7.538
21
1.592
0
0
LINE
8
0
10
7.538
20
1.592
11
7.636
21
1.592
0
0
LINE
8
0
10
7.636
20
1.592
11
7.838
21
1.592
0
0
LINE
8
0
10
7.838
20
1.592
11
8.327
21
1.592
0
0
LINE
8
0
10
8.327
20
1.592
11
9.338
21
1.592
0
0
LINE
8
0
10
9.338
20
1.592
11
9.436
21
1.592
0
0
LINE
8
0
10
9.436
20
1.592
11
9.638
21
1.592
0
0
LINE
8
0
10
9.638
20
1.592
11
10.127
21
1.592
0
0
LINE
8
0
10
10.127
20
1.592
11
11.138
21
1.592
0
0
LINE
8
0
10
11.138
20
1.592
11
11.236
21
1.592
0
0
LINE
8
0
10
11.236
20
1.592
11
11.438
21
1.592
0
0
LINE
8
0
10
11.438
20
1.592
11
11.927
21
1.592
0
0
LINE
8
0
10
11.927
20
1.592
11
12.938
21
1.592
0
0
LINE
8
0
10
12.938
20
1.592
11
13.036
21
1.592
0
0
LINE
8
0
10
13.036
20
1.592
11
13.238
21
1.592
0
0
LINE
8
0
10
13.238
20
1.592
11
13.727
21
1.592
0
0
LINE
8
0
10
13.727
20
1.592
11
14.566
21
1.592
0
0
LINE
8
0
10
14.566
20
1.592
11
14.664
21
1.592
0
0
LINE
8
0
10
0.456
20
2.092
11
0.658
21
2.092
0
0
LINE
8
0
10
0.456
20
2.092
11
0.658
21
2.092
0
0
LINE
8
0
10
0.658
20
2.092
11
1.105
21
2.092
0
0
LINE
8
0
10
1.105
20
2.092
11
2.117
21
2.092
0
0
LINE
8
0
10
2.117
20
2.092
11
2.214
21
2.092
0
0
LINE
8
0
10
2.214
20
2.092
11
2.417
21
2.092
0
0
LINE
8
0
10
2.417
20
2.092
11
2.905
21
2.092
0
0
LINE
8
0
10
2.905
20
2.092
11
3.917
21
2.092
0
0
LINE
8
0
10
3.917
20
2.092
11
4.014
21
2.092
0
0
LINE
8
0
10
4.014
20
2.092
11
4.217
21
2.092
0
0
LINE
8
0
10
4.217
20
2.092
11
4.705
21
2.092
0
0
LINE
8
0
10
4.705
20
2.092
11
5.717
21
2.092
0
0
LINE
8
0
10
5.717
20
2.092
11
5.814
21
2.092
0
0
LINE
8
0
10
5.814
20
2.092
11
6.017
21
2.092
0
0
LINE
8
0
10
6.017
20
2.092
11
6.505
21
2.092
0
0
LINE
8
0
10
6.505
20
2.092
11
7.517
21
2.092
0
0
LINE
8
0
10
7.517
20
2.092
11
7.614
21
2.092
0
0
LINE
8
0
10
7.614
20
2.092
11
7.817
21
2.092
0
0
LINE
8
0
10
7.817
20
2.092
11
8.305
21
2.092
0
0
LINE
8
0
10
8.305
20
2.092
11
9.317
21
2.092
0
0
LINE
8
0
10
9.317
20
2.092
11
9.414
21
2.092
0
0
LINE
8
0
10
9.414
20
2.092
11
9.617
21
2.092
0
0
LINE
8
0
10
9.617
20
2.092
11
10.105
21
2.092
0
0
LINE
8
0
10
10.105
20
2.092
11
11.117
21
2.092
0
0
LINE
8
0
10
11.117
20
2.092
11
11.214
21
2.092
0
0
LINE
8
0
10
11.214
20
2.092
11
11.417
21
2.092
0
0
LINE
8
0
10
11.417
20
2.092
11
11.905
21
2.092
0
0
LINE
8
0
10
11.905
20
2.092
11
12.917
21
2.092
0
0
LINE
8
0
10
12.917
20
2.092
11
13.014
21
2.092
0
0
LINE
8
0
10
13.014
20
2.092
11
13.217
21
2.092
0
0
LINE
8
0
10
13.217
20
2.092
11
13.705
21
2.092
0
0
LINE
8
0
10
13.705
20
2.092
11
14.630
21
2.092
0
0
LINE
8
0
10
14.630
20
2.092
11
14.728
21
2.092
0
0
LINE
8
0
10
0.450
20
2.592
11
0.652
21
2.592
0
0
LINE
8
0
10
0.450
20
2.592
11
0.652
21
2.592
0
0
LINE
8
0
10
0.652
20
2.592
11
1.105
21
2.592
0
0
LINE
8
0
10
1.105
20
2.592
11
2.117
21
2.592
0
0
LINE
8
0
10
2.117
20
2.592
11
2.215
21
2.592
0
0
LINE
8
0
10
2.215
20
2.592
11
2.416
21
2.592
0
0
LINE
8
0
10
2.416
20
2.592
11
2.905
21
2.592
0
0
LINE
8
0
10
2.905
20
2.592
11
3.917
21
2.592
0
0
LINE
8
0
10
3.917
20
2.592
11
4.015
21
2.592
0
0
LINE
8
0
10
4.015
20
2.592
11
4.216
21
2.592
0
0
LINE
8
0
10
4.216
20
2.592
11
4.705
21
2.592
0
0
LINE
8
0
10
4.705
20
2.592
11
5.717
21
2.592
0
0
LINE
8
0
10
5.717
20
2.592
11
5.815
21
2.592
0
0
LINE
8
0
10
5.815
20
2.592
11
6.016
21
2.592
0
0
LINE
8
0
10
6.016
20
2.592
11
6.505
21
2.592
0
0
LINE
8
0
10
6.505
20
2.592
11
7.517
21
2.592
0
0
LINE
8
0
10
7.517
20
2.592
11
7.615
21
2.592
0
0
LINE
8
0
10
7.615
20
2.592
11
7.816
21
2.592
0
0
LINE
8
0
10
7.816
20
2.592
11
8.305
21
2.592
0
0
LINE
8
0
10
8.305
20
2.592
11
9.317
21
2.592
0
0
LINE
8
0
10
9.317
20
2.592
11
9.415
21
2.592
0
0
LINE
8
0
10
9.415
20
2.592
11
9.616
21
2.592
0
0
LINE
8
0
10
9.616
20
2.592
11
10.105
21
2.592
0
0
LINE
8
0
10
10.105
20
2.592
11
11.117
21
2.592
0
0
LINE
8
0
10
11.117
20
2.592
11
11.215
21
2.592
0
0
LINE
8
0
10
11.215
20
2.592
11
11.416
21
2.592
0
0
LINE
8
0
10
11.416
20
2.592
11
11.905
21
2.592
0
0
LINE
8
0
10
11.905
20
2.592
11
12.917
21
2.592
0
0
LINE
8
0
10
12.917
20
2.592
11
13.015
21
2.592
0
0
LINE
8
0
10
13.015
20
2.592
11
13.216
21
2.592
0
0
LINE
8
0
10
13.216
20
2.592
11
13.705
21
2.592
0
0
LINE
8
0
10
13.705
20
2.592
11
14.641
21
2.592
0
0
LINE
8
0
10
14.641
20
2.592
11
14.739
21
2.592
0
0
LINE
8
0
10
0.463
20
3.092
11
0.665
21
3.092
0
0
LINE
8
0
10
0.463
20
3.092
11
0.665
21
3.092
0
0
LINE
8
0
10
0.665
20
3.092
11
1.108
21
3.092
0
0
LINE
8
0
10
1.108
20
3.092
11
2.119
21
3.092
0
0
LINE
8
0
10
2.119
20
3.092
11
2.217
21
3.092
0
0
LINE
8
0
10
2.217
20
3.092
11
2.419
21
3.092
0
0
LINE
8
0
10
2.419
20
3.092
11
2.908
21
3.092
0
0
LINE
8
0
10
2.908
20
3.092
11
3.919
21
3.092
0
0
LINE
8
0
10
3.919
20
3.092
11
4.017
21
3.092
0
0
LINE
8
0
10
4.017
20
3.092
11
4.219
21
3.092
0
0
LINE
8
0
10
4.219
20
3.092
11
4.708
21
3.092
0
0
LINE
8
0
10
4.708
20
3.092
11
5.719
21
3.092
0
0
LINE
8
0
10
5.719
20
3.092
11
5.817
21
3.092
0
0
LINE
8
0
10
5.817
20
3.092
11
6.019
21
3.092
0
0
LINE
8
0
10
6.019
20
3.092
11
6.508
21
3.092
0
0
LINE
8
0
10
6.508
20
3.092
11
7.519
21
3.092
0
0
LINE
8
0
10
7.519
20
3.092
11
7.617
21
3.092
0
0
LINE
8
0
10
7.617
20
3.092
11
7.819
21
3.092
0
0
LINE
8
0
10
7.819
20
3.092
11
8.308
21
3.092
0
0
LINE
8
0
10
8.308
20
3.092
11
9.319
21
3.092
0
0
LINE
8
0
10
9.319
20
3.092
11
9.417
21
3.092
0
0
LINE
8
0
10
9.417
20
3.092
11
9.619
21
3.092
0
0
LINE
8
0
10
9.619
20
3.092
11
10.108
21
3.092
0
0
LINE
8
0
10
10.108
20
3.092
11
11.119
21
3.092
0
0
LINE
8
0
10
11.119
20
3.092
11
11.217
21
3.092
0
0
LINE
8
0
10
11.217
20
3.092
11
11.419
21
3.092
0
0
LINE
8
0
10
11.419
20
3.092
11
11.908
21
3.092
0
0
LINE
8
0
10
11.908
20
3.092
11
12.919
21
3.092
0
0
LINE
8
0
10
12.919
20
3.092
11
13.017
21
3.092
0
0
LINE
8
0
10
13.017
20
3.092
11
13.219
21
3.092
0
0
LINE
8
0
10
13.219
20
3.092
11
13.708
21
3.092
0
0
LINE
8
0
10
13.708
20
3.092
11
14.624
21
3.092
0
0
LINE
8
0
10
14.624
20
3.092
11
14.722
21
3.092
0
0
LINE
8
0
10
0.476
20
3.592
11
0.678
21
3.592
0
0
LINE
8
0
10
0.476
20
3.592
11
0.678
21
3.592
0
0
LINE
8
0
10
0.678
20
3.592
11
1.111
21
3.592
0
0
LINE
8
0
10
1.111
20
3.592
11
2.122
21
3.592
0
0
LINE
8
0
10
2.122
20
3.592
11
2.220
21
3.592
0
0
LINE
8
0
10
2.220
20
3.592
11
2.422
21
3.592
0
0
LINE
8
0
10
2.422
20
3.592
11
2.911
21
3.592
0
0
LINE
8
0
10
2.911
20
3.592
11
3.922
21
3.592
0
0
LINE
8
0
10
3.922
20
3.592
11
4.020
21
3.592
0
0
LINE
8
0
10
4.020
20
3.592
11
4.222
21
3.592
0
0
LINE
8
0
10
4.222
20
3.592
11
4.711
21
3.592
0
0
LINE
8
0
10
4.711
20
3.592
11
5.722
21
3.592
0
0
LINE
8
0
10
5.722
20
3.592
11
5.820
21
3.592
0
0
LINE
8
0
10
5.820
20
3.592
11
6.022
21
3.592
0
0
LINE
8
0
10
6.022
20
3.592
11
6.511
21
3.592
0
0
LINE
8
0
10
6.511
20
3.592
11
7.522
21
3.592
0
0
LINE
8
0
10
7.522
20
3.592
11
7.620
21
3.592
0
0
LINE
8
0
10
7.620
20
3.592
11
7.822
21
3.592
0
0
LINE
8
0
10
7.822
20
3.592
11
8.311
21
3.592
0
0
LINE
8
0
10
8.311
20
3.592
11
9.322
21
3.592
0
0
LINE
8
0
10
9.322
20
3.592
11
9.420
21
3.592
0
0
LINE
8
0
10
9.420
20
3.592
11
9.622
21
3.592
0
0
LINE
8
0
10
9.622
20
3.592
11
10.111
21
3.592
0
0
LINE
8
0
10
10.111
20
3.592
11
11.122
21
3.592
0
0
LINE
8
0
10
11.122
20
3.592
11
11.220
21
3.592
0
0
LINE
8
0
10
11.220
20
3.592
11
11.422
21
3.592
0
0
LINE
8
0
10
11.422
20
3.592
11
11.911
21
3.592
0
0
LINE
8
0
10
11.911
20
3.592
11
12.922
21
3.592
0
0
LINE
8
0
10
12.922
20
3.592
11
13.020
21
3.592
0
0
LINE
8
0
10
13.020
20
3.592
11
13.222
21
3.592
0
0
LINE
8
0
10
13.222
20
3.592
11
13.711
21
3.592
0
0
LINE
8
0
10
13.711
20
3.592
11
14.606
21
3.592
0
0
LINE
8
0
10
14.606
20
3.592
11
14.704
21
3.592
0
0
LINE
8
0
10
0.488
20
4.092
11
0.690
21
4.092
0
0
LINE
8
0
10
0.488
20
4.092
11
0.690
21
4.092
0
0
LINE
8
0
10
0.690
20
4.092
11
1.113
21
4.092
0
0
LINE
8
0
10
1.113
20
4.092
11
2.125
21
4.092
0
0
LINE
8
0
10
2.125
20
4.092
11
2.222
21
4.092
0
0
LINE
8
0
10
2.222
20
4.092
11
2.424
21
4.092
0
0
LINE
8
0
10
2.424
20
4.092
11
2.913
21
4.092
0
0
LINE
8
0
10
2.913
20
4.092
11
3.925
21
4.092
0
0
LINE
8
0
10
3.925
20
4.092
11
4.022
21
4.092
0
0
LINE
8
0
10
4.022
20
4.092
11
4.224
21
4.092
0
0
LINE
8
0
10
4.224
20
4.092
11
4.713
21
4.092
0
0
LINE
8
0
10
4.713
20
4.092
11
5.725
21
4.092
0
0
LINE
8
0
10
5.725
20
4.092
11
5.822
21
4.092
0
0
LINE
8
0
10
5.822
20
4.092
11
6.024
21
4.092
0
0
LINE
8
0
10
6.024
20
4.092
11
6.513
21
4.092
0
0
LINE
8
0
10
6.513
20
4.092
11
7.525
21
4.092
0
0
LINE
8
0
10
7.525
20
4.092
11
7.622
21
4.092
0
0
LINE
8
0
10
7.622
20
4.092
11
7.824
21
4.092
0
0
LINE
8
0
10
7.824
20
4.092
11
8.313
21
4.092
0
0
LINE
8
0
10
8.313
20
4.092
11
9.325
21
4.092
0
0
LINE
8
0
10
9.325
20
4.092
11
9.422
21
4.092
0
0
LINE
8
0
10
9.422
20
4.092
11
9.624
21
4.092
0
0
LINE
8
0
10
9.624
20
4.092
11
10.113
21
4.092
0
0
LINE
8
0
10
10.113
20
4.092
11
11.125
21
4.092
0
0
LINE
8
0
10
11.125
20
4.092
11
11.222
21
4.092
0
0
LINE
8
0
10
11.222
20
4.092
11
11.424
21
4.092
0
0
LINE
8
0
10
11.424
20
4.092
11
11.913
21
4.092
0
0
LINE
8
0
10
11.913
20
4.092
11
12.925
21
4.092
0
0
LINE
8
0
10
12.925
20
4.092
11
13.022
21
4.092
0
0
LINE
8
0
10
13.022
20
4.092
11
13.224
21
4.092
0
0
LINE
8
0
10
13.224
20
4.092
11
13.713
21
4.092
0
0
LINE
8
0
10
13.713
20
4.092
11
14.589
21
4.092
0
0
LINE
8
0
10
14.589
20
4.092
11
14.687
21
4.092
0
0
LINE
8
0
10
0.501
20
4.592
11
0.703
21
4.592
0
0
LINE
8
0
10
0.501
20
4.592
11
0.703
21
4.592
0
0
LINE
8
0
10
0.703
20
4.592
11
1.116
21
4.592
0
0
LINE
8
0
10
1.116
20
4.592
11
2.128
21
4.592
0
0
LINE
8
0
10
2.128
20
4.592
11
2.225
21
4.592
0
0
LINE
8
0
10
2.225
20
4.592
11
2.428
21
4.592
0
0
LINE
8
0
10
2.428
20
4.592
11
2.916
21
4.592
0
0
LINE
8
0
10
2.916
20
4.592
11
3.928
21
4.592
0
0
LINE
8
0
10
3.928
20
4.592
11
4.025
21
4.592
0
0
LINE
8
0
10
4.025
20
4.592
11
4.228
21
4.592
0
0
LINE
8
0
10
4.228
20
4.592
11
4.716
21
4.592
0
0
LINE
8
0
10
4.716
20
4.592
11
5.728
21
4.592
0
0
LINE
8
0
10
5.728
20
4.592
11
5.825
21
4.592
0
0
LINE
8
0
10
5.825
20
4.592
11
6.028
21
4.592
0
0
LINE
8
0
10
6.028
20
4.592
11
6.516
21
4.592
0
0
LINE
8
0
10
6.516
20
4.592
11
7.528
21
4.592
0
0
LINE
8
0
10
7.528
20
4.592
11
7.625
21
4.592
0
0
LINE
8
0
10
7.625
20
4.592
11
7.828
21
4.592
0
0
LINE
8
0
10
7.828
20
4.592
11
8.316
21
4.592
0
0
LINE
8
0
10
8.316
20
4.592
11
9.328
21
4.592
0
0
LINE
8
0
10
9.328
20
4.592
11
9.425
21
4.592
0
0
LINE
8
0
10
9.425
20
4.592
11
9.628
21
4.592
0
0
LINE
8
0
10
9.628
20
4.592
11
10.116
21
4.592
0
0
LINE
8
0
10
10.116
20
4.592
11
11.128
21
4.592
0
0
LINE
8
0
10
11.128
20
4.592
11
11.225
21
4.592
0
0
LINE
8
0
10
11.225
20
4.592
11
11.428
21
4.592
0
0
LINE
8
0
10
11.428
20
4.592
11
11.916
21
4.592
0
0
LINE
8
0
10
11.916
20
4.592
11
12.928
21
4.592
0
0
LINE
8
0
10
12.928
20
4.592
11
13.025
21
4.592
0
0
LINE
8
0
10
13.025
20
4.592
11
13.228
21
4.592
0
0
LINE
8
0
10
13.228
20
4.592
11
13.716
21
4.592
0
0
LINE
8
0
10
13.716
20
4.592
11
14.571
21
4.592
0
0
LINE
8
0
10
14.571
20
4.592
11
14.669
21
4.592
0
0
LINE
8
0
10
0.513
20
5.092
11
0.715
21
5.092
0
0
LINE
8
0
10
0.513
20
5.092
11
0.715
21
5.092
0
0
LINE
8
0
10
0.715
20
5.092
11
1.119
21
5.092
0
0
LINE
8
0
10
1.119
20
5.092
11
2.131
21
5.092
0
0
LINE
8
0
10
2.131
20
5.092
11
2.228
21
5.092
0
0
LINE
8
0
10
2.228
20
5.092
11
2.430
21
5.092
0
0
LINE
8
0
10
2.430
20
5.092
11
2.919
21
5.092
0
0
LINE
8
0
10
2.919
20
5.092
11
3.931
21
5.092
0
0
LINE
8
0
10
3.931
20
5.092
11
4.028
21
5.092
0
0
LINE
8
0
10
4.028
20
5.092
11
4.230
21
5.092
0
0
LINE
8
0
10
4.230
20
5.092
11
4.719
21
5.092
0
0
LINE
8
0
10
4.719
20
5.092
11
5.731
21
5.092
0
0
LINE
8
0
10
5.731
20
5.092
11
5.828
21
5.092
0
0
LINE
8
0
10
5.828
20
5.092
11
6.030
21
5.092
0
0
LINE
8
0
10
6.030
20
5.092
11
6.519
21
5.092
0
0
LINE
8
0
10
6.519
20
5.092
11
7.531
21
5.092
0
0
LINE
8
0
10
7.531
20
5.092
11
7.628
21
5.092
0
0
LINE
8
0
10
7.628
20
5.092
11
7.830
21
5.092
0
0
LINE
8
0
10
7.830
20
5.092
11
8.319
21
5.092
0
0
LINE
8
0
10
8.319
20
5.092
11
9.331
21
5.092
0
0
LINE
8
0
10
9.331
20
5.092
11
9.428
21
5.092
0
0
LINE
8
0
10
9.428
20
5.092
11
9.630
21
5.092
0
0
LINE
8
0
10
9.630
20
5.092
11
10.119
21
5.092
0
0
LINE
8
0
10
10.119
20
5.092
11
11.131
21
5.092
0
0
LINE
8
0
10
11.131
20
5.092
11
11.228
21
5.092
0
0
LINE
8
0
10
11.228
20
5.092
11
11.430
21
5.092
0
0
LINE
8
0
10
11.430
20
5.092
11
11.919
21
5.092
0
0
LINE
8
0
10
11.919
20
5.092
11
12.931
21
5.092
0
0
LINE
8
0
10
12.931
20
5.092
11
13.028
21
5.092
0
0
LINE
8
0
10
13.028
20
5.092
11
13.230
21
5.092
0
0
LINE
8
0
10
13.230
20
5.092
11
13.719
21
5.092
0
0
LINE
8
0
10
13.719
20
5.092
11
14.553
21
5.092
0
0
LINE
8
0
10
14.553
20
5.092
11
14.651
21
5.092
0
0
LINE
8
0
10
0.526
20
5.592
11
0.728
21
5.592
0
0
LINE
8
0
10
0.526
20
5.592
11
0.728
21
5.592
0
0
LINE
8
0
10
0.728
20
5.592
11
1.122
21
5.592
0
0
LINE
8
0
10
1.122
20
5.592
11
2.133
21
5.592
0
0
LINE
8
0
10
2.133
20
5.592
11
2.231
21
5.592
0
0
LINE
8
0
10
2.231
20
5.592
11
2.433
21
5.592
0
0
LINE
8
0
10
2.433
20
5.592
11
2.922
21
5.592
0
0
LINE
8
0
10
2.922
20
5.592
11
3.933
21
5.592
0
0
LINE
8
0
10
3.933
20
5.592
11
4.031
21
5.592
0
0
LINE
8
0
10
4.031
20
5.592
11
4.233
21
5.592
0
0
LINE
8
0
10
4.233
20
5.592
11
4.722
21
5.592
0
0
LINE
8
0
10
4.722
20
5.592
11
5.733
21
5.592
0
0
LINE
8
0
10
5.733
20
5.592
11
5.831
21
5.592
0
0
LINE
8
0
10
5.831
20
5.592
11
6.033
21
5.592
0
0
LINE
8
0
10
6.033
20
5.592
11
6.522
21
5.592
0
0
LINE
8
0
10
6.522
20
5.592
11
7.533
21
5.592
0
0
LINE
8
0
10
7.533
20
5.592
11
7.631
21
5.592
0
0
LINE
8
0
10
7.631
20
5.592
11
7.833
21
5.592
0
0
LINE
8
0
10
7.833
20
5.592
11
8.322
21
5.592
0
0
LINE
8
0
10
8.322
20
5.592
11
9.333
21
5.592
0
0
LINE
8
0
10
9.333
20
5.592
11
9.431
21
5.592
0
0
LINE
8
0
10
9.431
20
5.592
11
9.633
21
5.592
0
0
LINE
8
0
10
9.633
20
5.592
11
10.122
21
5.592
0
0
LINE
8
0
10
10.122
20
5.592
11
11.133
21
5.592
0
0
LINE
8
0
10
11.133
20
5.592
11
11.231
21
5.592
0
0
LINE
8
0
10
11.231
20
5.592
11
11.433
21
5.592
0
0
LINE
8
0
10
11.433
20
5.592
11
11.922
21
5.592
0
0
LINE
8
0
10
11.922
20
5.592
11
12.933
21
5.592
0
0
LINE
8
0
10
12.933
20
5.592
11
13.031
21
5.592
0
0
LINE
8
0
10
13.031
20
5.592
11
13.233
21
5.592
0
0
LINE
8
0
10
13.233
20
5.592
11
13.722
21
5.592
0
0
LINE
8
0
10
13.722
20
5.592
11
14.536
21
5.592
0
0
LINE
8
0
10
14.536
20
5.592
11
14.634
21
5.592
0
0
LINE
8
0
10
0.539
20
6.092
11
0.741
21
6.092
0
0
LINE
8
0
10
0.539
20
6.092
11
0.741
21
6.092
0
0
LINE
8
0
10
0.741
20
6.092
11
1.128
21
6.092
0
0
LINE
8
0
10
1.128
20
6.092
11
2.139
21
6.092
0
0
LINE
8
0
10
2.139
20
6.092
11
2.237
21
6.092
0
0
LINE
8
0
10
2.237
20
6.092
11
2.439
21
6.092
0
0
LINE
8
0
10
2.439
20
6.092
11
2.928
21
6.092
0
0
LINE
8
0
10
2.928
20
6.092
11
3.939
21
6.092
0
0
LINE
8
0
10
3.939
20
6.092
11
4.037
21
6.092
0
0
LINE
8
0
10
4.037
20
6.092
11
4.239
21
6.092
0
0
LINE
8
0
10
4.239
20
6.092
11
4.728
21
6.092
0
0
LINE
8
0
10
4.728
20
6.092
11
5.739
21
6.092
0
0
LINE
8
0
10
5.739
20
6.092
11
5.837
21
6.092
0
0
LINE
8
0
10
5.837
20
6.092
11
6.039
21
6.092
0
0
LINE
8
0
10
6.039
20
6.092
11
6.528
21
6.092
0
0
LINE
8
0
10
6.528
20
6.092
11
7.539
21
6.092
0
0
LINE
8
0
10
7.539
20
6.092
11
7.637
21
6.092
0
0
LINE
8
0
10
7.637
20
6.092
11
7.839
21
6.092
0
0
LINE
8
0
10
7.839
20
6.092
11
8.328
21
6.092
0
0
LINE
8
0
10
8.328
20
6.092
11
9.339
21
6.092
0
0
LINE
8
0
10
9.339
20
6.092
11
9.437
21
6.092
0
0
LINE
8
0
10
9.437
20
6.092
11
9.639
21
6.092
0
0
LINE
8
0
10
9.639
20
6.092
11
10.128
21
6.092
0
0
LINE
8
0
10
10.128
20
6.092
11
11.139
21
6.092
0
0
LINE
8
0
10
11.139
20
6.092
11
11.237
21
6.092
0
0
LINE
8
0
10
11.237
20
6.092
11
11.439
21
6.092
0
0
LINE
8
0
10
11.439
20
6.092
11
11.928
21
6.092
0
0
LINE
8
0
10
11.928
20
6.092
11
12.939
21
6.092
0
0
LINE
8
0
10
12.939
20
6.092
11
13.037
21
6.092
0
0
LINE
8
0
10
13.037
20
6.092
11
13.239
21
6.092
0
0
LINE
8
0
10
13.239
20
6.092
11
13.728
21
6.092
0
0
LINE
8
0
10
13.728
20
6.092
11
14.528
21
6.092
0
0
LINE
8
0
10
14.528
20
6.092
11
14.626
21
6.092
0
0
LINE
8
0
10
0.551
20
6.592
11
0.753
21
6.592
0
0
LINE
8
0
10
0.551
20
6.592
11
0.753
21
6.592
0
0
LINE
8
0
10
0.753
20
6.592
11
1.136
21
6.592
0
0
LINE
8
0
10
1.136
20
6.592
11
2.147
21
6.592
0
0
LINE
8
0
10
2.147
20
6.592
11
2.245
21
6.592
0
0
LINE
8
0
10
2.245
20
6.592
11
2.447
21
6.592
0
0
LINE
8
0
10
2.447
20
6.592
11
2.936
21
6.592
0
0
LINE
8
0
10
2.936
20
6.592
11
3.947
21
6.592
0
0
LINE
8
0
10
3.947
20
6.592
11
4.045
21
6.592
0
0
LINE
8
0
10
4.045
20
6.592
11
4.247
21
6.592
0
0
LINE
8
0
10
4.247
20
6.592
11
4.736
21
6.592
0
0
LINE
8
0
10
4.736
20
6.592
11
5.747
21
6.592
0
0
LINE
8
0
10
5.747
20
6.592
11
5.845
21
6.592
0
0
LINE
8
0
10
5.845
20
6.592
11
6.047
21
6.592
0
0
LINE
8
0
10
6.047
20
6.592
11
6.536
21
6.592
0
0
LINE
8
0
10
6.536
20
6.592
11
7.547
21
6.592
0
0
LINE
8
0
10
7.547
20
6.592
11
7.645
21
6.592
0
0
LINE
8
0
10
7.645
20
6.592
11
7.847
21
6.592
0
0
LINE
8
0
10
7.847
20
6.592
11
8.336
21
6.592
0
0
LINE
8
0
10
8.336
20
6.592
11
9.347
21
6.592
0
0
LINE
8
0
10
9.347
20
6.592
11
9.445
21
6.592
0
0
LINE
8
0
10
9.445
20
6.592
11
9.647
21
6.592
0
0
LINE
8
0
10
9.647
20
6.592
11
10.136
21
6.592
0
0
LINE
8
0
10
10.136
20
6.592
11
11.147
21
6.592
0
0
LINE
8
0
10
11.147
20
6.592
11
11.245
21
6.592
0
0
LINE
8
0
10
11.245
20
6.592
11
11.447
21
6.592
0
0
LINE
8
0
10
11.447
20
6.592
11
11.936
21
6.592
0
0
LINE
8
0
10
11.936
20
6.592
11
12.947
21
6.592
0
0
LINE
8
0
10
12.947
20
6.592
11
13.045
21
6.592
0
0
LINE
8
0
10
13.045
20
6.592
11
13.247
21
6.592
0
0
LINE
8
0
10
13.247
20
6.592
11
13.736
21
6.592
0
0
LINE
8
0
10
13.736
20
6.592
11
14.528
21
6.592
0
0
LINE
8
0
10
14.528
20
6.592
11
14.626
21
6.592
0
0
LINE
8
0
10
0.564
20
7.092
11
0.766
21
7.092
0
0
LINE
8
0
10
0.564
20
7.092
11
0.766
21
7.092
0
0
LINE
8
0
10
0.766
20
7.092
11
1.145
21
7.092
0
0
LINE
8
0
10
1.145
20
7.092
11
2.156
21
7.092
0
0
LINE
8
0
10
2.156
20
7.092
11
2.254
21
7.092
0
0
LINE
8
0
10
2.254
20
7.092
11
2.456
21
7.092
0
0
LINE
8
0
10
2.456
20
7.092
11
2.945
21
7.092
0
0
LINE
8
0
10
2.945
20
7.092
11
3.956
21
7.092
0
0
LINE
8
0
10
3.956
20
7.092
11
4.054
21
7.092
0
0
LINE
8
0
10
4.054
20
7.092
11
4.256
21
7.092
0
0
LINE
8
0
10
4.256
20
7.092
11
4.745
21
7.092
0
0
LINE
8
0
10
4.745
20
7.092
11
5.756
21
7.092
0
0
LINE
8
0
10
5.756
20
7.092
11
5.854
21
7.092
0
0
LINE
8
0
10
5.854
20
7.092
11
6.056
21
7.092
0
0
LINE
8
0
10
6.056
20
7.092
11
6.545
21
7.092
0
0
LINE
8
0
10
6.545
20
7.092
11
7.556
21
7.092
0
0
LINE
8
0
10
7.556
20
7.092
11
7.654
21
7.092
0
0
LINE
8
0
10
7.654
20
7.092
11
7.856
21
7.092
0
0
LINE
8
0
10
7.856
20
7.092
11
8.345
21
7.092
0
0
LINE
8
0
10
8.345
20
7.092
11
9.356
21
7.092
0
0
LINE
8
0
10
9.356
20
7.092
11
9.454
21
7.092
0
0
LINE
8
0
10
9.454
20
7.092
11
9.656
21
7.092
0
0
LINE
8
0
10
9.656
20
7.092
11
10.145
21
7.092
0
0
LINE
8
0
10
10.145
20
7.092
11
11.156
21
7.092
0
0
LINE
8
0
10
11.156
20
7.092
11
11.254
21
7.092
0
0
LINE
8
0
10
11.254
20
7.092
11
11.456
21
7.092
0
0
LINE
8
0
10
11.456
20
7.092
11
11.945
21
7.092
0
0
LINE
8
0
10
11.945
20
7.092
11
12.956
21
7.092
0
0
LINE
8
0
10
12.956
20
7.092
11
13.054
21
7.092
0
0
LINE
8
0
10
13.054
20
7.092
11
13.256
21
7.092
0
0
LINE
8
0
10
13.256
20
7.092
11
13.745
21
7.092
0
0
LINE
8
0
10
13.745
20
7.092
11
14.528
21
7.092
0
0
LINE
8
0
10
14.528
20
7.092
11
14.626
21
7.092
0
0
LINE
8
0
10
0.576
20
7.592
11
0.577
21
7.592
0
0
LINE
8
0
10
0.576
20
7.592
11
0.577
21
7.592
0
0
LINE
8
0
10
0.577
20
7.592
11
0.778
21
7.592
0
0
LINE
8
0
10
0.778
20
7.592
11
1.153
21
7.592
0
0
LINE
8
0
10
1.153
20
7.592
11
2.165
21
7.592
0
0
LINE
8
0
10
2.165
20
7.592
11
2.263
21
7.592
0
0
LINE
8
0
10
2.263
20
7.592
11
2.464
21
7.592
0
0
LINE
8
0
10
2.464
20
7.592
11
2.953
21
7.592
0
0
LINE
8
0
10
2.953
20
7.592
11
3.965
21
7.592
0
0
LINE
8
0
10
3.965
20
7.592
11
4.063
21
7.592
0
0
LINE
8
0
10
4.063
20
7.592
11
4.264
21
7.592
0
0
LINE
8
0
10
4.264
20
7.592
11
4.753
21
7.592
0
0
LINE
8
0
10
4.753
20
7.592
11
5.765
21
7.592
0
0
LINE
8
0
10
5.765
20
7.592
11
5.863
21
7.592
0
0
LINE
8
0
10
5.863
20
7.592
11
6.064
21
7.592
0
0
LINE
8
0
10
6.064
20
7.592
11
6.553
21
7.592
0
0
LINE
8
0
10
6.553
20
7.592
11
7.565
21
7.592
0
0
LINE
8
0
10
7.565
20
7.592
11
7.663
21
7.592
0
0
LINE
8
0
10
7.663
20
7.592
11
7.864
21
7.592
0
0
LINE
8
0
10
7.864
20
7.592
11
8.353
21
7.592
0
0
LINE
8
0
10
8.353
20
7.592
11
9.365
21
7.592
0
0
LINE
8
0
10
9.365
20
7.592
11
9.463
21
7.592
0
0
LINE
8
0
10
9.463
20
7.592
11
9.664
21
7.592
0
0
LINE
8
0
10
9.664
20
7.592
11
10.153
21
7.592
0
0
LINE
8
0
10
10.153
20
7.592
11
11.165
21
7.592
0
0
LINE
8
0
10
11.165
20
7.592
11
11.263
21
7.592
0
0
LINE
8
0
10
11.263
20
7.592
11
11.464
21
7.592
0
0
LINE
8
0
10
11.464
20
7.592
11
11.953
21
7.592
0
0
LINE
8
0
10
11.953
20
7.592
11
12.965
21
7.592
0
0
LINE
8
0
10
12.965
20
7.592
11
13.063
21
7.592
0
0
LINE
8
0
10
13.063
20
7.592
11
13.264
21
7.592
0
0
LINE
8
0
10
13.264
20
7.592
11
13.753
21
7.592
0
0
LINE
8
0
10
13.753
20
7.592
11
14.528
21
7.592
0
0
LINE
8
0
10
14.528
20
7.592
11
14.626
21
7.592
0
0
LINE
8
0
10
0.575
20
8.092
11
0.777
21
8.092
0
0
LINE
8
0
10
0.575
20
8.092
11
0.777
21
8.092
0
0
LINE
8
0
10
0.777
20
8.092
11
1.152
21
8.092
0
0
LINE
8
0
10
1.152
20
8.092
11
2.164
21
8.092
0
0
LINE
8
0
10
2.164
20
8.092
11
2.262
21
8.092
0
0
LINE
8
0
10
2.262
20
8.092
11
2.464
21
8.092
0
0
LINE
8
0
10
2.464
20
8.092
11
2.952
21
8.092
0
0
LINE
8
0
10
2.952
20
8.092
11
3.964
21
8.092
0
0
LINE
8
0
10
3.964
20
8.092
11
4.062
21
8.092
0
0
LINE
8
0
10
4.062
20
8.092
11
4.264
21
8.092
0
0
LINE
8
0
10
4.264
20
8.092
11
4.752
21
8.092
0
0
LINE
8
0
10
4.752
20
8.092
11
5.764
21
8.092
0
0
LINE
8
0
10
5.764
20
8.092
11
5.862
21
8.092
0
0
LINE
8
0
10
5.862
20
8.092
11
6.064
21
8.092
0
0
LINE
8
0
10
6.064
20
8.092
11
6.552
21
8.092
0
0
LINE
8
0
10
6.552
20
8.092
11
7.564
21
8.092
0
0
LINE
8
0
10
7.564
20
8.092
11
7.662
21
8.092
0
0
LINE
8
0
10
7.662
20
8.092
11
7.864
21
8.092
0
0
LINE
8
0
10
7.864
20
8.092
11
8.352
21
8.092
0
0
LINE
8
0
10
8.352
20
8.092
11
9.364
21
8.092
0
0
LINE
8
0
10
9.364
20
8.092
11
9.462
21
8.092
0
0
LINE
8
0
10
9.462
20
8.092
11
9.664
21
8.092
0
0
LINE
8
0
10
9.664
20
8.092
11
10.152
21
8.092
0
0
LINE
8
0
10
10.152
20
8.092
11
11.164
21
8.092
0
0
LINE
8
0
10
11.164
20
8.092
11
11.262
21
8.092
0
0
LINE
8
0
10
11.262
20
8.092
11
11.464
21
8.092
0
0
LINE
8
0
10
11.464
20
8.092
11
11.952
21
8.092
0
0
LINE
8
0
10
11.952
20
8.092
11
12.964
21
8.092
0
0
LINE
8
0
10
12.964
20
8.092
11
13.062
21
8.092
0
0
LINE
8
0
10
13.062
20
8.092
11
13.264
21
8.092
0
0
LINE
8
0
10
13.264
20
8.092
11
13.752
21
8.092
0
0
LINE
8
0
10
13.752
20
8.092
11
14.528
21
8.092
0
0
LINE
8
0
10
14.528
20
8.092
11
14.626
21
8.092
0
0
LINE
8
0
10
0.560
20
8.592
11
0.762
21
8.592
0
0
LINE
8
0
10
0.560
20
8.592
11
0.762
21
8.592
0
0
LINE
8
0
10
0.762
20
8.592
11
1.142
21
8.592
0
0
LINE
8
0
10
1.142
20
8.592
11
2.153
21
8.592
0
0
LINE
8
0
10
2.153
20
8.592
11
2.251
21
8.592
0
0
LINE
8
0
10
2.251
20
8.592
11
2.453
21
8.592
0
0
LINE
8
0
10
2.453
20
8.592
11
2.942
21
8.592
0
0
LINE
8
0
10
2.942
20
8.592
11
3.953
21
8.592
0
0
LINE
8
0
10
3.953
20
8.592
11
4.051
21
8.592
0
0
LINE
8
0
10
4.051
20
8.592
11
4.253
21
8.592
0
0
LINE
8
0
10
4.253
20
8.592
11
4.742
21
8.592
0
0
LINE
8
0
10
4.742
20
8.592
11
5.753
21
8.592
0
0
LINE
8
0
10
5.753
20
8.592
11
5.851
21
8.592
0
0
LINE
8
0
10
5.851
20
8.592
11
6.053
21
8.592
0
0
LINE
8
0
10
6.053
20
8.592
11
6.542
21
8.592
0
0
LINE
8
0
10
6.542
20
8.592
11
7.553
21
8.592
0
0
LINE
8
0
10
7.553
20
8.592
11
7.651
21
8.592
0
0
LINE
8
0
10
7.651
20
8.592
11
7.853
21
8.592
0
0
LINE
8
0
10
7.853
20
8.592
11
8.342
21
8.592
0
0
LINE
8
0
10
8.342
20
8.592
11
9.353
21
8.592
0
0
LINE
8
0
10
9.353
20
8.592
11
9.451
21
8.592
0
0
LINE
8
0
10
9.451
20
8.592
11
9.653
21
8.592
0
0
LINE
8
0
10
9.653
20
8.592
11
10.142
21
8.592
0
0
LINE
8
0
10
10.142
20
8.592
11
11.153
21
8.592
0
0
LINE
8
0
10
11.153
20
8.592
11
11.251
21
8.592
0
0
LINE
8
0
10
11.251
20
8.592
11
11.453
21
8.592
0
0
LINE
8
0
10
11.453
20
8.592
11
11.942
21
8.592
0
0
LINE
8
0
10
11.942
20
8.592
11
12.953
21
8.592
0
0
LINE
8
0
10
12.953
20
8.592
11
13.051
21
8.592
0
0
LINE
8
0
10
13.051
20
8.592
11
13.253
21
8.592
0
0
LINE
8
0
10
13.253
20
8.592
11
13.742
21
8.592
0
0
LINE
8
0
10
13.742
20
8.592
11
14.528
21
8.592
0
0
LINE
8
0
10
14.528
20
8.592
11
14.626
21
8.592
0
0
LINE
8
0
10
0.545
20
9.092
11
0.747
21
9.092
0
0
LINE
8
0
10
0.545
20
9.092
11
0.747
21
9.092
0
0
LINE
8
0
10
0.747
20
9.092
11
1.132
21
9.092
0
0
LINE
8
0
10
1.132
20
9.092
11
2.143
21
9.092
0
0
LINE
8
0
10
2.143
20
9.092
11
2.241
21
9.092
0
0
LINE
8
0
10
2.241
20
9.092
11
2.443
21
9.092
0
0
LINE
8
0
10
2.443
20
9.092
11
2.932
21
9.092
0
0
LINE
8
0
10
2.932
20
9.092
11
3.943
21
9.092
0
0
LINE
8
0
10
3.943
20
9.092
11
4.041
21
9.092
0
0
LINE
8
0
10
4.041
20
9.092
11
4.243
21
9.092
0
0
LINE
8
0
10
4.243
20
9.092
11
4.732
21
9.092
0
0
LINE
8
0
10
4.732
20
9.092
11
5.743
21
9.092
0
0
LINE
8
0
10
5.743
20
9.092
11
5.841
21
9.092
0
0
LINE
8
0
10
5.841
20
9.092
11
6.043
21
9.092
0
0
LINE
8
0
10
6.043
20
9.092
11
6.532
21
9.092
0
0
LINE
8
0
10
6.532
20
9.092
11
7.543
21
9.092
0
0
LINE
8
0
10
7.543
20
9.092
11
7.641
21
9.092
0
0
LINE
8
0
10
7.641
20
9.092
11
7.843
21
9.092
0
0
LINE
8
0
10
7.843
20
9.092
11
8.332
21
9.092
0
0
LINE
8
0
10
8.332
20
9.092
11
9.343
21
9.092
0
0
LINE
8
0
10
9.343
20
9.092
11
9.441
21
9.092
0
0
LINE
8
0
10
9.441
20
9.092
11
9.643
21
9.092
0
0
LINE
8
0
10
9.643
20
9.092
11
10.132
21
9.092
0
0
LINE
8
0
10
10.132
20
9.092
11
11.143
21
9.092
0
0
LINE
8
0
10
11.143
20
9.092
11
11.241
21
9.092
0
0
LINE
8
0
10
11.241
20
9.092
11
11.443
21
9.092
0
0
LINE
8
0
10
11.443
20
9.092
11
11.932
21
9.092
0
0
LINE
8
0
10
11.932
20
9.092
11
12.943
21
9.092
0
0
LINE
8
0
10
12.943
20
9.092
11
13.041
21
9.092
0
0
LINE
8
0
10
13.041
20
9.092
11
13.243
21
9.092
0
0
LINE
8
0
10
13.243
20
9.092
11
13.732
21
9.092
0
0
LINE
8
0
10
13.732
20
9.092
11
14.528
21
9.092
0
0
LINE
8
0
10
14.528
20
9.092
11
14.626
21
9.092
0
0
LINE
8
0
10
0.529
20
9.592
11
0.731
21
9.592
0
0
LINE
8
0
10
0.529
20
9.592
11
0.731
21
9.592
0
0
LINE
8
0
10
0.731
20
9.592
11
1.121
21
9.592
0
0
LINE
8
0
10
1.121
20
9.592
11
2.133
21
9.592
0
0
LINE
8
0
10
2.133
20
9.592
11
2.231
21
9.592
0
0
LINE
8
0
10
2.231
20
9.592
11
2.433
21
9.592
0
0
LINE
8
0
10
2.433
20
9.592
11
2.921
21
9.592
0
0
LINE
8
0
10
2.921
20
9.592
11
3.933
21
9.592
0
0
LINE
8
0
10
3.933
20
9.592
11
4.031
21
9.592
0
0
LINE
8
0
10
4.031
20
9.592
11
4.233
21
9.592
0
0
LINE
8
0
10
4.233
20
9.592
11
4.721
21
9.592
0
0
LINE
8
0
10
4.721
20
9.592
11
5.733
21
9.592
0
0
LINE
8
0
10
5.733
20
9.592
11
5.831
21
9.592
0
0
LINE
8
0
10
5.831
20
9.592
11
6.033
21
9.592
0
0
LINE
8
0
10
6.033
20
9.592
11
6.521
21
9.592
0
0
LINE
8
0
10
6.521
20
9.592
11
7.533
21
9.592
0
0
LINE
8
0
10
7.533
20
9.592
11
7.631
21
9.592
0
0
LINE
8
0
10
7.631
20
9.592
11
7.833
21
9.592
0
0
LINE
8
0
10
7.833
20
9.592
11
8.321
21
9.592
0
0
LINE
8
0
10
8.321
20
9.592
11
9.333
21
9.592
0
0
LINE
8
0
10
9.333
20
9.592
11
9.431
21
9.592
0
0
LINE
8
0
10
9.431
20
9.592
11
9.633
21
9.592
0
0
LINE
8
0
10
9.633
20
9.592
11
10.121
21
9.592
0
0
LINE
8
0
10
10.121
20
9.592
11
11.133
21
9.592
0
0
LINE
8
0
10
11.133
20
9.592
11
11.231
21
9.592
0
0
LINE
8
0
10
11.231
20
9.592
11
11.433
21
9.592
0
0
LINE
8
0
10
11.433
20
9.592
11
11.921
21
9.592
0
0
LINE
8
0
10
11.921
20
9.592
11
12.933
21
9.592
0
0
LINE
8
0
10
12.933
20
9.592
11
13.031
21
9.592
0
0
LINE
8
0
10
13.031
20
9.592
11
13.233
21
9.592
0
0
LINE
8
0
10
13.233
20
9.592
11
13.721
21
9.592
0
0
LINE
8
0
10
13.721
20
9.592
11
14.528
21
9.592
0
0
LINE
8
0
10
14.528
20
9.592
11
14.626
21
9.592
0
0
LINE
8
0
10
0.514
20
10.092
11
0.716
21
10.092
0
0
LINE
8
0
10
0.514
20
10.092
11
0.716
21
10.092
0
0
LINE
8
0
10
0.716
20
10.092
11
1.111
21
10.092
0
0
LINE
8
0
10
1.111
20
10.092
11
2.122
21
10.092
0
0
LINE
8
0
10
2.122
20
10.092
11
2.220
21
10.092
0
0
LINE
8
0
10
2.220
20
10.092
11
2.422
21
10.092
0
0
LINE
8
0
10
2.422
20
10.092
11
2.911
21
10.092
0
0
LINE
8
0
10
2.911
20
10.092
11
3.922
21
10.092
0
0
LINE
8
0
10
3.922
20
10.092
11
4.020
21
10.092
0
0
LINE
8
0
10
4.020
20
10.092
11
4.222
21
10.092
0
0
LINE
8
0
10
4.222
20
10.092
11
4.711
21
10.092
0
0
LINE
8
0
10
4.711
20
10.092
11
5.722
21
10.092
0
0
LINE
8
0
10
5.722
20
10.092
11
5.820
21
10.092
0
0
LINE
8
0
10
5.820
20
10.092
11
6.022
21
10.092
0
0
LINE
8
0
10
6.022
20
10.092
11
6.511
21
10.092
0
0
LINE
8
0
10
6.511
20
10.092
11
7.522
21
10.092
0
0
LINE
8
0
10
7.522
20
10.092
11
7.620
21
10.092
0
0
LINE
8
0
10
7.620
20
10.092
11
7.822
21
10.092
0
0
LINE
8
0
10
7.822
20
10.092
11
8.311
21
10.092
0
0
LINE
8
0
10
8.311
20
10.092
11
9.322
21
10.092
0
0
LINE
8
0
10
9.322
20
10.092
11
9.420
21
10.092
0
0
LINE
8
0
10
9.420
20
10.092
11
9.622
21
10.092
0
0
LINE
8
0
10
9.622
20
10.092
11
10.111
21
10.092
0
0
LINE
8
0
10
10.111
20
10.092
11
11.122
21
10.092
0
0
LINE
8
0
10
11.122
20
10.092
11
11.220
21
10.092
0
0
LINE
8
0
10
11.220
20
10.092
11
11.422
21
10.092
0
0
LINE
8
0
10
11.422
20
10.092
11
11.911
21
10.092
0
0
LINE
8
0
10
11.911
20
10.092
11
12.922
21
10.092
0
0
LINE
8
0
10
12.922
20
10.092
11
13.020
21
10.092
0
0
LINE
8
0
10
13.020
20
10.092
11
13.222
21
10.092
0
0
LINE
8
0
10
13.222
20
10.092
11
13.711
21
10.092
0
0
LINE
8
0
10
13.711
20
10.092
11
14.528
21
10.092
0
0
LINE
8
0
10
14.528
20
10.092
11
14.626
21
10.092
0
0
LINE
8
0
10
0.499
20
10.592
11
0.701
21
10.592
0
0
LINE
8
0
10
0.499
20
10.592
11
0.701
21
10.592
0
0
LINE
8
0
10
0.701
20
10.592
11
1.101
21
10.592
0
0
LINE
8
0
10
1.101
20
10.592
11
2.112
21
10.592
0
0
LINE
8
0
10
2.112
20
10.592
11
2.210
21
10.592
0
0
LINE
8
0
10
2.210
20
10.592
11
2.412
21
10.592
0
0
LINE
8
0
10
2.412
20
10.592
11
2.901
21
10.592
0
0
LINE
8
0
10
2.901
20
10.592
11
3.912
21
10.592
0
0
LINE
8
0
10
3.912
20
10.592
11
4.010
21
10.592
0
0
LINE
8
0
10
4.010
20
10.592
11
4.212
21
10.592
0
0
LINE
8
0
10
4.212
20
10.592
11
4.701
21
10.592
0
0
LINE
8
0
10
4.701
20
10.592
11
5.712
21
10.592
0
0
LINE
8
0
10
5.712
20
10.592
11
5.810
21
10.592
0
0
LINE
8
0
10
5.810
20
10.592
11
6.012
21
10.592
0
0
LINE
8
0
10
6.012
20
10.592
11
6.501
21
10.592
0
0
LINE
8
0
10
6.501
20
10.592
11
7.512
21
10.592
0
0
LINE
8
0
10
7.512
20
10.592
11
7.610
21
10.592
0
0
LINE
8
0
10
7.610
20
10.592
11
7.812
21
10.592
0
0
LINE
8
0
10
7.812
20
10.592
11
8.301
21
10.592
0
0
LINE
8
0
10
8.301
20
10.592
11
9.312
21
10.592
0
0
LINE
8
0
10
9.312
20
10.592
11
9.410
21
10.592
0
0
LINE
8
0
10
9.410
20
10.592
11
9.612
21
10.592
0
0
LINE
8
0
10
9.612
20
10.592
11
10.101
21
10.592
0
0
LINE
8
0
10
10.101
20
10.592
11
11.112
21
10.592
0
0
LINE
8
0
10
11.112
20
10.592
11
11.210
21
10.592
0
0
LINE
8
0
10
11.210
20
10.592
11
11.412
21
10.592
0
0
LINE
8
0
10
11.412
20
10.592
11
11.901
21
10.592
0
0
LINE
8
0
10
11.901
20
10.592
11
12.912
21
10.592
0
0
LINE
8
0
10
12.912
20
10.592
11
13.010
21
10.592
0
0
LINE
8
0
10
13.010
20
10.592
11
13.212
21
10.592
0
0
LINE
8
0
10
13.212
20
10.592
11
13.701
21
10.592
0
0
LINE
8
0
10
13.701
20
10.592
11
14.528
21
10.592
0
0
LINE
8
0
10
14.528
20
10.592
11
14.626
21
10.592
0
0
LINE
8
0
10
0.484
20
11.092
11
0.686
21
11.092
0
0
LINE
8
0
10
0.484
20
11.092
11
0.686
21
11.092
0
0
LINE
8
0
10
0.686
20
11.092
11
1.091
21
11.092
0
0
LINE
8
0
10
1.091
20
11.092
11
2.102
21
11.092
0
0
LINE
8
0
10
2.102
20
11.092
11
2.200
21
11.092
0
0
LINE
8
0
10
2.200
20
11.092
11
2.402
21
11.092
0
0
LINE
8
0
10
2.402
20
11.092
11
2.891
21
11.092
0
0
LINE
8
0
10
2.891
20
11.092
11
3.902
21
11.092
0
0
LINE
8
0
10
3.902
20
11.092
11
4.000
21
11.092
0
0
LINE
8
0
10
4.000
20
11.092
11
4.202
21
11.092
0
0
LINE
8
0
10
4.202
20
11.092
11
4.691
21
11.092
0
0
LINE
8
0
10
4.691
20
11.092
11
5.702
21
11.092
0
0
LINE
8
0
10
5.702
20
11.092
11
5.800
21
11.092
0
0
LINE
8
0
10
5.800
20
11.092
11
6.002
21
11.092
0
0
LINE
8
0
10
6.002
20
11.092
11
6.491
21
11.092
0
0
LINE
8
0
10
6.491
20
11.092
11
7.502
21
11.092
0
0
LINE
8
0
10
7.502
20
11.092
11
7.600
21
11.092
0
0
LINE
8
0
10
7.600
20
11.092
11
7.802
21
11.092
0
0
LINE
8
0
10
7.802
20
11.092
11
8.291
21
11.092
0
0
LINE
8
0
10
8.291
20
11.092
11
9.302
21
11.092
0
0
LINE
8
0
10
9.302
20
11.092
11
9.400
21
11.092
0
0
LINE
8
0
10
9.400
20
11.092
11
9.602
21
11.092
0
0
LINE
8
0
10
9.602
20
11.092
11
10.091
21
11.092
0
0
LINE
8
0
10
10.091
20
11.092
11
11.102
21
11.092
0
0
LINE
8
0
10
11.102
20
11.092
11
11.200
21
11.092
0
0
LINE
8
0
10
11.200
20
11.092
11
11.402
21
11.092
0
0
LINE
8
0
10
11.402
20
11.092
11
11.891
21
11.092
0
0
LINE
8
0
10
11.891
20
11.092
11
12.902
21
11.092
0
0
LINE
8
0
10
12.902
20
11.092
11
13.000
21
11.092
0
0
LINE
8
0
10
13.000
20
11.092
11
13.202
21
11.092
0
0
LINE
8
0
10
13.202
20
11.092
11
13.691
21
11.092
0
0
LINE
8
0
10
13.691
20
11.092
11
14.528
21
11.092
0
0
LINE
8
0
10
14.528
20
11.092
11
14.626
21
11.092
0
0
LINE
8
0
10
0.468
20
11.592
11
0.670
21
11.592
0
0
LINE
8
0
10
0.468
20
11.592
11
0.670
21
11.592
0
0
LINE
8
0
10
0.670
20
11.592
11
1.080
21
11.592
0
0
LINE
8
0
10
1.080
20
11.592
11
2.091
21
11.592
0
0
LINE
8
0
10
2.091
20
11.592
11
2.189
21
11.592
0
0
LINE
8
0
10
2.189
20
11.592
11
2.391
21
11.592
0
0
LINE
8
0
10
2.391
20
11.592
11
2.880
21
11.592
0
0
LINE
8
0
10
2.880
20
11.592
11
3.891
21
11.592
0
0
LINE
8
0
10
3.891
20
11.592
11
3.989
21
11.592
0
0
LINE
8
0
10
3.989
20
11.592
11
4.191
21
11.592
0
0
LINE
8
0
10
4.191
20
11.592
11
4.680
21
11.592
0
0
LINE
8
0
10
4.680
20
11.592
11
5.691
21
11.592
0
0
LINE
8
0
10
5.691
20
11.592
11
5.789
21
11.592
0
0
LINE
8
0
10
5.789
20
11.592
11
5.991
21
11.592
0
0
LINE
8
0
10
5.991
20
11.592
11
6.480
21
11.592
0
0
LINE
8
0
10
6.480
20
11.592
11
7.491
21
11.592
0
0
LINE
8
0
10
7.491
20
11.592
11
7.589
21
11.592
0
0
LINE
8
0
10
7.589
20
11.592
11
7.791
21
11.592
0
0
LINE
8
0
10
7.791
20
11.592
11
8.280
21
11.592
0
0
LINE
8
0
10
8.280
20
11.592
11
9.291
21
11.592
0
0
LINE
8
0
10
9.291
20
11.592
11
9.389
21
11.592
0
0
LINE
8
0
10
9.389
20
11.592
11
9.591
21
11.592
0
0
LINE
8
0
10
9.591
20
11.592
11
10.080
21
11.592
0
0
LINE
8
0
10
10.080
20
11.592
11
11.091
21
11.592
0
0
LINE
8
0
10
11.091
20
11.592
11
11.189
21
11.592
0
0
LINE
8
0
10
11.189
20
11.592
11
11.391
21
11.592
0
0
LINE
8
0
10
11.391
20
11.592
11
11.880
21
11.592
0
0
LINE
8
0
10
11.880
20
11.592
11
12.891
21
11.592
0
0
LINE
8
0
10
12.891
20
11.592
11
12.989
21
11.592
0
0
LINE
8
0
10
12.989
20
11.592
11
13.191
21
11.592
0
0
LINE
8
0
10
13.191
20
11.592
11
13.680
21
11.592
0
0
LINE
8
0
10
13.680
20
11.592
11
14.528
21
11.592
0
0
LINE
8
0
10
14.528
20
11.592
11
14.626
21
11.592
0
0
LINE
8
0
10
0.453
20
12.092
11
0.655
21
12.092
0
0
LINE
8
0
10
0.453
20
12.092
11
0.655
21
12.092
0
0
LINE
8
0
10
0.655
20
12.092
11
1.070
21
12.092
0
0
LINE
8
0
10
1.070
20
12.092
11
2.081
21
12.092
0
0
LINE
8
0
10
2.081
20
12.092
11
2.179
21
12.092
0
0
LINE
8
0
10
2.179
20
12.092
11
2.381
21
12.092
0
0
LINE
8
0
10
2.381
20
12.092
11
2.870
21
12.092
0
0
LINE
8
0
10
2.870
20
12.092
11
3.881
21
12.092
0
0
LINE
8
0
10
3.881
20
12.092
11
3.979
21
12.092
0
0
LINE
8
0
10
3.979
20
12.092
11
4.181
21
12.092
0
0
LINE
8
0
10
4.181
20
12.092
11
4.670
21
12.092
0
0
LINE
8
0
10
4.670
20
12.092
11
5.681
21
12.092
0
0
LINE
8
0
10
5.681
20
12.092
11
5.779
21
12.092
0
0
LINE
8
0
10
5.779
20
12.092
11
5.981
21
12.092
0
0
LINE
8
0
10
5.981
20
12.092
11
6.470
21
12.092
0
0
LINE
8
0
10
6.470
20
12.092
11
7.481
21
12.092
0
0
LINE
8
0
10
7.481
20
12.092
11
7.579
21
12.092
0
0
LINE
8
0
10
7.579
20
12.092
11
7.781
21
12.092
0
0
LINE
8
0
10
7.781
20
12.092
11
8.270
21
12.092
0
0
LINE
8
0
10
8.270
20
12.092
11
9.281
21
12.092
0
0
LINE
8
0
10
9.281
20
12.092
11
9.379
21
12.092
0
0
LINE
8
0
10
9.379
20
12.092
11
9.581
21
12.092
0
0
LINE
8
0
10
9.581
20
12.092
11
10.070
21
12.092
0
0
LINE
8
0
10
10.070
20
12.092
11
11.081
21
12.092
0
0
LINE
8
0
10
11.081
20
12.092
11
11.179
21
12.092
0
0
LINE
8
0
10
11.179
20
12.092
11
11.381
21
12.092
0
0
LINE
8
0
10
11.381
20
12.092
11
11.870
21
12.092
0
0
LINE
8
0
10
11.870
20
12.092
11
12.881
21
12.092
0
0
LINE
8
0
10
12.881
20
12.092
11
12.979
21
12.092
0
0
LINE
8
0
10
12.979
20
12.092
11
13.181
21
12.092
0
0
LINE
8
0
10
13.181
20
12.092
11
13.670
21
12.092
0
0
LINE
8
0
10
13.670
20
12.092
11
14.528
21
12.092
0
0
LINE
8
0
10
14.528
20
12.092
11
14.626
21
12.092
0
0
LINE
8
0
10
0.438
20
12.592
11
0.640
21
12.592
0
0
LINE
8
0
10
0.438
20
12.592
11
0.640
21
12.592
0
0
LINE
8
0
10
0.640
20
12.592
11
1.060
21
12.592
0
0
LINE
8
0
10
1.060
20
12.592
11
2.071
21
12.592
0
0
LINE
8
0
10
2.071
20
12.592
11
2.169
21
12.592
0
0
LINE
8
0
10
2.169
20
12.592
11
2.371
21
12.592
0
0
LINE
8
0
10
2.371
20
12.592
11
2.860
21
12.592
0
0
LINE
8
0
10
2.860
20
12.592
11
3.871
21
12.592
0
0
LINE
8
0
10
3.871
20
12.592
11
3.969
21
12.592
0
0
LINE
8
0
10
3.969
20
12.592
11
4.171
21
12.592
0
0
LINE
8
0
10
4.171
20
12.592
11
4.660
21
12.592
0
0
LINE
8
0
10
4.660
20
12.592
11
5.671
21
12.592
0
0
LINE
8
0
10
5.671
20
12.592
11
5.769
21
12.592
0
0
LINE
8
0
10
5.769
20
12.592
11
5.971
21
12.592
0
0
LINE
8
0
10
5.971
20
12.592
11
6.460
21
12.592
0
0
LINE
8
0
10
6.460
20
12.592
11
7.471
21
12.592
0
0
LINE
8
0
10
7.471
20
12.592
11
7.569
21
12.592
0
0
LINE
8
0
10
7.569
20
12.592
11
7.771
21
12.592
0
0
LINE
8
0
10
7.771
20
12.592
11
8.260
21
12.592
0
0
LINE
8
0
10
8.260
20
12.592
11
9.271
21
12.592
0
0
LINE
8
0
10
9.271
20
12.592
11
9.369
21
12.592
0
0
LINE
8
0
10
9.369
20
12.592
11
9.571
21
12.592
0
0
LINE
8
0
10
9.571
20
12.592
11
10.060
21
12.592
0
0
LINE
8
0
10
10.060
20
12.592
11
11.071
21
12.592
0
0
LINE
8
0
10
11.071
20
12.592
11
11.169
21
12.592
0
0
LINE
8
0
10
11.169
20
12.592
11
11.371
21
12.592
0
0
LINE
8
0
10
11.371
20
12.592
11
11.860
21
12.592
0
0
LINE
8
0
10
11.860
20
12.592
11
12.871
21
12.592
0
0
LINE
8
0
10
12.871
20
12.592
11
12.969
21
12.592
0
0
LINE
8
0
10
12.969
20
12.592
11
13.171
21
12.592
0
0
LINE
8
0
10
13.171
20
12.592
11
13.660
21
12.592
0
0
LINE
8
0
10
13.660
20
12.592
11
14.528
21
12.592
0
0
LINE
8
0
10
14.528
20
12.592
11
14.626
21
12.592
0
0
LINE
8
0
10
0.451
20
13.092
11
0.653
21
13.092
0
0
LINE
8
0
10
0.451
20
13.092
11
0.653
21
13.092
0
0
LINE
8
0
10
0.653
20
13.092
11
1.069
21
13.092
0
0
LINE
8
0
10
1.069
20
13.092
11
2.080
21
13.092
0
0
LINE
8
0
10
2.080
20
13.092
11
2.178
21
13.092
0
0
LINE
8
0
10
2.178
20
13.092
11
2.380
21
13.092
0
0
LINE
8
0
10
2.380
20
13.092
11
2.869
21
13.092
0
0
LINE
8
0
10
2.869
20
13.092
11
3.880
21
13.092
0
0
LINE
8
0
10
3.880
20
13.092
11
3.978
21
13.092
0
0
LINE
8
0
10
3.978
20
13.092
11
4.180
21
13.092
0
0
LINE
8
0
10
4.180
20
13.092
11
4.669
21
13.092
0
0
LINE
8
0
10
4.669
20
13.092
11
5.680
21
13.092
0
0
LINE
8
0
10
5.680
20
13.092
11
5.778
21
13.092
0
0
LINE
8
0
10
5.778
20
13.092
11
5.980
21
13.092
0
0
LINE
8
0
10
5.980
20
13.092
11
6.469
21
13.092
0
0
LINE
8
0
10
6.469
20
13.092
11
7.480
21
13.092
0
0
LINE
8
0
10
7.480
20
13.092
11
7.578
21
13.092
0
0
LINE
8
0
10
7.578
20
13.092
11
7.780
21
13.092
0
0
LINE
8
0
10
7.780
20
13.092
11
8.269
21
13.092
0
0
LINE
8
0
10
8.269
20
13.092
11
9.280
21
13.092
0
0
LINE
8
0
10
9.280
20
13.092
11
9.378
21
13.092
0
0
LINE
8
0
10
9.378
20
13.092
11
9.580
21
13.092
0
0
LINE
8
0
10
9.580
20
13.092
11
10.069
21
13.092
0
0
LINE
8
0
10
10.069
20
13.092
11
11.080
21
13.092
0
0
LINE
8
0
10
11.080
20
13.092
11
11.178
21
13.092
0
0
LINE
8
0
10
11.178
20
13.092
11
11.380
21
13.092
0
0
LINE
8
0
10
11.380
20
13.092
11
11.869
21
13.092
0
0
LINE
8
0
10
11.869
20
13.092
11
12.880
21
13.092
0
0
LINE
8
0
10
12.880
20
13.092
11
12.978
21
13.092
0
0
LINE
8
0
10
12.978
20
13.092
11
13.180
21
13.092
0
0
LINE
8
0
10
13.180
20
13.092
11
13.669
21
13.092
0
0
LINE
8
0
10
13.669
20
13.092
11
14.528
21
13.092
0
0
LINE
8
0
10
14.528
20
13.092
11
14.626
21
13.092
0
0
LINE
8
0
10
0.511
20
13.592
11
0.713
21
13.592
0
0
LINE
8
0
10
0.511
20
13.592
11
0.713
21
13.592
0
0
LINE
8
0
10
0.713
20
13.592
11
1.109
21
13.592
0
0
LINE
8
0
10
1.109
20
13.592
11
2.120
21
13.592
0
0
LINE
8
0
10
2.120
20
13.592
11
2.218
21
13.592
0
0
LINE
8
0
10
2.218
20
13.592
11
2.420
21
13.592
0
0
LINE
8
0
10
2.420
20
13.592
11
2.909
21
13.592
0
0
LINE
8
0
10
2.909
20
13.592
11
3.920
21
13.592
0
0
LINE
8
0
10
3.920
20
13.592
11
4.018
21
13.592
0
0
LINE
8
0
10
4.018
20
13.592
11
4.220
21
13.592
0
0
LINE
8
0
10
4.220
20
13.592
11
4.709
21
13.592
0
0
LINE
8
0
10
4.709
20
13.592
11
5.720
21
13.592
0
0
LINE
8
0
10
5.720
20
13.592
11
5.818
21
13.592
0
0
LINE
8
0
10
5.818
20
13.592
11
6.020
21
13.592
0
0
LINE
8
0
10
6.020
20
13.592
11
6.509
21
13.592
0
0
LINE
8
0
10
6.509
20
13.592
11
7.520
21
13.592
0
0
LINE
8
0
10
7.520
20
13.592
11
7.618
21
13.592
0
0
LINE
8
0
10
7.618
20
13.592
11
7.820
21
13.592
0
0
LINE
8
0
10
7.820
20
13.592
11
8.309
21
13.592
0
0
LINE
8
0
10
8.309
20
13.592
11
9.320
21
13.592
0
0
LINE
8
0
10
9.320
20
13.592
11
9.418
21
13.592
0
0
LINE
8
0
10
9.418
20
13.592
11
9.620
21
13.592
0
0
LINE
8
0
10
9.620
20
13.592
11
10.109
21
13.592
0
0
LINE
8
0
10
10.109
20
13.592
11
11.120
21
13.592
0
0
LINE
8
0
10
11.120
20
13.592
11
11.218
21
13.592
0
0
LINE
8
0
10
11.218
20
13.592
11
11.420
21
13.592
0
0
LINE
8
0
10
11.420
20
13.592
11
11.909
21
13.592
0
0
LINE
8
0
10
11.909
20
13.592
11
12.920
21
13.592
0
0
LINE
8
0
10
12.920
20
13.592
11
13.018
21
13.592
0
0
LINE
8
0
10
13.018
20
13.592
11
13.220
21
13.592
0
0
LINE
8
0
10
13.220
20
13.592
11
13.709
21
13.592
0
0
LINE
8
0
10
13.709
20
13.592
11
14.528
21
13.592
0
0
LINE
8
0
10
14.528
20
13.592
11
14.626
21
13.592
0
0
LINE
8
0
10
0.654
20
14.092
11
0.856
21
14.092
0
0
LINE
8
0
10
0.654
20
14.092
11
0.856
21
14.092
0
0
LINE
8
0
10
0.856
20
14.092
11
1.206
21
14.092
0
0
LINE
8
0
10
1.206
20
14.092
11
2.217
21
14.092
0
0
LINE
8
0
10
2.217
20
14.092
11
2.315
21
14.092
0
0
LINE
8
0
10
2.315
20
14.092
11
2.517
21
14.092
0
0
LINE
8
0
10
2.517
20
14.092
11
3.006
21
14.092
0
0
LINE
8
0
10
3.006
20
14.092
11
4.017
21
14.092
0
0
LINE
8
0
10
4.017
20
14.092
11
4.115
21
14.092
0
0
LINE
8
0
10
4.115
20
14.092
11
4.317
21
14.092
0
0
LINE
8
0
10
4.317
20
14.092
11
4.806
21
14.092
0
0
LINE
8
0
10
4.806
20
14.092
11
5.817
21
14.092
0
0
LINE
8
0
10
5.817
20
14.092
11
5.915
21
14.092
0
0
LINE
8
0
10
5.915
20
14.092
11
6.117
21
14.092
0
0
LINE
8
0
10
6.117
20
14.092
11
6.606
21
14.092
0
0
LINE
8
0
10
6.606
20
14.092
11
7.617
21
14.092
0
0
LINE
8
0
10
7.617
20
14.092
11
7.715
21
14.092
0
0
LINE
8
0
10
7.715
20
14.092
11
7.917
21
14.092
0
0
LINE
8
0
10
7.917
20
14.092
11
8.406
21
14.092
0
0
LINE
8
0
10
8.406
20
14.092
11
9.417
21
14.092
0
0
LINE
8
0
10
9.417
20
14.092
11
9.515
21
14.092
0
0
LINE
8
0
10
9.515
20
14.092
11
9.717
21
14.092
0
0
LINE
8
0
10
9.717
20
14.092
11
10.206
21
14.092
0
0
LINE
8
0
10
10.206
20
14.092
11
11.217
21
14.092
0
0
LINE
8
0
10
11.217
20
14.092
11
11.315
21
14.092
0
0
LINE
8
0
10
11.315
20
14.092
11
11.517
21
14.092
0
0
LINE
8
0
10
11.517
20
14.092
11
12.006
21
14.092
0
0
LINE
8
0
10
12.006
20
14.092
11
13.017
21
14.092
0
0
LINE
8
0
10
13.017
20
14.092
11
13.115
21
14.092
0
0
LINE
8
0
10
13.115
20
14.092
11
13.317
21
14.092
0
0
LINE
8
0
10
13.317
20
14.092
11
13.806
21
14.092
0
0
LINE
8
0
10
13.806
20
14.092
11
14.528
21
14.092
0
0
LINE
8
0
10
14.528
20
14.092
11
14.626
21
14.092
0
0
LINE
8
0
10
1.221
20
14.592
11
1.423
21
14.592
0
0
LINE
8
0
10
1.221
20
14.592
11
1.423
21
14.592
0
0
LINE
8
0
10
1.423
20
14.592
11
1.588
21
14.592
0
0
LINE
8
0
10
1.588
20
14.592
11
1.686
21
14.592
0
0
LINE
8
0
10
1.686
20
14.592
11
2.697
21
14.592
0
0
LINE
8
0
10
2.697
20
14.592
11
3.186
21
14.592
0
0
LINE
8
0
10
3.186
20
14.592
11
3.388
21
14.592
0
0
LINE
8
0
10
3.388
20
14.592
11
3.486
21
14.592
0
0
LINE
8
0
10
3.486
20
14.592
11
4.497
21
14.592
0
0
LINE
8
0
10
4.497
20
14.592
11
4.986
21
14.592
0
0
LINE
8
0
10
4.986
20
14.592
11
5.188
21
14.592
0
0
LINE
8
0
10
5.188
20
14.592
11
5.286
21
14.592
0
0
LINE
8
0
10
5.286
20
14.592
11
5.857
21
14.592
0
0
LINE
8
0
10
5.857
20
14.592
11
6.060
21
14.592
0
0
LINE
8
0
10
6.060
20
14.592
11
6.548
21
14.592
0
0
LINE
8
0
10
6.548
20
14.592
11
7.560
21
14.592
0
0
LINE
8
0
10
7.560
20
14.592
11
7.657
21
14.592
0
0
LINE
8
0
10
7.657
20
14.592
11
7.860
21
14.592
0
0
LINE
8
0
10
7.860
20
14.592
11
8.348
21
14.592
0
0
LINE
8
0
10
8.348
20
14.592
11
9.360
21
14.592
0
0
LINE
8
0
10
9.360
20
14.592
11
9.457
21
14.592
0
0
LINE
8
0
10
9.457
20
14.592
11
9.660
21
14.592
0
0
LINE
8
0
10
9.660
20
14.592
11
10.148
21
14.592
0
0
LINE
8
0
10
10.148
20
14.592
11
11.160
21
14.592
0
0
LINE
8
0
10
11.160
20
14.592
11
11.257
21
14.592
0
0
LINE
8
0
10
11.257
20
14.592
11
11.460
21
14.592
0
0
LINE
8
0
10
11.460
20
14.592
11
11.948
21
14.592
0
0
LINE
8
0
10
11.948
20
14.592
11
12.960
21
14.592
0
0
LINE
8
0
10
12.960
20
14.592
11
13.057
21
14.592
0
0
LINE
8
0
10
13.057
20
14.592
11
13.260
21
14.592
0
0
LINE
8
0
10
13.260
20
14.592
11
13.748
21
14.592
0
0
LINE
8
0
10
13.748
20
14.592
11
14.528
21
14.592
0
0
LINE
8
0
10
14.528
20
14.592
11
14.626
21
14.592
0
0
ENDSEC
0
EOF
