0
SECTION
2
ENTITIES
0
LINE
8
0
10
2.395
20
0.431
11
7.113
21
0.580
0
0
LINE
8
0
10
7.113
20
0.580
11
12.823
21
0.449
0
0
LINE
8
0
10
12.823
20
0.449
11
14.006
21
0.621
0
0
LINE
8
0
10
14.006
20
0.621
11
14.510
21
1.033
0
0
LINE
8
0
10
14.510
20
1.033
11
14.748
21
2.348
0
0
LINE
8
0
10
14.748
20
2.348
11
14.610
21
14.638
0
0
LINE
8
0
10
14.610
20
14.638
11
2.312
21
14.751
0
0
LINE
8
0
10
2.312
20
14.751
11
1.288
21
14.622
0
0
LINE
8
0
10
1.288
20
14.622
11
0.824
21
14.343
0
0
LINE
8
0
10
0.824
20
14.343
11
0.576
21
13.884
0
0
LINE
8
0
10
0.576
20
13.884
11
0.436
21
12.717
0
0
LINE
8
0
10
0.436
20
12.717
11
0.582
21
7.871
0
0
LINE
8
0
10
0.582
20
7.871
11
0.460
21
2.061
0
0
LINE
8
0
10
0.460
20
2.061
11
0.807
21
0.857
0
0
LINE
8
0
10
0.807
20
0.857
11
1.460
21
0.531
0
0
LINE
8
0
10
1.460
20
0.531
11
2.395
21
0.431
0
0
LINE
8
0
10
2.395
20
0.431
11
2.395
21
0.431
0
0
LINE
8
0
10
2.395
20
0.431
11
7.113
21
0.580
0
0
LINE
8
0
10
7.113
20
0.580
11
12.823
21
0.449
0
0
LINE
8
0
10
12.823
20
0.449
11
14.006
21
0.621
0
0
LINE
8
0
10
14.006
20
0.621
11
14.510
21
1.033
0
0
LINE
8
0
10
14.510
20
1.033
11
14.748
21
2.348
0
0
LINE
8
0
10
14.748
20
2.348
11
14.610
21
14.638
0
0
LINE
8
0
10
14.610
20
14.638
11
2.312
21
14.751
0
0
LINE
8
0
10
2.312
20
14.751
11
1.288
21
14.622
0
0
LINE
8
0
10
1.288
20
14.622
11
0.824
21
14.343
0
0
LINE
8
0
10
0.824
20
14.343
11
0.576
21
13.884
0
0
LINE
8
0
10
0.576
20
13.884
11
0.436
21
12.717
0
0
LINE
8
0
10
0.436
20
12.717
11
0.582
21
7.871
0
0
LINE
8
0
10
0.582
20
7.871
11
0.460
21
2.061
0
0
LINE
8
0
10
0.460
20
2.061
11
0.807
21
0.857
0
0
LINE
8
0
10
0.807
20
0.857
11
1.460
21
0.531
0
0
LINE
8
0
10
1.460
20
0.531
11
2.395
21
0.431
0
0
LINE
8
0
10
2.395
20
0.431
11
2.395
21
0.431
0
0
LINE
8
0
10
0.593
20
1.663
11
0.593
21
2.697
0
0
LINE
8
0
10
0.593
20
1.663
11
0.593
21
2.697
0
0
LINE
8
0
10
0.593
20
2.697
11
0.593
21
2.946
0
0
LINE
8
0
10
0.593
20
3.462
11
0.593
21
4.497
0
0
LINE
8
0
10
0.593
20
4.497
11
0.593
21
4.745
0
0
LINE
8
0
10
0.593
20
5.263
11
0.593
21
6.298
0
0
LINE
8
0
10
0.593
20
6.298
11
0.593
21
6.545
0
0
LINE
8
0
10
0.593
20
7.062
11
0.593
21
8.098
0
0
LINE
8
0
10
0.593
20
8.098
11
0.593
21
8.345
0
0
LINE
8
0
10
0.593
20
8.863
11
0.593
21
9.898
0
0
LINE
8
0
10
0.593
20
9.898
11
0.593
21
10.146
0
0
LINE
8
0
10
0.593
20
10.662
11
0.593
21
11.697
0
0
LINE
8
0
10
0.593
20
11.697
11
0.593
21
11.945
0
0
LINE
8
0
10
0.593
20
12.463
11
0.593
21
13.498
0
0
LINE
8
0
10
0.593
20
13.498
11
0.593
21
13.746
0
0
LINE
8
0
10
0.593
20
13.877
11
0.593
21
13.929
0
0
LINE
8
0
10
1.093
20
1.062
11
1.093
21
1.310
0
0
LINE
8
0
10
1.093
20
1.062
11
1.093
21
1.310
0
0
LINE
8
0
10
1.093
20
1.310
11
1.093
21
2.345
0
0
LINE
8
0
10
1.093
20
2.345
11
1.093
21
2.346
0
0
LINE
8
0
10
1.093
20
2.862
11
1.093
21
3.111
0
0
LINE
8
0
10
1.093
20
3.111
11
1.093
21
4.146
0
0
LINE
8
0
10
1.093
20
4.146
11
1.093
21
4.146
0
0
LINE
8
0
10
1.093
20
4.662
11
1.093
21
4.910
0
0
LINE
8
0
10
1.093
20
4.910
11
1.093
21
5.946
0
0
LINE
8
0
10
1.093
20
5.946
11
1.093
21
5.946
0
0
LINE
8
0
10
1.093
20
6.463
11
1.093
21
6.710
0
0
LINE
8
0
10
1.093
20
6.710
11
1.093
21
7.745
0
0
LINE
8
0
10
1.093
20
7.745
11
1.093
21
7.746
0
0
LINE
8
0
10
1.093
20
8.262
11
1.093
21
9.297
0
0
LINE
8
0
10
1.093
20
9.297
11
1.093
21
9.546
0
0
LINE
8
0
10
1.093
20
9.546
11
1.093
21
9.546
0
0
LINE
8
0
10
1.093
20
10.062
11
1.093
21
11.098
0
0
LINE
8
0
10
1.093
20
11.098
11
1.093
21
11.345
0
0
LINE
8
0
10
1.093
20
11.345
11
1.093
21
11.346
0
0
LINE
8
0
10
1.093
20
11.863
11
1.093
21
12.898
0
0
LINE
8
0
10
1.093
20
12.898
11
1.093
21
13.146
0
0
LINE
8
0
10
1.093
20
13.146
11
1.093
21
13.146
0
0
LINE
8
0
10
1.093
20
13.662
11
1.093
21
14.341
0
0
LINE
8
0
10
1.593
20
0.912
11
1.593
21
1.161
0
0
LINE
8
0
10
1.593
20
0.912
11
1.593
21
1.161
0
0
LINE
8
0
10
1.593
20
1.161
11
1.593
21
2.196
0
0
LINE
8
0
10
1.593
20
2.712
11
1.593
21
3.748
0
0
LINE
8
0
10
1.593
20
3.748
11
1.593
21
3.995
0
0
LINE
8
0
10
1.593
20
4.513
11
1.593
21
5.548
0
0
LINE
8
0
10
1.593
20
5.548
11
1.593
21
5.795
0
0
LINE
8
0
10
1.593
20
6.312
11
1.593
21
7.348
0
0
LINE
8
0
10
1.593
20
7.348
11
1.593
21
7.596
0
0
LINE
8
0
10
1.593
20
8.113
11
1.593
21
9.148
0
0
LINE
8
0
10
1.593
20
9.148
11
1.593
21
9.396
0
0
LINE
8
0
10
1.593
20
9.912
11
1.593
21
10.947
0
0
LINE
8
0
10
1.593
20
10.947
11
1.593
21
11.195
0
0
LINE
8
0
10
1.593
20
11.713
11
1.593
21
11.960
0
0
LINE
8
0
10
1.593
20
11.960
11
1.593
21
12.995
0
0
LINE
8
0
10
1.593
20
13.512
11
1.593
21
14.403
0
0
LINE
8
0
10
2.093
20
0.855
11
2.093
21
0.855
0
0
LINE
8
0
10
2.093
20
0.855
11
2.093
21
0.855
0
0
LINE
8
0
10
2.093
20
0.855
11
2.093
21
1.891
0
0
LINE
8
0
10
2.093
20
1.891
11
2.093
21
2.139
0
0
LINE
8
0
10
2.093
20
2.655
11
2.093
21
2.655
0
0
LINE
8
0
10
2.093
20
2.655
11
2.093
21
3.691
0
0
LINE
8
0
10
2.093
20
3.691
11
2.093
21
3.938
0
0
LINE
8
0
10
2.093
20
4.455
11
2.093
21
4.455
0
0
LINE
8
0
10
2.093
20
4.455
11
2.093
21
5.490
0
0
LINE
8
0
10
2.093
20
5.490
11
2.093
21
5.739
0
0
LINE
8
0
10
2.093
20
6.255
11
2.093
21
6.255
0
0
LINE
8
0
10
2.093
20
6.255
11
2.093
21
7.290
0
0
LINE
8
0
10
2.093
20
7.290
11
2.093
21
7.538
0
0
LINE
8
0
10
2.093
20
8.055
11
2.093
21
8.055
0
0
LINE
8
0
10
2.093
20
8.055
11
2.093
21
9.091
0
0
LINE
8
0
10
2.093
20
9.091
11
2.093
21
9.338
0
0
LINE
8
0
10
2.093
20
9.854
11
2.093
21
9.855
0
0
LINE
8
0
10
2.093
20
9.855
11
2.093
21
10.890
0
0
LINE
8
0
10
2.093
20
10.890
11
2.093
21
11.139
0
0
LINE
8
0
10
2.093
20
11.655
11
2.093
21
11.655
0
0
LINE
8
0
10
2.093
20
11.655
11
2.093
21
12.691
0
0
LINE
8
0
10
2.093
20
12.691
11
2.093
21
12.938
0
0
LINE
8
0
10
2.093
20
13.454
11
2.093
21
13.455
0
0
LINE
8
0
10
2.093
20
13.455
11
2.093
21
14.419
0
0
LINE
8
0
10
2.593
20
0.846
11
2.593
21
1.093
0
0
LINE
8
0
10
2.593
20
0.846
11
2.593
21
1.093
0
0
LINE
8
0
10
2.593
20
1.093
11
2.593
21
2.128
0
0
LINE
8
0
10
2.593
20
2.646
11
2.593
21
3.680
0
0
LINE
8
0
10
2.593
20
3.680
11
2.593
21
3.929
0
0
LINE
8
0
10
2.593
20
4.446
11
2.593
21
5.481
0
0
LINE
8
0
10
2.593
20
5.481
11
2.593
21
5.729
0
0
LINE
8
0
10
2.593
20
6.245
11
2.593
21
6.494
0
0
LINE
8
0
10
2.593
20
6.494
11
2.593
21
7.529
0
0
LINE
8
0
10
2.593
20
8.046
11
2.593
21
9.081
0
0
LINE
8
0
10
2.593
20
9.081
11
2.593
21
9.329
0
0
LINE
8
0
10
2.593
20
9.845
11
2.593
21
10.880
0
0
LINE
8
0
10
2.593
20
10.880
11
2.593
21
11.129
0
0
LINE
8
0
10
2.593
20
11.646
11
2.593
21
11.893
0
0
LINE
8
0
10
2.593
20
11.893
11
2.593
21
12.928
0
0
LINE
8
0
10
2.593
20
13.445
11
2.593
21
14.415
0
0
LINE
8
0
10
3.093
20
0.862
11
3.093
21
1.109
0
0
LINE
8
0
10
3.093
20
0.862
11
3.093
21
1.109
0
0
LINE
8
0
10
3.093
20
1.109
11
3.093
21
2.144
0
0
LINE
8
0
10
3.093
20
2.662
11
3.093
21
3.696
0
0
LINE
8
0
10
3.093
20
3.696
11
3.093
21
3.945
0
0
LINE
8
0
10
3.093
20
4.462
11
3.093
21
5.497
0
0
LINE
8
0
10
3.093
20
5.497
11
3.093
21
5.745
0
0
LINE
8
0
10
3.093
20
6.261
11
3.093
21
6.510
0
0
LINE
8
0
10
3.093
20
6.510
11
3.093
21
7.545
0
0
LINE
8
0
10
3.093
20
8.062
11
3.093
21
9.097
0
0
LINE
8
0
10
3.093
20
9.097
11
3.093
21
9.345
0
0
LINE
8
0
10
3.093
20
9.861
11
3.093
21
10.896
0
0
LINE
8
0
10
3.093
20
10.896
11
3.093
21
11.145
0
0
LINE
8
0
10
3.093
20
11.662
11
3.093
21
11.909
0
0
LINE
8
0
10
3.093
20
11.909
11
3.093
21
12.944
0
0
LINE
8
0
10
3.093
20
13.461
11
3.093
21
14.407
0
0
LINE
8
0
10
3.593
20
0.877
11
3.593
21
1.125
0
0
LINE
8
0
10
3.593
20
0.877
11
3.593
21
1.125
0
0
LINE
8
0
10
3.593
20
1.125
11
3.593
21
2.160
0
0
LINE
8
0
10
3.593
20
2.678
11
3.593
21
3.712
0
0
LINE
8
0
10
3.593
20
3.712
11
3.593
21
3.961
0
0
LINE
8
0
10
3.593
20
4.478
11
3.593
21
5.513
0
0
LINE
8
0
10
3.593
20
5.513
11
3.593
21
5.761
0
0
LINE
8
0
10
3.593
20
6.277
11
3.593
21
6.526
0
0
LINE
8
0
10
3.593
20
6.526
11
3.593
21
7.561
0
0
LINE
8
0
10
3.593
20
8.078
11
3.593
21
9.113
0
0
LINE
8
0
10
3.593
20
9.113
11
3.593
21
9.361
0
0
LINE
8
0
10
3.593
20
9.877
11
3.593
21
10.912
0
0
LINE
8
0
10
3.593
20
10.912
11
3.593
21
11.161
0
0
LINE
8
0
10
3.593
20
11.678
11
3.593
21
11.925
0
0
LINE
8
0
10
3.593
20
11.925
11
3.593
21
12.960
0
0
LINE
8
0
10
3.593
20
13.477
11
3.593
21
14.401
0
0
LINE
8
0
10
4.093
20
0.892
11
4.093
21
1.141
0
0
LINE
8
0
10
4.093
20
0.892
11
4.093
21
1.141
0
0
LINE
8
0
10
4.093
20
1.141
11
4.093
21
2.176
0
0
LINE
8
0
10
4.093
20
2.692
11
4.093
21
2.941
0
0
LINE
8
0
10
4.093
20
2.941
11
4.093
21
3.976
0
0
LINE
8
0
10
4.093
20
4.492
11
4.093
21
4.740
0
0
LINE
8
0
10
4.093
20
4.740
11
4.093
21
5.776
0
0
LINE
8
0
10
4.093
20
6.293
11
4.093
21
6.540
0
0
LINE
8
0
10
4.093
20
6.540
11
4.093
21
7.576
0
0
LINE
8
0
10
4.093
20
8.092
11
4.093
21
8.341
0
0
LINE
8
0
10
4.093
20
8.341
11
4.093
21
9.376
0
0
LINE
8
0
10
4.093
20
9.893
11
4.093
21
10.140
0
0
LINE
8
0
10
4.093
20
10.140
11
4.093
21
11.176
0
0
LINE
8
0
10
4.093
20
11.693
11
4.093
21
11.941
0
0
LINE
8
0
10
4.093
20
11.941
11
4.093
21
12.976
0
0
LINE
8
0
10
4.093
20
13.492
11
4.093
21
13.493
0
0
LINE
8
0
10
4.093
20
13.493
11
4.093
21
14.394
0
0
LINE
8
0
10
4.593
20
0.908
11
4.593
21
1.157
0
0
LINE
8
0
10
4.593
20
0.908
11
4.593
21
1.157
0
0
LINE
8
0
10
4.593
20
1.157
11
4.593
21
2.192
0
0
LINE
8
0
10
4.593
20
2.708
11
4.593
21
3.744
0
0
LINE
8
0
10
4.593
20
3.744
11
4.593
21
3.991
0
0
LINE
8
0
10
4.593
20
4.508
11
4.593
21
4.756
0
0
LINE
8
0
10
4.593
20
4.756
11
4.593
21
5.792
0
0
LINE
8
0
10
4.593
20
6.309
11
4.593
21
6.556
0
0
LINE
8
0
10
4.593
20
6.556
11
4.593
21
7.591
0
0
LINE
8
0
10
4.593
20
8.108
11
4.593
21
9.143
0
0
LINE
8
0
10
4.593
20
9.143
11
4.593
21
9.392
0
0
LINE
8
0
10
4.593
20
9.909
11
4.593
21
10.944
0
0
LINE
8
0
10
4.593
20
10.944
11
4.593
21
11.191
0
0
LINE
8
0
10
4.593
20
11.709
11
4.593
21
12.743
0
0
LINE
8
0
10
4.593
20
12.743
11
4.593
21
12.992
0
0
LINE
8
0
10
4.593
20
13.508
11
4.593
21
14.386
0
0
LINE
8
0
10
5.093
20
0.924
11
5.093
21
1.960
0
0
LINE
8
0
10
5.093
20
0.924
11
5.093
21
1.960
0
0
LINE
8
0
10
5.093
20
1.960
11
5.093
21
2.208
0
0
LINE
8
0
10
5.093
20
2.724
11
5.093
21
3.760
0
0
LINE
8
0
10
5.093
20
3.760
11
5.093
21
4.008
0
0
LINE
8
0
10
5.093
20
4.524
11
5.093
21
4.772
0
0
LINE
8
0
10
5.093
20
4.772
11
5.093
21
5.808
0
0
LINE
8
0
10
5.093
20
6.324
11
5.093
21
6.572
0
0
LINE
8
0
10
5.093
20
6.572
11
5.093
21
7.607
0
0
LINE
8
0
10
5.093
20
8.124
11
5.093
21
9.159
0
0
LINE
8
0
10
5.093
20
9.159
11
5.093
21
9.408
0
0
LINE
8
0
10
5.093
20
9.925
11
5.093
21
10.960
0
0
LINE
8
0
10
5.093
20
10.960
11
5.093
21
11.207
0
0
LINE
8
0
10
5.093
20
11.725
11
5.093
21
12.759
0
0
LINE
8
0
10
5.093
20
12.759
11
5.093
21
13.008
0
0
LINE
8
0
10
5.093
20
13.524
11
5.093
21
14.379
0
0
LINE
8
0
10
5.593
20
0.941
11
5.593
21
1.976
0
0
LINE
8
0
10
5.593
20
0.941
11
5.593
21
1.976
0
0
LINE
8
0
10
5.593
20
1.976
11
5.593
21
2.224
0
0
LINE
8
0
10
5.593
20
2.740
11
5.593
21
3.776
0
0
LINE
8
0
10
5.593
20
3.776
11
5.593
21
4.024
0
0
LINE
8
0
10
5.593
20
4.540
11
5.593
21
4.788
0
0
LINE
8
0
10
5.593
20
4.788
11
5.593
21
5.824
0
0
LINE
8
0
10
5.593
20
6.340
11
5.593
21
6.588
0
0
LINE
8
0
10
5.593
20
6.588
11
5.593
21
7.623
0
0
LINE
8
0
10
5.593
20
8.140
11
5.593
21
9.175
0
0
LINE
8
0
10
5.593
20
9.175
11
5.593
21
9.424
0
0
LINE
8
0
10
5.593
20
9.941
11
5.593
21
10.976
0
0
LINE
8
0
10
5.593
20
10.976
11
5.593
21
11.223
0
0
LINE
8
0
10
5.593
20
11.741
11
5.593
21
12.775
0
0
LINE
8
0
10
5.593
20
12.775
11
5.593
21
13.024
0
0
LINE
8
0
10
5.593
20
13.540
11
5.593
21
14.372
0
0
LINE
8
0
10
6.093
20
0.957
11
6.093
21
1.992
0
0
LINE
8
0
10
6.093
20
0.957
11
6.093
21
1.992
0
0
LINE
8
0
10
6.093
20
1.992
11
6.093
21
2.240
0
0
LINE
8
0
10
6.093
20
2.756
11
6.093
21
3.792
0
0
LINE
8
0
10
6.093
20
3.792
11
6.093
21
4.040
0
0
LINE
8
0
10
6.093
20
4.556
11
6.093
21
4.804
0
0
LINE
8
0
10
6.093
20
4.804
11
6.093
21
5.840
0
0
LINE
8
0
10
6.093
20
6.356
11
6.093
21
6.604
0
0
LINE
8
0
10
6.093
20
6.604
11
6.093
21
7.639
0
0
LINE
8
0
10
6.093
20
8.156
11
6.093
21
9.191
0
0
LINE
8
0
10
6.093
20
9.191
11
6.093
21
9.440
0
0
LINE
8
0
10
6.093
20
9.957
11
6.093
21
10.992
0
0
LINE
8
0
10
6.093
20
10.992
11
6.093
21
11.239
0
0
LINE
8
0
10
6.093
20
11.757
11
6.093
21
12.791
0
0
LINE
8
0
10
6.093
20
12.791
11
6.093
21
13.040
0
0
LINE
8
0
10
6.093
20
13.556
11
6.093
21
14.369
0
0
LINE
8
0
10
6.593
20
0.972
11
6.593
21
0.972
0
0
LINE
8
0
10
6.593
20
0.972
11
6.593
21
0.972
0
0
LINE
8
0
10
6.593
20
0.972
11
6.593
21
2.007
0
0
LINE
8
0
10
6.593
20
2.007
11
6.593
21
2.256
0
0
LINE
8
0
10
6.593
20
2.772
11
6.593
21
2.772
0
0
LINE
8
0
10
6.593
20
2.772
11
6.593
21
3.808
0
0
LINE
8
0
10
6.593
20
3.808
11
6.593
21
4.056
0
0
LINE
8
0
10
6.593
20
4.572
11
6.593
21
4.572
0
0
LINE
8
0
10
6.593
20
4.572
11
6.593
21
5.607
0
0
LINE
8
0
10
6.593
20
5.607
11
6.593
21
5.856
0
0
LINE
8
0
10
6.593
20
6.372
11
6.593
21
6.372
0
0
LINE
8
0
10
6.593
20
6.372
11
6.593
21
7.407
0
0
LINE
8
0
10
6.593
20
7.407
11
6.593
21
7.655
0
0
LINE
8
0
10
6.593
20
8.171
11
6.593
21
8.172
0
0
LINE
8
0
10
6.593
20
8.172
11
6.593
21
9.207
0
0
LINE
8
0
10
6.593
20
9.207
11
6.593
21
9.456
0
0
LINE
8
0
10
6.593
20
9.972
11
6.593
21
9.972
0
0
LINE
8
0
10
6.593
20
9.972
11
6.593
21
11.008
0
0
LINE
8
0
10
6.593
20
11.008
11
6.593
21
11.255
0
0
LINE
8
0
10
6.593
20
11.771
11
6.593
21
11.772
0
0
LINE
8
0
10
6.593
20
11.772
11
6.593
21
12.807
0
0
LINE
8
0
10
6.593
20
12.807
11
6.593
21
13.056
0
0
LINE
8
0
10
6.593
20
13.572
11
6.593
21
13.572
0
0
LINE
8
0
10
6.593
20
13.572
11
6.593
21
14.374
0
0
LINE
8
0
10
7.093
20
0.988
11
7.093
21
2.022
0
0
LINE
8
0
10
7.093
20
0.988
11
7.093
21
2.022
0
0
LINE
8
0
10
7.093
20
2.022
11
7.093
21
2.271
0
0
LINE
8
0
10
7.093
20
2.788
11
7.093
21
3.035
0
0
LINE
8
0
10
7.093
20
3.035
11
7.093
21
4.071
0
0
LINE
8
0
10
7.093
20
4.588
11
7.093
21
5.622
0
0
LINE
8
0
10
7.093
20
5.622
11
7.093
21
5.870
0
0
LINE
8
0
10
7.093
20
6.388
11
7.093
21
7.423
0
0
LINE
8
0
10
7.093
20
7.423
11
7.093
21
7.670
0
0
LINE
8
0
10
7.093
20
8.188
11
7.093
21
9.223
0
0
LINE
8
0
10
7.093
20
9.223
11
7.093
21
9.470
0
0
LINE
8
0
10
7.093
20
9.988
11
7.093
21
11.023
0
0
LINE
8
0
10
7.093
20
11.023
11
7.093
21
11.271
0
0
LINE
8
0
10
7.093
20
11.787
11
7.093
21
12.822
0
0
LINE
8
0
10
7.093
20
12.822
11
7.093
21
13.070
0
0
LINE
8
0
10
7.093
20
13.588
11
7.093
21
14.380
0
0
LINE
8
0
10
7.593
20
0.983
11
7.593
21
2.018
0
0
LINE
8
0
10
7.593
20
0.983
11
7.593
21
2.018
0
0
LINE
8
0
10
7.593
20
2.018
11
7.593
21
2.267
0
0
LINE
8
0
10
7.593
20
2.783
11
7.593
21
3.818
0
0
LINE
8
0
10
7.593
20
3.818
11
7.593
21
4.066
0
0
LINE
8
0
10
7.593
20
4.583
11
7.593
21
4.832
0
0
LINE
8
0
10
7.593
20
4.832
11
7.593
21
5.867
0
0
LINE
8
0
10
7.593
20
6.383
11
7.593
21
6.631
0
0
LINE
8
0
10
7.593
20
6.631
11
7.593
21
7.667
0
0
LINE
8
0
10
7.593
20
8.183
11
7.593
21
9.219
0
0
LINE
8
0
10
7.593
20
9.219
11
7.593
21
9.466
0
0
LINE
8
0
10
7.593
20
9.983
11
7.593
21
11.018
0
0
LINE
8
0
10
7.593
20
11.018
11
7.593
21
11.267
0
0
LINE
8
0
10
7.593
20
11.783
11
7.593
21
12.819
0
0
LINE
8
0
10
7.593
20
12.819
11
7.593
21
13.066
0
0
LINE
8
0
10
7.593
20
13.583
11
7.593
21
14.379
0
0
LINE
8
0
10
8.093
20
0.972
11
8.093
21
2.006
0
0
LINE
8
0
10
8.093
20
0.972
11
8.093
21
2.006
0
0
LINE
8
0
10
8.093
20
2.006
11
8.093
21
2.255
0
0
LINE
8
0
10
8.093
20
2.772
11
8.093
21
3.019
0
0
LINE
8
0
10
8.093
20
3.019
11
8.093
21
4.054
0
0
LINE
8
0
10
8.093
20
4.572
11
8.093
21
5.606
0
0
LINE
8
0
10
8.093
20
5.606
11
8.093
21
5.854
0
0
LINE
8
0
10
8.093
20
6.372
11
8.093
21
7.407
0
0
LINE
8
0
10
8.093
20
7.407
11
8.093
21
7.654
0
0
LINE
8
0
10
8.093
20
8.171
11
8.093
21
9.207
0
0
LINE
8
0
10
8.093
20
9.207
11
8.093
21
9.454
0
0
LINE
8
0
10
8.093
20
9.972
11
8.093
21
11.007
0
0
LINE
8
0
10
8.093
20
11.007
11
8.093
21
11.255
0
0
LINE
8
0
10
8.093
20
11.771
11
8.093
21
12.806
0
0
LINE
8
0
10
8.093
20
12.806
11
8.093
21
13.055
0
0
LINE
8
0
10
8.093
20
13.572
11
8.093
21
14.375
0
0
LINE
8
0
10
8.593
20
0.960
11
8.593
21
1.994
0
0
LINE
8
0
10
8.593
20
0.960
11
8.593
21
1.994
0
0
LINE
8
0
10
8.593
20
1.994
11
8.593
21
2.243
0
0
LINE
8
0
10
8.593
20
2.760
11
8.593
21
3.795
0
0
LINE
8
0
10
8.593
20
3.795
11
8.593
21
4.043
0
0
LINE
8
0
10
8.593
20
4.559
11
8.593
21
4.808
0
0
LINE
8
0
10
8.593
20
4.808
11
8.593
21
5.843
0
0
LINE
8
0
10
8.593
20
6.359
11
8.593
21
6.607
0
0
LINE
8
0
10
8.593
20
6.607
11
8.593
21
7.643
0
0
LINE
8
0
10
8.593
20
8.159
11
8.593
21
9.194
0
0
LINE
8
0
10
8.593
20
9.194
11
8.593
21
9.443
0
0
LINE
8
0
10
8.593
20
9.960
11
8.593
21
10.207
0
0
LINE
8
0
10
8.593
20
10.207
11
8.593
21
11.242
0
0
LINE
8
0
10
8.593
20
11.759
11
8.593
21
12.794
0
0
LINE
8
0
10
8.593
20
12.794
11
8.593
21
13.043
0
0
LINE
8
0
10
8.593
20
13.559
11
8.593
21
14.372
0
0
LINE
8
0
10
9.093
20
0.948
11
9.093
21
1.982
0
0
LINE
8
0
10
9.093
20
0.948
11
9.093
21
1.982
0
0
LINE
8
0
10
9.093
20
1.982
11
9.093
21
2.231
0
0
LINE
8
0
10
9.093
20
2.748
11
9.093
21
2.995
0
0
LINE
8
0
10
9.093
20
2.995
11
9.093
21
4.030
0
0
LINE
8
0
10
9.093
20
4.548
11
9.093
21
5.582
0
0
LINE
8
0
10
9.093
20
5.582
11
9.093
21
5.830
0
0
LINE
8
0
10
9.093
20
6.348
11
9.093
21
7.383
0
0
LINE
8
0
10
9.093
20
7.383
11
9.093
21
7.630
0
0
LINE
8
0
10
9.093
20
8.148
11
9.093
21
9.182
0
0
LINE
8
0
10
9.093
20
9.182
11
9.093
21
9.431
0
0
LINE
8
0
10
9.093
20
9.947
11
9.093
21
10.982
0
0
LINE
8
0
10
9.093
20
10.982
11
9.093
21
11.230
0
0
LINE
8
0
10
9.093
20
11.748
11
9.093
21
11.995
0
0
LINE
8
0
10
9.093
20
11.995
11
9.093
21
13.030
0
0
LINE
8
0
10
9.093
20
13.547
11
9.093
21
14.369
0
0
LINE
8
0
10
9.593
20
0.935
11
9.593
21
1.970
0
0
LINE
8
0
10
9.593
20
0.935
11
9.593
21
1.970
0
0
LINE
8
0
10
9.593
20
1.970
11
9.593
21
2.219
0
0
LINE
8
0
10
9.593
20
2.736
11
9.593
21
3.771
0
0
LINE
8
0
10
9.593
20
3.771
11
9.593
21
4.019
0
0
LINE
8
0
10
9.593
20
4.535
11
9.593
21
4.784
0
0
LINE
8
0
10
9.593
20
4.784
11
9.593
21
5.819
0
0
LINE
8
0
10
9.593
20
6.335
11
9.593
21
6.583
0
0
LINE
8
0
10
9.593
20
6.583
11
9.593
21
7.619
0
0
LINE
8
0
10
9.593
20
8.136
11
9.593
21
8.383
0
0
LINE
8
0
10
9.593
20
8.383
11
9.593
21
9.418
0
0
LINE
8
0
10
9.593
20
9.935
11
9.593
21
10.970
0
0
LINE
8
0
10
9.593
20
10.970
11
9.593
21
11.219
0
0
LINE
8
0
10
9.593
20
11.736
11
9.593
21
12.771
0
0
LINE
8
0
10
9.593
20
12.771
11
9.593
21
13.018
0
0
LINE
8
0
10
9.593
20
13.536
11
9.593
21
14.366
0
0
LINE
8
0
10
10.093
20
0.923
11
10.093
21
1.958
0
0
LINE
8
0
10
10.093
20
0.923
11
10.093
21
1.958
0
0
LINE
8
0
10
10.093
20
1.958
11
10.093
21
2.207
0
0
LINE
8
0
10
10.093
20
2.724
11
10.093
21
2.971
0
0
LINE
8
0
10
10.093
20
2.971
11
10.093
21
4.006
0
0
LINE
8
0
10
10.093
20
4.524
11
10.093
21
5.559
0
0
LINE
8
0
10
10.093
20
5.559
11
10.093
21
5.806
0
0
LINE
8
0
10
10.093
20
6.324
11
10.093
21
7.359
0
0
LINE
8
0
10
10.093
20
7.359
11
10.093
21
7.606
0
0
LINE
8
0
10
10.093
20
8.123
11
10.093
21
9.159
0
0
LINE
8
0
10
10.093
20
9.159
11
10.093
21
9.406
0
0
LINE
8
0
10
10.093
20
9.924
11
10.093
21
10.959
0
0
LINE
8
0
10
10.093
20
10.959
11
10.093
21
11.207
0
0
LINE
8
0
10
10.093
20
11.723
11
10.093
21
12.758
0
0
LINE
8
0
10
10.093
20
12.758
11
10.093
21
13.007
0
0
LINE
8
0
10
10.093
20
13.524
11
10.093
21
14.363
0
0
LINE
8
0
10
10.593
20
0.911
11
10.593
21
1.946
0
0
LINE
8
0
10
10.593
20
0.911
11
10.593
21
1.946
0
0
LINE
8
0
10
10.593
20
1.946
11
10.593
21
2.195
0
0
LINE
8
0
10
10.593
20
2.712
11
10.593
21
3.747
0
0
LINE
8
0
10
10.593
20
3.747
11
10.593
21
3.994
0
0
LINE
8
0
10
10.593
20
4.511
11
10.593
21
4.760
0
0
LINE
8
0
10
10.593
20
4.760
11
10.593
21
5.795
0
0
LINE
8
0
10
10.593
20
6.311
11
10.593
21
6.559
0
0
LINE
8
0
10
10.593
20
6.559
11
10.593
21
7.595
0
0
LINE
8
0
10
10.593
20
8.111
11
10.593
21
9.146
0
0
LINE
8
0
10
10.593
20
9.146
11
10.593
21
9.395
0
0
LINE
8
0
10
10.593
20
9.912
11
10.593
21
10.159
0
0
LINE
8
0
10
10.593
20
10.159
11
10.593
21
11.194
0
0
LINE
8
0
10
10.593
20
11.711
11
10.593
21
12.746
0
0
LINE
8
0
10
10.593
20
12.746
11
10.593
21
12.995
0
0
LINE
8
0
10
10.593
20
13.511
11
10.593
21
14.360
0
0
LINE
8
0
10
11.093
20
0.899
11
11.093
21
1.935
0
0
LINE
8
0
10
11.093
20
0.899
11
11.093
21
1.935
0
0
LINE
8
0
10
11.093
20
1.935
11
11.093
21
2.183
0
0
LINE
8
0
10
11.093
20
2.700
11
11.093
21
3.735
0
0
LINE
8
0
10
11.093
20
3.735
11
11.093
21
3.982
0
0
LINE
8
0
10
11.093
20
4.500
11
11.093
21
5.535
0
0
LINE
8
0
10
11.093
20
5.535
11
11.093
21
5.782
0
0
LINE
8
0
10
11.093
20
6.300
11
11.093
21
7.335
0
0
LINE
8
0
10
11.093
20
7.335
11
11.093
21
7.582
0
0
LINE
8
0
10
11.093
20
8.100
11
11.093
21
8.348
0
0
LINE
8
0
10
11.093
20
8.348
11
11.093
21
9.383
0
0
LINE
8
0
10
11.093
20
9.899
11
11.093
21
10.934
0
0
LINE
8
0
10
11.093
20
10.934
11
11.093
21
11.182
0
0
LINE
8
0
10
11.093
20
11.700
11
11.093
21
11.947
0
0
LINE
8
0
10
11.093
20
11.947
11
11.093
21
12.982
0
0
LINE
8
0
10
11.093
20
13.499
11
11.093
21
14.356
0
0
LINE
8
0
10
11.593
20
0.887
11
11.593
21
1.923
0
0
LINE
8
0
10
11.593
20
0.887
11
11.593
21
1.923
0
0
LINE
8
0
10
11.593
20
1.923
11
11.593
21
2.171
0
0
LINE
8
0
10
11.593
20
2.688
11
11.593
21
3.723
0
0
LINE
8
0
10
11.593
20
3.723
11
11.593
21
3.970
0
0
LINE
8
0
10
11.593
20
4.487
11
11.593
21
4.736
0
0
LINE
8
0
10
11.593
20
4.736
11
11.593
21
5.771
0
0
LINE
8
0
10
11.593
20
6.287
11
11.593
21
6.535
0
0
LINE
8
0
10
11.593
20
6.535
11
11.593
21
7.571
0
0
LINE
8
0
10
11.593
20
8.088
11
11.593
21
8.335
0
0
LINE
8
0
10
11.593
20
8.335
11
11.593
21
9.370
0
0
LINE
8
0
10
11.593
20
9.887
11
11.593
21
10.922
0
0
LINE
8
0
10
11.593
20
10.922
11
11.593
21
11.171
0
0
LINE
8
0
10
11.593
20
11.688
11
11.593
21
12.723
0
0
LINE
8
0
10
11.593
20
12.723
11
11.593
21
12.970
0
0
LINE
8
0
10
11.593
20
13.488
11
11.593
21
14.353
0
0
LINE
8
0
10
12.093
20
0.875
11
12.093
21
1.911
0
0
LINE
8
0
10
12.093
20
0.875
11
12.093
21
1.911
0
0
LINE
8
0
10
12.093
20
1.911
11
12.093
21
2.159
0
0
LINE
8
0
10
12.093
20
2.675
11
12.093
21
3.711
0
0
LINE
8
0
10
12.093
20
3.711
11
12.093
21
3.958
0
0
LINE
8
0
10
12.093
20
4.476
11
12.093
21
5.511
0
0
LINE
8
0
10
12.093
20
5.511
11
12.093
21
5.758
0
0
LINE
8
0
10
12.093
20
6.276
11
12.093
21
7.311
0
0
LINE
8
0
10
12.093
20
7.311
11
12.093
21
7.559
0
0
LINE
8
0
10
12.093
20
8.075
11
12.093
21
9.111
0
0
LINE
8
0
10
12.093
20
9.111
11
12.093
21
9.358
0
0
LINE
8
0
10
12.093
20
9.876
11
12.093
21
10.911
0
0
LINE
8
0
10
12.093
20
10.911
11
12.093
21
11.159
0
0
LINE
8
0
10
12.093
20
11.675
11
12.093
21
12.710
0
0
LINE
8
0
10
12.093
20
12.710
11
12.093
21
12.959
0
0
LINE
8
0
10
12.093
20
13.476
11
12.093
21
14.350
0
0
LINE
8
0
10
12.593
20
0.864
11
12.593
21
1.899
0
0
LINE
8
0
10
12.593
20
0.864
11
12.593
21
1.899
0
0
LINE
8
0
10
12.593
20
1.899
11
12.593
21
2.147
0
0
LINE
8
0
10
12.593
20
2.663
11
12.593
21
3.699
0
0
LINE
8
0
10
12.593
20
3.699
11
12.593
21
3.946
0
0
LINE
8
0
10
12.593
20
4.463
11
12.593
21
4.712
0
0
LINE
8
0
10
12.593
20
4.712
11
12.593
21
5.747
0
0
LINE
8
0
10
12.593
20
6.263
11
12.593
21
6.511
0
0
LINE
8
0
10
12.593
20
6.511
11
12.593
21
7.546
0
0
LINE
8
0
10
12.593
20
8.063
11
12.593
21
9.098
0
0
LINE
8
0
10
12.593
20
9.098
11
12.593
21
9.347
0
0
LINE
8
0
10
12.593
20
9.864
11
12.593
21
10.111
0
0
LINE
8
0
10
12.593
20
10.111
11
12.593
21
11.146
0
0
LINE
8
0
10
12.593
20
11.664
11
12.593
21
12.698
0
0
LINE
8
0
10
12.593
20
12.698
11
12.593
21
12.947
0
0
LINE
8
0
10
12.593
20
13.463
11
12.593
21
14.347
0
0
LINE
8
0
10
13.093
20
0.864
11
13.093
21
1.899
0
0
LINE
8
0
10
13.093
20
0.864
11
13.093
21
1.899
0
0
LINE
8
0
10
13.093
20
1.899
11
13.093
21
2.147
0
0
LINE
8
0
10
13.093
20
2.663
11
13.093
21
3.699
0
0
LINE
8
0
10
13.093
20
3.699
11
13.093
21
3.946
0
0
LINE
8
0
10
13.093
20
4.463
11
13.093
21
4.712
0
0
LINE
8
0
10
13.093
20
4.712
11
13.093
21
5.747
0
0
LINE
8
0
10
13.093
20
6.263
11
13.093
21
6.511
0
0
LINE
8
0
10
13.093
20
6.511
11
13.093
21
7.546
0
0
LINE
8
0
10
13.093
20
8.063
11
13.093
21
9.098
0
0
LINE
8
0
10
13.093
20
9.098
11
13.093
21
9.347
0
0
LINE
8
0
10
13.093
20
9.864
11
13.093
21
10.111
0
0
LINE
8
0
10
13.093
20
10.111
11
13.093
21
11.146
0
0
LINE
8
0
10
13.093
20
11.664
11
13.093
21
12.698
0
0
LINE
8
0
10
13.093
20
12.698
11
13.093
21
12.947
0
0
LINE
8
0
10
13.093
20
13.463
11
13.093
21
14.347
0
0
LINE
8
0
10
13.593
20
0.931
11
13.593
21
1.966
0
0
LINE
8
0
10
13.593
20
0.931
11
13.593
21
1.966
0
0
LINE
8
0
10
13.593
20
1.966
11
13.593
21
2.215
0
0
LINE
8
0
10
13.593
20
2.732
11
13.593
21
2.979
0
0
LINE
8
0
10
13.593
20
2.979
11
13.593
21
4.014
0
0
LINE
8
0
10
13.593
20
4.532
11
13.593
21
5.566
0
0
LINE
8
0
10
13.593
20
5.566
11
13.593
21
5.814
0
0
LINE
8
0
10
13.593
20
6.332
11
13.593
21
7.367
0
0
LINE
8
0
10
13.593
20
7.367
11
13.593
21
7.614
0
0
LINE
8
0
10
13.593
20
8.132
11
13.593
21
9.166
0
0
LINE
8
0
10
13.593
20
9.166
11
13.593
21
9.415
0
0
LINE
8
0
10
13.593
20
9.931
11
13.593
21
10.966
0
0
LINE
8
0
10
13.593
20
10.966
11
13.593
21
11.214
0
0
LINE
8
0
10
13.593
20
11.732
11
13.593
21
11.979
0
0
LINE
8
0
10
13.593
20
11.979
11
13.593
21
13.014
0
0
LINE
8
0
10
13.593
20
13.531
11
13.593
21
14.368
0
0
LINE
8
0
10
14.093
20
1.062
11
14.093
21
1.310
0
0
LINE
8
0
10
14.093
20
1.062
11
14.093
21
1.310
0
0
LINE
8
0
10
14.093
20
1.310
11
14.093
21
2.345
0
0
LINE
8
0
10
14.093
20
2.862
11
14.093
21
3.111
0
0
LINE
8
0
10
14.093
20
3.111
11
14.093
21
4.146
0
0
LINE
8
0
10
14.093
20
4.662
11
14.093
21
4.910
0
0
LINE
8
0
10
14.093
20
4.910
11
14.093
21
5.946
0
0
LINE
8
0
10
14.093
20
6.463
11
14.093
21
6.710
0
0
LINE
8
0
10
14.093
20
6.710
11
14.093
21
7.745
0
0
LINE
8
0
10
14.093
20
8.262
11
14.093
21
9.297
0
0
LINE
8
0
10
14.093
20
9.297
11
14.093
21
9.546
0
0
LINE
8
0
10
14.093
20
10.062
11
14.093
21
11.098
0
0
LINE
8
0
10
14.093
20
11.098
11
14.093
21
11.345
0
0
LINE
8
0
10
14.093
20
11.863
11
14.093
21
12.898
0
0
LINE
8
0
10
14.093
20
12.898
11
14.093
21
13.146
0
0
LINE
8
0
10
14.093
20
13.662
11
14.093
21
14.410
0
0
LINE
8
0
10
14.593
20
1.635
11
14.593
21
2.670
0
0
LINE
8
0
10
14.593
20
1.635
11
14.593
21
2.670
0
0
LINE
8
0
10
14.593
20
2.670
11
14.593
21
2.918
0
0
LINE
8
0
10
14.593
20
3.434
11
14.593
21
4.470
0
0
LINE
8
0
10
14.593
20
4.470
11
14.593
21
4.718
0
0
LINE
8
0
10
14.593
20
5.234
11
14.593
21
6.270
0
0
LINE
8
0
10
14.593
20
6.270
11
14.593
21
6.519
0
0
LINE
8
0
10
14.593
20
7.035
11
14.593
21
8.070
0
0
LINE
8
0
10
14.593
20
8.070
11
14.593
21
8.319
0
0
LINE
8
0
10
14.593
20
8.835
11
14.593
21
9.870
0
0
LINE
8
0
10
14.593
20
9.870
11
14.593
21
10.118
0
0
LINE
8
0
10
14.593
20
10.634
11
14.593
21
10.883
0
0
LINE
8
0
10
14.593
20
10.883
11
14.593
21
11.918
0
0
LINE
8
0
10
14.593
20
12.434
11
14.593
21
13.470
0
0
LINE
8
0
10
14.593
20
13.470
11
14.593
21
13.719
0
0
LINE
8
0
10
14.593
20
14.235
11
14.593
21
14.588
0
0
LINE
8
0
10
1.234
20
0.592
11
1.301
21
0.592
0
0
LINE
8
0
10
1.234
20
0.592
11
1.301
21
0.592
0
0
LINE
8
0
10
1.439
20
0.592
11
1.687
21
0.592
0
0
LINE
8
0
10
1.687
20
0.592
11
2.723
21
0.592
0
0
LINE
8
0
10
3.240
20
0.592
11
3.487
21
0.592
0
0
LINE
8
0
10
3.487
20
0.592
11
4.522
21
0.592
0
0
LINE
8
0
10
5.040
20
0.592
11
5.287
21
0.592
0
0
LINE
8
0
10
5.287
20
0.592
11
6.322
21
0.592
0
0
LINE
8
0
10
6.840
20
0.592
11
7.875
21
0.592
0
0
LINE
8
0
10
7.875
20
0.592
11
8.123
21
0.592
0
0
LINE
8
0
10
8.639
20
0.592
11
8.887
21
0.592
0
0
LINE
8
0
10
8.887
20
0.592
11
9.922
21
0.592
0
0
LINE
8
0
10
10.440
20
0.592
11
11.475
21
0.592
0
0
LINE
8
0
10
11.475
20
0.592
11
11.723
21
0.592
0
0
LINE
8
0
10
12.239
20
0.592
11
12.488
21
0.592
0
0
LINE
8
0
10
12.488
20
0.592
11
13.523
21
0.592
0
0
LINE
8
0
10
0.848
20
1.092
11
1.528
21
1.092
0
0
LINE
8
0
10
0.848
20
1.092
11
1.528
21
1.092
0
0
LINE
8
0
10
2.046
20
1.092
11
2.293
21
1.092
0
0
LINE
8
0
10
2.293
20
1.092
11
3.329
21
1.092
0
0
LINE
8
0
10
3.845
20
1.092
11
4.093
21
1.092
0
0
LINE
8
0
10
4.093
20
1.092
11
5.128
21
1.092
0
0
LINE
8
0
10
5.646
20
1.092
11
6.681
21
1.092
0
0
LINE
8
0
10
6.681
20
1.092
11
6.928
21
1.092
0
0
LINE
8
0
10
7.446
20
1.092
11
8.480
21
1.092
0
0
LINE
8
0
10
8.480
20
1.092
11
8.729
21
1.092
0
0
LINE
8
0
10
9.245
20
1.092
11
9.493
21
1.092
0
0
LINE
8
0
10
9.493
20
1.092
11
10.528
21
1.092
0
0
LINE
8
0
10
11.046
20
1.092
11
12.081
21
1.092
0
0
LINE
8
0
10
12.081
20
1.092
11
12.329
21
1.092
0
0
LINE
8
0
10
12.845
20
1.092
11
13.094
21
1.092
0
0
LINE
8
0
10
13.094
20
1.092
11
14.129
21
1.092
0
0
LINE
8
0
10
0.796
20
1.592
11
1.655
21
1.592
0
0
LINE
8
0
10
0.796
20
1.592
11
1.655
21
1.592
0
0
LINE
8
0
10
2.172
20
1.592
11
2.421
21
1.592
0
0
LINE
8
0
10
2.421
20
1.592
11
3.455
21
1.592
0
0
LINE
8
0
10
3.973
20
1.592
11
5.008
21
1.592
0
0
LINE
8
0
10
5.008
20
1.592
11
5.255
21
1.592
0
0
LINE
8
0
10
5.772
20
1.592
11
6.021
21
1.592
0
0
LINE
8
0
10
6.021
20
1.592
11
7.056
21
1.592
0
0
LINE
8
0
10
7.572
20
1.592
11
8.607
21
1.592
0
0
LINE
8
0
10
8.607
20
1.592
11
8.855
21
1.592
0
0
LINE
8
0
10
9.373
20
1.592
11
10.408
21
1.592
0
0
LINE
8
0
10
10.408
20
1.592
11
10.655
21
1.592
0
0
LINE
8
0
10
11.172
20
1.592
11
11.421
21
1.592
0
0
LINE
8
0
10
11.421
20
1.592
11
12.456
21
1.592
0
0
LINE
8
0
10
12.973
20
1.592
11
13.220
21
1.592
0
0
LINE
8
0
10
13.220
20
1.592
11
14.255
21
1.592
0
0
LINE
8
0
10
0.773
20
2.092
11
1.720
21
2.092
0
0
LINE
8
0
10
0.773
20
2.092
11
1.720
21
2.092
0
0
LINE
8
0
10
2.236
20
2.092
11
2.485
21
2.092
0
0
LINE
8
0
10
2.485
20
2.092
11
3.519
21
2.092
0
0
LINE
8
0
10
4.037
20
2.092
11
5.072
21
2.092
0
0
LINE
8
0
10
5.072
20
2.092
11
5.319
21
2.092
0
0
LINE
8
0
10
5.837
20
2.092
11
6.872
21
2.092
0
0
LINE
8
0
10
6.872
20
2.092
11
7.120
21
2.092
0
0
LINE
8
0
10
7.636
20
2.092
11
8.671
21
2.092
0
0
LINE
8
0
10
8.671
20
2.092
11
8.919
21
2.092
0
0
LINE
8
0
10
9.437
20
2.092
11
10.472
21
2.092
0
0
LINE
8
0
10
10.472
20
2.092
11
10.720
21
2.092
0
0
LINE
8
0
10
11.236
20
2.092
11
11.485
21
2.092
0
0
LINE
8
0
10
11.485
20
2.092
11
12.520
21
2.092
0
0
LINE
8
0
10
13.037
20
2.092
11
13.284
21
2.092
0
0
LINE
8
0
10
13.284
20
2.092
11
14.319
21
2.092
0
0
LINE
8
0
10
0.772
20
2.592
11
1.730
21
2.592
0
0
LINE
8
0
10
0.772
20
2.592
11
1.730
21
2.592
0
0
LINE
8
0
10
2.248
20
2.592
11
2.495
21
2.592
0
0
LINE
8
0
10
2.495
20
2.592
11
3.530
21
2.592
0
0
LINE
8
0
10
4.048
20
2.592
11
4.295
21
2.592
0
0
LINE
8
0
10
4.295
20
2.592
11
5.330
21
2.592
0
0
LINE
8
0
10
5.848
20
2.592
11
6.883
21
2.592
0
0
LINE
8
0
10
6.883
20
2.592
11
7.130
21
2.592
0
0
LINE
8
0
10
7.647
20
2.592
11
7.896
21
2.592
0
0
LINE
8
0
10
7.896
20
2.592
11
8.931
21
2.592
0
0
LINE
8
0
10
9.447
20
2.592
11
9.695
21
2.592
0
0
LINE
8
0
10
9.695
20
2.592
11
10.730
21
2.592
0
0
LINE
8
0
10
11.248
20
2.592
11
11.495
21
2.592
0
0
LINE
8
0
10
11.495
20
2.592
11
12.530
21
2.592
0
0
LINE
8
0
10
13.047
20
2.592
11
13.296
21
2.592
0
0
LINE
8
0
10
13.296
20
2.592
11
14.331
21
2.592
0
0
LINE
8
0
10
0.776
20
3.092
11
1.714
21
3.092
0
0
LINE
8
0
10
0.776
20
3.092
11
1.714
21
3.092
0
0
LINE
8
0
10
2.231
20
3.092
11
3.265
21
3.092
0
0
LINE
8
0
10
3.265
20
3.092
11
3.514
21
3.092
0
0
LINE
8
0
10
4.030
20
3.092
11
5.066
21
3.092
0
0
LINE
8
0
10
5.066
20
3.092
11
5.314
21
3.092
0
0
LINE
8
0
10
5.830
20
3.092
11
6.079
21
3.092
0
0
LINE
8
0
10
6.079
20
3.092
11
7.114
21
3.092
0
0
LINE
8
0
10
7.630
20
3.092
11
8.665
21
3.092
0
0
LINE
8
0
10
8.665
20
3.092
11
8.914
21
3.092
0
0
LINE
8
0
10
9.431
20
3.092
11
9.678
21
3.092
0
0
LINE
8
0
10
9.678
20
3.092
11
10.713
21
3.092
0
0
LINE
8
0
10
11.230
20
3.092
11
11.479
21
3.092
0
0
LINE
8
0
10
11.479
20
3.092
11
12.514
21
3.092
0
0
LINE
8
0
10
13.030
20
3.092
11
13.278
21
3.092
0
0
LINE
8
0
10
13.278
20
3.092
11
14.313
21
3.092
0
0
LINE
8
0
10
0.779
20
3.592
11
1.696
21
3.592
0
0
LINE
8
0
10
0.779
20
3.592
11
1.696
21
3.592
0
0
LINE
8
0
10
2.212
20
3.592
11
2.461
21
3.592
0
0
LINE
8
0
10
2.461
20
3.592
11
3.495
21
3.592
0
0
LINE
8
0
10
4.013
20
3.592
11
5.048
21
3.592
0
0
LINE
8
0
10
5.048
20
3.592
11
5.295
21
3.592
0
0
LINE
8
0
10
5.812
20
3.592
11
6.848
21
3.592
0
0
LINE
8
0
10
6.848
20
3.592
11
7.096
21
3.592
0
0
LINE
8
0
10
7.612
20
3.592
11
8.648
21
3.592
0
0
LINE
8
0
10
8.648
20
3.592
11
8.896
21
3.592
0
0
LINE
8
0
10
9.412
20
3.592
11
9.661
21
3.592
0
0
LINE
8
0
10
9.661
20
3.592
11
10.695
21
3.592
0
0
LINE
8
0
10
11.213
20
3.592
11
11.460
21
3.592
0
0
LINE
8
0
10
11.460
20
3.592
11
12.495
21
3.592
0
0
LINE
8
0
10
13.012
20
3.592
11
13.261
21
3.592
0
0
LINE
8
0
10
13.261
20
3.592
11
14.296
21
3.592
0
0
LINE
8
0
10
0.782
20
4.092
11
1.678
21
4.092
0
0
LINE
8
0
10
0.782
20
4.092
11
1.678
21
4.092
0
0
LINE
8
0
10
2.195
20
4.092
11
2.443
21
4.092
0
0
LINE
8
0
10
2.443
20
4.092
11
3.478
21
4.092
0
0
LINE
8
0
10
3.994
20
4.092
11
4.243
21
4.092
0
0
LINE
8
0
10
4.243
20
4.092
11
5.279
21
4.092
0
0
LINE
8
0
10
5.795
20
4.092
11
6.043
21
4.092
0
0
LINE
8
0
10
6.043
20
4.092
11
7.079
21
4.092
0
0
LINE
8
0
10
7.595
20
4.092
11
8.630
21
4.092
0
0
LINE
8
0
10
8.630
20
4.092
11
8.879
21
4.092
0
0
LINE
8
0
10
9.395
20
4.092
11
9.643
21
4.092
0
0
LINE
8
0
10
9.643
20
4.092
11
10.678
21
4.092
0
0
LINE
8
0
10
11.194
20
4.092
11
11.443
21
4.092
0
0
LINE
8
0
10
11.443
20
4.092
11
12.479
21
4.092
0
0
LINE
8
0
10
12.995
20
4.092
11
13.243
21
4.092
0
0
LINE
8
0
10
13.243
20
4.092
11
14.278
21
4.092
0
0
LINE
8
0
10
0.786
20
4.592
11
1.661
21
4.592
0
0
LINE
8
0
10
0.786
20
4.592
11
1.661
21
4.592
0
0
LINE
8
0
10
2.178
20
4.592
11
2.425
21
4.592
0
0
LINE
8
0
10
2.425
20
4.592
11
3.461
21
4.592
0
0
LINE
8
0
10
3.978
20
4.592
11
5.013
21
4.592
0
0
LINE
8
0
10
5.013
20
4.592
11
5.261
21
4.592
0
0
LINE
8
0
10
5.777
20
4.592
11
6.026
21
4.592
0
0
LINE
8
0
10
6.026
20
4.592
11
7.061
21
4.592
0
0
LINE
8
0
10
7.577
20
4.592
11
8.613
21
4.592
0
0
LINE
8
0
10
8.613
20
4.592
11
8.861
21
4.592
0
0
LINE
8
0
10
9.377
20
4.592
11
9.626
21
4.592
0
0
LINE
8
0
10
9.626
20
4.592
11
10.661
21
4.592
0
0
LINE
8
0
10
11.178
20
4.592
11
11.425
21
4.592
0
0
LINE
8
0
10
11.425
20
4.592
11
12.460
21
4.592
0
0
LINE
8
0
10
12.977
20
4.592
11
13.226
21
4.592
0
0
LINE
8
0
10
13.226
20
4.592
11
14.261
21
4.592
0
0
LINE
8
0
10
0.788
20
5.092
11
1.643
21
5.092
0
0
LINE
8
0
10
0.788
20
5.092
11
1.643
21
5.092
0
0
LINE
8
0
10
2.159
20
5.092
11
2.408
21
5.092
0
0
LINE
8
0
10
2.408
20
5.092
11
3.442
21
5.092
0
0
LINE
8
0
10
3.959
20
5.092
11
4.995
21
5.092
0
0
LINE
8
0
10
4.995
20
5.092
11
5.242
21
5.092
0
0
LINE
8
0
10
5.760
20
5.092
11
6.795
21
5.092
0
0
LINE
8
0
10
6.795
20
5.092
11
7.043
21
5.092
0
0
LINE
8
0
10
7.559
20
5.092
11
8.595
21
5.092
0
0
LINE
8
0
10
8.595
20
5.092
11
8.842
21
5.092
0
0
LINE
8
0
10
9.360
20
5.092
11
10.395
21
5.092
0
0
LINE
8
0
10
10.395
20
5.092
11
10.643
21
5.092
0
0
LINE
8
0
10
11.159
20
5.092
11
11.408
21
5.092
0
0
LINE
8
0
10
11.408
20
5.092
11
12.443
21
5.092
0
0
LINE
8
0
10
12.960
20
5.092
11
13.207
21
5.092
0
0
LINE
8
0
10
13.207
20
5.092
11
14.242
21
5.092
0
0
LINE
8
0
10
0.792
20
5.592
11
1.625
21
5.592
0
0
LINE
8
0
10
0.792
20
5.592
11
1.625
21
5.592
0
0
LINE
8
0
10
2.142
20
5.592
11
2.356
21
5.592
0
0
LINE
8
0
10
2.356
20
5.592
11
3.425
21
5.592
0
0
LINE
8
0
10
3.942
20
5.592
11
4.191
21
5.592
0
0
LINE
8
0
10
4.191
20
5.592
11
5.226
21
5.592
0
0
LINE
8
0
10
5.742
20
5.592
11
5.990
21
5.592
0
0
LINE
8
0
10
5.990
20
5.592
11
7.026
21
5.592
0
0
LINE
8
0
10
7.542
20
5.592
11
7.790
21
5.592
0
0
LINE
8
0
10
7.790
20
5.592
11
8.825
21
5.592
0
0
LINE
8
0
10
9.342
20
5.592
11
9.591
21
5.592
0
0
LINE
8
0
10
9.591
20
5.592
11
10.626
21
5.592
0
0
LINE
8
0
10
11.142
20
5.592
11
11.390
21
5.592
0
0
LINE
8
0
10
11.390
20
5.592
11
12.425
21
5.592
0
0
LINE
8
0
10
12.942
20
5.592
11
13.977
21
5.592
0
0
LINE
8
0
10
13.977
20
5.592
11
14.226
21
5.592
0
0
LINE
8
0
10
0.798
20
6.092
11
1.617
21
6.092
0
0
LINE
8
0
10
0.798
20
6.092
11
1.617
21
6.092
0
0
LINE
8
0
10
2.135
20
6.092
11
2.382
21
6.092
0
0
LINE
8
0
10
2.382
20
6.092
11
3.417
21
6.092
0
0
LINE
8
0
10
3.934
20
6.092
11
4.183
21
6.092
0
0
LINE
8
0
10
4.183
20
6.092
11
5.218
21
6.092
0
0
LINE
8
0
10
5.734
20
6.092
11
5.982
21
6.092
0
0
LINE
8
0
10
5.982
20
6.092
11
7.018
21
6.092
0
0
LINE
8
0
10
7.535
20
6.092
11
8.569
21
6.092
0
0
LINE
8
0
10
8.569
20
6.092
11
8.818
21
6.092
0
0
LINE
8
0
10
9.335
20
6.092
11
9.582
21
6.092
0
0
LINE
8
0
10
9.582
20
6.092
11
10.617
21
6.092
0
0
LINE
8
0
10
11.134
20
6.092
11
11.383
21
6.092
0
0
LINE
8
0
10
11.383
20
6.092
11
12.418
21
6.092
0
0
LINE
8
0
10
12.934
20
6.092
11
13.182
21
6.092
0
0
LINE
8
0
10
13.182
20
6.092
11
14.217
21
6.092
0
0
LINE
8
0
10
0.807
20
6.592
11
1.617
21
6.592
0
0
LINE
8
0
10
0.807
20
6.592
11
1.617
21
6.592
0
0
LINE
8
0
10
2.135
20
6.592
11
2.382
21
6.592
0
0
LINE
8
0
10
2.382
20
6.592
11
3.417
21
6.592
0
0
LINE
8
0
10
3.934
20
6.592
11
4.183
21
6.592
0
0
LINE
8
0
10
4.183
20
6.592
11
5.218
21
6.592
0
0
LINE
8
0
10
5.734
20
6.592
11
5.982
21
6.592
0
0
LINE
8
0
10
5.982
20
6.592
11
7.018
21
6.592
0
0
LINE
8
0
10
7.535
20
6.592
11
8.569
21
6.592
0
0
LINE
8
0
10
8.569
20
6.592
11
8.818
21
6.592
0
0
LINE
8
0
10
9.335
20
6.592
11
9.582
21
6.592
0
0
LINE
8
0
10
9.582
20
6.592
11
10.617
21
6.592
0
0
LINE
8
0
10
11.134
20
6.592
11
11.383
21
6.592
0
0
LINE
8
0
10
11.383
20
6.592
11
12.418
21
6.592
0
0
LINE
8
0
10
12.934
20
6.592
11
13.182
21
6.592
0
0
LINE
8
0
10
13.182
20
6.592
11
14.217
21
6.592
0
0
LINE
8
0
10
0.816
20
7.092
11
1.617
21
7.092
0
0
LINE
8
0
10
0.816
20
7.092
11
1.617
21
7.092
0
0
LINE
8
0
10
2.135
20
7.092
11
2.382
21
7.092
0
0
LINE
8
0
10
2.382
20
7.092
11
3.417
21
7.092
0
0
LINE
8
0
10
3.934
20
7.092
11
4.183
21
7.092
0
0
LINE
8
0
10
4.183
20
7.092
11
5.218
21
7.092
0
0
LINE
8
0
10
5.734
20
7.092
11
5.982
21
7.092
0
0
LINE
8
0
10
5.982
20
7.092
11
7.018
21
7.092
0
0
LINE
8
0
10
7.535
20
7.092
11
8.569
21
7.092
0
0
LINE
8
0
10
8.569
20
7.092
11
8.818
21
7.092
0
0
LINE
8
0
10
9.335
20
7.092
11
9.582
21
7.092
0
0
LINE
8
0
10
9.582
20
7.092
11
10.617
21
7.092
0
0
LINE
8
0
10
11.134
20
7.092
11
11.383
21
7.092
0
0
LINE
8
0
10
11.383
20
7.092
11
12.418
21
7.092
0
0
LINE
8
0
10
12.934
20
7.092
11
13.182
21
7.092
0
0
LINE
8
0
10
13.182
20
7.092
11
14.217
21
7.092
0
0
LINE
8
0
10
0.824
20
7.592
11
1.617
21
7.592
0
0
LINE
8
0
10
0.824
20
7.592
11
1.617
21
7.592
0
0
LINE
8
0
10
2.135
20
7.592
11
2.382
21
7.592
0
0
LINE
8
0
10
2.382
20
7.592
11
3.417
21
7.592
0
0
LINE
8
0
10
3.934
20
7.592
11
4.183
21
7.592
0
0
LINE
8
0
10
4.183
20
7.592
11
5.218
21
7.592
0
0
LINE
8
0
10
5.734
20
7.592
11
5.982
21
7.592
0
0
LINE
8
0
10
5.982
20
7.592
11
7.018
21
7.592
0
0
LINE
8
0
10
7.535
20
7.592
11
7.782
21
7.592
0
0
LINE
8
0
10
7.782
20
7.592
11
8.818
21
7.592
0
0
LINE
8
0
10
9.335
20
7.592
11
9.582
21
7.592
0
0
LINE
8
0
10
9.582
20
7.592
11
10.617
21
7.592
0
0
LINE
8
0
10
11.134
20
7.592
11
11.383
21
7.592
0
0
LINE
8
0
10
11.383
20
7.592
11
12.418
21
7.592
0
0
LINE
8
0
10
12.934
20
7.592
11
13.182
21
7.592
0
0
LINE
8
0
10
13.182
20
7.592
11
14.217
21
7.592
0
0
LINE
8
0
10
0.823
20
8.092
11
1.617
21
8.092
0
0
LINE
8
0
10
0.823
20
8.092
11
1.617
21
8.092
0
0
LINE
8
0
10
2.135
20
8.092
11
2.382
21
8.092
0
0
LINE
8
0
10
2.382
20
8.092
11
3.417
21
8.092
0
0
LINE
8
0
10
3.934
20
8.092
11
4.183
21
8.092
0
0
LINE
8
0
10
4.183
20
8.092
11
5.218
21
8.092
0
0
LINE
8
0
10
5.734
20
8.092
11
5.982
21
8.092
0
0
LINE
8
0
10
5.982
20
8.092
11
7.018
21
8.092
0
0
LINE
8
0
10
7.535
20
8.092
11
8.569
21
8.092
0
0
LINE
8
0
10
8.569
20
8.092
11
8.818
21
8.092
0
0
LINE
8
0
10
9.335
20
8.092
11
9.582
21
8.092
0
0
LINE
8
0
10
9.582
20
8.092
11
10.617
21
8.092
0
0
LINE
8
0
10
11.134
20
8.092
11
11.383
21
8.092
0
0
LINE
8
0
10
11.383
20
8.092
11
12.418
21
8.092
0
0
LINE
8
0
10
12.934
20
8.092
11
13.182
21
8.092
0
0
LINE
8
0
10
13.182
20
8.092
11
14.217
21
8.092
0
0
LINE
8
0
10
0.813
20
8.592
11
1.617
21
8.592
0
0
LINE
8
0
10
0.813
20
8.592
11
1.617
21
8.592
0
0
LINE
8
0
10
2.135
20
8.592
11
2.382
21
8.592
0
0
LINE
8
0
10
2.382
20
8.592
11
3.417
21
8.592
0
0
LINE
8
0
10
3.934
20
8.592
11
4.183
21
8.592
0
0
LINE
8
0
10
4.183
20
8.592
11
5.218
21
8.592
0
0
LINE
8
0
10
5.734
20
8.592
11
5.982
21
8.592
0
0
LINE
8
0
10
5.982
20
8.592
11
7.018
21
8.592
0
0
LINE
8
0
10
7.535
20
8.592
11
8.569
21
8.592
0
0
LINE
8
0
10
8.569
20
8.592
11
8.818
21
8.592
0
0
LINE
8
0
10
9.335
20
8.592
11
9.582
21
8.592
0
0
LINE
8
0
10
9.582
20
8.592
11
10.617
21
8.592
0
0
LINE
8
0
10
11.134
20
8.592
11
11.383
21
8.592
0
0
LINE
8
0
10
11.383
20
8.592
11
12.418
21
8.592
0
0
LINE
8
0
10
12.934
20
8.592
11
13.182
21
8.592
0
0
LINE
8
0
10
13.182
20
8.592
11
14.217
21
8.592
0
0
LINE
8
0
10
0.803
20
9.092
11
1.617
21
9.092
0
0
LINE
8
0
10
0.803
20
9.092
11
1.617
21
9.092
0
0
LINE
8
0
10
2.135
20
9.092
11
2.382
21
9.092
0
0
LINE
8
0
10
2.382
20
9.092
11
3.417
21
9.092
0
0
LINE
8
0
10
3.934
20
9.092
11
4.183
21
9.092
0
0
LINE
8
0
10
4.183
20
9.092
11
5.218
21
9.092
0
0
LINE
8
0
10
5.734
20
9.092
11
5.982
21
9.092
0
0
LINE
8
0
10
5.982
20
9.092
11
7.018
21
9.092
0
0
LINE
8
0
10
7.535
20
9.092
11
8.569
21
9.092
0
0
LINE
8
0
10
8.569
20
9.092
11
8.818
21
9.092
0
0
LINE
8
0
10
9.335
20
9.092
11
9.582
21
9.092
0
0
LINE
8
0
10
9.582
20
9.092
11
10.617
21
9.092
0
0
LINE
8
0
10
11.134
20
9.092
11
11.383
21
9.092
0
0
LINE
8
0
10
11.383
20
9.092
11
12.418
21
9.092
0
0
LINE
8
0
10
12.934
20
9.092
11
13.182
21
9.092
0
0
LINE
8
0
10
13.182
20
9.092
11
14.217
21
9.092
0
0
LINE
8
0
10
0.792
20
9.592
11
1.617
21
9.592
0
0
LINE
8
0
10
0.792
20
9.592
11
1.617
21
9.592
0
0
LINE
8
0
10
2.135
20
9.592
11
2.382
21
9.592
0
0
LINE
8
0
10
2.382
20
9.592
11
3.417
21
9.592
0
0
LINE
8
0
10
3.934
20
9.592
11
4.183
21
9.592
0
0
LINE
8
0
10
4.183
20
9.592
11
5.218
21
9.592
0
0
LINE
8
0
10
5.734
20
9.592
11
5.982
21
9.592
0
0
LINE
8
0
10
5.982
20
9.592
11
7.018
21
9.592
0
0
LINE
8
0
10
7.535
20
9.592
11
8.569
21
9.592
0
0
LINE
8
0
10
8.569
20
9.592
11
8.818
21
9.592
0
0
LINE
8
0
10
9.335
20
9.592
11
9.582
21
9.592
0
0
LINE
8
0
10
9.582
20
9.592
11
10.617
21
9.592
0
0
LINE
8
0
10
11.134
20
9.592
11
11.383
21
9.592
0
0
LINE
8
0
10
11.383
20
9.592
11
12.418
21
9.592
0
0
LINE
8
0
10
12.934
20
9.592
11
13.182
21
9.592
0
0
LINE
8
0
10
13.182
20
9.592
11
14.217
21
9.592
0
0
LINE
8
0
10
0.781
20
10.092
11
1.617
21
10.092
0
0
LINE
8
0
10
0.781
20
10.092
11
1.617
21
10.092
0
0
LINE
8
0
10
2.135
20
10.092
11
2.382
21
10.092
0
0
LINE
8
0
10
2.382
20
10.092
11
3.417
21
10.092
0
0
LINE
8
0
10
3.934
20
10.092
11
4.183
21
10.092
0
0
LINE
8
0
10
4.183
20
10.092
11
5.218
21
10.092
0
0
LINE
8
0
10
5.734
20
10.092
11
5.982
21
10.092
0
0
LINE
8
0
10
5.982
20
10.092
11
7.018
21
10.092
0
0
LINE
8
0
10
7.535
20
10.092
11
8.569
21
10.092
0
0
LINE
8
0
10
8.569
20
10.092
11
8.818
21
10.092
0
0
LINE
8
0
10
9.335
20
10.092
11
9.582
21
10.092
0
0
LINE
8
0
10
9.582
20
10.092
11
10.617
21
10.092
0
0
LINE
8
0
10
11.134
20
10.092
11
11.383
21
10.092
0
0
LINE
8
0
10
11.383
20
10.092
11
12.418
21
10.092
0
0
LINE
8
0
10
12.934
20
10.092
11
13.182
21
10.092
0
0
LINE
8
0
10
13.182
20
10.092
11
14.217
21
10.092
0
0
LINE
8
0
10
0.771
20
10.592
11
1.617
21
10.592
0
0
LINE
8
0
10
0.771
20
10.592
11
1.617
21
10.592
0
0
LINE
8
0
10
2.135
20
10.592
11
2.382
21
10.592
0
0
LINE
8
0
10
2.382
20
10.592
11
3.417
21
10.592
0
0
LINE
8
0
10
3.934
20
10.592
11
4.183
21
10.592
0
0
LINE
8
0
10
4.183
20
10.592
11
5.218
21
10.592
0
0
LINE
8
0
10
5.734
20
10.592
11
5.982
21
10.592
0
0
LINE
8
0
10
5.982
20
10.592
11
7.018
21
10.592
0
0
LINE
8
0
10
7.535
20
10.592
11
8.569
21
10.592
0
0
LINE
8
0
10
8.569
20
10.592
11
8.818
21
10.592
0
0
LINE
8
0
10
9.335
20
10.592
11
9.582
21
10.592
0
0
LINE
8
0
10
9.582
20
10.592
11
10.617
21
10.592
0
0
LINE
8
0
10
11.134
20
10.592
11
11.383
21
10.592
0
0
LINE
8
0
10
11.383
20
10.592
11
12.418
21
10.592
0
0
LINE
8
0
10
12.934
20
10.592
11
13.182
21
10.592
0
0
LINE
8
0
10
13.182
20
10.592
11
14.217
21
10.592
0
0
LINE
8
0
10
0.761
20
11.092
11
1.617
21
11.092
0
0
LINE
8
0
10
0.761
20
11.092
11
1.617
21
11.092
0
0
LINE
8
0
10
2.135
20
11.092
11
2.382
21
11.092
0
0
LINE
8
0
10
2.382
20
11.092
11
3.417
21
11.092
0
0
LINE
8
0
10
3.934
20
11.092
11
4.183
21
11.092
0
0
LINE
8
0
10
4.183
20
11.092
11
5.218
21
11.092
0
0
LINE
8
0
10
5.734
20
11.092
11
5.982
21
11.092
0
0
LINE
8
0
10
5.982
20
11.092
11
7.018
21
11.092
0
0
LINE
8
0
10
7.535
20
11.092
11
8.569
21
11.092
0
0
LINE
8
0
10
8.569
20
11.092
11
8.818
21
11.092
0
0
LINE
8
0
10
9.335
20
11.092
11
9.582
21
11.092
0
0
LINE
8
0
10
9.582
20
11.092
11
10.617
21
11.092
0
0
LINE
8
0
10
11.134
20
11.092
11
11.383
21
11.092
0
0
LINE
8
0
10
11.383
20
11.092
11
12.418
21
11.092
0
0
LINE
8
0
10
12.934
20
11.092
11
13.182
21
11.092
0
0
LINE
8
0
10
13.182
20
11.092
11
14.217
21
11.092
0
0
LINE
8
0
10
0.749
20
11.592
11
1.617
21
11.592
0
0
LINE
8
0
10
0.749
20
11.592
11
1.617
21
11.592
0
0
LINE
8
0
10
2.135
20
11.592
11
2.382
21
11.592
0
0
LINE
8
0
10
2.382
20
11.592
11
3.417
21
11.592
0
0
LINE
8
0
10
3.934
20
11.592
11
4.183
21
11.592
0
0
LINE
8
0
10
4.183
20
11.592
11
5.218
21
11.592
0
0
LINE
8
0
10
5.734
20
11.592
11
5.982
21
11.592
0
0
LINE
8
0
10
5.982
20
11.592
11
7.018
21
11.592
0
0
LINE
8
0
10
7.535
20
11.592
11
8.569
21
11.592
0
0
LINE
8
0
10
8.569
20
11.592
11
8.818
21
11.592
0
0
LINE
8
0
10
9.335
20
11.592
11
9.582
21
11.592
0
0
LINE
8
0
10
9.582
20
11.592
11
10.617
21
11.592
0
0
LINE
8
0
10
11.134
20
11.592
11
11.383
21
11.592
0
0
LINE
8
0
10
11.383
20
11.592
11
12.418
21
11.592
0
0
LINE
8
0
10
12.934
20
11.592
11
13.182
21
11.592
0
0
LINE
8
0
10
13.182
20
11.592
11
14.217
21
11.592
0
0
LINE
8
0
10
0.739
20
12.092
11
1.617
21
12.092
0
0
LINE
8
0
10
0.739
20
12.092
11
1.617
21
12.092
0
0
LINE
8
0
10
2.135
20
12.092
11
2.382
21
12.092
0
0
LINE
8
0
10
2.382
20
12.092
11
3.417
21
12.092
0
0
LINE
8
0
10
3.934
20
12.092
11
4.183
21
12.092
0
0
LINE
8
0
10
4.183
20
12.092
11
5.218
21
12.092
0
0
LINE
8
0
10
5.734
20
12.092
11
5.982
21
12.092
0
0
LINE
8
0
10
5.982
20
12.092
11
7.018
21
12.092
0
0
LINE
8
0
10
7.535
20
12.092
11
8.569
21
12.092
0
0
LINE
8
0
10
8.569
20
12.092
11
8.818
21
12.092
0
0
LINE
8
0
10
9.335
20
12.092
11
9.582
21
12.092
0
0
LINE
8
0
10
9.582
20
12.092
11
10.617
21
12.092
0
0
LINE
8
0
10
11.134
20
12.092
11
11.383
21
12.092
0
0
LINE
8
0
10
11.383
20
12.092
11
12.418
21
12.092
0
0
LINE
8
0
10
12.934
20
12.092
11
13.182
21
12.092
0
0
LINE
8
0
10
13.182
20
12.092
11
14.217
21
12.092
0
0
LINE
8
0
10
0.729
20
12.592
11
1.617
21
12.592
0
0
LINE
8
0
10
0.729
20
12.592
11
1.617
21
12.592
0
0
LINE
8
0
10
2.135
20
12.592
11
2.382
21
12.592
0
0
LINE
8
0
10
2.382
20
12.592
11
3.417
21
12.592
0
0
LINE
8
0
10
3.934
20
12.592
11
4.183
21
12.592
0
0
LINE
8
0
10
4.183
20
12.592
11
5.218
21
12.592
0
0
LINE
8
0
10
5.734
20
12.592
11
5.982
21
12.592
0
0
LINE
8
0
10
5.982
20
12.592
11
7.018
21
12.592
0
0
LINE
8
0
10
7.535
20
12.592
11
8.569
21
12.592
0
0
LINE
8
0
10
8.569
20
12.592
11
8.818
21
12.592
0
0
LINE
8
0
10
9.335
20
12.592
11
9.582
21
12.592
0
0
LINE
8
0
10
9.582
20
12.592
11
10.617
21
12.592
0
0
LINE
8
0
10
11.134
20
12.592
11
11.383
21
12.592
0
0
LINE
8
0
10
11.383
20
12.592
11
12.418
21
12.592
0
0
LINE
8
0
10
12.934
20
12.592
11
13.182
21
12.592
0
0
LINE
8
0
10
13.182
20
12.592
11
14.217
21
12.592
0
0
LINE
8
0
10
0.738
20
13.092
11
1.617
21
13.092
0
0
LINE
8
0
10
0.738
20
13.092
11
1.617
21
13.092
0
0
LINE
8
0
10
2.135
20
13.092
11
2.382
21
13.092
0
0
LINE
8
0
10
2.382
20
13.092
11
3.417
21
13.092
0
0
LINE
8
0
10
3.934
20
13.092
11
4.183
21
13.092
0
0
LINE
8
0
10
4.183
20
13.092
11
5.218
21
13.092
0
0
LINE
8
0
10
5.734
20
13.092
11
5.982
21
13.092
0
0
LINE
8
0
10
5.982
20
13.092
11
7.018
21
13.092
0
0
LINE
8
0
10
7.535
20
13.092
11
8.569
21
13.092
0
0
LINE
8
0
10
8.569
20
13.092
11
8.818
21
13.092
0
0
LINE
8
0
10
9.335
20
13.092
11
9.582
21
13.092
0
0
LINE
8
0
10
9.582
20
13.092
11
10.617
21
13.092
0
0
LINE
8
0
10
11.134
20
13.092
11
11.383
21
13.092
0
0
LINE
8
0
10
11.383
20
13.092
11
12.418
21
13.092
0
0
LINE
8
0
10
12.934
20
13.092
11
13.182
21
13.092
0
0
LINE
8
0
10
13.182
20
13.092
11
14.217
21
13.092
0
0
LINE
8
0
10
0.779
20
13.592
11
1.617
21
13.592
0
0
LINE
8
0
10
0.779
20
13.592
11
1.617
21
13.592
0
0
LINE
8
0
10
2.135
20
13.592
11
2.382
21
13.592
0
0
LINE
8
0
10
2.382
20
13.592
11
3.417
21
13.592
0
0
LINE
8
0
10
3.934
20
13.592
11
4.183
21
13.592
0
0
LINE
8
0
10
4.183
20
13.592
11
5.218
21
13.592
0
0
LINE
8
0
10
5.734
20
13.592
11
5.982
21
13.592
0
0
LINE
8
0
10
5.982
20
13.592
11
7.018
21
13.592
0
0
LINE
8
0
10
7.535
20
13.592
11
8.569
21
13.592
0
0
LINE
8
0
10
8.569
20
13.592
11
8.818
21
13.592
0
0
LINE
8
0
10
9.335
20
13.592
11
9.582
21
13.592
0
0
LINE
8
0
10
9.582
20
13.592
11
10.617
21
13.592
0
0
LINE
8
0
10
11.134
20
13.592
11
11.383
21
13.592
0
0
LINE
8
0
10
11.383
20
13.592
11
12.418
21
13.592
0
0
LINE
8
0
10
12.934
20
13.592
11
13.182
21
13.592
0
0
LINE
8
0
10
13.182
20
13.592
11
14.217
21
13.592
0
0
LINE
8
0
10
0.878
20
14.092
11
1.617
21
14.092
0
0
LINE
8
0
10
0.878
20
14.092
11
1.617
21
14.092
0
0
LINE
8
0
10
2.135
20
14.092
11
2.382
21
14.092
0
0
LINE
8
0
10
2.382
20
14.092
11
3.417
21
14.092
0
0
LINE
8
0
10
3.934
20
14.092
11
4.183
21
14.092
0
0
LINE
8
0
10
4.183
20
14.092
11
5.218
21
14.092
0
0
LINE
8
0
10
5.734
20
14.092
11
5.982
21
14.092
0
0
LINE
8
0
10
5.982
20
14.092
11
7.018
21
14.092
0
0
LINE
8
0
10
7.535
20
14.092
11
8.569
21
14.092
0
0
LINE
8
0
10
8.569
20
14.092
11
8.818
21
14.092
0
0
LINE
8
0
10
9.335
20
14.092
11
9.582
21
14.092
0
0
LINE
8
0
10
9.582
20
14.092
11
10.617
21
14.092
0
0
LINE
8
0
10
11.134
20
14.092
11
11.383
21
14.092
0
0
LINE
8
0
10
11.383
20
14.092
11
12.418
21
14.092
0
0
LINE
8
0
10
12.934
20
14.092
11
13.182
21
14.092
0
0
LINE
8
0
10
13.182
20
14.092
11
14.217
21
14.092
0
0
LINE
8
0
10
1.269
20
14.592
11
1.617
21
14.592
0
0
LINE
8
0
10
1.269
20
14.592
11
1.617
21
14.592
0
0
LINE
8
0
10
2.135
20
14.592
11
2.382
21
14.592
0
0
LINE
8
0
10
2.382
20
14.592
11
3.417
21
14.592
0
0
LINE
8
0
10
3.934
20
14.592
11
4.183
21
14.592
0
0
LINE
8
0
10
4.183
20
14.592
11
5.218
21
14.592
0
0
LINE
8
0
10
5.734
20
14.592
11
5.982
21
14.592
0
0
LINE
8
0
10
5.982
20
14.592
11
7.018
21
14.592
0
0
LINE
8
0
10
7.535
20
14.592
11
8.569
21
14.592
0
0
LINE
8
0
10
8.569
20
14.592
11
8.818
21
14.592
0
0
LINE
8
0
10
9.335
20
14.592
11
9.582
21
14.592
0
0
LINE
8
0
10
9.582
20
14.592
11
10.617
21
14.592
0
0
LINE
8
0
10
11.134
20
14.592
11
11.383
21
14.592
0
0
LINE
8
0
10
11.383
20
14.592
11
12.418
21
14.592
0
0
LINE
8
0
10
12.934
20
14.592
11
13.182
21
14.592
0
0
LINE
8
0
10
13.182
20
14.592
11
14.217
21
14.592
0
0
ENDSEC
0
EOF
