0
SECTION
2
ENTITIES
0
LINE
8
0
10
2.519
20
0.435
11
7.203
21
0.583
0
0
LINE
8
0
10
7.203
20
0.583
11
12.891
21
0.448
0
0
LINE
8
0
10
12.891
20
0.448
11
13.927
21
0.591
0
0
LINE
8
0
10
13.927
20
0.591
11
14.458
21
0.980
0
0
LINE
8
0
10
14.458
20
0.980
11
14.745
21
2.444
0
0
LINE
8
0
10
14.745
20
2.444
11
14.618
21
14.618
0
0
LINE
8
0
10
14.618
20
14.618
11
2.142
21
14.742
0
0
LINE
8
0
10
2.142
20
14.742
11
1.251
21
14.606
0
0
LINE
8
0
10
1.251
20
14.606
11
0.813
21
14.334
0
0
LINE
8
0
10
0.813
20
14.334
11
0.557
21
13.798
0
0
LINE
8
0
10
0.557
20
13.798
11
0.436
21
12.702
0
0
LINE
8
0
10
0.436
20
12.702
11
0.578
21
7.927
0
0
LINE
8
0
10
0.578
20
7.927
11
0.472
21
1.969
0
0
LINE
8
0
10
0.472
20
1.969
11
0.588
21
1.266
0
0
LINE
8
0
10
0.588
20
1.266
11
0.964
21
0.730
0
0
LINE
8
0
10
0.964
20
0.730
11
1.730
21
0.476
0
0
LINE
8
0
10
1.730
20
0.476
11
2.519
21
0.435
0
0
LINE
8
0
10
2.519
20
0.435
11
2.519
21
0.435
0
0
LINE
8
0
10
2.519
20
0.435
11
7.203
21
0.583
0
0
LINE
8
0
10
7.203
20
0.583
11
12.891
21
0.448
0
0
LINE
8
0
10
12.891
20
0.448
11
13.927
21
0.591
0
0
LINE
8
0
10
13.927
20
0.591
11
14.458
21
0.980
0
0
LINE
8
0
10
14.458
20
0.980
11
14.745
21
2.444
0
0
LINE
8
0
10
14.745
20
2.444
11
14.618
21
14.618
0
0
LINE
8
0
10
14.618
20
14.618
11
2.142
21
14.742
0
0
LINE
8
0
10
2.142
20
14.742
11
1.251
21
14.606
0
0
LINE
8
0
10
1.251
20
14.606
11
0.813
21
14.334
0
0
LINE
8
0
10
0.813
20
14.334
11
0.557
21
13.798
0
0
LINE
8
0
10
0.557
20
13.798
11
0.436
21
12.702
0
0
LINE
8
0
10
0.436
20
12.702
11
0.578
21
7.927
0
0
LINE
8
0
10
0.578
20
7.927
11
0.472
21
1.969
0
0
LINE
8
0
10
0.472
20
1.969
11
0.588
21
1.266
0
0
LINE
8
0
10
0.588
20
1.266
11
0.964
21
0.730
0
0
LINE
8
0
10
0.964
20
0.730
11
1.730
21
0.476
0
0
LINE
8
0
10
1.730
20
0.476
11
2.519
21
0.435
0
0
LINE
8
0
10
2.519
20
0.435
11
2.519
21
0.435
0
0
LINE
8
0
10
0.593
20
1.254
11
0.593
21
1.322
0
0
LINE
8
0
10
0.593
20
1.254
11
0.593
21
1.322
0
0
LINE
8
0
10
0.593
20
1.322
11
0.593
21
1.350
0
0
LINE
8
0
10
0.593
20
1.350
11
0.593
21
2.710
0
0
LINE
8
0
10
0.593
20
2.710
11
0.593
21
2.850
0
0
LINE
8
0
10
0.593
20
2.850
11
0.593
21
3.122
0
0
LINE
8
0
10
0.593
20
3.122
11
0.593
21
3.150
0
0
LINE
8
0
10
0.593
20
3.150
11
0.593
21
4.510
0
0
LINE
8
0
10
0.593
20
4.510
11
0.593
21
4.650
0
0
LINE
8
0
10
0.593
20
4.650
11
0.593
21
4.922
0
0
LINE
8
0
10
0.593
20
4.922
11
0.593
21
4.950
0
0
LINE
8
0
10
0.593
20
4.950
11
0.593
21
6.310
0
0
LINE
8
0
10
0.593
20
6.310
11
0.593
21
6.450
0
0
LINE
8
0
10
0.593
20
6.450
11
0.593
21
6.722
0
0
LINE
8
0
10
0.593
20
6.722
11
0.593
21
6.750
0
0
LINE
8
0
10
0.593
20
6.750
11
0.593
21
8.110
0
0
LINE
8
0
10
0.593
20
8.110
11
0.593
21
8.250
0
0
LINE
8
0
10
0.593
20
8.250
11
0.593
21
8.522
0
0
LINE
8
0
10
0.593
20
8.522
11
0.593
21
8.550
0
0
LINE
8
0
10
0.593
20
8.550
11
0.593
21
9.910
0
0
LINE
8
0
10
0.593
20
9.910
11
0.593
21
10.050
0
0
LINE
8
0
10
0.593
20
10.050
11
0.593
21
10.322
0
0
LINE
8
0
10
0.593
20
10.322
11
0.593
21
10.350
0
0
LINE
8
0
10
0.593
20
10.350
11
0.593
21
11.710
0
0
LINE
8
0
10
0.593
20
11.710
11
0.593
21
11.850
0
0
LINE
8
0
10
0.593
20
11.850
11
0.593
21
12.122
0
0
LINE
8
0
10
0.593
20
12.122
11
0.593
21
12.150
0
0
LINE
8
0
10
0.593
20
12.150
11
0.593
21
13.510
0
0
LINE
8
0
10
0.593
20
13.510
11
0.593
21
13.650
0
0
LINE
8
0
10
0.593
20
13.650
11
0.593
21
13.922
0
0
LINE
8
0
10
0.593
20
13.922
11
0.593
21
13.929
0
0
LINE
8
0
10
1.093
20
0.654
11
1.093
21
0.682
0
0
LINE
8
0
10
1.093
20
0.654
11
1.093
21
0.682
0
0
LINE
8
0
10
1.093
20
0.682
11
1.093
21
1.572
0
0
LINE
8
0
10
1.093
20
1.572
11
1.093
21
1.713
0
0
LINE
8
0
10
1.093
20
1.713
11
1.093
21
1.984
0
0
LINE
8
0
10
1.093
20
1.984
11
1.093
21
2.013
0
0
LINE
8
0
10
1.093
20
2.013
11
1.093
21
3.372
0
0
LINE
8
0
10
1.093
20
3.372
11
1.093
21
3.513
0
0
LINE
8
0
10
1.093
20
3.513
11
1.093
21
3.784
0
0
LINE
8
0
10
1.093
20
3.784
11
1.093
21
3.813
0
0
LINE
8
0
10
1.093
20
3.813
11
1.093
21
5.172
0
0
LINE
8
0
10
1.093
20
5.172
11
1.093
21
5.313
0
0
LINE
8
0
10
1.093
20
5.313
11
1.093
21
5.584
0
0
LINE
8
0
10
1.093
20
5.584
11
1.093
21
5.613
0
0
LINE
8
0
10
1.093
20
5.613
11
1.093
21
6.972
0
0
LINE
8
0
10
1.093
20
6.972
11
1.093
21
7.113
0
0
LINE
8
0
10
1.093
20
7.113
11
1.093
21
7.384
0
0
LINE
8
0
10
1.093
20
7.384
11
1.093
21
7.413
0
0
LINE
8
0
10
1.093
20
7.413
11
1.093
21
8.772
0
0
LINE
8
0
10
1.093
20
8.772
11
1.093
21
8.913
0
0
LINE
8
0
10
1.093
20
8.913
11
1.093
21
9.184
0
0
LINE
8
0
10
1.093
20
9.184
11
1.093
21
9.213
0
0
LINE
8
0
10
1.093
20
9.213
11
1.093
21
10.572
0
0
LINE
8
0
10
1.093
20
10.572
11
1.093
21
10.713
0
0
LINE
8
0
10
1.093
20
10.713
11
1.093
21
10.984
0
0
LINE
8
0
10
1.093
20
10.984
11
1.093
21
11.013
0
0
LINE
8
0
10
1.093
20
11.013
11
1.093
21
12.372
0
0
LINE
8
0
10
1.093
20
12.372
11
1.093
21
12.513
0
0
LINE
8
0
10
1.093
20
12.513
11
1.093
21
12.784
0
0
LINE
8
0
10
1.093
20
12.784
11
1.093
21
12.813
0
0
LINE
8
0
10
1.093
20
12.813
11
1.093
21
14.172
0
0
LINE
8
0
10
1.093
20
14.172
11
1.093
21
14.264
0
0
LINE
8
0
10
1.093
20
14.264
11
1.093
21
14.536
0
0
LINE
8
0
10
1.093
20
14.536
11
1.093
21
14.537
0
0
LINE
8
0
10
1.593
20
0.504
11
1.593
21
0.532
0
0
LINE
8
0
10
1.593
20
0.504
11
1.593
21
0.532
0
0
LINE
8
0
10
1.593
20
0.532
11
1.593
21
1.702
0
0
LINE
8
0
10
1.593
20
1.702
11
1.593
21
1.843
0
0
LINE
8
0
10
1.593
20
1.843
11
1.593
21
2.115
0
0
LINE
8
0
10
1.593
20
2.115
11
1.593
21
2.143
0
0
LINE
8
0
10
1.593
20
2.143
11
1.593
21
3.502
0
0
LINE
8
0
10
1.593
20
3.502
11
1.593
21
3.643
0
0
LINE
8
0
10
1.593
20
3.643
11
1.593
21
3.915
0
0
LINE
8
0
10
1.593
20
3.915
11
1.593
21
3.943
0
0
LINE
8
0
10
1.593
20
3.943
11
1.593
21
5.302
0
0
LINE
8
0
10
1.593
20
5.302
11
1.593
21
5.443
0
0
LINE
8
0
10
1.593
20
5.443
11
1.593
21
5.715
0
0
LINE
8
0
10
1.593
20
5.715
11
1.593
21
5.743
0
0
LINE
8
0
10
1.593
20
5.743
11
1.593
21
7.102
0
0
LINE
8
0
10
1.593
20
7.102
11
1.593
21
7.243
0
0
LINE
8
0
10
1.593
20
7.243
11
1.593
21
7.515
0
0
LINE
8
0
10
1.593
20
7.515
11
1.593
21
7.543
0
0
LINE
8
0
10
1.593
20
7.543
11
1.593
21
8.902
0
0
LINE
8
0
10
1.593
20
8.902
11
1.593
21
9.043
0
0
LINE
8
0
10
1.593
20
9.043
11
1.593
21
9.315
0
0
LINE
8
0
10
1.593
20
9.315
11
1.593
21
9.343
0
0
LINE
8
0
10
1.593
20
9.343
11
1.593
21
10.702
0
0
LINE
8
0
10
1.593
20
10.702
11
1.593
21
10.843
0
0
LINE
8
0
10
1.593
20
10.843
11
1.593
21
11.115
0
0
LINE
8
0
10
1.593
20
11.115
11
1.593
21
11.143
0
0
LINE
8
0
10
1.593
20
11.143
11
1.593
21
12.502
0
0
LINE
8
0
10
1.593
20
12.502
11
1.593
21
12.643
0
0
LINE
8
0
10
1.593
20
12.643
11
1.593
21
12.915
0
0
LINE
8
0
10
1.593
20
12.915
11
1.593
21
12.943
0
0
LINE
8
0
10
1.593
20
12.943
11
1.593
21
14.302
0
0
LINE
8
0
10
1.593
20
14.302
11
1.593
21
14.423
0
0
LINE
8
0
10
1.593
20
14.423
11
1.593
21
14.695
0
0
LINE
8
0
10
2.093
20
0.446
11
2.093
21
0.474
0
0
LINE
8
0
10
2.093
20
0.446
11
2.093
21
0.474
0
0
LINE
8
0
10
2.093
20
0.474
11
2.093
21
1.740
0
0
LINE
8
0
10
2.093
20
1.740
11
2.093
21
1.881
0
0
LINE
8
0
10
2.093
20
1.881
11
2.093
21
2.153
0
0
LINE
8
0
10
2.093
20
2.153
11
2.093
21
2.181
0
0
LINE
8
0
10
2.093
20
2.181
11
2.093
21
3.540
0
0
LINE
8
0
10
2.093
20
3.540
11
2.093
21
3.681
0
0
LINE
8
0
10
2.093
20
3.681
11
2.093
21
3.953
0
0
LINE
8
0
10
2.093
20
3.953
11
2.093
21
3.981
0
0
LINE
8
0
10
2.093
20
3.981
11
2.093
21
5.340
0
0
LINE
8
0
10
2.093
20
5.340
11
2.093
21
5.481
0
0
LINE
8
0
10
2.093
20
5.481
11
2.093
21
5.753
0
0
LINE
8
0
10
2.093
20
5.753
11
2.093
21
5.781
0
0
LINE
8
0
10
2.093
20
5.781
11
2.093
21
7.140
0
0
LINE
8
0
10
2.093
20
7.140
11
2.093
21
7.281
0
0
LINE
8
0
10
2.093
20
7.281
11
2.093
21
7.553
0
0
LINE
8
0
10
2.093
20
7.553
11
2.093
21
7.581
0
0
LINE
8
0
10
2.093
20
7.581
11
2.093
21
8.940
0
0
LINE
8
0
10
2.093
20
8.940
11
2.093
21
9.081
0
0
LINE
8
0
10
2.093
20
9.081
11
2.093
21
9.353
0
0
LINE
8
0
10
2.093
20
9.353
11
2.093
21
9.381
0
0
LINE
8
0
10
2.093
20
9.381
11
2.093
21
10.740
0
0
LINE
8
0
10
2.093
20
10.740
11
2.093
21
10.881
0
0
LINE
8
0
10
2.093
20
10.881
11
2.093
21
11.153
0
0
LINE
8
0
10
2.093
20
11.153
11
2.093
21
11.181
0
0
LINE
8
0
10
2.093
20
11.181
11
2.093
21
12.540
0
0
LINE
8
0
10
2.093
20
12.540
11
2.093
21
12.681
0
0
LINE
8
0
10
2.093
20
12.681
11
2.093
21
12.953
0
0
LINE
8
0
10
2.093
20
12.953
11
2.093
21
12.981
0
0
LINE
8
0
10
2.093
20
12.981
11
2.093
21
14.340
0
0
LINE
8
0
10
2.093
20
14.340
11
2.093
21
14.471
0
0
LINE
8
0
10
2.093
20
14.471
11
2.093
21
14.743
0
0
LINE
8
0
10
2.093
20
14.743
11
2.093
21
14.744
0
0
LINE
8
0
10
2.593
20
0.437
11
2.593
21
0.465
0
0
LINE
8
0
10
2.593
20
0.437
11
2.593
21
0.465
0
0
LINE
8
0
10
2.593
20
0.465
11
2.593
21
1.739
0
0
LINE
8
0
10
2.593
20
1.739
11
2.593
21
1.879
0
0
LINE
8
0
10
2.593
20
1.879
11
2.593
21
2.150
0
0
LINE
8
0
10
2.593
20
2.150
11
2.593
21
2.178
0
0
LINE
8
0
10
2.593
20
2.178
11
2.593
21
3.539
0
0
LINE
8
0
10
2.593
20
3.539
11
2.593
21
3.679
0
0
LINE
8
0
10
2.593
20
3.679
11
2.593
21
3.950
0
0
LINE
8
0
10
2.593
20
3.950
11
2.593
21
3.978
0
0
LINE
8
0
10
2.593
20
3.978
11
2.593
21
5.339
0
0
LINE
8
0
10
2.593
20
5.339
11
2.593
21
5.479
0
0
LINE
8
0
10
2.593
20
5.479
11
2.593
21
5.750
0
0
LINE
8
0
10
2.593
20
5.750
11
2.593
21
5.778
0
0
LINE
8
0
10
2.593
20
5.778
11
2.593
21
7.139
0
0
LINE
8
0
10
2.593
20
7.139
11
2.593
21
7.279
0
0
LINE
8
0
10
2.593
20
7.279
11
2.593
21
7.550
0
0
LINE
8
0
10
2.593
20
7.550
11
2.593
21
7.578
0
0
LINE
8
0
10
2.593
20
7.578
11
2.593
21
8.939
0
0
LINE
8
0
10
2.593
20
8.939
11
2.593
21
9.079
0
0
LINE
8
0
10
2.593
20
9.079
11
2.593
21
9.350
0
0
LINE
8
0
10
2.593
20
9.350
11
2.593
21
9.378
0
0
LINE
8
0
10
2.593
20
9.378
11
2.593
21
10.739
0
0
LINE
8
0
10
2.593
20
10.739
11
2.593
21
10.879
0
0
LINE
8
0
10
2.593
20
10.879
11
2.593
21
11.150
0
0
LINE
8
0
10
2.593
20
11.150
11
2.593
21
11.178
0
0
LINE
8
0
10
2.593
20
11.178
11
2.593
21
12.539
0
0
LINE
8
0
10
2.593
20
12.539
11
2.593
21
12.679
0
0
LINE
8
0
10
2.593
20
12.679
11
2.593
21
12.950
0
0
LINE
8
0
10
2.593
20
12.950
11
2.593
21
12.978
0
0
LINE
8
0
10
2.593
20
12.978
11
2.593
21
14.339
0
0
LINE
8
0
10
2.593
20
14.339
11
2.593
21
14.470
0
0
LINE
8
0
10
2.593
20
14.470
11
2.593
21
14.742
0
0
LINE
8
0
10
3.093
20
0.453
11
3.093
21
0.481
0
0
LINE
8
0
10
3.093
20
0.453
11
3.093
21
0.481
0
0
LINE
8
0
10
3.093
20
0.481
11
3.093
21
1.724
0
0
LINE
8
0
10
3.093
20
1.724
11
3.093
21
1.864
0
0
LINE
8
0
10
3.093
20
1.864
11
3.093
21
2.136
0
0
LINE
8
0
10
3.093
20
2.136
11
3.093
21
2.164
0
0
LINE
8
0
10
3.093
20
2.164
11
3.093
21
3.524
0
0
LINE
8
0
10
3.093
20
3.524
11
3.093
21
3.664
0
0
LINE
8
0
10
3.093
20
3.664
11
3.093
21
3.936
0
0
LINE
8
0
10
3.093
20
3.936
11
3.093
21
3.964
0
0
LINE
8
0
10
3.093
20
3.964
11
3.093
21
5.324
0
0
LINE
8
0
10
3.093
20
5.324
11
3.093
21
5.464
0
0
LINE
8
0
10
3.093
20
5.464
11
3.093
21
5.736
0
0
LINE
8
0
10
3.093
20
5.736
11
3.093
21
5.764
0
0
LINE
8
0
10
3.093
20
5.764
11
3.093
21
7.124
0
0
LINE
8
0
10
3.093
20
7.124
11
3.093
21
7.264
0
0
LINE
8
0
10
3.093
20
7.264
11
3.093
21
7.536
0
0
LINE
8
0
10
3.093
20
7.536
11
3.093
21
7.564
0
0
LINE
8
0
10
3.093
20
7.564
11
3.093
21
8.924
0
0
LINE
8
0
10
3.093
20
8.924
11
3.093
21
9.064
0
0
LINE
8
0
10
3.093
20
9.064
11
3.093
21
9.336
0
0
LINE
8
0
10
3.093
20
9.336
11
3.093
21
9.364
0
0
LINE
8
0
10
3.093
20
9.364
11
3.093
21
10.724
0
0
LINE
8
0
10
3.093
20
10.724
11
3.093
21
10.864
0
0
LINE
8
0
10
3.093
20
10.864
11
3.093
21
11.136
0
0
LINE
8
0
10
3.093
20
11.136
11
3.093
21
11.164
0
0
LINE
8
0
10
3.093
20
11.164
11
3.093
21
12.524
0
0
LINE
8
0
10
3.093
20
12.524
11
3.093
21
12.664
0
0
LINE
8
0
10
3.093
20
12.664
11
3.093
21
12.936
0
0
LINE
8
0
10
3.093
20
12.936
11
3.093
21
12.964
0
0
LINE
8
0
10
3.093
20
12.964
11
3.093
21
14.324
0
0
LINE
8
0
10
3.093
20
14.324
11
3.093
21
14.452
0
0
LINE
8
0
10
3.093
20
14.452
11
3.093
21
14.724
0
0
LINE
8
0
10
3.593
20
0.469
11
3.593
21
0.497
0
0
LINE
8
0
10
3.593
20
0.469
11
3.593
21
0.497
0
0
LINE
8
0
10
3.593
20
0.497
11
3.593
21
1.710
0
0
LINE
8
0
10
3.593
20
1.710
11
3.593
21
1.850
0
0
LINE
8
0
10
3.593
20
1.850
11
3.593
21
2.122
0
0
LINE
8
0
10
3.593
20
2.122
11
3.593
21
2.150
0
0
LINE
8
0
10
3.593
20
2.150
11
3.593
21
3.510
0
0
LINE
8
0
10
3.593
20
3.510
11
3.593
21
3.650
0
0
LINE
8
0
10
3.593
20
3.650
11
3.593
21
3.922
0
0
LINE
8
0
10
3.593
20
3.922
11
3.593
21
3.950
0
0
LINE
8
0
10
3.593
20
3.950
11
3.593
21
5.310
0
0
LINE
8
0
10
3.593
20
5.310
11
3.593
21
5.450
0
0
LINE
8
0
10
3.593
20
5.450
11
3.593
21
5.722
0
0
LINE
8
0
10
3.593
20
5.722
11
3.593
21
5.750
0
0
LINE
8
0
10
3.593
20
5.750
11
3.593
21
7.110
0
0
LINE
8
0
10
3.593
20
7.110
11
3.593
21
7.250
0
0
LINE
8
0
10
3.593
20
7.250
11
3.593
21
7.522
0
0
LINE
8
0
10
3.593
20
7.522
11
3.593
21
7.550
0
0
LINE
8
0
10
3.593
20
7.550
11
3.593
21
8.910
0
0
LINE
8
0
10
3.593
20
8.910
11
3.593
21
9.050
0
0
LINE
8
0
10
3.593
20
9.050
11
3.593
21
9.322
0
0
LINE
8
0
10
3.593
20
9.322
11
3.593
21
9.350
0
0
LINE
8
0
10
3.593
20
9.350
11
3.593
21
10.710
0
0
LINE
8
0
10
3.593
20
10.710
11
3.593
21
10.850
0
0
LINE
8
0
10
3.593
20
10.850
11
3.593
21
11.122
0
0
LINE
8
0
10
3.593
20
11.122
11
3.593
21
11.150
0
0
LINE
8
0
10
3.593
20
11.150
11
3.593
21
12.510
0
0
LINE
8
0
10
3.593
20
12.510
11
3.593
21
12.650
0
0
LINE
8
0
10
3.593
20
12.650
11
3.593
21
12.922
0
0
LINE
8
0
10
3.593
20
12.922
11
3.593
21
12.950
0
0
LINE
8
0
10
3.593
20
12.950
11
3.593
21
14.310
0
0
LINE
8
0
10
3.593
20
14.310
11
3.593
21
14.435
0
0
LINE
8
0
10
3.593
20
14.435
11
3.593
21
14.707
0
0
LINE
8
0
10
4.093
20
0.484
11
4.093
21
0.512
0
0
LINE
8
0
10
4.093
20
0.484
11
4.093
21
0.512
0
0
LINE
8
0
10
4.093
20
0.512
11
4.093
21
1.695
0
0
LINE
8
0
10
4.093
20
1.695
11
4.093
21
1.835
0
0
LINE
8
0
10
4.093
20
1.835
11
4.093
21
2.107
0
0
LINE
8
0
10
4.093
20
2.107
11
4.093
21
2.135
0
0
LINE
8
0
10
4.093
20
2.135
11
4.093
21
3.495
0
0
LINE
8
0
10
4.093
20
3.495
11
4.093
21
3.635
0
0
LINE
8
0
10
4.093
20
3.635
11
4.093
21
3.907
0
0
LINE
8
0
10
4.093
20
3.907
11
4.093
21
3.935
0
0
LINE
8
0
10
4.093
20
3.935
11
4.093
21
5.295
0
0
LINE
8
0
10
4.093
20
5.295
11
4.093
21
5.435
0
0
LINE
8
0
10
4.093
20
5.435
11
4.093
21
5.707
0
0
LINE
8
0
10
4.093
20
5.707
11
4.093
21
5.735
0
0
LINE
8
0
10
4.093
20
5.735
11
4.093
21
7.095
0
0
LINE
8
0
10
4.093
20
7.095
11
4.093
21
7.235
0
0
LINE
8
0
10
4.093
20
7.235
11
4.093
21
7.507
0
0
LINE
8
0
10
4.093
20
7.507
11
4.093
21
7.535
0
0
LINE
8
0
10
4.093
20
7.535
11
4.093
21
8.895
0
0
LINE
8
0
10
4.093
20
8.895
11
4.093
21
9.035
0
0
LINE
8
0
10
4.093
20
9.035
11
4.093
21
9.307
0
0
LINE
8
0
10
4.093
20
9.307
11
4.093
21
9.335
0
0
LINE
8
0
10
4.093
20
9.335
11
4.093
21
10.695
0
0
LINE
8
0
10
4.093
20
10.695
11
4.093
21
10.835
0
0
LINE
8
0
10
4.093
20
10.835
11
4.093
21
11.107
0
0
LINE
8
0
10
4.093
20
11.107
11
4.093
21
11.135
0
0
LINE
8
0
10
4.093
20
11.135
11
4.093
21
12.495
0
0
LINE
8
0
10
4.093
20
12.495
11
4.093
21
12.635
0
0
LINE
8
0
10
4.093
20
12.635
11
4.093
21
12.907
0
0
LINE
8
0
10
4.093
20
12.907
11
4.093
21
12.935
0
0
LINE
8
0
10
4.093
20
12.935
11
4.093
21
14.295
0
0
LINE
8
0
10
4.093
20
14.295
11
4.093
21
14.417
0
0
LINE
8
0
10
4.093
20
14.417
11
4.093
21
14.689
0
0
LINE
8
0
10
4.093
20
14.689
11
4.093
21
14.690
0
0
LINE
8
0
10
4.593
20
0.500
11
4.593
21
0.528
0
0
LINE
8
0
10
4.593
20
0.500
11
4.593
21
0.528
0
0
LINE
8
0
10
4.593
20
0.528
11
4.593
21
1.681
0
0
LINE
8
0
10
4.593
20
1.681
11
4.593
21
1.821
0
0
LINE
8
0
10
4.593
20
1.821
11
4.593
21
2.093
0
0
LINE
8
0
10
4.593
20
2.093
11
4.593
21
2.121
0
0
LINE
8
0
10
4.593
20
2.121
11
4.593
21
3.481
0
0
LINE
8
0
10
4.593
20
3.481
11
4.593
21
3.621
0
0
LINE
8
0
10
4.593
20
3.621
11
4.593
21
3.893
0
0
LINE
8
0
10
4.593
20
3.893
11
4.593
21
3.921
0
0
LINE
8
0
10
4.593
20
3.921
11
4.593
21
5.281
0
0
LINE
8
0
10
4.593
20
5.281
11
4.593
21
5.421
0
0
LINE
8
0
10
4.593
20
5.421
11
4.593
21
5.693
0
0
LINE
8
0
10
4.593
20
5.693
11
4.593
21
5.721
0
0
LINE
8
0
10
4.593
20
5.721
11
4.593
21
7.081
0
0
LINE
8
0
10
4.593
20
7.081
11
4.593
21
7.221
0
0
LINE
8
0
10
4.593
20
7.221
11
4.593
21
7.493
0
0
LINE
8
0
10
4.593
20
7.493
11
4.593
21
7.521
0
0
LINE
8
0
10
4.593
20
7.521
11
4.593
21
8.881
0
0
LINE
8
0
10
4.593
20
8.881
11
4.593
21
9.021
0
0
LINE
8
0
10
4.593
20
9.021
11
4.593
21
9.293
0
0
LINE
8
0
10
4.593
20
9.293
11
4.593
21
9.321
0
0
LINE
8
0
10
4.593
20
9.321
11
4.593
21
10.681
0
0
LINE
8
0
10
4.593
20
10.681
11
4.593
21
10.821
0
0
LINE
8
0
10
4.593
20
10.821
11
4.593
21
11.093
0
0
LINE
8
0
10
4.593
20
11.093
11
4.593
21
11.121
0
0
LINE
8
0
10
4.593
20
11.121
11
4.593
21
12.481
0
0
LINE
8
0
10
4.593
20
12.481
11
4.593
21
12.621
0
0
LINE
8
0
10
4.593
20
12.621
11
4.593
21
12.893
0
0
LINE
8
0
10
4.593
20
12.893
11
4.593
21
12.921
0
0
LINE
8
0
10
4.593
20
12.921
11
4.593
21
14.281
0
0
LINE
8
0
10
4.593
20
14.281
11
4.593
21
14.400
0
0
LINE
8
0
10
4.593
20
14.400
11
4.593
21
14.672
0
0
LINE
8
0
10
5.093
20
0.516
11
5.093
21
0.544
0
0
LINE
8
0
10
5.093
20
0.516
11
5.093
21
0.544
0
0
LINE
8
0
10
5.093
20
0.544
11
5.093
21
1.667
0
0
LINE
8
0
10
5.093
20
1.667
11
5.093
21
1.807
0
0
LINE
8
0
10
5.093
20
1.807
11
5.093
21
2.079
0
0
LINE
8
0
10
5.093
20
2.079
11
5.093
21
2.107
0
0
LINE
8
0
10
5.093
20
2.107
11
5.093
21
3.467
0
0
LINE
8
0
10
5.093
20
3.467
11
5.093
21
3.607
0
0
LINE
8
0
10
5.093
20
3.607
11
5.093
21
3.879
0
0
LINE
8
0
10
5.093
20
3.879
11
5.093
21
3.907
0
0
LINE
8
0
10
5.093
20
3.907
11
5.093
21
5.267
0
0
LINE
8
0
10
5.093
20
5.267
11
5.093
21
5.407
0
0
LINE
8
0
10
5.093
20
5.407
11
5.093
21
5.679
0
0
LINE
8
0
10
5.093
20
5.679
11
5.093
21
5.707
0
0
LINE
8
0
10
5.093
20
5.707
11
5.093
21
7.067
0
0
LINE
8
0
10
5.093
20
7.067
11
5.093
21
7.207
0
0
LINE
8
0
10
5.093
20
7.207
11
5.093
21
7.479
0
0
LINE
8
0
10
5.093
20
7.479
11
5.093
21
7.507
0
0
LINE
8
0
10
5.093
20
7.507
11
5.093
21
8.867
0
0
LINE
8
0
10
5.093
20
8.867
11
5.093
21
9.007
0
0
LINE
8
0
10
5.093
20
9.007
11
5.093
21
9.279
0
0
LINE
8
0
10
5.093
20
9.279
11
5.093
21
9.307
0
0
LINE
8
0
10
5.093
20
9.307
11
5.093
21
10.667
0
0
LINE
8
0
10
5.093
20
10.667
11
5.093
21
10.807
0
0
LINE
8
0
10
5.093
20
10.807
11
5.093
21
11.079
0
0
LINE
8
0
10
5.093
20
11.079
11
5.093
21
11.107
0
0
LINE
8
0
10
5.093
20
11.107
11
5.093
21
12.467
0
0
LINE
8
0
10
5.093
20
12.467
11
5.093
21
12.607
0
0
LINE
8
0
10
5.093
20
12.607
11
5.093
21
12.879
0
0
LINE
8
0
10
5.093
20
12.879
11
5.093
21
12.907
0
0
LINE
8
0
10
5.093
20
12.907
11
5.093
21
14.267
0
0
LINE
8
0
10
5.093
20
14.267
11
5.093
21
14.383
0
0
LINE
8
0
10
5.093
20
14.383
11
5.093
21
14.655
0
0
LINE
8
0
10
5.593
20
0.532
11
5.593
21
0.560
0
0
LINE
8
0
10
5.593
20
0.532
11
5.593
21
0.560
0
0
LINE
8
0
10
5.593
20
0.560
11
5.593
21
1.652
0
0
LINE
8
0
10
5.593
20
1.652
11
5.593
21
1.793
0
0
LINE
8
0
10
5.593
20
1.793
11
5.593
21
2.065
0
0
LINE
8
0
10
5.593
20
2.065
11
5.593
21
2.093
0
0
LINE
8
0
10
5.593
20
2.093
11
5.593
21
3.452
0
0
LINE
8
0
10
5.593
20
3.452
11
5.593
21
3.593
0
0
LINE
8
0
10
5.593
20
3.593
11
5.593
21
3.865
0
0
LINE
8
0
10
5.593
20
3.865
11
5.593
21
3.893
0
0
LINE
8
0
10
5.593
20
3.893
11
5.593
21
5.252
0
0
LINE
8
0
10
5.593
20
5.252
11
5.593
21
5.393
0
0
LINE
8
0
10
5.593
20
5.393
11
5.593
21
5.665
0
0
LINE
8
0
10
5.593
20
5.665
11
5.593
21
5.693
0
0
LINE
8
0
10
5.593
20
5.693
11
5.593
21
7.052
0
0
LINE
8
0
10
5.593
20
7.052
11
5.593
21
7.193
0
0
LINE
8
0
10
5.593
20
7.193
11
5.593
21
7.465
0
0
LINE
8
0
10
5.593
20
7.465
11
5.593
21
7.493
0
0
LINE
8
0
10
5.593
20
7.493
11
5.593
21
8.852
0
0
LINE
8
0
10
5.593
20
8.852
11
5.593
21
8.993
0
0
LINE
8
0
10
5.593
20
8.993
11
5.593
21
9.265
0
0
LINE
8
0
10
5.593
20
9.265
11
5.593
21
9.293
0
0
LINE
8
0
10
5.593
20
9.293
11
5.593
21
10.652
0
0
LINE
8
0
10
5.593
20
10.652
11
5.593
21
10.793
0
0
LINE
8
0
10
5.593
20
10.793
11
5.593
21
11.065
0
0
LINE
8
0
10
5.593
20
11.065
11
5.593
21
11.093
0
0
LINE
8
0
10
5.593
20
11.093
11
5.593
21
12.452
0
0
LINE
8
0
10
5.593
20
12.452
11
5.593
21
12.593
0
0
LINE
8
0
10
5.593
20
12.593
11
5.593
21
12.865
0
0
LINE
8
0
10
5.593
20
12.865
11
5.593
21
12.893
0
0
LINE
8
0
10
5.593
20
12.893
11
5.593
21
14.252
0
0
LINE
8
0
10
5.593
20
14.252
11
5.593
21
14.365
0
0
LINE
8
0
10
5.593
20
14.365
11
5.593
21
14.637
0
0
LINE
8
0
10
6.093
20
0.548
11
6.093
21
0.576
0
0
LINE
8
0
10
6.093
20
0.548
11
6.093
21
0.576
0
0
LINE
8
0
10
6.093
20
0.576
11
6.093
21
1.643
0
0
LINE
8
0
10
6.093
20
1.643
11
6.093
21
1.783
0
0
LINE
8
0
10
6.093
20
1.783
11
6.093
21
2.055
0
0
LINE
8
0
10
6.093
20
2.055
11
6.093
21
2.083
0
0
LINE
8
0
10
6.093
20
2.083
11
6.093
21
3.443
0
0
LINE
8
0
10
6.093
20
3.443
11
6.093
21
3.583
0
0
LINE
8
0
10
6.093
20
3.583
11
6.093
21
3.855
0
0
LINE
8
0
10
6.093
20
3.855
11
6.093
21
3.883
0
0
LINE
8
0
10
6.093
20
3.883
11
6.093
21
5.243
0
0
LINE
8
0
10
6.093
20
5.243
11
6.093
21
5.383
0
0
LINE
8
0
10
6.093
20
5.383
11
6.093
21
5.655
0
0
LINE
8
0
10
6.093
20
5.655
11
6.093
21
5.683
0
0
LINE
8
0
10
6.093
20
5.683
11
6.093
21
7.043
0
0
LINE
8
0
10
6.093
20
7.043
11
6.093
21
7.183
0
0
LINE
8
0
10
6.093
20
7.183
11
6.093
21
7.455
0
0
LINE
8
0
10
6.093
20
7.455
11
6.093
21
7.483
0
0
LINE
8
0
10
6.093
20
7.483
11
6.093
21
8.843
0
0
LINE
8
0
10
6.093
20
8.843
11
6.093
21
8.983
0
0
LINE
8
0
10
6.093
20
8.983
11
6.093
21
9.255
0
0
LINE
8
0
10
6.093
20
9.255
11
6.093
21
9.283
0
0
LINE
8
0
10
6.093
20
9.283
11
6.093
21
10.643
0
0
LINE
8
0
10
6.093
20
10.643
11
6.093
21
10.783
0
0
LINE
8
0
10
6.093
20
10.783
11
6.093
21
11.055
0
0
LINE
8
0
10
6.093
20
11.055
11
6.093
21
11.083
0
0
LINE
8
0
10
6.093
20
11.083
11
6.093
21
12.443
0
0
LINE
8
0
10
6.093
20
12.443
11
6.093
21
12.583
0
0
LINE
8
0
10
6.093
20
12.583
11
6.093
21
12.855
0
0
LINE
8
0
10
6.093
20
12.855
11
6.093
21
12.883
0
0
LINE
8
0
10
6.093
20
12.883
11
6.093
21
14.243
0
0
LINE
8
0
10
6.093
20
14.243
11
6.093
21
14.353
0
0
LINE
8
0
10
6.093
20
14.353
11
6.093
21
14.625
0
0
LINE
8
0
10
6.593
20
0.563
11
6.593
21
0.591
0
0
LINE
8
0
10
6.593
20
0.563
11
6.593
21
0.591
0
0
LINE
8
0
10
6.593
20
0.591
11
6.593
21
1.645
0
0
LINE
8
0
10
6.593
20
1.645
11
6.593
21
1.786
0
0
LINE
8
0
10
6.593
20
1.786
11
6.593
21
2.058
0
0
LINE
8
0
10
6.593
20
2.058
11
6.593
21
2.086
0
0
LINE
8
0
10
6.593
20
2.086
11
6.593
21
3.445
0
0
LINE
8
0
10
6.593
20
3.445
11
6.593
21
3.586
0
0
LINE
8
0
10
6.593
20
3.586
11
6.593
21
3.858
0
0
LINE
8
0
10
6.593
20
3.858
11
6.593
21
3.886
0
0
LINE
8
0
10
6.593
20
3.886
11
6.593
21
5.245
0
0
LINE
8
0
10
6.593
20
5.245
11
6.593
21
5.386
0
0
LINE
8
0
10
6.593
20
5.386
11
6.593
21
5.658
0
0
LINE
8
0
10
6.593
20
5.658
11
6.593
21
5.686
0
0
LINE
8
0
10
6.593
20
5.686
11
6.593
21
7.045
0
0
LINE
8
0
10
6.593
20
7.045
11
6.593
21
7.186
0
0
LINE
8
0
10
6.593
20
7.186
11
6.593
21
7.458
0
0
LINE
8
0
10
6.593
20
7.458
11
6.593
21
7.486
0
0
LINE
8
0
10
6.593
20
7.486
11
6.593
21
8.845
0
0
LINE
8
0
10
6.593
20
8.845
11
6.593
21
8.986
0
0
LINE
8
0
10
6.593
20
8.986
11
6.593
21
9.258
0
0
LINE
8
0
10
6.593
20
9.258
11
6.593
21
9.286
0
0
LINE
8
0
10
6.593
20
9.286
11
6.593
21
10.645
0
0
LINE
8
0
10
6.593
20
10.645
11
6.593
21
10.786
0
0
LINE
8
0
10
6.593
20
10.786
11
6.593
21
11.058
0
0
LINE
8
0
10
6.593
20
11.058
11
6.593
21
11.086
0
0
LINE
8
0
10
6.593
20
11.086
11
6.593
21
12.445
0
0
LINE
8
0
10
6.593
20
12.445
11
6.593
21
12.586
0
0
LINE
8
0
10
6.593
20
12.586
11
6.593
21
12.858
0
0
LINE
8
0
10
6.593
20
12.858
11
6.593
21
12.886
0
0
LINE
8
0
10
6.593
20
12.886
11
6.593
21
14.245
0
0
LINE
8
0
10
6.593
20
14.245
11
6.593
21
14.354
0
0
LINE
8
0
10
6.593
20
14.354
11
6.593
21
14.626
0
0
LINE
8
0
10
7.093
20
0.579
11
7.093
21
0.607
0
0
LINE
8
0
10
7.093
20
0.579
11
7.093
21
0.607
0
0
LINE
8
0
10
7.093
20
0.607
11
7.093
21
1.648
0
0
LINE
8
0
10
7.093
20
1.648
11
7.093
21
1.788
0
0
LINE
8
0
10
7.093
20
1.788
11
7.093
21
2.060
0
0
LINE
8
0
10
7.093
20
2.060
11
7.093
21
2.088
0
0
LINE
8
0
10
7.093
20
2.088
11
7.093
21
3.448
0
0
LINE
8
0
10
7.093
20
3.448
11
7.093
21
3.588
0
0
LINE
8
0
10
7.093
20
3.588
11
7.093
21
3.860
0
0
LINE
8
0
10
7.093
20
3.860
11
7.093
21
3.888
0
0
LINE
8
0
10
7.093
20
3.888
11
7.093
21
5.248
0
0
LINE
8
0
10
7.093
20
5.248
11
7.093
21
5.388
0
0
LINE
8
0
10
7.093
20
5.388
11
7.093
21
5.660
0
0
LINE
8
0
10
7.093
20
5.660
11
7.093
21
5.688
0
0
LINE
8
0
10
7.093
20
5.688
11
7.093
21
7.048
0
0
LINE
8
0
10
7.093
20
7.048
11
7.093
21
7.188
0
0
LINE
8
0
10
7.093
20
7.188
11
7.093
21
7.460
0
0
LINE
8
0
10
7.093
20
7.460
11
7.093
21
7.488
0
0
LINE
8
0
10
7.093
20
7.488
11
7.093
21
8.848
0
0
LINE
8
0
10
7.093
20
8.848
11
7.093
21
8.988
0
0
LINE
8
0
10
7.093
20
8.988
11
7.093
21
9.260
0
0
LINE
8
0
10
7.093
20
9.260
11
7.093
21
9.288
0
0
LINE
8
0
10
7.093
20
9.288
11
7.093
21
10.648
0
0
LINE
8
0
10
7.093
20
10.648
11
7.093
21
10.788
0
0
LINE
8
0
10
7.093
20
10.788
11
7.093
21
11.060
0
0
LINE
8
0
10
7.093
20
11.060
11
7.093
21
11.088
0
0
LINE
8
0
10
7.093
20
11.088
11
7.093
21
12.448
0
0
LINE
8
0
10
7.093
20
12.448
11
7.093
21
12.588
0
0
LINE
8
0
10
7.093
20
12.588
11
7.093
21
12.860
0
0
LINE
8
0
10
7.093
20
12.860
11
7.093
21
12.888
0
0
LINE
8
0
10
7.093
20
12.888
11
7.093
21
14.248
0
0
LINE
8
0
10
7.093
20
14.248
11
7.093
21
14.355
0
0
LINE
8
0
10
7.093
20
14.355
11
7.093
21
14.627
0
0
LINE
8
0
10
7.593
20
0.574
11
7.593
21
0.575
0
0
LINE
8
0
10
7.593
20
0.574
11
7.593
21
0.575
0
0
LINE
8
0
10
7.593
20
0.575
11
7.593
21
0.603
0
0
LINE
8
0
10
7.593
20
0.603
11
7.593
21
1.648
0
0
LINE
8
0
10
7.593
20
1.648
11
7.593
21
1.789
0
0
LINE
8
0
10
7.593
20
1.789
11
7.593
21
2.060
0
0
LINE
8
0
10
7.593
20
2.060
11
7.593
21
2.088
0
0
LINE
8
0
10
7.593
20
2.088
11
7.593
21
3.448
0
0
LINE
8
0
10
7.593
20
3.448
11
7.593
21
3.589
0
0
LINE
8
0
10
7.593
20
3.589
11
7.593
21
3.860
0
0
LINE
8
0
10
7.593
20
3.860
11
7.593
21
3.888
0
0
LINE
8
0
10
7.593
20
3.888
11
7.593
21
5.248
0
0
LINE
8
0
10
7.593
20
5.248
11
7.593
21
5.389
0
0
LINE
8
0
10
7.593
20
5.389
11
7.593
21
5.660
0
0
LINE
8
0
10
7.593
20
5.660
11
7.593
21
5.688
0
0
LINE
8
0
10
7.593
20
5.688
11
7.593
21
7.048
0
0
LINE
8
0
10
7.593
20
7.048
11
7.593
21
7.189
0
0
LINE
8
0
10
7.593
20
7.189
11
7.593
21
7.460
0
0
LINE
8
0
10
7.593
20
7.460
11
7.593
21
7.488
0
0
LINE
8
0
10
7.593
20
7.488
11
7.593
21
8.848
0
0
LINE
8
0
10
7.593
20
8.848
11
7.593
21
8.989
0
0
LINE
8
0
10
7.593
20
8.989
11
7.593
21
9.260
0
0
LINE
8
0
10
7.593
20
9.260
11
7.593
21
9.288
0
0
LINE
8
0
10
7.593
20
9.288
11
7.593
21
10.648
0
0
LINE
8
0
10
7.593
20
10.648
11
7.593
21
10.789
0
0
LINE
8
0
10
7.593
20
10.789
11
7.593
21
11.060
0
0
LINE
8
0
10
7.593
20
11.060
11
7.593
21
11.088
0
0
LINE
8
0
10
7.593
20
11.088
11
7.593
21
12.448
0
0
LINE
8
0
10
7.593
20
12.448
11
7.593
21
12.589
0
0
LINE
8
0
10
7.593
20
12.589
11
7.593
21
12.860
0
0
LINE
8
0
10
7.593
20
12.860
11
7.593
21
12.888
0
0
LINE
8
0
10
7.593
20
12.888
11
7.593
21
14.248
0
0
LINE
8
0
10
7.593
20
14.248
11
7.593
21
14.356
0
0
LINE
8
0
10
7.593
20
14.356
11
7.593
21
14.628
0
0
LINE
8
0
10
8.093
20
0.563
11
8.093
21
0.591
0
0
LINE
8
0
10
8.093
20
0.563
11
8.093
21
0.591
0
0
LINE
8
0
10
8.093
20
0.591
11
8.093
21
1.647
0
0
LINE
8
0
10
8.093
20
1.647
11
8.093
21
1.787
0
0
LINE
8
0
10
8.093
20
1.787
11
8.093
21
2.059
0
0
LINE
8
0
10
8.093
20
2.059
11
8.093
21
2.087
0
0
LINE
8
0
10
8.093
20
2.087
11
8.093
21
3.447
0
0
LINE
8
0
10
8.093
20
3.447
11
8.093
21
3.587
0
0
LINE
8
0
10
8.093
20
3.587
11
8.093
21
3.859
0
0
LINE
8
0
10
8.093
20
3.859
11
8.093
21
3.887
0
0
LINE
8
0
10
8.093
20
3.887
11
8.093
21
5.247
0
0
LINE
8
0
10
8.093
20
5.247
11
8.093
21
5.387
0
0
LINE
8
0
10
8.093
20
5.387
11
8.093
21
5.659
0
0
LINE
8
0
10
8.093
20
5.659
11
8.093
21
5.687
0
0
LINE
8
0
10
8.093
20
5.687
11
8.093
21
7.047
0
0
LINE
8
0
10
8.093
20
7.047
11
8.093
21
7.187
0
0
LINE
8
0
10
8.093
20
7.187
11
8.093
21
7.459
0
0
LINE
8
0
10
8.093
20
7.459
11
8.093
21
7.487
0
0
LINE
8
0
10
8.093
20
7.487
11
8.093
21
8.847
0
0
LINE
8
0
10
8.093
20
8.847
11
8.093
21
8.987
0
0
LINE
8
0
10
8.093
20
8.987
11
8.093
21
9.259
0
0
LINE
8
0
10
8.093
20
9.259
11
8.093
21
9.287
0
0
LINE
8
0
10
8.093
20
9.287
11
8.093
21
10.647
0
0
LINE
8
0
10
8.093
20
10.647
11
8.093
21
10.787
0
0
LINE
8
0
10
8.093
20
10.787
11
8.093
21
11.059
0
0
LINE
8
0
10
8.093
20
11.059
11
8.093
21
11.087
0
0
LINE
8
0
10
8.093
20
11.087
11
8.093
21
12.447
0
0
LINE
8
0
10
8.093
20
12.447
11
8.093
21
12.587
0
0
LINE
8
0
10
8.093
20
12.587
11
8.093
21
12.859
0
0
LINE
8
0
10
8.093
20
12.859
11
8.093
21
12.887
0
0
LINE
8
0
10
8.093
20
12.887
11
8.093
21
14.247
0
0
LINE
8
0
10
8.093
20
14.247
11
8.093
21
14.356
0
0
LINE
8
0
10
8.093
20
14.356
11
8.093
21
14.628
0
0
LINE
8
0
10
8.593
20
0.551
11
8.593
21
0.579
0
0
LINE
8
0
10
8.593
20
0.551
11
8.593
21
0.579
0
0
LINE
8
0
10
8.593
20
0.579
11
8.593
21
1.647
0
0
LINE
8
0
10
8.593
20
1.647
11
8.593
21
1.787
0
0
LINE
8
0
10
8.593
20
1.787
11
8.593
21
2.059
0
0
LINE
8
0
10
8.593
20
2.059
11
8.593
21
2.087
0
0
LINE
8
0
10
8.593
20
2.087
11
8.593
21
3.447
0
0
LINE
8
0
10
8.593
20
3.447
11
8.593
21
3.587
0
0
LINE
8
0
10
8.593
20
3.587
11
8.593
21
3.859
0
0
LINE
8
0
10
8.593
20
3.859
11
8.593
21
3.887
0
0
LINE
8
0
10
8.593
20
3.887
11
8.593
21
5.247
0
0
LINE
8
0
10
8.593
20
5.247
11
8.593
21
5.387
0
0
LINE
8
0
10
8.593
20
5.387
11
8.593
21
5.659
0
0
LINE
8
0
10
8.593
20
5.659
11
8.593
21
5.687
0
0
LINE
8
0
10
8.593
20
5.687
11
8.593
21
7.047
0
0
LINE
8
0
10
8.593
20
7.047
11
8.593
21
7.187
0
0
LINE
8
0
10
8.593
20
7.187
11
8.593
21
7.459
0
0
LINE
8
0
10
8.593
20
7.459
11
8.593
21
7.487
0
0
LINE
8
0
10
8.593
20
7.487
11
8.593
21
8.847
0
0
LINE
8
0
10
8.593
20
8.847
11
8.593
21
8.987
0
0
LINE
8
0
10
8.593
20
8.987
11
8.593
21
9.259
0
0
LINE
8
0
10
8.593
20
9.259
11
8.593
21
9.287
0
0
LINE
8
0
10
8.593
20
9.287
11
8.593
21
10.647
0
0
LINE
8
0
10
8.593
20
10.647
11
8.593
21
10.787
0
0
LINE
8
0
10
8.593
20
10.787
11
8.593
21
11.059
0
0
LINE
8
0
10
8.593
20
11.059
11
8.593
21
11.087
0
0
LINE
8
0
10
8.593
20
11.087
11
8.593
21
12.447
0
0
LINE
8
0
10
8.593
20
12.447
11
8.593
21
12.587
0
0
LINE
8
0
10
8.593
20
12.587
11
8.593
21
12.859
0
0
LINE
8
0
10
8.593
20
12.859
11
8.593
21
12.887
0
0
LINE
8
0
10
8.593
20
12.887
11
8.593
21
14.247
0
0
LINE
8
0
10
8.593
20
14.247
11
8.593
21
14.357
0
0
LINE
8
0
10
8.593
20
14.357
11
8.593
21
14.629
0
0
LINE
8
0
10
9.093
20
0.539
11
9.093
21
0.567
0
0
LINE
8
0
10
9.093
20
0.539
11
9.093
21
0.567
0
0
LINE
8
0
10
9.093
20
0.567
11
9.093
21
1.647
0
0
LINE
8
0
10
9.093
20
1.647
11
9.093
21
1.787
0
0
LINE
8
0
10
9.093
20
1.787
11
9.093
21
2.059
0
0
LINE
8
0
10
9.093
20
2.059
11
9.093
21
2.087
0
0
LINE
8
0
10
9.093
20
2.087
11
9.093
21
3.447
0
0
LINE
8
0
10
9.093
20
3.447
11
9.093
21
3.587
0
0
LINE
8
0
10
9.093
20
3.587
11
9.093
21
3.859
0
0
LINE
8
0
10
9.093
20
3.859
11
9.093
21
3.887
0
0
LINE
8
0
10
9.093
20
3.887
11
9.093
21
5.247
0
0
LINE
8
0
10
9.093
20
5.247
11
9.093
21
5.387
0
0
LINE
8
0
10
9.093
20
5.387
11
9.093
21
5.659
0
0
LINE
8
0
10
9.093
20
5.659
11
9.093
21
5.687
0
0
LINE
8
0
10
9.093
20
5.687
11
9.093
21
7.047
0
0
LINE
8
0
10
9.093
20
7.047
11
9.093
21
7.187
0
0
LINE
8
0
10
9.093
20
7.187
11
9.093
21
7.459
0
0
LINE
8
0
10
9.093
20
7.459
11
9.093
21
7.487
0
0
LINE
8
0
10
9.093
20
7.487
11
9.093
21
8.847
0
0
LINE
8
0
10
9.093
20
8.847
11
9.093
21
8.987
0
0
LINE
8
0
10
9.093
20
8.987
11
9.093
21
9.259
0
0
LINE
8
0
10
9.093
20
9.259
11
9.093
21
9.287
0
0
LINE
8
0
10
9.093
20
9.287
11
9.093
21
10.647
0
0
LINE
8
0
10
9.093
20
10.647
11
9.093
21
10.787
0
0
LINE
8
0
10
9.093
20
10.787
11
9.093
21
11.059
0
0
LINE
8
0
10
9.093
20
11.059
11
9.093
21
11.087
0
0
LINE
8
0
10
9.093
20
11.087
11
9.093
21
12.447
0
0
LINE
8
0
10
9.093
20
12.447
11
9.093
21
12.587
0
0
LINE
8
0
10
9.093
20
12.587
11
9.093
21
12.859
0
0
LINE
8
0
10
9.093
20
12.859
11
9.093
21
12.887
0
0
LINE
8
0
10
9.093
20
12.887
11
9.093
21
14.247
0
0
LINE
8
0
10
9.093
20
14.247
11
9.093
21
14.358
0
0
LINE
8
0
10
9.093
20
14.358
11
9.093
21
14.630
0
0
LINE
8
0
10
9.593
20
0.527
11
9.593
21
0.555
0
0
LINE
8
0
10
9.593
20
0.527
11
9.593
21
0.555
0
0
LINE
8
0
10
9.593
20
0.555
11
9.593
21
1.646
0
0
LINE
8
0
10
9.593
20
1.646
11
9.593
21
1.786
0
0
LINE
8
0
10
9.593
20
1.786
11
9.593
21
2.058
0
0
LINE
8
0
10
9.593
20
2.058
11
9.593
21
2.086
0
0
LINE
8
0
10
9.593
20
2.086
11
9.593
21
3.446
0
0
LINE
8
0
10
9.593
20
3.446
11
9.593
21
3.586
0
0
LINE
8
0
10
9.593
20
3.586
11
9.593
21
3.858
0
0
LINE
8
0
10
9.593
20
3.858
11
9.593
21
3.886
0
0
LINE
8
0
10
9.593
20
3.886
11
9.593
21
5.246
0
0
LINE
8
0
10
9.593
20
5.246
11
9.593
21
5.386
0
0
LINE
8
0
10
9.593
20
5.386
11
9.593
21
5.658
0
0
LINE
8
0
10
9.593
20
5.658
11
9.593
21
5.686
0
0
LINE
8
0
10
9.593
20
5.686
11
9.593
21
7.046
0
0
LINE
8
0
10
9.593
20
7.046
11
9.593
21
7.186
0
0
LINE
8
0
10
9.593
20
7.186
11
9.593
21
7.458
0
0
LINE
8
0
10
9.593
20
7.458
11
9.593
21
7.486
0
0
LINE
8
0
10
9.593
20
7.486
11
9.593
21
8.846
0
0
LINE
8
0
10
9.593
20
8.846
11
9.593
21
8.986
0
0
LINE
8
0
10
9.593
20
8.986
11
9.593
21
9.258
0
0
LINE
8
0
10
9.593
20
9.258
11
9.593
21
9.286
0
0
LINE
8
0
10
9.593
20
9.286
11
9.593
21
10.646
0
0
LINE
8
0
10
9.593
20
10.646
11
9.593
21
10.786
0
0
LINE
8
0
10
9.593
20
10.786
11
9.593
21
11.058
0
0
LINE
8
0
10
9.593
20
11.058
11
9.593
21
11.086
0
0
LINE
8
0
10
9.593
20
11.086
11
9.593
21
12.446
0
0
LINE
8
0
10
9.593
20
12.446
11
9.593
21
12.586
0
0
LINE
8
0
10
9.593
20
12.586
11
9.593
21
12.858
0
0
LINE
8
0
10
9.593
20
12.858
11
9.593
21
12.886
0
0
LINE
8
0
10
9.593
20
12.886
11
9.593
21
14.246
0
0
LINE
8
0
10
9.593
20
14.246
11
9.593
21
14.358
0
0
LINE
8
0
10
9.593
20
14.358
11
9.593
21
14.630
0
0
LINE
8
0
10
10.093
20
0.515
11
10.093
21
0.543
0
0
LINE
8
0
10
10.093
20
0.515
11
10.093
21
0.543
0
0
LINE
8
0
10
10.093
20
0.543
11
10.093
21
1.645
0
0
LINE
8
0
10
10.093
20
1.645
11
10.093
21
1.786
0
0
LINE
8
0
10
10.093
20
1.786
11
10.093
21
2.058
0
0
LINE
8
0
10
10.093
20
2.058
11
10.093
21
2.086
0
0
LINE
8
0
10
10.093
20
2.086
11
10.093
21
3.445
0
0
LINE
8
0
10
10.093
20
3.445
11
10.093
21
3.586
0
0
LINE
8
0
10
10.093
20
3.586
11
10.093
21
3.858
0
0
LINE
8
0
10
10.093
20
3.858
11
10.093
21
3.886
0
0
LINE
8
0
10
10.093
20
3.886
11
10.093
21
5.245
0
0
LINE
8
0
10
10.093
20
5.245
11
10.093
21
5.386
0
0
LINE
8
0
10
10.093
20
5.386
11
10.093
21
5.658
0
0
LINE
8
0
10
10.093
20
5.658
11
10.093
21
5.686
0
0
LINE
8
0
10
10.093
20
5.686
11
10.093
21
7.045
0
0
LINE
8
0
10
10.093
20
7.045
11
10.093
21
7.186
0
0
LINE
8
0
10
10.093
20
7.186
11
10.093
21
7.458
0
0
LINE
8
0
10
10.093
20
7.458
11
10.093
21
7.486
0
0
LINE
8
0
10
10.093
20
7.486
11
10.093
21
8.845
0
0
LINE
8
0
10
10.093
20
8.845
11
10.093
21
8.986
0
0
LINE
8
0
10
10.093
20
8.986
11
10.093
21
9.258
0
0
LINE
8
0
10
10.093
20
9.258
11
10.093
21
9.286
0
0
LINE
8
0
10
10.093
20
9.286
11
10.093
21
10.645
0
0
LINE
8
0
10
10.093
20
10.645
11
10.093
21
10.786
0
0
LINE
8
0
10
10.093
20
10.786
11
10.093
21
11.058
0
0
LINE
8
0
10
10.093
20
11.058
11
10.093
21
11.086
0
0
LINE
8
0
10
10.093
20
11.086
11
10.093
21
12.445
0
0
LINE
8
0
10
10.093
20
12.445
11
10.093
21
12.586
0
0
LINE
8
0
10
10.093
20
12.586
11
10.093
21
12.858
0
0
LINE
8
0
10
10.093
20
12.858
11
10.093
21
12.886
0
0
LINE
8
0
10
10.093
20
12.886
11
10.093
21
14.245
0
0
LINE
8
0
10
10.093
20
14.245
11
10.093
21
14.359
0
0
LINE
8
0
10
10.093
20
14.359
11
10.093
21
14.631
0
0
LINE
8
0
10
10.593
20
0.503
11
10.593
21
0.531
0
0
LINE
8
0
10
10.593
20
0.503
11
10.593
21
0.531
0
0
LINE
8
0
10
10.593
20
0.531
11
10.593
21
1.645
0
0
LINE
8
0
10
10.593
20
1.645
11
10.593
21
1.785
0
0
LINE
8
0
10
10.593
20
1.785
11
10.593
21
2.057
0
0
LINE
8
0
10
10.593
20
2.057
11
10.593
21
2.085
0
0
LINE
8
0
10
10.593
20
2.085
11
10.593
21
3.445
0
0
LINE
8
0
10
10.593
20
3.445
11
10.593
21
3.585
0
0
LINE
8
0
10
10.593
20
3.585
11
10.593
21
3.857
0
0
LINE
8
0
10
10.593
20
3.857
11
10.593
21
3.885
0
0
LINE
8
0
10
10.593
20
3.885
11
10.593
21
5.245
0
0
LINE
8
0
10
10.593
20
5.245
11
10.593
21
5.385
0
0
LINE
8
0
10
10.593
20
5.385
11
10.593
21
5.657
0
0
LINE
8
0
10
10.593
20
5.657
11
10.593
21
5.685
0
0
LINE
8
0
10
10.593
20
5.685
11
10.593
21
7.045
0
0
LINE
8
0
10
10.593
20
7.045
11
10.593
21
7.185
0
0
LINE
8
0
10
10.593
20
7.185
11
10.593
21
7.457
0
0
LINE
8
0
10
10.593
20
7.457
11
10.593
21
7.485
0
0
LINE
8
0
10
10.593
20
7.485
11
10.593
21
8.845
0
0
LINE
8
0
10
10.593
20
8.845
11
10.593
21
8.985
0
0
LINE
8
0
10
10.593
20
8.985
11
10.593
21
9.257
0
0
LINE
8
0
10
10.593
20
9.257
11
10.593
21
9.285
0
0
LINE
8
0
10
10.593
20
9.285
11
10.593
21
10.645
0
0
LINE
8
0
10
10.593
20
10.645
11
10.593
21
10.785
0
0
LINE
8
0
10
10.593
20
10.785
11
10.593
21
11.057
0
0
LINE
8
0
10
10.593
20
11.057
11
10.593
21
11.085
0
0
LINE
8
0
10
10.593
20
11.085
11
10.593
21
12.445
0
0
LINE
8
0
10
10.593
20
12.445
11
10.593
21
12.585
0
0
LINE
8
0
10
10.593
20
12.585
11
10.593
21
12.857
0
0
LINE
8
0
10
10.593
20
12.857
11
10.593
21
12.885
0
0
LINE
8
0
10
10.593
20
12.885
11
10.593
21
14.245
0
0
LINE
8
0
10
10.593
20
14.245
11
10.593
21
14.360
0
0
LINE
8
0
10
10.593
20
14.360
11
10.593
21
14.632
0
0
LINE
8
0
10
11.093
20
0.491
11
11.093
21
0.519
0
0
LINE
8
0
10
11.093
20
0.491
11
11.093
21
0.519
0
0
LINE
8
0
10
11.093
20
0.519
11
11.093
21
1.645
0
0
LINE
8
0
10
11.093
20
1.645
11
11.093
21
1.785
0
0
LINE
8
0
10
11.093
20
1.785
11
11.093
21
2.056
0
0
LINE
8
0
10
11.093
20
2.056
11
11.093
21
2.084
0
0
LINE
8
0
10
11.093
20
2.084
11
11.093
21
3.445
0
0
LINE
8
0
10
11.093
20
3.445
11
11.093
21
3.585
0
0
LINE
8
0
10
11.093
20
3.585
11
11.093
21
3.856
0
0
LINE
8
0
10
11.093
20
3.856
11
11.093
21
3.884
0
0
LINE
8
0
10
11.093
20
3.884
11
11.093
21
5.245
0
0
LINE
8
0
10
11.093
20
5.245
11
11.093
21
5.385
0
0
LINE
8
0
10
11.093
20
5.385
11
11.093
21
5.656
0
0
LINE
8
0
10
11.093
20
5.656
11
11.093
21
5.684
0
0
LINE
8
0
10
11.093
20
5.684
11
11.093
21
7.045
0
0
LINE
8
0
10
11.093
20
7.045
11
11.093
21
7.185
0
0
LINE
8
0
10
11.093
20
7.185
11
11.093
21
7.456
0
0
LINE
8
0
10
11.093
20
7.456
11
11.093
21
7.484
0
0
LINE
8
0
10
11.093
20
7.484
11
11.093
21
8.845
0
0
LINE
8
0
10
11.093
20
8.845
11
11.093
21
8.985
0
0
LINE
8
0
10
11.093
20
8.985
11
11.093
21
9.256
0
0
LINE
8
0
10
11.093
20
9.256
11
11.093
21
9.284
0
0
LINE
8
0
10
11.093
20
9.284
11
11.093
21
10.645
0
0
LINE
8
0
10
11.093
20
10.645
11
11.093
21
10.785
0
0
LINE
8
0
10
11.093
20
10.785
11
11.093
21
11.056
0
0
LINE
8
0
10
11.093
20
11.056
11
11.093
21
11.084
0
0
LINE
8
0
10
11.093
20
11.084
11
11.093
21
12.445
0
0
LINE
8
0
10
11.093
20
12.445
11
11.093
21
12.585
0
0
LINE
8
0
10
11.093
20
12.585
11
11.093
21
12.856
0
0
LINE
8
0
10
11.093
20
12.856
11
11.093
21
12.884
0
0
LINE
8
0
10
11.093
20
12.884
11
11.093
21
14.245
0
0
LINE
8
0
10
11.093
20
14.245
11
11.093
21
14.361
0
0
LINE
8
0
10
11.093
20
14.361
11
11.093
21
14.633
0
0
LINE
8
0
10
11.593
20
0.479
11
11.593
21
0.507
0
0
LINE
8
0
10
11.593
20
0.479
11
11.593
21
0.507
0
0
LINE
8
0
10
11.593
20
0.507
11
11.593
21
1.644
0
0
LINE
8
0
10
11.593
20
1.644
11
11.593
21
1.784
0
0
LINE
8
0
10
11.593
20
1.784
11
11.593
21
2.056
0
0
LINE
8
0
10
11.593
20
2.056
11
11.593
21
2.084
0
0
LINE
8
0
10
11.593
20
2.084
11
11.593
21
3.444
0
0
LINE
8
0
10
11.593
20
3.444
11
11.593
21
3.584
0
0
LINE
8
0
10
11.593
20
3.584
11
11.593
21
3.856
0
0
LINE
8
0
10
11.593
20
3.856
11
11.593
21
3.884
0
0
LINE
8
0
10
11.593
20
3.884
11
11.593
21
5.244
0
0
LINE
8
0
10
11.593
20
5.244
11
11.593
21
5.384
0
0
LINE
8
0
10
11.593
20
5.384
11
11.593
21
5.656
0
0
LINE
8
0
10
11.593
20
5.656
11
11.593
21
5.684
0
0
LINE
8
0
10
11.593
20
5.684
11
11.593
21
7.044
0
0
LINE
8
0
10
11.593
20
7.044
11
11.593
21
7.184
0
0
LINE
8
0
10
11.593
20
7.184
11
11.593
21
7.456
0
0
LINE
8
0
10
11.593
20
7.456
11
11.593
21
7.484
0
0
LINE
8
0
10
11.593
20
7.484
11
11.593
21
8.844
0
0
LINE
8
0
10
11.593
20
8.844
11
11.593
21
8.984
0
0
LINE
8
0
10
11.593
20
8.984
11
11.593
21
9.256
0
0
LINE
8
0
10
11.593
20
9.256
11
11.593
21
9.284
0
0
LINE
8
0
10
11.593
20
9.284
11
11.593
21
10.644
0
0
LINE
8
0
10
11.593
20
10.644
11
11.593
21
10.784
0
0
LINE
8
0
10
11.593
20
10.784
11
11.593
21
11.056
0
0
LINE
8
0
10
11.593
20
11.056
11
11.593
21
11.084
0
0
LINE
8
0
10
11.593
20
11.084
11
11.593
21
12.444
0
0
LINE
8
0
10
11.593
20
12.444
11
11.593
21
12.584
0
0
LINE
8
0
10
11.593
20
12.584
11
11.593
21
12.856
0
0
LINE
8
0
10
11.593
20
12.856
11
11.593
21
12.884
0
0
LINE
8
0
10
11.593
20
12.884
11
11.593
21
14.244
0
0
LINE
8
0
10
11.593
20
14.244
11
11.593
21
14.361
0
0
LINE
8
0
10
11.593
20
14.361
11
11.593
21
14.633
0
0
LINE
8
0
10
12.093
20
0.467
11
12.093
21
0.495
0
0
LINE
8
0
10
12.093
20
0.467
11
12.093
21
0.495
0
0
LINE
8
0
10
12.093
20
0.495
11
12.093
21
1.644
0
0
LINE
8
0
10
12.093
20
1.644
11
12.093
21
1.784
0
0
LINE
8
0
10
12.093
20
1.784
11
12.093
21
2.056
0
0
LINE
8
0
10
12.093
20
2.056
11
12.093
21
2.084
0
0
LINE
8
0
10
12.093
20
2.084
11
12.093
21
3.444
0
0
LINE
8
0
10
12.093
20
3.444
11
12.093
21
3.584
0
0
LINE
8
0
10
12.093
20
3.584
11
12.093
21
3.856
0
0
LINE
8
0
10
12.093
20
3.856
11
12.093
21
3.884
0
0
LINE
8
0
10
12.093
20
3.884
11
12.093
21
5.244
0
0
LINE
8
0
10
12.093
20
5.244
11
12.093
21
5.384
0
0
LINE
8
0
10
12.093
20
5.384
11
12.093
21
5.656
0
0
LINE
8
0
10
12.093
20
5.656
11
12.093
21
5.684
0
0
LINE
8
0
10
12.093
20
5.684
11
12.093
21
7.044
0
0
LINE
8
0
10
12.093
20
7.044
11
12.093
21
7.184
0
0
LINE
8
0
10
12.093
20
7.184
11
12.093
21
7.456
0
0
LINE
8
0
10
12.093
20
7.456
11
12.093
21
7.484
0
0
LINE
8
0
10
12.093
20
7.484
11
12.093
21
8.844
0
0
LINE
8
0
10
12.093
20
8.844
11
12.093
21
8.984
0
0
LINE
8
0
10
12.093
20
8.984
11
12.093
21
9.256
0
0
LINE
8
0
10
12.093
20
9.256
11
12.093
21
9.284
0
0
LINE
8
0
10
12.093
20
9.284
11
12.093
21
10.644
0
0
LINE
8
0
10
12.093
20
10.644
11
12.093
21
10.784
0
0
LINE
8
0
10
12.093
20
10.784
11
12.093
21
11.056
0
0
LINE
8
0
10
12.093
20
11.056
11
12.093
21
11.084
0
0
LINE
8
0
10
12.093
20
11.084
11
12.093
21
12.444
0
0
LINE
8
0
10
12.093
20
12.444
11
12.093
21
12.584
0
0
LINE
8
0
10
12.093
20
12.584
11
12.093
21
12.856
0
0
LINE
8
0
10
12.093
20
12.856
11
12.093
21
12.884
0
0
LINE
8
0
10
12.093
20
12.884
11
12.093
21
14.244
0
0
LINE
8
0
10
12.093
20
14.244
11
12.093
21
14.362
0
0
LINE
8
0
10
12.093
20
14.362
11
12.093
21
14.634
0
0
LINE
8
0
10
12.593
20
0.455
11
12.593
21
0.483
0
0
LINE
8
0
10
12.593
20
0.455
11
12.593
21
0.483
0
0
LINE
8
0
10
12.593
20
0.483
11
12.593
21
1.643
0
0
LINE
8
0
10
12.593
20
1.643
11
12.593
21
1.784
0
0
LINE
8
0
10
12.593
20
1.784
11
12.593
21
2.056
0
0
LINE
8
0
10
12.593
20
2.056
11
12.593
21
2.084
0
0
LINE
8
0
10
12.593
20
2.084
11
12.593
21
3.443
0
0
LINE
8
0
10
12.593
20
3.443
11
12.593
21
3.584
0
0
LINE
8
0
10
12.593
20
3.584
11
12.593
21
3.856
0
0
LINE
8
0
10
12.593
20
3.856
11
12.593
21
3.884
0
0
LINE
8
0
10
12.593
20
3.884
11
12.593
21
5.243
0
0
LINE
8
0
10
12.593
20
5.243
11
12.593
21
5.384
0
0
LINE
8
0
10
12.593
20
5.384
11
12.593
21
5.656
0
0
LINE
8
0
10
12.593
20
5.656
11
12.593
21
5.684
0
0
LINE
8
0
10
12.593
20
5.684
11
12.593
21
7.043
0
0
LINE
8
0
10
12.593
20
7.043
11
12.593
21
7.184
0
0
LINE
8
0
10
12.593
20
7.184
11
12.593
21
7.456
0
0
LINE
8
0
10
12.593
20
7.456
11
12.593
21
7.484
0
0
LINE
8
0
10
12.593
20
7.484
11
12.593
21
8.843
0
0
LINE
8
0
10
12.593
20
8.843
11
12.593
21
8.984
0
0
LINE
8
0
10
12.593
20
8.984
11
12.593
21
9.256
0
0
LINE
8
0
10
12.593
20
9.256
11
12.593
21
9.284
0
0
LINE
8
0
10
12.593
20
9.284
11
12.593
21
10.643
0
0
LINE
8
0
10
12.593
20
10.643
11
12.593
21
10.784
0
0
LINE
8
0
10
12.593
20
10.784
11
12.593
21
11.056
0
0
LINE
8
0
10
12.593
20
11.056
11
12.593
21
11.084
0
0
LINE
8
0
10
12.593
20
11.084
11
12.593
21
12.443
0
0
LINE
8
0
10
12.593
20
12.443
11
12.593
21
12.584
0
0
LINE
8
0
10
12.593
20
12.584
11
12.593
21
12.856
0
0
LINE
8
0
10
12.593
20
12.856
11
12.593
21
12.884
0
0
LINE
8
0
10
12.593
20
12.884
11
12.593
21
14.243
0
0
LINE
8
0
10
12.593
20
14.243
11
12.593
21
14.363
0
0
LINE
8
0
10
12.593
20
14.363
11
12.593
21
14.635
0
0
LINE
8
0
10
13.093
20
0.455
11
13.093
21
0.483
0
0
LINE
8
0
10
13.093
20
0.455
11
13.093
21
0.483
0
0
LINE
8
0
10
13.093
20
0.483
11
13.093
21
1.644
0
0
LINE
8
0
10
13.093
20
1.644
11
13.093
21
1.785
0
0
LINE
8
0
10
13.093
20
1.785
11
13.093
21
2.056
0
0
LINE
8
0
10
13.093
20
2.056
11
13.093
21
2.084
0
0
LINE
8
0
10
13.093
20
2.084
11
13.093
21
3.444
0
0
LINE
8
0
10
13.093
20
3.444
11
13.093
21
3.585
0
0
LINE
8
0
10
13.093
20
3.585
11
13.093
21
3.856
0
0
LINE
8
0
10
13.093
20
3.856
11
13.093
21
3.884
0
0
LINE
8
0
10
13.093
20
3.884
11
13.093
21
5.244
0
0
LINE
8
0
10
13.093
20
5.244
11
13.093
21
5.385
0
0
LINE
8
0
10
13.093
20
5.385
11
13.093
21
5.656
0
0
LINE
8
0
10
13.093
20
5.656
11
13.093
21
5.684
0
0
LINE
8
0
10
13.093
20
5.684
11
13.093
21
7.044
0
0
LINE
8
0
10
13.093
20
7.044
11
13.093
21
7.185
0
0
LINE
8
0
10
13.093
20
7.185
11
13.093
21
7.456
0
0
LINE
8
0
10
13.093
20
7.456
11
13.093
21
7.484
0
0
LINE
8
0
10
13.093
20
7.484
11
13.093
21
8.844
0
0
LINE
8
0
10
13.093
20
8.844
11
13.093
21
8.985
0
0
LINE
8
0
10
13.093
20
8.985
11
13.093
21
9.256
0
0
LINE
8
0
10
13.093
20
9.256
11
13.093
21
9.284
0
0
LINE
8
0
10
13.093
20
9.284
11
13.093
21
10.644
0
0
LINE
8
0
10
13.093
20
10.644
11
13.093
21
10.785
0
0
LINE
8
0
10
13.093
20
10.785
11
13.093
21
11.056
0
0
LINE
8
0
10
13.093
20
11.056
11
13.093
21
11.084
0
0
LINE
8
0
10
13.093
20
11.084
11
13.093
21
12.444
0
0
LINE
8
0
10
13.093
20
12.444
11
13.093
21
12.585
0
0
LINE
8
0
10
13.093
20
12.585
11
13.093
21
12.856
0
0
LINE
8
0
10
13.093
20
12.856
11
13.093
21
12.884
0
0
LINE
8
0
10
13.093
20
12.884
11
13.093
21
14.244
0
0
LINE
8
0
10
13.093
20
14.244
11
13.093
21
14.364
0
0
LINE
8
0
10
13.093
20
14.364
11
13.093
21
14.635
0
0
LINE
8
0
10
13.093
20
14.635
11
13.093
21
14.636
0
0
LINE
8
0
10
13.593
20
0.523
11
13.593
21
0.551
0
0
LINE
8
0
10
13.593
20
0.523
11
13.593
21
0.551
0
0
LINE
8
0
10
13.593
20
0.551
11
13.593
21
1.651
0
0
LINE
8
0
10
13.593
20
1.651
11
13.593
21
1.791
0
0
LINE
8
0
10
13.593
20
1.791
11
13.593
21
2.063
0
0
LINE
8
0
10
13.593
20
2.063
11
13.593
21
2.091
0
0
LINE
8
0
10
13.593
20
2.091
11
13.593
21
3.451
0
0
LINE
8
0
10
13.593
20
3.451
11
13.593
21
3.591
0
0
LINE
8
0
10
13.593
20
3.591
11
13.593
21
3.863
0
0
LINE
8
0
10
13.593
20
3.863
11
13.593
21
3.891
0
0
LINE
8
0
10
13.593
20
3.891
11
13.593
21
5.251
0
0
LINE
8
0
10
13.593
20
5.251
11
13.593
21
5.391
0
0
LINE
8
0
10
13.593
20
5.391
11
13.593
21
5.663
0
0
LINE
8
0
10
13.593
20
5.663
11
13.593
21
5.691
0
0
LINE
8
0
10
13.593
20
5.691
11
13.593
21
7.051
0
0
LINE
8
0
10
13.593
20
7.051
11
13.593
21
7.191
0
0
LINE
8
0
10
13.593
20
7.191
11
13.593
21
7.463
0
0
LINE
8
0
10
13.593
20
7.463
11
13.593
21
7.491
0
0
LINE
8
0
10
13.593
20
7.491
11
13.593
21
8.851
0
0
LINE
8
0
10
13.593
20
8.851
11
13.593
21
8.991
0
0
LINE
8
0
10
13.593
20
8.991
11
13.593
21
9.263
0
0
LINE
8
0
10
13.593
20
9.263
11
13.593
21
9.291
0
0
LINE
8
0
10
13.593
20
9.291
11
13.593
21
10.651
0
0
LINE
8
0
10
13.593
20
10.651
11
13.593
21
10.791
0
0
LINE
8
0
10
13.593
20
10.791
11
13.593
21
11.063
0
0
LINE
8
0
10
13.593
20
11.063
11
13.593
21
11.091
0
0
LINE
8
0
10
13.593
20
11.091
11
13.593
21
12.451
0
0
LINE
8
0
10
13.593
20
12.451
11
13.593
21
12.591
0
0
LINE
8
0
10
13.593
20
12.591
11
13.593
21
12.863
0
0
LINE
8
0
10
13.593
20
12.863
11
13.593
21
12.891
0
0
LINE
8
0
10
13.593
20
12.891
11
13.593
21
14.251
0
0
LINE
8
0
10
13.593
20
14.251
11
13.593
21
14.364
0
0
LINE
8
0
10
13.593
20
14.364
11
13.593
21
14.636
0
0
LINE
8
0
10
14.093
20
0.654
11
14.093
21
0.682
0
0
LINE
8
0
10
14.093
20
0.654
11
14.093
21
0.682
0
0
LINE
8
0
10
14.093
20
0.682
11
14.093
21
1.664
0
0
LINE
8
0
10
14.093
20
1.664
11
14.093
21
1.804
0
0
LINE
8
0
10
14.093
20
1.804
11
14.093
21
2.076
0
0
LINE
8
0
10
14.093
20
2.076
11
14.093
21
2.104
0
0
LINE
8
0
10
14.093
20
2.104
11
14.093
21
3.464
0
0
LINE
8
0
10
14.093
20
3.464
11
14.093
21
3.604
0
0
LINE
8
0
10
14.093
20
3.604
11
14.093
21
3.876
0
0
LINE
8
0
10
14.093
20
3.876
11
14.093
21
3.904
0
0
LINE
8
0
10
14.093
20
3.904
11
14.093
21
5.264
0
0
LINE
8
0
10
14.093
20
5.264
11
14.093
21
5.404
0
0
LINE
8
0
10
14.093
20
5.404
11
14.093
21
5.676
0
0
LINE
8
0
10
14.093
20
5.676
11
14.093
21
5.704
0
0
LINE
8
0
10
14.093
20
5.704
11
14.093
21
7.064
0
0
LINE
8
0
10
14.093
20
7.064
11
14.093
21
7.204
0
0
LINE
8
0
10
14.093
20
7.204
11
14.093
21
7.476
0
0
LINE
8
0
10
14.093
20
7.476
11
14.093
21
7.504
0
0
LINE
8
0
10
14.093
20
7.504
11
14.093
21
8.864
0
0
LINE
8
0
10
14.093
20
8.864
11
14.093
21
9.004
0
0
LINE
8
0
10
14.093
20
9.004
11
14.093
21
9.276
0
0
LINE
8
0
10
14.093
20
9.276
11
14.093
21
9.304
0
0
LINE
8
0
10
14.093
20
9.304
11
14.093
21
10.664
0
0
LINE
8
0
10
14.093
20
10.664
11
14.093
21
10.804
0
0
LINE
8
0
10
14.093
20
10.804
11
14.093
21
11.076
0
0
LINE
8
0
10
14.093
20
11.076
11
14.093
21
11.104
0
0
LINE
8
0
10
14.093
20
11.104
11
14.093
21
12.464
0
0
LINE
8
0
10
14.093
20
12.464
11
14.093
21
12.604
0
0
LINE
8
0
10
14.093
20
12.604
11
14.093
21
12.876
0
0
LINE
8
0
10
14.093
20
12.876
11
14.093
21
12.904
0
0
LINE
8
0
10
14.093
20
12.904
11
14.093
21
14.264
0
0
LINE
8
0
10
14.093
20
14.264
11
14.093
21
14.365
0
0
LINE
8
0
10
14.093
20
14.365
11
14.093
21
14.637
0
0
LINE
8
0
10
14.593
20
1.226
11
14.593
21
1.254
0
0
LINE
8
0
10
14.593
20
1.226
11
14.593
21
1.254
0
0
LINE
8
0
10
14.593
20
1.254
11
14.593
21
1.718
0
0
LINE
8
0
10
14.593
20
1.718
11
14.593
21
1.990
0
0
LINE
8
0
10
14.593
20
1.990
11
14.593
21
2.131
0
0
LINE
8
0
10
14.593
20
2.131
11
14.593
21
3.490
0
0
LINE
8
0
10
14.593
20
3.490
11
14.593
21
3.518
0
0
LINE
8
0
10
14.593
20
3.518
11
14.593
21
3.790
0
0
LINE
8
0
10
14.593
20
3.790
11
14.593
21
3.931
0
0
LINE
8
0
10
14.593
20
3.931
11
14.593
21
5.290
0
0
LINE
8
0
10
14.593
20
5.290
11
14.593
21
5.318
0
0
LINE
8
0
10
14.593
20
5.318
11
14.593
21
5.590
0
0
LINE
8
0
10
14.593
20
5.590
11
14.593
21
5.731
0
0
LINE
8
0
10
14.593
20
5.731
11
14.593
21
7.090
0
0
LINE
8
0
10
14.593
20
7.090
11
14.593
21
7.118
0
0
LINE
8
0
10
14.593
20
7.118
11
14.593
21
7.390
0
0
LINE
8
0
10
14.593
20
7.390
11
14.593
21
7.531
0
0
LINE
8
0
10
14.593
20
7.531
11
14.593
21
8.890
0
0
LINE
8
0
10
14.593
20
8.890
11
14.593
21
8.918
0
0
LINE
8
0
10
14.593
20
8.918
11
14.593
21
9.190
0
0
LINE
8
0
10
14.593
20
9.190
11
14.593
21
9.331
0
0
LINE
8
0
10
14.593
20
9.331
11
14.593
21
10.690
0
0
LINE
8
0
10
14.593
20
10.690
11
14.593
21
10.718
0
0
LINE
8
0
10
14.593
20
10.718
11
14.593
21
10.990
0
0
LINE
8
0
10
14.593
20
10.990
11
14.593
21
11.131
0
0
LINE
8
0
10
14.593
20
11.131
11
14.593
21
12.490
0
0
LINE
8
0
10
14.593
20
12.490
11
14.593
21
12.518
0
0
LINE
8
0
10
14.593
20
12.518
11
14.593
21
12.790
0
0
LINE
8
0
10
14.593
20
12.790
11
14.593
21
12.931
0
0
LINE
8
0
10
14.593
20
12.931
11
14.593
21
14.290
0
0
LINE
8
0
10
14.593
20
14.290
11
14.593
21
14.318
0
0
LINE
8
0
10
14.593
20
14.318
11
14.593
21
14.366
0
0
LINE
8
0
10
14.593
20
14.366
11
14.593
21
14.638
0
0
LINE
8
0
10
1.234
20
0.592
11
1.243
21
0.592
0
0
LINE
8
0
10
1.234
20
0.592
11
1.243
21
0.592
0
0
LINE
8
0
10
1.243
20
0.592
11
1.515
21
0.592
0
0
LINE
8
0
10
1.515
20
0.592
11
1.655
21
0.592
0
0
LINE
8
0
10
1.655
20
0.592
11
3.015
21
0.592
0
0
LINE
8
0
10
3.015
20
0.592
11
3.043
21
0.592
0
0
LINE
8
0
10
3.043
20
0.592
11
3.315
21
0.592
0
0
LINE
8
0
10
3.315
20
0.592
11
3.455
21
0.592
0
0
LINE
8
0
10
3.455
20
0.592
11
4.815
21
0.592
0
0
LINE
8
0
10
4.815
20
0.592
11
4.843
21
0.592
0
0
LINE
8
0
10
4.843
20
0.592
11
5.115
21
0.592
0
0
LINE
8
0
10
5.115
20
0.592
11
5.255
21
0.592
0
0
LINE
8
0
10
5.255
20
0.592
11
6.615
21
0.592
0
0
LINE
8
0
10
6.615
20
0.592
11
6.643
21
0.592
0
0
LINE
8
0
10
6.643
20
0.592
11
6.915
21
0.592
0
0
LINE
8
0
10
6.915
20
0.592
11
7.177
21
0.592
0
0
LINE
8
0
10
7.177
20
0.592
11
7.448
21
0.592
0
0
LINE
8
0
10
7.448
20
0.592
11
7.588
21
0.592
0
0
LINE
8
0
10
7.588
20
0.592
11
8.949
21
0.592
0
0
LINE
8
0
10
8.949
20
0.592
11
8.977
21
0.592
0
0
LINE
8
0
10
8.977
20
0.592
11
9.248
21
0.592
0
0
LINE
8
0
10
9.248
20
0.592
11
9.388
21
0.592
0
0
LINE
8
0
10
9.388
20
0.592
11
10.749
21
0.592
0
0
LINE
8
0
10
10.749
20
0.592
11
10.777
21
0.592
0
0
LINE
8
0
10
10.777
20
0.592
11
11.048
21
0.592
0
0
LINE
8
0
10
11.048
20
0.592
11
11.188
21
0.592
0
0
LINE
8
0
10
11.188
20
0.592
11
12.549
21
0.592
0
0
LINE
8
0
10
12.549
20
0.592
11
12.577
21
0.592
0
0
LINE
8
0
10
12.577
20
0.592
11
12.848
21
0.592
0
0
LINE
8
0
10
12.848
20
0.592
11
12.988
21
0.592
0
0
LINE
8
0
10
12.988
20
0.592
11
13.903
21
0.592
0
0
LINE
8
0
10
13.903
20
0.592
11
13.931
21
0.592
0
0
LINE
8
0
10
0.651
20
1.092
11
0.923
21
1.092
0
0
LINE
8
0
10
0.651
20
1.092
11
0.923
21
1.092
0
0
LINE
8
0
10
0.923
20
1.092
11
1.015
21
1.092
0
0
LINE
8
0
10
1.015
20
1.092
11
2.376
21
1.092
0
0
LINE
8
0
10
2.376
20
1.092
11
2.404
21
1.092
0
0
LINE
8
0
10
2.404
20
1.092
11
2.675
21
1.092
0
0
LINE
8
0
10
2.675
20
1.092
11
2.815
21
1.092
0
0
LINE
8
0
10
2.815
20
1.092
11
4.176
21
1.092
0
0
LINE
8
0
10
4.176
20
1.092
11
4.204
21
1.092
0
0
LINE
8
0
10
4.204
20
1.092
11
4.475
21
1.092
0
0
LINE
8
0
10
4.475
20
1.092
11
4.615
21
1.092
0
0
LINE
8
0
10
4.615
20
1.092
11
5.976
21
1.092
0
0
LINE
8
0
10
5.976
20
1.092
11
6.004
21
1.092
0
0
LINE
8
0
10
6.004
20
1.092
11
6.275
21
1.092
0
0
LINE
8
0
10
6.275
20
1.092
11
6.415
21
1.092
0
0
LINE
8
0
10
6.415
20
1.092
11
7.776
21
1.092
0
0
LINE
8
0
10
7.776
20
1.092
11
7.804
21
1.092
0
0
LINE
8
0
10
7.804
20
1.092
11
8.075
21
1.092
0
0
LINE
8
0
10
8.075
20
1.092
11
8.215
21
1.092
0
0
LINE
8
0
10
8.215
20
1.092
11
9.576
21
1.092
0
0
LINE
8
0
10
9.576
20
1.092
11
9.604
21
1.092
0
0
LINE
8
0
10
9.604
20
1.092
11
9.875
21
1.092
0
0
LINE
8
0
10
9.875
20
1.092
11
10.015
21
1.092
0
0
LINE
8
0
10
10.015
20
1.092
11
11.376
21
1.092
0
0
LINE
8
0
10
11.376
20
1.092
11
11.404
21
1.092
0
0
LINE
8
0
10
11.404
20
1.092
11
11.675
21
1.092
0
0
LINE
8
0
10
11.675
20
1.092
11
11.815
21
1.092
0
0
LINE
8
0
10
11.815
20
1.092
11
13.176
21
1.092
0
0
LINE
8
0
10
13.176
20
1.092
11
13.204
21
1.092
0
0
LINE
8
0
10
13.204
20
1.092
11
13.475
21
1.092
0
0
LINE
8
0
10
13.475
20
1.092
11
13.615
21
1.092
0
0
LINE
8
0
10
13.615
20
1.092
11
14.509
21
1.092
0
0
LINE
8
0
10
14.509
20
1.092
11
14.537
21
1.092
0
0
LINE
8
0
10
0.519
20
1.592
11
0.791
21
1.592
0
0
LINE
8
0
10
0.519
20
1.592
11
0.791
21
1.592
0
0
LINE
8
0
10
0.791
20
1.592
11
0.907
21
1.592
0
0
LINE
8
0
10
0.907
20
1.592
11
2.267
21
1.592
0
0
LINE
8
0
10
2.267
20
1.592
11
2.295
21
1.592
0
0
LINE
8
0
10
2.295
20
1.592
11
2.567
21
1.592
0
0
LINE
8
0
10
2.567
20
1.592
11
2.707
21
1.592
0
0
LINE
8
0
10
2.707
20
1.592
11
4.067
21
1.592
0
0
LINE
8
0
10
4.067
20
1.592
11
4.095
21
1.592
0
0
LINE
8
0
10
4.095
20
1.592
11
4.367
21
1.592
0
0
LINE
8
0
10
4.367
20
1.592
11
4.507
21
1.592
0
0
LINE
8
0
10
4.507
20
1.592
11
5.867
21
1.592
0
0
LINE
8
0
10
5.867
20
1.592
11
5.895
21
1.592
0
0
LINE
8
0
10
5.895
20
1.592
11
6.167
21
1.592
0
0
LINE
8
0
10
6.167
20
1.592
11
6.307
21
1.592
0
0
LINE
8
0
10
6.307
20
1.592
11
7.667
21
1.592
0
0
LINE
8
0
10
7.667
20
1.592
11
7.695
21
1.592
0
0
LINE
8
0
10
7.695
20
1.592
11
7.967
21
1.592
0
0
LINE
8
0
10
7.967
20
1.592
11
8.107
21
1.592
0
0
LINE
8
0
10
8.107
20
1.592
11
9.467
21
1.592
0
0
LINE
8
0
10
9.467
20
1.592
11
9.495
21
1.592
0
0
LINE
8
0
10
9.495
20
1.592
11
9.767
21
1.592
0
0
LINE
8
0
10
9.767
20
1.592
11
9.907
21
1.592
0
0
LINE
8
0
10
9.907
20
1.592
11
11.267
21
1.592
0
0
LINE
8
0
10
11.267
20
1.592
11
11.295
21
1.592
0
0
LINE
8
0
10
11.295
20
1.592
11
11.567
21
1.592
0
0
LINE
8
0
10
11.567
20
1.592
11
11.707
21
1.592
0
0
LINE
8
0
10
11.707
20
1.592
11
13.067
21
1.592
0
0
LINE
8
0
10
13.067
20
1.592
11
13.095
21
1.592
0
0
LINE
8
0
10
13.095
20
1.592
11
13.367
21
1.592
0
0
LINE
8
0
10
13.367
20
1.592
11
13.507
21
1.592
0
0
LINE
8
0
10
13.507
20
1.592
11
14.636
21
1.592
0
0
LINE
8
0
10
14.636
20
1.592
11
14.664
21
1.592
0
0
LINE
8
0
10
0.456
20
2.092
11
0.728
21
2.092
0
0
LINE
8
0
10
0.456
20
2.092
11
0.728
21
2.092
0
0
LINE
8
0
10
0.728
20
2.092
11
0.856
21
2.092
0
0
LINE
8
0
10
0.856
20
2.092
11
2.216
21
2.092
0
0
LINE
8
0
10
2.216
20
2.092
11
2.244
21
2.092
0
0
LINE
8
0
10
2.244
20
2.092
11
2.516
21
2.092
0
0
LINE
8
0
10
2.516
20
2.092
11
2.656
21
2.092
0
0
LINE
8
0
10
2.656
20
2.092
11
4.016
21
2.092
0
0
LINE
8
0
10
4.016
20
2.092
11
4.044
21
2.092
0
0
LINE
8
0
10
4.044
20
2.092
11
4.316
21
2.092
0
0
LINE
8
0
10
4.316
20
2.092
11
4.456
21
2.092
0
0
LINE
8
0
10
4.456
20
2.092
11
5.816
21
2.092
0
0
LINE
8
0
10
5.816
20
2.092
11
5.844
21
2.092
0
0
LINE
8
0
10
5.844
20
2.092
11
6.116
21
2.092
0
0
LINE
8
0
10
6.116
20
2.092
11
6.256
21
2.092
0
0
LINE
8
0
10
6.256
20
2.092
11
7.616
21
2.092
0
0
LINE
8
0
10
7.616
20
2.092
11
7.644
21
2.092
0
0
LINE
8
0
10
7.644
20
2.092
11
7.916
21
2.092
0
0
LINE
8
0
10
7.916
20
2.092
11
8.056
21
2.092
0
0
LINE
8
0
10
8.056
20
2.092
11
9.416
21
2.092
0
0
LINE
8
0
10
9.416
20
2.092
11
9.444
21
2.092
0
0
LINE
8
0
10
9.444
20
2.092
11
9.716
21
2.092
0
0
LINE
8
0
10
9.716
20
2.092
11
9.856
21
2.092
0
0
LINE
8
0
10
9.856
20
2.092
11
11.216
21
2.092
0
0
LINE
8
0
10
11.216
20
2.092
11
11.244
21
2.092
0
0
LINE
8
0
10
11.244
20
2.092
11
11.516
21
2.092
0
0
LINE
8
0
10
11.516
20
2.092
11
11.656
21
2.092
0
0
LINE
8
0
10
11.656
20
2.092
11
13.016
21
2.092
0
0
LINE
8
0
10
13.016
20
2.092
11
13.044
21
2.092
0
0
LINE
8
0
10
13.044
20
2.092
11
13.316
21
2.092
0
0
LINE
8
0
10
13.316
20
2.092
11
13.456
21
2.092
0
0
LINE
8
0
10
13.456
20
2.092
11
14.700
21
2.092
0
0
LINE
8
0
10
14.700
20
2.092
11
14.728
21
2.092
0
0
LINE
8
0
10
0.450
20
2.592
11
0.722
21
2.592
0
0
LINE
8
0
10
0.450
20
2.592
11
0.722
21
2.592
0
0
LINE
8
0
10
0.722
20
2.592
11
0.852
21
2.592
0
0
LINE
8
0
10
0.852
20
2.592
11
2.212
21
2.592
0
0
LINE
8
0
10
2.212
20
2.592
11
2.241
21
2.592
0
0
LINE
8
0
10
2.241
20
2.592
11
2.512
21
2.592
0
0
LINE
8
0
10
2.512
20
2.592
11
2.652
21
2.592
0
0
LINE
8
0
10
2.652
20
2.592
11
4.012
21
2.592
0
0
LINE
8
0
10
4.012
20
2.592
11
4.041
21
2.592
0
0
LINE
8
0
10
4.041
20
2.592
11
4.312
21
2.592
0
0
LINE
8
0
10
4.312
20
2.592
11
4.452
21
2.592
0
0
LINE
8
0
10
4.452
20
2.592
11
5.812
21
2.592
0
0
LINE
8
0
10
5.812
20
2.592
11
5.841
21
2.592
0
0
LINE
8
0
10
5.841
20
2.592
11
6.112
21
2.592
0
0
LINE
8
0
10
6.112
20
2.592
11
6.252
21
2.592
0
0
LINE
8
0
10
6.252
20
2.592
11
7.612
21
2.592
0
0
LINE
8
0
10
7.612
20
2.592
11
7.641
21
2.592
0
0
LINE
8
0
10
7.641
20
2.592
11
7.912
21
2.592
0
0
LINE
8
0
10
7.912
20
2.592
11
8.052
21
2.592
0
0
LINE
8
0
10
8.052
20
2.592
11
9.412
21
2.592
0
0
LINE
8
0
10
9.412
20
2.592
11
9.441
21
2.592
0
0
LINE
8
0
10
9.441
20
2.592
11
9.712
21
2.592
0
0
LINE
8
0
10
9.712
20
2.592
11
9.852
21
2.592
0
0
LINE
8
0
10
9.852
20
2.592
11
11.212
21
2.592
0
0
LINE
8
0
10
11.212
20
2.592
11
11.241
21
2.592
0
0
LINE
8
0
10
11.241
20
2.592
11
11.512
21
2.592
0
0
LINE
8
0
10
11.512
20
2.592
11
11.652
21
2.592
0
0
LINE
8
0
10
11.652
20
2.592
11
13.012
21
2.592
0
0
LINE
8
0
10
13.012
20
2.592
11
13.041
21
2.592
0
0
LINE
8
0
10
13.041
20
2.592
11
13.312
21
2.592
0
0
LINE
8
0
10
13.312
20
2.592
11
13.452
21
2.592
0
0
LINE
8
0
10
13.452
20
2.592
11
14.711
21
2.592
0
0
LINE
8
0
10
14.711
20
2.592
11
14.739
21
2.592
0
0
LINE
8
0
10
0.463
20
3.092
11
0.735
21
3.092
0
0
LINE
8
0
10
0.463
20
3.092
11
0.735
21
3.092
0
0
LINE
8
0
10
0.735
20
3.092
11
0.862
21
3.092
0
0
LINE
8
0
10
0.862
20
3.092
11
2.222
21
3.092
0
0
LINE
8
0
10
2.222
20
3.092
11
2.250
21
3.092
0
0
LINE
8
0
10
2.250
20
3.092
11
2.522
21
3.092
0
0
LINE
8
0
10
2.522
20
3.092
11
2.662
21
3.092
0
0
LINE
8
0
10
2.662
20
3.092
11
4.022
21
3.092
0
0
LINE
8
0
10
4.022
20
3.092
11
4.050
21
3.092
0
0
LINE
8
0
10
4.050
20
3.092
11
4.322
21
3.092
0
0
LINE
8
0
10
4.322
20
3.092
11
4.462
21
3.092
0
0
LINE
8
0
10
4.462
20
3.092
11
5.822
21
3.092
0
0
LINE
8
0
10
5.822
20
3.092
11
5.850
21
3.092
0
0
LINE
8
0
10
5.850
20
3.092
11
6.122
21
3.092
0
0
LINE
8
0
10
6.122
20
3.092
11
6.262
21
3.092
0
0
LINE
8
0
10
6.262
20
3.092
11
7.622
21
3.092
0
0
LINE
8
0
10
7.622
20
3.092
11
7.650
21
3.092
0
0
LINE
8
0
10
7.650
20
3.092
11
7.922
21
3.092
0
0
LINE
8
0
10
7.922
20
3.092
11
8.062
21
3.092
0
0
LINE
8
0
10
8.062
20
3.092
11
9.422
21
3.092
0
0
LINE
8
0
10
9.422
20
3.092
11
9.450
21
3.092
0
0
LINE
8
0
10
9.450
20
3.092
11
9.722
21
3.092
0
0
LINE
8
0
10
9.722
20
3.092
11
9.862
21
3.092
0
0
LINE
8
0
10
9.862
20
3.092
11
11.222
21
3.092
0
0
LINE
8
0
10
11.222
20
3.092
11
11.250
21
3.092
0
0
LINE
8
0
10
11.250
20
3.092
11
11.522
21
3.092
0
0
LINE
8
0
10
11.522
20
3.092
11
11.662
21
3.092
0
0
LINE
8
0
10
11.662
20
3.092
11
13.022
21
3.092
0
0
LINE
8
0
10
13.022
20
3.092
11
13.050
21
3.092
0
0
LINE
8
0
10
13.050
20
3.092
11
13.322
21
3.092
0
0
LINE
8
0
10
13.322
20
3.092
11
13.462
21
3.092
0
0
LINE
8
0
10
13.462
20
3.092
11
14.694
21
3.092
0
0
LINE
8
0
10
14.694
20
3.092
11
14.722
21
3.092
0
0
LINE
8
0
10
0.476
20
3.592
11
0.748
21
3.592
0
0
LINE
8
0
10
0.476
20
3.592
11
0.748
21
3.592
0
0
LINE
8
0
10
0.748
20
3.592
11
0.872
21
3.592
0
0
LINE
8
0
10
0.872
20
3.592
11
2.232
21
3.592
0
0
LINE
8
0
10
2.232
20
3.592
11
2.260
21
3.592
0
0
LINE
8
0
10
2.260
20
3.592
11
2.532
21
3.592
0
0
LINE
8
0
10
2.532
20
3.592
11
2.672
21
3.592
0
0
LINE
8
0
10
2.672
20
3.592
11
4.032
21
3.592
0
0
LINE
8
0
10
4.032
20
3.592
11
4.060
21
3.592
0
0
LINE
8
0
10
4.060
20
3.592
11
4.332
21
3.592
0
0
LINE
8
0
10
4.332
20
3.592
11
4.472
21
3.592
0
0
LINE
8
0
10
4.472
20
3.592
11
5.832
21
3.592
0
0
LINE
8
0
10
5.832
20
3.592
11
5.860
21
3.592
0
0
LINE
8
0
10
5.860
20
3.592
11
6.132
21
3.592
0
0
LINE
8
0
10
6.132
20
3.592
11
6.272
21
3.592
0
0
LINE
8
0
10
6.272
20
3.592
11
7.632
21
3.592
0
0
LINE
8
0
10
7.632
20
3.592
11
7.660
21
3.592
0
0
LINE
8
0
10
7.660
20
3.592
11
7.932
21
3.592
0
0
LINE
8
0
10
7.932
20
3.592
11
8.072
21
3.592
0
0
LINE
8
0
10
8.072
20
3.592
11
9.432
21
3.592
0
0
LINE
8
0
10
9.432
20
3.592
11
9.460
21
3.592
0
0
LINE
8
0
10
9.460
20
3.592
11
9.732
21
3.592
0
0
LINE
8
0
10
9.732
20
3.592
11
9.872
21
3.592
0
0
LINE
8
0
10
9.872
20
3.592
11
11.232
21
3.592
0
0
LINE
8
0
10
11.232
20
3.592
11
11.260
21
3.592
0
0
LINE
8
0
10
11.260
20
3.592
11
11.532
21
3.592
0
0
LINE
8
0
10
11.532
20
3.592
11
11.672
21
3.592
0
0
LINE
8
0
10
11.672
20
3.592
11
13.032
21
3.592
0
0
LINE
8
0
10
13.032
20
3.592
11
13.060
21
3.592
0
0
LINE
8
0
10
13.060
20
3.592
11
13.332
21
3.592
0
0
LINE
8
0
10
13.332
20
3.592
11
13.472
21
3.592
0
0
LINE
8
0
10
13.472
20
3.592
11
14.676
21
3.592
0
0
LINE
8
0
10
14.676
20
3.592
11
14.704
21
3.592
0
0
LINE
8
0
10
0.488
20
4.092
11
0.760
21
4.092
0
0
LINE
8
0
10
0.488
20
4.092
11
0.760
21
4.092
0
0
LINE
8
0
10
0.760
20
4.092
11
0.881
21
4.092
0
0
LINE
8
0
10
0.881
20
4.092
11
2.241
21
4.092
0
0
LINE
8
0
10
2.241
20
4.092
11
2.269
21
4.092
0
0
LINE
8
0
10
2.269
20
4.092
11
2.541
21
4.092
0
0
LINE
8
0
10
2.541
20
4.092
11
2.681
21
4.092
0
0
LINE
8
0
10
2.681
20
4.092
11
4.041
21
4.092
0
0
LINE
8
0
10
4.041
20
4.092
11
4.069
21
4.092
0
0
LINE
8
0
10
4.069
20
4.092
11
4.341
21
4.092
0
0
LINE
8
0
10
4.341
20
4.092
11
4.481
21
4.092
0
0
LINE
8
0
10
4.481
20
4.092
11
5.841
21
4.092
0
0
LINE
8
0
10
5.841
20
4.092
11
5.869
21
4.092
0
0
LINE
8
0
10
5.869
20
4.092
11
6.141
21
4.092
0
0
LINE
8
0
10
6.141
20
4.092
11
6.281
21
4.092
0
0
LINE
8
0
10
6.281
20
4.092
11
7.641
21
4.092
0
0
LINE
8
0
10
7.641
20
4.092
11
7.669
21
4.092
0
0
LINE
8
0
10
7.669
20
4.092
11
7.941
21
4.092
0
0
LINE
8
0
10
7.941
20
4.092
11
8.081
21
4.092
0
0
LINE
8
0
10
8.081
20
4.092
11
9.441
21
4.092
0
0
LINE
8
0
10
9.441
20
4.092
11
9.469
21
4.092
0
0
LINE
8
0
10
9.469
20
4.092
11
9.741
21
4.092
0
0
LINE
8
0
10
9.741
20
4.092
11
9.881
21
4.092
0
0
LINE
8
0
10
9.881
20
4.092
11
11.241
21
4.092
0
0
LINE
8
0
10
11.241
20
4.092
11
11.269
21
4.092
0
0
LINE
8
0
10
11.269
20
4.092
11
11.541
21
4.092
0
0
LINE
8
0
10
11.541
20
4.092
11
11.681
21
4.092
0
0
LINE
8
0
10
11.681
20
4.092
11
13.041
21
4.092
0
0
LINE
8
0
10
13.041
20
4.092
11
13.069
21
4.092
0
0
LINE
8
0
10
13.069
20
4.092
11
13.341
21
4.092
0
0
LINE
8
0
10
13.341
20
4.092
11
13.481
21
4.092
0
0
LINE
8
0
10
13.481
20
4.092
11
14.659
21
4.092
0
0
LINE
8
0
10
14.659
20
4.092
11
14.687
21
4.092
0
0
LINE
8
0
10
0.501
20
4.592
11
0.773
21
4.592
0
0
LINE
8
0
10
0.501
20
4.592
11
0.773
21
4.592
0
0
LINE
8
0
10
0.773
20
4.592
11
0.892
21
4.592
0
0
LINE
8
0
10
0.892
20
4.592
11
2.251
21
4.592
0
0
LINE
8
0
10
2.251
20
4.592
11
2.279
21
4.592
0
0
LINE
8
0
10
2.279
20
4.592
11
2.551
21
4.592
0
0
LINE
8
0
10
2.551
20
4.592
11
2.692
21
4.592
0
0
LINE
8
0
10
2.692
20
4.592
11
4.051
21
4.592
0
0
LINE
8
0
10
4.051
20
4.592
11
4.079
21
4.592
0
0
LINE
8
0
10
4.079
20
4.592
11
4.351
21
4.592
0
0
LINE
8
0
10
4.351
20
4.592
11
4.492
21
4.592
0
0
LINE
8
0
10
4.492
20
4.592
11
5.851
21
4.592
0
0
LINE
8
0
10
5.851
20
4.592
11
5.879
21
4.592
0
0
LINE
8
0
10
5.879
20
4.592
11
6.151
21
4.592
0
0
LINE
8
0
10
6.151
20
4.592
11
6.292
21
4.592
0
0
LINE
8
0
10
6.292
20
4.592
11
7.651
21
4.592
0
0
LINE
8
0
10
7.651
20
4.592
11
7.679
21
4.592
0
0
LINE
8
0
10
7.679
20
4.592
11
7.951
21
4.592
0
0
LINE
8
0
10
7.951
20
4.592
11
8.092
21
4.592
0
0
LINE
8
0
10
8.092
20
4.592
11
9.451
21
4.592
0
0
LINE
8
0
10
9.451
20
4.592
11
9.479
21
4.592
0
0
LINE
8
0
10
9.479
20
4.592
11
9.751
21
4.592
0
0
LINE
8
0
10
9.751
20
4.592
11
9.892
21
4.592
0
0
LINE
8
0
10
9.892
20
4.592
11
11.251
21
4.592
0
0
LINE
8
0
10
11.251
20
4.592
11
11.279
21
4.592
0
0
LINE
8
0
10
11.279
20
4.592
11
11.551
21
4.592
0
0
LINE
8
0
10
11.551
20
4.592
11
11.692
21
4.592
0
0
LINE
8
0
10
11.692
20
4.592
11
13.051
21
4.592
0
0
LINE
8
0
10
13.051
20
4.592
11
13.079
21
4.592
0
0
LINE
8
0
10
13.079
20
4.592
11
13.351
21
4.592
0
0
LINE
8
0
10
13.351
20
4.592
11
13.492
21
4.592
0
0
LINE
8
0
10
13.492
20
4.592
11
14.641
21
4.592
0
0
LINE
8
0
10
14.641
20
4.592
11
14.669
21
4.592
0
0
LINE
8
0
10
0.513
20
5.092
11
0.785
21
5.092
0
0
LINE
8
0
10
0.513
20
5.092
11
0.785
21
5.092
0
0
LINE
8
0
10
0.785
20
5.092
11
0.901
21
5.092
0
0
LINE
8
0
10
0.901
20
5.092
11
2.261
21
5.092
0
0
LINE
8
0
10
2.261
20
5.092
11
2.289
21
5.092
0
0
LINE
8
0
10
2.289
20
5.092
11
2.560
21
5.092
0
0
LINE
8
0
10
2.560
20
5.092
11
2.701
21
5.092
0
0
LINE
8
0
10
2.701
20
5.092
11
4.061
21
5.092
0
0
LINE
8
0
10
4.061
20
5.092
11
4.089
21
5.092
0
0
LINE
8
0
10
4.089
20
5.092
11
4.360
21
5.092
0
0
LINE
8
0
10
4.360
20
5.092
11
4.501
21
5.092
0
0
LINE
8
0
10
4.501
20
5.092
11
5.861
21
5.092
0
0
LINE
8
0
10
5.861
20
5.092
11
5.889
21
5.092
0
0
LINE
8
0
10
5.889
20
5.092
11
6.160
21
5.092
0
0
LINE
8
0
10
6.160
20
5.092
11
6.301
21
5.092
0
0
LINE
8
0
10
6.301
20
5.092
11
7.661
21
5.092
0
0
LINE
8
0
10
7.661
20
5.092
11
7.689
21
5.092
0
0
LINE
8
0
10
7.689
20
5.092
11
7.960
21
5.092
0
0
LINE
8
0
10
7.960
20
5.092
11
8.101
21
5.092
0
0
LINE
8
0
10
8.101
20
5.092
11
9.461
21
5.092
0
0
LINE
8
0
10
9.461
20
5.092
11
9.489
21
5.092
0
0
LINE
8
0
10
9.489
20
5.092
11
9.760
21
5.092
0
0
LINE
8
0
10
9.760
20
5.092
11
9.901
21
5.092
0
0
LINE
8
0
10
9.901
20
5.092
11
11.261
21
5.092
0
0
LINE
8
0
10
11.261
20
5.092
11
11.289
21
5.092
0
0
LINE
8
0
10
11.289
20
5.092
11
11.560
21
5.092
0
0
LINE
8
0
10
11.560
20
5.092
11
11.701
21
5.092
0
0
LINE
8
0
10
11.701
20
5.092
11
13.061
21
5.092
0
0
LINE
8
0
10
13.061
20
5.092
11
13.089
21
5.092
0
0
LINE
8
0
10
13.089
20
5.092
11
13.360
21
5.092
0
0
LINE
8
0
10
13.360
20
5.092
11
13.501
21
5.092
0
0
LINE
8
0
10
13.501
20
5.092
11
14.623
21
5.092
0
0
LINE
8
0
10
14.623
20
5.092
11
14.651
21
5.092
0
0
LINE
8
0
10
0.526
20
5.592
11
0.798
21
5.592
0
0
LINE
8
0
10
0.526
20
5.592
11
0.798
21
5.592
0
0
LINE
8
0
10
0.798
20
5.592
11
0.911
21
5.592
0
0
LINE
8
0
10
0.911
20
5.592
11
2.271
21
5.592
0
0
LINE
8
0
10
2.271
20
5.592
11
2.299
21
5.592
0
0
LINE
8
0
10
2.299
20
5.592
11
2.571
21
5.592
0
0
LINE
8
0
10
2.571
20
5.592
11
2.711
21
5.592
0
0
LINE
8
0
10
2.711
20
5.592
11
4.071
21
5.592
0
0
LINE
8
0
10
4.071
20
5.592
11
4.099
21
5.592
0
0
LINE
8
0
10
4.099
20
5.592
11
4.371
21
5.592
0
0
LINE
8
0
10
4.371
20
5.592
11
4.511
21
5.592
0
0
LINE
8
0
10
4.511
20
5.592
11
5.871
21
5.592
0
0
LINE
8
0
10
5.871
20
5.592
11
5.899
21
5.592
0
0
LINE
8
0
10
5.899
20
5.592
11
6.171
21
5.592
0
0
LINE
8
0
10
6.171
20
5.592
11
6.311
21
5.592
0
0
LINE
8
0
10
6.311
20
5.592
11
7.671
21
5.592
0
0
LINE
8
0
10
7.671
20
5.592
11
7.699
21
5.592
0
0
LINE
8
0
10
7.699
20
5.592
11
7.971
21
5.592
0
0
LINE
8
0
10
7.971
20
5.592
11
8.111
21
5.592
0
0
LINE
8
0
10
8.111
20
5.592
11
9.471
21
5.592
0
0
LINE
8
0
10
9.471
20
5.592
11
9.499
21
5.592
0
0
LINE
8
0
10
9.499
20
5.592
11
9.771
21
5.592
0
0
LINE
8
0
10
9.771
20
5.592
11
9.911
21
5.592
0
0
LINE
8
0
10
9.911
20
5.592
11
11.271
21
5.592
0
0
LINE
8
0
10
11.271
20
5.592
11
11.299
21
5.592
0
0
LINE
8
0
10
11.299
20
5.592
11
11.571
21
5.592
0
0
LINE
8
0
10
11.571
20
5.592
11
11.711
21
5.592
0
0
LINE
8
0
10
11.711
20
5.592
11
13.071
21
5.592
0
0
LINE
8
0
10
13.071
20
5.592
11
13.099
21
5.592
0
0
LINE
8
0
10
13.099
20
5.592
11
13.371
21
5.592
0
0
LINE
8
0
10
13.371
20
5.592
11
13.511
21
5.592
0
0
LINE
8
0
10
13.511
20
5.592
11
14.606
21
5.592
0
0
LINE
8
0
10
14.606
20
5.592
11
14.634
21
5.592
0
0
LINE
8
0
10
0.539
20
6.092
11
0.811
21
6.092
0
0
LINE
8
0
10
0.539
20
6.092
11
0.811
21
6.092
0
0
LINE
8
0
10
0.811
20
6.092
11
0.922
21
6.092
0
0
LINE
8
0
10
0.922
20
6.092
11
2.282
21
6.092
0
0
LINE
8
0
10
2.282
20
6.092
11
2.310
21
6.092
0
0
LINE
8
0
10
2.310
20
6.092
11
2.582
21
6.092
0
0
LINE
8
0
10
2.582
20
6.092
11
2.722
21
6.092
0
0
LINE
8
0
10
2.722
20
6.092
11
4.082
21
6.092
0
0
LINE
8
0
10
4.082
20
6.092
11
4.110
21
6.092
0
0
LINE
8
0
10
4.110
20
6.092
11
4.382
21
6.092
0
0
LINE
8
0
10
4.382
20
6.092
11
4.522
21
6.092
0
0
LINE
8
0
10
4.522
20
6.092
11
5.882
21
6.092
0
0
LINE
8
0
10
5.882
20
6.092
11
5.910
21
6.092
0
0
LINE
8
0
10
5.910
20
6.092
11
6.182
21
6.092
0
0
LINE
8
0
10
6.182
20
6.092
11
6.322
21
6.092
0
0
LINE
8
0
10
6.322
20
6.092
11
7.682
21
6.092
0
0
LINE
8
0
10
7.682
20
6.092
11
7.710
21
6.092
0
0
LINE
8
0
10
7.710
20
6.092
11
7.982
21
6.092
0
0
LINE
8
0
10
7.982
20
6.092
11
8.122
21
6.092
0
0
LINE
8
0
10
8.122
20
6.092
11
9.482
21
6.092
0
0
LINE
8
0
10
9.482
20
6.092
11
9.510
21
6.092
0
0
LINE
8
0
10
9.510
20
6.092
11
9.782
21
6.092
0
0
LINE
8
0
10
9.782
20
6.092
11
9.922
21
6.092
0
0
LINE
8
0
10
9.922
20
6.092
11
11.282
21
6.092
0
0
LINE
8
0
10
11.282
20
6.092
11
11.310
21
6.092
0
0
LINE
8
0
10
11.310
20
6.092
11
11.582
21
6.092
0
0
LINE
8
0
10
11.582
20
6.092
11
11.722
21
6.092
0
0
LINE
8
0
10
11.722
20
6.092
11
13.082
21
6.092
0
0
LINE
8
0
10
13.082
20
6.092
11
13.110
21
6.092
0
0
LINE
8
0
10
13.110
20
6.092
11
13.382
21
6.092
0
0
LINE
8
0
10
13.382
20
6.092
11
13.522
21
6.092
0
0
LINE
8
0
10
13.522
20
6.092
11
14.598
21
6.092
0
0
LINE
8
0
10
14.598
20
6.092
11
14.626
21
6.092
0
0
LINE
8
0
10
0.551
20
6.592
11
0.823
21
6.592
0
0
LINE
8
0
10
0.551
20
6.592
11
0.823
21
6.592
0
0
LINE
8
0
10
0.823
20
6.592
11
0.933
21
6.592
0
0
LINE
8
0
10
0.933
20
6.592
11
2.293
21
6.592
0
0
LINE
8
0
10
2.293
20
6.592
11
2.321
21
6.592
0
0
LINE
8
0
10
2.321
20
6.592
11
2.593
21
6.592
0
0
LINE
8
0
10
2.593
20
6.592
11
2.733
21
6.592
0
0
LINE
8
0
10
2.733
20
6.592
11
4.093
21
6.592
0
0
LINE
8
0
10
4.093
20
6.592
11
4.121
21
6.592
0
0
LINE
8
0
10
4.121
20
6.592
11
4.393
21
6.592
0
0
LINE
8
0
10
4.393
20
6.592
11
4.533
21
6.592
0
0
LINE
8
0
10
4.533
20
6.592
11
5.893
21
6.592
0
0
LINE
8
0
10
5.893
20
6.592
11
5.921
21
6.592
0
0
LINE
8
0
10
5.921
20
6.592
11
6.193
21
6.592
0
0
LINE
8
0
10
6.193
20
6.592
11
6.333
21
6.592
0
0
LINE
8
0
10
6.333
20
6.592
11
7.693
21
6.592
0
0
LINE
8
0
10
7.693
20
6.592
11
7.721
21
6.592
0
0
LINE
8
0
10
7.721
20
6.592
11
7.993
21
6.592
0
0
LINE
8
0
10
7.993
20
6.592
11
8.133
21
6.592
0
0
LINE
8
0
10
8.133
20
6.592
11
9.493
21
6.592
0
0
LINE
8
0
10
9.493
20
6.592
11
9.521
21
6.592
0
0
LINE
8
0
10
9.521
20
6.592
11
9.793
21
6.592
0
0
LINE
8
0
10
9.793
20
6.592
11
9.933
21
6.592
0
0
LINE
8
0
10
9.933
20
6.592
11
11.293
21
6.592
0
0
LINE
8
0
10
11.293
20
6.592
11
11.321
21
6.592
0
0
LINE
8
0
10
11.321
20
6.592
11
11.593
21
6.592
0
0
LINE
8
0
10
11.593
20
6.592
11
11.733
21
6.592
0
0
LINE
8
0
10
11.733
20
6.592
11
13.093
21
6.592
0
0
LINE
8
0
10
13.093
20
6.592
11
13.121
21
6.592
0
0
LINE
8
0
10
13.121
20
6.592
11
13.393
21
6.592
0
0
LINE
8
0
10
13.393
20
6.592
11
13.533
21
6.592
0
0
LINE
8
0
10
13.533
20
6.592
11
14.598
21
6.592
0
0
LINE
8
0
10
14.598
20
6.592
11
14.626
21
6.592
0
0
LINE
8
0
10
0.564
20
7.092
11
0.836
21
7.092
0
0
LINE
8
0
10
0.564
20
7.092
11
0.836
21
7.092
0
0
LINE
8
0
10
0.836
20
7.092
11
0.945
21
7.092
0
0
LINE
8
0
10
0.945
20
7.092
11
2.304
21
7.092
0
0
LINE
8
0
10
2.304
20
7.092
11
2.332
21
7.092
0
0
LINE
8
0
10
2.332
20
7.092
11
2.604
21
7.092
0
0
LINE
8
0
10
2.604
20
7.092
11
2.745
21
7.092
0
0
LINE
8
0
10
2.745
20
7.092
11
4.104
21
7.092
0
0
LINE
8
0
10
4.104
20
7.092
11
4.132
21
7.092
0
0
LINE
8
0
10
4.132
20
7.092
11
4.404
21
7.092
0
0
LINE
8
0
10
4.404
20
7.092
11
4.545
21
7.092
0
0
LINE
8
0
10
4.545
20
7.092
11
5.904
21
7.092
0
0
LINE
8
0
10
5.904
20
7.092
11
5.932
21
7.092
0
0
LINE
8
0
10
5.932
20
7.092
11
6.204
21
7.092
0
0
LINE
8
0
10
6.204
20
7.092
11
6.345
21
7.092
0
0
LINE
8
0
10
6.345
20
7.092
11
7.704
21
7.092
0
0
LINE
8
0
10
7.704
20
7.092
11
7.732
21
7.092
0
0
LINE
8
0
10
7.732
20
7.092
11
8.004
21
7.092
0
0
LINE
8
0
10
8.004
20
7.092
11
8.145
21
7.092
0
0
LINE
8
0
10
8.145
20
7.092
11
9.504
21
7.092
0
0
LINE
8
0
10
9.504
20
7.092
11
9.532
21
7.092
0
0
LINE
8
0
10
9.532
20
7.092
11
9.804
21
7.092
0
0
LINE
8
0
10
9.804
20
7.092
11
9.945
21
7.092
0
0
LINE
8
0
10
9.945
20
7.092
11
11.304
21
7.092
0
0
LINE
8
0
10
11.304
20
7.092
11
11.332
21
7.092
0
0
LINE
8
0
10
11.332
20
7.092
11
11.604
21
7.092
0
0
LINE
8
0
10
11.604
20
7.092
11
11.745
21
7.092
0
0
LINE
8
0
10
11.745
20
7.092
11
13.104
21
7.092
0
0
LINE
8
0
10
13.104
20
7.092
11
13.132
21
7.092
0
0
LINE
8
0
10
13.132
20
7.092
11
13.404
21
7.092
0
0
LINE
8
0
10
13.404
20
7.092
11
13.545
21
7.092
0
0
LINE
8
0
10
13.545
20
7.092
11
14.598
21
7.092
0
0
LINE
8
0
10
14.598
20
7.092
11
14.626
21
7.092
0
0
LINE
8
0
10
0.576
20
7.592
11
0.577
21
7.592
0
0
LINE
8
0
10
0.576
20
7.592
11
0.577
21
7.592
0
0
LINE
8
0
10
0.577
20
7.592
11
0.848
21
7.592
0
0
LINE
8
0
10
0.848
20
7.592
11
0.956
21
7.592
0
0
LINE
8
0
10
0.956
20
7.592
11
2.316
21
7.592
0
0
LINE
8
0
10
2.316
20
7.592
11
2.344
21
7.592
0
0
LINE
8
0
10
2.344
20
7.592
11
2.615
21
7.592
0
0
LINE
8
0
10
2.615
20
7.592
11
2.756
21
7.592
0
0
LINE
8
0
10
2.756
20
7.592
11
4.116
21
7.592
0
0
LINE
8
0
10
4.116
20
7.592
11
4.144
21
7.592
0
0
LINE
8
0
10
4.144
20
7.592
11
4.415
21
7.592
0
0
LINE
8
0
10
4.415
20
7.592
11
4.556
21
7.592
0
0
LINE
8
0
10
4.556
20
7.592
11
5.916
21
7.592
0
0
LINE
8
0
10
5.916
20
7.592
11
5.944
21
7.592
0
0
LINE
8
0
10
5.944
20
7.592
11
6.215
21
7.592
0
0
LINE
8
0
10
6.215
20
7.592
11
6.356
21
7.592
0
0
LINE
8
0
10
6.356
20
7.592
11
7.716
21
7.592
0
0
LINE
8
0
10
7.716
20
7.592
11
7.744
21
7.592
0
0
LINE
8
0
10
7.744
20
7.592
11
8.015
21
7.592
0
0
LINE
8
0
10
8.015
20
7.592
11
8.156
21
7.592
0
0
LINE
8
0
10
8.156
20
7.592
11
9.516
21
7.592
0
0
LINE
8
0
10
9.516
20
7.592
11
9.544
21
7.592
0
0
LINE
8
0
10
9.544
20
7.592
11
9.815
21
7.592
0
0
LINE
8
0
10
9.815
20
7.592
11
9.956
21
7.592
0
0
LINE
8
0
10
9.956
20
7.592
11
11.316
21
7.592
0
0
LINE
8
0
10
11.316
20
7.592
11
11.344
21
7.592
0
0
LINE
8
0
10
11.344
20
7.592
11
11.615
21
7.592
0
0
LINE
8
0
10
11.615
20
7.592
11
11.756
21
7.592
0
0
LINE
8
0
10
11.756
20
7.592
11
13.116
21
7.592
0
0
LINE
8
0
10
13.116
20
7.592
11
13.144
21
7.592
0
0
LINE
8
0
10
13.144
20
7.592
11
13.415
21
7.592
0
0
LINE
8
0
10
13.415
20
7.592
11
13.556
21
7.592
0
0
LINE
8
0
10
13.556
20
7.592
11
14.598
21
7.592
0
0
LINE
8
0
10
14.598
20
7.592
11
14.626
21
7.592
0
0
LINE
8
0
10
0.575
20
8.092
11
0.847
21
8.092
0
0
LINE
8
0
10
0.575
20
8.092
11
0.847
21
8.092
0
0
LINE
8
0
10
0.847
20
8.092
11
0.955
21
8.092
0
0
LINE
8
0
10
0.955
20
8.092
11
2.315
21
8.092
0
0
LINE
8
0
10
2.315
20
8.092
11
2.343
21
8.092
0
0
LINE
8
0
10
2.343
20
8.092
11
2.614
21
8.092
0
0
LINE
8
0
10
2.614
20
8.092
11
2.755
21
8.092
0
0
LINE
8
0
10
2.755
20
8.092
11
4.115
21
8.092
0
0
LINE
8
0
10
4.115
20
8.092
11
4.143
21
8.092
0
0
LINE
8
0
10
4.143
20
8.092
11
4.414
21
8.092
0
0
LINE
8
0
10
4.414
20
8.092
11
4.555
21
8.092
0
0
LINE
8
0
10
4.555
20
8.092
11
5.915
21
8.092
0
0
LINE
8
0
10
5.915
20
8.092
11
5.943
21
8.092
0
0
LINE
8
0
10
5.943
20
8.092
11
6.214
21
8.092
0
0
LINE
8
0
10
6.214
20
8.092
11
6.355
21
8.092
0
0
LINE
8
0
10
6.355
20
8.092
11
7.715
21
8.092
0
0
LINE
8
0
10
7.715
20
8.092
11
7.743
21
8.092
0
0
LINE
8
0
10
7.743
20
8.092
11
8.014
21
8.092
0
0
LINE
8
0
10
8.014
20
8.092
11
8.155
21
8.092
0
0
LINE
8
0
10
8.155
20
8.092
11
9.515
21
8.092
0
0
LINE
8
0
10
9.515
20
8.092
11
9.543
21
8.092
0
0
LINE
8
0
10
9.543
20
8.092
11
9.814
21
8.092
0
0
LINE
8
0
10
9.814
20
8.092
11
9.955
21
8.092
0
0
LINE
8
0
10
9.955
20
8.092
11
11.315
21
8.092
0
0
LINE
8
0
10
11.315
20
8.092
11
11.343
21
8.092
0
0
LINE
8
0
10
11.343
20
8.092
11
11.614
21
8.092
0
0
LINE
8
0
10
11.614
20
8.092
11
11.755
21
8.092
0
0
LINE
8
0
10
11.755
20
8.092
11
13.115
21
8.092
0
0
LINE
8
0
10
13.115
20
8.092
11
13.143
21
8.092
0
0
LINE
8
0
10
13.143
20
8.092
11
13.414
21
8.092
0
0
LINE
8
0
10
13.414
20
8.092
11
13.555
21
8.092
0
0
LINE
8
0
10
13.555
20
8.092
11
14.598
21
8.092
0
0
LINE
8
0
10
14.598
20
8.092
11
14.626
21
8.092
0
0
LINE
8
0
10
0.560
20
8.592
11
0.832
21
8.592
0
0
LINE
8
0
10
0.560
20
8.592
11
0.832
21
8.592
0
0
LINE
8
0
10
0.832
20
8.592
11
0.941
21
8.592
0
0
LINE
8
0
10
0.941
20
8.592
11
2.301
21
8.592
0
0
LINE
8
0
10
2.301
20
8.592
11
2.329
21
8.592
0
0
LINE
8
0
10
2.329
20
8.592
11
2.601
21
8.592
0
0
LINE
8
0
10
2.601
20
8.592
11
2.741
21
8.592
0
0
LINE
8
0
10
2.741
20
8.592
11
4.101
21
8.592
0
0
LINE
8
0
10
4.101
20
8.592
11
4.129
21
8.592
0
0
LINE
8
0
10
4.129
20
8.592
11
4.401
21
8.592
0
0
LINE
8
0
10
4.401
20
8.592
11
4.541
21
8.592
0
0
LINE
8
0
10
4.541
20
8.592
11
5.901
21
8.592
0
0
LINE
8
0
10
5.901
20
8.592
11
5.929
21
8.592
0
0
LINE
8
0
10
5.929
20
8.592
11
6.201
21
8.592
0
0
LINE
8
0
10
6.201
20
8.592
11
6.341
21
8.592
0
0
LINE
8
0
10
6.341
20
8.592
11
7.701
21
8.592
0
0
LINE
8
0
10
7.701
20
8.592
11
7.729
21
8.592
0
0
LINE
8
0
10
7.729
20
8.592
11
8.001
21
8.592
0
0
LINE
8
0
10
8.001
20
8.592
11
8.141
21
8.592
0
0
LINE
8
0
10
8.141
20
8.592
11
9.501
21
8.592
0
0
LINE
8
0
10
9.501
20
8.592
11
9.529
21
8.592
0
0
LINE
8
0
10
9.529
20
8.592
11
9.801
21
8.592
0
0
LINE
8
0
10
9.801
20
8.592
11
9.941
21
8.592
0
0
LINE
8
0
10
9.941
20
8.592
11
11.301
21
8.592
0
0
LINE
8
0
10
11.301
20
8.592
11
11.329
21
8.592
0
0
LINE
8
0
10
11.329
20
8.592
11
11.601
21
8.592
0
0
LINE
8
0
10
11.601
20
8.592
11
11.741
21
8.592
0
0
LINE
8
0
10
11.741
20
8.592
11
13.101
21
8.592
0
0
LINE
8
0
10
13.101
20
8.592
11
13.129
21
8.592
0
0
LINE
8
0
10
13.129
20
8.592
11
13.401
21
8.592
0
0
LINE
8
0
10
13.401
20
8.592
11
13.541
21
8.592
0
0
LINE
8
0
10
13.541
20
8.592
11
14.598
21
8.592
0
0
LINE
8
0
10
14.598
20
8.592
11
14.626
21
8.592
0
0
LINE
8
0
10
0.545
20
9.092
11
0.817
21
9.092
0
0
LINE
8
0
10
0.545
20
9.092
11
0.817
21
9.092
0
0
LINE
8
0
10
0.817
20
9.092
11
0.927
21
9.092
0
0
LINE
8
0
10
0.927
20
9.092
11
2.287
21
9.092
0
0
LINE
8
0
10
2.287
20
9.092
11
2.315
21
9.092
0
0
LINE
8
0
10
2.315
20
9.092
11
2.587
21
9.092
0
0
LINE
8
0
10
2.587
20
9.092
11
2.727
21
9.092
0
0
LINE
8
0
10
2.727
20
9.092
11
4.087
21
9.092
0
0
LINE
8
0
10
4.087
20
9.092
11
4.115
21
9.092
0
0
LINE
8
0
10
4.115
20
9.092
11
4.387
21
9.092
0
0
LINE
8
0
10
4.387
20
9.092
11
4.527
21
9.092
0
0
LINE
8
0
10
4.527
20
9.092
11
5.887
21
9.092
0
0
LINE
8
0
10
5.887
20
9.092
11
5.915
21
9.092
0
0
LINE
8
0
10
5.915
20
9.092
11
6.187
21
9.092
0
0
LINE
8
0
10
6.187
20
9.092
11
6.327
21
9.092
0
0
LINE
8
0
10
6.327
20
9.092
11
7.687
21
9.092
0
0
LINE
8
0
10
7.687
20
9.092
11
7.715
21
9.092
0
0
LINE
8
0
10
7.715
20
9.092
11
7.987
21
9.092
0
0
LINE
8
0
10
7.987
20
9.092
11
8.127
21
9.092
0
0
LINE
8
0
10
8.127
20
9.092
11
9.487
21
9.092
0
0
LINE
8
0
10
9.487
20
9.092
11
9.515
21
9.092
0
0
LINE
8
0
10
9.515
20
9.092
11
9.787
21
9.092
0
0
LINE
8
0
10
9.787
20
9.092
11
9.927
21
9.092
0
0
LINE
8
0
10
9.927
20
9.092
11
11.287
21
9.092
0
0
LINE
8
0
10
11.287
20
9.092
11
11.315
21
9.092
0
0
LINE
8
0
10
11.315
20
9.092
11
11.587
21
9.092
0
0
LINE
8
0
10
11.587
20
9.092
11
11.727
21
9.092
0
0
LINE
8
0
10
11.727
20
9.092
11
13.087
21
9.092
0
0
LINE
8
0
10
13.087
20
9.092
11
13.115
21
9.092
0
0
LINE
8
0
10
13.115
20
9.092
11
13.387
21
9.092
0
0
LINE
8
0
10
13.387
20
9.092
11
13.527
21
9.092
0
0
LINE
8
0
10
13.527
20
9.092
11
14.598
21
9.092
0
0
LINE
8
0
10
14.598
20
9.092
11
14.626
21
9.092
0
0
LINE
8
0
10
0.529
20
9.592
11
0.801
21
9.592
0
0
LINE
8
0
10
0.529
20
9.592
11
0.801
21
9.592
0
0
LINE
8
0
10
0.801
20
9.592
11
0.913
21
9.592
0
0
LINE
8
0
10
0.913
20
9.592
11
2.273
21
9.592
0
0
LINE
8
0
10
2.273
20
9.592
11
2.302
21
9.592
0
0
LINE
8
0
10
2.302
20
9.592
11
2.573
21
9.592
0
0
LINE
8
0
10
2.573
20
9.592
11
2.713
21
9.592
0
0
LINE
8
0
10
2.713
20
9.592
11
4.073
21
9.592
0
0
LINE
8
0
10
4.073
20
9.592
11
4.102
21
9.592
0
0
LINE
8
0
10
4.102
20
9.592
11
4.373
21
9.592
0
0
LINE
8
0
10
4.373
20
9.592
11
4.513
21
9.592
0
0
LINE
8
0
10
4.513
20
9.592
11
5.873
21
9.592
0
0
LINE
8
0
10
5.873
20
9.592
11
5.902
21
9.592
0
0
LINE
8
0
10
5.902
20
9.592
11
6.173
21
9.592
0
0
LINE
8
0
10
6.173
20
9.592
11
6.313
21
9.592
0
0
LINE
8
0
10
6.313
20
9.592
11
7.673
21
9.592
0
0
LINE
8
0
10
7.673
20
9.592
11
7.702
21
9.592
0
0
LINE
8
0
10
7.702
20
9.592
11
7.973
21
9.592
0
0
LINE
8
0
10
7.973
20
9.592
11
8.113
21
9.592
0
0
LINE
8
0
10
8.113
20
9.592
11
9.473
21
9.592
0
0
LINE
8
0
10
9.473
20
9.592
11
9.502
21
9.592
0
0
LINE
8
0
10
9.502
20
9.592
11
9.773
21
9.592
0
0
LINE
8
0
10
9.773
20
9.592
11
9.913
21
9.592
0
0
LINE
8
0
10
9.913
20
9.592
11
11.273
21
9.592
0
0
LINE
8
0
10
11.273
20
9.592
11
11.302
21
9.592
0
0
LINE
8
0
10
11.302
20
9.592
11
11.573
21
9.592
0
0
LINE
8
0
10
11.573
20
9.592
11
11.713
21
9.592
0
0
LINE
8
0
10
11.713
20
9.592
11
13.073
21
9.592
0
0
LINE
8
0
10
13.073
20
9.592
11
13.102
21
9.592
0
0
LINE
8
0
10
13.102
20
9.592
11
13.373
21
9.592
0
0
LINE
8
0
10
13.373
20
9.592
11
13.513
21
9.592
0
0
LINE
8
0
10
13.513
20
9.592
11
14.598
21
9.592
0
0
LINE
8
0
10
14.598
20
9.592
11
14.626
21
9.592
0
0
LINE
8
0
10
0.514
20
10.092
11
0.786
21
10.092
0
0
LINE
8
0
10
0.514
20
10.092
11
0.786
21
10.092
0
0
LINE
8
0
10
0.786
20
10.092
11
0.899
21
10.092
0
0
LINE
8
0
10
0.899
20
10.092
11
2.259
21
10.092
0
0
LINE
8
0
10
2.259
20
10.092
11
2.287
21
10.092
0
0
LINE
8
0
10
2.287
20
10.092
11
2.559
21
10.092
0
0
LINE
8
0
10
2.559
20
10.092
11
2.699
21
10.092
0
0
LINE
8
0
10
2.699
20
10.092
11
4.059
21
10.092
0
0
LINE
8
0
10
4.059
20
10.092
11
4.087
21
10.092
0
0
LINE
8
0
10
4.087
20
10.092
11
4.359
21
10.092
0
0
LINE
8
0
10
4.359
20
10.092
11
4.499
21
10.092
0
0
LINE
8
0
10
4.499
20
10.092
11
5.859
21
10.092
0
0
LINE
8
0
10
5.859
20
10.092
11
5.887
21
10.092
0
0
LINE
8
0
10
5.887
20
10.092
11
6.159
21
10.092
0
0
LINE
8
0
10
6.159
20
10.092
11
6.299
21
10.092
0
0
LINE
8
0
10
6.299
20
10.092
11
7.659
21
10.092
0
0
LINE
8
0
10
7.659
20
10.092
11
7.687
21
10.092
0
0
LINE
8
0
10
7.687
20
10.092
11
7.959
21
10.092
0
0
LINE
8
0
10
7.959
20
10.092
11
8.099
21
10.092
0
0
LINE
8
0
10
8.099
20
10.092
11
9.459
21
10.092
0
0
LINE
8
0
10
9.459
20
10.092
11
9.487
21
10.092
0
0
LINE
8
0
10
9.487
20
10.092
11
9.759
21
10.092
0
0
LINE
8
0
10
9.759
20
10.092
11
9.899
21
10.092
0
0
LINE
8
0
10
9.899
20
10.092
11
11.259
21
10.092
0
0
LINE
8
0
10
11.259
20
10.092
11
11.287
21
10.092
0
0
LINE
8
0
10
11.287
20
10.092
11
11.559
21
10.092
0
0
LINE
8
0
10
11.559
20
10.092
11
11.699
21
10.092
0
0
LINE
8
0
10
11.699
20
10.092
11
13.059
21
10.092
0
0
LINE
8
0
10
13.059
20
10.092
11
13.087
21
10.092
0
0
LINE
8
0
10
13.087
20
10.092
11
13.359
21
10.092
0
0
LINE
8
0
10
13.359
20
10.092
11
13.499
21
10.092
0
0
LINE
8
0
10
13.499
20
10.092
11
14.598
21
10.092
0
0
LINE
8
0
10
14.598
20
10.092
11
14.626
21
10.092
0
0
LINE
8
0
10
0.499
20
10.592
11
0.771
21
10.592
0
0
LINE
8
0
10
0.499
20
10.592
11
0.771
21
10.592
0
0
LINE
8
0
10
0.771
20
10.592
11
0.886
21
10.592
0
0
LINE
8
0
10
0.886
20
10.592
11
2.245
21
10.592
0
0
LINE
8
0
10
2.245
20
10.592
11
2.273
21
10.592
0
0
LINE
8
0
10
2.273
20
10.592
11
2.545
21
10.592
0
0
LINE
8
0
10
2.545
20
10.592
11
2.686
21
10.592
0
0
LINE
8
0
10
2.686
20
10.592
11
4.045
21
10.592
0
0
LINE
8
0
10
4.045
20
10.592
11
4.073
21
10.592
0
0
LINE
8
0
10
4.073
20
10.592
11
4.345
21
10.592
0
0
LINE
8
0
10
4.345
20
10.592
11
4.486
21
10.592
0
0
LINE
8
0
10
4.486
20
10.592
11
5.845
21
10.592
0
0
LINE
8
0
10
5.845
20
10.592
11
5.873
21
10.592
0
0
LINE
8
0
10
5.873
20
10.592
11
6.145
21
10.592
0
0
LINE
8
0
10
6.145
20
10.592
11
6.286
21
10.592
0
0
LINE
8
0
10
6.286
20
10.592
11
7.645
21
10.592
0
0
LINE
8
0
10
7.645
20
10.592
11
7.673
21
10.592
0
0
LINE
8
0
10
7.673
20
10.592
11
7.945
21
10.592
0
0
LINE
8
0
10
7.945
20
10.592
11
8.086
21
10.592
0
0
LINE
8
0
10
8.086
20
10.592
11
9.445
21
10.592
0
0
LINE
8
0
10
9.445
20
10.592
11
9.473
21
10.592
0
0
LINE
8
0
10
9.473
20
10.592
11
9.745
21
10.592
0
0
LINE
8
0
10
9.745
20
10.592
11
9.886
21
10.592
0
0
LINE
8
0
10
9.886
20
10.592
11
11.245
21
10.592
0
0
LINE
8
0
10
11.245
20
10.592
11
11.273
21
10.592
0
0
LINE
8
0
10
11.273
20
10.592
11
11.545
21
10.592
0
0
LINE
8
0
10
11.545
20
10.592
11
11.686
21
10.592
0
0
LINE
8
0
10
11.686
20
10.592
11
13.045
21
10.592
0
0
LINE
8
0
10
13.045
20
10.592
11
13.073
21
10.592
0
0
LINE
8
0
10
13.073
20
10.592
11
13.345
21
10.592
0
0
LINE
8
0
10
13.345
20
10.592
11
13.486
21
10.592
0
0
LINE
8
0
10
13.486
20
10.592
11
14.598
21
10.592
0
0
LINE
8
0
10
14.598
20
10.592
11
14.626
21
10.592
0
0
LINE
8
0
10
0.484
20
11.092
11
0.756
21
11.092
0
0
LINE
8
0
10
0.484
20
11.092
11
0.756
21
11.092
0
0
LINE
8
0
10
0.756
20
11.092
11
0.872
21
11.092
0
0
LINE
8
0
10
0.872
20
11.092
11
2.232
21
11.092
0
0
LINE
8
0
10
2.232
20
11.092
11
2.260
21
11.092
0
0
LINE
8
0
10
2.260
20
11.092
11
2.532
21
11.092
0
0
LINE
8
0
10
2.532
20
11.092
11
2.672
21
11.092
0
0
LINE
8
0
10
2.672
20
11.092
11
4.032
21
11.092
0
0
LINE
8
0
10
4.032
20
11.092
11
4.060
21
11.092
0
0
LINE
8
0
10
4.060
20
11.092
11
4.332
21
11.092
0
0
LINE
8
0
10
4.332
20
11.092
11
4.472
21
11.092
0
0
LINE
8
0
10
4.472
20
11.092
11
5.832
21
11.092
0
0
LINE
8
0
10
5.832
20
11.092
11
5.860
21
11.092
0
0
LINE
8
0
10
5.860
20
11.092
11
6.132
21
11.092
0
0
LINE
8
0
10
6.132
20
11.092
11
6.272
21
11.092
0
0
LINE
8
0
10
6.272
20
11.092
11
7.632
21
11.092
0
0
LINE
8
0
10
7.632
20
11.092
11
7.660
21
11.092
0
0
LINE
8
0
10
7.660
20
11.092
11
7.932
21
11.092
0
0
LINE
8
0
10
7.932
20
11.092
11
8.072
21
11.092
0
0
LINE
8
0
10
8.072
20
11.092
11
9.432
21
11.092
0
0
LINE
8
0
10
9.432
20
11.092
11
9.460
21
11.092
0
0
LINE
8
0
10
9.460
20
11.092
11
9.732
21
11.092
0
0
LINE
8
0
10
9.732
20
11.092
11
9.872
21
11.092
0
0
LINE
8
0
10
9.872
20
11.092
11
11.232
21
11.092
0
0
LINE
8
0
10
11.232
20
11.092
11
11.260
21
11.092
0
0
LINE
8
0
10
11.260
20
11.092
11
11.532
21
11.092
0
0
LINE
8
0
10
11.532
20
11.092
11
11.672
21
11.092
0
0
LINE
8
0
10
11.672
20
11.092
11
13.032
21
11.092
0
0
LINE
8
0
10
13.032
20
11.092
11
13.060
21
11.092
0
0
LINE
8
0
10
13.060
20
11.092
11
13.332
21
11.092
0
0
LINE
8
0
10
13.332
20
11.092
11
13.472
21
11.092
0
0
LINE
8
0
10
13.472
20
11.092
11
14.598
21
11.092
0
0
LINE
8
0
10
14.598
20
11.092
11
14.626
21
11.092
0
0
LINE
8
0
10
0.468
20
11.592
11
0.740
21
11.592
0
0
LINE
8
0
10
0.468
20
11.592
11
0.740
21
11.592
0
0
LINE
8
0
10
0.740
20
11.592
11
0.858
21
11.592
0
0
LINE
8
0
10
0.858
20
11.592
11
2.217
21
11.592
0
0
LINE
8
0
10
2.217
20
11.592
11
2.245
21
11.592
0
0
LINE
8
0
10
2.245
20
11.592
11
2.517
21
11.592
0
0
LINE
8
0
10
2.517
20
11.592
11
2.658
21
11.592
0
0
LINE
8
0
10
2.658
20
11.592
11
4.017
21
11.592
0
0
LINE
8
0
10
4.017
20
11.592
11
4.045
21
11.592
0
0
LINE
8
0
10
4.045
20
11.592
11
4.317
21
11.592
0
0
LINE
8
0
10
4.317
20
11.592
11
4.458
21
11.592
0
0
LINE
8
0
10
4.458
20
11.592
11
5.817
21
11.592
0
0
LINE
8
0
10
5.817
20
11.592
11
5.845
21
11.592
0
0
LINE
8
0
10
5.845
20
11.592
11
6.117
21
11.592
0
0
LINE
8
0
10
6.117
20
11.592
11
6.258
21
11.592
0
0
LINE
8
0
10
6.258
20
11.592
11
7.617
21
11.592
0
0
LINE
8
0
10
7.617
20
11.592
11
7.645
21
11.592
0
0
LINE
8
0
10
7.645
20
11.592
11
7.917
21
11.592
0
0
LINE
8
0
10
7.917
20
11.592
11
8.058
21
11.592
0
0
LINE
8
0
10
8.058
20
11.592
11
9.417
21
11.592
0
0
LINE
8
0
10
9.417
20
11.592
11
9.445
21
11.592
0
0
LINE
8
0
10
9.445
20
11.592
11
9.717
21
11.592
0
0
LINE
8
0
10
9.717
20
11.592
11
9.858
21
11.592
0
0
LINE
8
0
10
9.858
20
11.592
11
11.217
21
11.592
0
0
LINE
8
0
10
11.217
20
11.592
11
11.245
21
11.592
0
0
LINE
8
0
10
11.245
20
11.592
11
11.517
21
11.592
0
0
LINE
8
0
10
11.517
20
11.592
11
11.658
21
11.592
0
0
LINE
8
0
10
11.658
20
11.592
11
13.017
21
11.592
0
0
LINE
8
0
10
13.017
20
11.592
11
13.045
21
11.592
0
0
LINE
8
0
10
13.045
20
11.592
11
13.317
21
11.592
0
0
LINE
8
0
10
13.317
20
11.592
11
13.458
21
11.592
0
0
LINE
8
0
10
13.458
20
11.592
11
14.598
21
11.592
0
0
LINE
8
0
10
14.598
20
11.592
11
14.626
21
11.592
0
0
LINE
8
0
10
0.453
20
12.092
11
0.725
21
12.092
0
0
LINE
8
0
10
0.453
20
12.092
11
0.725
21
12.092
0
0
LINE
8
0
10
0.725
20
12.092
11
0.844
21
12.092
0
0
LINE
8
0
10
0.844
20
12.092
11
2.204
21
12.092
0
0
LINE
8
0
10
2.204
20
12.092
11
2.232
21
12.092
0
0
LINE
8
0
10
2.232
20
12.092
11
2.504
21
12.092
0
0
LINE
8
0
10
2.504
20
12.092
11
2.644
21
12.092
0
0
LINE
8
0
10
2.644
20
12.092
11
4.004
21
12.092
0
0
LINE
8
0
10
4.004
20
12.092
11
4.032
21
12.092
0
0
LINE
8
0
10
4.032
20
12.092
11
4.304
21
12.092
0
0
LINE
8
0
10
4.304
20
12.092
11
4.444
21
12.092
0
0
LINE
8
0
10
4.444
20
12.092
11
5.804
21
12.092
0
0
LINE
8
0
10
5.804
20
12.092
11
5.832
21
12.092
0
0
LINE
8
0
10
5.832
20
12.092
11
6.104
21
12.092
0
0
LINE
8
0
10
6.104
20
12.092
11
6.244
21
12.092
0
0
LINE
8
0
10
6.244
20
12.092
11
7.604
21
12.092
0
0
LINE
8
0
10
7.604
20
12.092
11
7.632
21
12.092
0
0
LINE
8
0
10
7.632
20
12.092
11
7.904
21
12.092
0
0
LINE
8
0
10
7.904
20
12.092
11
8.044
21
12.092
0
0
LINE
8
0
10
8.044
20
12.092
11
9.404
21
12.092
0
0
LINE
8
0
10
9.404
20
12.092
11
9.432
21
12.092
0
0
LINE
8
0
10
9.432
20
12.092
11
9.704
21
12.092
0
0
LINE
8
0
10
9.704
20
12.092
11
9.844
21
12.092
0
0
LINE
8
0
10
9.844
20
12.092
11
11.204
21
12.092
0
0
LINE
8
0
10
11.204
20
12.092
11
11.232
21
12.092
0
0
LINE
8
0
10
11.232
20
12.092
11
11.504
21
12.092
0
0
LINE
8
0
10
11.504
20
12.092
11
11.644
21
12.092
0
0
LINE
8
0
10
11.644
20
12.092
11
13.004
21
12.092
0
0
LINE
8
0
10
13.004
20
12.092
11
13.032
21
12.092
0
0
LINE
8
0
10
13.032
20
12.092
11
13.304
21
12.092
0
0
LINE
8
0
10
13.304
20
12.092
11
13.444
21
12.092
0
0
LINE
8
0
10
13.444
20
12.092
11
14.598
21
12.092
0
0
LINE
8
0
10
14.598
20
12.092
11
14.626
21
12.092
0
0
LINE
8
0
10
0.438
20
12.592
11
0.710
21
12.592
0
0
LINE
8
0
10
0.438
20
12.592
11
0.710
21
12.592
0
0
LINE
8
0
10
0.710
20
12.592
11
0.830
21
12.592
0
0
LINE
8
0
10
0.830
20
12.592
11
2.190
21
12.592
0
0
LINE
8
0
10
2.190
20
12.592
11
2.218
21
12.592
0
0
LINE
8
0
10
2.218
20
12.592
11
2.490
21
12.592
0
0
LINE
8
0
10
2.490
20
12.592
11
2.630
21
12.592
0
0
LINE
8
0
10
2.630
20
12.592
11
3.990
21
12.592
0
0
LINE
8
0
10
3.990
20
12.592
11
4.018
21
12.592
0
0
LINE
8
0
10
4.018
20
12.592
11
4.290
21
12.592
0
0
LINE
8
0
10
4.290
20
12.592
11
4.430
21
12.592
0
0
LINE
8
0
10
4.430
20
12.592
11
5.790
21
12.592
0
0
LINE
8
0
10
5.790
20
12.592
11
5.818
21
12.592
0
0
LINE
8
0
10
5.818
20
12.592
11
6.090
21
12.592
0
0
LINE
8
0
10
6.090
20
12.592
11
6.230
21
12.592
0
0
LINE
8
0
10
6.230
20
12.592
11
7.590
21
12.592
0
0
LINE
8
0
10
7.590
20
12.592
11
7.618
21
12.592
0
0
LINE
8
0
10
7.618
20
12.592
11
7.890
21
12.592
0
0
LINE
8
0
10
7.890
20
12.592
11
8.030
21
12.592
0
0
LINE
8
0
10
8.030
20
12.592
11
9.390
21
12.592
0
0
LINE
8
0
10
9.390
20
12.592
11
9.418
21
12.592
0
0
LINE
8
0
10
9.418
20
12.592
11
9.690
21
12.592
0
0
LINE
8
0
10
9.690
20
12.592
11
9.830
21
12.592
0
0
LINE
8
0
10
9.830
20
12.592
11
11.190
21
12.592
0
0
LINE
8
0
10
11.190
20
12.592
11
11.218
21
12.592
0
0
LINE
8
0
10
11.218
20
12.592
11
11.490
21
12.592
0
0
LINE
8
0
10
11.490
20
12.592
11
11.630
21
12.592
0
0
LINE
8
0
10
11.630
20
12.592
11
12.990
21
12.592
0
0
LINE
8
0
10
12.990
20
12.592
11
13.018
21
12.592
0
0
LINE
8
0
10
13.018
20
12.592
11
13.290
21
12.592
0
0
LINE
8
0
10
13.290
20
12.592
11
13.430
21
12.592
0
0
LINE
8
0
10
13.430
20
12.592
11
14.598
21
12.592
0
0
LINE
8
0
10
14.598
20
12.592
11
14.626
21
12.592
0
0
LINE
8
0
10
0.451
20
13.092
11
0.723
21
13.092
0
0
LINE
8
0
10
0.451
20
13.092
11
0.723
21
13.092
0
0
LINE
8
0
10
0.723
20
13.092
11
0.842
21
13.092
0
0
LINE
8
0
10
0.842
20
13.092
11
2.202
21
13.092
0
0
LINE
8
0
10
2.202
20
13.092
11
2.230
21
13.092
0
0
LINE
8
0
10
2.230
20
13.092
11
2.502
21
13.092
0
0
LINE
8
0
10
2.502
20
13.092
11
2.642
21
13.092
0
0
LINE
8
0
10
2.642
20
13.092
11
4.002
21
13.092
0
0
LINE
8
0
10
4.002
20
13.092
11
4.030
21
13.092
0
0
LINE
8
0
10
4.030
20
13.092
11
4.302
21
13.092
0
0
LINE
8
0
10
4.302
20
13.092
11
4.442
21
13.092
0
0
LINE
8
0
10
4.442
20
13.092
11
5.802
21
13.092
0
0
LINE
8
0
10
5.802
20
13.092
11
5.830
21
13.092
0
0
LINE
8
0
10
5.830
20
13.092
11
6.102
21
13.092
0
0
LINE
8
0
10
6.102
20
13.092
11
6.242
21
13.092
0
0
LINE
8
0
10
6.242
20
13.092
11
7.602
21
13.092
0
0
LINE
8
0
10
7.602
20
13.092
11
7.630
21
13.092
0
0
LINE
8
0
10
7.630
20
13.092
11
7.902
21
13.092
0
0
LINE
8
0
10
7.902
20
13.092
11
8.042
21
13.092
0
0
LINE
8
0
10
8.042
20
13.092
11
9.402
21
13.092
0
0
LINE
8
0
10
9.402
20
13.092
11
9.430
21
13.092
0
0
LINE
8
0
10
9.430
20
13.092
11
9.702
21
13.092
0
0
LINE
8
0
10
9.702
20
13.092
11
9.842
21
13.092
0
0
LINE
8
0
10
9.842
20
13.092
11
11.202
21
13.092
0
0
LINE
8
0
10
11.202
20
13.092
11
11.230
21
13.092
0
0
LINE
8
0
10
11.230
20
13.092
11
11.502
21
13.092
0
0
LINE
8
0
10
11.502
20
13.092
11
11.642
21
13.092
0
0
LINE
8
0
10
11.642
20
13.092
11
13.002
21
13.092
0
0
LINE
8
0
10
13.002
20
13.092
11
13.030
21
13.092
0
0
LINE
8
0
10
13.030
20
13.092
11
13.302
21
13.092
0
0
LINE
8
0
10
13.302
20
13.092
11
13.442
21
13.092
0
0
LINE
8
0
10
13.442
20
13.092
11
14.598
21
13.092
0
0
LINE
8
0
10
14.598
20
13.092
11
14.626
21
13.092
0
0
LINE
8
0
10
0.511
20
13.592
11
0.783
21
13.592
0
0
LINE
8
0
10
0.511
20
13.592
11
0.783
21
13.592
0
0
LINE
8
0
10
0.783
20
13.592
11
0.897
21
13.592
0
0
LINE
8
0
10
0.897
20
13.592
11
2.256
21
13.592
0
0
LINE
8
0
10
2.256
20
13.592
11
2.284
21
13.592
0
0
LINE
8
0
10
2.284
20
13.592
11
2.556
21
13.592
0
0
LINE
8
0
10
2.556
20
13.592
11
2.697
21
13.592
0
0
LINE
8
0
10
2.697
20
13.592
11
4.056
21
13.592
0
0
LINE
8
0
10
4.056
20
13.592
11
4.084
21
13.592
0
0
LINE
8
0
10
4.084
20
13.592
11
4.356
21
13.592
0
0
LINE
8
0
10
4.356
20
13.592
11
4.497
21
13.592
0
0
LINE
8
0
10
4.497
20
13.592
11
5.856
21
13.592
0
0
LINE
8
0
10
5.856
20
13.592
11
5.884
21
13.592
0
0
LINE
8
0
10
5.884
20
13.592
11
6.156
21
13.592
0
0
LINE
8
0
10
6.156
20
13.592
11
6.297
21
13.592
0
0
LINE
8
0
10
6.297
20
13.592
11
7.656
21
13.592
0
0
LINE
8
0
10
7.656
20
13.592
11
7.684
21
13.592
0
0
LINE
8
0
10
7.684
20
13.592
11
7.956
21
13.592
0
0
LINE
8
0
10
7.956
20
13.592
11
8.097
21
13.592
0
0
LINE
8
0
10
8.097
20
13.592
11
9.456
21
13.592
0
0
LINE
8
0
10
9.456
20
13.592
11
9.484
21
13.592
0
0
LINE
8
0
10
9.484
20
13.592
11
9.756
21
13.592
0
0
LINE
8
0
10
9.756
20
13.592
11
9.897
21
13.592
0
0
LINE
8
0
10
9.897
20
13.592
11
11.256
21
13.592
0
0
LINE
8
0
10
11.256
20
13.592
11
11.284
21
13.592
0
0
LINE
8
0
10
11.284
20
13.592
11
11.556
21
13.592
0
0
LINE
8
0
10
11.556
20
13.592
11
11.697
21
13.592
0
0
LINE
8
0
10
11.697
20
13.592
11
13.056
21
13.592
0
0
LINE
8
0
10
13.056
20
13.592
11
13.084
21
13.592
0
0
LINE
8
0
10
13.084
20
13.592
11
13.356
21
13.592
0
0
LINE
8
0
10
13.356
20
13.592
11
13.497
21
13.592
0
0
LINE
8
0
10
13.497
20
13.592
11
14.598
21
13.592
0
0
LINE
8
0
10
14.598
20
13.592
11
14.626
21
13.592
0
0
LINE
8
0
10
0.654
20
14.092
11
0.926
21
14.092
0
0
LINE
8
0
10
0.654
20
14.092
11
0.926
21
14.092
0
0
LINE
8
0
10
0.926
20
14.092
11
1.026
21
14.092
0
0
LINE
8
0
10
1.026
20
14.092
11
2.386
21
14.092
0
0
LINE
8
0
10
2.386
20
14.092
11
2.414
21
14.092
0
0
LINE
8
0
10
2.414
20
14.092
11
2.686
21
14.092
0
0
LINE
8
0
10
2.686
20
14.092
11
2.826
21
14.092
0
0
LINE
8
0
10
2.826
20
14.092
11
4.186
21
14.092
0
0
LINE
8
0
10
4.186
20
14.092
11
4.214
21
14.092
0
0
LINE
8
0
10
4.214
20
14.092
11
4.486
21
14.092
0
0
LINE
8
0
10
4.486
20
14.092
11
4.626
21
14.092
0
0
LINE
8
0
10
4.626
20
14.092
11
5.986
21
14.092
0
0
LINE
8
0
10
5.986
20
14.092
11
6.014
21
14.092
0
0
LINE
8
0
10
6.014
20
14.092
11
6.286
21
14.092
0
0
LINE
8
0
10
6.286
20
14.092
11
6.426
21
14.092
0
0
LINE
8
0
10
6.426
20
14.092
11
7.786
21
14.092
0
0
LINE
8
0
10
7.786
20
14.092
11
7.814
21
14.092
0
0
LINE
8
0
10
7.814
20
14.092
11
8.086
21
14.092
0
0
LINE
8
0
10
8.086
20
14.092
11
8.226
21
14.092
0
0
LINE
8
0
10
8.226
20
14.092
11
9.586
21
14.092
0
0
LINE
8
0
10
9.586
20
14.092
11
9.614
21
14.092
0
0
LINE
8
0
10
9.614
20
14.092
11
9.886
21
14.092
0
0
LINE
8
0
10
9.886
20
14.092
11
10.026
21
14.092
0
0
LINE
8
0
10
10.026
20
14.092
11
11.386
21
14.092
0
0
LINE
8
0
10
11.386
20
14.092
11
11.414
21
14.092
0
0
LINE
8
0
10
11.414
20
14.092
11
11.686
21
14.092
0
0
LINE
8
0
10
11.686
20
14.092
11
11.826
21
14.092
0
0
LINE
8
0
10
11.826
20
14.092
11
13.186
21
14.092
0
0
LINE
8
0
10
13.186
20
14.092
11
13.214
21
14.092
0
0
LINE
8
0
10
13.214
20
14.092
11
13.486
21
14.092
0
0
LINE
8
0
10
13.486
20
14.092
11
13.626
21
14.092
0
0
LINE
8
0
10
13.626
20
14.092
11
14.598
21
14.092
0
0
LINE
8
0
10
14.598
20
14.092
11
14.626
21
14.092
0
0
LINE
8
0
10
1.221
20
14.592
11
1.493
21
14.592
0
0
LINE
8
0
10
1.221
20
14.592
11
1.493
21
14.592
0
0
LINE
8
0
10
1.493
20
14.592
11
1.540
21
14.592
0
0
LINE
8
0
10
1.540
20
14.592
11
1.568
21
14.592
0
0
LINE
8
0
10
1.568
20
14.592
11
2.928
21
14.592
0
0
LINE
8
0
10
2.928
20
14.592
11
3.068
21
14.592
0
0
LINE
8
0
10
3.068
20
14.592
11
3.340
21
14.592
0
0
LINE
8
0
10
3.340
20
14.592
11
3.368
21
14.592
0
0
LINE
8
0
10
3.368
20
14.592
11
4.728
21
14.592
0
0
LINE
8
0
10
4.728
20
14.592
11
4.868
21
14.592
0
0
LINE
8
0
10
4.868
20
14.592
11
5.140
21
14.592
0
0
LINE
8
0
10
5.140
20
14.592
11
5.168
21
14.592
0
0
LINE
8
0
10
5.168
20
14.592
11
5.937
21
14.592
0
0
LINE
8
0
10
5.937
20
14.592
11
6.209
21
14.592
0
0
LINE
8
0
10
6.209
20
14.592
11
6.349
21
14.592
0
0
LINE
8
0
10
6.349
20
14.592
11
7.709
21
14.592
0
0
LINE
8
0
10
7.709
20
14.592
11
7.737
21
14.592
0
0
LINE
8
0
10
7.737
20
14.592
11
8.009
21
14.592
0
0
LINE
8
0
10
8.009
20
14.592
11
8.149
21
14.592
0
0
LINE
8
0
10
8.149
20
14.592
11
9.509
21
14.592
0
0
LINE
8
0
10
9.509
20
14.592
11
9.537
21
14.592
0
0
LINE
8
0
10
9.537
20
14.592
11
9.809
21
14.592
0
0
LINE
8
0
10
9.809
20
14.592
11
9.949
21
14.592
0
0
LINE
8
0
10
9.949
20
14.592
11
11.309
21
14.592
0
0
LINE
8
0
10
11.309
20
14.592
11
11.337
21
14.592
0
0
LINE
8
0
10
11.337
20
14.592
11
11.609
21
14.592
0
0
LINE
8
0
10
11.609
20
14.592
11
11.749
21
14.592
0
0
LINE
8
0
10
11.749
20
14.592
11
13.109
21
14.592
0
0
LINE
8
0
10
13.109
20
14.592
11
13.137
21
14.592
0
0
LINE
8
0
10
13.137
20
14.592
11
13.409
21
14.592
0
0
LINE
8
0
10
13.409
20
14.592
11
13.549
21
14.592
0
0
LINE
8
0
10
13.549
20
14.592
11
14.598
21
14.592
0
0
LINE
8
0
10
14.598
20
14.592
11
14.626
21
14.592
0
0
ENDSEC
0
EOF
