0
SECTION
2
ENTITIES
0
LINE
8
0
10
14.941
20
0.059
11
0.059
21
0.059
0
0
LINE
8
0
10
0.059
20
0.059
11
0.059
21
14.941
0
0
LINE
8
0
10
0.059
20
14.941
11
14.941
21
14.941
0
0
LINE
8
0
10
14.941
20
14.941
11
14.941
21
0.059
0
0
LINE
8
0
10
14.941
20
0.059
11
14.941
21
0.059
0
0
LINE
8
0
10
14.861
20
0.139
11
0.139
21
0.139
0
0
LINE
8
0
10
0.139
20
0.139
11
0.139
21
14.861
0
0
LINE
8
0
10
0.139
20
14.861
11
14.861
21
14.861
0
0
LINE
8
0
10
14.861
20
14.861
11
14.861
21
0.139
0
0
LINE
8
0
10
14.861
20
0.139
11
14.861
21
0.139
0
0
LINE
8
0
10
14.781
20
0.219
11
0.219
21
0.219
0
0
LINE
8
0
10
0.219
20
0.219
11
0.219
21
14.781
0
0
LINE
8
0
10
0.219
20
14.781
11
14.781
21
14.781
0
0
LINE
8
0
10
14.781
20
14.781
11
14.781
21
0.219
0
0
LINE
8
0
10
14.781
20
0.219
11
14.781
21
0.219
0
0
LINE
8
0
10
0.299
20
14.663
11
0.401
21
14.701
0
0
LINE
8
0
10
0.631
20
14.701
11
0.299
21
14.578
0
0
LINE
8
0
10
0.299
20
14.492
11
0.860
21
14.701
0
0
LINE
8
0
10
1.090
20
14.701
11
0.299
21
14.407
0
0
LINE
8
0
10
0.299
20
14.322
11
1.319
21
14.701
0
0
LINE
8
0
10
1.549
20
14.701
11
0.299
21
14.236
0
0
LINE
8
0
10
0.299
20
14.151
11
1.778
21
14.701
0
0
LINE
8
0
10
2.008
20
14.701
11
0.299
21
14.065
0
0
LINE
8
0
10
0.299
20
13.980
11
2.237
21
14.701
0
0
LINE
8
0
10
2.467
20
14.701
11
0.299
21
13.895
0
0
LINE
8
0
10
0.299
20
13.809
11
2.696
21
14.701
0
0
LINE
8
0
10
2.926
20
14.701
11
0.299
21
13.724
0
0
LINE
8
0
10
0.299
20
13.639
11
3.155
21
14.701
0
0
LINE
8
0
10
3.385
20
14.701
11
0.299
21
13.553
0
0
LINE
8
0
10
0.299
20
13.468
11
3.614
21
14.701
0
0
LINE
8
0
10
3.844
20
14.701
11
0.299
21
13.383
0
0
LINE
8
0
10
0.299
20
13.297
11
4.073
21
14.701
0
0
LINE
8
0
10
4.303
20
14.701
11
0.299
21
13.212
0
0
LINE
8
0
10
0.299
20
13.127
11
4.533
21
14.701
0
0
LINE
8
0
10
4.762
20
14.701
11
0.299
21
13.041
0
0
LINE
8
0
10
0.299
20
12.956
11
4.992
21
14.701
0
0
LINE
8
0
10
5.221
20
14.701
11
0.299
21
12.871
0
0
LINE
8
0
10
0.299
20
12.785
11
5.451
21
14.701
0
0
LINE
8
0
10
5.680
20
14.701
11
0.299
21
12.700
0
0
LINE
8
0
10
0.299
20
12.614
11
5.910
21
14.701
0
0
LINE
8
0
10
6.139
20
14.701
11
0.299
21
12.529
0
0
LINE
8
0
10
0.299
20
12.444
11
6.369
21
14.701
0
0
LINE
8
0
10
6.598
20
14.701
11
0.299
21
12.358
0
0
LINE
8
0
10
0.299
20
12.273
11
6.828
21
14.701
0
0
LINE
8
0
10
7.057
20
14.701
11
0.299
21
12.188
0
0
LINE
8
0
10
0.299
20
12.102
11
7.287
21
14.701
0
0
LINE
8
0
10
7.516
20
14.701
11
0.299
21
12.017
0
0
LINE
8
0
10
0.299
20
11.932
11
7.746
21
14.701
0
0
LINE
8
0
10
7.975
20
14.701
11
0.299
21
11.846
0
0
LINE
8
0
10
0.299
20
11.761
11
8.205
21
14.701
0
0
LINE
8
0
10
8.434
20
14.701
11
0.299
21
11.676
0
0
LINE
8
0
10
0.299
20
11.590
11
8.664
21
14.701
0
0
LINE
8
0
10
8.893
20
14.701
11
0.299
21
11.505
0
0
LINE
8
0
10
0.299
20
11.420
11
9.123
21
14.701
0
0
LINE
8
0
10
9.352
20
14.701
11
0.299
21
11.334
0
0
LINE
8
0
10
0.299
20
11.249
11
9.582
21
14.701
0
0
LINE
8
0
10
9.811
20
14.701
11
0.299
21
11.163
0
0
LINE
8
0
10
0.299
20
11.078
11
10.041
21
14.701
0
0
LINE
8
0
10
10.270
20
14.701
11
0.299
21
10.993
0
0
LINE
8
0
10
0.299
20
10.907
11
10.500
21
14.701
0
0
LINE
8
0
10
10.729
20
14.701
11
0.299
21
10.822
0
0
LINE
8
0
10
0.299
20
10.737
11
10.959
21
14.701
0
0
LINE
8
0
10
11.188
20
14.701
11
0.299
21
10.651
0
0
LINE
8
0
10
0.299
20
10.566
11
11.418
21
14.701
0
0
LINE
8
0
10
11.647
20
14.701
11
0.299
21
10.481
0
0
LINE
8
0
10
0.299
20
10.395
11
11.877
21
14.701
0
0
LINE
8
0
10
12.106
20
14.701
11
0.299
21
10.310
0
0
LINE
8
0
10
0.299
20
10.225
11
12.336
21
14.701
0
0
LINE
8
0
10
12.565
20
14.701
11
0.299
21
10.139
0
0
LINE
8
0
10
0.299
20
10.054
11
12.795
21
14.701
0
0
LINE
8
0
10
13.024
20
14.701
11
0.299
21
9.969
0
0
LINE
8
0
10
0.299
20
9.883
11
13.254
21
14.701
0
0
LINE
8
0
10
13.483
20
14.701
11
0.299
21
9.798
0
0
LINE
8
0
10
0.299
20
9.712
11
13.713
21
14.701
0
0
LINE
8
0
10
13.942
20
14.701
11
0.299
21
9.627
0
0
LINE
8
0
10
0.299
20
9.542
11
14.172
21
14.701
0
0
LINE
8
0
10
14.401
20
14.701
11
0.299
21
9.456
0
0
LINE
8
0
10
0.299
20
9.371
11
14.631
21
14.701
0
0
LINE
8
0
10
14.701
20
14.642
11
0.299
21
9.286
0
0
LINE
8
0
10
0.299
20
9.200
11
14.701
21
14.556
0
0
LINE
8
0
10
14.701
20
14.471
11
0.299
21
9.115
0
0
LINE
8
0
10
0.299
20
9.030
11
14.701
21
14.386
0
0
LINE
8
0
10
14.701
20
14.300
11
0.299
21
8.944
0
0
LINE
8
0
10
0.299
20
8.859
11
14.701
21
14.215
0
0
LINE
8
0
10
14.701
20
14.130
11
0.299
21
8.774
0
0
LINE
8
0
10
0.299
20
8.688
11
14.701
21
14.044
0
0
LINE
8
0
10
14.701
20
13.959
11
0.299
21
8.603
0
0
LINE
8
0
10
0.299
20
8.518
11
14.701
21
13.874
0
0
LINE
8
0
10
14.701
20
13.788
11
0.299
21
8.432
0
0
LINE
8
0
10
0.299
20
8.347
11
14.701
21
13.703
0
0
LINE
8
0
10
14.701
20
13.617
11
0.299
21
8.261
0
0
LINE
8
0
10
0.299
20
8.176
11
14.701
21
13.532
0
0
LINE
8
0
10
14.701
20
13.447
11
0.299
21
8.091
0
0
LINE
8
0
10
0.299
20
8.005
11
14.701
21
13.361
0
0
LINE
8
0
10
14.701
20
13.276
11
0.299
21
7.920
0
0
LINE
8
0
10
0.299
20
7.835
11
14.701
21
13.191
0
0
LINE
8
0
10
14.701
20
13.105
11
0.299
21
7.749
0
0
LINE
8
0
10
0.299
20
7.664
11
14.701
21
13.020
0
0
LINE
8
0
10
14.701
20
12.935
11
0.299
21
7.579
0
0
LINE
8
0
10
0.299
20
7.493
11
14.701
21
12.849
0
0
LINE
8
0
10
14.701
20
12.764
11
0.299
21
7.408
0
0
LINE
8
0
10
0.299
20
7.323
11
14.701
21
12.679
0
0
LINE
8
0
10
14.701
20
12.593
11
0.299
21
7.237
0
0
LINE
8
0
10
0.299
20
7.152
11
14.701
21
12.508
0
0
LINE
8
0
10
14.701
20
12.423
11
0.299
21
7.066
0
0
LINE
8
0
10
0.299
20
6.981
11
14.701
21
12.337
0
0
LINE
8
0
10
14.701
20
12.252
11
0.299
21
6.896
0
0
LINE
8
0
10
0.299
20
6.810
11
14.701
21
12.166
0
0
LINE
8
0
10
14.701
20
12.081
11
0.299
21
6.725
0
0
LINE
8
0
10
0.299
20
6.640
11
14.701
21
11.996
0
0
LINE
8
0
10
14.701
20
11.910
11
0.299
21
6.554
0
0
LINE
8
0
10
0.299
20
6.469
11
14.701
21
11.825
0
0
LINE
8
0
10
14.701
20
11.740
11
0.299
21
6.384
0
0
LINE
8
0
10
0.299
20
6.298
11
14.701
21
11.654
0
0
LINE
8
0
10
14.701
20
11.569
11
0.299
21
6.213
0
0
LINE
8
0
10
0.299
20
6.128
11
14.701
21
11.484
0
0
LINE
8
0
10
14.701
20
11.398
11
0.299
21
6.042
0
0
LINE
8
0
10
0.299
20
5.957
11
14.701
21
11.313
0
0
LINE
8
0
10
14.701
20
11.228
11
0.299
21
5.872
0
0
LINE
8
0
10
0.299
20
5.786
11
14.701
21
11.142
0
0
LINE
8
0
10
14.701
20
11.057
11
0.299
21
5.701
0
0
LINE
8
0
10
0.299
20
5.615
11
14.701
21
10.972
0
0
LINE
8
0
10
14.701
20
10.886
11
0.299
21
5.530
0
0
LINE
8
0
10
0.299
20
5.445
11
14.701
21
10.801
0
0
LINE
8
0
10
14.701
20
10.716
11
0.299
21
5.359
0
0
LINE
8
0
10
0.299
20
5.274
11
14.701
21
10.630
0
0
LINE
8
0
10
14.701
20
10.545
11
0.299
21
5.189
0
0
LINE
8
0
10
0.299
20
5.103
11
14.701
21
10.459
0
0
LINE
8
0
10
14.701
20
10.374
11
0.299
21
5.018
0
0
LINE
8
0
10
0.299
20
4.933
11
14.701
21
10.289
0
0
LINE
8
0
10
14.701
20
10.203
11
0.299
21
4.847
0
0
LINE
8
0
10
0.299
20
4.762
11
14.701
21
10.118
0
0
LINE
8
0
10
14.701
20
10.033
11
0.299
21
4.677
0
0
LINE
8
0
10
0.299
20
4.591
11
14.701
21
9.947
0
0
LINE
8
0
10
14.701
20
9.862
11
0.299
21
4.506
0
0
LINE
8
0
10
0.299
20
4.421
11
14.701
21
9.777
0
0
LINE
8
0
10
14.701
20
9.691
11
0.299
21
4.335
0
0
LINE
8
0
10
0.299
20
4.250
11
14.701
21
9.606
0
0
LINE
8
0
10
14.701
20
9.521
11
0.299
21
4.164
0
0
LINE
8
0
10
0.299
20
4.079
11
14.701
21
9.435
0
0
LINE
8
0
10
14.701
20
9.350
11
0.299
21
3.994
0
0
LINE
8
0
10
0.299
20
3.908
11
14.701
21
9.264
0
0
LINE
8
0
10
14.701
20
9.179
11
0.299
21
3.823
0
0
LINE
8
0
10
0.299
20
3.738
11
14.701
21
9.094
0
0
LINE
8
0
10
14.701
20
9.008
11
0.299
21
3.652
0
0
LINE
8
0
10
0.299
20
3.567
11
14.701
21
8.923
0
0
LINE
8
0
10
14.701
20
8.838
11
0.299
21
3.482
0
0
LINE
8
0
10
0.299
20
3.396
11
14.701
21
8.752
0
0
LINE
8
0
10
14.701
20
8.667
11
0.299
21
3.311
0
0
LINE
8
0
10
0.299
20
3.226
11
14.701
21
8.582
0
0
LINE
8
0
10
14.701
20
8.496
11
0.299
21
3.140
0
0
LINE
8
0
10
0.299
20
3.055
11
14.701
21
8.411
0
0
LINE
8
0
10
14.701
20
8.326
11
0.299
21
2.970
0
0
LINE
8
0
10
0.299
20
2.884
11
14.701
21
8.240
0
0
LINE
8
0
10
14.701
20
8.155
11
0.299
21
2.799
0
0
LINE
8
0
10
0.299
20
2.713
11
14.701
21
8.070
0
0
LINE
8
0
10
14.701
20
7.984
11
0.299
21
2.628
0
0
LINE
8
0
10
0.299
20
2.543
11
14.701
21
7.899
0
0
LINE
8
0
10
14.701
20
7.813
11
0.299
21
2.457
0
0
LINE
8
0
10
0.299
20
2.372
11
14.701
21
7.728
0
0
LINE
8
0
10
14.701
20
7.643
11
0.299
21
2.287
0
0
LINE
8
0
10
0.299
20
2.201
11
14.701
21
7.557
0
0
LINE
8
0
10
14.701
20
7.472
11
0.299
21
2.116
0
0
LINE
8
0
10
0.299
20
2.031
11
14.701
21
7.387
0
0
LINE
8
0
10
14.701
20
7.301
11
0.299
21
1.945
0
0
LINE
8
0
10
0.299
20
1.860
11
14.701
21
7.216
0
0
LINE
8
0
10
14.701
20
7.131
11
0.299
21
1.775
0
0
LINE
8
0
10
0.299
20
1.689
11
14.701
21
7.045
0
0
LINE
8
0
10
14.701
20
6.960
11
0.299
21
1.604
0
0
LINE
8
0
10
0.299
20
1.519
11
14.701
21
6.875
0
0
LINE
8
0
10
14.701
20
6.789
11
0.299
21
1.433
0
0
LINE
8
0
10
0.299
20
1.348
11
14.701
21
6.704
0
0
LINE
8
0
10
14.701
20
6.619
11
0.299
21
1.262
0
0
LINE
8
0
10
0.299
20
1.177
11
14.701
21
6.533
0
0
LINE
8
0
10
14.701
20
6.448
11
0.299
21
1.092
0
0
LINE
8
0
10
0.299
20
1.006
11
14.701
21
6.362
0
0
LINE
8
0
10
14.701
20
6.277
11
0.299
21
0.921
0
0
LINE
8
0
10
0.299
20
0.836
11
14.701
21
6.192
0
0
LINE
8
0
10
14.701
20
6.106
11
0.299
21
0.750
0
0
LINE
8
0
10
0.299
20
0.665
11
14.701
21
6.021
0
0
LINE
8
0
10
14.701
20
5.936
11
0.299
21
0.580
0
0
LINE
8
0
10
0.299
20
0.494
11
14.701
21
5.850
0
0
LINE
8
0
10
14.701
20
5.765
11
0.299
21
0.409
0
0
LINE
8
0
10
0.299
20
0.324
11
14.701
21
5.680
0
0
LINE
8
0
10
14.701
20
5.594
11
0.462
21
0.299
0
0
LINE
8
0
10
0.692
20
0.299
11
14.701
21
5.509
0
0
LINE
8
0
10
14.701
20
5.424
11
0.921
21
0.299
0
0
LINE
8
0
10
1.151
20
0.299
11
14.701
21
5.338
0
0
LINE
8
0
10
14.701
20
5.253
11
1.380
21
0.299
0
0
LINE
8
0
10
1.610
20
0.299
11
14.701
21
5.168
0
0
LINE
8
0
10
14.701
20
5.082
11
1.839
21
0.299
0
0
LINE
8
0
10
2.069
20
0.299
11
14.701
21
4.997
0
0
LINE
8
0
10
14.701
20
4.911
11
2.298
21
0.299
0
0
LINE
8
0
10
2.528
20
0.299
11
14.701
21
4.826
0
0
LINE
8
0
10
14.701
20
4.741
11
2.757
21
0.299
0
0
LINE
8
0
10
2.987
20
0.299
11
14.701
21
4.655
0
0
LINE
8
0
10
14.701
20
4.570
11
3.216
21
0.299
0
0
LINE
8
0
10
3.446
20
0.299
11
14.701
21
4.485
0
0
LINE
8
0
10
14.701
20
4.399
11
3.675
21
0.299
0
0
LINE
8
0
10
3.905
20
0.299
11
14.701
21
4.314
0
0
LINE
8
0
10
14.701
20
4.229
11
4.134
21
0.299
0
0
LINE
8
0
10
4.364
20
0.299
11
14.701
21
4.143
0
0
LINE
8
0
10
14.701
20
4.058
11
4.593
21
0.299
0
0
LINE
8
0
10
4.823
20
0.299
11
14.701
21
3.973
0
0
LINE
8
0
10
14.701
20
3.887
11
5.052
21
0.299
0
0
LINE
8
0
10
5.282
20
0.299
11
14.701
21
3.802
0
0
LINE
8
0
10
14.701
20
3.717
11
5.512
21
0.299
0
0
LINE
8
0
10
5.741
20
0.299
11
14.701
21
3.631
0
0
LINE
8
0
10
14.701
20
3.546
11
5.971
21
0.299
0
0
LINE
8
0
10
6.200
20
0.299
11
14.701
21
3.460
0
0
LINE
8
0
10
14.701
20
3.375
11
6.430
21
0.299
0
0
LINE
8
0
10
6.659
20
0.299
11
14.701
21
3.290
0
0
LINE
8
0
10
14.701
20
3.204
11
6.889
21
0.299
0
0
LINE
8
0
10
7.118
20
0.299
11
14.701
21
3.119
0
0
LINE
8
0
10
14.701
20
3.034
11
7.348
21
0.299
0
0
LINE
8
0
10
7.577
20
0.299
11
14.701
21
2.948
0
0
LINE
8
0
10
14.701
20
2.863
11
7.807
21
0.299
0
0
LINE
8
0
10
8.036
20
0.299
11
14.701
21
2.778
0
0
LINE
8
0
10
14.701
20
2.692
11
8.266
21
0.299
0
0
LINE
8
0
10
8.495
20
0.299
11
14.701
21
2.607
0
0
LINE
8
0
10
14.701
20
2.522
11
8.725
21
0.299
0
0
LINE
8
0
10
8.954
20
0.299
11
14.701
21
2.436
0
0
LINE
8
0
10
14.701
20
2.351
11
9.184
21
0.299
0
0
LINE
8
0
10
9.413
20
0.299
11
14.701
21
2.266
0
0
LINE
8
0
10
14.701
20
2.180
11
9.643
21
0.299
0
0
LINE
8
0
10
9.872
20
0.299
11
14.701
21
2.095
0
0
LINE
8
0
10
14.701
20
2.009
11
10.102
21
0.299
0
0
LINE
8
0
10
10.331
20
0.299
11
14.701
21
1.924
0
0
LINE
8
0
10
14.701
20
1.839
11
10.561
21
0.299
0
0
LINE
8
0
10
10.790
20
0.299
11
14.701
21
1.753
0
0
LINE
8
0
10
14.701
20
1.668
11
11.020
21
0.299
0
0
LINE
8
0
10
11.249
20
0.299
11
14.701
21
1.583
0
0
LINE
8
0
10
14.701
20
1.497
11
11.479
21
0.299
0
0
LINE
8
0
10
11.708
20
0.299
11
14.701
21
1.412
0
0
LINE
8
0
10
14.701
20
1.327
11
11.938
21
0.299
0
0
LINE
8
0
10
12.167
20
0.299
11
14.701
21
1.241
0
0
LINE
8
0
10
14.701
20
1.156
11
12.397
21
0.299
0
0
LINE
8
0
10
12.626
20
0.299
11
14.701
21
1.071
0
0
LINE
8
0
10
14.701
20
0.985
11
12.856
21
0.299
0
0
LINE
8
0
10
13.085
20
0.299
11
14.701
21
0.900
0
0
LINE
8
0
10
14.701
20
0.815
11
13.315
21
0.299
0
0
LINE
8
0
10
13.544
20
0.299
11
14.701
21
0.729
0
0
LINE
8
0
10
14.701
20
0.644
11
13.774
21
0.299
0
0
LINE
8
0
10
14.003
20
0.299
11
14.701
21
0.558
0
0
LINE
8
0
10
14.701
20
0.473
11
14.233
21
0.299
0
0
LINE
8
0
10
14.462
20
0.299
11
14.701
21
0.388
0
0
LINE
8
0
10
14.701
20
0.302
11
14.692
21
0.299
0
0
ENDSEC
0
EOF
