0
SECTION
2
ENTITIES
0
LINE
8
0
10
14.941
20
0.059
11
0.059
21
0.059
0
0
LINE
8
0
10
0.059
20
0.059
11
0.059
21
14.941
0
0
LINE
8
0
10
0.059
20
14.941
11
14.941
21
14.941
0
0
LINE
8
0
10
14.941
20
14.941
11
14.941
21
0.059
0
0
LINE
8
0
10
14.941
20
0.059
11
14.941
21
0.059
0
0
LINE
8
0
10
14.861
20
0.139
11
0.139
21
0.139
0
0
LINE
8
0
10
0.139
20
0.139
11
0.139
21
14.861
0
0
LINE
8
0
10
0.139
20
14.861
11
14.861
21
14.861
0
0
LINE
8
0
10
14.861
20
14.861
11
14.861
21
0.139
0
0
LINE
8
0
10
14.861
20
0.139
11
14.861
21
0.139
0
0
LINE
8
0
10
14.781
20
0.219
11
0.219
21
0.219
0
0
LINE
8
0
10
0.219
20
0.219
11
0.219
21
14.781
0
0
LINE
8
0
10
0.219
20
14.781
11
14.781
21
14.781
0
0
LINE
8
0
10
14.781
20
14.781
11
14.781
21
0.219
0
0
LINE
8
0
10
14.781
20
0.219
11
14.781
21
0.219
0
0
LINE
8
0
10
0.299
20
14.678
11
0.357
21
14.701
0
0
LINE
8
0
10
0.577
20
14.701
11
0.299
21
14.592
0
0
LINE
8
0
10
0.299
20
14.507
11
0.798
21
14.701
0
0
LINE
8
0
10
1.018
20
14.701
11
0.299
21
14.421
0
0
LINE
8
0
10
0.299
20
14.335
11
1.238
21
14.701
0
0
LINE
8
0
10
1.458
20
14.701
11
0.299
21
14.249
0
0
LINE
8
0
10
0.299
20
14.163
11
1.679
21
14.701
0
0
LINE
8
0
10
1.899
20
14.701
11
0.299
21
14.077
0
0
LINE
8
0
10
0.299
20
13.991
11
2.119
21
14.701
0
0
LINE
8
0
10
2.339
20
14.701
11
0.299
21
13.906
0
0
LINE
8
0
10
0.299
20
13.820
11
2.559
21
14.701
0
0
LINE
8
0
10
2.780
20
14.701
11
0.299
21
13.734
0
0
LINE
8
0
10
0.299
20
13.648
11
3.000
21
14.701
0
0
LINE
8
0
10
3.220
20
14.701
11
0.299
21
13.562
0
0
LINE
8
0
10
0.299
20
13.476
11
3.440
21
14.701
0
0
LINE
8
0
10
3.661
20
14.701
11
0.299
21
13.390
0
0
LINE
8
0
10
0.299
20
13.304
11
3.881
21
14.701
0
0
LINE
8
0
10
4.101
20
14.701
11
0.299
21
13.219
0
0
LINE
8
0
10
0.299
20
13.133
11
4.321
21
14.701
0
0
LINE
8
0
10
4.542
20
14.701
11
0.299
21
13.047
0
0
LINE
8
0
10
0.299
20
12.961
11
4.762
21
14.701
0
0
LINE
8
0
10
4.982
20
14.701
11
0.299
21
12.875
0
0
LINE
8
0
10
0.299
20
12.789
11
5.202
21
14.701
0
0
LINE
8
0
10
5.423
20
14.701
11
0.299
21
12.703
0
0
LINE
8
0
10
0.299
20
12.618
11
5.643
21
14.701
0
0
LINE
8
0
10
5.863
20
14.701
11
0.299
21
12.532
0
0
LINE
8
0
10
0.299
20
12.446
11
6.083
21
14.701
0
0
LINE
8
0
10
6.303
20
14.701
11
0.299
21
12.360
0
0
LINE
8
0
10
0.299
20
12.274
11
6.524
21
14.701
0
0
LINE
8
0
10
6.744
20
14.701
11
0.299
21
12.188
0
0
LINE
8
0
10
0.299
20
12.102
11
6.964
21
14.701
0
0
LINE
8
0
10
7.184
20
14.701
11
0.299
21
12.016
0
0
LINE
8
0
10
0.299
20
11.931
11
7.405
21
14.701
0
0
LINE
8
0
10
7.625
20
14.701
11
0.299
21
11.845
0
0
LINE
8
0
10
0.299
20
11.759
11
7.845
21
14.701
0
0
LINE
8
0
10
8.065
20
14.701
11
0.299
21
11.673
0
0
LINE
8
0
10
0.299
20
11.587
11
8.286
21
14.701
0
0
LINE
8
0
10
8.506
20
14.701
11
0.299
21
11.501
0
0
LINE
8
0
10
0.299
20
11.415
11
8.726
21
14.701
0
0
LINE
8
0
10
8.946
20
14.701
11
0.299
21
11.330
0
0
LINE
8
0
10
0.299
20
11.244
11
9.166
21
14.701
0
0
LINE
8
0
10
9.387
20
14.701
11
0.299
21
11.158
0
0
LINE
8
0
10
0.299
20
11.072
11
9.607
21
14.701
0
0
LINE
8
0
10
9.827
20
14.701
11
0.299
21
10.986
0
0
LINE
8
0
10
0.299
20
10.900
11
10.047
21
14.701
0
0
LINE
8
0
10
10.268
20
14.701
11
0.299
21
10.814
0
0
LINE
8
0
10
0.299
20
10.729
11
10.488
21
14.701
0
0
LINE
8
0
10
10.708
20
14.701
11
0.299
21
10.643
0
0
LINE
8
0
10
0.299
20
10.557
11
10.928
21
14.701
0
0
LINE
8
0
10
11.149
20
14.701
11
0.299
21
10.471
0
0
LINE
8
0
10
0.299
20
10.385
11
11.369
21
14.701
0
0
LINE
8
0
10
11.589
20
14.701
11
0.299
21
10.299
0
0
LINE
8
0
10
0.299
20
10.213
11
11.809
21
14.701
0
0
LINE
8
0
10
12.030
20
14.701
11
0.299
21
10.127
0
0
LINE
8
0
10
0.299
20
10.042
11
12.250
21
14.701
0
0
LINE
8
0
10
12.470
20
14.701
11
0.299
21
9.956
0
0
LINE
8
0
10
0.299
20
9.870
11
12.690
21
14.701
0
0
LINE
8
0
10
12.910
20
14.701
11
0.299
21
9.784
0
0
LINE
8
0
10
0.299
20
9.698
11
13.131
21
14.701
0
0
LINE
8
0
10
13.351
20
14.701
11
0.299
21
9.612
0
0
LINE
8
0
10
0.299
20
9.526
11
13.571
21
14.701
0
0
LINE
8
0
10
13.791
20
14.701
11
0.299
21
9.441
0
0
LINE
8
0
10
0.299
20
9.355
11
14.012
21
14.701
0
0
LINE
8
0
10
14.232
20
14.701
11
0.299
21
9.269
0
0
LINE
8
0
10
0.299
20
9.183
11
14.452
21
14.701
0
0
LINE
8
0
10
14.672
20
14.701
11
0.299
21
9.097
0
0
LINE
8
0
10
0.299
20
9.011
11
14.701
21
14.626
0
0
LINE
8
0
10
14.701
20
14.540
11
0.299
21
8.925
0
0
LINE
8
0
10
0.299
20
8.839
11
14.701
21
14.455
0
0
LINE
8
0
10
14.701
20
14.369
11
0.299
21
8.754
0
0
LINE
8
0
10
0.299
20
8.668
11
14.701
21
14.283
0
0
LINE
8
0
10
14.701
20
14.197
11
0.299
21
8.582
0
0
LINE
8
0
10
0.299
20
8.496
11
14.701
21
14.111
0
0
LINE
8
0
10
14.701
20
14.025
11
0.299
21
8.410
0
0
LINE
8
0
10
0.299
20
8.324
11
14.701
21
13.939
0
0
LINE
8
0
10
14.701
20
13.854
11
0.299
21
8.238
0
0
LINE
8
0
10
0.299
20
8.153
11
14.701
21
13.768
0
0
LINE
8
0
10
14.701
20
13.682
11
0.299
21
8.067
0
0
LINE
8
0
10
0.299
20
7.981
11
14.701
21
13.596
0
0
LINE
8
0
10
14.701
20
13.510
11
0.299
21
7.895
0
0
LINE
8
0
10
0.299
20
7.809
11
14.701
21
13.424
0
0
LINE
8
0
10
14.701
20
13.338
11
0.299
21
7.723
0
0
LINE
8
0
10
0.299
20
7.637
11
14.701
21
13.252
0
0
LINE
8
0
10
14.701
20
13.167
11
0.299
21
7.551
0
0
LINE
8
0
10
0.299
20
7.466
11
14.701
21
13.081
0
0
LINE
8
0
10
14.701
20
12.995
11
0.299
21
7.380
0
0
LINE
8
0
10
0.299
20
7.294
11
14.701
21
12.909
0
0
LINE
8
0
10
14.701
20
12.823
11
0.299
21
7.208
0
0
LINE
8
0
10
0.299
20
7.122
11
14.701
21
12.737
0
0
LINE
8
0
10
14.701
20
12.651
11
0.299
21
7.036
0
0
LINE
8
0
10
0.299
20
6.950
11
14.701
21
12.566
0
0
LINE
8
0
10
14.701
20
12.480
11
0.299
21
6.865
0
0
LINE
8
0
10
0.299
20
6.779
11
14.701
21
12.394
0
0
LINE
8
0
10
14.701
20
12.308
11
0.299
21
6.693
0
0
LINE
8
0
10
0.299
20
6.607
11
14.701
21
12.222
0
0
LINE
8
0
10
14.701
20
12.136
11
0.299
21
6.521
0
0
LINE
8
0
10
0.299
20
6.435
11
14.701
21
12.050
0
0
LINE
8
0
10
14.701
20
11.964
11
0.299
21
6.349
0
0
LINE
8
0
10
0.299
20
6.264
11
14.701
21
11.879
0
0
LINE
8
0
10
14.701
20
11.793
11
0.299
21
6.178
0
0
LINE
8
0
10
0.299
20
6.092
11
14.701
21
11.707
0
0
LINE
8
0
10
14.701
20
11.621
11
0.299
21
6.006
0
0
LINE
8
0
10
0.299
20
5.920
11
14.701
21
11.535
0
0
LINE
8
0
10
14.701
20
11.449
11
0.299
21
5.834
0
0
LINE
8
0
10
0.299
20
5.748
11
14.701
21
11.363
0
0
LINE
8
0
10
14.701
20
11.278
11
0.299
21
5.662
0
0
LINE
8
0
10
0.299
20
5.577
11
14.701
21
11.192
0
0
LINE
8
0
10
14.701
20
11.106
11
0.299
21
5.491
0
0
LINE
8
0
10
0.299
20
5.405
11
14.701
21
11.020
0
0
LINE
8
0
10
14.701
20
10.934
11
0.299
21
5.319
0
0
LINE
8
0
10
0.299
20
5.233
11
14.701
21
10.848
0
0
LINE
8
0
10
14.701
20
10.762
11
0.299
21
5.147
0
0
LINE
8
0
10
0.299
20
5.061
11
14.701
21
10.677
0
0
LINE
8
0
10
14.701
20
10.591
11
0.299
21
4.976
0
0
LINE
8
0
10
0.299
20
4.890
11
14.701
21
10.505
0
0
LINE
8
0
10
14.701
20
10.419
11
0.299
21
4.804
0
0
LINE
8
0
10
0.299
20
4.718
11
14.701
21
10.333
0
0
LINE
8
0
10
14.701
20
10.247
11
0.299
21
4.632
0
0
LINE
8
0
10
0.299
20
4.546
11
14.701
21
10.161
0
0
LINE
8
0
10
14.701
20
10.075
11
0.299
21
4.460
0
0
LINE
8
0
10
0.299
20
4.374
11
14.701
21
9.990
0
0
LINE
8
0
10
14.701
20
9.904
11
0.299
21
4.289
0
0
LINE
8
0
10
0.299
20
4.203
11
14.701
21
9.818
0
0
LINE
8
0
10
14.701
20
9.732
11
0.299
21
4.117
0
0
LINE
8
0
10
0.299
20
4.031
11
14.701
21
9.646
0
0
LINE
8
0
10
14.701
20
9.560
11
0.299
21
3.945
0
0
LINE
8
0
10
0.299
20
3.859
11
14.701
21
9.474
0
0
LINE
8
0
10
14.701
20
9.389
11
0.299
21
3.773
0
0
LINE
8
0
10
0.299
20
3.688
11
14.701
21
9.303
0
0
LINE
8
0
10
14.701
20
9.217
11
0.299
21
3.602
0
0
LINE
8
0
10
0.299
20
3.516
11
14.701
21
9.131
0
0
LINE
8
0
10
14.701
20
9.045
11
0.299
21
3.430
0
0
LINE
8
0
10
0.299
20
3.344
11
14.701
21
8.959
0
0
LINE
8
0
10
14.701
20
8.873
11
0.299
21
3.258
0
0
LINE
8
0
10
0.299
20
3.172
11
14.701
21
8.787
0
0
LINE
8
0
10
14.701
20
8.702
11
0.299
21
3.087
0
0
LINE
8
0
10
0.299
20
3.001
11
14.701
21
8.616
0
0
LINE
8
0
10
14.701
20
8.530
11
0.299
21
2.915
0
0
LINE
8
0
10
0.299
20
2.829
11
14.701
21
8.444
0
0
LINE
8
0
10
14.701
20
8.358
11
0.299
21
2.743
0
0
LINE
8
0
10
0.299
20
2.657
11
14.701
21
8.272
0
0
LINE
8
0
10
14.701
20
8.186
11
0.299
21
2.571
0
0
LINE
8
0
10
0.299
20
2.485
11
14.701
21
8.101
0
0
LINE
8
0
10
14.701
20
8.015
11
0.299
21
2.400
0
0
LINE
8
0
10
0.299
20
2.314
11
14.701
21
7.929
0
0
LINE
8
0
10
14.701
20
7.843
11
0.299
21
2.228
0
0
LINE
8
0
10
0.299
20
2.142
11
14.701
21
7.757
0
0
LINE
8
0
10
14.701
20
7.671
11
0.299
21
2.056
0
0
LINE
8
0
10
0.299
20
1.970
11
14.701
21
7.585
0
0
LINE
8
0
10
14.701
20
7.500
11
0.299
21
1.884
0
0
LINE
8
0
10
0.299
20
1.799
11
14.701
21
7.414
0
0
LINE
8
0
10
14.701
20
7.328
11
0.299
21
1.713
0
0
LINE
8
0
10
0.299
20
1.627
11
14.701
21
7.242
0
0
LINE
8
0
10
14.701
20
7.156
11
0.299
21
1.541
0
0
LINE
8
0
10
0.299
20
1.455
11
14.701
21
7.070
0
0
LINE
8
0
10
14.701
20
6.984
11
0.299
21
1.369
0
0
LINE
8
0
10
0.299
20
1.283
11
14.701
21
6.898
0
0
LINE
8
0
10
14.701
20
6.813
11
0.299
21
1.197
0
0
LINE
8
0
10
0.299
20
1.112
11
14.701
21
6.727
0
0
LINE
8
0
10
14.701
20
6.641
11
0.299
21
1.026
0
0
LINE
8
0
10
0.299
20
0.940
11
14.701
21
6.555
0
0
LINE
8
0
10
14.701
20
6.469
11
0.299
21
0.854
0
0
LINE
8
0
10
0.299
20
0.768
11
14.701
21
6.383
0
0
LINE
8
0
10
14.701
20
6.297
11
0.299
21
0.682
0
0
LINE
8
0
10
0.299
20
0.596
11
14.701
21
6.212
0
0
LINE
8
0
10
14.701
20
6.126
11
0.299
21
0.511
0
0
LINE
8
0
10
0.299
20
0.425
11
14.701
21
6.040
0
0
LINE
8
0
10
14.701
20
5.954
11
0.299
21
0.339
0
0
LINE
8
0
10
0.417
20
0.299
11
14.701
21
5.868
0
0
LINE
8
0
10
14.701
20
5.782
11
0.637
21
0.299
0
0
LINE
8
0
10
0.858
20
0.299
11
14.701
21
5.696
0
0
LINE
8
0
10
14.701
20
5.610
11
1.078
21
0.299
0
0
LINE
8
0
10
1.298
20
0.299
11
14.701
21
5.525
0
0
LINE
8
0
10
14.701
20
5.439
11
1.518
21
0.299
0
0
LINE
8
0
10
1.738
20
0.299
11
14.701
21
5.353
0
0
LINE
8
0
10
14.701
20
5.267
11
1.959
21
0.299
0
0
LINE
8
0
10
2.179
20
0.299
11
14.701
21
5.181
0
0
LINE
8
0
10
14.701
20
5.095
11
2.399
21
0.299
0
0
LINE
8
0
10
2.619
20
0.299
11
14.701
21
5.009
0
0
LINE
8
0
10
14.701
20
4.924
11
2.840
21
0.299
0
0
LINE
8
0
10
3.060
20
0.299
11
14.701
21
4.838
0
0
LINE
8
0
10
14.701
20
4.752
11
3.280
21
0.299
0
0
LINE
8
0
10
3.500
20
0.299
11
14.701
21
4.666
0
0
LINE
8
0
10
14.701
20
4.580
11
3.721
21
0.299
0
0
LINE
8
0
10
3.941
20
0.299
11
14.701
21
4.494
0
0
LINE
8
0
10
14.701
20
4.408
11
4.161
21
0.299
0
0
LINE
8
0
10
4.381
20
0.299
11
14.701
21
4.322
0
0
LINE
8
0
10
14.701
20
4.237
11
4.602
21
0.299
0
0
LINE
8
0
10
4.822
20
0.299
11
14.701
21
4.151
0
0
LINE
8
0
10
14.701
20
4.065
11
5.042
21
0.299
0
0
LINE
8
0
10
5.262
20
0.299
11
14.701
21
3.979
0
0
LINE
8
0
10
14.701
20
3.893
11
5.482
21
0.299
0
0
LINE
8
0
10
5.703
20
0.299
11
14.701
21
3.807
0
0
LINE
8
0
10
14.701
20
3.721
11
5.923
21
0.299
0
0
LINE
8
0
10
6.143
20
0.299
11
14.701
21
3.636
0
0
LINE
8
0
10
14.701
20
3.550
11
6.363
21
0.299
0
0
LINE
8
0
10
6.584
20
0.299
11
14.701
21
3.464
0
0
LINE
8
0
10
14.701
20
3.378
11
6.804
21
0.299
0
0
LINE
8
0
10
7.024
20
0.299
11
14.701
21
3.292
0
0
LINE
8
0
10
14.701
20
3.206
11
7.244
21
0.299
0
0
LINE
8
0
10
7.465
20
0.299
11
14.701
21
3.120
0
0
LINE
8
0
10
14.701
20
3.034
11
7.685
21
0.299
0
0
LINE
8
0
10
7.905
20
0.299
11
14.701
21
2.949
0
0
LINE
8
0
10
14.701
20
2.863
11
8.125
21
0.299
0
0
LINE
8
0
10
8.345
20
0.299
11
14.701
21
2.777
0
0
LINE
8
0
10
14.701
20
2.691
11
8.566
21
0.299
0
0
LINE
8
0
10
8.786
20
0.299
11
14.701
21
2.605
0
0
LINE
8
0
10
14.701
20
2.519
11
9.006
21
0.299
0
0
LINE
8
0
10
9.226
20
0.299
11
14.701
21
2.433
0
0
LINE
8
0
10
14.701
20
2.348
11
9.447
21
0.299
0
0
LINE
8
0
10
9.667
20
0.299
11
14.701
21
2.262
0
0
LINE
8
0
10
14.701
20
2.176
11
9.887
21
0.299
0
0
LINE
8
0
10
10.107
20
0.299
11
14.701
21
2.090
0
0
LINE
8
0
10
14.701
20
2.004
11
10.328
21
0.299
0
0
LINE
8
0
10
10.548
20
0.299
11
14.701
21
1.918
0
0
LINE
8
0
10
14.701
20
1.832
11
10.768
21
0.299
0
0
LINE
8
0
10
10.988
20
0.299
11
14.701
21
1.747
0
0
LINE
8
0
10
14.701
20
1.661
11
11.209
21
0.299
0
0
LINE
8
0
10
11.429
20
0.299
11
14.701
21
1.575
0
0
LINE
8
0
10
14.701
20
1.489
11
11.649
21
0.299
0
0
LINE
8
0
10
11.869
20
0.299
11
14.701
21
1.403
0
0
LINE
8
0
10
14.701
20
1.317
11
12.089
21
0.299
0
0
LINE
8
0
10
12.310
20
0.299
11
14.701
21
1.231
0
0
LINE
8
0
10
14.701
20
1.145
11
12.530
21
0.299
0
0
LINE
8
0
10
12.750
20
0.299
11
14.701
21
1.060
0
0
LINE
8
0
10
14.701
20
0.974
11
12.970
21
0.299
0
0
LINE
8
0
10
13.191
20
0.299
11
14.701
21
0.888
0
0
LINE
8
0
10
14.701
20
0.802
11
13.411
21
0.299
0
0
LINE
8
0
10
13.631
20
0.299
11
14.701
21
0.716
0
0
LINE
8
0
10
14.701
20
0.630
11
13.851
21
0.299
0
0
LINE
8
0
10
14.072
20
0.299
11
14.701
21
0.544
0
0
LINE
8
0
10
14.701
20
0.459
11
14.292
21
0.299
0
0
LINE
8
0
10
14.512
20
0.299
11
14.701
21
0.373
0
0
ENDSEC
0
EOF
