0
SECTION
2
ENTITIES
0
LINE
8
0
10
2.387
20
0.431
11
7.126
21
0.580
0
0
LINE
8
0
10
7.126
20
0.580
11
12.833
21
0.449
0
0
LINE
8
0
10
12.833
20
0.449
11
13.999
21
0.618
0
0
LINE
8
0
10
13.999
20
0.618
11
14.506
21
1.026
0
0
LINE
8
0
10
14.506
20
1.026
11
14.748
21
2.359
0
0
LINE
8
0
10
14.748
20
2.359
11
14.599
21
14.638
0
0
LINE
8
0
10
14.599
20
14.638
11
2.301
21
14.752
0
0
LINE
8
0
10
2.301
20
14.752
11
1.296
21
14.625
0
0
LINE
8
0
10
1.296
20
14.625
11
0.816
21
14.336
0
0
LINE
8
0
10
0.816
20
14.336
11
0.572
21
13.874
0
0
LINE
8
0
10
0.572
20
13.874
11
0.436
21
12.706
0
0
LINE
8
0
10
0.436
20
12.706
11
0.582
21
7.858
0
0
LINE
8
0
10
0.582
20
7.858
11
0.459
21
2.070
0
0
LINE
8
0
10
0.459
20
2.070
11
0.807
21
0.857
0
0
LINE
8
0
10
0.807
20
0.857
11
1.253
21
0.584
0
0
LINE
8
0
10
1.253
20
0.584
11
2.387
21
0.431
0
0
LINE
8
0
10
2.387
20
0.431
11
2.387
21
0.431
0
0
LINE
8
0
10
2.387
20
0.431
11
7.126
21
0.580
0
0
LINE
8
0
10
7.126
20
0.580
11
12.833
21
0.449
0
0
LINE
8
0
10
12.833
20
0.449
11
13.999
21
0.618
0
0
LINE
8
0
10
13.999
20
0.618
11
14.506
21
1.026
0
0
LINE
8
0
10
14.506
20
1.026
11
14.748
21
2.359
0
0
LINE
8
0
10
14.748
20
2.359
11
14.599
21
14.638
0
0
LINE
8
0
10
14.599
20
14.638
11
2.301
21
14.752
0
0
LINE
8
0
10
2.301
20
14.752
11
1.296
21
14.625
0
0
LINE
8
0
10
1.296
20
14.625
11
0.816
21
14.336
0
0
LINE
8
0
10
0.816
20
14.336
11
0.572
21
13.874
0
0
LINE
8
0
10
0.572
20
13.874
11
0.436
21
12.706
0
0
LINE
8
0
10
0.436
20
12.706
11
0.582
21
7.858
0
0
LINE
8
0
10
0.582
20
7.858
11
0.459
21
2.070
0
0
LINE
8
0
10
0.459
20
2.070
11
0.807
21
0.857
0
0
LINE
8
0
10
0.807
20
0.857
11
1.253
21
0.584
0
0
LINE
8
0
10
1.253
20
0.584
11
2.387
21
0.431
0
0
LINE
8
0
10
2.387
20
0.431
11
2.387
21
0.431
0
0
LINE
8
0
10
0.593
20
1.768
11
0.593
21
2.353
0
0
LINE
8
0
10
0.593
20
1.768
11
0.593
21
2.353
0
0
LINE
8
0
10
0.593
20
2.353
11
0.593
21
2.841
0
0
LINE
8
0
10
0.593
20
3.567
11
0.593
21
4.152
0
0
LINE
8
0
10
0.593
20
4.152
11
0.593
21
4.641
0
0
LINE
8
0
10
0.593
20
5.367
11
0.593
21
5.952
0
0
LINE
8
0
10
0.593
20
5.952
11
0.593
21
6.441
0
0
LINE
8
0
10
0.593
20
7.168
11
0.593
21
7.753
0
0
LINE
8
0
10
0.593
20
7.753
11
0.593
21
8.241
0
0
LINE
8
0
10
0.593
20
8.967
11
0.593
21
9.553
0
0
LINE
8
0
10
0.593
20
9.553
11
0.593
21
10.040
0
0
LINE
8
0
10
0.593
20
10.768
11
0.593
21
11.352
0
0
LINE
8
0
10
0.593
20
11.352
11
0.593
21
11.841
0
0
LINE
8
0
10
0.593
20
12.568
11
0.593
21
13.153
0
0
LINE
8
0
10
0.593
20
13.153
11
0.593
21
13.641
0
0
LINE
8
0
10
0.593
20
13.900
11
0.593
21
13.929
0
0
LINE
8
0
10
1.093
20
1.167
11
1.093
21
1.655
0
0
LINE
8
0
10
1.093
20
1.167
11
1.093
21
1.655
0
0
LINE
8
0
10
1.093
20
1.655
11
1.093
21
2.240
0
0
LINE
8
0
10
1.093
20
2.240
11
1.093
21
2.241
0
0
LINE
8
0
10
1.093
20
2.967
11
1.093
21
3.455
0
0
LINE
8
0
10
1.093
20
3.455
11
1.093
21
4.040
0
0
LINE
8
0
10
1.093
20
4.040
11
1.093
21
4.041
0
0
LINE
8
0
10
1.093
20
4.768
11
1.093
21
5.255
0
0
LINE
8
0
10
1.093
20
5.255
11
1.093
21
5.840
0
0
LINE
8
0
10
1.093
20
5.840
11
1.093
21
5.841
0
0
LINE
8
0
10
1.093
20
6.567
11
1.093
21
7.056
0
0
LINE
8
0
10
1.093
20
7.056
11
1.093
21
7.641
0
0
LINE
8
0
10
1.093
20
7.641
11
1.093
21
7.641
0
0
LINE
8
0
10
1.093
20
8.367
11
1.093
21
8.953
0
0
LINE
8
0
10
1.093
20
8.953
11
1.093
21
9.441
0
0
LINE
8
0
10
1.093
20
9.441
11
1.093
21
9.441
0
0
LINE
8
0
10
1.093
20
10.168
11
1.093
21
10.752
0
0
LINE
8
0
10
1.093
20
10.752
11
1.093
21
11.241
0
0
LINE
8
0
10
1.093
20
11.241
11
1.093
21
11.241
0
0
LINE
8
0
10
1.093
20
11.967
11
1.093
21
12.553
0
0
LINE
8
0
10
1.093
20
12.553
11
1.093
21
13.040
0
0
LINE
8
0
10
1.093
20
13.040
11
1.093
21
13.041
0
0
LINE
8
0
10
1.093
20
13.768
11
1.093
21
14.151
0
0
LINE
8
0
10
1.593
20
1.018
11
1.593
21
1.506
0
0
LINE
8
0
10
1.593
20
1.018
11
1.593
21
1.506
0
0
LINE
8
0
10
1.593
20
1.506
11
1.593
21
2.091
0
0
LINE
8
0
10
1.593
20
2.817
11
1.593
21
3.402
0
0
LINE
8
0
10
1.593
20
3.402
11
1.593
21
3.890
0
0
LINE
8
0
10
1.593
20
4.617
11
1.593
21
5.202
0
0
LINE
8
0
10
1.593
20
5.202
11
1.593
21
5.691
0
0
LINE
8
0
10
1.593
20
6.418
11
1.593
21
7.003
0
0
LINE
8
0
10
1.593
20
7.003
11
1.593
21
7.490
0
0
LINE
8
0
10
1.593
20
8.217
11
1.593
21
8.803
0
0
LINE
8
0
10
1.593
20
8.803
11
1.593
21
9.290
0
0
LINE
8
0
10
1.593
20
10.018
11
1.593
21
10.602
0
0
LINE
8
0
10
1.593
20
10.602
11
1.593
21
11.091
0
0
LINE
8
0
10
1.593
20
11.818
11
1.593
21
12.306
0
0
LINE
8
0
10
1.593
20
12.306
11
1.593
21
12.890
0
0
LINE
8
0
10
1.593
20
13.617
11
1.593
21
14.121
0
0
LINE
8
0
10
2.093
20
0.960
11
2.093
21
0.960
0
0
LINE
8
0
10
2.093
20
0.960
11
2.093
21
0.960
0
0
LINE
8
0
10
2.093
20
0.960
11
2.093
21
1.546
0
0
LINE
8
0
10
2.093
20
1.546
11
2.093
21
2.034
0
0
LINE
8
0
10
2.093
20
2.760
11
2.093
21
2.760
0
0
LINE
8
0
10
2.093
20
2.760
11
2.093
21
3.345
0
0
LINE
8
0
10
2.093
20
3.345
11
2.093
21
3.833
0
0
LINE
8
0
10
2.093
20
4.559
11
2.093
21
4.560
0
0
LINE
8
0
10
2.093
20
4.560
11
2.093
21
5.146
0
0
LINE
8
0
10
2.093
20
5.146
11
2.093
21
5.633
0
0
LINE
8
0
10
2.093
20
6.359
11
2.093
21
6.360
0
0
LINE
8
0
10
2.093
20
6.360
11
2.093
21
6.946
0
0
LINE
8
0
10
2.093
20
6.946
11
2.093
21
7.434
0
0
LINE
8
0
10
2.093
20
8.159
11
2.093
21
8.160
0
0
LINE
8
0
10
2.093
20
8.160
11
2.093
21
8.745
0
0
LINE
8
0
10
2.093
20
8.745
11
2.093
21
9.233
0
0
LINE
8
0
10
2.093
20
9.960
11
2.093
21
9.960
0
0
LINE
8
0
10
2.093
20
9.960
11
2.093
21
10.546
0
0
LINE
8
0
10
2.093
20
10.546
11
2.093
21
11.034
0
0
LINE
8
0
10
2.093
20
11.759
11
2.093
21
11.760
0
0
LINE
8
0
10
2.093
20
11.760
11
2.093
21
12.345
0
0
LINE
8
0
10
2.093
20
12.345
11
2.093
21
12.834
0
0
LINE
8
0
10
2.093
20
13.559
11
2.093
21
13.560
0
0
LINE
8
0
10
2.093
20
13.560
11
2.093
21
14.105
0
0
LINE
8
0
10
2.593
20
0.951
11
2.593
21
1.438
0
0
LINE
8
0
10
2.593
20
0.951
11
2.593
21
1.438
0
0
LINE
8
0
10
2.593
20
1.438
11
2.593
21
2.023
0
0
LINE
8
0
10
2.593
20
2.751
11
2.593
21
3.336
0
0
LINE
8
0
10
2.593
20
3.336
11
2.593
21
3.824
0
0
LINE
8
0
10
2.593
20
4.551
11
2.593
21
5.136
0
0
LINE
8
0
10
2.593
20
5.136
11
2.593
21
5.623
0
0
LINE
8
0
10
2.593
20
6.351
11
2.593
21
6.838
0
0
LINE
8
0
10
2.593
20
6.838
11
2.593
21
7.423
0
0
LINE
8
0
10
2.593
20
8.150
11
2.593
21
8.736
0
0
LINE
8
0
10
2.593
20
8.736
11
2.593
21
9.223
0
0
LINE
8
0
10
2.593
20
9.950
11
2.593
21
10.536
0
0
LINE
8
0
10
2.593
20
10.536
11
2.593
21
11.024
0
0
LINE
8
0
10
2.593
20
11.751
11
2.593
21
12.239
0
0
LINE
8
0
10
2.593
20
12.239
11
2.593
21
12.823
0
0
LINE
8
0
10
2.593
20
13.550
11
2.593
21
14.098
0
0
LINE
8
0
10
3.093
20
0.967
11
3.093
21
1.454
0
0
LINE
8
0
10
3.093
20
0.967
11
3.093
21
1.454
0
0
LINE
8
0
10
3.093
20
1.454
11
3.093
21
2.039
0
0
LINE
8
0
10
3.093
20
2.767
11
3.093
21
3.352
0
0
LINE
8
0
10
3.093
20
3.352
11
3.093
21
3.840
0
0
LINE
8
0
10
3.093
20
4.566
11
3.093
21
5.152
0
0
LINE
8
0
10
3.093
20
5.152
11
3.093
21
5.639
0
0
LINE
8
0
10
3.093
20
6.367
11
3.093
21
6.854
0
0
LINE
8
0
10
3.093
20
6.854
11
3.093
21
7.439
0
0
LINE
8
0
10
3.093
20
8.166
11
3.093
21
8.752
0
0
LINE
8
0
10
3.093
20
8.752
11
3.093
21
9.239
0
0
LINE
8
0
10
3.093
20
9.966
11
3.093
21
10.552
0
0
LINE
8
0
10
3.093
20
10.552
11
3.093
21
11.040
0
0
LINE
8
0
10
3.093
20
11.767
11
3.093
21
12.255
0
0
LINE
8
0
10
3.093
20
12.255
11
3.093
21
12.839
0
0
LINE
8
0
10
3.093
20
13.566
11
3.093
21
14.101
0
0
LINE
8
0
10
3.593
20
0.983
11
3.593
21
1.470
0
0
LINE
8
0
10
3.593
20
0.983
11
3.593
21
1.470
0
0
LINE
8
0
10
3.593
20
1.470
11
3.593
21
2.055
0
0
LINE
8
0
10
3.593
20
2.783
11
3.593
21
3.368
0
0
LINE
8
0
10
3.593
20
3.368
11
3.593
21
3.856
0
0
LINE
8
0
10
3.593
20
4.582
11
3.593
21
5.168
0
0
LINE
8
0
10
3.593
20
5.168
11
3.593
21
5.655
0
0
LINE
8
0
10
3.593
20
6.383
11
3.593
21
6.870
0
0
LINE
8
0
10
3.593
20
6.870
11
3.593
21
7.455
0
0
LINE
8
0
10
3.593
20
8.182
11
3.593
21
8.768
0
0
LINE
8
0
10
3.593
20
8.768
11
3.593
21
9.255
0
0
LINE
8
0
10
3.593
20
9.982
11
3.593
21
10.568
0
0
LINE
8
0
10
3.593
20
10.568
11
3.593
21
11.056
0
0
LINE
8
0
10
3.593
20
11.783
11
3.593
21
12.271
0
0
LINE
8
0
10
3.593
20
12.271
11
3.593
21
12.855
0
0
LINE
8
0
10
3.593
20
13.582
11
3.593
21
14.104
0
0
LINE
8
0
10
4.093
20
0.998
11
4.093
21
1.486
0
0
LINE
8
0
10
4.093
20
0.998
11
4.093
21
1.486
0
0
LINE
8
0
10
4.093
20
1.486
11
4.093
21
2.071
0
0
LINE
8
0
10
4.093
20
2.797
11
4.093
21
3.285
0
0
LINE
8
0
10
4.093
20
3.285
11
4.093
21
3.871
0
0
LINE
8
0
10
4.093
20
4.598
11
4.093
21
5.085
0
0
LINE
8
0
10
4.093
20
5.085
11
4.093
21
5.671
0
0
LINE
8
0
10
4.093
20
6.397
11
4.093
21
6.886
0
0
LINE
8
0
10
4.093
20
6.886
11
4.093
21
7.471
0
0
LINE
8
0
10
4.093
20
8.197
11
4.093
21
8.685
0
0
LINE
8
0
10
4.093
20
8.685
11
4.093
21
9.271
0
0
LINE
8
0
10
4.093
20
9.998
11
4.093
21
10.486
0
0
LINE
8
0
10
4.093
20
10.486
11
4.093
21
11.071
0
0
LINE
8
0
10
4.093
20
11.797
11
4.093
21
12.286
0
0
LINE
8
0
10
4.093
20
12.286
11
4.093
21
12.871
0
0
LINE
8
0
10
4.093
20
13.598
11
4.093
21
13.598
0
0
LINE
8
0
10
4.093
20
13.598
11
4.093
21
14.107
0
0
LINE
8
0
10
4.593
20
1.014
11
4.593
21
1.502
0
0
LINE
8
0
10
4.593
20
1.014
11
4.593
21
1.502
0
0
LINE
8
0
10
4.593
20
1.502
11
4.593
21
2.087
0
0
LINE
8
0
10
4.593
20
2.813
11
4.593
21
3.398
0
0
LINE
8
0
10
4.593
20
3.398
11
4.593
21
3.886
0
0
LINE
8
0
10
4.593
20
4.614
11
4.593
21
5.101
0
0
LINE
8
0
10
4.593
20
5.101
11
4.593
21
5.686
0
0
LINE
8
0
10
4.593
20
6.413
11
4.593
21
6.902
0
0
LINE
8
0
10
4.593
20
6.902
11
4.593
21
7.487
0
0
LINE
8
0
10
4.593
20
8.213
11
4.593
21
8.799
0
0
LINE
8
0
10
4.593
20
8.799
11
4.593
21
9.287
0
0
LINE
8
0
10
4.593
20
10.014
11
4.593
21
10.598
0
0
LINE
8
0
10
4.593
20
10.598
11
4.593
21
11.086
0
0
LINE
8
0
10
4.593
20
11.813
11
4.593
21
12.399
0
0
LINE
8
0
10
4.593
20
12.399
11
4.593
21
12.886
0
0
LINE
8
0
10
4.593
20
13.614
11
4.593
21
14.110
0
0
LINE
8
0
10
5.093
20
1.030
11
5.093
21
1.615
0
0
LINE
8
0
10
5.093
20
1.030
11
5.093
21
1.615
0
0
LINE
8
0
10
5.093
20
1.615
11
5.093
21
2.103
0
0
LINE
8
0
10
5.093
20
2.829
11
5.093
21
3.414
0
0
LINE
8
0
10
5.093
20
3.414
11
5.093
21
3.902
0
0
LINE
8
0
10
5.093
20
4.630
11
5.093
21
5.117
0
0
LINE
8
0
10
5.093
20
5.117
11
5.093
21
5.702
0
0
LINE
8
0
10
5.093
20
6.429
11
5.093
21
6.918
0
0
LINE
8
0
10
5.093
20
6.918
11
5.093
21
7.503
0
0
LINE
8
0
10
5.093
20
8.229
11
5.093
21
8.815
0
0
LINE
8
0
10
5.093
20
8.815
11
5.093
21
9.303
0
0
LINE
8
0
10
5.093
20
10.030
11
5.093
21
10.614
0
0
LINE
8
0
10
5.093
20
10.614
11
5.093
21
11.102
0
0
LINE
8
0
10
5.093
20
11.829
11
5.093
21
12.415
0
0
LINE
8
0
10
5.093
20
12.415
11
5.093
21
12.902
0
0
LINE
8
0
10
5.093
20
13.630
11
5.093
21
14.113
0
0
LINE
8
0
10
5.593
20
1.046
11
5.593
21
1.631
0
0
LINE
8
0
10
5.593
20
1.046
11
5.593
21
1.631
0
0
LINE
8
0
10
5.593
20
1.631
11
5.593
21
2.119
0
0
LINE
8
0
10
5.593
20
2.845
11
5.593
21
3.430
0
0
LINE
8
0
10
5.593
20
3.430
11
5.593
21
3.918
0
0
LINE
8
0
10
5.593
20
4.646
11
5.593
21
5.133
0
0
LINE
8
0
10
5.593
20
5.133
11
5.593
21
5.718
0
0
LINE
8
0
10
5.593
20
6.446
11
5.593
21
6.934
0
0
LINE
8
0
10
5.593
20
6.934
11
5.593
21
7.519
0
0
LINE
8
0
10
5.593
20
8.245
11
5.593
21
8.831
0
0
LINE
8
0
10
5.593
20
8.831
11
5.593
21
9.319
0
0
LINE
8
0
10
5.593
20
10.046
11
5.593
21
10.630
0
0
LINE
8
0
10
5.593
20
10.630
11
5.593
21
11.118
0
0
LINE
8
0
10
5.593
20
11.845
11
5.593
21
12.431
0
0
LINE
8
0
10
5.593
20
12.431
11
5.593
21
12.918
0
0
LINE
8
0
10
5.593
20
13.646
11
5.593
21
14.115
0
0
LINE
8
0
10
6.093
20
1.062
11
6.093
21
1.647
0
0
LINE
8
0
10
6.093
20
1.062
11
6.093
21
1.647
0
0
LINE
8
0
10
6.093
20
1.647
11
6.093
21
2.135
0
0
LINE
8
0
10
6.093
20
2.861
11
6.093
21
3.446
0
0
LINE
8
0
10
6.093
20
3.446
11
6.093
21
3.934
0
0
LINE
8
0
10
6.093
20
4.662
11
6.093
21
5.149
0
0
LINE
8
0
10
6.093
20
5.149
11
6.093
21
5.734
0
0
LINE
8
0
10
6.093
20
6.462
11
6.093
21
6.949
0
0
LINE
8
0
10
6.093
20
6.949
11
6.093
21
7.535
0
0
LINE
8
0
10
6.093
20
8.261
11
6.093
21
8.847
0
0
LINE
8
0
10
6.093
20
8.847
11
6.093
21
9.335
0
0
LINE
8
0
10
6.093
20
10.062
11
6.093
21
10.646
0
0
LINE
8
0
10
6.093
20
10.646
11
6.093
21
11.134
0
0
LINE
8
0
10
6.093
20
11.861
11
6.093
21
12.447
0
0
LINE
8
0
10
6.093
20
12.447
11
6.093
21
12.934
0
0
LINE
8
0
10
6.093
20
13.662
11
6.093
21
14.121
0
0
LINE
8
0
10
6.593
20
1.077
11
6.593
21
1.077
0
0
LINE
8
0
10
6.593
20
1.077
11
6.593
21
1.077
0
0
LINE
8
0
10
6.593
20
1.077
11
6.593
21
1.663
0
0
LINE
8
0
10
6.593
20
1.663
11
6.593
21
2.151
0
0
LINE
8
0
10
6.593
20
2.877
11
6.593
21
2.877
0
0
LINE
8
0
10
6.593
20
2.877
11
6.593
21
3.462
0
0
LINE
8
0
10
6.593
20
3.462
11
6.593
21
3.950
0
0
LINE
8
0
10
6.593
20
4.676
11
6.593
21
4.677
0
0
LINE
8
0
10
6.593
20
4.677
11
6.593
21
5.263
0
0
LINE
8
0
10
6.593
20
5.263
11
6.593
21
5.750
0
0
LINE
8
0
10
6.593
20
6.476
11
6.593
21
6.477
0
0
LINE
8
0
10
6.593
20
6.477
11
6.593
21
7.062
0
0
LINE
8
0
10
6.593
20
7.062
11
6.593
21
7.551
0
0
LINE
8
0
10
6.593
20
8.277
11
6.593
21
8.277
0
0
LINE
8
0
10
6.593
20
8.277
11
6.593
21
8.863
0
0
LINE
8
0
10
6.593
20
8.863
11
6.593
21
9.351
0
0
LINE
8
0
10
6.593
20
10.076
11
6.593
21
10.077
0
0
LINE
8
0
10
6.593
20
10.077
11
6.593
21
10.662
0
0
LINE
8
0
10
6.593
20
10.662
11
6.593
21
11.150
0
0
LINE
8
0
10
6.593
20
11.877
11
6.593
21
11.877
0
0
LINE
8
0
10
6.593
20
11.877
11
6.593
21
12.463
0
0
LINE
8
0
10
6.593
20
12.463
11
6.593
21
12.950
0
0
LINE
8
0
10
6.593
20
13.677
11
6.593
21
13.677
0
0
LINE
8
0
10
6.593
20
13.677
11
6.593
21
14.131
0
0
LINE
8
0
10
7.093
20
1.093
11
7.093
21
1.677
0
0
LINE
8
0
10
7.093
20
1.093
11
7.093
21
1.677
0
0
LINE
8
0
10
7.093
20
1.677
11
7.093
21
2.166
0
0
LINE
8
0
10
7.093
20
2.893
11
7.093
21
3.381
0
0
LINE
8
0
10
7.093
20
3.381
11
7.093
21
3.966
0
0
LINE
8
0
10
7.093
20
4.692
11
7.093
21
5.277
0
0
LINE
8
0
10
7.093
20
5.277
11
7.093
21
5.766
0
0
LINE
8
0
10
7.093
20
6.492
11
7.093
21
7.077
0
0
LINE
8
0
10
7.093
20
7.077
11
7.093
21
7.566
0
0
LINE
8
0
10
7.093
20
8.293
11
7.093
21
8.877
0
0
LINE
8
0
10
7.093
20
8.877
11
7.093
21
9.366
0
0
LINE
8
0
10
7.093
20
10.092
11
7.093
21
10.678
0
0
LINE
8
0
10
7.093
20
10.678
11
7.093
21
11.165
0
0
LINE
8
0
10
7.093
20
11.893
11
7.093
21
12.477
0
0
LINE
8
0
10
7.093
20
12.477
11
7.093
21
12.966
0
0
LINE
8
0
10
7.093
20
13.693
11
7.093
21
14.140
0
0
LINE
8
0
10
7.593
20
1.088
11
7.593
21
1.673
0
0
LINE
8
0
10
7.593
20
1.088
11
7.593
21
1.673
0
0
LINE
8
0
10
7.593
20
1.673
11
7.593
21
2.162
0
0
LINE
8
0
10
7.593
20
2.888
11
7.593
21
3.474
0
0
LINE
8
0
10
7.593
20
3.474
11
7.593
21
3.962
0
0
LINE
8
0
10
7.593
20
4.688
11
7.593
21
5.176
0
0
LINE
8
0
10
7.593
20
5.176
11
7.593
21
5.761
0
0
LINE
8
0
10
7.593
20
6.488
11
7.593
21
6.976
0
0
LINE
8
0
10
7.593
20
6.976
11
7.593
21
7.561
0
0
LINE
8
0
10
7.593
20
8.288
11
7.593
21
8.873
0
0
LINE
8
0
10
7.593
20
8.873
11
7.593
21
9.361
0
0
LINE
8
0
10
7.593
20
10.088
11
7.593
21
10.674
0
0
LINE
8
0
10
7.593
20
10.674
11
7.593
21
11.162
0
0
LINE
8
0
10
7.593
20
11.888
11
7.593
21
12.473
0
0
LINE
8
0
10
7.593
20
12.473
11
7.593
21
12.961
0
0
LINE
8
0
10
7.593
20
13.688
11
7.593
21
14.138
0
0
LINE
8
0
10
8.093
20
1.077
11
8.093
21
1.661
0
0
LINE
8
0
10
8.093
20
1.077
11
8.093
21
1.661
0
0
LINE
8
0
10
8.093
20
1.661
11
8.093
21
2.150
0
0
LINE
8
0
10
8.093
20
2.877
11
8.093
21
3.365
0
0
LINE
8
0
10
8.093
20
3.365
11
8.093
21
3.950
0
0
LINE
8
0
10
8.093
20
4.676
11
8.093
21
5.261
0
0
LINE
8
0
10
8.093
20
5.261
11
8.093
21
5.750
0
0
LINE
8
0
10
8.093
20
6.476
11
8.093
21
7.061
0
0
LINE
8
0
10
8.093
20
7.061
11
8.093
21
7.550
0
0
LINE
8
0
10
8.093
20
8.277
11
8.093
21
8.861
0
0
LINE
8
0
10
8.093
20
8.861
11
8.093
21
9.350
0
0
LINE
8
0
10
8.093
20
10.076
11
8.093
21
10.662
0
0
LINE
8
0
10
8.093
20
10.662
11
8.093
21
11.149
0
0
LINE
8
0
10
8.093
20
11.877
11
8.093
21
12.461
0
0
LINE
8
0
10
8.093
20
12.461
11
8.093
21
12.950
0
0
LINE
8
0
10
8.093
20
13.677
11
8.093
21
14.131
0
0
LINE
8
0
10
8.593
20
1.065
11
8.593
21
1.649
0
0
LINE
8
0
10
8.593
20
1.065
11
8.593
21
1.649
0
0
LINE
8
0
10
8.593
20
1.649
11
8.593
21
2.138
0
0
LINE
8
0
10
8.593
20
2.865
11
8.593
21
3.450
0
0
LINE
8
0
10
8.593
20
3.450
11
8.593
21
3.938
0
0
LINE
8
0
10
8.593
20
4.665
11
8.593
21
5.152
0
0
LINE
8
0
10
8.593
20
5.152
11
8.593
21
5.737
0
0
LINE
8
0
10
8.593
20
6.465
11
8.593
21
6.952
0
0
LINE
8
0
10
8.593
20
6.952
11
8.593
21
7.537
0
0
LINE
8
0
10
8.593
20
8.264
11
8.593
21
8.850
0
0
LINE
8
0
10
8.593
20
8.850
11
8.593
21
9.338
0
0
LINE
8
0
10
8.593
20
10.065
11
8.593
21
10.553
0
0
LINE
8
0
10
8.593
20
10.553
11
8.593
21
11.137
0
0
LINE
8
0
10
8.593
20
11.864
11
8.593
21
12.450
0
0
LINE
8
0
10
8.593
20
12.450
11
8.593
21
12.938
0
0
LINE
8
0
10
8.593
20
13.665
11
8.593
21
14.124
0
0
LINE
8
0
10
9.093
20
1.052
11
9.093
21
1.637
0
0
LINE
8
0
10
9.093
20
1.052
11
9.093
21
1.637
0
0
LINE
8
0
10
9.093
20
1.637
11
9.093
21
2.126
0
0
LINE
8
0
10
9.093
20
2.853
11
9.093
21
3.341
0
0
LINE
8
0
10
9.093
20
3.341
11
9.093
21
3.925
0
0
LINE
8
0
10
9.093
20
4.652
11
9.093
21
5.237
0
0
LINE
8
0
10
9.093
20
5.237
11
9.093
21
5.726
0
0
LINE
8
0
10
9.093
20
6.452
11
9.093
21
7.037
0
0
LINE
8
0
10
9.093
20
7.037
11
9.093
21
7.526
0
0
LINE
8
0
10
9.093
20
8.252
11
9.093
21
8.838
0
0
LINE
8
0
10
9.093
20
8.838
11
9.093
21
9.325
0
0
LINE
8
0
10
9.093
20
10.053
11
9.093
21
10.637
0
0
LINE
8
0
10
9.093
20
10.637
11
9.093
21
11.126
0
0
LINE
8
0
10
9.093
20
11.852
11
9.093
21
12.341
0
0
LINE
8
0
10
9.093
20
12.341
11
9.093
21
12.925
0
0
LINE
8
0
10
9.093
20
13.652
11
9.093
21
14.117
0
0
LINE
8
0
10
9.593
20
1.040
11
9.593
21
1.625
0
0
LINE
8
0
10
9.593
20
1.040
11
9.593
21
1.625
0
0
LINE
8
0
10
9.593
20
1.625
11
9.593
21
2.114
0
0
LINE
8
0
10
9.593
20
2.841
11
9.593
21
3.425
0
0
LINE
8
0
10
9.593
20
3.425
11
9.593
21
3.913
0
0
LINE
8
0
10
9.593
20
4.641
11
9.593
21
5.128
0
0
LINE
8
0
10
9.593
20
5.128
11
9.593
21
5.713
0
0
LINE
8
0
10
9.593
20
6.441
11
9.593
21
6.928
0
0
LINE
8
0
10
9.593
20
6.928
11
9.593
21
7.513
0
0
LINE
8
0
10
9.593
20
8.241
11
9.593
21
8.729
0
0
LINE
8
0
10
9.593
20
8.729
11
9.593
21
9.313
0
0
LINE
8
0
10
9.593
20
10.040
11
9.593
21
10.626
0
0
LINE
8
0
10
9.593
20
10.626
11
9.593
21
11.114
0
0
LINE
8
0
10
9.593
20
11.841
11
9.593
21
12.425
0
0
LINE
8
0
10
9.593
20
12.425
11
9.593
21
12.914
0
0
LINE
8
0
10
9.593
20
13.640
11
9.593
21
14.110
0
0
LINE
8
0
10
10.093
20
1.028
11
10.093
21
1.613
0
0
LINE
8
0
10
10.093
20
1.028
11
10.093
21
1.613
0
0
LINE
8
0
10
10.093
20
1.613
11
10.093
21
2.102
0
0
LINE
8
0
10
10.093
20
2.829
11
10.093
21
3.317
0
0
LINE
8
0
10
10.093
20
3.317
11
10.093
21
3.901
0
0
LINE
8
0
10
10.093
20
4.628
11
10.093
21
5.213
0
0
LINE
8
0
10
10.093
20
5.213
11
10.093
21
5.702
0
0
LINE
8
0
10
10.093
20
6.428
11
10.093
21
7.013
0
0
LINE
8
0
10
10.093
20
7.013
11
10.093
21
7.502
0
0
LINE
8
0
10
10.093
20
8.229
11
10.093
21
8.813
0
0
LINE
8
0
10
10.093
20
8.813
11
10.093
21
9.302
0
0
LINE
8
0
10
10.093
20
10.028
11
10.093
21
10.614
0
0
LINE
8
0
10
10.093
20
10.614
11
10.093
21
11.101
0
0
LINE
8
0
10
10.093
20
11.829
11
10.093
21
12.414
0
0
LINE
8
0
10
10.093
20
12.414
11
10.093
21
12.902
0
0
LINE
8
0
10
10.093
20
13.629
11
10.093
21
14.103
0
0
LINE
8
0
10
10.593
20
1.016
11
10.593
21
1.601
0
0
LINE
8
0
10
10.593
20
1.016
11
10.593
21
1.601
0
0
LINE
8
0
10
10.593
20
1.601
11
10.593
21
2.090
0
0
LINE
8
0
10
10.593
20
2.817
11
10.593
21
3.401
0
0
LINE
8
0
10
10.593
20
3.401
11
10.593
21
3.889
0
0
LINE
8
0
10
10.593
20
4.617
11
10.593
21
5.104
0
0
LINE
8
0
10
10.593
20
5.104
11
10.593
21
5.689
0
0
LINE
8
0
10
10.593
20
6.417
11
10.593
21
6.904
0
0
LINE
8
0
10
10.593
20
6.904
11
10.593
21
7.489
0
0
LINE
8
0
10
10.593
20
8.216
11
10.593
21
8.802
0
0
LINE
8
0
10
10.593
20
8.802
11
10.593
21
9.290
0
0
LINE
8
0
10
10.593
20
10.017
11
10.593
21
10.505
0
0
LINE
8
0
10
10.593
20
10.505
11
10.593
21
11.089
0
0
LINE
8
0
10
10.593
20
11.816
11
10.593
21
12.402
0
0
LINE
8
0
10
10.593
20
12.402
11
10.593
21
12.889
0
0
LINE
8
0
10
10.593
20
13.617
11
10.593
21
14.096
0
0
LINE
8
0
10
11.093
20
1.004
11
11.093
21
1.589
0
0
LINE
8
0
10
11.093
20
1.004
11
11.093
21
1.589
0
0
LINE
8
0
10
11.093
20
1.589
11
11.093
21
2.078
0
0
LINE
8
0
10
11.093
20
2.804
11
11.093
21
3.389
0
0
LINE
8
0
10
11.093
20
3.389
11
11.093
21
3.877
0
0
LINE
8
0
10
11.093
20
4.604
11
11.093
21
5.189
0
0
LINE
8
0
10
11.093
20
5.189
11
11.093
21
5.678
0
0
LINE
8
0
10
11.093
20
6.404
11
11.093
21
6.989
0
0
LINE
8
0
10
11.093
20
6.989
11
11.093
21
7.478
0
0
LINE
8
0
10
11.093
20
8.204
11
11.093
21
8.693
0
0
LINE
8
0
10
11.093
20
8.693
11
11.093
21
9.277
0
0
LINE
8
0
10
11.093
20
10.005
11
11.093
21
10.589
0
0
LINE
8
0
10
11.093
20
10.589
11
11.093
21
11.078
0
0
LINE
8
0
10
11.093
20
11.805
11
11.093
21
12.293
0
0
LINE
8
0
10
11.093
20
12.293
11
11.093
21
12.877
0
0
LINE
8
0
10
11.093
20
13.604
11
11.093
21
14.089
0
0
LINE
8
0
10
11.593
20
0.993
11
11.593
21
1.577
0
0
LINE
8
0
10
11.593
20
0.993
11
11.593
21
1.577
0
0
LINE
8
0
10
11.593
20
1.577
11
11.593
21
2.066
0
0
LINE
8
0
10
11.593
20
2.792
11
11.593
21
3.377
0
0
LINE
8
0
10
11.593
20
3.377
11
11.593
21
3.865
0
0
LINE
8
0
10
11.593
20
4.593
11
11.593
21
5.080
0
0
LINE
8
0
10
11.593
20
5.080
11
11.593
21
5.665
0
0
LINE
8
0
10
11.593
20
6.393
11
11.593
21
6.880
0
0
LINE
8
0
10
11.593
20
6.880
11
11.593
21
7.465
0
0
LINE
8
0
10
11.593
20
8.193
11
11.593
21
8.681
0
0
LINE
8
0
10
11.593
20
8.681
11
11.593
21
9.265
0
0
LINE
8
0
10
11.593
20
9.992
11
11.593
21
10.578
0
0
LINE
8
0
10
11.593
20
10.578
11
11.593
21
11.066
0
0
LINE
8
0
10
11.593
20
11.793
11
11.593
21
12.377
0
0
LINE
8
0
10
11.593
20
12.377
11
11.593
21
12.866
0
0
LINE
8
0
10
11.593
20
13.592
11
11.593
21
14.082
0
0
LINE
8
0
10
12.093
20
0.981
11
12.093
21
1.565
0
0
LINE
8
0
10
12.093
20
0.981
11
12.093
21
1.565
0
0
LINE
8
0
10
12.093
20
1.565
11
12.093
21
2.054
0
0
LINE
8
0
10
12.093
20
2.780
11
12.093
21
3.365
0
0
LINE
8
0
10
12.093
20
3.365
11
12.093
21
3.853
0
0
LINE
8
0
10
12.093
20
4.580
11
12.093
21
5.165
0
0
LINE
8
0
10
12.093
20
5.165
11
12.093
21
5.654
0
0
LINE
8
0
10
12.093
20
6.380
11
12.093
21
6.965
0
0
LINE
8
0
10
12.093
20
6.965
11
12.093
21
7.454
0
0
LINE
8
0
10
12.093
20
8.181
11
12.093
21
8.765
0
0
LINE
8
0
10
12.093
20
8.765
11
12.093
21
9.254
0
0
LINE
8
0
10
12.093
20
9.980
11
12.093
21
10.566
0
0
LINE
8
0
10
12.093
20
10.566
11
12.093
21
11.053
0
0
LINE
8
0
10
12.093
20
11.780
11
12.093
21
12.366
0
0
LINE
8
0
10
12.093
20
12.366
11
12.093
21
12.854
0
0
LINE
8
0
10
12.093
20
13.581
11
12.093
21
14.075
0
0
LINE
8
0
10
12.593
20
0.969
11
12.593
21
1.554
0
0
LINE
8
0
10
12.593
20
0.969
11
12.593
21
1.554
0
0
LINE
8
0
10
12.593
20
1.554
11
12.593
21
2.042
0
0
LINE
8
0
10
12.593
20
2.768
11
12.593
21
3.353
0
0
LINE
8
0
10
12.593
20
3.353
11
12.593
21
3.841
0
0
LINE
8
0
10
12.593
20
4.569
11
12.593
21
5.056
0
0
LINE
8
0
10
12.593
20
5.056
11
12.593
21
5.641
0
0
LINE
8
0
10
12.593
20
6.369
11
12.593
21
6.856
0
0
LINE
8
0
10
12.593
20
6.856
11
12.593
21
7.441
0
0
LINE
8
0
10
12.593
20
8.168
11
12.593
21
8.754
0
0
LINE
8
0
10
12.593
20
8.754
11
12.593
21
9.242
0
0
LINE
8
0
10
12.593
20
9.969
11
12.593
21
10.457
0
0
LINE
8
0
10
12.593
20
10.457
11
12.593
21
11.041
0
0
LINE
8
0
10
12.593
20
11.768
11
12.593
21
12.354
0
0
LINE
8
0
10
12.593
20
12.354
11
12.593
21
12.841
0
0
LINE
8
0
10
12.593
20
13.569
11
12.593
21
14.068
0
0
LINE
8
0
10
13.093
20
0.969
11
13.093
21
1.554
0
0
LINE
8
0
10
13.093
20
0.969
11
13.093
21
1.554
0
0
LINE
8
0
10
13.093
20
1.554
11
13.093
21
2.042
0
0
LINE
8
0
10
13.093
20
2.768
11
13.093
21
3.353
0
0
LINE
8
0
10
13.093
20
3.353
11
13.093
21
3.841
0
0
LINE
8
0
10
13.093
20
4.569
11
13.093
21
5.056
0
0
LINE
8
0
10
13.093
20
5.056
11
13.093
21
5.641
0
0
LINE
8
0
10
13.093
20
6.369
11
13.093
21
6.856
0
0
LINE
8
0
10
13.093
20
6.856
11
13.093
21
7.441
0
0
LINE
8
0
10
13.093
20
8.168
11
13.093
21
8.754
0
0
LINE
8
0
10
13.093
20
8.754
11
13.093
21
9.242
0
0
LINE
8
0
10
13.093
20
9.969
11
13.093
21
10.457
0
0
LINE
8
0
10
13.093
20
10.457
11
13.093
21
11.041
0
0
LINE
8
0
10
13.093
20
11.768
11
13.093
21
12.354
0
0
LINE
8
0
10
13.093
20
12.354
11
13.093
21
12.841
0
0
LINE
8
0
10
13.093
20
13.569
11
13.093
21
14.068
0
0
LINE
8
0
10
13.593
20
1.036
11
13.593
21
1.621
0
0
LINE
8
0
10
13.593
20
1.036
11
13.593
21
1.621
0
0
LINE
8
0
10
13.593
20
1.621
11
13.593
21
2.110
0
0
LINE
8
0
10
13.593
20
2.837
11
13.593
21
3.325
0
0
LINE
8
0
10
13.593
20
3.325
11
13.593
21
3.909
0
0
LINE
8
0
10
13.593
20
4.636
11
13.593
21
5.221
0
0
LINE
8
0
10
13.593
20
5.221
11
13.593
21
5.710
0
0
LINE
8
0
10
13.593
20
6.436
11
13.593
21
7.021
0
0
LINE
8
0
10
13.593
20
7.021
11
13.593
21
7.510
0
0
LINE
8
0
10
13.593
20
8.236
11
13.593
21
8.822
0
0
LINE
8
0
10
13.593
20
8.822
11
13.593
21
9.309
0
0
LINE
8
0
10
13.593
20
10.037
11
13.593
21
10.621
0
0
LINE
8
0
10
13.593
20
10.621
11
13.593
21
11.110
0
0
LINE
8
0
10
13.593
20
11.836
11
13.593
21
12.325
0
0
LINE
8
0
10
13.593
20
12.325
11
13.593
21
12.909
0
0
LINE
8
0
10
13.593
20
13.636
11
13.593
21
14.110
0
0
LINE
8
0
10
14.093
20
1.167
11
14.093
21
1.655
0
0
LINE
8
0
10
14.093
20
1.167
11
14.093
21
1.655
0
0
LINE
8
0
10
14.093
20
1.655
11
14.093
21
2.240
0
0
LINE
8
0
10
14.093
20
2.967
11
14.093
21
3.455
0
0
LINE
8
0
10
14.093
20
3.455
11
14.093
21
4.040
0
0
LINE
8
0
10
14.093
20
4.768
11
14.093
21
5.255
0
0
LINE
8
0
10
14.093
20
5.255
11
14.093
21
5.840
0
0
LINE
8
0
10
14.093
20
6.567
11
14.093
21
7.056
0
0
LINE
8
0
10
14.093
20
7.056
11
14.093
21
7.641
0
0
LINE
8
0
10
14.093
20
8.367
11
14.093
21
8.953
0
0
LINE
8
0
10
14.093
20
8.953
11
14.093
21
9.441
0
0
LINE
8
0
10
14.093
20
10.168
11
14.093
21
10.752
0
0
LINE
8
0
10
14.093
20
10.752
11
14.093
21
11.241
0
0
LINE
8
0
10
14.093
20
11.967
11
14.093
21
12.553
0
0
LINE
8
0
10
14.093
20
12.553
11
14.093
21
13.040
0
0
LINE
8
0
10
14.093
20
13.768
11
14.093
21
14.190
0
0
LINE
8
0
10
14.593
20
1.740
11
14.593
21
2.325
0
0
LINE
8
0
10
14.593
20
1.740
11
14.593
21
2.325
0
0
LINE
8
0
10
14.593
20
2.325
11
14.593
21
2.813
0
0
LINE
8
0
10
14.593
20
3.539
11
14.593
21
4.125
0
0
LINE
8
0
10
14.593
20
4.125
11
14.593
21
4.614
0
0
LINE
8
0
10
14.593
20
5.340
11
14.593
21
5.925
0
0
LINE
8
0
10
14.593
20
5.925
11
14.593
21
6.413
0
0
LINE
8
0
10
14.593
20
7.139
11
14.593
21
7.725
0
0
LINE
8
0
10
14.593
20
7.725
11
14.593
21
8.213
0
0
LINE
8
0
10
14.593
20
8.940
11
14.593
21
9.525
0
0
LINE
8
0
10
14.593
20
9.525
11
14.593
21
10.014
0
0
LINE
8
0
10
14.593
20
10.739
11
14.593
21
11.228
0
0
LINE
8
0
10
14.593
20
11.228
11
14.593
21
11.813
0
0
LINE
8
0
10
14.593
20
12.540
11
14.593
21
13.125
0
0
LINE
8
0
10
14.593
20
13.125
11
14.593
21
13.614
0
0
LINE
8
0
10
14.593
20
14.339
11
14.593
21
14.539
0
0
LINE
8
0
10
14.593
20
14.539
11
14.593
21
14.540
0
0
LINE
8
0
10
1.234
20
0.592
11
1.272
21
0.592
0
0
LINE
8
0
10
1.234
20
0.592
11
1.272
21
0.592
0
0
LINE
8
0
10
1.544
20
0.592
11
2.032
21
0.592
0
0
LINE
8
0
10
2.032
20
0.592
11
2.618
21
0.592
0
0
LINE
8
0
10
3.345
20
0.592
11
3.833
21
0.592
0
0
LINE
8
0
10
3.833
20
0.592
11
4.418
21
0.592
0
0
LINE
8
0
10
5.144
20
0.592
11
5.633
21
0.592
0
0
LINE
8
0
10
5.633
20
0.592
11
6.218
21
0.592
0
0
LINE
8
0
10
6.944
20
0.592
11
7.529
21
0.592
0
0
LINE
8
0
10
7.529
20
0.592
11
8.018
21
0.592
0
0
LINE
8
0
10
8.745
20
0.592
11
9.232
21
0.592
0
0
LINE
8
0
10
9.232
20
0.592
11
9.818
21
0.592
0
0
LINE
8
0
10
10.544
20
0.592
11
11.130
21
0.592
0
0
LINE
8
0
10
11.130
20
0.592
11
11.617
21
0.592
0
0
LINE
8
0
10
12.345
20
0.592
11
12.832
21
0.592
0
0
LINE
8
0
10
12.832
20
0.592
11
13.418
21
0.592
0
0
LINE
8
0
10
1.039
20
1.092
11
1.423
21
1.092
0
0
LINE
8
0
10
1.039
20
1.092
11
1.423
21
1.092
0
0
LINE
8
0
10
2.151
20
1.092
11
2.639
21
1.092
0
0
LINE
8
0
10
2.639
20
1.092
11
3.224
21
1.092
0
0
LINE
8
0
10
3.950
20
1.092
11
4.439
21
1.092
0
0
LINE
8
0
10
4.439
20
1.092
11
5.024
21
1.092
0
0
LINE
8
0
10
5.750
20
1.092
11
6.335
21
1.092
0
0
LINE
8
0
10
6.335
20
1.092
11
6.824
21
1.092
0
0
LINE
8
0
10
7.551
20
1.092
11
8.136
21
1.092
0
0
LINE
8
0
10
8.136
20
1.092
11
8.623
21
1.092
0
0
LINE
8
0
10
9.351
20
1.092
11
9.838
21
1.092
0
0
LINE
8
0
10
9.838
20
1.092
11
10.424
21
1.092
0
0
LINE
8
0
10
11.150
20
1.092
11
11.736
21
1.092
0
0
LINE
8
0
10
11.736
20
1.092
11
12.223
21
1.092
0
0
LINE
8
0
10
12.950
20
1.092
11
13.438
21
1.092
0
0
LINE
8
0
10
13.438
20
1.092
11
14.024
21
1.092
0
0
LINE
8
0
10
1.065
20
1.592
11
1.550
21
1.592
0
0
LINE
8
0
10
1.065
20
1.592
11
1.550
21
1.592
0
0
LINE
8
0
10
2.277
20
1.592
11
2.765
21
1.592
0
0
LINE
8
0
10
2.765
20
1.592
11
3.350
21
1.592
0
0
LINE
8
0
10
4.077
20
1.592
11
4.662
21
1.592
0
0
LINE
8
0
10
4.662
20
1.592
11
5.151
21
1.592
0
0
LINE
8
0
10
5.878
20
1.592
11
6.365
21
1.592
0
0
LINE
8
0
10
6.365
20
1.592
11
6.950
21
1.592
0
0
LINE
8
0
10
7.678
20
1.592
11
8.262
21
1.592
0
0
LINE
8
0
10
8.262
20
1.592
11
8.751
21
1.592
0
0
LINE
8
0
10
9.477
20
1.592
11
10.062
21
1.592
0
0
LINE
8
0
10
10.062
20
1.592
11
10.550
21
1.592
0
0
LINE
8
0
10
11.277
20
1.592
11
11.765
21
1.592
0
0
LINE
8
0
10
11.765
20
1.592
11
12.351
21
1.592
0
0
LINE
8
0
10
13.078
20
1.592
11
13.566
21
1.592
0
0
LINE
8
0
10
13.566
20
1.592
11
14.150
21
1.592
0
0
LINE
8
0
10
1.079
20
2.092
11
1.615
21
2.092
0
0
LINE
8
0
10
1.079
20
2.092
11
1.615
21
2.092
0
0
LINE
8
0
10
2.341
20
2.092
11
2.829
21
2.092
0
0
LINE
8
0
10
2.829
20
2.092
11
3.414
21
2.092
0
0
LINE
8
0
10
4.141
20
2.092
11
4.726
21
2.092
0
0
LINE
8
0
10
4.726
20
2.092
11
5.215
21
2.092
0
0
LINE
8
0
10
5.941
20
2.092
11
6.527
21
2.092
0
0
LINE
8
0
10
6.527
20
2.092
11
7.014
21
2.092
0
0
LINE
8
0
10
7.742
20
2.092
11
8.326
21
2.092
0
0
LINE
8
0
10
8.326
20
2.092
11
8.815
21
2.092
0
0
LINE
8
0
10
9.541
20
2.092
11
10.127
21
2.092
0
0
LINE
8
0
10
10.127
20
2.092
11
10.614
21
2.092
0
0
LINE
8
0
10
11.341
20
2.092
11
11.829
21
2.092
0
0
LINE
8
0
10
11.829
20
2.092
11
12.415
21
2.092
0
0
LINE
8
0
10
13.142
20
2.092
11
13.630
21
2.092
0
0
LINE
8
0
10
13.630
20
2.092
11
14.214
21
2.092
0
0
LINE
8
0
10
1.084
20
2.592
11
1.625
21
2.592
0
0
LINE
8
0
10
1.084
20
2.592
11
1.625
21
2.592
0
0
LINE
8
0
10
2.353
20
2.592
11
2.841
21
2.592
0
0
LINE
8
0
10
2.841
20
2.592
11
3.425
21
2.592
0
0
LINE
8
0
10
4.152
20
2.592
11
4.641
21
2.592
0
0
LINE
8
0
10
4.641
20
2.592
11
5.226
21
2.592
0
0
LINE
8
0
10
5.952
20
2.592
11
6.537
21
2.592
0
0
LINE
8
0
10
6.537
20
2.592
11
7.026
21
2.592
0
0
LINE
8
0
10
7.753
20
2.592
11
8.241
21
2.592
0
0
LINE
8
0
10
8.241
20
2.592
11
8.825
21
2.592
0
0
LINE
8
0
10
9.553
20
2.592
11
10.040
21
2.592
0
0
LINE
8
0
10
10.040
20
2.592
11
10.626
21
2.592
0
0
LINE
8
0
10
11.352
20
2.592
11
11.841
21
2.592
0
0
LINE
8
0
10
11.841
20
2.592
11
12.425
21
2.592
0
0
LINE
8
0
10
13.152
20
2.592
11
13.640
21
2.592
0
0
LINE
8
0
10
13.640
20
2.592
11
14.226
21
2.592
0
0
LINE
8
0
10
1.078
20
3.092
11
1.609
21
3.092
0
0
LINE
8
0
10
1.078
20
3.092
11
1.609
21
3.092
0
0
LINE
8
0
10
2.336
20
3.092
11
2.921
21
3.092
0
0
LINE
8
0
10
2.921
20
3.092
11
3.409
21
3.092
0
0
LINE
8
0
10
4.136
20
3.092
11
4.721
21
3.092
0
0
LINE
8
0
10
4.721
20
3.092
11
5.208
21
3.092
0
0
LINE
8
0
10
5.936
20
3.092
11
6.423
21
3.092
0
0
LINE
8
0
10
6.423
20
3.092
11
7.008
21
3.092
0
0
LINE
8
0
10
7.736
20
3.092
11
8.320
21
3.092
0
0
LINE
8
0
10
8.320
20
3.092
11
8.809
21
3.092
0
0
LINE
8
0
10
9.536
20
3.092
11
10.024
21
3.092
0
0
LINE
8
0
10
10.024
20
3.092
11
10.608
21
3.092
0
0
LINE
8
0
10
11.335
20
3.092
11
11.823
21
3.092
0
0
LINE
8
0
10
11.823
20
3.092
11
12.409
21
3.092
0
0
LINE
8
0
10
13.136
20
3.092
11
13.623
21
3.092
0
0
LINE
8
0
10
13.623
20
3.092
11
14.209
21
3.092
0
0
LINE
8
0
10
1.073
20
3.592
11
1.591
21
3.592
0
0
LINE
8
0
10
1.073
20
3.592
11
1.591
21
3.592
0
0
LINE
8
0
10
2.317
20
3.592
11
2.805
21
3.592
0
0
LINE
8
0
10
2.805
20
3.592
11
3.390
21
3.592
0
0
LINE
8
0
10
4.117
20
3.592
11
4.702
21
3.592
0
0
LINE
8
0
10
4.702
20
3.592
11
5.191
21
3.592
0
0
LINE
8
0
10
5.918
20
3.592
11
6.503
21
3.592
0
0
LINE
8
0
10
6.503
20
3.592
11
6.990
21
3.592
0
0
LINE
8
0
10
7.718
20
3.592
11
8.303
21
3.592
0
0
LINE
8
0
10
8.303
20
3.592
11
8.790
21
3.592
0
0
LINE
8
0
10
9.518
20
3.592
11
10.005
21
3.592
0
0
LINE
8
0
10
10.005
20
3.592
11
10.591
21
3.592
0
0
LINE
8
0
10
11.318
20
3.592
11
11.806
21
3.592
0
0
LINE
8
0
10
11.806
20
3.592
11
12.390
21
3.592
0
0
LINE
8
0
10
13.117
20
3.592
11
13.605
21
3.592
0
0
LINE
8
0
10
13.605
20
3.592
11
14.191
21
3.592
0
0
LINE
8
0
10
1.066
20
4.092
11
1.573
21
4.092
0
0
LINE
8
0
10
1.066
20
4.092
11
1.573
21
4.092
0
0
LINE
8
0
10
2.300
20
4.092
11
2.788
21
4.092
0
0
LINE
8
0
10
2.788
20
4.092
11
3.373
21
4.092
0
0
LINE
8
0
10
4.099
20
4.092
11
4.588
21
4.092
0
0
LINE
8
0
10
4.588
20
4.092
11
5.173
21
4.092
0
0
LINE
8
0
10
5.899
20
4.092
11
6.388
21
4.092
0
0
LINE
8
0
10
6.388
20
4.092
11
6.973
21
4.092
0
0
LINE
8
0
10
7.699
20
4.092
11
8.285
21
4.092
0
0
LINE
8
0
10
8.285
20
4.092
11
8.774
21
4.092
0
0
LINE
8
0
10
9.499
20
4.092
11
9.988
21
4.092
0
0
LINE
8
0
10
9.988
20
4.092
11
10.573
21
4.092
0
0
LINE
8
0
10
11.300
20
4.092
11
11.788
21
4.092
0
0
LINE
8
0
10
11.788
20
4.092
11
12.373
21
4.092
0
0
LINE
8
0
10
13.100
20
4.092
11
13.588
21
4.092
0
0
LINE
8
0
10
13.588
20
4.092
11
14.174
21
4.092
0
0
LINE
8
0
10
1.061
20
4.592
11
1.556
21
4.592
0
0
LINE
8
0
10
1.061
20
4.592
11
1.556
21
4.592
0
0
LINE
8
0
10
2.283
20
4.592
11
2.771
21
4.592
0
0
LINE
8
0
10
2.771
20
4.592
11
3.356
21
4.592
0
0
LINE
8
0
10
4.082
20
4.592
11
4.668
21
4.592
0
0
LINE
8
0
10
4.668
20
4.592
11
5.155
21
4.592
0
0
LINE
8
0
10
5.883
20
4.592
11
6.370
21
4.592
0
0
LINE
8
0
10
6.370
20
4.592
11
6.955
21
4.592
0
0
LINE
8
0
10
7.683
20
4.592
11
8.268
21
4.592
0
0
LINE
8
0
10
8.268
20
4.592
11
8.755
21
4.592
0
0
LINE
8
0
10
9.482
20
4.592
11
9.970
21
4.592
0
0
LINE
8
0
10
9.970
20
4.592
11
10.556
21
4.592
0
0
LINE
8
0
10
11.283
20
4.592
11
11.771
21
4.592
0
0
LINE
8
0
10
11.771
20
4.592
11
12.355
21
4.592
0
0
LINE
8
0
10
13.082
20
4.592
11
13.570
21
4.592
0
0
LINE
8
0
10
13.570
20
4.592
11
14.155
21
4.592
0
0
LINE
8
0
10
1.055
20
5.092
11
1.538
21
5.092
0
0
LINE
8
0
10
1.055
20
5.092
11
1.538
21
5.092
0
0
LINE
8
0
10
2.264
20
5.092
11
2.752
21
5.092
0
0
LINE
8
0
10
2.752
20
5.092
11
3.337
21
5.092
0
0
LINE
8
0
10
4.064
20
5.092
11
4.649
21
5.092
0
0
LINE
8
0
10
4.649
20
5.092
11
5.138
21
5.092
0
0
LINE
8
0
10
5.864
20
5.092
11
6.449
21
5.092
0
0
LINE
8
0
10
6.449
20
5.092
11
6.938
21
5.092
0
0
LINE
8
0
10
7.665
20
5.092
11
8.249
21
5.092
0
0
LINE
8
0
10
8.249
20
5.092
11
8.738
21
5.092
0
0
LINE
8
0
10
9.464
20
5.092
11
10.050
21
5.092
0
0
LINE
8
0
10
10.050
20
5.092
11
10.537
21
5.092
0
0
LINE
8
0
10
11.264
20
5.092
11
11.752
21
5.092
0
0
LINE
8
0
10
11.752
20
5.092
11
12.338
21
5.092
0
0
LINE
8
0
10
13.065
20
5.092
11
13.553
21
5.092
0
0
LINE
8
0
10
13.553
20
5.092
11
14.137
21
5.092
0
0
LINE
8
0
10
1.049
20
5.592
11
1.520
21
5.592
0
0
LINE
8
0
10
1.049
20
5.592
11
1.520
21
5.592
0
0
LINE
8
0
10
2.247
20
5.592
11
2.716
21
5.592
0
0
LINE
8
0
10
2.716
20
5.592
11
3.321
21
5.592
0
0
LINE
8
0
10
4.047
20
5.592
11
4.535
21
5.592
0
0
LINE
8
0
10
4.535
20
5.592
11
5.120
21
5.592
0
0
LINE
8
0
10
5.847
20
5.592
11
6.335
21
5.592
0
0
LINE
8
0
10
6.335
20
5.592
11
6.920
21
5.592
0
0
LINE
8
0
10
7.647
20
5.592
11
8.136
21
5.592
0
0
LINE
8
0
10
8.136
20
5.592
11
8.720
21
5.592
0
0
LINE
8
0
10
9.447
20
5.592
11
9.935
21
5.592
0
0
LINE
8
0
10
9.935
20
5.592
11
10.521
21
5.592
0
0
LINE
8
0
10
11.247
20
5.592
11
11.736
21
5.592
0
0
LINE
8
0
10
11.736
20
5.592
11
12.320
21
5.592
0
0
LINE
8
0
10
13.047
20
5.592
11
13.633
21
5.592
0
0
LINE
8
0
10
13.633
20
5.592
11
14.120
21
5.592
0
0
LINE
8
0
10
1.050
20
6.092
11
1.512
21
6.092
0
0
LINE
8
0
10
1.050
20
6.092
11
1.512
21
6.092
0
0
LINE
8
0
10
2.240
20
6.092
11
2.728
21
6.092
0
0
LINE
8
0
10
2.728
20
6.092
11
3.312
21
6.092
0
0
LINE
8
0
10
4.040
20
6.092
11
4.527
21
6.092
0
0
LINE
8
0
10
4.527
20
6.092
11
5.112
21
6.092
0
0
LINE
8
0
10
5.840
20
6.092
11
6.327
21
6.092
0
0
LINE
8
0
10
6.327
20
6.092
11
6.912
21
6.092
0
0
LINE
8
0
10
7.639
20
6.092
11
8.225
21
6.092
0
0
LINE
8
0
10
8.225
20
6.092
11
8.713
21
6.092
0
0
LINE
8
0
10
9.440
20
6.092
11
9.928
21
6.092
0
0
LINE
8
0
10
9.928
20
6.092
11
10.512
21
6.092
0
0
LINE
8
0
10
11.239
20
6.092
11
11.727
21
6.092
0
0
LINE
8
0
10
11.727
20
6.092
11
12.312
21
6.092
0
0
LINE
8
0
10
13.040
20
6.092
11
13.527
21
6.092
0
0
LINE
8
0
10
13.527
20
6.092
11
14.113
21
6.092
0
0
LINE
8
0
10
1.054
20
6.592
11
1.512
21
6.592
0
0
LINE
8
0
10
1.054
20
6.592
11
1.512
21
6.592
0
0
LINE
8
0
10
2.240
20
6.592
11
2.728
21
6.592
0
0
LINE
8
0
10
2.728
20
6.592
11
3.312
21
6.592
0
0
LINE
8
0
10
4.040
20
6.592
11
4.527
21
6.592
0
0
LINE
8
0
10
4.527
20
6.592
11
5.112
21
6.592
0
0
LINE
8
0
10
5.840
20
6.592
11
6.327
21
6.592
0
0
LINE
8
0
10
6.327
20
6.592
11
6.912
21
6.592
0
0
LINE
8
0
10
7.639
20
6.592
11
8.225
21
6.592
0
0
LINE
8
0
10
8.225
20
6.592
11
8.713
21
6.592
0
0
LINE
8
0
10
9.440
20
6.592
11
9.928
21
6.592
0
0
LINE
8
0
10
9.928
20
6.592
11
10.512
21
6.592
0
0
LINE
8
0
10
11.239
20
6.592
11
11.727
21
6.592
0
0
LINE
8
0
10
11.727
20
6.592
11
12.312
21
6.592
0
0
LINE
8
0
10
13.040
20
6.592
11
13.527
21
6.592
0
0
LINE
8
0
10
13.527
20
6.592
11
14.113
21
6.592
0
0
LINE
8
0
10
1.059
20
7.092
11
1.512
21
7.092
0
0
LINE
8
0
10
1.059
20
7.092
11
1.512
21
7.092
0
0
LINE
8
0
10
2.240
20
7.092
11
2.728
21
7.092
0
0
LINE
8
0
10
2.728
20
7.092
11
3.312
21
7.092
0
0
LINE
8
0
10
4.040
20
7.092
11
4.527
21
7.092
0
0
LINE
8
0
10
4.527
20
7.092
11
5.112
21
7.092
0
0
LINE
8
0
10
5.840
20
7.092
11
6.327
21
7.092
0
0
LINE
8
0
10
6.327
20
7.092
11
6.912
21
7.092
0
0
LINE
8
0
10
7.639
20
7.092
11
8.225
21
7.092
0
0
LINE
8
0
10
8.225
20
7.092
11
8.713
21
7.092
0
0
LINE
8
0
10
9.440
20
7.092
11
9.928
21
7.092
0
0
LINE
8
0
10
9.928
20
7.092
11
10.512
21
7.092
0
0
LINE
8
0
10
11.239
20
7.092
11
11.727
21
7.092
0
0
LINE
8
0
10
11.727
20
7.092
11
12.312
21
7.092
0
0
LINE
8
0
10
13.040
20
7.092
11
13.527
21
7.092
0
0
LINE
8
0
10
13.527
20
7.092
11
14.113
21
7.092
0
0
LINE
8
0
10
1.064
20
7.592
11
1.512
21
7.592
0
0
LINE
8
0
10
1.064
20
7.592
11
1.512
21
7.592
0
0
LINE
8
0
10
2.240
20
7.592
11
2.728
21
7.592
0
0
LINE
8
0
10
2.728
20
7.592
11
3.312
21
7.592
0
0
LINE
8
0
10
4.040
20
7.592
11
4.527
21
7.592
0
0
LINE
8
0
10
4.527
20
7.592
11
5.112
21
7.592
0
0
LINE
8
0
10
5.840
20
7.592
11
6.327
21
7.592
0
0
LINE
8
0
10
6.327
20
7.592
11
6.912
21
7.592
0
0
LINE
8
0
10
7.639
20
7.592
11
8.127
21
7.592
0
0
LINE
8
0
10
8.127
20
7.592
11
8.713
21
7.592
0
0
LINE
8
0
10
9.440
20
7.592
11
9.928
21
7.592
0
0
LINE
8
0
10
9.928
20
7.592
11
10.512
21
7.592
0
0
LINE
8
0
10
11.239
20
7.592
11
11.727
21
7.592
0
0
LINE
8
0
10
11.727
20
7.592
11
12.312
21
7.592
0
0
LINE
8
0
10
13.040
20
7.592
11
13.527
21
7.592
0
0
LINE
8
0
10
13.527
20
7.592
11
14.113
21
7.592
0
0
LINE
8
0
10
1.064
20
8.092
11
1.512
21
8.092
0
0
LINE
8
0
10
1.064
20
8.092
11
1.512
21
8.092
0
0
LINE
8
0
10
2.240
20
8.092
11
2.728
21
8.092
0
0
LINE
8
0
10
2.728
20
8.092
11
3.312
21
8.092
0
0
LINE
8
0
10
4.040
20
8.092
11
4.527
21
8.092
0
0
LINE
8
0
10
4.527
20
8.092
11
5.112
21
8.092
0
0
LINE
8
0
10
5.840
20
8.092
11
6.327
21
8.092
0
0
LINE
8
0
10
6.327
20
8.092
11
6.912
21
8.092
0
0
LINE
8
0
10
7.639
20
8.092
11
8.225
21
8.092
0
0
LINE
8
0
10
8.225
20
8.092
11
8.713
21
8.092
0
0
LINE
8
0
10
9.440
20
8.092
11
9.928
21
8.092
0
0
LINE
8
0
10
9.928
20
8.092
11
10.512
21
8.092
0
0
LINE
8
0
10
11.239
20
8.092
11
11.727
21
8.092
0
0
LINE
8
0
10
11.727
20
8.092
11
12.312
21
8.092
0
0
LINE
8
0
10
13.040
20
8.092
11
13.527
21
8.092
0
0
LINE
8
0
10
13.527
20
8.092
11
14.113
21
8.092
0
0
LINE
8
0
10
1.058
20
8.592
11
1.512
21
8.592
0
0
LINE
8
0
10
1.058
20
8.592
11
1.512
21
8.592
0
0
LINE
8
0
10
2.240
20
8.592
11
2.728
21
8.592
0
0
LINE
8
0
10
2.728
20
8.592
11
3.312
21
8.592
0
0
LINE
8
0
10
4.040
20
8.592
11
4.527
21
8.592
0
0
LINE
8
0
10
4.527
20
8.592
11
5.112
21
8.592
0
0
LINE
8
0
10
5.840
20
8.592
11
6.327
21
8.592
0
0
LINE
8
0
10
6.327
20
8.592
11
6.912
21
8.592
0
0
LINE
8
0
10
7.639
20
8.592
11
8.225
21
8.592
0
0
LINE
8
0
10
8.225
20
8.592
11
8.713
21
8.592
0
0
LINE
8
0
10
9.440
20
8.592
11
9.928
21
8.592
0
0
LINE
8
0
10
9.928
20
8.592
11
10.512
21
8.592
0
0
LINE
8
0
10
11.239
20
8.592
11
11.727
21
8.592
0
0
LINE
8
0
10
11.727
20
8.592
11
12.312
21
8.592
0
0
LINE
8
0
10
13.040
20
8.592
11
13.527
21
8.592
0
0
LINE
8
0
10
13.527
20
8.592
11
14.113
21
8.592
0
0
LINE
8
0
10
1.052
20
9.092
11
1.512
21
9.092
0
0
LINE
8
0
10
1.052
20
9.092
11
1.512
21
9.092
0
0
LINE
8
0
10
2.240
20
9.092
11
2.728
21
9.092
0
0
LINE
8
0
10
2.728
20
9.092
11
3.312
21
9.092
0
0
LINE
8
0
10
4.040
20
9.092
11
4.527
21
9.092
0
0
LINE
8
0
10
4.527
20
9.092
11
5.112
21
9.092
0
0
LINE
8
0
10
5.840
20
9.092
11
6.327
21
9.092
0
0
LINE
8
0
10
6.327
20
9.092
11
6.912
21
9.092
0
0
LINE
8
0
10
7.639
20
9.092
11
8.225
21
9.092
0
0
LINE
8
0
10
8.225
20
9.092
11
8.713
21
9.092
0
0
LINE
8
0
10
9.440
20
9.092
11
9.928
21
9.092
0
0
LINE
8
0
10
9.928
20
9.092
11
10.512
21
9.092
0
0
LINE
8
0
10
11.239
20
9.092
11
11.727
21
9.092
0
0
LINE
8
0
10
11.727
20
9.092
11
12.312
21
9.092
0
0
LINE
8
0
10
13.040
20
9.092
11
13.527
21
9.092
0
0
LINE
8
0
10
13.527
20
9.092
11
14.113
21
9.092
0
0
LINE
8
0
10
1.046
20
9.592
11
1.512
21
9.592
0
0
LINE
8
0
10
1.046
20
9.592
11
1.512
21
9.592
0
0
LINE
8
0
10
2.240
20
9.592
11
2.728
21
9.592
0
0
LINE
8
0
10
2.728
20
9.592
11
3.312
21
9.592
0
0
LINE
8
0
10
4.040
20
9.592
11
4.527
21
9.592
0
0
LINE
8
0
10
4.527
20
9.592
11
5.112
21
9.592
0
0
LINE
8
0
10
5.840
20
9.592
11
6.327
21
9.592
0
0
LINE
8
0
10
6.327
20
9.592
11
6.912
21
9.592
0
0
LINE
8
0
10
7.639
20
9.592
11
8.225
21
9.592
0
0
LINE
8
0
10
8.225
20
9.592
11
8.713
21
9.592
0
0
LINE
8
0
10
9.440
20
9.592
11
9.928
21
9.592
0
0
LINE
8
0
10
9.928
20
9.592
11
10.512
21
9.592
0
0
LINE
8
0
10
11.239
20
9.592
11
11.727
21
9.592
0
0
LINE
8
0
10
11.727
20
9.592
11
12.312
21
9.592
0
0
LINE
8
0
10
13.040
20
9.592
11
13.527
21
9.592
0
0
LINE
8
0
10
13.527
20
9.592
11
14.113
21
9.592
0
0
LINE
8
0
10
1.040
20
10.092
11
1.512
21
10.092
0
0
LINE
8
0
10
1.040
20
10.092
11
1.512
21
10.092
0
0
LINE
8
0
10
2.240
20
10.092
11
2.728
21
10.092
0
0
LINE
8
0
10
2.728
20
10.092
11
3.312
21
10.092
0
0
LINE
8
0
10
4.040
20
10.092
11
4.527
21
10.092
0
0
LINE
8
0
10
4.527
20
10.092
11
5.112
21
10.092
0
0
LINE
8
0
10
5.840
20
10.092
11
6.327
21
10.092
0
0
LINE
8
0
10
6.327
20
10.092
11
6.912
21
10.092
0
0
LINE
8
0
10
7.639
20
10.092
11
8.225
21
10.092
0
0
LINE
8
0
10
8.225
20
10.092
11
8.713
21
10.092
0
0
LINE
8
0
10
9.440
20
10.092
11
9.928
21
10.092
0
0
LINE
8
0
10
9.928
20
10.092
11
10.512
21
10.092
0
0
LINE
8
0
10
11.239
20
10.092
11
11.727
21
10.092
0
0
LINE
8
0
10
11.727
20
10.092
11
12.312
21
10.092
0
0
LINE
8
0
10
13.040
20
10.092
11
13.527
21
10.092
0
0
LINE
8
0
10
13.527
20
10.092
11
14.113
21
10.092
0
0
LINE
8
0
10
1.034
20
10.592
11
1.512
21
10.592
0
0
LINE
8
0
10
1.034
20
10.592
11
1.512
21
10.592
0
0
LINE
8
0
10
2.240
20
10.592
11
2.728
21
10.592
0
0
LINE
8
0
10
2.728
20
10.592
11
3.312
21
10.592
0
0
LINE
8
0
10
4.040
20
10.592
11
4.527
21
10.592
0
0
LINE
8
0
10
4.527
20
10.592
11
5.112
21
10.592
0
0
LINE
8
0
10
5.840
20
10.592
11
6.327
21
10.592
0
0
LINE
8
0
10
6.327
20
10.592
11
6.912
21
10.592
0
0
LINE
8
0
10
7.639
20
10.592
11
8.225
21
10.592
0
0
LINE
8
0
10
8.225
20
10.592
11
8.713
21
10.592
0
0
LINE
8
0
10
9.440
20
10.592
11
9.928
21
10.592
0
0
LINE
8
0
10
9.928
20
10.592
11
10.512
21
10.592
0
0
LINE
8
0
10
11.239
20
10.592
11
11.727
21
10.592
0
0
LINE
8
0
10
11.727
20
10.592
11
12.312
21
10.592
0
0
LINE
8
0
10
13.040
20
10.592
11
13.527
21
10.592
0
0
LINE
8
0
10
13.527
20
10.592
11
14.113
21
10.592
0
0
LINE
8
0
10
1.028
20
11.092
11
1.512
21
11.092
0
0
LINE
8
0
10
1.028
20
11.092
11
1.512
21
11.092
0
0
LINE
8
0
10
2.240
20
11.092
11
2.728
21
11.092
0
0
LINE
8
0
10
2.728
20
11.092
11
3.312
21
11.092
0
0
LINE
8
0
10
4.040
20
11.092
11
4.527
21
11.092
0
0
LINE
8
0
10
4.527
20
11.092
11
5.112
21
11.092
0
0
LINE
8
0
10
5.840
20
11.092
11
6.327
21
11.092
0
0
LINE
8
0
10
6.327
20
11.092
11
6.912
21
11.092
0
0
LINE
8
0
10
7.639
20
11.092
11
8.225
21
11.092
0
0
LINE
8
0
10
8.225
20
11.092
11
8.713
21
11.092
0
0
LINE
8
0
10
9.440
20
11.092
11
9.928
21
11.092
0
0
LINE
8
0
10
9.928
20
11.092
11
10.512
21
11.092
0
0
LINE
8
0
10
11.239
20
11.092
11
11.727
21
11.092
0
0
LINE
8
0
10
11.727
20
11.092
11
12.312
21
11.092
0
0
LINE
8
0
10
13.040
20
11.092
11
13.527
21
11.092
0
0
LINE
8
0
10
13.527
20
11.092
11
14.113
21
11.092
0
0
LINE
8
0
10
1.022
20
11.592
11
1.512
21
11.592
0
0
LINE
8
0
10
1.022
20
11.592
11
1.512
21
11.592
0
0
LINE
8
0
10
2.240
20
11.592
11
2.728
21
11.592
0
0
LINE
8
0
10
2.728
20
11.592
11
3.312
21
11.592
0
0
LINE
8
0
10
4.040
20
11.592
11
4.527
21
11.592
0
0
LINE
8
0
10
4.527
20
11.592
11
5.112
21
11.592
0
0
LINE
8
0
10
5.840
20
11.592
11
6.327
21
11.592
0
0
LINE
8
0
10
6.327
20
11.592
11
6.912
21
11.592
0
0
LINE
8
0
10
7.639
20
11.592
11
8.225
21
11.592
0
0
LINE
8
0
10
8.225
20
11.592
11
8.713
21
11.592
0
0
LINE
8
0
10
9.440
20
11.592
11
9.928
21
11.592
0
0
LINE
8
0
10
9.928
20
11.592
11
10.512
21
11.592
0
0
LINE
8
0
10
11.239
20
11.592
11
11.727
21
11.592
0
0
LINE
8
0
10
11.727
20
11.592
11
12.312
21
11.592
0
0
LINE
8
0
10
13.040
20
11.592
11
13.527
21
11.592
0
0
LINE
8
0
10
13.527
20
11.592
11
14.113
21
11.592
0
0
LINE
8
0
10
1.016
20
12.092
11
1.512
21
12.092
0
0
LINE
8
0
10
1.016
20
12.092
11
1.512
21
12.092
0
0
LINE
8
0
10
2.240
20
12.092
11
2.728
21
12.092
0
0
LINE
8
0
10
2.728
20
12.092
11
3.312
21
12.092
0
0
LINE
8
0
10
4.040
20
12.092
11
4.527
21
12.092
0
0
LINE
8
0
10
4.527
20
12.092
11
5.112
21
12.092
0
0
LINE
8
0
10
5.840
20
12.092
11
6.327
21
12.092
0
0
LINE
8
0
10
6.327
20
12.092
11
6.912
21
12.092
0
0
LINE
8
0
10
7.639
20
12.092
11
8.225
21
12.092
0
0
LINE
8
0
10
8.225
20
12.092
11
8.713
21
12.092
0
0
LINE
8
0
10
9.440
20
12.092
11
9.928
21
12.092
0
0
LINE
8
0
10
9.928
20
12.092
11
10.512
21
12.092
0
0
LINE
8
0
10
11.239
20
12.092
11
11.727
21
12.092
0
0
LINE
8
0
10
11.727
20
12.092
11
12.312
21
12.092
0
0
LINE
8
0
10
13.040
20
12.092
11
13.527
21
12.092
0
0
LINE
8
0
10
13.527
20
12.092
11
14.113
21
12.092
0
0
LINE
8
0
10
1.010
20
12.592
11
1.512
21
12.592
0
0
LINE
8
0
10
1.010
20
12.592
11
1.512
21
12.592
0
0
LINE
8
0
10
2.240
20
12.592
11
2.728
21
12.592
0
0
LINE
8
0
10
2.728
20
12.592
11
3.312
21
12.592
0
0
LINE
8
0
10
4.040
20
12.592
11
4.527
21
12.592
0
0
LINE
8
0
10
4.527
20
12.592
11
5.112
21
12.592
0
0
LINE
8
0
10
5.840
20
12.592
11
6.327
21
12.592
0
0
LINE
8
0
10
6.327
20
12.592
11
6.912
21
12.592
0
0
LINE
8
0
10
7.639
20
12.592
11
8.225
21
12.592
0
0
LINE
8
0
10
8.225
20
12.592
11
8.713
21
12.592
0
0
LINE
8
0
10
9.440
20
12.592
11
9.928
21
12.592
0
0
LINE
8
0
10
9.928
20
12.592
11
10.512
21
12.592
0
0
LINE
8
0
10
11.239
20
12.592
11
11.727
21
12.592
0
0
LINE
8
0
10
11.727
20
12.592
11
12.312
21
12.592
0
0
LINE
8
0
10
13.040
20
12.592
11
13.527
21
12.592
0
0
LINE
8
0
10
13.527
20
12.592
11
14.113
21
12.592
0
0
LINE
8
0
10
1.015
20
13.092
11
1.512
21
13.092
0
0
LINE
8
0
10
1.015
20
13.092
11
1.512
21
13.092
0
0
LINE
8
0
10
2.240
20
13.092
11
2.728
21
13.092
0
0
LINE
8
0
10
2.728
20
13.092
11
3.312
21
13.092
0
0
LINE
8
0
10
4.040
20
13.092
11
4.527
21
13.092
0
0
LINE
8
0
10
4.527
20
13.092
11
5.112
21
13.092
0
0
LINE
8
0
10
5.840
20
13.092
11
6.327
21
13.092
0
0
LINE
8
0
10
6.327
20
13.092
11
6.912
21
13.092
0
0
LINE
8
0
10
7.639
20
13.092
11
8.225
21
13.092
0
0
LINE
8
0
10
8.225
20
13.092
11
8.713
21
13.092
0
0
LINE
8
0
10
9.440
20
13.092
11
9.928
21
13.092
0
0
LINE
8
0
10
9.928
20
13.092
11
10.512
21
13.092
0
0
LINE
8
0
10
11.239
20
13.092
11
11.727
21
13.092
0
0
LINE
8
0
10
11.727
20
13.092
11
12.312
21
13.092
0
0
LINE
8
0
10
13.040
20
13.092
11
13.527
21
13.092
0
0
LINE
8
0
10
13.527
20
13.092
11
14.113
21
13.092
0
0
LINE
8
0
10
1.039
20
13.592
11
1.512
21
13.592
0
0
LINE
8
0
10
1.039
20
13.592
11
1.512
21
13.592
0
0
LINE
8
0
10
2.240
20
13.592
11
2.728
21
13.592
0
0
LINE
8
0
10
2.728
20
13.592
11
3.312
21
13.592
0
0
LINE
8
0
10
4.040
20
13.592
11
4.527
21
13.592
0
0
LINE
8
0
10
4.527
20
13.592
11
5.112
21
13.592
0
0
LINE
8
0
10
5.840
20
13.592
11
6.327
21
13.592
0
0
LINE
8
0
10
6.327
20
13.592
11
6.912
21
13.592
0
0
LINE
8
0
10
7.639
20
13.592
11
8.225
21
13.592
0
0
LINE
8
0
10
8.225
20
13.592
11
8.713
21
13.592
0
0
LINE
8
0
10
9.440
20
13.592
11
9.928
21
13.592
0
0
LINE
8
0
10
9.928
20
13.592
11
10.512
21
13.592
0
0
LINE
8
0
10
11.239
20
13.592
11
11.727
21
13.592
0
0
LINE
8
0
10
11.727
20
13.592
11
12.312
21
13.592
0
0
LINE
8
0
10
13.040
20
13.592
11
13.527
21
13.592
0
0
LINE
8
0
10
13.527
20
13.592
11
14.113
21
13.592
0
0
LINE
8
0
10
1.094
20
14.092
11
1.512
21
14.092
0
0
LINE
8
0
10
1.094
20
14.092
11
1.512
21
14.092
0
0
LINE
8
0
10
2.240
20
14.092
11
2.728
21
14.092
0
0
LINE
8
0
10
2.728
20
14.092
11
3.312
21
14.092
0
0
LINE
8
0
10
4.040
20
14.092
11
4.527
21
14.092
0
0
LINE
8
0
10
4.527
20
14.092
11
5.112
21
14.092
0
0
LINE
8
0
10
5.840
20
14.092
11
6.327
21
14.092
0
0
LINE
8
0
10
6.327
20
14.092
11
6.912
21
14.092
0
0
LINE
8
0
10
7.639
20
14.092
11
8.225
21
14.092
0
0
LINE
8
0
10
8.225
20
14.092
11
8.713
21
14.092
0
0
LINE
8
0
10
9.440
20
14.092
11
9.928
21
14.092
0
0
LINE
8
0
10
9.928
20
14.092
11
10.512
21
14.092
0
0
LINE
8
0
10
11.239
20
14.092
11
11.727
21
14.092
0
0
LINE
8
0
10
11.727
20
14.092
11
12.312
21
14.092
0
0
LINE
8
0
10
13.040
20
14.092
11
13.527
21
14.092
0
0
LINE
8
0
10
13.527
20
14.092
11
14.113
21
14.092
0
0
LINE
8
0
10
1.316
20
14.592
11
1.512
21
14.592
0
0
LINE
8
0
10
1.316
20
14.592
11
1.512
21
14.592
0
0
LINE
8
0
10
2.240
20
14.592
11
2.728
21
14.592
0
0
LINE
8
0
10
2.728
20
14.592
11
3.312
21
14.592
0
0
LINE
8
0
10
4.040
20
14.592
11
4.527
21
14.592
0
0
LINE
8
0
10
4.527
20
14.592
11
5.112
21
14.592
0
0
LINE
8
0
10
5.840
20
14.592
11
6.327
21
14.592
0
0
LINE
8
0
10
6.327
20
14.592
11
6.912
21
14.592
0
0
LINE
8
0
10
7.639
20
14.592
11
8.225
21
14.592
0
0
LINE
8
0
10
8.225
20
14.592
11
8.713
21
14.592
0
0
LINE
8
0
10
9.440
20
14.592
11
9.928
21
14.592
0
0
LINE
8
0
10
9.928
20
14.592
11
10.512
21
14.592
0
0
LINE
8
0
10
11.239
20
14.592
11
11.727
21
14.592
0
0
LINE
8
0
10
11.727
20
14.592
11
12.312
21
14.592
0
0
LINE
8
0
10
13.040
20
14.592
11
13.527
21
14.592
0
0
LINE
8
0
10
13.527
20
14.592
11
14.113
21
14.592
0
0
ENDSEC
0
EOF
