  0
SECTION
  2
HEADER
  9
$ACADVER
  1
AC1009
  9
$DWGCODEPAGE
  3
ANSI_1252
  9
$INSBASE
 10
0.0
 20
0.0
 30
0.0
  9
$EXTMIN
 10
1e+20
 20
1e+20
 30
1e+20
  9
$EXTMAX
 10
-1e+20
 20
-1e+20
 30
-1e+20
  9
$LIMMIN
 10
0.0
 20
0.0
  9
$LIMMAX
 10
420.0
 20
297.0
  9
$ORTHOMODE
 70
0
  9
$REGENMODE
 70
1
  9
$FILLMODE
 70
1
  9
$DRAGMODE
 70
2
  9
$QTEXTMODE
 70
0
  9
$MIRRTEXT
 70
1
  9
$OSMODE
 70
20583
  9
$LTSCALE
 40
1.0
  9
$ATTMODE
 70
1
  9
$TEXTSIZE
 40
2.5
  9
$TRACEWID
 40
1.0
  9
$TEXTSTYLE
  7
Standard
  9
$CLAYER
  8
0
  9
$CELTYPE
  6
ByLayer
  9
$CECOLOR
 62
256
  9
$DIMSCALE
 40
1.0
  9
$DIMASZ
 40
2.5
  9
$DIMEXO
 40
0.625
  9
$DIMDLI
 40
3.75
  9
$DIMRND
 40
0.0
  9
$DIMDLE
 40
0.0
  9
$DIMEXE
 40
1.25
  9
$DIMTP
 40
0.0
  9
$DIMTM
 40
0.0
  9
$DIMTXT
 40
2.5
  9
$DIMCEN
 40
2.5
  9
$DIMTSZ
 40
0.0
  9
$DIMTOL
 70
0
  9
$DIMLIM
 70
0
  9
$DIMTIH
 70
0
  9
$DIMTOH
 70
0
  9
$DIMSE1
 70
0
  9
$DIMSE2
 70
0
  9
$DIMTAD
 70
1
  9
$DIMZIN
 70
8
  9
$DIMBLK
  1

  9
$DIMASO
 70
1
  9
$DIMSHO
 70
1
  9
$DIMPOST
  1

  9
$DIMAPOST
  1

  9
$DIMALT
 70
0
  9
$DIMALTD
 70
3
  9
$DIMALTF
 40
0.03937007874
  9
$DIMLFAC
 40
1.0
  9
$DIMTOFL
 70
1
  9
$DIMTVP
 40
0.0
  9
$DIMTIX
 70
0
  9
$DIMSOXD
 70
0
  9
$DIMSAH
 70
0
  9
$DIMBLK1
  1

  9
$DIMBLK2
  1

  9
$DIMSTYLE
  2
ISO-25
  9
$DIMCLRD
 70
0
  9
$DIMCLRE
 70
0
  9
$DIMCLRT
 70
0
  9
$DIMTFAC
 40
1.0
  9
$DIMGAP
 40
0.625
  9
$COORDS
 70
1
  9
$ATTDIA
 70
0
  9
$ATTREQ
 70
1
  9
$HANDLING
 70
1
  9
$LUNITS
 70
2
  9
$LUPREC
 70
4
  9
$SKETCHINC
 40
1.0
  9
$FILLETRAD
 40
10.0
  9
$AUNITS
 70
0
  9
$AUPREC
 70
2
  9
$MENU
  1
.
  9
$ELEVATION
 40
0.0
  9
$PELEVATION
 40
0.0
  9
$THICKNESS
 40
0.0
  9
$LIMCHECK
 70
0
  9
$CHAMFERA
 40
0.0
  9
$CHAMFERB
 40
0.0
  9
$SKPOLY
 70
0
  9
$TDCREATE
 40
2460888.4284027778
  9
$TDUPDATE
 40
2460888.4284027778
  9
$TDINDWG
 40
0.0
  9
$TDUSRTIMER
 40
0.0
  9
$USRTIMER
 70
1
  9
$ANGBASE
 50
0.0
  9
$ANGDIR
 70
0
  9
$PDMODE
 70
0
  9
$PDSIZE
 40
0.0
  9
$PLINEWID
 40
0.0
  9
$SPLFRAME
 70
0
  9
$SPLINETYPE
 70
6
  9
$SPLINESEGS
 70
8
  9
$HANDSEED
  5
F3
  9
$SURFTAB1
 70
6
  9
$SURFTAB2
 70
6
  9
$SURFTYPE
 70
6
  9
$SURFU
 70
6
  9
$SURFV
 70
6
  9
$UCSNAME
  2

  9
$UCSORG
 10
0.0
 20
0.0
 30
0.0
  9
$UCSXDIR
 10
1.0
 20
0.0
 30
0.0
  9
$UCSYDIR
 10
0.0
 20
1.0
 30
0.0
  9
$PUCSNAME
  2

  9
$PUCSORG
 10
0.0
 20
0.0
 30
0.0
  9
$PUCSXDIR
 10
1.0
 20
0.0
 30
0.0
  9
$PUCSYDIR
 10
0.0
 20
1.0
 30
0.0
  9
$USERI1
 70
0
  9
$USERI2
 70
0
  9
$USERI3
 70
0
  9
$USERI4
 70
0
  9
$USERI5
 70
0
  9
$USERR1
 40
0.0
  9
$USERR2
 40
0.0
  9
$USERR3
 40
0.0
  9
$USERR4
 40
0.0
  9
$USERR5
 40
0.0
  9
$WORLDVIEW
 70
1
  9
$SHADEDGE
 70
3
  9
$SHADEDIF
 70
70
  9
$TILEMODE
 70
1
  9
$MAXACTVP
 70
64
  9
$PLIMCHECK
 70
0
  9
$PEXTMIN
 10
1e+20
 20
1e+20
 30
1e+20
  9
$PEXTMAX
 10
-1e+20
 20
-1e+20
 30
-1e+20
  9
$PLIMMIN
 10
0.0
 20
0.0
  9
$PLIMMAX
 10
420.0
 20
297.0
  9
$UNITMODE
 70
0
  9
$VISRETAIN
 70
1
  9
$PLINEGEN
 70
0
  9
$PSLTSCALE
 70
1
  0
ENDSEC
  0
SECTION
  2
TABLES
  0
TABLE
  2
VPORT
 70
1
  0
VPORT
  5
23
  2
*Active
 70
0
 10
0.0
 20
0.0
 11
1.0
 21
1.0
 12
0.0
 22
0.0
 13
0.0
 23
0.0
 14
0.5
 24
0.5
 15
0.5
 25
0.5
 16
0.0
 26
0.0
 36
1.0
 17
0.0
 27
0.0
 37
0.0
 40
1000.0
 41
1.34
 42
50.0
 43
0.0
 44
0.0
 50
0.0
 51
0.0
 71
0
 72
1000
 73
1
 74
3
 75
0
 76
0
 77
0
 78
0
  0
ENDTAB
  0
TABLE
  2
LTYPE
 70
3
  0
LTYPE
  5
24
  2
ByBlock
 70
0
  3

 72
65
 73
0
 40
0.0
  0
LTYPE
  5
25
  2
ByLayer
 70
0
  3

 72
65
 73
0
 40
0.0
  0
LTYPE
  5
26
  2
Continuous
 70
0
  3

 72
65
 73
0
 40
0.0
  0
ENDTAB
  0
TABLE
  2
LAYER
 70
2
  0
LAYER
  5
27
  2
0
 70
0
 62
7
  6
Continuous
  0
LAYER
  5
28
  2
Defpoints
 70
0
 62
7
  6
Continuous
  0
ENDTAB
  0
TABLE
  2
STYLE
 70
1
  0
STYLE
  5
29
  2
Standard
 70
0
 40
0.0
 41
1.0
 50
0.0
 71
0
 42
2.5
  3
txt
  4

  0
ENDTAB
  0
TABLE
  2
VIEW
 70
0
  0
ENDTAB
  0
TABLE
  2
UCS
 70
0
  0
ENDTAB
  0
TABLE
  2
APPID
 70
3
  0
APPID
  5
2A
  2
ACAD
 70
0
  0
APPID
  5
F1
  2
HATCHBACKGROUNDCOLOR
 70
0
  0
APPID
  5
F2
  2
EZDXF
 70
0
  0
ENDTAB
  0
TABLE
  2
DIMSTYLE
 70
1
  0
DIMSTYLE
105
2B
  2
Standard
 70
0
  3

  4

  5

  6

  7

 40
1.0
 41
2.5
 42
0.625
 43
3.75
 44
1.25
 45
0.0
 46
0.0
 47
0.0
 48
0.0
140
2.5
141
2.5
142
0.0
143
0.03937007874
144
1.0
145
0.0
146
1.0
147
0.625
 71
0
 72
0
 73
0
 74
0
 75
0
 76
0
 77
1
 78
8
170
0
171
3
172
1
173
0
174
0
175
0
176
0
177
0
178
0
  0
ENDTAB
  0
ENDSEC
  0
SECTION
  2
BLOCKS
  0
BLOCK
  5
18
  8
0
  2
$Model_Space
 70
0
 10
0.0
 20
0.0
 30
0.0
  3
$Model_Space
  1

1001
EZDXF
1000
CREATED_BY_EZDXF
1000
1.4.2 @ 2025-07-31T13:16:54.200269+00:00
1000
WRITTEN_BY_EZDXF
1000
1.4.2 @ 2025-07-31T13:16:54.215894+00:00
  0
ENDBLK
  5
19
  8
0
  0
BLOCK
  5
1C
  8
0
  2
$Paper_Space
 70
0
 10
0.0
 20
0.0
 30
0.0
  3
$Paper_Space
  1

  0
ENDBLK
  5
1D
  8
0
  0
ENDSEC
  0
SECTION
  2
ENTITIES
  0
LINE
  5
2D
  8
0
 10
14.941
 20
0.059
 30
0.0
 11
0.059
 21
0.059
 31
0.0
  0
LINE
  5
2E
  8
0
 10
0.059
 20
0.059
 30
0.0
 11
0.059
 21
14.941
 31
0.0
  0
LINE
  5
2F
  8
0
 10
0.059
 20
14.941
 30
0.0
 11
14.941
 21
14.941
 31
0.0
  0
LINE
  5
30
  8
0
 10
14.941
 20
14.941
 30
0.0
 11
14.941
 21
0.059
 31
0.0
  0
LINE
  5
31
  8
0
 10
14.941
 20
0.059
 30
0.0
 11
14.941
 21
0.059
 31
0.0
  0
LINE
  5
32
  8
0
 10
14.861
 20
0.139
 30
0.0
 11
0.139
 21
0.139
 31
0.0
  0
LINE
  5
33
  8
0
 10
0.139
 20
0.139
 30
0.0
 11
0.139
 21
14.861
 31
0.0
  0
LINE
  5
34
  8
0
 10
0.139
 20
14.861
 30
0.0
 11
14.861
 21
14.861
 31
0.0
  0
LINE
  5
35
  8
0
 10
14.861
 20
14.861
 30
0.0
 11
14.861
 21
0.139
 31
0.0
  0
LINE
  5
36
  8
0
 10
14.861
 20
0.139
 30
0.0
 11
14.861
 21
0.139
 31
0.0
  0
LINE
  5
37
  8
0
 10
14.781
 20
0.219
 30
0.0
 11
0.219
 21
0.219
 31
0.0
  0
LINE
  5
38
  8
0
 10
0.219
 20
0.219
 30
0.0
 11
0.219
 21
14.781
 31
0.0
  0
LINE
  5
39
  8
0
 10
0.219
 20
14.781
 30
0.0
 11
14.781
 21
14.781
 31
0.0
  0
LINE
  5
3A
  8
0
 10
14.781
 20
14.781
 30
0.0
 11
14.781
 21
0.219
 31
0.0
  0
LINE
  5
3B
  8
0
 10
14.781
 20
0.219
 30
0.0
 11
14.781
 21
0.219
 31
0.0
  0
LINE
  5
3C
  8
0
 10
0.299
 20
14.68614
 30
0.0
 11
3.13569
 21
14.701
 31
0.0
  0
LINE
  5
3D
  8
0
 10
14.701
 20
14.68155
 30
0.0
 11
0.299
 21
14.60615
 31
0.0
  0
LINE
  5
3E
  8
0
 10
0.299
 20
14.52615
 30
0.0
 11
14.701
 21
14.60155
 31
0.0
  0
LINE
  5
3F
  8
0
 10
14.701
 20
14.52155
 30
0.0
 11
0.299
 21
14.44614
 31
0.0
  0
LINE
  5
40
  8
0
 10
0.299
 20
14.36614
 30
0.0
 11
14.701
 21
14.44155
 31
0.0
  0
LINE
  5
41
  8
0
 10
14.701
 20
14.36155
 30
0.0
 11
0.299
 21
14.28614
 31
0.0
  0
LINE
  5
42
  8
0
 10
0.299
 20
14.20614
 30
0.0
 11
14.701
 21
14.28154
 31
0.0
  0
LINE
  5
43
  8
0
 10
14.701
 20
14.20155
 30
0.0
 11
0.299
 21
14.12614
 31
0.0
  0
LINE
  5
44
  8
0
 10
0.299
 20
14.04613
 30
0.0
 11
14.701
 21
14.12155
 31
0.0
  0
LINE
  5
45
  8
0
 10
14.701
 20
14.04155
 30
0.0
 11
0.299
 21
13.96613
 31
0.0
  0
LINE
  5
46
  8
0
 10
0.299
 20
13.88614
 30
0.0
 11
14.701
 21
13.96154
 31
0.0
  0
LINE
  5
47
  8
0
 10
14.701
 20
13.88154
 30
0.0
 11
0.299
 21
13.80614
 31
0.0
  0
LINE
  5
48
  8
0
 10
0.299
 20
13.72613
 30
0.0
 11
14.701
 21
13.80154
 31
0.0
  0
LINE
  5
49
  8
0
 10
14.701
 20
13.72154
 30
0.0
 11
0.299
 21
13.64613
 31
0.0
  0
LINE
  5
4A
  8
0
 10
0.299
 20
13.56613
 30
0.0
 11
14.701
 21
13.64154
 31
0.0
  0
LINE
  5
4B
  8
0
 10
14.701
 20
13.56154
 30
0.0
 11
0.299
 21
13.48613
 31
0.0
  0
LINE
  5
4C
  8
0
 10
0.299
 20
13.40613
 30
0.0
 11
14.701
 21
13.48154
 31
0.0
  0
LINE
  5
4D
  8
0
 10
14.701
 20
13.40154
 30
0.0
 11
0.299
 21
13.32612
 31
0.0
  0
LINE
  5
4E
  8
0
 10
0.299
 20
13.24613
 30
0.0
 11
14.701
 21
13.32154
 31
0.0
  0
LINE
  5
4F
  8
0
 10
14.701
 20
13.24153
 30
0.0
 11
0.299
 21
13.16613
 31
0.0
  0
LINE
  5
50
  8
0
 10
0.299
 20
13.08613
 30
0.0
 11
14.701
 21
13.16153
 31
0.0
  0
LINE
  5
51
  8
0
 10
14.701
 20
13.08153
 30
0.0
 11
0.299
 21
13.00612
 31
0.0
  0
LINE
  5
52
  8
0
 10
0.299
 20
12.92612
 30
0.0
 11
14.701
 21
13.00153
 31
0.0
  0
LINE
  5
53
  8
0
 10
14.701
 20
12.92153
 30
0.0
 11
0.299
 21
12.84612
 31
0.0
  0
LINE
  5
54
  8
0
 10
0.299
 20
12.76612
 30
0.0
 11
14.701
 21
12.84153
 31
0.0
  0
LINE
  5
55
  8
0
 10
14.701
 20
12.76153
 30
0.0
 11
0.299
 21
12.68612
 31
0.0
  0
LINE
  5
56
  8
0
 10
0.299
 20
12.60611
 30
0.0
 11
14.701
 21
12.68153
 31
0.0
  0
LINE
  5
57
  8
0
 10
14.701
 20
12.60153
 30
0.0
 11
0.299
 21
12.52612
 31
0.0
  0
LINE
  5
58
  8
0
 10
0.299
 20
12.44612
 30
0.0
 11
14.701
 21
12.52153
 31
0.0
  0
LINE
  5
59
  8
0
 10
14.701
 20
12.44152
 30
0.0
 11
0.299
 21
12.36612
 31
0.0
  0
LINE
  5
5A
  8
0
 10
0.299
 20
12.28611
 30
0.0
 11
14.701
 21
12.36152
 31
0.0
  0
LINE
  5
5B
  8
0
 10
14.701
 20
12.28152
 30
0.0
 11
0.299
 21
12.20611
 31
0.0
  0
LINE
  5
5C
  8
0
 10
0.299
 20
12.12611
 30
0.0
 11
14.701
 21
12.20152
 31
0.0
  0
LINE
  5
5D
  8
0
 10
14.701
 20
12.12152
 30
0.0
 11
0.299
 21
12.04611
 31
0.0
  0
LINE
  5
5E
  8
0
 10
0.299
 20
11.96611
 30
0.0
 11
14.701
 21
12.04152
 31
0.0
  0
LINE
  5
5F
  8
0
 10
14.701
 20
11.96152
 30
0.0
 11
0.299
 21
11.88611
 31
0.0
  0
LINE
  5
60
  8
0
 10
0.299
 20
11.80611
 30
0.0
 11
14.701
 21
11.88152
 31
0.0
  0
LINE
  5
61
  8
0
 10
14.701
 20
11.80152
 30
0.0
 11
0.299
 21
11.72611
 31
0.0
  0
LINE
  5
62
  8
0
 10
0.299
 20
11.64611
 30
0.0
 11
14.701
 21
11.72151
 31
0.0
  0
LINE
  5
63
  8
0
 10
14.701
 20
11.64151
 30
0.0
 11
0.299
 21
11.5661
 31
0.0
  0
LINE
  5
64
  8
0
 10
0.299
 20
11.4861
 30
0.0
 11
14.701
 21
11.56151
 31
0.0
  0
LINE
  5
65
  8
0
 10
14.701
 20
11.48152
 30
0.0
 11
0.299
 21
11.4061
 31
0.0
  0
LINE
  5
66
  8
0
 10
0.299
 20
11.3261
 30
0.0
 11
14.701
 21
11.40151
 31
0.0
  0
LINE
  5
67
  8
0
 10
14.701
 20
11.32151
 30
0.0
 11
0.299
 21
11.2461
 31
0.0
  0
LINE
  5
68
  8
0
 10
0.299
 20
11.1661
 30
0.0
 11
14.701
 21
11.24151
 31
0.0
  0
LINE
  5
69
  8
0
 10
14.701
 20
11.16151
 30
0.0
 11
0.299
 21
11.0861
 31
0.0
  0
LINE
  5
6A
  8
0
 10
0.299
 20
11.0061
 30
0.0
 11
14.701
 21
11.08151
 31
0.0
  0
LINE
  5
6B
  8
0
 10
14.701
 20
11.0015
 30
0.0
 11
0.299
 21
10.9261
 31
0.0
  0
LINE
  5
6C
  8
0
 10
0.299
 20
10.84609
 30
0.0
 11
14.701
 21
10.9215
 31
0.0
  0
LINE
  5
6D
  8
0
 10
14.701
 20
10.84151
 30
0.0
 11
0.299
 21
10.76609
 31
0.0
  0
LINE
  5
6E
  8
0
 10
0.299
 20
10.68609
 30
0.0
 11
14.701
 21
10.76151
 31
0.0
  0
LINE
  5
6F
  8
0
 10
14.701
 20
10.6815
 30
0.0
 11
0.299
 21
10.60609
 31
0.0
  0
LINE
  5
70
  8
0
 10
0.299
 20
10.5261
 30
0.0
 11
14.701
 21
10.6015
 31
0.0
  0
LINE
  5
71
  8
0
 10
14.701
 20
10.5215
 30
0.0
 11
0.299
 21
10.44609
 31
0.0
  0
LINE
  5
72
  8
0
 10
0.299
 20
10.36609
 30
0.0
 11
14.701
 21
10.4415
 31
0.0
  0
LINE
  5
73
  8
0
 10
14.701
 20
10.3615
 30
0.0
 11
0.299
 21
10.28609
 31
0.0
  0
LINE
  5
74
  8
0
 10
0.299
 20
10.20609
 30
0.0
 11
14.701
 21
10.28149
 31
0.0
  0
LINE
  5
75
  8
0
 10
14.701
 20
10.20149
 30
0.0
 11
0.299
 21
10.12608
 31
0.0
  0
LINE
  5
76
  8
0
 10
0.299
 20
10.04608
 30
0.0
 11
14.701
 21
10.1215
 31
0.0
  0
LINE
  5
77
  8
0
 10
14.701
 20
10.0415
 30
0.0
 11
0.299
 21
9.96608
 31
0.0
  0
LINE
  5
78
  8
0
 10
0.299
 20
9.88608
 30
0.0
 11
14.701
 21
9.96149
 31
0.0
  0
LINE
  5
79
  8
0
 10
14.701
 20
9.88149
 30
0.0
 11
0.299
 21
9.80609
 31
0.0
  0
LINE
  5
7A
  8
0
 10
0.299
 20
9.72608
 30
0.0
 11
14.701
 21
9.80149
 31
0.0
  0
LINE
  5
7B
  8
0
 10
14.701
 20
9.72149
 30
0.0
 11
0.299
 21
9.64608
 31
0.0
  0
LINE
  5
7C
  8
0
 10
0.299
 20
9.56608
 30
0.0
 11
14.701
 21
9.64149
 31
0.0
  0
LINE
  5
7D
  8
0
 10
14.701
 20
9.56148
 30
0.0
 11
0.299
 21
9.48608
 31
0.0
  0
LINE
  5
7E
  8
0
 10
0.299
 20
9.40608
 30
0.0
 11
14.701
 21
9.48149
 31
0.0
  0
LINE
  5
7F
  8
0
 10
14.701
 20
9.40149
 30
0.0
 11
0.299
 21
9.32607
 31
0.0
  0
LINE
  5
80
  8
0
 10
0.299
 20
9.24607
 30
0.0
 11
14.701
 21
9.32149
 31
0.0
  0
LINE
  5
81
  8
0
 10
14.701
 20
9.24149
 30
0.0
 11
0.299
 21
9.16608
 31
0.0
  0
LINE
  5
82
  8
0
 10
0.299
 20
9.08608
 30
0.0
 11
14.701
 21
9.16148
 31
0.0
  0
LINE
  5
83
  8
0
 10
14.701
 20
9.08148
 30
0.0
 11
0.299
 21
9.00607
 31
0.0
  0
LINE
  5
84
  8
0
 10
0.299
 20
8.92607
 30
0.0
 11
14.701
 21
9.00148
 31
0.0
  0
LINE
  5
85
  8
0
 10
14.701
 20
8.92148
 30
0.0
 11
0.299
 21
8.84607
 31
0.0
  0
LINE
  5
86
  8
0
 10
0.299
 20
8.76607
 30
0.0
 11
14.701
 21
8.84147
 31
0.0
  0
LINE
  5
87
  8
0
 10
14.701
 20
8.76148
 30
0.0
 11
0.299
 21
8.68607
 31
0.0
  0
LINE
  5
88
  8
0
 10
0.299
 20
8.60606
 30
0.0
 11
14.701
 21
8.68148
 31
0.0
  0
LINE
  5
89
  8
0
 10
14.701
 20
8.60148
 30
0.0
 11
0.299
 21
8.52606
 31
0.0
  0
LINE
  5
8A
  8
0
 10
0.299
 20
8.44607
 30
0.0
 11
14.701
 21
8.52148
 31
0.0
  0
LINE
  5
8B
  8
0
 10
14.701
 20
8.44147
 30
0.0
 11
0.299
 21
8.36607
 31
0.0
  0
LINE
  5
8C
  8
0
 10
0.299
 20
8.28606
 30
0.0
 11
14.701
 21
8.36147
 31
0.0
  0
LINE
  5
8D
  8
0
 10
14.701
 20
8.28147
 30
0.0
 11
0.299
 21
8.20606
 31
0.0
  0
LINE
  5
8E
  8
0
 10
0.299
 20
8.12606
 30
0.0
 11
14.701
 21
8.20147
 31
0.0
  0
LINE
  5
8F
  8
0
 10
14.701
 20
8.12146
 30
0.0
 11
0.299
 21
8.04606
 31
0.0
  0
LINE
  5
90
  8
0
 10
0.299
 20
7.96606
 30
0.0
 11
14.701
 21
8.04147
 31
0.0
  0
LINE
  5
91
  8
0
 10
14.701
 20
7.96147
 30
0.0
 11
0.299
 21
7.88605
 31
0.0
  0
LINE
  5
92
  8
0
 10
0.299
 20
7.80605
 30
0.0
 11
14.701
 21
7.88147
 31
0.0
  0
LINE
  5
93
  8
0
 10
14.701
 20
7.80147
 30
0.0
 11
0.299
 21
7.72606
 31
0.0
  0
LINE
  5
94
  8
0
 10
0.299
 20
7.64606
 30
0.0
 11
14.701
 21
7.72146
 31
0.0
  0
LINE
  5
95
  8
0
 10
14.701
 20
7.64146
 30
0.0
 11
0.299
 21
7.56605
 31
0.0
  0
LINE
  5
96
  8
0
 10
0.299
 20
7.48605
 30
0.0
 11
14.701
 21
7.56146
 31
0.0
  0
LINE
  5
97
  8
0
 10
14.701
 20
7.48146
 30
0.0
 11
0.299
 21
7.40605
 31
0.0
  0
LINE
  5
98
  8
0
 10
0.299
 20
7.32605
 30
0.0
 11
14.701
 21
7.40146
 31
0.0
  0
LINE
  5
99
  8
0
 10
14.701
 20
7.32146
 30
0.0
 11
0.299
 21
7.24605
 31
0.0
  0
LINE
  5
9A
  8
0
 10
0.299
 20
7.16604
 30
0.0
 11
14.701
 21
7.24146
 31
0.0
  0
LINE
  5
9B
  8
0
 10
14.701
 20
7.16146
 30
0.0
 11
0.299
 21
7.08605
 31
0.0
  0
LINE
  5
9C
  8
0
 10
0.299
 20
7.00605
 30
0.0
 11
14.701
 21
7.08146
 31
0.0
  0
LINE
  5
9D
  8
0
 10
14.701
 20
7.00145
 30
0.0
 11
0.299
 21
6.92605
 31
0.0
  0
LINE
  5
9E
  8
0
 10
0.299
 20
6.84604
 30
0.0
 11
14.701
 21
6.92145
 31
0.0
  0
LINE
  5
9F
  8
0
 10
14.701
 20
6.84145
 30
0.0
 11
0.299
 21
6.76604
 31
0.0
  0
LINE
  5
A0
  8
0
 10
0.299
 20
6.68604
 30
0.0
 11
14.701
 21
6.76145
 31
0.0
  0
LINE
  5
A1
  8
0
 10
14.701
 20
6.68145
 30
0.0
 11
0.299
 21
6.60604
 31
0.0
  0
LINE
  5
A2
  8
0
 10
0.299
 20
6.52604
 30
0.0
 11
14.701
 21
6.60145
 31
0.0
  0
LINE
  5
A3
  8
0
 10
14.701
 20
6.52145
 30
0.0
 11
0.299
 21
6.44604
 31
0.0
  0
LINE
  5
A4
  8
0
 10
0.299
 20
6.36604
 30
0.0
 11
14.701
 21
6.44145
 31
0.0
  0
LINE
  5
A5
  8
0
 10
14.701
 20
6.36145
 30
0.0
 11
0.299
 21
6.28604
 31
0.0
  0
LINE
  5
A6
  8
0
 10
0.299
 20
6.20604
 30
0.0
 11
14.701
 21
6.28144
 31
0.0
  0
LINE
  5
A7
  8
0
 10
14.701
 20
6.20144
 30
0.0
 11
0.299
 21
6.12603
 31
0.0
  0
LINE
  5
A8
  8
0
 10
0.299
 20
6.04603
 30
0.0
 11
14.701
 21
6.12144
 31
0.0
  0
LINE
  5
A9
  8
0
 10
14.701
 20
6.04145
 30
0.0
 11
0.299
 21
5.96603
 31
0.0
  0
LINE
  5
AA
  8
0
 10
0.299
 20
5.88603
 30
0.0
 11
14.701
 21
5.96144
 31
0.0
  0
LINE
  5
AB
  8
0
 10
14.701
 20
5.88144
 30
0.0
 11
0.299
 21
5.80603
 31
0.0
  0
LINE
  5
AC
  8
0
 10
0.299
 20
5.72603
 30
0.0
 11
14.701
 21
5.80144
 31
0.0
  0
LINE
  5
AD
  8
0
 10
14.701
 20
5.72144
 30
0.0
 11
0.299
 21
5.64603
 31
0.0
  0
LINE
  5
AE
  8
0
 10
0.299
 20
5.56603
 30
0.0
 11
14.701
 21
5.64144
 31
0.0
  0
LINE
  5
AF
  8
0
 10
14.701
 20
5.56143
 30
0.0
 11
0.299
 21
5.48603
 31
0.0
  0
LINE
  5
B0
  8
0
 10
0.299
 20
5.40603
 30
0.0
 11
14.701
 21
5.48143
 31
0.0
  0
LINE
  5
B1
  8
0
 10
14.701
 20
5.40143
 30
0.0
 11
0.299
 21
5.32602
 31
0.0
  0
LINE
  5
B2
  8
0
 10
0.299
 20
5.24602
 30
0.0
 11
14.701
 21
5.32144
 31
0.0
  0
LINE
  5
B3
  8
0
 10
14.701
 20
5.24143
 30
0.0
 11
0.299
 21
5.16602
 31
0.0
  0
LINE
  5
B4
  8
0
 10
0.299
 20
5.08602
 30
0.0
 11
14.701
 21
5.16143
 31
0.0
  0
LINE
  5
B5
  8
0
 10
14.701
 20
5.08143
 30
0.0
 11
0.299
 21
5.00602
 31
0.0
  0
LINE
  5
B6
  8
0
 10
0.299
 20
4.92602
 30
0.0
 11
14.701
 21
5.00143
 31
0.0
  0
LINE
  5
B7
  8
0
 10
14.701
 20
4.92143
 30
0.0
 11
0.299
 21
4.84602
 31
0.0
  0
LINE
  5
B8
  8
0
 10
0.299
 20
4.76602
 30
0.0
 11
14.701
 21
4.84142
 31
0.0
  0
LINE
  5
B9
  8
0
 10
14.701
 20
4.76142
 30
0.0
 11
0.299
 21
4.68602
 31
0.0
  0
LINE
  5
BA
  8
0
 10
0.299
 20
4.60601
 30
0.0
 11
14.701
 21
4.68143
 31
0.0
  0
LINE
  5
BB
  8
0
 10
14.701
 20
4.60143
 30
0.0
 11
0.299
 21
4.52601
 31
0.0
  0
LINE
  5
BC
  8
0
 10
0.299
 20
4.44601
 30
0.0
 11
14.701
 21
4.52142
 31
0.0
  0
LINE
  5
BD
  8
0
 10
14.701
 20
4.44142
 30
0.0
 11
0.299
 21
4.36602
 31
0.0
  0
LINE
  5
BE
  8
0
 10
0.299
 20
4.28601
 30
0.0
 11
14.701
 21
4.36142
 31
0.0
  0
LINE
  5
BF
  8
0
 10
14.701
 20
4.28142
 30
0.0
 11
0.299
 21
4.20601
 31
0.0
  0
LINE
  5
C0
  8
0
 10
0.299
 20
4.12601
 30
0.0
 11
14.701
 21
4.20142
 31
0.0
  0
LINE
  5
C1
  8
0
 10
14.701
 20
4.12141
 30
0.0
 11
0.299
 21
4.04601
 31
0.0
  0
LINE
  5
C2
  8
0
 10
0.299
 20
3.96601
 30
0.0
 11
14.701
 21
4.04141
 31
0.0
  0
LINE
  5
C3
  8
0
 10
14.701
 20
3.96142
 30
0.0
 11
0.299
 21
3.886
 31
0.0
  0
LINE
  5
C4
  8
0
 10
0.299
 20
3.806
 30
0.0
 11
14.701
 21
3.88142
 31
0.0
  0
LINE
  5
C5
  8
0
 10
14.701
 20
3.80141
 30
0.0
 11
0.299
 21
3.726
 31
0.0
  0
LINE
  5
C6
  8
0
 10
0.299
 20
3.64601
 30
0.0
 11
14.701
 21
3.72141
 31
0.0
  0
LINE
  5
C7
  8
0
 10
14.701
 20
3.64141
 30
0.0
 11
0.299
 21
3.566
 31
0.0
  0
LINE
  5
C8
  8
0
 10
0.299
 20
3.486
 30
0.0
 11
14.701
 21
3.56141
 31
0.0
  0
LINE
  5
C9
  8
0
 10
14.701
 20
3.48141
 30
0.0
 11
0.299
 21
3.406
 31
0.0
  0
LINE
  5
CA
  8
0
 10
0.299
 20
3.326
 30
0.0
 11
14.701
 21
3.40141
 31
0.0
  0
LINE
  5
CB
  8
0
 10
14.701
 20
3.32141
 30
0.0
 11
0.299
 21
3.246
 31
0.0
  0
LINE
  5
CC
  8
0
 10
0.299
 20
3.166
 30
0.0
 11
14.701
 21
3.24141
 31
0.0
  0
LINE
  5
CD
  8
0
 10
14.701
 20
3.16141
 30
0.0
 11
0.299
 21
3.08599
 31
0.0
  0
LINE
  5
CE
  8
0
 10
0.299
 20
3.006
 30
0.0
 11
14.701
 21
3.08141
 31
0.0
  0
LINE
  5
CF
  8
0
 10
14.701
 20
3.0014
 30
0.0
 11
0.299
 21
2.926
 31
0.0
  0
LINE
  5
D0
  8
0
 10
0.299
 20
2.84599
 30
0.0
 11
14.701
 21
2.9214
 31
0.0
  0
LINE
  5
D1
  8
0
 10
14.701
 20
2.8414
 30
0.0
 11
0.299
 21
2.76599
 31
0.0
  0
LINE
  5
D2
  8
0
 10
0.299
 20
2.68599
 30
0.0
 11
14.701
 21
2.7614
 31
0.0
  0
LINE
  5
D3
  8
0
 10
14.701
 20
2.6814
 30
0.0
 11
0.299
 21
2.60599
 31
0.0
  0
LINE
  5
D4
  8
0
 10
0.299
 20
2.52599
 30
0.0
 11
14.701
 21
2.6014
 31
0.0
  0
LINE
  5
D5
  8
0
 10
14.701
 20
2.5214
 30
0.0
 11
0.299
 21
2.44599
 31
0.0
  0
LINE
  5
D6
  8
0
 10
0.299
 20
2.36598
 30
0.0
 11
14.701
 21
2.4414
 31
0.0
  0
LINE
  5
D7
  8
0
 10
14.701
 20
2.3614
 30
0.0
 11
0.299
 21
2.28599
 31
0.0
  0
LINE
  5
D8
  8
0
 10
0.299
 20
2.20599
 30
0.0
 11
14.701
 21
2.28139
 31
0.0
  0
LINE
  5
D9
  8
0
 10
14.701
 20
2.20139
 30
0.0
 11
0.299
 21
2.12599
 31
0.0
  0
LINE
  5
DA
  8
0
 10
0.299
 20
2.04598
 30
0.0
 11
14.701
 21
2.12139
 31
0.0
  0
LINE
  5
DB
  8
0
 10
14.701
 20
2.04139
 30
0.0
 11
0.299
 21
1.96598
 31
0.0
  0
LINE
  5
DC
  8
0
 10
0.299
 20
1.88598
 30
0.0
 11
14.701
 21
1.96139
 31
0.0
  0
LINE
  5
DD
  8
0
 10
14.701
 20
1.88139
 30
0.0
 11
0.299
 21
1.80598
 31
0.0
  0
LINE
  5
DE
  8
0
 10
0.299
 20
1.72598
 30
0.0
 11
14.701
 21
1.80139
 31
0.0
  0
LINE
  5
DF
  8
0
 10
14.701
 20
1.72139
 30
0.0
 11
0.299
 21
1.64598
 31
0.0
  0
LINE
  5
E0
  8
0
 10
0.299
 20
1.56598
 30
0.0
 11
14.701
 21
1.64139
 31
0.0
  0
LINE
  5
E1
  8
0
 10
14.701
 20
1.56138
 30
0.0
 11
0.299
 21
1.48598
 31
0.0
  0
LINE
  5
E2
  8
0
 10
0.299
 20
1.40598
 30
0.0
 11
14.701
 21
1.48138
 31
0.0
  0
LINE
  5
E3
  8
0
 10
14.701
 20
1.40138
 30
0.0
 11
0.299
 21
1.32597
 31
0.0
  0
LINE
  5
E4
  8
0
 10
0.299
 20
1.24597
 30
0.0
 11
14.701
 21
1.32138
 31
0.0
  0
LINE
  5
E5
  8
0
 10
14.701
 20
1.24138
 30
0.0
 11
0.299
 21
1.16597
 31
0.0
  0
LINE
  5
E6
  8
0
 10
0.299
 20
1.08597
 30
0.0
 11
14.701
 21
1.16138
 31
0.0
  0
LINE
  5
E7
  8
0
 10
14.701
 20
1.08138
 30
0.0
 11
0.299
 21
1.00597
 31
0.0
  0
LINE
  5
E8
  8
0
 10
0.299
 20
0.92597
 30
0.0
 11
14.701
 21
1.00138
 31
0.0
  0
LINE
  5
E9
  8
0
 10
14.701
 20
0.92138
 30
0.0
 11
0.299
 21
0.84597
 31
0.0
  0
LINE
  5
EA
  8
0
 10
0.299
 20
0.76597
 30
0.0
 11
14.701
 21
0.84137
 31
0.0
  0
LINE
  5
EB
  8
0
 10
14.701
 20
0.76137
 30
0.0
 11
0.299
 21
0.68597
 31
0.0
  0
LINE
  5
EC
  8
0
 10
0.299
 20
0.60596
 30
0.0
 11
14.701
 21
0.68137
 31
0.0
  0
LINE
  5
ED
  8
0
 10
14.701
 20
0.60138
 30
0.0
 11
0.299
 21
0.52596
 31
0.0
  0
LINE
  5
EE
  8
0
 10
0.299
 20
0.44596
 30
0.0
 11
14.701
 21
0.52137
 31
0.0
  0
LINE
  5
EF
  8
0
 10
14.701
 20
0.44137
 30
0.0
 11
0.299
 21
0.36596
 31
0.0
  0
LINE
  5
F0
  8
0
 10
2.78764
 20
0.299
 30
0.0
 11
14.701
 21
0.36137
 31
0.0
  0
ENDSEC
  0
EOF
