  0
SECTION
  2
HEADER
  9
$ACADVER
  1
AC1009
  9
$DWGCODEPAGE
  3
ANSI_1252
  9
$INSBASE
 10
0.0
 20
0.0
 30
0.0
  9
$EXTMIN
 10
1e+20
 20
1e+20
 30
1e+20
  9
$EXTMAX
 10
-1e+20
 20
-1e+20
 30
-1e+20
  9
$LIMMIN
 10
0.0
 20
0.0
  9
$LIMMAX
 10
420.0
 20
297.0
  9
$ORTHOMODE
 70
0
  9
$REGENMODE
 70
1
  9
$FILLMODE
 70
1
  9
$DRAGMODE
 70
2
  9
$QTEXTMODE
 70
0
  9
$MIRRTEXT
 70
1
  9
$OSMODE
 70
20583
  9
$LTSCALE
 40
1.0
  9
$ATTMODE
 70
1
  9
$TEXTSIZE
 40
2.5
  9
$TRACEWID
 40
1.0
  9
$TEXTSTYLE
  7
Standard
  9
$CLAYER
  8
0
  9
$CELTYPE
  6
ByLayer
  9
$CECOLOR
 62
256
  9
$DIMSCALE
 40
1.0
  9
$DIMASZ
 40
2.5
  9
$DIMEXO
 40
0.625
  9
$DIMDLI
 40
3.75
  9
$DIMRND
 40
0.0
  9
$DIMDLE
 40
0.0
  9
$DIMEXE
 40
1.25
  9
$DIMTP
 40
0.0
  9
$DIMTM
 40
0.0
  9
$DIMTXT
 40
2.5
  9
$DIMCEN
 40
2.5
  9
$DIMTSZ
 40
0.0
  9
$DIMTOL
 70
0
  9
$DIMLIM
 70
0
  9
$DIMTIH
 70
0
  9
$DIMTOH
 70
0
  9
$DIMSE1
 70
0
  9
$DIMSE2
 70
0
  9
$DIMTAD
 70
1
  9
$DIMZIN
 70
8
  9
$DIMBLK
  1

  9
$DIMASO
 70
1
  9
$DIMSHO
 70
1
  9
$DIMPOST
  1

  9
$DIMAPOST
  1

  9
$DIMALT
 70
0
  9
$DIMALTD
 70
3
  9
$DIMALTF
 40
0.03937007874
  9
$DIMLFAC
 40
1.0
  9
$DIMTOFL
 70
1
  9
$DIMTVP
 40
0.0
  9
$DIMTIX
 70
0
  9
$DIMSOXD
 70
0
  9
$DIMSAH
 70
0
  9
$DIMBLK1
  1

  9
$DIMBLK2
  1

  9
$DIMSTYLE
  2
ISO-25
  9
$DIMCLRD
 70
0
  9
$DIMCLRE
 70
0
  9
$DIMCLRT
 70
0
  9
$DIMTFAC
 40
1.0
  9
$DIMGAP
 40
0.625
  9
$COORDS
 70
1
  9
$ATTDIA
 70
0
  9
$ATTREQ
 70
1
  9
$HANDLING
 70
1
  9
$LUNITS
 70
2
  9
$LUPREC
 70
4
  9
$SKETCHINC
 40
1.0
  9
$FILLETRAD
 40
10.0
  9
$AUNITS
 70
0
  9
$AUPREC
 70
2
  9
$MENU
  1
.
  9
$ELEVATION
 40
0.0
  9
$PELEVATION
 40
0.0
  9
$THICKNESS
 40
0.0
  9
$LIMCHECK
 70
0
  9
$CHAMFERA
 40
0.0
  9
$CHAMFERB
 40
0.0
  9
$SKPOLY
 70
0
  9
$TDCREATE
 40
2460888.428611111
  9
$TDUPDATE
 40
2460888.428611111
  9
$TDINDWG
 40
0.0
  9
$TDUSRTIMER
 40
0.0
  9
$USRTIMER
 70
1
  9
$ANGBASE
 50
0.0
  9
$ANGDIR
 70
0
  9
$PDMODE
 70
0
  9
$PDSIZE
 40
0.0
  9
$PLINEWID
 40
0.0
  9
$SPLFRAME
 70
0
  9
$SPLINETYPE
 70
6
  9
$SPLINESEGS
 70
8
  9
$HANDSEED
  5
254
  9
$SURFTAB1
 70
6
  9
$SURFTAB2
 70
6
  9
$SURFTYPE
 70
6
  9
$SURFU
 70
6
  9
$SURFV
 70
6
  9
$UCSNAME
  2

  9
$UCSORG
 10
0.0
 20
0.0
 30
0.0
  9
$UCSXDIR
 10
1.0
 20
0.0
 30
0.0
  9
$UCSYDIR
 10
0.0
 20
1.0
 30
0.0
  9
$PUCSNAME
  2

  9
$PUCSORG
 10
0.0
 20
0.0
 30
0.0
  9
$PUCSXDIR
 10
1.0
 20
0.0
 30
0.0
  9
$PUCSYDIR
 10
0.0
 20
1.0
 30
0.0
  9
$USERI1
 70
0
  9
$USERI2
 70
0
  9
$USERI3
 70
0
  9
$USERI4
 70
0
  9
$USERI5
 70
0
  9
$USERR1
 40
0.0
  9
$USERR2
 40
0.0
  9
$USERR3
 40
0.0
  9
$USERR4
 40
0.0
  9
$USERR5
 40
0.0
  9
$WORLDVIEW
 70
1
  9
$SHADEDGE
 70
3
  9
$SHADEDIF
 70
70
  9
$TILEMODE
 70
1
  9
$MAXACTVP
 70
64
  9
$PLIMCHECK
 70
0
  9
$PEXTMIN
 10
1e+20
 20
1e+20
 30
1e+20
  9
$PEXTMAX
 10
-1e+20
 20
-1e+20
 30
-1e+20
  9
$PLIMMIN
 10
0.0
 20
0.0
  9
$PLIMMAX
 10
420.0
 20
297.0
  9
$UNITMODE
 70
0
  9
$VISRETAIN
 70
1
  9
$PLINEGEN
 70
0
  9
$PSLTSCALE
 70
1
  0
ENDSEC
  0
SECTION
  2
TABLES
  0
TABLE
  2
VPORT
 70
1
  0
VPORT
  5
23
  2
*Active
 70
0
 10
0.0
 20
0.0
 11
1.0
 21
1.0
 12
0.0
 22
0.0
 13
0.0
 23
0.0
 14
0.5
 24
0.5
 15
0.5
 25
0.5
 16
0.0
 26
0.0
 36
1.0
 17
0.0
 27
0.0
 37
0.0
 40
1000.0
 41
1.34
 42
50.0
 43
0.0
 44
0.0
 50
0.0
 51
0.0
 71
0
 72
1000
 73
1
 74
3
 75
0
 76
0
 77
0
 78
0
  0
ENDTAB
  0
TABLE
  2
LTYPE
 70
3
  0
LTYPE
  5
24
  2
ByBlock
 70
0
  3

 72
65
 73
0
 40
0.0
  0
LTYPE
  5
25
  2
ByLayer
 70
0
  3

 72
65
 73
0
 40
0.0
  0
LTYPE
  5
26
  2
Continuous
 70
0
  3

 72
65
 73
0
 40
0.0
  0
ENDTAB
  0
TABLE
  2
LAYER
 70
2
  0
LAYER
  5
27
  2
0
 70
0
 62
7
  6
Continuous
  0
LAYER
  5
28
  2
Defpoints
 70
0
 62
7
  6
Continuous
  0
ENDTAB
  0
TABLE
  2
STYLE
 70
1
  0
STYLE
  5
29
  2
Standard
 70
0
 40
0.0
 41
1.0
 50
0.0
 71
0
 42
2.5
  3
txt
  4

  0
ENDTAB
  0
TABLE
  2
VIEW
 70
0
  0
ENDTAB
  0
TABLE
  2
UCS
 70
0
  0
ENDTAB
  0
TABLE
  2
APPID
 70
3
  0
APPID
  5
2A
  2
ACAD
 70
0
  0
APPID
  5
252
  2
HATCHBACKGROUNDCOLOR
 70
0
  0
APPID
  5
253
  2
EZDXF
 70
0
  0
ENDTAB
  0
TABLE
  2
DIMSTYLE
 70
1
  0
DIMSTYLE
105
2B
  2
Standard
 70
0
  3

  4

  5

  6

  7

 40
1.0
 41
2.5
 42
0.625
 43
3.75
 44
1.25
 45
0.0
 46
0.0
 47
0.0
 48
0.0
140
2.5
141
2.5
142
0.0
143
0.03937007874
144
1.0
145
0.0
146
1.0
147
0.625
 71
0
 72
0
 73
0
 74
0
 75
0
 76
0
 77
1
 78
8
170
0
171
3
172
1
173
0
174
0
175
0
176
0
177
0
178
0
  0
ENDTAB
  0
ENDSEC
  0
SECTION
  2
BLOCKS
  0
BLOCK
  5
18
  8
0
  2
$Model_Space
 70
0
 10
0.0
 20
0.0
 30
0.0
  3
$Model_Space
  1

1001
EZDXF
1000
CREATED_BY_EZDXF
1000
1.4.2 @ 2025-07-31T13:17:12.843996+00:00
1000
WRITTEN_BY_EZDXF
1000
1.4.2 @ 2025-07-31T13:17:12.875245+00:00
  0
ENDBLK
  5
19
  8
0
  0
BLOCK
  5
1C
  8
0
  2
$Paper_Space
 70
0
 10
0.0
 20
0.0
 30
0.0
  3
$Paper_Space
  1

  0
ENDBLK
  5
1D
  8
0
  0
ENDSEC
  0
SECTION
  2
ENTITIES
  0
LINE
  5
2D
  8
0
 10
2.192056
 20
0.441054
 30
0.0
 11
1.018169
 21
0.690639
 31
0.0
  0
LINE
  5
2E
  8
0
 10
1.018169
 20
0.690639
 30
0.0
 11
0.541737
 21
1.409589
 31
0.0
  0
LINE
  5
2F
  8
0
 10
0.541737
 20
1.409589
 30
0.0
 11
2.192056
 21
0.441054
 31
0.0
  0
LINE
  5
30
  8
0
 10
2.192056
 20
0.441054
 30
0.0
 11
1.018169
 21
0.690639
 31
0.0
  0
LINE
  5
31
  8
0
 10
1.018169
 20
0.690639
 30
0.0
 11
0.541737
 21
1.409589
 31
0.0
  0
LINE
  5
32
  8
0
 10
0.541737
 20
1.409589
 30
0.0
 11
2.192056
 21
0.441054
 31
0.0
  0
LINE
  5
33
  8
0
 10
0.442402
 20
2.270012
 30
0.0
 11
0.46585
 21
3.200297
 31
0.0
  0
LINE
  5
34
  8
0
 10
0.487261
 20
4.049722
 30
0.0
 11
0.511208
 21
4.999823
 31
0.0
  0
LINE
  5
35
  8
0
 10
0.532352
 20
5.838658
 30
0.0
 11
0.556551
 21
6.798735
 31
0.0
  0
LINE
  5
36
  8
0
 10
0.577818
 20
7.642489
 30
0.0
 11
0.559584
 21
8.610875
 31
0.0
  0
LINE
  5
37
  8
0
 10
0.533784
 20
9.453444
 30
0.0
 11
0.504106
 21
10.4227
 31
0.0
  0
LINE
  5
38
  8
0
 10
0.478251
 20
11.267085
 30
0.0
 11
0.448862
 21
12.226895
 31
0.0
  0
LINE
  5
39
  8
0
 10
0.450302
 20
13.06561
 30
0.0
 11
0.618175
 21
13.996551
 31
0.0
  0
LINE
  5
3A
  8
0
 10
1.192549
 20
14.579976
 30
0.0
 11
2.10204
 21
14.744114
 31
0.0
  0
LINE
  5
3B
  8
0
 10
2.971078
 20
14.728408
 30
0.0
 11
3.900745
 21
14.696084
 31
0.0
  0
LINE
  5
3C
  8
0
 10
4.744193
 20
14.666758
 30
0.0
 11
5.699756
 21
14.633534
 31
0.0
  0
LINE
  5
3D
  8
0
 10
6.539404
 20
14.625966
 30
0.0
 11
7.500678
 21
14.627355
 31
0.0
  0
LINE
  5
3E
  8
0
 10
8.347305
 20
14.628578
 30
0.0
 11
9.317713
 21
14.62998
 31
0.0
  0
LINE
  5
3F
  8
0
 10
10.161184
 20
14.631198
 30
0.0
 11
11.127927
 21
14.632594
 31
0.0
  0
LINE
  5
40
  8
0
 10
11.969418
 20
14.63381
 30
0.0
 11
12.928833
 21
14.635196
 31
0.0
  0
LINE
  5
41
  8
0
 10
13.768861
 20
14.636409
 30
0.0
 11
14.62622
 21
14.552308
 31
0.0
  0
LINE
  5
42
  8
0
 10
14.62621
 20
13.694911
 30
0.0
 11
14.6262
 21
12.76433
 31
0.0
  0
LINE
  5
43
  8
0
 10
14.62619
 20
11.906581
 30
0.0
 11
14.62618
 21
10.964233
 31
0.0
  0
LINE
  5
44
  8
0
 10
14.62617
 20
10.123562
 30
0.0
 11
14.62616
 21
9.164135
 31
0.0
  0
LINE
  5
45
  8
0
 10
14.62615
 20
8.322526
 30
0.0
 11
14.62614
 21
7.356386
 31
0.0
  0
LINE
  5
46
  8
0
 10
14.62613
 20
6.51222
 30
0.0
 11
14.635376
 21
5.541792
 31
0.0
  0
LINE
  5
47
  8
0
 10
14.665159
 20
4.696733
 30
0.0
 11
14.699025
 21
3.735852
 31
0.0
  0
LINE
  5
48
  8
0
 10
14.728621
 20
2.896079
 30
0.0
 11
14.709338
 21
1.944034
 31
0.0
  0
LINE
  5
49
  8
0
 10
14.549068
 20
1.120652
 30
0.0
 11
14.26387
 21
0.762705
 31
0.0
  0
LINE
  5
4A
  8
0
 10
14.26387
 20
0.762705
 30
0.0
 11
13.848655
 21
0.560828
 31
0.0
  0
LINE
  5
4B
  8
0
 10
13.848655
 20
0.560828
 30
0.0
 11
14.549068
 21
1.120652
 31
0.0
  0
LINE
  5
4C
  8
0
 10
12.987623
 20
0.445231
 30
0.0
 11
12.05731
 21
0.46754
 31
0.0
  0
LINE
  5
4D
  8
0
 10
11.209873
 20
0.487861
 30
0.0
 11
10.25773
 21
0.510693
 31
0.0
  0
LINE
  5
4E
  8
0
 10
9.419003
 20
0.530806
 30
0.0
 11
8.458149
 21
0.553847
 31
0.0
  0
LINE
  5
4F
  8
0
 10
7.614115
 20
0.574087
 30
0.0
 11
6.645121
 21
0.56521
 31
0.0
  0
LINE
  5
50
  8
0
 10
5.802568
 20
0.538545
 30
0.0
 11
4.833413
 21
0.507873
 31
0.0
  0
LINE
  5
51
  8
0
 10
3.990438
 20
0.481194
 30
0.0
 11
3.030853
 21
0.450825
 31
0.0
  0
LINE
  5
52
  8
0
 10
0.592849
 20
1.904
 30
0.0
 11
0.592849
 21
2.704
 31
0.0
  0
LINE
  5
53
  8
0
 10
0.592849
 20
1.904
 30
0.0
 11
0.592849
 21
2.704
 31
0.0
  0
LINE
  5
54
  8
0
 10
0.592849
 20
3.704
 30
0.0
 11
0.592849
 21
4.504
 31
0.0
  0
LINE
  5
55
  8
0
 10
0.592849
 20
5.504
 30
0.0
 11
0.592849
 21
6.304
 31
0.0
  0
LINE
  5
56
  8
0
 10
0.592849
 20
7.304
 30
0.0
 11
0.592849
 21
8.104
 31
0.0
  0
LINE
  5
57
  8
0
 10
0.592849
 20
9.104
 30
0.0
 11
0.592849
 21
9.904
 31
0.0
  0
LINE
  5
58
  8
0
 10
0.592849
 20
10.904
 30
0.0
 11
0.592849
 21
11.704
 31
0.0
  0
LINE
  5
59
  8
0
 10
0.592849
 20
12.704
 30
0.0
 11
0.592849
 21
13.504
 31
0.0
  0
LINE
  5
5A
  8
0
 10
1.092849
 20
1.304
 30
0.0
 11
1.092849
 21
2.104
 31
0.0
  0
LINE
  5
5B
  8
0
 10
1.092849
 20
1.304
 30
0.0
 11
1.092849
 21
2.104
 31
0.0
  0
LINE
  5
5C
  8
0
 10
1.092849
 20
2.104
 30
0.0
 11
1.092849
 21
2.105
 31
0.0
  0
LINE
  5
5D
  8
0
 10
1.092849
 20
3.104
 30
0.0
 11
1.092849
 21
3.904
 31
0.0
  0
LINE
  5
5E
  8
0
 10
1.092849
 20
3.904
 30
0.0
 11
1.092849
 21
3.905
 31
0.0
  0
LINE
  5
5F
  8
0
 10
1.092849
 20
4.904
 30
0.0
 11
1.092849
 21
5.704
 31
0.0
  0
LINE
  5
60
  8
0
 10
1.092849
 20
5.704
 30
0.0
 11
1.092849
 21
5.705
 31
0.0
  0
LINE
  5
61
  8
0
 10
1.092849
 20
6.704
 30
0.0
 11
1.092849
 21
7.504
 31
0.0
  0
LINE
  5
62
  8
0
 10
1.092849
 20
7.504
 30
0.0
 11
1.092849
 21
7.505
 31
0.0
  0
LINE
  5
63
  8
0
 10
1.092849
 20
8.504
 30
0.0
 11
1.092849
 21
9.304
 31
0.0
  0
LINE
  5
64
  8
0
 10
1.092849
 20
9.304
 30
0.0
 11
1.092849
 21
9.305
 31
0.0
  0
LINE
  5
65
  8
0
 10
1.092849
 20
10.304
 30
0.0
 11
1.092849
 21
11.104
 31
0.0
  0
LINE
  5
66
  8
0
 10
1.092849
 20
11.104
 30
0.0
 11
1.092849
 21
11.105
 31
0.0
  0
LINE
  5
67
  8
0
 10
1.092849
 20
12.104
 30
0.0
 11
1.092849
 21
12.904
 31
0.0
  0
LINE
  5
68
  8
0
 10
1.092849
 20
12.904
 30
0.0
 11
1.092849
 21
12.905
 31
0.0
  0
LINE
  5
69
  8
0
 10
1.592849
 20
1.154
 30
0.0
 11
1.592849
 21
1.954
 31
0.0
  0
LINE
  5
6A
  8
0
 10
1.592849
 20
1.154
 30
0.0
 11
1.592849
 21
1.954
 31
0.0
  0
LINE
  5
6B
  8
0
 10
1.592849
 20
2.954
 30
0.0
 11
1.592849
 21
3.754
 31
0.0
  0
LINE
  5
6C
  8
0
 10
1.592849
 20
4.754
 30
0.0
 11
1.592849
 21
5.554
 31
0.0
  0
LINE
  5
6D
  8
0
 10
1.592849
 20
6.554
 30
0.0
 11
1.592849
 21
7.354
 31
0.0
  0
LINE
  5
6E
  8
0
 10
1.592849
 20
8.354
 30
0.0
 11
1.592849
 21
9.154
 31
0.0
  0
LINE
  5
6F
  8
0
 10
1.592849
 20
10.154
 30
0.0
 11
1.592849
 21
10.954
 31
0.0
  0
LINE
  5
70
  8
0
 10
1.592849
 20
11.954
 30
0.0
 11
1.592849
 21
12.754
 31
0.0
  0
LINE
  5
71
  8
0
 10
2.092849
 20
1.096
 30
0.0
 11
2.092849
 21
1.097
 31
0.0
  0
LINE
  5
72
  8
0
 10
2.092849
 20
1.096
 30
0.0
 11
2.092849
 21
1.097
 31
0.0
  0
LINE
  5
73
  8
0
 10
2.092849
 20
1.097
 30
0.0
 11
2.092849
 21
1.897
 31
0.0
  0
LINE
  5
74
  8
0
 10
2.092849
 20
2.896
 30
0.0
 11
2.092849
 21
2.897
 31
0.0
  0
LINE
  5
75
  8
0
 10
2.092849
 20
2.897
 30
0.0
 11
2.092849
 21
3.697
 31
0.0
  0
LINE
  5
76
  8
0
 10
2.092849
 20
4.696
 30
0.0
 11
2.092849
 21
4.697
 31
0.0
  0
LINE
  5
77
  8
0
 10
2.092849
 20
4.697
 30
0.0
 11
2.092849
 21
5.497
 31
0.0
  0
LINE
  5
78
  8
0
 10
2.092849
 20
6.496
 30
0.0
 11
2.092849
 21
6.497
 31
0.0
  0
LINE
  5
79
  8
0
 10
2.092849
 20
6.497
 30
0.0
 11
2.092849
 21
7.297
 31
0.0
  0
LINE
  5
7A
  8
0
 10
2.092849
 20
8.296
 30
0.0
 11
2.092849
 21
8.297
 31
0.0
  0
LINE
  5
7B
  8
0
 10
2.092849
 20
8.297
 30
0.0
 11
2.092849
 21
9.097
 31
0.0
  0
LINE
  5
7C
  8
0
 10
2.092849
 20
10.096
 30
0.0
 11
2.092849
 21
10.097
 31
0.0
  0
LINE
  5
7D
  8
0
 10
2.092849
 20
10.097
 30
0.0
 11
2.092849
 21
10.897
 31
0.0
  0
LINE
  5
7E
  8
0
 10
2.092849
 20
11.896
 30
0.0
 11
2.092849
 21
11.897
 31
0.0
  0
LINE
  5
7F
  8
0
 10
2.092849
 20
11.897
 30
0.0
 11
2.092849
 21
12.697
 31
0.0
  0
LINE
  5
80
  8
0
 10
2.092849
 20
13.696
 30
0.0
 11
2.092849
 21
13.697
 31
0.0
  0
LINE
  5
81
  8
0
 10
2.592849
 20
1.087
 30
0.0
 11
2.592849
 21
1.887
 31
0.0
  0
LINE
  5
82
  8
0
 10
2.592849
 20
1.087
 30
0.0
 11
2.592849
 21
1.887
 31
0.0
  0
LINE
  5
83
  8
0
 10
2.592849
 20
2.887
 30
0.0
 11
2.592849
 21
3.687
 31
0.0
  0
LINE
  5
84
  8
0
 10
2.592849
 20
4.687
 30
0.0
 11
2.592849
 21
5.487
 31
0.0
  0
LINE
  5
85
  8
0
 10
2.592849
 20
6.487
 30
0.0
 11
2.592849
 21
7.287
 31
0.0
  0
LINE
  5
86
  8
0
 10
2.592849
 20
8.287
 30
0.0
 11
2.592849
 21
9.087
 31
0.0
  0
LINE
  5
87
  8
0
 10
2.592849
 20
10.087
 30
0.0
 11
2.592849
 21
10.887
 31
0.0
  0
LINE
  5
88
  8
0
 10
2.592849
 20
11.887
 30
0.0
 11
2.592849
 21
12.687
 31
0.0
  0
LINE
  5
89
  8
0
 10
3.092849
 20
1.103
 30
0.0
 11
3.092849
 21
1.903
 31
0.0
  0
LINE
  5
8A
  8
0
 10
3.092849
 20
1.103
 30
0.0
 11
3.092849
 21
1.903
 31
0.0
  0
LINE
  5
8B
  8
0
 10
3.092849
 20
2.903
 30
0.0
 11
3.092849
 21
3.703
 31
0.0
  0
LINE
  5
8C
  8
0
 10
3.092849
 20
4.703
 30
0.0
 11
3.092849
 21
5.503
 31
0.0
  0
LINE
  5
8D
  8
0
 10
3.092849
 20
6.503
 30
0.0
 11
3.092849
 21
7.303
 31
0.0
  0
LINE
  5
8E
  8
0
 10
3.092849
 20
8.303
 30
0.0
 11
3.092849
 21
9.103
 31
0.0
  0
LINE
  5
8F
  8
0
 10
3.092849
 20
10.103
 30
0.0
 11
3.092849
 21
10.903
 31
0.0
  0
LINE
  5
90
  8
0
 10
3.092849
 20
11.903
 30
0.0
 11
3.092849
 21
12.703
 31
0.0
  0
LINE
  5
91
  8
0
 10
3.592849
 20
1.119
 30
0.0
 11
3.592849
 21
1.919
 31
0.0
  0
LINE
  5
92
  8
0
 10
3.592849
 20
1.119
 30
0.0
 11
3.592849
 21
1.919
 31
0.0
  0
LINE
  5
93
  8
0
 10
3.592849
 20
2.919
 30
0.0
 11
3.592849
 21
3.719
 31
0.0
  0
LINE
  5
94
  8
0
 10
3.592849
 20
4.719
 30
0.0
 11
3.592849
 21
5.519
 31
0.0
  0
LINE
  5
95
  8
0
 10
3.592849
 20
6.519
 30
0.0
 11
3.592849
 21
7.319
 31
0.0
  0
LINE
  5
96
  8
0
 10
3.592849
 20
8.319
 30
0.0
 11
3.592849
 21
9.119
 31
0.0
  0
LINE
  5
97
  8
0
 10
3.592849
 20
10.119
 30
0.0
 11
3.592849
 21
10.919
 31
0.0
  0
LINE
  5
98
  8
0
 10
3.592849
 20
11.919
 30
0.0
 11
3.592849
 21
12.719
 31
0.0
  0
LINE
  5
99
  8
0
 10
4.092849
 20
1.134
 30
0.0
 11
4.092849
 21
1.934
 31
0.0
  0
LINE
  5
9A
  8
0
 10
4.092849
 20
1.134
 30
0.0
 11
4.092849
 21
1.934
 31
0.0
  0
LINE
  5
9B
  8
0
 10
4.092849
 20
1.934
 30
0.0
 11
4.092849
 21
1.935
 31
0.0
  0
LINE
  5
9C
  8
0
 10
4.092849
 20
2.934
 30
0.0
 11
4.092849
 21
3.734
 31
0.0
  0
LINE
  5
9D
  8
0
 10
4.092849
 20
3.734
 30
0.0
 11
4.092849
 21
3.735
 31
0.0
  0
LINE
  5
9E
  8
0
 10
4.092849
 20
4.734
 30
0.0
 11
4.092849
 21
5.534
 31
0.0
  0
LINE
  5
9F
  8
0
 10
4.092849
 20
5.534
 30
0.0
 11
4.092849
 21
5.535
 31
0.0
  0
LINE
  5
A0
  8
0
 10
4.092849
 20
6.534
 30
0.0
 11
4.092849
 21
7.334
 31
0.0
  0
LINE
  5
A1
  8
0
 10
4.092849
 20
7.334
 30
0.0
 11
4.092849
 21
7.335
 31
0.0
  0
LINE
  5
A2
  8
0
 10
4.092849
 20
8.334
 30
0.0
 11
4.092849
 21
9.134
 31
0.0
  0
LINE
  5
A3
  8
0
 10
4.092849
 20
9.134
 30
0.0
 11
4.092849
 21
9.135
 31
0.0
  0
LINE
  5
A4
  8
0
 10
4.092849
 20
10.134
 30
0.0
 11
4.092849
 21
10.934
 31
0.0
  0
LINE
  5
A5
  8
0
 10
4.092849
 20
10.934
 30
0.0
 11
4.092849
 21
10.935
 31
0.0
  0
LINE
  5
A6
  8
0
 10
4.092849
 20
11.934
 30
0.0
 11
4.092849
 21
12.734
 31
0.0
  0
LINE
  5
A7
  8
0
 10
4.092849
 20
12.734
 30
0.0
 11
4.092849
 21
12.735
 31
0.0
  0
LINE
  5
A8
  8
0
 10
4.092849
 20
13.734
 30
0.0
 11
4.092849
 21
13.735
 31
0.0
  0
LINE
  5
A9
  8
0
 10
4.592849
 20
1.15
 30
0.0
 11
4.592849
 21
1.95
 31
0.0
  0
LINE
  5
AA
  8
0
 10
4.592849
 20
1.15
 30
0.0
 11
4.592849
 21
1.95
 31
0.0
  0
LINE
  5
AB
  8
0
 10
4.592849
 20
2.95
 30
0.0
 11
4.592849
 21
3.75
 31
0.0
  0
LINE
  5
AC
  8
0
 10
4.592849
 20
4.75
 30
0.0
 11
4.592849
 21
5.55
 31
0.0
  0
LINE
  5
AD
  8
0
 10
4.592849
 20
6.55
 30
0.0
 11
4.592849
 21
7.35
 31
0.0
  0
LINE
  5
AE
  8
0
 10
4.592849
 20
8.35
 30
0.0
 11
4.592849
 21
9.15
 31
0.0
  0
LINE
  5
AF
  8
0
 10
4.592849
 20
10.15
 30
0.0
 11
4.592849
 21
10.95
 31
0.0
  0
LINE
  5
B0
  8
0
 10
4.592849
 20
11.95
 30
0.0
 11
4.592849
 21
12.75
 31
0.0
  0
LINE
  5
B1
  8
0
 10
5.092849
 20
1.166
 30
0.0
 11
5.092849
 21
1.966
 31
0.0
  0
LINE
  5
B2
  8
0
 10
5.092849
 20
1.166
 30
0.0
 11
5.092849
 21
1.966
 31
0.0
  0
LINE
  5
B3
  8
0
 10
5.092849
 20
2.966
 30
0.0
 11
5.092849
 21
3.766
 31
0.0
  0
LINE
  5
B4
  8
0
 10
5.092849
 20
4.766
 30
0.0
 11
5.092849
 21
5.566
 31
0.0
  0
LINE
  5
B5
  8
0
 10
5.092849
 20
6.566
 30
0.0
 11
5.092849
 21
7.366
 31
0.0
  0
LINE
  5
B6
  8
0
 10
5.092849
 20
8.366
 30
0.0
 11
5.092849
 21
9.166
 31
0.0
  0
LINE
  5
B7
  8
0
 10
5.092849
 20
10.166
 30
0.0
 11
5.092849
 21
10.966
 31
0.0
  0
LINE
  5
B8
  8
0
 10
5.092849
 20
11.966
 30
0.0
 11
5.092849
 21
12.766
 31
0.0
  0
LINE
  5
B9
  8
0
 10
5.592849
 20
1.182
 30
0.0
 11
5.592849
 21
1.982
 31
0.0
  0
LINE
  5
BA
  8
0
 10
5.592849
 20
1.182
 30
0.0
 11
5.592849
 21
1.982
 31
0.0
  0
LINE
  5
BB
  8
0
 10
5.592849
 20
2.982
 30
0.0
 11
5.592849
 21
3.782
 31
0.0
  0
LINE
  5
BC
  8
0
 10
5.592849
 20
4.782
 30
0.0
 11
5.592849
 21
5.582
 31
0.0
  0
LINE
  5
BD
  8
0
 10
5.592849
 20
6.582
 30
0.0
 11
5.592849
 21
7.382
 31
0.0
  0
LINE
  5
BE
  8
0
 10
5.592849
 20
8.382
 30
0.0
 11
5.592849
 21
9.182
 31
0.0
  0
LINE
  5
BF
  8
0
 10
5.592849
 20
10.182
 30
0.0
 11
5.592849
 21
10.982
 31
0.0
  0
LINE
  5
C0
  8
0
 10
5.592849
 20
11.982
 30
0.0
 11
5.592849
 21
12.782
 31
0.0
  0
LINE
  5
C1
  8
0
 10
6.092849
 20
1.198
 30
0.0
 11
6.092849
 21
1.998
 31
0.0
  0
LINE
  5
C2
  8
0
 10
6.092849
 20
1.198
 30
0.0
 11
6.092849
 21
1.998
 31
0.0
  0
LINE
  5
C3
  8
0
 10
6.092849
 20
2.998
 30
0.0
 11
6.092849
 21
3.798
 31
0.0
  0
LINE
  5
C4
  8
0
 10
6.092849
 20
4.798
 30
0.0
 11
6.092849
 21
5.598
 31
0.0
  0
LINE
  5
C5
  8
0
 10
6.092849
 20
6.598
 30
0.0
 11
6.092849
 21
7.398
 31
0.0
  0
LINE
  5
C6
  8
0
 10
6.092849
 20
8.398
 30
0.0
 11
6.092849
 21
9.198
 31
0.0
  0
LINE
  5
C7
  8
0
 10
6.092849
 20
10.198
 30
0.0
 11
6.092849
 21
10.998
 31
0.0
  0
LINE
  5
C8
  8
0
 10
6.092849
 20
11.998
 30
0.0
 11
6.092849
 21
12.798
 31
0.0
  0
LINE
  5
C9
  8
0
 10
6.592849
 20
1.213
 30
0.0
 11
6.592849
 21
1.214
 31
0.0
  0
LINE
  5
CA
  8
0
 10
6.592849
 20
1.213
 30
0.0
 11
6.592849
 21
1.214
 31
0.0
  0
LINE
  5
CB
  8
0
 10
6.592849
 20
1.214
 30
0.0
 11
6.592849
 21
2.014
 31
0.0
  0
LINE
  5
CC
  8
0
 10
6.592849
 20
3.013
 30
0.0
 11
6.592849
 21
3.014
 31
0.0
  0
LINE
  5
CD
  8
0
 10
6.592849
 20
3.014
 30
0.0
 11
6.592849
 21
3.814
 31
0.0
  0
LINE
  5
CE
  8
0
 10
6.592849
 20
4.813
 30
0.0
 11
6.592849
 21
4.814
 31
0.0
  0
LINE
  5
CF
  8
0
 10
6.592849
 20
4.814
 30
0.0
 11
6.592849
 21
5.614
 31
0.0
  0
LINE
  5
D0
  8
0
 10
6.592849
 20
6.613
 30
0.0
 11
6.592849
 21
6.614
 31
0.0
  0
LINE
  5
D1
  8
0
 10
6.592849
 20
6.614
 30
0.0
 11
6.592849
 21
7.414
 31
0.0
  0
LINE
  5
D2
  8
0
 10
6.592849
 20
8.413
 30
0.0
 11
6.592849
 21
8.414
 31
0.0
  0
LINE
  5
D3
  8
0
 10
6.592849
 20
8.414
 30
0.0
 11
6.592849
 21
9.214
 31
0.0
  0
LINE
  5
D4
  8
0
 10
6.592849
 20
10.213
 30
0.0
 11
6.592849
 21
10.214
 31
0.0
  0
LINE
  5
D5
  8
0
 10
6.592849
 20
10.214
 30
0.0
 11
6.592849
 21
11.014
 31
0.0
  0
LINE
  5
D6
  8
0
 10
6.592849
 20
12.013
 30
0.0
 11
6.592849
 21
12.014
 31
0.0
  0
LINE
  5
D7
  8
0
 10
6.592849
 20
12.014
 30
0.0
 11
6.592849
 21
12.814
 31
0.0
  0
LINE
  5
D8
  8
0
 10
6.592849
 20
13.813
 30
0.0
 11
6.592849
 21
13.814
 31
0.0
  0
LINE
  5
D9
  8
0
 10
7.092849
 20
1.229
 30
0.0
 11
7.092849
 21
2.029
 31
0.0
  0
LINE
  5
DA
  8
0
 10
7.092849
 20
1.229
 30
0.0
 11
7.092849
 21
2.029
 31
0.0
  0
LINE
  5
DB
  8
0
 10
7.092849
 20
3.029
 30
0.0
 11
7.092849
 21
3.829
 31
0.0
  0
LINE
  5
DC
  8
0
 10
7.092849
 20
4.829
 30
0.0
 11
7.092849
 21
5.629
 31
0.0
  0
LINE
  5
DD
  8
0
 10
7.092849
 20
6.629
 30
0.0
 11
7.092849
 21
7.429
 31
0.0
  0
LINE
  5
DE
  8
0
 10
7.092849
 20
8.429
 30
0.0
 11
7.092849
 21
9.229
 31
0.0
  0
LINE
  5
DF
  8
0
 10
7.092849
 20
10.229
 30
0.0
 11
7.092849
 21
11.029
 31
0.0
  0
LINE
  5
E0
  8
0
 10
7.092849
 20
12.029
 30
0.0
 11
7.092849
 21
12.829
 31
0.0
  0
LINE
  5
E1
  8
0
 10
7.592849
 20
1.224
 30
0.0
 11
7.592849
 21
1.225
 31
0.0
  0
LINE
  5
E2
  8
0
 10
7.592849
 20
1.224
 30
0.0
 11
7.592849
 21
1.225
 31
0.0
  0
LINE
  5
E3
  8
0
 10
7.592849
 20
1.225
 30
0.0
 11
7.592849
 21
2.025
 31
0.0
  0
LINE
  5
E4
  8
0
 10
7.592849
 20
3.024
 30
0.0
 11
7.592849
 21
3.025
 31
0.0
  0
LINE
  5
E5
  8
0
 10
7.592849
 20
3.025
 30
0.0
 11
7.592849
 21
3.825
 31
0.0
  0
LINE
  5
E6
  8
0
 10
7.592849
 20
4.824
 30
0.0
 11
7.592849
 21
4.825
 31
0.0
  0
LINE
  5
E7
  8
0
 10
7.592849
 20
4.825
 30
0.0
 11
7.592849
 21
5.625
 31
0.0
  0
LINE
  5
E8
  8
0
 10
7.592849
 20
6.624
 30
0.0
 11
7.592849
 21
6.625
 31
0.0
  0
LINE
  5
E9
  8
0
 10
7.592849
 20
6.625
 30
0.0
 11
7.592849
 21
7.425
 31
0.0
  0
LINE
  5
EA
  8
0
 10
7.592849
 20
8.424
 30
0.0
 11
7.592849
 21
8.425
 31
0.0
  0
LINE
  5
EB
  8
0
 10
7.592849
 20
8.425
 30
0.0
 11
7.592849
 21
9.225
 31
0.0
  0
LINE
  5
EC
  8
0
 10
7.592849
 20
10.224
 30
0.0
 11
7.592849
 21
10.225
 31
0.0
  0
LINE
  5
ED
  8
0
 10
7.592849
 20
10.225
 30
0.0
 11
7.592849
 21
11.025
 31
0.0
  0
LINE
  5
EE
  8
0
 10
7.592849
 20
12.024
 30
0.0
 11
7.592849
 21
12.025
 31
0.0
  0
LINE
  5
EF
  8
0
 10
7.592849
 20
12.025
 30
0.0
 11
7.592849
 21
12.825
 31
0.0
  0
LINE
  5
F0
  8
0
 10
7.592849
 20
13.824
 30
0.0
 11
7.592849
 21
13.825
 31
0.0
  0
LINE
  5
F1
  8
0
 10
8.092849
 20
1.213
 30
0.0
 11
8.092849
 21
2.013
 31
0.0
  0
LINE
  5
F2
  8
0
 10
8.092849
 20
1.213
 30
0.0
 11
8.092849
 21
2.013
 31
0.0
  0
LINE
  5
F3
  8
0
 10
8.092849
 20
3.013
 30
0.0
 11
8.092849
 21
3.813
 31
0.0
  0
LINE
  5
F4
  8
0
 10
8.092849
 20
4.813
 30
0.0
 11
8.092849
 21
5.613
 31
0.0
  0
LINE
  5
F5
  8
0
 10
8.092849
 20
6.613
 30
0.0
 11
8.092849
 21
7.413
 31
0.0
  0
LINE
  5
F6
  8
0
 10
8.092849
 20
8.413
 30
0.0
 11
8.092849
 21
9.213
 31
0.0
  0
LINE
  5
F7
  8
0
 10
8.092849
 20
10.213
 30
0.0
 11
8.092849
 21
11.013
 31
0.0
  0
LINE
  5
F8
  8
0
 10
8.092849
 20
12.013
 30
0.0
 11
8.092849
 21
12.813
 31
0.0
  0
LINE
  5
F9
  8
0
 10
8.592849
 20
1.201
 30
0.0
 11
8.592849
 21
2.001
 31
0.0
  0
LINE
  5
FA
  8
0
 10
8.592849
 20
1.201
 30
0.0
 11
8.592849
 21
2.001
 31
0.0
  0
LINE
  5
FB
  8
0
 10
8.592849
 20
3.001
 30
0.0
 11
8.592849
 21
3.801
 31
0.0
  0
LINE
  5
FC
  8
0
 10
8.592849
 20
4.801
 30
0.0
 11
8.592849
 21
5.601
 31
0.0
  0
LINE
  5
FD
  8
0
 10
8.592849
 20
6.601
 30
0.0
 11
8.592849
 21
7.401
 31
0.0
  0
LINE
  5
FE
  8
0
 10
8.592849
 20
8.401
 30
0.0
 11
8.592849
 21
9.201
 31
0.0
  0
LINE
  5
FF
  8
0
 10
8.592849
 20
10.201
 30
0.0
 11
8.592849
 21
11.001
 31
0.0
  0
LINE
  5
100
  8
0
 10
8.592849
 20
12.001
 30
0.0
 11
8.592849
 21
12.801
 31
0.0
  0
LINE
  5
101
  8
0
 10
9.092849
 20
1.189
 30
0.0
 11
9.092849
 21
1.989
 31
0.0
  0
LINE
  5
102
  8
0
 10
9.092849
 20
1.189
 30
0.0
 11
9.092849
 21
1.989
 31
0.0
  0
LINE
  5
103
  8
0
 10
9.092849
 20
2.989
 30
0.0
 11
9.092849
 21
3.789
 31
0.0
  0
LINE
  5
104
  8
0
 10
9.092849
 20
4.789
 30
0.0
 11
9.092849
 21
5.589
 31
0.0
  0
LINE
  5
105
  8
0
 10
9.092849
 20
6.589
 30
0.0
 11
9.092849
 21
7.389
 31
0.0
  0
LINE
  5
106
  8
0
 10
9.092849
 20
8.389
 30
0.0
 11
9.092849
 21
9.189
 31
0.0
  0
LINE
  5
107
  8
0
 10
9.092849
 20
10.189
 30
0.0
 11
9.092849
 21
10.989
 31
0.0
  0
LINE
  5
108
  8
0
 10
9.092849
 20
11.989
 30
0.0
 11
9.092849
 21
12.789
 31
0.0
  0
LINE
  5
109
  8
0
 10
9.592849
 20
1.177
 30
0.0
 11
9.592849
 21
1.977
 31
0.0
  0
LINE
  5
10A
  8
0
 10
9.592849
 20
1.177
 30
0.0
 11
9.592849
 21
1.977
 31
0.0
  0
LINE
  5
10B
  8
0
 10
9.592849
 20
2.977
 30
0.0
 11
9.592849
 21
3.777
 31
0.0
  0
LINE
  5
10C
  8
0
 10
9.592849
 20
4.777
 30
0.0
 11
9.592849
 21
5.577
 31
0.0
  0
LINE
  5
10D
  8
0
 10
9.592849
 20
6.577
 30
0.0
 11
9.592849
 21
7.377
 31
0.0
  0
LINE
  5
10E
  8
0
 10
9.592849
 20
8.377
 30
0.0
 11
9.592849
 21
9.177
 31
0.0
  0
LINE
  5
10F
  8
0
 10
9.592849
 20
10.177
 30
0.0
 11
9.592849
 21
10.977
 31
0.0
  0
LINE
  5
110
  8
0
 10
9.592849
 20
11.977
 30
0.0
 11
9.592849
 21
12.777
 31
0.0
  0
LINE
  5
111
  8
0
 10
10.092849
 20
1.165
 30
0.0
 11
10.092849
 21
1.965
 31
0.0
  0
LINE
  5
112
  8
0
 10
10.092849
 20
1.165
 30
0.0
 11
10.092849
 21
1.965
 31
0.0
  0
LINE
  5
113
  8
0
 10
10.092849
 20
2.965
 30
0.0
 11
10.092849
 21
3.765
 31
0.0
  0
LINE
  5
114
  8
0
 10
10.092849
 20
4.765
 30
0.0
 11
10.092849
 21
5.565
 31
0.0
  0
LINE
  5
115
  8
0
 10
10.092849
 20
6.565
 30
0.0
 11
10.092849
 21
7.365
 31
0.0
  0
LINE
  5
116
  8
0
 10
10.092849
 20
8.365
 30
0.0
 11
10.092849
 21
9.165
 31
0.0
  0
LINE
  5
117
  8
0
 10
10.092849
 20
10.165
 30
0.0
 11
10.092849
 21
10.965
 31
0.0
  0
LINE
  5
118
  8
0
 10
10.092849
 20
11.965
 30
0.0
 11
10.092849
 21
12.765
 31
0.0
  0
LINE
  5
119
  8
0
 10
10.592849
 20
1.153
 30
0.0
 11
10.592849
 21
1.953
 31
0.0
  0
LINE
  5
11A
  8
0
 10
10.592849
 20
1.153
 30
0.0
 11
10.592849
 21
1.953
 31
0.0
  0
LINE
  5
11B
  8
0
 10
10.592849
 20
2.953
 30
0.0
 11
10.592849
 21
3.753
 31
0.0
  0
LINE
  5
11C
  8
0
 10
10.592849
 20
4.753
 30
0.0
 11
10.592849
 21
5.553
 31
0.0
  0
LINE
  5
11D
  8
0
 10
10.592849
 20
6.553
 30
0.0
 11
10.592849
 21
7.353
 31
0.0
  0
LINE
  5
11E
  8
0
 10
10.592849
 20
8.353
 30
0.0
 11
10.592849
 21
9.153
 31
0.0
  0
LINE
  5
11F
  8
0
 10
10.592849
 20
10.153
 30
0.0
 11
10.592849
 21
10.953
 31
0.0
  0
LINE
  5
120
  8
0
 10
10.592849
 20
11.953
 30
0.0
 11
10.592849
 21
12.753
 31
0.0
  0
LINE
  5
121
  8
0
 10
11.092849
 20
1.141
 30
0.0
 11
11.092849
 21
1.941
 31
0.0
  0
LINE
  5
122
  8
0
 10
11.092849
 20
1.141
 30
0.0
 11
11.092849
 21
1.941
 31
0.0
  0
LINE
  5
123
  8
0
 10
11.092849
 20
2.941
 30
0.0
 11
11.092849
 21
3.741
 31
0.0
  0
LINE
  5
124
  8
0
 10
11.092849
 20
4.741
 30
0.0
 11
11.092849
 21
5.541
 31
0.0
  0
LINE
  5
125
  8
0
 10
11.092849
 20
6.541
 30
0.0
 11
11.092849
 21
7.341
 31
0.0
  0
LINE
  5
126
  8
0
 10
11.092849
 20
8.341
 30
0.0
 11
11.092849
 21
9.141
 31
0.0
  0
LINE
  5
127
  8
0
 10
11.092849
 20
10.141
 30
0.0
 11
11.092849
 21
10.941
 31
0.0
  0
LINE
  5
128
  8
0
 10
11.092849
 20
11.941
 30
0.0
 11
11.092849
 21
12.741
 31
0.0
  0
LINE
  5
129
  8
0
 10
11.592849
 20
1.129
 30
0.0
 11
11.592849
 21
1.929
 31
0.0
  0
LINE
  5
12A
  8
0
 10
11.592849
 20
1.129
 30
0.0
 11
11.592849
 21
1.929
 31
0.0
  0
LINE
  5
12B
  8
0
 10
11.592849
 20
2.929
 30
0.0
 11
11.592849
 21
3.729
 31
0.0
  0
LINE
  5
12C
  8
0
 10
11.592849
 20
4.729
 30
0.0
 11
11.592849
 21
5.529
 31
0.0
  0
LINE
  5
12D
  8
0
 10
11.592849
 20
6.529
 30
0.0
 11
11.592849
 21
7.329
 31
0.0
  0
LINE
  5
12E
  8
0
 10
11.592849
 20
8.329
 30
0.0
 11
11.592849
 21
9.129
 31
0.0
  0
LINE
  5
12F
  8
0
 10
11.592849
 20
10.129
 30
0.0
 11
11.592849
 21
10.929
 31
0.0
  0
LINE
  5
130
  8
0
 10
11.592849
 20
11.929
 30
0.0
 11
11.592849
 21
12.729
 31
0.0
  0
LINE
  5
131
  8
0
 10
12.092849
 20
1.117
 30
0.0
 11
12.092849
 21
1.917
 31
0.0
  0
LINE
  5
132
  8
0
 10
12.092849
 20
1.117
 30
0.0
 11
12.092849
 21
1.917
 31
0.0
  0
LINE
  5
133
  8
0
 10
12.092849
 20
2.917
 30
0.0
 11
12.092849
 21
3.717
 31
0.0
  0
LINE
  5
134
  8
0
 10
12.092849
 20
4.717
 30
0.0
 11
12.092849
 21
5.517
 31
0.0
  0
LINE
  5
135
  8
0
 10
12.092849
 20
6.517
 30
0.0
 11
12.092849
 21
7.317
 31
0.0
  0
LINE
  5
136
  8
0
 10
12.092849
 20
8.317
 30
0.0
 11
12.092849
 21
9.117
 31
0.0
  0
LINE
  5
137
  8
0
 10
12.092849
 20
10.117
 30
0.0
 11
12.092849
 21
10.917
 31
0.0
  0
LINE
  5
138
  8
0
 10
12.092849
 20
11.917
 30
0.0
 11
12.092849
 21
12.717
 31
0.0
  0
LINE
  5
139
  8
0
 10
12.592849
 20
1.105
 30
0.0
 11
12.592849
 21
1.905
 31
0.0
  0
LINE
  5
13A
  8
0
 10
12.592849
 20
1.105
 30
0.0
 11
12.592849
 21
1.905
 31
0.0
  0
LINE
  5
13B
  8
0
 10
12.592849
 20
2.905
 30
0.0
 11
12.592849
 21
3.705
 31
0.0
  0
LINE
  5
13C
  8
0
 10
12.592849
 20
4.705
 30
0.0
 11
12.592849
 21
5.505
 31
0.0
  0
LINE
  5
13D
  8
0
 10
12.592849
 20
6.505
 30
0.0
 11
12.592849
 21
7.305
 31
0.0
  0
LINE
  5
13E
  8
0
 10
12.592849
 20
8.305
 30
0.0
 11
12.592849
 21
9.105
 31
0.0
  0
LINE
  5
13F
  8
0
 10
12.592849
 20
10.105
 30
0.0
 11
12.592849
 21
10.905
 31
0.0
  0
LINE
  5
140
  8
0
 10
12.592849
 20
11.905
 30
0.0
 11
12.592849
 21
12.705
 31
0.0
  0
LINE
  5
141
  8
0
 10
13.092849
 20
1.105
 30
0.0
 11
13.092849
 21
1.905
 31
0.0
  0
LINE
  5
142
  8
0
 10
13.092849
 20
1.105
 30
0.0
 11
13.092849
 21
1.905
 31
0.0
  0
LINE
  5
143
  8
0
 10
13.092849
 20
2.905
 30
0.0
 11
13.092849
 21
3.705
 31
0.0
  0
LINE
  5
144
  8
0
 10
13.092849
 20
4.705
 30
0.0
 11
13.092849
 21
5.505
 31
0.0
  0
LINE
  5
145
  8
0
 10
13.092849
 20
6.505
 30
0.0
 11
13.092849
 21
7.305
 31
0.0
  0
LINE
  5
146
  8
0
 10
13.092849
 20
8.305
 30
0.0
 11
13.092849
 21
9.105
 31
0.0
  0
LINE
  5
147
  8
0
 10
13.092849
 20
10.105
 30
0.0
 11
13.092849
 21
10.905
 31
0.0
  0
LINE
  5
148
  8
0
 10
13.092849
 20
11.905
 30
0.0
 11
13.092849
 21
12.705
 31
0.0
  0
LINE
  5
149
  8
0
 10
13.592849
 20
1.173
 30
0.0
 11
13.592849
 21
1.973
 31
0.0
  0
LINE
  5
14A
  8
0
 10
13.592849
 20
1.173
 30
0.0
 11
13.592849
 21
1.973
 31
0.0
  0
LINE
  5
14B
  8
0
 10
13.592849
 20
2.973
 30
0.0
 11
13.592849
 21
3.773
 31
0.0
  0
LINE
  5
14C
  8
0
 10
13.592849
 20
4.773
 30
0.0
 11
13.592849
 21
5.573
 31
0.0
  0
LINE
  5
14D
  8
0
 10
13.592849
 20
6.573
 30
0.0
 11
13.592849
 21
7.373
 31
0.0
  0
LINE
  5
14E
  8
0
 10
13.592849
 20
8.373
 30
0.0
 11
13.592849
 21
9.173
 31
0.0
  0
LINE
  5
14F
  8
0
 10
13.592849
 20
10.173
 30
0.0
 11
13.592849
 21
10.973
 31
0.0
  0
LINE
  5
150
  8
0
 10
13.592849
 20
11.973
 30
0.0
 11
13.592849
 21
12.773
 31
0.0
  0
LINE
  5
151
  8
0
 10
14.092849
 20
1.304
 30
0.0
 11
14.092849
 21
2.104
 31
0.0
  0
LINE
  5
152
  8
0
 10
14.092849
 20
1.304
 30
0.0
 11
14.092849
 21
2.104
 31
0.0
  0
LINE
  5
153
  8
0
 10
14.092849
 20
3.104
 30
0.0
 11
14.092849
 21
3.904
 31
0.0
  0
LINE
  5
154
  8
0
 10
14.092849
 20
4.904
 30
0.0
 11
14.092849
 21
5.704
 31
0.0
  0
LINE
  5
155
  8
0
 10
14.092849
 20
6.704
 30
0.0
 11
14.092849
 21
7.504
 31
0.0
  0
LINE
  5
156
  8
0
 10
14.092849
 20
8.504
 30
0.0
 11
14.092849
 21
9.304
 31
0.0
  0
LINE
  5
157
  8
0
 10
14.092849
 20
10.304
 30
0.0
 11
14.092849
 21
11.104
 31
0.0
  0
LINE
  5
158
  8
0
 10
14.092849
 20
12.104
 30
0.0
 11
14.092849
 21
12.904
 31
0.0
  0
LINE
  5
159
  8
0
 10
14.592849
 20
1.876
 30
0.0
 11
14.592849
 21
2.677
 31
0.0
  0
LINE
  5
15A
  8
0
 10
14.592849
 20
1.876
 30
0.0
 11
14.592849
 21
2.677
 31
0.0
  0
LINE
  5
15B
  8
0
 10
14.592849
 20
3.676
 30
0.0
 11
14.592849
 21
4.477
 31
0.0
  0
LINE
  5
15C
  8
0
 10
14.592849
 20
5.476
 30
0.0
 11
14.592849
 21
6.277
 31
0.0
  0
LINE
  5
15D
  8
0
 10
14.592849
 20
7.276
 30
0.0
 11
14.592849
 21
8.077
 31
0.0
  0
LINE
  5
15E
  8
0
 10
14.592849
 20
9.076
 30
0.0
 11
14.592849
 21
9.877
 31
0.0
  0
LINE
  5
15F
  8
0
 10
14.592849
 20
10.876
 30
0.0
 11
14.592849
 21
11.677
 31
0.0
  0
LINE
  5
160
  8
0
 10
14.592849
 20
12.676
 30
0.0
 11
14.592849
 21
13.477
 31
0.0
  0
LINE
  5
161
  8
0
 10
14.592849
 20
14.476
 30
0.0
 11
14.592849
 21
14.477
 31
0.0
  0
LINE
  5
162
  8
0
 10
1.681
 20
0.592238
 30
0.0
 11
2.481
 21
0.592238
 31
0.0
  0
LINE
  5
163
  8
0
 10
1.681
 20
0.592238
 30
0.0
 11
2.481
 21
0.592238
 31
0.0
  0
LINE
  5
164
  8
0
 10
3.481
 20
0.592238
 30
0.0
 11
4.281
 21
0.592238
 31
0.0
  0
LINE
  5
165
  8
0
 10
5.281
 20
0.592238
 30
0.0
 11
6.081
 21
0.592238
 31
0.0
  0
LINE
  5
166
  8
0
 10
7.081
 20
0.592238
 30
0.0
 11
7.881
 21
0.592238
 31
0.0
  0
LINE
  5
167
  8
0
 10
8.881
 20
0.592238
 30
0.0
 11
9.681
 21
0.592238
 31
0.0
  0
LINE
  5
168
  8
0
 10
10.681
 20
0.592238
 30
0.0
 11
11.481
 21
0.592238
 31
0.0
  0
LINE
  5
169
  8
0
 10
12.481
 20
0.592238
 30
0.0
 11
13.281
 21
0.592238
 31
0.0
  0
LINE
  5
16A
  8
0
 10
2.287
 20
1.092238
 30
0.0
 11
3.087
 21
1.092238
 31
0.0
  0
LINE
  5
16B
  8
0
 10
2.287
 20
1.092238
 30
0.0
 11
3.087
 21
1.092238
 31
0.0
  0
LINE
  5
16C
  8
0
 10
4.087
 20
1.092238
 30
0.0
 11
4.887
 21
1.092238
 31
0.0
  0
LINE
  5
16D
  8
0
 10
5.887
 20
1.092238
 30
0.0
 11
6.687
 21
1.092238
 31
0.0
  0
LINE
  5
16E
  8
0
 10
7.687
 20
1.092238
 30
0.0
 11
8.487
 21
1.092238
 31
0.0
  0
LINE
  5
16F
  8
0
 10
9.487
 20
1.092238
 30
0.0
 11
10.287
 21
1.092238
 31
0.0
  0
LINE
  5
170
  8
0
 10
11.287
 20
1.092238
 30
0.0
 11
12.087
 21
1.092238
 31
0.0
  0
LINE
  5
171
  8
0
 10
13.087
 20
1.092238
 30
0.0
 11
13.887
 21
1.092238
 31
0.0
  0
LINE
  5
172
  8
0
 10
2.414
 20
1.592238
 30
0.0
 11
3.214
 21
1.592238
 31
0.0
  0
LINE
  5
173
  8
0
 10
2.414
 20
1.592238
 30
0.0
 11
3.214
 21
1.592238
 31
0.0
  0
LINE
  5
174
  8
0
 10
4.214
 20
1.592238
 30
0.0
 11
5.014
 21
1.592238
 31
0.0
  0
LINE
  5
175
  8
0
 10
6.014
 20
1.592238
 30
0.0
 11
6.814
 21
1.592238
 31
0.0
  0
LINE
  5
176
  8
0
 10
7.814
 20
1.592238
 30
0.0
 11
8.614
 21
1.592238
 31
0.0
  0
LINE
  5
177
  8
0
 10
9.614
 20
1.592238
 30
0.0
 11
10.414
 21
1.592238
 31
0.0
  0
LINE
  5
178
  8
0
 10
11.414
 20
1.592238
 30
0.0
 11
12.214
 21
1.592238
 31
0.0
  0
LINE
  5
179
  8
0
 10
13.214
 20
1.592238
 30
0.0
 11
14.014
 21
1.592238
 31
0.0
  0
LINE
  5
17A
  8
0
 10
2.478
 20
2.092238
 30
0.0
 11
3.278
 21
2.092238
 31
0.0
  0
LINE
  5
17B
  8
0
 10
2.478
 20
2.092238
 30
0.0
 11
3.278
 21
2.092238
 31
0.0
  0
LINE
  5
17C
  8
0
 10
4.278
 20
2.092238
 30
0.0
 11
5.078
 21
2.092238
 31
0.0
  0
LINE
  5
17D
  8
0
 10
6.078
 20
2.092238
 30
0.0
 11
6.878
 21
2.092238
 31
0.0
  0
LINE
  5
17E
  8
0
 10
7.878
 20
2.092238
 30
0.0
 11
8.678
 21
2.092238
 31
0.0
  0
LINE
  5
17F
  8
0
 10
9.678
 20
2.092238
 30
0.0
 11
10.478
 21
2.092238
 31
0.0
  0
LINE
  5
180
  8
0
 10
11.478
 20
2.092238
 30
0.0
 11
12.278
 21
2.092238
 31
0.0
  0
LINE
  5
181
  8
0
 10
13.278
 20
2.092238
 30
0.0
 11
14.078
 21
2.092238
 31
0.0
  0
LINE
  5
182
  8
0
 10
2.489
 20
2.592238
 30
0.0
 11
3.289
 21
2.592238
 31
0.0
  0
LINE
  5
183
  8
0
 10
2.489
 20
2.592238
 30
0.0
 11
3.289
 21
2.592238
 31
0.0
  0
LINE
  5
184
  8
0
 10
4.289
 20
2.592238
 30
0.0
 11
5.089
 21
2.592238
 31
0.0
  0
LINE
  5
185
  8
0
 10
6.089
 20
2.592238
 30
0.0
 11
6.889
 21
2.592238
 31
0.0
  0
LINE
  5
186
  8
0
 10
7.889
 20
2.592238
 30
0.0
 11
8.689
 21
2.592238
 31
0.0
  0
LINE
  5
187
  8
0
 10
9.689
 20
2.592238
 30
0.0
 11
10.489
 21
2.592238
 31
0.0
  0
LINE
  5
188
  8
0
 10
11.489
 20
2.592238
 30
0.0
 11
12.289
 21
2.592238
 31
0.0
  0
LINE
  5
189
  8
0
 10
13.289
 20
2.592238
 30
0.0
 11
14.089
 21
2.592238
 31
0.0
  0
LINE
  5
18A
  8
0
 10
2.472
 20
3.092238
 30
0.0
 11
3.272
 21
3.092238
 31
0.0
  0
LINE
  5
18B
  8
0
 10
2.472
 20
3.092238
 30
0.0
 11
3.272
 21
3.092238
 31
0.0
  0
LINE
  5
18C
  8
0
 10
4.272
 20
3.092238
 30
0.0
 11
5.072
 21
3.092238
 31
0.0
  0
LINE
  5
18D
  8
0
 10
6.072
 20
3.092238
 30
0.0
 11
6.872
 21
3.092238
 31
0.0
  0
LINE
  5
18E
  8
0
 10
7.872
 20
3.092238
 30
0.0
 11
8.672
 21
3.092238
 31
0.0
  0
LINE
  5
18F
  8
0
 10
9.672
 20
3.092238
 30
0.0
 11
10.472
 21
3.092238
 31
0.0
  0
LINE
  5
190
  8
0
 10
11.472
 20
3.092238
 30
0.0
 11
12.272
 21
3.092238
 31
0.0
  0
LINE
  5
191
  8
0
 10
13.272
 20
3.092238
 30
0.0
 11
14.072
 21
3.092238
 31
0.0
  0
LINE
  5
192
  8
0
 10
2.454
 20
3.592238
 30
0.0
 11
3.254
 21
3.592238
 31
0.0
  0
LINE
  5
193
  8
0
 10
2.454
 20
3.592238
 30
0.0
 11
3.254
 21
3.592238
 31
0.0
  0
LINE
  5
194
  8
0
 10
4.254
 20
3.592238
 30
0.0
 11
5.054
 21
3.592238
 31
0.0
  0
LINE
  5
195
  8
0
 10
6.054
 20
3.592238
 30
0.0
 11
6.854
 21
3.592238
 31
0.0
  0
LINE
  5
196
  8
0
 10
7.854
 20
3.592238
 30
0.0
 11
8.654
 21
3.592238
 31
0.0
  0
LINE
  5
197
  8
0
 10
9.654
 20
3.592238
 30
0.0
 11
10.454
 21
3.592238
 31
0.0
  0
LINE
  5
198
  8
0
 10
11.454
 20
3.592238
 30
0.0
 11
12.254
 21
3.592238
 31
0.0
  0
LINE
  5
199
  8
0
 10
13.254
 20
3.592238
 30
0.0
 11
14.054
 21
3.592238
 31
0.0
  0
LINE
  5
19A
  8
0
 10
1.436
 20
4.092238
 30
0.0
 11
1.437
 21
4.092238
 31
0.0
  0
LINE
  5
19B
  8
0
 10
1.436
 20
4.092238
 30
0.0
 11
1.437
 21
4.092238
 31
0.0
  0
LINE
  5
19C
  8
0
 10
2.436
 20
4.092238
 30
0.0
 11
3.237
 21
4.092238
 31
0.0
  0
LINE
  5
19D
  8
0
 10
4.236
 20
4.092238
 30
0.0
 11
5.037
 21
4.092238
 31
0.0
  0
LINE
  5
19E
  8
0
 10
6.036
 20
4.092238
 30
0.0
 11
6.837
 21
4.092238
 31
0.0
  0
LINE
  5
19F
  8
0
 10
7.836
 20
4.092238
 30
0.0
 11
8.637
 21
4.092238
 31
0.0
  0
LINE
  5
1A0
  8
0
 10
9.636
 20
4.092238
 30
0.0
 11
10.437
 21
4.092238
 31
0.0
  0
LINE
  5
1A1
  8
0
 10
11.436
 20
4.092238
 30
0.0
 11
12.237
 21
4.092238
 31
0.0
  0
LINE
  5
1A2
  8
0
 10
13.236
 20
4.092238
 30
0.0
 11
14.037
 21
4.092238
 31
0.0
  0
LINE
  5
1A3
  8
0
 10
2.419
 20
4.592238
 30
0.0
 11
3.219
 21
4.592238
 31
0.0
  0
LINE
  5
1A4
  8
0
 10
2.419
 20
4.592238
 30
0.0
 11
3.219
 21
4.592238
 31
0.0
  0
LINE
  5
1A5
  8
0
 10
4.219
 20
4.592238
 30
0.0
 11
5.019
 21
4.592238
 31
0.0
  0
LINE
  5
1A6
  8
0
 10
6.019
 20
4.592238
 30
0.0
 11
6.819
 21
4.592238
 31
0.0
  0
LINE
  5
1A7
  8
0
 10
7.819
 20
4.592238
 30
0.0
 11
8.619
 21
4.592238
 31
0.0
  0
LINE
  5
1A8
  8
0
 10
9.619
 20
4.592238
 30
0.0
 11
10.419
 21
4.592238
 31
0.0
  0
LINE
  5
1A9
  8
0
 10
11.419
 20
4.592238
 30
0.0
 11
12.219
 21
4.592238
 31
0.0
  0
LINE
  5
1AA
  8
0
 10
13.219
 20
4.592238
 30
0.0
 11
14.019
 21
4.592238
 31
0.0
  0
LINE
  5
1AB
  8
0
 10
2.401
 20
5.092238
 30
0.0
 11
3.201
 21
5.092238
 31
0.0
  0
LINE
  5
1AC
  8
0
 10
2.401
 20
5.092238
 30
0.0
 11
3.201
 21
5.092238
 31
0.0
  0
LINE
  5
1AD
  8
0
 10
4.201
 20
5.092238
 30
0.0
 11
5.001
 21
5.092238
 31
0.0
  0
LINE
  5
1AE
  8
0
 10
6.001
 20
5.092238
 30
0.0
 11
6.801
 21
5.092238
 31
0.0
  0
LINE
  5
1AF
  8
0
 10
7.801
 20
5.092238
 30
0.0
 11
8.601
 21
5.092238
 31
0.0
  0
LINE
  5
1B0
  8
0
 10
9.601
 20
5.092238
 30
0.0
 11
10.401
 21
5.092238
 31
0.0
  0
LINE
  5
1B1
  8
0
 10
11.401
 20
5.092238
 30
0.0
 11
12.201
 21
5.092238
 31
0.0
  0
LINE
  5
1B2
  8
0
 10
13.201
 20
5.092238
 30
0.0
 11
14.001
 21
5.092238
 31
0.0
  0
LINE
  5
1B3
  8
0
 10
2.383
 20
5.592238
 30
0.0
 11
2.384
 21
5.592238
 31
0.0
  0
LINE
  5
1B4
  8
0
 10
2.383
 20
5.592238
 30
0.0
 11
2.384
 21
5.592238
 31
0.0
  0
LINE
  5
1B5
  8
0
 10
2.384
 20
5.592238
 30
0.0
 11
3.184
 21
5.592238
 31
0.0
  0
LINE
  5
1B6
  8
0
 10
4.183
 20
5.592238
 30
0.0
 11
4.184
 21
5.592238
 31
0.0
  0
LINE
  5
1B7
  8
0
 10
4.184
 20
5.592238
 30
0.0
 11
4.984
 21
5.592238
 31
0.0
  0
LINE
  5
1B8
  8
0
 10
5.983
 20
5.592238
 30
0.0
 11
5.984
 21
5.592238
 31
0.0
  0
LINE
  5
1B9
  8
0
 10
5.984
 20
5.592238
 30
0.0
 11
6.784
 21
5.592238
 31
0.0
  0
LINE
  5
1BA
  8
0
 10
7.783
 20
5.592238
 30
0.0
 11
7.784
 21
5.592238
 31
0.0
  0
LINE
  5
1BB
  8
0
 10
7.784
 20
5.592238
 30
0.0
 11
8.584
 21
5.592238
 31
0.0
  0
LINE
  5
1BC
  8
0
 10
9.583
 20
5.592238
 30
0.0
 11
9.584
 21
5.592238
 31
0.0
  0
LINE
  5
1BD
  8
0
 10
9.584
 20
5.592238
 30
0.0
 11
10.384
 21
5.592238
 31
0.0
  0
LINE
  5
1BE
  8
0
 10
11.383
 20
5.592238
 30
0.0
 11
11.384
 21
5.592238
 31
0.0
  0
LINE
  5
1BF
  8
0
 10
11.384
 20
5.592238
 30
0.0
 11
12.184
 21
5.592238
 31
0.0
  0
LINE
  5
1C0
  8
0
 10
13.183
 20
5.592238
 30
0.0
 11
13.184
 21
5.592238
 31
0.0
  0
LINE
  5
1C1
  8
0
 10
13.184
 20
5.592238
 30
0.0
 11
13.984
 21
5.592238
 31
0.0
  0
LINE
  5
1C2
  8
0
 10
2.376
 20
6.092238
 30
0.0
 11
3.176
 21
6.092238
 31
0.0
  0
LINE
  5
1C3
  8
0
 10
2.376
 20
6.092238
 30
0.0
 11
3.176
 21
6.092238
 31
0.0
  0
LINE
  5
1C4
  8
0
 10
4.176
 20
6.092238
 30
0.0
 11
4.976
 21
6.092238
 31
0.0
  0
LINE
  5
1C5
  8
0
 10
5.976
 20
6.092238
 30
0.0
 11
6.776
 21
6.092238
 31
0.0
  0
LINE
  5
1C6
  8
0
 10
7.776
 20
6.092238
 30
0.0
 11
8.576
 21
6.092238
 31
0.0
  0
LINE
  5
1C7
  8
0
 10
9.576
 20
6.092238
 30
0.0
 11
10.376
 21
6.092238
 31
0.0
  0
LINE
  5
1C8
  8
0
 10
11.376
 20
6.092238
 30
0.0
 11
12.176
 21
6.092238
 31
0.0
  0
LINE
  5
1C9
  8
0
 10
13.176
 20
6.092238
 30
0.0
 11
13.976
 21
6.092238
 31
0.0
  0
LINE
  5
1CA
  8
0
 10
2.376
 20
6.592238
 30
0.0
 11
3.176
 21
6.592238
 31
0.0
  0
LINE
  5
1CB
  8
0
 10
2.376
 20
6.592238
 30
0.0
 11
3.176
 21
6.592238
 31
0.0
  0
LINE
  5
1CC
  8
0
 10
4.176
 20
6.592238
 30
0.0
 11
4.976
 21
6.592238
 31
0.0
  0
LINE
  5
1CD
  8
0
 10
5.976
 20
6.592238
 30
0.0
 11
6.776
 21
6.592238
 31
0.0
  0
LINE
  5
1CE
  8
0
 10
7.776
 20
6.592238
 30
0.0
 11
8.576
 21
6.592238
 31
0.0
  0
LINE
  5
1CF
  8
0
 10
9.576
 20
6.592238
 30
0.0
 11
10.376
 21
6.592238
 31
0.0
  0
LINE
  5
1D0
  8
0
 10
11.376
 20
6.592238
 30
0.0
 11
12.176
 21
6.592238
 31
0.0
  0
LINE
  5
1D1
  8
0
 10
13.176
 20
6.592238
 30
0.0
 11
13.976
 21
6.592238
 31
0.0
  0
LINE
  5
1D2
  8
0
 10
2.376
 20
7.092238
 30
0.0
 11
3.176
 21
7.092238
 31
0.0
  0
LINE
  5
1D3
  8
0
 10
2.376
 20
7.092238
 30
0.0
 11
3.176
 21
7.092238
 31
0.0
  0
LINE
  5
1D4
  8
0
 10
4.176
 20
7.092238
 30
0.0
 11
4.976
 21
7.092238
 31
0.0
  0
LINE
  5
1D5
  8
0
 10
5.976
 20
7.092238
 30
0.0
 11
6.776
 21
7.092238
 31
0.0
  0
LINE
  5
1D6
  8
0
 10
7.776
 20
7.092238
 30
0.0
 11
8.576
 21
7.092238
 31
0.0
  0
LINE
  5
1D7
  8
0
 10
9.576
 20
7.092238
 30
0.0
 11
10.376
 21
7.092238
 31
0.0
  0
LINE
  5
1D8
  8
0
 10
11.376
 20
7.092238
 30
0.0
 11
12.176
 21
7.092238
 31
0.0
  0
LINE
  5
1D9
  8
0
 10
13.176
 20
7.092238
 30
0.0
 11
13.976
 21
7.092238
 31
0.0
  0
LINE
  5
1DA
  8
0
 10
2.376
 20
7.592238
 30
0.0
 11
3.176
 21
7.592238
 31
0.0
  0
LINE
  5
1DB
  8
0
 10
2.376
 20
7.592238
 30
0.0
 11
3.176
 21
7.592238
 31
0.0
  0
LINE
  5
1DC
  8
0
 10
4.176
 20
7.592238
 30
0.0
 11
4.976
 21
7.592238
 31
0.0
  0
LINE
  5
1DD
  8
0
 10
5.976
 20
7.592238
 30
0.0
 11
6.776
 21
7.592238
 31
0.0
  0
LINE
  5
1DE
  8
0
 10
7.776
 20
7.592238
 30
0.0
 11
8.576
 21
7.592238
 31
0.0
  0
LINE
  5
1DF
  8
0
 10
9.576
 20
7.592238
 30
0.0
 11
10.376
 21
7.592238
 31
0.0
  0
LINE
  5
1E0
  8
0
 10
11.376
 20
7.592238
 30
0.0
 11
12.176
 21
7.592238
 31
0.0
  0
LINE
  5
1E1
  8
0
 10
13.176
 20
7.592238
 30
0.0
 11
13.976
 21
7.592238
 31
0.0
  0
LINE
  5
1E2
  8
0
 10
2.376
 20
8.092238
 30
0.0
 11
3.176
 21
8.092238
 31
0.0
  0
LINE
  5
1E3
  8
0
 10
2.376
 20
8.092238
 30
0.0
 11
3.176
 21
8.092238
 31
0.0
  0
LINE
  5
1E4
  8
0
 10
4.176
 20
8.092238
 30
0.0
 11
4.976
 21
8.092238
 31
0.0
  0
LINE
  5
1E5
  8
0
 10
5.976
 20
8.092238
 30
0.0
 11
6.776
 21
8.092238
 31
0.0
  0
LINE
  5
1E6
  8
0
 10
7.776
 20
8.092238
 30
0.0
 11
8.576
 21
8.092238
 31
0.0
  0
LINE
  5
1E7
  8
0
 10
9.576
 20
8.092238
 30
0.0
 11
10.376
 21
8.092238
 31
0.0
  0
LINE
  5
1E8
  8
0
 10
11.376
 20
8.092238
 30
0.0
 11
12.176
 21
8.092238
 31
0.0
  0
LINE
  5
1E9
  8
0
 10
13.176
 20
8.092238
 30
0.0
 11
13.976
 21
8.092238
 31
0.0
  0
LINE
  5
1EA
  8
0
 10
2.376
 20
8.592238
 30
0.0
 11
3.176
 21
8.592238
 31
0.0
  0
LINE
  5
1EB
  8
0
 10
2.376
 20
8.592238
 30
0.0
 11
3.176
 21
8.592238
 31
0.0
  0
LINE
  5
1EC
  8
0
 10
4.176
 20
8.592238
 30
0.0
 11
4.976
 21
8.592238
 31
0.0
  0
LINE
  5
1ED
  8
0
 10
5.976
 20
8.592238
 30
0.0
 11
6.776
 21
8.592238
 31
0.0
  0
LINE
  5
1EE
  8
0
 10
7.776
 20
8.592238
 30
0.0
 11
8.576
 21
8.592238
 31
0.0
  0
LINE
  5
1EF
  8
0
 10
9.576
 20
8.592238
 30
0.0
 11
10.376
 21
8.592238
 31
0.0
  0
LINE
  5
1F0
  8
0
 10
11.376
 20
8.592238
 30
0.0
 11
12.176
 21
8.592238
 31
0.0
  0
LINE
  5
1F1
  8
0
 10
13.176
 20
8.592238
 30
0.0
 11
13.976
 21
8.592238
 31
0.0
  0
LINE
  5
1F2
  8
0
 10
2.376
 20
9.092238
 30
0.0
 11
3.176
 21
9.092238
 31
0.0
  0
LINE
  5
1F3
  8
0
 10
2.376
 20
9.092238
 30
0.0
 11
3.176
 21
9.092238
 31
0.0
  0
LINE
  5
1F4
  8
0
 10
4.176
 20
9.092238
 30
0.0
 11
4.976
 21
9.092238
 31
0.0
  0
LINE
  5
1F5
  8
0
 10
5.976
 20
9.092238
 30
0.0
 11
6.776
 21
9.092238
 31
0.0
  0
LINE
  5
1F6
  8
0
 10
7.776
 20
9.092238
 30
0.0
 11
8.576
 21
9.092238
 31
0.0
  0
LINE
  5
1F7
  8
0
 10
9.576
 20
9.092238
 30
0.0
 11
10.376
 21
9.092238
 31
0.0
  0
LINE
  5
1F8
  8
0
 10
11.376
 20
9.092238
 30
0.0
 11
12.176
 21
9.092238
 31
0.0
  0
LINE
  5
1F9
  8
0
 10
13.176
 20
9.092238
 30
0.0
 11
13.976
 21
9.092238
 31
0.0
  0
LINE
  5
1FA
  8
0
 10
2.376
 20
9.592238
 30
0.0
 11
3.176
 21
9.592238
 31
0.0
  0
LINE
  5
1FB
  8
0
 10
2.376
 20
9.592238
 30
0.0
 11
3.176
 21
9.592238
 31
0.0
  0
LINE
  5
1FC
  8
0
 10
4.176
 20
9.592238
 30
0.0
 11
4.976
 21
9.592238
 31
0.0
  0
LINE
  5
1FD
  8
0
 10
5.976
 20
9.592238
 30
0.0
 11
6.776
 21
9.592238
 31
0.0
  0
LINE
  5
1FE
  8
0
 10
7.776
 20
9.592238
 30
0.0
 11
8.576
 21
9.592238
 31
0.0
  0
LINE
  5
1FF
  8
0
 10
9.576
 20
9.592238
 30
0.0
 11
10.376
 21
9.592238
 31
0.0
  0
LINE
  5
200
  8
0
 10
11.376
 20
9.592238
 30
0.0
 11
12.176
 21
9.592238
 31
0.0
  0
LINE
  5
201
  8
0
 10
13.176
 20
9.592238
 30
0.0
 11
13.976
 21
9.592238
 31
0.0
  0
LINE
  5
202
  8
0
 10
2.376
 20
10.092238
 30
0.0
 11
3.176
 21
10.092238
 31
0.0
  0
LINE
  5
203
  8
0
 10
2.376
 20
10.092238
 30
0.0
 11
3.176
 21
10.092238
 31
0.0
  0
LINE
  5
204
  8
0
 10
4.176
 20
10.092238
 30
0.0
 11
4.976
 21
10.092238
 31
0.0
  0
LINE
  5
205
  8
0
 10
5.976
 20
10.092238
 30
0.0
 11
6.776
 21
10.092238
 31
0.0
  0
LINE
  5
206
  8
0
 10
7.776
 20
10.092238
 30
0.0
 11
8.576
 21
10.092238
 31
0.0
  0
LINE
  5
207
  8
0
 10
9.576
 20
10.092238
 30
0.0
 11
10.376
 21
10.092238
 31
0.0
  0
LINE
  5
208
  8
0
 10
11.376
 20
10.092238
 30
0.0
 11
12.176
 21
10.092238
 31
0.0
  0
LINE
  5
209
  8
0
 10
13.176
 20
10.092238
 30
0.0
 11
13.976
 21
10.092238
 31
0.0
  0
LINE
  5
20A
  8
0
 10
2.376
 20
10.592238
 30
0.0
 11
3.176
 21
10.592238
 31
0.0
  0
LINE
  5
20B
  8
0
 10
2.376
 20
10.592238
 30
0.0
 11
3.176
 21
10.592238
 31
0.0
  0
LINE
  5
20C
  8
0
 10
4.176
 20
10.592238
 30
0.0
 11
4.976
 21
10.592238
 31
0.0
  0
LINE
  5
20D
  8
0
 10
5.976
 20
10.592238
 30
0.0
 11
6.776
 21
10.592238
 31
0.0
  0
LINE
  5
20E
  8
0
 10
7.776
 20
10.592238
 30
0.0
 11
8.576
 21
10.592238
 31
0.0
  0
LINE
  5
20F
  8
0
 10
9.576
 20
10.592238
 30
0.0
 11
10.376
 21
10.592238
 31
0.0
  0
LINE
  5
210
  8
0
 10
11.376
 20
10.592238
 30
0.0
 11
12.176
 21
10.592238
 31
0.0
  0
LINE
  5
211
  8
0
 10
13.176
 20
10.592238
 30
0.0
 11
13.976
 21
10.592238
 31
0.0
  0
LINE
  5
212
  8
0
 10
2.376
 20
11.092238
 30
0.0
 11
3.176
 21
11.092238
 31
0.0
  0
LINE
  5
213
  8
0
 10
2.376
 20
11.092238
 30
0.0
 11
3.176
 21
11.092238
 31
0.0
  0
LINE
  5
214
  8
0
 10
4.176
 20
11.092238
 30
0.0
 11
4.976
 21
11.092238
 31
0.0
  0
LINE
  5
215
  8
0
 10
5.976
 20
11.092238
 30
0.0
 11
6.776
 21
11.092238
 31
0.0
  0
LINE
  5
216
  8
0
 10
7.776
 20
11.092238
 30
0.0
 11
8.576
 21
11.092238
 31
0.0
  0
LINE
  5
217
  8
0
 10
9.576
 20
11.092238
 30
0.0
 11
10.376
 21
11.092238
 31
0.0
  0
LINE
  5
218
  8
0
 10
11.376
 20
11.092238
 30
0.0
 11
12.176
 21
11.092238
 31
0.0
  0
LINE
  5
219
  8
0
 10
13.176
 20
11.092238
 30
0.0
 11
13.976
 21
11.092238
 31
0.0
  0
LINE
  5
21A
  8
0
 10
2.376
 20
11.592238
 30
0.0
 11
3.176
 21
11.592238
 31
0.0
  0
LINE
  5
21B
  8
0
 10
2.376
 20
11.592238
 30
0.0
 11
3.176
 21
11.592238
 31
0.0
  0
LINE
  5
21C
  8
0
 10
4.176
 20
11.592238
 30
0.0
 11
4.976
 21
11.592238
 31
0.0
  0
LINE
  5
21D
  8
0
 10
5.976
 20
11.592238
 30
0.0
 11
6.776
 21
11.592238
 31
0.0
  0
LINE
  5
21E
  8
0
 10
7.776
 20
11.592238
 30
0.0
 11
8.576
 21
11.592238
 31
0.0
  0
LINE
  5
21F
  8
0
 10
9.576
 20
11.592238
 30
0.0
 11
10.376
 21
11.592238
 31
0.0
  0
LINE
  5
220
  8
0
 10
11.376
 20
11.592238
 30
0.0
 11
12.176
 21
11.592238
 31
0.0
  0
LINE
  5
221
  8
0
 10
13.176
 20
11.592238
 30
0.0
 11
13.976
 21
11.592238
 31
0.0
  0
LINE
  5
222
  8
0
 10
2.376
 20
12.092238
 30
0.0
 11
3.176
 21
12.092238
 31
0.0
  0
LINE
  5
223
  8
0
 10
2.376
 20
12.092238
 30
0.0
 11
3.176
 21
12.092238
 31
0.0
  0
LINE
  5
224
  8
0
 10
4.176
 20
12.092238
 30
0.0
 11
4.976
 21
12.092238
 31
0.0
  0
LINE
  5
225
  8
0
 10
5.976
 20
12.092238
 30
0.0
 11
6.776
 21
12.092238
 31
0.0
  0
LINE
  5
226
  8
0
 10
7.776
 20
12.092238
 30
0.0
 11
8.576
 21
12.092238
 31
0.0
  0
LINE
  5
227
  8
0
 10
9.576
 20
12.092238
 30
0.0
 11
10.376
 21
12.092238
 31
0.0
  0
LINE
  5
228
  8
0
 10
11.376
 20
12.092238
 30
0.0
 11
12.176
 21
12.092238
 31
0.0
  0
LINE
  5
229
  8
0
 10
13.176
 20
12.092238
 30
0.0
 11
13.976
 21
12.092238
 31
0.0
  0
LINE
  5
22A
  8
0
 10
2.376
 20
12.592238
 30
0.0
 11
3.176
 21
12.592238
 31
0.0
  0
LINE
  5
22B
  8
0
 10
2.376
 20
12.592238
 30
0.0
 11
3.176
 21
12.592238
 31
0.0
  0
LINE
  5
22C
  8
0
 10
4.176
 20
12.592238
 30
0.0
 11
4.976
 21
12.592238
 31
0.0
  0
LINE
  5
22D
  8
0
 10
5.976
 20
12.592238
 30
0.0
 11
6.776
 21
12.592238
 31
0.0
  0
LINE
  5
22E
  8
0
 10
7.776
 20
12.592238
 30
0.0
 11
8.576
 21
12.592238
 31
0.0
  0
LINE
  5
22F
  8
0
 10
9.576
 20
12.592238
 30
0.0
 11
10.376
 21
12.592238
 31
0.0
  0
LINE
  5
230
  8
0
 10
11.376
 20
12.592238
 30
0.0
 11
12.176
 21
12.592238
 31
0.0
  0
LINE
  5
231
  8
0
 10
13.176
 20
12.592238
 30
0.0
 11
13.976
 21
12.592238
 31
0.0
  0
LINE
  5
232
  8
0
 10
2.376
 20
13.092238
 30
0.0
 11
3.176
 21
13.092238
 31
0.0
  0
LINE
  5
233
  8
0
 10
2.376
 20
13.092238
 30
0.0
 11
3.176
 21
13.092238
 31
0.0
  0
LINE
  5
234
  8
0
 10
4.176
 20
13.092238
 30
0.0
 11
4.976
 21
13.092238
 31
0.0
  0
LINE
  5
235
  8
0
 10
5.976
 20
13.092238
 30
0.0
 11
6.776
 21
13.092238
 31
0.0
  0
LINE
  5
236
  8
0
 10
7.776
 20
13.092238
 30
0.0
 11
8.576
 21
13.092238
 31
0.0
  0
LINE
  5
237
  8
0
 10
9.576
 20
13.092238
 30
0.0
 11
10.376
 21
13.092238
 31
0.0
  0
LINE
  5
238
  8
0
 10
11.376
 20
13.092238
 30
0.0
 11
12.176
 21
13.092238
 31
0.0
  0
LINE
  5
239
  8
0
 10
13.176
 20
13.092238
 30
0.0
 11
13.976
 21
13.092238
 31
0.0
  0
LINE
  5
23A
  8
0
 10
2.376
 20
13.592238
 30
0.0
 11
3.176
 21
13.592238
 31
0.0
  0
LINE
  5
23B
  8
0
 10
2.376
 20
13.592238
 30
0.0
 11
3.176
 21
13.592238
 31
0.0
  0
LINE
  5
23C
  8
0
 10
4.176
 20
13.592238
 30
0.0
 11
4.976
 21
13.592238
 31
0.0
  0
LINE
  5
23D
  8
0
 10
5.976
 20
13.592238
 30
0.0
 11
6.776
 21
13.592238
 31
0.0
  0
LINE
  5
23E
  8
0
 10
7.776
 20
13.592238
 30
0.0
 11
8.576
 21
13.592238
 31
0.0
  0
LINE
  5
23F
  8
0
 10
9.576
 20
13.592238
 30
0.0
 11
10.376
 21
13.592238
 31
0.0
  0
LINE
  5
240
  8
0
 10
11.376
 20
13.592238
 30
0.0
 11
12.176
 21
13.592238
 31
0.0
  0
LINE
  5
241
  8
0
 10
13.176
 20
13.592238
 30
0.0
 11
13.976
 21
13.592238
 31
0.0
  0
LINE
  5
242
  8
0
 10
2.376
 20
14.092238
 30
0.0
 11
3.176
 21
14.092238
 31
0.0
  0
LINE
  5
243
  8
0
 10
2.376
 20
14.092238
 30
0.0
 11
3.176
 21
14.092238
 31
0.0
  0
LINE
  5
244
  8
0
 10
4.176
 20
14.092238
 30
0.0
 11
4.976
 21
14.092238
 31
0.0
  0
LINE
  5
245
  8
0
 10
5.976
 20
14.092238
 30
0.0
 11
6.776
 21
14.092238
 31
0.0
  0
LINE
  5
246
  8
0
 10
7.776
 20
14.092238
 30
0.0
 11
8.576
 21
14.092238
 31
0.0
  0
LINE
  5
247
  8
0
 10
9.576
 20
14.092238
 30
0.0
 11
10.376
 21
14.092238
 31
0.0
  0
LINE
  5
248
  8
0
 10
11.376
 20
14.092238
 30
0.0
 11
12.176
 21
14.092238
 31
0.0
  0
LINE
  5
249
  8
0
 10
13.176
 20
14.092238
 30
0.0
 11
13.976
 21
14.092238
 31
0.0
  0
LINE
  5
24A
  8
0
 10
2.376
 20
14.592238
 30
0.0
 11
3.176
 21
14.592238
 31
0.0
  0
LINE
  5
24B
  8
0
 10
2.376
 20
14.592238
 30
0.0
 11
3.176
 21
14.592238
 31
0.0
  0
LINE
  5
24C
  8
0
 10
4.176
 20
14.592238
 30
0.0
 11
4.976
 21
14.592238
 31
0.0
  0
LINE
  5
24D
  8
0
 10
5.976
 20
14.592238
 30
0.0
 11
6.776
 21
14.592238
 31
0.0
  0
LINE
  5
24E
  8
0
 10
7.776
 20
14.592238
 30
0.0
 11
8.576
 21
14.592238
 31
0.0
  0
LINE
  5
24F
  8
0
 10
9.576
 20
14.592238
 30
0.0
 11
10.376
 21
14.592238
 31
0.0
  0
LINE
  5
250
  8
0
 10
11.376
 20
14.592238
 30
0.0
 11
12.176
 21
14.592238
 31
0.0
  0
LINE
  5
251
  8
0
 10
13.176
 20
14.592238
 30
0.0
 11
13.976
 21
14.592238
 31
0.0
  0
ENDSEC
  0
EOF
