  0
SECTION
  2
HEADER
  9
$ACADVER
  1
AC1009
  9
$DWGCODEPAGE
  3
ANSI_1252
  9
$INSBASE
 10
0.0
 20
0.0
 30
0.0
  9
$EXTMIN
 10
1e+20
 20
1e+20
 30
1e+20
  9
$EXTMAX
 10
-1e+20
 20
-1e+20
 30
-1e+20
  9
$LIMMIN
 10
0.0
 20
0.0
  9
$LIMMAX
 10
420.0
 20
297.0
  9
$ORTHOMODE
 70
0
  9
$REGENMODE
 70
1
  9
$FILLMODE
 70
1
  9
$DRAGMODE
 70
2
  9
$QTEXTMODE
 70
0
  9
$MIRRTEXT
 70
1
  9
$OSMODE
 70
20583
  9
$LTSCALE
 40
1.0
  9
$ATTMODE
 70
1
  9
$TEXTSIZE
 40
2.5
  9
$TRACEWID
 40
1.0
  9
$TEXTSTYLE
  7
Standard
  9
$CLAYER
  8
0
  9
$CELTYPE
  6
ByLayer
  9
$CECOLOR
 62
256
  9
$DIMSCALE
 40
1.0
  9
$DIMASZ
 40
2.5
  9
$DIMEXO
 40
0.625
  9
$DIMDLI
 40
3.75
  9
$DIMRND
 40
0.0
  9
$DIMDLE
 40
0.0
  9
$DIMEXE
 40
1.25
  9
$DIMTP
 40
0.0
  9
$DIMTM
 40
0.0
  9
$DIMTXT
 40
2.5
  9
$DIMCEN
 40
2.5
  9
$DIMTSZ
 40
0.0
  9
$DIMTOL
 70
0
  9
$DIMLIM
 70
0
  9
$DIMTIH
 70
0
  9
$DIMTOH
 70
0
  9
$DIMSE1
 70
0
  9
$DIMSE2
 70
0
  9
$DIMTAD
 70
1
  9
$DIMZIN
 70
8
  9
$DIMBLK
  1

  9
$DIMASO
 70
1
  9
$DIMSHO
 70
1
  9
$DIMPOST
  1

  9
$DIMAPOST
  1

  9
$DIMALT
 70
0
  9
$DIMALTD
 70
3
  9
$DIMALTF
 40
0.03937007874
  9
$DIMLFAC
 40
1.0
  9
$DIMTOFL
 70
1
  9
$DIMTVP
 40
0.0
  9
$DIMTIX
 70
0
  9
$DIMSOXD
 70
0
  9
$DIMSAH
 70
0
  9
$DIMBLK1
  1

  9
$DIMBLK2
  1

  9
$DIMSTYLE
  2
ISO-25
  9
$DIMCLRD
 70
0
  9
$DIMCLRE
 70
0
  9
$DIMCLRT
 70
0
  9
$DIMTFAC
 40
1.0
  9
$DIMGAP
 40
0.625
  9
$COORDS
 70
1
  9
$ATTDIA
 70
0
  9
$ATTREQ
 70
1
  9
$HANDLING
 70
1
  9
$LUNITS
 70
2
  9
$LUPREC
 70
4
  9
$SKETCHINC
 40
1.0
  9
$FILLETRAD
 40
10.0
  9
$AUNITS
 70
0
  9
$AUPREC
 70
2
  9
$MENU
  1
.
  9
$ELEVATION
 40
0.0
  9
$PELEVATION
 40
0.0
  9
$THICKNESS
 40
0.0
  9
$LIMCHECK
 70
0
  9
$CHAMFERA
 40
0.0
  9
$CHAMFERB
 40
0.0
  9
$SKPOLY
 70
0
  9
$TDCREATE
 40
2460888.4282638887
  9
$TDUPDATE
 40
2460888.428275463
  9
$TDINDWG
 40
0.0
  9
$TDUSRTIMER
 40
0.0
  9
$USRTIMER
 70
1
  9
$ANGBASE
 50
0.0
  9
$ANGDIR
 70
0
  9
$PDMODE
 70
0
  9
$PDSIZE
 40
0.0
  9
$PLINEWID
 40
0.0
  9
$SPLFRAME
 70
0
  9
$SPLINETYPE
 70
6
  9
$SPLINESEGS
 70
8
  9
$HANDSEED
  5
442
  9
$SURFTAB1
 70
6
  9
$SURFTAB2
 70
6
  9
$SURFTYPE
 70
6
  9
$SURFU
 70
6
  9
$SURFV
 70
6
  9
$UCSNAME
  2

  9
$UCSORG
 10
0.0
 20
0.0
 30
0.0
  9
$UCSXDIR
 10
1.0
 20
0.0
 30
0.0
  9
$UCSYDIR
 10
0.0
 20
1.0
 30
0.0
  9
$PUCSNAME
  2

  9
$PUCSORG
 10
0.0
 20
0.0
 30
0.0
  9
$PUCSXDIR
 10
1.0
 20
0.0
 30
0.0
  9
$PUCSYDIR
 10
0.0
 20
1.0
 30
0.0
  9
$USERI1
 70
0
  9
$USERI2
 70
0
  9
$USERI3
 70
0
  9
$USERI4
 70
0
  9
$USERI5
 70
0
  9
$USERR1
 40
0.0
  9
$USERR2
 40
0.0
  9
$USERR3
 40
0.0
  9
$USERR4
 40
0.0
  9
$USERR5
 40
0.0
  9
$WORLDVIEW
 70
1
  9
$SHADEDGE
 70
3
  9
$SHADEDIF
 70
70
  9
$TILEMODE
 70
1
  9
$MAXACTVP
 70
64
  9
$PLIMCHECK
 70
0
  9
$PEXTMIN
 10
1e+20
 20
1e+20
 30
1e+20
  9
$PEXTMAX
 10
-1e+20
 20
-1e+20
 30
-1e+20
  9
$PLIMMIN
 10
0.0
 20
0.0
  9
$PLIMMAX
 10
420.0
 20
297.0
  9
$UNITMODE
 70
0
  9
$VISRETAIN
 70
1
  9
$PLINEGEN
 70
0
  9
$PSLTSCALE
 70
1
  0
ENDSEC
  0
SECTION
  2
TABLES
  0
TABLE
  2
VPORT
 70
1
  0
VPORT
  5
23
  2
*Active
 70
0
 10
0.0
 20
0.0
 11
1.0
 21
1.0
 12
0.0
 22
0.0
 13
0.0
 23
0.0
 14
0.5
 24
0.5
 15
0.5
 25
0.5
 16
0.0
 26
0.0
 36
1.0
 17
0.0
 27
0.0
 37
0.0
 40
1000.0
 41
1.34
 42
50.0
 43
0.0
 44
0.0
 50
0.0
 51
0.0
 71
0
 72
1000
 73
1
 74
3
 75
0
 76
0
 77
0
 78
0
  0
ENDTAB
  0
TABLE
  2
LTYPE
 70
3
  0
LTYPE
  5
24
  2
ByBlock
 70
0
  3

 72
65
 73
0
 40
0.0
  0
LTYPE
  5
25
  2
ByLayer
 70
0
  3

 72
65
 73
0
 40
0.0
  0
LTYPE
  5
26
  2
Continuous
 70
0
  3

 72
65
 73
0
 40
0.0
  0
ENDTAB
  0
TABLE
  2
LAYER
 70
2
  0
LAYER
  5
27
  2
0
 70
0
 62
7
  6
Continuous
  0
LAYER
  5
28
  2
Defpoints
 70
0
 62
7
  6
Continuous
  0
ENDTAB
  0
TABLE
  2
STYLE
 70
1
  0
STYLE
  5
29
  2
Standard
 70
0
 40
0.0
 41
1.0
 50
0.0
 71
0
 42
2.5
  3
txt
  4

  0
ENDTAB
  0
TABLE
  2
VIEW
 70
0
  0
ENDTAB
  0
TABLE
  2
UCS
 70
0
  0
ENDTAB
  0
TABLE
  2
APPID
 70
3
  0
APPID
  5
2A
  2
ACAD
 70
0
  0
APPID
  5
440
  2
HATCHBACKGROUNDCOLOR
 70
0
  0
APPID
  5
441
  2
EZDXF
 70
0
  0
ENDTAB
  0
TABLE
  2
DIMSTYLE
 70
1
  0
DIMSTYLE
105
2B
  2
Standard
 70
0
  3

  4

  5

  6

  7

 40
1.0
 41
2.5
 42
0.625
 43
3.75
 44
1.25
 45
0.0
 46
0.0
 47
0.0
 48
0.0
140
2.5
141
2.5
142
0.0
143
0.03937007874
144
1.0
145
0.0
146
1.0
147
0.625
 71
0
 72
0
 73
0
 74
0
 75
0
 76
0
 77
1
 78
8
170
0
171
3
172
1
173
0
174
0
175
0
176
0
177
0
178
0
  0
ENDTAB
  0
ENDSEC
  0
SECTION
  2
BLOCKS
  0
BLOCK
  5
18
  8
0
  2
$Model_Space
 70
0
 10
0.0
 20
0.0
 30
0.0
  3
$Model_Space
  1

1001
EZDXF
1000
CREATED_BY_EZDXF
1000
1.4.2 @ 2025-07-31T13:16:42.988871+00:00
1000
WRITTEN_BY_EZDXF
1000
1.4.2 @ 2025-07-31T13:16:43.035743+00:00
  0
ENDBLK
  5
19
  8
0
  0
BLOCK
  5
1C
  8
0
  2
$Paper_Space
 70
0
 10
0.0
 20
0.0
 30
0.0
  3
$Paper_Space
  1

  0
ENDBLK
  5
1D
  8
0
  0
ENDSEC
  0
SECTION
  2
ENTITIES
  0
LINE
  5
2D
  8
0
 10
2.286025
 20
0.435839
 30
0.0
 11
1.249122
 21
0.585644
 31
0.0
  0
LINE
  5
2E
  8
0
 10
2.286025
 20
0.435839
 30
0.0
 11
1.249122
 21
0.585644
 31
0.0
  0
LINE
  5
2F
  8
0
 10
0.635006
 20
1.137783
 30
0.0
 11
0.538719
 21
1.433669
 31
0.0
  0
LINE
  5
30
  8
0
 10
0.445664
 20
2.176208
 30
0.0
 11
0.466535
 21
3.227454
 31
0.0
  0
LINE
  5
31
  8
0
 10
0.48537
 20
3.974699
 30
0.0
 11
0.511896
 21
5.027111
 31
0.0
  0
LINE
  5
32
  8
0
 10
0.530737
 20
5.774602
 30
0.0
 11
0.557248
 21
6.826395
 31
0.0
  0
LINE
  5
33
  8
0
 10
0.576081
 20
7.573548
 30
0.0
 11
0.559131
 21
8.625662
 31
0.0
  0
LINE
  5
34
  8
0
 10
0.536253
 20
9.372808
 30
0.0
 11
0.504039
 21
10.424878
 31
0.0
  0
LINE
  5
35
  8
0
 10
0.48115
 20
11.172413
 30
0.0
 11
0.448948
 21
12.224086
 31
0.0
  0
LINE
  5
36
  8
0
 10
0.446536
 20
12.971571
 30
0.0
 11
0.620579
 21
14.002993
 31
0.0
  0
LINE
  5
37
  8
0
 10
1.106303
 20
14.542304
 30
0.0
 11
2.129045
 21
14.74619
 31
0.0
  0
LINE
  5
38
  8
0
 10
2.877021
 20
14.731678
 30
0.0
 11
3.927945
 21
14.695138
 31
0.0
  0
LINE
  5
39
  8
0
 10
4.675173
 20
14.669158
 30
0.0
 11
5.726897
 21
14.63259
 31
0.0
  0
LINE
  5
3A
  8
0
 10
6.475034
 20
14.625873
 30
0.0
 11
7.527113
 21
14.627393
 31
0.0
  0
LINE
  5
3B
  8
0
 10
8.274422
 20
14.628473
 30
0.0
 11
9.327209
 21
14.629993
 31
0.0
  0
LINE
  5
3C
  8
0
 10
10.074556
 20
14.631073
 30
0.0
 11
11.127146
 21
14.632593
 31
0.0
  0
LINE
  5
3D
  8
0
 10
11.874812
 20
14.633673
 30
0.0
 11
12.927214
 21
14.635193
 31
0.0
  0
LINE
  5
3E
  8
0
 10
13.674747
 20
14.636273
 30
0.0
 11
14.62622
 21
14.536428
 31
0.0
  0
LINE
  5
3F
  8
0
 10
14.626211
 20
13.789025
 30
0.0
 11
14.6262
 21
12.737199
 31
0.0
  0
LINE
  5
40
  8
0
 10
14.626191
 20
11.988397
 30
0.0
 11
14.62618
 21
10.93697
 31
0.0
  0
LINE
  5
41
  8
0
 10
14.626171
 20
10.189045
 30
0.0
 11
14.626159
 21
9.13708
 31
0.0
  0
LINE
  5
42
  8
0
 10
14.626151
 20
8.388665
 30
0.0
 11
14.626139
 21
7.336983
 31
0.0
  0
LINE
  5
43
  8
0
 10
14.626131
 20
6.589284
 30
0.0
 11
14.635547
 21
5.53696
 31
0.0
  0
LINE
  5
44
  8
0
 10
14.661879
 20
4.789814
 30
0.0
 11
14.698942
 21
3.738202
 31
0.0
  0
LINE
  5
45
  8
0
 10
14.725282
 20
2.990834
 30
0.0
 11
14.708999
 21
1.941383
 31
0.0
  0
LINE
  5
46
  8
0
 10
14.585047
 20
1.207618
 30
0.0
 11
14.291782
 21
0.782267
 31
0.0
  0
LINE
  5
47
  8
0
 10
14.291782
 20
0.782267
 30
0.0
 11
13.821707
 21
0.553746
 31
0.0
  0
LINE
  5
48
  8
0
 10
13.821707
 20
0.553746
 30
0.0
 11
14.585047
 21
1.207618
 31
0.0
  0
LINE
  5
49
  8
0
 10
13.08114
 20
0.453243
 30
0.0
 11
12.81375
 21
0.4494
 31
0.0
  0
LINE
  5
4A
  8
0
 10
12.81375
 20
0.4494
 30
0.0
 11
12.811498
 21
0.449454
 31
0.0
  0
LINE
  5
4B
  8
0
 10
12.811498
 20
0.449454
 30
0.0
 11
12.03014
 21
0.468191
 31
0.0
  0
LINE
  5
4C
  8
0
 10
11.282626
 20
0.486117
 30
0.0
 11
10.230428
 21
0.511348
 31
0.0
  0
LINE
  5
4D
  8
0
 10
9.482914
 20
0.529273
 30
0.0
 11
8.431102
 21
0.554496
 31
0.0
  0
LINE
  5
4E
  8
0
 10
7.683203
 20
0.57243
 30
0.0
 11
6.63158
 21
0.564781
 31
0.0
  0
LINE
  5
4F
  8
0
 10
5.884695
 20
0.541144
 30
0.0
 11
4.832445
 21
0.507842
 31
0.0
  0
LINE
  5
50
  8
0
 10
4.085094
 20
0.48419
 30
0.0
 11
3.033468
 21
0.450908
 31
0.0
  0
LINE
  5
51
  8
0
 10
0.592849
 20
1.254
 30
0.0
 11
0.592849
 21
1.281027
 31
0.0
  0
LINE
  5
52
  8
0
 10
0.592849
 20
1.254
 30
0.0
 11
0.592849
 21
1.281027
 31
0.0
  0
LINE
  5
53
  8
0
 10
0.592849
 20
1.552874
 30
0.0
 11
0.592849
 21
2.064586
 31
0.0
  0
LINE
  5
54
  8
0
 10
0.592849
 20
2.064586
 30
0.0
 11
0.592849
 21
2.605
 31
0.0
  0
LINE
  5
55
  8
0
 10
0.592849
 20
3.353
 30
0.0
 11
0.592849
 21
3.865
 31
0.0
  0
LINE
  5
56
  8
0
 10
0.592849
 20
3.865
 30
0.0
 11
0.592849
 21
4.405
 31
0.0
  0
LINE
  5
57
  8
0
 10
0.592849
 20
5.153
 30
0.0
 11
0.592849
 21
5.665
 31
0.0
  0
LINE
  5
58
  8
0
 10
0.592849
 20
5.665
 30
0.0
 11
0.592849
 21
6.205
 31
0.0
  0
LINE
  5
59
  8
0
 10
0.592849
 20
6.953
 30
0.0
 11
0.592849
 21
7.465
 31
0.0
  0
LINE
  5
5A
  8
0
 10
0.592849
 20
7.465
 30
0.0
 11
0.592849
 21
8.005
 31
0.0
  0
LINE
  5
5B
  8
0
 10
0.592849
 20
8.753
 30
0.0
 11
0.592849
 21
9.265
 31
0.0
  0
LINE
  5
5C
  8
0
 10
0.592849
 20
9.265
 30
0.0
 11
0.592849
 21
9.805
 31
0.0
  0
LINE
  5
5D
  8
0
 10
0.592849
 20
10.553
 30
0.0
 11
0.592849
 21
11.065
 31
0.0
  0
LINE
  5
5E
  8
0
 10
0.592849
 20
11.065
 30
0.0
 11
0.592849
 21
11.605
 31
0.0
  0
LINE
  5
5F
  8
0
 10
0.592849
 20
12.353
 30
0.0
 11
0.592849
 21
12.893
 31
0.0
  0
LINE
  5
60
  8
0
 10
0.592849
 20
12.893
 30
0.0
 11
0.592849
 21
13.405
 31
0.0
  0
LINE
  5
61
  8
0
 10
1.092849
 20
1.05848
 30
0.0
 11
1.092849
 21
1.412
 31
0.0
  0
LINE
  5
62
  8
0
 10
1.092849
 20
1.05848
 30
0.0
 11
1.092849
 21
1.412
 31
0.0
  0
LINE
  5
63
  8
0
 10
1.092849
 20
1.412
 30
0.0
 11
1.092849
 21
1.41264
 31
0.0
  0
LINE
  5
64
  8
0
 10
1.092849
 20
2.16
 30
0.0
 11
1.092849
 21
2.672
 31
0.0
  0
LINE
  5
65
  8
0
 10
1.092849
 20
2.672
 30
0.0
 11
1.092849
 21
3.212
 31
0.0
  0
LINE
  5
66
  8
0
 10
1.092849
 20
3.212
 30
0.0
 11
1.092849
 21
3.21264
 31
0.0
  0
LINE
  5
67
  8
0
 10
1.092849
 20
3.96
 30
0.0
 11
1.092849
 21
4.5
 31
0.0
  0
LINE
  5
68
  8
0
 10
1.092849
 20
4.5
 30
0.0
 11
1.092849
 21
5.012
 31
0.0
  0
LINE
  5
69
  8
0
 10
1.092849
 20
5.012
 30
0.0
 11
1.092849
 21
5.01264
 31
0.0
  0
LINE
  5
6A
  8
0
 10
1.092849
 20
5.76
 30
0.0
 11
1.092849
 21
6.272
 31
0.0
  0
LINE
  5
6B
  8
0
 10
1.092849
 20
6.272
 30
0.0
 11
1.092849
 21
6.812
 31
0.0
  0
LINE
  5
6C
  8
0
 10
1.092849
 20
6.812
 30
0.0
 11
1.092849
 21
6.81264
 31
0.0
  0
LINE
  5
6D
  8
0
 10
1.092849
 20
7.56
 30
0.0
 11
1.092849
 21
8.1
 31
0.0
  0
LINE
  5
6E
  8
0
 10
1.092849
 20
8.1
 30
0.0
 11
1.092849
 21
8.612
 31
0.0
  0
LINE
  5
6F
  8
0
 10
1.092849
 20
8.612
 30
0.0
 11
1.092849
 21
8.61264
 31
0.0
  0
LINE
  5
70
  8
0
 10
1.092849
 20
9.36
 30
0.0
 11
1.092849
 21
9.872
 31
0.0
  0
LINE
  5
71
  8
0
 10
1.092849
 20
9.872
 30
0.0
 11
1.092849
 21
10.412
 31
0.0
  0
LINE
  5
72
  8
0
 10
1.092849
 20
10.412
 30
0.0
 11
1.092849
 21
10.41264
 31
0.0
  0
LINE
  5
73
  8
0
 10
1.092849
 20
11.16
 30
0.0
 11
1.092849
 21
11.672
 31
0.0
  0
LINE
  5
74
  8
0
 10
1.092849
 20
11.672
 30
0.0
 11
1.092849
 21
12.212
 31
0.0
  0
LINE
  5
75
  8
0
 10
1.092849
 20
12.212
 30
0.0
 11
1.092849
 21
12.21264
 31
0.0
  0
LINE
  5
76
  8
0
 10
1.092849
 20
12.96
 30
0.0
 11
1.092849
 21
13.472
 31
0.0
  0
LINE
  5
77
  8
0
 10
1.092849
 20
13.472
 30
0.0
 11
1.092849
 21
14.012
 31
0.0
  0
LINE
  5
78
  8
0
 10
1.092849
 20
14.012
 30
0.0
 11
1.092849
 21
14.01264
 31
0.0
  0
LINE
  5
79
  8
0
 10
1.592849
 20
1.10624
 30
0.0
 11
1.592849
 21
1.571
 31
0.0
  0
LINE
  5
7A
  8
0
 10
1.592849
 20
1.10624
 30
0.0
 11
1.592849
 21
1.571
 31
0.0
  0
LINE
  5
7B
  8
0
 10
1.592849
 20
2.319
 30
0.0
 11
1.592849
 21
2.831
 31
0.0
  0
LINE
  5
7C
  8
0
 10
1.592849
 20
2.831
 30
0.0
 11
1.592849
 21
3.371
 31
0.0
  0
LINE
  5
7D
  8
0
 10
1.592849
 20
4.119
 30
0.0
 11
1.592849
 21
4.631
 31
0.0
  0
LINE
  5
7E
  8
0
 10
1.592849
 20
4.631
 30
0.0
 11
1.592849
 21
5.171
 31
0.0
  0
LINE
  5
7F
  8
0
 10
1.592849
 20
5.919
 30
0.0
 11
1.592849
 21
6.431
 31
0.0
  0
LINE
  5
80
  8
0
 10
1.592849
 20
6.431
 30
0.0
 11
1.592849
 21
6.971
 31
0.0
  0
LINE
  5
81
  8
0
 10
1.592849
 20
7.719
 30
0.0
 11
1.592849
 21
8.231
 31
0.0
  0
LINE
  5
82
  8
0
 10
1.592849
 20
8.231
 30
0.0
 11
1.592849
 21
8.771
 31
0.0
  0
LINE
  5
83
  8
0
 10
1.592849
 20
9.519
 30
0.0
 11
1.592849
 21
10.031
 31
0.0
  0
LINE
  5
84
  8
0
 10
1.592849
 20
10.031
 30
0.0
 11
1.592849
 21
10.571
 31
0.0
  0
LINE
  5
85
  8
0
 10
1.592849
 20
11.319
 30
0.0
 11
1.592849
 21
11.831
 31
0.0
  0
LINE
  5
86
  8
0
 10
1.592849
 20
11.831
 30
0.0
 11
1.592849
 21
12.371
 31
0.0
  0
LINE
  5
87
  8
0
 10
1.592849
 20
13.119
 30
0.0
 11
1.592849
 21
13.659
 31
0.0
  0
LINE
  5
88
  8
0
 10
1.592849
 20
13.659
 30
0.0
 11
1.592849
 21
14.171
 31
0.0
  0
LINE
  5
89
  8
0
 10
2.092849
 20
1.11608
 30
0.0
 11
2.092849
 21
1.619
 31
0.0
  0
LINE
  5
8A
  8
0
 10
2.092849
 20
1.11608
 30
0.0
 11
2.092849
 21
1.619
 31
0.0
  0
LINE
  5
8B
  8
0
 10
2.092849
 20
1.619
 30
0.0
 11
2.092849
 21
1.61964
 31
0.0
  0
LINE
  5
8C
  8
0
 10
2.092849
 20
2.367
 30
0.0
 11
2.092849
 21
2.879
 31
0.0
  0
LINE
  5
8D
  8
0
 10
2.092849
 20
2.879
 30
0.0
 11
2.092849
 21
3.419
 31
0.0
  0
LINE
  5
8E
  8
0
 10
2.092849
 20
3.419
 30
0.0
 11
2.092849
 21
3.41964
 31
0.0
  0
LINE
  5
8F
  8
0
 10
2.092849
 20
4.167
 30
0.0
 11
2.092849
 21
4.679
 31
0.0
  0
LINE
  5
90
  8
0
 10
2.092849
 20
4.679
 30
0.0
 11
2.092849
 21
5.219
 31
0.0
  0
LINE
  5
91
  8
0
 10
2.092849
 20
5.219
 30
0.0
 11
2.092849
 21
5.21964
 31
0.0
  0
LINE
  5
92
  8
0
 10
2.092849
 20
5.967
 30
0.0
 11
2.092849
 21
6.479
 31
0.0
  0
LINE
  5
93
  8
0
 10
2.092849
 20
6.479
 30
0.0
 11
2.092849
 21
7.019
 31
0.0
  0
LINE
  5
94
  8
0
 10
2.092849
 20
7.019
 30
0.0
 11
2.092849
 21
7.01964
 31
0.0
  0
LINE
  5
95
  8
0
 10
2.092849
 20
7.767
 30
0.0
 11
2.092849
 21
8.279
 31
0.0
  0
LINE
  5
96
  8
0
 10
2.092849
 20
8.279
 30
0.0
 11
2.092849
 21
8.819
 31
0.0
  0
LINE
  5
97
  8
0
 10
2.092849
 20
8.819
 30
0.0
 11
2.092849
 21
8.81964
 31
0.0
  0
LINE
  5
98
  8
0
 10
2.092849
 20
9.567
 30
0.0
 11
2.092849
 21
10.079
 31
0.0
  0
LINE
  5
99
  8
0
 10
2.092849
 20
10.079
 30
0.0
 11
2.092849
 21
10.619
 31
0.0
  0
LINE
  5
9A
  8
0
 10
2.092849
 20
10.619
 30
0.0
 11
2.092849
 21
10.61964
 31
0.0
  0
LINE
  5
9B
  8
0
 10
2.092849
 20
11.367
 30
0.0
 11
2.092849
 21
11.879
 31
0.0
  0
LINE
  5
9C
  8
0
 10
2.092849
 20
11.879
 30
0.0
 11
2.092849
 21
12.419
 31
0.0
  0
LINE
  5
9D
  8
0
 10
2.092849
 20
12.419
 30
0.0
 11
2.092849
 21
12.41964
 31
0.0
  0
LINE
  5
9E
  8
0
 10
2.092849
 20
13.167
 30
0.0
 11
2.092849
 21
13.707
 31
0.0
  0
LINE
  5
9F
  8
0
 10
2.092849
 20
13.707
 30
0.0
 11
2.092849
 21
14.219
 31
0.0
  0
LINE
  5
A0
  8
0
 10
2.092849
 20
14.219
 30
0.0
 11
2.092849
 21
14.21964
 31
0.0
  0
LINE
  5
A1
  8
0
 10
2.592849
 20
1.1122
 30
0.0
 11
2.592849
 21
1.618
 31
0.0
  0
LINE
  5
A2
  8
0
 10
2.592849
 20
1.1122
 30
0.0
 11
2.592849
 21
1.618
 31
0.0
  0
LINE
  5
A3
  8
0
 10
2.592849
 20
2.365
 30
0.0
 11
2.592849
 21
2.36564
 31
0.0
  0
LINE
  5
A4
  8
0
 10
2.592849
 20
2.36564
 30
0.0
 11
2.592849
 21
2.906
 31
0.0
  0
LINE
  5
A5
  8
0
 10
2.592849
 20
2.906
 30
0.0
 11
2.592849
 21
3.418
 31
0.0
  0
LINE
  5
A6
  8
0
 10
2.592849
 20
4.165
 30
0.0
 11
2.592849
 21
4.16564
 31
0.0
  0
LINE
  5
A7
  8
0
 10
2.592849
 20
4.16564
 30
0.0
 11
2.592849
 21
4.706
 31
0.0
  0
LINE
  5
A8
  8
0
 10
2.592849
 20
4.706
 30
0.0
 11
2.592849
 21
5.218
 31
0.0
  0
LINE
  5
A9
  8
0
 10
2.592849
 20
5.965
 30
0.0
 11
2.592849
 21
5.96564
 31
0.0
  0
LINE
  5
AA
  8
0
 10
2.592849
 20
5.96564
 30
0.0
 11
2.592849
 21
6.506
 31
0.0
  0
LINE
  5
AB
  8
0
 10
2.592849
 20
6.506
 30
0.0
 11
2.592849
 21
7.018
 31
0.0
  0
LINE
  5
AC
  8
0
 10
2.592849
 20
7.765
 30
0.0
 11
2.592849
 21
7.76564
 31
0.0
  0
LINE
  5
AD
  8
0
 10
2.592849
 20
7.76564
 30
0.0
 11
2.592849
 21
8.306
 31
0.0
  0
LINE
  5
AE
  8
0
 10
2.592849
 20
8.306
 30
0.0
 11
2.592849
 21
8.818
 31
0.0
  0
LINE
  5
AF
  8
0
 10
2.592849
 20
9.565
 30
0.0
 11
2.592849
 21
9.56564
 31
0.0
  0
LINE
  5
B0
  8
0
 10
2.592849
 20
9.56564
 30
0.0
 11
2.592849
 21
10.106
 31
0.0
  0
LINE
  5
B1
  8
0
 10
2.592849
 20
10.106
 30
0.0
 11
2.592849
 21
10.618
 31
0.0
  0
LINE
  5
B2
  8
0
 10
2.592849
 20
11.365
 30
0.0
 11
2.592849
 21
11.36564
 31
0.0
  0
LINE
  5
B3
  8
0
 10
2.592849
 20
11.36564
 30
0.0
 11
2.592849
 21
11.906
 31
0.0
  0
LINE
  5
B4
  8
0
 10
2.592849
 20
11.906
 30
0.0
 11
2.592849
 21
12.418
 31
0.0
  0
LINE
  5
B5
  8
0
 10
2.592849
 20
13.165
 30
0.0
 11
2.592849
 21
13.16564
 31
0.0
  0
LINE
  5
B6
  8
0
 10
2.592849
 20
13.16564
 30
0.0
 11
2.592849
 21
13.706
 31
0.0
  0
LINE
  5
B7
  8
0
 10
2.592849
 20
13.706
 30
0.0
 11
2.592849
 21
14.218
 31
0.0
  0
LINE
  5
B8
  8
0
 10
3.092849
 20
1.10644
 30
0.0
 11
3.092849
 21
1.6
 31
0.0
  0
LINE
  5
B9
  8
0
 10
3.092849
 20
1.10644
 30
0.0
 11
3.092849
 21
1.6
 31
0.0
  0
LINE
  5
BA
  8
0
 10
3.092849
 20
2.348
 30
0.0
 11
3.092849
 21
2.86
 31
0.0
  0
LINE
  5
BB
  8
0
 10
3.092849
 20
2.86
 30
0.0
 11
3.092849
 21
3.4
 31
0.0
  0
LINE
  5
BC
  8
0
 10
3.092849
 20
4.148
 30
0.0
 11
3.092849
 21
4.66
 31
0.0
  0
LINE
  5
BD
  8
0
 10
3.092849
 20
4.66
 30
0.0
 11
3.092849
 21
5.2
 31
0.0
  0
LINE
  5
BE
  8
0
 10
3.092849
 20
5.948
 30
0.0
 11
3.092849
 21
6.46
 31
0.0
  0
LINE
  5
BF
  8
0
 10
3.092849
 20
6.46
 30
0.0
 11
3.092849
 21
7.0
 31
0.0
  0
LINE
  5
C0
  8
0
 10
3.092849
 20
7.748
 30
0.0
 11
3.092849
 21
8.26
 31
0.0
  0
LINE
  5
C1
  8
0
 10
3.092849
 20
8.26
 30
0.0
 11
3.092849
 21
8.8
 31
0.0
  0
LINE
  5
C2
  8
0
 10
3.092849
 20
9.548
 30
0.0
 11
3.092849
 21
10.06
 31
0.0
  0
LINE
  5
C3
  8
0
 10
3.092849
 20
10.06
 30
0.0
 11
3.092849
 21
10.6
 31
0.0
  0
LINE
  5
C4
  8
0
 10
3.092849
 20
11.348
 30
0.0
 11
3.092849
 21
11.86
 31
0.0
  0
LINE
  5
C5
  8
0
 10
3.092849
 20
11.86
 30
0.0
 11
3.092849
 21
12.4
 31
0.0
  0
LINE
  5
C6
  8
0
 10
3.092849
 20
13.148
 30
0.0
 11
3.092849
 21
13.688
 31
0.0
  0
LINE
  5
C7
  8
0
 10
3.092849
 20
13.688
 30
0.0
 11
3.092849
 21
14.2
 31
0.0
  0
LINE
  5
C8
  8
0
 10
3.592849
 20
1.10132
 30
0.0
 11
3.592849
 21
1.583
 31
0.0
  0
LINE
  5
C9
  8
0
 10
3.592849
 20
1.10132
 30
0.0
 11
3.592849
 21
1.583
 31
0.0
  0
LINE
  5
CA
  8
0
 10
3.592849
 20
2.331
 30
0.0
 11
3.592849
 21
2.843
 31
0.0
  0
LINE
  5
CB
  8
0
 10
3.592849
 20
2.843
 30
0.0
 11
3.592849
 21
3.383
 31
0.0
  0
LINE
  5
CC
  8
0
 10
3.592849
 20
4.131
 30
0.0
 11
3.592849
 21
4.643
 31
0.0
  0
LINE
  5
CD
  8
0
 10
3.592849
 20
4.643
 30
0.0
 11
3.592849
 21
5.183
 31
0.0
  0
LINE
  5
CE
  8
0
 10
3.592849
 20
5.931
 30
0.0
 11
3.592849
 21
6.471
 31
0.0
  0
LINE
  5
CF
  8
0
 10
3.592849
 20
6.471
 30
0.0
 11
3.592849
 21
6.983
 31
0.0
  0
LINE
  5
D0
  8
0
 10
3.592849
 20
7.731
 30
0.0
 11
3.592849
 21
8.271
 31
0.0
  0
LINE
  5
D1
  8
0
 10
3.592849
 20
8.271
 30
0.0
 11
3.592849
 21
8.783
 31
0.0
  0
LINE
  5
D2
  8
0
 10
3.592849
 20
9.531
 30
0.0
 11
3.592849
 21
10.043
 31
0.0
  0
LINE
  5
D3
  8
0
 10
3.592849
 20
10.043
 30
0.0
 11
3.592849
 21
10.583
 31
0.0
  0
LINE
  5
D4
  8
0
 10
3.592849
 20
11.331
 30
0.0
 11
3.592849
 21
11.843
 31
0.0
  0
LINE
  5
D5
  8
0
 10
3.592849
 20
11.843
 30
0.0
 11
3.592849
 21
12.383
 31
0.0
  0
LINE
  5
D6
  8
0
 10
3.592849
 20
13.131
 30
0.0
 11
3.592849
 21
13.643
 31
0.0
  0
LINE
  5
D7
  8
0
 10
3.592849
 20
13.643
 30
0.0
 11
3.592849
 21
14.183
 31
0.0
  0
LINE
  5
D8
  8
0
 10
4.092849
 20
1.0952
 30
0.0
 11
4.092849
 21
1.565
 31
0.0
  0
LINE
  5
D9
  8
0
 10
4.092849
 20
1.0952
 30
0.0
 11
4.092849
 21
1.565
 31
0.0
  0
LINE
  5
DA
  8
0
 10
4.092849
 20
1.565
 30
0.0
 11
4.092849
 21
1.56564
 31
0.0
  0
LINE
  5
DB
  8
0
 10
4.092849
 20
2.313
 30
0.0
 11
4.092849
 21
2.825
 31
0.0
  0
LINE
  5
DC
  8
0
 10
4.092849
 20
2.825
 30
0.0
 11
4.092849
 21
3.365
 31
0.0
  0
LINE
  5
DD
  8
0
 10
4.092849
 20
3.365
 30
0.0
 11
4.092849
 21
3.36564
 31
0.0
  0
LINE
  5
DE
  8
0
 10
4.092849
 20
4.113
 30
0.0
 11
4.092849
 21
4.625
 31
0.0
  0
LINE
  5
DF
  8
0
 10
4.092849
 20
4.625
 30
0.0
 11
4.092849
 21
5.165
 31
0.0
  0
LINE
  5
E0
  8
0
 10
4.092849
 20
5.165
 30
0.0
 11
4.092849
 21
5.16564
 31
0.0
  0
LINE
  5
E1
  8
0
 10
4.092849
 20
5.913
 30
0.0
 11
4.092849
 21
6.425
 31
0.0
  0
LINE
  5
E2
  8
0
 10
4.092849
 20
6.425
 30
0.0
 11
4.092849
 21
6.965
 31
0.0
  0
LINE
  5
E3
  8
0
 10
4.092849
 20
6.965
 30
0.0
 11
4.092849
 21
6.96564
 31
0.0
  0
LINE
  5
E4
  8
0
 10
4.092849
 20
7.713
 30
0.0
 11
4.092849
 21
8.225
 31
0.0
  0
LINE
  5
E5
  8
0
 10
4.092849
 20
8.225
 30
0.0
 11
4.092849
 21
8.765
 31
0.0
  0
LINE
  5
E6
  8
0
 10
4.092849
 20
8.765
 30
0.0
 11
4.092849
 21
8.76564
 31
0.0
  0
LINE
  5
E7
  8
0
 10
4.092849
 20
9.513
 30
0.0
 11
4.092849
 21
10.025
 31
0.0
  0
LINE
  5
E8
  8
0
 10
4.092849
 20
10.025
 30
0.0
 11
4.092849
 21
10.565
 31
0.0
  0
LINE
  5
E9
  8
0
 10
4.092849
 20
10.565
 30
0.0
 11
4.092849
 21
10.56564
 31
0.0
  0
LINE
  5
EA
  8
0
 10
4.092849
 20
11.313
 30
0.0
 11
4.092849
 21
11.825
 31
0.0
  0
LINE
  5
EB
  8
0
 10
4.092849
 20
11.825
 30
0.0
 11
4.092849
 21
12.365
 31
0.0
  0
LINE
  5
EC
  8
0
 10
4.092849
 20
12.365
 30
0.0
 11
4.092849
 21
12.36564
 31
0.0
  0
LINE
  5
ED
  8
0
 10
4.092849
 20
13.113
 30
0.0
 11
4.092849
 21
13.625
 31
0.0
  0
LINE
  5
EE
  8
0
 10
4.092849
 20
13.625
 30
0.0
 11
4.092849
 21
14.165
 31
0.0
  0
LINE
  5
EF
  8
0
 10
4.092849
 20
14.165
 30
0.0
 11
4.092849
 21
14.16564
 31
0.0
  0
LINE
  5
F0
  8
0
 10
4.592849
 20
1.09008
 30
0.0
 11
4.592849
 21
1.548
 31
0.0
  0
LINE
  5
F1
  8
0
 10
4.592849
 20
1.09008
 30
0.0
 11
4.592849
 21
1.548
 31
0.0
  0
LINE
  5
F2
  8
0
 10
4.592849
 20
2.296
 30
0.0
 11
4.592849
 21
2.808
 31
0.0
  0
LINE
  5
F3
  8
0
 10
4.592849
 20
2.808
 30
0.0
 11
4.592849
 21
3.348
 31
0.0
  0
LINE
  5
F4
  8
0
 10
4.592849
 20
4.096
 30
0.0
 11
4.592849
 21
4.636
 31
0.0
  0
LINE
  5
F5
  8
0
 10
4.592849
 20
4.636
 30
0.0
 11
4.592849
 21
5.148
 31
0.0
  0
LINE
  5
F6
  8
0
 10
4.592849
 20
5.896
 30
0.0
 11
4.592849
 21
6.436
 31
0.0
  0
LINE
  5
F7
  8
0
 10
4.592849
 20
6.436
 30
0.0
 11
4.592849
 21
6.948
 31
0.0
  0
LINE
  5
F8
  8
0
 10
4.592849
 20
7.696
 30
0.0
 11
4.592849
 21
8.236
 31
0.0
  0
LINE
  5
F9
  8
0
 10
4.592849
 20
8.236
 30
0.0
 11
4.592849
 21
8.748
 31
0.0
  0
LINE
  5
FA
  8
0
 10
4.592849
 20
9.496
 30
0.0
 11
4.592849
 21
10.008
 31
0.0
  0
LINE
  5
FB
  8
0
 10
4.592849
 20
10.008
 30
0.0
 11
4.592849
 21
10.548
 31
0.0
  0
LINE
  5
FC
  8
0
 10
4.592849
 20
11.296
 30
0.0
 11
4.592849
 21
11.808
 31
0.0
  0
LINE
  5
FD
  8
0
 10
4.592849
 20
11.808
 30
0.0
 11
4.592849
 21
12.348
 31
0.0
  0
LINE
  5
FE
  8
0
 10
4.592849
 20
13.096
 30
0.0
 11
4.592849
 21
13.608
 31
0.0
  0
LINE
  5
FF
  8
0
 10
4.592849
 20
13.608
 30
0.0
 11
4.592849
 21
14.148
 31
0.0
  0
LINE
  5
100
  8
0
 10
5.092849
 20
1.08496
 30
0.0
 11
5.092849
 21
1.531
 31
0.0
  0
LINE
  5
101
  8
0
 10
5.092849
 20
1.08496
 30
0.0
 11
5.092849
 21
1.531
 31
0.0
  0
LINE
  5
102
  8
0
 10
5.092849
 20
2.279
 30
0.0
 11
5.092849
 21
2.791
 31
0.0
  0
LINE
  5
103
  8
0
 10
5.092849
 20
2.791
 30
0.0
 11
5.092849
 21
3.331
 31
0.0
  0
LINE
  5
104
  8
0
 10
5.092849
 20
4.079
 30
0.0
 11
5.092849
 21
4.591
 31
0.0
  0
LINE
  5
105
  8
0
 10
5.092849
 20
4.591
 30
0.0
 11
5.092849
 21
5.131
 31
0.0
  0
LINE
  5
106
  8
0
 10
5.092849
 20
5.879
 30
0.0
 11
5.092849
 21
6.391
 31
0.0
  0
LINE
  5
107
  8
0
 10
5.092849
 20
6.391
 30
0.0
 11
5.092849
 21
6.931
 31
0.0
  0
LINE
  5
108
  8
0
 10
5.092849
 20
7.679
 30
0.0
 11
5.092849
 21
8.219
 31
0.0
  0
LINE
  5
109
  8
0
 10
5.092849
 20
8.219
 30
0.0
 11
5.092849
 21
8.731
 31
0.0
  0
LINE
  5
10A
  8
0
 10
5.092849
 20
9.479
 30
0.0
 11
5.092849
 21
9.991
 31
0.0
  0
LINE
  5
10B
  8
0
 10
5.092849
 20
9.991
 30
0.0
 11
5.092849
 21
10.531
 31
0.0
  0
LINE
  5
10C
  8
0
 10
5.092849
 20
11.279
 30
0.0
 11
5.092849
 21
11.791
 31
0.0
  0
LINE
  5
10D
  8
0
 10
5.092849
 20
11.791
 30
0.0
 11
5.092849
 21
12.331
 31
0.0
  0
LINE
  5
10E
  8
0
 10
5.092849
 20
13.079
 30
0.0
 11
5.092849
 21
13.591
 31
0.0
  0
LINE
  5
10F
  8
0
 10
5.092849
 20
13.591
 30
0.0
 11
5.092849
 21
14.131
 31
0.0
  0
LINE
  5
110
  8
0
 10
5.592849
 20
1.0792
 30
0.0
 11
5.592849
 21
1.513
 31
0.0
  0
LINE
  5
111
  8
0
 10
5.592849
 20
1.0792
 30
0.0
 11
5.592849
 21
1.513
 31
0.0
  0
LINE
  5
112
  8
0
 10
5.592849
 20
2.261
 30
0.0
 11
5.592849
 21
2.801
 31
0.0
  0
LINE
  5
113
  8
0
 10
5.592849
 20
2.801
 30
0.0
 11
5.592849
 21
3.313
 31
0.0
  0
LINE
  5
114
  8
0
 10
5.592849
 20
4.061
 30
0.0
 11
5.592849
 21
4.601
 31
0.0
  0
LINE
  5
115
  8
0
 10
5.592849
 20
4.601
 30
0.0
 11
5.592849
 21
5.113
 31
0.0
  0
LINE
  5
116
  8
0
 10
5.592849
 20
5.861
 30
0.0
 11
5.592849
 21
6.373
 31
0.0
  0
LINE
  5
117
  8
0
 10
5.592849
 20
6.373
 30
0.0
 11
5.592849
 21
6.913
 31
0.0
  0
LINE
  5
118
  8
0
 10
5.592849
 20
7.661
 30
0.0
 11
5.592849
 21
8.201
 31
0.0
  0
LINE
  5
119
  8
0
 10
5.592849
 20
8.201
 30
0.0
 11
5.592849
 21
8.713
 31
0.0
  0
LINE
  5
11A
  8
0
 10
5.592849
 20
9.461
 30
0.0
 11
5.592849
 21
9.973
 31
0.0
  0
LINE
  5
11B
  8
0
 10
5.592849
 20
9.973
 30
0.0
 11
5.592849
 21
10.513
 31
0.0
  0
LINE
  5
11C
  8
0
 10
5.592849
 20
11.261
 30
0.0
 11
5.592849
 21
11.773
 31
0.0
  0
LINE
  5
11D
  8
0
 10
5.592849
 20
11.773
 30
0.0
 11
5.592849
 21
12.313
 31
0.0
  0
LINE
  5
11E
  8
0
 10
5.592849
 20
13.061
 30
0.0
 11
5.592849
 21
13.573
 31
0.0
  0
LINE
  5
11F
  8
0
 10
5.592849
 20
13.573
 30
0.0
 11
5.592849
 21
14.113
 31
0.0
  0
LINE
  5
120
  8
0
 10
6.092849
 20
1.07728
 30
0.0
 11
6.092849
 21
1.501
 31
0.0
  0
LINE
  5
121
  8
0
 10
6.092849
 20
1.07728
 30
0.0
 11
6.092849
 21
1.501
 31
0.0
  0
LINE
  5
122
  8
0
 10
6.092849
 20
2.249
 30
0.0
 11
6.092849
 21
2.789
 31
0.0
  0
LINE
  5
123
  8
0
 10
6.092849
 20
2.789
 30
0.0
 11
6.092849
 21
3.301
 31
0.0
  0
LINE
  5
124
  8
0
 10
6.092849
 20
4.049
 30
0.0
 11
6.092849
 21
4.561
 31
0.0
  0
LINE
  5
125
  8
0
 10
6.092849
 20
4.561
 30
0.0
 11
6.092849
 21
5.101
 31
0.0
  0
LINE
  5
126
  8
0
 10
6.092849
 20
5.849
 30
0.0
 11
6.092849
 21
6.389
 31
0.0
  0
LINE
  5
127
  8
0
 10
6.092849
 20
6.389
 30
0.0
 11
6.092849
 21
6.901
 31
0.0
  0
LINE
  5
128
  8
0
 10
6.092849
 20
7.649
 30
0.0
 11
6.092849
 21
8.189
 31
0.0
  0
LINE
  5
129
  8
0
 10
6.092849
 20
8.189
 30
0.0
 11
6.092849
 21
8.701
 31
0.0
  0
LINE
  5
12A
  8
0
 10
6.092849
 20
9.449
 30
0.0
 11
6.092849
 21
9.989
 31
0.0
  0
LINE
  5
12B
  8
0
 10
6.092849
 20
9.989
 30
0.0
 11
6.092849
 21
10.501
 31
0.0
  0
LINE
  5
12C
  8
0
 10
6.092849
 20
11.249
 30
0.0
 11
6.092849
 21
11.761
 31
0.0
  0
LINE
  5
12D
  8
0
 10
6.092849
 20
11.761
 30
0.0
 11
6.092849
 21
12.301
 31
0.0
  0
LINE
  5
12E
  8
0
 10
6.092849
 20
13.049
 30
0.0
 11
6.092849
 21
13.561
 31
0.0
  0
LINE
  5
12F
  8
0
 10
6.092849
 20
13.561
 30
0.0
 11
6.092849
 21
14.101
 31
0.0
  0
LINE
  5
130
  8
0
 10
6.592849
 20
1.08332
 30
0.0
 11
6.592849
 21
1.502
 31
0.0
  0
LINE
  5
131
  8
0
 10
6.592849
 20
1.08332
 30
0.0
 11
6.592849
 21
1.502
 31
0.0
  0
LINE
  5
132
  8
0
 10
6.592849
 20
2.25
 30
0.0
 11
6.592849
 21
2.762
 31
0.0
  0
LINE
  5
133
  8
0
 10
6.592849
 20
2.762
 30
0.0
 11
6.592849
 21
3.302
 31
0.0
  0
LINE
  5
134
  8
0
 10
6.592849
 20
4.05
 30
0.0
 11
6.592849
 21
4.562
 31
0.0
  0
LINE
  5
135
  8
0
 10
6.592849
 20
4.562
 30
0.0
 11
6.592849
 21
5.102
 31
0.0
  0
LINE
  5
136
  8
0
 10
6.592849
 20
5.85
 30
0.0
 11
6.592849
 21
6.362
 31
0.0
  0
LINE
  5
137
  8
0
 10
6.592849
 20
6.362
 30
0.0
 11
6.592849
 21
6.902
 31
0.0
  0
LINE
  5
138
  8
0
 10
6.592849
 20
7.65
 30
0.0
 11
6.592849
 21
8.162
 31
0.0
  0
LINE
  5
139
  8
0
 10
6.592849
 20
8.162
 30
0.0
 11
6.592849
 21
8.702
 31
0.0
  0
LINE
  5
13A
  8
0
 10
6.592849
 20
9.45
 30
0.0
 11
6.592849
 21
9.962
 31
0.0
  0
LINE
  5
13B
  8
0
 10
6.592849
 20
9.962
 30
0.0
 11
6.592849
 21
10.502
 31
0.0
  0
LINE
  5
13C
  8
0
 10
6.592849
 20
11.25
 30
0.0
 11
6.592849
 21
11.762
 31
0.0
  0
LINE
  5
13D
  8
0
 10
6.592849
 20
11.762
 30
0.0
 11
6.592849
 21
12.302
 31
0.0
  0
LINE
  5
13E
  8
0
 10
6.592849
 20
13.05
 30
0.0
 11
6.592849
 21
13.562
 31
0.0
  0
LINE
  5
13F
  8
0
 10
6.592849
 20
13.562
 30
0.0
 11
6.592849
 21
14.102
 31
0.0
  0
LINE
  5
140
  8
0
 10
7.092849
 20
1.08972
 30
0.0
 11
7.092849
 21
1.503
 31
0.0
  0
LINE
  5
141
  8
0
 10
7.092849
 20
1.08972
 30
0.0
 11
7.092849
 21
1.503
 31
0.0
  0
LINE
  5
142
  8
0
 10
7.092849
 20
2.251
 30
0.0
 11
7.092849
 21
2.763
 31
0.0
  0
LINE
  5
143
  8
0
 10
7.092849
 20
2.763
 30
0.0
 11
7.092849
 21
3.303
 31
0.0
  0
LINE
  5
144
  8
0
 10
7.092849
 20
4.051
 30
0.0
 11
7.092849
 21
4.591
 31
0.0
  0
LINE
  5
145
  8
0
 10
7.092849
 20
4.591
 30
0.0
 11
7.092849
 21
5.103
 31
0.0
  0
LINE
  5
146
  8
0
 10
7.092849
 20
5.851
 30
0.0
 11
7.092849
 21
6.391
 31
0.0
  0
LINE
  5
147
  8
0
 10
7.092849
 20
6.391
 30
0.0
 11
7.092849
 21
6.903
 31
0.0
  0
LINE
  5
148
  8
0
 10
7.092849
 20
7.651
 30
0.0
 11
7.092849
 21
8.191
 31
0.0
  0
LINE
  5
149
  8
0
 10
7.092849
 20
8.191
 30
0.0
 11
7.092849
 21
8.703
 31
0.0
  0
LINE
  5
14A
  8
0
 10
7.092849
 20
9.451
 30
0.0
 11
7.092849
 21
9.963
 31
0.0
  0
LINE
  5
14B
  8
0
 10
7.092849
 20
9.963
 30
0.0
 11
7.092849
 21
10.503
 31
0.0
  0
LINE
  5
14C
  8
0
 10
7.092849
 20
11.251
 30
0.0
 11
7.092849
 21
11.763
 31
0.0
  0
LINE
  5
14D
  8
0
 10
7.092849
 20
11.763
 30
0.0
 11
7.092849
 21
12.303
 31
0.0
  0
LINE
  5
14E
  8
0
 10
7.092849
 20
13.051
 30
0.0
 11
7.092849
 21
13.563
 31
0.0
  0
LINE
  5
14F
  8
0
 10
7.092849
 20
13.563
 30
0.0
 11
7.092849
 21
14.103
 31
0.0
  0
LINE
  5
150
  8
0
 10
7.592849
 20
1.08828
 30
0.0
 11
7.592849
 21
1.50336
 31
0.0
  0
LINE
  5
151
  8
0
 10
7.592849
 20
1.08828
 30
0.0
 11
7.592849
 21
1.50336
 31
0.0
  0
LINE
  5
152
  8
0
 10
7.592849
 20
1.50336
 30
0.0
 11
7.592849
 21
1.504
 31
0.0
  0
LINE
  5
153
  8
0
 10
7.592849
 20
2.251
 30
0.0
 11
7.592849
 21
2.76364
 31
0.0
  0
LINE
  5
154
  8
0
 10
7.592849
 20
2.76364
 30
0.0
 11
7.592849
 21
3.304
 31
0.0
  0
LINE
  5
155
  8
0
 10
7.592849
 20
4.051
 30
0.0
 11
7.592849
 21
4.56364
 31
0.0
  0
LINE
  5
156
  8
0
 10
7.592849
 20
4.56364
 30
0.0
 11
7.592849
 21
5.104
 31
0.0
  0
LINE
  5
157
  8
0
 10
7.592849
 20
5.851
 30
0.0
 11
7.592849
 21
6.39136
 31
0.0
  0
LINE
  5
158
  8
0
 10
7.592849
 20
6.39136
 30
0.0
 11
7.592849
 21
6.904
 31
0.0
  0
LINE
  5
159
  8
0
 10
7.592849
 20
7.651
 30
0.0
 11
7.592849
 21
8.16364
 31
0.0
  0
LINE
  5
15A
  8
0
 10
7.592849
 20
8.16364
 30
0.0
 11
7.592849
 21
8.704
 31
0.0
  0
LINE
  5
15B
  8
0
 10
7.592849
 20
9.451
 30
0.0
 11
7.592849
 21
9.96364
 31
0.0
  0
LINE
  5
15C
  8
0
 10
7.592849
 20
9.96364
 30
0.0
 11
7.592849
 21
10.504
 31
0.0
  0
LINE
  5
15D
  8
0
 10
7.592849
 20
11.251
 30
0.0
 11
7.592849
 21
11.76364
 31
0.0
  0
LINE
  5
15E
  8
0
 10
7.592849
 20
11.76364
 30
0.0
 11
7.592849
 21
12.304
 31
0.0
  0
LINE
  5
15F
  8
0
 10
7.592849
 20
13.051
 30
0.0
 11
7.592849
 21
13.56364
 31
0.0
  0
LINE
  5
160
  8
0
 10
7.592849
 20
13.56364
 30
0.0
 11
7.592849
 21
14.104
 31
0.0
  0
LINE
  5
161
  8
0
 10
8.092849
 20
1.0846
 30
0.0
 11
8.092849
 21
1.504
 31
0.0
  0
LINE
  5
162
  8
0
 10
8.092849
 20
1.0846
 30
0.0
 11
8.092849
 21
1.504
 31
0.0
  0
LINE
  5
163
  8
0
 10
8.092849
 20
2.252
 30
0.0
 11
8.092849
 21
2.764
 31
0.0
  0
LINE
  5
164
  8
0
 10
8.092849
 20
2.764
 30
0.0
 11
8.092849
 21
3.304
 31
0.0
  0
LINE
  5
165
  8
0
 10
8.092849
 20
4.052
 30
0.0
 11
8.092849
 21
4.564
 31
0.0
  0
LINE
  5
166
  8
0
 10
8.092849
 20
4.564
 30
0.0
 11
8.092849
 21
5.104
 31
0.0
  0
LINE
  5
167
  8
0
 10
8.092849
 20
5.852
 30
0.0
 11
8.092849
 21
6.364
 31
0.0
  0
LINE
  5
168
  8
0
 10
8.092849
 20
6.364
 30
0.0
 11
8.092849
 21
6.904
 31
0.0
  0
LINE
  5
169
  8
0
 10
8.092849
 20
7.652
 30
0.0
 11
8.092849
 21
8.164
 31
0.0
  0
LINE
  5
16A
  8
0
 10
8.092849
 20
8.164
 30
0.0
 11
8.092849
 21
8.704
 31
0.0
  0
LINE
  5
16B
  8
0
 10
8.092849
 20
9.452
 30
0.0
 11
8.092849
 21
9.964
 31
0.0
  0
LINE
  5
16C
  8
0
 10
8.092849
 20
9.964
 30
0.0
 11
8.092849
 21
10.504
 31
0.0
  0
LINE
  5
16D
  8
0
 10
8.092849
 20
11.252
 30
0.0
 11
8.092849
 21
11.764
 31
0.0
  0
LINE
  5
16E
  8
0
 10
8.092849
 20
11.764
 30
0.0
 11
8.092849
 21
12.304
 31
0.0
  0
LINE
  5
16F
  8
0
 10
8.092849
 20
13.052
 30
0.0
 11
8.092849
 21
13.564
 31
0.0
  0
LINE
  5
170
  8
0
 10
8.092849
 20
13.564
 30
0.0
 11
8.092849
 21
14.104
 31
0.0
  0
LINE
  5
171
  8
0
 10
8.592849
 20
1.08092
 30
0.0
 11
8.592849
 21
1.505
 31
0.0
  0
LINE
  5
172
  8
0
 10
8.592849
 20
1.08092
 30
0.0
 11
8.592849
 21
1.505
 31
0.0
  0
LINE
  5
173
  8
0
 10
8.592849
 20
2.253
 30
0.0
 11
8.592849
 21
2.793
 31
0.0
  0
LINE
  5
174
  8
0
 10
8.592849
 20
2.793
 30
0.0
 11
8.592849
 21
3.305
 31
0.0
  0
LINE
  5
175
  8
0
 10
8.592849
 20
4.053
 30
0.0
 11
8.592849
 21
4.593
 31
0.0
  0
LINE
  5
176
  8
0
 10
8.592849
 20
4.593
 30
0.0
 11
8.592849
 21
5.105
 31
0.0
  0
LINE
  5
177
  8
0
 10
8.592849
 20
5.853
 30
0.0
 11
8.592849
 21
6.365
 31
0.0
  0
LINE
  5
178
  8
0
 10
8.592849
 20
6.365
 30
0.0
 11
8.592849
 21
6.905
 31
0.0
  0
LINE
  5
179
  8
0
 10
8.592849
 20
7.653
 30
0.0
 11
8.592849
 21
8.193
 31
0.0
  0
LINE
  5
17A
  8
0
 10
8.592849
 20
8.193
 30
0.0
 11
8.592849
 21
8.705
 31
0.0
  0
LINE
  5
17B
  8
0
 10
8.592849
 20
9.453
 30
0.0
 11
8.592849
 21
9.965
 31
0.0
  0
LINE
  5
17C
  8
0
 10
8.592849
 20
9.965
 30
0.0
 11
8.592849
 21
10.505
 31
0.0
  0
LINE
  5
17D
  8
0
 10
8.592849
 20
11.253
 30
0.0
 11
8.592849
 21
11.765
 31
0.0
  0
LINE
  5
17E
  8
0
 10
8.592849
 20
11.765
 30
0.0
 11
8.592849
 21
12.305
 31
0.0
  0
LINE
  5
17F
  8
0
 10
8.592849
 20
13.053
 30
0.0
 11
8.592849
 21
13.565
 31
0.0
  0
LINE
  5
180
  8
0
 10
8.592849
 20
13.565
 30
0.0
 11
8.592849
 21
14.105
 31
0.0
  0
LINE
  5
181
  8
0
 10
9.092849
 20
1.07724
 30
0.0
 11
9.092849
 21
1.506
 31
0.0
  0
LINE
  5
182
  8
0
 10
9.092849
 20
1.07724
 30
0.0
 11
9.092849
 21
1.506
 31
0.0
  0
LINE
  5
183
  8
0
 10
9.092849
 20
2.254
 30
0.0
 11
9.092849
 21
2.766
 31
0.0
  0
LINE
  5
184
  8
0
 10
9.092849
 20
2.766
 30
0.0
 11
9.092849
 21
3.306
 31
0.0
  0
LINE
  5
185
  8
0
 10
9.092849
 20
4.054
 30
0.0
 11
9.092849
 21
4.566
 31
0.0
  0
LINE
  5
186
  8
0
 10
9.092849
 20
4.566
 30
0.0
 11
9.092849
 21
5.106
 31
0.0
  0
LINE
  5
187
  8
0
 10
9.092849
 20
5.854
 30
0.0
 11
9.092849
 21
6.394
 31
0.0
  0
LINE
  5
188
  8
0
 10
9.092849
 20
6.394
 30
0.0
 11
9.092849
 21
6.906
 31
0.0
  0
LINE
  5
189
  8
0
 10
9.092849
 20
7.654
 30
0.0
 11
9.092849
 21
8.194
 31
0.0
  0
LINE
  5
18A
  8
0
 10
9.092849
 20
8.194
 30
0.0
 11
9.092849
 21
8.706
 31
0.0
  0
LINE
  5
18B
  8
0
 10
9.092849
 20
9.454
 30
0.0
 11
9.092849
 21
9.966
 31
0.0
  0
LINE
  5
18C
  8
0
 10
9.092849
 20
9.966
 30
0.0
 11
9.092849
 21
10.506
 31
0.0
  0
LINE
  5
18D
  8
0
 10
9.092849
 20
11.254
 30
0.0
 11
9.092849
 21
11.766
 31
0.0
  0
LINE
  5
18E
  8
0
 10
9.092849
 20
11.766
 30
0.0
 11
9.092849
 21
12.306
 31
0.0
  0
LINE
  5
18F
  8
0
 10
9.092849
 20
13.054
 30
0.0
 11
9.092849
 21
13.566
 31
0.0
  0
LINE
  5
190
  8
0
 10
9.092849
 20
13.566
 30
0.0
 11
9.092849
 21
14.106
 31
0.0
  0
LINE
  5
191
  8
0
 10
9.592849
 20
1.07292
 30
0.0
 11
9.592849
 21
1.506
 31
0.0
  0
LINE
  5
192
  8
0
 10
9.592849
 20
1.07292
 30
0.0
 11
9.592849
 21
1.506
 31
0.0
  0
LINE
  5
193
  8
0
 10
9.592849
 20
2.254
 30
0.0
 11
9.592849
 21
2.766
 31
0.0
  0
LINE
  5
194
  8
0
 10
9.592849
 20
2.766
 30
0.0
 11
9.592849
 21
3.306
 31
0.0
  0
LINE
  5
195
  8
0
 10
9.592849
 20
4.054
 30
0.0
 11
9.592849
 21
4.566
 31
0.0
  0
LINE
  5
196
  8
0
 10
9.592849
 20
4.566
 30
0.0
 11
9.592849
 21
5.106
 31
0.0
  0
LINE
  5
197
  8
0
 10
9.592849
 20
5.854
 30
0.0
 11
9.592849
 21
6.394
 31
0.0
  0
LINE
  5
198
  8
0
 10
9.592849
 20
6.394
 30
0.0
 11
9.592849
 21
6.906
 31
0.0
  0
LINE
  5
199
  8
0
 10
9.592849
 20
7.654
 30
0.0
 11
9.592849
 21
8.194
 31
0.0
  0
LINE
  5
19A
  8
0
 10
9.592849
 20
8.194
 30
0.0
 11
9.592849
 21
8.706
 31
0.0
  0
LINE
  5
19B
  8
0
 10
9.592849
 20
9.454
 30
0.0
 11
9.592849
 21
9.966
 31
0.0
  0
LINE
  5
19C
  8
0
 10
9.592849
 20
9.966
 30
0.0
 11
9.592849
 21
10.506
 31
0.0
  0
LINE
  5
19D
  8
0
 10
9.592849
 20
11.254
 30
0.0
 11
9.592849
 21
11.766
 31
0.0
  0
LINE
  5
19E
  8
0
 10
9.592849
 20
11.766
 30
0.0
 11
9.592849
 21
12.306
 31
0.0
  0
LINE
  5
19F
  8
0
 10
9.592849
 20
13.054
 30
0.0
 11
9.592849
 21
13.566
 31
0.0
  0
LINE
  5
1A0
  8
0
 10
9.592849
 20
13.566
 30
0.0
 11
9.592849
 21
14.106
 31
0.0
  0
LINE
  5
1A1
  8
0
 10
10.092849
 20
1.06924
 30
0.0
 11
10.092849
 21
1.507
 31
0.0
  0
LINE
  5
1A2
  8
0
 10
10.092849
 20
1.06924
 30
0.0
 11
10.092849
 21
1.507
 31
0.0
  0
LINE
  5
1A3
  8
0
 10
10.092849
 20
2.255
 30
0.0
 11
10.092849
 21
2.767
 31
0.0
  0
LINE
  5
1A4
  8
0
 10
10.092849
 20
2.767
 30
0.0
 11
10.092849
 21
3.307
 31
0.0
  0
LINE
  5
1A5
  8
0
 10
10.092849
 20
4.055
 30
0.0
 11
10.092849
 21
4.567
 31
0.0
  0
LINE
  5
1A6
  8
0
 10
10.092849
 20
4.567
 30
0.0
 11
10.092849
 21
5.107
 31
0.0
  0
LINE
  5
1A7
  8
0
 10
10.092849
 20
5.855
 30
0.0
 11
10.092849
 21
6.367
 31
0.0
  0
LINE
  5
1A8
  8
0
 10
10.092849
 20
6.367
 30
0.0
 11
10.092849
 21
6.907
 31
0.0
  0
LINE
  5
1A9
  8
0
 10
10.092849
 20
7.655
 30
0.0
 11
10.092849
 21
8.167
 31
0.0
  0
LINE
  5
1AA
  8
0
 10
10.092849
 20
8.167
 30
0.0
 11
10.092849
 21
8.707
 31
0.0
  0
LINE
  5
1AB
  8
0
 10
10.092849
 20
9.455
 30
0.0
 11
10.092849
 21
9.967
 31
0.0
  0
LINE
  5
1AC
  8
0
 10
10.092849
 20
9.967
 30
0.0
 11
10.092849
 21
10.507
 31
0.0
  0
LINE
  5
1AD
  8
0
 10
10.092849
 20
11.255
 30
0.0
 11
10.092849
 21
11.767
 31
0.0
  0
LINE
  5
1AE
  8
0
 10
10.092849
 20
11.767
 30
0.0
 11
10.092849
 21
12.307
 31
0.0
  0
LINE
  5
1AF
  8
0
 10
10.092849
 20
13.055
 30
0.0
 11
10.092849
 21
13.595
 31
0.0
  0
LINE
  5
1B0
  8
0
 10
10.092849
 20
13.595
 30
0.0
 11
10.092849
 21
14.107
 31
0.0
  0
LINE
  5
1B1
  8
0
 10
10.592849
 20
1.06556
 30
0.0
 11
10.592849
 21
1.508
 31
0.0
  0
LINE
  5
1B2
  8
0
 10
10.592849
 20
1.06556
 30
0.0
 11
10.592849
 21
1.508
 31
0.0
  0
LINE
  5
1B3
  8
0
 10
10.592849
 20
2.256
 30
0.0
 11
10.592849
 21
2.768
 31
0.0
  0
LINE
  5
1B4
  8
0
 10
10.592849
 20
2.768
 30
0.0
 11
10.592849
 21
3.308
 31
0.0
  0
LINE
  5
1B5
  8
0
 10
10.592849
 20
4.056
 30
0.0
 11
10.592849
 21
4.596
 31
0.0
  0
LINE
  5
1B6
  8
0
 10
10.592849
 20
4.596
 30
0.0
 11
10.592849
 21
5.108
 31
0.0
  0
LINE
  5
1B7
  8
0
 10
10.592849
 20
5.856
 30
0.0
 11
10.592849
 21
6.368
 31
0.0
  0
LINE
  5
1B8
  8
0
 10
10.592849
 20
6.368
 30
0.0
 11
10.592849
 21
6.908
 31
0.0
  0
LINE
  5
1B9
  8
0
 10
10.592849
 20
7.656
 30
0.0
 11
10.592849
 21
8.196
 31
0.0
  0
LINE
  5
1BA
  8
0
 10
10.592849
 20
8.196
 30
0.0
 11
10.592849
 21
8.708
 31
0.0
  0
LINE
  5
1BB
  8
0
 10
10.592849
 20
9.456
 30
0.0
 11
10.592849
 21
9.968
 31
0.0
  0
LINE
  5
1BC
  8
0
 10
10.592849
 20
9.968
 30
0.0
 11
10.592849
 21
10.508
 31
0.0
  0
LINE
  5
1BD
  8
0
 10
10.592849
 20
11.256
 30
0.0
 11
10.592849
 21
11.768
 31
0.0
  0
LINE
  5
1BE
  8
0
 10
10.592849
 20
11.768
 30
0.0
 11
10.592849
 21
12.308
 31
0.0
  0
LINE
  5
1BF
  8
0
 10
10.592849
 20
13.056
 30
0.0
 11
10.592849
 21
13.568
 31
0.0
  0
LINE
  5
1C0
  8
0
 10
10.592849
 20
13.568
 30
0.0
 11
10.592849
 21
14.108
 31
0.0
  0
LINE
  5
1C1
  8
0
 10
11.092849
 20
1.06124
 30
0.0
 11
11.092849
 21
1.50836
 31
0.0
  0
LINE
  5
1C2
  8
0
 10
11.092849
 20
1.06124
 30
0.0
 11
11.092849
 21
1.50836
 31
0.0
  0
LINE
  5
1C3
  8
0
 10
11.092849
 20
1.50836
 30
0.0
 11
11.092849
 21
1.509
 31
0.0
  0
LINE
  5
1C4
  8
0
 10
11.092849
 20
2.256
 30
0.0
 11
11.092849
 21
2.25664
 31
0.0
  0
LINE
  5
1C5
  8
0
 10
11.092849
 20
2.25664
 30
0.0
 11
11.092849
 21
2.797
 31
0.0
  0
LINE
  5
1C6
  8
0
 10
11.092849
 20
2.797
 30
0.0
 11
11.092849
 21
3.309
 31
0.0
  0
LINE
  5
1C7
  8
0
 10
11.092849
 20
4.056
 30
0.0
 11
11.092849
 21
4.05664
 31
0.0
  0
LINE
  5
1C8
  8
0
 10
11.092849
 20
4.05664
 30
0.0
 11
11.092849
 21
4.597
 31
0.0
  0
LINE
  5
1C9
  8
0
 10
11.092849
 20
4.597
 30
0.0
 11
11.092849
 21
5.109
 31
0.0
  0
LINE
  5
1CA
  8
0
 10
11.092849
 20
5.856
 30
0.0
 11
11.092849
 21
5.85664
 31
0.0
  0
LINE
  5
1CB
  8
0
 10
11.092849
 20
5.85664
 30
0.0
 11
11.092849
 21
6.397
 31
0.0
  0
LINE
  5
1CC
  8
0
 10
11.092849
 20
6.397
 30
0.0
 11
11.092849
 21
6.909
 31
0.0
  0
LINE
  5
1CD
  8
0
 10
11.092849
 20
7.656
 30
0.0
 11
11.092849
 21
7.65664
 31
0.0
  0
LINE
  5
1CE
  8
0
 10
11.092849
 20
7.65664
 30
0.0
 11
11.092849
 21
8.197
 31
0.0
  0
LINE
  5
1CF
  8
0
 10
11.092849
 20
8.197
 30
0.0
 11
11.092849
 21
8.709
 31
0.0
  0
LINE
  5
1D0
  8
0
 10
11.092849
 20
9.456
 30
0.0
 11
11.092849
 21
9.45664
 31
0.0
  0
LINE
  5
1D1
  8
0
 10
11.092849
 20
9.45664
 30
0.0
 11
11.092849
 21
9.997
 31
0.0
  0
LINE
  5
1D2
  8
0
 10
11.092849
 20
9.997
 30
0.0
 11
11.092849
 21
10.509
 31
0.0
  0
LINE
  5
1D3
  8
0
 10
11.092849
 20
11.256
 30
0.0
 11
11.092849
 21
11.25664
 31
0.0
  0
LINE
  5
1D4
  8
0
 10
11.092849
 20
11.25664
 30
0.0
 11
11.092849
 21
11.797
 31
0.0
  0
LINE
  5
1D5
  8
0
 10
11.092849
 20
11.797
 30
0.0
 11
11.092849
 21
12.309
 31
0.0
  0
LINE
  5
1D6
  8
0
 10
11.092849
 20
13.056
 30
0.0
 11
11.092849
 21
13.05664
 31
0.0
  0
LINE
  5
1D7
  8
0
 10
11.092849
 20
13.05664
 30
0.0
 11
11.092849
 21
13.597
 31
0.0
  0
LINE
  5
1D8
  8
0
 10
11.092849
 20
13.597
 30
0.0
 11
11.092849
 21
14.109
 31
0.0
  0
LINE
  5
1D9
  8
0
 10
11.592849
 20
1.05756
 30
0.0
 11
11.592849
 21
1.509
 31
0.0
  0
LINE
  5
1DA
  8
0
 10
11.592849
 20
1.05756
 30
0.0
 11
11.592849
 21
1.509
 31
0.0
  0
LINE
  5
1DB
  8
0
 10
11.592849
 20
2.257
 30
0.0
 11
11.592849
 21
2.797
 31
0.0
  0
LINE
  5
1DC
  8
0
 10
11.592849
 20
2.797
 30
0.0
 11
11.592849
 21
3.309
 31
0.0
  0
LINE
  5
1DD
  8
0
 10
11.592849
 20
4.057
 30
0.0
 11
11.592849
 21
4.569
 31
0.0
  0
LINE
  5
1DE
  8
0
 10
11.592849
 20
4.569
 30
0.0
 11
11.592849
 21
5.109
 31
0.0
  0
LINE
  5
1DF
  8
0
 10
11.592849
 20
5.857
 30
0.0
 11
11.592849
 21
6.397
 31
0.0
  0
LINE
  5
1E0
  8
0
 10
11.592849
 20
6.397
 30
0.0
 11
11.592849
 21
6.909
 31
0.0
  0
LINE
  5
1E1
  8
0
 10
11.592849
 20
7.657
 30
0.0
 11
11.592849
 21
8.197
 31
0.0
  0
LINE
  5
1E2
  8
0
 10
11.592849
 20
8.197
 30
0.0
 11
11.592849
 21
8.709
 31
0.0
  0
LINE
  5
1E3
  8
0
 10
11.592849
 20
9.457
 30
0.0
 11
11.592849
 21
9.969
 31
0.0
  0
LINE
  5
1E4
  8
0
 10
11.592849
 20
9.969
 30
0.0
 11
11.592849
 21
10.509
 31
0.0
  0
LINE
  5
1E5
  8
0
 10
11.592849
 20
11.257
 30
0.0
 11
11.592849
 21
11.797
 31
0.0
  0
LINE
  5
1E6
  8
0
 10
11.592849
 20
11.797
 30
0.0
 11
11.592849
 21
12.309
 31
0.0
  0
LINE
  5
1E7
  8
0
 10
11.592849
 20
13.057
 30
0.0
 11
11.592849
 21
13.569
 31
0.0
  0
LINE
  5
1E8
  8
0
 10
11.592849
 20
13.569
 30
0.0
 11
11.592849
 21
14.109
 31
0.0
  0
LINE
  5
1E9
  8
0
 10
12.092849
 20
1.05388
 30
0.0
 11
12.092849
 21
1.51
 31
0.0
  0
LINE
  5
1EA
  8
0
 10
12.092849
 20
1.05388
 30
0.0
 11
12.092849
 21
1.51
 31
0.0
  0
LINE
  5
1EB
  8
0
 10
12.092849
 20
2.258
 30
0.0
 11
12.092849
 21
2.77
 31
0.0
  0
LINE
  5
1EC
  8
0
 10
12.092849
 20
2.77
 30
0.0
 11
12.092849
 21
3.31
 31
0.0
  0
LINE
  5
1ED
  8
0
 10
12.092849
 20
4.058
 30
0.0
 11
12.092849
 21
4.57
 31
0.0
  0
LINE
  5
1EE
  8
0
 10
12.092849
 20
4.57
 30
0.0
 11
12.092849
 21
5.11
 31
0.0
  0
LINE
  5
1EF
  8
0
 10
12.092849
 20
5.858
 30
0.0
 11
12.092849
 21
6.37
 31
0.0
  0
LINE
  5
1F0
  8
0
 10
12.092849
 20
6.37
 30
0.0
 11
12.092849
 21
6.91
 31
0.0
  0
LINE
  5
1F1
  8
0
 10
12.092849
 20
7.658
 30
0.0
 11
12.092849
 21
8.17
 31
0.0
  0
LINE
  5
1F2
  8
0
 10
12.092849
 20
8.17
 30
0.0
 11
12.092849
 21
8.71
 31
0.0
  0
LINE
  5
1F3
  8
0
 10
12.092849
 20
9.458
 30
0.0
 11
12.092849
 21
9.97
 31
0.0
  0
LINE
  5
1F4
  8
0
 10
12.092849
 20
9.97
 30
0.0
 11
12.092849
 21
10.51
 31
0.0
  0
LINE
  5
1F5
  8
0
 10
12.092849
 20
11.258
 30
0.0
 11
12.092849
 21
11.77
 31
0.0
  0
LINE
  5
1F6
  8
0
 10
12.092849
 20
11.77
 30
0.0
 11
12.092849
 21
12.31
 31
0.0
  0
LINE
  5
1F7
  8
0
 10
12.092849
 20
13.058
 30
0.0
 11
12.092849
 21
13.598
 31
0.0
  0
LINE
  5
1F8
  8
0
 10
12.092849
 20
13.598
 30
0.0
 11
12.092849
 21
14.11
 31
0.0
  0
LINE
  5
1F9
  8
0
 10
12.592849
 20
1.0502
 30
0.0
 11
12.592849
 21
1.511
 31
0.0
  0
LINE
  5
1FA
  8
0
 10
12.592849
 20
1.0502
 30
0.0
 11
12.592849
 21
1.511
 31
0.0
  0
LINE
  5
1FB
  8
0
 10
12.592849
 20
2.259
 30
0.0
 11
12.592849
 21
2.771
 31
0.0
  0
LINE
  5
1FC
  8
0
 10
12.592849
 20
2.771
 30
0.0
 11
12.592849
 21
3.311
 31
0.0
  0
LINE
  5
1FD
  8
0
 10
12.592849
 20
4.059
 30
0.0
 11
12.592849
 21
4.599
 31
0.0
  0
LINE
  5
1FE
  8
0
 10
12.592849
 20
4.599
 30
0.0
 11
12.592849
 21
5.111
 31
0.0
  0
LINE
  5
1FF
  8
0
 10
12.592849
 20
5.859
 30
0.0
 11
12.592849
 21
6.399
 31
0.0
  0
LINE
  5
200
  8
0
 10
12.592849
 20
6.399
 30
0.0
 11
12.592849
 21
6.911
 31
0.0
  0
LINE
  5
201
  8
0
 10
12.592849
 20
7.659
 30
0.0
 11
12.592849
 21
8.199
 31
0.0
  0
LINE
  5
202
  8
0
 10
12.592849
 20
8.199
 30
0.0
 11
12.592849
 21
8.711
 31
0.0
  0
LINE
  5
203
  8
0
 10
12.592849
 20
9.459
 30
0.0
 11
12.592849
 21
9.999
 31
0.0
  0
LINE
  5
204
  8
0
 10
12.592849
 20
9.999
 30
0.0
 11
12.592849
 21
10.511
 31
0.0
  0
LINE
  5
205
  8
0
 10
12.592849
 20
11.259
 30
0.0
 11
12.592849
 21
11.771
 31
0.0
  0
LINE
  5
206
  8
0
 10
12.592849
 20
11.771
 30
0.0
 11
12.592849
 21
12.311
 31
0.0
  0
LINE
  5
207
  8
0
 10
12.592849
 20
13.059
 30
0.0
 11
12.592849
 21
13.571
 31
0.0
  0
LINE
  5
208
  8
0
 10
12.592849
 20
13.571
 30
0.0
 11
12.592849
 21
14.111
 31
0.0
  0
LINE
  5
209
  8
0
 10
13.092849
 20
1.0502
 30
0.0
 11
13.092849
 21
1.51136
 31
0.0
  0
LINE
  5
20A
  8
0
 10
13.092849
 20
1.0502
 30
0.0
 11
13.092849
 21
1.51136
 31
0.0
  0
LINE
  5
20B
  8
0
 10
13.092849
 20
1.51136
 30
0.0
 11
13.092849
 21
1.512
 31
0.0
  0
LINE
  5
20C
  8
0
 10
13.092849
 20
2.259
 30
0.0
 11
13.092849
 21
2.771
 31
0.0
  0
LINE
  5
20D
  8
0
 10
13.092849
 20
2.771
 30
0.0
 11
13.092849
 21
3.31136
 31
0.0
  0
LINE
  5
20E
  8
0
 10
13.092849
 20
3.31136
 30
0.0
 11
13.092849
 21
3.312
 31
0.0
  0
LINE
  5
20F
  8
0
 10
13.092849
 20
4.059
 30
0.0
 11
13.092849
 21
4.571
 31
0.0
  0
LINE
  5
210
  8
0
 10
13.092849
 20
4.571
 30
0.0
 11
13.092849
 21
5.11136
 31
0.0
  0
LINE
  5
211
  8
0
 10
13.092849
 20
5.11136
 30
0.0
 11
13.092849
 21
5.112
 31
0.0
  0
LINE
  5
212
  8
0
 10
13.092849
 20
5.859
 30
0.0
 11
13.092849
 21
6.371
 31
0.0
  0
LINE
  5
213
  8
0
 10
13.092849
 20
6.371
 30
0.0
 11
13.092849
 21
6.91136
 31
0.0
  0
LINE
  5
214
  8
0
 10
13.092849
 20
6.91136
 30
0.0
 11
13.092849
 21
6.912
 31
0.0
  0
LINE
  5
215
  8
0
 10
13.092849
 20
7.659
 30
0.0
 11
13.092849
 21
8.171
 31
0.0
  0
LINE
  5
216
  8
0
 10
13.092849
 20
8.171
 30
0.0
 11
13.092849
 21
8.71136
 31
0.0
  0
LINE
  5
217
  8
0
 10
13.092849
 20
8.71136
 30
0.0
 11
13.092849
 21
8.712
 31
0.0
  0
LINE
  5
218
  8
0
 10
13.092849
 20
9.459
 30
0.0
 11
13.092849
 21
9.971
 31
0.0
  0
LINE
  5
219
  8
0
 10
13.092849
 20
9.971
 30
0.0
 11
13.092849
 21
10.51136
 31
0.0
  0
LINE
  5
21A
  8
0
 10
13.092849
 20
10.51136
 30
0.0
 11
13.092849
 21
10.512
 31
0.0
  0
LINE
  5
21B
  8
0
 10
13.092849
 20
11.259
 30
0.0
 11
13.092849
 21
11.771
 31
0.0
  0
LINE
  5
21C
  8
0
 10
13.092849
 20
11.771
 30
0.0
 11
13.092849
 21
12.31136
 31
0.0
  0
LINE
  5
21D
  8
0
 10
13.092849
 20
12.31136
 30
0.0
 11
13.092849
 21
12.312
 31
0.0
  0
LINE
  5
21E
  8
0
 10
13.092849
 20
13.059
 30
0.0
 11
13.092849
 21
13.571
 31
0.0
  0
LINE
  5
21F
  8
0
 10
13.092849
 20
13.571
 30
0.0
 11
13.092849
 21
14.11136
 31
0.0
  0
LINE
  5
220
  8
0
 10
13.092849
 20
14.11136
 30
0.0
 11
13.092849
 21
14.112
 31
0.0
  0
LINE
  5
221
  8
0
 10
13.592849
 20
1.07532
 30
0.0
 11
13.592849
 21
1.512
 31
0.0
  0
LINE
  5
222
  8
0
 10
13.592849
 20
1.07532
 30
0.0
 11
13.592849
 21
1.512
 31
0.0
  0
LINE
  5
223
  8
0
 10
13.592849
 20
2.26
 30
0.0
 11
13.592849
 21
2.772
 31
0.0
  0
LINE
  5
224
  8
0
 10
13.592849
 20
2.772
 30
0.0
 11
13.592849
 21
3.312
 31
0.0
  0
LINE
  5
225
  8
0
 10
13.592849
 20
4.06
 30
0.0
 11
13.592849
 21
4.572
 31
0.0
  0
LINE
  5
226
  8
0
 10
13.592849
 20
4.572
 30
0.0
 11
13.592849
 21
5.112
 31
0.0
  0
LINE
  5
227
  8
0
 10
13.592849
 20
5.86
 30
0.0
 11
13.592849
 21
6.372
 31
0.0
  0
LINE
  5
228
  8
0
 10
13.592849
 20
6.372
 30
0.0
 11
13.592849
 21
6.912
 31
0.0
  0
LINE
  5
229
  8
0
 10
13.592849
 20
7.66
 30
0.0
 11
13.592849
 21
8.2
 31
0.0
  0
LINE
  5
22A
  8
0
 10
13.592849
 20
8.2
 30
0.0
 11
13.592849
 21
8.712
 31
0.0
  0
LINE
  5
22B
  8
0
 10
13.592849
 20
9.46
 30
0.0
 11
13.592849
 21
9.972
 31
0.0
  0
LINE
  5
22C
  8
0
 10
13.592849
 20
9.972
 30
0.0
 11
13.592849
 21
10.512
 31
0.0
  0
LINE
  5
22D
  8
0
 10
13.592849
 20
11.26
 30
0.0
 11
13.592849
 21
11.8
 31
0.0
  0
LINE
  5
22E
  8
0
 10
13.592849
 20
11.8
 30
0.0
 11
13.592849
 21
12.312
 31
0.0
  0
LINE
  5
22F
  8
0
 10
13.592849
 20
13.06
 30
0.0
 11
13.592849
 21
13.572
 31
0.0
  0
LINE
  5
230
  8
0
 10
13.592849
 20
13.572
 30
0.0
 11
13.592849
 21
14.112
 31
0.0
  0
LINE
  5
231
  8
0
 10
14.092849
 20
1.12312
 30
0.0
 11
14.092849
 21
1.513
 31
0.0
  0
LINE
  5
232
  8
0
 10
14.092849
 20
1.12312
 30
0.0
 11
14.092849
 21
1.513
 31
0.0
  0
LINE
  5
233
  8
0
 10
14.092849
 20
2.261
 30
0.0
 11
14.092849
 21
2.801
 31
0.0
  0
LINE
  5
234
  8
0
 10
14.092849
 20
2.801
 30
0.0
 11
14.092849
 21
3.313
 31
0.0
  0
LINE
  5
235
  8
0
 10
14.092849
 20
4.061
 30
0.0
 11
14.092849
 21
4.601
 31
0.0
  0
LINE
  5
236
  8
0
 10
14.092849
 20
4.601
 30
0.0
 11
14.092849
 21
5.113
 31
0.0
  0
LINE
  5
237
  8
0
 10
14.092849
 20
5.861
 30
0.0
 11
14.092849
 21
6.373
 31
0.0
  0
LINE
  5
238
  8
0
 10
14.092849
 20
6.373
 30
0.0
 11
14.092849
 21
6.913
 31
0.0
  0
LINE
  5
239
  8
0
 10
14.092849
 20
7.661
 30
0.0
 11
14.092849
 21
8.201
 31
0.0
  0
LINE
  5
23A
  8
0
 10
14.092849
 20
8.201
 30
0.0
 11
14.092849
 21
8.713
 31
0.0
  0
LINE
  5
23B
  8
0
 10
14.092849
 20
9.461
 30
0.0
 11
14.092849
 21
9.973
 31
0.0
  0
LINE
  5
23C
  8
0
 10
14.092849
 20
9.973
 30
0.0
 11
14.092849
 21
10.513
 31
0.0
  0
LINE
  5
23D
  8
0
 10
14.092849
 20
11.261
 30
0.0
 11
14.092849
 21
11.773
 31
0.0
  0
LINE
  5
23E
  8
0
 10
14.092849
 20
11.773
 30
0.0
 11
14.092849
 21
12.313
 31
0.0
  0
LINE
  5
23F
  8
0
 10
14.092849
 20
13.061
 30
0.0
 11
14.092849
 21
13.573
 31
0.0
  0
LINE
  5
240
  8
0
 10
14.092849
 20
13.573
 30
0.0
 11
14.092849
 21
14.113
 31
0.0
  0
LINE
  5
241
  8
0
 10
14.592849
 20
1.32904
 30
0.0
 11
14.592849
 21
1.32968
 31
0.0
  0
LINE
  5
242
  8
0
 10
14.592849
 20
1.32904
 30
0.0
 11
14.592849
 21
1.32968
 31
0.0
  0
LINE
  5
243
  8
0
 10
14.592849
 20
1.32968
 30
0.0
 11
14.592849
 21
1.514
 31
0.0
  0
LINE
  5
244
  8
0
 10
14.592849
 20
2.26136
 30
0.0
 11
14.592849
 21
2.262
 31
0.0
  0
LINE
  5
245
  8
0
 10
14.592849
 20
2.262
 30
0.0
 11
14.592849
 21
2.774
 31
0.0
  0
LINE
  5
246
  8
0
 10
14.592849
 20
2.774
 30
0.0
 11
14.592849
 21
3.314
 31
0.0
  0
LINE
  5
247
  8
0
 10
14.592849
 20
4.06136
 30
0.0
 11
14.592849
 21
4.062
 31
0.0
  0
LINE
  5
248
  8
0
 10
14.592849
 20
4.062
 30
0.0
 11
14.592849
 21
4.574
 31
0.0
  0
LINE
  5
249
  8
0
 10
14.592849
 20
4.574
 30
0.0
 11
14.592849
 21
5.114
 31
0.0
  0
LINE
  5
24A
  8
0
 10
14.592849
 20
5.86136
 30
0.0
 11
14.592849
 21
5.862
 31
0.0
  0
LINE
  5
24B
  8
0
 10
14.592849
 20
5.862
 30
0.0
 11
14.592849
 21
6.402
 31
0.0
  0
LINE
  5
24C
  8
0
 10
14.592849
 20
6.402
 30
0.0
 11
14.592849
 21
6.914
 31
0.0
  0
LINE
  5
24D
  8
0
 10
14.592849
 20
7.66136
 30
0.0
 11
14.592849
 21
7.662
 31
0.0
  0
LINE
  5
24E
  8
0
 10
14.592849
 20
7.662
 30
0.0
 11
14.592849
 21
8.202
 31
0.0
  0
LINE
  5
24F
  8
0
 10
14.592849
 20
8.202
 30
0.0
 11
14.592849
 21
8.714
 31
0.0
  0
LINE
  5
250
  8
0
 10
14.592849
 20
9.46136
 30
0.0
 11
14.592849
 21
9.462
 31
0.0
  0
LINE
  5
251
  8
0
 10
14.592849
 20
9.462
 30
0.0
 11
14.592849
 21
10.002
 31
0.0
  0
LINE
  5
252
  8
0
 10
14.592849
 20
10.002
 30
0.0
 11
14.592849
 21
10.514
 31
0.0
  0
LINE
  5
253
  8
0
 10
14.592849
 20
11.26136
 30
0.0
 11
14.592849
 21
11.262
 31
0.0
  0
LINE
  5
254
  8
0
 10
14.592849
 20
11.262
 30
0.0
 11
14.592849
 21
11.774
 31
0.0
  0
LINE
  5
255
  8
0
 10
14.592849
 20
11.774
 30
0.0
 11
14.592849
 21
12.314
 31
0.0
  0
LINE
  5
256
  8
0
 10
14.592849
 20
13.06136
 30
0.0
 11
14.592849
 21
13.062
 31
0.0
  0
LINE
  5
257
  8
0
 10
14.592849
 20
13.062
 30
0.0
 11
14.592849
 21
13.574
 31
0.0
  0
LINE
  5
258
  8
0
 10
14.592849
 20
13.574
 30
0.0
 11
14.592849
 21
14.114
 31
0.0
  0
LINE
  5
259
  8
0
 10
1.758
 20
0.592238
 30
0.0
 11
2.298
 21
0.592238
 31
0.0
  0
LINE
  5
25A
  8
0
 10
1.758
 20
0.592238
 30
0.0
 11
2.298
 21
0.592238
 31
0.0
  0
LINE
  5
25B
  8
0
 10
2.298
 20
0.592238
 30
0.0
 11
2.81
 21
0.592238
 31
0.0
  0
LINE
  5
25C
  8
0
 10
3.558
 20
0.592238
 30
0.0
 11
4.07
 21
0.592238
 31
0.0
  0
LINE
  5
25D
  8
0
 10
4.07
 20
0.592238
 30
0.0
 11
4.61
 21
0.592238
 31
0.0
  0
LINE
  5
25E
  8
0
 10
5.358
 20
0.592238
 30
0.0
 11
5.87
 21
0.592238
 31
0.0
  0
LINE
  5
25F
  8
0
 10
5.87
 20
0.592238
 30
0.0
 11
6.41
 21
0.592238
 31
0.0
  0
LINE
  5
260
  8
0
 10
7.11832
 20
0.592238
 30
0.0
 11
7.22236
 21
0.592238
 31
0.0
  0
LINE
  5
261
  8
0
 10
7.22236
 20
0.592238
 30
0.0
 11
7.223
 21
0.592238
 31
0.0
  0
LINE
  5
262
  8
0
 10
7.746
 20
0.592238
 30
0.0
 11
7.74664
 21
0.592238
 31
0.0
  0
LINE
  5
263
  8
0
 10
7.74664
 20
0.592238
 30
0.0
 11
8.287
 21
0.592238
 31
0.0
  0
LINE
  5
264
  8
0
 10
8.287
 20
0.592238
 30
0.0
 11
8.799
 21
0.592238
 31
0.0
  0
LINE
  5
265
  8
0
 10
9.546
 20
0.592238
 30
0.0
 11
9.54664
 21
0.592238
 31
0.0
  0
LINE
  5
266
  8
0
 10
9.54664
 20
0.592238
 30
0.0
 11
10.087
 21
0.592238
 31
0.0
  0
LINE
  5
267
  8
0
 10
10.087
 20
0.592238
 30
0.0
 11
10.599
 21
0.592238
 31
0.0
  0
LINE
  5
268
  8
0
 10
11.346
 20
0.592238
 30
0.0
 11
11.34664
 21
0.592238
 31
0.0
  0
LINE
  5
269
  8
0
 10
11.34664
 20
0.592238
 30
0.0
 11
11.887
 21
0.592238
 31
0.0
  0
LINE
  5
26A
  8
0
 10
11.887
 20
0.592238
 30
0.0
 11
12.399
 21
0.592238
 31
0.0
  0
LINE
  5
26B
  8
0
 10
13.146
 20
0.592238
 30
0.0
 11
13.14664
 21
0.592238
 31
0.0
  0
LINE
  5
26C
  8
0
 10
13.14664
 20
0.592238
 30
0.0
 11
13.50988
 21
0.592238
 31
0.0
  0
LINE
  5
26D
  8
0
 10
1.175
 20
1.092238
 30
0.0
 11
1.68764
 21
1.092238
 31
0.0
  0
LINE
  5
26E
  8
0
 10
1.175
 20
1.092238
 30
0.0
 11
1.68764
 21
1.092238
 31
0.0
  0
LINE
  5
26F
  8
0
 10
1.68764
 20
1.092238
 30
0.0
 11
2.228
 21
1.092238
 31
0.0
  0
LINE
  5
270
  8
0
 10
2.975
 20
1.092238
 30
0.0
 11
3.51536
 21
1.092238
 31
0.0
  0
LINE
  5
271
  8
0
 10
3.51536
 20
1.092238
 30
0.0
 11
4.028
 21
1.092238
 31
0.0
  0
LINE
  5
272
  8
0
 10
4.775
 20
1.092238
 30
0.0
 11
5.28764
 21
1.092238
 31
0.0
  0
LINE
  5
273
  8
0
 10
5.28764
 20
1.092238
 30
0.0
 11
5.828
 21
1.092238
 31
0.0
  0
LINE
  5
274
  8
0
 10
6.575
 20
1.092238
 30
0.0
 11
7.11536
 21
1.092238
 31
0.0
  0
LINE
  5
275
  8
0
 10
7.11536
 20
1.092238
 30
0.0
 11
7.628
 21
1.092238
 31
0.0
  0
LINE
  5
276
  8
0
 10
8.375
 20
1.092238
 30
0.0
 11
8.88764
 21
1.092238
 31
0.0
  0
LINE
  5
277
  8
0
 10
8.88764
 20
1.092238
 30
0.0
 11
9.428
 21
1.092238
 31
0.0
  0
LINE
  5
278
  8
0
 10
10.175
 20
1.092238
 30
0.0
 11
10.71536
 21
1.092238
 31
0.0
  0
LINE
  5
279
  8
0
 10
10.71536
 20
1.092238
 30
0.0
 11
11.228
 21
1.092238
 31
0.0
  0
LINE
  5
27A
  8
0
 10
11.975
 20
1.092238
 30
0.0
 11
12.51536
 21
1.092238
 31
0.0
  0
LINE
  5
27B
  8
0
 10
12.51536
 20
1.092238
 30
0.0
 11
13.028
 21
1.092238
 31
0.0
  0
LINE
  5
27C
  8
0
 10
13.775
 20
1.092238
 30
0.0
 11
13.77564
 21
1.092238
 31
0.0
  0
LINE
  5
27D
  8
0
 10
13.77564
 20
1.092238
 30
0.0
 11
14.1306
 21
1.092238
 31
0.0
  0
LINE
  5
27E
  8
0
 10
1.043
 20
1.592238
 30
0.0
 11
1.583
 21
1.592238
 31
0.0
  0
LINE
  5
27F
  8
0
 10
1.043
 20
1.592238
 30
0.0
 11
1.583
 21
1.592238
 31
0.0
  0
LINE
  5
280
  8
0
 10
1.583
 20
1.592238
 30
0.0
 11
2.095
 21
1.592238
 31
0.0
  0
LINE
  5
281
  8
0
 10
2.843
 20
1.592238
 30
0.0
 11
3.383
 21
1.592238
 31
0.0
  0
LINE
  5
282
  8
0
 10
3.383
 20
1.592238
 30
0.0
 11
3.895
 21
1.592238
 31
0.0
  0
LINE
  5
283
  8
0
 10
4.643
 20
1.592238
 30
0.0
 11
5.155
 21
1.592238
 31
0.0
  0
LINE
  5
284
  8
0
 10
5.155
 20
1.592238
 30
0.0
 11
5.695
 21
1.592238
 31
0.0
  0
LINE
  5
285
  8
0
 10
6.443
 20
1.592238
 30
0.0
 11
6.955
 21
1.592238
 31
0.0
  0
LINE
  5
286
  8
0
 10
6.955
 20
1.592238
 30
0.0
 11
7.495
 21
1.592238
 31
0.0
  0
LINE
  5
287
  8
0
 10
8.243
 20
1.592238
 30
0.0
 11
8.783
 21
1.592238
 31
0.0
  0
LINE
  5
288
  8
0
 10
8.783
 20
1.592238
 30
0.0
 11
9.295
 21
1.592238
 31
0.0
  0
LINE
  5
289
  8
0
 10
10.043
 20
1.592238
 30
0.0
 11
10.555
 21
1.592238
 31
0.0
  0
LINE
  5
28A
  8
0
 10
10.555
 20
1.592238
 30
0.0
 11
11.095
 21
1.592238
 31
0.0
  0
LINE
  5
28B
  8
0
 10
11.843
 20
1.592238
 30
0.0
 11
12.383
 21
1.592238
 31
0.0
  0
LINE
  5
28C
  8
0
 10
12.383
 20
1.592238
 30
0.0
 11
12.895
 21
1.592238
 31
0.0
  0
LINE
  5
28D
  8
0
 10
13.643
 20
1.592238
 30
0.0
 11
14.0912
 21
1.592238
 31
0.0
  0
LINE
  5
28E
  8
0
 10
0.98
 20
2.092238
 30
0.0
 11
1.52
 21
2.092238
 31
0.0
  0
LINE
  5
28F
  8
0
 10
0.98
 20
2.092238
 30
0.0
 11
1.52
 21
2.092238
 31
0.0
  0
LINE
  5
290
  8
0
 10
1.52
 20
2.092238
 30
0.0
 11
2.032
 21
2.092238
 31
0.0
  0
LINE
  5
291
  8
0
 10
2.78
 20
2.092238
 30
0.0
 11
3.32
 21
2.092238
 31
0.0
  0
LINE
  5
292
  8
0
 10
3.32
 20
2.092238
 30
0.0
 11
3.832
 21
2.092238
 31
0.0
  0
LINE
  5
293
  8
0
 10
4.58
 20
2.092238
 30
0.0
 11
5.12
 21
2.092238
 31
0.0
  0
LINE
  5
294
  8
0
 10
5.12
 20
2.092238
 30
0.0
 11
5.632
 21
2.092238
 31
0.0
  0
LINE
  5
295
  8
0
 10
6.38
 20
2.092238
 30
0.0
 11
6.892
 21
2.092238
 31
0.0
  0
LINE
  5
296
  8
0
 10
6.892
 20
2.092238
 30
0.0
 11
7.432
 21
2.092238
 31
0.0
  0
LINE
  5
297
  8
0
 10
8.18
 20
2.092238
 30
0.0
 11
8.72
 21
2.092238
 31
0.0
  0
LINE
  5
298
  8
0
 10
8.72
 20
2.092238
 30
0.0
 11
9.232
 21
2.092238
 31
0.0
  0
LINE
  5
299
  8
0
 10
9.98
 20
2.092238
 30
0.0
 11
10.52
 21
2.092238
 31
0.0
  0
LINE
  5
29A
  8
0
 10
10.52
 20
2.092238
 30
0.0
 11
11.032
 21
2.092238
 31
0.0
  0
LINE
  5
29B
  8
0
 10
11.78
 20
2.092238
 30
0.0
 11
12.292
 21
2.092238
 31
0.0
  0
LINE
  5
29C
  8
0
 10
12.292
 20
2.092238
 30
0.0
 11
12.832
 21
2.092238
 31
0.0
  0
LINE
  5
29D
  8
0
 10
13.58
 20
2.092238
 30
0.0
 11
14.07392
 21
2.092238
 31
0.0
  0
LINE
  5
29E
  8
0
 10
0.974
 20
2.592238
 30
0.0
 11
0.97464
 21
2.592238
 31
0.0
  0
LINE
  5
29F
  8
0
 10
0.974
 20
2.592238
 30
0.0
 11
0.97464
 21
2.592238
 31
0.0
  0
LINE
  5
2A0
  8
0
 10
0.97464
 20
2.592238
 30
0.0
 11
1.515
 21
2.592238
 31
0.0
  0
LINE
  5
2A1
  8
0
 10
1.515
 20
2.592238
 30
0.0
 11
2.027
 21
2.592238
 31
0.0
  0
LINE
  5
2A2
  8
0
 10
2.774
 20
2.592238
 30
0.0
 11
2.77464
 21
2.592238
 31
0.0
  0
LINE
  5
2A3
  8
0
 10
2.77464
 20
2.592238
 30
0.0
 11
3.315
 21
2.592238
 31
0.0
  0
LINE
  5
2A4
  8
0
 10
3.315
 20
2.592238
 30
0.0
 11
3.827
 21
2.592238
 31
0.0
  0
LINE
  5
2A5
  8
0
 10
4.574
 20
2.592238
 30
0.0
 11
4.57464
 21
2.592238
 31
0.0
  0
LINE
  5
2A6
  8
0
 10
4.57464
 20
2.592238
 30
0.0
 11
5.115
 21
2.592238
 31
0.0
  0
LINE
  5
2A7
  8
0
 10
5.115
 20
2.592238
 30
0.0
 11
5.627
 21
2.592238
 31
0.0
  0
LINE
  5
2A8
  8
0
 10
6.374
 20
2.592238
 30
0.0
 11
6.37464
 21
2.592238
 31
0.0
  0
LINE
  5
2A9
  8
0
 10
6.37464
 20
2.592238
 30
0.0
 11
6.915
 21
2.592238
 31
0.0
  0
LINE
  5
2AA
  8
0
 10
6.915
 20
2.592238
 30
0.0
 11
7.427
 21
2.592238
 31
0.0
  0
LINE
  5
2AB
  8
0
 10
8.174
 20
2.592238
 30
0.0
 11
8.17464
 21
2.592238
 31
0.0
  0
LINE
  5
2AC
  8
0
 10
8.17464
 20
2.592238
 30
0.0
 11
8.715
 21
2.592238
 31
0.0
  0
LINE
  5
2AD
  8
0
 10
8.715
 20
2.592238
 30
0.0
 11
9.227
 21
2.592238
 31
0.0
  0
LINE
  5
2AE
  8
0
 10
9.974
 20
2.592238
 30
0.0
 11
9.97464
 21
2.592238
 31
0.0
  0
LINE
  5
2AF
  8
0
 10
9.97464
 20
2.592238
 30
0.0
 11
10.515
 21
2.592238
 31
0.0
  0
LINE
  5
2B0
  8
0
 10
10.515
 20
2.592238
 30
0.0
 11
11.027
 21
2.592238
 31
0.0
  0
LINE
  5
2B1
  8
0
 10
11.774
 20
2.592238
 30
0.0
 11
11.77464
 21
2.592238
 31
0.0
  0
LINE
  5
2B2
  8
0
 10
11.77464
 20
2.592238
 30
0.0
 11
12.315
 21
2.592238
 31
0.0
  0
LINE
  5
2B3
  8
0
 10
12.315
 20
2.592238
 30
0.0
 11
12.827
 21
2.592238
 31
0.0
  0
LINE
  5
2B4
  8
0
 10
13.574
 20
2.592238
 30
0.0
 11
13.57464
 21
2.592238
 31
0.0
  0
LINE
  5
2B5
  8
0
 10
13.57464
 20
2.592238
 30
0.0
 11
14.07468
 21
2.592238
 31
0.0
  0
LINE
  5
2B6
  8
0
 10
0.987
 20
3.092238
 30
0.0
 11
1.527
 21
3.092238
 31
0.0
  0
LINE
  5
2B7
  8
0
 10
0.987
 20
3.092238
 30
0.0
 11
1.527
 21
3.092238
 31
0.0
  0
LINE
  5
2B8
  8
0
 10
1.527
 20
3.092238
 30
0.0
 11
2.039
 21
3.092238
 31
0.0
  0
LINE
  5
2B9
  8
0
 10
2.787
 20
3.092238
 30
0.0
 11
3.327
 21
3.092238
 31
0.0
  0
LINE
  5
2BA
  8
0
 10
3.327
 20
3.092238
 30
0.0
 11
3.839
 21
3.092238
 31
0.0
  0
LINE
  5
2BB
  8
0
 10
4.587
 20
3.092238
 30
0.0
 11
5.099
 21
3.092238
 31
0.0
  0
LINE
  5
2BC
  8
0
 10
5.099
 20
3.092238
 30
0.0
 11
5.639
 21
3.092238
 31
0.0
  0
LINE
  5
2BD
  8
0
 10
6.387
 20
3.092238
 30
0.0
 11
6.899
 21
3.092238
 31
0.0
  0
LINE
  5
2BE
  8
0
 10
6.899
 20
3.092238
 30
0.0
 11
7.439
 21
3.092238
 31
0.0
  0
LINE
  5
2BF
  8
0
 10
8.187
 20
3.092238
 30
0.0
 11
8.699
 21
3.092238
 31
0.0
  0
LINE
  5
2C0
  8
0
 10
8.699
 20
3.092238
 30
0.0
 11
9.239
 21
3.092238
 31
0.0
  0
LINE
  5
2C1
  8
0
 10
9.987
 20
3.092238
 30
0.0
 11
10.527
 21
3.092238
 31
0.0
  0
LINE
  5
2C2
  8
0
 10
10.527
 20
3.092238
 30
0.0
 11
11.039
 21
3.092238
 31
0.0
  0
LINE
  5
2C3
  8
0
 10
11.787
 20
3.092238
 30
0.0
 11
12.327
 21
3.092238
 31
0.0
  0
LINE
  5
2C4
  8
0
 10
12.327
 20
3.092238
 30
0.0
 11
12.839
 21
3.092238
 31
0.0
  0
LINE
  5
2C5
  8
0
 10
13.587
 20
3.092238
 30
0.0
 11
14.07624
 21
3.092238
 31
0.0
  0
LINE
  5
2C6
  8
0
 10
1.0
 20
3.592238
 30
0.0
 11
1.512
 21
3.592238
 31
0.0
  0
LINE
  5
2C7
  8
0
 10
1.0
 20
3.592238
 30
0.0
 11
1.512
 21
3.592238
 31
0.0
  0
LINE
  5
2C8
  8
0
 10
1.512
 20
3.592238
 30
0.0
 11
2.052
 21
3.592238
 31
0.0
  0
LINE
  5
2C9
  8
0
 10
2.8
 20
3.592238
 30
0.0
 11
3.312
 21
3.592238
 31
0.0
  0
LINE
  5
2CA
  8
0
 10
3.312
 20
3.592238
 30
0.0
 11
3.852
 21
3.592238
 31
0.0
  0
LINE
  5
2CB
  8
0
 10
4.6
 20
3.592238
 30
0.0
 11
5.112
 21
3.592238
 31
0.0
  0
LINE
  5
2CC
  8
0
 10
5.112
 20
3.592238
 30
0.0
 11
5.652
 21
3.592238
 31
0.0
  0
LINE
  5
2CD
  8
0
 10
6.4
 20
3.592238
 30
0.0
 11
6.912
 21
3.592238
 31
0.0
  0
LINE
  5
2CE
  8
0
 10
6.912
 20
3.592238
 30
0.0
 11
7.452
 21
3.592238
 31
0.0
  0
LINE
  5
2CF
  8
0
 10
8.2
 20
3.592238
 30
0.0
 11
8.712
 21
3.592238
 31
0.0
  0
LINE
  5
2D0
  8
0
 10
8.712
 20
3.592238
 30
0.0
 11
9.252
 21
3.592238
 31
0.0
  0
LINE
  5
2D1
  8
0
 10
10.0
 20
3.592238
 30
0.0
 11
10.54
 21
3.592238
 31
0.0
  0
LINE
  5
2D2
  8
0
 10
10.54
 20
3.592238
 30
0.0
 11
11.052
 21
3.592238
 31
0.0
  0
LINE
  5
2D3
  8
0
 10
11.8
 20
3.592238
 30
0.0
 11
12.34
 21
3.592238
 31
0.0
  0
LINE
  5
2D4
  8
0
 10
12.34
 20
3.592238
 30
0.0
 11
12.852
 21
3.592238
 31
0.0
  0
LINE
  5
2D5
  8
0
 10
13.6
 20
3.592238
 30
0.0
 11
14.07808
 21
3.592238
 31
0.0
  0
LINE
  5
2D6
  8
0
 10
1.012
 20
4.092238
 30
0.0
 11
1.524
 21
4.092238
 31
0.0
  0
LINE
  5
2D7
  8
0
 10
1.012
 20
4.092238
 30
0.0
 11
1.524
 21
4.092238
 31
0.0
  0
LINE
  5
2D8
  8
0
 10
1.524
 20
4.092238
 30
0.0
 11
2.064
 21
4.092238
 31
0.0
  0
LINE
  5
2D9
  8
0
 10
2.812
 20
4.092238
 30
0.0
 11
3.352
 21
4.092238
 31
0.0
  0
LINE
  5
2DA
  8
0
 10
3.352
 20
4.092238
 30
0.0
 11
3.864
 21
4.092238
 31
0.0
  0
LINE
  5
2DB
  8
0
 10
4.612
 20
4.092238
 30
0.0
 11
5.152
 21
4.092238
 31
0.0
  0
LINE
  5
2DC
  8
0
 10
5.152
 20
4.092238
 30
0.0
 11
5.664
 21
4.092238
 31
0.0
  0
LINE
  5
2DD
  8
0
 10
6.412
 20
4.092238
 30
0.0
 11
6.952
 21
4.092238
 31
0.0
  0
LINE
  5
2DE
  8
0
 10
6.952
 20
4.092238
 30
0.0
 11
7.464
 21
4.092238
 31
0.0
  0
LINE
  5
2DF
  8
0
 10
8.212
 20
4.092238
 30
0.0
 11
8.752
 21
4.092238
 31
0.0
  0
LINE
  5
2E0
  8
0
 10
8.752
 20
4.092238
 30
0.0
 11
9.264
 21
4.092238
 31
0.0
  0
LINE
  5
2E1
  8
0
 10
10.012
 20
4.092238
 30
0.0
 11
10.552
 21
4.092238
 31
0.0
  0
LINE
  5
2E2
  8
0
 10
10.552
 20
4.092238
 30
0.0
 11
11.064
 21
4.092238
 31
0.0
  0
LINE
  5
2E3
  8
0
 10
11.812
 20
4.092238
 30
0.0
 11
12.324
 21
4.092238
 31
0.0
  0
LINE
  5
2E4
  8
0
 10
12.324
 20
4.092238
 30
0.0
 11
12.864
 21
4.092238
 31
0.0
  0
LINE
  5
2E5
  8
0
 10
13.612
 20
4.092238
 30
0.0
 11
14.07964
 21
4.092238
 31
0.0
  0
LINE
  5
2E6
  8
0
 10
1.025
 20
4.592238
 30
0.0
 11
1.537
 21
4.592238
 31
0.0
  0
LINE
  5
2E7
  8
0
 10
1.025
 20
4.592238
 30
0.0
 11
1.537
 21
4.592238
 31
0.0
  0
LINE
  5
2E8
  8
0
 10
1.537
 20
4.592238
 30
0.0
 11
2.077
 21
4.592238
 31
0.0
  0
LINE
  5
2E9
  8
0
 10
2.825
 20
4.592238
 30
0.0
 11
3.365
 21
4.592238
 31
0.0
  0
LINE
  5
2EA
  8
0
 10
3.365
 20
4.592238
 30
0.0
 11
3.877
 21
4.592238
 31
0.0
  0
LINE
  5
2EB
  8
0
 10
4.625
 20
4.592238
 30
0.0
 11
5.165
 21
4.592238
 31
0.0
  0
LINE
  5
2EC
  8
0
 10
5.165
 20
4.592238
 30
0.0
 11
5.677
 21
4.592238
 31
0.0
  0
LINE
  5
2ED
  8
0
 10
6.425
 20
4.592238
 30
0.0
 11
6.937
 21
4.592238
 31
0.0
  0
LINE
  5
2EE
  8
0
 10
6.937
 20
4.592238
 30
0.0
 11
7.477
 21
4.592238
 31
0.0
  0
LINE
  5
2EF
  8
0
 10
8.225
 20
4.592238
 30
0.0
 11
8.765
 21
4.592238
 31
0.0
  0
LINE
  5
2F0
  8
0
 10
8.765
 20
4.592238
 30
0.0
 11
9.277
 21
4.592238
 31
0.0
  0
LINE
  5
2F1
  8
0
 10
10.025
 20
4.592238
 30
0.0
 11
10.565
 21
4.592238
 31
0.0
  0
LINE
  5
2F2
  8
0
 10
10.565
 20
4.592238
 30
0.0
 11
11.077
 21
4.592238
 31
0.0
  0
LINE
  5
2F3
  8
0
 10
11.825
 20
4.592238
 30
0.0
 11
12.337
 21
4.592238
 31
0.0
  0
LINE
  5
2F4
  8
0
 10
12.337
 20
4.592238
 30
0.0
 11
12.877
 21
4.592238
 31
0.0
  0
LINE
  5
2F5
  8
0
 10
13.625
 20
4.592238
 30
0.0
 11
14.08148
 21
4.592238
 31
0.0
  0
LINE
  5
2F6
  8
0
 10
1.037
 20
5.092238
 30
0.0
 11
1.54964
 21
5.092238
 31
0.0
  0
LINE
  5
2F7
  8
0
 10
1.037
 20
5.092238
 30
0.0
 11
1.54964
 21
5.092238
 31
0.0
  0
LINE
  5
2F8
  8
0
 10
1.54964
 20
5.092238
 30
0.0
 11
2.09
 21
5.092238
 31
0.0
  0
LINE
  5
2F9
  8
0
 10
2.837
 20
5.092238
 30
0.0
 11
3.37736
 21
5.092238
 31
0.0
  0
LINE
  5
2FA
  8
0
 10
3.37736
 20
5.092238
 30
0.0
 11
3.89
 21
5.092238
 31
0.0
  0
LINE
  5
2FB
  8
0
 10
4.637
 20
5.092238
 30
0.0
 11
5.17736
 21
5.092238
 31
0.0
  0
LINE
  5
2FC
  8
0
 10
5.17736
 20
5.092238
 30
0.0
 11
5.69
 21
5.092238
 31
0.0
  0
LINE
  5
2FD
  8
0
 10
6.437
 20
5.092238
 30
0.0
 11
6.94964
 21
5.092238
 31
0.0
  0
LINE
  5
2FE
  8
0
 10
6.94964
 20
5.092238
 30
0.0
 11
7.49
 21
5.092238
 31
0.0
  0
LINE
  5
2FF
  8
0
 10
8.237
 20
5.092238
 30
0.0
 11
8.77736
 21
5.092238
 31
0.0
  0
LINE
  5
300
  8
0
 10
8.77736
 20
5.092238
 30
0.0
 11
9.29
 21
5.092238
 31
0.0
  0
LINE
  5
301
  8
0
 10
10.037
 20
5.092238
 30
0.0
 11
10.57736
 21
5.092238
 31
0.0
  0
LINE
  5
302
  8
0
 10
10.57736
 20
5.092238
 30
0.0
 11
11.09
 21
5.092238
 31
0.0
  0
LINE
  5
303
  8
0
 10
11.837
 20
5.092238
 30
0.0
 11
12.37736
 21
5.092238
 31
0.0
  0
LINE
  5
304
  8
0
 10
12.37736
 20
5.092238
 30
0.0
 11
12.89
 21
5.092238
 31
0.0
  0
LINE
  5
305
  8
0
 10
13.637
 20
5.092238
 30
0.0
 11
13.63764
 21
5.092238
 31
0.0
  0
LINE
  5
306
  8
0
 10
13.63764
 20
5.092238
 30
0.0
 11
14.08332
 21
5.092238
 31
0.0
  0
LINE
  5
307
  8
0
 10
1.05
 20
5.592238
 30
0.0
 11
1.562
 21
5.592238
 31
0.0
  0
LINE
  5
308
  8
0
 10
1.05
 20
5.592238
 30
0.0
 11
1.562
 21
5.592238
 31
0.0
  0
LINE
  5
309
  8
0
 10
1.562
 20
5.592238
 30
0.0
 11
2.102
 21
5.592238
 31
0.0
  0
LINE
  5
30A
  8
0
 10
2.85
 20
5.592238
 30
0.0
 11
3.39
 21
5.592238
 31
0.0
  0
LINE
  5
30B
  8
0
 10
3.39
 20
5.592238
 30
0.0
 11
3.902
 21
5.592238
 31
0.0
  0
LINE
  5
30C
  8
0
 10
4.65
 20
5.592238
 30
0.0
 11
5.19
 21
5.592238
 31
0.0
  0
LINE
  5
30D
  8
0
 10
5.19
 20
5.592238
 30
0.0
 11
5.702
 21
5.592238
 31
0.0
  0
LINE
  5
30E
  8
0
 10
6.45
 20
5.592238
 30
0.0
 11
6.99
 21
5.592238
 31
0.0
  0
LINE
  5
30F
  8
0
 10
6.99
 20
5.592238
 30
0.0
 11
7.502
 21
5.592238
 31
0.0
  0
LINE
  5
310
  8
0
 10
8.25
 20
5.592238
 30
0.0
 11
8.79
 21
5.592238
 31
0.0
  0
LINE
  5
311
  8
0
 10
8.79
 20
5.592238
 30
0.0
 11
9.302
 21
5.592238
 31
0.0
  0
LINE
  5
312
  8
0
 10
10.05
 20
5.592238
 30
0.0
 11
10.59
 21
5.592238
 31
0.0
  0
LINE
  5
313
  8
0
 10
10.59
 20
5.592238
 30
0.0
 11
11.102
 21
5.592238
 31
0.0
  0
LINE
  5
314
  8
0
 10
11.85
 20
5.592238
 30
0.0
 11
12.39
 21
5.592238
 31
0.0
  0
LINE
  5
315
  8
0
 10
12.39
 20
5.592238
 30
0.0
 11
12.902
 21
5.592238
 31
0.0
  0
LINE
  5
316
  8
0
 10
13.65
 20
5.592238
 30
0.0
 11
14.08488
 21
5.592238
 31
0.0
  0
LINE
  5
317
  8
0
 10
1.063
 20
6.092238
 30
0.0
 11
1.603
 21
6.092238
 31
0.0
  0
LINE
  5
318
  8
0
 10
1.063
 20
6.092238
 30
0.0
 11
1.603
 21
6.092238
 31
0.0
  0
LINE
  5
319
  8
0
 10
1.603
 20
6.092238
 30
0.0
 11
2.115
 21
6.092238
 31
0.0
  0
LINE
  5
31A
  8
0
 10
2.863
 20
6.092238
 30
0.0
 11
3.375
 21
6.092238
 31
0.0
  0
LINE
  5
31B
  8
0
 10
3.375
 20
6.092238
 30
0.0
 11
3.915
 21
6.092238
 31
0.0
  0
LINE
  5
31C
  8
0
 10
4.663
 20
6.092238
 30
0.0
 11
5.203
 21
6.092238
 31
0.0
  0
LINE
  5
31D
  8
0
 10
5.203
 20
6.092238
 30
0.0
 11
5.715
 21
6.092238
 31
0.0
  0
LINE
  5
31E
  8
0
 10
6.463
 20
6.092238
 30
0.0
 11
7.003
 21
6.092238
 31
0.0
  0
LINE
  5
31F
  8
0
 10
7.003
 20
6.092238
 30
0.0
 11
7.515
 21
6.092238
 31
0.0
  0
LINE
  5
320
  8
0
 10
8.263
 20
6.092238
 30
0.0
 11
8.803
 21
6.092238
 31
0.0
  0
LINE
  5
321
  8
0
 10
8.803
 20
6.092238
 30
0.0
 11
9.315
 21
6.092238
 31
0.0
  0
LINE
  5
322
  8
0
 10
10.063
 20
6.092238
 30
0.0
 11
10.603
 21
6.092238
 31
0.0
  0
LINE
  5
323
  8
0
 10
10.603
 20
6.092238
 30
0.0
 11
11.115
 21
6.092238
 31
0.0
  0
LINE
  5
324
  8
0
 10
11.863
 20
6.092238
 30
0.0
 11
12.375
 21
6.092238
 31
0.0
  0
LINE
  5
325
  8
0
 10
12.375
 20
6.092238
 30
0.0
 11
12.915
 21
6.092238
 31
0.0
  0
LINE
  5
326
  8
0
 10
13.663
 20
6.092238
 30
0.0
 11
14.09032
 21
6.092238
 31
0.0
  0
LINE
  5
327
  8
0
 10
1.075
 20
6.592238
 30
0.0
 11
1.615
 21
6.592238
 31
0.0
  0
LINE
  5
328
  8
0
 10
1.075
 20
6.592238
 30
0.0
 11
1.615
 21
6.592238
 31
0.0
  0
LINE
  5
329
  8
0
 10
1.615
 20
6.592238
 30
0.0
 11
2.127
 21
6.592238
 31
0.0
  0
LINE
  5
32A
  8
0
 10
2.875
 20
6.592238
 30
0.0
 11
3.415
 21
6.592238
 31
0.0
  0
LINE
  5
32B
  8
0
 10
3.415
 20
6.592238
 30
0.0
 11
3.927
 21
6.592238
 31
0.0
  0
LINE
  5
32C
  8
0
 10
4.675
 20
6.592238
 30
0.0
 11
5.187
 21
6.592238
 31
0.0
  0
LINE
  5
32D
  8
0
 10
5.187
 20
6.592238
 30
0.0
 11
5.727
 21
6.592238
 31
0.0
  0
LINE
  5
32E
  8
0
 10
6.475
 20
6.592238
 30
0.0
 11
6.987
 21
6.592238
 31
0.0
  0
LINE
  5
32F
  8
0
 10
6.987
 20
6.592238
 30
0.0
 11
7.527
 21
6.592238
 31
0.0
  0
LINE
  5
330
  8
0
 10
8.275
 20
6.592238
 30
0.0
 11
8.815
 21
6.592238
 31
0.0
  0
LINE
  5
331
  8
0
 10
8.815
 20
6.592238
 30
0.0
 11
9.327
 21
6.592238
 31
0.0
  0
LINE
  5
332
  8
0
 10
10.075
 20
6.592238
 30
0.0
 11
10.587
 21
6.592238
 31
0.0
  0
LINE
  5
333
  8
0
 10
10.587
 20
6.592238
 30
0.0
 11
11.127
 21
6.592238
 31
0.0
  0
LINE
  5
334
  8
0
 10
11.875
 20
6.592238
 30
0.0
 11
12.415
 21
6.592238
 31
0.0
  0
LINE
  5
335
  8
0
 10
12.415
 20
6.592238
 30
0.0
 11
12.927
 21
6.592238
 31
0.0
  0
LINE
  5
336
  8
0
 10
13.675
 20
6.592238
 30
0.0
 11
14.098
 21
6.592238
 31
0.0
  0
LINE
  5
337
  8
0
 10
1.088
 20
7.092238
 30
0.0
 11
1.628
 21
7.092238
 31
0.0
  0
LINE
  5
338
  8
0
 10
1.088
 20
7.092238
 30
0.0
 11
1.628
 21
7.092238
 31
0.0
  0
LINE
  5
339
  8
0
 10
1.628
 20
7.092238
 30
0.0
 11
2.14
 21
7.092238
 31
0.0
  0
LINE
  5
33A
  8
0
 10
2.888
 20
7.092238
 30
0.0
 11
3.428
 21
7.092238
 31
0.0
  0
LINE
  5
33B
  8
0
 10
3.428
 20
7.092238
 30
0.0
 11
3.94
 21
7.092238
 31
0.0
  0
LINE
  5
33C
  8
0
 10
4.688
 20
7.092238
 30
0.0
 11
5.2
 21
7.092238
 31
0.0
  0
LINE
  5
33D
  8
0
 10
5.2
 20
7.092238
 30
0.0
 11
5.74
 21
7.092238
 31
0.0
  0
LINE
  5
33E
  8
0
 10
6.488
 20
7.092238
 30
0.0
 11
7.0
 21
7.092238
 31
0.0
  0
LINE
  5
33F
  8
0
 10
7.0
 20
7.092238
 30
0.0
 11
7.54
 21
7.092238
 31
0.0
  0
LINE
  5
340
  8
0
 10
8.288
 20
7.092238
 30
0.0
 11
8.828
 21
7.092238
 31
0.0
  0
LINE
  5
341
  8
0
 10
8.828
 20
7.092238
 30
0.0
 11
9.34
 21
7.092238
 31
0.0
  0
LINE
  5
342
  8
0
 10
10.088
 20
7.092238
 30
0.0
 11
10.6
 21
7.092238
 31
0.0
  0
LINE
  5
343
  8
0
 10
10.6
 20
7.092238
 30
0.0
 11
11.14
 21
7.092238
 31
0.0
  0
LINE
  5
344
  8
0
 10
11.888
 20
7.092238
 30
0.0
 11
12.428
 21
7.092238
 31
0.0
  0
LINE
  5
345
  8
0
 10
12.428
 20
7.092238
 30
0.0
 11
12.94
 21
7.092238
 31
0.0
  0
LINE
  5
346
  8
0
 10
13.688
 20
7.092238
 30
0.0
 11
14.10632
 21
7.092238
 31
0.0
  0
LINE
  5
347
  8
0
 10
1.1
 20
7.592238
 30
0.0
 11
1.10064
 21
7.592238
 31
0.0
  0
LINE
  5
348
  8
0
 10
1.1
 20
7.592238
 30
0.0
 11
1.10064
 21
7.592238
 31
0.0
  0
LINE
  5
349
  8
0
 10
1.10064
 20
7.592238
 30
0.0
 11
1.641
 21
7.592238
 31
0.0
  0
LINE
  5
34A
  8
0
 10
1.641
 20
7.592238
 30
0.0
 11
2.153
 21
7.592238
 31
0.0
  0
LINE
  5
34B
  8
0
 10
2.9
 20
7.592238
 30
0.0
 11
2.90064
 21
7.592238
 31
0.0
  0
LINE
  5
34C
  8
0
 10
2.90064
 20
7.592238
 30
0.0
 11
3.441
 21
7.592238
 31
0.0
  0
LINE
  5
34D
  8
0
 10
3.441
 20
7.592238
 30
0.0
 11
3.953
 21
7.592238
 31
0.0
  0
LINE
  5
34E
  8
0
 10
4.7
 20
7.592238
 30
0.0
 11
4.70064
 21
7.592238
 31
0.0
  0
LINE
  5
34F
  8
0
 10
4.70064
 20
7.592238
 30
0.0
 11
5.241
 21
7.592238
 31
0.0
  0
LINE
  5
350
  8
0
 10
5.241
 20
7.592238
 30
0.0
 11
5.753
 21
7.592238
 31
0.0
  0
LINE
  5
351
  8
0
 10
6.5
 20
7.592238
 30
0.0
 11
6.50064
 21
7.592238
 31
0.0
  0
LINE
  5
352
  8
0
 10
6.50064
 20
7.592238
 30
0.0
 11
7.041
 21
7.592238
 31
0.0
  0
LINE
  5
353
  8
0
 10
7.041
 20
7.592238
 30
0.0
 11
7.553
 21
7.592238
 31
0.0
  0
LINE
  5
354
  8
0
 10
8.3
 20
7.592238
 30
0.0
 11
8.30064
 21
7.592238
 31
0.0
  0
LINE
  5
355
  8
0
 10
8.30064
 20
7.592238
 30
0.0
 11
8.841
 21
7.592238
 31
0.0
  0
LINE
  5
356
  8
0
 10
8.841
 20
7.592238
 30
0.0
 11
9.353
 21
7.592238
 31
0.0
  0
LINE
  5
357
  8
0
 10
10.1
 20
7.592238
 30
0.0
 11
10.10064
 21
7.592238
 31
0.0
  0
LINE
  5
358
  8
0
 10
10.10064
 20
7.592238
 30
0.0
 11
10.641
 21
7.592238
 31
0.0
  0
LINE
  5
359
  8
0
 10
10.641
 20
7.592238
 30
0.0
 11
11.153
 21
7.592238
 31
0.0
  0
LINE
  5
35A
  8
0
 10
11.9
 20
7.592238
 30
0.0
 11
11.90064
 21
7.592238
 31
0.0
  0
LINE
  5
35B
  8
0
 10
11.90064
 20
7.592238
 30
0.0
 11
12.441
 21
7.592238
 31
0.0
  0
LINE
  5
35C
  8
0
 10
12.441
 20
7.592238
 30
0.0
 11
12.953
 21
7.592238
 31
0.0
  0
LINE
  5
35D
  8
0
 10
13.7
 20
7.592238
 30
0.0
 11
13.70064
 21
7.592238
 31
0.0
  0
LINE
  5
35E
  8
0
 10
13.70064
 20
7.592238
 30
0.0
 11
14.11464
 21
7.592238
 31
0.0
  0
LINE
  5
35F
  8
0
 10
1.099
 20
8.092238
 30
0.0
 11
1.63936
 21
8.092238
 31
0.0
  0
LINE
  5
360
  8
0
 10
1.099
 20
8.092238
 30
0.0
 11
1.63936
 21
8.092238
 31
0.0
  0
LINE
  5
361
  8
0
 10
1.63936
 20
8.092238
 30
0.0
 11
2.152
 21
8.092238
 31
0.0
  0
LINE
  5
362
  8
0
 10
2.899
 20
8.092238
 30
0.0
 11
3.41164
 21
8.092238
 31
0.0
  0
LINE
  5
363
  8
0
 10
3.41164
 20
8.092238
 30
0.0
 11
3.952
 21
8.092238
 31
0.0
  0
LINE
  5
364
  8
0
 10
4.699
 20
8.092238
 30
0.0
 11
5.23936
 21
8.092238
 31
0.0
  0
LINE
  5
365
  8
0
 10
5.23936
 20
8.092238
 30
0.0
 11
5.752
 21
8.092238
 31
0.0
  0
LINE
  5
366
  8
0
 10
6.499
 20
8.092238
 30
0.0
 11
7.03936
 21
8.092238
 31
0.0
  0
LINE
  5
367
  8
0
 10
7.03936
 20
8.092238
 30
0.0
 11
7.552
 21
8.092238
 31
0.0
  0
LINE
  5
368
  8
0
 10
8.299
 20
8.092238
 30
0.0
 11
8.83936
 21
8.092238
 31
0.0
  0
LINE
  5
369
  8
0
 10
8.83936
 20
8.092238
 30
0.0
 11
9.352
 21
8.092238
 31
0.0
  0
LINE
  5
36A
  8
0
 10
10.099
 20
8.092238
 30
0.0
 11
10.63936
 21
8.092238
 31
0.0
  0
LINE
  5
36B
  8
0
 10
10.63936
 20
8.092238
 30
0.0
 11
11.152
 21
8.092238
 31
0.0
  0
LINE
  5
36C
  8
0
 10
11.899
 20
8.092238
 30
0.0
 11
12.43936
 21
8.092238
 31
0.0
  0
LINE
  5
36D
  8
0
 10
12.43936
 20
8.092238
 30
0.0
 11
12.952
 21
8.092238
 31
0.0
  0
LINE
  5
36E
  8
0
 10
13.699
 20
8.092238
 30
0.0
 11
13.69964
 21
8.092238
 31
0.0
  0
LINE
  5
36F
  8
0
 10
13.69964
 20
8.092238
 30
0.0
 11
14.114
 21
8.092238
 31
0.0
  0
LINE
  5
370
  8
0
 10
1.084
 20
8.592238
 30
0.0
 11
1.624
 21
8.592238
 31
0.0
  0
LINE
  5
371
  8
0
 10
1.084
 20
8.592238
 30
0.0
 11
1.624
 21
8.592238
 31
0.0
  0
LINE
  5
372
  8
0
 10
1.624
 20
8.592238
 30
0.0
 11
2.136
 21
8.592238
 31
0.0
  0
LINE
  5
373
  8
0
 10
2.884
 20
8.592238
 30
0.0
 11
3.424
 21
8.592238
 31
0.0
  0
LINE
  5
374
  8
0
 10
3.424
 20
8.592238
 30
0.0
 11
3.936
 21
8.592238
 31
0.0
  0
LINE
  5
375
  8
0
 10
4.684
 20
8.592238
 30
0.0
 11
5.224
 21
8.592238
 31
0.0
  0
LINE
  5
376
  8
0
 10
5.224
 20
8.592238
 30
0.0
 11
5.736
 21
8.592238
 31
0.0
  0
LINE
  5
377
  8
0
 10
6.484
 20
8.592238
 30
0.0
 11
7.024
 21
8.592238
 31
0.0
  0
LINE
  5
378
  8
0
 10
7.024
 20
8.592238
 30
0.0
 11
7.536
 21
8.592238
 31
0.0
  0
LINE
  5
379
  8
0
 10
8.284
 20
8.592238
 30
0.0
 11
8.824
 21
8.592238
 31
0.0
  0
LINE
  5
37A
  8
0
 10
8.824
 20
8.592238
 30
0.0
 11
9.336
 21
8.592238
 31
0.0
  0
LINE
  5
37B
  8
0
 10
10.084
 20
8.592238
 30
0.0
 11
10.624
 21
8.592238
 31
0.0
  0
LINE
  5
37C
  8
0
 10
10.624
 20
8.592238
 30
0.0
 11
11.136
 21
8.592238
 31
0.0
  0
LINE
  5
37D
  8
0
 10
11.884
 20
8.592238
 30
0.0
 11
12.424
 21
8.592238
 31
0.0
  0
LINE
  5
37E
  8
0
 10
12.424
 20
8.592238
 30
0.0
 11
12.936
 21
8.592238
 31
0.0
  0
LINE
  5
37F
  8
0
 10
13.684
 20
8.592238
 30
0.0
 11
14.10376
 21
8.592238
 31
0.0
  0
LINE
  5
380
  8
0
 10
1.069
 20
9.092238
 30
0.0
 11
1.609
 21
9.092238
 31
0.0
  0
LINE
  5
381
  8
0
 10
1.069
 20
9.092238
 30
0.0
 11
1.609
 21
9.092238
 31
0.0
  0
LINE
  5
382
  8
0
 10
1.609
 20
9.092238
 30
0.0
 11
2.121
 21
9.092238
 31
0.0
  0
LINE
  5
383
  8
0
 10
2.869
 20
9.092238
 30
0.0
 11
3.381
 21
9.092238
 31
0.0
  0
LINE
  5
384
  8
0
 10
3.381
 20
9.092238
 30
0.0
 11
3.921
 21
9.092238
 31
0.0
  0
LINE
  5
385
  8
0
 10
4.669
 20
9.092238
 30
0.0
 11
5.181
 21
9.092238
 31
0.0
  0
LINE
  5
386
  8
0
 10
5.181
 20
9.092238
 30
0.0
 11
5.721
 21
9.092238
 31
0.0
  0
LINE
  5
387
  8
0
 10
6.469
 20
9.092238
 30
0.0
 11
6.981
 21
9.092238
 31
0.0
  0
LINE
  5
388
  8
0
 10
6.981
 20
9.092238
 30
0.0
 11
7.521
 21
9.092238
 31
0.0
  0
LINE
  5
389
  8
0
 10
8.269
 20
9.092238
 30
0.0
 11
8.809
 21
9.092238
 31
0.0
  0
LINE
  5
38A
  8
0
 10
8.809
 20
9.092238
 30
0.0
 11
9.321
 21
9.092238
 31
0.0
  0
LINE
  5
38B
  8
0
 10
10.069
 20
9.092238
 30
0.0
 11
10.609
 21
9.092238
 31
0.0
  0
LINE
  5
38C
  8
0
 10
10.609
 20
9.092238
 30
0.0
 11
11.121
 21
9.092238
 31
0.0
  0
LINE
  5
38D
  8
0
 10
11.869
 20
9.092238
 30
0.0
 11
12.409
 21
9.092238
 31
0.0
  0
LINE
  5
38E
  8
0
 10
12.409
 20
9.092238
 30
0.0
 11
12.921
 21
9.092238
 31
0.0
  0
LINE
  5
38F
  8
0
 10
13.669
 20
9.092238
 30
0.0
 11
14.09416
 21
9.092238
 31
0.0
  0
LINE
  5
390
  8
0
 10
1.053
 20
9.592238
 30
0.0
 11
1.56564
 21
9.592238
 31
0.0
  0
LINE
  5
391
  8
0
 10
1.053
 20
9.592238
 30
0.0
 11
1.56564
 21
9.592238
 31
0.0
  0
LINE
  5
392
  8
0
 10
1.56564
 20
9.592238
 30
0.0
 11
2.106
 21
9.592238
 31
0.0
  0
LINE
  5
393
  8
0
 10
2.853
 20
9.592238
 30
0.0
 11
3.39336
 21
9.592238
 31
0.0
  0
LINE
  5
394
  8
0
 10
3.39336
 20
9.592238
 30
0.0
 11
3.906
 21
9.592238
 31
0.0
  0
LINE
  5
395
  8
0
 10
4.653
 20
9.592238
 30
0.0
 11
5.19336
 21
9.592238
 31
0.0
  0
LINE
  5
396
  8
0
 10
5.19336
 20
9.592238
 30
0.0
 11
5.706
 21
9.592238
 31
0.0
  0
LINE
  5
397
  8
0
 10
6.453
 20
9.592238
 30
0.0
 11
6.96564
 21
9.592238
 31
0.0
  0
LINE
  5
398
  8
0
 10
6.96564
 20
9.592238
 30
0.0
 11
7.506
 21
9.592238
 31
0.0
  0
LINE
  5
399
  8
0
 10
8.253
 20
9.592238
 30
0.0
 11
8.79336
 21
9.592238
 31
0.0
  0
LINE
  5
39A
  8
0
 10
8.79336
 20
9.592238
 30
0.0
 11
9.306
 21
9.592238
 31
0.0
  0
LINE
  5
39B
  8
0
 10
10.053
 20
9.592238
 30
0.0
 11
10.59336
 21
9.592238
 31
0.0
  0
LINE
  5
39C
  8
0
 10
10.59336
 20
9.592238
 30
0.0
 11
11.106
 21
9.592238
 31
0.0
  0
LINE
  5
39D
  8
0
 10
11.853
 20
9.592238
 30
0.0
 11
12.39336
 21
9.592238
 31
0.0
  0
LINE
  5
39E
  8
0
 10
12.39336
 20
9.592238
 30
0.0
 11
12.906
 21
9.592238
 31
0.0
  0
LINE
  5
39F
  8
0
 10
13.653
 20
9.592238
 30
0.0
 11
13.65364
 21
9.592238
 31
0.0
  0
LINE
  5
3A0
  8
0
 10
13.65364
 20
9.592238
 30
0.0
 11
14.08456
 21
9.592238
 31
0.0
  0
LINE
  5
3A1
  8
0
 10
1.038
 20
10.092238
 30
0.0
 11
1.55
 21
10.092238
 31
0.0
  0
LINE
  5
3A2
  8
0
 10
1.038
 20
10.092238
 30
0.0
 11
1.55
 21
10.092238
 31
0.0
  0
LINE
  5
3A3
  8
0
 10
1.55
 20
10.092238
 30
0.0
 11
2.09
 21
10.092238
 31
0.0
  0
LINE
  5
3A4
  8
0
 10
2.838
 20
10.092238
 30
0.0
 11
3.378
 21
10.092238
 31
0.0
  0
LINE
  5
3A5
  8
0
 10
3.378
 20
10.092238
 30
0.0
 11
3.89
 21
10.092238
 31
0.0
  0
LINE
  5
3A6
  8
0
 10
4.638
 20
10.092238
 30
0.0
 11
5.178
 21
10.092238
 31
0.0
  0
LINE
  5
3A7
  8
0
 10
5.178
 20
10.092238
 30
0.0
 11
5.69
 21
10.092238
 31
0.0
  0
LINE
  5
3A8
  8
0
 10
6.438
 20
10.092238
 30
0.0
 11
6.95
 21
10.092238
 31
0.0
  0
LINE
  5
3A9
  8
0
 10
6.95
 20
10.092238
 30
0.0
 11
7.49
 21
10.092238
 31
0.0
  0
LINE
  5
3AA
  8
0
 10
8.238
 20
10.092238
 30
0.0
 11
8.778
 21
10.092238
 31
0.0
  0
LINE
  5
3AB
  8
0
 10
8.778
 20
10.092238
 30
0.0
 11
9.29
 21
10.092238
 31
0.0
  0
LINE
  5
3AC
  8
0
 10
10.038
 20
10.092238
 30
0.0
 11
10.578
 21
10.092238
 31
0.0
  0
LINE
  5
3AD
  8
0
 10
10.578
 20
10.092238
 30
0.0
 11
11.09
 21
10.092238
 31
0.0
  0
LINE
  5
3AE
  8
0
 10
11.838
 20
10.092238
 30
0.0
 11
12.378
 21
10.092238
 31
0.0
  0
LINE
  5
3AF
  8
0
 10
12.378
 20
10.092238
 30
0.0
 11
12.89
 21
10.092238
 31
0.0
  0
LINE
  5
3B0
  8
0
 10
13.638
 20
10.092238
 30
0.0
 11
14.07432
 21
10.092238
 31
0.0
  0
LINE
  5
3B1
  8
0
 10
1.023
 20
10.592238
 30
0.0
 11
1.563
 21
10.592238
 31
0.0
  0
LINE
  5
3B2
  8
0
 10
1.023
 20
10.592238
 30
0.0
 11
1.563
 21
10.592238
 31
0.0
  0
LINE
  5
3B3
  8
0
 10
1.563
 20
10.592238
 30
0.0
 11
2.075
 21
10.592238
 31
0.0
  0
LINE
  5
3B4
  8
0
 10
2.823
 20
10.592238
 30
0.0
 11
3.335
 21
10.592238
 31
0.0
  0
LINE
  5
3B5
  8
0
 10
3.335
 20
10.592238
 30
0.0
 11
3.875
 21
10.592238
 31
0.0
  0
LINE
  5
3B6
  8
0
 10
4.623
 20
10.592238
 30
0.0
 11
5.163
 21
10.592238
 31
0.0
  0
LINE
  5
3B7
  8
0
 10
5.163
 20
10.592238
 30
0.0
 11
5.675
 21
10.592238
 31
0.0
  0
LINE
  5
3B8
  8
0
 10
6.423
 20
10.592238
 30
0.0
 11
6.963
 21
10.592238
 31
0.0
  0
LINE
  5
3B9
  8
0
 10
6.963
 20
10.592238
 30
0.0
 11
7.475
 21
10.592238
 31
0.0
  0
LINE
  5
3BA
  8
0
 10
8.223
 20
10.592238
 30
0.0
 11
8.763
 21
10.592238
 31
0.0
  0
LINE
  5
3BB
  8
0
 10
8.763
 20
10.592238
 30
0.0
 11
9.275
 21
10.592238
 31
0.0
  0
LINE
  5
3BC
  8
0
 10
10.023
 20
10.592238
 30
0.0
 11
10.563
 21
10.592238
 31
0.0
  0
LINE
  5
3BD
  8
0
 10
10.563
 20
10.592238
 30
0.0
 11
11.075
 21
10.592238
 31
0.0
  0
LINE
  5
3BE
  8
0
 10
11.823
 20
10.592238
 30
0.0
 11
12.363
 21
10.592238
 31
0.0
  0
LINE
  5
3BF
  8
0
 10
12.363
 20
10.592238
 30
0.0
 11
12.875
 21
10.592238
 31
0.0
  0
LINE
  5
3C0
  8
0
 10
13.623
 20
10.592238
 30
0.0
 11
14.06472
 21
10.592238
 31
0.0
  0
LINE
  5
3C1
  8
0
 10
1.008
 20
11.092238
 30
0.0
 11
1.52
 21
11.092238
 31
0.0
  0
LINE
  5
3C2
  8
0
 10
1.008
 20
11.092238
 30
0.0
 11
1.52
 21
11.092238
 31
0.0
  0
LINE
  5
3C3
  8
0
 10
1.52
 20
11.092238
 30
0.0
 11
2.06
 21
11.092238
 31
0.0
  0
LINE
  5
3C4
  8
0
 10
2.808
 20
11.092238
 30
0.0
 11
3.32
 21
11.092238
 31
0.0
  0
LINE
  5
3C5
  8
0
 10
3.32
 20
11.092238
 30
0.0
 11
3.86
 21
11.092238
 31
0.0
  0
LINE
  5
3C6
  8
0
 10
4.608
 20
11.092238
 30
0.0
 11
5.12
 21
11.092238
 31
0.0
  0
LINE
  5
3C7
  8
0
 10
5.12
 20
11.092238
 30
0.0
 11
5.66
 21
11.092238
 31
0.0
  0
LINE
  5
3C8
  8
0
 10
6.408
 20
11.092238
 30
0.0
 11
6.92
 21
11.092238
 31
0.0
  0
LINE
  5
3C9
  8
0
 10
6.92
 20
11.092238
 30
0.0
 11
7.46
 21
11.092238
 31
0.0
  0
LINE
  5
3CA
  8
0
 10
8.208
 20
11.092238
 30
0.0
 11
8.748
 21
11.092238
 31
0.0
  0
LINE
  5
3CB
  8
0
 10
8.748
 20
11.092238
 30
0.0
 11
9.26
 21
11.092238
 31
0.0
  0
LINE
  5
3CC
  8
0
 10
10.008
 20
11.092238
 30
0.0
 11
10.548
 21
11.092238
 31
0.0
  0
LINE
  5
3CD
  8
0
 10
10.548
 20
11.092238
 30
0.0
 11
11.06
 21
11.092238
 31
0.0
  0
LINE
  5
3CE
  8
0
 10
11.808
 20
11.092238
 30
0.0
 11
12.348
 21
11.092238
 31
0.0
  0
LINE
  5
3CF
  8
0
 10
12.348
 20
11.092238
 30
0.0
 11
12.86
 21
11.092238
 31
0.0
  0
LINE
  5
3D0
  8
0
 10
13.608
 20
11.092238
 30
0.0
 11
14.05512
 21
11.092238
 31
0.0
  0
LINE
  5
3D1
  8
0
 10
0.992
 20
11.592238
 30
0.0
 11
1.532
 21
11.592238
 31
0.0
  0
LINE
  5
3D2
  8
0
 10
0.992
 20
11.592238
 30
0.0
 11
1.532
 21
11.592238
 31
0.0
  0
LINE
  5
3D3
  8
0
 10
1.532
 20
11.592238
 30
0.0
 11
2.044
 21
11.592238
 31
0.0
  0
LINE
  5
3D4
  8
0
 10
2.792
 20
11.592238
 30
0.0
 11
3.304
 21
11.592238
 31
0.0
  0
LINE
  5
3D5
  8
0
 10
3.304
 20
11.592238
 30
0.0
 11
3.844
 21
11.592238
 31
0.0
  0
LINE
  5
3D6
  8
0
 10
4.592
 20
11.592238
 30
0.0
 11
5.104
 21
11.592238
 31
0.0
  0
LINE
  5
3D7
  8
0
 10
5.104
 20
11.592238
 30
0.0
 11
5.644
 21
11.592238
 31
0.0
  0
LINE
  5
3D8
  8
0
 10
6.392
 20
11.592238
 30
0.0
 11
6.904
 21
11.592238
 31
0.0
  0
LINE
  5
3D9
  8
0
 10
6.904
 20
11.592238
 30
0.0
 11
7.444
 21
11.592238
 31
0.0
  0
LINE
  5
3DA
  8
0
 10
8.192
 20
11.592238
 30
0.0
 11
8.732
 21
11.592238
 31
0.0
  0
LINE
  5
3DB
  8
0
 10
8.732
 20
11.592238
 30
0.0
 11
9.244
 21
11.592238
 31
0.0
  0
LINE
  5
3DC
  8
0
 10
9.992
 20
11.592238
 30
0.0
 11
10.532
 21
11.592238
 31
0.0
  0
LINE
  5
3DD
  8
0
 10
10.532
 20
11.592238
 30
0.0
 11
11.044
 21
11.592238
 31
0.0
  0
LINE
  5
3DE
  8
0
 10
11.792
 20
11.592238
 30
0.0
 11
12.332
 21
11.592238
 31
0.0
  0
LINE
  5
3DF
  8
0
 10
12.332
 20
11.592238
 30
0.0
 11
12.844
 21
11.592238
 31
0.0
  0
LINE
  5
3E0
  8
0
 10
13.592
 20
11.592238
 30
0.0
 11
14.04488
 21
11.592238
 31
0.0
  0
LINE
  5
3E1
  8
0
 10
0.977
 20
12.092238
 30
0.0
 11
1.489
 21
12.092238
 31
0.0
  0
LINE
  5
3E2
  8
0
 10
0.977
 20
12.092238
 30
0.0
 11
1.489
 21
12.092238
 31
0.0
  0
LINE
  5
3E3
  8
0
 10
1.489
 20
12.092238
 30
0.0
 11
2.029
 21
12.092238
 31
0.0
  0
LINE
  5
3E4
  8
0
 10
2.777
 20
12.092238
 30
0.0
 11
3.317
 21
12.092238
 31
0.0
  0
LINE
  5
3E5
  8
0
 10
3.317
 20
12.092238
 30
0.0
 11
3.829
 21
12.092238
 31
0.0
  0
LINE
  5
3E6
  8
0
 10
4.577
 20
12.092238
 30
0.0
 11
5.117
 21
12.092238
 31
0.0
  0
LINE
  5
3E7
  8
0
 10
5.117
 20
12.092238
 30
0.0
 11
5.629
 21
12.092238
 31
0.0
  0
LINE
  5
3E8
  8
0
 10
6.377
 20
12.092238
 30
0.0
 11
6.889
 21
12.092238
 31
0.0
  0
LINE
  5
3E9
  8
0
 10
6.889
 20
12.092238
 30
0.0
 11
7.429
 21
12.092238
 31
0.0
  0
LINE
  5
3EA
  8
0
 10
8.177
 20
12.092238
 30
0.0
 11
8.717
 21
12.092238
 31
0.0
  0
LINE
  5
3EB
  8
0
 10
8.717
 20
12.092238
 30
0.0
 11
9.229
 21
12.092238
 31
0.0
  0
LINE
  5
3EC
  8
0
 10
9.977
 20
12.092238
 30
0.0
 11
10.517
 21
12.092238
 31
0.0
  0
LINE
  5
3ED
  8
0
 10
10.517
 20
12.092238
 30
0.0
 11
11.029
 21
12.092238
 31
0.0
  0
LINE
  5
3EE
  8
0
 10
11.777
 20
12.092238
 30
0.0
 11
12.289
 21
12.092238
 31
0.0
  0
LINE
  5
3EF
  8
0
 10
12.289
 20
12.092238
 30
0.0
 11
12.829
 21
12.092238
 31
0.0
  0
LINE
  5
3F0
  8
0
 10
13.577
 20
12.092238
 30
0.0
 11
14.03528
 21
12.092238
 31
0.0
  0
LINE
  5
3F1
  8
0
 10
0.962
 20
12.592238
 30
0.0
 11
1.502
 21
12.592238
 31
0.0
  0
LINE
  5
3F2
  8
0
 10
0.962
 20
12.592238
 30
0.0
 11
1.502
 21
12.592238
 31
0.0
  0
LINE
  5
3F3
  8
0
 10
1.502
 20
12.592238
 30
0.0
 11
2.014
 21
12.592238
 31
0.0
  0
LINE
  5
3F4
  8
0
 10
2.762
 20
12.592238
 30
0.0
 11
3.274
 21
12.592238
 31
0.0
  0
LINE
  5
3F5
  8
0
 10
3.274
 20
12.592238
 30
0.0
 11
3.814
 21
12.592238
 31
0.0
  0
LINE
  5
3F6
  8
0
 10
4.562
 20
12.592238
 30
0.0
 11
5.102
 21
12.592238
 31
0.0
  0
LINE
  5
3F7
  8
0
 10
5.102
 20
12.592238
 30
0.0
 11
5.614
 21
12.592238
 31
0.0
  0
LINE
  5
3F8
  8
0
 10
6.362
 20
12.592238
 30
0.0
 11
6.902
 21
12.592238
 31
0.0
  0
LINE
  5
3F9
  8
0
 10
6.902
 20
12.592238
 30
0.0
 11
7.414
 21
12.592238
 31
0.0
  0
LINE
  5
3FA
  8
0
 10
8.162
 20
12.592238
 30
0.0
 11
8.702
 21
12.592238
 31
0.0
  0
LINE
  5
3FB
  8
0
 10
8.702
 20
12.592238
 30
0.0
 11
9.214
 21
12.592238
 31
0.0
  0
LINE
  5
3FC
  8
0
 10
9.962
 20
12.592238
 30
0.0
 11
10.502
 21
12.592238
 31
0.0
  0
LINE
  5
3FD
  8
0
 10
10.502
 20
12.592238
 30
0.0
 11
11.014
 21
12.592238
 31
0.0
  0
LINE
  5
3FE
  8
0
 10
11.762
 20
12.592238
 30
0.0
 11
12.302
 21
12.592238
 31
0.0
  0
LINE
  5
3FF
  8
0
 10
12.302
 20
12.592238
 30
0.0
 11
12.814
 21
12.592238
 31
0.0
  0
LINE
  5
400
  8
0
 10
13.562
 20
12.592238
 30
0.0
 11
14.02568
 21
12.592238
 31
0.0
  0
LINE
  5
401
  8
0
 10
0.975
 20
13.092238
 30
0.0
 11
1.515
 21
13.092238
 31
0.0
  0
LINE
  5
402
  8
0
 10
0.975
 20
13.092238
 30
0.0
 11
1.515
 21
13.092238
 31
0.0
  0
LINE
  5
403
  8
0
 10
1.515
 20
13.092238
 30
0.0
 11
2.027
 21
13.092238
 31
0.0
  0
LINE
  5
404
  8
0
 10
2.775
 20
13.092238
 30
0.0
 11
3.315
 21
13.092238
 31
0.0
  0
LINE
  5
405
  8
0
 10
3.315
 20
13.092238
 30
0.0
 11
3.827
 21
13.092238
 31
0.0
  0
LINE
  5
406
  8
0
 10
4.575
 20
13.092238
 30
0.0
 11
5.115
 21
13.092238
 31
0.0
  0
LINE
  5
407
  8
0
 10
5.115
 20
13.092238
 30
0.0
 11
5.627
 21
13.092238
 31
0.0
  0
LINE
  5
408
  8
0
 10
6.375
 20
13.092238
 30
0.0
 11
6.915
 21
13.092238
 31
0.0
  0
LINE
  5
409
  8
0
 10
6.915
 20
13.092238
 30
0.0
 11
7.427
 21
13.092238
 31
0.0
  0
LINE
  5
40A
  8
0
 10
8.175
 20
13.092238
 30
0.0
 11
8.715
 21
13.092238
 31
0.0
  0
LINE
  5
40B
  8
0
 10
8.715
 20
13.092238
 30
0.0
 11
9.227
 21
13.092238
 31
0.0
  0
LINE
  5
40C
  8
0
 10
9.975
 20
13.092238
 30
0.0
 11
10.515
 21
13.092238
 31
0.0
  0
LINE
  5
40D
  8
0
 10
10.515
 20
13.092238
 30
0.0
 11
11.027
 21
13.092238
 31
0.0
  0
LINE
  5
40E
  8
0
 10
11.775
 20
13.092238
 30
0.0
 11
12.315
 21
13.092238
 31
0.0
  0
LINE
  5
40F
  8
0
 10
12.315
 20
13.092238
 30
0.0
 11
12.827
 21
13.092238
 31
0.0
  0
LINE
  5
410
  8
0
 10
13.575
 20
13.092238
 30
0.0
 11
14.034
 21
13.092238
 31
0.0
  0
LINE
  5
411
  8
0
 10
1.035
 20
13.592238
 30
0.0
 11
1.575
 21
13.592238
 31
0.0
  0
LINE
  5
412
  8
0
 10
1.035
 20
13.592238
 30
0.0
 11
1.575
 21
13.592238
 31
0.0
  0
LINE
  5
413
  8
0
 10
1.575
 20
13.592238
 30
0.0
 11
2.087
 21
13.592238
 31
0.0
  0
LINE
  5
414
  8
0
 10
2.835
 20
13.592238
 30
0.0
 11
3.375
 21
13.592238
 31
0.0
  0
LINE
  5
415
  8
0
 10
3.375
 20
13.592238
 30
0.0
 11
3.887
 21
13.592238
 31
0.0
  0
LINE
  5
416
  8
0
 10
4.635
 20
13.592238
 30
0.0
 11
5.147
 21
13.592238
 31
0.0
  0
LINE
  5
417
  8
0
 10
5.147
 20
13.592238
 30
0.0
 11
5.687
 21
13.592238
 31
0.0
  0
LINE
  5
418
  8
0
 10
6.435
 20
13.592238
 30
0.0
 11
6.947
 21
13.592238
 31
0.0
  0
LINE
  5
419
  8
0
 10
6.947
 20
13.592238
 30
0.0
 11
7.487
 21
13.592238
 31
0.0
  0
LINE
  5
41A
  8
0
 10
8.235
 20
13.592238
 30
0.0
 11
8.747
 21
13.592238
 31
0.0
  0
LINE
  5
41B
  8
0
 10
8.747
 20
13.592238
 30
0.0
 11
9.287
 21
13.592238
 31
0.0
  0
LINE
  5
41C
  8
0
 10
10.035
 20
13.592238
 30
0.0
 11
10.575
 21
13.592238
 31
0.0
  0
LINE
  5
41D
  8
0
 10
10.575
 20
13.592238
 30
0.0
 11
11.087
 21
13.592238
 31
0.0
  0
LINE
  5
41E
  8
0
 10
11.835
 20
13.592238
 30
0.0
 11
12.375
 21
13.592238
 31
0.0
  0
LINE
  5
41F
  8
0
 10
12.375
 20
13.592238
 30
0.0
 11
12.887
 21
13.592238
 31
0.0
  0
LINE
  5
420
  8
0
 10
13.635
 20
13.592238
 30
0.0
 11
14.0724
 21
13.592238
 31
0.0
  0
LINE
  5
421
  8
0
 10
1.178
 20
14.092238
 30
0.0
 11
1.69
 21
14.092238
 31
0.0
  0
LINE
  5
422
  8
0
 10
1.178
 20
14.092238
 30
0.0
 11
1.69
 21
14.092238
 31
0.0
  0
LINE
  5
423
  8
0
 10
1.69
 20
14.092238
 30
0.0
 11
2.23
 21
14.092238
 31
0.0
  0
LINE
  5
424
  8
0
 10
2.978
 20
14.092238
 30
0.0
 11
3.49
 21
14.092238
 31
0.0
  0
LINE
  5
425
  8
0
 10
3.49
 20
14.092238
 30
0.0
 11
4.03
 21
14.092238
 31
0.0
  0
LINE
  5
426
  8
0
 10
4.778
 20
14.092238
 30
0.0
 11
5.29
 21
14.092238
 31
0.0
  0
LINE
  5
427
  8
0
 10
5.29
 20
14.092238
 30
0.0
 11
5.83
 21
14.092238
 31
0.0
  0
LINE
  5
428
  8
0
 10
6.578
 20
14.092238
 30
0.0
 11
7.09
 21
14.092238
 31
0.0
  0
LINE
  5
429
  8
0
 10
7.09
 20
14.092238
 30
0.0
 11
7.63
 21
14.092238
 31
0.0
  0
LINE
  5
42A
  8
0
 10
8.378
 20
14.092238
 30
0.0
 11
8.918
 21
14.092238
 31
0.0
  0
LINE
  5
42B
  8
0
 10
8.918
 20
14.092238
 30
0.0
 11
9.43
 21
14.092238
 31
0.0
  0
LINE
  5
42C
  8
0
 10
10.178
 20
14.092238
 30
0.0
 11
10.718
 21
14.092238
 31
0.0
  0
LINE
  5
42D
  8
0
 10
10.718
 20
14.092238
 30
0.0
 11
11.23
 21
14.092238
 31
0.0
  0
LINE
  5
42E
  8
0
 10
11.978
 20
14.092238
 30
0.0
 11
12.518
 21
14.092238
 31
0.0
  0
LINE
  5
42F
  8
0
 10
12.518
 20
14.092238
 30
0.0
 11
13.03
 21
14.092238
 31
0.0
  0
LINE
  5
430
  8
0
 10
13.778
 20
14.092238
 30
0.0
 11
14.16392
 21
14.092238
 31
0.0
  0
LINE
  5
431
  8
0
 10
1.745
 20
14.592238
 30
0.0
 11
2.285
 21
14.592238
 31
0.0
  0
LINE
  5
432
  8
0
 10
1.745
 20
14.592238
 30
0.0
 11
2.285
 21
14.592238
 31
0.0
  0
LINE
  5
433
  8
0
 10
2.285
 20
14.592238
 30
0.0
 11
2.797
 21
14.592238
 31
0.0
  0
LINE
  5
434
  8
0
 10
3.545
 20
14.592238
 30
0.0
 11
4.085
 21
14.592238
 31
0.0
  0
LINE
  5
435
  8
0
 10
4.085
 20
14.592238
 30
0.0
 11
4.597
 21
14.592238
 31
0.0
  0
LINE
  5
436
  8
0
 10
5.345
 20
14.592238
 30
0.0
 11
5.65028
 21
14.592238
 31
0.0
  0
LINE
  5
437
  8
0
 10
6.493
 20
14.592238
 30
0.0
 11
7.033
 21
14.592238
 31
0.0
  0
LINE
  5
438
  8
0
 10
7.033
 20
14.592238
 30
0.0
 11
7.545
 21
14.592238
 31
0.0
  0
LINE
  5
439
  8
0
 10
8.293
 20
14.592238
 30
0.0
 11
8.805
 21
14.592238
 31
0.0
  0
LINE
  5
43A
  8
0
 10
8.805
 20
14.592238
 30
0.0
 11
9.345
 21
14.592238
 31
0.0
  0
LINE
  5
43B
  8
0
 10
10.093
 20
14.592238
 30
0.0
 11
10.633
 21
14.592238
 31
0.0
  0
LINE
  5
43C
  8
0
 10
10.633
 20
14.592238
 30
0.0
 11
11.145
 21
14.592238
 31
0.0
  0
LINE
  5
43D
  8
0
 10
11.893
 20
14.592238
 30
0.0
 11
12.433
 21
14.592238
 31
0.0
  0
LINE
  5
43E
  8
0
 10
12.433
 20
14.592238
 30
0.0
 11
12.945
 21
14.592238
 31
0.0
  0
LINE
  5
43F
  8
0
 10
13.693
 20
14.592238
 30
0.0
 11
14.10952
 21
14.592238
 31
0.0
  0
ENDSEC
  0
EOF
