  0
SECTION
  2
HEADER
  9
$ACADVER
  1
AC1009
  9
$DWGCODEPAGE
  3
ANSI_1252
  9
$INSBASE
 10
0.0
 20
0.0
 30
0.0
  9
$EXTMIN
 10
1e+20
 20
1e+20
 30
1e+20
  9
$EXTMAX
 10
-1e+20
 20
-1e+20
 30
-1e+20
  9
$LIMMIN
 10
0.0
 20
0.0
  9
$LIMMAX
 10
420.0
 20
297.0
  9
$ORTHOMODE
 70
0
  9
$REGENMODE
 70
1
  9
$FILLMODE
 70
1
  9
$DRAGMODE
 70
2
  9
$QTEXTMODE
 70
0
  9
$MIRRTEXT
 70
1
  9
$OSMODE
 70
20583
  9
$LTSCALE
 40
1.0
  9
$ATTMODE
 70
1
  9
$TEXTSIZE
 40
2.5
  9
$TRACEWID
 40
1.0
  9
$TEXTSTYLE
  7
Standard
  9
$CLAYER
  8
0
  9
$CELTYPE
  6
ByLayer
  9
$CECOLOR
 62
256
  9
$DIMSCALE
 40
1.0
  9
$DIMASZ
 40
2.5
  9
$DIMEXO
 40
0.625
  9
$DIMDLI
 40
3.75
  9
$DIMRND
 40
0.0
  9
$DIMDLE
 40
0.0
  9
$DIMEXE
 40
1.25
  9
$DIMTP
 40
0.0
  9
$DIMTM
 40
0.0
  9
$DIMTXT
 40
2.5
  9
$DIMCEN
 40
2.5
  9
$DIMTSZ
 40
0.0
  9
$DIMTOL
 70
0
  9
$DIMLIM
 70
0
  9
$DIMTIH
 70
0
  9
$DIMTOH
 70
0
  9
$DIMSE1
 70
0
  9
$DIMSE2
 70
0
  9
$DIMTAD
 70
1
  9
$DIMZIN
 70
8
  9
$DIMBLK
  1

  9
$DIMASO
 70
1
  9
$DIMSHO
 70
1
  9
$DIMPOST
  1

  9
$DIMAPOST
  1

  9
$DIMALT
 70
0
  9
$DIMALTD
 70
3
  9
$DIMALTF
 40
0.03937007874
  9
$DIMLFAC
 40
1.0
  9
$DIMTOFL
 70
1
  9
$DIMTVP
 40
0.0
  9
$DIMTIX
 70
0
  9
$DIMSOXD
 70
0
  9
$DIMSAH
 70
0
  9
$DIMBLK1
  1

  9
$DIMBLK2
  1

  9
$DIMSTYLE
  2
ISO-25
  9
$DIMCLRD
 70
0
  9
$DIMCLRE
 70
0
  9
$DIMCLRT
 70
0
  9
$DIMTFAC
 40
1.0
  9
$DIMGAP
 40
0.625
  9
$COORDS
 70
1
  9
$ATTDIA
 70
0
  9
$ATTREQ
 70
1
  9
$HANDLING
 70
1
  9
$LUNITS
 70
2
  9
$LUPREC
 70
4
  9
$SKETCHINC
 40
1.0
  9
$FILLETRAD
 40
10.0
  9
$AUNITS
 70
0
  9
$AUPREC
 70
2
  9
$MENU
  1
.
  9
$ELEVATION
 40
0.0
  9
$PELEVATION
 40
0.0
  9
$THICKNESS
 40
0.0
  9
$LIMCHECK
 70
0
  9
$CHAMFERA
 40
0.0
  9
$CHAMFERB
 40
0.0
  9
$SKPOLY
 70
0
  9
$TDCREATE
 40
2460888.428275463
  9
$TDUPDATE
 40
2460888.428275463
  9
$TDINDWG
 40
0.0
  9
$TDUSRTIMER
 40
0.0
  9
$USRTIMER
 70
1
  9
$ANGBASE
 50
0.0
  9
$ANGDIR
 70
0
  9
$PDMODE
 70
0
  9
$PDSIZE
 40
0.0
  9
$PLINEWID
 40
0.0
  9
$SPLFRAME
 70
0
  9
$SPLINETYPE
 70
6
  9
$SPLINESEGS
 70
8
  9
$HANDSEED
  5
431
  9
$SURFTAB1
 70
6
  9
$SURFTAB2
 70
6
  9
$SURFTYPE
 70
6
  9
$SURFU
 70
6
  9
$SURFV
 70
6
  9
$UCSNAME
  2

  9
$UCSORG
 10
0.0
 20
0.0
 30
0.0
  9
$UCSXDIR
 10
1.0
 20
0.0
 30
0.0
  9
$UCSYDIR
 10
0.0
 20
1.0
 30
0.0
  9
$PUCSNAME
  2

  9
$PUCSORG
 10
0.0
 20
0.0
 30
0.0
  9
$PUCSXDIR
 10
1.0
 20
0.0
 30
0.0
  9
$PUCSYDIR
 10
0.0
 20
1.0
 30
0.0
  9
$USERI1
 70
0
  9
$USERI2
 70
0
  9
$USERI3
 70
0
  9
$USERI4
 70
0
  9
$USERI5
 70
0
  9
$USERR1
 40
0.0
  9
$USERR2
 40
0.0
  9
$USERR3
 40
0.0
  9
$USERR4
 40
0.0
  9
$USERR5
 40
0.0
  9
$WORLDVIEW
 70
1
  9
$SHADEDGE
 70
3
  9
$SHADEDIF
 70
70
  9
$TILEMODE
 70
1
  9
$MAXACTVP
 70
64
  9
$PLIMCHECK
 70
0
  9
$PEXTMIN
 10
1e+20
 20
1e+20
 30
1e+20
  9
$PEXTMAX
 10
-1e+20
 20
-1e+20
 30
-1e+20
  9
$PLIMMIN
 10
0.0
 20
0.0
  9
$PLIMMAX
 10
420.0
 20
297.0
  9
$UNITMODE
 70
0
  9
$VISRETAIN
 70
1
  9
$PLINEGEN
 70
0
  9
$PSLTSCALE
 70
1
  0
ENDSEC
  0
SECTION
  2
TABLES
  0
TABLE
  2
VPORT
 70
1
  0
VPORT
  5
23
  2
*Active
 70
0
 10
0.0
 20
0.0
 11
1.0
 21
1.0
 12
0.0
 22
0.0
 13
0.0
 23
0.0
 14
0.5
 24
0.5
 15
0.5
 25
0.5
 16
0.0
 26
0.0
 36
1.0
 17
0.0
 27
0.0
 37
0.0
 40
1000.0
 41
1.34
 42
50.0
 43
0.0
 44
0.0
 50
0.0
 51
0.0
 71
0
 72
1000
 73
1
 74
3
 75
0
 76
0
 77
0
 78
0
  0
ENDTAB
  0
TABLE
  2
LTYPE
 70
3
  0
LTYPE
  5
24
  2
ByBlock
 70
0
  3

 72
65
 73
0
 40
0.0
  0
LTYPE
  5
25
  2
ByLayer
 70
0
  3

 72
65
 73
0
 40
0.0
  0
LTYPE
  5
26
  2
Continuous
 70
0
  3

 72
65
 73
0
 40
0.0
  0
ENDTAB
  0
TABLE
  2
LAYER
 70
2
  0
LAYER
  5
27
  2
0
 70
0
 62
7
  6
Continuous
  0
LAYER
  5
28
  2
Defpoints
 70
0
 62
7
  6
Continuous
  0
ENDTAB
  0
TABLE
  2
STYLE
 70
1
  0
STYLE
  5
29
  2
Standard
 70
0
 40
0.0
 41
1.0
 50
0.0
 71
0
 42
2.5
  3
txt
  4

  0
ENDTAB
  0
TABLE
  2
VIEW
 70
0
  0
ENDTAB
  0
TABLE
  2
UCS
 70
0
  0
ENDTAB
  0
TABLE
  2
APPID
 70
3
  0
APPID
  5
2A
  2
ACAD
 70
0
  0
APPID
  5
42F
  2
HATCHBACKGROUNDCOLOR
 70
0
  0
APPID
  5
430
  2
EZDXF
 70
0
  0
ENDTAB
  0
TABLE
  2
DIMSTYLE
 70
1
  0
DIMSTYLE
105
2B
  2
Standard
 70
0
  3

  4

  5

  6

  7

 40
1.0
 41
2.5
 42
0.625
 43
3.75
 44
1.25
 45
0.0
 46
0.0
 47
0.0
 48
0.0
140
2.5
141
2.5
142
0.0
143
0.03937007874
144
1.0
145
0.0
146
1.0
147
0.625
 71
0
 72
0
 73
0
 74
0
 75
0
 76
0
 77
1
 78
8
170
0
171
3
172
1
173
0
174
0
175
0
176
0
177
0
178
0
  0
ENDTAB
  0
ENDSEC
  0
SECTION
  2
BLOCKS
  0
BLOCK
  5
18
  8
0
  2
$Model_Space
 70
0
 10
0.0
 20
0.0
 30
0.0
  3
$Model_Space
  1

1001
EZDXF
1000
CREATED_BY_EZDXF
1000
1.4.2 @ 2025-07-31T13:16:43.772273+00:00
1000
WRITTEN_BY_EZDXF
1000
1.4.2 @ 2025-07-31T13:16:43.898388+00:00
  0
ENDBLK
  5
19
  8
0
  0
BLOCK
  5
1C
  8
0
  2
$Paper_Space
 70
0
 10
0.0
 20
0.0
 30
0.0
  3
$Paper_Space
  1

  0
ENDBLK
  5
1D
  8
0
  0
ENDSEC
  0
SECTION
  2
ENTITIES
  0
LINE
  5
2D
  8
0
 10
2.275491
 20
0.436424
 30
0.0
 11
1.258698
 21
0.581431
 31
0.0
  0
LINE
  5
2E
  8
0
 10
2.275491
 20
0.436424
 30
0.0
 11
1.258698
 21
0.581431
 31
0.0
  0
LINE
  5
2F
  8
0
 10
0.629755
 20
1.152276
 30
0.0
 11
0.540018
 21
1.423305
 31
0.0
  0
LINE
  5
30
  8
0
 10
0.444352
 20
2.186677
 30
0.0
 11
0.466272
 21
3.217033
 31
0.0
  0
LINE
  5
31
  8
0
 10
0.485634
 20
3.985183
 30
0.0
 11
0.511634
 21
5.016691
 31
0.0
  0
LINE
  5
32
  8
0
 10
0.531
 20
5.785023
 30
0.0
 11
0.556982
 21
6.815848
 31
0.0
  0
LINE
  5
33
  8
0
 10
0.576347
 20
7.584117
 30
0.0
 11
0.559455
 21
8.615079
 31
0.0
  0
LINE
  5
34
  8
0
 10
0.535931
 20
9.383353
 30
0.0
 11
0.504361
 21
10.41439
 31
0.0
  0
LINE
  5
35
  8
0
 10
0.480828
 20
11.182919
 30
0.0
 11
0.449267
 21
12.213667
 31
0.0
  0
LINE
  5
36
  8
0
 10
0.446958
 20
12.982113
 30
0.0
 11
0.616925
 21
13.993204
 31
0.0
  0
LINE
  5
37
  8
0
 10
1.115972
 20
14.546527
 30
0.0
 11
2.118652
 21
14.745391
 31
0.0
  0
LINE
  5
38
  8
0
 10
2.887565
 20
14.731311
 30
0.0
 11
3.917527
 21
14.6955
 31
0.0
  0
LINE
  5
39
  8
0
 10
4.685643
 20
14.668794
 30
0.0
 11
5.716397
 21
14.632955
 31
0.0
  0
LINE
  5
3A
  8
0
 10
6.485458
 20
14.625888
 30
0.0
 11
7.516563
 21
14.627378
 31
0.0
  0
LINE
  5
3B
  8
0
 10
8.284948
 20
14.628488
 30
0.0
 11
9.316658
 21
14.629978
 31
0.0
  0
LINE
  5
3C
  8
0
 10
10.085106
 20
14.631088
 30
0.0
 11
11.116658
 21
14.632578
 31
0.0
  0
LINE
  5
3D
  8
0
 10
11.885202
 20
14.633688
 30
0.0
 11
12.91679
 21
14.635178
 31
0.0
  0
LINE
  5
3E
  8
0
 10
13.685298
 20
14.636288
 30
0.0
 11
14.62622
 21
14.546923
 31
0.0
  0
LINE
  5
3F
  8
0
 10
14.626211
 20
13.778474
 30
0.0
 11
14.6262
 21
12.747623
 31
0.0
  0
LINE
  5
40
  8
0
 10
14.626191
 20
11.977873
 30
0.0
 11
14.62618
 21
10.947394
 31
0.0
  0
LINE
  5
41
  8
0
 10
14.626171
 20
10.178545
 30
0.0
 11
14.62616
 21
9.147631
 31
0.0
  0
LINE
  5
42
  8
0
 10
14.626151
 20
8.378241
 30
0.0
 11
14.62614
 21
7.347534
 31
0.0
  0
LINE
  5
43
  8
0
 10
14.626131
 20
6.578733
 30
0.0
 11
14.635176
 21
5.547485
 31
0.0
  0
LINE
  5
44
  8
0
 10
14.66225
 20
4.77927
 30
0.0
 11
14.698572
 21
3.748683
 31
0.0
  0
LINE
  5
45
  8
0
 10
14.725653
 20
2.98029
 30
0.0
 11
14.710317
 21
1.951678
 31
0.0
  0
LINE
  5
46
  8
0
 10
14.581013
 20
1.197869
 30
0.0
 11
14.283806
 21
0.776761
 31
0.0
  0
LINE
  5
47
  8
0
 10
14.283806
 20
0.776761
 30
0.0
 11
13.831931
 21
0.55604
 31
0.0
  0
LINE
  5
48
  8
0
 10
13.831931
 20
0.55604
 30
0.0
 11
14.581013
 21
1.197869
 31
0.0
  0
LINE
  5
49
  8
0
 10
13.070685
 20
0.451824
 30
0.0
 11
12.803202
 21
0.449653
 31
0.0
  0
LINE
  5
4A
  8
0
 10
12.803202
 20
0.449653
 30
0.0
 11
12.539823
 21
0.455969
 31
0.0
  0
LINE
  5
4B
  8
0
 10
12.539823
 20
0.455969
 30
0.0
 11
12.04056
 21
0.467941
 31
0.0
  0
LINE
  5
4C
  8
0
 10
11.272205
 20
0.486366
 30
0.0
 11
10.240849
 21
0.511098
 31
0.0
  0
LINE
  5
4D
  8
0
 10
9.472493
 20
0.529523
 30
0.0
 11
8.44165
 21
0.554243
 31
0.0
  0
LINE
  5
4E
  8
0
 10
7.672782
 20
0.57268
 30
0.0
 11
6.64211
 21
0.565115
 31
0.0
  0
LINE
  5
4F
  8
0
 10
5.874183
 20
0.540811
 30
0.0
 11
4.84299
 21
0.508176
 31
0.0
  0
LINE
  5
50
  8
0
 10
4.07461
 20
0.483858
 30
0.0
 11
3.043887
 21
0.451237
 31
0.0
  0
LINE
  5
51
  8
0
 10
0.592849
 20
1.254
 30
0.0
 11
0.592849
 21
1.278775
 31
0.0
  0
LINE
  5
52
  8
0
 10
0.592849
 20
1.254
 30
0.0
 11
0.592849
 21
1.278775
 31
0.0
  0
LINE
  5
53
  8
0
 10
0.592849
 20
1.563384
 30
0.0
 11
0.592849
 21
2.09912
 31
0.0
  0
LINE
  5
54
  8
0
 10
0.592849
 20
2.09912
 30
0.0
 11
0.592849
 21
2.5945
 31
0.0
  0
LINE
  5
55
  8
0
 10
0.592849
 20
3.3635
 30
0.0
 11
0.592849
 21
3.8995
 31
0.0
  0
LINE
  5
56
  8
0
 10
0.592849
 20
3.8995
 30
0.0
 11
0.592849
 21
4.3945
 31
0.0
  0
LINE
  5
57
  8
0
 10
0.592849
 20
5.1635
 30
0.0
 11
0.592849
 21
5.6995
 31
0.0
  0
LINE
  5
58
  8
0
 10
0.592849
 20
5.6995
 30
0.0
 11
0.592849
 21
6.1945
 31
0.0
  0
LINE
  5
59
  8
0
 10
0.592849
 20
6.9635
 30
0.0
 11
0.592849
 21
7.4995
 31
0.0
  0
LINE
  5
5A
  8
0
 10
0.592849
 20
7.4995
 30
0.0
 11
0.592849
 21
7.9945
 31
0.0
  0
LINE
  5
5B
  8
0
 10
0.592849
 20
8.7635
 30
0.0
 11
0.592849
 21
9.2995
 31
0.0
  0
LINE
  5
5C
  8
0
 10
0.592849
 20
9.2995
 30
0.0
 11
0.592849
 21
9.7945
 31
0.0
  0
LINE
  5
5D
  8
0
 10
0.592849
 20
10.5635
 30
0.0
 11
0.592849
 21
11.0995
 31
0.0
  0
LINE
  5
5E
  8
0
 10
0.592849
 20
11.0995
 30
0.0
 11
0.592849
 21
11.5945
 31
0.0
  0
LINE
  5
5F
  8
0
 10
0.592849
 20
12.3635
 30
0.0
 11
0.592849
 21
12.8585
 31
0.0
  0
LINE
  5
60
  8
0
 10
0.592849
 20
12.8585
 30
0.0
 11
0.592849
 21
13.3945
 31
0.0
  0
LINE
  5
61
  8
0
 10
1.092849
 20
1.07744
 30
0.0
 11
1.092849
 21
1.4015
 31
0.0
  0
LINE
  5
62
  8
0
 10
1.092849
 20
1.07744
 30
0.0
 11
1.092849
 21
1.4015
 31
0.0
  0
LINE
  5
63
  8
0
 10
1.092849
 20
1.4015
 30
0.0
 11
1.092849
 21
1.40217
 31
0.0
  0
LINE
  5
64
  8
0
 10
1.092849
 20
2.1705
 30
0.0
 11
1.092849
 21
2.7065
 31
0.0
  0
LINE
  5
65
  8
0
 10
1.092849
 20
2.7065
 30
0.0
 11
1.092849
 21
3.2015
 31
0.0
  0
LINE
  5
66
  8
0
 10
1.092849
 20
3.2015
 30
0.0
 11
1.092849
 21
3.20217
 31
0.0
  0
LINE
  5
67
  8
0
 10
1.092849
 20
3.9705
 30
0.0
 11
1.092849
 21
4.4655
 31
0.0
  0
LINE
  5
68
  8
0
 10
1.092849
 20
4.4655
 30
0.0
 11
1.092849
 21
5.0015
 31
0.0
  0
LINE
  5
69
  8
0
 10
1.092849
 20
5.0015
 30
0.0
 11
1.092849
 21
5.00217
 31
0.0
  0
LINE
  5
6A
  8
0
 10
1.092849
 20
5.7705
 30
0.0
 11
1.092849
 21
6.3065
 31
0.0
  0
LINE
  5
6B
  8
0
 10
1.092849
 20
6.3065
 30
0.0
 11
1.092849
 21
6.8015
 31
0.0
  0
LINE
  5
6C
  8
0
 10
1.092849
 20
6.8015
 30
0.0
 11
1.092849
 21
6.80217
 31
0.0
  0
LINE
  5
6D
  8
0
 10
1.092849
 20
7.5705
 30
0.0
 11
1.092849
 21
8.0655
 31
0.0
  0
LINE
  5
6E
  8
0
 10
1.092849
 20
8.0655
 30
0.0
 11
1.092849
 21
8.6015
 31
0.0
  0
LINE
  5
6F
  8
0
 10
1.092849
 20
8.6015
 30
0.0
 11
1.092849
 21
8.60217
 31
0.0
  0
LINE
  5
70
  8
0
 10
1.092849
 20
9.3705
 30
0.0
 11
1.092849
 21
9.9065
 31
0.0
  0
LINE
  5
71
  8
0
 10
1.092849
 20
9.9065
 30
0.0
 11
1.092849
 21
10.4015
 31
0.0
  0
LINE
  5
72
  8
0
 10
1.092849
 20
10.4015
 30
0.0
 11
1.092849
 21
10.40217
 31
0.0
  0
LINE
  5
73
  8
0
 10
1.092849
 20
11.1705
 30
0.0
 11
1.092849
 21
11.7065
 31
0.0
  0
LINE
  5
74
  8
0
 10
1.092849
 20
11.7065
 30
0.0
 11
1.092849
 21
12.2015
 31
0.0
  0
LINE
  5
75
  8
0
 10
1.092849
 20
12.2015
 30
0.0
 11
1.092849
 21
12.20217
 31
0.0
  0
LINE
  5
76
  8
0
 10
1.092849
 20
12.9705
 30
0.0
 11
1.092849
 21
13.5065
 31
0.0
  0
LINE
  5
77
  8
0
 10
1.092849
 20
13.5065
 30
0.0
 11
1.092849
 21
14.0015
 31
0.0
  0
LINE
  5
78
  8
0
 10
1.092849
 20
14.0015
 30
0.0
 11
1.092849
 21
14.00217
 31
0.0
  0
LINE
  5
79
  8
0
 10
1.592849
 20
1.13447
 30
0.0
 11
1.592849
 21
1.5605
 31
0.0
  0
LINE
  5
7A
  8
0
 10
1.592849
 20
1.13447
 30
0.0
 11
1.592849
 21
1.5605
 31
0.0
  0
LINE
  5
7B
  8
0
 10
1.592849
 20
2.3295
 30
0.0
 11
1.592849
 21
2.8655
 31
0.0
  0
LINE
  5
7C
  8
0
 10
1.592849
 20
2.8655
 30
0.0
 11
1.592849
 21
3.3605
 31
0.0
  0
LINE
  5
7D
  8
0
 10
1.592849
 20
4.1295
 30
0.0
 11
1.592849
 21
4.6655
 31
0.0
  0
LINE
  5
7E
  8
0
 10
1.592849
 20
4.6655
 30
0.0
 11
1.592849
 21
5.1605
 31
0.0
  0
LINE
  5
7F
  8
0
 10
1.592849
 20
5.9295
 30
0.0
 11
1.592849
 21
6.4655
 31
0.0
  0
LINE
  5
80
  8
0
 10
1.592849
 20
6.4655
 30
0.0
 11
1.592849
 21
6.9605
 31
0.0
  0
LINE
  5
81
  8
0
 10
1.592849
 20
7.7295
 30
0.0
 11
1.592849
 21
8.2655
 31
0.0
  0
LINE
  5
82
  8
0
 10
1.592849
 20
8.2655
 30
0.0
 11
1.592849
 21
8.7605
 31
0.0
  0
LINE
  5
83
  8
0
 10
1.592849
 20
9.5295
 30
0.0
 11
1.592849
 21
10.0655
 31
0.0
  0
LINE
  5
84
  8
0
 10
1.592849
 20
10.0655
 30
0.0
 11
1.592849
 21
10.5605
 31
0.0
  0
LINE
  5
85
  8
0
 10
1.592849
 20
11.3295
 30
0.0
 11
1.592849
 21
11.8655
 31
0.0
  0
LINE
  5
86
  8
0
 10
1.592849
 20
11.8655
 30
0.0
 11
1.592849
 21
12.3605
 31
0.0
  0
LINE
  5
87
  8
0
 10
1.592849
 20
13.1295
 30
0.0
 11
1.592849
 21
13.6245
 31
0.0
  0
LINE
  5
88
  8
0
 10
1.592849
 20
13.6245
 30
0.0
 11
1.592849
 21
14.1605
 31
0.0
  0
LINE
  5
89
  8
0
 10
2.092849
 20
1.14749
 30
0.0
 11
2.092849
 21
1.6085
 31
0.0
  0
LINE
  5
8A
  8
0
 10
2.092849
 20
1.14749
 30
0.0
 11
2.092849
 21
1.6085
 31
0.0
  0
LINE
  5
8B
  8
0
 10
2.092849
 20
1.6085
 30
0.0
 11
2.092849
 21
1.60917
 31
0.0
  0
LINE
  5
8C
  8
0
 10
2.092849
 20
2.3775
 30
0.0
 11
2.092849
 21
2.9135
 31
0.0
  0
LINE
  5
8D
  8
0
 10
2.092849
 20
2.9135
 30
0.0
 11
2.092849
 21
3.4085
 31
0.0
  0
LINE
  5
8E
  8
0
 10
2.092849
 20
3.4085
 30
0.0
 11
2.092849
 21
3.40917
 31
0.0
  0
LINE
  5
8F
  8
0
 10
2.092849
 20
4.1775
 30
0.0
 11
2.092849
 21
4.7135
 31
0.0
  0
LINE
  5
90
  8
0
 10
2.092849
 20
4.7135
 30
0.0
 11
2.092849
 21
5.2085
 31
0.0
  0
LINE
  5
91
  8
0
 10
2.092849
 20
5.2085
 30
0.0
 11
2.092849
 21
5.20917
 31
0.0
  0
LINE
  5
92
  8
0
 10
2.092849
 20
5.9775
 30
0.0
 11
2.092849
 21
6.5135
 31
0.0
  0
LINE
  5
93
  8
0
 10
2.092849
 20
6.5135
 30
0.0
 11
2.092849
 21
7.0085
 31
0.0
  0
LINE
  5
94
  8
0
 10
2.092849
 20
7.0085
 30
0.0
 11
2.092849
 21
7.00917
 31
0.0
  0
LINE
  5
95
  8
0
 10
2.092849
 20
7.7775
 30
0.0
 11
2.092849
 21
8.3135
 31
0.0
  0
LINE
  5
96
  8
0
 10
2.092849
 20
8.3135
 30
0.0
 11
2.092849
 21
8.8085
 31
0.0
  0
LINE
  5
97
  8
0
 10
2.092849
 20
8.8085
 30
0.0
 11
2.092849
 21
8.80917
 31
0.0
  0
LINE
  5
98
  8
0
 10
2.092849
 20
9.5775
 30
0.0
 11
2.092849
 21
10.1135
 31
0.0
  0
LINE
  5
99
  8
0
 10
2.092849
 20
10.1135
 30
0.0
 11
2.092849
 21
10.6085
 31
0.0
  0
LINE
  5
9A
  8
0
 10
2.092849
 20
10.6085
 30
0.0
 11
2.092849
 21
10.60917
 31
0.0
  0
LINE
  5
9B
  8
0
 10
2.092849
 20
11.3775
 30
0.0
 11
2.092849
 21
11.9135
 31
0.0
  0
LINE
  5
9C
  8
0
 10
2.092849
 20
11.9135
 30
0.0
 11
2.092849
 21
12.4085
 31
0.0
  0
LINE
  5
9D
  8
0
 10
2.092849
 20
12.4085
 30
0.0
 11
2.092849
 21
12.40917
 31
0.0
  0
LINE
  5
9E
  8
0
 10
2.092849
 20
13.1775
 30
0.0
 11
2.092849
 21
13.6725
 31
0.0
  0
LINE
  5
9F
  8
0
 10
2.092849
 20
13.6725
 30
0.0
 11
2.092849
 21
14.2085
 31
0.0
  0
LINE
  5
A0
  8
0
 10
2.092849
 20
14.2085
 30
0.0
 11
2.092849
 21
14.20917
 31
0.0
  0
LINE
  5
A1
  8
0
 10
2.592849
 20
1.14385
 30
0.0
 11
2.592849
 21
1.6075
 31
0.0
  0
LINE
  5
A2
  8
0
 10
2.592849
 20
1.14385
 30
0.0
 11
2.592849
 21
1.6075
 31
0.0
  0
LINE
  5
A3
  8
0
 10
2.592849
 20
2.3755
 30
0.0
 11
2.592849
 21
2.37617
 31
0.0
  0
LINE
  5
A4
  8
0
 10
2.592849
 20
2.37617
 30
0.0
 11
2.592849
 21
2.8715
 31
0.0
  0
LINE
  5
A5
  8
0
 10
2.592849
 20
2.8715
 30
0.0
 11
2.592849
 21
3.4075
 31
0.0
  0
LINE
  5
A6
  8
0
 10
2.592849
 20
4.1755
 30
0.0
 11
2.592849
 21
4.17617
 31
0.0
  0
LINE
  5
A7
  8
0
 10
2.592849
 20
4.17617
 30
0.0
 11
2.592849
 21
4.6715
 31
0.0
  0
LINE
  5
A8
  8
0
 10
2.592849
 20
4.6715
 30
0.0
 11
2.592849
 21
5.2075
 31
0.0
  0
LINE
  5
A9
  8
0
 10
2.592849
 20
5.9755
 30
0.0
 11
2.592849
 21
5.97617
 31
0.0
  0
LINE
  5
AA
  8
0
 10
2.592849
 20
5.97617
 30
0.0
 11
2.592849
 21
6.4715
 31
0.0
  0
LINE
  5
AB
  8
0
 10
2.592849
 20
6.4715
 30
0.0
 11
2.592849
 21
7.0075
 31
0.0
  0
LINE
  5
AC
  8
0
 10
2.592849
 20
7.7755
 30
0.0
 11
2.592849
 21
7.77617
 31
0.0
  0
LINE
  5
AD
  8
0
 10
2.592849
 20
7.77617
 30
0.0
 11
2.592849
 21
8.2715
 31
0.0
  0
LINE
  5
AE
  8
0
 10
2.592849
 20
8.2715
 30
0.0
 11
2.592849
 21
8.8075
 31
0.0
  0
LINE
  5
AF
  8
0
 10
2.592849
 20
9.5755
 30
0.0
 11
2.592849
 21
9.57617
 31
0.0
  0
LINE
  5
B0
  8
0
 10
2.592849
 20
9.57617
 30
0.0
 11
2.592849
 21
10.0715
 31
0.0
  0
LINE
  5
B1
  8
0
 10
2.592849
 20
10.0715
 30
0.0
 11
2.592849
 21
10.6075
 31
0.0
  0
LINE
  5
B2
  8
0
 10
2.592849
 20
11.3755
 30
0.0
 11
2.592849
 21
11.37617
 31
0.0
  0
LINE
  5
B3
  8
0
 10
2.592849
 20
11.37617
 30
0.0
 11
2.592849
 21
11.8715
 31
0.0
  0
LINE
  5
B4
  8
0
 10
2.592849
 20
11.8715
 30
0.0
 11
2.592849
 21
12.4075
 31
0.0
  0
LINE
  5
B5
  8
0
 10
2.592849
 20
13.1755
 30
0.0
 11
2.592849
 21
13.17617
 31
0.0
  0
LINE
  5
B6
  8
0
 10
2.592849
 20
13.17617
 30
0.0
 11
2.592849
 21
13.6715
 31
0.0
  0
LINE
  5
B7
  8
0
 10
2.592849
 20
13.6715
 30
0.0
 11
2.592849
 21
14.2075
 31
0.0
  0
LINE
  5
B8
  8
0
 10
3.092849
 20
1.13707
 30
0.0
 11
3.092849
 21
1.5895
 31
0.0
  0
LINE
  5
B9
  8
0
 10
3.092849
 20
1.13707
 30
0.0
 11
3.092849
 21
1.5895
 31
0.0
  0
LINE
  5
BA
  8
0
 10
3.092849
 20
2.3585
 30
0.0
 11
3.092849
 21
2.8945
 31
0.0
  0
LINE
  5
BB
  8
0
 10
3.092849
 20
2.8945
 30
0.0
 11
3.092849
 21
3.3895
 31
0.0
  0
LINE
  5
BC
  8
0
 10
3.092849
 20
4.1585
 30
0.0
 11
3.092849
 21
4.6945
 31
0.0
  0
LINE
  5
BD
  8
0
 10
3.092849
 20
4.6945
 30
0.0
 11
3.092849
 21
5.1895
 31
0.0
  0
LINE
  5
BE
  8
0
 10
3.092849
 20
5.9585
 30
0.0
 11
3.092849
 21
6.4945
 31
0.0
  0
LINE
  5
BF
  8
0
 10
3.092849
 20
6.4945
 30
0.0
 11
3.092849
 21
6.9895
 31
0.0
  0
LINE
  5
C0
  8
0
 10
3.092849
 20
7.7585
 30
0.0
 11
3.092849
 21
8.2945
 31
0.0
  0
LINE
  5
C1
  8
0
 10
3.092849
 20
8.2945
 30
0.0
 11
3.092849
 21
8.7895
 31
0.0
  0
LINE
  5
C2
  8
0
 10
3.092849
 20
9.5585
 30
0.0
 11
3.092849
 21
10.0945
 31
0.0
  0
LINE
  5
C3
  8
0
 10
3.092849
 20
10.0945
 30
0.0
 11
3.092849
 21
10.5895
 31
0.0
  0
LINE
  5
C4
  8
0
 10
3.092849
 20
11.3585
 30
0.0
 11
3.092849
 21
11.8945
 31
0.0
  0
LINE
  5
C5
  8
0
 10
3.092849
 20
11.8945
 30
0.0
 11
3.092849
 21
12.3895
 31
0.0
  0
LINE
  5
C6
  8
0
 10
3.092849
 20
13.1585
 30
0.0
 11
3.092849
 21
13.6535
 31
0.0
  0
LINE
  5
C7
  8
0
 10
3.092849
 20
13.6535
 30
0.0
 11
3.092849
 21
14.1895
 31
0.0
  0
LINE
  5
C8
  8
0
 10
3.592849
 20
1.13096
 30
0.0
 11
3.592849
 21
1.5725
 31
0.0
  0
LINE
  5
C9
  8
0
 10
3.592849
 20
1.13096
 30
0.0
 11
3.592849
 21
1.5725
 31
0.0
  0
LINE
  5
CA
  8
0
 10
3.592849
 20
2.3415
 30
0.0
 11
3.592849
 21
2.8775
 31
0.0
  0
LINE
  5
CB
  8
0
 10
3.592849
 20
2.8775
 30
0.0
 11
3.592849
 21
3.3725
 31
0.0
  0
LINE
  5
CC
  8
0
 10
3.592849
 20
4.1415
 30
0.0
 11
3.592849
 21
4.6775
 31
0.0
  0
LINE
  5
CD
  8
0
 10
3.592849
 20
4.6775
 30
0.0
 11
3.592849
 21
5.1725
 31
0.0
  0
LINE
  5
CE
  8
0
 10
3.592849
 20
5.9415
 30
0.0
 11
3.592849
 21
6.4365
 31
0.0
  0
LINE
  5
CF
  8
0
 10
3.592849
 20
6.4365
 30
0.0
 11
3.592849
 21
6.9725
 31
0.0
  0
LINE
  5
D0
  8
0
 10
3.592849
 20
7.7415
 30
0.0
 11
3.592849
 21
8.2365
 31
0.0
  0
LINE
  5
D1
  8
0
 10
3.592849
 20
8.2365
 30
0.0
 11
3.592849
 21
8.7725
 31
0.0
  0
LINE
  5
D2
  8
0
 10
3.592849
 20
9.5415
 30
0.0
 11
3.592849
 21
10.0775
 31
0.0
  0
LINE
  5
D3
  8
0
 10
3.592849
 20
10.0775
 30
0.0
 11
3.592849
 21
10.5725
 31
0.0
  0
LINE
  5
D4
  8
0
 10
3.592849
 20
11.3415
 30
0.0
 11
3.592849
 21
11.8775
 31
0.0
  0
LINE
  5
D5
  8
0
 10
3.592849
 20
11.8775
 30
0.0
 11
3.592849
 21
12.3725
 31
0.0
  0
LINE
  5
D6
  8
0
 10
3.592849
 20
13.1415
 30
0.0
 11
3.592849
 21
13.6775
 31
0.0
  0
LINE
  5
D7
  8
0
 10
3.592849
 20
13.6775
 30
0.0
 11
3.592849
 21
14.1725
 31
0.0
  0
LINE
  5
D8
  8
0
 10
4.092849
 20
1.12385
 30
0.0
 11
4.092849
 21
1.5545
 31
0.0
  0
LINE
  5
D9
  8
0
 10
4.092849
 20
1.12385
 30
0.0
 11
4.092849
 21
1.5545
 31
0.0
  0
LINE
  5
DA
  8
0
 10
4.092849
 20
1.5545
 30
0.0
 11
4.092849
 21
1.55517
 31
0.0
  0
LINE
  5
DB
  8
0
 10
4.092849
 20
2.3235
 30
0.0
 11
4.092849
 21
2.8595
 31
0.0
  0
LINE
  5
DC
  8
0
 10
4.092849
 20
2.8595
 30
0.0
 11
4.092849
 21
3.3545
 31
0.0
  0
LINE
  5
DD
  8
0
 10
4.092849
 20
3.3545
 30
0.0
 11
4.092849
 21
3.35517
 31
0.0
  0
LINE
  5
DE
  8
0
 10
4.092849
 20
4.1235
 30
0.0
 11
4.092849
 21
4.6595
 31
0.0
  0
LINE
  5
DF
  8
0
 10
4.092849
 20
4.6595
 30
0.0
 11
4.092849
 21
5.1545
 31
0.0
  0
LINE
  5
E0
  8
0
 10
4.092849
 20
5.1545
 30
0.0
 11
4.092849
 21
5.15517
 31
0.0
  0
LINE
  5
E1
  8
0
 10
4.092849
 20
5.9235
 30
0.0
 11
4.092849
 21
6.4595
 31
0.0
  0
LINE
  5
E2
  8
0
 10
4.092849
 20
6.4595
 30
0.0
 11
4.092849
 21
6.9545
 31
0.0
  0
LINE
  5
E3
  8
0
 10
4.092849
 20
6.9545
 30
0.0
 11
4.092849
 21
6.95517
 31
0.0
  0
LINE
  5
E4
  8
0
 10
4.092849
 20
7.7235
 30
0.0
 11
4.092849
 21
8.2595
 31
0.0
  0
LINE
  5
E5
  8
0
 10
4.092849
 20
8.2595
 30
0.0
 11
4.092849
 21
8.7545
 31
0.0
  0
LINE
  5
E6
  8
0
 10
4.092849
 20
8.7545
 30
0.0
 11
4.092849
 21
8.75517
 31
0.0
  0
LINE
  5
E7
  8
0
 10
4.092849
 20
9.5235
 30
0.0
 11
4.092849
 21
10.0595
 31
0.0
  0
LINE
  5
E8
  8
0
 10
4.092849
 20
10.0595
 30
0.0
 11
4.092849
 21
10.5545
 31
0.0
  0
LINE
  5
E9
  8
0
 10
4.092849
 20
10.5545
 30
0.0
 11
4.092849
 21
10.55517
 31
0.0
  0
LINE
  5
EA
  8
0
 10
4.092849
 20
11.3235
 30
0.0
 11
4.092849
 21
11.8595
 31
0.0
  0
LINE
  5
EB
  8
0
 10
4.092849
 20
11.8595
 30
0.0
 11
4.092849
 21
12.3545
 31
0.0
  0
LINE
  5
EC
  8
0
 10
4.092849
 20
12.3545
 30
0.0
 11
4.092849
 21
12.35517
 31
0.0
  0
LINE
  5
ED
  8
0
 10
4.092849
 20
13.1235
 30
0.0
 11
4.092849
 21
13.6595
 31
0.0
  0
LINE
  5
EE
  8
0
 10
4.092849
 20
13.6595
 30
0.0
 11
4.092849
 21
14.1545
 31
0.0
  0
LINE
  5
EF
  8
0
 10
4.092849
 20
14.1545
 30
0.0
 11
4.092849
 21
14.15517
 31
0.0
  0
LINE
  5
F0
  8
0
 10
4.592849
 20
1.11774
 30
0.0
 11
4.592849
 21
1.5375
 31
0.0
  0
LINE
  5
F1
  8
0
 10
4.592849
 20
1.11774
 30
0.0
 11
4.592849
 21
1.5375
 31
0.0
  0
LINE
  5
F2
  8
0
 10
4.592849
 20
2.3065
 30
0.0
 11
4.592849
 21
2.8425
 31
0.0
  0
LINE
  5
F3
  8
0
 10
4.592849
 20
2.8425
 30
0.0
 11
4.592849
 21
3.3375
 31
0.0
  0
LINE
  5
F4
  8
0
 10
4.592849
 20
4.1065
 30
0.0
 11
4.592849
 21
4.6015
 31
0.0
  0
LINE
  5
F5
  8
0
 10
4.592849
 20
4.6015
 30
0.0
 11
4.592849
 21
5.1375
 31
0.0
  0
LINE
  5
F6
  8
0
 10
4.592849
 20
5.9065
 30
0.0
 11
4.592849
 21
6.4015
 31
0.0
  0
LINE
  5
F7
  8
0
 10
4.592849
 20
6.4015
 30
0.0
 11
4.592849
 21
6.9375
 31
0.0
  0
LINE
  5
F8
  8
0
 10
4.592849
 20
7.7065
 30
0.0
 11
4.592849
 21
8.2015
 31
0.0
  0
LINE
  5
F9
  8
0
 10
4.592849
 20
8.2015
 30
0.0
 11
4.592849
 21
8.7375
 31
0.0
  0
LINE
  5
FA
  8
0
 10
4.592849
 20
9.5065
 30
0.0
 11
4.592849
 21
10.0425
 31
0.0
  0
LINE
  5
FB
  8
0
 10
4.592849
 20
10.0425
 30
0.0
 11
4.592849
 21
10.5375
 31
0.0
  0
LINE
  5
FC
  8
0
 10
4.592849
 20
11.3065
 30
0.0
 11
4.592849
 21
11.8425
 31
0.0
  0
LINE
  5
FD
  8
0
 10
4.592849
 20
11.8425
 30
0.0
 11
4.592849
 21
12.3375
 31
0.0
  0
LINE
  5
FE
  8
0
 10
4.592849
 20
13.1065
 30
0.0
 11
4.592849
 21
13.6425
 31
0.0
  0
LINE
  5
FF
  8
0
 10
4.592849
 20
13.6425
 30
0.0
 11
4.592849
 21
14.1375
 31
0.0
  0
LINE
  5
100
  8
0
 10
5.092849
 20
1.11163
 30
0.0
 11
5.092849
 21
1.5205
 31
0.0
  0
LINE
  5
101
  8
0
 10
5.092849
 20
1.11163
 30
0.0
 11
5.092849
 21
1.5205
 31
0.0
  0
LINE
  5
102
  8
0
 10
5.092849
 20
2.2895
 30
0.0
 11
5.092849
 21
2.8255
 31
0.0
  0
LINE
  5
103
  8
0
 10
5.092849
 20
2.8255
 30
0.0
 11
5.092849
 21
3.3205
 31
0.0
  0
LINE
  5
104
  8
0
 10
5.092849
 20
4.0895
 30
0.0
 11
5.092849
 21
4.6255
 31
0.0
  0
LINE
  5
105
  8
0
 10
5.092849
 20
4.6255
 30
0.0
 11
5.092849
 21
5.1205
 31
0.0
  0
LINE
  5
106
  8
0
 10
5.092849
 20
5.8895
 30
0.0
 11
5.092849
 21
6.4255
 31
0.0
  0
LINE
  5
107
  8
0
 10
5.092849
 20
6.4255
 30
0.0
 11
5.092849
 21
6.9205
 31
0.0
  0
LINE
  5
108
  8
0
 10
5.092849
 20
7.6895
 30
0.0
 11
5.092849
 21
8.1845
 31
0.0
  0
LINE
  5
109
  8
0
 10
5.092849
 20
8.1845
 30
0.0
 11
5.092849
 21
8.7205
 31
0.0
  0
LINE
  5
10A
  8
0
 10
5.092849
 20
9.4895
 30
0.0
 11
5.092849
 21
10.0255
 31
0.0
  0
LINE
  5
10B
  8
0
 10
5.092849
 20
10.0255
 30
0.0
 11
5.092849
 21
10.5205
 31
0.0
  0
LINE
  5
10C
  8
0
 10
5.092849
 20
11.2895
 30
0.0
 11
5.092849
 21
11.8255
 31
0.0
  0
LINE
  5
10D
  8
0
 10
5.092849
 20
11.8255
 30
0.0
 11
5.092849
 21
12.3205
 31
0.0
  0
LINE
  5
10E
  8
0
 10
5.092849
 20
13.0895
 30
0.0
 11
5.092849
 21
13.6255
 31
0.0
  0
LINE
  5
10F
  8
0
 10
5.092849
 20
13.6255
 30
0.0
 11
5.092849
 21
14.1205
 31
0.0
  0
LINE
  5
110
  8
0
 10
5.592849
 20
1.10485
 30
0.0
 11
5.592849
 21
1.5025
 31
0.0
  0
LINE
  5
111
  8
0
 10
5.592849
 20
1.10485
 30
0.0
 11
5.592849
 21
1.5025
 31
0.0
  0
LINE
  5
112
  8
0
 10
5.592849
 20
2.2715
 30
0.0
 11
5.592849
 21
2.7665
 31
0.0
  0
LINE
  5
113
  8
0
 10
5.592849
 20
2.7665
 30
0.0
 11
5.592849
 21
3.3025
 31
0.0
  0
LINE
  5
114
  8
0
 10
5.592849
 20
4.0715
 30
0.0
 11
5.592849
 21
4.5665
 31
0.0
  0
LINE
  5
115
  8
0
 10
5.592849
 20
4.5665
 30
0.0
 11
5.592849
 21
5.1025
 31
0.0
  0
LINE
  5
116
  8
0
 10
5.592849
 20
5.8715
 30
0.0
 11
5.592849
 21
6.4075
 31
0.0
  0
LINE
  5
117
  8
0
 10
5.592849
 20
6.4075
 30
0.0
 11
5.592849
 21
6.9025
 31
0.0
  0
LINE
  5
118
  8
0
 10
5.592849
 20
7.6715
 30
0.0
 11
5.592849
 21
8.1665
 31
0.0
  0
LINE
  5
119
  8
0
 10
5.592849
 20
8.1665
 30
0.0
 11
5.592849
 21
8.7025
 31
0.0
  0
LINE
  5
11A
  8
0
 10
5.592849
 20
9.4715
 30
0.0
 11
5.592849
 21
10.0075
 31
0.0
  0
LINE
  5
11B
  8
0
 10
5.592849
 20
10.0075
 30
0.0
 11
5.592849
 21
10.5025
 31
0.0
  0
LINE
  5
11C
  8
0
 10
5.592849
 20
11.2715
 30
0.0
 11
5.592849
 21
11.8075
 31
0.0
  0
LINE
  5
11D
  8
0
 10
5.592849
 20
11.8075
 30
0.0
 11
5.592849
 21
12.3025
 31
0.0
  0
LINE
  5
11E
  8
0
 10
5.592849
 20
13.0715
 30
0.0
 11
5.592849
 21
13.6075
 31
0.0
  0
LINE
  5
11F
  8
0
 10
5.592849
 20
13.6075
 30
0.0
 11
5.592849
 21
14.1025
 31
0.0
  0
LINE
  5
120
  8
0
 10
6.092849
 20
1.10209
 30
0.0
 11
6.092849
 21
1.4905
 31
0.0
  0
LINE
  5
121
  8
0
 10
6.092849
 20
1.10209
 30
0.0
 11
6.092849
 21
1.4905
 31
0.0
  0
LINE
  5
122
  8
0
 10
6.092849
 20
2.2595
 30
0.0
 11
6.092849
 21
2.7545
 31
0.0
  0
LINE
  5
123
  8
0
 10
6.092849
 20
2.7545
 30
0.0
 11
6.092849
 21
3.2905
 31
0.0
  0
LINE
  5
124
  8
0
 10
6.092849
 20
4.0595
 30
0.0
 11
6.092849
 21
4.5955
 31
0.0
  0
LINE
  5
125
  8
0
 10
6.092849
 20
4.5955
 30
0.0
 11
6.092849
 21
5.0905
 31
0.0
  0
LINE
  5
126
  8
0
 10
6.092849
 20
5.8595
 30
0.0
 11
6.092849
 21
6.3545
 31
0.0
  0
LINE
  5
127
  8
0
 10
6.092849
 20
6.3545
 30
0.0
 11
6.092849
 21
6.8905
 31
0.0
  0
LINE
  5
128
  8
0
 10
6.092849
 20
7.6595
 30
0.0
 11
6.092849
 21
8.1545
 31
0.0
  0
LINE
  5
129
  8
0
 10
6.092849
 20
8.1545
 30
0.0
 11
6.092849
 21
8.6905
 31
0.0
  0
LINE
  5
12A
  8
0
 10
6.092849
 20
9.4595
 30
0.0
 11
6.092849
 21
9.9545
 31
0.0
  0
LINE
  5
12B
  8
0
 10
6.092849
 20
9.9545
 30
0.0
 11
6.092849
 21
10.4905
 31
0.0
  0
LINE
  5
12C
  8
0
 10
6.092849
 20
11.2595
 30
0.0
 11
6.092849
 21
11.7955
 31
0.0
  0
LINE
  5
12D
  8
0
 10
6.092849
 20
11.7955
 30
0.0
 11
6.092849
 21
12.2905
 31
0.0
  0
LINE
  5
12E
  8
0
 10
6.092849
 20
13.0595
 30
0.0
 11
6.092849
 21
13.5955
 31
0.0
  0
LINE
  5
12F
  8
0
 10
6.092849
 20
13.5955
 30
0.0
 11
6.092849
 21
14.0905
 31
0.0
  0
LINE
  5
130
  8
0
 10
6.592849
 20
1.10771
 30
0.0
 11
6.592849
 21
1.4915
 31
0.0
  0
LINE
  5
131
  8
0
 10
6.592849
 20
1.10771
 30
0.0
 11
6.592849
 21
1.4915
 31
0.0
  0
LINE
  5
132
  8
0
 10
6.592849
 20
2.2605
 30
0.0
 11
6.592849
 21
2.7965
 31
0.0
  0
LINE
  5
133
  8
0
 10
6.592849
 20
2.7965
 30
0.0
 11
6.592849
 21
3.2915
 31
0.0
  0
LINE
  5
134
  8
0
 10
6.592849
 20
4.0605
 30
0.0
 11
6.592849
 21
4.5965
 31
0.0
  0
LINE
  5
135
  8
0
 10
6.592849
 20
4.5965
 30
0.0
 11
6.592849
 21
5.0915
 31
0.0
  0
LINE
  5
136
  8
0
 10
6.592849
 20
5.8605
 30
0.0
 11
6.592849
 21
6.3965
 31
0.0
  0
LINE
  5
137
  8
0
 10
6.592849
 20
6.3965
 30
0.0
 11
6.592849
 21
6.8915
 31
0.0
  0
LINE
  5
138
  8
0
 10
6.592849
 20
7.6605
 30
0.0
 11
6.592849
 21
8.1965
 31
0.0
  0
LINE
  5
139
  8
0
 10
6.592849
 20
8.1965
 30
0.0
 11
6.592849
 21
8.6915
 31
0.0
  0
LINE
  5
13A
  8
0
 10
6.592849
 20
9.4605
 30
0.0
 11
6.592849
 21
9.9965
 31
0.0
  0
LINE
  5
13B
  8
0
 10
6.592849
 20
9.9965
 30
0.0
 11
6.592849
 21
10.4915
 31
0.0
  0
LINE
  5
13C
  8
0
 10
6.592849
 20
11.2605
 30
0.0
 11
6.592849
 21
11.7965
 31
0.0
  0
LINE
  5
13D
  8
0
 10
6.592849
 20
11.7965
 30
0.0
 11
6.592849
 21
12.2915
 31
0.0
  0
LINE
  5
13E
  8
0
 10
6.592849
 20
13.0605
 30
0.0
 11
6.592849
 21
13.5965
 31
0.0
  0
LINE
  5
13F
  8
0
 10
6.592849
 20
13.5965
 30
0.0
 11
6.592849
 21
14.0915
 31
0.0
  0
LINE
  5
140
  8
0
 10
7.092849
 20
1.11366
 30
0.0
 11
7.092849
 21
1.4925
 31
0.0
  0
LINE
  5
141
  8
0
 10
7.092849
 20
1.11366
 30
0.0
 11
7.092849
 21
1.4925
 31
0.0
  0
LINE
  5
142
  8
0
 10
7.092849
 20
2.2615
 30
0.0
 11
7.092849
 21
2.7975
 31
0.0
  0
LINE
  5
143
  8
0
 10
7.092849
 20
2.7975
 30
0.0
 11
7.092849
 21
3.2925
 31
0.0
  0
LINE
  5
144
  8
0
 10
7.092849
 20
4.0615
 30
0.0
 11
7.092849
 21
4.5565
 31
0.0
  0
LINE
  5
145
  8
0
 10
7.092849
 20
4.5565
 30
0.0
 11
7.092849
 21
5.0925
 31
0.0
  0
LINE
  5
146
  8
0
 10
7.092849
 20
5.8615
 30
0.0
 11
7.092849
 21
6.3565
 31
0.0
  0
LINE
  5
147
  8
0
 10
7.092849
 20
6.3565
 30
0.0
 11
7.092849
 21
6.8925
 31
0.0
  0
LINE
  5
148
  8
0
 10
7.092849
 20
7.6615
 30
0.0
 11
7.092849
 21
8.1565
 31
0.0
  0
LINE
  5
149
  8
0
 10
7.092849
 20
8.1565
 30
0.0
 11
7.092849
 21
8.6925
 31
0.0
  0
LINE
  5
14A
  8
0
 10
7.092849
 20
9.4615
 30
0.0
 11
7.092849
 21
9.9975
 31
0.0
  0
LINE
  5
14B
  8
0
 10
7.092849
 20
9.9975
 30
0.0
 11
7.092849
 21
10.4925
 31
0.0
  0
LINE
  5
14C
  8
0
 10
7.092849
 20
11.2615
 30
0.0
 11
7.092849
 21
11.7975
 31
0.0
  0
LINE
  5
14D
  8
0
 10
7.092849
 20
11.7975
 30
0.0
 11
7.092849
 21
12.2925
 31
0.0
  0
LINE
  5
14E
  8
0
 10
7.092849
 20
13.0615
 30
0.0
 11
7.092849
 21
13.5975
 31
0.0
  0
LINE
  5
14F
  8
0
 10
7.092849
 20
13.5975
 30
0.0
 11
7.092849
 21
14.0925
 31
0.0
  0
LINE
  5
150
  8
0
 10
7.592849
 20
1.11234
 30
0.0
 11
7.592849
 21
1.49283
 31
0.0
  0
LINE
  5
151
  8
0
 10
7.592849
 20
1.11234
 30
0.0
 11
7.592849
 21
1.49283
 31
0.0
  0
LINE
  5
152
  8
0
 10
7.592849
 20
2.2615
 30
0.0
 11
7.592849
 21
2.79817
 31
0.0
  0
LINE
  5
153
  8
0
 10
7.592849
 20
2.79817
 30
0.0
 11
7.592849
 21
3.2935
 31
0.0
  0
LINE
  5
154
  8
0
 10
7.592849
 20
4.0615
 30
0.0
 11
7.592849
 21
4.59817
 31
0.0
  0
LINE
  5
155
  8
0
 10
7.592849
 20
4.59817
 30
0.0
 11
7.592849
 21
5.0935
 31
0.0
  0
LINE
  5
156
  8
0
 10
7.592849
 20
5.8615
 30
0.0
 11
7.592849
 21
6.35683
 31
0.0
  0
LINE
  5
157
  8
0
 10
7.592849
 20
6.35683
 30
0.0
 11
7.592849
 21
6.8935
 31
0.0
  0
LINE
  5
158
  8
0
 10
7.592849
 20
7.6615
 30
0.0
 11
7.592849
 21
8.19817
 31
0.0
  0
LINE
  5
159
  8
0
 10
7.592849
 20
8.19817
 30
0.0
 11
7.592849
 21
8.6935
 31
0.0
  0
LINE
  5
15A
  8
0
 10
7.592849
 20
9.4615
 30
0.0
 11
7.592849
 21
9.99817
 31
0.0
  0
LINE
  5
15B
  8
0
 10
7.592849
 20
9.99817
 30
0.0
 11
7.592849
 21
10.4935
 31
0.0
  0
LINE
  5
15C
  8
0
 10
7.592849
 20
11.2615
 30
0.0
 11
7.592849
 21
11.79817
 31
0.0
  0
LINE
  5
15D
  8
0
 10
7.592849
 20
11.79817
 30
0.0
 11
7.592849
 21
12.2935
 31
0.0
  0
LINE
  5
15E
  8
0
 10
7.592849
 20
13.0615
 30
0.0
 11
7.592849
 21
13.59817
 31
0.0
  0
LINE
  5
15F
  8
0
 10
7.592849
 20
13.59817
 30
0.0
 11
7.592849
 21
14.0935
 31
0.0
  0
LINE
  5
160
  8
0
 10
8.092849
 20
1.10905
 30
0.0
 11
8.092849
 21
1.4935
 31
0.0
  0
LINE
  5
161
  8
0
 10
8.092849
 20
1.10905
 30
0.0
 11
8.092849
 21
1.4935
 31
0.0
  0
LINE
  5
162
  8
0
 10
8.092849
 20
2.2625
 30
0.0
 11
8.092849
 21
2.7985
 31
0.0
  0
LINE
  5
163
  8
0
 10
8.092849
 20
2.7985
 30
0.0
 11
8.092849
 21
3.2935
 31
0.0
  0
LINE
  5
164
  8
0
 10
8.092849
 20
4.0625
 30
0.0
 11
8.092849
 21
4.5985
 31
0.0
  0
LINE
  5
165
  8
0
 10
8.092849
 20
4.5985
 30
0.0
 11
8.092849
 21
5.0935
 31
0.0
  0
LINE
  5
166
  8
0
 10
8.092849
 20
5.8625
 30
0.0
 11
8.092849
 21
6.3985
 31
0.0
  0
LINE
  5
167
  8
0
 10
8.092849
 20
6.3985
 30
0.0
 11
8.092849
 21
6.8935
 31
0.0
  0
LINE
  5
168
  8
0
 10
8.092849
 20
7.6625
 30
0.0
 11
8.092849
 21
8.1985
 31
0.0
  0
LINE
  5
169
  8
0
 10
8.092849
 20
8.1985
 30
0.0
 11
8.092849
 21
8.6935
 31
0.0
  0
LINE
  5
16A
  8
0
 10
8.092849
 20
9.4625
 30
0.0
 11
8.092849
 21
9.9985
 31
0.0
  0
LINE
  5
16B
  8
0
 10
8.092849
 20
9.9985
 30
0.0
 11
8.092849
 21
10.4935
 31
0.0
  0
LINE
  5
16C
  8
0
 10
8.092849
 20
11.2625
 30
0.0
 11
8.092849
 21
11.7985
 31
0.0
  0
LINE
  5
16D
  8
0
 10
8.092849
 20
11.7985
 30
0.0
 11
8.092849
 21
12.2935
 31
0.0
  0
LINE
  5
16E
  8
0
 10
8.092849
 20
13.0625
 30
0.0
 11
8.092849
 21
13.5985
 31
0.0
  0
LINE
  5
16F
  8
0
 10
8.092849
 20
13.5985
 30
0.0
 11
8.092849
 21
14.0935
 31
0.0
  0
LINE
  5
170
  8
0
 10
8.592849
 20
1.10576
 30
0.0
 11
8.592849
 21
1.4945
 31
0.0
  0
LINE
  5
171
  8
0
 10
8.592849
 20
1.10576
 30
0.0
 11
8.592849
 21
1.4945
 31
0.0
  0
LINE
  5
172
  8
0
 10
8.592849
 20
2.2635
 30
0.0
 11
8.592849
 21
2.7585
 31
0.0
  0
LINE
  5
173
  8
0
 10
8.592849
 20
2.7585
 30
0.0
 11
8.592849
 21
3.2945
 31
0.0
  0
LINE
  5
174
  8
0
 10
8.592849
 20
4.0635
 30
0.0
 11
8.592849
 21
4.5585
 31
0.0
  0
LINE
  5
175
  8
0
 10
8.592849
 20
4.5585
 30
0.0
 11
8.592849
 21
5.0945
 31
0.0
  0
LINE
  5
176
  8
0
 10
8.592849
 20
5.8635
 30
0.0
 11
8.592849
 21
6.3995
 31
0.0
  0
LINE
  5
177
  8
0
 10
8.592849
 20
6.3995
 30
0.0
 11
8.592849
 21
6.8945
 31
0.0
  0
LINE
  5
178
  8
0
 10
8.592849
 20
7.6635
 30
0.0
 11
8.592849
 21
8.1585
 31
0.0
  0
LINE
  5
179
  8
0
 10
8.592849
 20
8.1585
 30
0.0
 11
8.592849
 21
8.6945
 31
0.0
  0
LINE
  5
17A
  8
0
 10
8.592849
 20
9.4635
 30
0.0
 11
8.592849
 21
9.9995
 31
0.0
  0
LINE
  5
17B
  8
0
 10
8.592849
 20
9.9995
 30
0.0
 11
8.592849
 21
10.4945
 31
0.0
  0
LINE
  5
17C
  8
0
 10
8.592849
 20
11.2635
 30
0.0
 11
8.592849
 21
11.7995
 31
0.0
  0
LINE
  5
17D
  8
0
 10
8.592849
 20
11.7995
 30
0.0
 11
8.592849
 21
12.2945
 31
0.0
  0
LINE
  5
17E
  8
0
 10
8.592849
 20
13.0635
 30
0.0
 11
8.592849
 21
13.5995
 31
0.0
  0
LINE
  5
17F
  8
0
 10
8.592849
 20
13.5995
 30
0.0
 11
8.592849
 21
14.0945
 31
0.0
  0
LINE
  5
180
  8
0
 10
9.092849
 20
1.10247
 30
0.0
 11
9.092849
 21
1.4955
 31
0.0
  0
LINE
  5
181
  8
0
 10
9.092849
 20
1.10247
 30
0.0
 11
9.092849
 21
1.4955
 31
0.0
  0
LINE
  5
182
  8
0
 10
9.092849
 20
2.2645
 30
0.0
 11
9.092849
 21
2.8005
 31
0.0
  0
LINE
  5
183
  8
0
 10
9.092849
 20
2.8005
 30
0.0
 11
9.092849
 21
3.2955
 31
0.0
  0
LINE
  5
184
  8
0
 10
9.092849
 20
4.0645
 30
0.0
 11
9.092849
 21
4.6005
 31
0.0
  0
LINE
  5
185
  8
0
 10
9.092849
 20
4.6005
 30
0.0
 11
9.092849
 21
5.0955
 31
0.0
  0
LINE
  5
186
  8
0
 10
9.092849
 20
5.8645
 30
0.0
 11
9.092849
 21
6.3595
 31
0.0
  0
LINE
  5
187
  8
0
 10
9.092849
 20
6.3595
 30
0.0
 11
9.092849
 21
6.8955
 31
0.0
  0
LINE
  5
188
  8
0
 10
9.092849
 20
7.6645
 30
0.0
 11
9.092849
 21
8.1595
 31
0.0
  0
LINE
  5
189
  8
0
 10
9.092849
 20
8.1595
 30
0.0
 11
9.092849
 21
8.6955
 31
0.0
  0
LINE
  5
18A
  8
0
 10
9.092849
 20
9.4645
 30
0.0
 11
9.092849
 21
10.0005
 31
0.0
  0
LINE
  5
18B
  8
0
 10
9.092849
 20
10.0005
 30
0.0
 11
9.092849
 21
10.4955
 31
0.0
  0
LINE
  5
18C
  8
0
 10
9.092849
 20
11.2645
 30
0.0
 11
9.092849
 21
11.8005
 31
0.0
  0
LINE
  5
18D
  8
0
 10
9.092849
 20
11.8005
 30
0.0
 11
9.092849
 21
12.2955
 31
0.0
  0
LINE
  5
18E
  8
0
 10
9.092849
 20
13.0645
 30
0.0
 11
9.092849
 21
13.6005
 31
0.0
  0
LINE
  5
18F
  8
0
 10
9.092849
 20
13.6005
 30
0.0
 11
9.092849
 21
14.0955
 31
0.0
  0
LINE
  5
190
  8
0
 10
9.592849
 20
1.09851
 30
0.0
 11
9.592849
 21
1.4955
 31
0.0
  0
LINE
  5
191
  8
0
 10
9.592849
 20
1.09851
 30
0.0
 11
9.592849
 21
1.4955
 31
0.0
  0
LINE
  5
192
  8
0
 10
9.592849
 20
2.2645
 30
0.0
 11
9.592849
 21
2.8005
 31
0.0
  0
LINE
  5
193
  8
0
 10
9.592849
 20
2.8005
 30
0.0
 11
9.592849
 21
3.2955
 31
0.0
  0
LINE
  5
194
  8
0
 10
9.592849
 20
4.0645
 30
0.0
 11
9.592849
 21
4.6005
 31
0.0
  0
LINE
  5
195
  8
0
 10
9.592849
 20
4.6005
 30
0.0
 11
9.592849
 21
5.0955
 31
0.0
  0
LINE
  5
196
  8
0
 10
9.592849
 20
5.8645
 30
0.0
 11
9.592849
 21
6.3595
 31
0.0
  0
LINE
  5
197
  8
0
 10
9.592849
 20
6.3595
 30
0.0
 11
9.592849
 21
6.8955
 31
0.0
  0
LINE
  5
198
  8
0
 10
9.592849
 20
7.6645
 30
0.0
 11
9.592849
 21
8.1595
 31
0.0
  0
LINE
  5
199
  8
0
 10
9.592849
 20
8.1595
 30
0.0
 11
9.592849
 21
8.6955
 31
0.0
  0
LINE
  5
19A
  8
0
 10
9.592849
 20
9.4645
 30
0.0
 11
9.592849
 21
10.0005
 31
0.0
  0
LINE
  5
19B
  8
0
 10
9.592849
 20
10.0005
 30
0.0
 11
9.592849
 21
10.4955
 31
0.0
  0
LINE
  5
19C
  8
0
 10
9.592849
 20
11.2645
 30
0.0
 11
9.592849
 21
11.8005
 31
0.0
  0
LINE
  5
19D
  8
0
 10
9.592849
 20
11.8005
 30
0.0
 11
9.592849
 21
12.2955
 31
0.0
  0
LINE
  5
19E
  8
0
 10
9.592849
 20
13.0645
 30
0.0
 11
9.592849
 21
13.6005
 31
0.0
  0
LINE
  5
19F
  8
0
 10
9.592849
 20
13.6005
 30
0.0
 11
9.592849
 21
14.0955
 31
0.0
  0
LINE
  5
1A0
  8
0
 10
10.092849
 20
1.09522
 30
0.0
 11
10.092849
 21
1.4965
 31
0.0
  0
LINE
  5
1A1
  8
0
 10
10.092849
 20
1.09522
 30
0.0
 11
10.092849
 21
1.4965
 31
0.0
  0
LINE
  5
1A2
  8
0
 10
10.092849
 20
2.2655
 30
0.0
 11
10.092849
 21
2.8015
 31
0.0
  0
LINE
  5
1A3
  8
0
 10
10.092849
 20
2.8015
 30
0.0
 11
10.092849
 21
3.2965
 31
0.0
  0
LINE
  5
1A4
  8
0
 10
10.092849
 20
4.0655
 30
0.0
 11
10.092849
 21
4.6015
 31
0.0
  0
LINE
  5
1A5
  8
0
 10
10.092849
 20
4.6015
 30
0.0
 11
10.092849
 21
5.0965
 31
0.0
  0
LINE
  5
1A6
  8
0
 10
10.092849
 20
5.8655
 30
0.0
 11
10.092849
 21
6.4015
 31
0.0
  0
LINE
  5
1A7
  8
0
 10
10.092849
 20
6.4015
 30
0.0
 11
10.092849
 21
6.8965
 31
0.0
  0
LINE
  5
1A8
  8
0
 10
10.092849
 20
7.6655
 30
0.0
 11
10.092849
 21
8.2015
 31
0.0
  0
LINE
  5
1A9
  8
0
 10
10.092849
 20
8.2015
 30
0.0
 11
10.092849
 21
8.6965
 31
0.0
  0
LINE
  5
1AA
  8
0
 10
10.092849
 20
9.4655
 30
0.0
 11
10.092849
 21
10.0015
 31
0.0
  0
LINE
  5
1AB
  8
0
 10
10.092849
 20
10.0015
 30
0.0
 11
10.092849
 21
10.4965
 31
0.0
  0
LINE
  5
1AC
  8
0
 10
10.092849
 20
11.2655
 30
0.0
 11
10.092849
 21
11.8015
 31
0.0
  0
LINE
  5
1AD
  8
0
 10
10.092849
 20
11.8015
 30
0.0
 11
10.092849
 21
12.2965
 31
0.0
  0
LINE
  5
1AE
  8
0
 10
10.092849
 20
13.0655
 30
0.0
 11
10.092849
 21
13.5605
 31
0.0
  0
LINE
  5
1AF
  8
0
 10
10.092849
 20
13.5605
 30
0.0
 11
10.092849
 21
14.0965
 31
0.0
  0
LINE
  5
1B0
  8
0
 10
10.592849
 20
1.09193
 30
0.0
 11
10.592849
 21
1.4975
 31
0.0
  0
LINE
  5
1B1
  8
0
 10
10.592849
 20
1.09193
 30
0.0
 11
10.592849
 21
1.4975
 31
0.0
  0
LINE
  5
1B2
  8
0
 10
10.592849
 20
2.2665
 30
0.0
 11
10.592849
 21
2.8025
 31
0.0
  0
LINE
  5
1B3
  8
0
 10
10.592849
 20
2.8025
 30
0.0
 11
10.592849
 21
3.2975
 31
0.0
  0
LINE
  5
1B4
  8
0
 10
10.592849
 20
4.0665
 30
0.0
 11
10.592849
 21
4.5615
 31
0.0
  0
LINE
  5
1B5
  8
0
 10
10.592849
 20
4.5615
 30
0.0
 11
10.592849
 21
5.0975
 31
0.0
  0
LINE
  5
1B6
  8
0
 10
10.592849
 20
5.8665
 30
0.0
 11
10.592849
 21
6.4025
 31
0.0
  0
LINE
  5
1B7
  8
0
 10
10.592849
 20
6.4025
 30
0.0
 11
10.592849
 21
6.8975
 31
0.0
  0
LINE
  5
1B8
  8
0
 10
10.592849
 20
7.6665
 30
0.0
 11
10.592849
 21
8.1615
 31
0.0
  0
LINE
  5
1B9
  8
0
 10
10.592849
 20
8.1615
 30
0.0
 11
10.592849
 21
8.6975
 31
0.0
  0
LINE
  5
1BA
  8
0
 10
10.592849
 20
9.4665
 30
0.0
 11
10.592849
 21
10.0025
 31
0.0
  0
LINE
  5
1BB
  8
0
 10
10.592849
 20
10.0025
 30
0.0
 11
10.592849
 21
10.4975
 31
0.0
  0
LINE
  5
1BC
  8
0
 10
10.592849
 20
11.2665
 30
0.0
 11
10.592849
 21
11.8025
 31
0.0
  0
LINE
  5
1BD
  8
0
 10
10.592849
 20
11.8025
 30
0.0
 11
10.592849
 21
12.2975
 31
0.0
  0
LINE
  5
1BE
  8
0
 10
10.592849
 20
13.0665
 30
0.0
 11
10.592849
 21
13.6025
 31
0.0
  0
LINE
  5
1BF
  8
0
 10
10.592849
 20
13.6025
 30
0.0
 11
10.592849
 21
14.0975
 31
0.0
  0
LINE
  5
1C0
  8
0
 10
11.092849
 20
1.08797
 30
0.0
 11
11.092849
 21
1.49783
 31
0.0
  0
LINE
  5
1C1
  8
0
 10
11.092849
 20
1.08797
 30
0.0
 11
11.092849
 21
1.49783
 31
0.0
  0
LINE
  5
1C2
  8
0
 10
11.092849
 20
2.2665
 30
0.0
 11
11.092849
 21
2.26717
 31
0.0
  0
LINE
  5
1C3
  8
0
 10
11.092849
 20
2.26717
 30
0.0
 11
11.092849
 21
2.7625
 31
0.0
  0
LINE
  5
1C4
  8
0
 10
11.092849
 20
2.7625
 30
0.0
 11
11.092849
 21
3.2985
 31
0.0
  0
LINE
  5
1C5
  8
0
 10
11.092849
 20
4.0665
 30
0.0
 11
11.092849
 21
4.06717
 31
0.0
  0
LINE
  5
1C6
  8
0
 10
11.092849
 20
4.06717
 30
0.0
 11
11.092849
 21
4.5625
 31
0.0
  0
LINE
  5
1C7
  8
0
 10
11.092849
 20
4.5625
 30
0.0
 11
11.092849
 21
5.0985
 31
0.0
  0
LINE
  5
1C8
  8
0
 10
11.092849
 20
5.8665
 30
0.0
 11
11.092849
 21
5.86717
 31
0.0
  0
LINE
  5
1C9
  8
0
 10
11.092849
 20
5.86717
 30
0.0
 11
11.092849
 21
6.3625
 31
0.0
  0
LINE
  5
1CA
  8
0
 10
11.092849
 20
6.3625
 30
0.0
 11
11.092849
 21
6.8985
 31
0.0
  0
LINE
  5
1CB
  8
0
 10
11.092849
 20
7.6665
 30
0.0
 11
11.092849
 21
7.66717
 31
0.0
  0
LINE
  5
1CC
  8
0
 10
11.092849
 20
7.66717
 30
0.0
 11
11.092849
 21
8.1625
 31
0.0
  0
LINE
  5
1CD
  8
0
 10
11.092849
 20
8.1625
 30
0.0
 11
11.092849
 21
8.6985
 31
0.0
  0
LINE
  5
1CE
  8
0
 10
11.092849
 20
9.4665
 30
0.0
 11
11.092849
 21
9.46717
 31
0.0
  0
LINE
  5
1CF
  8
0
 10
11.092849
 20
9.46717
 30
0.0
 11
11.092849
 21
9.9625
 31
0.0
  0
LINE
  5
1D0
  8
0
 10
11.092849
 20
9.9625
 30
0.0
 11
11.092849
 21
10.4985
 31
0.0
  0
LINE
  5
1D1
  8
0
 10
11.092849
 20
11.2665
 30
0.0
 11
11.092849
 21
11.26717
 31
0.0
  0
LINE
  5
1D2
  8
0
 10
11.092849
 20
11.26717
 30
0.0
 11
11.092849
 21
11.7625
 31
0.0
  0
LINE
  5
1D3
  8
0
 10
11.092849
 20
11.7625
 30
0.0
 11
11.092849
 21
12.2985
 31
0.0
  0
LINE
  5
1D4
  8
0
 10
11.092849
 20
13.0665
 30
0.0
 11
11.092849
 21
13.06717
 31
0.0
  0
LINE
  5
1D5
  8
0
 10
11.092849
 20
13.06717
 30
0.0
 11
11.092849
 21
13.5625
 31
0.0
  0
LINE
  5
1D6
  8
0
 10
11.092849
 20
13.5625
 30
0.0
 11
11.092849
 21
14.0985
 31
0.0
  0
LINE
  5
1D7
  8
0
 10
11.592849
 20
1.08468
 30
0.0
 11
11.592849
 21
1.4985
 31
0.0
  0
LINE
  5
1D8
  8
0
 10
11.592849
 20
1.08468
 30
0.0
 11
11.592849
 21
1.4985
 31
0.0
  0
LINE
  5
1D9
  8
0
 10
11.592849
 20
2.2675
 30
0.0
 11
11.592849
 21
2.7625
 31
0.0
  0
LINE
  5
1DA
  8
0
 10
11.592849
 20
2.7625
 30
0.0
 11
11.592849
 21
3.2985
 31
0.0
  0
LINE
  5
1DB
  8
0
 10
11.592849
 20
4.0675
 30
0.0
 11
11.592849
 21
4.6035
 31
0.0
  0
LINE
  5
1DC
  8
0
 10
11.592849
 20
4.6035
 30
0.0
 11
11.592849
 21
5.0985
 31
0.0
  0
LINE
  5
1DD
  8
0
 10
11.592849
 20
5.8675
 30
0.0
 11
11.592849
 21
6.3625
 31
0.0
  0
LINE
  5
1DE
  8
0
 10
11.592849
 20
6.3625
 30
0.0
 11
11.592849
 21
6.8985
 31
0.0
  0
LINE
  5
1DF
  8
0
 10
11.592849
 20
7.6675
 30
0.0
 11
11.592849
 21
8.1625
 31
0.0
  0
LINE
  5
1E0
  8
0
 10
11.592849
 20
8.1625
 30
0.0
 11
11.592849
 21
8.6985
 31
0.0
  0
LINE
  5
1E1
  8
0
 10
11.592849
 20
9.4675
 30
0.0
 11
11.592849
 21
10.0035
 31
0.0
  0
LINE
  5
1E2
  8
0
 10
11.592849
 20
10.0035
 30
0.0
 11
11.592849
 21
10.4985
 31
0.0
  0
LINE
  5
1E3
  8
0
 10
11.592849
 20
11.2675
 30
0.0
 11
11.592849
 21
11.7625
 31
0.0
  0
LINE
  5
1E4
  8
0
 10
11.592849
 20
11.7625
 30
0.0
 11
11.592849
 21
12.2985
 31
0.0
  0
LINE
  5
1E5
  8
0
 10
11.592849
 20
13.0675
 30
0.0
 11
11.592849
 21
13.6035
 31
0.0
  0
LINE
  5
1E6
  8
0
 10
11.592849
 20
13.6035
 30
0.0
 11
11.592849
 21
14.0985
 31
0.0
  0
LINE
  5
1E7
  8
0
 10
12.092849
 20
1.08139
 30
0.0
 11
12.092849
 21
1.4995
 31
0.0
  0
LINE
  5
1E8
  8
0
 10
12.092849
 20
1.08139
 30
0.0
 11
12.092849
 21
1.4995
 31
0.0
  0
LINE
  5
1E9
  8
0
 10
12.092849
 20
2.2685
 30
0.0
 11
12.092849
 21
2.8045
 31
0.0
  0
LINE
  5
1EA
  8
0
 10
12.092849
 20
2.8045
 30
0.0
 11
12.092849
 21
3.2995
 31
0.0
  0
LINE
  5
1EB
  8
0
 10
12.092849
 20
4.0685
 30
0.0
 11
12.092849
 21
4.6045
 31
0.0
  0
LINE
  5
1EC
  8
0
 10
12.092849
 20
4.6045
 30
0.0
 11
12.092849
 21
5.0995
 31
0.0
  0
LINE
  5
1ED
  8
0
 10
12.092849
 20
5.8685
 30
0.0
 11
12.092849
 21
6.4045
 31
0.0
  0
LINE
  5
1EE
  8
0
 10
12.092849
 20
6.4045
 30
0.0
 11
12.092849
 21
6.8995
 31
0.0
  0
LINE
  5
1EF
  8
0
 10
12.092849
 20
7.6685
 30
0.0
 11
12.092849
 21
8.2045
 31
0.0
  0
LINE
  5
1F0
  8
0
 10
12.092849
 20
8.2045
 30
0.0
 11
12.092849
 21
8.6995
 31
0.0
  0
LINE
  5
1F1
  8
0
 10
12.092849
 20
9.4685
 30
0.0
 11
12.092849
 21
10.0045
 31
0.0
  0
LINE
  5
1F2
  8
0
 10
12.092849
 20
10.0045
 30
0.0
 11
12.092849
 21
10.4995
 31
0.0
  0
LINE
  5
1F3
  8
0
 10
12.092849
 20
11.2685
 30
0.0
 11
12.092849
 21
11.8045
 31
0.0
  0
LINE
  5
1F4
  8
0
 10
12.092849
 20
11.8045
 30
0.0
 11
12.092849
 21
12.2995
 31
0.0
  0
LINE
  5
1F5
  8
0
 10
12.092849
 20
13.0685
 30
0.0
 11
12.092849
 21
13.5635
 31
0.0
  0
LINE
  5
1F6
  8
0
 10
12.092849
 20
13.5635
 30
0.0
 11
12.092849
 21
14.0995
 31
0.0
  0
LINE
  5
1F7
  8
0
 10
12.592849
 20
1.0781
 30
0.0
 11
12.592849
 21
1.5005
 31
0.0
  0
LINE
  5
1F8
  8
0
 10
12.592849
 20
1.0781
 30
0.0
 11
12.592849
 21
1.5005
 31
0.0
  0
LINE
  5
1F9
  8
0
 10
12.592849
 20
2.2695
 30
0.0
 11
12.592849
 21
2.8055
 31
0.0
  0
LINE
  5
1FA
  8
0
 10
12.592849
 20
2.8055
 30
0.0
 11
12.592849
 21
3.3005
 31
0.0
  0
LINE
  5
1FB
  8
0
 10
12.592849
 20
4.0695
 30
0.0
 11
12.592849
 21
4.5645
 31
0.0
  0
LINE
  5
1FC
  8
0
 10
12.592849
 20
4.5645
 30
0.0
 11
12.592849
 21
5.1005
 31
0.0
  0
LINE
  5
1FD
  8
0
 10
12.592849
 20
5.8695
 30
0.0
 11
12.592849
 21
6.3645
 31
0.0
  0
LINE
  5
1FE
  8
0
 10
12.592849
 20
6.3645
 30
0.0
 11
12.592849
 21
6.9005
 31
0.0
  0
LINE
  5
1FF
  8
0
 10
12.592849
 20
7.6695
 30
0.0
 11
12.592849
 21
8.1645
 31
0.0
  0
LINE
  5
200
  8
0
 10
12.592849
 20
8.1645
 30
0.0
 11
12.592849
 21
8.7005
 31
0.0
  0
LINE
  5
201
  8
0
 10
12.592849
 20
9.4695
 30
0.0
 11
12.592849
 21
9.9645
 31
0.0
  0
LINE
  5
202
  8
0
 10
12.592849
 20
9.9645
 30
0.0
 11
12.592849
 21
10.5005
 31
0.0
  0
LINE
  5
203
  8
0
 10
12.592849
 20
11.2695
 30
0.0
 11
12.592849
 21
11.8055
 31
0.0
  0
LINE
  5
204
  8
0
 10
12.592849
 20
11.8055
 30
0.0
 11
12.592849
 21
12.3005
 31
0.0
  0
LINE
  5
205
  8
0
 10
12.592849
 20
13.0695
 30
0.0
 11
12.592849
 21
13.6055
 31
0.0
  0
LINE
  5
206
  8
0
 10
12.592849
 20
13.6055
 30
0.0
 11
12.592849
 21
14.1005
 31
0.0
  0
LINE
  5
207
  8
0
 10
13.092849
 20
1.0781
 30
0.0
 11
13.092849
 21
1.50083
 31
0.0
  0
LINE
  5
208
  8
0
 10
13.092849
 20
1.0781
 30
0.0
 11
13.092849
 21
1.50083
 31
0.0
  0
LINE
  5
209
  8
0
 10
13.092849
 20
2.2695
 30
0.0
 11
13.092849
 21
2.8055
 31
0.0
  0
LINE
  5
20A
  8
0
 10
13.092849
 20
2.8055
 30
0.0
 11
13.092849
 21
3.30083
 31
0.0
  0
LINE
  5
20B
  8
0
 10
13.092849
 20
4.0695
 30
0.0
 11
13.092849
 21
4.6055
 31
0.0
  0
LINE
  5
20C
  8
0
 10
13.092849
 20
4.6055
 30
0.0
 11
13.092849
 21
5.10083
 31
0.0
  0
LINE
  5
20D
  8
0
 10
13.092849
 20
5.8695
 30
0.0
 11
13.092849
 21
6.4055
 31
0.0
  0
LINE
  5
20E
  8
0
 10
13.092849
 20
6.4055
 30
0.0
 11
13.092849
 21
6.90083
 31
0.0
  0
LINE
  5
20F
  8
0
 10
13.092849
 20
7.6695
 30
0.0
 11
13.092849
 21
8.2055
 31
0.0
  0
LINE
  5
210
  8
0
 10
13.092849
 20
8.2055
 30
0.0
 11
13.092849
 21
8.70083
 31
0.0
  0
LINE
  5
211
  8
0
 10
13.092849
 20
9.4695
 30
0.0
 11
13.092849
 21
10.0055
 31
0.0
  0
LINE
  5
212
  8
0
 10
13.092849
 20
10.0055
 30
0.0
 11
13.092849
 21
10.50083
 31
0.0
  0
LINE
  5
213
  8
0
 10
13.092849
 20
11.2695
 30
0.0
 11
13.092849
 21
11.8055
 31
0.0
  0
LINE
  5
214
  8
0
 10
13.092849
 20
11.8055
 30
0.0
 11
13.092849
 21
12.30083
 31
0.0
  0
LINE
  5
215
  8
0
 10
13.092849
 20
13.0695
 30
0.0
 11
13.092849
 21
13.6055
 31
0.0
  0
LINE
  5
216
  8
0
 10
13.092849
 20
13.6055
 30
0.0
 11
13.092849
 21
14.10083
 31
0.0
  0
LINE
  5
217
  8
0
 10
13.592849
 20
1.10121
 30
0.0
 11
13.592849
 21
1.5015
 31
0.0
  0
LINE
  5
218
  8
0
 10
13.592849
 20
1.10121
 30
0.0
 11
13.592849
 21
1.5015
 31
0.0
  0
LINE
  5
219
  8
0
 10
13.592849
 20
2.2705
 30
0.0
 11
13.592849
 21
2.8065
 31
0.0
  0
LINE
  5
21A
  8
0
 10
13.592849
 20
2.8065
 30
0.0
 11
13.592849
 21
3.3015
 31
0.0
  0
LINE
  5
21B
  8
0
 10
13.592849
 20
4.0705
 30
0.0
 11
13.592849
 21
4.6065
 31
0.0
  0
LINE
  5
21C
  8
0
 10
13.592849
 20
4.6065
 30
0.0
 11
13.592849
 21
5.1015
 31
0.0
  0
LINE
  5
21D
  8
0
 10
13.592849
 20
5.8705
 30
0.0
 11
13.592849
 21
6.4065
 31
0.0
  0
LINE
  5
21E
  8
0
 10
13.592849
 20
6.4065
 30
0.0
 11
13.592849
 21
6.9015
 31
0.0
  0
LINE
  5
21F
  8
0
 10
13.592849
 20
7.6705
 30
0.0
 11
13.592849
 21
8.1655
 31
0.0
  0
LINE
  5
220
  8
0
 10
13.592849
 20
8.1655
 30
0.0
 11
13.592849
 21
8.7015
 31
0.0
  0
LINE
  5
221
  8
0
 10
13.592849
 20
9.4705
 30
0.0
 11
13.592849
 21
10.0065
 31
0.0
  0
LINE
  5
222
  8
0
 10
13.592849
 20
10.0065
 30
0.0
 11
13.592849
 21
10.5015
 31
0.0
  0
LINE
  5
223
  8
0
 10
13.592849
 20
11.2705
 30
0.0
 11
13.592849
 21
11.7655
 31
0.0
  0
LINE
  5
224
  8
0
 10
13.592849
 20
11.7655
 30
0.0
 11
13.592849
 21
12.3015
 31
0.0
  0
LINE
  5
225
  8
0
 10
13.592849
 20
13.0705
 30
0.0
 11
13.592849
 21
13.6065
 31
0.0
  0
LINE
  5
226
  8
0
 10
13.592849
 20
13.6065
 30
0.0
 11
13.592849
 21
14.1015
 31
0.0
  0
LINE
  5
227
  8
0
 10
14.092849
 20
1.14511
 30
0.0
 11
14.092849
 21
1.5025
 31
0.0
  0
LINE
  5
228
  8
0
 10
14.092849
 20
1.14511
 30
0.0
 11
14.092849
 21
1.5025
 31
0.0
  0
LINE
  5
229
  8
0
 10
14.092849
 20
2.2715
 30
0.0
 11
14.092849
 21
2.7665
 31
0.0
  0
LINE
  5
22A
  8
0
 10
14.092849
 20
2.7665
 30
0.0
 11
14.092849
 21
3.3025
 31
0.0
  0
LINE
  5
22B
  8
0
 10
14.092849
 20
4.0715
 30
0.0
 11
14.092849
 21
4.5665
 31
0.0
  0
LINE
  5
22C
  8
0
 10
14.092849
 20
4.5665
 30
0.0
 11
14.092849
 21
5.1025
 31
0.0
  0
LINE
  5
22D
  8
0
 10
14.092849
 20
5.8715
 30
0.0
 11
14.092849
 21
6.4075
 31
0.0
  0
LINE
  5
22E
  8
0
 10
14.092849
 20
6.4075
 30
0.0
 11
14.092849
 21
6.9025
 31
0.0
  0
LINE
  5
22F
  8
0
 10
14.092849
 20
7.6715
 30
0.0
 11
14.092849
 21
8.1665
 31
0.0
  0
LINE
  5
230
  8
0
 10
14.092849
 20
8.1665
 30
0.0
 11
14.092849
 21
8.7025
 31
0.0
  0
LINE
  5
231
  8
0
 10
14.092849
 20
9.4715
 30
0.0
 11
14.092849
 21
10.0075
 31
0.0
  0
LINE
  5
232
  8
0
 10
14.092849
 20
10.0075
 30
0.0
 11
14.092849
 21
10.5025
 31
0.0
  0
LINE
  5
233
  8
0
 10
14.092849
 20
11.2715
 30
0.0
 11
14.092849
 21
11.8075
 31
0.0
  0
LINE
  5
234
  8
0
 10
14.092849
 20
11.8075
 30
0.0
 11
14.092849
 21
12.3025
 31
0.0
  0
LINE
  5
235
  8
0
 10
14.092849
 20
13.0715
 30
0.0
 11
14.092849
 21
13.6075
 31
0.0
  0
LINE
  5
236
  8
0
 10
14.092849
 20
13.6075
 30
0.0
 11
14.092849
 21
14.1025
 31
0.0
  0
LINE
  5
237
  8
0
 10
14.592849
 20
1.33387
 30
0.0
 11
14.592849
 21
1.33454
 31
0.0
  0
LINE
  5
238
  8
0
 10
14.592849
 20
1.33387
 30
0.0
 11
14.592849
 21
1.33454
 31
0.0
  0
LINE
  5
239
  8
0
 10
14.592849
 20
1.33454
 30
0.0
 11
14.592849
 21
1.5035
 31
0.0
  0
LINE
  5
23A
  8
0
 10
14.592849
 20
2.27183
 30
0.0
 11
14.592849
 21
2.8085
 31
0.0
  0
LINE
  5
23B
  8
0
 10
14.592849
 20
2.8085
 30
0.0
 11
14.592849
 21
3.3035
 31
0.0
  0
LINE
  5
23C
  8
0
 10
14.592849
 20
4.07183
 30
0.0
 11
14.592849
 21
4.6085
 31
0.0
  0
LINE
  5
23D
  8
0
 10
14.592849
 20
4.6085
 30
0.0
 11
14.592849
 21
5.1035
 31
0.0
  0
LINE
  5
23E
  8
0
 10
14.592849
 20
5.87183
 30
0.0
 11
14.592849
 21
6.3675
 31
0.0
  0
LINE
  5
23F
  8
0
 10
14.592849
 20
6.3675
 30
0.0
 11
14.592849
 21
6.9035
 31
0.0
  0
LINE
  5
240
  8
0
 10
14.592849
 20
7.67183
 30
0.0
 11
14.592849
 21
8.1675
 31
0.0
  0
LINE
  5
241
  8
0
 10
14.592849
 20
8.1675
 30
0.0
 11
14.592849
 21
8.7035
 31
0.0
  0
LINE
  5
242
  8
0
 10
14.592849
 20
9.47183
 30
0.0
 11
14.592849
 21
9.9675
 31
0.0
  0
LINE
  5
243
  8
0
 10
14.592849
 20
9.9675
 30
0.0
 11
14.592849
 21
10.5035
 31
0.0
  0
LINE
  5
244
  8
0
 10
14.592849
 20
11.27183
 30
0.0
 11
14.592849
 21
11.8085
 31
0.0
  0
LINE
  5
245
  8
0
 10
14.592849
 20
11.8085
 30
0.0
 11
14.592849
 21
12.3035
 31
0.0
  0
LINE
  5
246
  8
0
 10
14.592849
 20
13.07183
 30
0.0
 11
14.592849
 21
13.6085
 31
0.0
  0
LINE
  5
247
  8
0
 10
14.592849
 20
13.6085
 30
0.0
 11
14.592849
 21
14.1035
 31
0.0
  0
LINE
  5
248
  8
0
 10
1.7685
 20
0.592238
 30
0.0
 11
2.2635
 21
0.592238
 31
0.0
  0
LINE
  5
249
  8
0
 10
1.7685
 20
0.592238
 30
0.0
 11
2.2635
 21
0.592238
 31
0.0
  0
LINE
  5
24A
  8
0
 10
2.2635
 20
0.592238
 30
0.0
 11
2.7995
 21
0.592238
 31
0.0
  0
LINE
  5
24B
  8
0
 10
3.5685
 20
0.592238
 30
0.0
 11
4.1045
 21
0.592238
 31
0.0
  0
LINE
  5
24C
  8
0
 10
4.1045
 20
0.592238
 30
0.0
 11
4.5995
 21
0.592238
 31
0.0
  0
LINE
  5
24D
  8
0
 10
5.3685
 20
0.592238
 30
0.0
 11
5.9045
 21
0.592238
 31
0.0
  0
LINE
  5
24E
  8
0
 10
5.9045
 20
0.592238
 30
0.0
 11
6.3995
 21
0.592238
 31
0.0
  0
LINE
  5
24F
  8
0
 10
7.12696
 20
0.592238
 30
0.0
 11
7.22233
 21
0.592238
 31
0.0
  0
LINE
  5
250
  8
0
 10
7.22233
 20
0.592238
 30
0.0
 11
7.223
 21
0.592238
 31
0.0
  0
LINE
  5
251
  8
0
 10
7.7565
 20
0.592238
 30
0.0
 11
7.75717
 21
0.592238
 31
0.0
  0
LINE
  5
252
  8
0
 10
7.75717
 20
0.592238
 30
0.0
 11
8.2525
 21
0.592238
 31
0.0
  0
LINE
  5
253
  8
0
 10
8.2525
 20
0.592238
 30
0.0
 11
8.7885
 21
0.592238
 31
0.0
  0
LINE
  5
254
  8
0
 10
9.5565
 20
0.592238
 30
0.0
 11
9.55717
 21
0.592238
 31
0.0
  0
LINE
  5
255
  8
0
 10
9.55717
 20
0.592238
 30
0.0
 11
10.0525
 21
0.592238
 31
0.0
  0
LINE
  5
256
  8
0
 10
10.0525
 20
0.592238
 30
0.0
 11
10.5885
 21
0.592238
 31
0.0
  0
LINE
  5
257
  8
0
 10
11.3565
 20
0.592238
 30
0.0
 11
11.35717
 21
0.592238
 31
0.0
  0
LINE
  5
258
  8
0
 10
11.35717
 20
0.592238
 30
0.0
 11
11.8525
 21
0.592238
 31
0.0
  0
LINE
  5
259
  8
0
 10
11.8525
 20
0.592238
 30
0.0
 11
12.3885
 21
0.592238
 31
0.0
  0
LINE
  5
25A
  8
0
 10
13.1565
 20
0.592238
 30
0.0
 11
13.15717
 21
0.592238
 31
0.0
  0
LINE
  5
25B
  8
0
 10
13.15717
 20
0.592238
 30
0.0
 11
13.49014
 21
0.592238
 31
0.0
  0
LINE
  5
25C
  8
0
 10
1.1855
 20
1.092238
 30
0.0
 11
1.72217
 21
1.092238
 31
0.0
  0
LINE
  5
25D
  8
0
 10
1.1855
 20
1.092238
 30
0.0
 11
1.72217
 21
1.092238
 31
0.0
  0
LINE
  5
25E
  8
0
 10
1.72217
 20
1.092238
 30
0.0
 11
2.2175
 21
1.092238
 31
0.0
  0
LINE
  5
25F
  8
0
 10
2.9855
 20
1.092238
 30
0.0
 11
3.48083
 21
1.092238
 31
0.0
  0
LINE
  5
260
  8
0
 10
3.48083
 20
1.092238
 30
0.0
 11
4.0175
 21
1.092238
 31
0.0
  0
LINE
  5
261
  8
0
 10
4.7855
 20
1.092238
 30
0.0
 11
5.32217
 21
1.092238
 31
0.0
  0
LINE
  5
262
  8
0
 10
5.32217
 20
1.092238
 30
0.0
 11
5.8175
 21
1.092238
 31
0.0
  0
LINE
  5
263
  8
0
 10
6.5855
 20
1.092238
 30
0.0
 11
7.08083
 21
1.092238
 31
0.0
  0
LINE
  5
264
  8
0
 10
7.08083
 20
1.092238
 30
0.0
 11
7.6175
 21
1.092238
 31
0.0
  0
LINE
  5
265
  8
0
 10
8.3855
 20
1.092238
 30
0.0
 11
8.92217
 21
1.092238
 31
0.0
  0
LINE
  5
266
  8
0
 10
8.92217
 20
1.092238
 30
0.0
 11
9.4175
 21
1.092238
 31
0.0
  0
LINE
  5
267
  8
0
 10
10.1855
 20
1.092238
 30
0.0
 11
10.68083
 21
1.092238
 31
0.0
  0
LINE
  5
268
  8
0
 10
10.68083
 20
1.092238
 30
0.0
 11
11.2175
 21
1.092238
 31
0.0
  0
LINE
  5
269
  8
0
 10
11.9855
 20
1.092238
 30
0.0
 11
12.48083
 21
1.092238
 31
0.0
  0
LINE
  5
26A
  8
0
 10
12.48083
 20
1.092238
 30
0.0
 11
13.0175
 21
1.092238
 31
0.0
  0
LINE
  5
26B
  8
0
 10
13.7855
 20
1.092238
 30
0.0
 11
13.78617
 21
1.092238
 31
0.0
  0
LINE
  5
26C
  8
0
 10
13.78617
 20
1.092238
 30
0.0
 11
14.11155
 21
1.092238
 31
0.0
  0
LINE
  5
26D
  8
0
 10
1.0535
 20
1.592238
 30
0.0
 11
1.5485
 21
1.592238
 31
0.0
  0
LINE
  5
26E
  8
0
 10
1.0535
 20
1.592238
 30
0.0
 11
1.5485
 21
1.592238
 31
0.0
  0
LINE
  5
26F
  8
0
 10
1.5485
 20
1.592238
 30
0.0
 11
2.0845
 21
1.592238
 31
0.0
  0
LINE
  5
270
  8
0
 10
2.8535
 20
1.592238
 30
0.0
 11
3.3485
 21
1.592238
 31
0.0
  0
LINE
  5
271
  8
0
 10
3.3485
 20
1.592238
 30
0.0
 11
3.8845
 21
1.592238
 31
0.0
  0
LINE
  5
272
  8
0
 10
4.6535
 20
1.592238
 30
0.0
 11
5.1895
 21
1.592238
 31
0.0
  0
LINE
  5
273
  8
0
 10
5.1895
 20
1.592238
 30
0.0
 11
5.6845
 21
1.592238
 31
0.0
  0
LINE
  5
274
  8
0
 10
6.4535
 20
1.592238
 30
0.0
 11
6.9895
 21
1.592238
 31
0.0
  0
LINE
  5
275
  8
0
 10
6.9895
 20
1.592238
 30
0.0
 11
7.4845
 21
1.592238
 31
0.0
  0
LINE
  5
276
  8
0
 10
8.2535
 20
1.592238
 30
0.0
 11
8.7485
 21
1.592238
 31
0.0
  0
LINE
  5
277
  8
0
 10
8.7485
 20
1.592238
 30
0.0
 11
9.2845
 21
1.592238
 31
0.0
  0
LINE
  5
278
  8
0
 10
10.0535
 20
1.592238
 30
0.0
 11
10.5895
 21
1.592238
 31
0.0
  0
LINE
  5
279
  8
0
 10
10.5895
 20
1.592238
 30
0.0
 11
11.0845
 21
1.592238
 31
0.0
  0
LINE
  5
27A
  8
0
 10
11.8535
 20
1.592238
 30
0.0
 11
12.3485
 21
1.592238
 31
0.0
  0
LINE
  5
27B
  8
0
 10
12.3485
 20
1.592238
 30
0.0
 11
12.8845
 21
1.592238
 31
0.0
  0
LINE
  5
27C
  8
0
 10
13.6535
 20
1.592238
 30
0.0
 11
14.06435
 21
1.592238
 31
0.0
  0
LINE
  5
27D
  8
0
 10
0.9905
 20
2.092238
 30
0.0
 11
1.4855
 21
2.092238
 31
0.0
  0
LINE
  5
27E
  8
0
 10
0.9905
 20
2.092238
 30
0.0
 11
1.4855
 21
2.092238
 31
0.0
  0
LINE
  5
27F
  8
0
 10
1.4855
 20
2.092238
 30
0.0
 11
2.0215
 21
2.092238
 31
0.0
  0
LINE
  5
280
  8
0
 10
2.7905
 20
2.092238
 30
0.0
 11
3.2855
 21
2.092238
 31
0.0
  0
LINE
  5
281
  8
0
 10
3.2855
 20
2.092238
 30
0.0
 11
3.8215
 21
2.092238
 31
0.0
  0
LINE
  5
282
  8
0
 10
4.5905
 20
2.092238
 30
0.0
 11
5.0855
 21
2.092238
 31
0.0
  0
LINE
  5
283
  8
0
 10
5.0855
 20
2.092238
 30
0.0
 11
5.6215
 21
2.092238
 31
0.0
  0
LINE
  5
284
  8
0
 10
6.3905
 20
2.092238
 30
0.0
 11
6.9265
 21
2.092238
 31
0.0
  0
LINE
  5
285
  8
0
 10
6.9265
 20
2.092238
 30
0.0
 11
7.4215
 21
2.092238
 31
0.0
  0
LINE
  5
286
  8
0
 10
8.1905
 20
2.092238
 30
0.0
 11
8.6855
 21
2.092238
 31
0.0
  0
LINE
  5
287
  8
0
 10
8.6855
 20
2.092238
 30
0.0
 11
9.2215
 21
2.092238
 31
0.0
  0
LINE
  5
288
  8
0
 10
9.9905
 20
2.092238
 30
0.0
 11
10.4855
 21
2.092238
 31
0.0
  0
LINE
  5
289
  8
0
 10
10.4855
 20
2.092238
 30
0.0
 11
11.0215
 21
2.092238
 31
0.0
  0
LINE
  5
28A
  8
0
 10
11.7905
 20
2.092238
 30
0.0
 11
12.3265
 21
2.092238
 31
0.0
  0
LINE
  5
28B
  8
0
 10
12.3265
 20
2.092238
 30
0.0
 11
12.8215
 21
2.092238
 31
0.0
  0
LINE
  5
28C
  8
0
 10
13.5905
 20
2.092238
 30
0.0
 11
14.04326
 21
2.092238
 31
0.0
  0
LINE
  5
28D
  8
0
 10
0.9845
 20
2.592238
 30
0.0
 11
0.98517
 21
2.592238
 31
0.0
  0
LINE
  5
28E
  8
0
 10
0.9845
 20
2.592238
 30
0.0
 11
0.98517
 21
2.592238
 31
0.0
  0
LINE
  5
28F
  8
0
 10
0.98517
 20
2.592238
 30
0.0
 11
1.4805
 21
2.592238
 31
0.0
  0
LINE
  5
290
  8
0
 10
1.4805
 20
2.592238
 30
0.0
 11
2.0165
 21
2.592238
 31
0.0
  0
LINE
  5
291
  8
0
 10
2.7845
 20
2.592238
 30
0.0
 11
2.78517
 21
2.592238
 31
0.0
  0
LINE
  5
292
  8
0
 10
2.78517
 20
2.592238
 30
0.0
 11
3.2805
 21
2.592238
 31
0.0
  0
LINE
  5
293
  8
0
 10
3.2805
 20
2.592238
 30
0.0
 11
3.8165
 21
2.592238
 31
0.0
  0
LINE
  5
294
  8
0
 10
4.5845
 20
2.592238
 30
0.0
 11
4.58517
 21
2.592238
 31
0.0
  0
LINE
  5
295
  8
0
 10
4.58517
 20
2.592238
 30
0.0
 11
5.0805
 21
2.592238
 31
0.0
  0
LINE
  5
296
  8
0
 10
5.0805
 20
2.592238
 30
0.0
 11
5.6165
 21
2.592238
 31
0.0
  0
LINE
  5
297
  8
0
 10
6.3845
 20
2.592238
 30
0.0
 11
6.38517
 21
2.592238
 31
0.0
  0
LINE
  5
298
  8
0
 10
6.38517
 20
2.592238
 30
0.0
 11
6.8805
 21
2.592238
 31
0.0
  0
LINE
  5
299
  8
0
 10
6.8805
 20
2.592238
 30
0.0
 11
7.4165
 21
2.592238
 31
0.0
  0
LINE
  5
29A
  8
0
 10
8.1845
 20
2.592238
 30
0.0
 11
8.18517
 21
2.592238
 31
0.0
  0
LINE
  5
29B
  8
0
 10
8.18517
 20
2.592238
 30
0.0
 11
8.6805
 21
2.592238
 31
0.0
  0
LINE
  5
29C
  8
0
 10
8.6805
 20
2.592238
 30
0.0
 11
9.2165
 21
2.592238
 31
0.0
  0
LINE
  5
29D
  8
0
 10
9.9845
 20
2.592238
 30
0.0
 11
9.98517
 21
2.592238
 31
0.0
  0
LINE
  5
29E
  8
0
 10
9.98517
 20
2.592238
 30
0.0
 11
10.4805
 21
2.592238
 31
0.0
  0
LINE
  5
29F
  8
0
 10
10.4805
 20
2.592238
 30
0.0
 11
11.0165
 21
2.592238
 31
0.0
  0
LINE
  5
2A0
  8
0
 10
11.7845
 20
2.592238
 30
0.0
 11
11.78517
 21
2.592238
 31
0.0
  0
LINE
  5
2A1
  8
0
 10
11.78517
 20
2.592238
 30
0.0
 11
12.2805
 21
2.592238
 31
0.0
  0
LINE
  5
2A2
  8
0
 10
12.2805
 20
2.592238
 30
0.0
 11
12.8165
 21
2.592238
 31
0.0
  0
LINE
  5
2A3
  8
0
 10
13.5845
 20
2.592238
 30
0.0
 11
13.58517
 21
2.592238
 31
0.0
  0
LINE
  5
2A4
  8
0
 10
13.58517
 20
2.592238
 30
0.0
 11
14.04354
 21
2.592238
 31
0.0
  0
LINE
  5
2A5
  8
0
 10
0.9975
 20
3.092238
 30
0.0
 11
1.4925
 21
3.092238
 31
0.0
  0
LINE
  5
2A6
  8
0
 10
0.9975
 20
3.092238
 30
0.0
 11
1.4925
 21
3.092238
 31
0.0
  0
LINE
  5
2A7
  8
0
 10
1.4925
 20
3.092238
 30
0.0
 11
2.0285
 21
3.092238
 31
0.0
  0
LINE
  5
2A8
  8
0
 10
2.7975
 20
3.092238
 30
0.0
 11
3.2925
 21
3.092238
 31
0.0
  0
LINE
  5
2A9
  8
0
 10
3.2925
 20
3.092238
 30
0.0
 11
3.8285
 21
3.092238
 31
0.0
  0
LINE
  5
2AA
  8
0
 10
4.5975
 20
3.092238
 30
0.0
 11
5.1335
 21
3.092238
 31
0.0
  0
LINE
  5
2AB
  8
0
 10
5.1335
 20
3.092238
 30
0.0
 11
5.6285
 21
3.092238
 31
0.0
  0
LINE
  5
2AC
  8
0
 10
6.3975
 20
3.092238
 30
0.0
 11
6.9335
 21
3.092238
 31
0.0
  0
LINE
  5
2AD
  8
0
 10
6.9335
 20
3.092238
 30
0.0
 11
7.4285
 21
3.092238
 31
0.0
  0
LINE
  5
2AE
  8
0
 10
8.1975
 20
3.092238
 30
0.0
 11
8.7335
 21
3.092238
 31
0.0
  0
LINE
  5
2AF
  8
0
 10
8.7335
 20
3.092238
 30
0.0
 11
9.2285
 21
3.092238
 31
0.0
  0
LINE
  5
2B0
  8
0
 10
9.9975
 20
3.092238
 30
0.0
 11
10.4925
 21
3.092238
 31
0.0
  0
LINE
  5
2B1
  8
0
 10
10.4925
 20
3.092238
 30
0.0
 11
11.0285
 21
3.092238
 31
0.0
  0
LINE
  5
2B2
  8
0
 10
11.7975
 20
3.092238
 30
0.0
 11
12.2925
 21
3.092238
 31
0.0
  0
LINE
  5
2B3
  8
0
 10
12.2925
 20
3.092238
 30
0.0
 11
12.8285
 21
3.092238
 31
0.0
  0
LINE
  5
2B4
  8
0
 10
13.5975
 20
3.092238
 30
0.0
 11
14.04597
 21
3.092238
 31
0.0
  0
LINE
  5
2B5
  8
0
 10
1.0105
 20
3.592238
 30
0.0
 11
1.5465
 21
3.592238
 31
0.0
  0
LINE
  5
2B6
  8
0
 10
1.0105
 20
3.592238
 30
0.0
 11
1.5465
 21
3.592238
 31
0.0
  0
LINE
  5
2B7
  8
0
 10
1.5465
 20
3.592238
 30
0.0
 11
2.0415
 21
3.592238
 31
0.0
  0
LINE
  5
2B8
  8
0
 10
2.8105
 20
3.592238
 30
0.0
 11
3.3465
 21
3.592238
 31
0.0
  0
LINE
  5
2B9
  8
0
 10
3.3465
 20
3.592238
 30
0.0
 11
3.8415
 21
3.592238
 31
0.0
  0
LINE
  5
2BA
  8
0
 10
4.6105
 20
3.592238
 30
0.0
 11
5.1465
 21
3.592238
 31
0.0
  0
LINE
  5
2BB
  8
0
 10
5.1465
 20
3.592238
 30
0.0
 11
5.6415
 21
3.592238
 31
0.0
  0
LINE
  5
2BC
  8
0
 10
6.4105
 20
3.592238
 30
0.0
 11
6.9465
 21
3.592238
 31
0.0
  0
LINE
  5
2BD
  8
0
 10
6.9465
 20
3.592238
 30
0.0
 11
7.4415
 21
3.592238
 31
0.0
  0
LINE
  5
2BE
  8
0
 10
8.2105
 20
3.592238
 30
0.0
 11
8.7465
 21
3.592238
 31
0.0
  0
LINE
  5
2BF
  8
0
 10
8.7465
 20
3.592238
 30
0.0
 11
9.2415
 21
3.592238
 31
0.0
  0
LINE
  5
2C0
  8
0
 10
10.0105
 20
3.592238
 30
0.0
 11
10.5055
 21
3.592238
 31
0.0
  0
LINE
  5
2C1
  8
0
 10
10.5055
 20
3.592238
 30
0.0
 11
11.0415
 21
3.592238
 31
0.0
  0
LINE
  5
2C2
  8
0
 10
11.8105
 20
3.592238
 30
0.0
 11
12.3055
 21
3.592238
 31
0.0
  0
LINE
  5
2C3
  8
0
 10
12.3055
 20
3.592238
 30
0.0
 11
12.8415
 21
3.592238
 31
0.0
  0
LINE
  5
2C4
  8
0
 10
13.6105
 20
3.592238
 30
0.0
 11
14.04874
 21
3.592238
 31
0.0
  0
LINE
  5
2C5
  8
0
 10
1.0225
 20
4.092238
 30
0.0
 11
1.5585
 21
4.092238
 31
0.0
  0
LINE
  5
2C6
  8
0
 10
1.0225
 20
4.092238
 30
0.0
 11
1.5585
 21
4.092238
 31
0.0
  0
LINE
  5
2C7
  8
0
 10
1.5585
 20
4.092238
 30
0.0
 11
2.0535
 21
4.092238
 31
0.0
  0
LINE
  5
2C8
  8
0
 10
2.8225
 20
4.092238
 30
0.0
 11
3.3175
 21
4.092238
 31
0.0
  0
LINE
  5
2C9
  8
0
 10
3.3175
 20
4.092238
 30
0.0
 11
3.8535
 21
4.092238
 31
0.0
  0
LINE
  5
2CA
  8
0
 10
4.6225
 20
4.092238
 30
0.0
 11
5.1175
 21
4.092238
 31
0.0
  0
LINE
  5
2CB
  8
0
 10
5.1175
 20
4.092238
 30
0.0
 11
5.6535
 21
4.092238
 31
0.0
  0
LINE
  5
2CC
  8
0
 10
6.4225
 20
4.092238
 30
0.0
 11
6.9175
 21
4.092238
 31
0.0
  0
LINE
  5
2CD
  8
0
 10
6.9175
 20
4.092238
 30
0.0
 11
7.4535
 21
4.092238
 31
0.0
  0
LINE
  5
2CE
  8
0
 10
8.2225
 20
4.092238
 30
0.0
 11
8.7175
 21
4.092238
 31
0.0
  0
LINE
  5
2CF
  8
0
 10
8.7175
 20
4.092238
 30
0.0
 11
9.2535
 21
4.092238
 31
0.0
  0
LINE
  5
2D0
  8
0
 10
10.0225
 20
4.092238
 30
0.0
 11
10.5175
 21
4.092238
 31
0.0
  0
LINE
  5
2D1
  8
0
 10
10.5175
 20
4.092238
 30
0.0
 11
11.0535
 21
4.092238
 31
0.0
  0
LINE
  5
2D2
  8
0
 10
11.8225
 20
4.092238
 30
0.0
 11
12.3585
 21
4.092238
 31
0.0
  0
LINE
  5
2D3
  8
0
 10
12.3585
 20
4.092238
 30
0.0
 11
12.8535
 21
4.092238
 31
0.0
  0
LINE
  5
2D4
  8
0
 10
13.6225
 20
4.092238
 30
0.0
 11
14.05117
 21
4.092238
 31
0.0
  0
LINE
  5
2D5
  8
0
 10
1.0355
 20
4.592238
 30
0.0
 11
1.5715
 21
4.592238
 31
0.0
  0
LINE
  5
2D6
  8
0
 10
1.0355
 20
4.592238
 30
0.0
 11
1.5715
 21
4.592238
 31
0.0
  0
LINE
  5
2D7
  8
0
 10
1.5715
 20
4.592238
 30
0.0
 11
2.0665
 21
4.592238
 31
0.0
  0
LINE
  5
2D8
  8
0
 10
2.8355
 20
4.592238
 30
0.0
 11
3.3305
 21
4.592238
 31
0.0
  0
LINE
  5
2D9
  8
0
 10
3.3305
 20
4.592238
 30
0.0
 11
3.8665
 21
4.592238
 31
0.0
  0
LINE
  5
2DA
  8
0
 10
4.6355
 20
4.592238
 30
0.0
 11
5.1305
 21
4.592238
 31
0.0
  0
LINE
  5
2DB
  8
0
 10
5.1305
 20
4.592238
 30
0.0
 11
5.6665
 21
4.592238
 31
0.0
  0
LINE
  5
2DC
  8
0
 10
6.4355
 20
4.592238
 30
0.0
 11
6.9715
 21
4.592238
 31
0.0
  0
LINE
  5
2DD
  8
0
 10
6.9715
 20
4.592238
 30
0.0
 11
7.4665
 21
4.592238
 31
0.0
  0
LINE
  5
2DE
  8
0
 10
8.2355
 20
4.592238
 30
0.0
 11
8.7305
 21
4.592238
 31
0.0
  0
LINE
  5
2DF
  8
0
 10
8.7305
 20
4.592238
 30
0.0
 11
9.2665
 21
4.592238
 31
0.0
  0
LINE
  5
2E0
  8
0
 10
10.0355
 20
4.592238
 30
0.0
 11
10.5305
 21
4.592238
 31
0.0
  0
LINE
  5
2E1
  8
0
 10
10.5305
 20
4.592238
 30
0.0
 11
11.0665
 21
4.592238
 31
0.0
  0
LINE
  5
2E2
  8
0
 10
11.8355
 20
4.592238
 30
0.0
 11
12.3715
 21
4.592238
 31
0.0
  0
LINE
  5
2E3
  8
0
 10
12.3715
 20
4.592238
 30
0.0
 11
12.8665
 21
4.592238
 31
0.0
  0
LINE
  5
2E4
  8
0
 10
13.6355
 20
4.592238
 30
0.0
 11
14.05394
 21
4.592238
 31
0.0
  0
LINE
  5
2E5
  8
0
 10
1.0475
 20
5.092238
 30
0.0
 11
1.58417
 21
5.092238
 31
0.0
  0
LINE
  5
2E6
  8
0
 10
1.0475
 20
5.092238
 30
0.0
 11
1.58417
 21
5.092238
 31
0.0
  0
LINE
  5
2E7
  8
0
 10
1.58417
 20
5.092238
 30
0.0
 11
2.0795
 21
5.092238
 31
0.0
  0
LINE
  5
2E8
  8
0
 10
2.8475
 20
5.092238
 30
0.0
 11
3.34283
 21
5.092238
 31
0.0
  0
LINE
  5
2E9
  8
0
 10
3.34283
 20
5.092238
 30
0.0
 11
3.8795
 21
5.092238
 31
0.0
  0
LINE
  5
2EA
  8
0
 10
4.6475
 20
5.092238
 30
0.0
 11
5.14283
 21
5.092238
 31
0.0
  0
LINE
  5
2EB
  8
0
 10
5.14283
 20
5.092238
 30
0.0
 11
5.6795
 21
5.092238
 31
0.0
  0
LINE
  5
2EC
  8
0
 10
6.4475
 20
5.092238
 30
0.0
 11
6.98417
 21
5.092238
 31
0.0
  0
LINE
  5
2ED
  8
0
 10
6.98417
 20
5.092238
 30
0.0
 11
7.4795
 21
5.092238
 31
0.0
  0
LINE
  5
2EE
  8
0
 10
8.2475
 20
5.092238
 30
0.0
 11
8.74283
 21
5.092238
 31
0.0
  0
LINE
  5
2EF
  8
0
 10
8.74283
 20
5.092238
 30
0.0
 11
9.2795
 21
5.092238
 31
0.0
  0
LINE
  5
2F0
  8
0
 10
10.0475
 20
5.092238
 30
0.0
 11
10.54283
 21
5.092238
 31
0.0
  0
LINE
  5
2F1
  8
0
 10
10.54283
 20
5.092238
 30
0.0
 11
11.0795
 21
5.092238
 31
0.0
  0
LINE
  5
2F2
  8
0
 10
11.8475
 20
5.092238
 30
0.0
 11
12.34283
 21
5.092238
 31
0.0
  0
LINE
  5
2F3
  8
0
 10
12.34283
 20
5.092238
 30
0.0
 11
12.8795
 21
5.092238
 31
0.0
  0
LINE
  5
2F4
  8
0
 10
13.6475
 20
5.092238
 30
0.0
 11
13.64817
 21
5.092238
 31
0.0
  0
LINE
  5
2F5
  8
0
 10
13.64817
 20
5.092238
 30
0.0
 11
14.05671
 21
5.092238
 31
0.0
  0
LINE
  5
2F6
  8
0
 10
1.0605
 20
5.592238
 30
0.0
 11
1.5965
 21
5.592238
 31
0.0
  0
LINE
  5
2F7
  8
0
 10
1.0605
 20
5.592238
 30
0.0
 11
1.5965
 21
5.592238
 31
0.0
  0
LINE
  5
2F8
  8
0
 10
1.5965
 20
5.592238
 30
0.0
 11
2.0915
 21
5.592238
 31
0.0
  0
LINE
  5
2F9
  8
0
 10
2.8605
 20
5.592238
 30
0.0
 11
3.3555
 21
5.592238
 31
0.0
  0
LINE
  5
2FA
  8
0
 10
3.3555
 20
5.592238
 30
0.0
 11
3.8915
 21
5.592238
 31
0.0
  0
LINE
  5
2FB
  8
0
 10
4.6605
 20
5.592238
 30
0.0
 11
5.1555
 21
5.592238
 31
0.0
  0
LINE
  5
2FC
  8
0
 10
5.1555
 20
5.592238
 30
0.0
 11
5.6915
 21
5.592238
 31
0.0
  0
LINE
  5
2FD
  8
0
 10
6.4605
 20
5.592238
 30
0.0
 11
6.9555
 21
5.592238
 31
0.0
  0
LINE
  5
2FE
  8
0
 10
6.9555
 20
5.592238
 30
0.0
 11
7.4915
 21
5.592238
 31
0.0
  0
LINE
  5
2FF
  8
0
 10
8.2605
 20
5.592238
 30
0.0
 11
8.7555
 21
5.592238
 31
0.0
  0
LINE
  5
300
  8
0
 10
8.7555
 20
5.592238
 30
0.0
 11
9.2915
 21
5.592238
 31
0.0
  0
LINE
  5
301
  8
0
 10
10.0605
 20
5.592238
 30
0.0
 11
10.5555
 21
5.592238
 31
0.0
  0
LINE
  5
302
  8
0
 10
10.5555
 20
5.592238
 30
0.0
 11
11.0915
 21
5.592238
 31
0.0
  0
LINE
  5
303
  8
0
 10
11.8605
 20
5.592238
 30
0.0
 11
12.3555
 21
5.592238
 31
0.0
  0
LINE
  5
304
  8
0
 10
12.3555
 20
5.592238
 30
0.0
 11
12.8915
 21
5.592238
 31
0.0
  0
LINE
  5
305
  8
0
 10
13.6605
 20
5.592238
 30
0.0
 11
14.05914
 21
5.592238
 31
0.0
  0
LINE
  5
306
  8
0
 10
1.0735
 20
6.092238
 30
0.0
 11
1.5685
 21
6.092238
 31
0.0
  0
LINE
  5
307
  8
0
 10
1.0735
 20
6.092238
 30
0.0
 11
1.5685
 21
6.092238
 31
0.0
  0
LINE
  5
308
  8
0
 10
1.5685
 20
6.092238
 30
0.0
 11
2.1045
 21
6.092238
 31
0.0
  0
LINE
  5
309
  8
0
 10
2.8735
 20
6.092238
 30
0.0
 11
3.4095
 21
6.092238
 31
0.0
  0
LINE
  5
30A
  8
0
 10
3.4095
 20
6.092238
 30
0.0
 11
3.9045
 21
6.092238
 31
0.0
  0
LINE
  5
30B
  8
0
 10
4.6735
 20
6.092238
 30
0.0
 11
5.1685
 21
6.092238
 31
0.0
  0
LINE
  5
30C
  8
0
 10
5.1685
 20
6.092238
 30
0.0
 11
5.7045
 21
6.092238
 31
0.0
  0
LINE
  5
30D
  8
0
 10
6.4735
 20
6.092238
 30
0.0
 11
6.9685
 21
6.092238
 31
0.0
  0
LINE
  5
30E
  8
0
 10
6.9685
 20
6.092238
 30
0.0
 11
7.5045
 21
6.092238
 31
0.0
  0
LINE
  5
30F
  8
0
 10
8.2735
 20
6.092238
 30
0.0
 11
8.7685
 21
6.092238
 31
0.0
  0
LINE
  5
310
  8
0
 10
8.7685
 20
6.092238
 30
0.0
 11
9.3045
 21
6.092238
 31
0.0
  0
LINE
  5
311
  8
0
 10
10.0735
 20
6.092238
 30
0.0
 11
10.5685
 21
6.092238
 31
0.0
  0
LINE
  5
312
  8
0
 10
10.5685
 20
6.092238
 30
0.0
 11
11.1045
 21
6.092238
 31
0.0
  0
LINE
  5
313
  8
0
 10
11.8735
 20
6.092238
 30
0.0
 11
12.4095
 21
6.092238
 31
0.0
  0
LINE
  5
314
  8
0
 10
12.4095
 20
6.092238
 30
0.0
 11
12.9045
 21
6.092238
 31
0.0
  0
LINE
  5
315
  8
0
 10
13.6735
 20
6.092238
 30
0.0
 11
14.06521
 21
6.092238
 31
0.0
  0
LINE
  5
316
  8
0
 10
1.0855
 20
6.592238
 30
0.0
 11
1.5805
 21
6.592238
 31
0.0
  0
LINE
  5
317
  8
0
 10
1.0855
 20
6.592238
 30
0.0
 11
1.5805
 21
6.592238
 31
0.0
  0
LINE
  5
318
  8
0
 10
1.5805
 20
6.592238
 30
0.0
 11
2.1165
 21
6.592238
 31
0.0
  0
LINE
  5
319
  8
0
 10
2.8855
 20
6.592238
 30
0.0
 11
3.3805
 21
6.592238
 31
0.0
  0
LINE
  5
31A
  8
0
 10
3.3805
 20
6.592238
 30
0.0
 11
3.9165
 21
6.592238
 31
0.0
  0
LINE
  5
31B
  8
0
 10
4.6855
 20
6.592238
 30
0.0
 11
5.2215
 21
6.592238
 31
0.0
  0
LINE
  5
31C
  8
0
 10
5.2215
 20
6.592238
 30
0.0
 11
5.7165
 21
6.592238
 31
0.0
  0
LINE
  5
31D
  8
0
 10
6.4855
 20
6.592238
 30
0.0
 11
7.0215
 21
6.592238
 31
0.0
  0
LINE
  5
31E
  8
0
 10
7.0215
 20
6.592238
 30
0.0
 11
7.5165
 21
6.592238
 31
0.0
  0
LINE
  5
31F
  8
0
 10
8.2855
 20
6.592238
 30
0.0
 11
8.7805
 21
6.592238
 31
0.0
  0
LINE
  5
320
  8
0
 10
8.7805
 20
6.592238
 30
0.0
 11
9.3165
 21
6.592238
 31
0.0
  0
LINE
  5
321
  8
0
 10
10.0855
 20
6.592238
 30
0.0
 11
10.6215
 21
6.592238
 31
0.0
  0
LINE
  5
322
  8
0
 10
10.6215
 20
6.592238
 30
0.0
 11
11.1165
 21
6.592238
 31
0.0
  0
LINE
  5
323
  8
0
 10
11.8855
 20
6.592238
 30
0.0
 11
12.3805
 21
6.592238
 31
0.0
  0
LINE
  5
324
  8
0
 10
12.3805
 20
6.592238
 30
0.0
 11
12.9165
 21
6.592238
 31
0.0
  0
LINE
  5
325
  8
0
 10
13.6855
 20
6.592238
 30
0.0
 11
14.07325
 21
6.592238
 31
0.0
  0
LINE
  5
326
  8
0
 10
1.0985
 20
7.092238
 30
0.0
 11
1.5935
 21
7.092238
 31
0.0
  0
LINE
  5
327
  8
0
 10
1.0985
 20
7.092238
 30
0.0
 11
1.5935
 21
7.092238
 31
0.0
  0
LINE
  5
328
  8
0
 10
1.5935
 20
7.092238
 30
0.0
 11
2.1295
 21
7.092238
 31
0.0
  0
LINE
  5
329
  8
0
 10
2.8985
 20
7.092238
 30
0.0
 11
3.3935
 21
7.092238
 31
0.0
  0
LINE
  5
32A
  8
0
 10
3.3935
 20
7.092238
 30
0.0
 11
3.9295
 21
7.092238
 31
0.0
  0
LINE
  5
32B
  8
0
 10
4.6985
 20
7.092238
 30
0.0
 11
5.2345
 21
7.092238
 31
0.0
  0
LINE
  5
32C
  8
0
 10
5.2345
 20
7.092238
 30
0.0
 11
5.7295
 21
7.092238
 31
0.0
  0
LINE
  5
32D
  8
0
 10
6.4985
 20
7.092238
 30
0.0
 11
7.0345
 21
7.092238
 31
0.0
  0
LINE
  5
32E
  8
0
 10
7.0345
 20
7.092238
 30
0.0
 11
7.5295
 21
7.092238
 31
0.0
  0
LINE
  5
32F
  8
0
 10
8.2985
 20
7.092238
 30
0.0
 11
8.7935
 21
7.092238
 31
0.0
  0
LINE
  5
330
  8
0
 10
8.7935
 20
7.092238
 30
0.0
 11
9.3295
 21
7.092238
 31
0.0
  0
LINE
  5
331
  8
0
 10
10.0985
 20
7.092238
 30
0.0
 11
10.6345
 21
7.092238
 31
0.0
  0
LINE
  5
332
  8
0
 10
10.6345
 20
7.092238
 30
0.0
 11
11.1295
 21
7.092238
 31
0.0
  0
LINE
  5
333
  8
0
 10
11.8985
 20
7.092238
 30
0.0
 11
12.3935
 21
7.092238
 31
0.0
  0
LINE
  5
334
  8
0
 10
12.3935
 20
7.092238
 30
0.0
 11
12.9295
 21
7.092238
 31
0.0
  0
LINE
  5
335
  8
0
 10
13.6985
 20
7.092238
 30
0.0
 11
14.08196
 21
7.092238
 31
0.0
  0
LINE
  5
336
  8
0
 10
1.1105
 20
7.592238
 30
0.0
 11
1.11117
 21
7.592238
 31
0.0
  0
LINE
  5
337
  8
0
 10
1.1105
 20
7.592238
 30
0.0
 11
1.11117
 21
7.592238
 31
0.0
  0
LINE
  5
338
  8
0
 10
1.11117
 20
7.592238
 30
0.0
 11
1.6065
 21
7.592238
 31
0.0
  0
LINE
  5
339
  8
0
 10
1.6065
 20
7.592238
 30
0.0
 11
2.1425
 21
7.592238
 31
0.0
  0
LINE
  5
33A
  8
0
 10
2.9105
 20
7.592238
 30
0.0
 11
2.91117
 21
7.592238
 31
0.0
  0
LINE
  5
33B
  8
0
 10
2.91117
 20
7.592238
 30
0.0
 11
3.4065
 21
7.592238
 31
0.0
  0
LINE
  5
33C
  8
0
 10
3.4065
 20
7.592238
 30
0.0
 11
3.9425
 21
7.592238
 31
0.0
  0
LINE
  5
33D
  8
0
 10
4.7105
 20
7.592238
 30
0.0
 11
4.71117
 21
7.592238
 31
0.0
  0
LINE
  5
33E
  8
0
 10
4.71117
 20
7.592238
 30
0.0
 11
5.2065
 21
7.592238
 31
0.0
  0
LINE
  5
33F
  8
0
 10
5.2065
 20
7.592238
 30
0.0
 11
5.7425
 21
7.592238
 31
0.0
  0
LINE
  5
340
  8
0
 10
6.5105
 20
7.592238
 30
0.0
 11
6.51117
 21
7.592238
 31
0.0
  0
LINE
  5
341
  8
0
 10
6.51117
 20
7.592238
 30
0.0
 11
7.0065
 21
7.592238
 31
0.0
  0
LINE
  5
342
  8
0
 10
7.0065
 20
7.592238
 30
0.0
 11
7.5425
 21
7.592238
 31
0.0
  0
LINE
  5
343
  8
0
 10
8.3105
 20
7.592238
 30
0.0
 11
8.31117
 21
7.592238
 31
0.0
  0
LINE
  5
344
  8
0
 10
8.31117
 20
7.592238
 30
0.0
 11
8.8065
 21
7.592238
 31
0.0
  0
LINE
  5
345
  8
0
 10
8.8065
 20
7.592238
 30
0.0
 11
9.3425
 21
7.592238
 31
0.0
  0
LINE
  5
346
  8
0
 10
10.1105
 20
7.592238
 30
0.0
 11
10.11117
 21
7.592238
 31
0.0
  0
LINE
  5
347
  8
0
 10
10.11117
 20
7.592238
 30
0.0
 11
10.6065
 21
7.592238
 31
0.0
  0
LINE
  5
348
  8
0
 10
10.6065
 20
7.592238
 30
0.0
 11
11.1425
 21
7.592238
 31
0.0
  0
LINE
  5
349
  8
0
 10
11.9105
 20
7.592238
 30
0.0
 11
11.91117
 21
7.592238
 31
0.0
  0
LINE
  5
34A
  8
0
 10
11.91117
 20
7.592238
 30
0.0
 11
12.4065
 21
7.592238
 31
0.0
  0
LINE
  5
34B
  8
0
 10
12.4065
 20
7.592238
 30
0.0
 11
12.9425
 21
7.592238
 31
0.0
  0
LINE
  5
34C
  8
0
 10
13.7105
 20
7.592238
 30
0.0
 11
13.71117
 21
7.592238
 31
0.0
  0
LINE
  5
34D
  8
0
 10
13.71117
 20
7.592238
 30
0.0
 11
14.09067
 21
7.592238
 31
0.0
  0
LINE
  5
34E
  8
0
 10
1.1095
 20
8.092238
 30
0.0
 11
1.60483
 21
8.092238
 31
0.0
  0
LINE
  5
34F
  8
0
 10
1.1095
 20
8.092238
 30
0.0
 11
1.60483
 21
8.092238
 31
0.0
  0
LINE
  5
350
  8
0
 10
1.60483
 20
8.092238
 30
0.0
 11
2.1415
 21
8.092238
 31
0.0
  0
LINE
  5
351
  8
0
 10
2.9095
 20
8.092238
 30
0.0
 11
3.44617
 21
8.092238
 31
0.0
  0
LINE
  5
352
  8
0
 10
3.44617
 20
8.092238
 30
0.0
 11
3.9415
 21
8.092238
 31
0.0
  0
LINE
  5
353
  8
0
 10
4.7095
 20
8.092238
 30
0.0
 11
5.20483
 21
8.092238
 31
0.0
  0
LINE
  5
354
  8
0
 10
5.20483
 20
8.092238
 30
0.0
 11
5.7415
 21
8.092238
 31
0.0
  0
LINE
  5
355
  8
0
 10
6.5095
 20
8.092238
 30
0.0
 11
7.00483
 21
8.092238
 31
0.0
  0
LINE
  5
356
  8
0
 10
7.00483
 20
8.092238
 30
0.0
 11
7.5415
 21
8.092238
 31
0.0
  0
LINE
  5
357
  8
0
 10
8.3095
 20
8.092238
 30
0.0
 11
8.80483
 21
8.092238
 31
0.0
  0
LINE
  5
358
  8
0
 10
8.80483
 20
8.092238
 30
0.0
 11
9.3415
 21
8.092238
 31
0.0
  0
LINE
  5
359
  8
0
 10
10.1095
 20
8.092238
 30
0.0
 11
10.60483
 21
8.092238
 31
0.0
  0
LINE
  5
35A
  8
0
 10
10.60483
 20
8.092238
 30
0.0
 11
11.1415
 21
8.092238
 31
0.0
  0
LINE
  5
35B
  8
0
 10
11.9095
 20
8.092238
 30
0.0
 11
12.40483
 21
8.092238
 31
0.0
  0
LINE
  5
35C
  8
0
 10
12.40483
 20
8.092238
 30
0.0
 11
12.9415
 21
8.092238
 31
0.0
  0
LINE
  5
35D
  8
0
 10
13.7095
 20
8.092238
 30
0.0
 11
13.71017
 21
8.092238
 31
0.0
  0
LINE
  5
35E
  8
0
 10
13.71017
 20
8.092238
 30
0.0
 11
14.09
 21
8.092238
 31
0.0
  0
LINE
  5
35F
  8
0
 10
1.0945
 20
8.592238
 30
0.0
 11
1.5895
 21
8.592238
 31
0.0
  0
LINE
  5
360
  8
0
 10
1.0945
 20
8.592238
 30
0.0
 11
1.5895
 21
8.592238
 31
0.0
  0
LINE
  5
361
  8
0
 10
1.5895
 20
8.592238
 30
0.0
 11
2.1255
 21
8.592238
 31
0.0
  0
LINE
  5
362
  8
0
 10
2.8945
 20
8.592238
 30
0.0
 11
3.3895
 21
8.592238
 31
0.0
  0
LINE
  5
363
  8
0
 10
3.3895
 20
8.592238
 30
0.0
 11
3.9255
 21
8.592238
 31
0.0
  0
LINE
  5
364
  8
0
 10
4.6945
 20
8.592238
 30
0.0
 11
5.1895
 21
8.592238
 31
0.0
  0
LINE
  5
365
  8
0
 10
5.1895
 20
8.592238
 30
0.0
 11
5.7255
 21
8.592238
 31
0.0
  0
LINE
  5
366
  8
0
 10
6.4945
 20
8.592238
 30
0.0
 11
6.9895
 21
8.592238
 31
0.0
  0
LINE
  5
367
  8
0
 10
6.9895
 20
8.592238
 30
0.0
 11
7.5255
 21
8.592238
 31
0.0
  0
LINE
  5
368
  8
0
 10
8.2945
 20
8.592238
 30
0.0
 11
8.7895
 21
8.592238
 31
0.0
  0
LINE
  5
369
  8
0
 10
8.7895
 20
8.592238
 30
0.0
 11
9.3255
 21
8.592238
 31
0.0
  0
LINE
  5
36A
  8
0
 10
10.0945
 20
8.592238
 30
0.0
 11
10.5895
 21
8.592238
 31
0.0
  0
LINE
  5
36B
  8
0
 10
10.5895
 20
8.592238
 30
0.0
 11
11.1255
 21
8.592238
 31
0.0
  0
LINE
  5
36C
  8
0
 10
11.8945
 20
8.592238
 30
0.0
 11
12.3895
 21
8.592238
 31
0.0
  0
LINE
  5
36D
  8
0
 10
12.3895
 20
8.592238
 30
0.0
 11
12.9255
 21
8.592238
 31
0.0
  0
LINE
  5
36E
  8
0
 10
13.6945
 20
8.592238
 30
0.0
 11
14.07928
 21
8.592238
 31
0.0
  0
LINE
  5
36F
  8
0
 10
1.0795
 20
9.092238
 30
0.0
 11
1.5745
 21
9.092238
 31
0.0
  0
LINE
  5
370
  8
0
 10
1.0795
 20
9.092238
 30
0.0
 11
1.5745
 21
9.092238
 31
0.0
  0
LINE
  5
371
  8
0
 10
1.5745
 20
9.092238
 30
0.0
 11
2.1105
 21
9.092238
 31
0.0
  0
LINE
  5
372
  8
0
 10
2.8795
 20
9.092238
 30
0.0
 11
3.4155
 21
9.092238
 31
0.0
  0
LINE
  5
373
  8
0
 10
3.4155
 20
9.092238
 30
0.0
 11
3.9105
 21
9.092238
 31
0.0
  0
LINE
  5
374
  8
0
 10
4.6795
 20
9.092238
 30
0.0
 11
5.2155
 21
9.092238
 31
0.0
  0
LINE
  5
375
  8
0
 10
5.2155
 20
9.092238
 30
0.0
 11
5.7105
 21
9.092238
 31
0.0
  0
LINE
  5
376
  8
0
 10
6.4795
 20
9.092238
 30
0.0
 11
7.0155
 21
9.092238
 31
0.0
  0
LINE
  5
377
  8
0
 10
7.0155
 20
9.092238
 30
0.0
 11
7.5105
 21
9.092238
 31
0.0
  0
LINE
  5
378
  8
0
 10
8.2795
 20
9.092238
 30
0.0
 11
8.7745
 21
9.092238
 31
0.0
  0
LINE
  5
379
  8
0
 10
8.7745
 20
9.092238
 30
0.0
 11
9.3105
 21
9.092238
 31
0.0
  0
LINE
  5
37A
  8
0
 10
10.0795
 20
9.092238
 30
0.0
 11
10.5745
 21
9.092238
 31
0.0
  0
LINE
  5
37B
  8
0
 10
10.5745
 20
9.092238
 30
0.0
 11
11.1105
 21
9.092238
 31
0.0
  0
LINE
  5
37C
  8
0
 10
11.8795
 20
9.092238
 30
0.0
 11
12.3745
 21
9.092238
 31
0.0
  0
LINE
  5
37D
  8
0
 10
12.3745
 20
9.092238
 30
0.0
 11
12.9105
 21
9.092238
 31
0.0
  0
LINE
  5
37E
  8
0
 10
13.6795
 20
9.092238
 30
0.0
 11
14.06923
 21
9.092238
 31
0.0
  0
LINE
  5
37F
  8
0
 10
1.0635
 20
9.592238
 30
0.0
 11
1.60017
 21
9.592238
 31
0.0
  0
LINE
  5
380
  8
0
 10
1.0635
 20
9.592238
 30
0.0
 11
1.60017
 21
9.592238
 31
0.0
  0
LINE
  5
381
  8
0
 10
1.60017
 20
9.592238
 30
0.0
 11
2.0955
 21
9.592238
 31
0.0
  0
LINE
  5
382
  8
0
 10
2.8635
 20
9.592238
 30
0.0
 11
3.35883
 21
9.592238
 31
0.0
  0
LINE
  5
383
  8
0
 10
3.35883
 20
9.592238
 30
0.0
 11
3.8955
 21
9.592238
 31
0.0
  0
LINE
  5
384
  8
0
 10
4.6635
 20
9.592238
 30
0.0
 11
5.15883
 21
9.592238
 31
0.0
  0
LINE
  5
385
  8
0
 10
5.15883
 20
9.592238
 30
0.0
 11
5.6955
 21
9.592238
 31
0.0
  0
LINE
  5
386
  8
0
 10
6.4635
 20
9.592238
 30
0.0
 11
7.00017
 21
9.592238
 31
0.0
  0
LINE
  5
387
  8
0
 10
7.00017
 20
9.592238
 30
0.0
 11
7.4955
 21
9.592238
 31
0.0
  0
LINE
  5
388
  8
0
 10
8.2635
 20
9.592238
 30
0.0
 11
8.75883
 21
9.592238
 31
0.0
  0
LINE
  5
389
  8
0
 10
8.75883
 20
9.592238
 30
0.0
 11
9.2955
 21
9.592238
 31
0.0
  0
LINE
  5
38A
  8
0
 10
10.0635
 20
9.592238
 30
0.0
 11
10.55883
 21
9.592238
 31
0.0
  0
LINE
  5
38B
  8
0
 10
10.55883
 20
9.592238
 30
0.0
 11
11.0955
 21
9.592238
 31
0.0
  0
LINE
  5
38C
  8
0
 10
11.8635
 20
9.592238
 30
0.0
 11
12.35883
 21
9.592238
 31
0.0
  0
LINE
  5
38D
  8
0
 10
12.35883
 20
9.592238
 30
0.0
 11
12.8955
 21
9.592238
 31
0.0
  0
LINE
  5
38E
  8
0
 10
13.6635
 20
9.592238
 30
0.0
 11
13.66417
 21
9.592238
 31
0.0
  0
LINE
  5
38F
  8
0
 10
13.66417
 20
9.592238
 30
0.0
 11
14.05918
 21
9.592238
 31
0.0
  0
LINE
  5
390
  8
0
 10
1.0485
 20
10.092238
 30
0.0
 11
1.5845
 21
10.092238
 31
0.0
  0
LINE
  5
391
  8
0
 10
1.0485
 20
10.092238
 30
0.0
 11
1.5845
 21
10.092238
 31
0.0
  0
LINE
  5
392
  8
0
 10
1.5845
 20
10.092238
 30
0.0
 11
2.0795
 21
10.092238
 31
0.0
  0
LINE
  5
393
  8
0
 10
2.8485
 20
10.092238
 30
0.0
 11
3.3435
 21
10.092238
 31
0.0
  0
LINE
  5
394
  8
0
 10
3.3435
 20
10.092238
 30
0.0
 11
3.8795
 21
10.092238
 31
0.0
  0
LINE
  5
395
  8
0
 10
4.6485
 20
10.092238
 30
0.0
 11
5.1435
 21
10.092238
 31
0.0
  0
LINE
  5
396
  8
0
 10
5.1435
 20
10.092238
 30
0.0
 11
5.6795
 21
10.092238
 31
0.0
  0
LINE
  5
397
  8
0
 10
6.4485
 20
10.092238
 30
0.0
 11
6.9845
 21
10.092238
 31
0.0
  0
LINE
  5
398
  8
0
 10
6.9845
 20
10.092238
 30
0.0
 11
7.4795
 21
10.092238
 31
0.0
  0
LINE
  5
399
  8
0
 10
8.2485
 20
10.092238
 30
0.0
 11
8.7435
 21
10.092238
 31
0.0
  0
LINE
  5
39A
  8
0
 10
8.7435
 20
10.092238
 30
0.0
 11
9.2795
 21
10.092238
 31
0.0
  0
LINE
  5
39B
  8
0
 10
10.0485
 20
10.092238
 30
0.0
 11
10.5435
 21
10.092238
 31
0.0
  0
LINE
  5
39C
  8
0
 10
10.5435
 20
10.092238
 30
0.0
 11
11.0795
 21
10.092238
 31
0.0
  0
LINE
  5
39D
  8
0
 10
11.8485
 20
10.092238
 30
0.0
 11
12.3435
 21
10.092238
 31
0.0
  0
LINE
  5
39E
  8
0
 10
12.3435
 20
10.092238
 30
0.0
 11
12.8795
 21
10.092238
 31
0.0
  0
LINE
  5
39F
  8
0
 10
13.6485
 20
10.092238
 30
0.0
 11
14.04846
 21
10.092238
 31
0.0
  0
LINE
  5
3A0
  8
0
 10
1.0335
 20
10.592238
 30
0.0
 11
1.5285
 21
10.592238
 31
0.0
  0
LINE
  5
3A1
  8
0
 10
1.0335
 20
10.592238
 30
0.0
 11
1.5285
 21
10.592238
 31
0.0
  0
LINE
  5
3A2
  8
0
 10
1.5285
 20
10.592238
 30
0.0
 11
2.0645
 21
10.592238
 31
0.0
  0
LINE
  5
3A3
  8
0
 10
2.8335
 20
10.592238
 30
0.0
 11
3.3695
 21
10.592238
 31
0.0
  0
LINE
  5
3A4
  8
0
 10
3.3695
 20
10.592238
 30
0.0
 11
3.8645
 21
10.592238
 31
0.0
  0
LINE
  5
3A5
  8
0
 10
4.6335
 20
10.592238
 30
0.0
 11
5.1285
 21
10.592238
 31
0.0
  0
LINE
  5
3A6
  8
0
 10
5.1285
 20
10.592238
 30
0.0
 11
5.6645
 21
10.592238
 31
0.0
  0
LINE
  5
3A7
  8
0
 10
6.4335
 20
10.592238
 30
0.0
 11
6.9285
 21
10.592238
 31
0.0
  0
LINE
  5
3A8
  8
0
 10
6.9285
 20
10.592238
 30
0.0
 11
7.4645
 21
10.592238
 31
0.0
  0
LINE
  5
3A9
  8
0
 10
8.2335
 20
10.592238
 30
0.0
 11
8.7285
 21
10.592238
 31
0.0
  0
LINE
  5
3AA
  8
0
 10
8.7285
 20
10.592238
 30
0.0
 11
9.2645
 21
10.592238
 31
0.0
  0
LINE
  5
3AB
  8
0
 10
10.0335
 20
10.592238
 30
0.0
 11
10.5285
 21
10.592238
 31
0.0
  0
LINE
  5
3AC
  8
0
 10
10.5285
 20
10.592238
 30
0.0
 11
11.0645
 21
10.592238
 31
0.0
  0
LINE
  5
3AD
  8
0
 10
11.8335
 20
10.592238
 30
0.0
 11
12.3285
 21
10.592238
 31
0.0
  0
LINE
  5
3AE
  8
0
 10
12.3285
 20
10.592238
 30
0.0
 11
12.8645
 21
10.592238
 31
0.0
  0
LINE
  5
3AF
  8
0
 10
13.6335
 20
10.592238
 30
0.0
 11
14.03841
 21
10.592238
 31
0.0
  0
LINE
  5
3B0
  8
0
 10
1.0185
 20
11.092238
 30
0.0
 11
1.5545
 21
11.092238
 31
0.0
  0
LINE
  5
3B1
  8
0
 10
1.0185
 20
11.092238
 30
0.0
 11
1.5545
 21
11.092238
 31
0.0
  0
LINE
  5
3B2
  8
0
 10
1.5545
 20
11.092238
 30
0.0
 11
2.0495
 21
11.092238
 31
0.0
  0
LINE
  5
3B3
  8
0
 10
2.8185
 20
11.092238
 30
0.0
 11
3.3545
 21
11.092238
 31
0.0
  0
LINE
  5
3B4
  8
0
 10
3.3545
 20
11.092238
 30
0.0
 11
3.8495
 21
11.092238
 31
0.0
  0
LINE
  5
3B5
  8
0
 10
4.6185
 20
11.092238
 30
0.0
 11
5.1545
 21
11.092238
 31
0.0
  0
LINE
  5
3B6
  8
0
 10
5.1545
 20
11.092238
 30
0.0
 11
5.6495
 21
11.092238
 31
0.0
  0
LINE
  5
3B7
  8
0
 10
6.4185
 20
11.092238
 30
0.0
 11
6.9545
 21
11.092238
 31
0.0
  0
LINE
  5
3B8
  8
0
 10
6.9545
 20
11.092238
 30
0.0
 11
7.4495
 21
11.092238
 31
0.0
  0
LINE
  5
3B9
  8
0
 10
8.2185
 20
11.092238
 30
0.0
 11
8.7135
 21
11.092238
 31
0.0
  0
LINE
  5
3BA
  8
0
 10
8.7135
 20
11.092238
 30
0.0
 11
9.2495
 21
11.092238
 31
0.0
  0
LINE
  5
3BB
  8
0
 10
10.0185
 20
11.092238
 30
0.0
 11
10.5135
 21
11.092238
 31
0.0
  0
LINE
  5
3BC
  8
0
 10
10.5135
 20
11.092238
 30
0.0
 11
11.0495
 21
11.092238
 31
0.0
  0
LINE
  5
3BD
  8
0
 10
11.8185
 20
11.092238
 30
0.0
 11
12.3135
 21
11.092238
 31
0.0
  0
LINE
  5
3BE
  8
0
 10
12.3135
 20
11.092238
 30
0.0
 11
12.8495
 21
11.092238
 31
0.0
  0
LINE
  5
3BF
  8
0
 10
13.6185
 20
11.092238
 30
0.0
 11
14.02836
 21
11.092238
 31
0.0
  0
LINE
  5
3C0
  8
0
 10
1.0025
 20
11.592238
 30
0.0
 11
1.4975
 21
11.592238
 31
0.0
  0
LINE
  5
3C1
  8
0
 10
1.0025
 20
11.592238
 30
0.0
 11
1.4975
 21
11.592238
 31
0.0
  0
LINE
  5
3C2
  8
0
 10
1.4975
 20
11.592238
 30
0.0
 11
2.0335
 21
11.592238
 31
0.0
  0
LINE
  5
3C3
  8
0
 10
2.8025
 20
11.592238
 30
0.0
 11
3.3385
 21
11.592238
 31
0.0
  0
LINE
  5
3C4
  8
0
 10
3.3385
 20
11.592238
 30
0.0
 11
3.8335
 21
11.592238
 31
0.0
  0
LINE
  5
3C5
  8
0
 10
4.6025
 20
11.592238
 30
0.0
 11
5.1385
 21
11.592238
 31
0.0
  0
LINE
  5
3C6
  8
0
 10
5.1385
 20
11.592238
 30
0.0
 11
5.6335
 21
11.592238
 31
0.0
  0
LINE
  5
3C7
  8
0
 10
6.4025
 20
11.592238
 30
0.0
 11
6.9385
 21
11.592238
 31
0.0
  0
LINE
  5
3C8
  8
0
 10
6.9385
 20
11.592238
 30
0.0
 11
7.4335
 21
11.592238
 31
0.0
  0
LINE
  5
3C9
  8
0
 10
8.2025
 20
11.592238
 30
0.0
 11
8.6975
 21
11.592238
 31
0.0
  0
LINE
  5
3CA
  8
0
 10
8.6975
 20
11.592238
 30
0.0
 11
9.2335
 21
11.592238
 31
0.0
  0
LINE
  5
3CB
  8
0
 10
10.0025
 20
11.592238
 30
0.0
 11
10.4975
 21
11.592238
 31
0.0
  0
LINE
  5
3CC
  8
0
 10
10.4975
 20
11.592238
 30
0.0
 11
11.0335
 21
11.592238
 31
0.0
  0
LINE
  5
3CD
  8
0
 10
11.8025
 20
11.592238
 30
0.0
 11
12.2975
 21
11.592238
 31
0.0
  0
LINE
  5
3CE
  8
0
 10
12.2975
 20
11.592238
 30
0.0
 11
12.8335
 21
11.592238
 31
0.0
  0
LINE
  5
3CF
  8
0
 10
13.6025
 20
11.592238
 30
0.0
 11
14.01764
 21
11.592238
 31
0.0
  0
LINE
  5
3D0
  8
0
 10
0.9875
 20
12.092238
 30
0.0
 11
1.5235
 21
12.092238
 31
0.0
  0
LINE
  5
3D1
  8
0
 10
0.9875
 20
12.092238
 30
0.0
 11
1.5235
 21
12.092238
 31
0.0
  0
LINE
  5
3D2
  8
0
 10
1.5235
 20
12.092238
 30
0.0
 11
2.0185
 21
12.092238
 31
0.0
  0
LINE
  5
3D3
  8
0
 10
2.7875
 20
12.092238
 30
0.0
 11
3.2825
 21
12.092238
 31
0.0
  0
LINE
  5
3D4
  8
0
 10
3.2825
 20
12.092238
 30
0.0
 11
3.8185
 21
12.092238
 31
0.0
  0
LINE
  5
3D5
  8
0
 10
4.5875
 20
12.092238
 30
0.0
 11
5.0825
 21
12.092238
 31
0.0
  0
LINE
  5
3D6
  8
0
 10
5.0825
 20
12.092238
 30
0.0
 11
5.6185
 21
12.092238
 31
0.0
  0
LINE
  5
3D7
  8
0
 10
6.3875
 20
12.092238
 30
0.0
 11
6.9235
 21
12.092238
 31
0.0
  0
LINE
  5
3D8
  8
0
 10
6.9235
 20
12.092238
 30
0.0
 11
7.4185
 21
12.092238
 31
0.0
  0
LINE
  5
3D9
  8
0
 10
8.1875
 20
12.092238
 30
0.0
 11
8.6825
 21
12.092238
 31
0.0
  0
LINE
  5
3DA
  8
0
 10
8.6825
 20
12.092238
 30
0.0
 11
9.2185
 21
12.092238
 31
0.0
  0
LINE
  5
3DB
  8
0
 10
9.9875
 20
12.092238
 30
0.0
 11
10.4825
 21
12.092238
 31
0.0
  0
LINE
  5
3DC
  8
0
 10
10.4825
 20
12.092238
 30
0.0
 11
11.0185
 21
12.092238
 31
0.0
  0
LINE
  5
3DD
  8
0
 10
11.7875
 20
12.092238
 30
0.0
 11
12.3235
 21
12.092238
 31
0.0
  0
LINE
  5
3DE
  8
0
 10
12.3235
 20
12.092238
 30
0.0
 11
12.8185
 21
12.092238
 31
0.0
  0
LINE
  5
3DF
  8
0
 10
13.5875
 20
12.092238
 30
0.0
 11
14.00759
 21
12.092238
 31
0.0
  0
LINE
  5
3E0
  8
0
 10
0.9725
 20
12.592238
 30
0.0
 11
1.4675
 21
12.592238
 31
0.0
  0
LINE
  5
3E1
  8
0
 10
0.9725
 20
12.592238
 30
0.0
 11
1.4675
 21
12.592238
 31
0.0
  0
LINE
  5
3E2
  8
0
 10
1.4675
 20
12.592238
 30
0.0
 11
2.0035
 21
12.592238
 31
0.0
  0
LINE
  5
3E3
  8
0
 10
2.7725
 20
12.592238
 30
0.0
 11
3.3085
 21
12.592238
 31
0.0
  0
LINE
  5
3E4
  8
0
 10
3.3085
 20
12.592238
 30
0.0
 11
3.8035
 21
12.592238
 31
0.0
  0
LINE
  5
3E5
  8
0
 10
4.5725
 20
12.592238
 30
0.0
 11
5.0675
 21
12.592238
 31
0.0
  0
LINE
  5
3E6
  8
0
 10
5.0675
 20
12.592238
 30
0.0
 11
5.6035
 21
12.592238
 31
0.0
  0
LINE
  5
3E7
  8
0
 10
6.3725
 20
12.592238
 30
0.0
 11
6.8675
 21
12.592238
 31
0.0
  0
LINE
  5
3E8
  8
0
 10
6.8675
 20
12.592238
 30
0.0
 11
7.4035
 21
12.592238
 31
0.0
  0
LINE
  5
3E9
  8
0
 10
8.1725
 20
12.592238
 30
0.0
 11
8.6675
 21
12.592238
 31
0.0
  0
LINE
  5
3EA
  8
0
 10
8.6675
 20
12.592238
 30
0.0
 11
9.2035
 21
12.592238
 31
0.0
  0
LINE
  5
3EB
  8
0
 10
9.9725
 20
12.592238
 30
0.0
 11
10.4675
 21
12.592238
 31
0.0
  0
LINE
  5
3EC
  8
0
 10
10.4675
 20
12.592238
 30
0.0
 11
11.0035
 21
12.592238
 31
0.0
  0
LINE
  5
3ED
  8
0
 10
11.7725
 20
12.592238
 30
0.0
 11
12.2675
 21
12.592238
 31
0.0
  0
LINE
  5
3EE
  8
0
 10
12.2675
 20
12.592238
 30
0.0
 11
12.8035
 21
12.592238
 31
0.0
  0
LINE
  5
3EF
  8
0
 10
13.5725
 20
12.592238
 30
0.0
 11
13.99754
 21
12.592238
 31
0.0
  0
LINE
  5
3F0
  8
0
 10
0.9855
 20
13.092238
 30
0.0
 11
1.4805
 21
13.092238
 31
0.0
  0
LINE
  5
3F1
  8
0
 10
0.9855
 20
13.092238
 30
0.0
 11
1.4805
 21
13.092238
 31
0.0
  0
LINE
  5
3F2
  8
0
 10
1.4805
 20
13.092238
 30
0.0
 11
2.0165
 21
13.092238
 31
0.0
  0
LINE
  5
3F3
  8
0
 10
2.7855
 20
13.092238
 30
0.0
 11
3.2805
 21
13.092238
 31
0.0
  0
LINE
  5
3F4
  8
0
 10
3.2805
 20
13.092238
 30
0.0
 11
3.8165
 21
13.092238
 31
0.0
  0
LINE
  5
3F5
  8
0
 10
4.5855
 20
13.092238
 30
0.0
 11
5.0805
 21
13.092238
 31
0.0
  0
LINE
  5
3F6
  8
0
 10
5.0805
 20
13.092238
 30
0.0
 11
5.6165
 21
13.092238
 31
0.0
  0
LINE
  5
3F7
  8
0
 10
6.3855
 20
13.092238
 30
0.0
 11
6.8805
 21
13.092238
 31
0.0
  0
LINE
  5
3F8
  8
0
 10
6.8805
 20
13.092238
 30
0.0
 11
7.4165
 21
13.092238
 31
0.0
  0
LINE
  5
3F9
  8
0
 10
8.1855
 20
13.092238
 30
0.0
 11
8.6805
 21
13.092238
 31
0.0
  0
LINE
  5
3FA
  8
0
 10
8.6805
 20
13.092238
 30
0.0
 11
9.2165
 21
13.092238
 31
0.0
  0
LINE
  5
3FB
  8
0
 10
9.9855
 20
13.092238
 30
0.0
 11
10.4805
 21
13.092238
 31
0.0
  0
LINE
  5
3FC
  8
0
 10
10.4805
 20
13.092238
 30
0.0
 11
11.0165
 21
13.092238
 31
0.0
  0
LINE
  5
3FD
  8
0
 10
11.7855
 20
13.092238
 30
0.0
 11
12.2805
 21
13.092238
 31
0.0
  0
LINE
  5
3FE
  8
0
 10
12.2805
 20
13.092238
 30
0.0
 11
12.8165
 21
13.092238
 31
0.0
  0
LINE
  5
3FF
  8
0
 10
13.5855
 20
13.092238
 30
0.0
 11
14.00625
 21
13.092238
 31
0.0
  0
LINE
  5
400
  8
0
 10
1.0455
 20
13.592238
 30
0.0
 11
1.5405
 21
13.592238
 31
0.0
  0
LINE
  5
401
  8
0
 10
1.0455
 20
13.592238
 30
0.0
 11
1.5405
 21
13.592238
 31
0.0
  0
LINE
  5
402
  8
0
 10
1.5405
 20
13.592238
 30
0.0
 11
2.0765
 21
13.592238
 31
0.0
  0
LINE
  5
403
  8
0
 10
2.8455
 20
13.592238
 30
0.0
 11
3.3405
 21
13.592238
 31
0.0
  0
LINE
  5
404
  8
0
 10
3.3405
 20
13.592238
 30
0.0
 11
3.8765
 21
13.592238
 31
0.0
  0
LINE
  5
405
  8
0
 10
4.6455
 20
13.592238
 30
0.0
 11
5.1815
 21
13.592238
 31
0.0
  0
LINE
  5
406
  8
0
 10
5.1815
 20
13.592238
 30
0.0
 11
5.6765
 21
13.592238
 31
0.0
  0
LINE
  5
407
  8
0
 10
6.4455
 20
13.592238
 30
0.0
 11
6.9815
 21
13.592238
 31
0.0
  0
LINE
  5
408
  8
0
 10
6.9815
 20
13.592238
 30
0.0
 11
7.4765
 21
13.592238
 31
0.0
  0
LINE
  5
409
  8
0
 10
8.2455
 20
13.592238
 30
0.0
 11
8.7815
 21
13.592238
 31
0.0
  0
LINE
  5
40A
  8
0
 10
8.7815
 20
13.592238
 30
0.0
 11
9.2765
 21
13.592238
 31
0.0
  0
LINE
  5
40B
  8
0
 10
10.0455
 20
13.592238
 30
0.0
 11
10.5405
 21
13.592238
 31
0.0
  0
LINE
  5
40C
  8
0
 10
10.5405
 20
13.592238
 30
0.0
 11
11.0765
 21
13.592238
 31
0.0
  0
LINE
  5
40D
  8
0
 10
11.8455
 20
13.592238
 30
0.0
 11
12.3405
 21
13.592238
 31
0.0
  0
LINE
  5
40E
  8
0
 10
12.3405
 20
13.592238
 30
0.0
 11
12.8765
 21
13.592238
 31
0.0
  0
LINE
  5
40F
  8
0
 10
13.6455
 20
13.592238
 30
0.0
 11
14.04645
 21
13.592238
 31
0.0
  0
LINE
  5
410
  8
0
 10
1.1885
 20
14.092238
 30
0.0
 11
1.7245
 21
14.092238
 31
0.0
  0
LINE
  5
411
  8
0
 10
1.1885
 20
14.092238
 30
0.0
 11
1.7245
 21
14.092238
 31
0.0
  0
LINE
  5
412
  8
0
 10
1.7245
 20
14.092238
 30
0.0
 11
2.2195
 21
14.092238
 31
0.0
  0
LINE
  5
413
  8
0
 10
2.9885
 20
14.092238
 30
0.0
 11
3.5245
 21
14.092238
 31
0.0
  0
LINE
  5
414
  8
0
 10
3.5245
 20
14.092238
 30
0.0
 11
4.0195
 21
14.092238
 31
0.0
  0
LINE
  5
415
  8
0
 10
4.7885
 20
14.092238
 30
0.0
 11
5.3245
 21
14.092238
 31
0.0
  0
LINE
  5
416
  8
0
 10
5.3245
 20
14.092238
 30
0.0
 11
5.8195
 21
14.092238
 31
0.0
  0
LINE
  5
417
  8
0
 10
6.5885
 20
14.092238
 30
0.0
 11
7.1245
 21
14.092238
 31
0.0
  0
LINE
  5
418
  8
0
 10
7.1245
 20
14.092238
 30
0.0
 11
7.6195
 21
14.092238
 31
0.0
  0
LINE
  5
419
  8
0
 10
8.3885
 20
14.092238
 30
0.0
 11
8.8835
 21
14.092238
 31
0.0
  0
LINE
  5
41A
  8
0
 10
8.8835
 20
14.092238
 30
0.0
 11
9.4195
 21
14.092238
 31
0.0
  0
LINE
  5
41B
  8
0
 10
10.1885
 20
14.092238
 30
0.0
 11
10.6835
 21
14.092238
 31
0.0
  0
LINE
  5
41C
  8
0
 10
10.6835
 20
14.092238
 30
0.0
 11
11.2195
 21
14.092238
 31
0.0
  0
LINE
  5
41D
  8
0
 10
11.9885
 20
14.092238
 30
0.0
 11
12.4835
 21
14.092238
 31
0.0
  0
LINE
  5
41E
  8
0
 10
12.4835
 20
14.092238
 30
0.0
 11
13.0195
 21
14.092238
 31
0.0
  0
LINE
  5
41F
  8
0
 10
13.7885
 20
14.092238
 30
0.0
 11
14.14226
 21
14.092238
 31
0.0
  0
LINE
  5
420
  8
0
 10
1.7555
 20
14.592238
 30
0.0
 11
2.2505
 21
14.592238
 31
0.0
  0
LINE
  5
421
  8
0
 10
1.7555
 20
14.592238
 30
0.0
 11
2.2505
 21
14.592238
 31
0.0
  0
LINE
  5
422
  8
0
 10
2.2505
 20
14.592238
 30
0.0
 11
2.7865
 21
14.592238
 31
0.0
  0
LINE
  5
423
  8
0
 10
3.5555
 20
14.592238
 30
0.0
 11
4.0505
 21
14.592238
 31
0.0
  0
LINE
  5
424
  8
0
 10
4.0505
 20
14.592238
 30
0.0
 11
4.5865
 21
14.592238
 31
0.0
  0
LINE
  5
425
  8
0
 10
5.3555
 20
14.592238
 30
0.0
 11
5.63534
 21
14.592238
 31
0.0
  0
LINE
  5
426
  8
0
 10
6.5035
 20
14.592238
 30
0.0
 11
6.9985
 21
14.592238
 31
0.0
  0
LINE
  5
427
  8
0
 10
6.9985
 20
14.592238
 30
0.0
 11
7.5345
 21
14.592238
 31
0.0
  0
LINE
  5
428
  8
0
 10
8.3035
 20
14.592238
 30
0.0
 11
8.8395
 21
14.592238
 31
0.0
  0
LINE
  5
429
  8
0
 10
8.8395
 20
14.592238
 30
0.0
 11
9.3345
 21
14.592238
 31
0.0
  0
LINE
  5
42A
  8
0
 10
10.1035
 20
14.592238
 30
0.0
 11
10.5985
 21
14.592238
 31
0.0
  0
LINE
  5
42B
  8
0
 10
10.5985
 20
14.592238
 30
0.0
 11
11.1345
 21
14.592238
 31
0.0
  0
LINE
  5
42C
  8
0
 10
11.9035
 20
14.592238
 30
0.0
 11
12.3985
 21
14.592238
 31
0.0
  0
LINE
  5
42D
  8
0
 10
12.3985
 20
14.592238
 30
0.0
 11
12.9345
 21
14.592238
 31
0.0
  0
LINE
  5
42E
  8
0
 10
13.7035
 20
14.592238
 30
0.0
 11
14.08531
 21
14.592238
 31
0.0
  0
ENDSEC
  0
EOF
