  0
SECTION
  2
HEADER
  9
$ACADVER
  1
AC1009
  9
$DWGCODEPAGE
  3
ANSI_1252
  9
$INSBASE
 10
0.0
 20
0.0
 30
0.0
  9
$EXTMIN
 10
1e+20
 20
1e+20
 30
1e+20
  9
$EXTMAX
 10
-1e+20
 20
-1e+20
 30
-1e+20
  9
$LIMMIN
 10
0.0
 20
0.0
  9
$LIMMAX
 10
420.0
 20
297.0
  9
$ORTHOMODE
 70
0
  9
$REGENMODE
 70
1
  9
$FILLMODE
 70
1
  9
$DRAGMODE
 70
2
  9
$QTEXTMODE
 70
0
  9
$MIRRTEXT
 70
1
  9
$OSMODE
 70
20583
  9
$LTSCALE
 40
1.0
  9
$ATTMODE
 70
1
  9
$TEXTSIZE
 40
2.5
  9
$TRACEWID
 40
1.0
  9
$TEXTSTYLE
  7
Standard
  9
$CLAYER
  8
0
  9
$CELTYPE
  6
ByLayer
  9
$CECOLOR
 62
256
  9
$DIMSCALE
 40
1.0
  9
$DIMASZ
 40
2.5
  9
$DIMEXO
 40
0.625
  9
$DIMDLI
 40
3.75
  9
$DIMRND
 40
0.0
  9
$DIMDLE
 40
0.0
  9
$DIMEXE
 40
1.25
  9
$DIMTP
 40
0.0
  9
$DIMTM
 40
0.0
  9
$DIMTXT
 40
2.5
  9
$DIMCEN
 40
2.5
  9
$DIMTSZ
 40
0.0
  9
$DIMTOL
 70
0
  9
$DIMLIM
 70
0
  9
$DIMTIH
 70
0
  9
$DIMTOH
 70
0
  9
$DIMSE1
 70
0
  9
$DIMSE2
 70
0
  9
$DIMTAD
 70
1
  9
$DIMZIN
 70
8
  9
$DIMBLK
  1

  9
$DIMASO
 70
1
  9
$DIMSHO
 70
1
  9
$DIMPOST
  1

  9
$DIMAPOST
  1

  9
$DIMALT
 70
0
  9
$DIMALTD
 70
3
  9
$DIMALTF
 40
0.03937007874
  9
$DIMLFAC
 40
1.0
  9
$DIMTOFL
 70
1
  9
$DIMTVP
 40
0.0
  9
$DIMTIX
 70
0
  9
$DIMSOXD
 70
0
  9
$DIMSAH
 70
0
  9
$DIMBLK1
  1

  9
$DIMBLK2
  1

  9
$DIMSTYLE
  2
ISO-25
  9
$DIMCLRD
 70
0
  9
$DIMCLRE
 70
0
  9
$DIMCLRT
 70
0
  9
$DIMTFAC
 40
1.0
  9
$DIMGAP
 40
0.625
  9
$COORDS
 70
1
  9
$ATTDIA
 70
0
  9
$ATTREQ
 70
1
  9
$HANDLING
 70
1
  9
$LUNITS
 70
2
  9
$LUPREC
 70
4
  9
$SKETCHINC
 40
1.0
  9
$FILLETRAD
 40
10.0
  9
$AUNITS
 70
0
  9
$AUPREC
 70
2
  9
$MENU
  1
.
  9
$ELEVATION
 40
0.0
  9
$PELEVATION
 40
0.0
  9
$THICKNESS
 40
0.0
  9
$LIMCHECK
 70
0
  9
$CHAMFERA
 40
0.0
  9
$CHAMFERB
 40
0.0
  9
$SKPOLY
 70
0
  9
$TDCREATE
 40
2460888.4282291667
  9
$TDUPDATE
 40
2460888.4282291667
  9
$TDINDWG
 40
0.0
  9
$TDUSRTIMER
 40
0.0
  9
$USRTIMER
 70
1
  9
$ANGBASE
 50
0.0
  9
$ANGDIR
 70
0
  9
$PDMODE
 70
0
  9
$PDSIZE
 40
0.0
  9
$PLINEWID
 40
0.0
  9
$SPLFRAME
 70
0
  9
$SPLINETYPE
 70
6
  9
$SPLINESEGS
 70
8
  9
$HANDSEED
  5
431
  9
$SURFTAB1
 70
6
  9
$SURFTAB2
 70
6
  9
$SURFTYPE
 70
6
  9
$SURFU
 70
6
  9
$SURFV
 70
6
  9
$UCSNAME
  2

  9
$UCSORG
 10
0.0
 20
0.0
 30
0.0
  9
$UCSXDIR
 10
1.0
 20
0.0
 30
0.0
  9
$UCSYDIR
 10
0.0
 20
1.0
 30
0.0
  9
$PUCSNAME
  2

  9
$PUCSORG
 10
0.0
 20
0.0
 30
0.0
  9
$PUCSXDIR
 10
1.0
 20
0.0
 30
0.0
  9
$PUCSYDIR
 10
0.0
 20
1.0
 30
0.0
  9
$USERI1
 70
0
  9
$USERI2
 70
0
  9
$USERI3
 70
0
  9
$USERI4
 70
0
  9
$USERI5
 70
0
  9
$USERR1
 40
0.0
  9
$USERR2
 40
0.0
  9
$USERR3
 40
0.0
  9
$USERR4
 40
0.0
  9
$USERR5
 40
0.0
  9
$WORLDVIEW
 70
1
  9
$SHADEDGE
 70
3
  9
$SHADEDIF
 70
70
  9
$TILEMODE
 70
1
  9
$MAXACTVP
 70
64
  9
$PLIMCHECK
 70
0
  9
$PEXTMIN
 10
1e+20
 20
1e+20
 30
1e+20
  9
$PEXTMAX
 10
-1e+20
 20
-1e+20
 30
-1e+20
  9
$PLIMMIN
 10
0.0
 20
0.0
  9
$PLIMMAX
 10
420.0
 20
297.0
  9
$UNITMODE
 70
0
  9
$VISRETAIN
 70
1
  9
$PLINEGEN
 70
0
  9
$PSLTSCALE
 70
1
  0
ENDSEC
  0
SECTION
  2
TABLES
  0
TABLE
  2
VPORT
 70
1
  0
VPORT
  5
23
  2
*Active
 70
0
 10
0.0
 20
0.0
 11
1.0
 21
1.0
 12
0.0
 22
0.0
 13
0.0
 23
0.0
 14
0.5
 24
0.5
 15
0.5
 25
0.5
 16
0.0
 26
0.0
 36
1.0
 17
0.0
 27
0.0
 37
0.0
 40
1000.0
 41
1.34
 42
50.0
 43
0.0
 44
0.0
 50
0.0
 51
0.0
 71
0
 72
1000
 73
1
 74
3
 75
0
 76
0
 77
0
 78
0
  0
ENDTAB
  0
TABLE
  2
LTYPE
 70
3
  0
LTYPE
  5
24
  2
ByBlock
 70
0
  3

 72
65
 73
0
 40
0.0
  0
LTYPE
  5
25
  2
ByLayer
 70
0
  3

 72
65
 73
0
 40
0.0
  0
LTYPE
  5
26
  2
Continuous
 70
0
  3

 72
65
 73
0
 40
0.0
  0
ENDTAB
  0
TABLE
  2
LAYER
 70
2
  0
LAYER
  5
27
  2
0
 70
0
 62
7
  6
Continuous
  0
LAYER
  5
28
  2
Defpoints
 70
0
 62
7
  6
Continuous
  0
ENDTAB
  0
TABLE
  2
STYLE
 70
1
  0
STYLE
  5
29
  2
Standard
 70
0
 40
0.0
 41
1.0
 50
0.0
 71
0
 42
2.5
  3
txt
  4

  0
ENDTAB
  0
TABLE
  2
VIEW
 70
0
  0
ENDTAB
  0
TABLE
  2
UCS
 70
0
  0
ENDTAB
  0
TABLE
  2
APPID
 70
3
  0
APPID
  5
2A
  2
ACAD
 70
0
  0
APPID
  5
42F
  2
HATCHBACKGROUNDCOLOR
 70
0
  0
APPID
  5
430
  2
EZDXF
 70
0
  0
ENDTAB
  0
TABLE
  2
DIMSTYLE
 70
1
  0
DIMSTYLE
105
2B
  2
Standard
 70
0
  3

  4

  5

  6

  7

 40
1.0
 41
2.5
 42
0.625
 43
3.75
 44
1.25
 45
0.0
 46
0.0
 47
0.0
 48
0.0
140
2.5
141
2.5
142
0.0
143
0.03937007874
144
1.0
145
0.0
146
1.0
147
0.625
 71
0
 72
0
 73
0
 74
0
 75
0
 76
0
 77
1
 78
8
170
0
171
3
172
1
173
0
174
0
175
0
176
0
177
0
178
0
  0
ENDTAB
  0
ENDSEC
  0
SECTION
  2
BLOCKS
  0
BLOCK
  5
18
  8
0
  2
$Model_Space
 70
0
 10
0.0
 20
0.0
 30
0.0
  3
$Model_Space
  1

1001
EZDXF
1000
CREATED_BY_EZDXF
1000
1.4.2 @ 2025-07-31T13:16:39.067022+00:00
1000
WRITTEN_BY_EZDXF
1000
1.4.2 @ 2025-07-31T13:16:39.118717+00:00
  0
ENDBLK
  5
19
  8
0
  0
BLOCK
  5
1C
  8
0
  2
$Paper_Space
 70
0
 10
0.0
 20
0.0
 30
0.0
  3
$Paper_Space
  1

  0
ENDBLK
  5
1D
  8
0
  0
ENDSEC
  0
SECTION
  2
ENTITIES
  0
LINE
  5
2D
  8
0
 10
2.338699
 20
0.432916
 30
0.0
 11
1.201416
 21
0.606632
 31
0.0
  0
LINE
  5
2E
  8
0
 10
2.338699
 20
0.432916
 30
0.0
 11
1.201416
 21
0.606632
 31
0.0
  0
LINE
  5
2F
  8
0
 10
0.6664
 20
1.067967
 30
0.0
 11
0.532159
 21
1.486013
 31
0.0
  0
LINE
  5
30
  8
0
 10
0.452223
 20
2.123863
 30
0.0
 11
0.467861
 21
3.280081
 31
0.0
  0
LINE
  5
31
  8
0
 10
0.484048
 20
3.92228
 30
0.0
 11
0.513219
 21
5.079607
 31
0.0
  0
LINE
  5
32
  8
0
 10
0.529417
 20
5.722242
 30
0.0
 11
0.558578
 21
6.879133
 31
0.0
  0
LINE
  5
33
  8
0
 10
0.57476
 20
7.521158
 30
0.0
 11
0.557516
 21
8.678408
 31
0.0
  0
LINE
  5
34
  8
0
 10
0.537847
 20
9.320779
 30
0.0
 11
0.502419
 21
10.477794
 31
0.0
  0
LINE
  5
35
  8
0
 10
0.482765
 20
11.119684
 30
0.0
 11
0.447353
 21
12.27618
 31
0.0
  0
LINE
  5
36
  8
0
 10
0.444425
 20
12.918859
 30
0.0
 11
0.638802
 21
14.051822
 31
0.0
  0
LINE
  5
37
  8
0
 10
1.057959
 20
14.521187
 30
0.0
 11
2.181614
 21
14.750233
 31
0.0
  0
LINE
  5
38
  8
0
 10
2.824298
 20
14.733511
 30
0.0
 11
3.980506
 21
14.693311
 31
0.0
  0
LINE
  5
39
  8
0
 10
4.622824
 20
14.670978
 30
0.0
 11
5.779517
 21
14.630761
 31
0.0
  0
LINE
  5
3A
  8
0
 10
6.42261
 20
14.625798
 30
0.0
 11
7.579792
 21
14.627469
 31
0.0
  0
LINE
  5
3B
  8
0
 10
8.222142
 20
14.628397
 30
0.0
 11
9.379878
 21
14.630069
 31
0.0
  0
LINE
  5
3C
  8
0
 10
10.022369
 20
14.630997
 30
0.0
 11
11.179582
 21
14.632669
 31
0.0
  0
LINE
  5
3D
  8
0
 10
11.821949
 20
14.633597
 30
0.0
 11
12.979332
 21
14.635269
 31
0.0
  0
LINE
  5
3E
  8
0
 10
13.621993
 20
14.636197
 30
0.0
 11
14.483176
 21
14.637441
 31
0.0
  0
LINE
  5
3F
  8
0
 10
14.483176
 20
14.637441
 30
0.0
 11
14.626219
 21
14.484309
 31
0.0
  0
LINE
  5
40
  8
0
 10
14.626219
 20
14.484309
 30
0.0
 11
13.621993
 21
14.636197
 31
0.0
  0
LINE
  5
41
  8
0
 10
14.626212
 20
13.841779
 30
0.0
 11
14.626199
 21
12.684521
 31
0.0
  0
LINE
  5
42
  8
0
 10
14.626192
 20
12.041225
 30
0.0
 11
14.626179
 21
10.884423
 31
0.0
  0
LINE
  5
43
  8
0
 10
14.626172
 20
10.241545
 30
0.0
 11
14.626159
 21
9.084326
 31
0.0
  0
LINE
  5
44
  8
0
 10
14.626152
 20
8.441135
 30
0.0
 11
14.626139
 21
7.284228
 31
0.0
  0
LINE
  5
45
  8
0
 10
14.626132
 20
6.641555
 30
0.0
 11
14.6374
 21
5.484362
 31
0.0
  0
LINE
  5
46
  8
0
 10
14.660042
 20
4.841922
 30
0.0
 11
14.700789
 21
3.685799
 31
0.0
  0
LINE
  5
47
  8
0
 10
14.723424
 20
3.043555
 30
0.0
 11
14.702411
 21
1.889904
 31
0.0
  0
LINE
  5
48
  8
0
 10
14.605214
 20
1.256365
 30
0.0
 11
14.299772
 21
0.787866
 31
0.0
  0
LINE
  5
49
  8
0
 10
14.299772
 20
0.787866
 30
0.0
 11
13.770062
 21
0.546737
 31
0.0
  0
LINE
  5
4A
  8
0
 10
13.770062
 20
0.546737
 30
0.0
 11
14.605214
 21
1.256365
 31
0.0
  0
LINE
  5
4B
  8
0
 10
13.133415
 20
0.460337
 30
0.0
 11
13.112333
 21
0.459467
 31
0.0
  0
LINE
  5
4C
  8
0
 10
13.112333
 20
0.459467
 30
0.0
 11
12.844163
 21
0.448671
 31
0.0
  0
LINE
  5
4D
  8
0
 10
12.844163
 20
0.448671
 30
0.0
 11
11.977523
 21
0.469453
 31
0.0
  0
LINE
  5
4E
  8
0
 10
11.334869
 20
0.484864
 30
0.0
 11
10.177943
 21
0.512607
 31
0.0
  0
LINE
  5
4F
  8
0
 10
9.535289
 20
0.528017
 30
0.0
 11
8.378363
 21
0.55576
 31
0.0
  0
LINE
  5
50
  8
0
 10
7.735867
 20
0.571167
 30
0.0
 11
6.579032
 21
0.563118
 31
0.0
  0
LINE
  5
51
  8
0
 10
5.936678
 20
0.542789
 30
0.0
 11
4.779717
 21
0.506173
 31
0.0
  0
LINE
  5
52
  8
0
 10
4.137187
 20
0.485838
 30
0.0
 11
2.981376
 21
0.449259
 31
0.0
  0
LINE
  5
53
  8
0
 10
0.592849
 20
1.254
 30
0.0
 11
0.592849
 21
1.292288
 31
0.0
  0
LINE
  5
54
  8
0
 10
0.592849
 20
1.254
 30
0.0
 11
0.592849
 21
1.292288
 31
0.0
  0
LINE
  5
55
  8
0
 10
0.592849
 20
1.500321
 30
0.0
 11
0.592849
 21
1.891913
 31
0.0
  0
LINE
  5
56
  8
0
 10
0.592849
 20
1.891913
 30
0.0
 11
0.592849
 21
2.6575
 31
0.0
  0
LINE
  5
57
  8
0
 10
0.592849
 20
3.3005
 30
0.0
 11
0.592849
 21
3.6925
 31
0.0
  0
LINE
  5
58
  8
0
 10
0.592849
 20
3.6925
 30
0.0
 11
0.592849
 21
4.4575
 31
0.0
  0
LINE
  5
59
  8
0
 10
0.592849
 20
5.1005
 30
0.0
 11
0.592849
 21
5.4925
 31
0.0
  0
LINE
  5
5A
  8
0
 10
0.592849
 20
5.4925
 30
0.0
 11
0.592849
 21
6.2575
 31
0.0
  0
LINE
  5
5B
  8
0
 10
0.592849
 20
6.9005
 30
0.0
 11
0.592849
 21
7.2925
 31
0.0
  0
LINE
  5
5C
  8
0
 10
0.592849
 20
7.2925
 30
0.0
 11
0.592849
 21
8.0575
 31
0.0
  0
LINE
  5
5D
  8
0
 10
0.592849
 20
8.7005
 30
0.0
 11
0.592849
 21
9.0925
 31
0.0
  0
LINE
  5
5E
  8
0
 10
0.592849
 20
9.0925
 30
0.0
 11
0.592849
 21
9.8575
 31
0.0
  0
LINE
  5
5F
  8
0
 10
0.592849
 20
10.5005
 30
0.0
 11
0.592849
 21
10.8925
 31
0.0
  0
LINE
  5
60
  8
0
 10
0.592849
 20
10.8925
 30
0.0
 11
0.592849
 21
11.6575
 31
0.0
  0
LINE
  5
61
  8
0
 10
0.592849
 20
12.3005
 30
0.0
 11
0.592849
 21
13.0655
 31
0.0
  0
LINE
  5
62
  8
0
 10
0.592849
 20
13.0655
 30
0.0
 11
0.592849
 21
13.4575
 31
0.0
  0
LINE
  5
63
  8
0
 10
1.092849
 20
0.96368
 30
0.0
 11
1.092849
 21
1.4645
 31
0.0
  0
LINE
  5
64
  8
0
 10
1.092849
 20
0.96368
 30
0.0
 11
1.092849
 21
1.4645
 31
0.0
  0
LINE
  5
65
  8
0
 10
1.092849
 20
1.4645
 30
0.0
 11
1.092849
 21
1.46499
 31
0.0
  0
LINE
  5
66
  8
0
 10
1.092849
 20
2.1075
 30
0.0
 11
1.092849
 21
2.4995
 31
0.0
  0
LINE
  5
67
  8
0
 10
1.092849
 20
2.4995
 30
0.0
 11
1.092849
 21
3.2645
 31
0.0
  0
LINE
  5
68
  8
0
 10
1.092849
 20
3.2645
 30
0.0
 11
1.092849
 21
3.26499
 31
0.0
  0
LINE
  5
69
  8
0
 10
1.092849
 20
3.9075
 30
0.0
 11
1.092849
 21
4.6725
 31
0.0
  0
LINE
  5
6A
  8
0
 10
1.092849
 20
4.6725
 30
0.0
 11
1.092849
 21
5.0645
 31
0.0
  0
LINE
  5
6B
  8
0
 10
1.092849
 20
5.0645
 30
0.0
 11
1.092849
 21
5.06499
 31
0.0
  0
LINE
  5
6C
  8
0
 10
1.092849
 20
5.7075
 30
0.0
 11
1.092849
 21
6.0995
 31
0.0
  0
LINE
  5
6D
  8
0
 10
1.092849
 20
6.0995
 30
0.0
 11
1.092849
 21
6.8645
 31
0.0
  0
LINE
  5
6E
  8
0
 10
1.092849
 20
6.8645
 30
0.0
 11
1.092849
 21
6.86499
 31
0.0
  0
LINE
  5
6F
  8
0
 10
1.092849
 20
7.5075
 30
0.0
 11
1.092849
 21
8.2725
 31
0.0
  0
LINE
  5
70
  8
0
 10
1.092849
 20
8.2725
 30
0.0
 11
1.092849
 21
8.6645
 31
0.0
  0
LINE
  5
71
  8
0
 10
1.092849
 20
8.6645
 30
0.0
 11
1.092849
 21
8.66499
 31
0.0
  0
LINE
  5
72
  8
0
 10
1.092849
 20
9.3075
 30
0.0
 11
1.092849
 21
9.6995
 31
0.0
  0
LINE
  5
73
  8
0
 10
1.092849
 20
9.6995
 30
0.0
 11
1.092849
 21
10.4645
 31
0.0
  0
LINE
  5
74
  8
0
 10
1.092849
 20
10.4645
 30
0.0
 11
1.092849
 21
10.46499
 31
0.0
  0
LINE
  5
75
  8
0
 10
1.092849
 20
11.1075
 30
0.0
 11
1.092849
 21
11.4995
 31
0.0
  0
LINE
  5
76
  8
0
 10
1.092849
 20
11.4995
 30
0.0
 11
1.092849
 21
12.2645
 31
0.0
  0
LINE
  5
77
  8
0
 10
1.092849
 20
12.2645
 30
0.0
 11
1.092849
 21
12.26499
 31
0.0
  0
LINE
  5
78
  8
0
 10
1.092849
 20
12.9075
 30
0.0
 11
1.092849
 21
13.2995
 31
0.0
  0
LINE
  5
79
  8
0
 10
1.092849
 20
13.2995
 30
0.0
 11
1.092849
 21
14.0645
 31
0.0
  0
LINE
  5
7A
  8
0
 10
1.092849
 20
14.0645
 30
0.0
 11
1.092849
 21
14.06499
 31
0.0
  0
LINE
  5
7B
  8
0
 10
1.592849
 20
0.96509
 30
0.0
 11
1.592849
 21
1.6235
 31
0.0
  0
LINE
  5
7C
  8
0
 10
1.592849
 20
0.96509
 30
0.0
 11
1.592849
 21
1.6235
 31
0.0
  0
LINE
  5
7D
  8
0
 10
1.592849
 20
2.2665
 30
0.0
 11
1.592849
 21
2.6585
 31
0.0
  0
LINE
  5
7E
  8
0
 10
1.592849
 20
2.6585
 30
0.0
 11
1.592849
 21
3.4235
 31
0.0
  0
LINE
  5
7F
  8
0
 10
1.592849
 20
4.0665
 30
0.0
 11
1.592849
 21
4.4585
 31
0.0
  0
LINE
  5
80
  8
0
 10
1.592849
 20
4.4585
 30
0.0
 11
1.592849
 21
5.2235
 31
0.0
  0
LINE
  5
81
  8
0
 10
1.592849
 20
5.8665
 30
0.0
 11
1.592849
 21
6.2585
 31
0.0
  0
LINE
  5
82
  8
0
 10
1.592849
 20
6.2585
 30
0.0
 11
1.592849
 21
7.0235
 31
0.0
  0
LINE
  5
83
  8
0
 10
1.592849
 20
7.6665
 30
0.0
 11
1.592849
 21
8.0585
 31
0.0
  0
LINE
  5
84
  8
0
 10
1.592849
 20
8.0585
 30
0.0
 11
1.592849
 21
8.8235
 31
0.0
  0
LINE
  5
85
  8
0
 10
1.592849
 20
9.4665
 30
0.0
 11
1.592849
 21
9.8585
 31
0.0
  0
LINE
  5
86
  8
0
 10
1.592849
 20
9.8585
 30
0.0
 11
1.592849
 21
10.6235
 31
0.0
  0
LINE
  5
87
  8
0
 10
1.592849
 20
11.2665
 30
0.0
 11
1.592849
 21
11.6585
 31
0.0
  0
LINE
  5
88
  8
0
 10
1.592849
 20
11.6585
 30
0.0
 11
1.592849
 21
12.4235
 31
0.0
  0
LINE
  5
89
  8
0
 10
1.592849
 20
13.0665
 30
0.0
 11
1.592849
 21
13.8315
 31
0.0
  0
LINE
  5
8A
  8
0
 10
1.592849
 20
13.8315
 30
0.0
 11
1.592849
 21
14.2235
 31
0.0
  0
LINE
  5
8B
  8
0
 10
2.092849
 20
0.95903
 30
0.0
 11
2.092849
 21
1.6715
 31
0.0
  0
LINE
  5
8C
  8
0
 10
2.092849
 20
0.95903
 30
0.0
 11
2.092849
 21
1.6715
 31
0.0
  0
LINE
  5
8D
  8
0
 10
2.092849
 20
1.6715
 30
0.0
 11
2.092849
 21
1.67199
 31
0.0
  0
LINE
  5
8E
  8
0
 10
2.092849
 20
2.3145
 30
0.0
 11
2.092849
 21
2.7065
 31
0.0
  0
LINE
  5
8F
  8
0
 10
2.092849
 20
2.7065
 30
0.0
 11
2.092849
 21
3.4715
 31
0.0
  0
LINE
  5
90
  8
0
 10
2.092849
 20
3.4715
 30
0.0
 11
2.092849
 21
3.47199
 31
0.0
  0
LINE
  5
91
  8
0
 10
2.092849
 20
4.1145
 30
0.0
 11
2.092849
 21
4.5065
 31
0.0
  0
LINE
  5
92
  8
0
 10
2.092849
 20
4.5065
 30
0.0
 11
2.092849
 21
5.2715
 31
0.0
  0
LINE
  5
93
  8
0
 10
2.092849
 20
5.2715
 30
0.0
 11
2.092849
 21
5.27199
 31
0.0
  0
LINE
  5
94
  8
0
 10
2.092849
 20
5.9145
 30
0.0
 11
2.092849
 21
6.3065
 31
0.0
  0
LINE
  5
95
  8
0
 10
2.092849
 20
6.3065
 30
0.0
 11
2.092849
 21
7.0715
 31
0.0
  0
LINE
  5
96
  8
0
 10
2.092849
 20
7.0715
 30
0.0
 11
2.092849
 21
7.07199
 31
0.0
  0
LINE
  5
97
  8
0
 10
2.092849
 20
7.7145
 30
0.0
 11
2.092849
 21
8.1065
 31
0.0
  0
LINE
  5
98
  8
0
 10
2.092849
 20
8.1065
 30
0.0
 11
2.092849
 21
8.8715
 31
0.0
  0
LINE
  5
99
  8
0
 10
2.092849
 20
8.8715
 30
0.0
 11
2.092849
 21
8.87199
 31
0.0
  0
LINE
  5
9A
  8
0
 10
2.092849
 20
9.5145
 30
0.0
 11
2.092849
 21
9.9065
 31
0.0
  0
LINE
  5
9B
  8
0
 10
2.092849
 20
9.9065
 30
0.0
 11
2.092849
 21
10.6715
 31
0.0
  0
LINE
  5
9C
  8
0
 10
2.092849
 20
10.6715
 30
0.0
 11
2.092849
 21
10.67199
 31
0.0
  0
LINE
  5
9D
  8
0
 10
2.092849
 20
11.3145
 30
0.0
 11
2.092849
 21
11.7065
 31
0.0
  0
LINE
  5
9E
  8
0
 10
2.092849
 20
11.7065
 30
0.0
 11
2.092849
 21
12.4715
 31
0.0
  0
LINE
  5
9F
  8
0
 10
2.092849
 20
12.4715
 30
0.0
 11
2.092849
 21
12.47199
 31
0.0
  0
LINE
  5
A0
  8
0
 10
2.092849
 20
13.1145
 30
0.0
 11
2.092849
 21
13.8795
 31
0.0
  0
LINE
  5
A1
  8
0
 10
2.092849
 20
13.8795
 30
0.0
 11
2.092849
 21
14.2715
 31
0.0
  0
LINE
  5
A2
  8
0
 10
2.092849
 20
14.2715
 30
0.0
 11
2.092849
 21
14.27199
 31
0.0
  0
LINE
  5
A3
  8
0
 10
2.592849
 20
0.95395
 30
0.0
 11
2.592849
 21
1.6705
 31
0.0
  0
LINE
  5
A4
  8
0
 10
2.592849
 20
0.95395
 30
0.0
 11
2.592849
 21
1.6705
 31
0.0
  0
LINE
  5
A5
  8
0
 10
2.592849
 20
2.3125
 30
0.0
 11
2.592849
 21
2.31299
 31
0.0
  0
LINE
  5
A6
  8
0
 10
2.592849
 20
2.31299
 30
0.0
 11
2.592849
 21
3.0785
 31
0.0
  0
LINE
  5
A7
  8
0
 10
2.592849
 20
3.0785
 30
0.0
 11
2.592849
 21
3.4705
 31
0.0
  0
LINE
  5
A8
  8
0
 10
2.592849
 20
4.1125
 30
0.0
 11
2.592849
 21
4.11299
 31
0.0
  0
LINE
  5
A9
  8
0
 10
2.592849
 20
4.11299
 30
0.0
 11
2.592849
 21
4.8785
 31
0.0
  0
LINE
  5
AA
  8
0
 10
2.592849
 20
4.8785
 30
0.0
 11
2.592849
 21
5.2705
 31
0.0
  0
LINE
  5
AB
  8
0
 10
2.592849
 20
5.9125
 30
0.0
 11
2.592849
 21
5.91299
 31
0.0
  0
LINE
  5
AC
  8
0
 10
2.592849
 20
5.91299
 30
0.0
 11
2.592849
 21
6.6785
 31
0.0
  0
LINE
  5
AD
  8
0
 10
2.592849
 20
6.6785
 30
0.0
 11
2.592849
 21
7.0705
 31
0.0
  0
LINE
  5
AE
  8
0
 10
2.592849
 20
7.7125
 30
0.0
 11
2.592849
 21
7.71299
 31
0.0
  0
LINE
  5
AF
  8
0
 10
2.592849
 20
7.71299
 30
0.0
 11
2.592849
 21
8.4785
 31
0.0
  0
LINE
  5
B0
  8
0
 10
2.592849
 20
8.4785
 30
0.0
 11
2.592849
 21
8.8705
 31
0.0
  0
LINE
  5
B1
  8
0
 10
2.592849
 20
9.5125
 30
0.0
 11
2.592849
 21
9.51299
 31
0.0
  0
LINE
  5
B2
  8
0
 10
2.592849
 20
9.51299
 30
0.0
 11
2.592849
 21
10.2785
 31
0.0
  0
LINE
  5
B3
  8
0
 10
2.592849
 20
10.2785
 30
0.0
 11
2.592849
 21
10.6705
 31
0.0
  0
LINE
  5
B4
  8
0
 10
2.592849
 20
11.3125
 30
0.0
 11
2.592849
 21
11.31299
 31
0.0
  0
LINE
  5
B5
  8
0
 10
2.592849
 20
11.31299
 30
0.0
 11
2.592849
 21
12.0785
 31
0.0
  0
LINE
  5
B6
  8
0
 10
2.592849
 20
12.0785
 30
0.0
 11
2.592849
 21
12.4705
 31
0.0
  0
LINE
  5
B7
  8
0
 10
2.592849
 20
13.1125
 30
0.0
 11
2.592849
 21
13.11299
 31
0.0
  0
LINE
  5
B8
  8
0
 10
2.592849
 20
13.11299
 30
0.0
 11
2.592849
 21
13.8785
 31
0.0
  0
LINE
  5
B9
  8
0
 10
2.592849
 20
13.8785
 30
0.0
 11
2.592849
 21
14.2705
 31
0.0
  0
LINE
  5
BA
  8
0
 10
3.092849
 20
0.95329
 30
0.0
 11
3.092849
 21
1.6525
 31
0.0
  0
LINE
  5
BB
  8
0
 10
3.092849
 20
0.95329
 30
0.0
 11
3.092849
 21
1.6525
 31
0.0
  0
LINE
  5
BC
  8
0
 10
3.092849
 20
2.2955
 30
0.0
 11
3.092849
 21
2.6875
 31
0.0
  0
LINE
  5
BD
  8
0
 10
3.092849
 20
2.6875
 30
0.0
 11
3.092849
 21
3.4525
 31
0.0
  0
LINE
  5
BE
  8
0
 10
3.092849
 20
4.0955
 30
0.0
 11
3.092849
 21
4.4875
 31
0.0
  0
LINE
  5
BF
  8
0
 10
3.092849
 20
4.4875
 30
0.0
 11
3.092849
 21
5.2525
 31
0.0
  0
LINE
  5
C0
  8
0
 10
3.092849
 20
5.8955
 30
0.0
 11
3.092849
 21
6.2875
 31
0.0
  0
LINE
  5
C1
  8
0
 10
3.092849
 20
6.2875
 30
0.0
 11
3.092849
 21
7.0525
 31
0.0
  0
LINE
  5
C2
  8
0
 10
3.092849
 20
7.6955
 30
0.0
 11
3.092849
 21
8.0875
 31
0.0
  0
LINE
  5
C3
  8
0
 10
3.092849
 20
8.0875
 30
0.0
 11
3.092849
 21
8.8525
 31
0.0
  0
LINE
  5
C4
  8
0
 10
3.092849
 20
9.4955
 30
0.0
 11
3.092849
 21
9.8875
 31
0.0
  0
LINE
  5
C5
  8
0
 10
3.092849
 20
9.8875
 30
0.0
 11
3.092849
 21
10.6525
 31
0.0
  0
LINE
  5
C6
  8
0
 10
3.092849
 20
11.2955
 30
0.0
 11
3.092849
 21
11.6875
 31
0.0
  0
LINE
  5
C7
  8
0
 10
3.092849
 20
11.6875
 30
0.0
 11
3.092849
 21
12.4525
 31
0.0
  0
LINE
  5
C8
  8
0
 10
3.092849
 20
13.0955
 30
0.0
 11
3.092849
 21
13.8605
 31
0.0
  0
LINE
  5
C9
  8
0
 10
3.092849
 20
13.8605
 30
0.0
 11
3.092849
 21
14.2525
 31
0.0
  0
LINE
  5
CA
  8
0
 10
3.592849
 20
0.95312
 30
0.0
 11
3.592849
 21
1.6355
 31
0.0
  0
LINE
  5
CB
  8
0
 10
3.592849
 20
0.95312
 30
0.0
 11
3.592849
 21
1.6355
 31
0.0
  0
LINE
  5
CC
  8
0
 10
3.592849
 20
2.2785
 30
0.0
 11
3.592849
 21
2.6705
 31
0.0
  0
LINE
  5
CD
  8
0
 10
3.592849
 20
2.6705
 30
0.0
 11
3.592849
 21
3.4355
 31
0.0
  0
LINE
  5
CE
  8
0
 10
3.592849
 20
4.0785
 30
0.0
 11
3.592849
 21
4.4705
 31
0.0
  0
LINE
  5
CF
  8
0
 10
3.592849
 20
4.4705
 30
0.0
 11
3.592849
 21
5.2355
 31
0.0
  0
LINE
  5
D0
  8
0
 10
3.592849
 20
5.8785
 30
0.0
 11
3.592849
 21
6.6435
 31
0.0
  0
LINE
  5
D1
  8
0
 10
3.592849
 20
6.6435
 30
0.0
 11
3.592849
 21
7.0355
 31
0.0
  0
LINE
  5
D2
  8
0
 10
3.592849
 20
7.6785
 30
0.0
 11
3.592849
 21
8.4435
 31
0.0
  0
LINE
  5
D3
  8
0
 10
3.592849
 20
8.4435
 30
0.0
 11
3.592849
 21
8.8355
 31
0.0
  0
LINE
  5
D4
  8
0
 10
3.592849
 20
9.4785
 30
0.0
 11
3.592849
 21
9.8705
 31
0.0
  0
LINE
  5
D5
  8
0
 10
3.592849
 20
9.8705
 30
0.0
 11
3.592849
 21
10.6355
 31
0.0
  0
LINE
  5
D6
  8
0
 10
3.592849
 20
11.2785
 30
0.0
 11
3.592849
 21
11.6705
 31
0.0
  0
LINE
  5
D7
  8
0
 10
3.592849
 20
11.6705
 30
0.0
 11
3.592849
 21
12.4355
 31
0.0
  0
LINE
  5
D8
  8
0
 10
3.592849
 20
13.0785
 30
0.0
 11
3.592849
 21
13.4705
 31
0.0
  0
LINE
  5
D9
  8
0
 10
3.592849
 20
13.4705
 30
0.0
 11
3.592849
 21
14.2355
 31
0.0
  0
LINE
  5
DA
  8
0
 10
4.092849
 20
0.95195
 30
0.0
 11
4.092849
 21
1.6175
 31
0.0
  0
LINE
  5
DB
  8
0
 10
4.092849
 20
0.95195
 30
0.0
 11
4.092849
 21
1.6175
 31
0.0
  0
LINE
  5
DC
  8
0
 10
4.092849
 20
1.6175
 30
0.0
 11
4.092849
 21
1.61799
 31
0.0
  0
LINE
  5
DD
  8
0
 10
4.092849
 20
2.2605
 30
0.0
 11
4.092849
 21
2.6525
 31
0.0
  0
LINE
  5
DE
  8
0
 10
4.092849
 20
2.6525
 30
0.0
 11
4.092849
 21
3.4175
 31
0.0
  0
LINE
  5
DF
  8
0
 10
4.092849
 20
3.4175
 30
0.0
 11
4.092849
 21
3.41799
 31
0.0
  0
LINE
  5
E0
  8
0
 10
4.092849
 20
4.0605
 30
0.0
 11
4.092849
 21
4.4525
 31
0.0
  0
LINE
  5
E1
  8
0
 10
4.092849
 20
4.4525
 30
0.0
 11
4.092849
 21
5.2175
 31
0.0
  0
LINE
  5
E2
  8
0
 10
4.092849
 20
5.2175
 30
0.0
 11
4.092849
 21
5.21799
 31
0.0
  0
LINE
  5
E3
  8
0
 10
4.092849
 20
5.8605
 30
0.0
 11
4.092849
 21
6.2525
 31
0.0
  0
LINE
  5
E4
  8
0
 10
4.092849
 20
6.2525
 30
0.0
 11
4.092849
 21
7.0175
 31
0.0
  0
LINE
  5
E5
  8
0
 10
4.092849
 20
7.0175
 30
0.0
 11
4.092849
 21
7.01799
 31
0.0
  0
LINE
  5
E6
  8
0
 10
4.092849
 20
7.6605
 30
0.0
 11
4.092849
 21
8.0525
 31
0.0
  0
LINE
  5
E7
  8
0
 10
4.092849
 20
8.0525
 30
0.0
 11
4.092849
 21
8.8175
 31
0.0
  0
LINE
  5
E8
  8
0
 10
4.092849
 20
8.8175
 30
0.0
 11
4.092849
 21
8.81799
 31
0.0
  0
LINE
  5
E9
  8
0
 10
4.092849
 20
9.4605
 30
0.0
 11
4.092849
 21
9.8525
 31
0.0
  0
LINE
  5
EA
  8
0
 10
4.092849
 20
9.8525
 30
0.0
 11
4.092849
 21
10.6175
 31
0.0
  0
LINE
  5
EB
  8
0
 10
4.092849
 20
10.6175
 30
0.0
 11
4.092849
 21
10.61799
 31
0.0
  0
LINE
  5
EC
  8
0
 10
4.092849
 20
11.2605
 30
0.0
 11
4.092849
 21
11.6525
 31
0.0
  0
LINE
  5
ED
  8
0
 10
4.092849
 20
11.6525
 30
0.0
 11
4.092849
 21
12.4175
 31
0.0
  0
LINE
  5
EE
  8
0
 10
4.092849
 20
12.4175
 30
0.0
 11
4.092849
 21
12.41799
 31
0.0
  0
LINE
  5
EF
  8
0
 10
4.092849
 20
13.0605
 30
0.0
 11
4.092849
 21
13.4525
 31
0.0
  0
LINE
  5
F0
  8
0
 10
4.092849
 20
13.4525
 30
0.0
 11
4.092849
 21
14.2175
 31
0.0
  0
LINE
  5
F1
  8
0
 10
4.092849
 20
14.2175
 30
0.0
 11
4.092849
 21
14.21799
 31
0.0
  0
LINE
  5
F2
  8
0
 10
4.592849
 20
0.95178
 30
0.0
 11
4.592849
 21
1.6005
 31
0.0
  0
LINE
  5
F3
  8
0
 10
4.592849
 20
0.95178
 30
0.0
 11
4.592849
 21
1.6005
 31
0.0
  0
LINE
  5
F4
  8
0
 10
4.592849
 20
2.2435
 30
0.0
 11
4.592849
 21
2.6355
 31
0.0
  0
LINE
  5
F5
  8
0
 10
4.592849
 20
2.6355
 30
0.0
 11
4.592849
 21
3.4005
 31
0.0
  0
LINE
  5
F6
  8
0
 10
4.592849
 20
4.0435
 30
0.0
 11
4.592849
 21
4.8085
 31
0.0
  0
LINE
  5
F7
  8
0
 10
4.592849
 20
4.8085
 30
0.0
 11
4.592849
 21
5.2005
 31
0.0
  0
LINE
  5
F8
  8
0
 10
4.592849
 20
5.8435
 30
0.0
 11
4.592849
 21
6.6085
 31
0.0
  0
LINE
  5
F9
  8
0
 10
4.592849
 20
6.6085
 30
0.0
 11
4.592849
 21
7.0005
 31
0.0
  0
LINE
  5
FA
  8
0
 10
4.592849
 20
7.6435
 30
0.0
 11
4.592849
 21
8.4085
 31
0.0
  0
LINE
  5
FB
  8
0
 10
4.592849
 20
8.4085
 30
0.0
 11
4.592849
 21
8.8005
 31
0.0
  0
LINE
  5
FC
  8
0
 10
4.592849
 20
9.4435
 30
0.0
 11
4.592849
 21
9.8355
 31
0.0
  0
LINE
  5
FD
  8
0
 10
4.592849
 20
9.8355
 30
0.0
 11
4.592849
 21
10.6005
 31
0.0
  0
LINE
  5
FE
  8
0
 10
4.592849
 20
11.2435
 30
0.0
 11
4.592849
 21
11.6355
 31
0.0
  0
LINE
  5
FF
  8
0
 10
4.592849
 20
11.6355
 30
0.0
 11
4.592849
 21
12.4005
 31
0.0
  0
LINE
  5
100
  8
0
 10
4.592849
 20
13.0435
 30
0.0
 11
4.592849
 21
13.4355
 31
0.0
  0
LINE
  5
101
  8
0
 10
4.592849
 20
13.4355
 30
0.0
 11
4.592849
 21
14.2005
 31
0.0
  0
LINE
  5
102
  8
0
 10
5.092849
 20
0.95161
 30
0.0
 11
5.092849
 21
1.5835
 31
0.0
  0
LINE
  5
103
  8
0
 10
5.092849
 20
0.95161
 30
0.0
 11
5.092849
 21
1.5835
 31
0.0
  0
LINE
  5
104
  8
0
 10
5.092849
 20
2.2265
 30
0.0
 11
5.092849
 21
2.6185
 31
0.0
  0
LINE
  5
105
  8
0
 10
5.092849
 20
2.6185
 30
0.0
 11
5.092849
 21
3.3835
 31
0.0
  0
LINE
  5
106
  8
0
 10
5.092849
 20
4.0265
 30
0.0
 11
5.092849
 21
4.4185
 31
0.0
  0
LINE
  5
107
  8
0
 10
5.092849
 20
4.4185
 30
0.0
 11
5.092849
 21
5.1835
 31
0.0
  0
LINE
  5
108
  8
0
 10
5.092849
 20
5.8265
 30
0.0
 11
5.092849
 21
6.2185
 31
0.0
  0
LINE
  5
109
  8
0
 10
5.092849
 20
6.2185
 30
0.0
 11
5.092849
 21
6.9835
 31
0.0
  0
LINE
  5
10A
  8
0
 10
5.092849
 20
7.6265
 30
0.0
 11
5.092849
 21
8.3915
 31
0.0
  0
LINE
  5
10B
  8
0
 10
5.092849
 20
8.3915
 30
0.0
 11
5.092849
 21
8.7835
 31
0.0
  0
LINE
  5
10C
  8
0
 10
5.092849
 20
9.4265
 30
0.0
 11
5.092849
 21
9.8185
 31
0.0
  0
LINE
  5
10D
  8
0
 10
5.092849
 20
9.8185
 30
0.0
 11
5.092849
 21
10.5835
 31
0.0
  0
LINE
  5
10E
  8
0
 10
5.092849
 20
11.2265
 30
0.0
 11
5.092849
 21
11.6185
 31
0.0
  0
LINE
  5
10F
  8
0
 10
5.092849
 20
11.6185
 30
0.0
 11
5.092849
 21
12.3835
 31
0.0
  0
LINE
  5
110
  8
0
 10
5.092849
 20
13.0265
 30
0.0
 11
5.092849
 21
13.4185
 31
0.0
  0
LINE
  5
111
  8
0
 10
5.092849
 20
13.4185
 30
0.0
 11
5.092849
 21
14.1835
 31
0.0
  0
LINE
  5
112
  8
0
 10
5.592849
 20
0.95095
 30
0.0
 11
5.592849
 21
1.5655
 31
0.0
  0
LINE
  5
113
  8
0
 10
5.592849
 20
0.95095
 30
0.0
 11
5.592849
 21
1.5655
 31
0.0
  0
LINE
  5
114
  8
0
 10
5.592849
 20
2.2085
 30
0.0
 11
5.592849
 21
2.9735
 31
0.0
  0
LINE
  5
115
  8
0
 10
5.592849
 20
2.9735
 30
0.0
 11
5.592849
 21
3.3655
 31
0.0
  0
LINE
  5
116
  8
0
 10
5.592849
 20
4.0085
 30
0.0
 11
5.592849
 21
4.7735
 31
0.0
  0
LINE
  5
117
  8
0
 10
5.592849
 20
4.7735
 30
0.0
 11
5.592849
 21
5.1655
 31
0.0
  0
LINE
  5
118
  8
0
 10
5.592849
 20
5.8085
 30
0.0
 11
5.592849
 21
6.2005
 31
0.0
  0
LINE
  5
119
  8
0
 10
5.592849
 20
6.2005
 30
0.0
 11
5.592849
 21
6.9655
 31
0.0
  0
LINE
  5
11A
  8
0
 10
5.592849
 20
7.6085
 30
0.0
 11
5.592849
 21
8.3735
 31
0.0
  0
LINE
  5
11B
  8
0
 10
5.592849
 20
8.3735
 30
0.0
 11
5.592849
 21
8.7655
 31
0.0
  0
LINE
  5
11C
  8
0
 10
5.592849
 20
9.4085
 30
0.0
 11
5.592849
 21
9.8005
 31
0.0
  0
LINE
  5
11D
  8
0
 10
5.592849
 20
9.8005
 30
0.0
 11
5.592849
 21
10.5655
 31
0.0
  0
LINE
  5
11E
  8
0
 10
5.592849
 20
11.2085
 30
0.0
 11
5.592849
 21
11.6005
 31
0.0
  0
LINE
  5
11F
  8
0
 10
5.592849
 20
11.6005
 30
0.0
 11
5.592849
 21
12.3655
 31
0.0
  0
LINE
  5
120
  8
0
 10
5.592849
 20
13.0085
 30
0.0
 11
5.592849
 21
13.4005
 31
0.0
  0
LINE
  5
121
  8
0
 10
5.592849
 20
13.4005
 30
0.0
 11
5.592849
 21
14.1655
 31
0.0
  0
LINE
  5
122
  8
0
 10
6.092849
 20
0.95323
 30
0.0
 11
6.092849
 21
1.5535
 31
0.0
  0
LINE
  5
123
  8
0
 10
6.092849
 20
0.95323
 30
0.0
 11
6.092849
 21
1.5535
 31
0.0
  0
LINE
  5
124
  8
0
 10
6.092849
 20
2.1965
 30
0.0
 11
6.092849
 21
2.9615
 31
0.0
  0
LINE
  5
125
  8
0
 10
6.092849
 20
2.9615
 30
0.0
 11
6.092849
 21
3.3535
 31
0.0
  0
LINE
  5
126
  8
0
 10
6.092849
 20
3.9965
 30
0.0
 11
6.092849
 21
4.3885
 31
0.0
  0
LINE
  5
127
  8
0
 10
6.092849
 20
4.3885
 30
0.0
 11
6.092849
 21
5.1535
 31
0.0
  0
LINE
  5
128
  8
0
 10
6.092849
 20
5.7965
 30
0.0
 11
6.092849
 21
6.5615
 31
0.0
  0
LINE
  5
129
  8
0
 10
6.092849
 20
6.5615
 30
0.0
 11
6.092849
 21
6.9535
 31
0.0
  0
LINE
  5
12A
  8
0
 10
6.092849
 20
7.5965
 30
0.0
 11
6.092849
 21
8.3615
 31
0.0
  0
LINE
  5
12B
  8
0
 10
6.092849
 20
8.3615
 30
0.0
 11
6.092849
 21
8.7535
 31
0.0
  0
LINE
  5
12C
  8
0
 10
6.092849
 20
9.3965
 30
0.0
 11
6.092849
 21
10.1615
 31
0.0
  0
LINE
  5
12D
  8
0
 10
6.092849
 20
10.1615
 30
0.0
 11
6.092849
 21
10.5535
 31
0.0
  0
LINE
  5
12E
  8
0
 10
6.092849
 20
11.1965
 30
0.0
 11
6.092849
 21
11.5885
 31
0.0
  0
LINE
  5
12F
  8
0
 10
6.092849
 20
11.5885
 30
0.0
 11
6.092849
 21
12.3535
 31
0.0
  0
LINE
  5
130
  8
0
 10
6.092849
 20
12.9965
 30
0.0
 11
6.092849
 21
13.3885
 31
0.0
  0
LINE
  5
131
  8
0
 10
6.092849
 20
13.3885
 30
0.0
 11
6.092849
 21
14.1535
 31
0.0
  0
LINE
  5
132
  8
0
 10
6.592849
 20
0.96137
 30
0.0
 11
6.592849
 21
1.5545
 31
0.0
  0
LINE
  5
133
  8
0
 10
6.592849
 20
0.96137
 30
0.0
 11
6.592849
 21
1.5545
 31
0.0
  0
LINE
  5
134
  8
0
 10
6.592849
 20
2.1975
 30
0.0
 11
6.592849
 21
2.5895
 31
0.0
  0
LINE
  5
135
  8
0
 10
6.592849
 20
2.5895
 30
0.0
 11
6.592849
 21
3.3545
 31
0.0
  0
LINE
  5
136
  8
0
 10
6.592849
 20
3.9975
 30
0.0
 11
6.592849
 21
4.3895
 31
0.0
  0
LINE
  5
137
  8
0
 10
6.592849
 20
4.3895
 30
0.0
 11
6.592849
 21
5.1545
 31
0.0
  0
LINE
  5
138
  8
0
 10
6.592849
 20
5.7975
 30
0.0
 11
6.592849
 21
6.1895
 31
0.0
  0
LINE
  5
139
  8
0
 10
6.592849
 20
6.1895
 30
0.0
 11
6.592849
 21
6.9545
 31
0.0
  0
LINE
  5
13A
  8
0
 10
6.592849
 20
7.5975
 30
0.0
 11
6.592849
 21
7.9895
 31
0.0
  0
LINE
  5
13B
  8
0
 10
6.592849
 20
7.9895
 30
0.0
 11
6.592849
 21
8.7545
 31
0.0
  0
LINE
  5
13C
  8
0
 10
6.592849
 20
9.3975
 30
0.0
 11
6.592849
 21
9.7895
 31
0.0
  0
LINE
  5
13D
  8
0
 10
6.592849
 20
9.7895
 30
0.0
 11
6.592849
 21
10.5545
 31
0.0
  0
LINE
  5
13E
  8
0
 10
6.592849
 20
11.1975
 30
0.0
 11
6.592849
 21
11.5895
 31
0.0
  0
LINE
  5
13F
  8
0
 10
6.592849
 20
11.5895
 30
0.0
 11
6.592849
 21
12.3545
 31
0.0
  0
LINE
  5
140
  8
0
 10
6.592849
 20
12.9975
 30
0.0
 11
6.592849
 21
13.3895
 31
0.0
  0
LINE
  5
141
  8
0
 10
6.592849
 20
13.3895
 30
0.0
 11
6.592849
 21
14.1545
 31
0.0
  0
LINE
  5
142
  8
0
 10
7.092849
 20
0.97002
 30
0.0
 11
7.092849
 21
1.5555
 31
0.0
  0
LINE
  5
143
  8
0
 10
7.092849
 20
0.97002
 30
0.0
 11
7.092849
 21
1.5555
 31
0.0
  0
LINE
  5
144
  8
0
 10
7.092849
 20
2.1985
 30
0.0
 11
7.092849
 21
2.5905
 31
0.0
  0
LINE
  5
145
  8
0
 10
7.092849
 20
2.5905
 30
0.0
 11
7.092849
 21
3.3555
 31
0.0
  0
LINE
  5
146
  8
0
 10
7.092849
 20
3.9985
 30
0.0
 11
7.092849
 21
4.7635
 31
0.0
  0
LINE
  5
147
  8
0
 10
7.092849
 20
4.7635
 30
0.0
 11
7.092849
 21
5.1555
 31
0.0
  0
LINE
  5
148
  8
0
 10
7.092849
 20
5.7985
 30
0.0
 11
7.092849
 21
6.5635
 31
0.0
  0
LINE
  5
149
  8
0
 10
7.092849
 20
6.5635
 30
0.0
 11
7.092849
 21
6.9555
 31
0.0
  0
LINE
  5
14A
  8
0
 10
7.092849
 20
7.5985
 30
0.0
 11
7.092849
 21
8.3635
 31
0.0
  0
LINE
  5
14B
  8
0
 10
7.092849
 20
8.3635
 30
0.0
 11
7.092849
 21
8.7555
 31
0.0
  0
LINE
  5
14C
  8
0
 10
7.092849
 20
9.3985
 30
0.0
 11
7.092849
 21
9.7905
 31
0.0
  0
LINE
  5
14D
  8
0
 10
7.092849
 20
9.7905
 30
0.0
 11
7.092849
 21
10.5555
 31
0.0
  0
LINE
  5
14E
  8
0
 10
7.092849
 20
11.1985
 30
0.0
 11
7.092849
 21
11.5905
 31
0.0
  0
LINE
  5
14F
  8
0
 10
7.092849
 20
11.5905
 30
0.0
 11
7.092849
 21
12.3555
 31
0.0
  0
LINE
  5
150
  8
0
 10
7.092849
 20
12.9985
 30
0.0
 11
7.092849
 21
13.3905
 31
0.0
  0
LINE
  5
151
  8
0
 10
7.092849
 20
13.3905
 30
0.0
 11
7.092849
 21
14.1555
 31
0.0
  0
LINE
  5
152
  8
0
 10
7.592849
 20
0.96798
 30
0.0
 11
7.592849
 21
1.55601
 31
0.0
  0
LINE
  5
153
  8
0
 10
7.592849
 20
0.96798
 30
0.0
 11
7.592849
 21
1.55601
 31
0.0
  0
LINE
  5
154
  8
0
 10
7.592849
 20
2.1985
 30
0.0
 11
7.592849
 21
2.59099
 31
0.0
  0
LINE
  5
155
  8
0
 10
7.592849
 20
2.59099
 30
0.0
 11
7.592849
 21
3.3565
 31
0.0
  0
LINE
  5
156
  8
0
 10
7.592849
 20
3.9985
 30
0.0
 11
7.592849
 21
4.39099
 31
0.0
  0
LINE
  5
157
  8
0
 10
7.592849
 20
4.39099
 30
0.0
 11
7.592849
 21
5.1565
 31
0.0
  0
LINE
  5
158
  8
0
 10
7.592849
 20
5.7985
 30
0.0
 11
7.592849
 21
6.56401
 31
0.0
  0
LINE
  5
159
  8
0
 10
7.592849
 20
6.56401
 30
0.0
 11
7.592849
 21
6.9565
 31
0.0
  0
LINE
  5
15A
  8
0
 10
7.592849
 20
7.5985
 30
0.0
 11
7.592849
 21
7.99099
 31
0.0
  0
LINE
  5
15B
  8
0
 10
7.592849
 20
7.99099
 30
0.0
 11
7.592849
 21
8.7565
 31
0.0
  0
LINE
  5
15C
  8
0
 10
7.592849
 20
9.3985
 30
0.0
 11
7.592849
 21
9.79099
 31
0.0
  0
LINE
  5
15D
  8
0
 10
7.592849
 20
9.79099
 30
0.0
 11
7.592849
 21
10.5565
 31
0.0
  0
LINE
  5
15E
  8
0
 10
7.592849
 20
11.1985
 30
0.0
 11
7.592849
 21
11.59099
 31
0.0
  0
LINE
  5
15F
  8
0
 10
7.592849
 20
11.59099
 30
0.0
 11
7.592849
 21
12.3565
 31
0.0
  0
LINE
  5
160
  8
0
 10
7.592849
 20
12.9985
 30
0.0
 11
7.592849
 21
13.39099
 31
0.0
  0
LINE
  5
161
  8
0
 10
7.592849
 20
13.39099
 30
0.0
 11
7.592849
 21
14.1565
 31
0.0
  0
LINE
  5
162
  8
0
 10
8.092849
 20
0.96235
 30
0.0
 11
8.092849
 21
1.5565
 31
0.0
  0
LINE
  5
163
  8
0
 10
8.092849
 20
0.96235
 30
0.0
 11
8.092849
 21
1.5565
 31
0.0
  0
LINE
  5
164
  8
0
 10
8.092849
 20
2.1995
 30
0.0
 11
8.092849
 21
2.5915
 31
0.0
  0
LINE
  5
165
  8
0
 10
8.092849
 20
2.5915
 30
0.0
 11
8.092849
 21
3.3565
 31
0.0
  0
LINE
  5
166
  8
0
 10
8.092849
 20
3.9995
 30
0.0
 11
8.092849
 21
4.3915
 31
0.0
  0
LINE
  5
167
  8
0
 10
8.092849
 20
4.3915
 30
0.0
 11
8.092849
 21
5.1565
 31
0.0
  0
LINE
  5
168
  8
0
 10
8.092849
 20
5.7995
 30
0.0
 11
8.092849
 21
6.1915
 31
0.0
  0
LINE
  5
169
  8
0
 10
8.092849
 20
6.1915
 30
0.0
 11
8.092849
 21
6.9565
 31
0.0
  0
LINE
  5
16A
  8
0
 10
8.092849
 20
7.5995
 30
0.0
 11
8.092849
 21
7.9915
 31
0.0
  0
LINE
  5
16B
  8
0
 10
8.092849
 20
7.9915
 30
0.0
 11
8.092849
 21
8.7565
 31
0.0
  0
LINE
  5
16C
  8
0
 10
8.092849
 20
9.3995
 30
0.0
 11
8.092849
 21
9.7915
 31
0.0
  0
LINE
  5
16D
  8
0
 10
8.092849
 20
9.7915
 30
0.0
 11
8.092849
 21
10.5565
 31
0.0
  0
LINE
  5
16E
  8
0
 10
8.092849
 20
11.1995
 30
0.0
 11
8.092849
 21
11.5915
 31
0.0
  0
LINE
  5
16F
  8
0
 10
8.092849
 20
11.5915
 30
0.0
 11
8.092849
 21
12.3565
 31
0.0
  0
LINE
  5
170
  8
0
 10
8.092849
 20
12.9995
 30
0.0
 11
8.092849
 21
13.3915
 31
0.0
  0
LINE
  5
171
  8
0
 10
8.092849
 20
13.3915
 30
0.0
 11
8.092849
 21
14.1565
 31
0.0
  0
LINE
  5
172
  8
0
 10
8.592849
 20
0.95672
 30
0.0
 11
8.592849
 21
1.5575
 31
0.0
  0
LINE
  5
173
  8
0
 10
8.592849
 20
0.95672
 30
0.0
 11
8.592849
 21
1.5575
 31
0.0
  0
LINE
  5
174
  8
0
 10
8.592849
 20
2.2005
 30
0.0
 11
8.592849
 21
2.9655
 31
0.0
  0
LINE
  5
175
  8
0
 10
8.592849
 20
2.9655
 30
0.0
 11
8.592849
 21
3.3575
 31
0.0
  0
LINE
  5
176
  8
0
 10
8.592849
 20
4.0005
 30
0.0
 11
8.592849
 21
4.7655
 31
0.0
  0
LINE
  5
177
  8
0
 10
8.592849
 20
4.7655
 30
0.0
 11
8.592849
 21
5.1575
 31
0.0
  0
LINE
  5
178
  8
0
 10
8.592849
 20
5.8005
 30
0.0
 11
8.592849
 21
6.1925
 31
0.0
  0
LINE
  5
179
  8
0
 10
8.592849
 20
6.1925
 30
0.0
 11
8.592849
 21
6.9575
 31
0.0
  0
LINE
  5
17A
  8
0
 10
8.592849
 20
7.6005
 30
0.0
 11
8.592849
 21
8.3655
 31
0.0
  0
LINE
  5
17B
  8
0
 10
8.592849
 20
8.3655
 30
0.0
 11
8.592849
 21
8.7575
 31
0.0
  0
LINE
  5
17C
  8
0
 10
8.592849
 20
9.4005
 30
0.0
 11
8.592849
 21
9.7925
 31
0.0
  0
LINE
  5
17D
  8
0
 10
8.592849
 20
9.7925
 30
0.0
 11
8.592849
 21
10.5575
 31
0.0
  0
LINE
  5
17E
  8
0
 10
8.592849
 20
11.2005
 30
0.0
 11
8.592849
 21
11.5925
 31
0.0
  0
LINE
  5
17F
  8
0
 10
8.592849
 20
11.5925
 30
0.0
 11
8.592849
 21
12.3575
 31
0.0
  0
LINE
  5
180
  8
0
 10
8.592849
 20
13.0005
 30
0.0
 11
8.592849
 21
13.3925
 31
0.0
  0
LINE
  5
181
  8
0
 10
8.592849
 20
13.3925
 30
0.0
 11
8.592849
 21
14.1575
 31
0.0
  0
LINE
  5
182
  8
0
 10
9.092849
 20
0.95109
 30
0.0
 11
9.092849
 21
1.5585
 31
0.0
  0
LINE
  5
183
  8
0
 10
9.092849
 20
0.95109
 30
0.0
 11
9.092849
 21
1.5585
 31
0.0
  0
LINE
  5
184
  8
0
 10
9.092849
 20
2.2015
 30
0.0
 11
9.092849
 21
2.5935
 31
0.0
  0
LINE
  5
185
  8
0
 10
9.092849
 20
2.5935
 30
0.0
 11
9.092849
 21
3.3585
 31
0.0
  0
LINE
  5
186
  8
0
 10
9.092849
 20
4.0015
 30
0.0
 11
9.092849
 21
4.3935
 31
0.0
  0
LINE
  5
187
  8
0
 10
9.092849
 20
4.3935
 30
0.0
 11
9.092849
 21
5.1585
 31
0.0
  0
LINE
  5
188
  8
0
 10
9.092849
 20
5.8015
 30
0.0
 11
9.092849
 21
6.5665
 31
0.0
  0
LINE
  5
189
  8
0
 10
9.092849
 20
6.5665
 30
0.0
 11
9.092849
 21
6.9585
 31
0.0
  0
LINE
  5
18A
  8
0
 10
9.092849
 20
7.6015
 30
0.0
 11
9.092849
 21
8.3665
 31
0.0
  0
LINE
  5
18B
  8
0
 10
9.092849
 20
8.3665
 30
0.0
 11
9.092849
 21
8.7585
 31
0.0
  0
LINE
  5
18C
  8
0
 10
9.092849
 20
9.4015
 30
0.0
 11
9.092849
 21
9.7935
 31
0.0
  0
LINE
  5
18D
  8
0
 10
9.092849
 20
9.7935
 30
0.0
 11
9.092849
 21
10.5585
 31
0.0
  0
LINE
  5
18E
  8
0
 10
9.092849
 20
11.2015
 30
0.0
 11
9.092849
 21
11.5935
 31
0.0
  0
LINE
  5
18F
  8
0
 10
9.092849
 20
11.5935
 30
0.0
 11
9.092849
 21
12.3585
 31
0.0
  0
LINE
  5
190
  8
0
 10
9.092849
 20
13.0015
 30
0.0
 11
9.092849
 21
13.3935
 31
0.0
  0
LINE
  5
191
  8
0
 10
9.092849
 20
13.3935
 30
0.0
 11
9.092849
 21
14.1585
 31
0.0
  0
LINE
  5
192
  8
0
 10
9.592849
 20
0.94497
 30
0.0
 11
9.592849
 21
1.5585
 31
0.0
  0
LINE
  5
193
  8
0
 10
9.592849
 20
0.94497
 30
0.0
 11
9.592849
 21
1.5585
 31
0.0
  0
LINE
  5
194
  8
0
 10
9.592849
 20
2.2015
 30
0.0
 11
9.592849
 21
2.5935
 31
0.0
  0
LINE
  5
195
  8
0
 10
9.592849
 20
2.5935
 30
0.0
 11
9.592849
 21
3.3585
 31
0.0
  0
LINE
  5
196
  8
0
 10
9.592849
 20
4.0015
 30
0.0
 11
9.592849
 21
4.3935
 31
0.0
  0
LINE
  5
197
  8
0
 10
9.592849
 20
4.3935
 30
0.0
 11
9.592849
 21
5.1585
 31
0.0
  0
LINE
  5
198
  8
0
 10
9.592849
 20
5.8015
 30
0.0
 11
9.592849
 21
6.5665
 31
0.0
  0
LINE
  5
199
  8
0
 10
9.592849
 20
6.5665
 30
0.0
 11
9.592849
 21
6.9585
 31
0.0
  0
LINE
  5
19A
  8
0
 10
9.592849
 20
7.6015
 30
0.0
 11
9.592849
 21
8.3665
 31
0.0
  0
LINE
  5
19B
  8
0
 10
9.592849
 20
8.3665
 30
0.0
 11
9.592849
 21
8.7585
 31
0.0
  0
LINE
  5
19C
  8
0
 10
9.592849
 20
9.4015
 30
0.0
 11
9.592849
 21
9.7935
 31
0.0
  0
LINE
  5
19D
  8
0
 10
9.592849
 20
9.7935
 30
0.0
 11
9.592849
 21
10.5585
 31
0.0
  0
LINE
  5
19E
  8
0
 10
9.592849
 20
11.2015
 30
0.0
 11
9.592849
 21
11.5935
 31
0.0
  0
LINE
  5
19F
  8
0
 10
9.592849
 20
11.5935
 30
0.0
 11
9.592849
 21
12.3585
 31
0.0
  0
LINE
  5
1A0
  8
0
 10
9.592849
 20
13.0015
 30
0.0
 11
9.592849
 21
13.3935
 31
0.0
  0
LINE
  5
1A1
  8
0
 10
9.592849
 20
13.3935
 30
0.0
 11
9.592849
 21
14.1585
 31
0.0
  0
LINE
  5
1A2
  8
0
 10
10.092849
 20
0.93934
 30
0.0
 11
10.092849
 21
1.5595
 31
0.0
  0
LINE
  5
1A3
  8
0
 10
10.092849
 20
0.93934
 30
0.0
 11
10.092849
 21
1.5595
 31
0.0
  0
LINE
  5
1A4
  8
0
 10
10.092849
 20
2.2025
 30
0.0
 11
10.092849
 21
2.5945
 31
0.0
  0
LINE
  5
1A5
  8
0
 10
10.092849
 20
2.5945
 30
0.0
 11
10.092849
 21
3.3595
 31
0.0
  0
LINE
  5
1A6
  8
0
 10
10.092849
 20
4.0025
 30
0.0
 11
10.092849
 21
4.3945
 31
0.0
  0
LINE
  5
1A7
  8
0
 10
10.092849
 20
4.3945
 30
0.0
 11
10.092849
 21
5.1595
 31
0.0
  0
LINE
  5
1A8
  8
0
 10
10.092849
 20
5.8025
 30
0.0
 11
10.092849
 21
6.1945
 31
0.0
  0
LINE
  5
1A9
  8
0
 10
10.092849
 20
6.1945
 30
0.0
 11
10.092849
 21
6.9595
 31
0.0
  0
LINE
  5
1AA
  8
0
 10
10.092849
 20
7.6025
 30
0.0
 11
10.092849
 21
7.9945
 31
0.0
  0
LINE
  5
1AB
  8
0
 10
10.092849
 20
7.9945
 30
0.0
 11
10.092849
 21
8.7595
 31
0.0
  0
LINE
  5
1AC
  8
0
 10
10.092849
 20
9.4025
 30
0.0
 11
10.092849
 21
9.7945
 31
0.0
  0
LINE
  5
1AD
  8
0
 10
10.092849
 20
9.7945
 30
0.0
 11
10.092849
 21
10.5595
 31
0.0
  0
LINE
  5
1AE
  8
0
 10
10.092849
 20
11.2025
 30
0.0
 11
10.092849
 21
11.5945
 31
0.0
  0
LINE
  5
1AF
  8
0
 10
10.092849
 20
11.5945
 30
0.0
 11
10.092849
 21
12.3595
 31
0.0
  0
LINE
  5
1B0
  8
0
 10
10.092849
 20
13.0025
 30
0.0
 11
10.092849
 21
13.7675
 31
0.0
  0
LINE
  5
1B1
  8
0
 10
10.092849
 20
13.7675
 30
0.0
 11
10.092849
 21
14.1595
 31
0.0
  0
LINE
  5
1B2
  8
0
 10
10.592849
 20
0.93371
 30
0.0
 11
10.592849
 21
1.5605
 31
0.0
  0
LINE
  5
1B3
  8
0
 10
10.592849
 20
0.93371
 30
0.0
 11
10.592849
 21
1.5605
 31
0.0
  0
LINE
  5
1B4
  8
0
 10
10.592849
 20
2.2035
 30
0.0
 11
10.592849
 21
2.5955
 31
0.0
  0
LINE
  5
1B5
  8
0
 10
10.592849
 20
2.5955
 30
0.0
 11
10.592849
 21
3.3605
 31
0.0
  0
LINE
  5
1B6
  8
0
 10
10.592849
 20
4.0035
 30
0.0
 11
10.592849
 21
4.7685
 31
0.0
  0
LINE
  5
1B7
  8
0
 10
10.592849
 20
4.7685
 30
0.0
 11
10.592849
 21
5.1605
 31
0.0
  0
LINE
  5
1B8
  8
0
 10
10.592849
 20
5.8035
 30
0.0
 11
10.592849
 21
6.1955
 31
0.0
  0
LINE
  5
1B9
  8
0
 10
10.592849
 20
6.1955
 30
0.0
 11
10.592849
 21
6.9605
 31
0.0
  0
LINE
  5
1BA
  8
0
 10
10.592849
 20
7.6035
 30
0.0
 11
10.592849
 21
8.3685
 31
0.0
  0
LINE
  5
1BB
  8
0
 10
10.592849
 20
8.3685
 30
0.0
 11
10.592849
 21
8.7605
 31
0.0
  0
LINE
  5
1BC
  8
0
 10
10.592849
 20
9.4035
 30
0.0
 11
10.592849
 21
9.7955
 31
0.0
  0
LINE
  5
1BD
  8
0
 10
10.592849
 20
9.7955
 30
0.0
 11
10.592849
 21
10.5605
 31
0.0
  0
LINE
  5
1BE
  8
0
 10
10.592849
 20
11.2035
 30
0.0
 11
10.592849
 21
11.5955
 31
0.0
  0
LINE
  5
1BF
  8
0
 10
10.592849
 20
11.5955
 30
0.0
 11
10.592849
 21
12.3605
 31
0.0
  0
LINE
  5
1C0
  8
0
 10
10.592849
 20
13.0035
 30
0.0
 11
10.592849
 21
13.3955
 31
0.0
  0
LINE
  5
1C1
  8
0
 10
10.592849
 20
13.3955
 30
0.0
 11
10.592849
 21
14.1605
 31
0.0
  0
LINE
  5
1C2
  8
0
 10
11.092849
 20
0.92759
 30
0.0
 11
11.092849
 21
1.56101
 31
0.0
  0
LINE
  5
1C3
  8
0
 10
11.092849
 20
0.92759
 30
0.0
 11
11.092849
 21
1.56101
 31
0.0
  0
LINE
  5
1C4
  8
0
 10
11.092849
 20
2.2035
 30
0.0
 11
11.092849
 21
2.20399
 31
0.0
  0
LINE
  5
1C5
  8
0
 10
11.092849
 20
2.20399
 30
0.0
 11
11.092849
 21
2.9695
 31
0.0
  0
LINE
  5
1C6
  8
0
 10
11.092849
 20
2.9695
 30
0.0
 11
11.092849
 21
3.3615
 31
0.0
  0
LINE
  5
1C7
  8
0
 10
11.092849
 20
4.0035
 30
0.0
 11
11.092849
 21
4.00399
 31
0.0
  0
LINE
  5
1C8
  8
0
 10
11.092849
 20
4.00399
 30
0.0
 11
11.092849
 21
4.7695
 31
0.0
  0
LINE
  5
1C9
  8
0
 10
11.092849
 20
4.7695
 30
0.0
 11
11.092849
 21
5.1615
 31
0.0
  0
LINE
  5
1CA
  8
0
 10
11.092849
 20
5.8035
 30
0.0
 11
11.092849
 21
5.80399
 31
0.0
  0
LINE
  5
1CB
  8
0
 10
11.092849
 20
5.80399
 30
0.0
 11
11.092849
 21
6.5695
 31
0.0
  0
LINE
  5
1CC
  8
0
 10
11.092849
 20
6.5695
 30
0.0
 11
11.092849
 21
6.9615
 31
0.0
  0
LINE
  5
1CD
  8
0
 10
11.092849
 20
7.6035
 30
0.0
 11
11.092849
 21
7.60399
 31
0.0
  0
LINE
  5
1CE
  8
0
 10
11.092849
 20
7.60399
 30
0.0
 11
11.092849
 21
8.3695
 31
0.0
  0
LINE
  5
1CF
  8
0
 10
11.092849
 20
8.3695
 30
0.0
 11
11.092849
 21
8.7615
 31
0.0
  0
LINE
  5
1D0
  8
0
 10
11.092849
 20
9.4035
 30
0.0
 11
11.092849
 21
9.40399
 31
0.0
  0
LINE
  5
1D1
  8
0
 10
11.092849
 20
9.40399
 30
0.0
 11
11.092849
 21
10.1695
 31
0.0
  0
LINE
  5
1D2
  8
0
 10
11.092849
 20
10.1695
 30
0.0
 11
11.092849
 21
10.5615
 31
0.0
  0
LINE
  5
1D3
  8
0
 10
11.092849
 20
11.2035
 30
0.0
 11
11.092849
 21
11.20399
 31
0.0
  0
LINE
  5
1D4
  8
0
 10
11.092849
 20
11.20399
 30
0.0
 11
11.092849
 21
11.9695
 31
0.0
  0
LINE
  5
1D5
  8
0
 10
11.092849
 20
11.9695
 30
0.0
 11
11.092849
 21
12.3615
 31
0.0
  0
LINE
  5
1D6
  8
0
 10
11.092849
 20
13.0035
 30
0.0
 11
11.092849
 21
13.00399
 31
0.0
  0
LINE
  5
1D7
  8
0
 10
11.092849
 20
13.00399
 30
0.0
 11
11.092849
 21
13.7695
 31
0.0
  0
LINE
  5
1D8
  8
0
 10
11.092849
 20
13.7695
 30
0.0
 11
11.092849
 21
14.1615
 31
0.0
  0
LINE
  5
1D9
  8
0
 10
11.592849
 20
0.92196
 30
0.0
 11
11.592849
 21
1.5615
 31
0.0
  0
LINE
  5
1DA
  8
0
 10
11.592849
 20
0.92196
 30
0.0
 11
11.592849
 21
1.5615
 31
0.0
  0
LINE
  5
1DB
  8
0
 10
11.592849
 20
2.2045
 30
0.0
 11
11.592849
 21
2.9695
 31
0.0
  0
LINE
  5
1DC
  8
0
 10
11.592849
 20
2.9695
 30
0.0
 11
11.592849
 21
3.3615
 31
0.0
  0
LINE
  5
1DD
  8
0
 10
11.592849
 20
4.0045
 30
0.0
 11
11.592849
 21
4.3965
 31
0.0
  0
LINE
  5
1DE
  8
0
 10
11.592849
 20
4.3965
 30
0.0
 11
11.592849
 21
5.1615
 31
0.0
  0
LINE
  5
1DF
  8
0
 10
11.592849
 20
5.8045
 30
0.0
 11
11.592849
 21
6.5695
 31
0.0
  0
LINE
  5
1E0
  8
0
 10
11.592849
 20
6.5695
 30
0.0
 11
11.592849
 21
6.9615
 31
0.0
  0
LINE
  5
1E1
  8
0
 10
11.592849
 20
7.6045
 30
0.0
 11
11.592849
 21
8.3695
 31
0.0
  0
LINE
  5
1E2
  8
0
 10
11.592849
 20
8.3695
 30
0.0
 11
11.592849
 21
8.7615
 31
0.0
  0
LINE
  5
1E3
  8
0
 10
11.592849
 20
9.4045
 30
0.0
 11
11.592849
 21
9.7965
 31
0.0
  0
LINE
  5
1E4
  8
0
 10
11.592849
 20
9.7965
 30
0.0
 11
11.592849
 21
10.5615
 31
0.0
  0
LINE
  5
1E5
  8
0
 10
11.592849
 20
11.2045
 30
0.0
 11
11.592849
 21
11.9695
 31
0.0
  0
LINE
  5
1E6
  8
0
 10
11.592849
 20
11.9695
 30
0.0
 11
11.592849
 21
12.3615
 31
0.0
  0
LINE
  5
1E7
  8
0
 10
11.592849
 20
13.0045
 30
0.0
 11
11.592849
 21
13.3965
 31
0.0
  0
LINE
  5
1E8
  8
0
 10
11.592849
 20
13.3965
 30
0.0
 11
11.592849
 21
14.1615
 31
0.0
  0
LINE
  5
1E9
  8
0
 10
12.092849
 20
0.91633
 30
0.0
 11
12.092849
 21
1.5625
 31
0.0
  0
LINE
  5
1EA
  8
0
 10
12.092849
 20
0.91633
 30
0.0
 11
12.092849
 21
1.5625
 31
0.0
  0
LINE
  5
1EB
  8
0
 10
12.092849
 20
2.2055
 30
0.0
 11
12.092849
 21
2.5975
 31
0.0
  0
LINE
  5
1EC
  8
0
 10
12.092849
 20
2.5975
 30
0.0
 11
12.092849
 21
3.3625
 31
0.0
  0
LINE
  5
1ED
  8
0
 10
12.092849
 20
4.0055
 30
0.0
 11
12.092849
 21
4.3975
 31
0.0
  0
LINE
  5
1EE
  8
0
 10
12.092849
 20
4.3975
 30
0.0
 11
12.092849
 21
5.1625
 31
0.0
  0
LINE
  5
1EF
  8
0
 10
12.092849
 20
5.8055
 30
0.0
 11
12.092849
 21
6.1975
 31
0.0
  0
LINE
  5
1F0
  8
0
 10
12.092849
 20
6.1975
 30
0.0
 11
12.092849
 21
6.9625
 31
0.0
  0
LINE
  5
1F1
  8
0
 10
12.092849
 20
7.6055
 30
0.0
 11
12.092849
 21
7.9975
 31
0.0
  0
LINE
  5
1F2
  8
0
 10
12.092849
 20
7.9975
 30
0.0
 11
12.092849
 21
8.7625
 31
0.0
  0
LINE
  5
1F3
  8
0
 10
12.092849
 20
9.4055
 30
0.0
 11
12.092849
 21
9.7975
 31
0.0
  0
LINE
  5
1F4
  8
0
 10
12.092849
 20
9.7975
 30
0.0
 11
12.092849
 21
10.5625
 31
0.0
  0
LINE
  5
1F5
  8
0
 10
12.092849
 20
11.2055
 30
0.0
 11
12.092849
 21
11.5975
 31
0.0
  0
LINE
  5
1F6
  8
0
 10
12.092849
 20
11.5975
 30
0.0
 11
12.092849
 21
12.3625
 31
0.0
  0
LINE
  5
1F7
  8
0
 10
12.092849
 20
13.0055
 30
0.0
 11
12.092849
 21
13.7705
 31
0.0
  0
LINE
  5
1F8
  8
0
 10
12.092849
 20
13.7705
 30
0.0
 11
12.092849
 21
14.1625
 31
0.0
  0
LINE
  5
1F9
  8
0
 10
12.592849
 20
0.9107
 30
0.0
 11
12.592849
 21
1.5635
 31
0.0
  0
LINE
  5
1FA
  8
0
 10
12.592849
 20
0.9107
 30
0.0
 11
12.592849
 21
1.5635
 31
0.0
  0
LINE
  5
1FB
  8
0
 10
12.592849
 20
2.2065
 30
0.0
 11
12.592849
 21
2.5985
 31
0.0
  0
LINE
  5
1FC
  8
0
 10
12.592849
 20
2.5985
 30
0.0
 11
12.592849
 21
3.3635
 31
0.0
  0
LINE
  5
1FD
  8
0
 10
12.592849
 20
4.0065
 30
0.0
 11
12.592849
 21
4.7715
 31
0.0
  0
LINE
  5
1FE
  8
0
 10
12.592849
 20
4.7715
 30
0.0
 11
12.592849
 21
5.1635
 31
0.0
  0
LINE
  5
1FF
  8
0
 10
12.592849
 20
5.8065
 30
0.0
 11
12.592849
 21
6.5715
 31
0.0
  0
LINE
  5
200
  8
0
 10
12.592849
 20
6.5715
 30
0.0
 11
12.592849
 21
6.9635
 31
0.0
  0
LINE
  5
201
  8
0
 10
12.592849
 20
7.6065
 30
0.0
 11
12.592849
 21
8.3715
 31
0.0
  0
LINE
  5
202
  8
0
 10
12.592849
 20
8.3715
 30
0.0
 11
12.592849
 21
8.7635
 31
0.0
  0
LINE
  5
203
  8
0
 10
12.592849
 20
9.4065
 30
0.0
 11
12.592849
 21
10.1715
 31
0.0
  0
LINE
  5
204
  8
0
 10
12.592849
 20
10.1715
 30
0.0
 11
12.592849
 21
10.5635
 31
0.0
  0
LINE
  5
205
  8
0
 10
12.592849
 20
11.2065
 30
0.0
 11
12.592849
 21
11.5985
 31
0.0
  0
LINE
  5
206
  8
0
 10
12.592849
 20
11.5985
 30
0.0
 11
12.592849
 21
12.3635
 31
0.0
  0
LINE
  5
207
  8
0
 10
12.592849
 20
13.0065
 30
0.0
 11
12.592849
 21
13.3985
 31
0.0
  0
LINE
  5
208
  8
0
 10
12.592849
 20
13.3985
 30
0.0
 11
12.592849
 21
14.1635
 31
0.0
  0
LINE
  5
209
  8
0
 10
13.092849
 20
0.9107
 30
0.0
 11
13.092849
 21
1.56401
 31
0.0
  0
LINE
  5
20A
  8
0
 10
13.092849
 20
0.9107
 30
0.0
 11
13.092849
 21
1.56401
 31
0.0
  0
LINE
  5
20B
  8
0
 10
13.092849
 20
2.2065
 30
0.0
 11
13.092849
 21
2.5985
 31
0.0
  0
LINE
  5
20C
  8
0
 10
13.092849
 20
2.5985
 30
0.0
 11
13.092849
 21
3.36401
 31
0.0
  0
LINE
  5
20D
  8
0
 10
13.092849
 20
4.0065
 30
0.0
 11
13.092849
 21
4.3985
 31
0.0
  0
LINE
  5
20E
  8
0
 10
13.092849
 20
4.3985
 30
0.0
 11
13.092849
 21
5.16401
 31
0.0
  0
LINE
  5
20F
  8
0
 10
13.092849
 20
5.8065
 30
0.0
 11
13.092849
 21
6.1985
 31
0.0
  0
LINE
  5
210
  8
0
 10
13.092849
 20
6.1985
 30
0.0
 11
13.092849
 21
6.96401
 31
0.0
  0
LINE
  5
211
  8
0
 10
13.092849
 20
7.6065
 30
0.0
 11
13.092849
 21
7.9985
 31
0.0
  0
LINE
  5
212
  8
0
 10
13.092849
 20
7.9985
 30
0.0
 11
13.092849
 21
8.76401
 31
0.0
  0
LINE
  5
213
  8
0
 10
13.092849
 20
9.4065
 30
0.0
 11
13.092849
 21
9.7985
 31
0.0
  0
LINE
  5
214
  8
0
 10
13.092849
 20
9.7985
 30
0.0
 11
13.092849
 21
10.56401
 31
0.0
  0
LINE
  5
215
  8
0
 10
13.092849
 20
11.2065
 30
0.0
 11
13.092849
 21
11.5985
 31
0.0
  0
LINE
  5
216
  8
0
 10
13.092849
 20
11.5985
 30
0.0
 11
13.092849
 21
12.36401
 31
0.0
  0
LINE
  5
217
  8
0
 10
13.092849
 20
13.0065
 30
0.0
 11
13.092849
 21
13.3985
 31
0.0
  0
LINE
  5
218
  8
0
 10
13.092849
 20
13.3985
 30
0.0
 11
13.092849
 21
14.16401
 31
0.0
  0
LINE
  5
219
  8
0
 10
13.592849
 20
0.94587
 30
0.0
 11
13.592849
 21
1.5645
 31
0.0
  0
LINE
  5
21A
  8
0
 10
13.592849
 20
0.94587
 30
0.0
 11
13.592849
 21
1.5645
 31
0.0
  0
LINE
  5
21B
  8
0
 10
13.592849
 20
2.2075
 30
0.0
 11
13.592849
 21
2.5995
 31
0.0
  0
LINE
  5
21C
  8
0
 10
13.592849
 20
2.5995
 30
0.0
 11
13.592849
 21
3.3645
 31
0.0
  0
LINE
  5
21D
  8
0
 10
13.592849
 20
4.0075
 30
0.0
 11
13.592849
 21
4.3995
 31
0.0
  0
LINE
  5
21E
  8
0
 10
13.592849
 20
4.3995
 30
0.0
 11
13.592849
 21
5.1645
 31
0.0
  0
LINE
  5
21F
  8
0
 10
13.592849
 20
5.8075
 30
0.0
 11
13.592849
 21
6.1995
 31
0.0
  0
LINE
  5
220
  8
0
 10
13.592849
 20
6.1995
 30
0.0
 11
13.592849
 21
6.9645
 31
0.0
  0
LINE
  5
221
  8
0
 10
13.592849
 20
7.6075
 30
0.0
 11
13.592849
 21
8.3725
 31
0.0
  0
LINE
  5
222
  8
0
 10
13.592849
 20
8.3725
 30
0.0
 11
13.592849
 21
8.7645
 31
0.0
  0
LINE
  5
223
  8
0
 10
13.592849
 20
9.4075
 30
0.0
 11
13.592849
 21
9.7995
 31
0.0
  0
LINE
  5
224
  8
0
 10
13.592849
 20
9.7995
 30
0.0
 11
13.592849
 21
10.5645
 31
0.0
  0
LINE
  5
225
  8
0
 10
13.592849
 20
11.2075
 30
0.0
 11
13.592849
 21
11.9725
 31
0.0
  0
LINE
  5
226
  8
0
 10
13.592849
 20
11.9725
 30
0.0
 11
13.592849
 21
12.3645
 31
0.0
  0
LINE
  5
227
  8
0
 10
13.592849
 20
13.0075
 30
0.0
 11
13.592849
 21
13.3995
 31
0.0
  0
LINE
  5
228
  8
0
 10
13.592849
 20
13.3995
 30
0.0
 11
13.592849
 21
14.1645
 31
0.0
  0
LINE
  5
229
  8
0
 10
14.092849
 20
1.01317
 30
0.0
 11
14.092849
 21
1.5655
 31
0.0
  0
LINE
  5
22A
  8
0
 10
14.092849
 20
1.01317
 30
0.0
 11
14.092849
 21
1.5655
 31
0.0
  0
LINE
  5
22B
  8
0
 10
14.092849
 20
2.2085
 30
0.0
 11
14.092849
 21
2.9735
 31
0.0
  0
LINE
  5
22C
  8
0
 10
14.092849
 20
2.9735
 30
0.0
 11
14.092849
 21
3.3655
 31
0.0
  0
LINE
  5
22D
  8
0
 10
14.092849
 20
4.0085
 30
0.0
 11
14.092849
 21
4.7735
 31
0.0
  0
LINE
  5
22E
  8
0
 10
14.092849
 20
4.7735
 30
0.0
 11
14.092849
 21
5.1655
 31
0.0
  0
LINE
  5
22F
  8
0
 10
14.092849
 20
5.8085
 30
0.0
 11
14.092849
 21
6.2005
 31
0.0
  0
LINE
  5
230
  8
0
 10
14.092849
 20
6.2005
 30
0.0
 11
14.092849
 21
6.9655
 31
0.0
  0
LINE
  5
231
  8
0
 10
14.092849
 20
7.6085
 30
0.0
 11
14.092849
 21
8.3735
 31
0.0
  0
LINE
  5
232
  8
0
 10
14.092849
 20
8.3735
 30
0.0
 11
14.092849
 21
8.7655
 31
0.0
  0
LINE
  5
233
  8
0
 10
14.092849
 20
9.4085
 30
0.0
 11
14.092849
 21
9.8005
 31
0.0
  0
LINE
  5
234
  8
0
 10
14.092849
 20
9.8005
 30
0.0
 11
14.092849
 21
10.5655
 31
0.0
  0
LINE
  5
235
  8
0
 10
14.092849
 20
11.2085
 30
0.0
 11
14.092849
 21
11.6005
 31
0.0
  0
LINE
  5
236
  8
0
 10
14.092849
 20
11.6005
 30
0.0
 11
14.092849
 21
12.3655
 31
0.0
  0
LINE
  5
237
  8
0
 10
14.092849
 20
13.0085
 30
0.0
 11
14.092849
 21
13.4005
 31
0.0
  0
LINE
  5
238
  8
0
 10
14.092849
 20
13.4005
 30
0.0
 11
14.092849
 21
14.1655
 31
0.0
  0
LINE
  5
239
  8
0
 10
14.592849
 20
1.30489
 30
0.0
 11
14.592849
 21
1.5665
 31
0.0
  0
LINE
  5
23A
  8
0
 10
14.592849
 20
1.30489
 30
0.0
 11
14.592849
 21
1.5665
 31
0.0
  0
LINE
  5
23B
  8
0
 10
14.592849
 20
2.20901
 30
0.0
 11
14.592849
 21
2.6015
 31
0.0
  0
LINE
  5
23C
  8
0
 10
14.592849
 20
2.6015
 30
0.0
 11
14.592849
 21
3.3665
 31
0.0
  0
LINE
  5
23D
  8
0
 10
14.592849
 20
4.00901
 30
0.0
 11
14.592849
 21
4.4015
 31
0.0
  0
LINE
  5
23E
  8
0
 10
14.592849
 20
4.4015
 30
0.0
 11
14.592849
 21
5.1665
 31
0.0
  0
LINE
  5
23F
  8
0
 10
14.592849
 20
5.80901
 30
0.0
 11
14.592849
 21
6.5745
 31
0.0
  0
LINE
  5
240
  8
0
 10
14.592849
 20
6.5745
 30
0.0
 11
14.592849
 21
6.9665
 31
0.0
  0
LINE
  5
241
  8
0
 10
14.592849
 20
7.60901
 30
0.0
 11
14.592849
 21
8.3745
 31
0.0
  0
LINE
  5
242
  8
0
 10
14.592849
 20
8.3745
 30
0.0
 11
14.592849
 21
8.7665
 31
0.0
  0
LINE
  5
243
  8
0
 10
14.592849
 20
9.40901
 30
0.0
 11
14.592849
 21
10.1745
 31
0.0
  0
LINE
  5
244
  8
0
 10
14.592849
 20
10.1745
 30
0.0
 11
14.592849
 21
10.5665
 31
0.0
  0
LINE
  5
245
  8
0
 10
14.592849
 20
11.20901
 30
0.0
 11
14.592849
 21
11.6015
 31
0.0
  0
LINE
  5
246
  8
0
 10
14.592849
 20
11.6015
 30
0.0
 11
14.592849
 21
12.3665
 31
0.0
  0
LINE
  5
247
  8
0
 10
14.592849
 20
13.00901
 30
0.0
 11
14.592849
 21
13.4015
 31
0.0
  0
LINE
  5
248
  8
0
 10
14.592849
 20
13.4015
 30
0.0
 11
14.592849
 21
14.1665
 31
0.0
  0
LINE
  5
249
  8
0
 10
1.7055
 20
0.592238
 30
0.0
 11
2.4705
 21
0.592238
 31
0.0
  0
LINE
  5
24A
  8
0
 10
1.7055
 20
0.592238
 30
0.0
 11
2.4705
 21
0.592238
 31
0.0
  0
LINE
  5
24B
  8
0
 10
2.4705
 20
0.592238
 30
0.0
 11
2.8625
 21
0.592238
 31
0.0
  0
LINE
  5
24C
  8
0
 10
3.5055
 20
0.592238
 30
0.0
 11
3.8975
 21
0.592238
 31
0.0
  0
LINE
  5
24D
  8
0
 10
3.8975
 20
0.592238
 30
0.0
 11
4.6625
 21
0.592238
 31
0.0
  0
LINE
  5
24E
  8
0
 10
5.3055
 20
0.592238
 30
0.0
 11
5.6975
 21
0.592238
 31
0.0
  0
LINE
  5
24F
  8
0
 10
5.6975
 20
0.592238
 30
0.0
 11
6.4625
 21
0.592238
 31
0.0
  0
LINE
  5
250
  8
0
 10
7.07512
 20
0.592238
 30
0.0
 11
7.22251
 21
0.592238
 31
0.0
  0
LINE
  5
251
  8
0
 10
7.6935
 20
0.592238
 30
0.0
 11
7.69399
 21
0.592238
 31
0.0
  0
LINE
  5
252
  8
0
 10
7.69399
 20
0.592238
 30
0.0
 11
8.4595
 21
0.592238
 31
0.0
  0
LINE
  5
253
  8
0
 10
8.4595
 20
0.592238
 30
0.0
 11
8.8515
 21
0.592238
 31
0.0
  0
LINE
  5
254
  8
0
 10
9.4935
 20
0.592238
 30
0.0
 11
9.49399
 21
0.592238
 31
0.0
  0
LINE
  5
255
  8
0
 10
9.49399
 20
0.592238
 30
0.0
 11
10.2595
 21
0.592238
 31
0.0
  0
LINE
  5
256
  8
0
 10
10.2595
 20
0.592238
 30
0.0
 11
10.6515
 21
0.592238
 31
0.0
  0
LINE
  5
257
  8
0
 10
11.2935
 20
0.592238
 30
0.0
 11
11.29399
 21
0.592238
 31
0.0
  0
LINE
  5
258
  8
0
 10
11.29399
 20
0.592238
 30
0.0
 11
12.0595
 21
0.592238
 31
0.0
  0
LINE
  5
259
  8
0
 10
12.0595
 20
0.592238
 30
0.0
 11
12.4515
 21
0.592238
 31
0.0
  0
LINE
  5
25A
  8
0
 10
13.0935
 20
0.592238
 30
0.0
 11
13.09399
 21
0.592238
 31
0.0
  0
LINE
  5
25B
  8
0
 10
13.09399
 20
0.592238
 30
0.0
 11
13.60858
 21
0.592238
 31
0.0
  0
LINE
  5
25C
  8
0
 10
1.1225
 20
1.092238
 30
0.0
 11
1.51499
 21
1.092238
 31
0.0
  0
LINE
  5
25D
  8
0
 10
1.1225
 20
1.092238
 30
0.0
 11
1.51499
 21
1.092238
 31
0.0
  0
LINE
  5
25E
  8
0
 10
1.51499
 20
1.092238
 30
0.0
 11
2.2805
 21
1.092238
 31
0.0
  0
LINE
  5
25F
  8
0
 10
2.9225
 20
1.092238
 30
0.0
 11
3.68801
 21
1.092238
 31
0.0
  0
LINE
  5
260
  8
0
 10
3.68801
 20
1.092238
 30
0.0
 11
4.0805
 21
1.092238
 31
0.0
  0
LINE
  5
261
  8
0
 10
4.7225
 20
1.092238
 30
0.0
 11
5.11499
 21
1.092238
 31
0.0
  0
LINE
  5
262
  8
0
 10
5.11499
 20
1.092238
 30
0.0
 11
5.8805
 21
1.092238
 31
0.0
  0
LINE
  5
263
  8
0
 10
6.5225
 20
1.092238
 30
0.0
 11
7.28801
 21
1.092238
 31
0.0
  0
LINE
  5
264
  8
0
 10
7.28801
 20
1.092238
 30
0.0
 11
7.6805
 21
1.092238
 31
0.0
  0
LINE
  5
265
  8
0
 10
8.3225
 20
1.092238
 30
0.0
 11
8.71499
 21
1.092238
 31
0.0
  0
LINE
  5
266
  8
0
 10
8.71499
 20
1.092238
 30
0.0
 11
9.4805
 21
1.092238
 31
0.0
  0
LINE
  5
267
  8
0
 10
10.1225
 20
1.092238
 30
0.0
 11
10.88801
 21
1.092238
 31
0.0
  0
LINE
  5
268
  8
0
 10
10.88801
 20
1.092238
 30
0.0
 11
11.2805
 21
1.092238
 31
0.0
  0
LINE
  5
269
  8
0
 10
11.9225
 20
1.092238
 30
0.0
 11
12.68801
 21
1.092238
 31
0.0
  0
LINE
  5
26A
  8
0
 10
12.68801
 20
1.092238
 30
0.0
 11
13.0805
 21
1.092238
 31
0.0
  0
LINE
  5
26B
  8
0
 10
13.7225
 20
1.092238
 30
0.0
 11
13.72299
 21
1.092238
 31
0.0
  0
LINE
  5
26C
  8
0
 10
13.72299
 20
1.092238
 30
0.0
 11
14.22585
 21
1.092238
 31
0.0
  0
LINE
  5
26D
  8
0
 10
0.9905
 20
1.592238
 30
0.0
 11
1.7555
 21
1.592238
 31
0.0
  0
LINE
  5
26E
  8
0
 10
0.9905
 20
1.592238
 30
0.0
 11
1.7555
 21
1.592238
 31
0.0
  0
LINE
  5
26F
  8
0
 10
1.7555
 20
1.592238
 30
0.0
 11
2.1475
 21
1.592238
 31
0.0
  0
LINE
  5
270
  8
0
 10
2.7905
 20
1.592238
 30
0.0
 11
3.5555
 21
1.592238
 31
0.0
  0
LINE
  5
271
  8
0
 10
3.5555
 20
1.592238
 30
0.0
 11
3.9475
 21
1.592238
 31
0.0
  0
LINE
  5
272
  8
0
 10
4.5905
 20
1.592238
 30
0.0
 11
4.9825
 21
1.592238
 31
0.0
  0
LINE
  5
273
  8
0
 10
4.9825
 20
1.592238
 30
0.0
 11
5.7475
 21
1.592238
 31
0.0
  0
LINE
  5
274
  8
0
 10
6.3905
 20
1.592238
 30
0.0
 11
6.7825
 21
1.592238
 31
0.0
  0
LINE
  5
275
  8
0
 10
6.7825
 20
1.592238
 30
0.0
 11
7.5475
 21
1.592238
 31
0.0
  0
LINE
  5
276
  8
0
 10
8.1905
 20
1.592238
 30
0.0
 11
8.9555
 21
1.592238
 31
0.0
  0
LINE
  5
277
  8
0
 10
8.9555
 20
1.592238
 30
0.0
 11
9.3475
 21
1.592238
 31
0.0
  0
LINE
  5
278
  8
0
 10
9.9905
 20
1.592238
 30
0.0
 11
10.3825
 21
1.592238
 31
0.0
  0
LINE
  5
279
  8
0
 10
10.3825
 20
1.592238
 30
0.0
 11
11.1475
 21
1.592238
 31
0.0
  0
LINE
  5
27A
  8
0
 10
11.7905
 20
1.592238
 30
0.0
 11
12.5555
 21
1.592238
 31
0.0
  0
LINE
  5
27B
  8
0
 10
12.5555
 20
1.592238
 30
0.0
 11
12.9475
 21
1.592238
 31
0.0
  0
LINE
  5
27C
  8
0
 10
13.5905
 20
1.592238
 30
0.0
 11
14.22545
 21
1.592238
 31
0.0
  0
LINE
  5
27D
  8
0
 10
0.9275
 20
2.092238
 30
0.0
 11
1.6925
 21
2.092238
 31
0.0
  0
LINE
  5
27E
  8
0
 10
0.9275
 20
2.092238
 30
0.0
 11
1.6925
 21
2.092238
 31
0.0
  0
LINE
  5
27F
  8
0
 10
1.6925
 20
2.092238
 30
0.0
 11
2.0845
 21
2.092238
 31
0.0
  0
LINE
  5
280
  8
0
 10
2.7275
 20
2.092238
 30
0.0
 11
3.4925
 21
2.092238
 31
0.0
  0
LINE
  5
281
  8
0
 10
3.4925
 20
2.092238
 30
0.0
 11
3.8845
 21
2.092238
 31
0.0
  0
LINE
  5
282
  8
0
 10
4.5275
 20
2.092238
 30
0.0
 11
5.2925
 21
2.092238
 31
0.0
  0
LINE
  5
283
  8
0
 10
5.2925
 20
2.092238
 30
0.0
 11
5.6845
 21
2.092238
 31
0.0
  0
LINE
  5
284
  8
0
 10
6.3275
 20
2.092238
 30
0.0
 11
6.7195
 21
2.092238
 31
0.0
  0
LINE
  5
285
  8
0
 10
6.7195
 20
2.092238
 30
0.0
 11
7.4845
 21
2.092238
 31
0.0
  0
LINE
  5
286
  8
0
 10
8.1275
 20
2.092238
 30
0.0
 11
8.8925
 21
2.092238
 31
0.0
  0
LINE
  5
287
  8
0
 10
8.8925
 20
2.092238
 30
0.0
 11
9.2845
 21
2.092238
 31
0.0
  0
LINE
  5
288
  8
0
 10
9.9275
 20
2.092238
 30
0.0
 11
10.6925
 21
2.092238
 31
0.0
  0
LINE
  5
289
  8
0
 10
10.6925
 20
2.092238
 30
0.0
 11
11.0845
 21
2.092238
 31
0.0
  0
LINE
  5
28A
  8
0
 10
11.7275
 20
2.092238
 30
0.0
 11
12.1195
 21
2.092238
 31
0.0
  0
LINE
  5
28B
  8
0
 10
12.1195
 20
2.092238
 30
0.0
 11
12.8845
 21
2.092238
 31
0.0
  0
LINE
  5
28C
  8
0
 10
13.5275
 20
2.092238
 30
0.0
 11
14.22722
 21
2.092238
 31
0.0
  0
LINE
  5
28D
  8
0
 10
0.9215
 20
2.592238
 30
0.0
 11
0.92199
 21
2.592238
 31
0.0
  0
LINE
  5
28E
  8
0
 10
0.9215
 20
2.592238
 30
0.0
 11
0.92199
 21
2.592238
 31
0.0
  0
LINE
  5
28F
  8
0
 10
0.92199
 20
2.592238
 30
0.0
 11
1.6875
 21
2.592238
 31
0.0
  0
LINE
  5
290
  8
0
 10
1.6875
 20
2.592238
 30
0.0
 11
2.0795
 21
2.592238
 31
0.0
  0
LINE
  5
291
  8
0
 10
2.7215
 20
2.592238
 30
0.0
 11
2.72199
 21
2.592238
 31
0.0
  0
LINE
  5
292
  8
0
 10
2.72199
 20
2.592238
 30
0.0
 11
3.4875
 21
2.592238
 31
0.0
  0
LINE
  5
293
  8
0
 10
3.4875
 20
2.592238
 30
0.0
 11
3.8795
 21
2.592238
 31
0.0
  0
LINE
  5
294
  8
0
 10
4.5215
 20
2.592238
 30
0.0
 11
4.52199
 21
2.592238
 31
0.0
  0
LINE
  5
295
  8
0
 10
4.52199
 20
2.592238
 30
0.0
 11
5.2875
 21
2.592238
 31
0.0
  0
LINE
  5
296
  8
0
 10
5.2875
 20
2.592238
 30
0.0
 11
5.6795
 21
2.592238
 31
0.0
  0
LINE
  5
297
  8
0
 10
6.3215
 20
2.592238
 30
0.0
 11
6.32199
 21
2.592238
 31
0.0
  0
LINE
  5
298
  8
0
 10
6.32199
 20
2.592238
 30
0.0
 11
7.0875
 21
2.592238
 31
0.0
  0
LINE
  5
299
  8
0
 10
7.0875
 20
2.592238
 30
0.0
 11
7.4795
 21
2.592238
 31
0.0
  0
LINE
  5
29A
  8
0
 10
8.1215
 20
2.592238
 30
0.0
 11
8.12199
 21
2.592238
 31
0.0
  0
LINE
  5
29B
  8
0
 10
8.12199
 20
2.592238
 30
0.0
 11
8.8875
 21
2.592238
 31
0.0
  0
LINE
  5
29C
  8
0
 10
8.8875
 20
2.592238
 30
0.0
 11
9.2795
 21
2.592238
 31
0.0
  0
LINE
  5
29D
  8
0
 10
9.9215
 20
2.592238
 30
0.0
 11
9.92199
 21
2.592238
 31
0.0
  0
LINE
  5
29E
  8
0
 10
9.92199
 20
2.592238
 30
0.0
 11
10.6875
 21
2.592238
 31
0.0
  0
LINE
  5
29F
  8
0
 10
10.6875
 20
2.592238
 30
0.0
 11
11.0795
 21
2.592238
 31
0.0
  0
LINE
  5
2A0
  8
0
 10
11.7215
 20
2.592238
 30
0.0
 11
11.72199
 21
2.592238
 31
0.0
  0
LINE
  5
2A1
  8
0
 10
11.72199
 20
2.592238
 30
0.0
 11
12.4875
 21
2.592238
 31
0.0
  0
LINE
  5
2A2
  8
0
 10
12.4875
 20
2.592238
 30
0.0
 11
12.8795
 21
2.592238
 31
0.0
  0
LINE
  5
2A3
  8
0
 10
13.5215
 20
2.592238
 30
0.0
 11
13.52199
 21
2.592238
 31
0.0
  0
LINE
  5
2A4
  8
0
 10
13.52199
 20
2.592238
 30
0.0
 11
14.23038
 21
2.592238
 31
0.0
  0
LINE
  5
2A5
  8
0
 10
0.9345
 20
3.092238
 30
0.0
 11
1.6995
 21
3.092238
 31
0.0
  0
LINE
  5
2A6
  8
0
 10
0.9345
 20
3.092238
 30
0.0
 11
1.6995
 21
3.092238
 31
0.0
  0
LINE
  5
2A7
  8
0
 10
1.6995
 20
3.092238
 30
0.0
 11
2.0915
 21
3.092238
 31
0.0
  0
LINE
  5
2A8
  8
0
 10
2.7345
 20
3.092238
 30
0.0
 11
3.4995
 21
3.092238
 31
0.0
  0
LINE
  5
2A9
  8
0
 10
3.4995
 20
3.092238
 30
0.0
 11
3.8915
 21
3.092238
 31
0.0
  0
LINE
  5
2AA
  8
0
 10
4.5345
 20
3.092238
 30
0.0
 11
4.9265
 21
3.092238
 31
0.0
  0
LINE
  5
2AB
  8
0
 10
4.9265
 20
3.092238
 30
0.0
 11
5.6915
 21
3.092238
 31
0.0
  0
LINE
  5
2AC
  8
0
 10
6.3345
 20
3.092238
 30
0.0
 11
6.7265
 21
3.092238
 31
0.0
  0
LINE
  5
2AD
  8
0
 10
6.7265
 20
3.092238
 30
0.0
 11
7.4915
 21
3.092238
 31
0.0
  0
LINE
  5
2AE
  8
0
 10
8.1345
 20
3.092238
 30
0.0
 11
8.5265
 21
3.092238
 31
0.0
  0
LINE
  5
2AF
  8
0
 10
8.5265
 20
3.092238
 30
0.0
 11
9.2915
 21
3.092238
 31
0.0
  0
LINE
  5
2B0
  8
0
 10
9.9345
 20
3.092238
 30
0.0
 11
10.6995
 21
3.092238
 31
0.0
  0
LINE
  5
2B1
  8
0
 10
10.6995
 20
3.092238
 30
0.0
 11
11.0915
 21
3.092238
 31
0.0
  0
LINE
  5
2B2
  8
0
 10
11.7345
 20
3.092238
 30
0.0
 11
12.4995
 21
3.092238
 31
0.0
  0
LINE
  5
2B3
  8
0
 10
12.4995
 20
3.092238
 30
0.0
 11
12.8915
 21
3.092238
 31
0.0
  0
LINE
  5
2B4
  8
0
 10
13.5345
 20
3.092238
 30
0.0
 11
14.22759
 21
3.092238
 31
0.0
  0
LINE
  5
2B5
  8
0
 10
0.9475
 20
3.592238
 30
0.0
 11
1.3395
 21
3.592238
 31
0.0
  0
LINE
  5
2B6
  8
0
 10
0.9475
 20
3.592238
 30
0.0
 11
1.3395
 21
3.592238
 31
0.0
  0
LINE
  5
2B7
  8
0
 10
1.3395
 20
3.592238
 30
0.0
 11
2.1045
 21
3.592238
 31
0.0
  0
LINE
  5
2B8
  8
0
 10
2.7475
 20
3.592238
 30
0.0
 11
3.1395
 21
3.592238
 31
0.0
  0
LINE
  5
2B9
  8
0
 10
3.1395
 20
3.592238
 30
0.0
 11
3.9045
 21
3.592238
 31
0.0
  0
LINE
  5
2BA
  8
0
 10
4.5475
 20
3.592238
 30
0.0
 11
4.9395
 21
3.592238
 31
0.0
  0
LINE
  5
2BB
  8
0
 10
4.9395
 20
3.592238
 30
0.0
 11
5.7045
 21
3.592238
 31
0.0
  0
LINE
  5
2BC
  8
0
 10
6.3475
 20
3.592238
 30
0.0
 11
6.7395
 21
3.592238
 31
0.0
  0
LINE
  5
2BD
  8
0
 10
6.7395
 20
3.592238
 30
0.0
 11
7.5045
 21
3.592238
 31
0.0
  0
LINE
  5
2BE
  8
0
 10
8.1475
 20
3.592238
 30
0.0
 11
8.5395
 21
3.592238
 31
0.0
  0
LINE
  5
2BF
  8
0
 10
8.5395
 20
3.592238
 30
0.0
 11
9.3045
 21
3.592238
 31
0.0
  0
LINE
  5
2C0
  8
0
 10
9.9475
 20
3.592238
 30
0.0
 11
10.7125
 21
3.592238
 31
0.0
  0
LINE
  5
2C1
  8
0
 10
10.7125
 20
3.592238
 30
0.0
 11
11.1045
 21
3.592238
 31
0.0
  0
LINE
  5
2C2
  8
0
 10
11.7475
 20
3.592238
 30
0.0
 11
12.5125
 21
3.592238
 31
0.0
  0
LINE
  5
2C3
  8
0
 10
12.5125
 20
3.592238
 30
0.0
 11
12.9045
 21
3.592238
 31
0.0
  0
LINE
  5
2C4
  8
0
 10
13.5475
 20
3.592238
 30
0.0
 11
14.22478
 21
3.592238
 31
0.0
  0
LINE
  5
2C5
  8
0
 10
0.9595
 20
4.092238
 30
0.0
 11
1.3515
 21
4.092238
 31
0.0
  0
LINE
  5
2C6
  8
0
 10
0.9595
 20
4.092238
 30
0.0
 11
1.3515
 21
4.092238
 31
0.0
  0
LINE
  5
2C7
  8
0
 10
1.3515
 20
4.092238
 30
0.0
 11
2.1165
 21
4.092238
 31
0.0
  0
LINE
  5
2C8
  8
0
 10
2.7595
 20
4.092238
 30
0.0
 11
3.5245
 21
4.092238
 31
0.0
  0
LINE
  5
2C9
  8
0
 10
3.5245
 20
4.092238
 30
0.0
 11
3.9165
 21
4.092238
 31
0.0
  0
LINE
  5
2CA
  8
0
 10
4.5595
 20
4.092238
 30
0.0
 11
5.3245
 21
4.092238
 31
0.0
  0
LINE
  5
2CB
  8
0
 10
5.3245
 20
4.092238
 30
0.0
 11
5.7165
 21
4.092238
 31
0.0
  0
LINE
  5
2CC
  8
0
 10
6.3595
 20
4.092238
 30
0.0
 11
7.1245
 21
4.092238
 31
0.0
  0
LINE
  5
2CD
  8
0
 10
7.1245
 20
4.092238
 30
0.0
 11
7.5165
 21
4.092238
 31
0.0
  0
LINE
  5
2CE
  8
0
 10
8.1595
 20
4.092238
 30
0.0
 11
8.9245
 21
4.092238
 31
0.0
  0
LINE
  5
2CF
  8
0
 10
8.9245
 20
4.092238
 30
0.0
 11
9.3165
 21
4.092238
 31
0.0
  0
LINE
  5
2D0
  8
0
 10
9.9595
 20
4.092238
 30
0.0
 11
10.7245
 21
4.092238
 31
0.0
  0
LINE
  5
2D1
  8
0
 10
10.7245
 20
4.092238
 30
0.0
 11
11.1165
 21
4.092238
 31
0.0
  0
LINE
  5
2D2
  8
0
 10
11.7595
 20
4.092238
 30
0.0
 11
12.1515
 21
4.092238
 31
0.0
  0
LINE
  5
2D3
  8
0
 10
12.1515
 20
4.092238
 30
0.0
 11
12.9165
 21
4.092238
 31
0.0
  0
LINE
  5
2D4
  8
0
 10
13.5595
 20
4.092238
 30
0.0
 11
14.22199
 21
4.092238
 31
0.0
  0
LINE
  5
2D5
  8
0
 10
0.9725
 20
4.592238
 30
0.0
 11
1.3645
 21
4.592238
 31
0.0
  0
LINE
  5
2D6
  8
0
 10
0.9725
 20
4.592238
 30
0.0
 11
1.3645
 21
4.592238
 31
0.0
  0
LINE
  5
2D7
  8
0
 10
1.3645
 20
4.592238
 30
0.0
 11
2.1295
 21
4.592238
 31
0.0
  0
LINE
  5
2D8
  8
0
 10
2.7725
 20
4.592238
 30
0.0
 11
3.5375
 21
4.592238
 31
0.0
  0
LINE
  5
2D9
  8
0
 10
3.5375
 20
4.592238
 30
0.0
 11
3.9295
 21
4.592238
 31
0.0
  0
LINE
  5
2DA
  8
0
 10
4.5725
 20
4.592238
 30
0.0
 11
5.3375
 21
4.592238
 31
0.0
  0
LINE
  5
2DB
  8
0
 10
5.3375
 20
4.592238
 30
0.0
 11
5.7295
 21
4.592238
 31
0.0
  0
LINE
  5
2DC
  8
0
 10
6.3725
 20
4.592238
 30
0.0
 11
6.7645
 21
4.592238
 31
0.0
  0
LINE
  5
2DD
  8
0
 10
6.7645
 20
4.592238
 30
0.0
 11
7.5295
 21
4.592238
 31
0.0
  0
LINE
  5
2DE
  8
0
 10
8.1725
 20
4.592238
 30
0.0
 11
8.9375
 21
4.592238
 31
0.0
  0
LINE
  5
2DF
  8
0
 10
8.9375
 20
4.592238
 30
0.0
 11
9.3295
 21
4.592238
 31
0.0
  0
LINE
  5
2E0
  8
0
 10
9.9725
 20
4.592238
 30
0.0
 11
10.7375
 21
4.592238
 31
0.0
  0
LINE
  5
2E1
  8
0
 10
10.7375
 20
4.592238
 30
0.0
 11
11.1295
 21
4.592238
 31
0.0
  0
LINE
  5
2E2
  8
0
 10
11.7725
 20
4.592238
 30
0.0
 11
12.1645
 21
4.592238
 31
0.0
  0
LINE
  5
2E3
  8
0
 10
12.1645
 20
4.592238
 30
0.0
 11
12.9295
 21
4.592238
 31
0.0
  0
LINE
  5
2E4
  8
0
 10
13.5725
 20
4.592238
 30
0.0
 11
14.21918
 21
4.592238
 31
0.0
  0
LINE
  5
2E5
  8
0
 10
0.9845
 20
5.092238
 30
0.0
 11
1.37699
 21
5.092238
 31
0.0
  0
LINE
  5
2E6
  8
0
 10
0.9845
 20
5.092238
 30
0.0
 11
1.37699
 21
5.092238
 31
0.0
  0
LINE
  5
2E7
  8
0
 10
1.37699
 20
5.092238
 30
0.0
 11
2.1425
 21
5.092238
 31
0.0
  0
LINE
  5
2E8
  8
0
 10
2.7845
 20
5.092238
 30
0.0
 11
3.55001
 21
5.092238
 31
0.0
  0
LINE
  5
2E9
  8
0
 10
3.55001
 20
5.092238
 30
0.0
 11
3.9425
 21
5.092238
 31
0.0
  0
LINE
  5
2EA
  8
0
 10
4.5845
 20
5.092238
 30
0.0
 11
5.35001
 21
5.092238
 31
0.0
  0
LINE
  5
2EB
  8
0
 10
5.35001
 20
5.092238
 30
0.0
 11
5.7425
 21
5.092238
 31
0.0
  0
LINE
  5
2EC
  8
0
 10
6.3845
 20
5.092238
 30
0.0
 11
6.77699
 21
5.092238
 31
0.0
  0
LINE
  5
2ED
  8
0
 10
6.77699
 20
5.092238
 30
0.0
 11
7.5425
 21
5.092238
 31
0.0
  0
LINE
  5
2EE
  8
0
 10
8.1845
 20
5.092238
 30
0.0
 11
8.95001
 21
5.092238
 31
0.0
  0
LINE
  5
2EF
  8
0
 10
8.95001
 20
5.092238
 30
0.0
 11
9.3425
 21
5.092238
 31
0.0
  0
LINE
  5
2F0
  8
0
 10
9.9845
 20
5.092238
 30
0.0
 11
10.75001
 21
5.092238
 31
0.0
  0
LINE
  5
2F1
  8
0
 10
10.75001
 20
5.092238
 30
0.0
 11
11.1425
 21
5.092238
 31
0.0
  0
LINE
  5
2F2
  8
0
 10
11.7845
 20
5.092238
 30
0.0
 11
12.55001
 21
5.092238
 31
0.0
  0
LINE
  5
2F3
  8
0
 10
12.55001
 20
5.092238
 30
0.0
 11
12.9425
 21
5.092238
 31
0.0
  0
LINE
  5
2F4
  8
0
 10
13.5845
 20
5.092238
 30
0.0
 11
13.58499
 21
5.092238
 31
0.0
  0
LINE
  5
2F5
  8
0
 10
13.58499
 20
5.092238
 30
0.0
 11
14.21637
 21
5.092238
 31
0.0
  0
LINE
  5
2F6
  8
0
 10
0.9975
 20
5.592238
 30
0.0
 11
1.3895
 21
5.592238
 31
0.0
  0
LINE
  5
2F7
  8
0
 10
0.9975
 20
5.592238
 30
0.0
 11
1.3895
 21
5.592238
 31
0.0
  0
LINE
  5
2F8
  8
0
 10
1.3895
 20
5.592238
 30
0.0
 11
2.1545
 21
5.592238
 31
0.0
  0
LINE
  5
2F9
  8
0
 10
2.7975
 20
5.592238
 30
0.0
 11
3.5625
 21
5.592238
 31
0.0
  0
LINE
  5
2FA
  8
0
 10
3.5625
 20
5.592238
 30
0.0
 11
3.9545
 21
5.592238
 31
0.0
  0
LINE
  5
2FB
  8
0
 10
4.5975
 20
5.592238
 30
0.0
 11
5.3625
 21
5.592238
 31
0.0
  0
LINE
  5
2FC
  8
0
 10
5.3625
 20
5.592238
 30
0.0
 11
5.7545
 21
5.592238
 31
0.0
  0
LINE
  5
2FD
  8
0
 10
6.3975
 20
5.592238
 30
0.0
 11
7.1625
 21
5.592238
 31
0.0
  0
LINE
  5
2FE
  8
0
 10
7.1625
 20
5.592238
 30
0.0
 11
7.5545
 21
5.592238
 31
0.0
  0
LINE
  5
2FF
  8
0
 10
8.1975
 20
5.592238
 30
0.0
 11
8.9625
 21
5.592238
 31
0.0
  0
LINE
  5
300
  8
0
 10
8.9625
 20
5.592238
 30
0.0
 11
9.3545
 21
5.592238
 31
0.0
  0
LINE
  5
301
  8
0
 10
9.9975
 20
5.592238
 30
0.0
 11
10.7625
 21
5.592238
 31
0.0
  0
LINE
  5
302
  8
0
 10
10.7625
 20
5.592238
 30
0.0
 11
11.1545
 21
5.592238
 31
0.0
  0
LINE
  5
303
  8
0
 10
11.7975
 20
5.592238
 30
0.0
 11
12.5625
 21
5.592238
 31
0.0
  0
LINE
  5
304
  8
0
 10
12.5625
 20
5.592238
 30
0.0
 11
12.9545
 21
5.592238
 31
0.0
  0
LINE
  5
305
  8
0
 10
13.5975
 20
5.592238
 30
0.0
 11
14.21358
 21
5.592238
 31
0.0
  0
LINE
  5
306
  8
0
 10
1.0105
 20
6.092238
 30
0.0
 11
1.7755
 21
6.092238
 31
0.0
  0
LINE
  5
307
  8
0
 10
1.0105
 20
6.092238
 30
0.0
 11
1.7755
 21
6.092238
 31
0.0
  0
LINE
  5
308
  8
0
 10
1.7755
 20
6.092238
 30
0.0
 11
2.1675
 21
6.092238
 31
0.0
  0
LINE
  5
309
  8
0
 10
2.8105
 20
6.092238
 30
0.0
 11
3.2025
 21
6.092238
 31
0.0
  0
LINE
  5
30A
  8
0
 10
3.2025
 20
6.092238
 30
0.0
 11
3.9675
 21
6.092238
 31
0.0
  0
LINE
  5
30B
  8
0
 10
4.6105
 20
6.092238
 30
0.0
 11
5.3755
 21
6.092238
 31
0.0
  0
LINE
  5
30C
  8
0
 10
5.3755
 20
6.092238
 30
0.0
 11
5.7675
 21
6.092238
 31
0.0
  0
LINE
  5
30D
  8
0
 10
6.4105
 20
6.092238
 30
0.0
 11
7.1755
 21
6.092238
 31
0.0
  0
LINE
  5
30E
  8
0
 10
7.1755
 20
6.092238
 30
0.0
 11
7.5675
 21
6.092238
 31
0.0
  0
LINE
  5
30F
  8
0
 10
8.2105
 20
6.092238
 30
0.0
 11
8.9755
 21
6.092238
 31
0.0
  0
LINE
  5
310
  8
0
 10
8.9755
 20
6.092238
 30
0.0
 11
9.3675
 21
6.092238
 31
0.0
  0
LINE
  5
311
  8
0
 10
10.0105
 20
6.092238
 30
0.0
 11
10.7755
 21
6.092238
 31
0.0
  0
LINE
  5
312
  8
0
 10
10.7755
 20
6.092238
 30
0.0
 11
11.1675
 21
6.092238
 31
0.0
  0
LINE
  5
313
  8
0
 10
11.8105
 20
6.092238
 30
0.0
 11
12.2025
 21
6.092238
 31
0.0
  0
LINE
  5
314
  8
0
 10
12.2025
 20
6.092238
 30
0.0
 11
12.9675
 21
6.092238
 31
0.0
  0
LINE
  5
315
  8
0
 10
13.6105
 20
6.092238
 30
0.0
 11
14.21587
 21
6.092238
 31
0.0
  0
LINE
  5
316
  8
0
 10
1.0225
 20
6.592238
 30
0.0
 11
1.7875
 21
6.592238
 31
0.0
  0
LINE
  5
317
  8
0
 10
1.0225
 20
6.592238
 30
0.0
 11
1.7875
 21
6.592238
 31
0.0
  0
LINE
  5
318
  8
0
 10
1.7875
 20
6.592238
 30
0.0
 11
2.1795
 21
6.592238
 31
0.0
  0
LINE
  5
319
  8
0
 10
2.8225
 20
6.592238
 30
0.0
 11
3.5875
 21
6.592238
 31
0.0
  0
LINE
  5
31A
  8
0
 10
3.5875
 20
6.592238
 30
0.0
 11
3.9795
 21
6.592238
 31
0.0
  0
LINE
  5
31B
  8
0
 10
4.6225
 20
6.592238
 30
0.0
 11
5.0145
 21
6.592238
 31
0.0
  0
LINE
  5
31C
  8
0
 10
5.0145
 20
6.592238
 30
0.0
 11
5.7795
 21
6.592238
 31
0.0
  0
LINE
  5
31D
  8
0
 10
6.4225
 20
6.592238
 30
0.0
 11
6.8145
 21
6.592238
 31
0.0
  0
LINE
  5
31E
  8
0
 10
6.8145
 20
6.592238
 30
0.0
 11
7.5795
 21
6.592238
 31
0.0
  0
LINE
  5
31F
  8
0
 10
8.2225
 20
6.592238
 30
0.0
 11
8.9875
 21
6.592238
 31
0.0
  0
LINE
  5
320
  8
0
 10
8.9875
 20
6.592238
 30
0.0
 11
9.3795
 21
6.592238
 31
0.0
  0
LINE
  5
321
  8
0
 10
10.0225
 20
6.592238
 30
0.0
 11
10.4145
 21
6.592238
 31
0.0
  0
LINE
  5
322
  8
0
 10
10.4145
 20
6.592238
 30
0.0
 11
11.1795
 21
6.592238
 31
0.0
  0
LINE
  5
323
  8
0
 10
11.8225
 20
6.592238
 30
0.0
 11
12.5875
 21
6.592238
 31
0.0
  0
LINE
  5
324
  8
0
 10
12.5875
 20
6.592238
 30
0.0
 11
12.9795
 21
6.592238
 31
0.0
  0
LINE
  5
325
  8
0
 10
13.6225
 20
6.592238
 30
0.0
 11
14.22175
 21
6.592238
 31
0.0
  0
LINE
  5
326
  8
0
 10
1.0355
 20
7.092238
 30
0.0
 11
1.8005
 21
7.092238
 31
0.0
  0
LINE
  5
327
  8
0
 10
1.0355
 20
7.092238
 30
0.0
 11
1.8005
 21
7.092238
 31
0.0
  0
LINE
  5
328
  8
0
 10
1.8005
 20
7.092238
 30
0.0
 11
2.1925
 21
7.092238
 31
0.0
  0
LINE
  5
329
  8
0
 10
2.8355
 20
7.092238
 30
0.0
 11
3.6005
 21
7.092238
 31
0.0
  0
LINE
  5
32A
  8
0
 10
3.6005
 20
7.092238
 30
0.0
 11
3.9925
 21
7.092238
 31
0.0
  0
LINE
  5
32B
  8
0
 10
4.6355
 20
7.092238
 30
0.0
 11
5.0275
 21
7.092238
 31
0.0
  0
LINE
  5
32C
  8
0
 10
5.0275
 20
7.092238
 30
0.0
 11
5.7925
 21
7.092238
 31
0.0
  0
LINE
  5
32D
  8
0
 10
6.4355
 20
7.092238
 30
0.0
 11
6.8275
 21
7.092238
 31
0.0
  0
LINE
  5
32E
  8
0
 10
6.8275
 20
7.092238
 30
0.0
 11
7.5925
 21
7.092238
 31
0.0
  0
LINE
  5
32F
  8
0
 10
8.2355
 20
7.092238
 30
0.0
 11
9.0005
 21
7.092238
 31
0.0
  0
LINE
  5
330
  8
0
 10
9.0005
 20
7.092238
 30
0.0
 11
9.3925
 21
7.092238
 31
0.0
  0
LINE
  5
331
  8
0
 10
10.0355
 20
7.092238
 30
0.0
 11
10.4275
 21
7.092238
 31
0.0
  0
LINE
  5
332
  8
0
 10
10.4275
 20
7.092238
 30
0.0
 11
11.1925
 21
7.092238
 31
0.0
  0
LINE
  5
333
  8
0
 10
11.8355
 20
7.092238
 30
0.0
 11
12.6005
 21
7.092238
 31
0.0
  0
LINE
  5
334
  8
0
 10
12.6005
 20
7.092238
 30
0.0
 11
12.9925
 21
7.092238
 31
0.0
  0
LINE
  5
335
  8
0
 10
13.6355
 20
7.092238
 30
0.0
 11
14.22812
 21
7.092238
 31
0.0
  0
LINE
  5
336
  8
0
 10
1.0475
 20
7.592238
 30
0.0
 11
1.04799
 21
7.592238
 31
0.0
  0
LINE
  5
337
  8
0
 10
1.0475
 20
7.592238
 30
0.0
 11
1.04799
 21
7.592238
 31
0.0
  0
LINE
  5
338
  8
0
 10
1.04799
 20
7.592238
 30
0.0
 11
1.8135
 21
7.592238
 31
0.0
  0
LINE
  5
339
  8
0
 10
1.8135
 20
7.592238
 30
0.0
 11
2.2055
 21
7.592238
 31
0.0
  0
LINE
  5
33A
  8
0
 10
2.8475
 20
7.592238
 30
0.0
 11
2.84799
 21
7.592238
 31
0.0
  0
LINE
  5
33B
  8
0
 10
2.84799
 20
7.592238
 30
0.0
 11
3.6135
 21
7.592238
 31
0.0
  0
LINE
  5
33C
  8
0
 10
3.6135
 20
7.592238
 30
0.0
 11
4.0055
 21
7.592238
 31
0.0
  0
LINE
  5
33D
  8
0
 10
4.6475
 20
7.592238
 30
0.0
 11
4.64799
 21
7.592238
 31
0.0
  0
LINE
  5
33E
  8
0
 10
4.64799
 20
7.592238
 30
0.0
 11
5.4135
 21
7.592238
 31
0.0
  0
LINE
  5
33F
  8
0
 10
5.4135
 20
7.592238
 30
0.0
 11
5.8055
 21
7.592238
 31
0.0
  0
LINE
  5
340
  8
0
 10
6.4475
 20
7.592238
 30
0.0
 11
6.44799
 21
7.592238
 31
0.0
  0
LINE
  5
341
  8
0
 10
6.44799
 20
7.592238
 30
0.0
 11
7.2135
 21
7.592238
 31
0.0
  0
LINE
  5
342
  8
0
 10
7.2135
 20
7.592238
 30
0.0
 11
7.6055
 21
7.592238
 31
0.0
  0
LINE
  5
343
  8
0
 10
8.2475
 20
7.592238
 30
0.0
 11
8.24799
 21
7.592238
 31
0.0
  0
LINE
  5
344
  8
0
 10
8.24799
 20
7.592238
 30
0.0
 11
9.0135
 21
7.592238
 31
0.0
  0
LINE
  5
345
  8
0
 10
9.0135
 20
7.592238
 30
0.0
 11
9.4055
 21
7.592238
 31
0.0
  0
LINE
  5
346
  8
0
 10
10.0475
 20
7.592238
 30
0.0
 11
10.04799
 21
7.592238
 31
0.0
  0
LINE
  5
347
  8
0
 10
10.04799
 20
7.592238
 30
0.0
 11
10.8135
 21
7.592238
 31
0.0
  0
LINE
  5
348
  8
0
 10
10.8135
 20
7.592238
 30
0.0
 11
11.2055
 21
7.592238
 31
0.0
  0
LINE
  5
349
  8
0
 10
11.8475
 20
7.592238
 30
0.0
 11
11.84799
 21
7.592238
 31
0.0
  0
LINE
  5
34A
  8
0
 10
11.84799
 20
7.592238
 30
0.0
 11
12.6135
 21
7.592238
 31
0.0
  0
LINE
  5
34B
  8
0
 10
12.6135
 20
7.592238
 30
0.0
 11
13.0055
 21
7.592238
 31
0.0
  0
LINE
  5
34C
  8
0
 10
13.6475
 20
7.592238
 30
0.0
 11
13.64799
 21
7.592238
 31
0.0
  0
LINE
  5
34D
  8
0
 10
13.64799
 20
7.592238
 30
0.0
 11
14.23449
 21
7.592238
 31
0.0
  0
LINE
  5
34E
  8
0
 10
1.0465
 20
8.092238
 30
0.0
 11
1.81201
 21
8.092238
 31
0.0
  0
LINE
  5
34F
  8
0
 10
1.0465
 20
8.092238
 30
0.0
 11
1.81201
 21
8.092238
 31
0.0
  0
LINE
  5
350
  8
0
 10
1.81201
 20
8.092238
 30
0.0
 11
2.2045
 21
8.092238
 31
0.0
  0
LINE
  5
351
  8
0
 10
2.8465
 20
8.092238
 30
0.0
 11
3.23899
 21
8.092238
 31
0.0
  0
LINE
  5
352
  8
0
 10
3.23899
 20
8.092238
 30
0.0
 11
4.0045
 21
8.092238
 31
0.0
  0
LINE
  5
353
  8
0
 10
4.6465
 20
8.092238
 30
0.0
 11
5.41201
 21
8.092238
 31
0.0
  0
LINE
  5
354
  8
0
 10
5.41201
 20
8.092238
 30
0.0
 11
5.8045
 21
8.092238
 31
0.0
  0
LINE
  5
355
  8
0
 10
6.4465
 20
8.092238
 30
0.0
 11
7.21201
 21
8.092238
 31
0.0
  0
LINE
  5
356
  8
0
 10
7.21201
 20
8.092238
 30
0.0
 11
7.6045
 21
8.092238
 31
0.0
  0
LINE
  5
357
  8
0
 10
8.2465
 20
8.092238
 30
0.0
 11
9.01201
 21
8.092238
 31
0.0
  0
LINE
  5
358
  8
0
 10
9.01201
 20
8.092238
 30
0.0
 11
9.4045
 21
8.092238
 31
0.0
  0
LINE
  5
359
  8
0
 10
10.0465
 20
8.092238
 30
0.0
 11
10.81201
 21
8.092238
 31
0.0
  0
LINE
  5
35A
  8
0
 10
10.81201
 20
8.092238
 30
0.0
 11
11.2045
 21
8.092238
 31
0.0
  0
LINE
  5
35B
  8
0
 10
11.8465
 20
8.092238
 30
0.0
 11
12.61201
 21
8.092238
 31
0.0
  0
LINE
  5
35C
  8
0
 10
12.61201
 20
8.092238
 30
0.0
 11
13.0045
 21
8.092238
 31
0.0
  0
LINE
  5
35D
  8
0
 10
13.6465
 20
8.092238
 30
0.0
 11
13.64699
 21
8.092238
 31
0.0
  0
LINE
  5
35E
  8
0
 10
13.64699
 20
8.092238
 30
0.0
 11
14.234
 21
8.092238
 31
0.0
  0
LINE
  5
35F
  8
0
 10
1.0315
 20
8.592238
 30
0.0
 11
1.7965
 21
8.592238
 31
0.0
  0
LINE
  5
360
  8
0
 10
1.0315
 20
8.592238
 30
0.0
 11
1.7965
 21
8.592238
 31
0.0
  0
LINE
  5
361
  8
0
 10
1.7965
 20
8.592238
 30
0.0
 11
2.1885
 21
8.592238
 31
0.0
  0
LINE
  5
362
  8
0
 10
2.8315
 20
8.592238
 30
0.0
 11
3.5965
 21
8.592238
 31
0.0
  0
LINE
  5
363
  8
0
 10
3.5965
 20
8.592238
 30
0.0
 11
3.9885
 21
8.592238
 31
0.0
  0
LINE
  5
364
  8
0
 10
4.6315
 20
8.592238
 30
0.0
 11
5.3965
 21
8.592238
 31
0.0
  0
LINE
  5
365
  8
0
 10
5.3965
 20
8.592238
 30
0.0
 11
5.7885
 21
8.592238
 31
0.0
  0
LINE
  5
366
  8
0
 10
6.4315
 20
8.592238
 30
0.0
 11
7.1965
 21
8.592238
 31
0.0
  0
LINE
  5
367
  8
0
 10
7.1965
 20
8.592238
 30
0.0
 11
7.5885
 21
8.592238
 31
0.0
  0
LINE
  5
368
  8
0
 10
8.2315
 20
8.592238
 30
0.0
 11
8.9965
 21
8.592238
 31
0.0
  0
LINE
  5
369
  8
0
 10
8.9965
 20
8.592238
 30
0.0
 11
9.3885
 21
8.592238
 31
0.0
  0
LINE
  5
36A
  8
0
 10
10.0315
 20
8.592238
 30
0.0
 11
10.7965
 21
8.592238
 31
0.0
  0
LINE
  5
36B
  8
0
 10
10.7965
 20
8.592238
 30
0.0
 11
11.1885
 21
8.592238
 31
0.0
  0
LINE
  5
36C
  8
0
 10
11.8315
 20
8.592238
 30
0.0
 11
12.5965
 21
8.592238
 31
0.0
  0
LINE
  5
36D
  8
0
 10
12.5965
 20
8.592238
 30
0.0
 11
12.9885
 21
8.592238
 31
0.0
  0
LINE
  5
36E
  8
0
 10
13.6315
 20
8.592238
 30
0.0
 11
14.22616
 21
8.592238
 31
0.0
  0
LINE
  5
36F
  8
0
 10
1.0165
 20
9.092238
 30
0.0
 11
1.7815
 21
9.092238
 31
0.0
  0
LINE
  5
370
  8
0
 10
1.0165
 20
9.092238
 30
0.0
 11
1.7815
 21
9.092238
 31
0.0
  0
LINE
  5
371
  8
0
 10
1.7815
 20
9.092238
 30
0.0
 11
2.1735
 21
9.092238
 31
0.0
  0
LINE
  5
372
  8
0
 10
2.8165
 20
9.092238
 30
0.0
 11
3.2085
 21
9.092238
 31
0.0
  0
LINE
  5
373
  8
0
 10
3.2085
 20
9.092238
 30
0.0
 11
3.9735
 21
9.092238
 31
0.0
  0
LINE
  5
374
  8
0
 10
4.6165
 20
9.092238
 30
0.0
 11
5.0085
 21
9.092238
 31
0.0
  0
LINE
  5
375
  8
0
 10
5.0085
 20
9.092238
 30
0.0
 11
5.7735
 21
9.092238
 31
0.0
  0
LINE
  5
376
  8
0
 10
6.4165
 20
9.092238
 30
0.0
 11
6.8085
 21
9.092238
 31
0.0
  0
LINE
  5
377
  8
0
 10
6.8085
 20
9.092238
 30
0.0
 11
7.5735
 21
9.092238
 31
0.0
  0
LINE
  5
378
  8
0
 10
8.2165
 20
9.092238
 30
0.0
 11
8.9815
 21
9.092238
 31
0.0
  0
LINE
  5
379
  8
0
 10
8.9815
 20
9.092238
 30
0.0
 11
9.3735
 21
9.092238
 31
0.0
  0
LINE
  5
37A
  8
0
 10
10.0165
 20
9.092238
 30
0.0
 11
10.7815
 21
9.092238
 31
0.0
  0
LINE
  5
37B
  8
0
 10
10.7815
 20
9.092238
 30
0.0
 11
11.1735
 21
9.092238
 31
0.0
  0
LINE
  5
37C
  8
0
 10
11.8165
 20
9.092238
 30
0.0
 11
12.5815
 21
9.092238
 31
0.0
  0
LINE
  5
37D
  8
0
 10
12.5815
 20
9.092238
 30
0.0
 11
12.9735
 21
9.092238
 31
0.0
  0
LINE
  5
37E
  8
0
 10
13.6165
 20
9.092238
 30
0.0
 11
14.21881
 21
9.092238
 31
0.0
  0
LINE
  5
37F
  8
0
 10
1.0005
 20
9.592238
 30
0.0
 11
1.39299
 21
9.592238
 31
0.0
  0
LINE
  5
380
  8
0
 10
1.0005
 20
9.592238
 30
0.0
 11
1.39299
 21
9.592238
 31
0.0
  0
LINE
  5
381
  8
0
 10
1.39299
 20
9.592238
 30
0.0
 11
2.1585
 21
9.592238
 31
0.0
  0
LINE
  5
382
  8
0
 10
2.8005
 20
9.592238
 30
0.0
 11
3.56601
 21
9.592238
 31
0.0
  0
LINE
  5
383
  8
0
 10
3.56601
 20
9.592238
 30
0.0
 11
3.9585
 21
9.592238
 31
0.0
  0
LINE
  5
384
  8
0
 10
4.6005
 20
9.592238
 30
0.0
 11
5.36601
 21
9.592238
 31
0.0
  0
LINE
  5
385
  8
0
 10
5.36601
 20
9.592238
 30
0.0
 11
5.7585
 21
9.592238
 31
0.0
  0
LINE
  5
386
  8
0
 10
6.4005
 20
9.592238
 30
0.0
 11
6.79299
 21
9.592238
 31
0.0
  0
LINE
  5
387
  8
0
 10
6.79299
 20
9.592238
 30
0.0
 11
7.5585
 21
9.592238
 31
0.0
  0
LINE
  5
388
  8
0
 10
8.2005
 20
9.592238
 30
0.0
 11
8.96601
 21
9.592238
 31
0.0
  0
LINE
  5
389
  8
0
 10
8.96601
 20
9.592238
 30
0.0
 11
9.3585
 21
9.592238
 31
0.0
  0
LINE
  5
38A
  8
0
 10
10.0005
 20
9.592238
 30
0.0
 11
10.76601
 21
9.592238
 31
0.0
  0
LINE
  5
38B
  8
0
 10
10.76601
 20
9.592238
 30
0.0
 11
11.1585
 21
9.592238
 31
0.0
  0
LINE
  5
38C
  8
0
 10
11.8005
 20
9.592238
 30
0.0
 11
12.56601
 21
9.592238
 31
0.0
  0
LINE
  5
38D
  8
0
 10
12.56601
 20
9.592238
 30
0.0
 11
12.9585
 21
9.592238
 31
0.0
  0
LINE
  5
38E
  8
0
 10
13.6005
 20
9.592238
 30
0.0
 11
13.60099
 21
9.592238
 31
0.0
  0
LINE
  5
38F
  8
0
 10
13.60099
 20
9.592238
 30
0.0
 11
14.21146
 21
9.592238
 31
0.0
  0
LINE
  5
390
  8
0
 10
0.9855
 20
10.092238
 30
0.0
 11
1.3775
 21
10.092238
 31
0.0
  0
LINE
  5
391
  8
0
 10
0.9855
 20
10.092238
 30
0.0
 11
1.3775
 21
10.092238
 31
0.0
  0
LINE
  5
392
  8
0
 10
1.3775
 20
10.092238
 30
0.0
 11
2.1425
 21
10.092238
 31
0.0
  0
LINE
  5
393
  8
0
 10
2.7855
 20
10.092238
 30
0.0
 11
3.5505
 21
10.092238
 31
0.0
  0
LINE
  5
394
  8
0
 10
3.5505
 20
10.092238
 30
0.0
 11
3.9425
 21
10.092238
 31
0.0
  0
LINE
  5
395
  8
0
 10
4.5855
 20
10.092238
 30
0.0
 11
5.3505
 21
10.092238
 31
0.0
  0
LINE
  5
396
  8
0
 10
5.3505
 20
10.092238
 30
0.0
 11
5.7425
 21
10.092238
 31
0.0
  0
LINE
  5
397
  8
0
 10
6.3855
 20
10.092238
 30
0.0
 11
6.7775
 21
10.092238
 31
0.0
  0
LINE
  5
398
  8
0
 10
6.7775
 20
10.092238
 30
0.0
 11
7.5425
 21
10.092238
 31
0.0
  0
LINE
  5
399
  8
0
 10
8.1855
 20
10.092238
 30
0.0
 11
8.9505
 21
10.092238
 31
0.0
  0
LINE
  5
39A
  8
0
 10
8.9505
 20
10.092238
 30
0.0
 11
9.3425
 21
10.092238
 31
0.0
  0
LINE
  5
39B
  8
0
 10
9.9855
 20
10.092238
 30
0.0
 11
10.7505
 21
10.092238
 31
0.0
  0
LINE
  5
39C
  8
0
 10
10.7505
 20
10.092238
 30
0.0
 11
11.1425
 21
10.092238
 31
0.0
  0
LINE
  5
39D
  8
0
 10
11.7855
 20
10.092238
 30
0.0
 11
12.5505
 21
10.092238
 31
0.0
  0
LINE
  5
39E
  8
0
 10
12.5505
 20
10.092238
 30
0.0
 11
12.9425
 21
10.092238
 31
0.0
  0
LINE
  5
39F
  8
0
 10
13.5855
 20
10.092238
 30
0.0
 11
14.20362
 21
10.092238
 31
0.0
  0
LINE
  5
3A0
  8
0
 10
0.9705
 20
10.592238
 30
0.0
 11
1.7355
 21
10.592238
 31
0.0
  0
LINE
  5
3A1
  8
0
 10
0.9705
 20
10.592238
 30
0.0
 11
1.7355
 21
10.592238
 31
0.0
  0
LINE
  5
3A2
  8
0
 10
1.7355
 20
10.592238
 30
0.0
 11
2.1275
 21
10.592238
 31
0.0
  0
LINE
  5
3A3
  8
0
 10
2.7705
 20
10.592238
 30
0.0
 11
3.1625
 21
10.592238
 31
0.0
  0
LINE
  5
3A4
  8
0
 10
3.1625
 20
10.592238
 30
0.0
 11
3.9275
 21
10.592238
 31
0.0
  0
LINE
  5
3A5
  8
0
 10
4.5705
 20
10.592238
 30
0.0
 11
5.3355
 21
10.592238
 31
0.0
  0
LINE
  5
3A6
  8
0
 10
5.3355
 20
10.592238
 30
0.0
 11
5.7275
 21
10.592238
 31
0.0
  0
LINE
  5
3A7
  8
0
 10
6.3705
 20
10.592238
 30
0.0
 11
7.1355
 21
10.592238
 31
0.0
  0
LINE
  5
3A8
  8
0
 10
7.1355
 20
10.592238
 30
0.0
 11
7.5275
 21
10.592238
 31
0.0
  0
LINE
  5
3A9
  8
0
 10
8.1705
 20
10.592238
 30
0.0
 11
8.9355
 21
10.592238
 31
0.0
  0
LINE
  5
3AA
  8
0
 10
8.9355
 20
10.592238
 30
0.0
 11
9.3275
 21
10.592238
 31
0.0
  0
LINE
  5
3AB
  8
0
 10
9.9705
 20
10.592238
 30
0.0
 11
10.7355
 21
10.592238
 31
0.0
  0
LINE
  5
3AC
  8
0
 10
10.7355
 20
10.592238
 30
0.0
 11
11.1275
 21
10.592238
 31
0.0
  0
LINE
  5
3AD
  8
0
 10
11.7705
 20
10.592238
 30
0.0
 11
12.5355
 21
10.592238
 31
0.0
  0
LINE
  5
3AE
  8
0
 10
12.5355
 20
10.592238
 30
0.0
 11
12.9275
 21
10.592238
 31
0.0
  0
LINE
  5
3AF
  8
0
 10
13.5705
 20
10.592238
 30
0.0
 11
14.19627
 21
10.592238
 31
0.0
  0
LINE
  5
3B0
  8
0
 10
0.9555
 20
11.092238
 30
0.0
 11
1.3475
 21
11.092238
 31
0.0
  0
LINE
  5
3B1
  8
0
 10
0.9555
 20
11.092238
 30
0.0
 11
1.3475
 21
11.092238
 31
0.0
  0
LINE
  5
3B2
  8
0
 10
1.3475
 20
11.092238
 30
0.0
 11
2.1125
 21
11.092238
 31
0.0
  0
LINE
  5
3B3
  8
0
 10
2.7555
 20
11.092238
 30
0.0
 11
3.1475
 21
11.092238
 31
0.0
  0
LINE
  5
3B4
  8
0
 10
3.1475
 20
11.092238
 30
0.0
 11
3.9125
 21
11.092238
 31
0.0
  0
LINE
  5
3B5
  8
0
 10
4.5555
 20
11.092238
 30
0.0
 11
4.9475
 21
11.092238
 31
0.0
  0
LINE
  5
3B6
  8
0
 10
4.9475
 20
11.092238
 30
0.0
 11
5.7125
 21
11.092238
 31
0.0
  0
LINE
  5
3B7
  8
0
 10
6.3555
 20
11.092238
 30
0.0
 11
6.7475
 21
11.092238
 31
0.0
  0
LINE
  5
3B8
  8
0
 10
6.7475
 20
11.092238
 30
0.0
 11
7.5125
 21
11.092238
 31
0.0
  0
LINE
  5
3B9
  8
0
 10
8.1555
 20
11.092238
 30
0.0
 11
8.9205
 21
11.092238
 31
0.0
  0
LINE
  5
3BA
  8
0
 10
8.9205
 20
11.092238
 30
0.0
 11
9.3125
 21
11.092238
 31
0.0
  0
LINE
  5
3BB
  8
0
 10
9.9555
 20
11.092238
 30
0.0
 11
10.7205
 21
11.092238
 31
0.0
  0
LINE
  5
3BC
  8
0
 10
10.7205
 20
11.092238
 30
0.0
 11
11.1125
 21
11.092238
 31
0.0
  0
LINE
  5
3BD
  8
0
 10
11.7555
 20
11.092238
 30
0.0
 11
12.5205
 21
11.092238
 31
0.0
  0
LINE
  5
3BE
  8
0
 10
12.5205
 20
11.092238
 30
0.0
 11
12.9125
 21
11.092238
 31
0.0
  0
LINE
  5
3BF
  8
0
 10
13.5555
 20
11.092238
 30
0.0
 11
14.18892
 21
11.092238
 31
0.0
  0
LINE
  5
3C0
  8
0
 10
0.9395
 20
11.592238
 30
0.0
 11
1.7045
 21
11.592238
 31
0.0
  0
LINE
  5
3C1
  8
0
 10
0.9395
 20
11.592238
 30
0.0
 11
1.7045
 21
11.592238
 31
0.0
  0
LINE
  5
3C2
  8
0
 10
1.7045
 20
11.592238
 30
0.0
 11
2.0965
 21
11.592238
 31
0.0
  0
LINE
  5
3C3
  8
0
 10
2.7395
 20
11.592238
 30
0.0
 11
3.1315
 21
11.592238
 31
0.0
  0
LINE
  5
3C4
  8
0
 10
3.1315
 20
11.592238
 30
0.0
 11
3.8965
 21
11.592238
 31
0.0
  0
LINE
  5
3C5
  8
0
 10
4.5395
 20
11.592238
 30
0.0
 11
4.9315
 21
11.592238
 31
0.0
  0
LINE
  5
3C6
  8
0
 10
4.9315
 20
11.592238
 30
0.0
 11
5.6965
 21
11.592238
 31
0.0
  0
LINE
  5
3C7
  8
0
 10
6.3395
 20
11.592238
 30
0.0
 11
6.7315
 21
11.592238
 31
0.0
  0
LINE
  5
3C8
  8
0
 10
6.7315
 20
11.592238
 30
0.0
 11
7.4965
 21
11.592238
 31
0.0
  0
LINE
  5
3C9
  8
0
 10
8.1395
 20
11.592238
 30
0.0
 11
8.9045
 21
11.592238
 31
0.0
  0
LINE
  5
3CA
  8
0
 10
8.9045
 20
11.592238
 30
0.0
 11
9.2965
 21
11.592238
 31
0.0
  0
LINE
  5
3CB
  8
0
 10
9.9395
 20
11.592238
 30
0.0
 11
10.7045
 21
11.592238
 31
0.0
  0
LINE
  5
3CC
  8
0
 10
10.7045
 20
11.592238
 30
0.0
 11
11.0965
 21
11.592238
 31
0.0
  0
LINE
  5
3CD
  8
0
 10
11.7395
 20
11.592238
 30
0.0
 11
12.5045
 21
11.592238
 31
0.0
  0
LINE
  5
3CE
  8
0
 10
12.5045
 20
11.592238
 30
0.0
 11
12.8965
 21
11.592238
 31
0.0
  0
LINE
  5
3CF
  8
0
 10
13.5395
 20
11.592238
 30
0.0
 11
14.18108
 21
11.592238
 31
0.0
  0
LINE
  5
3D0
  8
0
 10
0.9245
 20
12.092238
 30
0.0
 11
1.3165
 21
12.092238
 31
0.0
  0
LINE
  5
3D1
  8
0
 10
0.9245
 20
12.092238
 30
0.0
 11
1.3165
 21
12.092238
 31
0.0
  0
LINE
  5
3D2
  8
0
 10
1.3165
 20
12.092238
 30
0.0
 11
2.0815
 21
12.092238
 31
0.0
  0
LINE
  5
3D3
  8
0
 10
2.7245
 20
12.092238
 30
0.0
 11
3.4895
 21
12.092238
 31
0.0
  0
LINE
  5
3D4
  8
0
 10
3.4895
 20
12.092238
 30
0.0
 11
3.8815
 21
12.092238
 31
0.0
  0
LINE
  5
3D5
  8
0
 10
4.5245
 20
12.092238
 30
0.0
 11
5.2895
 21
12.092238
 31
0.0
  0
LINE
  5
3D6
  8
0
 10
5.2895
 20
12.092238
 30
0.0
 11
5.6815
 21
12.092238
 31
0.0
  0
LINE
  5
3D7
  8
0
 10
6.3245
 20
12.092238
 30
0.0
 11
6.7165
 21
12.092238
 31
0.0
  0
LINE
  5
3D8
  8
0
 10
6.7165
 20
12.092238
 30
0.0
 11
7.4815
 21
12.092238
 31
0.0
  0
LINE
  5
3D9
  8
0
 10
8.1245
 20
12.092238
 30
0.0
 11
8.8895
 21
12.092238
 31
0.0
  0
LINE
  5
3DA
  8
0
 10
8.8895
 20
12.092238
 30
0.0
 11
9.2815
 21
12.092238
 31
0.0
  0
LINE
  5
3DB
  8
0
 10
9.9245
 20
12.092238
 30
0.0
 11
10.6895
 21
12.092238
 31
0.0
  0
LINE
  5
3DC
  8
0
 10
10.6895
 20
12.092238
 30
0.0
 11
11.0815
 21
12.092238
 31
0.0
  0
LINE
  5
3DD
  8
0
 10
11.7245
 20
12.092238
 30
0.0
 11
12.1165
 21
12.092238
 31
0.0
  0
LINE
  5
3DE
  8
0
 10
12.1165
 20
12.092238
 30
0.0
 11
12.8815
 21
12.092238
 31
0.0
  0
LINE
  5
3DF
  8
0
 10
13.5245
 20
12.092238
 30
0.0
 11
14.17373
 21
12.092238
 31
0.0
  0
LINE
  5
3E0
  8
0
 10
0.9095
 20
12.592238
 30
0.0
 11
1.6745
 21
12.592238
 31
0.0
  0
LINE
  5
3E1
  8
0
 10
0.9095
 20
12.592238
 30
0.0
 11
1.6745
 21
12.592238
 31
0.0
  0
LINE
  5
3E2
  8
0
 10
1.6745
 20
12.592238
 30
0.0
 11
2.0665
 21
12.592238
 31
0.0
  0
LINE
  5
3E3
  8
0
 10
2.7095
 20
12.592238
 30
0.0
 11
3.1015
 21
12.592238
 31
0.0
  0
LINE
  5
3E4
  8
0
 10
3.1015
 20
12.592238
 30
0.0
 11
3.8665
 21
12.592238
 31
0.0
  0
LINE
  5
3E5
  8
0
 10
4.5095
 20
12.592238
 30
0.0
 11
5.2745
 21
12.592238
 31
0.0
  0
LINE
  5
3E6
  8
0
 10
5.2745
 20
12.592238
 30
0.0
 11
5.6665
 21
12.592238
 31
0.0
  0
LINE
  5
3E7
  8
0
 10
6.3095
 20
12.592238
 30
0.0
 11
7.0745
 21
12.592238
 31
0.0
  0
LINE
  5
3E8
  8
0
 10
7.0745
 20
12.592238
 30
0.0
 11
7.4665
 21
12.592238
 31
0.0
  0
LINE
  5
3E9
  8
0
 10
8.1095
 20
12.592238
 30
0.0
 11
8.8745
 21
12.592238
 31
0.0
  0
LINE
  5
3EA
  8
0
 10
8.8745
 20
12.592238
 30
0.0
 11
9.2665
 21
12.592238
 31
0.0
  0
LINE
  5
3EB
  8
0
 10
9.9095
 20
12.592238
 30
0.0
 11
10.6745
 21
12.592238
 31
0.0
  0
LINE
  5
3EC
  8
0
 10
10.6745
 20
12.592238
 30
0.0
 11
11.0665
 21
12.592238
 31
0.0
  0
LINE
  5
3ED
  8
0
 10
11.7095
 20
12.592238
 30
0.0
 11
12.4745
 21
12.592238
 31
0.0
  0
LINE
  5
3EE
  8
0
 10
12.4745
 20
12.592238
 30
0.0
 11
12.8665
 21
12.592238
 31
0.0
  0
LINE
  5
3EF
  8
0
 10
13.5095
 20
12.592238
 30
0.0
 11
14.16638
 21
12.592238
 31
0.0
  0
LINE
  5
3F0
  8
0
 10
0.9225
 20
13.092238
 30
0.0
 11
1.6875
 21
13.092238
 31
0.0
  0
LINE
  5
3F1
  8
0
 10
0.9225
 20
13.092238
 30
0.0
 11
1.6875
 21
13.092238
 31
0.0
  0
LINE
  5
3F2
  8
0
 10
1.6875
 20
13.092238
 30
0.0
 11
2.0795
 21
13.092238
 31
0.0
  0
LINE
  5
3F3
  8
0
 10
2.7225
 20
13.092238
 30
0.0
 11
3.4875
 21
13.092238
 31
0.0
  0
LINE
  5
3F4
  8
0
 10
3.4875
 20
13.092238
 30
0.0
 11
3.8795
 21
13.092238
 31
0.0
  0
LINE
  5
3F5
  8
0
 10
4.5225
 20
13.092238
 30
0.0
 11
5.2875
 21
13.092238
 31
0.0
  0
LINE
  5
3F6
  8
0
 10
5.2875
 20
13.092238
 30
0.0
 11
5.6795
 21
13.092238
 31
0.0
  0
LINE
  5
3F7
  8
0
 10
6.3225
 20
13.092238
 30
0.0
 11
7.0875
 21
13.092238
 31
0.0
  0
LINE
  5
3F8
  8
0
 10
7.0875
 20
13.092238
 30
0.0
 11
7.4795
 21
13.092238
 31
0.0
  0
LINE
  5
3F9
  8
0
 10
8.1225
 20
13.092238
 30
0.0
 11
8.8875
 21
13.092238
 31
0.0
  0
LINE
  5
3FA
  8
0
 10
8.8875
 20
13.092238
 30
0.0
 11
9.2795
 21
13.092238
 31
0.0
  0
LINE
  5
3FB
  8
0
 10
9.9225
 20
13.092238
 30
0.0
 11
10.6875
 21
13.092238
 31
0.0
  0
LINE
  5
3FC
  8
0
 10
10.6875
 20
13.092238
 30
0.0
 11
11.0795
 21
13.092238
 31
0.0
  0
LINE
  5
3FD
  8
0
 10
11.7225
 20
13.092238
 30
0.0
 11
12.4875
 21
13.092238
 31
0.0
  0
LINE
  5
3FE
  8
0
 10
12.4875
 20
13.092238
 30
0.0
 11
12.8795
 21
13.092238
 31
0.0
  0
LINE
  5
3FF
  8
0
 10
13.5225
 20
13.092238
 30
0.0
 11
14.17275
 21
13.092238
 31
0.0
  0
LINE
  5
400
  8
0
 10
0.9825
 20
13.592238
 30
0.0
 11
1.7475
 21
13.592238
 31
0.0
  0
LINE
  5
401
  8
0
 10
0.9825
 20
13.592238
 30
0.0
 11
1.7475
 21
13.592238
 31
0.0
  0
LINE
  5
402
  8
0
 10
1.7475
 20
13.592238
 30
0.0
 11
2.1395
 21
13.592238
 31
0.0
  0
LINE
  5
403
  8
0
 10
2.7825
 20
13.592238
 30
0.0
 11
3.5475
 21
13.592238
 31
0.0
  0
LINE
  5
404
  8
0
 10
3.5475
 20
13.592238
 30
0.0
 11
3.9395
 21
13.592238
 31
0.0
  0
LINE
  5
405
  8
0
 10
4.5825
 20
13.592238
 30
0.0
 11
4.9745
 21
13.592238
 31
0.0
  0
LINE
  5
406
  8
0
 10
4.9745
 20
13.592238
 30
0.0
 11
5.7395
 21
13.592238
 31
0.0
  0
LINE
  5
407
  8
0
 10
6.3825
 20
13.592238
 30
0.0
 11
6.7745
 21
13.592238
 31
0.0
  0
LINE
  5
408
  8
0
 10
6.7745
 20
13.592238
 30
0.0
 11
7.5395
 21
13.592238
 31
0.0
  0
LINE
  5
409
  8
0
 10
8.1825
 20
13.592238
 30
0.0
 11
8.5745
 21
13.592238
 31
0.0
  0
LINE
  5
40A
  8
0
 10
8.5745
 20
13.592238
 30
0.0
 11
9.3395
 21
13.592238
 31
0.0
  0
LINE
  5
40B
  8
0
 10
9.9825
 20
13.592238
 30
0.0
 11
10.7475
 21
13.592238
 31
0.0
  0
LINE
  5
40C
  8
0
 10
10.7475
 20
13.592238
 30
0.0
 11
11.1395
 21
13.592238
 31
0.0
  0
LINE
  5
40D
  8
0
 10
11.7825
 20
13.592238
 30
0.0
 11
12.5475
 21
13.592238
 31
0.0
  0
LINE
  5
40E
  8
0
 10
12.5475
 20
13.592238
 30
0.0
 11
12.9395
 21
13.592238
 31
0.0
  0
LINE
  5
40F
  8
0
 10
13.5825
 20
13.592238
 30
0.0
 11
14.20215
 21
13.592238
 31
0.0
  0
LINE
  5
410
  8
0
 10
1.1255
 20
14.092238
 30
0.0
 11
1.5175
 21
14.092238
 31
0.0
  0
LINE
  5
411
  8
0
 10
1.1255
 20
14.092238
 30
0.0
 11
1.5175
 21
14.092238
 31
0.0
  0
LINE
  5
412
  8
0
 10
1.5175
 20
14.092238
 30
0.0
 11
2.2825
 21
14.092238
 31
0.0
  0
LINE
  5
413
  8
0
 10
2.9255
 20
14.092238
 30
0.0
 11
3.3175
 21
14.092238
 31
0.0
  0
LINE
  5
414
  8
0
 10
3.3175
 20
14.092238
 30
0.0
 11
4.0825
 21
14.092238
 31
0.0
  0
LINE
  5
415
  8
0
 10
4.7255
 20
14.092238
 30
0.0
 11
5.1175
 21
14.092238
 31
0.0
  0
LINE
  5
416
  8
0
 10
5.1175
 20
14.092238
 30
0.0
 11
5.8825
 21
14.092238
 31
0.0
  0
LINE
  5
417
  8
0
 10
6.5255
 20
14.092238
 30
0.0
 11
6.9175
 21
14.092238
 31
0.0
  0
LINE
  5
418
  8
0
 10
6.9175
 20
14.092238
 30
0.0
 11
7.6825
 21
14.092238
 31
0.0
  0
LINE
  5
419
  8
0
 10
8.3255
 20
14.092238
 30
0.0
 11
9.0905
 21
14.092238
 31
0.0
  0
LINE
  5
41A
  8
0
 10
9.0905
 20
14.092238
 30
0.0
 11
9.4825
 21
14.092238
 31
0.0
  0
LINE
  5
41B
  8
0
 10
10.1255
 20
14.092238
 30
0.0
 11
10.8905
 21
14.092238
 31
0.0
  0
LINE
  5
41C
  8
0
 10
10.8905
 20
14.092238
 30
0.0
 11
11.2825
 21
14.092238
 31
0.0
  0
LINE
  5
41D
  8
0
 10
11.9255
 20
14.092238
 30
0.0
 11
12.6905
 21
14.092238
 31
0.0
  0
LINE
  5
41E
  8
0
 10
12.6905
 20
14.092238
 30
0.0
 11
13.0825
 21
14.092238
 31
0.0
  0
LINE
  5
41F
  8
0
 10
13.7255
 20
14.092238
 30
0.0
 11
14.27222
 21
14.092238
 31
0.0
  0
LINE
  5
420
  8
0
 10
1.6925
 20
14.592238
 30
0.0
 11
2.4575
 21
14.592238
 31
0.0
  0
LINE
  5
421
  8
0
 10
1.6925
 20
14.592238
 30
0.0
 11
2.4575
 21
14.592238
 31
0.0
  0
LINE
  5
422
  8
0
 10
2.4575
 20
14.592238
 30
0.0
 11
2.8495
 21
14.592238
 31
0.0
  0
LINE
  5
423
  8
0
 10
3.4925
 20
14.592238
 30
0.0
 11
4.2575
 21
14.592238
 31
0.0
  0
LINE
  5
424
  8
0
 10
4.2575
 20
14.592238
 30
0.0
 11
4.6495
 21
14.592238
 31
0.0
  0
LINE
  5
425
  8
0
 10
5.2925
 20
14.592238
 30
0.0
 11
5.72498
 21
14.592238
 31
0.0
  0
LINE
  5
426
  8
0
 10
6.4405
 20
14.592238
 30
0.0
 11
7.2055
 21
14.592238
 31
0.0
  0
LINE
  5
427
  8
0
 10
7.2055
 20
14.592238
 30
0.0
 11
7.5975
 21
14.592238
 31
0.0
  0
LINE
  5
428
  8
0
 10
8.2405
 20
14.592238
 30
0.0
 11
8.6325
 21
14.592238
 31
0.0
  0
LINE
  5
429
  8
0
 10
8.6325
 20
14.592238
 30
0.0
 11
9.3975
 21
14.592238
 31
0.0
  0
LINE
  5
42A
  8
0
 10
10.0405
 20
14.592238
 30
0.0
 11
10.8055
 21
14.592238
 31
0.0
  0
LINE
  5
42B
  8
0
 10
10.8055
 20
14.592238
 30
0.0
 11
11.1975
 21
14.592238
 31
0.0
  0
LINE
  5
42C
  8
0
 10
11.8405
 20
14.592238
 30
0.0
 11
12.6055
 21
14.592238
 31
0.0
  0
LINE
  5
42D
  8
0
 10
12.6055
 20
14.592238
 30
0.0
 11
12.9975
 21
14.592238
 31
0.0
  0
LINE
  5
42E
  8
0
 10
13.6405
 20
14.592238
 30
0.0
 11
14.23057
 21
14.592238
 31
0.0
  0
ENDSEC
  0
EOF
