  0
SECTION
  2
HEADER
  9
$ACADVER
  1
AC1009
  9
$DWGCODEPAGE
  3
ANSI_1252
  9
$INSBASE
 10
0.0
 20
0.0
 30
0.0
  9
$EXTMIN
 10
1e+20
 20
1e+20
 30
1e+20
  9
$EXTMAX
 10
-1e+20
 20
-1e+20
 30
-1e+20
  9
$LIMMIN
 10
0.0
 20
0.0
  9
$LIMMAX
 10
420.0
 20
297.0
  9
$ORTHOMODE
 70
0
  9
$REGENMODE
 70
1
  9
$FILLMODE
 70
1
  9
$DRAGMODE
 70
2
  9
$QTEXTMODE
 70
0
  9
$MIRRTEXT
 70
1
  9
$OSMODE
 70
20583
  9
$LTSCALE
 40
1.0
  9
$ATTMODE
 70
1
  9
$TEXTSIZE
 40
2.5
  9
$TRACEWID
 40
1.0
  9
$TEXTSTYLE
  7
Standard
  9
$CLAYER
  8
0
  9
$CELTYPE
  6
ByLayer
  9
$CECOLOR
 62
256
  9
$DIMSCALE
 40
1.0
  9
$DIMASZ
 40
2.5
  9
$DIMEXO
 40
0.625
  9
$DIMDLI
 40
3.75
  9
$DIMRND
 40
0.0
  9
$DIMDLE
 40
0.0
  9
$DIMEXE
 40
1.25
  9
$DIMTP
 40
0.0
  9
$DIMTM
 40
0.0
  9
$DIMTXT
 40
2.5
  9
$DIMCEN
 40
2.5
  9
$DIMTSZ
 40
0.0
  9
$DIMTOL
 70
0
  9
$DIMLIM
 70
0
  9
$DIMTIH
 70
0
  9
$DIMTOH
 70
0
  9
$DIMSE1
 70
0
  9
$DIMSE2
 70
0
  9
$DIMTAD
 70
1
  9
$DIMZIN
 70
8
  9
$DIMBLK
  1

  9
$DIMASO
 70
1
  9
$DIMSHO
 70
1
  9
$DIMPOST
  1

  9
$DIMAPOST
  1

  9
$DIMALT
 70
0
  9
$DIMALTD
 70
3
  9
$DIMALTF
 40
0.03937007874
  9
$DIMLFAC
 40
1.0
  9
$DIMTOFL
 70
1
  9
$DIMTVP
 40
0.0
  9
$DIMTIX
 70
0
  9
$DIMSOXD
 70
0
  9
$DIMSAH
 70
0
  9
$DIMBLK1
  1

  9
$DIMBLK2
  1

  9
$DIMSTYLE
  2
ISO-25
  9
$DIMCLRD
 70
0
  9
$DIMCLRE
 70
0
  9
$DIMCLRT
 70
0
  9
$DIMTFAC
 40
1.0
  9
$DIMGAP
 40
0.625
  9
$COORDS
 70
1
  9
$ATTDIA
 70
0
  9
$ATTREQ
 70
1
  9
$HANDLING
 70
1
  9
$LUNITS
 70
2
  9
$LUPREC
 70
4
  9
$SKETCHINC
 40
1.0
  9
$FILLETRAD
 40
10.0
  9
$AUNITS
 70
0
  9
$AUPREC
 70
2
  9
$MENU
  1
.
  9
$ELEVATION
 40
0.0
  9
$PELEVATION
 40
0.0
  9
$THICKNESS
 40
0.0
  9
$LIMCHECK
 70
0
  9
$CHAMFERA
 40
0.0
  9
$CHAMFERB
 40
0.0
  9
$SKPOLY
 70
0
  9
$TDCREATE
 40
2460888.4294097223
  9
$TDUPDATE
 40
2460888.4294212963
  9
$TDINDWG
 40
0.0
  9
$TDUSRTIMER
 40
0.0
  9
$USRTIMER
 70
1
  9
$ANGBASE
 50
0.0
  9
$ANGDIR
 70
0
  9
$PDMODE
 70
0
  9
$PDSIZE
 40
0.0
  9
$PLINEWID
 40
0.0
  9
$SPLFRAME
 70
0
  9
$SPLINETYPE
 70
6
  9
$SPLINESEGS
 70
8
  9
$HANDSEED
  5
7D0
  9
$SURFTAB1
 70
6
  9
$SURFTAB2
 70
6
  9
$SURFTYPE
 70
6
  9
$SURFU
 70
6
  9
$SURFV
 70
6
  9
$UCSNAME
  2

  9
$UCSORG
 10
0.0
 20
0.0
 30
0.0
  9
$UCSXDIR
 10
1.0
 20
0.0
 30
0.0
  9
$UCSYDIR
 10
0.0
 20
1.0
 30
0.0
  9
$PUCSNAME
  2

  9
$PUCSORG
 10
0.0
 20
0.0
 30
0.0
  9
$PUCSXDIR
 10
1.0
 20
0.0
 30
0.0
  9
$PUCSYDIR
 10
0.0
 20
1.0
 30
0.0
  9
$USERI1
 70
0
  9
$USERI2
 70
0
  9
$USERI3
 70
0
  9
$USERI4
 70
0
  9
$USERI5
 70
0
  9
$USERR1
 40
0.0
  9
$USERR2
 40
0.0
  9
$USERR3
 40
0.0
  9
$USERR4
 40
0.0
  9
$USERR5
 40
0.0
  9
$WORLDVIEW
 70
1
  9
$SHADEDGE
 70
3
  9
$SHADEDIF
 70
70
  9
$TILEMODE
 70
1
  9
$MAXACTVP
 70
64
  9
$PLIMCHECK
 70
0
  9
$PEXTMIN
 10
1e+20
 20
1e+20
 30
1e+20
  9
$PEXTMAX
 10
-1e+20
 20
-1e+20
 30
-1e+20
  9
$PLIMMIN
 10
0.0
 20
0.0
  9
$PLIMMAX
 10
420.0
 20
297.0
  9
$UNITMODE
 70
0
  9
$VISRETAIN
 70
1
  9
$PLINEGEN
 70
0
  9
$PSLTSCALE
 70
1
  0
ENDSEC
  0
SECTION
  2
TABLES
  0
TABLE
  2
VPORT
 70
1
  0
VPORT
  5
23
  2
*Active
 70
0
 10
0.0
 20
0.0
 11
1.0
 21
1.0
 12
0.0
 22
0.0
 13
0.0
 23
0.0
 14
0.5
 24
0.5
 15
0.5
 25
0.5
 16
0.0
 26
0.0
 36
1.0
 17
0.0
 27
0.0
 37
0.0
 40
1000.0
 41
1.34
 42
50.0
 43
0.0
 44
0.0
 50
0.0
 51
0.0
 71
0
 72
1000
 73
1
 74
3
 75
0
 76
0
 77
0
 78
0
  0
ENDTAB
  0
TABLE
  2
LTYPE
 70
3
  0
LTYPE
  5
24
  2
ByBlock
 70
0
  3

 72
65
 73
0
 40
0.0
  0
LTYPE
  5
25
  2
ByLayer
 70
0
  3

 72
65
 73
0
 40
0.0
  0
LTYPE
  5
26
  2
Continuous
 70
0
  3

 72
65
 73
0
 40
0.0
  0
ENDTAB
  0
TABLE
  2
LAYER
 70
2
  0
LAYER
  5
27
  2
0
 70
0
 62
7
  6
Continuous
  0
LAYER
  5
28
  2
Defpoints
 70
0
 62
7
  6
Continuous
  0
ENDTAB
  0
TABLE
  2
STYLE
 70
1
  0
STYLE
  5
29
  2
Standard
 70
0
 40
0.0
 41
1.0
 50
0.0
 71
0
 42
2.5
  3
txt
  4

  0
ENDTAB
  0
TABLE
  2
VIEW
 70
0
  0
ENDTAB
  0
TABLE
  2
UCS
 70
0
  0
ENDTAB
  0
TABLE
  2
APPID
 70
3
  0
APPID
  5
2A
  2
ACAD
 70
0
  0
APPID
  5
7CE
  2
HATCHBACKGROUNDCOLOR
 70
0
  0
APPID
  5
7CF
  2
EZDXF
 70
0
  0
ENDTAB
  0
TABLE
  2
DIMSTYLE
 70
1
  0
DIMSTYLE
105
2B
  2
Standard
 70
0
  3

  4

  5

  6

  7

 40
1.0
 41
2.5
 42
0.625
 43
3.75
 44
1.25
 45
0.0
 46
0.0
 47
0.0
 48
0.0
140
2.5
141
2.5
142
0.0
143
0.03937007874
144
1.0
145
0.0
146
1.0
147
0.625
 71
0
 72
0
 73
0
 74
0
 75
0
 76
0
 77
1
 78
8
170
0
171
3
172
1
173
0
174
0
175
0
176
0
177
0
178
0
  0
ENDTAB
  0
ENDSEC
  0
SECTION
  2
BLOCKS
  0
BLOCK
  5
18
  8
0
  2
$Model_Space
 70
0
 10
0.0
 20
0.0
 30
0.0
  3
$Model_Space
  1

1001
EZDXF
1000
CREATED_BY_EZDXF
1000
1.4.2 @ 2025-07-31T13:18:21.995594+00:00
1000
WRITTEN_BY_EZDXF
1000
1.4.2 @ 2025-07-31T13:18:22.151840+00:00
  0
ENDBLK
  5
19
  8
0
  0
BLOCK
  5
1C
  8
0
  2
$Paper_Space
 70
0
 10
0.0
 20
0.0
 30
0.0
  3
$Paper_Space
  1

  0
ENDBLK
  5
1D
  8
0
  0
ENDSEC
  0
SECTION
  2
ENTITIES
  0
LINE
  5
2D
  8
0
 10
2.373518
 20
0.430983
 30
0.0
 11
1.370323
 21
0.549875
 31
0.0
  0
LINE
  5
2E
  8
0
 10
1.370323
 20
0.549875
 30
0.0
 11
0.806799
 21
0.85731
 31
0.0
  0
LINE
  5
2F
  8
0
 10
0.806799
 20
0.85731
 30
0.0
 11
0.54485
 21
1.393319
 31
0.0
  0
LINE
  5
30
  8
0
 10
0.54485
 20
1.393319
 30
0.0
 11
0.464624
 21
2.024916
 31
0.0
  0
LINE
  5
31
  8
0
 10
0.464624
 20
2.024916
 30
0.0
 11
0.581762
 21
7.817034
 31
0.0
  0
LINE
  5
32
  8
0
 10
0.581762
 20
7.817034
 30
0.0
 11
0.436006
 21
12.708644
 31
0.0
  0
LINE
  5
33
  8
0
 10
0.436006
 20
12.708644
 30
0.0
 11
0.522295
 21
13.657691
 31
0.0
  0
LINE
  5
34
  8
0
 10
0.522295
 20
13.657691
 30
0.0
 11
0.817398
 21
14.33901
 31
0.0
  0
LINE
  5
35
  8
0
 10
0.817398
 20
14.33901
 30
0.0
 11
1.257751
 21
14.608457
 31
0.0
  0
LINE
  5
36
  8
0
 10
1.257751
 20
14.608457
 30
0.0
 11
2.355708
 21
14.749803
 31
0.0
  0
LINE
  5
37
  8
0
 10
2.355708
 20
14.749803
 30
0.0
 11
14.625877
 21
14.609806
 31
0.0
  0
LINE
  5
38
  8
0
 10
14.625877
 20
14.609806
 30
0.0
 11
14.749455
 21
2.304949
 31
0.0
  0
LINE
  5
39
  8
0
 10
14.749455
 20
2.304949
 30
0.0
 11
14.63652
 21
1.375014
 31
0.0
  0
LINE
  5
3A
  8
0
 10
14.63652
 20
1.375014
 30
0.0
 11
14.321444
 21
0.803054
 31
0.0
  0
LINE
  5
3B
  8
0
 10
14.321444
 20
0.803054
 30
0.0
 11
13.920937
 21
0.59721
 31
0.0
  0
LINE
  5
3C
  8
0
 10
13.920937
 20
0.59721
 30
0.0
 11
12.833218
 21
0.448933
 31
0.0
  0
LINE
  5
3D
  8
0
 10
12.833218
 20
0.448933
 30
0.0
 11
7.114518
 21
0.578469
 31
0.0
  0
LINE
  5
3E
  8
0
 10
7.114518
 20
0.578469
 30
0.0
 11
2.373518
 21
0.430983
 31
0.0
  0
LINE
  5
3F
  8
0
 10
2.373518
 20
0.430983
 30
0.0
 11
2.373518
 21
0.430983
 31
0.0
  0
LINE
  5
40
  8
0
 10
2.373518
 20
0.430983
 30
0.0
 11
1.370323
 21
0.549875
 31
0.0
  0
LINE
  5
41
  8
0
 10
1.370323
 20
0.549875
 30
0.0
 11
0.806799
 21
0.85731
 31
0.0
  0
LINE
  5
42
  8
0
 10
0.806799
 20
0.85731
 30
0.0
 11
0.54485
 21
1.393319
 31
0.0
  0
LINE
  5
43
  8
0
 10
0.54485
 20
1.393319
 30
0.0
 11
0.464624
 21
2.024916
 31
0.0
  0
LINE
  5
44
  8
0
 10
0.464624
 20
2.024916
 30
0.0
 11
0.581762
 21
7.817034
 31
0.0
  0
LINE
  5
45
  8
0
 10
0.581762
 20
7.817034
 30
0.0
 11
0.436006
 21
12.708644
 31
0.0
  0
LINE
  5
46
  8
0
 10
0.436006
 20
12.708644
 30
0.0
 11
0.522295
 21
13.657691
 31
0.0
  0
LINE
  5
47
  8
0
 10
0.522295
 20
13.657691
 30
0.0
 11
0.817398
 21
14.33901
 31
0.0
  0
LINE
  5
48
  8
0
 10
0.817398
 20
14.33901
 30
0.0
 11
1.257751
 21
14.608457
 31
0.0
  0
LINE
  5
49
  8
0
 10
1.257751
 20
14.608457
 30
0.0
 11
2.355708
 21
14.749803
 31
0.0
  0
LINE
  5
4A
  8
0
 10
2.355708
 20
14.749803
 30
0.0
 11
14.625877
 21
14.609806
 31
0.0
  0
LINE
  5
4B
  8
0
 10
14.625877
 20
14.609806
 30
0.0
 11
14.749455
 21
2.304949
 31
0.0
  0
LINE
  5
4C
  8
0
 10
14.749455
 20
2.304949
 30
0.0
 11
14.63652
 21
1.375014
 31
0.0
  0
LINE
  5
4D
  8
0
 10
14.63652
 20
1.375014
 30
0.0
 11
14.321444
 21
0.803054
 31
0.0
  0
LINE
  5
4E
  8
0
 10
14.321444
 20
0.803054
 30
0.0
 11
13.920937
 21
0.59721
 31
0.0
  0
LINE
  5
4F
  8
0
 10
13.920937
 20
0.59721
 30
0.0
 11
12.833218
 21
0.448933
 31
0.0
  0
LINE
  5
50
  8
0
 10
12.833218
 20
0.448933
 30
0.0
 11
7.114518
 21
0.578469
 31
0.0
  0
LINE
  5
51
  8
0
 10
7.114518
 20
0.578469
 30
0.0
 11
2.373518
 21
0.430983
 31
0.0
  0
LINE
  5
52
  8
0
 10
2.373518
 20
0.430983
 30
0.0
 11
2.373518
 21
0.430983
 31
0.0
  0
LINE
  5
53
  8
0
 10
0.592849
 20
1.254
 30
0.0
 11
0.592849
 21
1.276251
 31
0.0
  0
LINE
  5
54
  8
0
 10
0.592849
 20
1.254
 30
0.0
 11
0.592849
 21
1.276251
 31
0.0
  0
LINE
  5
55
  8
0
 10
0.592849
 20
1.276251
 30
0.0
 11
0.592849
 21
1.487247
 31
0.0
  0
LINE
  5
56
  8
0
 10
0.592849
 20
1.487247
 30
0.0
 11
0.592849
 21
1.932387
 31
0.0
  0
LINE
  5
57
  8
0
 10
0.592849
 20
1.932387
 30
0.0
 11
0.592849
 21
2.987226
 31
0.0
  0
LINE
  5
58
  8
0
 10
0.592849
 20
2.987226
 30
0.0
 11
0.592849
 21
3.076258
 31
0.0
  0
LINE
  5
59
  8
0
 10
0.592849
 20
3.076258
 30
0.0
 11
0.592849
 21
3.287226
 31
0.0
  0
LINE
  5
5A
  8
0
 10
0.592849
 20
3.287226
 30
0.0
 11
0.592849
 21
3.732387
 31
0.0
  0
LINE
  5
5B
  8
0
 10
0.592849
 20
3.732387
 30
0.0
 11
0.592849
 21
4.787226
 31
0.0
  0
LINE
  5
5C
  8
0
 10
0.592849
 20
4.787226
 30
0.0
 11
0.592849
 21
4.876258
 31
0.0
  0
LINE
  5
5D
  8
0
 10
0.592849
 20
4.876258
 30
0.0
 11
0.592849
 21
5.087226
 31
0.0
  0
LINE
  5
5E
  8
0
 10
0.592849
 20
5.087226
 30
0.0
 11
0.592849
 21
5.532387
 31
0.0
  0
LINE
  5
5F
  8
0
 10
0.592849
 20
5.532387
 30
0.0
 11
0.592849
 21
6.587226
 31
0.0
  0
LINE
  5
60
  8
0
 10
0.592849
 20
6.587226
 30
0.0
 11
0.592849
 21
6.676258
 31
0.0
  0
LINE
  5
61
  8
0
 10
0.592849
 20
6.676258
 30
0.0
 11
0.592849
 21
6.887226
 31
0.0
  0
LINE
  5
62
  8
0
 10
0.592849
 20
6.887226
 30
0.0
 11
0.592849
 21
7.332387
 31
0.0
  0
LINE
  5
63
  8
0
 10
0.592849
 20
7.332387
 30
0.0
 11
0.592849
 21
8.387226
 31
0.0
  0
LINE
  5
64
  8
0
 10
0.592849
 20
8.387226
 30
0.0
 11
0.592849
 21
8.476258
 31
0.0
  0
LINE
  5
65
  8
0
 10
0.592849
 20
8.476258
 30
0.0
 11
0.592849
 21
8.687226
 31
0.0
  0
LINE
  5
66
  8
0
 10
0.592849
 20
8.687226
 30
0.0
 11
0.592849
 21
9.132387
 31
0.0
  0
LINE
  5
67
  8
0
 10
0.592849
 20
9.132387
 30
0.0
 11
0.592849
 21
10.187226
 31
0.0
  0
LINE
  5
68
  8
0
 10
0.592849
 20
10.187226
 30
0.0
 11
0.592849
 21
10.276258
 31
0.0
  0
LINE
  5
69
  8
0
 10
0.592849
 20
10.276258
 30
0.0
 11
0.592849
 21
10.487226
 31
0.0
  0
LINE
  5
6A
  8
0
 10
0.592849
 20
10.487226
 30
0.0
 11
0.592849
 21
10.932387
 31
0.0
  0
LINE
  5
6B
  8
0
 10
0.592849
 20
10.932387
 30
0.0
 11
0.592849
 21
11.987226
 31
0.0
  0
LINE
  5
6C
  8
0
 10
0.592849
 20
11.987226
 30
0.0
 11
0.592849
 21
12.076258
 31
0.0
  0
LINE
  5
6D
  8
0
 10
0.592849
 20
12.076258
 30
0.0
 11
0.592849
 21
12.287226
 31
0.0
  0
LINE
  5
6E
  8
0
 10
0.592849
 20
12.287226
 30
0.0
 11
0.592849
 21
12.732387
 31
0.0
  0
LINE
  5
6F
  8
0
 10
0.592849
 20
12.732387
 30
0.0
 11
0.592849
 21
13.787175
 31
0.0
  0
LINE
  5
70
  8
0
 10
0.592849
 20
13.787175
 30
0.0
 11
0.592849
 21
13.876275
 31
0.0
  0
LINE
  5
71
  8
0
 10
0.592849
 20
13.876275
 30
0.0
 11
0.592849
 21
13.929
 31
0.0
  0
LINE
  5
72
  8
0
 10
1.092849
 20
0.654
 30
0.0
 11
1.092849
 21
0.864968
 31
0.0
  0
LINE
  5
73
  8
0
 10
1.092849
 20
0.654
 30
0.0
 11
1.092849
 21
0.864968
 31
0.0
  0
LINE
  5
74
  8
0
 10
1.092849
 20
0.864968
 30
0.0
 11
1.092849
 21
1.1564
 31
0.0
  0
LINE
  5
75
  8
0
 10
1.092849
 20
1.1564
 30
0.0
 11
1.092849
 21
2.211239
 31
0.0
  0
LINE
  5
76
  8
0
 10
1.092849
 20
2.211239
 30
0.0
 11
1.092849
 21
2.300271
 31
0.0
  0
LINE
  5
77
  8
0
 10
1.092849
 20
2.300271
 30
0.0
 11
1.092849
 21
2.511239
 31
0.0
  0
LINE
  5
78
  8
0
 10
1.092849
 20
2.511239
 30
0.0
 11
1.092849
 21
2.9564
 31
0.0
  0
LINE
  5
79
  8
0
 10
1.092849
 20
2.9564
 30
0.0
 11
1.092849
 21
4.011239
 31
0.0
  0
LINE
  5
7A
  8
0
 10
1.092849
 20
4.011239
 30
0.0
 11
1.092849
 21
4.100271
 31
0.0
  0
LINE
  5
7B
  8
0
 10
1.092849
 20
4.100271
 30
0.0
 11
1.092849
 21
4.311239
 31
0.0
  0
LINE
  5
7C
  8
0
 10
1.092849
 20
4.311239
 30
0.0
 11
1.092849
 21
4.7564
 31
0.0
  0
LINE
  5
7D
  8
0
 10
1.092849
 20
4.7564
 30
0.0
 11
1.092849
 21
5.811239
 31
0.0
  0
LINE
  5
7E
  8
0
 10
1.092849
 20
5.811239
 30
0.0
 11
1.092849
 21
5.900271
 31
0.0
  0
LINE
  5
7F
  8
0
 10
1.092849
 20
5.900271
 30
0.0
 11
1.092849
 21
6.111239
 31
0.0
  0
LINE
  5
80
  8
0
 10
1.092849
 20
6.111239
 30
0.0
 11
1.092849
 21
6.5564
 31
0.0
  0
LINE
  5
81
  8
0
 10
1.092849
 20
6.5564
 30
0.0
 11
1.092849
 21
7.611239
 31
0.0
  0
LINE
  5
82
  8
0
 10
1.092849
 20
7.611239
 30
0.0
 11
1.092849
 21
7.700271
 31
0.0
  0
LINE
  5
83
  8
0
 10
1.092849
 20
7.700271
 30
0.0
 11
1.092849
 21
7.911239
 31
0.0
  0
LINE
  5
84
  8
0
 10
1.092849
 20
7.911239
 30
0.0
 11
1.092849
 21
8.3564
 31
0.0
  0
LINE
  5
85
  8
0
 10
1.092849
 20
8.3564
 30
0.0
 11
1.092849
 21
9.411239
 31
0.0
  0
LINE
  5
86
  8
0
 10
1.092849
 20
9.411239
 30
0.0
 11
1.092849
 21
9.500271
 31
0.0
  0
LINE
  5
87
  8
0
 10
1.092849
 20
9.500271
 30
0.0
 11
1.092849
 21
9.711239
 31
0.0
  0
LINE
  5
88
  8
0
 10
1.092849
 20
9.711239
 30
0.0
 11
1.092849
 21
10.1564
 31
0.0
  0
LINE
  5
89
  8
0
 10
1.092849
 20
10.1564
 30
0.0
 11
1.092849
 21
11.211239
 31
0.0
  0
LINE
  5
8A
  8
0
 10
1.092849
 20
11.211239
 30
0.0
 11
1.092849
 21
11.300271
 31
0.0
  0
LINE
  5
8B
  8
0
 10
1.092849
 20
11.300271
 30
0.0
 11
1.092849
 21
11.511239
 31
0.0
  0
LINE
  5
8C
  8
0
 10
1.092849
 20
11.511239
 30
0.0
 11
1.092849
 21
11.9564
 31
0.0
  0
LINE
  5
8D
  8
0
 10
1.092849
 20
11.9564
 30
0.0
 11
1.092849
 21
13.011239
 31
0.0
  0
LINE
  5
8E
  8
0
 10
1.092849
 20
13.011239
 30
0.0
 11
1.092849
 21
13.100271
 31
0.0
  0
LINE
  5
8F
  8
0
 10
1.092849
 20
13.100271
 30
0.0
 11
1.092849
 21
13.311239
 31
0.0
  0
LINE
  5
90
  8
0
 10
1.092849
 20
13.311239
 30
0.0
 11
1.092849
 21
13.7564
 31
0.0
  0
LINE
  5
91
  8
0
 10
1.092849
 20
13.7564
 30
0.0
 11
1.092849
 21
14.447671
 31
0.0
  0
LINE
  5
92
  8
0
 10
1.092849
 20
14.447671
 30
0.0
 11
1.092849
 21
14.536703
 31
0.0
  0
LINE
  5
93
  8
0
 10
1.592849
 20
0.504
 30
0.0
 11
1.592849
 21
0.714968
 31
0.0
  0
LINE
  5
94
  8
0
 10
1.592849
 20
0.504
 30
0.0
 11
1.592849
 21
0.714968
 31
0.0
  0
LINE
  5
95
  8
0
 10
1.592849
 20
0.714968
 30
0.0
 11
1.592849
 21
1.098103
 31
0.0
  0
LINE
  5
96
  8
0
 10
1.592849
 20
1.098103
 30
0.0
 11
1.592849
 21
2.152942
 31
0.0
  0
LINE
  5
97
  8
0
 10
1.592849
 20
2.152942
 30
0.0
 11
1.592849
 21
2.241974
 31
0.0
  0
LINE
  5
98
  8
0
 10
1.592849
 20
2.241974
 30
0.0
 11
1.592849
 21
2.452942
 31
0.0
  0
LINE
  5
99
  8
0
 10
1.592849
 20
2.452942
 30
0.0
 11
1.592849
 21
2.898103
 31
0.0
  0
LINE
  5
9A
  8
0
 10
1.592849
 20
2.898103
 30
0.0
 11
1.592849
 21
3.952942
 31
0.0
  0
LINE
  5
9B
  8
0
 10
1.592849
 20
3.952942
 30
0.0
 11
1.592849
 21
4.041974
 31
0.0
  0
LINE
  5
9C
  8
0
 10
1.592849
 20
4.041974
 30
0.0
 11
1.592849
 21
4.252942
 31
0.0
  0
LINE
  5
9D
  8
0
 10
1.592849
 20
4.252942
 30
0.0
 11
1.592849
 21
4.698103
 31
0.0
  0
LINE
  5
9E
  8
0
 10
1.592849
 20
4.698103
 30
0.0
 11
1.592849
 21
5.752942
 31
0.0
  0
LINE
  5
9F
  8
0
 10
1.592849
 20
5.752942
 30
0.0
 11
1.592849
 21
5.841974
 31
0.0
  0
LINE
  5
A0
  8
0
 10
1.592849
 20
5.841974
 30
0.0
 11
1.592849
 21
6.052942
 31
0.0
  0
LINE
  5
A1
  8
0
 10
1.592849
 20
6.052942
 30
0.0
 11
1.592849
 21
6.498103
 31
0.0
  0
LINE
  5
A2
  8
0
 10
1.592849
 20
6.498103
 30
0.0
 11
1.592849
 21
7.552942
 31
0.0
  0
LINE
  5
A3
  8
0
 10
1.592849
 20
7.552942
 30
0.0
 11
1.592849
 21
7.641974
 31
0.0
  0
LINE
  5
A4
  8
0
 10
1.592849
 20
7.641974
 30
0.0
 11
1.592849
 21
7.852942
 31
0.0
  0
LINE
  5
A5
  8
0
 10
1.592849
 20
7.852942
 30
0.0
 11
1.592849
 21
8.298103
 31
0.0
  0
LINE
  5
A6
  8
0
 10
1.592849
 20
8.298103
 30
0.0
 11
1.592849
 21
9.352942
 31
0.0
  0
LINE
  5
A7
  8
0
 10
1.592849
 20
9.352942
 30
0.0
 11
1.592849
 21
9.441974
 31
0.0
  0
LINE
  5
A8
  8
0
 10
1.592849
 20
9.441974
 30
0.0
 11
1.592849
 21
9.652942
 31
0.0
  0
LINE
  5
A9
  8
0
 10
1.592849
 20
9.652942
 30
0.0
 11
1.592849
 21
10.098103
 31
0.0
  0
LINE
  5
AA
  8
0
 10
1.592849
 20
10.098103
 30
0.0
 11
1.592849
 21
11.152942
 31
0.0
  0
LINE
  5
AB
  8
0
 10
1.592849
 20
11.152942
 30
0.0
 11
1.592849
 21
11.241974
 31
0.0
  0
LINE
  5
AC
  8
0
 10
1.592849
 20
11.241974
 30
0.0
 11
1.592849
 21
11.452942
 31
0.0
  0
LINE
  5
AD
  8
0
 10
1.592849
 20
11.452942
 30
0.0
 11
1.592849
 21
11.898103
 31
0.0
  0
LINE
  5
AE
  8
0
 10
1.592849
 20
11.898103
 30
0.0
 11
1.592849
 21
12.952942
 31
0.0
  0
LINE
  5
AF
  8
0
 10
1.592849
 20
12.952942
 30
0.0
 11
1.592849
 21
13.041974
 31
0.0
  0
LINE
  5
B0
  8
0
 10
1.592849
 20
13.041974
 30
0.0
 11
1.592849
 21
13.252942
 31
0.0
  0
LINE
  5
B1
  8
0
 10
1.592849
 20
13.252942
 30
0.0
 11
1.592849
 21
13.698103
 31
0.0
  0
LINE
  5
B2
  8
0
 10
1.592849
 20
13.698103
 30
0.0
 11
1.592849
 21
14.605968
 31
0.0
  0
LINE
  5
B3
  8
0
 10
1.592849
 20
14.605968
 30
0.0
 11
1.592849
 21
14.695
 31
0.0
  0
LINE
  5
B4
  8
0
 10
2.092849
 20
0.446
 30
0.0
 11
2.092849
 21
0.446703
 31
0.0
  0
LINE
  5
B5
  8
0
 10
2.092849
 20
0.446
 30
0.0
 11
2.092849
 21
0.446703
 31
0.0
  0
LINE
  5
B6
  8
0
 10
2.092849
 20
0.446703
 30
0.0
 11
2.092849
 21
0.656968
 31
0.0
  0
LINE
  5
B7
  8
0
 10
2.092849
 20
0.656968
 30
0.0
 11
2.092849
 21
1.071561
 31
0.0
  0
LINE
  5
B8
  8
0
 10
2.092849
 20
1.071561
 30
0.0
 11
2.092849
 21
2.127103
 31
0.0
  0
LINE
  5
B9
  8
0
 10
2.092849
 20
2.127103
 30
0.0
 11
2.092849
 21
2.216135
 31
0.0
  0
LINE
  5
BA
  8
0
 10
2.092849
 20
2.216135
 30
0.0
 11
2.092849
 21
2.4264
 31
0.0
  0
LINE
  5
BB
  8
0
 10
2.092849
 20
2.4264
 30
0.0
 11
2.092849
 21
2.871561
 31
0.0
  0
LINE
  5
BC
  8
0
 10
2.092849
 20
2.871561
 30
0.0
 11
2.092849
 21
3.927103
 31
0.0
  0
LINE
  5
BD
  8
0
 10
2.092849
 20
3.927103
 30
0.0
 11
2.092849
 21
4.016135
 31
0.0
  0
LINE
  5
BE
  8
0
 10
2.092849
 20
4.016135
 30
0.0
 11
2.092849
 21
4.2264
 31
0.0
  0
LINE
  5
BF
  8
0
 10
2.092849
 20
4.2264
 30
0.0
 11
2.092849
 21
4.671561
 31
0.0
  0
LINE
  5
C0
  8
0
 10
2.092849
 20
4.671561
 30
0.0
 11
2.092849
 21
5.727103
 31
0.0
  0
LINE
  5
C1
  8
0
 10
2.092849
 20
5.727103
 30
0.0
 11
2.092849
 21
5.816135
 31
0.0
  0
LINE
  5
C2
  8
0
 10
2.092849
 20
5.816135
 30
0.0
 11
2.092849
 21
6.0264
 31
0.0
  0
LINE
  5
C3
  8
0
 10
2.092849
 20
6.0264
 30
0.0
 11
2.092849
 21
6.471561
 31
0.0
  0
LINE
  5
C4
  8
0
 10
2.092849
 20
6.471561
 30
0.0
 11
2.092849
 21
7.527103
 31
0.0
  0
LINE
  5
C5
  8
0
 10
2.092849
 20
7.527103
 30
0.0
 11
2.092849
 21
7.616135
 31
0.0
  0
LINE
  5
C6
  8
0
 10
2.092849
 20
7.616135
 30
0.0
 11
2.092849
 21
7.8264
 31
0.0
  0
LINE
  5
C7
  8
0
 10
2.092849
 20
7.8264
 30
0.0
 11
2.092849
 21
8.271561
 31
0.0
  0
LINE
  5
C8
  8
0
 10
2.092849
 20
8.271561
 30
0.0
 11
2.092849
 21
9.327103
 31
0.0
  0
LINE
  5
C9
  8
0
 10
2.092849
 20
9.327103
 30
0.0
 11
2.092849
 21
9.416135
 31
0.0
  0
LINE
  5
CA
  8
0
 10
2.092849
 20
9.416135
 30
0.0
 11
2.092849
 21
9.6264
 31
0.0
  0
LINE
  5
CB
  8
0
 10
2.092849
 20
9.6264
 30
0.0
 11
2.092849
 21
10.071561
 31
0.0
  0
LINE
  5
CC
  8
0
 10
2.092849
 20
10.071561
 30
0.0
 11
2.092849
 21
11.127103
 31
0.0
  0
LINE
  5
CD
  8
0
 10
2.092849
 20
11.127103
 30
0.0
 11
2.092849
 21
11.216135
 31
0.0
  0
LINE
  5
CE
  8
0
 10
2.092849
 20
11.216135
 30
0.0
 11
2.092849
 21
11.4264
 31
0.0
  0
LINE
  5
CF
  8
0
 10
2.092849
 20
11.4264
 30
0.0
 11
2.092849
 21
11.871561
 31
0.0
  0
LINE
  5
D0
  8
0
 10
2.092849
 20
11.871561
 30
0.0
 11
2.092849
 21
12.927103
 31
0.0
  0
LINE
  5
D1
  8
0
 10
2.092849
 20
12.927103
 30
0.0
 11
2.092849
 21
13.016135
 31
0.0
  0
LINE
  5
D2
  8
0
 10
2.092849
 20
13.016135
 30
0.0
 11
2.092849
 21
13.2264
 31
0.0
  0
LINE
  5
D3
  8
0
 10
2.092849
 20
13.2264
 30
0.0
 11
2.092849
 21
13.671561
 31
0.0
  0
LINE
  5
D4
  8
0
 10
2.092849
 20
13.671561
 30
0.0
 11
2.092849
 21
14.653968
 31
0.0
  0
LINE
  5
D5
  8
0
 10
2.092849
 20
14.653968
 30
0.0
 11
2.092849
 21
14.743
 31
0.0
  0
LINE
  5
D6
  8
0
 10
2.092849
 20
14.743
 30
0.0
 11
2.092849
 21
14.744
 31
0.0
  0
LINE
  5
D7
  8
0
 10
2.592849
 20
0.437
 30
0.0
 11
2.592849
 21
0.647968
 31
0.0
  0
LINE
  5
D8
  8
0
 10
2.592849
 20
0.437
 30
0.0
 11
2.592849
 21
0.647968
 31
0.0
  0
LINE
  5
D9
  8
0
 10
2.592849
 20
0.647968
 30
0.0
 11
2.592849
 21
1.064935
 31
0.0
  0
LINE
  5
DA
  8
0
 10
2.592849
 20
1.064935
 30
0.0
 11
2.592849
 21
2.119774
 31
0.0
  0
LINE
  5
DB
  8
0
 10
2.592849
 20
2.119774
 30
0.0
 11
2.592849
 21
2.20851
 31
0.0
  0
LINE
  5
DC
  8
0
 10
2.592849
 20
2.20851
 30
0.0
 11
2.592849
 21
2.419477
 31
0.0
  0
LINE
  5
DD
  8
0
 10
2.592849
 20
2.419477
 30
0.0
 11
2.592849
 21
2.864935
 31
0.0
  0
LINE
  5
DE
  8
0
 10
2.592849
 20
2.864935
 30
0.0
 11
2.592849
 21
3.919774
 31
0.0
  0
LINE
  5
DF
  8
0
 10
2.592849
 20
3.919774
 30
0.0
 11
2.592849
 21
4.00851
 31
0.0
  0
LINE
  5
E0
  8
0
 10
2.592849
 20
4.00851
 30
0.0
 11
2.592849
 21
4.219477
 31
0.0
  0
LINE
  5
E1
  8
0
 10
2.592849
 20
4.219477
 30
0.0
 11
2.592849
 21
4.664935
 31
0.0
  0
LINE
  5
E2
  8
0
 10
2.592849
 20
4.664935
 30
0.0
 11
2.592849
 21
5.719774
 31
0.0
  0
LINE
  5
E3
  8
0
 10
2.592849
 20
5.719774
 30
0.0
 11
2.592849
 21
5.80851
 31
0.0
  0
LINE
  5
E4
  8
0
 10
2.592849
 20
5.80851
 30
0.0
 11
2.592849
 21
6.019477
 31
0.0
  0
LINE
  5
E5
  8
0
 10
2.592849
 20
6.019477
 30
0.0
 11
2.592849
 21
6.464935
 31
0.0
  0
LINE
  5
E6
  8
0
 10
2.592849
 20
6.464935
 30
0.0
 11
2.592849
 21
7.519774
 31
0.0
  0
LINE
  5
E7
  8
0
 10
2.592849
 20
7.519774
 30
0.0
 11
2.592849
 21
7.60851
 31
0.0
  0
LINE
  5
E8
  8
0
 10
2.592849
 20
7.60851
 30
0.0
 11
2.592849
 21
7.819477
 31
0.0
  0
LINE
  5
E9
  8
0
 10
2.592849
 20
7.819477
 30
0.0
 11
2.592849
 21
8.264935
 31
0.0
  0
LINE
  5
EA
  8
0
 10
2.592849
 20
8.264935
 30
0.0
 11
2.592849
 21
9.319774
 31
0.0
  0
LINE
  5
EB
  8
0
 10
2.592849
 20
9.319774
 30
0.0
 11
2.592849
 21
9.40851
 31
0.0
  0
LINE
  5
EC
  8
0
 10
2.592849
 20
9.40851
 30
0.0
 11
2.592849
 21
9.619477
 31
0.0
  0
LINE
  5
ED
  8
0
 10
2.592849
 20
9.619477
 30
0.0
 11
2.592849
 21
10.064935
 31
0.0
  0
LINE
  5
EE
  8
0
 10
2.592849
 20
10.064935
 30
0.0
 11
2.592849
 21
11.119774
 31
0.0
  0
LINE
  5
EF
  8
0
 10
2.592849
 20
11.119774
 30
0.0
 11
2.592849
 21
11.20851
 31
0.0
  0
LINE
  5
F0
  8
0
 10
2.592849
 20
11.20851
 30
0.0
 11
2.592849
 21
11.419477
 31
0.0
  0
LINE
  5
F1
  8
0
 10
2.592849
 20
11.419477
 30
0.0
 11
2.592849
 21
11.864935
 31
0.0
  0
LINE
  5
F2
  8
0
 10
2.592849
 20
11.864935
 30
0.0
 11
2.592849
 21
12.919774
 31
0.0
  0
LINE
  5
F3
  8
0
 10
2.592849
 20
12.919774
 30
0.0
 11
2.592849
 21
13.00851
 31
0.0
  0
LINE
  5
F4
  8
0
 10
2.592849
 20
13.00851
 30
0.0
 11
2.592849
 21
13.219477
 31
0.0
  0
LINE
  5
F5
  8
0
 10
2.592849
 20
13.219477
 30
0.0
 11
2.592849
 21
13.664935
 31
0.0
  0
LINE
  5
F6
  8
0
 10
2.592849
 20
13.664935
 30
0.0
 11
2.592849
 21
14.652968
 31
0.0
  0
LINE
  5
F7
  8
0
 10
2.592849
 20
14.652968
 30
0.0
 11
2.592849
 21
14.742
 31
0.0
  0
LINE
  5
F8
  8
0
 10
3.092849
 20
0.453
 30
0.0
 11
3.092849
 21
0.663968
 31
0.0
  0
LINE
  5
F9
  8
0
 10
3.092849
 20
0.453
 30
0.0
 11
3.092849
 21
0.663968
 31
0.0
  0
LINE
  5
FA
  8
0
 10
3.092849
 20
0.663968
 30
0.0
 11
3.092849
 21
1.070845
 31
0.0
  0
LINE
  5
FB
  8
0
 10
3.092849
 20
1.070845
 30
0.0
 11
3.092849
 21
2.125684
 31
0.0
  0
LINE
  5
FC
  8
0
 10
3.092849
 20
2.125684
 30
0.0
 11
3.092849
 21
2.214716
 31
0.0
  0
LINE
  5
FD
  8
0
 10
3.092849
 20
2.214716
 30
0.0
 11
3.092849
 21
2.425684
 31
0.0
  0
LINE
  5
FE
  8
0
 10
3.092849
 20
2.425684
 30
0.0
 11
3.092849
 21
2.870845
 31
0.0
  0
LINE
  5
FF
  8
0
 10
3.092849
 20
2.870845
 30
0.0
 11
3.092849
 21
3.925684
 31
0.0
  0
LINE
  5
100
  8
0
 10
3.092849
 20
3.925684
 30
0.0
 11
3.092849
 21
4.014716
 31
0.0
  0
LINE
  5
101
  8
0
 10
3.092849
 20
4.014716
 30
0.0
 11
3.092849
 21
4.225684
 31
0.0
  0
LINE
  5
102
  8
0
 10
3.092849
 20
4.225684
 30
0.0
 11
3.092849
 21
4.670845
 31
0.0
  0
LINE
  5
103
  8
0
 10
3.092849
 20
4.670845
 30
0.0
 11
3.092849
 21
5.725684
 31
0.0
  0
LINE
  5
104
  8
0
 10
3.092849
 20
5.725684
 30
0.0
 11
3.092849
 21
5.814716
 31
0.0
  0
LINE
  5
105
  8
0
 10
3.092849
 20
5.814716
 30
0.0
 11
3.092849
 21
6.025684
 31
0.0
  0
LINE
  5
106
  8
0
 10
3.092849
 20
6.025684
 30
0.0
 11
3.092849
 21
6.470845
 31
0.0
  0
LINE
  5
107
  8
0
 10
3.092849
 20
6.470845
 30
0.0
 11
3.092849
 21
7.525684
 31
0.0
  0
LINE
  5
108
  8
0
 10
3.092849
 20
7.525684
 30
0.0
 11
3.092849
 21
7.614716
 31
0.0
  0
LINE
  5
109
  8
0
 10
3.092849
 20
7.614716
 30
0.0
 11
3.092849
 21
7.825684
 31
0.0
  0
LINE
  5
10A
  8
0
 10
3.092849
 20
7.825684
 30
0.0
 11
3.092849
 21
8.270845
 31
0.0
  0
LINE
  5
10B
  8
0
 10
3.092849
 20
8.270845
 30
0.0
 11
3.092849
 21
9.325684
 31
0.0
  0
LINE
  5
10C
  8
0
 10
3.092849
 20
9.325684
 30
0.0
 11
3.092849
 21
9.414716
 31
0.0
  0
LINE
  5
10D
  8
0
 10
3.092849
 20
9.414716
 30
0.0
 11
3.092849
 21
9.625684
 31
0.0
  0
LINE
  5
10E
  8
0
 10
3.092849
 20
9.625684
 30
0.0
 11
3.092849
 21
10.070845
 31
0.0
  0
LINE
  5
10F
  8
0
 10
3.092849
 20
10.070845
 30
0.0
 11
3.092849
 21
11.125684
 31
0.0
  0
LINE
  5
110
  8
0
 10
3.092849
 20
11.125684
 30
0.0
 11
3.092849
 21
11.214716
 31
0.0
  0
LINE
  5
111
  8
0
 10
3.092849
 20
11.214716
 30
0.0
 11
3.092849
 21
11.425684
 31
0.0
  0
LINE
  5
112
  8
0
 10
3.092849
 20
11.425684
 30
0.0
 11
3.092849
 21
11.870845
 31
0.0
  0
LINE
  5
113
  8
0
 10
3.092849
 20
11.870845
 30
0.0
 11
3.092849
 21
12.925684
 31
0.0
  0
LINE
  5
114
  8
0
 10
3.092849
 20
12.925684
 30
0.0
 11
3.092849
 21
13.014716
 31
0.0
  0
LINE
  5
115
  8
0
 10
3.092849
 20
13.014716
 30
0.0
 11
3.092849
 21
13.225684
 31
0.0
  0
LINE
  5
116
  8
0
 10
3.092849
 20
13.225684
 30
0.0
 11
3.092849
 21
13.670845
 31
0.0
  0
LINE
  5
117
  8
0
 10
3.092849
 20
13.670845
 30
0.0
 11
3.092849
 21
14.634968
 31
0.0
  0
LINE
  5
118
  8
0
 10
3.092849
 20
14.634968
 30
0.0
 11
3.092849
 21
14.724
 31
0.0
  0
LINE
  5
119
  8
0
 10
3.592849
 20
0.469
 30
0.0
 11
3.592849
 21
0.679968
 31
0.0
  0
LINE
  5
11A
  8
0
 10
3.592849
 20
0.469
 30
0.0
 11
3.592849
 21
0.679968
 31
0.0
  0
LINE
  5
11B
  8
0
 10
3.592849
 20
0.679968
 30
0.0
 11
3.592849
 21
1.077052
 31
0.0
  0
LINE
  5
11C
  8
0
 10
3.592849
 20
1.077052
 30
0.0
 11
3.592849
 21
2.13189
 31
0.0
  0
LINE
  5
11D
  8
0
 10
3.592849
 20
2.13189
 30
0.0
 11
3.592849
 21
2.220923
 31
0.0
  0
LINE
  5
11E
  8
0
 10
3.592849
 20
2.220923
 30
0.0
 11
3.592849
 21
2.43189
 31
0.0
  0
LINE
  5
11F
  8
0
 10
3.592849
 20
2.43189
 30
0.0
 11
3.592849
 21
2.877052
 31
0.0
  0
LINE
  5
120
  8
0
 10
3.592849
 20
2.877052
 30
0.0
 11
3.592849
 21
3.93189
 31
0.0
  0
LINE
  5
121
  8
0
 10
3.592849
 20
3.93189
 30
0.0
 11
3.592849
 21
4.020923
 31
0.0
  0
LINE
  5
122
  8
0
 10
3.592849
 20
4.020923
 30
0.0
 11
3.592849
 21
4.23189
 31
0.0
  0
LINE
  5
123
  8
0
 10
3.592849
 20
4.23189
 30
0.0
 11
3.592849
 21
4.677052
 31
0.0
  0
LINE
  5
124
  8
0
 10
3.592849
 20
4.677052
 30
0.0
 11
3.592849
 21
5.73189
 31
0.0
  0
LINE
  5
125
  8
0
 10
3.592849
 20
5.73189
 30
0.0
 11
3.592849
 21
5.820923
 31
0.0
  0
LINE
  5
126
  8
0
 10
3.592849
 20
5.820923
 30
0.0
 11
3.592849
 21
6.03189
 31
0.0
  0
LINE
  5
127
  8
0
 10
3.592849
 20
6.03189
 30
0.0
 11
3.592849
 21
6.477052
 31
0.0
  0
LINE
  5
128
  8
0
 10
3.592849
 20
6.477052
 30
0.0
 11
3.592849
 21
7.53189
 31
0.0
  0
LINE
  5
129
  8
0
 10
3.592849
 20
7.53189
 30
0.0
 11
3.592849
 21
7.620923
 31
0.0
  0
LINE
  5
12A
  8
0
 10
3.592849
 20
7.620923
 30
0.0
 11
3.592849
 21
7.83189
 31
0.0
  0
LINE
  5
12B
  8
0
 10
3.592849
 20
7.83189
 30
0.0
 11
3.592849
 21
8.277052
 31
0.0
  0
LINE
  5
12C
  8
0
 10
3.592849
 20
8.277052
 30
0.0
 11
3.592849
 21
9.33189
 31
0.0
  0
LINE
  5
12D
  8
0
 10
3.592849
 20
9.33189
 30
0.0
 11
3.592849
 21
9.420923
 31
0.0
  0
LINE
  5
12E
  8
0
 10
3.592849
 20
9.420923
 30
0.0
 11
3.592849
 21
9.63189
 31
0.0
  0
LINE
  5
12F
  8
0
 10
3.592849
 20
9.63189
 30
0.0
 11
3.592849
 21
10.077052
 31
0.0
  0
LINE
  5
130
  8
0
 10
3.592849
 20
10.077052
 30
0.0
 11
3.592849
 21
11.13189
 31
0.0
  0
LINE
  5
131
  8
0
 10
3.592849
 20
11.13189
 30
0.0
 11
3.592849
 21
11.220923
 31
0.0
  0
LINE
  5
132
  8
0
 10
3.592849
 20
11.220923
 30
0.0
 11
3.592849
 21
11.43189
 31
0.0
  0
LINE
  5
133
  8
0
 10
3.592849
 20
11.43189
 30
0.0
 11
3.592849
 21
11.877052
 31
0.0
  0
LINE
  5
134
  8
0
 10
3.592849
 20
11.877052
 30
0.0
 11
3.592849
 21
12.93189
 31
0.0
  0
LINE
  5
135
  8
0
 10
3.592849
 20
12.93189
 30
0.0
 11
3.592849
 21
13.020923
 31
0.0
  0
LINE
  5
136
  8
0
 10
3.592849
 20
13.020923
 30
0.0
 11
3.592849
 21
13.23189
 31
0.0
  0
LINE
  5
137
  8
0
 10
3.592849
 20
13.23189
 30
0.0
 11
3.592849
 21
13.677052
 31
0.0
  0
LINE
  5
138
  8
0
 10
3.592849
 20
13.677052
 30
0.0
 11
3.592849
 21
14.617968
 31
0.0
  0
LINE
  5
139
  8
0
 10
3.592849
 20
14.617968
 30
0.0
 11
3.592849
 21
14.707
 31
0.0
  0
LINE
  5
13A
  8
0
 10
4.092849
 20
0.484
 30
0.0
 11
4.092849
 21
0.694968
 31
0.0
  0
LINE
  5
13B
  8
0
 10
4.092849
 20
0.484
 30
0.0
 11
4.092849
 21
0.694968
 31
0.0
  0
LINE
  5
13C
  8
0
 10
4.092849
 20
0.694968
 30
0.0
 11
4.092849
 21
1.082258
 31
0.0
  0
LINE
  5
13D
  8
0
 10
4.092849
 20
1.082258
 30
0.0
 11
4.092849
 21
2.1378
 31
0.0
  0
LINE
  5
13E
  8
0
 10
4.092849
 20
2.1378
 30
0.0
 11
4.092849
 21
2.226832
 31
0.0
  0
LINE
  5
13F
  8
0
 10
4.092849
 20
2.226832
 30
0.0
 11
4.092849
 21
2.437097
 31
0.0
  0
LINE
  5
140
  8
0
 10
4.092849
 20
2.437097
 30
0.0
 11
4.092849
 21
2.882258
 31
0.0
  0
LINE
  5
141
  8
0
 10
4.092849
 20
2.882258
 30
0.0
 11
4.092849
 21
3.9378
 31
0.0
  0
LINE
  5
142
  8
0
 10
4.092849
 20
3.9378
 30
0.0
 11
4.092849
 21
4.026832
 31
0.0
  0
LINE
  5
143
  8
0
 10
4.092849
 20
4.026832
 30
0.0
 11
4.092849
 21
4.237097
 31
0.0
  0
LINE
  5
144
  8
0
 10
4.092849
 20
4.237097
 30
0.0
 11
4.092849
 21
4.682258
 31
0.0
  0
LINE
  5
145
  8
0
 10
4.092849
 20
4.682258
 30
0.0
 11
4.092849
 21
5.7378
 31
0.0
  0
LINE
  5
146
  8
0
 10
4.092849
 20
5.7378
 30
0.0
 11
4.092849
 21
5.826832
 31
0.0
  0
LINE
  5
147
  8
0
 10
4.092849
 20
5.826832
 30
0.0
 11
4.092849
 21
6.037097
 31
0.0
  0
LINE
  5
148
  8
0
 10
4.092849
 20
6.037097
 30
0.0
 11
4.092849
 21
6.482258
 31
0.0
  0
LINE
  5
149
  8
0
 10
4.092849
 20
6.482258
 30
0.0
 11
4.092849
 21
7.5378
 31
0.0
  0
LINE
  5
14A
  8
0
 10
4.092849
 20
7.5378
 30
0.0
 11
4.092849
 21
7.626832
 31
0.0
  0
LINE
  5
14B
  8
0
 10
4.092849
 20
7.626832
 30
0.0
 11
4.092849
 21
7.837097
 31
0.0
  0
LINE
  5
14C
  8
0
 10
4.092849
 20
7.837097
 30
0.0
 11
4.092849
 21
8.282258
 31
0.0
  0
LINE
  5
14D
  8
0
 10
4.092849
 20
8.282258
 30
0.0
 11
4.092849
 21
9.3378
 31
0.0
  0
LINE
  5
14E
  8
0
 10
4.092849
 20
9.3378
 30
0.0
 11
4.092849
 21
9.426832
 31
0.0
  0
LINE
  5
14F
  8
0
 10
4.092849
 20
9.426832
 30
0.0
 11
4.092849
 21
9.637097
 31
0.0
  0
LINE
  5
150
  8
0
 10
4.092849
 20
9.637097
 30
0.0
 11
4.092849
 21
10.082258
 31
0.0
  0
LINE
  5
151
  8
0
 10
4.092849
 20
10.082258
 30
0.0
 11
4.092849
 21
11.1378
 31
0.0
  0
LINE
  5
152
  8
0
 10
4.092849
 20
11.1378
 30
0.0
 11
4.092849
 21
11.226832
 31
0.0
  0
LINE
  5
153
  8
0
 10
4.092849
 20
11.226832
 30
0.0
 11
4.092849
 21
11.437097
 31
0.0
  0
LINE
  5
154
  8
0
 10
4.092849
 20
11.437097
 30
0.0
 11
4.092849
 21
11.882258
 31
0.0
  0
LINE
  5
155
  8
0
 10
4.092849
 20
11.882258
 30
0.0
 11
4.092849
 21
12.9378
 31
0.0
  0
LINE
  5
156
  8
0
 10
4.092849
 20
12.9378
 30
0.0
 11
4.092849
 21
13.026832
 31
0.0
  0
LINE
  5
157
  8
0
 10
4.092849
 20
13.026832
 30
0.0
 11
4.092849
 21
13.237097
 31
0.0
  0
LINE
  5
158
  8
0
 10
4.092849
 20
13.237097
 30
0.0
 11
4.092849
 21
13.682258
 31
0.0
  0
LINE
  5
159
  8
0
 10
4.092849
 20
13.682258
 30
0.0
 11
4.092849
 21
14.600671
 31
0.0
  0
LINE
  5
15A
  8
0
 10
4.092849
 20
14.600671
 30
0.0
 11
4.092849
 21
14.689703
 31
0.0
  0
LINE
  5
15B
  8
0
 10
4.592849
 20
0.5
 30
0.0
 11
4.592849
 21
0.710968
 31
0.0
  0
LINE
  5
15C
  8
0
 10
4.592849
 20
0.5
 30
0.0
 11
4.592849
 21
0.710968
 31
0.0
  0
LINE
  5
15D
  8
0
 10
4.592849
 20
0.710968
 30
0.0
 11
4.592849
 21
1.088465
 31
0.0
  0
LINE
  5
15E
  8
0
 10
4.592849
 20
1.088465
 30
0.0
 11
4.592849
 21
2.143303
 31
0.0
  0
LINE
  5
15F
  8
0
 10
4.592849
 20
2.143303
 30
0.0
 11
4.592849
 21
2.232335
 31
0.0
  0
LINE
  5
160
  8
0
 10
4.592849
 20
2.232335
 30
0.0
 11
4.592849
 21
2.443303
 31
0.0
  0
LINE
  5
161
  8
0
 10
4.592849
 20
2.443303
 30
0.0
 11
4.592849
 21
2.888465
 31
0.0
  0
LINE
  5
162
  8
0
 10
4.592849
 20
2.888465
 30
0.0
 11
4.592849
 21
3.943303
 31
0.0
  0
LINE
  5
163
  8
0
 10
4.592849
 20
3.943303
 30
0.0
 11
4.592849
 21
4.032335
 31
0.0
  0
LINE
  5
164
  8
0
 10
4.592849
 20
4.032335
 30
0.0
 11
4.592849
 21
4.243303
 31
0.0
  0
LINE
  5
165
  8
0
 10
4.592849
 20
4.243303
 30
0.0
 11
4.592849
 21
4.688465
 31
0.0
  0
LINE
  5
166
  8
0
 10
4.592849
 20
4.688465
 30
0.0
 11
4.592849
 21
5.743303
 31
0.0
  0
LINE
  5
167
  8
0
 10
4.592849
 20
5.743303
 30
0.0
 11
4.592849
 21
5.832335
 31
0.0
  0
LINE
  5
168
  8
0
 10
4.592849
 20
5.832335
 30
0.0
 11
4.592849
 21
6.043303
 31
0.0
  0
LINE
  5
169
  8
0
 10
4.592849
 20
6.043303
 30
0.0
 11
4.592849
 21
6.488465
 31
0.0
  0
LINE
  5
16A
  8
0
 10
4.592849
 20
6.488465
 30
0.0
 11
4.592849
 21
7.543303
 31
0.0
  0
LINE
  5
16B
  8
0
 10
4.592849
 20
7.543303
 30
0.0
 11
4.592849
 21
7.632335
 31
0.0
  0
LINE
  5
16C
  8
0
 10
4.592849
 20
7.632335
 30
0.0
 11
4.592849
 21
7.843303
 31
0.0
  0
LINE
  5
16D
  8
0
 10
4.592849
 20
7.843303
 30
0.0
 11
4.592849
 21
8.288465
 31
0.0
  0
LINE
  5
16E
  8
0
 10
4.592849
 20
8.288465
 30
0.0
 11
4.592849
 21
9.343303
 31
0.0
  0
LINE
  5
16F
  8
0
 10
4.592849
 20
9.343303
 30
0.0
 11
4.592849
 21
9.432335
 31
0.0
  0
LINE
  5
170
  8
0
 10
4.592849
 20
9.432335
 30
0.0
 11
4.592849
 21
9.643303
 31
0.0
  0
LINE
  5
171
  8
0
 10
4.592849
 20
9.643303
 30
0.0
 11
4.592849
 21
10.088465
 31
0.0
  0
LINE
  5
172
  8
0
 10
4.592849
 20
10.088465
 30
0.0
 11
4.592849
 21
11.143303
 31
0.0
  0
LINE
  5
173
  8
0
 10
4.592849
 20
11.143303
 30
0.0
 11
4.592849
 21
11.232335
 31
0.0
  0
LINE
  5
174
  8
0
 10
4.592849
 20
11.232335
 30
0.0
 11
4.592849
 21
11.443303
 31
0.0
  0
LINE
  5
175
  8
0
 10
4.592849
 20
11.443303
 30
0.0
 11
4.592849
 21
11.888465
 31
0.0
  0
LINE
  5
176
  8
0
 10
4.592849
 20
11.888465
 30
0.0
 11
4.592849
 21
12.943303
 31
0.0
  0
LINE
  5
177
  8
0
 10
4.592849
 20
12.943303
 30
0.0
 11
4.592849
 21
13.032335
 31
0.0
  0
LINE
  5
178
  8
0
 10
4.592849
 20
13.032335
 30
0.0
 11
4.592849
 21
13.243303
 31
0.0
  0
LINE
  5
179
  8
0
 10
4.592849
 20
13.243303
 30
0.0
 11
4.592849
 21
13.688465
 31
0.0
  0
LINE
  5
17A
  8
0
 10
4.592849
 20
13.688465
 30
0.0
 11
4.592849
 21
14.582968
 31
0.0
  0
LINE
  5
17B
  8
0
 10
4.592849
 20
14.582968
 30
0.0
 11
4.592849
 21
14.672
 31
0.0
  0
LINE
  5
17C
  8
0
 10
5.092849
 20
0.516
 30
0.0
 11
5.092849
 21
0.726968
 31
0.0
  0
LINE
  5
17D
  8
0
 10
5.092849
 20
0.516
 30
0.0
 11
5.092849
 21
0.726968
 31
0.0
  0
LINE
  5
17E
  8
0
 10
5.092849
 20
0.726968
 30
0.0
 11
5.092849
 21
1.094671
 31
0.0
  0
LINE
  5
17F
  8
0
 10
5.092849
 20
1.094671
 30
0.0
 11
5.092849
 21
2.14951
 31
0.0
  0
LINE
  5
180
  8
0
 10
5.092849
 20
2.14951
 30
0.0
 11
5.092849
 21
2.238542
 31
0.0
  0
LINE
  5
181
  8
0
 10
5.092849
 20
2.238542
 30
0.0
 11
5.092849
 21
2.44951
 31
0.0
  0
LINE
  5
182
  8
0
 10
5.092849
 20
2.44951
 30
0.0
 11
5.092849
 21
2.894671
 31
0.0
  0
LINE
  5
183
  8
0
 10
5.092849
 20
2.894671
 30
0.0
 11
5.092849
 21
3.94951
 31
0.0
  0
LINE
  5
184
  8
0
 10
5.092849
 20
3.94951
 30
0.0
 11
5.092849
 21
4.038542
 31
0.0
  0
LINE
  5
185
  8
0
 10
5.092849
 20
4.038542
 30
0.0
 11
5.092849
 21
4.24951
 31
0.0
  0
LINE
  5
186
  8
0
 10
5.092849
 20
4.24951
 30
0.0
 11
5.092849
 21
4.694671
 31
0.0
  0
LINE
  5
187
  8
0
 10
5.092849
 20
4.694671
 30
0.0
 11
5.092849
 21
5.74951
 31
0.0
  0
LINE
  5
188
  8
0
 10
5.092849
 20
5.74951
 30
0.0
 11
5.092849
 21
5.838542
 31
0.0
  0
LINE
  5
189
  8
0
 10
5.092849
 20
5.838542
 30
0.0
 11
5.092849
 21
6.04951
 31
0.0
  0
LINE
  5
18A
  8
0
 10
5.092849
 20
6.04951
 30
0.0
 11
5.092849
 21
6.494671
 31
0.0
  0
LINE
  5
18B
  8
0
 10
5.092849
 20
6.494671
 30
0.0
 11
5.092849
 21
7.54951
 31
0.0
  0
LINE
  5
18C
  8
0
 10
5.092849
 20
7.54951
 30
0.0
 11
5.092849
 21
7.638542
 31
0.0
  0
LINE
  5
18D
  8
0
 10
5.092849
 20
7.638542
 30
0.0
 11
5.092849
 21
7.84951
 31
0.0
  0
LINE
  5
18E
  8
0
 10
5.092849
 20
7.84951
 30
0.0
 11
5.092849
 21
8.294671
 31
0.0
  0
LINE
  5
18F
  8
0
 10
5.092849
 20
8.294671
 30
0.0
 11
5.092849
 21
9.34951
 31
0.0
  0
LINE
  5
190
  8
0
 10
5.092849
 20
9.34951
 30
0.0
 11
5.092849
 21
9.438542
 31
0.0
  0
LINE
  5
191
  8
0
 10
5.092849
 20
9.438542
 30
0.0
 11
5.092849
 21
9.64951
 31
0.0
  0
LINE
  5
192
  8
0
 10
5.092849
 20
9.64951
 30
0.0
 11
5.092849
 21
10.094671
 31
0.0
  0
LINE
  5
193
  8
0
 10
5.092849
 20
10.094671
 30
0.0
 11
5.092849
 21
11.14951
 31
0.0
  0
LINE
  5
194
  8
0
 10
5.092849
 20
11.14951
 30
0.0
 11
5.092849
 21
11.238542
 31
0.0
  0
LINE
  5
195
  8
0
 10
5.092849
 20
11.238542
 30
0.0
 11
5.092849
 21
11.44951
 31
0.0
  0
LINE
  5
196
  8
0
 10
5.092849
 20
11.44951
 30
0.0
 11
5.092849
 21
11.894671
 31
0.0
  0
LINE
  5
197
  8
0
 10
5.092849
 20
11.894671
 30
0.0
 11
5.092849
 21
12.94951
 31
0.0
  0
LINE
  5
198
  8
0
 10
5.092849
 20
12.94951
 30
0.0
 11
5.092849
 21
13.038542
 31
0.0
  0
LINE
  5
199
  8
0
 10
5.092849
 20
13.038542
 30
0.0
 11
5.092849
 21
13.24951
 31
0.0
  0
LINE
  5
19A
  8
0
 10
5.092849
 20
13.24951
 30
0.0
 11
5.092849
 21
13.694671
 31
0.0
  0
LINE
  5
19B
  8
0
 10
5.092849
 20
13.694671
 30
0.0
 11
5.092849
 21
14.565968
 31
0.0
  0
LINE
  5
19C
  8
0
 10
5.092849
 20
14.565968
 30
0.0
 11
5.092849
 21
14.655
 31
0.0
  0
LINE
  5
19D
  8
0
 10
5.592849
 20
0.532
 30
0.0
 11
5.592849
 21
0.742968
 31
0.0
  0
LINE
  5
19E
  8
0
 10
5.592849
 20
0.532
 30
0.0
 11
5.592849
 21
0.742968
 31
0.0
  0
LINE
  5
19F
  8
0
 10
5.592849
 20
0.742968
 30
0.0
 11
5.592849
 21
1.100581
 31
0.0
  0
LINE
  5
1A0
  8
0
 10
5.592849
 20
1.100581
 30
0.0
 11
5.592849
 21
2.155419
 31
0.0
  0
LINE
  5
1A1
  8
0
 10
5.592849
 20
2.155419
 30
0.0
 11
5.592849
 21
2.244452
 31
0.0
  0
LINE
  5
1A2
  8
0
 10
5.592849
 20
2.244452
 30
0.0
 11
5.592849
 21
2.455419
 31
0.0
  0
LINE
  5
1A3
  8
0
 10
5.592849
 20
2.455419
 30
0.0
 11
5.592849
 21
2.900581
 31
0.0
  0
LINE
  5
1A4
  8
0
 10
5.592849
 20
2.900581
 30
0.0
 11
5.592849
 21
3.955419
 31
0.0
  0
LINE
  5
1A5
  8
0
 10
5.592849
 20
3.955419
 30
0.0
 11
5.592849
 21
4.044452
 31
0.0
  0
LINE
  5
1A6
  8
0
 10
5.592849
 20
4.044452
 30
0.0
 11
5.592849
 21
4.255419
 31
0.0
  0
LINE
  5
1A7
  8
0
 10
5.592849
 20
4.255419
 30
0.0
 11
5.592849
 21
4.700581
 31
0.0
  0
LINE
  5
1A8
  8
0
 10
5.592849
 20
4.700581
 30
0.0
 11
5.592849
 21
5.755419
 31
0.0
  0
LINE
  5
1A9
  8
0
 10
5.592849
 20
5.755419
 30
0.0
 11
5.592849
 21
5.844452
 31
0.0
  0
LINE
  5
1AA
  8
0
 10
5.592849
 20
5.844452
 30
0.0
 11
5.592849
 21
6.055419
 31
0.0
  0
LINE
  5
1AB
  8
0
 10
5.592849
 20
6.055419
 30
0.0
 11
5.592849
 21
6.500581
 31
0.0
  0
LINE
  5
1AC
  8
0
 10
5.592849
 20
6.500581
 30
0.0
 11
5.592849
 21
7.555419
 31
0.0
  0
LINE
  5
1AD
  8
0
 10
5.592849
 20
7.555419
 30
0.0
 11
5.592849
 21
7.644452
 31
0.0
  0
LINE
  5
1AE
  8
0
 10
5.592849
 20
7.644452
 30
0.0
 11
5.592849
 21
7.855419
 31
0.0
  0
LINE
  5
1AF
  8
0
 10
5.592849
 20
7.855419
 30
0.0
 11
5.592849
 21
8.300581
 31
0.0
  0
LINE
  5
1B0
  8
0
 10
5.592849
 20
8.300581
 30
0.0
 11
5.592849
 21
9.355419
 31
0.0
  0
LINE
  5
1B1
  8
0
 10
5.592849
 20
9.355419
 30
0.0
 11
5.592849
 21
9.444452
 31
0.0
  0
LINE
  5
1B2
  8
0
 10
5.592849
 20
9.444452
 30
0.0
 11
5.592849
 21
9.655419
 31
0.0
  0
LINE
  5
1B3
  8
0
 10
5.592849
 20
9.655419
 30
0.0
 11
5.592849
 21
10.100581
 31
0.0
  0
LINE
  5
1B4
  8
0
 10
5.592849
 20
10.100581
 30
0.0
 11
5.592849
 21
11.155419
 31
0.0
  0
LINE
  5
1B5
  8
0
 10
5.592849
 20
11.155419
 30
0.0
 11
5.592849
 21
11.244452
 31
0.0
  0
LINE
  5
1B6
  8
0
 10
5.592849
 20
11.244452
 30
0.0
 11
5.592849
 21
11.455419
 31
0.0
  0
LINE
  5
1B7
  8
0
 10
5.592849
 20
11.455419
 30
0.0
 11
5.592849
 21
11.900581
 31
0.0
  0
LINE
  5
1B8
  8
0
 10
5.592849
 20
11.900581
 30
0.0
 11
5.592849
 21
12.955419
 31
0.0
  0
LINE
  5
1B9
  8
0
 10
5.592849
 20
12.955419
 30
0.0
 11
5.592849
 21
13.044452
 31
0.0
  0
LINE
  5
1BA
  8
0
 10
5.592849
 20
13.044452
 30
0.0
 11
5.592849
 21
13.255419
 31
0.0
  0
LINE
  5
1BB
  8
0
 10
5.592849
 20
13.255419
 30
0.0
 11
5.592849
 21
13.700581
 31
0.0
  0
LINE
  5
1BC
  8
0
 10
5.592849
 20
13.700581
 30
0.0
 11
5.592849
 21
14.547968
 31
0.0
  0
LINE
  5
1BD
  8
0
 10
5.592849
 20
14.547968
 30
0.0
 11
5.592849
 21
14.637
 31
0.0
  0
LINE
  5
1BE
  8
0
 10
6.092849
 20
0.548
 30
0.0
 11
6.092849
 21
0.758968
 31
0.0
  0
LINE
  5
1BF
  8
0
 10
6.092849
 20
0.548
 30
0.0
 11
6.092849
 21
0.758968
 31
0.0
  0
LINE
  5
1C0
  8
0
 10
6.092849
 20
0.758968
 30
0.0
 11
6.092849
 21
1.108271
 31
0.0
  0
LINE
  5
1C1
  8
0
 10
6.092849
 20
1.108271
 30
0.0
 11
6.092849
 21
2.16311
 31
0.0
  0
LINE
  5
1C2
  8
0
 10
6.092849
 20
2.16311
 30
0.0
 11
6.092849
 21
2.252142
 31
0.0
  0
LINE
  5
1C3
  8
0
 10
6.092849
 20
2.252142
 30
0.0
 11
6.092849
 21
2.46311
 31
0.0
  0
LINE
  5
1C4
  8
0
 10
6.092849
 20
2.46311
 30
0.0
 11
6.092849
 21
2.908271
 31
0.0
  0
LINE
  5
1C5
  8
0
 10
6.092849
 20
2.908271
 30
0.0
 11
6.092849
 21
3.96311
 31
0.0
  0
LINE
  5
1C6
  8
0
 10
6.092849
 20
3.96311
 30
0.0
 11
6.092849
 21
4.052142
 31
0.0
  0
LINE
  5
1C7
  8
0
 10
6.092849
 20
4.052142
 30
0.0
 11
6.092849
 21
4.26311
 31
0.0
  0
LINE
  5
1C8
  8
0
 10
6.092849
 20
4.26311
 30
0.0
 11
6.092849
 21
4.708271
 31
0.0
  0
LINE
  5
1C9
  8
0
 10
6.092849
 20
4.708271
 30
0.0
 11
6.092849
 21
5.76311
 31
0.0
  0
LINE
  5
1CA
  8
0
 10
6.092849
 20
5.76311
 30
0.0
 11
6.092849
 21
5.852142
 31
0.0
  0
LINE
  5
1CB
  8
0
 10
6.092849
 20
5.852142
 30
0.0
 11
6.092849
 21
6.06311
 31
0.0
  0
LINE
  5
1CC
  8
0
 10
6.092849
 20
6.06311
 30
0.0
 11
6.092849
 21
6.508271
 31
0.0
  0
LINE
  5
1CD
  8
0
 10
6.092849
 20
6.508271
 30
0.0
 11
6.092849
 21
7.56311
 31
0.0
  0
LINE
  5
1CE
  8
0
 10
6.092849
 20
7.56311
 30
0.0
 11
6.092849
 21
7.652142
 31
0.0
  0
LINE
  5
1CF
  8
0
 10
6.092849
 20
7.652142
 30
0.0
 11
6.092849
 21
7.86311
 31
0.0
  0
LINE
  5
1D0
  8
0
 10
6.092849
 20
7.86311
 30
0.0
 11
6.092849
 21
8.308271
 31
0.0
  0
LINE
  5
1D1
  8
0
 10
6.092849
 20
8.308271
 30
0.0
 11
6.092849
 21
9.36311
 31
0.0
  0
LINE
  5
1D2
  8
0
 10
6.092849
 20
9.36311
 30
0.0
 11
6.092849
 21
9.452142
 31
0.0
  0
LINE
  5
1D3
  8
0
 10
6.092849
 20
9.452142
 30
0.0
 11
6.092849
 21
9.66311
 31
0.0
  0
LINE
  5
1D4
  8
0
 10
6.092849
 20
9.66311
 30
0.0
 11
6.092849
 21
10.108271
 31
0.0
  0
LINE
  5
1D5
  8
0
 10
6.092849
 20
10.108271
 30
0.0
 11
6.092849
 21
11.16311
 31
0.0
  0
LINE
  5
1D6
  8
0
 10
6.092849
 20
11.16311
 30
0.0
 11
6.092849
 21
11.252142
 31
0.0
  0
LINE
  5
1D7
  8
0
 10
6.092849
 20
11.252142
 30
0.0
 11
6.092849
 21
11.46311
 31
0.0
  0
LINE
  5
1D8
  8
0
 10
6.092849
 20
11.46311
 30
0.0
 11
6.092849
 21
11.908271
 31
0.0
  0
LINE
  5
1D9
  8
0
 10
6.092849
 20
11.908271
 30
0.0
 11
6.092849
 21
12.96311
 31
0.0
  0
LINE
  5
1DA
  8
0
 10
6.092849
 20
12.96311
 30
0.0
 11
6.092849
 21
13.052142
 31
0.0
  0
LINE
  5
1DB
  8
0
 10
6.092849
 20
13.052142
 30
0.0
 11
6.092849
 21
13.26311
 31
0.0
  0
LINE
  5
1DC
  8
0
 10
6.092849
 20
13.26311
 30
0.0
 11
6.092849
 21
13.708271
 31
0.0
  0
LINE
  5
1DD
  8
0
 10
6.092849
 20
13.708271
 30
0.0
 11
6.092849
 21
14.535968
 31
0.0
  0
LINE
  5
1DE
  8
0
 10
6.092849
 20
14.535968
 30
0.0
 11
6.092849
 21
14.625
 31
0.0
  0
LINE
  5
1DF
  8
0
 10
6.592849
 20
0.563
 30
0.0
 11
6.592849
 21
0.563703
 31
0.0
  0
LINE
  5
1E0
  8
0
 10
6.592849
 20
0.563
 30
0.0
 11
6.592849
 21
0.563703
 31
0.0
  0
LINE
  5
1E1
  8
0
 10
6.592849
 20
0.563703
 30
0.0
 11
6.592849
 21
0.773968
 31
0.0
  0
LINE
  5
1E2
  8
0
 10
6.592849
 20
0.773968
 30
0.0
 11
6.592849
 21
1.119116
 31
0.0
  0
LINE
  5
1E3
  8
0
 10
6.592849
 20
1.119116
 30
0.0
 11
6.592849
 21
2.174658
 31
0.0
  0
LINE
  5
1E4
  8
0
 10
6.592849
 20
2.174658
 30
0.0
 11
6.592849
 21
2.26369
 31
0.0
  0
LINE
  5
1E5
  8
0
 10
6.592849
 20
2.26369
 30
0.0
 11
6.592849
 21
2.473955
 31
0.0
  0
LINE
  5
1E6
  8
0
 10
6.592849
 20
2.473955
 30
0.0
 11
6.592849
 21
2.919116
 31
0.0
  0
LINE
  5
1E7
  8
0
 10
6.592849
 20
2.919116
 30
0.0
 11
6.592849
 21
3.974658
 31
0.0
  0
LINE
  5
1E8
  8
0
 10
6.592849
 20
3.974658
 30
0.0
 11
6.592849
 21
4.06369
 31
0.0
  0
LINE
  5
1E9
  8
0
 10
6.592849
 20
4.06369
 30
0.0
 11
6.592849
 21
4.273955
 31
0.0
  0
LINE
  5
1EA
  8
0
 10
6.592849
 20
4.273955
 30
0.0
 11
6.592849
 21
4.719116
 31
0.0
  0
LINE
  5
1EB
  8
0
 10
6.592849
 20
4.719116
 30
0.0
 11
6.592849
 21
5.774658
 31
0.0
  0
LINE
  5
1EC
  8
0
 10
6.592849
 20
5.774658
 30
0.0
 11
6.592849
 21
5.86369
 31
0.0
  0
LINE
  5
1ED
  8
0
 10
6.592849
 20
5.86369
 30
0.0
 11
6.592849
 21
6.073955
 31
0.0
  0
LINE
  5
1EE
  8
0
 10
6.592849
 20
6.073955
 30
0.0
 11
6.592849
 21
6.519116
 31
0.0
  0
LINE
  5
1EF
  8
0
 10
6.592849
 20
6.519116
 30
0.0
 11
6.592849
 21
7.574658
 31
0.0
  0
LINE
  5
1F0
  8
0
 10
6.592849
 20
7.574658
 30
0.0
 11
6.592849
 21
7.66369
 31
0.0
  0
LINE
  5
1F1
  8
0
 10
6.592849
 20
7.66369
 30
0.0
 11
6.592849
 21
7.873955
 31
0.0
  0
LINE
  5
1F2
  8
0
 10
6.592849
 20
7.873955
 30
0.0
 11
6.592849
 21
8.319116
 31
0.0
  0
LINE
  5
1F3
  8
0
 10
6.592849
 20
8.319116
 30
0.0
 11
6.592849
 21
9.374658
 31
0.0
  0
LINE
  5
1F4
  8
0
 10
6.592849
 20
9.374658
 30
0.0
 11
6.592849
 21
9.46369
 31
0.0
  0
LINE
  5
1F5
  8
0
 10
6.592849
 20
9.46369
 30
0.0
 11
6.592849
 21
9.673955
 31
0.0
  0
LINE
  5
1F6
  8
0
 10
6.592849
 20
9.673955
 30
0.0
 11
6.592849
 21
10.119116
 31
0.0
  0
LINE
  5
1F7
  8
0
 10
6.592849
 20
10.119116
 30
0.0
 11
6.592849
 21
11.174658
 31
0.0
  0
LINE
  5
1F8
  8
0
 10
6.592849
 20
11.174658
 30
0.0
 11
6.592849
 21
11.26369
 31
0.0
  0
LINE
  5
1F9
  8
0
 10
6.592849
 20
11.26369
 30
0.0
 11
6.592849
 21
11.473955
 31
0.0
  0
LINE
  5
1FA
  8
0
 10
6.592849
 20
11.473955
 30
0.0
 11
6.592849
 21
11.919116
 31
0.0
  0
LINE
  5
1FB
  8
0
 10
6.592849
 20
11.919116
 30
0.0
 11
6.592849
 21
12.974658
 31
0.0
  0
LINE
  5
1FC
  8
0
 10
6.592849
 20
12.974658
 30
0.0
 11
6.592849
 21
13.06369
 31
0.0
  0
LINE
  5
1FD
  8
0
 10
6.592849
 20
13.06369
 30
0.0
 11
6.592849
 21
13.273955
 31
0.0
  0
LINE
  5
1FE
  8
0
 10
6.592849
 20
13.273955
 30
0.0
 11
6.592849
 21
13.719116
 31
0.0
  0
LINE
  5
1FF
  8
0
 10
6.592849
 20
13.719116
 30
0.0
 11
6.592849
 21
14.536968
 31
0.0
  0
LINE
  5
200
  8
0
 10
6.592849
 20
14.536968
 30
0.0
 11
6.592849
 21
14.626
 31
0.0
  0
LINE
  5
201
  8
0
 10
7.092849
 20
0.579
 30
0.0
 11
7.092849
 21
0.789968
 31
0.0
  0
LINE
  5
202
  8
0
 10
7.092849
 20
0.579
 30
0.0
 11
7.092849
 21
0.789968
 31
0.0
  0
LINE
  5
203
  8
0
 10
7.092849
 20
0.789968
 30
0.0
 11
7.092849
 21
1.130665
 31
0.0
  0
LINE
  5
204
  8
0
 10
7.092849
 20
1.130665
 30
0.0
 11
7.092849
 21
2.185503
 31
0.0
  0
LINE
  5
205
  8
0
 10
7.092849
 20
2.185503
 30
0.0
 11
7.092849
 21
2.274535
 31
0.0
  0
LINE
  5
206
  8
0
 10
7.092849
 20
2.274535
 30
0.0
 11
7.092849
 21
2.485503
 31
0.0
  0
LINE
  5
207
  8
0
 10
7.092849
 20
2.485503
 30
0.0
 11
7.092849
 21
2.930665
 31
0.0
  0
LINE
  5
208
  8
0
 10
7.092849
 20
2.930665
 30
0.0
 11
7.092849
 21
3.985503
 31
0.0
  0
LINE
  5
209
  8
0
 10
7.092849
 20
3.985503
 30
0.0
 11
7.092849
 21
4.074535
 31
0.0
  0
LINE
  5
20A
  8
0
 10
7.092849
 20
4.074535
 30
0.0
 11
7.092849
 21
4.285503
 31
0.0
  0
LINE
  5
20B
  8
0
 10
7.092849
 20
4.285503
 30
0.0
 11
7.092849
 21
4.730665
 31
0.0
  0
LINE
  5
20C
  8
0
 10
7.092849
 20
4.730665
 30
0.0
 11
7.092849
 21
5.785503
 31
0.0
  0
LINE
  5
20D
  8
0
 10
7.092849
 20
5.785503
 30
0.0
 11
7.092849
 21
5.874535
 31
0.0
  0
LINE
  5
20E
  8
0
 10
7.092849
 20
5.874535
 30
0.0
 11
7.092849
 21
6.085503
 31
0.0
  0
LINE
  5
20F
  8
0
 10
7.092849
 20
6.085503
 30
0.0
 11
7.092849
 21
6.530665
 31
0.0
  0
LINE
  5
210
  8
0
 10
7.092849
 20
6.530665
 30
0.0
 11
7.092849
 21
7.585503
 31
0.0
  0
LINE
  5
211
  8
0
 10
7.092849
 20
7.585503
 30
0.0
 11
7.092849
 21
7.674535
 31
0.0
  0
LINE
  5
212
  8
0
 10
7.092849
 20
7.674535
 30
0.0
 11
7.092849
 21
7.885503
 31
0.0
  0
LINE
  5
213
  8
0
 10
7.092849
 20
7.885503
 30
0.0
 11
7.092849
 21
8.330665
 31
0.0
  0
LINE
  5
214
  8
0
 10
7.092849
 20
8.330665
 30
0.0
 11
7.092849
 21
9.385503
 31
0.0
  0
LINE
  5
215
  8
0
 10
7.092849
 20
9.385503
 30
0.0
 11
7.092849
 21
9.474535
 31
0.0
  0
LINE
  5
216
  8
0
 10
7.092849
 20
9.474535
 30
0.0
 11
7.092849
 21
9.685503
 31
0.0
  0
LINE
  5
217
  8
0
 10
7.092849
 20
9.685503
 30
0.0
 11
7.092849
 21
10.130665
 31
0.0
  0
LINE
  5
218
  8
0
 10
7.092849
 20
10.130665
 30
0.0
 11
7.092849
 21
11.185503
 31
0.0
  0
LINE
  5
219
  8
0
 10
7.092849
 20
11.185503
 30
0.0
 11
7.092849
 21
11.274535
 31
0.0
  0
LINE
  5
21A
  8
0
 10
7.092849
 20
11.274535
 30
0.0
 11
7.092849
 21
11.485503
 31
0.0
  0
LINE
  5
21B
  8
0
 10
7.092849
 20
11.485503
 30
0.0
 11
7.092849
 21
11.930665
 31
0.0
  0
LINE
  5
21C
  8
0
 10
7.092849
 20
11.930665
 30
0.0
 11
7.092849
 21
12.985503
 31
0.0
  0
LINE
  5
21D
  8
0
 10
7.092849
 20
12.985503
 30
0.0
 11
7.092849
 21
13.074535
 31
0.0
  0
LINE
  5
21E
  8
0
 10
7.092849
 20
13.074535
 30
0.0
 11
7.092849
 21
13.285503
 31
0.0
  0
LINE
  5
21F
  8
0
 10
7.092849
 20
13.285503
 30
0.0
 11
7.092849
 21
13.730665
 31
0.0
  0
LINE
  5
220
  8
0
 10
7.092849
 20
13.730665
 30
0.0
 11
7.092849
 21
14.537968
 31
0.0
  0
LINE
  5
221
  8
0
 10
7.092849
 20
14.537968
 30
0.0
 11
7.092849
 21
14.627
 31
0.0
  0
LINE
  5
222
  8
0
 10
7.592849
 20
0.574
 30
0.0
 11
7.592849
 21
0.575
 31
0.0
  0
LINE
  5
223
  8
0
 10
7.592849
 20
0.574
 30
0.0
 11
7.592849
 21
0.575
 31
0.0
  0
LINE
  5
224
  8
0
 10
7.592849
 20
0.575
 30
0.0
 11
7.592849
 21
0.785968
 31
0.0
  0
LINE
  5
225
  8
0
 10
7.592849
 20
0.785968
 30
0.0
 11
7.592849
 21
1.128148
 31
0.0
  0
LINE
  5
226
  8
0
 10
7.592849
 20
1.128148
 30
0.0
 11
7.592849
 21
2.182987
 31
0.0
  0
LINE
  5
227
  8
0
 10
7.592849
 20
2.182987
 30
0.0
 11
7.592849
 21
2.271723
 31
0.0
  0
LINE
  5
228
  8
0
 10
7.592849
 20
2.271723
 30
0.0
 11
7.592849
 21
2.48269
 31
0.0
  0
LINE
  5
229
  8
0
 10
7.592849
 20
2.48269
 30
0.0
 11
7.592849
 21
2.928148
 31
0.0
  0
LINE
  5
22A
  8
0
 10
7.592849
 20
2.928148
 30
0.0
 11
7.592849
 21
3.982987
 31
0.0
  0
LINE
  5
22B
  8
0
 10
7.592849
 20
3.982987
 30
0.0
 11
7.592849
 21
4.071723
 31
0.0
  0
LINE
  5
22C
  8
0
 10
7.592849
 20
4.071723
 30
0.0
 11
7.592849
 21
4.28269
 31
0.0
  0
LINE
  5
22D
  8
0
 10
7.592849
 20
4.28269
 30
0.0
 11
7.592849
 21
4.728148
 31
0.0
  0
LINE
  5
22E
  8
0
 10
7.592849
 20
4.728148
 30
0.0
 11
7.592849
 21
5.782987
 31
0.0
  0
LINE
  5
22F
  8
0
 10
7.592849
 20
5.782987
 30
0.0
 11
7.592849
 21
5.871723
 31
0.0
  0
LINE
  5
230
  8
0
 10
7.592849
 20
5.871723
 30
0.0
 11
7.592849
 21
6.08269
 31
0.0
  0
LINE
  5
231
  8
0
 10
7.592849
 20
6.08269
 30
0.0
 11
7.592849
 21
6.528148
 31
0.0
  0
LINE
  5
232
  8
0
 10
7.592849
 20
6.528148
 30
0.0
 11
7.592849
 21
7.582987
 31
0.0
  0
LINE
  5
233
  8
0
 10
7.592849
 20
7.582987
 30
0.0
 11
7.592849
 21
7.671723
 31
0.0
  0
LINE
  5
234
  8
0
 10
7.592849
 20
7.671723
 30
0.0
 11
7.592849
 21
7.88269
 31
0.0
  0
LINE
  5
235
  8
0
 10
7.592849
 20
7.88269
 30
0.0
 11
7.592849
 21
8.328148
 31
0.0
  0
LINE
  5
236
  8
0
 10
7.592849
 20
8.328148
 30
0.0
 11
7.592849
 21
9.382987
 31
0.0
  0
LINE
  5
237
  8
0
 10
7.592849
 20
9.382987
 30
0.0
 11
7.592849
 21
9.471723
 31
0.0
  0
LINE
  5
238
  8
0
 10
7.592849
 20
9.471723
 30
0.0
 11
7.592849
 21
9.68269
 31
0.0
  0
LINE
  5
239
  8
0
 10
7.592849
 20
9.68269
 30
0.0
 11
7.592849
 21
10.128148
 31
0.0
  0
LINE
  5
23A
  8
0
 10
7.592849
 20
10.128148
 30
0.0
 11
7.592849
 21
11.182987
 31
0.0
  0
LINE
  5
23B
  8
0
 10
7.592849
 20
11.182987
 30
0.0
 11
7.592849
 21
11.271723
 31
0.0
  0
LINE
  5
23C
  8
0
 10
7.592849
 20
11.271723
 30
0.0
 11
7.592849
 21
11.48269
 31
0.0
  0
LINE
  5
23D
  8
0
 10
7.592849
 20
11.48269
 30
0.0
 11
7.592849
 21
11.928148
 31
0.0
  0
LINE
  5
23E
  8
0
 10
7.592849
 20
11.928148
 30
0.0
 11
7.592849
 21
12.982987
 31
0.0
  0
LINE
  5
23F
  8
0
 10
7.592849
 20
12.982987
 30
0.0
 11
7.592849
 21
13.071723
 31
0.0
  0
LINE
  5
240
  8
0
 10
7.592849
 20
13.071723
 30
0.0
 11
7.592849
 21
13.28269
 31
0.0
  0
LINE
  5
241
  8
0
 10
7.592849
 20
13.28269
 30
0.0
 11
7.592849
 21
13.728148
 31
0.0
  0
LINE
  5
242
  8
0
 10
7.592849
 20
13.728148
 30
0.0
 11
7.592849
 21
14.538968
 31
0.0
  0
LINE
  5
243
  8
0
 10
7.592849
 20
14.538968
 30
0.0
 11
7.592849
 21
14.628
 31
0.0
  0
LINE
  5
244
  8
0
 10
8.092849
 20
0.563
 30
0.0
 11
8.092849
 21
0.773968
 31
0.0
  0
LINE
  5
245
  8
0
 10
8.092849
 20
0.563
 30
0.0
 11
8.092849
 21
0.773968
 31
0.0
  0
LINE
  5
246
  8
0
 10
8.092849
 20
0.773968
 30
0.0
 11
8.092849
 21
1.11971
 31
0.0
  0
LINE
  5
247
  8
0
 10
8.092849
 20
1.11971
 30
0.0
 11
8.092849
 21
2.174548
 31
0.0
  0
LINE
  5
248
  8
0
 10
8.092849
 20
2.174548
 30
0.0
 11
8.092849
 21
2.263581
 31
0.0
  0
LINE
  5
249
  8
0
 10
8.092849
 20
2.263581
 30
0.0
 11
8.092849
 21
2.474548
 31
0.0
  0
LINE
  5
24A
  8
0
 10
8.092849
 20
2.474548
 30
0.0
 11
8.092849
 21
2.91971
 31
0.0
  0
LINE
  5
24B
  8
0
 10
8.092849
 20
2.91971
 30
0.0
 11
8.092849
 21
3.974548
 31
0.0
  0
LINE
  5
24C
  8
0
 10
8.092849
 20
3.974548
 30
0.0
 11
8.092849
 21
4.063581
 31
0.0
  0
LINE
  5
24D
  8
0
 10
8.092849
 20
4.063581
 30
0.0
 11
8.092849
 21
4.274548
 31
0.0
  0
LINE
  5
24E
  8
0
 10
8.092849
 20
4.274548
 30
0.0
 11
8.092849
 21
4.71971
 31
0.0
  0
LINE
  5
24F
  8
0
 10
8.092849
 20
4.71971
 30
0.0
 11
8.092849
 21
5.774548
 31
0.0
  0
LINE
  5
250
  8
0
 10
8.092849
 20
5.774548
 30
0.0
 11
8.092849
 21
5.863581
 31
0.0
  0
LINE
  5
251
  8
0
 10
8.092849
 20
5.863581
 30
0.0
 11
8.092849
 21
6.074548
 31
0.0
  0
LINE
  5
252
  8
0
 10
8.092849
 20
6.074548
 30
0.0
 11
8.092849
 21
6.51971
 31
0.0
  0
LINE
  5
253
  8
0
 10
8.092849
 20
6.51971
 30
0.0
 11
8.092849
 21
7.574548
 31
0.0
  0
LINE
  5
254
  8
0
 10
8.092849
 20
7.574548
 30
0.0
 11
8.092849
 21
7.663581
 31
0.0
  0
LINE
  5
255
  8
0
 10
8.092849
 20
7.663581
 30
0.0
 11
8.092849
 21
7.874548
 31
0.0
  0
LINE
  5
256
  8
0
 10
8.092849
 20
7.874548
 30
0.0
 11
8.092849
 21
8.31971
 31
0.0
  0
LINE
  5
257
  8
0
 10
8.092849
 20
8.31971
 30
0.0
 11
8.092849
 21
9.374548
 31
0.0
  0
LINE
  5
258
  8
0
 10
8.092849
 20
9.374548
 30
0.0
 11
8.092849
 21
9.463581
 31
0.0
  0
LINE
  5
259
  8
0
 10
8.092849
 20
9.463581
 30
0.0
 11
8.092849
 21
9.674548
 31
0.0
  0
LINE
  5
25A
  8
0
 10
8.092849
 20
9.674548
 30
0.0
 11
8.092849
 21
10.11971
 31
0.0
  0
LINE
  5
25B
  8
0
 10
8.092849
 20
10.11971
 30
0.0
 11
8.092849
 21
11.174548
 31
0.0
  0
LINE
  5
25C
  8
0
 10
8.092849
 20
11.174548
 30
0.0
 11
8.092849
 21
11.263581
 31
0.0
  0
LINE
  5
25D
  8
0
 10
8.092849
 20
11.263581
 30
0.0
 11
8.092849
 21
11.474548
 31
0.0
  0
LINE
  5
25E
  8
0
 10
8.092849
 20
11.474548
 30
0.0
 11
8.092849
 21
11.91971
 31
0.0
  0
LINE
  5
25F
  8
0
 10
8.092849
 20
11.91971
 30
0.0
 11
8.092849
 21
12.974548
 31
0.0
  0
LINE
  5
260
  8
0
 10
8.092849
 20
12.974548
 30
0.0
 11
8.092849
 21
13.063581
 31
0.0
  0
LINE
  5
261
  8
0
 10
8.092849
 20
13.063581
 30
0.0
 11
8.092849
 21
13.274548
 31
0.0
  0
LINE
  5
262
  8
0
 10
8.092849
 20
13.274548
 30
0.0
 11
8.092849
 21
13.71971
 31
0.0
  0
LINE
  5
263
  8
0
 10
8.092849
 20
13.71971
 30
0.0
 11
8.092849
 21
14.538968
 31
0.0
  0
LINE
  5
264
  8
0
 10
8.092849
 20
14.538968
 30
0.0
 11
8.092849
 21
14.628
 31
0.0
  0
LINE
  5
265
  8
0
 10
8.592849
 20
0.551
 30
0.0
 11
8.592849
 21
0.761968
 31
0.0
  0
LINE
  5
266
  8
0
 10
8.592849
 20
0.551
 30
0.0
 11
8.592849
 21
0.761968
 31
0.0
  0
LINE
  5
267
  8
0
 10
8.592849
 20
0.761968
 30
0.0
 11
8.592849
 21
1.111568
 31
0.0
  0
LINE
  5
268
  8
0
 10
8.592849
 20
1.111568
 30
0.0
 11
8.592849
 21
2.166406
 31
0.0
  0
LINE
  5
269
  8
0
 10
8.592849
 20
2.166406
 30
0.0
 11
8.592849
 21
2.255439
 31
0.0
  0
LINE
  5
26A
  8
0
 10
8.592849
 20
2.255439
 30
0.0
 11
8.592849
 21
2.466406
 31
0.0
  0
LINE
  5
26B
  8
0
 10
8.592849
 20
2.466406
 30
0.0
 11
8.592849
 21
2.911568
 31
0.0
  0
LINE
  5
26C
  8
0
 10
8.592849
 20
2.911568
 30
0.0
 11
8.592849
 21
3.966406
 31
0.0
  0
LINE
  5
26D
  8
0
 10
8.592849
 20
3.966406
 30
0.0
 11
8.592849
 21
4.055439
 31
0.0
  0
LINE
  5
26E
  8
0
 10
8.592849
 20
4.055439
 30
0.0
 11
8.592849
 21
4.266406
 31
0.0
  0
LINE
  5
26F
  8
0
 10
8.592849
 20
4.266406
 30
0.0
 11
8.592849
 21
4.711568
 31
0.0
  0
LINE
  5
270
  8
0
 10
8.592849
 20
4.711568
 30
0.0
 11
8.592849
 21
5.766406
 31
0.0
  0
LINE
  5
271
  8
0
 10
8.592849
 20
5.766406
 30
0.0
 11
8.592849
 21
5.855439
 31
0.0
  0
LINE
  5
272
  8
0
 10
8.592849
 20
5.855439
 30
0.0
 11
8.592849
 21
6.066406
 31
0.0
  0
LINE
  5
273
  8
0
 10
8.592849
 20
6.066406
 30
0.0
 11
8.592849
 21
6.511568
 31
0.0
  0
LINE
  5
274
  8
0
 10
8.592849
 20
6.511568
 30
0.0
 11
8.592849
 21
7.566406
 31
0.0
  0
LINE
  5
275
  8
0
 10
8.592849
 20
7.566406
 30
0.0
 11
8.592849
 21
7.655439
 31
0.0
  0
LINE
  5
276
  8
0
 10
8.592849
 20
7.655439
 30
0.0
 11
8.592849
 21
7.866406
 31
0.0
  0
LINE
  5
277
  8
0
 10
8.592849
 20
7.866406
 30
0.0
 11
8.592849
 21
8.311568
 31
0.0
  0
LINE
  5
278
  8
0
 10
8.592849
 20
8.311568
 30
0.0
 11
8.592849
 21
9.366406
 31
0.0
  0
LINE
  5
279
  8
0
 10
8.592849
 20
9.366406
 30
0.0
 11
8.592849
 21
9.455439
 31
0.0
  0
LINE
  5
27A
  8
0
 10
8.592849
 20
9.455439
 30
0.0
 11
8.592849
 21
9.666406
 31
0.0
  0
LINE
  5
27B
  8
0
 10
8.592849
 20
9.666406
 30
0.0
 11
8.592849
 21
10.111568
 31
0.0
  0
LINE
  5
27C
  8
0
 10
8.592849
 20
10.111568
 30
0.0
 11
8.592849
 21
11.166406
 31
0.0
  0
LINE
  5
27D
  8
0
 10
8.592849
 20
11.166406
 30
0.0
 11
8.592849
 21
11.255439
 31
0.0
  0
LINE
  5
27E
  8
0
 10
8.592849
 20
11.255439
 30
0.0
 11
8.592849
 21
11.466406
 31
0.0
  0
LINE
  5
27F
  8
0
 10
8.592849
 20
11.466406
 30
0.0
 11
8.592849
 21
11.911568
 31
0.0
  0
LINE
  5
280
  8
0
 10
8.592849
 20
11.911568
 30
0.0
 11
8.592849
 21
12.966406
 31
0.0
  0
LINE
  5
281
  8
0
 10
8.592849
 20
12.966406
 30
0.0
 11
8.592849
 21
13.055439
 31
0.0
  0
LINE
  5
282
  8
0
 10
8.592849
 20
13.055439
 30
0.0
 11
8.592849
 21
13.266406
 31
0.0
  0
LINE
  5
283
  8
0
 10
8.592849
 20
13.266406
 30
0.0
 11
8.592849
 21
13.711568
 31
0.0
  0
LINE
  5
284
  8
0
 10
8.592849
 20
13.711568
 30
0.0
 11
8.592849
 21
14.539968
 31
0.0
  0
LINE
  5
285
  8
0
 10
8.592849
 20
14.539968
 30
0.0
 11
8.592849
 21
14.629
 31
0.0
  0
LINE
  5
286
  8
0
 10
9.092849
 20
0.539
 30
0.0
 11
9.092849
 21
0.749968
 31
0.0
  0
LINE
  5
287
  8
0
 10
9.092849
 20
0.539
 30
0.0
 11
9.092849
 21
0.749968
 31
0.0
  0
LINE
  5
288
  8
0
 10
9.092849
 20
0.749968
 30
0.0
 11
9.092849
 21
1.103426
 31
0.0
  0
LINE
  5
289
  8
0
 10
9.092849
 20
1.103426
 30
0.0
 11
9.092849
 21
2.158265
 31
0.0
  0
LINE
  5
28A
  8
0
 10
9.092849
 20
2.158265
 30
0.0
 11
9.092849
 21
2.247297
 31
0.0
  0
LINE
  5
28B
  8
0
 10
9.092849
 20
2.247297
 30
0.0
 11
9.092849
 21
2.458265
 31
0.0
  0
LINE
  5
28C
  8
0
 10
9.092849
 20
2.458265
 30
0.0
 11
9.092849
 21
2.903426
 31
0.0
  0
LINE
  5
28D
  8
0
 10
9.092849
 20
2.903426
 30
0.0
 11
9.092849
 21
3.958265
 31
0.0
  0
LINE
  5
28E
  8
0
 10
9.092849
 20
3.958265
 30
0.0
 11
9.092849
 21
4.047297
 31
0.0
  0
LINE
  5
28F
  8
0
 10
9.092849
 20
4.047297
 30
0.0
 11
9.092849
 21
4.258265
 31
0.0
  0
LINE
  5
290
  8
0
 10
9.092849
 20
4.258265
 30
0.0
 11
9.092849
 21
4.703426
 31
0.0
  0
LINE
  5
291
  8
0
 10
9.092849
 20
4.703426
 30
0.0
 11
9.092849
 21
5.758265
 31
0.0
  0
LINE
  5
292
  8
0
 10
9.092849
 20
5.758265
 30
0.0
 11
9.092849
 21
5.847297
 31
0.0
  0
LINE
  5
293
  8
0
 10
9.092849
 20
5.847297
 30
0.0
 11
9.092849
 21
6.058265
 31
0.0
  0
LINE
  5
294
  8
0
 10
9.092849
 20
6.058265
 30
0.0
 11
9.092849
 21
6.503426
 31
0.0
  0
LINE
  5
295
  8
0
 10
9.092849
 20
6.503426
 30
0.0
 11
9.092849
 21
7.558265
 31
0.0
  0
LINE
  5
296
  8
0
 10
9.092849
 20
7.558265
 30
0.0
 11
9.092849
 21
7.647297
 31
0.0
  0
LINE
  5
297
  8
0
 10
9.092849
 20
7.647297
 30
0.0
 11
9.092849
 21
7.858265
 31
0.0
  0
LINE
  5
298
  8
0
 10
9.092849
 20
7.858265
 30
0.0
 11
9.092849
 21
8.303426
 31
0.0
  0
LINE
  5
299
  8
0
 10
9.092849
 20
8.303426
 30
0.0
 11
9.092849
 21
9.358265
 31
0.0
  0
LINE
  5
29A
  8
0
 10
9.092849
 20
9.358265
 30
0.0
 11
9.092849
 21
9.447297
 31
0.0
  0
LINE
  5
29B
  8
0
 10
9.092849
 20
9.447297
 30
0.0
 11
9.092849
 21
9.658265
 31
0.0
  0
LINE
  5
29C
  8
0
 10
9.092849
 20
9.658265
 30
0.0
 11
9.092849
 21
10.103426
 31
0.0
  0
LINE
  5
29D
  8
0
 10
9.092849
 20
10.103426
 30
0.0
 11
9.092849
 21
11.158265
 31
0.0
  0
LINE
  5
29E
  8
0
 10
9.092849
 20
11.158265
 30
0.0
 11
9.092849
 21
11.247297
 31
0.0
  0
LINE
  5
29F
  8
0
 10
9.092849
 20
11.247297
 30
0.0
 11
9.092849
 21
11.458265
 31
0.0
  0
LINE
  5
2A0
  8
0
 10
9.092849
 20
11.458265
 30
0.0
 11
9.092849
 21
11.903426
 31
0.0
  0
LINE
  5
2A1
  8
0
 10
9.092849
 20
11.903426
 30
0.0
 11
9.092849
 21
12.958265
 31
0.0
  0
LINE
  5
2A2
  8
0
 10
9.092849
 20
12.958265
 30
0.0
 11
9.092849
 21
13.047297
 31
0.0
  0
LINE
  5
2A3
  8
0
 10
9.092849
 20
13.047297
 30
0.0
 11
9.092849
 21
13.258265
 31
0.0
  0
LINE
  5
2A4
  8
0
 10
9.092849
 20
13.258265
 30
0.0
 11
9.092849
 21
13.703426
 31
0.0
  0
LINE
  5
2A5
  8
0
 10
9.092849
 20
13.703426
 30
0.0
 11
9.092849
 21
14.540968
 31
0.0
  0
LINE
  5
2A6
  8
0
 10
9.092849
 20
14.540968
 30
0.0
 11
9.092849
 21
14.63
 31
0.0
  0
LINE
  5
2A7
  8
0
 10
9.592849
 20
0.527
 30
0.0
 11
9.592849
 21
0.737968
 31
0.0
  0
LINE
  5
2A8
  8
0
 10
9.592849
 20
0.527
 30
0.0
 11
9.592849
 21
0.737968
 31
0.0
  0
LINE
  5
2A9
  8
0
 10
9.592849
 20
0.737968
 30
0.0
 11
9.592849
 21
1.094987
 31
0.0
  0
LINE
  5
2AA
  8
0
 10
9.592849
 20
1.094987
 30
0.0
 11
9.592849
 21
2.149826
 31
0.0
  0
LINE
  5
2AB
  8
0
 10
9.592849
 20
2.149826
 30
0.0
 11
9.592849
 21
2.238858
 31
0.0
  0
LINE
  5
2AC
  8
0
 10
9.592849
 20
2.238858
 30
0.0
 11
9.592849
 21
2.449826
 31
0.0
  0
LINE
  5
2AD
  8
0
 10
9.592849
 20
2.449826
 30
0.0
 11
9.592849
 21
2.894987
 31
0.0
  0
LINE
  5
2AE
  8
0
 10
9.592849
 20
2.894987
 30
0.0
 11
9.592849
 21
3.949826
 31
0.0
  0
LINE
  5
2AF
  8
0
 10
9.592849
 20
3.949826
 30
0.0
 11
9.592849
 21
4.038858
 31
0.0
  0
LINE
  5
2B0
  8
0
 10
9.592849
 20
4.038858
 30
0.0
 11
9.592849
 21
4.249826
 31
0.0
  0
LINE
  5
2B1
  8
0
 10
9.592849
 20
4.249826
 30
0.0
 11
9.592849
 21
4.694987
 31
0.0
  0
LINE
  5
2B2
  8
0
 10
9.592849
 20
4.694987
 30
0.0
 11
9.592849
 21
5.749826
 31
0.0
  0
LINE
  5
2B3
  8
0
 10
9.592849
 20
5.749826
 30
0.0
 11
9.592849
 21
5.838858
 31
0.0
  0
LINE
  5
2B4
  8
0
 10
9.592849
 20
5.838858
 30
0.0
 11
9.592849
 21
6.049826
 31
0.0
  0
LINE
  5
2B5
  8
0
 10
9.592849
 20
6.049826
 30
0.0
 11
9.592849
 21
6.494987
 31
0.0
  0
LINE
  5
2B6
  8
0
 10
9.592849
 20
6.494987
 30
0.0
 11
9.592849
 21
7.549826
 31
0.0
  0
LINE
  5
2B7
  8
0
 10
9.592849
 20
7.549826
 30
0.0
 11
9.592849
 21
7.638858
 31
0.0
  0
LINE
  5
2B8
  8
0
 10
9.592849
 20
7.638858
 30
0.0
 11
9.592849
 21
7.849826
 31
0.0
  0
LINE
  5
2B9
  8
0
 10
9.592849
 20
7.849826
 30
0.0
 11
9.592849
 21
8.294987
 31
0.0
  0
LINE
  5
2BA
  8
0
 10
9.592849
 20
8.294987
 30
0.0
 11
9.592849
 21
9.349826
 31
0.0
  0
LINE
  5
2BB
  8
0
 10
9.592849
 20
9.349826
 30
0.0
 11
9.592849
 21
9.438858
 31
0.0
  0
LINE
  5
2BC
  8
0
 10
9.592849
 20
9.438858
 30
0.0
 11
9.592849
 21
9.649826
 31
0.0
  0
LINE
  5
2BD
  8
0
 10
9.592849
 20
9.649826
 30
0.0
 11
9.592849
 21
10.094987
 31
0.0
  0
LINE
  5
2BE
  8
0
 10
9.592849
 20
10.094987
 30
0.0
 11
9.592849
 21
11.149826
 31
0.0
  0
LINE
  5
2BF
  8
0
 10
9.592849
 20
11.149826
 30
0.0
 11
9.592849
 21
11.238858
 31
0.0
  0
LINE
  5
2C0
  8
0
 10
9.592849
 20
11.238858
 30
0.0
 11
9.592849
 21
11.449826
 31
0.0
  0
LINE
  5
2C1
  8
0
 10
9.592849
 20
11.449826
 30
0.0
 11
9.592849
 21
11.894987
 31
0.0
  0
LINE
  5
2C2
  8
0
 10
9.592849
 20
11.894987
 30
0.0
 11
9.592849
 21
12.949826
 31
0.0
  0
LINE
  5
2C3
  8
0
 10
9.592849
 20
12.949826
 30
0.0
 11
9.592849
 21
13.038858
 31
0.0
  0
LINE
  5
2C4
  8
0
 10
9.592849
 20
13.038858
 30
0.0
 11
9.592849
 21
13.249826
 31
0.0
  0
LINE
  5
2C5
  8
0
 10
9.592849
 20
13.249826
 30
0.0
 11
9.592849
 21
13.694987
 31
0.0
  0
LINE
  5
2C6
  8
0
 10
9.592849
 20
13.694987
 30
0.0
 11
9.592849
 21
14.540968
 31
0.0
  0
LINE
  5
2C7
  8
0
 10
9.592849
 20
14.540968
 30
0.0
 11
9.592849
 21
14.63
 31
0.0
  0
LINE
  5
2C8
  8
0
 10
10.092849
 20
0.515
 30
0.0
 11
10.092849
 21
0.725968
 31
0.0
  0
LINE
  5
2C9
  8
0
 10
10.092849
 20
0.515
 30
0.0
 11
10.092849
 21
0.725968
 31
0.0
  0
LINE
  5
2CA
  8
0
 10
10.092849
 20
0.725968
 30
0.0
 11
10.092849
 21
1.086845
 31
0.0
  0
LINE
  5
2CB
  8
0
 10
10.092849
 20
1.086845
 30
0.0
 11
10.092849
 21
2.141684
 31
0.0
  0
LINE
  5
2CC
  8
0
 10
10.092849
 20
2.141684
 30
0.0
 11
10.092849
 21
2.230716
 31
0.0
  0
LINE
  5
2CD
  8
0
 10
10.092849
 20
2.230716
 30
0.0
 11
10.092849
 21
2.441684
 31
0.0
  0
LINE
  5
2CE
  8
0
 10
10.092849
 20
2.441684
 30
0.0
 11
10.092849
 21
2.886845
 31
0.0
  0
LINE
  5
2CF
  8
0
 10
10.092849
 20
2.886845
 30
0.0
 11
10.092849
 21
3.941684
 31
0.0
  0
LINE
  5
2D0
  8
0
 10
10.092849
 20
3.941684
 30
0.0
 11
10.092849
 21
4.030716
 31
0.0
  0
LINE
  5
2D1
  8
0
 10
10.092849
 20
4.030716
 30
0.0
 11
10.092849
 21
4.241684
 31
0.0
  0
LINE
  5
2D2
  8
0
 10
10.092849
 20
4.241684
 30
0.0
 11
10.092849
 21
4.686845
 31
0.0
  0
LINE
  5
2D3
  8
0
 10
10.092849
 20
4.686845
 30
0.0
 11
10.092849
 21
5.741684
 31
0.0
  0
LINE
  5
2D4
  8
0
 10
10.092849
 20
5.741684
 30
0.0
 11
10.092849
 21
5.830716
 31
0.0
  0
LINE
  5
2D5
  8
0
 10
10.092849
 20
5.830716
 30
0.0
 11
10.092849
 21
6.041684
 31
0.0
  0
LINE
  5
2D6
  8
0
 10
10.092849
 20
6.041684
 30
0.0
 11
10.092849
 21
6.486845
 31
0.0
  0
LINE
  5
2D7
  8
0
 10
10.092849
 20
6.486845
 30
0.0
 11
10.092849
 21
7.541684
 31
0.0
  0
LINE
  5
2D8
  8
0
 10
10.092849
 20
7.541684
 30
0.0
 11
10.092849
 21
7.630716
 31
0.0
  0
LINE
  5
2D9
  8
0
 10
10.092849
 20
7.630716
 30
0.0
 11
10.092849
 21
7.841684
 31
0.0
  0
LINE
  5
2DA
  8
0
 10
10.092849
 20
7.841684
 30
0.0
 11
10.092849
 21
8.286845
 31
0.0
  0
LINE
  5
2DB
  8
0
 10
10.092849
 20
8.286845
 30
0.0
 11
10.092849
 21
9.341684
 31
0.0
  0
LINE
  5
2DC
  8
0
 10
10.092849
 20
9.341684
 30
0.0
 11
10.092849
 21
9.430716
 31
0.0
  0
LINE
  5
2DD
  8
0
 10
10.092849
 20
9.430716
 30
0.0
 11
10.092849
 21
9.641684
 31
0.0
  0
LINE
  5
2DE
  8
0
 10
10.092849
 20
9.641684
 30
0.0
 11
10.092849
 21
10.086845
 31
0.0
  0
LINE
  5
2DF
  8
0
 10
10.092849
 20
10.086845
 30
0.0
 11
10.092849
 21
11.141684
 31
0.0
  0
LINE
  5
2E0
  8
0
 10
10.092849
 20
11.141684
 30
0.0
 11
10.092849
 21
11.230716
 31
0.0
  0
LINE
  5
2E1
  8
0
 10
10.092849
 20
11.230716
 30
0.0
 11
10.092849
 21
11.441684
 31
0.0
  0
LINE
  5
2E2
  8
0
 10
10.092849
 20
11.441684
 30
0.0
 11
10.092849
 21
11.886845
 31
0.0
  0
LINE
  5
2E3
  8
0
 10
10.092849
 20
11.886845
 30
0.0
 11
10.092849
 21
12.941684
 31
0.0
  0
LINE
  5
2E4
  8
0
 10
10.092849
 20
12.941684
 30
0.0
 11
10.092849
 21
13.030716
 31
0.0
  0
LINE
  5
2E5
  8
0
 10
10.092849
 20
13.030716
 30
0.0
 11
10.092849
 21
13.241684
 31
0.0
  0
LINE
  5
2E6
  8
0
 10
10.092849
 20
13.241684
 30
0.0
 11
10.092849
 21
13.686845
 31
0.0
  0
LINE
  5
2E7
  8
0
 10
10.092849
 20
13.686845
 30
0.0
 11
10.092849
 21
14.541968
 31
0.0
  0
LINE
  5
2E8
  8
0
 10
10.092849
 20
14.541968
 30
0.0
 11
10.092849
 21
14.631
 31
0.0
  0
LINE
  5
2E9
  8
0
 10
10.592849
 20
0.503
 30
0.0
 11
10.592849
 21
0.713968
 31
0.0
  0
LINE
  5
2EA
  8
0
 10
10.592849
 20
0.503
 30
0.0
 11
10.592849
 21
0.713968
 31
0.0
  0
LINE
  5
2EB
  8
0
 10
10.592849
 20
0.713968
 30
0.0
 11
10.592849
 21
1.078703
 31
0.0
  0
LINE
  5
2EC
  8
0
 10
10.592849
 20
1.078703
 30
0.0
 11
10.592849
 21
2.133542
 31
0.0
  0
LINE
  5
2ED
  8
0
 10
10.592849
 20
2.133542
 30
0.0
 11
10.592849
 21
2.222574
 31
0.0
  0
LINE
  5
2EE
  8
0
 10
10.592849
 20
2.222574
 30
0.0
 11
10.592849
 21
2.433542
 31
0.0
  0
LINE
  5
2EF
  8
0
 10
10.592849
 20
2.433542
 30
0.0
 11
10.592849
 21
2.878703
 31
0.0
  0
LINE
  5
2F0
  8
0
 10
10.592849
 20
2.878703
 30
0.0
 11
10.592849
 21
3.933542
 31
0.0
  0
LINE
  5
2F1
  8
0
 10
10.592849
 20
3.933542
 30
0.0
 11
10.592849
 21
4.022574
 31
0.0
  0
LINE
  5
2F2
  8
0
 10
10.592849
 20
4.022574
 30
0.0
 11
10.592849
 21
4.233542
 31
0.0
  0
LINE
  5
2F3
  8
0
 10
10.592849
 20
4.233542
 30
0.0
 11
10.592849
 21
4.678703
 31
0.0
  0
LINE
  5
2F4
  8
0
 10
10.592849
 20
4.678703
 30
0.0
 11
10.592849
 21
5.733542
 31
0.0
  0
LINE
  5
2F5
  8
0
 10
10.592849
 20
5.733542
 30
0.0
 11
10.592849
 21
5.822574
 31
0.0
  0
LINE
  5
2F6
  8
0
 10
10.592849
 20
5.822574
 30
0.0
 11
10.592849
 21
6.033542
 31
0.0
  0
LINE
  5
2F7
  8
0
 10
10.592849
 20
6.033542
 30
0.0
 11
10.592849
 21
6.478703
 31
0.0
  0
LINE
  5
2F8
  8
0
 10
10.592849
 20
6.478703
 30
0.0
 11
10.592849
 21
7.533542
 31
0.0
  0
LINE
  5
2F9
  8
0
 10
10.592849
 20
7.533542
 30
0.0
 11
10.592849
 21
7.622574
 31
0.0
  0
LINE
  5
2FA
  8
0
 10
10.592849
 20
7.622574
 30
0.0
 11
10.592849
 21
7.833542
 31
0.0
  0
LINE
  5
2FB
  8
0
 10
10.592849
 20
7.833542
 30
0.0
 11
10.592849
 21
8.278703
 31
0.0
  0
LINE
  5
2FC
  8
0
 10
10.592849
 20
8.278703
 30
0.0
 11
10.592849
 21
9.333542
 31
0.0
  0
LINE
  5
2FD
  8
0
 10
10.592849
 20
9.333542
 30
0.0
 11
10.592849
 21
9.422574
 31
0.0
  0
LINE
  5
2FE
  8
0
 10
10.592849
 20
9.422574
 30
0.0
 11
10.592849
 21
9.633542
 31
0.0
  0
LINE
  5
2FF
  8
0
 10
10.592849
 20
9.633542
 30
0.0
 11
10.592849
 21
10.078703
 31
0.0
  0
LINE
  5
300
  8
0
 10
10.592849
 20
10.078703
 30
0.0
 11
10.592849
 21
11.133542
 31
0.0
  0
LINE
  5
301
  8
0
 10
10.592849
 20
11.133542
 30
0.0
 11
10.592849
 21
11.222574
 31
0.0
  0
LINE
  5
302
  8
0
 10
10.592849
 20
11.222574
 30
0.0
 11
10.592849
 21
11.433542
 31
0.0
  0
LINE
  5
303
  8
0
 10
10.592849
 20
11.433542
 30
0.0
 11
10.592849
 21
11.878703
 31
0.0
  0
LINE
  5
304
  8
0
 10
10.592849
 20
11.878703
 30
0.0
 11
10.592849
 21
12.933542
 31
0.0
  0
LINE
  5
305
  8
0
 10
10.592849
 20
12.933542
 30
0.0
 11
10.592849
 21
13.022574
 31
0.0
  0
LINE
  5
306
  8
0
 10
10.592849
 20
13.022574
 30
0.0
 11
10.592849
 21
13.233542
 31
0.0
  0
LINE
  5
307
  8
0
 10
10.592849
 20
13.233542
 30
0.0
 11
10.592849
 21
13.678703
 31
0.0
  0
LINE
  5
308
  8
0
 10
10.592849
 20
13.678703
 30
0.0
 11
10.592849
 21
14.542968
 31
0.0
  0
LINE
  5
309
  8
0
 10
10.592849
 20
14.542968
 30
0.0
 11
10.592849
 21
14.632
 31
0.0
  0
LINE
  5
30A
  8
0
 10
11.092849
 20
0.491
 30
0.0
 11
11.092849
 21
0.701968
 31
0.0
  0
LINE
  5
30B
  8
0
 10
11.092849
 20
0.491
 30
0.0
 11
11.092849
 21
0.701968
 31
0.0
  0
LINE
  5
30C
  8
0
 10
11.092849
 20
0.701968
 30
0.0
 11
11.092849
 21
1.070561
 31
0.0
  0
LINE
  5
30D
  8
0
 10
11.092849
 20
1.070561
 30
0.0
 11
11.092849
 21
2.1254
 31
0.0
  0
LINE
  5
30E
  8
0
 10
11.092849
 20
2.1254
 30
0.0
 11
11.092849
 21
2.214135
 31
0.0
  0
LINE
  5
30F
  8
0
 10
11.092849
 20
2.214135
 30
0.0
 11
11.092849
 21
2.425103
 31
0.0
  0
LINE
  5
310
  8
0
 10
11.092849
 20
2.425103
 30
0.0
 11
11.092849
 21
2.870561
 31
0.0
  0
LINE
  5
311
  8
0
 10
11.092849
 20
2.870561
 30
0.0
 11
11.092849
 21
3.9254
 31
0.0
  0
LINE
  5
312
  8
0
 10
11.092849
 20
3.9254
 30
0.0
 11
11.092849
 21
4.014135
 31
0.0
  0
LINE
  5
313
  8
0
 10
11.092849
 20
4.014135
 30
0.0
 11
11.092849
 21
4.225103
 31
0.0
  0
LINE
  5
314
  8
0
 10
11.092849
 20
4.225103
 30
0.0
 11
11.092849
 21
4.670561
 31
0.0
  0
LINE
  5
315
  8
0
 10
11.092849
 20
4.670561
 30
0.0
 11
11.092849
 21
5.7254
 31
0.0
  0
LINE
  5
316
  8
0
 10
11.092849
 20
5.7254
 30
0.0
 11
11.092849
 21
5.814135
 31
0.0
  0
LINE
  5
317
  8
0
 10
11.092849
 20
5.814135
 30
0.0
 11
11.092849
 21
6.025103
 31
0.0
  0
LINE
  5
318
  8
0
 10
11.092849
 20
6.025103
 30
0.0
 11
11.092849
 21
6.470561
 31
0.0
  0
LINE
  5
319
  8
0
 10
11.092849
 20
6.470561
 30
0.0
 11
11.092849
 21
7.5254
 31
0.0
  0
LINE
  5
31A
  8
0
 10
11.092849
 20
7.5254
 30
0.0
 11
11.092849
 21
7.614135
 31
0.0
  0
LINE
  5
31B
  8
0
 10
11.092849
 20
7.614135
 30
0.0
 11
11.092849
 21
7.825103
 31
0.0
  0
LINE
  5
31C
  8
0
 10
11.092849
 20
7.825103
 30
0.0
 11
11.092849
 21
8.270561
 31
0.0
  0
LINE
  5
31D
  8
0
 10
11.092849
 20
8.270561
 30
0.0
 11
11.092849
 21
9.3254
 31
0.0
  0
LINE
  5
31E
  8
0
 10
11.092849
 20
9.3254
 30
0.0
 11
11.092849
 21
9.414135
 31
0.0
  0
LINE
  5
31F
  8
0
 10
11.092849
 20
9.414135
 30
0.0
 11
11.092849
 21
9.625103
 31
0.0
  0
LINE
  5
320
  8
0
 10
11.092849
 20
9.625103
 30
0.0
 11
11.092849
 21
10.070561
 31
0.0
  0
LINE
  5
321
  8
0
 10
11.092849
 20
10.070561
 30
0.0
 11
11.092849
 21
11.1254
 31
0.0
  0
LINE
  5
322
  8
0
 10
11.092849
 20
11.1254
 30
0.0
 11
11.092849
 21
11.214135
 31
0.0
  0
LINE
  5
323
  8
0
 10
11.092849
 20
11.214135
 30
0.0
 11
11.092849
 21
11.425103
 31
0.0
  0
LINE
  5
324
  8
0
 10
11.092849
 20
11.425103
 30
0.0
 11
11.092849
 21
11.870561
 31
0.0
  0
LINE
  5
325
  8
0
 10
11.092849
 20
11.870561
 30
0.0
 11
11.092849
 21
12.9254
 31
0.0
  0
LINE
  5
326
  8
0
 10
11.092849
 20
12.9254
 30
0.0
 11
11.092849
 21
13.014135
 31
0.0
  0
LINE
  5
327
  8
0
 10
11.092849
 20
13.014135
 30
0.0
 11
11.092849
 21
13.225103
 31
0.0
  0
LINE
  5
328
  8
0
 10
11.092849
 20
13.225103
 30
0.0
 11
11.092849
 21
13.670561
 31
0.0
  0
LINE
  5
329
  8
0
 10
11.092849
 20
13.670561
 30
0.0
 11
11.092849
 21
14.543968
 31
0.0
  0
LINE
  5
32A
  8
0
 10
11.092849
 20
14.543968
 30
0.0
 11
11.092849
 21
14.633
 31
0.0
  0
LINE
  5
32B
  8
0
 10
11.592849
 20
0.479
 30
0.0
 11
11.592849
 21
0.689968
 31
0.0
  0
LINE
  5
32C
  8
0
 10
11.592849
 20
0.479
 30
0.0
 11
11.592849
 21
0.689968
 31
0.0
  0
LINE
  5
32D
  8
0
 10
11.592849
 20
0.689968
 30
0.0
 11
11.592849
 21
1.062123
 31
0.0
  0
LINE
  5
32E
  8
0
 10
11.592849
 20
1.062123
 30
0.0
 11
11.592849
 21
2.116961
 31
0.0
  0
LINE
  5
32F
  8
0
 10
11.592849
 20
2.116961
 30
0.0
 11
11.592849
 21
2.205994
 31
0.0
  0
LINE
  5
330
  8
0
 10
11.592849
 20
2.205994
 30
0.0
 11
11.592849
 21
2.416961
 31
0.0
  0
LINE
  5
331
  8
0
 10
11.592849
 20
2.416961
 30
0.0
 11
11.592849
 21
2.862123
 31
0.0
  0
LINE
  5
332
  8
0
 10
11.592849
 20
2.862123
 30
0.0
 11
11.592849
 21
3.916961
 31
0.0
  0
LINE
  5
333
  8
0
 10
11.592849
 20
3.916961
 30
0.0
 11
11.592849
 21
4.005994
 31
0.0
  0
LINE
  5
334
  8
0
 10
11.592849
 20
4.005994
 30
0.0
 11
11.592849
 21
4.216961
 31
0.0
  0
LINE
  5
335
  8
0
 10
11.592849
 20
4.216961
 30
0.0
 11
11.592849
 21
4.662123
 31
0.0
  0
LINE
  5
336
  8
0
 10
11.592849
 20
4.662123
 30
0.0
 11
11.592849
 21
5.716961
 31
0.0
  0
LINE
  5
337
  8
0
 10
11.592849
 20
5.716961
 30
0.0
 11
11.592849
 21
5.805994
 31
0.0
  0
LINE
  5
338
  8
0
 10
11.592849
 20
5.805994
 30
0.0
 11
11.592849
 21
6.016961
 31
0.0
  0
LINE
  5
339
  8
0
 10
11.592849
 20
6.016961
 30
0.0
 11
11.592849
 21
6.462123
 31
0.0
  0
LINE
  5
33A
  8
0
 10
11.592849
 20
6.462123
 30
0.0
 11
11.592849
 21
7.516961
 31
0.0
  0
LINE
  5
33B
  8
0
 10
11.592849
 20
7.516961
 30
0.0
 11
11.592849
 21
7.605994
 31
0.0
  0
LINE
  5
33C
  8
0
 10
11.592849
 20
7.605994
 30
0.0
 11
11.592849
 21
7.816961
 31
0.0
  0
LINE
  5
33D
  8
0
 10
11.592849
 20
7.816961
 30
0.0
 11
11.592849
 21
8.262123
 31
0.0
  0
LINE
  5
33E
  8
0
 10
11.592849
 20
8.262123
 30
0.0
 11
11.592849
 21
9.316961
 31
0.0
  0
LINE
  5
33F
  8
0
 10
11.592849
 20
9.316961
 30
0.0
 11
11.592849
 21
9.405994
 31
0.0
  0
LINE
  5
340
  8
0
 10
11.592849
 20
9.405994
 30
0.0
 11
11.592849
 21
9.616961
 31
0.0
  0
LINE
  5
341
  8
0
 10
11.592849
 20
9.616961
 30
0.0
 11
11.592849
 21
10.062123
 31
0.0
  0
LINE
  5
342
  8
0
 10
11.592849
 20
10.062123
 30
0.0
 11
11.592849
 21
11.116961
 31
0.0
  0
LINE
  5
343
  8
0
 10
11.592849
 20
11.116961
 30
0.0
 11
11.592849
 21
11.205994
 31
0.0
  0
LINE
  5
344
  8
0
 10
11.592849
 20
11.205994
 30
0.0
 11
11.592849
 21
11.416961
 31
0.0
  0
LINE
  5
345
  8
0
 10
11.592849
 20
11.416961
 30
0.0
 11
11.592849
 21
11.862123
 31
0.0
  0
LINE
  5
346
  8
0
 10
11.592849
 20
11.862123
 30
0.0
 11
11.592849
 21
12.916961
 31
0.0
  0
LINE
  5
347
  8
0
 10
11.592849
 20
12.916961
 30
0.0
 11
11.592849
 21
13.005994
 31
0.0
  0
LINE
  5
348
  8
0
 10
11.592849
 20
13.005994
 30
0.0
 11
11.592849
 21
13.216961
 31
0.0
  0
LINE
  5
349
  8
0
 10
11.592849
 20
13.216961
 30
0.0
 11
11.592849
 21
13.662123
 31
0.0
  0
LINE
  5
34A
  8
0
 10
11.592849
 20
13.662123
 30
0.0
 11
11.592849
 21
14.543968
 31
0.0
  0
LINE
  5
34B
  8
0
 10
11.592849
 20
14.543968
 30
0.0
 11
11.592849
 21
14.633
 31
0.0
  0
LINE
  5
34C
  8
0
 10
12.092849
 20
0.467
 30
0.0
 11
12.092849
 21
0.677968
 31
0.0
  0
LINE
  5
34D
  8
0
 10
12.092849
 20
0.467
 30
0.0
 11
12.092849
 21
0.677968
 31
0.0
  0
LINE
  5
34E
  8
0
 10
12.092849
 20
0.677968
 30
0.0
 11
12.092849
 21
1.053981
 31
0.0
  0
LINE
  5
34F
  8
0
 10
12.092849
 20
1.053981
 30
0.0
 11
12.092849
 21
2.108819
 31
0.0
  0
LINE
  5
350
  8
0
 10
12.092849
 20
2.108819
 30
0.0
 11
12.092849
 21
2.197852
 31
0.0
  0
LINE
  5
351
  8
0
 10
12.092849
 20
2.197852
 30
0.0
 11
12.092849
 21
2.408819
 31
0.0
  0
LINE
  5
352
  8
0
 10
12.092849
 20
2.408819
 30
0.0
 11
12.092849
 21
2.853981
 31
0.0
  0
LINE
  5
353
  8
0
 10
12.092849
 20
2.853981
 30
0.0
 11
12.092849
 21
3.908819
 31
0.0
  0
LINE
  5
354
  8
0
 10
12.092849
 20
3.908819
 30
0.0
 11
12.092849
 21
3.997852
 31
0.0
  0
LINE
  5
355
  8
0
 10
12.092849
 20
3.997852
 30
0.0
 11
12.092849
 21
4.208819
 31
0.0
  0
LINE
  5
356
  8
0
 10
12.092849
 20
4.208819
 30
0.0
 11
12.092849
 21
4.653981
 31
0.0
  0
LINE
  5
357
  8
0
 10
12.092849
 20
4.653981
 30
0.0
 11
12.092849
 21
5.708819
 31
0.0
  0
LINE
  5
358
  8
0
 10
12.092849
 20
5.708819
 30
0.0
 11
12.092849
 21
5.797852
 31
0.0
  0
LINE
  5
359
  8
0
 10
12.092849
 20
5.797852
 30
0.0
 11
12.092849
 21
6.008819
 31
0.0
  0
LINE
  5
35A
  8
0
 10
12.092849
 20
6.008819
 30
0.0
 11
12.092849
 21
6.453981
 31
0.0
  0
LINE
  5
35B
  8
0
 10
12.092849
 20
6.453981
 30
0.0
 11
12.092849
 21
7.508819
 31
0.0
  0
LINE
  5
35C
  8
0
 10
12.092849
 20
7.508819
 30
0.0
 11
12.092849
 21
7.597852
 31
0.0
  0
LINE
  5
35D
  8
0
 10
12.092849
 20
7.597852
 30
0.0
 11
12.092849
 21
7.808819
 31
0.0
  0
LINE
  5
35E
  8
0
 10
12.092849
 20
7.808819
 30
0.0
 11
12.092849
 21
8.253981
 31
0.0
  0
LINE
  5
35F
  8
0
 10
12.092849
 20
8.253981
 30
0.0
 11
12.092849
 21
9.308819
 31
0.0
  0
LINE
  5
360
  8
0
 10
12.092849
 20
9.308819
 30
0.0
 11
12.092849
 21
9.397852
 31
0.0
  0
LINE
  5
361
  8
0
 10
12.092849
 20
9.397852
 30
0.0
 11
12.092849
 21
9.608819
 31
0.0
  0
LINE
  5
362
  8
0
 10
12.092849
 20
9.608819
 30
0.0
 11
12.092849
 21
10.053981
 31
0.0
  0
LINE
  5
363
  8
0
 10
12.092849
 20
10.053981
 30
0.0
 11
12.092849
 21
11.108819
 31
0.0
  0
LINE
  5
364
  8
0
 10
12.092849
 20
11.108819
 30
0.0
 11
12.092849
 21
11.197852
 31
0.0
  0
LINE
  5
365
  8
0
 10
12.092849
 20
11.197852
 30
0.0
 11
12.092849
 21
11.408819
 31
0.0
  0
LINE
  5
366
  8
0
 10
12.092849
 20
11.408819
 30
0.0
 11
12.092849
 21
11.853981
 31
0.0
  0
LINE
  5
367
  8
0
 10
12.092849
 20
11.853981
 30
0.0
 11
12.092849
 21
12.908819
 31
0.0
  0
LINE
  5
368
  8
0
 10
12.092849
 20
12.908819
 30
0.0
 11
12.092849
 21
12.997852
 31
0.0
  0
LINE
  5
369
  8
0
 10
12.092849
 20
12.997852
 30
0.0
 11
12.092849
 21
13.208819
 31
0.0
  0
LINE
  5
36A
  8
0
 10
12.092849
 20
13.208819
 30
0.0
 11
12.092849
 21
13.653981
 31
0.0
  0
LINE
  5
36B
  8
0
 10
12.092849
 20
13.653981
 30
0.0
 11
12.092849
 21
14.544968
 31
0.0
  0
LINE
  5
36C
  8
0
 10
12.092849
 20
14.544968
 30
0.0
 11
12.092849
 21
14.634
 31
0.0
  0
LINE
  5
36D
  8
0
 10
12.592849
 20
0.455
 30
0.0
 11
12.592849
 21
0.665968
 31
0.0
  0
LINE
  5
36E
  8
0
 10
12.592849
 20
0.455
 30
0.0
 11
12.592849
 21
0.665968
 31
0.0
  0
LINE
  5
36F
  8
0
 10
12.592849
 20
0.665968
 30
0.0
 11
12.592849
 21
1.045839
 31
0.0
  0
LINE
  5
370
  8
0
 10
12.592849
 20
1.045839
 30
0.0
 11
12.592849
 21
2.100677
 31
0.0
  0
LINE
  5
371
  8
0
 10
12.592849
 20
2.100677
 30
0.0
 11
12.592849
 21
2.18971
 31
0.0
  0
LINE
  5
372
  8
0
 10
12.592849
 20
2.18971
 30
0.0
 11
12.592849
 21
2.400677
 31
0.0
  0
LINE
  5
373
  8
0
 10
12.592849
 20
2.400677
 30
0.0
 11
12.592849
 21
2.845839
 31
0.0
  0
LINE
  5
374
  8
0
 10
12.592849
 20
2.845839
 30
0.0
 11
12.592849
 21
3.900677
 31
0.0
  0
LINE
  5
375
  8
0
 10
12.592849
 20
3.900677
 30
0.0
 11
12.592849
 21
3.98971
 31
0.0
  0
LINE
  5
376
  8
0
 10
12.592849
 20
3.98971
 30
0.0
 11
12.592849
 21
4.200677
 31
0.0
  0
LINE
  5
377
  8
0
 10
12.592849
 20
4.200677
 30
0.0
 11
12.592849
 21
4.645839
 31
0.0
  0
LINE
  5
378
  8
0
 10
12.592849
 20
4.645839
 30
0.0
 11
12.592849
 21
5.700677
 31
0.0
  0
LINE
  5
379
  8
0
 10
12.592849
 20
5.700677
 30
0.0
 11
12.592849
 21
5.78971
 31
0.0
  0
LINE
  5
37A
  8
0
 10
12.592849
 20
5.78971
 30
0.0
 11
12.592849
 21
6.000677
 31
0.0
  0
LINE
  5
37B
  8
0
 10
12.592849
 20
6.000677
 30
0.0
 11
12.592849
 21
6.445839
 31
0.0
  0
LINE
  5
37C
  8
0
 10
12.592849
 20
6.445839
 30
0.0
 11
12.592849
 21
7.500677
 31
0.0
  0
LINE
  5
37D
  8
0
 10
12.592849
 20
7.500677
 30
0.0
 11
12.592849
 21
7.58971
 31
0.0
  0
LINE
  5
37E
  8
0
 10
12.592849
 20
7.58971
 30
0.0
 11
12.592849
 21
7.800677
 31
0.0
  0
LINE
  5
37F
  8
0
 10
12.592849
 20
7.800677
 30
0.0
 11
12.592849
 21
8.245839
 31
0.0
  0
LINE
  5
380
  8
0
 10
12.592849
 20
8.245839
 30
0.0
 11
12.592849
 21
9.300677
 31
0.0
  0
LINE
  5
381
  8
0
 10
12.592849
 20
9.300677
 30
0.0
 11
12.592849
 21
9.38971
 31
0.0
  0
LINE
  5
382
  8
0
 10
12.592849
 20
9.38971
 30
0.0
 11
12.592849
 21
9.600677
 31
0.0
  0
LINE
  5
383
  8
0
 10
12.592849
 20
9.600677
 30
0.0
 11
12.592849
 21
10.045839
 31
0.0
  0
LINE
  5
384
  8
0
 10
12.592849
 20
10.045839
 30
0.0
 11
12.592849
 21
11.100677
 31
0.0
  0
LINE
  5
385
  8
0
 10
12.592849
 20
11.100677
 30
0.0
 11
12.592849
 21
11.18971
 31
0.0
  0
LINE
  5
386
  8
0
 10
12.592849
 20
11.18971
 30
0.0
 11
12.592849
 21
11.400677
 31
0.0
  0
LINE
  5
387
  8
0
 10
12.592849
 20
11.400677
 30
0.0
 11
12.592849
 21
11.845839
 31
0.0
  0
LINE
  5
388
  8
0
 10
12.592849
 20
11.845839
 30
0.0
 11
12.592849
 21
12.900677
 31
0.0
  0
LINE
  5
389
  8
0
 10
12.592849
 20
12.900677
 30
0.0
 11
12.592849
 21
12.98971
 31
0.0
  0
LINE
  5
38A
  8
0
 10
12.592849
 20
12.98971
 30
0.0
 11
12.592849
 21
13.200677
 31
0.0
  0
LINE
  5
38B
  8
0
 10
12.592849
 20
13.200677
 30
0.0
 11
12.592849
 21
13.645839
 31
0.0
  0
LINE
  5
38C
  8
0
 10
12.592849
 20
13.645839
 30
0.0
 11
12.592849
 21
14.545968
 31
0.0
  0
LINE
  5
38D
  8
0
 10
12.592849
 20
14.545968
 30
0.0
 11
12.592849
 21
14.635
 31
0.0
  0
LINE
  5
38E
  8
0
 10
13.092849
 20
0.455
 30
0.0
 11
13.092849
 21
0.665968
 31
0.0
  0
LINE
  5
38F
  8
0
 10
13.092849
 20
0.455
 30
0.0
 11
13.092849
 21
0.665968
 31
0.0
  0
LINE
  5
390
  8
0
 10
13.092849
 20
0.665968
 30
0.0
 11
13.092849
 21
1.046135
 31
0.0
  0
LINE
  5
391
  8
0
 10
13.092849
 20
1.046135
 30
0.0
 11
13.092849
 21
2.100974
 31
0.0
  0
LINE
  5
392
  8
0
 10
13.092849
 20
2.100974
 30
0.0
 11
13.092849
 21
2.18971
 31
0.0
  0
LINE
  5
393
  8
0
 10
13.092849
 20
2.18971
 30
0.0
 11
13.092849
 21
2.400677
 31
0.0
  0
LINE
  5
394
  8
0
 10
13.092849
 20
2.400677
 30
0.0
 11
13.092849
 21
2.846135
 31
0.0
  0
LINE
  5
395
  8
0
 10
13.092849
 20
2.846135
 30
0.0
 11
13.092849
 21
3.900974
 31
0.0
  0
LINE
  5
396
  8
0
 10
13.092849
 20
3.900974
 30
0.0
 11
13.092849
 21
3.98971
 31
0.0
  0
LINE
  5
397
  8
0
 10
13.092849
 20
3.98971
 30
0.0
 11
13.092849
 21
4.200677
 31
0.0
  0
LINE
  5
398
  8
0
 10
13.092849
 20
4.200677
 30
0.0
 11
13.092849
 21
4.646135
 31
0.0
  0
LINE
  5
399
  8
0
 10
13.092849
 20
4.646135
 30
0.0
 11
13.092849
 21
5.700974
 31
0.0
  0
LINE
  5
39A
  8
0
 10
13.092849
 20
5.700974
 30
0.0
 11
13.092849
 21
5.78971
 31
0.0
  0
LINE
  5
39B
  8
0
 10
13.092849
 20
5.78971
 30
0.0
 11
13.092849
 21
6.000677
 31
0.0
  0
LINE
  5
39C
  8
0
 10
13.092849
 20
6.000677
 30
0.0
 11
13.092849
 21
6.446135
 31
0.0
  0
LINE
  5
39D
  8
0
 10
13.092849
 20
6.446135
 30
0.0
 11
13.092849
 21
7.500974
 31
0.0
  0
LINE
  5
39E
  8
0
 10
13.092849
 20
7.500974
 30
0.0
 11
13.092849
 21
7.58971
 31
0.0
  0
LINE
  5
39F
  8
0
 10
13.092849
 20
7.58971
 30
0.0
 11
13.092849
 21
7.800677
 31
0.0
  0
LINE
  5
3A0
  8
0
 10
13.092849
 20
7.800677
 30
0.0
 11
13.092849
 21
8.246135
 31
0.0
  0
LINE
  5
3A1
  8
0
 10
13.092849
 20
8.246135
 30
0.0
 11
13.092849
 21
9.300974
 31
0.0
  0
LINE
  5
3A2
  8
0
 10
13.092849
 20
9.300974
 30
0.0
 11
13.092849
 21
9.38971
 31
0.0
  0
LINE
  5
3A3
  8
0
 10
13.092849
 20
9.38971
 30
0.0
 11
13.092849
 21
9.600677
 31
0.0
  0
LINE
  5
3A4
  8
0
 10
13.092849
 20
9.600677
 30
0.0
 11
13.092849
 21
10.046135
 31
0.0
  0
LINE
  5
3A5
  8
0
 10
13.092849
 20
10.046135
 30
0.0
 11
13.092849
 21
11.100974
 31
0.0
  0
LINE
  5
3A6
  8
0
 10
13.092849
 20
11.100974
 30
0.0
 11
13.092849
 21
11.18971
 31
0.0
  0
LINE
  5
3A7
  8
0
 10
13.092849
 20
11.18971
 30
0.0
 11
13.092849
 21
11.400677
 31
0.0
  0
LINE
  5
3A8
  8
0
 10
13.092849
 20
11.400677
 30
0.0
 11
13.092849
 21
11.846135
 31
0.0
  0
LINE
  5
3A9
  8
0
 10
13.092849
 20
11.846135
 30
0.0
 11
13.092849
 21
12.900974
 31
0.0
  0
LINE
  5
3AA
  8
0
 10
13.092849
 20
12.900974
 30
0.0
 11
13.092849
 21
12.98971
 31
0.0
  0
LINE
  5
3AB
  8
0
 10
13.092849
 20
12.98971
 30
0.0
 11
13.092849
 21
13.200677
 31
0.0
  0
LINE
  5
3AC
  8
0
 10
13.092849
 20
13.200677
 30
0.0
 11
13.092849
 21
13.646135
 31
0.0
  0
LINE
  5
3AD
  8
0
 10
13.092849
 20
13.646135
 30
0.0
 11
13.092849
 21
14.546968
 31
0.0
  0
LINE
  5
3AE
  8
0
 10
13.092849
 20
14.546968
 30
0.0
 11
13.092849
 21
14.635703
 31
0.0
  0
LINE
  5
3AF
  8
0
 10
13.592849
 20
0.523
 30
0.0
 11
13.592849
 21
0.733968
 31
0.0
  0
LINE
  5
3B0
  8
0
 10
13.592849
 20
0.523
 30
0.0
 11
13.592849
 21
0.733968
 31
0.0
  0
LINE
  5
3B1
  8
0
 10
13.592849
 20
0.733968
 30
0.0
 11
13.592849
 21
1.093955
 31
0.0
  0
LINE
  5
3B2
  8
0
 10
13.592849
 20
1.093955
 30
0.0
 11
13.592849
 21
2.148794
 31
0.0
  0
LINE
  5
3B3
  8
0
 10
13.592849
 20
2.148794
 30
0.0
 11
13.592849
 21
2.237826
 31
0.0
  0
LINE
  5
3B4
  8
0
 10
13.592849
 20
2.237826
 30
0.0
 11
13.592849
 21
2.448794
 31
0.0
  0
LINE
  5
3B5
  8
0
 10
13.592849
 20
2.448794
 30
0.0
 11
13.592849
 21
2.893955
 31
0.0
  0
LINE
  5
3B6
  8
0
 10
13.592849
 20
2.893955
 30
0.0
 11
13.592849
 21
3.948794
 31
0.0
  0
LINE
  5
3B7
  8
0
 10
13.592849
 20
3.948794
 30
0.0
 11
13.592849
 21
4.037826
 31
0.0
  0
LINE
  5
3B8
  8
0
 10
13.592849
 20
4.037826
 30
0.0
 11
13.592849
 21
4.248794
 31
0.0
  0
LINE
  5
3B9
  8
0
 10
13.592849
 20
4.248794
 30
0.0
 11
13.592849
 21
4.693955
 31
0.0
  0
LINE
  5
3BA
  8
0
 10
13.592849
 20
4.693955
 30
0.0
 11
13.592849
 21
5.748794
 31
0.0
  0
LINE
  5
3BB
  8
0
 10
13.592849
 20
5.748794
 30
0.0
 11
13.592849
 21
5.837826
 31
0.0
  0
LINE
  5
3BC
  8
0
 10
13.592849
 20
5.837826
 30
0.0
 11
13.592849
 21
6.048794
 31
0.0
  0
LINE
  5
3BD
  8
0
 10
13.592849
 20
6.048794
 30
0.0
 11
13.592849
 21
6.493955
 31
0.0
  0
LINE
  5
3BE
  8
0
 10
13.592849
 20
6.493955
 30
0.0
 11
13.592849
 21
7.548794
 31
0.0
  0
LINE
  5
3BF
  8
0
 10
13.592849
 20
7.548794
 30
0.0
 11
13.592849
 21
7.637826
 31
0.0
  0
LINE
  5
3C0
  8
0
 10
13.592849
 20
7.637826
 30
0.0
 11
13.592849
 21
7.848794
 31
0.0
  0
LINE
  5
3C1
  8
0
 10
13.592849
 20
7.848794
 30
0.0
 11
13.592849
 21
8.293955
 31
0.0
  0
LINE
  5
3C2
  8
0
 10
13.592849
 20
8.293955
 30
0.0
 11
13.592849
 21
9.348794
 31
0.0
  0
LINE
  5
3C3
  8
0
 10
13.592849
 20
9.348794
 30
0.0
 11
13.592849
 21
9.437826
 31
0.0
  0
LINE
  5
3C4
  8
0
 10
13.592849
 20
9.437826
 30
0.0
 11
13.592849
 21
9.648794
 31
0.0
  0
LINE
  5
3C5
  8
0
 10
13.592849
 20
9.648794
 30
0.0
 11
13.592849
 21
10.093955
 31
0.0
  0
LINE
  5
3C6
  8
0
 10
13.592849
 20
10.093955
 30
0.0
 11
13.592849
 21
11.148794
 31
0.0
  0
LINE
  5
3C7
  8
0
 10
13.592849
 20
11.148794
 30
0.0
 11
13.592849
 21
11.237826
 31
0.0
  0
LINE
  5
3C8
  8
0
 10
13.592849
 20
11.237826
 30
0.0
 11
13.592849
 21
11.448794
 31
0.0
  0
LINE
  5
3C9
  8
0
 10
13.592849
 20
11.448794
 30
0.0
 11
13.592849
 21
11.893955
 31
0.0
  0
LINE
  5
3CA
  8
0
 10
13.592849
 20
11.893955
 30
0.0
 11
13.592849
 21
12.948794
 31
0.0
  0
LINE
  5
3CB
  8
0
 10
13.592849
 20
12.948794
 30
0.0
 11
13.592849
 21
13.037826
 31
0.0
  0
LINE
  5
3CC
  8
0
 10
13.592849
 20
13.037826
 30
0.0
 11
13.592849
 21
13.248794
 31
0.0
  0
LINE
  5
3CD
  8
0
 10
13.592849
 20
13.248794
 30
0.0
 11
13.592849
 21
13.693955
 31
0.0
  0
LINE
  5
3CE
  8
0
 10
13.592849
 20
13.693955
 30
0.0
 11
13.592849
 21
14.546968
 31
0.0
  0
LINE
  5
3CF
  8
0
 10
13.592849
 20
14.546968
 30
0.0
 11
13.592849
 21
14.636
 31
0.0
  0
LINE
  5
3D0
  8
0
 10
14.092849
 20
0.654
 30
0.0
 11
14.092849
 21
0.864968
 31
0.0
  0
LINE
  5
3D1
  8
0
 10
14.092849
 20
0.654
 30
0.0
 11
14.092849
 21
0.864968
 31
0.0
  0
LINE
  5
3D2
  8
0
 10
14.092849
 20
0.864968
 30
0.0
 11
14.092849
 21
1.186374
 31
0.0
  0
LINE
  5
3D3
  8
0
 10
14.092849
 20
1.186374
 30
0.0
 11
14.092849
 21
2.241213
 31
0.0
  0
LINE
  5
3D4
  8
0
 10
14.092849
 20
2.241213
 30
0.0
 11
14.092849
 21
2.330245
 31
0.0
  0
LINE
  5
3D5
  8
0
 10
14.092849
 20
2.330245
 30
0.0
 11
14.092849
 21
2.541213
 31
0.0
  0
LINE
  5
3D6
  8
0
 10
14.092849
 20
2.541213
 30
0.0
 11
14.092849
 21
2.986374
 31
0.0
  0
LINE
  5
3D7
  8
0
 10
14.092849
 20
2.986374
 30
0.0
 11
14.092849
 21
4.041213
 31
0.0
  0
LINE
  5
3D8
  8
0
 10
14.092849
 20
4.041213
 30
0.0
 11
14.092849
 21
4.130245
 31
0.0
  0
LINE
  5
3D9
  8
0
 10
14.092849
 20
4.130245
 30
0.0
 11
14.092849
 21
4.341213
 31
0.0
  0
LINE
  5
3DA
  8
0
 10
14.092849
 20
4.341213
 30
0.0
 11
14.092849
 21
4.786374
 31
0.0
  0
LINE
  5
3DB
  8
0
 10
14.092849
 20
4.786374
 30
0.0
 11
14.092849
 21
5.841213
 31
0.0
  0
LINE
  5
3DC
  8
0
 10
14.092849
 20
5.841213
 30
0.0
 11
14.092849
 21
5.930245
 31
0.0
  0
LINE
  5
3DD
  8
0
 10
14.092849
 20
5.930245
 30
0.0
 11
14.092849
 21
6.141213
 31
0.0
  0
LINE
  5
3DE
  8
0
 10
14.092849
 20
6.141213
 30
0.0
 11
14.092849
 21
6.586374
 31
0.0
  0
LINE
  5
3DF
  8
0
 10
14.092849
 20
6.586374
 30
0.0
 11
14.092849
 21
7.641213
 31
0.0
  0
LINE
  5
3E0
  8
0
 10
14.092849
 20
7.641213
 30
0.0
 11
14.092849
 21
7.730245
 31
0.0
  0
LINE
  5
3E1
  8
0
 10
14.092849
 20
7.730245
 30
0.0
 11
14.092849
 21
7.941213
 31
0.0
  0
LINE
  5
3E2
  8
0
 10
14.092849
 20
7.941213
 30
0.0
 11
14.092849
 21
8.386374
 31
0.0
  0
LINE
  5
3E3
  8
0
 10
14.092849
 20
8.386374
 30
0.0
 11
14.092849
 21
9.441213
 31
0.0
  0
LINE
  5
3E4
  8
0
 10
14.092849
 20
9.441213
 30
0.0
 11
14.092849
 21
9.530245
 31
0.0
  0
LINE
  5
3E5
  8
0
 10
14.092849
 20
9.530245
 30
0.0
 11
14.092849
 21
9.741213
 31
0.0
  0
LINE
  5
3E6
  8
0
 10
14.092849
 20
9.741213
 30
0.0
 11
14.092849
 21
10.186374
 31
0.0
  0
LINE
  5
3E7
  8
0
 10
14.092849
 20
10.186374
 30
0.0
 11
14.092849
 21
11.241213
 31
0.0
  0
LINE
  5
3E8
  8
0
 10
14.092849
 20
11.241213
 30
0.0
 11
14.092849
 21
11.330245
 31
0.0
  0
LINE
  5
3E9
  8
0
 10
14.092849
 20
11.330245
 30
0.0
 11
14.092849
 21
11.541213
 31
0.0
  0
LINE
  5
3EA
  8
0
 10
14.092849
 20
11.541213
 30
0.0
 11
14.092849
 21
11.986374
 31
0.0
  0
LINE
  5
3EB
  8
0
 10
14.092849
 20
11.986374
 30
0.0
 11
14.092849
 21
13.041213
 31
0.0
  0
LINE
  5
3EC
  8
0
 10
14.092849
 20
13.041213
 30
0.0
 11
14.092849
 21
13.130245
 31
0.0
  0
LINE
  5
3ED
  8
0
 10
14.092849
 20
13.130245
 30
0.0
 11
14.092849
 21
13.341213
 31
0.0
  0
LINE
  5
3EE
  8
0
 10
14.092849
 20
13.341213
 30
0.0
 11
14.092849
 21
13.786374
 31
0.0
  0
LINE
  5
3EF
  8
0
 10
14.092849
 20
13.786374
 30
0.0
 11
14.092849
 21
14.547968
 31
0.0
  0
LINE
  5
3F0
  8
0
 10
14.092849
 20
14.547968
 30
0.0
 11
14.092849
 21
14.637
 31
0.0
  0
LINE
  5
3F1
  8
0
 10
14.592849
 20
1.226
 30
0.0
 11
14.592849
 21
1.436968
 31
0.0
  0
LINE
  5
3F2
  8
0
 10
14.592849
 20
1.226
 30
0.0
 11
14.592849
 21
1.436968
 31
0.0
  0
LINE
  5
3F3
  8
0
 10
14.592849
 20
1.436968
 30
0.0
 11
14.592849
 21
1.588916
 31
0.0
  0
LINE
  5
3F4
  8
0
 10
14.592849
 20
1.588916
 30
0.0
 11
14.592849
 21
1.677948
 31
0.0
  0
LINE
  5
3F5
  8
0
 10
14.592849
 20
1.677948
 30
0.0
 11
14.592849
 21
2.73349
 31
0.0
  0
LINE
  5
3F6
  8
0
 10
14.592849
 20
2.73349
 30
0.0
 11
14.592849
 21
3.178652
 31
0.0
  0
LINE
  5
3F7
  8
0
 10
14.592849
 20
3.178652
 30
0.0
 11
14.592849
 21
3.388916
 31
0.0
  0
LINE
  5
3F8
  8
0
 10
14.592849
 20
3.388916
 30
0.0
 11
14.592849
 21
3.477948
 31
0.0
  0
LINE
  5
3F9
  8
0
 10
14.592849
 20
3.477948
 30
0.0
 11
14.592849
 21
4.53349
 31
0.0
  0
LINE
  5
3FA
  8
0
 10
14.592849
 20
4.53349
 30
0.0
 11
14.592849
 21
4.978652
 31
0.0
  0
LINE
  5
3FB
  8
0
 10
14.592849
 20
4.978652
 30
0.0
 11
14.592849
 21
5.188916
 31
0.0
  0
LINE
  5
3FC
  8
0
 10
14.592849
 20
5.188916
 30
0.0
 11
14.592849
 21
5.277948
 31
0.0
  0
LINE
  5
3FD
  8
0
 10
14.592849
 20
5.277948
 30
0.0
 11
14.592849
 21
6.33349
 31
0.0
  0
LINE
  5
3FE
  8
0
 10
14.592849
 20
6.33349
 30
0.0
 11
14.592849
 21
6.778652
 31
0.0
  0
LINE
  5
3FF
  8
0
 10
14.592849
 20
6.778652
 30
0.0
 11
14.592849
 21
6.988916
 31
0.0
  0
LINE
  5
400
  8
0
 10
14.592849
 20
6.988916
 30
0.0
 11
14.592849
 21
7.077948
 31
0.0
  0
LINE
  5
401
  8
0
 10
14.592849
 20
7.077948
 30
0.0
 11
14.592849
 21
8.13349
 31
0.0
  0
LINE
  5
402
  8
0
 10
14.592849
 20
8.13349
 30
0.0
 11
14.592849
 21
8.578652
 31
0.0
  0
LINE
  5
403
  8
0
 10
14.592849
 20
8.578652
 30
0.0
 11
14.592849
 21
8.788916
 31
0.0
  0
LINE
  5
404
  8
0
 10
14.592849
 20
8.788916
 30
0.0
 11
14.592849
 21
8.877948
 31
0.0
  0
LINE
  5
405
  8
0
 10
14.592849
 20
8.877948
 30
0.0
 11
14.592849
 21
9.93349
 31
0.0
  0
LINE
  5
406
  8
0
 10
14.592849
 20
9.93349
 30
0.0
 11
14.592849
 21
10.378652
 31
0.0
  0
LINE
  5
407
  8
0
 10
14.592849
 20
10.378652
 30
0.0
 11
14.592849
 21
10.588916
 31
0.0
  0
LINE
  5
408
  8
0
 10
14.592849
 20
10.588916
 30
0.0
 11
14.592849
 21
10.677948
 31
0.0
  0
LINE
  5
409
  8
0
 10
14.592849
 20
10.677948
 30
0.0
 11
14.592849
 21
11.73349
 31
0.0
  0
LINE
  5
40A
  8
0
 10
14.592849
 20
11.73349
 30
0.0
 11
14.592849
 21
12.178652
 31
0.0
  0
LINE
  5
40B
  8
0
 10
14.592849
 20
12.178652
 30
0.0
 11
14.592849
 21
12.388916
 31
0.0
  0
LINE
  5
40C
  8
0
 10
14.592849
 20
12.388916
 30
0.0
 11
14.592849
 21
12.477948
 31
0.0
  0
LINE
  5
40D
  8
0
 10
14.592849
 20
12.477948
 30
0.0
 11
14.592849
 21
13.53349
 31
0.0
  0
LINE
  5
40E
  8
0
 10
14.592849
 20
13.53349
 30
0.0
 11
14.592849
 21
13.978652
 31
0.0
  0
LINE
  5
40F
  8
0
 10
14.592849
 20
13.978652
 30
0.0
 11
14.592849
 21
14.188916
 31
0.0
  0
LINE
  5
410
  8
0
 10
14.592849
 20
14.188916
 30
0.0
 11
14.592849
 21
14.548968
 31
0.0
  0
LINE
  5
411
  8
0
 10
14.592849
 20
14.548968
 30
0.0
 11
14.592849
 21
14.638
 31
0.0
  0
LINE
  5
412
  8
0
 10
1.234
 20
0.592238
 30
0.0
 11
1.302191
 21
0.592238
 31
0.0
  0
LINE
  5
413
  8
0
 10
1.234
 20
0.592238
 30
0.0
 11
1.302191
 21
0.592238
 31
0.0
  0
LINE
  5
414
  8
0
 10
1.302191
 20
0.592238
 30
0.0
 11
1.391291
 21
0.592238
 31
0.0
  0
LINE
  5
415
  8
0
 10
1.391291
 20
0.592238
 30
0.0
 11
2.446084
 21
0.592238
 31
0.0
  0
LINE
  5
416
  8
0
 10
2.446084
 20
0.592238
 30
0.0
 11
2.891245
 21
0.592238
 31
0.0
  0
LINE
  5
417
  8
0
 10
2.891245
 20
0.592238
 30
0.0
 11
3.102213
 21
0.592238
 31
0.0
  0
LINE
  5
418
  8
0
 10
3.102213
 20
0.592238
 30
0.0
 11
3.191245
 21
0.592238
 31
0.0
  0
LINE
  5
419
  8
0
 10
3.191245
 20
0.592238
 30
0.0
 11
4.246084
 21
0.592238
 31
0.0
  0
LINE
  5
41A
  8
0
 10
4.246084
 20
0.592238
 30
0.0
 11
4.691245
 21
0.592238
 31
0.0
  0
LINE
  5
41B
  8
0
 10
4.691245
 20
0.592238
 30
0.0
 11
4.902213
 21
0.592238
 31
0.0
  0
LINE
  5
41C
  8
0
 10
4.902213
 20
0.592238
 30
0.0
 11
4.991245
 21
0.592238
 31
0.0
  0
LINE
  5
41D
  8
0
 10
4.991245
 20
0.592238
 30
0.0
 11
6.046084
 21
0.592238
 31
0.0
  0
LINE
  5
41E
  8
0
 10
6.046084
 20
0.592238
 30
0.0
 11
6.491245
 21
0.592238
 31
0.0
  0
LINE
  5
41F
  8
0
 10
6.491245
 20
0.592238
 30
0.0
 11
6.702213
 21
0.592238
 31
0.0
  0
LINE
  5
420
  8
0
 10
6.702213
 20
0.592238
 30
0.0
 11
6.791245
 21
0.592238
 31
0.0
  0
LINE
  5
421
  8
0
 10
6.791245
 20
0.592238
 30
0.0
 11
6.877013
 21
0.592238
 31
0.0
  0
LINE
  5
422
  8
0
 10
6.877013
 20
0.592238
 30
0.0
 11
6.965748
 21
0.592238
 31
0.0
  0
LINE
  5
423
  8
0
 10
6.965748
 20
0.592238
 30
0.0
 11
8.020587
 21
0.592238
 31
0.0
  0
LINE
  5
424
  8
0
 10
8.020587
 20
0.592238
 30
0.0
 11
8.466045
 21
0.592238
 31
0.0
  0
LINE
  5
425
  8
0
 10
8.466045
 20
0.592238
 30
0.0
 11
8.677013
 21
0.592238
 31
0.0
  0
LINE
  5
426
  8
0
 10
8.677013
 20
0.592238
 30
0.0
 11
8.765748
 21
0.592238
 31
0.0
  0
LINE
  5
427
  8
0
 10
8.765748
 20
0.592238
 30
0.0
 11
9.820587
 21
0.592238
 31
0.0
  0
LINE
  5
428
  8
0
 10
9.820587
 20
0.592238
 30
0.0
 11
10.266045
 21
0.592238
 31
0.0
  0
LINE
  5
429
  8
0
 10
10.266045
 20
0.592238
 30
0.0
 11
10.477013
 21
0.592238
 31
0.0
  0
LINE
  5
42A
  8
0
 10
10.477013
 20
0.592238
 30
0.0
 11
10.565748
 21
0.592238
 31
0.0
  0
LINE
  5
42B
  8
0
 10
10.565748
 20
0.592238
 30
0.0
 11
11.620587
 21
0.592238
 31
0.0
  0
LINE
  5
42C
  8
0
 10
11.620587
 20
0.592238
 30
0.0
 11
12.066045
 21
0.592238
 31
0.0
  0
LINE
  5
42D
  8
0
 10
12.066045
 20
0.592238
 30
0.0
 11
12.277013
 21
0.592238
 31
0.0
  0
LINE
  5
42E
  8
0
 10
12.277013
 20
0.592238
 30
0.0
 11
12.365748
 21
0.592238
 31
0.0
  0
LINE
  5
42F
  8
0
 10
12.365748
 20
0.592238
 30
0.0
 11
13.420587
 21
0.592238
 31
0.0
  0
LINE
  5
430
  8
0
 10
13.420587
 20
0.592238
 30
0.0
 11
13.720032
 21
0.592238
 31
0.0
  0
LINE
  5
431
  8
0
 10
13.720032
 20
0.592238
 30
0.0
 11
13.931
 21
0.592238
 31
0.0
  0
LINE
  5
432
  8
0
 10
0.651
 20
1.092238
 30
0.0
 11
0.740032
 21
1.092238
 31
0.0
  0
LINE
  5
433
  8
0
 10
0.651
 20
1.092238
 30
0.0
 11
0.740032
 21
1.092238
 31
0.0
  0
LINE
  5
434
  8
0
 10
0.740032
 20
1.092238
 30
0.0
 11
1.433413
 21
1.092238
 31
0.0
  0
LINE
  5
435
  8
0
 10
1.433413
 20
1.092238
 30
0.0
 11
1.878871
 21
1.092238
 31
0.0
  0
LINE
  5
436
  8
0
 10
1.878871
 20
1.092238
 30
0.0
 11
2.089839
 21
1.092238
 31
0.0
  0
LINE
  5
437
  8
0
 10
2.089839
 20
1.092238
 30
0.0
 11
2.178574
 21
1.092238
 31
0.0
  0
LINE
  5
438
  8
0
 10
2.178574
 20
1.092238
 30
0.0
 11
3.233413
 21
1.092238
 31
0.0
  0
LINE
  5
439
  8
0
 10
3.233413
 20
1.092238
 30
0.0
 11
3.678871
 21
1.092238
 31
0.0
  0
LINE
  5
43A
  8
0
 10
3.678871
 20
1.092238
 30
0.0
 11
3.889839
 21
1.092238
 31
0.0
  0
LINE
  5
43B
  8
0
 10
3.889839
 20
1.092238
 30
0.0
 11
3.978574
 21
1.092238
 31
0.0
  0
LINE
  5
43C
  8
0
 10
3.978574
 20
1.092238
 30
0.0
 11
5.033413
 21
1.092238
 31
0.0
  0
LINE
  5
43D
  8
0
 10
5.033413
 20
1.092238
 30
0.0
 11
5.478871
 21
1.092238
 31
0.0
  0
LINE
  5
43E
  8
0
 10
5.478871
 20
1.092238
 30
0.0
 11
5.689839
 21
1.092238
 31
0.0
  0
LINE
  5
43F
  8
0
 10
5.689839
 20
1.092238
 30
0.0
 11
5.778574
 21
1.092238
 31
0.0
  0
LINE
  5
440
  8
0
 10
5.778574
 20
1.092238
 30
0.0
 11
6.833413
 21
1.092238
 31
0.0
  0
LINE
  5
441
  8
0
 10
6.833413
 20
1.092238
 30
0.0
 11
7.278871
 21
1.092238
 31
0.0
  0
LINE
  5
442
  8
0
 10
7.278871
 20
1.092238
 30
0.0
 11
7.489839
 21
1.092238
 31
0.0
  0
LINE
  5
443
  8
0
 10
7.489839
 20
1.092238
 30
0.0
 11
7.578574
 21
1.092238
 31
0.0
  0
LINE
  5
444
  8
0
 10
7.578574
 20
1.092238
 30
0.0
 11
8.633413
 21
1.092238
 31
0.0
  0
LINE
  5
445
  8
0
 10
8.633413
 20
1.092238
 30
0.0
 11
9.078871
 21
1.092238
 31
0.0
  0
LINE
  5
446
  8
0
 10
9.078871
 20
1.092238
 30
0.0
 11
9.289839
 21
1.092238
 31
0.0
  0
LINE
  5
447
  8
0
 10
9.289839
 20
1.092238
 30
0.0
 11
9.378574
 21
1.092238
 31
0.0
  0
LINE
  5
448
  8
0
 10
9.378574
 20
1.092238
 30
0.0
 11
10.433413
 21
1.092238
 31
0.0
  0
LINE
  5
449
  8
0
 10
10.433413
 20
1.092238
 30
0.0
 11
10.878871
 21
1.092238
 31
0.0
  0
LINE
  5
44A
  8
0
 10
10.878871
 20
1.092238
 30
0.0
 11
11.089839
 21
1.092238
 31
0.0
  0
LINE
  5
44B
  8
0
 10
11.089839
 20
1.092238
 30
0.0
 11
11.178574
 21
1.092238
 31
0.0
  0
LINE
  5
44C
  8
0
 10
11.178574
 20
1.092238
 30
0.0
 11
12.233413
 21
1.092238
 31
0.0
  0
LINE
  5
44D
  8
0
 10
12.233413
 20
1.092238
 30
0.0
 11
12.678871
 21
1.092238
 31
0.0
  0
LINE
  5
44E
  8
0
 10
12.678871
 20
1.092238
 30
0.0
 11
12.889839
 21
1.092238
 31
0.0
  0
LINE
  5
44F
  8
0
 10
12.889839
 20
1.092238
 30
0.0
 11
12.978574
 21
1.092238
 31
0.0
  0
LINE
  5
450
  8
0
 10
12.978574
 20
1.092238
 30
0.0
 11
14.033413
 21
1.092238
 31
0.0
  0
LINE
  5
451
  8
0
 10
14.033413
 20
1.092238
 30
0.0
 11
14.326032
 21
1.092238
 31
0.0
  0
LINE
  5
452
  8
0
 10
14.326032
 20
1.092238
 30
0.0
 11
14.537
 21
1.092238
 31
0.0
  0
LINE
  5
453
  8
0
 10
0.519
 20
1.592238
 30
0.0
 11
0.608032
 21
1.592238
 31
0.0
  0
LINE
  5
454
  8
0
 10
0.519
 20
1.592238
 30
0.0
 11
0.608032
 21
1.592238
 31
0.0
  0
LINE
  5
455
  8
0
 10
0.608032
 20
1.592238
 30
0.0
 11
1.483548
 21
1.592238
 31
0.0
  0
LINE
  5
456
  8
0
 10
1.483548
 20
1.592238
 30
0.0
 11
1.92871
 21
1.592238
 31
0.0
  0
LINE
  5
457
  8
0
 10
1.92871
 20
1.592238
 30
0.0
 11
2.139677
 21
1.592238
 31
0.0
  0
LINE
  5
458
  8
0
 10
2.139677
 20
1.592238
 30
0.0
 11
2.22871
 21
1.592238
 31
0.0
  0
LINE
  5
459
  8
0
 10
2.22871
 20
1.592238
 30
0.0
 11
3.283548
 21
1.592238
 31
0.0
  0
LINE
  5
45A
  8
0
 10
3.283548
 20
1.592238
 30
0.0
 11
3.72871
 21
1.592238
 31
0.0
  0
LINE
  5
45B
  8
0
 10
3.72871
 20
1.592238
 30
0.0
 11
3.939677
 21
1.592238
 31
0.0
  0
LINE
  5
45C
  8
0
 10
3.939677
 20
1.592238
 30
0.0
 11
4.02871
 21
1.592238
 31
0.0
  0
LINE
  5
45D
  8
0
 10
4.02871
 20
1.592238
 30
0.0
 11
5.083548
 21
1.592238
 31
0.0
  0
LINE
  5
45E
  8
0
 10
5.083548
 20
1.592238
 30
0.0
 11
5.52871
 21
1.592238
 31
0.0
  0
LINE
  5
45F
  8
0
 10
5.52871
 20
1.592238
 30
0.0
 11
5.739677
 21
1.592238
 31
0.0
  0
LINE
  5
460
  8
0
 10
5.739677
 20
1.592238
 30
0.0
 11
5.82871
 21
1.592238
 31
0.0
  0
LINE
  5
461
  8
0
 10
5.82871
 20
1.592238
 30
0.0
 11
6.883548
 21
1.592238
 31
0.0
  0
LINE
  5
462
  8
0
 10
6.883548
 20
1.592238
 30
0.0
 11
7.32871
 21
1.592238
 31
0.0
  0
LINE
  5
463
  8
0
 10
7.32871
 20
1.592238
 30
0.0
 11
7.539677
 21
1.592238
 31
0.0
  0
LINE
  5
464
  8
0
 10
7.539677
 20
1.592238
 30
0.0
 11
7.62871
 21
1.592238
 31
0.0
  0
LINE
  5
465
  8
0
 10
7.62871
 20
1.592238
 30
0.0
 11
8.683548
 21
1.592238
 31
0.0
  0
LINE
  5
466
  8
0
 10
8.683548
 20
1.592238
 30
0.0
 11
9.12871
 21
1.592238
 31
0.0
  0
LINE
  5
467
  8
0
 10
9.12871
 20
1.592238
 30
0.0
 11
9.339677
 21
1.592238
 31
0.0
  0
LINE
  5
468
  8
0
 10
9.339677
 20
1.592238
 30
0.0
 11
9.42871
 21
1.592238
 31
0.0
  0
LINE
  5
469
  8
0
 10
9.42871
 20
1.592238
 30
0.0
 11
10.483548
 21
1.592238
 31
0.0
  0
LINE
  5
46A
  8
0
 10
10.483548
 20
1.592238
 30
0.0
 11
10.92871
 21
1.592238
 31
0.0
  0
LINE
  5
46B
  8
0
 10
10.92871
 20
1.592238
 30
0.0
 11
11.139677
 21
1.592238
 31
0.0
  0
LINE
  5
46C
  8
0
 10
11.139677
 20
1.592238
 30
0.0
 11
11.22871
 21
1.592238
 31
0.0
  0
LINE
  5
46D
  8
0
 10
11.22871
 20
1.592238
 30
0.0
 11
12.283548
 21
1.592238
 31
0.0
  0
LINE
  5
46E
  8
0
 10
12.283548
 20
1.592238
 30
0.0
 11
12.72871
 21
1.592238
 31
0.0
  0
LINE
  5
46F
  8
0
 10
12.72871
 20
1.592238
 30
0.0
 11
12.939677
 21
1.592238
 31
0.0
  0
LINE
  5
470
  8
0
 10
12.939677
 20
1.592238
 30
0.0
 11
13.02871
 21
1.592238
 31
0.0
  0
LINE
  5
471
  8
0
 10
13.02871
 20
1.592238
 30
0.0
 11
14.083548
 21
1.592238
 31
0.0
  0
LINE
  5
472
  8
0
 10
14.083548
 20
1.592238
 30
0.0
 11
14.453032
 21
1.592238
 31
0.0
  0
LINE
  5
473
  8
0
 10
14.453032
 20
1.592238
 30
0.0
 11
14.664
 21
1.592238
 31
0.0
  0
LINE
  5
474
  8
0
 10
0.456
 20
2.092238
 30
0.0
 11
0.545032
 21
2.092238
 31
0.0
  0
LINE
  5
475
  8
0
 10
0.456
 20
2.092238
 30
0.0
 11
0.545032
 21
2.092238
 31
0.0
  0
LINE
  5
476
  8
0
 10
0.545032
 20
2.092238
 30
0.0
 11
1.509858
 21
2.092238
 31
0.0
  0
LINE
  5
477
  8
0
 10
1.509858
 20
2.092238
 30
0.0
 11
1.955019
 21
2.092238
 31
0.0
  0
LINE
  5
478
  8
0
 10
1.955019
 20
2.092238
 30
0.0
 11
2.165987
 21
2.092238
 31
0.0
  0
LINE
  5
479
  8
0
 10
2.165987
 20
2.092238
 30
0.0
 11
2.255019
 21
2.092238
 31
0.0
  0
LINE
  5
47A
  8
0
 10
2.255019
 20
2.092238
 30
0.0
 11
3.309858
 21
2.092238
 31
0.0
  0
LINE
  5
47B
  8
0
 10
3.309858
 20
2.092238
 30
0.0
 11
3.755019
 21
2.092238
 31
0.0
  0
LINE
  5
47C
  8
0
 10
3.755019
 20
2.092238
 30
0.0
 11
3.965987
 21
2.092238
 31
0.0
  0
LINE
  5
47D
  8
0
 10
3.965987
 20
2.092238
 30
0.0
 11
4.055019
 21
2.092238
 31
0.0
  0
LINE
  5
47E
  8
0
 10
4.055019
 20
2.092238
 30
0.0
 11
5.109858
 21
2.092238
 31
0.0
  0
LINE
  5
47F
  8
0
 10
5.109858
 20
2.092238
 30
0.0
 11
5.555019
 21
2.092238
 31
0.0
  0
LINE
  5
480
  8
0
 10
5.555019
 20
2.092238
 30
0.0
 11
5.765987
 21
2.092238
 31
0.0
  0
LINE
  5
481
  8
0
 10
5.765987
 20
2.092238
 30
0.0
 11
5.855019
 21
2.092238
 31
0.0
  0
LINE
  5
482
  8
0
 10
5.855019
 20
2.092238
 30
0.0
 11
6.909858
 21
2.092238
 31
0.0
  0
LINE
  5
483
  8
0
 10
6.909858
 20
2.092238
 30
0.0
 11
7.355019
 21
2.092238
 31
0.0
  0
LINE
  5
484
  8
0
 10
7.355019
 20
2.092238
 30
0.0
 11
7.565987
 21
2.092238
 31
0.0
  0
LINE
  5
485
  8
0
 10
7.565987
 20
2.092238
 30
0.0
 11
7.655019
 21
2.092238
 31
0.0
  0
LINE
  5
486
  8
0
 10
7.655019
 20
2.092238
 30
0.0
 11
8.709858
 21
2.092238
 31
0.0
  0
LINE
  5
487
  8
0
 10
8.709858
 20
2.092238
 30
0.0
 11
9.155019
 21
2.092238
 31
0.0
  0
LINE
  5
488
  8
0
 10
9.155019
 20
2.092238
 30
0.0
 11
9.365987
 21
2.092238
 31
0.0
  0
LINE
  5
489
  8
0
 10
9.365987
 20
2.092238
 30
0.0
 11
9.455019
 21
2.092238
 31
0.0
  0
LINE
  5
48A
  8
0
 10
9.455019
 20
2.092238
 30
0.0
 11
10.509858
 21
2.092238
 31
0.0
  0
LINE
  5
48B
  8
0
 10
10.509858
 20
2.092238
 30
0.0
 11
10.955019
 21
2.092238
 31
0.0
  0
LINE
  5
48C
  8
0
 10
10.955019
 20
2.092238
 30
0.0
 11
11.165987
 21
2.092238
 31
0.0
  0
LINE
  5
48D
  8
0
 10
11.165987
 20
2.092238
 30
0.0
 11
11.255019
 21
2.092238
 31
0.0
  0
LINE
  5
48E
  8
0
 10
11.255019
 20
2.092238
 30
0.0
 11
12.309858
 21
2.092238
 31
0.0
  0
LINE
  5
48F
  8
0
 10
12.309858
 20
2.092238
 30
0.0
 11
12.755019
 21
2.092238
 31
0.0
  0
LINE
  5
490
  8
0
 10
12.755019
 20
2.092238
 30
0.0
 11
12.965987
 21
2.092238
 31
0.0
  0
LINE
  5
491
  8
0
 10
12.965987
 20
2.092238
 30
0.0
 11
13.055019
 21
2.092238
 31
0.0
  0
LINE
  5
492
  8
0
 10
13.055019
 20
2.092238
 30
0.0
 11
14.109858
 21
2.092238
 31
0.0
  0
LINE
  5
493
  8
0
 10
14.109858
 20
2.092238
 30
0.0
 11
14.517032
 21
2.092238
 31
0.0
  0
LINE
  5
494
  8
0
 10
14.517032
 20
2.092238
 30
0.0
 11
14.728
 21
2.092238
 31
0.0
  0
LINE
  5
495
  8
0
 10
0.45
 20
2.592238
 30
0.0
 11
0.539032
 21
2.592238
 31
0.0
  0
LINE
  5
496
  8
0
 10
0.45
 20
2.592238
 30
0.0
 11
0.539032
 21
2.592238
 31
0.0
  0
LINE
  5
497
  8
0
 10
0.539032
 20
2.592238
 30
0.0
 11
1.515813
 21
2.592238
 31
0.0
  0
LINE
  5
498
  8
0
 10
1.515813
 20
2.592238
 30
0.0
 11
1.961271
 21
2.592238
 31
0.0
  0
LINE
  5
499
  8
0
 10
1.961271
 20
2.592238
 30
0.0
 11
2.172239
 21
2.592238
 31
0.0
  0
LINE
  5
49A
  8
0
 10
2.172239
 20
2.592238
 30
0.0
 11
2.260974
 21
2.592238
 31
0.0
  0
LINE
  5
49B
  8
0
 10
2.260974
 20
2.592238
 30
0.0
 11
3.315813
 21
2.592238
 31
0.0
  0
LINE
  5
49C
  8
0
 10
3.315813
 20
2.592238
 30
0.0
 11
3.761271
 21
2.592238
 31
0.0
  0
LINE
  5
49D
  8
0
 10
3.761271
 20
2.592238
 30
0.0
 11
3.972239
 21
2.592238
 31
0.0
  0
LINE
  5
49E
  8
0
 10
3.972239
 20
2.592238
 30
0.0
 11
4.060974
 21
2.592238
 31
0.0
  0
LINE
  5
49F
  8
0
 10
4.060974
 20
2.592238
 30
0.0
 11
5.115813
 21
2.592238
 31
0.0
  0
LINE
  5
4A0
  8
0
 10
5.115813
 20
2.592238
 30
0.0
 11
5.561271
 21
2.592238
 31
0.0
  0
LINE
  5
4A1
  8
0
 10
5.561271
 20
2.592238
 30
0.0
 11
5.772239
 21
2.592238
 31
0.0
  0
LINE
  5
4A2
  8
0
 10
5.772239
 20
2.592238
 30
0.0
 11
5.860974
 21
2.592238
 31
0.0
  0
LINE
  5
4A3
  8
0
 10
5.860974
 20
2.592238
 30
0.0
 11
6.915813
 21
2.592238
 31
0.0
  0
LINE
  5
4A4
  8
0
 10
6.915813
 20
2.592238
 30
0.0
 11
7.361271
 21
2.592238
 31
0.0
  0
LINE
  5
4A5
  8
0
 10
7.361271
 20
2.592238
 30
0.0
 11
7.572239
 21
2.592238
 31
0.0
  0
LINE
  5
4A6
  8
0
 10
7.572239
 20
2.592238
 30
0.0
 11
7.660974
 21
2.592238
 31
0.0
  0
LINE
  5
4A7
  8
0
 10
7.660974
 20
2.592238
 30
0.0
 11
8.715813
 21
2.592238
 31
0.0
  0
LINE
  5
4A8
  8
0
 10
8.715813
 20
2.592238
 30
0.0
 11
9.161271
 21
2.592238
 31
0.0
  0
LINE
  5
4A9
  8
0
 10
9.161271
 20
2.592238
 30
0.0
 11
9.372239
 21
2.592238
 31
0.0
  0
LINE
  5
4AA
  8
0
 10
9.372239
 20
2.592238
 30
0.0
 11
9.460974
 21
2.592238
 31
0.0
  0
LINE
  5
4AB
  8
0
 10
9.460974
 20
2.592238
 30
0.0
 11
10.515813
 21
2.592238
 31
0.0
  0
LINE
  5
4AC
  8
0
 10
10.515813
 20
2.592238
 30
0.0
 11
10.961271
 21
2.592238
 31
0.0
  0
LINE
  5
4AD
  8
0
 10
10.961271
 20
2.592238
 30
0.0
 11
11.172239
 21
2.592238
 31
0.0
  0
LINE
  5
4AE
  8
0
 10
11.172239
 20
2.592238
 30
0.0
 11
11.260974
 21
2.592238
 31
0.0
  0
LINE
  5
4AF
  8
0
 10
11.260974
 20
2.592238
 30
0.0
 11
12.315813
 21
2.592238
 31
0.0
  0
LINE
  5
4B0
  8
0
 10
12.315813
 20
2.592238
 30
0.0
 11
12.761271
 21
2.592238
 31
0.0
  0
LINE
  5
4B1
  8
0
 10
12.761271
 20
2.592238
 30
0.0
 11
12.972239
 21
2.592238
 31
0.0
  0
LINE
  5
4B2
  8
0
 10
12.972239
 20
2.592238
 30
0.0
 11
13.060974
 21
2.592238
 31
0.0
  0
LINE
  5
4B3
  8
0
 10
13.060974
 20
2.592238
 30
0.0
 11
14.115813
 21
2.592238
 31
0.0
  0
LINE
  5
4B4
  8
0
 10
14.115813
 20
2.592238
 30
0.0
 11
14.528032
 21
2.592238
 31
0.0
  0
LINE
  5
4B5
  8
0
 10
14.528032
 20
2.592238
 30
0.0
 11
14.739
 21
2.592238
 31
0.0
  0
LINE
  5
4B6
  8
0
 10
0.463
 20
3.092238
 30
0.0
 11
0.552032
 21
3.092238
 31
0.0
  0
LINE
  5
4B7
  8
0
 10
0.463
 20
3.092238
 30
0.0
 11
0.552032
 21
3.092238
 31
0.0
  0
LINE
  5
4B8
  8
0
 10
0.552032
 20
3.092238
 30
0.0
 11
1.507716
 21
3.092238
 31
0.0
  0
LINE
  5
4B9
  8
0
 10
1.507716
 20
3.092238
 30
0.0
 11
1.952877
 21
3.092238
 31
0.0
  0
LINE
  5
4BA
  8
0
 10
1.952877
 20
3.092238
 30
0.0
 11
2.163845
 21
3.092238
 31
0.0
  0
LINE
  5
4BB
  8
0
 10
2.163845
 20
3.092238
 30
0.0
 11
2.252877
 21
3.092238
 31
0.0
  0
LINE
  5
4BC
  8
0
 10
2.252877
 20
3.092238
 30
0.0
 11
3.307716
 21
3.092238
 31
0.0
  0
LINE
  5
4BD
  8
0
 10
3.307716
 20
3.092238
 30
0.0
 11
3.752877
 21
3.092238
 31
0.0
  0
LINE
  5
4BE
  8
0
 10
3.752877
 20
3.092238
 30
0.0
 11
3.963845
 21
3.092238
 31
0.0
  0
LINE
  5
4BF
  8
0
 10
3.963845
 20
3.092238
 30
0.0
 11
4.052877
 21
3.092238
 31
0.0
  0
LINE
  5
4C0
  8
0
 10
4.052877
 20
3.092238
 30
0.0
 11
5.107716
 21
3.092238
 31
0.0
  0
LINE
  5
4C1
  8
0
 10
5.107716
 20
3.092238
 30
0.0
 11
5.552877
 21
3.092238
 31
0.0
  0
LINE
  5
4C2
  8
0
 10
5.552877
 20
3.092238
 30
0.0
 11
5.763845
 21
3.092238
 31
0.0
  0
LINE
  5
4C3
  8
0
 10
5.763845
 20
3.092238
 30
0.0
 11
5.852877
 21
3.092238
 31
0.0
  0
LINE
  5
4C4
  8
0
 10
5.852877
 20
3.092238
 30
0.0
 11
6.907716
 21
3.092238
 31
0.0
  0
LINE
  5
4C5
  8
0
 10
6.907716
 20
3.092238
 30
0.0
 11
7.352877
 21
3.092238
 31
0.0
  0
LINE
  5
4C6
  8
0
 10
7.352877
 20
3.092238
 30
0.0
 11
7.563845
 21
3.092238
 31
0.0
  0
LINE
  5
4C7
  8
0
 10
7.563845
 20
3.092238
 30
0.0
 11
7.652877
 21
3.092238
 31
0.0
  0
LINE
  5
4C8
  8
0
 10
7.652877
 20
3.092238
 30
0.0
 11
8.707716
 21
3.092238
 31
0.0
  0
LINE
  5
4C9
  8
0
 10
8.707716
 20
3.092238
 30
0.0
 11
9.152877
 21
3.092238
 31
0.0
  0
LINE
  5
4CA
  8
0
 10
9.152877
 20
3.092238
 30
0.0
 11
9.363845
 21
3.092238
 31
0.0
  0
LINE
  5
4CB
  8
0
 10
9.363845
 20
3.092238
 30
0.0
 11
9.452877
 21
3.092238
 31
0.0
  0
LINE
  5
4CC
  8
0
 10
9.452877
 20
3.092238
 30
0.0
 11
10.507716
 21
3.092238
 31
0.0
  0
LINE
  5
4CD
  8
0
 10
10.507716
 20
3.092238
 30
0.0
 11
10.952877
 21
3.092238
 31
0.0
  0
LINE
  5
4CE
  8
0
 10
10.952877
 20
3.092238
 30
0.0
 11
11.163845
 21
3.092238
 31
0.0
  0
LINE
  5
4CF
  8
0
 10
11.163845
 20
3.092238
 30
0.0
 11
11.252877
 21
3.092238
 31
0.0
  0
LINE
  5
4D0
  8
0
 10
11.252877
 20
3.092238
 30
0.0
 11
12.307716
 21
3.092238
 31
0.0
  0
LINE
  5
4D1
  8
0
 10
12.307716
 20
3.092238
 30
0.0
 11
12.752877
 21
3.092238
 31
0.0
  0
LINE
  5
4D2
  8
0
 10
12.752877
 20
3.092238
 30
0.0
 11
12.963845
 21
3.092238
 31
0.0
  0
LINE
  5
4D3
  8
0
 10
12.963845
 20
3.092238
 30
0.0
 11
13.052877
 21
3.092238
 31
0.0
  0
LINE
  5
4D4
  8
0
 10
13.052877
 20
3.092238
 30
0.0
 11
14.107716
 21
3.092238
 31
0.0
  0
LINE
  5
4D5
  8
0
 10
14.107716
 20
3.092238
 30
0.0
 11
14.511032
 21
3.092238
 31
0.0
  0
LINE
  5
4D6
  8
0
 10
14.511032
 20
3.092238
 30
0.0
 11
14.722
 21
3.092238
 31
0.0
  0
LINE
  5
4D7
  8
0
 10
0.476
 20
3.592238
 30
0.0
 11
0.565032
 21
3.592238
 31
0.0
  0
LINE
  5
4D8
  8
0
 10
0.476
 20
3.592238
 30
0.0
 11
0.565032
 21
3.592238
 31
0.0
  0
LINE
  5
4D9
  8
0
 10
0.565032
 20
3.592238
 30
0.0
 11
1.498916
 21
3.592238
 31
0.0
  0
LINE
  5
4DA
  8
0
 10
1.498916
 20
3.592238
 30
0.0
 11
1.944077
 21
3.592238
 31
0.0
  0
LINE
  5
4DB
  8
0
 10
1.944077
 20
3.592238
 30
0.0
 11
2.155045
 21
3.592238
 31
0.0
  0
LINE
  5
4DC
  8
0
 10
2.155045
 20
3.592238
 30
0.0
 11
2.244077
 21
3.592238
 31
0.0
  0
LINE
  5
4DD
  8
0
 10
2.244077
 20
3.592238
 30
0.0
 11
3.298916
 21
3.592238
 31
0.0
  0
LINE
  5
4DE
  8
0
 10
3.298916
 20
3.592238
 30
0.0
 11
3.744077
 21
3.592238
 31
0.0
  0
LINE
  5
4DF
  8
0
 10
3.744077
 20
3.592238
 30
0.0
 11
3.955045
 21
3.592238
 31
0.0
  0
LINE
  5
4E0
  8
0
 10
3.955045
 20
3.592238
 30
0.0
 11
4.044077
 21
3.592238
 31
0.0
  0
LINE
  5
4E1
  8
0
 10
4.044077
 20
3.592238
 30
0.0
 11
5.098916
 21
3.592238
 31
0.0
  0
LINE
  5
4E2
  8
0
 10
5.098916
 20
3.592238
 30
0.0
 11
5.544077
 21
3.592238
 31
0.0
  0
LINE
  5
4E3
  8
0
 10
5.544077
 20
3.592238
 30
0.0
 11
5.755045
 21
3.592238
 31
0.0
  0
LINE
  5
4E4
  8
0
 10
5.755045
 20
3.592238
 30
0.0
 11
5.844077
 21
3.592238
 31
0.0
  0
LINE
  5
4E5
  8
0
 10
5.844077
 20
3.592238
 30
0.0
 11
6.898916
 21
3.592238
 31
0.0
  0
LINE
  5
4E6
  8
0
 10
6.898916
 20
3.592238
 30
0.0
 11
7.344077
 21
3.592238
 31
0.0
  0
LINE
  5
4E7
  8
0
 10
7.344077
 20
3.592238
 30
0.0
 11
7.555045
 21
3.592238
 31
0.0
  0
LINE
  5
4E8
  8
0
 10
7.555045
 20
3.592238
 30
0.0
 11
7.644077
 21
3.592238
 31
0.0
  0
LINE
  5
4E9
  8
0
 10
7.644077
 20
3.592238
 30
0.0
 11
8.698916
 21
3.592238
 31
0.0
  0
LINE
  5
4EA
  8
0
 10
8.698916
 20
3.592238
 30
0.0
 11
9.144077
 21
3.592238
 31
0.0
  0
LINE
  5
4EB
  8
0
 10
9.144077
 20
3.592238
 30
0.0
 11
9.355045
 21
3.592238
 31
0.0
  0
LINE
  5
4EC
  8
0
 10
9.355045
 20
3.592238
 30
0.0
 11
9.444077
 21
3.592238
 31
0.0
  0
LINE
  5
4ED
  8
0
 10
9.444077
 20
3.592238
 30
0.0
 11
10.498916
 21
3.592238
 31
0.0
  0
LINE
  5
4EE
  8
0
 10
10.498916
 20
3.592238
 30
0.0
 11
10.944077
 21
3.592238
 31
0.0
  0
LINE
  5
4EF
  8
0
 10
10.944077
 20
3.592238
 30
0.0
 11
11.155045
 21
3.592238
 31
0.0
  0
LINE
  5
4F0
  8
0
 10
11.155045
 20
3.592238
 30
0.0
 11
11.244077
 21
3.592238
 31
0.0
  0
LINE
  5
4F1
  8
0
 10
11.244077
 20
3.592238
 30
0.0
 11
12.298916
 21
3.592238
 31
0.0
  0
LINE
  5
4F2
  8
0
 10
12.298916
 20
3.592238
 30
0.0
 11
12.744077
 21
3.592238
 31
0.0
  0
LINE
  5
4F3
  8
0
 10
12.744077
 20
3.592238
 30
0.0
 11
12.955045
 21
3.592238
 31
0.0
  0
LINE
  5
4F4
  8
0
 10
12.955045
 20
3.592238
 30
0.0
 11
13.044077
 21
3.592238
 31
0.0
  0
LINE
  5
4F5
  8
0
 10
13.044077
 20
3.592238
 30
0.0
 11
14.098916
 21
3.592238
 31
0.0
  0
LINE
  5
4F6
  8
0
 10
14.098916
 20
3.592238
 30
0.0
 11
14.493032
 21
3.592238
 31
0.0
  0
LINE
  5
4F7
  8
0
 10
14.493032
 20
3.592238
 30
0.0
 11
14.704
 21
3.592238
 31
0.0
  0
LINE
  5
4F8
  8
0
 10
0.488
 20
4.092238
 30
0.0
 11
0.577032
 21
4.092238
 31
0.0
  0
LINE
  5
4F9
  8
0
 10
0.488
 20
4.092238
 30
0.0
 11
0.577032
 21
4.092238
 31
0.0
  0
LINE
  5
4FA
  8
0
 10
0.577032
 20
4.092238
 30
0.0
 11
1.490523
 21
4.092238
 31
0.0
  0
LINE
  5
4FB
  8
0
 10
1.490523
 20
4.092238
 30
0.0
 11
1.935684
 21
4.092238
 31
0.0
  0
LINE
  5
4FC
  8
0
 10
1.935684
 20
4.092238
 30
0.0
 11
2.145948
 21
4.092238
 31
0.0
  0
LINE
  5
4FD
  8
0
 10
2.145948
 20
4.092238
 30
0.0
 11
2.234981
 21
4.092238
 31
0.0
  0
LINE
  5
4FE
  8
0
 10
2.234981
 20
4.092238
 30
0.0
 11
3.290523
 21
4.092238
 31
0.0
  0
LINE
  5
4FF
  8
0
 10
3.290523
 20
4.092238
 30
0.0
 11
3.735684
 21
4.092238
 31
0.0
  0
LINE
  5
500
  8
0
 10
3.735684
 20
4.092238
 30
0.0
 11
3.945948
 21
4.092238
 31
0.0
  0
LINE
  5
501
  8
0
 10
3.945948
 20
4.092238
 30
0.0
 11
4.034981
 21
4.092238
 31
0.0
  0
LINE
  5
502
  8
0
 10
4.034981
 20
4.092238
 30
0.0
 11
5.090523
 21
4.092238
 31
0.0
  0
LINE
  5
503
  8
0
 10
5.090523
 20
4.092238
 30
0.0
 11
5.535684
 21
4.092238
 31
0.0
  0
LINE
  5
504
  8
0
 10
5.535684
 20
4.092238
 30
0.0
 11
5.745948
 21
4.092238
 31
0.0
  0
LINE
  5
505
  8
0
 10
5.745948
 20
4.092238
 30
0.0
 11
5.834981
 21
4.092238
 31
0.0
  0
LINE
  5
506
  8
0
 10
5.834981
 20
4.092238
 30
0.0
 11
6.890523
 21
4.092238
 31
0.0
  0
LINE
  5
507
  8
0
 10
6.890523
 20
4.092238
 30
0.0
 11
7.335684
 21
4.092238
 31
0.0
  0
LINE
  5
508
  8
0
 10
7.335684
 20
4.092238
 30
0.0
 11
7.545948
 21
4.092238
 31
0.0
  0
LINE
  5
509
  8
0
 10
7.545948
 20
4.092238
 30
0.0
 11
7.634981
 21
4.092238
 31
0.0
  0
LINE
  5
50A
  8
0
 10
7.634981
 20
4.092238
 30
0.0
 11
8.690523
 21
4.092238
 31
0.0
  0
LINE
  5
50B
  8
0
 10
8.690523
 20
4.092238
 30
0.0
 11
9.135684
 21
4.092238
 31
0.0
  0
LINE
  5
50C
  8
0
 10
9.135684
 20
4.092238
 30
0.0
 11
9.345948
 21
4.092238
 31
0.0
  0
LINE
  5
50D
  8
0
 10
9.345948
 20
4.092238
 30
0.0
 11
9.434981
 21
4.092238
 31
0.0
  0
LINE
  5
50E
  8
0
 10
9.434981
 20
4.092238
 30
0.0
 11
10.490523
 21
4.092238
 31
0.0
  0
LINE
  5
50F
  8
0
 10
10.490523
 20
4.092238
 30
0.0
 11
10.935684
 21
4.092238
 31
0.0
  0
LINE
  5
510
  8
0
 10
10.935684
 20
4.092238
 30
0.0
 11
11.145948
 21
4.092238
 31
0.0
  0
LINE
  5
511
  8
0
 10
11.145948
 20
4.092238
 30
0.0
 11
11.234981
 21
4.092238
 31
0.0
  0
LINE
  5
512
  8
0
 10
11.234981
 20
4.092238
 30
0.0
 11
12.290523
 21
4.092238
 31
0.0
  0
LINE
  5
513
  8
0
 10
12.290523
 20
4.092238
 30
0.0
 11
12.735684
 21
4.092238
 31
0.0
  0
LINE
  5
514
  8
0
 10
12.735684
 20
4.092238
 30
0.0
 11
12.945948
 21
4.092238
 31
0.0
  0
LINE
  5
515
  8
0
 10
12.945948
 20
4.092238
 30
0.0
 11
13.034981
 21
4.092238
 31
0.0
  0
LINE
  5
516
  8
0
 10
13.034981
 20
4.092238
 30
0.0
 11
14.090523
 21
4.092238
 31
0.0
  0
LINE
  5
517
  8
0
 10
14.090523
 20
4.092238
 30
0.0
 11
14.476032
 21
4.092238
 31
0.0
  0
LINE
  5
518
  8
0
 10
14.476032
 20
4.092238
 30
0.0
 11
14.687
 21
4.092238
 31
0.0
  0
LINE
  5
519
  8
0
 10
0.501
 20
4.592238
 30
0.0
 11
0.590032
 21
4.592238
 31
0.0
  0
LINE
  5
51A
  8
0
 10
0.501
 20
4.592238
 30
0.0
 11
0.590032
 21
4.592238
 31
0.0
  0
LINE
  5
51B
  8
0
 10
0.590032
 20
4.592238
 30
0.0
 11
1.481723
 21
4.592238
 31
0.0
  0
LINE
  5
51C
  8
0
 10
1.481723
 20
4.592238
 30
0.0
 11
1.926884
 21
4.592238
 31
0.0
  0
LINE
  5
51D
  8
0
 10
1.926884
 20
4.592238
 30
0.0
 11
2.137852
 21
4.592238
 31
0.0
  0
LINE
  5
51E
  8
0
 10
2.137852
 20
4.592238
 30
0.0
 11
2.226884
 21
4.592238
 31
0.0
  0
LINE
  5
51F
  8
0
 10
2.226884
 20
4.592238
 30
0.0
 11
3.281723
 21
4.592238
 31
0.0
  0
LINE
  5
520
  8
0
 10
3.281723
 20
4.592238
 30
0.0
 11
3.726884
 21
4.592238
 31
0.0
  0
LINE
  5
521
  8
0
 10
3.726884
 20
4.592238
 30
0.0
 11
3.937852
 21
4.592238
 31
0.0
  0
LINE
  5
522
  8
0
 10
3.937852
 20
4.592238
 30
0.0
 11
4.026884
 21
4.592238
 31
0.0
  0
LINE
  5
523
  8
0
 10
4.026884
 20
4.592238
 30
0.0
 11
5.081723
 21
4.592238
 31
0.0
  0
LINE
  5
524
  8
0
 10
5.081723
 20
4.592238
 30
0.0
 11
5.526884
 21
4.592238
 31
0.0
  0
LINE
  5
525
  8
0
 10
5.526884
 20
4.592238
 30
0.0
 11
5.737852
 21
4.592238
 31
0.0
  0
LINE
  5
526
  8
0
 10
5.737852
 20
4.592238
 30
0.0
 11
5.826884
 21
4.592238
 31
0.0
  0
LINE
  5
527
  8
0
 10
5.826884
 20
4.592238
 30
0.0
 11
6.881723
 21
4.592238
 31
0.0
  0
LINE
  5
528
  8
0
 10
6.881723
 20
4.592238
 30
0.0
 11
7.326884
 21
4.592238
 31
0.0
  0
LINE
  5
529
  8
0
 10
7.326884
 20
4.592238
 30
0.0
 11
7.537852
 21
4.592238
 31
0.0
  0
LINE
  5
52A
  8
0
 10
7.537852
 20
4.592238
 30
0.0
 11
7.626884
 21
4.592238
 31
0.0
  0
LINE
  5
52B
  8
0
 10
7.626884
 20
4.592238
 30
0.0
 11
8.681723
 21
4.592238
 31
0.0
  0
LINE
  5
52C
  8
0
 10
8.681723
 20
4.592238
 30
0.0
 11
9.126884
 21
4.592238
 31
0.0
  0
LINE
  5
52D
  8
0
 10
9.126884
 20
4.592238
 30
0.0
 11
9.337852
 21
4.592238
 31
0.0
  0
LINE
  5
52E
  8
0
 10
9.337852
 20
4.592238
 30
0.0
 11
9.426884
 21
4.592238
 31
0.0
  0
LINE
  5
52F
  8
0
 10
9.426884
 20
4.592238
 30
0.0
 11
10.481723
 21
4.592238
 31
0.0
  0
LINE
  5
530
  8
0
 10
10.481723
 20
4.592238
 30
0.0
 11
10.926884
 21
4.592238
 31
0.0
  0
LINE
  5
531
  8
0
 10
10.926884
 20
4.592238
 30
0.0
 11
11.137852
 21
4.592238
 31
0.0
  0
LINE
  5
532
  8
0
 10
11.137852
 20
4.592238
 30
0.0
 11
11.226884
 21
4.592238
 31
0.0
  0
LINE
  5
533
  8
0
 10
11.226884
 20
4.592238
 30
0.0
 11
12.281723
 21
4.592238
 31
0.0
  0
LINE
  5
534
  8
0
 10
12.281723
 20
4.592238
 30
0.0
 11
12.726884
 21
4.592238
 31
0.0
  0
LINE
  5
535
  8
0
 10
12.726884
 20
4.592238
 30
0.0
 11
12.937852
 21
4.592238
 31
0.0
  0
LINE
  5
536
  8
0
 10
12.937852
 20
4.592238
 30
0.0
 11
13.026884
 21
4.592238
 31
0.0
  0
LINE
  5
537
  8
0
 10
13.026884
 20
4.592238
 30
0.0
 11
14.081723
 21
4.592238
 31
0.0
  0
LINE
  5
538
  8
0
 10
14.081723
 20
4.592238
 30
0.0
 11
14.458032
 21
4.592238
 31
0.0
  0
LINE
  5
539
  8
0
 10
14.458032
 20
4.592238
 30
0.0
 11
14.669
 21
4.592238
 31
0.0
  0
LINE
  5
53A
  8
0
 10
0.513
 20
5.092238
 30
0.0
 11
0.602032
 21
5.092238
 31
0.0
  0
LINE
  5
53B
  8
0
 10
0.513
 20
5.092238
 30
0.0
 11
0.602032
 21
5.092238
 31
0.0
  0
LINE
  5
53C
  8
0
 10
0.602032
 20
5.092238
 30
0.0
 11
1.472626
 21
5.092238
 31
0.0
  0
LINE
  5
53D
  8
0
 10
1.472626
 20
5.092238
 30
0.0
 11
1.918084
 21
5.092238
 31
0.0
  0
LINE
  5
53E
  8
0
 10
1.918084
 20
5.092238
 30
0.0
 11
2.129052
 21
5.092238
 31
0.0
  0
LINE
  5
53F
  8
0
 10
2.129052
 20
5.092238
 30
0.0
 11
2.217787
 21
5.092238
 31
0.0
  0
LINE
  5
540
  8
0
 10
2.217787
 20
5.092238
 30
0.0
 11
3.272626
 21
5.092238
 31
0.0
  0
LINE
  5
541
  8
0
 10
3.272626
 20
5.092238
 30
0.0
 11
3.718084
 21
5.092238
 31
0.0
  0
LINE
  5
542
  8
0
 10
3.718084
 20
5.092238
 30
0.0
 11
3.929052
 21
5.092238
 31
0.0
  0
LINE
  5
543
  8
0
 10
3.929052
 20
5.092238
 30
0.0
 11
4.017787
 21
5.092238
 31
0.0
  0
LINE
  5
544
  8
0
 10
4.017787
 20
5.092238
 30
0.0
 11
5.072626
 21
5.092238
 31
0.0
  0
LINE
  5
545
  8
0
 10
5.072626
 20
5.092238
 30
0.0
 11
5.518084
 21
5.092238
 31
0.0
  0
LINE
  5
546
  8
0
 10
5.518084
 20
5.092238
 30
0.0
 11
5.729052
 21
5.092238
 31
0.0
  0
LINE
  5
547
  8
0
 10
5.729052
 20
5.092238
 30
0.0
 11
5.817787
 21
5.092238
 31
0.0
  0
LINE
  5
548
  8
0
 10
5.817787
 20
5.092238
 30
0.0
 11
6.872626
 21
5.092238
 31
0.0
  0
LINE
  5
549
  8
0
 10
6.872626
 20
5.092238
 30
0.0
 11
7.318084
 21
5.092238
 31
0.0
  0
LINE
  5
54A
  8
0
 10
7.318084
 20
5.092238
 30
0.0
 11
7.529052
 21
5.092238
 31
0.0
  0
LINE
  5
54B
  8
0
 10
7.529052
 20
5.092238
 30
0.0
 11
7.617787
 21
5.092238
 31
0.0
  0
LINE
  5
54C
  8
0
 10
7.617787
 20
5.092238
 30
0.0
 11
8.672626
 21
5.092238
 31
0.0
  0
LINE
  5
54D
  8
0
 10
8.672626
 20
5.092238
 30
0.0
 11
9.118084
 21
5.092238
 31
0.0
  0
LINE
  5
54E
  8
0
 10
9.118084
 20
5.092238
 30
0.0
 11
9.329052
 21
5.092238
 31
0.0
  0
LINE
  5
54F
  8
0
 10
9.329052
 20
5.092238
 30
0.0
 11
9.417787
 21
5.092238
 31
0.0
  0
LINE
  5
550
  8
0
 10
9.417787
 20
5.092238
 30
0.0
 11
10.472626
 21
5.092238
 31
0.0
  0
LINE
  5
551
  8
0
 10
10.472626
 20
5.092238
 30
0.0
 11
10.918084
 21
5.092238
 31
0.0
  0
LINE
  5
552
  8
0
 10
10.918084
 20
5.092238
 30
0.0
 11
11.129052
 21
5.092238
 31
0.0
  0
LINE
  5
553
  8
0
 10
11.129052
 20
5.092238
 30
0.0
 11
11.217787
 21
5.092238
 31
0.0
  0
LINE
  5
554
  8
0
 10
11.217787
 20
5.092238
 30
0.0
 11
12.272626
 21
5.092238
 31
0.0
  0
LINE
  5
555
  8
0
 10
12.272626
 20
5.092238
 30
0.0
 11
12.718084
 21
5.092238
 31
0.0
  0
LINE
  5
556
  8
0
 10
12.718084
 20
5.092238
 30
0.0
 11
12.929052
 21
5.092238
 31
0.0
  0
LINE
  5
557
  8
0
 10
12.929052
 20
5.092238
 30
0.0
 11
13.017787
 21
5.092238
 31
0.0
  0
LINE
  5
558
  8
0
 10
13.017787
 20
5.092238
 30
0.0
 11
14.072626
 21
5.092238
 31
0.0
  0
LINE
  5
559
  8
0
 10
14.072626
 20
5.092238
 30
0.0
 11
14.440032
 21
5.092238
 31
0.0
  0
LINE
  5
55A
  8
0
 10
14.440032
 20
5.092238
 30
0.0
 11
14.651
 21
5.092238
 31
0.0
  0
LINE
  5
55B
  8
0
 10
0.526
 20
5.592238
 30
0.0
 11
0.615032
 21
5.592238
 31
0.0
  0
LINE
  5
55C
  8
0
 10
0.526
 20
5.592238
 30
0.0
 11
0.615032
 21
5.592238
 31
0.0
  0
LINE
  5
55D
  8
0
 10
0.615032
 20
5.592238
 30
0.0
 11
1.464529
 21
5.592238
 31
0.0
  0
LINE
  5
55E
  8
0
 10
1.464529
 20
5.592238
 30
0.0
 11
1.90969
 21
5.592238
 31
0.0
  0
LINE
  5
55F
  8
0
 10
1.90969
 20
5.592238
 30
0.0
 11
2.120658
 21
5.592238
 31
0.0
  0
LINE
  5
560
  8
0
 10
2.120658
 20
5.592238
 30
0.0
 11
2.20969
 21
5.592238
 31
0.0
  0
LINE
  5
561
  8
0
 10
2.20969
 20
5.592238
 30
0.0
 11
3.264529
 21
5.592238
 31
0.0
  0
LINE
  5
562
  8
0
 10
3.264529
 20
5.592238
 30
0.0
 11
3.70969
 21
5.592238
 31
0.0
  0
LINE
  5
563
  8
0
 10
3.70969
 20
5.592238
 30
0.0
 11
3.920658
 21
5.592238
 31
0.0
  0
LINE
  5
564
  8
0
 10
3.920658
 20
5.592238
 30
0.0
 11
4.00969
 21
5.592238
 31
0.0
  0
LINE
  5
565
  8
0
 10
4.00969
 20
5.592238
 30
0.0
 11
5.064529
 21
5.592238
 31
0.0
  0
LINE
  5
566
  8
0
 10
5.064529
 20
5.592238
 30
0.0
 11
5.50969
 21
5.592238
 31
0.0
  0
LINE
  5
567
  8
0
 10
5.50969
 20
5.592238
 30
0.0
 11
5.720658
 21
5.592238
 31
0.0
  0
LINE
  5
568
  8
0
 10
5.720658
 20
5.592238
 30
0.0
 11
5.80969
 21
5.592238
 31
0.0
  0
LINE
  5
569
  8
0
 10
5.80969
 20
5.592238
 30
0.0
 11
6.864529
 21
5.592238
 31
0.0
  0
LINE
  5
56A
  8
0
 10
6.864529
 20
5.592238
 30
0.0
 11
7.30969
 21
5.592238
 31
0.0
  0
LINE
  5
56B
  8
0
 10
7.30969
 20
5.592238
 30
0.0
 11
7.520658
 21
5.592238
 31
0.0
  0
LINE
  5
56C
  8
0
 10
7.520658
 20
5.592238
 30
0.0
 11
7.60969
 21
5.592238
 31
0.0
  0
LINE
  5
56D
  8
0
 10
7.60969
 20
5.592238
 30
0.0
 11
8.664529
 21
5.592238
 31
0.0
  0
LINE
  5
56E
  8
0
 10
8.664529
 20
5.592238
 30
0.0
 11
9.10969
 21
5.592238
 31
0.0
  0
LINE
  5
56F
  8
0
 10
9.10969
 20
5.592238
 30
0.0
 11
9.320658
 21
5.592238
 31
0.0
  0
LINE
  5
570
  8
0
 10
9.320658
 20
5.592238
 30
0.0
 11
9.40969
 21
5.592238
 31
0.0
  0
LINE
  5
571
  8
0
 10
9.40969
 20
5.592238
 30
0.0
 11
10.464529
 21
5.592238
 31
0.0
  0
LINE
  5
572
  8
0
 10
10.464529
 20
5.592238
 30
0.0
 11
10.90969
 21
5.592238
 31
0.0
  0
LINE
  5
573
  8
0
 10
10.90969
 20
5.592238
 30
0.0
 11
11.120658
 21
5.592238
 31
0.0
  0
LINE
  5
574
  8
0
 10
11.120658
 20
5.592238
 30
0.0
 11
11.20969
 21
5.592238
 31
0.0
  0
LINE
  5
575
  8
0
 10
11.20969
 20
5.592238
 30
0.0
 11
12.264529
 21
5.592238
 31
0.0
  0
LINE
  5
576
  8
0
 10
12.264529
 20
5.592238
 30
0.0
 11
12.70969
 21
5.592238
 31
0.0
  0
LINE
  5
577
  8
0
 10
12.70969
 20
5.592238
 30
0.0
 11
12.920658
 21
5.592238
 31
0.0
  0
LINE
  5
578
  8
0
 10
12.920658
 20
5.592238
 30
0.0
 11
13.00969
 21
5.592238
 31
0.0
  0
LINE
  5
579
  8
0
 10
13.00969
 20
5.592238
 30
0.0
 11
14.064529
 21
5.592238
 31
0.0
  0
LINE
  5
57A
  8
0
 10
14.064529
 20
5.592238
 30
0.0
 11
14.423032
 21
5.592238
 31
0.0
  0
LINE
  5
57B
  8
0
 10
14.423032
 20
5.592238
 30
0.0
 11
14.634
 21
5.592238
 31
0.0
  0
LINE
  5
57C
  8
0
 10
0.539
 20
6.092238
 30
0.0
 11
0.628032
 21
6.092238
 31
0.0
  0
LINE
  5
57D
  8
0
 10
0.539
 20
6.092238
 30
0.0
 11
0.628032
 21
6.092238
 31
0.0
  0
LINE
  5
57E
  8
0
 10
0.628032
 20
6.092238
 30
0.0
 11
1.462761
 21
6.092238
 31
0.0
  0
LINE
  5
57F
  8
0
 10
1.462761
 20
6.092238
 30
0.0
 11
1.907923
 21
6.092238
 31
0.0
  0
LINE
  5
580
  8
0
 10
1.907923
 20
6.092238
 30
0.0
 11
2.11889
 21
6.092238
 31
0.0
  0
LINE
  5
581
  8
0
 10
2.11889
 20
6.092238
 30
0.0
 11
2.207923
 21
6.092238
 31
0.0
  0
LINE
  5
582
  8
0
 10
2.207923
 20
6.092238
 30
0.0
 11
3.262761
 21
6.092238
 31
0.0
  0
LINE
  5
583
  8
0
 10
3.262761
 20
6.092238
 30
0.0
 11
3.707923
 21
6.092238
 31
0.0
  0
LINE
  5
584
  8
0
 10
3.707923
 20
6.092238
 30
0.0
 11
3.91889
 21
6.092238
 31
0.0
  0
LINE
  5
585
  8
0
 10
3.91889
 20
6.092238
 30
0.0
 11
4.007923
 21
6.092238
 31
0.0
  0
LINE
  5
586
  8
0
 10
4.007923
 20
6.092238
 30
0.0
 11
5.062761
 21
6.092238
 31
0.0
  0
LINE
  5
587
  8
0
 10
5.062761
 20
6.092238
 30
0.0
 11
5.507923
 21
6.092238
 31
0.0
  0
LINE
  5
588
  8
0
 10
5.507923
 20
6.092238
 30
0.0
 11
5.71889
 21
6.092238
 31
0.0
  0
LINE
  5
589
  8
0
 10
5.71889
 20
6.092238
 30
0.0
 11
5.807923
 21
6.092238
 31
0.0
  0
LINE
  5
58A
  8
0
 10
5.807923
 20
6.092238
 30
0.0
 11
6.862761
 21
6.092238
 31
0.0
  0
LINE
  5
58B
  8
0
 10
6.862761
 20
6.092238
 30
0.0
 11
7.307923
 21
6.092238
 31
0.0
  0
LINE
  5
58C
  8
0
 10
7.307923
 20
6.092238
 30
0.0
 11
7.51889
 21
6.092238
 31
0.0
  0
LINE
  5
58D
  8
0
 10
7.51889
 20
6.092238
 30
0.0
 11
7.607923
 21
6.092238
 31
0.0
  0
LINE
  5
58E
  8
0
 10
7.607923
 20
6.092238
 30
0.0
 11
8.662761
 21
6.092238
 31
0.0
  0
LINE
  5
58F
  8
0
 10
8.662761
 20
6.092238
 30
0.0
 11
9.107923
 21
6.092238
 31
0.0
  0
LINE
  5
590
  8
0
 10
9.107923
 20
6.092238
 30
0.0
 11
9.31889
 21
6.092238
 31
0.0
  0
LINE
  5
591
  8
0
 10
9.31889
 20
6.092238
 30
0.0
 11
9.407923
 21
6.092238
 31
0.0
  0
LINE
  5
592
  8
0
 10
9.407923
 20
6.092238
 30
0.0
 11
10.462761
 21
6.092238
 31
0.0
  0
LINE
  5
593
  8
0
 10
10.462761
 20
6.092238
 30
0.0
 11
10.907923
 21
6.092238
 31
0.0
  0
LINE
  5
594
  8
0
 10
10.907923
 20
6.092238
 30
0.0
 11
11.11889
 21
6.092238
 31
0.0
  0
LINE
  5
595
  8
0
 10
11.11889
 20
6.092238
 30
0.0
 11
11.207923
 21
6.092238
 31
0.0
  0
LINE
  5
596
  8
0
 10
11.207923
 20
6.092238
 30
0.0
 11
12.262761
 21
6.092238
 31
0.0
  0
LINE
  5
597
  8
0
 10
12.262761
 20
6.092238
 30
0.0
 11
12.707923
 21
6.092238
 31
0.0
  0
LINE
  5
598
  8
0
 10
12.707923
 20
6.092238
 30
0.0
 11
12.91889
 21
6.092238
 31
0.0
  0
LINE
  5
599
  8
0
 10
12.91889
 20
6.092238
 30
0.0
 11
13.007923
 21
6.092238
 31
0.0
  0
LINE
  5
59A
  8
0
 10
13.007923
 20
6.092238
 30
0.0
 11
14.062761
 21
6.092238
 31
0.0
  0
LINE
  5
59B
  8
0
 10
14.062761
 20
6.092238
 30
0.0
 11
14.415032
 21
6.092238
 31
0.0
  0
LINE
  5
59C
  8
0
 10
14.415032
 20
6.092238
 30
0.0
 11
14.626
 21
6.092238
 31
0.0
  0
LINE
  5
59D
  8
0
 10
0.551
 20
6.592238
 30
0.0
 11
0.640032
 21
6.592238
 31
0.0
  0
LINE
  5
59E
  8
0
 10
0.551
 20
6.592238
 30
0.0
 11
0.640032
 21
6.592238
 31
0.0
  0
LINE
  5
59F
  8
0
 10
0.640032
 20
6.592238
 30
0.0
 11
1.466323
 21
6.592238
 31
0.0
  0
LINE
  5
5A0
  8
0
 10
1.466323
 20
6.592238
 30
0.0
 11
1.911484
 21
6.592238
 31
0.0
  0
LINE
  5
5A1
  8
0
 10
1.911484
 20
6.592238
 30
0.0
 11
2.122452
 21
6.592238
 31
0.0
  0
LINE
  5
5A2
  8
0
 10
2.122452
 20
6.592238
 30
0.0
 11
2.211484
 21
6.592238
 31
0.0
  0
LINE
  5
5A3
  8
0
 10
2.211484
 20
6.592238
 30
0.0
 11
3.266323
 21
6.592238
 31
0.0
  0
LINE
  5
5A4
  8
0
 10
3.266323
 20
6.592238
 30
0.0
 11
3.711484
 21
6.592238
 31
0.0
  0
LINE
  5
5A5
  8
0
 10
3.711484
 20
6.592238
 30
0.0
 11
3.922452
 21
6.592238
 31
0.0
  0
LINE
  5
5A6
  8
0
 10
3.922452
 20
6.592238
 30
0.0
 11
4.011484
 21
6.592238
 31
0.0
  0
LINE
  5
5A7
  8
0
 10
4.011484
 20
6.592238
 30
0.0
 11
5.066323
 21
6.592238
 31
0.0
  0
LINE
  5
5A8
  8
0
 10
5.066323
 20
6.592238
 30
0.0
 11
5.511484
 21
6.592238
 31
0.0
  0
LINE
  5
5A9
  8
0
 10
5.511484
 20
6.592238
 30
0.0
 11
5.722452
 21
6.592238
 31
0.0
  0
LINE
  5
5AA
  8
0
 10
5.722452
 20
6.592238
 30
0.0
 11
5.811484
 21
6.592238
 31
0.0
  0
LINE
  5
5AB
  8
0
 10
5.811484
 20
6.592238
 30
0.0
 11
6.866323
 21
6.592238
 31
0.0
  0
LINE
  5
5AC
  8
0
 10
6.866323
 20
6.592238
 30
0.0
 11
7.311484
 21
6.592238
 31
0.0
  0
LINE
  5
5AD
  8
0
 10
7.311484
 20
6.592238
 30
0.0
 11
7.522452
 21
6.592238
 31
0.0
  0
LINE
  5
5AE
  8
0
 10
7.522452
 20
6.592238
 30
0.0
 11
7.611484
 21
6.592238
 31
0.0
  0
LINE
  5
5AF
  8
0
 10
7.611484
 20
6.592238
 30
0.0
 11
8.666323
 21
6.592238
 31
0.0
  0
LINE
  5
5B0
  8
0
 10
8.666323
 20
6.592238
 30
0.0
 11
9.111484
 21
6.592238
 31
0.0
  0
LINE
  5
5B1
  8
0
 10
9.111484
 20
6.592238
 30
0.0
 11
9.322452
 21
6.592238
 31
0.0
  0
LINE
  5
5B2
  8
0
 10
9.322452
 20
6.592238
 30
0.0
 11
9.411484
 21
6.592238
 31
0.0
  0
LINE
  5
5B3
  8
0
 10
9.411484
 20
6.592238
 30
0.0
 11
10.466323
 21
6.592238
 31
0.0
  0
LINE
  5
5B4
  8
0
 10
10.466323
 20
6.592238
 30
0.0
 11
10.911484
 21
6.592238
 31
0.0
  0
LINE
  5
5B5
  8
0
 10
10.911484
 20
6.592238
 30
0.0
 11
11.122452
 21
6.592238
 31
0.0
  0
LINE
  5
5B6
  8
0
 10
11.122452
 20
6.592238
 30
0.0
 11
11.211484
 21
6.592238
 31
0.0
  0
LINE
  5
5B7
  8
0
 10
11.211484
 20
6.592238
 30
0.0
 11
12.266323
 21
6.592238
 31
0.0
  0
LINE
  5
5B8
  8
0
 10
12.266323
 20
6.592238
 30
0.0
 11
12.711484
 21
6.592238
 31
0.0
  0
LINE
  5
5B9
  8
0
 10
12.711484
 20
6.592238
 30
0.0
 11
12.922452
 21
6.592238
 31
0.0
  0
LINE
  5
5BA
  8
0
 10
12.922452
 20
6.592238
 30
0.0
 11
13.011484
 21
6.592238
 31
0.0
  0
LINE
  5
5BB
  8
0
 10
13.011484
 20
6.592238
 30
0.0
 11
14.066323
 21
6.592238
 31
0.0
  0
LINE
  5
5BC
  8
0
 10
14.066323
 20
6.592238
 30
0.0
 11
14.415032
 21
6.592238
 31
0.0
  0
LINE
  5
5BD
  8
0
 10
14.415032
 20
6.592238
 30
0.0
 11
14.626
 21
6.592238
 31
0.0
  0
LINE
  5
5BE
  8
0
 10
0.564
 20
7.092238
 30
0.0
 11
0.653032
 21
7.092238
 31
0.0
  0
LINE
  5
5BF
  8
0
 10
0.564
 20
7.092238
 30
0.0
 11
0.653032
 21
7.092238
 31
0.0
  0
LINE
  5
5C0
  8
0
 10
0.653032
 20
7.092238
 30
0.0
 11
1.470181
 21
7.092238
 31
0.0
  0
LINE
  5
5C1
  8
0
 10
1.470181
 20
7.092238
 30
0.0
 11
1.915342
 21
7.092238
 31
0.0
  0
LINE
  5
5C2
  8
0
 10
1.915342
 20
7.092238
 30
0.0
 11
2.12631
 21
7.092238
 31
0.0
  0
LINE
  5
5C3
  8
0
 10
2.12631
 20
7.092238
 30
0.0
 11
2.215342
 21
7.092238
 31
0.0
  0
LINE
  5
5C4
  8
0
 10
2.215342
 20
7.092238
 30
0.0
 11
3.270181
 21
7.092238
 31
0.0
  0
LINE
  5
5C5
  8
0
 10
3.270181
 20
7.092238
 30
0.0
 11
3.715342
 21
7.092238
 31
0.0
  0
LINE
  5
5C6
  8
0
 10
3.715342
 20
7.092238
 30
0.0
 11
3.92631
 21
7.092238
 31
0.0
  0
LINE
  5
5C7
  8
0
 10
3.92631
 20
7.092238
 30
0.0
 11
4.015342
 21
7.092238
 31
0.0
  0
LINE
  5
5C8
  8
0
 10
4.015342
 20
7.092238
 30
0.0
 11
5.070181
 21
7.092238
 31
0.0
  0
LINE
  5
5C9
  8
0
 10
5.070181
 20
7.092238
 30
0.0
 11
5.515342
 21
7.092238
 31
0.0
  0
LINE
  5
5CA
  8
0
 10
5.515342
 20
7.092238
 30
0.0
 11
5.72631
 21
7.092238
 31
0.0
  0
LINE
  5
5CB
  8
0
 10
5.72631
 20
7.092238
 30
0.0
 11
5.815342
 21
7.092238
 31
0.0
  0
LINE
  5
5CC
  8
0
 10
5.815342
 20
7.092238
 30
0.0
 11
6.870181
 21
7.092238
 31
0.0
  0
LINE
  5
5CD
  8
0
 10
6.870181
 20
7.092238
 30
0.0
 11
7.315342
 21
7.092238
 31
0.0
  0
LINE
  5
5CE
  8
0
 10
7.315342
 20
7.092238
 30
0.0
 11
7.52631
 21
7.092238
 31
0.0
  0
LINE
  5
5CF
  8
0
 10
7.52631
 20
7.092238
 30
0.0
 11
7.615342
 21
7.092238
 31
0.0
  0
LINE
  5
5D0
  8
0
 10
7.615342
 20
7.092238
 30
0.0
 11
8.670181
 21
7.092238
 31
0.0
  0
LINE
  5
5D1
  8
0
 10
8.670181
 20
7.092238
 30
0.0
 11
9.115342
 21
7.092238
 31
0.0
  0
LINE
  5
5D2
  8
0
 10
9.115342
 20
7.092238
 30
0.0
 11
9.32631
 21
7.092238
 31
0.0
  0
LINE
  5
5D3
  8
0
 10
9.32631
 20
7.092238
 30
0.0
 11
9.415342
 21
7.092238
 31
0.0
  0
LINE
  5
5D4
  8
0
 10
9.415342
 20
7.092238
 30
0.0
 11
10.470181
 21
7.092238
 31
0.0
  0
LINE
  5
5D5
  8
0
 10
10.470181
 20
7.092238
 30
0.0
 11
10.915342
 21
7.092238
 31
0.0
  0
LINE
  5
5D6
  8
0
 10
10.915342
 20
7.092238
 30
0.0
 11
11.12631
 21
7.092238
 31
0.0
  0
LINE
  5
5D7
  8
0
 10
11.12631
 20
7.092238
 30
0.0
 11
11.215342
 21
7.092238
 31
0.0
  0
LINE
  5
5D8
  8
0
 10
11.215342
 20
7.092238
 30
0.0
 11
12.270181
 21
7.092238
 31
0.0
  0
LINE
  5
5D9
  8
0
 10
12.270181
 20
7.092238
 30
0.0
 11
12.715342
 21
7.092238
 31
0.0
  0
LINE
  5
5DA
  8
0
 10
12.715342
 20
7.092238
 30
0.0
 11
12.92631
 21
7.092238
 31
0.0
  0
LINE
  5
5DB
  8
0
 10
12.92631
 20
7.092238
 30
0.0
 11
13.015342
 21
7.092238
 31
0.0
  0
LINE
  5
5DC
  8
0
 10
13.015342
 20
7.092238
 30
0.0
 11
14.070181
 21
7.092238
 31
0.0
  0
LINE
  5
5DD
  8
0
 10
14.070181
 20
7.092238
 30
0.0
 11
14.415032
 21
7.092238
 31
0.0
  0
LINE
  5
5DE
  8
0
 10
14.415032
 20
7.092238
 30
0.0
 11
14.626
 21
7.092238
 31
0.0
  0
LINE
  5
5DF
  8
0
 10
0.576
 20
7.592238
 30
0.0
 11
0.665032
 21
7.592238
 31
0.0
  0
LINE
  5
5E0
  8
0
 10
0.576
 20
7.592238
 30
0.0
 11
0.665032
 21
7.592238
 31
0.0
  0
LINE
  5
5E1
  8
0
 10
0.665032
 20
7.592238
 30
0.0
 11
1.473742
 21
7.592238
 31
0.0
  0
LINE
  5
5E2
  8
0
 10
1.473742
 20
7.592238
 30
0.0
 11
1.9192
 21
7.592238
 31
0.0
  0
LINE
  5
5E3
  8
0
 10
1.9192
 20
7.592238
 30
0.0
 11
2.130168
 21
7.592238
 31
0.0
  0
LINE
  5
5E4
  8
0
 10
2.130168
 20
7.592238
 30
0.0
 11
2.218903
 21
7.592238
 31
0.0
  0
LINE
  5
5E5
  8
0
 10
2.218903
 20
7.592238
 30
0.0
 11
3.273742
 21
7.592238
 31
0.0
  0
LINE
  5
5E6
  8
0
 10
3.273742
 20
7.592238
 30
0.0
 11
3.7192
 21
7.592238
 31
0.0
  0
LINE
  5
5E7
  8
0
 10
3.7192
 20
7.592238
 30
0.0
 11
3.930168
 21
7.592238
 31
0.0
  0
LINE
  5
5E8
  8
0
 10
3.930168
 20
7.592238
 30
0.0
 11
4.018903
 21
7.592238
 31
0.0
  0
LINE
  5
5E9
  8
0
 10
4.018903
 20
7.592238
 30
0.0
 11
5.073742
 21
7.592238
 31
0.0
  0
LINE
  5
5EA
  8
0
 10
5.073742
 20
7.592238
 30
0.0
 11
5.5192
 21
7.592238
 31
0.0
  0
LINE
  5
5EB
  8
0
 10
5.5192
 20
7.592238
 30
0.0
 11
5.730168
 21
7.592238
 31
0.0
  0
LINE
  5
5EC
  8
0
 10
5.730168
 20
7.592238
 30
0.0
 11
5.818903
 21
7.592238
 31
0.0
  0
LINE
  5
5ED
  8
0
 10
5.818903
 20
7.592238
 30
0.0
 11
6.873742
 21
7.592238
 31
0.0
  0
LINE
  5
5EE
  8
0
 10
6.873742
 20
7.592238
 30
0.0
 11
7.3192
 21
7.592238
 31
0.0
  0
LINE
  5
5EF
  8
0
 10
7.3192
 20
7.592238
 30
0.0
 11
7.530168
 21
7.592238
 31
0.0
  0
LINE
  5
5F0
  8
0
 10
7.530168
 20
7.592238
 30
0.0
 11
7.618903
 21
7.592238
 31
0.0
  0
LINE
  5
5F1
  8
0
 10
7.618903
 20
7.592238
 30
0.0
 11
8.673742
 21
7.592238
 31
0.0
  0
LINE
  5
5F2
  8
0
 10
8.673742
 20
7.592238
 30
0.0
 11
9.1192
 21
7.592238
 31
0.0
  0
LINE
  5
5F3
  8
0
 10
9.1192
 20
7.592238
 30
0.0
 11
9.330168
 21
7.592238
 31
0.0
  0
LINE
  5
5F4
  8
0
 10
9.330168
 20
7.592238
 30
0.0
 11
9.418903
 21
7.592238
 31
0.0
  0
LINE
  5
5F5
  8
0
 10
9.418903
 20
7.592238
 30
0.0
 11
10.473742
 21
7.592238
 31
0.0
  0
LINE
  5
5F6
  8
0
 10
10.473742
 20
7.592238
 30
0.0
 11
10.9192
 21
7.592238
 31
0.0
  0
LINE
  5
5F7
  8
0
 10
10.9192
 20
7.592238
 30
0.0
 11
11.130168
 21
7.592238
 31
0.0
  0
LINE
  5
5F8
  8
0
 10
11.130168
 20
7.592238
 30
0.0
 11
11.218903
 21
7.592238
 31
0.0
  0
LINE
  5
5F9
  8
0
 10
11.218903
 20
7.592238
 30
0.0
 11
12.273742
 21
7.592238
 31
0.0
  0
LINE
  5
5FA
  8
0
 10
12.273742
 20
7.592238
 30
0.0
 11
12.7192
 21
7.592238
 31
0.0
  0
LINE
  5
5FB
  8
0
 10
12.7192
 20
7.592238
 30
0.0
 11
12.930168
 21
7.592238
 31
0.0
  0
LINE
  5
5FC
  8
0
 10
12.930168
 20
7.592238
 30
0.0
 11
13.018903
 21
7.592238
 31
0.0
  0
LINE
  5
5FD
  8
0
 10
13.018903
 20
7.592238
 30
0.0
 11
14.073742
 21
7.592238
 31
0.0
  0
LINE
  5
5FE
  8
0
 10
14.073742
 20
7.592238
 30
0.0
 11
14.415032
 21
7.592238
 31
0.0
  0
LINE
  5
5FF
  8
0
 10
14.415032
 20
7.592238
 30
0.0
 11
14.626
 21
7.592238
 31
0.0
  0
LINE
  5
600
  8
0
 10
0.575
 20
8.092238
 30
0.0
 11
0.664032
 21
8.092238
 31
0.0
  0
LINE
  5
601
  8
0
 10
0.575
 20
8.092238
 30
0.0
 11
0.664032
 21
8.092238
 31
0.0
  0
LINE
  5
602
  8
0
 10
0.664032
 20
8.092238
 30
0.0
 11
1.473445
 21
8.092238
 31
0.0
  0
LINE
  5
603
  8
0
 10
1.473445
 20
8.092238
 30
0.0
 11
1.918903
 21
8.092238
 31
0.0
  0
LINE
  5
604
  8
0
 10
1.918903
 20
8.092238
 30
0.0
 11
2.129871
 21
8.092238
 31
0.0
  0
LINE
  5
605
  8
0
 10
2.129871
 20
8.092238
 30
0.0
 11
2.218606
 21
8.092238
 31
0.0
  0
LINE
  5
606
  8
0
 10
2.218606
 20
8.092238
 30
0.0
 11
3.273445
 21
8.092238
 31
0.0
  0
LINE
  5
607
  8
0
 10
3.273445
 20
8.092238
 30
0.0
 11
3.718903
 21
8.092238
 31
0.0
  0
LINE
  5
608
  8
0
 10
3.718903
 20
8.092238
 30
0.0
 11
3.929871
 21
8.092238
 31
0.0
  0
LINE
  5
609
  8
0
 10
3.929871
 20
8.092238
 30
0.0
 11
4.018606
 21
8.092238
 31
0.0
  0
LINE
  5
60A
  8
0
 10
4.018606
 20
8.092238
 30
0.0
 11
5.073445
 21
8.092238
 31
0.0
  0
LINE
  5
60B
  8
0
 10
5.073445
 20
8.092238
 30
0.0
 11
5.518903
 21
8.092238
 31
0.0
  0
LINE
  5
60C
  8
0
 10
5.518903
 20
8.092238
 30
0.0
 11
5.729871
 21
8.092238
 31
0.0
  0
LINE
  5
60D
  8
0
 10
5.729871
 20
8.092238
 30
0.0
 11
5.818606
 21
8.092238
 31
0.0
  0
LINE
  5
60E
  8
0
 10
5.818606
 20
8.092238
 30
0.0
 11
6.873445
 21
8.092238
 31
0.0
  0
LINE
  5
60F
  8
0
 10
6.873445
 20
8.092238
 30
0.0
 11
7.318903
 21
8.092238
 31
0.0
  0
LINE
  5
610
  8
0
 10
7.318903
 20
8.092238
 30
0.0
 11
7.529871
 21
8.092238
 31
0.0
  0
LINE
  5
611
  8
0
 10
7.529871
 20
8.092238
 30
0.0
 11
7.618606
 21
8.092238
 31
0.0
  0
LINE
  5
612
  8
0
 10
7.618606
 20
8.092238
 30
0.0
 11
8.673445
 21
8.092238
 31
0.0
  0
LINE
  5
613
  8
0
 10
8.673445
 20
8.092238
 30
0.0
 11
9.118903
 21
8.092238
 31
0.0
  0
LINE
  5
614
  8
0
 10
9.118903
 20
8.092238
 30
0.0
 11
9.329871
 21
8.092238
 31
0.0
  0
LINE
  5
615
  8
0
 10
9.329871
 20
8.092238
 30
0.0
 11
9.418606
 21
8.092238
 31
0.0
  0
LINE
  5
616
  8
0
 10
9.418606
 20
8.092238
 30
0.0
 11
10.473445
 21
8.092238
 31
0.0
  0
LINE
  5
617
  8
0
 10
10.473445
 20
8.092238
 30
0.0
 11
10.918903
 21
8.092238
 31
0.0
  0
LINE
  5
618
  8
0
 10
10.918903
 20
8.092238
 30
0.0
 11
11.129871
 21
8.092238
 31
0.0
  0
LINE
  5
619
  8
0
 10
11.129871
 20
8.092238
 30
0.0
 11
11.218606
 21
8.092238
 31
0.0
  0
LINE
  5
61A
  8
0
 10
11.218606
 20
8.092238
 30
0.0
 11
12.273445
 21
8.092238
 31
0.0
  0
LINE
  5
61B
  8
0
 10
12.273445
 20
8.092238
 30
0.0
 11
12.718903
 21
8.092238
 31
0.0
  0
LINE
  5
61C
  8
0
 10
12.718903
 20
8.092238
 30
0.0
 11
12.929871
 21
8.092238
 31
0.0
  0
LINE
  5
61D
  8
0
 10
12.929871
 20
8.092238
 30
0.0
 11
13.018606
 21
8.092238
 31
0.0
  0
LINE
  5
61E
  8
0
 10
13.018606
 20
8.092238
 30
0.0
 11
14.073445
 21
8.092238
 31
0.0
  0
LINE
  5
61F
  8
0
 10
14.073445
 20
8.092238
 30
0.0
 11
14.415032
 21
8.092238
 31
0.0
  0
LINE
  5
620
  8
0
 10
14.415032
 20
8.092238
 30
0.0
 11
14.626
 21
8.092238
 31
0.0
  0
LINE
  5
621
  8
0
 10
0.56
 20
8.592238
 30
0.0
 11
0.649032
 21
8.592238
 31
0.0
  0
LINE
  5
622
  8
0
 10
0.56
 20
8.592238
 30
0.0
 11
0.649032
 21
8.592238
 31
0.0
  0
LINE
  5
623
  8
0
 10
0.649032
 20
8.592238
 30
0.0
 11
1.468994
 21
8.592238
 31
0.0
  0
LINE
  5
624
  8
0
 10
1.468994
 20
8.592238
 30
0.0
 11
1.914155
 21
8.592238
 31
0.0
  0
LINE
  5
625
  8
0
 10
1.914155
 20
8.592238
 30
0.0
 11
2.125123
 21
8.592238
 31
0.0
  0
LINE
  5
626
  8
0
 10
2.125123
 20
8.592238
 30
0.0
 11
2.214155
 21
8.592238
 31
0.0
  0
LINE
  5
627
  8
0
 10
2.214155
 20
8.592238
 30
0.0
 11
3.268994
 21
8.592238
 31
0.0
  0
LINE
  5
628
  8
0
 10
3.268994
 20
8.592238
 30
0.0
 11
3.714155
 21
8.592238
 31
0.0
  0
LINE
  5
629
  8
0
 10
3.714155
 20
8.592238
 30
0.0
 11
3.925123
 21
8.592238
 31
0.0
  0
LINE
  5
62A
  8
0
 10
3.925123
 20
8.592238
 30
0.0
 11
4.014155
 21
8.592238
 31
0.0
  0
LINE
  5
62B
  8
0
 10
4.014155
 20
8.592238
 30
0.0
 11
5.068994
 21
8.592238
 31
0.0
  0
LINE
  5
62C
  8
0
 10
5.068994
 20
8.592238
 30
0.0
 11
5.514155
 21
8.592238
 31
0.0
  0
LINE
  5
62D
  8
0
 10
5.514155
 20
8.592238
 30
0.0
 11
5.725123
 21
8.592238
 31
0.0
  0
LINE
  5
62E
  8
0
 10
5.725123
 20
8.592238
 30
0.0
 11
5.814155
 21
8.592238
 31
0.0
  0
LINE
  5
62F
  8
0
 10
5.814155
 20
8.592238
 30
0.0
 11
6.868994
 21
8.592238
 31
0.0
  0
LINE
  5
630
  8
0
 10
6.868994
 20
8.592238
 30
0.0
 11
7.314155
 21
8.592238
 31
0.0
  0
LINE
  5
631
  8
0
 10
7.314155
 20
8.592238
 30
0.0
 11
7.525123
 21
8.592238
 31
0.0
  0
LINE
  5
632
  8
0
 10
7.525123
 20
8.592238
 30
0.0
 11
7.614155
 21
8.592238
 31
0.0
  0
LINE
  5
633
  8
0
 10
7.614155
 20
8.592238
 30
0.0
 11
8.668994
 21
8.592238
 31
0.0
  0
LINE
  5
634
  8
0
 10
8.668994
 20
8.592238
 30
0.0
 11
9.114155
 21
8.592238
 31
0.0
  0
LINE
  5
635
  8
0
 10
9.114155
 20
8.592238
 30
0.0
 11
9.325123
 21
8.592238
 31
0.0
  0
LINE
  5
636
  8
0
 10
9.325123
 20
8.592238
 30
0.0
 11
9.414155
 21
8.592238
 31
0.0
  0
LINE
  5
637
  8
0
 10
9.414155
 20
8.592238
 30
0.0
 11
10.468994
 21
8.592238
 31
0.0
  0
LINE
  5
638
  8
0
 10
10.468994
 20
8.592238
 30
0.0
 11
10.914155
 21
8.592238
 31
0.0
  0
LINE
  5
639
  8
0
 10
10.914155
 20
8.592238
 30
0.0
 11
11.125123
 21
8.592238
 31
0.0
  0
LINE
  5
63A
  8
0
 10
11.125123
 20
8.592238
 30
0.0
 11
11.214155
 21
8.592238
 31
0.0
  0
LINE
  5
63B
  8
0
 10
11.214155
 20
8.592238
 30
0.0
 11
12.268994
 21
8.592238
 31
0.0
  0
LINE
  5
63C
  8
0
 10
12.268994
 20
8.592238
 30
0.0
 11
12.714155
 21
8.592238
 31
0.0
  0
LINE
  5
63D
  8
0
 10
12.714155
 20
8.592238
 30
0.0
 11
12.925123
 21
8.592238
 31
0.0
  0
LINE
  5
63E
  8
0
 10
12.925123
 20
8.592238
 30
0.0
 11
13.014155
 21
8.592238
 31
0.0
  0
LINE
  5
63F
  8
0
 10
13.014155
 20
8.592238
 30
0.0
 11
14.068994
 21
8.592238
 31
0.0
  0
LINE
  5
640
  8
0
 10
14.068994
 20
8.592238
 30
0.0
 11
14.415032
 21
8.592238
 31
0.0
  0
LINE
  5
641
  8
0
 10
14.415032
 20
8.592238
 30
0.0
 11
14.626
 21
8.592238
 31
0.0
  0
LINE
  5
642
  8
0
 10
0.545
 20
9.092238
 30
0.0
 11
0.634032
 21
9.092238
 31
0.0
  0
LINE
  5
643
  8
0
 10
0.545
 20
9.092238
 30
0.0
 11
0.634032
 21
9.092238
 31
0.0
  0
LINE
  5
644
  8
0
 10
0.634032
 20
9.092238
 30
0.0
 11
1.464542
 21
9.092238
 31
0.0
  0
LINE
  5
645
  8
0
 10
1.464542
 20
9.092238
 30
0.0
 11
1.909703
 21
9.092238
 31
0.0
  0
LINE
  5
646
  8
0
 10
1.909703
 20
9.092238
 30
0.0
 11
2.120671
 21
9.092238
 31
0.0
  0
LINE
  5
647
  8
0
 10
2.120671
 20
9.092238
 30
0.0
 11
2.209703
 21
9.092238
 31
0.0
  0
LINE
  5
648
  8
0
 10
2.209703
 20
9.092238
 30
0.0
 11
3.264542
 21
9.092238
 31
0.0
  0
LINE
  5
649
  8
0
 10
3.264542
 20
9.092238
 30
0.0
 11
3.709703
 21
9.092238
 31
0.0
  0
LINE
  5
64A
  8
0
 10
3.709703
 20
9.092238
 30
0.0
 11
3.920671
 21
9.092238
 31
0.0
  0
LINE
  5
64B
  8
0
 10
3.920671
 20
9.092238
 30
0.0
 11
4.009703
 21
9.092238
 31
0.0
  0
LINE
  5
64C
  8
0
 10
4.009703
 20
9.092238
 30
0.0
 11
5.064542
 21
9.092238
 31
0.0
  0
LINE
  5
64D
  8
0
 10
5.064542
 20
9.092238
 30
0.0
 11
5.509703
 21
9.092238
 31
0.0
  0
LINE
  5
64E
  8
0
 10
5.509703
 20
9.092238
 30
0.0
 11
5.720671
 21
9.092238
 31
0.0
  0
LINE
  5
64F
  8
0
 10
5.720671
 20
9.092238
 30
0.0
 11
5.809703
 21
9.092238
 31
0.0
  0
LINE
  5
650
  8
0
 10
5.809703
 20
9.092238
 30
0.0
 11
6.864542
 21
9.092238
 31
0.0
  0
LINE
  5
651
  8
0
 10
6.864542
 20
9.092238
 30
0.0
 11
7.309703
 21
9.092238
 31
0.0
  0
LINE
  5
652
  8
0
 10
7.309703
 20
9.092238
 30
0.0
 11
7.520671
 21
9.092238
 31
0.0
  0
LINE
  5
653
  8
0
 10
7.520671
 20
9.092238
 30
0.0
 11
7.609703
 21
9.092238
 31
0.0
  0
LINE
  5
654
  8
0
 10
7.609703
 20
9.092238
 30
0.0
 11
8.664542
 21
9.092238
 31
0.0
  0
LINE
  5
655
  8
0
 10
8.664542
 20
9.092238
 30
0.0
 11
9.109703
 21
9.092238
 31
0.0
  0
LINE
  5
656
  8
0
 10
9.109703
 20
9.092238
 30
0.0
 11
9.320671
 21
9.092238
 31
0.0
  0
LINE
  5
657
  8
0
 10
9.320671
 20
9.092238
 30
0.0
 11
9.409703
 21
9.092238
 31
0.0
  0
LINE
  5
658
  8
0
 10
9.409703
 20
9.092238
 30
0.0
 11
10.464542
 21
9.092238
 31
0.0
  0
LINE
  5
659
  8
0
 10
10.464542
 20
9.092238
 30
0.0
 11
10.909703
 21
9.092238
 31
0.0
  0
LINE
  5
65A
  8
0
 10
10.909703
 20
9.092238
 30
0.0
 11
11.120671
 21
9.092238
 31
0.0
  0
LINE
  5
65B
  8
0
 10
11.120671
 20
9.092238
 30
0.0
 11
11.209703
 21
9.092238
 31
0.0
  0
LINE
  5
65C
  8
0
 10
11.209703
 20
9.092238
 30
0.0
 11
12.264542
 21
9.092238
 31
0.0
  0
LINE
  5
65D
  8
0
 10
12.264542
 20
9.092238
 30
0.0
 11
12.709703
 21
9.092238
 31
0.0
  0
LINE
  5
65E
  8
0
 10
12.709703
 20
9.092238
 30
0.0
 11
12.920671
 21
9.092238
 31
0.0
  0
LINE
  5
65F
  8
0
 10
12.920671
 20
9.092238
 30
0.0
 11
13.009703
 21
9.092238
 31
0.0
  0
LINE
  5
660
  8
0
 10
13.009703
 20
9.092238
 30
0.0
 11
14.064542
 21
9.092238
 31
0.0
  0
LINE
  5
661
  8
0
 10
14.064542
 20
9.092238
 30
0.0
 11
14.415032
 21
9.092238
 31
0.0
  0
LINE
  5
662
  8
0
 10
14.415032
 20
9.092238
 30
0.0
 11
14.626
 21
9.092238
 31
0.0
  0
LINE
  5
663
  8
0
 10
0.529
 20
9.592238
 30
0.0
 11
0.618032
 21
9.592238
 31
0.0
  0
LINE
  5
664
  8
0
 10
0.529
 20
9.592238
 30
0.0
 11
0.618032
 21
9.592238
 31
0.0
  0
LINE
  5
665
  8
0
 10
0.618032
 20
9.592238
 30
0.0
 11
1.459794
 21
9.592238
 31
0.0
  0
LINE
  5
666
  8
0
 10
1.459794
 20
9.592238
 30
0.0
 11
1.905252
 21
9.592238
 31
0.0
  0
LINE
  5
667
  8
0
 10
1.905252
 20
9.592238
 30
0.0
 11
2.116219
 21
9.592238
 31
0.0
  0
LINE
  5
668
  8
0
 10
2.116219
 20
9.592238
 30
0.0
 11
2.204955
 21
9.592238
 31
0.0
  0
LINE
  5
669
  8
0
 10
2.204955
 20
9.592238
 30
0.0
 11
3.259794
 21
9.592238
 31
0.0
  0
LINE
  5
66A
  8
0
 10
3.259794
 20
9.592238
 30
0.0
 11
3.705252
 21
9.592238
 31
0.0
  0
LINE
  5
66B
  8
0
 10
3.705252
 20
9.592238
 30
0.0
 11
3.916219
 21
9.592238
 31
0.0
  0
LINE
  5
66C
  8
0
 10
3.916219
 20
9.592238
 30
0.0
 11
4.004955
 21
9.592238
 31
0.0
  0
LINE
  5
66D
  8
0
 10
4.004955
 20
9.592238
 30
0.0
 11
5.059794
 21
9.592238
 31
0.0
  0
LINE
  5
66E
  8
0
 10
5.059794
 20
9.592238
 30
0.0
 11
5.505252
 21
9.592238
 31
0.0
  0
LINE
  5
66F
  8
0
 10
5.505252
 20
9.592238
 30
0.0
 11
5.716219
 21
9.592238
 31
0.0
  0
LINE
  5
670
  8
0
 10
5.716219
 20
9.592238
 30
0.0
 11
5.804955
 21
9.592238
 31
0.0
  0
LINE
  5
671
  8
0
 10
5.804955
 20
9.592238
 30
0.0
 11
6.859794
 21
9.592238
 31
0.0
  0
LINE
  5
672
  8
0
 10
6.859794
 20
9.592238
 30
0.0
 11
7.305252
 21
9.592238
 31
0.0
  0
LINE
  5
673
  8
0
 10
7.305252
 20
9.592238
 30
0.0
 11
7.516219
 21
9.592238
 31
0.0
  0
LINE
  5
674
  8
0
 10
7.516219
 20
9.592238
 30
0.0
 11
7.604955
 21
9.592238
 31
0.0
  0
LINE
  5
675
  8
0
 10
7.604955
 20
9.592238
 30
0.0
 11
8.659794
 21
9.592238
 31
0.0
  0
LINE
  5
676
  8
0
 10
8.659794
 20
9.592238
 30
0.0
 11
9.105252
 21
9.592238
 31
0.0
  0
LINE
  5
677
  8
0
 10
9.105252
 20
9.592238
 30
0.0
 11
9.316219
 21
9.592238
 31
0.0
  0
LINE
  5
678
  8
0
 10
9.316219
 20
9.592238
 30
0.0
 11
9.404955
 21
9.592238
 31
0.0
  0
LINE
  5
679
  8
0
 10
9.404955
 20
9.592238
 30
0.0
 11
10.459794
 21
9.592238
 31
0.0
  0
LINE
  5
67A
  8
0
 10
10.459794
 20
9.592238
 30
0.0
 11
10.905252
 21
9.592238
 31
0.0
  0
LINE
  5
67B
  8
0
 10
10.905252
 20
9.592238
 30
0.0
 11
11.116219
 21
9.592238
 31
0.0
  0
LINE
  5
67C
  8
0
 10
11.116219
 20
9.592238
 30
0.0
 11
11.204955
 21
9.592238
 31
0.0
  0
LINE
  5
67D
  8
0
 10
11.204955
 20
9.592238
 30
0.0
 11
12.259794
 21
9.592238
 31
0.0
  0
LINE
  5
67E
  8
0
 10
12.259794
 20
9.592238
 30
0.0
 11
12.705252
 21
9.592238
 31
0.0
  0
LINE
  5
67F
  8
0
 10
12.705252
 20
9.592238
 30
0.0
 11
12.916219
 21
9.592238
 31
0.0
  0
LINE
  5
680
  8
0
 10
12.916219
 20
9.592238
 30
0.0
 11
13.004955
 21
9.592238
 31
0.0
  0
LINE
  5
681
  8
0
 10
13.004955
 20
9.592238
 30
0.0
 11
14.059794
 21
9.592238
 31
0.0
  0
LINE
  5
682
  8
0
 10
14.059794
 20
9.592238
 30
0.0
 11
14.415032
 21
9.592238
 31
0.0
  0
LINE
  5
683
  8
0
 10
14.415032
 20
9.592238
 30
0.0
 11
14.626
 21
9.592238
 31
0.0
  0
LINE
  5
684
  8
0
 10
0.514
 20
10.092238
 30
0.0
 11
0.603032
 21
10.092238
 31
0.0
  0
LINE
  5
685
  8
0
 10
0.514
 20
10.092238
 30
0.0
 11
0.603032
 21
10.092238
 31
0.0
  0
LINE
  5
686
  8
0
 10
0.603032
 20
10.092238
 30
0.0
 11
1.455342
 21
10.092238
 31
0.0
  0
LINE
  5
687
  8
0
 10
1.455342
 20
10.092238
 30
0.0
 11
1.900503
 21
10.092238
 31
0.0
  0
LINE
  5
688
  8
0
 10
1.900503
 20
10.092238
 30
0.0
 11
2.111471
 21
10.092238
 31
0.0
  0
LINE
  5
689
  8
0
 10
2.111471
 20
10.092238
 30
0.0
 11
2.200503
 21
10.092238
 31
0.0
  0
LINE
  5
68A
  8
0
 10
2.200503
 20
10.092238
 30
0.0
 11
3.255342
 21
10.092238
 31
0.0
  0
LINE
  5
68B
  8
0
 10
3.255342
 20
10.092238
 30
0.0
 11
3.700503
 21
10.092238
 31
0.0
  0
LINE
  5
68C
  8
0
 10
3.700503
 20
10.092238
 30
0.0
 11
3.911471
 21
10.092238
 31
0.0
  0
LINE
  5
68D
  8
0
 10
3.911471
 20
10.092238
 30
0.0
 11
4.000503
 21
10.092238
 31
0.0
  0
LINE
  5
68E
  8
0
 10
4.000503
 20
10.092238
 30
0.0
 11
5.055342
 21
10.092238
 31
0.0
  0
LINE
  5
68F
  8
0
 10
5.055342
 20
10.092238
 30
0.0
 11
5.500503
 21
10.092238
 31
0.0
  0
LINE
  5
690
  8
0
 10
5.500503
 20
10.092238
 30
0.0
 11
5.711471
 21
10.092238
 31
0.0
  0
LINE
  5
691
  8
0
 10
5.711471
 20
10.092238
 30
0.0
 11
5.800503
 21
10.092238
 31
0.0
  0
LINE
  5
692
  8
0
 10
5.800503
 20
10.092238
 30
0.0
 11
6.855342
 21
10.092238
 31
0.0
  0
LINE
  5
693
  8
0
 10
6.855342
 20
10.092238
 30
0.0
 11
7.300503
 21
10.092238
 31
0.0
  0
LINE
  5
694
  8
0
 10
7.300503
 20
10.092238
 30
0.0
 11
7.511471
 21
10.092238
 31
0.0
  0
LINE
  5
695
  8
0
 10
7.511471
 20
10.092238
 30
0.0
 11
7.600503
 21
10.092238
 31
0.0
  0
LINE
  5
696
  8
0
 10
7.600503
 20
10.092238
 30
0.0
 11
8.655342
 21
10.092238
 31
0.0
  0
LINE
  5
697
  8
0
 10
8.655342
 20
10.092238
 30
0.0
 11
9.100503
 21
10.092238
 31
0.0
  0
LINE
  5
698
  8
0
 10
9.100503
 20
10.092238
 30
0.0
 11
9.311471
 21
10.092238
 31
0.0
  0
LINE
  5
699
  8
0
 10
9.311471
 20
10.092238
 30
0.0
 11
9.400503
 21
10.092238
 31
0.0
  0
LINE
  5
69A
  8
0
 10
9.400503
 20
10.092238
 30
0.0
 11
10.455342
 21
10.092238
 31
0.0
  0
LINE
  5
69B
  8
0
 10
10.455342
 20
10.092238
 30
0.0
 11
10.900503
 21
10.092238
 31
0.0
  0
LINE
  5
69C
  8
0
 10
10.900503
 20
10.092238
 30
0.0
 11
11.111471
 21
10.092238
 31
0.0
  0
LINE
  5
69D
  8
0
 10
11.111471
 20
10.092238
 30
0.0
 11
11.200503
 21
10.092238
 31
0.0
  0
LINE
  5
69E
  8
0
 10
11.200503
 20
10.092238
 30
0.0
 11
12.255342
 21
10.092238
 31
0.0
  0
LINE
  5
69F
  8
0
 10
12.255342
 20
10.092238
 30
0.0
 11
12.700503
 21
10.092238
 31
0.0
  0
LINE
  5
6A0
  8
0
 10
12.700503
 20
10.092238
 30
0.0
 11
12.911471
 21
10.092238
 31
0.0
  0
LINE
  5
6A1
  8
0
 10
12.911471
 20
10.092238
 30
0.0
 11
13.000503
 21
10.092238
 31
0.0
  0
LINE
  5
6A2
  8
0
 10
13.000503
 20
10.092238
 30
0.0
 11
14.055342
 21
10.092238
 31
0.0
  0
LINE
  5
6A3
  8
0
 10
14.055342
 20
10.092238
 30
0.0
 11
14.415032
 21
10.092238
 31
0.0
  0
LINE
  5
6A4
  8
0
 10
14.415032
 20
10.092238
 30
0.0
 11
14.626
 21
10.092238
 31
0.0
  0
LINE
  5
6A5
  8
0
 10
0.499
 20
10.592238
 30
0.0
 11
0.588032
 21
10.592238
 31
0.0
  0
LINE
  5
6A6
  8
0
 10
0.499
 20
10.592238
 30
0.0
 11
0.588032
 21
10.592238
 31
0.0
  0
LINE
  5
6A7
  8
0
 10
0.588032
 20
10.592238
 30
0.0
 11
1.45089
 21
10.592238
 31
0.0
  0
LINE
  5
6A8
  8
0
 10
1.45089
 20
10.592238
 30
0.0
 11
1.896052
 21
10.592238
 31
0.0
  0
LINE
  5
6A9
  8
0
 10
1.896052
 20
10.592238
 30
0.0
 11
2.107019
 21
10.592238
 31
0.0
  0
LINE
  5
6AA
  8
0
 10
2.107019
 20
10.592238
 30
0.0
 11
2.196052
 21
10.592238
 31
0.0
  0
LINE
  5
6AB
  8
0
 10
2.196052
 20
10.592238
 30
0.0
 11
3.25089
 21
10.592238
 31
0.0
  0
LINE
  5
6AC
  8
0
 10
3.25089
 20
10.592238
 30
0.0
 11
3.696052
 21
10.592238
 31
0.0
  0
LINE
  5
6AD
  8
0
 10
3.696052
 20
10.592238
 30
0.0
 11
3.907019
 21
10.592238
 31
0.0
  0
LINE
  5
6AE
  8
0
 10
3.907019
 20
10.592238
 30
0.0
 11
3.996052
 21
10.592238
 31
0.0
  0
LINE
  5
6AF
  8
0
 10
3.996052
 20
10.592238
 30
0.0
 11
5.05089
 21
10.592238
 31
0.0
  0
LINE
  5
6B0
  8
0
 10
5.05089
 20
10.592238
 30
0.0
 11
5.496052
 21
10.592238
 31
0.0
  0
LINE
  5
6B1
  8
0
 10
5.496052
 20
10.592238
 30
0.0
 11
5.707019
 21
10.592238
 31
0.0
  0
LINE
  5
6B2
  8
0
 10
5.707019
 20
10.592238
 30
0.0
 11
5.796052
 21
10.592238
 31
0.0
  0
LINE
  5
6B3
  8
0
 10
5.796052
 20
10.592238
 30
0.0
 11
6.85089
 21
10.592238
 31
0.0
  0
LINE
  5
6B4
  8
0
 10
6.85089
 20
10.592238
 30
0.0
 11
7.296052
 21
10.592238
 31
0.0
  0
LINE
  5
6B5
  8
0
 10
7.296052
 20
10.592238
 30
0.0
 11
7.507019
 21
10.592238
 31
0.0
  0
LINE
  5
6B6
  8
0
 10
7.507019
 20
10.592238
 30
0.0
 11
7.596052
 21
10.592238
 31
0.0
  0
LINE
  5
6B7
  8
0
 10
7.596052
 20
10.592238
 30
0.0
 11
8.65089
 21
10.592238
 31
0.0
  0
LINE
  5
6B8
  8
0
 10
8.65089
 20
10.592238
 30
0.0
 11
9.096052
 21
10.592238
 31
0.0
  0
LINE
  5
6B9
  8
0
 10
9.096052
 20
10.592238
 30
0.0
 11
9.307019
 21
10.592238
 31
0.0
  0
LINE
  5
6BA
  8
0
 10
9.307019
 20
10.592238
 30
0.0
 11
9.396052
 21
10.592238
 31
0.0
  0
LINE
  5
6BB
  8
0
 10
9.396052
 20
10.592238
 30
0.0
 11
10.45089
 21
10.592238
 31
0.0
  0
LINE
  5
6BC
  8
0
 10
10.45089
 20
10.592238
 30
0.0
 11
10.896052
 21
10.592238
 31
0.0
  0
LINE
  5
6BD
  8
0
 10
10.896052
 20
10.592238
 30
0.0
 11
11.107019
 21
10.592238
 31
0.0
  0
LINE
  5
6BE
  8
0
 10
11.107019
 20
10.592238
 30
0.0
 11
11.196052
 21
10.592238
 31
0.0
  0
LINE
  5
6BF
  8
0
 10
11.196052
 20
10.592238
 30
0.0
 11
12.25089
 21
10.592238
 31
0.0
  0
LINE
  5
6C0
  8
0
 10
12.25089
 20
10.592238
 30
0.0
 11
12.696052
 21
10.592238
 31
0.0
  0
LINE
  5
6C1
  8
0
 10
12.696052
 20
10.592238
 30
0.0
 11
12.907019
 21
10.592238
 31
0.0
  0
LINE
  5
6C2
  8
0
 10
12.907019
 20
10.592238
 30
0.0
 11
12.996052
 21
10.592238
 31
0.0
  0
LINE
  5
6C3
  8
0
 10
12.996052
 20
10.592238
 30
0.0
 11
14.05089
 21
10.592238
 31
0.0
  0
LINE
  5
6C4
  8
0
 10
14.05089
 20
10.592238
 30
0.0
 11
14.415032
 21
10.592238
 31
0.0
  0
LINE
  5
6C5
  8
0
 10
14.415032
 20
10.592238
 30
0.0
 11
14.626
 21
10.592238
 31
0.0
  0
LINE
  5
6C6
  8
0
 10
0.484
 20
11.092238
 30
0.0
 11
0.573032
 21
11.092238
 31
0.0
  0
LINE
  5
6C7
  8
0
 10
0.484
 20
11.092238
 30
0.0
 11
0.573032
 21
11.092238
 31
0.0
  0
LINE
  5
6C8
  8
0
 10
0.573032
 20
11.092238
 30
0.0
 11
1.446439
 21
11.092238
 31
0.0
  0
LINE
  5
6C9
  8
0
 10
1.446439
 20
11.092238
 30
0.0
 11
1.8916
 21
11.092238
 31
0.0
  0
LINE
  5
6CA
  8
0
 10
1.8916
 20
11.092238
 30
0.0
 11
2.102568
 21
11.092238
 31
0.0
  0
LINE
  5
6CB
  8
0
 10
2.102568
 20
11.092238
 30
0.0
 11
2.1916
 21
11.092238
 31
0.0
  0
LINE
  5
6CC
  8
0
 10
2.1916
 20
11.092238
 30
0.0
 11
3.246439
 21
11.092238
 31
0.0
  0
LINE
  5
6CD
  8
0
 10
3.246439
 20
11.092238
 30
0.0
 11
3.6916
 21
11.092238
 31
0.0
  0
LINE
  5
6CE
  8
0
 10
3.6916
 20
11.092238
 30
0.0
 11
3.902568
 21
11.092238
 31
0.0
  0
LINE
  5
6CF
  8
0
 10
3.902568
 20
11.092238
 30
0.0
 11
3.9916
 21
11.092238
 31
0.0
  0
LINE
  5
6D0
  8
0
 10
3.9916
 20
11.092238
 30
0.0
 11
5.046439
 21
11.092238
 31
0.0
  0
LINE
  5
6D1
  8
0
 10
5.046439
 20
11.092238
 30
0.0
 11
5.4916
 21
11.092238
 31
0.0
  0
LINE
  5
6D2
  8
0
 10
5.4916
 20
11.092238
 30
0.0
 11
5.702568
 21
11.092238
 31
0.0
  0
LINE
  5
6D3
  8
0
 10
5.702568
 20
11.092238
 30
0.0
 11
5.7916
 21
11.092238
 31
0.0
  0
LINE
  5
6D4
  8
0
 10
5.7916
 20
11.092238
 30
0.0
 11
6.846439
 21
11.092238
 31
0.0
  0
LINE
  5
6D5
  8
0
 10
6.846439
 20
11.092238
 30
0.0
 11
7.2916
 21
11.092238
 31
0.0
  0
LINE
  5
6D6
  8
0
 10
7.2916
 20
11.092238
 30
0.0
 11
7.502568
 21
11.092238
 31
0.0
  0
LINE
  5
6D7
  8
0
 10
7.502568
 20
11.092238
 30
0.0
 11
7.5916
 21
11.092238
 31
0.0
  0
LINE
  5
6D8
  8
0
 10
7.5916
 20
11.092238
 30
0.0
 11
8.646439
 21
11.092238
 31
0.0
  0
LINE
  5
6D9
  8
0
 10
8.646439
 20
11.092238
 30
0.0
 11
9.0916
 21
11.092238
 31
0.0
  0
LINE
  5
6DA
  8
0
 10
9.0916
 20
11.092238
 30
0.0
 11
9.302568
 21
11.092238
 31
0.0
  0
LINE
  5
6DB
  8
0
 10
9.302568
 20
11.092238
 30
0.0
 11
9.3916
 21
11.092238
 31
0.0
  0
LINE
  5
6DC
  8
0
 10
9.3916
 20
11.092238
 30
0.0
 11
10.446439
 21
11.092238
 31
0.0
  0
LINE
  5
6DD
  8
0
 10
10.446439
 20
11.092238
 30
0.0
 11
10.8916
 21
11.092238
 31
0.0
  0
LINE
  5
6DE
  8
0
 10
10.8916
 20
11.092238
 30
0.0
 11
11.102568
 21
11.092238
 31
0.0
  0
LINE
  5
6DF
  8
0
 10
11.102568
 20
11.092238
 30
0.0
 11
11.1916
 21
11.092238
 31
0.0
  0
LINE
  5
6E0
  8
0
 10
11.1916
 20
11.092238
 30
0.0
 11
12.246439
 21
11.092238
 31
0.0
  0
LINE
  5
6E1
  8
0
 10
12.246439
 20
11.092238
 30
0.0
 11
12.6916
 21
11.092238
 31
0.0
  0
LINE
  5
6E2
  8
0
 10
12.6916
 20
11.092238
 30
0.0
 11
12.902568
 21
11.092238
 31
0.0
  0
LINE
  5
6E3
  8
0
 10
12.902568
 20
11.092238
 30
0.0
 11
12.9916
 21
11.092238
 31
0.0
  0
LINE
  5
6E4
  8
0
 10
12.9916
 20
11.092238
 30
0.0
 11
14.046439
 21
11.092238
 31
0.0
  0
LINE
  5
6E5
  8
0
 10
14.046439
 20
11.092238
 30
0.0
 11
14.415032
 21
11.092238
 31
0.0
  0
LINE
  5
6E6
  8
0
 10
14.415032
 20
11.092238
 30
0.0
 11
14.626
 21
11.092238
 31
0.0
  0
LINE
  5
6E7
  8
0
 10
0.468
 20
11.592238
 30
0.0
 11
0.557032
 21
11.592238
 31
0.0
  0
LINE
  5
6E8
  8
0
 10
0.468
 20
11.592238
 30
0.0
 11
0.557032
 21
11.592238
 31
0.0
  0
LINE
  5
6E9
  8
0
 10
0.557032
 20
11.592238
 30
0.0
 11
1.44169
 21
11.592238
 31
0.0
  0
LINE
  5
6EA
  8
0
 10
1.44169
 20
11.592238
 30
0.0
 11
1.886852
 21
11.592238
 31
0.0
  0
LINE
  5
6EB
  8
0
 10
1.886852
 20
11.592238
 30
0.0
 11
2.097819
 21
11.592238
 31
0.0
  0
LINE
  5
6EC
  8
0
 10
2.097819
 20
11.592238
 30
0.0
 11
2.186852
 21
11.592238
 31
0.0
  0
LINE
  5
6ED
  8
0
 10
2.186852
 20
11.592238
 30
0.0
 11
3.24169
 21
11.592238
 31
0.0
  0
LINE
  5
6EE
  8
0
 10
3.24169
 20
11.592238
 30
0.0
 11
3.686852
 21
11.592238
 31
0.0
  0
LINE
  5
6EF
  8
0
 10
3.686852
 20
11.592238
 30
0.0
 11
3.897819
 21
11.592238
 31
0.0
  0
LINE
  5
6F0
  8
0
 10
3.897819
 20
11.592238
 30
0.0
 11
3.986852
 21
11.592238
 31
0.0
  0
LINE
  5
6F1
  8
0
 10
3.986852
 20
11.592238
 30
0.0
 11
5.04169
 21
11.592238
 31
0.0
  0
LINE
  5
6F2
  8
0
 10
5.04169
 20
11.592238
 30
0.0
 11
5.486852
 21
11.592238
 31
0.0
  0
LINE
  5
6F3
  8
0
 10
5.486852
 20
11.592238
 30
0.0
 11
5.697819
 21
11.592238
 31
0.0
  0
LINE
  5
6F4
  8
0
 10
5.697819
 20
11.592238
 30
0.0
 11
5.786852
 21
11.592238
 31
0.0
  0
LINE
  5
6F5
  8
0
 10
5.786852
 20
11.592238
 30
0.0
 11
6.84169
 21
11.592238
 31
0.0
  0
LINE
  5
6F6
  8
0
 10
6.84169
 20
11.592238
 30
0.0
 11
7.286852
 21
11.592238
 31
0.0
  0
LINE
  5
6F7
  8
0
 10
7.286852
 20
11.592238
 30
0.0
 11
7.497819
 21
11.592238
 31
0.0
  0
LINE
  5
6F8
  8
0
 10
7.497819
 20
11.592238
 30
0.0
 11
7.586852
 21
11.592238
 31
0.0
  0
LINE
  5
6F9
  8
0
 10
7.586852
 20
11.592238
 30
0.0
 11
8.64169
 21
11.592238
 31
0.0
  0
LINE
  5
6FA
  8
0
 10
8.64169
 20
11.592238
 30
0.0
 11
9.086852
 21
11.592238
 31
0.0
  0
LINE
  5
6FB
  8
0
 10
9.086852
 20
11.592238
 30
0.0
 11
9.297819
 21
11.592238
 31
0.0
  0
LINE
  5
6FC
  8
0
 10
9.297819
 20
11.592238
 30
0.0
 11
9.386852
 21
11.592238
 31
0.0
  0
LINE
  5
6FD
  8
0
 10
9.386852
 20
11.592238
 30
0.0
 11
10.44169
 21
11.592238
 31
0.0
  0
LINE
  5
6FE
  8
0
 10
10.44169
 20
11.592238
 30
0.0
 11
10.886852
 21
11.592238
 31
0.0
  0
LINE
  5
6FF
  8
0
 10
10.886852
 20
11.592238
 30
0.0
 11
11.097819
 21
11.592238
 31
0.0
  0
LINE
  5
700
  8
0
 10
11.097819
 20
11.592238
 30
0.0
 11
11.186852
 21
11.592238
 31
0.0
  0
LINE
  5
701
  8
0
 10
11.186852
 20
11.592238
 30
0.0
 11
12.24169
 21
11.592238
 31
0.0
  0
LINE
  5
702
  8
0
 10
12.24169
 20
11.592238
 30
0.0
 11
12.686852
 21
11.592238
 31
0.0
  0
LINE
  5
703
  8
0
 10
12.686852
 20
11.592238
 30
0.0
 11
12.897819
 21
11.592238
 31
0.0
  0
LINE
  5
704
  8
0
 10
12.897819
 20
11.592238
 30
0.0
 11
12.986852
 21
11.592238
 31
0.0
  0
LINE
  5
705
  8
0
 10
12.986852
 20
11.592238
 30
0.0
 11
14.04169
 21
11.592238
 31
0.0
  0
LINE
  5
706
  8
0
 10
14.04169
 20
11.592238
 30
0.0
 11
14.415032
 21
11.592238
 31
0.0
  0
LINE
  5
707
  8
0
 10
14.415032
 20
11.592238
 30
0.0
 11
14.626
 21
11.592238
 31
0.0
  0
LINE
  5
708
  8
0
 10
0.453
 20
12.092238
 30
0.0
 11
0.542032
 21
12.092238
 31
0.0
  0
LINE
  5
709
  8
0
 10
0.453
 20
12.092238
 30
0.0
 11
0.542032
 21
12.092238
 31
0.0
  0
LINE
  5
70A
  8
0
 10
0.542032
 20
12.092238
 30
0.0
 11
1.437239
 21
12.092238
 31
0.0
  0
LINE
  5
70B
  8
0
 10
1.437239
 20
12.092238
 30
0.0
 11
1.8824
 21
12.092238
 31
0.0
  0
LINE
  5
70C
  8
0
 10
1.8824
 20
12.092238
 30
0.0
 11
2.093368
 21
12.092238
 31
0.0
  0
LINE
  5
70D
  8
0
 10
2.093368
 20
12.092238
 30
0.0
 11
2.1824
 21
12.092238
 31
0.0
  0
LINE
  5
70E
  8
0
 10
2.1824
 20
12.092238
 30
0.0
 11
3.237239
 21
12.092238
 31
0.0
  0
LINE
  5
70F
  8
0
 10
3.237239
 20
12.092238
 30
0.0
 11
3.6824
 21
12.092238
 31
0.0
  0
LINE
  5
710
  8
0
 10
3.6824
 20
12.092238
 30
0.0
 11
3.893368
 21
12.092238
 31
0.0
  0
LINE
  5
711
  8
0
 10
3.893368
 20
12.092238
 30
0.0
 11
3.9824
 21
12.092238
 31
0.0
  0
LINE
  5
712
  8
0
 10
3.9824
 20
12.092238
 30
0.0
 11
5.037239
 21
12.092238
 31
0.0
  0
LINE
  5
713
  8
0
 10
5.037239
 20
12.092238
 30
0.0
 11
5.4824
 21
12.092238
 31
0.0
  0
LINE
  5
714
  8
0
 10
5.4824
 20
12.092238
 30
0.0
 11
5.693368
 21
12.092238
 31
0.0
  0
LINE
  5
715
  8
0
 10
5.693368
 20
12.092238
 30
0.0
 11
5.7824
 21
12.092238
 31
0.0
  0
LINE
  5
716
  8
0
 10
5.7824
 20
12.092238
 30
0.0
 11
6.837239
 21
12.092238
 31
0.0
  0
LINE
  5
717
  8
0
 10
6.837239
 20
12.092238
 30
0.0
 11
7.2824
 21
12.092238
 31
0.0
  0
LINE
  5
718
  8
0
 10
7.2824
 20
12.092238
 30
0.0
 11
7.493368
 21
12.092238
 31
0.0
  0
LINE
  5
719
  8
0
 10
7.493368
 20
12.092238
 30
0.0
 11
7.5824
 21
12.092238
 31
0.0
  0
LINE
  5
71A
  8
0
 10
7.5824
 20
12.092238
 30
0.0
 11
8.637239
 21
12.092238
 31
0.0
  0
LINE
  5
71B
  8
0
 10
8.637239
 20
12.092238
 30
0.0
 11
9.0824
 21
12.092238
 31
0.0
  0
LINE
  5
71C
  8
0
 10
9.0824
 20
12.092238
 30
0.0
 11
9.293368
 21
12.092238
 31
0.0
  0
LINE
  5
71D
  8
0
 10
9.293368
 20
12.092238
 30
0.0
 11
9.3824
 21
12.092238
 31
0.0
  0
LINE
  5
71E
  8
0
 10
9.3824
 20
12.092238
 30
0.0
 11
10.437239
 21
12.092238
 31
0.0
  0
LINE
  5
71F
  8
0
 10
10.437239
 20
12.092238
 30
0.0
 11
10.8824
 21
12.092238
 31
0.0
  0
LINE
  5
720
  8
0
 10
10.8824
 20
12.092238
 30
0.0
 11
11.093368
 21
12.092238
 31
0.0
  0
LINE
  5
721
  8
0
 10
11.093368
 20
12.092238
 30
0.0
 11
11.1824
 21
12.092238
 31
0.0
  0
LINE
  5
722
  8
0
 10
11.1824
 20
12.092238
 30
0.0
 11
12.237239
 21
12.092238
 31
0.0
  0
LINE
  5
723
  8
0
 10
12.237239
 20
12.092238
 30
0.0
 11
12.6824
 21
12.092238
 31
0.0
  0
LINE
  5
724
  8
0
 10
12.6824
 20
12.092238
 30
0.0
 11
12.893368
 21
12.092238
 31
0.0
  0
LINE
  5
725
  8
0
 10
12.893368
 20
12.092238
 30
0.0
 11
12.9824
 21
12.092238
 31
0.0
  0
LINE
  5
726
  8
0
 10
12.9824
 20
12.092238
 30
0.0
 11
14.037239
 21
12.092238
 31
0.0
  0
LINE
  5
727
  8
0
 10
14.037239
 20
12.092238
 30
0.0
 11
14.415032
 21
12.092238
 31
0.0
  0
LINE
  5
728
  8
0
 10
14.415032
 20
12.092238
 30
0.0
 11
14.626
 21
12.092238
 31
0.0
  0
LINE
  5
729
  8
0
 10
0.438
 20
12.592238
 30
0.0
 11
0.527032
 21
12.592238
 31
0.0
  0
LINE
  5
72A
  8
0
 10
0.438
 20
12.592238
 30
0.0
 11
0.527032
 21
12.592238
 31
0.0
  0
LINE
  5
72B
  8
0
 10
0.527032
 20
12.592238
 30
0.0
 11
1.432787
 21
12.592238
 31
0.0
  0
LINE
  5
72C
  8
0
 10
1.432787
 20
12.592238
 30
0.0
 11
1.877948
 21
12.592238
 31
0.0
  0
LINE
  5
72D
  8
0
 10
1.877948
 20
12.592238
 30
0.0
 11
2.088916
 21
12.592238
 31
0.0
  0
LINE
  5
72E
  8
0
 10
2.088916
 20
12.592238
 30
0.0
 11
2.177948
 21
12.592238
 31
0.0
  0
LINE
  5
72F
  8
0
 10
2.177948
 20
12.592238
 30
0.0
 11
3.232787
 21
12.592238
 31
0.0
  0
LINE
  5
730
  8
0
 10
3.232787
 20
12.592238
 30
0.0
 11
3.677948
 21
12.592238
 31
0.0
  0
LINE
  5
731
  8
0
 10
3.677948
 20
12.592238
 30
0.0
 11
3.888916
 21
12.592238
 31
0.0
  0
LINE
  5
732
  8
0
 10
3.888916
 20
12.592238
 30
0.0
 11
3.977948
 21
12.592238
 31
0.0
  0
LINE
  5
733
  8
0
 10
3.977948
 20
12.592238
 30
0.0
 11
5.032787
 21
12.592238
 31
0.0
  0
LINE
  5
734
  8
0
 10
5.032787
 20
12.592238
 30
0.0
 11
5.477948
 21
12.592238
 31
0.0
  0
LINE
  5
735
  8
0
 10
5.477948
 20
12.592238
 30
0.0
 11
5.688916
 21
12.592238
 31
0.0
  0
LINE
  5
736
  8
0
 10
5.688916
 20
12.592238
 30
0.0
 11
5.777948
 21
12.592238
 31
0.0
  0
LINE
  5
737
  8
0
 10
5.777948
 20
12.592238
 30
0.0
 11
6.832787
 21
12.592238
 31
0.0
  0
LINE
  5
738
  8
0
 10
6.832787
 20
12.592238
 30
0.0
 11
7.277948
 21
12.592238
 31
0.0
  0
LINE
  5
739
  8
0
 10
7.277948
 20
12.592238
 30
0.0
 11
7.488916
 21
12.592238
 31
0.0
  0
LINE
  5
73A
  8
0
 10
7.488916
 20
12.592238
 30
0.0
 11
7.577948
 21
12.592238
 31
0.0
  0
LINE
  5
73B
  8
0
 10
7.577948
 20
12.592238
 30
0.0
 11
8.632787
 21
12.592238
 31
0.0
  0
LINE
  5
73C
  8
0
 10
8.632787
 20
12.592238
 30
0.0
 11
9.077948
 21
12.592238
 31
0.0
  0
LINE
  5
73D
  8
0
 10
9.077948
 20
12.592238
 30
0.0
 11
9.288916
 21
12.592238
 31
0.0
  0
LINE
  5
73E
  8
0
 10
9.288916
 20
12.592238
 30
0.0
 11
9.377948
 21
12.592238
 31
0.0
  0
LINE
  5
73F
  8
0
 10
9.377948
 20
12.592238
 30
0.0
 11
10.432787
 21
12.592238
 31
0.0
  0
LINE
  5
740
  8
0
 10
10.432787
 20
12.592238
 30
0.0
 11
10.877948
 21
12.592238
 31
0.0
  0
LINE
  5
741
  8
0
 10
10.877948
 20
12.592238
 30
0.0
 11
11.088916
 21
12.592238
 31
0.0
  0
LINE
  5
742
  8
0
 10
11.088916
 20
12.592238
 30
0.0
 11
11.177948
 21
12.592238
 31
0.0
  0
LINE
  5
743
  8
0
 10
11.177948
 20
12.592238
 30
0.0
 11
12.232787
 21
12.592238
 31
0.0
  0
LINE
  5
744
  8
0
 10
12.232787
 20
12.592238
 30
0.0
 11
12.677948
 21
12.592238
 31
0.0
  0
LINE
  5
745
  8
0
 10
12.677948
 20
12.592238
 30
0.0
 11
12.888916
 21
12.592238
 31
0.0
  0
LINE
  5
746
  8
0
 10
12.888916
 20
12.592238
 30
0.0
 11
12.977948
 21
12.592238
 31
0.0
  0
LINE
  5
747
  8
0
 10
12.977948
 20
12.592238
 30
0.0
 11
14.032787
 21
12.592238
 31
0.0
  0
LINE
  5
748
  8
0
 10
14.032787
 20
12.592238
 30
0.0
 11
14.415032
 21
12.592238
 31
0.0
  0
LINE
  5
749
  8
0
 10
14.415032
 20
12.592238
 30
0.0
 11
14.626
 21
12.592238
 31
0.0
  0
LINE
  5
74A
  8
0
 10
0.451
 20
13.092238
 30
0.0
 11
0.540032
 21
13.092238
 31
0.0
  0
LINE
  5
74B
  8
0
 10
0.451
 20
13.092238
 30
0.0
 11
0.540032
 21
13.092238
 31
0.0
  0
LINE
  5
74C
  8
0
 10
0.540032
 20
13.092238
 30
0.0
 11
1.436645
 21
13.092238
 31
0.0
  0
LINE
  5
74D
  8
0
 10
1.436645
 20
13.092238
 30
0.0
 11
1.881806
 21
13.092238
 31
0.0
  0
LINE
  5
74E
  8
0
 10
1.881806
 20
13.092238
 30
0.0
 11
2.092774
 21
13.092238
 31
0.0
  0
LINE
  5
74F
  8
0
 10
2.092774
 20
13.092238
 30
0.0
 11
2.181806
 21
13.092238
 31
0.0
  0
LINE
  5
750
  8
0
 10
2.181806
 20
13.092238
 30
0.0
 11
3.236645
 21
13.092238
 31
0.0
  0
LINE
  5
751
  8
0
 10
3.236645
 20
13.092238
 30
0.0
 11
3.681806
 21
13.092238
 31
0.0
  0
LINE
  5
752
  8
0
 10
3.681806
 20
13.092238
 30
0.0
 11
3.892774
 21
13.092238
 31
0.0
  0
LINE
  5
753
  8
0
 10
3.892774
 20
13.092238
 30
0.0
 11
3.981806
 21
13.092238
 31
0.0
  0
LINE
  5
754
  8
0
 10
3.981806
 20
13.092238
 30
0.0
 11
5.036645
 21
13.092238
 31
0.0
  0
LINE
  5
755
  8
0
 10
5.036645
 20
13.092238
 30
0.0
 11
5.481806
 21
13.092238
 31
0.0
  0
LINE
  5
756
  8
0
 10
5.481806
 20
13.092238
 30
0.0
 11
5.692774
 21
13.092238
 31
0.0
  0
LINE
  5
757
  8
0
 10
5.692774
 20
13.092238
 30
0.0
 11
5.781806
 21
13.092238
 31
0.0
  0
LINE
  5
758
  8
0
 10
5.781806
 20
13.092238
 30
0.0
 11
6.836645
 21
13.092238
 31
0.0
  0
LINE
  5
759
  8
0
 10
6.836645
 20
13.092238
 30
0.0
 11
7.281806
 21
13.092238
 31
0.0
  0
LINE
  5
75A
  8
0
 10
7.281806
 20
13.092238
 30
0.0
 11
7.492774
 21
13.092238
 31
0.0
  0
LINE
  5
75B
  8
0
 10
7.492774
 20
13.092238
 30
0.0
 11
7.581806
 21
13.092238
 31
0.0
  0
LINE
  5
75C
  8
0
 10
7.581806
 20
13.092238
 30
0.0
 11
8.636645
 21
13.092238
 31
0.0
  0
LINE
  5
75D
  8
0
 10
8.636645
 20
13.092238
 30
0.0
 11
9.081806
 21
13.092238
 31
0.0
  0
LINE
  5
75E
  8
0
 10
9.081806
 20
13.092238
 30
0.0
 11
9.292774
 21
13.092238
 31
0.0
  0
LINE
  5
75F
  8
0
 10
9.292774
 20
13.092238
 30
0.0
 11
9.381806
 21
13.092238
 31
0.0
  0
LINE
  5
760
  8
0
 10
9.381806
 20
13.092238
 30
0.0
 11
10.436645
 21
13.092238
 31
0.0
  0
LINE
  5
761
  8
0
 10
10.436645
 20
13.092238
 30
0.0
 11
10.881806
 21
13.092238
 31
0.0
  0
LINE
  5
762
  8
0
 10
10.881806
 20
13.092238
 30
0.0
 11
11.092774
 21
13.092238
 31
0.0
  0
LINE
  5
763
  8
0
 10
11.092774
 20
13.092238
 30
0.0
 11
11.181806
 21
13.092238
 31
0.0
  0
LINE
  5
764
  8
0
 10
11.181806
 20
13.092238
 30
0.0
 11
12.236645
 21
13.092238
 31
0.0
  0
LINE
  5
765
  8
0
 10
12.236645
 20
13.092238
 30
0.0
 11
12.681806
 21
13.092238
 31
0.0
  0
LINE
  5
766
  8
0
 10
12.681806
 20
13.092238
 30
0.0
 11
12.892774
 21
13.092238
 31
0.0
  0
LINE
  5
767
  8
0
 10
12.892774
 20
13.092238
 30
0.0
 11
12.981806
 21
13.092238
 31
0.0
  0
LINE
  5
768
  8
0
 10
12.981806
 20
13.092238
 30
0.0
 11
14.036645
 21
13.092238
 31
0.0
  0
LINE
  5
769
  8
0
 10
14.036645
 20
13.092238
 30
0.0
 11
14.415032
 21
13.092238
 31
0.0
  0
LINE
  5
76A
  8
0
 10
14.415032
 20
13.092238
 30
0.0
 11
14.626
 21
13.092238
 31
0.0
  0
LINE
  5
76B
  8
0
 10
0.511
 20
13.592238
 30
0.0
 11
0.600032
 21
13.592238
 31
0.0
  0
LINE
  5
76C
  8
0
 10
0.511
 20
13.592238
 30
0.0
 11
0.600032
 21
13.592238
 31
0.0
  0
LINE
  5
76D
  8
0
 10
0.600032
 20
13.592238
 30
0.0
 11
1.454452
 21
13.592238
 31
0.0
  0
LINE
  5
76E
  8
0
 10
1.454452
 20
13.592238
 30
0.0
 11
1.899613
 21
13.592238
 31
0.0
  0
LINE
  5
76F
  8
0
 10
1.899613
 20
13.592238
 30
0.0
 11
2.110581
 21
13.592238
 31
0.0
  0
LINE
  5
770
  8
0
 10
2.110581
 20
13.592238
 30
0.0
 11
2.199613
 21
13.592238
 31
0.0
  0
LINE
  5
771
  8
0
 10
2.199613
 20
13.592238
 30
0.0
 11
3.254452
 21
13.592238
 31
0.0
  0
LINE
  5
772
  8
0
 10
3.254452
 20
13.592238
 30
0.0
 11
3.699613
 21
13.592238
 31
0.0
  0
LINE
  5
773
  8
0
 10
3.699613
 20
13.592238
 30
0.0
 11
3.910581
 21
13.592238
 31
0.0
  0
LINE
  5
774
  8
0
 10
3.910581
 20
13.592238
 30
0.0
 11
3.999613
 21
13.592238
 31
0.0
  0
LINE
  5
775
  8
0
 10
3.999613
 20
13.592238
 30
0.0
 11
5.054452
 21
13.592238
 31
0.0
  0
LINE
  5
776
  8
0
 10
5.054452
 20
13.592238
 30
0.0
 11
5.499613
 21
13.592238
 31
0.0
  0
LINE
  5
777
  8
0
 10
5.499613
 20
13.592238
 30
0.0
 11
5.710581
 21
13.592238
 31
0.0
  0
LINE
  5
778
  8
0
 10
5.710581
 20
13.592238
 30
0.0
 11
5.799613
 21
13.592238
 31
0.0
  0
LINE
  5
779
  8
0
 10
5.799613
 20
13.592238
 30
0.0
 11
6.854452
 21
13.592238
 31
0.0
  0
LINE
  5
77A
  8
0
 10
6.854452
 20
13.592238
 30
0.0
 11
7.299613
 21
13.592238
 31
0.0
  0
LINE
  5
77B
  8
0
 10
7.299613
 20
13.592238
 30
0.0
 11
7.510581
 21
13.592238
 31
0.0
  0
LINE
  5
77C
  8
0
 10
7.510581
 20
13.592238
 30
0.0
 11
7.599613
 21
13.592238
 31
0.0
  0
LINE
  5
77D
  8
0
 10
7.599613
 20
13.592238
 30
0.0
 11
8.654452
 21
13.592238
 31
0.0
  0
LINE
  5
77E
  8
0
 10
8.654452
 20
13.592238
 30
0.0
 11
9.099613
 21
13.592238
 31
0.0
  0
LINE
  5
77F
  8
0
 10
9.099613
 20
13.592238
 30
0.0
 11
9.310581
 21
13.592238
 31
0.0
  0
LINE
  5
780
  8
0
 10
9.310581
 20
13.592238
 30
0.0
 11
9.399613
 21
13.592238
 31
0.0
  0
LINE
  5
781
  8
0
 10
9.399613
 20
13.592238
 30
0.0
 11
10.454452
 21
13.592238
 31
0.0
  0
LINE
  5
782
  8
0
 10
10.454452
 20
13.592238
 30
0.0
 11
10.899613
 21
13.592238
 31
0.0
  0
LINE
  5
783
  8
0
 10
10.899613
 20
13.592238
 30
0.0
 11
11.110581
 21
13.592238
 31
0.0
  0
LINE
  5
784
  8
0
 10
11.110581
 20
13.592238
 30
0.0
 11
11.199613
 21
13.592238
 31
0.0
  0
LINE
  5
785
  8
0
 10
11.199613
 20
13.592238
 30
0.0
 11
12.254452
 21
13.592238
 31
0.0
  0
LINE
  5
786
  8
0
 10
12.254452
 20
13.592238
 30
0.0
 11
12.699613
 21
13.592238
 31
0.0
  0
LINE
  5
787
  8
0
 10
12.699613
 20
13.592238
 30
0.0
 11
12.910581
 21
13.592238
 31
0.0
  0
LINE
  5
788
  8
0
 10
12.910581
 20
13.592238
 30
0.0
 11
12.999613
 21
13.592238
 31
0.0
  0
LINE
  5
789
  8
0
 10
12.999613
 20
13.592238
 30
0.0
 11
14.054452
 21
13.592238
 31
0.0
  0
LINE
  5
78A
  8
0
 10
14.054452
 20
13.592238
 30
0.0
 11
14.415032
 21
13.592238
 31
0.0
  0
LINE
  5
78B
  8
0
 10
14.415032
 20
13.592238
 30
0.0
 11
14.626
 21
13.592238
 31
0.0
  0
LINE
  5
78C
  8
0
 10
0.654
 20
14.092238
 30
0.0
 11
0.743032
 21
14.092238
 31
0.0
  0
LINE
  5
78D
  8
0
 10
0.654
 20
14.092238
 30
0.0
 11
0.743032
 21
14.092238
 31
0.0
  0
LINE
  5
78E
  8
0
 10
0.743032
 20
14.092238
 30
0.0
 11
1.49689
 21
14.092238
 31
0.0
  0
LINE
  5
78F
  8
0
 10
1.49689
 20
14.092238
 30
0.0
 11
1.942052
 21
14.092238
 31
0.0
  0
LINE
  5
790
  8
0
 10
1.942052
 20
14.092238
 30
0.0
 11
2.153019
 21
14.092238
 31
0.0
  0
LINE
  5
791
  8
0
 10
2.153019
 20
14.092238
 30
0.0
 11
2.242052
 21
14.092238
 31
0.0
  0
LINE
  5
792
  8
0
 10
2.242052
 20
14.092238
 30
0.0
 11
3.29689
 21
14.092238
 31
0.0
  0
LINE
  5
793
  8
0
 10
3.29689
 20
14.092238
 30
0.0
 11
3.742052
 21
14.092238
 31
0.0
  0
LINE
  5
794
  8
0
 10
3.742052
 20
14.092238
 30
0.0
 11
3.953019
 21
14.092238
 31
0.0
  0
LINE
  5
795
  8
0
 10
3.953019
 20
14.092238
 30
0.0
 11
4.042052
 21
14.092238
 31
0.0
  0
LINE
  5
796
  8
0
 10
4.042052
 20
14.092238
 30
0.0
 11
5.09689
 21
14.092238
 31
0.0
  0
LINE
  5
797
  8
0
 10
5.09689
 20
14.092238
 30
0.0
 11
5.542052
 21
14.092238
 31
0.0
  0
LINE
  5
798
  8
0
 10
5.542052
 20
14.092238
 30
0.0
 11
5.753019
 21
14.092238
 31
0.0
  0
LINE
  5
799
  8
0
 10
5.753019
 20
14.092238
 30
0.0
 11
5.842052
 21
14.092238
 31
0.0
  0
LINE
  5
79A
  8
0
 10
5.842052
 20
14.092238
 30
0.0
 11
6.89689
 21
14.092238
 31
0.0
  0
LINE
  5
79B
  8
0
 10
6.89689
 20
14.092238
 30
0.0
 11
7.342052
 21
14.092238
 31
0.0
  0
LINE
  5
79C
  8
0
 10
7.342052
 20
14.092238
 30
0.0
 11
7.553019
 21
14.092238
 31
0.0
  0
LINE
  5
79D
  8
0
 10
7.553019
 20
14.092238
 30
0.0
 11
7.642052
 21
14.092238
 31
0.0
  0
LINE
  5
79E
  8
0
 10
7.642052
 20
14.092238
 30
0.0
 11
8.69689
 21
14.092238
 31
0.0
  0
LINE
  5
79F
  8
0
 10
8.69689
 20
14.092238
 30
0.0
 11
9.142052
 21
14.092238
 31
0.0
  0
LINE
  5
7A0
  8
0
 10
9.142052
 20
14.092238
 30
0.0
 11
9.353019
 21
14.092238
 31
0.0
  0
LINE
  5
7A1
  8
0
 10
9.353019
 20
14.092238
 30
0.0
 11
9.442052
 21
14.092238
 31
0.0
  0
LINE
  5
7A2
  8
0
 10
9.442052
 20
14.092238
 30
0.0
 11
10.49689
 21
14.092238
 31
0.0
  0
LINE
  5
7A3
  8
0
 10
10.49689
 20
14.092238
 30
0.0
 11
10.942052
 21
14.092238
 31
0.0
  0
LINE
  5
7A4
  8
0
 10
10.942052
 20
14.092238
 30
0.0
 11
11.153019
 21
14.092238
 31
0.0
  0
LINE
  5
7A5
  8
0
 10
11.153019
 20
14.092238
 30
0.0
 11
11.242052
 21
14.092238
 31
0.0
  0
LINE
  5
7A6
  8
0
 10
11.242052
 20
14.092238
 30
0.0
 11
12.29689
 21
14.092238
 31
0.0
  0
LINE
  5
7A7
  8
0
 10
12.29689
 20
14.092238
 30
0.0
 11
12.742052
 21
14.092238
 31
0.0
  0
LINE
  5
7A8
  8
0
 10
12.742052
 20
14.092238
 30
0.0
 11
12.953019
 21
14.092238
 31
0.0
  0
LINE
  5
7A9
  8
0
 10
12.953019
 20
14.092238
 30
0.0
 11
13.042052
 21
14.092238
 31
0.0
  0
LINE
  5
7AA
  8
0
 10
13.042052
 20
14.092238
 30
0.0
 11
14.09689
 21
14.092238
 31
0.0
  0
LINE
  5
7AB
  8
0
 10
14.09689
 20
14.092238
 30
0.0
 11
14.415032
 21
14.092238
 31
0.0
  0
LINE
  5
7AC
  8
0
 10
14.415032
 20
14.092238
 30
0.0
 11
14.626
 21
14.092238
 31
0.0
  0
LINE
  5
7AD
  8
0
 10
1.221
 20
14.592238
 30
0.0
 11
1.310032
 21
14.592238
 31
0.0
  0
LINE
  5
7AE
  8
0
 10
1.221
 20
14.592238
 30
0.0
 11
1.310032
 21
14.592238
 31
0.0
  0
LINE
  5
7AF
  8
0
 10
1.310032
 20
14.592238
 30
0.0
 11
1.665161
 21
14.592238
 31
0.0
  0
LINE
  5
7B0
  8
0
 10
1.665161
 20
14.592238
 30
0.0
 11
1.876129
 21
14.592238
 31
0.0
  0
LINE
  5
7B1
  8
0
 10
1.876129
 20
14.592238
 30
0.0
 11
2.32129
 21
14.592238
 31
0.0
  0
LINE
  5
7B2
  8
0
 10
2.32129
 20
14.592238
 30
0.0
 11
3.376129
 21
14.592238
 31
0.0
  0
LINE
  5
7B3
  8
0
 10
3.376129
 20
14.592238
 30
0.0
 11
3.465161
 21
14.592238
 31
0.0
  0
LINE
  5
7B4
  8
0
 10
3.465161
 20
14.592238
 30
0.0
 11
3.676129
 21
14.592238
 31
0.0
  0
LINE
  5
7B5
  8
0
 10
3.676129
 20
14.592238
 30
0.0
 11
4.12129
 21
14.592238
 31
0.0
  0
LINE
  5
7B6
  8
0
 10
4.12129
 20
14.592238
 30
0.0
 11
5.176129
 21
14.592238
 31
0.0
  0
LINE
  5
7B7
  8
0
 10
5.176129
 20
14.592238
 30
0.0
 11
5.265161
 21
14.592238
 31
0.0
  0
LINE
  5
7B8
  8
0
 10
5.265161
 20
14.592238
 30
0.0
 11
5.476129
 21
14.592238
 31
0.0
  0
LINE
  5
7B9
  8
0
 10
5.476129
 20
14.592238
 30
0.0
 11
5.727794
 21
14.592238
 31
0.0
  0
LINE
  5
7BA
  8
0
 10
5.727794
 20
14.592238
 30
0.0
 11
5.816826
 21
14.592238
 31
0.0
  0
LINE
  5
7BB
  8
0
 10
5.816826
 20
14.592238
 30
0.0
 11
6.871665
 21
14.592238
 31
0.0
  0
LINE
  5
7BC
  8
0
 10
6.871665
 20
14.592238
 30
0.0
 11
7.316826
 21
14.592238
 31
0.0
  0
LINE
  5
7BD
  8
0
 10
7.316826
 20
14.592238
 30
0.0
 11
7.527794
 21
14.592238
 31
0.0
  0
LINE
  5
7BE
  8
0
 10
7.527794
 20
14.592238
 30
0.0
 11
7.616826
 21
14.592238
 31
0.0
  0
LINE
  5
7BF
  8
0
 10
7.616826
 20
14.592238
 30
0.0
 11
8.671665
 21
14.592238
 31
0.0
  0
LINE
  5
7C0
  8
0
 10
8.671665
 20
14.592238
 30
0.0
 11
9.116826
 21
14.592238
 31
0.0
  0
LINE
  5
7C1
  8
0
 10
9.116826
 20
14.592238
 30
0.0
 11
9.327794
 21
14.592238
 31
0.0
  0
LINE
  5
7C2
  8
0
 10
9.327794
 20
14.592238
 30
0.0
 11
9.416826
 21
14.592238
 31
0.0
  0
LINE
  5
7C3
  8
0
 10
9.416826
 20
14.592238
 30
0.0
 11
10.471665
 21
14.592238
 31
0.0
  0
LINE
  5
7C4
  8
0
 10
10.471665
 20
14.592238
 30
0.0
 11
10.916826
 21
14.592238
 31
0.0
  0
LINE
  5
7C5
  8
0
 10
10.916826
 20
14.592238
 30
0.0
 11
11.127794
 21
14.592238
 31
0.0
  0
LINE
  5
7C6
  8
0
 10
11.127794
 20
14.592238
 30
0.0
 11
11.216826
 21
14.592238
 31
0.0
  0
LINE
  5
7C7
  8
0
 10
11.216826
 20
14.592238
 30
0.0
 11
12.271665
 21
14.592238
 31
0.0
  0
LINE
  5
7C8
  8
0
 10
12.271665
 20
14.592238
 30
0.0
 11
12.716826
 21
14.592238
 31
0.0
  0
LINE
  5
7C9
  8
0
 10
12.716826
 20
14.592238
 30
0.0
 11
12.927794
 21
14.592238
 31
0.0
  0
LINE
  5
7CA
  8
0
 10
12.927794
 20
14.592238
 30
0.0
 11
13.016826
 21
14.592238
 31
0.0
  0
LINE
  5
7CB
  8
0
 10
13.016826
 20
14.592238
 30
0.0
 11
14.071665
 21
14.592238
 31
0.0
  0
LINE
  5
7CC
  8
0
 10
14.071665
 20
14.592238
 30
0.0
 11
14.415032
 21
14.592238
 31
0.0
  0
LINE
  5
7CD
  8
0
 10
14.415032
 20
14.592238
 30
0.0
 11
14.626
 21
14.592238
 31
0.0
  0
ENDSEC
  0
EOF
