  0
SECTION
  2
HEADER
  9
$ACADVER
  1
AC1009
  9
$DWGCODEPAGE
  3
ANSI_1252
  9
$INSBASE
 10
0.0
 20
0.0
 30
0.0
  9
$EXTMIN
 10
1e+20
 20
1e+20
 30
1e+20
  9
$EXTMAX
 10
-1e+20
 20
-1e+20
 30
-1e+20
  9
$LIMMIN
 10
0.0
 20
0.0
  9
$LIMMAX
 10
420.0
 20
297.0
  9
$ORTHOMODE
 70
0
  9
$REGENMODE
 70
1
  9
$FILLMODE
 70
1
  9
$DRAGMODE
 70
2
  9
$QTEXTMODE
 70
0
  9
$MIRRTEXT
 70
1
  9
$OSMODE
 70
20583
  9
$LTSCALE
 40
1.0
  9
$ATTMODE
 70
1
  9
$TEXTSIZE
 40
2.5
  9
$TRACEWID
 40
1.0
  9
$TEXTSTYLE
  7
Standard
  9
$CLAYER
  8
0
  9
$CELTYPE
  6
ByLayer
  9
$CECOLOR
 62
256
  9
$DIMSCALE
 40
1.0
  9
$DIMASZ
 40
2.5
  9
$DIMEXO
 40
0.625
  9
$DIMDLI
 40
3.75
  9
$DIMRND
 40
0.0
  9
$DIMDLE
 40
0.0
  9
$DIMEXE
 40
1.25
  9
$DIMTP
 40
0.0
  9
$DIMTM
 40
0.0
  9
$DIMTXT
 40
2.5
  9
$DIMCEN
 40
2.5
  9
$DIMTSZ
 40
0.0
  9
$DIMTOL
 70
0
  9
$DIMLIM
 70
0
  9
$DIMTIH
 70
0
  9
$DIMTOH
 70
0
  9
$DIMSE1
 70
0
  9
$DIMSE2
 70
0
  9
$DIMTAD
 70
1
  9
$DIMZIN
 70
8
  9
$DIMBLK
  1

  9
$DIMASO
 70
1
  9
$DIMSHO
 70
1
  9
$DIMPOST
  1

  9
$DIMAPOST
  1

  9
$DIMALT
 70
0
  9
$DIMALTD
 70
3
  9
$DIMALTF
 40
0.03937007874
  9
$DIMLFAC
 40
1.0
  9
$DIMTOFL
 70
1
  9
$DIMTVP
 40
0.0
  9
$DIMTIX
 70
0
  9
$DIMSOXD
 70
0
  9
$DIMSAH
 70
0
  9
$DIMBLK1
  1

  9
$DIMBLK2
  1

  9
$DIMSTYLE
  2
ISO-25
  9
$DIMCLRD
 70
0
  9
$DIMCLRE
 70
0
  9
$DIMCLRT
 70
0
  9
$DIMTFAC
 40
1.0
  9
$DIMGAP
 40
0.625
  9
$COORDS
 70
1
  9
$ATTDIA
 70
0
  9
$ATTREQ
 70
1
  9
$HANDLING
 70
1
  9
$LUNITS
 70
2
  9
$LUPREC
 70
4
  9
$SKETCHINC
 40
1.0
  9
$FILLETRAD
 40
10.0
  9
$AUNITS
 70
0
  9
$AUPREC
 70
2
  9
$MENU
  1
.
  9
$ELEVATION
 40
0.0
  9
$PELEVATION
 40
0.0
  9
$THICKNESS
 40
0.0
  9
$LIMCHECK
 70
0
  9
$CHAMFERA
 40
0.0
  9
$CHAMFERB
 40
0.0
  9
$SKPOLY
 70
0
  9
$TDCREATE
 40
2460888.4278472224
  9
$TDUPDATE
 40
2460888.4278472224
  9
$TDINDWG
 40
0.0
  9
$TDUSRTIMER
 40
0.0
  9
$USRTIMER
 70
1
  9
$ANGBASE
 50
0.0
  9
$ANGDIR
 70
0
  9
$PDMODE
 70
0
  9
$PDSIZE
 40
0.0
  9
$PLINEWID
 40
0.0
  9
$SPLFRAME
 70
0
  9
$SPLINETYPE
 70
6
  9
$SPLINESEGS
 70
8
  9
$HANDSEED
  5
7D2
  9
$SURFTAB1
 70
6
  9
$SURFTAB2
 70
6
  9
$SURFTYPE
 70
6
  9
$SURFU
 70
6
  9
$SURFV
 70
6
  9
$UCSNAME
  2

  9
$UCSORG
 10
0.0
 20
0.0
 30
0.0
  9
$UCSXDIR
 10
1.0
 20
0.0
 30
0.0
  9
$UCSYDIR
 10
0.0
 20
1.0
 30
0.0
  9
$PUCSNAME
  2

  9
$PUCSORG
 10
0.0
 20
0.0
 30
0.0
  9
$PUCSXDIR
 10
1.0
 20
0.0
 30
0.0
  9
$PUCSYDIR
 10
0.0
 20
1.0
 30
0.0
  9
$USERI1
 70
0
  9
$USERI2
 70
0
  9
$USERI3
 70
0
  9
$USERI4
 70
0
  9
$USERI5
 70
0
  9
$USERR1
 40
0.0
  9
$USERR2
 40
0.0
  9
$USERR3
 40
0.0
  9
$USERR4
 40
0.0
  9
$USERR5
 40
0.0
  9
$WORLDVIEW
 70
1
  9
$SHADEDGE
 70
3
  9
$SHADEDIF
 70
70
  9
$TILEMODE
 70
1
  9
$MAXACTVP
 70
64
  9
$PLIMCHECK
 70
0
  9
$PEXTMIN
 10
1e+20
 20
1e+20
 30
1e+20
  9
$PEXTMAX
 10
-1e+20
 20
-1e+20
 30
-1e+20
  9
$PLIMMIN
 10
0.0
 20
0.0
  9
$PLIMMAX
 10
420.0
 20
297.0
  9
$UNITMODE
 70
0
  9
$VISRETAIN
 70
1
  9
$PLINEGEN
 70
0
  9
$PSLTSCALE
 70
1
  0
ENDSEC
  0
SECTION
  2
TABLES
  0
TABLE
  2
VPORT
 70
1
  0
VPORT
  5
23
  2
*Active
 70
0
 10
0.0
 20
0.0
 11
1.0
 21
1.0
 12
0.0
 22
0.0
 13
0.0
 23
0.0
 14
0.5
 24
0.5
 15
0.5
 25
0.5
 16
0.0
 26
0.0
 36
1.0
 17
0.0
 27
0.0
 37
0.0
 40
1000.0
 41
1.34
 42
50.0
 43
0.0
 44
0.0
 50
0.0
 51
0.0
 71
0
 72
1000
 73
1
 74
3
 75
0
 76
0
 77
0
 78
0
  0
ENDTAB
  0
TABLE
  2
LTYPE
 70
3
  0
LTYPE
  5
24
  2
ByBlock
 70
0
  3

 72
65
 73
0
 40
0.0
  0
LTYPE
  5
25
  2
ByLayer
 70
0
  3

 72
65
 73
0
 40
0.0
  0
LTYPE
  5
26
  2
Continuous
 70
0
  3

 72
65
 73
0
 40
0.0
  0
ENDTAB
  0
TABLE
  2
LAYER
 70
2
  0
LAYER
  5
27
  2
0
 70
0
 62
7
  6
Continuous
  0
LAYER
  5
28
  2
Defpoints
 70
0
 62
7
  6
Continuous
  0
ENDTAB
  0
TABLE
  2
STYLE
 70
1
  0
STYLE
  5
29
  2
Standard
 70
0
 40
0.0
 41
1.0
 50
0.0
 71
0
 42
2.5
  3
txt
  4

  0
ENDTAB
  0
TABLE
  2
VIEW
 70
0
  0
ENDTAB
  0
TABLE
  2
UCS
 70
0
  0
ENDTAB
  0
TABLE
  2
APPID
 70
3
  0
APPID
  5
2A
  2
ACAD
 70
0
  0
APPID
  5
7D0
  2
HATCHBACKGROUNDCOLOR
 70
0
  0
APPID
  5
7D1
  2
EZDXF
 70
0
  0
ENDTAB
  0
TABLE
  2
DIMSTYLE
 70
1
  0
DIMSTYLE
105
2B
  2
Standard
 70
0
  3

  4

  5

  6

  7

 40
1.0
 41
2.5
 42
0.625
 43
3.75
 44
1.25
 45
0.0
 46
0.0
 47
0.0
 48
0.0
140
2.5
141
2.5
142
0.0
143
0.03937007874
144
1.0
145
0.0
146
1.0
147
0.625
 71
0
 72
0
 73
0
 74
0
 75
0
 76
0
 77
1
 78
8
170
0
171
3
172
1
173
0
174
0
175
0
176
0
177
0
178
0
  0
ENDTAB
  0
ENDSEC
  0
SECTION
  2
BLOCKS
  0
BLOCK
  5
18
  8
0
  2
$Model_Space
 70
0
 10
0.0
 20
0.0
 30
0.0
  3
$Model_Space
  1

1001
EZDXF
1000
CREATED_BY_EZDXF
1000
1.4.2 @ 2025-07-31T13:16:06.798647+00:00
1000
WRITTEN_BY_EZDXF
1000
1.4.2 @ 2025-07-31T13:16:06.876773+00:00
  0
ENDBLK
  5
19
  8
0
  0
BLOCK
  5
1C
  8
0
  2
$Paper_Space
 70
0
 10
0.0
 20
0.0
 30
0.0
  3
$Paper_Space
  1

  0
ENDBLK
  5
1D
  8
0
  0
ENDSEC
  0
SECTION
  2
ENTITIES
  0
LINE
  5
2D
  8
0
 10
2.509309
 20
0.434319
 30
0.0
 11
7.192097
 21
0.582252
 31
0.0
  0
LINE
  5
2E
  8
0
 10
7.192097
 20
0.582252
 30
0.0
 11
12.886919
 21
0.447646
 31
0.0
  0
LINE
  5
2F
  8
0
 10
12.886919
 20
0.447646
 30
0.0
 11
13.930832
 21
0.592177
 31
0.0
  0
LINE
  5
30
  8
0
 10
13.930832
 20
0.592177
 30
0.0
 11
14.430655
 21
0.947429
 31
0.0
  0
LINE
  5
31
  8
0
 10
14.430655
 20
0.947429
 30
0.0
 11
14.642643
 21
1.422856
 31
0.0
  0
LINE
  5
32
  8
0
 10
14.642643
 20
1.422856
 30
0.0
 11
14.744905
 21
2.434038
 31
0.0
  0
LINE
  5
33
  8
0
 10
14.744905
 20
2.434038
 30
0.0
 11
14.619053
 21
14.609709
 31
0.0
  0
LINE
  5
34
  8
0
 10
14.619053
 20
14.609709
 30
0.0
 11
2.185422
 21
14.742944
 31
0.0
  0
LINE
  5
35
  8
0
 10
2.185422
 20
14.742944
 30
0.0
 11
1.247478
 21
14.60397
 31
0.0
  0
LINE
  5
36
  8
0
 10
1.247478
 20
14.60397
 30
0.0
 11
0.810849
 21
14.330364
 31
0.0
  0
LINE
  5
37
  8
0
 10
0.810849
 20
14.330364
 30
0.0
 11
0.549394
 21
13.762192
 31
0.0
  0
LINE
  5
38
  8
0
 10
0.549394
 20
13.762192
 30
0.0
 11
0.435705
 21
12.697295
 31
0.0
  0
LINE
  5
39
  8
0
 10
0.435705
 20
12.697295
 30
0.0
 11
0.578391
 21
7.889499
 31
0.0
  0
LINE
  5
3A
  8
0
 10
0.578391
 20
7.889499
 30
0.0
 11
0.471198
 21
1.972452
 31
0.0
  0
LINE
  5
3B
  8
0
 10
0.471198
 20
1.972452
 30
0.0
 11
0.588383
 21
1.266476
 31
0.0
  0
LINE
  5
3C
  8
0
 10
0.588383
 20
1.266476
 30
0.0
 11
0.968765
 21
0.72626
 31
0.0
  0
LINE
  5
3D
  8
0
 10
0.968765
 20
0.72626
 30
0.0
 11
1.720297
 21
0.478135
 31
0.0
  0
LINE
  5
3E
  8
0
 10
1.720297
 20
0.478135
 30
0.0
 11
2.509309
 21
0.434319
 31
0.0
  0
LINE
  5
3F
  8
0
 10
2.509309
 20
0.434319
 30
0.0
 11
2.509309
 21
0.434319
 31
0.0
  0
LINE
  5
40
  8
0
 10
2.509309
 20
0.434319
 30
0.0
 11
7.192097
 21
0.582252
 31
0.0
  0
LINE
  5
41
  8
0
 10
7.192097
 20
0.582252
 30
0.0
 11
12.886919
 21
0.447646
 31
0.0
  0
LINE
  5
42
  8
0
 10
12.886919
 20
0.447646
 30
0.0
 11
13.930832
 21
0.592177
 31
0.0
  0
LINE
  5
43
  8
0
 10
13.930832
 20
0.592177
 30
0.0
 11
14.430655
 21
0.947429
 31
0.0
  0
LINE
  5
44
  8
0
 10
14.430655
 20
0.947429
 30
0.0
 11
14.642643
 21
1.422856
 31
0.0
  0
LINE
  5
45
  8
0
 10
14.642643
 20
1.422856
 30
0.0
 11
14.744905
 21
2.434038
 31
0.0
  0
LINE
  5
46
  8
0
 10
14.744905
 20
2.434038
 30
0.0
 11
14.619053
 21
14.609709
 31
0.0
  0
LINE
  5
47
  8
0
 10
14.619053
 20
14.609709
 30
0.0
 11
2.185422
 21
14.742944
 31
0.0
  0
LINE
  5
48
  8
0
 10
2.185422
 20
14.742944
 30
0.0
 11
1.247478
 21
14.60397
 31
0.0
  0
LINE
  5
49
  8
0
 10
1.247478
 20
14.60397
 30
0.0
 11
0.810849
 21
14.330364
 31
0.0
  0
LINE
  5
4A
  8
0
 10
0.810849
 20
14.330364
 30
0.0
 11
0.549394
 21
13.762192
 31
0.0
  0
LINE
  5
4B
  8
0
 10
0.549394
 20
13.762192
 30
0.0
 11
0.435705
 21
12.697295
 31
0.0
  0
LINE
  5
4C
  8
0
 10
0.435705
 20
12.697295
 30
0.0
 11
0.578391
 21
7.889499
 31
0.0
  0
LINE
  5
4D
  8
0
 10
0.578391
 20
7.889499
 30
0.0
 11
0.471198
 21
1.972452
 31
0.0
  0
LINE
  5
4E
  8
0
 10
0.471198
 20
1.972452
 30
0.0
 11
0.588383
 21
1.266476
 31
0.0
  0
LINE
  5
4F
  8
0
 10
0.588383
 20
1.266476
 30
0.0
 11
0.968765
 21
0.72626
 31
0.0
  0
LINE
  5
50
  8
0
 10
0.968765
 20
0.72626
 30
0.0
 11
1.720297
 21
0.478135
 31
0.0
  0
LINE
  5
51
  8
0
 10
1.720297
 20
0.478135
 30
0.0
 11
2.509309
 21
0.434319
 31
0.0
  0
LINE
  5
52
  8
0
 10
2.509309
 20
0.434319
 30
0.0
 11
2.509309
 21
0.434319
 31
0.0
  0
LINE
  5
53
  8
0
 10
0.592849
 20
1.254
 30
0.0
 11
0.592849
 21
1.31906
 31
0.0
  0
LINE
  5
54
  8
0
 10
0.592849
 20
1.254
 30
0.0
 11
0.592849
 21
1.31906
 31
0.0
  0
LINE
  5
55
  8
0
 10
0.592849
 20
1.31906
 30
0.0
 11
0.592849
 21
1.358821
 31
0.0
  0
LINE
  5
56
  8
0
 10
0.592849
 20
1.358821
 30
0.0
 11
0.592849
 21
2.660371
 31
0.0
  0
LINE
  5
57
  8
0
 10
0.592849
 20
2.660371
 30
0.0
 11
0.592849
 21
2.858758
 31
0.0
  0
LINE
  5
58
  8
0
 10
0.592849
 20
2.858758
 30
0.0
 11
0.592849
 21
3.119081
 31
0.0
  0
LINE
  5
59
  8
0
 10
0.592849
 20
3.119081
 30
0.0
 11
0.592849
 21
3.158758
 31
0.0
  0
LINE
  5
5A
  8
0
 10
0.592849
 20
3.158758
 30
0.0
 11
0.592849
 21
4.460371
 31
0.0
  0
LINE
  5
5B
  8
0
 10
0.592849
 20
4.460371
 30
0.0
 11
0.592849
 21
4.658758
 31
0.0
  0
LINE
  5
5C
  8
0
 10
0.592849
 20
4.658758
 30
0.0
 11
0.592849
 21
4.919081
 31
0.0
  0
LINE
  5
5D
  8
0
 10
0.592849
 20
4.919081
 30
0.0
 11
0.592849
 21
4.958758
 31
0.0
  0
LINE
  5
5E
  8
0
 10
0.592849
 20
4.958758
 30
0.0
 11
0.592849
 21
6.260371
 31
0.0
  0
LINE
  5
5F
  8
0
 10
0.592849
 20
6.260371
 30
0.0
 11
0.592849
 21
6.458758
 31
0.0
  0
LINE
  5
60
  8
0
 10
0.592849
 20
6.458758
 30
0.0
 11
0.592849
 21
6.719081
 31
0.0
  0
LINE
  5
61
  8
0
 10
0.592849
 20
6.719081
 30
0.0
 11
0.592849
 21
6.758758
 31
0.0
  0
LINE
  5
62
  8
0
 10
0.592849
 20
6.758758
 30
0.0
 11
0.592849
 21
8.060371
 31
0.0
  0
LINE
  5
63
  8
0
 10
0.592849
 20
8.060371
 30
0.0
 11
0.592849
 21
8.258758
 31
0.0
  0
LINE
  5
64
  8
0
 10
0.592849
 20
8.258758
 30
0.0
 11
0.592849
 21
8.519081
 31
0.0
  0
LINE
  5
65
  8
0
 10
0.592849
 20
8.519081
 30
0.0
 11
0.592849
 21
8.558758
 31
0.0
  0
LINE
  5
66
  8
0
 10
0.592849
 20
8.558758
 30
0.0
 11
0.592849
 21
9.860371
 31
0.0
  0
LINE
  5
67
  8
0
 10
0.592849
 20
9.860371
 30
0.0
 11
0.592849
 21
10.058758
 31
0.0
  0
LINE
  5
68
  8
0
 10
0.592849
 20
10.058758
 30
0.0
 11
0.592849
 21
10.319081
 31
0.0
  0
LINE
  5
69
  8
0
 10
0.592849
 20
10.319081
 30
0.0
 11
0.592849
 21
10.358758
 31
0.0
  0
LINE
  5
6A
  8
0
 10
0.592849
 20
10.358758
 30
0.0
 11
0.592849
 21
11.660371
 31
0.0
  0
LINE
  5
6B
  8
0
 10
0.592849
 20
11.660371
 30
0.0
 11
0.592849
 21
11.858758
 31
0.0
  0
LINE
  5
6C
  8
0
 10
0.592849
 20
11.858758
 30
0.0
 11
0.592849
 21
12.119081
 31
0.0
  0
LINE
  5
6D
  8
0
 10
0.592849
 20
12.119081
 30
0.0
 11
0.592849
 21
12.158758
 31
0.0
  0
LINE
  5
6E
  8
0
 10
0.592849
 20
12.158758
 30
0.0
 11
0.592849
 21
13.460371
 31
0.0
  0
LINE
  5
6F
  8
0
 10
0.592849
 20
13.460371
 30
0.0
 11
0.592849
 21
13.658748
 31
0.0
  0
LINE
  5
70
  8
0
 10
0.592849
 20
13.658748
 30
0.0
 11
0.592849
 21
13.919084
 31
0.0
  0
LINE
  5
71
  8
0
 10
0.592849
 20
13.919084
 30
0.0
 11
0.592849
 21
13.929
 31
0.0
  0
LINE
  5
72
  8
0
 10
1.092849
 20
0.654
 30
0.0
 11
1.092849
 21
0.693677
 31
0.0
  0
LINE
  5
73
  8
0
 10
1.092849
 20
0.654
 30
0.0
 11
1.092849
 21
0.693677
 31
0.0
  0
LINE
  5
74
  8
0
 10
1.092849
 20
0.693677
 30
0.0
 11
1.092849
 21
1.5458
 31
0.0
  0
LINE
  5
75
  8
0
 10
1.092849
 20
1.5458
 30
0.0
 11
1.092849
 21
1.744187
 31
0.0
  0
LINE
  5
76
  8
0
 10
1.092849
 20
1.744187
 30
0.0
 11
1.092849
 21
2.00451
 31
0.0
  0
LINE
  5
77
  8
0
 10
1.092849
 20
2.00451
 30
0.0
 11
1.092849
 21
2.044187
 31
0.0
  0
LINE
  5
78
  8
0
 10
1.092849
 20
2.044187
 30
0.0
 11
1.092849
 21
3.3458
 31
0.0
  0
LINE
  5
79
  8
0
 10
1.092849
 20
3.3458
 30
0.0
 11
1.092849
 21
3.544187
 31
0.0
  0
LINE
  5
7A
  8
0
 10
1.092849
 20
3.544187
 30
0.0
 11
1.092849
 21
3.80451
 31
0.0
  0
LINE
  5
7B
  8
0
 10
1.092849
 20
3.80451
 30
0.0
 11
1.092849
 21
3.844187
 31
0.0
  0
LINE
  5
7C
  8
0
 10
1.092849
 20
3.844187
 30
0.0
 11
1.092849
 21
5.1458
 31
0.0
  0
LINE
  5
7D
  8
0
 10
1.092849
 20
5.1458
 30
0.0
 11
1.092849
 21
5.344187
 31
0.0
  0
LINE
  5
7E
  8
0
 10
1.092849
 20
5.344187
 30
0.0
 11
1.092849
 21
5.60451
 31
0.0
  0
LINE
  5
7F
  8
0
 10
1.092849
 20
5.60451
 30
0.0
 11
1.092849
 21
5.644187
 31
0.0
  0
LINE
  5
80
  8
0
 10
1.092849
 20
5.644187
 30
0.0
 11
1.092849
 21
6.9458
 31
0.0
  0
LINE
  5
81
  8
0
 10
1.092849
 20
6.9458
 30
0.0
 11
1.092849
 21
7.144187
 31
0.0
  0
LINE
  5
82
  8
0
 10
1.092849
 20
7.144187
 30
0.0
 11
1.092849
 21
7.40451
 31
0.0
  0
LINE
  5
83
  8
0
 10
1.092849
 20
7.40451
 30
0.0
 11
1.092849
 21
7.444187
 31
0.0
  0
LINE
  5
84
  8
0
 10
1.092849
 20
7.444187
 30
0.0
 11
1.092849
 21
8.7458
 31
0.0
  0
LINE
  5
85
  8
0
 10
1.092849
 20
8.7458
 30
0.0
 11
1.092849
 21
8.944187
 31
0.0
  0
LINE
  5
86
  8
0
 10
1.092849
 20
8.944187
 30
0.0
 11
1.092849
 21
9.20451
 31
0.0
  0
LINE
  5
87
  8
0
 10
1.092849
 20
9.20451
 30
0.0
 11
1.092849
 21
9.244187
 31
0.0
  0
LINE
  5
88
  8
0
 10
1.092849
 20
9.244187
 30
0.0
 11
1.092849
 21
10.5458
 31
0.0
  0
LINE
  5
89
  8
0
 10
1.092849
 20
10.5458
 30
0.0
 11
1.092849
 21
10.744187
 31
0.0
  0
LINE
  5
8A
  8
0
 10
1.092849
 20
10.744187
 30
0.0
 11
1.092849
 21
11.00451
 31
0.0
  0
LINE
  5
8B
  8
0
 10
1.092849
 20
11.00451
 30
0.0
 11
1.092849
 21
11.044187
 31
0.0
  0
LINE
  5
8C
  8
0
 10
1.092849
 20
11.044187
 30
0.0
 11
1.092849
 21
12.3458
 31
0.0
  0
LINE
  5
8D
  8
0
 10
1.092849
 20
12.3458
 30
0.0
 11
1.092849
 21
12.544187
 31
0.0
  0
LINE
  5
8E
  8
0
 10
1.092849
 20
12.544187
 30
0.0
 11
1.092849
 21
12.80451
 31
0.0
  0
LINE
  5
8F
  8
0
 10
1.092849
 20
12.80451
 30
0.0
 11
1.092849
 21
12.844187
 31
0.0
  0
LINE
  5
90
  8
0
 10
1.092849
 20
12.844187
 30
0.0
 11
1.092849
 21
14.1458
 31
0.0
  0
LINE
  5
91
  8
0
 10
1.092849
 20
14.1458
 30
0.0
 11
1.092849
 21
14.27581
 31
0.0
  0
LINE
  5
92
  8
0
 10
1.092849
 20
14.27581
 30
0.0
 11
1.092849
 21
14.536132
 31
0.0
  0
LINE
  5
93
  8
0
 10
1.092849
 20
14.536132
 30
0.0
 11
1.092849
 21
14.537
 31
0.0
  0
LINE
  5
94
  8
0
 10
1.592849
 20
0.504
 30
0.0
 11
1.592849
 21
0.543677
 31
0.0
  0
LINE
  5
95
  8
0
 10
1.592849
 20
0.504
 30
0.0
 11
1.592849
 21
0.543677
 31
0.0
  0
LINE
  5
96
  8
0
 10
1.592849
 20
0.543677
 30
0.0
 11
1.592849
 21
1.663932
 31
0.0
  0
LINE
  5
97
  8
0
 10
1.592849
 20
1.663932
 30
0.0
 11
1.592849
 21
1.862319
 31
0.0
  0
LINE
  5
98
  8
0
 10
1.592849
 20
1.862319
 30
0.0
 11
1.592849
 21
2.122642
 31
0.0
  0
LINE
  5
99
  8
0
 10
1.592849
 20
2.122642
 30
0.0
 11
1.592849
 21
2.162319
 31
0.0
  0
LINE
  5
9A
  8
0
 10
1.592849
 20
2.162319
 30
0.0
 11
1.592849
 21
3.463932
 31
0.0
  0
LINE
  5
9B
  8
0
 10
1.592849
 20
3.463932
 30
0.0
 11
1.592849
 21
3.662319
 31
0.0
  0
LINE
  5
9C
  8
0
 10
1.592849
 20
3.662319
 30
0.0
 11
1.592849
 21
3.922642
 31
0.0
  0
LINE
  5
9D
  8
0
 10
1.592849
 20
3.922642
 30
0.0
 11
1.592849
 21
3.962319
 31
0.0
  0
LINE
  5
9E
  8
0
 10
1.592849
 20
3.962319
 30
0.0
 11
1.592849
 21
5.263932
 31
0.0
  0
LINE
  5
9F
  8
0
 10
1.592849
 20
5.263932
 30
0.0
 11
1.592849
 21
5.462319
 31
0.0
  0
LINE
  5
A0
  8
0
 10
1.592849
 20
5.462319
 30
0.0
 11
1.592849
 21
5.722642
 31
0.0
  0
LINE
  5
A1
  8
0
 10
1.592849
 20
5.722642
 30
0.0
 11
1.592849
 21
5.762319
 31
0.0
  0
LINE
  5
A2
  8
0
 10
1.592849
 20
5.762319
 30
0.0
 11
1.592849
 21
7.063932
 31
0.0
  0
LINE
  5
A3
  8
0
 10
1.592849
 20
7.063932
 30
0.0
 11
1.592849
 21
7.262319
 31
0.0
  0
LINE
  5
A4
  8
0
 10
1.592849
 20
7.262319
 30
0.0
 11
1.592849
 21
7.522642
 31
0.0
  0
LINE
  5
A5
  8
0
 10
1.592849
 20
7.522642
 30
0.0
 11
1.592849
 21
7.562319
 31
0.0
  0
LINE
  5
A6
  8
0
 10
1.592849
 20
7.562319
 30
0.0
 11
1.592849
 21
8.863932
 31
0.0
  0
LINE
  5
A7
  8
0
 10
1.592849
 20
8.863932
 30
0.0
 11
1.592849
 21
9.062319
 31
0.0
  0
LINE
  5
A8
  8
0
 10
1.592849
 20
9.062319
 30
0.0
 11
1.592849
 21
9.322642
 31
0.0
  0
LINE
  5
A9
  8
0
 10
1.592849
 20
9.322642
 30
0.0
 11
1.592849
 21
9.362319
 31
0.0
  0
LINE
  5
AA
  8
0
 10
1.592849
 20
9.362319
 30
0.0
 11
1.592849
 21
10.663932
 31
0.0
  0
LINE
  5
AB
  8
0
 10
1.592849
 20
10.663932
 30
0.0
 11
1.592849
 21
10.862319
 31
0.0
  0
LINE
  5
AC
  8
0
 10
1.592849
 20
10.862319
 30
0.0
 11
1.592849
 21
11.122642
 31
0.0
  0
LINE
  5
AD
  8
0
 10
1.592849
 20
11.122642
 30
0.0
 11
1.592849
 21
11.162319
 31
0.0
  0
LINE
  5
AE
  8
0
 10
1.592849
 20
11.162319
 30
0.0
 11
1.592849
 21
12.463932
 31
0.0
  0
LINE
  5
AF
  8
0
 10
1.592849
 20
12.463932
 30
0.0
 11
1.592849
 21
12.662319
 31
0.0
  0
LINE
  5
B0
  8
0
 10
1.592849
 20
12.662319
 30
0.0
 11
1.592849
 21
12.922642
 31
0.0
  0
LINE
  5
B1
  8
0
 10
1.592849
 20
12.922642
 30
0.0
 11
1.592849
 21
12.962319
 31
0.0
  0
LINE
  5
B2
  8
0
 10
1.592849
 20
12.962319
 30
0.0
 11
1.592849
 21
14.263932
 31
0.0
  0
LINE
  5
B3
  8
0
 10
1.592849
 20
14.263932
 30
0.0
 11
1.592849
 21
14.434677
 31
0.0
  0
LINE
  5
B4
  8
0
 10
1.592849
 20
14.434677
 30
0.0
 11
1.592849
 21
14.695
 31
0.0
  0
LINE
  5
B5
  8
0
 10
2.092849
 20
0.446
 30
0.0
 11
2.092849
 21
0.485677
 31
0.0
  0
LINE
  5
B6
  8
0
 10
2.092849
 20
0.446
 30
0.0
 11
2.092849
 21
0.485677
 31
0.0
  0
LINE
  5
B7
  8
0
 10
2.092849
 20
0.485677
 30
0.0
 11
2.092849
 21
1.697913
 31
0.0
  0
LINE
  5
B8
  8
0
 10
2.092849
 20
1.697913
 30
0.0
 11
2.092849
 21
1.896432
 31
0.0
  0
LINE
  5
B9
  8
0
 10
2.092849
 20
1.896432
 30
0.0
 11
2.092849
 21
2.156755
 31
0.0
  0
LINE
  5
BA
  8
0
 10
2.092849
 20
2.156755
 30
0.0
 11
2.092849
 21
2.1963
 31
0.0
  0
LINE
  5
BB
  8
0
 10
2.092849
 20
2.1963
 30
0.0
 11
2.092849
 21
3.497913
 31
0.0
  0
LINE
  5
BC
  8
0
 10
2.092849
 20
3.497913
 30
0.0
 11
2.092849
 21
3.696432
 31
0.0
  0
LINE
  5
BD
  8
0
 10
2.092849
 20
3.696432
 30
0.0
 11
2.092849
 21
3.956755
 31
0.0
  0
LINE
  5
BE
  8
0
 10
2.092849
 20
3.956755
 30
0.0
 11
2.092849
 21
3.9963
 31
0.0
  0
LINE
  5
BF
  8
0
 10
2.092849
 20
3.9963
 30
0.0
 11
2.092849
 21
5.297913
 31
0.0
  0
LINE
  5
C0
  8
0
 10
2.092849
 20
5.297913
 30
0.0
 11
2.092849
 21
5.496432
 31
0.0
  0
LINE
  5
C1
  8
0
 10
2.092849
 20
5.496432
 30
0.0
 11
2.092849
 21
5.756755
 31
0.0
  0
LINE
  5
C2
  8
0
 10
2.092849
 20
5.756755
 30
0.0
 11
2.092849
 21
5.7963
 31
0.0
  0
LINE
  5
C3
  8
0
 10
2.092849
 20
5.7963
 30
0.0
 11
2.092849
 21
7.097913
 31
0.0
  0
LINE
  5
C4
  8
0
 10
2.092849
 20
7.097913
 30
0.0
 11
2.092849
 21
7.296432
 31
0.0
  0
LINE
  5
C5
  8
0
 10
2.092849
 20
7.296432
 30
0.0
 11
2.092849
 21
7.556755
 31
0.0
  0
LINE
  5
C6
  8
0
 10
2.092849
 20
7.556755
 30
0.0
 11
2.092849
 21
7.5963
 31
0.0
  0
LINE
  5
C7
  8
0
 10
2.092849
 20
7.5963
 30
0.0
 11
2.092849
 21
8.897913
 31
0.0
  0
LINE
  5
C8
  8
0
 10
2.092849
 20
8.897913
 30
0.0
 11
2.092849
 21
9.096432
 31
0.0
  0
LINE
  5
C9
  8
0
 10
2.092849
 20
9.096432
 30
0.0
 11
2.092849
 21
9.356755
 31
0.0
  0
LINE
  5
CA
  8
0
 10
2.092849
 20
9.356755
 30
0.0
 11
2.092849
 21
9.3963
 31
0.0
  0
LINE
  5
CB
  8
0
 10
2.092849
 20
9.3963
 30
0.0
 11
2.092849
 21
10.697913
 31
0.0
  0
LINE
  5
CC
  8
0
 10
2.092849
 20
10.697913
 30
0.0
 11
2.092849
 21
10.896432
 31
0.0
  0
LINE
  5
CD
  8
0
 10
2.092849
 20
10.896432
 30
0.0
 11
2.092849
 21
11.156755
 31
0.0
  0
LINE
  5
CE
  8
0
 10
2.092849
 20
11.156755
 30
0.0
 11
2.092849
 21
11.1963
 31
0.0
  0
LINE
  5
CF
  8
0
 10
2.092849
 20
11.1963
 30
0.0
 11
2.092849
 21
12.497913
 31
0.0
  0
LINE
  5
D0
  8
0
 10
2.092849
 20
12.497913
 30
0.0
 11
2.092849
 21
12.696432
 31
0.0
  0
LINE
  5
D1
  8
0
 10
2.092849
 20
12.696432
 30
0.0
 11
2.092849
 21
12.956755
 31
0.0
  0
LINE
  5
D2
  8
0
 10
2.092849
 20
12.956755
 30
0.0
 11
2.092849
 21
12.9963
 31
0.0
  0
LINE
  5
D3
  8
0
 10
2.092849
 20
12.9963
 30
0.0
 11
2.092849
 21
14.297913
 31
0.0
  0
LINE
  5
D4
  8
0
 10
2.092849
 20
14.297913
 30
0.0
 11
2.092849
 21
14.482677
 31
0.0
  0
LINE
  5
D5
  8
0
 10
2.092849
 20
14.482677
 30
0.0
 11
2.092849
 21
14.743
 31
0.0
  0
LINE
  5
D6
  8
0
 10
2.092849
 20
14.743
 30
0.0
 11
2.092849
 21
14.743868
 31
0.0
  0
LINE
  5
D7
  8
0
 10
2.592849
 20
0.437
 30
0.0
 11
2.592849
 21
0.476677
 31
0.0
  0
LINE
  5
D8
  8
0
 10
2.592849
 20
0.437
 30
0.0
 11
2.592849
 21
0.476677
 31
0.0
  0
LINE
  5
D9
  8
0
 10
2.592849
 20
0.476677
 30
0.0
 11
2.592849
 21
1.695855
 31
0.0
  0
LINE
  5
DA
  8
0
 10
2.592849
 20
1.695855
 30
0.0
 11
2.592849
 21
1.894242
 31
0.0
  0
LINE
  5
DB
  8
0
 10
2.592849
 20
1.894242
 30
0.0
 11
2.592849
 21
2.153697
 31
0.0
  0
LINE
  5
DC
  8
0
 10
2.592849
 20
2.153697
 30
0.0
 11
2.592849
 21
2.193374
 31
0.0
  0
LINE
  5
DD
  8
0
 10
2.592849
 20
2.193374
 30
0.0
 11
2.592849
 21
3.495855
 31
0.0
  0
LINE
  5
DE
  8
0
 10
2.592849
 20
3.495855
 30
0.0
 11
2.592849
 21
3.694242
 31
0.0
  0
LINE
  5
DF
  8
0
 10
2.592849
 20
3.694242
 30
0.0
 11
2.592849
 21
3.953697
 31
0.0
  0
LINE
  5
E0
  8
0
 10
2.592849
 20
3.953697
 30
0.0
 11
2.592849
 21
3.993374
 31
0.0
  0
LINE
  5
E1
  8
0
 10
2.592849
 20
3.993374
 30
0.0
 11
2.592849
 21
5.295855
 31
0.0
  0
LINE
  5
E2
  8
0
 10
2.592849
 20
5.295855
 30
0.0
 11
2.592849
 21
5.494242
 31
0.0
  0
LINE
  5
E3
  8
0
 10
2.592849
 20
5.494242
 30
0.0
 11
2.592849
 21
5.753697
 31
0.0
  0
LINE
  5
E4
  8
0
 10
2.592849
 20
5.753697
 30
0.0
 11
2.592849
 21
5.793374
 31
0.0
  0
LINE
  5
E5
  8
0
 10
2.592849
 20
5.793374
 30
0.0
 11
2.592849
 21
7.095855
 31
0.0
  0
LINE
  5
E6
  8
0
 10
2.592849
 20
7.095855
 30
0.0
 11
2.592849
 21
7.294242
 31
0.0
  0
LINE
  5
E7
  8
0
 10
2.592849
 20
7.294242
 30
0.0
 11
2.592849
 21
7.553697
 31
0.0
  0
LINE
  5
E8
  8
0
 10
2.592849
 20
7.553697
 30
0.0
 11
2.592849
 21
7.593374
 31
0.0
  0
LINE
  5
E9
  8
0
 10
2.592849
 20
7.593374
 30
0.0
 11
2.592849
 21
8.895855
 31
0.0
  0
LINE
  5
EA
  8
0
 10
2.592849
 20
8.895855
 30
0.0
 11
2.592849
 21
9.094242
 31
0.0
  0
LINE
  5
EB
  8
0
 10
2.592849
 20
9.094242
 30
0.0
 11
2.592849
 21
9.353697
 31
0.0
  0
LINE
  5
EC
  8
0
 10
2.592849
 20
9.353697
 30
0.0
 11
2.592849
 21
9.393374
 31
0.0
  0
LINE
  5
ED
  8
0
 10
2.592849
 20
9.393374
 30
0.0
 11
2.592849
 21
10.695855
 31
0.0
  0
LINE
  5
EE
  8
0
 10
2.592849
 20
10.695855
 30
0.0
 11
2.592849
 21
10.894242
 31
0.0
  0
LINE
  5
EF
  8
0
 10
2.592849
 20
10.894242
 30
0.0
 11
2.592849
 21
11.153697
 31
0.0
  0
LINE
  5
F0
  8
0
 10
2.592849
 20
11.153697
 30
0.0
 11
2.592849
 21
11.193374
 31
0.0
  0
LINE
  5
F1
  8
0
 10
2.592849
 20
11.193374
 30
0.0
 11
2.592849
 21
12.495855
 31
0.0
  0
LINE
  5
F2
  8
0
 10
2.592849
 20
12.495855
 30
0.0
 11
2.592849
 21
12.694242
 31
0.0
  0
LINE
  5
F3
  8
0
 10
2.592849
 20
12.694242
 30
0.0
 11
2.592849
 21
12.953697
 31
0.0
  0
LINE
  5
F4
  8
0
 10
2.592849
 20
12.953697
 30
0.0
 11
2.592849
 21
12.993374
 31
0.0
  0
LINE
  5
F5
  8
0
 10
2.592849
 20
12.993374
 30
0.0
 11
2.592849
 21
14.295855
 31
0.0
  0
LINE
  5
F6
  8
0
 10
2.592849
 20
14.295855
 30
0.0
 11
2.592849
 21
14.481677
 31
0.0
  0
LINE
  5
F7
  8
0
 10
2.592849
 20
14.481677
 30
0.0
 11
2.592849
 21
14.742
 31
0.0
  0
LINE
  5
F8
  8
0
 10
3.092849
 20
0.453
 30
0.0
 11
3.092849
 21
0.492677
 31
0.0
  0
LINE
  5
F9
  8
0
 10
3.092849
 20
0.453
 30
0.0
 11
3.092849
 21
0.492677
 31
0.0
  0
LINE
  5
FA
  8
0
 10
3.092849
 20
0.492677
 30
0.0
 11
3.092849
 21
1.682352
 31
0.0
  0
LINE
  5
FB
  8
0
 10
3.092849
 20
1.682352
 30
0.0
 11
3.092849
 21
1.880739
 31
0.0
  0
LINE
  5
FC
  8
0
 10
3.092849
 20
1.880739
 30
0.0
 11
3.092849
 21
2.141061
 31
0.0
  0
LINE
  5
FD
  8
0
 10
3.092849
 20
2.141061
 30
0.0
 11
3.092849
 21
2.180739
 31
0.0
  0
LINE
  5
FE
  8
0
 10
3.092849
 20
2.180739
 30
0.0
 11
3.092849
 21
3.482352
 31
0.0
  0
LINE
  5
FF
  8
0
 10
3.092849
 20
3.482352
 30
0.0
 11
3.092849
 21
3.680739
 31
0.0
  0
LINE
  5
100
  8
0
 10
3.092849
 20
3.680739
 30
0.0
 11
3.092849
 21
3.941061
 31
0.0
  0
LINE
  5
101
  8
0
 10
3.092849
 20
3.941061
 30
0.0
 11
3.092849
 21
3.980739
 31
0.0
  0
LINE
  5
102
  8
0
 10
3.092849
 20
3.980739
 30
0.0
 11
3.092849
 21
5.282352
 31
0.0
  0
LINE
  5
103
  8
0
 10
3.092849
 20
5.282352
 30
0.0
 11
3.092849
 21
5.480739
 31
0.0
  0
LINE
  5
104
  8
0
 10
3.092849
 20
5.480739
 30
0.0
 11
3.092849
 21
5.741061
 31
0.0
  0
LINE
  5
105
  8
0
 10
3.092849
 20
5.741061
 30
0.0
 11
3.092849
 21
5.780739
 31
0.0
  0
LINE
  5
106
  8
0
 10
3.092849
 20
5.780739
 30
0.0
 11
3.092849
 21
7.082352
 31
0.0
  0
LINE
  5
107
  8
0
 10
3.092849
 20
7.082352
 30
0.0
 11
3.092849
 21
7.280739
 31
0.0
  0
LINE
  5
108
  8
0
 10
3.092849
 20
7.280739
 30
0.0
 11
3.092849
 21
7.541061
 31
0.0
  0
LINE
  5
109
  8
0
 10
3.092849
 20
7.541061
 30
0.0
 11
3.092849
 21
7.580739
 31
0.0
  0
LINE
  5
10A
  8
0
 10
3.092849
 20
7.580739
 30
0.0
 11
3.092849
 21
8.882352
 31
0.0
  0
LINE
  5
10B
  8
0
 10
3.092849
 20
8.882352
 30
0.0
 11
3.092849
 21
9.080739
 31
0.0
  0
LINE
  5
10C
  8
0
 10
3.092849
 20
9.080739
 30
0.0
 11
3.092849
 21
9.341061
 31
0.0
  0
LINE
  5
10D
  8
0
 10
3.092849
 20
9.341061
 30
0.0
 11
3.092849
 21
9.380739
 31
0.0
  0
LINE
  5
10E
  8
0
 10
3.092849
 20
9.380739
 30
0.0
 11
3.092849
 21
10.682352
 31
0.0
  0
LINE
  5
10F
  8
0
 10
3.092849
 20
10.682352
 30
0.0
 11
3.092849
 21
10.880739
 31
0.0
  0
LINE
  5
110
  8
0
 10
3.092849
 20
10.880739
 30
0.0
 11
3.092849
 21
11.141061
 31
0.0
  0
LINE
  5
111
  8
0
 10
3.092849
 20
11.141061
 30
0.0
 11
3.092849
 21
11.180739
 31
0.0
  0
LINE
  5
112
  8
0
 10
3.092849
 20
11.180739
 30
0.0
 11
3.092849
 21
12.482352
 31
0.0
  0
LINE
  5
113
  8
0
 10
3.092849
 20
12.482352
 30
0.0
 11
3.092849
 21
12.680739
 31
0.0
  0
LINE
  5
114
  8
0
 10
3.092849
 20
12.680739
 30
0.0
 11
3.092849
 21
12.941061
 31
0.0
  0
LINE
  5
115
  8
0
 10
3.092849
 20
12.941061
 30
0.0
 11
3.092849
 21
12.980739
 31
0.0
  0
LINE
  5
116
  8
0
 10
3.092849
 20
12.980739
 30
0.0
 11
3.092849
 21
14.282352
 31
0.0
  0
LINE
  5
117
  8
0
 10
3.092849
 20
14.282352
 30
0.0
 11
3.092849
 21
14.463677
 31
0.0
  0
LINE
  5
118
  8
0
 10
3.092849
 20
14.463677
 30
0.0
 11
3.092849
 21
14.724
 31
0.0
  0
LINE
  5
119
  8
0
 10
3.592849
 20
0.469
 30
0.0
 11
3.592849
 21
0.508677
 31
0.0
  0
LINE
  5
11A
  8
0
 10
3.592849
 20
0.469
 30
0.0
 11
3.592849
 21
0.508677
 31
0.0
  0
LINE
  5
11B
  8
0
 10
3.592849
 20
0.508677
 30
0.0
 11
3.592849
 21
1.669716
 31
0.0
  0
LINE
  5
11C
  8
0
 10
3.592849
 20
1.669716
 30
0.0
 11
3.592849
 21
1.868103
 31
0.0
  0
LINE
  5
11D
  8
0
 10
3.592849
 20
1.868103
 30
0.0
 11
3.592849
 21
2.128426
 31
0.0
  0
LINE
  5
11E
  8
0
 10
3.592849
 20
2.128426
 30
0.0
 11
3.592849
 21
2.168103
 31
0.0
  0
LINE
  5
11F
  8
0
 10
3.592849
 20
2.168103
 30
0.0
 11
3.592849
 21
3.469716
 31
0.0
  0
LINE
  5
120
  8
0
 10
3.592849
 20
3.469716
 30
0.0
 11
3.592849
 21
3.668103
 31
0.0
  0
LINE
  5
121
  8
0
 10
3.592849
 20
3.668103
 30
0.0
 11
3.592849
 21
3.928426
 31
0.0
  0
LINE
  5
122
  8
0
 10
3.592849
 20
3.928426
 30
0.0
 11
3.592849
 21
3.968103
 31
0.0
  0
LINE
  5
123
  8
0
 10
3.592849
 20
3.968103
 30
0.0
 11
3.592849
 21
5.269716
 31
0.0
  0
LINE
  5
124
  8
0
 10
3.592849
 20
5.269716
 30
0.0
 11
3.592849
 21
5.468103
 31
0.0
  0
LINE
  5
125
  8
0
 10
3.592849
 20
5.468103
 30
0.0
 11
3.592849
 21
5.728426
 31
0.0
  0
LINE
  5
126
  8
0
 10
3.592849
 20
5.728426
 30
0.0
 11
3.592849
 21
5.768103
 31
0.0
  0
LINE
  5
127
  8
0
 10
3.592849
 20
5.768103
 30
0.0
 11
3.592849
 21
7.069716
 31
0.0
  0
LINE
  5
128
  8
0
 10
3.592849
 20
7.069716
 30
0.0
 11
3.592849
 21
7.268103
 31
0.0
  0
LINE
  5
129
  8
0
 10
3.592849
 20
7.268103
 30
0.0
 11
3.592849
 21
7.528426
 31
0.0
  0
LINE
  5
12A
  8
0
 10
3.592849
 20
7.528426
 30
0.0
 11
3.592849
 21
7.568103
 31
0.0
  0
LINE
  5
12B
  8
0
 10
3.592849
 20
7.568103
 30
0.0
 11
3.592849
 21
8.869716
 31
0.0
  0
LINE
  5
12C
  8
0
 10
3.592849
 20
8.869716
 30
0.0
 11
3.592849
 21
9.068103
 31
0.0
  0
LINE
  5
12D
  8
0
 10
3.592849
 20
9.068103
 30
0.0
 11
3.592849
 21
9.328426
 31
0.0
  0
LINE
  5
12E
  8
0
 10
3.592849
 20
9.328426
 30
0.0
 11
3.592849
 21
9.368103
 31
0.0
  0
LINE
  5
12F
  8
0
 10
3.592849
 20
9.368103
 30
0.0
 11
3.592849
 21
10.669716
 31
0.0
  0
LINE
  5
130
  8
0
 10
3.592849
 20
10.669716
 30
0.0
 11
3.592849
 21
10.868103
 31
0.0
  0
LINE
  5
131
  8
0
 10
3.592849
 20
10.868103
 30
0.0
 11
3.592849
 21
11.128426
 31
0.0
  0
LINE
  5
132
  8
0
 10
3.592849
 20
11.128426
 30
0.0
 11
3.592849
 21
11.168103
 31
0.0
  0
LINE
  5
133
  8
0
 10
3.592849
 20
11.168103
 30
0.0
 11
3.592849
 21
12.469716
 31
0.0
  0
LINE
  5
134
  8
0
 10
3.592849
 20
12.469716
 30
0.0
 11
3.592849
 21
12.668103
 31
0.0
  0
LINE
  5
135
  8
0
 10
3.592849
 20
12.668103
 30
0.0
 11
3.592849
 21
12.928426
 31
0.0
  0
LINE
  5
136
  8
0
 10
3.592849
 20
12.928426
 30
0.0
 11
3.592849
 21
12.968103
 31
0.0
  0
LINE
  5
137
  8
0
 10
3.592849
 20
12.968103
 30
0.0
 11
3.592849
 21
14.269716
 31
0.0
  0
LINE
  5
138
  8
0
 10
3.592849
 20
14.269716
 30
0.0
 11
3.592849
 21
14.446677
 31
0.0
  0
LINE
  5
139
  8
0
 10
3.592849
 20
14.446677
 30
0.0
 11
3.592849
 21
14.707
 31
0.0
  0
LINE
  5
13A
  8
0
 10
4.092849
 20
0.484
 30
0.0
 11
4.092849
 21
0.523677
 31
0.0
  0
LINE
  5
13B
  8
0
 10
4.092849
 20
0.484
 30
0.0
 11
4.092849
 21
0.523677
 31
0.0
  0
LINE
  5
13C
  8
0
 10
4.092849
 20
0.523677
 30
0.0
 11
4.092849
 21
1.656081
 31
0.0
  0
LINE
  5
13D
  8
0
 10
4.092849
 20
1.656081
 30
0.0
 11
4.092849
 21
1.8546
 31
0.0
  0
LINE
  5
13E
  8
0
 10
4.092849
 20
1.8546
 30
0.0
 11
4.092849
 21
2.114923
 31
0.0
  0
LINE
  5
13F
  8
0
 10
4.092849
 20
2.114923
 30
0.0
 11
4.092849
 21
2.154468
 31
0.0
  0
LINE
  5
140
  8
0
 10
4.092849
 20
2.154468
 30
0.0
 11
4.092849
 21
3.456081
 31
0.0
  0
LINE
  5
141
  8
0
 10
4.092849
 20
3.456081
 30
0.0
 11
4.092849
 21
3.6546
 31
0.0
  0
LINE
  5
142
  8
0
 10
4.092849
 20
3.6546
 30
0.0
 11
4.092849
 21
3.914923
 31
0.0
  0
LINE
  5
143
  8
0
 10
4.092849
 20
3.914923
 30
0.0
 11
4.092849
 21
3.954468
 31
0.0
  0
LINE
  5
144
  8
0
 10
4.092849
 20
3.954468
 30
0.0
 11
4.092849
 21
5.256081
 31
0.0
  0
LINE
  5
145
  8
0
 10
4.092849
 20
5.256081
 30
0.0
 11
4.092849
 21
5.4546
 31
0.0
  0
LINE
  5
146
  8
0
 10
4.092849
 20
5.4546
 30
0.0
 11
4.092849
 21
5.714923
 31
0.0
  0
LINE
  5
147
  8
0
 10
4.092849
 20
5.714923
 30
0.0
 11
4.092849
 21
5.754468
 31
0.0
  0
LINE
  5
148
  8
0
 10
4.092849
 20
5.754468
 30
0.0
 11
4.092849
 21
7.056081
 31
0.0
  0
LINE
  5
149
  8
0
 10
4.092849
 20
7.056081
 30
0.0
 11
4.092849
 21
7.2546
 31
0.0
  0
LINE
  5
14A
  8
0
 10
4.092849
 20
7.2546
 30
0.0
 11
4.092849
 21
7.514923
 31
0.0
  0
LINE
  5
14B
  8
0
 10
4.092849
 20
7.514923
 30
0.0
 11
4.092849
 21
7.554468
 31
0.0
  0
LINE
  5
14C
  8
0
 10
4.092849
 20
7.554468
 30
0.0
 11
4.092849
 21
8.856081
 31
0.0
  0
LINE
  5
14D
  8
0
 10
4.092849
 20
8.856081
 30
0.0
 11
4.092849
 21
9.0546
 31
0.0
  0
LINE
  5
14E
  8
0
 10
4.092849
 20
9.0546
 30
0.0
 11
4.092849
 21
9.314923
 31
0.0
  0
LINE
  5
14F
  8
0
 10
4.092849
 20
9.314923
 30
0.0
 11
4.092849
 21
9.354468
 31
0.0
  0
LINE
  5
150
  8
0
 10
4.092849
 20
9.354468
 30
0.0
 11
4.092849
 21
10.656081
 31
0.0
  0
LINE
  5
151
  8
0
 10
4.092849
 20
10.656081
 30
0.0
 11
4.092849
 21
10.8546
 31
0.0
  0
LINE
  5
152
  8
0
 10
4.092849
 20
10.8546
 30
0.0
 11
4.092849
 21
11.114923
 31
0.0
  0
LINE
  5
153
  8
0
 10
4.092849
 20
11.114923
 30
0.0
 11
4.092849
 21
11.154468
 31
0.0
  0
LINE
  5
154
  8
0
 10
4.092849
 20
11.154468
 30
0.0
 11
4.092849
 21
12.456081
 31
0.0
  0
LINE
  5
155
  8
0
 10
4.092849
 20
12.456081
 30
0.0
 11
4.092849
 21
12.6546
 31
0.0
  0
LINE
  5
156
  8
0
 10
4.092849
 20
12.6546
 30
0.0
 11
4.092849
 21
12.914923
 31
0.0
  0
LINE
  5
157
  8
0
 10
4.092849
 20
12.914923
 30
0.0
 11
4.092849
 21
12.954468
 31
0.0
  0
LINE
  5
158
  8
0
 10
4.092849
 20
12.954468
 30
0.0
 11
4.092849
 21
14.256081
 31
0.0
  0
LINE
  5
159
  8
0
 10
4.092849
 20
14.256081
 30
0.0
 11
4.092849
 21
14.42881
 31
0.0
  0
LINE
  5
15A
  8
0
 10
4.092849
 20
14.42881
 30
0.0
 11
4.092849
 21
14.689132
 31
0.0
  0
LINE
  5
15B
  8
0
 10
4.092849
 20
14.689132
 30
0.0
 11
4.092849
 21
14.69
 31
0.0
  0
LINE
  5
15C
  8
0
 10
4.592849
 20
0.5
 30
0.0
 11
4.592849
 21
0.539677
 31
0.0
  0
LINE
  5
15D
  8
0
 10
4.592849
 20
0.5
 30
0.0
 11
4.592849
 21
0.539677
 31
0.0
  0
LINE
  5
15E
  8
0
 10
4.592849
 20
0.539677
 30
0.0
 11
4.592849
 21
1.643445
 31
0.0
  0
LINE
  5
15F
  8
0
 10
4.592849
 20
1.643445
 30
0.0
 11
4.592849
 21
1.841832
 31
0.0
  0
LINE
  5
160
  8
0
 10
4.592849
 20
1.841832
 30
0.0
 11
4.592849
 21
2.102155
 31
0.0
  0
LINE
  5
161
  8
0
 10
4.592849
 20
2.102155
 30
0.0
 11
4.592849
 21
2.141832
 31
0.0
  0
LINE
  5
162
  8
0
 10
4.592849
 20
2.141832
 30
0.0
 11
4.592849
 21
3.443445
 31
0.0
  0
LINE
  5
163
  8
0
 10
4.592849
 20
3.443445
 30
0.0
 11
4.592849
 21
3.641832
 31
0.0
  0
LINE
  5
164
  8
0
 10
4.592849
 20
3.641832
 30
0.0
 11
4.592849
 21
3.902155
 31
0.0
  0
LINE
  5
165
  8
0
 10
4.592849
 20
3.902155
 30
0.0
 11
4.592849
 21
3.941832
 31
0.0
  0
LINE
  5
166
  8
0
 10
4.592849
 20
3.941832
 30
0.0
 11
4.592849
 21
5.243445
 31
0.0
  0
LINE
  5
167
  8
0
 10
4.592849
 20
5.243445
 30
0.0
 11
4.592849
 21
5.441832
 31
0.0
  0
LINE
  5
168
  8
0
 10
4.592849
 20
5.441832
 30
0.0
 11
4.592849
 21
5.702155
 31
0.0
  0
LINE
  5
169
  8
0
 10
4.592849
 20
5.702155
 30
0.0
 11
4.592849
 21
5.741832
 31
0.0
  0
LINE
  5
16A
  8
0
 10
4.592849
 20
5.741832
 30
0.0
 11
4.592849
 21
7.043445
 31
0.0
  0
LINE
  5
16B
  8
0
 10
4.592849
 20
7.043445
 30
0.0
 11
4.592849
 21
7.241832
 31
0.0
  0
LINE
  5
16C
  8
0
 10
4.592849
 20
7.241832
 30
0.0
 11
4.592849
 21
7.502155
 31
0.0
  0
LINE
  5
16D
  8
0
 10
4.592849
 20
7.502155
 30
0.0
 11
4.592849
 21
7.541832
 31
0.0
  0
LINE
  5
16E
  8
0
 10
4.592849
 20
7.541832
 30
0.0
 11
4.592849
 21
8.843445
 31
0.0
  0
LINE
  5
16F
  8
0
 10
4.592849
 20
8.843445
 30
0.0
 11
4.592849
 21
9.041832
 31
0.0
  0
LINE
  5
170
  8
0
 10
4.592849
 20
9.041832
 30
0.0
 11
4.592849
 21
9.302155
 31
0.0
  0
LINE
  5
171
  8
0
 10
4.592849
 20
9.302155
 30
0.0
 11
4.592849
 21
9.341832
 31
0.0
  0
LINE
  5
172
  8
0
 10
4.592849
 20
9.341832
 30
0.0
 11
4.592849
 21
10.643445
 31
0.0
  0
LINE
  5
173
  8
0
 10
4.592849
 20
10.643445
 30
0.0
 11
4.592849
 21
10.841832
 31
0.0
  0
LINE
  5
174
  8
0
 10
4.592849
 20
10.841832
 30
0.0
 11
4.592849
 21
11.102155
 31
0.0
  0
LINE
  5
175
  8
0
 10
4.592849
 20
11.102155
 30
0.0
 11
4.592849
 21
11.141832
 31
0.0
  0
LINE
  5
176
  8
0
 10
4.592849
 20
11.141832
 30
0.0
 11
4.592849
 21
12.443445
 31
0.0
  0
LINE
  5
177
  8
0
 10
4.592849
 20
12.443445
 30
0.0
 11
4.592849
 21
12.641832
 31
0.0
  0
LINE
  5
178
  8
0
 10
4.592849
 20
12.641832
 30
0.0
 11
4.592849
 21
12.902155
 31
0.0
  0
LINE
  5
179
  8
0
 10
4.592849
 20
12.902155
 30
0.0
 11
4.592849
 21
12.941832
 31
0.0
  0
LINE
  5
17A
  8
0
 10
4.592849
 20
12.941832
 30
0.0
 11
4.592849
 21
14.243445
 31
0.0
  0
LINE
  5
17B
  8
0
 10
4.592849
 20
14.243445
 30
0.0
 11
4.592849
 21
14.411677
 31
0.0
  0
LINE
  5
17C
  8
0
 10
4.592849
 20
14.411677
 30
0.0
 11
4.592849
 21
14.672
 31
0.0
  0
LINE
  5
17D
  8
0
 10
5.092849
 20
0.516
 30
0.0
 11
5.092849
 21
0.555677
 31
0.0
  0
LINE
  5
17E
  8
0
 10
5.092849
 20
0.516
 30
0.0
 11
5.092849
 21
0.555677
 31
0.0
  0
LINE
  5
17F
  8
0
 10
5.092849
 20
0.555677
 30
0.0
 11
5.092849
 21
1.63081
 31
0.0
  0
LINE
  5
180
  8
0
 10
5.092849
 20
1.63081
 30
0.0
 11
5.092849
 21
1.829197
 31
0.0
  0
LINE
  5
181
  8
0
 10
5.092849
 20
1.829197
 30
0.0
 11
5.092849
 21
2.089519
 31
0.0
  0
LINE
  5
182
  8
0
 10
5.092849
 20
2.089519
 30
0.0
 11
5.092849
 21
2.129197
 31
0.0
  0
LINE
  5
183
  8
0
 10
5.092849
 20
2.129197
 30
0.0
 11
5.092849
 21
3.43081
 31
0.0
  0
LINE
  5
184
  8
0
 10
5.092849
 20
3.43081
 30
0.0
 11
5.092849
 21
3.629197
 31
0.0
  0
LINE
  5
185
  8
0
 10
5.092849
 20
3.629197
 30
0.0
 11
5.092849
 21
3.889519
 31
0.0
  0
LINE
  5
186
  8
0
 10
5.092849
 20
3.889519
 30
0.0
 11
5.092849
 21
3.929197
 31
0.0
  0
LINE
  5
187
  8
0
 10
5.092849
 20
3.929197
 30
0.0
 11
5.092849
 21
5.23081
 31
0.0
  0
LINE
  5
188
  8
0
 10
5.092849
 20
5.23081
 30
0.0
 11
5.092849
 21
5.429197
 31
0.0
  0
LINE
  5
189
  8
0
 10
5.092849
 20
5.429197
 30
0.0
 11
5.092849
 21
5.689519
 31
0.0
  0
LINE
  5
18A
  8
0
 10
5.092849
 20
5.689519
 30
0.0
 11
5.092849
 21
5.729197
 31
0.0
  0
LINE
  5
18B
  8
0
 10
5.092849
 20
5.729197
 30
0.0
 11
5.092849
 21
7.03081
 31
0.0
  0
LINE
  5
18C
  8
0
 10
5.092849
 20
7.03081
 30
0.0
 11
5.092849
 21
7.229197
 31
0.0
  0
LINE
  5
18D
  8
0
 10
5.092849
 20
7.229197
 30
0.0
 11
5.092849
 21
7.489519
 31
0.0
  0
LINE
  5
18E
  8
0
 10
5.092849
 20
7.489519
 30
0.0
 11
5.092849
 21
7.529197
 31
0.0
  0
LINE
  5
18F
  8
0
 10
5.092849
 20
7.529197
 30
0.0
 11
5.092849
 21
8.83081
 31
0.0
  0
LINE
  5
190
  8
0
 10
5.092849
 20
8.83081
 30
0.0
 11
5.092849
 21
9.029197
 31
0.0
  0
LINE
  5
191
  8
0
 10
5.092849
 20
9.029197
 30
0.0
 11
5.092849
 21
9.289519
 31
0.0
  0
LINE
  5
192
  8
0
 10
5.092849
 20
9.289519
 30
0.0
 11
5.092849
 21
9.329197
 31
0.0
  0
LINE
  5
193
  8
0
 10
5.092849
 20
9.329197
 30
0.0
 11
5.092849
 21
10.63081
 31
0.0
  0
LINE
  5
194
  8
0
 10
5.092849
 20
10.63081
 30
0.0
 11
5.092849
 21
10.829197
 31
0.0
  0
LINE
  5
195
  8
0
 10
5.092849
 20
10.829197
 30
0.0
 11
5.092849
 21
11.089519
 31
0.0
  0
LINE
  5
196
  8
0
 10
5.092849
 20
11.089519
 30
0.0
 11
5.092849
 21
11.129197
 31
0.0
  0
LINE
  5
197
  8
0
 10
5.092849
 20
11.129197
 30
0.0
 11
5.092849
 21
12.43081
 31
0.0
  0
LINE
  5
198
  8
0
 10
5.092849
 20
12.43081
 30
0.0
 11
5.092849
 21
12.629197
 31
0.0
  0
LINE
  5
199
  8
0
 10
5.092849
 20
12.629197
 30
0.0
 11
5.092849
 21
12.889519
 31
0.0
  0
LINE
  5
19A
  8
0
 10
5.092849
 20
12.889519
 30
0.0
 11
5.092849
 21
12.929197
 31
0.0
  0
LINE
  5
19B
  8
0
 10
5.092849
 20
12.929197
 30
0.0
 11
5.092849
 21
14.23081
 31
0.0
  0
LINE
  5
19C
  8
0
 10
5.092849
 20
14.23081
 30
0.0
 11
5.092849
 21
14.394677
 31
0.0
  0
LINE
  5
19D
  8
0
 10
5.092849
 20
14.394677
 30
0.0
 11
5.092849
 21
14.655
 31
0.0
  0
LINE
  5
19E
  8
0
 10
5.592849
 20
0.532
 30
0.0
 11
5.592849
 21
0.571677
 31
0.0
  0
LINE
  5
19F
  8
0
 10
5.592849
 20
0.532
 30
0.0
 11
5.592849
 21
0.571677
 31
0.0
  0
LINE
  5
1A0
  8
0
 10
5.592849
 20
0.571677
 30
0.0
 11
5.592849
 21
1.617306
 31
0.0
  0
LINE
  5
1A1
  8
0
 10
5.592849
 20
1.617306
 30
0.0
 11
5.592849
 21
1.815694
 31
0.0
  0
LINE
  5
1A2
  8
0
 10
5.592849
 20
1.815694
 30
0.0
 11
5.592849
 21
2.076016
 31
0.0
  0
LINE
  5
1A3
  8
0
 10
5.592849
 20
2.076016
 30
0.0
 11
5.592849
 21
2.115694
 31
0.0
  0
LINE
  5
1A4
  8
0
 10
5.592849
 20
2.115694
 30
0.0
 11
5.592849
 21
3.417306
 31
0.0
  0
LINE
  5
1A5
  8
0
 10
5.592849
 20
3.417306
 30
0.0
 11
5.592849
 21
3.615694
 31
0.0
  0
LINE
  5
1A6
  8
0
 10
5.592849
 20
3.615694
 30
0.0
 11
5.592849
 21
3.876016
 31
0.0
  0
LINE
  5
1A7
  8
0
 10
5.592849
 20
3.876016
 30
0.0
 11
5.592849
 21
3.915694
 31
0.0
  0
LINE
  5
1A8
  8
0
 10
5.592849
 20
3.915694
 30
0.0
 11
5.592849
 21
5.217306
 31
0.0
  0
LINE
  5
1A9
  8
0
 10
5.592849
 20
5.217306
 30
0.0
 11
5.592849
 21
5.415694
 31
0.0
  0
LINE
  5
1AA
  8
0
 10
5.592849
 20
5.415694
 30
0.0
 11
5.592849
 21
5.676016
 31
0.0
  0
LINE
  5
1AB
  8
0
 10
5.592849
 20
5.676016
 30
0.0
 11
5.592849
 21
5.715694
 31
0.0
  0
LINE
  5
1AC
  8
0
 10
5.592849
 20
5.715694
 30
0.0
 11
5.592849
 21
7.017306
 31
0.0
  0
LINE
  5
1AD
  8
0
 10
5.592849
 20
7.017306
 30
0.0
 11
5.592849
 21
7.215694
 31
0.0
  0
LINE
  5
1AE
  8
0
 10
5.592849
 20
7.215694
 30
0.0
 11
5.592849
 21
7.476016
 31
0.0
  0
LINE
  5
1AF
  8
0
 10
5.592849
 20
7.476016
 30
0.0
 11
5.592849
 21
7.515694
 31
0.0
  0
LINE
  5
1B0
  8
0
 10
5.592849
 20
7.515694
 30
0.0
 11
5.592849
 21
8.817306
 31
0.0
  0
LINE
  5
1B1
  8
0
 10
5.592849
 20
8.817306
 30
0.0
 11
5.592849
 21
9.015694
 31
0.0
  0
LINE
  5
1B2
  8
0
 10
5.592849
 20
9.015694
 30
0.0
 11
5.592849
 21
9.276016
 31
0.0
  0
LINE
  5
1B3
  8
0
 10
5.592849
 20
9.276016
 30
0.0
 11
5.592849
 21
9.315694
 31
0.0
  0
LINE
  5
1B4
  8
0
 10
5.592849
 20
9.315694
 30
0.0
 11
5.592849
 21
10.617306
 31
0.0
  0
LINE
  5
1B5
  8
0
 10
5.592849
 20
10.617306
 30
0.0
 11
5.592849
 21
10.815694
 31
0.0
  0
LINE
  5
1B6
  8
0
 10
5.592849
 20
10.815694
 30
0.0
 11
5.592849
 21
11.076016
 31
0.0
  0
LINE
  5
1B7
  8
0
 10
5.592849
 20
11.076016
 30
0.0
 11
5.592849
 21
11.115694
 31
0.0
  0
LINE
  5
1B8
  8
0
 10
5.592849
 20
11.115694
 30
0.0
 11
5.592849
 21
12.417306
 31
0.0
  0
LINE
  5
1B9
  8
0
 10
5.592849
 20
12.417306
 30
0.0
 11
5.592849
 21
12.615694
 31
0.0
  0
LINE
  5
1BA
  8
0
 10
5.592849
 20
12.615694
 30
0.0
 11
5.592849
 21
12.876016
 31
0.0
  0
LINE
  5
1BB
  8
0
 10
5.592849
 20
12.876016
 30
0.0
 11
5.592849
 21
12.915694
 31
0.0
  0
LINE
  5
1BC
  8
0
 10
5.592849
 20
12.915694
 30
0.0
 11
5.592849
 21
14.217306
 31
0.0
  0
LINE
  5
1BD
  8
0
 10
5.592849
 20
14.217306
 30
0.0
 11
5.592849
 21
14.376677
 31
0.0
  0
LINE
  5
1BE
  8
0
 10
5.592849
 20
14.376677
 30
0.0
 11
5.592849
 21
14.637
 31
0.0
  0
LINE
  5
1BF
  8
0
 10
6.092849
 20
0.548
 30
0.0
 11
6.092849
 21
0.587677
 31
0.0
  0
LINE
  5
1C0
  8
0
 10
6.092849
 20
0.548
 30
0.0
 11
6.092849
 21
0.587677
 31
0.0
  0
LINE
  5
1C1
  8
0
 10
6.092849
 20
0.587677
 30
0.0
 11
6.092849
 21
1.60901
 31
0.0
  0
LINE
  5
1C2
  8
0
 10
6.092849
 20
1.60901
 30
0.0
 11
6.092849
 21
1.807397
 31
0.0
  0
LINE
  5
1C3
  8
0
 10
6.092849
 20
1.807397
 30
0.0
 11
6.092849
 21
2.067719
 31
0.0
  0
LINE
  5
1C4
  8
0
 10
6.092849
 20
2.067719
 30
0.0
 11
6.092849
 21
2.107397
 31
0.0
  0
LINE
  5
1C5
  8
0
 10
6.092849
 20
2.107397
 30
0.0
 11
6.092849
 21
3.40901
 31
0.0
  0
LINE
  5
1C6
  8
0
 10
6.092849
 20
3.40901
 30
0.0
 11
6.092849
 21
3.607397
 31
0.0
  0
LINE
  5
1C7
  8
0
 10
6.092849
 20
3.607397
 30
0.0
 11
6.092849
 21
3.867719
 31
0.0
  0
LINE
  5
1C8
  8
0
 10
6.092849
 20
3.867719
 30
0.0
 11
6.092849
 21
3.907397
 31
0.0
  0
LINE
  5
1C9
  8
0
 10
6.092849
 20
3.907397
 30
0.0
 11
6.092849
 21
5.20901
 31
0.0
  0
LINE
  5
1CA
  8
0
 10
6.092849
 20
5.20901
 30
0.0
 11
6.092849
 21
5.407397
 31
0.0
  0
LINE
  5
1CB
  8
0
 10
6.092849
 20
5.407397
 30
0.0
 11
6.092849
 21
5.667719
 31
0.0
  0
LINE
  5
1CC
  8
0
 10
6.092849
 20
5.667719
 30
0.0
 11
6.092849
 21
5.707397
 31
0.0
  0
LINE
  5
1CD
  8
0
 10
6.092849
 20
5.707397
 30
0.0
 11
6.092849
 21
7.00901
 31
0.0
  0
LINE
  5
1CE
  8
0
 10
6.092849
 20
7.00901
 30
0.0
 11
6.092849
 21
7.207397
 31
0.0
  0
LINE
  5
1CF
  8
0
 10
6.092849
 20
7.207397
 30
0.0
 11
6.092849
 21
7.467719
 31
0.0
  0
LINE
  5
1D0
  8
0
 10
6.092849
 20
7.467719
 30
0.0
 11
6.092849
 21
7.507397
 31
0.0
  0
LINE
  5
1D1
  8
0
 10
6.092849
 20
7.507397
 30
0.0
 11
6.092849
 21
8.80901
 31
0.0
  0
LINE
  5
1D2
  8
0
 10
6.092849
 20
8.80901
 30
0.0
 11
6.092849
 21
9.007397
 31
0.0
  0
LINE
  5
1D3
  8
0
 10
6.092849
 20
9.007397
 30
0.0
 11
6.092849
 21
9.267719
 31
0.0
  0
LINE
  5
1D4
  8
0
 10
6.092849
 20
9.267719
 30
0.0
 11
6.092849
 21
9.307397
 31
0.0
  0
LINE
  5
1D5
  8
0
 10
6.092849
 20
9.307397
 30
0.0
 11
6.092849
 21
10.60901
 31
0.0
  0
LINE
  5
1D6
  8
0
 10
6.092849
 20
10.60901
 30
0.0
 11
6.092849
 21
10.807397
 31
0.0
  0
LINE
  5
1D7
  8
0
 10
6.092849
 20
10.807397
 30
0.0
 11
6.092849
 21
11.067719
 31
0.0
  0
LINE
  5
1D8
  8
0
 10
6.092849
 20
11.067719
 30
0.0
 11
6.092849
 21
11.107397
 31
0.0
  0
LINE
  5
1D9
  8
0
 10
6.092849
 20
11.107397
 30
0.0
 11
6.092849
 21
12.40901
 31
0.0
  0
LINE
  5
1DA
  8
0
 10
6.092849
 20
12.40901
 30
0.0
 11
6.092849
 21
12.607397
 31
0.0
  0
LINE
  5
1DB
  8
0
 10
6.092849
 20
12.607397
 30
0.0
 11
6.092849
 21
12.867719
 31
0.0
  0
LINE
  5
1DC
  8
0
 10
6.092849
 20
12.867719
 30
0.0
 11
6.092849
 21
12.907397
 31
0.0
  0
LINE
  5
1DD
  8
0
 10
6.092849
 20
12.907397
 30
0.0
 11
6.092849
 21
14.20901
 31
0.0
  0
LINE
  5
1DE
  8
0
 10
6.092849
 20
14.20901
 30
0.0
 11
6.092849
 21
14.364677
 31
0.0
  0
LINE
  5
1DF
  8
0
 10
6.092849
 20
14.364677
 30
0.0
 11
6.092849
 21
14.625
 31
0.0
  0
LINE
  5
1E0
  8
0
 10
6.592849
 20
0.563
 30
0.0
 11
6.592849
 21
0.602677
 31
0.0
  0
LINE
  5
1E1
  8
0
 10
6.592849
 20
0.563
 30
0.0
 11
6.592849
 21
0.602677
 31
0.0
  0
LINE
  5
1E2
  8
0
 10
6.592849
 20
0.602677
 30
0.0
 11
6.592849
 21
1.611861
 31
0.0
  0
LINE
  5
1E3
  8
0
 10
6.592849
 20
1.611861
 30
0.0
 11
6.592849
 21
1.810381
 31
0.0
  0
LINE
  5
1E4
  8
0
 10
6.592849
 20
1.810381
 30
0.0
 11
6.592849
 21
2.070703
 31
0.0
  0
LINE
  5
1E5
  8
0
 10
6.592849
 20
2.070703
 30
0.0
 11
6.592849
 21
2.110248
 31
0.0
  0
LINE
  5
1E6
  8
0
 10
6.592849
 20
2.110248
 30
0.0
 11
6.592849
 21
3.411861
 31
0.0
  0
LINE
  5
1E7
  8
0
 10
6.592849
 20
3.411861
 30
0.0
 11
6.592849
 21
3.610381
 31
0.0
  0
LINE
  5
1E8
  8
0
 10
6.592849
 20
3.610381
 30
0.0
 11
6.592849
 21
3.870703
 31
0.0
  0
LINE
  5
1E9
  8
0
 10
6.592849
 20
3.870703
 30
0.0
 11
6.592849
 21
3.910248
 31
0.0
  0
LINE
  5
1EA
  8
0
 10
6.592849
 20
3.910248
 30
0.0
 11
6.592849
 21
5.211861
 31
0.0
  0
LINE
  5
1EB
  8
0
 10
6.592849
 20
5.211861
 30
0.0
 11
6.592849
 21
5.410381
 31
0.0
  0
LINE
  5
1EC
  8
0
 10
6.592849
 20
5.410381
 30
0.0
 11
6.592849
 21
5.670703
 31
0.0
  0
LINE
  5
1ED
  8
0
 10
6.592849
 20
5.670703
 30
0.0
 11
6.592849
 21
5.710248
 31
0.0
  0
LINE
  5
1EE
  8
0
 10
6.592849
 20
5.710248
 30
0.0
 11
6.592849
 21
7.011861
 31
0.0
  0
LINE
  5
1EF
  8
0
 10
6.592849
 20
7.011861
 30
0.0
 11
6.592849
 21
7.210381
 31
0.0
  0
LINE
  5
1F0
  8
0
 10
6.592849
 20
7.210381
 30
0.0
 11
6.592849
 21
7.470703
 31
0.0
  0
LINE
  5
1F1
  8
0
 10
6.592849
 20
7.470703
 30
0.0
 11
6.592849
 21
7.510248
 31
0.0
  0
LINE
  5
1F2
  8
0
 10
6.592849
 20
7.510248
 30
0.0
 11
6.592849
 21
8.811861
 31
0.0
  0
LINE
  5
1F3
  8
0
 10
6.592849
 20
8.811861
 30
0.0
 11
6.592849
 21
9.010381
 31
0.0
  0
LINE
  5
1F4
  8
0
 10
6.592849
 20
9.010381
 30
0.0
 11
6.592849
 21
9.270703
 31
0.0
  0
LINE
  5
1F5
  8
0
 10
6.592849
 20
9.270703
 30
0.0
 11
6.592849
 21
9.310248
 31
0.0
  0
LINE
  5
1F6
  8
0
 10
6.592849
 20
9.310248
 30
0.0
 11
6.592849
 21
10.611861
 31
0.0
  0
LINE
  5
1F7
  8
0
 10
6.592849
 20
10.611861
 30
0.0
 11
6.592849
 21
10.810381
 31
0.0
  0
LINE
  5
1F8
  8
0
 10
6.592849
 20
10.810381
 30
0.0
 11
6.592849
 21
11.070703
 31
0.0
  0
LINE
  5
1F9
  8
0
 10
6.592849
 20
11.070703
 30
0.0
 11
6.592849
 21
11.110248
 31
0.0
  0
LINE
  5
1FA
  8
0
 10
6.592849
 20
11.110248
 30
0.0
 11
6.592849
 21
12.411861
 31
0.0
  0
LINE
  5
1FB
  8
0
 10
6.592849
 20
12.411861
 30
0.0
 11
6.592849
 21
12.610381
 31
0.0
  0
LINE
  5
1FC
  8
0
 10
6.592849
 20
12.610381
 30
0.0
 11
6.592849
 21
12.870703
 31
0.0
  0
LINE
  5
1FD
  8
0
 10
6.592849
 20
12.870703
 30
0.0
 11
6.592849
 21
12.910248
 31
0.0
  0
LINE
  5
1FE
  8
0
 10
6.592849
 20
12.910248
 30
0.0
 11
6.592849
 21
14.211861
 31
0.0
  0
LINE
  5
1FF
  8
0
 10
6.592849
 20
14.211861
 30
0.0
 11
6.592849
 21
14.365677
 31
0.0
  0
LINE
  5
200
  8
0
 10
6.592849
 20
14.365677
 30
0.0
 11
6.592849
 21
14.626
 31
0.0
  0
LINE
  5
201
  8
0
 10
7.092849
 20
0.579
 30
0.0
 11
7.092849
 21
0.618677
 31
0.0
  0
LINE
  5
202
  8
0
 10
7.092849
 20
0.579
 30
0.0
 11
7.092849
 21
0.618677
 31
0.0
  0
LINE
  5
203
  8
0
 10
7.092849
 20
0.618677
 30
0.0
 11
7.092849
 21
1.614845
 31
0.0
  0
LINE
  5
204
  8
0
 10
7.092849
 20
1.614845
 30
0.0
 11
7.092849
 21
1.813232
 31
0.0
  0
LINE
  5
205
  8
0
 10
7.092849
 20
1.813232
 30
0.0
 11
7.092849
 21
2.073555
 31
0.0
  0
LINE
  5
206
  8
0
 10
7.092849
 20
2.073555
 30
0.0
 11
7.092849
 21
2.113232
 31
0.0
  0
LINE
  5
207
  8
0
 10
7.092849
 20
2.113232
 30
0.0
 11
7.092849
 21
3.414845
 31
0.0
  0
LINE
  5
208
  8
0
 10
7.092849
 20
3.414845
 30
0.0
 11
7.092849
 21
3.613232
 31
0.0
  0
LINE
  5
209
  8
0
 10
7.092849
 20
3.613232
 30
0.0
 11
7.092849
 21
3.873555
 31
0.0
  0
LINE
  5
20A
  8
0
 10
7.092849
 20
3.873555
 30
0.0
 11
7.092849
 21
3.913232
 31
0.0
  0
LINE
  5
20B
  8
0
 10
7.092849
 20
3.913232
 30
0.0
 11
7.092849
 21
5.214845
 31
0.0
  0
LINE
  5
20C
  8
0
 10
7.092849
 20
5.214845
 30
0.0
 11
7.092849
 21
5.413232
 31
0.0
  0
LINE
  5
20D
  8
0
 10
7.092849
 20
5.413232
 30
0.0
 11
7.092849
 21
5.673555
 31
0.0
  0
LINE
  5
20E
  8
0
 10
7.092849
 20
5.673555
 30
0.0
 11
7.092849
 21
5.713232
 31
0.0
  0
LINE
  5
20F
  8
0
 10
7.092849
 20
5.713232
 30
0.0
 11
7.092849
 21
7.014845
 31
0.0
  0
LINE
  5
210
  8
0
 10
7.092849
 20
7.014845
 30
0.0
 11
7.092849
 21
7.213232
 31
0.0
  0
LINE
  5
211
  8
0
 10
7.092849
 20
7.213232
 30
0.0
 11
7.092849
 21
7.473555
 31
0.0
  0
LINE
  5
212
  8
0
 10
7.092849
 20
7.473555
 30
0.0
 11
7.092849
 21
7.513232
 31
0.0
  0
LINE
  5
213
  8
0
 10
7.092849
 20
7.513232
 30
0.0
 11
7.092849
 21
8.814845
 31
0.0
  0
LINE
  5
214
  8
0
 10
7.092849
 20
8.814845
 30
0.0
 11
7.092849
 21
9.013232
 31
0.0
  0
LINE
  5
215
  8
0
 10
7.092849
 20
9.013232
 30
0.0
 11
7.092849
 21
9.273555
 31
0.0
  0
LINE
  5
216
  8
0
 10
7.092849
 20
9.273555
 30
0.0
 11
7.092849
 21
9.313232
 31
0.0
  0
LINE
  5
217
  8
0
 10
7.092849
 20
9.313232
 30
0.0
 11
7.092849
 21
10.614845
 31
0.0
  0
LINE
  5
218
  8
0
 10
7.092849
 20
10.614845
 30
0.0
 11
7.092849
 21
10.813232
 31
0.0
  0
LINE
  5
219
  8
0
 10
7.092849
 20
10.813232
 30
0.0
 11
7.092849
 21
11.073555
 31
0.0
  0
LINE
  5
21A
  8
0
 10
7.092849
 20
11.073555
 30
0.0
 11
7.092849
 21
11.113232
 31
0.0
  0
LINE
  5
21B
  8
0
 10
7.092849
 20
11.113232
 30
0.0
 11
7.092849
 21
12.414845
 31
0.0
  0
LINE
  5
21C
  8
0
 10
7.092849
 20
12.414845
 30
0.0
 11
7.092849
 21
12.613232
 31
0.0
  0
LINE
  5
21D
  8
0
 10
7.092849
 20
12.613232
 30
0.0
 11
7.092849
 21
12.873555
 31
0.0
  0
LINE
  5
21E
  8
0
 10
7.092849
 20
12.873555
 30
0.0
 11
7.092849
 21
12.913232
 31
0.0
  0
LINE
  5
21F
  8
0
 10
7.092849
 20
12.913232
 30
0.0
 11
7.092849
 21
14.214845
 31
0.0
  0
LINE
  5
220
  8
0
 10
7.092849
 20
14.214845
 30
0.0
 11
7.092849
 21
14.366677
 31
0.0
  0
LINE
  5
221
  8
0
 10
7.092849
 20
14.366677
 30
0.0
 11
7.092849
 21
14.627
 31
0.0
  0
LINE
  5
222
  8
0
 10
7.592849
 20
0.574
 30
0.0
 11
7.592849
 21
0.574868
 31
0.0
  0
LINE
  5
223
  8
0
 10
7.592849
 20
0.574
 30
0.0
 11
7.592849
 21
0.574868
 31
0.0
  0
LINE
  5
224
  8
0
 10
7.592849
 20
0.574868
 30
0.0
 11
7.592849
 21
0.614677
 31
0.0
  0
LINE
  5
225
  8
0
 10
7.592849
 20
0.614677
 30
0.0
 11
7.592849
 21
1.615184
 31
0.0
  0
LINE
  5
226
  8
0
 10
7.592849
 20
1.615184
 30
0.0
 11
7.592849
 21
1.813571
 31
0.0
  0
LINE
  5
227
  8
0
 10
7.592849
 20
1.813571
 30
0.0
 11
7.592849
 21
2.073026
 31
0.0
  0
LINE
  5
228
  8
0
 10
7.592849
 20
2.073026
 30
0.0
 11
7.592849
 21
2.112703
 31
0.0
  0
LINE
  5
229
  8
0
 10
7.592849
 20
2.112703
 30
0.0
 11
7.592849
 21
3.415184
 31
0.0
  0
LINE
  5
22A
  8
0
 10
7.592849
 20
3.415184
 30
0.0
 11
7.592849
 21
3.613571
 31
0.0
  0
LINE
  5
22B
  8
0
 10
7.592849
 20
3.613571
 30
0.0
 11
7.592849
 21
3.873026
 31
0.0
  0
LINE
  5
22C
  8
0
 10
7.592849
 20
3.873026
 30
0.0
 11
7.592849
 21
3.912703
 31
0.0
  0
LINE
  5
22D
  8
0
 10
7.592849
 20
3.912703
 30
0.0
 11
7.592849
 21
5.215184
 31
0.0
  0
LINE
  5
22E
  8
0
 10
7.592849
 20
5.215184
 30
0.0
 11
7.592849
 21
5.413571
 31
0.0
  0
LINE
  5
22F
  8
0
 10
7.592849
 20
5.413571
 30
0.0
 11
7.592849
 21
5.673026
 31
0.0
  0
LINE
  5
230
  8
0
 10
7.592849
 20
5.673026
 30
0.0
 11
7.592849
 21
5.712703
 31
0.0
  0
LINE
  5
231
  8
0
 10
7.592849
 20
5.712703
 30
0.0
 11
7.592849
 21
7.015184
 31
0.0
  0
LINE
  5
232
  8
0
 10
7.592849
 20
7.015184
 30
0.0
 11
7.592849
 21
7.213571
 31
0.0
  0
LINE
  5
233
  8
0
 10
7.592849
 20
7.213571
 30
0.0
 11
7.592849
 21
7.473026
 31
0.0
  0
LINE
  5
234
  8
0
 10
7.592849
 20
7.473026
 30
0.0
 11
7.592849
 21
7.512703
 31
0.0
  0
LINE
  5
235
  8
0
 10
7.592849
 20
7.512703
 30
0.0
 11
7.592849
 21
8.815184
 31
0.0
  0
LINE
  5
236
  8
0
 10
7.592849
 20
8.815184
 30
0.0
 11
7.592849
 21
9.013571
 31
0.0
  0
LINE
  5
237
  8
0
 10
7.592849
 20
9.013571
 30
0.0
 11
7.592849
 21
9.273026
 31
0.0
  0
LINE
  5
238
  8
0
 10
7.592849
 20
9.273026
 30
0.0
 11
7.592849
 21
9.312703
 31
0.0
  0
LINE
  5
239
  8
0
 10
7.592849
 20
9.312703
 30
0.0
 11
7.592849
 21
10.615184
 31
0.0
  0
LINE
  5
23A
  8
0
 10
7.592849
 20
10.615184
 30
0.0
 11
7.592849
 21
10.813571
 31
0.0
  0
LINE
  5
23B
  8
0
 10
7.592849
 20
10.813571
 30
0.0
 11
7.592849
 21
11.073026
 31
0.0
  0
LINE
  5
23C
  8
0
 10
7.592849
 20
11.073026
 30
0.0
 11
7.592849
 21
11.112703
 31
0.0
  0
LINE
  5
23D
  8
0
 10
7.592849
 20
11.112703
 30
0.0
 11
7.592849
 21
12.415184
 31
0.0
  0
LINE
  5
23E
  8
0
 10
7.592849
 20
12.415184
 30
0.0
 11
7.592849
 21
12.613571
 31
0.0
  0
LINE
  5
23F
  8
0
 10
7.592849
 20
12.613571
 30
0.0
 11
7.592849
 21
12.873026
 31
0.0
  0
LINE
  5
240
  8
0
 10
7.592849
 20
12.873026
 30
0.0
 11
7.592849
 21
12.912703
 31
0.0
  0
LINE
  5
241
  8
0
 10
7.592849
 20
12.912703
 30
0.0
 11
7.592849
 21
14.215184
 31
0.0
  0
LINE
  5
242
  8
0
 10
7.592849
 20
14.215184
 30
0.0
 11
7.592849
 21
14.367677
 31
0.0
  0
LINE
  5
243
  8
0
 10
7.592849
 20
14.367677
 30
0.0
 11
7.592849
 21
14.628
 31
0.0
  0
LINE
  5
244
  8
0
 10
8.092849
 20
0.563
 30
0.0
 11
8.092849
 21
0.602677
 31
0.0
  0
LINE
  5
245
  8
0
 10
8.092849
 20
0.563
 30
0.0
 11
8.092849
 21
0.602677
 31
0.0
  0
LINE
  5
246
  8
0
 10
8.092849
 20
0.602677
 30
0.0
 11
8.092849
 21
1.613597
 31
0.0
  0
LINE
  5
247
  8
0
 10
8.092849
 20
1.613597
 30
0.0
 11
8.092849
 21
1.811984
 31
0.0
  0
LINE
  5
248
  8
0
 10
8.092849
 20
1.811984
 30
0.0
 11
8.092849
 21
2.072306
 31
0.0
  0
LINE
  5
249
  8
0
 10
8.092849
 20
2.072306
 30
0.0
 11
8.092849
 21
2.111984
 31
0.0
  0
LINE
  5
24A
  8
0
 10
8.092849
 20
2.111984
 30
0.0
 11
8.092849
 21
3.413597
 31
0.0
  0
LINE
  5
24B
  8
0
 10
8.092849
 20
3.413597
 30
0.0
 11
8.092849
 21
3.611984
 31
0.0
  0
LINE
  5
24C
  8
0
 10
8.092849
 20
3.611984
 30
0.0
 11
8.092849
 21
3.872306
 31
0.0
  0
LINE
  5
24D
  8
0
 10
8.092849
 20
3.872306
 30
0.0
 11
8.092849
 21
3.911984
 31
0.0
  0
LINE
  5
24E
  8
0
 10
8.092849
 20
3.911984
 30
0.0
 11
8.092849
 21
5.213597
 31
0.0
  0
LINE
  5
24F
  8
0
 10
8.092849
 20
5.213597
 30
0.0
 11
8.092849
 21
5.411984
 31
0.0
  0
LINE
  5
250
  8
0
 10
8.092849
 20
5.411984
 30
0.0
 11
8.092849
 21
5.672306
 31
0.0
  0
LINE
  5
251
  8
0
 10
8.092849
 20
5.672306
 30
0.0
 11
8.092849
 21
5.711984
 31
0.0
  0
LINE
  5
252
  8
0
 10
8.092849
 20
5.711984
 30
0.0
 11
8.092849
 21
7.013597
 31
0.0
  0
LINE
  5
253
  8
0
 10
8.092849
 20
7.013597
 30
0.0
 11
8.092849
 21
7.211984
 31
0.0
  0
LINE
  5
254
  8
0
 10
8.092849
 20
7.211984
 30
0.0
 11
8.092849
 21
7.472306
 31
0.0
  0
LINE
  5
255
  8
0
 10
8.092849
 20
7.472306
 30
0.0
 11
8.092849
 21
7.511984
 31
0.0
  0
LINE
  5
256
  8
0
 10
8.092849
 20
7.511984
 30
0.0
 11
8.092849
 21
8.813597
 31
0.0
  0
LINE
  5
257
  8
0
 10
8.092849
 20
8.813597
 30
0.0
 11
8.092849
 21
9.011984
 31
0.0
  0
LINE
  5
258
  8
0
 10
8.092849
 20
9.011984
 30
0.0
 11
8.092849
 21
9.272306
 31
0.0
  0
LINE
  5
259
  8
0
 10
8.092849
 20
9.272306
 30
0.0
 11
8.092849
 21
9.311984
 31
0.0
  0
LINE
  5
25A
  8
0
 10
8.092849
 20
9.311984
 30
0.0
 11
8.092849
 21
10.613597
 31
0.0
  0
LINE
  5
25B
  8
0
 10
8.092849
 20
10.613597
 30
0.0
 11
8.092849
 21
10.811984
 31
0.0
  0
LINE
  5
25C
  8
0
 10
8.092849
 20
10.811984
 30
0.0
 11
8.092849
 21
11.072306
 31
0.0
  0
LINE
  5
25D
  8
0
 10
8.092849
 20
11.072306
 30
0.0
 11
8.092849
 21
11.111984
 31
0.0
  0
LINE
  5
25E
  8
0
 10
8.092849
 20
11.111984
 30
0.0
 11
8.092849
 21
12.413597
 31
0.0
  0
LINE
  5
25F
  8
0
 10
8.092849
 20
12.413597
 30
0.0
 11
8.092849
 21
12.611984
 31
0.0
  0
LINE
  5
260
  8
0
 10
8.092849
 20
12.611984
 30
0.0
 11
8.092849
 21
12.872306
 31
0.0
  0
LINE
  5
261
  8
0
 10
8.092849
 20
12.872306
 30
0.0
 11
8.092849
 21
12.911984
 31
0.0
  0
LINE
  5
262
  8
0
 10
8.092849
 20
12.911984
 30
0.0
 11
8.092849
 21
14.213597
 31
0.0
  0
LINE
  5
263
  8
0
 10
8.092849
 20
14.213597
 30
0.0
 11
8.092849
 21
14.367677
 31
0.0
  0
LINE
  5
264
  8
0
 10
8.092849
 20
14.367677
 30
0.0
 11
8.092849
 21
14.628
 31
0.0
  0
LINE
  5
265
  8
0
 10
8.592849
 20
0.551
 30
0.0
 11
8.592849
 21
0.590677
 31
0.0
  0
LINE
  5
266
  8
0
 10
8.592849
 20
0.551
 30
0.0
 11
8.592849
 21
0.590677
 31
0.0
  0
LINE
  5
267
  8
0
 10
8.592849
 20
0.590677
 30
0.0
 11
8.592849
 21
1.612877
 31
0.0
  0
LINE
  5
268
  8
0
 10
8.592849
 20
1.612877
 30
0.0
 11
8.592849
 21
1.811265
 31
0.0
  0
LINE
  5
269
  8
0
 10
8.592849
 20
1.811265
 30
0.0
 11
8.592849
 21
2.071587
 31
0.0
  0
LINE
  5
26A
  8
0
 10
8.592849
 20
2.071587
 30
0.0
 11
8.592849
 21
2.111265
 31
0.0
  0
LINE
  5
26B
  8
0
 10
8.592849
 20
2.111265
 30
0.0
 11
8.592849
 21
3.412877
 31
0.0
  0
LINE
  5
26C
  8
0
 10
8.592849
 20
3.412877
 30
0.0
 11
8.592849
 21
3.611265
 31
0.0
  0
LINE
  5
26D
  8
0
 10
8.592849
 20
3.611265
 30
0.0
 11
8.592849
 21
3.871587
 31
0.0
  0
LINE
  5
26E
  8
0
 10
8.592849
 20
3.871587
 30
0.0
 11
8.592849
 21
3.911265
 31
0.0
  0
LINE
  5
26F
  8
0
 10
8.592849
 20
3.911265
 30
0.0
 11
8.592849
 21
5.212877
 31
0.0
  0
LINE
  5
270
  8
0
 10
8.592849
 20
5.212877
 30
0.0
 11
8.592849
 21
5.411265
 31
0.0
  0
LINE
  5
271
  8
0
 10
8.592849
 20
5.411265
 30
0.0
 11
8.592849
 21
5.671587
 31
0.0
  0
LINE
  5
272
  8
0
 10
8.592849
 20
5.671587
 30
0.0
 11
8.592849
 21
5.711265
 31
0.0
  0
LINE
  5
273
  8
0
 10
8.592849
 20
5.711265
 30
0.0
 11
8.592849
 21
7.012877
 31
0.0
  0
LINE
  5
274
  8
0
 10
8.592849
 20
7.012877
 30
0.0
 11
8.592849
 21
7.211265
 31
0.0
  0
LINE
  5
275
  8
0
 10
8.592849
 20
7.211265
 30
0.0
 11
8.592849
 21
7.471587
 31
0.0
  0
LINE
  5
276
  8
0
 10
8.592849
 20
7.471587
 30
0.0
 11
8.592849
 21
7.511265
 31
0.0
  0
LINE
  5
277
  8
0
 10
8.592849
 20
7.511265
 30
0.0
 11
8.592849
 21
8.812877
 31
0.0
  0
LINE
  5
278
  8
0
 10
8.592849
 20
8.812877
 30
0.0
 11
8.592849
 21
9.011265
 31
0.0
  0
LINE
  5
279
  8
0
 10
8.592849
 20
9.011265
 30
0.0
 11
8.592849
 21
9.271587
 31
0.0
  0
LINE
  5
27A
  8
0
 10
8.592849
 20
9.271587
 30
0.0
 11
8.592849
 21
9.311265
 31
0.0
  0
LINE
  5
27B
  8
0
 10
8.592849
 20
9.311265
 30
0.0
 11
8.592849
 21
10.612877
 31
0.0
  0
LINE
  5
27C
  8
0
 10
8.592849
 20
10.612877
 30
0.0
 11
8.592849
 21
10.811265
 31
0.0
  0
LINE
  5
27D
  8
0
 10
8.592849
 20
10.811265
 30
0.0
 11
8.592849
 21
11.071587
 31
0.0
  0
LINE
  5
27E
  8
0
 10
8.592849
 20
11.071587
 30
0.0
 11
8.592849
 21
11.111265
 31
0.0
  0
LINE
  5
27F
  8
0
 10
8.592849
 20
11.111265
 30
0.0
 11
8.592849
 21
12.412877
 31
0.0
  0
LINE
  5
280
  8
0
 10
8.592849
 20
12.412877
 30
0.0
 11
8.592849
 21
12.611265
 31
0.0
  0
LINE
  5
281
  8
0
 10
8.592849
 20
12.611265
 30
0.0
 11
8.592849
 21
12.871587
 31
0.0
  0
LINE
  5
282
  8
0
 10
8.592849
 20
12.871587
 30
0.0
 11
8.592849
 21
12.911265
 31
0.0
  0
LINE
  5
283
  8
0
 10
8.592849
 20
12.911265
 30
0.0
 11
8.592849
 21
14.212877
 31
0.0
  0
LINE
  5
284
  8
0
 10
8.592849
 20
14.212877
 30
0.0
 11
8.592849
 21
14.368677
 31
0.0
  0
LINE
  5
285
  8
0
 10
8.592849
 20
14.368677
 30
0.0
 11
8.592849
 21
14.629
 31
0.0
  0
LINE
  5
286
  8
0
 10
9.092849
 20
0.539
 30
0.0
 11
9.092849
 21
0.578677
 31
0.0
  0
LINE
  5
287
  8
0
 10
9.092849
 20
0.539
 30
0.0
 11
9.092849
 21
0.578677
 31
0.0
  0
LINE
  5
288
  8
0
 10
9.092849
 20
0.578677
 30
0.0
 11
9.092849
 21
1.612158
 31
0.0
  0
LINE
  5
289
  8
0
 10
9.092849
 20
1.612158
 30
0.0
 11
9.092849
 21
1.810545
 31
0.0
  0
LINE
  5
28A
  8
0
 10
9.092849
 20
1.810545
 30
0.0
 11
9.092849
 21
2.070868
 31
0.0
  0
LINE
  5
28B
  8
0
 10
9.092849
 20
2.070868
 30
0.0
 11
9.092849
 21
2.110545
 31
0.0
  0
LINE
  5
28C
  8
0
 10
9.092849
 20
2.110545
 30
0.0
 11
9.092849
 21
3.412158
 31
0.0
  0
LINE
  5
28D
  8
0
 10
9.092849
 20
3.412158
 30
0.0
 11
9.092849
 21
3.610545
 31
0.0
  0
LINE
  5
28E
  8
0
 10
9.092849
 20
3.610545
 30
0.0
 11
9.092849
 21
3.870868
 31
0.0
  0
LINE
  5
28F
  8
0
 10
9.092849
 20
3.870868
 30
0.0
 11
9.092849
 21
3.910545
 31
0.0
  0
LINE
  5
290
  8
0
 10
9.092849
 20
3.910545
 30
0.0
 11
9.092849
 21
5.212158
 31
0.0
  0
LINE
  5
291
  8
0
 10
9.092849
 20
5.212158
 30
0.0
 11
9.092849
 21
5.410545
 31
0.0
  0
LINE
  5
292
  8
0
 10
9.092849
 20
5.410545
 30
0.0
 11
9.092849
 21
5.670868
 31
0.0
  0
LINE
  5
293
  8
0
 10
9.092849
 20
5.670868
 30
0.0
 11
9.092849
 21
5.710545
 31
0.0
  0
LINE
  5
294
  8
0
 10
9.092849
 20
5.710545
 30
0.0
 11
9.092849
 21
7.012158
 31
0.0
  0
LINE
  5
295
  8
0
 10
9.092849
 20
7.012158
 30
0.0
 11
9.092849
 21
7.210545
 31
0.0
  0
LINE
  5
296
  8
0
 10
9.092849
 20
7.210545
 30
0.0
 11
9.092849
 21
7.470868
 31
0.0
  0
LINE
  5
297
  8
0
 10
9.092849
 20
7.470868
 30
0.0
 11
9.092849
 21
7.510545
 31
0.0
  0
LINE
  5
298
  8
0
 10
9.092849
 20
7.510545
 30
0.0
 11
9.092849
 21
8.812158
 31
0.0
  0
LINE
  5
299
  8
0
 10
9.092849
 20
8.812158
 30
0.0
 11
9.092849
 21
9.010545
 31
0.0
  0
LINE
  5
29A
  8
0
 10
9.092849
 20
9.010545
 30
0.0
 11
9.092849
 21
9.270868
 31
0.0
  0
LINE
  5
29B
  8
0
 10
9.092849
 20
9.270868
 30
0.0
 11
9.092849
 21
9.310545
 31
0.0
  0
LINE
  5
29C
  8
0
 10
9.092849
 20
9.310545
 30
0.0
 11
9.092849
 21
10.612158
 31
0.0
  0
LINE
  5
29D
  8
0
 10
9.092849
 20
10.612158
 30
0.0
 11
9.092849
 21
10.810545
 31
0.0
  0
LINE
  5
29E
  8
0
 10
9.092849
 20
10.810545
 30
0.0
 11
9.092849
 21
11.070868
 31
0.0
  0
LINE
  5
29F
  8
0
 10
9.092849
 20
11.070868
 30
0.0
 11
9.092849
 21
11.110545
 31
0.0
  0
LINE
  5
2A0
  8
0
 10
9.092849
 20
11.110545
 30
0.0
 11
9.092849
 21
12.412158
 31
0.0
  0
LINE
  5
2A1
  8
0
 10
9.092849
 20
12.412158
 30
0.0
 11
9.092849
 21
12.610545
 31
0.0
  0
LINE
  5
2A2
  8
0
 10
9.092849
 20
12.610545
 30
0.0
 11
9.092849
 21
12.870868
 31
0.0
  0
LINE
  5
2A3
  8
0
 10
9.092849
 20
12.870868
 30
0.0
 11
9.092849
 21
12.910545
 31
0.0
  0
LINE
  5
2A4
  8
0
 10
9.092849
 20
12.910545
 30
0.0
 11
9.092849
 21
14.212158
 31
0.0
  0
LINE
  5
2A5
  8
0
 10
9.092849
 20
14.212158
 30
0.0
 11
9.092849
 21
14.369677
 31
0.0
  0
LINE
  5
2A6
  8
0
 10
9.092849
 20
14.369677
 30
0.0
 11
9.092849
 21
14.63
 31
0.0
  0
LINE
  5
2A7
  8
0
 10
9.592849
 20
0.527
 30
0.0
 11
9.592849
 21
0.566677
 31
0.0
  0
LINE
  5
2A8
  8
0
 10
9.592849
 20
0.527
 30
0.0
 11
9.592849
 21
0.566677
 31
0.0
  0
LINE
  5
2A9
  8
0
 10
9.592849
 20
0.566677
 30
0.0
 11
9.592849
 21
1.610571
 31
0.0
  0
LINE
  5
2AA
  8
0
 10
9.592849
 20
1.610571
 30
0.0
 11
9.592849
 21
1.808958
 31
0.0
  0
LINE
  5
2AB
  8
0
 10
9.592849
 20
1.808958
 30
0.0
 11
9.592849
 21
2.069281
 31
0.0
  0
LINE
  5
2AC
  8
0
 10
9.592849
 20
2.069281
 30
0.0
 11
9.592849
 21
2.108958
 31
0.0
  0
LINE
  5
2AD
  8
0
 10
9.592849
 20
2.108958
 30
0.0
 11
9.592849
 21
3.410571
 31
0.0
  0
LINE
  5
2AE
  8
0
 10
9.592849
 20
3.410571
 30
0.0
 11
9.592849
 21
3.608958
 31
0.0
  0
LINE
  5
2AF
  8
0
 10
9.592849
 20
3.608958
 30
0.0
 11
9.592849
 21
3.869281
 31
0.0
  0
LINE
  5
2B0
  8
0
 10
9.592849
 20
3.869281
 30
0.0
 11
9.592849
 21
3.908958
 31
0.0
  0
LINE
  5
2B1
  8
0
 10
9.592849
 20
3.908958
 30
0.0
 11
9.592849
 21
5.210571
 31
0.0
  0
LINE
  5
2B2
  8
0
 10
9.592849
 20
5.210571
 30
0.0
 11
9.592849
 21
5.408958
 31
0.0
  0
LINE
  5
2B3
  8
0
 10
9.592849
 20
5.408958
 30
0.0
 11
9.592849
 21
5.669281
 31
0.0
  0
LINE
  5
2B4
  8
0
 10
9.592849
 20
5.669281
 30
0.0
 11
9.592849
 21
5.708958
 31
0.0
  0
LINE
  5
2B5
  8
0
 10
9.592849
 20
5.708958
 30
0.0
 11
9.592849
 21
7.010571
 31
0.0
  0
LINE
  5
2B6
  8
0
 10
9.592849
 20
7.010571
 30
0.0
 11
9.592849
 21
7.208958
 31
0.0
  0
LINE
  5
2B7
  8
0
 10
9.592849
 20
7.208958
 30
0.0
 11
9.592849
 21
7.469281
 31
0.0
  0
LINE
  5
2B8
  8
0
 10
9.592849
 20
7.469281
 30
0.0
 11
9.592849
 21
7.508958
 31
0.0
  0
LINE
  5
2B9
  8
0
 10
9.592849
 20
7.508958
 30
0.0
 11
9.592849
 21
8.810571
 31
0.0
  0
LINE
  5
2BA
  8
0
 10
9.592849
 20
8.810571
 30
0.0
 11
9.592849
 21
9.008958
 31
0.0
  0
LINE
  5
2BB
  8
0
 10
9.592849
 20
9.008958
 30
0.0
 11
9.592849
 21
9.269281
 31
0.0
  0
LINE
  5
2BC
  8
0
 10
9.592849
 20
9.269281
 30
0.0
 11
9.592849
 21
9.308958
 31
0.0
  0
LINE
  5
2BD
  8
0
 10
9.592849
 20
9.308958
 30
0.0
 11
9.592849
 21
10.610571
 31
0.0
  0
LINE
  5
2BE
  8
0
 10
9.592849
 20
10.610571
 30
0.0
 11
9.592849
 21
10.808958
 31
0.0
  0
LINE
  5
2BF
  8
0
 10
9.592849
 20
10.808958
 30
0.0
 11
9.592849
 21
11.069281
 31
0.0
  0
LINE
  5
2C0
  8
0
 10
9.592849
 20
11.069281
 30
0.0
 11
9.592849
 21
11.108958
 31
0.0
  0
LINE
  5
2C1
  8
0
 10
9.592849
 20
11.108958
 30
0.0
 11
9.592849
 21
12.410571
 31
0.0
  0
LINE
  5
2C2
  8
0
 10
9.592849
 20
12.410571
 30
0.0
 11
9.592849
 21
12.608958
 31
0.0
  0
LINE
  5
2C3
  8
0
 10
9.592849
 20
12.608958
 30
0.0
 11
9.592849
 21
12.869281
 31
0.0
  0
LINE
  5
2C4
  8
0
 10
9.592849
 20
12.869281
 30
0.0
 11
9.592849
 21
12.908958
 31
0.0
  0
LINE
  5
2C5
  8
0
 10
9.592849
 20
12.908958
 30
0.0
 11
9.592849
 21
14.210571
 31
0.0
  0
LINE
  5
2C6
  8
0
 10
9.592849
 20
14.210571
 30
0.0
 11
9.592849
 21
14.369677
 31
0.0
  0
LINE
  5
2C7
  8
0
 10
9.592849
 20
14.369677
 30
0.0
 11
9.592849
 21
14.63
 31
0.0
  0
LINE
  5
2C8
  8
0
 10
10.092849
 20
0.515
 30
0.0
 11
10.092849
 21
0.554677
 31
0.0
  0
LINE
  5
2C9
  8
0
 10
10.092849
 20
0.515
 30
0.0
 11
10.092849
 21
0.554677
 31
0.0
  0
LINE
  5
2CA
  8
0
 10
10.092849
 20
0.554677
 30
0.0
 11
10.092849
 21
1.609852
 31
0.0
  0
LINE
  5
2CB
  8
0
 10
10.092849
 20
1.609852
 30
0.0
 11
10.092849
 21
1.808239
 31
0.0
  0
LINE
  5
2CC
  8
0
 10
10.092849
 20
1.808239
 30
0.0
 11
10.092849
 21
2.068561
 31
0.0
  0
LINE
  5
2CD
  8
0
 10
10.092849
 20
2.068561
 30
0.0
 11
10.092849
 21
2.108239
 31
0.0
  0
LINE
  5
2CE
  8
0
 10
10.092849
 20
2.108239
 30
0.0
 11
10.092849
 21
3.409852
 31
0.0
  0
LINE
  5
2CF
  8
0
 10
10.092849
 20
3.409852
 30
0.0
 11
10.092849
 21
3.608239
 31
0.0
  0
LINE
  5
2D0
  8
0
 10
10.092849
 20
3.608239
 30
0.0
 11
10.092849
 21
3.868561
 31
0.0
  0
LINE
  5
2D1
  8
0
 10
10.092849
 20
3.868561
 30
0.0
 11
10.092849
 21
3.908239
 31
0.0
  0
LINE
  5
2D2
  8
0
 10
10.092849
 20
3.908239
 30
0.0
 11
10.092849
 21
5.209852
 31
0.0
  0
LINE
  5
2D3
  8
0
 10
10.092849
 20
5.209852
 30
0.0
 11
10.092849
 21
5.408239
 31
0.0
  0
LINE
  5
2D4
  8
0
 10
10.092849
 20
5.408239
 30
0.0
 11
10.092849
 21
5.668561
 31
0.0
  0
LINE
  5
2D5
  8
0
 10
10.092849
 20
5.668561
 30
0.0
 11
10.092849
 21
5.708239
 31
0.0
  0
LINE
  5
2D6
  8
0
 10
10.092849
 20
5.708239
 30
0.0
 11
10.092849
 21
7.009852
 31
0.0
  0
LINE
  5
2D7
  8
0
 10
10.092849
 20
7.009852
 30
0.0
 11
10.092849
 21
7.208239
 31
0.0
  0
LINE
  5
2D8
  8
0
 10
10.092849
 20
7.208239
 30
0.0
 11
10.092849
 21
7.468561
 31
0.0
  0
LINE
  5
2D9
  8
0
 10
10.092849
 20
7.468561
 30
0.0
 11
10.092849
 21
7.508239
 31
0.0
  0
LINE
  5
2DA
  8
0
 10
10.092849
 20
7.508239
 30
0.0
 11
10.092849
 21
8.809852
 31
0.0
  0
LINE
  5
2DB
  8
0
 10
10.092849
 20
8.809852
 30
0.0
 11
10.092849
 21
9.008239
 31
0.0
  0
LINE
  5
2DC
  8
0
 10
10.092849
 20
9.008239
 30
0.0
 11
10.092849
 21
9.268561
 31
0.0
  0
LINE
  5
2DD
  8
0
 10
10.092849
 20
9.268561
 30
0.0
 11
10.092849
 21
9.308239
 31
0.0
  0
LINE
  5
2DE
  8
0
 10
10.092849
 20
9.308239
 30
0.0
 11
10.092849
 21
10.609852
 31
0.0
  0
LINE
  5
2DF
  8
0
 10
10.092849
 20
10.609852
 30
0.0
 11
10.092849
 21
10.808239
 31
0.0
  0
LINE
  5
2E0
  8
0
 10
10.092849
 20
10.808239
 30
0.0
 11
10.092849
 21
11.068561
 31
0.0
  0
LINE
  5
2E1
  8
0
 10
10.092849
 20
11.068561
 30
0.0
 11
10.092849
 21
11.108239
 31
0.0
  0
LINE
  5
2E2
  8
0
 10
10.092849
 20
11.108239
 30
0.0
 11
10.092849
 21
12.409852
 31
0.0
  0
LINE
  5
2E3
  8
0
 10
10.092849
 20
12.409852
 30
0.0
 11
10.092849
 21
12.608239
 31
0.0
  0
LINE
  5
2E4
  8
0
 10
10.092849
 20
12.608239
 30
0.0
 11
10.092849
 21
12.868561
 31
0.0
  0
LINE
  5
2E5
  8
0
 10
10.092849
 20
12.868561
 30
0.0
 11
10.092849
 21
12.908239
 31
0.0
  0
LINE
  5
2E6
  8
0
 10
10.092849
 20
12.908239
 30
0.0
 11
10.092849
 21
14.209852
 31
0.0
  0
LINE
  5
2E7
  8
0
 10
10.092849
 20
14.209852
 30
0.0
 11
10.092849
 21
14.370677
 31
0.0
  0
LINE
  5
2E8
  8
0
 10
10.092849
 20
14.370677
 30
0.0
 11
10.092849
 21
14.631
 31
0.0
  0
LINE
  5
2E9
  8
0
 10
10.592849
 20
0.503
 30
0.0
 11
10.592849
 21
0.542677
 31
0.0
  0
LINE
  5
2EA
  8
0
 10
10.592849
 20
0.503
 30
0.0
 11
10.592849
 21
0.542677
 31
0.0
  0
LINE
  5
2EB
  8
0
 10
10.592849
 20
0.542677
 30
0.0
 11
10.592849
 21
1.609132
 31
0.0
  0
LINE
  5
2EC
  8
0
 10
10.592849
 20
1.609132
 30
0.0
 11
10.592849
 21
1.807519
 31
0.0
  0
LINE
  5
2ED
  8
0
 10
10.592849
 20
1.807519
 30
0.0
 11
10.592849
 21
2.067842
 31
0.0
  0
LINE
  5
2EE
  8
0
 10
10.592849
 20
2.067842
 30
0.0
 11
10.592849
 21
2.107519
 31
0.0
  0
LINE
  5
2EF
  8
0
 10
10.592849
 20
2.107519
 30
0.0
 11
10.592849
 21
3.409132
 31
0.0
  0
LINE
  5
2F0
  8
0
 10
10.592849
 20
3.409132
 30
0.0
 11
10.592849
 21
3.607519
 31
0.0
  0
LINE
  5
2F1
  8
0
 10
10.592849
 20
3.607519
 30
0.0
 11
10.592849
 21
3.867842
 31
0.0
  0
LINE
  5
2F2
  8
0
 10
10.592849
 20
3.867842
 30
0.0
 11
10.592849
 21
3.907519
 31
0.0
  0
LINE
  5
2F3
  8
0
 10
10.592849
 20
3.907519
 30
0.0
 11
10.592849
 21
5.209132
 31
0.0
  0
LINE
  5
2F4
  8
0
 10
10.592849
 20
5.209132
 30
0.0
 11
10.592849
 21
5.407519
 31
0.0
  0
LINE
  5
2F5
  8
0
 10
10.592849
 20
5.407519
 30
0.0
 11
10.592849
 21
5.667842
 31
0.0
  0
LINE
  5
2F6
  8
0
 10
10.592849
 20
5.667842
 30
0.0
 11
10.592849
 21
5.707519
 31
0.0
  0
LINE
  5
2F7
  8
0
 10
10.592849
 20
5.707519
 30
0.0
 11
10.592849
 21
7.009132
 31
0.0
  0
LINE
  5
2F8
  8
0
 10
10.592849
 20
7.009132
 30
0.0
 11
10.592849
 21
7.207519
 31
0.0
  0
LINE
  5
2F9
  8
0
 10
10.592849
 20
7.207519
 30
0.0
 11
10.592849
 21
7.467842
 31
0.0
  0
LINE
  5
2FA
  8
0
 10
10.592849
 20
7.467842
 30
0.0
 11
10.592849
 21
7.507519
 31
0.0
  0
LINE
  5
2FB
  8
0
 10
10.592849
 20
7.507519
 30
0.0
 11
10.592849
 21
8.809132
 31
0.0
  0
LINE
  5
2FC
  8
0
 10
10.592849
 20
8.809132
 30
0.0
 11
10.592849
 21
9.007519
 31
0.0
  0
LINE
  5
2FD
  8
0
 10
10.592849
 20
9.007519
 30
0.0
 11
10.592849
 21
9.267842
 31
0.0
  0
LINE
  5
2FE
  8
0
 10
10.592849
 20
9.267842
 30
0.0
 11
10.592849
 21
9.307519
 31
0.0
  0
LINE
  5
2FF
  8
0
 10
10.592849
 20
9.307519
 30
0.0
 11
10.592849
 21
10.609132
 31
0.0
  0
LINE
  5
300
  8
0
 10
10.592849
 20
10.609132
 30
0.0
 11
10.592849
 21
10.807519
 31
0.0
  0
LINE
  5
301
  8
0
 10
10.592849
 20
10.807519
 30
0.0
 11
10.592849
 21
11.067842
 31
0.0
  0
LINE
  5
302
  8
0
 10
10.592849
 20
11.067842
 30
0.0
 11
10.592849
 21
11.107519
 31
0.0
  0
LINE
  5
303
  8
0
 10
10.592849
 20
11.107519
 30
0.0
 11
10.592849
 21
12.409132
 31
0.0
  0
LINE
  5
304
  8
0
 10
10.592849
 20
12.409132
 30
0.0
 11
10.592849
 21
12.607519
 31
0.0
  0
LINE
  5
305
  8
0
 10
10.592849
 20
12.607519
 30
0.0
 11
10.592849
 21
12.867842
 31
0.0
  0
LINE
  5
306
  8
0
 10
10.592849
 20
12.867842
 30
0.0
 11
10.592849
 21
12.907519
 31
0.0
  0
LINE
  5
307
  8
0
 10
10.592849
 20
12.907519
 30
0.0
 11
10.592849
 21
14.209132
 31
0.0
  0
LINE
  5
308
  8
0
 10
10.592849
 20
14.209132
 30
0.0
 11
10.592849
 21
14.371677
 31
0.0
  0
LINE
  5
309
  8
0
 10
10.592849
 20
14.371677
 30
0.0
 11
10.592849
 21
14.632
 31
0.0
  0
LINE
  5
30A
  8
0
 10
11.092849
 20
0.491
 30
0.0
 11
11.092849
 21
0.530677
 31
0.0
  0
LINE
  5
30B
  8
0
 10
11.092849
 20
0.491
 30
0.0
 11
11.092849
 21
0.530677
 31
0.0
  0
LINE
  5
30C
  8
0
 10
11.092849
 20
0.530677
 30
0.0
 11
11.092849
 21
1.608413
 31
0.0
  0
LINE
  5
30D
  8
0
 10
11.092849
 20
1.608413
 30
0.0
 11
11.092849
 21
1.8068
 31
0.0
  0
LINE
  5
30E
  8
0
 10
11.092849
 20
1.8068
 30
0.0
 11
11.092849
 21
2.066255
 31
0.0
  0
LINE
  5
30F
  8
0
 10
11.092849
 20
2.066255
 30
0.0
 11
11.092849
 21
2.105932
 31
0.0
  0
LINE
  5
310
  8
0
 10
11.092849
 20
2.105932
 30
0.0
 11
11.092849
 21
3.408413
 31
0.0
  0
LINE
  5
311
  8
0
 10
11.092849
 20
3.408413
 30
0.0
 11
11.092849
 21
3.6068
 31
0.0
  0
LINE
  5
312
  8
0
 10
11.092849
 20
3.6068
 30
0.0
 11
11.092849
 21
3.866255
 31
0.0
  0
LINE
  5
313
  8
0
 10
11.092849
 20
3.866255
 30
0.0
 11
11.092849
 21
3.905932
 31
0.0
  0
LINE
  5
314
  8
0
 10
11.092849
 20
3.905932
 30
0.0
 11
11.092849
 21
5.208413
 31
0.0
  0
LINE
  5
315
  8
0
 10
11.092849
 20
5.208413
 30
0.0
 11
11.092849
 21
5.4068
 31
0.0
  0
LINE
  5
316
  8
0
 10
11.092849
 20
5.4068
 30
0.0
 11
11.092849
 21
5.666255
 31
0.0
  0
LINE
  5
317
  8
0
 10
11.092849
 20
5.666255
 30
0.0
 11
11.092849
 21
5.705932
 31
0.0
  0
LINE
  5
318
  8
0
 10
11.092849
 20
5.705932
 30
0.0
 11
11.092849
 21
7.008413
 31
0.0
  0
LINE
  5
319
  8
0
 10
11.092849
 20
7.008413
 30
0.0
 11
11.092849
 21
7.2068
 31
0.0
  0
LINE
  5
31A
  8
0
 10
11.092849
 20
7.2068
 30
0.0
 11
11.092849
 21
7.466255
 31
0.0
  0
LINE
  5
31B
  8
0
 10
11.092849
 20
7.466255
 30
0.0
 11
11.092849
 21
7.505932
 31
0.0
  0
LINE
  5
31C
  8
0
 10
11.092849
 20
7.505932
 30
0.0
 11
11.092849
 21
8.808413
 31
0.0
  0
LINE
  5
31D
  8
0
 10
11.092849
 20
8.808413
 30
0.0
 11
11.092849
 21
9.0068
 31
0.0
  0
LINE
  5
31E
  8
0
 10
11.092849
 20
9.0068
 30
0.0
 11
11.092849
 21
9.266255
 31
0.0
  0
LINE
  5
31F
  8
0
 10
11.092849
 20
9.266255
 30
0.0
 11
11.092849
 21
9.305932
 31
0.0
  0
LINE
  5
320
  8
0
 10
11.092849
 20
9.305932
 30
0.0
 11
11.092849
 21
10.608413
 31
0.0
  0
LINE
  5
321
  8
0
 10
11.092849
 20
10.608413
 30
0.0
 11
11.092849
 21
10.8068
 31
0.0
  0
LINE
  5
322
  8
0
 10
11.092849
 20
10.8068
 30
0.0
 11
11.092849
 21
11.066255
 31
0.0
  0
LINE
  5
323
  8
0
 10
11.092849
 20
11.066255
 30
0.0
 11
11.092849
 21
11.105932
 31
0.0
  0
LINE
  5
324
  8
0
 10
11.092849
 20
11.105932
 30
0.0
 11
11.092849
 21
12.408413
 31
0.0
  0
LINE
  5
325
  8
0
 10
11.092849
 20
12.408413
 30
0.0
 11
11.092849
 21
12.6068
 31
0.0
  0
LINE
  5
326
  8
0
 10
11.092849
 20
12.6068
 30
0.0
 11
11.092849
 21
12.866255
 31
0.0
  0
LINE
  5
327
  8
0
 10
11.092849
 20
12.866255
 30
0.0
 11
11.092849
 21
12.905932
 31
0.0
  0
LINE
  5
328
  8
0
 10
11.092849
 20
12.905932
 30
0.0
 11
11.092849
 21
14.208413
 31
0.0
  0
LINE
  5
329
  8
0
 10
11.092849
 20
14.208413
 30
0.0
 11
11.092849
 21
14.372677
 31
0.0
  0
LINE
  5
32A
  8
0
 10
11.092849
 20
14.372677
 30
0.0
 11
11.092849
 21
14.633
 31
0.0
  0
LINE
  5
32B
  8
0
 10
11.592849
 20
0.479
 30
0.0
 11
11.592849
 21
0.518677
 31
0.0
  0
LINE
  5
32C
  8
0
 10
11.592849
 20
0.479
 30
0.0
 11
11.592849
 21
0.518677
 31
0.0
  0
LINE
  5
32D
  8
0
 10
11.592849
 20
0.518677
 30
0.0
 11
11.592849
 21
1.606826
 31
0.0
  0
LINE
  5
32E
  8
0
 10
11.592849
 20
1.606826
 30
0.0
 11
11.592849
 21
1.805213
 31
0.0
  0
LINE
  5
32F
  8
0
 10
11.592849
 20
1.805213
 30
0.0
 11
11.592849
 21
2.065535
 31
0.0
  0
LINE
  5
330
  8
0
 10
11.592849
 20
2.065535
 30
0.0
 11
11.592849
 21
2.105213
 31
0.0
  0
LINE
  5
331
  8
0
 10
11.592849
 20
2.105213
 30
0.0
 11
11.592849
 21
3.406826
 31
0.0
  0
LINE
  5
332
  8
0
 10
11.592849
 20
3.406826
 30
0.0
 11
11.592849
 21
3.605213
 31
0.0
  0
LINE
  5
333
  8
0
 10
11.592849
 20
3.605213
 30
0.0
 11
11.592849
 21
3.865535
 31
0.0
  0
LINE
  5
334
  8
0
 10
11.592849
 20
3.865535
 30
0.0
 11
11.592849
 21
3.905213
 31
0.0
  0
LINE
  5
335
  8
0
 10
11.592849
 20
3.905213
 30
0.0
 11
11.592849
 21
5.206826
 31
0.0
  0
LINE
  5
336
  8
0
 10
11.592849
 20
5.206826
 30
0.0
 11
11.592849
 21
5.405213
 31
0.0
  0
LINE
  5
337
  8
0
 10
11.592849
 20
5.405213
 30
0.0
 11
11.592849
 21
5.665535
 31
0.0
  0
LINE
  5
338
  8
0
 10
11.592849
 20
5.665535
 30
0.0
 11
11.592849
 21
5.705213
 31
0.0
  0
LINE
  5
339
  8
0
 10
11.592849
 20
5.705213
 30
0.0
 11
11.592849
 21
7.006826
 31
0.0
  0
LINE
  5
33A
  8
0
 10
11.592849
 20
7.006826
 30
0.0
 11
11.592849
 21
7.205213
 31
0.0
  0
LINE
  5
33B
  8
0
 10
11.592849
 20
7.205213
 30
0.0
 11
11.592849
 21
7.465535
 31
0.0
  0
LINE
  5
33C
  8
0
 10
11.592849
 20
7.465535
 30
0.0
 11
11.592849
 21
7.505213
 31
0.0
  0
LINE
  5
33D
  8
0
 10
11.592849
 20
7.505213
 30
0.0
 11
11.592849
 21
8.806826
 31
0.0
  0
LINE
  5
33E
  8
0
 10
11.592849
 20
8.806826
 30
0.0
 11
11.592849
 21
9.005213
 31
0.0
  0
LINE
  5
33F
  8
0
 10
11.592849
 20
9.005213
 30
0.0
 11
11.592849
 21
9.265535
 31
0.0
  0
LINE
  5
340
  8
0
 10
11.592849
 20
9.265535
 30
0.0
 11
11.592849
 21
9.305213
 31
0.0
  0
LINE
  5
341
  8
0
 10
11.592849
 20
9.305213
 30
0.0
 11
11.592849
 21
10.606826
 31
0.0
  0
LINE
  5
342
  8
0
 10
11.592849
 20
10.606826
 30
0.0
 11
11.592849
 21
10.805213
 31
0.0
  0
LINE
  5
343
  8
0
 10
11.592849
 20
10.805213
 30
0.0
 11
11.592849
 21
11.065535
 31
0.0
  0
LINE
  5
344
  8
0
 10
11.592849
 20
11.065535
 30
0.0
 11
11.592849
 21
11.105213
 31
0.0
  0
LINE
  5
345
  8
0
 10
11.592849
 20
11.105213
 30
0.0
 11
11.592849
 21
12.406826
 31
0.0
  0
LINE
  5
346
  8
0
 10
11.592849
 20
12.406826
 30
0.0
 11
11.592849
 21
12.605213
 31
0.0
  0
LINE
  5
347
  8
0
 10
11.592849
 20
12.605213
 30
0.0
 11
11.592849
 21
12.865535
 31
0.0
  0
LINE
  5
348
  8
0
 10
11.592849
 20
12.865535
 30
0.0
 11
11.592849
 21
12.905213
 31
0.0
  0
LINE
  5
349
  8
0
 10
11.592849
 20
12.905213
 30
0.0
 11
11.592849
 21
14.206826
 31
0.0
  0
LINE
  5
34A
  8
0
 10
11.592849
 20
14.206826
 30
0.0
 11
11.592849
 21
14.372677
 31
0.0
  0
LINE
  5
34B
  8
0
 10
11.592849
 20
14.372677
 30
0.0
 11
11.592849
 21
14.633
 31
0.0
  0
LINE
  5
34C
  8
0
 10
12.092849
 20
0.467
 30
0.0
 11
12.092849
 21
0.506677
 31
0.0
  0
LINE
  5
34D
  8
0
 10
12.092849
 20
0.467
 30
0.0
 11
12.092849
 21
0.506677
 31
0.0
  0
LINE
  5
34E
  8
0
 10
12.092849
 20
0.506677
 30
0.0
 11
12.092849
 21
1.606106
 31
0.0
  0
LINE
  5
34F
  8
0
 10
12.092849
 20
1.606106
 30
0.0
 11
12.092849
 21
1.804494
 31
0.0
  0
LINE
  5
350
  8
0
 10
12.092849
 20
1.804494
 30
0.0
 11
12.092849
 21
2.064816
 31
0.0
  0
LINE
  5
351
  8
0
 10
12.092849
 20
2.064816
 30
0.0
 11
12.092849
 21
2.104494
 31
0.0
  0
LINE
  5
352
  8
0
 10
12.092849
 20
2.104494
 30
0.0
 11
12.092849
 21
3.406106
 31
0.0
  0
LINE
  5
353
  8
0
 10
12.092849
 20
3.406106
 30
0.0
 11
12.092849
 21
3.604494
 31
0.0
  0
LINE
  5
354
  8
0
 10
12.092849
 20
3.604494
 30
0.0
 11
12.092849
 21
3.864816
 31
0.0
  0
LINE
  5
355
  8
0
 10
12.092849
 20
3.864816
 30
0.0
 11
12.092849
 21
3.904494
 31
0.0
  0
LINE
  5
356
  8
0
 10
12.092849
 20
3.904494
 30
0.0
 11
12.092849
 21
5.206106
 31
0.0
  0
LINE
  5
357
  8
0
 10
12.092849
 20
5.206106
 30
0.0
 11
12.092849
 21
5.404494
 31
0.0
  0
LINE
  5
358
  8
0
 10
12.092849
 20
5.404494
 30
0.0
 11
12.092849
 21
5.664816
 31
0.0
  0
LINE
  5
359
  8
0
 10
12.092849
 20
5.664816
 30
0.0
 11
12.092849
 21
5.704494
 31
0.0
  0
LINE
  5
35A
  8
0
 10
12.092849
 20
5.704494
 30
0.0
 11
12.092849
 21
7.006106
 31
0.0
  0
LINE
  5
35B
  8
0
 10
12.092849
 20
7.006106
 30
0.0
 11
12.092849
 21
7.204494
 31
0.0
  0
LINE
  5
35C
  8
0
 10
12.092849
 20
7.204494
 30
0.0
 11
12.092849
 21
7.464816
 31
0.0
  0
LINE
  5
35D
  8
0
 10
12.092849
 20
7.464816
 30
0.0
 11
12.092849
 21
7.504494
 31
0.0
  0
LINE
  5
35E
  8
0
 10
12.092849
 20
7.504494
 30
0.0
 11
12.092849
 21
8.806106
 31
0.0
  0
LINE
  5
35F
  8
0
 10
12.092849
 20
8.806106
 30
0.0
 11
12.092849
 21
9.004494
 31
0.0
  0
LINE
  5
360
  8
0
 10
12.092849
 20
9.004494
 30
0.0
 11
12.092849
 21
9.264816
 31
0.0
  0
LINE
  5
361
  8
0
 10
12.092849
 20
9.264816
 30
0.0
 11
12.092849
 21
9.304494
 31
0.0
  0
LINE
  5
362
  8
0
 10
12.092849
 20
9.304494
 30
0.0
 11
12.092849
 21
10.606106
 31
0.0
  0
LINE
  5
363
  8
0
 10
12.092849
 20
10.606106
 30
0.0
 11
12.092849
 21
10.804494
 31
0.0
  0
LINE
  5
364
  8
0
 10
12.092849
 20
10.804494
 30
0.0
 11
12.092849
 21
11.064816
 31
0.0
  0
LINE
  5
365
  8
0
 10
12.092849
 20
11.064816
 30
0.0
 11
12.092849
 21
11.104494
 31
0.0
  0
LINE
  5
366
  8
0
 10
12.092849
 20
11.104494
 30
0.0
 11
12.092849
 21
12.406106
 31
0.0
  0
LINE
  5
367
  8
0
 10
12.092849
 20
12.406106
 30
0.0
 11
12.092849
 21
12.604494
 31
0.0
  0
LINE
  5
368
  8
0
 10
12.092849
 20
12.604494
 30
0.0
 11
12.092849
 21
12.864816
 31
0.0
  0
LINE
  5
369
  8
0
 10
12.092849
 20
12.864816
 30
0.0
 11
12.092849
 21
12.904494
 31
0.0
  0
LINE
  5
36A
  8
0
 10
12.092849
 20
12.904494
 30
0.0
 11
12.092849
 21
14.206106
 31
0.0
  0
LINE
  5
36B
  8
0
 10
12.092849
 20
14.206106
 30
0.0
 11
12.092849
 21
14.373677
 31
0.0
  0
LINE
  5
36C
  8
0
 10
12.092849
 20
14.373677
 30
0.0
 11
12.092849
 21
14.634
 31
0.0
  0
LINE
  5
36D
  8
0
 10
12.592849
 20
0.455
 30
0.0
 11
12.592849
 21
0.494677
 31
0.0
  0
LINE
  5
36E
  8
0
 10
12.592849
 20
0.455
 30
0.0
 11
12.592849
 21
0.494677
 31
0.0
  0
LINE
  5
36F
  8
0
 10
12.592849
 20
0.494677
 30
0.0
 11
12.592849
 21
1.605387
 31
0.0
  0
LINE
  5
370
  8
0
 10
12.592849
 20
1.605387
 30
0.0
 11
12.592849
 21
1.803774
 31
0.0
  0
LINE
  5
371
  8
0
 10
12.592849
 20
1.803774
 30
0.0
 11
12.592849
 21
2.064097
 31
0.0
  0
LINE
  5
372
  8
0
 10
12.592849
 20
2.064097
 30
0.0
 11
12.592849
 21
2.103774
 31
0.0
  0
LINE
  5
373
  8
0
 10
12.592849
 20
2.103774
 30
0.0
 11
12.592849
 21
3.405387
 31
0.0
  0
LINE
  5
374
  8
0
 10
12.592849
 20
3.405387
 30
0.0
 11
12.592849
 21
3.603774
 31
0.0
  0
LINE
  5
375
  8
0
 10
12.592849
 20
3.603774
 30
0.0
 11
12.592849
 21
3.864097
 31
0.0
  0
LINE
  5
376
  8
0
 10
12.592849
 20
3.864097
 30
0.0
 11
12.592849
 21
3.903774
 31
0.0
  0
LINE
  5
377
  8
0
 10
12.592849
 20
3.903774
 30
0.0
 11
12.592849
 21
5.205387
 31
0.0
  0
LINE
  5
378
  8
0
 10
12.592849
 20
5.205387
 30
0.0
 11
12.592849
 21
5.403774
 31
0.0
  0
LINE
  5
379
  8
0
 10
12.592849
 20
5.403774
 30
0.0
 11
12.592849
 21
5.664097
 31
0.0
  0
LINE
  5
37A
  8
0
 10
12.592849
 20
5.664097
 30
0.0
 11
12.592849
 21
5.703774
 31
0.0
  0
LINE
  5
37B
  8
0
 10
12.592849
 20
5.703774
 30
0.0
 11
12.592849
 21
7.005387
 31
0.0
  0
LINE
  5
37C
  8
0
 10
12.592849
 20
7.005387
 30
0.0
 11
12.592849
 21
7.203774
 31
0.0
  0
LINE
  5
37D
  8
0
 10
12.592849
 20
7.203774
 30
0.0
 11
12.592849
 21
7.464097
 31
0.0
  0
LINE
  5
37E
  8
0
 10
12.592849
 20
7.464097
 30
0.0
 11
12.592849
 21
7.503774
 31
0.0
  0
LINE
  5
37F
  8
0
 10
12.592849
 20
7.503774
 30
0.0
 11
12.592849
 21
8.805387
 31
0.0
  0
LINE
  5
380
  8
0
 10
12.592849
 20
8.805387
 30
0.0
 11
12.592849
 21
9.003774
 31
0.0
  0
LINE
  5
381
  8
0
 10
12.592849
 20
9.003774
 30
0.0
 11
12.592849
 21
9.264097
 31
0.0
  0
LINE
  5
382
  8
0
 10
12.592849
 20
9.264097
 30
0.0
 11
12.592849
 21
9.303774
 31
0.0
  0
LINE
  5
383
  8
0
 10
12.592849
 20
9.303774
 30
0.0
 11
12.592849
 21
10.605387
 31
0.0
  0
LINE
  5
384
  8
0
 10
12.592849
 20
10.605387
 30
0.0
 11
12.592849
 21
10.803774
 31
0.0
  0
LINE
  5
385
  8
0
 10
12.592849
 20
10.803774
 30
0.0
 11
12.592849
 21
11.064097
 31
0.0
  0
LINE
  5
386
  8
0
 10
12.592849
 20
11.064097
 30
0.0
 11
12.592849
 21
11.103774
 31
0.0
  0
LINE
  5
387
  8
0
 10
12.592849
 20
11.103774
 30
0.0
 11
12.592849
 21
12.405387
 31
0.0
  0
LINE
  5
388
  8
0
 10
12.592849
 20
12.405387
 30
0.0
 11
12.592849
 21
12.603774
 31
0.0
  0
LINE
  5
389
  8
0
 10
12.592849
 20
12.603774
 30
0.0
 11
12.592849
 21
12.864097
 31
0.0
  0
LINE
  5
38A
  8
0
 10
12.592849
 20
12.864097
 30
0.0
 11
12.592849
 21
12.903774
 31
0.0
  0
LINE
  5
38B
  8
0
 10
12.592849
 20
12.903774
 30
0.0
 11
12.592849
 21
14.205387
 31
0.0
  0
LINE
  5
38C
  8
0
 10
12.592849
 20
14.205387
 30
0.0
 11
12.592849
 21
14.374677
 31
0.0
  0
LINE
  5
38D
  8
0
 10
12.592849
 20
14.374677
 30
0.0
 11
12.592849
 21
14.635
 31
0.0
  0
LINE
  5
38E
  8
0
 10
13.092849
 20
0.455
 30
0.0
 11
13.092849
 21
0.494677
 31
0.0
  0
LINE
  5
38F
  8
0
 10
13.092849
 20
0.455
 30
0.0
 11
13.092849
 21
0.494677
 31
0.0
  0
LINE
  5
390
  8
0
 10
13.092849
 20
0.494677
 30
0.0
 11
13.092849
 21
1.606255
 31
0.0
  0
LINE
  5
391
  8
0
 10
13.092849
 20
1.606255
 30
0.0
 11
13.092849
 21
1.804642
 31
0.0
  0
LINE
  5
392
  8
0
 10
13.092849
 20
1.804642
 30
0.0
 11
13.092849
 21
2.064097
 31
0.0
  0
LINE
  5
393
  8
0
 10
13.092849
 20
2.064097
 30
0.0
 11
13.092849
 21
2.103774
 31
0.0
  0
LINE
  5
394
  8
0
 10
13.092849
 20
2.103774
 30
0.0
 11
13.092849
 21
3.406255
 31
0.0
  0
LINE
  5
395
  8
0
 10
13.092849
 20
3.406255
 30
0.0
 11
13.092849
 21
3.604642
 31
0.0
  0
LINE
  5
396
  8
0
 10
13.092849
 20
3.604642
 30
0.0
 11
13.092849
 21
3.864097
 31
0.0
  0
LINE
  5
397
  8
0
 10
13.092849
 20
3.864097
 30
0.0
 11
13.092849
 21
3.903774
 31
0.0
  0
LINE
  5
398
  8
0
 10
13.092849
 20
3.903774
 30
0.0
 11
13.092849
 21
5.206255
 31
0.0
  0
LINE
  5
399
  8
0
 10
13.092849
 20
5.206255
 30
0.0
 11
13.092849
 21
5.404642
 31
0.0
  0
LINE
  5
39A
  8
0
 10
13.092849
 20
5.404642
 30
0.0
 11
13.092849
 21
5.664097
 31
0.0
  0
LINE
  5
39B
  8
0
 10
13.092849
 20
5.664097
 30
0.0
 11
13.092849
 21
5.703774
 31
0.0
  0
LINE
  5
39C
  8
0
 10
13.092849
 20
5.703774
 30
0.0
 11
13.092849
 21
7.006255
 31
0.0
  0
LINE
  5
39D
  8
0
 10
13.092849
 20
7.006255
 30
0.0
 11
13.092849
 21
7.204642
 31
0.0
  0
LINE
  5
39E
  8
0
 10
13.092849
 20
7.204642
 30
0.0
 11
13.092849
 21
7.464097
 31
0.0
  0
LINE
  5
39F
  8
0
 10
13.092849
 20
7.464097
 30
0.0
 11
13.092849
 21
7.503774
 31
0.0
  0
LINE
  5
3A0
  8
0
 10
13.092849
 20
7.503774
 30
0.0
 11
13.092849
 21
8.806255
 31
0.0
  0
LINE
  5
3A1
  8
0
 10
13.092849
 20
8.806255
 30
0.0
 11
13.092849
 21
9.004642
 31
0.0
  0
LINE
  5
3A2
  8
0
 10
13.092849
 20
9.004642
 30
0.0
 11
13.092849
 21
9.264097
 31
0.0
  0
LINE
  5
3A3
  8
0
 10
13.092849
 20
9.264097
 30
0.0
 11
13.092849
 21
9.303774
 31
0.0
  0
LINE
  5
3A4
  8
0
 10
13.092849
 20
9.303774
 30
0.0
 11
13.092849
 21
10.606255
 31
0.0
  0
LINE
  5
3A5
  8
0
 10
13.092849
 20
10.606255
 30
0.0
 11
13.092849
 21
10.804642
 31
0.0
  0
LINE
  5
3A6
  8
0
 10
13.092849
 20
10.804642
 30
0.0
 11
13.092849
 21
11.064097
 31
0.0
  0
LINE
  5
3A7
  8
0
 10
13.092849
 20
11.064097
 30
0.0
 11
13.092849
 21
11.103774
 31
0.0
  0
LINE
  5
3A8
  8
0
 10
13.092849
 20
11.103774
 30
0.0
 11
13.092849
 21
12.406255
 31
0.0
  0
LINE
  5
3A9
  8
0
 10
13.092849
 20
12.406255
 30
0.0
 11
13.092849
 21
12.604642
 31
0.0
  0
LINE
  5
3AA
  8
0
 10
13.092849
 20
12.604642
 30
0.0
 11
13.092849
 21
12.864097
 31
0.0
  0
LINE
  5
3AB
  8
0
 10
13.092849
 20
12.864097
 30
0.0
 11
13.092849
 21
12.903774
 31
0.0
  0
LINE
  5
3AC
  8
0
 10
13.092849
 20
12.903774
 30
0.0
 11
13.092849
 21
14.206255
 31
0.0
  0
LINE
  5
3AD
  8
0
 10
13.092849
 20
14.206255
 30
0.0
 11
13.092849
 21
14.375677
 31
0.0
  0
LINE
  5
3AE
  8
0
 10
13.092849
 20
14.375677
 30
0.0
 11
13.092849
 21
14.635132
 31
0.0
  0
LINE
  5
3AF
  8
0
 10
13.092849
 20
14.635132
 30
0.0
 11
13.092849
 21
14.636
 31
0.0
  0
LINE
  5
3B0
  8
0
 10
13.592849
 20
0.523
 30
0.0
 11
13.592849
 21
0.562677
 31
0.0
  0
LINE
  5
3B1
  8
0
 10
13.592849
 20
0.523
 30
0.0
 11
13.592849
 21
0.562677
 31
0.0
  0
LINE
  5
3B2
  8
0
 10
13.592849
 20
0.562677
 30
0.0
 11
13.592849
 21
1.615248
 31
0.0
  0
LINE
  5
3B3
  8
0
 10
13.592849
 20
1.615248
 30
0.0
 11
13.592849
 21
1.813635
 31
0.0
  0
LINE
  5
3B4
  8
0
 10
13.592849
 20
1.813635
 30
0.0
 11
13.592849
 21
2.073958
 31
0.0
  0
LINE
  5
3B5
  8
0
 10
13.592849
 20
2.073958
 30
0.0
 11
13.592849
 21
2.113635
 31
0.0
  0
LINE
  5
3B6
  8
0
 10
13.592849
 20
2.113635
 30
0.0
 11
13.592849
 21
3.415248
 31
0.0
  0
LINE
  5
3B7
  8
0
 10
13.592849
 20
3.415248
 30
0.0
 11
13.592849
 21
3.613635
 31
0.0
  0
LINE
  5
3B8
  8
0
 10
13.592849
 20
3.613635
 30
0.0
 11
13.592849
 21
3.873958
 31
0.0
  0
LINE
  5
3B9
  8
0
 10
13.592849
 20
3.873958
 30
0.0
 11
13.592849
 21
3.913635
 31
0.0
  0
LINE
  5
3BA
  8
0
 10
13.592849
 20
3.913635
 30
0.0
 11
13.592849
 21
5.215248
 31
0.0
  0
LINE
  5
3BB
  8
0
 10
13.592849
 20
5.215248
 30
0.0
 11
13.592849
 21
5.413635
 31
0.0
  0
LINE
  5
3BC
  8
0
 10
13.592849
 20
5.413635
 30
0.0
 11
13.592849
 21
5.673958
 31
0.0
  0
LINE
  5
3BD
  8
0
 10
13.592849
 20
5.673958
 30
0.0
 11
13.592849
 21
5.713635
 31
0.0
  0
LINE
  5
3BE
  8
0
 10
13.592849
 20
5.713635
 30
0.0
 11
13.592849
 21
7.015248
 31
0.0
  0
LINE
  5
3BF
  8
0
 10
13.592849
 20
7.015248
 30
0.0
 11
13.592849
 21
7.213635
 31
0.0
  0
LINE
  5
3C0
  8
0
 10
13.592849
 20
7.213635
 30
0.0
 11
13.592849
 21
7.473958
 31
0.0
  0
LINE
  5
3C1
  8
0
 10
13.592849
 20
7.473958
 30
0.0
 11
13.592849
 21
7.513635
 31
0.0
  0
LINE
  5
3C2
  8
0
 10
13.592849
 20
7.513635
 30
0.0
 11
13.592849
 21
8.815248
 31
0.0
  0
LINE
  5
3C3
  8
0
 10
13.592849
 20
8.815248
 30
0.0
 11
13.592849
 21
9.013635
 31
0.0
  0
LINE
  5
3C4
  8
0
 10
13.592849
 20
9.013635
 30
0.0
 11
13.592849
 21
9.273958
 31
0.0
  0
LINE
  5
3C5
  8
0
 10
13.592849
 20
9.273958
 30
0.0
 11
13.592849
 21
9.313635
 31
0.0
  0
LINE
  5
3C6
  8
0
 10
13.592849
 20
9.313635
 30
0.0
 11
13.592849
 21
10.615248
 31
0.0
  0
LINE
  5
3C7
  8
0
 10
13.592849
 20
10.615248
 30
0.0
 11
13.592849
 21
10.813635
 31
0.0
  0
LINE
  5
3C8
  8
0
 10
13.592849
 20
10.813635
 30
0.0
 11
13.592849
 21
11.073958
 31
0.0
  0
LINE
  5
3C9
  8
0
 10
13.592849
 20
11.073958
 30
0.0
 11
13.592849
 21
11.113635
 31
0.0
  0
LINE
  5
3CA
  8
0
 10
13.592849
 20
11.113635
 30
0.0
 11
13.592849
 21
12.415248
 31
0.0
  0
LINE
  5
3CB
  8
0
 10
13.592849
 20
12.415248
 30
0.0
 11
13.592849
 21
12.613635
 31
0.0
  0
LINE
  5
3CC
  8
0
 10
13.592849
 20
12.613635
 30
0.0
 11
13.592849
 21
12.873958
 31
0.0
  0
LINE
  5
3CD
  8
0
 10
13.592849
 20
12.873958
 30
0.0
 11
13.592849
 21
12.913635
 31
0.0
  0
LINE
  5
3CE
  8
0
 10
13.592849
 20
12.913635
 30
0.0
 11
13.592849
 21
14.215248
 31
0.0
  0
LINE
  5
3CF
  8
0
 10
13.592849
 20
14.215248
 30
0.0
 11
13.592849
 21
14.375677
 31
0.0
  0
LINE
  5
3D0
  8
0
 10
13.592849
 20
14.375677
 30
0.0
 11
13.592849
 21
14.636
 31
0.0
  0
LINE
  5
3D1
  8
0
 10
14.092849
 20
0.654
 30
0.0
 11
14.092849
 21
0.693677
 31
0.0
  0
LINE
  5
3D2
  8
0
 10
14.092849
 20
0.654
 30
0.0
 11
14.092849
 21
0.693677
 31
0.0
  0
LINE
  5
3D3
  8
0
 10
14.092849
 20
0.693677
 30
0.0
 11
14.092849
 21
1.633442
 31
0.0
  0
LINE
  5
3D4
  8
0
 10
14.092849
 20
1.633442
 30
0.0
 11
14.092849
 21
1.831829
 31
0.0
  0
LINE
  5
3D5
  8
0
 10
14.092849
 20
1.831829
 30
0.0
 11
14.092849
 21
2.092152
 31
0.0
  0
LINE
  5
3D6
  8
0
 10
14.092849
 20
2.092152
 30
0.0
 11
14.092849
 21
2.131829
 31
0.0
  0
LINE
  5
3D7
  8
0
 10
14.092849
 20
2.131829
 30
0.0
 11
14.092849
 21
3.433442
 31
0.0
  0
LINE
  5
3D8
  8
0
 10
14.092849
 20
3.433442
 30
0.0
 11
14.092849
 21
3.631829
 31
0.0
  0
LINE
  5
3D9
  8
0
 10
14.092849
 20
3.631829
 30
0.0
 11
14.092849
 21
3.892152
 31
0.0
  0
LINE
  5
3DA
  8
0
 10
14.092849
 20
3.892152
 30
0.0
 11
14.092849
 21
3.931829
 31
0.0
  0
LINE
  5
3DB
  8
0
 10
14.092849
 20
3.931829
 30
0.0
 11
14.092849
 21
5.233442
 31
0.0
  0
LINE
  5
3DC
  8
0
 10
14.092849
 20
5.233442
 30
0.0
 11
14.092849
 21
5.431829
 31
0.0
  0
LINE
  5
3DD
  8
0
 10
14.092849
 20
5.431829
 30
0.0
 11
14.092849
 21
5.692152
 31
0.0
  0
LINE
  5
3DE
  8
0
 10
14.092849
 20
5.692152
 30
0.0
 11
14.092849
 21
5.731829
 31
0.0
  0
LINE
  5
3DF
  8
0
 10
14.092849
 20
5.731829
 30
0.0
 11
14.092849
 21
7.033442
 31
0.0
  0
LINE
  5
3E0
  8
0
 10
14.092849
 20
7.033442
 30
0.0
 11
14.092849
 21
7.231829
 31
0.0
  0
LINE
  5
3E1
  8
0
 10
14.092849
 20
7.231829
 30
0.0
 11
14.092849
 21
7.492152
 31
0.0
  0
LINE
  5
3E2
  8
0
 10
14.092849
 20
7.492152
 30
0.0
 11
14.092849
 21
7.531829
 31
0.0
  0
LINE
  5
3E3
  8
0
 10
14.092849
 20
7.531829
 30
0.0
 11
14.092849
 21
8.833442
 31
0.0
  0
LINE
  5
3E4
  8
0
 10
14.092849
 20
8.833442
 30
0.0
 11
14.092849
 21
9.031829
 31
0.0
  0
LINE
  5
3E5
  8
0
 10
14.092849
 20
9.031829
 30
0.0
 11
14.092849
 21
9.292152
 31
0.0
  0
LINE
  5
3E6
  8
0
 10
14.092849
 20
9.292152
 30
0.0
 11
14.092849
 21
9.331829
 31
0.0
  0
LINE
  5
3E7
  8
0
 10
14.092849
 20
9.331829
 30
0.0
 11
14.092849
 21
10.633442
 31
0.0
  0
LINE
  5
3E8
  8
0
 10
14.092849
 20
10.633442
 30
0.0
 11
14.092849
 21
10.831829
 31
0.0
  0
LINE
  5
3E9
  8
0
 10
14.092849
 20
10.831829
 30
0.0
 11
14.092849
 21
11.092152
 31
0.0
  0
LINE
  5
3EA
  8
0
 10
14.092849
 20
11.092152
 30
0.0
 11
14.092849
 21
11.131829
 31
0.0
  0
LINE
  5
3EB
  8
0
 10
14.092849
 20
11.131829
 30
0.0
 11
14.092849
 21
12.433442
 31
0.0
  0
LINE
  5
3EC
  8
0
 10
14.092849
 20
12.433442
 30
0.0
 11
14.092849
 21
12.631829
 31
0.0
  0
LINE
  5
3ED
  8
0
 10
14.092849
 20
12.631829
 30
0.0
 11
14.092849
 21
12.892152
 31
0.0
  0
LINE
  5
3EE
  8
0
 10
14.092849
 20
12.892152
 30
0.0
 11
14.092849
 21
12.931829
 31
0.0
  0
LINE
  5
3EF
  8
0
 10
14.092849
 20
12.931829
 30
0.0
 11
14.092849
 21
14.233442
 31
0.0
  0
LINE
  5
3F0
  8
0
 10
14.092849
 20
14.233442
 30
0.0
 11
14.092849
 21
14.376677
 31
0.0
  0
LINE
  5
3F1
  8
0
 10
14.092849
 20
14.376677
 30
0.0
 11
14.092849
 21
14.637
 31
0.0
  0
LINE
  5
3F2
  8
0
 10
14.592849
 20
1.226
 30
0.0
 11
14.592849
 21
1.265677
 31
0.0
  0
LINE
  5
3F3
  8
0
 10
14.592849
 20
1.226
 30
0.0
 11
14.592849
 21
1.265677
 31
0.0
  0
LINE
  5
3F4
  8
0
 10
14.592849
 20
1.265677
 30
0.0
 11
14.592849
 21
1.709961
 31
0.0
  0
LINE
  5
3F5
  8
0
 10
14.592849
 20
1.709961
 30
0.0
 11
14.592849
 21
1.970284
 31
0.0
  0
LINE
  5
3F6
  8
0
 10
14.592849
 20
1.970284
 30
0.0
 11
14.592849
 21
2.168803
 31
0.0
  0
LINE
  5
3F7
  8
0
 10
14.592849
 20
2.168803
 30
0.0
 11
14.592849
 21
3.470416
 31
0.0
  0
LINE
  5
3F8
  8
0
 10
14.592849
 20
3.470416
 30
0.0
 11
14.592849
 21
3.509961
 31
0.0
  0
LINE
  5
3F9
  8
0
 10
14.592849
 20
3.509961
 30
0.0
 11
14.592849
 21
3.770284
 31
0.0
  0
LINE
  5
3FA
  8
0
 10
14.592849
 20
3.770284
 30
0.0
 11
14.592849
 21
3.968803
 31
0.0
  0
LINE
  5
3FB
  8
0
 10
14.592849
 20
3.968803
 30
0.0
 11
14.592849
 21
5.270416
 31
0.0
  0
LINE
  5
3FC
  8
0
 10
14.592849
 20
5.270416
 30
0.0
 11
14.592849
 21
5.309961
 31
0.0
  0
LINE
  5
3FD
  8
0
 10
14.592849
 20
5.309961
 30
0.0
 11
14.592849
 21
5.570284
 31
0.0
  0
LINE
  5
3FE
  8
0
 10
14.592849
 20
5.570284
 30
0.0
 11
14.592849
 21
5.768803
 31
0.0
  0
LINE
  5
3FF
  8
0
 10
14.592849
 20
5.768803
 30
0.0
 11
14.592849
 21
7.070416
 31
0.0
  0
LINE
  5
400
  8
0
 10
14.592849
 20
7.070416
 30
0.0
 11
14.592849
 21
7.109961
 31
0.0
  0
LINE
  5
401
  8
0
 10
14.592849
 20
7.109961
 30
0.0
 11
14.592849
 21
7.370284
 31
0.0
  0
LINE
  5
402
  8
0
 10
14.592849
 20
7.370284
 30
0.0
 11
14.592849
 21
7.568803
 31
0.0
  0
LINE
  5
403
  8
0
 10
14.592849
 20
7.568803
 30
0.0
 11
14.592849
 21
8.870416
 31
0.0
  0
LINE
  5
404
  8
0
 10
14.592849
 20
8.870416
 30
0.0
 11
14.592849
 21
8.909961
 31
0.0
  0
LINE
  5
405
  8
0
 10
14.592849
 20
8.909961
 30
0.0
 11
14.592849
 21
9.170284
 31
0.0
  0
LINE
  5
406
  8
0
 10
14.592849
 20
9.170284
 30
0.0
 11
14.592849
 21
9.368803
 31
0.0
  0
LINE
  5
407
  8
0
 10
14.592849
 20
9.368803
 30
0.0
 11
14.592849
 21
10.670416
 31
0.0
  0
LINE
  5
408
  8
0
 10
14.592849
 20
10.670416
 30
0.0
 11
14.592849
 21
10.709961
 31
0.0
  0
LINE
  5
409
  8
0
 10
14.592849
 20
10.709961
 30
0.0
 11
14.592849
 21
10.970284
 31
0.0
  0
LINE
  5
40A
  8
0
 10
14.592849
 20
10.970284
 30
0.0
 11
14.592849
 21
11.168803
 31
0.0
  0
LINE
  5
40B
  8
0
 10
14.592849
 20
11.168803
 30
0.0
 11
14.592849
 21
12.470416
 31
0.0
  0
LINE
  5
40C
  8
0
 10
14.592849
 20
12.470416
 30
0.0
 11
14.592849
 21
12.509961
 31
0.0
  0
LINE
  5
40D
  8
0
 10
14.592849
 20
12.509961
 30
0.0
 11
14.592849
 21
12.770284
 31
0.0
  0
LINE
  5
40E
  8
0
 10
14.592849
 20
12.770284
 30
0.0
 11
14.592849
 21
12.968803
 31
0.0
  0
LINE
  5
40F
  8
0
 10
14.592849
 20
12.968803
 30
0.0
 11
14.592849
 21
14.270416
 31
0.0
  0
LINE
  5
410
  8
0
 10
14.592849
 20
14.270416
 30
0.0
 11
14.592849
 21
14.309961
 31
0.0
  0
LINE
  5
411
  8
0
 10
14.592849
 20
14.309961
 30
0.0
 11
14.592849
 21
14.377677
 31
0.0
  0
LINE
  5
412
  8
0
 10
14.592849
 20
14.377677
 30
0.0
 11
14.592849
 21
14.638
 31
0.0
  0
LINE
  5
413
  8
0
 10
1.234
 20
0.592238
 30
0.0
 11
1.246825
 21
0.592238
 31
0.0
  0
LINE
  5
414
  8
0
 10
1.234
 20
0.592238
 30
0.0
 11
1.246825
 21
0.592238
 31
0.0
  0
LINE
  5
415
  8
0
 10
1.246825
 20
0.592238
 30
0.0
 11
1.50716
 21
0.592238
 31
0.0
  0
LINE
  5
416
  8
0
 10
1.50716
 20
0.592238
 30
0.0
 11
1.705539
 21
0.592238
 31
0.0
  0
LINE
  5
417
  8
0
 10
1.705539
 20
0.592238
 30
0.0
 11
3.007152
 21
0.592238
 31
0.0
  0
LINE
  5
418
  8
0
 10
3.007152
 20
0.592238
 30
0.0
 11
3.046829
 21
0.592238
 31
0.0
  0
LINE
  5
419
  8
0
 10
3.046829
 20
0.592238
 30
0.0
 11
3.307152
 21
0.592238
 31
0.0
  0
LINE
  5
41A
  8
0
 10
3.307152
 20
0.592238
 30
0.0
 11
3.505539
 21
0.592238
 31
0.0
  0
LINE
  5
41B
  8
0
 10
3.505539
 20
0.592238
 30
0.0
 11
4.807152
 21
0.592238
 31
0.0
  0
LINE
  5
41C
  8
0
 10
4.807152
 20
0.592238
 30
0.0
 11
4.846829
 21
0.592238
 31
0.0
  0
LINE
  5
41D
  8
0
 10
4.846829
 20
0.592238
 30
0.0
 11
5.107152
 21
0.592238
 31
0.0
  0
LINE
  5
41E
  8
0
 10
5.107152
 20
0.592238
 30
0.0
 11
5.305539
 21
0.592238
 31
0.0
  0
LINE
  5
41F
  8
0
 10
5.305539
 20
0.592238
 30
0.0
 11
6.607152
 21
0.592238
 31
0.0
  0
LINE
  5
420
  8
0
 10
6.607152
 20
0.592238
 30
0.0
 11
6.646829
 21
0.592238
 31
0.0
  0
LINE
  5
421
  8
0
 10
6.646829
 20
0.592238
 30
0.0
 11
6.907152
 21
0.592238
 31
0.0
  0
LINE
  5
422
  8
0
 10
6.907152
 20
0.592238
 30
0.0
 11
7.157929
 21
0.592238
 31
0.0
  0
LINE
  5
423
  8
0
 10
7.157929
 20
0.592238
 30
0.0
 11
7.417384
 21
0.592238
 31
0.0
  0
LINE
  5
424
  8
0
 10
7.417384
 20
0.592238
 30
0.0
 11
7.615771
 21
0.592238
 31
0.0
  0
LINE
  5
425
  8
0
 10
7.615771
 20
0.592238
 30
0.0
 11
8.918252
 21
0.592238
 31
0.0
  0
LINE
  5
426
  8
0
 10
8.918252
 20
0.592238
 30
0.0
 11
8.957929
 21
0.592238
 31
0.0
  0
LINE
  5
427
  8
0
 10
8.957929
 20
0.592238
 30
0.0
 11
9.217384
 21
0.592238
 31
0.0
  0
LINE
  5
428
  8
0
 10
9.217384
 20
0.592238
 30
0.0
 11
9.415771
 21
0.592238
 31
0.0
  0
LINE
  5
429
  8
0
 10
9.415771
 20
0.592238
 30
0.0
 11
10.718252
 21
0.592238
 31
0.0
  0
LINE
  5
42A
  8
0
 10
10.718252
 20
0.592238
 30
0.0
 11
10.757929
 21
0.592238
 31
0.0
  0
LINE
  5
42B
  8
0
 10
10.757929
 20
0.592238
 30
0.0
 11
11.017384
 21
0.592238
 31
0.0
  0
LINE
  5
42C
  8
0
 10
11.017384
 20
0.592238
 30
0.0
 11
11.215771
 21
0.592238
 31
0.0
  0
LINE
  5
42D
  8
0
 10
11.215771
 20
0.592238
 30
0.0
 11
12.518252
 21
0.592238
 31
0.0
  0
LINE
  5
42E
  8
0
 10
12.518252
 20
0.592238
 30
0.0
 11
12.557929
 21
0.592238
 31
0.0
  0
LINE
  5
42F
  8
0
 10
12.557929
 20
0.592238
 30
0.0
 11
12.817384
 21
0.592238
 31
0.0
  0
LINE
  5
430
  8
0
 10
12.817384
 20
0.592238
 30
0.0
 11
13.015771
 21
0.592238
 31
0.0
  0
LINE
  5
431
  8
0
 10
13.015771
 20
0.592238
 30
0.0
 11
13.891323
 21
0.592238
 31
0.0
  0
LINE
  5
432
  8
0
 10
13.891323
 20
0.592238
 30
0.0
 11
13.931
 21
0.592238
 31
0.0
  0
LINE
  5
433
  8
0
 10
0.651
 20
1.092238
 30
0.0
 11
0.911323
 21
1.092238
 31
0.0
  0
LINE
  5
434
  8
0
 10
0.651
 20
1.092238
 30
0.0
 11
0.911323
 21
1.092238
 31
0.0
  0
LINE
  5
435
  8
0
 10
0.911323
 20
1.092238
 30
0.0
 11
1.041729
 21
1.092238
 31
0.0
  0
LINE
  5
436
  8
0
 10
1.041729
 20
1.092238
 30
0.0
 11
2.34421
 21
1.092238
 31
0.0
  0
LINE
  5
437
  8
0
 10
2.34421
 20
1.092238
 30
0.0
 11
2.383887
 21
1.092238
 31
0.0
  0
LINE
  5
438
  8
0
 10
2.383887
 20
1.092238
 30
0.0
 11
2.643342
 21
1.092238
 31
0.0
  0
LINE
  5
439
  8
0
 10
2.643342
 20
1.092238
 30
0.0
 11
2.841729
 21
1.092238
 31
0.0
  0
LINE
  5
43A
  8
0
 10
2.841729
 20
1.092238
 30
0.0
 11
4.14421
 21
1.092238
 31
0.0
  0
LINE
  5
43B
  8
0
 10
4.14421
 20
1.092238
 30
0.0
 11
4.183887
 21
1.092238
 31
0.0
  0
LINE
  5
43C
  8
0
 10
4.183887
 20
1.092238
 30
0.0
 11
4.443342
 21
1.092238
 31
0.0
  0
LINE
  5
43D
  8
0
 10
4.443342
 20
1.092238
 30
0.0
 11
4.641729
 21
1.092238
 31
0.0
  0
LINE
  5
43E
  8
0
 10
4.641729
 20
1.092238
 30
0.0
 11
5.94421
 21
1.092238
 31
0.0
  0
LINE
  5
43F
  8
0
 10
5.94421
 20
1.092238
 30
0.0
 11
5.983887
 21
1.092238
 31
0.0
  0
LINE
  5
440
  8
0
 10
5.983887
 20
1.092238
 30
0.0
 11
6.243342
 21
1.092238
 31
0.0
  0
LINE
  5
441
  8
0
 10
6.243342
 20
1.092238
 30
0.0
 11
6.441729
 21
1.092238
 31
0.0
  0
LINE
  5
442
  8
0
 10
6.441729
 20
1.092238
 30
0.0
 11
7.74421
 21
1.092238
 31
0.0
  0
LINE
  5
443
  8
0
 10
7.74421
 20
1.092238
 30
0.0
 11
7.783887
 21
1.092238
 31
0.0
  0
LINE
  5
444
  8
0
 10
7.783887
 20
1.092238
 30
0.0
 11
8.043342
 21
1.092238
 31
0.0
  0
LINE
  5
445
  8
0
 10
8.043342
 20
1.092238
 30
0.0
 11
8.241729
 21
1.092238
 31
0.0
  0
LINE
  5
446
  8
0
 10
8.241729
 20
1.092238
 30
0.0
 11
9.54421
 21
1.092238
 31
0.0
  0
LINE
  5
447
  8
0
 10
9.54421
 20
1.092238
 30
0.0
 11
9.583887
 21
1.092238
 31
0.0
  0
LINE
  5
448
  8
0
 10
9.583887
 20
1.092238
 30
0.0
 11
9.843342
 21
1.092238
 31
0.0
  0
LINE
  5
449
  8
0
 10
9.843342
 20
1.092238
 30
0.0
 11
10.041729
 21
1.092238
 31
0.0
  0
LINE
  5
44A
  8
0
 10
10.041729
 20
1.092238
 30
0.0
 11
11.34421
 21
1.092238
 31
0.0
  0
LINE
  5
44B
  8
0
 10
11.34421
 20
1.092238
 30
0.0
 11
11.383887
 21
1.092238
 31
0.0
  0
LINE
  5
44C
  8
0
 10
11.383887
 20
1.092238
 30
0.0
 11
11.643342
 21
1.092238
 31
0.0
  0
LINE
  5
44D
  8
0
 10
11.643342
 20
1.092238
 30
0.0
 11
11.841729
 21
1.092238
 31
0.0
  0
LINE
  5
44E
  8
0
 10
11.841729
 20
1.092238
 30
0.0
 11
13.14421
 21
1.092238
 31
0.0
  0
LINE
  5
44F
  8
0
 10
13.14421
 20
1.092238
 30
0.0
 11
13.183887
 21
1.092238
 31
0.0
  0
LINE
  5
450
  8
0
 10
13.183887
 20
1.092238
 30
0.0
 11
13.443342
 21
1.092238
 31
0.0
  0
LINE
  5
451
  8
0
 10
13.443342
 20
1.092238
 30
0.0
 11
13.641729
 21
1.092238
 31
0.0
  0
LINE
  5
452
  8
0
 10
13.641729
 20
1.092238
 30
0.0
 11
14.497323
 21
1.092238
 31
0.0
  0
LINE
  5
453
  8
0
 10
14.497323
 20
1.092238
 30
0.0
 11
14.537
 21
1.092238
 31
0.0
  0
LINE
  5
454
  8
0
 10
0.519
 20
1.592238
 30
0.0
 11
0.779323
 21
1.592238
 31
0.0
  0
LINE
  5
455
  8
0
 10
0.519
 20
1.592238
 30
0.0
 11
0.779323
 21
1.592238
 31
0.0
  0
LINE
  5
456
  8
0
 10
0.779323
 20
1.592238
 30
0.0
 11
0.943984
 21
1.592238
 31
0.0
  0
LINE
  5
457
  8
0
 10
0.943984
 20
1.592238
 30
0.0
 11
2.245597
 21
1.592238
 31
0.0
  0
LINE
  5
458
  8
0
 10
2.245597
 20
1.592238
 30
0.0
 11
2.285274
 21
1.592238
 31
0.0
  0
LINE
  5
459
  8
0
 10
2.285274
 20
1.592238
 30
0.0
 11
2.545597
 21
1.592238
 31
0.0
  0
LINE
  5
45A
  8
0
 10
2.545597
 20
1.592238
 30
0.0
 11
2.743984
 21
1.592238
 31
0.0
  0
LINE
  5
45B
  8
0
 10
2.743984
 20
1.592238
 30
0.0
 11
4.045597
 21
1.592238
 31
0.0
  0
LINE
  5
45C
  8
0
 10
4.045597
 20
1.592238
 30
0.0
 11
4.085274
 21
1.592238
 31
0.0
  0
LINE
  5
45D
  8
0
 10
4.085274
 20
1.592238
 30
0.0
 11
4.345597
 21
1.592238
 31
0.0
  0
LINE
  5
45E
  8
0
 10
4.345597
 20
1.592238
 30
0.0
 11
4.543984
 21
1.592238
 31
0.0
  0
LINE
  5
45F
  8
0
 10
4.543984
 20
1.592238
 30
0.0
 11
5.845597
 21
1.592238
 31
0.0
  0
LINE
  5
460
  8
0
 10
5.845597
 20
1.592238
 30
0.0
 11
5.885274
 21
1.592238
 31
0.0
  0
LINE
  5
461
  8
0
 10
5.885274
 20
1.592238
 30
0.0
 11
6.145597
 21
1.592238
 31
0.0
  0
LINE
  5
462
  8
0
 10
6.145597
 20
1.592238
 30
0.0
 11
6.343984
 21
1.592238
 31
0.0
  0
LINE
  5
463
  8
0
 10
6.343984
 20
1.592238
 30
0.0
 11
7.645597
 21
1.592238
 31
0.0
  0
LINE
  5
464
  8
0
 10
7.645597
 20
1.592238
 30
0.0
 11
7.685274
 21
1.592238
 31
0.0
  0
LINE
  5
465
  8
0
 10
7.685274
 20
1.592238
 30
0.0
 11
7.945597
 21
1.592238
 31
0.0
  0
LINE
  5
466
  8
0
 10
7.945597
 20
1.592238
 30
0.0
 11
8.143984
 21
1.592238
 31
0.0
  0
LINE
  5
467
  8
0
 10
8.143984
 20
1.592238
 30
0.0
 11
9.445597
 21
1.592238
 31
0.0
  0
LINE
  5
468
  8
0
 10
9.445597
 20
1.592238
 30
0.0
 11
9.485274
 21
1.592238
 31
0.0
  0
LINE
  5
469
  8
0
 10
9.485274
 20
1.592238
 30
0.0
 11
9.745597
 21
1.592238
 31
0.0
  0
LINE
  5
46A
  8
0
 10
9.745597
 20
1.592238
 30
0.0
 11
9.943984
 21
1.592238
 31
0.0
  0
LINE
  5
46B
  8
0
 10
9.943984
 20
1.592238
 30
0.0
 11
11.245597
 21
1.592238
 31
0.0
  0
LINE
  5
46C
  8
0
 10
11.245597
 20
1.592238
 30
0.0
 11
11.285274
 21
1.592238
 31
0.0
  0
LINE
  5
46D
  8
0
 10
11.285274
 20
1.592238
 30
0.0
 11
11.545597
 21
1.592238
 31
0.0
  0
LINE
  5
46E
  8
0
 10
11.545597
 20
1.592238
 30
0.0
 11
11.743984
 21
1.592238
 31
0.0
  0
LINE
  5
46F
  8
0
 10
11.743984
 20
1.592238
 30
0.0
 11
13.045597
 21
1.592238
 31
0.0
  0
LINE
  5
470
  8
0
 10
13.045597
 20
1.592238
 30
0.0
 11
13.085274
 21
1.592238
 31
0.0
  0
LINE
  5
471
  8
0
 10
13.085274
 20
1.592238
 30
0.0
 11
13.345597
 21
1.592238
 31
0.0
  0
LINE
  5
472
  8
0
 10
13.345597
 20
1.592238
 30
0.0
 11
13.543984
 21
1.592238
 31
0.0
  0
LINE
  5
473
  8
0
 10
13.543984
 20
1.592238
 30
0.0
 11
14.624323
 21
1.592238
 31
0.0
  0
LINE
  5
474
  8
0
 10
14.624323
 20
1.592238
 30
0.0
 11
14.664
 21
1.592238
 31
0.0
  0
LINE
  5
475
  8
0
 10
0.456
 20
2.092238
 30
0.0
 11
0.716323
 21
2.092238
 31
0.0
  0
LINE
  5
476
  8
0
 10
0.456
 20
2.092238
 30
0.0
 11
0.716323
 21
2.092238
 31
0.0
  0
LINE
  5
477
  8
0
 10
0.716323
 20
2.092238
 30
0.0
 11
0.897781
 21
2.092238
 31
0.0
  0
LINE
  5
478
  8
0
 10
0.897781
 20
2.092238
 30
0.0
 11
2.199394
 21
2.092238
 31
0.0
  0
LINE
  5
479
  8
0
 10
2.199394
 20
2.092238
 30
0.0
 11
2.239071
 21
2.092238
 31
0.0
  0
LINE
  5
47A
  8
0
 10
2.239071
 20
2.092238
 30
0.0
 11
2.499394
 21
2.092238
 31
0.0
  0
LINE
  5
47B
  8
0
 10
2.499394
 20
2.092238
 30
0.0
 11
2.697781
 21
2.092238
 31
0.0
  0
LINE
  5
47C
  8
0
 10
2.697781
 20
2.092238
 30
0.0
 11
3.999394
 21
2.092238
 31
0.0
  0
LINE
  5
47D
  8
0
 10
3.999394
 20
2.092238
 30
0.0
 11
4.039071
 21
2.092238
 31
0.0
  0
LINE
  5
47E
  8
0
 10
4.039071
 20
2.092238
 30
0.0
 11
4.299394
 21
2.092238
 31
0.0
  0
LINE
  5
47F
  8
0
 10
4.299394
 20
2.092238
 30
0.0
 11
4.497781
 21
2.092238
 31
0.0
  0
LINE
  5
480
  8
0
 10
4.497781
 20
2.092238
 30
0.0
 11
5.799394
 21
2.092238
 31
0.0
  0
LINE
  5
481
  8
0
 10
5.799394
 20
2.092238
 30
0.0
 11
5.839071
 21
2.092238
 31
0.0
  0
LINE
  5
482
  8
0
 10
5.839071
 20
2.092238
 30
0.0
 11
6.099394
 21
2.092238
 31
0.0
  0
LINE
  5
483
  8
0
 10
6.099394
 20
2.092238
 30
0.0
 11
6.297781
 21
2.092238
 31
0.0
  0
LINE
  5
484
  8
0
 10
6.297781
 20
2.092238
 30
0.0
 11
7.599394
 21
2.092238
 31
0.0
  0
LINE
  5
485
  8
0
 10
7.599394
 20
2.092238
 30
0.0
 11
7.639071
 21
2.092238
 31
0.0
  0
LINE
  5
486
  8
0
 10
7.639071
 20
2.092238
 30
0.0
 11
7.899394
 21
2.092238
 31
0.0
  0
LINE
  5
487
  8
0
 10
7.899394
 20
2.092238
 30
0.0
 11
8.097781
 21
2.092238
 31
0.0
  0
LINE
  5
488
  8
0
 10
8.097781
 20
2.092238
 30
0.0
 11
9.399394
 21
2.092238
 31
0.0
  0
LINE
  5
489
  8
0
 10
9.399394
 20
2.092238
 30
0.0
 11
9.439071
 21
2.092238
 31
0.0
  0
LINE
  5
48A
  8
0
 10
9.439071
 20
2.092238
 30
0.0
 11
9.699394
 21
2.092238
 31
0.0
  0
LINE
  5
48B
  8
0
 10
9.699394
 20
2.092238
 30
0.0
 11
9.897781
 21
2.092238
 31
0.0
  0
LINE
  5
48C
  8
0
 10
9.897781
 20
2.092238
 30
0.0
 11
11.199394
 21
2.092238
 31
0.0
  0
LINE
  5
48D
  8
0
 10
11.199394
 20
2.092238
 30
0.0
 11
11.239071
 21
2.092238
 31
0.0
  0
LINE
  5
48E
  8
0
 10
11.239071
 20
2.092238
 30
0.0
 11
11.499394
 21
2.092238
 31
0.0
  0
LINE
  5
48F
  8
0
 10
11.499394
 20
2.092238
 30
0.0
 11
11.697781
 21
2.092238
 31
0.0
  0
LINE
  5
490
  8
0
 10
11.697781
 20
2.092238
 30
0.0
 11
12.999394
 21
2.092238
 31
0.0
  0
LINE
  5
491
  8
0
 10
12.999394
 20
2.092238
 30
0.0
 11
13.039071
 21
2.092238
 31
0.0
  0
LINE
  5
492
  8
0
 10
13.039071
 20
2.092238
 30
0.0
 11
13.299394
 21
2.092238
 31
0.0
  0
LINE
  5
493
  8
0
 10
13.299394
 20
2.092238
 30
0.0
 11
13.497781
 21
2.092238
 31
0.0
  0
LINE
  5
494
  8
0
 10
13.497781
 20
2.092238
 30
0.0
 11
14.688323
 21
2.092238
 31
0.0
  0
LINE
  5
495
  8
0
 10
14.688323
 20
2.092238
 30
0.0
 11
14.728
 21
2.092238
 31
0.0
  0
LINE
  5
496
  8
0
 10
0.45
 20
2.592238
 30
0.0
 11
0.710323
 21
2.592238
 31
0.0
  0
LINE
  5
497
  8
0
 10
0.45
 20
2.592238
 30
0.0
 11
0.710323
 21
2.592238
 31
0.0
  0
LINE
  5
498
  8
0
 10
0.710323
 20
2.592238
 30
0.0
 11
0.894029
 21
2.592238
 31
0.0
  0
LINE
  5
499
  8
0
 10
0.894029
 20
2.592238
 30
0.0
 11
2.19651
 21
2.592238
 31
0.0
  0
LINE
  5
49A
  8
0
 10
2.19651
 20
2.592238
 30
0.0
 11
2.236187
 21
2.592238
 31
0.0
  0
LINE
  5
49B
  8
0
 10
2.236187
 20
2.592238
 30
0.0
 11
2.495642
 21
2.592238
 31
0.0
  0
LINE
  5
49C
  8
0
 10
2.495642
 20
2.592238
 30
0.0
 11
2.694029
 21
2.592238
 31
0.0
  0
LINE
  5
49D
  8
0
 10
2.694029
 20
2.592238
 30
0.0
 11
3.99651
 21
2.592238
 31
0.0
  0
LINE
  5
49E
  8
0
 10
3.99651
 20
2.592238
 30
0.0
 11
4.036187
 21
2.592238
 31
0.0
  0
LINE
  5
49F
  8
0
 10
4.036187
 20
2.592238
 30
0.0
 11
4.295642
 21
2.592238
 31
0.0
  0
LINE
  5
4A0
  8
0
 10
4.295642
 20
2.592238
 30
0.0
 11
4.494029
 21
2.592238
 31
0.0
  0
LINE
  5
4A1
  8
0
 10
4.494029
 20
2.592238
 30
0.0
 11
5.79651
 21
2.592238
 31
0.0
  0
LINE
  5
4A2
  8
0
 10
5.79651
 20
2.592238
 30
0.0
 11
5.836187
 21
2.592238
 31
0.0
  0
LINE
  5
4A3
  8
0
 10
5.836187
 20
2.592238
 30
0.0
 11
6.095642
 21
2.592238
 31
0.0
  0
LINE
  5
4A4
  8
0
 10
6.095642
 20
2.592238
 30
0.0
 11
6.294029
 21
2.592238
 31
0.0
  0
LINE
  5
4A5
  8
0
 10
6.294029
 20
2.592238
 30
0.0
 11
7.59651
 21
2.592238
 31
0.0
  0
LINE
  5
4A6
  8
0
 10
7.59651
 20
2.592238
 30
0.0
 11
7.636187
 21
2.592238
 31
0.0
  0
LINE
  5
4A7
  8
0
 10
7.636187
 20
2.592238
 30
0.0
 11
7.895642
 21
2.592238
 31
0.0
  0
LINE
  5
4A8
  8
0
 10
7.895642
 20
2.592238
 30
0.0
 11
8.094029
 21
2.592238
 31
0.0
  0
LINE
  5
4A9
  8
0
 10
8.094029
 20
2.592238
 30
0.0
 11
9.39651
 21
2.592238
 31
0.0
  0
LINE
  5
4AA
  8
0
 10
9.39651
 20
2.592238
 30
0.0
 11
9.436187
 21
2.592238
 31
0.0
  0
LINE
  5
4AB
  8
0
 10
9.436187
 20
2.592238
 30
0.0
 11
9.695642
 21
2.592238
 31
0.0
  0
LINE
  5
4AC
  8
0
 10
9.695642
 20
2.592238
 30
0.0
 11
9.894029
 21
2.592238
 31
0.0
  0
LINE
  5
4AD
  8
0
 10
9.894029
 20
2.592238
 30
0.0
 11
11.19651
 21
2.592238
 31
0.0
  0
LINE
  5
4AE
  8
0
 10
11.19651
 20
2.592238
 30
0.0
 11
11.236187
 21
2.592238
 31
0.0
  0
LINE
  5
4AF
  8
0
 10
11.236187
 20
2.592238
 30
0.0
 11
11.495642
 21
2.592238
 31
0.0
  0
LINE
  5
4B0
  8
0
 10
11.495642
 20
2.592238
 30
0.0
 11
11.694029
 21
2.592238
 31
0.0
  0
LINE
  5
4B1
  8
0
 10
11.694029
 20
2.592238
 30
0.0
 11
12.99651
 21
2.592238
 31
0.0
  0
LINE
  5
4B2
  8
0
 10
12.99651
 20
2.592238
 30
0.0
 11
13.036187
 21
2.592238
 31
0.0
  0
LINE
  5
4B3
  8
0
 10
13.036187
 20
2.592238
 30
0.0
 11
13.295642
 21
2.592238
 31
0.0
  0
LINE
  5
4B4
  8
0
 10
13.295642
 20
2.592238
 30
0.0
 11
13.494029
 21
2.592238
 31
0.0
  0
LINE
  5
4B5
  8
0
 10
13.494029
 20
2.592238
 30
0.0
 11
14.699323
 21
2.592238
 31
0.0
  0
LINE
  5
4B6
  8
0
 10
14.699323
 20
2.592238
 30
0.0
 11
14.739
 21
2.592238
 31
0.0
  0
LINE
  5
4B7
  8
0
 10
0.463
 20
3.092238
 30
0.0
 11
0.723323
 21
3.092238
 31
0.0
  0
LINE
  5
4B8
  8
0
 10
0.463
 20
3.092238
 30
0.0
 11
0.723323
 21
3.092238
 31
0.0
  0
LINE
  5
4B9
  8
0
 10
0.723323
 20
3.092238
 30
0.0
 11
0.903061
 21
3.092238
 31
0.0
  0
LINE
  5
4BA
  8
0
 10
0.903061
 20
3.092238
 30
0.0
 11
2.204674
 21
3.092238
 31
0.0
  0
LINE
  5
4BB
  8
0
 10
2.204674
 20
3.092238
 30
0.0
 11
2.244352
 21
3.092238
 31
0.0
  0
LINE
  5
4BC
  8
0
 10
2.244352
 20
3.092238
 30
0.0
 11
2.504674
 21
3.092238
 31
0.0
  0
LINE
  5
4BD
  8
0
 10
2.504674
 20
3.092238
 30
0.0
 11
2.703061
 21
3.092238
 31
0.0
  0
LINE
  5
4BE
  8
0
 10
2.703061
 20
3.092238
 30
0.0
 11
4.004674
 21
3.092238
 31
0.0
  0
LINE
  5
4BF
  8
0
 10
4.004674
 20
3.092238
 30
0.0
 11
4.044352
 21
3.092238
 31
0.0
  0
LINE
  5
4C0
  8
0
 10
4.044352
 20
3.092238
 30
0.0
 11
4.304674
 21
3.092238
 31
0.0
  0
LINE
  5
4C1
  8
0
 10
4.304674
 20
3.092238
 30
0.0
 11
4.503061
 21
3.092238
 31
0.0
  0
LINE
  5
4C2
  8
0
 10
4.503061
 20
3.092238
 30
0.0
 11
5.804674
 21
3.092238
 31
0.0
  0
LINE
  5
4C3
  8
0
 10
5.804674
 20
3.092238
 30
0.0
 11
5.844352
 21
3.092238
 31
0.0
  0
LINE
  5
4C4
  8
0
 10
5.844352
 20
3.092238
 30
0.0
 11
6.104674
 21
3.092238
 31
0.0
  0
LINE
  5
4C5
  8
0
 10
6.104674
 20
3.092238
 30
0.0
 11
6.303061
 21
3.092238
 31
0.0
  0
LINE
  5
4C6
  8
0
 10
6.303061
 20
3.092238
 30
0.0
 11
7.604674
 21
3.092238
 31
0.0
  0
LINE
  5
4C7
  8
0
 10
7.604674
 20
3.092238
 30
0.0
 11
7.644352
 21
3.092238
 31
0.0
  0
LINE
  5
4C8
  8
0
 10
7.644352
 20
3.092238
 30
0.0
 11
7.904674
 21
3.092238
 31
0.0
  0
LINE
  5
4C9
  8
0
 10
7.904674
 20
3.092238
 30
0.0
 11
8.103061
 21
3.092238
 31
0.0
  0
LINE
  5
4CA
  8
0
 10
8.103061
 20
3.092238
 30
0.0
 11
9.404674
 21
3.092238
 31
0.0
  0
LINE
  5
4CB
  8
0
 10
9.404674
 20
3.092238
 30
0.0
 11
9.444352
 21
3.092238
 31
0.0
  0
LINE
  5
4CC
  8
0
 10
9.444352
 20
3.092238
 30
0.0
 11
9.704674
 21
3.092238
 31
0.0
  0
LINE
  5
4CD
  8
0
 10
9.704674
 20
3.092238
 30
0.0
 11
9.903061
 21
3.092238
 31
0.0
  0
LINE
  5
4CE
  8
0
 10
9.903061
 20
3.092238
 30
0.0
 11
11.204674
 21
3.092238
 31
0.0
  0
LINE
  5
4CF
  8
0
 10
11.204674
 20
3.092238
 30
0.0
 11
11.244352
 21
3.092238
 31
0.0
  0
LINE
  5
4D0
  8
0
 10
11.244352
 20
3.092238
 30
0.0
 11
11.504674
 21
3.092238
 31
0.0
  0
LINE
  5
4D1
  8
0
 10
11.504674
 20
3.092238
 30
0.0
 11
11.703061
 21
3.092238
 31
0.0
  0
LINE
  5
4D2
  8
0
 10
11.703061
 20
3.092238
 30
0.0
 11
13.004674
 21
3.092238
 31
0.0
  0
LINE
  5
4D3
  8
0
 10
13.004674
 20
3.092238
 30
0.0
 11
13.044352
 21
3.092238
 31
0.0
  0
LINE
  5
4D4
  8
0
 10
13.044352
 20
3.092238
 30
0.0
 11
13.304674
 21
3.092238
 31
0.0
  0
LINE
  5
4D5
  8
0
 10
13.304674
 20
3.092238
 30
0.0
 11
13.503061
 21
3.092238
 31
0.0
  0
LINE
  5
4D6
  8
0
 10
13.503061
 20
3.092238
 30
0.0
 11
14.682323
 21
3.092238
 31
0.0
  0
LINE
  5
4D7
  8
0
 10
14.682323
 20
3.092238
 30
0.0
 11
14.722
 21
3.092238
 31
0.0
  0
LINE
  5
4D8
  8
0
 10
0.476
 20
3.592238
 30
0.0
 11
0.736323
 21
3.592238
 31
0.0
  0
LINE
  5
4D9
  8
0
 10
0.476
 20
3.592238
 30
0.0
 11
0.736323
 21
3.592238
 31
0.0
  0
LINE
  5
4DA
  8
0
 10
0.736323
 20
3.592238
 30
0.0
 11
0.911961
 21
3.592238
 31
0.0
  0
LINE
  5
4DB
  8
0
 10
0.911961
 20
3.592238
 30
0.0
 11
2.213574
 21
3.592238
 31
0.0
  0
LINE
  5
4DC
  8
0
 10
2.213574
 20
3.592238
 30
0.0
 11
2.253252
 21
3.592238
 31
0.0
  0
LINE
  5
4DD
  8
0
 10
2.253252
 20
3.592238
 30
0.0
 11
2.513574
 21
3.592238
 31
0.0
  0
LINE
  5
4DE
  8
0
 10
2.513574
 20
3.592238
 30
0.0
 11
2.711961
 21
3.592238
 31
0.0
  0
LINE
  5
4DF
  8
0
 10
2.711961
 20
3.592238
 30
0.0
 11
4.013574
 21
3.592238
 31
0.0
  0
LINE
  5
4E0
  8
0
 10
4.013574
 20
3.592238
 30
0.0
 11
4.053252
 21
3.592238
 31
0.0
  0
LINE
  5
4E1
  8
0
 10
4.053252
 20
3.592238
 30
0.0
 11
4.313574
 21
3.592238
 31
0.0
  0
LINE
  5
4E2
  8
0
 10
4.313574
 20
3.592238
 30
0.0
 11
4.511961
 21
3.592238
 31
0.0
  0
LINE
  5
4E3
  8
0
 10
4.511961
 20
3.592238
 30
0.0
 11
5.813574
 21
3.592238
 31
0.0
  0
LINE
  5
4E4
  8
0
 10
5.813574
 20
3.592238
 30
0.0
 11
5.853252
 21
3.592238
 31
0.0
  0
LINE
  5
4E5
  8
0
 10
5.853252
 20
3.592238
 30
0.0
 11
6.113574
 21
3.592238
 31
0.0
  0
LINE
  5
4E6
  8
0
 10
6.113574
 20
3.592238
 30
0.0
 11
6.311961
 21
3.592238
 31
0.0
  0
LINE
  5
4E7
  8
0
 10
6.311961
 20
3.592238
 30
0.0
 11
7.613574
 21
3.592238
 31
0.0
  0
LINE
  5
4E8
  8
0
 10
7.613574
 20
3.592238
 30
0.0
 11
7.653252
 21
3.592238
 31
0.0
  0
LINE
  5
4E9
  8
0
 10
7.653252
 20
3.592238
 30
0.0
 11
7.913574
 21
3.592238
 31
0.0
  0
LINE
  5
4EA
  8
0
 10
7.913574
 20
3.592238
 30
0.0
 11
8.111961
 21
3.592238
 31
0.0
  0
LINE
  5
4EB
  8
0
 10
8.111961
 20
3.592238
 30
0.0
 11
9.413574
 21
3.592238
 31
0.0
  0
LINE
  5
4EC
  8
0
 10
9.413574
 20
3.592238
 30
0.0
 11
9.453252
 21
3.592238
 31
0.0
  0
LINE
  5
4ED
  8
0
 10
9.453252
 20
3.592238
 30
0.0
 11
9.713574
 21
3.592238
 31
0.0
  0
LINE
  5
4EE
  8
0
 10
9.713574
 20
3.592238
 30
0.0
 11
9.911961
 21
3.592238
 31
0.0
  0
LINE
  5
4EF
  8
0
 10
9.911961
 20
3.592238
 30
0.0
 11
11.213574
 21
3.592238
 31
0.0
  0
LINE
  5
4F0
  8
0
 10
11.213574
 20
3.592238
 30
0.0
 11
11.253252
 21
3.592238
 31
0.0
  0
LINE
  5
4F1
  8
0
 10
11.253252
 20
3.592238
 30
0.0
 11
11.513574
 21
3.592238
 31
0.0
  0
LINE
  5
4F2
  8
0
 10
11.513574
 20
3.592238
 30
0.0
 11
11.711961
 21
3.592238
 31
0.0
  0
LINE
  5
4F3
  8
0
 10
11.711961
 20
3.592238
 30
0.0
 11
13.013574
 21
3.592238
 31
0.0
  0
LINE
  5
4F4
  8
0
 10
13.013574
 20
3.592238
 30
0.0
 11
13.053252
 21
3.592238
 31
0.0
  0
LINE
  5
4F5
  8
0
 10
13.053252
 20
3.592238
 30
0.0
 11
13.313574
 21
3.592238
 31
0.0
  0
LINE
  5
4F6
  8
0
 10
13.313574
 20
3.592238
 30
0.0
 11
13.511961
 21
3.592238
 31
0.0
  0
LINE
  5
4F7
  8
0
 10
13.511961
 20
3.592238
 30
0.0
 11
14.664323
 21
3.592238
 31
0.0
  0
LINE
  5
4F8
  8
0
 10
14.664323
 20
3.592238
 30
0.0
 11
14.704
 21
3.592238
 31
0.0
  0
LINE
  5
4F9
  8
0
 10
0.488
 20
4.092238
 30
0.0
 11
0.748323
 21
4.092238
 31
0.0
  0
LINE
  5
4FA
  8
0
 10
0.488
 20
4.092238
 30
0.0
 11
0.748323
 21
4.092238
 31
0.0
  0
LINE
  5
4FB
  8
0
 10
0.748323
 20
4.092238
 30
0.0
 11
0.920126
 21
4.092238
 31
0.0
  0
LINE
  5
4FC
  8
0
 10
0.920126
 20
4.092238
 30
0.0
 11
2.221739
 21
4.092238
 31
0.0
  0
LINE
  5
4FD
  8
0
 10
2.221739
 20
4.092238
 30
0.0
 11
2.261284
 21
4.092238
 31
0.0
  0
LINE
  5
4FE
  8
0
 10
2.261284
 20
4.092238
 30
0.0
 11
2.521606
 21
4.092238
 31
0.0
  0
LINE
  5
4FF
  8
0
 10
2.521606
 20
4.092238
 30
0.0
 11
2.720126
 21
4.092238
 31
0.0
  0
LINE
  5
500
  8
0
 10
2.720126
 20
4.092238
 30
0.0
 11
4.021739
 21
4.092238
 31
0.0
  0
LINE
  5
501
  8
0
 10
4.021739
 20
4.092238
 30
0.0
 11
4.061284
 21
4.092238
 31
0.0
  0
LINE
  5
502
  8
0
 10
4.061284
 20
4.092238
 30
0.0
 11
4.321606
 21
4.092238
 31
0.0
  0
LINE
  5
503
  8
0
 10
4.321606
 20
4.092238
 30
0.0
 11
4.520126
 21
4.092238
 31
0.0
  0
LINE
  5
504
  8
0
 10
4.520126
 20
4.092238
 30
0.0
 11
5.821739
 21
4.092238
 31
0.0
  0
LINE
  5
505
  8
0
 10
5.821739
 20
4.092238
 30
0.0
 11
5.861284
 21
4.092238
 31
0.0
  0
LINE
  5
506
  8
0
 10
5.861284
 20
4.092238
 30
0.0
 11
6.121606
 21
4.092238
 31
0.0
  0
LINE
  5
507
  8
0
 10
6.121606
 20
4.092238
 30
0.0
 11
6.320126
 21
4.092238
 31
0.0
  0
LINE
  5
508
  8
0
 10
6.320126
 20
4.092238
 30
0.0
 11
7.621739
 21
4.092238
 31
0.0
  0
LINE
  5
509
  8
0
 10
7.621739
 20
4.092238
 30
0.0
 11
7.661284
 21
4.092238
 31
0.0
  0
LINE
  5
50A
  8
0
 10
7.661284
 20
4.092238
 30
0.0
 11
7.921606
 21
4.092238
 31
0.0
  0
LINE
  5
50B
  8
0
 10
7.921606
 20
4.092238
 30
0.0
 11
8.120126
 21
4.092238
 31
0.0
  0
LINE
  5
50C
  8
0
 10
8.120126
 20
4.092238
 30
0.0
 11
9.421739
 21
4.092238
 31
0.0
  0
LINE
  5
50D
  8
0
 10
9.421739
 20
4.092238
 30
0.0
 11
9.461284
 21
4.092238
 31
0.0
  0
LINE
  5
50E
  8
0
 10
9.461284
 20
4.092238
 30
0.0
 11
9.721606
 21
4.092238
 31
0.0
  0
LINE
  5
50F
  8
0
 10
9.721606
 20
4.092238
 30
0.0
 11
9.920126
 21
4.092238
 31
0.0
  0
LINE
  5
510
  8
0
 10
9.920126
 20
4.092238
 30
0.0
 11
11.221739
 21
4.092238
 31
0.0
  0
LINE
  5
511
  8
0
 10
11.221739
 20
4.092238
 30
0.0
 11
11.261284
 21
4.092238
 31
0.0
  0
LINE
  5
512
  8
0
 10
11.261284
 20
4.092238
 30
0.0
 11
11.521606
 21
4.092238
 31
0.0
  0
LINE
  5
513
  8
0
 10
11.521606
 20
4.092238
 30
0.0
 11
11.720126
 21
4.092238
 31
0.0
  0
LINE
  5
514
  8
0
 10
11.720126
 20
4.092238
 30
0.0
 11
13.021739
 21
4.092238
 31
0.0
  0
LINE
  5
515
  8
0
 10
13.021739
 20
4.092238
 30
0.0
 11
13.061284
 21
4.092238
 31
0.0
  0
LINE
  5
516
  8
0
 10
13.061284
 20
4.092238
 30
0.0
 11
13.321606
 21
4.092238
 31
0.0
  0
LINE
  5
517
  8
0
 10
13.321606
 20
4.092238
 30
0.0
 11
13.520126
 21
4.092238
 31
0.0
  0
LINE
  5
518
  8
0
 10
13.520126
 20
4.092238
 30
0.0
 11
14.647323
 21
4.092238
 31
0.0
  0
LINE
  5
519
  8
0
 10
14.647323
 20
4.092238
 30
0.0
 11
14.687
 21
4.092238
 31
0.0
  0
LINE
  5
51A
  8
0
 10
0.501
 20
4.592238
 30
0.0
 11
0.761323
 21
4.592238
 31
0.0
  0
LINE
  5
51B
  8
0
 10
0.501
 20
4.592238
 30
0.0
 11
0.761323
 21
4.592238
 31
0.0
  0
LINE
  5
51C
  8
0
 10
0.761323
 20
4.592238
 30
0.0
 11
0.929026
 21
4.592238
 31
0.0
  0
LINE
  5
51D
  8
0
 10
0.929026
 20
4.592238
 30
0.0
 11
2.230639
 21
4.592238
 31
0.0
  0
LINE
  5
51E
  8
0
 10
2.230639
 20
4.592238
 30
0.0
 11
2.270316
 21
4.592238
 31
0.0
  0
LINE
  5
51F
  8
0
 10
2.270316
 20
4.592238
 30
0.0
 11
2.530639
 21
4.592238
 31
0.0
  0
LINE
  5
520
  8
0
 10
2.530639
 20
4.592238
 30
0.0
 11
2.729026
 21
4.592238
 31
0.0
  0
LINE
  5
521
  8
0
 10
2.729026
 20
4.592238
 30
0.0
 11
4.030639
 21
4.592238
 31
0.0
  0
LINE
  5
522
  8
0
 10
4.030639
 20
4.592238
 30
0.0
 11
4.070316
 21
4.592238
 31
0.0
  0
LINE
  5
523
  8
0
 10
4.070316
 20
4.592238
 30
0.0
 11
4.330639
 21
4.592238
 31
0.0
  0
LINE
  5
524
  8
0
 10
4.330639
 20
4.592238
 30
0.0
 11
4.529026
 21
4.592238
 31
0.0
  0
LINE
  5
525
  8
0
 10
4.529026
 20
4.592238
 30
0.0
 11
5.830639
 21
4.592238
 31
0.0
  0
LINE
  5
526
  8
0
 10
5.830639
 20
4.592238
 30
0.0
 11
5.870316
 21
4.592238
 31
0.0
  0
LINE
  5
527
  8
0
 10
5.870316
 20
4.592238
 30
0.0
 11
6.130639
 21
4.592238
 31
0.0
  0
LINE
  5
528
  8
0
 10
6.130639
 20
4.592238
 30
0.0
 11
6.329026
 21
4.592238
 31
0.0
  0
LINE
  5
529
  8
0
 10
6.329026
 20
4.592238
 30
0.0
 11
7.630639
 21
4.592238
 31
0.0
  0
LINE
  5
52A
  8
0
 10
7.630639
 20
4.592238
 30
0.0
 11
7.670316
 21
4.592238
 31
0.0
  0
LINE
  5
52B
  8
0
 10
7.670316
 20
4.592238
 30
0.0
 11
7.930639
 21
4.592238
 31
0.0
  0
LINE
  5
52C
  8
0
 10
7.930639
 20
4.592238
 30
0.0
 11
8.129026
 21
4.592238
 31
0.0
  0
LINE
  5
52D
  8
0
 10
8.129026
 20
4.592238
 30
0.0
 11
9.430639
 21
4.592238
 31
0.0
  0
LINE
  5
52E
  8
0
 10
9.430639
 20
4.592238
 30
0.0
 11
9.470316
 21
4.592238
 31
0.0
  0
LINE
  5
52F
  8
0
 10
9.470316
 20
4.592238
 30
0.0
 11
9.730639
 21
4.592238
 31
0.0
  0
LINE
  5
530
  8
0
 10
9.730639
 20
4.592238
 30
0.0
 11
9.929026
 21
4.592238
 31
0.0
  0
LINE
  5
531
  8
0
 10
9.929026
 20
4.592238
 30
0.0
 11
11.230639
 21
4.592238
 31
0.0
  0
LINE
  5
532
  8
0
 10
11.230639
 20
4.592238
 30
0.0
 11
11.270316
 21
4.592238
 31
0.0
  0
LINE
  5
533
  8
0
 10
11.270316
 20
4.592238
 30
0.0
 11
11.530639
 21
4.592238
 31
0.0
  0
LINE
  5
534
  8
0
 10
11.530639
 20
4.592238
 30
0.0
 11
11.729026
 21
4.592238
 31
0.0
  0
LINE
  5
535
  8
0
 10
11.729026
 20
4.592238
 30
0.0
 11
13.030639
 21
4.592238
 31
0.0
  0
LINE
  5
536
  8
0
 10
13.030639
 20
4.592238
 30
0.0
 11
13.070316
 21
4.592238
 31
0.0
  0
LINE
  5
537
  8
0
 10
13.070316
 20
4.592238
 30
0.0
 11
13.330639
 21
4.592238
 31
0.0
  0
LINE
  5
538
  8
0
 10
13.330639
 20
4.592238
 30
0.0
 11
13.529026
 21
4.592238
 31
0.0
  0
LINE
  5
539
  8
0
 10
13.529026
 20
4.592238
 30
0.0
 11
14.629323
 21
4.592238
 31
0.0
  0
LINE
  5
53A
  8
0
 10
14.629323
 20
4.592238
 30
0.0
 11
14.669
 21
4.592238
 31
0.0
  0
LINE
  5
53B
  8
0
 10
0.513
 20
5.092238
 30
0.0
 11
0.773323
 21
5.092238
 31
0.0
  0
LINE
  5
53C
  8
0
 10
0.513
 20
5.092238
 30
0.0
 11
0.773323
 21
5.092238
 31
0.0
  0
LINE
  5
53D
  8
0
 10
0.773323
 20
5.092238
 30
0.0
 11
0.937058
 21
5.092238
 31
0.0
  0
LINE
  5
53E
  8
0
 10
0.937058
 20
5.092238
 30
0.0
 11
2.239539
 21
5.092238
 31
0.0
  0
LINE
  5
53F
  8
0
 10
2.239539
 20
5.092238
 30
0.0
 11
2.279216
 21
5.092238
 31
0.0
  0
LINE
  5
540
  8
0
 10
2.279216
 20
5.092238
 30
0.0
 11
2.538671
 21
5.092238
 31
0.0
  0
LINE
  5
541
  8
0
 10
2.538671
 20
5.092238
 30
0.0
 11
2.737058
 21
5.092238
 31
0.0
  0
LINE
  5
542
  8
0
 10
2.737058
 20
5.092238
 30
0.0
 11
4.039539
 21
5.092238
 31
0.0
  0
LINE
  5
543
  8
0
 10
4.039539
 20
5.092238
 30
0.0
 11
4.079216
 21
5.092238
 31
0.0
  0
LINE
  5
544
  8
0
 10
4.079216
 20
5.092238
 30
0.0
 11
4.338671
 21
5.092238
 31
0.0
  0
LINE
  5
545
  8
0
 10
4.338671
 20
5.092238
 30
0.0
 11
4.537058
 21
5.092238
 31
0.0
  0
LINE
  5
546
  8
0
 10
4.537058
 20
5.092238
 30
0.0
 11
5.839539
 21
5.092238
 31
0.0
  0
LINE
  5
547
  8
0
 10
5.839539
 20
5.092238
 30
0.0
 11
5.879216
 21
5.092238
 31
0.0
  0
LINE
  5
548
  8
0
 10
5.879216
 20
5.092238
 30
0.0
 11
6.138671
 21
5.092238
 31
0.0
  0
LINE
  5
549
  8
0
 10
6.138671
 20
5.092238
 30
0.0
 11
6.337058
 21
5.092238
 31
0.0
  0
LINE
  5
54A
  8
0
 10
6.337058
 20
5.092238
 30
0.0
 11
7.639539
 21
5.092238
 31
0.0
  0
LINE
  5
54B
  8
0
 10
7.639539
 20
5.092238
 30
0.0
 11
7.679216
 21
5.092238
 31
0.0
  0
LINE
  5
54C
  8
0
 10
7.679216
 20
5.092238
 30
0.0
 11
7.938671
 21
5.092238
 31
0.0
  0
LINE
  5
54D
  8
0
 10
7.938671
 20
5.092238
 30
0.0
 11
8.137058
 21
5.092238
 31
0.0
  0
LINE
  5
54E
  8
0
 10
8.137058
 20
5.092238
 30
0.0
 11
9.439539
 21
5.092238
 31
0.0
  0
LINE
  5
54F
  8
0
 10
9.439539
 20
5.092238
 30
0.0
 11
9.479216
 21
5.092238
 31
0.0
  0
LINE
  5
550
  8
0
 10
9.479216
 20
5.092238
 30
0.0
 11
9.738671
 21
5.092238
 31
0.0
  0
LINE
  5
551
  8
0
 10
9.738671
 20
5.092238
 30
0.0
 11
9.937058
 21
5.092238
 31
0.0
  0
LINE
  5
552
  8
0
 10
9.937058
 20
5.092238
 30
0.0
 11
11.239539
 21
5.092238
 31
0.0
  0
LINE
  5
553
  8
0
 10
11.239539
 20
5.092238
 30
0.0
 11
11.279216
 21
5.092238
 31
0.0
  0
LINE
  5
554
  8
0
 10
11.279216
 20
5.092238
 30
0.0
 11
11.538671
 21
5.092238
 31
0.0
  0
LINE
  5
555
  8
0
 10
11.538671
 20
5.092238
 30
0.0
 11
11.737058
 21
5.092238
 31
0.0
  0
LINE
  5
556
  8
0
 10
11.737058
 20
5.092238
 30
0.0
 11
13.039539
 21
5.092238
 31
0.0
  0
LINE
  5
557
  8
0
 10
13.039539
 20
5.092238
 30
0.0
 11
13.079216
 21
5.092238
 31
0.0
  0
LINE
  5
558
  8
0
 10
13.079216
 20
5.092238
 30
0.0
 11
13.338671
 21
5.092238
 31
0.0
  0
LINE
  5
559
  8
0
 10
13.338671
 20
5.092238
 30
0.0
 11
13.537058
 21
5.092238
 31
0.0
  0
LINE
  5
55A
  8
0
 10
13.537058
 20
5.092238
 30
0.0
 11
14.611323
 21
5.092238
 31
0.0
  0
LINE
  5
55B
  8
0
 10
14.611323
 20
5.092238
 30
0.0
 11
14.651
 21
5.092238
 31
0.0
  0
LINE
  5
55C
  8
0
 10
0.526
 20
5.592238
 30
0.0
 11
0.786323
 21
5.592238
 31
0.0
  0
LINE
  5
55D
  8
0
 10
0.526
 20
5.592238
 30
0.0
 11
0.786323
 21
5.592238
 31
0.0
  0
LINE
  5
55E
  8
0
 10
0.786323
 20
5.592238
 30
0.0
 11
0.94609
 21
5.592238
 31
0.0
  0
LINE
  5
55F
  8
0
 10
0.94609
 20
5.592238
 30
0.0
 11
2.247703
 21
5.592238
 31
0.0
  0
LINE
  5
560
  8
0
 10
2.247703
 20
5.592238
 30
0.0
 11
2.287381
 21
5.592238
 31
0.0
  0
LINE
  5
561
  8
0
 10
2.287381
 20
5.592238
 30
0.0
 11
2.547703
 21
5.592238
 31
0.0
  0
LINE
  5
562
  8
0
 10
2.547703
 20
5.592238
 30
0.0
 11
2.74609
 21
5.592238
 31
0.0
  0
LINE
  5
563
  8
0
 10
2.74609
 20
5.592238
 30
0.0
 11
4.047703
 21
5.592238
 31
0.0
  0
LINE
  5
564
  8
0
 10
4.047703
 20
5.592238
 30
0.0
 11
4.087381
 21
5.592238
 31
0.0
  0
LINE
  5
565
  8
0
 10
4.087381
 20
5.592238
 30
0.0
 11
4.347703
 21
5.592238
 31
0.0
  0
LINE
  5
566
  8
0
 10
4.347703
 20
5.592238
 30
0.0
 11
4.54609
 21
5.592238
 31
0.0
  0
LINE
  5
567
  8
0
 10
4.54609
 20
5.592238
 30
0.0
 11
5.847703
 21
5.592238
 31
0.0
  0
LINE
  5
568
  8
0
 10
5.847703
 20
5.592238
 30
0.0
 11
5.887381
 21
5.592238
 31
0.0
  0
LINE
  5
569
  8
0
 10
5.887381
 20
5.592238
 30
0.0
 11
6.147703
 21
5.592238
 31
0.0
  0
LINE
  5
56A
  8
0
 10
6.147703
 20
5.592238
 30
0.0
 11
6.34609
 21
5.592238
 31
0.0
  0
LINE
  5
56B
  8
0
 10
6.34609
 20
5.592238
 30
0.0
 11
7.647703
 21
5.592238
 31
0.0
  0
LINE
  5
56C
  8
0
 10
7.647703
 20
5.592238
 30
0.0
 11
7.687381
 21
5.592238
 31
0.0
  0
LINE
  5
56D
  8
0
 10
7.687381
 20
5.592238
 30
0.0
 11
7.947703
 21
5.592238
 31
0.0
  0
LINE
  5
56E
  8
0
 10
7.947703
 20
5.592238
 30
0.0
 11
8.14609
 21
5.592238
 31
0.0
  0
LINE
  5
56F
  8
0
 10
8.14609
 20
5.592238
 30
0.0
 11
9.447703
 21
5.592238
 31
0.0
  0
LINE
  5
570
  8
0
 10
9.447703
 20
5.592238
 30
0.0
 11
9.487381
 21
5.592238
 31
0.0
  0
LINE
  5
571
  8
0
 10
9.487381
 20
5.592238
 30
0.0
 11
9.747703
 21
5.592238
 31
0.0
  0
LINE
  5
572
  8
0
 10
9.747703
 20
5.592238
 30
0.0
 11
9.94609
 21
5.592238
 31
0.0
  0
LINE
  5
573
  8
0
 10
9.94609
 20
5.592238
 30
0.0
 11
11.247703
 21
5.592238
 31
0.0
  0
LINE
  5
574
  8
0
 10
11.247703
 20
5.592238
 30
0.0
 11
11.287381
 21
5.592238
 31
0.0
  0
LINE
  5
575
  8
0
 10
11.287381
 20
5.592238
 30
0.0
 11
11.547703
 21
5.592238
 31
0.0
  0
LINE
  5
576
  8
0
 10
11.547703
 20
5.592238
 30
0.0
 11
11.74609
 21
5.592238
 31
0.0
  0
LINE
  5
577
  8
0
 10
11.74609
 20
5.592238
 30
0.0
 11
13.047703
 21
5.592238
 31
0.0
  0
LINE
  5
578
  8
0
 10
13.047703
 20
5.592238
 30
0.0
 11
13.087381
 21
5.592238
 31
0.0
  0
LINE
  5
579
  8
0
 10
13.087381
 20
5.592238
 30
0.0
 11
13.347703
 21
5.592238
 31
0.0
  0
LINE
  5
57A
  8
0
 10
13.347703
 20
5.592238
 30
0.0
 11
13.54609
 21
5.592238
 31
0.0
  0
LINE
  5
57B
  8
0
 10
13.54609
 20
5.592238
 30
0.0
 11
14.594323
 21
5.592238
 31
0.0
  0
LINE
  5
57C
  8
0
 10
14.594323
 20
5.592238
 30
0.0
 11
14.634
 21
5.592238
 31
0.0
  0
LINE
  5
57D
  8
0
 10
0.539
 20
6.092238
 30
0.0
 11
0.799323
 21
6.092238
 31
0.0
  0
LINE
  5
57E
  8
0
 10
0.539
 20
6.092238
 30
0.0
 11
0.799323
 21
6.092238
 31
0.0
  0
LINE
  5
57F
  8
0
 10
0.799323
 20
6.092238
 30
0.0
 11
0.956313
 21
6.092238
 31
0.0
  0
LINE
  5
580
  8
0
 10
0.956313
 20
6.092238
 30
0.0
 11
2.257926
 21
6.092238
 31
0.0
  0
LINE
  5
581
  8
0
 10
2.257926
 20
6.092238
 30
0.0
 11
2.297603
 21
6.092238
 31
0.0
  0
LINE
  5
582
  8
0
 10
2.297603
 20
6.092238
 30
0.0
 11
2.557926
 21
6.092238
 31
0.0
  0
LINE
  5
583
  8
0
 10
2.557926
 20
6.092238
 30
0.0
 11
2.756313
 21
6.092238
 31
0.0
  0
LINE
  5
584
  8
0
 10
2.756313
 20
6.092238
 30
0.0
 11
4.057926
 21
6.092238
 31
0.0
  0
LINE
  5
585
  8
0
 10
4.057926
 20
6.092238
 30
0.0
 11
4.097603
 21
6.092238
 31
0.0
  0
LINE
  5
586
  8
0
 10
4.097603
 20
6.092238
 30
0.0
 11
4.357926
 21
6.092238
 31
0.0
  0
LINE
  5
587
  8
0
 10
4.357926
 20
6.092238
 30
0.0
 11
4.556313
 21
6.092238
 31
0.0
  0
LINE
  5
588
  8
0
 10
4.556313
 20
6.092238
 30
0.0
 11
5.857926
 21
6.092238
 31
0.0
  0
LINE
  5
589
  8
0
 10
5.857926
 20
6.092238
 30
0.0
 11
5.897603
 21
6.092238
 31
0.0
  0
LINE
  5
58A
  8
0
 10
5.897603
 20
6.092238
 30
0.0
 11
6.157926
 21
6.092238
 31
0.0
  0
LINE
  5
58B
  8
0
 10
6.157926
 20
6.092238
 30
0.0
 11
6.356313
 21
6.092238
 31
0.0
  0
LINE
  5
58C
  8
0
 10
6.356313
 20
6.092238
 30
0.0
 11
7.657926
 21
6.092238
 31
0.0
  0
LINE
  5
58D
  8
0
 10
7.657926
 20
6.092238
 30
0.0
 11
7.697603
 21
6.092238
 31
0.0
  0
LINE
  5
58E
  8
0
 10
7.697603
 20
6.092238
 30
0.0
 11
7.957926
 21
6.092238
 31
0.0
  0
LINE
  5
58F
  8
0
 10
7.957926
 20
6.092238
 30
0.0
 11
8.156313
 21
6.092238
 31
0.0
  0
LINE
  5
590
  8
0
 10
8.156313
 20
6.092238
 30
0.0
 11
9.457926
 21
6.092238
 31
0.0
  0
LINE
  5
591
  8
0
 10
9.457926
 20
6.092238
 30
0.0
 11
9.497603
 21
6.092238
 31
0.0
  0
LINE
  5
592
  8
0
 10
9.497603
 20
6.092238
 30
0.0
 11
9.757926
 21
6.092238
 31
0.0
  0
LINE
  5
593
  8
0
 10
9.757926
 20
6.092238
 30
0.0
 11
9.956313
 21
6.092238
 31
0.0
  0
LINE
  5
594
  8
0
 10
9.956313
 20
6.092238
 30
0.0
 11
11.257926
 21
6.092238
 31
0.0
  0
LINE
  5
595
  8
0
 10
11.257926
 20
6.092238
 30
0.0
 11
11.297603
 21
6.092238
 31
0.0
  0
LINE
  5
596
  8
0
 10
11.297603
 20
6.092238
 30
0.0
 11
11.557926
 21
6.092238
 31
0.0
  0
LINE
  5
597
  8
0
 10
11.557926
 20
6.092238
 30
0.0
 11
11.756313
 21
6.092238
 31
0.0
  0
LINE
  5
598
  8
0
 10
11.756313
 20
6.092238
 30
0.0
 11
13.057926
 21
6.092238
 31
0.0
  0
LINE
  5
599
  8
0
 10
13.057926
 20
6.092238
 30
0.0
 11
13.097603
 21
6.092238
 31
0.0
  0
LINE
  5
59A
  8
0
 10
13.097603
 20
6.092238
 30
0.0
 11
13.357926
 21
6.092238
 31
0.0
  0
LINE
  5
59B
  8
0
 10
13.357926
 20
6.092238
 30
0.0
 11
13.556313
 21
6.092238
 31
0.0
  0
LINE
  5
59C
  8
0
 10
13.556313
 20
6.092238
 30
0.0
 11
14.586323
 21
6.092238
 31
0.0
  0
LINE
  5
59D
  8
0
 10
14.586323
 20
6.092238
 30
0.0
 11
14.626
 21
6.092238
 31
0.0
  0
LINE
  5
59E
  8
0
 10
0.551
 20
6.592238
 30
0.0
 11
0.811323
 21
6.592238
 31
0.0
  0
LINE
  5
59F
  8
0
 10
0.551
 20
6.592238
 30
0.0
 11
0.811323
 21
6.592238
 31
0.0
  0
LINE
  5
5A0
  8
0
 10
0.811323
 20
6.592238
 30
0.0
 11
0.966726
 21
6.592238
 31
0.0
  0
LINE
  5
5A1
  8
0
 10
0.966726
 20
6.592238
 30
0.0
 11
2.268339
 21
6.592238
 31
0.0
  0
LINE
  5
5A2
  8
0
 10
2.268339
 20
6.592238
 30
0.0
 11
2.308016
 21
6.592238
 31
0.0
  0
LINE
  5
5A3
  8
0
 10
2.308016
 20
6.592238
 30
0.0
 11
2.568339
 21
6.592238
 31
0.0
  0
LINE
  5
5A4
  8
0
 10
2.568339
 20
6.592238
 30
0.0
 11
2.766726
 21
6.592238
 31
0.0
  0
LINE
  5
5A5
  8
0
 10
2.766726
 20
6.592238
 30
0.0
 11
4.068339
 21
6.592238
 31
0.0
  0
LINE
  5
5A6
  8
0
 10
4.068339
 20
6.592238
 30
0.0
 11
4.108016
 21
6.592238
 31
0.0
  0
LINE
  5
5A7
  8
0
 10
4.108016
 20
6.592238
 30
0.0
 11
4.368339
 21
6.592238
 31
0.0
  0
LINE
  5
5A8
  8
0
 10
4.368339
 20
6.592238
 30
0.0
 11
4.566726
 21
6.592238
 31
0.0
  0
LINE
  5
5A9
  8
0
 10
4.566726
 20
6.592238
 30
0.0
 11
5.868339
 21
6.592238
 31
0.0
  0
LINE
  5
5AA
  8
0
 10
5.868339
 20
6.592238
 30
0.0
 11
5.908016
 21
6.592238
 31
0.0
  0
LINE
  5
5AB
  8
0
 10
5.908016
 20
6.592238
 30
0.0
 11
6.168339
 21
6.592238
 31
0.0
  0
LINE
  5
5AC
  8
0
 10
6.168339
 20
6.592238
 30
0.0
 11
6.366726
 21
6.592238
 31
0.0
  0
LINE
  5
5AD
  8
0
 10
6.366726
 20
6.592238
 30
0.0
 11
7.668339
 21
6.592238
 31
0.0
  0
LINE
  5
5AE
  8
0
 10
7.668339
 20
6.592238
 30
0.0
 11
7.708016
 21
6.592238
 31
0.0
  0
LINE
  5
5AF
  8
0
 10
7.708016
 20
6.592238
 30
0.0
 11
7.968339
 21
6.592238
 31
0.0
  0
LINE
  5
5B0
  8
0
 10
7.968339
 20
6.592238
 30
0.0
 11
8.166726
 21
6.592238
 31
0.0
  0
LINE
  5
5B1
  8
0
 10
8.166726
 20
6.592238
 30
0.0
 11
9.468339
 21
6.592238
 31
0.0
  0
LINE
  5
5B2
  8
0
 10
9.468339
 20
6.592238
 30
0.0
 11
9.508016
 21
6.592238
 31
0.0
  0
LINE
  5
5B3
  8
0
 10
9.508016
 20
6.592238
 30
0.0
 11
9.768339
 21
6.592238
 31
0.0
  0
LINE
  5
5B4
  8
0
 10
9.768339
 20
6.592238
 30
0.0
 11
9.966726
 21
6.592238
 31
0.0
  0
LINE
  5
5B5
  8
0
 10
9.966726
 20
6.592238
 30
0.0
 11
11.268339
 21
6.592238
 31
0.0
  0
LINE
  5
5B6
  8
0
 10
11.268339
 20
6.592238
 30
0.0
 11
11.308016
 21
6.592238
 31
0.0
  0
LINE
  5
5B7
  8
0
 10
11.308016
 20
6.592238
 30
0.0
 11
11.568339
 21
6.592238
 31
0.0
  0
LINE
  5
5B8
  8
0
 10
11.568339
 20
6.592238
 30
0.0
 11
11.766726
 21
6.592238
 31
0.0
  0
LINE
  5
5B9
  8
0
 10
11.766726
 20
6.592238
 30
0.0
 11
13.068339
 21
6.592238
 31
0.0
  0
LINE
  5
5BA
  8
0
 10
13.068339
 20
6.592238
 30
0.0
 11
13.108016
 21
6.592238
 31
0.0
  0
LINE
  5
5BB
  8
0
 10
13.108016
 20
6.592238
 30
0.0
 11
13.368339
 21
6.592238
 31
0.0
  0
LINE
  5
5BC
  8
0
 10
13.368339
 20
6.592238
 30
0.0
 11
13.566726
 21
6.592238
 31
0.0
  0
LINE
  5
5BD
  8
0
 10
13.566726
 20
6.592238
 30
0.0
 11
14.586323
 21
6.592238
 31
0.0
  0
LINE
  5
5BE
  8
0
 10
14.586323
 20
6.592238
 30
0.0
 11
14.626
 21
6.592238
 31
0.0
  0
LINE
  5
5BF
  8
0
 10
0.564
 20
7.092238
 30
0.0
 11
0.824323
 21
7.092238
 31
0.0
  0
LINE
  5
5C0
  8
0
 10
0.564
 20
7.092238
 30
0.0
 11
0.824323
 21
7.092238
 31
0.0
  0
LINE
  5
5C1
  8
0
 10
0.824323
 20
7.092238
 30
0.0
 11
0.978006
 21
7.092238
 31
0.0
  0
LINE
  5
5C2
  8
0
 10
0.978006
 20
7.092238
 30
0.0
 11
2.279619
 21
7.092238
 31
0.0
  0
LINE
  5
5C3
  8
0
 10
2.279619
 20
7.092238
 30
0.0
 11
2.319297
 21
7.092238
 31
0.0
  0
LINE
  5
5C4
  8
0
 10
2.319297
 20
7.092238
 30
0.0
 11
2.579619
 21
7.092238
 31
0.0
  0
LINE
  5
5C5
  8
0
 10
2.579619
 20
7.092238
 30
0.0
 11
2.778006
 21
7.092238
 31
0.0
  0
LINE
  5
5C6
  8
0
 10
2.778006
 20
7.092238
 30
0.0
 11
4.079619
 21
7.092238
 31
0.0
  0
LINE
  5
5C7
  8
0
 10
4.079619
 20
7.092238
 30
0.0
 11
4.119297
 21
7.092238
 31
0.0
  0
LINE
  5
5C8
  8
0
 10
4.119297
 20
7.092238
 30
0.0
 11
4.379619
 21
7.092238
 31
0.0
  0
LINE
  5
5C9
  8
0
 10
4.379619
 20
7.092238
 30
0.0
 11
4.578006
 21
7.092238
 31
0.0
  0
LINE
  5
5CA
  8
0
 10
4.578006
 20
7.092238
 30
0.0
 11
5.879619
 21
7.092238
 31
0.0
  0
LINE
  5
5CB
  8
0
 10
5.879619
 20
7.092238
 30
0.0
 11
5.919297
 21
7.092238
 31
0.0
  0
LINE
  5
5CC
  8
0
 10
5.919297
 20
7.092238
 30
0.0
 11
6.179619
 21
7.092238
 31
0.0
  0
LINE
  5
5CD
  8
0
 10
6.179619
 20
7.092238
 30
0.0
 11
6.378006
 21
7.092238
 31
0.0
  0
LINE
  5
5CE
  8
0
 10
6.378006
 20
7.092238
 30
0.0
 11
7.679619
 21
7.092238
 31
0.0
  0
LINE
  5
5CF
  8
0
 10
7.679619
 20
7.092238
 30
0.0
 11
7.719297
 21
7.092238
 31
0.0
  0
LINE
  5
5D0
  8
0
 10
7.719297
 20
7.092238
 30
0.0
 11
7.979619
 21
7.092238
 31
0.0
  0
LINE
  5
5D1
  8
0
 10
7.979619
 20
7.092238
 30
0.0
 11
8.178006
 21
7.092238
 31
0.0
  0
LINE
  5
5D2
  8
0
 10
8.178006
 20
7.092238
 30
0.0
 11
9.479619
 21
7.092238
 31
0.0
  0
LINE
  5
5D3
  8
0
 10
9.479619
 20
7.092238
 30
0.0
 11
9.519297
 21
7.092238
 31
0.0
  0
LINE
  5
5D4
  8
0
 10
9.519297
 20
7.092238
 30
0.0
 11
9.779619
 21
7.092238
 31
0.0
  0
LINE
  5
5D5
  8
0
 10
9.779619
 20
7.092238
 30
0.0
 11
9.978006
 21
7.092238
 31
0.0
  0
LINE
  5
5D6
  8
0
 10
9.978006
 20
7.092238
 30
0.0
 11
11.279619
 21
7.092238
 31
0.0
  0
LINE
  5
5D7
  8
0
 10
11.279619
 20
7.092238
 30
0.0
 11
11.319297
 21
7.092238
 31
0.0
  0
LINE
  5
5D8
  8
0
 10
11.319297
 20
7.092238
 30
0.0
 11
11.579619
 21
7.092238
 31
0.0
  0
LINE
  5
5D9
  8
0
 10
11.579619
 20
7.092238
 30
0.0
 11
11.778006
 21
7.092238
 31
0.0
  0
LINE
  5
5DA
  8
0
 10
11.778006
 20
7.092238
 30
0.0
 11
13.079619
 21
7.092238
 31
0.0
  0
LINE
  5
5DB
  8
0
 10
13.079619
 20
7.092238
 30
0.0
 11
13.119297
 21
7.092238
 31
0.0
  0
LINE
  5
5DC
  8
0
 10
13.119297
 20
7.092238
 30
0.0
 11
13.379619
 21
7.092238
 31
0.0
  0
LINE
  5
5DD
  8
0
 10
13.379619
 20
7.092238
 30
0.0
 11
13.578006
 21
7.092238
 31
0.0
  0
LINE
  5
5DE
  8
0
 10
13.578006
 20
7.092238
 30
0.0
 11
14.586323
 21
7.092238
 31
0.0
  0
LINE
  5
5DF
  8
0
 10
14.586323
 20
7.092238
 30
0.0
 11
14.626
 21
7.092238
 31
0.0
  0
LINE
  5
5E0
  8
0
 10
0.576
 20
7.592238
 30
0.0
 11
0.576868
 21
7.592238
 31
0.0
  0
LINE
  5
5E1
  8
0
 10
0.576
 20
7.592238
 30
0.0
 11
0.576868
 21
7.592238
 31
0.0
  0
LINE
  5
5E2
  8
0
 10
0.576868
 20
7.592238
 30
0.0
 11
0.836323
 21
7.592238
 31
0.0
  0
LINE
  5
5E3
  8
0
 10
0.836323
 20
7.592238
 30
0.0
 11
0.988419
 21
7.592238
 31
0.0
  0
LINE
  5
5E4
  8
0
 10
0.988419
 20
7.592238
 30
0.0
 11
2.2909
 21
7.592238
 31
0.0
  0
LINE
  5
5E5
  8
0
 10
2.2909
 20
7.592238
 30
0.0
 11
2.330577
 21
7.592238
 31
0.0
  0
LINE
  5
5E6
  8
0
 10
2.330577
 20
7.592238
 30
0.0
 11
2.590032
 21
7.592238
 31
0.0
  0
LINE
  5
5E7
  8
0
 10
2.590032
 20
7.592238
 30
0.0
 11
2.788419
 21
7.592238
 31
0.0
  0
LINE
  5
5E8
  8
0
 10
2.788419
 20
7.592238
 30
0.0
 11
4.0909
 21
7.592238
 31
0.0
  0
LINE
  5
5E9
  8
0
 10
4.0909
 20
7.592238
 30
0.0
 11
4.130577
 21
7.592238
 31
0.0
  0
LINE
  5
5EA
  8
0
 10
4.130577
 20
7.592238
 30
0.0
 11
4.390032
 21
7.592238
 31
0.0
  0
LINE
  5
5EB
  8
0
 10
4.390032
 20
7.592238
 30
0.0
 11
4.588419
 21
7.592238
 31
0.0
  0
LINE
  5
5EC
  8
0
 10
4.588419
 20
7.592238
 30
0.0
 11
5.8909
 21
7.592238
 31
0.0
  0
LINE
  5
5ED
  8
0
 10
5.8909
 20
7.592238
 30
0.0
 11
5.930577
 21
7.592238
 31
0.0
  0
LINE
  5
5EE
  8
0
 10
5.930577
 20
7.592238
 30
0.0
 11
6.190032
 21
7.592238
 31
0.0
  0
LINE
  5
5EF
  8
0
 10
6.190032
 20
7.592238
 30
0.0
 11
6.388419
 21
7.592238
 31
0.0
  0
LINE
  5
5F0
  8
0
 10
6.388419
 20
7.592238
 30
0.0
 11
7.6909
 21
7.592238
 31
0.0
  0
LINE
  5
5F1
  8
0
 10
7.6909
 20
7.592238
 30
0.0
 11
7.730577
 21
7.592238
 31
0.0
  0
LINE
  5
5F2
  8
0
 10
7.730577
 20
7.592238
 30
0.0
 11
7.990032
 21
7.592238
 31
0.0
  0
LINE
  5
5F3
  8
0
 10
7.990032
 20
7.592238
 30
0.0
 11
8.188419
 21
7.592238
 31
0.0
  0
LINE
  5
5F4
  8
0
 10
8.188419
 20
7.592238
 30
0.0
 11
9.4909
 21
7.592238
 31
0.0
  0
LINE
  5
5F5
  8
0
 10
9.4909
 20
7.592238
 30
0.0
 11
9.530577
 21
7.592238
 31
0.0
  0
LINE
  5
5F6
  8
0
 10
9.530577
 20
7.592238
 30
0.0
 11
9.790032
 21
7.592238
 31
0.0
  0
LINE
  5
5F7
  8
0
 10
9.790032
 20
7.592238
 30
0.0
 11
9.988419
 21
7.592238
 31
0.0
  0
LINE
  5
5F8
  8
0
 10
9.988419
 20
7.592238
 30
0.0
 11
11.2909
 21
7.592238
 31
0.0
  0
LINE
  5
5F9
  8
0
 10
11.2909
 20
7.592238
 30
0.0
 11
11.330577
 21
7.592238
 31
0.0
  0
LINE
  5
5FA
  8
0
 10
11.330577
 20
7.592238
 30
0.0
 11
11.590032
 21
7.592238
 31
0.0
  0
LINE
  5
5FB
  8
0
 10
11.590032
 20
7.592238
 30
0.0
 11
11.788419
 21
7.592238
 31
0.0
  0
LINE
  5
5FC
  8
0
 10
11.788419
 20
7.592238
 30
0.0
 11
13.0909
 21
7.592238
 31
0.0
  0
LINE
  5
5FD
  8
0
 10
13.0909
 20
7.592238
 30
0.0
 11
13.130577
 21
7.592238
 31
0.0
  0
LINE
  5
5FE
  8
0
 10
13.130577
 20
7.592238
 30
0.0
 11
13.390032
 21
7.592238
 31
0.0
  0
LINE
  5
5FF
  8
0
 10
13.390032
 20
7.592238
 30
0.0
 11
13.588419
 21
7.592238
 31
0.0
  0
LINE
  5
600
  8
0
 10
13.588419
 20
7.592238
 30
0.0
 11
14.586323
 21
7.592238
 31
0.0
  0
LINE
  5
601
  8
0
 10
14.586323
 20
7.592238
 30
0.0
 11
14.626
 21
7.592238
 31
0.0
  0
LINE
  5
602
  8
0
 10
0.575
 20
8.092238
 30
0.0
 11
0.835323
 21
8.092238
 31
0.0
  0
LINE
  5
603
  8
0
 10
0.575
 20
8.092238
 30
0.0
 11
0.835323
 21
8.092238
 31
0.0
  0
LINE
  5
604
  8
0
 10
0.835323
 20
8.092238
 30
0.0
 11
0.987552
 21
8.092238
 31
0.0
  0
LINE
  5
605
  8
0
 10
0.987552
 20
8.092238
 30
0.0
 11
2.290032
 21
8.092238
 31
0.0
  0
LINE
  5
606
  8
0
 10
2.290032
 20
8.092238
 30
0.0
 11
2.32971
 21
8.092238
 31
0.0
  0
LINE
  5
607
  8
0
 10
2.32971
 20
8.092238
 30
0.0
 11
2.589165
 21
8.092238
 31
0.0
  0
LINE
  5
608
  8
0
 10
2.589165
 20
8.092238
 30
0.0
 11
2.787552
 21
8.092238
 31
0.0
  0
LINE
  5
609
  8
0
 10
2.787552
 20
8.092238
 30
0.0
 11
4.090032
 21
8.092238
 31
0.0
  0
LINE
  5
60A
  8
0
 10
4.090032
 20
8.092238
 30
0.0
 11
4.12971
 21
8.092238
 31
0.0
  0
LINE
  5
60B
  8
0
 10
4.12971
 20
8.092238
 30
0.0
 11
4.389165
 21
8.092238
 31
0.0
  0
LINE
  5
60C
  8
0
 10
4.389165
 20
8.092238
 30
0.0
 11
4.587552
 21
8.092238
 31
0.0
  0
LINE
  5
60D
  8
0
 10
4.587552
 20
8.092238
 30
0.0
 11
5.890032
 21
8.092238
 31
0.0
  0
LINE
  5
60E
  8
0
 10
5.890032
 20
8.092238
 30
0.0
 11
5.92971
 21
8.092238
 31
0.0
  0
LINE
  5
60F
  8
0
 10
5.92971
 20
8.092238
 30
0.0
 11
6.189165
 21
8.092238
 31
0.0
  0
LINE
  5
610
  8
0
 10
6.189165
 20
8.092238
 30
0.0
 11
6.387552
 21
8.092238
 31
0.0
  0
LINE
  5
611
  8
0
 10
6.387552
 20
8.092238
 30
0.0
 11
7.690032
 21
8.092238
 31
0.0
  0
LINE
  5
612
  8
0
 10
7.690032
 20
8.092238
 30
0.0
 11
7.72971
 21
8.092238
 31
0.0
  0
LINE
  5
613
  8
0
 10
7.72971
 20
8.092238
 30
0.0
 11
7.989165
 21
8.092238
 31
0.0
  0
LINE
  5
614
  8
0
 10
7.989165
 20
8.092238
 30
0.0
 11
8.187552
 21
8.092238
 31
0.0
  0
LINE
  5
615
  8
0
 10
8.187552
 20
8.092238
 30
0.0
 11
9.490032
 21
8.092238
 31
0.0
  0
LINE
  5
616
  8
0
 10
9.490032
 20
8.092238
 30
0.0
 11
9.52971
 21
8.092238
 31
0.0
  0
LINE
  5
617
  8
0
 10
9.52971
 20
8.092238
 30
0.0
 11
9.789165
 21
8.092238
 31
0.0
  0
LINE
  5
618
  8
0
 10
9.789165
 20
8.092238
 30
0.0
 11
9.987552
 21
8.092238
 31
0.0
  0
LINE
  5
619
  8
0
 10
9.987552
 20
8.092238
 30
0.0
 11
11.290032
 21
8.092238
 31
0.0
  0
LINE
  5
61A
  8
0
 10
11.290032
 20
8.092238
 30
0.0
 11
11.32971
 21
8.092238
 31
0.0
  0
LINE
  5
61B
  8
0
 10
11.32971
 20
8.092238
 30
0.0
 11
11.589165
 21
8.092238
 31
0.0
  0
LINE
  5
61C
  8
0
 10
11.589165
 20
8.092238
 30
0.0
 11
11.787552
 21
8.092238
 31
0.0
  0
LINE
  5
61D
  8
0
 10
11.787552
 20
8.092238
 30
0.0
 11
13.090032
 21
8.092238
 31
0.0
  0
LINE
  5
61E
  8
0
 10
13.090032
 20
8.092238
 30
0.0
 11
13.12971
 21
8.092238
 31
0.0
  0
LINE
  5
61F
  8
0
 10
13.12971
 20
8.092238
 30
0.0
 11
13.389165
 21
8.092238
 31
0.0
  0
LINE
  5
620
  8
0
 10
13.389165
 20
8.092238
 30
0.0
 11
13.587552
 21
8.092238
 31
0.0
  0
LINE
  5
621
  8
0
 10
13.587552
 20
8.092238
 30
0.0
 11
14.586323
 21
8.092238
 31
0.0
  0
LINE
  5
622
  8
0
 10
14.586323
 20
8.092238
 30
0.0
 11
14.626
 21
8.092238
 31
0.0
  0
LINE
  5
623
  8
0
 10
0.56
 20
8.592238
 30
0.0
 11
0.820323
 21
8.592238
 31
0.0
  0
LINE
  5
624
  8
0
 10
0.56
 20
8.592238
 30
0.0
 11
0.820323
 21
8.592238
 31
0.0
  0
LINE
  5
625
  8
0
 10
0.820323
 20
8.592238
 30
0.0
 11
0.974535
 21
8.592238
 31
0.0
  0
LINE
  5
626
  8
0
 10
0.974535
 20
8.592238
 30
0.0
 11
2.276148
 21
8.592238
 31
0.0
  0
LINE
  5
627
  8
0
 10
2.276148
 20
8.592238
 30
0.0
 11
2.315826
 21
8.592238
 31
0.0
  0
LINE
  5
628
  8
0
 10
2.315826
 20
8.592238
 30
0.0
 11
2.576148
 21
8.592238
 31
0.0
  0
LINE
  5
629
  8
0
 10
2.576148
 20
8.592238
 30
0.0
 11
2.774535
 21
8.592238
 31
0.0
  0
LINE
  5
62A
  8
0
 10
2.774535
 20
8.592238
 30
0.0
 11
4.076148
 21
8.592238
 31
0.0
  0
LINE
  5
62B
  8
0
 10
4.076148
 20
8.592238
 30
0.0
 11
4.115826
 21
8.592238
 31
0.0
  0
LINE
  5
62C
  8
0
 10
4.115826
 20
8.592238
 30
0.0
 11
4.376148
 21
8.592238
 31
0.0
  0
LINE
  5
62D
  8
0
 10
4.376148
 20
8.592238
 30
0.0
 11
4.574535
 21
8.592238
 31
0.0
  0
LINE
  5
62E
  8
0
 10
4.574535
 20
8.592238
 30
0.0
 11
5.876148
 21
8.592238
 31
0.0
  0
LINE
  5
62F
  8
0
 10
5.876148
 20
8.592238
 30
0.0
 11
5.915826
 21
8.592238
 31
0.0
  0
LINE
  5
630
  8
0
 10
5.915826
 20
8.592238
 30
0.0
 11
6.176148
 21
8.592238
 31
0.0
  0
LINE
  5
631
  8
0
 10
6.176148
 20
8.592238
 30
0.0
 11
6.374535
 21
8.592238
 31
0.0
  0
LINE
  5
632
  8
0
 10
6.374535
 20
8.592238
 30
0.0
 11
7.676148
 21
8.592238
 31
0.0
  0
LINE
  5
633
  8
0
 10
7.676148
 20
8.592238
 30
0.0
 11
7.715826
 21
8.592238
 31
0.0
  0
LINE
  5
634
  8
0
 10
7.715826
 20
8.592238
 30
0.0
 11
7.976148
 21
8.592238
 31
0.0
  0
LINE
  5
635
  8
0
 10
7.976148
 20
8.592238
 30
0.0
 11
8.174535
 21
8.592238
 31
0.0
  0
LINE
  5
636
  8
0
 10
8.174535
 20
8.592238
 30
0.0
 11
9.476148
 21
8.592238
 31
0.0
  0
LINE
  5
637
  8
0
 10
9.476148
 20
8.592238
 30
0.0
 11
9.515826
 21
8.592238
 31
0.0
  0
LINE
  5
638
  8
0
 10
9.515826
 20
8.592238
 30
0.0
 11
9.776148
 21
8.592238
 31
0.0
  0
LINE
  5
639
  8
0
 10
9.776148
 20
8.592238
 30
0.0
 11
9.974535
 21
8.592238
 31
0.0
  0
LINE
  5
63A
  8
0
 10
9.974535
 20
8.592238
 30
0.0
 11
11.276148
 21
8.592238
 31
0.0
  0
LINE
  5
63B
  8
0
 10
11.276148
 20
8.592238
 30
0.0
 11
11.315826
 21
8.592238
 31
0.0
  0
LINE
  5
63C
  8
0
 10
11.315826
 20
8.592238
 30
0.0
 11
11.576148
 21
8.592238
 31
0.0
  0
LINE
  5
63D
  8
0
 10
11.576148
 20
8.592238
 30
0.0
 11
11.774535
 21
8.592238
 31
0.0
  0
LINE
  5
63E
  8
0
 10
11.774535
 20
8.592238
 30
0.0
 11
13.076148
 21
8.592238
 31
0.0
  0
LINE
  5
63F
  8
0
 10
13.076148
 20
8.592238
 30
0.0
 11
13.115826
 21
8.592238
 31
0.0
  0
LINE
  5
640
  8
0
 10
13.115826
 20
8.592238
 30
0.0
 11
13.376148
 21
8.592238
 31
0.0
  0
LINE
  5
641
  8
0
 10
13.376148
 20
8.592238
 30
0.0
 11
13.574535
 21
8.592238
 31
0.0
  0
LINE
  5
642
  8
0
 10
13.574535
 20
8.592238
 30
0.0
 11
14.586323
 21
8.592238
 31
0.0
  0
LINE
  5
643
  8
0
 10
14.586323
 20
8.592238
 30
0.0
 11
14.626
 21
8.592238
 31
0.0
  0
LINE
  5
644
  8
0
 10
0.545
 20
9.092238
 30
0.0
 11
0.805323
 21
9.092238
 31
0.0
  0
LINE
  5
645
  8
0
 10
0.545
 20
9.092238
 30
0.0
 11
0.805323
 21
9.092238
 31
0.0
  0
LINE
  5
646
  8
0
 10
0.805323
 20
9.092238
 30
0.0
 11
0.961519
 21
9.092238
 31
0.0
  0
LINE
  5
647
  8
0
 10
0.961519
 20
9.092238
 30
0.0
 11
2.263132
 21
9.092238
 31
0.0
  0
LINE
  5
648
  8
0
 10
2.263132
 20
9.092238
 30
0.0
 11
2.30281
 21
9.092238
 31
0.0
  0
LINE
  5
649
  8
0
 10
2.30281
 20
9.092238
 30
0.0
 11
2.563132
 21
9.092238
 31
0.0
  0
LINE
  5
64A
  8
0
 10
2.563132
 20
9.092238
 30
0.0
 11
2.761519
 21
9.092238
 31
0.0
  0
LINE
  5
64B
  8
0
 10
2.761519
 20
9.092238
 30
0.0
 11
4.063132
 21
9.092238
 31
0.0
  0
LINE
  5
64C
  8
0
 10
4.063132
 20
9.092238
 30
0.0
 11
4.10281
 21
9.092238
 31
0.0
  0
LINE
  5
64D
  8
0
 10
4.10281
 20
9.092238
 30
0.0
 11
4.363132
 21
9.092238
 31
0.0
  0
LINE
  5
64E
  8
0
 10
4.363132
 20
9.092238
 30
0.0
 11
4.561519
 21
9.092238
 31
0.0
  0
LINE
  5
64F
  8
0
 10
4.561519
 20
9.092238
 30
0.0
 11
5.863132
 21
9.092238
 31
0.0
  0
LINE
  5
650
  8
0
 10
5.863132
 20
9.092238
 30
0.0
 11
5.90281
 21
9.092238
 31
0.0
  0
LINE
  5
651
  8
0
 10
5.90281
 20
9.092238
 30
0.0
 11
6.163132
 21
9.092238
 31
0.0
  0
LINE
  5
652
  8
0
 10
6.163132
 20
9.092238
 30
0.0
 11
6.361519
 21
9.092238
 31
0.0
  0
LINE
  5
653
  8
0
 10
6.361519
 20
9.092238
 30
0.0
 11
7.663132
 21
9.092238
 31
0.0
  0
LINE
  5
654
  8
0
 10
7.663132
 20
9.092238
 30
0.0
 11
7.70281
 21
9.092238
 31
0.0
  0
LINE
  5
655
  8
0
 10
7.70281
 20
9.092238
 30
0.0
 11
7.963132
 21
9.092238
 31
0.0
  0
LINE
  5
656
  8
0
 10
7.963132
 20
9.092238
 30
0.0
 11
8.161519
 21
9.092238
 31
0.0
  0
LINE
  5
657
  8
0
 10
8.161519
 20
9.092238
 30
0.0
 11
9.463132
 21
9.092238
 31
0.0
  0
LINE
  5
658
  8
0
 10
9.463132
 20
9.092238
 30
0.0
 11
9.50281
 21
9.092238
 31
0.0
  0
LINE
  5
659
  8
0
 10
9.50281
 20
9.092238
 30
0.0
 11
9.763132
 21
9.092238
 31
0.0
  0
LINE
  5
65A
  8
0
 10
9.763132
 20
9.092238
 30
0.0
 11
9.961519
 21
9.092238
 31
0.0
  0
LINE
  5
65B
  8
0
 10
9.961519
 20
9.092238
 30
0.0
 11
11.263132
 21
9.092238
 31
0.0
  0
LINE
  5
65C
  8
0
 10
11.263132
 20
9.092238
 30
0.0
 11
11.30281
 21
9.092238
 31
0.0
  0
LINE
  5
65D
  8
0
 10
11.30281
 20
9.092238
 30
0.0
 11
11.563132
 21
9.092238
 31
0.0
  0
LINE
  5
65E
  8
0
 10
11.563132
 20
9.092238
 30
0.0
 11
11.761519
 21
9.092238
 31
0.0
  0
LINE
  5
65F
  8
0
 10
11.761519
 20
9.092238
 30
0.0
 11
13.063132
 21
9.092238
 31
0.0
  0
LINE
  5
660
  8
0
 10
13.063132
 20
9.092238
 30
0.0
 11
13.10281
 21
9.092238
 31
0.0
  0
LINE
  5
661
  8
0
 10
13.10281
 20
9.092238
 30
0.0
 11
13.363132
 21
9.092238
 31
0.0
  0
LINE
  5
662
  8
0
 10
13.363132
 20
9.092238
 30
0.0
 11
13.561519
 21
9.092238
 31
0.0
  0
LINE
  5
663
  8
0
 10
13.561519
 20
9.092238
 30
0.0
 11
14.586323
 21
9.092238
 31
0.0
  0
LINE
  5
664
  8
0
 10
14.586323
 20
9.092238
 30
0.0
 11
14.626
 21
9.092238
 31
0.0
  0
LINE
  5
665
  8
0
 10
0.529
 20
9.592238
 30
0.0
 11
0.789323
 21
9.592238
 31
0.0
  0
LINE
  5
666
  8
0
 10
0.529
 20
9.592238
 30
0.0
 11
0.789323
 21
9.592238
 31
0.0
  0
LINE
  5
667
  8
0
 10
0.789323
 20
9.592238
 30
0.0
 11
0.947635
 21
9.592238
 31
0.0
  0
LINE
  5
668
  8
0
 10
0.947635
 20
9.592238
 30
0.0
 11
2.250116
 21
9.592238
 31
0.0
  0
LINE
  5
669
  8
0
 10
2.250116
 20
9.592238
 30
0.0
 11
2.289794
 21
9.592238
 31
0.0
  0
LINE
  5
66A
  8
0
 10
2.289794
 20
9.592238
 30
0.0
 11
2.549248
 21
9.592238
 31
0.0
  0
LINE
  5
66B
  8
0
 10
2.549248
 20
9.592238
 30
0.0
 11
2.747635
 21
9.592238
 31
0.0
  0
LINE
  5
66C
  8
0
 10
2.747635
 20
9.592238
 30
0.0
 11
4.050116
 21
9.592238
 31
0.0
  0
LINE
  5
66D
  8
0
 10
4.050116
 20
9.592238
 30
0.0
 11
4.089794
 21
9.592238
 31
0.0
  0
LINE
  5
66E
  8
0
 10
4.089794
 20
9.592238
 30
0.0
 11
4.349248
 21
9.592238
 31
0.0
  0
LINE
  5
66F
  8
0
 10
4.349248
 20
9.592238
 30
0.0
 11
4.547635
 21
9.592238
 31
0.0
  0
LINE
  5
670
  8
0
 10
4.547635
 20
9.592238
 30
0.0
 11
5.850116
 21
9.592238
 31
0.0
  0
LINE
  5
671
  8
0
 10
5.850116
 20
9.592238
 30
0.0
 11
5.889794
 21
9.592238
 31
0.0
  0
LINE
  5
672
  8
0
 10
5.889794
 20
9.592238
 30
0.0
 11
6.149248
 21
9.592238
 31
0.0
  0
LINE
  5
673
  8
0
 10
6.149248
 20
9.592238
 30
0.0
 11
6.347635
 21
9.592238
 31
0.0
  0
LINE
  5
674
  8
0
 10
6.347635
 20
9.592238
 30
0.0
 11
7.650116
 21
9.592238
 31
0.0
  0
LINE
  5
675
  8
0
 10
7.650116
 20
9.592238
 30
0.0
 11
7.689794
 21
9.592238
 31
0.0
  0
LINE
  5
676
  8
0
 10
7.689794
 20
9.592238
 30
0.0
 11
7.949248
 21
9.592238
 31
0.0
  0
LINE
  5
677
  8
0
 10
7.949248
 20
9.592238
 30
0.0
 11
8.147635
 21
9.592238
 31
0.0
  0
LINE
  5
678
  8
0
 10
8.147635
 20
9.592238
 30
0.0
 11
9.450116
 21
9.592238
 31
0.0
  0
LINE
  5
679
  8
0
 10
9.450116
 20
9.592238
 30
0.0
 11
9.489794
 21
9.592238
 31
0.0
  0
LINE
  5
67A
  8
0
 10
9.489794
 20
9.592238
 30
0.0
 11
9.749248
 21
9.592238
 31
0.0
  0
LINE
  5
67B
  8
0
 10
9.749248
 20
9.592238
 30
0.0
 11
9.947635
 21
9.592238
 31
0.0
  0
LINE
  5
67C
  8
0
 10
9.947635
 20
9.592238
 30
0.0
 11
11.250116
 21
9.592238
 31
0.0
  0
LINE
  5
67D
  8
0
 10
11.250116
 20
9.592238
 30
0.0
 11
11.289794
 21
9.592238
 31
0.0
  0
LINE
  5
67E
  8
0
 10
11.289794
 20
9.592238
 30
0.0
 11
11.549248
 21
9.592238
 31
0.0
  0
LINE
  5
67F
  8
0
 10
11.549248
 20
9.592238
 30
0.0
 11
11.747635
 21
9.592238
 31
0.0
  0
LINE
  5
680
  8
0
 10
11.747635
 20
9.592238
 30
0.0
 11
13.050116
 21
9.592238
 31
0.0
  0
LINE
  5
681
  8
0
 10
13.050116
 20
9.592238
 30
0.0
 11
13.089794
 21
9.592238
 31
0.0
  0
LINE
  5
682
  8
0
 10
13.089794
 20
9.592238
 30
0.0
 11
13.349248
 21
9.592238
 31
0.0
  0
LINE
  5
683
  8
0
 10
13.349248
 20
9.592238
 30
0.0
 11
13.547635
 21
9.592238
 31
0.0
  0
LINE
  5
684
  8
0
 10
13.547635
 20
9.592238
 30
0.0
 11
14.586323
 21
9.592238
 31
0.0
  0
LINE
  5
685
  8
0
 10
14.586323
 20
9.592238
 30
0.0
 11
14.626
 21
9.592238
 31
0.0
  0
LINE
  5
686
  8
0
 10
0.514
 20
10.092238
 30
0.0
 11
0.774323
 21
10.092238
 31
0.0
  0
LINE
  5
687
  8
0
 10
0.514
 20
10.092238
 30
0.0
 11
0.774323
 21
10.092238
 31
0.0
  0
LINE
  5
688
  8
0
 10
0.774323
 20
10.092238
 30
0.0
 11
0.934619
 21
10.092238
 31
0.0
  0
LINE
  5
689
  8
0
 10
0.934619
 20
10.092238
 30
0.0
 11
2.236232
 21
10.092238
 31
0.0
  0
LINE
  5
68A
  8
0
 10
2.236232
 20
10.092238
 30
0.0
 11
2.27591
 21
10.092238
 31
0.0
  0
LINE
  5
68B
  8
0
 10
2.27591
 20
10.092238
 30
0.0
 11
2.536232
 21
10.092238
 31
0.0
  0
LINE
  5
68C
  8
0
 10
2.536232
 20
10.092238
 30
0.0
 11
2.734619
 21
10.092238
 31
0.0
  0
LINE
  5
68D
  8
0
 10
2.734619
 20
10.092238
 30
0.0
 11
4.036232
 21
10.092238
 31
0.0
  0
LINE
  5
68E
  8
0
 10
4.036232
 20
10.092238
 30
0.0
 11
4.07591
 21
10.092238
 31
0.0
  0
LINE
  5
68F
  8
0
 10
4.07591
 20
10.092238
 30
0.0
 11
4.336232
 21
10.092238
 31
0.0
  0
LINE
  5
690
  8
0
 10
4.336232
 20
10.092238
 30
0.0
 11
4.534619
 21
10.092238
 31
0.0
  0
LINE
  5
691
  8
0
 10
4.534619
 20
10.092238
 30
0.0
 11
5.836232
 21
10.092238
 31
0.0
  0
LINE
  5
692
  8
0
 10
5.836232
 20
10.092238
 30
0.0
 11
5.87591
 21
10.092238
 31
0.0
  0
LINE
  5
693
  8
0
 10
5.87591
 20
10.092238
 30
0.0
 11
6.136232
 21
10.092238
 31
0.0
  0
LINE
  5
694
  8
0
 10
6.136232
 20
10.092238
 30
0.0
 11
6.334619
 21
10.092238
 31
0.0
  0
LINE
  5
695
  8
0
 10
6.334619
 20
10.092238
 30
0.0
 11
7.636232
 21
10.092238
 31
0.0
  0
LINE
  5
696
  8
0
 10
7.636232
 20
10.092238
 30
0.0
 11
7.67591
 21
10.092238
 31
0.0
  0
LINE
  5
697
  8
0
 10
7.67591
 20
10.092238
 30
0.0
 11
7.936232
 21
10.092238
 31
0.0
  0
LINE
  5
698
  8
0
 10
7.936232
 20
10.092238
 30
0.0
 11
8.134619
 21
10.092238
 31
0.0
  0
LINE
  5
699
  8
0
 10
8.134619
 20
10.092238
 30
0.0
 11
9.436232
 21
10.092238
 31
0.0
  0
LINE
  5
69A
  8
0
 10
9.436232
 20
10.092238
 30
0.0
 11
9.47591
 21
10.092238
 31
0.0
  0
LINE
  5
69B
  8
0
 10
9.47591
 20
10.092238
 30
0.0
 11
9.736232
 21
10.092238
 31
0.0
  0
LINE
  5
69C
  8
0
 10
9.736232
 20
10.092238
 30
0.0
 11
9.934619
 21
10.092238
 31
0.0
  0
LINE
  5
69D
  8
0
 10
9.934619
 20
10.092238
 30
0.0
 11
11.236232
 21
10.092238
 31
0.0
  0
LINE
  5
69E
  8
0
 10
11.236232
 20
10.092238
 30
0.0
 11
11.27591
 21
10.092238
 31
0.0
  0
LINE
  5
69F
  8
0
 10
11.27591
 20
10.092238
 30
0.0
 11
11.536232
 21
10.092238
 31
0.0
  0
LINE
  5
6A0
  8
0
 10
11.536232
 20
10.092238
 30
0.0
 11
11.734619
 21
10.092238
 31
0.0
  0
LINE
  5
6A1
  8
0
 10
11.734619
 20
10.092238
 30
0.0
 11
13.036232
 21
10.092238
 31
0.0
  0
LINE
  5
6A2
  8
0
 10
13.036232
 20
10.092238
 30
0.0
 11
13.07591
 21
10.092238
 31
0.0
  0
LINE
  5
6A3
  8
0
 10
13.07591
 20
10.092238
 30
0.0
 11
13.336232
 21
10.092238
 31
0.0
  0
LINE
  5
6A4
  8
0
 10
13.336232
 20
10.092238
 30
0.0
 11
13.534619
 21
10.092238
 31
0.0
  0
LINE
  5
6A5
  8
0
 10
13.534619
 20
10.092238
 30
0.0
 11
14.586323
 21
10.092238
 31
0.0
  0
LINE
  5
6A6
  8
0
 10
14.586323
 20
10.092238
 30
0.0
 11
14.626
 21
10.092238
 31
0.0
  0
LINE
  5
6A7
  8
0
 10
0.499
 20
10.592238
 30
0.0
 11
0.759323
 21
10.592238
 31
0.0
  0
LINE
  5
6A8
  8
0
 10
0.499
 20
10.592238
 30
0.0
 11
0.759323
 21
10.592238
 31
0.0
  0
LINE
  5
6A9
  8
0
 10
0.759323
 20
10.592238
 30
0.0
 11
0.921603
 21
10.592238
 31
0.0
  0
LINE
  5
6AA
  8
0
 10
0.921603
 20
10.592238
 30
0.0
 11
2.223216
 21
10.592238
 31
0.0
  0
LINE
  5
6AB
  8
0
 10
2.223216
 20
10.592238
 30
0.0
 11
2.262894
 21
10.592238
 31
0.0
  0
LINE
  5
6AC
  8
0
 10
2.262894
 20
10.592238
 30
0.0
 11
2.523216
 21
10.592238
 31
0.0
  0
LINE
  5
6AD
  8
0
 10
2.523216
 20
10.592238
 30
0.0
 11
2.721603
 21
10.592238
 31
0.0
  0
LINE
  5
6AE
  8
0
 10
2.721603
 20
10.592238
 30
0.0
 11
4.023216
 21
10.592238
 31
0.0
  0
LINE
  5
6AF
  8
0
 10
4.023216
 20
10.592238
 30
0.0
 11
4.062894
 21
10.592238
 31
0.0
  0
LINE
  5
6B0
  8
0
 10
4.062894
 20
10.592238
 30
0.0
 11
4.323216
 21
10.592238
 31
0.0
  0
LINE
  5
6B1
  8
0
 10
4.323216
 20
10.592238
 30
0.0
 11
4.521603
 21
10.592238
 31
0.0
  0
LINE
  5
6B2
  8
0
 10
4.521603
 20
10.592238
 30
0.0
 11
5.823216
 21
10.592238
 31
0.0
  0
LINE
  5
6B3
  8
0
 10
5.823216
 20
10.592238
 30
0.0
 11
5.862894
 21
10.592238
 31
0.0
  0
LINE
  5
6B4
  8
0
 10
5.862894
 20
10.592238
 30
0.0
 11
6.123216
 21
10.592238
 31
0.0
  0
LINE
  5
6B5
  8
0
 10
6.123216
 20
10.592238
 30
0.0
 11
6.321603
 21
10.592238
 31
0.0
  0
LINE
  5
6B6
  8
0
 10
6.321603
 20
10.592238
 30
0.0
 11
7.623216
 21
10.592238
 31
0.0
  0
LINE
  5
6B7
  8
0
 10
7.623216
 20
10.592238
 30
0.0
 11
7.662894
 21
10.592238
 31
0.0
  0
LINE
  5
6B8
  8
0
 10
7.662894
 20
10.592238
 30
0.0
 11
7.923216
 21
10.592238
 31
0.0
  0
LINE
  5
6B9
  8
0
 10
7.923216
 20
10.592238
 30
0.0
 11
8.121603
 21
10.592238
 31
0.0
  0
LINE
  5
6BA
  8
0
 10
8.121603
 20
10.592238
 30
0.0
 11
9.423216
 21
10.592238
 31
0.0
  0
LINE
  5
6BB
  8
0
 10
9.423216
 20
10.592238
 30
0.0
 11
9.462894
 21
10.592238
 31
0.0
  0
LINE
  5
6BC
  8
0
 10
9.462894
 20
10.592238
 30
0.0
 11
9.723216
 21
10.592238
 31
0.0
  0
LINE
  5
6BD
  8
0
 10
9.723216
 20
10.592238
 30
0.0
 11
9.921603
 21
10.592238
 31
0.0
  0
LINE
  5
6BE
  8
0
 10
9.921603
 20
10.592238
 30
0.0
 11
11.223216
 21
10.592238
 31
0.0
  0
LINE
  5
6BF
  8
0
 10
11.223216
 20
10.592238
 30
0.0
 11
11.262894
 21
10.592238
 31
0.0
  0
LINE
  5
6C0
  8
0
 10
11.262894
 20
10.592238
 30
0.0
 11
11.523216
 21
10.592238
 31
0.0
  0
LINE
  5
6C1
  8
0
 10
11.523216
 20
10.592238
 30
0.0
 11
11.721603
 21
10.592238
 31
0.0
  0
LINE
  5
6C2
  8
0
 10
11.721603
 20
10.592238
 30
0.0
 11
13.023216
 21
10.592238
 31
0.0
  0
LINE
  5
6C3
  8
0
 10
13.023216
 20
10.592238
 30
0.0
 11
13.062894
 21
10.592238
 31
0.0
  0
LINE
  5
6C4
  8
0
 10
13.062894
 20
10.592238
 30
0.0
 11
13.323216
 21
10.592238
 31
0.0
  0
LINE
  5
6C5
  8
0
 10
13.323216
 20
10.592238
 30
0.0
 11
13.521603
 21
10.592238
 31
0.0
  0
LINE
  5
6C6
  8
0
 10
13.521603
 20
10.592238
 30
0.0
 11
14.586323
 21
10.592238
 31
0.0
  0
LINE
  5
6C7
  8
0
 10
14.586323
 20
10.592238
 30
0.0
 11
14.626
 21
10.592238
 31
0.0
  0
LINE
  5
6C8
  8
0
 10
0.484
 20
11.092238
 30
0.0
 11
0.744323
 21
11.092238
 31
0.0
  0
LINE
  5
6C9
  8
0
 10
0.484
 20
11.092238
 30
0.0
 11
0.744323
 21
11.092238
 31
0.0
  0
LINE
  5
6CA
  8
0
 10
0.744323
 20
11.092238
 30
0.0
 11
0.908587
 21
11.092238
 31
0.0
  0
LINE
  5
6CB
  8
0
 10
0.908587
 20
11.092238
 30
0.0
 11
2.2102
 21
11.092238
 31
0.0
  0
LINE
  5
6CC
  8
0
 10
2.2102
 20
11.092238
 30
0.0
 11
2.249877
 21
11.092238
 31
0.0
  0
LINE
  5
6CD
  8
0
 10
2.249877
 20
11.092238
 30
0.0
 11
2.5102
 21
11.092238
 31
0.0
  0
LINE
  5
6CE
  8
0
 10
2.5102
 20
11.092238
 30
0.0
 11
2.708587
 21
11.092238
 31
0.0
  0
LINE
  5
6CF
  8
0
 10
2.708587
 20
11.092238
 30
0.0
 11
4.0102
 21
11.092238
 31
0.0
  0
LINE
  5
6D0
  8
0
 10
4.0102
 20
11.092238
 30
0.0
 11
4.049877
 21
11.092238
 31
0.0
  0
LINE
  5
6D1
  8
0
 10
4.049877
 20
11.092238
 30
0.0
 11
4.3102
 21
11.092238
 31
0.0
  0
LINE
  5
6D2
  8
0
 10
4.3102
 20
11.092238
 30
0.0
 11
4.508587
 21
11.092238
 31
0.0
  0
LINE
  5
6D3
  8
0
 10
4.508587
 20
11.092238
 30
0.0
 11
5.8102
 21
11.092238
 31
0.0
  0
LINE
  5
6D4
  8
0
 10
5.8102
 20
11.092238
 30
0.0
 11
5.849877
 21
11.092238
 31
0.0
  0
LINE
  5
6D5
  8
0
 10
5.849877
 20
11.092238
 30
0.0
 11
6.1102
 21
11.092238
 31
0.0
  0
LINE
  5
6D6
  8
0
 10
6.1102
 20
11.092238
 30
0.0
 11
6.308587
 21
11.092238
 31
0.0
  0
LINE
  5
6D7
  8
0
 10
6.308587
 20
11.092238
 30
0.0
 11
7.6102
 21
11.092238
 31
0.0
  0
LINE
  5
6D8
  8
0
 10
7.6102
 20
11.092238
 30
0.0
 11
7.649877
 21
11.092238
 31
0.0
  0
LINE
  5
6D9
  8
0
 10
7.649877
 20
11.092238
 30
0.0
 11
7.9102
 21
11.092238
 31
0.0
  0
LINE
  5
6DA
  8
0
 10
7.9102
 20
11.092238
 30
0.0
 11
8.108587
 21
11.092238
 31
0.0
  0
LINE
  5
6DB
  8
0
 10
8.108587
 20
11.092238
 30
0.0
 11
9.4102
 21
11.092238
 31
0.0
  0
LINE
  5
6DC
  8
0
 10
9.4102
 20
11.092238
 30
0.0
 11
9.449877
 21
11.092238
 31
0.0
  0
LINE
  5
6DD
  8
0
 10
9.449877
 20
11.092238
 30
0.0
 11
9.7102
 21
11.092238
 31
0.0
  0
LINE
  5
6DE
  8
0
 10
9.7102
 20
11.092238
 30
0.0
 11
9.908587
 21
11.092238
 31
0.0
  0
LINE
  5
6DF
  8
0
 10
9.908587
 20
11.092238
 30
0.0
 11
11.2102
 21
11.092238
 31
0.0
  0
LINE
  5
6E0
  8
0
 10
11.2102
 20
11.092238
 30
0.0
 11
11.249877
 21
11.092238
 31
0.0
  0
LINE
  5
6E1
  8
0
 10
11.249877
 20
11.092238
 30
0.0
 11
11.5102
 21
11.092238
 31
0.0
  0
LINE
  5
6E2
  8
0
 10
11.5102
 20
11.092238
 30
0.0
 11
11.708587
 21
11.092238
 31
0.0
  0
LINE
  5
6E3
  8
0
 10
11.708587
 20
11.092238
 30
0.0
 11
13.0102
 21
11.092238
 31
0.0
  0
LINE
  5
6E4
  8
0
 10
13.0102
 20
11.092238
 30
0.0
 11
13.049877
 21
11.092238
 31
0.0
  0
LINE
  5
6E5
  8
0
 10
13.049877
 20
11.092238
 30
0.0
 11
13.3102
 21
11.092238
 31
0.0
  0
LINE
  5
6E6
  8
0
 10
13.3102
 20
11.092238
 30
0.0
 11
13.508587
 21
11.092238
 31
0.0
  0
LINE
  5
6E7
  8
0
 10
13.508587
 20
11.092238
 30
0.0
 11
14.586323
 21
11.092238
 31
0.0
  0
LINE
  5
6E8
  8
0
 10
14.586323
 20
11.092238
 30
0.0
 11
14.626
 21
11.092238
 31
0.0
  0
LINE
  5
6E9
  8
0
 10
0.468
 20
11.592238
 30
0.0
 11
0.728323
 21
11.592238
 31
0.0
  0
LINE
  5
6EA
  8
0
 10
0.468
 20
11.592238
 30
0.0
 11
0.728323
 21
11.592238
 31
0.0
  0
LINE
  5
6EB
  8
0
 10
0.728323
 20
11.592238
 30
0.0
 11
0.894703
 21
11.592238
 31
0.0
  0
LINE
  5
6EC
  8
0
 10
0.894703
 20
11.592238
 30
0.0
 11
2.196316
 21
11.592238
 31
0.0
  0
LINE
  5
6ED
  8
0
 10
2.196316
 20
11.592238
 30
0.0
 11
2.235994
 21
11.592238
 31
0.0
  0
LINE
  5
6EE
  8
0
 10
2.235994
 20
11.592238
 30
0.0
 11
2.496316
 21
11.592238
 31
0.0
  0
LINE
  5
6EF
  8
0
 10
2.496316
 20
11.592238
 30
0.0
 11
2.694703
 21
11.592238
 31
0.0
  0
LINE
  5
6F0
  8
0
 10
2.694703
 20
11.592238
 30
0.0
 11
3.996316
 21
11.592238
 31
0.0
  0
LINE
  5
6F1
  8
0
 10
3.996316
 20
11.592238
 30
0.0
 11
4.035994
 21
11.592238
 31
0.0
  0
LINE
  5
6F2
  8
0
 10
4.035994
 20
11.592238
 30
0.0
 11
4.296316
 21
11.592238
 31
0.0
  0
LINE
  5
6F3
  8
0
 10
4.296316
 20
11.592238
 30
0.0
 11
4.494703
 21
11.592238
 31
0.0
  0
LINE
  5
6F4
  8
0
 10
4.494703
 20
11.592238
 30
0.0
 11
5.796316
 21
11.592238
 31
0.0
  0
LINE
  5
6F5
  8
0
 10
5.796316
 20
11.592238
 30
0.0
 11
5.835994
 21
11.592238
 31
0.0
  0
LINE
  5
6F6
  8
0
 10
5.835994
 20
11.592238
 30
0.0
 11
6.096316
 21
11.592238
 31
0.0
  0
LINE
  5
6F7
  8
0
 10
6.096316
 20
11.592238
 30
0.0
 11
6.294703
 21
11.592238
 31
0.0
  0
LINE
  5
6F8
  8
0
 10
6.294703
 20
11.592238
 30
0.0
 11
7.596316
 21
11.592238
 31
0.0
  0
LINE
  5
6F9
  8
0
 10
7.596316
 20
11.592238
 30
0.0
 11
7.635994
 21
11.592238
 31
0.0
  0
LINE
  5
6FA
  8
0
 10
7.635994
 20
11.592238
 30
0.0
 11
7.896316
 21
11.592238
 31
0.0
  0
LINE
  5
6FB
  8
0
 10
7.896316
 20
11.592238
 30
0.0
 11
8.094703
 21
11.592238
 31
0.0
  0
LINE
  5
6FC
  8
0
 10
8.094703
 20
11.592238
 30
0.0
 11
9.396316
 21
11.592238
 31
0.0
  0
LINE
  5
6FD
  8
0
 10
9.396316
 20
11.592238
 30
0.0
 11
9.435994
 21
11.592238
 31
0.0
  0
LINE
  5
6FE
  8
0
 10
9.435994
 20
11.592238
 30
0.0
 11
9.696316
 21
11.592238
 31
0.0
  0
LINE
  5
6FF
  8
0
 10
9.696316
 20
11.592238
 30
0.0
 11
9.894703
 21
11.592238
 31
0.0
  0
LINE
  5
700
  8
0
 10
9.894703
 20
11.592238
 30
0.0
 11
11.196316
 21
11.592238
 31
0.0
  0
LINE
  5
701
  8
0
 10
11.196316
 20
11.592238
 30
0.0
 11
11.235994
 21
11.592238
 31
0.0
  0
LINE
  5
702
  8
0
 10
11.235994
 20
11.592238
 30
0.0
 11
11.496316
 21
11.592238
 31
0.0
  0
LINE
  5
703
  8
0
 10
11.496316
 20
11.592238
 30
0.0
 11
11.694703
 21
11.592238
 31
0.0
  0
LINE
  5
704
  8
0
 10
11.694703
 20
11.592238
 30
0.0
 11
12.996316
 21
11.592238
 31
0.0
  0
LINE
  5
705
  8
0
 10
12.996316
 20
11.592238
 30
0.0
 11
13.035994
 21
11.592238
 31
0.0
  0
LINE
  5
706
  8
0
 10
13.035994
 20
11.592238
 30
0.0
 11
13.296316
 21
11.592238
 31
0.0
  0
LINE
  5
707
  8
0
 10
13.296316
 20
11.592238
 30
0.0
 11
13.494703
 21
11.592238
 31
0.0
  0
LINE
  5
708
  8
0
 10
13.494703
 20
11.592238
 30
0.0
 11
14.586323
 21
11.592238
 31
0.0
  0
LINE
  5
709
  8
0
 10
14.586323
 20
11.592238
 30
0.0
 11
14.626
 21
11.592238
 31
0.0
  0
LINE
  5
70A
  8
0
 10
0.453
 20
12.092238
 30
0.0
 11
0.713323
 21
12.092238
 31
0.0
  0
LINE
  5
70B
  8
0
 10
0.453
 20
12.092238
 30
0.0
 11
0.713323
 21
12.092238
 31
0.0
  0
LINE
  5
70C
  8
0
 10
0.713323
 20
12.092238
 30
0.0
 11
0.881687
 21
12.092238
 31
0.0
  0
LINE
  5
70D
  8
0
 10
0.881687
 20
12.092238
 30
0.0
 11
2.1833
 21
12.092238
 31
0.0
  0
LINE
  5
70E
  8
0
 10
2.1833
 20
12.092238
 30
0.0
 11
2.222977
 21
12.092238
 31
0.0
  0
LINE
  5
70F
  8
0
 10
2.222977
 20
12.092238
 30
0.0
 11
2.4833
 21
12.092238
 31
0.0
  0
LINE
  5
710
  8
0
 10
2.4833
 20
12.092238
 30
0.0
 11
2.681687
 21
12.092238
 31
0.0
  0
LINE
  5
711
  8
0
 10
2.681687
 20
12.092238
 30
0.0
 11
3.9833
 21
12.092238
 31
0.0
  0
LINE
  5
712
  8
0
 10
3.9833
 20
12.092238
 30
0.0
 11
4.022977
 21
12.092238
 31
0.0
  0
LINE
  5
713
  8
0
 10
4.022977
 20
12.092238
 30
0.0
 11
4.2833
 21
12.092238
 31
0.0
  0
LINE
  5
714
  8
0
 10
4.2833
 20
12.092238
 30
0.0
 11
4.481687
 21
12.092238
 31
0.0
  0
LINE
  5
715
  8
0
 10
4.481687
 20
12.092238
 30
0.0
 11
5.7833
 21
12.092238
 31
0.0
  0
LINE
  5
716
  8
0
 10
5.7833
 20
12.092238
 30
0.0
 11
5.822977
 21
12.092238
 31
0.0
  0
LINE
  5
717
  8
0
 10
5.822977
 20
12.092238
 30
0.0
 11
6.0833
 21
12.092238
 31
0.0
  0
LINE
  5
718
  8
0
 10
6.0833
 20
12.092238
 30
0.0
 11
6.281687
 21
12.092238
 31
0.0
  0
LINE
  5
719
  8
0
 10
6.281687
 20
12.092238
 30
0.0
 11
7.5833
 21
12.092238
 31
0.0
  0
LINE
  5
71A
  8
0
 10
7.5833
 20
12.092238
 30
0.0
 11
7.622977
 21
12.092238
 31
0.0
  0
LINE
  5
71B
  8
0
 10
7.622977
 20
12.092238
 30
0.0
 11
7.8833
 21
12.092238
 31
0.0
  0
LINE
  5
71C
  8
0
 10
7.8833
 20
12.092238
 30
0.0
 11
8.081687
 21
12.092238
 31
0.0
  0
LINE
  5
71D
  8
0
 10
8.081687
 20
12.092238
 30
0.0
 11
9.3833
 21
12.092238
 31
0.0
  0
LINE
  5
71E
  8
0
 10
9.3833
 20
12.092238
 30
0.0
 11
9.422977
 21
12.092238
 31
0.0
  0
LINE
  5
71F
  8
0
 10
9.422977
 20
12.092238
 30
0.0
 11
9.6833
 21
12.092238
 31
0.0
  0
LINE
  5
720
  8
0
 10
9.6833
 20
12.092238
 30
0.0
 11
9.881687
 21
12.092238
 31
0.0
  0
LINE
  5
721
  8
0
 10
9.881687
 20
12.092238
 30
0.0
 11
11.1833
 21
12.092238
 31
0.0
  0
LINE
  5
722
  8
0
 10
11.1833
 20
12.092238
 30
0.0
 11
11.222977
 21
12.092238
 31
0.0
  0
LINE
  5
723
  8
0
 10
11.222977
 20
12.092238
 30
0.0
 11
11.4833
 21
12.092238
 31
0.0
  0
LINE
  5
724
  8
0
 10
11.4833
 20
12.092238
 30
0.0
 11
11.681687
 21
12.092238
 31
0.0
  0
LINE
  5
725
  8
0
 10
11.681687
 20
12.092238
 30
0.0
 11
12.9833
 21
12.092238
 31
0.0
  0
LINE
  5
726
  8
0
 10
12.9833
 20
12.092238
 30
0.0
 11
13.022977
 21
12.092238
 31
0.0
  0
LINE
  5
727
  8
0
 10
13.022977
 20
12.092238
 30
0.0
 11
13.2833
 21
12.092238
 31
0.0
  0
LINE
  5
728
  8
0
 10
13.2833
 20
12.092238
 30
0.0
 11
13.481687
 21
12.092238
 31
0.0
  0
LINE
  5
729
  8
0
 10
13.481687
 20
12.092238
 30
0.0
 11
14.586323
 21
12.092238
 31
0.0
  0
LINE
  5
72A
  8
0
 10
14.586323
 20
12.092238
 30
0.0
 11
14.626
 21
12.092238
 31
0.0
  0
LINE
  5
72B
  8
0
 10
0.438
 20
12.592238
 30
0.0
 11
0.698323
 21
12.592238
 31
0.0
  0
LINE
  5
72C
  8
0
 10
0.438
 20
12.592238
 30
0.0
 11
0.698323
 21
12.592238
 31
0.0
  0
LINE
  5
72D
  8
0
 10
0.698323
 20
12.592238
 30
0.0
 11
0.868671
 21
12.592238
 31
0.0
  0
LINE
  5
72E
  8
0
 10
0.868671
 20
12.592238
 30
0.0
 11
2.170284
 21
12.592238
 31
0.0
  0
LINE
  5
72F
  8
0
 10
2.170284
 20
12.592238
 30
0.0
 11
2.209961
 21
12.592238
 31
0.0
  0
LINE
  5
730
  8
0
 10
2.209961
 20
12.592238
 30
0.0
 11
2.470284
 21
12.592238
 31
0.0
  0
LINE
  5
731
  8
0
 10
2.470284
 20
12.592238
 30
0.0
 11
2.668671
 21
12.592238
 31
0.0
  0
LINE
  5
732
  8
0
 10
2.668671
 20
12.592238
 30
0.0
 11
3.970284
 21
12.592238
 31
0.0
  0
LINE
  5
733
  8
0
 10
3.970284
 20
12.592238
 30
0.0
 11
4.009961
 21
12.592238
 31
0.0
  0
LINE
  5
734
  8
0
 10
4.009961
 20
12.592238
 30
0.0
 11
4.270284
 21
12.592238
 31
0.0
  0
LINE
  5
735
  8
0
 10
4.270284
 20
12.592238
 30
0.0
 11
4.468671
 21
12.592238
 31
0.0
  0
LINE
  5
736
  8
0
 10
4.468671
 20
12.592238
 30
0.0
 11
5.770284
 21
12.592238
 31
0.0
  0
LINE
  5
737
  8
0
 10
5.770284
 20
12.592238
 30
0.0
 11
5.809961
 21
12.592238
 31
0.0
  0
LINE
  5
738
  8
0
 10
5.809961
 20
12.592238
 30
0.0
 11
6.070284
 21
12.592238
 31
0.0
  0
LINE
  5
739
  8
0
 10
6.070284
 20
12.592238
 30
0.0
 11
6.268671
 21
12.592238
 31
0.0
  0
LINE
  5
73A
  8
0
 10
6.268671
 20
12.592238
 30
0.0
 11
7.570284
 21
12.592238
 31
0.0
  0
LINE
  5
73B
  8
0
 10
7.570284
 20
12.592238
 30
0.0
 11
7.609961
 21
12.592238
 31
0.0
  0
LINE
  5
73C
  8
0
 10
7.609961
 20
12.592238
 30
0.0
 11
7.870284
 21
12.592238
 31
0.0
  0
LINE
  5
73D
  8
0
 10
7.870284
 20
12.592238
 30
0.0
 11
8.068671
 21
12.592238
 31
0.0
  0
LINE
  5
73E
  8
0
 10
8.068671
 20
12.592238
 30
0.0
 11
9.370284
 21
12.592238
 31
0.0
  0
LINE
  5
73F
  8
0
 10
9.370284
 20
12.592238
 30
0.0
 11
9.409961
 21
12.592238
 31
0.0
  0
LINE
  5
740
  8
0
 10
9.409961
 20
12.592238
 30
0.0
 11
9.670284
 21
12.592238
 31
0.0
  0
LINE
  5
741
  8
0
 10
9.670284
 20
12.592238
 30
0.0
 11
9.868671
 21
12.592238
 31
0.0
  0
LINE
  5
742
  8
0
 10
9.868671
 20
12.592238
 30
0.0
 11
11.170284
 21
12.592238
 31
0.0
  0
LINE
  5
743
  8
0
 10
11.170284
 20
12.592238
 30
0.0
 11
11.209961
 21
12.592238
 31
0.0
  0
LINE
  5
744
  8
0
 10
11.209961
 20
12.592238
 30
0.0
 11
11.470284
 21
12.592238
 31
0.0
  0
LINE
  5
745
  8
0
 10
11.470284
 20
12.592238
 30
0.0
 11
11.668671
 21
12.592238
 31
0.0
  0
LINE
  5
746
  8
0
 10
11.668671
 20
12.592238
 30
0.0
 11
12.970284
 21
12.592238
 31
0.0
  0
LINE
  5
747
  8
0
 10
12.970284
 20
12.592238
 30
0.0
 11
13.009961
 21
12.592238
 31
0.0
  0
LINE
  5
748
  8
0
 10
13.009961
 20
12.592238
 30
0.0
 11
13.270284
 21
12.592238
 31
0.0
  0
LINE
  5
749
  8
0
 10
13.270284
 20
12.592238
 30
0.0
 11
13.468671
 21
12.592238
 31
0.0
  0
LINE
  5
74A
  8
0
 10
13.468671
 20
12.592238
 30
0.0
 11
14.586323
 21
12.592238
 31
0.0
  0
LINE
  5
74B
  8
0
 10
14.586323
 20
12.592238
 30
0.0
 11
14.626
 21
12.592238
 31
0.0
  0
LINE
  5
74C
  8
0
 10
0.451
 20
13.092238
 30
0.0
 11
0.711323
 21
13.092238
 31
0.0
  0
LINE
  5
74D
  8
0
 10
0.451
 20
13.092238
 30
0.0
 11
0.711323
 21
13.092238
 31
0.0
  0
LINE
  5
74E
  8
0
 10
0.711323
 20
13.092238
 30
0.0
 11
0.879952
 21
13.092238
 31
0.0
  0
LINE
  5
74F
  8
0
 10
0.879952
 20
13.092238
 30
0.0
 11
2.181565
 21
13.092238
 31
0.0
  0
LINE
  5
750
  8
0
 10
2.181565
 20
13.092238
 30
0.0
 11
2.221242
 21
13.092238
 31
0.0
  0
LINE
  5
751
  8
0
 10
2.221242
 20
13.092238
 30
0.0
 11
2.481565
 21
13.092238
 31
0.0
  0
LINE
  5
752
  8
0
 10
2.481565
 20
13.092238
 30
0.0
 11
2.679952
 21
13.092238
 31
0.0
  0
LINE
  5
753
  8
0
 10
2.679952
 20
13.092238
 30
0.0
 11
3.981565
 21
13.092238
 31
0.0
  0
LINE
  5
754
  8
0
 10
3.981565
 20
13.092238
 30
0.0
 11
4.021242
 21
13.092238
 31
0.0
  0
LINE
  5
755
  8
0
 10
4.021242
 20
13.092238
 30
0.0
 11
4.281565
 21
13.092238
 31
0.0
  0
LINE
  5
756
  8
0
 10
4.281565
 20
13.092238
 30
0.0
 11
4.479952
 21
13.092238
 31
0.0
  0
LINE
  5
757
  8
0
 10
4.479952
 20
13.092238
 30
0.0
 11
5.781565
 21
13.092238
 31
0.0
  0
LINE
  5
758
  8
0
 10
5.781565
 20
13.092238
 30
0.0
 11
5.821242
 21
13.092238
 31
0.0
  0
LINE
  5
759
  8
0
 10
5.821242
 20
13.092238
 30
0.0
 11
6.081565
 21
13.092238
 31
0.0
  0
LINE
  5
75A
  8
0
 10
6.081565
 20
13.092238
 30
0.0
 11
6.279952
 21
13.092238
 31
0.0
  0
LINE
  5
75B
  8
0
 10
6.279952
 20
13.092238
 30
0.0
 11
7.581565
 21
13.092238
 31
0.0
  0
LINE
  5
75C
  8
0
 10
7.581565
 20
13.092238
 30
0.0
 11
7.621242
 21
13.092238
 31
0.0
  0
LINE
  5
75D
  8
0
 10
7.621242
 20
13.092238
 30
0.0
 11
7.881565
 21
13.092238
 31
0.0
  0
LINE
  5
75E
  8
0
 10
7.881565
 20
13.092238
 30
0.0
 11
8.079952
 21
13.092238
 31
0.0
  0
LINE
  5
75F
  8
0
 10
8.079952
 20
13.092238
 30
0.0
 11
9.381565
 21
13.092238
 31
0.0
  0
LINE
  5
760
  8
0
 10
9.381565
 20
13.092238
 30
0.0
 11
9.421242
 21
13.092238
 31
0.0
  0
LINE
  5
761
  8
0
 10
9.421242
 20
13.092238
 30
0.0
 11
9.681565
 21
13.092238
 31
0.0
  0
LINE
  5
762
  8
0
 10
9.681565
 20
13.092238
 30
0.0
 11
9.879952
 21
13.092238
 31
0.0
  0
LINE
  5
763
  8
0
 10
9.879952
 20
13.092238
 30
0.0
 11
11.181565
 21
13.092238
 31
0.0
  0
LINE
  5
764
  8
0
 10
11.181565
 20
13.092238
 30
0.0
 11
11.221242
 21
13.092238
 31
0.0
  0
LINE
  5
765
  8
0
 10
11.221242
 20
13.092238
 30
0.0
 11
11.481565
 21
13.092238
 31
0.0
  0
LINE
  5
766
  8
0
 10
11.481565
 20
13.092238
 30
0.0
 11
11.679952
 21
13.092238
 31
0.0
  0
LINE
  5
767
  8
0
 10
11.679952
 20
13.092238
 30
0.0
 11
12.981565
 21
13.092238
 31
0.0
  0
LINE
  5
768
  8
0
 10
12.981565
 20
13.092238
 30
0.0
 11
13.021242
 21
13.092238
 31
0.0
  0
LINE
  5
769
  8
0
 10
13.021242
 20
13.092238
 30
0.0
 11
13.281565
 21
13.092238
 31
0.0
  0
LINE
  5
76A
  8
0
 10
13.281565
 20
13.092238
 30
0.0
 11
13.479952
 21
13.092238
 31
0.0
  0
LINE
  5
76B
  8
0
 10
13.479952
 20
13.092238
 30
0.0
 11
14.586323
 21
13.092238
 31
0.0
  0
LINE
  5
76C
  8
0
 10
14.586323
 20
13.092238
 30
0.0
 11
14.626
 21
13.092238
 31
0.0
  0
LINE
  5
76D
  8
0
 10
0.511
 20
13.592238
 30
0.0
 11
0.771323
 21
13.592238
 31
0.0
  0
LINE
  5
76E
  8
0
 10
0.511
 20
13.592238
 30
0.0
 11
0.771323
 21
13.592238
 31
0.0
  0
LINE
  5
76F
  8
0
 10
0.771323
 20
13.592238
 30
0.0
 11
0.932016
 21
13.592238
 31
0.0
  0
LINE
  5
770
  8
0
 10
0.932016
 20
13.592238
 30
0.0
 11
2.233629
 21
13.592238
 31
0.0
  0
LINE
  5
771
  8
0
 10
2.233629
 20
13.592238
 30
0.0
 11
2.273306
 21
13.592238
 31
0.0
  0
LINE
  5
772
  8
0
 10
2.273306
 20
13.592238
 30
0.0
 11
2.533629
 21
13.592238
 31
0.0
  0
LINE
  5
773
  8
0
 10
2.533629
 20
13.592238
 30
0.0
 11
2.732016
 21
13.592238
 31
0.0
  0
LINE
  5
774
  8
0
 10
2.732016
 20
13.592238
 30
0.0
 11
4.033629
 21
13.592238
 31
0.0
  0
LINE
  5
775
  8
0
 10
4.033629
 20
13.592238
 30
0.0
 11
4.073306
 21
13.592238
 31
0.0
  0
LINE
  5
776
  8
0
 10
4.073306
 20
13.592238
 30
0.0
 11
4.333629
 21
13.592238
 31
0.0
  0
LINE
  5
777
  8
0
 10
4.333629
 20
13.592238
 30
0.0
 11
4.532016
 21
13.592238
 31
0.0
  0
LINE
  5
778
  8
0
 10
4.532016
 20
13.592238
 30
0.0
 11
5.833629
 21
13.592238
 31
0.0
  0
LINE
  5
779
  8
0
 10
5.833629
 20
13.592238
 30
0.0
 11
5.873306
 21
13.592238
 31
0.0
  0
LINE
  5
77A
  8
0
 10
5.873306
 20
13.592238
 30
0.0
 11
6.133629
 21
13.592238
 31
0.0
  0
LINE
  5
77B
  8
0
 10
6.133629
 20
13.592238
 30
0.0
 11
6.332016
 21
13.592238
 31
0.0
  0
LINE
  5
77C
  8
0
 10
6.332016
 20
13.592238
 30
0.0
 11
7.633629
 21
13.592238
 31
0.0
  0
LINE
  5
77D
  8
0
 10
7.633629
 20
13.592238
 30
0.0
 11
7.673306
 21
13.592238
 31
0.0
  0
LINE
  5
77E
  8
0
 10
7.673306
 20
13.592238
 30
0.0
 11
7.933629
 21
13.592238
 31
0.0
  0
LINE
  5
77F
  8
0
 10
7.933629
 20
13.592238
 30
0.0
 11
8.132016
 21
13.592238
 31
0.0
  0
LINE
  5
780
  8
0
 10
8.132016
 20
13.592238
 30
0.0
 11
9.433629
 21
13.592238
 31
0.0
  0
LINE
  5
781
  8
0
 10
9.433629
 20
13.592238
 30
0.0
 11
9.473306
 21
13.592238
 31
0.0
  0
LINE
  5
782
  8
0
 10
9.473306
 20
13.592238
 30
0.0
 11
9.733629
 21
13.592238
 31
0.0
  0
LINE
  5
783
  8
0
 10
9.733629
 20
13.592238
 30
0.0
 11
9.932016
 21
13.592238
 31
0.0
  0
LINE
  5
784
  8
0
 10
9.932016
 20
13.592238
 30
0.0
 11
11.233629
 21
13.592238
 31
0.0
  0
LINE
  5
785
  8
0
 10
11.233629
 20
13.592238
 30
0.0
 11
11.273306
 21
13.592238
 31
0.0
  0
LINE
  5
786
  8
0
 10
11.273306
 20
13.592238
 30
0.0
 11
11.533629
 21
13.592238
 31
0.0
  0
LINE
  5
787
  8
0
 10
11.533629
 20
13.592238
 30
0.0
 11
11.732016
 21
13.592238
 31
0.0
  0
LINE
  5
788
  8
0
 10
11.732016
 20
13.592238
 30
0.0
 11
13.033629
 21
13.592238
 31
0.0
  0
LINE
  5
789
  8
0
 10
13.033629
 20
13.592238
 30
0.0
 11
13.073306
 21
13.592238
 31
0.0
  0
LINE
  5
78A
  8
0
 10
13.073306
 20
13.592238
 30
0.0
 11
13.333629
 21
13.592238
 31
0.0
  0
LINE
  5
78B
  8
0
 10
13.333629
 20
13.592238
 30
0.0
 11
13.532016
 21
13.592238
 31
0.0
  0
LINE
  5
78C
  8
0
 10
13.532016
 20
13.592238
 30
0.0
 11
14.586323
 21
13.592238
 31
0.0
  0
LINE
  5
78D
  8
0
 10
14.586323
 20
13.592238
 30
0.0
 11
14.626
 21
13.592238
 31
0.0
  0
LINE
  5
78E
  8
0
 10
0.654
 20
14.092238
 30
0.0
 11
0.914323
 21
14.092238
 31
0.0
  0
LINE
  5
78F
  8
0
 10
0.654
 20
14.092238
 30
0.0
 11
0.914323
 21
14.092238
 31
0.0
  0
LINE
  5
790
  8
0
 10
0.914323
 20
14.092238
 30
0.0
 11
1.056103
 21
14.092238
 31
0.0
  0
LINE
  5
791
  8
0
 10
1.056103
 20
14.092238
 30
0.0
 11
2.357716
 21
14.092238
 31
0.0
  0
LINE
  5
792
  8
0
 10
2.357716
 20
14.092238
 30
0.0
 11
2.397394
 21
14.092238
 31
0.0
  0
LINE
  5
793
  8
0
 10
2.397394
 20
14.092238
 30
0.0
 11
2.657716
 21
14.092238
 31
0.0
  0
LINE
  5
794
  8
0
 10
2.657716
 20
14.092238
 30
0.0
 11
2.856103
 21
14.092238
 31
0.0
  0
LINE
  5
795
  8
0
 10
2.856103
 20
14.092238
 30
0.0
 11
4.157716
 21
14.092238
 31
0.0
  0
LINE
  5
796
  8
0
 10
4.157716
 20
14.092238
 30
0.0
 11
4.197394
 21
14.092238
 31
0.0
  0
LINE
  5
797
  8
0
 10
4.197394
 20
14.092238
 30
0.0
 11
4.457716
 21
14.092238
 31
0.0
  0
LINE
  5
798
  8
0
 10
4.457716
 20
14.092238
 30
0.0
 11
4.656103
 21
14.092238
 31
0.0
  0
LINE
  5
799
  8
0
 10
4.656103
 20
14.092238
 30
0.0
 11
5.957716
 21
14.092238
 31
0.0
  0
LINE
  5
79A
  8
0
 10
5.957716
 20
14.092238
 30
0.0
 11
5.997394
 21
14.092238
 31
0.0
  0
LINE
  5
79B
  8
0
 10
5.997394
 20
14.092238
 30
0.0
 11
6.257716
 21
14.092238
 31
0.0
  0
LINE
  5
79C
  8
0
 10
6.257716
 20
14.092238
 30
0.0
 11
6.456103
 21
14.092238
 31
0.0
  0
LINE
  5
79D
  8
0
 10
6.456103
 20
14.092238
 30
0.0
 11
7.757716
 21
14.092238
 31
0.0
  0
LINE
  5
79E
  8
0
 10
7.757716
 20
14.092238
 30
0.0
 11
7.797394
 21
14.092238
 31
0.0
  0
LINE
  5
79F
  8
0
 10
7.797394
 20
14.092238
 30
0.0
 11
8.057716
 21
14.092238
 31
0.0
  0
LINE
  5
7A0
  8
0
 10
8.057716
 20
14.092238
 30
0.0
 11
8.256103
 21
14.092238
 31
0.0
  0
LINE
  5
7A1
  8
0
 10
8.256103
 20
14.092238
 30
0.0
 11
9.557716
 21
14.092238
 31
0.0
  0
LINE
  5
7A2
  8
0
 10
9.557716
 20
14.092238
 30
0.0
 11
9.597394
 21
14.092238
 31
0.0
  0
LINE
  5
7A3
  8
0
 10
9.597394
 20
14.092238
 30
0.0
 11
9.857716
 21
14.092238
 31
0.0
  0
LINE
  5
7A4
  8
0
 10
9.857716
 20
14.092238
 30
0.0
 11
10.056103
 21
14.092238
 31
0.0
  0
LINE
  5
7A5
  8
0
 10
10.056103
 20
14.092238
 30
0.0
 11
11.357716
 21
14.092238
 31
0.0
  0
LINE
  5
7A6
  8
0
 10
11.357716
 20
14.092238
 30
0.0
 11
11.397394
 21
14.092238
 31
0.0
  0
LINE
  5
7A7
  8
0
 10
11.397394
 20
14.092238
 30
0.0
 11
11.657716
 21
14.092238
 31
0.0
  0
LINE
  5
7A8
  8
0
 10
11.657716
 20
14.092238
 30
0.0
 11
11.856103
 21
14.092238
 31
0.0
  0
LINE
  5
7A9
  8
0
 10
11.856103
 20
14.092238
 30
0.0
 11
13.157716
 21
14.092238
 31
0.0
  0
LINE
  5
7AA
  8
0
 10
13.157716
 20
14.092238
 30
0.0
 11
13.197394
 21
14.092238
 31
0.0
  0
LINE
  5
7AB
  8
0
 10
13.197394
 20
14.092238
 30
0.0
 11
13.457716
 21
14.092238
 31
0.0
  0
LINE
  5
7AC
  8
0
 10
13.457716
 20
14.092238
 30
0.0
 11
13.656103
 21
14.092238
 31
0.0
  0
LINE
  5
7AD
  8
0
 10
13.656103
 20
14.092238
 30
0.0
 11
14.586323
 21
14.092238
 31
0.0
  0
LINE
  5
7AE
  8
0
 10
14.586323
 20
14.092238
 30
0.0
 11
14.626
 21
14.092238
 31
0.0
  0
LINE
  5
7AF
  8
0
 10
1.221
 20
14.592238
 30
0.0
 11
1.481323
 21
14.592238
 31
0.0
  0
LINE
  5
7B0
  8
0
 10
1.221
 20
14.592238
 30
0.0
 11
1.481323
 21
14.592238
 31
0.0
  0
LINE
  5
7B1
  8
0
 10
1.481323
 20
14.592238
 30
0.0
 11
1.548113
 21
14.592238
 31
0.0
  0
LINE
  5
7B2
  8
0
 10
1.548113
 20
14.592238
 30
0.0
 11
1.58779
 21
14.592238
 31
0.0
  0
LINE
  5
7B3
  8
0
 10
1.58779
 20
14.592238
 30
0.0
 11
2.889403
 21
14.592238
 31
0.0
  0
LINE
  5
7B4
  8
0
 10
2.889403
 20
14.592238
 30
0.0
 11
3.08779
 21
14.592238
 31
0.0
  0
LINE
  5
7B5
  8
0
 10
3.08779
 20
14.592238
 30
0.0
 11
3.348113
 21
14.592238
 31
0.0
  0
LINE
  5
7B6
  8
0
 10
3.348113
 20
14.592238
 30
0.0
 11
3.38779
 21
14.592238
 31
0.0
  0
LINE
  5
7B7
  8
0
 10
3.38779
 20
14.592238
 30
0.0
 11
4.689403
 21
14.592238
 31
0.0
  0
LINE
  5
7B8
  8
0
 10
4.689403
 20
14.592238
 30
0.0
 11
4.88779
 21
14.592238
 31
0.0
  0
LINE
  5
7B9
  8
0
 10
4.88779
 20
14.592238
 30
0.0
 11
5.148113
 21
14.592238
 31
0.0
  0
LINE
  5
7BA
  8
0
 10
5.148113
 20
14.592238
 30
0.0
 11
5.18779
 21
14.592238
 31
0.0
  0
LINE
  5
7BB
  8
0
 10
5.18779
 20
14.592238
 30
0.0
 11
5.923635
 21
14.592238
 31
0.0
  0
LINE
  5
7BC
  8
0
 10
5.923635
 20
14.592238
 30
0.0
 11
6.183958
 21
14.592238
 31
0.0
  0
LINE
  5
7BD
  8
0
 10
6.183958
 20
14.592238
 30
0.0
 11
6.382345
 21
14.592238
 31
0.0
  0
LINE
  5
7BE
  8
0
 10
6.382345
 20
14.592238
 30
0.0
 11
7.683958
 21
14.592238
 31
0.0
  0
LINE
  5
7BF
  8
0
 10
7.683958
 20
14.592238
 30
0.0
 11
7.723635
 21
14.592238
 31
0.0
  0
LINE
  5
7C0
  8
0
 10
7.723635
 20
14.592238
 30
0.0
 11
7.983958
 21
14.592238
 31
0.0
  0
LINE
  5
7C1
  8
0
 10
7.983958
 20
14.592238
 30
0.0
 11
8.182345
 21
14.592238
 31
0.0
  0
LINE
  5
7C2
  8
0
 10
8.182345
 20
14.592238
 30
0.0
 11
9.483958
 21
14.592238
 31
0.0
  0
LINE
  5
7C3
  8
0
 10
9.483958
 20
14.592238
 30
0.0
 11
9.523635
 21
14.592238
 31
0.0
  0
LINE
  5
7C4
  8
0
 10
9.523635
 20
14.592238
 30
0.0
 11
9.783958
 21
14.592238
 31
0.0
  0
LINE
  5
7C5
  8
0
 10
9.783958
 20
14.592238
 30
0.0
 11
9.982345
 21
14.592238
 31
0.0
  0
LINE
  5
7C6
  8
0
 10
9.982345
 20
14.592238
 30
0.0
 11
11.283958
 21
14.592238
 31
0.0
  0
LINE
  5
7C7
  8
0
 10
11.283958
 20
14.592238
 30
0.0
 11
11.323635
 21
14.592238
 31
0.0
  0
LINE
  5
7C8
  8
0
 10
11.323635
 20
14.592238
 30
0.0
 11
11.583958
 21
14.592238
 31
0.0
  0
LINE
  5
7C9
  8
0
 10
11.583958
 20
14.592238
 30
0.0
 11
11.782345
 21
14.592238
 31
0.0
  0
LINE
  5
7CA
  8
0
 10
11.782345
 20
14.592238
 30
0.0
 11
13.083958
 21
14.592238
 31
0.0
  0
LINE
  5
7CB
  8
0
 10
13.083958
 20
14.592238
 30
0.0
 11
13.123635
 21
14.592238
 31
0.0
  0
LINE
  5
7CC
  8
0
 10
13.123635
 20
14.592238
 30
0.0
 11
13.383958
 21
14.592238
 31
0.0
  0
LINE
  5
7CD
  8
0
 10
13.383958
 20
14.592238
 30
0.0
 11
13.582345
 21
14.592238
 31
0.0
  0
LINE
  5
7CE
  8
0
 10
13.582345
 20
14.592238
 30
0.0
 11
14.586323
 21
14.592238
 31
0.0
  0
LINE
  5
7CF
  8
0
 10
14.586323
 20
14.592238
 30
0.0
 11
14.626
 21
14.592238
 31
0.0
  0
ENDSEC
  0
EOF
