0
SECTION
2
ENTITIES
0
LINE
8
0
10
2.307
20
0.435
11
1.230
21
0.594
0
0
LINE
8
0
10
2.307
20
0.435
11
1.230
21
0.594
0
0
LINE
8
0
10
0.645
20
1.109
11
0.536
21
1.455
0
0
LINE
8
0
10
0.448
20
2.155
11
0.467
21
3.248
0
0
LINE
8
0
10
0.485
20
3.954
11
0.512
21
5.048
0
0
LINE
8
0
10
0.530
20
5.754
11
0.558
21
6.847
0
0
LINE
8
0
10
0.576
20
7.552
11
0.558
21
8.647
0
0
LINE
8
0
10
0.537
20
9.352
11
0.503
21
10.446
0
0
LINE
8
0
10
0.482
20
11.151
11
0.448
21
12.245
0
0
LINE
8
0
10
0.446
20
12.950
11
0.628
21
14.023
0
0
LINE
8
0
10
1.087
20
14.534
11
2.150
21
14.748
0
0
LINE
8
0
10
2.856
20
14.732
11
3.949
21
14.694
0
0
LINE
8
0
10
4.654
20
14.670
11
5.748
21
14.632
0
0
LINE
8
0
10
6.454
20
14.626
11
7.548
21
14.627
0
0
LINE
8
0
10
8.253
20
14.628
11
9.348
21
14.630
0
0
LINE
8
0
10
10.054
20
14.631
11
11.148
21
14.633
0
0
LINE
8
0
10
11.854
20
14.634
11
12.948
21
14.635
0
0
LINE
8
0
10
13.654
20
14.636
11
14.626
21
14.516
0
0
LINE
8
0
10
14.626
20
13.810
11
14.626
21
12.716
0
0
LINE
8
0
10
14.626
20
12.010
11
14.626
21
10.916
0
0
LINE
8
0
10
14.626
20
10.210
11
14.626
21
9.116
0
0
LINE
8
0
10
14.626
20
8.410
11
14.626
21
7.316
0
0
LINE
8
0
10
14.626
20
6.610
11
14.636
21
5.516
0
0
LINE
8
0
10
14.661
20
4.811
11
14.700
21
3.717
0
0
LINE
8
0
10
14.725
20
3.012
11
14.706
21
1.921
0
0
LINE
8
0
10
14.593
20
1.227
11
14.309
21
0.794
0
0
LINE
8
0
10
14.309
20
0.794
11
13.801
21
0.551
0
0
LINE
8
0
10
13.801
20
0.551
11
14.593
21
1.227
0
0
LINE
8
0
10
13.102
20
0.456
11
12.842
21
0.449
0
0
LINE
8
0
10
12.842
20
0.449
11
12.835
21
0.449
0
0
LINE
8
0
10
12.835
20
0.449
11
12.009
21
0.469
0
0
LINE
8
0
10
11.303
20
0.486
11
10.210
21
0.512
0
0
LINE
8
0
10
9.504
20
0.529
11
8.410
21
0.555
0
0
LINE
8
0
10
7.704
20
0.572
11
6.611
21
0.564
0
0
LINE
8
0
10
5.906
20
0.542
11
4.811
21
0.507
0
0
LINE
8
0
10
4.106
20
0.485
11
3.013
21
0.450
0
0
LINE
8
0
10
0.593
20
1.254
11
0.593
21
1.286
0
0
LINE
8
0
10
0.593
20
1.254
11
0.593
21
1.286
0
0
LINE
8
0
10
0.593
20
1.532
11
0.593
21
1.996
0
0
LINE
8
0
10
0.593
20
1.996
11
0.593
21
2.626
0
0
LINE
8
0
10
0.593
20
3.332
11
0.593
21
3.796
0
0
LINE
8
0
10
0.593
20
3.796
11
0.593
21
4.426
0
0
LINE
8
0
10
0.593
20
5.132
11
0.593
21
5.596
0
0
LINE
8
0
10
0.593
20
5.596
11
0.593
21
6.226
0
0
LINE
8
0
10
0.593
20
6.932
11
0.593
21
7.396
0
0
LINE
8
0
10
0.593
20
7.396
11
0.593
21
8.026
0
0
LINE
8
0
10
0.593
20
8.732
11
0.593
21
9.196
0
0
LINE
8
0
10
0.593
20
9.196
11
0.593
21
9.826
0
0
LINE
8
0
10
0.593
20
10.532
11
0.593
21
10.996
0
0
LINE
8
0
10
0.593
20
10.996
11
0.593
21
11.626
0
0
LINE
8
0
10
0.593
20
12.332
11
0.593
21
12.962
0
0
LINE
8
0
10
0.593
20
12.962
11
0.593
21
13.426
0
0
LINE
8
0
10
1.093
20
1.021
11
1.093
21
1.433
0
0
LINE
8
0
10
1.093
20
1.021
11
1.093
21
1.433
0
0
LINE
8
0
10
1.093
20
1.433
11
1.093
21
1.434
0
0
LINE
8
0
10
1.093
20
2.139
11
1.093
21
2.603
0
0
LINE
8
0
10
1.093
20
2.603
11
1.093
21
3.233
0
0
LINE
8
0
10
1.093
20
3.233
11
1.093
21
3.234
0
0
LINE
8
0
10
1.093
20
3.939
11
1.093
21
4.569
0
0
LINE
8
0
10
1.093
20
4.569
11
1.093
21
5.033
0
0
LINE
8
0
10
1.093
20
5.033
11
1.093
21
5.034
0
0
LINE
8
0
10
1.093
20
5.739
11
1.093
21
6.203
0
0
LINE
8
0
10
1.093
20
6.203
11
1.093
21
6.833
0
0
LINE
8
0
10
1.093
20
6.833
11
1.093
21
6.834
0
0
LINE
8
0
10
1.093
20
7.539
11
1.093
21
8.169
0
0
LINE
8
0
10
1.093
20
8.169
11
1.093
21
8.633
0
0
LINE
8
0
10
1.093
20
8.633
11
1.093
21
8.634
0
0
LINE
8
0
10
1.093
20
9.339
11
1.093
21
9.803
0
0
LINE
8
0
10
1.093
20
9.803
11
1.093
21
10.433
0
0
LINE
8
0
10
1.093
20
10.433
11
1.093
21
10.434
0
0
LINE
8
0
10
1.093
20
11.139
11
1.093
21
11.603
0
0
LINE
8
0
10
1.093
20
11.603
11
1.093
21
12.233
0
0
LINE
8
0
10
1.093
20
12.233
11
1.093
21
12.234
0
0
LINE
8
0
10
1.093
20
12.939
11
1.093
21
13.403
0
0
LINE
8
0
10
1.093
20
13.403
11
1.093
21
14.033
0
0
LINE
8
0
10
1.093
20
14.033
11
1.093
21
14.034
0
0
LINE
8
0
10
1.593
20
1.050
11
1.593
21
1.592
0
0
LINE
8
0
10
1.593
20
1.050
11
1.593
21
1.592
0
0
LINE
8
0
10
1.593
20
2.298
11
1.593
21
2.762
0
0
LINE
8
0
10
1.593
20
2.762
11
1.593
21
3.392
0
0
LINE
8
0
10
1.593
20
4.098
11
1.593
21
4.562
0
0
LINE
8
0
10
1.593
20
4.562
11
1.593
21
5.192
0
0
LINE
8
0
10
1.593
20
5.898
11
1.593
21
6.362
0
0
LINE
8
0
10
1.593
20
6.362
11
1.593
21
6.992
0
0
LINE
8
0
10
1.593
20
7.698
11
1.593
21
8.162
0
0
LINE
8
0
10
1.593
20
8.162
11
1.593
21
8.792
0
0
LINE
8
0
10
1.593
20
9.498
11
1.593
21
9.962
0
0
LINE
8
0
10
1.593
20
9.962
11
1.593
21
10.592
0
0
LINE
8
0
10
1.593
20
11.298
11
1.593
21
11.762
0
0
LINE
8
0
10
1.593
20
11.762
11
1.593
21
12.392
0
0
LINE
8
0
10
1.593
20
13.098
11
1.593
21
13.728
0
0
LINE
8
0
10
1.593
20
13.728
11
1.593
21
14.192
0
0
LINE
8
0
10
2.093
20
1.053
11
2.093
21
1.640
0
0
LINE
8
0
10
2.093
20
1.053
11
2.093
21
1.640
0
0
LINE
8
0
10
2.093
20
1.640
11
2.093
21
1.641
0
0
LINE
8
0
10
2.093
20
2.346
11
2.093
21
2.810
0
0
LINE
8
0
10
2.093
20
2.810
11
2.093
21
3.440
0
0
LINE
8
0
10
2.093
20
3.440
11
2.093
21
3.441
0
0
LINE
8
0
10
2.093
20
4.146
11
2.093
21
4.610
0
0
LINE
8
0
10
2.093
20
4.610
11
2.093
21
5.240
0
0
LINE
8
0
10
2.093
20
5.240
11
2.093
21
5.241
0
0
LINE
8
0
10
2.093
20
5.946
11
2.093
21
6.410
0
0
LINE
8
0
10
2.093
20
6.410
11
2.093
21
7.040
0
0
LINE
8
0
10
2.093
20
7.040
11
2.093
21
7.041
0
0
LINE
8
0
10
2.093
20
7.746
11
2.093
21
8.210
0
0
LINE
8
0
10
2.093
20
8.210
11
2.093
21
8.840
0
0
LINE
8
0
10
2.093
20
8.840
11
2.093
21
8.841
0
0
LINE
8
0
10
2.093
20
9.546
11
2.093
21
10.010
0
0
LINE
8
0
10
2.093
20
10.010
11
2.093
21
10.640
0
0
LINE
8
0
10
2.093
20
10.640
11
2.093
21
10.641
0
0
LINE
8
0
10
2.093
20
11.346
11
2.093
21
11.810
0
0
LINE
8
0
10
2.093
20
11.810
11
2.093
21
12.440
0
0
LINE
8
0
10
2.093
20
12.440
11
2.093
21
12.441
0
0
LINE
8
0
10
2.093
20
13.146
11
2.093
21
13.776
0
0
LINE
8
0
10
2.093
20
13.776
11
2.093
21
14.240
0
0
LINE
8
0
10
2.093
20
14.240
11
2.093
21
14.241
0
0
LINE
8
0
10
2.593
20
1.049
11
2.593
21
1.639
0
0
LINE
8
0
10
2.593
20
1.049
11
2.593
21
1.639
0
0
LINE
8
0
10
2.593
20
2.344
11
2.593
21
2.345
0
0
LINE
8
0
10
2.593
20
2.345
11
2.593
21
2.975
0
0
LINE
8
0
10
2.593
20
2.975
11
2.593
21
3.439
0
0
LINE
8
0
10
2.593
20
4.144
11
2.593
21
4.145
0
0
LINE
8
0
10
2.593
20
4.145
11
2.593
21
4.775
0
0
LINE
8
0
10
2.593
20
4.775
11
2.593
21
5.239
0
0
LINE
8
0
10
2.593
20
5.944
11
2.593
21
5.945
0
0
LINE
8
0
10
2.593
20
5.945
11
2.593
21
6.575
0
0
LINE
8
0
10
2.593
20
6.575
11
2.593
21
7.039
0
0
LINE
8
0
10
2.593
20
7.744
11
2.593
21
7.745
0
0
LINE
8
0
10
2.593
20
7.745
11
2.593
21
8.375
0
0
LINE
8
0
10
2.593
20
8.375
11
2.593
21
8.839
0
0
LINE
8
0
10
2.593
20
9.544
11
2.593
21
9.545
0
0
LINE
8
0
10
2.593
20
9.545
11
2.593
21
10.175
0
0
LINE
8
0
10
2.593
20
10.175
11
2.593
21
10.639
0
0
LINE
8
0
10
2.593
20
11.344
11
2.593
21
11.345
0
0
LINE
8
0
10
2.593
20
11.345
11
2.593
21
11.975
0
0
LINE
8
0
10
2.593
20
11.975
11
2.593
21
12.439
0
0
LINE
8
0
10
2.593
20
13.144
11
2.593
21
13.145
0
0
LINE
8
0
10
2.593
20
13.145
11
2.593
21
13.775
0
0
LINE
8
0
10
2.593
20
13.775
11
2.593
21
14.239
0
0
LINE
8
0
10
3.093
20
1.045
11
3.093
21
1.621
0
0
LINE
8
0
10
3.093
20
1.045
11
3.093
21
1.621
0
0
LINE
8
0
10
3.093
20
2.327
11
3.093
21
2.791
0
0
LINE
8
0
10
3.093
20
2.791
11
3.093
21
3.421
0
0
LINE
8
0
10
3.093
20
4.127
11
3.093
21
4.591
0
0
LINE
8
0
10
3.093
20
4.591
11
3.093
21
5.221
0
0
LINE
8
0
10
3.093
20
5.927
11
3.093
21
6.391
0
0
LINE
8
0
10
3.093
20
6.391
11
3.093
21
7.021
0
0
LINE
8
0
10
3.093
20
7.727
11
3.093
21
8.191
0
0
LINE
8
0
10
3.093
20
8.191
11
3.093
21
8.821
0
0
LINE
8
0
10
3.093
20
9.527
11
3.093
21
9.991
0
0
LINE
8
0
10
3.093
20
9.991
11
3.093
21
10.621
0
0
LINE
8
0
10
3.093
20
11.327
11
3.093
21
11.791
0
0
LINE
8
0
10
3.093
20
11.791
11
3.093
21
12.421
0
0
LINE
8
0
10
3.093
20
13.127
11
3.093
21
13.757
0
0
LINE
8
0
10
3.093
20
13.757
11
3.093
21
14.221
0
0
LINE
8
0
10
3.593
20
1.042
11
3.593
21
1.604
0
0
LINE
8
0
10
3.593
20
1.042
11
3.593
21
1.604
0
0
LINE
8
0
10
3.593
20
2.310
11
3.593
21
2.774
0
0
LINE
8
0
10
3.593
20
2.774
11
3.593
21
3.404
0
0
LINE
8
0
10
3.593
20
4.110
11
3.593
21
4.574
0
0
LINE
8
0
10
3.593
20
4.574
11
3.593
21
5.204
0
0
LINE
8
0
10
3.593
20
5.910
11
3.593
21
6.540
0
0
LINE
8
0
10
3.593
20
6.540
11
3.593
21
7.004
0
0
LINE
8
0
10
3.593
20
7.710
11
3.593
21
8.340
0
0
LINE
8
0
10
3.593
20
8.340
11
3.593
21
8.804
0
0
LINE
8
0
10
3.593
20
9.510
11
3.593
21
9.974
0
0
LINE
8
0
10
3.593
20
9.974
11
3.593
21
10.604
0
0
LINE
8
0
10
3.593
20
11.310
11
3.593
21
11.774
0
0
LINE
8
0
10
3.593
20
11.774
11
3.593
21
12.404
0
0
LINE
8
0
10
3.593
20
13.110
11
3.593
21
13.574
0
0
LINE
8
0
10
3.593
20
13.574
11
3.593
21
14.204
0
0
LINE
8
0
10
4.093
20
1.038
11
4.093
21
1.586
0
0
LINE
8
0
10
4.093
20
1.038
11
4.093
21
1.586
0
0
LINE
8
0
10
4.093
20
1.586
11
4.093
21
1.587
0
0
LINE
8
0
10
4.093
20
2.292
11
4.093
21
2.756
0
0
LINE
8
0
10
4.093
20
2.756
11
4.093
21
3.386
0
0
LINE
8
0
10
4.093
20
3.386
11
4.093
21
3.387
0
0
LINE
8
0
10
4.093
20
4.092
11
4.093
21
4.556
0
0
LINE
8
0
10
4.093
20
4.556
11
4.093
21
5.186
0
0
LINE
8
0
10
4.093
20
5.186
11
4.093
21
5.187
0
0
LINE
8
0
10
4.093
20
5.892
11
4.093
21
6.356
0
0
LINE
8
0
10
4.093
20
6.356
11
4.093
21
6.986
0
0
LINE
8
0
10
4.093
20
6.986
11
4.093
21
6.987
0
0
LINE
8
0
10
4.093
20
7.692
11
4.093
21
8.156
0
0
LINE
8
0
10
4.093
20
8.156
11
4.093
21
8.786
0
0
LINE
8
0
10
4.093
20
8.786
11
4.093
21
8.787
0
0
LINE
8
0
10
4.093
20
9.492
11
4.093
21
9.956
0
0
LINE
8
0
10
4.093
20
9.956
11
4.093
21
10.586
0
0
LINE
8
0
10
4.093
20
10.586
11
4.093
21
10.587
0
0
LINE
8
0
10
4.093
20
11.292
11
4.093
21
11.756
0
0
LINE
8
0
10
4.093
20
11.756
11
4.093
21
12.386
0
0
LINE
8
0
10
4.093
20
12.386
11
4.093
21
12.387
0
0
LINE
8
0
10
4.093
20
13.092
11
4.093
21
13.556
0
0
LINE
8
0
10
4.093
20
13.556
11
4.093
21
14.186
0
0
LINE
8
0
10
4.093
20
14.186
11
4.093
21
14.187
0
0
LINE
8
0
10
4.593
20
1.035
11
4.593
21
1.569
0
0
LINE
8
0
10
4.593
20
1.035
11
4.593
21
1.569
0
0
LINE
8
0
10
4.593
20
2.275
11
4.593
21
2.739
0
0
LINE
8
0
10
4.593
20
2.739
11
4.593
21
3.369
0
0
LINE
8
0
10
4.593
20
4.075
11
4.593
21
4.705
0
0
LINE
8
0
10
4.593
20
4.705
11
4.593
21
5.169
0
0
LINE
8
0
10
4.593
20
5.875
11
4.593
21
6.505
0
0
LINE
8
0
10
4.593
20
6.505
11
4.593
21
6.969
0
0
LINE
8
0
10
4.593
20
7.675
11
4.593
21
8.305
0
0
LINE
8
0
10
4.593
20
8.305
11
4.593
21
8.769
0
0
LINE
8
0
10
4.593
20
9.475
11
4.593
21
9.939
0
0
LINE
8
0
10
4.593
20
9.939
11
4.593
21
10.569
0
0
LINE
8
0
10
4.593
20
11.275
11
4.593
21
11.739
0
0
LINE
8
0
10
4.593
20
11.739
11
4.593
21
12.369
0
0
LINE
8
0
10
4.593
20
13.075
11
4.593
21
13.539
0
0
LINE
8
0
10
4.593
20
13.539
11
4.593
21
14.169
0
0
LINE
8
0
10
5.093
20
1.032
11
5.093
21
1.552
0
0
LINE
8
0
10
5.093
20
1.032
11
5.093
21
1.552
0
0
LINE
8
0
10
5.093
20
2.258
11
5.093
21
2.722
0
0
LINE
8
0
10
5.093
20
2.722
11
5.093
21
3.352
0
0
LINE
8
0
10
5.093
20
4.058
11
5.093
21
4.522
0
0
LINE
8
0
10
5.093
20
4.522
11
5.093
21
5.152
0
0
LINE
8
0
10
5.093
20
5.858
11
5.093
21
6.322
0
0
LINE
8
0
10
5.093
20
6.322
11
5.093
21
6.952
0
0
LINE
8
0
10
5.093
20
7.658
11
5.093
21
8.288
0
0
LINE
8
0
10
5.093
20
8.288
11
5.093
21
8.752
0
0
LINE
8
0
10
5.093
20
9.458
11
5.093
21
9.922
0
0
LINE
8
0
10
5.093
20
9.922
11
5.093
21
10.552
0
0
LINE
8
0
10
5.093
20
11.258
11
5.093
21
11.722
0
0
LINE
8
0
10
5.093
20
11.722
11
5.093
21
12.352
0
0
LINE
8
0
10
5.093
20
13.058
11
5.093
21
13.522
0
0
LINE
8
0
10
5.093
20
13.522
11
5.093
21
14.152
0
0
LINE
8
0
10
5.593
20
1.028
11
5.593
21
1.534
0
0
LINE
8
0
10
5.593
20
1.028
11
5.593
21
1.534
0
0
LINE
8
0
10
5.593
20
2.240
11
5.593
21
2.870
0
0
LINE
8
0
10
5.593
20
2.870
11
5.593
21
3.334
0
0
LINE
8
0
10
5.593
20
4.040
11
5.593
21
4.670
0
0
LINE
8
0
10
5.593
20
4.670
11
5.593
21
5.134
0
0
LINE
8
0
10
5.593
20
5.840
11
5.593
21
6.304
0
0
LINE
8
0
10
5.593
20
6.304
11
5.593
21
6.934
0
0
LINE
8
0
10
5.593
20
7.640
11
5.593
21
8.270
0
0
LINE
8
0
10
5.593
20
8.270
11
5.593
21
8.734
0
0
LINE
8
0
10
5.593
20
9.440
11
5.593
21
9.904
0
0
LINE
8
0
10
5.593
20
9.904
11
5.593
21
10.534
0
0
LINE
8
0
10
5.593
20
11.240
11
5.593
21
11.704
0
0
LINE
8
0
10
5.593
20
11.704
11
5.593
21
12.334
0
0
LINE
8
0
10
5.593
20
13.040
11
5.593
21
13.504
0
0
LINE
8
0
10
5.593
20
13.504
11
5.593
21
14.134
0
0
LINE
8
0
10
6.093
20
1.028
11
6.093
21
1.522
0
0
LINE
8
0
10
6.093
20
1.028
11
6.093
21
1.522
0
0
LINE
8
0
10
6.093
20
2.228
11
6.093
21
2.858
0
0
LINE
8
0
10
6.093
20
2.858
11
6.093
21
3.322
0
0
LINE
8
0
10
6.093
20
4.028
11
6.093
21
4.492
0
0
LINE
8
0
10
6.093
20
4.492
11
6.093
21
5.122
0
0
LINE
8
0
10
6.093
20
5.828
11
6.093
21
6.458
0
0
LINE
8
0
10
6.093
20
6.458
11
6.093
21
6.922
0
0
LINE
8
0
10
6.093
20
7.628
11
6.093
21
8.258
0
0
LINE
8
0
10
6.093
20
8.258
11
6.093
21
8.722
0
0
LINE
8
0
10
6.093
20
9.428
11
6.093
21
10.058
0
0
LINE
8
0
10
6.093
20
10.058
11
6.093
21
10.522
0
0
LINE
8
0
10
6.093
20
11.228
11
6.093
21
11.692
0
0
LINE
8
0
10
6.093
20
11.692
11
6.093
21
12.322
0
0
LINE
8
0
10
6.093
20
13.028
11
6.093
21
13.492
0
0
LINE
8
0
10
6.093
20
13.492
11
6.093
21
14.122
0
0
LINE
8
0
10
6.593
20
1.035
11
6.593
21
1.523
0
0
LINE
8
0
10
6.593
20
1.035
11
6.593
21
1.523
0
0
LINE
8
0
10
6.593
20
2.229
11
6.593
21
2.693
0
0
LINE
8
0
10
6.593
20
2.693
11
6.593
21
3.323
0
0
LINE
8
0
10
6.593
20
4.029
11
6.593
21
4.493
0
0
LINE
8
0
10
6.593
20
4.493
11
6.593
21
5.123
0
0
LINE
8
0
10
6.593
20
5.829
11
6.593
21
6.293
0
0
LINE
8
0
10
6.593
20
6.293
11
6.593
21
6.923
0
0
LINE
8
0
10
6.593
20
7.629
11
6.593
21
8.093
0
0
LINE
8
0
10
6.593
20
8.093
11
6.593
21
8.723
0
0
LINE
8
0
10
6.593
20
9.429
11
6.593
21
9.893
0
0
LINE
8
0
10
6.593
20
9.893
11
6.593
21
10.523
0
0
LINE
8
0
10
6.593
20
11.229
11
6.593
21
11.693
0
0
LINE
8
0
10
6.593
20
11.693
11
6.593
21
12.323
0
0
LINE
8
0
10
6.593
20
13.029
11
6.593
21
13.493
0
0
LINE
8
0
10
6.593
20
13.493
11
6.593
21
14.123
0
0
LINE
8
0
10
7.093
20
1.042
11
7.093
21
1.524
0
0
LINE
8
0
10
7.093
20
1.042
11
7.093
21
1.524
0
0
LINE
8
0
10
7.093
20
2.230
11
7.093
21
2.694
0
0
LINE
8
0
10
7.093
20
2.694
11
7.093
21
3.324
0
0
LINE
8
0
10
7.093
20
4.030
11
7.093
21
4.660
0
0
LINE
8
0
10
7.093
20
4.660
11
7.093
21
5.124
0
0
LINE
8
0
10
7.093
20
5.830
11
7.093
21
6.460
0
0
LINE
8
0
10
7.093
20
6.460
11
7.093
21
6.924
0
0
LINE
8
0
10
7.093
20
7.630
11
7.093
21
8.260
0
0
LINE
8
0
10
7.093
20
8.260
11
7.093
21
8.724
0
0
LINE
8
0
10
7.093
20
9.430
11
7.093
21
9.894
0
0
LINE
8
0
10
7.093
20
9.894
11
7.093
21
10.524
0
0
LINE
8
0
10
7.093
20
11.230
11
7.093
21
11.694
0
0
LINE
8
0
10
7.093
20
11.694
11
7.093
21
12.324
0
0
LINE
8
0
10
7.093
20
13.030
11
7.093
21
13.494
0
0
LINE
8
0
10
7.093
20
13.494
11
7.093
21
14.124
0
0
LINE
8
0
10
7.593
20
1.040
11
7.593
21
1.524
0
0
LINE
8
0
10
7.593
20
1.040
11
7.593
21
1.524
0
0
LINE
8
0
10
7.593
20
1.524
11
7.593
21
1.525
0
0
LINE
8
0
10
7.593
20
2.230
11
7.593
21
2.695
0
0
LINE
8
0
10
7.593
20
2.695
11
7.593
21
3.325
0
0
LINE
8
0
10
7.593
20
4.030
11
7.593
21
4.495
0
0
LINE
8
0
10
7.593
20
4.495
11
7.593
21
5.125
0
0
LINE
8
0
10
7.593
20
5.830
11
7.593
21
6.460
0
0
LINE
8
0
10
7.593
20
6.460
11
7.593
21
6.925
0
0
LINE
8
0
10
7.593
20
7.630
11
7.593
21
8.095
0
0
LINE
8
0
10
7.593
20
8.095
11
7.593
21
8.725
0
0
LINE
8
0
10
7.593
20
9.430
11
7.593
21
9.895
0
0
LINE
8
0
10
7.593
20
9.895
11
7.593
21
10.525
0
0
LINE
8
0
10
7.593
20
11.230
11
7.593
21
11.695
0
0
LINE
8
0
10
7.593
20
11.695
11
7.593
21
12.325
0
0
LINE
8
0
10
7.593
20
13.030
11
7.593
21
13.495
0
0
LINE
8
0
10
7.593
20
13.495
11
7.593
21
14.125
0
0
LINE
8
0
10
8.093
20
1.036
11
8.093
21
1.525
0
0
LINE
8
0
10
8.093
20
1.036
11
8.093
21
1.525
0
0
LINE
8
0
10
8.093
20
2.231
11
8.093
21
2.695
0
0
LINE
8
0
10
8.093
20
2.695
11
8.093
21
3.325
0
0
LINE
8
0
10
8.093
20
4.031
11
8.093
21
4.495
0
0
LINE
8
0
10
8.093
20
4.495
11
8.093
21
5.125
0
0
LINE
8
0
10
8.093
20
5.831
11
8.093
21
6.295
0
0
LINE
8
0
10
8.093
20
6.295
11
8.093
21
6.925
0
0
LINE
8
0
10
8.093
20
7.631
11
8.093
21
8.095
0
0
LINE
8
0
10
8.093
20
8.095
11
8.093
21
8.725
0
0
LINE
8
0
10
8.093
20
9.431
11
8.093
21
9.895
0
0
LINE
8
0
10
8.093
20
9.895
11
8.093
21
10.525
0
0
LINE
8
0
10
8.093
20
11.231
11
8.093
21
11.695
0
0
LINE
8
0
10
8.093
20
11.695
11
8.093
21
12.325
0
0
LINE
8
0
10
8.093
20
13.031
11
8.093
21
13.495
0
0
LINE
8
0
10
8.093
20
13.495
11
8.093
21
14.125
0
0
LINE
8
0
10
8.593
20
1.031
11
8.593
21
1.526
0
0
LINE
8
0
10
8.593
20
1.031
11
8.593
21
1.526
0
0
LINE
8
0
10
8.593
20
2.232
11
8.593
21
2.862
0
0
LINE
8
0
10
8.593
20
2.862
11
8.593
21
3.326
0
0
LINE
8
0
10
8.593
20
4.032
11
8.593
21
4.662
0
0
LINE
8
0
10
8.593
20
4.662
11
8.593
21
5.126
0
0
LINE
8
0
10
8.593
20
5.832
11
8.593
21
6.296
0
0
LINE
8
0
10
8.593
20
6.296
11
8.593
21
6.926
0
0
LINE
8
0
10
8.593
20
7.632
11
8.593
21
8.262
0
0
LINE
8
0
10
8.593
20
8.262
11
8.593
21
8.726
0
0
LINE
8
0
10
8.593
20
9.432
11
8.593
21
9.896
0
0
LINE
8
0
10
8.593
20
9.896
11
8.593
21
10.526
0
0
LINE
8
0
10
8.593
20
11.232
11
8.593
21
11.696
0
0
LINE
8
0
10
8.593
20
11.696
11
8.593
21
12.326
0
0
LINE
8
0
10
8.593
20
13.032
11
8.593
21
13.496
0
0
LINE
8
0
10
8.593
20
13.496
11
8.593
21
14.126
0
0
LINE
8
0
10
9.093
20
1.027
11
9.093
21
1.527
0
0
LINE
8
0
10
9.093
20
1.027
11
9.093
21
1.527
0
0
LINE
8
0
10
9.093
20
2.233
11
9.093
21
2.697
0
0
LINE
8
0
10
9.093
20
2.697
11
9.093
21
3.327
0
0
LINE
8
0
10
9.093
20
4.033
11
9.093
21
4.497
0
0
LINE
8
0
10
9.093
20
4.497
11
9.093
21
5.127
0
0
LINE
8
0
10
9.093
20
5.833
11
9.093
21
6.463
0
0
LINE
8
0
10
9.093
20
6.463
11
9.093
21
6.927
0
0
LINE
8
0
10
9.093
20
7.633
11
9.093
21
8.263
0
0
LINE
8
0
10
9.093
20
8.263
11
9.093
21
8.727
0
0
LINE
8
0
10
9.093
20
9.433
11
9.093
21
9.897
0
0
LINE
8
0
10
9.093
20
9.897
11
9.093
21
10.527
0
0
LINE
8
0
10
9.093
20
11.233
11
9.093
21
11.697
0
0
LINE
8
0
10
9.093
20
11.697
11
9.093
21
12.327
0
0
LINE
8
0
10
9.093
20
13.033
11
9.093
21
13.497
0
0
LINE
8
0
10
9.093
20
13.497
11
9.093
21
14.127
0
0
LINE
8
0
10
9.593
20
1.022
11
9.593
21
1.527
0
0
LINE
8
0
10
9.593
20
1.022
11
9.593
21
1.527
0
0
LINE
8
0
10
9.593
20
2.233
11
9.593
21
2.697
0
0
LINE
8
0
10
9.593
20
2.697
11
9.593
21
3.327
0
0
LINE
8
0
10
9.593
20
4.033
11
9.593
21
4.497
0
0
LINE
8
0
10
9.593
20
4.497
11
9.593
21
5.127
0
0
LINE
8
0
10
9.593
20
5.833
11
9.593
21
6.463
0
0
LINE
8
0
10
9.593
20
6.463
11
9.593
21
6.927
0
0
LINE
8
0
10
9.593
20
7.633
11
9.593
21
8.263
0
0
LINE
8
0
10
9.593
20
8.263
11
9.593
21
8.727
0
0
LINE
8
0
10
9.593
20
9.433
11
9.593
21
9.897
0
0
LINE
8
0
10
9.593
20
9.897
11
9.593
21
10.527
0
0
LINE
8
0
10
9.593
20
11.233
11
9.593
21
11.697
0
0
LINE
8
0
10
9.593
20
11.697
11
9.593
21
12.327
0
0
LINE
8
0
10
9.593
20
13.033
11
9.593
21
13.497
0
0
LINE
8
0
10
9.593
20
13.497
11
9.593
21
14.127
0
0
LINE
8
0
10
10.093
20
1.017
11
10.093
21
1.528
0
0
LINE
8
0
10
10.093
20
1.017
11
10.093
21
1.528
0
0
LINE
8
0
10
10.093
20
2.234
11
10.093
21
2.698
0
0
LINE
8
0
10
10.093
20
2.698
11
10.093
21
3.328
0
0
LINE
8
0
10
10.093
20
4.034
11
10.093
21
4.498
0
0
LINE
8
0
10
10.093
20
4.498
11
10.093
21
5.128
0
0
LINE
8
0
10
10.093
20
5.834
11
10.093
21
6.298
0
0
LINE
8
0
10
10.093
20
6.298
11
10.093
21
6.928
0
0
LINE
8
0
10
10.093
20
7.634
11
10.093
21
8.098
0
0
LINE
8
0
10
10.093
20
8.098
11
10.093
21
8.728
0
0
LINE
8
0
10
10.093
20
9.434
11
10.093
21
9.898
0
0
LINE
8
0
10
10.093
20
9.898
11
10.093
21
10.528
0
0
LINE
8
0
10
10.093
20
11.234
11
10.093
21
11.698
0
0
LINE
8
0
10
10.093
20
11.698
11
10.093
21
12.328
0
0
LINE
8
0
10
10.093
20
13.034
11
10.093
21
13.664
0
0
LINE
8
0
10
10.093
20
13.664
11
10.093
21
14.128
0
0
LINE
8
0
10
10.593
20
1.013
11
10.593
21
1.529
0
0
LINE
8
0
10
10.593
20
1.013
11
10.593
21
1.529
0
0
LINE
8
0
10
10.593
20
2.235
11
10.593
21
2.699
0
0
LINE
8
0
10
10.593
20
2.699
11
10.593
21
3.329
0
0
LINE
8
0
10
10.593
20
4.035
11
10.593
21
4.665
0
0
LINE
8
0
10
10.593
20
4.665
11
10.593
21
5.129
0
0
LINE
8
0
10
10.593
20
5.835
11
10.593
21
6.299
0
0
LINE
8
0
10
10.593
20
6.299
11
10.593
21
6.929
0
0
LINE
8
0
10
10.593
20
7.635
11
10.593
21
8.265
0
0
LINE
8
0
10
10.593
20
8.265
11
10.593
21
8.729
0
0
LINE
8
0
10
10.593
20
9.435
11
10.593
21
9.899
0
0
LINE
8
0
10
10.593
20
9.899
11
10.593
21
10.529
0
0
LINE
8
0
10
10.593
20
11.235
11
10.593
21
11.699
0
0
LINE
8
0
10
10.593
20
11.699
11
10.593
21
12.329
0
0
LINE
8
0
10
10.593
20
13.035
11
10.593
21
13.499
0
0
LINE
8
0
10
10.593
20
13.499
11
10.593
21
14.129
0
0
LINE
8
0
10
11.093
20
1.008
11
11.093
21
1.529
0
0
LINE
8
0
10
11.093
20
1.008
11
11.093
21
1.529
0
0
LINE
8
0
10
11.093
20
1.529
11
11.093
21
1.530
0
0
LINE
8
0
10
11.093
20
2.235
11
11.093
21
2.236
0
0
LINE
8
0
10
11.093
20
2.236
11
11.093
21
2.866
0
0
LINE
8
0
10
11.093
20
2.866
11
11.093
21
3.330
0
0
LINE
8
0
10
11.093
20
4.035
11
11.093
21
4.036
0
0
LINE
8
0
10
11.093
20
4.036
11
11.093
21
4.666
0
0
LINE
8
0
10
11.093
20
4.666
11
11.093
21
5.130
0
0
LINE
8
0
10
11.093
20
5.835
11
11.093
21
5.836
0
0
LINE
8
0
10
11.093
20
5.836
11
11.093
21
6.466
0
0
LINE
8
0
10
11.093
20
6.466
11
11.093
21
6.930
0
0
LINE
8
0
10
11.093
20
7.635
11
11.093
21
7.636
0
0
LINE
8
0
10
11.093
20
7.636
11
11.093
21
8.266
0
0
LINE
8
0
10
11.093
20
8.266
11
11.093
21
8.730
0
0
LINE
8
0
10
11.093
20
9.435
11
11.093
21
9.436
0
0
LINE
8
0
10
11.093
20
9.436
11
11.093
21
10.066
0
0
LINE
8
0
10
11.093
20
10.066
11
11.093
21
10.530
0
0
LINE
8
0
10
11.093
20
11.235
11
11.093
21
11.236
0
0
LINE
8
0
10
11.093
20
11.236
11
11.093
21
11.866
0
0
LINE
8
0
10
11.093
20
11.866
11
11.093
21
12.330
0
0
LINE
8
0
10
11.093
20
13.035
11
11.093
21
13.036
0
0
LINE
8
0
10
11.093
20
13.036
11
11.093
21
13.666
0
0
LINE
8
0
10
11.093
20
13.666
11
11.093
21
14.130
0
0
LINE
8
0
10
11.593
20
1.003
11
11.593
21
1.530
0
0
LINE
8
0
10
11.593
20
1.003
11
11.593
21
1.530
0
0
LINE
8
0
10
11.593
20
2.236
11
11.593
21
2.866
0
0
LINE
8
0
10
11.593
20
2.866
11
11.593
21
3.330
0
0
LINE
8
0
10
11.593
20
4.036
11
11.593
21
4.500
0
0
LINE
8
0
10
11.593
20
4.500
11
11.593
21
5.130
0
0
LINE
8
0
10
11.593
20
5.836
11
11.593
21
6.466
0
0
LINE
8
0
10
11.593
20
6.466
11
11.593
21
6.930
0
0
LINE
8
0
10
11.593
20
7.636
11
11.593
21
8.266
0
0
LINE
8
0
10
11.593
20
8.266
11
11.593
21
8.730
0
0
LINE
8
0
10
11.593
20
9.436
11
11.593
21
9.900
0
0
LINE
8
0
10
11.593
20
9.900
11
11.593
21
10.530
0
0
LINE
8
0
10
11.593
20
11.236
11
11.593
21
11.866
0
0
LINE
8
0
10
11.593
20
11.866
11
11.593
21
12.330
0
0
LINE
8
0
10
11.593
20
13.036
11
11.593
21
13.500
0
0
LINE
8
0
10
11.593
20
13.500
11
11.593
21
14.130
0
0
LINE
8
0
10
12.093
20
0.999
11
12.093
21
1.531
0
0
LINE
8
0
10
12.093
20
0.999
11
12.093
21
1.531
0
0
LINE
8
0
10
12.093
20
2.237
11
12.093
21
2.701
0
0
LINE
8
0
10
12.093
20
2.701
11
12.093
21
3.331
0
0
LINE
8
0
10
12.093
20
4.037
11
12.093
21
4.501
0
0
LINE
8
0
10
12.093
20
4.501
11
12.093
21
5.131
0
0
LINE
8
0
10
12.093
20
5.837
11
12.093
21
6.301
0
0
LINE
8
0
10
12.093
20
6.301
11
12.093
21
6.931
0
0
LINE
8
0
10
12.093
20
7.637
11
12.093
21
8.101
0
0
LINE
8
0
10
12.093
20
8.101
11
12.093
21
8.731
0
0
LINE
8
0
10
12.093
20
9.437
11
12.093
21
9.901
0
0
LINE
8
0
10
12.093
20
9.901
11
12.093
21
10.531
0
0
LINE
8
0
10
12.093
20
11.237
11
12.093
21
11.701
0
0
LINE
8
0
10
12.093
20
11.701
11
12.093
21
12.331
0
0
LINE
8
0
10
12.093
20
13.037
11
12.093
21
13.667
0
0
LINE
8
0
10
12.093
20
13.667
11
12.093
21
14.131
0
0
LINE
8
0
10
12.593
20
0.994
11
12.593
21
1.532
0
0
LINE
8
0
10
12.593
20
0.994
11
12.593
21
1.532
0
0
LINE
8
0
10
12.593
20
2.238
11
12.593
21
2.702
0
0
LINE
8
0
10
12.593
20
2.702
11
12.593
21
3.332
0
0
LINE
8
0
10
12.593
20
4.038
11
12.593
21
4.668
0
0
LINE
8
0
10
12.593
20
4.668
11
12.593
21
5.132
0
0
LINE
8
0
10
12.593
20
5.838
11
12.593
21
6.468
0
0
LINE
8
0
10
12.593
20
6.468
11
12.593
21
6.932
0
0
LINE
8
0
10
12.593
20
7.638
11
12.593
21
8.268
0
0
LINE
8
0
10
12.593
20
8.268
11
12.593
21
8.732
0
0
LINE
8
0
10
12.593
20
9.438
11
12.593
21
10.068
0
0
LINE
8
0
10
12.593
20
10.068
11
12.593
21
10.532
0
0
LINE
8
0
10
12.593
20
11.238
11
12.593
21
11.702
0
0
LINE
8
0
10
12.593
20
11.702
11
12.593
21
12.332
0
0
LINE
8
0
10
12.593
20
13.038
11
12.593
21
13.502
0
0
LINE
8
0
10
12.593
20
13.502
11
12.593
21
14.132
0
0
LINE
8
0
10
13.093
20
0.994
11
13.093
21
1.532
0
0
LINE
8
0
10
13.093
20
0.994
11
13.093
21
1.532
0
0
LINE
8
0
10
13.093
20
1.532
11
13.093
21
1.533
0
0
LINE
8
0
10
13.093
20
2.238
11
13.093
21
2.702
0
0
LINE
8
0
10
13.093
20
2.702
11
13.093
21
3.332
0
0
LINE
8
0
10
13.093
20
3.332
11
13.093
21
3.333
0
0
LINE
8
0
10
13.093
20
4.038
11
13.093
21
4.502
0
0
LINE
8
0
10
13.093
20
4.502
11
13.093
21
5.132
0
0
LINE
8
0
10
13.093
20
5.132
11
13.093
21
5.133
0
0
LINE
8
0
10
13.093
20
5.838
11
13.093
21
6.302
0
0
LINE
8
0
10
13.093
20
6.302
11
13.093
21
6.932
0
0
LINE
8
0
10
13.093
20
6.932
11
13.093
21
6.933
0
0
LINE
8
0
10
13.093
20
7.638
11
13.093
21
8.102
0
0
LINE
8
0
10
13.093
20
8.102
11
13.093
21
8.732
0
0
LINE
8
0
10
13.093
20
8.732
11
13.093
21
8.733
0
0
LINE
8
0
10
13.093
20
9.438
11
13.093
21
9.902
0
0
LINE
8
0
10
13.093
20
9.902
11
13.093
21
10.532
0
0
LINE
8
0
10
13.093
20
10.532
11
13.093
21
10.533
0
0
LINE
8
0
10
13.093
20
11.238
11
13.093
21
11.702
0
0
LINE
8
0
10
13.093
20
11.702
11
13.093
21
12.332
0
0
LINE
8
0
10
13.093
20
12.332
11
13.093
21
12.333
0
0
LINE
8
0
10
13.093
20
13.038
11
13.093
21
13.502
0
0
LINE
8
0
10
13.093
20
13.502
11
13.093
21
14.132
0
0
LINE
8
0
10
13.093
20
14.132
11
13.093
21
14.133
0
0
LINE
8
0
10
13.593
20
1.024
11
13.593
21
1.533
0
0
LINE
8
0
10
13.593
20
1.024
11
13.593
21
1.533
0
0
LINE
8
0
10
13.593
20
2.239
11
13.593
21
2.703
0
0
LINE
8
0
10
13.593
20
2.703
11
13.593
21
3.333
0
0
LINE
8
0
10
13.593
20
4.039
11
13.593
21
4.503
0
0
LINE
8
0
10
13.593
20
4.503
11
13.593
21
5.133
0
0
LINE
8
0
10
13.593
20
5.839
11
13.593
21
6.303
0
0
LINE
8
0
10
13.593
20
6.303
11
13.593
21
6.933
0
0
LINE
8
0
10
13.593
20
7.639
11
13.593
21
8.269
0
0
LINE
8
0
10
13.593
20
8.269
11
13.593
21
8.733
0
0
LINE
8
0
10
13.593
20
9.439
11
13.593
21
9.903
0
0
LINE
8
0
10
13.593
20
9.903
11
13.593
21
10.533
0
0
LINE
8
0
10
13.593
20
11.239
11
13.593
21
11.869
0
0
LINE
8
0
10
13.593
20
11.869
11
13.593
21
12.333
0
0
LINE
8
0
10
13.593
20
13.039
11
13.593
21
13.503
0
0
LINE
8
0
10
13.593
20
13.503
11
13.593
21
14.133
0
0
LINE
8
0
10
14.093
20
1.079
11
14.093
21
1.534
0
0
LINE
8
0
10
14.093
20
1.079
11
14.093
21
1.534
0
0
LINE
8
0
10
14.093
20
2.240
11
14.093
21
2.870
0
0
LINE
8
0
10
14.093
20
2.870
11
14.093
21
3.334
0
0
LINE
8
0
10
14.093
20
4.040
11
14.093
21
4.670
0
0
LINE
8
0
10
14.093
20
4.670
11
14.093
21
5.134
0
0
LINE
8
0
10
14.093
20
5.840
11
14.093
21
6.304
0
0
LINE
8
0
10
14.093
20
6.304
11
14.093
21
6.934
0
0
LINE
8
0
10
14.093
20
7.640
11
14.093
21
8.270
0
0
LINE
8
0
10
14.093
20
8.270
11
14.093
21
8.734
0
0
LINE
8
0
10
14.093
20
9.440
11
14.093
21
9.904
0
0
LINE
8
0
10
14.093
20
9.904
11
14.093
21
10.534
0
0
LINE
8
0
10
14.093
20
11.240
11
14.093
21
11.704
0
0
LINE
8
0
10
14.093
20
11.704
11
14.093
21
12.334
0
0
LINE
8
0
10
14.093
20
13.040
11
14.093
21
13.504
0
0
LINE
8
0
10
14.093
20
13.504
11
14.093
21
14.134
0
0
LINE
8
0
10
14.593
20
1.319
11
14.593
21
1.320
0
0
LINE
8
0
10
14.593
20
1.319
11
14.593
21
1.320
0
0
LINE
8
0
10
14.593
20
1.320
11
14.593
21
1.535
0
0
LINE
8
0
10
14.593
20
2.240
11
14.593
21
2.241
0
0
LINE
8
0
10
14.593
20
2.241
11
14.593
21
2.705
0
0
LINE
8
0
10
14.593
20
2.705
11
14.593
21
3.335
0
0
LINE
8
0
10
14.593
20
4.040
11
14.593
21
4.041
0
0
LINE
8
0
10
14.593
20
4.041
11
14.593
21
4.505
0
0
LINE
8
0
10
14.593
20
4.505
11
14.593
21
5.135
0
0
LINE
8
0
10
14.593
20
5.840
11
14.593
21
5.841
0
0
LINE
8
0
10
14.593
20
5.841
11
14.593
21
6.471
0
0
LINE
8
0
10
14.593
20
6.471
11
14.593
21
6.935
0
0
LINE
8
0
10
14.593
20
7.640
11
14.593
21
7.641
0
0
LINE
8
0
10
14.593
20
7.641
11
14.593
21
8.271
0
0
LINE
8
0
10
14.593
20
8.271
11
14.593
21
8.735
0
0
LINE
8
0
10
14.593
20
9.440
11
14.593
21
9.441
0
0
LINE
8
0
10
14.593
20
9.441
11
14.593
21
10.071
0
0
LINE
8
0
10
14.593
20
10.071
11
14.593
21
10.535
0
0
LINE
8
0
10
14.593
20
11.240
11
14.593
21
11.241
0
0
LINE
8
0
10
14.593
20
11.241
11
14.593
21
11.705
0
0
LINE
8
0
10
14.593
20
11.705
11
14.593
21
12.335
0
0
LINE
8
0
10
14.593
20
13.040
11
14.593
21
13.041
0
0
LINE
8
0
10
14.593
20
13.041
11
14.593
21
13.505
0
0
LINE
8
0
10
14.593
20
13.505
11
14.593
21
14.135
0
0
LINE
8
0
10
1.737
20
0.592
11
2.367
21
0.592
0
0
LINE
8
0
10
1.737
20
0.592
11
2.367
21
0.592
0
0
LINE
8
0
10
2.367
20
0.592
11
2.831
21
0.592
0
0
LINE
8
0
10
3.537
20
0.592
11
4.001
21
0.592
0
0
LINE
8
0
10
4.001
20
0.592
11
4.631
21
0.592
0
0
LINE
8
0
10
5.337
20
0.592
11
5.801
21
0.592
0
0
LINE
8
0
10
5.801
20
0.592
11
6.431
21
0.592
0
0
LINE
8
0
10
7.101
20
0.592
11
7.222
21
0.592
0
0
LINE
8
0
10
7.222
20
0.592
11
7.223
21
0.592
0
0
LINE
8
0
10
7.725
20
0.592
11
7.726
21
0.592
0
0
LINE
8
0
10
7.726
20
0.592
11
8.356
21
0.592
0
0
LINE
8
0
10
8.356
20
0.592
11
8.820
21
0.592
0
0
LINE
8
0
10
9.525
20
0.592
11
9.526
21
0.592
0
0
LINE
8
0
10
9.526
20
0.592
11
10.156
21
0.592
0
0
LINE
8
0
10
10.156
20
0.592
11
10.620
21
0.592
0
0
LINE
8
0
10
11.325
20
0.592
11
11.326
21
0.592
0
0
LINE
8
0
10
11.326
20
0.592
11
11.956
21
0.592
0
0
LINE
8
0
10
11.956
20
0.592
11
12.420
21
0.592
0
0
LINE
8
0
10
13.125
20
0.592
11
13.126
21
0.592
0
0
LINE
8
0
10
13.126
20
0.592
11
13.549
21
0.592
0
0
LINE
8
0
10
1.154
20
1.092
11
1.619
21
1.092
0
0
LINE
8
0
10
1.154
20
1.092
11
1.619
21
1.092
0
0
LINE
8
0
10
1.619
20
1.092
11
2.249
21
1.092
0
0
LINE
8
0
10
2.954
20
1.092
11
3.584
21
1.092
0
0
LINE
8
0
10
3.584
20
1.092
11
4.049
21
1.092
0
0
LINE
8
0
10
4.754
20
1.092
11
5.219
21
1.092
0
0
LINE
8
0
10
5.219
20
1.092
11
5.849
21
1.092
0
0
LINE
8
0
10
6.554
20
1.092
11
7.184
21
1.092
0
0
LINE
8
0
10
7.184
20
1.092
11
7.649
21
1.092
0
0
LINE
8
0
10
8.354
20
1.092
11
8.819
21
1.092
0
0
LINE
8
0
10
8.819
20
1.092
11
9.449
21
1.092
0
0
LINE
8
0
10
10.154
20
1.092
11
10.784
21
1.092
0
0
LINE
8
0
10
10.784
20
1.092
11
11.249
21
1.092
0
0
LINE
8
0
10
11.954
20
1.092
11
12.584
21
1.092
0
0
LINE
8
0
10
12.584
20
1.092
11
13.049
21
1.092
0
0
LINE
8
0
10
13.754
20
1.092
11
13.755
21
1.092
0
0
LINE
8
0
10
13.755
20
1.092
11
14.169
21
1.092
0
0
LINE
8
0
10
1.022
20
1.592
11
1.652
21
1.592
0
0
LINE
8
0
10
1.022
20
1.592
11
1.652
21
1.592
0
0
LINE
8
0
10
1.652
20
1.592
11
2.116
21
1.592
0
0
LINE
8
0
10
2.822
20
1.592
11
3.452
21
1.592
0
0
LINE
8
0
10
3.452
20
1.592
11
3.916
21
1.592
0
0
LINE
8
0
10
4.622
20
1.592
11
5.086
21
1.592
0
0
LINE
8
0
10
5.086
20
1.592
11
5.716
21
1.592
0
0
LINE
8
0
10
6.422
20
1.592
11
6.886
21
1.592
0
0
LINE
8
0
10
6.886
20
1.592
11
7.516
21
1.592
0
0
LINE
8
0
10
8.222
20
1.592
11
8.852
21
1.592
0
0
LINE
8
0
10
8.852
20
1.592
11
9.316
21
1.592
0
0
LINE
8
0
10
10.022
20
1.592
11
10.486
21
1.592
0
0
LINE
8
0
10
10.486
20
1.592
11
11.116
21
1.592
0
0
LINE
8
0
10
11.822
20
1.592
11
12.452
21
1.592
0
0
LINE
8
0
10
12.452
20
1.592
11
12.916
21
1.592
0
0
LINE
8
0
10
13.622
20
1.592
11
14.145
21
1.592
0
0
LINE
8
0
10
0.959
20
2.092
11
1.589
21
2.092
0
0
LINE
8
0
10
0.959
20
2.092
11
1.589
21
2.092
0
0
LINE
8
0
10
1.589
20
2.092
11
2.053
21
2.092
0
0
LINE
8
0
10
2.759
20
2.092
11
3.389
21
2.092
0
0
LINE
8
0
10
3.389
20
2.092
11
3.853
21
2.092
0
0
LINE
8
0
10
4.559
20
2.092
11
5.189
21
2.092
0
0
LINE
8
0
10
5.189
20
2.092
11
5.653
21
2.092
0
0
LINE
8
0
10
6.359
20
2.092
11
6.823
21
2.092
0
0
LINE
8
0
10
6.823
20
2.092
11
7.453
21
2.092
0
0
LINE
8
0
10
8.159
20
2.092
11
8.789
21
2.092
0
0
LINE
8
0
10
8.789
20
2.092
11
9.253
21
2.092
0
0
LINE
8
0
10
9.959
20
2.092
11
10.589
21
2.092
0
0
LINE
8
0
10
10.589
20
2.092
11
11.053
21
2.092
0
0
LINE
8
0
10
11.759
20
2.092
11
12.223
21
2.092
0
0
LINE
8
0
10
12.223
20
2.092
11
12.853
21
2.092
0
0
LINE
8
0
10
13.559
20
2.092
11
14.135
21
2.092
0
0
LINE
8
0
10
0.953
20
2.592
11
0.954
21
2.592
0
0
LINE
8
0
10
0.953
20
2.592
11
0.954
21
2.592
0
0
LINE
8
0
10
0.954
20
2.592
11
1.584
21
2.592
0
0
LINE
8
0
10
1.584
20
2.592
11
2.048
21
2.592
0
0
LINE
8
0
10
2.753
20
2.592
11
2.754
21
2.592
0
0
LINE
8
0
10
2.754
20
2.592
11
3.384
21
2.592
0
0
LINE
8
0
10
3.384
20
2.592
11
3.848
21
2.592
0
0
LINE
8
0
10
4.553
20
2.592
11
4.554
21
2.592
0
0
LINE
8
0
10
4.554
20
2.592
11
5.184
21
2.592
0
0
LINE
8
0
10
5.184
20
2.592
11
5.648
21
2.592
0
0
LINE
8
0
10
6.353
20
2.592
11
6.354
21
2.592
0
0
LINE
8
0
10
6.354
20
2.592
11
6.984
21
2.592
0
0
LINE
8
0
10
6.984
20
2.592
11
7.448
21
2.592
0
0
LINE
8
0
10
8.153
20
2.592
11
8.154
21
2.592
0
0
LINE
8
0
10
8.154
20
2.592
11
8.784
21
2.592
0
0
LINE
8
0
10
8.784
20
2.592
11
9.248
21
2.592
0
0
LINE
8
0
10
9.953
20
2.592
11
9.954
21
2.592
0
0
LINE
8
0
10
9.954
20
2.592
11
10.584
21
2.592
0
0
LINE
8
0
10
10.584
20
2.592
11
11.048
21
2.592
0
0
LINE
8
0
10
11.753
20
2.592
11
11.754
21
2.592
0
0
LINE
8
0
10
11.754
20
2.592
11
12.384
21
2.592
0
0
LINE
8
0
10
12.384
20
2.592
11
12.848
21
2.592
0
0
LINE
8
0
10
13.553
20
2.592
11
13.554
21
2.592
0
0
LINE
8
0
10
13.554
20
2.592
11
14.137
21
2.592
0
0
LINE
8
0
10
0.966
20
3.092
11
1.596
21
3.092
0
0
LINE
8
0
10
0.966
20
3.092
11
1.596
21
3.092
0
0
LINE
8
0
10
1.596
20
3.092
11
2.060
21
3.092
0
0
LINE
8
0
10
2.766
20
3.092
11
3.396
21
3.092
0
0
LINE
8
0
10
3.396
20
3.092
11
3.860
21
3.092
0
0
LINE
8
0
10
4.566
20
3.092
11
5.030
21
3.092
0
0
LINE
8
0
10
5.030
20
3.092
11
5.660
21
3.092
0
0
LINE
8
0
10
6.366
20
3.092
11
6.830
21
3.092
0
0
LINE
8
0
10
6.830
20
3.092
11
7.460
21
3.092
0
0
LINE
8
0
10
8.166
20
3.092
11
8.630
21
3.092
0
0
LINE
8
0
10
8.630
20
3.092
11
9.260
21
3.092
0
0
LINE
8
0
10
9.966
20
3.092
11
10.596
21
3.092
0
0
LINE
8
0
10
10.596
20
3.092
11
11.060
21
3.092
0
0
LINE
8
0
10
11.766
20
3.092
11
12.396
21
3.092
0
0
LINE
8
0
10
12.396
20
3.092
11
12.860
21
3.092
0
0
LINE
8
0
10
13.566
20
3.092
11
14.137
21
3.092
0
0
LINE
8
0
10
0.979
20
3.592
11
1.443
21
3.592
0
0
LINE
8
0
10
0.979
20
3.592
11
1.443
21
3.592
0
0
LINE
8
0
10
1.443
20
3.592
11
2.073
21
3.592
0
0
LINE
8
0
10
2.779
20
3.592
11
3.243
21
3.592
0
0
LINE
8
0
10
3.243
20
3.592
11
3.873
21
3.592
0
0
LINE
8
0
10
4.579
20
3.592
11
5.043
21
3.592
0
0
LINE
8
0
10
5.043
20
3.592
11
5.673
21
3.592
0
0
LINE
8
0
10
6.379
20
3.592
11
6.843
21
3.592
0
0
LINE
8
0
10
6.843
20
3.592
11
7.473
21
3.592
0
0
LINE
8
0
10
8.179
20
3.592
11
8.643
21
3.592
0
0
LINE
8
0
10
8.643
20
3.592
11
9.273
21
3.592
0
0
LINE
8
0
10
9.979
20
3.592
11
10.609
21
3.592
0
0
LINE
8
0
10
10.609
20
3.592
11
11.073
21
3.592
0
0
LINE
8
0
10
11.779
20
3.592
11
12.409
21
3.592
0
0
LINE
8
0
10
12.409
20
3.592
11
12.873
21
3.592
0
0
LINE
8
0
10
13.579
20
3.592
11
14.137
21
3.592
0
0
LINE
8
0
10
0.991
20
4.092
11
1.455
21
4.092
0
0
LINE
8
0
10
0.991
20
4.092
11
1.455
21
4.092
0
0
LINE
8
0
10
1.455
20
4.092
11
2.085
21
4.092
0
0
LINE
8
0
10
2.791
20
4.092
11
3.421
21
4.092
0
0
LINE
8
0
10
3.421
20
4.092
11
3.885
21
4.092
0
0
LINE
8
0
10
4.591
20
4.092
11
5.221
21
4.092
0
0
LINE
8
0
10
5.221
20
4.092
11
5.685
21
4.092
0
0
LINE
8
0
10
6.391
20
4.092
11
7.021
21
4.092
0
0
LINE
8
0
10
7.021
20
4.092
11
7.485
21
4.092
0
0
LINE
8
0
10
8.191
20
4.092
11
8.821
21
4.092
0
0
LINE
8
0
10
8.821
20
4.092
11
9.285
21
4.092
0
0
LINE
8
0
10
9.991
20
4.092
11
10.621
21
4.092
0
0
LINE
8
0
10
10.621
20
4.092
11
11.085
21
4.092
0
0
LINE
8
0
10
11.791
20
4.092
11
12.255
21
4.092
0
0
LINE
8
0
10
12.255
20
4.092
11
12.885
21
4.092
0
0
LINE
8
0
10
13.591
20
4.092
11
14.137
21
4.092
0
0
LINE
8
0
10
1.004
20
4.592
11
1.468
21
4.592
0
0
LINE
8
0
10
1.004
20
4.592
11
1.468
21
4.592
0
0
LINE
8
0
10
1.468
20
4.592
11
2.098
21
4.592
0
0
LINE
8
0
10
2.804
20
4.592
11
3.434
21
4.592
0
0
LINE
8
0
10
3.434
20
4.592
11
3.898
21
4.592
0
0
LINE
8
0
10
4.604
20
4.592
11
5.234
21
4.592
0
0
LINE
8
0
10
5.234
20
4.592
11
5.698
21
4.592
0
0
LINE
8
0
10
6.404
20
4.592
11
6.868
21
4.592
0
0
LINE
8
0
10
6.868
20
4.592
11
7.498
21
4.592
0
0
LINE
8
0
10
8.204
20
4.592
11
8.834
21
4.592
0
0
LINE
8
0
10
8.834
20
4.592
11
9.298
21
4.592
0
0
LINE
8
0
10
10.004
20
4.592
11
10.634
21
4.592
0
0
LINE
8
0
10
10.634
20
4.592
11
11.098
21
4.592
0
0
LINE
8
0
10
11.804
20
4.592
11
12.268
21
4.592
0
0
LINE
8
0
10
12.268
20
4.592
11
12.898
21
4.592
0
0
LINE
8
0
10
13.604
20
4.592
11
14.137
21
4.592
0
0
LINE
8
0
10
1.016
20
5.092
11
1.481
21
5.092
0
0
LINE
8
0
10
1.016
20
5.092
11
1.481
21
5.092
0
0
LINE
8
0
10
1.481
20
5.092
11
2.111
21
5.092
0
0
LINE
8
0
10
2.816
20
5.092
11
3.446
21
5.092
0
0
LINE
8
0
10
3.446
20
5.092
11
3.911
21
5.092
0
0
LINE
8
0
10
4.616
20
5.092
11
5.246
21
5.092
0
0
LINE
8
0
10
5.246
20
5.092
11
5.711
21
5.092
0
0
LINE
8
0
10
6.416
20
5.092
11
6.881
21
5.092
0
0
LINE
8
0
10
6.881
20
5.092
11
7.511
21
5.092
0
0
LINE
8
0
10
8.216
20
5.092
11
8.846
21
5.092
0
0
LINE
8
0
10
8.846
20
5.092
11
9.311
21
5.092
0
0
LINE
8
0
10
10.016
20
5.092
11
10.646
21
5.092
0
0
LINE
8
0
10
10.646
20
5.092
11
11.111
21
5.092
0
0
LINE
8
0
10
11.816
20
5.092
11
12.446
21
5.092
0
0
LINE
8
0
10
12.446
20
5.092
11
12.911
21
5.092
0
0
LINE
8
0
10
13.616
20
5.092
11
13.617
21
5.092
0
0
LINE
8
0
10
13.617
20
5.092
11
14.137
21
5.092
0
0
LINE
8
0
10
1.029
20
5.592
11
1.493
21
5.592
0
0
LINE
8
0
10
1.029
20
5.592
11
1.493
21
5.592
0
0
LINE
8
0
10
1.493
20
5.592
11
2.123
21
5.592
0
0
LINE
8
0
10
2.829
20
5.592
11
3.459
21
5.592
0
0
LINE
8
0
10
3.459
20
5.592
11
3.923
21
5.592
0
0
LINE
8
0
10
4.629
20
5.592
11
5.259
21
5.592
0
0
LINE
8
0
10
5.259
20
5.592
11
5.723
21
5.592
0
0
LINE
8
0
10
6.429
20
5.592
11
7.059
21
5.592
0
0
LINE
8
0
10
7.059
20
5.592
11
7.523
21
5.592
0
0
LINE
8
0
10
8.229
20
5.592
11
8.859
21
5.592
0
0
LINE
8
0
10
8.859
20
5.592
11
9.323
21
5.592
0
0
LINE
8
0
10
10.029
20
5.592
11
10.659
21
5.592
0
0
LINE
8
0
10
10.659
20
5.592
11
11.123
21
5.592
0
0
LINE
8
0
10
11.829
20
5.592
11
12.459
21
5.592
0
0
LINE
8
0
10
12.459
20
5.592
11
12.923
21
5.592
0
0
LINE
8
0
10
13.629
20
5.592
11
14.136
21
5.592
0
0
LINE
8
0
10
1.042
20
6.092
11
1.672
21
6.092
0
0
LINE
8
0
10
1.042
20
6.092
11
1.672
21
6.092
0
0
LINE
8
0
10
1.672
20
6.092
11
2.136
21
6.092
0
0
LINE
8
0
10
2.842
20
6.092
11
3.306
21
6.092
0
0
LINE
8
0
10
3.306
20
6.092
11
3.936
21
6.092
0
0
LINE
8
0
10
4.642
20
6.092
11
5.272
21
6.092
0
0
LINE
8
0
10
5.272
20
6.092
11
5.736
21
6.092
0
0
LINE
8
0
10
6.442
20
6.092
11
7.072
21
6.092
0
0
LINE
8
0
10
7.072
20
6.092
11
7.536
21
6.092
0
0
LINE
8
0
10
8.242
20
6.092
11
8.872
21
6.092
0
0
LINE
8
0
10
8.872
20
6.092
11
9.336
21
6.092
0
0
LINE
8
0
10
10.042
20
6.092
11
10.672
21
6.092
0
0
LINE
8
0
10
10.672
20
6.092
11
11.136
21
6.092
0
0
LINE
8
0
10
11.842
20
6.092
11
12.306
21
6.092
0
0
LINE
8
0
10
12.306
20
6.092
11
12.936
21
6.092
0
0
LINE
8
0
10
13.642
20
6.092
11
14.141
21
6.092
0
0
LINE
8
0
10
1.054
20
6.592
11
1.684
21
6.592
0
0
LINE
8
0
10
1.054
20
6.592
11
1.684
21
6.592
0
0
LINE
8
0
10
1.684
20
6.592
11
2.148
21
6.592
0
0
LINE
8
0
10
2.854
20
6.592
11
3.484
21
6.592
0
0
LINE
8
0
10
3.484
20
6.592
11
3.948
21
6.592
0
0
LINE
8
0
10
4.654
20
6.592
11
5.118
21
6.592
0
0
LINE
8
0
10
5.118
20
6.592
11
5.748
21
6.592
0
0
LINE
8
0
10
6.454
20
6.592
11
6.918
21
6.592
0
0
LINE
8
0
10
6.918
20
6.592
11
7.548
21
6.592
0
0
LINE
8
0
10
8.254
20
6.592
11
8.884
21
6.592
0
0
LINE
8
0
10
8.884
20
6.592
11
9.348
21
6.592
0
0
LINE
8
0
10
10.054
20
6.592
11
10.518
21
6.592
0
0
LINE
8
0
10
10.518
20
6.592
11
11.148
21
6.592
0
0
LINE
8
0
10
11.854
20
6.592
11
12.484
21
6.592
0
0
LINE
8
0
10
12.484
20
6.592
11
12.948
21
6.592
0
0
LINE
8
0
10
13.654
20
6.592
11
14.148
21
6.592
0
0
LINE
8
0
10
1.067
20
7.092
11
1.697
21
7.092
0
0
LINE
8
0
10
1.067
20
7.092
11
1.697
21
7.092
0
0
LINE
8
0
10
1.697
20
7.092
11
2.161
21
7.092
0
0
LINE
8
0
10
2.867
20
7.092
11
3.497
21
7.092
0
0
LINE
8
0
10
3.497
20
7.092
11
3.961
21
7.092
0
0
LINE
8
0
10
4.667
20
7.092
11
5.131
21
7.092
0
0
LINE
8
0
10
5.131
20
7.092
11
5.761
21
7.092
0
0
LINE
8
0
10
6.467
20
7.092
11
6.931
21
7.092
0
0
LINE
8
0
10
6.931
20
7.092
11
7.561
21
7.092
0
0
LINE
8
0
10
8.267
20
7.092
11
8.897
21
7.092
0
0
LINE
8
0
10
8.897
20
7.092
11
9.361
21
7.092
0
0
LINE
8
0
10
10.067
20
7.092
11
10.531
21
7.092
0
0
LINE
8
0
10
10.531
20
7.092
11
11.161
21
7.092
0
0
LINE
8
0
10
11.867
20
7.092
11
12.497
21
7.092
0
0
LINE
8
0
10
12.497
20
7.092
11
12.961
21
7.092
0
0
LINE
8
0
10
13.667
20
7.092
11
14.155
21
7.092
0
0
LINE
8
0
10
1.079
20
7.592
11
1.080
21
7.592
0
0
LINE
8
0
10
1.079
20
7.592
11
1.080
21
7.592
0
0
LINE
8
0
10
1.080
20
7.592
11
1.710
21
7.592
0
0
LINE
8
0
10
1.710
20
7.592
11
2.174
21
7.592
0
0
LINE
8
0
10
2.879
20
7.592
11
2.880
21
7.592
0
0
LINE
8
0
10
2.880
20
7.592
11
3.510
21
7.592
0
0
LINE
8
0
10
3.510
20
7.592
11
3.974
21
7.592
0
0
LINE
8
0
10
4.679
20
7.592
11
4.680
21
7.592
0
0
LINE
8
0
10
4.680
20
7.592
11
5.310
21
7.592
0
0
LINE
8
0
10
5.310
20
7.592
11
5.774
21
7.592
0
0
LINE
8
0
10
6.479
20
7.592
11
6.480
21
7.592
0
0
LINE
8
0
10
6.480
20
7.592
11
7.110
21
7.592
0
0
LINE
8
0
10
7.110
20
7.592
11
7.574
21
7.592
0
0
LINE
8
0
10
8.279
20
7.592
11
8.280
21
7.592
0
0
LINE
8
0
10
8.280
20
7.592
11
8.910
21
7.592
0
0
LINE
8
0
10
8.910
20
7.592
11
9.374
21
7.592
0
0
LINE
8
0
10
10.079
20
7.592
11
10.080
21
7.592
0
0
LINE
8
0
10
10.080
20
7.592
11
10.710
21
7.592
0
0
LINE
8
0
10
10.710
20
7.592
11
11.174
21
7.592
0
0
LINE
8
0
10
11.879
20
7.592
11
11.880
21
7.592
0
0
LINE
8
0
10
11.880
20
7.592
11
12.510
21
7.592
0
0
LINE
8
0
10
12.510
20
7.592
11
12.974
21
7.592
0
0
LINE
8
0
10
13.679
20
7.592
11
13.680
21
7.592
0
0
LINE
8
0
10
13.680
20
7.592
11
14.163
21
7.592
0
0
LINE
8
0
10
1.078
20
8.092
11
1.708
21
8.092
0
0
LINE
8
0
10
1.078
20
8.092
11
1.708
21
8.092
0
0
LINE
8
0
10
1.708
20
8.092
11
2.173
21
8.092
0
0
LINE
8
0
10
2.878
20
8.092
11
3.343
21
8.092
0
0
LINE
8
0
10
3.343
20
8.092
11
3.973
21
8.092
0
0
LINE
8
0
10
4.678
20
8.092
11
5.308
21
8.092
0
0
LINE
8
0
10
5.308
20
8.092
11
5.773
21
8.092
0
0
LINE
8
0
10
6.478
20
8.092
11
7.108
21
8.092
0
0
LINE
8
0
10
7.108
20
8.092
11
7.573
21
8.092
0
0
LINE
8
0
10
8.278
20
8.092
11
8.908
21
8.092
0
0
LINE
8
0
10
8.908
20
8.092
11
9.373
21
8.092
0
0
LINE
8
0
10
10.078
20
8.092
11
10.708
21
8.092
0
0
LINE
8
0
10
10.708
20
8.092
11
11.173
21
8.092
0
0
LINE
8
0
10
11.878
20
8.092
11
12.508
21
8.092
0
0
LINE
8
0
10
12.508
20
8.092
11
12.973
21
8.092
0
0
LINE
8
0
10
13.678
20
8.092
11
13.679
21
8.092
0
0
LINE
8
0
10
13.679
20
8.092
11
14.162
21
8.092
0
0
LINE
8
0
10
1.063
20
8.592
11
1.693
21
8.592
0
0
LINE
8
0
10
1.063
20
8.592
11
1.693
21
8.592
0
0
LINE
8
0
10
1.693
20
8.592
11
2.157
21
8.592
0
0
LINE
8
0
10
2.863
20
8.592
11
3.493
21
8.592
0
0
LINE
8
0
10
3.493
20
8.592
11
3.957
21
8.592
0
0
LINE
8
0
10
4.663
20
8.592
11
5.293
21
8.592
0
0
LINE
8
0
10
5.293
20
8.592
11
5.757
21
8.592
0
0
LINE
8
0
10
6.463
20
8.592
11
7.093
21
8.592
0
0
LINE
8
0
10
7.093
20
8.592
11
7.557
21
8.592
0
0
LINE
8
0
10
8.263
20
8.592
11
8.893
21
8.592
0
0
LINE
8
0
10
8.893
20
8.592
11
9.357
21
8.592
0
0
LINE
8
0
10
10.063
20
8.592
11
10.693
21
8.592
0
0
LINE
8
0
10
10.693
20
8.592
11
11.157
21
8.592
0
0
LINE
8
0
10
11.863
20
8.592
11
12.493
21
8.592
0
0
LINE
8
0
10
12.493
20
8.592
11
12.957
21
8.592
0
0
LINE
8
0
10
13.663
20
8.592
11
14.153
21
8.592
0
0
LINE
8
0
10
1.048
20
9.092
11
1.678
21
9.092
0
0
LINE
8
0
10
1.048
20
9.092
11
1.678
21
9.092
0
0
LINE
8
0
10
1.678
20
9.092
11
2.142
21
9.092
0
0
LINE
8
0
10
2.848
20
9.092
11
3.312
21
9.092
0
0
LINE
8
0
10
3.312
20
9.092
11
3.942
21
9.092
0
0
LINE
8
0
10
4.648
20
9.092
11
5.112
21
9.092
0
0
LINE
8
0
10
5.112
20
9.092
11
5.742
21
9.092
0
0
LINE
8
0
10
6.448
20
9.092
11
6.912
21
9.092
0
0
LINE
8
0
10
6.912
20
9.092
11
7.542
21
9.092
0
0
LINE
8
0
10
8.248
20
9.092
11
8.878
21
9.092
0
0
LINE
8
0
10
8.878
20
9.092
11
9.342
21
9.092
0
0
LINE
8
0
10
10.048
20
9.092
11
10.678
21
9.092
0
0
LINE
8
0
10
10.678
20
9.092
11
11.142
21
9.092
0
0
LINE
8
0
10
11.848
20
9.092
11
12.478
21
9.092
0
0
LINE
8
0
10
12.478
20
9.092
11
12.942
21
9.092
0
0
LINE
8
0
10
13.648
20
9.092
11
14.144
21
9.092
0
0
LINE
8
0
10
1.032
20
9.592
11
1.497
21
9.592
0
0
LINE
8
0
10
1.032
20
9.592
11
1.497
21
9.592
0
0
LINE
8
0
10
1.497
20
9.592
11
2.127
21
9.592
0
0
LINE
8
0
10
2.832
20
9.592
11
3.462
21
9.592
0
0
LINE
8
0
10
3.462
20
9.592
11
3.927
21
9.592
0
0
LINE
8
0
10
4.632
20
9.592
11
5.262
21
9.592
0
0
LINE
8
0
10
5.262
20
9.592
11
5.727
21
9.592
0
0
LINE
8
0
10
6.432
20
9.592
11
6.897
21
9.592
0
0
LINE
8
0
10
6.897
20
9.592
11
7.527
21
9.592
0
0
LINE
8
0
10
8.232
20
9.592
11
8.862
21
9.592
0
0
LINE
8
0
10
8.862
20
9.592
11
9.327
21
9.592
0
0
LINE
8
0
10
10.032
20
9.592
11
10.662
21
9.592
0
0
LINE
8
0
10
10.662
20
9.592
11
11.127
21
9.592
0
0
LINE
8
0
10
11.832
20
9.592
11
12.462
21
9.592
0
0
LINE
8
0
10
12.462
20
9.592
11
12.927
21
9.592
0
0
LINE
8
0
10
13.632
20
9.592
11
13.633
21
9.592
0
0
LINE
8
0
10
13.633
20
9.592
11
14.135
21
9.592
0
0
LINE
8
0
10
1.017
20
10.092
11
1.481
21
10.092
0
0
LINE
8
0
10
1.017
20
10.092
11
1.481
21
10.092
0
0
LINE
8
0
10
1.481
20
10.092
11
2.111
21
10.092
0
0
LINE
8
0
10
2.817
20
10.092
11
3.447
21
10.092
0
0
LINE
8
0
10
3.447
20
10.092
11
3.911
21
10.092
0
0
LINE
8
0
10
4.617
20
10.092
11
5.247
21
10.092
0
0
LINE
8
0
10
5.247
20
10.092
11
5.711
21
10.092
0
0
LINE
8
0
10
6.417
20
10.092
11
6.881
21
10.092
0
0
LINE
8
0
10
6.881
20
10.092
11
7.511
21
10.092
0
0
LINE
8
0
10
8.217
20
10.092
11
8.847
21
10.092
0
0
LINE
8
0
10
8.847
20
10.092
11
9.311
21
10.092
0
0
LINE
8
0
10
10.017
20
10.092
11
10.647
21
10.092
0
0
LINE
8
0
10
10.647
20
10.092
11
11.111
21
10.092
0
0
LINE
8
0
10
11.817
20
10.092
11
12.447
21
10.092
0
0
LINE
8
0
10
12.447
20
10.092
11
12.911
21
10.092
0
0
LINE
8
0
10
13.617
20
10.092
11
14.126
21
10.092
0
0
LINE
8
0
10
1.002
20
10.592
11
1.632
21
10.592
0
0
LINE
8
0
10
1.002
20
10.592
11
1.632
21
10.592
0
0
LINE
8
0
10
1.632
20
10.592
11
2.096
21
10.592
0
0
LINE
8
0
10
2.802
20
10.592
11
3.266
21
10.592
0
0
LINE
8
0
10
3.266
20
10.592
11
3.896
21
10.592
0
0
LINE
8
0
10
4.602
20
10.592
11
5.232
21
10.592
0
0
LINE
8
0
10
5.232
20
10.592
11
5.696
21
10.592
0
0
LINE
8
0
10
6.402
20
10.592
11
7.032
21
10.592
0
0
LINE
8
0
10
7.032
20
10.592
11
7.496
21
10.592
0
0
LINE
8
0
10
8.202
20
10.592
11
8.832
21
10.592
0
0
LINE
8
0
10
8.832
20
10.592
11
9.296
21
10.592
0
0
LINE
8
0
10
10.002
20
10.592
11
10.632
21
10.592
0
0
LINE
8
0
10
10.632
20
10.592
11
11.096
21
10.592
0
0
LINE
8
0
10
11.802
20
10.592
11
12.432
21
10.592
0
0
LINE
8
0
10
12.432
20
10.592
11
12.896
21
10.592
0
0
LINE
8
0
10
13.602
20
10.592
11
14.117
21
10.592
0
0
LINE
8
0
10
0.987
20
11.092
11
1.451
21
11.092
0
0
LINE
8
0
10
0.987
20
11.092
11
1.451
21
11.092
0
0
LINE
8
0
10
1.451
20
11.092
11
2.081
21
11.092
0
0
LINE
8
0
10
2.787
20
11.092
11
3.251
21
11.092
0
0
LINE
8
0
10
3.251
20
11.092
11
3.881
21
11.092
0
0
LINE
8
0
10
4.587
20
11.092
11
5.051
21
11.092
0
0
LINE
8
0
10
5.051
20
11.092
11
5.681
21
11.092
0
0
LINE
8
0
10
6.387
20
11.092
11
6.851
21
11.092
0
0
LINE
8
0
10
6.851
20
11.092
11
7.481
21
11.092
0
0
LINE
8
0
10
8.187
20
11.092
11
8.817
21
11.092
0
0
LINE
8
0
10
8.817
20
11.092
11
9.281
21
11.092
0
0
LINE
8
0
10
9.987
20
11.092
11
10.617
21
11.092
0
0
LINE
8
0
10
10.617
20
11.092
11
11.081
21
11.092
0
0
LINE
8
0
10
11.787
20
11.092
11
12.417
21
11.092
0
0
LINE
8
0
10
12.417
20
11.092
11
12.881
21
11.092
0
0
LINE
8
0
10
13.587
20
11.092
11
14.109
21
11.092
0
0
LINE
8
0
10
0.971
20
11.592
11
1.601
21
11.592
0
0
LINE
8
0
10
0.971
20
11.592
11
1.601
21
11.592
0
0
LINE
8
0
10
1.601
20
11.592
11
2.065
21
11.592
0
0
LINE
8
0
10
2.771
20
11.592
11
3.235
21
11.592
0
0
LINE
8
0
10
3.235
20
11.592
11
3.865
21
11.592
0
0
LINE
8
0
10
4.571
20
11.592
11
5.035
21
11.592
0
0
LINE
8
0
10
5.035
20
11.592
11
5.665
21
11.592
0
0
LINE
8
0
10
6.371
20
11.592
11
6.835
21
11.592
0
0
LINE
8
0
10
6.835
20
11.592
11
7.465
21
11.592
0
0
LINE
8
0
10
8.171
20
11.592
11
8.801
21
11.592
0
0
LINE
8
0
10
8.801
20
11.592
11
9.265
21
11.592
0
0
LINE
8
0
10
9.971
20
11.592
11
10.601
21
11.592
0
0
LINE
8
0
10
10.601
20
11.592
11
11.065
21
11.592
0
0
LINE
8
0
10
11.771
20
11.592
11
12.401
21
11.592
0
0
LINE
8
0
10
12.401
20
11.592
11
12.865
21
11.592
0
0
LINE
8
0
10
13.571
20
11.592
11
14.099
21
11.592
0
0
LINE
8
0
10
0.956
20
12.092
11
1.420
21
12.092
0
0
LINE
8
0
10
0.956
20
12.092
11
1.420
21
12.092
0
0
LINE
8
0
10
1.420
20
12.092
11
2.050
21
12.092
0
0
LINE
8
0
10
2.756
20
12.092
11
3.386
21
12.092
0
0
LINE
8
0
10
3.386
20
12.092
11
3.850
21
12.092
0
0
LINE
8
0
10
4.556
20
12.092
11
5.186
21
12.092
0
0
LINE
8
0
10
5.186
20
12.092
11
5.650
21
12.092
0
0
LINE
8
0
10
6.356
20
12.092
11
6.820
21
12.092
0
0
LINE
8
0
10
6.820
20
12.092
11
7.450
21
12.092
0
0
LINE
8
0
10
8.156
20
12.092
11
8.786
21
12.092
0
0
LINE
8
0
10
8.786
20
12.092
11
9.250
21
12.092
0
0
LINE
8
0
10
9.956
20
12.092
11
10.586
21
12.092
0
0
LINE
8
0
10
10.586
20
12.092
11
11.050
21
12.092
0
0
LINE
8
0
10
11.756
20
12.092
11
12.220
21
12.092
0
0
LINE
8
0
10
12.220
20
12.092
11
12.850
21
12.092
0
0
LINE
8
0
10
13.556
20
12.092
11
14.091
21
12.092
0
0
LINE
8
0
10
0.941
20
12.592
11
1.571
21
12.592
0
0
LINE
8
0
10
0.941
20
12.592
11
1.571
21
12.592
0
0
LINE
8
0
10
1.571
20
12.592
11
2.035
21
12.592
0
0
LINE
8
0
10
2.741
20
12.592
11
3.205
21
12.592
0
0
LINE
8
0
10
3.205
20
12.592
11
3.835
21
12.592
0
0
LINE
8
0
10
4.541
20
12.592
11
5.171
21
12.592
0
0
LINE
8
0
10
5.171
20
12.592
11
5.635
21
12.592
0
0
LINE
8
0
10
6.341
20
12.592
11
6.971
21
12.592
0
0
LINE
8
0
10
6.971
20
12.592
11
7.435
21
12.592
0
0
LINE
8
0
10
8.141
20
12.592
11
8.771
21
12.592
0
0
LINE
8
0
10
8.771
20
12.592
11
9.235
21
12.592
0
0
LINE
8
0
10
9.941
20
12.592
11
10.571
21
12.592
0
0
LINE
8
0
10
10.571
20
12.592
11
11.035
21
12.592
0
0
LINE
8
0
10
11.741
20
12.592
11
12.371
21
12.592
0
0
LINE
8
0
10
12.371
20
12.592
11
12.835
21
12.592
0
0
LINE
8
0
10
13.541
20
12.592
11
14.082
21
12.592
0
0
LINE
8
0
10
0.954
20
13.092
11
1.584
21
13.092
0
0
LINE
8
0
10
0.954
20
13.092
11
1.584
21
13.092
0
0
LINE
8
0
10
1.584
20
13.092
11
2.048
21
13.092
0
0
LINE
8
0
10
2.754
20
13.092
11
3.384
21
13.092
0
0
LINE
8
0
10
3.384
20
13.092
11
3.848
21
13.092
0
0
LINE
8
0
10
4.554
20
13.092
11
5.184
21
13.092
0
0
LINE
8
0
10
5.184
20
13.092
11
5.648
21
13.092
0
0
LINE
8
0
10
6.354
20
13.092
11
6.984
21
13.092
0
0
LINE
8
0
10
6.984
20
13.092
11
7.448
21
13.092
0
0
LINE
8
0
10
8.154
20
13.092
11
8.784
21
13.092
0
0
LINE
8
0
10
8.784
20
13.092
11
9.248
21
13.092
0
0
LINE
8
0
10
9.954
20
13.092
11
10.584
21
13.092
0
0
LINE
8
0
10
10.584
20
13.092
11
11.048
21
13.092
0
0
LINE
8
0
10
11.754
20
13.092
11
12.384
21
13.092
0
0
LINE
8
0
10
12.384
20
13.092
11
12.848
21
13.092
0
0
LINE
8
0
10
13.554
20
13.092
11
14.089
21
13.092
0
0
LINE
8
0
10
1.014
20
13.592
11
1.644
21
13.592
0
0
LINE
8
0
10
1.014
20
13.592
11
1.644
21
13.592
0
0
LINE
8
0
10
1.644
20
13.592
11
2.108
21
13.592
0
0
LINE
8
0
10
2.814
20
13.592
11
3.444
21
13.592
0
0
LINE
8
0
10
3.444
20
13.592
11
3.908
21
13.592
0
0
LINE
8
0
10
4.614
20
13.592
11
5.078
21
13.592
0
0
LINE
8
0
10
5.078
20
13.592
11
5.708
21
13.592
0
0
LINE
8
0
10
6.414
20
13.592
11
6.878
21
13.592
0
0
LINE
8
0
10
6.878
20
13.592
11
7.508
21
13.592
0
0
LINE
8
0
10
8.214
20
13.592
11
8.678
21
13.592
0
0
LINE
8
0
10
8.678
20
13.592
11
9.308
21
13.592
0
0
LINE
8
0
10
10.014
20
13.592
11
10.644
21
13.592
0
0
LINE
8
0
10
10.644
20
13.592
11
11.108
21
13.592
0
0
LINE
8
0
10
11.814
20
13.592
11
12.444
21
13.592
0
0
LINE
8
0
10
12.444
20
13.592
11
12.908
21
13.592
0
0
LINE
8
0
10
13.614
20
13.592
11
14.124
21
13.592
0
0
LINE
8
0
10
1.157
20
14.092
11
1.621
21
14.092
0
0
LINE
8
0
10
1.157
20
14.092
11
1.621
21
14.092
0
0
LINE
8
0
10
1.621
20
14.092
11
2.251
21
14.092
0
0
LINE
8
0
10
2.957
20
14.092
11
3.421
21
14.092
0
0
LINE
8
0
10
3.421
20
14.092
11
4.051
21
14.092
0
0
LINE
8
0
10
4.757
20
14.092
11
5.221
21
14.092
0
0
LINE
8
0
10
5.221
20
14.092
11
5.851
21
14.092
0
0
LINE
8
0
10
6.557
20
14.092
11
7.021
21
14.092
0
0
LINE
8
0
10
7.021
20
14.092
11
7.651
21
14.092
0
0
LINE
8
0
10
8.357
20
14.092
11
8.987
21
14.092
0
0
LINE
8
0
10
8.987
20
14.092
11
9.451
21
14.092
0
0
LINE
8
0
10
10.157
20
14.092
11
10.787
21
14.092
0
0
LINE
8
0
10
10.787
20
14.092
11
11.251
21
14.092
0
0
LINE
8
0
10
11.957
20
14.092
11
12.587
21
14.092
0
0
LINE
8
0
10
12.587
20
14.092
11
13.051
21
14.092
0
0
LINE
8
0
10
13.757
20
14.092
11
14.207
21
14.092
0
0
LINE
8
0
10
1.724
20
14.592
11
2.354
21
14.592
0
0
LINE
8
0
10
1.724
20
14.592
11
2.354
21
14.592
0
0
LINE
8
0
10
2.354
20
14.592
11
2.818
21
14.592
0
0
LINE
8
0
10
3.524
20
14.592
11
4.154
21
14.592
0
0
LINE
8
0
10
4.154
20
14.592
11
4.618
21
14.592
0
0
LINE
8
0
10
5.324
20
14.592
11
5.680
21
14.592
0
0
LINE
8
0
10
6.472
20
14.592
11
7.102
21
14.592
0
0
LINE
8
0
10
7.102
20
14.592
11
7.566
21
14.592
0
0
LINE
8
0
10
8.272
20
14.592
11
8.736
21
14.592
0
0
LINE
8
0
10
8.736
20
14.592
11
9.366
21
14.592
0
0
LINE
8
0
10
10.072
20
14.592
11
10.702
21
14.592
0
0
LINE
8
0
10
10.702
20
14.592
11
11.166
21
14.592
0
0
LINE
8
0
10
11.872
20
14.592
11
12.502
21
14.592
0
0
LINE
8
0
10
12.502
20
14.592
11
12.966
21
14.592
0
0
LINE
8
0
10
13.672
20
14.592
11
14.158
21
14.592
0
0
ENDSEC
0
EOF
