0
SECTION
2
ENTITIES
0
LINE
8
0
10
2.397
20
0.431
11
1.454
21
0.533
0
0
LINE
8
0
10
1.454
20
0.533
11
0.807
21
0.857
0
0
LINE
8
0
10
0.807
20
0.857
11
0.460
21
2.059
0
0
LINE
8
0
10
0.460
20
2.059
11
0.582
21
7.875
0
0
LINE
8
0
10
0.582
20
7.875
11
0.436
21
12.720
0
0
LINE
8
0
10
0.436
20
12.720
11
0.577
21
13.887
0
0
LINE
8
0
10
0.577
20
13.887
11
0.826
21
14.346
0
0
LINE
8
0
10
0.826
20
14.346
11
1.286
21
14.621
0
0
LINE
8
0
10
1.286
20
14.621
11
2.315
21
14.751
0
0
LINE
8
0
10
2.315
20
14.751
11
14.613
21
14.638
0
0
LINE
8
0
10
14.613
20
14.638
11
14.748
21
2.345
0
0
LINE
8
0
10
14.748
20
2.345
11
14.512
21
1.035
0
0
LINE
8
0
10
14.512
20
1.035
11
14.009
21
0.622
0
0
LINE
8
0
10
14.009
20
0.622
11
12.820
21
0.449
0
0
LINE
8
0
10
12.820
20
0.449
11
7.109
21
0.580
0
0
LINE
8
0
10
7.109
20
0.580
11
2.397
21
0.431
0
0
LINE
8
0
10
2.397
20
0.431
11
2.397
21
0.431
0
0
LINE
8
0
10
2.397
20
0.431
11
1.454
21
0.533
0
0
LINE
8
0
10
1.454
20
0.533
11
0.807
21
0.857
0
0
LINE
8
0
10
0.807
20
0.857
11
0.460
21
2.059
0
0
LINE
8
0
10
0.460
20
2.059
11
0.582
21
7.875
0
0
LINE
8
0
10
0.582
20
7.875
11
0.436
21
12.720
0
0
LINE
8
0
10
0.436
20
12.720
11
0.577
21
13.887
0
0
LINE
8
0
10
0.577
20
13.887
11
0.826
21
14.346
0
0
LINE
8
0
10
0.826
20
14.346
11
1.286
21
14.621
0
0
LINE
8
0
10
1.286
20
14.621
11
2.315
21
14.751
0
0
LINE
8
0
10
2.315
20
14.751
11
14.613
21
14.638
0
0
LINE
8
0
10
14.613
20
14.638
11
14.748
21
2.345
0
0
LINE
8
0
10
14.748
20
2.345
11
14.512
21
1.035
0
0
LINE
8
0
10
14.512
20
1.035
11
14.009
21
0.622
0
0
LINE
8
0
10
14.009
20
0.622
11
12.820
21
0.449
0
0
LINE
8
0
10
12.820
20
0.449
11
7.109
21
0.580
0
0
LINE
8
0
10
7.109
20
0.580
11
2.397
21
0.431
0
0
LINE
8
0
10
2.397
20
0.431
11
2.397
21
0.431
0
0
LINE
8
0
10
0.593
20
1.631
11
0.593
21
2.801
0
0
LINE
8
0
10
0.593
20
1.631
11
0.593
21
2.801
0
0
LINE
8
0
10
0.593
20
2.801
11
0.593
21
2.977
0
0
LINE
8
0
10
0.593
20
3.431
11
0.593
21
4.601
0
0
LINE
8
0
10
0.593
20
4.601
11
0.593
21
4.777
0
0
LINE
8
0
10
0.593
20
5.231
11
0.593
21
6.401
0
0
LINE
8
0
10
0.593
20
6.401
11
0.593
21
6.577
0
0
LINE
8
0
10
0.593
20
7.031
11
0.593
21
8.201
0
0
LINE
8
0
10
0.593
20
8.201
11
0.593
21
8.377
0
0
LINE
8
0
10
0.593
20
8.831
11
0.593
21
10.001
0
0
LINE
8
0
10
0.593
20
10.001
11
0.593
21
10.177
0
0
LINE
8
0
10
0.593
20
10.631
11
0.593
21
11.801
0
0
LINE
8
0
10
0.593
20
11.801
11
0.593
21
11.977
0
0
LINE
8
0
10
0.593
20
12.431
11
0.593
21
13.602
0
0
LINE
8
0
10
0.593
20
13.602
11
0.593
21
13.777
0
0
LINE
8
0
10
0.593
20
13.870
11
0.593
21
13.929
0
0
LINE
8
0
10
1.093
20
1.031
11
1.093
21
1.207
0
0
LINE
8
0
10
1.093
20
1.031
11
1.093
21
1.207
0
0
LINE
8
0
10
1.093
20
1.207
11
1.093
21
2.377
0
0
LINE
8
0
10
1.093
20
2.831
11
1.093
21
3.007
0
0
LINE
8
0
10
1.093
20
3.007
11
1.093
21
4.177
0
0
LINE
8
0
10
1.093
20
4.631
11
1.093
21
4.807
0
0
LINE
8
0
10
1.093
20
4.807
11
1.093
21
5.977
0
0
LINE
8
0
10
1.093
20
6.431
11
1.093
21
6.607
0
0
LINE
8
0
10
1.093
20
6.607
11
1.093
21
7.777
0
0
LINE
8
0
10
1.093
20
8.231
11
1.093
21
9.401
0
0
LINE
8
0
10
1.093
20
9.401
11
1.093
21
9.577
0
0
LINE
8
0
10
1.093
20
10.031
11
1.093
21
11.201
0
0
LINE
8
0
10
1.093
20
11.201
11
1.093
21
11.377
0
0
LINE
8
0
10
1.093
20
11.831
11
1.093
21
13.001
0
0
LINE
8
0
10
1.093
20
13.001
11
1.093
21
13.177
0
0
LINE
8
0
10
1.093
20
13.631
11
1.093
21
14.398
0
0
LINE
8
0
10
1.593
20
0.881
11
1.593
21
1.057
0
0
LINE
8
0
10
1.593
20
0.881
11
1.593
21
1.057
0
0
LINE
8
0
10
1.593
20
1.057
11
1.593
21
2.227
0
0
LINE
8
0
10
1.593
20
2.681
11
1.593
21
3.851
0
0
LINE
8
0
10
1.593
20
3.851
11
1.593
21
4.027
0
0
LINE
8
0
10
1.593
20
4.481
11
1.593
21
5.651
0
0
LINE
8
0
10
1.593
20
5.651
11
1.593
21
5.827
0
0
LINE
8
0
10
1.593
20
6.281
11
1.593
21
7.451
0
0
LINE
8
0
10
1.593
20
7.451
11
1.593
21
7.627
0
0
LINE
8
0
10
1.593
20
8.081
11
1.593
21
9.251
0
0
LINE
8
0
10
1.593
20
9.251
11
1.593
21
9.427
0
0
LINE
8
0
10
1.593
20
9.881
11
1.593
21
11.051
0
0
LINE
8
0
10
1.593
20
11.051
11
1.593
21
11.227
0
0
LINE
8
0
10
1.593
20
11.681
11
1.593
21
11.857
0
0
LINE
8
0
10
1.593
20
11.857
11
1.593
21
13.027
0
0
LINE
8
0
10
1.593
20
13.481
11
1.593
21
14.488
0
0
LINE
8
0
10
2.093
20
0.823
11
2.093
21
1.994
0
0
LINE
8
0
10
2.093
20
0.823
11
2.093
21
1.994
0
0
LINE
8
0
10
2.093
20
1.994
11
2.093
21
2.170
0
0
LINE
8
0
10
2.093
20
2.623
11
2.093
21
3.794
0
0
LINE
8
0
10
2.093
20
3.794
11
2.093
21
3.970
0
0
LINE
8
0
10
2.093
20
4.423
11
2.093
21
5.594
0
0
LINE
8
0
10
2.093
20
5.594
11
2.093
21
5.770
0
0
LINE
8
0
10
2.093
20
6.223
11
2.093
21
7.394
0
0
LINE
8
0
10
2.093
20
7.394
11
2.093
21
7.570
0
0
LINE
8
0
10
2.093
20
8.023
11
2.093
21
9.194
0
0
LINE
8
0
10
2.093
20
9.194
11
2.093
21
9.370
0
0
LINE
8
0
10
2.093
20
9.823
11
2.093
21
10.994
0
0
LINE
8
0
10
2.093
20
10.994
11
2.093
21
11.170
0
0
LINE
8
0
10
2.093
20
11.623
11
2.093
21
12.794
0
0
LINE
8
0
10
2.093
20
12.794
11
2.093
21
12.970
0
0
LINE
8
0
10
2.093
20
13.423
11
2.093
21
14.513
0
0
LINE
8
0
10
2.593
20
0.814
11
2.593
21
0.990
0
0
LINE
8
0
10
2.593
20
0.814
11
2.593
21
0.990
0
0
LINE
8
0
10
2.593
20
0.990
11
2.593
21
2.160
0
0
LINE
8
0
10
2.593
20
2.614
11
2.593
21
3.784
0
0
LINE
8
0
10
2.593
20
3.784
11
2.593
21
3.960
0
0
LINE
8
0
10
2.593
20
4.414
11
2.593
21
5.584
0
0
LINE
8
0
10
2.593
20
5.584
11
2.593
21
5.760
0
0
LINE
8
0
10
2.593
20
6.214
11
2.593
21
6.390
0
0
LINE
8
0
10
2.593
20
6.390
11
2.593
21
7.560
0
0
LINE
8
0
10
2.593
20
8.014
11
2.593
21
9.184
0
0
LINE
8
0
10
2.593
20
9.184
11
2.593
21
9.360
0
0
LINE
8
0
10
2.593
20
9.814
11
2.593
21
10.984
0
0
LINE
8
0
10
2.593
20
10.984
11
2.593
21
11.160
0
0
LINE
8
0
10
2.593
20
11.614
11
2.593
21
11.790
0
0
LINE
8
0
10
2.593
20
11.790
11
2.593
21
12.960
0
0
LINE
8
0
10
2.593
20
13.414
11
2.593
21
14.510
0
0
LINE
8
0
10
3.093
20
0.830
11
3.093
21
1.006
0
0
LINE
8
0
10
3.093
20
0.830
11
3.093
21
1.006
0
0
LINE
8
0
10
3.093
20
1.006
11
3.093
21
2.176
0
0
LINE
8
0
10
3.093
20
2.630
11
3.093
21
3.800
0
0
LINE
8
0
10
3.093
20
3.800
11
3.093
21
3.976
0
0
LINE
8
0
10
3.093
20
4.430
11
3.093
21
5.600
0
0
LINE
8
0
10
3.093
20
5.600
11
3.093
21
5.776
0
0
LINE
8
0
10
3.093
20
6.230
11
3.093
21
6.406
0
0
LINE
8
0
10
3.093
20
6.406
11
3.093
21
7.576
0
0
LINE
8
0
10
3.093
20
8.030
11
3.093
21
9.200
0
0
LINE
8
0
10
3.093
20
9.200
11
3.093
21
9.376
0
0
LINE
8
0
10
3.093
20
9.830
11
3.093
21
11.000
0
0
LINE
8
0
10
3.093
20
11.000
11
3.093
21
11.176
0
0
LINE
8
0
10
3.093
20
11.630
11
3.093
21
11.806
0
0
LINE
8
0
10
3.093
20
11.806
11
3.093
21
12.976
0
0
LINE
8
0
10
3.093
20
13.430
11
3.093
21
14.499
0
0
LINE
8
0
10
3.593
20
0.846
11
3.593
21
1.022
0
0
LINE
8
0
10
3.593
20
0.846
11
3.593
21
1.022
0
0
LINE
8
0
10
3.593
20
1.022
11
3.593
21
2.192
0
0
LINE
8
0
10
3.593
20
2.646
11
3.593
21
3.816
0
0
LINE
8
0
10
3.593
20
3.816
11
3.593
21
3.992
0
0
LINE
8
0
10
3.593
20
4.446
11
3.593
21
5.616
0
0
LINE
8
0
10
3.593
20
5.616
11
3.593
21
5.792
0
0
LINE
8
0
10
3.593
20
6.246
11
3.593
21
6.422
0
0
LINE
8
0
10
3.593
20
6.422
11
3.593
21
7.592
0
0
LINE
8
0
10
3.593
20
8.046
11
3.593
21
9.216
0
0
LINE
8
0
10
3.593
20
9.216
11
3.593
21
9.392
0
0
LINE
8
0
10
3.593
20
9.846
11
3.593
21
11.016
0
0
LINE
8
0
10
3.593
20
11.016
11
3.593
21
11.192
0
0
LINE
8
0
10
3.593
20
11.646
11
3.593
21
11.822
0
0
LINE
8
0
10
3.593
20
11.822
11
3.593
21
12.992
0
0
LINE
8
0
10
3.593
20
13.446
11
3.593
21
14.490
0
0
LINE
8
0
10
4.093
20
0.861
11
4.093
21
1.037
0
0
LINE
8
0
10
4.093
20
0.861
11
4.093
21
1.037
0
0
LINE
8
0
10
4.093
20
1.037
11
4.093
21
2.208
0
0
LINE
8
0
10
4.093
20
2.661
11
4.093
21
2.837
0
0
LINE
8
0
10
4.093
20
2.837
11
4.093
21
4.008
0
0
LINE
8
0
10
4.093
20
4.461
11
4.093
21
4.637
0
0
LINE
8
0
10
4.093
20
4.637
11
4.093
21
5.808
0
0
LINE
8
0
10
4.093
20
6.261
11
4.093
21
6.437
0
0
LINE
8
0
10
4.093
20
6.437
11
4.093
21
7.608
0
0
LINE
8
0
10
4.093
20
8.061
11
4.093
21
8.237
0
0
LINE
8
0
10
4.093
20
8.237
11
4.093
21
9.408
0
0
LINE
8
0
10
4.093
20
9.861
11
4.093
21
10.037
0
0
LINE
8
0
10
4.093
20
10.037
11
4.093
21
11.208
0
0
LINE
8
0
10
4.093
20
11.661
11
4.093
21
11.837
0
0
LINE
8
0
10
4.093
20
11.837
11
4.093
21
13.008
0
0
LINE
8
0
10
4.093
20
13.461
11
4.093
21
14.480
0
0
LINE
8
0
10
4.593
20
0.877
11
4.593
21
1.053
0
0
LINE
8
0
10
4.593
20
0.877
11
4.593
21
1.053
0
0
LINE
8
0
10
4.593
20
1.053
11
4.593
21
2.223
0
0
LINE
8
0
10
4.593
20
2.677
11
4.593
21
3.847
0
0
LINE
8
0
10
4.593
20
3.847
11
4.593
21
4.023
0
0
LINE
8
0
10
4.593
20
4.477
11
4.593
21
4.653
0
0
LINE
8
0
10
4.593
20
4.653
11
4.593
21
5.823
0
0
LINE
8
0
10
4.593
20
6.277
11
4.593
21
6.453
0
0
LINE
8
0
10
4.593
20
6.453
11
4.593
21
7.623
0
0
LINE
8
0
10
4.593
20
8.077
11
4.593
21
9.247
0
0
LINE
8
0
10
4.593
20
9.247
11
4.593
21
9.423
0
0
LINE
8
0
10
4.593
20
9.877
11
4.593
21
11.047
0
0
LINE
8
0
10
4.593
20
11.047
11
4.593
21
11.223
0
0
LINE
8
0
10
4.593
20
11.677
11
4.593
21
12.847
0
0
LINE
8
0
10
4.593
20
12.847
11
4.593
21
13.023
0
0
LINE
8
0
10
4.593
20
13.477
11
4.593
21
14.469
0
0
LINE
8
0
10
5.093
20
0.893
11
5.093
21
2.063
0
0
LINE
8
0
10
5.093
20
0.893
11
5.093
21
2.063
0
0
LINE
8
0
10
5.093
20
2.063
11
5.093
21
2.239
0
0
LINE
8
0
10
5.093
20
2.693
11
5.093
21
3.863
0
0
LINE
8
0
10
5.093
20
3.863
11
5.093
21
4.039
0
0
LINE
8
0
10
5.093
20
4.493
11
5.093
21
4.669
0
0
LINE
8
0
10
5.093
20
4.669
11
5.093
21
5.839
0
0
LINE
8
0
10
5.093
20
6.293
11
5.093
21
6.469
0
0
LINE
8
0
10
5.093
20
6.469
11
5.093
21
7.639
0
0
LINE
8
0
10
5.093
20
8.093
11
5.093
21
9.263
0
0
LINE
8
0
10
5.093
20
9.263
11
5.093
21
9.439
0
0
LINE
8
0
10
5.093
20
9.893
11
5.093
21
11.063
0
0
LINE
8
0
10
5.093
20
11.063
11
5.093
21
11.239
0
0
LINE
8
0
10
5.093
20
11.693
11
5.093
21
12.863
0
0
LINE
8
0
10
5.093
20
12.863
11
5.093
21
13.039
0
0
LINE
8
0
10
5.093
20
13.493
11
5.093
21
14.459
0
0
LINE
8
0
10
5.593
20
0.909
11
5.593
21
2.079
0
0
LINE
8
0
10
5.593
20
0.909
11
5.593
21
2.079
0
0
LINE
8
0
10
5.593
20
2.079
11
5.593
21
2.255
0
0
LINE
8
0
10
5.593
20
2.709
11
5.593
21
3.879
0
0
LINE
8
0
10
5.593
20
3.879
11
5.593
21
4.055
0
0
LINE
8
0
10
5.593
20
4.509
11
5.593
21
4.685
0
0
LINE
8
0
10
5.593
20
4.685
11
5.593
21
5.855
0
0
LINE
8
0
10
5.593
20
6.309
11
5.593
21
6.485
0
0
LINE
8
0
10
5.593
20
6.485
11
5.593
21
7.655
0
0
LINE
8
0
10
5.593
20
8.109
11
5.593
21
9.279
0
0
LINE
8
0
10
5.593
20
9.279
11
5.593
21
9.455
0
0
LINE
8
0
10
5.593
20
9.909
11
5.593
21
11.079
0
0
LINE
8
0
10
5.593
20
11.079
11
5.593
21
11.255
0
0
LINE
8
0
10
5.593
20
11.709
11
5.593
21
12.879
0
0
LINE
8
0
10
5.593
20
12.879
11
5.593
21
13.055
0
0
LINE
8
0
10
5.593
20
13.509
11
5.593
21
14.449
0
0
LINE
8
0
10
6.093
20
0.925
11
6.093
21
2.095
0
0
LINE
8
0
10
6.093
20
0.925
11
6.093
21
2.095
0
0
LINE
8
0
10
6.093
20
2.095
11
6.093
21
2.271
0
0
LINE
8
0
10
6.093
20
2.725
11
6.093
21
3.895
0
0
LINE
8
0
10
6.093
20
3.895
11
6.093
21
4.071
0
0
LINE
8
0
10
6.093
20
4.525
11
6.093
21
4.701
0
0
LINE
8
0
10
6.093
20
4.701
11
6.093
21
5.871
0
0
LINE
8
0
10
6.093
20
6.325
11
6.093
21
6.501
0
0
LINE
8
0
10
6.093
20
6.501
11
6.093
21
7.671
0
0
LINE
8
0
10
6.093
20
8.125
11
6.093
21
9.295
0
0
LINE
8
0
10
6.093
20
9.295
11
6.093
21
9.471
0
0
LINE
8
0
10
6.093
20
9.925
11
6.093
21
11.095
0
0
LINE
8
0
10
6.093
20
11.095
11
6.093
21
11.271
0
0
LINE
8
0
10
6.093
20
11.725
11
6.093
21
12.895
0
0
LINE
8
0
10
6.093
20
12.895
11
6.093
21
13.071
0
0
LINE
8
0
10
6.093
20
13.525
11
6.093
21
14.443
0
0
LINE
8
0
10
6.593
20
0.940
11
6.593
21
2.111
0
0
LINE
8
0
10
6.593
20
0.940
11
6.593
21
2.111
0
0
LINE
8
0
10
6.593
20
2.111
11
6.593
21
2.287
0
0
LINE
8
0
10
6.593
20
2.740
11
6.593
21
3.911
0
0
LINE
8
0
10
6.593
20
3.911
11
6.593
21
4.087
0
0
LINE
8
0
10
6.593
20
4.540
11
6.593
21
5.711
0
0
LINE
8
0
10
6.593
20
5.711
11
6.593
21
5.887
0
0
LINE
8
0
10
6.593
20
6.340
11
6.593
21
7.511
0
0
LINE
8
0
10
6.593
20
7.511
11
6.593
21
7.687
0
0
LINE
8
0
10
6.593
20
8.140
11
6.593
21
9.311
0
0
LINE
8
0
10
6.593
20
9.311
11
6.593
21
9.487
0
0
LINE
8
0
10
6.593
20
9.940
11
6.593
21
11.111
0
0
LINE
8
0
10
6.593
20
11.111
11
6.593
21
11.287
0
0
LINE
8
0
10
6.593
20
11.740
11
6.593
21
12.911
0
0
LINE
8
0
10
6.593
20
12.911
11
6.593
21
13.087
0
0
LINE
8
0
10
6.593
20
13.540
11
6.593
21
14.447
0
0
LINE
8
0
10
7.093
20
0.956
11
7.093
21
2.126
0
0
LINE
8
0
10
7.093
20
0.956
11
7.093
21
2.126
0
0
LINE
8
0
10
7.093
20
2.126
11
7.093
21
2.302
0
0
LINE
8
0
10
7.093
20
2.756
11
7.093
21
2.932
0
0
LINE
8
0
10
7.093
20
2.932
11
7.093
21
4.102
0
0
LINE
8
0
10
7.093
20
4.556
11
7.093
21
5.726
0
0
LINE
8
0
10
7.093
20
5.726
11
7.093
21
5.902
0
0
LINE
8
0
10
7.093
20
6.356
11
7.093
21
7.526
0
0
LINE
8
0
10
7.093
20
7.526
11
7.093
21
7.702
0
0
LINE
8
0
10
7.093
20
8.156
11
7.093
21
9.326
0
0
LINE
8
0
10
7.093
20
9.326
11
7.093
21
9.502
0
0
LINE
8
0
10
7.093
20
9.956
11
7.093
21
11.126
0
0
LINE
8
0
10
7.093
20
11.126
11
7.093
21
11.302
0
0
LINE
8
0
10
7.093
20
11.756
11
7.093
21
12.926
0
0
LINE
8
0
10
7.093
20
12.926
11
7.093
21
13.102
0
0
LINE
8
0
10
7.093
20
13.556
11
7.093
21
14.451
0
0
LINE
8
0
10
7.593
20
0.952
11
7.593
21
2.122
0
0
LINE
8
0
10
7.593
20
0.952
11
7.593
21
2.122
0
0
LINE
8
0
10
7.593
20
2.122
11
7.593
21
2.298
0
0
LINE
8
0
10
7.593
20
2.752
11
7.593
21
3.922
0
0
LINE
8
0
10
7.593
20
3.922
11
7.593
21
4.098
0
0
LINE
8
0
10
7.593
20
4.552
11
7.593
21
4.728
0
0
LINE
8
0
10
7.593
20
4.728
11
7.593
21
5.898
0
0
LINE
8
0
10
7.593
20
6.352
11
7.593
21
6.528
0
0
LINE
8
0
10
7.593
20
6.528
11
7.593
21
7.698
0
0
LINE
8
0
10
7.593
20
8.152
11
7.593
21
9.322
0
0
LINE
8
0
10
7.593
20
9.322
11
7.593
21
9.498
0
0
LINE
8
0
10
7.593
20
9.952
11
7.593
21
11.122
0
0
LINE
8
0
10
7.593
20
11.122
11
7.593
21
11.298
0
0
LINE
8
0
10
7.593
20
11.752
11
7.593
21
12.922
0
0
LINE
8
0
10
7.593
20
12.922
11
7.593
21
13.098
0
0
LINE
8
0
10
7.593
20
13.552
11
7.593
21
14.451
0
0
LINE
8
0
10
8.093
20
0.940
11
8.093
21
2.110
0
0
LINE
8
0
10
8.093
20
0.940
11
8.093
21
2.110
0
0
LINE
8
0
10
8.093
20
2.110
11
8.093
21
2.286
0
0
LINE
8
0
10
8.093
20
2.740
11
8.093
21
2.916
0
0
LINE
8
0
10
8.093
20
2.916
11
8.093
21
4.086
0
0
LINE
8
0
10
8.093
20
4.540
11
8.093
21
5.710
0
0
LINE
8
0
10
8.093
20
5.710
11
8.093
21
5.886
0
0
LINE
8
0
10
8.093
20
6.340
11
8.093
21
7.510
0
0
LINE
8
0
10
8.093
20
7.510
11
8.093
21
7.686
0
0
LINE
8
0
10
8.093
20
8.140
11
8.093
21
9.310
0
0
LINE
8
0
10
8.093
20
9.310
11
8.093
21
9.486
0
0
LINE
8
0
10
8.093
20
9.940
11
8.093
21
11.110
0
0
LINE
8
0
10
8.093
20
11.110
11
8.093
21
11.286
0
0
LINE
8
0
10
8.093
20
11.740
11
8.093
21
12.910
0
0
LINE
8
0
10
8.093
20
12.910
11
8.093
21
13.086
0
0
LINE
8
0
10
8.093
20
13.540
11
8.093
21
14.449
0
0
LINE
8
0
10
8.593
20
0.928
11
8.593
21
2.098
0
0
LINE
8
0
10
8.593
20
0.928
11
8.593
21
2.098
0
0
LINE
8
0
10
8.593
20
2.098
11
8.593
21
2.274
0
0
LINE
8
0
10
8.593
20
2.728
11
8.593
21
3.898
0
0
LINE
8
0
10
8.593
20
3.898
11
8.593
21
4.074
0
0
LINE
8
0
10
8.593
20
4.528
11
8.593
21
4.704
0
0
LINE
8
0
10
8.593
20
4.704
11
8.593
21
5.874
0
0
LINE
8
0
10
8.593
20
6.328
11
8.593
21
6.504
0
0
LINE
8
0
10
8.593
20
6.504
11
8.593
21
7.674
0
0
LINE
8
0
10
8.593
20
8.128
11
8.593
21
9.298
0
0
LINE
8
0
10
8.593
20
9.298
11
8.593
21
9.474
0
0
LINE
8
0
10
8.593
20
9.928
11
8.593
21
10.104
0
0
LINE
8
0
10
8.593
20
10.104
11
8.593
21
11.274
0
0
LINE
8
0
10
8.593
20
11.728
11
8.593
21
12.898
0
0
LINE
8
0
10
8.593
20
12.898
11
8.593
21
13.074
0
0
LINE
8
0
10
8.593
20
13.528
11
8.593
21
14.447
0
0
LINE
8
0
10
9.093
20
0.916
11
9.093
21
2.086
0
0
LINE
8
0
10
9.093
20
0.916
11
9.093
21
2.086
0
0
LINE
8
0
10
9.093
20
2.086
11
9.093
21
2.262
0
0
LINE
8
0
10
9.093
20
2.716
11
9.093
21
2.892
0
0
LINE
8
0
10
9.093
20
2.892
11
9.093
21
4.062
0
0
LINE
8
0
10
9.093
20
4.516
11
9.093
21
5.686
0
0
LINE
8
0
10
9.093
20
5.686
11
9.093
21
5.862
0
0
LINE
8
0
10
9.093
20
6.316
11
9.093
21
7.486
0
0
LINE
8
0
10
9.093
20
7.486
11
9.093
21
7.662
0
0
LINE
8
0
10
9.093
20
8.116
11
9.093
21
9.286
0
0
LINE
8
0
10
9.093
20
9.286
11
9.093
21
9.462
0
0
LINE
8
0
10
9.093
20
9.916
11
9.093
21
11.086
0
0
LINE
8
0
10
9.093
20
11.086
11
9.093
21
11.262
0
0
LINE
8
0
10
9.093
20
11.716
11
9.093
21
11.892
0
0
LINE
8
0
10
9.093
20
11.892
11
9.093
21
13.062
0
0
LINE
8
0
10
9.093
20
13.516
11
9.093
21
14.445
0
0
LINE
8
0
10
9.593
20
0.904
11
9.593
21
2.074
0
0
LINE
8
0
10
9.593
20
0.904
11
9.593
21
2.074
0
0
LINE
8
0
10
9.593
20
2.074
11
9.593
21
2.250
0
0
LINE
8
0
10
9.593
20
2.704
11
9.593
21
3.874
0
0
LINE
8
0
10
9.593
20
3.874
11
9.593
21
4.050
0
0
LINE
8
0
10
9.593
20
4.504
11
9.593
21
4.680
0
0
LINE
8
0
10
9.593
20
4.680
11
9.593
21
5.850
0
0
LINE
8
0
10
9.593
20
6.304
11
9.593
21
6.480
0
0
LINE
8
0
10
9.593
20
6.480
11
9.593
21
7.650
0
0
LINE
8
0
10
9.593
20
8.104
11
9.593
21
8.280
0
0
LINE
8
0
10
9.593
20
8.280
11
9.593
21
9.450
0
0
LINE
8
0
10
9.593
20
9.904
11
9.593
21
11.074
0
0
LINE
8
0
10
9.593
20
11.074
11
9.593
21
11.250
0
0
LINE
8
0
10
9.593
20
11.704
11
9.593
21
12.874
0
0
LINE
8
0
10
9.593
20
12.874
11
9.593
21
13.050
0
0
LINE
8
0
10
9.593
20
13.504
11
9.593
21
14.442
0
0
LINE
8
0
10
10.093
20
0.892
11
10.093
21
2.062
0
0
LINE
8
0
10
10.093
20
0.892
11
10.093
21
2.062
0
0
LINE
8
0
10
10.093
20
2.062
11
10.093
21
2.238
0
0
LINE
8
0
10
10.093
20
2.692
11
10.093
21
2.868
0
0
LINE
8
0
10
10.093
20
2.868
11
10.093
21
4.038
0
0
LINE
8
0
10
10.093
20
4.492
11
10.093
21
5.662
0
0
LINE
8
0
10
10.093
20
5.662
11
10.093
21
5.838
0
0
LINE
8
0
10
10.093
20
6.292
11
10.093
21
7.462
0
0
LINE
8
0
10
10.093
20
7.462
11
10.093
21
7.638
0
0
LINE
8
0
10
10.093
20
8.092
11
10.093
21
9.262
0
0
LINE
8
0
10
10.093
20
9.262
11
10.093
21
9.438
0
0
LINE
8
0
10
10.093
20
9.892
11
10.093
21
11.062
0
0
LINE
8
0
10
10.093
20
11.062
11
10.093
21
11.238
0
0
LINE
8
0
10
10.093
20
11.692
11
10.093
21
12.862
0
0
LINE
8
0
10
10.093
20
12.862
11
10.093
21
13.038
0
0
LINE
8
0
10
10.093
20
13.492
11
10.093
21
14.440
0
0
LINE
8
0
10
10.593
20
0.880
11
10.593
21
2.050
0
0
LINE
8
0
10
10.593
20
0.880
11
10.593
21
2.050
0
0
LINE
8
0
10
10.593
20
2.050
11
10.593
21
2.226
0
0
LINE
8
0
10
10.593
20
2.680
11
10.593
21
3.850
0
0
LINE
8
0
10
10.593
20
3.850
11
10.593
21
4.026
0
0
LINE
8
0
10
10.593
20
4.480
11
10.593
21
4.656
0
0
LINE
8
0
10
10.593
20
4.656
11
10.593
21
5.826
0
0
LINE
8
0
10
10.593
20
6.280
11
10.593
21
6.456
0
0
LINE
8
0
10
10.593
20
6.456
11
10.593
21
7.626
0
0
LINE
8
0
10
10.593
20
8.080
11
10.593
21
9.250
0
0
LINE
8
0
10
10.593
20
9.250
11
10.593
21
9.426
0
0
LINE
8
0
10
10.593
20
9.880
11
10.593
21
10.056
0
0
LINE
8
0
10
10.593
20
10.056
11
10.593
21
11.226
0
0
LINE
8
0
10
10.593
20
11.680
11
10.593
21
12.850
0
0
LINE
8
0
10
10.593
20
12.850
11
10.593
21
13.026
0
0
LINE
8
0
10
10.593
20
13.480
11
10.593
21
14.439
0
0
LINE
8
0
10
11.093
20
0.868
11
11.093
21
2.038
0
0
LINE
8
0
10
11.093
20
0.868
11
11.093
21
2.038
0
0
LINE
8
0
10
11.093
20
2.038
11
11.093
21
2.214
0
0
LINE
8
0
10
11.093
20
2.668
11
11.093
21
3.838
0
0
LINE
8
0
10
11.093
20
3.838
11
11.093
21
4.014
0
0
LINE
8
0
10
11.093
20
4.468
11
11.093
21
5.638
0
0
LINE
8
0
10
11.093
20
5.638
11
11.093
21
5.814
0
0
LINE
8
0
10
11.093
20
6.268
11
11.093
21
7.438
0
0
LINE
8
0
10
11.093
20
7.438
11
11.093
21
7.614
0
0
LINE
8
0
10
11.093
20
8.068
11
11.093
21
8.244
0
0
LINE
8
0
10
11.093
20
8.244
11
11.093
21
9.414
0
0
LINE
8
0
10
11.093
20
9.868
11
11.093
21
11.038
0
0
LINE
8
0
10
11.093
20
11.038
11
11.093
21
11.214
0
0
LINE
8
0
10
11.093
20
11.668
11
11.093
21
11.844
0
0
LINE
8
0
10
11.093
20
11.844
11
11.093
21
13.014
0
0
LINE
8
0
10
11.093
20
13.468
11
11.093
21
14.437
0
0
LINE
8
0
10
11.593
20
0.856
11
11.593
21
2.026
0
0
LINE
8
0
10
11.593
20
0.856
11
11.593
21
2.026
0
0
LINE
8
0
10
11.593
20
2.026
11
11.593
21
2.202
0
0
LINE
8
0
10
11.593
20
2.656
11
11.593
21
3.826
0
0
LINE
8
0
10
11.593
20
3.826
11
11.593
21
4.002
0
0
LINE
8
0
10
11.593
20
4.456
11
11.593
21
4.632
0
0
LINE
8
0
10
11.593
20
4.632
11
11.593
21
5.802
0
0
LINE
8
0
10
11.593
20
6.256
11
11.593
21
6.432
0
0
LINE
8
0
10
11.593
20
6.432
11
11.593
21
7.602
0
0
LINE
8
0
10
11.593
20
8.056
11
11.593
21
8.232
0
0
LINE
8
0
10
11.593
20
8.232
11
11.593
21
9.402
0
0
LINE
8
0
10
11.593
20
9.856
11
11.593
21
11.026
0
0
LINE
8
0
10
11.593
20
11.026
11
11.593
21
11.202
0
0
LINE
8
0
10
11.593
20
11.656
11
11.593
21
12.826
0
0
LINE
8
0
10
11.593
20
12.826
11
11.593
21
13.002
0
0
LINE
8
0
10
11.593
20
13.456
11
11.593
21
14.434
0
0
LINE
8
0
10
12.093
20
0.844
11
12.093
21
2.014
0
0
LINE
8
0
10
12.093
20
0.844
11
12.093
21
2.014
0
0
LINE
8
0
10
12.093
20
2.014
11
12.093
21
2.190
0
0
LINE
8
0
10
12.093
20
2.644
11
12.093
21
3.814
0
0
LINE
8
0
10
12.093
20
3.814
11
12.093
21
3.990
0
0
LINE
8
0
10
12.093
20
4.444
11
12.093
21
5.614
0
0
LINE
8
0
10
12.093
20
5.614
11
12.093
21
5.790
0
0
LINE
8
0
10
12.093
20
6.244
11
12.093
21
7.414
0
0
LINE
8
0
10
12.093
20
7.414
11
12.093
21
7.590
0
0
LINE
8
0
10
12.093
20
8.044
11
12.093
21
9.214
0
0
LINE
8
0
10
12.093
20
9.214
11
12.093
21
9.390
0
0
LINE
8
0
10
12.093
20
9.844
11
12.093
21
11.014
0
0
LINE
8
0
10
12.093
20
11.014
11
12.093
21
11.190
0
0
LINE
8
0
10
12.093
20
11.644
11
12.093
21
12.814
0
0
LINE
8
0
10
12.093
20
12.814
11
12.093
21
12.990
0
0
LINE
8
0
10
12.093
20
13.444
11
12.093
21
14.432
0
0
LINE
8
0
10
12.593
20
0.832
11
12.593
21
2.002
0
0
LINE
8
0
10
12.593
20
0.832
11
12.593
21
2.002
0
0
LINE
8
0
10
12.593
20
2.002
11
12.593
21
2.178
0
0
LINE
8
0
10
12.593
20
2.632
11
12.593
21
3.802
0
0
LINE
8
0
10
12.593
20
3.802
11
12.593
21
3.978
0
0
LINE
8
0
10
12.593
20
4.432
11
12.593
21
4.608
0
0
LINE
8
0
10
12.593
20
4.608
11
12.593
21
5.778
0
0
LINE
8
0
10
12.593
20
6.232
11
12.593
21
6.408
0
0
LINE
8
0
10
12.593
20
6.408
11
12.593
21
7.578
0
0
LINE
8
0
10
12.593
20
8.032
11
12.593
21
9.202
0
0
LINE
8
0
10
12.593
20
9.202
11
12.593
21
9.378
0
0
LINE
8
0
10
12.593
20
9.832
11
12.593
21
10.008
0
0
LINE
8
0
10
12.593
20
10.008
11
12.593
21
11.178
0
0
LINE
8
0
10
12.593
20
11.632
11
12.593
21
12.802
0
0
LINE
8
0
10
12.593
20
12.802
11
12.593
21
12.978
0
0
LINE
8
0
10
12.593
20
13.432
11
12.593
21
14.430
0
0
LINE
8
0
10
13.093
20
0.832
11
13.093
21
2.002
0
0
LINE
8
0
10
13.093
20
0.832
11
13.093
21
2.002
0
0
LINE
8
0
10
13.093
20
2.002
11
13.093
21
2.178
0
0
LINE
8
0
10
13.093
20
2.632
11
13.093
21
3.802
0
0
LINE
8
0
10
13.093
20
3.802
11
13.093
21
3.978
0
0
LINE
8
0
10
13.093
20
4.432
11
13.093
21
4.608
0
0
LINE
8
0
10
13.093
20
4.608
11
13.093
21
5.778
0
0
LINE
8
0
10
13.093
20
6.232
11
13.093
21
6.408
0
0
LINE
8
0
10
13.093
20
6.408
11
13.093
21
7.578
0
0
LINE
8
0
10
13.093
20
8.032
11
13.093
21
9.202
0
0
LINE
8
0
10
13.093
20
9.202
11
13.093
21
9.378
0
0
LINE
8
0
10
13.093
20
9.832
11
13.093
21
10.008
0
0
LINE
8
0
10
13.093
20
10.008
11
13.093
21
11.178
0
0
LINE
8
0
10
13.093
20
11.632
11
13.093
21
12.802
0
0
LINE
8
0
10
13.093
20
12.802
11
13.093
21
12.978
0
0
LINE
8
0
10
13.093
20
13.432
11
13.093
21
14.431
0
0
LINE
8
0
10
13.593
20
0.900
11
13.593
21
2.070
0
0
LINE
8
0
10
13.593
20
0.900
11
13.593
21
2.070
0
0
LINE
8
0
10
13.593
20
2.070
11
13.593
21
2.246
0
0
LINE
8
0
10
13.593
20
2.700
11
13.593
21
2.876
0
0
LINE
8
0
10
13.593
20
2.876
11
13.593
21
4.046
0
0
LINE
8
0
10
13.593
20
4.500
11
13.593
21
5.670
0
0
LINE
8
0
10
13.593
20
5.670
11
13.593
21
5.846
0
0
LINE
8
0
10
13.593
20
6.300
11
13.593
21
7.470
0
0
LINE
8
0
10
13.593
20
7.470
11
13.593
21
7.646
0
0
LINE
8
0
10
13.593
20
8.100
11
13.593
21
9.270
0
0
LINE
8
0
10
13.593
20
9.270
11
13.593
21
9.446
0
0
LINE
8
0
10
13.593
20
9.900
11
13.593
21
11.070
0
0
LINE
8
0
10
13.593
20
11.070
11
13.593
21
11.246
0
0
LINE
8
0
10
13.593
20
11.700
11
13.593
21
11.876
0
0
LINE
8
0
10
13.593
20
11.876
11
13.593
21
13.046
0
0
LINE
8
0
10
13.593
20
13.500
11
13.593
21
14.446
0
0
LINE
8
0
10
14.093
20
1.031
11
14.093
21
1.207
0
0
LINE
8
0
10
14.093
20
1.031
11
14.093
21
1.207
0
0
LINE
8
0
10
14.093
20
1.207
11
14.093
21
2.377
0
0
LINE
8
0
10
14.093
20
2.831
11
14.093
21
3.007
0
0
LINE
8
0
10
14.093
20
3.007
11
14.093
21
4.177
0
0
LINE
8
0
10
14.093
20
4.631
11
14.093
21
4.807
0
0
LINE
8
0
10
14.093
20
4.807
11
14.093
21
5.977
0
0
LINE
8
0
10
14.093
20
6.431
11
14.093
21
6.607
0
0
LINE
8
0
10
14.093
20
6.607
11
14.093
21
7.777
0
0
LINE
8
0
10
14.093
20
8.231
11
14.093
21
9.401
0
0
LINE
8
0
10
14.093
20
9.401
11
14.093
21
9.577
0
0
LINE
8
0
10
14.093
20
10.031
11
14.093
21
11.201
0
0
LINE
8
0
10
14.093
20
11.201
11
14.093
21
11.377
0
0
LINE
8
0
10
14.093
20
11.831
11
14.093
21
13.001
0
0
LINE
8
0
10
14.093
20
13.001
11
14.093
21
13.177
0
0
LINE
8
0
10
14.093
20
13.631
11
14.093
21
14.476
0
0
LINE
8
0
10
14.593
20
1.603
11
14.593
21
2.774
0
0
LINE
8
0
10
14.593
20
1.603
11
14.593
21
2.774
0
0
LINE
8
0
10
14.593
20
2.774
11
14.593
21
2.950
0
0
LINE
8
0
10
14.593
20
3.403
11
14.593
21
4.574
0
0
LINE
8
0
10
14.593
20
4.574
11
14.593
21
4.750
0
0
LINE
8
0
10
14.593
20
5.203
11
14.593
21
6.374
0
0
LINE
8
0
10
14.593
20
6.374
11
14.593
21
6.550
0
0
LINE
8
0
10
14.593
20
7.003
11
14.593
21
8.174
0
0
LINE
8
0
10
14.593
20
8.174
11
14.593
21
8.350
0
0
LINE
8
0
10
14.593
20
8.803
11
14.593
21
9.974
0
0
LINE
8
0
10
14.593
20
9.974
11
14.593
21
10.150
0
0
LINE
8
0
10
14.593
20
10.603
11
14.593
21
10.779
0
0
LINE
8
0
10
14.593
20
10.779
11
14.593
21
11.950
0
0
LINE
8
0
10
14.593
20
12.403
11
14.593
21
13.574
0
0
LINE
8
0
10
14.593
20
13.574
11
14.593
21
13.750
0
0
LINE
8
0
10
14.593
20
14.203
11
14.593
21
14.602
0
0
LINE
8
0
10
14.593
20
14.602
11
14.593
21
14.603
0
0
LINE
8
0
10
1.234
20
0.592
11
1.310
21
0.592
0
0
LINE
8
0
10
1.234
20
0.592
11
1.310
21
0.592
0
0
LINE
8
0
10
1.408
20
0.592
11
1.583
21
0.592
0
0
LINE
8
0
10
1.583
20
0.592
11
2.754
21
0.592
0
0
LINE
8
0
10
3.208
20
0.592
11
3.384
21
0.592
0
0
LINE
8
0
10
3.384
20
0.592
11
4.554
21
0.592
0
0
LINE
8
0
10
5.008
20
0.592
11
5.184
21
0.592
0
0
LINE
8
0
10
5.184
20
0.592
11
6.354
21
0.592
0
0
LINE
8
0
10
6.808
20
0.592
11
7.978
21
0.592
0
0
LINE
8
0
10
7.978
20
0.592
11
8.154
21
0.592
0
0
LINE
8
0
10
8.608
20
0.592
11
8.784
21
0.592
0
0
LINE
8
0
10
8.784
20
0.592
11
9.954
21
0.592
0
0
LINE
8
0
10
10.408
20
0.592
11
11.578
21
0.592
0
0
LINE
8
0
10
11.578
20
0.592
11
11.754
21
0.592
0
0
LINE
8
0
10
12.208
20
0.592
11
12.384
21
0.592
0
0
LINE
8
0
10
12.384
20
0.592
11
13.554
21
0.592
0
0
LINE
8
0
10
0.791
20
1.092
11
1.560
21
1.092
0
0
LINE
8
0
10
0.791
20
1.092
11
1.560
21
1.092
0
0
LINE
8
0
10
2.014
20
1.092
11
2.190
21
1.092
0
0
LINE
8
0
10
2.190
20
1.092
11
3.360
21
1.092
0
0
LINE
8
0
10
3.814
20
1.092
11
3.990
21
1.092
0
0
LINE
8
0
10
3.990
20
1.092
11
5.160
21
1.092
0
0
LINE
8
0
10
5.614
20
1.092
11
6.784
21
1.092
0
0
LINE
8
0
10
6.784
20
1.092
11
6.960
21
1.092
0
0
LINE
8
0
10
7.414
20
1.092
11
8.584
21
1.092
0
0
LINE
8
0
10
8.584
20
1.092
11
8.760
21
1.092
0
0
LINE
8
0
10
9.214
20
1.092
11
9.390
21
1.092
0
0
LINE
8
0
10
9.390
20
1.092
11
10.560
21
1.092
0
0
LINE
8
0
10
11.014
20
1.092
11
12.184
21
1.092
0
0
LINE
8
0
10
12.184
20
1.092
11
12.360
21
1.092
0
0
LINE
8
0
10
12.814
20
1.092
11
12.990
21
1.092
0
0
LINE
8
0
10
12.990
20
1.092
11
14.160
21
1.092
0
0
LINE
8
0
10
0.716
20
1.592
11
1.687
21
1.592
0
0
LINE
8
0
10
0.716
20
1.592
11
1.687
21
1.592
0
0
LINE
8
0
10
2.141
20
1.592
11
2.317
21
1.592
0
0
LINE
8
0
10
2.317
20
1.592
11
3.487
21
1.592
0
0
LINE
8
0
10
3.941
20
1.592
11
5.111
21
1.592
0
0
LINE
8
0
10
5.111
20
1.592
11
5.287
21
1.592
0
0
LINE
8
0
10
5.741
20
1.592
11
5.917
21
1.592
0
0
LINE
8
0
10
5.917
20
1.592
11
7.087
21
1.592
0
0
LINE
8
0
10
7.541
20
1.592
11
8.711
21
1.592
0
0
LINE
8
0
10
8.711
20
1.592
11
8.887
21
1.592
0
0
LINE
8
0
10
9.341
20
1.592
11
10.511
21
1.592
0
0
LINE
8
0
10
10.511
20
1.592
11
10.687
21
1.592
0
0
LINE
8
0
10
11.141
20
1.592
11
11.317
21
1.592
0
0
LINE
8
0
10
11.317
20
1.592
11
12.487
21
1.592
0
0
LINE
8
0
10
12.941
20
1.592
11
13.117
21
1.592
0
0
LINE
8
0
10
13.117
20
1.592
11
14.287
21
1.592
0
0
LINE
8
0
10
0.681
20
2.092
11
1.751
21
2.092
0
0
LINE
8
0
10
0.681
20
2.092
11
1.751
21
2.092
0
0
LINE
8
0
10
2.205
20
2.092
11
2.381
21
2.092
0
0
LINE
8
0
10
2.381
20
2.092
11
3.551
21
2.092
0
0
LINE
8
0
10
4.005
20
2.092
11
5.175
21
2.092
0
0
LINE
8
0
10
5.175
20
2.092
11
5.351
21
2.092
0
0
LINE
8
0
10
5.805
20
2.092
11
6.975
21
2.092
0
0
LINE
8
0
10
6.975
20
2.092
11
7.151
21
2.092
0
0
LINE
8
0
10
7.605
20
2.092
11
8.775
21
2.092
0
0
LINE
8
0
10
8.775
20
2.092
11
8.951
21
2.092
0
0
LINE
8
0
10
9.405
20
2.092
11
10.575
21
2.092
0
0
LINE
8
0
10
10.575
20
2.092
11
10.751
21
2.092
0
0
LINE
8
0
10
11.205
20
2.092
11
11.381
21
2.092
0
0
LINE
8
0
10
11.381
20
2.092
11
12.551
21
2.092
0
0
LINE
8
0
10
13.005
20
2.092
11
13.181
21
2.092
0
0
LINE
8
0
10
13.181
20
2.092
11
14.351
21
2.092
0
0
LINE
8
0
10
0.679
20
2.592
11
1.762
21
2.592
0
0
LINE
8
0
10
0.679
20
2.592
11
1.762
21
2.592
0
0
LINE
8
0
10
2.216
20
2.592
11
2.392
21
2.592
0
0
LINE
8
0
10
2.392
20
2.592
11
3.562
21
2.592
0
0
LINE
8
0
10
4.016
20
2.592
11
4.192
21
2.592
0
0
LINE
8
0
10
4.192
20
2.592
11
5.362
21
2.592
0
0
LINE
8
0
10
5.816
20
2.592
11
6.986
21
2.592
0
0
LINE
8
0
10
6.986
20
2.592
11
7.162
21
2.592
0
0
LINE
8
0
10
7.616
20
2.592
11
7.792
21
2.592
0
0
LINE
8
0
10
7.792
20
2.592
11
8.962
21
2.592
0
0
LINE
8
0
10
9.416
20
2.592
11
9.592
21
2.592
0
0
LINE
8
0
10
9.592
20
2.592
11
10.762
21
2.592
0
0
LINE
8
0
10
11.216
20
2.592
11
11.392
21
2.592
0
0
LINE
8
0
10
11.392
20
2.592
11
12.562
21
2.592
0
0
LINE
8
0
10
13.016
20
2.592
11
13.192
21
2.592
0
0
LINE
8
0
10
13.192
20
2.592
11
14.362
21
2.592
0
0
LINE
8
0
10
0.685
20
3.092
11
1.745
21
3.092
0
0
LINE
8
0
10
0.685
20
3.092
11
1.745
21
3.092
0
0
LINE
8
0
10
2.199
20
3.092
11
3.369
21
3.092
0
0
LINE
8
0
10
3.369
20
3.092
11
3.545
21
3.092
0
0
LINE
8
0
10
3.999
20
3.092
11
5.169
21
3.092
0
0
LINE
8
0
10
5.169
20
3.092
11
5.345
21
3.092
0
0
LINE
8
0
10
5.799
20
3.092
11
5.975
21
3.092
0
0
LINE
8
0
10
5.975
20
3.092
11
7.145
21
3.092
0
0
LINE
8
0
10
7.599
20
3.092
11
8.769
21
3.092
0
0
LINE
8
0
10
8.769
20
3.092
11
8.945
21
3.092
0
0
LINE
8
0
10
9.399
20
3.092
11
9.575
21
3.092
0
0
LINE
8
0
10
9.575
20
3.092
11
10.745
21
3.092
0
0
LINE
8
0
10
11.199
20
3.092
11
11.375
21
3.092
0
0
LINE
8
0
10
11.375
20
3.092
11
12.545
21
3.092
0
0
LINE
8
0
10
12.999
20
3.092
11
13.175
21
3.092
0
0
LINE
8
0
10
13.175
20
3.092
11
14.345
21
3.092
0
0
LINE
8
0
10
0.691
20
3.592
11
1.727
21
3.592
0
0
LINE
8
0
10
0.691
20
3.592
11
1.727
21
3.592
0
0
LINE
8
0
10
2.181
20
3.592
11
2.357
21
3.592
0
0
LINE
8
0
10
2.357
20
3.592
11
3.527
21
3.592
0
0
LINE
8
0
10
3.981
20
3.592
11
5.151
21
3.592
0
0
LINE
8
0
10
5.151
20
3.592
11
5.327
21
3.592
0
0
LINE
8
0
10
5.781
20
3.592
11
6.951
21
3.592
0
0
LINE
8
0
10
6.951
20
3.592
11
7.127
21
3.592
0
0
LINE
8
0
10
7.581
20
3.592
11
8.751
21
3.592
0
0
LINE
8
0
10
8.751
20
3.592
11
8.927
21
3.592
0
0
LINE
8
0
10
9.381
20
3.592
11
9.557
21
3.592
0
0
LINE
8
0
10
9.557
20
3.592
11
10.727
21
3.592
0
0
LINE
8
0
10
11.181
20
3.592
11
11.357
21
3.592
0
0
LINE
8
0
10
11.357
20
3.592
11
12.527
21
3.592
0
0
LINE
8
0
10
12.981
20
3.592
11
13.157
21
3.592
0
0
LINE
8
0
10
13.157
20
3.592
11
14.327
21
3.592
0
0
LINE
8
0
10
0.697
20
4.092
11
1.710
21
4.092
0
0
LINE
8
0
10
0.697
20
4.092
11
1.710
21
4.092
0
0
LINE
8
0
10
2.163
20
4.092
11
2.339
21
4.092
0
0
LINE
8
0
10
2.339
20
4.092
11
3.510
21
4.092
0
0
LINE
8
0
10
3.963
20
4.092
11
4.139
21
4.092
0
0
LINE
8
0
10
4.139
20
4.092
11
5.310
21
4.092
0
0
LINE
8
0
10
5.763
20
4.092
11
5.939
21
4.092
0
0
LINE
8
0
10
5.939
20
4.092
11
7.110
21
4.092
0
0
LINE
8
0
10
7.563
20
4.092
11
8.734
21
4.092
0
0
LINE
8
0
10
8.734
20
4.092
11
8.910
21
4.092
0
0
LINE
8
0
10
9.363
20
4.092
11
9.539
21
4.092
0
0
LINE
8
0
10
9.539
20
4.092
11
10.710
21
4.092
0
0
LINE
8
0
10
11.163
20
4.092
11
11.339
21
4.092
0
0
LINE
8
0
10
11.339
20
4.092
11
12.510
21
4.092
0
0
LINE
8
0
10
12.963
20
4.092
11
13.139
21
4.092
0
0
LINE
8
0
10
13.139
20
4.092
11
14.310
21
4.092
0
0
LINE
8
0
10
0.703
20
4.592
11
1.692
21
4.592
0
0
LINE
8
0
10
0.703
20
4.592
11
1.692
21
4.592
0
0
LINE
8
0
10
2.146
20
4.592
11
2.322
21
4.592
0
0
LINE
8
0
10
2.322
20
4.592
11
3.492
21
4.592
0
0
LINE
8
0
10
3.946
20
4.592
11
5.116
21
4.592
0
0
LINE
8
0
10
5.116
20
4.592
11
5.292
21
4.592
0
0
LINE
8
0
10
5.746
20
4.592
11
5.922
21
4.592
0
0
LINE
8
0
10
5.922
20
4.592
11
7.092
21
4.592
0
0
LINE
8
0
10
7.546
20
4.592
11
8.716
21
4.592
0
0
LINE
8
0
10
8.716
20
4.592
11
8.892
21
4.592
0
0
LINE
8
0
10
9.346
20
4.592
11
9.522
21
4.592
0
0
LINE
8
0
10
9.522
20
4.592
11
10.692
21
4.592
0
0
LINE
8
0
10
11.146
20
4.592
11
11.322
21
4.592
0
0
LINE
8
0
10
11.322
20
4.592
11
12.492
21
4.592
0
0
LINE
8
0
10
12.946
20
4.592
11
13.122
21
4.592
0
0
LINE
8
0
10
13.122
20
4.592
11
14.292
21
4.592
0
0
LINE
8
0
10
0.708
20
5.092
11
1.674
21
5.092
0
0
LINE
8
0
10
0.708
20
5.092
11
1.674
21
5.092
0
0
LINE
8
0
10
2.128
20
5.092
11
2.304
21
5.092
0
0
LINE
8
0
10
2.304
20
5.092
11
3.474
21
5.092
0
0
LINE
8
0
10
3.928
20
5.092
11
5.098
21
5.092
0
0
LINE
8
0
10
5.098
20
5.092
11
5.274
21
5.092
0
0
LINE
8
0
10
5.728
20
5.092
11
6.898
21
5.092
0
0
LINE
8
0
10
6.898
20
5.092
11
7.074
21
5.092
0
0
LINE
8
0
10
7.528
20
5.092
11
8.698
21
5.092
0
0
LINE
8
0
10
8.698
20
5.092
11
8.874
21
5.092
0
0
LINE
8
0
10
9.328
20
5.092
11
10.498
21
5.092
0
0
LINE
8
0
10
10.498
20
5.092
11
10.674
21
5.092
0
0
LINE
8
0
10
11.128
20
5.092
11
11.304
21
5.092
0
0
LINE
8
0
10
11.304
20
5.092
11
12.474
21
5.092
0
0
LINE
8
0
10
12.928
20
5.092
11
13.104
21
5.092
0
0
LINE
8
0
10
13.104
20
5.092
11
14.274
21
5.092
0
0
LINE
8
0
10
0.715
20
5.592
11
1.657
21
5.592
0
0
LINE
8
0
10
0.715
20
5.592
11
1.657
21
5.592
0
0
LINE
8
0
10
2.111
20
5.592
11
2.248
21
5.592
0
0
LINE
8
0
10
2.248
20
5.592
11
3.457
21
5.592
0
0
LINE
8
0
10
3.911
20
5.592
11
4.087
21
5.592
0
0
LINE
8
0
10
4.087
20
5.592
11
5.257
21
5.592
0
0
LINE
8
0
10
5.711
20
5.592
11
5.887
21
5.592
0
0
LINE
8
0
10
5.887
20
5.592
11
7.057
21
5.592
0
0
LINE
8
0
10
7.511
20
5.592
11
7.687
21
5.592
0
0
LINE
8
0
10
7.687
20
5.592
11
8.857
21
5.592
0
0
LINE
8
0
10
9.311
20
5.592
11
9.487
21
5.592
0
0
LINE
8
0
10
9.487
20
5.592
11
10.657
21
5.592
0
0
LINE
8
0
10
11.111
20
5.592
11
11.287
21
5.592
0
0
LINE
8
0
10
11.287
20
5.592
11
12.457
21
5.592
0
0
LINE
8
0
10
12.911
20
5.592
11
14.081
21
5.592
0
0
LINE
8
0
10
14.081
20
5.592
11
14.257
21
5.592
0
0
LINE
8
0
10
0.723
20
6.092
11
1.649
21
6.092
0
0
LINE
8
0
10
0.723
20
6.092
11
1.649
21
6.092
0
0
LINE
8
0
10
2.103
20
6.092
11
2.279
21
6.092
0
0
LINE
8
0
10
2.279
20
6.092
11
3.449
21
6.092
0
0
LINE
8
0
10
3.903
20
6.092
11
4.079
21
6.092
0
0
LINE
8
0
10
4.079
20
6.092
11
5.249
21
6.092
0
0
LINE
8
0
10
5.703
20
6.092
11
5.879
21
6.092
0
0
LINE
8
0
10
5.879
20
6.092
11
7.049
21
6.092
0
0
LINE
8
0
10
7.503
20
6.092
11
8.673
21
6.092
0
0
LINE
8
0
10
8.673
20
6.092
11
8.849
21
6.092
0
0
LINE
8
0
10
9.303
20
6.092
11
9.479
21
6.092
0
0
LINE
8
0
10
9.479
20
6.092
11
10.649
21
6.092
0
0
LINE
8
0
10
11.103
20
6.092
11
11.279
21
6.092
0
0
LINE
8
0
10
11.279
20
6.092
11
12.449
21
6.092
0
0
LINE
8
0
10
12.903
20
6.092
11
13.079
21
6.092
0
0
LINE
8
0
10
13.079
20
6.092
11
14.249
21
6.092
0
0
LINE
8
0
10
0.733
20
6.592
11
1.649
21
6.592
0
0
LINE
8
0
10
0.733
20
6.592
11
1.649
21
6.592
0
0
LINE
8
0
10
2.103
20
6.592
11
2.279
21
6.592
0
0
LINE
8
0
10
2.279
20
6.592
11
3.449
21
6.592
0
0
LINE
8
0
10
3.903
20
6.592
11
4.079
21
6.592
0
0
LINE
8
0
10
4.079
20
6.592
11
5.249
21
6.592
0
0
LINE
8
0
10
5.703
20
6.592
11
5.879
21
6.592
0
0
LINE
8
0
10
5.879
20
6.592
11
7.049
21
6.592
0
0
LINE
8
0
10
7.503
20
6.592
11
8.673
21
6.592
0
0
LINE
8
0
10
8.673
20
6.592
11
8.849
21
6.592
0
0
LINE
8
0
10
9.303
20
6.592
11
9.479
21
6.592
0
0
LINE
8
0
10
9.479
20
6.592
11
10.649
21
6.592
0
0
LINE
8
0
10
11.103
20
6.592
11
11.279
21
6.592
0
0
LINE
8
0
10
11.279
20
6.592
11
12.449
21
6.592
0
0
LINE
8
0
10
12.903
20
6.592
11
13.079
21
6.592
0
0
LINE
8
0
10
13.079
20
6.592
11
14.249
21
6.592
0
0
LINE
8
0
10
0.743
20
7.092
11
1.649
21
7.092
0
0
LINE
8
0
10
0.743
20
7.092
11
1.649
21
7.092
0
0
LINE
8
0
10
2.103
20
7.092
11
2.279
21
7.092
0
0
LINE
8
0
10
2.279
20
7.092
11
3.449
21
7.092
0
0
LINE
8
0
10
3.903
20
7.092
11
4.079
21
7.092
0
0
LINE
8
0
10
4.079
20
7.092
11
5.249
21
7.092
0
0
LINE
8
0
10
5.703
20
7.092
11
5.879
21
7.092
0
0
LINE
8
0
10
5.879
20
7.092
11
7.049
21
7.092
0
0
LINE
8
0
10
7.503
20
7.092
11
8.673
21
7.092
0
0
LINE
8
0
10
8.673
20
7.092
11
8.849
21
7.092
0
0
LINE
8
0
10
9.303
20
7.092
11
9.479
21
7.092
0
0
LINE
8
0
10
9.479
20
7.092
11
10.649
21
7.092
0
0
LINE
8
0
10
11.103
20
7.092
11
11.279
21
7.092
0
0
LINE
8
0
10
11.279
20
7.092
11
12.449
21
7.092
0
0
LINE
8
0
10
12.903
20
7.092
11
13.079
21
7.092
0
0
LINE
8
0
10
13.079
20
7.092
11
14.249
21
7.092
0
0
LINE
8
0
10
0.752
20
7.592
11
1.649
21
7.592
0
0
LINE
8
0
10
0.752
20
7.592
11
1.649
21
7.592
0
0
LINE
8
0
10
2.103
20
7.592
11
2.279
21
7.592
0
0
LINE
8
0
10
2.279
20
7.592
11
3.449
21
7.592
0
0
LINE
8
0
10
3.903
20
7.592
11
4.079
21
7.592
0
0
LINE
8
0
10
4.079
20
7.592
11
5.249
21
7.592
0
0
LINE
8
0
10
5.703
20
7.592
11
5.879
21
7.592
0
0
LINE
8
0
10
5.879
20
7.592
11
7.049
21
7.592
0
0
LINE
8
0
10
7.503
20
7.592
11
7.679
21
7.592
0
0
LINE
8
0
10
7.679
20
7.592
11
8.849
21
7.592
0
0
LINE
8
0
10
9.303
20
7.592
11
9.479
21
7.592
0
0
LINE
8
0
10
9.479
20
7.592
11
10.649
21
7.592
0
0
LINE
8
0
10
11.103
20
7.592
11
11.279
21
7.592
0
0
LINE
8
0
10
11.279
20
7.592
11
12.449
21
7.592
0
0
LINE
8
0
10
12.903
20
7.592
11
13.079
21
7.592
0
0
LINE
8
0
10
13.079
20
7.592
11
14.249
21
7.592
0
0
LINE
8
0
10
0.751
20
8.092
11
1.649
21
8.092
0
0
LINE
8
0
10
0.751
20
8.092
11
1.649
21
8.092
0
0
LINE
8
0
10
2.103
20
8.092
11
2.279
21
8.092
0
0
LINE
8
0
10
2.279
20
8.092
11
3.449
21
8.092
0
0
LINE
8
0
10
3.903
20
8.092
11
4.079
21
8.092
0
0
LINE
8
0
10
4.079
20
8.092
11
5.249
21
8.092
0
0
LINE
8
0
10
5.703
20
8.092
11
5.879
21
8.092
0
0
LINE
8
0
10
5.879
20
8.092
11
7.049
21
8.092
0
0
LINE
8
0
10
7.503
20
8.092
11
8.673
21
8.092
0
0
LINE
8
0
10
8.673
20
8.092
11
8.849
21
8.092
0
0
LINE
8
0
10
9.303
20
8.092
11
9.479
21
8.092
0
0
LINE
8
0
10
9.479
20
8.092
11
10.649
21
8.092
0
0
LINE
8
0
10
11.103
20
8.092
11
11.279
21
8.092
0
0
LINE
8
0
10
11.279
20
8.092
11
12.449
21
8.092
0
0
LINE
8
0
10
12.903
20
8.092
11
13.079
21
8.092
0
0
LINE
8
0
10
13.079
20
8.092
11
14.249
21
8.092
0
0
LINE
8
0
10
0.740
20
8.592
11
1.649
21
8.592
0
0
LINE
8
0
10
0.740
20
8.592
11
1.649
21
8.592
0
0
LINE
8
0
10
2.103
20
8.592
11
2.279
21
8.592
0
0
LINE
8
0
10
2.279
20
8.592
11
3.449
21
8.592
0
0
LINE
8
0
10
3.903
20
8.592
11
4.079
21
8.592
0
0
LINE
8
0
10
4.079
20
8.592
11
5.249
21
8.592
0
0
LINE
8
0
10
5.703
20
8.592
11
5.879
21
8.592
0
0
LINE
8
0
10
5.879
20
8.592
11
7.049
21
8.592
0
0
LINE
8
0
10
7.503
20
8.592
11
8.673
21
8.592
0
0
LINE
8
0
10
8.673
20
8.592
11
8.849
21
8.592
0
0
LINE
8
0
10
9.303
20
8.592
11
9.479
21
8.592
0
0
LINE
8
0
10
9.479
20
8.592
11
10.649
21
8.592
0
0
LINE
8
0
10
11.103
20
8.592
11
11.279
21
8.592
0
0
LINE
8
0
10
11.279
20
8.592
11
12.449
21
8.592
0
0
LINE
8
0
10
12.903
20
8.592
11
13.079
21
8.592
0
0
LINE
8
0
10
13.079
20
8.592
11
14.249
21
8.592
0
0
LINE
8
0
10
0.728
20
9.092
11
1.649
21
9.092
0
0
LINE
8
0
10
0.728
20
9.092
11
1.649
21
9.092
0
0
LINE
8
0
10
2.103
20
9.092
11
2.279
21
9.092
0
0
LINE
8
0
10
2.279
20
9.092
11
3.449
21
9.092
0
0
LINE
8
0
10
3.903
20
9.092
11
4.079
21
9.092
0
0
LINE
8
0
10
4.079
20
9.092
11
5.249
21
9.092
0
0
LINE
8
0
10
5.703
20
9.092
11
5.879
21
9.092
0
0
LINE
8
0
10
5.879
20
9.092
11
7.049
21
9.092
0
0
LINE
8
0
10
7.503
20
9.092
11
8.673
21
9.092
0
0
LINE
8
0
10
8.673
20
9.092
11
8.849
21
9.092
0
0
LINE
8
0
10
9.303
20
9.092
11
9.479
21
9.092
0
0
LINE
8
0
10
9.479
20
9.092
11
10.649
21
9.092
0
0
LINE
8
0
10
11.103
20
9.092
11
11.279
21
9.092
0
0
LINE
8
0
10
11.279
20
9.092
11
12.449
21
9.092
0
0
LINE
8
0
10
12.903
20
9.092
11
13.079
21
9.092
0
0
LINE
8
0
10
13.079
20
9.092
11
14.249
21
9.092
0
0
LINE
8
0
10
0.715
20
9.592
11
1.649
21
9.592
0
0
LINE
8
0
10
0.715
20
9.592
11
1.649
21
9.592
0
0
LINE
8
0
10
2.103
20
9.592
11
2.279
21
9.592
0
0
LINE
8
0
10
2.279
20
9.592
11
3.449
21
9.592
0
0
LINE
8
0
10
3.903
20
9.592
11
4.079
21
9.592
0
0
LINE
8
0
10
4.079
20
9.592
11
5.249
21
9.592
0
0
LINE
8
0
10
5.703
20
9.592
11
5.879
21
9.592
0
0
LINE
8
0
10
5.879
20
9.592
11
7.049
21
9.592
0
0
LINE
8
0
10
7.503
20
9.592
11
8.673
21
9.592
0
0
LINE
8
0
10
8.673
20
9.592
11
8.849
21
9.592
0
0
LINE
8
0
10
9.303
20
9.592
11
9.479
21
9.592
0
0
LINE
8
0
10
9.479
20
9.592
11
10.649
21
9.592
0
0
LINE
8
0
10
11.103
20
9.592
11
11.279
21
9.592
0
0
LINE
8
0
10
11.279
20
9.592
11
12.449
21
9.592
0
0
LINE
8
0
10
12.903
20
9.592
11
13.079
21
9.592
0
0
LINE
8
0
10
13.079
20
9.592
11
14.249
21
9.592
0
0
LINE
8
0
10
0.704
20
10.092
11
1.649
21
10.092
0
0
LINE
8
0
10
0.704
20
10.092
11
1.649
21
10.092
0
0
LINE
8
0
10
2.103
20
10.092
11
2.279
21
10.092
0
0
LINE
8
0
10
2.279
20
10.092
11
3.449
21
10.092
0
0
LINE
8
0
10
3.903
20
10.092
11
4.079
21
10.092
0
0
LINE
8
0
10
4.079
20
10.092
11
5.249
21
10.092
0
0
LINE
8
0
10
5.703
20
10.092
11
5.879
21
10.092
0
0
LINE
8
0
10
5.879
20
10.092
11
7.049
21
10.092
0
0
LINE
8
0
10
7.503
20
10.092
11
8.673
21
10.092
0
0
LINE
8
0
10
8.673
20
10.092
11
8.849
21
10.092
0
0
LINE
8
0
10
9.303
20
10.092
11
9.479
21
10.092
0
0
LINE
8
0
10
9.479
20
10.092
11
10.649
21
10.092
0
0
LINE
8
0
10
11.103
20
10.092
11
11.279
21
10.092
0
0
LINE
8
0
10
11.279
20
10.092
11
12.449
21
10.092
0
0
LINE
8
0
10
12.903
20
10.092
11
13.079
21
10.092
0
0
LINE
8
0
10
13.079
20
10.092
11
14.249
21
10.092
0
0
LINE
8
0
10
0.692
20
10.592
11
1.649
21
10.592
0
0
LINE
8
0
10
0.692
20
10.592
11
1.649
21
10.592
0
0
LINE
8
0
10
2.103
20
10.592
11
2.279
21
10.592
0
0
LINE
8
0
10
2.279
20
10.592
11
3.449
21
10.592
0
0
LINE
8
0
10
3.903
20
10.592
11
4.079
21
10.592
0
0
LINE
8
0
10
4.079
20
10.592
11
5.249
21
10.592
0
0
LINE
8
0
10
5.703
20
10.592
11
5.879
21
10.592
0
0
LINE
8
0
10
5.879
20
10.592
11
7.049
21
10.592
0
0
LINE
8
0
10
7.503
20
10.592
11
8.673
21
10.592
0
0
LINE
8
0
10
8.673
20
10.592
11
8.849
21
10.592
0
0
LINE
8
0
10
9.303
20
10.592
11
9.479
21
10.592
0
0
LINE
8
0
10
9.479
20
10.592
11
10.649
21
10.592
0
0
LINE
8
0
10
11.103
20
10.592
11
11.279
21
10.592
0
0
LINE
8
0
10
11.279
20
10.592
11
12.449
21
10.592
0
0
LINE
8
0
10
12.903
20
10.592
11
13.079
21
10.592
0
0
LINE
8
0
10
13.079
20
10.592
11
14.249
21
10.592
0
0
LINE
8
0
10
0.680
20
11.092
11
1.649
21
11.092
0
0
LINE
8
0
10
0.680
20
11.092
11
1.649
21
11.092
0
0
LINE
8
0
10
2.103
20
11.092
11
2.279
21
11.092
0
0
LINE
8
0
10
2.279
20
11.092
11
3.449
21
11.092
0
0
LINE
8
0
10
3.903
20
11.092
11
4.079
21
11.092
0
0
LINE
8
0
10
4.079
20
11.092
11
5.249
21
11.092
0
0
LINE
8
0
10
5.703
20
11.092
11
5.879
21
11.092
0
0
LINE
8
0
10
5.879
20
11.092
11
7.049
21
11.092
0
0
LINE
8
0
10
7.503
20
11.092
11
8.673
21
11.092
0
0
LINE
8
0
10
8.673
20
11.092
11
8.849
21
11.092
0
0
LINE
8
0
10
9.303
20
11.092
11
9.479
21
11.092
0
0
LINE
8
0
10
9.479
20
11.092
11
10.649
21
11.092
0
0
LINE
8
0
10
11.103
20
11.092
11
11.279
21
11.092
0
0
LINE
8
0
10
11.279
20
11.092
11
12.449
21
11.092
0
0
LINE
8
0
10
12.903
20
11.092
11
13.079
21
11.092
0
0
LINE
8
0
10
13.079
20
11.092
11
14.249
21
11.092
0
0
LINE
8
0
10
0.668
20
11.592
11
1.649
21
11.592
0
0
LINE
8
0
10
0.668
20
11.592
11
1.649
21
11.592
0
0
LINE
8
0
10
2.103
20
11.592
11
2.279
21
11.592
0
0
LINE
8
0
10
2.279
20
11.592
11
3.449
21
11.592
0
0
LINE
8
0
10
3.903
20
11.592
11
4.079
21
11.592
0
0
LINE
8
0
10
4.079
20
11.592
11
5.249
21
11.592
0
0
LINE
8
0
10
5.703
20
11.592
11
5.879
21
11.592
0
0
LINE
8
0
10
5.879
20
11.592
11
7.049
21
11.592
0
0
LINE
8
0
10
7.503
20
11.592
11
8.673
21
11.592
0
0
LINE
8
0
10
8.673
20
11.592
11
8.849
21
11.592
0
0
LINE
8
0
10
9.303
20
11.592
11
9.479
21
11.592
0
0
LINE
8
0
10
9.479
20
11.592
11
10.649
21
11.592
0
0
LINE
8
0
10
11.103
20
11.592
11
11.279
21
11.592
0
0
LINE
8
0
10
11.279
20
11.592
11
12.449
21
11.592
0
0
LINE
8
0
10
12.903
20
11.592
11
13.079
21
11.592
0
0
LINE
8
0
10
13.079
20
11.592
11
14.249
21
11.592
0
0
LINE
8
0
10
0.656
20
12.092
11
1.649
21
12.092
0
0
LINE
8
0
10
0.656
20
12.092
11
1.649
21
12.092
0
0
LINE
8
0
10
2.103
20
12.092
11
2.279
21
12.092
0
0
LINE
8
0
10
2.279
20
12.092
11
3.449
21
12.092
0
0
LINE
8
0
10
3.903
20
12.092
11
4.079
21
12.092
0
0
LINE
8
0
10
4.079
20
12.092
11
5.249
21
12.092
0
0
LINE
8
0
10
5.703
20
12.092
11
5.879
21
12.092
0
0
LINE
8
0
10
5.879
20
12.092
11
7.049
21
12.092
0
0
LINE
8
0
10
7.503
20
12.092
11
8.673
21
12.092
0
0
LINE
8
0
10
8.673
20
12.092
11
8.849
21
12.092
0
0
LINE
8
0
10
9.303
20
12.092
11
9.479
21
12.092
0
0
LINE
8
0
10
9.479
20
12.092
11
10.649
21
12.092
0
0
LINE
8
0
10
11.103
20
12.092
11
11.279
21
12.092
0
0
LINE
8
0
10
11.279
20
12.092
11
12.449
21
12.092
0
0
LINE
8
0
10
12.903
20
12.092
11
13.079
21
12.092
0
0
LINE
8
0
10
13.079
20
12.092
11
14.249
21
12.092
0
0
LINE
8
0
10
0.644
20
12.592
11
1.649
21
12.592
0
0
LINE
8
0
10
0.644
20
12.592
11
1.649
21
12.592
0
0
LINE
8
0
10
2.103
20
12.592
11
2.279
21
12.592
0
0
LINE
8
0
10
2.279
20
12.592
11
3.449
21
12.592
0
0
LINE
8
0
10
3.903
20
12.592
11
4.079
21
12.592
0
0
LINE
8
0
10
4.079
20
12.592
11
5.249
21
12.592
0
0
LINE
8
0
10
5.703
20
12.592
11
5.879
21
12.592
0
0
LINE
8
0
10
5.879
20
12.592
11
7.049
21
12.592
0
0
LINE
8
0
10
7.503
20
12.592
11
8.673
21
12.592
0
0
LINE
8
0
10
8.673
20
12.592
11
8.849
21
12.592
0
0
LINE
8
0
10
9.303
20
12.592
11
9.479
21
12.592
0
0
LINE
8
0
10
9.479
20
12.592
11
10.649
21
12.592
0
0
LINE
8
0
10
11.103
20
12.592
11
11.279
21
12.592
0
0
LINE
8
0
10
11.279
20
12.592
11
12.449
21
12.592
0
0
LINE
8
0
10
12.903
20
12.592
11
13.079
21
12.592
0
0
LINE
8
0
10
13.079
20
12.592
11
14.249
21
12.592
0
0
LINE
8
0
10
0.654
20
13.092
11
1.649
21
13.092
0
0
LINE
8
0
10
0.654
20
13.092
11
1.649
21
13.092
0
0
LINE
8
0
10
2.103
20
13.092
11
2.279
21
13.092
0
0
LINE
8
0
10
2.279
20
13.092
11
3.449
21
13.092
0
0
LINE
8
0
10
3.903
20
13.092
11
4.079
21
13.092
0
0
LINE
8
0
10
4.079
20
13.092
11
5.249
21
13.092
0
0
LINE
8
0
10
5.703
20
13.092
11
5.879
21
13.092
0
0
LINE
8
0
10
5.879
20
13.092
11
7.049
21
13.092
0
0
LINE
8
0
10
7.503
20
13.092
11
8.673
21
13.092
0
0
LINE
8
0
10
8.673
20
13.092
11
8.849
21
13.092
0
0
LINE
8
0
10
9.303
20
13.092
11
9.479
21
13.092
0
0
LINE
8
0
10
9.479
20
13.092
11
10.649
21
13.092
0
0
LINE
8
0
10
11.103
20
13.092
11
11.279
21
13.092
0
0
LINE
8
0
10
11.279
20
13.092
11
12.449
21
13.092
0
0
LINE
8
0
10
12.903
20
13.092
11
13.079
21
13.092
0
0
LINE
8
0
10
13.079
20
13.092
11
14.249
21
13.092
0
0
LINE
8
0
10
0.701
20
13.592
11
1.649
21
13.592
0
0
LINE
8
0
10
0.701
20
13.592
11
1.649
21
13.592
0
0
LINE
8
0
10
2.103
20
13.592
11
2.279
21
13.592
0
0
LINE
8
0
10
2.279
20
13.592
11
3.449
21
13.592
0
0
LINE
8
0
10
3.903
20
13.592
11
4.079
21
13.592
0
0
LINE
8
0
10
4.079
20
13.592
11
5.249
21
13.592
0
0
LINE
8
0
10
5.703
20
13.592
11
5.879
21
13.592
0
0
LINE
8
0
10
5.879
20
13.592
11
7.049
21
13.592
0
0
LINE
8
0
10
7.503
20
13.592
11
8.673
21
13.592
0
0
LINE
8
0
10
8.673
20
13.592
11
8.849
21
13.592
0
0
LINE
8
0
10
9.303
20
13.592
11
9.479
21
13.592
0
0
LINE
8
0
10
9.479
20
13.592
11
10.649
21
13.592
0
0
LINE
8
0
10
11.103
20
13.592
11
11.279
21
13.592
0
0
LINE
8
0
10
11.279
20
13.592
11
12.449
21
13.592
0
0
LINE
8
0
10
12.903
20
13.592
11
13.079
21
13.592
0
0
LINE
8
0
10
13.079
20
13.592
11
14.249
21
13.592
0
0
LINE
8
0
10
0.813
20
14.092
11
1.649
21
14.092
0
0
LINE
8
0
10
0.813
20
14.092
11
1.649
21
14.092
0
0
LINE
8
0
10
2.103
20
14.092
11
2.279
21
14.092
0
0
LINE
8
0
10
2.279
20
14.092
11
3.449
21
14.092
0
0
LINE
8
0
10
3.903
20
14.092
11
4.079
21
14.092
0
0
LINE
8
0
10
4.079
20
14.092
11
5.249
21
14.092
0
0
LINE
8
0
10
5.703
20
14.092
11
5.879
21
14.092
0
0
LINE
8
0
10
5.879
20
14.092
11
7.049
21
14.092
0
0
LINE
8
0
10
7.503
20
14.092
11
8.673
21
14.092
0
0
LINE
8
0
10
8.673
20
14.092
11
8.849
21
14.092
0
0
LINE
8
0
10
9.303
20
14.092
11
9.479
21
14.092
0
0
LINE
8
0
10
9.479
20
14.092
11
10.649
21
14.092
0
0
LINE
8
0
10
11.103
20
14.092
11
11.279
21
14.092
0
0
LINE
8
0
10
11.279
20
14.092
11
12.449
21
14.092
0
0
LINE
8
0
10
12.903
20
14.092
11
13.079
21
14.092
0
0
LINE
8
0
10
13.079
20
14.092
11
14.249
21
14.092
0
0
LINE
8
0
10
1.255
20
14.592
11
1.649
21
14.592
0
0
LINE
8
0
10
1.255
20
14.592
11
1.649
21
14.592
0
0
LINE
8
0
10
2.103
20
14.592
11
2.279
21
14.592
0
0
LINE
8
0
10
2.279
20
14.592
11
3.449
21
14.592
0
0
LINE
8
0
10
3.903
20
14.592
11
4.079
21
14.592
0
0
LINE
8
0
10
4.079
20
14.592
11
5.249
21
14.592
0
0
LINE
8
0
10
5.703
20
14.592
11
5.879
21
14.592
0
0
LINE
8
0
10
5.879
20
14.592
11
7.049
21
14.592
0
0
LINE
8
0
10
7.503
20
14.592
11
8.673
21
14.592
0
0
LINE
8
0
10
8.673
20
14.592
11
8.849
21
14.592
0
0
LINE
8
0
10
9.303
20
14.592
11
9.479
21
14.592
0
0
LINE
8
0
10
9.479
20
14.592
11
10.649
21
14.592
0
0
LINE
8
0
10
11.103
20
14.592
11
11.279
21
14.592
0
0
LINE
8
0
10
11.279
20
14.592
11
12.449
21
14.592
0
0
LINE
8
0
10
12.903
20
14.592
11
13.079
21
14.592
0
0
LINE
8
0
10
13.079
20
14.592
11
14.249
21
14.592
0
0
ENDSEC
0
EOF
