0
SECTION
2
ENTITIES
0
LINE
8
0
10
2.404
20
0.431
11
1.436
21
0.536
0
0
LINE
8
0
10
1.436
20
0.536
11
0.807
21
0.857
0
0
LINE
8
0
10
0.807
20
0.857
11
0.461
21
2.052
0
0
LINE
8
0
10
0.461
20
2.052
11
0.582
21
7.885
0
0
LINE
8
0
10
0.582
20
7.885
11
0.437
21
12.728
0
0
LINE
8
0
10
0.437
20
12.728
11
0.580
21
13.895
0
0
LINE
8
0
10
0.580
20
13.895
11
0.832
21
14.352
0
0
LINE
8
0
10
0.832
20
14.352
11
1.280
21
14.618
0
0
LINE
8
0
10
1.280
20
14.618
11
2.324
21
14.751
0
0
LINE
8
0
10
2.324
20
14.751
11
14.622
21
14.638
0
0
LINE
8
0
10
14.622
20
14.638
11
14.748
21
2.337
0
0
LINE
8
0
10
14.748
20
2.337
11
14.633
21
1.351
0
0
LINE
8
0
10
14.633
20
1.351
11
14.301
21
0.789
0
0
LINE
8
0
10
14.301
20
0.789
11
13.638
21
0.529
0
0
LINE
8
0
10
13.638
20
0.529
11
12.811
21
0.449
0
0
LINE
8
0
10
12.811
20
0.449
11
7.099
21
0.580
0
0
LINE
8
0
10
7.099
20
0.580
11
2.404
21
0.431
0
0
LINE
8
0
10
2.404
20
0.431
11
2.404
21
0.431
0
0
LINE
8
0
10
2.404
20
0.431
11
1.436
21
0.536
0
0
LINE
8
0
10
1.436
20
0.536
11
0.807
21
0.857
0
0
LINE
8
0
10
0.807
20
0.857
11
0.461
21
2.052
0
0
LINE
8
0
10
0.461
20
2.052
11
0.582
21
7.885
0
0
LINE
8
0
10
0.582
20
7.885
11
0.437
21
12.728
0
0
LINE
8
0
10
0.437
20
12.728
11
0.580
21
13.895
0
0
LINE
8
0
10
0.580
20
13.895
11
0.832
21
14.352
0
0
LINE
8
0
10
0.832
20
14.352
11
1.280
21
14.618
0
0
LINE
8
0
10
1.280
20
14.618
11
2.324
21
14.751
0
0
LINE
8
0
10
2.324
20
14.751
11
14.622
21
14.638
0
0
LINE
8
0
10
14.622
20
14.638
11
14.748
21
2.337
0
0
LINE
8
0
10
14.748
20
2.337
11
14.633
21
1.351
0
0
LINE
8
0
10
14.633
20
1.351
11
14.301
21
0.789
0
0
LINE
8
0
10
14.301
20
0.789
11
13.638
21
0.529
0
0
LINE
8
0
10
13.638
20
0.529
11
12.811
21
0.449
0
0
LINE
8
0
10
12.811
20
0.449
11
7.099
21
0.580
0
0
LINE
8
0
10
7.099
20
0.580
11
2.404
21
0.431
0
0
LINE
8
0
10
2.404
20
0.431
11
2.404
21
0.431
0
0
LINE
8
0
10
0.593
20
1.254
11
0.593
21
1.553
0
0
LINE
8
0
10
0.593
20
1.254
11
0.593
21
1.553
0
0
LINE
8
0
10
0.593
20
1.553
11
0.593
21
1.562
0
0
LINE
8
0
10
0.593
20
1.562
11
0.593
21
3.053
0
0
LINE
8
0
10
0.593
20
3.053
11
0.593
21
3.054
0
0
LINE
8
0
10
0.593
20
3.054
11
0.593
21
3.353
0
0
LINE
8
0
10
0.593
20
3.353
11
0.593
21
3.362
0
0
LINE
8
0
10
0.593
20
3.362
11
0.593
21
4.853
0
0
LINE
8
0
10
0.593
20
4.853
11
0.593
21
4.854
0
0
LINE
8
0
10
0.593
20
4.854
11
0.593
21
5.153
0
0
LINE
8
0
10
0.593
20
5.153
11
0.593
21
5.162
0
0
LINE
8
0
10
0.593
20
5.162
11
0.593
21
6.653
0
0
LINE
8
0
10
0.593
20
6.653
11
0.593
21
6.654
0
0
LINE
8
0
10
0.593
20
6.654
11
0.593
21
6.953
0
0
LINE
8
0
10
0.593
20
6.953
11
0.593
21
6.962
0
0
LINE
8
0
10
0.593
20
6.962
11
0.593
21
8.453
0
0
LINE
8
0
10
0.593
20
8.453
11
0.593
21
8.454
0
0
LINE
8
0
10
0.593
20
8.454
11
0.593
21
8.753
0
0
LINE
8
0
10
0.593
20
8.753
11
0.593
21
8.762
0
0
LINE
8
0
10
0.593
20
8.762
11
0.593
21
10.253
0
0
LINE
8
0
10
0.593
20
10.253
11
0.593
21
10.254
0
0
LINE
8
0
10
0.593
20
10.254
11
0.593
21
10.553
0
0
LINE
8
0
10
0.593
20
10.553
11
0.593
21
10.562
0
0
LINE
8
0
10
0.593
20
10.562
11
0.593
21
12.053
0
0
LINE
8
0
10
0.593
20
12.053
11
0.593
21
12.054
0
0
LINE
8
0
10
0.593
20
12.054
11
0.593
21
12.353
0
0
LINE
8
0
10
0.593
20
12.353
11
0.593
21
12.362
0
0
LINE
8
0
10
0.593
20
12.362
11
0.593
21
13.852
0
0
LINE
8
0
10
0.593
20
13.852
11
0.593
21
13.855
0
0
LINE
8
0
10
0.593
20
13.855
11
0.593
21
13.929
0
0
LINE
8
0
10
1.093
20
0.654
11
1.093
21
0.952
0
0
LINE
8
0
10
1.093
20
0.654
11
1.093
21
0.952
0
0
LINE
8
0
10
1.093
20
0.952
11
1.093
21
0.958
0
0
LINE
8
0
10
1.093
20
0.958
11
1.093
21
2.449
0
0
LINE
8
0
10
1.093
20
2.449
11
1.093
21
2.451
0
0
LINE
8
0
10
1.093
20
2.451
11
1.093
21
2.749
0
0
LINE
8
0
10
1.093
20
2.749
11
1.093
21
2.758
0
0
LINE
8
0
10
1.093
20
2.758
11
1.093
21
4.249
0
0
LINE
8
0
10
1.093
20
4.249
11
1.093
21
4.251
0
0
LINE
8
0
10
1.093
20
4.251
11
1.093
21
4.549
0
0
LINE
8
0
10
1.093
20
4.549
11
1.093
21
4.558
0
0
LINE
8
0
10
1.093
20
4.558
11
1.093
21
6.049
0
0
LINE
8
0
10
1.093
20
6.049
11
1.093
21
6.051
0
0
LINE
8
0
10
1.093
20
6.051
11
1.093
21
6.349
0
0
LINE
8
0
10
1.093
20
6.349
11
1.093
21
6.358
0
0
LINE
8
0
10
1.093
20
6.358
11
1.093
21
7.849
0
0
LINE
8
0
10
1.093
20
7.849
11
1.093
21
7.851
0
0
LINE
8
0
10
1.093
20
7.851
11
1.093
21
8.149
0
0
LINE
8
0
10
1.093
20
8.149
11
1.093
21
8.158
0
0
LINE
8
0
10
1.093
20
8.158
11
1.093
21
9.649
0
0
LINE
8
0
10
1.093
20
9.649
11
1.093
21
9.651
0
0
LINE
8
0
10
1.093
20
9.651
11
1.093
21
9.949
0
0
LINE
8
0
10
1.093
20
9.949
11
1.093
21
9.958
0
0
LINE
8
0
10
1.093
20
9.958
11
1.093
21
11.449
0
0
LINE
8
0
10
1.093
20
11.449
11
1.093
21
11.451
0
0
LINE
8
0
10
1.093
20
11.451
11
1.093
21
11.749
0
0
LINE
8
0
10
1.093
20
11.749
11
1.093
21
11.758
0
0
LINE
8
0
10
1.093
20
11.758
11
1.093
21
13.249
0
0
LINE
8
0
10
1.093
20
13.249
11
1.093
21
13.251
0
0
LINE
8
0
10
1.093
20
13.251
11
1.093
21
13.549
0
0
LINE
8
0
10
1.093
20
13.549
11
1.093
21
13.558
0
0
LINE
8
0
10
1.093
20
13.558
11
1.093
21
14.535
0
0
LINE
8
0
10
1.093
20
14.535
11
1.093
21
14.537
0
0
LINE
8
0
10
1.593
20
0.504
11
1.593
21
0.802
0
0
LINE
8
0
10
1.593
20
0.504
11
1.593
21
0.802
0
0
LINE
8
0
10
1.593
20
0.802
11
1.593
21
0.810
0
0
LINE
8
0
10
1.593
20
0.810
11
1.593
21
2.301
0
0
LINE
8
0
10
1.593
20
2.301
11
1.593
21
2.303
0
0
LINE
8
0
10
1.593
20
2.303
11
1.593
21
2.601
0
0
LINE
8
0
10
1.593
20
2.601
11
1.593
21
2.610
0
0
LINE
8
0
10
1.593
20
2.610
11
1.593
21
4.101
0
0
LINE
8
0
10
1.593
20
4.101
11
1.593
21
4.103
0
0
LINE
8
0
10
1.593
20
4.103
11
1.593
21
4.401
0
0
LINE
8
0
10
1.593
20
4.401
11
1.593
21
4.410
0
0
LINE
8
0
10
1.593
20
4.410
11
1.593
21
5.901
0
0
LINE
8
0
10
1.593
20
5.901
11
1.593
21
5.903
0
0
LINE
8
0
10
1.593
20
5.903
11
1.593
21
6.201
0
0
LINE
8
0
10
1.593
20
6.201
11
1.593
21
6.210
0
0
LINE
8
0
10
1.593
20
6.210
11
1.593
21
7.701
0
0
LINE
8
0
10
1.593
20
7.701
11
1.593
21
7.703
0
0
LINE
8
0
10
1.593
20
7.703
11
1.593
21
8.001
0
0
LINE
8
0
10
1.593
20
8.001
11
1.593
21
8.010
0
0
LINE
8
0
10
1.593
20
8.010
11
1.593
21
9.501
0
0
LINE
8
0
10
1.593
20
9.501
11
1.593
21
9.503
0
0
LINE
8
0
10
1.593
20
9.503
11
1.593
21
9.801
0
0
LINE
8
0
10
1.593
20
9.801
11
1.593
21
9.810
0
0
LINE
8
0
10
1.593
20
9.810
11
1.593
21
11.301
0
0
LINE
8
0
10
1.593
20
11.301
11
1.593
21
11.303
0
0
LINE
8
0
10
1.593
20
11.303
11
1.593
21
11.601
0
0
LINE
8
0
10
1.593
20
11.601
11
1.593
21
11.610
0
0
LINE
8
0
10
1.593
20
11.610
11
1.593
21
13.101
0
0
LINE
8
0
10
1.593
20
13.101
11
1.593
21
13.103
0
0
LINE
8
0
10
1.593
20
13.103
11
1.593
21
13.401
0
0
LINE
8
0
10
1.593
20
13.401
11
1.593
21
13.410
0
0
LINE
8
0
10
1.593
20
13.410
11
1.593
21
14.693
0
0
LINE
8
0
10
1.593
20
14.693
11
1.593
21
14.695
0
0
LINE
8
0
10
2.093
20
0.446
11
2.093
21
0.447
0
0
LINE
8
0
10
2.093
20
0.446
11
2.093
21
0.447
0
0
LINE
8
0
10
2.093
20
0.447
11
2.093
21
0.744
0
0
LINE
8
0
10
2.093
20
0.744
11
2.093
21
0.753
0
0
LINE
8
0
10
2.093
20
0.753
11
2.093
21
2.244
0
0
LINE
8
0
10
2.093
20
2.244
11
2.093
21
2.246
0
0
LINE
8
0
10
2.093
20
2.246
11
2.093
21
2.543
0
0
LINE
8
0
10
2.093
20
2.543
11
2.093
21
2.553
0
0
LINE
8
0
10
2.093
20
2.553
11
2.093
21
4.044
0
0
LINE
8
0
10
2.093
20
4.044
11
2.093
21
4.046
0
0
LINE
8
0
10
2.093
20
4.046
11
2.093
21
4.343
0
0
LINE
8
0
10
2.093
20
4.343
11
2.093
21
4.353
0
0
LINE
8
0
10
2.093
20
4.353
11
2.093
21
5.844
0
0
LINE
8
0
10
2.093
20
5.844
11
2.093
21
5.846
0
0
LINE
8
0
10
2.093
20
5.846
11
2.093
21
6.143
0
0
LINE
8
0
10
2.093
20
6.143
11
2.093
21
6.153
0
0
LINE
8
0
10
2.093
20
6.153
11
2.093
21
7.644
0
0
LINE
8
0
10
2.093
20
7.644
11
2.093
21
7.646
0
0
LINE
8
0
10
2.093
20
7.646
11
2.093
21
7.943
0
0
LINE
8
0
10
2.093
20
7.943
11
2.093
21
7.953
0
0
LINE
8
0
10
2.093
20
7.953
11
2.093
21
9.444
0
0
LINE
8
0
10
2.093
20
9.444
11
2.093
21
9.446
0
0
LINE
8
0
10
2.093
20
9.446
11
2.093
21
9.743
0
0
LINE
8
0
10
2.093
20
9.743
11
2.093
21
9.753
0
0
LINE
8
0
10
2.093
20
9.753
11
2.093
21
11.244
0
0
LINE
8
0
10
2.093
20
11.244
11
2.093
21
11.246
0
0
LINE
8
0
10
2.093
20
11.246
11
2.093
21
11.543
0
0
LINE
8
0
10
2.093
20
11.543
11
2.093
21
11.553
0
0
LINE
8
0
10
2.093
20
11.553
11
2.093
21
13.044
0
0
LINE
8
0
10
2.093
20
13.044
11
2.093
21
13.046
0
0
LINE
8
0
10
2.093
20
13.046
11
2.093
21
13.343
0
0
LINE
8
0
10
2.093
20
13.343
11
2.093
21
13.353
0
0
LINE
8
0
10
2.093
20
13.353
11
2.093
21
14.741
0
0
LINE
8
0
10
2.093
20
14.741
11
2.093
21
14.743
0
0
LINE
8
0
10
2.093
20
14.743
11
2.093
21
14.744
0
0
LINE
8
0
10
2.593
20
0.437
11
2.593
21
0.735
0
0
LINE
8
0
10
2.593
20
0.437
11
2.593
21
0.735
0
0
LINE
8
0
10
2.593
20
0.735
11
2.593
21
0.744
0
0
LINE
8
0
10
2.593
20
0.744
11
2.593
21
2.234
0
0
LINE
8
0
10
2.593
20
2.234
11
2.593
21
2.236
0
0
LINE
8
0
10
2.593
20
2.236
11
2.593
21
2.534
0
0
LINE
8
0
10
2.593
20
2.534
11
2.593
21
2.544
0
0
LINE
8
0
10
2.593
20
2.544
11
2.593
21
4.034
0
0
LINE
8
0
10
2.593
20
4.034
11
2.593
21
4.036
0
0
LINE
8
0
10
2.593
20
4.036
11
2.593
21
4.334
0
0
LINE
8
0
10
2.593
20
4.334
11
2.593
21
4.344
0
0
LINE
8
0
10
2.593
20
4.344
11
2.593
21
5.834
0
0
LINE
8
0
10
2.593
20
5.834
11
2.593
21
5.836
0
0
LINE
8
0
10
2.593
20
5.836
11
2.593
21
6.134
0
0
LINE
8
0
10
2.593
20
6.134
11
2.593
21
6.144
0
0
LINE
8
0
10
2.593
20
6.144
11
2.593
21
7.634
0
0
LINE
8
0
10
2.593
20
7.634
11
2.593
21
7.636
0
0
LINE
8
0
10
2.593
20
7.636
11
2.593
21
7.934
0
0
LINE
8
0
10
2.593
20
7.934
11
2.593
21
7.944
0
0
LINE
8
0
10
2.593
20
7.944
11
2.593
21
9.434
0
0
LINE
8
0
10
2.593
20
9.434
11
2.593
21
9.436
0
0
LINE
8
0
10
2.593
20
9.436
11
2.593
21
9.734
0
0
LINE
8
0
10
2.593
20
9.734
11
2.593
21
9.744
0
0
LINE
8
0
10
2.593
20
9.744
11
2.593
21
11.234
0
0
LINE
8
0
10
2.593
20
11.234
11
2.593
21
11.236
0
0
LINE
8
0
10
2.593
20
11.236
11
2.593
21
11.534
0
0
LINE
8
0
10
2.593
20
11.534
11
2.593
21
11.544
0
0
LINE
8
0
10
2.593
20
11.544
11
2.593
21
13.034
0
0
LINE
8
0
10
2.593
20
13.034
11
2.593
21
13.036
0
0
LINE
8
0
10
2.593
20
13.036
11
2.593
21
13.334
0
0
LINE
8
0
10
2.593
20
13.334
11
2.593
21
13.344
0
0
LINE
8
0
10
2.593
20
13.344
11
2.593
21
14.740
0
0
LINE
8
0
10
2.593
20
14.740
11
2.593
21
14.742
0
0
LINE
8
0
10
3.093
20
0.453
11
3.093
21
0.751
0
0
LINE
8
0
10
3.093
20
0.453
11
3.093
21
0.751
0
0
LINE
8
0
10
3.093
20
0.751
11
3.093
21
0.760
0
0
LINE
8
0
10
3.093
20
0.760
11
3.093
21
2.250
0
0
LINE
8
0
10
3.093
20
2.250
11
3.093
21
2.252
0
0
LINE
8
0
10
3.093
20
2.252
11
3.093
21
2.550
0
0
LINE
8
0
10
3.093
20
2.550
11
3.093
21
2.560
0
0
LINE
8
0
10
3.093
20
2.560
11
3.093
21
4.050
0
0
LINE
8
0
10
3.093
20
4.050
11
3.093
21
4.052
0
0
LINE
8
0
10
3.093
20
4.052
11
3.093
21
4.350
0
0
LINE
8
0
10
3.093
20
4.350
11
3.093
21
4.360
0
0
LINE
8
0
10
3.093
20
4.360
11
3.093
21
5.850
0
0
LINE
8
0
10
3.093
20
5.850
11
3.093
21
5.852
0
0
LINE
8
0
10
3.093
20
5.852
11
3.093
21
6.150
0
0
LINE
8
0
10
3.093
20
6.150
11
3.093
21
6.160
0
0
LINE
8
0
10
3.093
20
6.160
11
3.093
21
7.650
0
0
LINE
8
0
10
3.093
20
7.650
11
3.093
21
7.652
0
0
LINE
8
0
10
3.093
20
7.652
11
3.093
21
7.950
0
0
LINE
8
0
10
3.093
20
7.950
11
3.093
21
7.960
0
0
LINE
8
0
10
3.093
20
7.960
11
3.093
21
9.450
0
0
LINE
8
0
10
3.093
20
9.450
11
3.093
21
9.452
0
0
LINE
8
0
10
3.093
20
9.452
11
3.093
21
9.750
0
0
LINE
8
0
10
3.093
20
9.750
11
3.093
21
9.760
0
0
LINE
8
0
10
3.093
20
9.760
11
3.093
21
11.250
0
0
LINE
8
0
10
3.093
20
11.250
11
3.093
21
11.252
0
0
LINE
8
0
10
3.093
20
11.252
11
3.093
21
11.550
0
0
LINE
8
0
10
3.093
20
11.550
11
3.093
21
11.560
0
0
LINE
8
0
10
3.093
20
11.560
11
3.093
21
13.050
0
0
LINE
8
0
10
3.093
20
13.050
11
3.093
21
13.052
0
0
LINE
8
0
10
3.093
20
13.052
11
3.093
21
13.350
0
0
LINE
8
0
10
3.093
20
13.350
11
3.093
21
13.360
0
0
LINE
8
0
10
3.093
20
13.360
11
3.093
21
14.722
0
0
LINE
8
0
10
3.093
20
14.722
11
3.093
21
14.724
0
0
LINE
8
0
10
3.593
20
0.469
11
3.593
21
0.767
0
0
LINE
8
0
10
3.593
20
0.469
11
3.593
21
0.767
0
0
LINE
8
0
10
3.593
20
0.767
11
3.593
21
0.776
0
0
LINE
8
0
10
3.593
20
0.776
11
3.593
21
2.266
0
0
LINE
8
0
10
3.593
20
2.266
11
3.593
21
2.268
0
0
LINE
8
0
10
3.593
20
2.268
11
3.593
21
2.566
0
0
LINE
8
0
10
3.593
20
2.566
11
3.593
21
2.576
0
0
LINE
8
0
10
3.593
20
2.576
11
3.593
21
4.066
0
0
LINE
8
0
10
3.593
20
4.066
11
3.593
21
4.068
0
0
LINE
8
0
10
3.593
20
4.068
11
3.593
21
4.366
0
0
LINE
8
0
10
3.593
20
4.366
11
3.593
21
4.376
0
0
LINE
8
0
10
3.593
20
4.376
11
3.593
21
5.866
0
0
LINE
8
0
10
3.593
20
5.866
11
3.593
21
5.868
0
0
LINE
8
0
10
3.593
20
5.868
11
3.593
21
6.166
0
0
LINE
8
0
10
3.593
20
6.166
11
3.593
21
6.176
0
0
LINE
8
0
10
3.593
20
6.176
11
3.593
21
7.666
0
0
LINE
8
0
10
3.593
20
7.666
11
3.593
21
7.668
0
0
LINE
8
0
10
3.593
20
7.668
11
3.593
21
7.966
0
0
LINE
8
0
10
3.593
20
7.966
11
3.593
21
7.976
0
0
LINE
8
0
10
3.593
20
7.976
11
3.593
21
9.466
0
0
LINE
8
0
10
3.593
20
9.466
11
3.593
21
9.468
0
0
LINE
8
0
10
3.593
20
9.468
11
3.593
21
9.766
0
0
LINE
8
0
10
3.593
20
9.766
11
3.593
21
9.776
0
0
LINE
8
0
10
3.593
20
9.776
11
3.593
21
11.266
0
0
LINE
8
0
10
3.593
20
11.266
11
3.593
21
11.268
0
0
LINE
8
0
10
3.593
20
11.268
11
3.593
21
11.566
0
0
LINE
8
0
10
3.593
20
11.566
11
3.593
21
11.576
0
0
LINE
8
0
10
3.593
20
11.576
11
3.593
21
13.066
0
0
LINE
8
0
10
3.593
20
13.066
11
3.593
21
13.068
0
0
LINE
8
0
10
3.593
20
13.068
11
3.593
21
13.366
0
0
LINE
8
0
10
3.593
20
13.366
11
3.593
21
13.376
0
0
LINE
8
0
10
3.593
20
13.376
11
3.593
21
14.705
0
0
LINE
8
0
10
3.593
20
14.705
11
3.593
21
14.707
0
0
LINE
8
0
10
4.093
20
0.484
11
4.093
21
0.782
0
0
LINE
8
0
10
4.093
20
0.484
11
4.093
21
0.782
0
0
LINE
8
0
10
4.093
20
0.782
11
4.093
21
0.790
0
0
LINE
8
0
10
4.093
20
0.790
11
4.093
21
2.282
0
0
LINE
8
0
10
4.093
20
2.282
11
4.093
21
2.284
0
0
LINE
8
0
10
4.093
20
2.284
11
4.093
21
2.581
0
0
LINE
8
0
10
4.093
20
2.581
11
4.093
21
2.590
0
0
LINE
8
0
10
4.093
20
2.590
11
4.093
21
4.082
0
0
LINE
8
0
10
4.093
20
4.082
11
4.093
21
4.084
0
0
LINE
8
0
10
4.093
20
4.084
11
4.093
21
4.381
0
0
LINE
8
0
10
4.093
20
4.381
11
4.093
21
4.390
0
0
LINE
8
0
10
4.093
20
4.390
11
4.093
21
5.882
0
0
LINE
8
0
10
4.093
20
5.882
11
4.093
21
5.884
0
0
LINE
8
0
10
4.093
20
5.884
11
4.093
21
6.181
0
0
LINE
8
0
10
4.093
20
6.181
11
4.093
21
6.190
0
0
LINE
8
0
10
4.093
20
6.190
11
4.093
21
7.682
0
0
LINE
8
0
10
4.093
20
7.682
11
4.093
21
7.684
0
0
LINE
8
0
10
4.093
20
7.684
11
4.093
21
7.981
0
0
LINE
8
0
10
4.093
20
7.981
11
4.093
21
7.990
0
0
LINE
8
0
10
4.093
20
7.990
11
4.093
21
9.482
0
0
LINE
8
0
10
4.093
20
9.482
11
4.093
21
9.484
0
0
LINE
8
0
10
4.093
20
9.484
11
4.093
21
9.781
0
0
LINE
8
0
10
4.093
20
9.781
11
4.093
21
9.790
0
0
LINE
8
0
10
4.093
20
9.790
11
4.093
21
11.282
0
0
LINE
8
0
10
4.093
20
11.282
11
4.093
21
11.284
0
0
LINE
8
0
10
4.093
20
11.284
11
4.093
21
11.581
0
0
LINE
8
0
10
4.093
20
11.581
11
4.093
21
11.590
0
0
LINE
8
0
10
4.093
20
11.590
11
4.093
21
13.082
0
0
LINE
8
0
10
4.093
20
13.082
11
4.093
21
13.084
0
0
LINE
8
0
10
4.093
20
13.084
11
4.093
21
13.381
0
0
LINE
8
0
10
4.093
20
13.381
11
4.093
21
13.390
0
0
LINE
8
0
10
4.093
20
13.390
11
4.093
21
14.688
0
0
LINE
8
0
10
4.093
20
14.688
11
4.093
21
14.690
0
0
LINE
8
0
10
4.593
20
0.500
11
4.593
21
0.798
0
0
LINE
8
0
10
4.593
20
0.500
11
4.593
21
0.798
0
0
LINE
8
0
10
4.593
20
0.798
11
4.593
21
0.806
0
0
LINE
8
0
10
4.593
20
0.806
11
4.593
21
2.297
0
0
LINE
8
0
10
4.593
20
2.297
11
4.593
21
2.299
0
0
LINE
8
0
10
4.593
20
2.299
11
4.593
21
2.597
0
0
LINE
8
0
10
4.593
20
2.597
11
4.593
21
2.606
0
0
LINE
8
0
10
4.593
20
2.606
11
4.593
21
4.097
0
0
LINE
8
0
10
4.593
20
4.097
11
4.593
21
4.099
0
0
LINE
8
0
10
4.593
20
4.099
11
4.593
21
4.397
0
0
LINE
8
0
10
4.593
20
4.397
11
4.593
21
4.406
0
0
LINE
8
0
10
4.593
20
4.406
11
4.593
21
5.897
0
0
LINE
8
0
10
4.593
20
5.897
11
4.593
21
5.899
0
0
LINE
8
0
10
4.593
20
5.899
11
4.593
21
6.197
0
0
LINE
8
0
10
4.593
20
6.197
11
4.593
21
6.206
0
0
LINE
8
0
10
4.593
20
6.206
11
4.593
21
7.697
0
0
LINE
8
0
10
4.593
20
7.697
11
4.593
21
7.699
0
0
LINE
8
0
10
4.593
20
7.699
11
4.593
21
7.997
0
0
LINE
8
0
10
4.593
20
7.997
11
4.593
21
8.006
0
0
LINE
8
0
10
4.593
20
8.006
11
4.593
21
9.497
0
0
LINE
8
0
10
4.593
20
9.497
11
4.593
21
9.499
0
0
LINE
8
0
10
4.593
20
9.499
11
4.593
21
9.797
0
0
LINE
8
0
10
4.593
20
9.797
11
4.593
21
9.806
0
0
LINE
8
0
10
4.593
20
9.806
11
4.593
21
11.297
0
0
LINE
8
0
10
4.593
20
11.297
11
4.593
21
11.299
0
0
LINE
8
0
10
4.593
20
11.299
11
4.593
21
11.597
0
0
LINE
8
0
10
4.593
20
11.597
11
4.593
21
11.606
0
0
LINE
8
0
10
4.593
20
11.606
11
4.593
21
13.097
0
0
LINE
8
0
10
4.593
20
13.097
11
4.593
21
13.099
0
0
LINE
8
0
10
4.593
20
13.099
11
4.593
21
13.397
0
0
LINE
8
0
10
4.593
20
13.397
11
4.593
21
13.406
0
0
LINE
8
0
10
4.593
20
13.406
11
4.593
21
14.670
0
0
LINE
8
0
10
4.593
20
14.670
11
4.593
21
14.672
0
0
LINE
8
0
10
5.093
20
0.516
11
5.093
21
0.814
0
0
LINE
8
0
10
5.093
20
0.516
11
5.093
21
0.814
0
0
LINE
8
0
10
5.093
20
0.814
11
5.093
21
0.822
0
0
LINE
8
0
10
5.093
20
0.822
11
5.093
21
2.312
0
0
LINE
8
0
10
5.093
20
2.312
11
5.093
21
2.314
0
0
LINE
8
0
10
5.093
20
2.314
11
5.093
21
2.612
0
0
LINE
8
0
10
5.093
20
2.612
11
5.093
21
2.622
0
0
LINE
8
0
10
5.093
20
2.622
11
5.093
21
4.112
0
0
LINE
8
0
10
5.093
20
4.112
11
5.093
21
4.114
0
0
LINE
8
0
10
5.093
20
4.114
11
5.093
21
4.412
0
0
LINE
8
0
10
5.093
20
4.412
11
5.093
21
4.422
0
0
LINE
8
0
10
5.093
20
4.422
11
5.093
21
5.912
0
0
LINE
8
0
10
5.093
20
5.912
11
5.093
21
5.914
0
0
LINE
8
0
10
5.093
20
5.914
11
5.093
21
6.212
0
0
LINE
8
0
10
5.093
20
6.212
11
5.093
21
6.222
0
0
LINE
8
0
10
5.093
20
6.222
11
5.093
21
7.712
0
0
LINE
8
0
10
5.093
20
7.712
11
5.093
21
7.714
0
0
LINE
8
0
10
5.093
20
7.714
11
5.093
21
8.012
0
0
LINE
8
0
10
5.093
20
8.012
11
5.093
21
8.022
0
0
LINE
8
0
10
5.093
20
8.022
11
5.093
21
9.512
0
0
LINE
8
0
10
5.093
20
9.512
11
5.093
21
9.514
0
0
LINE
8
0
10
5.093
20
9.514
11
5.093
21
9.812
0
0
LINE
8
0
10
5.093
20
9.812
11
5.093
21
9.822
0
0
LINE
8
0
10
5.093
20
9.822
11
5.093
21
11.312
0
0
LINE
8
0
10
5.093
20
11.312
11
5.093
21
11.314
0
0
LINE
8
0
10
5.093
20
11.314
11
5.093
21
11.612
0
0
LINE
8
0
10
5.093
20
11.612
11
5.093
21
11.622
0
0
LINE
8
0
10
5.093
20
11.622
11
5.093
21
13.112
0
0
LINE
8
0
10
5.093
20
13.112
11
5.093
21
13.114
0
0
LINE
8
0
10
5.093
20
13.114
11
5.093
21
13.412
0
0
LINE
8
0
10
5.093
20
13.412
11
5.093
21
13.422
0
0
LINE
8
0
10
5.093
20
13.422
11
5.093
21
14.653
0
0
LINE
8
0
10
5.093
20
14.653
11
5.093
21
14.655
0
0
LINE
8
0
10
5.593
20
0.532
11
5.593
21
0.830
0
0
LINE
8
0
10
5.593
20
0.532
11
5.593
21
0.830
0
0
LINE
8
0
10
5.593
20
0.830
11
5.593
21
0.838
0
0
LINE
8
0
10
5.593
20
0.838
11
5.593
21
2.328
0
0
LINE
8
0
10
5.593
20
2.328
11
5.593
21
2.330
0
0
LINE
8
0
10
5.593
20
2.330
11
5.593
21
2.628
0
0
LINE
8
0
10
5.593
20
2.628
11
5.593
21
2.638
0
0
LINE
8
0
10
5.593
20
2.638
11
5.593
21
4.128
0
0
LINE
8
0
10
5.593
20
4.128
11
5.593
21
4.130
0
0
LINE
8
0
10
5.593
20
4.130
11
5.593
21
4.428
0
0
LINE
8
0
10
5.593
20
4.428
11
5.593
21
4.438
0
0
LINE
8
0
10
5.593
20
4.438
11
5.593
21
5.928
0
0
LINE
8
0
10
5.593
20
5.928
11
5.593
21
5.930
0
0
LINE
8
0
10
5.593
20
5.930
11
5.593
21
6.228
0
0
LINE
8
0
10
5.593
20
6.228
11
5.593
21
6.238
0
0
LINE
8
0
10
5.593
20
6.238
11
5.593
21
7.728
0
0
LINE
8
0
10
5.593
20
7.728
11
5.593
21
7.730
0
0
LINE
8
0
10
5.593
20
7.730
11
5.593
21
8.028
0
0
LINE
8
0
10
5.593
20
8.028
11
5.593
21
8.038
0
0
LINE
8
0
10
5.593
20
8.038
11
5.593
21
9.528
0
0
LINE
8
0
10
5.593
20
9.528
11
5.593
21
9.530
0
0
LINE
8
0
10
5.593
20
9.530
11
5.593
21
9.828
0
0
LINE
8
0
10
5.593
20
9.828
11
5.593
21
9.838
0
0
LINE
8
0
10
5.593
20
9.838
11
5.593
21
11.328
0
0
LINE
8
0
10
5.593
20
11.328
11
5.593
21
11.330
0
0
LINE
8
0
10
5.593
20
11.330
11
5.593
21
11.628
0
0
LINE
8
0
10
5.593
20
11.628
11
5.593
21
11.638
0
0
LINE
8
0
10
5.593
20
11.638
11
5.593
21
13.128
0
0
LINE
8
0
10
5.593
20
13.128
11
5.593
21
13.130
0
0
LINE
8
0
10
5.593
20
13.130
11
5.593
21
13.428
0
0
LINE
8
0
10
5.593
20
13.428
11
5.593
21
13.438
0
0
LINE
8
0
10
5.593
20
13.438
11
5.593
21
14.635
0
0
LINE
8
0
10
5.593
20
14.635
11
5.593
21
14.637
0
0
LINE
8
0
10
6.093
20
0.548
11
6.093
21
0.846
0
0
LINE
8
0
10
6.093
20
0.548
11
6.093
21
0.846
0
0
LINE
8
0
10
6.093
20
0.846
11
6.093
21
0.854
0
0
LINE
8
0
10
6.093
20
0.854
11
6.093
21
2.344
0
0
LINE
8
0
10
6.093
20
2.344
11
6.093
21
2.346
0
0
LINE
8
0
10
6.093
20
2.346
11
6.093
21
2.644
0
0
LINE
8
0
10
6.093
20
2.644
11
6.093
21
2.654
0
0
LINE
8
0
10
6.093
20
2.654
11
6.093
21
4.144
0
0
LINE
8
0
10
6.093
20
4.144
11
6.093
21
4.146
0
0
LINE
8
0
10
6.093
20
4.146
11
6.093
21
4.444
0
0
LINE
8
0
10
6.093
20
4.444
11
6.093
21
4.454
0
0
LINE
8
0
10
6.093
20
4.454
11
6.093
21
5.944
0
0
LINE
8
0
10
6.093
20
5.944
11
6.093
21
5.946
0
0
LINE
8
0
10
6.093
20
5.946
11
6.093
21
6.244
0
0
LINE
8
0
10
6.093
20
6.244
11
6.093
21
6.254
0
0
LINE
8
0
10
6.093
20
6.254
11
6.093
21
7.744
0
0
LINE
8
0
10
6.093
20
7.744
11
6.093
21
7.746
0
0
LINE
8
0
10
6.093
20
7.746
11
6.093
21
8.044
0
0
LINE
8
0
10
6.093
20
8.044
11
6.093
21
8.054
0
0
LINE
8
0
10
6.093
20
8.054
11
6.093
21
9.544
0
0
LINE
8
0
10
6.093
20
9.544
11
6.093
21
9.546
0
0
LINE
8
0
10
6.093
20
9.546
11
6.093
21
9.844
0
0
LINE
8
0
10
6.093
20
9.844
11
6.093
21
9.854
0
0
LINE
8
0
10
6.093
20
9.854
11
6.093
21
11.344
0
0
LINE
8
0
10
6.093
20
11.344
11
6.093
21
11.346
0
0
LINE
8
0
10
6.093
20
11.346
11
6.093
21
11.644
0
0
LINE
8
0
10
6.093
20
11.644
11
6.093
21
11.654
0
0
LINE
8
0
10
6.093
20
11.654
11
6.093
21
13.144
0
0
LINE
8
0
10
6.093
20
13.144
11
6.093
21
13.146
0
0
LINE
8
0
10
6.093
20
13.146
11
6.093
21
13.444
0
0
LINE
8
0
10
6.093
20
13.444
11
6.093
21
13.454
0
0
LINE
8
0
10
6.093
20
13.454
11
6.093
21
14.623
0
0
LINE
8
0
10
6.093
20
14.623
11
6.093
21
14.625
0
0
LINE
8
0
10
6.593
20
0.563
11
6.593
21
0.564
0
0
LINE
8
0
10
6.593
20
0.563
11
6.593
21
0.564
0
0
LINE
8
0
10
6.593
20
0.564
11
6.593
21
0.861
0
0
LINE
8
0
10
6.593
20
0.861
11
6.593
21
0.869
0
0
LINE
8
0
10
6.593
20
0.869
11
6.593
21
2.360
0
0
LINE
8
0
10
6.593
20
2.360
11
6.593
21
2.362
0
0
LINE
8
0
10
6.593
20
2.362
11
6.593
21
2.659
0
0
LINE
8
0
10
6.593
20
2.659
11
6.593
21
2.669
0
0
LINE
8
0
10
6.593
20
2.669
11
6.593
21
4.160
0
0
LINE
8
0
10
6.593
20
4.160
11
6.593
21
4.162
0
0
LINE
8
0
10
6.593
20
4.162
11
6.593
21
4.459
0
0
LINE
8
0
10
6.593
20
4.459
11
6.593
21
4.469
0
0
LINE
8
0
10
6.593
20
4.469
11
6.593
21
5.960
0
0
LINE
8
0
10
6.593
20
5.960
11
6.593
21
5.962
0
0
LINE
8
0
10
6.593
20
5.962
11
6.593
21
6.259
0
0
LINE
8
0
10
6.593
20
6.259
11
6.593
21
6.269
0
0
LINE
8
0
10
6.593
20
6.269
11
6.593
21
7.760
0
0
LINE
8
0
10
6.593
20
7.760
11
6.593
21
7.762
0
0
LINE
8
0
10
6.593
20
7.762
11
6.593
21
8.059
0
0
LINE
8
0
10
6.593
20
8.059
11
6.593
21
8.069
0
0
LINE
8
0
10
6.593
20
8.069
11
6.593
21
9.560
0
0
LINE
8
0
10
6.593
20
9.560
11
6.593
21
9.562
0
0
LINE
8
0
10
6.593
20
9.562
11
6.593
21
9.859
0
0
LINE
8
0
10
6.593
20
9.859
11
6.593
21
9.869
0
0
LINE
8
0
10
6.593
20
9.869
11
6.593
21
11.360
0
0
LINE
8
0
10
6.593
20
11.360
11
6.593
21
11.362
0
0
LINE
8
0
10
6.593
20
11.362
11
6.593
21
11.659
0
0
LINE
8
0
10
6.593
20
11.659
11
6.593
21
11.669
0
0
LINE
8
0
10
6.593
20
11.669
11
6.593
21
13.160
0
0
LINE
8
0
10
6.593
20
13.160
11
6.593
21
13.162
0
0
LINE
8
0
10
6.593
20
13.162
11
6.593
21
13.459
0
0
LINE
8
0
10
6.593
20
13.459
11
6.593
21
13.469
0
0
LINE
8
0
10
6.593
20
13.469
11
6.593
21
14.624
0
0
LINE
8
0
10
6.593
20
14.624
11
6.593
21
14.626
0
0
LINE
8
0
10
7.093
20
0.579
11
7.093
21
0.877
0
0
LINE
8
0
10
7.093
20
0.579
11
7.093
21
0.877
0
0
LINE
8
0
10
7.093
20
0.877
11
7.093
21
0.884
0
0
LINE
8
0
10
7.093
20
0.884
11
7.093
21
2.375
0
0
LINE
8
0
10
7.093
20
2.375
11
7.093
21
2.377
0
0
LINE
8
0
10
7.093
20
2.377
11
7.093
21
2.675
0
0
LINE
8
0
10
7.093
20
2.675
11
7.093
21
2.684
0
0
LINE
8
0
10
7.093
20
2.684
11
7.093
21
4.175
0
0
LINE
8
0
10
7.093
20
4.175
11
7.093
21
4.177
0
0
LINE
8
0
10
7.093
20
4.177
11
7.093
21
4.475
0
0
LINE
8
0
10
7.093
20
4.475
11
7.093
21
4.484
0
0
LINE
8
0
10
7.093
20
4.484
11
7.093
21
5.975
0
0
LINE
8
0
10
7.093
20
5.975
11
7.093
21
5.977
0
0
LINE
8
0
10
7.093
20
5.977
11
7.093
21
6.275
0
0
LINE
8
0
10
7.093
20
6.275
11
7.093
21
6.284
0
0
LINE
8
0
10
7.093
20
6.284
11
7.093
21
7.775
0
0
LINE
8
0
10
7.093
20
7.775
11
7.093
21
7.777
0
0
LINE
8
0
10
7.093
20
7.777
11
7.093
21
8.075
0
0
LINE
8
0
10
7.093
20
8.075
11
7.093
21
8.084
0
0
LINE
8
0
10
7.093
20
8.084
11
7.093
21
9.575
0
0
LINE
8
0
10
7.093
20
9.575
11
7.093
21
9.577
0
0
LINE
8
0
10
7.093
20
9.577
11
7.093
21
9.875
0
0
LINE
8
0
10
7.093
20
9.875
11
7.093
21
9.884
0
0
LINE
8
0
10
7.093
20
9.884
11
7.093
21
11.375
0
0
LINE
8
0
10
7.093
20
11.375
11
7.093
21
11.377
0
0
LINE
8
0
10
7.093
20
11.377
11
7.093
21
11.675
0
0
LINE
8
0
10
7.093
20
11.675
11
7.093
21
11.684
0
0
LINE
8
0
10
7.093
20
11.684
11
7.093
21
13.175
0
0
LINE
8
0
10
7.093
20
13.175
11
7.093
21
13.177
0
0
LINE
8
0
10
7.093
20
13.177
11
7.093
21
13.475
0
0
LINE
8
0
10
7.093
20
13.475
11
7.093
21
13.484
0
0
LINE
8
0
10
7.093
20
13.484
11
7.093
21
14.625
0
0
LINE
8
0
10
7.093
20
14.625
11
7.093
21
14.627
0
0
LINE
8
0
10
7.593
20
0.574
11
7.593
21
0.575
0
0
LINE
8
0
10
7.593
20
0.574
11
7.593
21
0.575
0
0
LINE
8
0
10
7.593
20
0.575
11
7.593
21
0.873
0
0
LINE
8
0
10
7.593
20
0.873
11
7.593
21
0.881
0
0
LINE
8
0
10
7.593
20
0.881
11
7.593
21
2.371
0
0
LINE
8
0
10
7.593
20
2.371
11
7.593
21
2.373
0
0
LINE
8
0
10
7.593
20
2.373
11
7.593
21
2.671
0
0
LINE
8
0
10
7.593
20
2.671
11
7.593
21
2.681
0
0
LINE
8
0
10
7.593
20
2.681
11
7.593
21
4.171
0
0
LINE
8
0
10
7.593
20
4.171
11
7.593
21
4.173
0
0
LINE
8
0
10
7.593
20
4.173
11
7.593
21
4.471
0
0
LINE
8
0
10
7.593
20
4.471
11
7.593
21
4.481
0
0
LINE
8
0
10
7.593
20
4.481
11
7.593
21
5.971
0
0
LINE
8
0
10
7.593
20
5.971
11
7.593
21
5.973
0
0
LINE
8
0
10
7.593
20
5.973
11
7.593
21
6.271
0
0
LINE
8
0
10
7.593
20
6.271
11
7.593
21
6.281
0
0
LINE
8
0
10
7.593
20
6.281
11
7.593
21
7.771
0
0
LINE
8
0
10
7.593
20
7.771
11
7.593
21
7.773
0
0
LINE
8
0
10
7.593
20
7.773
11
7.593
21
8.071
0
0
LINE
8
0
10
7.593
20
8.071
11
7.593
21
8.081
0
0
LINE
8
0
10
7.593
20
8.081
11
7.593
21
9.571
0
0
LINE
8
0
10
7.593
20
9.571
11
7.593
21
9.573
0
0
LINE
8
0
10
7.593
20
9.573
11
7.593
21
9.871
0
0
LINE
8
0
10
7.593
20
9.871
11
7.593
21
9.881
0
0
LINE
8
0
10
7.593
20
9.881
11
7.593
21
11.371
0
0
LINE
8
0
10
7.593
20
11.371
11
7.593
21
11.373
0
0
LINE
8
0
10
7.593
20
11.373
11
7.593
21
11.671
0
0
LINE
8
0
10
7.593
20
11.671
11
7.593
21
11.681
0
0
LINE
8
0
10
7.593
20
11.681
11
7.593
21
13.171
0
0
LINE
8
0
10
7.593
20
13.171
11
7.593
21
13.173
0
0
LINE
8
0
10
7.593
20
13.173
11
7.593
21
13.471
0
0
LINE
8
0
10
7.593
20
13.471
11
7.593
21
13.481
0
0
LINE
8
0
10
7.593
20
13.481
11
7.593
21
14.626
0
0
LINE
8
0
10
7.593
20
14.626
11
7.593
21
14.628
0
0
LINE
8
0
10
8.093
20
0.563
11
8.093
21
0.861
0
0
LINE
8
0
10
8.093
20
0.563
11
8.093
21
0.861
0
0
LINE
8
0
10
8.093
20
0.861
11
8.093
21
0.869
0
0
LINE
8
0
10
8.093
20
0.869
11
8.093
21
2.359
0
0
LINE
8
0
10
8.093
20
2.359
11
8.093
21
2.361
0
0
LINE
8
0
10
8.093
20
2.361
11
8.093
21
2.659
0
0
LINE
8
0
10
8.093
20
2.659
11
8.093
21
2.669
0
0
LINE
8
0
10
8.093
20
2.669
11
8.093
21
4.159
0
0
LINE
8
0
10
8.093
20
4.159
11
8.093
21
4.161
0
0
LINE
8
0
10
8.093
20
4.161
11
8.093
21
4.459
0
0
LINE
8
0
10
8.093
20
4.459
11
8.093
21
4.469
0
0
LINE
8
0
10
8.093
20
4.469
11
8.093
21
5.959
0
0
LINE
8
0
10
8.093
20
5.959
11
8.093
21
5.961
0
0
LINE
8
0
10
8.093
20
5.961
11
8.093
21
6.259
0
0
LINE
8
0
10
8.093
20
6.259
11
8.093
21
6.269
0
0
LINE
8
0
10
8.093
20
6.269
11
8.093
21
7.759
0
0
LINE
8
0
10
8.093
20
7.759
11
8.093
21
7.761
0
0
LINE
8
0
10
8.093
20
7.761
11
8.093
21
8.059
0
0
LINE
8
0
10
8.093
20
8.059
11
8.093
21
8.069
0
0
LINE
8
0
10
8.093
20
8.069
11
8.093
21
9.559
0
0
LINE
8
0
10
8.093
20
9.559
11
8.093
21
9.561
0
0
LINE
8
0
10
8.093
20
9.561
11
8.093
21
9.859
0
0
LINE
8
0
10
8.093
20
9.859
11
8.093
21
9.869
0
0
LINE
8
0
10
8.093
20
9.869
11
8.093
21
11.359
0
0
LINE
8
0
10
8.093
20
11.359
11
8.093
21
11.361
0
0
LINE
8
0
10
8.093
20
11.361
11
8.093
21
11.659
0
0
LINE
8
0
10
8.093
20
11.659
11
8.093
21
11.669
0
0
LINE
8
0
10
8.093
20
11.669
11
8.093
21
13.159
0
0
LINE
8
0
10
8.093
20
13.159
11
8.093
21
13.161
0
0
LINE
8
0
10
8.093
20
13.161
11
8.093
21
13.459
0
0
LINE
8
0
10
8.093
20
13.459
11
8.093
21
13.469
0
0
LINE
8
0
10
8.093
20
13.469
11
8.093
21
14.626
0
0
LINE
8
0
10
8.093
20
14.626
11
8.093
21
14.628
0
0
LINE
8
0
10
8.593
20
0.551
11
8.593
21
0.849
0
0
LINE
8
0
10
8.593
20
0.551
11
8.593
21
0.849
0
0
LINE
8
0
10
8.593
20
0.849
11
8.593
21
0.857
0
0
LINE
8
0
10
8.593
20
0.857
11
8.593
21
2.347
0
0
LINE
8
0
10
8.593
20
2.347
11
8.593
21
2.349
0
0
LINE
8
0
10
8.593
20
2.349
11
8.593
21
2.647
0
0
LINE
8
0
10
8.593
20
2.647
11
8.593
21
2.657
0
0
LINE
8
0
10
8.593
20
2.657
11
8.593
21
4.147
0
0
LINE
8
0
10
8.593
20
4.147
11
8.593
21
4.149
0
0
LINE
8
0
10
8.593
20
4.149
11
8.593
21
4.447
0
0
LINE
8
0
10
8.593
20
4.447
11
8.593
21
4.457
0
0
LINE
8
0
10
8.593
20
4.457
11
8.593
21
5.947
0
0
LINE
8
0
10
8.593
20
5.947
11
8.593
21
5.949
0
0
LINE
8
0
10
8.593
20
5.949
11
8.593
21
6.247
0
0
LINE
8
0
10
8.593
20
6.247
11
8.593
21
6.257
0
0
LINE
8
0
10
8.593
20
6.257
11
8.593
21
7.747
0
0
LINE
8
0
10
8.593
20
7.747
11
8.593
21
7.749
0
0
LINE
8
0
10
8.593
20
7.749
11
8.593
21
8.047
0
0
LINE
8
0
10
8.593
20
8.047
11
8.593
21
8.057
0
0
LINE
8
0
10
8.593
20
8.057
11
8.593
21
9.547
0
0
LINE
8
0
10
8.593
20
9.547
11
8.593
21
9.549
0
0
LINE
8
0
10
8.593
20
9.549
11
8.593
21
9.847
0
0
LINE
8
0
10
8.593
20
9.847
11
8.593
21
9.857
0
0
LINE
8
0
10
8.593
20
9.857
11
8.593
21
11.347
0
0
LINE
8
0
10
8.593
20
11.347
11
8.593
21
11.349
0
0
LINE
8
0
10
8.593
20
11.349
11
8.593
21
11.647
0
0
LINE
8
0
10
8.593
20
11.647
11
8.593
21
11.657
0
0
LINE
8
0
10
8.593
20
11.657
11
8.593
21
13.147
0
0
LINE
8
0
10
8.593
20
13.147
11
8.593
21
13.149
0
0
LINE
8
0
10
8.593
20
13.149
11
8.593
21
13.447
0
0
LINE
8
0
10
8.593
20
13.447
11
8.593
21
13.457
0
0
LINE
8
0
10
8.593
20
13.457
11
8.593
21
14.627
0
0
LINE
8
0
10
8.593
20
14.627
11
8.593
21
14.629
0
0
LINE
8
0
10
9.093
20
0.539
11
9.093
21
0.837
0
0
LINE
8
0
10
9.093
20
0.539
11
9.093
21
0.837
0
0
LINE
8
0
10
9.093
20
0.837
11
9.093
21
0.845
0
0
LINE
8
0
10
9.093
20
0.845
11
9.093
21
2.335
0
0
LINE
8
0
10
9.093
20
2.335
11
9.093
21
2.337
0
0
LINE
8
0
10
9.093
20
2.337
11
9.093
21
2.635
0
0
LINE
8
0
10
9.093
20
2.635
11
9.093
21
2.645
0
0
LINE
8
0
10
9.093
20
2.645
11
9.093
21
4.135
0
0
LINE
8
0
10
9.093
20
4.135
11
9.093
21
4.137
0
0
LINE
8
0
10
9.093
20
4.137
11
9.093
21
4.435
0
0
LINE
8
0
10
9.093
20
4.435
11
9.093
21
4.445
0
0
LINE
8
0
10
9.093
20
4.445
11
9.093
21
5.935
0
0
LINE
8
0
10
9.093
20
5.935
11
9.093
21
5.937
0
0
LINE
8
0
10
9.093
20
5.937
11
9.093
21
6.235
0
0
LINE
8
0
10
9.093
20
6.235
11
9.093
21
6.245
0
0
LINE
8
0
10
9.093
20
6.245
11
9.093
21
7.735
0
0
LINE
8
0
10
9.093
20
7.735
11
9.093
21
7.737
0
0
LINE
8
0
10
9.093
20
7.737
11
9.093
21
8.035
0
0
LINE
8
0
10
9.093
20
8.035
11
9.093
21
8.045
0
0
LINE
8
0
10
9.093
20
8.045
11
9.093
21
9.535
0
0
LINE
8
0
10
9.093
20
9.535
11
9.093
21
9.537
0
0
LINE
8
0
10
9.093
20
9.537
11
9.093
21
9.835
0
0
LINE
8
0
10
9.093
20
9.835
11
9.093
21
9.845
0
0
LINE
8
0
10
9.093
20
9.845
11
9.093
21
11.335
0
0
LINE
8
0
10
9.093
20
11.335
11
9.093
21
11.337
0
0
LINE
8
0
10
9.093
20
11.337
11
9.093
21
11.635
0
0
LINE
8
0
10
9.093
20
11.635
11
9.093
21
11.645
0
0
LINE
8
0
10
9.093
20
11.645
11
9.093
21
13.135
0
0
LINE
8
0
10
9.093
20
13.135
11
9.093
21
13.137
0
0
LINE
8
0
10
9.093
20
13.137
11
9.093
21
13.435
0
0
LINE
8
0
10
9.093
20
13.435
11
9.093
21
13.445
0
0
LINE
8
0
10
9.093
20
13.445
11
9.093
21
14.628
0
0
LINE
8
0
10
9.093
20
14.628
11
9.093
21
14.630
0
0
LINE
8
0
10
9.593
20
0.527
11
9.593
21
0.825
0
0
LINE
8
0
10
9.593
20
0.527
11
9.593
21
0.825
0
0
LINE
8
0
10
9.593
20
0.825
11
9.593
21
0.833
0
0
LINE
8
0
10
9.593
20
0.833
11
9.593
21
2.323
0
0
LINE
8
0
10
9.593
20
2.323
11
9.593
21
2.325
0
0
LINE
8
0
10
9.593
20
2.325
11
9.593
21
2.623
0
0
LINE
8
0
10
9.593
20
2.623
11
9.593
21
2.633
0
0
LINE
8
0
10
9.593
20
2.633
11
9.593
21
4.123
0
0
LINE
8
0
10
9.593
20
4.123
11
9.593
21
4.125
0
0
LINE
8
0
10
9.593
20
4.125
11
9.593
21
4.423
0
0
LINE
8
0
10
9.593
20
4.423
11
9.593
21
4.433
0
0
LINE
8
0
10
9.593
20
4.433
11
9.593
21
5.923
0
0
LINE
8
0
10
9.593
20
5.923
11
9.593
21
5.925
0
0
LINE
8
0
10
9.593
20
5.925
11
9.593
21
6.223
0
0
LINE
8
0
10
9.593
20
6.223
11
9.593
21
6.233
0
0
LINE
8
0
10
9.593
20
6.233
11
9.593
21
7.723
0
0
LINE
8
0
10
9.593
20
7.723
11
9.593
21
7.725
0
0
LINE
8
0
10
9.593
20
7.725
11
9.593
21
8.023
0
0
LINE
8
0
10
9.593
20
8.023
11
9.593
21
8.033
0
0
LINE
8
0
10
9.593
20
8.033
11
9.593
21
9.523
0
0
LINE
8
0
10
9.593
20
9.523
11
9.593
21
9.525
0
0
LINE
8
0
10
9.593
20
9.525
11
9.593
21
9.823
0
0
LINE
8
0
10
9.593
20
9.823
11
9.593
21
9.833
0
0
LINE
8
0
10
9.593
20
9.833
11
9.593
21
11.323
0
0
LINE
8
0
10
9.593
20
11.323
11
9.593
21
11.325
0
0
LINE
8
0
10
9.593
20
11.325
11
9.593
21
11.623
0
0
LINE
8
0
10
9.593
20
11.623
11
9.593
21
11.633
0
0
LINE
8
0
10
9.593
20
11.633
11
9.593
21
13.123
0
0
LINE
8
0
10
9.593
20
13.123
11
9.593
21
13.125
0
0
LINE
8
0
10
9.593
20
13.125
11
9.593
21
13.423
0
0
LINE
8
0
10
9.593
20
13.423
11
9.593
21
13.433
0
0
LINE
8
0
10
9.593
20
13.433
11
9.593
21
14.628
0
0
LINE
8
0
10
9.593
20
14.628
11
9.593
21
14.630
0
0
LINE
8
0
10
10.093
20
0.515
11
10.093
21
0.813
0
0
LINE
8
0
10
10.093
20
0.515
11
10.093
21
0.813
0
0
LINE
8
0
10
10.093
20
0.813
11
10.093
21
0.821
0
0
LINE
8
0
10
10.093
20
0.821
11
10.093
21
2.311
0
0
LINE
8
0
10
10.093
20
2.311
11
10.093
21
2.313
0
0
LINE
8
0
10
10.093
20
2.313
11
10.093
21
2.611
0
0
LINE
8
0
10
10.093
20
2.611
11
10.093
21
2.621
0
0
LINE
8
0
10
10.093
20
2.621
11
10.093
21
4.111
0
0
LINE
8
0
10
10.093
20
4.111
11
10.093
21
4.113
0
0
LINE
8
0
10
10.093
20
4.113
11
10.093
21
4.411
0
0
LINE
8
0
10
10.093
20
4.411
11
10.093
21
4.421
0
0
LINE
8
0
10
10.093
20
4.421
11
10.093
21
5.911
0
0
LINE
8
0
10
10.093
20
5.911
11
10.093
21
5.913
0
0
LINE
8
0
10
10.093
20
5.913
11
10.093
21
6.211
0
0
LINE
8
0
10
10.093
20
6.211
11
10.093
21
6.221
0
0
LINE
8
0
10
10.093
20
6.221
11
10.093
21
7.711
0
0
LINE
8
0
10
10.093
20
7.711
11
10.093
21
7.713
0
0
LINE
8
0
10
10.093
20
7.713
11
10.093
21
8.011
0
0
LINE
8
0
10
10.093
20
8.011
11
10.093
21
8.021
0
0
LINE
8
0
10
10.093
20
8.021
11
10.093
21
9.511
0
0
LINE
8
0
10
10.093
20
9.511
11
10.093
21
9.513
0
0
LINE
8
0
10
10.093
20
9.513
11
10.093
21
9.811
0
0
LINE
8
0
10
10.093
20
9.811
11
10.093
21
9.821
0
0
LINE
8
0
10
10.093
20
9.821
11
10.093
21
11.311
0
0
LINE
8
0
10
10.093
20
11.311
11
10.093
21
11.313
0
0
LINE
8
0
10
10.093
20
11.313
11
10.093
21
11.611
0
0
LINE
8
0
10
10.093
20
11.611
11
10.093
21
11.621
0
0
LINE
8
0
10
10.093
20
11.621
11
10.093
21
13.111
0
0
LINE
8
0
10
10.093
20
13.111
11
10.093
21
13.113
0
0
LINE
8
0
10
10.093
20
13.113
11
10.093
21
13.411
0
0
LINE
8
0
10
10.093
20
13.411
11
10.093
21
13.421
0
0
LINE
8
0
10
10.093
20
13.421
11
10.093
21
14.629
0
0
LINE
8
0
10
10.093
20
14.629
11
10.093
21
14.631
0
0
LINE
8
0
10
10.593
20
0.503
11
10.593
21
0.801
0
0
LINE
8
0
10
10.593
20
0.503
11
10.593
21
0.801
0
0
LINE
8
0
10
10.593
20
0.801
11
10.593
21
0.809
0
0
LINE
8
0
10
10.593
20
0.809
11
10.593
21
2.299
0
0
LINE
8
0
10
10.593
20
2.299
11
10.593
21
2.301
0
0
LINE
8
0
10
10.593
20
2.301
11
10.593
21
2.599
0
0
LINE
8
0
10
10.593
20
2.599
11
10.593
21
2.609
0
0
LINE
8
0
10
10.593
20
2.609
11
10.593
21
4.099
0
0
LINE
8
0
10
10.593
20
4.099
11
10.593
21
4.101
0
0
LINE
8
0
10
10.593
20
4.101
11
10.593
21
4.399
0
0
LINE
8
0
10
10.593
20
4.399
11
10.593
21
4.409
0
0
LINE
8
0
10
10.593
20
4.409
11
10.593
21
5.899
0
0
LINE
8
0
10
10.593
20
5.899
11
10.593
21
5.901
0
0
LINE
8
0
10
10.593
20
5.901
11
10.593
21
6.199
0
0
LINE
8
0
10
10.593
20
6.199
11
10.593
21
6.209
0
0
LINE
8
0
10
10.593
20
6.209
11
10.593
21
7.699
0
0
LINE
8
0
10
10.593
20
7.699
11
10.593
21
7.701
0
0
LINE
8
0
10
10.593
20
7.701
11
10.593
21
7.999
0
0
LINE
8
0
10
10.593
20
7.999
11
10.593
21
8.009
0
0
LINE
8
0
10
10.593
20
8.009
11
10.593
21
9.499
0
0
LINE
8
0
10
10.593
20
9.499
11
10.593
21
9.501
0
0
LINE
8
0
10
10.593
20
9.501
11
10.593
21
9.799
0
0
LINE
8
0
10
10.593
20
9.799
11
10.593
21
9.809
0
0
LINE
8
0
10
10.593
20
9.809
11
10.593
21
11.299
0
0
LINE
8
0
10
10.593
20
11.299
11
10.593
21
11.301
0
0
LINE
8
0
10
10.593
20
11.301
11
10.593
21
11.599
0
0
LINE
8
0
10
10.593
20
11.599
11
10.593
21
11.609
0
0
LINE
8
0
10
10.593
20
11.609
11
10.593
21
13.099
0
0
LINE
8
0
10
10.593
20
13.099
11
10.593
21
13.101
0
0
LINE
8
0
10
10.593
20
13.101
11
10.593
21
13.399
0
0
LINE
8
0
10
10.593
20
13.399
11
10.593
21
13.409
0
0
LINE
8
0
10
10.593
20
13.409
11
10.593
21
14.630
0
0
LINE
8
0
10
10.593
20
14.630
11
10.593
21
14.632
0
0
LINE
8
0
10
11.093
20
0.491
11
11.093
21
0.789
0
0
LINE
8
0
10
11.093
20
0.491
11
11.093
21
0.789
0
0
LINE
8
0
10
11.093
20
0.789
11
11.093
21
0.797
0
0
LINE
8
0
10
11.093
20
0.797
11
11.093
21
2.287
0
0
LINE
8
0
10
11.093
20
2.287
11
11.093
21
2.289
0
0
LINE
8
0
10
11.093
20
2.289
11
11.093
21
2.587
0
0
LINE
8
0
10
11.093
20
2.587
11
11.093
21
2.597
0
0
LINE
8
0
10
11.093
20
2.597
11
11.093
21
4.087
0
0
LINE
8
0
10
11.093
20
4.087
11
11.093
21
4.089
0
0
LINE
8
0
10
11.093
20
4.089
11
11.093
21
4.387
0
0
LINE
8
0
10
11.093
20
4.387
11
11.093
21
4.397
0
0
LINE
8
0
10
11.093
20
4.397
11
11.093
21
5.887
0
0
LINE
8
0
10
11.093
20
5.887
11
11.093
21
5.889
0
0
LINE
8
0
10
11.093
20
5.889
11
11.093
21
6.187
0
0
LINE
8
0
10
11.093
20
6.187
11
11.093
21
6.197
0
0
LINE
8
0
10
11.093
20
6.197
11
11.093
21
7.687
0
0
LINE
8
0
10
11.093
20
7.687
11
11.093
21
7.689
0
0
LINE
8
0
10
11.093
20
7.689
11
11.093
21
7.987
0
0
LINE
8
0
10
11.093
20
7.987
11
11.093
21
7.997
0
0
LINE
8
0
10
11.093
20
7.997
11
11.093
21
9.487
0
0
LINE
8
0
10
11.093
20
9.487
11
11.093
21
9.489
0
0
LINE
8
0
10
11.093
20
9.489
11
11.093
21
9.787
0
0
LINE
8
0
10
11.093
20
9.787
11
11.093
21
9.797
0
0
LINE
8
0
10
11.093
20
9.797
11
11.093
21
11.287
0
0
LINE
8
0
10
11.093
20
11.287
11
11.093
21
11.289
0
0
LINE
8
0
10
11.093
20
11.289
11
11.093
21
11.587
0
0
LINE
8
0
10
11.093
20
11.587
11
11.093
21
11.597
0
0
LINE
8
0
10
11.093
20
11.597
11
11.093
21
13.087
0
0
LINE
8
0
10
11.093
20
13.087
11
11.093
21
13.089
0
0
LINE
8
0
10
11.093
20
13.089
11
11.093
21
13.387
0
0
LINE
8
0
10
11.093
20
13.387
11
11.093
21
13.397
0
0
LINE
8
0
10
11.093
20
13.397
11
11.093
21
14.631
0
0
LINE
8
0
10
11.093
20
14.631
11
11.093
21
14.633
0
0
LINE
8
0
10
11.593
20
0.479
11
11.593
21
0.777
0
0
LINE
8
0
10
11.593
20
0.479
11
11.593
21
0.777
0
0
LINE
8
0
10
11.593
20
0.777
11
11.593
21
0.785
0
0
LINE
8
0
10
11.593
20
0.785
11
11.593
21
2.275
0
0
LINE
8
0
10
11.593
20
2.275
11
11.593
21
2.277
0
0
LINE
8
0
10
11.593
20
2.277
11
11.593
21
2.575
0
0
LINE
8
0
10
11.593
20
2.575
11
11.593
21
2.585
0
0
LINE
8
0
10
11.593
20
2.585
11
11.593
21
4.075
0
0
LINE
8
0
10
11.593
20
4.075
11
11.593
21
4.077
0
0
LINE
8
0
10
11.593
20
4.077
11
11.593
21
4.375
0
0
LINE
8
0
10
11.593
20
4.375
11
11.593
21
4.385
0
0
LINE
8
0
10
11.593
20
4.385
11
11.593
21
5.875
0
0
LINE
8
0
10
11.593
20
5.875
11
11.593
21
5.877
0
0
LINE
8
0
10
11.593
20
5.877
11
11.593
21
6.175
0
0
LINE
8
0
10
11.593
20
6.175
11
11.593
21
6.185
0
0
LINE
8
0
10
11.593
20
6.185
11
11.593
21
7.675
0
0
LINE
8
0
10
11.593
20
7.675
11
11.593
21
7.677
0
0
LINE
8
0
10
11.593
20
7.677
11
11.593
21
7.975
0
0
LINE
8
0
10
11.593
20
7.975
11
11.593
21
7.985
0
0
LINE
8
0
10
11.593
20
7.985
11
11.593
21
9.475
0
0
LINE
8
0
10
11.593
20
9.475
11
11.593
21
9.477
0
0
LINE
8
0
10
11.593
20
9.477
11
11.593
21
9.775
0
0
LINE
8
0
10
11.593
20
9.775
11
11.593
21
9.785
0
0
LINE
8
0
10
11.593
20
9.785
11
11.593
21
11.275
0
0
LINE
8
0
10
11.593
20
11.275
11
11.593
21
11.277
0
0
LINE
8
0
10
11.593
20
11.277
11
11.593
21
11.575
0
0
LINE
8
0
10
11.593
20
11.575
11
11.593
21
11.585
0
0
LINE
8
0
10
11.593
20
11.585
11
11.593
21
13.075
0
0
LINE
8
0
10
11.593
20
13.075
11
11.593
21
13.077
0
0
LINE
8
0
10
11.593
20
13.077
11
11.593
21
13.375
0
0
LINE
8
0
10
11.593
20
13.375
11
11.593
21
13.385
0
0
LINE
8
0
10
11.593
20
13.385
11
11.593
21
14.631
0
0
LINE
8
0
10
11.593
20
14.631
11
11.593
21
14.633
0
0
LINE
8
0
10
12.093
20
0.467
11
12.093
21
0.765
0
0
LINE
8
0
10
12.093
20
0.467
11
12.093
21
0.765
0
0
LINE
8
0
10
12.093
20
0.765
11
12.093
21
0.773
0
0
LINE
8
0
10
12.093
20
0.773
11
12.093
21
2.264
0
0
LINE
8
0
10
12.093
20
2.264
11
12.093
21
2.265
0
0
LINE
8
0
10
12.093
20
2.265
11
12.093
21
2.564
0
0
LINE
8
0
10
12.093
20
2.564
11
12.093
21
2.573
0
0
LINE
8
0
10
12.093
20
2.573
11
12.093
21
4.064
0
0
LINE
8
0
10
12.093
20
4.064
11
12.093
21
4.065
0
0
LINE
8
0
10
12.093
20
4.065
11
12.093
21
4.364
0
0
LINE
8
0
10
12.093
20
4.364
11
12.093
21
4.373
0
0
LINE
8
0
10
12.093
20
4.373
11
12.093
21
5.864
0
0
LINE
8
0
10
12.093
20
5.864
11
12.093
21
5.865
0
0
LINE
8
0
10
12.093
20
5.865
11
12.093
21
6.164
0
0
LINE
8
0
10
12.093
20
6.164
11
12.093
21
6.173
0
0
LINE
8
0
10
12.093
20
6.173
11
12.093
21
7.664
0
0
LINE
8
0
10
12.093
20
7.664
11
12.093
21
7.665
0
0
LINE
8
0
10
12.093
20
7.665
11
12.093
21
7.964
0
0
LINE
8
0
10
12.093
20
7.964
11
12.093
21
7.973
0
0
LINE
8
0
10
12.093
20
7.973
11
12.093
21
9.464
0
0
LINE
8
0
10
12.093
20
9.464
11
12.093
21
9.465
0
0
LINE
8
0
10
12.093
20
9.465
11
12.093
21
9.764
0
0
LINE
8
0
10
12.093
20
9.764
11
12.093
21
9.773
0
0
LINE
8
0
10
12.093
20
9.773
11
12.093
21
11.264
0
0
LINE
8
0
10
12.093
20
11.264
11
12.093
21
11.265
0
0
LINE
8
0
10
12.093
20
11.265
11
12.093
21
11.564
0
0
LINE
8
0
10
12.093
20
11.564
11
12.093
21
11.573
0
0
LINE
8
0
10
12.093
20
11.573
11
12.093
21
13.064
0
0
LINE
8
0
10
12.093
20
13.064
11
12.093
21
13.065
0
0
LINE
8
0
10
12.093
20
13.065
11
12.093
21
13.364
0
0
LINE
8
0
10
12.093
20
13.364
11
12.093
21
13.373
0
0
LINE
8
0
10
12.093
20
13.373
11
12.093
21
14.632
0
0
LINE
8
0
10
12.093
20
14.632
11
12.093
21
14.634
0
0
LINE
8
0
10
12.593
20
0.455
11
12.593
21
0.753
0
0
LINE
8
0
10
12.593
20
0.455
11
12.593
21
0.753
0
0
LINE
8
0
10
12.593
20
0.753
11
12.593
21
0.761
0
0
LINE
8
0
10
12.593
20
0.761
11
12.593
21
2.252
0
0
LINE
8
0
10
12.593
20
2.252
11
12.593
21
2.254
0
0
LINE
8
0
10
12.593
20
2.254
11
12.593
21
2.552
0
0
LINE
8
0
10
12.593
20
2.552
11
12.593
21
2.561
0
0
LINE
8
0
10
12.593
20
2.561
11
12.593
21
4.052
0
0
LINE
8
0
10
12.593
20
4.052
11
12.593
21
4.054
0
0
LINE
8
0
10
12.593
20
4.054
11
12.593
21
4.352
0
0
LINE
8
0
10
12.593
20
4.352
11
12.593
21
4.361
0
0
LINE
8
0
10
12.593
20
4.361
11
12.593
21
5.852
0
0
LINE
8
0
10
12.593
20
5.852
11
12.593
21
5.854
0
0
LINE
8
0
10
12.593
20
5.854
11
12.593
21
6.152
0
0
LINE
8
0
10
12.593
20
6.152
11
12.593
21
6.161
0
0
LINE
8
0
10
12.593
20
6.161
11
12.593
21
7.652
0
0
LINE
8
0
10
12.593
20
7.652
11
12.593
21
7.654
0
0
LINE
8
0
10
12.593
20
7.654
11
12.593
21
7.952
0
0
LINE
8
0
10
12.593
20
7.952
11
12.593
21
7.961
0
0
LINE
8
0
10
12.593
20
7.961
11
12.593
21
9.452
0
0
LINE
8
0
10
12.593
20
9.452
11
12.593
21
9.454
0
0
LINE
8
0
10
12.593
20
9.454
11
12.593
21
9.752
0
0
LINE
8
0
10
12.593
20
9.752
11
12.593
21
9.761
0
0
LINE
8
0
10
12.593
20
9.761
11
12.593
21
11.252
0
0
LINE
8
0
10
12.593
20
11.252
11
12.593
21
11.254
0
0
LINE
8
0
10
12.593
20
11.254
11
12.593
21
11.552
0
0
LINE
8
0
10
12.593
20
11.552
11
12.593
21
11.561
0
0
LINE
8
0
10
12.593
20
11.561
11
12.593
21
13.052
0
0
LINE
8
0
10
12.593
20
13.052
11
12.593
21
13.054
0
0
LINE
8
0
10
12.593
20
13.054
11
12.593
21
13.352
0
0
LINE
8
0
10
12.593
20
13.352
11
12.593
21
13.361
0
0
LINE
8
0
10
12.593
20
13.361
11
12.593
21
14.633
0
0
LINE
8
0
10
12.593
20
14.633
11
12.593
21
14.635
0
0
LINE
8
0
10
13.093
20
0.455
11
13.093
21
0.753
0
0
LINE
8
0
10
13.093
20
0.455
11
13.093
21
0.753
0
0
LINE
8
0
10
13.093
20
0.753
11
13.093
21
0.761
0
0
LINE
8
0
10
13.093
20
0.761
11
13.093
21
2.252
0
0
LINE
8
0
10
13.093
20
2.252
11
13.093
21
2.254
0
0
LINE
8
0
10
13.093
20
2.254
11
13.093
21
2.552
0
0
LINE
8
0
10
13.093
20
2.552
11
13.093
21
2.561
0
0
LINE
8
0
10
13.093
20
2.561
11
13.093
21
4.052
0
0
LINE
8
0
10
13.093
20
4.052
11
13.093
21
4.054
0
0
LINE
8
0
10
13.093
20
4.054
11
13.093
21
4.352
0
0
LINE
8
0
10
13.093
20
4.352
11
13.093
21
4.361
0
0
LINE
8
0
10
13.093
20
4.361
11
13.093
21
5.852
0
0
LINE
8
0
10
13.093
20
5.852
11
13.093
21
5.854
0
0
LINE
8
0
10
13.093
20
5.854
11
13.093
21
6.152
0
0
LINE
8
0
10
13.093
20
6.152
11
13.093
21
6.161
0
0
LINE
8
0
10
13.093
20
6.161
11
13.093
21
7.652
0
0
LINE
8
0
10
13.093
20
7.652
11
13.093
21
7.654
0
0
LINE
8
0
10
13.093
20
7.654
11
13.093
21
7.952
0
0
LINE
8
0
10
13.093
20
7.952
11
13.093
21
7.961
0
0
LINE
8
0
10
13.093
20
7.961
11
13.093
21
9.452
0
0
LINE
8
0
10
13.093
20
9.452
11
13.093
21
9.454
0
0
LINE
8
0
10
13.093
20
9.454
11
13.093
21
9.752
0
0
LINE
8
0
10
13.093
20
9.752
11
13.093
21
9.761
0
0
LINE
8
0
10
13.093
20
9.761
11
13.093
21
11.252
0
0
LINE
8
0
10
13.093
20
11.252
11
13.093
21
11.254
0
0
LINE
8
0
10
13.093
20
11.254
11
13.093
21
11.552
0
0
LINE
8
0
10
13.093
20
11.552
11
13.093
21
11.561
0
0
LINE
8
0
10
13.093
20
11.561
11
13.093
21
13.052
0
0
LINE
8
0
10
13.093
20
13.052
11
13.093
21
13.054
0
0
LINE
8
0
10
13.093
20
13.054
11
13.093
21
13.352
0
0
LINE
8
0
10
13.093
20
13.352
11
13.093
21
13.361
0
0
LINE
8
0
10
13.093
20
13.361
11
13.093
21
14.634
0
0
LINE
8
0
10
13.093
20
14.634
11
13.093
21
14.636
0
0
LINE
8
0
10
13.593
20
0.523
11
13.593
21
0.821
0
0
LINE
8
0
10
13.593
20
0.523
11
13.593
21
0.821
0
0
LINE
8
0
10
13.593
20
0.821
11
13.593
21
0.829
0
0
LINE
8
0
10
13.593
20
0.829
11
13.593
21
2.319
0
0
LINE
8
0
10
13.593
20
2.319
11
13.593
21
2.321
0
0
LINE
8
0
10
13.593
20
2.321
11
13.593
21
2.619
0
0
LINE
8
0
10
13.593
20
2.619
11
13.593
21
2.629
0
0
LINE
8
0
10
13.593
20
2.629
11
13.593
21
4.119
0
0
LINE
8
0
10
13.593
20
4.119
11
13.593
21
4.121
0
0
LINE
8
0
10
13.593
20
4.121
11
13.593
21
4.419
0
0
LINE
8
0
10
13.593
20
4.419
11
13.593
21
4.429
0
0
LINE
8
0
10
13.593
20
4.429
11
13.593
21
5.919
0
0
LINE
8
0
10
13.593
20
5.919
11
13.593
21
5.921
0
0
LINE
8
0
10
13.593
20
5.921
11
13.593
21
6.219
0
0
LINE
8
0
10
13.593
20
6.219
11
13.593
21
6.229
0
0
LINE
8
0
10
13.593
20
6.229
11
13.593
21
7.719
0
0
LINE
8
0
10
13.593
20
7.719
11
13.593
21
7.721
0
0
LINE
8
0
10
13.593
20
7.721
11
13.593
21
8.019
0
0
LINE
8
0
10
13.593
20
8.019
11
13.593
21
8.029
0
0
LINE
8
0
10
13.593
20
8.029
11
13.593
21
9.519
0
0
LINE
8
0
10
13.593
20
9.519
11
13.593
21
9.521
0
0
LINE
8
0
10
13.593
20
9.521
11
13.593
21
9.819
0
0
LINE
8
0
10
13.593
20
9.819
11
13.593
21
9.829
0
0
LINE
8
0
10
13.593
20
9.829
11
13.593
21
11.319
0
0
LINE
8
0
10
13.593
20
11.319
11
13.593
21
11.321
0
0
LINE
8
0
10
13.593
20
11.321
11
13.593
21
11.619
0
0
LINE
8
0
10
13.593
20
11.619
11
13.593
21
11.629
0
0
LINE
8
0
10
13.593
20
11.629
11
13.593
21
13.119
0
0
LINE
8
0
10
13.593
20
13.119
11
13.593
21
13.121
0
0
LINE
8
0
10
13.593
20
13.121
11
13.593
21
13.419
0
0
LINE
8
0
10
13.593
20
13.419
11
13.593
21
13.429
0
0
LINE
8
0
10
13.593
20
13.429
11
13.593
21
14.634
0
0
LINE
8
0
10
13.593
20
14.634
11
13.593
21
14.636
0
0
LINE
8
0
10
14.093
20
0.654
11
14.093
21
0.952
0
0
LINE
8
0
10
14.093
20
0.654
11
14.093
21
0.952
0
0
LINE
8
0
10
14.093
20
0.952
11
14.093
21
0.959
0
0
LINE
8
0
10
14.093
20
0.959
11
14.093
21
2.449
0
0
LINE
8
0
10
14.093
20
2.449
11
14.093
21
2.451
0
0
LINE
8
0
10
14.093
20
2.451
11
14.093
21
2.749
0
0
LINE
8
0
10
14.093
20
2.749
11
14.093
21
2.759
0
0
LINE
8
0
10
14.093
20
2.759
11
14.093
21
4.249
0
0
LINE
8
0
10
14.093
20
4.249
11
14.093
21
4.251
0
0
LINE
8
0
10
14.093
20
4.251
11
14.093
21
4.549
0
0
LINE
8
0
10
14.093
20
4.549
11
14.093
21
4.559
0
0
LINE
8
0
10
14.093
20
4.559
11
14.093
21
6.049
0
0
LINE
8
0
10
14.093
20
6.049
11
14.093
21
6.051
0
0
LINE
8
0
10
14.093
20
6.051
11
14.093
21
6.349
0
0
LINE
8
0
10
14.093
20
6.349
11
14.093
21
6.359
0
0
LINE
8
0
10
14.093
20
6.359
11
14.093
21
7.849
0
0
LINE
8
0
10
14.093
20
7.849
11
14.093
21
7.851
0
0
LINE
8
0
10
14.093
20
7.851
11
14.093
21
8.149
0
0
LINE
8
0
10
14.093
20
8.149
11
14.093
21
8.159
0
0
LINE
8
0
10
14.093
20
8.159
11
14.093
21
9.649
0
0
LINE
8
0
10
14.093
20
9.649
11
14.093
21
9.651
0
0
LINE
8
0
10
14.093
20
9.651
11
14.093
21
9.949
0
0
LINE
8
0
10
14.093
20
9.949
11
14.093
21
9.959
0
0
LINE
8
0
10
14.093
20
9.959
11
14.093
21
11.449
0
0
LINE
8
0
10
14.093
20
11.449
11
14.093
21
11.451
0
0
LINE
8
0
10
14.093
20
11.451
11
14.093
21
11.749
0
0
LINE
8
0
10
14.093
20
11.749
11
14.093
21
11.759
0
0
LINE
8
0
10
14.093
20
11.759
11
14.093
21
13.249
0
0
LINE
8
0
10
14.093
20
13.249
11
14.093
21
13.251
0
0
LINE
8
0
10
14.093
20
13.251
11
14.093
21
13.549
0
0
LINE
8
0
10
14.093
20
13.549
11
14.093
21
13.559
0
0
LINE
8
0
10
14.093
20
13.559
11
14.093
21
14.635
0
0
LINE
8
0
10
14.093
20
14.635
11
14.093
21
14.637
0
0
LINE
8
0
10
14.593
20
1.226
11
14.593
21
1.524
0
0
LINE
8
0
10
14.593
20
1.226
11
14.593
21
1.524
0
0
LINE
8
0
10
14.593
20
1.524
11
14.593
21
1.527
0
0
LINE
8
0
10
14.593
20
1.527
11
14.593
21
1.529
0
0
LINE
8
0
10
14.593
20
1.529
11
14.593
21
3.021
0
0
LINE
8
0
10
14.593
20
3.021
11
14.593
21
3.030
0
0
LINE
8
0
10
14.593
20
3.030
11
14.593
21
3.327
0
0
LINE
8
0
10
14.593
20
3.327
11
14.593
21
3.329
0
0
LINE
8
0
10
14.593
20
3.329
11
14.593
21
4.821
0
0
LINE
8
0
10
14.593
20
4.821
11
14.593
21
4.830
0
0
LINE
8
0
10
14.593
20
4.830
11
14.593
21
5.127
0
0
LINE
8
0
10
14.593
20
5.127
11
14.593
21
5.129
0
0
LINE
8
0
10
14.593
20
5.129
11
14.593
21
6.621
0
0
LINE
8
0
10
14.593
20
6.621
11
14.593
21
6.630
0
0
LINE
8
0
10
14.593
20
6.630
11
14.593
21
6.927
0
0
LINE
8
0
10
14.593
20
6.927
11
14.593
21
6.929
0
0
LINE
8
0
10
14.593
20
6.929
11
14.593
21
8.421
0
0
LINE
8
0
10
14.593
20
8.421
11
14.593
21
8.430
0
0
LINE
8
0
10
14.593
20
8.430
11
14.593
21
8.727
0
0
LINE
8
0
10
14.593
20
8.727
11
14.593
21
8.729
0
0
LINE
8
0
10
14.593
20
8.729
11
14.593
21
10.221
0
0
LINE
8
0
10
14.593
20
10.221
11
14.593
21
10.230
0
0
LINE
8
0
10
14.593
20
10.230
11
14.593
21
10.527
0
0
LINE
8
0
10
14.593
20
10.527
11
14.593
21
10.529
0
0
LINE
8
0
10
14.593
20
10.529
11
14.593
21
12.021
0
0
LINE
8
0
10
14.593
20
12.021
11
14.593
21
12.030
0
0
LINE
8
0
10
14.593
20
12.030
11
14.593
21
12.327
0
0
LINE
8
0
10
14.593
20
12.327
11
14.593
21
12.329
0
0
LINE
8
0
10
14.593
20
12.329
11
14.593
21
13.821
0
0
LINE
8
0
10
14.593
20
13.821
11
14.593
21
13.830
0
0
LINE
8
0
10
14.593
20
13.830
11
14.593
21
14.127
0
0
LINE
8
0
10
14.593
20
14.127
11
14.593
21
14.636
0
0
LINE
8
0
10
14.593
20
14.636
11
14.593
21
14.638
0
0
LINE
8
0
10
1.234
20
0.592
11
1.330
21
0.592
0
0
LINE
8
0
10
1.234
20
0.592
11
1.330
21
0.592
0
0
LINE
8
0
10
1.330
20
0.592
11
1.332
21
0.592
0
0
LINE
8
0
10
1.332
20
0.592
11
2.823
21
0.592
0
0
LINE
8
0
10
2.823
20
0.592
11
2.832
21
0.592
0
0
LINE
8
0
10
2.832
20
0.592
11
3.130
21
0.592
0
0
LINE
8
0
10
3.130
20
0.592
11
3.132
21
0.592
0
0
LINE
8
0
10
3.132
20
0.592
11
4.623
21
0.592
0
0
LINE
8
0
10
4.623
20
0.592
11
4.632
21
0.592
0
0
LINE
8
0
10
4.632
20
0.592
11
4.930
21
0.592
0
0
LINE
8
0
10
4.930
20
0.592
11
4.932
21
0.592
0
0
LINE
8
0
10
4.932
20
0.592
11
6.423
21
0.592
0
0
LINE
8
0
10
6.423
20
0.592
11
6.432
21
0.592
0
0
LINE
8
0
10
6.432
20
0.592
11
6.730
21
0.592
0
0
LINE
8
0
10
6.730
20
0.592
11
6.732
21
0.592
0
0
LINE
8
0
10
6.732
20
0.592
11
6.734
21
0.592
0
0
LINE
8
0
10
6.734
20
0.592
11
6.736
21
0.592
0
0
LINE
8
0
10
6.736
20
0.592
11
8.226
21
0.592
0
0
LINE
8
0
10
8.226
20
0.592
11
8.236
21
0.592
0
0
LINE
8
0
10
8.236
20
0.592
11
8.534
21
0.592
0
0
LINE
8
0
10
8.534
20
0.592
11
8.536
21
0.592
0
0
LINE
8
0
10
8.536
20
0.592
11
10.026
21
0.592
0
0
LINE
8
0
10
10.026
20
0.592
11
10.036
21
0.592
0
0
LINE
8
0
10
10.036
20
0.592
11
10.334
21
0.592
0
0
LINE
8
0
10
10.334
20
0.592
11
10.336
21
0.592
0
0
LINE
8
0
10
10.336
20
0.592
11
11.826
21
0.592
0
0
LINE
8
0
10
11.826
20
0.592
11
11.836
21
0.592
0
0
LINE
8
0
10
11.836
20
0.592
11
12.134
21
0.592
0
0
LINE
8
0
10
12.134
20
0.592
11
12.136
21
0.592
0
0
LINE
8
0
10
12.136
20
0.592
11
13.626
21
0.592
0
0
LINE
8
0
10
13.626
20
0.592
11
13.633
21
0.592
0
0
LINE
8
0
10
13.633
20
0.592
11
13.931
21
0.592
0
0
LINE
8
0
10
0.651
20
1.092
11
0.653
21
1.092
0
0
LINE
8
0
10
0.651
20
1.092
11
0.653
21
1.092
0
0
LINE
8
0
10
0.653
20
1.092
11
1.633
21
1.092
0
0
LINE
8
0
10
1.633
20
1.092
11
1.642
21
1.092
0
0
LINE
8
0
10
1.642
20
1.092
11
1.940
21
1.092
0
0
LINE
8
0
10
1.940
20
1.092
11
1.942
21
1.092
0
0
LINE
8
0
10
1.942
20
1.092
11
3.433
21
1.092
0
0
LINE
8
0
10
3.433
20
1.092
11
3.442
21
1.092
0
0
LINE
8
0
10
3.442
20
1.092
11
3.740
21
1.092
0
0
LINE
8
0
10
3.740
20
1.092
11
3.742
21
1.092
0
0
LINE
8
0
10
3.742
20
1.092
11
5.233
21
1.092
0
0
LINE
8
0
10
5.233
20
1.092
11
5.242
21
1.092
0
0
LINE
8
0
10
5.242
20
1.092
11
5.540
21
1.092
0
0
LINE
8
0
10
5.540
20
1.092
11
5.542
21
1.092
0
0
LINE
8
0
10
5.542
20
1.092
11
7.033
21
1.092
0
0
LINE
8
0
10
7.033
20
1.092
11
7.042
21
1.092
0
0
LINE
8
0
10
7.042
20
1.092
11
7.340
21
1.092
0
0
LINE
8
0
10
7.340
20
1.092
11
7.342
21
1.092
0
0
LINE
8
0
10
7.342
20
1.092
11
8.833
21
1.092
0
0
LINE
8
0
10
8.833
20
1.092
11
8.842
21
1.092
0
0
LINE
8
0
10
8.842
20
1.092
11
9.140
21
1.092
0
0
LINE
8
0
10
9.140
20
1.092
11
9.142
21
1.092
0
0
LINE
8
0
10
9.142
20
1.092
11
10.633
21
1.092
0
0
LINE
8
0
10
10.633
20
1.092
11
10.642
21
1.092
0
0
LINE
8
0
10
10.642
20
1.092
11
10.940
21
1.092
0
0
LINE
8
0
10
10.940
20
1.092
11
10.942
21
1.092
0
0
LINE
8
0
10
10.942
20
1.092
11
12.433
21
1.092
0
0
LINE
8
0
10
12.433
20
1.092
11
12.442
21
1.092
0
0
LINE
8
0
10
12.442
20
1.092
11
12.740
21
1.092
0
0
LINE
8
0
10
12.740
20
1.092
11
12.742
21
1.092
0
0
LINE
8
0
10
12.742
20
1.092
11
14.233
21
1.092
0
0
LINE
8
0
10
14.233
20
1.092
11
14.239
21
1.092
0
0
LINE
8
0
10
14.239
20
1.092
11
14.537
21
1.092
0
0
LINE
8
0
10
0.519
20
1.592
11
0.521
21
1.592
0
0
LINE
8
0
10
0.519
20
1.592
11
0.521
21
1.592
0
0
LINE
8
0
10
0.521
20
1.592
11
1.758
21
1.592
0
0
LINE
8
0
10
1.758
20
1.592
11
1.768
21
1.592
0
0
LINE
8
0
10
1.768
20
1.592
11
2.066
21
1.592
0
0
LINE
8
0
10
2.066
20
1.592
11
2.068
21
1.592
0
0
LINE
8
0
10
2.068
20
1.592
11
3.558
21
1.592
0
0
LINE
8
0
10
3.558
20
1.592
11
3.568
21
1.592
0
0
LINE
8
0
10
3.568
20
1.592
11
3.866
21
1.592
0
0
LINE
8
0
10
3.866
20
1.592
11
3.868
21
1.592
0
0
LINE
8
0
10
3.868
20
1.592
11
5.358
21
1.592
0
0
LINE
8
0
10
5.358
20
1.592
11
5.368
21
1.592
0
0
LINE
8
0
10
5.368
20
1.592
11
5.666
21
1.592
0
0
LINE
8
0
10
5.666
20
1.592
11
5.668
21
1.592
0
0
LINE
8
0
10
5.668
20
1.592
11
7.158
21
1.592
0
0
LINE
8
0
10
7.158
20
1.592
11
7.168
21
1.592
0
0
LINE
8
0
10
7.168
20
1.592
11
7.466
21
1.592
0
0
LINE
8
0
10
7.466
20
1.592
11
7.468
21
1.592
0
0
LINE
8
0
10
7.468
20
1.592
11
8.958
21
1.592
0
0
LINE
8
0
10
8.958
20
1.592
11
8.968
21
1.592
0
0
LINE
8
0
10
8.968
20
1.592
11
9.266
21
1.592
0
0
LINE
8
0
10
9.266
20
1.592
11
9.268
21
1.592
0
0
LINE
8
0
10
9.268
20
1.592
11
10.758
21
1.592
0
0
LINE
8
0
10
10.758
20
1.592
11
10.768
21
1.592
0
0
LINE
8
0
10
10.768
20
1.592
11
11.066
21
1.592
0
0
LINE
8
0
10
11.066
20
1.592
11
11.068
21
1.592
0
0
LINE
8
0
10
11.068
20
1.592
11
12.558
21
1.592
0
0
LINE
8
0
10
12.558
20
1.592
11
12.568
21
1.592
0
0
LINE
8
0
10
12.568
20
1.592
11
12.866
21
1.592
0
0
LINE
8
0
10
12.866
20
1.592
11
12.868
21
1.592
0
0
LINE
8
0
10
12.868
20
1.592
11
14.358
21
1.592
0
0
LINE
8
0
10
14.358
20
1.592
11
14.366
21
1.592
0
0
LINE
8
0
10
14.366
20
1.592
11
14.664
21
1.592
0
0
LINE
8
0
10
0.456
20
2.092
11
0.458
21
2.092
0
0
LINE
8
0
10
0.456
20
2.092
11
0.458
21
2.092
0
0
LINE
8
0
10
0.458
20
2.092
11
1.821
21
2.092
0
0
LINE
8
0
10
1.821
20
2.092
11
1.831
21
2.092
0
0
LINE
8
0
10
1.831
20
2.092
11
2.129
21
2.092
0
0
LINE
8
0
10
2.129
20
2.092
11
2.131
21
2.092
0
0
LINE
8
0
10
2.131
20
2.092
11
3.621
21
2.092
0
0
LINE
8
0
10
3.621
20
2.092
11
3.631
21
2.092
0
0
LINE
8
0
10
3.631
20
2.092
11
3.929
21
2.092
0
0
LINE
8
0
10
3.929
20
2.092
11
3.931
21
2.092
0
0
LINE
8
0
10
3.931
20
2.092
11
5.421
21
2.092
0
0
LINE
8
0
10
5.421
20
2.092
11
5.431
21
2.092
0
0
LINE
8
0
10
5.431
20
2.092
11
5.729
21
2.092
0
0
LINE
8
0
10
5.729
20
2.092
11
5.731
21
2.092
0
0
LINE
8
0
10
5.731
20
2.092
11
7.221
21
2.092
0
0
LINE
8
0
10
7.221
20
2.092
11
7.231
21
2.092
0
0
LINE
8
0
10
7.231
20
2.092
11
7.529
21
2.092
0
0
LINE
8
0
10
7.529
20
2.092
11
7.531
21
2.092
0
0
LINE
8
0
10
7.531
20
2.092
11
9.021
21
2.092
0
0
LINE
8
0
10
9.021
20
2.092
11
9.031
21
2.092
0
0
LINE
8
0
10
9.031
20
2.092
11
9.329
21
2.092
0
0
LINE
8
0
10
9.329
20
2.092
11
9.331
21
2.092
0
0
LINE
8
0
10
9.331
20
2.092
11
10.821
21
2.092
0
0
LINE
8
0
10
10.821
20
2.092
11
10.831
21
2.092
0
0
LINE
8
0
10
10.831
20
2.092
11
11.129
21
2.092
0
0
LINE
8
0
10
11.129
20
2.092
11
11.131
21
2.092
0
0
LINE
8
0
10
11.131
20
2.092
11
12.621
21
2.092
0
0
LINE
8
0
10
12.621
20
2.092
11
12.631
21
2.092
0
0
LINE
8
0
10
12.631
20
2.092
11
12.929
21
2.092
0
0
LINE
8
0
10
12.929
20
2.092
11
12.931
21
2.092
0
0
LINE
8
0
10
12.931
20
2.092
11
14.421
21
2.092
0
0
LINE
8
0
10
14.421
20
2.092
11
14.430
21
2.092
0
0
LINE
8
0
10
14.430
20
2.092
11
14.728
21
2.092
0
0
LINE
8
0
10
0.450
20
2.592
11
0.452
21
2.592
0
0
LINE
8
0
10
0.450
20
2.592
11
0.452
21
2.592
0
0
LINE
8
0
10
0.452
20
2.592
11
1.832
21
2.592
0
0
LINE
8
0
10
1.832
20
2.592
11
1.842
21
2.592
0
0
LINE
8
0
10
1.842
20
2.592
11
2.140
21
2.592
0
0
LINE
8
0
10
2.140
20
2.592
11
2.142
21
2.592
0
0
LINE
8
0
10
2.142
20
2.592
11
3.632
21
2.592
0
0
LINE
8
0
10
3.632
20
2.592
11
3.642
21
2.592
0
0
LINE
8
0
10
3.642
20
2.592
11
3.940
21
2.592
0
0
LINE
8
0
10
3.940
20
2.592
11
3.942
21
2.592
0
0
LINE
8
0
10
3.942
20
2.592
11
5.432
21
2.592
0
0
LINE
8
0
10
5.432
20
2.592
11
5.442
21
2.592
0
0
LINE
8
0
10
5.442
20
2.592
11
5.740
21
2.592
0
0
LINE
8
0
10
5.740
20
2.592
11
5.742
21
2.592
0
0
LINE
8
0
10
5.742
20
2.592
11
7.232
21
2.592
0
0
LINE
8
0
10
7.232
20
2.592
11
7.242
21
2.592
0
0
LINE
8
0
10
7.242
20
2.592
11
7.540
21
2.592
0
0
LINE
8
0
10
7.540
20
2.592
11
7.542
21
2.592
0
0
LINE
8
0
10
7.542
20
2.592
11
9.032
21
2.592
0
0
LINE
8
0
10
9.032
20
2.592
11
9.042
21
2.592
0
0
LINE
8
0
10
9.042
20
2.592
11
9.340
21
2.592
0
0
LINE
8
0
10
9.340
20
2.592
11
9.342
21
2.592
0
0
LINE
8
0
10
9.342
20
2.592
11
10.832
21
2.592
0
0
LINE
8
0
10
10.832
20
2.592
11
10.842
21
2.592
0
0
LINE
8
0
10
10.842
20
2.592
11
11.140
21
2.592
0
0
LINE
8
0
10
11.140
20
2.592
11
11.142
21
2.592
0
0
LINE
8
0
10
11.142
20
2.592
11
12.632
21
2.592
0
0
LINE
8
0
10
12.632
20
2.592
11
12.642
21
2.592
0
0
LINE
8
0
10
12.642
20
2.592
11
12.940
21
2.592
0
0
LINE
8
0
10
12.940
20
2.592
11
12.942
21
2.592
0
0
LINE
8
0
10
12.942
20
2.592
11
14.432
21
2.592
0
0
LINE
8
0
10
14.432
20
2.592
11
14.441
21
2.592
0
0
LINE
8
0
10
14.441
20
2.592
11
14.739
21
2.592
0
0
LINE
8
0
10
0.463
20
3.092
11
0.465
21
3.092
0
0
LINE
8
0
10
0.463
20
3.092
11
0.465
21
3.092
0
0
LINE
8
0
10
0.465
20
3.092
11
1.815
21
3.092
0
0
LINE
8
0
10
1.815
20
3.092
11
1.825
21
3.092
0
0
LINE
8
0
10
1.825
20
3.092
11
2.123
21
3.092
0
0
LINE
8
0
10
2.123
20
3.092
11
2.125
21
3.092
0
0
LINE
8
0
10
2.125
20
3.092
11
3.615
21
3.092
0
0
LINE
8
0
10
3.615
20
3.092
11
3.625
21
3.092
0
0
LINE
8
0
10
3.625
20
3.092
11
3.923
21
3.092
0
0
LINE
8
0
10
3.923
20
3.092
11
3.925
21
3.092
0
0
LINE
8
0
10
3.925
20
3.092
11
5.415
21
3.092
0
0
LINE
8
0
10
5.415
20
3.092
11
5.425
21
3.092
0
0
LINE
8
0
10
5.425
20
3.092
11
5.723
21
3.092
0
0
LINE
8
0
10
5.723
20
3.092
11
5.725
21
3.092
0
0
LINE
8
0
10
5.725
20
3.092
11
7.215
21
3.092
0
0
LINE
8
0
10
7.215
20
3.092
11
7.225
21
3.092
0
0
LINE
8
0
10
7.225
20
3.092
11
7.523
21
3.092
0
0
LINE
8
0
10
7.523
20
3.092
11
7.525
21
3.092
0
0
LINE
8
0
10
7.525
20
3.092
11
9.015
21
3.092
0
0
LINE
8
0
10
9.015
20
3.092
11
9.025
21
3.092
0
0
LINE
8
0
10
9.025
20
3.092
11
9.323
21
3.092
0
0
LINE
8
0
10
9.323
20
3.092
11
9.325
21
3.092
0
0
LINE
8
0
10
9.325
20
3.092
11
10.815
21
3.092
0
0
LINE
8
0
10
10.815
20
3.092
11
10.825
21
3.092
0
0
LINE
8
0
10
10.825
20
3.092
11
11.123
21
3.092
0
0
LINE
8
0
10
11.123
20
3.092
11
11.125
21
3.092
0
0
LINE
8
0
10
11.125
20
3.092
11
12.615
21
3.092
0
0
LINE
8
0
10
12.615
20
3.092
11
12.625
21
3.092
0
0
LINE
8
0
10
12.625
20
3.092
11
12.923
21
3.092
0
0
LINE
8
0
10
12.923
20
3.092
11
12.925
21
3.092
0
0
LINE
8
0
10
12.925
20
3.092
11
14.415
21
3.092
0
0
LINE
8
0
10
14.415
20
3.092
11
14.424
21
3.092
0
0
LINE
8
0
10
14.424
20
3.092
11
14.722
21
3.092
0
0
LINE
8
0
10
0.476
20
3.592
11
0.478
21
3.592
0
0
LINE
8
0
10
0.476
20
3.592
11
0.478
21
3.592
0
0
LINE
8
0
10
0.478
20
3.592
11
1.797
21
3.592
0
0
LINE
8
0
10
1.797
20
3.592
11
1.807
21
3.592
0
0
LINE
8
0
10
1.807
20
3.592
11
2.105
21
3.592
0
0
LINE
8
0
10
2.105
20
3.592
11
2.107
21
3.592
0
0
LINE
8
0
10
2.107
20
3.592
11
3.597
21
3.592
0
0
LINE
8
0
10
3.597
20
3.592
11
3.607
21
3.592
0
0
LINE
8
0
10
3.607
20
3.592
11
3.905
21
3.592
0
0
LINE
8
0
10
3.905
20
3.592
11
3.907
21
3.592
0
0
LINE
8
0
10
3.907
20
3.592
11
5.397
21
3.592
0
0
LINE
8
0
10
5.397
20
3.592
11
5.407
21
3.592
0
0
LINE
8
0
10
5.407
20
3.592
11
5.705
21
3.592
0
0
LINE
8
0
10
5.705
20
3.592
11
5.707
21
3.592
0
0
LINE
8
0
10
5.707
20
3.592
11
7.197
21
3.592
0
0
LINE
8
0
10
7.197
20
3.592
11
7.207
21
3.592
0
0
LINE
8
0
10
7.207
20
3.592
11
7.505
21
3.592
0
0
LINE
8
0
10
7.505
20
3.592
11
7.507
21
3.592
0
0
LINE
8
0
10
7.507
20
3.592
11
8.997
21
3.592
0
0
LINE
8
0
10
8.997
20
3.592
11
9.007
21
3.592
0
0
LINE
8
0
10
9.007
20
3.592
11
9.305
21
3.592
0
0
LINE
8
0
10
9.305
20
3.592
11
9.307
21
3.592
0
0
LINE
8
0
10
9.307
20
3.592
11
10.797
21
3.592
0
0
LINE
8
0
10
10.797
20
3.592
11
10.807
21
3.592
0
0
LINE
8
0
10
10.807
20
3.592
11
11.105
21
3.592
0
0
LINE
8
0
10
11.105
20
3.592
11
11.107
21
3.592
0
0
LINE
8
0
10
11.107
20
3.592
11
12.597
21
3.592
0
0
LINE
8
0
10
12.597
20
3.592
11
12.607
21
3.592
0
0
LINE
8
0
10
12.607
20
3.592
11
12.905
21
3.592
0
0
LINE
8
0
10
12.905
20
3.592
11
12.907
21
3.592
0
0
LINE
8
0
10
12.907
20
3.592
11
14.397
21
3.592
0
0
LINE
8
0
10
14.397
20
3.592
11
14.406
21
3.592
0
0
LINE
8
0
10
14.406
20
3.592
11
14.704
21
3.592
0
0
LINE
8
0
10
0.488
20
4.092
11
0.490
21
4.092
0
0
LINE
8
0
10
0.488
20
4.092
11
0.490
21
4.092
0
0
LINE
8
0
10
0.490
20
4.092
11
1.781
21
4.092
0
0
LINE
8
0
10
1.781
20
4.092
11
1.790
21
4.092
0
0
LINE
8
0
10
1.790
20
4.092
11
2.087
21
4.092
0
0
LINE
8
0
10
2.087
20
4.092
11
2.089
21
4.092
0
0
LINE
8
0
10
2.089
20
4.092
11
3.581
21
4.092
0
0
LINE
8
0
10
3.581
20
4.092
11
3.590
21
4.092
0
0
LINE
8
0
10
3.590
20
4.092
11
3.887
21
4.092
0
0
LINE
8
0
10
3.887
20
4.092
11
3.889
21
4.092
0
0
LINE
8
0
10
3.889
20
4.092
11
5.381
21
4.092
0
0
LINE
8
0
10
5.381
20
4.092
11
5.390
21
4.092
0
0
LINE
8
0
10
5.390
20
4.092
11
5.687
21
4.092
0
0
LINE
8
0
10
5.687
20
4.092
11
5.689
21
4.092
0
0
LINE
8
0
10
5.689
20
4.092
11
7.181
21
4.092
0
0
LINE
8
0
10
7.181
20
4.092
11
7.190
21
4.092
0
0
LINE
8
0
10
7.190
20
4.092
11
7.487
21
4.092
0
0
LINE
8
0
10
7.487
20
4.092
11
7.489
21
4.092
0
0
LINE
8
0
10
7.489
20
4.092
11
8.981
21
4.092
0
0
LINE
8
0
10
8.981
20
4.092
11
8.990
21
4.092
0
0
LINE
8
0
10
8.990
20
4.092
11
9.287
21
4.092
0
0
LINE
8
0
10
9.287
20
4.092
11
9.289
21
4.092
0
0
LINE
8
0
10
9.289
20
4.092
11
10.781
21
4.092
0
0
LINE
8
0
10
10.781
20
4.092
11
10.790
21
4.092
0
0
LINE
8
0
10
10.790
20
4.092
11
11.087
21
4.092
0
0
LINE
8
0
10
11.087
20
4.092
11
11.089
21
4.092
0
0
LINE
8
0
10
11.089
20
4.092
11
12.581
21
4.092
0
0
LINE
8
0
10
12.581
20
4.092
11
12.590
21
4.092
0
0
LINE
8
0
10
12.590
20
4.092
11
12.887
21
4.092
0
0
LINE
8
0
10
12.887
20
4.092
11
12.889
21
4.092
0
0
LINE
8
0
10
12.889
20
4.092
11
14.381
21
4.092
0
0
LINE
8
0
10
14.381
20
4.092
11
14.389
21
4.092
0
0
LINE
8
0
10
14.389
20
4.092
11
14.687
21
4.092
0
0
LINE
8
0
10
0.501
20
4.592
11
0.503
21
4.592
0
0
LINE
8
0
10
0.501
20
4.592
11
0.503
21
4.592
0
0
LINE
8
0
10
0.503
20
4.592
11
1.763
21
4.592
0
0
LINE
8
0
10
1.763
20
4.592
11
1.772
21
4.592
0
0
LINE
8
0
10
1.772
20
4.592
11
2.070
21
4.592
0
0
LINE
8
0
10
2.070
20
4.592
11
2.072
21
4.592
0
0
LINE
8
0
10
2.072
20
4.592
11
3.563
21
4.592
0
0
LINE
8
0
10
3.563
20
4.592
11
3.572
21
4.592
0
0
LINE
8
0
10
3.572
20
4.592
11
3.870
21
4.592
0
0
LINE
8
0
10
3.870
20
4.592
11
3.872
21
4.592
0
0
LINE
8
0
10
3.872
20
4.592
11
5.363
21
4.592
0
0
LINE
8
0
10
5.363
20
4.592
11
5.372
21
4.592
0
0
LINE
8
0
10
5.372
20
4.592
11
5.670
21
4.592
0
0
LINE
8
0
10
5.670
20
4.592
11
5.672
21
4.592
0
0
LINE
8
0
10
5.672
20
4.592
11
7.163
21
4.592
0
0
LINE
8
0
10
7.163
20
4.592
11
7.172
21
4.592
0
0
LINE
8
0
10
7.172
20
4.592
11
7.470
21
4.592
0
0
LINE
8
0
10
7.470
20
4.592
11
7.472
21
4.592
0
0
LINE
8
0
10
7.472
20
4.592
11
8.963
21
4.592
0
0
LINE
8
0
10
8.963
20
4.592
11
8.972
21
4.592
0
0
LINE
8
0
10
8.972
20
4.592
11
9.270
21
4.592
0
0
LINE
8
0
10
9.270
20
4.592
11
9.272
21
4.592
0
0
LINE
8
0
10
9.272
20
4.592
11
10.763
21
4.592
0
0
LINE
8
0
10
10.763
20
4.592
11
10.772
21
4.592
0
0
LINE
8
0
10
10.772
20
4.592
11
11.070
21
4.592
0
0
LINE
8
0
10
11.070
20
4.592
11
11.072
21
4.592
0
0
LINE
8
0
10
11.072
20
4.592
11
12.563
21
4.592
0
0
LINE
8
0
10
12.563
20
4.592
11
12.572
21
4.592
0
0
LINE
8
0
10
12.572
20
4.592
11
12.870
21
4.592
0
0
LINE
8
0
10
12.870
20
4.592
11
12.872
21
4.592
0
0
LINE
8
0
10
12.872
20
4.592
11
14.363
21
4.592
0
0
LINE
8
0
10
14.363
20
4.592
11
14.371
21
4.592
0
0
LINE
8
0
10
14.371
20
4.592
11
14.669
21
4.592
0
0
LINE
8
0
10
0.513
20
5.092
11
0.515
21
5.092
0
0
LINE
8
0
10
0.513
20
5.092
11
0.515
21
5.092
0
0
LINE
8
0
10
0.515
20
5.092
11
1.745
21
5.092
0
0
LINE
8
0
10
1.745
20
5.092
11
1.755
21
5.092
0
0
LINE
8
0
10
1.755
20
5.092
11
2.053
21
5.092
0
0
LINE
8
0
10
2.053
20
5.092
11
2.055
21
5.092
0
0
LINE
8
0
10
2.055
20
5.092
11
3.545
21
5.092
0
0
LINE
8
0
10
3.545
20
5.092
11
3.555
21
5.092
0
0
LINE
8
0
10
3.555
20
5.092
11
3.853
21
5.092
0
0
LINE
8
0
10
3.853
20
5.092
11
3.855
21
5.092
0
0
LINE
8
0
10
3.855
20
5.092
11
5.345
21
5.092
0
0
LINE
8
0
10
5.345
20
5.092
11
5.355
21
5.092
0
0
LINE
8
0
10
5.355
20
5.092
11
5.653
21
5.092
0
0
LINE
8
0
10
5.653
20
5.092
11
5.655
21
5.092
0
0
LINE
8
0
10
5.655
20
5.092
11
7.145
21
5.092
0
0
LINE
8
0
10
7.145
20
5.092
11
7.155
21
5.092
0
0
LINE
8
0
10
7.155
20
5.092
11
7.453
21
5.092
0
0
LINE
8
0
10
7.453
20
5.092
11
7.455
21
5.092
0
0
LINE
8
0
10
7.455
20
5.092
11
8.945
21
5.092
0
0
LINE
8
0
10
8.945
20
5.092
11
8.955
21
5.092
0
0
LINE
8
0
10
8.955
20
5.092
11
9.253
21
5.092
0
0
LINE
8
0
10
9.253
20
5.092
11
9.255
21
5.092
0
0
LINE
8
0
10
9.255
20
5.092
11
10.745
21
5.092
0
0
LINE
8
0
10
10.745
20
5.092
11
10.755
21
5.092
0
0
LINE
8
0
10
10.755
20
5.092
11
11.053
21
5.092
0
0
LINE
8
0
10
11.053
20
5.092
11
11.055
21
5.092
0
0
LINE
8
0
10
11.055
20
5.092
11
12.545
21
5.092
0
0
LINE
8
0
10
12.545
20
5.092
11
12.555
21
5.092
0
0
LINE
8
0
10
12.555
20
5.092
11
12.853
21
5.092
0
0
LINE
8
0
10
12.853
20
5.092
11
12.855
21
5.092
0
0
LINE
8
0
10
12.855
20
5.092
11
14.345
21
5.092
0
0
LINE
8
0
10
14.345
20
5.092
11
14.353
21
5.092
0
0
LINE
8
0
10
14.353
20
5.092
11
14.651
21
5.092
0
0
LINE
8
0
10
0.526
20
5.592
11
0.528
21
5.592
0
0
LINE
8
0
10
0.526
20
5.592
11
0.528
21
5.592
0
0
LINE
8
0
10
0.528
20
5.592
11
1.728
21
5.592
0
0
LINE
8
0
10
1.728
20
5.592
11
1.738
21
5.592
0
0
LINE
8
0
10
1.738
20
5.592
11
2.036
21
5.592
0
0
LINE
8
0
10
2.036
20
5.592
11
2.038
21
5.592
0
0
LINE
8
0
10
2.038
20
5.592
11
3.528
21
5.592
0
0
LINE
8
0
10
3.528
20
5.592
11
3.538
21
5.592
0
0
LINE
8
0
10
3.538
20
5.592
11
3.836
21
5.592
0
0
LINE
8
0
10
3.836
20
5.592
11
3.838
21
5.592
0
0
LINE
8
0
10
3.838
20
5.592
11
5.328
21
5.592
0
0
LINE
8
0
10
5.328
20
5.592
11
5.338
21
5.592
0
0
LINE
8
0
10
5.338
20
5.592
11
5.636
21
5.592
0
0
LINE
8
0
10
5.636
20
5.592
11
5.638
21
5.592
0
0
LINE
8
0
10
5.638
20
5.592
11
7.128
21
5.592
0
0
LINE
8
0
10
7.128
20
5.592
11
7.138
21
5.592
0
0
LINE
8
0
10
7.138
20
5.592
11
7.436
21
5.592
0
0
LINE
8
0
10
7.436
20
5.592
11
7.438
21
5.592
0
0
LINE
8
0
10
7.438
20
5.592
11
8.928
21
5.592
0
0
LINE
8
0
10
8.928
20
5.592
11
8.938
21
5.592
0
0
LINE
8
0
10
8.938
20
5.592
11
9.236
21
5.592
0
0
LINE
8
0
10
9.236
20
5.592
11
9.238
21
5.592
0
0
LINE
8
0
10
9.238
20
5.592
11
10.728
21
5.592
0
0
LINE
8
0
10
10.728
20
5.592
11
10.738
21
5.592
0
0
LINE
8
0
10
10.738
20
5.592
11
11.036
21
5.592
0
0
LINE
8
0
10
11.036
20
5.592
11
11.038
21
5.592
0
0
LINE
8
0
10
11.038
20
5.592
11
12.528
21
5.592
0
0
LINE
8
0
10
12.528
20
5.592
11
12.538
21
5.592
0
0
LINE
8
0
10
12.538
20
5.592
11
12.836
21
5.592
0
0
LINE
8
0
10
12.836
20
5.592
11
12.838
21
5.592
0
0
LINE
8
0
10
12.838
20
5.592
11
14.328
21
5.592
0
0
LINE
8
0
10
14.328
20
5.592
11
14.336
21
5.592
0
0
LINE
8
0
10
14.336
20
5.592
11
14.634
21
5.592
0
0
LINE
8
0
10
0.539
20
6.092
11
0.541
21
6.092
0
0
LINE
8
0
10
0.539
20
6.092
11
0.541
21
6.092
0
0
LINE
8
0
10
0.541
20
6.092
11
1.720
21
6.092
0
0
LINE
8
0
10
1.720
20
6.092
11
1.730
21
6.092
0
0
LINE
8
0
10
1.730
20
6.092
11
2.028
21
6.092
0
0
LINE
8
0
10
2.028
20
6.092
11
2.030
21
6.092
0
0
LINE
8
0
10
2.030
20
6.092
11
3.520
21
6.092
0
0
LINE
8
0
10
3.520
20
6.092
11
3.530
21
6.092
0
0
LINE
8
0
10
3.530
20
6.092
11
3.828
21
6.092
0
0
LINE
8
0
10
3.828
20
6.092
11
3.830
21
6.092
0
0
LINE
8
0
10
3.830
20
6.092
11
5.320
21
6.092
0
0
LINE
8
0
10
5.320
20
6.092
11
5.330
21
6.092
0
0
LINE
8
0
10
5.330
20
6.092
11
5.628
21
6.092
0
0
LINE
8
0
10
5.628
20
6.092
11
5.630
21
6.092
0
0
LINE
8
0
10
5.630
20
6.092
11
7.120
21
6.092
0
0
LINE
8
0
10
7.120
20
6.092
11
7.130
21
6.092
0
0
LINE
8
0
10
7.130
20
6.092
11
7.428
21
6.092
0
0
LINE
8
0
10
7.428
20
6.092
11
7.430
21
6.092
0
0
LINE
8
0
10
7.430
20
6.092
11
8.920
21
6.092
0
0
LINE
8
0
10
8.920
20
6.092
11
8.930
21
6.092
0
0
LINE
8
0
10
8.930
20
6.092
11
9.228
21
6.092
0
0
LINE
8
0
10
9.228
20
6.092
11
9.230
21
6.092
0
0
LINE
8
0
10
9.230
20
6.092
11
10.720
21
6.092
0
0
LINE
8
0
10
10.720
20
6.092
11
10.730
21
6.092
0
0
LINE
8
0
10
10.730
20
6.092
11
11.028
21
6.092
0
0
LINE
8
0
10
11.028
20
6.092
11
11.030
21
6.092
0
0
LINE
8
0
10
11.030
20
6.092
11
12.520
21
6.092
0
0
LINE
8
0
10
12.520
20
6.092
11
12.530
21
6.092
0
0
LINE
8
0
10
12.530
20
6.092
11
12.828
21
6.092
0
0
LINE
8
0
10
12.828
20
6.092
11
12.830
21
6.092
0
0
LINE
8
0
10
12.830
20
6.092
11
14.320
21
6.092
0
0
LINE
8
0
10
14.320
20
6.092
11
14.328
21
6.092
0
0
LINE
8
0
10
14.328
20
6.092
11
14.626
21
6.092
0
0
LINE
8
0
10
0.551
20
6.592
11
0.553
21
6.592
0
0
LINE
8
0
10
0.551
20
6.592
11
0.553
21
6.592
0
0
LINE
8
0
10
0.553
20
6.592
11
1.720
21
6.592
0
0
LINE
8
0
10
1.720
20
6.592
11
1.730
21
6.592
0
0
LINE
8
0
10
1.730
20
6.592
11
2.028
21
6.592
0
0
LINE
8
0
10
2.028
20
6.592
11
2.030
21
6.592
0
0
LINE
8
0
10
2.030
20
6.592
11
3.520
21
6.592
0
0
LINE
8
0
10
3.520
20
6.592
11
3.530
21
6.592
0
0
LINE
8
0
10
3.530
20
6.592
11
3.828
21
6.592
0
0
LINE
8
0
10
3.828
20
6.592
11
3.830
21
6.592
0
0
LINE
8
0
10
3.830
20
6.592
11
5.320
21
6.592
0
0
LINE
8
0
10
5.320
20
6.592
11
5.330
21
6.592
0
0
LINE
8
0
10
5.330
20
6.592
11
5.628
21
6.592
0
0
LINE
8
0
10
5.628
20
6.592
11
5.630
21
6.592
0
0
LINE
8
0
10
5.630
20
6.592
11
7.120
21
6.592
0
0
LINE
8
0
10
7.120
20
6.592
11
7.130
21
6.592
0
0
LINE
8
0
10
7.130
20
6.592
11
7.428
21
6.592
0
0
LINE
8
0
10
7.428
20
6.592
11
7.430
21
6.592
0
0
LINE
8
0
10
7.430
20
6.592
11
8.920
21
6.592
0
0
LINE
8
0
10
8.920
20
6.592
11
8.930
21
6.592
0
0
LINE
8
0
10
8.930
20
6.592
11
9.228
21
6.592
0
0
LINE
8
0
10
9.228
20
6.592
11
9.230
21
6.592
0
0
LINE
8
0
10
9.230
20
6.592
11
10.720
21
6.592
0
0
LINE
8
0
10
10.720
20
6.592
11
10.730
21
6.592
0
0
LINE
8
0
10
10.730
20
6.592
11
11.028
21
6.592
0
0
LINE
8
0
10
11.028
20
6.592
11
11.030
21
6.592
0
0
LINE
8
0
10
11.030
20
6.592
11
12.520
21
6.592
0
0
LINE
8
0
10
12.520
20
6.592
11
12.530
21
6.592
0
0
LINE
8
0
10
12.530
20
6.592
11
12.828
21
6.592
0
0
LINE
8
0
10
12.828
20
6.592
11
12.830
21
6.592
0
0
LINE
8
0
10
12.830
20
6.592
11
14.320
21
6.592
0
0
LINE
8
0
10
14.320
20
6.592
11
14.328
21
6.592
0
0
LINE
8
0
10
14.328
20
6.592
11
14.626
21
6.592
0
0
LINE
8
0
10
0.564
20
7.092
11
0.566
21
7.092
0
0
LINE
8
0
10
0.564
20
7.092
11
0.566
21
7.092
0
0
LINE
8
0
10
0.566
20
7.092
11
1.720
21
7.092
0
0
LINE
8
0
10
1.720
20
7.092
11
1.730
21
7.092
0
0
LINE
8
0
10
1.730
20
7.092
11
2.028
21
7.092
0
0
LINE
8
0
10
2.028
20
7.092
11
2.030
21
7.092
0
0
LINE
8
0
10
2.030
20
7.092
11
3.520
21
7.092
0
0
LINE
8
0
10
3.520
20
7.092
11
3.530
21
7.092
0
0
LINE
8
0
10
3.530
20
7.092
11
3.828
21
7.092
0
0
LINE
8
0
10
3.828
20
7.092
11
3.830
21
7.092
0
0
LINE
8
0
10
3.830
20
7.092
11
5.320
21
7.092
0
0
LINE
8
0
10
5.320
20
7.092
11
5.330
21
7.092
0
0
LINE
8
0
10
5.330
20
7.092
11
5.628
21
7.092
0
0
LINE
8
0
10
5.628
20
7.092
11
5.630
21
7.092
0
0
LINE
8
0
10
5.630
20
7.092
11
7.120
21
7.092
0
0
LINE
8
0
10
7.120
20
7.092
11
7.130
21
7.092
0
0
LINE
8
0
10
7.130
20
7.092
11
7.428
21
7.092
0
0
LINE
8
0
10
7.428
20
7.092
11
7.430
21
7.092
0
0
LINE
8
0
10
7.430
20
7.092
11
8.920
21
7.092
0
0
LINE
8
0
10
8.920
20
7.092
11
8.930
21
7.092
0
0
LINE
8
0
10
8.930
20
7.092
11
9.228
21
7.092
0
0
LINE
8
0
10
9.228
20
7.092
11
9.230
21
7.092
0
0
LINE
8
0
10
9.230
20
7.092
11
10.720
21
7.092
0
0
LINE
8
0
10
10.720
20
7.092
11
10.730
21
7.092
0
0
LINE
8
0
10
10.730
20
7.092
11
11.028
21
7.092
0
0
LINE
8
0
10
11.028
20
7.092
11
11.030
21
7.092
0
0
LINE
8
0
10
11.030
20
7.092
11
12.520
21
7.092
0
0
LINE
8
0
10
12.520
20
7.092
11
12.530
21
7.092
0
0
LINE
8
0
10
12.530
20
7.092
11
12.828
21
7.092
0
0
LINE
8
0
10
12.828
20
7.092
11
12.830
21
7.092
0
0
LINE
8
0
10
12.830
20
7.092
11
14.320
21
7.092
0
0
LINE
8
0
10
14.320
20
7.092
11
14.328
21
7.092
0
0
LINE
8
0
10
14.328
20
7.092
11
14.626
21
7.092
0
0
LINE
8
0
10
0.576
20
7.592
11
0.578
21
7.592
0
0
LINE
8
0
10
0.576
20
7.592
11
0.578
21
7.592
0
0
LINE
8
0
10
0.578
20
7.592
11
1.721
21
7.592
0
0
LINE
8
0
10
1.721
20
7.592
11
1.730
21
7.592
0
0
LINE
8
0
10
1.730
20
7.592
11
2.028
21
7.592
0
0
LINE
8
0
10
2.028
20
7.592
11
2.030
21
7.592
0
0
LINE
8
0
10
2.030
20
7.592
11
3.521
21
7.592
0
0
LINE
8
0
10
3.521
20
7.592
11
3.530
21
7.592
0
0
LINE
8
0
10
3.530
20
7.592
11
3.828
21
7.592
0
0
LINE
8
0
10
3.828
20
7.592
11
3.830
21
7.592
0
0
LINE
8
0
10
3.830
20
7.592
11
5.321
21
7.592
0
0
LINE
8
0
10
5.321
20
7.592
11
5.330
21
7.592
0
0
LINE
8
0
10
5.330
20
7.592
11
5.628
21
7.592
0
0
LINE
8
0
10
5.628
20
7.592
11
5.630
21
7.592
0
0
LINE
8
0
10
5.630
20
7.592
11
7.121
21
7.592
0
0
LINE
8
0
10
7.121
20
7.592
11
7.130
21
7.592
0
0
LINE
8
0
10
7.130
20
7.592
11
7.428
21
7.592
0
0
LINE
8
0
10
7.428
20
7.592
11
7.430
21
7.592
0
0
LINE
8
0
10
7.430
20
7.592
11
8.921
21
7.592
0
0
LINE
8
0
10
8.921
20
7.592
11
8.930
21
7.592
0
0
LINE
8
0
10
8.930
20
7.592
11
9.228
21
7.592
0
0
LINE
8
0
10
9.228
20
7.592
11
9.230
21
7.592
0
0
LINE
8
0
10
9.230
20
7.592
11
10.721
21
7.592
0
0
LINE
8
0
10
10.721
20
7.592
11
10.730
21
7.592
0
0
LINE
8
0
10
10.730
20
7.592
11
11.028
21
7.592
0
0
LINE
8
0
10
11.028
20
7.592
11
11.030
21
7.592
0
0
LINE
8
0
10
11.030
20
7.592
11
12.521
21
7.592
0
0
LINE
8
0
10
12.521
20
7.592
11
12.530
21
7.592
0
0
LINE
8
0
10
12.530
20
7.592
11
12.828
21
7.592
0
0
LINE
8
0
10
12.828
20
7.592
11
12.830
21
7.592
0
0
LINE
8
0
10
12.830
20
7.592
11
14.321
21
7.592
0
0
LINE
8
0
10
14.321
20
7.592
11
14.328
21
7.592
0
0
LINE
8
0
10
14.328
20
7.592
11
14.626
21
7.592
0
0
LINE
8
0
10
0.575
20
8.092
11
0.577
21
8.092
0
0
LINE
8
0
10
0.575
20
8.092
11
0.577
21
8.092
0
0
LINE
8
0
10
0.577
20
8.092
11
1.721
21
8.092
0
0
LINE
8
0
10
1.721
20
8.092
11
1.730
21
8.092
0
0
LINE
8
0
10
1.730
20
8.092
11
2.028
21
8.092
0
0
LINE
8
0
10
2.028
20
8.092
11
2.030
21
8.092
0
0
LINE
8
0
10
2.030
20
8.092
11
3.521
21
8.092
0
0
LINE
8
0
10
3.521
20
8.092
11
3.530
21
8.092
0
0
LINE
8
0
10
3.530
20
8.092
11
3.828
21
8.092
0
0
LINE
8
0
10
3.828
20
8.092
11
3.830
21
8.092
0
0
LINE
8
0
10
3.830
20
8.092
11
5.321
21
8.092
0
0
LINE
8
0
10
5.321
20
8.092
11
5.330
21
8.092
0
0
LINE
8
0
10
5.330
20
8.092
11
5.628
21
8.092
0
0
LINE
8
0
10
5.628
20
8.092
11
5.630
21
8.092
0
0
LINE
8
0
10
5.630
20
8.092
11
7.121
21
8.092
0
0
LINE
8
0
10
7.121
20
8.092
11
7.130
21
8.092
0
0
LINE
8
0
10
7.130
20
8.092
11
7.428
21
8.092
0
0
LINE
8
0
10
7.428
20
8.092
11
7.430
21
8.092
0
0
LINE
8
0
10
7.430
20
8.092
11
8.921
21
8.092
0
0
LINE
8
0
10
8.921
20
8.092
11
8.930
21
8.092
0
0
LINE
8
0
10
8.930
20
8.092
11
9.228
21
8.092
0
0
LINE
8
0
10
9.228
20
8.092
11
9.230
21
8.092
0
0
LINE
8
0
10
9.230
20
8.092
11
10.721
21
8.092
0
0
LINE
8
0
10
10.721
20
8.092
11
10.730
21
8.092
0
0
LINE
8
0
10
10.730
20
8.092
11
11.028
21
8.092
0
0
LINE
8
0
10
11.028
20
8.092
11
11.030
21
8.092
0
0
LINE
8
0
10
11.030
20
8.092
11
12.521
21
8.092
0
0
LINE
8
0
10
12.521
20
8.092
11
12.530
21
8.092
0
0
LINE
8
0
10
12.530
20
8.092
11
12.828
21
8.092
0
0
LINE
8
0
10
12.828
20
8.092
11
12.830
21
8.092
0
0
LINE
8
0
10
12.830
20
8.092
11
14.321
21
8.092
0
0
LINE
8
0
10
14.321
20
8.092
11
14.328
21
8.092
0
0
LINE
8
0
10
14.328
20
8.092
11
14.626
21
8.092
0
0
LINE
8
0
10
0.560
20
8.592
11
0.562
21
8.592
0
0
LINE
8
0
10
0.560
20
8.592
11
0.562
21
8.592
0
0
LINE
8
0
10
0.562
20
8.592
11
1.720
21
8.592
0
0
LINE
8
0
10
1.720
20
8.592
11
1.730
21
8.592
0
0
LINE
8
0
10
1.730
20
8.592
11
2.028
21
8.592
0
0
LINE
8
0
10
2.028
20
8.592
11
2.030
21
8.592
0
0
LINE
8
0
10
2.030
20
8.592
11
3.520
21
8.592
0
0
LINE
8
0
10
3.520
20
8.592
11
3.530
21
8.592
0
0
LINE
8
0
10
3.530
20
8.592
11
3.828
21
8.592
0
0
LINE
8
0
10
3.828
20
8.592
11
3.830
21
8.592
0
0
LINE
8
0
10
3.830
20
8.592
11
5.320
21
8.592
0
0
LINE
8
0
10
5.320
20
8.592
11
5.330
21
8.592
0
0
LINE
8
0
10
5.330
20
8.592
11
5.628
21
8.592
0
0
LINE
8
0
10
5.628
20
8.592
11
5.630
21
8.592
0
0
LINE
8
0
10
5.630
20
8.592
11
7.120
21
8.592
0
0
LINE
8
0
10
7.120
20
8.592
11
7.130
21
8.592
0
0
LINE
8
0
10
7.130
20
8.592
11
7.428
21
8.592
0
0
LINE
8
0
10
7.428
20
8.592
11
7.430
21
8.592
0
0
LINE
8
0
10
7.430
20
8.592
11
8.920
21
8.592
0
0
LINE
8
0
10
8.920
20
8.592
11
8.930
21
8.592
0
0
LINE
8
0
10
8.930
20
8.592
11
9.228
21
8.592
0
0
LINE
8
0
10
9.228
20
8.592
11
9.230
21
8.592
0
0
LINE
8
0
10
9.230
20
8.592
11
10.720
21
8.592
0
0
LINE
8
0
10
10.720
20
8.592
11
10.730
21
8.592
0
0
LINE
8
0
10
10.730
20
8.592
11
11.028
21
8.592
0
0
LINE
8
0
10
11.028
20
8.592
11
11.030
21
8.592
0
0
LINE
8
0
10
11.030
20
8.592
11
12.520
21
8.592
0
0
LINE
8
0
10
12.520
20
8.592
11
12.530
21
8.592
0
0
LINE
8
0
10
12.530
20
8.592
11
12.828
21
8.592
0
0
LINE
8
0
10
12.828
20
8.592
11
12.830
21
8.592
0
0
LINE
8
0
10
12.830
20
8.592
11
14.320
21
8.592
0
0
LINE
8
0
10
14.320
20
8.592
11
14.328
21
8.592
0
0
LINE
8
0
10
14.328
20
8.592
11
14.626
21
8.592
0
0
LINE
8
0
10
0.545
20
9.092
11
0.547
21
9.092
0
0
LINE
8
0
10
0.545
20
9.092
11
0.547
21
9.092
0
0
LINE
8
0
10
0.547
20
9.092
11
1.720
21
9.092
0
0
LINE
8
0
10
1.720
20
9.092
11
1.730
21
9.092
0
0
LINE
8
0
10
1.730
20
9.092
11
2.028
21
9.092
0
0
LINE
8
0
10
2.028
20
9.092
11
2.030
21
9.092
0
0
LINE
8
0
10
2.030
20
9.092
11
3.520
21
9.092
0
0
LINE
8
0
10
3.520
20
9.092
11
3.530
21
9.092
0
0
LINE
8
0
10
3.530
20
9.092
11
3.828
21
9.092
0
0
LINE
8
0
10
3.828
20
9.092
11
3.830
21
9.092
0
0
LINE
8
0
10
3.830
20
9.092
11
5.320
21
9.092
0
0
LINE
8
0
10
5.320
20
9.092
11
5.330
21
9.092
0
0
LINE
8
0
10
5.330
20
9.092
11
5.628
21
9.092
0
0
LINE
8
0
10
5.628
20
9.092
11
5.630
21
9.092
0
0
LINE
8
0
10
5.630
20
9.092
11
7.120
21
9.092
0
0
LINE
8
0
10
7.120
20
9.092
11
7.130
21
9.092
0
0
LINE
8
0
10
7.130
20
9.092
11
7.428
21
9.092
0
0
LINE
8
0
10
7.428
20
9.092
11
7.430
21
9.092
0
0
LINE
8
0
10
7.430
20
9.092
11
8.920
21
9.092
0
0
LINE
8
0
10
8.920
20
9.092
11
8.930
21
9.092
0
0
LINE
8
0
10
8.930
20
9.092
11
9.228
21
9.092
0
0
LINE
8
0
10
9.228
20
9.092
11
9.230
21
9.092
0
0
LINE
8
0
10
9.230
20
9.092
11
10.720
21
9.092
0
0
LINE
8
0
10
10.720
20
9.092
11
10.730
21
9.092
0
0
LINE
8
0
10
10.730
20
9.092
11
11.028
21
9.092
0
0
LINE
8
0
10
11.028
20
9.092
11
11.030
21
9.092
0
0
LINE
8
0
10
11.030
20
9.092
11
12.520
21
9.092
0
0
LINE
8
0
10
12.520
20
9.092
11
12.530
21
9.092
0
0
LINE
8
0
10
12.530
20
9.092
11
12.828
21
9.092
0
0
LINE
8
0
10
12.828
20
9.092
11
12.830
21
9.092
0
0
LINE
8
0
10
12.830
20
9.092
11
14.320
21
9.092
0
0
LINE
8
0
10
14.320
20
9.092
11
14.328
21
9.092
0
0
LINE
8
0
10
14.328
20
9.092
11
14.626
21
9.092
0
0
LINE
8
0
10
0.529
20
9.592
11
0.531
21
9.592
0
0
LINE
8
0
10
0.529
20
9.592
11
0.531
21
9.592
0
0
LINE
8
0
10
0.531
20
9.592
11
1.720
21
9.592
0
0
LINE
8
0
10
1.720
20
9.592
11
1.730
21
9.592
0
0
LINE
8
0
10
1.730
20
9.592
11
2.028
21
9.592
0
0
LINE
8
0
10
2.028
20
9.592
11
2.030
21
9.592
0
0
LINE
8
0
10
2.030
20
9.592
11
3.520
21
9.592
0
0
LINE
8
0
10
3.520
20
9.592
11
3.530
21
9.592
0
0
LINE
8
0
10
3.530
20
9.592
11
3.828
21
9.592
0
0
LINE
8
0
10
3.828
20
9.592
11
3.830
21
9.592
0
0
LINE
8
0
10
3.830
20
9.592
11
5.320
21
9.592
0
0
LINE
8
0
10
5.320
20
9.592
11
5.330
21
9.592
0
0
LINE
8
0
10
5.330
20
9.592
11
5.628
21
9.592
0
0
LINE
8
0
10
5.628
20
9.592
11
5.630
21
9.592
0
0
LINE
8
0
10
5.630
20
9.592
11
7.120
21
9.592
0
0
LINE
8
0
10
7.120
20
9.592
11
7.130
21
9.592
0
0
LINE
8
0
10
7.130
20
9.592
11
7.428
21
9.592
0
0
LINE
8
0
10
7.428
20
9.592
11
7.430
21
9.592
0
0
LINE
8
0
10
7.430
20
9.592
11
8.920
21
9.592
0
0
LINE
8
0
10
8.920
20
9.592
11
8.930
21
9.592
0
0
LINE
8
0
10
8.930
20
9.592
11
9.228
21
9.592
0
0
LINE
8
0
10
9.228
20
9.592
11
9.230
21
9.592
0
0
LINE
8
0
10
9.230
20
9.592
11
10.720
21
9.592
0
0
LINE
8
0
10
10.720
20
9.592
11
10.730
21
9.592
0
0
LINE
8
0
10
10.730
20
9.592
11
11.028
21
9.592
0
0
LINE
8
0
10
11.028
20
9.592
11
11.030
21
9.592
0
0
LINE
8
0
10
11.030
20
9.592
11
12.520
21
9.592
0
0
LINE
8
0
10
12.520
20
9.592
11
12.530
21
9.592
0
0
LINE
8
0
10
12.530
20
9.592
11
12.828
21
9.592
0
0
LINE
8
0
10
12.828
20
9.592
11
12.830
21
9.592
0
0
LINE
8
0
10
12.830
20
9.592
11
14.320
21
9.592
0
0
LINE
8
0
10
14.320
20
9.592
11
14.328
21
9.592
0
0
LINE
8
0
10
14.328
20
9.592
11
14.626
21
9.592
0
0
LINE
8
0
10
0.514
20
10.092
11
0.516
21
10.092
0
0
LINE
8
0
10
0.514
20
10.092
11
0.516
21
10.092
0
0
LINE
8
0
10
0.516
20
10.092
11
1.720
21
10.092
0
0
LINE
8
0
10
1.720
20
10.092
11
1.730
21
10.092
0
0
LINE
8
0
10
1.730
20
10.092
11
2.028
21
10.092
0
0
LINE
8
0
10
2.028
20
10.092
11
2.030
21
10.092
0
0
LINE
8
0
10
2.030
20
10.092
11
3.520
21
10.092
0
0
LINE
8
0
10
3.520
20
10.092
11
3.530
21
10.092
0
0
LINE
8
0
10
3.530
20
10.092
11
3.828
21
10.092
0
0
LINE
8
0
10
3.828
20
10.092
11
3.830
21
10.092
0
0
LINE
8
0
10
3.830
20
10.092
11
5.320
21
10.092
0
0
LINE
8
0
10
5.320
20
10.092
11
5.330
21
10.092
0
0
LINE
8
0
10
5.330
20
10.092
11
5.628
21
10.092
0
0
LINE
8
0
10
5.628
20
10.092
11
5.630
21
10.092
0
0
LINE
8
0
10
5.630
20
10.092
11
7.120
21
10.092
0
0
LINE
8
0
10
7.120
20
10.092
11
7.130
21
10.092
0
0
LINE
8
0
10
7.130
20
10.092
11
7.428
21
10.092
0
0
LINE
8
0
10
7.428
20
10.092
11
7.430
21
10.092
0
0
LINE
8
0
10
7.430
20
10.092
11
8.920
21
10.092
0
0
LINE
8
0
10
8.920
20
10.092
11
8.930
21
10.092
0
0
LINE
8
0
10
8.930
20
10.092
11
9.228
21
10.092
0
0
LINE
8
0
10
9.228
20
10.092
11
9.230
21
10.092
0
0
LINE
8
0
10
9.230
20
10.092
11
10.720
21
10.092
0
0
LINE
8
0
10
10.720
20
10.092
11
10.730
21
10.092
0
0
LINE
8
0
10
10.730
20
10.092
11
11.028
21
10.092
0
0
LINE
8
0
10
11.028
20
10.092
11
11.030
21
10.092
0
0
LINE
8
0
10
11.030
20
10.092
11
12.520
21
10.092
0
0
LINE
8
0
10
12.520
20
10.092
11
12.530
21
10.092
0
0
LINE
8
0
10
12.530
20
10.092
11
12.828
21
10.092
0
0
LINE
8
0
10
12.828
20
10.092
11
12.830
21
10.092
0
0
LINE
8
0
10
12.830
20
10.092
11
14.320
21
10.092
0
0
LINE
8
0
10
14.320
20
10.092
11
14.328
21
10.092
0
0
LINE
8
0
10
14.328
20
10.092
11
14.626
21
10.092
0
0
LINE
8
0
10
0.499
20
10.592
11
0.501
21
10.592
0
0
LINE
8
0
10
0.499
20
10.592
11
0.501
21
10.592
0
0
LINE
8
0
10
0.501
20
10.592
11
1.720
21
10.592
0
0
LINE
8
0
10
1.720
20
10.592
11
1.730
21
10.592
0
0
LINE
8
0
10
1.730
20
10.592
11
2.028
21
10.592
0
0
LINE
8
0
10
2.028
20
10.592
11
2.030
21
10.592
0
0
LINE
8
0
10
2.030
20
10.592
11
3.520
21
10.592
0
0
LINE
8
0
10
3.520
20
10.592
11
3.530
21
10.592
0
0
LINE
8
0
10
3.530
20
10.592
11
3.828
21
10.592
0
0
LINE
8
0
10
3.828
20
10.592
11
3.830
21
10.592
0
0
LINE
8
0
10
3.830
20
10.592
11
5.320
21
10.592
0
0
LINE
8
0
10
5.320
20
10.592
11
5.330
21
10.592
0
0
LINE
8
0
10
5.330
20
10.592
11
5.628
21
10.592
0
0
LINE
8
0
10
5.628
20
10.592
11
5.630
21
10.592
0
0
LINE
8
0
10
5.630
20
10.592
11
7.120
21
10.592
0
0
LINE
8
0
10
7.120
20
10.592
11
7.130
21
10.592
0
0
LINE
8
0
10
7.130
20
10.592
11
7.428
21
10.592
0
0
LINE
8
0
10
7.428
20
10.592
11
7.430
21
10.592
0
0
LINE
8
0
10
7.430
20
10.592
11
8.920
21
10.592
0
0
LINE
8
0
10
8.920
20
10.592
11
8.930
21
10.592
0
0
LINE
8
0
10
8.930
20
10.592
11
9.228
21
10.592
0
0
LINE
8
0
10
9.228
20
10.592
11
9.230
21
10.592
0
0
LINE
8
0
10
9.230
20
10.592
11
10.720
21
10.592
0
0
LINE
8
0
10
10.720
20
10.592
11
10.730
21
10.592
0
0
LINE
8
0
10
10.730
20
10.592
11
11.028
21
10.592
0
0
LINE
8
0
10
11.028
20
10.592
11
11.030
21
10.592
0
0
LINE
8
0
10
11.030
20
10.592
11
12.520
21
10.592
0
0
LINE
8
0
10
12.520
20
10.592
11
12.530
21
10.592
0
0
LINE
8
0
10
12.530
20
10.592
11
12.828
21
10.592
0
0
LINE
8
0
10
12.828
20
10.592
11
12.830
21
10.592
0
0
LINE
8
0
10
12.830
20
10.592
11
14.320
21
10.592
0
0
LINE
8
0
10
14.320
20
10.592
11
14.328
21
10.592
0
0
LINE
8
0
10
14.328
20
10.592
11
14.626
21
10.592
0
0
LINE
8
0
10
0.484
20
11.092
11
0.486
21
11.092
0
0
LINE
8
0
10
0.484
20
11.092
11
0.486
21
11.092
0
0
LINE
8
0
10
0.486
20
11.092
11
1.720
21
11.092
0
0
LINE
8
0
10
1.720
20
11.092
11
1.730
21
11.092
0
0
LINE
8
0
10
1.730
20
11.092
11
2.028
21
11.092
0
0
LINE
8
0
10
2.028
20
11.092
11
2.030
21
11.092
0
0
LINE
8
0
10
2.030
20
11.092
11
3.520
21
11.092
0
0
LINE
8
0
10
3.520
20
11.092
11
3.530
21
11.092
0
0
LINE
8
0
10
3.530
20
11.092
11
3.828
21
11.092
0
0
LINE
8
0
10
3.828
20
11.092
11
3.830
21
11.092
0
0
LINE
8
0
10
3.830
20
11.092
11
5.320
21
11.092
0
0
LINE
8
0
10
5.320
20
11.092
11
5.330
21
11.092
0
0
LINE
8
0
10
5.330
20
11.092
11
5.628
21
11.092
0
0
LINE
8
0
10
5.628
20
11.092
11
5.630
21
11.092
0
0
LINE
8
0
10
5.630
20
11.092
11
7.120
21
11.092
0
0
LINE
8
0
10
7.120
20
11.092
11
7.130
21
11.092
0
0
LINE
8
0
10
7.130
20
11.092
11
7.428
21
11.092
0
0
LINE
8
0
10
7.428
20
11.092
11
7.430
21
11.092
0
0
LINE
8
0
10
7.430
20
11.092
11
8.920
21
11.092
0
0
LINE
8
0
10
8.920
20
11.092
11
8.930
21
11.092
0
0
LINE
8
0
10
8.930
20
11.092
11
9.228
21
11.092
0
0
LINE
8
0
10
9.228
20
11.092
11
9.230
21
11.092
0
0
LINE
8
0
10
9.230
20
11.092
11
10.720
21
11.092
0
0
LINE
8
0
10
10.720
20
11.092
11
10.730
21
11.092
0
0
LINE
8
0
10
10.730
20
11.092
11
11.028
21
11.092
0
0
LINE
8
0
10
11.028
20
11.092
11
11.030
21
11.092
0
0
LINE
8
0
10
11.030
20
11.092
11
12.520
21
11.092
0
0
LINE
8
0
10
12.520
20
11.092
11
12.530
21
11.092
0
0
LINE
8
0
10
12.530
20
11.092
11
12.828
21
11.092
0
0
LINE
8
0
10
12.828
20
11.092
11
12.830
21
11.092
0
0
LINE
8
0
10
12.830
20
11.092
11
14.320
21
11.092
0
0
LINE
8
0
10
14.320
20
11.092
11
14.328
21
11.092
0
0
LINE
8
0
10
14.328
20
11.092
11
14.626
21
11.092
0
0
LINE
8
0
10
0.468
20
11.592
11
0.470
21
11.592
0
0
LINE
8
0
10
0.468
20
11.592
11
0.470
21
11.592
0
0
LINE
8
0
10
0.470
20
11.592
11
1.720
21
11.592
0
0
LINE
8
0
10
1.720
20
11.592
11
1.729
21
11.592
0
0
LINE
8
0
10
1.729
20
11.592
11
2.028
21
11.592
0
0
LINE
8
0
10
2.028
20
11.592
11
2.029
21
11.592
0
0
LINE
8
0
10
2.029
20
11.592
11
3.520
21
11.592
0
0
LINE
8
0
10
3.520
20
11.592
11
3.529
21
11.592
0
0
LINE
8
0
10
3.529
20
11.592
11
3.828
21
11.592
0
0
LINE
8
0
10
3.828
20
11.592
11
3.829
21
11.592
0
0
LINE
8
0
10
3.829
20
11.592
11
5.320
21
11.592
0
0
LINE
8
0
10
5.320
20
11.592
11
5.329
21
11.592
0
0
LINE
8
0
10
5.329
20
11.592
11
5.628
21
11.592
0
0
LINE
8
0
10
5.628
20
11.592
11
5.629
21
11.592
0
0
LINE
8
0
10
5.629
20
11.592
11
7.120
21
11.592
0
0
LINE
8
0
10
7.120
20
11.592
11
7.129
21
11.592
0
0
LINE
8
0
10
7.129
20
11.592
11
7.428
21
11.592
0
0
LINE
8
0
10
7.428
20
11.592
11
7.429
21
11.592
0
0
LINE
8
0
10
7.429
20
11.592
11
8.920
21
11.592
0
0
LINE
8
0
10
8.920
20
11.592
11
8.929
21
11.592
0
0
LINE
8
0
10
8.929
20
11.592
11
9.228
21
11.592
0
0
LINE
8
0
10
9.228
20
11.592
11
9.229
21
11.592
0
0
LINE
8
0
10
9.229
20
11.592
11
10.720
21
11.592
0
0
LINE
8
0
10
10.720
20
11.592
11
10.729
21
11.592
0
0
LINE
8
0
10
10.729
20
11.592
11
11.028
21
11.592
0
0
LINE
8
0
10
11.028
20
11.592
11
11.029
21
11.592
0
0
LINE
8
0
10
11.029
20
11.592
11
12.520
21
11.592
0
0
LINE
8
0
10
12.520
20
11.592
11
12.529
21
11.592
0
0
LINE
8
0
10
12.529
20
11.592
11
12.828
21
11.592
0
0
LINE
8
0
10
12.828
20
11.592
11
12.829
21
11.592
0
0
LINE
8
0
10
12.829
20
11.592
11
14.320
21
11.592
0
0
LINE
8
0
10
14.320
20
11.592
11
14.328
21
11.592
0
0
LINE
8
0
10
14.328
20
11.592
11
14.626
21
11.592
0
0
LINE
8
0
10
0.453
20
12.092
11
0.455
21
12.092
0
0
LINE
8
0
10
0.453
20
12.092
11
0.455
21
12.092
0
0
LINE
8
0
10
0.455
20
12.092
11
1.720
21
12.092
0
0
LINE
8
0
10
1.720
20
12.092
11
1.729
21
12.092
0
0
LINE
8
0
10
1.729
20
12.092
11
2.027
21
12.092
0
0
LINE
8
0
10
2.027
20
12.092
11
2.029
21
12.092
0
0
LINE
8
0
10
2.029
20
12.092
11
3.520
21
12.092
0
0
LINE
8
0
10
3.520
20
12.092
11
3.529
21
12.092
0
0
LINE
8
0
10
3.529
20
12.092
11
3.827
21
12.092
0
0
LINE
8
0
10
3.827
20
12.092
11
3.829
21
12.092
0
0
LINE
8
0
10
3.829
20
12.092
11
5.320
21
12.092
0
0
LINE
8
0
10
5.320
20
12.092
11
5.329
21
12.092
0
0
LINE
8
0
10
5.329
20
12.092
11
5.627
21
12.092
0
0
LINE
8
0
10
5.627
20
12.092
11
5.629
21
12.092
0
0
LINE
8
0
10
5.629
20
12.092
11
7.120
21
12.092
0
0
LINE
8
0
10
7.120
20
12.092
11
7.129
21
12.092
0
0
LINE
8
0
10
7.129
20
12.092
11
7.427
21
12.092
0
0
LINE
8
0
10
7.427
20
12.092
11
7.429
21
12.092
0
0
LINE
8
0
10
7.429
20
12.092
11
8.920
21
12.092
0
0
LINE
8
0
10
8.920
20
12.092
11
8.929
21
12.092
0
0
LINE
8
0
10
8.929
20
12.092
11
9.227
21
12.092
0
0
LINE
8
0
10
9.227
20
12.092
11
9.229
21
12.092
0
0
LINE
8
0
10
9.229
20
12.092
11
10.720
21
12.092
0
0
LINE
8
0
10
10.720
20
12.092
11
10.729
21
12.092
0
0
LINE
8
0
10
10.729
20
12.092
11
11.027
21
12.092
0
0
LINE
8
0
10
11.027
20
12.092
11
11.029
21
12.092
0
0
LINE
8
0
10
11.029
20
12.092
11
12.520
21
12.092
0
0
LINE
8
0
10
12.520
20
12.092
11
12.529
21
12.092
0
0
LINE
8
0
10
12.529
20
12.092
11
12.827
21
12.092
0
0
LINE
8
0
10
12.827
20
12.092
11
12.829
21
12.092
0
0
LINE
8
0
10
12.829
20
12.092
11
14.320
21
12.092
0
0
LINE
8
0
10
14.320
20
12.092
11
14.328
21
12.092
0
0
LINE
8
0
10
14.328
20
12.092
11
14.626
21
12.092
0
0
LINE
8
0
10
0.438
20
12.592
11
0.440
21
12.592
0
0
LINE
8
0
10
0.438
20
12.592
11
0.440
21
12.592
0
0
LINE
8
0
10
0.440
20
12.592
11
1.720
21
12.592
0
0
LINE
8
0
10
1.720
20
12.592
11
1.729
21
12.592
0
0
LINE
8
0
10
1.729
20
12.592
11
2.027
21
12.592
0
0
LINE
8
0
10
2.027
20
12.592
11
2.029
21
12.592
0
0
LINE
8
0
10
2.029
20
12.592
11
3.520
21
12.592
0
0
LINE
8
0
10
3.520
20
12.592
11
3.529
21
12.592
0
0
LINE
8
0
10
3.529
20
12.592
11
3.827
21
12.592
0
0
LINE
8
0
10
3.827
20
12.592
11
3.829
21
12.592
0
0
LINE
8
0
10
3.829
20
12.592
11
5.320
21
12.592
0
0
LINE
8
0
10
5.320
20
12.592
11
5.329
21
12.592
0
0
LINE
8
0
10
5.329
20
12.592
11
5.627
21
12.592
0
0
LINE
8
0
10
5.627
20
12.592
11
5.629
21
12.592
0
0
LINE
8
0
10
5.629
20
12.592
11
7.120
21
12.592
0
0
LINE
8
0
10
7.120
20
12.592
11
7.129
21
12.592
0
0
LINE
8
0
10
7.129
20
12.592
11
7.427
21
12.592
0
0
LINE
8
0
10
7.427
20
12.592
11
7.429
21
12.592
0
0
LINE
8
0
10
7.429
20
12.592
11
8.920
21
12.592
0
0
LINE
8
0
10
8.920
20
12.592
11
8.929
21
12.592
0
0
LINE
8
0
10
8.929
20
12.592
11
9.227
21
12.592
0
0
LINE
8
0
10
9.227
20
12.592
11
9.229
21
12.592
0
0
LINE
8
0
10
9.229
20
12.592
11
10.720
21
12.592
0
0
LINE
8
0
10
10.720
20
12.592
11
10.729
21
12.592
0
0
LINE
8
0
10
10.729
20
12.592
11
11.027
21
12.592
0
0
LINE
8
0
10
11.027
20
12.592
11
11.029
21
12.592
0
0
LINE
8
0
10
11.029
20
12.592
11
12.520
21
12.592
0
0
LINE
8
0
10
12.520
20
12.592
11
12.529
21
12.592
0
0
LINE
8
0
10
12.529
20
12.592
11
12.827
21
12.592
0
0
LINE
8
0
10
12.827
20
12.592
11
12.829
21
12.592
0
0
LINE
8
0
10
12.829
20
12.592
11
14.320
21
12.592
0
0
LINE
8
0
10
14.320
20
12.592
11
14.328
21
12.592
0
0
LINE
8
0
10
14.328
20
12.592
11
14.626
21
12.592
0
0
LINE
8
0
10
0.451
20
13.092
11
0.453
21
13.092
0
0
LINE
8
0
10
0.451
20
13.092
11
0.453
21
13.092
0
0
LINE
8
0
10
0.453
20
13.092
11
1.720
21
13.092
0
0
LINE
8
0
10
1.720
20
13.092
11
1.729
21
13.092
0
0
LINE
8
0
10
1.729
20
13.092
11
2.027
21
13.092
0
0
LINE
8
0
10
2.027
20
13.092
11
2.029
21
13.092
0
0
LINE
8
0
10
2.029
20
13.092
11
3.520
21
13.092
0
0
LINE
8
0
10
3.520
20
13.092
11
3.529
21
13.092
0
0
LINE
8
0
10
3.529
20
13.092
11
3.827
21
13.092
0
0
LINE
8
0
10
3.827
20
13.092
11
3.829
21
13.092
0
0
LINE
8
0
10
3.829
20
13.092
11
5.320
21
13.092
0
0
LINE
8
0
10
5.320
20
13.092
11
5.329
21
13.092
0
0
LINE
8
0
10
5.329
20
13.092
11
5.627
21
13.092
0
0
LINE
8
0
10
5.627
20
13.092
11
5.629
21
13.092
0
0
LINE
8
0
10
5.629
20
13.092
11
7.120
21
13.092
0
0
LINE
8
0
10
7.120
20
13.092
11
7.129
21
13.092
0
0
LINE
8
0
10
7.129
20
13.092
11
7.427
21
13.092
0
0
LINE
8
0
10
7.427
20
13.092
11
7.429
21
13.092
0
0
LINE
8
0
10
7.429
20
13.092
11
8.920
21
13.092
0
0
LINE
8
0
10
8.920
20
13.092
11
8.929
21
13.092
0
0
LINE
8
0
10
8.929
20
13.092
11
9.227
21
13.092
0
0
LINE
8
0
10
9.227
20
13.092
11
9.229
21
13.092
0
0
LINE
8
0
10
9.229
20
13.092
11
10.720
21
13.092
0
0
LINE
8
0
10
10.720
20
13.092
11
10.729
21
13.092
0
0
LINE
8
0
10
10.729
20
13.092
11
11.027
21
13.092
0
0
LINE
8
0
10
11.027
20
13.092
11
11.029
21
13.092
0
0
LINE
8
0
10
11.029
20
13.092
11
12.520
21
13.092
0
0
LINE
8
0
10
12.520
20
13.092
11
12.529
21
13.092
0
0
LINE
8
0
10
12.529
20
13.092
11
12.827
21
13.092
0
0
LINE
8
0
10
12.827
20
13.092
11
12.829
21
13.092
0
0
LINE
8
0
10
12.829
20
13.092
11
14.320
21
13.092
0
0
LINE
8
0
10
14.320
20
13.092
11
14.328
21
13.092
0
0
LINE
8
0
10
14.328
20
13.092
11
14.626
21
13.092
0
0
LINE
8
0
10
0.511
20
13.592
11
0.513
21
13.592
0
0
LINE
8
0
10
0.511
20
13.592
11
0.513
21
13.592
0
0
LINE
8
0
10
0.513
20
13.592
11
1.720
21
13.592
0
0
LINE
8
0
10
1.720
20
13.592
11
1.730
21
13.592
0
0
LINE
8
0
10
1.730
20
13.592
11
2.028
21
13.592
0
0
LINE
8
0
10
2.028
20
13.592
11
2.030
21
13.592
0
0
LINE
8
0
10
2.030
20
13.592
11
3.520
21
13.592
0
0
LINE
8
0
10
3.520
20
13.592
11
3.530
21
13.592
0
0
LINE
8
0
10
3.530
20
13.592
11
3.828
21
13.592
0
0
LINE
8
0
10
3.828
20
13.592
11
3.830
21
13.592
0
0
LINE
8
0
10
3.830
20
13.592
11
5.320
21
13.592
0
0
LINE
8
0
10
5.320
20
13.592
11
5.330
21
13.592
0
0
LINE
8
0
10
5.330
20
13.592
11
5.628
21
13.592
0
0
LINE
8
0
10
5.628
20
13.592
11
5.630
21
13.592
0
0
LINE
8
0
10
5.630
20
13.592
11
7.120
21
13.592
0
0
LINE
8
0
10
7.120
20
13.592
11
7.130
21
13.592
0
0
LINE
8
0
10
7.130
20
13.592
11
7.428
21
13.592
0
0
LINE
8
0
10
7.428
20
13.592
11
7.430
21
13.592
0
0
LINE
8
0
10
7.430
20
13.592
11
8.920
21
13.592
0
0
LINE
8
0
10
8.920
20
13.592
11
8.930
21
13.592
0
0
LINE
8
0
10
8.930
20
13.592
11
9.228
21
13.592
0
0
LINE
8
0
10
9.228
20
13.592
11
9.230
21
13.592
0
0
LINE
8
0
10
9.230
20
13.592
11
10.720
21
13.592
0
0
LINE
8
0
10
10.720
20
13.592
11
10.730
21
13.592
0
0
LINE
8
0
10
10.730
20
13.592
11
11.028
21
13.592
0
0
LINE
8
0
10
11.028
20
13.592
11
11.030
21
13.592
0
0
LINE
8
0
10
11.030
20
13.592
11
12.520
21
13.592
0
0
LINE
8
0
10
12.520
20
13.592
11
12.530
21
13.592
0
0
LINE
8
0
10
12.530
20
13.592
11
12.828
21
13.592
0
0
LINE
8
0
10
12.828
20
13.592
11
12.830
21
13.592
0
0
LINE
8
0
10
12.830
20
13.592
11
14.320
21
13.592
0
0
LINE
8
0
10
14.320
20
13.592
11
14.328
21
13.592
0
0
LINE
8
0
10
14.328
20
13.592
11
14.626
21
13.592
0
0
LINE
8
0
10
0.654
20
14.092
11
0.656
21
14.092
0
0
LINE
8
0
10
0.654
20
14.092
11
0.656
21
14.092
0
0
LINE
8
0
10
0.656
20
14.092
11
1.721
21
14.092
0
0
LINE
8
0
10
1.721
20
14.092
11
1.731
21
14.092
0
0
LINE
8
0
10
1.731
20
14.092
11
2.029
21
14.092
0
0
LINE
8
0
10
2.029
20
14.092
11
2.031
21
14.092
0
0
LINE
8
0
10
2.031
20
14.092
11
3.521
21
14.092
0
0
LINE
8
0
10
3.521
20
14.092
11
3.531
21
14.092
0
0
LINE
8
0
10
3.531
20
14.092
11
3.829
21
14.092
0
0
LINE
8
0
10
3.829
20
14.092
11
3.831
21
14.092
0
0
LINE
8
0
10
3.831
20
14.092
11
5.321
21
14.092
0
0
LINE
8
0
10
5.321
20
14.092
11
5.331
21
14.092
0
0
LINE
8
0
10
5.331
20
14.092
11
5.629
21
14.092
0
0
LINE
8
0
10
5.629
20
14.092
11
5.631
21
14.092
0
0
LINE
8
0
10
5.631
20
14.092
11
7.121
21
14.092
0
0
LINE
8
0
10
7.121
20
14.092
11
7.131
21
14.092
0
0
LINE
8
0
10
7.131
20
14.092
11
7.429
21
14.092
0
0
LINE
8
0
10
7.429
20
14.092
11
7.431
21
14.092
0
0
LINE
8
0
10
7.431
20
14.092
11
8.921
21
14.092
0
0
LINE
8
0
10
8.921
20
14.092
11
8.931
21
14.092
0
0
LINE
8
0
10
8.931
20
14.092
11
9.229
21
14.092
0
0
LINE
8
0
10
9.229
20
14.092
11
9.231
21
14.092
0
0
LINE
8
0
10
9.231
20
14.092
11
10.721
21
14.092
0
0
LINE
8
0
10
10.721
20
14.092
11
10.731
21
14.092
0
0
LINE
8
0
10
10.731
20
14.092
11
11.029
21
14.092
0
0
LINE
8
0
10
11.029
20
14.092
11
11.031
21
14.092
0
0
LINE
8
0
10
11.031
20
14.092
11
12.521
21
14.092
0
0
LINE
8
0
10
12.521
20
14.092
11
12.531
21
14.092
0
0
LINE
8
0
10
12.531
20
14.092
11
12.829
21
14.092
0
0
LINE
8
0
10
12.829
20
14.092
11
12.831
21
14.092
0
0
LINE
8
0
10
12.831
20
14.092
11
14.321
21
14.092
0
0
LINE
8
0
10
14.321
20
14.092
11
14.328
21
14.092
0
0
LINE
8
0
10
14.328
20
14.092
11
14.626
21
14.092
0
0
LINE
8
0
10
1.221
20
14.592
11
1.223
21
14.592
0
0
LINE
8
0
10
1.221
20
14.592
11
1.223
21
14.592
0
0
LINE
8
0
10
1.223
20
14.592
11
1.725
21
14.592
0
0
LINE
8
0
10
1.725
20
14.592
11
2.023
21
14.592
0
0
LINE
8
0
10
2.023
20
14.592
11
2.032
21
14.592
0
0
LINE
8
0
10
2.032
20
14.592
11
3.523
21
14.592
0
0
LINE
8
0
10
3.523
20
14.592
11
3.525
21
14.592
0
0
LINE
8
0
10
3.525
20
14.592
11
3.823
21
14.592
0
0
LINE
8
0
10
3.823
20
14.592
11
3.832
21
14.592
0
0
LINE
8
0
10
3.832
20
14.592
11
5.323
21
14.592
0
0
LINE
8
0
10
5.323
20
14.592
11
5.325
21
14.592
0
0
LINE
8
0
10
5.325
20
14.592
11
5.623
21
14.592
0
0
LINE
8
0
10
5.623
20
14.592
11
5.628
21
14.592
0
0
LINE
8
0
10
5.628
20
14.592
11
5.630
21
14.592
0
0
LINE
8
0
10
5.630
20
14.592
11
7.120
21
14.592
0
0
LINE
8
0
10
7.120
20
14.592
11
7.130
21
14.592
0
0
LINE
8
0
10
7.130
20
14.592
11
7.428
21
14.592
0
0
LINE
8
0
10
7.428
20
14.592
11
7.430
21
14.592
0
0
LINE
8
0
10
7.430
20
14.592
11
8.920
21
14.592
0
0
LINE
8
0
10
8.920
20
14.592
11
8.930
21
14.592
0
0
LINE
8
0
10
8.930
20
14.592
11
9.228
21
14.592
0
0
LINE
8
0
10
9.228
20
14.592
11
9.230
21
14.592
0
0
LINE
8
0
10
9.230
20
14.592
11
10.720
21
14.592
0
0
LINE
8
0
10
10.720
20
14.592
11
10.730
21
14.592
0
0
LINE
8
0
10
10.730
20
14.592
11
11.028
21
14.592
0
0
LINE
8
0
10
11.028
20
14.592
11
11.030
21
14.592
0
0
LINE
8
0
10
11.030
20
14.592
11
12.520
21
14.592
0
0
LINE
8
0
10
12.520
20
14.592
11
12.530
21
14.592
0
0
LINE
8
0
10
12.530
20
14.592
11
12.828
21
14.592
0
0
LINE
8
0
10
12.828
20
14.592
11
12.830
21
14.592
0
0
LINE
8
0
10
12.830
20
14.592
11
14.320
21
14.592
0
0
LINE
8
0
10
14.320
20
14.592
11
14.328
21
14.592
0
0
LINE
8
0
10
14.328
20
14.592
11
14.626
21
14.592
0
0
ENDSEC
0
EOF
