0
SECTION
2
ENTITIES
0
LINE
8
0
10
2.409
20
0.432
11
7.082
21
0.579
0
0
LINE
8
0
10
7.082
20
0.579
11
12.850
21
0.449
0
0
LINE
8
0
10
12.850
20
0.449
11
13.972
21
0.608
0
0
LINE
8
0
10
13.972
20
0.608
11
14.315
21
0.799
0
0
LINE
8
0
10
14.315
20
0.799
11
14.638
21
1.390
0
0
LINE
8
0
10
14.638
20
1.390
11
14.749
21
2.331
0
0
LINE
8
0
10
14.749
20
2.331
11
14.626
21
14.591
0
0
LINE
8
0
10
14.626
20
14.591
11
2.375
21
14.749
0
0
LINE
8
0
10
2.375
20
14.749
11
1.244
21
14.603
0
0
LINE
8
0
10
1.244
20
14.603
11
0.808
21
14.328
0
0
LINE
8
0
10
0.808
20
14.328
11
0.518
21
13.633
0
0
LINE
8
0
10
0.518
20
13.633
11
0.436
21
12.694
0
0
LINE
8
0
10
0.436
20
12.694
11
0.581
21
7.769
0
0
LINE
8
0
10
0.581
20
7.769
11
0.467
21
2.009
0
0
LINE
8
0
10
0.467
20
2.009
11
0.807
21
0.857
0
0
LINE
8
0
10
0.807
20
0.857
11
1.331
21
0.559
0
0
LINE
8
0
10
1.331
20
0.559
11
2.409
21
0.432
0
0
LINE
8
0
10
2.409
20
0.432
11
2.409
21
0.432
0
0
LINE
8
0
10
2.409
20
0.432
11
7.082
21
0.579
0
0
LINE
8
0
10
7.082
20
0.579
11
12.850
21
0.449
0
0
LINE
8
0
10
12.850
20
0.449
11
13.972
21
0.608
0
0
LINE
8
0
10
13.972
20
0.608
11
14.315
21
0.799
0
0
LINE
8
0
10
14.315
20
0.799
11
14.638
21
1.390
0
0
LINE
8
0
10
14.638
20
1.390
11
14.749
21
2.331
0
0
LINE
8
0
10
14.749
20
2.331
11
14.626
21
14.591
0
0
LINE
8
0
10
14.626
20
14.591
11
2.375
21
14.749
0
0
LINE
8
0
10
2.375
20
14.749
11
1.244
21
14.603
0
0
LINE
8
0
10
1.244
20
14.603
11
0.808
21
14.328
0
0
LINE
8
0
10
0.808
20
14.328
11
0.518
21
13.633
0
0
LINE
8
0
10
0.518
20
13.633
11
0.436
21
12.694
0
0
LINE
8
0
10
0.436
20
12.694
11
0.581
21
7.769
0
0
LINE
8
0
10
0.581
20
7.769
11
0.467
21
2.009
0
0
LINE
8
0
10
0.467
20
2.009
11
0.807
21
0.857
0
0
LINE
8
0
10
0.807
20
0.857
11
1.331
21
0.559
0
0
LINE
8
0
10
1.331
20
0.559
11
2.409
21
0.432
0
0
LINE
8
0
10
2.409
20
0.432
11
2.409
21
0.432
0
0
LINE
8
0
10
0.593
20
1.254
11
0.593
21
1.289
0
0
LINE
8
0
10
0.593
20
1.254
11
0.593
21
1.289
0
0
LINE
8
0
10
0.593
20
1.289
11
0.593
21
1.448
0
0
LINE
8
0
10
0.593
20
1.448
11
0.593
21
2.154
0
0
LINE
8
0
10
0.593
20
2.154
11
0.593
21
2.948
0
0
LINE
8
0
10
0.593
20
2.948
11
0.593
21
3.089
0
0
LINE
8
0
10
0.593
20
3.089
11
0.593
21
3.248
0
0
LINE
8
0
10
0.593
20
3.248
11
0.593
21
3.954
0
0
LINE
8
0
10
0.593
20
3.954
11
0.593
21
4.748
0
0
LINE
8
0
10
0.593
20
4.748
11
0.593
21
4.889
0
0
LINE
8
0
10
0.593
20
4.889
11
0.593
21
5.048
0
0
LINE
8
0
10
0.593
20
5.048
11
0.593
21
5.754
0
0
LINE
8
0
10
0.593
20
5.754
11
0.593
21
6.548
0
0
LINE
8
0
10
0.593
20
6.548
11
0.593
21
6.689
0
0
LINE
8
0
10
0.593
20
6.689
11
0.593
21
6.848
0
0
LINE
8
0
10
0.593
20
6.848
11
0.593
21
7.554
0
0
LINE
8
0
10
0.593
20
7.554
11
0.593
21
8.348
0
0
LINE
8
0
10
0.593
20
8.348
11
0.593
21
8.489
0
0
LINE
8
0
10
0.593
20
8.489
11
0.593
21
8.648
0
0
LINE
8
0
10
0.593
20
8.648
11
0.593
21
9.354
0
0
LINE
8
0
10
0.593
20
9.354
11
0.593
21
10.148
0
0
LINE
8
0
10
0.593
20
10.148
11
0.593
21
10.289
0
0
LINE
8
0
10
0.593
20
10.289
11
0.593
21
10.448
0
0
LINE
8
0
10
0.593
20
10.448
11
0.593
21
11.154
0
0
LINE
8
0
10
0.593
20
11.154
11
0.593
21
11.948
0
0
LINE
8
0
10
0.593
20
11.948
11
0.593
21
12.089
0
0
LINE
8
0
10
0.593
20
12.089
11
0.593
21
12.248
0
0
LINE
8
0
10
0.593
20
12.248
11
0.593
21
12.954
0
0
LINE
8
0
10
0.593
20
12.954
11
0.593
21
13.748
0
0
LINE
8
0
10
0.593
20
13.748
11
0.593
21
13.889
0
0
LINE
8
0
10
0.593
20
13.889
11
0.593
21
13.929
0
0
LINE
8
0
10
1.093
20
0.654
11
1.093
21
0.813
0
0
LINE
8
0
10
1.093
20
0.654
11
1.093
21
0.813
0
0
LINE
8
0
10
1.093
20
0.813
11
1.093
21
1.275
0
0
LINE
8
0
10
1.093
20
1.275
11
1.093
21
2.069
0
0
LINE
8
0
10
1.093
20
2.069
11
1.093
21
2.210
0
0
LINE
8
0
10
1.093
20
2.210
11
1.093
21
2.369
0
0
LINE
8
0
10
1.093
20
2.369
11
1.093
21
3.075
0
0
LINE
8
0
10
1.093
20
3.075
11
1.093
21
3.869
0
0
LINE
8
0
10
1.093
20
3.869
11
1.093
21
4.010
0
0
LINE
8
0
10
1.093
20
4.010
11
1.093
21
4.169
0
0
LINE
8
0
10
1.093
20
4.169
11
1.093
21
4.875
0
0
LINE
8
0
10
1.093
20
4.875
11
1.093
21
5.669
0
0
LINE
8
0
10
1.093
20
5.669
11
1.093
21
5.810
0
0
LINE
8
0
10
1.093
20
5.810
11
1.093
21
5.969
0
0
LINE
8
0
10
1.093
20
5.969
11
1.093
21
6.675
0
0
LINE
8
0
10
1.093
20
6.675
11
1.093
21
7.469
0
0
LINE
8
0
10
1.093
20
7.469
11
1.093
21
7.610
0
0
LINE
8
0
10
1.093
20
7.610
11
1.093
21
7.769
0
0
LINE
8
0
10
1.093
20
7.769
11
1.093
21
8.475
0
0
LINE
8
0
10
1.093
20
8.475
11
1.093
21
9.269
0
0
LINE
8
0
10
1.093
20
9.269
11
1.093
21
9.410
0
0
LINE
8
0
10
1.093
20
9.410
11
1.093
21
9.569
0
0
LINE
8
0
10
1.093
20
9.569
11
1.093
21
10.275
0
0
LINE
8
0
10
1.093
20
10.275
11
1.093
21
11.069
0
0
LINE
8
0
10
1.093
20
11.069
11
1.093
21
11.210
0
0
LINE
8
0
10
1.093
20
11.210
11
1.093
21
11.369
0
0
LINE
8
0
10
1.093
20
11.369
11
1.093
21
12.075
0
0
LINE
8
0
10
1.093
20
12.075
11
1.093
21
12.869
0
0
LINE
8
0
10
1.093
20
12.869
11
1.093
21
13.010
0
0
LINE
8
0
10
1.093
20
13.010
11
1.093
21
13.169
0
0
LINE
8
0
10
1.093
20
13.169
11
1.093
21
13.875
0
0
LINE
8
0
10
1.093
20
13.875
11
1.093
21
14.395
0
0
LINE
8
0
10
1.093
20
14.395
11
1.093
21
14.537
0
0
LINE
8
0
10
1.593
20
0.504
11
1.593
21
0.663
0
0
LINE
8
0
10
1.593
20
0.504
11
1.593
21
0.663
0
0
LINE
8
0
10
1.593
20
0.663
11
1.593
21
1.271
0
0
LINE
8
0
10
1.593
20
1.271
11
1.593
21
2.064
0
0
LINE
8
0
10
1.593
20
2.064
11
1.593
21
2.206
0
0
LINE
8
0
10
1.593
20
2.206
11
1.593
21
2.364
0
0
LINE
8
0
10
1.593
20
2.364
11
1.593
21
3.071
0
0
LINE
8
0
10
1.593
20
3.071
11
1.593
21
3.864
0
0
LINE
8
0
10
1.593
20
3.864
11
1.593
21
4.006
0
0
LINE
8
0
10
1.593
20
4.006
11
1.593
21
4.164
0
0
LINE
8
0
10
1.593
20
4.164
11
1.593
21
4.871
0
0
LINE
8
0
10
1.593
20
4.871
11
1.593
21
5.664
0
0
LINE
8
0
10
1.593
20
5.664
11
1.593
21
5.806
0
0
LINE
8
0
10
1.593
20
5.806
11
1.593
21
5.964
0
0
LINE
8
0
10
1.593
20
5.964
11
1.593
21
6.671
0
0
LINE
8
0
10
1.593
20
6.671
11
1.593
21
7.464
0
0
LINE
8
0
10
1.593
20
7.464
11
1.593
21
7.606
0
0
LINE
8
0
10
1.593
20
7.606
11
1.593
21
7.764
0
0
LINE
8
0
10
1.593
20
7.764
11
1.593
21
8.471
0
0
LINE
8
0
10
1.593
20
8.471
11
1.593
21
9.264
0
0
LINE
8
0
10
1.593
20
9.264
11
1.593
21
9.406
0
0
LINE
8
0
10
1.593
20
9.406
11
1.593
21
9.564
0
0
LINE
8
0
10
1.593
20
9.564
11
1.593
21
10.271
0
0
LINE
8
0
10
1.593
20
10.271
11
1.593
21
11.064
0
0
LINE
8
0
10
1.593
20
11.064
11
1.593
21
11.206
0
0
LINE
8
0
10
1.593
20
11.206
11
1.593
21
11.364
0
0
LINE
8
0
10
1.593
20
11.364
11
1.593
21
12.071
0
0
LINE
8
0
10
1.593
20
12.071
11
1.593
21
12.864
0
0
LINE
8
0
10
1.593
20
12.864
11
1.593
21
13.006
0
0
LINE
8
0
10
1.593
20
13.006
11
1.593
21
13.164
0
0
LINE
8
0
10
1.593
20
13.164
11
1.593
21
13.871
0
0
LINE
8
0
10
1.593
20
13.871
11
1.593
21
14.554
0
0
LINE
8
0
10
1.593
20
14.554
11
1.593
21
14.695
0
0
LINE
8
0
10
2.093
20
0.446
11
2.093
21
0.447
0
0
LINE
8
0
10
2.093
20
0.446
11
2.093
21
0.447
0
0
LINE
8
0
10
2.093
20
0.447
11
2.093
21
0.605
0
0
LINE
8
0
10
2.093
20
0.605
11
2.093
21
1.263
0
0
LINE
8
0
10
2.093
20
1.263
11
2.093
21
2.057
0
0
LINE
8
0
10
2.093
20
2.057
11
2.093
21
2.198
0
0
LINE
8
0
10
2.093
20
2.198
11
2.093
21
2.356
0
0
LINE
8
0
10
2.093
20
2.356
11
2.093
21
3.063
0
0
LINE
8
0
10
2.093
20
3.063
11
2.093
21
3.857
0
0
LINE
8
0
10
2.093
20
3.857
11
2.093
21
3.998
0
0
LINE
8
0
10
2.093
20
3.998
11
2.093
21
4.156
0
0
LINE
8
0
10
2.093
20
4.156
11
2.093
21
4.863
0
0
LINE
8
0
10
2.093
20
4.863
11
2.093
21
5.657
0
0
LINE
8
0
10
2.093
20
5.657
11
2.093
21
5.798
0
0
LINE
8
0
10
2.093
20
5.798
11
2.093
21
5.956
0
0
LINE
8
0
10
2.093
20
5.956
11
2.093
21
6.663
0
0
LINE
8
0
10
2.093
20
6.663
11
2.093
21
7.457
0
0
LINE
8
0
10
2.093
20
7.457
11
2.093
21
7.598
0
0
LINE
8
0
10
2.093
20
7.598
11
2.093
21
7.756
0
0
LINE
8
0
10
2.093
20
7.756
11
2.093
21
8.463
0
0
LINE
8
0
10
2.093
20
8.463
11
2.093
21
9.257
0
0
LINE
8
0
10
2.093
20
9.257
11
2.093
21
9.398
0
0
LINE
8
0
10
2.093
20
9.398
11
2.093
21
9.556
0
0
LINE
8
0
10
2.093
20
9.556
11
2.093
21
10.263
0
0
LINE
8
0
10
2.093
20
10.263
11
2.093
21
11.057
0
0
LINE
8
0
10
2.093
20
11.057
11
2.093
21
11.198
0
0
LINE
8
0
10
2.093
20
11.198
11
2.093
21
11.356
0
0
LINE
8
0
10
2.093
20
11.356
11
2.093
21
12.063
0
0
LINE
8
0
10
2.093
20
12.063
11
2.093
21
12.857
0
0
LINE
8
0
10
2.093
20
12.857
11
2.093
21
12.998
0
0
LINE
8
0
10
2.093
20
12.998
11
2.093
21
13.156
0
0
LINE
8
0
10
2.093
20
13.156
11
2.093
21
13.863
0
0
LINE
8
0
10
2.093
20
13.863
11
2.093
21
14.602
0
0
LINE
8
0
10
2.093
20
14.602
11
2.093
21
14.743
0
0
LINE
8
0
10
2.093
20
14.743
11
2.093
21
14.744
0
0
LINE
8
0
10
2.593
20
0.437
11
2.593
21
0.596
0
0
LINE
8
0
10
2.593
20
0.437
11
2.593
21
0.596
0
0
LINE
8
0
10
2.593
20
0.596
11
2.593
21
1.257
0
0
LINE
8
0
10
2.593
20
1.257
11
2.593
21
2.051
0
0
LINE
8
0
10
2.593
20
2.051
11
2.593
21
2.192
0
0
LINE
8
0
10
2.593
20
2.192
11
2.593
21
2.350
0
0
LINE
8
0
10
2.593
20
2.350
11
2.593
21
3.057
0
0
LINE
8
0
10
2.593
20
3.057
11
2.593
21
3.851
0
0
LINE
8
0
10
2.593
20
3.851
11
2.593
21
3.992
0
0
LINE
8
0
10
2.593
20
3.992
11
2.593
21
4.150
0
0
LINE
8
0
10
2.593
20
4.150
11
2.593
21
4.857
0
0
LINE
8
0
10
2.593
20
4.857
11
2.593
21
5.651
0
0
LINE
8
0
10
2.593
20
5.651
11
2.593
21
5.792
0
0
LINE
8
0
10
2.593
20
5.792
11
2.593
21
5.950
0
0
LINE
8
0
10
2.593
20
5.950
11
2.593
21
6.657
0
0
LINE
8
0
10
2.593
20
6.657
11
2.593
21
7.451
0
0
LINE
8
0
10
2.593
20
7.451
11
2.593
21
7.592
0
0
LINE
8
0
10
2.593
20
7.592
11
2.593
21
7.750
0
0
LINE
8
0
10
2.593
20
7.750
11
2.593
21
8.457
0
0
LINE
8
0
10
2.593
20
8.457
11
2.593
21
9.251
0
0
LINE
8
0
10
2.593
20
9.251
11
2.593
21
9.392
0
0
LINE
8
0
10
2.593
20
9.392
11
2.593
21
9.550
0
0
LINE
8
0
10
2.593
20
9.550
11
2.593
21
10.257
0
0
LINE
8
0
10
2.593
20
10.257
11
2.593
21
11.051
0
0
LINE
8
0
10
2.593
20
11.051
11
2.593
21
11.192
0
0
LINE
8
0
10
2.593
20
11.192
11
2.593
21
11.350
0
0
LINE
8
0
10
2.593
20
11.350
11
2.593
21
12.057
0
0
LINE
8
0
10
2.593
20
12.057
11
2.593
21
12.851
0
0
LINE
8
0
10
2.593
20
12.851
11
2.593
21
12.992
0
0
LINE
8
0
10
2.593
20
12.992
11
2.593
21
13.150
0
0
LINE
8
0
10
2.593
20
13.150
11
2.593
21
13.857
0
0
LINE
8
0
10
2.593
20
13.857
11
2.593
21
14.601
0
0
LINE
8
0
10
2.593
20
14.601
11
2.593
21
14.742
0
0
LINE
8
0
10
3.093
20
0.453
11
3.093
21
0.612
0
0
LINE
8
0
10
3.093
20
0.453
11
3.093
21
0.612
0
0
LINE
8
0
10
3.093
20
0.612
11
3.093
21
1.257
0
0
LINE
8
0
10
3.093
20
1.257
11
3.093
21
2.051
0
0
LINE
8
0
10
3.093
20
2.051
11
3.093
21
2.192
0
0
LINE
8
0
10
3.093
20
2.192
11
3.093
21
2.351
0
0
LINE
8
0
10
3.093
20
2.351
11
3.093
21
3.057
0
0
LINE
8
0
10
3.093
20
3.057
11
3.093
21
3.851
0
0
LINE
8
0
10
3.093
20
3.851
11
3.093
21
3.992
0
0
LINE
8
0
10
3.093
20
3.992
11
3.093
21
4.151
0
0
LINE
8
0
10
3.093
20
4.151
11
3.093
21
4.857
0
0
LINE
8
0
10
3.093
20
4.857
11
3.093
21
5.651
0
0
LINE
8
0
10
3.093
20
5.651
11
3.093
21
5.792
0
0
LINE
8
0
10
3.093
20
5.792
11
3.093
21
5.951
0
0
LINE
8
0
10
3.093
20
5.951
11
3.093
21
6.657
0
0
LINE
8
0
10
3.093
20
6.657
11
3.093
21
7.451
0
0
LINE
8
0
10
3.093
20
7.451
11
3.093
21
7.592
0
0
LINE
8
0
10
3.093
20
7.592
11
3.093
21
7.751
0
0
LINE
8
0
10
3.093
20
7.751
11
3.093
21
8.457
0
0
LINE
8
0
10
3.093
20
8.457
11
3.093
21
9.251
0
0
LINE
8
0
10
3.093
20
9.251
11
3.093
21
9.392
0
0
LINE
8
0
10
3.093
20
9.392
11
3.093
21
9.551
0
0
LINE
8
0
10
3.093
20
9.551
11
3.093
21
10.257
0
0
LINE
8
0
10
3.093
20
10.257
11
3.093
21
11.051
0
0
LINE
8
0
10
3.093
20
11.051
11
3.093
21
11.192
0
0
LINE
8
0
10
3.093
20
11.192
11
3.093
21
11.351
0
0
LINE
8
0
10
3.093
20
11.351
11
3.093
21
12.057
0
0
LINE
8
0
10
3.093
20
12.057
11
3.093
21
12.851
0
0
LINE
8
0
10
3.093
20
12.851
11
3.093
21
12.992
0
0
LINE
8
0
10
3.093
20
12.992
11
3.093
21
13.151
0
0
LINE
8
0
10
3.093
20
13.151
11
3.093
21
13.857
0
0
LINE
8
0
10
3.093
20
13.857
11
3.093
21
14.583
0
0
LINE
8
0
10
3.093
20
14.583
11
3.093
21
14.724
0
0
LINE
8
0
10
3.593
20
0.469
11
3.593
21
0.628
0
0
LINE
8
0
10
3.593
20
0.469
11
3.593
21
0.628
0
0
LINE
8
0
10
3.593
20
0.628
11
3.593
21
1.258
0
0
LINE
8
0
10
3.593
20
1.258
11
3.593
21
2.051
0
0
LINE
8
0
10
3.593
20
2.051
11
3.593
21
2.193
0
0
LINE
8
0
10
3.593
20
2.193
11
3.593
21
2.351
0
0
LINE
8
0
10
3.593
20
2.351
11
3.593
21
3.058
0
0
LINE
8
0
10
3.593
20
3.058
11
3.593
21
3.851
0
0
LINE
8
0
10
3.593
20
3.851
11
3.593
21
3.993
0
0
LINE
8
0
10
3.593
20
3.993
11
3.593
21
4.151
0
0
LINE
8
0
10
3.593
20
4.151
11
3.593
21
4.858
0
0
LINE
8
0
10
3.593
20
4.858
11
3.593
21
5.651
0
0
LINE
8
0
10
3.593
20
5.651
11
3.593
21
5.793
0
0
LINE
8
0
10
3.593
20
5.793
11
3.593
21
5.951
0
0
LINE
8
0
10
3.593
20
5.951
11
3.593
21
6.658
0
0
LINE
8
0
10
3.593
20
6.658
11
3.593
21
7.451
0
0
LINE
8
0
10
3.593
20
7.451
11
3.593
21
7.593
0
0
LINE
8
0
10
3.593
20
7.593
11
3.593
21
7.751
0
0
LINE
8
0
10
3.593
20
7.751
11
3.593
21
8.458
0
0
LINE
8
0
10
3.593
20
8.458
11
3.593
21
9.251
0
0
LINE
8
0
10
3.593
20
9.251
11
3.593
21
9.393
0
0
LINE
8
0
10
3.593
20
9.393
11
3.593
21
9.551
0
0
LINE
8
0
10
3.593
20
9.551
11
3.593
21
10.258
0
0
LINE
8
0
10
3.593
20
10.258
11
3.593
21
11.051
0
0
LINE
8
0
10
3.593
20
11.051
11
3.593
21
11.193
0
0
LINE
8
0
10
3.593
20
11.193
11
3.593
21
11.351
0
0
LINE
8
0
10
3.593
20
11.351
11
3.593
21
12.058
0
0
LINE
8
0
10
3.593
20
12.058
11
3.593
21
12.851
0
0
LINE
8
0
10
3.593
20
12.851
11
3.593
21
12.993
0
0
LINE
8
0
10
3.593
20
12.993
11
3.593
21
13.151
0
0
LINE
8
0
10
3.593
20
13.151
11
3.593
21
13.858
0
0
LINE
8
0
10
3.593
20
13.858
11
3.593
21
14.566
0
0
LINE
8
0
10
3.593
20
14.566
11
3.593
21
14.707
0
0
LINE
8
0
10
4.093
20
0.484
11
4.093
21
0.643
0
0
LINE
8
0
10
4.093
20
0.484
11
4.093
21
0.643
0
0
LINE
8
0
10
4.093
20
0.643
11
4.093
21
1.257
0
0
LINE
8
0
10
4.093
20
1.257
11
4.093
21
2.051
0
0
LINE
8
0
10
4.093
20
2.051
11
4.093
21
2.193
0
0
LINE
8
0
10
4.093
20
2.193
11
4.093
21
2.351
0
0
LINE
8
0
10
4.093
20
2.351
11
4.093
21
3.057
0
0
LINE
8
0
10
4.093
20
3.057
11
4.093
21
3.851
0
0
LINE
8
0
10
4.093
20
3.851
11
4.093
21
3.993
0
0
LINE
8
0
10
4.093
20
3.993
11
4.093
21
4.151
0
0
LINE
8
0
10
4.093
20
4.151
11
4.093
21
4.857
0
0
LINE
8
0
10
4.093
20
4.857
11
4.093
21
5.651
0
0
LINE
8
0
10
4.093
20
5.651
11
4.093
21
5.793
0
0
LINE
8
0
10
4.093
20
5.793
11
4.093
21
5.951
0
0
LINE
8
0
10
4.093
20
5.951
11
4.093
21
6.657
0
0
LINE
8
0
10
4.093
20
6.657
11
4.093
21
7.451
0
0
LINE
8
0
10
4.093
20
7.451
11
4.093
21
7.593
0
0
LINE
8
0
10
4.093
20
7.593
11
4.093
21
7.751
0
0
LINE
8
0
10
4.093
20
7.751
11
4.093
21
8.457
0
0
LINE
8
0
10
4.093
20
8.457
11
4.093
21
9.251
0
0
LINE
8
0
10
4.093
20
9.251
11
4.093
21
9.393
0
0
LINE
8
0
10
4.093
20
9.393
11
4.093
21
9.551
0
0
LINE
8
0
10
4.093
20
9.551
11
4.093
21
10.257
0
0
LINE
8
0
10
4.093
20
10.257
11
4.093
21
11.051
0
0
LINE
8
0
10
4.093
20
11.051
11
4.093
21
11.193
0
0
LINE
8
0
10
4.093
20
11.193
11
4.093
21
11.351
0
0
LINE
8
0
10
4.093
20
11.351
11
4.093
21
12.057
0
0
LINE
8
0
10
4.093
20
12.057
11
4.093
21
12.851
0
0
LINE
8
0
10
4.093
20
12.851
11
4.093
21
12.993
0
0
LINE
8
0
10
4.093
20
12.993
11
4.093
21
13.151
0
0
LINE
8
0
10
4.093
20
13.151
11
4.093
21
13.857
0
0
LINE
8
0
10
4.093
20
13.857
11
4.093
21
14.548
0
0
LINE
8
0
10
4.093
20
14.548
11
4.093
21
14.690
0
0
LINE
8
0
10
4.593
20
0.500
11
4.593
21
0.659
0
0
LINE
8
0
10
4.593
20
0.500
11
4.593
21
0.659
0
0
LINE
8
0
10
4.593
20
0.659
11
4.593
21
1.258
0
0
LINE
8
0
10
4.593
20
1.258
11
4.593
21
2.051
0
0
LINE
8
0
10
4.593
20
2.051
11
4.593
21
2.193
0
0
LINE
8
0
10
4.593
20
2.193
11
4.593
21
2.351
0
0
LINE
8
0
10
4.593
20
2.351
11
4.593
21
3.058
0
0
LINE
8
0
10
4.593
20
3.058
11
4.593
21
3.851
0
0
LINE
8
0
10
4.593
20
3.851
11
4.593
21
3.993
0
0
LINE
8
0
10
4.593
20
3.993
11
4.593
21
4.151
0
0
LINE
8
0
10
4.593
20
4.151
11
4.593
21
4.858
0
0
LINE
8
0
10
4.593
20
4.858
11
4.593
21
5.651
0
0
LINE
8
0
10
4.593
20
5.651
11
4.593
21
5.793
0
0
LINE
8
0
10
4.593
20
5.793
11
4.593
21
5.951
0
0
LINE
8
0
10
4.593
20
5.951
11
4.593
21
6.658
0
0
LINE
8
0
10
4.593
20
6.658
11
4.593
21
7.451
0
0
LINE
8
0
10
4.593
20
7.451
11
4.593
21
7.593
0
0
LINE
8
0
10
4.593
20
7.593
11
4.593
21
7.751
0
0
LINE
8
0
10
4.593
20
7.751
11
4.593
21
8.458
0
0
LINE
8
0
10
4.593
20
8.458
11
4.593
21
9.251
0
0
LINE
8
0
10
4.593
20
9.251
11
4.593
21
9.393
0
0
LINE
8
0
10
4.593
20
9.393
11
4.593
21
9.551
0
0
LINE
8
0
10
4.593
20
9.551
11
4.593
21
10.258
0
0
LINE
8
0
10
4.593
20
10.258
11
4.593
21
11.051
0
0
LINE
8
0
10
4.593
20
11.051
11
4.593
21
11.193
0
0
LINE
8
0
10
4.593
20
11.193
11
4.593
21
11.351
0
0
LINE
8
0
10
4.593
20
11.351
11
4.593
21
12.058
0
0
LINE
8
0
10
4.593
20
12.058
11
4.593
21
12.851
0
0
LINE
8
0
10
4.593
20
12.851
11
4.593
21
12.993
0
0
LINE
8
0
10
4.593
20
12.993
11
4.593
21
13.151
0
0
LINE
8
0
10
4.593
20
13.151
11
4.593
21
13.858
0
0
LINE
8
0
10
4.593
20
13.858
11
4.593
21
14.531
0
0
LINE
8
0
10
4.593
20
14.531
11
4.593
21
14.672
0
0
LINE
8
0
10
5.093
20
0.516
11
5.093
21
0.675
0
0
LINE
8
0
10
5.093
20
0.516
11
5.093
21
0.675
0
0
LINE
8
0
10
5.093
20
0.675
11
5.093
21
1.258
0
0
LINE
8
0
10
5.093
20
1.258
11
5.093
21
2.052
0
0
LINE
8
0
10
5.093
20
2.052
11
5.093
21
2.193
0
0
LINE
8
0
10
5.093
20
2.193
11
5.093
21
2.352
0
0
LINE
8
0
10
5.093
20
2.352
11
5.093
21
3.058
0
0
LINE
8
0
10
5.093
20
3.058
11
5.093
21
3.852
0
0
LINE
8
0
10
5.093
20
3.852
11
5.093
21
3.993
0
0
LINE
8
0
10
5.093
20
3.993
11
5.093
21
4.152
0
0
LINE
8
0
10
5.093
20
4.152
11
5.093
21
4.858
0
0
LINE
8
0
10
5.093
20
4.858
11
5.093
21
5.652
0
0
LINE
8
0
10
5.093
20
5.652
11
5.093
21
5.793
0
0
LINE
8
0
10
5.093
20
5.793
11
5.093
21
5.952
0
0
LINE
8
0
10
5.093
20
5.952
11
5.093
21
6.658
0
0
LINE
8
0
10
5.093
20
6.658
11
5.093
21
7.452
0
0
LINE
8
0
10
5.093
20
7.452
11
5.093
21
7.593
0
0
LINE
8
0
10
5.093
20
7.593
11
5.093
21
7.752
0
0
LINE
8
0
10
5.093
20
7.752
11
5.093
21
8.458
0
0
LINE
8
0
10
5.093
20
8.458
11
5.093
21
9.252
0
0
LINE
8
0
10
5.093
20
9.252
11
5.093
21
9.393
0
0
LINE
8
0
10
5.093
20
9.393
11
5.093
21
9.552
0
0
LINE
8
0
10
5.093
20
9.552
11
5.093
21
10.258
0
0
LINE
8
0
10
5.093
20
10.258
11
5.093
21
11.052
0
0
LINE
8
0
10
5.093
20
11.052
11
5.093
21
11.193
0
0
LINE
8
0
10
5.093
20
11.193
11
5.093
21
11.352
0
0
LINE
8
0
10
5.093
20
11.352
11
5.093
21
12.058
0
0
LINE
8
0
10
5.093
20
12.058
11
5.093
21
12.852
0
0
LINE
8
0
10
5.093
20
12.852
11
5.093
21
12.993
0
0
LINE
8
0
10
5.093
20
12.993
11
5.093
21
13.152
0
0
LINE
8
0
10
5.093
20
13.152
11
5.093
21
13.858
0
0
LINE
8
0
10
5.093
20
13.858
11
5.093
21
14.514
0
0
LINE
8
0
10
5.093
20
14.514
11
5.093
21
14.655
0
0
LINE
8
0
10
5.593
20
0.532
11
5.593
21
0.691
0
0
LINE
8
0
10
5.593
20
0.532
11
5.593
21
0.691
0
0
LINE
8
0
10
5.593
20
0.691
11
5.593
21
1.258
0
0
LINE
8
0
10
5.593
20
1.258
11
5.593
21
2.052
0
0
LINE
8
0
10
5.593
20
2.052
11
5.593
21
2.193
0
0
LINE
8
0
10
5.593
20
2.193
11
5.593
21
2.352
0
0
LINE
8
0
10
5.593
20
2.352
11
5.593
21
3.058
0
0
LINE
8
0
10
5.593
20
3.058
11
5.593
21
3.852
0
0
LINE
8
0
10
5.593
20
3.852
11
5.593
21
3.993
0
0
LINE
8
0
10
5.593
20
3.993
11
5.593
21
4.152
0
0
LINE
8
0
10
5.593
20
4.152
11
5.593
21
4.858
0
0
LINE
8
0
10
5.593
20
4.858
11
5.593
21
5.652
0
0
LINE
8
0
10
5.593
20
5.652
11
5.593
21
5.793
0
0
LINE
8
0
10
5.593
20
5.793
11
5.593
21
5.952
0
0
LINE
8
0
10
5.593
20
5.952
11
5.593
21
6.658
0
0
LINE
8
0
10
5.593
20
6.658
11
5.593
21
7.452
0
0
LINE
8
0
10
5.593
20
7.452
11
5.593
21
7.593
0
0
LINE
8
0
10
5.593
20
7.593
11
5.593
21
7.752
0
0
LINE
8
0
10
5.593
20
7.752
11
5.593
21
8.458
0
0
LINE
8
0
10
5.593
20
8.458
11
5.593
21
9.252
0
0
LINE
8
0
10
5.593
20
9.252
11
5.593
21
9.393
0
0
LINE
8
0
10
5.593
20
9.393
11
5.593
21
9.552
0
0
LINE
8
0
10
5.593
20
9.552
11
5.593
21
10.258
0
0
LINE
8
0
10
5.593
20
10.258
11
5.593
21
11.052
0
0
LINE
8
0
10
5.593
20
11.052
11
5.593
21
11.193
0
0
LINE
8
0
10
5.593
20
11.193
11
5.593
21
11.352
0
0
LINE
8
0
10
5.593
20
11.352
11
5.593
21
12.058
0
0
LINE
8
0
10
5.593
20
12.058
11
5.593
21
12.852
0
0
LINE
8
0
10
5.593
20
12.852
11
5.593
21
12.993
0
0
LINE
8
0
10
5.593
20
12.993
11
5.593
21
13.152
0
0
LINE
8
0
10
5.593
20
13.152
11
5.593
21
13.858
0
0
LINE
8
0
10
5.593
20
13.858
11
5.593
21
14.496
0
0
LINE
8
0
10
5.593
20
14.496
11
5.593
21
14.637
0
0
LINE
8
0
10
6.093
20
0.548
11
6.093
21
0.707
0
0
LINE
8
0
10
6.093
20
0.548
11
6.093
21
0.707
0
0
LINE
8
0
10
6.093
20
0.707
11
6.093
21
1.261
0
0
LINE
8
0
10
6.093
20
1.261
11
6.093
21
2.055
0
0
LINE
8
0
10
6.093
20
2.055
11
6.093
21
2.196
0
0
LINE
8
0
10
6.093
20
2.196
11
6.093
21
2.355
0
0
LINE
8
0
10
6.093
20
2.355
11
6.093
21
3.061
0
0
LINE
8
0
10
6.093
20
3.061
11
6.093
21
3.855
0
0
LINE
8
0
10
6.093
20
3.855
11
6.093
21
3.996
0
0
LINE
8
0
10
6.093
20
3.996
11
6.093
21
4.155
0
0
LINE
8
0
10
6.093
20
4.155
11
6.093
21
4.861
0
0
LINE
8
0
10
6.093
20
4.861
11
6.093
21
5.655
0
0
LINE
8
0
10
6.093
20
5.655
11
6.093
21
5.796
0
0
LINE
8
0
10
6.093
20
5.796
11
6.093
21
5.955
0
0
LINE
8
0
10
6.093
20
5.955
11
6.093
21
6.661
0
0
LINE
8
0
10
6.093
20
6.661
11
6.093
21
7.455
0
0
LINE
8
0
10
6.093
20
7.455
11
6.093
21
7.596
0
0
LINE
8
0
10
6.093
20
7.596
11
6.093
21
7.755
0
0
LINE
8
0
10
6.093
20
7.755
11
6.093
21
8.461
0
0
LINE
8
0
10
6.093
20
8.461
11
6.093
21
9.255
0
0
LINE
8
0
10
6.093
20
9.255
11
6.093
21
9.396
0
0
LINE
8
0
10
6.093
20
9.396
11
6.093
21
9.555
0
0
LINE
8
0
10
6.093
20
9.555
11
6.093
21
10.261
0
0
LINE
8
0
10
6.093
20
10.261
11
6.093
21
11.055
0
0
LINE
8
0
10
6.093
20
11.055
11
6.093
21
11.196
0
0
LINE
8
0
10
6.093
20
11.196
11
6.093
21
11.355
0
0
LINE
8
0
10
6.093
20
11.355
11
6.093
21
12.061
0
0
LINE
8
0
10
6.093
20
12.061
11
6.093
21
12.855
0
0
LINE
8
0
10
6.093
20
12.855
11
6.093
21
12.996
0
0
LINE
8
0
10
6.093
20
12.996
11
6.093
21
13.155
0
0
LINE
8
0
10
6.093
20
13.155
11
6.093
21
13.861
0
0
LINE
8
0
10
6.093
20
13.861
11
6.093
21
14.484
0
0
LINE
8
0
10
6.093
20
14.484
11
6.093
21
14.625
0
0
LINE
8
0
10
6.593
20
0.563
11
6.593
21
0.564
0
0
LINE
8
0
10
6.593
20
0.563
11
6.593
21
0.564
0
0
LINE
8
0
10
6.593
20
0.564
11
6.593
21
0.722
0
0
LINE
8
0
10
6.593
20
0.722
11
6.593
21
1.269
0
0
LINE
8
0
10
6.593
20
1.269
11
6.593
21
2.064
0
0
LINE
8
0
10
6.593
20
2.064
11
6.593
21
2.205
0
0
LINE
8
0
10
6.593
20
2.205
11
6.593
21
2.363
0
0
LINE
8
0
10
6.593
20
2.363
11
6.593
21
3.069
0
0
LINE
8
0
10
6.593
20
3.069
11
6.593
21
3.864
0
0
LINE
8
0
10
6.593
20
3.864
11
6.593
21
4.005
0
0
LINE
8
0
10
6.593
20
4.005
11
6.593
21
4.163
0
0
LINE
8
0
10
6.593
20
4.163
11
6.593
21
4.869
0
0
LINE
8
0
10
6.593
20
4.869
11
6.593
21
5.664
0
0
LINE
8
0
10
6.593
20
5.664
11
6.593
21
5.805
0
0
LINE
8
0
10
6.593
20
5.805
11
6.593
21
5.963
0
0
LINE
8
0
10
6.593
20
5.963
11
6.593
21
6.669
0
0
LINE
8
0
10
6.593
20
6.669
11
6.593
21
7.464
0
0
LINE
8
0
10
6.593
20
7.464
11
6.593
21
7.605
0
0
LINE
8
0
10
6.593
20
7.605
11
6.593
21
7.763
0
0
LINE
8
0
10
6.593
20
7.763
11
6.593
21
8.469
0
0
LINE
8
0
10
6.593
20
8.469
11
6.593
21
9.264
0
0
LINE
8
0
10
6.593
20
9.264
11
6.593
21
9.405
0
0
LINE
8
0
10
6.593
20
9.405
11
6.593
21
9.563
0
0
LINE
8
0
10
6.593
20
9.563
11
6.593
21
10.269
0
0
LINE
8
0
10
6.593
20
10.269
11
6.593
21
11.064
0
0
LINE
8
0
10
6.593
20
11.064
11
6.593
21
11.205
0
0
LINE
8
0
10
6.593
20
11.205
11
6.593
21
11.363
0
0
LINE
8
0
10
6.593
20
11.363
11
6.593
21
12.069
0
0
LINE
8
0
10
6.593
20
12.069
11
6.593
21
12.864
0
0
LINE
8
0
10
6.593
20
12.864
11
6.593
21
13.005
0
0
LINE
8
0
10
6.593
20
13.005
11
6.593
21
13.163
0
0
LINE
8
0
10
6.593
20
13.163
11
6.593
21
13.869
0
0
LINE
8
0
10
6.593
20
13.869
11
6.593
21
14.485
0
0
LINE
8
0
10
6.593
20
14.485
11
6.593
21
14.626
0
0
LINE
8
0
10
7.093
20
0.579
11
7.093
21
0.738
0
0
LINE
8
0
10
7.093
20
0.579
11
7.093
21
0.738
0
0
LINE
8
0
10
7.093
20
0.738
11
7.093
21
1.278
0
0
LINE
8
0
10
7.093
20
1.278
11
7.093
21
2.072
0
0
LINE
8
0
10
7.093
20
2.072
11
7.093
21
2.213
0
0
LINE
8
0
10
7.093
20
2.213
11
7.093
21
2.372
0
0
LINE
8
0
10
7.093
20
2.372
11
7.093
21
3.078
0
0
LINE
8
0
10
7.093
20
3.078
11
7.093
21
3.872
0
0
LINE
8
0
10
7.093
20
3.872
11
7.093
21
4.013
0
0
LINE
8
0
10
7.093
20
4.013
11
7.093
21
4.172
0
0
LINE
8
0
10
7.093
20
4.172
11
7.093
21
4.878
0
0
LINE
8
0
10
7.093
20
4.878
11
7.093
21
5.672
0
0
LINE
8
0
10
7.093
20
5.672
11
7.093
21
5.813
0
0
LINE
8
0
10
7.093
20
5.813
11
7.093
21
5.972
0
0
LINE
8
0
10
7.093
20
5.972
11
7.093
21
6.678
0
0
LINE
8
0
10
7.093
20
6.678
11
7.093
21
7.472
0
0
LINE
8
0
10
7.093
20
7.472
11
7.093
21
7.613
0
0
LINE
8
0
10
7.093
20
7.613
11
7.093
21
7.772
0
0
LINE
8
0
10
7.093
20
7.772
11
7.093
21
8.478
0
0
LINE
8
0
10
7.093
20
8.478
11
7.093
21
9.272
0
0
LINE
8
0
10
7.093
20
9.272
11
7.093
21
9.413
0
0
LINE
8
0
10
7.093
20
9.413
11
7.093
21
9.572
0
0
LINE
8
0
10
7.093
20
9.572
11
7.093
21
10.278
0
0
LINE
8
0
10
7.093
20
10.278
11
7.093
21
11.072
0
0
LINE
8
0
10
7.093
20
11.072
11
7.093
21
11.213
0
0
LINE
8
0
10
7.093
20
11.213
11
7.093
21
11.372
0
0
LINE
8
0
10
7.093
20
11.372
11
7.093
21
12.078
0
0
LINE
8
0
10
7.093
20
12.078
11
7.093
21
12.872
0
0
LINE
8
0
10
7.093
20
12.872
11
7.093
21
13.013
0
0
LINE
8
0
10
7.093
20
13.013
11
7.093
21
13.172
0
0
LINE
8
0
10
7.093
20
13.172
11
7.093
21
13.878
0
0
LINE
8
0
10
7.093
20
13.878
11
7.093
21
14.486
0
0
LINE
8
0
10
7.093
20
14.486
11
7.093
21
14.627
0
0
LINE
8
0
10
7.593
20
0.574
11
7.593
21
0.575
0
0
LINE
8
0
10
7.593
20
0.574
11
7.593
21
0.575
0
0
LINE
8
0
10
7.593
20
0.575
11
7.593
21
0.734
0
0
LINE
8
0
10
7.593
20
0.734
11
7.593
21
1.277
0
0
LINE
8
0
10
7.593
20
1.277
11
7.593
21
2.070
0
0
LINE
8
0
10
7.593
20
2.070
11
7.593
21
2.211
0
0
LINE
8
0
10
7.593
20
2.211
11
7.593
21
2.370
0
0
LINE
8
0
10
7.593
20
2.370
11
7.593
21
3.077
0
0
LINE
8
0
10
7.593
20
3.077
11
7.593
21
3.870
0
0
LINE
8
0
10
7.593
20
3.870
11
7.593
21
4.011
0
0
LINE
8
0
10
7.593
20
4.011
11
7.593
21
4.170
0
0
LINE
8
0
10
7.593
20
4.170
11
7.593
21
4.877
0
0
LINE
8
0
10
7.593
20
4.877
11
7.593
21
5.670
0
0
LINE
8
0
10
7.593
20
5.670
11
7.593
21
5.811
0
0
LINE
8
0
10
7.593
20
5.811
11
7.593
21
5.970
0
0
LINE
8
0
10
7.593
20
5.970
11
7.593
21
6.677
0
0
LINE
8
0
10
7.593
20
6.677
11
7.593
21
7.470
0
0
LINE
8
0
10
7.593
20
7.470
11
7.593
21
7.611
0
0
LINE
8
0
10
7.593
20
7.611
11
7.593
21
7.770
0
0
LINE
8
0
10
7.593
20
7.770
11
7.593
21
8.477
0
0
LINE
8
0
10
7.593
20
8.477
11
7.593
21
9.270
0
0
LINE
8
0
10
7.593
20
9.270
11
7.593
21
9.411
0
0
LINE
8
0
10
7.593
20
9.411
11
7.593
21
9.570
0
0
LINE
8
0
10
7.593
20
9.570
11
7.593
21
10.277
0
0
LINE
8
0
10
7.593
20
10.277
11
7.593
21
11.070
0
0
LINE
8
0
10
7.593
20
11.070
11
7.593
21
11.211
0
0
LINE
8
0
10
7.593
20
11.211
11
7.593
21
11.370
0
0
LINE
8
0
10
7.593
20
11.370
11
7.593
21
12.077
0
0
LINE
8
0
10
7.593
20
12.077
11
7.593
21
12.870
0
0
LINE
8
0
10
7.593
20
12.870
11
7.593
21
13.011
0
0
LINE
8
0
10
7.593
20
13.011
11
7.593
21
13.170
0
0
LINE
8
0
10
7.593
20
13.170
11
7.593
21
13.877
0
0
LINE
8
0
10
7.593
20
13.877
11
7.593
21
14.487
0
0
LINE
8
0
10
7.593
20
14.487
11
7.593
21
14.628
0
0
LINE
8
0
10
8.093
20
0.563
11
8.093
21
0.722
0
0
LINE
8
0
10
8.093
20
0.563
11
8.093
21
0.722
0
0
LINE
8
0
10
8.093
20
0.722
11
8.093
21
1.270
0
0
LINE
8
0
10
8.093
20
1.270
11
8.093
21
2.064
0
0
LINE
8
0
10
8.093
20
2.064
11
8.093
21
2.205
0
0
LINE
8
0
10
8.093
20
2.205
11
8.093
21
2.364
0
0
LINE
8
0
10
8.093
20
2.364
11
8.093
21
3.070
0
0
LINE
8
0
10
8.093
20
3.070
11
8.093
21
3.864
0
0
LINE
8
0
10
8.093
20
3.864
11
8.093
21
4.005
0
0
LINE
8
0
10
8.093
20
4.005
11
8.093
21
4.164
0
0
LINE
8
0
10
8.093
20
4.164
11
8.093
21
4.870
0
0
LINE
8
0
10
8.093
20
4.870
11
8.093
21
5.664
0
0
LINE
8
0
10
8.093
20
5.664
11
8.093
21
5.805
0
0
LINE
8
0
10
8.093
20
5.805
11
8.093
21
5.964
0
0
LINE
8
0
10
8.093
20
5.964
11
8.093
21
6.670
0
0
LINE
8
0
10
8.093
20
6.670
11
8.093
21
7.464
0
0
LINE
8
0
10
8.093
20
7.464
11
8.093
21
7.605
0
0
LINE
8
0
10
8.093
20
7.605
11
8.093
21
7.764
0
0
LINE
8
0
10
8.093
20
7.764
11
8.093
21
8.470
0
0
LINE
8
0
10
8.093
20
8.470
11
8.093
21
9.264
0
0
LINE
8
0
10
8.093
20
9.264
11
8.093
21
9.405
0
0
LINE
8
0
10
8.093
20
9.405
11
8.093
21
9.564
0
0
LINE
8
0
10
8.093
20
9.564
11
8.093
21
10.270
0
0
LINE
8
0
10
8.093
20
10.270
11
8.093
21
11.064
0
0
LINE
8
0
10
8.093
20
11.064
11
8.093
21
11.205
0
0
LINE
8
0
10
8.093
20
11.205
11
8.093
21
11.364
0
0
LINE
8
0
10
8.093
20
11.364
11
8.093
21
12.070
0
0
LINE
8
0
10
8.093
20
12.070
11
8.093
21
12.864
0
0
LINE
8
0
10
8.093
20
12.864
11
8.093
21
13.005
0
0
LINE
8
0
10
8.093
20
13.005
11
8.093
21
13.164
0
0
LINE
8
0
10
8.093
20
13.164
11
8.093
21
13.870
0
0
LINE
8
0
10
8.093
20
13.870
11
8.093
21
14.487
0
0
LINE
8
0
10
8.093
20
14.487
11
8.093
21
14.628
0
0
LINE
8
0
10
8.593
20
0.551
11
8.593
21
0.710
0
0
LINE
8
0
10
8.593
20
0.551
11
8.593
21
0.710
0
0
LINE
8
0
10
8.593
20
0.710
11
8.593
21
1.265
0
0
LINE
8
0
10
8.593
20
1.265
11
8.593
21
2.058
0
0
LINE
8
0
10
8.593
20
2.058
11
8.593
21
2.199
0
0
LINE
8
0
10
8.593
20
2.199
11
8.593
21
2.358
0
0
LINE
8
0
10
8.593
20
2.358
11
8.593
21
3.065
0
0
LINE
8
0
10
8.593
20
3.065
11
8.593
21
3.858
0
0
LINE
8
0
10
8.593
20
3.858
11
8.593
21
3.999
0
0
LINE
8
0
10
8.593
20
3.999
11
8.593
21
4.158
0
0
LINE
8
0
10
8.593
20
4.158
11
8.593
21
4.865
0
0
LINE
8
0
10
8.593
20
4.865
11
8.593
21
5.658
0
0
LINE
8
0
10
8.593
20
5.658
11
8.593
21
5.799
0
0
LINE
8
0
10
8.593
20
5.799
11
8.593
21
5.958
0
0
LINE
8
0
10
8.593
20
5.958
11
8.593
21
6.665
0
0
LINE
8
0
10
8.593
20
6.665
11
8.593
21
7.458
0
0
LINE
8
0
10
8.593
20
7.458
11
8.593
21
7.599
0
0
LINE
8
0
10
8.593
20
7.599
11
8.593
21
7.758
0
0
LINE
8
0
10
8.593
20
7.758
11
8.593
21
8.465
0
0
LINE
8
0
10
8.593
20
8.465
11
8.593
21
9.258
0
0
LINE
8
0
10
8.593
20
9.258
11
8.593
21
9.399
0
0
LINE
8
0
10
8.593
20
9.399
11
8.593
21
9.558
0
0
LINE
8
0
10
8.593
20
9.558
11
8.593
21
10.265
0
0
LINE
8
0
10
8.593
20
10.265
11
8.593
21
11.058
0
0
LINE
8
0
10
8.593
20
11.058
11
8.593
21
11.199
0
0
LINE
8
0
10
8.593
20
11.199
11
8.593
21
11.358
0
0
LINE
8
0
10
8.593
20
11.358
11
8.593
21
12.065
0
0
LINE
8
0
10
8.593
20
12.065
11
8.593
21
12.858
0
0
LINE
8
0
10
8.593
20
12.858
11
8.593
21
12.999
0
0
LINE
8
0
10
8.593
20
12.999
11
8.593
21
13.158
0
0
LINE
8
0
10
8.593
20
13.158
11
8.593
21
13.865
0
0
LINE
8
0
10
8.593
20
13.865
11
8.593
21
14.488
0
0
LINE
8
0
10
8.593
20
14.488
11
8.593
21
14.629
0
0
LINE
8
0
10
9.093
20
0.539
11
9.093
21
0.698
0
0
LINE
8
0
10
9.093
20
0.539
11
9.093
21
0.698
0
0
LINE
8
0
10
9.093
20
0.698
11
9.093
21
1.259
0
0
LINE
8
0
10
9.093
20
1.259
11
9.093
21
2.052
0
0
LINE
8
0
10
9.093
20
2.052
11
9.093
21
2.193
0
0
LINE
8
0
10
9.093
20
2.193
11
9.093
21
2.352
0
0
LINE
8
0
10
9.093
20
2.352
11
9.093
21
3.059
0
0
LINE
8
0
10
9.093
20
3.059
11
9.093
21
3.852
0
0
LINE
8
0
10
9.093
20
3.852
11
9.093
21
3.993
0
0
LINE
8
0
10
9.093
20
3.993
11
9.093
21
4.152
0
0
LINE
8
0
10
9.093
20
4.152
11
9.093
21
4.859
0
0
LINE
8
0
10
9.093
20
4.859
11
9.093
21
5.652
0
0
LINE
8
0
10
9.093
20
5.652
11
9.093
21
5.793
0
0
LINE
8
0
10
9.093
20
5.793
11
9.093
21
5.952
0
0
LINE
8
0
10
9.093
20
5.952
11
9.093
21
6.659
0
0
LINE
8
0
10
9.093
20
6.659
11
9.093
21
7.452
0
0
LINE
8
0
10
9.093
20
7.452
11
9.093
21
7.593
0
0
LINE
8
0
10
9.093
20
7.593
11
9.093
21
7.752
0
0
LINE
8
0
10
9.093
20
7.752
11
9.093
21
8.459
0
0
LINE
8
0
10
9.093
20
8.459
11
9.093
21
9.252
0
0
LINE
8
0
10
9.093
20
9.252
11
9.093
21
9.393
0
0
LINE
8
0
10
9.093
20
9.393
11
9.093
21
9.552
0
0
LINE
8
0
10
9.093
20
9.552
11
9.093
21
10.259
0
0
LINE
8
0
10
9.093
20
10.259
11
9.093
21
11.052
0
0
LINE
8
0
10
9.093
20
11.052
11
9.093
21
11.193
0
0
LINE
8
0
10
9.093
20
11.193
11
9.093
21
11.352
0
0
LINE
8
0
10
9.093
20
11.352
11
9.093
21
12.059
0
0
LINE
8
0
10
9.093
20
12.059
11
9.093
21
12.852
0
0
LINE
8
0
10
9.093
20
12.852
11
9.093
21
12.993
0
0
LINE
8
0
10
9.093
20
12.993
11
9.093
21
13.152
0
0
LINE
8
0
10
9.093
20
13.152
11
9.093
21
13.859
0
0
LINE
8
0
10
9.093
20
13.859
11
9.093
21
14.489
0
0
LINE
8
0
10
9.093
20
14.489
11
9.093
21
14.630
0
0
LINE
8
0
10
9.593
20
0.527
11
9.593
21
0.686
0
0
LINE
8
0
10
9.593
20
0.527
11
9.593
21
0.686
0
0
LINE
8
0
10
9.593
20
0.686
11
9.593
21
1.252
0
0
LINE
8
0
10
9.593
20
1.252
11
9.593
21
2.046
0
0
LINE
8
0
10
9.593
20
2.046
11
9.593
21
2.187
0
0
LINE
8
0
10
9.593
20
2.187
11
9.593
21
2.346
0
0
LINE
8
0
10
9.593
20
2.346
11
9.593
21
3.052
0
0
LINE
8
0
10
9.593
20
3.052
11
9.593
21
3.846
0
0
LINE
8
0
10
9.593
20
3.846
11
9.593
21
3.987
0
0
LINE
8
0
10
9.593
20
3.987
11
9.593
21
4.146
0
0
LINE
8
0
10
9.593
20
4.146
11
9.593
21
4.852
0
0
LINE
8
0
10
9.593
20
4.852
11
9.593
21
5.646
0
0
LINE
8
0
10
9.593
20
5.646
11
9.593
21
5.787
0
0
LINE
8
0
10
9.593
20
5.787
11
9.593
21
5.946
0
0
LINE
8
0
10
9.593
20
5.946
11
9.593
21
6.652
0
0
LINE
8
0
10
9.593
20
6.652
11
9.593
21
7.446
0
0
LINE
8
0
10
9.593
20
7.446
11
9.593
21
7.587
0
0
LINE
8
0
10
9.593
20
7.587
11
9.593
21
7.746
0
0
LINE
8
0
10
9.593
20
7.746
11
9.593
21
8.452
0
0
LINE
8
0
10
9.593
20
8.452
11
9.593
21
9.246
0
0
LINE
8
0
10
9.593
20
9.246
11
9.593
21
9.387
0
0
LINE
8
0
10
9.593
20
9.387
11
9.593
21
9.546
0
0
LINE
8
0
10
9.593
20
9.546
11
9.593
21
10.252
0
0
LINE
8
0
10
9.593
20
10.252
11
9.593
21
11.046
0
0
LINE
8
0
10
9.593
20
11.046
11
9.593
21
11.187
0
0
LINE
8
0
10
9.593
20
11.187
11
9.593
21
11.346
0
0
LINE
8
0
10
9.593
20
11.346
11
9.593
21
12.052
0
0
LINE
8
0
10
9.593
20
12.052
11
9.593
21
12.846
0
0
LINE
8
0
10
9.593
20
12.846
11
9.593
21
12.987
0
0
LINE
8
0
10
9.593
20
12.987
11
9.593
21
13.146
0
0
LINE
8
0
10
9.593
20
13.146
11
9.593
21
13.852
0
0
LINE
8
0
10
9.593
20
13.852
11
9.593
21
14.489
0
0
LINE
8
0
10
9.593
20
14.489
11
9.593
21
14.630
0
0
LINE
8
0
10
10.093
20
0.515
11
10.093
21
0.674
0
0
LINE
8
0
10
10.093
20
0.515
11
10.093
21
0.674
0
0
LINE
8
0
10
10.093
20
0.674
11
10.093
21
1.246
0
0
LINE
8
0
10
10.093
20
1.246
11
10.093
21
2.040
0
0
LINE
8
0
10
10.093
20
2.040
11
10.093
21
2.181
0
0
LINE
8
0
10
10.093
20
2.181
11
10.093
21
2.340
0
0
LINE
8
0
10
10.093
20
2.340
11
10.093
21
3.046
0
0
LINE
8
0
10
10.093
20
3.046
11
10.093
21
3.840
0
0
LINE
8
0
10
10.093
20
3.840
11
10.093
21
3.981
0
0
LINE
8
0
10
10.093
20
3.981
11
10.093
21
4.140
0
0
LINE
8
0
10
10.093
20
4.140
11
10.093
21
4.846
0
0
LINE
8
0
10
10.093
20
4.846
11
10.093
21
5.640
0
0
LINE
8
0
10
10.093
20
5.640
11
10.093
21
5.781
0
0
LINE
8
0
10
10.093
20
5.781
11
10.093
21
5.940
0
0
LINE
8
0
10
10.093
20
5.940
11
10.093
21
6.646
0
0
LINE
8
0
10
10.093
20
6.646
11
10.093
21
7.440
0
0
LINE
8
0
10
10.093
20
7.440
11
10.093
21
7.581
0
0
LINE
8
0
10
10.093
20
7.581
11
10.093
21
7.740
0
0
LINE
8
0
10
10.093
20
7.740
11
10.093
21
8.446
0
0
LINE
8
0
10
10.093
20
8.446
11
10.093
21
9.240
0
0
LINE
8
0
10
10.093
20
9.240
11
10.093
21
9.381
0
0
LINE
8
0
10
10.093
20
9.381
11
10.093
21
9.540
0
0
LINE
8
0
10
10.093
20
9.540
11
10.093
21
10.246
0
0
LINE
8
0
10
10.093
20
10.246
11
10.093
21
11.040
0
0
LINE
8
0
10
10.093
20
11.040
11
10.093
21
11.181
0
0
LINE
8
0
10
10.093
20
11.181
11
10.093
21
11.340
0
0
LINE
8
0
10
10.093
20
11.340
11
10.093
21
12.046
0
0
LINE
8
0
10
10.093
20
12.046
11
10.093
21
12.840
0
0
LINE
8
0
10
10.093
20
12.840
11
10.093
21
12.981
0
0
LINE
8
0
10
10.093
20
12.981
11
10.093
21
13.140
0
0
LINE
8
0
10
10.093
20
13.140
11
10.093
21
13.846
0
0
LINE
8
0
10
10.093
20
13.846
11
10.093
21
14.490
0
0
LINE
8
0
10
10.093
20
14.490
11
10.093
21
14.631
0
0
LINE
8
0
10
10.593
20
0.503
11
10.593
21
0.662
0
0
LINE
8
0
10
10.593
20
0.503
11
10.593
21
0.662
0
0
LINE
8
0
10
10.593
20
0.662
11
10.593
21
1.241
0
0
LINE
8
0
10
10.593
20
1.241
11
10.593
21
2.034
0
0
LINE
8
0
10
10.593
20
2.034
11
10.593
21
2.175
0
0
LINE
8
0
10
10.593
20
2.175
11
10.593
21
2.334
0
0
LINE
8
0
10
10.593
20
2.334
11
10.593
21
3.041
0
0
LINE
8
0
10
10.593
20
3.041
11
10.593
21
3.834
0
0
LINE
8
0
10
10.593
20
3.834
11
10.593
21
3.975
0
0
LINE
8
0
10
10.593
20
3.975
11
10.593
21
4.134
0
0
LINE
8
0
10
10.593
20
4.134
11
10.593
21
4.841
0
0
LINE
8
0
10
10.593
20
4.841
11
10.593
21
5.634
0
0
LINE
8
0
10
10.593
20
5.634
11
10.593
21
5.775
0
0
LINE
8
0
10
10.593
20
5.775
11
10.593
21
5.934
0
0
LINE
8
0
10
10.593
20
5.934
11
10.593
21
6.641
0
0
LINE
8
0
10
10.593
20
6.641
11
10.593
21
7.434
0
0
LINE
8
0
10
10.593
20
7.434
11
10.593
21
7.575
0
0
LINE
8
0
10
10.593
20
7.575
11
10.593
21
7.734
0
0
LINE
8
0
10
10.593
20
7.734
11
10.593
21
8.441
0
0
LINE
8
0
10
10.593
20
8.441
11
10.593
21
9.234
0
0
LINE
8
0
10
10.593
20
9.234
11
10.593
21
9.375
0
0
LINE
8
0
10
10.593
20
9.375
11
10.593
21
9.534
0
0
LINE
8
0
10
10.593
20
9.534
11
10.593
21
10.241
0
0
LINE
8
0
10
10.593
20
10.241
11
10.593
21
11.034
0
0
LINE
8
0
10
10.593
20
11.034
11
10.593
21
11.175
0
0
LINE
8
0
10
10.593
20
11.175
11
10.593
21
11.334
0
0
LINE
8
0
10
10.593
20
11.334
11
10.593
21
12.041
0
0
LINE
8
0
10
10.593
20
12.041
11
10.593
21
12.834
0
0
LINE
8
0
10
10.593
20
12.834
11
10.593
21
12.975
0
0
LINE
8
0
10
10.593
20
12.975
11
10.593
21
13.134
0
0
LINE
8
0
10
10.593
20
13.134
11
10.593
21
13.841
0
0
LINE
8
0
10
10.593
20
13.841
11
10.593
21
14.491
0
0
LINE
8
0
10
10.593
20
14.491
11
10.593
21
14.632
0
0
LINE
8
0
10
11.093
20
0.491
11
11.093
21
0.650
0
0
LINE
8
0
10
11.093
20
0.491
11
11.093
21
0.650
0
0
LINE
8
0
10
11.093
20
0.650
11
11.093
21
1.235
0
0
LINE
8
0
10
11.093
20
1.235
11
11.093
21
2.028
0
0
LINE
8
0
10
11.093
20
2.028
11
11.093
21
2.169
0
0
LINE
8
0
10
11.093
20
2.169
11
11.093
21
2.328
0
0
LINE
8
0
10
11.093
20
2.328
11
11.093
21
3.035
0
0
LINE
8
0
10
11.093
20
3.035
11
11.093
21
3.828
0
0
LINE
8
0
10
11.093
20
3.828
11
11.093
21
3.969
0
0
LINE
8
0
10
11.093
20
3.969
11
11.093
21
4.128
0
0
LINE
8
0
10
11.093
20
4.128
11
11.093
21
4.835
0
0
LINE
8
0
10
11.093
20
4.835
11
11.093
21
5.628
0
0
LINE
8
0
10
11.093
20
5.628
11
11.093
21
5.769
0
0
LINE
8
0
10
11.093
20
5.769
11
11.093
21
5.928
0
0
LINE
8
0
10
11.093
20
5.928
11
11.093
21
6.635
0
0
LINE
8
0
10
11.093
20
6.635
11
11.093
21
7.428
0
0
LINE
8
0
10
11.093
20
7.428
11
11.093
21
7.569
0
0
LINE
8
0
10
11.093
20
7.569
11
11.093
21
7.728
0
0
LINE
8
0
10
11.093
20
7.728
11
11.093
21
8.435
0
0
LINE
8
0
10
11.093
20
8.435
11
11.093
21
9.228
0
0
LINE
8
0
10
11.093
20
9.228
11
11.093
21
9.369
0
0
LINE
8
0
10
11.093
20
9.369
11
11.093
21
9.528
0
0
LINE
8
0
10
11.093
20
9.528
11
11.093
21
10.235
0
0
LINE
8
0
10
11.093
20
10.235
11
11.093
21
11.028
0
0
LINE
8
0
10
11.093
20
11.028
11
11.093
21
11.169
0
0
LINE
8
0
10
11.093
20
11.169
11
11.093
21
11.328
0
0
LINE
8
0
10
11.093
20
11.328
11
11.093
21
12.035
0
0
LINE
8
0
10
11.093
20
12.035
11
11.093
21
12.828
0
0
LINE
8
0
10
11.093
20
12.828
11
11.093
21
12.969
0
0
LINE
8
0
10
11.093
20
12.969
11
11.093
21
13.128
0
0
LINE
8
0
10
11.093
20
13.128
11
11.093
21
13.835
0
0
LINE
8
0
10
11.093
20
13.835
11
11.093
21
14.492
0
0
LINE
8
0
10
11.093
20
14.492
11
11.093
21
14.633
0
0
LINE
8
0
10
11.593
20
0.479
11
11.593
21
0.638
0
0
LINE
8
0
10
11.593
20
0.479
11
11.593
21
0.638
0
0
LINE
8
0
10
11.593
20
0.638
11
11.593
21
1.228
0
0
LINE
8
0
10
11.593
20
1.228
11
11.593
21
2.022
0
0
LINE
8
0
10
11.593
20
2.022
11
11.593
21
2.163
0
0
LINE
8
0
10
11.593
20
2.163
11
11.593
21
2.322
0
0
LINE
8
0
10
11.593
20
2.322
11
11.593
21
3.028
0
0
LINE
8
0
10
11.593
20
3.028
11
11.593
21
3.822
0
0
LINE
8
0
10
11.593
20
3.822
11
11.593
21
3.963
0
0
LINE
8
0
10
11.593
20
3.963
11
11.593
21
4.122
0
0
LINE
8
0
10
11.593
20
4.122
11
11.593
21
4.828
0
0
LINE
8
0
10
11.593
20
4.828
11
11.593
21
5.622
0
0
LINE
8
0
10
11.593
20
5.622
11
11.593
21
5.763
0
0
LINE
8
0
10
11.593
20
5.763
11
11.593
21
5.922
0
0
LINE
8
0
10
11.593
20
5.922
11
11.593
21
6.628
0
0
LINE
8
0
10
11.593
20
6.628
11
11.593
21
7.422
0
0
LINE
8
0
10
11.593
20
7.422
11
11.593
21
7.563
0
0
LINE
8
0
10
11.593
20
7.563
11
11.593
21
7.722
0
0
LINE
8
0
10
11.593
20
7.722
11
11.593
21
8.428
0
0
LINE
8
0
10
11.593
20
8.428
11
11.593
21
9.222
0
0
LINE
8
0
10
11.593
20
9.222
11
11.593
21
9.363
0
0
LINE
8
0
10
11.593
20
9.363
11
11.593
21
9.522
0
0
LINE
8
0
10
11.593
20
9.522
11
11.593
21
10.228
0
0
LINE
8
0
10
11.593
20
10.228
11
11.593
21
11.022
0
0
LINE
8
0
10
11.593
20
11.022
11
11.593
21
11.163
0
0
LINE
8
0
10
11.593
20
11.163
11
11.593
21
11.322
0
0
LINE
8
0
10
11.593
20
11.322
11
11.593
21
12.028
0
0
LINE
8
0
10
11.593
20
12.028
11
11.593
21
12.822
0
0
LINE
8
0
10
11.593
20
12.822
11
11.593
21
12.963
0
0
LINE
8
0
10
11.593
20
12.963
11
11.593
21
13.122
0
0
LINE
8
0
10
11.593
20
13.122
11
11.593
21
13.828
0
0
LINE
8
0
10
11.593
20
13.828
11
11.593
21
14.492
0
0
LINE
8
0
10
11.593
20
14.492
11
11.593
21
14.633
0
0
LINE
8
0
10
12.093
20
0.467
11
12.093
21
0.626
0
0
LINE
8
0
10
12.093
20
0.467
11
12.093
21
0.626
0
0
LINE
8
0
10
12.093
20
0.626
11
12.093
21
1.222
0
0
LINE
8
0
10
12.093
20
1.222
11
12.093
21
2.016
0
0
LINE
8
0
10
12.093
20
2.016
11
12.093
21
2.157
0
0
LINE
8
0
10
12.093
20
2.157
11
12.093
21
2.316
0
0
LINE
8
0
10
12.093
20
2.316
11
12.093
21
3.022
0
0
LINE
8
0
10
12.093
20
3.022
11
12.093
21
3.816
0
0
LINE
8
0
10
12.093
20
3.816
11
12.093
21
3.957
0
0
LINE
8
0
10
12.093
20
3.957
11
12.093
21
4.116
0
0
LINE
8
0
10
12.093
20
4.116
11
12.093
21
4.822
0
0
LINE
8
0
10
12.093
20
4.822
11
12.093
21
5.616
0
0
LINE
8
0
10
12.093
20
5.616
11
12.093
21
5.757
0
0
LINE
8
0
10
12.093
20
5.757
11
12.093
21
5.916
0
0
LINE
8
0
10
12.093
20
5.916
11
12.093
21
6.622
0
0
LINE
8
0
10
12.093
20
6.622
11
12.093
21
7.416
0
0
LINE
8
0
10
12.093
20
7.416
11
12.093
21
7.557
0
0
LINE
8
0
10
12.093
20
7.557
11
12.093
21
7.716
0
0
LINE
8
0
10
12.093
20
7.716
11
12.093
21
8.422
0
0
LINE
8
0
10
12.093
20
8.422
11
12.093
21
9.216
0
0
LINE
8
0
10
12.093
20
9.216
11
12.093
21
9.357
0
0
LINE
8
0
10
12.093
20
9.357
11
12.093
21
9.516
0
0
LINE
8
0
10
12.093
20
9.516
11
12.093
21
10.222
0
0
LINE
8
0
10
12.093
20
10.222
11
12.093
21
11.016
0
0
LINE
8
0
10
12.093
20
11.016
11
12.093
21
11.157
0
0
LINE
8
0
10
12.093
20
11.157
11
12.093
21
11.316
0
0
LINE
8
0
10
12.093
20
11.316
11
12.093
21
12.022
0
0
LINE
8
0
10
12.093
20
12.022
11
12.093
21
12.816
0
0
LINE
8
0
10
12.093
20
12.816
11
12.093
21
12.957
0
0
LINE
8
0
10
12.093
20
12.957
11
12.093
21
13.116
0
0
LINE
8
0
10
12.093
20
13.116
11
12.093
21
13.822
0
0
LINE
8
0
10
12.093
20
13.822
11
12.093
21
14.493
0
0
LINE
8
0
10
12.093
20
14.493
11
12.093
21
14.634
0
0
LINE
8
0
10
12.593
20
0.455
11
12.593
21
0.614
0
0
LINE
8
0
10
12.593
20
0.455
11
12.593
21
0.614
0
0
LINE
8
0
10
12.593
20
0.614
11
12.593
21
1.217
0
0
LINE
8
0
10
12.593
20
1.217
11
12.593
21
2.010
0
0
LINE
8
0
10
12.593
20
2.010
11
12.593
21
2.151
0
0
LINE
8
0
10
12.593
20
2.151
11
12.593
21
2.310
0
0
LINE
8
0
10
12.593
20
2.310
11
12.593
21
3.017
0
0
LINE
8
0
10
12.593
20
3.017
11
12.593
21
3.810
0
0
LINE
8
0
10
12.593
20
3.810
11
12.593
21
3.951
0
0
LINE
8
0
10
12.593
20
3.951
11
12.593
21
4.110
0
0
LINE
8
0
10
12.593
20
4.110
11
12.593
21
4.817
0
0
LINE
8
0
10
12.593
20
4.817
11
12.593
21
5.610
0
0
LINE
8
0
10
12.593
20
5.610
11
12.593
21
5.751
0
0
LINE
8
0
10
12.593
20
5.751
11
12.593
21
5.910
0
0
LINE
8
0
10
12.593
20
5.910
11
12.593
21
6.617
0
0
LINE
8
0
10
12.593
20
6.617
11
12.593
21
7.410
0
0
LINE
8
0
10
12.593
20
7.410
11
12.593
21
7.551
0
0
LINE
8
0
10
12.593
20
7.551
11
12.593
21
7.710
0
0
LINE
8
0
10
12.593
20
7.710
11
12.593
21
8.417
0
0
LINE
8
0
10
12.593
20
8.417
11
12.593
21
9.210
0
0
LINE
8
0
10
12.593
20
9.210
11
12.593
21
9.351
0
0
LINE
8
0
10
12.593
20
9.351
11
12.593
21
9.510
0
0
LINE
8
0
10
12.593
20
9.510
11
12.593
21
10.217
0
0
LINE
8
0
10
12.593
20
10.217
11
12.593
21
11.010
0
0
LINE
8
0
10
12.593
20
11.010
11
12.593
21
11.151
0
0
LINE
8
0
10
12.593
20
11.151
11
12.593
21
11.310
0
0
LINE
8
0
10
12.593
20
11.310
11
12.593
21
12.017
0
0
LINE
8
0
10
12.593
20
12.017
11
12.593
21
12.810
0
0
LINE
8
0
10
12.593
20
12.810
11
12.593
21
12.951
0
0
LINE
8
0
10
12.593
20
12.951
11
12.593
21
13.110
0
0
LINE
8
0
10
12.593
20
13.110
11
12.593
21
13.817
0
0
LINE
8
0
10
12.593
20
13.817
11
12.593
21
14.494
0
0
LINE
8
0
10
12.593
20
14.494
11
12.593
21
14.635
0
0
LINE
8
0
10
13.093
20
0.455
11
13.093
21
0.614
0
0
LINE
8
0
10
13.093
20
0.455
11
13.093
21
0.614
0
0
LINE
8
0
10
13.093
20
0.614
11
13.093
21
1.217
0
0
LINE
8
0
10
13.093
20
1.217
11
13.093
21
2.011
0
0
LINE
8
0
10
13.093
20
2.011
11
13.093
21
2.151
0
0
LINE
8
0
10
13.093
20
2.151
11
13.093
21
2.310
0
0
LINE
8
0
10
13.093
20
2.310
11
13.093
21
3.017
0
0
LINE
8
0
10
13.093
20
3.017
11
13.093
21
3.811
0
0
LINE
8
0
10
13.093
20
3.811
11
13.093
21
3.951
0
0
LINE
8
0
10
13.093
20
3.951
11
13.093
21
4.110
0
0
LINE
8
0
10
13.093
20
4.110
11
13.093
21
4.817
0
0
LINE
8
0
10
13.093
20
4.817
11
13.093
21
5.611
0
0
LINE
8
0
10
13.093
20
5.611
11
13.093
21
5.751
0
0
LINE
8
0
10
13.093
20
5.751
11
13.093
21
5.910
0
0
LINE
8
0
10
13.093
20
5.910
11
13.093
21
6.617
0
0
LINE
8
0
10
13.093
20
6.617
11
13.093
21
7.411
0
0
LINE
8
0
10
13.093
20
7.411
11
13.093
21
7.551
0
0
LINE
8
0
10
13.093
20
7.551
11
13.093
21
7.710
0
0
LINE
8
0
10
13.093
20
7.710
11
13.093
21
8.417
0
0
LINE
8
0
10
13.093
20
8.417
11
13.093
21
9.211
0
0
LINE
8
0
10
13.093
20
9.211
11
13.093
21
9.351
0
0
LINE
8
0
10
13.093
20
9.351
11
13.093
21
9.510
0
0
LINE
8
0
10
13.093
20
9.510
11
13.093
21
10.217
0
0
LINE
8
0
10
13.093
20
10.217
11
13.093
21
11.011
0
0
LINE
8
0
10
13.093
20
11.011
11
13.093
21
11.151
0
0
LINE
8
0
10
13.093
20
11.151
11
13.093
21
11.310
0
0
LINE
8
0
10
13.093
20
11.310
11
13.093
21
12.017
0
0
LINE
8
0
10
13.093
20
12.017
11
13.093
21
12.811
0
0
LINE
8
0
10
13.093
20
12.811
11
13.093
21
12.951
0
0
LINE
8
0
10
13.093
20
12.951
11
13.093
21
13.110
0
0
LINE
8
0
10
13.093
20
13.110
11
13.093
21
13.817
0
0
LINE
8
0
10
13.093
20
13.817
11
13.093
21
14.495
0
0
LINE
8
0
10
13.093
20
14.495
11
13.093
21
14.636
0
0
LINE
8
0
10
13.593
20
0.523
11
13.593
21
0.682
0
0
LINE
8
0
10
13.593
20
0.523
11
13.593
21
0.682
0
0
LINE
8
0
10
13.593
20
0.682
11
13.593
21
1.253
0
0
LINE
8
0
10
13.593
20
1.253
11
13.593
21
2.047
0
0
LINE
8
0
10
13.593
20
2.047
11
13.593
21
2.188
0
0
LINE
8
0
10
13.593
20
2.188
11
13.593
21
2.347
0
0
LINE
8
0
10
13.593
20
2.347
11
13.593
21
3.053
0
0
LINE
8
0
10
13.593
20
3.053
11
13.593
21
3.847
0
0
LINE
8
0
10
13.593
20
3.847
11
13.593
21
3.988
0
0
LINE
8
0
10
13.593
20
3.988
11
13.593
21
4.147
0
0
LINE
8
0
10
13.593
20
4.147
11
13.593
21
4.853
0
0
LINE
8
0
10
13.593
20
4.853
11
13.593
21
5.647
0
0
LINE
8
0
10
13.593
20
5.647
11
13.593
21
5.788
0
0
LINE
8
0
10
13.593
20
5.788
11
13.593
21
5.947
0
0
LINE
8
0
10
13.593
20
5.947
11
13.593
21
6.653
0
0
LINE
8
0
10
13.593
20
6.653
11
13.593
21
7.447
0
0
LINE
8
0
10
13.593
20
7.447
11
13.593
21
7.588
0
0
LINE
8
0
10
13.593
20
7.588
11
13.593
21
7.747
0
0
LINE
8
0
10
13.593
20
7.747
11
13.593
21
8.453
0
0
LINE
8
0
10
13.593
20
8.453
11
13.593
21
9.247
0
0
LINE
8
0
10
13.593
20
9.247
11
13.593
21
9.388
0
0
LINE
8
0
10
13.593
20
9.388
11
13.593
21
9.547
0
0
LINE
8
0
10
13.593
20
9.547
11
13.593
21
10.253
0
0
LINE
8
0
10
13.593
20
10.253
11
13.593
21
11.047
0
0
LINE
8
0
10
13.593
20
11.047
11
13.593
21
11.188
0
0
LINE
8
0
10
13.593
20
11.188
11
13.593
21
11.347
0
0
LINE
8
0
10
13.593
20
11.347
11
13.593
21
12.053
0
0
LINE
8
0
10
13.593
20
12.053
11
13.593
21
12.847
0
0
LINE
8
0
10
13.593
20
12.847
11
13.593
21
12.988
0
0
LINE
8
0
10
13.593
20
12.988
11
13.593
21
13.147
0
0
LINE
8
0
10
13.593
20
13.147
11
13.593
21
13.853
0
0
LINE
8
0
10
13.593
20
13.853
11
13.593
21
14.495
0
0
LINE
8
0
10
13.593
20
14.495
11
13.593
21
14.636
0
0
LINE
8
0
10
14.093
20
0.654
11
14.093
21
0.813
0
0
LINE
8
0
10
14.093
20
0.654
11
14.093
21
0.813
0
0
LINE
8
0
10
14.093
20
0.813
11
14.093
21
1.323
0
0
LINE
8
0
10
14.093
20
1.323
11
14.093
21
2.116
0
0
LINE
8
0
10
14.093
20
2.116
11
14.093
21
2.258
0
0
LINE
8
0
10
14.093
20
2.258
11
14.093
21
2.416
0
0
LINE
8
0
10
14.093
20
2.416
11
14.093
21
3.123
0
0
LINE
8
0
10
14.093
20
3.123
11
14.093
21
3.916
0
0
LINE
8
0
10
14.093
20
3.916
11
14.093
21
4.058
0
0
LINE
8
0
10
14.093
20
4.058
11
14.093
21
4.216
0
0
LINE
8
0
10
14.093
20
4.216
11
14.093
21
4.923
0
0
LINE
8
0
10
14.093
20
4.923
11
14.093
21
5.716
0
0
LINE
8
0
10
14.093
20
5.716
11
14.093
21
5.858
0
0
LINE
8
0
10
14.093
20
5.858
11
14.093
21
6.016
0
0
LINE
8
0
10
14.093
20
6.016
11
14.093
21
6.723
0
0
LINE
8
0
10
14.093
20
6.723
11
14.093
21
7.516
0
0
LINE
8
0
10
14.093
20
7.516
11
14.093
21
7.658
0
0
LINE
8
0
10
14.093
20
7.658
11
14.093
21
7.816
0
0
LINE
8
0
10
14.093
20
7.816
11
14.093
21
8.523
0
0
LINE
8
0
10
14.093
20
8.523
11
14.093
21
9.316
0
0
LINE
8
0
10
14.093
20
9.316
11
14.093
21
9.458
0
0
LINE
8
0
10
14.093
20
9.458
11
14.093
21
9.616
0
0
LINE
8
0
10
14.093
20
9.616
11
14.093
21
10.323
0
0
LINE
8
0
10
14.093
20
10.323
11
14.093
21
11.116
0
0
LINE
8
0
10
14.093
20
11.116
11
14.093
21
11.258
0
0
LINE
8
0
10
14.093
20
11.258
11
14.093
21
11.416
0
0
LINE
8
0
10
14.093
20
11.416
11
14.093
21
12.123
0
0
LINE
8
0
10
14.093
20
12.123
11
14.093
21
12.916
0
0
LINE
8
0
10
14.093
20
12.916
11
14.093
21
13.058
0
0
LINE
8
0
10
14.093
20
13.058
11
14.093
21
13.216
0
0
LINE
8
0
10
14.093
20
13.216
11
14.093
21
13.923
0
0
LINE
8
0
10
14.093
20
13.923
11
14.093
21
14.496
0
0
LINE
8
0
10
14.093
20
14.496
11
14.093
21
14.637
0
0
LINE
8
0
10
14.593
20
1.226
11
14.593
21
1.385
0
0
LINE
8
0
10
14.593
20
1.226
11
14.593
21
1.385
0
0
LINE
8
0
10
14.593
20
1.385
11
14.593
21
1.626
0
0
LINE
8
0
10
14.593
20
1.626
11
14.593
21
1.767
0
0
LINE
8
0
10
14.593
20
1.767
11
14.593
21
2.561
0
0
LINE
8
0
10
14.593
20
2.561
11
14.593
21
3.268
0
0
LINE
8
0
10
14.593
20
3.268
11
14.593
21
3.426
0
0
LINE
8
0
10
14.593
20
3.426
11
14.593
21
3.567
0
0
LINE
8
0
10
14.593
20
3.567
11
14.593
21
4.361
0
0
LINE
8
0
10
14.593
20
4.361
11
14.593
21
5.068
0
0
LINE
8
0
10
14.593
20
5.068
11
14.593
21
5.226
0
0
LINE
8
0
10
14.593
20
5.226
11
14.593
21
5.367
0
0
LINE
8
0
10
14.593
20
5.367
11
14.593
21
6.161
0
0
LINE
8
0
10
14.593
20
6.161
11
14.593
21
6.868
0
0
LINE
8
0
10
14.593
20
6.868
11
14.593
21
7.026
0
0
LINE
8
0
10
14.593
20
7.026
11
14.593
21
7.167
0
0
LINE
8
0
10
14.593
20
7.167
11
14.593
21
7.961
0
0
LINE
8
0
10
14.593
20
7.961
11
14.593
21
8.668
0
0
LINE
8
0
10
14.593
20
8.668
11
14.593
21
8.826
0
0
LINE
8
0
10
14.593
20
8.826
11
14.593
21
8.967
0
0
LINE
8
0
10
14.593
20
8.967
11
14.593
21
9.761
0
0
LINE
8
0
10
14.593
20
9.761
11
14.593
21
10.468
0
0
LINE
8
0
10
14.593
20
10.468
11
14.593
21
10.626
0
0
LINE
8
0
10
14.593
20
10.626
11
14.593
21
10.767
0
0
LINE
8
0
10
14.593
20
10.767
11
14.593
21
11.561
0
0
LINE
8
0
10
14.593
20
11.561
11
14.593
21
12.268
0
0
LINE
8
0
10
14.593
20
12.268
11
14.593
21
12.426
0
0
LINE
8
0
10
14.593
20
12.426
11
14.593
21
12.567
0
0
LINE
8
0
10
14.593
20
12.567
11
14.593
21
13.361
0
0
LINE
8
0
10
14.593
20
13.361
11
14.593
21
14.068
0
0
LINE
8
0
10
14.593
20
14.068
11
14.593
21
14.226
0
0
LINE
8
0
10
14.593
20
14.226
11
14.593
21
14.497
0
0
LINE
8
0
10
14.593
20
14.497
11
14.593
21
14.638
0
0
LINE
8
0
10
1.234
20
0.592
11
1.285
21
0.592
0
0
LINE
8
0
10
1.234
20
0.592
11
1.285
21
0.592
0
0
LINE
8
0
10
1.285
20
0.592
11
1.427
21
0.592
0
0
LINE
8
0
10
1.427
20
0.592
11
2.220
21
0.592
0
0
LINE
8
0
10
2.220
20
0.592
11
2.927
21
0.592
0
0
LINE
8
0
10
2.927
20
0.592
11
3.085
21
0.592
0
0
LINE
8
0
10
3.085
20
0.592
11
3.227
21
0.592
0
0
LINE
8
0
10
3.227
20
0.592
11
4.020
21
0.592
0
0
LINE
8
0
10
4.020
20
0.592
11
4.727
21
0.592
0
0
LINE
8
0
10
4.727
20
0.592
11
4.885
21
0.592
0
0
LINE
8
0
10
4.885
20
0.592
11
5.027
21
0.592
0
0
LINE
8
0
10
5.027
20
0.592
11
5.820
21
0.592
0
0
LINE
8
0
10
5.820
20
0.592
11
6.527
21
0.592
0
0
LINE
8
0
10
6.527
20
0.592
11
6.685
21
0.592
0
0
LINE
8
0
10
6.685
20
0.592
11
6.827
21
0.592
0
0
LINE
8
0
10
6.827
20
0.592
11
6.963
21
0.592
0
0
LINE
8
0
10
6.963
20
0.592
11
7.104
21
0.592
0
0
LINE
8
0
10
7.104
20
0.592
11
7.897
21
0.592
0
0
LINE
8
0
10
7.897
20
0.592
11
8.604
21
0.592
0
0
LINE
8
0
10
8.604
20
0.592
11
8.763
21
0.592
0
0
LINE
8
0
10
8.763
20
0.592
11
8.904
21
0.592
0
0
LINE
8
0
10
8.904
20
0.592
11
9.697
21
0.592
0
0
LINE
8
0
10
9.697
20
0.592
11
10.404
21
0.592
0
0
LINE
8
0
10
10.404
20
0.592
11
10.563
21
0.592
0
0
LINE
8
0
10
10.563
20
0.592
11
10.704
21
0.592
0
0
LINE
8
0
10
10.704
20
0.592
11
11.497
21
0.592
0
0
LINE
8
0
10
11.497
20
0.592
11
12.204
21
0.592
0
0
LINE
8
0
10
12.204
20
0.592
11
12.363
21
0.592
0
0
LINE
8
0
10
12.363
20
0.592
11
12.504
21
0.592
0
0
LINE
8
0
10
12.504
20
0.592
11
13.297
21
0.592
0
0
LINE
8
0
10
13.297
20
0.592
11
13.772
21
0.592
0
0
LINE
8
0
10
13.772
20
0.592
11
13.931
21
0.592
0
0
LINE
8
0
10
0.651
20
1.092
11
0.792
21
1.092
0
0
LINE
8
0
10
0.651
20
1.092
11
0.792
21
1.092
0
0
LINE
8
0
10
0.792
20
1.092
11
1.314
21
1.092
0
0
LINE
8
0
10
1.314
20
1.092
11
2.021
21
1.092
0
0
LINE
8
0
10
2.021
20
1.092
11
2.180
21
1.092
0
0
LINE
8
0
10
2.180
20
1.092
11
2.320
21
1.092
0
0
LINE
8
0
10
2.320
20
1.092
11
3.114
21
1.092
0
0
LINE
8
0
10
3.114
20
1.092
11
3.821
21
1.092
0
0
LINE
8
0
10
3.821
20
1.092
11
3.980
21
1.092
0
0
LINE
8
0
10
3.980
20
1.092
11
4.120
21
1.092
0
0
LINE
8
0
10
4.120
20
1.092
11
4.914
21
1.092
0
0
LINE
8
0
10
4.914
20
1.092
11
5.621
21
1.092
0
0
LINE
8
0
10
5.621
20
1.092
11
5.780
21
1.092
0
0
LINE
8
0
10
5.780
20
1.092
11
5.920
21
1.092
0
0
LINE
8
0
10
5.920
20
1.092
11
6.714
21
1.092
0
0
LINE
8
0
10
6.714
20
1.092
11
7.421
21
1.092
0
0
LINE
8
0
10
7.421
20
1.092
11
7.580
21
1.092
0
0
LINE
8
0
10
7.580
20
1.092
11
7.720
21
1.092
0
0
LINE
8
0
10
7.720
20
1.092
11
8.514
21
1.092
0
0
LINE
8
0
10
8.514
20
1.092
11
9.221
21
1.092
0
0
LINE
8
0
10
9.221
20
1.092
11
9.380
21
1.092
0
0
LINE
8
0
10
9.380
20
1.092
11
9.520
21
1.092
0
0
LINE
8
0
10
9.520
20
1.092
11
10.314
21
1.092
0
0
LINE
8
0
10
10.314
20
1.092
11
11.021
21
1.092
0
0
LINE
8
0
10
11.021
20
1.092
11
11.180
21
1.092
0
0
LINE
8
0
10
11.180
20
1.092
11
11.320
21
1.092
0
0
LINE
8
0
10
11.320
20
1.092
11
12.114
21
1.092
0
0
LINE
8
0
10
12.114
20
1.092
11
12.821
21
1.092
0
0
LINE
8
0
10
12.821
20
1.092
11
12.980
21
1.092
0
0
LINE
8
0
10
12.980
20
1.092
11
13.120
21
1.092
0
0
LINE
8
0
10
13.120
20
1.092
11
13.914
21
1.092
0
0
LINE
8
0
10
13.914
20
1.092
11
14.378
21
1.092
0
0
LINE
8
0
10
14.378
20
1.092
11
14.537
21
1.092
0
0
LINE
8
0
10
0.519
20
1.592
11
0.660
21
1.592
0
0
LINE
8
0
10
0.519
20
1.592
11
0.660
21
1.592
0
0
LINE
8
0
10
0.660
20
1.592
11
1.319
21
1.592
0
0
LINE
8
0
10
1.319
20
1.592
11
2.025
21
1.592
0
0
LINE
8
0
10
2.025
20
1.592
11
2.184
21
1.592
0
0
LINE
8
0
10
2.184
20
1.592
11
2.325
21
1.592
0
0
LINE
8
0
10
2.325
20
1.592
11
3.119
21
1.592
0
0
LINE
8
0
10
3.119
20
1.592
11
3.825
21
1.592
0
0
LINE
8
0
10
3.825
20
1.592
11
3.984
21
1.592
0
0
LINE
8
0
10
3.984
20
1.592
11
4.125
21
1.592
0
0
LINE
8
0
10
4.125
20
1.592
11
4.919
21
1.592
0
0
LINE
8
0
10
4.919
20
1.592
11
5.625
21
1.592
0
0
LINE
8
0
10
5.625
20
1.592
11
5.784
21
1.592
0
0
LINE
8
0
10
5.784
20
1.592
11
5.925
21
1.592
0
0
LINE
8
0
10
5.925
20
1.592
11
6.719
21
1.592
0
0
LINE
8
0
10
6.719
20
1.592
11
7.425
21
1.592
0
0
LINE
8
0
10
7.425
20
1.592
11
7.584
21
1.592
0
0
LINE
8
0
10
7.584
20
1.592
11
7.725
21
1.592
0
0
LINE
8
0
10
7.725
20
1.592
11
8.519
21
1.592
0
0
LINE
8
0
10
8.519
20
1.592
11
9.225
21
1.592
0
0
LINE
8
0
10
9.225
20
1.592
11
9.384
21
1.592
0
0
LINE
8
0
10
9.384
20
1.592
11
9.525
21
1.592
0
0
LINE
8
0
10
9.525
20
1.592
11
10.319
21
1.592
0
0
LINE
8
0
10
10.319
20
1.592
11
11.025
21
1.592
0
0
LINE
8
0
10
11.025
20
1.592
11
11.184
21
1.592
0
0
LINE
8
0
10
11.184
20
1.592
11
11.325
21
1.592
0
0
LINE
8
0
10
11.325
20
1.592
11
12.119
21
1.592
0
0
LINE
8
0
10
12.119
20
1.592
11
12.825
21
1.592
0
0
LINE
8
0
10
12.825
20
1.592
11
12.984
21
1.592
0
0
LINE
8
0
10
12.984
20
1.592
11
13.125
21
1.592
0
0
LINE
8
0
10
13.125
20
1.592
11
13.919
21
1.592
0
0
LINE
8
0
10
13.919
20
1.592
11
14.505
21
1.592
0
0
LINE
8
0
10
14.505
20
1.592
11
14.664
21
1.592
0
0
LINE
8
0
10
0.456
20
2.092
11
0.597
21
2.092
0
0
LINE
8
0
10
0.456
20
2.092
11
0.597
21
2.092
0
0
LINE
8
0
10
0.597
20
2.092
11
1.323
21
2.092
0
0
LINE
8
0
10
1.323
20
2.092
11
2.030
21
2.092
0
0
LINE
8
0
10
2.030
20
2.092
11
2.188
21
2.092
0
0
LINE
8
0
10
2.188
20
2.092
11
2.330
21
2.092
0
0
LINE
8
0
10
2.330
20
2.092
11
3.123
21
2.092
0
0
LINE
8
0
10
3.123
20
2.092
11
3.830
21
2.092
0
0
LINE
8
0
10
3.830
20
2.092
11
3.988
21
2.092
0
0
LINE
8
0
10
3.988
20
2.092
11
4.130
21
2.092
0
0
LINE
8
0
10
4.130
20
2.092
11
4.923
21
2.092
0
0
LINE
8
0
10
4.923
20
2.092
11
5.630
21
2.092
0
0
LINE
8
0
10
5.630
20
2.092
11
5.788
21
2.092
0
0
LINE
8
0
10
5.788
20
2.092
11
5.930
21
2.092
0
0
LINE
8
0
10
5.930
20
2.092
11
6.723
21
2.092
0
0
LINE
8
0
10
6.723
20
2.092
11
7.430
21
2.092
0
0
LINE
8
0
10
7.430
20
2.092
11
7.588
21
2.092
0
0
LINE
8
0
10
7.588
20
2.092
11
7.730
21
2.092
0
0
LINE
8
0
10
7.730
20
2.092
11
8.523
21
2.092
0
0
LINE
8
0
10
8.523
20
2.092
11
9.230
21
2.092
0
0
LINE
8
0
10
9.230
20
2.092
11
9.388
21
2.092
0
0
LINE
8
0
10
9.388
20
2.092
11
9.530
21
2.092
0
0
LINE
8
0
10
9.530
20
2.092
11
10.323
21
2.092
0
0
LINE
8
0
10
10.323
20
2.092
11
11.030
21
2.092
0
0
LINE
8
0
10
11.030
20
2.092
11
11.188
21
2.092
0
0
LINE
8
0
10
11.188
20
2.092
11
11.330
21
2.092
0
0
LINE
8
0
10
11.330
20
2.092
11
12.123
21
2.092
0
0
LINE
8
0
10
12.123
20
2.092
11
12.830
21
2.092
0
0
LINE
8
0
10
12.830
20
2.092
11
12.988
21
2.092
0
0
LINE
8
0
10
12.988
20
2.092
11
13.130
21
2.092
0
0
LINE
8
0
10
13.130
20
2.092
11
13.923
21
2.092
0
0
LINE
8
0
10
13.923
20
2.092
11
14.569
21
2.092
0
0
LINE
8
0
10
14.569
20
2.092
11
14.728
21
2.092
0
0
LINE
8
0
10
0.450
20
2.592
11
0.591
21
2.592
0
0
LINE
8
0
10
0.450
20
2.592
11
0.591
21
2.592
0
0
LINE
8
0
10
0.591
20
2.592
11
1.326
21
2.592
0
0
LINE
8
0
10
1.326
20
2.592
11
2.033
21
2.592
0
0
LINE
8
0
10
2.033
20
2.592
11
2.192
21
2.592
0
0
LINE
8
0
10
2.192
20
2.592
11
2.333
21
2.592
0
0
LINE
8
0
10
2.333
20
2.592
11
3.126
21
2.592
0
0
LINE
8
0
10
3.126
20
2.592
11
3.833
21
2.592
0
0
LINE
8
0
10
3.833
20
2.592
11
3.992
21
2.592
0
0
LINE
8
0
10
3.992
20
2.592
11
4.133
21
2.592
0
0
LINE
8
0
10
4.133
20
2.592
11
4.926
21
2.592
0
0
LINE
8
0
10
4.926
20
2.592
11
5.633
21
2.592
0
0
LINE
8
0
10
5.633
20
2.592
11
5.792
21
2.592
0
0
LINE
8
0
10
5.792
20
2.592
11
5.933
21
2.592
0
0
LINE
8
0
10
5.933
20
2.592
11
6.726
21
2.592
0
0
LINE
8
0
10
6.726
20
2.592
11
7.433
21
2.592
0
0
LINE
8
0
10
7.433
20
2.592
11
7.592
21
2.592
0
0
LINE
8
0
10
7.592
20
2.592
11
7.733
21
2.592
0
0
LINE
8
0
10
7.733
20
2.592
11
8.526
21
2.592
0
0
LINE
8
0
10
8.526
20
2.592
11
9.233
21
2.592
0
0
LINE
8
0
10
9.233
20
2.592
11
9.392
21
2.592
0
0
LINE
8
0
10
9.392
20
2.592
11
9.533
21
2.592
0
0
LINE
8
0
10
9.533
20
2.592
11
10.326
21
2.592
0
0
LINE
8
0
10
10.326
20
2.592
11
11.033
21
2.592
0
0
LINE
8
0
10
11.033
20
2.592
11
11.192
21
2.592
0
0
LINE
8
0
10
11.192
20
2.592
11
11.333
21
2.592
0
0
LINE
8
0
10
11.333
20
2.592
11
12.126
21
2.592
0
0
LINE
8
0
10
12.126
20
2.592
11
12.833
21
2.592
0
0
LINE
8
0
10
12.833
20
2.592
11
12.992
21
2.592
0
0
LINE
8
0
10
12.992
20
2.592
11
13.133
21
2.592
0
0
LINE
8
0
10
13.133
20
2.592
11
13.926
21
2.592
0
0
LINE
8
0
10
13.926
20
2.592
11
14.580
21
2.592
0
0
LINE
8
0
10
14.580
20
2.592
11
14.739
21
2.592
0
0
LINE
8
0
10
0.463
20
3.092
11
0.604
21
3.092
0
0
LINE
8
0
10
0.463
20
3.092
11
0.604
21
3.092
0
0
LINE
8
0
10
0.604
20
3.092
11
1.323
21
3.092
0
0
LINE
8
0
10
1.323
20
3.092
11
2.030
21
3.092
0
0
LINE
8
0
10
2.030
20
3.092
11
2.188
21
3.092
0
0
LINE
8
0
10
2.188
20
3.092
11
2.330
21
3.092
0
0
LINE
8
0
10
2.330
20
3.092
11
3.123
21
3.092
0
0
LINE
8
0
10
3.123
20
3.092
11
3.830
21
3.092
0
0
LINE
8
0
10
3.830
20
3.092
11
3.988
21
3.092
0
0
LINE
8
0
10
3.988
20
3.092
11
4.130
21
3.092
0
0
LINE
8
0
10
4.130
20
3.092
11
4.923
21
3.092
0
0
LINE
8
0
10
4.923
20
3.092
11
5.630
21
3.092
0
0
LINE
8
0
10
5.630
20
3.092
11
5.788
21
3.092
0
0
LINE
8
0
10
5.788
20
3.092
11
5.930
21
3.092
0
0
LINE
8
0
10
5.930
20
3.092
11
6.723
21
3.092
0
0
LINE
8
0
10
6.723
20
3.092
11
7.430
21
3.092
0
0
LINE
8
0
10
7.430
20
3.092
11
7.588
21
3.092
0
0
LINE
8
0
10
7.588
20
3.092
11
7.730
21
3.092
0
0
LINE
8
0
10
7.730
20
3.092
11
8.523
21
3.092
0
0
LINE
8
0
10
8.523
20
3.092
11
9.230
21
3.092
0
0
LINE
8
0
10
9.230
20
3.092
11
9.388
21
3.092
0
0
LINE
8
0
10
9.388
20
3.092
11
9.530
21
3.092
0
0
LINE
8
0
10
9.530
20
3.092
11
10.323
21
3.092
0
0
LINE
8
0
10
10.323
20
3.092
11
11.030
21
3.092
0
0
LINE
8
0
10
11.030
20
3.092
11
11.188
21
3.092
0
0
LINE
8
0
10
11.188
20
3.092
11
11.330
21
3.092
0
0
LINE
8
0
10
11.330
20
3.092
11
12.123
21
3.092
0
0
LINE
8
0
10
12.123
20
3.092
11
12.830
21
3.092
0
0
LINE
8
0
10
12.830
20
3.092
11
12.988
21
3.092
0
0
LINE
8
0
10
12.988
20
3.092
11
13.130
21
3.092
0
0
LINE
8
0
10
13.130
20
3.092
11
13.923
21
3.092
0
0
LINE
8
0
10
13.923
20
3.092
11
14.563
21
3.092
0
0
LINE
8
0
10
14.563
20
3.092
11
14.722
21
3.092
0
0
LINE
8
0
10
0.476
20
3.592
11
0.617
21
3.592
0
0
LINE
8
0
10
0.476
20
3.592
11
0.617
21
3.592
0
0
LINE
8
0
10
0.617
20
3.592
11
1.320
21
3.592
0
0
LINE
8
0
10
1.320
20
3.592
11
2.026
21
3.592
0
0
LINE
8
0
10
2.026
20
3.592
11
2.185
21
3.592
0
0
LINE
8
0
10
2.185
20
3.592
11
2.326
21
3.592
0
0
LINE
8
0
10
2.326
20
3.592
11
3.120
21
3.592
0
0
LINE
8
0
10
3.120
20
3.592
11
3.826
21
3.592
0
0
LINE
8
0
10
3.826
20
3.592
11
3.985
21
3.592
0
0
LINE
8
0
10
3.985
20
3.592
11
4.126
21
3.592
0
0
LINE
8
0
10
4.126
20
3.592
11
4.920
21
3.592
0
0
LINE
8
0
10
4.920
20
3.592
11
5.626
21
3.592
0
0
LINE
8
0
10
5.626
20
3.592
11
5.785
21
3.592
0
0
LINE
8
0
10
5.785
20
3.592
11
5.926
21
3.592
0
0
LINE
8
0
10
5.926
20
3.592
11
6.720
21
3.592
0
0
LINE
8
0
10
6.720
20
3.592
11
7.426
21
3.592
0
0
LINE
8
0
10
7.426
20
3.592
11
7.585
21
3.592
0
0
LINE
8
0
10
7.585
20
3.592
11
7.726
21
3.592
0
0
LINE
8
0
10
7.726
20
3.592
11
8.520
21
3.592
0
0
LINE
8
0
10
8.520
20
3.592
11
9.226
21
3.592
0
0
LINE
8
0
10
9.226
20
3.592
11
9.385
21
3.592
0
0
LINE
8
0
10
9.385
20
3.592
11
9.526
21
3.592
0
0
LINE
8
0
10
9.526
20
3.592
11
10.320
21
3.592
0
0
LINE
8
0
10
10.320
20
3.592
11
11.026
21
3.592
0
0
LINE
8
0
10
11.026
20
3.592
11
11.185
21
3.592
0
0
LINE
8
0
10
11.185
20
3.592
11
11.326
21
3.592
0
0
LINE
8
0
10
11.326
20
3.592
11
12.120
21
3.592
0
0
LINE
8
0
10
12.120
20
3.592
11
12.826
21
3.592
0
0
LINE
8
0
10
12.826
20
3.592
11
12.985
21
3.592
0
0
LINE
8
0
10
12.985
20
3.592
11
13.126
21
3.592
0
0
LINE
8
0
10
13.126
20
3.592
11
13.920
21
3.592
0
0
LINE
8
0
10
13.920
20
3.592
11
14.545
21
3.592
0
0
LINE
8
0
10
14.545
20
3.592
11
14.704
21
3.592
0
0
LINE
8
0
10
0.488
20
4.092
11
0.629
21
4.092
0
0
LINE
8
0
10
0.488
20
4.092
11
0.629
21
4.092
0
0
LINE
8
0
10
0.629
20
4.092
11
1.317
21
4.092
0
0
LINE
8
0
10
1.317
20
4.092
11
2.023
21
4.092
0
0
LINE
8
0
10
2.023
20
4.092
11
2.181
21
4.092
0
0
LINE
8
0
10
2.181
20
4.092
11
2.322
21
4.092
0
0
LINE
8
0
10
2.322
20
4.092
11
3.117
21
4.092
0
0
LINE
8
0
10
3.117
20
4.092
11
3.823
21
4.092
0
0
LINE
8
0
10
3.823
20
4.092
11
3.981
21
4.092
0
0
LINE
8
0
10
3.981
20
4.092
11
4.122
21
4.092
0
0
LINE
8
0
10
4.122
20
4.092
11
4.917
21
4.092
0
0
LINE
8
0
10
4.917
20
4.092
11
5.623
21
4.092
0
0
LINE
8
0
10
5.623
20
4.092
11
5.781
21
4.092
0
0
LINE
8
0
10
5.781
20
4.092
11
5.922
21
4.092
0
0
LINE
8
0
10
5.922
20
4.092
11
6.717
21
4.092
0
0
LINE
8
0
10
6.717
20
4.092
11
7.423
21
4.092
0
0
LINE
8
0
10
7.423
20
4.092
11
7.581
21
4.092
0
0
LINE
8
0
10
7.581
20
4.092
11
7.722
21
4.092
0
0
LINE
8
0
10
7.722
20
4.092
11
8.517
21
4.092
0
0
LINE
8
0
10
8.517
20
4.092
11
9.223
21
4.092
0
0
LINE
8
0
10
9.223
20
4.092
11
9.381
21
4.092
0
0
LINE
8
0
10
9.381
20
4.092
11
9.522
21
4.092
0
0
LINE
8
0
10
9.522
20
4.092
11
10.317
21
4.092
0
0
LINE
8
0
10
10.317
20
4.092
11
11.023
21
4.092
0
0
LINE
8
0
10
11.023
20
4.092
11
11.181
21
4.092
0
0
LINE
8
0
10
11.181
20
4.092
11
11.322
21
4.092
0
0
LINE
8
0
10
11.322
20
4.092
11
12.117
21
4.092
0
0
LINE
8
0
10
12.117
20
4.092
11
12.823
21
4.092
0
0
LINE
8
0
10
12.823
20
4.092
11
12.981
21
4.092
0
0
LINE
8
0
10
12.981
20
4.092
11
13.122
21
4.092
0
0
LINE
8
0
10
13.122
20
4.092
11
13.917
21
4.092
0
0
LINE
8
0
10
13.917
20
4.092
11
14.528
21
4.092
0
0
LINE
8
0
10
14.528
20
4.092
11
14.687
21
4.092
0
0
LINE
8
0
10
0.501
20
4.592
11
0.642
21
4.592
0
0
LINE
8
0
10
0.501
20
4.592
11
0.642
21
4.592
0
0
LINE
8
0
10
0.642
20
4.592
11
1.313
21
4.592
0
0
LINE
8
0
10
1.313
20
4.592
11
2.020
21
4.592
0
0
LINE
8
0
10
2.020
20
4.592
11
2.178
21
4.592
0
0
LINE
8
0
10
2.178
20
4.592
11
2.320
21
4.592
0
0
LINE
8
0
10
2.320
20
4.592
11
3.113
21
4.592
0
0
LINE
8
0
10
3.113
20
4.592
11
3.820
21
4.592
0
0
LINE
8
0
10
3.820
20
4.592
11
3.978
21
4.592
0
0
LINE
8
0
10
3.978
20
4.592
11
4.120
21
4.592
0
0
LINE
8
0
10
4.120
20
4.592
11
4.913
21
4.592
0
0
LINE
8
0
10
4.913
20
4.592
11
5.620
21
4.592
0
0
LINE
8
0
10
5.620
20
4.592
11
5.778
21
4.592
0
0
LINE
8
0
10
5.778
20
4.592
11
5.920
21
4.592
0
0
LINE
8
0
10
5.920
20
4.592
11
6.713
21
4.592
0
0
LINE
8
0
10
6.713
20
4.592
11
7.420
21
4.592
0
0
LINE
8
0
10
7.420
20
4.592
11
7.578
21
4.592
0
0
LINE
8
0
10
7.578
20
4.592
11
7.720
21
4.592
0
0
LINE
8
0
10
7.720
20
4.592
11
8.513
21
4.592
0
0
LINE
8
0
10
8.513
20
4.592
11
9.220
21
4.592
0
0
LINE
8
0
10
9.220
20
4.592
11
9.378
21
4.592
0
0
LINE
8
0
10
9.378
20
4.592
11
9.520
21
4.592
0
0
LINE
8
0
10
9.520
20
4.592
11
10.313
21
4.592
0
0
LINE
8
0
10
10.313
20
4.592
11
11.020
21
4.592
0
0
LINE
8
0
10
11.020
20
4.592
11
11.178
21
4.592
0
0
LINE
8
0
10
11.178
20
4.592
11
11.320
21
4.592
0
0
LINE
8
0
10
11.320
20
4.592
11
12.113
21
4.592
0
0
LINE
8
0
10
12.113
20
4.592
11
12.820
21
4.592
0
0
LINE
8
0
10
12.820
20
4.592
11
12.978
21
4.592
0
0
LINE
8
0
10
12.978
20
4.592
11
13.120
21
4.592
0
0
LINE
8
0
10
13.120
20
4.592
11
13.913
21
4.592
0
0
LINE
8
0
10
13.913
20
4.592
11
14.510
21
4.592
0
0
LINE
8
0
10
14.510
20
4.592
11
14.669
21
4.592
0
0
LINE
8
0
10
0.513
20
5.092
11
0.654
21
5.092
0
0
LINE
8
0
10
0.513
20
5.092
11
0.654
21
5.092
0
0
LINE
8
0
10
0.654
20
5.092
11
1.309
21
5.092
0
0
LINE
8
0
10
1.309
20
5.092
11
2.016
21
5.092
0
0
LINE
8
0
10
2.016
20
5.092
11
2.175
21
5.092
0
0
LINE
8
0
10
2.175
20
5.092
11
2.316
21
5.092
0
0
LINE
8
0
10
2.316
20
5.092
11
3.109
21
5.092
0
0
LINE
8
0
10
3.109
20
5.092
11
3.816
21
5.092
0
0
LINE
8
0
10
3.816
20
5.092
11
3.975
21
5.092
0
0
LINE
8
0
10
3.975
20
5.092
11
4.116
21
5.092
0
0
LINE
8
0
10
4.116
20
5.092
11
4.909
21
5.092
0
0
LINE
8
0
10
4.909
20
5.092
11
5.616
21
5.092
0
0
LINE
8
0
10
5.616
20
5.092
11
5.775
21
5.092
0
0
LINE
8
0
10
5.775
20
5.092
11
5.916
21
5.092
0
0
LINE
8
0
10
5.916
20
5.092
11
6.709
21
5.092
0
0
LINE
8
0
10
6.709
20
5.092
11
7.416
21
5.092
0
0
LINE
8
0
10
7.416
20
5.092
11
7.575
21
5.092
0
0
LINE
8
0
10
7.575
20
5.092
11
7.716
21
5.092
0
0
LINE
8
0
10
7.716
20
5.092
11
8.509
21
5.092
0
0
LINE
8
0
10
8.509
20
5.092
11
9.216
21
5.092
0
0
LINE
8
0
10
9.216
20
5.092
11
9.375
21
5.092
0
0
LINE
8
0
10
9.375
20
5.092
11
9.516
21
5.092
0
0
LINE
8
0
10
9.516
20
5.092
11
10.309
21
5.092
0
0
LINE
8
0
10
10.309
20
5.092
11
11.016
21
5.092
0
0
LINE
8
0
10
11.016
20
5.092
11
11.175
21
5.092
0
0
LINE
8
0
10
11.175
20
5.092
11
11.316
21
5.092
0
0
LINE
8
0
10
11.316
20
5.092
11
12.109
21
5.092
0
0
LINE
8
0
10
12.109
20
5.092
11
12.816
21
5.092
0
0
LINE
8
0
10
12.816
20
5.092
11
12.975
21
5.092
0
0
LINE
8
0
10
12.975
20
5.092
11
13.116
21
5.092
0
0
LINE
8
0
10
13.116
20
5.092
11
13.909
21
5.092
0
0
LINE
8
0
10
13.909
20
5.092
11
14.492
21
5.092
0
0
LINE
8
0
10
14.492
20
5.092
11
14.651
21
5.092
0
0
LINE
8
0
10
0.526
20
5.592
11
0.667
21
5.592
0
0
LINE
8
0
10
0.526
20
5.592
11
0.667
21
5.592
0
0
LINE
8
0
10
0.667
20
5.592
11
1.306
21
5.592
0
0
LINE
8
0
10
1.306
20
5.592
11
2.013
21
5.592
0
0
LINE
8
0
10
2.013
20
5.592
11
2.172
21
5.592
0
0
LINE
8
0
10
2.172
20
5.592
11
2.313
21
5.592
0
0
LINE
8
0
10
2.313
20
5.592
11
3.106
21
5.592
0
0
LINE
8
0
10
3.106
20
5.592
11
3.813
21
5.592
0
0
LINE
8
0
10
3.813
20
5.592
11
3.972
21
5.592
0
0
LINE
8
0
10
3.972
20
5.592
11
4.113
21
5.592
0
0
LINE
8
0
10
4.113
20
5.592
11
4.906
21
5.592
0
0
LINE
8
0
10
4.906
20
5.592
11
5.613
21
5.592
0
0
LINE
8
0
10
5.613
20
5.592
11
5.772
21
5.592
0
0
LINE
8
0
10
5.772
20
5.592
11
5.913
21
5.592
0
0
LINE
8
0
10
5.913
20
5.592
11
6.706
21
5.592
0
0
LINE
8
0
10
6.706
20
5.592
11
7.413
21
5.592
0
0
LINE
8
0
10
7.413
20
5.592
11
7.572
21
5.592
0
0
LINE
8
0
10
7.572
20
5.592
11
7.713
21
5.592
0
0
LINE
8
0
10
7.713
20
5.592
11
8.506
21
5.592
0
0
LINE
8
0
10
8.506
20
5.592
11
9.213
21
5.592
0
0
LINE
8
0
10
9.213
20
5.592
11
9.372
21
5.592
0
0
LINE
8
0
10
9.372
20
5.592
11
9.513
21
5.592
0
0
LINE
8
0
10
9.513
20
5.592
11
10.306
21
5.592
0
0
LINE
8
0
10
10.306
20
5.592
11
11.013
21
5.592
0
0
LINE
8
0
10
11.013
20
5.592
11
11.172
21
5.592
0
0
LINE
8
0
10
11.172
20
5.592
11
11.313
21
5.592
0
0
LINE
8
0
10
11.313
20
5.592
11
12.106
21
5.592
0
0
LINE
8
0
10
12.106
20
5.592
11
12.813
21
5.592
0
0
LINE
8
0
10
12.813
20
5.592
11
12.972
21
5.592
0
0
LINE
8
0
10
12.972
20
5.592
11
13.113
21
5.592
0
0
LINE
8
0
10
13.113
20
5.592
11
13.906
21
5.592
0
0
LINE
8
0
10
13.906
20
5.592
11
14.475
21
5.592
0
0
LINE
8
0
10
14.475
20
5.592
11
14.634
21
5.592
0
0
LINE
8
0
10
0.539
20
6.092
11
0.680
21
6.092
0
0
LINE
8
0
10
0.539
20
6.092
11
0.680
21
6.092
0
0
LINE
8
0
10
0.680
20
6.092
11
1.308
21
6.092
0
0
LINE
8
0
10
1.308
20
6.092
11
2.015
21
6.092
0
0
LINE
8
0
10
2.015
20
6.092
11
2.173
21
6.092
0
0
LINE
8
0
10
2.173
20
6.092
11
2.315
21
6.092
0
0
LINE
8
0
10
2.315
20
6.092
11
3.108
21
6.092
0
0
LINE
8
0
10
3.108
20
6.092
11
3.815
21
6.092
0
0
LINE
8
0
10
3.815
20
6.092
11
3.973
21
6.092
0
0
LINE
8
0
10
3.973
20
6.092
11
4.115
21
6.092
0
0
LINE
8
0
10
4.115
20
6.092
11
4.908
21
6.092
0
0
LINE
8
0
10
4.908
20
6.092
11
5.615
21
6.092
0
0
LINE
8
0
10
5.615
20
6.092
11
5.773
21
6.092
0
0
LINE
8
0
10
5.773
20
6.092
11
5.915
21
6.092
0
0
LINE
8
0
10
5.915
20
6.092
11
6.708
21
6.092
0
0
LINE
8
0
10
6.708
20
6.092
11
7.415
21
6.092
0
0
LINE
8
0
10
7.415
20
6.092
11
7.573
21
6.092
0
0
LINE
8
0
10
7.573
20
6.092
11
7.715
21
6.092
0
0
LINE
8
0
10
7.715
20
6.092
11
8.508
21
6.092
0
0
LINE
8
0
10
8.508
20
6.092
11
9.215
21
6.092
0
0
LINE
8
0
10
9.215
20
6.092
11
9.373
21
6.092
0
0
LINE
8
0
10
9.373
20
6.092
11
9.515
21
6.092
0
0
LINE
8
0
10
9.515
20
6.092
11
10.308
21
6.092
0
0
LINE
8
0
10
10.308
20
6.092
11
11.015
21
6.092
0
0
LINE
8
0
10
11.015
20
6.092
11
11.173
21
6.092
0
0
LINE
8
0
10
11.173
20
6.092
11
11.315
21
6.092
0
0
LINE
8
0
10
11.315
20
6.092
11
12.108
21
6.092
0
0
LINE
8
0
10
12.108
20
6.092
11
12.815
21
6.092
0
0
LINE
8
0
10
12.815
20
6.092
11
12.973
21
6.092
0
0
LINE
8
0
10
12.973
20
6.092
11
13.115
21
6.092
0
0
LINE
8
0
10
13.115
20
6.092
11
13.908
21
6.092
0
0
LINE
8
0
10
13.908
20
6.092
11
14.467
21
6.092
0
0
LINE
8
0
10
14.467
20
6.092
11
14.626
21
6.092
0
0
LINE
8
0
10
0.551
20
6.592
11
0.692
21
6.592
0
0
LINE
8
0
10
0.551
20
6.592
11
0.692
21
6.592
0
0
LINE
8
0
10
0.692
20
6.592
11
1.314
21
6.592
0
0
LINE
8
0
10
1.314
20
6.592
11
2.020
21
6.592
0
0
LINE
8
0
10
2.020
20
6.592
11
2.179
21
6.592
0
0
LINE
8
0
10
2.179
20
6.592
11
2.320
21
6.592
0
0
LINE
8
0
10
2.320
20
6.592
11
3.114
21
6.592
0
0
LINE
8
0
10
3.114
20
6.592
11
3.820
21
6.592
0
0
LINE
8
0
10
3.820
20
6.592
11
3.979
21
6.592
0
0
LINE
8
0
10
3.979
20
6.592
11
4.120
21
6.592
0
0
LINE
8
0
10
4.120
20
6.592
11
4.914
21
6.592
0
0
LINE
8
0
10
4.914
20
6.592
11
5.620
21
6.592
0
0
LINE
8
0
10
5.620
20
6.592
11
5.779
21
6.592
0
0
LINE
8
0
10
5.779
20
6.592
11
5.920
21
6.592
0
0
LINE
8
0
10
5.920
20
6.592
11
6.714
21
6.592
0
0
LINE
8
0
10
6.714
20
6.592
11
7.420
21
6.592
0
0
LINE
8
0
10
7.420
20
6.592
11
7.579
21
6.592
0
0
LINE
8
0
10
7.579
20
6.592
11
7.720
21
6.592
0
0
LINE
8
0
10
7.720
20
6.592
11
8.514
21
6.592
0
0
LINE
8
0
10
8.514
20
6.592
11
9.220
21
6.592
0
0
LINE
8
0
10
9.220
20
6.592
11
9.379
21
6.592
0
0
LINE
8
0
10
9.379
20
6.592
11
9.520
21
6.592
0
0
LINE
8
0
10
9.520
20
6.592
11
10.314
21
6.592
0
0
LINE
8
0
10
10.314
20
6.592
11
11.020
21
6.592
0
0
LINE
8
0
10
11.020
20
6.592
11
11.179
21
6.592
0
0
LINE
8
0
10
11.179
20
6.592
11
11.320
21
6.592
0
0
LINE
8
0
10
11.320
20
6.592
11
12.114
21
6.592
0
0
LINE
8
0
10
12.114
20
6.592
11
12.820
21
6.592
0
0
LINE
8
0
10
12.820
20
6.592
11
12.979
21
6.592
0
0
LINE
8
0
10
12.979
20
6.592
11
13.120
21
6.592
0
0
LINE
8
0
10
13.120
20
6.592
11
13.914
21
6.592
0
0
LINE
8
0
10
13.914
20
6.592
11
14.467
21
6.592
0
0
LINE
8
0
10
14.467
20
6.592
11
14.626
21
6.592
0
0
LINE
8
0
10
0.564
20
7.092
11
0.705
21
7.092
0
0
LINE
8
0
10
0.564
20
7.092
11
0.705
21
7.092
0
0
LINE
8
0
10
0.705
20
7.092
11
1.320
21
7.092
0
0
LINE
8
0
10
1.320
20
7.092
11
2.026
21
7.092
0
0
LINE
8
0
10
2.026
20
7.092
11
2.185
21
7.092
0
0
LINE
8
0
10
2.185
20
7.092
11
2.326
21
7.092
0
0
LINE
8
0
10
2.326
20
7.092
11
3.120
21
7.092
0
0
LINE
8
0
10
3.120
20
7.092
11
3.826
21
7.092
0
0
LINE
8
0
10
3.826
20
7.092
11
3.985
21
7.092
0
0
LINE
8
0
10
3.985
20
7.092
11
4.126
21
7.092
0
0
LINE
8
0
10
4.126
20
7.092
11
4.920
21
7.092
0
0
LINE
8
0
10
4.920
20
7.092
11
5.626
21
7.092
0
0
LINE
8
0
10
5.626
20
7.092
11
5.785
21
7.092
0
0
LINE
8
0
10
5.785
20
7.092
11
5.926
21
7.092
0
0
LINE
8
0
10
5.926
20
7.092
11
6.720
21
7.092
0
0
LINE
8
0
10
6.720
20
7.092
11
7.426
21
7.092
0
0
LINE
8
0
10
7.426
20
7.092
11
7.585
21
7.092
0
0
LINE
8
0
10
7.585
20
7.092
11
7.726
21
7.092
0
0
LINE
8
0
10
7.726
20
7.092
11
8.520
21
7.092
0
0
LINE
8
0
10
8.520
20
7.092
11
9.226
21
7.092
0
0
LINE
8
0
10
9.226
20
7.092
11
9.385
21
7.092
0
0
LINE
8
0
10
9.385
20
7.092
11
9.526
21
7.092
0
0
LINE
8
0
10
9.526
20
7.092
11
10.320
21
7.092
0
0
LINE
8
0
10
10.320
20
7.092
11
11.026
21
7.092
0
0
LINE
8
0
10
11.026
20
7.092
11
11.185
21
7.092
0
0
LINE
8
0
10
11.185
20
7.092
11
11.326
21
7.092
0
0
LINE
8
0
10
11.326
20
7.092
11
12.120
21
7.092
0
0
LINE
8
0
10
12.120
20
7.092
11
12.826
21
7.092
0
0
LINE
8
0
10
12.826
20
7.092
11
12.985
21
7.092
0
0
LINE
8
0
10
12.985
20
7.092
11
13.126
21
7.092
0
0
LINE
8
0
10
13.126
20
7.092
11
13.920
21
7.092
0
0
LINE
8
0
10
13.920
20
7.092
11
14.467
21
7.092
0
0
LINE
8
0
10
14.467
20
7.092
11
14.626
21
7.092
0
0
LINE
8
0
10
0.576
20
7.592
11
0.717
21
7.592
0
0
LINE
8
0
10
0.576
20
7.592
11
0.717
21
7.592
0
0
LINE
8
0
10
0.717
20
7.592
11
1.326
21
7.592
0
0
LINE
8
0
10
1.326
20
7.592
11
2.033
21
7.592
0
0
LINE
8
0
10
2.033
20
7.592
11
2.191
21
7.592
0
0
LINE
8
0
10
2.191
20
7.592
11
2.332
21
7.592
0
0
LINE
8
0
10
2.332
20
7.592
11
3.126
21
7.592
0
0
LINE
8
0
10
3.126
20
7.592
11
3.833
21
7.592
0
0
LINE
8
0
10
3.833
20
7.592
11
3.991
21
7.592
0
0
LINE
8
0
10
3.991
20
7.592
11
4.132
21
7.592
0
0
LINE
8
0
10
4.132
20
7.592
11
4.926
21
7.592
0
0
LINE
8
0
10
4.926
20
7.592
11
5.633
21
7.592
0
0
LINE
8
0
10
5.633
20
7.592
11
5.791
21
7.592
0
0
LINE
8
0
10
5.791
20
7.592
11
5.932
21
7.592
0
0
LINE
8
0
10
5.932
20
7.592
11
6.726
21
7.592
0
0
LINE
8
0
10
6.726
20
7.592
11
7.433
21
7.592
0
0
LINE
8
0
10
7.433
20
7.592
11
7.591
21
7.592
0
0
LINE
8
0
10
7.591
20
7.592
11
7.732
21
7.592
0
0
LINE
8
0
10
7.732
20
7.592
11
8.526
21
7.592
0
0
LINE
8
0
10
8.526
20
7.592
11
9.233
21
7.592
0
0
LINE
8
0
10
9.233
20
7.592
11
9.391
21
7.592
0
0
LINE
8
0
10
9.391
20
7.592
11
9.532
21
7.592
0
0
LINE
8
0
10
9.532
20
7.592
11
10.326
21
7.592
0
0
LINE
8
0
10
10.326
20
7.592
11
11.033
21
7.592
0
0
LINE
8
0
10
11.033
20
7.592
11
11.191
21
7.592
0
0
LINE
8
0
10
11.191
20
7.592
11
11.332
21
7.592
0
0
LINE
8
0
10
11.332
20
7.592
11
12.126
21
7.592
0
0
LINE
8
0
10
12.126
20
7.592
11
12.833
21
7.592
0
0
LINE
8
0
10
12.833
20
7.592
11
12.991
21
7.592
0
0
LINE
8
0
10
12.991
20
7.592
11
13.132
21
7.592
0
0
LINE
8
0
10
13.132
20
7.592
11
13.926
21
7.592
0
0
LINE
8
0
10
13.926
20
7.592
11
14.467
21
7.592
0
0
LINE
8
0
10
14.467
20
7.592
11
14.626
21
7.592
0
0
LINE
8
0
10
0.575
20
8.092
11
0.716
21
8.092
0
0
LINE
8
0
10
0.575
20
8.092
11
0.716
21
8.092
0
0
LINE
8
0
10
0.716
20
8.092
11
1.325
21
8.092
0
0
LINE
8
0
10
1.325
20
8.092
11
2.032
21
8.092
0
0
LINE
8
0
10
2.032
20
8.092
11
2.191
21
8.092
0
0
LINE
8
0
10
2.191
20
8.092
11
2.332
21
8.092
0
0
LINE
8
0
10
2.332
20
8.092
11
3.125
21
8.092
0
0
LINE
8
0
10
3.125
20
8.092
11
3.832
21
8.092
0
0
LINE
8
0
10
3.832
20
8.092
11
3.991
21
8.092
0
0
LINE
8
0
10
3.991
20
8.092
11
4.132
21
8.092
0
0
LINE
8
0
10
4.132
20
8.092
11
4.925
21
8.092
0
0
LINE
8
0
10
4.925
20
8.092
11
5.632
21
8.092
0
0
LINE
8
0
10
5.632
20
8.092
11
5.791
21
8.092
0
0
LINE
8
0
10
5.791
20
8.092
11
5.932
21
8.092
0
0
LINE
8
0
10
5.932
20
8.092
11
6.725
21
8.092
0
0
LINE
8
0
10
6.725
20
8.092
11
7.432
21
8.092
0
0
LINE
8
0
10
7.432
20
8.092
11
7.591
21
8.092
0
0
LINE
8
0
10
7.591
20
8.092
11
7.732
21
8.092
0
0
LINE
8
0
10
7.732
20
8.092
11
8.525
21
8.092
0
0
LINE
8
0
10
8.525
20
8.092
11
9.232
21
8.092
0
0
LINE
8
0
10
9.232
20
8.092
11
9.391
21
8.092
0
0
LINE
8
0
10
9.391
20
8.092
11
9.532
21
8.092
0
0
LINE
8
0
10
9.532
20
8.092
11
10.325
21
8.092
0
0
LINE
8
0
10
10.325
20
8.092
11
11.032
21
8.092
0
0
LINE
8
0
10
11.032
20
8.092
11
11.191
21
8.092
0
0
LINE
8
0
10
11.191
20
8.092
11
11.332
21
8.092
0
0
LINE
8
0
10
11.332
20
8.092
11
12.125
21
8.092
0
0
LINE
8
0
10
12.125
20
8.092
11
12.832
21
8.092
0
0
LINE
8
0
10
12.832
20
8.092
11
12.991
21
8.092
0
0
LINE
8
0
10
12.991
20
8.092
11
13.132
21
8.092
0
0
LINE
8
0
10
13.132
20
8.092
11
13.925
21
8.092
0
0
LINE
8
0
10
13.925
20
8.092
11
14.467
21
8.092
0
0
LINE
8
0
10
14.467
20
8.092
11
14.626
21
8.092
0
0
LINE
8
0
10
0.560
20
8.592
11
0.701
21
8.592
0
0
LINE
8
0
10
0.560
20
8.592
11
0.701
21
8.592
0
0
LINE
8
0
10
0.701
20
8.592
11
1.318
21
8.592
0
0
LINE
8
0
10
1.318
20
8.592
11
2.025
21
8.592
0
0
LINE
8
0
10
2.025
20
8.592
11
2.183
21
8.592
0
0
LINE
8
0
10
2.183
20
8.592
11
2.325
21
8.592
0
0
LINE
8
0
10
2.325
20
8.592
11
3.118
21
8.592
0
0
LINE
8
0
10
3.118
20
8.592
11
3.825
21
8.592
0
0
LINE
8
0
10
3.825
20
8.592
11
3.983
21
8.592
0
0
LINE
8
0
10
3.983
20
8.592
11
4.125
21
8.592
0
0
LINE
8
0
10
4.125
20
8.592
11
4.918
21
8.592
0
0
LINE
8
0
10
4.918
20
8.592
11
5.625
21
8.592
0
0
LINE
8
0
10
5.625
20
8.592
11
5.783
21
8.592
0
0
LINE
8
0
10
5.783
20
8.592
11
5.925
21
8.592
0
0
LINE
8
0
10
5.925
20
8.592
11
6.718
21
8.592
0
0
LINE
8
0
10
6.718
20
8.592
11
7.425
21
8.592
0
0
LINE
8
0
10
7.425
20
8.592
11
7.583
21
8.592
0
0
LINE
8
0
10
7.583
20
8.592
11
7.725
21
8.592
0
0
LINE
8
0
10
7.725
20
8.592
11
8.518
21
8.592
0
0
LINE
8
0
10
8.518
20
8.592
11
9.225
21
8.592
0
0
LINE
8
0
10
9.225
20
8.592
11
9.383
21
8.592
0
0
LINE
8
0
10
9.383
20
8.592
11
9.525
21
8.592
0
0
LINE
8
0
10
9.525
20
8.592
11
10.318
21
8.592
0
0
LINE
8
0
10
10.318
20
8.592
11
11.025
21
8.592
0
0
LINE
8
0
10
11.025
20
8.592
11
11.183
21
8.592
0
0
LINE
8
0
10
11.183
20
8.592
11
11.325
21
8.592
0
0
LINE
8
0
10
11.325
20
8.592
11
12.118
21
8.592
0
0
LINE
8
0
10
12.118
20
8.592
11
12.825
21
8.592
0
0
LINE
8
0
10
12.825
20
8.592
11
12.983
21
8.592
0
0
LINE
8
0
10
12.983
20
8.592
11
13.125
21
8.592
0
0
LINE
8
0
10
13.125
20
8.592
11
13.918
21
8.592
0
0
LINE
8
0
10
13.918
20
8.592
11
14.467
21
8.592
0
0
LINE
8
0
10
14.467
20
8.592
11
14.626
21
8.592
0
0
LINE
8
0
10
0.545
20
9.092
11
0.686
21
9.092
0
0
LINE
8
0
10
0.545
20
9.092
11
0.686
21
9.092
0
0
LINE
8
0
10
0.686
20
9.092
11
1.311
21
9.092
0
0
LINE
8
0
10
1.311
20
9.092
11
2.018
21
9.092
0
0
LINE
8
0
10
2.018
20
9.092
11
2.176
21
9.092
0
0
LINE
8
0
10
2.176
20
9.092
11
2.318
21
9.092
0
0
LINE
8
0
10
2.318
20
9.092
11
3.111
21
9.092
0
0
LINE
8
0
10
3.111
20
9.092
11
3.818
21
9.092
0
0
LINE
8
0
10
3.818
20
9.092
11
3.976
21
9.092
0
0
LINE
8
0
10
3.976
20
9.092
11
4.118
21
9.092
0
0
LINE
8
0
10
4.118
20
9.092
11
4.911
21
9.092
0
0
LINE
8
0
10
4.911
20
9.092
11
5.618
21
9.092
0
0
LINE
8
0
10
5.618
20
9.092
11
5.776
21
9.092
0
0
LINE
8
0
10
5.776
20
9.092
11
5.918
21
9.092
0
0
LINE
8
0
10
5.918
20
9.092
11
6.711
21
9.092
0
0
LINE
8
0
10
6.711
20
9.092
11
7.418
21
9.092
0
0
LINE
8
0
10
7.418
20
9.092
11
7.576
21
9.092
0
0
LINE
8
0
10
7.576
20
9.092
11
7.718
21
9.092
0
0
LINE
8
0
10
7.718
20
9.092
11
8.511
21
9.092
0
0
LINE
8
0
10
8.511
20
9.092
11
9.218
21
9.092
0
0
LINE
8
0
10
9.218
20
9.092
11
9.376
21
9.092
0
0
LINE
8
0
10
9.376
20
9.092
11
9.518
21
9.092
0
0
LINE
8
0
10
9.518
20
9.092
11
10.311
21
9.092
0
0
LINE
8
0
10
10.311
20
9.092
11
11.018
21
9.092
0
0
LINE
8
0
10
11.018
20
9.092
11
11.176
21
9.092
0
0
LINE
8
0
10
11.176
20
9.092
11
11.318
21
9.092
0
0
LINE
8
0
10
11.318
20
9.092
11
12.111
21
9.092
0
0
LINE
8
0
10
12.111
20
9.092
11
12.818
21
9.092
0
0
LINE
8
0
10
12.818
20
9.092
11
12.976
21
9.092
0
0
LINE
8
0
10
12.976
20
9.092
11
13.118
21
9.092
0
0
LINE
8
0
10
13.118
20
9.092
11
13.911
21
9.092
0
0
LINE
8
0
10
13.911
20
9.092
11
14.467
21
9.092
0
0
LINE
8
0
10
14.467
20
9.092
11
14.626
21
9.092
0
0
LINE
8
0
10
0.529
20
9.592
11
0.670
21
9.592
0
0
LINE
8
0
10
0.529
20
9.592
11
0.670
21
9.592
0
0
LINE
8
0
10
0.670
20
9.592
11
1.304
21
9.592
0
0
LINE
8
0
10
1.304
20
9.592
11
2.010
21
9.592
0
0
LINE
8
0
10
2.010
20
9.592
11
2.169
21
9.592
0
0
LINE
8
0
10
2.169
20
9.592
11
2.310
21
9.592
0
0
LINE
8
0
10
2.310
20
9.592
11
3.104
21
9.592
0
0
LINE
8
0
10
3.104
20
9.592
11
3.810
21
9.592
0
0
LINE
8
0
10
3.810
20
9.592
11
3.969
21
9.592
0
0
LINE
8
0
10
3.969
20
9.592
11
4.110
21
9.592
0
0
LINE
8
0
10
4.110
20
9.592
11
4.904
21
9.592
0
0
LINE
8
0
10
4.904
20
9.592
11
5.610
21
9.592
0
0
LINE
8
0
10
5.610
20
9.592
11
5.769
21
9.592
0
0
LINE
8
0
10
5.769
20
9.592
11
5.910
21
9.592
0
0
LINE
8
0
10
5.910
20
9.592
11
6.704
21
9.592
0
0
LINE
8
0
10
6.704
20
9.592
11
7.410
21
9.592
0
0
LINE
8
0
10
7.410
20
9.592
11
7.569
21
9.592
0
0
LINE
8
0
10
7.569
20
9.592
11
7.710
21
9.592
0
0
LINE
8
0
10
7.710
20
9.592
11
8.504
21
9.592
0
0
LINE
8
0
10
8.504
20
9.592
11
9.210
21
9.592
0
0
LINE
8
0
10
9.210
20
9.592
11
9.369
21
9.592
0
0
LINE
8
0
10
9.369
20
9.592
11
9.510
21
9.592
0
0
LINE
8
0
10
9.510
20
9.592
11
10.304
21
9.592
0
0
LINE
8
0
10
10.304
20
9.592
11
11.010
21
9.592
0
0
LINE
8
0
10
11.010
20
9.592
11
11.169
21
9.592
0
0
LINE
8
0
10
11.169
20
9.592
11
11.310
21
9.592
0
0
LINE
8
0
10
11.310
20
9.592
11
12.104
21
9.592
0
0
LINE
8
0
10
12.104
20
9.592
11
12.810
21
9.592
0
0
LINE
8
0
10
12.810
20
9.592
11
12.969
21
9.592
0
0
LINE
8
0
10
12.969
20
9.592
11
13.110
21
9.592
0
0
LINE
8
0
10
13.110
20
9.592
11
13.904
21
9.592
0
0
LINE
8
0
10
13.904
20
9.592
11
14.467
21
9.592
0
0
LINE
8
0
10
14.467
20
9.592
11
14.626
21
9.592
0
0
LINE
8
0
10
0.514
20
10.092
11
0.655
21
10.092
0
0
LINE
8
0
10
0.514
20
10.092
11
0.655
21
10.092
0
0
LINE
8
0
10
0.655
20
10.092
11
1.296
21
10.092
0
0
LINE
8
0
10
1.296
20
10.092
11
2.003
21
10.092
0
0
LINE
8
0
10
2.003
20
10.092
11
2.162
21
10.092
0
0
LINE
8
0
10
2.162
20
10.092
11
2.303
21
10.092
0
0
LINE
8
0
10
2.303
20
10.092
11
3.096
21
10.092
0
0
LINE
8
0
10
3.096
20
10.092
11
3.803
21
10.092
0
0
LINE
8
0
10
3.803
20
10.092
11
3.962
21
10.092
0
0
LINE
8
0
10
3.962
20
10.092
11
4.103
21
10.092
0
0
LINE
8
0
10
4.103
20
10.092
11
4.896
21
10.092
0
0
LINE
8
0
10
4.896
20
10.092
11
5.603
21
10.092
0
0
LINE
8
0
10
5.603
20
10.092
11
5.762
21
10.092
0
0
LINE
8
0
10
5.762
20
10.092
11
5.903
21
10.092
0
0
LINE
8
0
10
5.903
20
10.092
11
6.696
21
10.092
0
0
LINE
8
0
10
6.696
20
10.092
11
7.403
21
10.092
0
0
LINE
8
0
10
7.403
20
10.092
11
7.562
21
10.092
0
0
LINE
8
0
10
7.562
20
10.092
11
7.703
21
10.092
0
0
LINE
8
0
10
7.703
20
10.092
11
8.496
21
10.092
0
0
LINE
8
0
10
8.496
20
10.092
11
9.203
21
10.092
0
0
LINE
8
0
10
9.203
20
10.092
11
9.362
21
10.092
0
0
LINE
8
0
10
9.362
20
10.092
11
9.503
21
10.092
0
0
LINE
8
0
10
9.503
20
10.092
11
10.296
21
10.092
0
0
LINE
8
0
10
10.296
20
10.092
11
11.003
21
10.092
0
0
LINE
8
0
10
11.003
20
10.092
11
11.162
21
10.092
0
0
LINE
8
0
10
11.162
20
10.092
11
11.303
21
10.092
0
0
LINE
8
0
10
11.303
20
10.092
11
12.096
21
10.092
0
0
LINE
8
0
10
12.096
20
10.092
11
12.803
21
10.092
0
0
LINE
8
0
10
12.803
20
10.092
11
12.962
21
10.092
0
0
LINE
8
0
10
12.962
20
10.092
11
13.103
21
10.092
0
0
LINE
8
0
10
13.103
20
10.092
11
13.896
21
10.092
0
0
LINE
8
0
10
13.896
20
10.092
11
14.467
21
10.092
0
0
LINE
8
0
10
14.467
20
10.092
11
14.626
21
10.092
0
0
LINE
8
0
10
0.499
20
10.592
11
0.640
21
10.592
0
0
LINE
8
0
10
0.499
20
10.592
11
0.640
21
10.592
0
0
LINE
8
0
10
0.640
20
10.592
11
1.289
21
10.592
0
0
LINE
8
0
10
1.289
20
10.592
11
1.996
21
10.592
0
0
LINE
8
0
10
1.996
20
10.592
11
2.155
21
10.592
0
0
LINE
8
0
10
2.155
20
10.592
11
2.296
21
10.592
0
0
LINE
8
0
10
2.296
20
10.592
11
3.089
21
10.592
0
0
LINE
8
0
10
3.089
20
10.592
11
3.796
21
10.592
0
0
LINE
8
0
10
3.796
20
10.592
11
3.955
21
10.592
0
0
LINE
8
0
10
3.955
20
10.592
11
4.096
21
10.592
0
0
LINE
8
0
10
4.096
20
10.592
11
4.889
21
10.592
0
0
LINE
8
0
10
4.889
20
10.592
11
5.596
21
10.592
0
0
LINE
8
0
10
5.596
20
10.592
11
5.755
21
10.592
0
0
LINE
8
0
10
5.755
20
10.592
11
5.896
21
10.592
0
0
LINE
8
0
10
5.896
20
10.592
11
6.689
21
10.592
0
0
LINE
8
0
10
6.689
20
10.592
11
7.396
21
10.592
0
0
LINE
8
0
10
7.396
20
10.592
11
7.555
21
10.592
0
0
LINE
8
0
10
7.555
20
10.592
11
7.696
21
10.592
0
0
LINE
8
0
10
7.696
20
10.592
11
8.489
21
10.592
0
0
LINE
8
0
10
8.489
20
10.592
11
9.196
21
10.592
0
0
LINE
8
0
10
9.196
20
10.592
11
9.355
21
10.592
0
0
LINE
8
0
10
9.355
20
10.592
11
9.496
21
10.592
0
0
LINE
8
0
10
9.496
20
10.592
11
10.289
21
10.592
0
0
LINE
8
0
10
10.289
20
10.592
11
10.996
21
10.592
0
0
LINE
8
0
10
10.996
20
10.592
11
11.155
21
10.592
0
0
LINE
8
0
10
11.155
20
10.592
11
11.296
21
10.592
0
0
LINE
8
0
10
11.296
20
10.592
11
12.089
21
10.592
0
0
LINE
8
0
10
12.089
20
10.592
11
12.796
21
10.592
0
0
LINE
8
0
10
12.796
20
10.592
11
12.955
21
10.592
0
0
LINE
8
0
10
12.955
20
10.592
11
13.096
21
10.592
0
0
LINE
8
0
10
13.096
20
10.592
11
13.889
21
10.592
0
0
LINE
8
0
10
13.889
20
10.592
11
14.467
21
10.592
0
0
LINE
8
0
10
14.467
20
10.592
11
14.626
21
10.592
0
0
LINE
8
0
10
0.484
20
11.092
11
0.625
21
11.092
0
0
LINE
8
0
10
0.484
20
11.092
11
0.625
21
11.092
0
0
LINE
8
0
10
0.625
20
11.092
11
1.282
21
11.092
0
0
LINE
8
0
10
1.282
20
11.092
11
1.989
21
11.092
0
0
LINE
8
0
10
1.989
20
11.092
11
2.148
21
11.092
0
0
LINE
8
0
10
2.148
20
11.092
11
2.289
21
11.092
0
0
LINE
8
0
10
2.289
20
11.092
11
3.082
21
11.092
0
0
LINE
8
0
10
3.082
20
11.092
11
3.789
21
11.092
0
0
LINE
8
0
10
3.789
20
11.092
11
3.948
21
11.092
0
0
LINE
8
0
10
3.948
20
11.092
11
4.089
21
11.092
0
0
LINE
8
0
10
4.089
20
11.092
11
4.882
21
11.092
0
0
LINE
8
0
10
4.882
20
11.092
11
5.589
21
11.092
0
0
LINE
8
0
10
5.589
20
11.092
11
5.748
21
11.092
0
0
LINE
8
0
10
5.748
20
11.092
11
5.889
21
11.092
0
0
LINE
8
0
10
5.889
20
11.092
11
6.682
21
11.092
0
0
LINE
8
0
10
6.682
20
11.092
11
7.389
21
11.092
0
0
LINE
8
0
10
7.389
20
11.092
11
7.548
21
11.092
0
0
LINE
8
0
10
7.548
20
11.092
11
7.689
21
11.092
0
0
LINE
8
0
10
7.689
20
11.092
11
8.482
21
11.092
0
0
LINE
8
0
10
8.482
20
11.092
11
9.189
21
11.092
0
0
LINE
8
0
10
9.189
20
11.092
11
9.348
21
11.092
0
0
LINE
8
0
10
9.348
20
11.092
11
9.489
21
11.092
0
0
LINE
8
0
10
9.489
20
11.092
11
10.282
21
11.092
0
0
LINE
8
0
10
10.282
20
11.092
11
10.989
21
11.092
0
0
LINE
8
0
10
10.989
20
11.092
11
11.148
21
11.092
0
0
LINE
8
0
10
11.148
20
11.092
11
11.289
21
11.092
0
0
LINE
8
0
10
11.289
20
11.092
11
12.082
21
11.092
0
0
LINE
8
0
10
12.082
20
11.092
11
12.789
21
11.092
0
0
LINE
8
0
10
12.789
20
11.092
11
12.948
21
11.092
0
0
LINE
8
0
10
12.948
20
11.092
11
13.089
21
11.092
0
0
LINE
8
0
10
13.089
20
11.092
11
13.882
21
11.092
0
0
LINE
8
0
10
13.882
20
11.092
11
14.467
21
11.092
0
0
LINE
8
0
10
14.467
20
11.092
11
14.626
21
11.092
0
0
LINE
8
0
10
0.468
20
11.592
11
0.609
21
11.592
0
0
LINE
8
0
10
0.468
20
11.592
11
0.609
21
11.592
0
0
LINE
8
0
10
0.609
20
11.592
11
1.275
21
11.592
0
0
LINE
8
0
10
1.275
20
11.592
11
1.981
21
11.592
0
0
LINE
8
0
10
1.981
20
11.592
11
2.140
21
11.592
0
0
LINE
8
0
10
2.140
20
11.592
11
2.281
21
11.592
0
0
LINE
8
0
10
2.281
20
11.592
11
3.075
21
11.592
0
0
LINE
8
0
10
3.075
20
11.592
11
3.781
21
11.592
0
0
LINE
8
0
10
3.781
20
11.592
11
3.940
21
11.592
0
0
LINE
8
0
10
3.940
20
11.592
11
4.081
21
11.592
0
0
LINE
8
0
10
4.081
20
11.592
11
4.875
21
11.592
0
0
LINE
8
0
10
4.875
20
11.592
11
5.581
21
11.592
0
0
LINE
8
0
10
5.581
20
11.592
11
5.740
21
11.592
0
0
LINE
8
0
10
5.740
20
11.592
11
5.881
21
11.592
0
0
LINE
8
0
10
5.881
20
11.592
11
6.675
21
11.592
0
0
LINE
8
0
10
6.675
20
11.592
11
7.381
21
11.592
0
0
LINE
8
0
10
7.381
20
11.592
11
7.540
21
11.592
0
0
LINE
8
0
10
7.540
20
11.592
11
7.681
21
11.592
0
0
LINE
8
0
10
7.681
20
11.592
11
8.475
21
11.592
0
0
LINE
8
0
10
8.475
20
11.592
11
9.181
21
11.592
0
0
LINE
8
0
10
9.181
20
11.592
11
9.340
21
11.592
0
0
LINE
8
0
10
9.340
20
11.592
11
9.481
21
11.592
0
0
LINE
8
0
10
9.481
20
11.592
11
10.275
21
11.592
0
0
LINE
8
0
10
10.275
20
11.592
11
10.981
21
11.592
0
0
LINE
8
0
10
10.981
20
11.592
11
11.140
21
11.592
0
0
LINE
8
0
10
11.140
20
11.592
11
11.281
21
11.592
0
0
LINE
8
0
10
11.281
20
11.592
11
12.075
21
11.592
0
0
LINE
8
0
10
12.075
20
11.592
11
12.781
21
11.592
0
0
LINE
8
0
10
12.781
20
11.592
11
12.940
21
11.592
0
0
LINE
8
0
10
12.940
20
11.592
11
13.081
21
11.592
0
0
LINE
8
0
10
13.081
20
11.592
11
13.875
21
11.592
0
0
LINE
8
0
10
13.875
20
11.592
11
14.467
21
11.592
0
0
LINE
8
0
10
14.467
20
11.592
11
14.626
21
11.592
0
0
LINE
8
0
10
0.453
20
12.092
11
0.594
21
12.092
0
0
LINE
8
0
10
0.453
20
12.092
11
0.594
21
12.092
0
0
LINE
8
0
10
0.594
20
12.092
11
1.268
21
12.092
0
0
LINE
8
0
10
1.268
20
12.092
11
1.974
21
12.092
0
0
LINE
8
0
10
1.974
20
12.092
11
2.133
21
12.092
0
0
LINE
8
0
10
2.133
20
12.092
11
2.274
21
12.092
0
0
LINE
8
0
10
2.274
20
12.092
11
3.068
21
12.092
0
0
LINE
8
0
10
3.068
20
12.092
11
3.774
21
12.092
0
0
LINE
8
0
10
3.774
20
12.092
11
3.933
21
12.092
0
0
LINE
8
0
10
3.933
20
12.092
11
4.074
21
12.092
0
0
LINE
8
0
10
4.074
20
12.092
11
4.868
21
12.092
0
0
LINE
8
0
10
4.868
20
12.092
11
5.574
21
12.092
0
0
LINE
8
0
10
5.574
20
12.092
11
5.733
21
12.092
0
0
LINE
8
0
10
5.733
20
12.092
11
5.874
21
12.092
0
0
LINE
8
0
10
5.874
20
12.092
11
6.668
21
12.092
0
0
LINE
8
0
10
6.668
20
12.092
11
7.374
21
12.092
0
0
LINE
8
0
10
7.374
20
12.092
11
7.533
21
12.092
0
0
LINE
8
0
10
7.533
20
12.092
11
7.674
21
12.092
0
0
LINE
8
0
10
7.674
20
12.092
11
8.468
21
12.092
0
0
LINE
8
0
10
8.468
20
12.092
11
9.174
21
12.092
0
0
LINE
8
0
10
9.174
20
12.092
11
9.333
21
12.092
0
0
LINE
8
0
10
9.333
20
12.092
11
9.474
21
12.092
0
0
LINE
8
0
10
9.474
20
12.092
11
10.268
21
12.092
0
0
LINE
8
0
10
10.268
20
12.092
11
10.974
21
12.092
0
0
LINE
8
0
10
10.974
20
12.092
11
11.133
21
12.092
0
0
LINE
8
0
10
11.133
20
12.092
11
11.274
21
12.092
0
0
LINE
8
0
10
11.274
20
12.092
11
12.068
21
12.092
0
0
LINE
8
0
10
12.068
20
12.092
11
12.774
21
12.092
0
0
LINE
8
0
10
12.774
20
12.092
11
12.933
21
12.092
0
0
LINE
8
0
10
12.933
20
12.092
11
13.074
21
12.092
0
0
LINE
8
0
10
13.074
20
12.092
11
13.868
21
12.092
0
0
LINE
8
0
10
13.868
20
12.092
11
14.467
21
12.092
0
0
LINE
8
0
10
14.467
20
12.092
11
14.626
21
12.092
0
0
LINE
8
0
10
0.438
20
12.592
11
0.579
21
12.592
0
0
LINE
8
0
10
0.438
20
12.592
11
0.579
21
12.592
0
0
LINE
8
0
10
0.579
20
12.592
11
1.261
21
12.592
0
0
LINE
8
0
10
1.261
20
12.592
11
1.967
21
12.592
0
0
LINE
8
0
10
1.967
20
12.592
11
2.126
21
12.592
0
0
LINE
8
0
10
2.126
20
12.592
11
2.267
21
12.592
0
0
LINE
8
0
10
2.267
20
12.592
11
3.061
21
12.592
0
0
LINE
8
0
10
3.061
20
12.592
11
3.767
21
12.592
0
0
LINE
8
0
10
3.767
20
12.592
11
3.926
21
12.592
0
0
LINE
8
0
10
3.926
20
12.592
11
4.067
21
12.592
0
0
LINE
8
0
10
4.067
20
12.592
11
4.861
21
12.592
0
0
LINE
8
0
10
4.861
20
12.592
11
5.567
21
12.592
0
0
LINE
8
0
10
5.567
20
12.592
11
5.726
21
12.592
0
0
LINE
8
0
10
5.726
20
12.592
11
5.867
21
12.592
0
0
LINE
8
0
10
5.867
20
12.592
11
6.661
21
12.592
0
0
LINE
8
0
10
6.661
20
12.592
11
7.367
21
12.592
0
0
LINE
8
0
10
7.367
20
12.592
11
7.526
21
12.592
0
0
LINE
8
0
10
7.526
20
12.592
11
7.667
21
12.592
0
0
LINE
8
0
10
7.667
20
12.592
11
8.461
21
12.592
0
0
LINE
8
0
10
8.461
20
12.592
11
9.167
21
12.592
0
0
LINE
8
0
10
9.167
20
12.592
11
9.326
21
12.592
0
0
LINE
8
0
10
9.326
20
12.592
11
9.467
21
12.592
0
0
LINE
8
0
10
9.467
20
12.592
11
10.261
21
12.592
0
0
LINE
8
0
10
10.261
20
12.592
11
10.967
21
12.592
0
0
LINE
8
0
10
10.967
20
12.592
11
11.126
21
12.592
0
0
LINE
8
0
10
11.126
20
12.592
11
11.267
21
12.592
0
0
LINE
8
0
10
11.267
20
12.592
11
12.061
21
12.592
0
0
LINE
8
0
10
12.061
20
12.592
11
12.767
21
12.592
0
0
LINE
8
0
10
12.767
20
12.592
11
12.926
21
12.592
0
0
LINE
8
0
10
12.926
20
12.592
11
13.067
21
12.592
0
0
LINE
8
0
10
13.067
20
12.592
11
13.861
21
12.592
0
0
LINE
8
0
10
13.861
20
12.592
11
14.467
21
12.592
0
0
LINE
8
0
10
14.467
20
12.592
11
14.626
21
12.592
0
0
LINE
8
0
10
0.451
20
13.092
11
0.592
21
13.092
0
0
LINE
8
0
10
0.451
20
13.092
11
0.592
21
13.092
0
0
LINE
8
0
10
0.592
20
13.092
11
1.267
21
13.092
0
0
LINE
8
0
10
1.267
20
13.092
11
1.973
21
13.092
0
0
LINE
8
0
10
1.973
20
13.092
11
2.132
21
13.092
0
0
LINE
8
0
10
2.132
20
13.092
11
2.273
21
13.092
0
0
LINE
8
0
10
2.273
20
13.092
11
3.067
21
13.092
0
0
LINE
8
0
10
3.067
20
13.092
11
3.773
21
13.092
0
0
LINE
8
0
10
3.773
20
13.092
11
3.932
21
13.092
0
0
LINE
8
0
10
3.932
20
13.092
11
4.073
21
13.092
0
0
LINE
8
0
10
4.073
20
13.092
11
4.867
21
13.092
0
0
LINE
8
0
10
4.867
20
13.092
11
5.573
21
13.092
0
0
LINE
8
0
10
5.573
20
13.092
11
5.732
21
13.092
0
0
LINE
8
0
10
5.732
20
13.092
11
5.873
21
13.092
0
0
LINE
8
0
10
5.873
20
13.092
11
6.667
21
13.092
0
0
LINE
8
0
10
6.667
20
13.092
11
7.373
21
13.092
0
0
LINE
8
0
10
7.373
20
13.092
11
7.532
21
13.092
0
0
LINE
8
0
10
7.532
20
13.092
11
7.673
21
13.092
0
0
LINE
8
0
10
7.673
20
13.092
11
8.467
21
13.092
0
0
LINE
8
0
10
8.467
20
13.092
11
9.173
21
13.092
0
0
LINE
8
0
10
9.173
20
13.092
11
9.332
21
13.092
0
0
LINE
8
0
10
9.332
20
13.092
11
9.473
21
13.092
0
0
LINE
8
0
10
9.473
20
13.092
11
10.267
21
13.092
0
0
LINE
8
0
10
10.267
20
13.092
11
10.973
21
13.092
0
0
LINE
8
0
10
10.973
20
13.092
11
11.132
21
13.092
0
0
LINE
8
0
10
11.132
20
13.092
11
11.273
21
13.092
0
0
LINE
8
0
10
11.273
20
13.092
11
12.067
21
13.092
0
0
LINE
8
0
10
12.067
20
13.092
11
12.773
21
13.092
0
0
LINE
8
0
10
12.773
20
13.092
11
12.932
21
13.092
0
0
LINE
8
0
10
12.932
20
13.092
11
13.073
21
13.092
0
0
LINE
8
0
10
13.073
20
13.092
11
13.867
21
13.092
0
0
LINE
8
0
10
13.867
20
13.092
11
14.467
21
13.092
0
0
LINE
8
0
10
14.467
20
13.092
11
14.626
21
13.092
0
0
LINE
8
0
10
0.511
20
13.592
11
0.652
21
13.592
0
0
LINE
8
0
10
0.511
20
13.592
11
0.652
21
13.592
0
0
LINE
8
0
10
0.652
20
13.592
11
1.295
21
13.592
0
0
LINE
8
0
10
1.295
20
13.592
11
2.002
21
13.592
0
0
LINE
8
0
10
2.002
20
13.592
11
2.160
21
13.592
0
0
LINE
8
0
10
2.160
20
13.592
11
2.302
21
13.592
0
0
LINE
8
0
10
2.302
20
13.592
11
3.095
21
13.592
0
0
LINE
8
0
10
3.095
20
13.592
11
3.802
21
13.592
0
0
LINE
8
0
10
3.802
20
13.592
11
3.960
21
13.592
0
0
LINE
8
0
10
3.960
20
13.592
11
4.102
21
13.592
0
0
LINE
8
0
10
4.102
20
13.592
11
4.895
21
13.592
0
0
LINE
8
0
10
4.895
20
13.592
11
5.602
21
13.592
0
0
LINE
8
0
10
5.602
20
13.592
11
5.760
21
13.592
0
0
LINE
8
0
10
5.760
20
13.592
11
5.902
21
13.592
0
0
LINE
8
0
10
5.902
20
13.592
11
6.695
21
13.592
0
0
LINE
8
0
10
6.695
20
13.592
11
7.402
21
13.592
0
0
LINE
8
0
10
7.402
20
13.592
11
7.560
21
13.592
0
0
LINE
8
0
10
7.560
20
13.592
11
7.702
21
13.592
0
0
LINE
8
0
10
7.702
20
13.592
11
8.495
21
13.592
0
0
LINE
8
0
10
8.495
20
13.592
11
9.202
21
13.592
0
0
LINE
8
0
10
9.202
20
13.592
11
9.360
21
13.592
0
0
LINE
8
0
10
9.360
20
13.592
11
9.502
21
13.592
0
0
LINE
8
0
10
9.502
20
13.592
11
10.295
21
13.592
0
0
LINE
8
0
10
10.295
20
13.592
11
11.002
21
13.592
0
0
LINE
8
0
10
11.002
20
13.592
11
11.160
21
13.592
0
0
LINE
8
0
10
11.160
20
13.592
11
11.302
21
13.592
0
0
LINE
8
0
10
11.302
20
13.592
11
12.095
21
13.592
0
0
LINE
8
0
10
12.095
20
13.592
11
12.802
21
13.592
0
0
LINE
8
0
10
12.802
20
13.592
11
12.960
21
13.592
0
0
LINE
8
0
10
12.960
20
13.592
11
13.102
21
13.592
0
0
LINE
8
0
10
13.102
20
13.592
11
13.895
21
13.592
0
0
LINE
8
0
10
13.895
20
13.592
11
14.467
21
13.592
0
0
LINE
8
0
10
14.467
20
13.592
11
14.626
21
13.592
0
0
LINE
8
0
10
0.654
20
14.092
11
0.795
21
14.092
0
0
LINE
8
0
10
0.654
20
14.092
11
0.795
21
14.092
0
0
LINE
8
0
10
0.795
20
14.092
11
1.362
21
14.092
0
0
LINE
8
0
10
1.362
20
14.092
11
2.069
21
14.092
0
0
LINE
8
0
10
2.069
20
14.092
11
2.228
21
14.092
0
0
LINE
8
0
10
2.228
20
14.092
11
2.369
21
14.092
0
0
LINE
8
0
10
2.369
20
14.092
11
3.162
21
14.092
0
0
LINE
8
0
10
3.162
20
14.092
11
3.869
21
14.092
0
0
LINE
8
0
10
3.869
20
14.092
11
4.028
21
14.092
0
0
LINE
8
0
10
4.028
20
14.092
11
4.169
21
14.092
0
0
LINE
8
0
10
4.169
20
14.092
11
4.962
21
14.092
0
0
LINE
8
0
10
4.962
20
14.092
11
5.669
21
14.092
0
0
LINE
8
0
10
5.669
20
14.092
11
5.828
21
14.092
0
0
LINE
8
0
10
5.828
20
14.092
11
5.969
21
14.092
0
0
LINE
8
0
10
5.969
20
14.092
11
6.762
21
14.092
0
0
LINE
8
0
10
6.762
20
14.092
11
7.469
21
14.092
0
0
LINE
8
0
10
7.469
20
14.092
11
7.628
21
14.092
0
0
LINE
8
0
10
7.628
20
14.092
11
7.769
21
14.092
0
0
LINE
8
0
10
7.769
20
14.092
11
8.562
21
14.092
0
0
LINE
8
0
10
8.562
20
14.092
11
9.269
21
14.092
0
0
LINE
8
0
10
9.269
20
14.092
11
9.428
21
14.092
0
0
LINE
8
0
10
9.428
20
14.092
11
9.569
21
14.092
0
0
LINE
8
0
10
9.569
20
14.092
11
10.362
21
14.092
0
0
LINE
8
0
10
10.362
20
14.092
11
11.069
21
14.092
0
0
LINE
8
0
10
11.069
20
14.092
11
11.228
21
14.092
0
0
LINE
8
0
10
11.228
20
14.092
11
11.369
21
14.092
0
0
LINE
8
0
10
11.369
20
14.092
11
12.162
21
14.092
0
0
LINE
8
0
10
12.162
20
14.092
11
12.869
21
14.092
0
0
LINE
8
0
10
12.869
20
14.092
11
13.028
21
14.092
0
0
LINE
8
0
10
13.028
20
14.092
11
13.169
21
14.092
0
0
LINE
8
0
10
13.169
20
14.092
11
13.962
21
14.092
0
0
LINE
8
0
10
13.962
20
14.092
11
14.467
21
14.092
0
0
LINE
8
0
10
14.467
20
14.092
11
14.626
21
14.092
0
0
LINE
8
0
10
1.221
20
14.592
11
1.362
21
14.592
0
0
LINE
8
0
10
1.221
20
14.592
11
1.362
21
14.592
0
0
LINE
8
0
10
1.362
20
14.592
11
1.629
21
14.592
0
0
LINE
8
0
10
1.629
20
14.592
11
1.788
21
14.592
0
0
LINE
8
0
10
1.788
20
14.592
11
2.495
21
14.592
0
0
LINE
8
0
10
2.495
20
14.592
11
3.288
21
14.592
0
0
LINE
8
0
10
3.288
20
14.592
11
3.429
21
14.592
0
0
LINE
8
0
10
3.429
20
14.592
11
3.588
21
14.592
0
0
LINE
8
0
10
3.588
20
14.592
11
4.295
21
14.592
0
0
LINE
8
0
10
4.295
20
14.592
11
5.088
21
14.592
0
0
LINE
8
0
10
5.088
20
14.592
11
5.229
21
14.592
0
0
LINE
8
0
10
5.229
20
14.592
11
5.388
21
14.592
0
0
LINE
8
0
10
5.388
20
14.592
11
5.788
21
14.592
0
0
LINE
8
0
10
5.788
20
14.592
11
5.929
21
14.592
0
0
LINE
8
0
10
5.929
20
14.592
11
6.722
21
14.592
0
0
LINE
8
0
10
6.722
20
14.592
11
7.429
21
14.592
0
0
LINE
8
0
10
7.429
20
14.592
11
7.588
21
14.592
0
0
LINE
8
0
10
7.588
20
14.592
11
7.729
21
14.592
0
0
LINE
8
0
10
7.729
20
14.592
11
8.522
21
14.592
0
0
LINE
8
0
10
8.522
20
14.592
11
9.229
21
14.592
0
0
LINE
8
0
10
9.229
20
14.592
11
9.388
21
14.592
0
0
LINE
8
0
10
9.388
20
14.592
11
9.529
21
14.592
0
0
LINE
8
0
10
9.529
20
14.592
11
10.322
21
14.592
0
0
LINE
8
0
10
10.322
20
14.592
11
11.029
21
14.592
0
0
LINE
8
0
10
11.029
20
14.592
11
11.188
21
14.592
0
0
LINE
8
0
10
11.188
20
14.592
11
11.329
21
14.592
0
0
LINE
8
0
10
11.329
20
14.592
11
12.122
21
14.592
0
0
LINE
8
0
10
12.122
20
14.592
11
12.829
21
14.592
0
0
LINE
8
0
10
12.829
20
14.592
11
12.988
21
14.592
0
0
LINE
8
0
10
12.988
20
14.592
11
13.129
21
14.592
0
0
LINE
8
0
10
13.129
20
14.592
11
13.922
21
14.592
0
0
LINE
8
0
10
13.922
20
14.592
11
14.467
21
14.592
0
0
LINE
8
0
10
14.467
20
14.592
11
14.626
21
14.592
0
0
ENDSEC
0
EOF
