  0
SECTION
  2
HEADER
  9
$ACADVER
  1
AC1024
  9
$ACADMAINTVER
 70
6
  9
$DWGCODEPAGE
  3
ANSI_1252
  9
$LASTSAVEDBY
  1
ezdxf
  9
$INSBASE
 10
0.0
 20
0.0
 30
0.0
  9
$EXTMIN
 10
1e+20
 20
1e+20
 30
1e+20
  9
$EXTMAX
 10
-1e+20
 20
-1e+20
 30
-1e+20
  9
$LIMMIN
 10
0.0
 20
0.0
  9
$LIMMAX
 10
420.0
 20
297.0
  9
$ORTHOMODE
 70
0
  9
$REGENMODE
 70
1
  9
$FILLMODE
 70
1
  9
$QTEXTMODE
 70
0
  9
$MIRRTEXT
 70
1
  9
$LTSCALE
 40
1.0
  9
$ATTMODE
 70
1
  9
$TEXTSIZE
 40
2.5
  9
$TRACEWID
 40
1.0
  9
$TEXTSTYLE
  7
Standard
  9
$CLAYER
  8
0
  9
$CELTYPE
  6
ByLayer
  9
$CECOLOR
 62
256
  9
$CELTSCALE
 40
1.0
  9
$DISPSILH
 70
0
  9
$DIMSCALE
 40
1.0
  9
$DIMASZ
 40
2.5
  9
$DIMEXO
 40
0.625
  9
$DIMDLI
 40
3.75
  9
$DIMRND
 40
0.0
  9
$DIMDLE
 40
0.0
  9
$DIMEXE
 40
1.25
  9
$DIMTP
 40
0.0
  9
$DIMTM
 40
0.0
  9
$DIMTXT
 40
2.5
  9
$DIMCEN
 40
2.5
  9
$DIMTSZ
 40
0.0
  9
$DIMTOL
 70
0
  9
$DIMLIM
 70
0
  9
$DIMTIH
 70
0
  9
$DIMTOH
 70
0
  9
$DIMSE1
 70
0
  9
$DIMSE2
 70
0
  9
$DIMTAD
 70
1
  9
$DIMZIN
 70
8
  9
$DIMBLK
  1

  9
$DIMASO
 70
1
  9
$DIMSHO
 70
1
  9
$DIMPOST
  1

  9
$DIMAPOST
  1

  9
$DIMALT
 70
0
  9
$DIMALTD
 70
3
  9
$DIMALTF
 40
0.03937007874
  9
$DIMLFAC
 40
1.0
  9
$DIMTOFL
 70
1
  9
$DIMTVP
 40
0.0
  9
$DIMTIX
 70
0
  9
$DIMSOXD
 70
0
  9
$DIMSAH
 70
0
  9
$DIMBLK1
  1

  9
$DIMBLK2
  1

  9
$DIMSTYLE
  2
ISO-25
  9
$DIMCLRD
 70
0
  9
$DIMCLRE
 70
0
  9
$DIMCLRT
 70
0
  9
$DIMTFAC
 40
1.0
  9
$DIMGAP
 40
0.625
  9
$DIMJUST
 70
0
  9
$DIMSD1
 70
0
  9
$DIMSD2
 70
0
  9
$DIMTOLJ
 70
0
  9
$DIMTZIN
 70
8
  9
$DIMALTZ
 70
0
  9
$DIMALTTZ
 70
0
  9
$DIMUPT
 70
0
  9
$DIMDEC
 70
2
  9
$DIMTDEC
 70
2
  9
$DIMALTU
 70
2
  9
$DIMALTTD
 70
3
  9
$DIMTXSTY
  7
Standard
  9
$DIMAUNIT
 70
0
  9
$DIMADEC
 70
0
  9
$DIMALTRND
 40
0.0
  9
$DIMAZIN
 70
0
  9
$DIMDSEP
 70
44
  9
$DIMATFIT
 70
3
  9
$DIMFRAC
 70
0
  9
$DIMLDRBLK
  1

  9
$DIMLUNIT
 70
2
  9
$DIMLWD
 70
-2
  9
$DIMLWE
 70
-2
  9
$DIMTMOVE
 70
0
  9
$DIMFXL
 40
1.0
  9
$DIMFXLON
 70
0
  9
$DIMJOGANG
 40
0.785398163397
  9
$DIMTFILL
 70
0
  9
$DIMTFILLCLR
 70
0
  9
$DIMARCSYM
 70
0
  9
$DIMLTYPE
  6

  9
$DIMLTEX1
  6

  9
$DIMLTEX2
  6

  9
$DIMTXTDIRECTION
 70
0
  9
$LUNITS
 70
2
  9
$LUPREC
 70
4
  9
$SKETCHINC
 40
1.0
  9
$FILLETRAD
 40
10.0
  9
$AUNITS
 70
0
  9
$AUPREC
 70
2
  9
$MENU
  1
.
  9
$ELEVATION
 40
0.0
  9
$PELEVATION
 40
0.0
  9
$THICKNESS
 40
0.0
  9
$LIMCHECK
 70
0
  9
$CHAMFERA
 40
0.0
  9
$CHAMFERB
 40
0.0
  9
$CHAMFERC
 40
0.0
  9
$CHAMFERD
 40
0.0
  9
$SKPOLY
 70
0
  9
$TDCREATE
 40
2460887.509513889
  9
$TDUCREATE
 40
2458532.153996898
  9
$TDUPDATE
 40
2460887.509513889
  9
$TDUUPDATE
 40
2458532.1544311
  9
$TDINDWG
 40
0.0
  9
$TDUSRTIMER
 40
0.0
  9
$USRTIMER
 70
1
  9
$ANGBASE
 50
0.0
  9
$ANGDIR
 70
0
  9
$PDMODE
 70
0
  9
$PDSIZE
 40
0.0
  9
$PLINEWID
 40
0.0
  9
$SPLFRAME
 70
0
  9
$SPLINETYPE
 70
6
  9
$SPLINESEGS
 70
8
  9
$HANDSEED
  5
1EE
  9
$SURFTAB1
 70
6
  9
$SURFTAB2
 70
6
  9
$SURFTYPE
 70
6
  9
$SURFU
 70
6
  9
$SURFV
 70
6
  9
$UCSBASE
  2

  9
$UCSNAME
  2

  9
$UCSORG
 10
0.0
 20
0.0
 30
0.0
  9
$UCSXDIR
 10
1.0
 20
0.0
 30
0.0
  9
$UCSYDIR
 10
0.0
 20
1.0
 30
0.0
  9
$UCSORTHOREF
  2

  9
$UCSORTHOVIEW
 70
0
  9
$UCSORGTOP
 10
0.0
 20
0.0
 30
0.0
  9
$UCSORGBOTTOM
 10
0.0
 20
0.0
 30
0.0
  9
$UCSORGLEFT
 10
0.0
 20
0.0
 30
0.0
  9
$UCSORGRIGHT
 10
0.0
 20
0.0
 30
0.0
  9
$UCSORGFRONT
 10
0.0
 20
0.0
 30
0.0
  9
$UCSORGBACK
 10
0.0
 20
0.0
 30
0.0
  9
$PUCSBASE
  2

  9
$PUCSNAME
  2

  9
$PUCSORG
 10
0.0
 20
0.0
 30
0.0
  9
$PUCSXDIR
 10
1.0
 20
0.0
 30
0.0
  9
$PUCSYDIR
 10
0.0
 20
1.0
 30
0.0
  9
$PUCSORTHOREF
  2

  9
$PUCSORTHOVIEW
 70
0
  9
$PUCSORGTOP
 10
0.0
 20
0.0
 30
0.0
  9
$PUCSORGBOTTOM
 10
0.0
 20
0.0
 30
0.0
  9
$PUCSORGLEFT
 10
0.0
 20
0.0
 30
0.0
  9
$PUCSORGRIGHT
 10
0.0
 20
0.0
 30
0.0
  9
$PUCSORGFRONT
 10
0.0
 20
0.0
 30
0.0
  9
$PUCSORGBACK
 10
0.0
 20
0.0
 30
0.0
  9
$USERI1
 70
0
  9
$USERI2
 70
0
  9
$USERI3
 70
0
  9
$USERI4
 70
0
  9
$USERI5
 70
0
  9
$USERR1
 40
0.0
  9
$USERR2
 40
0.0
  9
$USERR3
 40
0.0
  9
$USERR4
 40
0.0
  9
$USERR5
 40
0.0
  9
$WORLDVIEW
 70
1
  9
$SHADEDGE
 70
3
  9
$SHADEDIF
 70
70
  9
$TILEMODE
 70
1
  9
$MAXACTVP
 70
64
  9
$PINSBASE
 10
0.0
 20
0.0
 30
0.0
  9
$PLIMCHECK
 70
0
  9
$PEXTMIN
 10
1e+20
 20
1e+20
 30
1e+20
  9
$PEXTMAX
 10
-1e+20
 20
-1e+20
 30
-1e+20
  9
$PLIMMIN
 10
0.0
 20
0.0
  9
$PLIMMAX
 10
420.0
 20
297.0
  9
$UNITMODE
 70
0
  9
$VISRETAIN
 70
1
  9
$PLINEGEN
 70
0
  9
$PSLTSCALE
 70
1
  9
$TREEDEPTH
 70
3020
  9
$CMLSTYLE
  2
Standard
  9
$CMLJUST
 70
0
  9
$CMLSCALE
 40
20.0
  9
$PROXYGRAPHICS
 70
1
  9
$MEASUREMENT
 70
1
  9
$CELWEIGHT
370
-1
  9
$ENDCAPS
280
0
  9
$JOINSTYLE
280
0
  9
$LWDISPLAY
290
0
  9
$INSUNITS
 70
6
  9
$HYPERLINKBASE
  1

  9
$STYLESHEET
  1

  9
$XEDIT
290
1
  9
$CEPSNTYPE
380
0
  9
$PSTYLEMODE
290
1
  9
$FINGERPRINTGUID
  2
{14755209-8953-4708-BE65-74298C89A8DB}
  9
$VERSIONGUID
  2
{FB350D1C-F995-44D0-BA5A-696AB79124F9}
  9
$EXTNAMES
290
1
  9
$PSVPSCALE
 40
0.0
  9
$OLESTARTUP
290
0
  9
$SORTENTS
280
127
  9
$INDEXCTL
280
0
  9
$HIDETEXT
280
1
  9
$XCLIPFRAME
280
1
  9
$HALOGAP
280
0
  9
$OBSCOLOR
 70
257
  9
$OBSLTYPE
280
0
  9
$INTERSECTIONDISPLAY
280
0
  9
$INTERSECTIONCOLOR
 70
257
  9
$DIMASSOC
280
2
  9
$PROJECTNAME
  1

  9
$CAMERADISPLAY
290
0
  9
$LENSLENGTH
 40
50.0
  9
$CAMERAHEIGHT
 40
0.0
  9
$STEPSPERSEC
 40
24.0
  9
$STEPSIZE
 40
100.0
  9
$3DDWFPREC
 40
2.0
  9
$PSOLWIDTH
 40
0.005
  9
$PSOLHEIGHT
 40
0.08
  9
$LOFTANG1
 40
1.570796326795
  9
$LOFTANG2
 40
1.570796326795
  9
$LOFTMAG1
 40
0.0
  9
$LOFTMAG2
 40
0.0
  9
$LOFTPARAM
 70
7
  9
$LOFTNORMALS
280
1
  9
$LATITUDE
 40
37.795
  9
$LONGITUDE
 40
-122.394
  9
$NORTHDIRECTION
 40
0.0
  9
$TIMEZONE
 70
-8000
  9
$LIGHTGLYPHDISPLAY
280
1
  9
$TILEMODELIGHTSYNCH
280
1
  9
$CMATERIAL
347
20
  9
$SOLIDHIST
280
0
  9
$SHOWHIST
280
1
  9
$DWFFRAME
280
2
  9
$DGNFRAME
280
2
  9
$REALWORLDSCALE
290
1
  9
$INTERFERECOLOR
 62
256
  9
$CSHADOW
280
0
  9
$SHADOWPLANELOCATION
 40
0.0
  0
ENDSEC
  0
SECTION
  2
CLASSES
  0
CLASS
  1
ACDBDICTIONARYWDFLT
  2
AcDbDictionaryWithDefault
  3
ObjectDBX Classes
 90
0
 91
0
280
0
281
0
  0
CLASS
  1
SUN
  2
AcDbSun
  3
SCENEOE
 90
1153
 91
0
280
0
281
0
  0
CLASS
  1
VISUALSTYLE
  2
AcDbVisualStyle
  3
ObjectDBX Classes
 90
4095
 91
0
280
0
281
0
  0
CLASS
  1
MATERIAL
  2
AcDbMaterial
  3
ObjectDBX Classes
 90
1153
 91
0
280
0
281
0
  0
CLASS
  1
SCALE
  2
AcDbScale
  3
ObjectDBX Classes
 90
1153
 91
0
280
0
281
0
  0
CLASS
  1
TABLESTYLE
  2
AcDbTableStyle
  3
ObjectDBX Classes
 90
4095
 91
0
280
0
281
0
  0
CLASS
  1
MLEADERSTYLE
  2
AcDbMLeaderStyle
  3
ACDB_MLEADERSTYLE_CLASS
 90
4095
 91
0
280
0
281
0
  0
CLASS
  1
DICTIONARYVAR
  2
AcDbDictionaryVar
  3
ObjectDBX Classes
 90
0
 91
0
280
0
281
0
  0
CLASS
  1
CELLSTYLEMAP
  2
AcDbCellStyleMap
  3
ObjectDBX Classes
 90
1152
 91
0
280
0
281
0
  0
CLASS
  1
MENTALRAYRENDERSETTINGS
  2
AcDbMentalRayRenderSettings
  3
SCENEOE
 90
1024
 91
0
280
0
281
0
  0
CLASS
  1
ACDBDETAILVIEWSTYLE
  2
AcDbDetailViewStyle
  3
ObjectDBX Classes
 90
1025
 91
0
280
0
281
0
  0
CLASS
  1
ACDBSECTIONVIEWSTYLE
  2
AcDbSectionViewStyle
  3
ObjectDBX Classes
 90
1025
 91
0
280
0
281
0
  0
CLASS
  1
RASTERVARIABLES
  2
AcDbRasterVariables
  3
ISM
 90
0
 91
0
280
0
281
0
  0
CLASS
  1
LAYOUT
  2
AcDbLayout
  3
ObjectDBX Classes
 90
0
 91
0
280
0
281
0
  0
CLASS
  1
ACDBPLACEHOLDER
  2
AcDbPlaceHolder
  3
ObjectDBX Classes
 90
0
 91
0
280
0
281
0
  0
ENDSEC
  0
SECTION
  2
TABLES
  0
TABLE
  2
VPORT
  5
8
330
0
100
AcDbSymbolTable
 70
1
  0
VPORT
  5
23
330
8
100
AcDbSymbolTableRecord
100
AcDbViewportTableRecord
  2
*Active
 70
0
 10
0.0
 20
0.0
 11
1.0
 21
1.0
 12
0.0
 22
0.0
 13
0.0
 23
0.0
 14
0.5
 24
0.5
 15
0.5
 25
0.5
 16
0.0
 26
0.0
 36
1.0
 17
0.0
 27
0.0
 37
0.0
 40
1000.0
 41
1.34
 42
50.0
 43
0.0
 44
0.0
 50
0.0
 51
0.0
 71
0
 72
1000
 73
1
 74
3
 75
0
 76
0
 77
0
 78
0
281
0
 65
0
146
0.0
  0
ENDTAB
  0
TABLE
  2
LTYPE
  5
2
330
0
100
AcDbSymbolTable
 70
3
  0
LTYPE
  5
24
330
2
100
AcDbSymbolTableRecord
100
AcDbLinetypeTableRecord
  2
ByBlock
 70
0
  3

 72
65
 73
0
 40
0.0
  0
LTYPE
  5
25
330
2
100
AcDbSymbolTableRecord
100
AcDbLinetypeTableRecord
  2
ByLayer
 70
0
  3

 72
65
 73
0
 40
0.0
  0
LTYPE
  5
26
330
2
100
AcDbSymbolTableRecord
100
AcDbLinetypeTableRecord
  2
Continuous
 70
0
  3

 72
65
 73
0
 40
0.0
  0
ENDTAB
  0
TABLE
  2
LAYER
  5
1
330
0
100
AcDbSymbolTable
 70
2
  0
LAYER
  5
27
330
1
100
AcDbSymbolTableRecord
100
AcDbLayerTableRecord
  2
0
 70
0
 62
7
  6
Continuous
370
-3
390
13
347
21
  0
LAYER
  5
28
330
1
100
AcDbSymbolTableRecord
100
AcDbLayerTableRecord
  2
Defpoints
 70
0
 62
7
  6
Continuous
290
0
370
-3
390
13
347
21
  0
ENDTAB
  0
TABLE
  2
STYLE
  5
5
330
0
100
AcDbSymbolTable
 70
1
  0
STYLE
  5
29
330
5
100
AcDbSymbolTableRecord
100
AcDbTextStyleTableRecord
  2
Standard
 70
0
 40
0.0
 41
1.0
 50
0.0
 71
0
 42
2.5
  3
txt
  4

  0
ENDTAB
  0
TABLE
  2
VIEW
  5
7
330
0
100
AcDbSymbolTable
 70
0
  0
ENDTAB
  0
TABLE
  2
UCS
  5
6
330
0
100
AcDbSymbolTable
 70
0
  0
ENDTAB
  0
TABLE
  2
APPID
  5
3
330
0
100
AcDbSymbolTable
 70
3
  0
APPID
  5
2A
330
3
100
AcDbSymbolTableRecord
100
AcDbRegAppTableRecord
  2
ACAD
 70
0
  0
APPID
  5
1EB
330
3
100
AcDbSymbolTableRecord
100
AcDbRegAppTableRecord
  2
HATCHBACKGROUNDCOLOR
 70
0
  0
APPID
  5
1EC
330
3
100
AcDbSymbolTableRecord
100
AcDbRegAppTableRecord
  2
EZDXF
 70
0
  0
ENDTAB
  0
TABLE
  2
DIMSTYLE
  5
4
330
0
100
AcDbSymbolTable
 70
1
100
AcDbDimStyleTable
  0
DIMSTYLE
105
2B
330
4
100
AcDbSymbolTableRecord
100
AcDbDimStyleTableRecord
  2
Standard
 70
0
 40
1.0
 41
2.5
 42
0.625
 43
3.75
 44
1.25
 45
0.0
 46
0.0
 47
0.0
 48
0.0
 49
2.5
140
2.5
141
2.5
142
0.0
143
0.03937007874
144
1.0
145
0.0
146
1.0
147
0.625
148
0.0
 69
0
 70
0
 71
0
 72
0
 73
0
 74
0
 75
0
 76
0
 77
1
 78
8
 79
3
170
0
171
3
172
1
173
0
174
0
175
0
176
0
177
0
178
0
179
2
271
2
272
2
273
2
274
3
275
0
276
0
277
2
278
44
279
0
280
0
281
0
282
0
283
0
284
8
285
0
286
0
288
0
289
3
290
0
371
-2
372
-2
  0
ENDTAB
  0
TABLE
  2
BLOCK_RECORD
  5
9
330
0
100
AcDbSymbolTable
 70
2
  0
BLOCK_RECORD
  5
17
330
9
100
AcDbSymbolTableRecord
100
AcDbBlockTableRecord
  2
*Model_Space
340
1A
 70
0
280
1
281
0
  0
BLOCK_RECORD
  5
1B
330
9
100
AcDbSymbolTableRecord
100
AcDbBlockTableRecord
  2
*Paper_Space
340
1E
 70
0
280
1
281
0
  0
ENDTAB
  0
ENDSEC
  0
SECTION
  2
BLOCKS
  0
BLOCK
  5
18
330
17
100
AcDbEntity
  8
0
100
AcDbBlockBegin
  2
*Model_Space
 70
0
 10
0.0
 20
0.0
 30
0.0
  3
*Model_Space
  1

  0
ENDBLK
  5
19
330
17
100
AcDbEntity
  8
0
100
AcDbBlockEnd
  0
BLOCK
  5
1C
330
1B
100
AcDbEntity
  8
0
100
AcDbBlockBegin
  2
*Paper_Space
 70
0
 10
0.0
 20
0.0
 30
0.0
  3
*Paper_Space
  1

  0
ENDBLK
  5
1D
330
1B
100
AcDbEntity
  8
0
100
AcDbBlockEnd
  0
ENDSEC
  0
SECTION
  2
ENTITIES
  0
LWPOLYLINE
  5
2F
330
17
100
AcDbEntity
  8
0
100
AcDbPolyline
 90
16
 70
1
 10
2.535921904289611
 20
0.4351610700087193
 10
7.186603611313731
 20
0.5812070491755428
 10
12.90612802376343
 20
0.4471850831328865
 10
14.314538851563354
 20
0.7982150689313676
 10
14.642734918852147
 20
1.4261392448128007
 10
14.749042225485624
 20
2.3166628706866375
 10
14.625027217576916
 20
14.539762536591104
 10
2.2310519261370767
 20
14.750383975878474
 10
1.464775634448618
 20
14.665821847491246
 10
0.812763750979298
 20
14.332582158242566
 10
0.5331376749373571
 20
13.72112763146505
 10
0.435997343463658
 20
12.655812376728834
 10
0.5805571823891056
 20
7.87187446155972
 10
0.44149186384169503
 20
2.2339061753614864
 10
0.5642940653663907
 20
1.348470621628116
 10
0.8065333734855394
 20
0.8577074686315755
  0
LWPOLYLINE
  5
30
330
17
100
AcDbEntity
  8
0
100
AcDbPolyline
 90
16
 70
1
 10
2.535921904289611
 20
0.4351610700087193
 10
7.186603611313731
 20
0.5812070491755428
 10
12.90612802376343
 20
0.4471850831328865
 10
14.314538851563354
 20
0.7982150689313676
 10
14.642734918852147
 20
1.4261392448128007
 10
14.749042225485624
 20
2.3166628706866375
 10
14.625027217576916
 20
14.539762536591104
 10
2.2310519261370767
 20
14.750383975878474
 10
1.464775634448618
 20
14.665821847491246
 10
0.812763750979298
 20
14.332582158242566
 10
0.5331376749373571
 20
13.72112763146505
 10
0.435997343463658
 20
12.655812376728834
 10
0.5805571823891056
 20
7.87187446155972
 10
0.44149186384169503
 20
2.2339061753614864
 10
0.5642940653663907
 20
1.348470621628116
 10
0.8065333734855394
 20
0.8577074686315755
  0
LWPOLYLINE
  5
31
330
17
100
AcDbEntity
  8
0
100
AcDbPolyline
 90
3
 70
1
 10
0.80679851770401
 20
0.8573096394538879
 10
1.358882362708177
 20
0.5528544753578826
 10
2.162321176641993
 20
0.4428638691160267
  0
LWPOLYLINE
  5
32
330
17
100
AcDbEntity
  8
0
100
AcDbPolyline
 90
2
 70
1
 10
2.162321176641993
 20
0.4428638691160267
 10
2.535921904289611
 20
0.4351610700087193
  0
LINE
  5
33
330
17
100
AcDbEntity
  8
0
100
AcDbLine
 10
2.5928489565849304
 20
0.437
 30
0.0
 11
2.5928489565849304
 21
0.447010010010008
 31
0.0
  0
LINE
  5
34
330
17
100
AcDbEntity
  8
0
100
AcDbLine
 10
2.5928489565849304
 20
0.437
 30
0.0
 11
2.5928489565849304
 21
0.447010010010008
 31
0.0
  0
LINE
  5
35
330
17
100
AcDbEntity
  8
0
100
AcDbLine
 10
2.5928489565849304
 20
0.447010010010008
 30
0.0
 11
2.5928489565849304
 21
0.45514882032667514
 31
0.0
  0
LINE
  5
36
330
17
100
AcDbEntity
  8
0
100
AcDbLine
 10
2.5928489565849304
 20
0.45514882032667514
 30
0.0
 11
2.5928489565849304
 21
1.8346497277676965
 31
0.0
  0
LINE
  5
37
330
17
100
AcDbEntity
  8
0
100
AcDbLine
 10
2.5928489565849304
 20
1.8346497277676965
 30
0.0
 11
2.5928489565849304
 21
2.1282232304900206
 31
0.0
  0
LINE
  5
38
330
17
100
AcDbEntity
  8
0
100
AcDbLine
 10
2.5928489565849304
 20
2.1282232304900206
 30
0.0
 11
2.5928489565849304
 21
2.137696774193549
 31
0.0
  0
LINE
  5
39
330
17
100
AcDbEntity
  8
0
100
AcDbLine
 10
2.5928489565849304
 20
2.137696774193549
 30
0.0
 11
2.5928489565849304
 21
2.155941935483868
 31
0.0
  0
LINE
  5
3A
330
17
100
AcDbEntity
  8
0
100
AcDbLine
 10
2.5928489565849304
 20
2.155941935483868
 30
0.0
 11
2.5928489565849304
 21
3.637574193548388
 31
0.0
  0
LINE
  5
3B
330
17
100
AcDbEntity
  8
0
100
AcDbLine
 10
2.5928489565849304
 20
3.637574193548388
 30
0.0
 11
2.5928489565849304
 21
3.6459721946375363
 31
0.0
  0
LINE
  5
3C
330
17
100
AcDbEntity
  8
0
100
AcDbLine
 10
2.5928489565849304
 20
3.6459721946375363
 30
0.0
 11
2.5928489565849304
 21
3.93903376365442
 31
0.0
  0
LINE
  5
3D
330
17
100
AcDbEntity
  8
0
100
AcDbLine
 10
2.5928489565849304
 20
3.93903376365442
 30
0.0
 11
2.5928489565849304
 21
5.410222442899709
 31
0.0
  0
LINE
  5
3E
330
17
100
AcDbEntity
  8
0
100
AcDbLine
 10
2.5928489565849304
 20
5.410222442899709
 30
0.0
 11
2.5928489565849304
 21
5.4283612903225835
 31
0.0
  0
LINE
  5
3F
330
17
100
AcDbEntity
  8
0
100
AcDbLine
 10
2.5928489565849304
 20
5.4283612903225835
 30
0.0
 11
2.5928489565849304
 21
5.446606451612903
 31
0.0
  0
LINE
  5
40
330
17
100
AcDbEntity
  8
0
100
AcDbLine
 10
2.5928489565849304
 20
5.446606451612903
 30
0.0
 11
2.5928489565849304
 21
5.459874875868914
 31
0.0
  0
LINE
  5
41
330
17
100
AcDbEntity
  8
0
100
AcDbLine
 10
2.5928489565849304
 20
5.459874875868914
 30
0.0
 11
2.5928489565849304
 21
5.752936444885798
 31
0.0
  0
LINE
  5
42
330
17
100
AcDbEntity
  8
0
100
AcDbLine
 10
2.5928489565849304
 20
5.752936444885798
 30
0.0
 11
2.5928489565849304
 21
7.224125124131086
 31
0.0
  0
LINE
  5
43
330
17
100
AcDbEntity
  8
0
100
AcDbLine
 10
2.5928489565849304
 20
7.224125124131086
 30
0.0
 11
2.5928489565849304
 21
7.2373935483870975
 31
0.0
  0
LINE
  5
44
330
17
100
AcDbEntity
  8
0
100
AcDbLine
 10
2.5928489565849304
 20
7.2373935483870975
 30
0.0
 11
2.5928489565849304
 21
7.532535483870969
 31
0.0
  0
LINE
  5
45
330
17
100
AcDbEntity
  8
0
100
AcDbLine
 10
2.5928489565849304
 20
7.532535483870969
 30
0.0
 11
2.5928489565849304
 21
7.550780645161288
 31
0.0
  0
LINE
  5
46
330
17
100
AcDbEntity
  8
0
100
AcDbLine
 10
2.5928489565849304
 20
7.550780645161288
 30
0.0
 11
2.5928489565849304
 21
7.566839126117175
 31
0.0
  0
LINE
  5
47
330
17
100
AcDbEntity
  8
0
100
AcDbLine
 10
2.5928489565849304
 20
7.566839126117175
 30
0.0
 11
2.5928489565849304
 21
9.038027805362463
 31
0.0
  0
LINE
  5
48
330
17
100
AcDbEntity
  8
0
100
AcDbLine
 10
2.5928489565849304
 20
9.038027805362463
 30
0.0
 11
2.5928489565849304
 21
9.331089374379347
 31
0.0
  0
LINE
  5
49
330
17
100
AcDbEntity
  8
0
100
AcDbLine
 10
2.5928489565849304
 20
9.331089374379347
 30
0.0
 11
2.5928489565849304
 21
9.358503320053119
 31
0.0
  0
LINE
  5
4A
330
17
100
AcDbEntity
  8
0
100
AcDbLine
 10
2.5928489565849304
 20
9.358503320053119
 30
0.0
 11
2.5928489565849304
 21
9.360006896551722
 31
0.0
  0
LINE
  5
4B
330
17
100
AcDbEntity
  8
0
100
AcDbLine
 10
2.5928489565849304
 20
9.360006896551722
 30
0.0
 11
2.5928489565849304
 21
9.362044992743103
 31
0.0
  0
LINE
  5
4C
330
17
100
AcDbEntity
  8
0
100
AcDbLine
 10
2.5928489565849304
 20
9.362044992743103
 30
0.0
 11
2.5928489565849304
 21
9.362866666666664
 31
0.0
  0
LINE
  5
4D
330
17
100
AcDbEntity
  8
0
100
AcDbLine
 10
2.5928489565849304
 20
9.362866666666664
 30
0.0
 11
2.5928489565849304
 21
9.363723146747349
 31
0.0
  0
LINE
  5
4E
330
17
100
AcDbEntity
  8
0
100
AcDbLine
 10
2.5928489565849304
 20
9.363723146747349
 30
0.0
 11
2.5928489565849304
 21
10.819307110438734
 31
0.0
  0
LINE
  5
4F
330
17
100
AcDbEntity
  8
0
100
AcDbLine
 10
2.5928489565849304
 20
10.819307110438734
 30
0.0
 11
2.5928489565849304
 21
10.820379970544924
 31
0.0
  0
LINE
  5
50
330
17
100
AcDbEntity
  8
0
100
AcDbLine
 10
2.5928489565849304
 20
10.820379970544924
 30
0.0
 11
2.5928489565849304
 21
10.822831024930752
 31
0.0
  0
LINE
  5
51
330
17
100
AcDbEntity
  8
0
100
AcDbLine
 10
2.5928489565849304
 20
10.822831024930752
 30
0.0
 11
2.5928489565849304
 21
10.82394070080863
 31
0.0
  0
LINE
  5
52
330
17
100
AcDbEntity
  8
0
100
AcDbLine
 10
2.5928489565849304
 20
10.82394070080863
 30
0.0
 11
2.5928489565849304
 21
10.851930486593842
 31
0.0
  0
LINE
  5
53
330
17
100
AcDbEntity
  8
0
100
AcDbLine
 10
2.5928489565849304
 20
10.851930486593842
 30
0.0
 11
2.5928489565849304
 21
11.144992055610723
 31
0.0
  0
LINE
  5
54
330
17
100
AcDbEntity
  8
0
100
AcDbLine
 10
2.5928489565849304
 20
11.144992055610723
 30
0.0
 11
2.5928489565849304
 21
12.616180734856012
 31
0.0
  0
LINE
  5
55
330
17
100
AcDbEntity
  8
0
100
AcDbLine
 10
2.5928489565849304
 20
12.616180734856012
 30
0.0
 11
2.5928489565849304
 21
12.632232258064517
 31
0.0
  0
LINE
  5
56
330
17
100
AcDbEntity
  8
0
100
AcDbLine
 10
2.5928489565849304
 20
12.632232258064517
 30
0.0
 11
2.5928489565849304
 21
12.650477419354836
 31
0.0
  0
LINE
  5
57
330
17
100
AcDbEntity
  8
0
100
AcDbLine
 10
2.5928489565849304
 20
12.650477419354836
 30
0.0
 11
2.5928489565849304
 21
12.94561935483871
 31
0.0
  0
LINE
  5
58
330
17
100
AcDbEntity
  8
0
100
AcDbLine
 10
2.5928489565849304
 20
12.94561935483871
 30
0.0
 11
2.5928489565849304
 21
12.955471544715445
 31
0.0
  0
LINE
  5
59
330
17
100
AcDbEntity
  8
0
100
AcDbLine
 10
2.5928489565849304
 20
12.955471544715445
 30
0.0
 11
2.5928489565849304
 21
14.429353206865404
 31
0.0
  0
LINE
  5
5A
330
17
100
AcDbEntity
  8
0
100
AcDbLine
 10
2.5928489565849304
 20
14.429353206865404
 30
0.0
 11
2.5928489565849304
 21
14.723933152664864
 31
0.0
  0
LINE
  5
5B
330
17
100
AcDbEntity
  8
0
100
AcDbLine
 10
2.5928489565849304
 20
14.723933152664864
 30
0.0
 11
2.5928489565849304
 21
14.731964877069746
 31
0.0
  0
LINE
  5
5C
330
17
100
AcDbEntity
  8
0
100
AcDbLine
 10
2.5928489565849304
 20
14.731964877069746
 30
0.0
 11
2.5928489565849304
 21
14.742
 31
0.0
  0
LINE
  5
5D
330
17
100
AcDbEntity
  8
0
100
AcDbLine
 10
5.09284895658493
 20
0.516
 30
0.0
 11
5.09284895658493
 21
1.6180939226519606
 31
0.0
  0
LINE
  5
5E
330
17
100
AcDbEntity
  8
0
100
AcDbLine
 10
5.09284895658493
 20
0.516
 30
0.0
 11
5.09284895658493
 21
1.6180939226519606
 31
0.0
  0
LINE
  5
5F
330
17
100
AcDbEntity
  8
0
100
AcDbLine
 10
5.09284895658493
 20
1.6180939226519606
 30
0.0
 11
5.09284895658493
 21
1.6958591885441645
 31
0.0
  0
LINE
  5
60
330
17
100
AcDbEntity
  8
0
100
AcDbLine
 10
5.09284895658493
 20
1.6958591885441645
 30
0.0
 11
5.09284895658493
 21
1.750952582557156
 31
0.0
  0
LINE
  5
61
330
17
100
AcDbEntity
  8
0
100
AcDbLine
 10
5.09284895658493
 20
1.750952582557156
 30
0.0
 11
5.09284895658493
 21
2.0458721422523305
 31
0.0
  0
LINE
  5
62
330
17
100
AcDbEntity
  8
0
100
AcDbLine
 10
5.09284895658493
 20
2.0458721422523305
 30
0.0
 11
5.09284895658493
 21
2.052806451612904
 31
0.0
  0
LINE
  5
63
330
17
100
AcDbEntity
  8
0
100
AcDbLine
 10
5.09284895658493
 20
2.052806451612904
 30
0.0
 11
5.09284895658493
 21
2.0710516129032226
 31
0.0
  0
LINE
  5
64
330
17
100
AcDbEntity
  8
0
100
AcDbLine
 10
5.09284895658493
 20
2.0710516129032226
 30
0.0
 11
5.09284895658493
 21
3.551696774193549
 31
0.0
  0
LINE
  5
65
330
17
100
AcDbEntity
  8
0
100
AcDbLine
 10
5.09284895658493
 20
3.551696774193549
 30
0.0
 11
5.09284895658493
 21
3.560700099304865
 31
0.0
  0
LINE
  5
66
330
17
100
AcDbEntity
  8
0
100
AcDbLine
 10
5.09284895658493
 20
3.560700099304865
 30
0.0
 11
5.09284895658493
 21
3.85474180734856
 31
0.0
  0
LINE
  5
67
330
17
100
AcDbEntity
  8
0
100
AcDbLine
 10
5.09284895658493
 20
3.85474180734856
 30
0.0
 11
5.09284895658493
 21
5.324950347567037
 31
0.0
  0
LINE
  5
68
330
17
100
AcDbEntity
  8
0
100
AcDbLine
 10
5.09284895658493
 20
5.324950347567037
 30
0.0
 11
5.09284895658493
 21
5.342483870967745
 31
0.0
  0
LINE
  5
69
330
17
100
AcDbEntity
  8
0
100
AcDbLine
 10
5.09284895658493
 20
5.342483870967745
 30
0.0
 11
5.09284895658493
 21
5.360729032258064
 31
0.0
  0
LINE
  5
6A
330
17
100
AcDbEntity
  8
0
100
AcDbLine
 10
5.09284895658493
 20
5.360729032258064
 30
0.0
 11
5.09284895658493
 21
5.656858064516129
 31
0.0
  0
LINE
  5
6B
330
17
100
AcDbEntity
  8
0
100
AcDbLine
 10
5.09284895658493
 20
5.656858064516129
 30
0.0
 11
5.09284895658493
 21
5.668644488579938
 31
0.0
  0
LINE
  5
6C
330
17
100
AcDbEntity
  8
0
100
AcDbLine
 10
5.09284895658493
 20
5.668644488579938
 30
0.0
 11
5.09284895658493
 21
7.138853028798414
 31
0.0
  0
LINE
  5
6D
330
17
100
AcDbEntity
  8
0
100
AcDbLine
 10
5.09284895658493
 20
7.138853028798414
 30
0.0
 11
5.09284895658493
 21
7.151516129032259
 31
0.0
  0
LINE
  5
6E
330
17
100
AcDbEntity
  8
0
100
AcDbLine
 10
5.09284895658493
 20
7.151516129032259
 30
0.0
 11
5.09284895658493
 21
7.447645161290324
 31
0.0
  0
LINE
  5
6F
330
17
100
AcDbEntity
  8
0
100
AcDbLine
 10
5.09284895658493
 20
7.447645161290324
 30
0.0
 11
5.09284895658493
 21
7.465890322580643
 31
0.0
  0
LINE
  5
70
330
17
100
AcDbEntity
  8
0
100
AcDbLine
 10
5.09284895658493
 20
7.465890322580643
 30
0.0
 11
5.09284895658493
 21
7.4825471698113155
 31
0.0
  0
LINE
  5
71
330
17
100
AcDbEntity
  8
0
100
AcDbLine
 10
5.09284895658493
 20
7.4825471698113155
 30
0.0
 11
5.09284895658493
 21
8.952755710029791
 31
0.0
  0
LINE
  5
72
330
17
100
AcDbEntity
  8
0
100
AcDbLine
 10
5.09284895658493
 20
8.952755710029791
 30
0.0
 11
5.09284895658493
 21
9.246797418073488
 31
0.0
  0
LINE
  5
73
330
17
100
AcDbEntity
  8
0
100
AcDbLine
 10
5.09284895658493
 20
9.246797418073488
 30
0.0
 11
5.09284895658493
 21
9.274774964838253
 31
0.0
  0
LINE
  5
74
330
17
100
AcDbEntity
  8
0
100
AcDbLine
 10
5.09284895658493
 20
9.274774964838253
 30
0.0
 11
5.09284895658493
 21
9.276015965166906
 31
0.0
  0
LINE
  5
75
330
17
100
AcDbEntity
  8
0
100
AcDbLine
 10
5.09284895658493
 20
9.276015965166906
 30
0.0
 11
5.09284895658493
 21
9.277308845577208
 31
0.0
  0
LINE
  5
76
330
17
100
AcDbEntity
  8
0
100
AcDbLine
 10
5.09284895658493
 20
9.277308845577208
 30
0.0
 11
5.09284895658493
 21
9.277692889561267
 31
0.0
  0
LINE
  5
77
330
17
100
AcDbEntity
  8
0
100
AcDbLine
 10
5.09284895658493
 20
9.277692889561267
 30
0.0
 11
5.09284895658493
 21
10.732307110438734
 31
0.0
  0
LINE
  5
78
330
17
100
AcDbEntity
  8
0
100
AcDbLine
 10
5.09284895658493
 20
10.732307110438734
 30
0.0
 11
5.09284895658493
 21
10.733804664723037
 31
0.0
  0
LINE
  5
79
330
17
100
AcDbEntity
  8
0
100
AcDbLine
 10
5.09284895658493
 20
10.733804664723037
 30
0.0
 11
5.09284895658493
 21
10.735447552447557
 31
0.0
  0
LINE
  5
7A
330
17
100
AcDbEntity
  8
0
100
AcDbLine
 10
5.09284895658493
 20
10.735447552447557
 30
0.0
 11
5.09284895658493
 21
10.73694070080863
 31
0.0
  0
LINE
  5
7B
330
17
100
AcDbEntity
  8
0
100
AcDbLine
 10
5.09284895658493
 20
10.73694070080863
 30
0.0
 11
5.09284895658493
 21
10.738690322580648
 31
0.0
  0
LINE
  5
7C
330
17
100
AcDbEntity
  8
0
100
AcDbLine
 10
5.09284895658493
 20
10.738690322580648
 30
0.0
 11
5.09284895658493
 21
10.739545454545459
 31
0.0
  0
LINE
  5
7D
330
17
100
AcDbEntity
  8
0
100
AcDbLine
 10
5.09284895658493
 20
10.739545454545459
 30
0.0
 11
5.09284895658493
 21
10.76665839126117
 31
0.0
  0
LINE
  5
7E
330
17
100
AcDbEntity
  8
0
100
AcDbLine
 10
5.09284895658493
 20
10.76665839126117
 30
0.0
 11
5.09284895658493
 21
11.060700099304864
 31
0.0
  0
LINE
  5
7F
330
17
100
AcDbEntity
  8
0
100
AcDbLine
 10
5.09284895658493
 20
11.060700099304864
 30
0.0
 11
5.09284895658493
 21
12.530908639523341
 31
0.0
  0
LINE
  5
80
330
17
100
AcDbEntity
  8
0
100
AcDbLine
 10
5.09284895658493
 20
12.530908639523341
 30
0.0
 11
5.09284895658493
 21
12.546354838709679
 31
0.0
  0
LINE
  5
81
330
17
100
AcDbEntity
  8
0
100
AcDbLine
 10
5.09284895658493
 20
12.546354838709679
 30
0.0
 11
5.09284895658493
 21
12.564599999999999
 31
0.0
  0
LINE
  5
82
330
17
100
AcDbEntity
  8
0
100
AcDbLine
 10
5.09284895658493
 20
12.564599999999999
 30
0.0
 11
5.09284895658493
 21
12.860729032258064
 31
0.0
  0
LINE
  5
83
330
17
100
AcDbEntity
  8
0
100
AcDbLine
 10
5.09284895658493
 20
12.860729032258064
 30
0.0
 11
5.09284895658493
 21
12.868400335008372
 31
0.0
  0
LINE
  5
84
330
17
100
AcDbEntity
  8
0
100
AcDbLine
 10
5.09284895658493
 20
12.868400335008372
 30
0.0
 11
5.09284895658493
 21
14.343274706867675
 31
0.0
  0
LINE
  5
85
330
17
100
AcDbEntity
  8
0
100
AcDbLine
 10
5.09284895658493
 20
14.343274706867675
 30
0.0
 11
5.09284895658493
 21
14.638249581239535
 31
0.0
  0
LINE
  5
86
330
17
100
AcDbEntity
  8
0
100
AcDbLine
 10
5.09284895658493
 20
14.638249581239535
 30
0.0
 11
5.09284895658493
 21
14.644506820566635
 31
0.0
  0
LINE
  5
87
330
17
100
AcDbEntity
  8
0
100
AcDbLine
 10
5.09284895658493
 20
14.644506820566635
 30
0.0
 11
5.09284895658493
 21
14.655000000000001
 31
0.0
  0
LINE
  5
88
330
17
100
AcDbEntity
  8
0
100
AcDbLine
 10
7.59284895658493
 20
0.5740000000000001
 30
0.0
 11
7.59284895658493
 21
0.5847634408602129
 31
0.0
  0
LINE
  5
89
330
17
100
AcDbEntity
  8
0
100
AcDbLine
 10
7.59284895658493
 20
0.5740000000000001
 30
0.0
 11
7.59284895658493
 21
0.5847634408602129
 31
0.0
  0
LINE
  5
8A
330
17
100
AcDbEntity
  8
0
100
AcDbLine
 10
7.59284895658493
 20
0.5847634408602129
 30
0.0
 11
7.59284895658493
 21
0.5901451612903195
 31
0.0
  0
LINE
  5
8B
330
17
100
AcDbEntity
  8
0
100
AcDbLine
 10
7.59284895658493
 20
0.5901451612903195
 30
0.0
 11
7.59284895658493
 21
0.5911290322580615
 31
0.0
  0
LINE
  5
8C
330
17
100
AcDbEntity
  8
0
100
AcDbLine
 10
7.59284895658493
 20
0.5911290322580615
 30
0.0
 11
7.59284895658493
 21
1.7255322580645167
 31
0.0
  0
LINE
  5
8D
330
17
100
AcDbEntity
  8
0
100
AcDbLine
 10
7.59284895658493
 20
1.7255322580645167
 30
0.0
 11
7.59284895658493
 21
2.0197096774193564
 31
0.0
  0
LINE
  5
8E
330
17
100
AcDbEntity
  8
0
100
AcDbLine
 10
7.59284895658493
 20
2.0197096774193564
 30
0.0
 11
7.59284895658493
 21
2.040301320528209
 31
0.0
  0
LINE
  5
8F
330
17
100
AcDbEntity
  8
0
100
AcDbLine
 10
7.59284895658493
 20
2.040301320528209
 30
0.0
 11
7.59284895658493
 21
2.0406969696969672
 31
0.0
  0
LINE
  5
90
330
17
100
AcDbEntity
  8
0
100
AcDbLine
 10
7.59284895658493
 20
2.0406969696969672
 30
0.0
 11
7.59284895658493
 21
2.041912718204486
 31
0.0
  0
LINE
  5
91
330
17
100
AcDbEntity
  8
0
100
AcDbLine
 10
7.59284895658493
 20
2.041912718204486
 30
0.0
 11
7.59284895658493
 21
2.042841836734691
 31
0.0
  0
LINE
  5
92
330
17
100
AcDbEntity
  8
0
100
AcDbLine
 10
7.59284895658493
 20
2.042841836734691
 30
0.0
 11
7.59284895658493
 21
2.0435239948119293
 31
0.0
  0
LINE
  5
93
330
17
100
AcDbEntity
  8
0
100
AcDbLine
 10
7.59284895658493
 20
2.0435239948119293
 30
0.0
 11
7.59284895658493
 21
3.5055875486381365
 31
0.0
  0
LINE
  5
94
330
17
100
AcDbEntity
  8
0
100
AcDbLine
 10
7.59284895658493
 20
3.5055875486381365
 30
0.0
 11
7.59284895658493
 21
3.5342363455809322
 31
0.0
  0
LINE
  5
95
330
17
100
AcDbEntity
  8
0
100
AcDbLine
 10
7.59284895658493
 20
3.5342363455809322
 30
0.0
 11
7.59284895658493
 21
3.827297914597815
 31
0.0
  0
LINE
  5
96
330
17
100
AcDbEntity
  8
0
100
AcDbLine
 10
7.59284895658493
 20
3.827297914597815
 30
0.0
 11
7.59284895658493
 21
5.298486593843104
 31
0.0
  0
LINE
  5
97
330
17
100
AcDbEntity
  8
0
100
AcDbLine
 10
7.59284895658493
 20
5.298486593843104
 30
0.0
 11
7.59284895658493
 21
5.3158322580645185
 31
0.0
  0
LINE
  5
98
330
17
100
AcDbEntity
  8
0
100
AcDbLine
 10
7.59284895658493
 20
5.3158322580645185
 30
0.0
 11
7.59284895658493
 21
5.334077419354838
 31
0.0
  0
LINE
  5
99
330
17
100
AcDbEntity
  8
0
100
AcDbLine
 10
7.59284895658493
 20
5.334077419354838
 30
0.0
 11
7.59284895658493
 21
5.340987096774192
 31
0.0
  0
LINE
  5
9A
330
17
100
AcDbEntity
  8
0
100
AcDbLine
 10
7.59284895658493
 20
5.340987096774192
 30
0.0
 11
7.59284895658493
 21
5.629219354838709
 31
0.0
  0
LINE
  5
9B
330
17
100
AcDbEntity
  8
0
100
AcDbLine
 10
7.59284895658493
 20
5.629219354838709
 30
0.0
 11
7.59284895658493
 21
5.641200595829193
 31
0.0
  0
LINE
  5
9C
330
17
100
AcDbEntity
  8
0
100
AcDbLine
 10
7.59284895658493
 20
5.641200595829193
 30
0.0
 11
7.59284895658493
 21
7.112389275074482
 31
0.0
  0
LINE
  5
9D
330
17
100
AcDbEntity
  8
0
100
AcDbLine
 10
7.59284895658493
 20
7.112389275074482
 30
0.0
 11
7.59284895658493
 21
7.124864516129033
 31
0.0
  0
LINE
  5
9E
330
17
100
AcDbEntity
  8
0
100
AcDbLine
 10
7.59284895658493
 20
7.124864516129033
 30
0.0
 11
7.59284895658493
 21
7.420006451612905
 31
0.0
  0
LINE
  5
9F
330
17
100
AcDbEntity
  8
0
100
AcDbLine
 10
7.59284895658493
 20
7.420006451612905
 30
0.0
 11
7.59284895658493
 21
7.438251612903224
 31
0.0
  0
LINE
  5
A0
330
17
100
AcDbEntity
  8
0
100
AcDbLine
 10
7.59284895658493
 20
7.438251612903224
 30
0.0
 11
7.59284895658493
 21
7.455103277060571
 31
0.0
  0
LINE
  5
A1
330
17
100
AcDbEntity
  8
0
100
AcDbLine
 10
7.59284895658493
 20
7.455103277060571
 30
0.0
 11
7.59284895658493
 21
8.92629195630586
 31
0.0
  0
LINE
  5
A2
330
17
100
AcDbEntity
  8
0
100
AcDbLine
 10
7.59284895658493
 20
8.92629195630586
 30
0.0
 11
7.59284895658493
 21
9.219353525322743
 31
0.0
  0
LINE
  5
A3
330
17
100
AcDbEntity
  8
0
100
AcDbLine
 10
7.59284895658493
 20
9.219353525322743
 30
0.0
 11
7.59284895658493
 21
9.247602582496409
 31
0.0
  0
LINE
  5
A4
330
17
100
AcDbEntity
  8
0
100
AcDbLine
 10
7.59284895658493
 20
9.247602582496409
 30
0.0
 11
7.59284895658493
 21
9.249692889561267
 31
0.0
  0
LINE
  5
A5
330
17
100
AcDbEntity
  8
0
100
AcDbLine
 10
7.59284895658493
 20
9.249692889561267
 30
0.0
 11
7.59284895658493
 21
10.705276853252652
 31
0.0
  0
LINE
  5
A6
330
17
100
AcDbEntity
  8
0
100
AcDbLine
 10
7.59284895658493
 20
10.705276853252652
 30
0.0
 11
7.59284895658493
 21
10.706379970544923
 31
0.0
  0
LINE
  5
A7
330
17
100
AcDbEntity
  8
0
100
AcDbLine
 10
7.59284895658493
 20
10.706379970544923
 30
0.0
 11
7.59284895658493
 21
10.70883102493075
 31
0.0
  0
LINE
  5
A8
330
17
100
AcDbEntity
  8
0
100
AcDbLine
 10
7.59284895658493
 20
10.70883102493075
 30
0.0
 11
7.59284895658493
 21
10.709940700808628
 31
0.0
  0
LINE
  5
A9
330
17
100
AcDbEntity
  8
0
100
AcDbLine
 10
7.59284895658493
 20
10.709940700808628
 30
0.0
 11
7.59284895658493
 21
10.711690322580647
 31
0.0
  0
LINE
  5
AA
330
17
100
AcDbEntity
  8
0
100
AcDbLine
 10
7.59284895658493
 20
10.711690322580647
 30
0.0
 11
7.59284895658493
 21
10.712975000000002
 31
0.0
  0
LINE
  5
AB
330
17
100
AcDbEntity
  8
0
100
AcDbLine
 10
7.59284895658493
 20
10.712975000000002
 30
0.0
 11
7.59284895658493
 21
10.740194637537236
 31
0.0
  0
LINE
  5
AC
330
17
100
AcDbEntity
  8
0
100
AcDbLine
 10
7.59284895658493
 20
10.740194637537236
 30
0.0
 11
7.59284895658493
 21
11.033256206554121
 31
0.0
  0
LINE
  5
AD
330
17
100
AcDbEntity
  8
0
100
AcDbLine
 10
7.59284895658493
 20
11.033256206554121
 30
0.0
 11
7.59284895658493
 21
12.504444885799408
 31
0.0
  0
LINE
  5
AE
330
17
100
AcDbEntity
  8
0
100
AcDbLine
 10
7.59284895658493
 20
12.504444885799408
 30
0.0
 11
7.59284895658493
 21
12.519703225806454
 31
0.0
  0
LINE
  5
AF
330
17
100
AcDbEntity
  8
0
100
AcDbLine
 10
7.59284895658493
 20
12.519703225806454
 30
0.0
 11
7.59284895658493
 21
12.537948387096773
 31
0.0
  0
LINE
  5
B0
330
17
100
AcDbEntity
  8
0
100
AcDbLine
 10
7.59284895658493
 20
12.537948387096773
 30
0.0
 11
7.59284895658493
 21
12.833090322580643
 31
0.0
  0
LINE
  5
B1
330
17
100
AcDbEntity
  8
0
100
AcDbLine
 10
7.59284895658493
 20
12.833090322580643
 30
0.0
 11
7.59284895658493
 21
12.84012039312039
 31
0.0
  0
LINE
  5
B2
330
17
100
AcDbEntity
  8
0
100
AcDbLine
 10
7.59284895658493
 20
12.84012039312039
 30
0.0
 11
7.59284895658493
 21
14.316533988533992
 31
0.0
  0
LINE
  5
B3
330
17
100
AcDbEntity
  8
0
100
AcDbLine
 10
7.59284895658493
 20
14.316533988533992
 30
0.0
 11
7.59284895658493
 21
14.343831134564642
 31
0.0
  0
LINE
  5
B4
330
17
100
AcDbEntity
  8
0
100
AcDbLine
 10
7.59284895658493
 20
14.343831134564642
 30
0.0
 11
7.59284895658493
 21
14.628
 31
0.0
  0
LINE
  5
B5
330
17
100
AcDbEntity
  8
0
100
AcDbLine
 10
10.09284895658493
 20
0.515
 30
0.0
 11
10.09284895658493
 21
0.5254166666666646
 31
0.0
  0
LINE
  5
B6
330
17
100
AcDbEntity
  8
0
100
AcDbLine
 10
10.09284895658493
 20
0.515
 30
0.0
 11
10.09284895658493
 21
0.5254166666666646
 31
0.0
  0
LINE
  5
B7
330
17
100
AcDbEntity
  8
0
100
AcDbLine
 10
10.09284895658493
 20
0.5254166666666646
 30
0.0
 11
10.09284895658493
 21
0.5319491525423695
 31
0.0
  0
LINE
  5
B8
330
17
100
AcDbEntity
  8
0
100
AcDbLine
 10
10.09284895658493
 20
0.5319491525423695
 30
0.0
 11
10.09284895658493
 21
1.7273389830508483
 31
0.0
  0
LINE
  5
B9
330
17
100
AcDbEntity
  8
0
100
AcDbLine
 10
10.09284895658493
 20
1.7273389830508483
 30
0.0
 11
10.09284895658493
 21
2.0222542372881374
 31
0.0
  0
LINE
  5
BA
330
17
100
AcDbEntity
  8
0
100
AcDbLine
 10
10.09284895658493
 20
2.0222542372881374
 30
0.0
 11
10.09284895658493
 21
2.044213429256592
 31
0.0
  0
LINE
  5
BB
330
17
100
AcDbEntity
  8
0
100
AcDbLine
 10
10.09284895658493
 20
2.044213429256592
 30
0.0
 11
10.09284895658493
 21
2.0446969696969672
 31
0.0
  0
LINE
  5
BC
330
17
100
AcDbEntity
  8
0
100
AcDbLine
 10
10.09284895658493
 20
2.0446969696969672
 30
0.0
 11
10.09284895658493
 21
2.0455792079207895
 31
0.0
  0
LINE
  5
BD
330
17
100
AcDbEntity
  8
0
100
AcDbLine
 10
10.09284895658493
 20
2.0455792079207895
 30
0.0
 11
10.09284895658493
 21
2.046518987341769
 31
0.0
  0
LINE
  5
BE
330
17
100
AcDbEntity
  8
0
100
AcDbLine
 10
10.09284895658493
 20
2.046518987341769
 30
0.0
 11
10.09284895658493
 21
3.5085603557814533
 31
0.0
  0
LINE
  5
BF
330
17
100
AcDbEntity
  8
0
100
AcDbLine
 10
10.09284895658493
 20
3.5085603557814533
 30
0.0
 11
10.09284895658493
 21
3.5371767626613693
 31
0.0
  0
LINE
  5
C0
330
17
100
AcDbEntity
  8
0
100
AcDbLine
 10
10.09284895658493
 20
3.5371767626613693
 30
0.0
 11
10.09284895658493
 21
3.8312184707050645
 31
0.0
  0
LINE
  5
C1
330
17
100
AcDbEntity
  8
0
100
AcDbLine
 10
10.09284895658493
 20
3.8312184707050645
 30
0.0
 11
10.09284895658493
 21
5.3014270109235415
 31
0.0
  0
LINE
  5
C2
330
17
100
AcDbEntity
  8
0
100
AcDbLine
 10
10.09284895658493
 20
5.3014270109235415
 30
0.0
 11
10.09284895658493
 21
5.3187935483871
 31
0.0
  0
LINE
  5
C3
330
17
100
AcDbEntity
  8
0
100
AcDbLine
 10
10.09284895658493
 20
5.3187935483871
 30
0.0
 11
10.09284895658493
 21
5.337038709677419
 31
0.0
  0
LINE
  5
C4
330
17
100
AcDbEntity
  8
0
100
AcDbLine
 10
10.09284895658493
 20
5.337038709677419
 30
0.0
 11
10.09284895658493
 21
5.633167741935484
 31
0.0
  0
LINE
  5
C5
330
17
100
AcDbEntity
  8
0
100
AcDbLine
 10
10.09284895658493
 20
5.633167741935484
 30
0.0
 11
10.09284895658493
 21
5.645121151936443
 31
0.0
  0
LINE
  5
C6
330
17
100
AcDbEntity
  8
0
100
AcDbLine
 10
10.09284895658493
 20
5.645121151936443
 30
0.0
 11
10.09284895658493
 21
7.115329692154919
 31
0.0
  0
LINE
  5
C7
330
17
100
AcDbEntity
  8
0
100
AcDbLine
 10
10.09284895658493
 20
7.115329692154919
 30
0.0
 11
10.09284895658493
 21
7.127825806451614
 31
0.0
  0
LINE
  5
C8
330
17
100
AcDbEntity
  8
0
100
AcDbLine
 10
10.09284895658493
 20
7.127825806451614
 30
0.0
 11
10.09284895658493
 21
7.423954838709679
 31
0.0
  0
LINE
  5
C9
330
17
100
AcDbEntity
  8
0
100
AcDbLine
 10
10.09284895658493
 20
7.423954838709679
 30
0.0
 11
10.09284895658493
 21
7.442199999999998
 31
0.0
  0
LINE
  5
CA
330
17
100
AcDbEntity
  8
0
100
AcDbLine
 10
10.09284895658493
 20
7.442199999999998
 30
0.0
 11
10.09284895658493
 21
7.459023833167819
 31
0.0
  0
LINE
  5
CB
330
17
100
AcDbEntity
  8
0
100
AcDbLine
 10
10.09284895658493
 20
7.459023833167819
 30
0.0
 11
10.09284895658493
 21
8.929232373386297
 31
0.0
  0
LINE
  5
CC
330
17
100
AcDbEntity
  8
0
100
AcDbLine
 10
10.09284895658493
 20
8.929232373386297
 30
0.0
 11
10.09284895658493
 21
9.223274081429992
 31
0.0
  0
LINE
  5
CD
330
17
100
AcDbEntity
  8
0
100
AcDbLine
 10
10.09284895658493
 20
9.223274081429992
 30
0.0
 11
10.09284895658493
 21
9.251457796852643
 31
0.0
  0
LINE
  5
CE
330
17
100
AcDbEntity
  8
0
100
AcDbLine
 10
10.09284895658493
 20
9.251457796852643
 30
0.0
 11
10.09284895658493
 21
9.252015965166905
 31
0.0
  0
LINE
  5
CF
330
17
100
AcDbEntity
  8
0
100
AcDbLine
 10
10.09284895658493
 20
9.252015965166905
 30
0.0
 11
10.09284895658493
 21
9.253692889561266
 31
0.0
  0
LINE
  5
D0
330
17
100
AcDbEntity
  8
0
100
AcDbLine
 10
10.09284895658493
 20
9.253692889561266
 30
0.0
 11
10.09284895658493
 21
10.708307110438733
 31
0.0
  0
LINE
  5
D1
330
17
100
AcDbEntity
  8
0
100
AcDbLine
 10
10.09284895658493
 20
10.708307110438733
 30
0.0
 11
10.09284895658493
 21
10.709804664723036
 31
0.0
  0
LINE
  5
D2
330
17
100
AcDbEntity
  8
0
100
AcDbLine
 10
10.09284895658493
 20
10.709804664723036
 30
0.0
 11
10.09284895658493
 21
10.711056497175145
 31
0.0
  0
LINE
  5
D3
330
17
100
AcDbEntity
  8
0
100
AcDbLine
 10
10.09284895658493
 20
10.711056497175145
 30
0.0
 11
10.09284895658493
 21
10.712940700808629
 31
0.0
  0
LINE
  5
D4
330
17
100
AcDbEntity
  8
0
100
AcDbLine
 10
10.09284895658493
 20
10.712940700808629
 30
0.0
 11
10.09284895658493
 21
10.714018372703416
 31
0.0
  0
LINE
  5
D5
330
17
100
AcDbEntity
  8
0
100
AcDbLine
 10
10.09284895658493
 20
10.714018372703416
 30
0.0
 11
10.09284895658493
 21
10.715345616264297
 31
0.0
  0
LINE
  5
D6
330
17
100
AcDbEntity
  8
0
100
AcDbLine
 10
10.09284895658493
 20
10.715345616264297
 30
0.0
 11
10.09284895658493
 21
10.716000000000003
 31
0.0
  0
LINE
  5
D7
330
17
100
AcDbEntity
  8
0
100
AcDbLine
 10
10.09284895658493
 20
10.716000000000003
 30
0.0
 11
10.09284895658493
 21
10.743135054617674
 31
0.0
  0
LINE
  5
D8
330
17
100
AcDbEntity
  8
0
100
AcDbLine
 10
10.09284895658493
 20
10.743135054617674
 30
0.0
 11
10.09284895658493
 21
11.03717676266137
 31
0.0
  0
LINE
  5
D9
330
17
100
AcDbEntity
  8
0
100
AcDbLine
 10
10.09284895658493
 20
11.03717676266137
 30
0.0
 11
10.09284895658493
 21
12.507385302879847
 31
0.0
  0
LINE
  5
DA
330
17
100
AcDbEntity
  8
0
100
AcDbLine
 10
10.09284895658493
 20
12.507385302879847
 30
0.0
 11
10.09284895658493
 21
12.522664516129035
 31
0.0
  0
LINE
  5
DB
330
17
100
AcDbEntity
  8
0
100
AcDbLine
 10
10.09284895658493
 20
12.522664516129035
 30
0.0
 11
10.09284895658493
 21
12.540909677419354
 31
0.0
  0
LINE
  5
DC
330
17
100
AcDbEntity
  8
0
100
AcDbLine
 10
10.09284895658493
 20
12.540909677419354
 30
0.0
 11
10.09284895658493
 21
12.837038709677417
 31
0.0
  0
LINE
  5
DD
330
17
100
AcDbEntity
  8
0
100
AcDbLine
 10
10.09284895658493
 20
12.837038709677417
 30
0.0
 11
10.09284895658493
 21
12.844136288998355
 31
0.0
  0
LINE
  5
DE
330
17
100
AcDbEntity
  8
0
100
AcDbLine
 10
10.09284895658493
 20
12.844136288998355
 30
0.0
 11
10.09284895658493
 21
14.319505747126438
 31
0.0
  0
LINE
  5
DF
330
17
100
AcDbEntity
  8
0
100
AcDbLine
 10
10.09284895658493
 20
14.319505747126438
 30
0.0
 11
10.09284895658493
 21
14.614579638752057
 31
0.0
  0
LINE
  5
E0
330
17
100
AcDbEntity
  8
0
100
AcDbLine
 10
10.09284895658493
 20
14.614579638752057
 30
0.0
 11
10.09284895658493
 21
14.620373007438896
 31
0.0
  0
LINE
  5
E1
330
17
100
AcDbEntity
  8
0
100
AcDbLine
 10
10.09284895658493
 20
14.620373007438896
 30
0.0
 11
10.09284895658493
 21
14.631
 31
0.0
  0
LINE
  5
E2
330
17
100
AcDbEntity
  8
0
100
AcDbLine
 10
12.59284895658493
 20
0.455
 30
0.0
 11
12.59284895658493
 21
0.4651010101010081
 31
0.0
  0
LINE
  5
E3
330
17
100
AcDbEntity
  8
0
100
AcDbLine
 10
12.59284895658493
 20
0.455
 30
0.0
 11
12.59284895658493
 21
0.4651010101010081
 31
0.0
  0
LINE
  5
E4
330
17
100
AcDbEntity
  8
0
100
AcDbLine
 10
12.59284895658493
 20
0.4651010101010081
 30
0.0
 11
12.59284895658493
 21
0.4728571428571393
 31
0.0
  0
LINE
  5
E5
330
17
100
AcDbEntity
  8
0
100
AcDbLine
 10
12.59284895658493
 20
0.4728571428571393
 30
0.0
 11
12.59284895658493
 21
1.730000000000001
 31
0.0
  0
LINE
  5
E6
330
17
100
AcDbEntity
  8
0
100
AcDbLine
 10
12.59284895658493
 20
1.730000000000001
 30
0.0
 11
12.59284895658493
 21
2.0246428571428594
 31
0.0
  0
LINE
  5
E7
330
17
100
AcDbEntity
  8
0
100
AcDbLine
 10
12.59284895658493
 20
2.0246428571428594
 30
0.0
 11
12.59284895658493
 21
2.0481339712918634
 31
0.0
  0
LINE
  5
E8
330
17
100
AcDbEntity
  8
0
100
AcDbLine
 10
12.59284895658493
 20
2.0481339712918634
 30
0.0
 11
12.59284895658493
 21
2.0486727272727245
 31
0.0
  0
LINE
  5
E9
330
17
100
AcDbEntity
  8
0
100
AcDbLine
 10
12.59284895658493
 20
2.0486727272727245
 30
0.0
 11
12.59284895658493
 21
2.0498877805486257
 31
0.0
  0
LINE
  5
EA
330
17
100
AcDbEntity
  8
0
100
AcDbLine
 10
12.59284895658493
 20
2.0498877805486257
 30
0.0
 11
12.59284895658493
 21
3.5124968710888655
 31
0.0
  0
LINE
  5
EB
330
17
100
AcDbEntity
  8
0
100
AcDbLine
 10
12.59284895658493
 20
3.5124968710888655
 30
0.0
 11
12.59284895658493
 21
3.5410973187686188
 31
0.0
  0
LINE
  5
EC
330
17
100
AcDbEntity
  8
0
100
AcDbLine
 10
12.59284895658493
 20
3.5410973187686188
 30
0.0
 11
12.59284895658493
 21
3.8351390268123136
 31
0.0
  0
LINE
  5
ED
330
17
100
AcDbEntity
  8
0
100
AcDbLine
 10
12.59284895658493
 20
3.8351390268123136
 30
0.0
 11
12.59284895658493
 21
5.30534756703079
 31
0.0
  0
LINE
  5
EE
330
17
100
AcDbEntity
  8
0
100
AcDbLine
 10
12.59284895658493
 20
5.30534756703079
 30
0.0
 11
12.59284895658493
 21
5.322741935483873
 31
0.0
  0
LINE
  5
EF
330
17
100
AcDbEntity
  8
0
100
AcDbLine
 10
12.59284895658493
 20
5.322741935483873
 30
0.0
 11
12.59284895658493
 21
5.340987096774192
 31
0.0
  0
LINE
  5
F0
330
17
100
AcDbEntity
  8
0
100
AcDbLine
 10
12.59284895658493
 20
5.340987096774192
 30
0.0
 11
12.59284895658493
 21
5.637116129032258
 31
0.0
  0
LINE
  5
F1
330
17
100
AcDbEntity
  8
0
100
AcDbLine
 10
12.59284895658493
 20
5.637116129032258
 30
0.0
 11
12.59284895658493
 21
5.649041708043691
 31
0.0
  0
LINE
  5
F2
330
17
100
AcDbEntity
  8
0
100
AcDbLine
 10
12.59284895658493
 20
5.649041708043691
 30
0.0
 11
12.59284895658493
 21
7.119250248262167
 31
0.0
  0
LINE
  5
F3
330
17
100
AcDbEntity
  8
0
100
AcDbLine
 10
12.59284895658493
 20
7.119250248262167
 30
0.0
 11
12.59284895658493
 21
7.131774193548387
 31
0.0
  0
LINE
  5
F4
330
17
100
AcDbEntity
  8
0
100
AcDbLine
 10
12.59284895658493
 20
7.131774193548387
 30
0.0
 11
12.59284895658493
 21
7.427903225806453
 31
0.0
  0
LINE
  5
F5
330
17
100
AcDbEntity
  8
0
100
AcDbLine
 10
12.59284895658493
 20
7.427903225806453
 30
0.0
 11
12.59284895658493
 21
7.446148387096772
 31
0.0
  0
LINE
  5
F6
330
17
100
AcDbEntity
  8
0
100
AcDbLine
 10
12.59284895658493
 20
7.446148387096772
 30
0.0
 11
12.59284895658493
 21
7.462944389275069
 31
0.0
  0
LINE
  5
F7
330
17
100
AcDbEntity
  8
0
100
AcDbLine
 10
12.59284895658493
 20
7.462944389275069
 30
0.0
 11
12.59284895658493
 21
8.933152929493547
 31
0.0
  0
LINE
  5
F8
330
17
100
AcDbEntity
  8
0
100
AcDbLine
 10
12.59284895658493
 20
8.933152929493547
 30
0.0
 11
12.59284895658493
 21
9.22719463753724
 31
0.0
  0
LINE
  5
F9
330
17
100
AcDbEntity
  8
0
100
AcDbLine
 10
12.59284895658493
 20
9.22719463753724
 30
0.0
 11
12.59284895658493
 21
9.255342368045644
 31
0.0
  0
LINE
  5
FA
330
17
100
AcDbEntity
  8
0
100
AcDbLine
 10
12.59284895658493
 20
9.255342368045644
 30
0.0
 11
12.59284895658493
 21
9.256015965166904
 31
0.0
  0
LINE
  5
FB
330
17
100
AcDbEntity
  8
0
100
AcDbLine
 10
12.59284895658493
 20
9.256015965166904
 30
0.0
 11
12.59284895658493
 21
9.257308845577207
 31
0.0
  0
LINE
  5
FC
330
17
100
AcDbEntity
  8
0
100
AcDbLine
 10
12.59284895658493
 20
9.257308845577207
 30
0.0
 11
12.59284895658493
 21
9.257692889561266
 31
0.0
  0
LINE
  5
FD
330
17
100
AcDbEntity
  8
0
100
AcDbLine
 10
12.59284895658493
 20
9.257692889561266
 30
0.0
 11
12.59284895658493
 21
10.712307110438733
 31
0.0
  0
LINE
  5
FE
330
17
100
AcDbEntity
  8
0
100
AcDbLine
 10
12.59284895658493
 20
10.712307110438733
 30
0.0
 11
12.59284895658493
 21
10.713804664723035
 31
0.0
  0
LINE
  5
FF
330
17
100
AcDbEntity
  8
0
100
AcDbLine
 10
12.59284895658493
 20
10.713804664723035
 30
0.0
 11
12.59284895658493
 21
10.715056497175144
 31
0.0
  0
LINE
  5
100
330
17
100
AcDbEntity
  8
0
100
AcDbLine
 10
12.59284895658493
 20
10.715056497175144
 30
0.0
 11
12.59284895658493
 21
10.716940700808628
 31
0.0
  0
LINE
  5
101
330
17
100
AcDbEntity
  8
0
100
AcDbLine
 10
12.59284895658493
 20
10.716940700808628
 30
0.0
 11
12.59284895658493
 21
10.719020486555701
 31
0.0
  0
LINE
  5
102
330
17
100
AcDbEntity
  8
0
100
AcDbLine
 10
12.59284895658493
 20
10.719020486555701
 30
0.0
 11
12.59284895658493
 21
10.719975000000002
 31
0.0
  0
LINE
  5
103
330
17
100
AcDbEntity
  8
0
100
AcDbLine
 10
12.59284895658493
 20
10.719975000000002
 30
0.0
 11
12.59284895658493
 21
10.747055610724923
 31
0.0
  0
LINE
  5
104
330
17
100
AcDbEntity
  8
0
100
AcDbLine
 10
12.59284895658493
 20
10.747055610724923
 30
0.0
 11
12.59284895658493
 21
11.04109731876862
 31
0.0
  0
LINE
  5
105
330
17
100
AcDbEntity
  8
0
100
AcDbLine
 10
12.59284895658493
 20
11.04109731876862
 30
0.0
 11
12.59284895658493
 21
12.511305858987095
 31
0.0
  0
LINE
  5
106
330
17
100
AcDbEntity
  8
0
100
AcDbLine
 10
12.59284895658493
 20
12.511305858987095
 30
0.0
 11
12.59284895658493
 21
12.526612903225809
 31
0.0
  0
LINE
  5
107
330
17
100
AcDbEntity
  8
0
100
AcDbLine
 10
12.59284895658493
 20
12.526612903225809
 30
0.0
 11
12.59284895658493
 21
12.544858064516127
 31
0.0
  0
LINE
  5
108
330
17
100
AcDbEntity
  8
0
100
AcDbLine
 10
12.59284895658493
 20
12.544858064516127
 30
0.0
 11
12.59284895658493
 21
12.840987096774192
 31
0.0
  0
LINE
  5
109
330
17
100
AcDbEntity
  8
0
100
AcDbLine
 10
12.59284895658493
 20
12.840987096774192
 30
0.0
 11
12.59284895658493
 21
12.84817957166392
 31
0.0
  0
LINE
  5
10A
330
17
100
AcDbEntity
  8
0
100
AcDbLine
 10
12.59284895658493
 20
12.84817957166392
 30
0.0
 11
12.59284895658493
 21
14.323467874794073
 31
0.0
  0
LINE
  5
10B
330
17
100
AcDbEntity
  8
0
100
AcDbLine
 10
12.59284895658493
 20
14.323467874794073
 30
0.0
 11
12.59284895658493
 21
14.618525535420101
 31
0.0
  0
LINE
  5
10C
330
17
100
AcDbEntity
  8
0
100
AcDbLine
 10
12.59284895658493
 20
14.618525535420101
 30
0.0
 11
12.59284895658493
 21
14.624395546129376
 31
0.0
  0
LINE
  5
10D
330
17
100
AcDbEntity
  8
0
100
AcDbLine
 10
12.59284895658493
 20
14.624395546129376
 30
0.0
 11
12.59284895658493
 21
14.635
 31
0.0
  0
LINE
  5
10E
330
17
100
AcDbEntity
  8
0
100
AcDbLine
 10
0.45
 20
2.5922380685806274
 30
0.0
 11
0.7376543209876567
 21
2.5922380685806274
 31
0.0
  0
LINE
  5
10F
330
17
100
AcDbEntity
  8
0
100
AcDbLine
 10
0.45
 20
2.5922380685806274
 30
0.0
 11
0.7376543209876567
 21
2.5922380685806274
 31
0.0
  0
LINE
  5
110
330
17
100
AcDbEntity
  8
0
100
AcDbLine
 10
0.7376543209876567
 20
2.5922380685806274
 30
0.0
 11
0.7625739910313877
 21
2.5922380685806274
 31
0.0
  0
LINE
  5
111
330
17
100
AcDbEntity
  8
0
100
AcDbLine
 10
0.7625739910313877
 20
2.5922380685806274
 30
0.0
 11
2.2366502242152495
 21
2.5922380685806274
 31
0.0
  0
LINE
  5
112
330
17
100
AcDbEntity
  8
0
100
AcDbLine
 10
2.2366502242152495
 20
2.5922380685806274
 30
0.0
 11
2.246290322580646
 21
2.5922380685806274
 31
0.0
  0
LINE
  5
113
330
17
100
AcDbEntity
  8
0
100
AcDbLine
 10
2.246290322580646
 20
2.5922380685806274
 30
0.0
 11
2.541432258064518
 21
2.5922380685806274
 31
0.0
  0
LINE
  5
114
330
17
100
AcDbEntity
  8
0
100
AcDbLine
 10
2.541432258064518
 20
2.5922380685806274
 30
0.0
 11
2.559677419354837
 21
2.5922380685806274
 31
0.0
  0
LINE
  5
115
330
17
100
AcDbEntity
  8
0
100
AcDbLine
 10
2.559677419354837
 20
2.5922380685806274
 30
0.0
 11
2.5756802383316733
 21
2.5922380685806274
 31
0.0
  0
LINE
  5
116
330
17
100
AcDbEntity
  8
0
100
AcDbLine
 10
2.5756802383316733
 20
2.5922380685806274
 30
0.0
 11
4.046868917576962
 21
2.5922380685806274
 31
0.0
  0
LINE
  5
117
330
17
100
AcDbEntity
  8
0
100
AcDbLine
 10
4.046868917576962
 20
2.5922380685806274
 30
0.0
 11
4.339930486593846
 21
2.5922380685806274
 31
0.0
  0
LINE
  5
118
330
17
100
AcDbEntity
  8
0
100
AcDbLine
 10
4.339930486593846
 20
2.5922380685806274
 30
0.0
 11
4.367328042328039
 21
2.5922380685806274
 31
0.0
  0
LINE
  5
119
330
17
100
AcDbEntity
  8
0
100
AcDbLine
 10
4.367328042328039
 20
2.5922380685806274
 30
0.0
 11
4.368059299191372
 21
2.5922380685806274
 31
0.0
  0
LINE
  5
11A
330
17
100
AcDbEntity
  8
0
100
AcDbLine
 10
4.368059299191372
 20
2.5922380685806274
 30
0.0
 11
4.369168975069249
 21
2.5922380685806274
 31
0.0
  0
LINE
  5
11B
330
17
100
AcDbEntity
  8
0
100
AcDbLine
 10
4.369168975069249
 20
2.5922380685806274
 30
0.0
 11
4.3716200294550775
 21
2.5922380685806274
 31
0.0
  0
LINE
  5
11C
330
17
100
AcDbEntity
  8
0
100
AcDbLine
 10
4.3716200294550775
 20
2.5922380685806274
 30
0.0
 11
4.372530120481923
 21
2.5922380685806274
 31
0.0
  0
LINE
  5
11D
330
17
100
AcDbEntity
  8
0
100
AcDbLine
 10
4.372530120481923
 20
2.5922380685806274
 30
0.0
 11
5.828307110438733
 21
2.5922380685806274
 31
0.0
  0
LINE
  5
11E
330
17
100
AcDbEntity
  8
0
100
AcDbLine
 10
5.828307110438733
 20
2.5922380685806274
 30
0.0
 11
5.829955007256898
 21
2.5922380685806274
 31
0.0
  0
LINE
  5
11F
330
17
100
AcDbEntity
  8
0
100
AcDbLine
 10
5.829955007256898
 20
2.5922380685806274
 30
0.0
 11
5.83199310344828
 21
2.5922380685806274
 31
0.0
  0
LINE
  5
120
330
17
100
AcDbEntity
  8
0
100
AcDbLine
 10
5.83199310344828
 20
2.5922380685806274
 30
0.0
 11
5.832707317073174
 21
2.5922380685806274
 31
0.0
  0
LINE
  5
121
330
17
100
AcDbEntity
  8
0
100
AcDbLine
 10
5.832707317073174
 20
2.5922380685806274
 30
0.0
 11
5.8607715988083395
 21
2.5922380685806274
 31
0.0
  0
LINE
  5
122
330
17
100
AcDbEntity
  8
0
100
AcDbLine
 10
5.8607715988083395
 20
2.5922380685806274
 30
0.0
 11
6.153833167825223
 21
2.5922380685806274
 31
0.0
  0
LINE
  5
123
330
17
100
AcDbEntity
  8
0
100
AcDbLine
 10
6.153833167825223
 20
2.5922380685806274
 30
0.0
 11
7.625021847070512
 21
2.5922380685806274
 31
0.0
  0
LINE
  5
124
330
17
100
AcDbEntity
  8
0
100
AcDbLine
 10
7.625021847070512
 20
2.5922380685806274
 30
0.0
 11
7.641129032258067
 21
2.5922380685806274
 31
0.0
  0
LINE
  5
125
330
17
100
AcDbEntity
  8
0
100
AcDbLine
 10
7.641129032258067
 20
2.5922380685806274
 30
0.0
 11
7.659374193548385
 21
2.5922380685806274
 31
0.0
  0
LINE
  5
126
330
17
100
AcDbEntity
  8
0
100
AcDbLine
 10
7.659374193548385
 20
2.5922380685806274
 30
0.0
 11
7.954516129032258
 21
2.5922380685806274
 31
0.0
  0
LINE
  5
127
330
17
100
AcDbEntity
  8
0
100
AcDbLine
 10
7.954516129032258
 20
2.5922380685806274
 30
0.0
 11
7.9677358490566
 21
2.5922380685806274
 31
0.0
  0
LINE
  5
128
330
17
100
AcDbEntity
  8
0
100
AcDbLine
 10
7.9677358490566
 20
2.5922380685806274
 30
0.0
 11
9.43892452830189
 21
2.5922380685806274
 31
0.0
  0
LINE
  5
129
330
17
100
AcDbEntity
  8
0
100
AcDbLine
 10
9.43892452830189
 20
2.5922380685806274
 30
0.0
 11
9.731986097318773
 21
2.5922380685806274
 31
0.0
  0
LINE
  5
12A
330
17
100
AcDbEntity
  8
0
100
AcDbLine
 10
9.731986097318773
 20
2.5922380685806274
 30
0.0
 11
9.745303225806452
 21
2.5922380685806274
 31
0.0
  0
LINE
  5
12B
330
17
100
AcDbEntity
  8
0
100
AcDbLine
 10
9.745303225806452
 20
2.5922380685806274
 30
0.0
 11
9.76354838709677
 21
2.5922380685806274
 31
0.0
  0
LINE
  5
12C
330
17
100
AcDbEntity
  8
0
100
AcDbLine
 10
9.76354838709677
 20
2.5922380685806274
 30
0.0
 11
9.781638530287978
 21
2.5922380685806274
 31
0.0
  0
LINE
  5
12D
330
17
100
AcDbEntity
  8
0
100
AcDbLine
 10
9.781638530287978
 20
2.5922380685806274
 30
0.0
 11
11.252827209533267
 21
2.5922380685806274
 31
0.0
  0
LINE
  5
12E
330
17
100
AcDbEntity
  8
0
100
AcDbLine
 10
11.252827209533267
 20
2.5922380685806274
 30
0.0
 11
11.54588877855015
 21
2.5922380685806274
 31
0.0
  0
LINE
  5
12F
330
17
100
AcDbEntity
  8
0
100
AcDbLine
 10
11.54588877855015
 20
2.5922380685806274
 30
0.0
 11
11.554335483870968
 21
2.5922380685806274
 31
0.0
  0
LINE
  5
130
330
17
100
AcDbEntity
  8
0
100
AcDbLine
 10
11.554335483870968
 20
2.5922380685806274
 30
0.0
 11
13.035967741935487
 21
2.5922380685806274
 31
0.0
  0
LINE
  5
131
330
17
100
AcDbEntity
  8
0
100
AcDbLine
 10
13.035967741935487
 20
2.5922380685806274
 30
0.0
 11
13.054212903225807
 21
2.5922380685806274
 31
0.0
  0
LINE
  5
132
330
17
100
AcDbEntity
  8
0
100
AcDbLine
 10
13.054212903225807
 20
2.5922380685806274
 30
0.0
 11
13.06338523852385
 21
2.5922380685806274
 31
0.0
  0
LINE
  5
133
330
17
100
AcDbEntity
  8
0
100
AcDbLine
 10
13.06338523852385
 20
2.5922380685806274
 30
0.0
 11
13.357002700270025
 21
2.5922380685806274
 31
0.0
  0
LINE
  5
134
330
17
100
AcDbEntity
  8
0
100
AcDbLine
 10
13.357002700270025
 20
2.5922380685806274
 30
0.0
 11
14.720998199819986
 21
2.5922380685806274
 31
0.0
  0
LINE
  5
135
330
17
100
AcDbEntity
  8
0
100
AcDbLine
 10
14.720998199819986
 20
2.5922380685806274
 30
0.0
 11
14.728944695827051
 21
2.5922380685806274
 31
0.0
  0
LINE
  5
136
330
17
100
AcDbEntity
  8
0
100
AcDbLine
 10
14.728944695827051
 20
2.5922380685806274
 30
0.0
 11
14.739
 21
2.5922380685806274
 31
0.0
  0
LINE
  5
137
330
17
100
AcDbEntity
  8
0
100
AcDbLine
 10
0.513
 20
5.092238068580627
 30
0.0
 11
0.7988156028368822
 21
5.092238068580627
 31
0.0
  0
LINE
  5
138
330
17
100
AcDbEntity
  8
0
100
AcDbLine
 10
0.513
 20
5.092238068580627
 30
0.0
 11
0.7988156028368822
 21
5.092238068580627
 31
0.0
  0
LINE
  5
139
330
17
100
AcDbEntity
  8
0
100
AcDbLine
 10
0.7988156028368822
 20
5.092238068580627
 30
0.0
 11
0.8249015280135801
 21
5.092238068580627
 31
0.0
  0
LINE
  5
13A
330
17
100
AcDbEntity
  8
0
100
AcDbLine
 10
0.8249015280135801
 20
5.092238068580627
 30
0.0
 11
2.300417657045843
 21
5.092238068580627
 31
0.0
  0
LINE
  5
13B
330
17
100
AcDbEntity
  8
0
100
AcDbLine
 10
2.300417657045843
 20
5.092238068580627
 30
0.0
 11
2.3084774193548396
 21
5.092238068580627
 31
0.0
  0
LINE
  5
13C
330
17
100
AcDbEntity
  8
0
100
AcDbLine
 10
2.3084774193548396
 20
5.092238068580627
 30
0.0
 11
2.6036193548387114
 21
5.092238068580627
 31
0.0
  0
LINE
  5
13D
330
17
100
AcDbEntity
  8
0
100
AcDbLine
 10
2.6036193548387114
 20
5.092238068580627
 30
0.0
 11
2.6218645161290306
 21
5.092238068580627
 31
0.0
  0
LINE
  5
13E
330
17
100
AcDbEntity
  8
0
100
AcDbLine
 10
2.6218645161290306
 20
5.092238068580627
 30
0.0
 11
2.637428997020849
 21
5.092238068580627
 31
0.0
  0
LINE
  5
13F
330
17
100
AcDbEntity
  8
0
100
AcDbLine
 10
2.637428997020849
 20
5.092238068580627
 30
0.0
 11
4.108617676266138
 21
5.092238068580627
 31
0.0
  0
LINE
  5
140
330
17
100
AcDbEntity
  8
0
100
AcDbLine
 10
4.108617676266138
 20
5.092238068580627
 30
0.0
 11
4.401679245283021
 21
5.092238068580627
 31
0.0
  0
LINE
  5
141
330
17
100
AcDbEntity
  8
0
100
AcDbLine
 10
4.401679245283021
 20
5.092238068580627
 30
0.0
 11
4.428796178343946
 21
5.092238068580627
 31
0.0
  0
LINE
  5
142
330
17
100
AcDbEntity
  8
0
100
AcDbLine
 10
4.428796178343946
 20
5.092238068580627
 30
0.0
 11
4.430007874015745
 21
5.092238068580627
 31
0.0
  0
LINE
  5
143
330
17
100
AcDbEntity
  8
0
100
AcDbLine
 10
4.430007874015745
 20
5.092238068580627
 30
0.0
 11
4.4310592991913715
 21
5.092238068580627
 31
0.0
  0
LINE
  5
144
330
17
100
AcDbEntity
  8
0
100
AcDbLine
 10
4.4310592991913715
 20
5.092238068580627
 30
0.0
 11
4.432168975069248
 21
5.092238068580627
 31
0.0
  0
LINE
  5
145
330
17
100
AcDbEntity
  8
0
100
AcDbLine
 10
4.432168975069248
 20
5.092238068580627
 30
0.0
 11
4.434620029455077
 21
5.092238068580627
 31
0.0
  0
LINE
  5
146
330
17
100
AcDbEntity
  8
0
100
AcDbLine
 10
4.434620029455077
 20
5.092238068580627
 30
0.0
 11
4.435530120481923
 21
5.092238068580627
 31
0.0
  0
LINE
  5
147
330
17
100
AcDbEntity
  8
0
100
AcDbLine
 10
4.435530120481923
 20
5.092238068580627
 30
0.0
 11
5.891307110438733
 21
5.092238068580627
 31
0.0
  0
LINE
  5
148
330
17
100
AcDbEntity
  8
0
100
AcDbLine
 10
5.891307110438733
 20
5.092238068580627
 30
0.0
 11
5.892955007256898
 21
5.092238068580627
 31
0.0
  0
LINE
  5
149
330
17
100
AcDbEntity
  8
0
100
AcDbLine
 10
5.892955007256898
 20
5.092238068580627
 30
0.0
 11
5.894196905766529
 21
5.092238068580627
 31
0.0
  0
LINE
  5
14A
330
17
100
AcDbEntity
  8
0
100
AcDbLine
 10
5.894196905766529
 20
5.092238068580627
 30
0.0
 11
5.894584958217274
 21
5.092238068580627
 31
0.0
  0
LINE
  5
14B
330
17
100
AcDbEntity
  8
0
100
AcDbLine
 10
5.894584958217274
 20
5.092238068580627
 30
0.0
 11
5.922520357497516
 21
5.092238068580627
 31
0.0
  0
LINE
  5
14C
330
17
100
AcDbEntity
  8
0
100
AcDbLine
 10
5.922520357497516
 20
5.092238068580627
 30
0.0
 11
6.215581926514399
 21
5.092238068580627
 31
0.0
  0
LINE
  5
14D
330
17
100
AcDbEntity
  8
0
100
AcDbLine
 10
6.215581926514399
 20
5.092238068580627
 30
0.0
 11
7.686770605759688
 21
5.092238068580627
 31
0.0
  0
LINE
  5
14E
330
17
100
AcDbEntity
  8
0
100
AcDbLine
 10
7.686770605759688
 20
5.092238068580627
 30
0.0
 11
7.7033161290322605
 21
5.092238068580627
 31
0.0
  0
LINE
  5
14F
330
17
100
AcDbEntity
  8
0
100
AcDbLine
 10
7.7033161290322605
 20
5.092238068580627
 30
0.0
 11
7.72156129032258
 21
5.092238068580627
 31
0.0
  0
LINE
  5
150
330
17
100
AcDbEntity
  8
0
100
AcDbLine
 10
7.72156129032258
 20
5.092238068580627
 30
0.0
 11
8.01670322580645
 21
5.092238068580627
 31
0.0
  0
LINE
  5
151
330
17
100
AcDbEntity
  8
0
100
AcDbLine
 10
8.01670322580645
 20
5.092238068580627
 30
0.0
 11
8.029484607745776
 21
5.092238068580627
 31
0.0
  0
LINE
  5
152
330
17
100
AcDbEntity
  8
0
100
AcDbLine
 10
8.029484607745776
 20
5.092238068580627
 30
0.0
 11
8.088563619227141
 21
5.092238068580627
 31
0.0
  0
LINE
  5
153
330
17
100
AcDbEntity
  8
0
100
AcDbLine
 10
8.088563619227141
 20
5.092238068580627
 30
0.0
 11
9.500673286991065
 21
5.092238068580627
 31
0.0
  0
LINE
  5
154
330
17
100
AcDbEntity
  8
0
100
AcDbLine
 10
9.500673286991065
 20
5.092238068580627
 30
0.0
 11
9.512348387096774
 21
5.092238068580627
 31
0.0
  0
LINE
  5
155
330
17
100
AcDbEntity
  8
0
100
AcDbLine
 10
9.512348387096774
 20
5.092238068580627
 30
0.0
 11
9.807490322580646
 21
5.092238068580627
 31
0.0
  0
LINE
  5
156
330
17
100
AcDbEntity
  8
0
100
AcDbLine
 10
9.807490322580646
 20
5.092238068580627
 30
0.0
 11
9.825735483870966
 21
5.092238068580627
 31
0.0
  0
LINE
  5
157
330
17
100
AcDbEntity
  8
0
100
AcDbLine
 10
9.825735483870966
 20
5.092238068580627
 30
0.0
 11
9.843387288977155
 21
5.092238068580627
 31
0.0
  0
LINE
  5
158
330
17
100
AcDbEntity
  8
0
100
AcDbLine
 10
9.843387288977155
 20
5.092238068580627
 30
0.0
 11
11.314575968222442
 21
5.092238068580627
 31
0.0
  0
LINE
  5
159
330
17
100
AcDbEntity
  8
0
100
AcDbLine
 10
11.314575968222442
 20
5.092238068580627
 30
0.0
 11
11.607637537239325
 21
5.092238068580627
 31
0.0
  0
LINE
  5
15A
330
17
100
AcDbEntity
  8
0
100
AcDbLine
 10
11.607637537239325
 20
5.092238068580627
 30
0.0
 11
11.61652258064516
 21
5.092238068580627
 31
0.0
  0
LINE
  5
15B
330
17
100
AcDbEntity
  8
0
100
AcDbLine
 10
11.61652258064516
 20
5.092238068580627
 30
0.0
 11
13.09815483870968
 21
5.092238068580627
 31
0.0
  0
LINE
  5
15C
330
17
100
AcDbEntity
  8
0
100
AcDbLine
 10
13.09815483870968
 20
5.092238068580627
 30
0.0
 11
13.1164
 21
5.092238068580627
 31
0.0
  0
LINE
  5
15D
330
17
100
AcDbEntity
  8
0
100
AcDbLine
 10
13.1164
 20
5.092238068580627
 30
0.0
 11
13.122957464553794
 21
5.092238068580627
 31
0.0
  0
LINE
  5
15E
330
17
100
AcDbEntity
  8
0
100
AcDbLine
 10
13.122957464553794
 20
5.092238068580627
 30
0.0
 11
13.416969974979148
 21
5.092238068580627
 31
0.0
  0
LINE
  5
15F
330
17
100
AcDbEntity
  8
0
100
AcDbLine
 10
13.416969974979148
 20
5.092238068580627
 30
0.0
 11
14.634319432860721
 21
5.092238068580627
 31
0.0
  0
LINE
  5
160
330
17
100
AcDbEntity
  8
0
100
AcDbLine
 10
14.634319432860721
 20
5.092238068580627
 30
0.0
 11
14.64047922146239
 21
5.092238068580627
 31
0.0
  0
LINE
  5
161
330
17
100
AcDbEntity
  8
0
100
AcDbLine
 10
14.64047922146239
 20
5.092238068580627
 30
0.0
 11
14.651
 21
5.092238068580627
 31
0.0
  0
LINE
  5
162
330
17
100
AcDbEntity
  8
0
100
AcDbLine
 10
0.5760000000000001
 20
7.592238068580627
 30
0.0
 11
0.5769444444444444
 21
7.592238068580627
 31
0.0
  0
LINE
  5
163
330
17
100
AcDbEntity
  8
0
100
AcDbLine
 10
0.5760000000000001
 20
7.592238068580627
 30
0.0
 11
0.5769444444444444
 21
7.592238068580627
 31
0.0
  0
LINE
  5
164
330
17
100
AcDbEntity
  8
0
100
AcDbLine
 10
0.5769444444444444
 20
7.592238068580627
 30
0.0
 11
0.8593333333333366
 21
7.592238068580627
 31
0.0
  0
LINE
  5
165
330
17
100
AcDbEntity
  8
0
100
AcDbLine
 10
0.8593333333333366
 20
7.592238068580627
 30
0.0
 11
0.8872973408541476
 21
7.592238068580627
 31
0.0
  0
LINE
  5
166
330
17
100
AcDbEntity
  8
0
100
AcDbLine
 10
0.8872973408541476
 20
7.592238068580627
 30
0.0
 11
2.3641071716357804
 21
7.592238068580627
 31
0.0
  0
LINE
  5
167
330
17
100
AcDbEntity
  8
0
100
AcDbLine
 10
2.3641071716357804
 20
7.592238068580627
 30
0.0
 11
2.370664516129034
 21
7.592238068580627
 31
0.0
  0
LINE
  5
168
330
17
100
AcDbEntity
  8
0
100
AcDbLine
 10
2.370664516129034
 20
7.592238068580627
 30
0.0
 11
2.665806451612905
 21
7.592238068580627
 31
0.0
  0
LINE
  5
169
330
17
100
AcDbEntity
  8
0
100
AcDbLine
 10
2.665806451612905
 20
7.592238068580627
 30
0.0
 11
2.6840516129032244
 21
7.592238068580627
 31
0.0
  0
LINE
  5
16A
330
17
100
AcDbEntity
  8
0
100
AcDbLine
 10
2.6840516129032244
 20
7.592238068580627
 30
0.0
 11
2.6991777557100254
 21
7.592238068580627
 31
0.0
  0
LINE
  5
16B
330
17
100
AcDbEntity
  8
0
100
AcDbLine
 10
2.6991777557100254
 20
7.592238068580627
 30
0.0
 11
4.170366434955315
 21
7.592238068580627
 31
0.0
  0
LINE
  5
16C
330
17
100
AcDbEntity
  8
0
100
AcDbLine
 10
4.170366434955315
 20
7.592238068580627
 30
0.0
 11
4.463428003972197
 21
7.592238068580627
 31
0.0
  0
LINE
  5
16D
330
17
100
AcDbEntity
  8
0
100
AcDbLine
 10
4.463428003972197
 20
7.592238068580627
 30
0.0
 11
4.4904266337854475
 21
7.592238068580627
 31
0.0
  0
LINE
  5
16E
330
17
100
AcDbEntity
  8
0
100
AcDbLine
 10
4.4904266337854475
 20
7.592238068580627
 30
0.0
 11
4.491679796696312
 21
7.592238068580627
 31
0.0
  0
LINE
  5
16F
330
17
100
AcDbEntity
  8
0
100
AcDbLine
 10
4.491679796696312
 20
7.592238068580627
 30
0.0
 11
4.493007874015745
 21
7.592238068580627
 31
0.0
  0
LINE
  5
170
330
17
100
AcDbEntity
  8
0
100
AcDbLine
 10
4.493007874015745
 20
7.592238068580627
 30
0.0
 11
4.494059299191371
 21
7.592238068580627
 31
0.0
  0
LINE
  5
171
330
17
100
AcDbEntity
  8
0
100
AcDbLine
 10
4.494059299191371
 20
7.592238068580627
 30
0.0
 11
4.495168975069248
 21
7.592238068580627
 31
0.0
  0
LINE
  5
172
330
17
100
AcDbEntity
  8
0
100
AcDbLine
 10
4.495168975069248
 20
7.592238068580627
 30
0.0
 11
4.497620029455077
 21
7.592238068580627
 31
0.0
  0
LINE
  5
173
330
17
100
AcDbEntity
  8
0
100
AcDbLine
 10
4.497620029455077
 20
7.592238068580627
 30
0.0
 11
4.498530120481923
 21
7.592238068580627
 31
0.0
  0
LINE
  5
174
330
17
100
AcDbEntity
  8
0
100
AcDbLine
 10
4.498530120481923
 20
7.592238068580627
 30
0.0
 11
5.954307110438734
 21
7.592238068580627
 31
0.0
  0
LINE
  5
175
330
17
100
AcDbEntity
  8
0
100
AcDbLine
 10
5.954307110438734
 20
7.592238068580627
 30
0.0
 11
5.955133333333338
 21
7.592238068580627
 31
0.0
  0
LINE
  5
176
330
17
100
AcDbEntity
  8
0
100
AcDbLine
 10
5.955133333333338
 20
7.592238068580627
 30
0.0
 11
5.955533724340181
 21
7.592238068580627
 31
0.0
  0
LINE
  5
177
330
17
100
AcDbEntity
  8
0
100
AcDbLine
 10
5.955533724340181
 20
7.592238068580627
 30
0.0
 11
5.984269116186692
 21
7.592238068580627
 31
0.0
  0
LINE
  5
178
330
17
100
AcDbEntity
  8
0
100
AcDbLine
 10
5.984269116186692
 20
7.592238068580627
 30
0.0
 11
6.277330685203575
 21
7.592238068580627
 31
0.0
  0
LINE
  5
179
330
17
100
AcDbEntity
  8
0
100
AcDbLine
 10
6.277330685203575
 20
7.592238068580627
 30
0.0
 11
7.748519364448864
 21
7.592238068580627
 31
0.0
  0
LINE
  5
17A
330
17
100
AcDbEntity
  8
0
100
AcDbLine
 10
7.748519364448864
 20
7.592238068580627
 30
0.0
 11
7.765503225806454
 21
7.592238068580627
 31
0.0
  0
LINE
  5
17B
330
17
100
AcDbEntity
  8
0
100
AcDbLine
 10
7.765503225806454
 20
7.592238068580627
 30
0.0
 11
7.783748387096773
 21
7.592238068580627
 31
0.0
  0
LINE
  5
17C
330
17
100
AcDbEntity
  8
0
100
AcDbLine
 10
7.783748387096773
 20
7.592238068580627
 30
0.0
 11
8.078890322580644
 21
7.592238068580627
 31
0.0
  0
LINE
  5
17D
330
17
100
AcDbEntity
  8
0
100
AcDbLine
 10
8.078890322580644
 20
7.592238068580627
 30
0.0
 11
8.091233366434953
 21
7.592238068580627
 31
0.0
  0
LINE
  5
17E
330
17
100
AcDbEntity
  8
0
100
AcDbLine
 10
8.091233366434953
 20
7.592238068580627
 30
0.0
 11
9.562422045680242
 21
7.592238068580627
 31
0.0
  0
LINE
  5
17F
330
17
100
AcDbEntity
  8
0
100
AcDbLine
 10
9.562422045680242
 20
7.592238068580627
 30
0.0
 11
9.574535483870967
 21
7.592238068580627
 31
0.0
  0
LINE
  5
180
330
17
100
AcDbEntity
  8
0
100
AcDbLine
 10
9.574535483870967
 20
7.592238068580627
 30
0.0
 11
9.86967741935484
 21
7.592238068580627
 31
0.0
  0
LINE
  5
181
330
17
100
AcDbEntity
  8
0
100
AcDbLine
 10
9.86967741935484
 20
7.592238068580627
 30
0.0
 11
9.887922580645158
 21
7.592238068580627
 31
0.0
  0
LINE
  5
182
330
17
100
AcDbEntity
  8
0
100
AcDbLine
 10
9.887922580645158
 20
7.592238068580627
 30
0.0
 11
9.905136047666328
 21
7.592238068580627
 31
0.0
  0
LINE
  5
183
330
17
100
AcDbEntity
  8
0
100
AcDbLine
 10
9.905136047666328
 20
7.592238068580627
 30
0.0
 11
11.37632472691162
 21
7.592238068580627
 31
0.0
  0
LINE
  5
184
330
17
100
AcDbEntity
  8
0
100
AcDbLine
 10
11.37632472691162
 20
7.592238068580627
 30
0.0
 11
11.669386295928502
 21
7.592238068580627
 31
0.0
  0
LINE
  5
185
330
17
100
AcDbEntity
  8
0
100
AcDbLine
 10
11.669386295928502
 20
7.592238068580627
 30
0.0
 11
11.698179104477608
 21
7.592238068580627
 31
0.0
  0
LINE
  5
186
330
17
100
AcDbEntity
  8
0
100
AcDbLine
 10
11.698179104477608
 20
7.592238068580627
 30
0.0
 11
11.698530120481923
 21
7.592238068580627
 31
0.0
  0
LINE
  5
187
330
17
100
AcDbEntity
  8
0
100
AcDbLine
 10
11.698530120481923
 20
7.592238068580627
 30
0.0
 11
13.154307110438733
 21
7.592238068580627
 31
0.0
  0
LINE
  5
188
330
17
100
AcDbEntity
  8
0
100
AcDbLine
 10
13.154307110438733
 20
7.592238068580627
 30
0.0
 11
13.155955007256898
 21
7.592238068580627
 31
0.0
  0
LINE
  5
189
330
17
100
AcDbEntity
  8
0
100
AcDbLine
 10
13.155955007256898
 20
7.592238068580627
 30
0.0
 11
13.157993103448279
 21
7.592238068580627
 31
0.0
  0
LINE
  5
18A
330
17
100
AcDbEntity
  8
0
100
AcDbLine
 10
13.157993103448279
 20
7.592238068580627
 30
0.0
 11
13.158707317073175
 21
7.592238068580627
 31
0.0
  0
LINE
  5
18B
330
17
100
AcDbEntity
  8
0
100
AcDbLine
 10
13.158707317073175
 20
7.592238068580627
 30
0.0
 11
13.15979683377309
 21
7.592238068580627
 31
0.0
  0
LINE
  5
18C
330
17
100
AcDbEntity
  8
0
100
AcDbLine
 10
13.15979683377309
 20
7.592238068580627
 30
0.0
 11
13.16115816326531
 21
7.592238068580627
 31
0.0
  0
LINE
  5
18D
330
17
100
AcDbEntity
  8
0
100
AcDbLine
 10
13.16115816326531
 20
7.592238068580627
 30
0.0
 11
13.162087281795515
 21
7.592238068580627
 31
0.0
  0
LINE
  5
18E
330
17
100
AcDbEntity
  8
0
100
AcDbLine
 10
13.162087281795515
 20
7.592238068580627
 30
0.0
 11
13.162724815724818
 21
7.592238068580627
 31
0.0
  0
LINE
  5
18F
330
17
100
AcDbEntity
  8
0
100
AcDbLine
 10
13.162724815724818
 20
7.592238068580627
 30
0.0
 11
13.184336601307187
 21
7.592238068580627
 31
0.0
  0
LINE
  5
190
330
17
100
AcDbEntity
  8
0
100
AcDbLine
 10
13.184336601307187
 20
7.592238068580627
 30
0.0
 11
13.478450980392157
 21
7.592238068580627
 31
0.0
  0
LINE
  5
191
330
17
100
AcDbEntity
  8
0
100
AcDbLine
 10
13.478450980392157
 20
7.592238068580627
 30
0.0
 11
14.609660130718957
 21
7.592238068580627
 31
0.0
  0
LINE
  5
192
330
17
100
AcDbEntity
  8
0
100
AcDbLine
 10
14.609660130718957
 20
7.592238068580627
 30
0.0
 11
14.615339019189767
 21
7.592238068580627
 31
0.0
  0
LINE
  5
193
330
17
100
AcDbEntity
  8
0
100
AcDbLine
 10
14.615339019189767
 20
7.592238068580627
 30
0.0
 11
14.626
 21
7.592238068580627
 31
0.0
  0
LINE
  5
194
330
17
100
AcDbEntity
  8
0
100
AcDbLine
 10
0.514
 20
10.092238068580627
 30
0.0
 11
0.5244058272632653
 21
10.092238068580627
 31
0.0
  0
LINE
  5
195
330
17
100
AcDbEntity
  8
0
100
AcDbLine
 10
0.514
 20
10.092238068580627
 30
0.0
 11
0.5244058272632653
 21
10.092238068580627
 31
0.0
  0
LINE
  5
196
330
17
100
AcDbEntity
  8
0
100
AcDbLine
 10
0.5244058272632653
 20
10.092238068580627
 30
0.0
 11
0.5309779286926961
 21
10.092238068580627
 31
0.0
  0
LINE
  5
197
330
17
100
AcDbEntity
  8
0
100
AcDbLine
 10
0.5309779286926961
 20
10.092238068580627
 30
0.0
 11
0.8258845500848873
 21
10.092238068580627
 31
0.0
  0
LINE
  5
198
330
17
100
AcDbEntity
  8
0
100
AcDbLine
 10
0.8258845500848873
 20
10.092238068580627
 30
0.0
 11
2.300417657045843
 21
10.092238068580627
 31
0.0
  0
LINE
  5
199
330
17
100
AcDbEntity
  8
0
100
AcDbLine
 10
2.300417657045843
 20
10.092238068580627
 30
0.0
 11
2.3084774193548396
 21
10.092238068580627
 31
0.0
  0
LINE
  5
19A
330
17
100
AcDbEntity
  8
0
100
AcDbLine
 10
2.3084774193548396
 20
10.092238068580627
 30
0.0
 11
2.604606451612905
 21
10.092238068580627
 31
0.0
  0
LINE
  5
19B
330
17
100
AcDbEntity
  8
0
100
AcDbLine
 10
2.604606451612905
 20
10.092238068580627
 30
0.0
 11
2.622851612903224
 21
10.092238068580627
 31
0.0
  0
LINE
  5
19C
330
17
100
AcDbEntity
  8
0
100
AcDbLine
 10
2.622851612903224
 20
10.092238068580627
 30
0.0
 11
2.6384091360476614
 21
10.092238068580627
 31
0.0
  0
LINE
  5
19D
330
17
100
AcDbEntity
  8
0
100
AcDbLine
 10
2.6384091360476614
 20
10.092238068580627
 30
0.0
 11
4.108617676266138
 21
10.092238068580627
 31
0.0
  0
LINE
  5
19E
330
17
100
AcDbEntity
  8
0
100
AcDbLine
 10
4.108617676266138
 20
10.092238068580627
 30
0.0
 11
4.402659384309833
 21
10.092238068580627
 31
0.0
  0
LINE
  5
19F
330
17
100
AcDbEntity
  8
0
100
AcDbLine
 10
4.402659384309833
 20
10.092238068580627
 30
0.0
 11
4.4297961783439455
 21
10.092238068580627
 31
0.0
  0
LINE
  5
1A0
330
17
100
AcDbEntity
  8
0
100
AcDbLine
 10
4.4297961783439455
 20
10.092238068580627
 30
0.0
 11
4.432059299191371
 21
10.092238068580627
 31
0.0
  0
LINE
  5
1A1
330
17
100
AcDbEntity
  8
0
100
AcDbLine
 10
4.432059299191371
 20
10.092238068580627
 30
0.0
 11
4.433552447552444
 21
10.092238068580627
 31
0.0
  0
LINE
  5
1A2
330
17
100
AcDbEntity
  8
0
100
AcDbLine
 10
4.433552447552444
 20
10.092238068580627
 30
0.0
 11
4.435195335276964
 21
10.092238068580627
 31
0.0
  0
LINE
  5
1A3
330
17
100
AcDbEntity
  8
0
100
AcDbLine
 10
4.435195335276964
 20
10.092238068580627
 30
0.0
 11
4.436692889561266
 21
10.092238068580627
 31
0.0
  0
LINE
  5
1A4
330
17
100
AcDbEntity
  8
0
100
AcDbLine
 10
4.436692889561266
 20
10.092238068580627
 30
0.0
 11
5.891307110438733
 21
10.092238068580627
 31
0.0
  0
LINE
  5
1A5
330
17
100
AcDbEntity
  8
0
100
AcDbLine
 10
5.891307110438733
 20
10.092238068580627
 30
0.0
 11
5.891691154422793
 21
10.092238068580627
 31
0.0
  0
LINE
  5
1A6
330
17
100
AcDbEntity
  8
0
100
AcDbLine
 10
5.891691154422793
 20
10.092238068580627
 30
0.0
 11
5.892984034833096
 21
10.092238068580627
 31
0.0
  0
LINE
  5
1A7
330
17
100
AcDbEntity
  8
0
100
AcDbLine
 10
5.892984034833096
 20
10.092238068580627
 30
0.0
 11
5.894225035161748
 21
10.092238068580627
 31
0.0
  0
LINE
  5
1A8
330
17
100
AcDbEntity
  8
0
100
AcDbLine
 10
5.894225035161748
 20
10.092238068580627
 30
0.0
 11
5.894612813370477
 21
10.092238068580627
 31
0.0
  0
LINE
  5
1A9
330
17
100
AcDbEntity
  8
0
100
AcDbLine
 10
5.894612813370477
 20
10.092238068580627
 30
0.0
 11
5.922520357497516
 21
10.092238068580627
 31
0.0
  0
LINE
  5
1AA
330
17
100
AcDbEntity
  8
0
100
AcDbLine
 10
5.922520357497516
 20
10.092238068580627
 30
0.0
 11
6.216562065541211
 21
10.092238068580627
 31
0.0
  0
LINE
  5
1AB
330
17
100
AcDbEntity
  8
0
100
AcDbLine
 10
6.216562065541211
 20
10.092238068580627
 30
0.0
 11
7.686770605759688
 21
10.092238068580627
 31
0.0
  0
LINE
  5
1AC
330
17
100
AcDbEntity
  8
0
100
AcDbLine
 10
7.686770605759688
 20
10.092238068580627
 30
0.0
 11
7.7033161290322605
 21
10.092238068580627
 31
0.0
  0
LINE
  5
1AD
330
17
100
AcDbEntity
  8
0
100
AcDbLine
 10
7.7033161290322605
 20
10.092238068580627
 30
0.0
 11
7.72156129032258
 21
10.092238068580627
 31
0.0
  0
LINE
  5
1AE
330
17
100
AcDbEntity
  8
0
100
AcDbLine
 10
7.72156129032258
 20
10.092238068580627
 30
0.0
 11
8.017690322580643
 21
10.092238068580627
 31
0.0
  0
LINE
  5
1AF
330
17
100
AcDbEntity
  8
0
100
AcDbLine
 10
8.017690322580643
 20
10.092238068580627
 30
0.0
 11
8.030464746772587
 21
10.092238068580627
 31
0.0
  0
LINE
  5
1B0
330
17
100
AcDbEntity
  8
0
100
AcDbLine
 10
8.030464746772587
 20
10.092238068580627
 30
0.0
 11
9.500673286991065
 21
10.092238068580627
 31
0.0
  0
LINE
  5
1B1
330
17
100
AcDbEntity
  8
0
100
AcDbLine
 10
9.500673286991065
 20
10.092238068580627
 30
0.0
 11
9.512348387096774
 21
10.092238068580627
 31
0.0
  0
LINE
  5
1B2
330
17
100
AcDbEntity
  8
0
100
AcDbLine
 10
9.512348387096774
 20
10.092238068580627
 30
0.0
 11
9.80847741935484
 21
10.092238068580627
 31
0.0
  0
LINE
  5
1B3
330
17
100
AcDbEntity
  8
0
100
AcDbLine
 10
9.80847741935484
 20
10.092238068580627
 30
0.0
 11
9.826722580645159
 21
10.092238068580627
 31
0.0
  0
LINE
  5
1B4
330
17
100
AcDbEntity
  8
0
100
AcDbLine
 10
9.826722580645159
 20
10.092238068580627
 30
0.0
 11
9.844367428003967
 21
10.092238068580627
 31
0.0
  0
LINE
  5
1B5
330
17
100
AcDbEntity
  8
0
100
AcDbLine
 10
9.844367428003967
 20
10.092238068580627
 30
0.0
 11
11.314575968222442
 21
10.092238068580627
 31
0.0
  0
LINE
  5
1B6
330
17
100
AcDbEntity
  8
0
100
AcDbLine
 10
11.314575968222442
 20
10.092238068580627
 30
0.0
 11
11.608617676266139
 21
10.092238068580627
 31
0.0
  0
LINE
  5
1B7
330
17
100
AcDbEntity
  8
0
100
AcDbLine
 10
11.608617676266139
 20
10.092238068580627
 30
0.0
 11
11.617509677419354
 21
10.092238068580627
 31
0.0
  0
LINE
  5
1B8
330
17
100
AcDbEntity
  8
0
100
AcDbLine
 10
11.617509677419354
 20
10.092238068580627
 30
0.0
 11
13.09815483870968
 21
10.092238068580627
 31
0.0
  0
LINE
  5
1B9
330
17
100
AcDbEntity
  8
0
100
AcDbLine
 10
13.09815483870968
 20
10.092238068580627
 30
0.0
 11
13.1164
 21
10.092238068580627
 31
0.0
  0
LINE
  5
1BA
330
17
100
AcDbEntity
  8
0
100
AcDbLine
 10
13.1164
 20
10.092238068580627
 30
0.0
 11
13.122366013071895
 21
10.092238068580627
 31
0.0
  0
LINE
  5
1BB
330
17
100
AcDbEntity
  8
0
100
AcDbLine
 10
13.122366013071895
 20
10.092238068580627
 30
0.0
 11
13.417464052287581
 21
10.092238068580627
 31
0.0
  0
LINE
  5
1BC
330
17
100
AcDbEntity
  8
0
100
AcDbLine
 10
13.417464052287581
 20
10.092238068580627
 30
0.0
 11
13.47846808510637
 21
10.092238068580627
 31
0.0
  0
LINE
  5
1BD
330
17
100
AcDbEntity
  8
0
100
AcDbLine
 10
13.47846808510637
 20
10.092238068580627
 30
0.0
 11
13.522214285714265
 21
10.092238068580627
 31
0.0
  0
LINE
  5
1BE
330
17
100
AcDbEntity
  8
0
100
AcDbLine
 10
13.522214285714265
 20
10.092238068580627
 30
0.0
 11
14.626
 21
10.092238068580627
 31
0.0
  0
LINE
  5
1BF
330
17
100
AcDbEntity
  8
0
100
AcDbLine
 10
0.438
 20
12.592238068580627
 30
0.0
 11
0.448010010010008
 21
12.592238068580627
 31
0.0
  0
LINE
  5
1C0
330
17
100
AcDbEntity
  8
0
100
AcDbLine
 10
0.438
 20
12.592238068580627
 30
0.0
 11
0.448010010010008
 21
12.592238068580627
 31
0.0
  0
LINE
  5
1C1
330
17
100
AcDbEntity
  8
0
100
AcDbLine
 10
0.448010010010008
 20
12.592238068580627
 30
0.0
 11
0.45614882032667514
 21
12.592238068580627
 31
0.0
  0
LINE
  5
1C2
330
17
100
AcDbEntity
  8
0
100
AcDbLine
 10
0.45614882032667514
 20
12.592238068580627
 30
0.0
 11
0.7507041742286725
 21
12.592238068580627
 31
0.0
  0
LINE
  5
1C3
330
17
100
AcDbEntity
  8
0
100
AcDbLine
 10
0.7507041742286725
 20
12.592238068580627
 30
0.0
 11
2.22348094373866
 21
12.592238068580627
 31
0.0
  0
LINE
  5
1C4
330
17
100
AcDbEntity
  8
0
100
AcDbLine
 10
2.22348094373866
 20
12.592238068580627
 30
0.0
 11
2.23345806451613
 21
12.592238068580627
 31
0.0
  0
LINE
  5
1C5
330
17
100
AcDbEntity
  8
0
100
AcDbLine
 10
2.23345806451613
 20
12.592238068580627
 30
0.0
 11
2.5295870967741956
 21
12.592238068580627
 31
0.0
  0
LINE
  5
1C6
330
17
100
AcDbEntity
  8
0
100
AcDbLine
 10
2.5295870967741956
 20
12.592238068580627
 30
0.0
 11
2.5478322580645143
 21
12.592238068580627
 31
0.0
  0
LINE
  5
1C7
330
17
100
AcDbEntity
  8
0
100
AcDbLine
 10
2.5478322580645143
 20
12.592238068580627
 30
0.0
 11
2.5639185700099256
 21
12.592238068580627
 31
0.0
  0
LINE
  5
1C8
330
17
100
AcDbEntity
  8
0
100
AcDbLine
 10
2.5639185700099256
 20
12.592238068580627
 30
0.0
 11
4.034127110228402
 21
12.592238068580627
 31
0.0
  0
LINE
  5
1C9
330
17
100
AcDbEntity
  8
0
100
AcDbLine
 10
4.034127110228402
 20
12.592238068580627
 30
0.0
 11
4.328168818272097
 21
12.592238068580627
 31
0.0
  0
LINE
  5
1CA
330
17
100
AcDbEntity
  8
0
100
AcDbLine
 10
4.328168818272097
 20
12.592238068580627
 30
0.0
 11
4.355626666666663
 21
12.592238068580627
 31
0.0
  0
LINE
  5
1CB
330
17
100
AcDbEntity
  8
0
100
AcDbLine
 10
4.355626666666663
 20
12.592238068580627
 30
0.0
 11
4.356765432098761
 21
12.592238068580627
 31
0.0
  0
LINE
  5
1CC
330
17
100
AcDbEntity
  8
0
100
AcDbLine
 10
4.356765432098761
 20
12.592238068580627
 30
0.0
 11
4.357943502824855
 21
12.592238068580627
 31
0.0
  0
LINE
  5
1CD
330
17
100
AcDbEntity
  8
0
100
AcDbLine
 10
4.357943502824855
 20
12.592238068580627
 30
0.0
 11
4.359195335276964
 21
12.592238068580627
 31
0.0
  0
LINE
  5
1CE
330
17
100
AcDbEntity
  8
0
100
AcDbLine
 10
4.359195335276964
 20
12.592238068580627
 30
0.0
 11
4.360023809523805
 21
12.592238068580627
 31
0.0
  0
LINE
  5
1CF
330
17
100
AcDbEntity
  8
0
100
AcDbLine
 10
4.360023809523805
 20
12.592238068580627
 30
0.0
 11
4.360692889561267
 21
12.592238068580627
 31
0.0
  0
LINE
  5
1D0
330
17
100
AcDbEntity
  8
0
100
AcDbLine
 10
4.360692889561267
 20
12.592238068580627
 30
0.0
 11
5.8153071104387335
 21
12.592238068580627
 31
0.0
  0
LINE
  5
1D1
330
17
100
AcDbEntity
  8
0
100
AcDbLine
 10
5.8153071104387335
 20
12.592238068580627
 30
0.0
 11
5.816563049853377
 21
12.592238068580627
 31
0.0
  0
LINE
  5
1D2
330
17
100
AcDbEntity
  8
0
100
AcDbLine
 10
5.816563049853377
 20
12.592238068580627
 30
0.0
 11
5.8186128133704775
 21
12.592238068580627
 31
0.0
  0
LINE
  5
1D3
330
17
100
AcDbEntity
  8
0
100
AcDbLine
 10
5.8186128133704775
 20
12.592238068580627
 30
0.0
 11
5.8200939597315475
 21
12.592238068580627
 31
0.0
  0
LINE
  5
1D4
330
17
100
AcDbEntity
  8
0
100
AcDbLine
 10
5.8200939597315475
 20
12.592238068580627
 30
0.0
 11
5.82059602649007
 21
12.592238068580627
 31
0.0
  0
LINE
  5
1D5
330
17
100
AcDbEntity
  8
0
100
AcDbLine
 10
5.82059602649007
 20
12.592238068580627
 30
0.0
 11
5.84802979145978
 21
12.592238068580627
 31
0.0
  0
LINE
  5
1D6
330
17
100
AcDbEntity
  8
0
100
AcDbLine
 10
5.84802979145978
 20
12.592238068580627
 30
0.0
 11
6.142071499503475
 21
12.592238068580627
 31
0.0
  0
LINE
  5
1D7
330
17
100
AcDbEntity
  8
0
100
AcDbLine
 10
6.142071499503475
 20
12.592238068580627
 30
0.0
 11
7.612280039721951
 21
12.592238068580627
 31
0.0
  0
LINE
  5
1D8
330
17
100
AcDbEntity
  8
0
100
AcDbLine
 10
7.612280039721951
 20
12.592238068580627
 30
0.0
 11
7.62829677419355
 21
12.592238068580627
 31
0.0
  0
LINE
  5
1D9
330
17
100
AcDbEntity
  8
0
100
AcDbLine
 10
7.62829677419355
 20
12.592238068580627
 30
0.0
 11
7.646541935483869
 21
12.592238068580627
 31
0.0
  0
LINE
  5
1DA
330
17
100
AcDbEntity
  8
0
100
AcDbLine
 10
7.646541935483869
 20
12.592238068580627
 30
0.0
 11
7.942670967741934
 21
12.592238068580627
 31
0.0
  0
LINE
  5
1DB
330
17
100
AcDbEntity
  8
0
100
AcDbLine
 10
7.942670967741934
 20
12.592238068580627
 30
0.0
 11
7.955974180734852
 21
12.592238068580627
 31
0.0
  0
LINE
  5
1DC
330
17
100
AcDbEntity
  8
0
100
AcDbLine
 10
7.955974180734852
 20
12.592238068580627
 30
0.0
 11
9.42618272095333
 21
12.592238068580627
 31
0.0
  0
LINE
  5
1DD
330
17
100
AcDbEntity
  8
0
100
AcDbLine
 10
9.42618272095333
 20
12.592238068580627
 30
0.0
 11
9.720224428997025
 21
12.592238068580627
 31
0.0
  0
LINE
  5
1DE
330
17
100
AcDbEntity
  8
0
100
AcDbLine
 10
9.720224428997025
 20
12.592238068580627
 30
0.0
 11
9.73345806451613
 21
12.592238068580627
 31
0.0
  0
LINE
  5
1DF
330
17
100
AcDbEntity
  8
0
100
AcDbLine
 10
9.73345806451613
 20
12.592238068580627
 30
0.0
 11
9.751703225806448
 21
12.592238068580627
 31
0.0
  0
LINE
  5
1E0
330
17
100
AcDbEntity
  8
0
100
AcDbLine
 10
9.751703225806448
 20
12.592238068580627
 30
0.0
 11
9.76987686196623
 21
12.592238068580627
 31
0.0
  0
LINE
  5
1E1
330
17
100
AcDbEntity
  8
0
100
AcDbLine
 10
9.76987686196623
 20
12.592238068580627
 30
0.0
 11
11.240085402184706
 21
12.592238068580627
 31
0.0
  0
LINE
  5
1E2
330
17
100
AcDbEntity
  8
0
100
AcDbLine
 10
11.240085402184706
 20
12.592238068580627
 30
0.0
 11
11.534127110228402
 21
12.592238068580627
 31
0.0
  0
LINE
  5
1E3
330
17
100
AcDbEntity
  8
0
100
AcDbLine
 10
11.534127110228402
 20
12.592238068580627
 30
0.0
 11
11.542490322580644
 21
12.592238068580627
 31
0.0
  0
LINE
  5
1E4
330
17
100
AcDbEntity
  8
0
100
AcDbLine
 10
11.542490322580644
 20
12.592238068580627
 30
0.0
 11
13.023135483870972
 21
12.592238068580627
 31
0.0
  0
LINE
  5
1E5
330
17
100
AcDbEntity
  8
0
100
AcDbLine
 10
13.023135483870972
 20
12.592238068580627
 30
0.0
 11
13.04138064516129
 21
12.592238068580627
 31
0.0
  0
LINE
  5
1E6
330
17
100
AcDbEntity
  8
0
100
AcDbLine
 10
13.04138064516129
 20
12.592238068580627
 30
0.0
 11
13.047607843137254
 21
12.592238068580627
 31
0.0
  0
LINE
  5
1E7
330
17
100
AcDbEntity
  8
0
100
AcDbLine
 10
13.047607843137254
 20
12.592238068580627
 30
0.0
 11
13.342705882352941
 21
12.592238068580627
 31
0.0
  0
LINE
  5
1E8
330
17
100
AcDbEntity
  8
0
100
AcDbLine
 10
13.342705882352941
 20
12.592238068580627
 30
0.0
 11
14.609660130718957
 21
12.592238068580627
 31
0.0
  0
LINE
  5
1E9
330
17
100
AcDbEntity
  8
0
100
AcDbLine
 10
14.609660130718957
 20
12.592238068580627
 30
0.0
 11
14.615339019189767
 21
12.592238068580627
 31
0.0
  0
LINE
  5
1EA
330
17
100
AcDbEntity
  8
0
100
AcDbLine
 10
14.615339019189767
 20
12.592238068580627
 30
0.0
 11
14.626
 21
12.592238068580627
 31
0.0
  0
ENDSEC
  0
SECTION
  2
OBJECTS
  0
DICTIONARY
  5
A
330
0
100
AcDbDictionary
281
1
  3
ACAD_COLOR
350
B
  3
ACAD_GROUP
350
C
  3
ACAD_LAYOUT
350
D
  3
ACAD_MATERIAL
350
E
  3
ACAD_MLEADERSTYLE
350
F
  3
ACAD_MLINESTYLE
350
10
  3
ACAD_PLOTSETTINGS
350
11
  3
ACAD_PLOTSTYLENAME
350
12
  3
ACAD_SCALELIST
350
14
  3
ACAD_TABLESTYLE
350
15
  3
ACAD_VISUALSTYLE
350
16
  3
EZDXF_META
350
2D
  0
DICTIONARY
  5
B
330
A
100
AcDbDictionary
281
1
  0
DICTIONARY
  5
C
330
A
100
AcDbDictionary
281
1
  0
DICTIONARY
  5
D
330
A
100
AcDbDictionary
281
1
  3
Model
350
1A
  3
Layout1
350
1E
  0
DICTIONARY
  5
E
330
A
100
AcDbDictionary
281
1
  3
ByBlock
350
1F
  3
ByLayer
350
20
  3
Global
350
21
  0
DICTIONARY
  5
F
330
A
100
AcDbDictionary
281
1
  3
Standard
350
2C
  0
DICTIONARY
  5
10
330
A
100
AcDbDictionary
281
1
  3
Standard
350
22
  0
DICTIONARY
  5
11
330
A
100
AcDbDictionary
281
1
  0
ACDBDICTIONARYWDFLT
  5
12
330
A
100
AcDbDictionary
281
1
  3
Normal
350
13
100
AcDbDictionaryWithDefault
340
13
  0
ACDBPLACEHOLDER
  5
13
330
12
  0
DICTIONARY
  5
14
330
A
100
AcDbDictionary
281
1
  0
DICTIONARY
  5
15
330
A
100
AcDbDictionary
281
1
  0
DICTIONARY
  5
16
330
A
100
AcDbDictionary
281
1
  0
LAYOUT
  5
1A
330
D
100
AcDbPlotSettings
  1

  4
A3
  6

 40
7.5
 41
20.0
 42
7.5
 43
20.0
 44
420.0
 45
297.0
 46
0.0
 47
0.0
 48
0.0
 49
0.0
140
0.0
141
0.0
142
1.0
143
1.0
 70
1024
 72
1
 73
0
 74
5
  7

 75
16
 76
0
 77
2
 78
300
147
1.0
148
0.0
149
0.0
100
AcDbLayout
  1
Model
 70
1
 71
0
 10
0.0
 20
0.0
 11
420.0
 21
297.0
 12
0.0
 22
0.0
 32
0.0
 14
1e+20
 24
1e+20
 34
1e+20
 15
-1e+20
 25
-1e+20
 35
-1e+20
146
0.0
 13
0.0
 23
0.0
 33
0.0
 16
1.0
 26
0.0
 36
0.0
 17
0.0
 27
1.0
 37
0.0
 76
1
330
17
  0
LAYOUT
  5
1E
330
D
100
AcDbPlotSettings
  1

  4
A3
  6

 40
7.5
 41
20.0
 42
7.5
 43
20.0
 44
420.0
 45
297.0
 46
0.0
 47
0.0
 48
0.0
 49
0.0
140
0.0
141
0.0
142
1.0
143
1.0
 70
0
 72
1
 73
0
 74
5
  7

 75
16
 76
0
 77
2
 78
300
147
1.0
148
0.0
149
0.0
100
AcDbLayout
  1
Layout1
 70
1
 71
1
 10
0.0
 20
0.0
 11
420.0
 21
297.0
 12
0.0
 22
0.0
 32
0.0
 14
1e+20
 24
1e+20
 34
1e+20
 15
-1e+20
 25
-1e+20
 35
-1e+20
146
0.0
 13
0.0
 23
0.0
 33
0.0
 16
1.0
 26
0.0
 36
0.0
 17
0.0
 27
1.0
 37
0.0
 76
1
330
1B
  0
MATERIAL
  5
1F
102
{ACAD_REACTORS
330
E
102
}
330
E
100
AcDbMaterial
  1
ByBlock
  2

 70
0
 40
1.0
 71
1
 41
1.0
 91
-1023410177
 42
1.0
 72
1
  3

 73
1
 74
1
 75
1
 44
0.5
 73
0
 45
1.0
 46
1.0
 77
1
  4

 78
1
 79
1
170
1
 48
1.0
171
1
  6

172
1
173
1
174
1
140
1.0
141
1.0
175
1
  7

176
1
177
1
178
1
143
1.0
179
1
  8

270
1
271
1
272
1
145
1.0
146
1.0
273
1
  9

274
1
275
1
276
1
 42
1.0
 72
1
  3

 73
1
 74
1
 75
1
 94
63
  0
MATERIAL
  5
20
102
{ACAD_REACTORS
330
E
102
}
330
E
100
AcDbMaterial
  1
ByLayer
  2

 70
0
 40
1.0
 71
1
 41
1.0
 91
-1023410177
 42
1.0
 72
1
  3

 73
1
 74
1
 75
1
 44
0.5
 73
0
 45
1.0
 46
1.0
 77
1
  4

 78
1
 79
1
170
1
 48
1.0
171
1
  6

172
1
173
1
174
1
140
1.0
141
1.0
175
1
  7

176
1
177
1
178
1
143
1.0
179
1
  8

270
1
271
1
272
1
145
1.0
146
1.0
273
1
  9

274
1
275
1
276
1
 42
1.0
 72
1
  3

 73
1
 74
1
 75
1
 94
63
  0
MATERIAL
  5
21
102
{ACAD_REACTORS
330
E
102
}
330
E
100
AcDbMaterial
  1
Global
  2

 70
0
 40
1.0
 71
1
 41
1.0
 91
-1023410177
 42
1.0
 72
1
  3

 73
1
 74
1
 75
1
 44
0.5
 73
0
 45
1.0
 46
1.0
 77
1
  4

 78
1
 79
1
170
1
 48
1.0
171
1
  6

172
1
173
1
174
1
140
1.0
141
1.0
175
1
  7

176
1
177
1
178
1
143
1.0
179
1
  8

270
1
271
1
272
1
145
1.0
146
1.0
273
1
  9

274
1
275
1
276
1
 42
1.0
 72
1
  3

 73
1
 74
1
 75
1
 94
63
  0
MLINESTYLE
  5
22
102
{ACAD_REACTORS
330
10
102
}
330
10
100
AcDbMlineStyle
  2
Standard
 70
0
  3

 62
256
 51
90.0
 52
90.0
 71
2
 49
0.5
 62
256
  6
BYLAYER
 49
-0.5
 62
256
  6
BYLAYER
  0
MLEADERSTYLE
  5
2C
102
{ACAD_REACTORS
330
F
102
}
330
F
100
AcDbMLeaderStyle
179
2
170
2
171
1
172
0
 90
2
 40
0.0
 41
0.0
173
1
 91
-1056964608
 92
-2
290
1
 42
2.0
291
1
 43
8.0
  3
Standard
 44
4.0
300

342
29
174
1
175
1
176
0
178
1
 93
-1056964608
 45
4.0
292
0
297
0
 46
4.0
 94
-1056964608
 47
1.0
 49
1.0
140
1.0
294
1
141
0.0
177
0
142
1.0
295
0
296
0
143
3.75
271
0
272
9
273
9
  0
DICTIONARY
  5
2D
330
A
100
AcDbDictionary
280
1
281
1
  3
CREATED_BY_EZDXF
350
2E
  3
WRITTEN_BY_EZDXF
350
1ED
  0
DICTIONARYVAR
  5
2E
330
2D
100
DictionaryVariables
280
0
  1
1.4.2 @ 2025-07-30T15:13:42.462936+00:00
  0
DICTIONARYVAR
  5
1ED
330
2D
100
DictionaryVariables
280
0
  1
1.4.2 @ 2025-07-30T15:13:42.478561+00:00
  0
ENDSEC
  0
EOF
