  0
SECTION
  2
HEADER
  9
$ACADVER
  1
AC1024
  9
$ACADMAINTVER
 70
6
  9
$DWGCODEPAGE
  3
ANSI_1252
  9
$LASTSAVEDBY
  1
ezdxf
  9
$INSBASE
 10
0.0
 20
0.0
 30
0.0
  9
$EXTMIN
 10
1e+20
 20
1e+20
 30
1e+20
  9
$EXTMAX
 10
-1e+20
 20
-1e+20
 30
-1e+20
  9
$LIMMIN
 10
0.0
 20
0.0
  9
$LIMMAX
 10
420.0
 20
297.0
  9
$ORTHOMODE
 70
0
  9
$REGENMODE
 70
1
  9
$FILLMODE
 70
1
  9
$QTEXTMODE
 70
0
  9
$MIRRTEXT
 70
1
  9
$LTSCALE
 40
1.0
  9
$ATTMODE
 70
1
  9
$TEXTSIZE
 40
2.5
  9
$TRACEWID
 40
1.0
  9
$TEXTSTYLE
  7
Standard
  9
$CLAYER
  8
0
  9
$CELTYPE
  6
ByLayer
  9
$CECOLOR
 62
256
  9
$CELTSCALE
 40
1.0
  9
$DISPSILH
 70
0
  9
$DIMSCALE
 40
1.0
  9
$DIMASZ
 40
2.5
  9
$DIMEXO
 40
0.625
  9
$DIMDLI
 40
3.75
  9
$DIMRND
 40
0.0
  9
$DIMDLE
 40
0.0
  9
$DIMEXE
 40
1.25
  9
$DIMTP
 40
0.0
  9
$DIMTM
 40
0.0
  9
$DIMTXT
 40
2.5
  9
$DIMCEN
 40
2.5
  9
$DIMTSZ
 40
0.0
  9
$DIMTOL
 70
0
  9
$DIMLIM
 70
0
  9
$DIMTIH
 70
0
  9
$DIMTOH
 70
0
  9
$DIMSE1
 70
0
  9
$DIMSE2
 70
0
  9
$DIMTAD
 70
1
  9
$DIMZIN
 70
8
  9
$DIMBLK
  1

  9
$DIMASO
 70
1
  9
$DIMSHO
 70
1
  9
$DIMPOST
  1

  9
$DIMAPOST
  1

  9
$DIMALT
 70
0
  9
$DIMALTD
 70
3
  9
$DIMALTF
 40
0.03937007874
  9
$DIMLFAC
 40
1.0
  9
$DIMTOFL
 70
1
  9
$DIMTVP
 40
0.0
  9
$DIMTIX
 70
0
  9
$DIMSOXD
 70
0
  9
$DIMSAH
 70
0
  9
$DIMBLK1
  1

  9
$DIMBLK2
  1

  9
$DIMSTYLE
  2
ISO-25
  9
$DIMCLRD
 70
0
  9
$DIMCLRE
 70
0
  9
$DIMCLRT
 70
0
  9
$DIMTFAC
 40
1.0
  9
$DIMGAP
 40
0.625
  9
$DIMJUST
 70
0
  9
$DIMSD1
 70
0
  9
$DIMSD2
 70
0
  9
$DIMTOLJ
 70
0
  9
$DIMTZIN
 70
8
  9
$DIMALTZ
 70
0
  9
$DIMALTTZ
 70
0
  9
$DIMUPT
 70
0
  9
$DIMDEC
 70
2
  9
$DIMTDEC
 70
2
  9
$DIMALTU
 70
2
  9
$DIMALTTD
 70
3
  9
$DIMTXSTY
  7
Standard
  9
$DIMAUNIT
 70
0
  9
$DIMADEC
 70
0
  9
$DIMALTRND
 40
0.0
  9
$DIMAZIN
 70
0
  9
$DIMDSEP
 70
44
  9
$DIMATFIT
 70
3
  9
$DIMFRAC
 70
0
  9
$DIMLDRBLK
  1

  9
$DIMLUNIT
 70
2
  9
$DIMLWD
 70
-2
  9
$DIMLWE
 70
-2
  9
$DIMTMOVE
 70
0
  9
$DIMFXL
 40
1.0
  9
$DIMFXLON
 70
0
  9
$DIMJOGANG
 40
0.785398163397
  9
$DIMTFILL
 70
0
  9
$DIMTFILLCLR
 70
0
  9
$DIMARCSYM
 70
0
  9
$DIMLTYPE
  6

  9
$DIMLTEX1
  6

  9
$DIMLTEX2
  6

  9
$DIMTXTDIRECTION
 70
0
  9
$LUNITS
 70
2
  9
$LUPREC
 70
4
  9
$SKETCHINC
 40
1.0
  9
$FILLETRAD
 40
10.0
  9
$AUNITS
 70
0
  9
$AUPREC
 70
2
  9
$MENU
  1
.
  9
$ELEVATION
 40
0.0
  9
$PELEVATION
 40
0.0
  9
$THICKNESS
 40
0.0
  9
$LIMCHECK
 70
0
  9
$CHAMFERA
 40
0.0
  9
$CHAMFERB
 40
0.0
  9
$CHAMFERC
 40
0.0
  9
$CHAMFERD
 40
0.0
  9
$SKPOLY
 70
0
  9
$TDCREATE
 40
2460887.5094444444
  9
$TDUCREATE
 40
2458532.153996898
  9
$TDUPDATE
 40
2460887.5094444444
  9
$TDUUPDATE
 40
2458532.1544311
  9
$TDINDWG
 40
0.0
  9
$TDUSRTIMER
 40
0.0
  9
$USRTIMER
 70
1
  9
$ANGBASE
 50
0.0
  9
$ANGDIR
 70
0
  9
$PDMODE
 70
0
  9
$PDSIZE
 40
0.0
  9
$PLINEWID
 40
0.0
  9
$SPLFRAME
 70
0
  9
$SPLINETYPE
 70
6
  9
$SPLINESEGS
 70
8
  9
$HANDSEED
  5
20F
  9
$SURFTAB1
 70
6
  9
$SURFTAB2
 70
6
  9
$SURFTYPE
 70
6
  9
$SURFU
 70
6
  9
$SURFV
 70
6
  9
$UCSBASE
  2

  9
$UCSNAME
  2

  9
$UCSORG
 10
0.0
 20
0.0
 30
0.0
  9
$UCSXDIR
 10
1.0
 20
0.0
 30
0.0
  9
$UCSYDIR
 10
0.0
 20
1.0
 30
0.0
  9
$UCSORTHOREF
  2

  9
$UCSORTHOVIEW
 70
0
  9
$UCSORGTOP
 10
0.0
 20
0.0
 30
0.0
  9
$UCSORGBOTTOM
 10
0.0
 20
0.0
 30
0.0
  9
$UCSORGLEFT
 10
0.0
 20
0.0
 30
0.0
  9
$UCSORGRIGHT
 10
0.0
 20
0.0
 30
0.0
  9
$UCSORGFRONT
 10
0.0
 20
0.0
 30
0.0
  9
$UCSORGBACK
 10
0.0
 20
0.0
 30
0.0
  9
$PUCSBASE
  2

  9
$PUCSNAME
  2

  9
$PUCSORG
 10
0.0
 20
0.0
 30
0.0
  9
$PUCSXDIR
 10
1.0
 20
0.0
 30
0.0
  9
$PUCSYDIR
 10
0.0
 20
1.0
 30
0.0
  9
$PUCSORTHOREF
  2

  9
$PUCSORTHOVIEW
 70
0
  9
$PUCSORGTOP
 10
0.0
 20
0.0
 30
0.0
  9
$PUCSORGBOTTOM
 10
0.0
 20
0.0
 30
0.0
  9
$PUCSORGLEFT
 10
0.0
 20
0.0
 30
0.0
  9
$PUCSORGRIGHT
 10
0.0
 20
0.0
 30
0.0
  9
$PUCSORGFRONT
 10
0.0
 20
0.0
 30
0.0
  9
$PUCSORGBACK
 10
0.0
 20
0.0
 30
0.0
  9
$USERI1
 70
0
  9
$USERI2
 70
0
  9
$USERI3
 70
0
  9
$USERI4
 70
0
  9
$USERI5
 70
0
  9
$USERR1
 40
0.0
  9
$USERR2
 40
0.0
  9
$USERR3
 40
0.0
  9
$USERR4
 40
0.0
  9
$USERR5
 40
0.0
  9
$WORLDVIEW
 70
1
  9
$SHADEDGE
 70
3
  9
$SHADEDIF
 70
70
  9
$TILEMODE
 70
1
  9
$MAXACTVP
 70
64
  9
$PINSBASE
 10
0.0
 20
0.0
 30
0.0
  9
$PLIMCHECK
 70
0
  9
$PEXTMIN
 10
1e+20
 20
1e+20
 30
1e+20
  9
$PEXTMAX
 10
-1e+20
 20
-1e+20
 30
-1e+20
  9
$PLIMMIN
 10
0.0
 20
0.0
  9
$PLIMMAX
 10
420.0
 20
297.0
  9
$UNITMODE
 70
0
  9
$VISRETAIN
 70
1
  9
$PLINEGEN
 70
0
  9
$PSLTSCALE
 70
1
  9
$TREEDEPTH
 70
3020
  9
$CMLSTYLE
  2
Standard
  9
$CMLJUST
 70
0
  9
$CMLSCALE
 40
20.0
  9
$PROXYGRAPHICS
 70
1
  9
$MEASUREMENT
 70
1
  9
$CELWEIGHT
370
-1
  9
$ENDCAPS
280
0
  9
$JOINSTYLE
280
0
  9
$LWDISPLAY
290
0
  9
$INSUNITS
 70
6
  9
$HYPERLINKBASE
  1

  9
$STYLESHEET
  1

  9
$XEDIT
290
1
  9
$CEPSNTYPE
380
0
  9
$PSTYLEMODE
290
1
  9
$FINGERPRINTGUID
  2
{E1114C4B-485F-49CC-87B5-2DA299283670}
  9
$VERSIONGUID
  2
{9444A853-D53A-4727-851F-1BF603EAB356}
  9
$EXTNAMES
290
1
  9
$PSVPSCALE
 40
0.0
  9
$OLESTARTUP
290
0
  9
$SORTENTS
280
127
  9
$INDEXCTL
280
0
  9
$HIDETEXT
280
1
  9
$XCLIPFRAME
280
1
  9
$HALOGAP
280
0
  9
$OBSCOLOR
 70
257
  9
$OBSLTYPE
280
0
  9
$INTERSECTIONDISPLAY
280
0
  9
$INTERSECTIONCOLOR
 70
257
  9
$DIMASSOC
280
2
  9
$PROJECTNAME
  1

  9
$CAMERADISPLAY
290
0
  9
$LENSLENGTH
 40
50.0
  9
$CAMERAHEIGHT
 40
0.0
  9
$STEPSPERSEC
 40
24.0
  9
$STEPSIZE
 40
100.0
  9
$3DDWFPREC
 40
2.0
  9
$PSOLWIDTH
 40
0.005
  9
$PSOLHEIGHT
 40
0.08
  9
$LOFTANG1
 40
1.570796326795
  9
$LOFTANG2
 40
1.570796326795
  9
$LOFTMAG1
 40
0.0
  9
$LOFTMAG2
 40
0.0
  9
$LOFTPARAM
 70
7
  9
$LOFTNORMALS
280
1
  9
$LATITUDE
 40
37.795
  9
$LONGITUDE
 40
-122.394
  9
$NORTHDIRECTION
 40
0.0
  9
$TIMEZONE
 70
-8000
  9
$LIGHTGLYPHDISPLAY
280
1
  9
$TILEMODELIGHTSYNCH
280
1
  9
$CMATERIAL
347
20
  9
$SOLIDHIST
280
0
  9
$SHOWHIST
280
1
  9
$DWFFRAME
280
2
  9
$DGNFRAME
280
2
  9
$REALWORLDSCALE
290
1
  9
$INTERFERECOLOR
 62
256
  9
$CSHADOW
280
0
  9
$SHADOWPLANELOCATION
 40
0.0
  0
ENDSEC
  0
SECTION
  2
CLASSES
  0
CLASS
  1
ACDBDICTIONARYWDFLT
  2
AcDbDictionaryWithDefault
  3
ObjectDBX Classes
 90
0
 91
0
280
0
281
0
  0
CLASS
  1
SUN
  2
AcDbSun
  3
SCENEOE
 90
1153
 91
0
280
0
281
0
  0
CLASS
  1
VISUALSTYLE
  2
AcDbVisualStyle
  3
ObjectDBX Classes
 90
4095
 91
0
280
0
281
0
  0
CLASS
  1
MATERIAL
  2
AcDbMaterial
  3
ObjectDBX Classes
 90
1153
 91
0
280
0
281
0
  0
CLASS
  1
SCALE
  2
AcDbScale
  3
ObjectDBX Classes
 90
1153
 91
0
280
0
281
0
  0
CLASS
  1
TABLESTYLE
  2
AcDbTableStyle
  3
ObjectDBX Classes
 90
4095
 91
0
280
0
281
0
  0
CLASS
  1
MLEADERSTYLE
  2
AcDbMLeaderStyle
  3
ACDB_MLEADERSTYLE_CLASS
 90
4095
 91
0
280
0
281
0
  0
CLASS
  1
DICTIONARYVAR
  2
AcDbDictionaryVar
  3
ObjectDBX Classes
 90
0
 91
0
280
0
281
0
  0
CLASS
  1
CELLSTYLEMAP
  2
AcDbCellStyleMap
  3
ObjectDBX Classes
 90
1152
 91
0
280
0
281
0
  0
CLASS
  1
MENTALRAYRENDERSETTINGS
  2
AcDbMentalRayRenderSettings
  3
SCENEOE
 90
1024
 91
0
280
0
281
0
  0
CLASS
  1
ACDBDETAILVIEWSTYLE
  2
AcDbDetailViewStyle
  3
ObjectDBX Classes
 90
1025
 91
0
280
0
281
0
  0
CLASS
  1
ACDBSECTIONVIEWSTYLE
  2
AcDbSectionViewStyle
  3
ObjectDBX Classes
 90
1025
 91
0
280
0
281
0
  0
CLASS
  1
RASTERVARIABLES
  2
AcDbRasterVariables
  3
ISM
 90
0
 91
0
280
0
281
0
  0
CLASS
  1
LAYOUT
  2
AcDbLayout
  3
ObjectDBX Classes
 90
0
 91
0
280
0
281
0
  0
CLASS
  1
ACDBPLACEHOLDER
  2
AcDbPlaceHolder
  3
ObjectDBX Classes
 90
0
 91
0
280
0
281
0
  0
ENDSEC
  0
SECTION
  2
TABLES
  0
TABLE
  2
VPORT
  5
8
330
0
100
AcDbSymbolTable
 70
1
  0
VPORT
  5
23
330
8
100
AcDbSymbolTableRecord
100
AcDbViewportTableRecord
  2
*Active
 70
0
 10
0.0
 20
0.0
 11
1.0
 21
1.0
 12
0.0
 22
0.0
 13
0.0
 23
0.0
 14
0.5
 24
0.5
 15
0.5
 25
0.5
 16
0.0
 26
0.0
 36
1.0
 17
0.0
 27
0.0
 37
0.0
 40
1000.0
 41
1.34
 42
50.0
 43
0.0
 44
0.0
 50
0.0
 51
0.0
 71
0
 72
1000
 73
1
 74
3
 75
0
 76
0
 77
0
 78
0
281
0
 65
0
146
0.0
  0
ENDTAB
  0
TABLE
  2
LTYPE
  5
2
330
0
100
AcDbSymbolTable
 70
3
  0
LTYPE
  5
24
330
2
100
AcDbSymbolTableRecord
100
AcDbLinetypeTableRecord
  2
ByBlock
 70
0
  3

 72
65
 73
0
 40
0.0
  0
LTYPE
  5
25
330
2
100
AcDbSymbolTableRecord
100
AcDbLinetypeTableRecord
  2
ByLayer
 70
0
  3

 72
65
 73
0
 40
0.0
  0
LTYPE
  5
26
330
2
100
AcDbSymbolTableRecord
100
AcDbLinetypeTableRecord
  2
Continuous
 70
0
  3

 72
65
 73
0
 40
0.0
  0
ENDTAB
  0
TABLE
  2
LAYER
  5
1
330
0
100
AcDbSymbolTable
 70
2
  0
LAYER
  5
27
330
1
100
AcDbSymbolTableRecord
100
AcDbLayerTableRecord
  2
0
 70
0
 62
7
  6
Continuous
370
-3
390
13
347
21
  0
LAYER
  5
28
330
1
100
AcDbSymbolTableRecord
100
AcDbLayerTableRecord
  2
Defpoints
 70
0
 62
7
  6
Continuous
290
0
370
-3
390
13
347
21
  0
ENDTAB
  0
TABLE
  2
STYLE
  5
5
330
0
100
AcDbSymbolTable
 70
1
  0
STYLE
  5
29
330
5
100
AcDbSymbolTableRecord
100
AcDbTextStyleTableRecord
  2
Standard
 70
0
 40
0.0
 41
1.0
 50
0.0
 71
0
 42
2.5
  3
txt
  4

  0
ENDTAB
  0
TABLE
  2
VIEW
  5
7
330
0
100
AcDbSymbolTable
 70
0
  0
ENDTAB
  0
TABLE
  2
UCS
  5
6
330
0
100
AcDbSymbolTable
 70
0
  0
ENDTAB
  0
TABLE
  2
APPID
  5
3
330
0
100
AcDbSymbolTable
 70
3
  0
APPID
  5
2A
330
3
100
AcDbSymbolTableRecord
100
AcDbRegAppTableRecord
  2
ACAD
 70
0
  0
APPID
  5
20C
330
3
100
AcDbSymbolTableRecord
100
AcDbRegAppTableRecord
  2
HATCHBACKGROUNDCOLOR
 70
0
  0
APPID
  5
20D
330
3
100
AcDbSymbolTableRecord
100
AcDbRegAppTableRecord
  2
EZDXF
 70
0
  0
ENDTAB
  0
TABLE
  2
DIMSTYLE
  5
4
330
0
100
AcDbSymbolTable
 70
1
100
AcDbDimStyleTable
  0
DIMSTYLE
105
2B
330
4
100
AcDbSymbolTableRecord
100
AcDbDimStyleTableRecord
  2
Standard
 70
0
 40
1.0
 41
2.5
 42
0.625
 43
3.75
 44
1.25
 45
0.0
 46
0.0
 47
0.0
 48
0.0
 49
2.5
140
2.5
141
2.5
142
0.0
143
0.03937007874
144
1.0
145
0.0
146
1.0
147
0.625
148
0.0
 69
0
 70
0
 71
0
 72
0
 73
0
 74
0
 75
0
 76
0
 77
1
 78
8
 79
3
170
0
171
3
172
1
173
0
174
0
175
0
176
0
177
0
178
0
179
2
271
2
272
2
273
2
274
3
275
0
276
0
277
2
278
44
279
0
280
0
281
0
282
0
283
0
284
8
285
0
286
0
288
0
289
3
290
0
371
-2
372
-2
  0
ENDTAB
  0
TABLE
  2
BLOCK_RECORD
  5
9
330
0
100
AcDbSymbolTable
 70
2
  0
BLOCK_RECORD
  5
17
330
9
100
AcDbSymbolTableRecord
100
AcDbBlockTableRecord
  2
*Model_Space
340
1A
 70
0
280
1
281
0
  0
BLOCK_RECORD
  5
1B
330
9
100
AcDbSymbolTableRecord
100
AcDbBlockTableRecord
  2
*Paper_Space
340
1E
 70
0
280
1
281
0
  0
ENDTAB
  0
ENDSEC
  0
SECTION
  2
BLOCKS
  0
BLOCK
  5
18
330
17
100
AcDbEntity
  8
0
100
AcDbBlockBegin
  2
*Model_Space
 70
0
 10
0.0
 20
0.0
 30
0.0
  3
*Model_Space
  1

  0
ENDBLK
  5
19
330
17
100
AcDbEntity
  8
0
100
AcDbBlockEnd
  0
BLOCK
  5
1C
330
1B
100
AcDbEntity
  8
0
100
AcDbBlockBegin
  2
*Paper_Space
 70
0
 10
0.0
 20
0.0
 30
0.0
  3
*Paper_Space
  1

  0
ENDBLK
  5
1D
330
1B
100
AcDbEntity
  8
0
100
AcDbBlockEnd
  0
ENDSEC
  0
SECTION
  2
ENTITIES
  0
LWPOLYLINE
  5
2F
330
17
100
AcDbEntity
  8
0
100
AcDbPolyline
 90
18
 70
1
 10
2.463892079276053
 20
0.43288145625406843
 10
1.290276960904756
 20
0.5735823784131796
 10
0.80679851770401
 20
0.8573096394538879
 10
0.578541986036685
 20
1.2936399294819114
 10
0.4450838093176808
 20
2.1811001437648323
 10
0.580836758919001
 20
7.813886821855567
 10
0.436713437475792
 20
12.724442013410107
 10
0.5418273957060544
 20
13.767303508008712
 10
0.7834986004702383
 20
14.291275838917324
 10
1.324337326764681
 20
14.63405951978201
 10
2.24215077647668
 20
14.751282075544497
 10
14.600754035272915
 20
14.610126876266929
 10
14.744909521135062
 20
2.433923135454034
 10
14.628812834941668
 20
1.3442467782345116
 10
14.302465438641113
 20
0.7897537928734879
 10
12.886582729449557
 20
0.45007960789693535
 10
7.272780919976027
 20
0.581516881170006
 10
2.463892079276053
 20
0.43288145625406843
  0
LWPOLYLINE
  5
30
330
17
100
AcDbEntity
  8
0
100
AcDbPolyline
 90
18
 70
1
 10
2.463892079276053
 20
0.43288145625406843
 10
1.290276960904756
 20
0.5735823784131796
 10
0.80679851770401
 20
0.8573096394538879
 10
0.578541986036685
 20
1.2936399294819114
 10
0.4450838093176808
 20
2.1811001437648323
 10
0.580836758919001
 20
7.813886821855567
 10
0.436713437475792
 20
12.724442013410107
 10
0.5418273957060544
 20
13.767303508008712
 10
0.7834986004702383
 20
14.291275838917324
 10
1.324337326764681
 20
14.63405951978201
 10
2.24215077647668
 20
14.751282075544497
 10
14.600754035272915
 20
14.610126876266929
 10
14.744909521135062
 20
2.433923135454034
 10
14.628812834941668
 20
1.3442467782345116
 10
14.302465438641113
 20
0.7897537928734879
 10
12.886582729449557
 20
0.45007960789693535
 10
7.272780919976027
 20
0.581516881170006
 10
2.463892079276053
 20
0.43288145625406843
  0
LWPOLYLINE
  5
31
330
17
100
AcDbEntity
  8
0
100
AcDbPolyline
 90
2
 70
1
 10
6.106775918119607
 20
0.5481721445774133
 10
6.106775918119607
 20
0.5481721445774133
  0
LWPOLYLINE
  5
32
330
17
100
AcDbEntity
  8
0
100
AcDbPolyline
 90
2
 70
1
 10
0.4400756929929607
 20
12.81026518138724
 10
0.4400756929929607
 20
12.81026518138724
  0
LINE
  5
33
330
17
100
AcDbEntity
  8
0
100
AcDbLine
 10
2.5928489565849304
 20
0.437
 30
0.0
 11
2.5928489565849304
 21
0.5521151151151131
 31
0.0
  0
LINE
  5
34
330
17
100
AcDbEntity
  8
0
100
AcDbLine
 10
2.5928489565849304
 20
0.437
 30
0.0
 11
2.5928489565849304
 21
0.5521151151151131
 31
0.0
  0
LINE
  5
35
330
17
100
AcDbEntity
  8
0
100
AcDbLine
 10
2.5928489565849304
 20
0.5521151151151131
 30
0.0
 11
2.5928489565849304
 21
0.6457114337568022
 31
0.0
  0
LINE
  5
36
330
17
100
AcDbEntity
  8
0
100
AcDbLine
 10
2.5928489565849304
 20
0.6457114337568022
 30
0.0
 11
2.5928489565849304
 21
1.7574718693284952
 31
0.0
  0
LINE
  5
37
330
17
100
AcDbEntity
  8
0
100
AcDbLine
 10
2.5928489565849304
 20
1.7574718693284952
 30
0.0
 11
2.5928489565849304
 21
1.9940671506352112
 31
0.0
  0
LINE
  5
38
330
17
100
AcDbEntity
  8
0
100
AcDbLine
 10
2.5928489565849304
 20
1.9940671506352112
 30
0.0
 11
2.5928489565849304
 21
2.103012903225807
 31
0.0
  0
LINE
  5
39
330
17
100
AcDbEntity
  8
0
100
AcDbLine
 10
2.5928489565849304
 20
2.103012903225807
 30
0.0
 11
2.5928489565849304
 21
2.312832258064513
 31
0.0
  0
LINE
  5
3A
330
17
100
AcDbEntity
  8
0
100
AcDbLine
 10
2.5928489565849304
 20
2.312832258064513
 30
0.0
 11
2.5928489565849304
 21
3.5911032258064526
 31
0.0
  0
LINE
  5
3B
330
17
100
AcDbEntity
  8
0
100
AcDbLine
 10
2.5928489565849304
 20
3.5911032258064526
 30
0.0
 11
2.5928489565849304
 21
3.6876802383316774
 31
0.0
  0
LINE
  5
3C
330
17
100
AcDbEntity
  8
0
100
AcDbLine
 10
2.5928489565849304
 20
3.6876802383316774
 30
0.0
 11
2.5928489565849304
 21
3.91838828202582
 31
0.0
  0
LINE
  5
3D
330
17
100
AcDbEntity
  8
0
100
AcDbLine
 10
2.5928489565849304
 20
3.91838828202582
 30
0.0
 11
2.5928489565849304
 21
5.076558093346581
 31
0.0
  0
LINE
  5
3E
330
17
100
AcDbEntity
  8
0
100
AcDbLine
 10
2.5928489565849304
 20
5.076558093346581
 30
0.0
 11
2.5928489565849304
 21
5.28515483870968
 31
0.0
  0
LINE
  5
3F
330
17
100
AcDbEntity
  8
0
100
AcDbLine
 10
2.5928489565849304
 20
5.28515483870968
 30
0.0
 11
2.5928489565849304
 21
5.494974193548386
 31
0.0
  0
LINE
  5
40
330
17
100
AcDbEntity
  8
0
100
AcDbLine
 10
2.5928489565849304
 20
5.494974193548386
 30
0.0
 11
2.5928489565849304
 21
5.6475610724925485
 31
0.0
  0
LINE
  5
41
330
17
100
AcDbEntity
  8
0
100
AcDbLine
 10
2.5928489565849304
 20
5.6475610724925485
 30
0.0
 11
2.5928489565849304
 21
5.878269116186691
 31
0.0
  0
LINE
  5
42
330
17
100
AcDbEntity
  8
0
100
AcDbLine
 10
2.5928489565849304
 20
5.878269116186691
 30
0.0
 11
2.5928489565849304
 21
7.036438927507452
 31
0.0
  0
LINE
  5
43
330
17
100
AcDbEntity
  8
0
100
AcDbLine
 10
2.5928489565849304
 20
7.036438927507452
 30
0.0
 11
2.5928489565849304
 21
7.189025806451614
 31
0.0
  0
LINE
  5
44
330
17
100
AcDbEntity
  8
0
100
AcDbLine
 10
2.5928489565849304
 20
7.189025806451614
 30
0.0
 11
2.5928489565849304
 21
7.443658064516131
 31
0.0
  0
LINE
  5
45
330
17
100
AcDbEntity
  8
0
100
AcDbLine
 10
2.5928489565849304
 20
7.443658064516131
 30
0.0
 11
2.5928489565849304
 21
7.653477419354837
 31
0.0
  0
LINE
  5
46
330
17
100
AcDbEntity
  8
0
100
AcDbLine
 10
2.5928489565849304
 20
7.653477419354837
 30
0.0
 11
2.5928489565849304
 21
7.838149950347562
 31
0.0
  0
LINE
  5
47
330
17
100
AcDbEntity
  8
0
100
AcDbLine
 10
2.5928489565849304
 20
7.838149950347562
 30
0.0
 11
2.5928489565849304
 21
8.996319761668323
 31
0.0
  0
LINE
  5
48
330
17
100
AcDbEntity
  8
0
100
AcDbLine
 10
2.5928489565849304
 20
8.996319761668323
 30
0.0
 11
2.5928489565849304
 21
9.227027805362466
 31
0.0
  0
LINE
  5
49
330
17
100
AcDbEntity
  8
0
100
AcDbLine
 10
2.5928489565849304
 20
9.227027805362466
 30
0.0
 11
2.5928489565849304
 21
9.542288180610887
 31
0.0
  0
LINE
  5
4A
330
17
100
AcDbEntity
  8
0
100
AcDbLine
 10
2.5928489565849304
 20
9.542288180610887
 30
0.0
 11
2.5928489565849304
 21
9.542861702127656
 31
0.0
  0
LINE
  5
4B
330
17
100
AcDbEntity
  8
0
100
AcDbLine
 10
2.5928489565849304
 20
9.542861702127656
 30
0.0
 11
2.5928489565849304
 21
9.546919463087246
 31
0.0
  0
LINE
  5
4C
330
17
100
AcDbEntity
  8
0
100
AcDbLine
 10
2.5928489565849304
 20
9.546919463087246
 30
0.0
 11
2.5928489565849304
 21
9.551365853658535
 31
0.0
  0
LINE
  5
4D
330
17
100
AcDbEntity
  8
0
100
AcDbLine
 10
2.5928489565849304
 20
9.551365853658535
 30
0.0
 11
2.5928489565849304
 21
9.559579310344825
 31
0.0
  0
LINE
  5
4E
330
17
100
AcDbEntity
  8
0
100
AcDbLine
 10
2.5928489565849304
 20
9.559579310344825
 30
0.0
 11
2.5928489565849304
 21
9.583017416545715
 31
0.0
  0
LINE
  5
4F
330
17
100
AcDbEntity
  8
0
100
AcDbLine
 10
2.5928489565849304
 20
9.583017416545715
 30
0.0
 11
2.5928489565849304
 21
9.592466666666663
 31
0.0
  0
LINE
  5
50
330
17
100
AcDbEntity
  8
0
100
AcDbLine
 10
2.5928489565849304
 20
9.592466666666663
 30
0.0
 11
2.5928489565849304
 21
9.597896551724133
 31
0.0
  0
LINE
  5
51
330
17
100
AcDbEntity
  8
0
100
AcDbLine
 10
2.5928489565849304
 20
9.597896551724133
 30
0.0
 11
2.5928489565849304
 21
9.60231618759455
 31
0.0
  0
LINE
  5
52
330
17
100
AcDbEntity
  8
0
100
AcDbLine
 10
2.5928489565849304
 20
9.60231618759455
 30
0.0
 11
2.5928489565849304
 21
10.58103177004539
 31
0.0
  0
LINE
  5
53
330
17
100
AcDbEntity
  8
0
100
AcDbLine
 10
2.5928489565849304
 20
10.58103177004539
 30
0.0
 11
2.5928489565849304
 21
10.593369661266573
 31
0.0
  0
LINE
  5
54
330
17
100
AcDbEntity
  8
0
100
AcDbLine
 10
2.5928489565849304
 20
10.593369661266573
 30
0.0
 11
2.5928489565849304
 21
10.621556786703605
 31
0.0
  0
LINE
  5
55
330
17
100
AcDbEntity
  8
0
100
AcDbLine
 10
2.5928489565849304
 20
10.621556786703605
 30
0.0
 11
2.5928489565849304
 21
10.634318059299195
 31
0.0
  0
LINE
  5
56
330
17
100
AcDbEntity
  8
0
100
AcDbLine
 10
2.5928489565849304
 20
10.634318059299195
 30
0.0
 11
2.5928489565849304
 21
10.638408544726305
 31
0.0
  0
LINE
  5
57
330
17
100
AcDbEntity
  8
0
100
AcDbLine
 10
2.5928489565849304
 20
10.638408544726305
 30
0.0
 11
2.5928489565849304
 21
10.640406374501996
 31
0.0
  0
LINE
  5
58
330
17
100
AcDbEntity
  8
0
100
AcDbLine
 10
2.5928489565849304
 20
10.640406374501996
 30
0.0
 11
2.5928489565849304
 21
10.956200595829195
 31
0.0
  0
LINE
  5
59
330
17
100
AcDbEntity
  8
0
100
AcDbLine
 10
2.5928489565849304
 20
10.956200595829195
 30
0.0
 11
2.5928489565849304
 21
11.186908639523336
 31
0.0
  0
LINE
  5
5A
330
17
100
AcDbEntity
  8
0
100
AcDbLine
 10
2.5928489565849304
 20
11.186908639523336
 30
0.0
 11
2.5928489565849304
 21
12.345078450844095
 31
0.0
  0
LINE
  5
5B
330
17
100
AcDbEntity
  8
0
100
AcDbLine
 10
2.5928489565849304
 20
12.345078450844095
 30
0.0
 11
2.5928489565849304
 21
12.529670967741938
 31
0.0
  0
LINE
  5
5C
330
17
100
AcDbEntity
  8
0
100
AcDbLine
 10
2.5928489565849304
 20
12.529670967741938
 30
0.0
 11
2.5928489565849304
 21
12.739490322580643
 31
0.0
  0
LINE
  5
5D
330
17
100
AcDbEntity
  8
0
100
AcDbLine
 10
2.5928489565849304
 20
12.739490322580643
 30
0.0
 11
2.5928489565849304
 21
12.994122580645161
 31
0.0
  0
LINE
  5
5E
330
17
100
AcDbEntity
  8
0
100
AcDbLine
 10
2.5928489565849304
 20
12.994122580645161
 30
0.0
 11
2.5928489565849304
 21
13.10742276422764
 31
0.0
  0
LINE
  5
5F
330
17
100
AcDbEntity
  8
0
100
AcDbLine
 10
2.5928489565849304
 20
13.10742276422764
 30
0.0
 11
2.5928489565849304
 21
14.296561878952126
 31
0.0
  0
LINE
  5
60
330
17
100
AcDbEntity
  8
0
100
AcDbLine
 10
2.5928489565849304
 20
14.296561878952126
 30
0.0
 11
2.5928489565849304
 21
14.534231255645894
 31
0.0
  0
LINE
  5
61
330
17
100
AcDbEntity
  8
0
100
AcDbLine
 10
2.5928489565849304
 20
14.534231255645894
 30
0.0
 11
2.5928489565849304
 21
14.62659608630206
 31
0.0
  0
LINE
  5
62
330
17
100
AcDbEntity
  8
0
100
AcDbLine
 10
2.5928489565849304
 20
14.62659608630206
 30
0.0
 11
2.5928489565849304
 21
14.742
 31
0.0
  0
LINE
  5
63
330
17
100
AcDbEntity
  8
0
100
AcDbLine
 10
5.09284895658493
 20
0.516
 30
0.0
 11
5.09284895658493
 21
1.0748806682577676
 31
0.0
  0
LINE
  5
64
330
17
100
AcDbEntity
  8
0
100
AcDbLine
 10
5.09284895658493
 20
0.516
 30
0.0
 11
5.09284895658493
 21
1.0748806682577676
 31
0.0
  0
LINE
  5
65
330
17
100
AcDbEntity
  8
0
100
AcDbLine
 10
5.09284895658493
 20
1.0748806682577676
 30
0.0
 11
5.09284895658493
 21
1.708454699407283
 31
0.0
  0
LINE
  5
66
330
17
100
AcDbEntity
  8
0
100
AcDbLine
 10
5.09284895658493
 20
1.708454699407283
 30
0.0
 11
5.09284895658493
 21
1.9500296359017801
 31
0.0
  0
LINE
  5
67
330
17
100
AcDbEntity
  8
0
100
AcDbLine
 10
5.09284895658493
 20
1.9500296359017801
 30
0.0
 11
5.09284895658493
 21
2.0297741935483877
 31
0.0
  0
LINE
  5
68
330
17
100
AcDbEntity
  8
0
100
AcDbLine
 10
5.09284895658493
 20
2.0297741935483877
 30
0.0
 11
5.09284895658493
 21
2.2395935483870937
 31
0.0
  0
LINE
  5
69
330
17
100
AcDbEntity
  8
0
100
AcDbLine
 10
5.09284895658493
 20
2.2395935483870937
 30
0.0
 11
5.09284895658493
 21
3.5170129032258073
 31
0.0
  0
LINE
  5
6A
330
17
100
AcDbEntity
  8
0
100
AcDbLine
 10
5.09284895658493
 20
3.5170129032258073
 30
0.0
 11
5.09284895658493
 21
3.6205511420059575
 31
0.0
  0
LINE
  5
6B
330
17
100
AcDbEntity
  8
0
100
AcDbLine
 10
5.09284895658493
 20
3.6205511420059575
 30
0.0
 11
5.09284895658493
 21
3.852030784508441
 31
0.0
  0
LINE
  5
6C
330
17
100
AcDbEntity
  8
0
100
AcDbLine
 10
5.09284895658493
 20
3.852030784508441
 30
0.0
 11
5.09284895658493
 21
5.00942899702086
 31
0.0
  0
LINE
  5
6D
330
17
100
AcDbEntity
  8
0
100
AcDbLine
 10
5.09284895658493
 20
5.00942899702086
 30
0.0
 11
5.09284895658493
 21
5.211064516129035
 31
0.0
  0
LINE
  5
6E
330
17
100
AcDbEntity
  8
0
100
AcDbLine
 10
5.09284895658493
 20
5.211064516129035
 30
0.0
 11
5.09284895658493
 21
5.420883870967741
 31
0.0
  0
LINE
  5
6F
330
17
100
AcDbEntity
  8
0
100
AcDbLine
 10
5.09284895658493
 20
5.420883870967741
 30
0.0
 11
5.09284895658493
 21
5.676367741935484
 31
0.0
  0
LINE
  5
70
330
17
100
AcDbEntity
  8
0
100
AcDbLine
 10
5.09284895658493
 20
5.676367741935484
 30
0.0
 11
5.09284895658493
 21
5.8119116186693125
 31
0.0
  0
LINE
  5
71
330
17
100
AcDbEntity
  8
0
100
AcDbLine
 10
5.09284895658493
 20
5.8119116186693125
 30
0.0
 11
5.09284895658493
 21
6.969309831181731
 31
0.0
  0
LINE
  5
72
330
17
100
AcDbEntity
  8
0
100
AcDbLine
 10
5.09284895658493
 20
6.969309831181731
 30
0.0
 11
5.09284895658493
 21
7.114935483870968
 31
0.0
  0
LINE
  5
73
330
17
100
AcDbEntity
  8
0
100
AcDbLine
 10
5.09284895658493
 20
7.114935483870968
 30
0.0
 11
5.09284895658493
 21
7.370419354838711
 31
0.0
  0
LINE
  5
74
330
17
100
AcDbEntity
  8
0
100
AcDbLine
 10
5.09284895658493
 20
7.370419354838711
 30
0.0
 11
5.09284895658493
 21
7.580238709677417
 31
0.0
  0
LINE
  5
75
330
17
100
AcDbEntity
  8
0
100
AcDbLine
 10
5.09284895658493
 20
7.580238709677417
 30
0.0
 11
5.09284895658493
 21
7.771792452830184
 31
0.0
  0
LINE
  5
76
330
17
100
AcDbEntity
  8
0
100
AcDbLine
 10
5.09284895658493
 20
7.771792452830184
 30
0.0
 11
5.09284895658493
 21
8.929190665342603
 31
0.0
  0
LINE
  5
77
330
17
100
AcDbEntity
  8
0
100
AcDbLine
 10
5.09284895658493
 20
8.929190665342603
 30
0.0
 11
5.09284895658493
 21
9.160670307845086
 31
0.0
  0
LINE
  5
78
330
17
100
AcDbEntity
  8
0
100
AcDbLine
 10
5.09284895658493
 20
9.160670307845086
 30
0.0
 11
5.09284895658493
 21
9.48241209563994
 31
0.0
  0
LINE
  5
79
330
17
100
AcDbEntity
  8
0
100
AcDbLine
 10
5.09284895658493
 20
9.48241209563994
 30
0.0
 11
5.09284895658493
 21
9.496683599419445
 31
0.0
  0
LINE
  5
7A
330
17
100
AcDbEntity
  8
0
100
AcDbLine
 10
5.09284895658493
 20
9.496683599419445
 30
0.0
 11
5.09284895658493
 21
9.511551724137927
 31
0.0
  0
LINE
  5
7B
330
17
100
AcDbEntity
  8
0
100
AcDbLine
 10
5.09284895658493
 20
9.511551724137927
 30
0.0
 11
5.09284895658493
 21
9.515968229954611
 31
0.0
  0
LINE
  5
7C
330
17
100
AcDbEntity
  8
0
100
AcDbLine
 10
5.09284895658493
 20
9.515968229954611
 30
0.0
 11
5.09284895658493
 21
10.49403177004539
 31
0.0
  0
LINE
  5
7D
330
17
100
AcDbEntity
  8
0
100
AcDbLine
 10
5.09284895658493
 20
10.49403177004539
 30
0.0
 11
5.09284895658493
 21
10.511253644314873
 31
0.0
  0
LINE
  5
7E
330
17
100
AcDbEntity
  8
0
100
AcDbLine
 10
5.09284895658493
 20
10.511253644314873
 30
0.0
 11
5.09284895658493
 21
10.530146853146858
 31
0.0
  0
LINE
  5
7F
330
17
100
AcDbEntity
  8
0
100
AcDbLine
 10
5.09284895658493
 20
10.530146853146858
 30
0.0
 11
5.09284895658493
 21
10.547318059299196
 31
0.0
  0
LINE
  5
80
330
17
100
AcDbEntity
  8
0
100
AcDbLine
 10
5.09284895658493
 20
10.547318059299196
 30
0.0
 11
5.09284895658493
 21
10.567438709677424
 31
0.0
  0
LINE
  5
81
330
17
100
AcDbEntity
  8
0
100
AcDbLine
 10
5.09284895658493
 20
10.567438709677424
 30
0.0
 11
5.09284895658493
 21
10.57468233799238
 31
0.0
  0
LINE
  5
82
330
17
100
AcDbEntity
  8
0
100
AcDbLine
 10
5.09284895658493
 20
10.57468233799238
 30
0.0
 11
5.09284895658493
 21
10.577272727272732
 31
0.0
  0
LINE
  5
83
330
17
100
AcDbEntity
  8
0
100
AcDbLine
 10
5.09284895658493
 20
10.577272727272732
 30
0.0
 11
5.09284895658493
 21
10.889071499503475
 31
0.0
  0
LINE
  5
84
330
17
100
AcDbEntity
  8
0
100
AcDbLine
 10
5.09284895658493
 20
10.889071499503475
 30
0.0
 11
5.09284895658493
 21
11.120551142005958
 31
0.0
  0
LINE
  5
85
330
17
100
AcDbEntity
  8
0
100
AcDbLine
 10
5.09284895658493
 20
11.120551142005958
 30
0.0
 11
5.09284895658493
 21
12.277949354518377
 31
0.0
  0
LINE
  5
86
330
17
100
AcDbEntity
  8
0
100
AcDbLine
 10
5.09284895658493
 20
12.277949354518377
 30
0.0
 11
5.09284895658493
 21
12.455580645161291
 31
0.0
  0
LINE
  5
87
330
17
100
AcDbEntity
  8
0
100
AcDbLine
 10
5.09284895658493
 20
12.455580645161291
 30
0.0
 11
5.09284895658493
 21
12.665399999999998
 31
0.0
  0
LINE
  5
88
330
17
100
AcDbEntity
  8
0
100
AcDbLine
 10
5.09284895658493
 20
12.665399999999998
 30
0.0
 11
5.09284895658493
 21
12.92088387096774
 31
0.0
  0
LINE
  5
89
330
17
100
AcDbEntity
  8
0
100
AcDbLine
 10
5.09284895658493
 20
12.92088387096774
 30
0.0
 11
5.09284895658493
 21
13.009103852596313
 31
0.0
  0
LINE
  5
8A
330
17
100
AcDbEntity
  8
0
100
AcDbLine
 10
5.09284895658493
 20
13.009103852596313
 30
0.0
 11
5.09284895658493
 21
14.220159128978228
 31
0.0
  0
LINE
  5
8B
330
17
100
AcDbEntity
  8
0
100
AcDbLine
 10
5.09284895658493
 20
14.220159128978228
 30
0.0
 11
5.09284895658493
 21
14.462370184254612
 31
0.0
  0
LINE
  5
8C
330
17
100
AcDbEntity
  8
0
100
AcDbLine
 10
5.09284895658493
 20
14.462370184254612
 30
0.0
 11
5.09284895658493
 21
14.534328436516267
 31
0.0
  0
LINE
  5
8D
330
17
100
AcDbEntity
  8
0
100
AcDbLine
 10
5.09284895658493
 20
14.534328436516267
 30
0.0
 11
5.09284895658493
 21
14.655000000000001
 31
0.0
  0
LINE
  5
8E
330
17
100
AcDbEntity
  8
0
100
AcDbLine
 10
7.59284895658493
 20
0.5740000000000001
 30
0.0
 11
7.59284895658493
 21
0.697779569892471
 31
0.0
  0
LINE
  5
8F
330
17
100
AcDbEntity
  8
0
100
AcDbLine
 10
7.59284895658493
 20
0.5740000000000001
 30
0.0
 11
7.59284895658493
 21
0.697779569892471
 31
0.0
  0
LINE
  5
90
330
17
100
AcDbEntity
  8
0
100
AcDbLine
 10
7.59284895658493
 20
0.697779569892471
 30
0.0
 11
7.59284895658493
 21
0.7596693548387066
 31
0.0
  0
LINE
  5
91
330
17
100
AcDbEntity
  8
0
100
AcDbLine
 10
7.59284895658493
 20
0.7596693548387066
 30
0.0
 11
7.59284895658493
 21
1.699620967741936
 31
0.0
  0
LINE
  5
92
330
17
100
AcDbEntity
  8
0
100
AcDbLine
 10
7.59284895658493
 20
1.699620967741936
 30
0.0
 11
7.59284895658493
 21
1.9431612903225821
 31
0.0
  0
LINE
  5
93
330
17
100
AcDbEntity
  8
0
100
AcDbLine
 10
7.59284895658493
 20
1.9431612903225821
 30
0.0
 11
7.59284895658493
 21
2.179965186074427
 31
0.0
  0
LINE
  5
94
330
17
100
AcDbEntity
  8
0
100
AcDbLine
 10
7.59284895658493
 20
2.179965186074427
 30
0.0
 11
7.59284895658493
 21
2.184515151515149
 31
0.0
  0
LINE
  5
95
330
17
100
AcDbEntity
  8
0
100
AcDbLine
 10
7.59284895658493
 20
2.184515151515149
 30
0.0
 11
7.59284895658493
 21
2.198496259351618
 31
0.0
  0
LINE
  5
96
330
17
100
AcDbEntity
  8
0
100
AcDbLine
 10
7.59284895658493
 20
2.198496259351618
 30
0.0
 11
7.59284895658493
 21
2.2091811224489764
 31
0.0
  0
LINE
  5
97
330
17
100
AcDbEntity
  8
0
100
AcDbLine
 10
7.59284895658493
 20
2.2091811224489764
 30
0.0
 11
7.59284895658493
 21
2.217025940337221
 31
0.0
  0
LINE
  5
98
330
17
100
AcDbEntity
  8
0
100
AcDbLine
 10
7.59284895658493
 20
2.217025940337221
 30
0.0
 11
7.59284895658493
 21
3.270256809338526
 31
0.0
  0
LINE
  5
99
330
17
100
AcDbEntity
  8
0
100
AcDbLine
 10
7.59284895658493
 20
3.270256809338526
 30
0.0
 11
7.59284895658493
 21
3.5997179741807335
 31
0.0
  0
LINE
  5
9A
330
17
100
AcDbEntity
  8
0
100
AcDbLine
 10
7.59284895658493
 20
3.5997179741807335
 30
0.0
 11
7.59284895658493
 21
3.830426017874876
 31
0.0
  0
LINE
  5
9B
330
17
100
AcDbEntity
  8
0
100
AcDbLine
 10
7.59284895658493
 20
3.830426017874876
 30
0.0
 11
7.59284895658493
 21
4.988595829195637
 31
0.0
  0
LINE
  5
9C
330
17
100
AcDbEntity
  8
0
100
AcDbLine
 10
7.59284895658493
 20
4.988595829195637
 30
0.0
 11
7.59284895658493
 21
5.188070967741938
 31
0.0
  0
LINE
  5
9D
330
17
100
AcDbEntity
  8
0
100
AcDbLine
 10
7.59284895658493
 20
5.188070967741938
 30
0.0
 11
7.59284895658493
 21
5.397890322580644
 31
0.0
  0
LINE
  5
9E
330
17
100
AcDbEntity
  8
0
100
AcDbLine
 10
7.59284895658493
 20
5.397890322580644
 30
0.0
 11
7.59284895658493
 21
5.403851612903225
 31
0.0
  0
LINE
  5
9F
330
17
100
AcDbEntity
  8
0
100
AcDbLine
 10
7.59284895658493
 20
5.403851612903225
 30
0.0
 11
7.59284895658493
 21
5.652522580645161
 31
0.0
  0
LINE
  5
A0
330
17
100
AcDbEntity
  8
0
100
AcDbLine
 10
7.59284895658493
 20
5.652522580645161
 30
0.0
 11
7.59284895658493
 21
5.790306852035747
 31
0.0
  0
LINE
  5
A1
330
17
100
AcDbEntity
  8
0
100
AcDbLine
 10
7.59284895658493
 20
5.790306852035747
 30
0.0
 11
7.59284895658493
 21
6.948476663356508
 31
0.0
  0
LINE
  5
A2
330
17
100
AcDbEntity
  8
0
100
AcDbLine
 10
7.59284895658493
 20
6.948476663356508
 30
0.0
 11
7.59284895658493
 21
7.091941935483872
 31
0.0
  0
LINE
  5
A3
330
17
100
AcDbEntity
  8
0
100
AcDbLine
 10
7.59284895658493
 20
7.091941935483872
 30
0.0
 11
7.59284895658493
 21
7.346574193548388
 31
0.0
  0
LINE
  5
A4
330
17
100
AcDbEntity
  8
0
100
AcDbLine
 10
7.59284895658493
 20
7.346574193548388
 30
0.0
 11
7.59284895658493
 21
7.556393548387095
 31
0.0
  0
LINE
  5
A5
330
17
100
AcDbEntity
  8
0
100
AcDbLine
 10
7.59284895658493
 20
7.556393548387095
 30
0.0
 11
7.59284895658493
 21
7.750187686196618
 31
0.0
  0
LINE
  5
A6
330
17
100
AcDbEntity
  8
0
100
AcDbLine
 10
7.59284895658493
 20
7.750187686196618
 30
0.0
 11
7.59284895658493
 21
8.908357497517379
 31
0.0
  0
LINE
  5
A7
330
17
100
AcDbEntity
  8
0
100
AcDbLine
 10
7.59284895658493
 20
8.908357497517379
 30
0.0
 11
7.59284895658493
 21
9.13906554121152
 31
0.0
  0
LINE
  5
A8
330
17
100
AcDbEntity
  8
0
100
AcDbLine
 10
7.59284895658493
 20
9.13906554121152
 30
0.0
 11
7.59284895658493
 21
9.463929698708748
 31
0.0
  0
LINE
  5
A9
330
17
100
AcDbEntity
  8
0
100
AcDbLine
 10
7.59284895658493
 20
9.463929698708748
 30
0.0
 11
7.59284895658493
 21
9.469017416545714
 31
0.0
  0
LINE
  5
AA
330
17
100
AcDbEntity
  8
0
100
AcDbLine
 10
7.59284895658493
 20
9.469017416545714
 30
0.0
 11
7.59284895658493
 21
9.48796822995461
 31
0.0
  0
LINE
  5
AB
330
17
100
AcDbEntity
  8
0
100
AcDbLine
 10
7.59284895658493
 20
9.48796822995461
 30
0.0
 11
7.59284895658493
 21
10.466683812405451
 31
0.0
  0
LINE
  5
AC
330
17
100
AcDbEntity
  8
0
100
AcDbLine
 10
7.59284895658493
 20
10.466683812405451
 30
0.0
 11
7.59284895658493
 21
10.468903614457835
 31
0.0
  0
LINE
  5
AD
330
17
100
AcDbEntity
  8
0
100
AcDbLine
 10
7.59284895658493
 20
10.468903614457835
 30
0.0
 11
7.59284895658493
 21
10.479369661266572
 31
0.0
  0
LINE
  5
AE
330
17
100
AcDbEntity
  8
0
100
AcDbLine
 10
7.59284895658493
 20
10.479369661266572
 30
0.0
 11
7.59284895658493
 21
10.507556786703605
 31
0.0
  0
LINE
  5
AF
330
17
100
AcDbEntity
  8
0
100
AcDbLine
 10
7.59284895658493
 20
10.507556786703605
 30
0.0
 11
7.59284895658493
 21
10.520318059299195
 31
0.0
  0
LINE
  5
B0
330
17
100
AcDbEntity
  8
0
100
AcDbLine
 10
7.59284895658493
 20
10.520318059299195
 30
0.0
 11
7.59284895658493
 21
10.540438709677423
 31
0.0
  0
LINE
  5
B1
330
17
100
AcDbEntity
  8
0
100
AcDbLine
 10
7.59284895658493
 20
10.540438709677423
 30
0.0
 11
7.59284895658493
 21
10.547682337992379
 31
0.0
  0
LINE
  5
B2
330
17
100
AcDbEntity
  8
0
100
AcDbLine
 10
7.59284895658493
 20
10.547682337992379
 30
0.0
 11
7.59284895658493
 21
10.555212500000003
 31
0.0
  0
LINE
  5
B3
330
17
100
AcDbEntity
  8
0
100
AcDbLine
 10
7.59284895658493
 20
10.555212500000003
 30
0.0
 11
7.59284895658493
 21
10.55721641791045
 31
0.0
  0
LINE
  5
B4
330
17
100
AcDbEntity
  8
0
100
AcDbLine
 10
7.59284895658493
 20
10.55721641791045
 30
0.0
 11
7.59284895658493
 21
10.86823833167825
 31
0.0
  0
LINE
  5
B5
330
17
100
AcDbEntity
  8
0
100
AcDbLine
 10
7.59284895658493
 20
10.86823833167825
 30
0.0
 11
7.59284895658493
 21
11.098946375372392
 31
0.0
  0
LINE
  5
B6
330
17
100
AcDbEntity
  8
0
100
AcDbLine
 10
7.59284895658493
 20
11.098946375372392
 30
0.0
 11
7.59284895658493
 21
12.257116186693153
 31
0.0
  0
LINE
  5
B7
330
17
100
AcDbEntity
  8
0
100
AcDbLine
 10
7.59284895658493
 20
12.257116186693153
 30
0.0
 11
7.59284895658493
 21
12.432587096774196
 31
0.0
  0
LINE
  5
B8
330
17
100
AcDbEntity
  8
0
100
AcDbLine
 10
7.59284895658493
 20
12.432587096774196
 30
0.0
 11
7.59284895658493
 21
12.642406451612901
 31
0.0
  0
LINE
  5
B9
330
17
100
AcDbEntity
  8
0
100
AcDbLine
 10
7.59284895658493
 20
12.642406451612901
 30
0.0
 11
7.59284895658493
 21
12.897038709677418
 31
0.0
  0
LINE
  5
BA
330
17
100
AcDbEntity
  8
0
100
AcDbLine
 10
7.59284895658493
 20
12.897038709677418
 30
0.0
 11
7.59284895658493
 21
12.977884520884519
 31
0.0
  0
LINE
  5
BB
330
17
100
AcDbEntity
  8
0
100
AcDbLine
 10
7.59284895658493
 20
12.977884520884519
 30
0.0
 11
7.59284895658493
 21
14.196140868140871
 31
0.0
  0
LINE
  5
BC
330
17
100
AcDbEntity
  8
0
100
AcDbLine
 10
7.59284895658493
 20
14.196140868140871
 30
0.0
 11
7.59284895658493
 21
14.510058047493402
 31
0.0
  0
LINE
  5
BD
330
17
100
AcDbEntity
  8
0
100
AcDbLine
 10
7.59284895658493
 20
14.510058047493402
 30
0.0
 11
7.59284895658493
 21
14.628
 31
0.0
  0
LINE
  5
BE
330
17
100
AcDbEntity
  8
0
100
AcDbLine
 10
10.09284895658493
 20
0.515
 30
0.0
 11
10.09284895658493
 21
0.6347916666666646
 31
0.0
  0
LINE
  5
BF
330
17
100
AcDbEntity
  8
0
100
AcDbLine
 10
10.09284895658493
 20
0.515
 30
0.0
 11
10.09284895658493
 21
0.6347916666666646
 31
0.0
  0
LINE
  5
C0
330
17
100
AcDbEntity
  8
0
100
AcDbLine
 10
10.09284895658493
 20
0.6347916666666646
 30
0.0
 11
10.09284895658493
 21
0.7099152542372849
 31
0.0
  0
LINE
  5
C1
330
17
100
AcDbEntity
  8
0
100
AcDbLine
 10
10.09284895658493
 20
0.7099152542372849
 30
0.0
 11
10.09284895658493
 21
1.6888983050847466
 31
0.0
  0
LINE
  5
C2
330
17
100
AcDbEntity
  8
0
100
AcDbLine
 10
10.09284895658493
 20
1.6888983050847466
 30
0.0
 11
10.09284895658493
 21
1.9304237288135613
 31
0.0
  0
LINE
  5
C3
330
17
100
AcDbEntity
  8
0
100
AcDbLine
 10
10.09284895658493
 20
1.9304237288135613
 30
0.0
 11
10.09284895658493
 21
2.182954436450837
 31
0.0
  0
LINE
  5
C4
330
17
100
AcDbEntity
  8
0
100
AcDbLine
 10
10.09284895658493
 20
2.182954436450837
 30
0.0
 11
10.09284895658493
 21
2.188515151515149
 31
0.0
  0
LINE
  5
C5
330
17
100
AcDbEntity
  8
0
100
AcDbLine
 10
10.09284895658493
 20
2.188515151515149
 30
0.0
 11
10.09284895658493
 21
2.1986608910891063
 31
0.0
  0
LINE
  5
C6
330
17
100
AcDbEntity
  8
0
100
AcDbLine
 10
10.09284895658493
 20
2.1986608910891063
 30
0.0
 11
10.09284895658493
 21
2.202209476309224
 31
0.0
  0
LINE
  5
C7
330
17
100
AcDbEntity
  8
0
100
AcDbLine
 10
10.09284895658493
 20
2.202209476309224
 30
0.0
 11
10.09284895658493
 21
2.205811557788942
 31
0.0
  0
LINE
  5
C8
330
17
100
AcDbEntity
  8
0
100
AcDbLine
 10
10.09284895658493
 20
2.205811557788942
 30
0.0
 11
10.09284895658493
 21
2.209468354430377
 31
0.0
  0
LINE
  5
C9
330
17
100
AcDbEntity
  8
0
100
AcDbLine
 10
10.09284895658493
 20
2.209468354430377
 30
0.0
 11
10.09284895658493
 21
2.211317662007621
 31
0.0
  0
LINE
  5
CA
330
17
100
AcDbEntity
  8
0
100
AcDbLine
 10
10.09284895658493
 20
2.211317662007621
 30
0.0
 11
10.09284895658493
 21
3.2729440914866625
 31
0.0
  0
LINE
  5
CB
330
17
100
AcDbEntity
  8
0
100
AcDbLine
 10
10.09284895658493
 20
3.2729440914866625
 30
0.0
 11
10.09284895658493
 21
3.6020327706057587
 31
0.0
  0
LINE
  5
CC
330
17
100
AcDbEntity
  8
0
100
AcDbLine
 10
10.09284895658493
 20
3.6020327706057587
 30
0.0
 11
10.09284895658493
 21
3.833512413108242
 31
0.0
  0
LINE
  5
CD
330
17
100
AcDbEntity
  8
0
100
AcDbLine
 10
10.09284895658493
 20
3.833512413108242
 30
0.0
 11
10.09284895658493
 21
4.9909106256206615
 31
0.0
  0
LINE
  5
CE
330
17
100
AcDbEntity
  8
0
100
AcDbLine
 10
10.09284895658493
 20
4.9909106256206615
 30
0.0
 11
10.09284895658493
 21
5.1906258064516155
 31
0.0
  0
LINE
  5
CF
330
17
100
AcDbEntity
  8
0
100
AcDbLine
 10
10.09284895658493
 20
5.1906258064516155
 30
0.0
 11
10.09284895658493
 21
5.400445161290322
 31
0.0
  0
LINE
  5
D0
330
17
100
AcDbEntity
  8
0
100
AcDbLine
 10
10.09284895658493
 20
5.400445161290322
 30
0.0
 11
10.09284895658493
 21
5.655929032258064
 31
0.0
  0
LINE
  5
D1
330
17
100
AcDbEntity
  8
0
100
AcDbLine
 10
10.09284895658493
 20
5.655929032258064
 30
0.0
 11
10.09284895658493
 21
5.793393247269114
 31
0.0
  0
LINE
  5
D2
330
17
100
AcDbEntity
  8
0
100
AcDbLine
 10
10.09284895658493
 20
5.793393247269114
 30
0.0
 11
10.09284895658493
 21
6.950791459781533
 31
0.0
  0
LINE
  5
D3
330
17
100
AcDbEntity
  8
0
100
AcDbLine
 10
10.09284895658493
 20
6.950791459781533
 30
0.0
 11
10.09284895658493
 21
7.09449677419355
 31
0.0
  0
LINE
  5
D4
330
17
100
AcDbEntity
  8
0
100
AcDbLine
 10
10.09284895658493
 20
7.09449677419355
 30
0.0
 11
10.09284895658493
 21
7.349980645161292
 31
0.0
  0
LINE
  5
D5
330
17
100
AcDbEntity
  8
0
100
AcDbLine
 10
10.09284895658493
 20
7.349980645161292
 30
0.0
 11
10.09284895658493
 21
7.559799999999997
 31
0.0
  0
LINE
  5
D6
330
17
100
AcDbEntity
  8
0
100
AcDbLine
 10
10.09284895658493
 20
7.559799999999997
 30
0.0
 11
10.09284895658493
 21
7.753274081429985
 31
0.0
  0
LINE
  5
D7
330
17
100
AcDbEntity
  8
0
100
AcDbLine
 10
10.09284895658493
 20
7.753274081429985
 30
0.0
 11
10.09284895658493
 21
8.910672293942405
 31
0.0
  0
LINE
  5
D8
330
17
100
AcDbEntity
  8
0
100
AcDbLine
 10
10.09284895658493
 20
8.910672293942405
 30
0.0
 11
10.09284895658493
 21
9.142151936444888
 31
0.0
  0
LINE
  5
D9
330
17
100
AcDbEntity
  8
0
100
AcDbLine
 10
10.09284895658493
 20
9.142151936444888
 30
0.0
 11
10.09284895658493
 21
9.466264663805433
 31
0.0
  0
LINE
  5
DA
330
17
100
AcDbEntity
  8
0
100
AcDbLine
 10
10.09284895658493
 20
9.466264663805433
 30
0.0
 11
10.09284895658493
 21
9.472683599419444
 31
0.0
  0
LINE
  5
DB
330
17
100
AcDbEntity
  8
0
100
AcDbLine
 10
10.09284895658493
 20
9.472683599419444
 30
0.0
 11
10.09284895658493
 21
9.49196822995461
 31
0.0
  0
LINE
  5
DC
330
17
100
AcDbEntity
  8
0
100
AcDbLine
 10
10.09284895658493
 20
9.49196822995461
 30
0.0
 11
10.09284895658493
 21
10.47003177004539
 31
0.0
  0
LINE
  5
DD
330
17
100
AcDbEntity
  8
0
100
AcDbLine
 10
10.09284895658493
 20
10.47003177004539
 30
0.0
 11
10.09284895658493
 21
10.472250000000004
 31
0.0
  0
LINE
  5
DE
330
17
100
AcDbEntity
  8
0
100
AcDbLine
 10
10.09284895658493
 20
10.472250000000004
 30
0.0
 11
10.09284895658493
 21
10.487253644314873
 31
0.0
  0
LINE
  5
DF
330
17
100
AcDbEntity
  8
0
100
AcDbLine
 10
10.09284895658493
 20
10.487253644314873
 30
0.0
 11
10.09284895658493
 21
10.501649717514129
 31
0.0
  0
LINE
  5
E0
330
17
100
AcDbEntity
  8
0
100
AcDbLine
 10
10.09284895658493
 20
10.501649717514129
 30
0.0
 11
10.09284895658493
 21
10.506146853146857
 31
0.0
  0
LINE
  5
E1
330
17
100
AcDbEntity
  8
0
100
AcDbLine
 10
10.09284895658493
 20
10.506146853146857
 30
0.0
 11
10.09284895658493
 21
10.523318059299195
 31
0.0
  0
LINE
  5
E2
330
17
100
AcDbEntity
  8
0
100
AcDbLine
 10
10.09284895658493
 20
10.523318059299195
 30
0.0
 11
10.09284895658493
 21
10.527715620827774
 31
0.0
  0
LINE
  5
E3
330
17
100
AcDbEntity
  8
0
100
AcDbLine
 10
10.09284895658493
 20
10.527715620827774
 30
0.0
 11
10.09284895658493
 21
10.535711286089242
 31
0.0
  0
LINE
  5
E4
330
17
100
AcDbEntity
  8
0
100
AcDbLine
 10
10.09284895658493
 20
10.535711286089242
 30
0.0
 11
10.09284895658493
 21
10.550974587039393
 31
0.0
  0
LINE
  5
E5
330
17
100
AcDbEntity
  8
0
100
AcDbLine
 10
10.09284895658493
 20
10.550974587039393
 30
0.0
 11
10.09284895658493
 21
10.558500000000002
 31
0.0
  0
LINE
  5
E6
330
17
100
AcDbEntity
  8
0
100
AcDbLine
 10
10.09284895658493
 20
10.558500000000002
 30
0.0
 11
10.09284895658493
 21
10.559503740648383
 31
0.0
  0
LINE
  5
E7
330
17
100
AcDbEntity
  8
0
100
AcDbLine
 10
10.09284895658493
 20
10.559503740648383
 30
0.0
 11
10.09284895658493
 21
10.870553128103275
 31
0.0
  0
LINE
  5
E8
330
17
100
AcDbEntity
  8
0
100
AcDbLine
 10
10.09284895658493
 20
10.870553128103275
 30
0.0
 11
10.09284895658493
 21
11.102032770605758
 31
0.0
  0
LINE
  5
E9
330
17
100
AcDbEntity
  8
0
100
AcDbLine
 10
10.09284895658493
 20
11.102032770605758
 30
0.0
 11
10.09284895658493
 21
12.259430983118177
 31
0.0
  0
LINE
  5
EA
330
17
100
AcDbEntity
  8
0
100
AcDbLine
 10
10.09284895658493
 20
12.259430983118177
 30
0.0
 11
10.09284895658493
 21
12.435141935483873
 31
0.0
  0
LINE
  5
EB
330
17
100
AcDbEntity
  8
0
100
AcDbLine
 10
10.09284895658493
 20
12.435141935483873
 30
0.0
 11
10.09284895658493
 21
12.644961290322579
 31
0.0
  0
LINE
  5
EC
330
17
100
AcDbEntity
  8
0
100
AcDbLine
 10
10.09284895658493
 20
12.644961290322579
 30
0.0
 11
10.09284895658493
 21
12.900445161290321
 31
0.0
  0
LINE
  5
ED
330
17
100
AcDbEntity
  8
0
100
AcDbLine
 10
10.09284895658493
 20
12.900445161290321
 30
0.0
 11
10.09284895658493
 21
12.982067323481113
 31
0.0
  0
LINE
  5
EE
330
17
100
AcDbEntity
  8
0
100
AcDbLine
 10
10.09284895658493
 20
12.982067323481113
 30
0.0
 11
10.09284895658493
 21
14.198816091954026
 31
0.0
  0
LINE
  5
EF
330
17
100
AcDbEntity
  8
0
100
AcDbLine
 10
10.09284895658493
 20
14.198816091954026
 30
0.0
 11
10.09284895658493
 21
14.442165845648608
 31
0.0
  0
LINE
  5
F0
330
17
100
AcDbEntity
  8
0
100
AcDbLine
 10
10.09284895658493
 20
14.442165845648608
 30
0.0
 11
10.09284895658493
 21
14.508789585547293
 31
0.0
  0
LINE
  5
F1
330
17
100
AcDbEntity
  8
0
100
AcDbLine
 10
10.09284895658493
 20
14.508789585547293
 30
0.0
 11
10.09284895658493
 21
14.631
 31
0.0
  0
LINE
  5
F2
330
17
100
AcDbEntity
  8
0
100
AcDbLine
 10
12.59284895658493
 20
0.455
 30
0.0
 11
12.59284895658493
 21
0.5711616161616142
 31
0.0
  0
LINE
  5
F3
330
17
100
AcDbEntity
  8
0
100
AcDbLine
 10
12.59284895658493
 20
0.455
 30
0.0
 11
12.59284895658493
 21
0.5711616161616142
 31
0.0
  0
LINE
  5
F4
330
17
100
AcDbEntity
  8
0
100
AcDbLine
 10
12.59284895658493
 20
0.5711616161616142
 30
0.0
 11
12.59284895658493
 21
0.6603571428571393
 31
0.0
  0
LINE
  5
F5
330
17
100
AcDbEntity
  8
0
100
AcDbLine
 10
12.59284895658493
 20
0.6603571428571393
 30
0.0
 11
12.59284895658493
 21
1.677500000000001
 31
0.0
  0
LINE
  5
F6
330
17
100
AcDbEntity
  8
0
100
AcDbLine
 10
12.59284895658493
 20
1.677500000000001
 30
0.0
 11
12.59284895658493
 21
1.9158928571428593
 31
0.0
  0
LINE
  5
F7
330
17
100
AcDbEntity
  8
0
100
AcDbLine
 10
12.59284895658493
 20
1.9158928571428593
 30
0.0
 11
12.59284895658493
 21
2.1860406698564567
 31
0.0
  0
LINE
  5
F8
330
17
100
AcDbEntity
  8
0
100
AcDbLine
 10
12.59284895658493
 20
2.1860406698564567
 30
0.0
 11
12.59284895658493
 21
2.1922363636363613
 31
0.0
  0
LINE
  5
F9
330
17
100
AcDbEntity
  8
0
100
AcDbLine
 10
12.59284895658493
 20
2.1922363636363613
 30
0.0
 11
12.59284895658493
 21
2.2062094763092244
 31
0.0
  0
LINE
  5
FA
330
17
100
AcDbEntity
  8
0
100
AcDbLine
 10
12.59284895658493
 20
2.2062094763092244
 30
0.0
 11
12.59284895658493
 21
2.208003754693364
 31
0.0
  0
LINE
  5
FB
330
17
100
AcDbEntity
  8
0
100
AcDbLine
 10
12.59284895658493
 20
2.208003754693364
 30
0.0
 11
12.59284895658493
 21
3.276214017521907
 31
0.0
  0
LINE
  5
FC
330
17
100
AcDbEntity
  8
0
100
AcDbLine
 10
12.59284895658493
 20
3.276214017521907
 30
0.0
 11
12.59284895658493
 21
3.605119165839125
 31
0.0
  0
LINE
  5
FD
330
17
100
AcDbEntity
  8
0
100
AcDbLine
 10
12.59284895658493
 20
3.605119165839125
 30
0.0
 11
12.59284895658493
 21
3.8365988083416087
 31
0.0
  0
LINE
  5
FE
330
17
100
AcDbEntity
  8
0
100
AcDbLine
 10
12.59284895658493
 20
3.8365988083416087
 30
0.0
 11
12.59284895658493
 21
4.993997020854028
 31
0.0
  0
LINE
  5
FF
330
17
100
AcDbEntity
  8
0
100
AcDbLine
 10
12.59284895658493
 20
4.993997020854028
 30
0.0
 11
12.59284895658493
 21
5.194032258064518
 31
0.0
  0
LINE
  5
100
330
17
100
AcDbEntity
  8
0
100
AcDbLine
 10
12.59284895658493
 20
5.194032258064518
 30
0.0
 11
12.59284895658493
 21
5.403851612903225
 31
0.0
  0
LINE
  5
101
330
17
100
AcDbEntity
  8
0
100
AcDbLine
 10
12.59284895658493
 20
5.403851612903225
 30
0.0
 11
12.59284895658493
 21
5.659335483870967
 31
0.0
  0
LINE
  5
102
330
17
100
AcDbEntity
  8
0
100
AcDbLine
 10
12.59284895658493
 20
5.659335483870967
 30
0.0
 11
12.59284895658493
 21
5.796479642502479
 31
0.0
  0
LINE
  5
103
330
17
100
AcDbEntity
  8
0
100
AcDbLine
 10
12.59284895658493
 20
5.796479642502479
 30
0.0
 11
12.59284895658493
 21
6.953877855014899
 31
0.0
  0
LINE
  5
104
330
17
100
AcDbEntity
  8
0
100
AcDbLine
 10
12.59284895658493
 20
6.953877855014899
 30
0.0
 11
12.59284895658493
 21
7.097903225806452
 31
0.0
  0
LINE
  5
105
330
17
100
AcDbEntity
  8
0
100
AcDbLine
 10
12.59284895658493
 20
7.097903225806452
 30
0.0
 11
12.59284895658493
 21
7.353387096774195
 31
0.0
  0
LINE
  5
106
330
17
100
AcDbEntity
  8
0
100
AcDbLine
 10
12.59284895658493
 20
7.353387096774195
 30
0.0
 11
12.59284895658493
 21
7.563206451612901
 31
0.0
  0
LINE
  5
107
330
17
100
AcDbEntity
  8
0
100
AcDbLine
 10
12.59284895658493
 20
7.563206451612901
 30
0.0
 11
12.59284895658493
 21
7.756360476663351
 31
0.0
  0
LINE
  5
108
330
17
100
AcDbEntity
  8
0
100
AcDbLine
 10
12.59284895658493
 20
7.756360476663351
 30
0.0
 11
12.59284895658493
 21
8.91375868917577
 31
0.0
  0
LINE
  5
109
330
17
100
AcDbEntity
  8
0
100
AcDbLine
 10
12.59284895658493
 20
8.91375868917577
 30
0.0
 11
12.59284895658493
 21
9.145238331678254
 31
0.0
  0
LINE
  5
10A
330
17
100
AcDbEntity
  8
0
100
AcDbLine
 10
12.59284895658493
 20
9.145238331678254
 30
0.0
 11
12.59284895658493
 21
9.46893723252496
 31
0.0
  0
LINE
  5
10B
330
17
100
AcDbEntity
  8
0
100
AcDbLine
 10
12.59284895658493
 20
9.46893723252496
 30
0.0
 11
12.59284895658493
 21
9.476683599419443
 31
0.0
  0
LINE
  5
10C
330
17
100
AcDbEntity
  8
0
100
AcDbLine
 10
12.59284895658493
 20
9.476683599419443
 30
0.0
 11
12.59284895658493
 21
9.491551724137926
 31
0.0
  0
LINE
  5
10D
330
17
100
AcDbEntity
  8
0
100
AcDbLine
 10
12.59284895658493
 20
9.491551724137926
 30
0.0
 11
12.59284895658493
 21
9.49596822995461
 31
0.0
  0
LINE
  5
10E
330
17
100
AcDbEntity
  8
0
100
AcDbLine
 10
12.59284895658493
 20
9.49596822995461
 30
0.0
 11
12.59284895658493
 21
10.47403177004539
 31
0.0
  0
LINE
  5
10F
330
17
100
AcDbEntity
  8
0
100
AcDbLine
 10
12.59284895658493
 20
10.47403177004539
 30
0.0
 11
12.59284895658493
 21
10.491253644314874
 31
0.0
  0
LINE
  5
110
330
17
100
AcDbEntity
  8
0
100
AcDbLine
 10
12.59284895658493
 20
10.491253644314874
 30
0.0
 11
12.59284895658493
 21
10.505649717514128
 31
0.0
  0
LINE
  5
111
330
17
100
AcDbEntity
  8
0
100
AcDbLine
 10
12.59284895658493
 20
10.505649717514128
 30
0.0
 11
12.59284895658493
 21
10.510146853146857
 31
0.0
  0
LINE
  5
112
330
17
100
AcDbEntity
  8
0
100
AcDbLine
 10
12.59284895658493
 20
10.510146853146857
 30
0.0
 11
12.59284895658493
 21
10.527318059299194
 31
0.0
  0
LINE
  5
113
330
17
100
AcDbEntity
  8
0
100
AcDbLine
 10
12.59284895658493
 20
10.527318059299194
 30
0.0
 11
12.59284895658493
 21
10.551235595390528
 31
0.0
  0
LINE
  5
114
330
17
100
AcDbEntity
  8
0
100
AcDbLine
 10
12.59284895658493
 20
10.551235595390528
 30
0.0
 11
12.59284895658493
 21
10.554682337992379
 31
0.0
  0
LINE
  5
115
330
17
100
AcDbEntity
  8
0
100
AcDbLine
 10
12.59284895658493
 20
10.554682337992379
 30
0.0
 11
12.59284895658493
 21
10.562212500000003
 31
0.0
  0
LINE
  5
116
330
17
100
AcDbEntity
  8
0
100
AcDbLine
 10
12.59284895658493
 20
10.562212500000003
 30
0.0
 11
12.59284895658493
 21
10.87363952333664
 31
0.0
  0
LINE
  5
117
330
17
100
AcDbEntity
  8
0
100
AcDbLine
 10
12.59284895658493
 20
10.87363952333664
 30
0.0
 11
12.59284895658493
 21
11.105119165839126
 31
0.0
  0
LINE
  5
118
330
17
100
AcDbEntity
  8
0
100
AcDbLine
 10
12.59284895658493
 20
11.105119165839126
 30
0.0
 11
12.59284895658493
 21
12.262517378351545
 31
0.0
  0
LINE
  5
119
330
17
100
AcDbEntity
  8
0
100
AcDbLine
 10
12.59284895658493
 20
12.262517378351545
 30
0.0
 11
12.59284895658493
 21
12.438548387096777
 31
0.0
  0
LINE
  5
11A
330
17
100
AcDbEntity
  8
0
100
AcDbLine
 10
12.59284895658493
 20
12.438548387096777
 30
0.0
 11
12.59284895658493
 21
12.648367741935482
 31
0.0
  0
LINE
  5
11B
330
17
100
AcDbEntity
  8
0
100
AcDbLine
 10
12.59284895658493
 20
12.648367741935482
 30
0.0
 11
12.59284895658493
 21
12.903851612903225
 31
0.0
  0
LINE
  5
11C
330
17
100
AcDbEntity
  8
0
100
AcDbLine
 10
12.59284895658493
 20
12.903851612903225
 30
0.0
 11
12.59284895658493
 21
12.986565074135088
 31
0.0
  0
LINE
  5
11D
330
17
100
AcDbEntity
  8
0
100
AcDbLine
 10
12.59284895658493
 20
12.986565074135088
 30
0.0
 11
12.59284895658493
 21
14.202380560131799
 31
0.0
  0
LINE
  5
11E
330
17
100
AcDbEntity
  8
0
100
AcDbLine
 10
12.59284895658493
 20
14.202380560131799
 30
0.0
 11
12.59284895658493
 21
14.44554365733114
 31
0.0
  0
LINE
  5
11F
330
17
100
AcDbEntity
  8
0
100
AcDbLine
 10
12.59284895658493
 20
14.44554365733114
 30
0.0
 11
12.59284895658493
 21
14.513048780487807
 31
0.0
  0
LINE
  5
120
330
17
100
AcDbEntity
  8
0
100
AcDbLine
 10
12.59284895658493
 20
14.513048780487807
 30
0.0
 11
12.59284895658493
 21
14.635
 31
0.0
  0
LINE
  5
121
330
17
100
AcDbEntity
  8
0
100
AcDbLine
 10
0.45
 20
2.5922380685806274
 30
0.0
 11
0.6080246913580272
 21
2.5922380685806274
 31
0.0
  0
LINE
  5
122
330
17
100
AcDbEntity
  8
0
100
AcDbLine
 10
0.45
 20
2.5922380685806274
 30
0.0
 11
0.6080246913580272
 21
2.5922380685806274
 31
0.0
  0
LINE
  5
123
330
17
100
AcDbEntity
  8
0
100
AcDbLine
 10
0.6080246913580272
 20
2.5922380685806274
 30
0.0
 11
0.894600896860984
 21
2.5922380685806274
 31
0.0
  0
LINE
  5
124
330
17
100
AcDbEntity
  8
0
100
AcDbLine
 10
0.894600896860984
 20
2.5922380685806274
 30
0.0
 11
2.085977578475339
 21
2.5922380685806274
 31
0.0
  0
LINE
  5
125
330
17
100
AcDbEntity
  8
0
100
AcDbLine
 10
2.085977578475339
 20
2.5922380685806274
 30
0.0
 11
2.19683870967742
 21
2.5922380685806274
 31
0.0
  0
LINE
  5
126
330
17
100
AcDbEntity
  8
0
100
AcDbLine
 10
2.19683870967742
 20
2.5922380685806274
 30
0.0
 11
2.4514709677419373
 21
2.5922380685806274
 31
0.0
  0
LINE
  5
127
330
17
100
AcDbEntity
  8
0
100
AcDbLine
 10
2.4514709677419373
 20
2.5922380685806274
 30
0.0
 11
2.6612903225806437
 21
2.5922380685806274
 31
0.0
  0
LINE
  5
128
330
17
100
AcDbEntity
  8
0
100
AcDbLine
 10
2.6612903225806437
 20
2.5922380685806274
 30
0.0
 11
2.845322740814295
 21
2.5922380685806274
 31
0.0
  0
LINE
  5
129
330
17
100
AcDbEntity
  8
0
100
AcDbLine
 10
2.845322740814295
 20
2.5922380685806274
 30
0.0
 11
4.0034925521350555
 21
2.5922380685806274
 31
0.0
  0
LINE
  5
12A
330
17
100
AcDbEntity
  8
0
100
AcDbLine
 10
4.0034925521350555
 20
2.5922380685806274
 30
0.0
 11
4.234200595829198
 21
2.5922380685806274
 31
0.0
  0
LINE
  5
12B
330
17
100
AcDbEntity
  8
0
100
AcDbLine
 10
4.234200595829198
 20
2.5922380685806274
 30
0.0
 11
4.549272486772484
 21
2.5922380685806274
 31
0.0
  0
LINE
  5
12C
330
17
100
AcDbEntity
  8
0
100
AcDbLine
 10
4.549272486772484
 20
2.5922380685806274
 30
0.0
 11
4.557681940700806
 21
2.5922380685806274
 31
0.0
  0
LINE
  5
12D
330
17
100
AcDbEntity
  8
0
100
AcDbLine
 10
4.557681940700806
 20
2.5922380685806274
 30
0.0
 11
4.570443213296396
 21
2.5922380685806274
 31
0.0
  0
LINE
  5
12E
330
17
100
AcDbEntity
  8
0
100
AcDbLine
 10
4.570443213296396
 20
2.5922380685806274
 30
0.0
 11
4.598630338733428
 21
2.5922380685806274
 31
0.0
  0
LINE
  5
12F
330
17
100
AcDbEntity
  8
0
100
AcDbLine
 10
4.598630338733428
 20
2.5922380685806274
 30
0.0
 11
4.6090963855421645
 21
2.5922380685806274
 31
0.0
  0
LINE
  5
130
330
17
100
AcDbEntity
  8
0
100
AcDbLine
 10
4.6090963855421645
 20
2.5922380685806274
 30
0.0
 11
4.61131618759455
 21
2.5922380685806274
 31
0.0
  0
LINE
  5
131
330
17
100
AcDbEntity
  8
0
100
AcDbLine
 10
4.61131618759455
 20
2.5922380685806274
 30
0.0
 11
5.59003177004539
 21
2.5922380685806274
 31
0.0
  0
LINE
  5
132
330
17
100
AcDbEntity
  8
0
100
AcDbLine
 10
5.59003177004539
 20
2.5922380685806274
 30
0.0
 11
5.608982583454286
 21
2.5922380685806274
 31
0.0
  0
LINE
  5
133
330
17
100
AcDbEntity
  8
0
100
AcDbLine
 10
5.608982583454286
 20
2.5922380685806274
 30
0.0
 11
5.632420689655176
 21
2.5922380685806274
 31
0.0
  0
LINE
  5
134
330
17
100
AcDbEntity
  8
0
100
AcDbLine
 10
5.632420689655176
 20
2.5922380685806274
 30
0.0
 11
5.640634146341467
 21
2.5922380685806274
 31
0.0
  0
LINE
  5
135
330
17
100
AcDbEntity
  8
0
100
AcDbLine
 10
5.640634146341467
 20
2.5922380685806274
 30
0.0
 11
5.645080536912755
 21
2.5922380685806274
 31
0.0
  0
LINE
  5
136
330
17
100
AcDbEntity
  8
0
100
AcDbLine
 10
5.645080536912755
 20
2.5922380685806274
 30
0.0
 11
5.647101468624837
 21
2.5922380685806274
 31
0.0
  0
LINE
  5
137
330
17
100
AcDbEntity
  8
0
100
AcDbLine
 10
5.647101468624837
 20
2.5922380685806274
 30
0.0
 11
5.963373386295927
 21
2.5922380685806274
 31
0.0
  0
LINE
  5
138
330
17
100
AcDbEntity
  8
0
100
AcDbLine
 10
5.963373386295927
 20
2.5922380685806274
 30
0.0
 11
6.194081429990069
 21
2.5922380685806274
 31
0.0
  0
LINE
  5
139
330
17
100
AcDbEntity
  8
0
100
AcDbLine
 10
6.194081429990069
 20
2.5922380685806274
 30
0.0
 11
7.352251241310829
 21
2.5922380685806274
 31
0.0
  0
LINE
  5
13A
330
17
100
AcDbEntity
  8
0
100
AcDbLine
 10
7.352251241310829
 20
2.5922380685806274
 30
0.0
 11
7.537483870967744
 21
2.5922380685806274
 31
0.0
  0
LINE
  5
13B
330
17
100
AcDbEntity
  8
0
100
AcDbLine
 10
7.537483870967744
 20
2.5922380685806274
 30
0.0
 11
7.74730322580645
 21
2.5922380685806274
 31
0.0
  0
LINE
  5
13C
330
17
100
AcDbEntity
  8
0
100
AcDbLine
 10
7.74730322580645
 20
2.5922380685806274
 30
0.0
 11
8.001935483870968
 21
2.5922380685806274
 31
0.0
  0
LINE
  5
13D
330
17
100
AcDbEntity
  8
0
100
AcDbLine
 10
8.001935483870968
 20
2.5922380685806274
 30
0.0
 11
8.15396226415094
 21
2.5922380685806274
 31
0.0
  0
LINE
  5
13E
330
17
100
AcDbEntity
  8
0
100
AcDbLine
 10
8.15396226415094
 20
2.5922380685806274
 30
0.0
 11
9.3121320754717
 21
2.5922380685806274
 31
0.0
  0
LINE
  5
13F
330
17
100
AcDbEntity
  8
0
100
AcDbLine
 10
9.3121320754717
 20
2.5922380685806274
 30
0.0
 11
9.542840119165843
 21
2.5922380685806274
 31
0.0
  0
LINE
  5
140
330
17
100
AcDbEntity
  8
0
100
AcDbLine
 10
9.542840119165843
 20
2.5922380685806274
 30
0.0
 11
9.695987096774195
 21
2.5922380685806274
 31
0.0
  0
LINE
  5
141
330
17
100
AcDbEntity
  8
0
100
AcDbLine
 10
9.695987096774195
 20
2.5922380685806274
 30
0.0
 11
9.9058064516129
 21
2.5922380685806274
 31
0.0
  0
LINE
  5
142
330
17
100
AcDbEntity
  8
0
100
AcDbLine
 10
9.9058064516129
 20
2.5922380685806274
 30
0.0
 11
10.113843098311811
 21
2.5922380685806274
 31
0.0
  0
LINE
  5
143
330
17
100
AcDbEntity
  8
0
100
AcDbLine
 10
10.113843098311811
 20
2.5922380685806274
 30
0.0
 11
11.272012909632572
 21
2.5922380685806274
 31
0.0
  0
LINE
  5
144
330
17
100
AcDbEntity
  8
0
100
AcDbLine
 10
11.272012909632572
 20
2.5922380685806274
 30
0.0
 11
11.502720953326714
 21
2.5922380685806274
 31
0.0
  0
LINE
  5
145
330
17
100
AcDbEntity
  8
0
100
AcDbLine
 10
11.502720953326714
 20
2.5922380685806274
 30
0.0
 11
11.599858064516129
 21
2.5922380685806274
 31
0.0
  0
LINE
  5
146
330
17
100
AcDbEntity
  8
0
100
AcDbLine
 10
11.599858064516129
 20
2.5922380685806274
 30
0.0
 11
12.878129032258068
 21
2.5922380685806274
 31
0.0
  0
LINE
  5
147
330
17
100
AcDbEntity
  8
0
100
AcDbLine
 10
12.878129032258068
 20
2.5922380685806274
 30
0.0
 11
13.087948387096773
 21
2.5922380685806274
 31
0.0
  0
LINE
  5
148
330
17
100
AcDbEntity
  8
0
100
AcDbLine
 10
13.087948387096773
 20
2.5922380685806274
 30
0.0
 11
13.1934302430243
 21
2.5922380685806274
 31
0.0
  0
LINE
  5
149
330
17
100
AcDbEntity
  8
0
100
AcDbLine
 10
13.1934302430243
 20
2.5922380685806274
 30
0.0
 11
13.430531053105309
 21
2.5922380685806274
 31
0.0
  0
LINE
  5
14A
330
17
100
AcDbEntity
  8
0
100
AcDbLine
 10
13.430531053105309
 20
2.5922380685806274
 30
0.0
 11
14.531979297929798
 21
2.5922380685806274
 31
0.0
  0
LINE
  5
14B
330
17
100
AcDbEntity
  8
0
100
AcDbLine
 10
14.531979297929798
 20
2.5922380685806274
 30
0.0
 11
14.623364002011064
 21
2.5922380685806274
 31
0.0
  0
LINE
  5
14C
330
17
100
AcDbEntity
  8
0
100
AcDbLine
 10
14.623364002011064
 20
2.5922380685806274
 30
0.0
 11
14.739
 21
2.5922380685806274
 31
0.0
  0
LINE
  5
14D
330
17
100
AcDbEntity
  8
0
100
AcDbLine
 10
0.513
 20
5.092238068580627
 30
0.0
 11
0.6498794326241162
 21
5.092238068580627
 31
0.0
  0
LINE
  5
14E
330
17
100
AcDbEntity
  8
0
100
AcDbLine
 10
0.513
 20
5.092238068580627
 30
0.0
 11
0.6498794326241162
 21
5.092238068580627
 31
0.0
  0
LINE
  5
14F
330
17
100
AcDbEntity
  8
0
100
AcDbLine
 10
0.6498794326241162
 20
5.092238068580627
 30
0.0
 11
0.9498675721561946
 21
5.092238068580627
 31
0.0
  0
LINE
  5
150
330
17
100
AcDbEntity
  8
0
100
AcDbLine
 10
0.9498675721561946
 20
5.092238068580627
 30
0.0
 11
2.1578030560271673
 21
5.092238068580627
 31
0.0
  0
LINE
  5
151
330
17
100
AcDbEntity
  8
0
100
AcDbLine
 10
2.1578030560271673
 20
5.092238068580627
 30
0.0
 11
2.2504903225806463
 21
5.092238068580627
 31
0.0
  0
LINE
  5
152
330
17
100
AcDbEntity
  8
0
100
AcDbLine
 10
2.2504903225806463
 20
5.092238068580627
 30
0.0
 11
2.505122580645163
 21
5.092238068580627
 31
0.0
  0
LINE
  5
153
330
17
100
AcDbEntity
  8
0
100
AcDbLine
 10
2.505122580645163
 20
5.092238068580627
 30
0.0
 11
2.714941935483869
 21
5.092238068580627
 31
0.0
  0
LINE
  5
154
330
17
100
AcDbEntity
  8
0
100
AcDbLine
 10
2.714941935483869
 20
5.092238068580627
 30
0.0
 11
2.8939334657398166
 21
5.092238068580627
 31
0.0
  0
LINE
  5
155
330
17
100
AcDbEntity
  8
0
100
AcDbLine
 10
2.8939334657398166
 20
5.092238068580627
 30
0.0
 11
4.052103277060577
 21
5.092238068580627
 31
0.0
  0
LINE
  5
156
330
17
100
AcDbEntity
  8
0
100
AcDbLine
 10
4.052103277060577
 20
5.092238068580627
 30
0.0
 11
4.282811320754719
 21
5.092238068580627
 31
0.0
  0
LINE
  5
157
330
17
100
AcDbEntity
  8
0
100
AcDbLine
 10
4.282811320754719
 20
5.092238068580627
 30
0.0
 11
4.594656050955411
 21
5.092238068580627
 31
0.0
  0
LINE
  5
158
330
17
100
AcDbEntity
  8
0
100
AcDbLine
 10
4.594656050955411
 20
5.092238068580627
 30
0.0
 11
4.597058898847628
 21
5.092238068580627
 31
0.0
  0
LINE
  5
159
330
17
100
AcDbEntity
  8
0
100
AcDbLine
 10
4.597058898847628
 20
5.092238068580627
 30
0.0
 11
4.608590551181099
 21
5.092238068580627
 31
0.0
  0
LINE
  5
15A
330
17
100
AcDbEntity
  8
0
100
AcDbLine
 10
4.608590551181099
 20
5.092238068580627
 30
0.0
 11
4.6206819407008055
 21
5.092238068580627
 31
0.0
  0
LINE
  5
15B
330
17
100
AcDbEntity
  8
0
100
AcDbLine
 10
4.6206819407008055
 20
5.092238068580627
 30
0.0
 11
4.633443213296395
 21
5.092238068580627
 31
0.0
  0
LINE
  5
15C
330
17
100
AcDbEntity
  8
0
100
AcDbLine
 10
4.633443213296395
 20
5.092238068580627
 30
0.0
 11
4.661630338733428
 21
5.092238068580627
 31
0.0
  0
LINE
  5
15D
330
17
100
AcDbEntity
  8
0
100
AcDbLine
 10
4.661630338733428
 20
5.092238068580627
 30
0.0
 11
4.672096385542164
 21
5.092238068580627
 31
0.0
  0
LINE
  5
15E
330
17
100
AcDbEntity
  8
0
100
AcDbLine
 10
4.672096385542164
 20
5.092238068580627
 30
0.0
 11
4.674316187594549
 21
5.092238068580627
 31
0.0
  0
LINE
  5
15F
330
17
100
AcDbEntity
  8
0
100
AcDbLine
 10
4.674316187594549
 20
5.092238068580627
 30
0.0
 11
5.65303177004539
 21
5.092238068580627
 31
0.0
  0
LINE
  5
160
330
17
100
AcDbEntity
  8
0
100
AcDbLine
 10
5.65303177004539
 20
5.092238068580627
 30
0.0
 11
5.671982583454286
 21
5.092238068580627
 31
0.0
  0
LINE
  5
161
330
17
100
AcDbEntity
  8
0
100
AcDbLine
 10
5.671982583454286
 20
5.092238068580627
 30
0.0
 11
5.686264416315053
 21
5.092238068580627
 31
0.0
  0
LINE
  5
162
330
17
100
AcDbEntity
  8
0
100
AcDbLine
 10
5.686264416315053
 20
5.092238068580627
 30
0.0
 11
5.6907270194986115
 21
5.092238068580627
 31
0.0
  0
LINE
  5
163
330
17
100
AcDbEntity
  8
0
100
AcDbLine
 10
5.6907270194986115
 20
5.092238068580627
 30
0.0
 11
6.011984111221448
 21
5.092238068580627
 31
0.0
  0
LINE
  5
164
330
17
100
AcDbEntity
  8
0
100
AcDbLine
 10
6.011984111221448
 20
5.092238068580627
 30
0.0
 11
6.2426921549155905
 21
5.092238068580627
 31
0.0
  0
LINE
  5
165
330
17
100
AcDbEntity
  8
0
100
AcDbLine
 10
6.2426921549155905
 20
5.092238068580627
 30
0.0
 11
7.400861966236351
 21
5.092238068580627
 31
0.0
  0
LINE
  5
166
330
17
100
AcDbEntity
  8
0
100
AcDbLine
 10
7.400861966236351
 20
5.092238068580627
 30
0.0
 11
7.59113548387097
 21
5.092238068580627
 31
0.0
  0
LINE
  5
167
330
17
100
AcDbEntity
  8
0
100
AcDbLine
 10
7.59113548387097
 20
5.092238068580627
 30
0.0
 11
7.800954838709677
 21
5.092238068580627
 31
0.0
  0
LINE
  5
168
330
17
100
AcDbEntity
  8
0
100
AcDbLine
 10
7.800954838709677
 20
5.092238068580627
 30
0.0
 11
8.055587096774193
 21
5.092238068580627
 31
0.0
  0
LINE
  5
169
330
17
100
AcDbEntity
  8
0
100
AcDbLine
 10
8.055587096774193
 20
5.092238068580627
 30
0.0
 11
8.202572989076462
 21
5.092238068580627
 31
0.0
  0
LINE
  5
16A
330
17
100
AcDbEntity
  8
0
100
AcDbLine
 10
8.202572989076462
 20
5.092238068580627
 30
0.0
 11
8.249081998114983
 21
5.092238068580627
 31
0.0
  0
LINE
  5
16B
330
17
100
AcDbEntity
  8
0
100
AcDbLine
 10
8.249081998114983
 20
5.092238068580627
 30
0.0
 11
9.360742800397222
 21
5.092238068580627
 31
0.0
  0
LINE
  5
16C
330
17
100
AcDbEntity
  8
0
100
AcDbLine
 10
9.360742800397222
 20
5.092238068580627
 30
0.0
 11
9.495006451612904
 21
5.092238068580627
 31
0.0
  0
LINE
  5
16D
330
17
100
AcDbEntity
  8
0
100
AcDbLine
 10
9.495006451612904
 20
5.092238068580627
 30
0.0
 11
9.749638709677422
 21
5.092238068580627
 31
0.0
  0
LINE
  5
16E
330
17
100
AcDbEntity
  8
0
100
AcDbLine
 10
9.749638709677422
 20
5.092238068580627
 30
0.0
 11
9.959458064516127
 21
5.092238068580627
 31
0.0
  0
LINE
  5
16F
330
17
100
AcDbEntity
  8
0
100
AcDbLine
 10
9.959458064516127
 20
5.092238068580627
 30
0.0
 11
10.162453823237334
 21
5.092238068580627
 31
0.0
  0
LINE
  5
170
330
17
100
AcDbEntity
  8
0
100
AcDbLine
 10
10.162453823237334
 20
5.092238068580627
 30
0.0
 11
11.320623634558093
 21
5.092238068580627
 31
0.0
  0
LINE
  5
171
330
17
100
AcDbEntity
  8
0
100
AcDbLine
 10
11.320623634558093
 20
5.092238068580627
 30
0.0
 11
11.551331678252234
 21
5.092238068580627
 31
0.0
  0
LINE
  5
172
330
17
100
AcDbEntity
  8
0
100
AcDbLine
 10
11.551331678252234
 20
5.092238068580627
 30
0.0
 11
11.653509677419354
 21
5.092238068580627
 31
0.0
  0
LINE
  5
173
330
17
100
AcDbEntity
  8
0
100
AcDbLine
 10
11.653509677419354
 20
5.092238068580627
 30
0.0
 11
12.931780645161295
 21
5.092238068580627
 31
0.0
  0
LINE
  5
174
330
17
100
AcDbEntity
  8
0
100
AcDbLine
 10
12.931780645161295
 20
5.092238068580627
 30
0.0
 11
13.1416
 21
5.092238068580627
 31
0.0
  0
LINE
  5
175
330
17
100
AcDbEntity
  8
0
100
AcDbLine
 10
13.1416
 20
5.092238068580627
 30
0.0
 11
13.217010842368639
 21
5.092238068580627
 31
0.0
  0
LINE
  5
176
330
17
100
AcDbEntity
  8
0
100
AcDbLine
 10
13.217010842368639
 20
5.092238068580627
 30
0.0
 11
13.458654712260216
 21
5.092238068580627
 31
0.0
  0
LINE
  5
177
330
17
100
AcDbEntity
  8
0
100
AcDbLine
 10
13.458654712260216
 20
5.092238068580627
 30
0.0
 11
14.459173477898252
 21
5.092238068580627
 31
0.0
  0
LINE
  5
178
330
17
100
AcDbEntity
  8
0
100
AcDbLine
 10
14.459173477898252
 20
5.092238068580627
 30
0.0
 11
14.530011046817467
 21
5.092238068580627
 31
0.0
  0
LINE
  5
179
330
17
100
AcDbEntity
  8
0
100
AcDbLine
 10
14.530011046817467
 20
5.092238068580627
 30
0.0
 11
14.651
 21
5.092238068580627
 31
0.0
  0
LINE
  5
17A
330
17
100
AcDbEntity
  8
0
100
AcDbLine
 10
0.5760000000000001
 20
7.592238068580627
 30
0.0
 11
0.6843333333333366
 21
7.592238068580627
 31
0.0
  0
LINE
  5
17B
330
17
100
AcDbEntity
  8
0
100
AcDbLine
 10
0.5760000000000001
 20
7.592238068580627
 30
0.0
 11
0.6843333333333366
 21
7.592238068580627
 31
0.0
  0
LINE
  5
17C
330
17
100
AcDbEntity
  8
0
100
AcDbLine
 10
0.6843333333333366
 20
7.592238068580627
 30
0.0
 11
1.0059194198227213
 21
7.592238068580627
 31
0.0
  0
LINE
  5
17D
330
17
100
AcDbEntity
  8
0
100
AcDbLine
 10
1.0059194198227213
 20
7.592238068580627
 30
0.0
 11
2.228732473811445
 21
7.592238068580627
 31
0.0
  0
LINE
  5
17E
330
17
100
AcDbEntity
  8
0
100
AcDbLine
 10
2.228732473811445
 20
7.592238068580627
 30
0.0
 11
2.3041419354838726
 21
7.592238068580627
 31
0.0
  0
LINE
  5
17F
330
17
100
AcDbEntity
  8
0
100
AcDbLine
 10
2.3041419354838726
 20
7.592238068580627
 30
0.0
 11
2.5587741935483894
 21
7.592238068580627
 31
0.0
  0
LINE
  5
180
330
17
100
AcDbEntity
  8
0
100
AcDbLine
 10
2.5587741935483894
 20
7.592238068580627
 30
0.0
 11
2.7685935483870954
 21
7.592238068580627
 31
0.0
  0
LINE
  5
181
330
17
100
AcDbEntity
  8
0
100
AcDbLine
 10
2.7685935483870954
 20
7.592238068580627
 30
0.0
 11
2.942544190665338
 21
7.592238068580627
 31
0.0
  0
LINE
  5
182
330
17
100
AcDbEntity
  8
0
100
AcDbLine
 10
2.942544190665338
 20
7.592238068580627
 30
0.0
 11
4.100714001986099
 21
7.592238068580627
 31
0.0
  0
LINE
  5
183
330
17
100
AcDbEntity
  8
0
100
AcDbLine
 10
4.100714001986099
 20
7.592238068580627
 30
0.0
 11
4.331422045680241
 21
7.592238068580627
 31
0.0
  0
LINE
  5
184
330
17
100
AcDbEntity
  8
0
100
AcDbLine
 10
4.331422045680241
 20
7.592238068580627
 30
0.0
 11
4.641906288532673
 21
7.592238068580627
 31
0.0
  0
LINE
  5
185
330
17
100
AcDbEntity
  8
0
100
AcDbLine
 10
4.641906288532673
 20
7.592238068580627
 30
0.0
 11
4.656317662007621
 21
7.592238068580627
 31
0.0
  0
LINE
  5
186
330
17
100
AcDbEntity
  8
0
100
AcDbLine
 10
4.656317662007621
 20
7.592238068580627
 30
0.0
 11
4.671590551181099
 21
7.592238068580627
 31
0.0
  0
LINE
  5
187
330
17
100
AcDbEntity
  8
0
100
AcDbLine
 10
4.671590551181099
 20
7.592238068580627
 30
0.0
 11
4.683681940700805
 21
7.592238068580627
 31
0.0
  0
LINE
  5
188
330
17
100
AcDbEntity
  8
0
100
AcDbLine
 10
4.683681940700805
 20
7.592238068580627
 30
0.0
 11
4.696443213296395
 21
7.592238068580627
 31
0.0
  0
LINE
  5
189
330
17
100
AcDbEntity
  8
0
100
AcDbLine
 10
4.696443213296395
 20
7.592238068580627
 30
0.0
 11
4.724630338733427
 21
7.592238068580627
 31
0.0
  0
LINE
  5
18A
330
17
100
AcDbEntity
  8
0
100
AcDbLine
 10
4.724630338733427
 20
7.592238068580627
 30
0.0
 11
4.735096385542164
 21
7.592238068580627
 31
0.0
  0
LINE
  5
18B
330
17
100
AcDbEntity
  8
0
100
AcDbLine
 10
4.735096385542164
 20
7.592238068580627
 30
0.0
 11
4.7373161875945495
 21
7.592238068580627
 31
0.0
  0
LINE
  5
18C
330
17
100
AcDbEntity
  8
0
100
AcDbLine
 10
4.7373161875945495
 20
7.592238068580627
 30
0.0
 11
5.71603177004539
 21
7.592238068580627
 31
0.0
  0
LINE
  5
18D
330
17
100
AcDbEntity
  8
0
100
AcDbLine
 10
5.71603177004539
 20
7.592238068580627
 30
0.0
 11
5.725533333333338
 21
7.592238068580627
 31
0.0
  0
LINE
  5
18E
330
17
100
AcDbEntity
  8
0
100
AcDbLine
 10
5.725533333333338
 20
7.592238068580627
 30
0.0
 11
5.730137829912028
 21
7.592238068580627
 31
0.0
  0
LINE
  5
18F
330
17
100
AcDbEntity
  8
0
100
AcDbLine
 10
5.730137829912028
 20
7.592238068580627
 30
0.0
 11
5.7332736535662345
 21
7.592238068580627
 31
0.0
  0
LINE
  5
190
330
17
100
AcDbEntity
  8
0
100
AcDbLine
 10
5.7332736535662345
 20
7.592238068580627
 30
0.0
 11
6.06059483614697
 21
7.592238068580627
 31
0.0
  0
LINE
  5
191
330
17
100
AcDbEntity
  8
0
100
AcDbLine
 10
6.06059483614697
 20
7.592238068580627
 30
0.0
 11
6.291302879841112
 21
7.592238068580627
 31
0.0
  0
LINE
  5
192
330
17
100
AcDbEntity
  8
0
100
AcDbLine
 10
6.291302879841112
 20
7.592238068580627
 30
0.0
 11
7.449472691161873
 21
7.592238068580627
 31
0.0
  0
LINE
  5
193
330
17
100
AcDbEntity
  8
0
100
AcDbLine
 10
7.449472691161873
 20
7.592238068580627
 30
0.0
 11
7.644787096774196
 21
7.592238068580627
 31
0.0
  0
LINE
  5
194
330
17
100
AcDbEntity
  8
0
100
AcDbLine
 10
7.644787096774196
 20
7.592238068580627
 30
0.0
 11
7.854606451612902
 21
7.592238068580627
 31
0.0
  0
LINE
  5
195
330
17
100
AcDbEntity
  8
0
100
AcDbLine
 10
7.854606451612902
 20
7.592238068580627
 30
0.0
 11
8.109238709677419
 21
7.592238068580627
 31
0.0
  0
LINE
  5
196
330
17
100
AcDbEntity
  8
0
100
AcDbLine
 10
8.109238709677419
 20
7.592238068580627
 30
0.0
 11
8.251183714001984
 21
7.592238068580627
 31
0.0
  0
LINE
  5
197
330
17
100
AcDbEntity
  8
0
100
AcDbLine
 10
8.251183714001984
 20
7.592238068580627
 30
0.0
 11
9.409353525322743
 21
7.592238068580627
 31
0.0
  0
LINE
  5
198
330
17
100
AcDbEntity
  8
0
100
AcDbLine
 10
9.409353525322743
 20
7.592238068580627
 30
0.0
 11
9.548658064516129
 21
7.592238068580627
 31
0.0
  0
LINE
  5
199
330
17
100
AcDbEntity
  8
0
100
AcDbLine
 10
9.548658064516129
 20
7.592238068580627
 30
0.0
 11
9.803290322580645
 21
7.592238068580627
 31
0.0
  0
LINE
  5
19A
330
17
100
AcDbEntity
  8
0
100
AcDbLine
 10
9.803290322580645
 20
7.592238068580627
 30
0.0
 11
10.013109677419353
 21
7.592238068580627
 31
0.0
  0
LINE
  5
19B
330
17
100
AcDbEntity
  8
0
100
AcDbLine
 10
10.013109677419353
 20
7.592238068580627
 30
0.0
 11
10.211064548162854
 21
7.592238068580627
 31
0.0
  0
LINE
  5
19C
330
17
100
AcDbEntity
  8
0
100
AcDbLine
 10
10.211064548162854
 20
7.592238068580627
 30
0.0
 11
11.369234359483615
 21
7.592238068580627
 31
0.0
  0
LINE
  5
19D
330
17
100
AcDbEntity
  8
0
100
AcDbLine
 10
11.369234359483615
 20
7.592238068580627
 30
0.0
 11
11.599942403177756
 21
7.592238068580627
 31
0.0
  0
LINE
  5
19E
330
17
100
AcDbEntity
  8
0
100
AcDbLine
 10
11.599942403177756
 20
7.592238068580627
 30
0.0
 11
11.931059701492533
 21
7.592238068580627
 31
0.0
  0
LINE
  5
19F
330
17
100
AcDbEntity
  8
0
100
AcDbLine
 10
11.931059701492533
 20
7.592238068580627
 30
0.0
 11
11.935096385542165
 21
7.592238068580627
 31
0.0
  0
LINE
  5
1A0
330
17
100
AcDbEntity
  8
0
100
AcDbLine
 10
11.935096385542165
 20
7.592238068580627
 30
0.0
 11
11.937316187594549
 21
7.592238068580627
 31
0.0
  0
LINE
  5
1A1
330
17
100
AcDbEntity
  8
0
100
AcDbLine
 10
11.937316187594549
 20
7.592238068580627
 30
0.0
 11
12.91603177004539
 21
7.592238068580627
 31
0.0
  0
LINE
  5
1A2
330
17
100
AcDbEntity
  8
0
100
AcDbLine
 10
12.91603177004539
 20
7.592238068580627
 30
0.0
 11
12.934982583454286
 21
7.592238068580627
 31
0.0
  0
LINE
  5
1A3
330
17
100
AcDbEntity
  8
0
100
AcDbLine
 10
12.934982583454286
 20
7.592238068580627
 30
0.0
 11
12.958420689655176
 21
7.592238068580627
 31
0.0
  0
LINE
  5
1A4
330
17
100
AcDbEntity
  8
0
100
AcDbLine
 10
12.958420689655176
 20
7.592238068580627
 30
0.0
 11
12.966634146341466
 21
7.592238068580627
 31
0.0
  0
LINE
  5
1A5
330
17
100
AcDbEntity
  8
0
100
AcDbLine
 10
12.966634146341466
 20
7.592238068580627
 30
0.0
 11
12.971080536912755
 21
7.592238068580627
 31
0.0
  0
LINE
  5
1A6
330
17
100
AcDbEntity
  8
0
100
AcDbLine
 10
12.971080536912755
 20
7.592238068580627
 30
0.0
 11
12.979163588390504
 21
7.592238068580627
 31
0.0
  0
LINE
  5
1A7
330
17
100
AcDbEntity
  8
0
100
AcDbLine
 10
12.979163588390504
 20
7.592238068580627
 30
0.0
 11
12.98697405966278
 21
7.592238068580627
 31
0.0
  0
LINE
  5
1A8
330
17
100
AcDbEntity
  8
0
100
AcDbLine
 10
12.98697405966278
 20
7.592238068580627
 30
0.0
 11
12.994818877551024
 21
7.592238068580627
 31
0.0
  0
LINE
  5
1A9
330
17
100
AcDbEntity
  8
0
100
AcDbLine
 10
12.994818877551024
 20
7.592238068580627
 30
0.0
 11
13.005503740648383
 21
7.592238068580627
 31
0.0
  0
LINE
  5
1AA
330
17
100
AcDbEntity
  8
0
100
AcDbLine
 10
13.005503740648383
 20
7.592238068580627
 30
0.0
 11
13.012835380835384
 21
7.592238068580627
 31
0.0
  0
LINE
  5
1AB
330
17
100
AcDbEntity
  8
0
100
AcDbLine
 10
13.012835380835384
 20
7.592238068580627
 30
0.0
 11
13.019206060606063
 21
7.592238068580627
 31
0.0
  0
LINE
  5
1AC
330
17
100
AcDbEntity
  8
0
100
AcDbLine
 10
13.019206060606063
 20
7.592238068580627
 30
0.0
 11
13.261370915032678
 21
7.592238068580627
 31
0.0
  0
LINE
  5
1AD
330
17
100
AcDbEntity
  8
0
100
AcDbLine
 10
13.261370915032678
 20
7.592238068580627
 30
0.0
 11
13.504186274509804
 21
7.592238068580627
 31
0.0
  0
LINE
  5
1AE
330
17
100
AcDbEntity
  8
0
100
AcDbLine
 10
13.504186274509804
 20
7.592238068580627
 30
0.0
 11
14.438091503267977
 21
7.592238068580627
 31
0.0
  0
LINE
  5
1AF
330
17
100
AcDbEntity
  8
0
100
AcDbLine
 10
14.438091503267977
 20
7.592238068580627
 30
0.0
 11
14.503398720682304
 21
7.592238068580627
 31
0.0
  0
LINE
  5
1B0
330
17
100
AcDbEntity
  8
0
100
AcDbLine
 10
14.503398720682304
 20
7.592238068580627
 30
0.0
 11
14.626
 21
7.592238068580627
 31
0.0
  0
LINE
  5
1B1
330
17
100
AcDbEntity
  8
0
100
AcDbLine
 10
0.514
 20
10.092238068580627
 30
0.0
 11
0.6336670135275734
 21
10.092238068580627
 31
0.0
  0
LINE
  5
1B2
330
17
100
AcDbEntity
  8
0
100
AcDbLine
 10
0.514
 20
10.092238068580627
 30
0.0
 11
0.6336670135275734
 21
10.092238068580627
 31
0.0
  0
LINE
  5
1B3
330
17
100
AcDbEntity
  8
0
100
AcDbLine
 10
0.6336670135275734
 20
10.092238068580627
 30
0.0
 11
0.7092461799660408
 21
10.092238068580627
 31
0.0
  0
LINE
  5
1B4
330
17
100
AcDbEntity
  8
0
100
AcDbLine
 10
0.7092461799660408
 20
10.092238068580627
 30
0.0
 11
0.9506723259762285
 21
10.092238068580627
 31
0.0
  0
LINE
  5
1B5
330
17
100
AcDbEntity
  8
0
100
AcDbLine
 10
0.9506723259762285
 20
10.092238068580627
 30
0.0
 11
2.1578030560271673
 21
10.092238068580627
 31
0.0
  0
LINE
  5
1B6
330
17
100
AcDbEntity
  8
0
100
AcDbLine
 10
2.1578030560271673
 20
10.092238068580627
 30
0.0
 11
2.2504903225806463
 21
10.092238068580627
 31
0.0
  0
LINE
  5
1B7
330
17
100
AcDbEntity
  8
0
100
AcDbLine
 10
2.2504903225806463
 20
10.092238068580627
 30
0.0
 11
2.505974193548389
 21
10.092238068580627
 31
0.0
  0
LINE
  5
1B8
330
17
100
AcDbEntity
  8
0
100
AcDbLine
 10
2.505974193548389
 20
10.092238068580627
 30
0.0
 11
2.715793548387095
 21
10.092238068580627
 31
0.0
  0
LINE
  5
1B9
330
17
100
AcDbEntity
  8
0
100
AcDbLine
 10
2.715793548387095
 20
10.092238068580627
 30
0.0
 11
2.894705064548158
 21
10.092238068580627
 31
0.0
  0
LINE
  5
1BA
330
17
100
AcDbEntity
  8
0
100
AcDbLine
 10
2.894705064548158
 20
10.092238068580627
 30
0.0
 11
4.052103277060577
 21
10.092238068580627
 31
0.0
  0
LINE
  5
1BB
330
17
100
AcDbEntity
  8
0
100
AcDbLine
 10
4.052103277060577
 20
10.092238068580627
 30
0.0
 11
4.28358291956306
 21
10.092238068580627
 31
0.0
  0
LINE
  5
1BC
330
17
100
AcDbEntity
  8
0
100
AcDbLine
 10
4.28358291956306
 20
10.092238068580627
 30
0.0
 11
4.5956560509554105
 21
10.092238068580627
 31
0.0
  0
LINE
  5
1BD
330
17
100
AcDbEntity
  8
0
100
AcDbLine
 10
4.5956560509554105
 20
10.092238068580627
 30
0.0
 11
4.597764404609472
 21
10.092238068580627
 31
0.0
  0
LINE
  5
1BE
330
17
100
AcDbEntity
  8
0
100
AcDbLine
 10
4.597764404609472
 20
10.092238068580627
 30
0.0
 11
4.621681940700805
 21
10.092238068580627
 31
0.0
  0
LINE
  5
1BF
330
17
100
AcDbEntity
  8
0
100
AcDbLine
 10
4.621681940700805
 20
10.092238068580627
 30
0.0
 11
4.638853146853143
 21
10.092238068580627
 31
0.0
  0
LINE
  5
1C0
330
17
100
AcDbEntity
  8
0
100
AcDbLine
 10
4.638853146853143
 20
10.092238068580627
 30
0.0
 11
4.643350282485872
 21
10.092238068580627
 31
0.0
  0
LINE
  5
1C1
330
17
100
AcDbEntity
  8
0
100
AcDbLine
 10
4.643350282485872
 20
10.092238068580627
 30
0.0
 11
4.657746355685127
 21
10.092238068580627
 31
0.0
  0
LINE
  5
1C2
330
17
100
AcDbEntity
  8
0
100
AcDbLine
 10
4.657746355685127
 20
10.092238068580627
 30
0.0
 11
4.67496822995461
 21
10.092238068580627
 31
0.0
  0
LINE
  5
1C3
330
17
100
AcDbEntity
  8
0
100
AcDbLine
 10
4.67496822995461
 20
10.092238068580627
 30
0.0
 11
5.65303177004539
 21
10.092238068580627
 31
0.0
  0
LINE
  5
1C4
330
17
100
AcDbEntity
  8
0
100
AcDbLine
 10
5.65303177004539
 20
10.092238068580627
 30
0.0
 11
5.657448275862073
 21
10.092238068580627
 31
0.0
  0
LINE
  5
1C5
330
17
100
AcDbEntity
  8
0
100
AcDbLine
 10
5.657448275862073
 20
10.092238068580627
 30
0.0
 11
5.672316400580556
 21
10.092238068580627
 31
0.0
  0
LINE
  5
1C6
330
17
100
AcDbEntity
  8
0
100
AcDbLine
 10
5.672316400580556
 20
10.092238068580627
 30
0.0
 11
5.68658790436006
 21
10.092238068580627
 31
0.0
  0
LINE
  5
1C7
330
17
100
AcDbEntity
  8
0
100
AcDbLine
 10
5.68658790436006
 20
10.092238068580627
 30
0.0
 11
5.69104735376045
 21
10.092238068580627
 31
0.0
  0
LINE
  5
1C8
330
17
100
AcDbEntity
  8
0
100
AcDbLine
 10
5.69104735376045
 20
10.092238068580627
 30
0.0
 11
6.011984111221448
 21
10.092238068580627
 31
0.0
  0
LINE
  5
1C9
330
17
100
AcDbEntity
  8
0
100
AcDbLine
 10
6.011984111221448
 20
10.092238068580627
 30
0.0
 11
6.243463753723932
 21
10.092238068580627
 31
0.0
  0
LINE
  5
1CA
330
17
100
AcDbEntity
  8
0
100
AcDbLine
 10
6.243463753723932
 20
10.092238068580627
 30
0.0
 11
7.400861966236351
 21
10.092238068580627
 31
0.0
  0
LINE
  5
1CB
330
17
100
AcDbEntity
  8
0
100
AcDbLine
 10
7.400861966236351
 20
10.092238068580627
 30
0.0
 11
7.59113548387097
 21
10.092238068580627
 31
0.0
  0
LINE
  5
1CC
330
17
100
AcDbEntity
  8
0
100
AcDbLine
 10
7.59113548387097
 20
10.092238068580627
 30
0.0
 11
7.800954838709677
 21
10.092238068580627
 31
0.0
  0
LINE
  5
1CD
330
17
100
AcDbEntity
  8
0
100
AcDbLine
 10
7.800954838709677
 20
10.092238068580627
 30
0.0
 11
8.056438709677417
 21
10.092238068580627
 31
0.0
  0
LINE
  5
1CE
330
17
100
AcDbEntity
  8
0
100
AcDbLine
 10
8.056438709677417
 20
10.092238068580627
 30
0.0
 11
8.203344587884803
 21
10.092238068580627
 31
0.0
  0
LINE
  5
1CF
330
17
100
AcDbEntity
  8
0
100
AcDbLine
 10
8.203344587884803
 20
10.092238068580627
 30
0.0
 11
9.360742800397222
 21
10.092238068580627
 31
0.0
  0
LINE
  5
1D0
330
17
100
AcDbEntity
  8
0
100
AcDbLine
 10
9.360742800397222
 20
10.092238068580627
 30
0.0
 11
9.495006451612904
 21
10.092238068580627
 31
0.0
  0
LINE
  5
1D1
330
17
100
AcDbEntity
  8
0
100
AcDbLine
 10
9.495006451612904
 20
10.092238068580627
 30
0.0
 11
9.750490322580646
 21
10.092238068580627
 31
0.0
  0
LINE
  5
1D2
330
17
100
AcDbEntity
  8
0
100
AcDbLine
 10
9.750490322580646
 20
10.092238068580627
 30
0.0
 11
9.960309677419353
 21
10.092238068580627
 31
0.0
  0
LINE
  5
1D3
330
17
100
AcDbEntity
  8
0
100
AcDbLine
 10
9.960309677419353
 20
10.092238068580627
 30
0.0
 11
10.163225422045674
 21
10.092238068580627
 31
0.0
  0
LINE
  5
1D4
330
17
100
AcDbEntity
  8
0
100
AcDbLine
 10
10.163225422045674
 20
10.092238068580627
 30
0.0
 11
11.320623634558093
 21
10.092238068580627
 31
0.0
  0
LINE
  5
1D5
330
17
100
AcDbEntity
  8
0
100
AcDbLine
 10
11.320623634558093
 20
10.092238068580627
 30
0.0
 11
11.552103277060578
 21
10.092238068580627
 31
0.0
  0
LINE
  5
1D6
330
17
100
AcDbEntity
  8
0
100
AcDbLine
 10
11.552103277060578
 20
10.092238068580627
 30
0.0
 11
11.65436129032258
 21
10.092238068580627
 31
0.0
  0
LINE
  5
1D7
330
17
100
AcDbEntity
  8
0
100
AcDbLine
 10
11.65436129032258
 20
10.092238068580627
 30
0.0
 11
12.931780645161295
 21
10.092238068580627
 31
0.0
  0
LINE
  5
1D8
330
17
100
AcDbEntity
  8
0
100
AcDbLine
 10
12.931780645161295
 20
10.092238068580627
 30
0.0
 11
13.1416
 21
10.092238068580627
 31
0.0
  0
LINE
  5
1D9
330
17
100
AcDbEntity
  8
0
100
AcDbLine
 10
13.1416
 20
10.092238068580627
 30
0.0
 11
13.210209150326797
 21
10.092238068580627
 31
0.0
  0
LINE
  5
1DA
330
17
100
AcDbEntity
  8
0
100
AcDbLine
 10
13.210209150326797
 20
10.092238068580627
 30
0.0
 11
13.453836601307188
 21
10.092238068580627
 31
0.0
  0
LINE
  5
1DB
330
17
100
AcDbEntity
  8
0
100
AcDbLine
 10
13.453836601307188
 20
10.092238068580627
 30
0.0
 11
14.155382978723392
 21
10.092238068580627
 31
0.0
  0
LINE
  5
1DC
330
17
100
AcDbEntity
  8
0
100
AcDbLine
 10
14.155382978723392
 20
10.092238068580627
 30
0.0
 11
14.626
 21
10.092238068580627
 31
0.0
  0
LINE
  5
1DD
330
17
100
AcDbEntity
  8
0
100
AcDbLine
 10
0.438
 20
12.592238068580627
 30
0.0
 11
0.5531151151151131
 21
12.592238068580627
 31
0.0
  0
LINE
  5
1DE
330
17
100
AcDbEntity
  8
0
100
AcDbLine
 10
0.438
 20
12.592238068580627
 30
0.0
 11
0.5531151151151131
 21
12.592238068580627
 31
0.0
  0
LINE
  5
1DF
330
17
100
AcDbEntity
  8
0
100
AcDbLine
 10
0.5531151151151131
 20
12.592238068580627
 30
0.0
 11
0.6467114337568021
 21
12.592238068580627
 31
0.0
  0
LINE
  5
1E0
330
17
100
AcDbEntity
  8
0
100
AcDbLine
 10
0.6467114337568021
 20
12.592238068580627
 30
0.0
 11
0.8840980036297615
 21
12.592238068580627
 31
0.0
  0
LINE
  5
1E1
330
17
100
AcDbEntity
  8
0
100
AcDbLine
 10
0.8840980036297615
 20
12.592238068580627
 30
0.0
 11
2.071030852994558
 21
12.592238068580627
 31
0.0
  0
LINE
  5
1E2
330
17
100
AcDbEntity
  8
0
100
AcDbLine
 10
2.071030852994558
 20
12.592238068580627
 30
0.0
 11
2.185767741935485
 21
12.592238068580627
 31
0.0
  0
LINE
  5
1E3
330
17
100
AcDbEntity
  8
0
100
AcDbLine
 10
2.185767741935485
 20
12.592238068580627
 30
0.0
 11
2.4412516129032276
 21
12.592238068580627
 31
0.0
  0
LINE
  5
1E4
330
17
100
AcDbEntity
  8
0
100
AcDbLine
 10
2.4412516129032276
 20
12.592238068580627
 30
0.0
 11
2.651070967741934
 21
12.592238068580627
 31
0.0
  0
LINE
  5
1E5
330
17
100
AcDbEntity
  8
0
100
AcDbLine
 10
2.651070967741934
 20
12.592238068580627
 30
0.0
 11
2.8360635551141957
 21
12.592238068580627
 31
0.0
  0
LINE
  5
1E6
330
17
100
AcDbEntity
  8
0
100
AcDbLine
 10
2.8360635551141957
 20
12.592238068580627
 30
0.0
 11
3.9934617676266146
 21
12.592238068580627
 31
0.0
  0
LINE
  5
1E7
330
17
100
AcDbEntity
  8
0
100
AcDbLine
 10
3.9934617676266146
 20
12.592238068580627
 30
0.0
 11
4.224941410129098
 21
12.592238068580627
 31
0.0
  0
LINE
  5
1E8
330
17
100
AcDbEntity
  8
0
100
AcDbLine
 10
4.224941410129098
 20
12.592238068580627
 30
0.0
 11
4.540706666666663
 21
12.592238068580627
 31
0.0
  0
LINE
  5
1E9
330
17
100
AcDbEntity
  8
0
100
AcDbLine
 10
4.540706666666663
 20
12.592238068580627
 30
0.0
 11
4.545681940700805
 21
12.592238068580627
 31
0.0
  0
LINE
  5
1EA
330
17
100
AcDbEntity
  8
0
100
AcDbLine
 10
4.545681940700805
 20
12.592238068580627
 30
0.0
 11
4.553802469135799
 21
12.592238068580627
 31
0.0
  0
LINE
  5
1EB
330
17
100
AcDbEntity
  8
0
100
AcDbLine
 10
4.553802469135799
 20
12.592238068580627
 30
0.0
 11
4.567350282485872
 21
12.592238068580627
 31
0.0
  0
LINE
  5
1EC
330
17
100
AcDbEntity
  8
0
100
AcDbLine
 10
4.567350282485872
 20
12.592238068580627
 30
0.0
 11
4.5817463556851274
 21
12.592238068580627
 31
0.0
  0
LINE
  5
1ED
330
17
100
AcDbEntity
  8
0
100
AcDbLine
 10
4.5817463556851274
 20
12.592238068580627
 30
0.0
 11
4.5912738095238055
 21
12.592238068580627
 31
0.0
  0
LINE
  5
1EE
330
17
100
AcDbEntity
  8
0
100
AcDbLine
 10
4.5912738095238055
 20
12.592238068580627
 30
0.0
 11
4.596749999999996
 21
12.592238068580627
 31
0.0
  0
LINE
  5
1EF
330
17
100
AcDbEntity
  8
0
100
AcDbLine
 10
4.596749999999996
 20
12.592238068580627
 30
0.0
 11
4.59896822995461
 21
12.592238068580627
 31
0.0
  0
LINE
  5
1F0
330
17
100
AcDbEntity
  8
0
100
AcDbLine
 10
4.59896822995461
 20
12.592238068580627
 30
0.0
 11
5.57703177004539
 21
12.592238068580627
 31
0.0
  0
LINE
  5
1F1
330
17
100
AcDbEntity
  8
0
100
AcDbLine
 10
5.57703177004539
 20
12.592238068580627
 30
0.0
 11
5.591475073313787
 21
12.592238068580627
 31
0.0
  0
LINE
  5
1F2
330
17
100
AcDbEntity
  8
0
100
AcDbLine
 10
5.591475073313787
 20
12.592238068580627
 30
0.0
 11
5.61504735376045
 21
12.592238068580627
 31
0.0
  0
LINE
  5
1F3
330
17
100
AcDbEntity
  8
0
100
AcDbLine
 10
5.61504735376045
 20
12.592238068580627
 30
0.0
 11
5.632080536912755
 21
12.592238068580627
 31
0.0
  0
LINE
  5
1F4
330
17
100
AcDbEntity
  8
0
100
AcDbLine
 10
5.632080536912755
 20
12.592238068580627
 30
0.0
 11
5.6361382978723435
 21
12.592238068580627
 31
0.0
  0
LINE
  5
1F5
330
17
100
AcDbEntity
  8
0
100
AcDbLine
 10
5.6361382978723435
 20
12.592238068580627
 30
0.0
 11
5.637854304635765
 21
12.592238068580627
 31
0.0
  0
LINE
  5
1F6
330
17
100
AcDbEntity
  8
0
100
AcDbLine
 10
5.637854304635765
 20
12.592238068580627
 30
0.0
 11
5.953342601787486
 21
12.592238068580627
 31
0.0
  0
LINE
  5
1F7
330
17
100
AcDbEntity
  8
0
100
AcDbLine
 10
5.953342601787486
 20
12.592238068580627
 30
0.0
 11
6.184822244289969
 21
12.592238068580627
 31
0.0
  0
LINE
  5
1F8
330
17
100
AcDbEntity
  8
0
100
AcDbLine
 10
6.184822244289969
 20
12.592238068580627
 30
0.0
 11
7.342220456802388
 21
12.592238068580627
 31
0.0
  0
LINE
  5
1F9
330
17
100
AcDbEntity
  8
0
100
AcDbLine
 10
7.342220456802388
 20
12.592238068580627
 30
0.0
 11
7.5264129032258085
 21
12.592238068580627
 31
0.0
  0
LINE
  5
1FA
330
17
100
AcDbEntity
  8
0
100
AcDbLine
 10
7.5264129032258085
 20
12.592238068580627
 30
0.0
 11
7.736232258064515
 21
12.592238068580627
 31
0.0
  0
LINE
  5
1FB
330
17
100
AcDbEntity
  8
0
100
AcDbLine
 10
7.736232258064515
 20
12.592238068580627
 30
0.0
 11
7.991716129032257
 21
12.592238068580627
 31
0.0
  0
LINE
  5
1FC
330
17
100
AcDbEntity
  8
0
100
AcDbLine
 10
7.991716129032257
 20
12.592238068580627
 30
0.0
 11
8.14470307845084
 21
12.592238068580627
 31
0.0
  0
LINE
  5
1FD
330
17
100
AcDbEntity
  8
0
100
AcDbLine
 10
8.14470307845084
 20
12.592238068580627
 30
0.0
 11
9.30210129096326
 21
12.592238068580627
 31
0.0
  0
LINE
  5
1FE
330
17
100
AcDbEntity
  8
0
100
AcDbLine
 10
9.30210129096326
 20
12.592238068580627
 30
0.0
 11
9.533580933465743
 21
12.592238068580627
 31
0.0
  0
LINE
  5
1FF
330
17
100
AcDbEntity
  8
0
100
AcDbLine
 10
9.533580933465743
 20
12.592238068580627
 30
0.0
 11
9.685767741935484
 21
12.592238068580627
 31
0.0
  0
LINE
  5
200
330
17
100
AcDbEntity
  8
0
100
AcDbLine
 10
9.685767741935484
 20
12.592238068580627
 30
0.0
 11
9.895587096774191
 21
12.592238068580627
 31
0.0
  0
LINE
  5
201
330
17
100
AcDbEntity
  8
0
100
AcDbLine
 10
9.895587096774191
 20
12.592238068580627
 30
0.0
 11
10.10458391261171
 21
12.592238068580627
 31
0.0
  0
LINE
  5
202
330
17
100
AcDbEntity
  8
0
100
AcDbLine
 10
10.10458391261171
 20
12.592238068580627
 30
0.0
 11
11.261982125124131
 21
12.592238068580627
 31
0.0
  0
LINE
  5
203
330
17
100
AcDbEntity
  8
0
100
AcDbLine
 10
11.261982125124131
 20
12.592238068580627
 30
0.0
 11
11.493461767626615
 21
12.592238068580627
 31
0.0
  0
LINE
  5
204
330
17
100
AcDbEntity
  8
0
100
AcDbLine
 10
11.493461767626615
 20
12.592238068580627
 30
0.0
 11
11.589638709677418
 21
12.592238068580627
 31
0.0
  0
LINE
  5
205
330
17
100
AcDbEntity
  8
0
100
AcDbLine
 10
11.589638709677418
 20
12.592238068580627
 30
0.0
 11
12.867058064516133
 21
12.592238068580627
 31
0.0
  0
LINE
  5
206
330
17
100
AcDbEntity
  8
0
100
AcDbLine
 10
12.867058064516133
 20
12.592238068580627
 30
0.0
 11
13.076877419354838
 21
12.592238068580627
 31
0.0
  0
LINE
  5
207
330
17
100
AcDbEntity
  8
0
100
AcDbLine
 10
13.076877419354838
 20
12.592238068580627
 30
0.0
 11
13.148490196078429
 21
12.592238068580627
 31
0.0
  0
LINE
  5
208
330
17
100
AcDbEntity
  8
0
100
AcDbLine
 10
13.148490196078429
 20
12.592238068580627
 30
0.0
 11
13.392117647058823
 21
12.592238068580627
 31
0.0
  0
LINE
  5
209
330
17
100
AcDbEntity
  8
0
100
AcDbLine
 10
13.392117647058823
 20
12.592238068580627
 30
0.0
 11
14.438091503267977
 21
12.592238068580627
 31
0.0
  0
LINE
  5
20A
330
17
100
AcDbEntity
  8
0
100
AcDbLine
 10
14.438091503267977
 20
12.592238068580627
 30
0.0
 11
14.503398720682304
 21
12.592238068580627
 31
0.0
  0
LINE
  5
20B
330
17
100
AcDbEntity
  8
0
100
AcDbLine
 10
14.503398720682304
 20
12.592238068580627
 30
0.0
 11
14.626
 21
12.592238068580627
 31
0.0
  0
ENDSEC
  0
SECTION
  2
OBJECTS
  0
DICTIONARY
  5
A
330
0
100
AcDbDictionary
281
1
  3
ACAD_COLOR
350
B
  3
ACAD_GROUP
350
C
  3
ACAD_LAYOUT
350
D
  3
ACAD_MATERIAL
350
E
  3
ACAD_MLEADERSTYLE
350
F
  3
ACAD_MLINESTYLE
350
10
  3
ACAD_PLOTSETTINGS
350
11
  3
ACAD_PLOTSTYLENAME
350
12
  3
ACAD_SCALELIST
350
14
  3
ACAD_TABLESTYLE
350
15
  3
ACAD_VISUALSTYLE
350
16
  3
EZDXF_META
350
2D
  0
DICTIONARY
  5
B
330
A
100
AcDbDictionary
281
1
  0
DICTIONARY
  5
C
330
A
100
AcDbDictionary
281
1
  0
DICTIONARY
  5
D
330
A
100
AcDbDictionary
281
1
  3
Model
350
1A
  3
Layout1
350
1E
  0
DICTIONARY
  5
E
330
A
100
AcDbDictionary
281
1
  3
ByBlock
350
1F
  3
ByLayer
350
20
  3
Global
350
21
  0
DICTIONARY
  5
F
330
A
100
AcDbDictionary
281
1
  3
Standard
350
2C
  0
DICTIONARY
  5
10
330
A
100
AcDbDictionary
281
1
  3
Standard
350
22
  0
DICTIONARY
  5
11
330
A
100
AcDbDictionary
281
1
  0
ACDBDICTIONARYWDFLT
  5
12
330
A
100
AcDbDictionary
281
1
  3
Normal
350
13
100
AcDbDictionaryWithDefault
340
13
  0
ACDBPLACEHOLDER
  5
13
330
12
  0
DICTIONARY
  5
14
330
A
100
AcDbDictionary
281
1
  0
DICTIONARY
  5
15
330
A
100
AcDbDictionary
281
1
  0
DICTIONARY
  5
16
330
A
100
AcDbDictionary
281
1
  0
LAYOUT
  5
1A
330
D
100
AcDbPlotSettings
  1

  4
A3
  6

 40
7.5
 41
20.0
 42
7.5
 43
20.0
 44
420.0
 45
297.0
 46
0.0
 47
0.0
 48
0.0
 49
0.0
140
0.0
141
0.0
142
1.0
143
1.0
 70
1024
 72
1
 73
0
 74
5
  7

 75
16
 76
0
 77
2
 78
300
147
1.0
148
0.0
149
0.0
100
AcDbLayout
  1
Model
 70
1
 71
0
 10
0.0
 20
0.0
 11
420.0
 21
297.0
 12
0.0
 22
0.0
 32
0.0
 14
1e+20
 24
1e+20
 34
1e+20
 15
-1e+20
 25
-1e+20
 35
-1e+20
146
0.0
 13
0.0
 23
0.0
 33
0.0
 16
1.0
 26
0.0
 36
0.0
 17
0.0
 27
1.0
 37
0.0
 76
1
330
17
  0
LAYOUT
  5
1E
330
D
100
AcDbPlotSettings
  1

  4
A3
  6

 40
7.5
 41
20.0
 42
7.5
 43
20.0
 44
420.0
 45
297.0
 46
0.0
 47
0.0
 48
0.0
 49
0.0
140
0.0
141
0.0
142
1.0
143
1.0
 70
0
 72
1
 73
0
 74
5
  7

 75
16
 76
0
 77
2
 78
300
147
1.0
148
0.0
149
0.0
100
AcDbLayout
  1
Layout1
 70
1
 71
1
 10
0.0
 20
0.0
 11
420.0
 21
297.0
 12
0.0
 22
0.0
 32
0.0
 14
1e+20
 24
1e+20
 34
1e+20
 15
-1e+20
 25
-1e+20
 35
-1e+20
146
0.0
 13
0.0
 23
0.0
 33
0.0
 16
1.0
 26
0.0
 36
0.0
 17
0.0
 27
1.0
 37
0.0
 76
1
330
1B
  0
MATERIAL
  5
1F
102
{ACAD_REACTORS
330
E
102
}
330
E
100
AcDbMaterial
  1
ByBlock
  2

 70
0
 40
1.0
 71
1
 41
1.0
 91
-1023410177
 42
1.0
 72
1
  3

 73
1
 74
1
 75
1
 44
0.5
 73
0
 45
1.0
 46
1.0
 77
1
  4

 78
1
 79
1
170
1
 48
1.0
171
1
  6

172
1
173
1
174
1
140
1.0
141
1.0
175
1
  7

176
1
177
1
178
1
143
1.0
179
1
  8

270
1
271
1
272
1
145
1.0
146
1.0
273
1
  9

274
1
275
1
276
1
 42
1.0
 72
1
  3

 73
1
 74
1
 75
1
 94
63
  0
MATERIAL
  5
20
102
{ACAD_REACTORS
330
E
102
}
330
E
100
AcDbMaterial
  1
ByLayer
  2

 70
0
 40
1.0
 71
1
 41
1.0
 91
-1023410177
 42
1.0
 72
1
  3

 73
1
 74
1
 75
1
 44
0.5
 73
0
 45
1.0
 46
1.0
 77
1
  4

 78
1
 79
1
170
1
 48
1.0
171
1
  6

172
1
173
1
174
1
140
1.0
141
1.0
175
1
  7

176
1
177
1
178
1
143
1.0
179
1
  8

270
1
271
1
272
1
145
1.0
146
1.0
273
1
  9

274
1
275
1
276
1
 42
1.0
 72
1
  3

 73
1
 74
1
 75
1
 94
63
  0
MATERIAL
  5
21
102
{ACAD_REACTORS
330
E
102
}
330
E
100
AcDbMaterial
  1
Global
  2

 70
0
 40
1.0
 71
1
 41
1.0
 91
-1023410177
 42
1.0
 72
1
  3

 73
1
 74
1
 75
1
 44
0.5
 73
0
 45
1.0
 46
1.0
 77
1
  4

 78
1
 79
1
170
1
 48
1.0
171
1
  6

172
1
173
1
174
1
140
1.0
141
1.0
175
1
  7

176
1
177
1
178
1
143
1.0
179
1
  8

270
1
271
1
272
1
145
1.0
146
1.0
273
1
  9

274
1
275
1
276
1
 42
1.0
 72
1
  3

 73
1
 74
1
 75
1
 94
63
  0
MLINESTYLE
  5
22
102
{ACAD_REACTORS
330
10
102
}
330
10
100
AcDbMlineStyle
  2
Standard
 70
0
  3

 62
256
 51
90.0
 52
90.0
 71
2
 49
0.5
 62
256
  6
BYLAYER
 49
-0.5
 62
256
  6
BYLAYER
  0
MLEADERSTYLE
  5
2C
102
{ACAD_REACTORS
330
F
102
}
330
F
100
AcDbMLeaderStyle
179
2
170
2
171
1
172
0
 90
2
 40
0.0
 41
0.0
173
1
 91
-1056964608
 92
-2
290
1
 42
2.0
291
1
 43
8.0
  3
Standard
 44
4.0
300

342
29
174
1
175
1
176
0
178
1
 93
-1056964608
 45
4.0
292
0
297
0
 46
4.0
 94
-1056964608
 47
1.0
 49
1.0
140
1.0
294
1
141
0.0
177
0
142
1.0
295
0
296
0
143
3.75
271
0
272
9
273
9
  0
DICTIONARY
  5
2D
330
A
100
AcDbDictionary
280
1
281
1
  3
CREATED_BY_EZDXF
350
2E
  3
WRITTEN_BY_EZDXF
350
20E
  0
DICTIONARYVAR
  5
2E
330
2D
100
DictionaryVariables
280
0
  1
1.4.2 @ 2025-07-30T15:13:36.588168+00:00
  0
DICTIONARYVAR
  5
20E
330
2D
100
DictionaryVariables
280
0
  1
1.4.2 @ 2025-07-30T15:13:36.619416+00:00
  0
ENDSEC
  0
EOF
