  0
SECTION
  2
HEADER
  9
$ACADVER
  1
AC1024
  9
$ACADMAINTVER
 70
6
  9
$DWGCODEPAGE
  3
ANSI_1252
  9
$LASTSAVEDBY
  1
ezdxf
  9
$INSBASE
 10
0.0
 20
0.0
 30
0.0
  9
$EXTMIN
 10
1e+20
 20
1e+20
 30
1e+20
  9
$EXTMAX
 10
-1e+20
 20
-1e+20
 30
-1e+20
  9
$LIMMIN
 10
0.0
 20
0.0
  9
$LIMMAX
 10
420.0
 20
297.0
  9
$ORTHOMODE
 70
0
  9
$REGENMODE
 70
1
  9
$FILLMODE
 70
1
  9
$QTEXTMODE
 70
0
  9
$MIRRTEXT
 70
1
  9
$LTSCALE
 40
1.0
  9
$ATTMODE
 70
1
  9
$TEXTSIZE
 40
2.5
  9
$TRACEWID
 40
1.0
  9
$TEXTSTYLE
  7
Standard
  9
$CLAYER
  8
0
  9
$CELTYPE
  6
ByLayer
  9
$CECOLOR
 62
256
  9
$CELTSCALE
 40
1.0
  9
$DISPSILH
 70
0
  9
$DIMSCALE
 40
1.0
  9
$DIMASZ
 40
2.5
  9
$DIMEXO
 40
0.625
  9
$DIMDLI
 40
3.75
  9
$DIMRND
 40
0.0
  9
$DIMDLE
 40
0.0
  9
$DIMEXE
 40
1.25
  9
$DIMTP
 40
0.0
  9
$DIMTM
 40
0.0
  9
$DIMTXT
 40
2.5
  9
$DIMCEN
 40
2.5
  9
$DIMTSZ
 40
0.0
  9
$DIMTOL
 70
0
  9
$DIMLIM
 70
0
  9
$DIMTIH
 70
0
  9
$DIMTOH
 70
0
  9
$DIMSE1
 70
0
  9
$DIMSE2
 70
0
  9
$DIMTAD
 70
1
  9
$DIMZIN
 70
8
  9
$DIMBLK
  1

  9
$DIMASO
 70
1
  9
$DIMSHO
 70
1
  9
$DIMPOST
  1

  9
$DIMAPOST
  1

  9
$DIMALT
 70
0
  9
$DIMALTD
 70
3
  9
$DIMALTF
 40
0.03937007874
  9
$DIMLFAC
 40
1.0
  9
$DIMTOFL
 70
1
  9
$DIMTVP
 40
0.0
  9
$DIMTIX
 70
0
  9
$DIMSOXD
 70
0
  9
$DIMSAH
 70
0
  9
$DIMBLK1
  1

  9
$DIMBLK2
  1

  9
$DIMSTYLE
  2
ISO-25
  9
$DIMCLRD
 70
0
  9
$DIMCLRE
 70
0
  9
$DIMCLRT
 70
0
  9
$DIMTFAC
 40
1.0
  9
$DIMGAP
 40
0.625
  9
$DIMJUST
 70
0
  9
$DIMSD1
 70
0
  9
$DIMSD2
 70
0
  9
$DIMTOLJ
 70
0
  9
$DIMTZIN
 70
8
  9
$DIMALTZ
 70
0
  9
$DIMALTTZ
 70
0
  9
$DIMUPT
 70
0
  9
$DIMDEC
 70
2
  9
$DIMTDEC
 70
2
  9
$DIMALTU
 70
2
  9
$DIMALTTD
 70
3
  9
$DIMTXSTY
  7
Standard
  9
$DIMAUNIT
 70
0
  9
$DIMADEC
 70
0
  9
$DIMALTRND
 40
0.0
  9
$DIMAZIN
 70
0
  9
$DIMDSEP
 70
44
  9
$DIMATFIT
 70
3
  9
$DIMFRAC
 70
0
  9
$DIMLDRBLK
  1

  9
$DIMLUNIT
 70
2
  9
$DIMLWD
 70
-2
  9
$DIMLWE
 70
-2
  9
$DIMTMOVE
 70
0
  9
$DIMFXL
 40
1.0
  9
$DIMFXLON
 70
0
  9
$DIMJOGANG
 40
0.785398163397
  9
$DIMTFILL
 70
0
  9
$DIMTFILLCLR
 70
0
  9
$DIMARCSYM
 70
0
  9
$DIMLTYPE
  6

  9
$DIMLTEX1
  6

  9
$DIMLTEX2
  6

  9
$DIMTXTDIRECTION
 70
0
  9
$LUNITS
 70
2
  9
$LUPREC
 70
4
  9
$SKETCHINC
 40
1.0
  9
$FILLETRAD
 40
10.0
  9
$AUNITS
 70
0
  9
$AUPREC
 70
2
  9
$MENU
  1
.
  9
$ELEVATION
 40
0.0
  9
$PELEVATION
 40
0.0
  9
$THICKNESS
 40
0.0
  9
$LIMCHECK
 70
0
  9
$CHAMFERA
 40
0.0
  9
$CHAMFERB
 40
0.0
  9
$CHAMFERC
 40
0.0
  9
$CHAMFERD
 40
0.0
  9
$SKPOLY
 70
0
  9
$TDCREATE
 40
2460887.509178241
  9
$TDUCREATE
 40
2458532.153996898
  9
$TDUPDATE
 40
2460887.509178241
  9
$TDUUPDATE
 40
2458532.1544311
  9
$TDINDWG
 40
0.0
  9
$TDUSRTIMER
 40
0.0
  9
$USRTIMER
 70
1
  9
$ANGBASE
 50
0.0
  9
$ANGDIR
 70
0
  9
$PDMODE
 70
0
  9
$PDSIZE
 40
0.0
  9
$PLINEWID
 40
0.0
  9
$SPLFRAME
 70
0
  9
$SPLINETYPE
 70
6
  9
$SPLINESEGS
 70
8
  9
$HANDSEED
  5
171
  9
$SURFTAB1
 70
6
  9
$SURFTAB2
 70
6
  9
$SURFTYPE
 70
6
  9
$SURFU
 70
6
  9
$SURFV
 70
6
  9
$UCSBASE
  2

  9
$UCSNAME
  2

  9
$UCSORG
 10
0.0
 20
0.0
 30
0.0
  9
$UCSXDIR
 10
1.0
 20
0.0
 30
0.0
  9
$UCSYDIR
 10
0.0
 20
1.0
 30
0.0
  9
$UCSORTHOREF
  2

  9
$UCSORTHOVIEW
 70
0
  9
$UCSORGTOP
 10
0.0
 20
0.0
 30
0.0
  9
$UCSORGBOTTOM
 10
0.0
 20
0.0
 30
0.0
  9
$UCSORGLEFT
 10
0.0
 20
0.0
 30
0.0
  9
$UCSORGRIGHT
 10
0.0
 20
0.0
 30
0.0
  9
$UCSORGFRONT
 10
0.0
 20
0.0
 30
0.0
  9
$UCSORGBACK
 10
0.0
 20
0.0
 30
0.0
  9
$PUCSBASE
  2

  9
$PUCSNAME
  2

  9
$PUCSORG
 10
0.0
 20
0.0
 30
0.0
  9
$PUCSXDIR
 10
1.0
 20
0.0
 30
0.0
  9
$PUCSYDIR
 10
0.0
 20
1.0
 30
0.0
  9
$PUCSORTHOREF
  2

  9
$PUCSORTHOVIEW
 70
0
  9
$PUCSORGTOP
 10
0.0
 20
0.0
 30
0.0
  9
$PUCSORGBOTTOM
 10
0.0
 20
0.0
 30
0.0
  9
$PUCSORGLEFT
 10
0.0
 20
0.0
 30
0.0
  9
$PUCSORGRIGHT
 10
0.0
 20
0.0
 30
0.0
  9
$PUCSORGFRONT
 10
0.0
 20
0.0
 30
0.0
  9
$PUCSORGBACK
 10
0.0
 20
0.0
 30
0.0
  9
$USERI1
 70
0
  9
$USERI2
 70
0
  9
$USERI3
 70
0
  9
$USERI4
 70
0
  9
$USERI5
 70
0
  9
$USERR1
 40
0.0
  9
$USERR2
 40
0.0
  9
$USERR3
 40
0.0
  9
$USERR4
 40
0.0
  9
$USERR5
 40
0.0
  9
$WORLDVIEW
 70
1
  9
$SHADEDGE
 70
3
  9
$SHADEDIF
 70
70
  9
$TILEMODE
 70
1
  9
$MAXACTVP
 70
64
  9
$PINSBASE
 10
0.0
 20
0.0
 30
0.0
  9
$PLIMCHECK
 70
0
  9
$PEXTMIN
 10
1e+20
 20
1e+20
 30
1e+20
  9
$PEXTMAX
 10
-1e+20
 20
-1e+20
 30
-1e+20
  9
$PLIMMIN
 10
0.0
 20
0.0
  9
$PLIMMAX
 10
420.0
 20
297.0
  9
$UNITMODE
 70
0
  9
$VISRETAIN
 70
1
  9
$PLINEGEN
 70
0
  9
$PSLTSCALE
 70
1
  9
$TREEDEPTH
 70
3020
  9
$CMLSTYLE
  2
Standard
  9
$CMLJUST
 70
0
  9
$CMLSCALE
 40
20.0
  9
$PROXYGRAPHICS
 70
1
  9
$MEASUREMENT
 70
1
  9
$CELWEIGHT
370
-1
  9
$ENDCAPS
280
0
  9
$JOINSTYLE
280
0
  9
$LWDISPLAY
290
0
  9
$INSUNITS
 70
6
  9
$HYPERLINKBASE
  1

  9
$STYLESHEET
  1

  9
$XEDIT
290
1
  9
$CEPSNTYPE
380
0
  9
$PSTYLEMODE
290
1
  9
$FINGERPRINTGUID
  2
{0D2B8F7D-BA40-405F-A024-707C048F8D7C}
  9
$VERSIONGUID
  2
{91FCA7BF-0334-4D6B-86AF-8868FD08AA5A}
  9
$EXTNAMES
290
1
  9
$PSVPSCALE
 40
0.0
  9
$OLESTARTUP
290
0
  9
$SORTENTS
280
127
  9
$INDEXCTL
280
0
  9
$HIDETEXT
280
1
  9
$XCLIPFRAME
280
1
  9
$HALOGAP
280
0
  9
$OBSCOLOR
 70
257
  9
$OBSLTYPE
280
0
  9
$INTERSECTIONDISPLAY
280
0
  9
$INTERSECTIONCOLOR
 70
257
  9
$DIMASSOC
280
2
  9
$PROJECTNAME
  1

  9
$CAMERADISPLAY
290
0
  9
$LENSLENGTH
 40
50.0
  9
$CAMERAHEIGHT
 40
0.0
  9
$STEPSPERSEC
 40
24.0
  9
$STEPSIZE
 40
100.0
  9
$3DDWFPREC
 40
2.0
  9
$PSOLWIDTH
 40
0.005
  9
$PSOLHEIGHT
 40
0.08
  9
$LOFTANG1
 40
1.570796326795
  9
$LOFTANG2
 40
1.570796326795
  9
$LOFTMAG1
 40
0.0
  9
$LOFTMAG2
 40
0.0
  9
$LOFTPARAM
 70
7
  9
$LOFTNORMALS
280
1
  9
$LATITUDE
 40
37.795
  9
$LONGITUDE
 40
-122.394
  9
$NORTHDIRECTION
 40
0.0
  9
$TIMEZONE
 70
-8000
  9
$LIGHTGLYPHDISPLAY
280
1
  9
$TILEMODELIGHTSYNCH
280
1
  9
$CMATERIAL
347
20
  9
$SOLIDHIST
280
0
  9
$SHOWHIST
280
1
  9
$DWFFRAME
280
2
  9
$DGNFRAME
280
2
  9
$REALWORLDSCALE
290
1
  9
$INTERFERECOLOR
 62
256
  9
$CSHADOW
280
0
  9
$SHADOWPLANELOCATION
 40
0.0
  0
ENDSEC
  0
SECTION
  2
CLASSES
  0
CLASS
  1
ACDBDICTIONARYWDFLT
  2
AcDbDictionaryWithDefault
  3
ObjectDBX Classes
 90
0
 91
0
280
0
281
0
  0
CLASS
  1
SUN
  2
AcDbSun
  3
SCENEOE
 90
1153
 91
0
280
0
281
0
  0
CLASS
  1
VISUALSTYLE
  2
AcDbVisualStyle
  3
ObjectDBX Classes
 90
4095
 91
0
280
0
281
0
  0
CLASS
  1
MATERIAL
  2
AcDbMaterial
  3
ObjectDBX Classes
 90
1153
 91
0
280
0
281
0
  0
CLASS
  1
SCALE
  2
AcDbScale
  3
ObjectDBX Classes
 90
1153
 91
0
280
0
281
0
  0
CLASS
  1
TABLESTYLE
  2
AcDbTableStyle
  3
ObjectDBX Classes
 90
4095
 91
0
280
0
281
0
  0
CLASS
  1
MLEADERSTYLE
  2
AcDbMLeaderStyle
  3
ACDB_MLEADERSTYLE_CLASS
 90
4095
 91
0
280
0
281
0
  0
CLASS
  1
DICTIONARYVAR
  2
AcDbDictionaryVar
  3
ObjectDBX Classes
 90
0
 91
0
280
0
281
0
  0
CLASS
  1
CELLSTYLEMAP
  2
AcDbCellStyleMap
  3
ObjectDBX Classes
 90
1152
 91
0
280
0
281
0
  0
CLASS
  1
MENTALRAYRENDERSETTINGS
  2
AcDbMentalRayRenderSettings
  3
SCENEOE
 90
1024
 91
0
280
0
281
0
  0
CLASS
  1
ACDBDETAILVIEWSTYLE
  2
AcDbDetailViewStyle
  3
ObjectDBX Classes
 90
1025
 91
0
280
0
281
0
  0
CLASS
  1
ACDBSECTIONVIEWSTYLE
  2
AcDbSectionViewStyle
  3
ObjectDBX Classes
 90
1025
 91
0
280
0
281
0
  0
CLASS
  1
RASTERVARIABLES
  2
AcDbRasterVariables
  3
ISM
 90
0
 91
0
280
0
281
0
  0
CLASS
  1
LAYOUT
  2
AcDbLayout
  3
ObjectDBX Classes
 90
0
 91
0
280
0
281
0
  0
CLASS
  1
ACDBPLACEHOLDER
  2
AcDbPlaceHolder
  3
ObjectDBX Classes
 90
0
 91
0
280
0
281
0
  0
ENDSEC
  0
SECTION
  2
TABLES
  0
TABLE
  2
VPORT
  5
8
330
0
100
AcDbSymbolTable
 70
1
  0
VPORT
  5
23
330
8
100
AcDbSymbolTableRecord
100
AcDbViewportTableRecord
  2
*Active
 70
0
 10
0.0
 20
0.0
 11
1.0
 21
1.0
 12
0.0
 22
0.0
 13
0.0
 23
0.0
 14
0.5
 24
0.5
 15
0.5
 25
0.5
 16
0.0
 26
0.0
 36
1.0
 17
0.0
 27
0.0
 37
0.0
 40
1000.0
 41
1.34
 42
50.0
 43
0.0
 44
0.0
 50
0.0
 51
0.0
 71
0
 72
1000
 73
1
 74
3
 75
0
 76
0
 77
0
 78
0
281
0
 65
0
146
0.0
  0
ENDTAB
  0
TABLE
  2
LTYPE
  5
2
330
0
100
AcDbSymbolTable
 70
3
  0
LTYPE
  5
24
330
2
100
AcDbSymbolTableRecord
100
AcDbLinetypeTableRecord
  2
ByBlock
 70
0
  3

 72
65
 73
0
 40
0.0
  0
LTYPE
  5
25
330
2
100
AcDbSymbolTableRecord
100
AcDbLinetypeTableRecord
  2
ByLayer
 70
0
  3

 72
65
 73
0
 40
0.0
  0
LTYPE
  5
26
330
2
100
AcDbSymbolTableRecord
100
AcDbLinetypeTableRecord
  2
Continuous
 70
0
  3

 72
65
 73
0
 40
0.0
  0
ENDTAB
  0
TABLE
  2
LAYER
  5
1
330
0
100
AcDbSymbolTable
 70
2
  0
LAYER
  5
27
330
1
100
AcDbSymbolTableRecord
100
AcDbLayerTableRecord
  2
0
 70
0
 62
7
  6
Continuous
370
-3
390
13
347
21
  0
LAYER
  5
28
330
1
100
AcDbSymbolTableRecord
100
AcDbLayerTableRecord
  2
Defpoints
 70
0
 62
7
  6
Continuous
290
0
370
-3
390
13
347
21
  0
ENDTAB
  0
TABLE
  2
STYLE
  5
5
330
0
100
AcDbSymbolTable
 70
1
  0
STYLE
  5
29
330
5
100
AcDbSymbolTableRecord
100
AcDbTextStyleTableRecord
  2
Standard
 70
0
 40
0.0
 41
1.0
 50
0.0
 71
0
 42
2.5
  3
txt
  4

  0
ENDTAB
  0
TABLE
  2
VIEW
  5
7
330
0
100
AcDbSymbolTable
 70
0
  0
ENDTAB
  0
TABLE
  2
UCS
  5
6
330
0
100
AcDbSymbolTable
 70
0
  0
ENDTAB
  0
TABLE
  2
APPID
  5
3
330
0
100
AcDbSymbolTable
 70
3
  0
APPID
  5
2A
330
3
100
AcDbSymbolTableRecord
100
AcDbRegAppTableRecord
  2
ACAD
 70
0
  0
APPID
  5
16E
330
3
100
AcDbSymbolTableRecord
100
AcDbRegAppTableRecord
  2
HATCHBACKGROUNDCOLOR
 70
0
  0
APPID
  5
16F
330
3
100
AcDbSymbolTableRecord
100
AcDbRegAppTableRecord
  2
EZDXF
 70
0
  0
ENDTAB
  0
TABLE
  2
DIMSTYLE
  5
4
330
0
100
AcDbSymbolTable
 70
1
100
AcDbDimStyleTable
  0
DIMSTYLE
105
2B
330
4
100
AcDbSymbolTableRecord
100
AcDbDimStyleTableRecord
  2
Standard
 70
0
 40
1.0
 41
2.5
 42
0.625
 43
3.75
 44
1.25
 45
0.0
 46
0.0
 47
0.0
 48
0.0
 49
2.5
140
2.5
141
2.5
142
0.0
143
0.03937007874
144
1.0
145
0.0
146
1.0
147
0.625
148
0.0
 69
0
 70
0
 71
0
 72
0
 73
0
 74
0
 75
0
 76
0
 77
1
 78
8
 79
3
170
0
171
3
172
1
173
0
174
0
175
0
176
0
177
0
178
0
179
2
271
2
272
2
273
2
274
3
275
0
276
0
277
2
278
44
279
0
280
0
281
0
282
0
283
0
284
8
285
0
286
0
288
0
289
3
290
0
371
-2
372
-2
  0
ENDTAB
  0
TABLE
  2
BLOCK_RECORD
  5
9
330
0
100
AcDbSymbolTable
 70
2
  0
BLOCK_RECORD
  5
17
330
9
100
AcDbSymbolTableRecord
100
AcDbBlockTableRecord
  2
*Model_Space
340
1A
 70
0
280
1
281
0
  0
BLOCK_RECORD
  5
1B
330
9
100
AcDbSymbolTableRecord
100
AcDbBlockTableRecord
  2
*Paper_Space
340
1E
 70
0
280
1
281
0
  0
ENDTAB
  0
ENDSEC
  0
SECTION
  2
BLOCKS
  0
BLOCK
  5
18
330
17
100
AcDbEntity
  8
0
100
AcDbBlockBegin
  2
*Model_Space
 70
0
 10
0.0
 20
0.0
 30
0.0
  3
*Model_Space
  1

  0
ENDBLK
  5
19
330
17
100
AcDbEntity
  8
0
100
AcDbBlockEnd
  0
BLOCK
  5
1C
330
1B
100
AcDbEntity
  8
0
100
AcDbBlockBegin
  2
*Paper_Space
 70
0
 10
0.0
 20
0.0
 30
0.0
  3
*Paper_Space
  1

  0
ENDBLK
  5
1D
330
1B
100
AcDbEntity
  8
0
100
AcDbBlockEnd
  0
ENDSEC
  0
SECTION
  2
ENTITIES
  0
LWPOLYLINE
  5
2F
330
17
100
AcDbEntity
  8
0
100
AcDbPolyline
 90
5
 70
1
 10
2.4857111745455605
 20
0.43357199117735945
 10
1.4369292276718513
 20
0.5362213179348208
 10
0.80679851770401
 20
0.8573096394538879
 10
0.5292343236536948
 20
1.518968233562844
 10
0.4667372658694573
 20
3.2354850587678246
  0
LWPOLYLINE
  5
30
330
17
100
AcDbEntity
  8
0
100
AcDbPolyline
 90
5
 70
1
 10
2.4857111745455605
 20
0.43357199117735945
 10
1.4369292276718513
 20
0.5362213179348208
 10
0.80679851770401
 20
0.8573096394538879
 10
0.5292343236536948
 20
1.518968233562844
 10
0.4667372658694573
 20
3.2354850587678246
  0
LWPOLYLINE
  5
31
330
17
100
AcDbEntity
  8
0
100
AcDbPolyline
 90
2
 70
1
 10
0.4734509990141133
 20
3.5018437936819273
 10
0.5297312715803899
 20
5.73469128380099
  0
LWPOLYLINE
  5
32
330
17
100
AcDbEntity
  8
0
100
AcDbPolyline
 90
2
 70
1
 10
0.5364338337880332
 20
6.000606826144522
 10
0.5711280799031273
 20
8.233845607908528
  0
LWPOLYLINE
  5
33
330
17
100
AcDbEntity
  8
0
100
AcDbPolyline
 90
2
 70
1
 10
0.5629752358458986
 20
8.500107446446147
 10
0.49461481681925823
 20
10.732674477713797
  0
LWPOLYLINE
  5
34
330
17
100
AcDbEntity
  8
0
100
AcDbPolyline
 90
2
 70
1
 10
0.48646224169078206
 20
10.998927533369812
 10
0.45693919573599406
 20
13.23132043853744
  0
LWPOLYLINE
  5
35
330
17
100
AcDbEntity
  8
0
100
AcDbPolyline
 90
4
 70
1
 10
0.49441930642809245
 20
13.494601084333283
 10
0.6970180971066574
 20
14.164188610971385
 10
0.9605605108377215
 20
14.45490796764827
 10
2.0377464834562518
 20
14.739169466202855
  0
LWPOLYLINE
  5
36
330
17
100
AcDbEntity
  8
0
100
AcDbPolyline
 90
2
 70
1
 10
2.3031300352483566
 20
14.75163149553242
 10
4.535780932521119
 20
14.674004368140679
  0
LWPOLYLINE
  5
37
330
17
100
AcDbEntity
  8
0
100
AcDbPolyline
 90
2
 70
1
 10
4.8016202962966705
 20
14.664761388782486
 10
6.011580163364649
 20
14.62520393557225
  0
LWPOLYLINE
  5
38
330
17
100
AcDbEntity
  8
0
100
AcDbPolyline
 90
2
 70
1
 10
6.011580163364649
 20
14.62520393557225
 10
6.1292919592492
 20
14.625373968142808
  0
LWPOLYLINE
  5
39
330
17
100
AcDbEntity
  8
0
100
AcDbPolyline
 90
2
 70
1
 10
6.1292919592492
 20
14.625373968142808
 10
7.034931714496855
 20
14.626682148469408
  0
LWPOLYLINE
  5
3A
330
17
100
AcDbEntity
  8
0
100
AcDbPolyline
 90
2
 70
1
 10
7.301291870217351
 20
14.627066900920351
 10
9.534929106340625
 20
14.63029334970655
  0
LWPOLYLINE
  5
3B
330
17
100
AcDbEntity
  8
0
100
AcDbPolyline
 90
2
 70
1
 10
9.801345756297524
 20
14.630678183762402
 10
12.034926498184385
 20
14.633904550943694
  0
LWPOLYLINE
  5
3C
330
17
100
AcDbEntity
  8
0
100
AcDbPolyline
 90
2
 70
1
 10
12.301216613386709
 20
14.63428920222237
 10
14.534079067497876
 20
14.63666971785207
  0
LWPOLYLINE
  5
3D
330
17
100
AcDbEntity
  8
0
100
AcDbPolyline
 90
2
 70
1
 10
14.626218754183672
 20
14.462492156186126
 10
14.626193901672945
 20
12.22894453727678
  0
LWPOLYLINE
  5
3E
330
17
100
AcDbEntity
  8
0
100
AcDbPolyline
 90
2
 70
1
 10
14.626190941911624
 20
11.962944537293243
 10
14.626166084367286
 20
9.72894453743154
  0
LWPOLYLINE
  5
3F
330
17
100
AcDbEntity
  8
0
100
AcDbPolyline
 90
2
 70
1
 10
14.626163120868894
 20
9.462608678862164
 10
14.626138267061629
 20
7.228944537586303
  0
LWPOLYLINE
  5
40
330
17
100
AcDbEntity
  8
0
100
AcDbPolyline
 90
2
 70
1
 10
14.626135302383762
 20
6.962502677137675
 10
14.664000648534211
 20
4.729610176777393
  0
LWPOLYLINE
  5
41
330
17
100
AcDbEntity
  8
0
100
AcDbPolyline
 90
2
 70
1
 10
14.673369698302565
 20
4.463775226279081
 10
14.74586102095867
 20
2.2314467025944262
  0
LWPOLYLINE
  5
42
330
17
100
AcDbEntity
  8
0
100
AcDbPolyline
 90
4
 70
1
 10
14.712296148085425
 20
1.9671468463551833
 10
14.489999247887825
 20
1.004892753857985
 10
14.063105187490976
 20
0.6450641089235413
 10
13.418102065511116
 20
0.4989723633384323
  0
LWPOLYLINE
  5
43
330
17
100
AcDbEntity
  8
0
100
AcDbPolyline
 90
2
 70
1
 10
13.154518280197061
 20
0.4632010323662949
 10
13.020390507784407
 20
0.45142414388443386
  0
LWPOLYLINE
  5
44
330
17
100
AcDbEntity
  8
0
100
AcDbPolyline
 90
2
 70
1
 10
13.020390507784407
 20
0.45142414388443386
 10
12.941723110573
 20
0.4463315162611054
  0
LWPOLYLINE
  5
45
330
17
100
AcDbEntity
  8
0
100
AcDbPolyline
 90
2
 70
1
 10
12.941723110573
 20
0.4463315162611054
 10
10.922381692668544
 20
0.49475513568813617
  0
LWPOLYLINE
  5
46
330
17
100
AcDbEntity
  8
0
100
AcDbPolyline
 90
2
 70
1
 10
10.656144550384688
 20
0.5011394776032703
 10
8.42310017774272
 20
0.5546876740131176
  0
LWPOLYLINE
  5
47
330
17
100
AcDbEntity
  8
0
100
AcDbPolyline
 90
2
 70
1
 10
8.157176624554605
 20
0.5610644960908958
 10
5.924088939209019
 20
0.5423904319348822
  0
LWPOLYLINE
  5
48
330
17
100
AcDbEntity
  8
0
100
AcDbPolyline
 90
2
 70
1
 10
5.657974964911517
 20
0.5339684056978449
 10
3.425340009572024
 20
0.4633095452556838
  0
LWPOLYLINE
  5
49
330
17
100
AcDbEntity
  8
0
100
AcDbPolyline
 90
2
 70
1
 10
3.1594731234586417
 20
0.4548953389130168
 10
2.532705601103172
 20
0.43505927982692233
  0
LWPOLYLINE
  5
4A
330
17
100
AcDbEntity
  8
0
100
AcDbPolyline
 90
2
 70
1
 10
2.532705601103172
 20
0.43505927982692233
 10
2.4857111745455605
 20
0.43357199117735945
  0
LINE
  5
4B
330
17
100
AcDbEntity
  8
0
100
AcDbLine
 10
2.5928489565849304
 20
0.437
 30
0.0
 11
2.5928489565849304
 21
1.0175805805805789
 31
0.0
  0
LINE
  5
4C
330
17
100
AcDbEntity
  8
0
100
AcDbLine
 10
2.5928489565849304
 20
0.437
 30
0.0
 11
2.5928489565849304
 21
1.0175805805805789
 31
0.0
  0
LINE
  5
4D
330
17
100
AcDbEntity
  8
0
100
AcDbLine
 10
2.5928489565849304
 20
1.0175805805805789
 30
0.0
 11
2.5928489565849304
 21
1.437
 31
0.0
  0
LINE
  5
4E
330
17
100
AcDbEntity
  8
0
100
AcDbLine
 10
2.5928489565849304
 20
1.4949999999999968
 30
0.0
 11
2.5928489565849304
 21
1.949412903225807
 31
0.0
  0
LINE
  5
4F
330
17
100
AcDbEntity
  8
0
100
AcDbLine
 10
2.5928489565849304
 20
1.949412903225807
 30
0.0
 11
2.5928489565849304
 21
3.0076322580645134
 31
0.0
  0
LINE
  5
50
330
17
100
AcDbEntity
  8
0
100
AcDbLine
 10
2.5928489565849304
 20
3.0076322580645134
 30
0.0
 11
2.5928489565849304
 21
3.385303225806452
 31
0.0
  0
LINE
  5
51
330
17
100
AcDbEntity
  8
0
100
AcDbLine
 10
2.5928489565849304
 20
3.385303225806452
 30
0.0
 11
2.5928489565849304
 21
3.689000000000003
 31
0.0
  0
LINE
  5
52
330
17
100
AcDbEntity
  8
0
100
AcDbLine
 10
2.5928489565849304
 20
3.994999999999997
 30
0.0
 11
2.5928489565849304
 21
4.65095483870968
 31
0.0
  0
LINE
  5
53
330
17
100
AcDbEntity
  8
0
100
AcDbLine
 10
2.5928489565849304
 20
4.65095483870968
 30
0.0
 11
2.5928489565849304
 21
5.709174193548387
 31
0.0
  0
LINE
  5
54
330
17
100
AcDbEntity
  8
0
100
AcDbLine
 10
2.5928489565849304
 20
5.709174193548387
 30
0.0
 11
2.5928489565849304
 21
6.189000000000004
 31
0.0
  0
LINE
  5
55
330
17
100
AcDbEntity
  8
0
100
AcDbLine
 10
2.5928489565849304
 20
6.494999999999997
 30
0.0
 11
2.5928489565849304
 21
6.974825806451613
 31
0.0
  0
LINE
  5
56
330
17
100
AcDbEntity
  8
0
100
AcDbLine
 10
2.5928489565849304
 20
6.974825806451613
 30
0.0
 11
2.5928489565849304
 21
7.05005806451613
 31
0.0
  0
LINE
  5
57
330
17
100
AcDbEntity
  8
0
100
AcDbLine
 10
2.5928489565849304
 20
7.05005806451613
 30
0.0
 11
2.5928489565849304
 21
8.108277419354836
 31
0.0
  0
LINE
  5
58
330
17
100
AcDbEntity
  8
0
100
AcDbLine
 10
2.5928489565849304
 20
8.108277419354836
 30
0.0
 11
2.5928489565849304
 21
8.689000000000004
 31
0.0
  0
LINE
  5
59
330
17
100
AcDbEntity
  8
0
100
AcDbLine
 10
2.5928489565849304
 20
8.994999999999997
 30
0.0
 11
2.5928489565849304
 21
9.68594102885822
 31
0.0
  0
LINE
  5
5A
330
17
100
AcDbEntity
  8
0
100
AcDbLine
 10
2.5928489565849304
 20
9.68594102885822
 30
0.0
 11
2.5928489565849304
 21
9.775000000000004
 31
0.0
  0
LINE
  5
5B
330
17
100
AcDbEntity
  8
0
100
AcDbLine
 10
2.5928489565849304
 20
9.775000000000004
 30
0.0
 11
2.5928489565849304
 21
10.408999999999997
 31
0.0
  0
LINE
  5
5C
330
17
100
AcDbEntity
  8
0
100
AcDbLine
 10
2.5928489565849304
 20
10.408999999999997
 30
0.0
 11
2.5928489565849304
 21
10.497080301129232
 31
0.0
  0
LINE
  5
5D
330
17
100
AcDbEntity
  8
0
100
AcDbLine
 10
2.5928489565849304
 20
10.497080301129232
 30
0.0
 11
2.5928489565849304
 21
11.189000000000004
 31
0.0
  0
LINE
  5
5E
330
17
100
AcDbEntity
  8
0
100
AcDbLine
 10
2.5928489565849304
 20
11.494999999999997
 30
0.0
 11
2.5928489565849304
 21
12.075470967741937
 31
0.0
  0
LINE
  5
5F
330
17
100
AcDbEntity
  8
0
100
AcDbLine
 10
2.5928489565849304
 20
12.075470967741937
 30
0.0
 11
2.5928489565849304
 21
13.133690322580643
 31
0.0
  0
LINE
  5
60
330
17
100
AcDbEntity
  8
0
100
AcDbLine
 10
2.5928489565849304
 20
13.133690322580643
 30
0.0
 11
2.5928489565849304
 21
13.20892258064516
 31
0.0
  0
LINE
  5
61
330
17
100
AcDbEntity
  8
0
100
AcDbLine
 10
2.5928489565849304
 20
13.20892258064516
 30
0.0
 11
2.5928489565849304
 21
13.689000000000004
 31
0.0
  0
LINE
  5
62
330
17
100
AcDbEntity
  8
0
100
AcDbLine
 10
2.5928489565849304
 20
13.742
 30
0.0
 11
2.5928489565849304
 21
14.159962870045161
 31
0.0
  0
LINE
  5
63
330
17
100
AcDbEntity
  8
0
100
AcDbLine
 10
2.5928489565849304
 20
14.159962870045161
 30
0.0
 11
2.5928489565849304
 21
14.742
 31
0.0
  0
LINE
  5
64
330
17
100
AcDbEntity
  8
0
100
AcDbLine
 10
5.09284895658493
 20
0.516
 30
0.0
 11
5.09284895658493
 21
1.009999999999998
 31
0.0
  0
LINE
  5
65
330
17
100
AcDbEntity
  8
0
100
AcDbLine
 10
5.09284895658493
 20
0.516
 30
0.0
 11
5.09284895658493
 21
1.009999999999998
 31
0.0
  0
LINE
  5
66
330
17
100
AcDbEntity
  8
0
100
AcDbLine
 10
5.09284895658493
 20
1.009999999999998
 30
0.0
 11
5.09284895658493
 21
1.4884409448818858
 31
0.0
  0
LINE
  5
67
330
17
100
AcDbEntity
  8
0
100
AcDbLine
 10
5.09284895658493
 20
1.4884409448818858
 30
0.0
 11
5.09284895658493
 21
1.520249788314988
 31
0.0
  0
LINE
  5
68
330
17
100
AcDbEntity
  8
0
100
AcDbLine
 10
5.09284895658493
 20
1.520249788314988
 30
0.0
 11
5.09284895658493
 21
1.5255842506350565
 31
0.0
  0
LINE
  5
69
330
17
100
AcDbEntity
  8
0
100
AcDbLine
 10
5.09284895658493
 20
1.5255842506350565
 30
0.0
 11
5.09284895658493
 21
1.9277741935483874
 31
0.0
  0
LINE
  5
6A
330
17
100
AcDbEntity
  8
0
100
AcDbLine
 10
5.09284895658493
 20
1.9277741935483874
 30
0.0
 11
5.09284895658493
 21
2.985993548387094
 31
0.0
  0
LINE
  5
6B
330
17
100
AcDbEntity
  8
0
100
AcDbLine
 10
5.09284895658493
 20
2.985993548387094
 30
0.0
 11
5.09284895658493
 21
3.363412903225807
 31
0.0
  0
LINE
  5
6C
330
17
100
AcDbEntity
  8
0
100
AcDbLine
 10
5.09284895658493
 20
3.363412903225807
 30
0.0
 11
5.09284895658493
 21
3.689000000000003
 31
0.0
  0
LINE
  5
6D
330
17
100
AcDbEntity
  8
0
100
AcDbLine
 10
5.09284895658493
 20
3.994999999999997
 30
0.0
 11
5.09284895658493
 21
4.629064516129034
 31
0.0
  0
LINE
  5
6E
330
17
100
AcDbEntity
  8
0
100
AcDbLine
 10
5.09284895658493
 20
4.629064516129034
 30
0.0
 11
5.09284895658493
 21
5.687283870967741
 31
0.0
  0
LINE
  5
6F
330
17
100
AcDbEntity
  8
0
100
AcDbLine
 10
5.09284895658493
 20
5.687283870967741
 30
0.0
 11
5.09284895658493
 21
5.762767741935484
 31
0.0
  0
LINE
  5
70
330
17
100
AcDbEntity
  8
0
100
AcDbLine
 10
5.09284895658493
 20
5.762767741935484
 30
0.0
 11
5.09284895658493
 21
6.189000000000004
 31
0.0
  0
LINE
  5
71
330
17
100
AcDbEntity
  8
0
100
AcDbLine
 10
5.09284895658493
 20
6.494999999999997
 30
0.0
 11
5.09284895658493
 21
6.952935483870968
 31
0.0
  0
LINE
  5
72
330
17
100
AcDbEntity
  8
0
100
AcDbLine
 10
5.09284895658493
 20
6.952935483870968
 30
0.0
 11
5.09284895658493
 21
7.028419354838711
 31
0.0
  0
LINE
  5
73
330
17
100
AcDbEntity
  8
0
100
AcDbLine
 10
5.09284895658493
 20
7.028419354838711
 30
0.0
 11
5.09284895658493
 21
8.086638709677418
 31
0.0
  0
LINE
  5
74
330
17
100
AcDbEntity
  8
0
100
AcDbLine
 10
5.09284895658493
 20
8.086638709677418
 30
0.0
 11
5.09284895658493
 21
8.689000000000004
 31
0.0
  0
LINE
  5
75
330
17
100
AcDbEntity
  8
0
100
AcDbLine
 10
5.09284895658493
 20
8.994999999999997
 30
0.0
 11
5.09284895658493
 21
9.651352800953518
 31
0.0
  0
LINE
  5
76
330
17
100
AcDbEntity
  8
0
100
AcDbLine
 10
5.09284895658493
 20
9.651352800953518
 30
0.0
 11
5.09284895658493
 21
9.775000000000004
 31
0.0
  0
LINE
  5
77
330
17
100
AcDbEntity
  8
0
100
AcDbLine
 10
5.09284895658493
 20
9.775000000000004
 30
0.0
 11
5.09284895658493
 21
10.408999999999997
 31
0.0
  0
LINE
  5
78
330
17
100
AcDbEntity
  8
0
100
AcDbLine
 10
5.09284895658493
 20
10.408999999999997
 30
0.0
 11
5.09284895658493
 21
10.461480211081792
 31
0.0
  0
LINE
  5
79
330
17
100
AcDbEntity
  8
0
100
AcDbLine
 10
5.09284895658493
 20
10.461480211081792
 30
0.0
 11
5.09284895658493
 21
11.189000000000004
 31
0.0
  0
LINE
  5
7A
330
17
100
AcDbEntity
  8
0
100
AcDbLine
 10
5.09284895658493
 20
11.494999999999997
 30
0.0
 11
5.09284895658493
 21
12.053580645161292
 31
0.0
  0
LINE
  5
7B
330
17
100
AcDbEntity
  8
0
100
AcDbLine
 10
5.09284895658493
 20
12.053580645161292
 30
0.0
 11
5.09284895658493
 21
13.111799999999999
 31
0.0
  0
LINE
  5
7C
330
17
100
AcDbEntity
  8
0
100
AcDbLine
 10
5.09284895658493
 20
13.111799999999999
 30
0.0
 11
5.09284895658493
 21
13.187283870967741
 31
0.0
  0
LINE
  5
7D
330
17
100
AcDbEntity
  8
0
100
AcDbLine
 10
5.09284895658493
 20
13.187283870967741
 30
0.0
 11
5.09284895658493
 21
13.632219430485762
 31
0.0
  0
LINE
  5
7E
330
17
100
AcDbEntity
  8
0
100
AcDbLine
 10
5.09284895658493
 20
13.632219430485762
 30
0.0
 11
5.09284895658493
 21
13.67493299832496
 31
0.0
  0
LINE
  5
7F
330
17
100
AcDbEntity
  8
0
100
AcDbLine
 10
5.09284895658493
 20
13.67493299832496
 30
0.0
 11
5.09284895658493
 21
13.6834757118928
 31
0.0
  0
LINE
  5
80
330
17
100
AcDbEntity
  8
0
100
AcDbLine
 10
5.09284895658493
 20
13.6834757118928
 30
0.0
 11
5.09284895658493
 21
14.046395592864641
 31
0.0
  0
LINE
  5
81
330
17
100
AcDbEntity
  8
0
100
AcDbLine
 10
5.09284895658493
 20
14.046395592864641
 30
0.0
 11
5.09284895658493
 21
14.655000000000001
 31
0.0
  0
LINE
  5
82
330
17
100
AcDbEntity
  8
0
100
AcDbLine
 10
7.59284895658493
 20
0.5740000000000001
 30
0.0
 11
7.59284895658493
 21
1.1982795698924713
 31
0.0
  0
LINE
  5
83
330
17
100
AcDbEntity
  8
0
100
AcDbLine
 10
7.59284895658493
 20
0.5740000000000001
 30
0.0
 11
7.59284895658493
 21
1.1982795698924713
 31
0.0
  0
LINE
  5
84
330
17
100
AcDbEntity
  8
0
100
AcDbLine
 10
7.59284895658493
 20
1.1982795698924713
 30
0.0
 11
7.59284895658493
 21
1.510419354838707
 31
0.0
  0
LINE
  5
85
330
17
100
AcDbEntity
  8
0
100
AcDbLine
 10
7.59284895658493
 20
1.510419354838707
 30
0.0
 11
7.59284895658493
 21
1.584870967741936
 31
0.0
  0
LINE
  5
86
330
17
100
AcDbEntity
  8
0
100
AcDbLine
 10
7.59284895658493
 20
1.584870967741936
 30
0.0
 11
7.59284895658493
 21
1.6041612903225817
 31
0.0
  0
LINE
  5
87
330
17
100
AcDbEntity
  8
0
100
AcDbLine
 10
7.59284895658493
 20
1.6041612903225817
 30
0.0
 11
7.59284895658493
 21
1.7727395577395655
 31
0.0
  0
LINE
  5
88
330
17
100
AcDbEntity
  8
0
100
AcDbLine
 10
7.59284895658493
 20
1.7727395577395655
 30
0.0
 11
7.59284895658493
 21
2.2635774058577436
 31
0.0
  0
LINE
  5
89
330
17
100
AcDbEntity
  8
0
100
AcDbLine
 10
7.59284895658493
 20
2.2635774058577436
 30
0.0
 11
7.59284895658493
 21
2.2750000000000035
 31
0.0
  0
LINE
  5
8A
330
17
100
AcDbEntity
  8
0
100
AcDbLine
 10
7.59284895658493
 20
2.2750000000000035
 30
0.0
 11
7.59284895658493
 21
2.9089999999999967
 31
0.0
  0
LINE
  5
8B
330
17
100
AcDbEntity
  8
0
100
AcDbLine
 10
7.59284895658493
 20
2.9089999999999967
 30
0.0
 11
7.59284895658493
 21
2.981092426187417
 31
0.0
  0
LINE
  5
8C
330
17
100
AcDbEntity
  8
0
100
AcDbLine
 10
7.59284895658493
 20
2.981092426187417
 30
0.0
 11
7.59284895658493
 21
3.689000000000003
 31
0.0
  0
LINE
  5
8D
330
17
100
AcDbEntity
  8
0
100
AcDbLine
 10
7.59284895658493
 20
3.994999999999997
 30
0.0
 11
7.59284895658493
 21
4.622270967741938
 31
0.0
  0
LINE
  5
8E
330
17
100
AcDbEntity
  8
0
100
AcDbLine
 10
7.59284895658493
 20
4.622270967741938
 30
0.0
 11
7.59284895658493
 21
5.680490322580645
 31
0.0
  0
LINE
  5
8F
330
17
100
AcDbEntity
  8
0
100
AcDbLine
 10
7.59284895658493
 20
5.680490322580645
 30
0.0
 11
7.59284895658493
 21
5.682251612903225
 31
0.0
  0
LINE
  5
90
330
17
100
AcDbEntity
  8
0
100
AcDbLine
 10
7.59284895658493
 20
5.682251612903225
 30
0.0
 11
7.59284895658493
 21
5.755722580645161
 31
0.0
  0
LINE
  5
91
330
17
100
AcDbEntity
  8
0
100
AcDbLine
 10
7.59284895658493
 20
5.755722580645161
 30
0.0
 11
7.59284895658493
 21
6.189000000000004
 31
0.0
  0
LINE
  5
92
330
17
100
AcDbEntity
  8
0
100
AcDbLine
 10
7.59284895658493
 20
6.494999999999997
 30
0.0
 11
7.59284895658493
 21
6.946141935483872
 31
0.0
  0
LINE
  5
93
330
17
100
AcDbEntity
  8
0
100
AcDbLine
 10
7.59284895658493
 20
6.946141935483872
 30
0.0
 11
7.59284895658493
 21
7.021374193548388
 31
0.0
  0
LINE
  5
94
330
17
100
AcDbEntity
  8
0
100
AcDbLine
 10
7.59284895658493
 20
7.021374193548388
 30
0.0
 11
7.59284895658493
 21
8.079593548387095
 31
0.0
  0
LINE
  5
95
330
17
100
AcDbEntity
  8
0
100
AcDbLine
 10
7.59284895658493
 20
8.079593548387095
 30
0.0
 11
7.59284895658493
 21
8.689000000000004
 31
0.0
  0
LINE
  5
96
330
17
100
AcDbEntity
  8
0
100
AcDbLine
 10
7.59284895658493
 20
8.994999999999997
 30
0.0
 11
7.59284895658493
 21
9.641037514654164
 31
0.0
  0
LINE
  5
97
330
17
100
AcDbEntity
  8
0
100
AcDbLine
 10
7.59284895658493
 20
9.641037514654164
 30
0.0
 11
7.59284895658493
 21
9.775000000000004
 31
0.0
  0
LINE
  5
98
330
17
100
AcDbEntity
  8
0
100
AcDbLine
 10
7.59284895658493
 20
9.775000000000004
 30
0.0
 11
7.59284895658493
 21
10.408999999999997
 31
0.0
  0
LINE
  5
99
330
17
100
AcDbEntity
  8
0
100
AcDbLine
 10
7.59284895658493
 20
10.408999999999997
 30
0.0
 11
7.59284895658493
 21
10.449777479892758
 31
0.0
  0
LINE
  5
9A
330
17
100
AcDbEntity
  8
0
100
AcDbLine
 10
7.59284895658493
 20
10.449777479892758
 30
0.0
 11
7.59284895658493
 21
11.189000000000004
 31
0.0
  0
LINE
  5
9B
330
17
100
AcDbEntity
  8
0
100
AcDbLine
 10
7.59284895658493
 20
11.494999999999997
 30
0.0
 11
7.59284895658493
 21
12.046787096774194
 31
0.0
  0
LINE
  5
9C
330
17
100
AcDbEntity
  8
0
100
AcDbLine
 10
7.59284895658493
 20
12.046787096774194
 30
0.0
 11
7.59284895658493
 21
13.105006451612901
 31
0.0
  0
LINE
  5
9D
330
17
100
AcDbEntity
  8
0
100
AcDbLine
 10
7.59284895658493
 20
13.105006451612901
 30
0.0
 11
7.59284895658493
 21
13.180238709677418
 31
0.0
  0
LINE
  5
9E
330
17
100
AcDbEntity
  8
0
100
AcDbLine
 10
7.59284895658493
 20
13.180238709677418
 30
0.0
 11
7.59284895658493
 21
13.587982800982799
 31
0.0
  0
LINE
  5
9F
330
17
100
AcDbEntity
  8
0
100
AcDbLine
 10
7.59284895658493
 20
13.587982800982799
 30
0.0
 11
7.59284895658493
 21
13.662971334971337
 31
0.0
  0
LINE
  5
A0
330
17
100
AcDbEntity
  8
0
100
AcDbLine
 10
7.59284895658493
 20
13.662971334971337
 30
0.0
 11
7.59284895658493
 21
13.70044655581948
 31
0.0
  0
LINE
  5
A1
330
17
100
AcDbEntity
  8
0
100
AcDbLine
 10
7.59284895658493
 20
13.70044655581948
 30
0.0
 11
7.59284895658493
 21
14.107333333333335
 31
0.0
  0
LINE
  5
A2
330
17
100
AcDbEntity
  8
0
100
AcDbLine
 10
7.59284895658493
 20
14.107333333333335
 30
0.0
 11
7.59284895658493
 21
14.628
 31
0.0
  0
LINE
  5
A3
330
17
100
AcDbEntity
  8
0
100
AcDbLine
 10
10.09284895658493
 20
0.515
 30
0.0
 11
10.09284895658493
 21
1.1191666666666649
 31
0.0
  0
LINE
  5
A4
330
17
100
AcDbEntity
  8
0
100
AcDbLine
 10
10.09284895658493
 20
0.515
 30
0.0
 11
10.09284895658493
 21
1.1191666666666649
 31
0.0
  0
LINE
  5
A5
330
17
100
AcDbEntity
  8
0
100
AcDbLine
 10
10.09284895658493
 20
1.1191666666666649
 30
0.0
 11
10.09284895658493
 21
1.4980508474576246
 31
0.0
  0
LINE
  5
A6
330
17
100
AcDbEntity
  8
0
100
AcDbLine
 10
10.09284895658493
 20
1.4980508474576246
 30
0.0
 11
10.09284895658493
 21
1.5186610169491532
 31
0.0
  0
LINE
  5
A7
330
17
100
AcDbEntity
  8
0
100
AcDbLine
 10
10.09284895658493
 20
1.5186610169491532
 30
0.0
 11
10.09284895658493
 21
1.5237457627118658
 31
0.0
  0
LINE
  5
A8
330
17
100
AcDbEntity
  8
0
100
AcDbLine
 10
10.09284895658493
 20
1.5237457627118658
 30
0.0
 11
10.09284895658493
 21
1.5766763005780444
 31
0.0
  0
LINE
  5
A9
330
17
100
AcDbEntity
  8
0
100
AcDbLine
 10
10.09284895658493
 20
1.5766763005780444
 30
0.0
 11
10.09284895658493
 21
2.26465083798883
 31
0.0
  0
LINE
  5
AA
330
17
100
AcDbEntity
  8
0
100
AcDbLine
 10
10.09284895658493
 20
2.26465083798883
 30
0.0
 11
10.09284895658493
 21
2.2750000000000035
 31
0.0
  0
LINE
  5
AB
330
17
100
AcDbEntity
  8
0
100
AcDbLine
 10
10.09284895658493
 20
2.2750000000000035
 30
0.0
 11
10.09284895658493
 21
2.9089999999999967
 31
0.0
  0
LINE
  5
AC
330
17
100
AcDbEntity
  8
0
100
AcDbLine
 10
10.09284895658493
 20
2.9089999999999967
 30
0.0
 11
10.09284895658493
 21
2.9662477064220156
 31
0.0
  0
LINE
  5
AD
330
17
100
AcDbEntity
  8
0
100
AcDbLine
 10
10.09284895658493
 20
2.9662477064220156
 30
0.0
 11
10.09284895658493
 21
3.689000000000003
 31
0.0
  0
LINE
  5
AE
330
17
100
AcDbEntity
  8
0
100
AcDbLine
 10
10.09284895658493
 20
3.994999999999997
 30
0.0
 11
10.09284895658493
 21
4.623025806451615
 31
0.0
  0
LINE
  5
AF
330
17
100
AcDbEntity
  8
0
100
AcDbLine
 10
10.09284895658493
 20
4.623025806451615
 30
0.0
 11
10.09284895658493
 21
5.681245161290322
 31
0.0
  0
LINE
  5
B0
330
17
100
AcDbEntity
  8
0
100
AcDbLine
 10
10.09284895658493
 20
5.681245161290322
 30
0.0
 11
10.09284895658493
 21
5.756729032258065
 31
0.0
  0
LINE
  5
B1
330
17
100
AcDbEntity
  8
0
100
AcDbLine
 10
10.09284895658493
 20
5.756729032258065
 30
0.0
 11
10.09284895658493
 21
6.189000000000004
 31
0.0
  0
LINE
  5
B2
330
17
100
AcDbEntity
  8
0
100
AcDbLine
 10
10.09284895658493
 20
6.494999999999997
 30
0.0
 11
10.09284895658493
 21
6.946896774193549
 31
0.0
  0
LINE
  5
B3
330
17
100
AcDbEntity
  8
0
100
AcDbLine
 10
10.09284895658493
 20
6.946896774193549
 30
0.0
 11
10.09284895658493
 21
7.022380645161292
 31
0.0
  0
LINE
  5
B4
330
17
100
AcDbEntity
  8
0
100
AcDbLine
 10
10.09284895658493
 20
7.022380645161292
 30
0.0
 11
10.09284895658493
 21
8.080599999999997
 31
0.0
  0
LINE
  5
B5
330
17
100
AcDbEntity
  8
0
100
AcDbLine
 10
10.09284895658493
 20
8.080599999999997
 30
0.0
 11
10.09284895658493
 21
8.689000000000004
 31
0.0
  0
LINE
  5
B6
330
17
100
AcDbEntity
  8
0
100
AcDbLine
 10
10.09284895658493
 20
8.994999999999997
 30
0.0
 11
10.09284895658493
 21
9.642097532314926
 31
0.0
  0
LINE
  5
B7
330
17
100
AcDbEntity
  8
0
100
AcDbLine
 10
10.09284895658493
 20
9.642097532314926
 30
0.0
 11
10.09284895658493
 21
9.775000000000004
 31
0.0
  0
LINE
  5
B8
330
17
100
AcDbEntity
  8
0
100
AcDbLine
 10
10.09284895658493
 20
9.775000000000004
 30
0.0
 11
10.09284895658493
 21
10.408999999999997
 31
0.0
  0
LINE
  5
B9
330
17
100
AcDbEntity
  8
0
100
AcDbLine
 10
10.09284895658493
 20
10.408999999999997
 30
0.0
 11
10.09284895658493
 21
10.451754010695185
 31
0.0
  0
LINE
  5
BA
330
17
100
AcDbEntity
  8
0
100
AcDbLine
 10
10.09284895658493
 20
10.451754010695185
 30
0.0
 11
10.09284895658493
 21
11.189000000000004
 31
0.0
  0
LINE
  5
BB
330
17
100
AcDbEntity
  8
0
100
AcDbLine
 10
10.09284895658493
 20
11.494999999999997
 30
0.0
 11
10.09284895658493
 21
12.047541935483872
 31
0.0
  0
LINE
  5
BC
330
17
100
AcDbEntity
  8
0
100
AcDbLine
 10
10.09284895658493
 20
12.047541935483872
 30
0.0
 11
10.09284895658493
 21
13.10576129032258
 31
0.0
  0
LINE
  5
BD
330
17
100
AcDbEntity
  8
0
100
AcDbLine
 10
10.09284895658493
 20
13.10576129032258
 30
0.0
 11
10.09284895658493
 21
13.18124516129032
 31
0.0
  0
LINE
  5
BE
330
17
100
AcDbEntity
  8
0
100
AcDbLine
 10
10.09284895658493
 20
13.18124516129032
 30
0.0
 11
10.09284895658493
 21
13.59290476190476
 31
0.0
  0
LINE
  5
BF
330
17
100
AcDbEntity
  8
0
100
AcDbLine
 10
10.09284895658493
 20
13.59290476190476
 30
0.0
 11
10.09284895658493
 21
13.664333333333335
 31
0.0
  0
LINE
  5
C0
330
17
100
AcDbEntity
  8
0
100
AcDbLine
 10
10.09284895658493
 20
13.664333333333335
 30
0.0
 11
10.09284895658493
 21
13.678619047619051
 31
0.0
  0
LINE
  5
C1
330
17
100
AcDbEntity
  8
0
100
AcDbLine
 10
10.09284895658493
 20
13.678619047619051
 30
0.0
 11
10.09284895658493
 21
14.0146344314559
 31
0.0
  0
LINE
  5
C2
330
17
100
AcDbEntity
  8
0
100
AcDbLine
 10
10.09284895658493
 20
14.0146344314559
 30
0.0
 11
10.09284895658493
 21
14.631
 31
0.0
  0
LINE
  5
C3
330
17
100
AcDbEntity
  8
0
100
AcDbLine
 10
12.59284895658493
 20
0.455
 30
0.0
 11
12.59284895658493
 21
1.0408585858585842
 31
0.0
  0
LINE
  5
C4
330
17
100
AcDbEntity
  8
0
100
AcDbLine
 10
12.59284895658493
 20
0.455
 30
0.0
 11
12.59284895658493
 21
1.0408585858585842
 31
0.0
  0
LINE
  5
C5
330
17
100
AcDbEntity
  8
0
100
AcDbLine
 10
12.59284895658493
 20
1.0408585858585842
 30
0.0
 11
12.59284895658493
 21
1.455
 31
0.0
  0
LINE
  5
C6
330
17
100
AcDbEntity
  8
0
100
AcDbLine
 10
12.59284895658493
 20
1.494999999999997
 30
0.0
 11
12.59284895658493
 21
2.266806722689079
 31
0.0
  0
LINE
  5
C7
330
17
100
AcDbEntity
  8
0
100
AcDbLine
 10
12.59284895658493
 20
2.266806722689079
 30
0.0
 11
12.59284895658493
 21
2.2750000000000035
 31
0.0
  0
LINE
  5
C8
330
17
100
AcDbEntity
  8
0
100
AcDbLine
 10
12.59284895658493
 20
2.2750000000000035
 30
0.0
 11
12.59284895658493
 21
2.9089999999999967
 31
0.0
  0
LINE
  5
C9
330
17
100
AcDbEntity
  8
0
100
AcDbLine
 10
12.59284895658493
 20
2.9089999999999967
 30
0.0
 11
12.59284895658493
 21
2.954699067909451
 31
0.0
  0
LINE
  5
CA
330
17
100
AcDbEntity
  8
0
100
AcDbLine
 10
12.59284895658493
 20
2.954699067909451
 30
0.0
 11
12.59284895658493
 21
3.689000000000003
 31
0.0
  0
LINE
  5
CB
330
17
100
AcDbEntity
  8
0
100
AcDbLine
 10
12.59284895658493
 20
3.994999999999997
 30
0.0
 11
12.59284895658493
 21
4.624032258064518
 31
0.0
  0
LINE
  5
CC
330
17
100
AcDbEntity
  8
0
100
AcDbLine
 10
12.59284895658493
 20
4.624032258064518
 30
0.0
 11
12.59284895658493
 21
5.682251612903225
 31
0.0
  0
LINE
  5
CD
330
17
100
AcDbEntity
  8
0
100
AcDbLine
 10
12.59284895658493
 20
5.682251612903225
 30
0.0
 11
12.59284895658493
 21
5.757735483870968
 31
0.0
  0
LINE
  5
CE
330
17
100
AcDbEntity
  8
0
100
AcDbLine
 10
12.59284895658493
 20
5.757735483870968
 30
0.0
 11
12.59284895658493
 21
6.189000000000004
 31
0.0
  0
LINE
  5
CF
330
17
100
AcDbEntity
  8
0
100
AcDbLine
 10
12.59284895658493
 20
6.494999999999997
 30
0.0
 11
12.59284895658493
 21
6.947903225806452
 31
0.0
  0
LINE
  5
D0
330
17
100
AcDbEntity
  8
0
100
AcDbLine
 10
12.59284895658493
 20
6.947903225806452
 30
0.0
 11
12.59284895658493
 21
7.0233870967741945
 31
0.0
  0
LINE
  5
D1
330
17
100
AcDbEntity
  8
0
100
AcDbLine
 10
12.59284895658493
 20
7.0233870967741945
 30
0.0
 11
12.59284895658493
 21
8.0816064516129
 31
0.0
  0
LINE
  5
D2
330
17
100
AcDbEntity
  8
0
100
AcDbLine
 10
12.59284895658493
 20
8.0816064516129
 30
0.0
 11
12.59284895658493
 21
8.689000000000004
 31
0.0
  0
LINE
  5
D3
330
17
100
AcDbEntity
  8
0
100
AcDbLine
 10
12.59284895658493
 20
8.994999999999997
 30
0.0
 11
12.59284895658493
 21
9.64362190812721
 31
0.0
  0
LINE
  5
D4
330
17
100
AcDbEntity
  8
0
100
AcDbLine
 10
12.59284895658493
 20
9.64362190812721
 30
0.0
 11
12.59284895658493
 21
9.775000000000004
 31
0.0
  0
LINE
  5
D5
330
17
100
AcDbEntity
  8
0
100
AcDbLine
 10
12.59284895658493
 20
9.775000000000004
 30
0.0
 11
12.59284895658493
 21
10.408999999999997
 31
0.0
  0
LINE
  5
D6
330
17
100
AcDbEntity
  8
0
100
AcDbLine
 10
12.59284895658493
 20
10.408999999999997
 30
0.0
 11
12.59284895658493
 21
10.452738317757007
 31
0.0
  0
LINE
  5
D7
330
17
100
AcDbEntity
  8
0
100
AcDbLine
 10
12.59284895658493
 20
10.452738317757007
 30
0.0
 11
12.59284895658493
 21
11.189000000000004
 31
0.0
  0
LINE
  5
D8
330
17
100
AcDbEntity
  8
0
100
AcDbLine
 10
12.59284895658493
 20
11.494999999999997
 30
0.0
 11
12.59284895658493
 21
12.048548387096776
 31
0.0
  0
LINE
  5
D9
330
17
100
AcDbEntity
  8
0
100
AcDbLine
 10
12.59284895658493
 20
12.048548387096776
 30
0.0
 11
12.59284895658493
 21
13.106767741935482
 31
0.0
  0
LINE
  5
DA
330
17
100
AcDbEntity
  8
0
100
AcDbLine
 10
12.59284895658493
 20
13.106767741935482
 30
0.0
 11
12.59284895658493
 21
13.182251612903224
 31
0.0
  0
LINE
  5
DB
330
17
100
AcDbEntity
  8
0
100
AcDbLine
 10
12.59284895658493
 20
13.182251612903224
 30
0.0
 11
12.59284895658493
 21
13.599415156507412
 31
0.0
  0
LINE
  5
DC
330
17
100
AcDbEntity
  8
0
100
AcDbLine
 10
12.59284895658493
 20
13.599415156507412
 30
0.0
 11
12.59284895658493
 21
13.666136738056014
 31
0.0
  0
LINE
  5
DD
330
17
100
AcDbEntity
  8
0
100
AcDbLine
 10
12.59284895658493
 20
13.666136738056014
 30
0.0
 11
12.59284895658493
 21
13.679481054365736
 31
0.0
  0
LINE
  5
DE
330
17
100
AcDbEntity
  8
0
100
AcDbLine
 10
12.59284895658493
 20
13.679481054365736
 30
0.0
 11
12.59284895658493
 21
14.019941675503713
 31
0.0
  0
LINE
  5
DF
330
17
100
AcDbEntity
  8
0
100
AcDbLine
 10
12.59284895658493
 20
14.019941675503713
 30
0.0
 11
12.59284895658493
 21
14.635
 31
0.0
  0
LINE
  5
E0
330
17
100
AcDbEntity
  8
0
100
AcDbLine
 10
0.45
 20
2.5922380685806274
 30
0.0
 11
0.9000827218145409
 21
2.5922380685806274
 31
0.0
  0
LINE
  5
E1
330
17
100
AcDbEntity
  8
0
100
AcDbLine
 10
0.45
 20
2.5922380685806274
 30
0.0
 11
0.9000827218145409
 21
2.5922380685806274
 31
0.0
  0
LINE
  5
E2
330
17
100
AcDbEntity
  8
0
100
AcDbLine
 10
0.9000827218145409
 20
2.5922380685806274
 30
0.0
 11
1.451
 21
2.5922380685806274
 31
0.0
  0
LINE
  5
E3
330
17
100
AcDbEntity
  8
0
100
AcDbLine
 10
1.4959999999999969
 20
2.5922380685806274
 30
0.0
 11
1.9778387096774201
 21
2.5922380685806274
 31
0.0
  0
LINE
  5
E4
330
17
100
AcDbEntity
  8
0
100
AcDbLine
 10
1.9778387096774201
 20
2.5922380685806274
 30
0.0
 11
2.053070967741937
 21
2.5922380685806274
 31
0.0
  0
LINE
  5
E5
330
17
100
AcDbEntity
  8
0
100
AcDbLine
 10
2.053070967741937
 20
2.5922380685806274
 30
0.0
 11
3.111290322580644
 21
2.5922380685806274
 31
0.0
  0
LINE
  5
E6
330
17
100
AcDbEntity
  8
0
100
AcDbLine
 10
3.111290322580644
 20
2.5922380685806274
 30
0.0
 11
3.690000000000003
 21
2.5922380685806274
 31
0.0
  0
LINE
  5
E7
330
17
100
AcDbEntity
  8
0
100
AcDbLine
 10
3.995999999999997
 20
2.5922380685806274
 30
0.0
 11
4.690042821158693
 21
2.5922380685806274
 31
0.0
  0
LINE
  5
E8
330
17
100
AcDbEntity
  8
0
100
AcDbLine
 10
4.690042821158693
 20
2.5922380685806274
 30
0.0
 11
4.776000000000003
 21
2.5922380685806274
 31
0.0
  0
LINE
  5
E9
330
17
100
AcDbEntity
  8
0
100
AcDbLine
 10
4.776000000000003
 20
2.5922380685806274
 30
0.0
 11
5.409999999999997
 21
2.5922380685806274
 31
0.0
  0
LINE
  5
EA
330
17
100
AcDbEntity
  8
0
100
AcDbLine
 10
5.409999999999997
 20
2.5922380685806274
 30
0.0
 11
5.501535580524342
 21
2.5922380685806274
 31
0.0
  0
LINE
  5
EB
330
17
100
AcDbEntity
  8
0
100
AcDbLine
 10
5.501535580524342
 20
2.5922380685806274
 30
0.0
 11
6.190000000000003
 21
2.5922380685806274
 31
0.0
  0
LINE
  5
EC
330
17
100
AcDbEntity
  8
0
100
AcDbLine
 10
6.495999999999997
 20
2.5922380685806274
 30
0.0
 11
7.078483870967744
 21
2.5922380685806274
 31
0.0
  0
LINE
  5
ED
330
17
100
AcDbEntity
  8
0
100
AcDbLine
 10
7.078483870967744
 20
2.5922380685806274
 30
0.0
 11
8.136703225806452
 21
2.5922380685806274
 31
0.0
  0
LINE
  5
EE
330
17
100
AcDbEntity
  8
0
100
AcDbLine
 10
8.136703225806452
 20
2.5922380685806274
 30
0.0
 11
8.211935483870967
 21
2.5922380685806274
 31
0.0
  0
LINE
  5
EF
330
17
100
AcDbEntity
  8
0
100
AcDbLine
 10
8.211935483870967
 20
2.5922380685806274
 30
0.0
 11
8.690000000000003
 21
2.5922380685806274
 31
0.0
  0
LINE
  5
F0
330
17
100
AcDbEntity
  8
0
100
AcDbLine
 10
8.995999999999997
 20
2.5922380685806274
 30
0.0
 11
9.477587096774196
 21
2.5922380685806274
 31
0.0
  0
LINE
  5
F1
330
17
100
AcDbEntity
  8
0
100
AcDbLine
 10
9.477587096774196
 20
2.5922380685806274
 30
0.0
 11
10.5358064516129
 21
2.5922380685806274
 31
0.0
  0
LINE
  5
F2
330
17
100
AcDbEntity
  8
0
100
AcDbLine
 10
10.5358064516129
 20
2.5922380685806274
 30
0.0
 11
11.190000000000003
 21
2.5922380685806274
 31
0.0
  0
LINE
  5
F3
330
17
100
AcDbEntity
  8
0
100
AcDbLine
 10
11.495999999999997
 20
2.5922380685806274
 30
0.0
 11
11.80145806451613
 21
2.5922380685806274
 31
0.0
  0
LINE
  5
F4
330
17
100
AcDbEntity
  8
0
100
AcDbLine
 10
11.80145806451613
 20
2.5922380685806274
 30
0.0
 11
12.179129032258068
 21
2.5922380685806274
 31
0.0
  0
LINE
  5
F5
330
17
100
AcDbEntity
  8
0
100
AcDbLine
 10
12.179129032258068
 20
2.5922380685806274
 30
0.0
 11
13.237348387096775
 21
2.5922380685806274
 31
0.0
  0
LINE
  5
F6
330
17
100
AcDbEntity
  8
0
100
AcDbLine
 10
13.237348387096775
 20
2.5922380685806274
 30
0.0
 11
13.690000000000005
 21
2.5922380685806274
 31
0.0
  0
LINE
  5
F7
330
17
100
AcDbEntity
  8
0
100
AcDbLine
 10
13.739
 20
2.5922380685806274
 30
0.0
 11
14.155792357968831
 21
2.5922380685806274
 31
0.0
  0
LINE
  5
F8
330
17
100
AcDbEntity
  8
0
100
AcDbLine
 10
14.155792357968831
 20
2.5922380685806274
 30
0.0
 11
14.739
 21
2.5922380685806274
 31
0.0
  0
LINE
  5
F9
330
17
100
AcDbEntity
  8
0
100
AcDbLine
 10
0.513
 20
5.092238068580627
 30
0.0
 11
1.4901350993377438
 21
5.092238068580627
 31
0.0
  0
LINE
  5
FA
330
17
100
AcDbEntity
  8
0
100
AcDbLine
 10
0.513
 20
5.092238068580627
 30
0.0
 11
1.4901350993377438
 21
5.092238068580627
 31
0.0
  0
LINE
  5
FB
330
17
100
AcDbEntity
  8
0
100
AcDbLine
 10
1.4901350993377438
 20
5.092238068580627
 30
0.0
 11
1.503288624787774
 21
5.092238068580627
 31
0.0
  0
LINE
  5
FC
330
17
100
AcDbEntity
  8
0
100
AcDbLine
 10
1.503288624787774
 20
5.092238068580627
 30
0.0
 11
1.526224108658746
 21
5.092238068580627
 31
0.0
  0
LINE
  5
FD
330
17
100
AcDbEntity
  8
0
100
AcDbLine
 10
1.526224108658746
 20
5.092238068580627
 30
0.0
 11
1.9936903225806462
 21
5.092238068580627
 31
0.0
  0
LINE
  5
FE
330
17
100
AcDbEntity
  8
0
100
AcDbLine
 10
1.9936903225806462
 20
5.092238068580627
 30
0.0
 11
2.0689225806451628
 21
5.092238068580627
 31
0.0
  0
LINE
  5
FF
330
17
100
AcDbEntity
  8
0
100
AcDbLine
 10
2.0689225806451628
 20
5.092238068580627
 30
0.0
 11
3.12714193548387
 21
5.092238068580627
 31
0.0
  0
LINE
  5
100
330
17
100
AcDbEntity
  8
0
100
AcDbLine
 10
3.12714193548387
 20
5.092238068580627
 30
0.0
 11
3.690000000000003
 21
5.092238068580627
 31
0.0
  0
LINE
  5
101
330
17
100
AcDbEntity
  8
0
100
AcDbLine
 10
3.995999999999997
 20
5.092238068580627
 30
0.0
 11
4.715843137254905
 21
5.092238068580627
 31
0.0
  0
LINE
  5
102
330
17
100
AcDbEntity
  8
0
100
AcDbLine
 10
4.715843137254905
 20
5.092238068580627
 30
0.0
 11
4.776000000000003
 21
5.092238068580627
 31
0.0
  0
LINE
  5
103
330
17
100
AcDbEntity
  8
0
100
AcDbLine
 10
4.776000000000003
 20
5.092238068580627
 30
0.0
 11
5.409999999999997
 21
5.092238068580627
 31
0.0
  0
LINE
  5
104
330
17
100
AcDbEntity
  8
0
100
AcDbLine
 10
5.409999999999997
 20
5.092238068580627
 30
0.0
 11
5.526389891696748
 21
5.092238068580627
 31
0.0
  0
LINE
  5
105
330
17
100
AcDbEntity
  8
0
100
AcDbLine
 10
5.526389891696748
 20
5.092238068580627
 30
0.0
 11
6.190000000000003
 21
5.092238068580627
 31
0.0
  0
LINE
  5
106
330
17
100
AcDbEntity
  8
0
100
AcDbLine
 10
6.495999999999997
 20
5.092238068580627
 30
0.0
 11
7.09433548387097
 21
5.092238068580627
 31
0.0
  0
LINE
  5
107
330
17
100
AcDbEntity
  8
0
100
AcDbLine
 10
7.09433548387097
 20
5.092238068580627
 30
0.0
 11
8.152554838709676
 21
5.092238068580627
 31
0.0
  0
LINE
  5
108
330
17
100
AcDbEntity
  8
0
100
AcDbLine
 10
8.152554838709676
 20
5.092238068580627
 30
0.0
 11
8.227787096774193
 21
5.092238068580627
 31
0.0
  0
LINE
  5
109
330
17
100
AcDbEntity
  8
0
100
AcDbLine
 10
8.227787096774193
 20
5.092238068580627
 30
0.0
 11
8.690000000000003
 21
5.092238068580627
 31
0.0
  0
LINE
  5
10A
330
17
100
AcDbEntity
  8
0
100
AcDbLine
 10
8.995999999999997
 20
5.092238068580627
 30
0.0
 11
9.418206451612905
 21
5.092238068580627
 31
0.0
  0
LINE
  5
10B
330
17
100
AcDbEntity
  8
0
100
AcDbLine
 10
9.418206451612905
 20
5.092238068580627
 30
0.0
 11
9.493438709677422
 21
5.092238068580627
 31
0.0
  0
LINE
  5
10C
330
17
100
AcDbEntity
  8
0
100
AcDbLine
 10
9.493438709677422
 20
5.092238068580627
 30
0.0
 11
10.551658064516127
 21
5.092238068580627
 31
0.0
  0
LINE
  5
10D
330
17
100
AcDbEntity
  8
0
100
AcDbLine
 10
10.551658064516127
 20
5.092238068580627
 30
0.0
 11
11.190000000000003
 21
5.092238068580627
 31
0.0
  0
LINE
  5
10E
330
17
100
AcDbEntity
  8
0
100
AcDbLine
 10
11.495999999999997
 20
5.092238068580627
 30
0.0
 11
11.817309677419354
 21
5.092238068580627
 31
0.0
  0
LINE
  5
10F
330
17
100
AcDbEntity
  8
0
100
AcDbLine
 10
11.817309677419354
 20
5.092238068580627
 30
0.0
 11
12.194980645161294
 21
5.092238068580627
 31
0.0
  0
LINE
  5
110
330
17
100
AcDbEntity
  8
0
100
AcDbLine
 10
12.194980645161294
 20
5.092238068580627
 30
0.0
 11
13.2532
 21
5.092238068580627
 31
0.0
  0
LINE
  5
111
330
17
100
AcDbEntity
  8
0
100
AcDbLine
 10
13.2532
 20
5.092238068580627
 30
0.0
 11
13.633532944120098
 21
5.092238068580627
 31
0.0
  0
LINE
  5
112
330
17
100
AcDbEntity
  8
0
100
AcDbLine
 10
13.633532944120098
 20
5.092238068580627
 30
0.0
 11
13.643258548790659
 21
5.092238068580627
 31
0.0
  0
LINE
  5
113
330
17
100
AcDbEntity
  8
0
100
AcDbLine
 10
13.643258548790659
 20
5.092238068580627
 30
0.0
 11
13.683527105921604
 21
5.092238068580627
 31
0.0
  0
LINE
  5
114
330
17
100
AcDbEntity
  8
0
100
AcDbLine
 10
13.683527105921604
 20
5.092238068580627
 30
0.0
 11
14.040794844818517
 21
5.092238068580627
 31
0.0
  0
LINE
  5
115
330
17
100
AcDbEntity
  8
0
100
AcDbLine
 10
14.040794844818517
 20
5.092238068580627
 30
0.0
 11
14.651
 21
5.092238068580627
 31
0.0
  0
LINE
  5
116
330
17
100
AcDbEntity
  8
0
100
AcDbLine
 10
0.5760000000000001
 20
7.592238068580627
 30
0.0
 11
1.4849670828603825
 21
7.592238068580627
 31
0.0
  0
LINE
  5
117
330
17
100
AcDbEntity
  8
0
100
AcDbLine
 10
0.5760000000000001
 20
7.592238068580627
 30
0.0
 11
1.4849670828603825
 21
7.592238068580627
 31
0.0
  0
LINE
  5
118
330
17
100
AcDbEntity
  8
0
100
AcDbLine
 10
1.4849670828603825
 20
7.592238068580627
 30
0.0
 11
1.5312457695406911
 21
7.592238068580627
 31
0.0
  0
LINE
  5
119
330
17
100
AcDbEntity
  8
0
100
AcDbLine
 10
1.5312457695406911
 20
7.592238068580627
 30
0.0
 11
1.6292159548751026
 21
7.592238068580627
 31
0.0
  0
LINE
  5
11A
330
17
100
AcDbEntity
  8
0
100
AcDbLine
 10
1.6292159548751026
 20
7.592238068580627
 30
0.0
 11
2.009541935483872
 21
7.592238068580627
 31
0.0
  0
LINE
  5
11B
330
17
100
AcDbEntity
  8
0
100
AcDbLine
 10
2.009541935483872
 20
7.592238068580627
 30
0.0
 11
2.0847741935483888
 21
7.592238068580627
 31
0.0
  0
LINE
  5
11C
330
17
100
AcDbEntity
  8
0
100
AcDbLine
 10
2.0847741935483888
 20
7.592238068580627
 30
0.0
 11
3.142993548387096
 21
7.592238068580627
 31
0.0
  0
LINE
  5
11D
330
17
100
AcDbEntity
  8
0
100
AcDbLine
 10
3.142993548387096
 20
7.592238068580627
 30
0.0
 11
3.690000000000003
 21
7.592238068580627
 31
0.0
  0
LINE
  5
11E
330
17
100
AcDbEntity
  8
0
100
AcDbLine
 10
3.995999999999997
 20
7.592238068580627
 30
0.0
 11
4.742224627875511
 21
7.592238068580627
 31
0.0
  0
LINE
  5
11F
330
17
100
AcDbEntity
  8
0
100
AcDbLine
 10
4.742224627875511
 20
7.592238068580627
 30
0.0
 11
4.776000000000003
 21
7.592238068580627
 31
0.0
  0
LINE
  5
120
330
17
100
AcDbEntity
  8
0
100
AcDbLine
 10
4.776000000000003
 20
7.592238068580627
 30
0.0
 11
5.409999999999997
 21
7.592238068580627
 31
0.0
  0
LINE
  5
121
330
17
100
AcDbEntity
  8
0
100
AcDbLine
 10
5.409999999999997
 20
7.592238068580627
 30
0.0
 11
5.550996523754343
 21
7.592238068580627
 31
0.0
  0
LINE
  5
122
330
17
100
AcDbEntity
  8
0
100
AcDbLine
 10
5.550996523754343
 20
7.592238068580627
 30
0.0
 11
6.190000000000003
 21
7.592238068580627
 31
0.0
  0
LINE
  5
123
330
17
100
AcDbEntity
  8
0
100
AcDbLine
 10
6.495999999999997
 20
7.592238068580627
 30
0.0
 11
7.110187096774196
 21
7.592238068580627
 31
0.0
  0
LINE
  5
124
330
17
100
AcDbEntity
  8
0
100
AcDbLine
 10
7.110187096774196
 20
7.592238068580627
 30
0.0
 11
8.168406451612903
 21
7.592238068580627
 31
0.0
  0
LINE
  5
125
330
17
100
AcDbEntity
  8
0
100
AcDbLine
 10
8.168406451612903
 20
7.592238068580627
 30
0.0
 11
8.24363870967742
 21
7.592238068580627
 31
0.0
  0
LINE
  5
126
330
17
100
AcDbEntity
  8
0
100
AcDbLine
 10
8.24363870967742
 20
7.592238068580627
 30
0.0
 11
8.690000000000003
 21
7.592238068580627
 31
0.0
  0
LINE
  5
127
330
17
100
AcDbEntity
  8
0
100
AcDbLine
 10
8.995999999999997
 20
7.592238068580627
 30
0.0
 11
9.43405806451613
 21
7.592238068580627
 31
0.0
  0
LINE
  5
128
330
17
100
AcDbEntity
  8
0
100
AcDbLine
 10
9.43405806451613
 20
7.592238068580627
 30
0.0
 11
9.509290322580647
 21
7.592238068580627
 31
0.0
  0
LINE
  5
129
330
17
100
AcDbEntity
  8
0
100
AcDbLine
 10
9.509290322580647
 20
7.592238068580627
 30
0.0
 11
10.567509677419354
 21
7.592238068580627
 31
0.0
  0
LINE
  5
12A
330
17
100
AcDbEntity
  8
0
100
AcDbLine
 10
10.567509677419354
 20
7.592238068580627
 30
0.0
 11
11.190000000000003
 21
7.592238068580627
 31
0.0
  0
LINE
  5
12B
330
17
100
AcDbEntity
  8
0
100
AcDbLine
 10
11.495999999999997
 20
7.592238068580627
 30
0.0
 11
12.122215909090912
 21
7.592238068580627
 31
0.0
  0
LINE
  5
12C
330
17
100
AcDbEntity
  8
0
100
AcDbLine
 10
12.122215909090912
 20
7.592238068580627
 30
0.0
 11
12.276000000000003
 21
7.592238068580627
 31
0.0
  0
LINE
  5
12D
330
17
100
AcDbEntity
  8
0
100
AcDbLine
 10
12.276000000000003
 20
7.592238068580627
 30
0.0
 11
12.909999999999997
 21
7.592238068580627
 31
0.0
  0
LINE
  5
12E
330
17
100
AcDbEntity
  8
0
100
AcDbLine
 10
12.909999999999997
 20
7.592238068580627
 30
0.0
 11
12.929365517241378
 21
7.592238068580627
 31
0.0
  0
LINE
  5
12F
330
17
100
AcDbEntity
  8
0
100
AcDbLine
 10
12.929365517241378
 20
7.592238068580627
 30
0.0
 11
13.463192982456132
 21
7.592238068580627
 31
0.0
  0
LINE
  5
130
330
17
100
AcDbEntity
  8
0
100
AcDbLine
 10
13.463192982456132
 20
7.592238068580627
 30
0.0
 11
13.602522875816991
 21
7.592238068580627
 31
0.0
  0
LINE
  5
131
330
17
100
AcDbEntity
  8
0
100
AcDbLine
 10
13.602522875816991
 20
7.592238068580627
 30
0.0
 11
13.618156862745098
 21
7.592238068580627
 31
0.0
  0
LINE
  5
132
330
17
100
AcDbEntity
  8
0
100
AcDbLine
 10
13.618156862745098
 20
7.592238068580627
 30
0.0
 11
13.67828758169935
 21
7.592238068580627
 31
0.0
  0
LINE
  5
133
330
17
100
AcDbEntity
  8
0
100
AcDbLine
 10
13.67828758169935
 20
7.592238068580627
 30
0.0
 11
14.007663113006398
 21
7.592238068580627
 31
0.0
  0
LINE
  5
134
330
17
100
AcDbEntity
  8
0
100
AcDbLine
 10
14.007663113006398
 20
7.592238068580627
 30
0.0
 11
14.626
 21
7.592238068580627
 31
0.0
  0
LINE
  5
135
330
17
100
AcDbEntity
  8
0
100
AcDbLine
 10
0.514
 20
10.092238068580627
 30
0.0
 11
1.1175379812695092
 21
10.092238068580627
 31
0.0
  0
LINE
  5
136
330
17
100
AcDbEntity
  8
0
100
AcDbLine
 10
0.514
 20
10.092238068580627
 30
0.0
 11
1.1175379812695092
 21
10.092238068580627
 31
0.0
  0
LINE
  5
137
330
17
100
AcDbEntity
  8
0
100
AcDbLine
 10
1.1175379812695092
 20
10.092238068580627
 30
0.0
 11
1.4987198641765676
 21
10.092238068580627
 31
0.0
  0
LINE
  5
138
330
17
100
AcDbEntity
  8
0
100
AcDbLine
 10
1.4987198641765676
 20
10.092238068580627
 30
0.0
 11
1.5033039049235974
 21
10.092238068580627
 31
0.0
  0
LINE
  5
139
330
17
100
AcDbEntity
  8
0
100
AcDbLine
 10
1.5033039049235974
 20
10.092238068580627
 30
0.0
 11
1.526224108658746
 21
10.092238068580627
 31
0.0
  0
LINE
  5
13A
330
17
100
AcDbEntity
  8
0
100
AcDbLine
 10
1.526224108658746
 20
10.092238068580627
 30
0.0
 11
1.9936903225806462
 21
10.092238068580627
 31
0.0
  0
LINE
  5
13B
330
17
100
AcDbEntity
  8
0
100
AcDbLine
 10
1.9936903225806462
 20
10.092238068580627
 30
0.0
 11
2.0691741935483887
 21
10.092238068580627
 31
0.0
  0
LINE
  5
13C
330
17
100
AcDbEntity
  8
0
100
AcDbLine
 10
2.0691741935483887
 20
10.092238068580627
 30
0.0
 11
3.1273935483870954
 21
10.092238068580627
 31
0.0
  0
LINE
  5
13D
330
17
100
AcDbEntity
  8
0
100
AcDbLine
 10
3.1273935483870954
 20
10.092238068580627
 30
0.0
 11
3.690000000000003
 21
10.092238068580627
 31
0.0
  0
LINE
  5
13E
330
17
100
AcDbEntity
  8
0
100
AcDbLine
 10
3.995999999999997
 20
10.092238068580627
 30
0.0
 11
4.716352941176473
 21
10.092238068580627
 31
0.0
  0
LINE
  5
13F
330
17
100
AcDbEntity
  8
0
100
AcDbLine
 10
4.716352941176473
 20
10.092238068580627
 30
0.0
 11
4.776000000000003
 21
10.092238068580627
 31
0.0
  0
LINE
  5
140
330
17
100
AcDbEntity
  8
0
100
AcDbLine
 10
4.776000000000003
 20
10.092238068580627
 30
0.0
 11
5.409999999999997
 21
10.092238068580627
 31
0.0
  0
LINE
  5
141
330
17
100
AcDbEntity
  8
0
100
AcDbLine
 10
5.409999999999997
 20
10.092238068580627
 30
0.0
 11
5.5271874999999975
 21
10.092238068580627
 31
0.0
  0
LINE
  5
142
330
17
100
AcDbEntity
  8
0
100
AcDbLine
 10
5.5271874999999975
 20
10.092238068580627
 30
0.0
 11
6.190000000000003
 21
10.092238068580627
 31
0.0
  0
LINE
  5
143
330
17
100
AcDbEntity
  8
0
100
AcDbLine
 10
6.495999999999997
 20
10.092238068580627
 30
0.0
 11
7.09433548387097
 21
10.092238068580627
 31
0.0
  0
LINE
  5
144
330
17
100
AcDbEntity
  8
0
100
AcDbLine
 10
7.09433548387097
 20
10.092238068580627
 30
0.0
 11
8.152554838709676
 21
10.092238068580627
 31
0.0
  0
LINE
  5
145
330
17
100
AcDbEntity
  8
0
100
AcDbLine
 10
8.152554838709676
 20
10.092238068580627
 30
0.0
 11
8.228038709677419
 21
10.092238068580627
 31
0.0
  0
LINE
  5
146
330
17
100
AcDbEntity
  8
0
100
AcDbLine
 10
8.228038709677419
 20
10.092238068580627
 30
0.0
 11
8.690000000000003
 21
10.092238068580627
 31
0.0
  0
LINE
  5
147
330
17
100
AcDbEntity
  8
0
100
AcDbLine
 10
8.995999999999997
 20
10.092238068580627
 30
0.0
 11
9.418206451612905
 21
10.092238068580627
 31
0.0
  0
LINE
  5
148
330
17
100
AcDbEntity
  8
0
100
AcDbLine
 10
9.418206451612905
 20
10.092238068580627
 30
0.0
 11
9.493690322580647
 21
10.092238068580627
 31
0.0
  0
LINE
  5
149
330
17
100
AcDbEntity
  8
0
100
AcDbLine
 10
9.493690322580647
 20
10.092238068580627
 30
0.0
 11
10.551909677419353
 21
10.092238068580627
 31
0.0
  0
LINE
  5
14A
330
17
100
AcDbEntity
  8
0
100
AcDbLine
 10
10.551909677419353
 20
10.092238068580627
 30
0.0
 11
11.190000000000003
 21
10.092238068580627
 31
0.0
  0
LINE
  5
14B
330
17
100
AcDbEntity
  8
0
100
AcDbLine
 10
11.495999999999997
 20
10.092238068580627
 30
0.0
 11
11.817561290322582
 21
10.092238068580627
 31
0.0
  0
LINE
  5
14C
330
17
100
AcDbEntity
  8
0
100
AcDbLine
 10
11.817561290322582
 20
10.092238068580627
 30
0.0
 11
12.194980645161294
 21
10.092238068580627
 31
0.0
  0
LINE
  5
14D
330
17
100
AcDbEntity
  8
0
100
AcDbLine
 10
12.194980645161294
 20
10.092238068580627
 30
0.0
 11
13.2532
 21
10.092238068580627
 31
0.0
  0
LINE
  5
14E
330
17
100
AcDbEntity
  8
0
100
AcDbLine
 10
13.2532
 20
10.092238068580627
 30
0.0
 11
13.599228758169932
 21
10.092238068580627
 31
0.0
  0
LINE
  5
14F
330
17
100
AcDbEntity
  8
0
100
AcDbLine
 10
13.599228758169932
 20
10.092238068580627
 30
0.0
 11
13.614915032679738
 21
10.092238068580627
 31
0.0
  0
LINE
  5
150
330
17
100
AcDbEntity
  8
0
100
AcDbLine
 10
13.614915032679738
 20
10.092238068580627
 30
0.0
 11
13.701471698113211
 21
10.092238068580627
 31
0.0
  0
LINE
  5
151
330
17
100
AcDbEntity
  8
0
100
AcDbLine
 10
13.701471698113211
 20
10.092238068580627
 30
0.0
 11
14.103333333333335
 21
10.092238068580627
 31
0.0
  0
LINE
  5
152
330
17
100
AcDbEntity
  8
0
100
AcDbLine
 10
14.103333333333335
 20
10.092238068580627
 30
0.0
 11
14.626
 21
10.092238068580627
 31
0.0
  0
LINE
  5
153
330
17
100
AcDbEntity
  8
0
100
AcDbLine
 10
0.438
 20
12.592238068580627
 30
0.0
 11
1.0185805805805788
 21
12.592238068580627
 31
0.0
  0
LINE
  5
154
330
17
100
AcDbEntity
  8
0
100
AcDbLine
 10
0.438
 20
12.592238068580627
 30
0.0
 11
1.0185805805805788
 21
12.592238068580627
 31
0.0
  0
LINE
  5
155
330
17
100
AcDbEntity
  8
0
100
AcDbLine
 10
1.0185805805805788
 20
12.592238068580627
 30
0.0
 11
1.438
 21
12.592238068580627
 31
0.0
  0
LINE
  5
156
330
17
100
AcDbEntity
  8
0
100
AcDbLine
 10
1.4959999999999967
 20
12.592238068580627
 30
0.0
 11
1.9745677419354848
 21
12.592238068580627
 31
0.0
  0
LINE
  5
157
330
17
100
AcDbEntity
  8
0
100
AcDbLine
 10
1.9745677419354848
 20
12.592238068580627
 30
0.0
 11
2.050051612903227
 21
12.592238068580627
 31
0.0
  0
LINE
  5
158
330
17
100
AcDbEntity
  8
0
100
AcDbLine
 10
2.050051612903227
 20
12.592238068580627
 30
0.0
 11
3.1082709677419342
 21
12.592238068580627
 31
0.0
  0
LINE
  5
159
330
17
100
AcDbEntity
  8
0
100
AcDbLine
 10
3.1082709677419342
 20
12.592238068580627
 30
0.0
 11
3.690000000000003
 21
12.592238068580627
 31
0.0
  0
LINE
  5
15A
330
17
100
AcDbEntity
  8
0
100
AcDbLine
 10
3.995999999999997
 20
12.592238068580627
 30
0.0
 11
4.684837500000002
 21
12.592238068580627
 31
0.0
  0
LINE
  5
15B
330
17
100
AcDbEntity
  8
0
100
AcDbLine
 10
4.684837500000002
 20
12.592238068580627
 30
0.0
 11
4.776000000000003
 21
12.592238068580627
 31
0.0
  0
LINE
  5
15C
330
17
100
AcDbEntity
  8
0
100
AcDbLine
 10
4.776000000000003
 20
12.592238068580627
 30
0.0
 11
5.409999999999997
 21
12.592238068580627
 31
0.0
  0
LINE
  5
15D
330
17
100
AcDbEntity
  8
0
100
AcDbLine
 10
5.409999999999997
 20
12.592238068580627
 30
0.0
 11
5.496339622641507
 21
12.592238068580627
 31
0.0
  0
LINE
  5
15E
330
17
100
AcDbEntity
  8
0
100
AcDbLine
 10
5.496339622641507
 20
12.592238068580627
 30
0.0
 11
6.190000000000003
 21
12.592238068580627
 31
0.0
  0
LINE
  5
15F
330
17
100
AcDbEntity
  8
0
100
AcDbLine
 10
6.495999999999997
 20
12.592238068580627
 30
0.0
 11
7.075212903225808
 21
12.592238068580627
 31
0.0
  0
LINE
  5
160
330
17
100
AcDbEntity
  8
0
100
AcDbLine
 10
7.075212903225808
 20
12.592238068580627
 30
0.0
 11
8.133432258064515
 21
12.592238068580627
 31
0.0
  0
LINE
  5
161
330
17
100
AcDbEntity
  8
0
100
AcDbLine
 10
8.133432258064515
 20
12.592238068580627
 30
0.0
 11
8.208916129032257
 21
12.592238068580627
 31
0.0
  0
LINE
  5
162
330
17
100
AcDbEntity
  8
0
100
AcDbLine
 10
8.208916129032257
 20
12.592238068580627
 30
0.0
 11
8.690000000000003
 21
12.592238068580627
 31
0.0
  0
LINE
  5
163
330
17
100
AcDbEntity
  8
0
100
AcDbLine
 10
8.995999999999997
 20
12.592238068580627
 30
0.0
 11
9.474567741935486
 21
12.592238068580627
 31
0.0
  0
LINE
  5
164
330
17
100
AcDbEntity
  8
0
100
AcDbLine
 10
9.474567741935486
 20
12.592238068580627
 30
0.0
 11
10.532787096774191
 21
12.592238068580627
 31
0.0
  0
LINE
  5
165
330
17
100
AcDbEntity
  8
0
100
AcDbLine
 10
10.532787096774191
 20
12.592238068580627
 30
0.0
 11
11.190000000000003
 21
12.592238068580627
 31
0.0
  0
LINE
  5
166
330
17
100
AcDbEntity
  8
0
100
AcDbLine
 10
11.495999999999997
 20
12.592238068580627
 30
0.0
 11
11.79843870967742
 21
12.592238068580627
 31
0.0
  0
LINE
  5
167
330
17
100
AcDbEntity
  8
0
100
AcDbLine
 10
11.79843870967742
 20
12.592238068580627
 30
0.0
 11
12.175858064516133
 21
12.592238068580627
 31
0.0
  0
LINE
  5
168
330
17
100
AcDbEntity
  8
0
100
AcDbLine
 10
12.175858064516133
 20
12.592238068580627
 30
0.0
 11
13.234077419354838
 21
12.592238068580627
 31
0.0
  0
LINE
  5
169
330
17
100
AcDbEntity
  8
0
100
AcDbLine
 10
13.234077419354838
 20
12.592238068580627
 30
0.0
 11
13.595254901960782
 21
12.592238068580627
 31
0.0
  0
LINE
  5
16A
330
17
100
AcDbEntity
  8
0
100
AcDbLine
 10
13.595254901960782
 20
12.592238068580627
 30
0.0
 11
13.610941176470588
 21
12.592238068580627
 31
0.0
  0
LINE
  5
16B
330
17
100
AcDbEntity
  8
0
100
AcDbLine
 10
13.610941176470588
 20
12.592238068580627
 30
0.0
 11
13.67828758169935
 21
12.592238068580627
 31
0.0
  0
LINE
  5
16C
330
17
100
AcDbEntity
  8
0
100
AcDbLine
 10
13.67828758169935
 20
12.592238068580627
 30
0.0
 11
14.007663113006398
 21
12.592238068580627
 31
0.0
  0
LINE
  5
16D
330
17
100
AcDbEntity
  8
0
100
AcDbLine
 10
14.007663113006398
 20
12.592238068580627
 30
0.0
 11
14.626
 21
12.592238068580627
 31
0.0
  0
ENDSEC
  0
SECTION
  2
OBJECTS
  0
DICTIONARY
  5
A
330
0
100
AcDbDictionary
281
1
  3
ACAD_COLOR
350
B
  3
ACAD_GROUP
350
C
  3
ACAD_LAYOUT
350
D
  3
ACAD_MATERIAL
350
E
  3
ACAD_MLEADERSTYLE
350
F
  3
ACAD_MLINESTYLE
350
10
  3
ACAD_PLOTSETTINGS
350
11
  3
ACAD_PLOTSTYLENAME
350
12
  3
ACAD_SCALELIST
350
14
  3
ACAD_TABLESTYLE
350
15
  3
ACAD_VISUALSTYLE
350
16
  3
EZDXF_META
350
2D
  0
DICTIONARY
  5
B
330
A
100
AcDbDictionary
281
1
  0
DICTIONARY
  5
C
330
A
100
AcDbDictionary
281
1
  0
DICTIONARY
  5
D
330
A
100
AcDbDictionary
281
1
  3
Model
350
1A
  3
Layout1
350
1E
  0
DICTIONARY
  5
E
330
A
100
AcDbDictionary
281
1
  3
ByBlock
350
1F
  3
ByLayer
350
20
  3
Global
350
21
  0
DICTIONARY
  5
F
330
A
100
AcDbDictionary
281
1
  3
Standard
350
2C
  0
DICTIONARY
  5
10
330
A
100
AcDbDictionary
281
1
  3
Standard
350
22
  0
DICTIONARY
  5
11
330
A
100
AcDbDictionary
281
1
  0
ACDBDICTIONARYWDFLT
  5
12
330
A
100
AcDbDictionary
281
1
  3
Normal
350
13
100
AcDbDictionaryWithDefault
340
13
  0
ACDBPLACEHOLDER
  5
13
330
12
  0
DICTIONARY
  5
14
330
A
100
AcDbDictionary
281
1
  0
DICTIONARY
  5
15
330
A
100
AcDbDictionary
281
1
  0
DICTIONARY
  5
16
330
A
100
AcDbDictionary
281
1
  0
LAYOUT
  5
1A
330
D
100
AcDbPlotSettings
  1

  4
A3
  6

 40
7.5
 41
20.0
 42
7.5
 43
20.0
 44
420.0
 45
297.0
 46
0.0
 47
0.0
 48
0.0
 49
0.0
140
0.0
141
0.0
142
1.0
143
1.0
 70
1024
 72
1
 73
0
 74
5
  7

 75
16
 76
0
 77
2
 78
300
147
1.0
148
0.0
149
0.0
100
AcDbLayout
  1
Model
 70
1
 71
0
 10
0.0
 20
0.0
 11
420.0
 21
297.0
 12
0.0
 22
0.0
 32
0.0
 14
1e+20
 24
1e+20
 34
1e+20
 15
-1e+20
 25
-1e+20
 35
-1e+20
146
0.0
 13
0.0
 23
0.0
 33
0.0
 16
1.0
 26
0.0
 36
0.0
 17
0.0
 27
1.0
 37
0.0
 76
1
330
17
  0
LAYOUT
  5
1E
330
D
100
AcDbPlotSettings
  1

  4
A3
  6

 40
7.5
 41
20.0
 42
7.5
 43
20.0
 44
420.0
 45
297.0
 46
0.0
 47
0.0
 48
0.0
 49
0.0
140
0.0
141
0.0
142
1.0
143
1.0
 70
0
 72
1
 73
0
 74
5
  7

 75
16
 76
0
 77
2
 78
300
147
1.0
148
0.0
149
0.0
100
AcDbLayout
  1
Layout1
 70
1
 71
1
 10
0.0
 20
0.0
 11
420.0
 21
297.0
 12
0.0
 22
0.0
 32
0.0
 14
1e+20
 24
1e+20
 34
1e+20
 15
-1e+20
 25
-1e+20
 35
-1e+20
146
0.0
 13
0.0
 23
0.0
 33
0.0
 16
1.0
 26
0.0
 36
0.0
 17
0.0
 27
1.0
 37
0.0
 76
1
330
1B
  0
MATERIAL
  5
1F
102
{ACAD_REACTORS
330
E
102
}
330
E
100
AcDbMaterial
  1
ByBlock
  2

 70
0
 40
1.0
 71
1
 41
1.0
 91
-1023410177
 42
1.0
 72
1
  3

 73
1
 74
1
 75
1
 44
0.5
 73
0
 45
1.0
 46
1.0
 77
1
  4

 78
1
 79
1
170
1
 48
1.0
171
1
  6

172
1
173
1
174
1
140
1.0
141
1.0
175
1
  7

176
1
177
1
178
1
143
1.0
179
1
  8

270
1
271
1
272
1
145
1.0
146
1.0
273
1
  9

274
1
275
1
276
1
 42
1.0
 72
1
  3

 73
1
 74
1
 75
1
 94
63
  0
MATERIAL
  5
20
102
{ACAD_REACTORS
330
E
102
}
330
E
100
AcDbMaterial
  1
ByLayer
  2

 70
0
 40
1.0
 71
1
 41
1.0
 91
-1023410177
 42
1.0
 72
1
  3

 73
1
 74
1
 75
1
 44
0.5
 73
0
 45
1.0
 46
1.0
 77
1
  4

 78
1
 79
1
170
1
 48
1.0
171
1
  6

172
1
173
1
174
1
140
1.0
141
1.0
175
1
  7

176
1
177
1
178
1
143
1.0
179
1
  8

270
1
271
1
272
1
145
1.0
146
1.0
273
1
  9

274
1
275
1
276
1
 42
1.0
 72
1
  3

 73
1
 74
1
 75
1
 94
63
  0
MATERIAL
  5
21
102
{ACAD_REACTORS
330
E
102
}
330
E
100
AcDbMaterial
  1
Global
  2

 70
0
 40
1.0
 71
1
 41
1.0
 91
-1023410177
 42
1.0
 72
1
  3

 73
1
 74
1
 75
1
 44
0.5
 73
0
 45
1.0
 46
1.0
 77
1
  4

 78
1
 79
1
170
1
 48
1.0
171
1
  6

172
1
173
1
174
1
140
1.0
141
1.0
175
1
  7

176
1
177
1
178
1
143
1.0
179
1
  8

270
1
271
1
272
1
145
1.0
146
1.0
273
1
  9

274
1
275
1
276
1
 42
1.0
 72
1
  3

 73
1
 74
1
 75
1
 94
63
  0
MLINESTYLE
  5
22
102
{ACAD_REACTORS
330
10
102
}
330
10
100
AcDbMlineStyle
  2
Standard
 70
0
  3

 62
256
 51
90.0
 52
90.0
 71
2
 49
0.5
 62
256
  6
BYLAYER
 49
-0.5
 62
256
  6
BYLAYER
  0
MLEADERSTYLE
  5
2C
102
{ACAD_REACTORS
330
F
102
}
330
F
100
AcDbMLeaderStyle
179
2
170
2
171
1
172
0
 90
2
 40
0.0
 41
0.0
173
1
 91
-1056964608
 92
-2
290
1
 42
2.0
291
1
 43
8.0
  3
Standard
 44
4.0
300

342
29
174
1
175
1
176
0
178
1
 93
-1056964608
 45
4.0
292
0
297
0
 46
4.0
 94
-1056964608
 47
1.0
 49
1.0
140
1.0
294
1
141
0.0
177
0
142
1.0
295
0
296
0
143
3.75
271
0
272
9
273
9
  0
DICTIONARY
  5
2D
330
A
100
AcDbDictionary
280
1
281
1
  3
CREATED_BY_EZDXF
350
2E
  3
WRITTEN_BY_EZDXF
350
170
  0
DICTIONARYVAR
  5
2E
330
2D
100
DictionaryVariables
280
0
  1
1.4.2 @ 2025-07-30T15:13:13.435271+00:00
  0
DICTIONARYVAR
  5
170
330
2D
100
DictionaryVariables
280
0
  1
1.4.2 @ 2025-07-30T15:13:13.450897+00:00
  0
ENDSEC
  0
EOF
