  0
SECTION
  2
HEADER
  9
$ACADVER
  1
AC1024
  9
$ACADMAINTVER
 70
6
  9
$DWGCODEPAGE
  3
ANSI_1252
  9
$LASTSAVEDBY
  1
ezdxf
  9
$INSBASE
 10
0.0
 20
0.0
 30
0.0
  9
$EXTMIN
 10
1e+20
 20
1e+20
 30
1e+20
  9
$EXTMAX
 10
-1e+20
 20
-1e+20
 30
-1e+20
  9
$LIMMIN
 10
0.0
 20
0.0
  9
$LIMMAX
 10
420.0
 20
297.0
  9
$ORTHOMODE
 70
0
  9
$REGENMODE
 70
1
  9
$FILLMODE
 70
1
  9
$QTEXTMODE
 70
0
  9
$MIRRTEXT
 70
1
  9
$LTSCALE
 40
1.0
  9
$ATTMODE
 70
1
  9
$TEXTSIZE
 40
2.5
  9
$TRACEWID
 40
1.0
  9
$TEXTSTYLE
  7
Standard
  9
$CLAYER
  8
0
  9
$CELTYPE
  6
ByLayer
  9
$CECOLOR
 62
256
  9
$CELTSCALE
 40
1.0
  9
$DISPSILH
 70
0
  9
$DIMSCALE
 40
1.0
  9
$DIMASZ
 40
2.5
  9
$DIMEXO
 40
0.625
  9
$DIMDLI
 40
3.75
  9
$DIMRND
 40
0.0
  9
$DIMDLE
 40
0.0
  9
$DIMEXE
 40
1.25
  9
$DIMTP
 40
0.0
  9
$DIMTM
 40
0.0
  9
$DIMTXT
 40
2.5
  9
$DIMCEN
 40
2.5
  9
$DIMTSZ
 40
0.0
  9
$DIMTOL
 70
0
  9
$DIMLIM
 70
0
  9
$DIMTIH
 70
0
  9
$DIMTOH
 70
0
  9
$DIMSE1
 70
0
  9
$DIMSE2
 70
0
  9
$DIMTAD
 70
1
  9
$DIMZIN
 70
8
  9
$DIMBLK
  1

  9
$DIMASO
 70
1
  9
$DIMSHO
 70
1
  9
$DIMPOST
  1

  9
$DIMAPOST
  1

  9
$DIMALT
 70
0
  9
$DIMALTD
 70
3
  9
$DIMALTF
 40
0.03937007874
  9
$DIMLFAC
 40
1.0
  9
$DIMTOFL
 70
1
  9
$DIMTVP
 40
0.0
  9
$DIMTIX
 70
0
  9
$DIMSOXD
 70
0
  9
$DIMSAH
 70
0
  9
$DIMBLK1
  1

  9
$DIMBLK2
  1

  9
$DIMSTYLE
  2
ISO-25
  9
$DIMCLRD
 70
0
  9
$DIMCLRE
 70
0
  9
$DIMCLRT
 70
0
  9
$DIMTFAC
 40
1.0
  9
$DIMGAP
 40
0.625
  9
$DIMJUST
 70
0
  9
$DIMSD1
 70
0
  9
$DIMSD2
 70
0
  9
$DIMTOLJ
 70
0
  9
$DIMTZIN
 70
8
  9
$DIMALTZ
 70
0
  9
$DIMALTTZ
 70
0
  9
$DIMUPT
 70
0
  9
$DIMDEC
 70
2
  9
$DIMTDEC
 70
2
  9
$DIMALTU
 70
2
  9
$DIMALTTD
 70
3
  9
$DIMTXSTY
  7
Standard
  9
$DIMAUNIT
 70
0
  9
$DIMADEC
 70
0
  9
$DIMALTRND
 40
0.0
  9
$DIMAZIN
 70
0
  9
$DIMDSEP
 70
44
  9
$DIMATFIT
 70
3
  9
$DIMFRAC
 70
0
  9
$DIMLDRBLK
  1

  9
$DIMLUNIT
 70
2
  9
$DIMLWD
 70
-2
  9
$DIMLWE
 70
-2
  9
$DIMTMOVE
 70
0
  9
$DIMFXL
 40
1.0
  9
$DIMFXLON
 70
0
  9
$DIMJOGANG
 40
0.785398163397
  9
$DIMTFILL
 70
0
  9
$DIMTFILLCLR
 70
0
  9
$DIMARCSYM
 70
0
  9
$DIMLTYPE
  6

  9
$DIMLTEX1
  6

  9
$DIMLTEX2
  6

  9
$DIMTXTDIRECTION
 70
0
  9
$LUNITS
 70
2
  9
$LUPREC
 70
4
  9
$SKETCHINC
 40
1.0
  9
$FILLETRAD
 40
10.0
  9
$AUNITS
 70
0
  9
$AUPREC
 70
2
  9
$MENU
  1
.
  9
$ELEVATION
 40
0.0
  9
$PELEVATION
 40
0.0
  9
$THICKNESS
 40
0.0
  9
$LIMCHECK
 70
0
  9
$CHAMFERA
 40
0.0
  9
$CHAMFERB
 40
0.0
  9
$CHAMFERC
 40
0.0
  9
$CHAMFERD
 40
0.0
  9
$SKPOLY
 70
0
  9
$TDCREATE
 40
2460887.5086574075
  9
$TDUCREATE
 40
2458532.153996898
  9
$TDUPDATE
 40
2460887.5086574075
  9
$TDUUPDATE
 40
2458532.1544311
  9
$TDINDWG
 40
0.0
  9
$TDUSRTIMER
 40
0.0
  9
$USRTIMER
 70
1
  9
$ANGBASE
 50
0.0
  9
$ANGDIR
 70
0
  9
$PDMODE
 70
0
  9
$PDSIZE
 40
0.0
  9
$PLINEWID
 40
0.0
  9
$SPLFRAME
 70
0
  9
$SPLINETYPE
 70
6
  9
$SPLINESEGS
 70
8
  9
$HANDSEED
  5
F0
  9
$SURFTAB1
 70
6
  9
$SURFTAB2
 70
6
  9
$SURFTYPE
 70
6
  9
$SURFU
 70
6
  9
$SURFV
 70
6
  9
$UCSBASE
  2

  9
$UCSNAME
  2

  9
$UCSORG
 10
0.0
 20
0.0
 30
0.0
  9
$UCSXDIR
 10
1.0
 20
0.0
 30
0.0
  9
$UCSYDIR
 10
0.0
 20
1.0
 30
0.0
  9
$UCSORTHOREF
  2

  9
$UCSORTHOVIEW
 70
0
  9
$UCSORGTOP
 10
0.0
 20
0.0
 30
0.0
  9
$UCSORGBOTTOM
 10
0.0
 20
0.0
 30
0.0
  9
$UCSORGLEFT
 10
0.0
 20
0.0
 30
0.0
  9
$UCSORGRIGHT
 10
0.0
 20
0.0
 30
0.0
  9
$UCSORGFRONT
 10
0.0
 20
0.0
 30
0.0
  9
$UCSORGBACK
 10
0.0
 20
0.0
 30
0.0
  9
$PUCSBASE
  2

  9
$PUCSNAME
  2

  9
$PUCSORG
 10
0.0
 20
0.0
 30
0.0
  9
$PUCSXDIR
 10
1.0
 20
0.0
 30
0.0
  9
$PUCSYDIR
 10
0.0
 20
1.0
 30
0.0
  9
$PUCSORTHOREF
  2

  9
$PUCSORTHOVIEW
 70
0
  9
$PUCSORGTOP
 10
0.0
 20
0.0
 30
0.0
  9
$PUCSORGBOTTOM
 10
0.0
 20
0.0
 30
0.0
  9
$PUCSORGLEFT
 10
0.0
 20
0.0
 30
0.0
  9
$PUCSORGRIGHT
 10
0.0
 20
0.0
 30
0.0
  9
$PUCSORGFRONT
 10
0.0
 20
0.0
 30
0.0
  9
$PUCSORGBACK
 10
0.0
 20
0.0
 30
0.0
  9
$USERI1
 70
0
  9
$USERI2
 70
0
  9
$USERI3
 70
0
  9
$USERI4
 70
0
  9
$USERI5
 70
0
  9
$USERR1
 40
0.0
  9
$USERR2
 40
0.0
  9
$USERR3
 40
0.0
  9
$USERR4
 40
0.0
  9
$USERR5
 40
0.0
  9
$WORLDVIEW
 70
1
  9
$SHADEDGE
 70
3
  9
$SHADEDIF
 70
70
  9
$TILEMODE
 70
1
  9
$MAXACTVP
 70
64
  9
$PINSBASE
 10
0.0
 20
0.0
 30
0.0
  9
$PLIMCHECK
 70
0
  9
$PEXTMIN
 10
1e+20
 20
1e+20
 30
1e+20
  9
$PEXTMAX
 10
-1e+20
 20
-1e+20
 30
-1e+20
  9
$PLIMMIN
 10
0.0
 20
0.0
  9
$PLIMMAX
 10
420.0
 20
297.0
  9
$UNITMODE
 70
0
  9
$VISRETAIN
 70
1
  9
$PLINEGEN
 70
0
  9
$PSLTSCALE
 70
1
  9
$TREEDEPTH
 70
3020
  9
$CMLSTYLE
  2
Standard
  9
$CMLJUST
 70
0
  9
$CMLSCALE
 40
20.0
  9
$PROXYGRAPHICS
 70
1
  9
$MEASUREMENT
 70
1
  9
$CELWEIGHT
370
-1
  9
$ENDCAPS
280
0
  9
$JOINSTYLE
280
0
  9
$LWDISPLAY
290
0
  9
$INSUNITS
 70
6
  9
$HYPERLINKBASE
  1

  9
$STYLESHEET
  1

  9
$XEDIT
290
1
  9
$CEPSNTYPE
380
0
  9
$PSTYLEMODE
290
1
  9
$FINGERPRINTGUID
  2
{240ED4DD-245A-4316-AED5-715037CFC51E}
  9
$VERSIONGUID
  2
{AB73C255-2743-4E47-B63F-A393A3E71104}
  9
$EXTNAMES
290
1
  9
$PSVPSCALE
 40
0.0
  9
$OLESTARTUP
290
0
  9
$SORTENTS
280
127
  9
$INDEXCTL
280
0
  9
$HIDETEXT
280
1
  9
$XCLIPFRAME
280
1
  9
$HALOGAP
280
0
  9
$OBSCOLOR
 70
257
  9
$OBSLTYPE
280
0
  9
$INTERSECTIONDISPLAY
280
0
  9
$INTERSECTIONCOLOR
 70
257
  9
$DIMASSOC
280
2
  9
$PROJECTNAME
  1

  9
$CAMERADISPLAY
290
0
  9
$LENSLENGTH
 40
50.0
  9
$CAMERAHEIGHT
 40
0.0
  9
$STEPSPERSEC
 40
24.0
  9
$STEPSIZE
 40
100.0
  9
$3DDWFPREC
 40
2.0
  9
$PSOLWIDTH
 40
0.005
  9
$PSOLHEIGHT
 40
0.08
  9
$LOFTANG1
 40
1.570796326795
  9
$LOFTANG2
 40
1.570796326795
  9
$LOFTMAG1
 40
0.0
  9
$LOFTMAG2
 40
0.0
  9
$LOFTPARAM
 70
7
  9
$LOFTNORMALS
280
1
  9
$LATITUDE
 40
37.795
  9
$LONGITUDE
 40
-122.394
  9
$NORTHDIRECTION
 40
0.0
  9
$TIMEZONE
 70
-8000
  9
$LIGHTGLYPHDISPLAY
280
1
  9
$TILEMODELIGHTSYNCH
280
1
  9
$CMATERIAL
347
20
  9
$SOLIDHIST
280
0
  9
$SHOWHIST
280
1
  9
$DWFFRAME
280
2
  9
$DGNFRAME
280
2
  9
$REALWORLDSCALE
290
1
  9
$INTERFERECOLOR
 62
256
  9
$CSHADOW
280
0
  9
$SHADOWPLANELOCATION
 40
0.0
  0
ENDSEC
  0
SECTION
  2
CLASSES
  0
CLASS
  1
ACDBDICTIONARYWDFLT
  2
AcDbDictionaryWithDefault
  3
ObjectDBX Classes
 90
0
 91
0
280
0
281
0
  0
CLASS
  1
SUN
  2
AcDbSun
  3
SCENEOE
 90
1153
 91
0
280
0
281
0
  0
CLASS
  1
VISUALSTYLE
  2
AcDbVisualStyle
  3
ObjectDBX Classes
 90
4095
 91
0
280
0
281
0
  0
CLASS
  1
MATERIAL
  2
AcDbMaterial
  3
ObjectDBX Classes
 90
1153
 91
0
280
0
281
0
  0
CLASS
  1
SCALE
  2
AcDbScale
  3
ObjectDBX Classes
 90
1153
 91
0
280
0
281
0
  0
CLASS
  1
TABLESTYLE
  2
AcDbTableStyle
  3
ObjectDBX Classes
 90
4095
 91
0
280
0
281
0
  0
CLASS
  1
MLEADERSTYLE
  2
AcDbMLeaderStyle
  3
ACDB_MLEADERSTYLE_CLASS
 90
4095
 91
0
280
0
281
0
  0
CLASS
  1
DICTIONARYVAR
  2
AcDbDictionaryVar
  3
ObjectDBX Classes
 90
0
 91
0
280
0
281
0
  0
CLASS
  1
CELLSTYLEMAP
  2
AcDbCellStyleMap
  3
ObjectDBX Classes
 90
1152
 91
0
280
0
281
0
  0
CLASS
  1
MENTALRAYRENDERSETTINGS
  2
AcDbMentalRayRenderSettings
  3
SCENEOE
 90
1024
 91
0
280
0
281
0
  0
CLASS
  1
ACDBDETAILVIEWSTYLE
  2
AcDbDetailViewStyle
  3
ObjectDBX Classes
 90
1025
 91
0
280
0
281
0
  0
CLASS
  1
ACDBSECTIONVIEWSTYLE
  2
AcDbSectionViewStyle
  3
ObjectDBX Classes
 90
1025
 91
0
280
0
281
0
  0
CLASS
  1
RASTERVARIABLES
  2
AcDbRasterVariables
  3
ISM
 90
0
 91
0
280
0
281
0
  0
CLASS
  1
LAYOUT
  2
AcDbLayout
  3
ObjectDBX Classes
 90
0
 91
0
280
0
281
0
  0
CLASS
  1
ACDBPLACEHOLDER
  2
AcDbPlaceHolder
  3
ObjectDBX Classes
 90
0
 91
0
280
0
281
0
  0
ENDSEC
  0
SECTION
  2
TABLES
  0
TABLE
  2
VPORT
  5
8
330
0
100
AcDbSymbolTable
 70
1
  0
VPORT
  5
23
330
8
100
AcDbSymbolTableRecord
100
AcDbViewportTableRecord
  2
*Active
 70
0
 10
0.0
 20
0.0
 11
1.0
 21
1.0
 12
0.0
 22
0.0
 13
0.0
 23
0.0
 14
0.5
 24
0.5
 15
0.5
 25
0.5
 16
0.0
 26
0.0
 36
1.0
 17
0.0
 27
0.0
 37
0.0
 40
1000.0
 41
1.34
 42
50.0
 43
0.0
 44
0.0
 50
0.0
 51
0.0
 71
0
 72
1000
 73
1
 74
3
 75
0
 76
0
 77
0
 78
0
281
0
 65
0
146
0.0
  0
ENDTAB
  0
TABLE
  2
LTYPE
  5
2
330
0
100
AcDbSymbolTable
 70
3
  0
LTYPE
  5
24
330
2
100
AcDbSymbolTableRecord
100
AcDbLinetypeTableRecord
  2
ByBlock
 70
0
  3

 72
65
 73
0
 40
0.0
  0
LTYPE
  5
25
330
2
100
AcDbSymbolTableRecord
100
AcDbLinetypeTableRecord
  2
ByLayer
 70
0
  3

 72
65
 73
0
 40
0.0
  0
LTYPE
  5
26
330
2
100
AcDbSymbolTableRecord
100
AcDbLinetypeTableRecord
  2
Continuous
 70
0
  3

 72
65
 73
0
 40
0.0
  0
ENDTAB
  0
TABLE
  2
LAYER
  5
1
330
0
100
AcDbSymbolTable
 70
2
  0
LAYER
  5
27
330
1
100
AcDbSymbolTableRecord
100
AcDbLayerTableRecord
  2
0
 70
0
 62
7
  6
Continuous
370
-3
390
13
347
21
  0
LAYER
  5
28
330
1
100
AcDbSymbolTableRecord
100
AcDbLayerTableRecord
  2
Defpoints
 70
0
 62
7
  6
Continuous
290
0
370
-3
390
13
347
21
  0
ENDTAB
  0
TABLE
  2
STYLE
  5
5
330
0
100
AcDbSymbolTable
 70
1
  0
STYLE
  5
29
330
5
100
AcDbSymbolTableRecord
100
AcDbTextStyleTableRecord
  2
Standard
 70
0
 40
0.0
 41
1.0
 50
0.0
 71
0
 42
2.5
  3
txt
  4

  0
ENDTAB
  0
TABLE
  2
VIEW
  5
7
330
0
100
AcDbSymbolTable
 70
0
  0
ENDTAB
  0
TABLE
  2
UCS
  5
6
330
0
100
AcDbSymbolTable
 70
0
  0
ENDTAB
  0
TABLE
  2
APPID
  5
3
330
0
100
AcDbSymbolTable
 70
3
  0
APPID
  5
2A
330
3
100
AcDbSymbolTableRecord
100
AcDbRegAppTableRecord
  2
ACAD
 70
0
  0
APPID
  5
ED
330
3
100
AcDbSymbolTableRecord
100
AcDbRegAppTableRecord
  2
HATCHBACKGROUNDCOLOR
 70
0
  0
APPID
  5
EE
330
3
100
AcDbSymbolTableRecord
100
AcDbRegAppTableRecord
  2
EZDXF
 70
0
  0
ENDTAB
  0
TABLE
  2
DIMSTYLE
  5
4
330
0
100
AcDbSymbolTable
 70
1
100
AcDbDimStyleTable
  0
DIMSTYLE
105
2B
330
4
100
AcDbSymbolTableRecord
100
AcDbDimStyleTableRecord
  2
Standard
 70
0
 40
1.0
 41
2.5
 42
0.625
 43
3.75
 44
1.25
 45
0.0
 46
0.0
 47
0.0
 48
0.0
 49
2.5
140
2.5
141
2.5
142
0.0
143
0.03937007874
144
1.0
145
0.0
146
1.0
147
0.625
148
0.0
 69
0
 70
0
 71
0
 72
0
 73
0
 74
0
 75
0
 76
0
 77
1
 78
8
 79
3
170
0
171
3
172
1
173
0
174
0
175
0
176
0
177
0
178
0
179
2
271
2
272
2
273
2
274
3
275
0
276
0
277
2
278
44
279
0
280
0
281
0
282
0
283
0
284
8
285
0
286
0
288
0
289
3
290
0
371
-2
372
-2
  0
ENDTAB
  0
TABLE
  2
BLOCK_RECORD
  5
9
330
0
100
AcDbSymbolTable
 70
2
  0
BLOCK_RECORD
  5
17
330
9
100
AcDbSymbolTableRecord
100
AcDbBlockTableRecord
  2
*Model_Space
340
1A
 70
0
280
1
281
0
  0
BLOCK_RECORD
  5
1B
330
9
100
AcDbSymbolTableRecord
100
AcDbBlockTableRecord
  2
*Paper_Space
340
1E
 70
0
280
1
281
0
  0
ENDTAB
  0
ENDSEC
  0
SECTION
  2
BLOCKS
  0
BLOCK
  5
18
330
17
100
AcDbEntity
  8
0
100
AcDbBlockBegin
  2
*Model_Space
 70
0
 10
0.0
 20
0.0
 30
0.0
  3
*Model_Space
  1

  0
ENDBLK
  5
19
330
17
100
AcDbEntity
  8
0
100
AcDbBlockEnd
  0
BLOCK
  5
1C
330
1B
100
AcDbEntity
  8
0
100
AcDbBlockBegin
  2
*Paper_Space
 70
0
 10
0.0
 20
0.0
 30
0.0
  3
*Paper_Space
  1

  0
ENDBLK
  5
1D
330
1B
100
AcDbEntity
  8
0
100
AcDbBlockEnd
  0
ENDSEC
  0
SECTION
  2
ENTITIES
  0
LWPOLYLINE
  5
2F
330
17
100
AcDbEntity
  8
0
100
AcDbPolyline
 90
19
 70
1
 10
2.4750715517688024
 20
0.43324371884460117
 10
7.32692594053674
 20
0.5809738302903765
 10
13.02689657159341
 20
0.4458813084984113
 10
13.903242541941731
 20
0.5816521455945438
 10
14.347636111471584
 20
0.8220854104956153
 10
14.630125285963773
 20
1.328303281095674
 10
14.749453249966873
 20
2.30500057031171
 10
14.623829911661153
 20
14.611084688501695
 10
2.231924240181602
 20
14.75361002320556
 10
1.3360131415184533
 20
14.636737707044563
 10
0.7486967918932833
 20
14.240132919906365
 10
0.5368725382141585
 20
13.740620625432424
 10
0.4355401796568892
 20
12.66553438875446
 10
0.5817060568029443
 20
7.854733287706452
 10
0.45569339987488533
 20
2.096174810784005
 10
0.5752565847963764
 20
1.3027086612014895
 10
0.80679851770401
 20
0.8573096394538879
 10
1.3862658213026047
 20
0.5466065389980053
 10
2.4750715517688024
 20
0.43324371884460117
  0
LWPOLYLINE
  5
30
330
17
100
AcDbEntity
  8
0
100
AcDbPolyline
 90
19
 70
1
 10
2.4750715517688024
 20
0.43324371884460117
 10
7.32692594053674
 20
0.5809738302903765
 10
13.02689657159341
 20
0.4458813084984113
 10
13.903242541941731
 20
0.5816521455945438
 10
14.347636111471584
 20
0.8220854104956153
 10
14.630125285963773
 20
1.328303281095674
 10
14.749453249966873
 20
2.30500057031171
 10
14.623829911661153
 20
14.611084688501695
 10
2.231924240181602
 20
14.75361002320556
 10
1.3360131415184533
 20
14.636737707044563
 10
0.7486967918932833
 20
14.240132919906365
 10
0.5368725382141585
 20
13.740620625432424
 10
0.4355401796568892
 20
12.66553438875446
 10
0.5817060568029443
 20
7.854733287706452
 10
0.45569339987488533
 20
2.096174810784005
 10
0.5752565847963764
 20
1.3027086612014895
 10
0.80679851770401
 20
0.8573096394538879
 10
1.3862658213026047
 20
0.5466065389980053
 10
2.4750715517688024
 20
0.43324371884460117
  0
LINE
  5
31
330
17
100
AcDbEntity
  8
0
100
AcDbLine
 10
2.5928489565849304
 20
0.8348133333333329
 30
0.0
 11
2.5928489565849304
 21
1.7748133333333356
 31
0.0
  0
LINE
  5
32
330
17
100
AcDbEntity
  8
0
100
AcDbLine
 10
2.5928489565849304
 20
0.8348133333333329
 30
0.0
 11
2.5928489565849304
 21
1.7748133333333356
 31
0.0
  0
LINE
  5
33
330
17
100
AcDbEntity
  8
0
100
AcDbLine
 10
2.5928489565849304
 20
1.7748133333333356
 30
0.0
 11
2.5928489565849304
 21
2.1390000000000007
 31
0.0
  0
LINE
  5
34
330
17
100
AcDbEntity
  8
0
100
AcDbLine
 10
2.5928489565849304
 20
2.6346792079207915
 30
0.0
 11
2.5928489565849304
 21
3.571028208744713
 31
0.0
  0
LINE
  5
35
330
17
100
AcDbEntity
  8
0
100
AcDbLine
 10
2.5928489565849304
 20
3.571028208744713
 30
0.0
 11
2.5928489565849304
 21
3.9389633774160737
 31
0.0
  0
LINE
  5
36
330
17
100
AcDbEntity
  8
0
100
AcDbLine
 10
2.5928489565849304
 20
4.435
 30
0.0
 11
2.5928489565849304
 21
5.5150000000000015
 31
0.0
  0
LINE
  5
37
330
17
100
AcDbEntity
  8
0
100
AcDbLine
 10
2.5928489565849304
 20
5.5150000000000015
 30
0.0
 11
2.5928489565849304
 21
5.739
 31
0.0
  0
LINE
  5
38
330
17
100
AcDbEntity
  8
0
100
AcDbLine
 10
2.5928489565849304
 20
6.234444933920704
 30
0.0
 11
2.5928489565849304
 21
6.809334801762119
 31
0.0
  0
LINE
  5
39
330
17
100
AcDbEntity
  8
0
100
AcDbLine
 10
2.5928489565849304
 20
6.809334801762119
 30
0.0
 11
2.5928489565849304
 21
7.539000000000001
 31
0.0
  0
LINE
  5
3A
330
17
100
AcDbEntity
  8
0
100
AcDbLine
 10
2.5928489565849304
 20
8.034942386831275
 30
0.0
 11
2.5928489565849304
 21
8.403917900403766
 31
0.0
  0
LINE
  5
3B
330
17
100
AcDbEntity
  8
0
100
AcDbLine
 10
2.5928489565849304
 20
8.403917900403766
 30
0.0
 11
2.5928489565849304
 21
9.323148409893987
 31
0.0
  0
LINE
  5
3C
330
17
100
AcDbEntity
  8
0
100
AcDbLine
 10
2.5928489565849304
 20
9.323148409893987
 30
0.0
 11
2.5928489565849304
 21
9.339047619047621
 31
0.0
  0
LINE
  5
3D
330
17
100
AcDbEntity
  8
0
100
AcDbLine
 10
2.5928489565849304
 20
9.834999999999999
 30
0.0
 11
2.5928489565849304
 21
10.989031602708806
 31
0.0
  0
LINE
  5
3E
330
17
100
AcDbEntity
  8
0
100
AcDbLine
 10
2.5928489565849304
 20
10.989031602708806
 30
0.0
 11
2.5928489565849304
 21
11.138918735891648
 31
0.0
  0
LINE
  5
3F
330
17
100
AcDbEntity
  8
0
100
AcDbLine
 10
2.5928489565849304
 20
11.634864077669903
 30
0.0
 11
2.5928489565849304
 21
12.681789644012948
 31
0.0
  0
LINE
  5
40
330
17
100
AcDbEntity
  8
0
100
AcDbLine
 10
2.5928489565849304
 20
12.681789644012948
 30
0.0
 11
2.5928489565849304
 21
12.939
 31
0.0
  0
LINE
  5
41
330
17
100
AcDbEntity
  8
0
100
AcDbLine
 10
2.5928489565849304
 20
13.43475147928994
 30
0.0
 11
2.5928489565849304
 21
13.6591978021978
 31
0.0
  0
LINE
  5
42
330
17
100
AcDbEntity
  8
0
100
AcDbLine
 10
2.5928489565849304
 20
13.6591978021978
 30
0.0
 11
2.5928489565849304
 21
14.446615384615386
 31
0.0
  0
LINE
  5
43
330
17
100
AcDbEntity
  8
0
100
AcDbLine
 10
5.09284895658493
 20
0.9139190751445082
 30
0.0
 11
5.09284895658493
 21
1.80698265895954
 31
0.0
  0
LINE
  5
44
330
17
100
AcDbEntity
  8
0
100
AcDbLine
 10
5.09284895658493
 20
0.9139190751445082
 30
0.0
 11
5.09284895658493
 21
1.80698265895954
 31
0.0
  0
LINE
  5
45
330
17
100
AcDbEntity
  8
0
100
AcDbLine
 10
5.09284895658493
 20
1.80698265895954
 30
0.0
 11
5.09284895658493
 21
2.2180000000000004
 31
0.0
  0
LINE
  5
46
330
17
100
AcDbEntity
  8
0
100
AcDbLine
 10
5.09284895658493
 20
2.713108108108108
 30
0.0
 11
5.09284895658493
 21
3.901007949125599
 31
0.0
  0
LINE
  5
47
330
17
100
AcDbEntity
  8
0
100
AcDbLine
 10
5.09284895658493
 20
3.901007949125599
 30
0.0
 11
5.09284895658493
 21
4.018000000000001
 31
0.0
  0
LINE
  5
48
330
17
100
AcDbEntity
  8
0
100
AcDbLine
 10
5.09284895658493
 20
4.514
 30
0.0
 11
5.09284895658493
 21
4.737999999999999
 31
0.0
  0
LINE
  5
49
330
17
100
AcDbEntity
  8
0
100
AcDbLine
 10
5.09284895658493
 20
4.737999999999999
 30
0.0
 11
5.09284895658493
 21
5.8180000000000005
 31
0.0
  0
LINE
  5
4A
330
17
100
AcDbEntity
  8
0
100
AcDbLine
 10
5.09284895658493
 20
6.3136443418013855
 30
0.0
 11
5.09284895658493
 21
6.8436674364896115
 31
0.0
  0
LINE
  5
4B
330
17
100
AcDbEntity
  8
0
100
AcDbLine
 10
5.09284895658493
 20
6.8436674364896115
 30
0.0
 11
5.09284895658493
 21
7.618
 31
0.0
  0
LINE
  5
4C
330
17
100
AcDbEntity
  8
0
100
AcDbLine
 10
5.09284895658493
 20
8.113724288840263
 30
0.0
 11
5.09284895658493
 21
9.154205689277902
 31
0.0
  0
LINE
  5
4D
330
17
100
AcDbEntity
  8
0
100
AcDbLine
 10
5.09284895658493
 20
9.154205689277902
 30
0.0
 11
5.09284895658493
 21
9.418000000000001
 31
0.0
  0
LINE
  5
4E
330
17
100
AcDbEntity
  8
0
100
AcDbLine
 10
5.09284895658493
 20
9.914
 30
0.0
 11
5.09284895658493
 21
11.028778366914105
 31
0.0
  0
LINE
  5
4F
330
17
100
AcDbEntity
  8
0
100
AcDbLine
 10
5.09284895658493
 20
11.028778366914105
 30
0.0
 11
5.09284895658493
 21
11.217961823966066
 31
0.0
  0
LINE
  5
50
330
17
100
AcDbEntity
  8
0
100
AcDbLine
 10
5.09284895658493
 20
11.714
 30
0.0
 11
5.09284895658493
 21
12.794000000000002
 31
0.0
  0
LINE
  5
51
330
17
100
AcDbEntity
  8
0
100
AcDbLine
 10
5.09284895658493
 20
12.794000000000002
 30
0.0
 11
5.09284895658493
 21
13.018
 31
0.0
  0
LINE
  5
52
330
17
100
AcDbEntity
  8
0
100
AcDbLine
 10
5.09284895658493
 20
13.513411003236246
 30
0.0
 11
5.09284895658493
 21
14.191051779935279
 31
0.0
  0
LINE
  5
53
330
17
100
AcDbEntity
  8
0
100
AcDbLine
 10
5.09284895658493
 20
14.191051779935279
 30
0.0
 11
5.09284895658493
 21
14.406080000000003
 31
0.0
  0
LINE
  5
54
330
17
100
AcDbEntity
  8
0
100
AcDbLine
 10
7.59284895658493
 20
0.9727199999999996
 30
0.0
 11
7.59284895658493
 21
2.0530000000000017
 31
0.0
  0
LINE
  5
55
330
17
100
AcDbEntity
  8
0
100
AcDbLine
 10
7.59284895658493
 20
0.9727199999999996
 30
0.0
 11
7.59284895658493
 21
2.0530000000000017
 31
0.0
  0
LINE
  5
56
330
17
100
AcDbEntity
  8
0
100
AcDbLine
 10
7.59284895658493
 20
2.0530000000000017
 30
0.0
 11
7.59284895658493
 21
2.2770000000000006
 31
0.0
  0
LINE
  5
57
330
17
100
AcDbEntity
  8
0
100
AcDbLine
 10
7.59284895658493
 20
2.772287917737789
 30
0.0
 11
7.59284895658493
 21
3.1900139534883682
 31
0.0
  0
LINE
  5
58
330
17
100
AcDbEntity
  8
0
100
AcDbLine
 10
7.59284895658493
 20
3.1900139534883682
 30
0.0
 11
7.59284895658493
 21
4.076566484517305
 31
0.0
  0
LINE
  5
59
330
17
100
AcDbEntity
  8
0
100
AcDbLine
 10
7.59284895658493
 20
4.57272
 30
0.0
 11
7.59284895658493
 21
4.796999999999999
 31
0.0
  0
LINE
  5
5A
330
17
100
AcDbEntity
  8
0
100
AcDbLine
 10
7.59284895658493
 20
4.796999999999999
 30
0.0
 11
7.59284895658493
 21
5.877000000000001
 31
0.0
  0
LINE
  5
5B
330
17
100
AcDbEntity
  8
0
100
AcDbLine
 10
7.59284895658493
 20
6.3724378585086034
 30
0.0
 11
7.59284895658493
 21
7.069378585086046
 31
0.0
  0
LINE
  5
5C
330
17
100
AcDbEntity
  8
0
100
AcDbLine
 10
7.59284895658493
 20
7.069378585086046
 30
0.0
 11
7.59284895658493
 21
7.072600000000004
 31
0.0
  0
LINE
  5
5D
330
17
100
AcDbEntity
  8
0
100
AcDbLine
 10
7.59284895658493
 20
7.072600000000004
 30
0.0
 11
7.59284895658493
 21
7.180864909390448
 31
0.0
  0
LINE
  5
5E
330
17
100
AcDbEntity
  8
0
100
AcDbLine
 10
7.59284895658493
 20
7.180864909390448
 30
0.0
 11
7.59284895658493
 21
7.6770000000000005
 31
0.0
  0
LINE
  5
5F
330
17
100
AcDbEntity
  8
0
100
AcDbLine
 10
7.59284895658493
 20
8.172405281285878
 30
0.0
 11
7.59284895658493
 21
9.190200918484503
 31
0.0
  0
LINE
  5
60
330
17
100
AcDbEntity
  8
0
100
AcDbLine
 10
7.59284895658493
 20
9.190200918484503
 30
0.0
 11
7.59284895658493
 21
9.477
 31
0.0
  0
LINE
  5
61
330
17
100
AcDbEntity
  8
0
100
AcDbLine
 10
7.59284895658493
 20
9.972
 30
0.0
 11
7.59284895658493
 21
11.165215053763442
 31
0.0
  0
LINE
  5
62
330
17
100
AcDbEntity
  8
0
100
AcDbLine
 10
7.59284895658493
 20
11.165215053763442
 30
0.0
 11
7.59284895658493
 21
11.277043010752688
 31
0.0
  0
LINE
  5
63
330
17
100
AcDbEntity
  8
0
100
AcDbLine
 10
7.59284895658493
 20
11.77272
 30
0.0
 11
7.59284895658493
 21
12.853000000000002
 31
0.0
  0
LINE
  5
64
330
17
100
AcDbEntity
  8
0
100
AcDbLine
 10
7.59284895658493
 20
12.853000000000002
 30
0.0
 11
7.59284895658493
 21
13.077000000000002
 31
0.0
  0
LINE
  5
65
330
17
100
AcDbEntity
  8
0
100
AcDbLine
 10
7.59284895658493
 20
13.572560975609756
 30
0.0
 11
7.59284895658493
 21
14.163121951219514
 31
0.0
  0
LINE
  5
66
330
17
100
AcDbEntity
  8
0
100
AcDbLine
 10
7.59284895658493
 20
14.163121951219514
 30
0.0
 11
7.59284895658493
 21
14.40330864197531
 31
0.0
  0
LINE
  5
67
330
17
100
AcDbEntity
  8
0
100
AcDbLine
 10
10.09284895658493
 20
0.9127777777777774
 30
0.0
 11
10.09284895658493
 21
1.8067171717171742
 31
0.0
  0
LINE
  5
68
330
17
100
AcDbEntity
  8
0
100
AcDbLine
 10
10.09284895658493
 20
0.9127777777777774
 30
0.0
 11
10.09284895658493
 21
1.8067171717171742
 31
0.0
  0
LINE
  5
69
330
17
100
AcDbEntity
  8
0
100
AcDbLine
 10
10.09284895658493
 20
1.8067171717171742
 30
0.0
 11
10.09284895658493
 21
2.2170000000000005
 31
0.0
  0
LINE
  5
6A
330
17
100
AcDbEntity
  8
0
100
AcDbLine
 10
10.09284895658493
 20
2.7129999999999996
 30
0.0
 11
10.09284895658493
 21
3.81031410916581
 31
0.0
  0
LINE
  5
6B
330
17
100
AcDbEntity
  8
0
100
AcDbLine
 10
10.09284895658493
 20
3.81031410916581
 30
0.0
 11
10.09284895658493
 21
4.01711122554068
 31
0.0
  0
LINE
  5
6C
330
17
100
AcDbEntity
  8
0
100
AcDbLine
 10
10.09284895658493
 20
4.513
 30
0.0
 11
10.09284895658493
 21
4.736999999999998
 31
0.0
  0
LINE
  5
6D
330
17
100
AcDbEntity
  8
0
100
AcDbLine
 10
10.09284895658493
 20
4.736999999999998
 30
0.0
 11
10.09284895658493
 21
5.817000000000001
 31
0.0
  0
LINE
  5
6E
330
17
100
AcDbEntity
  8
0
100
AcDbLine
 10
10.09284895658493
 20
6.312447795823665
 30
0.0
 11
10.09284895658493
 21
6.8379698375870115
 31
0.0
  0
LINE
  5
6F
330
17
100
AcDbEntity
  8
0
100
AcDbLine
 10
10.09284895658493
 20
6.8379698375870115
 30
0.0
 11
10.09284895658493
 21
6.842667436489612
 31
0.0
  0
LINE
  5
70
330
17
100
AcDbEntity
  8
0
100
AcDbLine
 10
10.09284895658493
 20
6.842667436489612
 30
0.0
 11
10.09284895658493
 21
7.617
 31
0.0
  0
LINE
  5
71
330
17
100
AcDbEntity
  8
0
100
AcDbLine
 10
10.09284895658493
 20
8.112617486338797
 30
0.0
 11
10.09284895658493
 21
9.153601092896176
 31
0.0
  0
LINE
  5
72
330
17
100
AcDbEntity
  8
0
100
AcDbLine
 10
10.09284895658493
 20
9.153601092896176
 30
0.0
 11
10.09284895658493
 21
9.417000000000002
 31
0.0
  0
LINE
  5
73
330
17
100
AcDbEntity
  8
0
100
AcDbLine
 10
10.09284895658493
 20
9.913
 30
0.0
 11
10.09284895658493
 21
10.343656716417907
 31
0.0
  0
LINE
  5
74
330
17
100
AcDbEntity
  8
0
100
AcDbLine
 10
10.09284895658493
 20
10.343656716417907
 30
0.0
 11
10.09284895658493
 21
10.344865470852016
 31
0.0
  0
LINE
  5
75
330
17
100
AcDbEntity
  8
0
100
AcDbLine
 10
10.09284895658493
 20
10.344865470852016
 30
0.0
 11
10.09284895658493
 21
11.217062780269059
 31
0.0
  0
LINE
  5
76
330
17
100
AcDbEntity
  8
0
100
AcDbLine
 10
10.09284895658493
 20
11.713
 30
0.0
 11
10.09284895658493
 21
12.793000000000001
 31
0.0
  0
LINE
  5
77
330
17
100
AcDbEntity
  8
0
100
AcDbLine
 10
10.09284895658493
 20
12.793000000000001
 30
0.0
 11
10.09284895658493
 21
13.017000000000001
 31
0.0
  0
LINE
  5
78
330
17
100
AcDbEntity
  8
0
100
AcDbLine
 10
10.09284895658493
 20
13.512705977382875
 30
0.0
 11
10.09284895658493
 21
14.178657512116319
 31
0.0
  0
LINE
  5
79
330
17
100
AcDbEntity
  8
0
100
AcDbLine
 10
10.09284895658493
 20
14.178657512116319
 30
0.0
 11
10.09284895658493
 21
14.388520000000002
 31
0.0
  0
LINE
  5
7A
330
17
100
AcDbEntity
  8
0
100
AcDbLine
 10
12.59284895658493
 20
0.8526390773405694
 30
0.0
 11
12.59284895658493
 21
1.782761194029853
 31
0.0
  0
LINE
  5
7B
330
17
100
AcDbEntity
  8
0
100
AcDbLine
 10
12.59284895658493
 20
0.8526390773405694
 30
0.0
 11
12.59284895658493
 21
1.782761194029853
 31
0.0
  0
LINE
  5
7C
330
17
100
AcDbEntity
  8
0
100
AcDbLine
 10
12.59284895658493
 20
1.782761194029853
 30
0.0
 11
12.59284895658493
 21
2.1570000000000005
 31
0.0
  0
LINE
  5
7D
330
17
100
AcDbEntity
  8
0
100
AcDbLine
 10
12.59284895658493
 20
2.6522682926829266
 30
0.0
 11
12.59284895658493
 21
2.7249999999999983
 31
0.0
  0
LINE
  5
7E
330
17
100
AcDbEntity
  8
0
100
AcDbLine
 10
12.59284895658493
 20
2.7249999999999983
 30
0.0
 11
12.59284895658493
 21
3.9570000000000003
 31
0.0
  0
LINE
  5
7F
330
17
100
AcDbEntity
  8
0
100
AcDbLine
 10
12.59284895658493
 20
4.453
 30
0.0
 11
12.59284895658493
 21
4.676999999999999
 31
0.0
  0
LINE
  5
80
330
17
100
AcDbEntity
  8
0
100
AcDbLine
 10
12.59284895658493
 20
4.676999999999999
 30
0.0
 11
12.59284895658493
 21
5.757000000000001
 31
0.0
  0
LINE
  5
81
330
17
100
AcDbEntity
  8
0
100
AcDbLine
 10
12.59284895658493
 20
6.253
 30
0.0
 11
12.59284895658493
 21
6.4769999999999985
 31
0.0
  0
LINE
  5
82
330
17
100
AcDbEntity
  8
0
100
AcDbLine
 10
12.59284895658493
 20
6.4769999999999985
 30
0.0
 11
12.59284895658493
 21
7.557
 31
0.0
  0
LINE
  5
83
330
17
100
AcDbEntity
  8
0
100
AcDbLine
 10
12.59284895658493
 20
8.052912317327767
 30
0.0
 11
12.59284895658493
 21
9.26928005284016
 31
0.0
  0
LINE
  5
84
330
17
100
AcDbEntity
  8
0
100
AcDbLine
 10
12.59284895658493
 20
9.26928005284016
 30
0.0
 11
12.59284895658493
 21
9.357000000000001
 31
0.0
  0
LINE
  5
85
330
17
100
AcDbEntity
  8
0
100
AcDbLine
 10
12.59284895658493
 20
9.852391304347826
 30
0.0
 11
12.59284895658493
 21
10.337898550724644
 31
0.0
  0
LINE
  5
86
330
17
100
AcDbEntity
  8
0
100
AcDbLine
 10
12.59284895658493
 20
10.337898550724644
 30
0.0
 11
12.59284895658493
 21
10.34801435406699
 31
0.0
  0
LINE
  5
87
330
17
100
AcDbEntity
  8
0
100
AcDbLine
 10
12.59284895658493
 20
10.34801435406699
 30
0.0
 11
12.59284895658493
 21
11.157000000000002
 31
0.0
  0
LINE
  5
88
330
17
100
AcDbEntity
  8
0
100
AcDbLine
 10
12.59284895658493
 20
11.652999999999999
 30
0.0
 11
12.59284895658493
 21
12.733
 31
0.0
  0
LINE
  5
89
330
17
100
AcDbEntity
  8
0
100
AcDbLine
 10
12.59284895658493
 20
12.733
 30
0.0
 11
12.59284895658493
 21
12.957
 31
0.0
  0
LINE
  5
8A
330
17
100
AcDbEntity
  8
0
100
AcDbLine
 10
12.59284895658493
 20
13.452556561085974
 30
0.0
 11
12.59284895658493
 21
14.191983408748117
 31
0.0
  0
LINE
  5
8B
330
17
100
AcDbEntity
  8
0
100
AcDbLine
 10
12.59284895658493
 20
14.191983408748117
 30
0.0
 11
12.59284895658493
 21
14.374600000000001
 31
0.0
  0
LINE
  5
8C
330
17
100
AcDbEntity
  8
0
100
AcDbLine
 10
0.7405329153605003
 20
2.5922380685806274
 30
0.0
 11
0.7968457446808499
 21
2.5922380685806274
 31
0.0
  0
LINE
  5
8D
330
17
100
AcDbEntity
  8
0
100
AcDbLine
 10
0.7405329153605003
 20
2.5922380685806274
 30
0.0
 11
0.7968457446808499
 21
2.5922380685806274
 31
0.0
  0
LINE
  5
8E
330
17
100
AcDbEntity
  8
0
100
AcDbLine
 10
0.7968457446808499
 20
2.5922380685806274
 30
0.0
 11
1.5199404388714748
 21
2.5922380685806274
 31
0.0
  0
LINE
  5
8F
330
17
100
AcDbEntity
  8
0
100
AcDbLine
 10
1.5199404388714748
 20
2.5922380685806274
 30
0.0
 11
1.7410000000000005
 21
2.5922380685806274
 31
0.0
  0
LINE
  5
90
330
17
100
AcDbEntity
  8
0
100
AcDbLine
 10
2.2369999999999997
 20
2.5922380685806274
 30
0.0
 11
2.4609999999999985
 21
2.5922380685806274
 31
0.0
  0
LINE
  5
91
330
17
100
AcDbEntity
  8
0
100
AcDbLine
 10
2.4609999999999985
 20
2.5922380685806274
 30
0.0
 11
3.541000000000001
 21
2.5922380685806274
 31
0.0
  0
LINE
  5
92
330
17
100
AcDbEntity
  8
0
100
AcDbLine
 10
4.0367932053175775
 20
2.5922380685806274
 30
0.0
 11
4.994038759689925
 21
2.5922380685806274
 31
0.0
  0
LINE
  5
93
330
17
100
AcDbEntity
  8
0
100
AcDbLine
 10
4.994038759689925
 20
2.5922380685806274
 30
0.0
 11
5.341
 21
2.5922380685806274
 31
0.0
  0
LINE
  5
94
330
17
100
AcDbEntity
  8
0
100
AcDbLine
 10
5.837
 20
2.5922380685806274
 30
0.0
 11
6.024500000000006
 21
2.5922380685806274
 31
0.0
  0
LINE
  5
95
330
17
100
AcDbEntity
  8
0
100
AcDbLine
 10
6.024500000000006
 20
2.5922380685806274
 30
0.0
 11
6.776196261682245
 21
2.5922380685806274
 31
0.0
  0
LINE
  5
96
330
17
100
AcDbEntity
  8
0
100
AcDbLine
 10
6.776196261682245
 20
2.5922380685806274
 30
0.0
 11
7.141
 21
2.5922380685806274
 31
0.0
  0
LINE
  5
97
330
17
100
AcDbEntity
  8
0
100
AcDbLine
 10
7.6370000000000005
 20
2.5922380685806274
 30
0.0
 11
7.860999999999999
 21
2.5922380685806274
 31
0.0
  0
LINE
  5
98
330
17
100
AcDbEntity
  8
0
100
AcDbLine
 10
7.860999999999999
 20
2.5922380685806274
 30
0.0
 11
8.941
 21
2.5922380685806274
 31
0.0
  0
LINE
  5
99
330
17
100
AcDbEntity
  8
0
100
AcDbLine
 10
9.437
 20
2.5922380685806274
 30
0.0
 11
10.517000000000001
 21
2.5922380685806274
 31
0.0
  0
LINE
  5
9A
330
17
100
AcDbEntity
  8
0
100
AcDbLine
 10
10.517000000000001
 20
2.5922380685806274
 30
0.0
 11
10.741000000000001
 21
2.5922380685806274
 31
0.0
  0
LINE
  5
9B
330
17
100
AcDbEntity
  8
0
100
AcDbLine
 10
11.236741573033708
 20
2.5922380685806274
 30
0.0
 11
12.217243697478999
 21
2.5922380685806274
 31
0.0
  0
LINE
  5
9C
330
17
100
AcDbEntity
  8
0
100
AcDbLine
 10
12.217243697478999
 20
2.5922380685806274
 30
0.0
 11
12.540345276872966
 21
2.5922380685806274
 31
0.0
  0
LINE
  5
9D
330
17
100
AcDbEntity
  8
0
100
AcDbLine
 10
12.540345276872966
 20
2.5922380685806274
 30
0.0
 11
12.541239413680783
 21
2.5922380685806274
 31
0.0
  0
LINE
  5
9E
330
17
100
AcDbEntity
  8
0
100
AcDbLine
 10
13.0369
 20
2.5922380685806274
 30
0.0
 11
13.068370629370635
 21
2.5922380685806274
 31
0.0
  0
LINE
  5
9F
330
17
100
AcDbEntity
  8
0
100
AcDbLine
 10
13.068370629370635
 20
2.5922380685806274
 30
0.0
 11
14.341000000000001
 21
2.5922380685806274
 31
0.0
  0
LINE
  5
A0
330
17
100
AcDbEntity
  8
0
100
AcDbLine
 10
0.7609878048780476
 20
5.092238068580627
 30
0.0
 11
1.4705731707317087
 21
5.092238068580627
 31
0.0
  0
LINE
  5
A1
330
17
100
AcDbEntity
  8
0
100
AcDbLine
 10
0.7609878048780476
 20
5.092238068580627
 30
0.0
 11
1.4705731707317087
 21
5.092238068580627
 31
0.0
  0
LINE
  5
A2
330
17
100
AcDbEntity
  8
0
100
AcDbLine
 10
1.4705731707317087
 20
5.092238068580627
 30
0.0
 11
1.6530000000000005
 21
5.092238068580627
 31
0.0
  0
LINE
  5
A3
330
17
100
AcDbEntity
  8
0
100
AcDbLine
 10
2.1489999999999996
 20
5.092238068580627
 30
0.0
 11
2.3729999999999984
 21
5.092238068580627
 31
0.0
  0
LINE
  5
A4
330
17
100
AcDbEntity
  8
0
100
AcDbLine
 10
2.3729999999999984
 20
5.092238068580627
 30
0.0
 11
3.4530000000000007
 21
5.092238068580627
 31
0.0
  0
LINE
  5
A5
330
17
100
AcDbEntity
  8
0
100
AcDbLine
 10
3.9487151799687004
 20
5.092238068580627
 30
0.0
 11
4.791438184663539
 21
5.092238068580627
 31
0.0
  0
LINE
  5
A6
330
17
100
AcDbEntity
  8
0
100
AcDbLine
 10
4.791438184663539
 20
5.092238068580627
 30
0.0
 11
5.253
 21
5.092238068580627
 31
0.0
  0
LINE
  5
A7
330
17
100
AcDbEntity
  8
0
100
AcDbLine
 10
5.748570552147239
 20
5.092238068580627
 30
0.0
 11
6.733233128834358
 21
5.092238068580627
 31
0.0
  0
LINE
  5
A8
330
17
100
AcDbEntity
  8
0
100
AcDbLine
 10
6.733233128834358
 20
5.092238068580627
 30
0.0
 11
7.053
 21
5.092238068580627
 31
0.0
  0
LINE
  5
A9
330
17
100
AcDbEntity
  8
0
100
AcDbLine
 10
7.548488151658767
 20
5.092238068580627
 30
0.0
 11
7.614454976303316
 21
5.092238068580627
 31
0.0
  0
LINE
  5
AA
330
17
100
AcDbEntity
  8
0
100
AcDbLine
 10
7.614454976303316
 20
5.092238068580627
 30
0.0
 11
8.75472
 21
5.092238068580627
 31
0.0
  0
LINE
  5
AB
330
17
100
AcDbEntity
  8
0
100
AcDbLine
 10
8.75472
 20
5.092238068580627
 30
0.0
 11
8.853000000000002
 21
5.092238068580627
 31
0.0
  0
LINE
  5
AC
330
17
100
AcDbEntity
  8
0
100
AcDbLine
 10
9.349
 20
5.092238068580627
 30
0.0
 11
10.429000000000002
 21
5.092238068580627
 31
0.0
  0
LINE
  5
AD
330
17
100
AcDbEntity
  8
0
100
AcDbLine
 10
10.429000000000002
 20
5.092238068580627
 30
0.0
 11
10.653
 21
5.092238068580627
 31
0.0
  0
LINE
  5
AE
330
17
100
AcDbEntity
  8
0
100
AcDbLine
 10
11.14893991416309
 20
5.092238068580627
 30
0.0
 11
11.747652360515026
 21
5.092238068580627
 31
0.0
  0
LINE
  5
AF
330
17
100
AcDbEntity
  8
0
100
AcDbLine
 10
11.747652360515026
 20
5.092238068580627
 30
0.0
 11
11.838027027027032
 21
5.092238068580627
 31
0.0
  0
LINE
  5
B0
330
17
100
AcDbEntity
  8
0
100
AcDbLine
 10
11.838027027027032
 20
5.092238068580627
 30
0.0
 11
12.453000000000001
 21
5.092238068580627
 31
0.0
  0
LINE
  5
B1
330
17
100
AcDbEntity
  8
0
100
AcDbLine
 10
12.949
 20
5.092238068580627
 30
0.0
 11
13.172999999999998
 21
5.092238068580627
 31
0.0
  0
LINE
  5
B2
330
17
100
AcDbEntity
  8
0
100
AcDbLine
 10
13.172999999999998
 20
5.092238068580627
 30
0.0
 11
14.253
 21
5.092238068580627
 31
0.0
  0
LINE
  5
B3
330
17
100
AcDbEntity
  8
0
100
AcDbLine
 10
0.7993996937212853
 20
7.592238068580627
 30
0.0
 11
1.4562909647779492
 21
7.592238068580627
 31
0.0
  0
LINE
  5
B4
330
17
100
AcDbEntity
  8
0
100
AcDbLine
 10
0.7993996937212853
 20
7.592238068580627
 30
0.0
 11
1.4562909647779492
 21
7.592238068580627
 31
0.0
  0
LINE
  5
B5
330
17
100
AcDbEntity
  8
0
100
AcDbLine
 10
1.4562909647779492
 20
7.592238068580627
 30
0.0
 11
1.6280000000000006
 21
7.592238068580627
 31
0.0
  0
LINE
  5
B6
330
17
100
AcDbEntity
  8
0
100
AcDbLine
 10
2.1239999999999997
 20
7.592238068580627
 30
0.0
 11
2.3479999999999985
 21
7.592238068580627
 31
0.0
  0
LINE
  5
B7
330
17
100
AcDbEntity
  8
0
100
AcDbLine
 10
2.3479999999999985
 20
7.592238068580627
 30
0.0
 11
3.428000000000001
 21
7.592238068580627
 31
0.0
  0
LINE
  5
B8
330
17
100
AcDbEntity
  8
0
100
AcDbLine
 10
3.92390114068441
 20
7.592238068580627
 30
0.0
 11
3.955370629370636
 21
7.592238068580627
 31
0.0
  0
LINE
  5
B9
330
17
100
AcDbEntity
  8
0
100
AcDbLine
 10
3.955370629370636
 20
7.592238068580627
 30
0.0
 11
4.725001663893514
 21
7.592238068580627
 31
0.0
  0
LINE
  5
BA
330
17
100
AcDbEntity
  8
0
100
AcDbLine
 10
4.725001663893514
 20
7.592238068580627
 30
0.0
 11
5.228000000000001
 21
7.592238068580627
 31
0.0
  0
LINE
  5
BB
330
17
100
AcDbEntity
  8
0
100
AcDbLine
 10
5.7239011406844105
 20
7.592238068580627
 30
0.0
 11
5.755370629370636
 21
7.592238068580627
 31
0.0
  0
LINE
  5
BC
330
17
100
AcDbEntity
  8
0
100
AcDbLine
 10
5.755370629370636
 20
7.592238068580627
 30
0.0
 11
7.0280000000000005
 21
7.592238068580627
 31
0.0
  0
LINE
  5
BD
330
17
100
AcDbEntity
  8
0
100
AcDbLine
 10
7.52322536806342
 20
7.592238068580627
 30
0.0
 11
7.610090805902383
 21
7.592238068580627
 31
0.0
  0
LINE
  5
BE
330
17
100
AcDbEntity
  8
0
100
AcDbLine
 10
7.610090805902383
 20
7.592238068580627
 30
0.0
 11
8.736720000000002
 21
7.592238068580627
 31
0.0
  0
LINE
  5
BF
330
17
100
AcDbEntity
  8
0
100
AcDbLine
 10
8.736720000000002
 20
7.592238068580627
 30
0.0
 11
8.828000000000001
 21
7.592238068580627
 31
0.0
  0
LINE
  5
C0
330
17
100
AcDbEntity
  8
0
100
AcDbLine
 10
9.324
 20
7.592238068580627
 30
0.0
 11
9.547999999999998
 21
7.592238068580627
 31
0.0
  0
LINE
  5
C1
330
17
100
AcDbEntity
  8
0
100
AcDbLine
 10
9.547999999999998
 20
7.592238068580627
 30
0.0
 11
10.628
 21
7.592238068580627
 31
0.0
  0
LINE
  5
C2
330
17
100
AcDbEntity
  8
0
100
AcDbLine
 10
11.123483146067416
 20
7.592238068580627
 30
0.0
 11
11.841381750465553
 21
7.592238068580627
 31
0.0
  0
LINE
  5
C3
330
17
100
AcDbEntity
  8
0
100
AcDbLine
 10
11.841381750465553
 20
7.592238068580627
 30
0.0
 11
12.428
 21
7.592238068580627
 31
0.0
  0
LINE
  5
C4
330
17
100
AcDbEntity
  8
0
100
AcDbLine
 10
12.923419354838709
 20
7.592238068580627
 30
0.0
 11
12.943709677419355
 21
7.592238068580627
 31
0.0
  0
LINE
  5
C5
330
17
100
AcDbEntity
  8
0
100
AcDbLine
 10
12.943709677419355
 20
7.592238068580627
 30
0.0
 11
14.024720000000002
 21
7.592238068580627
 31
0.0
  0
LINE
  5
C6
330
17
100
AcDbEntity
  8
0
100
AcDbLine
 10
14.024720000000002
 20
7.592238068580627
 30
0.0
 11
14.228000000000002
 21
7.592238068580627
 31
0.0
  0
LINE
  5
C7
330
17
100
AcDbEntity
  8
0
100
AcDbLine
 10
0.7553599999999988
 20
10.092238068580627
 30
0.0
 11
1.6280000000000006
 21
10.092238068580627
 31
0.0
  0
LINE
  5
C8
330
17
100
AcDbEntity
  8
0
100
AcDbLine
 10
0.7553599999999988
 20
10.092238068580627
 30
0.0
 11
1.6280000000000006
 21
10.092238068580627
 31
0.0
  0
LINE
  5
C9
330
17
100
AcDbEntity
  8
0
100
AcDbLine
 10
2.1239999999999997
 20
10.092238068580627
 30
0.0
 11
2.3479999999999985
 21
10.092238068580627
 31
0.0
  0
LINE
  5
CA
330
17
100
AcDbEntity
  8
0
100
AcDbLine
 10
2.3479999999999985
 20
10.092238068580627
 30
0.0
 11
3.428000000000001
 21
10.092238068580627
 31
0.0
  0
LINE
  5
CB
330
17
100
AcDbEntity
  8
0
100
AcDbLine
 10
3.9239020979020975
 20
10.092238068580627
 30
0.0
 11
3.955370629370636
 21
10.092238068580627
 31
0.0
  0
LINE
  5
CC
330
17
100
AcDbEntity
  8
0
100
AcDbLine
 10
3.955370629370636
 20
10.092238068580627
 30
0.0
 11
4.725001663893514
 21
10.092238068580627
 31
0.0
  0
LINE
  5
CD
330
17
100
AcDbEntity
  8
0
100
AcDbLine
 10
4.725001663893514
 20
10.092238068580627
 30
0.0
 11
5.228000000000001
 21
10.092238068580627
 31
0.0
  0
LINE
  5
CE
330
17
100
AcDbEntity
  8
0
100
AcDbLine
 10
5.7238999999999995
 20
10.092238068580627
 30
0.0
 11
5.755370629370636
 21
10.092238068580627
 31
0.0
  0
LINE
  5
CF
330
17
100
AcDbEntity
  8
0
100
AcDbLine
 10
5.755370629370636
 20
10.092238068580627
 30
0.0
 11
7.0280000000000005
 21
10.092238068580627
 31
0.0
  0
LINE
  5
D0
330
17
100
AcDbEntity
  8
0
100
AcDbLine
 10
7.52322536806342
 20
10.092238068580627
 30
0.0
 11
7.610090805902383
 21
10.092238068580627
 31
0.0
  0
LINE
  5
D1
330
17
100
AcDbEntity
  8
0
100
AcDbLine
 10
7.610090805902383
 20
10.092238068580627
 30
0.0
 11
8.736720000000002
 21
10.092238068580627
 31
0.0
  0
LINE
  5
D2
330
17
100
AcDbEntity
  8
0
100
AcDbLine
 10
8.736720000000002
 20
10.092238068580627
 30
0.0
 11
8.828000000000001
 21
10.092238068580627
 31
0.0
  0
LINE
  5
D3
330
17
100
AcDbEntity
  8
0
100
AcDbLine
 10
9.324
 20
10.092238068580627
 30
0.0
 11
9.547999999999998
 21
10.092238068580627
 31
0.0
  0
LINE
  5
D4
330
17
100
AcDbEntity
  8
0
100
AcDbLine
 10
9.547999999999998
 20
10.092238068580627
 30
0.0
 11
10.628
 21
10.092238068580627
 31
0.0
  0
LINE
  5
D5
330
17
100
AcDbEntity
  8
0
100
AcDbLine
 10
11.123504655493482
 20
10.092238068580627
 30
0.0
 11
11.841381750465553
 21
10.092238068580627
 31
0.0
  0
LINE
  5
D6
330
17
100
AcDbEntity
  8
0
100
AcDbLine
 10
11.841381750465553
 20
10.092238068580627
 30
0.0
 11
12.428
 21
10.092238068580627
 31
0.0
  0
LINE
  5
D7
330
17
100
AcDbEntity
  8
0
100
AcDbLine
 10
12.923419354838709
 20
10.092238068580627
 30
0.0
 11
12.943709677419355
 21
10.092238068580627
 31
0.0
  0
LINE
  5
D8
330
17
100
AcDbEntity
  8
0
100
AcDbLine
 10
12.943709677419355
 20
10.092238068580627
 30
0.0
 11
14.024720000000002
 21
10.092238068580627
 31
0.0
  0
LINE
  5
D9
330
17
100
AcDbEntity
  8
0
100
AcDbLine
 10
14.024720000000002
 20
10.092238068580627
 30
0.0
 11
14.228000000000002
 21
10.092238068580627
 31
0.0
  0
LINE
  5
DA
330
17
100
AcDbEntity
  8
0
100
AcDbLine
 10
0.7006399999999987
 20
12.592238068580627
 30
0.0
 11
1.6280000000000006
 21
12.592238068580627
 31
0.0
  0
LINE
  5
DB
330
17
100
AcDbEntity
  8
0
100
AcDbLine
 10
0.7006399999999987
 20
12.592238068580627
 30
0.0
 11
1.6280000000000006
 21
12.592238068580627
 31
0.0
  0
LINE
  5
DC
330
17
100
AcDbEntity
  8
0
100
AcDbLine
 10
2.1239999999999997
 20
12.592238068580627
 30
0.0
 11
2.3479999999999985
 21
12.592238068580627
 31
0.0
  0
LINE
  5
DD
330
17
100
AcDbEntity
  8
0
100
AcDbLine
 10
2.3479999999999985
 20
12.592238068580627
 30
0.0
 11
3.428000000000001
 21
12.592238068580627
 31
0.0
  0
LINE
  5
DE
330
17
100
AcDbEntity
  8
0
100
AcDbLine
 10
3.9239020979020975
 20
12.592238068580627
 30
0.0
 11
3.955370629370636
 21
12.592238068580627
 31
0.0
  0
LINE
  5
DF
330
17
100
AcDbEntity
  8
0
100
AcDbLine
 10
3.955370629370636
 20
12.592238068580627
 30
0.0
 11
4.725001663893514
 21
12.592238068580627
 31
0.0
  0
LINE
  5
E0
330
17
100
AcDbEntity
  8
0
100
AcDbLine
 10
4.725001663893514
 20
12.592238068580627
 30
0.0
 11
5.228000000000001
 21
12.592238068580627
 31
0.0
  0
LINE
  5
E1
330
17
100
AcDbEntity
  8
0
100
AcDbLine
 10
5.723898916967508
 20
12.592238068580627
 30
0.0
 11
5.755370629370636
 21
12.592238068580627
 31
0.0
  0
LINE
  5
E2
330
17
100
AcDbEntity
  8
0
100
AcDbLine
 10
5.755370629370636
 20
12.592238068580627
 30
0.0
 11
7.0280000000000005
 21
12.592238068580627
 31
0.0
  0
LINE
  5
E3
330
17
100
AcDbEntity
  8
0
100
AcDbLine
 10
7.52322536806342
 20
12.592238068580627
 30
0.0
 11
7.610090805902383
 21
12.592238068580627
 31
0.0
  0
LINE
  5
E4
330
17
100
AcDbEntity
  8
0
100
AcDbLine
 10
7.610090805902383
 20
12.592238068580627
 30
0.0
 11
8.736720000000002
 21
12.592238068580627
 31
0.0
  0
LINE
  5
E5
330
17
100
AcDbEntity
  8
0
100
AcDbLine
 10
8.736720000000002
 20
12.592238068580627
 30
0.0
 11
8.828000000000001
 21
12.592238068580627
 31
0.0
  0
LINE
  5
E6
330
17
100
AcDbEntity
  8
0
100
AcDbLine
 10
9.324
 20
12.592238068580627
 30
0.0
 11
9.547999999999998
 21
12.592238068580627
 31
0.0
  0
LINE
  5
E7
330
17
100
AcDbEntity
  8
0
100
AcDbLine
 10
9.547999999999998
 20
12.592238068580627
 30
0.0
 11
10.628
 21
12.592238068580627
 31
0.0
  0
LINE
  5
E8
330
17
100
AcDbEntity
  8
0
100
AcDbLine
 10
11.123504655493482
 20
12.592238068580627
 30
0.0
 11
11.841381750465553
 21
12.592238068580627
 31
0.0
  0
LINE
  5
E9
330
17
100
AcDbEntity
  8
0
100
AcDbLine
 10
11.841381750465553
 20
12.592238068580627
 30
0.0
 11
12.428
 21
12.592238068580627
 31
0.0
  0
LINE
  5
EA
330
17
100
AcDbEntity
  8
0
100
AcDbLine
 10
12.923419354838709
 20
12.592238068580627
 30
0.0
 11
12.943709677419355
 21
12.592238068580627
 31
0.0
  0
LINE
  5
EB
330
17
100
AcDbEntity
  8
0
100
AcDbLine
 10
12.943709677419355
 20
12.592238068580627
 30
0.0
 11
14.024720000000002
 21
12.592238068580627
 31
0.0
  0
LINE
  5
EC
330
17
100
AcDbEntity
  8
0
100
AcDbLine
 10
14.024720000000002
 20
12.592238068580627
 30
0.0
 11
14.228000000000002
 21
12.592238068580627
 31
0.0
  0
ENDSEC
  0
SECTION
  2
OBJECTS
  0
DICTIONARY
  5
A
330
0
100
AcDbDictionary
281
1
  3
ACAD_COLOR
350
B
  3
ACAD_GROUP
350
C
  3
ACAD_LAYOUT
350
D
  3
ACAD_MATERIAL
350
E
  3
ACAD_MLEADERSTYLE
350
F
  3
ACAD_MLINESTYLE
350
10
  3
ACAD_PLOTSETTINGS
350
11
  3
ACAD_PLOTSTYLENAME
350
12
  3
ACAD_SCALELIST
350
14
  3
ACAD_TABLESTYLE
350
15
  3
ACAD_VISUALSTYLE
350
16
  3
EZDXF_META
350
2D
  0
DICTIONARY
  5
B
330
A
100
AcDbDictionary
281
1
  0
DICTIONARY
  5
C
330
A
100
AcDbDictionary
281
1
  0
DICTIONARY
  5
D
330
A
100
AcDbDictionary
281
1
  3
Model
350
1A
  3
Layout1
350
1E
  0
DICTIONARY
  5
E
330
A
100
AcDbDictionary
281
1
  3
ByBlock
350
1F
  3
ByLayer
350
20
  3
Global
350
21
  0
DICTIONARY
  5
F
330
A
100
AcDbDictionary
281
1
  3
Standard
350
2C
  0
DICTIONARY
  5
10
330
A
100
AcDbDictionary
281
1
  3
Standard
350
22
  0
DICTIONARY
  5
11
330
A
100
AcDbDictionary
281
1
  0
ACDBDICTIONARYWDFLT
  5
12
330
A
100
AcDbDictionary
281
1
  3
Normal
350
13
100
AcDbDictionaryWithDefault
340
13
  0
ACDBPLACEHOLDER
  5
13
330
12
  0
DICTIONARY
  5
14
330
A
100
AcDbDictionary
281
1
  0
DICTIONARY
  5
15
330
A
100
AcDbDictionary
281
1
  0
DICTIONARY
  5
16
330
A
100
AcDbDictionary
281
1
  0
LAYOUT
  5
1A
330
D
100
AcDbPlotSettings
  1

  4
A3
  6

 40
7.5
 41
20.0
 42
7.5
 43
20.0
 44
420.0
 45
297.0
 46
0.0
 47
0.0
 48
0.0
 49
0.0
140
0.0
141
0.0
142
1.0
143
1.0
 70
1024
 72
1
 73
0
 74
5
  7

 75
16
 76
0
 77
2
 78
300
147
1.0
148
0.0
149
0.0
100
AcDbLayout
  1
Model
 70
1
 71
0
 10
0.0
 20
0.0
 11
420.0
 21
297.0
 12
0.0
 22
0.0
 32
0.0
 14
1e+20
 24
1e+20
 34
1e+20
 15
-1e+20
 25
-1e+20
 35
-1e+20
146
0.0
 13
0.0
 23
0.0
 33
0.0
 16
1.0
 26
0.0
 36
0.0
 17
0.0
 27
1.0
 37
0.0
 76
1
330
17
  0
LAYOUT
  5
1E
330
D
100
AcDbPlotSettings
  1

  4
A3
  6

 40
7.5
 41
20.0
 42
7.5
 43
20.0
 44
420.0
 45
297.0
 46
0.0
 47
0.0
 48
0.0
 49
0.0
140
0.0
141
0.0
142
1.0
143
1.0
 70
0
 72
1
 73
0
 74
5
  7

 75
16
 76
0
 77
2
 78
300
147
1.0
148
0.0
149
0.0
100
AcDbLayout
  1
Layout1
 70
1
 71
1
 10
0.0
 20
0.0
 11
420.0
 21
297.0
 12
0.0
 22
0.0
 32
0.0
 14
1e+20
 24
1e+20
 34
1e+20
 15
-1e+20
 25
-1e+20
 35
-1e+20
146
0.0
 13
0.0
 23
0.0
 33
0.0
 16
1.0
 26
0.0
 36
0.0
 17
0.0
 27
1.0
 37
0.0
 76
1
330
1B
  0
MATERIAL
  5
1F
102
{ACAD_REACTORS
330
E
102
}
330
E
100
AcDbMaterial
  1
ByBlock
  2

 70
0
 40
1.0
 71
1
 41
1.0
 91
-1023410177
 42
1.0
 72
1
  3

 73
1
 74
1
 75
1
 44
0.5
 73
0
 45
1.0
 46
1.0
 77
1
  4

 78
1
 79
1
170
1
 48
1.0
171
1
  6

172
1
173
1
174
1
140
1.0
141
1.0
175
1
  7

176
1
177
1
178
1
143
1.0
179
1
  8

270
1
271
1
272
1
145
1.0
146
1.0
273
1
  9

274
1
275
1
276
1
 42
1.0
 72
1
  3

 73
1
 74
1
 75
1
 94
63
  0
MATERIAL
  5
20
102
{ACAD_REACTORS
330
E
102
}
330
E
100
AcDbMaterial
  1
ByLayer
  2

 70
0
 40
1.0
 71
1
 41
1.0
 91
-1023410177
 42
1.0
 72
1
  3

 73
1
 74
1
 75
1
 44
0.5
 73
0
 45
1.0
 46
1.0
 77
1
  4

 78
1
 79
1
170
1
 48
1.0
171
1
  6

172
1
173
1
174
1
140
1.0
141
1.0
175
1
  7

176
1
177
1
178
1
143
1.0
179
1
  8

270
1
271
1
272
1
145
1.0
146
1.0
273
1
  9

274
1
275
1
276
1
 42
1.0
 72
1
  3

 73
1
 74
1
 75
1
 94
63
  0
MATERIAL
  5
21
102
{ACAD_REACTORS
330
E
102
}
330
E
100
AcDbMaterial
  1
Global
  2

 70
0
 40
1.0
 71
1
 41
1.0
 91
-1023410177
 42
1.0
 72
1
  3

 73
1
 74
1
 75
1
 44
0.5
 73
0
 45
1.0
 46
1.0
 77
1
  4

 78
1
 79
1
170
1
 48
1.0
171
1
  6

172
1
173
1
174
1
140
1.0
141
1.0
175
1
  7

176
1
177
1
178
1
143
1.0
179
1
  8

270
1
271
1
272
1
145
1.0
146
1.0
273
1
  9

274
1
275
1
276
1
 42
1.0
 72
1
  3

 73
1
 74
1
 75
1
 94
63
  0
MLINESTYLE
  5
22
102
{ACAD_REACTORS
330
10
102
}
330
10
100
AcDbMlineStyle
  2
Standard
 70
0
  3

 62
256
 51
90.0
 52
90.0
 71
2
 49
0.5
 62
256
  6
BYLAYER
 49
-0.5
 62
256
  6
BYLAYER
  0
MLEADERSTYLE
  5
2C
102
{ACAD_REACTORS
330
F
102
}
330
F
100
AcDbMLeaderStyle
179
2
170
2
171
1
172
0
 90
2
 40
0.0
 41
0.0
173
1
 91
-1056964608
 92
-2
290
1
 42
2.0
291
1
 43
8.0
  3
Standard
 44
4.0
300

342
29
174
1
175
1
176
0
178
1
 93
-1056964608
 45
4.0
292
0
297
0
 46
4.0
 94
-1056964608
 47
1.0
 49
1.0
140
1.0
294
1
141
0.0
177
0
142
1.0
295
0
296
0
143
3.75
271
0
272
9
273
9
  0
DICTIONARY
  5
2D
330
A
100
AcDbDictionary
280
1
281
1
  3
CREATED_BY_EZDXF
350
2E
  3
WRITTEN_BY_EZDXF
350
EF
  0
DICTIONARYVAR
  5
2E
330
2D
100
DictionaryVariables
280
0
  1
1.4.2 @ 2025-07-30T15:12:28.954224+00:00
  0
DICTIONARYVAR
  5
EF
330
2D
100
DictionaryVariables
280
0
  1
1.4.2 @ 2025-07-30T15:12:28.954224+00:00
  0
ENDSEC
  0
EOF
