  0
SECTION
  2
HEADER
  9
$ACADVER
  1
AC1024
  9
$ACADMAINTVER
 70
6
  9
$DWGCODEPAGE
  3
ANSI_1252
  9
$LASTSAVEDBY
  1
ezdxf
  9
$INSBASE
 10
0.0
 20
0.0
 30
0.0
  9
$EXTMIN
 10
1e+20
 20
1e+20
 30
1e+20
  9
$EXTMAX
 10
-1e+20
 20
-1e+20
 30
-1e+20
  9
$LIMMIN
 10
0.0
 20
0.0
  9
$LIMMAX
 10
420.0
 20
297.0
  9
$ORTHOMODE
 70
0
  9
$REGENMODE
 70
1
  9
$FILLMODE
 70
1
  9
$QTEXTMODE
 70
0
  9
$MIRRTEXT
 70
1
  9
$LTSCALE
 40
1.0
  9
$ATTMODE
 70
1
  9
$TEXTSIZE
 40
2.5
  9
$TRACEWID
 40
1.0
  9
$TEXTSTYLE
  7
Standard
  9
$CLAYER
  8
0
  9
$CELTYPE
  6
ByLayer
  9
$CECOLOR
 62
256
  9
$CELTSCALE
 40
1.0
  9
$DISPSILH
 70
0
  9
$DIMSCALE
 40
1.0
  9
$DIMASZ
 40
2.5
  9
$DIMEXO
 40
0.625
  9
$DIMDLI
 40
3.75
  9
$DIMRND
 40
0.0
  9
$DIMDLE
 40
0.0
  9
$DIMEXE
 40
1.25
  9
$DIMTP
 40
0.0
  9
$DIMTM
 40
0.0
  9
$DIMTXT
 40
2.5
  9
$DIMCEN
 40
2.5
  9
$DIMTSZ
 40
0.0
  9
$DIMTOL
 70
0
  9
$DIMLIM
 70
0
  9
$DIMTIH
 70
0
  9
$DIMTOH
 70
0
  9
$DIMSE1
 70
0
  9
$DIMSE2
 70
0
  9
$DIMTAD
 70
1
  9
$DIMZIN
 70
8
  9
$DIMBLK
  1

  9
$DIMASO
 70
1
  9
$DIMSHO
 70
1
  9
$DIMPOST
  1

  9
$DIMAPOST
  1

  9
$DIMALT
 70
0
  9
$DIMALTD
 70
3
  9
$DIMALTF
 40
0.03937007874
  9
$DIMLFAC
 40
1.0
  9
$DIMTOFL
 70
1
  9
$DIMTVP
 40
0.0
  9
$DIMTIX
 70
0
  9
$DIMSOXD
 70
0
  9
$DIMSAH
 70
0
  9
$DIMBLK1
  1

  9
$DIMBLK2
  1

  9
$DIMSTYLE
  2
ISO-25
  9
$DIMCLRD
 70
0
  9
$DIMCLRE
 70
0
  9
$DIMCLRT
 70
0
  9
$DIMTFAC
 40
1.0
  9
$DIMGAP
 40
0.625
  9
$DIMJUST
 70
0
  9
$DIMSD1
 70
0
  9
$DIMSD2
 70
0
  9
$DIMTOLJ
 70
0
  9
$DIMTZIN
 70
8
  9
$DIMALTZ
 70
0
  9
$DIMALTTZ
 70
0
  9
$DIMUPT
 70
0
  9
$DIMDEC
 70
2
  9
$DIMTDEC
 70
2
  9
$DIMALTU
 70
2
  9
$DIMALTTD
 70
3
  9
$DIMTXSTY
  7
Standard
  9
$DIMAUNIT
 70
0
  9
$DIMADEC
 70
0
  9
$DIMALTRND
 40
0.0
  9
$DIMAZIN
 70
0
  9
$DIMDSEP
 70
44
  9
$DIMATFIT
 70
3
  9
$DIMFRAC
 70
0
  9
$DIMLDRBLK
  1

  9
$DIMLUNIT
 70
2
  9
$DIMLWD
 70
-2
  9
$DIMLWE
 70
-2
  9
$DIMTMOVE
 70
0
  9
$DIMFXL
 40
1.0
  9
$DIMFXLON
 70
0
  9
$DIMJOGANG
 40
0.785398163397
  9
$DIMTFILL
 70
0
  9
$DIMTFILLCLR
 70
0
  9
$DIMARCSYM
 70
0
  9
$DIMLTYPE
  6

  9
$DIMLTEX1
  6

  9
$DIMLTEX2
  6

  9
$DIMTXTDIRECTION
 70
0
  9
$LUNITS
 70
2
  9
$LUPREC
 70
4
  9
$SKETCHINC
 40
1.0
  9
$FILLETRAD
 40
10.0
  9
$AUNITS
 70
0
  9
$AUPREC
 70
2
  9
$MENU
  1
.
  9
$ELEVATION
 40
0.0
  9
$PELEVATION
 40
0.0
  9
$THICKNESS
 40
0.0
  9
$LIMCHECK
 70
0
  9
$CHAMFERA
 40
0.0
  9
$CHAMFERB
 40
0.0
  9
$CHAMFERC
 40
0.0
  9
$CHAMFERD
 40
0.0
  9
$SKPOLY
 70
0
  9
$TDCREATE
 40
2460887.509490741
  9
$TDUCREATE
 40
2458532.153996898
  9
$TDUPDATE
 40
2460887.509490741
  9
$TDUUPDATE
 40
2458532.1544311
  9
$TDINDWG
 40
0.0
  9
$TDUSRTIMER
 40
0.0
  9
$USRTIMER
 70
1
  9
$ANGBASE
 50
0.0
  9
$ANGDIR
 70
0
  9
$PDMODE
 70
0
  9
$PDSIZE
 40
0.0
  9
$PLINEWID
 40
0.0
  9
$SPLFRAME
 70
0
  9
$SPLINETYPE
 70
6
  9
$SPLINESEGS
 70
8
  9
$HANDSEED
  5
20F
  9
$SURFTAB1
 70
6
  9
$SURFTAB2
 70
6
  9
$SURFTYPE
 70
6
  9
$SURFU
 70
6
  9
$SURFV
 70
6
  9
$UCSBASE
  2

  9
$UCSNAME
  2

  9
$UCSORG
 10
0.0
 20
0.0
 30
0.0
  9
$UCSXDIR
 10
1.0
 20
0.0
 30
0.0
  9
$UCSYDIR
 10
0.0
 20
1.0
 30
0.0
  9
$UCSORTHOREF
  2

  9
$UCSORTHOVIEW
 70
0
  9
$UCSORGTOP
 10
0.0
 20
0.0
 30
0.0
  9
$UCSORGBOTTOM
 10
0.0
 20
0.0
 30
0.0
  9
$UCSORGLEFT
 10
0.0
 20
0.0
 30
0.0
  9
$UCSORGRIGHT
 10
0.0
 20
0.0
 30
0.0
  9
$UCSORGFRONT
 10
0.0
 20
0.0
 30
0.0
  9
$UCSORGBACK
 10
0.0
 20
0.0
 30
0.0
  9
$PUCSBASE
  2

  9
$PUCSNAME
  2

  9
$PUCSORG
 10
0.0
 20
0.0
 30
0.0
  9
$PUCSXDIR
 10
1.0
 20
0.0
 30
0.0
  9
$PUCSYDIR
 10
0.0
 20
1.0
 30
0.0
  9
$PUCSORTHOREF
  2

  9
$PUCSORTHOVIEW
 70
0
  9
$PUCSORGTOP
 10
0.0
 20
0.0
 30
0.0
  9
$PUCSORGBOTTOM
 10
0.0
 20
0.0
 30
0.0
  9
$PUCSORGLEFT
 10
0.0
 20
0.0
 30
0.0
  9
$PUCSORGRIGHT
 10
0.0
 20
0.0
 30
0.0
  9
$PUCSORGFRONT
 10
0.0
 20
0.0
 30
0.0
  9
$PUCSORGBACK
 10
0.0
 20
0.0
 30
0.0
  9
$USERI1
 70
0
  9
$USERI2
 70
0
  9
$USERI3
 70
0
  9
$USERI4
 70
0
  9
$USERI5
 70
0
  9
$USERR1
 40
0.0
  9
$USERR2
 40
0.0
  9
$USERR3
 40
0.0
  9
$USERR4
 40
0.0
  9
$USERR5
 40
0.0
  9
$WORLDVIEW
 70
1
  9
$SHADEDGE
 70
3
  9
$SHADEDIF
 70
70
  9
$TILEMODE
 70
1
  9
$MAXACTVP
 70
64
  9
$PINSBASE
 10
0.0
 20
0.0
 30
0.0
  9
$PLIMCHECK
 70
0
  9
$PEXTMIN
 10
1e+20
 20
1e+20
 30
1e+20
  9
$PEXTMAX
 10
-1e+20
 20
-1e+20
 30
-1e+20
  9
$PLIMMIN
 10
0.0
 20
0.0
  9
$PLIMMAX
 10
420.0
 20
297.0
  9
$UNITMODE
 70
0
  9
$VISRETAIN
 70
1
  9
$PLINEGEN
 70
0
  9
$PSLTSCALE
 70
1
  9
$TREEDEPTH
 70
3020
  9
$CMLSTYLE
  2
Standard
  9
$CMLJUST
 70
0
  9
$CMLSCALE
 40
20.0
  9
$PROXYGRAPHICS
 70
1
  9
$MEASUREMENT
 70
1
  9
$CELWEIGHT
370
-1
  9
$ENDCAPS
280
0
  9
$JOINSTYLE
280
0
  9
$LWDISPLAY
290
0
  9
$INSUNITS
 70
6
  9
$HYPERLINKBASE
  1

  9
$STYLESHEET
  1

  9
$XEDIT
290
1
  9
$CEPSNTYPE
380
0
  9
$PSTYLEMODE
290
1
  9
$FINGERPRINTGUID
  2
{E7050E8E-D1A2-474C-9A67-A81D530BA3BD}
  9
$VERSIONGUID
  2
{B2B6FF7B-330D-497B-A2C6-06007493522E}
  9
$EXTNAMES
290
1
  9
$PSVPSCALE
 40
0.0
  9
$OLESTARTUP
290
0
  9
$SORTENTS
280
127
  9
$INDEXCTL
280
0
  9
$HIDETEXT
280
1
  9
$XCLIPFRAME
280
1
  9
$HALOGAP
280
0
  9
$OBSCOLOR
 70
257
  9
$OBSLTYPE
280
0
  9
$INTERSECTIONDISPLAY
280
0
  9
$INTERSECTIONCOLOR
 70
257
  9
$DIMASSOC
280
2
  9
$PROJECTNAME
  1

  9
$CAMERADISPLAY
290
0
  9
$LENSLENGTH
 40
50.0
  9
$CAMERAHEIGHT
 40
0.0
  9
$STEPSPERSEC
 40
24.0
  9
$STEPSIZE
 40
100.0
  9
$3DDWFPREC
 40
2.0
  9
$PSOLWIDTH
 40
0.005
  9
$PSOLHEIGHT
 40
0.08
  9
$LOFTANG1
 40
1.570796326795
  9
$LOFTANG2
 40
1.570796326795
  9
$LOFTMAG1
 40
0.0
  9
$LOFTMAG2
 40
0.0
  9
$LOFTPARAM
 70
7
  9
$LOFTNORMALS
280
1
  9
$LATITUDE
 40
37.795
  9
$LONGITUDE
 40
-122.394
  9
$NORTHDIRECTION
 40
0.0
  9
$TIMEZONE
 70
-8000
  9
$LIGHTGLYPHDISPLAY
280
1
  9
$TILEMODELIGHTSYNCH
280
1
  9
$CMATERIAL
347
20
  9
$SOLIDHIST
280
0
  9
$SHOWHIST
280
1
  9
$DWFFRAME
280
2
  9
$DGNFRAME
280
2
  9
$REALWORLDSCALE
290
1
  9
$INTERFERECOLOR
 62
256
  9
$CSHADOW
280
0
  9
$SHADOWPLANELOCATION
 40
0.0
  0
ENDSEC
  0
SECTION
  2
CLASSES
  0
CLASS
  1
ACDBDICTIONARYWDFLT
  2
AcDbDictionaryWithDefault
  3
ObjectDBX Classes
 90
0
 91
0
280
0
281
0
  0
CLASS
  1
SUN
  2
AcDbSun
  3
SCENEOE
 90
1153
 91
0
280
0
281
0
  0
CLASS
  1
VISUALSTYLE
  2
AcDbVisualStyle
  3
ObjectDBX Classes
 90
4095
 91
0
280
0
281
0
  0
CLASS
  1
MATERIAL
  2
AcDbMaterial
  3
ObjectDBX Classes
 90
1153
 91
0
280
0
281
0
  0
CLASS
  1
SCALE
  2
AcDbScale
  3
ObjectDBX Classes
 90
1153
 91
0
280
0
281
0
  0
CLASS
  1
TABLESTYLE
  2
AcDbTableStyle
  3
ObjectDBX Classes
 90
4095
 91
0
280
0
281
0
  0
CLASS
  1
MLEADERSTYLE
  2
AcDbMLeaderStyle
  3
ACDB_MLEADERSTYLE_CLASS
 90
4095
 91
0
280
0
281
0
  0
CLASS
  1
DICTIONARYVAR
  2
AcDbDictionaryVar
  3
ObjectDBX Classes
 90
0
 91
0
280
0
281
0
  0
CLASS
  1
CELLSTYLEMAP
  2
AcDbCellStyleMap
  3
ObjectDBX Classes
 90
1152
 91
0
280
0
281
0
  0
CLASS
  1
MENTALRAYRENDERSETTINGS
  2
AcDbMentalRayRenderSettings
  3
SCENEOE
 90
1024
 91
0
280
0
281
0
  0
CLASS
  1
ACDBDETAILVIEWSTYLE
  2
AcDbDetailViewStyle
  3
ObjectDBX Classes
 90
1025
 91
0
280
0
281
0
  0
CLASS
  1
ACDBSECTIONVIEWSTYLE
  2
AcDbSectionViewStyle
  3
ObjectDBX Classes
 90
1025
 91
0
280
0
281
0
  0
CLASS
  1
RASTERVARIABLES
  2
AcDbRasterVariables
  3
ISM
 90
0
 91
0
280
0
281
0
  0
CLASS
  1
LAYOUT
  2
AcDbLayout
  3
ObjectDBX Classes
 90
0
 91
0
280
0
281
0
  0
CLASS
  1
ACDBPLACEHOLDER
  2
AcDbPlaceHolder
  3
ObjectDBX Classes
 90
0
 91
0
280
0
281
0
  0
ENDSEC
  0
SECTION
  2
TABLES
  0
TABLE
  2
VPORT
  5
8
330
0
100
AcDbSymbolTable
 70
1
  0
VPORT
  5
23
330
8
100
AcDbSymbolTableRecord
100
AcDbViewportTableRecord
  2
*Active
 70
0
 10
0.0
 20
0.0
 11
1.0
 21
1.0
 12
0.0
 22
0.0
 13
0.0
 23
0.0
 14
0.5
 24
0.5
 15
0.5
 25
0.5
 16
0.0
 26
0.0
 36
1.0
 17
0.0
 27
0.0
 37
0.0
 40
1000.0
 41
1.34
 42
50.0
 43
0.0
 44
0.0
 50
0.0
 51
0.0
 71
0
 72
1000
 73
1
 74
3
 75
0
 76
0
 77
0
 78
0
281
0
 65
0
146
0.0
  0
ENDTAB
  0
TABLE
  2
LTYPE
  5
2
330
0
100
AcDbSymbolTable
 70
3
  0
LTYPE
  5
24
330
2
100
AcDbSymbolTableRecord
100
AcDbLinetypeTableRecord
  2
ByBlock
 70
0
  3

 72
65
 73
0
 40
0.0
  0
LTYPE
  5
25
330
2
100
AcDbSymbolTableRecord
100
AcDbLinetypeTableRecord
  2
ByLayer
 70
0
  3

 72
65
 73
0
 40
0.0
  0
LTYPE
  5
26
330
2
100
AcDbSymbolTableRecord
100
AcDbLinetypeTableRecord
  2
Continuous
 70
0
  3

 72
65
 73
0
 40
0.0
  0
ENDTAB
  0
TABLE
  2
LAYER
  5
1
330
0
100
AcDbSymbolTable
 70
2
  0
LAYER
  5
27
330
1
100
AcDbSymbolTableRecord
100
AcDbLayerTableRecord
  2
0
 70
0
 62
7
  6
Continuous
370
-3
390
13
347
21
  0
LAYER
  5
28
330
1
100
AcDbSymbolTableRecord
100
AcDbLayerTableRecord
  2
Defpoints
 70
0
 62
7
  6
Continuous
290
0
370
-3
390
13
347
21
  0
ENDTAB
  0
TABLE
  2
STYLE
  5
5
330
0
100
AcDbSymbolTable
 70
1
  0
STYLE
  5
29
330
5
100
AcDbSymbolTableRecord
100
AcDbTextStyleTableRecord
  2
Standard
 70
0
 40
0.0
 41
1.0
 50
0.0
 71
0
 42
2.5
  3
txt
  4

  0
ENDTAB
  0
TABLE
  2
VIEW
  5
7
330
0
100
AcDbSymbolTable
 70
0
  0
ENDTAB
  0
TABLE
  2
UCS
  5
6
330
0
100
AcDbSymbolTable
 70
0
  0
ENDTAB
  0
TABLE
  2
APPID
  5
3
330
0
100
AcDbSymbolTable
 70
3
  0
APPID
  5
2A
330
3
100
AcDbSymbolTableRecord
100
AcDbRegAppTableRecord
  2
ACAD
 70
0
  0
APPID
  5
20C
330
3
100
AcDbSymbolTableRecord
100
AcDbRegAppTableRecord
  2
HATCHBACKGROUNDCOLOR
 70
0
  0
APPID
  5
20D
330
3
100
AcDbSymbolTableRecord
100
AcDbRegAppTableRecord
  2
EZDXF
 70
0
  0
ENDTAB
  0
TABLE
  2
DIMSTYLE
  5
4
330
0
100
AcDbSymbolTable
 70
1
100
AcDbDimStyleTable
  0
DIMSTYLE
105
2B
330
4
100
AcDbSymbolTableRecord
100
AcDbDimStyleTableRecord
  2
Standard
 70
0
 40
1.0
 41
2.5
 42
0.625
 43
3.75
 44
1.25
 45
0.0
 46
0.0
 47
0.0
 48
0.0
 49
2.5
140
2.5
141
2.5
142
0.0
143
0.03937007874
144
1.0
145
0.0
146
1.0
147
0.625
148
0.0
 69
0
 70
0
 71
0
 72
0
 73
0
 74
0
 75
0
 76
0
 77
1
 78
8
 79
3
170
0
171
3
172
1
173
0
174
0
175
0
176
0
177
0
178
0
179
2
271
2
272
2
273
2
274
3
275
0
276
0
277
2
278
44
279
0
280
0
281
0
282
0
283
0
284
8
285
0
286
0
288
0
289
3
290
0
371
-2
372
-2
  0
ENDTAB
  0
TABLE
  2
BLOCK_RECORD
  5
9
330
0
100
AcDbSymbolTable
 70
2
  0
BLOCK_RECORD
  5
17
330
9
100
AcDbSymbolTableRecord
100
AcDbBlockTableRecord
  2
*Model_Space
340
1A
 70
0
280
1
281
0
  0
BLOCK_RECORD
  5
1B
330
9
100
AcDbSymbolTableRecord
100
AcDbBlockTableRecord
  2
*Paper_Space
340
1E
 70
0
280
1
281
0
  0
ENDTAB
  0
ENDSEC
  0
SECTION
  2
BLOCKS
  0
BLOCK
  5
18
330
17
100
AcDbEntity
  8
0
100
AcDbBlockBegin
  2
*Model_Space
 70
0
 10
0.0
 20
0.0
 30
0.0
  3
*Model_Space
  1

  0
ENDBLK
  5
19
330
17
100
AcDbEntity
  8
0
100
AcDbBlockEnd
  0
BLOCK
  5
1C
330
1B
100
AcDbEntity
  8
0
100
AcDbBlockBegin
  2
*Paper_Space
 70
0
 10
0.0
 20
0.0
 30
0.0
  3
*Paper_Space
  1

  0
ENDBLK
  5
1D
330
1B
100
AcDbEntity
  8
0
100
AcDbBlockEnd
  0
ENDSEC
  0
SECTION
  2
ENTITIES
  0
LWPOLYLINE
  5
2F
330
17
100
AcDbEntity
  8
0
100
AcDbPolyline
 90
17
 70
1
 10
2.515341954285737
 20
0.43450975179310475
 10
7.211225699502958
 20
0.5812955726025323
 10
12.879096321062521
 20
0.447833300850033
 10
13.641572397659221
 20
0.5292998404410123
 10
14.311089305014143
 20
0.7957975614862591
 10
14.63875718059201
 20
1.402741397219004
 10
14.7472624508664
 20
2.3671617269738756
 10
14.608870163282972
 20
14.565646735788457
 10
2.25093003052808
 20
14.752059399915831
 10
1.4231109764081677
 20
14.656410871215968
 10
0.8367595120661365
 20
14.347717473362056
 10
0.5409687063314885
 20
13.766944037746956
 10
0.43620194175283916
 20
12.675420844352054
 10
0.580715893811555
 20
7.82715825393221
 10
0.44176334719602106
 20
2.2130941038193206
 10
0.5659919989078954
 20
1.348279461172559
 10
0.8066664753851169
 20
0.8575077591317304
  0
LWPOLYLINE
  5
30
330
17
100
AcDbEntity
  8
0
100
AcDbPolyline
 90
17
 70
1
 10
2.515341954285737
 20
0.43450975179310475
 10
7.211225699502958
 20
0.5812955726025323
 10
12.879096321062521
 20
0.447833300850033
 10
13.641572397659221
 20
0.5292998404410123
 10
14.311089305014143
 20
0.7957975614862591
 10
14.63875718059201
 20
1.402741397219004
 10
14.7472624508664
 20
2.3671617269738756
 10
14.608870163282972
 20
14.565646735788457
 10
2.25093003052808
 20
14.752059399915831
 10
1.4231109764081677
 20
14.656410871215968
 10
0.8367595120661365
 20
14.347717473362056
 10
0.5409687063314885
 20
13.766944037746956
 10
0.43620194175283916
 20
12.675420844352054
 10
0.580715893811555
 20
7.82715825393221
 10
0.44176334719602106
 20
2.2130941038193206
 10
0.5659919989078954
 20
1.348279461172559
 10
0.8066664753851169
 20
0.8575077591317304
  0
LWPOLYLINE
  5
31
330
17
100
AcDbEntity
  8
0
100
AcDbPolyline
 90
3
 70
1
 10
0.80679851770401
 20
0.8573096394538879
 10
1.339280819335771
 20
0.5587767333736816
 10
2.2068568218708187
 20
0.44087001510828894
  0
LWPOLYLINE
  5
32
330
17
100
AcDbEntity
  8
0
100
AcDbPolyline
 90
2
 70
1
 10
2.2068568218708187
 20
0.44087001510828894
 10
2.515341954285737
 20
0.43450975179310475
  0
LINE
  5
33
330
17
100
AcDbEntity
  8
0
100
AcDbLine
 10
2.5928489565849304
 20
0.437
 30
0.0
 11
2.5928489565849304
 21
0.47704004004003786
 31
0.0
  0
LINE
  5
34
330
17
100
AcDbEntity
  8
0
100
AcDbLine
 10
2.5928489565849304
 20
0.437
 30
0.0
 11
2.5928489565849304
 21
0.47704004004003786
 31
0.0
  0
LINE
  5
35
330
17
100
AcDbEntity
  8
0
100
AcDbLine
 10
2.5928489565849304
 20
0.47704004004003786
 30
0.0
 11
2.5928489565849304
 21
0.5095952813067111
 31
0.0
  0
LINE
  5
36
330
17
100
AcDbEntity
  8
0
100
AcDbLine
 10
2.5928489565849304
 20
0.5095952813067111
 30
0.0
 11
2.5928489565849304
 21
1.812598911070782
 31
0.0
  0
LINE
  5
37
330
17
100
AcDbEntity
  8
0
100
AcDbLine
 10
2.5928489565849304
 20
1.812598911070782
 30
0.0
 11
2.5928489565849304
 21
2.0898929219600753
 31
0.0
  0
LINE
  5
38
330
17
100
AcDbEntity
  8
0
100
AcDbLine
 10
2.5928489565849304
 20
2.0898929219600753
 30
0.0
 11
2.5928489565849304
 21
2.127787096774194
 31
0.0
  0
LINE
  5
39
330
17
100
AcDbEntity
  8
0
100
AcDbLine
 10
2.5928489565849304
 20
2.127787096774194
 30
0.0
 11
2.5928489565849304
 21
2.2007677419354805
 31
0.0
  0
LINE
  5
3A
330
17
100
AcDbEntity
  8
0
100
AcDbLine
 10
2.5928489565849304
 20
2.2007677419354805
 30
0.0
 11
2.5928489565849304
 21
3.6242967741935495
 31
0.0
  0
LINE
  5
3B
330
17
100
AcDbEntity
  8
0
100
AcDbLine
 10
2.5928489565849304
 20
3.6242967741935495
 30
0.0
 11
2.5928489565849304
 21
3.657888778550148
 31
0.0
  0
LINE
  5
3C
330
17
100
AcDbEntity
  8
0
100
AcDbLine
 10
2.5928489565849304
 20
3.657888778550148
 30
0.0
 11
2.5928489565849304
 21
3.933135054617677
 31
0.0
  0
LINE
  5
3D
330
17
100
AcDbEntity
  8
0
100
AcDbLine
 10
2.5928489565849304
 20
3.933135054617677
 30
0.0
 11
2.5928489565849304
 21
5.314889771598815
 31
0.0
  0
LINE
  5
3E
330
17
100
AcDbEntity
  8
0
100
AcDbLine
 10
2.5928489565849304
 20
5.314889771598815
 30
0.0
 11
2.5928489565849304
 21
5.387445161290326
 31
0.0
  0
LINE
  5
3F
330
17
100
AcDbEntity
  8
0
100
AcDbLine
 10
2.5928489565849304
 20
5.387445161290326
 30
0.0
 11
2.5928489565849304
 21
5.460425806451612
 31
0.0
  0
LINE
  5
40
330
17
100
AcDbEntity
  8
0
100
AcDbLine
 10
2.5928489565849304
 20
5.460425806451612
 30
0.0
 11
2.5928489565849304
 21
5.513499503475667
 31
0.0
  0
LINE
  5
41
330
17
100
AcDbEntity
  8
0
100
AcDbLine
 10
2.5928489565849304
 20
5.513499503475667
 30
0.0
 11
2.5928489565849304
 21
5.788745779543196
 31
0.0
  0
LINE
  5
42
330
17
100
AcDbEntity
  8
0
100
AcDbLine
 10
2.5928489565849304
 20
5.788745779543196
 30
0.0
 11
2.5928489565849304
 21
7.170500496524333
 31
0.0
  0
LINE
  5
43
330
17
100
AcDbEntity
  8
0
100
AcDbLine
 10
2.5928489565849304
 20
7.170500496524333
 30
0.0
 11
2.5928489565849304
 21
7.223574193548388
 31
0.0
  0
LINE
  5
44
330
17
100
AcDbEntity
  8
0
100
AcDbLine
 10
2.5928489565849304
 20
7.223574193548388
 30
0.0
 11
2.5928489565849304
 21
7.507141935483873
 31
0.0
  0
LINE
  5
45
330
17
100
AcDbEntity
  8
0
100
AcDbLine
 10
2.5928489565849304
 20
7.507141935483873
 30
0.0
 11
2.5928489565849304
 21
7.58012258064516
 31
0.0
  0
LINE
  5
46
330
17
100
AcDbEntity
  8
0
100
AcDbLine
 10
2.5928489565849304
 20
7.58012258064516
 30
0.0
 11
2.5928489565849304
 21
7.644356504468714
 31
0.0
  0
LINE
  5
47
330
17
100
AcDbEntity
  8
0
100
AcDbLine
 10
2.5928489565849304
 20
7.644356504468714
 30
0.0
 11
2.5928489565849304
 21
9.026111221449852
 31
0.0
  0
LINE
  5
48
330
17
100
AcDbEntity
  8
0
100
AcDbLine
 10
2.5928489565849304
 20
9.026111221449852
 30
0.0
 11
2.5928489565849304
 21
9.301357497517381
 31
0.0
  0
LINE
  5
49
330
17
100
AcDbEntity
  8
0
100
AcDbLine
 10
2.5928489565849304
 20
9.301357497517381
 30
0.0
 11
2.5928489565849304
 21
9.411013280212481
 31
0.0
  0
LINE
  5
4A
330
17
100
AcDbEntity
  8
0
100
AcDbLine
 10
2.5928489565849304
 20
9.411013280212481
 30
0.0
 11
2.5928489565849304
 21
9.412624161073822
 31
0.0
  0
LINE
  5
4B
330
17
100
AcDbEntity
  8
0
100
AcDbLine
 10
2.5928489565849304
 20
9.412624161073822
 30
0.0
 11
2.5928489565849304
 21
9.414170731707314
 31
0.0
  0
LINE
  5
4C
330
17
100
AcDbEntity
  8
0
100
AcDbLine
 10
2.5928489565849304
 20
9.414170731707314
 30
0.0
 11
2.5928489565849304
 21
9.417027586206894
 31
0.0
  0
LINE
  5
4D
330
17
100
AcDbEntity
  8
0
100
AcDbLine
 10
2.5928489565849304
 20
9.417027586206894
 30
0.0
 11
2.5928489565849304
 21
9.42517997097242
 31
0.0
  0
LINE
  5
4E
330
17
100
AcDbEntity
  8
0
100
AcDbLine
 10
2.5928489565849304
 20
9.42517997097242
 30
0.0
 11
2.5928489565849304
 21
9.428466666666663
 31
0.0
  0
LINE
  5
4F
330
17
100
AcDbEntity
  8
0
100
AcDbLine
 10
2.5928489565849304
 20
9.428466666666663
 30
0.0
 11
2.5928489565849304
 21
9.430355322338826
 31
0.0
  0
LINE
  5
50
330
17
100
AcDbEntity
  8
0
100
AcDbLine
 10
2.5928489565849304
 20
9.430355322338826
 30
0.0
 11
2.5928489565849304
 21
9.431892586989406
 31
0.0
  0
LINE
  5
51
330
17
100
AcDbEntity
  8
0
100
AcDbLine
 10
2.5928489565849304
 20
9.431892586989406
 30
0.0
 11
2.5928489565849304
 21
10.751228441754922
 31
0.0
  0
LINE
  5
52
330
17
100
AcDbEntity
  8
0
100
AcDbLine
 10
2.5928489565849304
 20
10.751228441754922
 30
0.0
 11
2.5928489565849304
 21
10.755519882179682
 31
0.0
  0
LINE
  5
53
330
17
100
AcDbEntity
  8
0
100
AcDbLine
 10
2.5928489565849304
 20
10.755519882179682
 30
0.0
 11
2.5928489565849304
 21
10.765324099722996
 31
0.0
  0
LINE
  5
54
330
17
100
AcDbEntity
  8
0
100
AcDbLine
 10
2.5928489565849304
 20
10.765324099722996
 30
0.0
 11
2.5928489565849304
 21
10.769762803234507
 31
0.0
  0
LINE
  5
55
330
17
100
AcDbEntity
  8
0
100
AcDbLine
 10
2.5928489565849304
 20
10.769762803234507
 30
0.0
 11
2.5928489565849304
 21
10.77118558077437
 31
0.0
  0
LINE
  5
56
330
17
100
AcDbEntity
  8
0
100
AcDbLine
 10
2.5928489565849304
 20
10.77118558077437
 30
0.0
 11
2.5928489565849304
 21
10.771880478087654
 31
0.0
  0
LINE
  5
57
330
17
100
AcDbEntity
  8
0
100
AcDbLine
 10
2.5928489565849304
 20
10.771880478087654
 30
0.0
 11
2.5928489565849304
 21
10.881721946375372
 31
0.0
  0
LINE
  5
58
330
17
100
AcDbEntity
  8
0
100
AcDbLine
 10
2.5928489565849304
 20
10.881721946375372
 30
0.0
 11
2.5928489565849304
 21
11.156968222442899
 31
0.0
  0
LINE
  5
59
330
17
100
AcDbEntity
  8
0
100
AcDbLine
 10
2.5928489565849304
 20
11.156968222442899
 30
0.0
 11
2.5928489565849304
 21
12.538722939424037
 31
0.0
  0
LINE
  5
5A
330
17
100
AcDbEntity
  8
0
100
AcDbLine
 10
2.5928489565849304
 20
12.538722939424037
 30
0.0
 11
2.5928489565849304
 21
12.602929032258066
 31
0.0
  0
LINE
  5
5B
330
17
100
AcDbEntity
  8
0
100
AcDbLine
 10
2.5928489565849304
 20
12.602929032258066
 30
0.0
 11
2.5928489565849304
 21
12.675909677419352
 31
0.0
  0
LINE
  5
5C
330
17
100
AcDbEntity
  8
0
100
AcDbLine
 10
2.5928489565849304
 20
12.675909677419352
 30
0.0
 11
2.5928489565849304
 21
12.959477419354839
 31
0.0
  0
LINE
  5
5D
330
17
100
AcDbEntity
  8
0
100
AcDbLine
 10
2.5928489565849304
 20
12.959477419354839
 30
0.0
 11
2.5928489565849304
 21
12.998886178861786
 31
0.0
  0
LINE
  5
5E
330
17
100
AcDbEntity
  8
0
100
AcDbLine
 10
2.5928489565849304
 20
12.998886178861786
 30
0.0
 11
2.5928489565849304
 21
14.391412827461611
 31
0.0
  0
LINE
  5
5F
330
17
100
AcDbEntity
  8
0
100
AcDbLine
 10
2.5928489565849304
 20
14.391412827461611
 30
0.0
 11
2.5928489565849304
 21
14.669732610659445
 31
0.0
  0
LINE
  5
60
330
17
100
AcDbEntity
  8
0
100
AcDbLine
 10
2.5928489565849304
 20
14.669732610659445
 30
0.0
 11
2.5928489565849304
 21
14.701859508278979
 31
0.0
  0
LINE
  5
61
330
17
100
AcDbEntity
  8
0
100
AcDbLine
 10
2.5928489565849304
 20
14.701859508278979
 30
0.0
 11
2.5928489565849304
 21
14.742
 31
0.0
  0
LINE
  5
62
330
17
100
AcDbEntity
  8
0
100
AcDbLine
 10
5.09284895658493
 20
0.516
 30
0.0
 11
5.09284895658493
 21
1.2073756906077635
 31
0.0
  0
LINE
  5
63
330
17
100
AcDbEntity
  8
0
100
AcDbLine
 10
5.09284895658493
 20
0.516
 30
0.0
 11
5.09284895658493
 21
1.2073756906077635
 31
0.0
  0
LINE
  5
64
330
17
100
AcDbEntity
  8
0
100
AcDbLine
 10
5.09284895658493
 20
1.2073756906077635
 30
0.0
 11
5.09284895658493
 21
1.5184367541766237
 31
0.0
  0
LINE
  5
65
330
17
100
AcDbEntity
  8
0
100
AcDbLine
 10
5.09284895658493
 20
1.5184367541766237
 30
0.0
 11
5.09284895658493
 21
1.7388103302286209
 31
0.0
  0
LINE
  5
66
330
17
100
AcDbEntity
  8
0
100
AcDbLine
 10
5.09284895658493
 20
1.7388103302286209
 30
0.0
 11
5.09284895658493
 21
2.018488569009316
 31
0.0
  0
LINE
  5
67
330
17
100
AcDbEntity
  8
0
100
AcDbLine
 10
5.09284895658493
 20
2.018488569009316
 30
0.0
 11
5.09284895658493
 21
2.0462258064516137
 31
0.0
  0
LINE
  5
68
330
17
100
AcDbEntity
  8
0
100
AcDbLine
 10
5.09284895658493
 20
2.0462258064516137
 30
0.0
 11
5.09284895658493
 21
2.1192064516128997
 31
0.0
  0
LINE
  5
69
330
17
100
AcDbEntity
  8
0
100
AcDbLine
 10
5.09284895658493
 20
2.1192064516128997
 30
0.0
 11
5.09284895658493
 21
3.5417870967741942
 31
0.0
  0
LINE
  5
6A
330
17
100
AcDbEntity
  8
0
100
AcDbLine
 10
5.09284895658493
 20
3.5417870967741942
 30
0.0
 11
5.09284895658493
 21
3.5778003972194625
 31
0.0
  0
LINE
  5
6B
330
17
100
AcDbEntity
  8
0
100
AcDbLine
 10
5.09284895658493
 20
3.5778003972194625
 30
0.0
 11
5.09284895658493
 21
3.8539672293942404
 31
0.0
  0
LINE
  5
6C
330
17
100
AcDbEntity
  8
0
100
AcDbLine
 10
5.09284895658493
 20
3.8539672293942404
 30
0.0
 11
5.09284895658493
 21
5.23480139026813
 31
0.0
  0
LINE
  5
6D
330
17
100
AcDbEntity
  8
0
100
AcDbLine
 10
5.09284895658493
 20
5.23480139026813
 30
0.0
 11
5.09284895658493
 21
5.304935483870971
 31
0.0
  0
LINE
  5
6E
330
17
100
AcDbEntity
  8
0
100
AcDbLine
 10
5.09284895658493
 20
5.304935483870971
 30
0.0
 11
5.09284895658493
 21
5.377916129032257
 31
0.0
  0
LINE
  5
6F
330
17
100
AcDbEntity
  8
0
100
AcDbLine
 10
5.09284895658493
 20
5.377916129032257
 30
0.0
 11
5.09284895658493
 21
5.662432258064516
 31
0.0
  0
LINE
  5
70
330
17
100
AcDbEntity
  8
0
100
AcDbLine
 10
5.09284895658493
 20
5.662432258064516
 30
0.0
 11
5.09284895658493
 21
5.709577954319759
 31
0.0
  0
LINE
  5
71
330
17
100
AcDbEntity
  8
0
100
AcDbLine
 10
5.09284895658493
 20
5.709577954319759
 30
0.0
 11
5.09284895658493
 21
7.090412115193648
 31
0.0
  0
LINE
  5
72
330
17
100
AcDbEntity
  8
0
100
AcDbLine
 10
5.09284895658493
 20
7.090412115193648
 30
0.0
 11
5.09284895658493
 21
7.141064516129033
 31
0.0
  0
LINE
  5
73
330
17
100
AcDbEntity
  8
0
100
AcDbLine
 10
5.09284895658493
 20
7.141064516129033
 30
0.0
 11
5.09284895658493
 21
7.425580645161292
 31
0.0
  0
LINE
  5
74
330
17
100
AcDbEntity
  8
0
100
AcDbLine
 10
5.09284895658493
 20
7.425580645161292
 30
0.0
 11
5.09284895658493
 21
7.498561290322578
 31
0.0
  0
LINE
  5
75
330
17
100
AcDbEntity
  8
0
100
AcDbLine
 10
5.09284895658493
 20
7.498561290322578
 30
0.0
 11
5.09284895658493
 21
7.565188679245277
 31
0.0
  0
LINE
  5
76
330
17
100
AcDbEntity
  8
0
100
AcDbLine
 10
5.09284895658493
 20
7.565188679245277
 30
0.0
 11
5.09284895658493
 21
8.946022840119166
 31
0.0
  0
LINE
  5
77
330
17
100
AcDbEntity
  8
0
100
AcDbLine
 10
5.09284895658493
 20
8.946022840119166
 30
0.0
 11
5.09284895658493
 21
9.222189672293945
 31
0.0
  0
LINE
  5
78
330
17
100
AcDbEntity
  8
0
100
AcDbLine
 10
5.09284895658493
 20
9.222189672293945
 30
0.0
 11
5.09284895658493
 21
9.334099859353021
 31
0.0
  0
LINE
  5
79
330
17
100
AcDbEntity
  8
0
100
AcDbLine
 10
5.09284895658493
 20
9.334099859353021
 30
0.0
 11
5.09284895658493
 21
9.33906386066763
 31
0.0
  0
LINE
  5
7A
330
17
100
AcDbEntity
  8
0
100
AcDbLine
 10
5.09284895658493
 20
9.33906386066763
 30
0.0
 11
5.09284895658493
 21
9.344235382308842
 31
0.0
  0
LINE
  5
7B
330
17
100
AcDbEntity
  8
0
100
AcDbLine
 10
5.09284895658493
 20
9.344235382308842
 30
0.0
 11
5.09284895658493
 21
9.34577155824508
 31
0.0
  0
LINE
  5
7C
330
17
100
AcDbEntity
  8
0
100
AcDbLine
 10
5.09284895658493
 20
9.34577155824508
 30
0.0
 11
5.09284895658493
 21
10.664228441754922
 31
0.0
  0
LINE
  5
7D
330
17
100
AcDbEntity
  8
0
100
AcDbLine
 10
5.09284895658493
 20
10.664228441754922
 30
0.0
 11
5.09284895658493
 21
10.670218658892134
 31
0.0
  0
LINE
  5
7E
330
17
100
AcDbEntity
  8
0
100
AcDbLine
 10
5.09284895658493
 20
10.670218658892134
 30
0.0
 11
5.09284895658493
 21
10.676790209790214
 31
0.0
  0
LINE
  5
7F
330
17
100
AcDbEntity
  8
0
100
AcDbLine
 10
5.09284895658493
 20
10.676790209790214
 30
0.0
 11
5.09284895658493
 21
10.682762803234507
 31
0.0
  0
LINE
  5
80
330
17
100
AcDbEntity
  8
0
100
AcDbLine
 10
5.09284895658493
 20
10.682762803234507
 30
0.0
 11
5.09284895658493
 21
10.689761290322584
 31
0.0
  0
LINE
  5
81
330
17
100
AcDbEntity
  8
0
100
AcDbLine
 10
5.09284895658493
 20
10.689761290322584
 30
0.0
 11
5.09284895658493
 21
10.692280813214744
 31
0.0
  0
LINE
  5
82
330
17
100
AcDbEntity
  8
0
100
AcDbLine
 10
5.09284895658493
 20
10.692280813214744
 30
0.0
 11
5.09284895658493
 21
10.693181818181822
 31
0.0
  0
LINE
  5
83
330
17
100
AcDbEntity
  8
0
100
AcDbLine
 10
5.09284895658493
 20
10.693181818181822
 30
0.0
 11
5.09284895658493
 21
10.801633565044686
 31
0.0
  0
LINE
  5
84
330
17
100
AcDbEntity
  8
0
100
AcDbLine
 10
5.09284895658493
 20
10.801633565044686
 30
0.0
 11
5.09284895658493
 21
11.077800397219463
 31
0.0
  0
LINE
  5
85
330
17
100
AcDbEntity
  8
0
100
AcDbLine
 10
5.09284895658493
 20
11.077800397219463
 30
0.0
 11
5.09284895658493
 21
12.458634558093351
 31
0.0
  0
LINE
  5
86
330
17
100
AcDbEntity
  8
0
100
AcDbLine
 10
5.09284895658493
 20
12.458634558093351
 30
0.0
 11
5.09284895658493
 21
12.520419354838712
 31
0.0
  0
LINE
  5
87
330
17
100
AcDbEntity
  8
0
100
AcDbLine
 10
5.09284895658493
 20
12.520419354838712
 30
0.0
 11
5.09284895658493
 21
12.593399999999997
 31
0.0
  0
LINE
  5
88
330
17
100
AcDbEntity
  8
0
100
AcDbLine
 10
5.09284895658493
 20
12.593399999999997
 30
0.0
 11
5.09284895658493
 21
12.877916129032258
 31
0.0
  0
LINE
  5
89
330
17
100
AcDbEntity
  8
0
100
AcDbLine
 10
5.09284895658493
 20
12.877916129032258
 30
0.0
 11
5.09284895658493
 21
12.9086013400335
 31
0.0
  0
LINE
  5
8A
330
17
100
AcDbEntity
  8
0
100
AcDbLine
 10
5.09284895658493
 20
12.9086013400335
 30
0.0
 11
5.09284895658493
 21
14.30809882747069
 31
0.0
  0
LINE
  5
8B
330
17
100
AcDbEntity
  8
0
100
AcDbLine
 10
5.09284895658493
 20
14.30809882747069
 30
0.0
 11
5.09284895658493
 21
14.587998324958129
 31
0.0
  0
LINE
  5
8C
330
17
100
AcDbEntity
  8
0
100
AcDbLine
 10
5.09284895658493
 20
14.587998324958129
 30
0.0
 11
5.09284895658493
 21
14.61302728226653
 31
0.0
  0
LINE
  5
8D
330
17
100
AcDbEntity
  8
0
100
AcDbLine
 10
5.09284895658493
 20
14.61302728226653
 30
0.0
 11
5.09284895658493
 21
14.655000000000001
 31
0.0
  0
LINE
  5
8E
330
17
100
AcDbEntity
  8
0
100
AcDbLine
 10
7.59284895658493
 20
0.5740000000000001
 30
0.0
 11
7.59284895658493
 21
0.6170537634408579
 31
0.0
  0
LINE
  5
8F
330
17
100
AcDbEntity
  8
0
100
AcDbLine
 10
7.59284895658493
 20
0.5740000000000001
 30
0.0
 11
7.59284895658493
 21
0.6170537634408579
 31
0.0
  0
LINE
  5
90
330
17
100
AcDbEntity
  8
0
100
AcDbLine
 10
7.59284895658493
 20
0.6170537634408579
 30
0.0
 11
7.59284895658493
 21
0.6385806451612869
 31
0.0
  0
LINE
  5
91
330
17
100
AcDbEntity
  8
0
100
AcDbLine
 10
7.59284895658493
 20
0.6385806451612869
 30
0.0
 11
7.59284895658493
 21
0.6395161290322546
 31
0.0
  0
LINE
  5
92
330
17
100
AcDbEntity
  8
0
100
AcDbLine
 10
7.59284895658493
 20
0.6395161290322546
 30
0.0
 11
7.59284895658493
 21
1.7181290322580651
 31
0.0
  0
LINE
  5
93
330
17
100
AcDbEntity
  8
0
100
AcDbLine
 10
7.59284895658493
 20
1.7181290322580651
 30
0.0
 11
7.59284895658493
 21
1.997838709677421
 31
0.0
  0
LINE
  5
94
330
17
100
AcDbEntity
  8
0
100
AcDbLine
 10
7.59284895658493
 20
1.997838709677421
 30
0.0
 11
7.59284895658493
 21
2.0802052821128423
 31
0.0
  0
LINE
  5
95
330
17
100
AcDbEntity
  8
0
100
AcDbLine
 10
7.59284895658493
 20
2.0802052821128423
 30
0.0
 11
7.59284895658493
 21
2.081787878787876
 31
0.0
  0
LINE
  5
96
330
17
100
AcDbEntity
  8
0
100
AcDbLine
 10
7.59284895658493
 20
2.081787878787876
 30
0.0
 11
7.59284895658493
 21
2.086650872817952
 31
0.0
  0
LINE
  5
97
330
17
100
AcDbEntity
  8
0
100
AcDbLine
 10
7.59284895658493
 20
2.086650872817952
 30
0.0
 11
7.59284895658493
 21
2.090367346938772
 31
0.0
  0
LINE
  5
98
330
17
100
AcDbEntity
  8
0
100
AcDbLine
 10
7.59284895658493
 20
2.090367346938772
 30
0.0
 11
7.59284895658493
 21
2.093095979247727
 31
0.0
  0
LINE
  5
99
330
17
100
AcDbEntity
  8
0
100
AcDbLine
 10
7.59284895658493
 20
2.093095979247727
 30
0.0
 11
7.59284895658493
 21
3.438350194552534
 31
0.0
  0
LINE
  5
9A
330
17
100
AcDbEntity
  8
0
100
AcDbLine
 10
7.59284895658493
 20
3.438350194552534
 30
0.0
 11
7.59284895658493
 21
3.5529453823237325
 31
0.0
  0
LINE
  5
9B
330
17
100
AcDbEntity
  8
0
100
AcDbLine
 10
7.59284895658493
 20
3.5529453823237325
 30
0.0
 11
7.59284895658493
 21
3.828191658391261
 31
0.0
  0
LINE
  5
9C
330
17
100
AcDbEntity
  8
0
100
AcDbLine
 10
7.59284895658493
 20
3.828191658391261
 30
0.0
 11
7.59284895658493
 21
5.2099463753724
 31
0.0
  0
LINE
  5
9D
330
17
100
AcDbEntity
  8
0
100
AcDbLine
 10
7.59284895658493
 20
5.2099463753724
 30
0.0
 11
7.59284895658493
 21
5.279329032258067
 31
0.0
  0
LINE
  5
9E
330
17
100
AcDbEntity
  8
0
100
AcDbLine
 10
7.59284895658493
 20
5.279329032258067
 30
0.0
 11
7.59284895658493
 21
5.3523096774193535
 31
0.0
  0
LINE
  5
9F
330
17
100
AcDbEntity
  8
0
100
AcDbLine
 10
7.59284895658493
 20
5.3523096774193535
 30
0.0
 11
7.59284895658493
 21
5.358948387096773
 31
0.0
  0
LINE
  5
A0
330
17
100
AcDbEntity
  8
0
100
AcDbLine
 10
7.59284895658493
 20
5.358948387096773
 30
0.0
 11
7.59284895658493
 21
5.635877419354838
 31
0.0
  0
LINE
  5
A1
330
17
100
AcDbEntity
  8
0
100
AcDbLine
 10
7.59284895658493
 20
5.635877419354838
 30
0.0
 11
7.59284895658493
 21
5.683802383316779
 31
0.0
  0
LINE
  5
A2
330
17
100
AcDbEntity
  8
0
100
AcDbLine
 10
7.59284895658493
 20
5.683802383316779
 30
0.0
 11
7.59284895658493
 21
7.0655571002979185
 31
0.0
  0
LINE
  5
A3
330
17
100
AcDbEntity
  8
0
100
AcDbLine
 10
7.59284895658493
 20
7.0655571002979185
 30
0.0
 11
7.59284895658493
 21
7.11545806451613
 31
0.0
  0
LINE
  5
A4
330
17
100
AcDbEntity
  8
0
100
AcDbLine
 10
7.59284895658493
 20
7.11545806451613
 30
0.0
 11
7.59284895658493
 21
7.399025806451615
 31
0.0
  0
LINE
  5
A5
330
17
100
AcDbEntity
  8
0
100
AcDbLine
 10
7.59284895658493
 20
7.399025806451615
 30
0.0
 11
7.59284895658493
 21
7.472006451612901
 31
0.0
  0
LINE
  5
A6
330
17
100
AcDbEntity
  8
0
100
AcDbLine
 10
7.59284895658493
 20
7.472006451612901
 30
0.0
 11
7.59284895658493
 21
7.539413108242298
 31
0.0
  0
LINE
  5
A7
330
17
100
AcDbEntity
  8
0
100
AcDbLine
 10
7.59284895658493
 20
7.539413108242298
 30
0.0
 11
7.59284895658493
 21
8.921167825223437
 31
0.0
  0
LINE
  5
A8
330
17
100
AcDbEntity
  8
0
100
AcDbLine
 10
7.59284895658493
 20
8.921167825223437
 30
0.0
 11
7.59284895658493
 21
9.196414101290966
 31
0.0
  0
LINE
  5
A9
330
17
100
AcDbEntity
  8
0
100
AcDbLine
 10
7.59284895658493
 20
9.196414101290966
 30
0.0
 11
7.59284895658493
 21
9.30941032998565
 31
0.0
  0
LINE
  5
AA
330
17
100
AcDbEntity
  8
0
100
AcDbLine
 10
7.59284895658493
 20
9.30941032998565
 30
0.0
 11
7.59284895658493
 21
9.31117997097242
 31
0.0
  0
LINE
  5
AB
330
17
100
AcDbEntity
  8
0
100
AcDbLine
 10
7.59284895658493
 20
9.31117997097242
 30
0.0
 11
7.59284895658493
 21
9.317771558245079
 31
0.0
  0
LINE
  5
AC
330
17
100
AcDbEntity
  8
0
100
AcDbLine
 10
7.59284895658493
 20
9.317771558245079
 30
0.0
 11
7.59284895658493
 21
10.637107413010595
 31
0.0
  0
LINE
  5
AD
330
17
100
AcDbEntity
  8
0
100
AcDbLine
 10
7.59284895658493
 20
10.637107413010595
 30
0.0
 11
7.59284895658493
 21
10.637879518072294
 31
0.0
  0
LINE
  5
AE
330
17
100
AcDbEntity
  8
0
100
AcDbLine
 10
7.59284895658493
 20
10.637879518072294
 30
0.0
 11
7.59284895658493
 21
10.641519882179681
 31
0.0
  0
LINE
  5
AF
330
17
100
AcDbEntity
  8
0
100
AcDbLine
 10
7.59284895658493
 20
10.641519882179681
 30
0.0
 11
7.59284895658493
 21
10.651324099722995
 31
0.0
  0
LINE
  5
B0
330
17
100
AcDbEntity
  8
0
100
AcDbLine
 10
7.59284895658493
 20
10.651324099722995
 30
0.0
 11
7.59284895658493
 21
10.655762803234506
 31
0.0
  0
LINE
  5
B1
330
17
100
AcDbEntity
  8
0
100
AcDbLine
 10
7.59284895658493
 20
10.655762803234506
 30
0.0
 11
7.59284895658493
 21
10.662761290322583
 31
0.0
  0
LINE
  5
B2
330
17
100
AcDbEntity
  8
0
100
AcDbLine
 10
7.59284895658493
 20
10.662761290322583
 30
0.0
 11
7.59284895658493
 21
10.665280813214743
 31
0.0
  0
LINE
  5
B3
330
17
100
AcDbEntity
  8
0
100
AcDbLine
 10
7.59284895658493
 20
10.665280813214743
 30
0.0
 11
7.59284895658493
 21
10.667900000000003
 31
0.0
  0
LINE
  5
B4
330
17
100
AcDbEntity
  8
0
100
AcDbLine
 10
7.59284895658493
 20
10.667900000000003
 30
0.0
 11
7.59284895658493
 21
10.668597014925377
 31
0.0
  0
LINE
  5
B5
330
17
100
AcDbEntity
  8
0
100
AcDbLine
 10
7.59284895658493
 20
10.668597014925377
 30
0.0
 11
7.59284895658493
 21
10.776778550148954
 31
0.0
  0
LINE
  5
B6
330
17
100
AcDbEntity
  8
0
100
AcDbLine
 10
7.59284895658493
 20
10.776778550148954
 30
0.0
 11
7.59284895658493
 21
11.052024826216485
 31
0.0
  0
LINE
  5
B7
330
17
100
AcDbEntity
  8
0
100
AcDbLine
 10
7.59284895658493
 20
11.052024826216485
 30
0.0
 11
7.59284895658493
 21
12.433779543197621
 31
0.0
  0
LINE
  5
B8
330
17
100
AcDbEntity
  8
0
100
AcDbLine
 10
7.59284895658493
 20
12.433779543197621
 30
0.0
 11
7.59284895658493
 21
12.494812903225808
 31
0.0
  0
LINE
  5
B9
330
17
100
AcDbEntity
  8
0
100
AcDbLine
 10
7.59284895658493
 20
12.494812903225808
 30
0.0
 11
7.59284895658493
 21
12.567793548387096
 31
0.0
  0
LINE
  5
BA
330
17
100
AcDbEntity
  8
0
100
AcDbLine
 10
7.59284895658493
 20
12.567793548387096
 30
0.0
 11
7.59284895658493
 21
12.85136129032258
 31
0.0
  0
LINE
  5
BB
330
17
100
AcDbEntity
  8
0
100
AcDbLine
 10
7.59284895658493
 20
12.85136129032258
 30
0.0
 11
7.59284895658493
 21
12.87948157248157
 31
0.0
  0
LINE
  5
BC
330
17
100
AcDbEntity
  8
0
100
AcDbLine
 10
7.59284895658493
 20
12.87948157248157
 30
0.0
 11
7.59284895658493
 21
14.282135954135958
 31
0.0
  0
LINE
  5
BD
330
17
100
AcDbEntity
  8
0
100
AcDbLine
 10
7.59284895658493
 20
14.282135954135958
 30
0.0
 11
7.59284895658493
 21
14.391324538258573
 31
0.0
  0
LINE
  5
BE
330
17
100
AcDbEntity
  8
0
100
AcDbLine
 10
7.59284895658493
 20
14.391324538258573
 30
0.0
 11
7.59284895658493
 21
14.628
 31
0.0
  0
LINE
  5
BF
330
17
100
AcDbEntity
  8
0
100
AcDbLine
 10
10.09284895658493
 20
0.515
 30
0.0
 11
10.09284895658493
 21
0.5566666666666644
 31
0.0
  0
LINE
  5
C0
330
17
100
AcDbEntity
  8
0
100
AcDbLine
 10
10.09284895658493
 20
0.515
 30
0.0
 11
10.09284895658493
 21
0.5566666666666644
 31
0.0
  0
LINE
  5
C1
330
17
100
AcDbEntity
  8
0
100
AcDbLine
 10
10.09284895658493
 20
0.5566666666666644
 30
0.0
 11
10.09284895658493
 21
0.5827966101694878
 31
0.0
  0
LINE
  5
C2
330
17
100
AcDbEntity
  8
0
100
AcDbLine
 10
10.09284895658493
 20
0.5827966101694878
 30
0.0
 11
10.09284895658493
 21
1.7163559322033908
 31
0.0
  0
LINE
  5
C3
330
17
100
AcDbEntity
  8
0
100
AcDbLine
 10
10.09284895658493
 20
1.7163559322033908
 30
0.0
 11
10.09284895658493
 21
1.9960169491525444
 31
0.0
  0
LINE
  5
C4
330
17
100
AcDbEntity
  8
0
100
AcDbLine
 10
10.09284895658493
 20
1.9960169491525444
 30
0.0
 11
10.09284895658493
 21
2.083853717026376
 31
0.0
  0
LINE
  5
C5
330
17
100
AcDbEntity
  8
0
100
AcDbLine
 10
10.09284895658493
 20
2.083853717026376
 30
0.0
 11
10.09284895658493
 21
2.085787878787876
 31
0.0
  0
LINE
  5
C6
330
17
100
AcDbEntity
  8
0
100
AcDbLine
 10
10.09284895658493
 20
2.085787878787876
 30
0.0
 11
10.09284895658493
 21
2.089316831683165
 31
0.0
  0
LINE
  5
C7
330
17
100
AcDbEntity
  8
0
100
AcDbLine
 10
10.09284895658493
 20
2.089316831683165
 30
0.0
 11
10.09284895658493
 21
2.0905511221945106
 31
0.0
  0
LINE
  5
C8
330
17
100
AcDbEntity
  8
0
100
AcDbLine
 10
10.09284895658493
 20
2.0905511221945106
 30
0.0
 11
10.09284895658493
 21
2.0918040201004993
 31
0.0
  0
LINE
  5
C9
330
17
100
AcDbEntity
  8
0
100
AcDbLine
 10
10.09284895658493
 20
2.0918040201004993
 30
0.0
 11
10.09284895658493
 21
2.093075949367085
 31
0.0
  0
LINE
  5
CA
330
17
100
AcDbEntity
  8
0
100
AcDbLine
 10
10.09284895658493
 20
2.093075949367085
 30
0.0
 11
10.09284895658493
 21
2.093719186785257
 31
0.0
  0
LINE
  5
CB
330
17
100
AcDbEntity
  8
0
100
AcDbLine
 10
10.09284895658493
 20
2.093719186785257
 30
0.0
 11
10.09284895658493
 21
3.441241423125799
 31
0.0
  0
LINE
  5
CC
330
17
100
AcDbEntity
  8
0
100
AcDbLine
 10
10.09284895658493
 20
3.441241423125799
 30
0.0
 11
10.09284895658493
 21
3.55570705064548
 31
0.0
  0
LINE
  5
CD
330
17
100
AcDbEntity
  8
0
100
AcDbLine
 10
10.09284895658493
 20
3.55570705064548
 30
0.0
 11
10.09284895658493
 21
3.831873882820258
 31
0.0
  0
LINE
  5
CE
330
17
100
AcDbEntity
  8
0
100
AcDbLine
 10
10.09284895658493
 20
3.831873882820258
 30
0.0
 11
10.09284895658493
 21
5.212708043694148
 31
0.0
  0
LINE
  5
CF
330
17
100
AcDbEntity
  8
0
100
AcDbLine
 10
10.09284895658493
 20
5.212708043694148
 30
0.0
 11
10.09284895658493
 21
5.28217419354839
 31
0.0
  0
LINE
  5
D0
330
17
100
AcDbEntity
  8
0
100
AcDbLine
 10
10.09284895658493
 20
5.28217419354839
 30
0.0
 11
10.09284895658493
 21
5.355154838709677
 31
0.0
  0
LINE
  5
D1
330
17
100
AcDbEntity
  8
0
100
AcDbLine
 10
10.09284895658493
 20
5.355154838709677
 30
0.0
 11
10.09284895658493
 21
5.639670967741935
 31
0.0
  0
LINE
  5
D2
330
17
100
AcDbEntity
  8
0
100
AcDbLine
 10
10.09284895658493
 20
5.639670967741935
 30
0.0
 11
10.09284895658493
 21
5.687484607745777
 31
0.0
  0
LINE
  5
D3
330
17
100
AcDbEntity
  8
0
100
AcDbLine
 10
10.09284895658493
 20
5.687484607745777
 30
0.0
 11
10.09284895658493
 21
7.068318768619666
 31
0.0
  0
LINE
  5
D4
330
17
100
AcDbEntity
  8
0
100
AcDbLine
 10
10.09284895658493
 20
7.068318768619666
 30
0.0
 11
10.09284895658493
 21
7.118303225806453
 31
0.0
  0
LINE
  5
D5
330
17
100
AcDbEntity
  8
0
100
AcDbLine
 10
10.09284895658493
 20
7.118303225806453
 30
0.0
 11
10.09284895658493
 21
7.402819354838711
 31
0.0
  0
LINE
  5
D6
330
17
100
AcDbEntity
  8
0
100
AcDbLine
 10
10.09284895658493
 20
7.402819354838711
 30
0.0
 11
10.09284895658493
 21
7.475799999999998
 31
0.0
  0
LINE
  5
D7
330
17
100
AcDbEntity
  8
0
100
AcDbLine
 10
10.09284895658493
 20
7.475799999999998
 30
0.0
 11
10.09284895658493
 21
7.543095332671295
 31
0.0
  0
LINE
  5
D8
330
17
100
AcDbEntity
  8
0
100
AcDbLine
 10
10.09284895658493
 20
7.543095332671295
 30
0.0
 11
10.09284895658493
 21
8.923929493545184
 31
0.0
  0
LINE
  5
D9
330
17
100
AcDbEntity
  8
0
100
AcDbLine
 10
10.09284895658493
 20
8.923929493545184
 30
0.0
 11
10.09284895658493
 21
9.200096325719961
 31
0.0
  0
LINE
  5
DA
330
17
100
AcDbEntity
  8
0
100
AcDbLine
 10
10.09284895658493
 20
9.200096325719961
 30
0.0
 11
10.09284895658493
 21
9.312831187410582
 31
0.0
  0
LINE
  5
DB
330
17
100
AcDbEntity
  8
0
100
AcDbLine
 10
10.09284895658493
 20
9.312831187410582
 30
0.0
 11
10.09284895658493
 21
9.31506386066763
 31
0.0
  0
LINE
  5
DC
330
17
100
AcDbEntity
  8
0
100
AcDbLine
 10
10.09284895658493
 20
9.31506386066763
 30
0.0
 11
10.09284895658493
 21
9.321771558245079
 31
0.0
  0
LINE
  5
DD
330
17
100
AcDbEntity
  8
0
100
AcDbLine
 10
10.09284895658493
 20
9.321771558245079
 30
0.0
 11
10.09284895658493
 21
10.640228441754921
 31
0.0
  0
LINE
  5
DE
330
17
100
AcDbEntity
  8
0
100
AcDbLine
 10
10.09284895658493
 20
10.640228441754921
 30
0.0
 11
10.09284895658493
 21
10.641000000000005
 31
0.0
  0
LINE
  5
DF
330
17
100
AcDbEntity
  8
0
100
AcDbLine
 10
10.09284895658493
 20
10.641000000000005
 30
0.0
 11
10.09284895658493
 21
10.646218658892133
 31
0.0
  0
LINE
  5
E0
330
17
100
AcDbEntity
  8
0
100
AcDbLine
 10
10.09284895658493
 20
10.646218658892133
 30
0.0
 11
10.09284895658493
 21
10.651225988700569
 31
0.0
  0
LINE
  5
E1
330
17
100
AcDbEntity
  8
0
100
AcDbLine
 10
10.09284895658493
 20
10.651225988700569
 30
0.0
 11
10.09284895658493
 21
10.652790209790213
 31
0.0
  0
LINE
  5
E2
330
17
100
AcDbEntity
  8
0
100
AcDbLine
 10
10.09284895658493
 20
10.652790209790213
 30
0.0
 11
10.09284895658493
 21
10.658762803234506
 31
0.0
  0
LINE
  5
E3
330
17
100
AcDbEntity
  8
0
100
AcDbLine
 10
10.09284895658493
 20
10.658762803234506
 30
0.0
 11
10.09284895658493
 21
10.660292389853142
 31
0.0
  0
LINE
  5
E4
330
17
100
AcDbEntity
  8
0
100
AcDbLine
 10
10.09284895658493
 20
10.660292389853142
 30
0.0
 11
10.09284895658493
 21
10.663073490813652
 31
0.0
  0
LINE
  5
E5
330
17
100
AcDbEntity
  8
0
100
AcDbLine
 10
10.09284895658493
 20
10.663073490813652
 30
0.0
 11
10.09284895658493
 21
10.668382465057183
 31
0.0
  0
LINE
  5
E6
330
17
100
AcDbEntity
  8
0
100
AcDbLine
 10
10.09284895658493
 20
10.668382465057183
 30
0.0
 11
10.09284895658493
 21
10.671000000000003
 31
0.0
  0
LINE
  5
E7
330
17
100
AcDbEntity
  8
0
100
AcDbLine
 10
10.09284895658493
 20
10.671000000000003
 30
0.0
 11
10.09284895658493
 21
10.779540218470702
 31
0.0
  0
LINE
  5
E8
330
17
100
AcDbEntity
  8
0
100
AcDbLine
 10
10.09284895658493
 20
10.779540218470702
 30
0.0
 11
10.09284895658493
 21
11.05570705064548
 31
0.0
  0
LINE
  5
E9
330
17
100
AcDbEntity
  8
0
100
AcDbLine
 10
10.09284895658493
 20
11.05570705064548
 30
0.0
 11
10.09284895658493
 21
12.436541211519371
 31
0.0
  0
LINE
  5
EA
330
17
100
AcDbEntity
  8
0
100
AcDbLine
 10
10.09284895658493
 20
12.436541211519371
 30
0.0
 11
10.09284895658493
 21
12.49765806451613
 31
0.0
  0
LINE
  5
EB
330
17
100
AcDbEntity
  8
0
100
AcDbLine
 10
10.09284895658493
 20
12.49765806451613
 30
0.0
 11
10.09284895658493
 21
12.570638709677418
 31
0.0
  0
LINE
  5
EC
330
17
100
AcDbEntity
  8
0
100
AcDbLine
 10
10.09284895658493
 20
12.570638709677418
 30
0.0
 11
10.09284895658493
 21
12.855154838709675
 31
0.0
  0
LINE
  5
ED
330
17
100
AcDbEntity
  8
0
100
AcDbLine
 10
10.09284895658493
 20
12.855154838709675
 30
0.0
 11
10.09284895658493
 21
12.883545155993428
 31
0.0
  0
LINE
  5
EE
330
17
100
AcDbEntity
  8
0
100
AcDbLine
 10
10.09284895658493
 20
12.883545155993428
 30
0.0
 11
10.09284895658493
 21
14.28502298850575
 31
0.0
  0
LINE
  5
EF
330
17
100
AcDbEntity
  8
0
100
AcDbLine
 10
10.09284895658493
 20
14.28502298850575
 30
0.0
 11
10.09284895658493
 21
14.565318555008213
 31
0.0
  0
LINE
  5
F0
330
17
100
AcDbEntity
  8
0
100
AcDbLine
 10
10.09284895658493
 20
14.565318555008213
 30
0.0
 11
10.09284895658493
 21
14.588492029755582
 31
0.0
  0
LINE
  5
F1
330
17
100
AcDbEntity
  8
0
100
AcDbLine
 10
10.09284895658493
 20
14.588492029755582
 30
0.0
 11
10.09284895658493
 21
14.631
 31
0.0
  0
LINE
  5
F2
330
17
100
AcDbEntity
  8
0
100
AcDbLine
 10
12.59284895658493
 20
0.455
 30
0.0
 11
12.59284895658493
 21
0.49540404040403824
 31
0.0
  0
LINE
  5
F3
330
17
100
AcDbEntity
  8
0
100
AcDbLine
 10
12.59284895658493
 20
0.455
 30
0.0
 11
12.59284895658493
 21
0.49540404040403824
 31
0.0
  0
LINE
  5
F4
330
17
100
AcDbEntity
  8
0
100
AcDbLine
 10
12.59284895658493
 20
0.49540404040403824
 30
0.0
 11
12.59284895658493
 21
0.5264285714285676
 31
0.0
  0
LINE
  5
F5
330
17
100
AcDbEntity
  8
0
100
AcDbLine
 10
12.59284895658493
 20
0.5264285714285676
 30
0.0
 11
12.59284895658493
 21
1.7150000000000012
 31
0.0
  0
LINE
  5
F6
330
17
100
AcDbEntity
  8
0
100
AcDbLine
 10
12.59284895658493
 20
1.7150000000000012
 30
0.0
 11
12.59284895658493
 21
1.993571428571431
 31
0.0
  0
LINE
  5
F7
330
17
100
AcDbEntity
  8
0
100
AcDbLine
 10
12.59284895658493
 20
1.993571428571431
 30
0.0
 11
12.59284895658493
 21
2.0875358851674615
 31
0.0
  0
LINE
  5
F8
330
17
100
AcDbEntity
  8
0
100
AcDbLine
 10
12.59284895658493
 20
2.0875358851674615
 30
0.0
 11
12.59284895658493
 21
2.089690909090906
 31
0.0
  0
LINE
  5
F9
330
17
100
AcDbEntity
  8
0
100
AcDbLine
 10
12.59284895658493
 20
2.089690909090906
 30
0.0
 11
12.59284895658493
 21
2.0945511221945106
 31
0.0
  0
LINE
  5
FA
330
17
100
AcDbEntity
  8
0
100
AcDbLine
 10
12.59284895658493
 20
2.0945511221945106
 30
0.0
 11
12.59284895658493
 21
3.4449874843554493
 31
0.0
  0
LINE
  5
FB
330
17
100
AcDbEntity
  8
0
100
AcDbLine
 10
12.59284895658493
 20
3.4449874843554493
 30
0.0
 11
12.59284895658493
 21
3.5593892750744773
 31
0.0
  0
LINE
  5
FC
330
17
100
AcDbEntity
  8
0
100
AcDbLine
 10
12.59284895658493
 20
3.5593892750744773
 30
0.0
 11
12.59284895658493
 21
3.835556107249255
 31
0.0
  0
LINE
  5
FD
330
17
100
AcDbEntity
  8
0
100
AcDbLine
 10
12.59284895658493
 20
3.835556107249255
 30
0.0
 11
12.59284895658493
 21
5.216390268123145
 31
0.0
  0
LINE
  5
FE
330
17
100
AcDbEntity
  8
0
100
AcDbLine
 10
12.59284895658493
 20
5.216390268123145
 30
0.0
 11
12.59284895658493
 21
5.285967741935487
 31
0.0
  0
LINE
  5
FF
330
17
100
AcDbEntity
  8
0
100
AcDbLine
 10
12.59284895658493
 20
5.285967741935487
 30
0.0
 11
12.59284895658493
 21
5.358948387096773
 31
0.0
  0
LINE
  5
100
330
17
100
AcDbEntity
  8
0
100
AcDbLine
 10
12.59284895658493
 20
5.358948387096773
 30
0.0
 11
12.59284895658493
 21
5.643464516129032
 31
0.0
  0
LINE
  5
101
330
17
100
AcDbEntity
  8
0
100
AcDbLine
 10
12.59284895658493
 20
5.643464516129032
 30
0.0
 11
12.59284895658493
 21
5.6911668321747735
 31
0.0
  0
LINE
  5
102
330
17
100
AcDbEntity
  8
0
100
AcDbLine
 10
12.59284895658493
 20
5.6911668321747735
 30
0.0
 11
12.59284895658493
 21
7.072000993048663
 31
0.0
  0
LINE
  5
103
330
17
100
AcDbEntity
  8
0
100
AcDbLine
 10
12.59284895658493
 20
7.072000993048663
 30
0.0
 11
12.59284895658493
 21
7.122096774193549
 31
0.0
  0
LINE
  5
104
330
17
100
AcDbEntity
  8
0
100
AcDbLine
 10
12.59284895658493
 20
7.122096774193549
 30
0.0
 11
12.59284895658493
 21
7.406612903225809
 31
0.0
  0
LINE
  5
105
330
17
100
AcDbEntity
  8
0
100
AcDbLine
 10
12.59284895658493
 20
7.406612903225809
 30
0.0
 11
12.59284895658493
 21
7.479593548387095
 31
0.0
  0
LINE
  5
106
330
17
100
AcDbEntity
  8
0
100
AcDbLine
 10
12.59284895658493
 20
7.479593548387095
 30
0.0
 11
12.59284895658493
 21
7.546777557100292
 31
0.0
  0
LINE
  5
107
330
17
100
AcDbEntity
  8
0
100
AcDbLine
 10
12.59284895658493
 20
7.546777557100292
 30
0.0
 11
12.59284895658493
 21
8.927611717974182
 31
0.0
  0
LINE
  5
108
330
17
100
AcDbEntity
  8
0
100
AcDbLine
 10
12.59284895658493
 20
8.927611717974182
 30
0.0
 11
12.59284895658493
 21
9.203778550148959
 31
0.0
  0
LINE
  5
109
330
17
100
AcDbEntity
  8
0
100
AcDbLine
 10
12.59284895658493
 20
9.203778550148959
 30
0.0
 11
12.59284895658493
 21
9.316369472182592
 31
0.0
  0
LINE
  5
10A
330
17
100
AcDbEntity
  8
0
100
AcDbLine
 10
12.59284895658493
 20
9.316369472182592
 30
0.0
 11
12.59284895658493
 21
9.31906386066763
 31
0.0
  0
LINE
  5
10B
330
17
100
AcDbEntity
  8
0
100
AcDbLine
 10
12.59284895658493
 20
9.31906386066763
 30
0.0
 11
12.59284895658493
 21
9.32423538230884
 31
0.0
  0
LINE
  5
10C
330
17
100
AcDbEntity
  8
0
100
AcDbLine
 10
12.59284895658493
 20
9.32423538230884
 30
0.0
 11
12.59284895658493
 21
9.325771558245078
 31
0.0
  0
LINE
  5
10D
330
17
100
AcDbEntity
  8
0
100
AcDbLine
 10
12.59284895658493
 20
9.325771558245078
 30
0.0
 11
12.59284895658493
 21
10.64422844175492
 31
0.0
  0
LINE
  5
10E
330
17
100
AcDbEntity
  8
0
100
AcDbLine
 10
12.59284895658493
 20
10.64422844175492
 30
0.0
 11
12.59284895658493
 21
10.650218658892133
 31
0.0
  0
LINE
  5
10F
330
17
100
AcDbEntity
  8
0
100
AcDbLine
 10
12.59284895658493
 20
10.650218658892133
 30
0.0
 11
12.59284895658493
 21
10.655225988700568
 31
0.0
  0
LINE
  5
110
330
17
100
AcDbEntity
  8
0
100
AcDbLine
 10
12.59284895658493
 20
10.655225988700568
 30
0.0
 11
12.59284895658493
 21
10.656790209790213
 31
0.0
  0
LINE
  5
111
330
17
100
AcDbEntity
  8
0
100
AcDbLine
 10
12.59284895658493
 20
10.656790209790213
 30
0.0
 11
12.59284895658493
 21
10.662762803234505
 31
0.0
  0
LINE
  5
112
330
17
100
AcDbEntity
  8
0
100
AcDbLine
 10
12.59284895658493
 20
10.662762803234505
 30
0.0
 11
12.59284895658493
 21
10.671081946222793
 31
0.0
  0
LINE
  5
113
330
17
100
AcDbEntity
  8
0
100
AcDbLine
 10
12.59284895658493
 20
10.671081946222793
 30
0.0
 11
12.59284895658493
 21
10.672280813214742
 31
0.0
  0
LINE
  5
114
330
17
100
AcDbEntity
  8
0
100
AcDbLine
 10
12.59284895658493
 20
10.672280813214742
 30
0.0
 11
12.59284895658493
 21
10.674900000000003
 31
0.0
  0
LINE
  5
115
330
17
100
AcDbEntity
  8
0
100
AcDbLine
 10
12.59284895658493
 20
10.674900000000003
 30
0.0
 11
12.59284895658493
 21
10.7832224428997
 31
0.0
  0
LINE
  5
116
330
17
100
AcDbEntity
  8
0
100
AcDbLine
 10
12.59284895658493
 20
10.7832224428997
 30
0.0
 11
12.59284895658493
 21
11.059389275074478
 31
0.0
  0
LINE
  5
117
330
17
100
AcDbEntity
  8
0
100
AcDbLine
 10
12.59284895658493
 20
11.059389275074478
 30
0.0
 11
12.59284895658493
 21
12.440223435948367
 31
0.0
  0
LINE
  5
118
330
17
100
AcDbEntity
  8
0
100
AcDbLine
 10
12.59284895658493
 20
12.440223435948367
 30
0.0
 11
12.59284895658493
 21
12.501451612903228
 31
0.0
  0
LINE
  5
119
330
17
100
AcDbEntity
  8
0
100
AcDbLine
 10
12.59284895658493
 20
12.501451612903228
 30
0.0
 11
12.59284895658493
 21
12.574432258064514
 31
0.0
  0
LINE
  5
11A
330
17
100
AcDbEntity
  8
0
100
AcDbLine
 10
12.59284895658493
 20
12.574432258064514
 30
0.0
 11
12.59284895658493
 21
12.858948387096774
 31
0.0
  0
LINE
  5
11B
330
17
100
AcDbEntity
  8
0
100
AcDbLine
 10
12.59284895658493
 20
12.858948387096774
 30
0.0
 11
12.59284895658493
 21
12.887718286655682
 31
0.0
  0
LINE
  5
11C
330
17
100
AcDbEntity
  8
0
100
AcDbLine
 10
12.59284895658493
 20
12.887718286655682
 30
0.0
 11
12.59284895658493
 21
14.28887149917628
 31
0.0
  0
LINE
  5
11D
330
17
100
AcDbEntity
  8
0
100
AcDbLine
 10
12.59284895658493
 20
14.28887149917628
 30
0.0
 11
12.59284895658493
 21
14.569102141680398
 31
0.0
  0
LINE
  5
11E
330
17
100
AcDbEntity
  8
0
100
AcDbLine
 10
12.59284895658493
 20
14.569102141680398
 30
0.0
 11
12.59284895658493
 21
14.5925821845175
 31
0.0
  0
LINE
  5
11F
330
17
100
AcDbEntity
  8
0
100
AcDbLine
 10
12.59284895658493
 20
14.5925821845175
 30
0.0
 11
12.59284895658493
 21
14.635
 31
0.0
  0
LINE
  5
120
330
17
100
AcDbEntity
  8
0
100
AcDbLine
 10
0.45
 20
2.5922380685806274
 30
0.0
 11
0.70061728395062
 21
2.5922380685806274
 31
0.0
  0
LINE
  5
121
330
17
100
AcDbEntity
  8
0
100
AcDbLine
 10
0.45
 20
2.5922380685806274
 30
0.0
 11
0.70061728395062
 21
2.5922380685806274
 31
0.0
  0
LINE
  5
122
330
17
100
AcDbEntity
  8
0
100
AcDbLine
 10
0.70061728395062
 20
2.5922380685806274
 30
0.0
 11
0.8002959641255578
 21
2.5922380685806274
 31
0.0
  0
LINE
  5
123
330
17
100
AcDbEntity
  8
0
100
AcDbLine
 10
0.8002959641255578
 20
2.5922380685806274
 30
0.0
 11
2.1936008968609895
 21
2.5922380685806274
 31
0.0
  0
LINE
  5
124
330
17
100
AcDbEntity
  8
0
100
AcDbLine
 10
2.1936008968609895
 20
2.5922380685806274
 30
0.0
 11
2.2321612903225816
 21
2.5922380685806274
 31
0.0
  0
LINE
  5
125
330
17
100
AcDbEntity
  8
0
100
AcDbLine
 10
2.2321612903225816
 20
2.5922380685806274
 30
0.0
 11
2.5157290322580668
 21
2.5922380685806274
 31
0.0
  0
LINE
  5
126
330
17
100
AcDbEntity
  8
0
100
AcDbLine
 10
2.5157290322580668
 20
2.5922380685806274
 30
0.0
 11
2.588709677419353
 21
2.5922380685806274
 31
0.0
  0
LINE
  5
127
330
17
100
AcDbEntity
  8
0
100
AcDbLine
 10
2.588709677419353
 20
2.5922380685806274
 30
0.0
 11
2.6527209533267078
 21
2.5922380685806274
 31
0.0
  0
LINE
  5
128
330
17
100
AcDbEntity
  8
0
100
AcDbLine
 10
2.6527209533267078
 20
2.5922380685806274
 30
0.0
 11
4.034475670307846
 21
2.5922380685806274
 31
0.0
  0
LINE
  5
129
330
17
100
AcDbEntity
  8
0
100
AcDbLine
 10
4.034475670307846
 20
2.5922380685806274
 30
0.0
 11
4.309721946375375
 21
2.5922380685806274
 31
0.0
  0
LINE
  5
12A
330
17
100
AcDbEntity
  8
0
100
AcDbLine
 10
4.309721946375375
 20
2.5922380685806274
 30
0.0
 11
4.419312169312166
 21
2.5922380685806274
 31
0.0
  0
LINE
  5
12B
330
17
100
AcDbEntity
  8
0
100
AcDbLine
 10
4.419312169312166
 20
2.5922380685806274
 30
0.0
 11
4.422237196765495
 21
2.5922380685806274
 31
0.0
  0
LINE
  5
12C
330
17
100
AcDbEntity
  8
0
100
AcDbLine
 10
4.422237196765495
 20
2.5922380685806274
 30
0.0
 11
4.426675900277004
 21
2.5922380685806274
 31
0.0
  0
LINE
  5
12D
330
17
100
AcDbEntity
  8
0
100
AcDbLine
 10
4.426675900277004
 20
2.5922380685806274
 30
0.0
 11
4.43648011782032
 21
2.5922380685806274
 31
0.0
  0
LINE
  5
12E
330
17
100
AcDbEntity
  8
0
100
AcDbLine
 10
4.43648011782032
 20
2.5922380685806274
 30
0.0
 11
4.440120481927706
 21
2.5922380685806274
 31
0.0
  0
LINE
  5
12F
330
17
100
AcDbEntity
  8
0
100
AcDbLine
 10
4.440120481927706
 20
2.5922380685806274
 30
0.0
 11
4.440892586989405
 21
2.5922380685806274
 31
0.0
  0
LINE
  5
130
330
17
100
AcDbEntity
  8
0
100
AcDbLine
 10
4.440892586989405
 20
2.5922380685806274
 30
0.0
 11
5.760228441754922
 21
2.5922380685806274
 31
0.0
  0
LINE
  5
131
330
17
100
AcDbEntity
  8
0
100
AcDbLine
 10
5.760228441754922
 20
2.5922380685806274
 30
0.0
 11
5.76682002902758
 21
2.5922380685806274
 31
0.0
  0
LINE
  5
132
330
17
100
AcDbEntity
  8
0
100
AcDbLine
 10
5.76682002902758
 20
2.5922380685806274
 30
0.0
 11
5.774972413793107
 21
2.5922380685806274
 31
0.0
  0
LINE
  5
133
330
17
100
AcDbEntity
  8
0
100
AcDbLine
 10
5.774972413793107
 20
2.5922380685806274
 30
0.0
 11
5.777829268292687
 21
2.5922380685806274
 31
0.0
  0
LINE
  5
134
330
17
100
AcDbEntity
  8
0
100
AcDbLine
 10
5.777829268292687
 20
2.5922380685806274
 30
0.0
 11
5.779375838926178
 21
2.5922380685806274
 31
0.0
  0
LINE
  5
135
330
17
100
AcDbEntity
  8
0
100
AcDbLine
 10
5.779375838926178
 20
2.5922380685806274
 30
0.0
 11
5.780078771695598
 21
2.5922380685806274
 31
0.0
  0
LINE
  5
136
330
17
100
AcDbEntity
  8
0
100
AcDbLine
 10
5.780078771695598
 20
2.5922380685806274
 30
0.0
 11
5.890086395233364
 21
2.5922380685806274
 31
0.0
  0
LINE
  5
137
330
17
100
AcDbEntity
  8
0
100
AcDbLine
 10
5.890086395233364
 20
2.5922380685806274
 30
0.0
 11
6.165332671300893
 21
2.5922380685806274
 31
0.0
  0
LINE
  5
138
330
17
100
AcDbEntity
  8
0
100
AcDbLine
 10
6.165332671300893
 20
2.5922380685806274
 30
0.0
 11
7.547087388282031
 21
2.5922380685806274
 31
0.0
  0
LINE
  5
139
330
17
100
AcDbEntity
  8
0
100
AcDbLine
 10
7.547087388282031
 20
2.5922380685806274
 30
0.0
 11
7.61151612903226
 21
2.5922380685806274
 31
0.0
  0
LINE
  5
13A
330
17
100
AcDbEntity
  8
0
100
AcDbLine
 10
7.61151612903226
 20
2.5922380685806274
 30
0.0
 11
7.684496774193546
 21
2.5922380685806274
 31
0.0
  0
LINE
  5
13B
330
17
100
AcDbEntity
  8
0
100
AcDbLine
 10
7.684496774193546
 20
2.5922380685806274
 30
0.0
 11
7.968064516129031
 21
2.5922380685806274
 31
0.0
  0
LINE
  5
13C
330
17
100
AcDbEntity
  8
0
100
AcDbLine
 10
7.968064516129031
 20
2.5922380685806274
 30
0.0
 11
8.02094339622641
 21
2.5922380685806274
 31
0.0
  0
LINE
  5
13D
330
17
100
AcDbEntity
  8
0
100
AcDbLine
 10
8.02094339622641
 20
2.5922380685806274
 30
0.0
 11
9.402698113207551
 21
2.5922380685806274
 31
0.0
  0
LINE
  5
13E
330
17
100
AcDbEntity
  8
0
100
AcDbLine
 10
9.402698113207551
 20
2.5922380685806274
 30
0.0
 11
9.677944389275078
 21
2.5922380685806274
 31
0.0
  0
LINE
  5
13F
330
17
100
AcDbEntity
  8
0
100
AcDbLine
 10
9.677944389275078
 20
2.5922380685806274
 30
0.0
 11
9.731212903225808
 21
2.5922380685806274
 31
0.0
  0
LINE
  5
140
330
17
100
AcDbEntity
  8
0
100
AcDbLine
 10
9.731212903225808
 20
2.5922380685806274
 30
0.0
 11
9.804193548387094
 21
2.5922380685806274
 31
0.0
  0
LINE
  5
141
330
17
100
AcDbEntity
  8
0
100
AcDbLine
 10
9.804193548387094
 20
2.5922380685806274
 30
0.0
 11
9.87655412115193
 21
2.5922380685806274
 31
0.0
  0
LINE
  5
142
330
17
100
AcDbEntity
  8
0
100
AcDbLine
 10
9.87655412115193
 20
2.5922380685806274
 30
0.0
 11
11.258308838133068
 21
2.5922380685806274
 31
0.0
  0
LINE
  5
143
330
17
100
AcDbEntity
  8
0
100
AcDbLine
 10
11.258308838133068
 20
2.5922380685806274
 30
0.0
 11
11.533555114200597
 21
2.5922380685806274
 31
0.0
  0
LINE
  5
144
330
17
100
AcDbEntity
  8
0
100
AcDbLine
 10
11.533555114200597
 20
2.5922380685806274
 30
0.0
 11
11.56734193548387
 21
2.5922380685806274
 31
0.0
  0
LINE
  5
145
330
17
100
AcDbEntity
  8
0
100
AcDbLine
 10
11.56734193548387
 20
2.5922380685806274
 30
0.0
 11
12.99087096774194
 21
2.5922380685806274
 31
0.0
  0
LINE
  5
146
330
17
100
AcDbEntity
  8
0
100
AcDbLine
 10
12.99087096774194
 20
2.5922380685806274
 30
0.0
 11
13.063851612903225
 21
2.5922380685806274
 31
0.0
  0
LINE
  5
147
330
17
100
AcDbEntity
  8
0
100
AcDbLine
 10
13.063851612903225
 20
2.5922380685806274
 30
0.0
 11
13.100540954095408
 21
2.5922380685806274
 31
0.0
  0
LINE
  5
148
330
17
100
AcDbEntity
  8
0
100
AcDbLine
 10
13.100540954095408
 20
2.5922380685806274
 30
0.0
 11
13.378010801080107
 21
2.5922380685806274
 31
0.0
  0
LINE
  5
149
330
17
100
AcDbEntity
  8
0
100
AcDbLine
 10
13.378010801080107
 20
2.5922380685806274
 30
0.0
 11
14.666992799279933
 21
2.5922380685806274
 31
0.0
  0
LINE
  5
14A
330
17
100
AcDbEntity
  8
0
100
AcDbLine
 10
14.666992799279933
 20
2.5922380685806274
 30
0.0
 11
14.698778783308198
 21
2.5922380685806274
 31
0.0
  0
LINE
  5
14B
330
17
100
AcDbEntity
  8
0
100
AcDbLine
 10
14.698778783308198
 20
2.5922380685806274
 30
0.0
 11
14.739
 21
2.5922380685806274
 31
0.0
  0
LINE
  5
14C
330
17
100
AcDbEntity
  8
0
100
AcDbLine
 10
0.513
 20
5.092238068580627
 30
0.0
 11
0.7562624113475208
 21
5.092238068580627
 31
0.0
  0
LINE
  5
14D
330
17
100
AcDbEntity
  8
0
100
AcDbLine
 10
0.513
 20
5.092238068580627
 30
0.0
 11
0.7562624113475208
 21
5.092238068580627
 31
0.0
  0
LINE
  5
14E
330
17
100
AcDbEntity
  8
0
100
AcDbLine
 10
0.7562624113475208
 20
5.092238068580627
 30
0.0
 11
0.8606061120543268
 21
5.092238068580627
 31
0.0
  0
LINE
  5
14F
330
17
100
AcDbEntity
  8
0
100
AcDbLine
 10
0.8606061120543268
 20
5.092238068580627
 30
0.0
 11
2.2596706281833647
 21
5.092238068580627
 31
0.0
  0
LINE
  5
150
330
17
100
AcDbEntity
  8
0
100
AcDbLine
 10
2.2596706281833647
 20
5.092238068580627
 30
0.0
 11
2.291909677419356
 21
5.092238068580627
 31
0.0
  0
LINE
  5
151
330
17
100
AcDbEntity
  8
0
100
AcDbLine
 10
2.291909677419356
 20
5.092238068580627
 30
0.0
 11
2.575477419354841
 21
5.092238068580627
 31
0.0
  0
LINE
  5
152
330
17
100
AcDbEntity
  8
0
100
AcDbLine
 10
2.575477419354841
 20
5.092238068580627
 30
0.0
 11
2.6484580645161273
 21
5.092238068580627
 31
0.0
  0
LINE
  5
153
330
17
100
AcDbEntity
  8
0
100
AcDbLine
 10
2.6484580645161273
 20
5.092238068580627
 30
0.0
 11
2.7107159880834106
 21
5.092238068580627
 31
0.0
  0
LINE
  5
154
330
17
100
AcDbEntity
  8
0
100
AcDbLine
 10
2.7107159880834106
 20
5.092238068580627
 30
0.0
 11
4.0924707050645495
 21
5.092238068580627
 31
0.0
  0
LINE
  5
155
330
17
100
AcDbEntity
  8
0
100
AcDbLine
 10
4.0924707050645495
 20
5.092238068580627
 30
0.0
 11
4.367716981132078
 21
5.092238068580627
 31
0.0
  0
LINE
  5
156
330
17
100
AcDbEntity
  8
0
100
AcDbLine
 10
4.367716981132078
 20
5.092238068580627
 30
0.0
 11
4.476184713375793
 21
5.092238068580627
 31
0.0
  0
LINE
  5
157
330
17
100
AcDbEntity
  8
0
100
AcDbLine
 10
4.476184713375793
 20
5.092238068580627
 30
0.0
 11
4.477020486555695
 21
5.092238068580627
 31
0.0
  0
LINE
  5
158
330
17
100
AcDbEntity
  8
0
100
AcDbLine
 10
4.477020486555695
 20
5.092238068580627
 30
0.0
 11
4.481031496062989
 21
5.092238068580627
 31
0.0
  0
LINE
  5
159
330
17
100
AcDbEntity
  8
0
100
AcDbLine
 10
4.481031496062989
 20
5.092238068580627
 30
0.0
 11
4.485237196765495
 21
5.092238068580627
 31
0.0
  0
LINE
  5
15A
330
17
100
AcDbEntity
  8
0
100
AcDbLine
 10
4.485237196765495
 20
5.092238068580627
 30
0.0
 11
4.489675900277004
 21
5.092238068580627
 31
0.0
  0
LINE
  5
15B
330
17
100
AcDbEntity
  8
0
100
AcDbLine
 10
4.489675900277004
 20
5.092238068580627
 30
0.0
 11
4.49948011782032
 21
5.092238068580627
 31
0.0
  0
LINE
  5
15C
330
17
100
AcDbEntity
  8
0
100
AcDbLine
 10
4.49948011782032
 20
5.092238068580627
 30
0.0
 11
4.503120481927707
 21
5.092238068580627
 31
0.0
  0
LINE
  5
15D
330
17
100
AcDbEntity
  8
0
100
AcDbLine
 10
4.503120481927707
 20
5.092238068580627
 30
0.0
 11
4.503892586989405
 21
5.092238068580627
 31
0.0
  0
LINE
  5
15E
330
17
100
AcDbEntity
  8
0
100
AcDbLine
 10
4.503892586989405
 20
5.092238068580627
 30
0.0
 11
5.823228441754921
 21
5.092238068580627
 31
0.0
  0
LINE
  5
15F
330
17
100
AcDbEntity
  8
0
100
AcDbLine
 10
5.823228441754921
 20
5.092238068580627
 30
0.0
 11
5.82982002902758
 21
5.092238068580627
 31
0.0
  0
LINE
  5
160
330
17
100
AcDbEntity
  8
0
100
AcDbLine
 10
5.82982002902758
 20
5.092238068580627
 30
0.0
 11
5.834787623066108
 21
5.092238068580627
 31
0.0
  0
LINE
  5
161
330
17
100
AcDbEntity
  8
0
100
AcDbLine
 10
5.834787623066108
 20
5.092238068580627
 30
0.0
 11
5.8363398328690845
 21
5.092238068580627
 31
0.0
  0
LINE
  5
162
330
17
100
AcDbEntity
  8
0
100
AcDbLine
 10
5.8363398328690845
 20
5.092238068580627
 30
0.0
 11
5.948081429990068
 21
5.092238068580627
 31
0.0
  0
LINE
  5
163
330
17
100
AcDbEntity
  8
0
100
AcDbLine
 10
5.948081429990068
 20
5.092238068580627
 30
0.0
 11
6.223327706057597
 21
5.092238068580627
 31
0.0
  0
LINE
  5
164
330
17
100
AcDbEntity
  8
0
100
AcDbLine
 10
6.223327706057597
 20
5.092238068580627
 30
0.0
 11
7.605082423038735
 21
5.092238068580627
 31
0.0
  0
LINE
  5
165
330
17
100
AcDbEntity
  8
0
100
AcDbLine
 10
7.605082423038735
 20
5.092238068580627
 30
0.0
 11
7.671264516129035
 21
5.092238068580627
 31
0.0
  0
LINE
  5
166
330
17
100
AcDbEntity
  8
0
100
AcDbLine
 10
7.671264516129035
 20
5.092238068580627
 30
0.0
 11
7.744245161290321
 21
5.092238068580627
 31
0.0
  0
LINE
  5
167
330
17
100
AcDbEntity
  8
0
100
AcDbLine
 10
7.744245161290321
 20
5.092238068580627
 30
0.0
 11
8.027812903225806
 21
5.092238068580627
 31
0.0
  0
LINE
  5
168
330
17
100
AcDbEntity
  8
0
100
AcDbLine
 10
8.027812903225806
 20
5.092238068580627
 30
0.0
 11
8.078938430983115
 21
5.092238068580627
 31
0.0
  0
LINE
  5
169
330
17
100
AcDbEntity
  8
0
100
AcDbLine
 10
8.078938430983115
 20
5.092238068580627
 30
0.0
 11
8.134426013195096
 21
5.092238068580627
 31
0.0
  0
LINE
  5
16A
330
17
100
AcDbEntity
  8
0
100
AcDbLine
 10
8.134426013195096
 20
5.092238068580627
 30
0.0
 11
9.460693147964253
 21
5.092238068580627
 31
0.0
  0
LINE
  5
16B
330
17
100
AcDbEntity
  8
0
100
AcDbLine
 10
9.460693147964253
 20
5.092238068580627
 30
0.0
 11
9.507393548387096
 21
5.092238068580627
 31
0.0
  0
LINE
  5
16C
330
17
100
AcDbEntity
  8
0
100
AcDbLine
 10
9.507393548387096
 20
5.092238068580627
 30
0.0
 11
9.790961290322583
 21
5.092238068580627
 31
0.0
  0
LINE
  5
16D
330
17
100
AcDbEntity
  8
0
100
AcDbLine
 10
9.790961290322583
 20
5.092238068580627
 30
0.0
 11
9.863941935483869
 21
5.092238068580627
 31
0.0
  0
LINE
  5
16E
330
17
100
AcDbEntity
  8
0
100
AcDbLine
 10
9.863941935483869
 20
5.092238068580627
 30
0.0
 11
9.934549155908634
 21
5.092238068580627
 31
0.0
  0
LINE
  5
16F
330
17
100
AcDbEntity
  8
0
100
AcDbLine
 10
9.934549155908634
 20
5.092238068580627
 30
0.0
 11
11.31630387288977
 21
5.092238068580627
 31
0.0
  0
LINE
  5
170
330
17
100
AcDbEntity
  8
0
100
AcDbLine
 10
11.31630387288977
 20
5.092238068580627
 30
0.0
 11
11.5915501489573
 21
5.092238068580627
 31
0.0
  0
LINE
  5
171
330
17
100
AcDbEntity
  8
0
100
AcDbLine
 10
11.5915501489573
 20
5.092238068580627
 30
0.0
 11
11.627090322580644
 21
5.092238068580627
 31
0.0
  0
LINE
  5
172
330
17
100
AcDbEntity
  8
0
100
AcDbLine
 10
11.627090322580644
 20
5.092238068580627
 30
0.0
 11
13.050619354838714
 21
5.092238068580627
 31
0.0
  0
LINE
  5
173
330
17
100
AcDbEntity
  8
0
100
AcDbLine
 10
13.050619354838714
 20
5.092238068580627
 30
0.0
 11
13.1236
 21
5.092238068580627
 31
0.0
  0
LINE
  5
174
330
17
100
AcDbEntity
  8
0
100
AcDbLine
 10
13.1236
 20
5.092238068580627
 30
0.0
 11
13.149829858215178
 21
5.092238068580627
 31
0.0
  0
LINE
  5
175
330
17
100
AcDbEntity
  8
0
100
AcDbLine
 10
13.149829858215178
 20
5.092238068580627
 30
0.0
 11
13.428879899916597
 21
5.092238068580627
 31
0.0
  0
LINE
  5
176
330
17
100
AcDbEntity
  8
0
100
AcDbLine
 10
13.428879899916597
 20
5.092238068580627
 30
0.0
 11
14.584277731442873
 21
5.092238068580627
 31
0.0
  0
LINE
  5
177
330
17
100
AcDbEntity
  8
0
100
AcDbLine
 10
14.584277731442873
 20
5.092238068580627
 30
0.0
 11
14.608916885849554
 21
5.092238068580627
 31
0.0
  0
LINE
  5
178
330
17
100
AcDbEntity
  8
0
100
AcDbLine
 10
14.608916885849554
 20
5.092238068580627
 30
0.0
 11
14.651
 21
5.092238068580627
 31
0.0
  0
LINE
  5
179
330
17
100
AcDbEntity
  8
0
100
AcDbLine
 10
0.5760000000000001
 20
7.592238068580627
 30
0.0
 11
0.5767777777777777
 21
7.592238068580627
 31
0.0
  0
LINE
  5
17A
330
17
100
AcDbEntity
  8
0
100
AcDbLine
 10
0.5760000000000001
 20
7.592238068580627
 30
0.0
 11
0.5767777777777777
 21
7.592238068580627
 31
0.0
  0
LINE
  5
17B
330
17
100
AcDbEntity
  8
0
100
AcDbLine
 10
0.5767777777777777
 20
7.592238068580627
 30
0.0
 11
0.809333333333337
 21
7.592238068580627
 31
0.0
  0
LINE
  5
17C
330
17
100
AcDbEntity
  8
0
100
AcDbLine
 10
0.809333333333337
 20
7.592238068580627
 30
0.0
 11
0.9211893634165971
 21
7.592238068580627
 31
0.0
  0
LINE
  5
17D
330
17
100
AcDbEntity
  8
0
100
AcDbLine
 10
0.9211893634165971
 20
7.592238068580627
 30
0.0
 11
2.3254286865431135
 21
7.592238068580627
 31
0.0
  0
LINE
  5
17E
330
17
100
AcDbEntity
  8
0
100
AcDbLine
 10
2.3254286865431135
 20
7.592238068580627
 30
0.0
 11
2.3516580645161307
 21
7.592238068580627
 31
0.0
  0
LINE
  5
17F
330
17
100
AcDbEntity
  8
0
100
AcDbLine
 10
2.3516580645161307
 20
7.592238068580627
 30
0.0
 11
2.6352258064516154
 21
7.592238068580627
 31
0.0
  0
LINE
  5
180
330
17
100
AcDbEntity
  8
0
100
AcDbLine
 10
2.6352258064516154
 20
7.592238068580627
 30
0.0
 11
2.7082064516129014
 21
7.592238068580627
 31
0.0
  0
LINE
  5
181
330
17
100
AcDbEntity
  8
0
100
AcDbLine
 10
2.7082064516129014
 20
7.592238068580627
 30
0.0
 11
2.7687110228401144
 21
7.592238068580627
 31
0.0
  0
LINE
  5
182
330
17
100
AcDbEntity
  8
0
100
AcDbLine
 10
2.7687110228401144
 20
7.592238068580627
 30
0.0
 11
4.150465739821253
 21
7.592238068580627
 31
0.0
  0
LINE
  5
183
330
17
100
AcDbEntity
  8
0
100
AcDbLine
 10
4.150465739821253
 20
7.592238068580627
 30
0.0
 11
4.425712015888781
 21
7.592238068580627
 31
0.0
  0
LINE
  5
184
330
17
100
AcDbEntity
  8
0
100
AcDbLine
 10
4.425712015888781
 20
7.592238068580627
 30
0.0
 11
4.533706535141797
 21
7.592238068580627
 31
0.0
  0
LINE
  5
185
330
17
100
AcDbEntity
  8
0
100
AcDbLine
 10
4.533706535141797
 20
7.592238068580627
 30
0.0
 11
4.538719186785257
 21
7.592238068580627
 31
0.0
  0
LINE
  5
186
330
17
100
AcDbEntity
  8
0
100
AcDbLine
 10
4.538719186785257
 20
7.592238068580627
 30
0.0
 11
4.544031496062988
 21
7.592238068580627
 31
0.0
  0
LINE
  5
187
330
17
100
AcDbEntity
  8
0
100
AcDbLine
 10
4.544031496062988
 20
7.592238068580627
 30
0.0
 11
4.548237196765495
 21
7.592238068580627
 31
0.0
  0
LINE
  5
188
330
17
100
AcDbEntity
  8
0
100
AcDbLine
 10
4.548237196765495
 20
7.592238068580627
 30
0.0
 11
4.552675900277004
 21
7.592238068580627
 31
0.0
  0
LINE
  5
189
330
17
100
AcDbEntity
  8
0
100
AcDbLine
 10
4.552675900277004
 20
7.592238068580627
 30
0.0
 11
4.56248011782032
 21
7.592238068580627
 31
0.0
  0
LINE
  5
18A
330
17
100
AcDbEntity
  8
0
100
AcDbLine
 10
4.56248011782032
 20
7.592238068580627
 30
0.0
 11
4.566120481927706
 21
7.592238068580627
 31
0.0
  0
LINE
  5
18B
330
17
100
AcDbEntity
  8
0
100
AcDbLine
 10
4.566120481927706
 20
7.592238068580627
 30
0.0
 11
4.566892586989405
 21
7.592238068580627
 31
0.0
  0
LINE
  5
18C
330
17
100
AcDbEntity
  8
0
100
AcDbLine
 10
4.566892586989405
 20
7.592238068580627
 30
0.0
 11
5.8862284417549215
 21
7.592238068580627
 31
0.0
  0
LINE
  5
18D
330
17
100
AcDbEntity
  8
0
100
AcDbLine
 10
5.8862284417549215
 20
7.592238068580627
 30
0.0
 11
5.889533333333338
 21
7.592238068580627
 31
0.0
  0
LINE
  5
18E
330
17
100
AcDbEntity
  8
0
100
AcDbLine
 10
5.889533333333338
 20
7.592238068580627
 30
0.0
 11
5.8911348973607085
 21
7.592238068580627
 31
0.0
  0
LINE
  5
18F
330
17
100
AcDbEntity
  8
0
100
AcDbLine
 10
5.8911348973607085
 20
7.592238068580627
 30
0.0
 11
5.892225618631737
 21
7.592238068580627
 31
0.0
  0
LINE
  5
190
330
17
100
AcDbEntity
  8
0
100
AcDbLine
 10
5.892225618631737
 20
7.592238068580627
 30
0.0
 11
6.006076464746771
 21
7.592238068580627
 31
0.0
  0
LINE
  5
191
330
17
100
AcDbEntity
  8
0
100
AcDbLine
 10
6.006076464746771
 20
7.592238068580627
 30
0.0
 11
6.281322740814299
 21
7.592238068580627
 31
0.0
  0
LINE
  5
192
330
17
100
AcDbEntity
  8
0
100
AcDbLine
 10
6.281322740814299
 20
7.592238068580627
 30
0.0
 11
7.663077457795438
 21
7.592238068580627
 31
0.0
  0
LINE
  5
193
330
17
100
AcDbEntity
  8
0
100
AcDbLine
 10
7.663077457795438
 20
7.592238068580627
 30
0.0
 11
7.7310129032258095
 21
7.592238068580627
 31
0.0
  0
LINE
  5
194
330
17
100
AcDbEntity
  8
0
100
AcDbLine
 10
7.7310129032258095
 20
7.592238068580627
 30
0.0
 11
7.803993548387095
 21
7.592238068580627
 31
0.0
  0
LINE
  5
195
330
17
100
AcDbEntity
  8
0
100
AcDbLine
 10
7.803993548387095
 20
7.592238068580627
 30
0.0
 11
8.087561290322581
 21
7.592238068580627
 31
0.0
  0
LINE
  5
196
330
17
100
AcDbEntity
  8
0
100
AcDbLine
 10
8.087561290322581
 20
7.592238068580627
 30
0.0
 11
8.13693346573982
 21
7.592238068580627
 31
0.0
  0
LINE
  5
197
330
17
100
AcDbEntity
  8
0
100
AcDbLine
 10
8.13693346573982
 20
7.592238068580627
 30
0.0
 11
9.518688182720956
 21
7.592238068580627
 31
0.0
  0
LINE
  5
198
330
17
100
AcDbEntity
  8
0
100
AcDbLine
 10
9.518688182720956
 20
7.592238068580627
 30
0.0
 11
9.567141935483871
 21
7.592238068580627
 31
0.0
  0
LINE
  5
199
330
17
100
AcDbEntity
  8
0
100
AcDbLine
 10
9.567141935483871
 20
7.592238068580627
 30
0.0
 11
9.850709677419356
 21
7.592238068580627
 31
0.0
  0
LINE
  5
19A
330
17
100
AcDbEntity
  8
0
100
AcDbLine
 10
9.850709677419356
 20
7.592238068580627
 30
0.0
 11
9.923690322580642
 21
7.592238068580627
 31
0.0
  0
LINE
  5
19B
330
17
100
AcDbEntity
  8
0
100
AcDbLine
 10
9.923690322580642
 20
7.592238068580627
 30
0.0
 11
9.992544190665335
 21
7.592238068580627
 31
0.0
  0
LINE
  5
19C
330
17
100
AcDbEntity
  8
0
100
AcDbLine
 10
9.992544190665335
 20
7.592238068580627
 30
0.0
 11
11.374298907646475
 21
7.592238068580627
 31
0.0
  0
LINE
  5
19D
330
17
100
AcDbEntity
  8
0
100
AcDbLine
 10
11.374298907646475
 20
7.592238068580627
 30
0.0
 11
11.649545183714004
 21
7.592238068580627
 31
0.0
  0
LINE
  5
19E
330
17
100
AcDbEntity
  8
0
100
AcDbLine
 10
11.649545183714004
 20
7.592238068580627
 30
0.0
 11
11.764716417910444
 21
7.592238068580627
 31
0.0
  0
LINE
  5
19F
330
17
100
AcDbEntity
  8
0
100
AcDbLine
 10
11.764716417910444
 20
7.592238068580627
 30
0.0
 11
11.766120481927706
 21
7.592238068580627
 31
0.0
  0
LINE
  5
1A0
330
17
100
AcDbEntity
  8
0
100
AcDbLine
 10
11.766120481927706
 20
7.592238068580627
 30
0.0
 11
11.766892586989405
 21
7.592238068580627
 31
0.0
  0
LINE
  5
1A1
330
17
100
AcDbEntity
  8
0
100
AcDbLine
 10
11.766892586989405
 20
7.592238068580627
 30
0.0
 11
13.08622844175492
 21
7.592238068580627
 31
0.0
  0
LINE
  5
1A2
330
17
100
AcDbEntity
  8
0
100
AcDbLine
 10
13.08622844175492
 20
7.592238068580627
 30
0.0
 11
13.09282002902758
 21
7.592238068580627
 31
0.0
  0
LINE
  5
1A3
330
17
100
AcDbEntity
  8
0
100
AcDbLine
 10
13.09282002902758
 20
7.592238068580627
 30
0.0
 11
13.100972413793107
 21
7.592238068580627
 31
0.0
  0
LINE
  5
1A4
330
17
100
AcDbEntity
  8
0
100
AcDbLine
 10
13.100972413793107
 20
7.592238068580627
 30
0.0
 11
13.103829268292687
 21
7.592238068580627
 31
0.0
  0
LINE
  5
1A5
330
17
100
AcDbEntity
  8
0
100
AcDbLine
 10
13.103829268292687
 20
7.592238068580627
 30
0.0
 11
13.105375838926179
 21
7.592238068580627
 31
0.0
  0
LINE
  5
1A6
330
17
100
AcDbEntity
  8
0
100
AcDbLine
 10
13.105375838926179
 20
7.592238068580627
 30
0.0
 11
13.108187335092351
 21
7.592238068580627
 31
0.0
  0
LINE
  5
1A7
330
17
100
AcDbEntity
  8
0
100
AcDbLine
 10
13.108187335092351
 20
7.592238068580627
 30
0.0
 11
13.110904020752272
 21
7.592238068580627
 31
0.0
  0
LINE
  5
1A8
330
17
100
AcDbEntity
  8
0
100
AcDbLine
 10
13.110904020752272
 20
7.592238068580627
 30
0.0
 11
13.113632653061227
 21
7.592238068580627
 31
0.0
  0
LINE
  5
1A9
330
17
100
AcDbEntity
  8
0
100
AcDbLine
 10
13.113632653061227
 20
7.592238068580627
 30
0.0
 11
13.117349127182047
 21
7.592238068580627
 31
0.0
  0
LINE
  5
1AA
330
17
100
AcDbEntity
  8
0
100
AcDbLine
 10
13.117349127182047
 20
7.592238068580627
 30
0.0
 11
13.119899262899265
 21
7.592238068580627
 31
0.0
  0
LINE
  5
1AB
330
17
100
AcDbEntity
  8
0
100
AcDbLine
 10
13.119899262899265
 20
7.592238068580627
 30
0.0
 11
13.122115151515155
 21
7.592238068580627
 31
0.0
  0
LINE
  5
1AC
330
17
100
AcDbEntity
  8
0
100
AcDbLine
 10
13.122115151515155
 20
7.592238068580627
 30
0.0
 11
13.206346405228755
 21
7.592238068580627
 31
0.0
  0
LINE
  5
1AD
330
17
100
AcDbEntity
  8
0
100
AcDbLine
 10
13.206346405228755
 20
7.592238068580627
 30
0.0
 11
13.485803921568628
 21
7.592238068580627
 31
0.0
  0
LINE
  5
1AE
330
17
100
AcDbEntity
  8
0
100
AcDbLine
 10
13.485803921568628
 20
7.592238068580627
 30
0.0
 11
14.56064052287582
 21
7.592238068580627
 31
0.0
  0
LINE
  5
1AF
330
17
100
AcDbEntity
  8
0
100
AcDbLine
 10
14.56064052287582
 20
7.592238068580627
 30
0.0
 11
14.583356076759063
 21
7.592238068580627
 31
0.0
  0
LINE
  5
1B0
330
17
100
AcDbEntity
  8
0
100
AcDbLine
 10
14.583356076759063
 20
7.592238068580627
 30
0.0
 11
14.626
 21
7.592238068580627
 31
0.0
  0
LINE
  5
1B1
330
17
100
AcDbEntity
  8
0
100
AcDbLine
 10
0.514
 20
10.092238068580627
 30
0.0
 11
0.5556233090530674
 21
10.092238068580627
 31
0.0
  0
LINE
  5
1B2
330
17
100
AcDbEntity
  8
0
100
AcDbLine
 10
0.514
 20
10.092238068580627
 30
0.0
 11
0.5556233090530674
 21
10.092238068580627
 31
0.0
  0
LINE
  5
1B3
330
17
100
AcDbEntity
  8
0
100
AcDbLine
 10
0.5556233090530674
 20
10.092238068580627
 30
0.0
 11
0.5819117147707943
 21
10.092238068580627
 31
0.0
  0
LINE
  5
1B4
330
17
100
AcDbEntity
  8
0
100
AcDbLine
 10
0.5819117147707943
 20
10.092238068580627
 30
0.0
 11
0.861538200339556
 21
10.092238068580627
 31
0.0
  0
LINE
  5
1B5
330
17
100
AcDbEntity
  8
0
100
AcDbLine
 10
0.861538200339556
 20
10.092238068580627
 30
0.0
 11
2.2596706281833647
 21
10.092238068580627
 31
0.0
  0
LINE
  5
1B6
330
17
100
AcDbEntity
  8
0
100
AcDbLine
 10
2.2596706281833647
 20
10.092238068580627
 30
0.0
 11
2.291909677419356
 21
10.092238068580627
 31
0.0
  0
LINE
  5
1B7
330
17
100
AcDbEntity
  8
0
100
AcDbLine
 10
2.291909677419356
 20
10.092238068580627
 30
0.0
 11
2.576425806451615
 21
10.092238068580627
 31
0.0
  0
LINE
  5
1B8
330
17
100
AcDbEntity
  8
0
100
AcDbLine
 10
2.576425806451615
 20
10.092238068580627
 30
0.0
 11
2.6494064516129012
 21
10.092238068580627
 31
0.0
  0
LINE
  5
1B9
330
17
100
AcDbEntity
  8
0
100
AcDbLine
 10
2.6494064516129012
 20
10.092238068580627
 30
0.0
 11
2.71163654419066
 21
10.092238068580627
 31
0.0
  0
LINE
  5
1BA
330
17
100
AcDbEntity
  8
0
100
AcDbLine
 10
2.71163654419066
 20
10.092238068580627
 30
0.0
 11
4.0924707050645495
 21
10.092238068580627
 31
0.0
  0
LINE
  5
1BB
330
17
100
AcDbEntity
  8
0
100
AcDbLine
 10
4.0924707050645495
 20
10.092238068580627
 30
0.0
 11
4.3686375372393265
 21
10.092238068580627
 31
0.0
  0
LINE
  5
1BC
330
17
100
AcDbEntity
  8
0
100
AcDbLine
 10
4.3686375372393265
 20
10.092238068580627
 30
0.0
 11
4.4771847133757925
 21
10.092238068580627
 31
0.0
  0
LINE
  5
1BD
330
17
100
AcDbEntity
  8
0
100
AcDbLine
 10
4.4771847133757925
 20
10.092238068580627
 30
0.0
 11
4.477918053777205
 21
10.092238068580627
 31
0.0
  0
LINE
  5
1BE
330
17
100
AcDbEntity
  8
0
100
AcDbLine
 10
4.477918053777205
 20
10.092238068580627
 30
0.0
 11
4.486237196765495
 21
10.092238068580627
 31
0.0
  0
LINE
  5
1BF
330
17
100
AcDbEntity
  8
0
100
AcDbLine
 10
4.486237196765495
 20
10.092238068580627
 30
0.0
 11
4.4922097902097855
 21
10.092238068580627
 31
0.0
  0
LINE
  5
1C0
330
17
100
AcDbEntity
  8
0
100
AcDbLine
 10
4.4922097902097855
 20
10.092238068580627
 30
0.0
 11
4.493774011299431
 21
10.092238068580627
 31
0.0
  0
LINE
  5
1C1
330
17
100
AcDbEntity
  8
0
100
AcDbLine
 10
4.493774011299431
 20
10.092238068580627
 30
0.0
 11
4.4987813411078665
 21
10.092238068580627
 31
0.0
  0
LINE
  5
1C2
330
17
100
AcDbEntity
  8
0
100
AcDbLine
 10
4.4987813411078665
 20
10.092238068580627
 30
0.0
 11
4.504771558245078
 21
10.092238068580627
 31
0.0
  0
LINE
  5
1C3
330
17
100
AcDbEntity
  8
0
100
AcDbLine
 10
4.504771558245078
 20
10.092238068580627
 30
0.0
 11
5.823228441754921
 21
10.092238068580627
 31
0.0
  0
LINE
  5
1C4
330
17
100
AcDbEntity
  8
0
100
AcDbLine
 10
5.823228441754921
 20
10.092238068580627
 30
0.0
 11
5.824764617691159
 21
10.092238068580627
 31
0.0
  0
LINE
  5
1C5
330
17
100
AcDbEntity
  8
0
100
AcDbLine
 10
5.824764617691159
 20
10.092238068580627
 30
0.0
 11
5.82993613933237
 21
10.092238068580627
 31
0.0
  0
LINE
  5
1C6
330
17
100
AcDbEntity
  8
0
100
AcDbLine
 10
5.82993613933237
 20
10.092238068580627
 30
0.0
 11
5.8349001406469805
 21
10.092238068580627
 31
0.0
  0
LINE
  5
1C7
330
17
100
AcDbEntity
  8
0
100
AcDbLine
 10
5.8349001406469805
 20
10.092238068580627
 30
0.0
 11
5.836451253481898
 21
10.092238068580627
 31
0.0
  0
LINE
  5
1C8
330
17
100
AcDbEntity
  8
0
100
AcDbLine
 10
5.836451253481898
 20
10.092238068580627
 30
0.0
 11
5.948081429990068
 21
10.092238068580627
 31
0.0
  0
LINE
  5
1C9
330
17
100
AcDbEntity
  8
0
100
AcDbLine
 10
5.948081429990068
 20
10.092238068580627
 30
0.0
 11
6.224248262164846
 21
10.092238068580627
 31
0.0
  0
LINE
  5
1CA
330
17
100
AcDbEntity
  8
0
100
AcDbLine
 10
6.224248262164846
 20
10.092238068580627
 30
0.0
 11
7.605082423038735
 21
10.092238068580627
 31
0.0
  0
LINE
  5
1CB
330
17
100
AcDbEntity
  8
0
100
AcDbLine
 10
7.605082423038735
 20
10.092238068580627
 30
0.0
 11
7.671264516129035
 21
10.092238068580627
 31
0.0
  0
LINE
  5
1CC
330
17
100
AcDbEntity
  8
0
100
AcDbLine
 10
7.671264516129035
 20
10.092238068580627
 30
0.0
 11
7.744245161290321
 21
10.092238068580627
 31
0.0
  0
LINE
  5
1CD
330
17
100
AcDbEntity
  8
0
100
AcDbLine
 10
7.744245161290321
 20
10.092238068580627
 30
0.0
 11
8.02876129032258
 21
10.092238068580627
 31
0.0
  0
LINE
  5
1CE
330
17
100
AcDbEntity
  8
0
100
AcDbLine
 10
8.02876129032258
 20
10.092238068580627
 30
0.0
 11
8.079858987090363
 21
10.092238068580627
 31
0.0
  0
LINE
  5
1CF
330
17
100
AcDbEntity
  8
0
100
AcDbLine
 10
8.079858987090363
 20
10.092238068580627
 30
0.0
 11
9.460693147964253
 21
10.092238068580627
 31
0.0
  0
LINE
  5
1D0
330
17
100
AcDbEntity
  8
0
100
AcDbLine
 10
9.460693147964253
 20
10.092238068580627
 30
0.0
 11
9.507393548387096
 21
10.092238068580627
 31
0.0
  0
LINE
  5
1D1
330
17
100
AcDbEntity
  8
0
100
AcDbLine
 10
9.507393548387096
 20
10.092238068580627
 30
0.0
 11
9.791909677419357
 21
10.092238068580627
 31
0.0
  0
LINE
  5
1D2
330
17
100
AcDbEntity
  8
0
100
AcDbLine
 10
9.791909677419357
 20
10.092238068580627
 30
0.0
 11
9.864890322580642
 21
10.092238068580627
 31
0.0
  0
LINE
  5
1D3
330
17
100
AcDbEntity
  8
0
100
AcDbLine
 10
9.864890322580642
 20
10.092238068580627
 30
0.0
 11
9.935469712015882
 21
10.092238068580627
 31
0.0
  0
LINE
  5
1D4
330
17
100
AcDbEntity
  8
0
100
AcDbLine
 10
9.935469712015882
 20
10.092238068580627
 30
0.0
 11
11.31630387288977
 21
10.092238068580627
 31
0.0
  0
LINE
  5
1D5
330
17
100
AcDbEntity
  8
0
100
AcDbLine
 10
11.31630387288977
 20
10.092238068580627
 30
0.0
 11
11.59247070506455
 21
10.092238068580627
 31
0.0
  0
LINE
  5
1D6
330
17
100
AcDbEntity
  8
0
100
AcDbLine
 10
11.59247070506455
 20
10.092238068580627
 30
0.0
 11
11.62803870967742
 21
10.092238068580627
 31
0.0
  0
LINE
  5
1D7
330
17
100
AcDbEntity
  8
0
100
AcDbLine
 10
11.62803870967742
 20
10.092238068580627
 30
0.0
 11
13.050619354838714
 21
10.092238068580627
 31
0.0
  0
LINE
  5
1D8
330
17
100
AcDbEntity
  8
0
100
AcDbLine
 10
13.050619354838714
 20
10.092238068580627
 30
0.0
 11
13.1236
 21
10.092238068580627
 31
0.0
  0
LINE
  5
1D9
330
17
100
AcDbEntity
  8
0
100
AcDbLine
 10
13.1236
 20
10.092238068580627
 30
0.0
 11
13.14746405228758
 21
10.092238068580627
 31
0.0
  0
LINE
  5
1DA
330
17
100
AcDbEntity
  8
0
100
AcDbLine
 10
13.14746405228758
 20
10.092238068580627
 30
0.0
 11
13.427856209150326
 21
10.092238068580627
 31
0.0
  0
LINE
  5
1DB
330
17
100
AcDbEntity
  8
0
100
AcDbLine
 10
13.427856209150326
 20
10.092238068580627
 30
0.0
 11
13.671872340425518
 21
10.092238068580627
 31
0.0
  0
LINE
  5
1DC
330
17
100
AcDbEntity
  8
0
100
AcDbLine
 10
13.671872340425518
 20
10.092238068580627
 30
0.0
 11
13.84685714285712
 21
10.092238068580627
 31
0.0
  0
LINE
  5
1DD
330
17
100
AcDbEntity
  8
0
100
AcDbLine
 10
13.84685714285712
 20
10.092238068580627
 30
0.0
 11
14.626
 21
10.092238068580627
 31
0.0
  0
LINE
  5
1DE
330
17
100
AcDbEntity
  8
0
100
AcDbLine
 10
0.438
 20
12.592238068580627
 30
0.0
 11
0.47804004004003786
 21
12.592238068580627
 31
0.0
  0
LINE
  5
1DF
330
17
100
AcDbEntity
  8
0
100
AcDbLine
 10
0.438
 20
12.592238068580627
 30
0.0
 11
0.47804004004003786
 21
12.592238068580627
 31
0.0
  0
LINE
  5
1E0
330
17
100
AcDbEntity
  8
0
100
AcDbLine
 10
0.47804004004003786
 20
12.592238068580627
 30
0.0
 11
0.5105952813067111
 21
12.592238068580627
 31
0.0
  0
LINE
  5
1E1
330
17
100
AcDbEntity
  8
0
100
AcDbLine
 10
0.5105952813067111
 20
12.592238068580627
 30
0.0
 11
0.7888166969146978
 21
12.592238068580627
 31
0.0
  0
LINE
  5
1E2
330
17
100
AcDbEntity
  8
0
100
AcDbLine
 10
0.7888166969146978
 20
12.592238068580627
 30
0.0
 11
2.179923774954631
 21
12.592238068580627
 31
0.0
  0
LINE
  5
1E3
330
17
100
AcDbEntity
  8
0
100
AcDbLine
 10
2.179923774954631
 20
12.592238068580627
 30
0.0
 11
2.219832258064517
 21
12.592238068580627
 31
0.0
  0
LINE
  5
1E4
330
17
100
AcDbEntity
  8
0
100
AcDbLine
 10
2.219832258064517
 20
12.592238068580627
 30
0.0
 11
2.504348387096776
 21
12.592238068580627
 31
0.0
  0
LINE
  5
1E5
330
17
100
AcDbEntity
  8
0
100
AcDbLine
 10
2.504348387096776
 20
12.592238068580627
 30
0.0
 11
2.5773290322580626
 21
12.592238068580627
 31
0.0
  0
LINE
  5
1E6
330
17
100
AcDbEntity
  8
0
100
AcDbLine
 10
2.5773290322580626
 20
12.592238068580627
 30
0.0
 11
2.6416742800397164
 21
12.592238068580627
 31
0.0
  0
LINE
  5
1E7
330
17
100
AcDbEntity
  8
0
100
AcDbLine
 10
2.6416742800397164
 20
12.592238068580627
 30
0.0
 11
4.022508440913606
 21
12.592238068580627
 31
0.0
  0
LINE
  5
1E8
330
17
100
AcDbEntity
  8
0
100
AcDbLine
 10
4.022508440913606
 20
12.592238068580627
 30
0.0
 11
4.298675273088383
 21
12.592238068580627
 31
0.0
  0
LINE
  5
1E9
330
17
100
AcDbEntity
  8
0
100
AcDbLine
 10
4.298675273088383
 20
12.592238068580627
 30
0.0
 11
4.408506666666663
 21
12.592238068580627
 31
0.0
  0
LINE
  5
1EA
330
17
100
AcDbEntity
  8
0
100
AcDbLine
 10
4.408506666666663
 20
12.592238068580627
 30
0.0
 11
4.410237196765495
 21
12.592238068580627
 31
0.0
  0
LINE
  5
1EB
330
17
100
AcDbEntity
  8
0
100
AcDbLine
 10
4.410237196765495
 20
12.592238068580627
 30
0.0
 11
4.413061728395058
 21
12.592238068580627
 31
0.0
  0
LINE
  5
1EC
330
17
100
AcDbEntity
  8
0
100
AcDbLine
 10
4.413061728395058
 20
12.592238068580627
 30
0.0
 11
4.417774011299431
 21
12.592238068580627
 31
0.0
  0
LINE
  5
1ED
330
17
100
AcDbEntity
  8
0
100
AcDbLine
 10
4.417774011299431
 20
12.592238068580627
 30
0.0
 11
4.422781341107867
 21
12.592238068580627
 31
0.0
  0
LINE
  5
1EE
330
17
100
AcDbEntity
  8
0
100
AcDbLine
 10
4.422781341107867
 20
12.592238068580627
 30
0.0
 11
4.426095238095233
 21
12.592238068580627
 31
0.0
  0
LINE
  5
1EF
330
17
100
AcDbEntity
  8
0
100
AcDbLine
 10
4.426095238095233
 20
12.592238068580627
 30
0.0
 11
4.4279999999999955
 21
12.592238068580627
 31
0.0
  0
LINE
  5
1F0
330
17
100
AcDbEntity
  8
0
100
AcDbLine
 10
4.4279999999999955
 20
12.592238068580627
 30
0.0
 11
4.428771558245078
 21
12.592238068580627
 31
0.0
  0
LINE
  5
1F1
330
17
100
AcDbEntity
  8
0
100
AcDbLine
 10
4.428771558245078
 20
12.592238068580627
 30
0.0
 11
5.747228441754922
 21
12.592238068580627
 31
0.0
  0
LINE
  5
1F2
330
17
100
AcDbEntity
  8
0
100
AcDbLine
 10
5.747228441754922
 20
12.592238068580627
 30
0.0
 11
5.752252199413494
 21
12.592238068580627
 31
0.0
  0
LINE
  5
1F3
330
17
100
AcDbEntity
  8
0
100
AcDbLine
 10
5.752252199413494
 20
12.592238068580627
 30
0.0
 11
5.760451253481898
 21
12.592238068580627
 31
0.0
  0
LINE
  5
1F4
330
17
100
AcDbEntity
  8
0
100
AcDbLine
 10
5.760451253481898
 20
12.592238068580627
 30
0.0
 11
5.766375838926178
 21
12.592238068580627
 31
0.0
  0
LINE
  5
1F5
330
17
100
AcDbEntity
  8
0
100
AcDbLine
 10
5.766375838926178
 20
12.592238068580627
 30
0.0
 11
5.767787234042557
 21
12.592238068580627
 31
0.0
  0
LINE
  5
1F6
330
17
100
AcDbEntity
  8
0
100
AcDbLine
 10
5.767787234042557
 20
12.592238068580627
 30
0.0
 11
5.878119165839124
 21
12.592238068580627
 31
0.0
  0
LINE
  5
1F7
330
17
100
AcDbEntity
  8
0
100
AcDbLine
 10
5.878119165839124
 20
12.592238068580627
 30
0.0
 11
6.1542859980139015
 21
12.592238068580627
 31
0.0
  0
LINE
  5
1F8
330
17
100
AcDbEntity
  8
0
100
AcDbLine
 10
6.1542859980139015
 20
12.592238068580627
 30
0.0
 11
7.535120158887791
 21
12.592238068580627
 31
0.0
  0
LINE
  5
1F9
330
17
100
AcDbEntity
  8
0
100
AcDbLine
 10
7.535120158887791
 20
12.592238068580627
 30
0.0
 11
7.5991870967741955
 21
12.592238068580627
 31
0.0
  0
LINE
  5
1FA
330
17
100
AcDbEntity
  8
0
100
AcDbLine
 10
7.5991870967741955
 20
12.592238068580627
 30
0.0
 11
7.672167741935482
 21
12.592238068580627
 31
0.0
  0
LINE
  5
1FB
330
17
100
AcDbEntity
  8
0
100
AcDbLine
 10
7.672167741935482
 20
12.592238068580627
 30
0.0
 11
7.9566838709677405
 21
12.592238068580627
 31
0.0
  0
LINE
  5
1FC
330
17
100
AcDbEntity
  8
0
100
AcDbLine
 10
7.9566838709677405
 20
12.592238068580627
 30
0.0
 11
8.00989672293942
 21
12.592238068580627
 31
0.0
  0
LINE
  5
1FD
330
17
100
AcDbEntity
  8
0
100
AcDbLine
 10
8.00989672293942
 20
12.592238068580627
 30
0.0
 11
9.39073088381331
 21
12.592238068580627
 31
0.0
  0
LINE
  5
1FE
330
17
100
AcDbEntity
  8
0
100
AcDbLine
 10
9.39073088381331
 20
12.592238068580627
 30
0.0
 11
9.666897715988087
 21
12.592238068580627
 31
0.0
  0
LINE
  5
1FF
330
17
100
AcDbEntity
  8
0
100
AcDbLine
 10
9.666897715988087
 20
12.592238068580627
 30
0.0
 11
9.719832258064518
 21
12.592238068580627
 31
0.0
  0
LINE
  5
200
330
17
100
AcDbEntity
  8
0
100
AcDbLine
 10
9.719832258064518
 20
12.592238068580627
 30
0.0
 11
9.792812903225803
 21
12.592238068580627
 31
0.0
  0
LINE
  5
201
330
17
100
AcDbEntity
  8
0
100
AcDbLine
 10
9.792812903225803
 20
12.592238068580627
 30
0.0
 11
9.865507447864937
 21
12.592238068580627
 31
0.0
  0
LINE
  5
202
330
17
100
AcDbEntity
  8
0
100
AcDbLine
 10
9.865507447864937
 20
12.592238068580627
 30
0.0
 11
11.246341608738827
 21
12.592238068580627
 31
0.0
  0
LINE
  5
203
330
17
100
AcDbEntity
  8
0
100
AcDbLine
 10
11.246341608738827
 20
12.592238068580627
 30
0.0
 11
11.522508440913606
 21
12.592238068580627
 31
0.0
  0
LINE
  5
204
330
17
100
AcDbEntity
  8
0
100
AcDbLine
 10
11.522508440913606
 20
12.592238068580627
 30
0.0
 11
11.55596129032258
 21
12.592238068580627
 31
0.0
  0
LINE
  5
205
330
17
100
AcDbEntity
  8
0
100
AcDbLine
 10
11.55596129032258
 20
12.592238068580627
 30
0.0
 11
12.978541935483875
 21
12.592238068580627
 31
0.0
  0
LINE
  5
206
330
17
100
AcDbEntity
  8
0
100
AcDbLine
 10
12.978541935483875
 20
12.592238068580627
 30
0.0
 11
13.05152258064516
 21
12.592238068580627
 31
0.0
  0
LINE
  5
207
330
17
100
AcDbEntity
  8
0
100
AcDbLine
 10
13.05152258064516
 20
12.592238068580627
 30
0.0
 11
13.076431372549017
 21
12.592238068580627
 31
0.0
  0
LINE
  5
208
330
17
100
AcDbEntity
  8
0
100
AcDbLine
 10
13.076431372549017
 20
12.592238068580627
 30
0.0
 11
13.356823529411765
 21
12.592238068580627
 31
0.0
  0
LINE
  5
209
330
17
100
AcDbEntity
  8
0
100
AcDbLine
 10
13.356823529411765
 20
12.592238068580627
 30
0.0
 11
14.56064052287582
 21
12.592238068580627
 31
0.0
  0
LINE
  5
20A
330
17
100
AcDbEntity
  8
0
100
AcDbLine
 10
14.56064052287582
 20
12.592238068580627
 30
0.0
 11
14.583356076759063
 21
12.592238068580627
 31
0.0
  0
LINE
  5
20B
330
17
100
AcDbEntity
  8
0
100
AcDbLine
 10
14.583356076759063
 20
12.592238068580627
 30
0.0
 11
14.626
 21
12.592238068580627
 31
0.0
  0
ENDSEC
  0
SECTION
  2
OBJECTS
  0
DICTIONARY
  5
A
330
0
100
AcDbDictionary
281
1
  3
ACAD_COLOR
350
B
  3
ACAD_GROUP
350
C
  3
ACAD_LAYOUT
350
D
  3
ACAD_MATERIAL
350
E
  3
ACAD_MLEADERSTYLE
350
F
  3
ACAD_MLINESTYLE
350
10
  3
ACAD_PLOTSETTINGS
350
11
  3
ACAD_PLOTSTYLENAME
350
12
  3
ACAD_SCALELIST
350
14
  3
ACAD_TABLESTYLE
350
15
  3
ACAD_VISUALSTYLE
350
16
  3
EZDXF_META
350
2D
  0
DICTIONARY
  5
B
330
A
100
AcDbDictionary
281
1
  0
DICTIONARY
  5
C
330
A
100
AcDbDictionary
281
1
  0
DICTIONARY
  5
D
330
A
100
AcDbDictionary
281
1
  3
Model
350
1A
  3
Layout1
350
1E
  0
DICTIONARY
  5
E
330
A
100
AcDbDictionary
281
1
  3
ByBlock
350
1F
  3
ByLayer
350
20
  3
Global
350
21
  0
DICTIONARY
  5
F
330
A
100
AcDbDictionary
281
1
  3
Standard
350
2C
  0
DICTIONARY
  5
10
330
A
100
AcDbDictionary
281
1
  3
Standard
350
22
  0
DICTIONARY
  5
11
330
A
100
AcDbDictionary
281
1
  0
ACDBDICTIONARYWDFLT
  5
12
330
A
100
AcDbDictionary
281
1
  3
Normal
350
13
100
AcDbDictionaryWithDefault
340
13
  0
ACDBPLACEHOLDER
  5
13
330
12
  0
DICTIONARY
  5
14
330
A
100
AcDbDictionary
281
1
  0
DICTIONARY
  5
15
330
A
100
AcDbDictionary
281
1
  0
DICTIONARY
  5
16
330
A
100
AcDbDictionary
281
1
  0
LAYOUT
  5
1A
330
D
100
AcDbPlotSettings
  1

  4
A3
  6

 40
7.5
 41
20.0
 42
7.5
 43
20.0
 44
420.0
 45
297.0
 46
0.0
 47
0.0
 48
0.0
 49
0.0
140
0.0
141
0.0
142
1.0
143
1.0
 70
1024
 72
1
 73
0
 74
5
  7

 75
16
 76
0
 77
2
 78
300
147
1.0
148
0.0
149
0.0
100
AcDbLayout
  1
Model
 70
1
 71
0
 10
0.0
 20
0.0
 11
420.0
 21
297.0
 12
0.0
 22
0.0
 32
0.0
 14
1e+20
 24
1e+20
 34
1e+20
 15
-1e+20
 25
-1e+20
 35
-1e+20
146
0.0
 13
0.0
 23
0.0
 33
0.0
 16
1.0
 26
0.0
 36
0.0
 17
0.0
 27
1.0
 37
0.0
 76
1
330
17
  0
LAYOUT
  5
1E
330
D
100
AcDbPlotSettings
  1

  4
A3
  6

 40
7.5
 41
20.0
 42
7.5
 43
20.0
 44
420.0
 45
297.0
 46
0.0
 47
0.0
 48
0.0
 49
0.0
140
0.0
141
0.0
142
1.0
143
1.0
 70
0
 72
1
 73
0
 74
5
  7

 75
16
 76
0
 77
2
 78
300
147
1.0
148
0.0
149
0.0
100
AcDbLayout
  1
Layout1
 70
1
 71
1
 10
0.0
 20
0.0
 11
420.0
 21
297.0
 12
0.0
 22
0.0
 32
0.0
 14
1e+20
 24
1e+20
 34
1e+20
 15
-1e+20
 25
-1e+20
 35
-1e+20
146
0.0
 13
0.0
 23
0.0
 33
0.0
 16
1.0
 26
0.0
 36
0.0
 17
0.0
 27
1.0
 37
0.0
 76
1
330
1B
  0
MATERIAL
  5
1F
102
{ACAD_REACTORS
330
E
102
}
330
E
100
AcDbMaterial
  1
ByBlock
  2

 70
0
 40
1.0
 71
1
 41
1.0
 91
-1023410177
 42
1.0
 72
1
  3

 73
1
 74
1
 75
1
 44
0.5
 73
0
 45
1.0
 46
1.0
 77
1
  4

 78
1
 79
1
170
1
 48
1.0
171
1
  6

172
1
173
1
174
1
140
1.0
141
1.0
175
1
  7

176
1
177
1
178
1
143
1.0
179
1
  8

270
1
271
1
272
1
145
1.0
146
1.0
273
1
  9

274
1
275
1
276
1
 42
1.0
 72
1
  3

 73
1
 74
1
 75
1
 94
63
  0
MATERIAL
  5
20
102
{ACAD_REACTORS
330
E
102
}
330
E
100
AcDbMaterial
  1
ByLayer
  2

 70
0
 40
1.0
 71
1
 41
1.0
 91
-1023410177
 42
1.0
 72
1
  3

 73
1
 74
1
 75
1
 44
0.5
 73
0
 45
1.0
 46
1.0
 77
1
  4

 78
1
 79
1
170
1
 48
1.0
171
1
  6

172
1
173
1
174
1
140
1.0
141
1.0
175
1
  7

176
1
177
1
178
1
143
1.0
179
1
  8

270
1
271
1
272
1
145
1.0
146
1.0
273
1
  9

274
1
275
1
276
1
 42
1.0
 72
1
  3

 73
1
 74
1
 75
1
 94
63
  0
MATERIAL
  5
21
102
{ACAD_REACTORS
330
E
102
}
330
E
100
AcDbMaterial
  1
Global
  2

 70
0
 40
1.0
 71
1
 41
1.0
 91
-1023410177
 42
1.0
 72
1
  3

 73
1
 74
1
 75
1
 44
0.5
 73
0
 45
1.0
 46
1.0
 77
1
  4

 78
1
 79
1
170
1
 48
1.0
171
1
  6

172
1
173
1
174
1
140
1.0
141
1.0
175
1
  7

176
1
177
1
178
1
143
1.0
179
1
  8

270
1
271
1
272
1
145
1.0
146
1.0
273
1
  9

274
1
275
1
276
1
 42
1.0
 72
1
  3

 73
1
 74
1
 75
1
 94
63
  0
MLINESTYLE
  5
22
102
{ACAD_REACTORS
330
10
102
}
330
10
100
AcDbMlineStyle
  2
Standard
 70
0
  3

 62
256
 51
90.0
 52
90.0
 71
2
 49
0.5
 62
256
  6
BYLAYER
 49
-0.5
 62
256
  6
BYLAYER
  0
MLEADERSTYLE
  5
2C
102
{ACAD_REACTORS
330
F
102
}
330
F
100
AcDbMLeaderStyle
179
2
170
2
171
1
172
0
 90
2
 40
0.0
 41
0.0
173
1
 91
-1056964608
 92
-2
290
1
 42
2.0
291
1
 43
8.0
  3
Standard
 44
4.0
300

342
29
174
1
175
1
176
0
178
1
 93
-1056964608
 45
4.0
292
0
297
0
 46
4.0
 94
-1056964608
 47
1.0
 49
1.0
140
1.0
294
1
141
0.0
177
0
142
1.0
295
0
296
0
143
3.75
271
0
272
9
273
9
  0
DICTIONARY
  5
2D
330
A
100
AcDbDictionary
280
1
281
1
  3
CREATED_BY_EZDXF
350
2E
  3
WRITTEN_BY_EZDXF
350
20E
  0
DICTIONARYVAR
  5
2E
330
2D
100
DictionaryVariables
280
0
  1
1.4.2 @ 2025-07-30T15:13:40.775500+00:00
  0
DICTIONARYVAR
  5
20E
330
2D
100
DictionaryVariables
280
0
  1
1.4.2 @ 2025-07-30T15:13:40.806750+00:00
  0
ENDSEC
  0
EOF
