0
SECTION
2
ENTITIES
0
LINE
8
0
10
2.443
20
0.432
11
7.355
21
0.580
0
0
LINE
8
0
10
7.355
20
0.580
11
13.024
21
0.446
0
0
LINE
8
0
10
13.024
20
0.446
11
13.876
21
0.571
0
0
LINE
8
0
10
13.876
20
0.571
11
14.331
21
0.810
0
0
LINE
8
0
10
14.331
20
0.810
11
14.617
21
1.292
0
0
LINE
8
0
10
14.617
20
1.292
11
14.747
21
2.325
0
0
LINE
8
0
10
14.747
20
2.325
11
14.612
21
14.638
0
0
LINE
8
0
10
14.612
20
14.638
11
2.238
21
14.754
0
0
LINE
8
0
10
2.238
20
14.754
11
1.333
21
14.636
0
0
LINE
8
0
10
1.333
20
14.636
11
0.759
21
14.255
0
0
LINE
8
0
10
0.759
20
14.255
11
0.542
21
13.770
0
0
LINE
8
0
10
0.542
20
13.770
11
0.436
21
12.649
0
0
LINE
8
0
10
0.436
20
12.649
11
0.582
21
7.813
0
0
LINE
8
0
10
0.582
20
7.813
11
0.455
21
2.100
0
0
LINE
8
0
10
0.455
20
2.100
11
0.562
21
1.345
0
0
LINE
8
0
10
0.562
20
1.345
11
0.807
21
0.857
0
0
LINE
8
0
10
0.807
20
0.857
11
1.420
21
0.540
0
0
LINE
8
0
10
1.420
20
0.540
11
2.443
21
0.432
0
0
LINE
8
0
10
2.443
20
0.432
11
2.443
21
0.432
0
0
LINE
8
0
10
2.443
20
0.432
11
7.355
21
0.580
0
0
LINE
8
0
10
7.355
20
0.580
11
13.024
21
0.446
0
0
LINE
8
0
10
13.024
20
0.446
11
13.876
21
0.571
0
0
LINE
8
0
10
13.876
20
0.571
11
14.331
21
0.810
0
0
LINE
8
0
10
14.331
20
0.810
11
14.617
21
1.292
0
0
LINE
8
0
10
14.617
20
1.292
11
14.747
21
2.325
0
0
LINE
8
0
10
14.747
20
2.325
11
14.612
21
14.638
0
0
LINE
8
0
10
14.612
20
14.638
11
2.238
21
14.754
0
0
LINE
8
0
10
2.238
20
14.754
11
1.333
21
14.636
0
0
LINE
8
0
10
1.333
20
14.636
11
0.759
21
14.255
0
0
LINE
8
0
10
0.759
20
14.255
11
0.542
21
13.770
0
0
LINE
8
0
10
0.542
20
13.770
11
0.436
21
12.649
0
0
LINE
8
0
10
0.436
20
12.649
11
0.582
21
7.813
0
0
LINE
8
0
10
0.582
20
7.813
11
0.455
21
2.100
0
0
LINE
8
0
10
0.455
20
2.100
11
0.562
21
1.345
0
0
LINE
8
0
10
0.562
20
1.345
11
0.807
21
0.857
0
0
LINE
8
0
10
0.807
20
0.857
11
1.420
21
0.540
0
0
LINE
8
0
10
1.420
20
0.540
11
2.443
21
0.432
0
0
LINE
8
0
10
2.443
20
0.432
11
2.443
21
0.432
0
0
LINE
8
0
10
7.415
20
14.627
11
7.415
21
14.627
0
0
LINE
8
0
10
2.593
20
0.793
11
2.593
21
1.973
0
0
LINE
8
0
10
2.593
20
0.793
11
2.593
21
1.973
0
0
LINE
8
0
10
2.593
20
1.973
11
2.593
21
2.181
0
0
LINE
8
0
10
2.593
20
2.593
11
2.593
21
3.038
0
0
LINE
8
0
10
2.593
20
3.038
11
2.593
21
3.781
0
0
LINE
8
0
10
2.593
20
3.781
11
2.593
21
3.981
0
0
LINE
8
0
10
2.593
20
4.393
11
2.593
21
5.653
0
0
LINE
8
0
10
2.593
20
5.653
11
2.593
21
5.781
0
0
LINE
8
0
10
2.593
20
6.193
11
2.593
21
7.164
0
0
LINE
8
0
10
2.593
20
7.164
11
2.593
21
7.581
0
0
LINE
8
0
10
2.593
20
7.993
11
2.593
21
8.204
0
0
LINE
8
0
10
2.593
20
8.204
11
2.593
21
8.729
0
0
LINE
8
0
10
2.593
20
8.729
11
2.593
21
9.381
0
0
LINE
8
0
10
2.593
20
9.793
11
2.593
21
11.139
0
0
LINE
8
0
10
2.593
20
11.139
11
2.593
21
11.181
0
0
LINE
8
0
10
2.593
20
11.593
11
2.593
21
12.834
0
0
LINE
8
0
10
2.593
20
12.834
11
2.593
21
12.981
0
0
LINE
8
0
10
2.593
20
13.393
11
2.593
21
13.521
0
0
LINE
8
0
10
2.593
20
13.521
11
2.593
21
14.573
0
0
LINE
8
0
10
5.093
20
0.872
11
5.093
21
2.025
0
0
LINE
8
0
10
5.093
20
0.872
11
5.093
21
2.025
0
0
LINE
8
0
10
5.093
20
2.025
11
5.093
21
2.260
0
0
LINE
8
0
10
5.093
20
2.671
11
5.093
21
2.699
0
0
LINE
8
0
10
5.093
20
2.699
11
5.093
21
4.060
0
0
LINE
8
0
10
5.093
20
4.472
11
5.093
21
4.600
0
0
LINE
8
0
10
5.093
20
4.600
11
5.093
21
5.860
0
0
LINE
8
0
10
5.093
20
6.272
11
5.093
21
7.218
0
0
LINE
8
0
10
5.093
20
7.218
11
5.093
21
7.660
0
0
LINE
8
0
10
5.093
20
8.072
11
5.093
21
9.309
0
0
LINE
8
0
10
5.093
20
9.309
11
5.093
21
9.460
0
0
LINE
8
0
10
5.093
20
9.872
11
5.093
21
11.173
0
0
LINE
8
0
10
5.093
20
11.173
11
5.093
21
11.260
0
0
LINE
8
0
10
5.093
20
11.672
11
5.093
21
12.932
0
0
LINE
8
0
10
5.093
20
12.932
11
5.093
21
13.060
0
0
LINE
8
0
10
5.093
20
13.472
11
5.093
21
14.390
0
0
LINE
8
0
10
5.093
20
14.390
11
5.093
21
14.513
0
0
LINE
8
0
10
7.593
20
0.931
11
7.593
21
2.191
0
0
LINE
8
0
10
7.593
20
0.931
11
7.593
21
2.191
0
0
LINE
8
0
10
7.593
20
2.191
11
7.593
21
2.319
0
0
LINE
8
0
10
7.593
20
2.730
11
7.593
21
2.837
0
0
LINE
8
0
10
7.593
20
2.837
11
7.593
21
4.119
0
0
LINE
8
0
10
7.593
20
4.531
11
7.593
21
4.659
0
0
LINE
8
0
10
7.593
20
4.659
11
7.593
21
5.919
0
0
LINE
8
0
10
7.593
20
6.331
11
7.593
21
7.372
0
0
LINE
8
0
10
7.593
20
7.372
11
7.593
21
7.374
0
0
LINE
8
0
10
7.593
20
7.374
11
7.593
21
7.435
0
0
LINE
8
0
10
7.593
20
7.435
11
7.593
21
7.719
0
0
LINE
8
0
10
7.593
20
8.131
11
7.593
21
9.355
0
0
LINE
8
0
10
7.593
20
9.355
11
7.593
21
9.519
0
0
LINE
8
0
10
7.593
20
9.930
11
7.593
21
11.283
0
0
LINE
8
0
10
7.593
20
11.283
11
7.593
21
11.319
0
0
LINE
8
0
10
7.593
20
11.731
11
7.593
21
12.991
0
0
LINE
8
0
10
7.593
20
12.991
11
7.593
21
13.119
0
0
LINE
8
0
10
7.593
20
13.531
11
7.593
21
14.362
0
0
LINE
8
0
10
7.593
20
14.362
11
7.593
21
14.500
0
0
LINE
8
0
10
10.093
20
0.871
11
10.093
21
2.025
0
0
LINE
8
0
10
10.093
20
0.871
11
10.093
21
2.025
0
0
LINE
8
0
10
10.093
20
2.025
11
10.093
21
2.259
0
0
LINE
8
0
10
10.093
20
2.671
11
10.093
21
3.951
0
0
LINE
8
0
10
10.093
20
3.951
11
10.093
21
4.059
0
0
LINE
8
0
10
10.093
20
4.471
11
10.093
21
4.599
0
0
LINE
8
0
10
10.093
20
4.599
11
10.093
21
5.859
0
0
LINE
8
0
10
10.093
20
6.271
11
10.093
21
7.214
0
0
LINE
8
0
10
10.093
20
7.214
11
10.093
21
7.217
0
0
LINE
8
0
10
10.093
20
7.217
11
10.093
21
7.659
0
0
LINE
8
0
10
10.093
20
8.071
11
10.093
21
9.308
0
0
LINE
8
0
10
10.093
20
9.308
11
10.093
21
9.459
0
0
LINE
8
0
10
10.093
20
9.871
11
10.093
21
10.117
0
0
LINE
8
0
10
10.093
20
10.117
11
10.093
21
10.118
0
0
LINE
8
0
10
10.093
20
10.118
11
10.093
21
11.259
0
0
LINE
8
0
10
10.093
20
11.671
11
10.093
21
12.931
0
0
LINE
8
0
10
10.093
20
12.931
11
10.093
21
13.059
0
0
LINE
8
0
10
10.093
20
13.471
11
10.093
21
14.373
0
0
LINE
8
0
10
10.093
20
14.373
11
10.093
21
14.492
0
0
LINE
8
0
10
12.593
20
0.811
11
12.593
21
1.985
0
0
LINE
8
0
10
12.593
20
0.811
11
12.593
21
1.985
0
0
LINE
8
0
10
12.593
20
1.985
11
12.593
21
2.199
0
0
LINE
8
0
10
12.593
20
2.610
11
12.593
21
2.957
0
0
LINE
8
0
10
12.593
20
2.957
11
12.593
21
3.999
0
0
LINE
8
0
10
12.593
20
4.411
11
12.593
21
4.539
0
0
LINE
8
0
10
12.593
20
4.539
11
12.593
21
5.799
0
0
LINE
8
0
10
12.593
20
6.211
11
12.593
21
6.339
0
0
LINE
8
0
10
12.593
20
6.339
11
12.593
21
7.599
0
0
LINE
8
0
10
12.593
20
8.011
11
12.593
21
9.099
0
0
LINE
8
0
10
12.593
20
9.099
11
12.593
21
9.399
0
0
LINE
8
0
10
12.593
20
9.811
11
12.593
21
10.731
0
0
LINE
8
0
10
12.593
20
10.731
11
12.593
21
10.737
0
0
LINE
8
0
10
12.593
20
10.737
11
12.593
21
11.199
0
0
LINE
8
0
10
12.593
20
11.611
11
12.593
21
12.871
0
0
LINE
8
0
10
12.593
20
12.871
11
12.593
21
12.999
0
0
LINE
8
0
10
12.593
20
13.411
11
12.593
21
14.382
0
0
LINE
8
0
10
12.593
20
14.382
11
12.593
21
14.486
0
0
LINE
8
0
10
0.616
20
2.592
11
0.691
21
2.592
0
0
LINE
8
0
10
0.616
20
2.592
11
0.691
21
2.592
0
0
LINE
8
0
10
0.691
20
2.592
11
1.657
21
2.592
0
0
LINE
8
0
10
1.657
20
2.592
11
1.783
21
2.592
0
0
LINE
8
0
10
2.195
20
2.592
11
2.323
21
2.592
0
0
LINE
8
0
10
2.323
20
2.592
11
3.583
21
2.592
0
0
LINE
8
0
10
3.995
20
2.592
11
5.185
21
2.592
0
0
LINE
8
0
10
5.185
20
2.592
11
5.383
21
2.592
0
0
LINE
8
0
10
5.795
20
2.592
11
6.545
21
2.592
0
0
LINE
8
0
10
6.545
20
2.592
11
6.975
21
2.592
0
0
LINE
8
0
10
6.975
20
2.592
11
7.183
21
2.592
0
0
LINE
8
0
10
7.595
20
2.592
11
7.723
21
2.592
0
0
LINE
8
0
10
7.723
20
2.592
11
8.983
21
2.592
0
0
LINE
8
0
10
9.395
20
2.592
11
10.655
21
2.592
0
0
LINE
8
0
10
10.655
20
2.592
11
10.783
21
2.592
0
0
LINE
8
0
10
11.195
20
2.592
11
11.915
21
2.592
0
0
LINE
8
0
10
11.915
20
2.592
11
12.582
21
2.592
0
0
LINE
8
0
10
12.995
20
2.592
11
13.656
21
2.592
0
0
LINE
8
0
10
13.656
20
2.592
11
14.383
21
2.592
0
0
LINE
8
0
10
0.655
20
5.092
11
1.591
21
5.092
0
0
LINE
8
0
10
0.655
20
5.092
11
1.591
21
5.092
0
0
LINE
8
0
10
1.591
20
5.092
11
1.695
21
5.092
0
0
LINE
8
0
10
2.107
20
5.092
11
2.235
21
5.092
0
0
LINE
8
0
10
2.235
20
5.092
11
3.495
21
5.092
0
0
LINE
8
0
10
3.907
20
5.092
11
5.031
21
5.092
0
0
LINE
8
0
10
5.031
20
5.092
11
5.295
21
5.092
0
0
LINE
8
0
10
5.707
20
5.092
11
6.912
21
5.092
0
0
LINE
8
0
10
6.912
20
5.092
11
7.095
21
5.092
0
0
LINE
8
0
10
7.506
20
5.092
11
7.509
21
5.092
0
0
LINE
8
0
10
7.509
20
5.092
11
8.839
21
5.092
0
0
LINE
8
0
10
8.839
20
5.092
11
8.895
21
5.092
0
0
LINE
8
0
10
9.307
20
5.092
11
10.567
21
5.092
0
0
LINE
8
0
10
10.567
20
5.092
11
10.695
21
5.092
0
0
LINE
8
0
10
11.107
20
5.092
11
12.092
21
5.092
0
0
LINE
8
0
10
12.092
20
5.092
11
12.144
21
5.092
0
0
LINE
8
0
10
12.144
20
5.092
11
12.495
21
5.092
0
0
LINE
8
0
10
12.907
20
5.092
11
13.035
21
5.092
0
0
LINE
8
0
10
13.035
20
5.092
11
14.295
21
5.092
0
0
LINE
8
0
10
0.704
20
7.592
11
1.572
21
7.592
0
0
LINE
8
0
10
0.704
20
7.592
11
1.572
21
7.592
0
0
LINE
8
0
10
1.572
20
7.592
11
1.670
21
7.592
0
0
LINE
8
0
10
2.082
20
7.592
11
2.210
21
7.592
0
0
LINE
8
0
10
2.210
20
7.592
11
3.470
21
7.592
0
0
LINE
8
0
10
3.882
20
7.592
11
4.543
21
7.592
0
0
LINE
8
0
10
4.543
20
7.592
11
4.983
21
7.592
0
0
LINE
8
0
10
4.983
20
7.592
11
5.270
21
7.592
0
0
LINE
8
0
10
5.682
20
7.592
11
6.343
21
7.592
0
0
LINE
8
0
10
6.343
20
7.592
11
7.070
21
7.592
0
0
LINE
8
0
10
7.481
20
7.592
11
7.503
21
7.592
0
0
LINE
8
0
10
7.503
20
7.592
11
8.818
21
7.592
0
0
LINE
8
0
10
8.818
20
7.592
11
8.870
21
7.592
0
0
LINE
8
0
10
9.282
20
7.592
11
9.410
21
7.592
0
0
LINE
8
0
10
9.410
20
7.592
11
10.670
21
7.592
0
0
LINE
8
0
10
11.082
20
7.592
11
12.135
21
7.592
0
0
LINE
8
0
10
12.135
20
7.592
11
12.470
21
7.592
0
0
LINE
8
0
10
12.881
20
7.592
11
12.893
21
7.592
0
0
LINE
8
0
10
12.893
20
7.592
11
14.154
21
7.592
0
0
LINE
8
0
10
14.154
20
7.592
11
14.270
21
7.592
0
0
LINE
8
0
10
0.652
20
10.092
11
1.670
21
10.092
0
0
LINE
8
0
10
0.652
20
10.092
11
1.670
21
10.092
0
0
LINE
8
0
10
2.082
20
10.092
11
2.210
21
10.092
0
0
LINE
8
0
10
2.210
20
10.092
11
3.470
21
10.092
0
0
LINE
8
0
10
3.882
20
10.092
11
4.543
21
10.092
0
0
LINE
8
0
10
4.543
20
10.092
11
4.983
21
10.092
0
0
LINE
8
0
10
4.983
20
10.092
11
5.270
21
10.092
0
0
LINE
8
0
10
5.682
20
10.092
11
6.343
21
10.092
0
0
LINE
8
0
10
6.343
20
10.092
11
7.070
21
10.092
0
0
LINE
8
0
10
7.481
20
10.092
11
7.503
21
10.092
0
0
LINE
8
0
10
7.503
20
10.092
11
8.818
21
10.092
0
0
LINE
8
0
10
8.818
20
10.092
11
8.870
21
10.092
0
0
LINE
8
0
10
9.282
20
10.092
11
9.410
21
10.092
0
0
LINE
8
0
10
9.410
20
10.092
11
10.670
21
10.092
0
0
LINE
8
0
10
11.082
20
10.092
11
12.135
21
10.092
0
0
LINE
8
0
10
12.135
20
10.092
11
12.470
21
10.092
0
0
LINE
8
0
10
12.881
20
10.092
11
12.893
21
10.092
0
0
LINE
8
0
10
12.893
20
10.092
11
14.154
21
10.092
0
0
LINE
8
0
10
14.154
20
10.092
11
14.270
21
10.092
0
0
LINE
8
0
10
0.588
20
12.592
11
1.670
21
12.592
0
0
LINE
8
0
10
0.588
20
12.592
11
1.670
21
12.592
0
0
LINE
8
0
10
2.082
20
12.592
11
2.210
21
12.592
0
0
LINE
8
0
10
2.210
20
12.592
11
3.470
21
12.592
0
0
LINE
8
0
10
3.882
20
12.592
11
4.543
21
12.592
0
0
LINE
8
0
10
4.543
20
12.592
11
4.983
21
12.592
0
0
LINE
8
0
10
4.983
20
12.592
11
5.270
21
12.592
0
0
LINE
8
0
10
5.682
20
12.592
11
6.343
21
12.592
0
0
LINE
8
0
10
6.343
20
12.592
11
7.070
21
12.592
0
0
LINE
8
0
10
7.481
20
12.592
11
7.503
21
12.592
0
0
LINE
8
0
10
7.503
20
12.592
11
8.818
21
12.592
0
0
LINE
8
0
10
8.818
20
12.592
11
8.870
21
12.592
0
0
LINE
8
0
10
9.282
20
12.592
11
9.410
21
12.592
0
0
LINE
8
0
10
9.410
20
12.592
11
10.670
21
12.592
0
0
LINE
8
0
10
11.082
20
12.592
11
12.135
21
12.592
0
0
LINE
8
0
10
12.135
20
12.592
11
12.470
21
12.592
0
0
LINE
8
0
10
12.881
20
12.592
11
12.893
21
12.592
0
0
LINE
8
0
10
12.893
20
12.592
11
14.154
21
12.592
0
0
LINE
8
0
10
14.154
20
12.592
11
14.270
21
12.592
0
0
ENDSEC
0
EOF
