0
SECTION
2
ENTITIES
0
LINE
8
0
10
2.419
20
0.432
11
0.997
21
0.703
0
0
LINE
8
0
10
0.997
20
0.703
11
0.638
21
1.133
0
0
LINE
8
0
10
0.638
20
1.133
11
0.514
21
1.632
0
0
LINE
8
0
10
0.514
20
1.632
11
0.502
21
13.538
0
0
LINE
8
0
10
0.502
20
13.538
11
2.419
21
0.432
0
0
LINE
8
0
10
2.419
20
0.432
11
0.997
21
0.703
0
0
LINE
8
0
10
0.997
20
0.703
11
0.638
21
1.133
0
0
LINE
8
0
10
0.638
20
1.133
11
0.514
21
1.632
0
0
LINE
8
0
10
0.514
20
1.632
11
0.502
21
13.538
0
0
LINE
8
0
10
0.502
20
13.538
11
2.419
21
0.432
0
0
LINE
8
0
10
0.511
20
13.591
11
0.900
21
14.407
0
0
LINE
8
0
10
0.900
20
14.407
11
1.710
21
14.714
0
0
LINE
8
0
10
1.710
20
14.714
11
0.511
21
13.591
0
0
LINE
8
0
10
1.714
20
14.714
11
5.979
21
14.625
0
0
LINE
8
0
10
0.511
20
13.592
11
0.511
21
13.592
0
0
LINE
8
0
10
5.979
20
14.625
11
5.996
21
14.625
0
0
LINE
8
0
10
5.996
20
14.625
11
12.472
21
14.635
0
0
LINE
8
0
10
12.477
20
14.635
11
14.228
21
14.637
0
0
LINE
8
0
10
14.311
20
14.637
11
14.626
21
14.602
0
0
LINE
8
0
10
14.626
20
14.602
11
14.626
21
9.673
0
0
LINE
8
0
10
14.626
20
9.673
11
14.311
21
14.637
0
0
LINE
8
0
10
14.626
20
9.667
11
14.746
21
2.409
0
0
LINE
8
0
10
14.626
20
9.666
11
14.626
21
9.666
0
0
LINE
8
0
10
14.747
20
2.376
11
14.607
21
1.265
0
0
LINE
8
0
10
14.607
20
1.265
11
14.318
21
0.801
0
0
LINE
8
0
10
14.318
20
0.801
11
13.861
21
0.567
0
0
LINE
8
0
10
13.861
20
0.567
11
12.977
21
0.445
0
0
LINE
8
0
10
12.977
20
0.445
11
14.747
21
2.376
0
0
LINE
8
0
10
12.977
20
0.445
11
12.843
21
0.449
0
0
LINE
8
0
10
12.843
20
0.449
11
10.786
21
0.498
0
0
LINE
8
0
10
10.735
20
0.499
11
7.120
21
0.580
0
0
LINE
8
0
10
7.120
20
0.580
11
2.599
21
0.437
0
0
LINE
8
0
10
2.599
20
0.437
11
10.735
21
0.499
0
0
LINE
8
0
10
2.599
20
0.437
11
2.419
21
0.432
0
0
LINE
8
0
10
2.593
20
0.761
11
2.593
21
2.121
0
0
LINE
8
0
10
2.593
20
0.761
11
2.593
21
2.121
0
0
LINE
8
0
10
2.593
20
2.121
11
2.593
21
2.212
0
0
LINE
8
0
10
2.593
20
2.561
11
2.593
21
3.663
0
0
LINE
8
0
10
2.593
20
3.663
11
2.593
21
3.938
0
0
LINE
8
0
10
2.593
20
3.938
11
2.593
21
4.012
0
0
LINE
8
0
10
2.593
20
4.362
11
2.593
21
5.756
0
0
LINE
8
0
10
2.593
20
5.756
11
2.593
21
5.812
0
0
LINE
8
0
10
2.593
20
6.161
11
2.593
21
7.430
0
0
LINE
8
0
10
2.593
20
7.430
11
2.593
21
7.612
0
0
LINE
8
0
10
2.593
20
7.961
11
2.593
21
7.962
0
0
LINE
8
0
10
2.593
20
7.962
11
2.593
21
8.054
0
0
LINE
8
0
10
2.593
20
8.054
11
2.593
21
8.284
0
0
LINE
8
0
10
2.593
20
8.284
11
2.593
21
8.581
0
0
LINE
8
0
10
2.593
20
8.581
11
2.593
21
9.412
0
0
LINE
8
0
10
2.593
20
9.761
11
2.593
21
10.633
0
0
LINE
8
0
10
2.593
20
10.633
11
2.593
21
11.212
0
0
LINE
8
0
10
2.593
20
11.561
11
2.593
21
12.948
0
0
LINE
8
0
10
2.593
20
12.948
11
2.593
21
13.012
0
0
LINE
8
0
10
2.593
20
13.361
11
2.593
21
13.418
0
0
LINE
8
0
10
2.593
20
13.418
11
2.593
21
14.668
0
0
LINE
8
0
10
5.093
20
0.840
11
5.093
21
2.189
0
0
LINE
8
0
10
5.093
20
0.840
11
5.093
21
2.189
0
0
LINE
8
0
10
5.093
20
2.189
11
5.093
21
2.292
0
0
LINE
8
0
10
5.093
20
2.640
11
5.093
21
3.496
0
0
LINE
8
0
10
5.093
20
3.496
11
5.093
21
4.091
0
0
LINE
8
0
10
5.093
20
4.441
11
5.093
21
4.497
0
0
LINE
8
0
10
5.093
20
4.497
11
5.093
21
5.891
0
0
LINE
8
0
10
5.093
20
6.240
11
5.093
21
7.498
0
0
LINE
8
0
10
5.093
20
7.498
11
5.093
21
7.691
0
0
LINE
8
0
10
5.093
20
8.040
11
5.093
21
9.426
0
0
LINE
8
0
10
5.093
20
9.426
11
5.093
21
9.492
0
0
LINE
8
0
10
5.093
20
9.841
11
5.093
21
11.280
0
0
LINE
8
0
10
5.093
20
11.280
11
5.093
21
11.291
0
0
LINE
8
0
10
5.093
20
11.640
11
5.093
21
13.036
0
0
LINE
8
0
10
5.093
20
13.036
11
5.093
21
13.091
0
0
LINE
8
0
10
5.093
20
13.440
11
5.093
21
14.539
0
0
LINE
8
0
10
5.093
20
14.539
11
5.093
21
14.593
0
0
LINE
8
0
10
7.593
20
0.899
11
7.593
21
2.295
0
0
LINE
8
0
10
7.593
20
0.899
11
7.593
21
2.295
0
0
LINE
8
0
10
7.593
20
2.295
11
7.593
21
2.350
0
0
LINE
8
0
10
7.593
20
2.699
11
7.593
21
3.317
0
0
LINE
8
0
10
7.593
20
3.317
11
7.593
21
4.150
0
0
LINE
8
0
10
7.593
20
4.150
11
7.593
21
4.151
0
0
LINE
8
0
10
7.593
20
4.499
11
7.593
21
4.556
0
0
LINE
8
0
10
7.593
20
4.556
11
7.593
21
5.950
0
0
LINE
8
0
10
7.593
20
6.299
11
7.593
21
7.599
0
0
LINE
8
0
10
7.593
20
7.599
11
7.593
21
7.626
0
0
LINE
8
0
10
7.593
20
7.626
11
7.593
21
7.750
0
0
LINE
8
0
10
7.593
20
8.099
11
7.593
21
9.479
0
0
LINE
8
0
10
7.593
20
9.479
11
7.593
21
9.550
0
0
LINE
8
0
10
7.593
20
9.899
11
7.593
21
9.899
0
0
LINE
8
0
10
7.593
20
9.899
11
7.593
21
10.220
0
0
LINE
8
0
10
7.593
20
10.220
11
7.593
21
11.351
0
0
LINE
8
0
10
7.593
20
11.699
11
7.593
21
13.095
0
0
LINE
8
0
10
7.593
20
13.095
11
7.593
21
13.150
0
0
LINE
8
0
10
7.593
20
13.499
11
7.593
21
14.512
0
0
LINE
8
0
10
7.593
20
14.512
11
7.593
21
14.572
0
0
LINE
8
0
10
10.093
20
0.839
11
10.093
21
2.188
0
0
LINE
8
0
10
10.093
20
0.839
11
10.093
21
2.188
0
0
LINE
8
0
10
10.093
20
2.188
11
10.093
21
2.291
0
0
LINE
8
0
10
10.093
20
2.639
11
10.093
21
4.057
0
0
LINE
8
0
10
10.093
20
4.057
11
10.093
21
4.091
0
0
LINE
8
0
10
10.093
20
4.439
11
10.093
21
4.495
0
0
LINE
8
0
10
10.093
20
4.495
11
10.093
21
5.891
0
0
LINE
8
0
10
10.093
20
6.239
11
10.093
21
7.496
0
0
LINE
8
0
10
10.093
20
7.496
11
10.093
21
7.497
0
0
LINE
8
0
10
10.093
20
7.497
11
10.093
21
7.691
0
0
LINE
8
0
10
10.093
20
8.039
11
10.093
21
9.425
0
0
LINE
8
0
10
10.093
20
9.425
11
10.093
21
9.491
0
0
LINE
8
0
10
10.093
20
9.839
11
10.093
21
9.947
0
0
LINE
8
0
10
10.093
20
9.947
11
10.093
21
11.291
0
0
LINE
8
0
10
10.093
20
11.639
11
10.093
21
13.034
0
0
LINE
8
0
10
10.093
20
13.034
11
10.093
21
13.091
0
0
LINE
8
0
10
10.093
20
13.439
11
10.093
21
14.518
0
0
LINE
8
0
10
10.093
20
14.518
11
10.093
21
14.570
0
0
LINE
8
0
10
12.593
20
0.779
11
12.593
21
2.137
0
0
LINE
8
0
10
12.593
20
0.779
11
12.593
21
2.137
0
0
LINE
8
0
10
12.593
20
2.137
11
12.593
21
2.231
0
0
LINE
8
0
10
12.593
20
2.579
11
12.593
21
3.574
0
0
LINE
8
0
10
12.593
20
3.574
11
12.593
21
4.030
0
0
LINE
8
0
10
12.593
20
4.380
11
12.593
21
4.436
0
0
LINE
8
0
10
12.593
20
4.436
11
12.593
21
5.830
0
0
LINE
8
0
10
12.593
20
6.179
11
12.593
21
6.236
0
0
LINE
8
0
10
12.593
20
6.236
11
12.593
21
7.630
0
0
LINE
8
0
10
12.593
20
7.979
11
12.593
21
7.980
0
0
LINE
8
0
10
12.593
20
7.980
11
12.593
21
8.456
0
0
LINE
8
0
10
12.593
20
8.456
11
12.593
21
9.431
0
0
LINE
8
0
10
12.593
20
9.779
11
12.593
21
11.026
0
0
LINE
8
0
10
12.593
20
11.026
11
12.593
21
11.028
0
0
LINE
8
0
10
12.593
20
11.028
11
12.593
21
11.230
0
0
LINE
8
0
10
12.593
20
11.579
11
12.593
21
12.975
0
0
LINE
8
0
10
12.593
20
12.975
11
12.593
21
13.030
0
0
LINE
8
0
10
12.593
20
13.379
11
12.593
21
14.524
0
0
LINE
8
0
10
12.593
20
14.524
11
12.593
21
14.570
0
0
LINE
8
0
10
0.523
20
2.592
11
0.612
21
2.592
0
0
LINE
8
0
10
0.523
20
2.592
11
0.612
21
2.592
0
0
LINE
8
0
10
0.612
20
2.592
11
1.759
21
2.592
0
0
LINE
8
0
10
1.759
20
2.592
11
1.815
21
2.592
0
0
LINE
8
0
10
2.163
20
2.592
11
2.220
21
2.592
0
0
LINE
8
0
10
2.220
20
2.592
11
3.615
21
2.592
0
0
LINE
8
0
10
3.964
20
2.592
11
4.381
21
2.592
0
0
LINE
8
0
10
4.381
20
2.592
11
5.328
21
2.592
0
0
LINE
8
0
10
5.328
20
2.592
11
5.415
21
2.592
0
0
LINE
8
0
10
5.763
20
2.592
11
6.935
21
2.592
0
0
LINE
8
0
10
6.935
20
2.592
11
7.123
21
2.592
0
0
LINE
8
0
10
7.123
20
2.592
11
7.215
21
2.592
0
0
LINE
8
0
10
7.564
20
2.592
11
7.620
21
2.592
0
0
LINE
8
0
10
7.620
20
2.592
11
9.014
21
2.592
0
0
LINE
8
0
10
9.364
20
2.592
11
10.758
21
2.592
0
0
LINE
8
0
10
10.758
20
2.592
11
10.815
21
2.592
0
0
LINE
8
0
10
11.164
20
2.592
11
11.581
21
2.592
0
0
LINE
8
0
10
11.581
20
2.592
11
12.614
21
2.592
0
0
LINE
8
0
10
12.963
20
2.592
11
13.242
21
2.592
0
0
LINE
8
0
10
13.242
20
2.592
11
14.096
21
2.592
0
0
LINE
8
0
10
14.096
20
2.592
11
14.415
21
2.592
0
0
LINE
8
0
10
0.575
20
5.092
11
1.681
21
5.092
0
0
LINE
8
0
10
0.575
20
5.092
11
1.681
21
5.092
0
0
LINE
8
0
10
1.681
20
5.092
11
1.726
21
5.092
0
0
LINE
8
0
10
2.075
20
5.092
11
2.131
21
5.092
0
0
LINE
8
0
10
2.131
20
5.092
11
3.526
21
5.092
0
0
LINE
8
0
10
3.875
20
5.092
11
5.211
21
5.092
0
0
LINE
8
0
10
5.211
20
5.092
11
5.327
21
5.092
0
0
LINE
8
0
10
5.675
20
5.092
11
7.047
21
5.092
0
0
LINE
8
0
10
7.047
20
5.092
11
7.127
21
5.092
0
0
LINE
8
0
10
7.475
20
5.092
11
8.302
21
5.092
0
0
LINE
8
0
10
8.302
20
5.092
11
8.902
21
5.092
0
0
LINE
8
0
10
8.902
20
5.092
11
8.927
21
5.092
0
0
LINE
8
0
10
9.275
20
5.092
11
10.671
21
5.092
0
0
LINE
8
0
10
10.671
20
5.092
11
10.726
21
5.092
0
0
LINE
8
0
10
11.075
20
5.092
11
12.350
21
5.092
0
0
LINE
8
0
10
12.350
20
5.092
11
12.373
21
5.092
0
0
LINE
8
0
10
12.373
20
5.092
11
12.527
21
5.092
0
0
LINE
8
0
10
12.876
20
5.092
11
12.931
21
5.092
0
0
LINE
8
0
10
12.931
20
5.092
11
14.326
21
5.092
0
0
LINE
8
0
10
0.632
20
7.592
11
1.659
21
7.592
0
0
LINE
8
0
10
0.632
20
7.592
11
1.659
21
7.592
0
0
LINE
8
0
10
1.659
20
7.592
11
1.702
21
7.592
0
0
LINE
8
0
10
2.050
20
7.592
11
2.107
21
7.592
0
0
LINE
8
0
10
2.107
20
7.592
11
3.502
21
7.592
0
0
LINE
8
0
10
3.850
20
7.592
11
4.983
21
7.592
0
0
LINE
8
0
10
4.983
20
7.592
11
5.176
21
7.592
0
0
LINE
8
0
10
5.176
20
7.592
11
5.301
21
7.592
0
0
LINE
8
0
10
5.650
20
7.592
11
6.783
21
7.592
0
0
LINE
8
0
10
6.783
20
7.592
11
7.101
21
7.592
0
0
LINE
8
0
10
7.450
20
7.592
11
8.068
21
7.592
0
0
LINE
8
0
10
8.068
20
7.592
11
8.879
21
7.592
0
0
LINE
8
0
10
8.879
20
7.592
11
8.902
21
7.592
0
0
LINE
8
0
10
9.251
20
7.592
11
9.306
21
7.592
0
0
LINE
8
0
10
9.306
20
7.592
11
10.701
21
7.592
0
0
LINE
8
0
10
11.050
20
7.592
11
12.355
21
7.592
0
0
LINE
8
0
10
12.355
20
7.592
11
12.502
21
7.592
0
0
LINE
8
0
10
12.850
20
7.592
11
12.854
21
7.592
0
0
LINE
8
0
10
12.854
20
7.592
11
14.251
21
7.592
0
0
LINE
8
0
10
14.251
20
7.592
11
14.302
21
7.592
0
0
LINE
8
0
10
0.574
20
10.092
11
1.702
21
10.092
0
0
LINE
8
0
10
0.574
20
10.092
11
1.702
21
10.092
0
0
LINE
8
0
10
2.050
20
10.092
11
2.107
21
10.092
0
0
LINE
8
0
10
2.107
20
10.092
11
3.502
21
10.092
0
0
LINE
8
0
10
3.850
20
10.092
11
4.983
21
10.092
0
0
LINE
8
0
10
4.983
20
10.092
11
5.176
21
10.092
0
0
LINE
8
0
10
5.176
20
10.092
11
5.301
21
10.092
0
0
LINE
8
0
10
5.650
20
10.092
11
6.783
21
10.092
0
0
LINE
8
0
10
6.783
20
10.092
11
7.101
21
10.092
0
0
LINE
8
0
10
7.450
20
10.092
11
8.068
21
10.092
0
0
LINE
8
0
10
8.068
20
10.092
11
8.879
21
10.092
0
0
LINE
8
0
10
8.879
20
10.092
11
8.902
21
10.092
0
0
LINE
8
0
10
9.251
20
10.092
11
9.306
21
10.092
0
0
LINE
8
0
10
9.306
20
10.092
11
10.701
21
10.092
0
0
LINE
8
0
10
11.050
20
10.092
11
12.355
21
10.092
0
0
LINE
8
0
10
12.355
20
10.092
11
12.502
21
10.092
0
0
LINE
8
0
10
12.850
20
10.092
11
12.854
21
10.092
0
0
LINE
8
0
10
12.854
20
10.092
11
14.251
21
10.092
0
0
LINE
8
0
10
14.251
20
10.092
11
14.302
21
10.092
0
0
LINE
8
0
10
0.504
20
12.592
11
1.702
21
12.592
0
0
LINE
8
0
10
0.504
20
12.592
11
1.702
21
12.592
0
0
LINE
8
0
10
2.050
20
12.592
11
2.107
21
12.592
0
0
LINE
8
0
10
2.107
20
12.592
11
3.502
21
12.592
0
0
LINE
8
0
10
3.850
20
12.592
11
4.983
21
12.592
0
0
LINE
8
0
10
4.983
20
12.592
11
5.176
21
12.592
0
0
LINE
8
0
10
5.176
20
12.592
11
5.301
21
12.592
0
0
LINE
8
0
10
5.650
20
12.592
11
6.783
21
12.592
0
0
LINE
8
0
10
6.783
20
12.592
11
7.101
21
12.592
0
0
LINE
8
0
10
7.450
20
12.592
11
8.068
21
12.592
0
0
LINE
8
0
10
8.068
20
12.592
11
8.879
21
12.592
0
0
LINE
8
0
10
8.879
20
12.592
11
8.902
21
12.592
0
0
LINE
8
0
10
9.251
20
12.592
11
9.306
21
12.592
0
0
LINE
8
0
10
9.306
20
12.592
11
10.701
21
12.592
0
0
LINE
8
0
10
11.050
20
12.592
11
12.355
21
12.592
0
0
LINE
8
0
10
12.355
20
12.592
11
12.502
21
12.592
0
0
LINE
8
0
10
12.850
20
12.592
11
12.854
21
12.592
0
0
LINE
8
0
10
12.854
20
12.592
11
14.251
21
12.592
0
0
LINE
8
0
10
14.251
20
12.592
11
14.302
21
12.592
0
0
ENDSEC
0
EOF
