0
SECTION
2
ENTITIES
0
LINE
8
0
10
2.402
20
0.432
11
7.240
21
0.581
0
0
LINE
8
0
10
7.240
20
0.581
11
13.067
21
0.454
0
0
LINE
8
0
10
13.067
20
0.454
11
14.292
21
0.783
0
0
LINE
8
0
10
14.292
20
0.783
11
14.623
21
1.309
0
0
LINE
8
0
10
14.623
20
1.309
11
14.750
21
2.296
0
0
LINE
8
0
10
14.750
20
2.296
11
14.597
21
14.607
0
0
LINE
8
0
10
14.597
20
14.607
11
2.250
21
14.753
0
0
LINE
8
0
10
2.250
20
14.753
11
1.256
21
14.608
0
0
LINE
8
0
10
1.256
20
14.608
11
0.788
21
14.298
0
0
LINE
8
0
10
0.788
20
14.298
11
0.538
21
13.734
0
0
LINE
8
0
10
0.538
20
13.734
11
0.437
21
12.721
0
0
LINE
8
0
10
0.437
20
12.721
11
0.582
21
7.803
0
0
LINE
8
0
10
0.582
20
7.803
11
0.443
21
2.201
0
0
LINE
8
0
10
0.443
20
2.201
11
0.562
21
1.340
0
0
LINE
8
0
10
0.562
20
1.340
11
0.807
21
0.857
0
0
LINE
8
0
10
0.807
20
0.857
11
1.279
21
0.579
0
0
LINE
8
0
10
1.279
20
0.579
11
2.402
21
0.432
0
0
LINE
8
0
10
2.402
20
0.432
11
2.402
21
0.432
0
0
LINE
8
0
10
2.402
20
0.432
11
7.240
21
0.581
0
0
LINE
8
0
10
7.240
20
0.581
11
13.067
21
0.454
0
0
LINE
8
0
10
13.067
20
0.454
11
14.292
21
0.783
0
0
LINE
8
0
10
14.292
20
0.783
11
14.623
21
1.309
0
0
LINE
8
0
10
14.623
20
1.309
11
14.750
21
2.296
0
0
LINE
8
0
10
14.750
20
2.296
11
14.597
21
14.607
0
0
LINE
8
0
10
14.597
20
14.607
11
2.250
21
14.753
0
0
LINE
8
0
10
2.250
20
14.753
11
1.256
21
14.608
0
0
LINE
8
0
10
1.256
20
14.608
11
0.788
21
14.298
0
0
LINE
8
0
10
0.788
20
14.298
11
0.538
21
13.734
0
0
LINE
8
0
10
0.538
20
13.734
11
0.437
21
12.721
0
0
LINE
8
0
10
0.437
20
12.721
11
0.582
21
7.803
0
0
LINE
8
0
10
0.582
20
7.803
11
0.443
21
2.201
0
0
LINE
8
0
10
0.443
20
2.201
11
0.562
21
1.340
0
0
LINE
8
0
10
0.562
20
1.340
11
0.807
21
0.857
0
0
LINE
8
0
10
0.807
20
0.857
11
1.279
21
0.579
0
0
LINE
8
0
10
1.279
20
0.579
11
2.402
21
0.432
0
0
LINE
8
0
10
2.402
20
0.432
11
2.402
21
0.432
0
0
LINE
8
0
10
14.626
20
7.312
11
14.626
21
7.312
0
0
LINE
8
0
10
2.593
20
0.437
11
2.593
21
0.642
0
0
LINE
8
0
10
2.593
20
0.437
11
2.593
21
0.642
0
0
LINE
8
0
10
2.593
20
0.642
11
2.593
21
0.809
0
0
LINE
8
0
10
2.593
20
0.809
11
2.593
21
1.691
0
0
LINE
8
0
10
2.593
20
1.691
11
2.593
21
1.879
0
0
LINE
8
0
10
2.593
20
1.879
11
2.593
21
2.073
0
0
LINE
8
0
10
2.593
20
2.073
11
2.593
21
2.447
0
0
LINE
8
0
10
2.593
20
2.447
11
2.593
21
3.551
0
0
LINE
8
0
10
2.593
20
3.551
11
2.593
21
3.723
0
0
LINE
8
0
10
2.593
20
3.723
11
2.593
21
3.901
0
0
LINE
8
0
10
2.593
20
3.901
11
2.593
21
4.791
0
0
LINE
8
0
10
2.593
20
4.791
11
2.593
21
5.162
0
0
LINE
8
0
10
2.593
20
5.162
11
2.593
21
5.536
0
0
LINE
8
0
10
2.593
20
5.536
11
2.593
21
5.808
0
0
LINE
8
0
10
2.593
20
5.808
11
2.593
21
5.986
0
0
LINE
8
0
10
2.593
20
5.986
11
2.593
21
6.876
0
0
LINE
8
0
10
2.593
20
6.876
11
2.593
21
7.148
0
0
LINE
8
0
10
2.593
20
7.148
11
2.593
21
7.367
0
0
LINE
8
0
10
2.593
20
7.367
11
2.593
21
7.742
0
0
LINE
8
0
10
2.593
20
7.742
11
2.593
21
8.071
0
0
LINE
8
0
10
2.593
20
8.071
11
2.593
21
8.961
0
0
LINE
8
0
10
2.593
20
8.961
11
2.593
21
9.138
0
0
LINE
8
0
10
2.593
20
9.138
11
2.593
21
9.700
0
0
LINE
8
0
10
2.593
20
9.700
11
2.593
21
9.701
0
0
LINE
8
0
10
2.593
20
9.701
11
2.593
21
9.708
0
0
LINE
8
0
10
2.593
20
9.708
11
2.593
21
9.716
0
0
LINE
8
0
10
2.593
20
9.716
11
2.593
21
9.731
0
0
LINE
8
0
10
2.593
20
9.731
11
2.593
21
9.772
0
0
LINE
8
0
10
2.593
20
9.772
11
2.593
21
9.789
0
0
LINE
8
0
10
2.593
20
9.789
11
2.593
21
9.799
0
0
LINE
8
0
10
2.593
20
9.799
11
2.593
21
9.807
0
0
LINE
8
0
10
2.593
20
9.807
11
2.593
21
10.377
0
0
LINE
8
0
10
2.593
20
10.377
11
2.593
21
10.399
0
0
LINE
8
0
10
2.593
20
10.399
11
2.593
21
10.449
0
0
LINE
8
0
10
2.593
20
10.449
11
2.593
21
10.472
0
0
LINE
8
0
10
2.593
20
10.472
11
2.593
21
10.479
0
0
LINE
8
0
10
2.593
20
10.479
11
2.593
21
10.483
0
0
LINE
8
0
10
2.593
20
10.483
11
2.593
21
11.046
0
0
LINE
8
0
10
2.593
20
11.046
11
2.593
21
11.223
0
0
LINE
8
0
10
2.593
20
11.223
11
2.593
21
12.113
0
0
LINE
8
0
10
2.593
20
12.113
11
2.593
21
12.442
0
0
LINE
8
0
10
2.593
20
12.442
11
2.593
21
12.816
0
0
LINE
8
0
10
2.593
20
12.816
11
2.593
21
13.036
0
0
LINE
8
0
10
2.593
20
13.036
11
2.593
21
13.238
0
0
LINE
8
0
10
2.593
20
13.238
11
2.593
21
14.183
0
0
LINE
8
0
10
2.593
20
14.183
11
2.593
21
14.372
0
0
LINE
8
0
10
2.593
20
14.372
11
2.593
21
14.536
0
0
LINE
8
0
10
2.593
20
14.536
11
2.593
21
14.742
0
0
LINE
8
0
10
5.093
20
0.516
11
5.093
21
0.543
0
0
LINE
8
0
10
5.093
20
0.516
11
5.093
21
0.543
0
0
LINE
8
0
10
5.093
20
0.543
11
5.093
21
1.672
0
0
LINE
8
0
10
5.093
20
1.672
11
5.093
21
1.868
0
0
LINE
8
0
10
5.093
20
1.868
11
5.093
21
2.010
0
0
LINE
8
0
10
5.093
20
2.010
11
5.093
21
2.384
0
0
LINE
8
0
10
5.093
20
2.384
11
5.093
21
3.487
0
0
LINE
8
0
10
5.093
20
3.487
11
5.093
21
3.672
0
0
LINE
8
0
10
5.093
20
3.672
11
5.093
21
3.850
0
0
LINE
8
0
10
5.093
20
3.850
11
5.093
21
4.739
0
0
LINE
8
0
10
5.093
20
4.739
11
5.093
21
5.098
0
0
LINE
8
0
10
5.093
20
5.098
11
5.093
21
5.472
0
0
LINE
8
0
10
5.093
20
5.472
11
5.093
21
5.693
0
0
LINE
8
0
10
5.093
20
5.693
11
5.093
21
5.935
0
0
LINE
8
0
10
5.093
20
5.935
11
5.093
21
6.824
0
0
LINE
8
0
10
5.093
20
6.824
11
5.093
21
7.084
0
0
LINE
8
0
10
5.093
20
7.084
11
5.093
21
7.304
0
0
LINE
8
0
10
5.093
20
7.304
11
5.093
21
7.678
0
0
LINE
8
0
10
5.093
20
7.678
11
5.093
21
8.020
0
0
LINE
8
0
10
5.093
20
8.020
11
5.093
21
8.909
0
0
LINE
8
0
10
5.093
20
8.909
11
5.093
21
9.087
0
0
LINE
8
0
10
5.093
20
9.087
11
5.093
21
9.660
0
0
LINE
8
0
10
5.093
20
9.660
11
5.093
21
9.686
0
0
LINE
8
0
10
5.093
20
9.686
11
5.093
21
9.712
0
0
LINE
8
0
10
5.093
20
9.712
11
5.093
21
9.720
0
0
LINE
8
0
10
5.093
20
9.720
11
5.093
21
10.290
0
0
LINE
8
0
10
5.093
20
10.290
11
5.093
21
10.320
0
0
LINE
8
0
10
5.093
20
10.320
11
5.093
21
10.354
0
0
LINE
8
0
10
5.093
20
10.354
11
5.093
21
10.385
0
0
LINE
8
0
10
5.093
20
10.385
11
5.093
21
10.421
0
0
LINE
8
0
10
5.093
20
10.421
11
5.093
21
10.434
0
0
LINE
8
0
10
5.093
20
10.434
11
5.093
21
10.438
0
0
LINE
8
0
10
5.093
20
10.438
11
5.093
21
10.994
0
0
LINE
8
0
10
5.093
20
10.994
11
5.093
21
11.172
0
0
LINE
8
0
10
5.093
20
11.172
11
5.093
21
12.061
0
0
LINE
8
0
10
5.093
20
12.061
11
5.093
21
12.378
0
0
LINE
8
0
10
5.093
20
12.378
11
5.093
21
12.752
0
0
LINE
8
0
10
5.093
20
12.752
11
5.093
21
12.972
0
0
LINE
8
0
10
5.093
20
12.972
11
5.093
21
13.130
0
0
LINE
8
0
10
5.093
20
13.130
11
5.093
21
14.115
0
0
LINE
8
0
10
5.093
20
14.115
11
5.093
21
14.312
0
0
LINE
8
0
10
5.093
20
14.312
11
5.093
21
14.440
0
0
LINE
8
0
10
5.093
20
14.440
11
5.093
21
14.655
0
0
LINE
8
0
10
7.593
20
0.574
11
7.593
21
0.795
0
0
LINE
8
0
10
7.593
20
0.574
11
7.593
21
0.795
0
0
LINE
8
0
10
7.593
20
0.795
11
7.593
21
0.905
0
0
LINE
8
0
10
7.593
20
0.905
11
7.593
21
0.906
0
0
LINE
8
0
10
7.593
20
0.906
11
7.593
21
1.677
0
0
LINE
8
0
10
7.593
20
1.677
11
7.593
21
1.878
0
0
LINE
8
0
10
7.593
20
1.878
11
7.593
21
2.300
0
0
LINE
8
0
10
7.593
20
2.300
11
7.593
21
2.308
0
0
LINE
8
0
10
7.593
20
2.308
11
7.593
21
2.333
0
0
LINE
8
0
10
7.593
20
2.333
11
7.593
21
2.352
0
0
LINE
8
0
10
7.593
20
2.352
11
7.593
21
2.366
0
0
LINE
8
0
10
7.593
20
2.366
11
7.593
21
3.069
0
0
LINE
8
0
10
7.593
20
3.069
11
7.593
21
3.656
0
0
LINE
8
0
10
7.593
20
3.656
11
7.593
21
3.833
0
0
LINE
8
0
10
7.593
20
3.833
11
7.593
21
4.723
0
0
LINE
8
0
10
7.593
20
4.723
11
7.593
21
5.079
0
0
LINE
8
0
10
7.593
20
5.079
11
7.593
21
5.453
0
0
LINE
8
0
10
7.593
20
5.453
11
7.593
21
5.458
0
0
LINE
8
0
10
7.593
20
5.458
11
7.593
21
5.672
0
0
LINE
8
0
10
7.593
20
5.672
11
7.593
21
5.918
0
0
LINE
8
0
10
7.593
20
5.918
11
7.593
21
6.808
0
0
LINE
8
0
10
7.593
20
6.808
11
7.593
21
7.064
0
0
LINE
8
0
10
7.593
20
7.064
11
7.593
21
7.284
0
0
LINE
8
0
10
7.593
20
7.284
11
7.593
21
7.658
0
0
LINE
8
0
10
7.593
20
7.658
11
7.593
21
8.003
0
0
LINE
8
0
10
7.593
20
8.003
11
7.593
21
8.893
0
0
LINE
8
0
10
7.593
20
8.893
11
7.593
21
9.070
0
0
LINE
8
0
10
7.593
20
9.070
11
7.593
21
9.649
0
0
LINE
8
0
10
7.593
20
9.649
11
7.593
21
9.658
0
0
LINE
8
0
10
7.593
20
9.658
11
7.593
21
9.692
0
0
LINE
8
0
10
7.593
20
9.692
11
7.593
21
10.262
0
0
LINE
8
0
10
7.593
20
10.262
11
7.593
21
10.266
0
0
LINE
8
0
10
7.593
20
10.266
11
7.593
21
10.285
0
0
LINE
8
0
10
7.593
20
10.285
11
7.593
21
10.335
0
0
LINE
8
0
10
7.593
20
10.335
11
7.593
21
10.358
0
0
LINE
8
0
10
7.593
20
10.358
11
7.593
21
10.394
0
0
LINE
8
0
10
7.593
20
10.394
11
7.593
21
10.407
0
0
LINE
8
0
10
7.593
20
10.407
11
7.593
21
10.420
0
0
LINE
8
0
10
7.593
20
10.420
11
7.593
21
10.424
0
0
LINE
8
0
10
7.593
20
10.424
11
7.593
21
10.978
0
0
LINE
8
0
10
7.593
20
10.978
11
7.593
21
11.155
0
0
LINE
8
0
10
7.593
20
11.155
11
7.593
21
12.045
0
0
LINE
8
0
10
7.593
20
12.045
11
7.593
21
12.358
0
0
LINE
8
0
10
7.593
20
12.358
11
7.593
21
12.732
0
0
LINE
8
0
10
7.593
20
12.732
11
7.593
21
12.952
0
0
LINE
8
0
10
7.593
20
12.952
11
7.593
21
13.096
0
0
LINE
8
0
10
7.593
20
13.096
11
7.593
21
14.093
0
0
LINE
8
0
10
7.593
20
14.093
11
7.593
21
14.591
0
0
LINE
8
0
10
7.593
20
14.591
11
7.593
21
14.607
0
0
LINE
8
0
10
7.593
20
14.607
11
7.593
21
14.628
0
0
LINE
8
0
10
10.093
20
0.515
11
10.093
21
0.729
0
0
LINE
8
0
10
10.093
20
0.515
11
10.093
21
0.729
0
0
LINE
8
0
10
10.093
20
0.729
11
10.093
21
0.862
0
0
LINE
8
0
10
10.093
20
0.862
11
10.093
21
1.656
0
0
LINE
8
0
10
10.093
20
1.656
11
10.093
21
1.852
0
0
LINE
8
0
10
10.093
20
1.852
11
10.093
21
2.302
0
0
LINE
8
0
10
10.093
20
2.302
11
10.093
21
2.312
0
0
LINE
8
0
10
10.093
20
2.312
11
10.093
21
2.330
0
0
LINE
8
0
10
10.093
20
2.330
11
10.093
21
2.336
0
0
LINE
8
0
10
10.093
20
2.336
11
10.093
21
2.343
0
0
LINE
8
0
10
10.093
20
2.343
11
10.093
21
2.349
0
0
LINE
8
0
10
10.093
20
2.349
11
10.093
21
2.352
0
0
LINE
8
0
10
10.093
20
2.352
11
10.093
21
3.071
0
0
LINE
8
0
10
10.093
20
3.071
11
10.093
21
3.658
0
0
LINE
8
0
10
10.093
20
3.658
11
10.093
21
3.835
0
0
LINE
8
0
10
10.093
20
3.835
11
10.093
21
4.725
0
0
LINE
8
0
10
10.093
20
4.725
11
10.093
21
5.081
0
0
LINE
8
0
10
10.093
20
5.081
11
10.093
21
5.455
0
0
LINE
8
0
10
10.093
20
5.455
11
10.093
21
5.675
0
0
LINE
8
0
10
10.093
20
5.675
11
10.093
21
5.920
0
0
LINE
8
0
10
10.093
20
5.920
11
10.093
21
6.810
0
0
LINE
8
0
10
10.093
20
6.810
11
10.093
21
7.066
0
0
LINE
8
0
10
10.093
20
7.066
11
10.093
21
7.287
0
0
LINE
8
0
10
10.093
20
7.287
11
10.093
21
7.661
0
0
LINE
8
0
10
10.093
20
7.661
11
10.093
21
8.005
0
0
LINE
8
0
10
10.093
20
8.005
11
10.093
21
8.895
0
0
LINE
8
0
10
10.093
20
8.895
11
10.093
21
9.073
0
0
LINE
8
0
10
10.093
20
9.073
11
10.093
21
9.650
0
0
LINE
8
0
10
10.093
20
9.650
11
10.093
21
9.662
0
0
LINE
8
0
10
10.093
20
9.662
11
10.093
21
9.696
0
0
LINE
8
0
10
10.093
20
9.696
11
10.093
21
10.266
0
0
LINE
8
0
10
10.093
20
10.266
11
10.093
21
10.270
0
0
LINE
8
0
10
10.093
20
10.270
11
10.093
21
10.296
0
0
LINE
8
0
10
10.093
20
10.296
11
10.093
21
10.322
0
0
LINE
8
0
10
10.093
20
10.322
11
10.093
21
10.330
0
0
LINE
8
0
10
10.093
20
10.330
11
10.093
21
10.361
0
0
LINE
8
0
10
10.093
20
10.361
11
10.093
21
10.369
0
0
LINE
8
0
10
10.093
20
10.369
11
10.093
21
10.383
0
0
LINE
8
0
10
10.093
20
10.383
11
10.093
21
10.410
0
0
LINE
8
0
10
10.093
20
10.410
11
10.093
21
10.424
0
0
LINE
8
0
10
10.093
20
10.424
11
10.093
21
10.425
0
0
LINE
8
0
10
10.093
20
10.425
11
10.093
21
10.980
0
0
LINE
8
0
10
10.093
20
10.980
11
10.093
21
11.158
0
0
LINE
8
0
10
10.093
20
11.158
11
10.093
21
12.047
0
0
LINE
8
0
10
10.093
20
12.047
11
10.093
21
12.360
0
0
LINE
8
0
10
10.093
20
12.360
11
10.093
21
12.734
0
0
LINE
8
0
10
10.093
20
12.734
11
10.093
21
12.955
0
0
LINE
8
0
10
10.093
20
12.955
11
10.093
21
13.100
0
0
LINE
8
0
10
10.093
20
13.100
11
10.093
21
14.095
0
0
LINE
8
0
10
10.093
20
14.095
11
10.093
21
14.294
0
0
LINE
8
0
10
10.093
20
14.294
11
10.093
21
14.413
0
0
LINE
8
0
10
10.093
20
14.413
11
10.093
21
14.631
0
0
LINE
8
0
10
12.593
20
0.455
11
12.593
21
0.662
0
0
LINE
8
0
10
12.593
20
0.455
11
12.593
21
0.662
0
0
LINE
8
0
10
12.593
20
0.662
11
12.593
21
0.821
0
0
LINE
8
0
10
12.593
20
0.821
11
12.593
21
1.633
0
0
LINE
8
0
10
12.593
20
1.633
11
12.593
21
1.823
0
0
LINE
8
0
10
12.593
20
1.823
11
12.593
21
2.304
0
0
LINE
8
0
10
12.593
20
2.304
11
12.593
21
2.315
0
0
LINE
8
0
10
12.593
20
2.315
11
12.593
21
2.340
0
0
LINE
8
0
10
12.593
20
2.340
11
12.593
21
2.343
0
0
LINE
8
0
10
12.593
20
2.343
11
12.593
21
3.074
0
0
LINE
8
0
10
12.593
20
3.074
11
12.593
21
3.660
0
0
LINE
8
0
10
12.593
20
3.660
11
12.593
21
3.838
0
0
LINE
8
0
10
12.593
20
3.838
11
12.593
21
4.727
0
0
LINE
8
0
10
12.593
20
4.727
11
12.593
21
5.084
0
0
LINE
8
0
10
12.593
20
5.084
11
12.593
21
5.458
0
0
LINE
8
0
10
12.593
20
5.458
11
12.593
21
5.678
0
0
LINE
8
0
10
12.593
20
5.678
11
12.593
21
5.923
0
0
LINE
8
0
10
12.593
20
5.923
11
12.593
21
6.812
0
0
LINE
8
0
10
12.593
20
6.812
11
12.593
21
7.069
0
0
LINE
8
0
10
12.593
20
7.069
11
12.593
21
7.290
0
0
LINE
8
0
10
12.593
20
7.290
11
12.593
21
7.664
0
0
LINE
8
0
10
12.593
20
7.664
11
12.593
21
8.008
0
0
LINE
8
0
10
12.593
20
8.008
11
12.593
21
8.897
0
0
LINE
8
0
10
12.593
20
8.897
11
12.593
21
9.075
0
0
LINE
8
0
10
12.593
20
9.075
11
12.593
21
9.652
0
0
LINE
8
0
10
12.593
20
9.652
11
12.593
21
9.666
0
0
LINE
8
0
10
12.593
20
9.666
11
12.593
21
9.692
0
0
LINE
8
0
10
12.593
20
9.692
11
12.593
21
9.700
0
0
LINE
8
0
10
12.593
20
9.700
11
12.593
21
10.270
0
0
LINE
8
0
10
12.593
20
10.270
11
12.593
21
10.300
0
0
LINE
8
0
10
12.593
20
10.300
11
12.593
21
10.326
0
0
LINE
8
0
10
12.593
20
10.326
11
12.593
21
10.334
0
0
LINE
8
0
10
12.593
20
10.334
11
12.593
21
10.365
0
0
LINE
8
0
10
12.593
20
10.365
11
12.593
21
10.407
0
0
LINE
8
0
10
12.593
20
10.407
11
12.593
21
10.414
0
0
LINE
8
0
10
12.593
20
10.414
11
12.593
21
10.427
0
0
LINE
8
0
10
12.593
20
10.427
11
12.593
21
10.982
0
0
LINE
8
0
10
12.593
20
10.982
11
12.593
21
11.160
0
0
LINE
8
0
10
12.593
20
11.160
11
12.593
21
12.049
0
0
LINE
8
0
10
12.593
20
12.049
11
12.593
21
12.363
0
0
LINE
8
0
10
12.593
20
12.363
11
12.593
21
12.737
0
0
LINE
8
0
10
12.593
20
12.737
11
12.593
21
12.958
0
0
LINE
8
0
10
12.593
20
12.958
11
12.593
21
13.105
0
0
LINE
8
0
10
12.593
20
13.105
11
12.593
21
14.099
0
0
LINE
8
0
10
12.593
20
14.099
11
12.593
21
14.297
0
0
LINE
8
0
10
12.593
20
14.297
11
12.593
21
14.418
0
0
LINE
8
0
10
12.593
20
14.418
11
12.593
21
14.635
0
0
LINE
8
0
10
0.450
20
2.592
11
0.497
21
2.592
0
0
LINE
8
0
10
0.450
20
2.592
11
0.497
21
2.592
0
0
LINE
8
0
10
0.497
20
2.592
11
1.008
21
2.592
0
0
LINE
8
0
10
1.008
20
2.592
11
1.957
21
2.592
0
0
LINE
8
0
10
1.957
20
2.592
11
2.154
21
2.592
0
0
LINE
8
0
10
2.154
20
2.592
11
2.374
21
2.592
0
0
LINE
8
0
10
2.374
20
2.592
11
2.748
21
2.592
0
0
LINE
8
0
10
2.748
20
2.592
11
3.076
21
2.592
0
0
LINE
8
0
10
3.076
20
2.592
11
3.966
21
2.592
0
0
LINE
8
0
10
3.966
20
2.592
11
4.144
21
2.592
0
0
LINE
8
0
10
4.144
20
2.592
11
4.705
21
2.592
0
0
LINE
8
0
10
4.705
20
2.592
11
4.720
21
2.592
0
0
LINE
8
0
10
4.720
20
2.592
11
4.743
21
2.592
0
0
LINE
8
0
10
4.743
20
2.592
11
4.793
21
2.592
0
0
LINE
8
0
10
4.793
20
2.592
11
4.812
21
2.592
0
0
LINE
8
0
10
4.812
20
2.592
11
4.816
21
2.592
0
0
LINE
8
0
10
4.816
20
2.592
11
5.386
21
2.592
0
0
LINE
8
0
10
5.386
20
2.592
11
5.420
21
2.592
0
0
LINE
8
0
10
5.420
20
2.592
11
5.461
21
2.592
0
0
LINE
8
0
10
5.461
20
2.592
11
5.476
21
2.592
0
0
LINE
8
0
10
5.476
20
2.592
11
5.484
21
2.592
0
0
LINE
8
0
10
5.484
20
2.592
11
5.488
21
2.592
0
0
LINE
8
0
10
5.488
20
2.592
11
6.051
21
2.592
0
0
LINE
8
0
10
6.051
20
2.592
11
6.229
21
2.592
0
0
LINE
8
0
10
6.229
20
2.592
11
7.118
21
2.592
0
0
LINE
8
0
10
7.118
20
2.592
11
7.449
21
2.592
0
0
LINE
8
0
10
7.449
20
2.592
11
7.823
21
2.592
0
0
LINE
8
0
10
7.823
20
2.592
11
8.043
21
2.592
0
0
LINE
8
0
10
8.043
20
2.592
11
8.314
21
2.592
0
0
LINE
8
0
10
8.314
20
2.592
11
9.203
21
2.592
0
0
LINE
8
0
10
9.203
20
2.592
11
9.381
21
2.592
0
0
LINE
8
0
10
9.381
20
2.592
11
9.654
21
2.592
0
0
LINE
8
0
10
9.654
20
2.592
11
10.028
21
2.592
0
0
LINE
8
0
10
10.028
20
2.592
11
10.399
21
2.592
0
0
LINE
8
0
10
10.399
20
2.592
11
11.288
21
2.592
0
0
LINE
8
0
10
11.288
20
2.592
11
11.466
21
2.592
0
0
LINE
8
0
10
11.466
20
2.592
11
11.639
21
2.592
0
0
LINE
8
0
10
11.639
20
2.592
11
12.743
21
2.592
0
0
LINE
8
0
10
12.743
20
2.592
11
13.117
21
2.592
0
0
LINE
8
0
10
13.117
20
2.592
11
13.305
21
2.592
0
0
LINE
8
0
10
13.305
20
2.592
11
13.494
21
2.592
0
0
LINE
8
0
10
13.494
20
2.592
11
14.370
21
2.592
0
0
LINE
8
0
10
14.370
20
2.592
11
14.533
21
2.592
0
0
LINE
8
0
10
14.533
20
2.592
11
14.739
21
2.592
0
0
LINE
8
0
10
0.513
20
5.092
11
0.522
21
5.092
0
0
LINE
8
0
10
0.513
20
5.092
11
0.522
21
5.092
0
0
LINE
8
0
10
0.522
20
5.092
11
1.057
21
5.092
0
0
LINE
8
0
10
1.057
20
5.092
11
2.036
21
5.092
0
0
LINE
8
0
10
2.036
20
5.092
11
2.201
21
5.092
0
0
LINE
8
0
10
2.201
20
5.092
11
2.421
21
5.092
0
0
LINE
8
0
10
2.421
20
5.092
11
2.795
21
5.092
0
0
LINE
8
0
10
2.795
20
5.092
11
3.114
21
5.092
0
0
LINE
8
0
10
3.114
20
5.092
11
4.004
21
5.092
0
0
LINE
8
0
10
4.004
20
5.092
11
4.181
21
5.092
0
0
LINE
8
0
10
4.181
20
5.092
11
4.737
21
5.092
0
0
LINE
8
0
10
4.737
20
5.092
11
4.741
21
5.092
0
0
LINE
8
0
10
4.741
20
5.092
11
4.762
21
5.092
0
0
LINE
8
0
10
4.762
20
5.092
11
4.783
21
5.092
0
0
LINE
8
0
10
4.783
20
5.092
11
4.806
21
5.092
0
0
LINE
8
0
10
4.806
20
5.092
11
4.856
21
5.092
0
0
LINE
8
0
10
4.856
20
5.092
11
4.875
21
5.092
0
0
LINE
8
0
10
4.875
20
5.092
11
4.879
21
5.092
0
0
LINE
8
0
10
4.879
20
5.092
11
5.449
21
5.092
0
0
LINE
8
0
10
5.449
20
5.092
11
5.483
21
5.092
0
0
LINE
8
0
10
5.483
20
5.092
11
5.508
21
5.092
0
0
LINE
8
0
10
5.508
20
5.092
11
5.516
21
5.092
0
0
LINE
8
0
10
5.516
20
5.092
11
6.089
21
5.092
0
0
LINE
8
0
10
6.089
20
5.092
11
6.266
21
5.092
0
0
LINE
8
0
10
6.266
20
5.092
11
7.156
21
5.092
0
0
LINE
8
0
10
7.156
20
5.092
11
7.495
21
5.092
0
0
LINE
8
0
10
7.495
20
5.092
11
7.869
21
5.092
0
0
LINE
8
0
10
7.869
20
5.092
11
8.089
21
5.092
0
0
LINE
8
0
10
8.089
20
5.092
11
8.351
21
5.092
0
0
LINE
8
0
10
8.351
20
5.092
11
8.387
21
5.092
0
0
LINE
8
0
10
8.387
20
5.092
11
9.241
21
5.092
0
0
LINE
8
0
10
9.241
20
5.092
11
9.480
21
5.092
0
0
LINE
8
0
10
9.480
20
5.092
11
9.700
21
5.092
0
0
LINE
8
0
10
9.700
20
5.092
11
10.074
21
5.092
0
0
LINE
8
0
10
10.074
20
5.092
11
10.436
21
5.092
0
0
LINE
8
0
10
10.436
20
5.092
11
11.326
21
5.092
0
0
LINE
8
0
10
11.326
20
5.092
11
11.503
21
5.092
0
0
LINE
8
0
10
11.503
20
5.092
11
11.685
21
5.092
0
0
LINE
8
0
10
11.685
20
5.092
11
12.789
21
5.092
0
0
LINE
8
0
10
12.789
20
5.092
11
13.163
21
5.092
0
0
LINE
8
0
10
13.163
20
5.092
11
13.298
21
5.092
0
0
LINE
8
0
10
13.298
20
5.092
11
13.494
21
5.092
0
0
LINE
8
0
10
13.494
20
5.092
11
14.309
21
5.092
0
0
LINE
8
0
10
14.309
20
5.092
11
14.435
21
5.092
0
0
LINE
8
0
10
14.435
20
5.092
11
14.651
21
5.092
0
0
LINE
8
0
10
0.576
20
7.592
11
0.633
21
7.592
0
0
LINE
8
0
10
0.576
20
7.592
11
0.633
21
7.592
0
0
LINE
8
0
10
0.633
20
7.592
11
1.108
21
7.592
0
0
LINE
8
0
10
1.108
20
7.592
11
2.113
21
7.592
0
0
LINE
8
0
10
2.113
20
7.592
11
2.247
21
7.592
0
0
LINE
8
0
10
2.247
20
7.592
11
2.467
21
7.592
0
0
LINE
8
0
10
2.467
20
7.592
11
2.841
21
7.592
0
0
LINE
8
0
10
2.841
20
7.592
11
3.151
21
7.592
0
0
LINE
8
0
10
3.151
20
7.592
11
4.041
21
7.592
0
0
LINE
8
0
10
4.041
20
7.592
11
4.218
21
7.592
0
0
LINE
8
0
10
4.218
20
7.592
11
4.772
21
7.592
0
0
LINE
8
0
10
4.772
20
7.592
11
4.797
21
7.592
0
0
LINE
8
0
10
4.797
20
7.592
11
4.825
21
7.592
0
0
LINE
8
0
10
4.825
20
7.592
11
4.846
21
7.592
0
0
LINE
8
0
10
4.846
20
7.592
11
4.869
21
7.592
0
0
LINE
8
0
10
4.869
20
7.592
11
4.919
21
7.592
0
0
LINE
8
0
10
4.919
20
7.592
11
4.938
21
7.592
0
0
LINE
8
0
10
4.938
20
7.592
11
4.942
21
7.592
0
0
LINE
8
0
10
4.942
20
7.592
11
5.512
21
7.592
0
0
LINE
8
0
10
5.512
20
7.592
11
5.529
21
7.592
0
0
LINE
8
0
10
5.529
20
7.592
11
5.537
21
7.592
0
0
LINE
8
0
10
5.537
20
7.592
11
5.543
21
7.592
0
0
LINE
8
0
10
5.543
20
7.592
11
6.126
21
7.592
0
0
LINE
8
0
10
6.126
20
7.592
11
6.303
21
7.592
0
0
LINE
8
0
10
6.303
20
7.592
11
7.193
21
7.592
0
0
LINE
8
0
10
7.193
20
7.592
11
7.541
21
7.592
0
0
LINE
8
0
10
7.541
20
7.592
11
7.915
21
7.592
0
0
LINE
8
0
10
7.915
20
7.592
11
8.135
21
7.592
0
0
LINE
8
0
10
8.135
20
7.592
11
8.388
21
7.592
0
0
LINE
8
0
10
8.388
20
7.592
11
9.278
21
7.592
0
0
LINE
8
0
10
9.278
20
7.592
11
9.526
21
7.592
0
0
LINE
8
0
10
9.526
20
7.592
11
9.746
21
7.592
0
0
LINE
8
0
10
9.746
20
7.592
11
10.120
21
7.592
0
0
LINE
8
0
10
10.120
20
7.592
11
10.473
21
7.592
0
0
LINE
8
0
10
10.473
20
7.592
11
11.363
21
7.592
0
0
LINE
8
0
10
11.363
20
7.592
11
11.540
21
7.592
0
0
LINE
8
0
10
11.540
20
7.592
11
12.131
21
7.592
0
0
LINE
8
0
10
12.131
20
7.592
11
12.138
21
7.592
0
0
LINE
8
0
10
12.138
20
7.592
11
12.142
21
7.592
0
0
LINE
8
0
10
12.142
20
7.592
11
12.712
21
7.592
0
0
LINE
8
0
10
12.712
20
7.592
11
12.746
21
7.592
0
0
LINE
8
0
10
12.746
20
7.592
11
12.787
21
7.592
0
0
LINE
8
0
10
12.787
20
7.592
11
12.802
21
7.592
0
0
LINE
8
0
10
12.802
20
7.592
11
12.810
21
7.592
0
0
LINE
8
0
10
12.810
20
7.592
11
12.824
21
7.592
0
0
LINE
8
0
10
12.824
20
7.592
11
12.838
21
7.592
0
0
LINE
8
0
10
12.838
20
7.592
11
12.852
21
7.592
0
0
LINE
8
0
10
12.852
20
7.592
11
12.871
21
7.592
0
0
LINE
8
0
10
12.871
20
7.592
11
12.884
21
7.592
0
0
LINE
8
0
10
12.884
20
7.592
11
12.896
21
7.592
0
0
LINE
8
0
10
12.896
20
7.592
11
13.327
21
7.592
0
0
LINE
8
0
10
13.327
20
7.592
11
13.526
21
7.592
0
0
LINE
8
0
10
13.526
20
7.592
11
14.291
21
7.592
0
0
LINE
8
0
10
14.291
20
7.592
11
14.407
21
7.592
0
0
LINE
8
0
10
14.407
20
7.592
11
14.626
21
7.592
0
0
LINE
8
0
10
0.514
20
10.092
11
0.727
21
10.092
0
0
LINE
8
0
10
0.514
20
10.092
11
0.727
21
10.092
0
0
LINE
8
0
10
0.727
20
10.092
11
0.862
21
10.092
0
0
LINE
8
0
10
0.862
20
10.092
11
1.058
21
10.092
0
0
LINE
8
0
10
1.058
20
10.092
11
2.036
21
10.092
0
0
LINE
8
0
10
2.036
20
10.092
11
2.201
21
10.092
0
0
LINE
8
0
10
2.201
20
10.092
11
2.421
21
10.092
0
0
LINE
8
0
10
2.421
20
10.092
11
2.795
21
10.092
0
0
LINE
8
0
10
2.795
20
10.092
11
3.114
21
10.092
0
0
LINE
8
0
10
3.114
20
10.092
11
4.004
21
10.092
0
0
LINE
8
0
10
4.004
20
10.092
11
4.182
21
10.092
0
0
LINE
8
0
10
4.182
20
10.092
11
4.738
21
10.092
0
0
LINE
8
0
10
4.738
20
10.092
11
4.742
21
10.092
0
0
LINE
8
0
10
4.742
20
10.092
11
4.784
21
10.092
0
0
LINE
8
0
10
4.784
20
10.092
11
4.815
21
10.092
0
0
LINE
8
0
10
4.815
20
10.092
11
4.823
21
10.092
0
0
LINE
8
0
10
4.823
20
10.092
11
4.849
21
10.092
0
0
LINE
8
0
10
4.849
20
10.092
11
4.879
21
10.092
0
0
LINE
8
0
10
4.879
20
10.092
11
5.449
21
10.092
0
0
LINE
8
0
10
5.449
20
10.092
11
5.457
21
10.092
0
0
LINE
8
0
10
5.457
20
10.092
11
5.483
21
10.092
0
0
LINE
8
0
10
5.483
20
10.092
11
5.509
21
10.092
0
0
LINE
8
0
10
5.509
20
10.092
11
5.517
21
10.092
0
0
LINE
8
0
10
5.517
20
10.092
11
6.089
21
10.092
0
0
LINE
8
0
10
6.089
20
10.092
11
6.267
21
10.092
0
0
LINE
8
0
10
6.267
20
10.092
11
7.156
21
10.092
0
0
LINE
8
0
10
7.156
20
10.092
11
7.495
21
10.092
0
0
LINE
8
0
10
7.495
20
10.092
11
7.869
21
10.092
0
0
LINE
8
0
10
7.869
20
10.092
11
8.090
21
10.092
0
0
LINE
8
0
10
8.090
20
10.092
11
8.352
21
10.092
0
0
LINE
8
0
10
8.352
20
10.092
11
9.241
21
10.092
0
0
LINE
8
0
10
9.241
20
10.092
11
9.480
21
10.092
0
0
LINE
8
0
10
9.480
20
10.092
11
9.701
21
10.092
0
0
LINE
8
0
10
9.701
20
10.092
11
10.075
21
10.092
0
0
LINE
8
0
10
10.075
20
10.092
11
10.437
21
10.092
0
0
LINE
8
0
10
10.437
20
10.092
11
11.326
21
10.092
0
0
LINE
8
0
10
11.326
20
10.092
11
11.504
21
10.092
0
0
LINE
8
0
10
11.504
20
10.092
11
11.686
21
10.092
0
0
LINE
8
0
10
11.686
20
10.092
11
12.789
21
10.092
0
0
LINE
8
0
10
12.789
20
10.092
11
13.163
21
10.092
0
0
LINE
8
0
10
13.163
20
10.092
11
13.286
21
10.092
0
0
LINE
8
0
10
13.286
20
10.092
11
13.485
21
10.092
0
0
LINE
8
0
10
13.485
20
10.092
11
14.586
21
10.092
0
0
LINE
8
0
10
14.586
20
10.092
11
14.603
21
10.092
0
0
LINE
8
0
10
14.603
20
10.092
11
14.626
21
10.092
0
0
LINE
8
0
10
0.438
20
12.592
11
0.643
21
12.592
0
0
LINE
8
0
10
0.438
20
12.592
11
0.643
21
12.592
0
0
LINE
8
0
10
0.643
20
12.592
11
0.810
21
12.592
0
0
LINE
8
0
10
0.810
20
12.592
11
0.998
21
12.592
0
0
LINE
8
0
10
0.998
20
12.592
11
1.940
21
12.592
0
0
LINE
8
0
10
1.940
20
12.592
11
2.145
21
12.592
0
0
LINE
8
0
10
2.145
20
12.592
11
2.366
21
12.592
0
0
LINE
8
0
10
2.366
20
12.592
11
2.740
21
12.592
0
0
LINE
8
0
10
2.740
20
12.592
11
3.069
21
12.592
0
0
LINE
8
0
10
3.069
20
12.592
11
3.959
21
12.592
0
0
LINE
8
0
10
3.959
20
12.592
11
4.136
21
12.592
0
0
LINE
8
0
10
4.136
20
12.592
11
4.699
21
12.592
0
0
LINE
8
0
10
4.699
20
12.592
11
4.700
21
12.592
0
0
LINE
8
0
10
4.700
20
12.592
11
4.708
21
12.592
0
0
LINE
8
0
10
4.708
20
12.592
11
4.723
21
12.592
0
0
LINE
8
0
10
4.723
20
12.592
11
4.747
21
12.592
0
0
LINE
8
0
10
4.747
20
12.592
11
4.773
21
12.592
0
0
LINE
8
0
10
4.773
20
12.592
11
4.789
21
12.592
0
0
LINE
8
0
10
4.789
20
12.592
11
4.799
21
12.592
0
0
LINE
8
0
10
4.799
20
12.592
11
4.803
21
12.592
0
0
LINE
8
0
10
4.803
20
12.592
11
5.373
21
12.592
0
0
LINE
8
0
10
5.373
20
12.592
11
5.399
21
12.592
0
0
LINE
8
0
10
5.399
20
12.592
11
5.441
21
12.592
0
0
LINE
8
0
10
5.441
20
12.592
11
5.471
21
12.592
0
0
LINE
8
0
10
5.471
20
12.592
11
5.478
21
12.592
0
0
LINE
8
0
10
5.478
20
12.592
11
5.481
21
12.592
0
0
LINE
8
0
10
5.481
20
12.592
11
6.044
21
12.592
0
0
LINE
8
0
10
6.044
20
12.592
11
6.221
21
12.592
0
0
LINE
8
0
10
6.221
20
12.592
11
7.111
21
12.592
0
0
LINE
8
0
10
7.111
20
12.592
11
7.439
21
12.592
0
0
LINE
8
0
10
7.439
20
12.592
11
7.813
21
12.592
0
0
LINE
8
0
10
7.813
20
12.592
11
8.034
21
12.592
0
0
LINE
8
0
10
8.034
20
12.592
11
8.306
21
12.592
0
0
LINE
8
0
10
8.306
20
12.592
11
9.196
21
12.592
0
0
LINE
8
0
10
9.196
20
12.592
11
9.374
21
12.592
0
0
LINE
8
0
10
9.374
20
12.592
11
9.645
21
12.592
0
0
LINE
8
0
10
9.645
20
12.592
11
10.019
21
12.592
0
0
LINE
8
0
10
10.019
20
12.592
11
10.391
21
12.592
0
0
LINE
8
0
10
10.391
20
12.592
11
11.281
21
12.592
0
0
LINE
8
0
10
11.281
20
12.592
11
11.459
21
12.592
0
0
LINE
8
0
10
11.459
20
12.592
11
11.630
21
12.592
0
0
LINE
8
0
10
11.630
20
12.592
11
12.733
21
12.592
0
0
LINE
8
0
10
12.733
20
12.592
11
13.107
21
12.592
0
0
LINE
8
0
10
13.107
20
12.592
11
13.235
21
12.592
0
0
LINE
8
0
10
13.235
20
12.592
11
13.434
21
12.592
0
0
LINE
8
0
10
13.434
20
12.592
11
14.291
21
12.592
0
0
LINE
8
0
10
14.291
20
12.592
11
14.407
21
12.592
0
0
LINE
8
0
10
14.407
20
12.592
11
14.626
21
12.592
0
0
ENDSEC
0
EOF
