0
SECTION
2
ENTITIES
0
LINE
8
0
10
2.345
20
0.433
11
7.227
21
0.582
0
0
LINE
8
0
10
7.227
20
0.582
11
13.032
21
0.447
0
0
LINE
8
0
10
13.032
20
0.447
11
13.980
21
0.611
0
0
LINE
8
0
10
13.980
20
0.611
11
14.384
21
0.866
0
0
LINE
8
0
10
14.384
20
0.866
11
14.644
21
1.434
0
0
LINE
8
0
10
14.644
20
1.434
11
14.747
21
2.386
0
0
LINE
8
0
10
14.747
20
2.386
11
14.598
21
14.613
0
0
LINE
8
0
10
14.598
20
14.613
11
2.226
21
14.753
0
0
LINE
8
0
10
2.226
20
14.753
11
1.387
21
14.648
0
0
LINE
8
0
10
1.387
20
14.648
11
0.840
21
14.357
0
0
LINE
8
0
10
0.840
20
14.357
11
0.549
21
13.796
0
0
LINE
8
0
10
0.549
20
13.796
11
0.436
21
12.713
0
0
LINE
8
0
10
0.436
20
12.713
11
0.581
21
7.762
0
0
LINE
8
0
10
0.581
20
7.762
11
0.457
21
2.087
0
0
LINE
8
0
10
0.457
20
2.087
11
0.807
21
0.857
0
0
LINE
8
0
10
0.807
20
0.857
11
1.295
21
0.569
0
0
LINE
8
0
10
1.295
20
0.569
11
2.345
21
0.433
0
0
LINE
8
0
10
2.345
20
0.433
11
2.345
21
0.433
0
0
LINE
8
0
10
2.345
20
0.433
11
7.227
21
0.582
0
0
LINE
8
0
10
7.227
20
0.582
11
13.032
21
0.447
0
0
LINE
8
0
10
13.032
20
0.447
11
13.980
21
0.611
0
0
LINE
8
0
10
13.980
20
0.611
11
14.384
21
0.866
0
0
LINE
8
0
10
14.384
20
0.866
11
14.644
21
1.434
0
0
LINE
8
0
10
14.644
20
1.434
11
14.747
21
2.386
0
0
LINE
8
0
10
14.747
20
2.386
11
14.598
21
14.613
0
0
LINE
8
0
10
14.598
20
14.613
11
2.226
21
14.753
0
0
LINE
8
0
10
2.226
20
14.753
11
1.387
21
14.648
0
0
LINE
8
0
10
1.387
20
14.648
11
0.840
21
14.357
0
0
LINE
8
0
10
0.840
20
14.357
11
0.549
21
13.796
0
0
LINE
8
0
10
0.549
20
13.796
11
0.436
21
12.713
0
0
LINE
8
0
10
0.436
20
12.713
11
0.581
21
7.762
0
0
LINE
8
0
10
0.581
20
7.762
11
0.457
21
2.087
0
0
LINE
8
0
10
0.457
20
2.087
11
0.807
21
0.857
0
0
LINE
8
0
10
0.807
20
0.857
11
1.295
21
0.569
0
0
LINE
8
0
10
1.295
20
0.569
11
2.345
21
0.433
0
0
LINE
8
0
10
2.345
20
0.433
11
2.345
21
0.433
0
0
LINE
8
0
10
2.593
20
0.950
11
2.593
21
1.230
0
0
LINE
8
0
10
2.593
20
0.950
11
2.593
21
1.230
0
0
LINE
8
0
10
2.593
20
1.230
11
2.593
21
2.023
0
0
LINE
8
0
10
2.593
20
2.750
11
2.593
21
2.994
0
0
LINE
8
0
10
2.593
20
2.994
11
2.593
21
3.823
0
0
LINE
8
0
10
2.593
20
4.551
11
2.593
21
5.136
0
0
LINE
8
0
10
2.593
20
5.136
11
2.593
21
5.623
0
0
LINE
8
0
10
2.593
20
6.350
11
2.593
21
6.578
0
0
LINE
8
0
10
2.593
20
6.578
11
2.593
21
7.423
0
0
LINE
8
0
10
2.593
20
8.150
11
2.593
21
8.151
0
0
LINE
8
0
10
2.593
20
8.151
11
2.593
21
8.954
0
0
LINE
8
0
10
2.593
20
8.954
11
2.593
21
9.223
0
0
LINE
8
0
10
2.593
20
9.223
11
2.593
21
9.224
0
0
LINE
8
0
10
2.593
20
9.950
11
2.593
21
10.576
0
0
LINE
8
0
10
2.593
20
10.576
11
2.593
21
11.023
0
0
LINE
8
0
10
2.593
20
11.750
11
2.593
21
12.263
0
0
LINE
8
0
10
2.593
20
12.263
11
2.593
21
12.823
0
0
LINE
8
0
10
2.593
20
13.550
11
2.593
21
14.039
0
0
LINE
8
0
10
2.593
20
14.039
11
2.593
21
14.098
0
0
LINE
8
0
10
2.593
20
14.098
11
2.593
21
14.099
0
0
LINE
8
0
10
5.093
20
1.029
11
5.093
21
1.207
0
0
LINE
8
0
10
5.093
20
1.029
11
5.093
21
1.207
0
0
LINE
8
0
10
5.093
20
1.207
11
5.093
21
2.103
0
0
LINE
8
0
10
5.093
20
2.829
11
5.093
21
3.303
0
0
LINE
8
0
10
5.093
20
3.303
11
5.093
21
3.902
0
0
LINE
8
0
10
5.093
20
4.630
11
5.093
21
5.117
0
0
LINE
8
0
10
5.093
20
5.117
11
5.093
21
5.702
0
0
LINE
8
0
10
5.093
20
6.429
11
5.093
21
6.678
0
0
LINE
8
0
10
5.093
20
6.678
11
5.093
21
6.679
0
0
LINE
8
0
10
5.093
20
6.679
11
5.093
21
7.503
0
0
LINE
8
0
10
5.093
20
8.229
11
5.093
21
8.728
0
0
LINE
8
0
10
5.093
20
8.728
11
5.093
21
9.303
0
0
LINE
8
0
10
5.093
20
10.030
11
5.093
21
10.633
0
0
LINE
8
0
10
5.093
20
10.633
11
5.093
21
11.102
0
0
LINE
8
0
10
5.093
20
11.829
11
5.093
21
12.415
0
0
LINE
8
0
10
5.093
20
12.415
11
5.093
21
12.902
0
0
LINE
8
0
10
5.093
20
13.628
11
5.093
21
13.644
0
0
LINE
8
0
10
5.093
20
13.644
11
5.093
21
14.113
0
0
LINE
8
0
10
7.593
20
1.088
11
7.593
21
1.673
0
0
LINE
8
0
10
7.593
20
1.088
11
7.593
21
1.673
0
0
LINE
8
0
10
7.593
20
1.673
11
7.593
21
2.162
0
0
LINE
8
0
10
7.593
20
2.888
11
7.593
21
3.808
0
0
LINE
8
0
10
7.593
20
3.808
11
7.593
21
3.961
0
0
LINE
8
0
10
7.593
20
4.688
11
7.593
21
5.176
0
0
LINE
8
0
10
7.593
20
5.176
11
7.593
21
5.761
0
0
LINE
8
0
10
7.593
20
6.488
11
7.593
21
6.494
0
0
LINE
8
0
10
7.593
20
6.494
11
7.593
21
7.561
0
0
LINE
8
0
10
7.593
20
8.287
11
7.593
21
8.737
0
0
LINE
8
0
10
7.593
20
8.737
11
7.593
21
9.361
0
0
LINE
8
0
10
7.593
20
10.088
11
7.593
21
10.088
0
0
LINE
8
0
10
7.593
20
10.088
11
7.593
21
10.734
0
0
LINE
8
0
10
7.593
20
10.734
11
7.593
21
11.162
0
0
LINE
8
0
10
7.593
20
11.888
11
7.593
21
12.473
0
0
LINE
8
0
10
7.593
20
12.473
11
7.593
21
12.961
0
0
LINE
8
0
10
7.593
20
13.687
11
7.593
21
13.721
0
0
LINE
8
0
10
7.593
20
13.721
11
7.593
21
14.138
0
0
LINE
8
0
10
10.093
20
1.028
11
10.093
21
1.208
0
0
LINE
8
0
10
10.093
20
1.028
11
10.093
21
1.208
0
0
LINE
8
0
10
10.093
20
1.208
11
10.093
21
2.102
0
0
LINE
8
0
10
10.093
20
2.829
11
10.093
21
3.423
0
0
LINE
8
0
10
10.093
20
3.423
11
10.093
21
3.902
0
0
LINE
8
0
10
10.093
20
4.628
11
10.093
21
5.117
0
0
LINE
8
0
10
10.093
20
5.117
11
10.093
21
5.702
0
0
LINE
8
0
10
10.093
20
6.428
11
10.093
21
6.678
0
0
LINE
8
0
10
10.093
20
6.678
11
10.093
21
7.502
0
0
LINE
8
0
10
10.093
20
8.228
11
10.093
21
8.728
0
0
LINE
8
0
10
10.093
20
8.728
11
10.093
21
9.302
0
0
LINE
8
0
10
10.093
20
10.028
11
10.093
21
10.967
0
0
LINE
8
0
10
10.093
20
10.967
11
10.093
21
10.969
0
0
LINE
8
0
10
10.093
20
10.969
11
10.093
21
11.102
0
0
LINE
8
0
10
10.093
20
11.829
11
10.093
21
12.414
0
0
LINE
8
0
10
10.093
20
12.414
11
10.093
21
12.902
0
0
LINE
8
0
10
10.093
20
13.628
11
10.093
21
13.646
0
0
LINE
8
0
10
10.093
20
13.646
11
10.093
21
14.103
0
0
LINE
8
0
10
12.593
20
0.968
11
12.593
21
1.226
0
0
LINE
8
0
10
12.593
20
0.968
11
12.593
21
1.226
0
0
LINE
8
0
10
12.593
20
1.226
11
12.593
21
2.042
0
0
LINE
8
0
10
12.593
20
2.768
11
12.593
21
3.174
0
0
LINE
8
0
10
12.593
20
3.174
11
12.593
21
3.841
0
0
LINE
8
0
10
12.593
20
4.569
11
12.593
21
5.056
0
0
LINE
8
0
10
12.593
20
5.056
11
12.593
21
5.641
0
0
LINE
8
0
10
12.593
20
6.369
11
12.593
21
6.856
0
0
LINE
8
0
10
12.593
20
6.856
11
12.593
21
7.441
0
0
LINE
8
0
10
12.593
20
8.168
11
12.593
21
8.169
0
0
LINE
8
0
10
12.593
20
8.169
11
12.593
21
8.792
0
0
LINE
8
0
10
12.593
20
8.792
11
12.593
21
9.242
0
0
LINE
8
0
10
12.593
20
9.968
11
12.593
21
10.512
0
0
LINE
8
0
10
12.593
20
10.512
11
12.593
21
11.041
0
0
LINE
8
0
10
12.593
20
11.768
11
12.593
21
12.354
0
0
LINE
8
0
10
12.593
20
12.354
11
12.593
21
12.841
0
0
LINE
8
0
10
12.593
20
13.568
11
12.593
21
13.670
0
0
LINE
8
0
10
12.593
20
13.670
11
12.593
21
14.068
0
0
LINE
8
0
10
1.083
20
2.592
11
1.087
21
2.592
0
0
LINE
8
0
10
1.083
20
2.592
11
1.087
21
2.592
0
0
LINE
8
0
10
1.087
20
2.592
11
1.144
21
2.592
0
0
LINE
8
0
10
1.144
20
2.592
11
1.625
21
2.592
0
0
LINE
8
0
10
2.353
20
2.592
11
2.841
21
2.592
0
0
LINE
8
0
10
2.841
20
2.592
11
3.425
21
2.592
0
0
LINE
8
0
10
4.152
20
2.592
11
4.470
21
2.592
0
0
LINE
8
0
10
4.470
20
2.592
11
5.226
21
2.592
0
0
LINE
8
0
10
5.952
20
2.592
11
6.231
21
2.592
0
0
LINE
8
0
10
6.231
20
2.592
11
7.026
21
2.592
0
0
LINE
8
0
10
7.753
20
2.592
11
8.241
21
2.592
0
0
LINE
8
0
10
8.241
20
2.592
11
8.825
21
2.592
0
0
LINE
8
0
10
9.553
20
2.592
11
10.137
21
2.592
0
0
LINE
8
0
10
10.137
20
2.592
11
10.626
21
2.592
0
0
LINE
8
0
10
11.352
20
2.592
11
11.736
21
2.592
0
0
LINE
8
0
10
11.736
20
2.592
11
12.425
21
2.592
0
0
LINE
8
0
10
12.425
20
2.592
11
12.426
21
2.592
0
0
LINE
8
0
10
13.152
20
2.592
11
13.515
21
2.592
0
0
LINE
8
0
10
13.515
20
2.592
11
14.226
21
2.592
0
0
LINE
8
0
10
1.053
20
5.092
11
1.140
21
5.092
0
0
LINE
8
0
10
1.053
20
5.092
11
1.140
21
5.092
0
0
LINE
8
0
10
1.140
20
5.092
11
1.538
21
5.092
0
0
LINE
8
0
10
2.264
20
5.092
11
2.752
21
5.092
0
0
LINE
8
0
10
2.752
20
5.092
11
3.337
21
5.092
0
0
LINE
8
0
10
4.064
20
5.092
11
4.132
21
5.092
0
0
LINE
8
0
10
4.132
20
5.092
11
5.138
21
5.092
0
0
LINE
8
0
10
5.864
20
5.092
11
6.241
21
5.092
0
0
LINE
8
0
10
6.241
20
5.092
11
6.938
21
5.092
0
0
LINE
8
0
10
7.664
20
5.092
11
7.906
21
5.092
0
0
LINE
8
0
10
7.906
20
5.092
11
8.523
21
5.092
0
0
LINE
8
0
10
8.523
20
5.092
11
8.738
21
5.092
0
0
LINE
8
0
10
9.464
20
5.092
11
10.050
21
5.092
0
0
LINE
8
0
10
10.050
20
5.092
11
10.537
21
5.092
0
0
LINE
8
0
10
11.264
20
5.092
11
11.417
21
5.092
0
0
LINE
8
0
10
11.417
20
5.092
11
12.338
21
5.092
0
0
LINE
8
0
10
13.065
20
5.092
11
13.553
21
5.092
0
0
LINE
8
0
10
13.553
20
5.092
11
14.137
21
5.092
0
0
LINE
8
0
10
1.063
20
7.592
11
1.138
21
7.592
0
0
LINE
8
0
10
1.063
20
7.592
11
1.138
21
7.592
0
0
LINE
8
0
10
1.138
20
7.592
11
1.512
21
7.592
0
0
LINE
8
0
10
2.240
20
7.592
11
2.728
21
7.592
0
0
LINE
8
0
10
2.728
20
7.592
11
3.312
21
7.592
0
0
LINE
8
0
10
4.039
20
7.592
11
4.055
21
7.592
0
0
LINE
8
0
10
4.055
20
7.592
11
4.057
21
7.592
0
0
LINE
8
0
10
4.057
20
7.592
11
5.112
21
7.592
0
0
LINE
8
0
10
5.839
20
7.592
11
6.202
21
7.592
0
0
LINE
8
0
10
6.202
20
7.592
11
6.912
21
7.592
0
0
LINE
8
0
10
7.639
20
7.592
11
7.903
21
7.592
0
0
LINE
8
0
10
7.903
20
7.592
11
8.514
21
7.592
0
0
LINE
8
0
10
8.514
20
7.592
11
8.713
21
7.592
0
0
LINE
8
0
10
9.440
20
7.592
11
9.928
21
7.592
0
0
LINE
8
0
10
9.928
20
7.592
11
10.512
21
7.592
0
0
LINE
8
0
10
11.239
20
7.592
11
11.365
21
7.592
0
0
LINE
8
0
10
11.365
20
7.592
11
12.312
21
7.592
0
0
LINE
8
0
10
13.039
20
7.592
11
13.084
21
7.592
0
0
LINE
8
0
10
13.084
20
7.592
11
13.670
21
7.592
0
0
LINE
8
0
10
13.670
20
7.592
11
14.113
21
7.592
0
0
LINE
8
0
10
1.040
20
10.092
11
1.512
21
10.092
0
0
LINE
8
0
10
1.040
20
10.092
11
1.512
21
10.092
0
0
LINE
8
0
10
2.240
20
10.092
11
2.728
21
10.092
0
0
LINE
8
0
10
2.728
20
10.092
11
3.312
21
10.092
0
0
LINE
8
0
10
4.039
20
10.092
11
4.055
21
10.092
0
0
LINE
8
0
10
4.055
20
10.092
11
4.057
21
10.092
0
0
LINE
8
0
10
4.057
20
10.092
11
5.112
21
10.092
0
0
LINE
8
0
10
5.839
20
10.092
11
6.202
21
10.092
0
0
LINE
8
0
10
6.202
20
10.092
11
6.912
21
10.092
0
0
LINE
8
0
10
7.639
20
10.092
11
7.903
21
10.092
0
0
LINE
8
0
10
7.903
20
10.092
11
8.514
21
10.092
0
0
LINE
8
0
10
8.514
20
10.092
11
8.713
21
10.092
0
0
LINE
8
0
10
9.440
20
10.092
11
9.928
21
10.092
0
0
LINE
8
0
10
9.928
20
10.092
11
10.512
21
10.092
0
0
LINE
8
0
10
11.239
20
10.092
11
11.365
21
10.092
0
0
LINE
8
0
10
11.365
20
10.092
11
12.312
21
10.092
0
0
LINE
8
0
10
13.039
20
10.092
11
13.084
21
10.092
0
0
LINE
8
0
10
13.084
20
10.092
11
13.670
21
10.092
0
0
LINE
8
0
10
13.670
20
10.092
11
14.113
21
10.092
0
0
LINE
8
0
10
1.010
20
12.592
11
1.512
21
12.592
0
0
LINE
8
0
10
1.010
20
12.592
11
1.512
21
12.592
0
0
LINE
8
0
10
2.240
20
12.592
11
2.728
21
12.592
0
0
LINE
8
0
10
2.728
20
12.592
11
3.312
21
12.592
0
0
LINE
8
0
10
4.039
20
12.592
11
4.055
21
12.592
0
0
LINE
8
0
10
4.055
20
12.592
11
4.057
21
12.592
0
0
LINE
8
0
10
4.057
20
12.592
11
5.112
21
12.592
0
0
LINE
8
0
10
5.839
20
12.592
11
6.202
21
12.592
0
0
LINE
8
0
10
6.202
20
12.592
11
6.912
21
12.592
0
0
LINE
8
0
10
7.639
20
12.592
11
7.903
21
12.592
0
0
LINE
8
0
10
7.903
20
12.592
11
8.514
21
12.592
0
0
LINE
8
0
10
8.514
20
12.592
11
8.713
21
12.592
0
0
LINE
8
0
10
9.440
20
12.592
11
9.928
21
12.592
0
0
LINE
8
0
10
9.928
20
12.592
11
10.512
21
12.592
0
0
LINE
8
0
10
11.239
20
12.592
11
11.365
21
12.592
0
0
LINE
8
0
10
11.365
20
12.592
11
12.312
21
12.592
0
0
LINE
8
0
10
13.039
20
12.592
11
13.084
21
12.592
0
0
LINE
8
0
10
13.084
20
12.592
11
13.670
21
12.592
0
0
LINE
8
0
10
13.670
20
12.592
11
14.113
21
12.592
0
0
ENDSEC
0
EOF
