0
SECTION
2
ENTITIES
0
LINE
8
0
10
2.387
20
0.431
11
1.434
21
0.537
0
0
LINE
8
0
10
1.434
20
0.537
11
0.807
21
0.857
0
0
LINE
8
0
10
0.807
20
0.857
11
0.544
21
1.421
0
0
LINE
8
0
10
0.544
20
1.421
11
0.461
21
3.026
0
0
LINE
8
0
10
0.461
20
3.026
11
2.387
21
0.431
0
0
LINE
8
0
10
2.387
20
0.431
11
1.434
21
0.537
0
0
LINE
8
0
10
1.434
20
0.537
11
0.807
21
0.857
0
0
LINE
8
0
10
0.807
20
0.857
11
0.544
21
1.421
0
0
LINE
8
0
10
0.544
20
1.421
11
0.461
21
3.026
0
0
LINE
8
0
10
0.461
20
3.026
11
2.387
21
0.431
0
0
LINE
8
0
10
0.463
20
3.099
11
0.538
21
6.054
0
0
LINE
8
0
10
0.542
20
6.211
11
0.578
21
8.025
0
0
LINE
8
0
10
0.568
20
8.346
11
0.456
21
13.202
0
0
LINE
8
0
10
0.530
20
13.701
11
0.982
21
14.472
0
0
LINE
8
0
10
0.982
20
14.472
11
1.829
21
14.723
0
0
LINE
8
0
10
1.829
20
14.723
11
0.530
21
13.701
0
0
LINE
8
0
10
1.980
20
14.735
11
4.934
21
14.660
0
0
LINE
8
0
10
4.934
20
14.660
11
4.934
21
14.660
0
0
LINE
8
0
10
4.934
20
14.660
11
4.934
21
14.660
0
0
LINE
8
0
10
5.011
20
14.657
11
5.955
21
14.625
0
0
LINE
8
0
10
5.955
20
14.625
11
5.993
21
14.625
0
0
LINE
8
0
10
5.993
20
14.625
11
6.826
21
14.626
0
0
LINE
8
0
10
7.226
20
14.627
11
12.192
21
14.634
0
0
LINE
8
0
10
12.511
20
14.635
11
14.326
21
14.637
0
0
LINE
8
0
10
14.556
20
14.638
11
14.626
21
9.918
0
0
LINE
8
0
10
14.626
20
9.390
11
14.675
21
4.421
0
0
LINE
8
0
10
14.681
20
4.254
11
14.745
21
2.441
0
0
LINE
8
0
10
14.733
20
2.132
11
14.593
21
1.229
0
0
LINE
8
0
10
14.593
20
1.229
11
14.301
21
0.789
0
0
LINE
8
0
10
14.301
20
0.789
11
13.841
21
0.561
0
0
LINE
8
0
10
13.841
20
0.561
11
13.023
21
0.445
0
0
LINE
8
0
10
13.023
20
0.445
11
14.733
21
2.132
0
0
LINE
8
0
10
13.023
20
0.445
11
13.022
21
0.445
0
0
LINE
8
0
10
13.022
20
0.445
11
11.033
21
0.492
0
0
LINE
8
0
10
10.447
20
0.506
11
5.536
21
0.530
0
0
LINE
8
0
10
5.448
20
0.527
11
3.634
21
0.470
0
0
LINE
8
0
10
3.246
20
0.458
11
2.437
21
0.432
0
0
LINE
8
0
10
2.437
20
0.432
11
2.387
21
0.431
0
0
LINE
8
0
10
2.593
20
0.437
11
2.593
21
0.482
0
0
LINE
8
0
10
2.593
20
0.437
11
2.593
21
0.482
0
0
LINE
8
0
10
2.593
20
0.482
11
2.593
21
0.769
0
0
LINE
8
0
10
2.593
20
0.769
11
2.593
21
2.201
0
0
LINE
8
0
10
2.593
20
2.201
11
2.593
21
2.226
0
0
LINE
8
0
10
2.593
20
2.226
11
2.593
21
2.516
0
0
LINE
8
0
10
2.593
20
2.516
11
2.593
21
2.562
0
0
LINE
8
0
10
2.593
20
2.562
11
2.593
21
2.602
0
0
LINE
8
0
10
2.593
20
2.602
11
2.593
21
4.027
0
0
LINE
8
0
10
2.593
20
4.027
11
2.593
21
4.312
0
0
LINE
8
0
10
2.593
20
4.312
11
2.593
21
4.381
0
0
LINE
8
0
10
2.593
20
4.381
11
2.593
21
4.386
0
0
LINE
8
0
10
2.593
20
4.386
11
2.593
21
4.387
0
0
LINE
8
0
10
2.593
20
4.387
11
2.593
21
4.390
0
0
LINE
8
0
10
2.593
20
4.390
11
2.593
21
4.393
0
0
LINE
8
0
10
2.593
20
4.393
11
2.593
21
4.394
0
0
LINE
8
0
10
2.593
20
4.394
11
2.593
21
5.780
0
0
LINE
8
0
10
2.593
20
5.780
11
2.593
21
5.784
0
0
LINE
8
0
10
2.593
20
5.784
11
2.593
21
5.788
0
0
LINE
8
0
10
2.593
20
5.788
11
2.593
21
5.791
0
0
LINE
8
0
10
2.593
20
5.791
11
2.593
21
5.793
0
0
LINE
8
0
10
2.593
20
5.793
11
2.593
21
5.862
0
0
LINE
8
0
10
2.593
20
5.862
11
2.593
21
6.147
0
0
LINE
8
0
10
2.593
20
6.147
11
2.593
21
7.573
0
0
LINE
8
0
10
2.593
20
7.573
11
2.593
21
7.613
0
0
LINE
8
0
10
2.593
20
7.613
11
2.593
21
7.658
0
0
LINE
8
0
10
2.593
20
7.658
11
2.593
21
7.850
0
0
LINE
8
0
10
2.593
20
7.850
11
2.593
21
7.949
0
0
LINE
8
0
10
2.593
20
7.949
11
2.593
21
7.982
0
0
LINE
8
0
10
2.593
20
7.982
11
2.593
21
9.407
0
0
LINE
8
0
10
2.593
20
9.407
11
2.593
21
9.693
0
0
LINE
8
0
10
2.593
20
9.693
11
2.593
21
9.726
0
0
LINE
8
0
10
2.593
20
9.726
11
2.593
21
9.771
0
0
LINE
8
0
10
2.593
20
9.771
11
2.593
21
9.817
0
0
LINE
8
0
10
2.593
20
9.817
11
2.593
21
11.242
0
0
LINE
8
0
10
2.593
20
11.242
11
2.593
21
11.527
0
0
LINE
8
0
10
2.593
20
11.527
11
2.593
21
11.548
0
0
LINE
8
0
10
2.593
20
11.548
11
2.593
21
13.000
0
0
LINE
8
0
10
2.593
20
13.000
11
2.593
21
13.045
0
0
LINE
8
0
10
2.593
20
13.045
11
2.593
21
13.069
0
0
LINE
8
0
10
2.593
20
13.069
11
2.593
21
13.355
0
0
LINE
8
0
10
2.593
20
13.355
11
2.593
21
14.697
0
0
LINE
8
0
10
2.593
20
14.697
11
2.593
21
14.742
0
0
LINE
8
0
10
5.093
20
0.516
11
5.093
21
0.733
0
0
LINE
8
0
10
5.093
20
0.516
11
5.093
21
0.733
0
0
LINE
8
0
10
5.093
20
0.733
11
5.093
21
0.780
0
0
LINE
8
0
10
5.093
20
0.780
11
5.093
21
0.846
0
0
LINE
8
0
10
5.093
20
0.846
11
5.093
21
2.282
0
0
LINE
8
0
10
5.093
20
2.282
11
5.093
21
2.302
0
0
LINE
8
0
10
5.093
20
2.302
11
5.093
21
2.592
0
0
LINE
8
0
10
5.093
20
2.592
11
5.093
21
2.638
0
0
LINE
8
0
10
5.093
20
2.638
11
5.093
21
2.677
0
0
LINE
8
0
10
5.093
20
2.677
11
5.093
21
4.102
0
0
LINE
8
0
10
5.093
20
4.102
11
5.093
21
4.388
0
0
LINE
8
0
10
5.093
20
4.388
11
5.093
21
4.455
0
0
LINE
8
0
10
5.093
20
4.455
11
5.093
21
4.458
0
0
LINE
8
0
10
5.093
20
4.458
11
5.093
21
4.461
0
0
LINE
8
0
10
5.093
20
4.461
11
5.093
21
4.465
0
0
LINE
8
0
10
5.093
20
4.465
11
5.093
21
4.466
0
0
LINE
8
0
10
5.093
20
4.466
11
5.093
21
4.469
0
0
LINE
8
0
10
5.093
20
4.469
11
5.093
21
4.472
0
0
LINE
8
0
10
5.093
20
4.472
11
5.093
21
4.473
0
0
LINE
8
0
10
5.093
20
4.473
11
5.093
21
5.859
0
0
LINE
8
0
10
5.093
20
5.859
11
5.093
21
5.863
0
0
LINE
8
0
10
5.093
20
5.863
11
5.093
21
5.867
0
0
LINE
8
0
10
5.093
20
5.867
11
5.093
21
5.937
0
0
LINE
8
0
10
5.093
20
5.937
11
5.093
21
6.222
0
0
LINE
8
0
10
5.093
20
6.222
11
5.093
21
7.648
0
0
LINE
8
0
10
5.093
20
7.648
11
5.093
21
7.689
0
0
LINE
8
0
10
5.093
20
7.689
11
5.093
21
7.735
0
0
LINE
8
0
10
5.093
20
7.735
11
5.093
21
7.850
0
0
LINE
8
0
10
5.093
20
7.850
11
5.093
21
8.025
0
0
LINE
8
0
10
5.093
20
8.025
11
5.093
21
8.057
0
0
LINE
8
0
10
5.093
20
8.057
11
5.093
21
9.483
0
0
LINE
8
0
10
5.093
20
9.483
11
5.093
21
9.512
0
0
LINE
8
0
10
5.093
20
9.512
11
5.093
21
9.802
0
0
LINE
8
0
10
5.093
20
9.802
11
5.093
21
9.848
0
0
LINE
8
0
10
5.093
20
9.848
11
5.093
21
9.892
0
0
LINE
8
0
10
5.093
20
9.892
11
5.093
21
11.317
0
0
LINE
8
0
10
5.093
20
11.317
11
5.093
21
11.602
0
0
LINE
8
0
10
5.093
20
11.602
11
5.093
21
11.625
0
0
LINE
8
0
10
5.093
20
11.625
11
5.093
21
13.076
0
0
LINE
8
0
10
5.093
20
13.076
11
5.093
21
13.122
0
0
LINE
8
0
10
5.093
20
13.122
11
5.093
21
13.139
0
0
LINE
8
0
10
5.093
20
13.139
11
5.093
21
13.426
0
0
LINE
8
0
10
5.093
20
13.426
11
5.093
21
14.613
0
0
LINE
8
0
10
5.093
20
14.613
11
5.093
21
14.655
0
0
LINE
8
0
10
7.593
20
0.574
11
7.593
21
0.614
0
0
LINE
8
0
10
7.593
20
0.574
11
7.593
21
0.614
0
0
LINE
8
0
10
7.593
20
0.614
11
7.593
21
0.615
0
0
LINE
8
0
10
7.593
20
0.615
11
7.593
21
0.903
0
0
LINE
8
0
10
7.593
20
0.903
11
7.593
21
2.343
0
0
LINE
8
0
10
7.593
20
2.343
11
7.593
21
2.359
0
0
LINE
8
0
10
7.593
20
2.359
11
7.593
21
2.650
0
0
LINE
8
0
10
7.593
20
2.650
11
7.593
21
2.695
0
0
LINE
8
0
10
7.593
20
2.695
11
7.593
21
2.733
0
0
LINE
8
0
10
7.593
20
2.733
11
7.593
21
4.158
0
0
LINE
8
0
10
7.593
20
4.158
11
7.593
21
4.444
0
0
LINE
8
0
10
7.593
20
4.444
11
7.593
21
4.511
0
0
LINE
8
0
10
7.593
20
4.511
11
7.593
21
4.514
0
0
LINE
8
0
10
7.593
20
4.514
11
7.593
21
4.517
0
0
LINE
8
0
10
7.593
20
4.517
11
7.593
21
4.519
0
0
LINE
8
0
10
7.593
20
4.519
11
7.593
21
4.523
0
0
LINE
8
0
10
7.593
20
4.523
11
7.593
21
4.526
0
0
LINE
8
0
10
7.593
20
4.526
11
7.593
21
4.530
0
0
LINE
8
0
10
7.593
20
4.530
11
7.593
21
4.531
0
0
LINE
8
0
10
7.593
20
4.531
11
7.593
21
4.532
0
0
LINE
8
0
10
7.593
20
4.532
11
7.593
21
5.918
0
0
LINE
8
0
10
7.593
20
5.918
11
7.593
21
5.920
0
0
LINE
8
0
10
7.593
20
5.920
11
7.593
21
5.922
0
0
LINE
8
0
10
7.593
20
5.922
11
7.593
21
5.993
0
0
LINE
8
0
10
7.593
20
5.993
11
7.593
21
6.278
0
0
LINE
8
0
10
7.593
20
6.278
11
7.593
21
7.704
0
0
LINE
8
0
10
7.593
20
7.704
11
7.593
21
7.746
0
0
LINE
8
0
10
7.593
20
7.746
11
7.593
21
7.792
0
0
LINE
8
0
10
7.593
20
7.792
11
7.593
21
7.850
0
0
LINE
8
0
10
7.593
20
7.850
11
7.593
21
8.082
0
0
LINE
8
0
10
7.593
20
8.082
11
7.593
21
8.113
0
0
LINE
8
0
10
7.593
20
8.113
11
7.593
21
9.539
0
0
LINE
8
0
10
7.593
20
9.539
11
7.593
21
9.569
0
0
LINE
8
0
10
7.593
20
9.569
11
7.593
21
9.859
0
0
LINE
8
0
10
7.593
20
9.859
11
7.593
21
9.905
0
0
LINE
8
0
10
7.593
20
9.905
11
7.593
21
9.948
0
0
LINE
8
0
10
7.593
20
9.948
11
7.593
21
11.373
0
0
LINE
8
0
10
7.593
20
11.373
11
7.593
21
11.658
0
0
LINE
8
0
10
7.593
20
11.658
11
7.593
21
11.731
0
0
LINE
8
0
10
7.593
20
11.731
11
7.593
21
11.732
0
0
LINE
8
0
10
7.593
20
11.732
11
7.593
21
13.118
0
0
LINE
8
0
10
7.593
20
13.118
11
7.593
21
13.122
0
0
LINE
8
0
10
7.593
20
13.122
11
7.593
21
13.127
0
0
LINE
8
0
10
7.593
20
13.127
11
7.593
21
13.129
0
0
LINE
8
0
10
7.593
20
13.129
11
7.593
21
13.130
0
0
LINE
8
0
10
7.593
20
13.130
11
7.593
21
13.132
0
0
LINE
8
0
10
7.593
20
13.132
11
7.593
21
13.134
0
0
LINE
8
0
10
7.593
20
13.134
11
7.593
21
13.135
0
0
LINE
8
0
10
7.593
20
13.135
11
7.593
21
13.138
0
0
LINE
8
0
10
7.593
20
13.138
11
7.593
21
13.139
0
0
LINE
8
0
10
7.593
20
13.139
11
7.593
21
13.141
0
0
LINE
8
0
10
7.593
20
13.141
11
7.593
21
13.194
0
0
LINE
8
0
10
7.593
20
13.194
11
7.593
21
13.481
0
0
LINE
8
0
10
7.593
20
13.481
11
7.593
21
13.627
0
0
LINE
8
0
10
7.593
20
13.627
11
7.593
21
13.736
0
0
LINE
8
0
10
7.593
20
13.736
11
7.593
21
14.628
0
0
LINE
8
0
10
10.093
20
0.515
11
10.093
21
0.557
0
0
LINE
8
0
10
10.093
20
0.515
11
10.093
21
0.557
0
0
LINE
8
0
10
10.093
20
0.557
11
10.093
21
0.845
0
0
LINE
8
0
10
10.093
20
0.845
11
10.093
21
2.281
0
0
LINE
8
0
10
10.093
20
2.281
11
10.093
21
2.301
0
0
LINE
8
0
10
10.093
20
2.301
11
10.093
21
2.591
0
0
LINE
8
0
10
10.093
20
2.591
11
10.093
21
2.637
0
0
LINE
8
0
10
10.093
20
2.637
11
10.093
21
2.676
0
0
LINE
8
0
10
10.093
20
2.676
11
10.093
21
4.101
0
0
LINE
8
0
10
10.093
20
4.101
11
10.093
21
4.387
0
0
LINE
8
0
10
10.093
20
4.387
11
10.093
21
4.454
0
0
LINE
8
0
10
10.093
20
4.454
11
10.093
21
4.459
0
0
LINE
8
0
10
10.093
20
4.459
11
10.093
21
4.460
0
0
LINE
8
0
10
10.093
20
4.460
11
10.093
21
4.462
0
0
LINE
8
0
10
10.093
20
4.462
11
10.093
21
4.465
0
0
LINE
8
0
10
10.093
20
4.465
11
10.093
21
4.466
0
0
LINE
8
0
10
10.093
20
4.466
11
10.093
21
4.470
0
0
LINE
8
0
10
10.093
20
4.470
11
10.093
21
4.471
0
0
LINE
8
0
10
10.093
20
4.471
11
10.093
21
4.472
0
0
LINE
8
0
10
10.093
20
4.472
11
10.093
21
5.858
0
0
LINE
8
0
10
10.093
20
5.858
11
10.093
21
5.861
0
0
LINE
8
0
10
10.093
20
5.861
11
10.093
21
5.866
0
0
LINE
8
0
10
10.093
20
5.866
11
10.093
21
5.936
0
0
LINE
8
0
10
10.093
20
5.936
11
10.093
21
6.221
0
0
LINE
8
0
10
10.093
20
6.221
11
10.093
21
7.647
0
0
LINE
8
0
10
10.093
20
7.647
11
10.093
21
7.688
0
0
LINE
8
0
10
10.093
20
7.688
11
10.093
21
7.734
0
0
LINE
8
0
10
10.093
20
7.734
11
10.093
21
7.850
0
0
LINE
8
0
10
10.093
20
7.850
11
10.093
21
8.024
0
0
LINE
8
0
10
10.093
20
8.024
11
10.093
21
8.056
0
0
LINE
8
0
10
10.093
20
8.056
11
10.093
21
9.482
0
0
LINE
8
0
10
10.093
20
9.482
11
10.093
21
9.511
0
0
LINE
8
0
10
10.093
20
9.511
11
10.093
21
9.801
0
0
LINE
8
0
10
10.093
20
9.801
11
10.093
21
9.847
0
0
LINE
8
0
10
10.093
20
9.847
11
10.093
21
9.891
0
0
LINE
8
0
10
10.093
20
9.891
11
10.093
21
11.316
0
0
LINE
8
0
10
10.093
20
11.316
11
10.093
21
11.601
0
0
LINE
8
0
10
10.093
20
11.601
11
10.093
21
11.624
0
0
LINE
8
0
10
10.093
20
11.624
11
10.093
21
13.075
0
0
LINE
8
0
10
10.093
20
13.075
11
10.093
21
13.121
0
0
LINE
8
0
10
10.093
20
13.121
11
10.093
21
13.136
0
0
LINE
8
0
10
10.093
20
13.136
11
10.093
21
13.424
0
0
LINE
8
0
10
10.093
20
13.424
11
10.093
21
14.590
0
0
LINE
8
0
10
10.093
20
14.590
11
10.093
21
14.631
0
0
LINE
8
0
10
12.593
20
0.455
11
12.593
21
0.500
0
0
LINE
8
0
10
12.593
20
0.455
11
12.593
21
0.500
0
0
LINE
8
0
10
12.593
20
0.500
11
12.593
21
0.786
0
0
LINE
8
0
10
12.593
20
0.786
11
12.593
21
2.219
0
0
LINE
8
0
10
12.593
20
2.219
11
12.593
21
2.243
0
0
LINE
8
0
10
12.593
20
2.243
11
12.593
21
2.533
0
0
LINE
8
0
10
12.593
20
2.533
11
12.593
21
2.579
0
0
LINE
8
0
10
12.593
20
2.579
11
12.593
21
2.619
0
0
LINE
8
0
10
12.593
20
2.619
11
12.593
21
4.044
0
0
LINE
8
0
10
12.593
20
4.044
11
12.593
21
4.330
0
0
LINE
8
0
10
12.593
20
4.330
11
12.593
21
4.398
0
0
LINE
8
0
10
12.593
20
4.398
11
12.593
21
4.399
0
0
LINE
8
0
10
12.593
20
4.399
11
12.593
21
4.400
0
0
LINE
8
0
10
12.593
20
4.400
11
12.593
21
4.402
0
0
LINE
8
0
10
12.593
20
4.402
11
12.593
21
4.405
0
0
LINE
8
0
10
12.593
20
4.405
11
12.593
21
4.406
0
0
LINE
8
0
10
12.593
20
4.406
11
12.593
21
4.410
0
0
LINE
8
0
10
12.593
20
4.410
11
12.593
21
4.411
0
0
LINE
8
0
10
12.593
20
4.411
11
12.593
21
4.412
0
0
LINE
8
0
10
12.593
20
4.412
11
12.593
21
5.798
0
0
LINE
8
0
10
12.593
20
5.798
11
12.593
21
5.801
0
0
LINE
8
0
10
12.593
20
5.801
11
12.593
21
5.807
0
0
LINE
8
0
10
12.593
20
5.807
11
12.593
21
5.810
0
0
LINE
8
0
10
12.593
20
5.810
11
12.593
21
5.879
0
0
LINE
8
0
10
12.593
20
5.879
11
12.593
21
6.164
0
0
LINE
8
0
10
12.593
20
6.164
11
12.593
21
7.590
0
0
LINE
8
0
10
12.593
20
7.590
11
12.593
21
7.630
0
0
LINE
8
0
10
12.593
20
7.630
11
12.593
21
7.676
0
0
LINE
8
0
10
12.593
20
7.676
11
12.593
21
7.850
0
0
LINE
8
0
10
12.593
20
7.850
11
12.593
21
7.966
0
0
LINE
8
0
10
12.593
20
7.966
11
12.593
21
7.999
0
0
LINE
8
0
10
12.593
20
7.999
11
12.593
21
9.425
0
0
LINE
8
0
10
12.593
20
9.425
11
12.593
21
9.710
0
0
LINE
8
0
10
12.593
20
9.710
11
12.593
21
9.743
0
0
LINE
8
0
10
12.593
20
9.743
11
12.593
21
9.789
0
0
LINE
8
0
10
12.593
20
9.789
11
12.593
21
9.834
0
0
LINE
8
0
10
12.593
20
9.834
11
12.593
21
11.259
0
0
LINE
8
0
10
12.593
20
11.259
11
12.593
21
11.544
0
0
LINE
8
0
10
12.593
20
11.544
11
12.593
21
11.566
0
0
LINE
8
0
10
12.593
20
11.566
11
12.593
21
13.017
0
0
LINE
8
0
10
12.593
20
13.017
11
12.593
21
13.063
0
0
LINE
8
0
10
12.593
20
13.063
11
12.593
21
13.079
0
0
LINE
8
0
10
12.593
20
13.079
11
12.593
21
13.367
0
0
LINE
8
0
10
12.593
20
13.367
11
12.593
21
14.594
0
0
LINE
8
0
10
12.593
20
14.594
11
12.593
21
14.635
0
0
LINE
8
0
10
0.450
20
2.592
11
0.506
21
2.592
0
0
LINE
8
0
10
0.450
20
2.592
11
0.506
21
2.592
0
0
LINE
8
0
10
0.506
20
2.592
11
1.230
21
2.592
0
0
LINE
8
0
10
1.230
20
2.592
11
1.696
21
2.592
0
0
LINE
8
0
10
1.696
20
2.592
11
1.822
21
2.592
0
0
LINE
8
0
10
1.822
20
2.592
11
2.108
21
2.592
0
0
LINE
8
0
10
2.108
20
2.592
11
2.131
21
2.592
0
0
LINE
8
0
10
2.131
20
2.592
11
2.176
21
2.592
0
0
LINE
8
0
10
2.176
20
2.592
11
3.628
21
2.592
0
0
LINE
8
0
10
3.628
20
2.592
11
3.649
21
2.592
0
0
LINE
8
0
10
3.649
20
2.592
11
3.934
21
2.592
0
0
LINE
8
0
10
3.934
20
2.592
11
5.360
21
2.592
0
0
LINE
8
0
10
5.360
20
2.592
11
5.405
21
2.592
0
0
LINE
8
0
10
5.405
20
2.592
11
5.451
21
2.592
0
0
LINE
8
0
10
5.451
20
2.592
11
5.484
21
2.592
0
0
LINE
8
0
10
5.484
20
2.592
11
5.769
21
2.592
0
0
LINE
8
0
10
5.769
20
2.592
11
7.195
21
2.592
0
0
LINE
8
0
10
7.195
20
2.592
11
7.228
21
2.592
0
0
LINE
8
0
10
7.228
20
2.592
11
7.518
21
2.592
0
0
LINE
8
0
10
7.518
20
2.592
11
7.564
21
2.592
0
0
LINE
8
0
10
7.564
20
2.592
11
7.604
21
2.592
0
0
LINE
8
0
10
7.604
20
2.592
11
9.029
21
2.592
0
0
LINE
8
0
10
9.029
20
2.592
11
9.314
21
2.592
0
0
LINE
8
0
10
9.314
20
2.592
11
9.383
21
2.592
0
0
LINE
8
0
10
9.383
20
2.592
11
9.387
21
2.592
0
0
LINE
8
0
10
9.387
20
2.592
11
9.393
21
2.592
0
0
LINE
8
0
10
9.393
20
2.592
11
9.396
21
2.592
0
0
LINE
8
0
10
9.396
20
2.592
11
10.782
21
2.592
0
0
LINE
8
0
10
10.782
20
2.592
11
10.783
21
2.592
0
0
LINE
8
0
10
10.783
20
2.592
11
10.784
21
2.592
0
0
LINE
8
0
10
10.784
20
2.592
11
10.788
21
2.592
0
0
LINE
8
0
10
10.788
20
2.592
11
10.789
21
2.592
0
0
LINE
8
0
10
10.789
20
2.592
11
10.792
21
2.592
0
0
LINE
8
0
10
10.792
20
2.592
11
10.794
21
2.592
0
0
LINE
8
0
10
10.794
20
2.592
11
10.795
21
2.592
0
0
LINE
8
0
10
10.795
20
2.592
11
10.864
21
2.592
0
0
LINE
8
0
10
10.864
20
2.592
11
11.149
21
2.592
0
0
LINE
8
0
10
11.149
20
2.592
11
12.575
21
2.592
0
0
LINE
8
0
10
12.575
20
2.592
11
12.615
21
2.592
0
0
LINE
8
0
10
12.615
20
2.592
11
12.660
21
2.592
0
0
LINE
8
0
10
12.660
20
2.592
11
12.951
21
2.592
0
0
LINE
8
0
10
12.951
20
2.592
11
12.975
21
2.592
0
0
LINE
8
0
10
12.975
20
2.592
11
14.407
21
2.592
0
0
LINE
8
0
10
14.407
20
2.592
11
14.694
21
2.592
0
0
LINE
8
0
10
14.694
20
2.592
11
14.739
21
2.592
0
0
LINE
8
0
10
0.513
20
5.092
11
1.401
21
5.092
0
0
LINE
8
0
10
0.513
20
5.092
11
1.401
21
5.092
0
0
LINE
8
0
10
1.401
20
5.092
11
1.605
21
5.092
0
0
LINE
8
0
10
1.605
20
5.092
11
1.741
21
5.092
0
0
LINE
8
0
10
1.741
20
5.092
11
2.028
21
5.092
0
0
LINE
8
0
10
2.028
20
5.092
11
2.083
21
5.092
0
0
LINE
8
0
10
2.083
20
5.092
11
2.084
21
5.092
0
0
LINE
8
0
10
2.084
20
5.092
11
3.494
21
5.092
0
0
LINE
8
0
10
3.494
20
5.092
11
3.565
21
5.092
0
0
LINE
8
0
10
3.565
20
5.092
11
3.851
21
5.092
0
0
LINE
8
0
10
3.851
20
5.092
11
5.276
21
5.092
0
0
LINE
8
0
10
5.276
20
5.092
11
5.320
21
5.092
0
0
LINE
8
0
10
5.320
20
5.092
11
5.365
21
5.092
0
0
LINE
8
0
10
5.365
20
5.092
11
5.656
21
5.092
0
0
LINE
8
0
10
5.656
20
5.092
11
5.685
21
5.092
0
0
LINE
8
0
10
5.685
20
5.092
11
7.111
21
5.092
0
0
LINE
8
0
10
7.111
20
5.092
11
7.142
21
5.092
0
0
LINE
8
0
10
7.142
20
5.092
11
7.433
21
5.092
0
0
LINE
8
0
10
7.433
20
5.092
11
7.478
21
5.092
0
0
LINE
8
0
10
7.478
20
5.092
11
7.520
21
5.092
0
0
LINE
8
0
10
7.520
20
5.092
11
8.946
21
5.092
0
0
LINE
8
0
10
8.946
20
5.092
11
9.231
21
5.092
0
0
LINE
8
0
10
9.231
20
5.092
11
9.301
21
5.092
0
0
LINE
8
0
10
9.301
20
5.092
11
9.305
21
5.092
0
0
LINE
8
0
10
9.305
20
5.092
11
9.308
21
5.092
0
0
LINE
8
0
10
9.308
20
5.092
11
10.694
21
5.092
0
0
LINE
8
0
10
10.694
20
5.092
11
10.695
21
5.092
0
0
LINE
8
0
10
10.695
20
5.092
11
10.696
21
5.092
0
0
LINE
8
0
10
10.696
20
5.092
11
10.700
21
5.092
0
0
LINE
8
0
10
10.700
20
5.092
11
10.701
21
5.092
0
0
LINE
8
0
10
10.701
20
5.092
11
10.704
21
5.092
0
0
LINE
8
0
10
10.704
20
5.092
11
10.706
21
5.092
0
0
LINE
8
0
10
10.706
20
5.092
11
10.707
21
5.092
0
0
LINE
8
0
10
10.707
20
5.092
11
10.709
21
5.092
0
0
LINE
8
0
10
10.709
20
5.092
11
10.712
21
5.092
0
0
LINE
8
0
10
10.712
20
5.092
11
10.713
21
5.092
0
0
LINE
8
0
10
10.713
20
5.092
11
10.780
21
5.092
0
0
LINE
8
0
10
10.780
20
5.092
11
11.065
21
5.092
0
0
LINE
8
0
10
11.065
20
5.092
11
12.491
21
5.092
0
0
LINE
8
0
10
12.491
20
5.092
11
12.530
21
5.092
0
0
LINE
8
0
10
12.530
20
5.092
11
12.575
21
5.092
0
0
LINE
8
0
10
12.575
20
5.092
11
12.865
21
5.092
0
0
LINE
8
0
10
12.865
20
5.092
11
12.884
21
5.092
0
0
LINE
8
0
10
12.884
20
5.092
11
14.322
21
5.092
0
0
LINE
8
0
10
14.322
20
5.092
11
14.609
21
5.092
0
0
LINE
8
0
10
14.609
20
5.092
11
14.651
21
5.092
0
0
LINE
8
0
10
0.576
20
7.592
11
1.486
21
7.592
0
0
LINE
8
0
10
0.576
20
7.592
11
1.486
21
7.592
0
0
LINE
8
0
10
1.486
20
7.592
11
1.566
21
7.592
0
0
LINE
8
0
10
1.566
20
7.592
11
1.720
21
7.592
0
0
LINE
8
0
10
1.720
20
7.592
11
2.008
21
7.592
0
0
LINE
8
0
10
2.008
20
7.592
11
2.059
21
7.592
0
0
LINE
8
0
10
2.059
20
7.592
11
2.062
21
7.592
0
0
LINE
8
0
10
2.062
20
7.592
11
2.063
21
7.592
0
0
LINE
8
0
10
2.063
20
7.592
11
2.064
21
7.592
0
0
LINE
8
0
10
2.064
20
7.592
11
2.065
21
7.592
0
0
LINE
8
0
10
2.065
20
7.592
11
2.067
21
7.592
0
0
LINE
8
0
10
2.067
20
7.592
11
2.068
21
7.592
0
0
LINE
8
0
10
2.068
20
7.592
11
2.069
21
7.592
0
0
LINE
8
0
10
2.069
20
7.592
11
3.470
21
7.592
0
0
LINE
8
0
10
3.470
20
7.592
11
3.542
21
7.592
0
0
LINE
8
0
10
3.542
20
7.592
11
3.827
21
7.592
0
0
LINE
8
0
10
3.827
20
7.592
11
5.252
21
7.592
0
0
LINE
8
0
10
5.252
20
7.592
11
5.296
21
7.592
0
0
LINE
8
0
10
5.296
20
7.592
11
5.341
21
7.592
0
0
LINE
8
0
10
5.341
20
7.592
11
5.632
21
7.592
0
0
LINE
8
0
10
5.632
20
7.592
11
5.662
21
7.592
0
0
LINE
8
0
10
5.662
20
7.592
11
5.684
21
7.592
0
0
LINE
8
0
10
5.684
20
7.592
11
7.087
21
7.592
0
0
LINE
8
0
10
7.087
20
7.592
11
7.118
21
7.592
0
0
LINE
8
0
10
7.118
20
7.592
11
7.409
21
7.592
0
0
LINE
8
0
10
7.409
20
7.592
11
7.454
21
7.592
0
0
LINE
8
0
10
7.454
20
7.592
11
7.496
21
7.592
0
0
LINE
8
0
10
7.496
20
7.592
11
8.922
21
7.592
0
0
LINE
8
0
10
8.922
20
7.592
11
9.207
21
7.592
0
0
LINE
8
0
10
9.207
20
7.592
11
9.278
21
7.592
0
0
LINE
8
0
10
9.278
20
7.592
11
9.279
21
7.592
0
0
LINE
8
0
10
9.279
20
7.592
11
9.283
21
7.592
0
0
LINE
8
0
10
9.283
20
7.592
11
10.669
21
7.592
0
0
LINE
8
0
10
10.669
20
7.592
11
10.670
21
7.592
0
0
LINE
8
0
10
10.670
20
7.592
11
10.672
21
7.592
0
0
LINE
8
0
10
10.672
20
7.592
11
10.675
21
7.592
0
0
LINE
8
0
10
10.675
20
7.592
11
10.676
21
7.592
0
0
LINE
8
0
10
10.676
20
7.592
11
10.679
21
7.592
0
0
LINE
8
0
10
10.679
20
7.592
11
10.681
21
7.592
0
0
LINE
8
0
10
10.681
20
7.592
11
10.682
21
7.592
0
0
LINE
8
0
10
10.682
20
7.592
11
10.684
21
7.592
0
0
LINE
8
0
10
10.684
20
7.592
11
10.687
21
7.592
0
0
LINE
8
0
10
10.687
20
7.592
11
10.688
21
7.592
0
0
LINE
8
0
10
10.688
20
7.592
11
10.689
21
7.592
0
0
LINE
8
0
10
10.689
20
7.592
11
10.757
21
7.592
0
0
LINE
8
0
10
10.757
20
7.592
11
11.042
21
7.592
0
0
LINE
8
0
10
11.042
20
7.592
11
12.467
21
7.592
0
0
LINE
8
0
10
12.467
20
7.592
11
12.505
21
7.592
0
0
LINE
8
0
10
12.505
20
7.592
11
12.551
21
7.592
0
0
LINE
8
0
10
12.551
20
7.592
11
12.841
21
7.592
0
0
LINE
8
0
10
12.841
20
7.592
11
12.859
21
7.592
0
0
LINE
8
0
10
12.859
20
7.592
11
14.297
21
7.592
0
0
LINE
8
0
10
14.297
20
7.592
11
14.585
21
7.592
0
0
LINE
8
0
10
14.585
20
7.592
11
14.626
21
7.592
0
0
LINE
8
0
10
0.514
20
10.092
11
0.556
21
10.092
0
0
LINE
8
0
10
0.514
20
10.092
11
0.556
21
10.092
0
0
LINE
8
0
10
0.556
20
10.092
11
1.717
21
10.092
0
0
LINE
8
0
10
1.717
20
10.092
11
2.004
21
10.092
0
0
LINE
8
0
10
2.004
20
10.092
11
2.059
21
10.092
0
0
LINE
8
0
10
2.059
20
10.092
11
2.062
21
10.092
0
0
LINE
8
0
10
2.062
20
10.092
11
2.063
21
10.092
0
0
LINE
8
0
10
2.063
20
10.092
11
2.064
21
10.092
0
0
LINE
8
0
10
2.064
20
10.092
11
2.065
21
10.092
0
0
LINE
8
0
10
2.065
20
10.092
11
2.067
21
10.092
0
0
LINE
8
0
10
2.067
20
10.092
11
2.068
21
10.092
0
0
LINE
8
0
10
2.068
20
10.092
11
2.069
21
10.092
0
0
LINE
8
0
10
2.069
20
10.092
11
3.470
21
10.092
0
0
LINE
8
0
10
3.470
20
10.092
11
3.542
21
10.092
0
0
LINE
8
0
10
3.542
20
10.092
11
3.827
21
10.092
0
0
LINE
8
0
10
3.827
20
10.092
11
5.252
21
10.092
0
0
LINE
8
0
10
5.252
20
10.092
11
5.296
21
10.092
0
0
LINE
8
0
10
5.296
20
10.092
11
5.341
21
10.092
0
0
LINE
8
0
10
5.341
20
10.092
11
5.632
21
10.092
0
0
LINE
8
0
10
5.632
20
10.092
11
5.662
21
10.092
0
0
LINE
8
0
10
5.662
20
10.092
11
5.668
21
10.092
0
0
LINE
8
0
10
5.668
20
10.092
11
7.087
21
10.092
0
0
LINE
8
0
10
7.087
20
10.092
11
7.118
21
10.092
0
0
LINE
8
0
10
7.118
20
10.092
11
7.409
21
10.092
0
0
LINE
8
0
10
7.409
20
10.092
11
7.454
21
10.092
0
0
LINE
8
0
10
7.454
20
10.092
11
7.496
21
10.092
0
0
LINE
8
0
10
7.496
20
10.092
11
8.922
21
10.092
0
0
LINE
8
0
10
8.922
20
10.092
11
9.207
21
10.092
0
0
LINE
8
0
10
9.207
20
10.092
11
9.278
21
10.092
0
0
LINE
8
0
10
9.278
20
10.092
11
9.279
21
10.092
0
0
LINE
8
0
10
9.279
20
10.092
11
9.283
21
10.092
0
0
LINE
8
0
10
9.283
20
10.092
11
10.669
21
10.092
0
0
LINE
8
0
10
10.669
20
10.092
11
10.670
21
10.092
0
0
LINE
8
0
10
10.670
20
10.092
11
10.672
21
10.092
0
0
LINE
8
0
10
10.672
20
10.092
11
10.675
21
10.092
0
0
LINE
8
0
10
10.675
20
10.092
11
10.676
21
10.092
0
0
LINE
8
0
10
10.676
20
10.092
11
10.679
21
10.092
0
0
LINE
8
0
10
10.679
20
10.092
11
10.681
21
10.092
0
0
LINE
8
0
10
10.681
20
10.092
11
10.682
21
10.092
0
0
LINE
8
0
10
10.682
20
10.092
11
10.684
21
10.092
0
0
LINE
8
0
10
10.684
20
10.092
11
10.687
21
10.092
0
0
LINE
8
0
10
10.687
20
10.092
11
10.688
21
10.092
0
0
LINE
8
0
10
10.688
20
10.092
11
10.689
21
10.092
0
0
LINE
8
0
10
10.689
20
10.092
11
10.757
21
10.092
0
0
LINE
8
0
10
10.757
20
10.092
11
11.042
21
10.092
0
0
LINE
8
0
10
11.042
20
10.092
11
12.467
21
10.092
0
0
LINE
8
0
10
12.467
20
10.092
11
12.505
21
10.092
0
0
LINE
8
0
10
12.505
20
10.092
11
12.551
21
10.092
0
0
LINE
8
0
10
12.551
20
10.092
11
12.841
21
10.092
0
0
LINE
8
0
10
12.841
20
10.092
11
12.859
21
10.092
0
0
LINE
8
0
10
12.859
20
10.092
11
14.297
21
10.092
0
0
LINE
8
0
10
14.297
20
10.092
11
14.366
21
10.092
0
0
LINE
8
0
10
14.366
20
10.092
11
14.393
21
10.092
0
0
LINE
8
0
10
14.393
20
10.092
11
14.626
21
10.092
0
0
LINE
8
0
10
0.438
20
12.592
11
0.483
21
12.592
0
0
LINE
8
0
10
0.438
20
12.592
11
0.483
21
12.592
0
0
LINE
8
0
10
0.483
20
12.592
11
1.713
21
12.592
0
0
LINE
8
0
10
1.713
20
12.592
11
1.999
21
12.592
0
0
LINE
8
0
10
1.999
20
12.592
11
2.059
21
12.592
0
0
LINE
8
0
10
2.059
20
12.592
11
2.060
21
12.592
0
0
LINE
8
0
10
2.060
20
12.592
11
2.062
21
12.592
0
0
LINE
8
0
10
2.062
20
12.592
11
2.063
21
12.592
0
0
LINE
8
0
10
2.063
20
12.592
11
2.064
21
12.592
0
0
LINE
8
0
10
2.064
20
12.592
11
2.065
21
12.592
0
0
LINE
8
0
10
2.065
20
12.592
11
2.067
21
12.592
0
0
LINE
8
0
10
2.067
20
12.592
11
2.068
21
12.592
0
0
LINE
8
0
10
2.068
20
12.592
11
2.069
21
12.592
0
0
LINE
8
0
10
2.069
20
12.592
11
3.470
21
12.592
0
0
LINE
8
0
10
3.470
20
12.592
11
3.542
21
12.592
0
0
LINE
8
0
10
3.542
20
12.592
11
3.827
21
12.592
0
0
LINE
8
0
10
3.827
20
12.592
11
5.252
21
12.592
0
0
LINE
8
0
10
5.252
20
12.592
11
5.296
21
12.592
0
0
LINE
8
0
10
5.296
20
12.592
11
5.341
21
12.592
0
0
LINE
8
0
10
5.341
20
12.592
11
5.632
21
12.592
0
0
LINE
8
0
10
5.632
20
12.592
11
5.662
21
12.592
0
0
LINE
8
0
10
5.662
20
12.592
11
5.670
21
12.592
0
0
LINE
8
0
10
5.670
20
12.592
11
7.087
21
12.592
0
0
LINE
8
0
10
7.087
20
12.592
11
7.118
21
12.592
0
0
LINE
8
0
10
7.118
20
12.592
11
7.409
21
12.592
0
0
LINE
8
0
10
7.409
20
12.592
11
7.454
21
12.592
0
0
LINE
8
0
10
7.454
20
12.592
11
7.496
21
12.592
0
0
LINE
8
0
10
7.496
20
12.592
11
8.922
21
12.592
0
0
LINE
8
0
10
8.922
20
12.592
11
9.207
21
12.592
0
0
LINE
8
0
10
9.207
20
12.592
11
9.278
21
12.592
0
0
LINE
8
0
10
9.278
20
12.592
11
9.279
21
12.592
0
0
LINE
8
0
10
9.279
20
12.592
11
9.283
21
12.592
0
0
LINE
8
0
10
9.283
20
12.592
11
10.669
21
12.592
0
0
LINE
8
0
10
10.669
20
12.592
11
10.670
21
12.592
0
0
LINE
8
0
10
10.670
20
12.592
11
10.673
21
12.592
0
0
LINE
8
0
10
10.673
20
12.592
11
10.676
21
12.592
0
0
LINE
8
0
10
10.676
20
12.592
11
10.679
21
12.592
0
0
LINE
8
0
10
10.679
20
12.592
11
10.681
21
12.592
0
0
LINE
8
0
10
10.681
20
12.592
11
10.682
21
12.592
0
0
LINE
8
0
10
10.682
20
12.592
11
10.684
21
12.592
0
0
LINE
8
0
10
10.684
20
12.592
11
10.687
21
12.592
0
0
LINE
8
0
10
10.687
20
12.592
11
10.688
21
12.592
0
0
LINE
8
0
10
10.688
20
12.592
11
10.689
21
12.592
0
0
LINE
8
0
10
10.689
20
12.592
11
10.757
21
12.592
0
0
LINE
8
0
10
10.757
20
12.592
11
11.042
21
12.592
0
0
LINE
8
0
10
11.042
20
12.592
11
12.467
21
12.592
0
0
LINE
8
0
10
12.467
20
12.592
11
12.505
21
12.592
0
0
LINE
8
0
10
12.505
20
12.592
11
12.551
21
12.592
0
0
LINE
8
0
10
12.551
20
12.592
11
12.841
21
12.592
0
0
LINE
8
0
10
12.841
20
12.592
11
12.859
21
12.592
0
0
LINE
8
0
10
12.859
20
12.592
11
14.297
21
12.592
0
0
LINE
8
0
10
14.297
20
12.592
11
14.585
21
12.592
0
0
LINE
8
0
10
14.585
20
12.592
11
14.626
21
12.592
0
0
ENDSEC
0
EOF
