0
SECTION
2
ENTITIES
0
LINE
8
0
10
2.202
20
0.441
11
1.328
21
0.558
0
0
LINE
8
0
10
2.202
20
0.441
11
1.328
21
0.558
0
0
LINE
8
0
10
0.593
20
1.255
11
0.557
21
1.353
0
0
LINE
8
0
10
0.442
20
2.260
11
0.464
21
3.126
0
0
LINE
8
0
10
0.487
20
4.059
11
0.509
21
4.924
0
0
LINE
8
0
10
0.533
20
5.869
11
0.555
21
6.731
0
0
LINE
8
0
10
0.579
20
7.677
11
0.562
21
8.542
0
0
LINE
8
0
10
0.533
20
9.476
11
0.507
21
10.341
0
0
LINE
8
0
10
0.479
20
11.256
11
0.452
21
12.140
0
0
LINE
8
0
10
0.450
20
13.056
11
0.591
21
13.924
0
0
LINE
8
0
10
1.183
20
14.576
11
2.036
21
14.739
0
0
LINE
8
0
10
2.961
20
14.729
11
3.824
21
14.699
0
0
LINE
8
0
10
4.761
20
14.666
11
5.626
21
14.636
0
0
LINE
8
0
10
6.573
20
14.626
11
7.437
21
14.627
0
0
LINE
8
0
10
8.379
20
14.629
11
9.243
21
14.630
0
0
LINE
8
0
10
10.174
20
14.631
11
11.043
21
14.632
0
0
LINE
8
0
10
11.959
20
14.634
11
12.843
21
14.635
0
0
LINE
8
0
10
13.759
20
14.636
11
14.626
21
14.621
0
0
LINE
8
0
10
14.626
20
13.705
11
14.626
21
12.836
0
0
LINE
8
0
10
14.626
20
11.905
11
14.626
21
11.041
0
0
LINE
8
0
10
14.626
20
10.098
11
14.626
21
9.235
0
0
LINE
8
0
10
14.626
20
8.287
11
14.626
21
7.422
0
0
LINE
8
0
10
14.626
20
6.485
11
14.633
21
5.621
0
0
LINE
8
0
10
14.665
20
4.698
11
14.696
21
3.822
0
0
LINE
8
0
10
14.728
20
2.906
11
14.720
21
2.025
0
0
LINE
8
0
10
14.553
20
1.130
11
13.903
21
0.582
0
0
LINE
8
0
10
12.998
20
0.445
11
12.133
21
0.466
0
0
LINE
8
0
10
11.199
20
0.488
11
10.333
21
0.509
0
0
LINE
8
0
10
9.388
20
0.532
11
8.525
21
0.552
0
0
LINE
8
0
10
7.580
20
0.575
11
6.715
21
0.567
0
0
LINE
8
0
10
5.783
20
0.538
11
4.917
21
0.511
0
0
LINE
8
0
10
4.001
20
0.482
11
3.118
21
0.454
0
0
LINE
8
0
10
2.593
20
1.365
11
2.593
21
1.534
0
0
LINE
8
0
10
2.593
20
1.365
11
2.593
21
1.534
0
0
LINE
8
0
10
2.593
20
2.449
11
2.593
21
2.450
0
0
LINE
8
0
10
2.593
20
2.450
11
2.593
21
2.637
0
0
LINE
8
0
10
2.593
20
2.637
11
2.593
21
3.334
0
0
LINE
8
0
10
2.593
20
4.249
11
2.593
21
4.269
0
0
LINE
8
0
10
2.593
20
4.269
11
2.593
21
4.617
0
0
LINE
8
0
10
2.593
20
4.617
11
2.593
21
5.134
0
0
LINE
8
0
10
2.593
20
6.049
11
2.593
21
6.050
0
0
LINE
8
0
10
2.593
20
6.050
11
2.593
21
6.572
0
0
LINE
8
0
10
2.593
20
6.572
11
2.593
21
6.934
0
0
LINE
8
0
10
2.593
20
7.849
11
2.593
21
7.850
0
0
LINE
8
0
10
2.593
20
7.850
11
2.593
21
8.412
0
0
LINE
8
0
10
2.593
20
8.412
11
2.593
21
8.734
0
0
LINE
8
0
10
2.593
20
9.649
11
2.593
21
9.650
0
0
LINE
8
0
10
2.593
20
9.650
11
2.593
21
9.830
0
0
LINE
8
0
10
2.593
20
9.830
11
2.593
21
10.534
0
0
LINE
8
0
10
2.593
20
11.449
11
2.593
21
11.450
0
0
LINE
8
0
10
2.593
20
11.450
11
2.593
21
12.076
0
0
LINE
8
0
10
2.593
20
12.076
11
2.593
21
12.334
0
0
LINE
8
0
10
2.593
20
13.249
11
2.593
21
13.250
0
0
LINE
8
0
10
2.593
20
13.250
11
2.593
21
13.430
0
0
LINE
8
0
10
2.593
20
13.430
11
2.593
21
14.134
0
0
LINE
8
0
10
5.093
20
1.298
11
5.093
21
1.447
0
0
LINE
8
0
10
5.093
20
1.298
11
5.093
21
1.447
0
0
LINE
8
0
10
5.093
20
2.363
11
5.093
21
3.067
0
0
LINE
8
0
10
5.093
20
3.067
11
5.093
21
3.247
0
0
LINE
8
0
10
5.093
20
4.163
11
5.093
21
4.365
0
0
LINE
8
0
10
5.093
20
4.365
11
5.093
21
4.545
0
0
LINE
8
0
10
5.093
20
4.545
11
5.093
21
5.047
0
0
LINE
8
0
10
5.093
20
5.963
11
5.093
21
6.260
0
0
LINE
8
0
10
5.093
20
6.260
11
5.093
21
6.847
0
0
LINE
8
0
10
5.093
20
7.763
11
5.093
21
8.281
0
0
LINE
8
0
10
5.093
20
8.281
11
5.093
21
8.647
0
0
LINE
8
0
10
5.093
20
9.563
11
5.093
21
10.267
0
0
LINE
8
0
10
5.093
20
10.267
11
5.093
21
10.447
0
0
LINE
8
0
10
5.093
20
11.363
11
5.093
21
11.966
0
0
LINE
8
0
10
5.093
20
11.966
11
5.093
21
12.247
0
0
LINE
8
0
10
5.093
20
13.163
11
5.093
21
13.867
0
0
LINE
8
0
10
5.093
20
13.867
11
5.093
21
14.047
0
0
LINE
8
0
10
7.593
20
1.281
11
7.593
21
1.419
0
0
LINE
8
0
10
7.593
20
1.281
11
7.593
21
1.419
0
0
LINE
8
0
10
7.593
20
1.419
11
7.593
21
1.420
0
0
LINE
8
0
10
7.593
20
2.335
11
7.593
21
3.040
0
0
LINE
8
0
10
7.593
20
3.040
11
7.593
21
3.220
0
0
LINE
8
0
10
7.593
20
4.135
11
7.593
21
4.315
0
0
LINE
8
0
10
7.593
20
4.315
11
7.593
21
5.020
0
0
LINE
8
0
10
7.593
20
5.935
11
7.593
21
6.170
0
0
LINE
8
0
10
7.593
20
6.170
11
7.593
21
6.820
0
0
LINE
8
0
10
7.593
20
7.735
11
7.593
21
8.440
0
0
LINE
8
0
10
7.593
20
8.440
11
7.593
21
8.620
0
0
LINE
8
0
10
7.593
20
9.535
11
7.593
21
9.715
0
0
LINE
8
0
10
7.593
20
9.715
11
7.593
21
10.420
0
0
LINE
8
0
10
7.593
20
11.335
11
7.593
21
12.040
0
0
LINE
8
0
10
7.593
20
12.040
11
7.593
21
12.220
0
0
LINE
8
0
10
7.593
20
13.135
11
7.593
21
13.840
0
0
LINE
8
0
10
7.593
20
13.840
11
7.593
21
14.020
0
0
LINE
8
0
10
10.093
20
1.277
11
10.093
21
1.423
0
0
LINE
8
0
10
10.093
20
1.277
11
10.093
21
1.423
0
0
LINE
8
0
10
10.093
20
2.339
11
10.093
21
3.043
0
0
LINE
8
0
10
10.093
20
3.043
11
10.093
21
3.223
0
0
LINE
8
0
10
10.093
20
4.139
11
10.093
21
4.431
0
0
LINE
8
0
10
10.093
20
4.431
11
10.093
21
5.023
0
0
LINE
8
0
10
10.093
20
5.939
11
10.093
21
6.643
0
0
LINE
8
0
10
10.093
20
6.643
11
10.093
21
6.823
0
0
LINE
8
0
10
10.093
20
7.739
11
10.093
21
8.405
0
0
LINE
8
0
10
10.093
20
8.405
11
10.093
21
8.623
0
0
LINE
8
0
10
10.093
20
9.539
11
10.093
21
9.719
0
0
LINE
8
0
10
10.093
20
9.719
11
10.093
21
10.423
0
0
LINE
8
0
10
10.093
20
11.339
11
10.093
21
12.043
0
0
LINE
8
0
10
10.093
20
12.043
11
10.093
21
12.223
0
0
LINE
8
0
10
10.093
20
13.139
11
10.093
21
13.319
0
0
LINE
8
0
10
10.093
20
13.319
11
10.093
21
14.023
0
0
LINE
8
0
10
12.593
20
1.273
11
12.593
21
1.427
0
0
LINE
8
0
10
12.593
20
1.273
11
12.593
21
1.427
0
0
LINE
8
0
10
12.593
20
2.343
11
12.593
21
3.047
0
0
LINE
8
0
10
12.593
20
3.047
11
12.593
21
3.227
0
0
LINE
8
0
10
12.593
20
4.143
11
12.593
21
4.315
0
0
LINE
8
0
10
12.593
20
4.315
11
12.593
21
4.543
0
0
LINE
8
0
10
12.593
20
4.543
11
12.593
21
5.027
0
0
LINE
8
0
10
12.593
20
5.943
11
12.593
21
6.197
0
0
LINE
8
0
10
12.593
20
6.197
11
12.593
21
6.827
0
0
LINE
8
0
10
12.593
20
7.743
11
12.593
21
7.981
0
0
LINE
8
0
10
12.593
20
7.981
11
12.593
21
8.627
0
0
LINE
8
0
10
12.593
20
9.543
11
12.593
21
9.723
0
0
LINE
8
0
10
12.593
20
9.723
11
12.593
21
10.427
0
0
LINE
8
0
10
12.593
20
11.343
11
12.593
21
12.047
0
0
LINE
8
0
10
12.593
20
12.047
11
12.593
21
12.227
0
0
LINE
8
0
10
12.593
20
13.143
11
12.593
21
13.847
0
0
LINE
8
0
10
12.593
20
13.847
11
12.593
21
14.027
0
0
LINE
8
0
10
1.058
20
2.592
11
1.059
21
2.592
0
0
LINE
8
0
10
1.058
20
2.592
11
1.059
21
2.592
0
0
LINE
8
0
10
1.059
20
2.592
11
1.239
21
2.592
0
0
LINE
8
0
10
1.239
20
2.592
11
1.943
21
2.592
0
0
LINE
8
0
10
2.858
20
2.592
11
2.859
21
2.592
0
0
LINE
8
0
10
2.859
20
2.592
11
3.039
21
2.592
0
0
LINE
8
0
10
3.039
20
2.592
11
3.743
21
2.592
0
0
LINE
8
0
10
4.658
20
2.592
11
4.659
21
2.592
0
0
LINE
8
0
10
4.659
20
2.592
11
4.839
21
2.592
0
0
LINE
8
0
10
4.839
20
2.592
11
5.543
21
2.592
0
0
LINE
8
0
10
6.458
20
2.592
11
6.459
21
2.592
0
0
LINE
8
0
10
6.459
20
2.592
11
7.086
21
2.592
0
0
LINE
8
0
10
7.086
20
2.592
11
7.343
21
2.592
0
0
LINE
8
0
10
8.258
20
2.592
11
8.259
21
2.592
0
0
LINE
8
0
10
8.259
20
2.592
11
8.439
21
2.592
0
0
LINE
8
0
10
8.439
20
2.592
11
9.143
21
2.592
0
0
LINE
8
0
10
10.058
20
2.592
11
10.059
21
2.592
0
0
LINE
8
0
10
10.059
20
2.592
11
10.239
21
2.592
0
0
LINE
8
0
10
10.239
20
2.592
11
10.943
21
2.592
0
0
LINE
8
0
10
11.858
20
2.592
11
11.959
21
2.592
0
0
LINE
8
0
10
11.959
20
2.592
11
12.743
21
2.592
0
0
LINE
8
0
10
13.658
20
2.592
11
13.659
21
2.592
0
0
LINE
8
0
10
13.659
20
2.592
11
13.826
21
2.592
0
0
LINE
8
0
10
1.121
20
5.092
11
1.610
21
5.092
0
0
LINE
8
0
10
1.121
20
5.092
11
1.610
21
5.092
0
0
LINE
8
0
10
1.610
20
5.092
11
2.006
21
5.092
0
0
LINE
8
0
10
2.921
20
5.092
11
3.167
21
5.092
0
0
LINE
8
0
10
3.167
20
5.092
11
3.354
21
5.092
0
0
LINE
8
0
10
3.354
20
5.092
11
3.806
21
5.092
0
0
LINE
8
0
10
4.721
20
5.092
11
5.426
21
5.092
0
0
LINE
8
0
10
5.426
20
5.092
11
5.606
21
5.092
0
0
LINE
8
0
10
6.521
20
5.092
11
7.155
21
5.092
0
0
LINE
8
0
10
7.155
20
5.092
11
7.406
21
5.092
0
0
LINE
8
0
10
8.320
20
5.092
11
8.321
21
5.092
0
0
LINE
8
0
10
8.321
20
5.092
11
8.378
21
5.092
0
0
LINE
8
0
10
8.378
20
5.092
11
9.206
21
5.092
0
0
LINE
8
0
10
10.121
20
5.092
11
10.826
21
5.092
0
0
LINE
8
0
10
10.826
20
5.092
11
11.006
21
5.092
0
0
LINE
8
0
10
11.921
20
5.092
11
12.101
21
5.092
0
0
LINE
8
0
10
12.101
20
5.092
11
12.806
21
5.092
0
0
LINE
8
0
10
13.721
20
5.092
11
13.722
21
5.092
0
0
LINE
8
0
10
13.722
20
5.092
11
13.870
21
5.092
0
0
LINE
8
0
10
1.184
20
7.592
11
1.185
21
7.592
0
0
LINE
8
0
10
1.184
20
7.592
11
1.185
21
7.592
0
0
LINE
8
0
10
1.185
20
7.592
11
1.713
21
7.592
0
0
LINE
8
0
10
1.713
20
7.592
11
2.069
21
7.592
0
0
LINE
8
0
10
2.984
20
7.592
11
2.985
21
7.592
0
0
LINE
8
0
10
2.985
20
7.592
11
3.177
21
7.592
0
0
LINE
8
0
10
3.177
20
7.592
11
3.361
21
7.592
0
0
LINE
8
0
10
3.361
20
7.592
11
3.869
21
7.592
0
0
LINE
8
0
10
4.784
20
7.592
11
4.785
21
7.592
0
0
LINE
8
0
10
4.785
20
7.592
11
4.965
21
7.592
0
0
LINE
8
0
10
4.965
20
7.592
11
5.669
21
7.592
0
0
LINE
8
0
10
6.584
20
7.592
11
6.585
21
7.592
0
0
LINE
8
0
10
6.585
20
7.592
11
7.183
21
7.592
0
0
LINE
8
0
10
7.183
20
7.592
11
7.469
21
7.592
0
0
LINE
8
0
10
8.384
20
7.592
11
8.451
21
7.592
0
0
LINE
8
0
10
8.451
20
7.592
11
9.269
21
7.592
0
0
LINE
8
0
10
10.184
20
7.592
11
10.185
21
7.592
0
0
LINE
8
0
10
10.185
20
7.592
11
10.365
21
7.592
0
0
LINE
8
0
10
10.365
20
7.592
11
11.069
21
7.592
0
0
LINE
8
0
10
11.984
20
7.592
11
11.985
21
7.592
0
0
LINE
8
0
10
11.985
20
7.592
11
12.165
21
7.592
0
0
LINE
8
0
10
12.165
20
7.592
11
12.869
21
7.592
0
0
LINE
8
0
10
13.784
20
7.592
11
13.785
21
7.592
0
0
LINE
8
0
10
13.785
20
7.592
11
13.923
21
7.592
0
0
LINE
8
0
10
1.122
20
10.092
11
1.610
21
10.092
0
0
LINE
8
0
10
1.122
20
10.092
11
1.610
21
10.092
0
0
LINE
8
0
10
1.610
20
10.092
11
2.006
21
10.092
0
0
LINE
8
0
10
2.922
20
10.092
11
3.167
21
10.092
0
0
LINE
8
0
10
3.167
20
10.092
11
3.354
21
10.092
0
0
LINE
8
0
10
3.354
20
10.092
11
3.806
21
10.092
0
0
LINE
8
0
10
4.722
20
10.092
11
4.902
21
10.092
0
0
LINE
8
0
10
4.902
20
10.092
11
5.606
21
10.092
0
0
LINE
8
0
10
6.522
20
10.092
11
7.154
21
10.092
0
0
LINE
8
0
10
7.154
20
10.092
11
7.406
21
10.092
0
0
LINE
8
0
10
8.322
20
10.092
11
8.943
21
10.092
0
0
LINE
8
0
10
8.943
20
10.092
11
9.206
21
10.092
0
0
LINE
8
0
10
10.122
20
10.092
11
10.826
21
10.092
0
0
LINE
8
0
10
10.826
20
10.092
11
11.006
21
10.092
0
0
LINE
8
0
10
11.922
20
10.092
11
12.102
21
10.092
0
0
LINE
8
0
10
12.102
20
10.092
11
12.806
21
10.092
0
0
LINE
8
0
10
13.722
20
10.092
11
13.867
21
10.092
0
0
LINE
8
0
10
1.046
20
12.592
11
1.226
21
12.592
0
0
LINE
8
0
10
1.046
20
12.592
11
1.226
21
12.592
0
0
LINE
8
0
10
1.226
20
12.592
11
1.930
21
12.592
0
0
LINE
8
0
10
2.846
20
12.592
11
3.550
21
12.592
0
0
LINE
8
0
10
3.550
20
12.592
11
3.730
21
12.592
0
0
LINE
8
0
10
4.646
20
12.592
11
5.350
21
12.592
0
0
LINE
8
0
10
5.350
20
12.592
11
5.530
21
12.592
0
0
LINE
8
0
10
6.446
20
12.592
11
7.071
21
12.592
0
0
LINE
8
0
10
7.071
20
12.592
11
7.330
21
12.592
0
0
LINE
8
0
10
8.246
20
12.592
11
8.426
21
12.592
0
0
LINE
8
0
10
8.426
20
12.592
11
9.130
21
12.592
0
0
LINE
8
0
10
10.046
20
12.592
11
10.226
21
12.592
0
0
LINE
8
0
10
10.226
20
12.592
11
10.930
21
12.592
0
0
LINE
8
0
10
11.846
20
12.592
11
12.512
21
12.592
0
0
LINE
8
0
10
12.512
20
12.592
11
12.730
21
12.592
0
0
LINE
8
0
10
13.646
20
12.592
11
13.801
21
12.592
0
0
ENDSEC
0
EOF
