0
SECTION
2
ENTITIES
0
LINE
8
0
10
2.362
20
0.432
11
7.181
21
0.582
0
0
LINE
8
0
10
7.181
20
0.582
11
13.034
21
0.447
0
0
LINE
8
0
10
13.034
20
0.447
11
13.790
21
0.550
0
0
LINE
8
0
10
13.790
20
0.550
11
14.403
21
0.891
0
0
LINE
8
0
10
14.403
20
0.891
11
14.614
21
1.284
0
0
LINE
8
0
10
14.614
20
1.284
11
14.749
21
2.320
0
0
LINE
8
0
10
14.749
20
2.320
11
14.626
21
14.628
0
0
LINE
8
0
10
14.626
20
14.628
11
2.258
21
14.753
0
0
LINE
8
0
10
2.258
20
14.753
11
1.313
21
14.631
0
0
LINE
8
0
10
1.313
20
14.631
11
0.824
21
14.343
0
0
LINE
8
0
10
0.824
20
14.343
11
0.568
21
13.860
0
0
LINE
8
0
10
0.568
20
13.860
11
0.437
21
12.728
0
0
LINE
8
0
10
0.437
20
12.728
11
0.581
21
7.755
0
0
LINE
8
0
10
0.581
20
7.755
11
0.457
21
2.083
0
0
LINE
8
0
10
0.457
20
2.083
11
0.545
21
1.386
0
0
LINE
8
0
10
0.545
20
1.386
11
0.807
21
0.857
0
0
LINE
8
0
10
0.807
20
0.857
11
1.404
21
0.544
0
0
LINE
8
0
10
1.404
20
0.544
11
2.362
21
0.432
0
0
LINE
8
0
10
2.362
20
0.432
11
2.362
21
0.432
0
0
LINE
8
0
10
2.362
20
0.432
11
7.181
21
0.582
0
0
LINE
8
0
10
7.181
20
0.582
11
13.034
21
0.447
0
0
LINE
8
0
10
13.034
20
0.447
11
13.790
21
0.550
0
0
LINE
8
0
10
13.790
20
0.550
11
14.403
21
0.891
0
0
LINE
8
0
10
14.403
20
0.891
11
14.614
21
1.284
0
0
LINE
8
0
10
14.614
20
1.284
11
14.749
21
2.320
0
0
LINE
8
0
10
14.749
20
2.320
11
14.626
21
14.628
0
0
LINE
8
0
10
14.626
20
14.628
11
2.258
21
14.753
0
0
LINE
8
0
10
2.258
20
14.753
11
1.313
21
14.631
0
0
LINE
8
0
10
1.313
20
14.631
11
0.824
21
14.343
0
0
LINE
8
0
10
0.824
20
14.343
11
0.568
21
13.860
0
0
LINE
8
0
10
0.568
20
13.860
11
0.437
21
12.728
0
0
LINE
8
0
10
0.437
20
12.728
11
0.581
21
7.755
0
0
LINE
8
0
10
0.581
20
7.755
11
0.457
21
2.083
0
0
LINE
8
0
10
0.457
20
2.083
11
0.545
21
1.386
0
0
LINE
8
0
10
0.545
20
1.386
11
0.807
21
0.857
0
0
LINE
8
0
10
0.807
20
0.857
11
1.404
21
0.544
0
0
LINE
8
0
10
1.404
20
0.544
11
2.362
21
0.432
0
0
LINE
8
0
10
2.362
20
0.432
11
2.362
21
0.432
0
0
LINE
8
0
10
2.593
20
1.003
11
2.593
21
1.035
0
0
LINE
8
0
10
2.593
20
1.003
11
2.593
21
1.035
0
0
LINE
8
0
10
2.593
20
1.035
11
2.593
21
1.971
0
0
LINE
8
0
10
2.593
20
2.803
11
2.593
21
2.902
0
0
LINE
8
0
10
2.593
20
2.902
11
2.593
21
3.771
0
0
LINE
8
0
10
2.593
20
4.603
11
2.593
21
4.963
0
0
LINE
8
0
10
2.593
20
4.963
11
2.593
21
5.571
0
0
LINE
8
0
10
2.593
20
6.403
11
2.593
21
6.851
0
0
LINE
8
0
10
2.593
20
6.851
11
2.593
21
7.371
0
0
LINE
8
0
10
2.593
20
8.203
11
2.593
21
9.109
0
0
LINE
8
0
10
2.593
20
9.109
11
2.593
21
9.170
0
0
LINE
8
0
10
2.593
20
10.003
11
2.593
21
10.388
0
0
LINE
8
0
10
2.593
20
10.388
11
2.593
21
10.971
0
0
LINE
8
0
10
2.593
20
11.803
11
2.593
21
12.073
0
0
LINE
8
0
10
2.593
20
12.073
11
2.593
21
12.771
0
0
LINE
8
0
10
2.593
20
13.603
11
2.593
21
13.940
0
0
LINE
8
0
10
5.093
20
1.082
11
5.093
21
1.258
0
0
LINE
8
0
10
5.093
20
1.082
11
5.093
21
1.258
0
0
LINE
8
0
10
5.093
20
1.258
11
5.093
21
2.050
0
0
LINE
8
0
10
5.093
20
2.882
11
5.093
21
3.031
0
0
LINE
8
0
10
5.093
20
3.031
11
5.093
21
3.850
0
0
LINE
8
0
10
5.093
20
4.682
11
5.093
21
5.290
0
0
LINE
8
0
10
5.093
20
5.290
11
5.093
21
5.650
0
0
LINE
8
0
10
5.093
20
6.482
11
5.093
21
6.942
0
0
LINE
8
0
10
5.093
20
6.942
11
5.093
21
6.943
0
0
LINE
8
0
10
5.093
20
6.943
11
5.093
21
7.450
0
0
LINE
8
0
10
5.093
20
8.281
11
5.093
21
8.534
0
0
LINE
8
0
10
5.093
20
8.534
11
5.093
21
9.250
0
0
LINE
8
0
10
5.093
20
10.082
11
5.093
21
10.454
0
0
LINE
8
0
10
5.093
20
10.454
11
5.093
21
11.050
0
0
LINE
8
0
10
5.093
20
11.882
11
5.093
21
12.242
0
0
LINE
8
0
10
5.093
20
12.242
11
5.093
21
12.850
0
0
LINE
8
0
10
5.093
20
13.681
11
5.093
21
13.979
0
0
LINE
8
0
10
7.593
20
1.140
11
7.593
21
1.141
0
0
LINE
8
0
10
7.593
20
1.140
11
7.593
21
1.141
0
0
LINE
8
0
10
7.593
20
1.141
11
7.593
21
1.501
0
0
LINE
8
0
10
7.593
20
1.501
11
7.593
21
2.109
0
0
LINE
8
0
10
7.593
20
2.940
11
7.593
21
3.379
0
0
LINE
8
0
10
7.593
20
3.379
11
7.593
21
3.909
0
0
LINE
8
0
10
7.593
20
4.740
11
7.593
21
4.741
0
0
LINE
8
0
10
7.593
20
4.741
11
7.593
21
5.349
0
0
LINE
8
0
10
7.593
20
5.349
11
7.593
21
5.709
0
0
LINE
8
0
10
7.593
20
6.540
11
7.593
21
6.541
0
0
LINE
8
0
10
7.593
20
6.541
11
7.593
21
6.852
0
0
LINE
8
0
10
7.593
20
6.852
11
7.593
21
7.509
0
0
LINE
8
0
10
7.593
20
8.339
11
7.593
21
8.531
0
0
LINE
8
0
10
7.593
20
8.531
11
7.593
21
9.309
0
0
LINE
8
0
10
7.593
20
10.140
11
7.593
21
10.141
0
0
LINE
8
0
10
7.593
20
10.141
11
7.593
21
10.538
0
0
LINE
8
0
10
7.593
20
10.538
11
7.593
21
11.109
0
0
LINE
8
0
10
7.593
20
11.940
11
7.593
21
11.941
0
0
LINE
8
0
10
7.593
20
11.941
11
7.593
21
12.301
0
0
LINE
8
0
10
7.593
20
12.301
11
7.593
21
12.909
0
0
LINE
8
0
10
7.593
20
13.740
11
7.593
21
13.876
0
0
LINE
8
0
10
7.593
20
13.876
11
7.593
21
13.914
0
0
LINE
8
0
10
7.593
20
13.914
11
7.593
21
14.018
0
0
LINE
8
0
10
10.093
20
1.081
11
10.093
21
1.255
0
0
LINE
8
0
10
10.093
20
1.081
11
10.093
21
1.255
0
0
LINE
8
0
10
10.093
20
1.255
11
10.093
21
2.049
0
0
LINE
8
0
10
10.093
20
2.881
11
10.093
21
3.247
0
0
LINE
8
0
10
10.093
20
3.247
11
10.093
21
3.849
0
0
LINE
8
0
10
10.093
20
4.681
11
10.093
21
5.289
0
0
LINE
8
0
10
10.093
20
5.289
11
10.093
21
5.649
0
0
LINE
8
0
10
10.093
20
6.481
11
10.093
21
6.942
0
0
LINE
8
0
10
10.093
20
6.942
11
10.093
21
7.449
0
0
LINE
8
0
10
10.093
20
8.280
11
10.093
21
8.534
0
0
LINE
8
0
10
10.093
20
8.534
11
10.093
21
9.249
0
0
LINE
8
0
10
10.093
20
10.081
11
10.093
21
10.830
0
0
LINE
8
0
10
10.093
20
10.830
11
10.093
21
11.049
0
0
LINE
8
0
10
10.093
20
11.881
11
10.093
21
12.241
0
0
LINE
8
0
10
10.093
20
12.241
11
10.093
21
12.849
0
0
LINE
8
0
10
10.093
20
13.681
11
10.093
21
13.973
0
0
LINE
8
0
10
12.593
20
1.020
11
12.593
21
1.090
0
0
LINE
8
0
10
12.593
20
1.020
11
12.593
21
1.090
0
0
LINE
8
0
10
12.593
20
1.090
11
12.593
21
1.989
0
0
LINE
8
0
10
12.593
20
2.821
11
12.593
21
3.378
0
0
LINE
8
0
10
12.593
20
3.378
11
12.593
21
3.789
0
0
LINE
8
0
10
12.593
20
4.621
11
12.593
21
5.229
0
0
LINE
8
0
10
12.593
20
5.229
11
12.593
21
5.589
0
0
LINE
8
0
10
12.593
20
6.421
11
12.593
21
7.029
0
0
LINE
8
0
10
12.593
20
7.029
11
12.593
21
7.389
0
0
LINE
8
0
10
12.593
20
8.221
11
12.593
21
8.575
0
0
LINE
8
0
10
12.593
20
8.575
11
12.593
21
9.189
0
0
LINE
8
0
10
12.593
20
10.021
11
12.593
21
10.989
0
0
LINE
8
0
10
12.593
20
11.821
11
12.593
21
12.181
0
0
LINE
8
0
10
12.593
20
12.181
11
12.593
21
12.789
0
0
LINE
8
0
10
12.593
20
13.620
11
12.593
21
13.928
0
0
LINE
8
0
10
1.239
20
2.592
11
1.573
21
2.592
0
0
LINE
8
0
10
1.239
20
2.592
11
1.573
21
2.592
0
0
LINE
8
0
10
2.405
20
2.592
11
3.013
21
2.592
0
0
LINE
8
0
10
3.013
20
2.592
11
3.373
21
2.592
0
0
LINE
8
0
10
4.204
20
2.592
11
4.231
21
2.592
0
0
LINE
8
0
10
4.231
20
2.592
11
5.173
21
2.592
0
0
LINE
8
0
10
6.005
20
2.592
11
6.040
21
2.592
0
0
LINE
8
0
10
6.040
20
2.592
11
6.973
21
2.592
0
0
LINE
8
0
10
7.805
20
2.592
11
8.413
21
2.592
0
0
LINE
8
0
10
8.413
20
2.592
11
8.773
21
2.592
0
0
LINE
8
0
10
9.605
20
2.592
11
9.965
21
2.592
0
0
LINE
8
0
10
9.965
20
2.592
11
10.573
21
2.592
0
0
LINE
8
0
10
11.405
20
2.592
11
12.156
21
2.592
0
0
LINE
8
0
10
12.156
20
2.592
11
12.373
21
2.592
0
0
LINE
8
0
10
13.204
20
2.592
11
13.205
21
2.592
0
0
LINE
8
0
10
13.205
20
2.592
11
13.736
21
2.592
0
0
LINE
8
0
10
13.736
20
2.592
11
14.173
21
2.592
0
0
LINE
8
0
10
1.187
20
5.092
11
1.485
21
5.092
0
0
LINE
8
0
10
1.187
20
5.092
11
1.485
21
5.092
0
0
LINE
8
0
10
2.317
20
5.092
11
2.925
21
5.092
0
0
LINE
8
0
10
2.925
20
5.092
11
3.285
21
5.092
0
0
LINE
8
0
10
4.116
20
5.092
11
4.383
21
5.092
0
0
LINE
8
0
10
4.383
20
5.092
11
4.385
21
5.092
0
0
LINE
8
0
10
4.385
20
5.092
11
5.085
21
5.092
0
0
LINE
8
0
10
5.916
20
5.092
11
6.017
21
5.092
0
0
LINE
8
0
10
6.017
20
5.092
11
6.885
21
5.092
0
0
LINE
8
0
10
7.717
20
5.092
11
8.038
21
5.092
0
0
LINE
8
0
10
8.038
20
5.092
11
8.418
21
5.092
0
0
LINE
8
0
10
8.418
20
5.092
11
8.685
21
5.092
0
0
LINE
8
0
10
9.517
20
5.092
11
9.877
21
5.092
0
0
LINE
8
0
10
9.877
20
5.092
11
10.485
21
5.092
0
0
LINE
8
0
10
11.317
20
5.092
11
11.719
21
5.092
0
0
LINE
8
0
10
11.719
20
5.092
11
12.285
21
5.092
0
0
LINE
8
0
10
13.117
20
5.092
11
13.725
21
5.092
0
0
LINE
8
0
10
13.725
20
5.092
11
14.085
21
5.092
0
0
LINE
8
0
10
1.183
20
7.592
11
1.460
21
7.592
0
0
LINE
8
0
10
1.183
20
7.592
11
1.460
21
7.592
0
0
LINE
8
0
10
2.292
20
7.592
11
2.900
21
7.592
0
0
LINE
8
0
10
2.900
20
7.592
11
3.260
21
7.592
0
0
LINE
8
0
10
4.092
20
7.592
11
4.409
21
7.592
0
0
LINE
8
0
10
4.409
20
7.592
11
4.411
21
7.592
0
0
LINE
8
0
10
4.411
20
7.592
11
5.060
21
7.592
0
0
LINE
8
0
10
5.892
20
7.592
11
6.423
21
7.592
0
0
LINE
8
0
10
6.423
20
7.592
11
6.860
21
7.592
0
0
LINE
8
0
10
7.692
20
7.592
11
8.037
21
7.592
0
0
LINE
8
0
10
8.037
20
7.592
11
8.412
21
7.592
0
0
LINE
8
0
10
8.412
20
7.592
11
8.660
21
7.592
0
0
LINE
8
0
10
9.492
20
7.592
11
10.100
21
7.592
0
0
LINE
8
0
10
10.100
20
7.592
11
10.460
21
7.592
0
0
LINE
8
0
10
11.292
20
7.592
11
11.677
21
7.592
0
0
LINE
8
0
10
11.677
20
7.592
11
12.260
21
7.592
0
0
LINE
8
0
10
13.092
20
7.592
11
13.148
21
7.592
0
0
LINE
8
0
10
13.148
20
7.592
11
13.508
21
7.592
0
0
LINE
8
0
10
13.508
20
7.592
11
14.060
21
7.592
0
0
LINE
8
0
10
1.169
20
10.092
11
1.460
21
10.092
0
0
LINE
8
0
10
1.169
20
10.092
11
1.460
21
10.092
0
0
LINE
8
0
10
2.292
20
10.092
11
2.900
21
10.092
0
0
LINE
8
0
10
2.900
20
10.092
11
3.260
21
10.092
0
0
LINE
8
0
10
4.092
20
10.092
11
4.409
21
10.092
0
0
LINE
8
0
10
4.409
20
10.092
11
4.411
21
10.092
0
0
LINE
8
0
10
4.411
20
10.092
11
5.060
21
10.092
0
0
LINE
8
0
10
5.892
20
10.092
11
6.423
21
10.092
0
0
LINE
8
0
10
6.423
20
10.092
11
6.860
21
10.092
0
0
LINE
8
0
10
7.692
20
10.092
11
8.037
21
10.092
0
0
LINE
8
0
10
8.037
20
10.092
11
8.412
21
10.092
0
0
LINE
8
0
10
8.412
20
10.092
11
8.660
21
10.092
0
0
LINE
8
0
10
9.492
20
10.092
11
10.100
21
10.092
0
0
LINE
8
0
10
10.100
20
10.092
11
10.460
21
10.092
0
0
LINE
8
0
10
11.292
20
10.092
11
11.677
21
10.092
0
0
LINE
8
0
10
11.677
20
10.092
11
12.260
21
10.092
0
0
LINE
8
0
10
13.092
20
10.092
11
13.148
21
10.092
0
0
LINE
8
0
10
13.148
20
10.092
11
13.508
21
10.092
0
0
LINE
8
0
10
13.508
20
10.092
11
14.060
21
10.092
0
0
LINE
8
0
10
1.151
20
12.592
11
1.460
21
12.592
0
0
LINE
8
0
10
1.151
20
12.592
11
1.460
21
12.592
0
0
LINE
8
0
10
2.292
20
12.592
11
2.900
21
12.592
0
0
LINE
8
0
10
2.900
20
12.592
11
3.260
21
12.592
0
0
LINE
8
0
10
4.092
20
12.592
11
4.409
21
12.592
0
0
LINE
8
0
10
4.409
20
12.592
11
4.411
21
12.592
0
0
LINE
8
0
10
4.411
20
12.592
11
5.060
21
12.592
0
0
LINE
8
0
10
5.892
20
12.592
11
6.423
21
12.592
0
0
LINE
8
0
10
6.423
20
12.592
11
6.860
21
12.592
0
0
LINE
8
0
10
7.692
20
12.592
11
8.037
21
12.592
0
0
LINE
8
0
10
8.037
20
12.592
11
8.412
21
12.592
0
0
LINE
8
0
10
8.412
20
12.592
11
8.660
21
12.592
0
0
LINE
8
0
10
9.492
20
12.592
11
10.100
21
12.592
0
0
LINE
8
0
10
10.100
20
12.592
11
10.460
21
12.592
0
0
LINE
8
0
10
11.292
20
12.592
11
11.677
21
12.592
0
0
LINE
8
0
10
11.677
20
12.592
11
12.260
21
12.592
0
0
LINE
8
0
10
13.092
20
12.592
11
13.148
21
12.592
0
0
LINE
8
0
10
13.148
20
12.592
11
13.508
21
12.592
0
0
LINE
8
0
10
13.508
20
12.592
11
14.060
21
12.592
0
0
ENDSEC
0
EOF
