0
SECTION
2
ENTITIES
0
LINE
8
0
10
2.401
20
0.431
11
2.402
21
0.431
0
0
LINE
8
0
10
2.401
20
0.431
11
2.402
21
0.431
0
0
LINE
8
0
10
2.401
20
0.431
11
2.142
21
0.444
0
0
LINE
8
0
10
2.142
20
0.444
11
1.144
21
0.632
0
0
LINE
8
0
10
0.718
20
0.991
11
0.524
21
1.549
0
0
LINE
8
0
10
0.460
20
2.061
11
0.469
21
3.343
0
0
LINE
8
0
10
0.482
20
3.859
11
0.515
21
5.143
0
0
LINE
8
0
10
0.528
20
5.659
11
0.560
21
6.942
0
0
LINE
8
0
10
0.573
20
7.458
11
0.556
21
8.741
0
0
LINE
8
0
10
0.540
20
9.258
11
0.501
21
10.540
0
0
LINE
8
0
10
0.485
20
11.057
11
0.445
21
12.339
0
0
LINE
8
0
10
0.442
20
12.856
11
0.661
21
14.111
0
0
LINE
8
0
10
1.004
20
14.489
11
2.245
21
14.754
0
0
LINE
8
0
10
2.761
20
14.736
11
4.044
21
14.691
0
0
LINE
8
0
10
4.560
20
14.673
11
5.843
21
14.629
0
0
LINE
8
0
10
6.359
20
14.626
11
7.643
21
14.628
0
0
LINE
8
0
10
8.159
20
14.628
11
9.442
21
14.630
0
0
LINE
8
0
10
9.959
20
14.631
11
11.243
21
14.633
0
0
LINE
8
0
10
11.759
20
14.634
11
13.043
21
14.635
0
0
LINE
8
0
10
13.559
20
14.636
11
14.511
21
14.637
0
0
LINE
8
0
10
14.511
20
14.637
11
14.626
21
14.421
0
0
LINE
8
0
10
14.626
20
14.421
11
13.559
21
14.636
0
0
LINE
8
0
10
14.626
20
13.905
11
14.626
21
12.621
0
0
LINE
8
0
10
14.626
20
12.105
11
14.626
21
10.821
0
0
LINE
8
0
10
14.626
20
10.305
11
14.626
21
9.021
0
0
LINE
8
0
10
14.626
20
8.505
11
14.626
21
7.221
0
0
LINE
8
0
10
14.626
20
6.705
11
14.640
21
5.422
0
0
LINE
8
0
10
14.658
20
4.904
11
14.703
21
3.623
0
0
LINE
8
0
10
14.721
20
3.107
11
14.694
21
1.827
0
0
LINE
8
0
10
14.628
20
1.315
11
14.308
21
0.794
0
0
LINE
8
0
10
14.308
20
0.794
11
13.708
21
0.538
0
0
LINE
8
0
10
13.708
20
0.538
11
14.628
21
1.315
0
0
LINE
8
0
10
13.196
20
0.469
11
13.144
21
0.465
0
0
LINE
8
0
10
13.144
20
0.465
11
12.888
21
0.448
0
0
LINE
8
0
10
12.888
20
0.448
11
11.914
21
0.471
0
0
LINE
8
0
10
11.398
20
0.483
11
10.115
21
0.514
0
0
LINE
8
0
10
9.599
20
0.526
11
8.315
21
0.557
0
0
LINE
8
0
10
7.799
20
0.570
11
6.517
21
0.561
0
0
LINE
8
0
10
6.000
20
0.545
11
4.717
21
0.504
0
0
LINE
8
0
10
4.201
20
0.488
11
2.918
21
0.447
0
0
LINE
8
0
10
2.593
20
0.764
11
2.593
21
1.734
0
0
LINE
8
0
10
2.593
20
0.764
11
2.593
21
1.734
0
0
LINE
8
0
10
2.593
20
2.249
11
2.593
21
2.250
0
0
LINE
8
0
10
2.593
20
2.250
11
2.593
21
3.328
0
0
LINE
8
0
10
2.593
20
3.328
11
2.593
21
3.533
0
0
LINE
8
0
10
2.593
20
4.049
11
2.593
21
4.952
0
0
LINE
8
0
10
2.593
20
4.952
11
2.593
21
5.333
0
0
LINE
8
0
10
2.593
20
5.850
11
2.593
21
6.639
0
0
LINE
8
0
10
2.593
20
6.639
11
2.593
21
7.133
0
0
LINE
8
0
10
2.593
20
7.650
11
2.593
21
8.371
0
0
LINE
8
0
10
2.593
20
8.371
11
2.593
21
8.934
0
0
LINE
8
0
10
2.593
20
9.450
11
2.593
21
9.450
0
0
LINE
8
0
10
2.593
20
9.450
11
2.593
21
10.486
0
0
LINE
8
0
10
2.593
20
10.486
11
2.593
21
10.733
0
0
LINE
8
0
10
2.593
20
11.249
11
2.593
21
11.714
0
0
LINE
8
0
10
2.593
20
11.714
11
2.593
21
12.534
0
0
LINE
8
0
10
2.593
20
13.050
11
2.593
21
13.050
0
0
LINE
8
0
10
2.593
20
13.050
11
2.593
21
14.085
0
0
LINE
8
0
10
2.593
20
14.085
11
2.593
21
14.334
0
0
LINE
8
0
10
5.093
20
0.792
11
5.093
21
1.647
0
0
LINE
8
0
10
5.093
20
0.792
11
5.093
21
1.647
0
0
LINE
8
0
10
5.093
20
2.163
11
5.093
21
2.412
0
0
LINE
8
0
10
5.093
20
2.412
11
5.093
21
3.446
0
0
LINE
8
0
10
5.093
20
3.963
11
5.093
21
4.035
0
0
LINE
8
0
10
5.093
20
4.035
11
5.093
21
5.070
0
0
LINE
8
0
10
5.093
20
5.070
11
5.093
21
5.247
0
0
LINE
8
0
10
5.093
20
5.763
11
5.093
21
6.689
0
0
LINE
8
0
10
5.093
20
6.689
11
5.093
21
7.046
0
0
LINE
8
0
10
5.093
20
7.563
11
5.093
21
8.114
0
0
LINE
8
0
10
5.093
20
8.114
11
5.093
21
8.411
0
0
LINE
8
0
10
5.093
20
8.411
11
5.093
21
8.846
0
0
LINE
8
0
10
5.093
20
9.364
11
5.093
21
9.611
0
0
LINE
8
0
10
5.093
20
9.611
11
5.093
21
10.646
0
0
LINE
8
0
10
5.093
20
11.163
11
5.093
21
11.757
0
0
LINE
8
0
10
5.093
20
11.757
11
5.093
21
12.447
0
0
LINE
8
0
10
5.093
20
12.963
11
5.093
21
13.211
0
0
LINE
8
0
10
5.093
20
13.211
11
5.093
21
14.246
0
0
LINE
8
0
10
7.593
20
0.824
11
7.593
21
1.619
0
0
LINE
8
0
10
7.593
20
0.824
11
7.593
21
1.619
0
0
LINE
8
0
10
7.593
20
2.135
11
7.593
21
2.384
0
0
LINE
8
0
10
7.593
20
2.384
11
7.593
21
3.420
0
0
LINE
8
0
10
7.593
20
3.936
11
7.593
21
4.971
0
0
LINE
8
0
10
7.593
20
4.971
11
7.593
21
5.220
0
0
LINE
8
0
10
7.593
20
5.735
11
7.593
21
6.676
0
0
LINE
8
0
10
7.593
20
6.676
11
7.593
21
7.019
0
0
LINE
8
0
10
7.593
20
7.535
11
7.593
21
7.784
0
0
LINE
8
0
10
7.593
20
7.784
11
7.593
21
8.819
0
0
LINE
8
0
10
7.593
20
9.335
11
7.593
21
10.371
0
0
LINE
8
0
10
7.593
20
10.371
11
7.593
21
10.620
0
0
LINE
8
0
10
7.593
20
11.136
11
7.593
21
11.384
0
0
LINE
8
0
10
7.593
20
11.384
11
7.593
21
12.419
0
0
LINE
8
0
10
7.593
20
12.935
11
7.593
21
13.184
0
0
LINE
8
0
10
7.593
20
13.184
11
7.593
21
14.220
0
0
LINE
8
0
10
10.093
20
0.783
11
10.093
21
1.623
0
0
LINE
8
0
10
10.093
20
0.783
11
10.093
21
1.623
0
0
LINE
8
0
10
10.093
20
2.139
11
10.093
21
2.388
0
0
LINE
8
0
10
10.093
20
2.388
11
10.093
21
3.422
0
0
LINE
8
0
10
10.093
20
3.940
11
10.093
21
4.866
0
0
LINE
8
0
10
10.093
20
4.866
11
10.093
21
5.223
0
0
LINE
8
0
10
10.093
20
5.739
11
10.093
21
5.987
0
0
LINE
8
0
10
10.093
20
5.987
11
10.093
21
7.022
0
0
LINE
8
0
10
10.093
20
7.539
11
10.093
21
7.570
0
0
LINE
8
0
10
10.093
20
7.570
11
10.093
21
8.822
0
0
LINE
8
0
10
10.093
20
9.339
11
10.093
21
10.374
0
0
LINE
8
0
10
10.093
20
10.374
11
10.093
21
10.623
0
0
LINE
8
0
10
10.093
20
11.139
11
10.093
21
11.387
0
0
LINE
8
0
10
10.093
20
11.387
11
10.093
21
12.422
0
0
LINE
8
0
10
10.093
20
12.940
11
10.093
21
13.975
0
0
LINE
8
0
10
10.093
20
13.975
11
10.093
21
14.223
0
0
LINE
8
0
10
12.593
20
0.743
11
12.593
21
1.626
0
0
LINE
8
0
10
12.593
20
0.743
11
12.593
21
1.626
0
0
LINE
8
0
10
12.593
20
2.143
11
12.593
21
2.392
0
0
LINE
8
0
10
12.593
20
2.392
11
12.593
21
3.426
0
0
LINE
8
0
10
12.593
20
3.943
11
12.593
21
4.687
0
0
LINE
8
0
10
12.593
20
4.687
11
12.593
21
5.056
0
0
LINE
8
0
10
12.593
20
5.056
11
12.593
21
5.226
0
0
LINE
8
0
10
12.593
20
5.743
11
12.593
21
6.679
0
0
LINE
8
0
10
12.593
20
6.679
11
12.593
21
7.027
0
0
LINE
8
0
10
12.593
20
7.543
11
12.593
21
8.483
0
0
LINE
8
0
10
12.593
20
8.483
11
12.593
21
8.826
0
0
LINE
8
0
10
12.593
20
9.344
11
12.593
21
10.379
0
0
LINE
8
0
10
12.593
20
10.379
11
12.593
21
10.627
0
0
LINE
8
0
10
12.593
20
11.143
11
12.593
21
11.392
0
0
LINE
8
0
10
12.593
20
11.392
11
12.593
21
12.427
0
0
LINE
8
0
10
12.593
20
12.944
11
12.593
21
13.191
0
0
LINE
8
0
10
12.593
20
13.191
11
12.593
21
14.226
0
0
LINE
8
0
10
0.859
20
2.592
11
0.859
21
2.592
0
0
LINE
8
0
10
0.859
20
2.592
11
0.859
21
2.592
0
0
LINE
8
0
10
0.859
20
2.592
11
1.895
21
2.592
0
0
LINE
8
0
10
1.895
20
2.592
11
2.143
21
2.592
0
0
LINE
8
0
10
2.659
20
2.592
11
2.659
21
2.592
0
0
LINE
8
0
10
2.659
20
2.592
11
3.695
21
2.592
0
0
LINE
8
0
10
3.695
20
2.592
11
3.942
21
2.592
0
0
LINE
8
0
10
4.458
20
2.592
11
4.459
21
2.592
0
0
LINE
8
0
10
4.459
20
2.592
11
5.495
21
2.592
0
0
LINE
8
0
10
5.495
20
2.592
11
5.742
21
2.592
0
0
LINE
8
0
10
6.258
20
2.592
11
6.709
21
2.592
0
0
LINE
8
0
10
6.709
20
2.592
11
7.543
21
2.592
0
0
LINE
8
0
10
8.059
20
2.592
11
8.059
21
2.592
0
0
LINE
8
0
10
8.059
20
2.592
11
9.095
21
2.592
0
0
LINE
8
0
10
9.095
20
2.592
11
9.342
21
2.592
0
0
LINE
8
0
10
9.858
20
2.592
11
9.859
21
2.592
0
0
LINE
8
0
10
9.859
20
2.592
11
10.895
21
2.592
0
0
LINE
8
0
10
10.895
20
2.592
11
11.143
21
2.592
0
0
LINE
8
0
10
11.658
20
2.592
11
12.666
21
2.592
0
0
LINE
8
0
10
12.666
20
2.592
11
12.943
21
2.592
0
0
LINE
8
0
10
13.458
20
2.592
11
14.201
21
2.592
0
0
LINE
8
0
10
14.201
20
2.592
11
14.417
21
2.592
0
0
LINE
8
0
10
0.921
20
5.092
11
1.750
21
5.092
0
0
LINE
8
0
10
0.921
20
5.092
11
1.750
21
5.092
0
0
LINE
8
0
10
1.750
20
5.092
11
2.205
21
5.092
0
0
LINE
8
0
10
2.721
20
5.092
11
2.771
21
5.092
0
0
LINE
8
0
10
2.771
20
5.092
11
3.846
21
5.092
0
0
LINE
8
0
10
3.846
20
5.092
11
4.005
21
5.092
0
0
LINE
8
0
10
4.521
20
5.092
11
4.770
21
5.092
0
0
LINE
8
0
10
4.770
20
5.092
11
5.806
21
5.092
0
0
LINE
8
0
10
6.321
20
5.092
11
6.730
21
5.092
0
0
LINE
8
0
10
6.730
20
5.092
11
7.606
21
5.092
0
0
LINE
8
0
10
8.121
20
5.092
11
9.114
21
5.092
0
0
LINE
8
0
10
9.114
20
5.092
11
9.405
21
5.092
0
0
LINE
8
0
10
9.921
20
5.092
11
10.170
21
5.092
0
0
LINE
8
0
10
10.170
20
5.092
11
11.206
21
5.092
0
0
LINE
8
0
10
11.722
20
5.092
11
12.757
21
5.092
0
0
LINE
8
0
10
12.757
20
5.092
11
13.005
21
5.092
0
0
LINE
8
0
10
13.521
20
5.092
11
13.522
21
5.092
0
0
LINE
8
0
10
13.522
20
5.092
11
14.376
21
5.092
0
0
LINE
8
0
10
0.984
20
7.592
11
1.765
21
7.592
0
0
LINE
8
0
10
0.984
20
7.592
11
1.765
21
7.592
0
0
LINE
8
0
10
1.765
20
7.592
11
2.268
21
7.592
0
0
LINE
8
0
10
2.784
20
7.592
11
2.833
21
7.592
0
0
LINE
8
0
10
2.833
20
7.592
11
3.890
21
7.592
0
0
LINE
8
0
10
3.890
20
7.592
11
4.069
21
7.592
0
0
LINE
8
0
10
4.585
20
7.592
11
4.585
21
7.592
0
0
LINE
8
0
10
4.585
20
7.592
11
5.620
21
7.592
0
0
LINE
8
0
10
5.620
20
7.592
11
5.869
21
7.592
0
0
LINE
8
0
10
6.384
20
7.592
11
6.996
21
7.592
0
0
LINE
8
0
10
6.996
20
7.592
11
7.668
21
7.592
0
0
LINE
8
0
10
8.185
20
7.592
11
9.150
21
7.592
0
0
LINE
8
0
10
9.150
20
7.592
11
9.469
21
7.592
0
0
LINE
8
0
10
9.985
20
7.592
11
9.985
21
7.592
0
0
LINE
8
0
10
9.985
20
7.592
11
11.021
21
7.592
0
0
LINE
8
0
10
11.021
20
7.592
11
11.268
21
7.592
0
0
LINE
8
0
10
11.784
20
7.592
11
11.785
21
7.592
0
0
LINE
8
0
10
11.785
20
7.592
11
12.820
21
7.592
0
0
LINE
8
0
10
12.820
20
7.592
11
13.069
21
7.592
0
0
LINE
8
0
10
13.584
20
7.592
11
14.111
21
7.592
0
0
LINE
8
0
10
14.111
20
7.592
11
14.378
21
7.592
0
0
LINE
8
0
10
0.922
20
10.092
11
1.750
21
10.092
0
0
LINE
8
0
10
0.922
20
10.092
11
1.750
21
10.092
0
0
LINE
8
0
10
1.750
20
10.092
11
2.205
21
10.092
0
0
LINE
8
0
10
2.722
20
10.092
11
2.772
21
10.092
0
0
LINE
8
0
10
2.772
20
10.092
11
3.846
21
10.092
0
0
LINE
8
0
10
3.846
20
10.092
11
4.005
21
10.092
0
0
LINE
8
0
10
4.522
20
10.092
11
5.558
21
10.092
0
0
LINE
8
0
10
5.558
20
10.092
11
5.806
21
10.092
0
0
LINE
8
0
10
6.322
20
10.092
11
6.733
21
10.092
0
0
LINE
8
0
10
6.733
20
10.092
11
7.606
21
10.092
0
0
LINE
8
0
10
8.122
20
10.092
11
8.618
21
10.092
0
0
LINE
8
0
10
8.618
20
10.092
11
9.405
21
10.092
0
0
LINE
8
0
10
9.922
20
10.092
11
10.171
21
10.092
0
0
LINE
8
0
10
10.171
20
10.092
11
11.206
21
10.092
0
0
LINE
8
0
10
11.723
20
10.092
11
12.758
21
10.092
0
0
LINE
8
0
10
12.758
20
10.092
11
13.005
21
10.092
0
0
LINE
8
0
10
13.522
20
10.092
11
14.126
21
10.092
0
0
LINE
8
0
10
14.126
20
10.092
11
14.359
21
10.092
0
0
LINE
8
0
10
0.847
20
12.592
11
1.881
21
12.592
0
0
LINE
8
0
10
0.847
20
12.592
11
1.881
21
12.592
0
0
LINE
8
0
10
1.881
20
12.592
11
2.130
21
12.592
0
0
LINE
8
0
10
2.647
20
12.592
11
2.894
21
12.592
0
0
LINE
8
0
10
2.894
20
12.592
11
3.929
21
12.592
0
0
LINE
8
0
10
4.447
20
12.592
11
4.694
21
12.592
0
0
LINE
8
0
10
4.694
20
12.592
11
5.729
21
12.592
0
0
LINE
8
0
10
6.246
20
12.592
11
6.718
21
12.592
0
0
LINE
8
0
10
6.718
20
12.592
11
7.529
21
12.592
0
0
LINE
8
0
10
8.046
20
12.592
11
9.082
21
12.592
0
0
LINE
8
0
10
9.082
20
12.592
11
9.329
21
12.592
0
0
LINE
8
0
10
9.847
20
12.592
11
10.882
21
12.592
0
0
LINE
8
0
10
10.882
20
12.592
11
11.130
21
12.592
0
0
LINE
8
0
10
11.646
20
12.592
11
11.677
21
12.592
0
0
LINE
8
0
10
11.677
20
12.592
11
12.930
21
12.592
0
0
LINE
8
0
10
13.446
20
12.592
11
13.447
21
12.592
0
0
LINE
8
0
10
13.447
20
12.592
11
14.142
21
12.592
0
0
LINE
8
0
10
14.142
20
12.592
11
14.155
21
12.592
0
0
LINE
8
0
10
14.155
20
12.592
11
14.335
21
12.592
0
0
ENDSEC
0
EOF
